<svg width="451" height="129" viewBox="0 0 451 129" fill="none" xmlns="http://www.w3.org/2000/svg">
<g clip-path="url(#clip0_6586_65837)">
<line x1="177.193" y1="0.613281" x2="177.193" y2="128.396" stroke="#E5E7EB"/>
<path d="M203.799 36.9824V27.8964H207.887C208.914 27.8964 209.707 28.1064 210.267 28.5264C210.827 28.9464 211.107 29.5484 211.107 30.3324C211.107 30.8178 211 31.2098 210.785 31.5084C210.58 31.8071 210.286 32.0311 209.903 32.1804C209.521 32.3204 209.073 32.4138 208.559 32.4604L208.587 32.3624C208.97 32.3811 209.329 32.4231 209.665 32.4884C210.011 32.5538 210.309 32.6611 210.561 32.8104C210.823 32.9598 211.028 33.1651 211.177 33.4264C211.336 33.6878 211.415 34.0284 211.415 34.4484C211.415 34.9991 211.285 35.4611 211.023 35.8344C210.762 36.1984 210.398 36.4738 209.931 36.6604C209.474 36.8471 208.942 36.9544 208.335 36.9824H203.799ZM205.143 35.7784H208.083C208.699 35.7784 209.18 35.6664 209.525 35.4424C209.871 35.2184 210.043 34.8638 210.043 34.3784C210.043 34.0051 209.936 33.7251 209.721 33.5384C209.507 33.3518 209.227 33.2304 208.881 33.1744C208.545 33.1184 208.195 33.0904 207.831 33.0904H205.143V35.7784ZM205.143 31.9004H207.775C208.391 31.9004 208.872 31.7791 209.217 31.5364C209.563 31.2844 209.735 30.9204 209.735 30.4444C209.735 29.9591 209.563 29.6138 209.217 29.4084C208.872 29.2031 208.433 29.1004 207.901 29.1004H205.143V31.9004ZM219.494 36.9824H218.164V29.9964H219.494V36.9824ZM218.234 33.6924L218.248 34.1124C218.238 34.2338 218.206 34.4158 218.15 34.6584C218.103 34.8918 218.019 35.1484 217.898 35.4284C217.786 35.7084 217.627 35.9791 217.422 36.2404C217.226 36.5018 216.974 36.7164 216.666 36.8844C216.358 37.0524 215.984 37.1364 215.546 37.1364C215.247 37.1364 214.939 37.0944 214.622 37.0104C214.314 36.9264 214.029 36.7864 213.768 36.5904C213.506 36.3944 213.296 36.1284 213.138 35.7924C212.979 35.4471 212.9 35.0178 212.9 34.5044V29.9964H214.244V34.2244C214.244 34.6538 214.309 34.9898 214.44 35.2324C214.58 35.4751 214.776 35.6478 215.028 35.7504C215.28 35.8531 215.564 35.9044 215.882 35.9044C216.367 35.9044 216.773 35.7878 217.1 35.5544C217.436 35.3118 217.697 35.0224 217.884 34.6864C218.07 34.3411 218.187 34.0098 218.234 33.6924ZM222.863 27.1124V28.5544H221.197V27.1124H222.863ZM221.365 29.9964H222.695V36.9824H221.365V29.9964ZM224.729 27.1964H226.073V36.9824H224.729V27.1964ZM230.877 37.1224C230.271 37.1224 229.72 36.9684 229.225 36.6604C228.731 36.3524 228.339 35.9278 228.049 35.3864C227.769 34.8358 227.629 34.2058 227.629 33.4964C227.629 32.7871 227.769 32.1618 228.049 31.6204C228.329 31.0698 228.712 30.6404 229.197 30.3324C229.683 30.0151 230.243 29.8564 230.877 29.8564C231.428 29.8564 231.885 29.9498 232.249 30.1364C232.613 30.3231 232.898 30.5844 233.103 30.9204C233.309 31.2564 233.453 31.6438 233.537 32.0824C233.631 32.5211 233.677 32.9924 233.677 33.4964C233.677 33.8698 233.631 34.2664 233.537 34.6864C233.444 35.1064 233.295 35.5031 233.089 35.8764C232.884 36.2498 232.599 36.5531 232.235 36.7864C231.871 37.0104 231.419 37.1224 230.877 37.1224ZM231.255 35.9604C231.75 35.9604 232.165 35.8531 232.501 35.6384C232.847 35.4144 233.103 35.1158 233.271 34.7424C233.439 34.3691 233.523 33.9538 233.523 33.4964C233.523 33.0018 233.435 32.5678 233.257 32.1944C233.089 31.8211 232.833 31.5318 232.487 31.3264C232.151 31.1211 231.741 31.0184 231.255 31.0184C230.527 31.0184 229.963 31.2518 229.561 31.7184C229.169 32.1851 228.973 32.7778 228.973 33.4964C228.973 33.9818 229.071 34.4111 229.267 34.7844C229.463 35.1484 229.729 35.4378 230.065 35.6524C230.411 35.8578 230.807 35.9604 231.255 35.9604ZM233.523 27.1964H234.867V36.9824H233.635C233.607 36.7771 233.579 36.5251 233.551 36.2264C233.533 35.9278 233.523 35.6711 233.523 35.4564V27.1964ZM238.476 27.1124V28.5544H236.81V27.1124H238.476ZM236.978 29.9964H238.308V36.9824H236.978V29.9964ZM240.202 29.9964H241.546V36.9824H240.202V29.9964ZM244.206 29.8564C244.598 29.8564 244.953 29.9124 245.27 30.0244C245.588 30.1364 245.858 30.3044 246.082 30.5284C246.306 30.7431 246.479 31.0138 246.6 31.3404C246.731 31.6578 246.796 32.0218 246.796 32.4324V36.9824H245.466V32.7264C245.466 32.1758 245.331 31.7651 245.06 31.4944C244.799 31.2144 244.398 31.0744 243.856 31.0744C243.436 31.0744 243.054 31.1724 242.708 31.3684C242.363 31.5644 242.078 31.8258 241.854 32.1524C241.64 32.4698 241.509 32.8291 241.462 33.2304L241.448 32.4604C241.495 32.0871 241.593 31.7418 241.742 31.4244C241.901 31.1071 242.097 30.8318 242.33 30.5984C242.573 30.3558 242.853 30.1738 243.17 30.0524C243.488 29.9218 243.833 29.8564 244.206 29.8564ZM251.37 35.8904C250.791 35.8904 250.259 35.7738 249.774 35.5404C249.288 35.3071 248.901 34.9664 248.612 34.5184C248.332 34.0704 248.192 33.5291 248.192 32.8944C248.192 32.2691 248.332 31.7324 248.612 31.2844C248.892 30.8271 249.27 30.4771 249.746 30.2344C250.231 29.9824 250.772 29.8564 251.37 29.8564C251.547 29.8564 251.715 29.8704 251.874 29.8984C252.032 29.9171 252.186 29.9498 252.336 29.9964H255.388V31.2564C254.968 31.2564 254.543 31.1864 254.114 31.0464C253.694 30.9064 253.325 30.7571 253.008 30.5984L252.966 30.5284C253.283 30.6964 253.558 30.9018 253.792 31.1444C254.025 31.3778 254.202 31.6438 254.324 31.9424C254.454 32.2318 254.52 32.5584 254.52 32.9224C254.52 33.5384 254.38 34.0704 254.1 34.5184C253.829 34.9664 253.451 35.3071 252.966 35.5404C252.49 35.7738 251.958 35.8904 251.37 35.8904ZM253.512 39.8104V39.4884C253.512 39.0124 253.381 38.6718 253.12 38.4664C252.858 38.2611 252.476 38.1584 251.972 38.1584H250.334C249.988 38.1584 249.694 38.1304 249.452 38.0744C249.209 38.0184 249.008 37.9344 248.85 37.8224C248.691 37.7198 248.574 37.5891 248.5 37.4304C248.425 37.2811 248.388 37.1131 248.388 36.9264C248.388 36.5624 248.5 36.2871 248.724 36.1004C248.948 35.9138 249.232 35.7971 249.578 35.7504C249.923 35.6944 250.273 35.6898 250.628 35.7364L251.37 35.8904C250.838 35.9184 250.432 35.9698 250.152 36.0444C249.872 36.1191 249.732 36.2778 249.732 36.5204C249.732 36.6604 249.788 36.7724 249.9 36.8564C250.012 36.9404 250.17 36.9824 250.376 36.9824H252.084C252.616 36.9824 253.087 37.0478 253.498 37.1784C253.918 37.3184 254.244 37.5471 254.478 37.8644C254.72 38.1911 254.842 38.6344 254.842 39.1944V39.8104H253.512ZM251.37 34.7564C251.706 34.7564 252.009 34.6864 252.28 34.5464C252.56 34.3971 252.784 34.1871 252.952 33.9164C253.12 33.6364 253.204 33.3004 253.204 32.9084C253.204 32.5071 253.12 32.1664 252.952 31.8864C252.793 31.5971 252.574 31.3824 252.294 31.2424C252.014 31.0931 251.706 31.0184 251.37 31.0184C251.034 31.0184 250.721 31.0931 250.432 31.2424C250.152 31.3824 249.928 31.5924 249.76 31.8724C249.592 32.1524 249.508 32.4978 249.508 32.9084C249.508 33.3004 249.592 33.6364 249.76 33.9164C249.928 34.1871 250.152 34.3971 250.432 34.5464C250.712 34.6864 251.024 34.7564 251.37 34.7564ZM259.431 34.7144H260.663C260.71 35.0878 260.878 35.3958 261.167 35.6384C261.457 35.8718 261.863 35.9884 262.385 35.9884C262.721 35.9884 262.983 35.9511 263.169 35.8764C263.356 35.7924 263.487 35.6804 263.561 35.5404C263.645 35.4004 263.687 35.2464 263.687 35.0784C263.687 34.8638 263.631 34.7004 263.519 34.5884C263.407 34.4671 263.249 34.3691 263.043 34.2944C262.838 34.2104 262.595 34.1311 262.315 34.0564C262.007 33.9724 261.699 33.8744 261.391 33.7624C261.083 33.6504 260.799 33.5151 260.537 33.3564C260.285 33.1978 260.08 33.0018 259.921 32.7684C259.772 32.5258 259.697 32.2318 259.697 31.8864C259.697 31.5971 259.758 31.3264 259.879 31.0744C260.01 30.8224 260.192 30.6078 260.425 30.4304C260.668 30.2438 260.948 30.1038 261.265 30.0104C261.583 29.9078 261.933 29.8564 262.315 29.8564C262.847 29.8564 263.295 29.9544 263.659 30.1504C264.023 30.3371 264.299 30.6031 264.485 30.9484C264.681 31.2938 264.784 31.6904 264.793 32.1384H263.617C263.552 31.7464 263.417 31.4618 263.211 31.2844C263.006 31.0978 262.698 31.0044 262.287 31.0044C261.886 31.0044 261.578 31.0838 261.363 31.2424C261.149 31.4011 261.041 31.6158 261.041 31.8864C261.041 32.0918 261.116 32.2598 261.265 32.3904C261.415 32.5118 261.615 32.6191 261.867 32.7124C262.119 32.8058 262.404 32.9038 262.721 33.0064C263.02 33.1091 263.305 33.2164 263.575 33.3284C263.855 33.4311 264.103 33.5571 264.317 33.7064C264.541 33.8464 264.714 34.0331 264.835 34.2664C264.966 34.4904 265.031 34.7704 265.031 35.1064C265.031 35.5171 264.929 35.8764 264.723 36.1844C264.518 36.4831 264.219 36.7164 263.827 36.8844C263.445 37.0524 262.978 37.1364 262.427 37.1364C261.923 37.1364 261.494 37.0758 261.139 36.9544C260.794 36.8331 260.5 36.6744 260.257 36.4784C260.024 36.2824 259.842 36.0771 259.711 35.8624C259.59 35.6384 259.506 35.4238 259.459 35.2184C259.422 35.0131 259.413 34.8451 259.431 34.7144ZM273.033 36.9824H271.703V29.9964H273.033V36.9824ZM271.773 33.6924L271.787 34.1124C271.777 34.2338 271.745 34.4158 271.689 34.6584C271.642 34.8918 271.558 35.1484 271.437 35.4284C271.325 35.7084 271.166 35.9791 270.961 36.2404C270.765 36.5018 270.513 36.7164 270.205 36.8844C269.897 37.0524 269.523 37.1364 269.085 37.1364C268.786 37.1364 268.478 37.0944 268.161 37.0104C267.853 36.9264 267.568 36.7864 267.307 36.5904C267.045 36.3944 266.835 36.1284 266.677 35.7924C266.518 35.4471 266.439 35.0178 266.439 34.5044V29.9964H267.783V34.2244C267.783 34.6538 267.848 34.9898 267.979 35.2324C268.119 35.4751 268.315 35.6478 268.567 35.7504C268.819 35.8531 269.103 35.9044 269.421 35.9044C269.906 35.9044 270.312 35.7878 270.639 35.5544C270.975 35.3118 271.236 35.0224 271.423 34.6864C271.609 34.3411 271.726 34.0098 271.773 33.6924ZM281.638 34.3224C281.582 34.9011 281.395 35.4051 281.078 35.8344C280.77 36.2544 280.364 36.5764 279.86 36.8004C279.356 37.0244 278.796 37.1364 278.18 37.1364C277.499 37.1364 276.873 36.9964 276.304 36.7164C275.735 36.4271 275.277 36.0118 274.932 35.4704C274.596 34.9198 274.428 34.2664 274.428 33.5104C274.428 32.7451 274.596 32.0918 274.932 31.5504C275.277 30.9998 275.735 30.5798 276.304 30.2904C276.873 30.0011 277.499 29.8564 278.18 29.8564C278.796 29.8564 279.351 29.9684 279.846 30.1924C280.341 30.4164 280.747 30.7384 281.064 31.1584C281.381 31.5691 281.573 32.0638 281.638 32.6424H280.42C280.261 32.1384 279.977 31.7418 279.566 31.4524C279.165 31.1538 278.703 31.0044 278.18 31.0044C277.751 31.0044 277.349 31.1024 276.976 31.2984C276.612 31.4944 276.318 31.7791 276.094 32.1524C275.879 32.5164 275.772 32.9691 275.772 33.5104C275.772 34.0331 275.879 34.4811 276.094 34.8544C276.318 35.2184 276.612 35.4984 276.976 35.6944C277.34 35.8811 277.741 35.9744 278.18 35.9744C278.777 35.9744 279.263 35.8298 279.636 35.5404C280.009 35.2511 280.275 34.8451 280.434 34.3224H281.638ZM289.882 34.3224C289.826 34.9011 289.64 35.4051 289.322 35.8344C289.014 36.2544 288.608 36.5764 288.104 36.8004C287.6 37.0244 287.04 37.1364 286.424 37.1364C285.743 37.1364 285.118 36.9964 284.548 36.7164C283.979 36.4271 283.522 36.0118 283.176 35.4704C282.84 34.9198 282.672 34.2664 282.672 33.5104C282.672 32.7451 282.84 32.0918 283.176 31.5504C283.522 30.9998 283.979 30.5798 284.548 30.2904C285.118 30.0011 285.743 29.8564 286.424 29.8564C287.04 29.8564 287.596 29.9684 288.09 30.1924C288.585 30.4164 288.991 30.7384 289.308 31.1584C289.626 31.5691 289.817 32.0638 289.882 32.6424H288.664C288.506 32.1384 288.221 31.7418 287.81 31.4524C287.409 31.1538 286.947 31.0044 286.424 31.0044C285.995 31.0044 285.594 31.1024 285.22 31.2984C284.856 31.4944 284.562 31.7791 284.338 32.1524C284.124 32.5164 284.016 32.9691 284.016 33.5104C284.016 34.0331 284.124 34.4811 284.338 34.8544C284.562 35.2184 284.856 35.4984 285.22 35.6944C285.584 35.8811 285.986 35.9744 286.424 35.9744C287.022 35.9744 287.507 35.8298 287.88 35.5404C288.254 35.2511 288.52 34.8451 288.678 34.3224H289.882ZM296.67 34.7144H297.944C297.87 35.1718 297.692 35.5824 297.412 35.9464C297.132 36.3104 296.764 36.5998 296.306 36.8144C295.849 37.0291 295.312 37.1364 294.696 37.1364C293.968 37.1364 293.32 36.9824 292.75 36.6744C292.181 36.3664 291.733 35.9418 291.406 35.4004C291.08 34.8591 290.916 34.2291 290.916 33.5104C290.916 32.7824 291.075 32.1478 291.392 31.6064C291.71 31.0558 292.148 30.6264 292.708 30.3184C293.268 30.0104 293.908 29.8564 294.626 29.8564C295.382 29.8564 296.017 30.0058 296.53 30.3044C297.044 30.6031 297.422 31.0464 297.664 31.6344C297.916 32.2131 298.019 32.9364 297.972 33.8044H292.246C292.293 34.2244 292.419 34.5978 292.624 34.9244C292.839 35.2511 293.119 35.5078 293.464 35.6944C293.819 35.8811 294.225 35.9744 294.682 35.9744C295.196 35.9744 295.625 35.8578 295.97 35.6244C296.316 35.3911 296.549 35.0878 296.67 34.7144ZM294.64 31.0044C294.034 31.0044 293.53 31.1678 293.128 31.4944C292.727 31.8118 292.461 32.2364 292.33 32.7684H296.628C296.591 32.1991 296.386 31.7651 296.012 31.4664C295.639 31.1584 295.182 31.0044 294.64 31.0044ZM299.08 34.7144H300.312C300.359 35.0878 300.527 35.3958 300.816 35.6384C301.105 35.8718 301.511 35.9884 302.034 35.9884C302.37 35.9884 302.631 35.9511 302.818 35.8764C303.005 35.7924 303.135 35.6804 303.21 35.5404C303.294 35.4004 303.336 35.2464 303.336 35.0784C303.336 34.8638 303.28 34.7004 303.168 34.5884C303.056 34.4671 302.897 34.3691 302.692 34.2944C302.487 34.2104 302.244 34.1311 301.964 34.0564C301.656 33.9724 301.348 33.8744 301.04 33.7624C300.732 33.6504 300.447 33.5151 300.186 33.3564C299.934 33.1978 299.729 33.0018 299.57 32.7684C299.421 32.5258 299.346 32.2318 299.346 31.8864C299.346 31.5971 299.407 31.3264 299.528 31.0744C299.659 30.8224 299.841 30.6078 300.074 30.4304C300.317 30.2438 300.597 30.1038 300.914 30.0104C301.231 29.9078 301.581 29.8564 301.964 29.8564C302.496 29.8564 302.944 29.9544 303.308 30.1504C303.672 30.3371 303.947 30.6031 304.134 30.9484C304.33 31.2938 304.433 31.6904 304.442 32.1384H303.266C303.201 31.7464 303.065 31.4618 302.86 31.2844C302.655 31.0978 302.347 31.0044 301.936 31.0044C301.535 31.0044 301.227 31.0838 301.012 31.2424C300.797 31.4011 300.69 31.6158 300.69 31.8864C300.69 32.0918 300.765 32.2598 300.914 32.3904C301.063 32.5118 301.264 32.6191 301.516 32.7124C301.768 32.8058 302.053 32.9038 302.37 33.0064C302.669 33.1091 302.953 33.2164 303.224 33.3284C303.504 33.4311 303.751 33.5571 303.966 33.7064C304.19 33.8464 304.363 34.0331 304.484 34.2664C304.615 34.4904 304.68 34.7704 304.68 35.1064C304.68 35.5171 304.577 35.8764 304.372 36.1844C304.167 36.4831 303.868 36.7164 303.476 36.8844C303.093 37.0524 302.627 37.1364 302.076 37.1364C301.572 37.1364 301.143 37.0758 300.788 36.9544C300.443 36.8331 300.149 36.6744 299.906 36.4784C299.673 36.2824 299.491 36.0771 299.36 35.8624C299.239 35.6384 299.155 35.4238 299.108 35.2184C299.071 35.0131 299.061 34.8451 299.08 34.7144ZM305.779 34.7144H307.011C307.058 35.0878 307.226 35.3958 307.515 35.6384C307.804 35.8718 308.21 35.9884 308.733 35.9884C309.069 35.9884 309.33 35.9511 309.517 35.8764C309.704 35.7924 309.834 35.6804 309.909 35.5404C309.993 35.4004 310.035 35.2464 310.035 35.0784C310.035 34.8638 309.979 34.7004 309.867 34.5884C309.755 34.4671 309.596 34.3691 309.391 34.2944C309.186 34.2104 308.943 34.1311 308.663 34.0564C308.355 33.9724 308.047 33.8744 307.739 33.7624C307.431 33.6504 307.146 33.5151 306.885 33.3564C306.633 33.1978 306.428 33.0018 306.269 32.7684C306.12 32.5258 306.045 32.2318 306.045 31.8864C306.045 31.5971 306.106 31.3264 306.227 31.0744C306.358 30.8224 306.54 30.6078 306.773 30.4304C307.016 30.2438 307.296 30.1038 307.613 30.0104C307.93 29.9078 308.28 29.8564 308.663 29.8564C309.195 29.8564 309.643 29.9544 310.007 30.1504C310.371 30.3371 310.646 30.6031 310.833 30.9484C311.029 31.2938 311.132 31.6904 311.141 32.1384H309.965C309.9 31.7464 309.764 31.4618 309.559 31.2844C309.354 31.0978 309.046 31.0044 308.635 31.0044C308.234 31.0044 307.926 31.0838 307.711 31.2424C307.496 31.4011 307.389 31.6158 307.389 31.8864C307.389 32.0918 307.464 32.2598 307.613 32.3904C307.762 32.5118 307.963 32.6191 308.215 32.7124C308.467 32.8058 308.752 32.9038 309.069 33.0064C309.368 33.1091 309.652 33.2164 309.923 33.3284C310.203 33.4311 310.45 33.5571 310.665 33.7064C310.889 33.8464 311.062 34.0331 311.183 34.2664C311.314 34.4904 311.379 34.7704 311.379 35.1064C311.379 35.5171 311.276 35.8764 311.071 36.1844C310.866 36.4831 310.567 36.7164 310.175 36.8844C309.792 37.0524 309.326 37.1364 308.775 37.1364C308.271 37.1364 307.842 37.0758 307.487 36.9544C307.142 36.8331 306.848 36.6744 306.605 36.4784C306.372 36.2824 306.19 36.0771 306.059 35.8624C305.938 35.6384 305.854 35.4238 305.807 35.2184C305.77 35.0131 305.76 34.8451 305.779 34.7144ZM315.372 29.9964H319.894V31.1584H315.372V29.9964ZM316.968 28.1484H318.298V36.9824H316.968V28.1484ZM324.418 37.1364C323.737 37.1364 323.111 36.9918 322.542 36.7024C321.973 36.4131 321.52 35.9978 321.184 35.4564C320.848 34.9151 320.68 34.2664 320.68 33.5104C320.68 32.7451 320.848 32.0918 321.184 31.5504C321.52 30.9998 321.973 30.5798 322.542 30.2904C323.111 30.0011 323.737 29.8564 324.418 29.8564C325.099 29.8564 325.72 30.0011 326.28 30.2904C326.84 30.5798 327.288 30.9998 327.624 31.5504C327.96 32.0918 328.128 32.7451 328.128 33.5104C328.128 34.2664 327.96 34.9151 327.624 35.4564C327.288 35.9978 326.84 36.4131 326.28 36.7024C325.72 36.9918 325.099 37.1364 324.418 37.1364ZM324.418 35.9744C324.838 35.9744 325.225 35.8811 325.58 35.6944C325.944 35.4984 326.233 35.2184 326.448 34.8544C326.672 34.4811 326.784 34.0331 326.784 33.5104C326.784 32.9784 326.672 32.5258 326.448 32.1524C326.233 31.7791 325.944 31.4944 325.58 31.2984C325.225 31.1024 324.838 31.0044 324.418 31.0044C323.998 31.0044 323.606 31.1024 323.242 31.2984C322.878 31.4851 322.584 31.7651 322.36 32.1384C322.136 32.5118 322.024 32.9691 322.024 33.5104C322.024 34.0331 322.131 34.4811 322.346 34.8544C322.57 35.2184 322.864 35.4984 323.228 35.6944C323.592 35.8811 323.989 35.9744 324.418 35.9744ZM332.348 35.8904C331.77 35.8904 331.238 35.7738 330.752 35.5404C330.267 35.3071 329.88 34.9664 329.59 34.5184C329.31 34.0704 329.17 33.5291 329.17 32.8944C329.17 32.2691 329.31 31.7324 329.59 31.2844C329.87 30.8271 330.248 30.4771 330.724 30.2344C331.21 29.9824 331.751 29.8564 332.348 29.8564C332.526 29.8564 332.694 29.8704 332.852 29.8984C333.011 29.9171 333.165 29.9498 333.314 29.9964H336.366V31.2564C335.946 31.2564 335.522 31.1864 335.092 31.0464C334.672 30.9064 334.304 30.7571 333.986 30.5984L333.944 30.5284C334.262 30.6964 334.537 30.9018 334.77 31.1444C335.004 31.3778 335.181 31.6438 335.302 31.9424C335.433 32.2318 335.498 32.5584 335.498 32.9224C335.498 33.5384 335.358 34.0704 335.078 34.5184C334.808 34.9664 334.43 35.3071 333.944 35.5404C333.468 35.7738 332.936 35.8904 332.348 35.8904ZM334.49 39.8104V39.4884C334.49 39.0124 334.36 38.6718 334.098 38.4664C333.837 38.2611 333.454 38.1584 332.95 38.1584H331.312C330.967 38.1584 330.673 38.1304 330.43 38.0744C330.188 38.0184 329.987 37.9344 329.828 37.8224C329.67 37.7198 329.553 37.5891 329.478 37.4304C329.404 37.2811 329.366 37.1131 329.366 36.9264C329.366 36.5624 329.478 36.2871 329.702 36.1004C329.926 35.9138 330.211 35.7971 330.556 35.7504C330.902 35.6944 331.252 35.6898 331.606 35.7364L332.348 35.8904C331.816 35.9184 331.41 35.9698 331.13 36.0444C330.85 36.1191 330.71 36.2778 330.71 36.5204C330.71 36.6604 330.766 36.7724 330.878 36.8564C330.99 36.9404 331.149 36.9824 331.354 36.9824H333.062C333.594 36.9824 334.066 37.0478 334.476 37.1784C334.896 37.3184 335.223 37.5471 335.456 37.8644C335.699 38.1911 335.82 38.6344 335.82 39.1944V39.8104H334.49ZM332.348 34.7564C332.684 34.7564 332.988 34.6864 333.258 34.5464C333.538 34.3971 333.762 34.1871 333.93 33.9164C334.098 33.6364 334.182 33.3004 334.182 32.9084C334.182 32.5071 334.098 32.1664 333.93 31.8864C333.772 31.5971 333.552 31.3824 333.272 31.2424C332.992 31.0931 332.684 31.0184 332.348 31.0184C332.012 31.0184 331.7 31.0931 331.41 31.2424C331.13 31.3824 330.906 31.5924 330.738 31.8724C330.57 32.1524 330.486 32.4978 330.486 32.9084C330.486 33.3004 330.57 33.6364 330.738 33.9164C330.906 34.1871 331.13 34.3971 331.41 34.5464C331.69 34.6864 332.003 34.7564 332.348 34.7564ZM342.991 34.7144H344.265C344.19 35.1718 344.013 35.5824 343.733 35.9464C343.453 36.3104 343.084 36.5998 342.627 36.8144C342.169 37.0291 341.633 37.1364 341.017 37.1364C340.289 37.1364 339.64 36.9824 339.071 36.6744C338.501 36.3664 338.053 35.9418 337.727 35.4004C337.4 34.8591 337.237 34.2291 337.237 33.5104C337.237 32.7824 337.395 32.1478 337.713 31.6064C338.03 31.0558 338.469 30.6264 339.029 30.3184C339.589 30.0104 340.228 29.8564 340.947 29.8564C341.703 29.8564 342.337 30.0058 342.851 30.3044C343.364 30.6031 343.742 31.0464 343.985 31.6344C344.237 32.2131 344.339 32.9364 344.293 33.8044H338.567C338.613 34.2244 338.739 34.5978 338.945 34.9244C339.159 35.2511 339.439 35.5078 339.785 35.6944C340.139 35.8811 340.545 35.9744 341.003 35.9744C341.516 35.9744 341.945 35.8578 342.291 35.6244C342.636 35.3911 342.869 35.0878 342.991 34.7144ZM340.961 31.0044C340.354 31.0044 339.85 31.1678 339.449 31.4944C339.047 31.8118 338.781 32.2364 338.651 32.7684H342.949C342.911 32.1991 342.706 31.7651 342.333 31.4664C341.959 31.1584 341.502 31.0044 340.961 31.0044ZM345.095 29.9964H349.617V31.1584H345.095V29.9964ZM346.691 28.1484H348.021V36.9824H346.691V28.1484ZM356.308 36.9824V32.7684C356.308 32.3951 356.247 32.0871 356.126 31.8444C356.004 31.6018 355.822 31.4198 355.58 31.2984C355.337 31.1678 355.029 31.1024 354.656 31.1024C354.245 31.1024 353.867 31.2004 353.522 31.3964C353.186 31.5831 352.91 31.8398 352.696 32.1664C352.481 32.4838 352.35 32.8431 352.304 33.2444L352.29 32.4464C352.336 32.0824 352.434 31.7418 352.584 31.4244C352.742 31.1071 352.938 30.8318 353.172 30.5984C353.414 30.3651 353.694 30.1831 354.012 30.0524C354.329 29.9218 354.674 29.8564 355.048 29.8564C355.44 29.8564 355.794 29.9124 356.112 30.0244C356.429 30.1271 356.7 30.2904 356.924 30.5144C357.157 30.7291 357.334 30.9951 357.456 31.3124C357.577 31.6204 357.638 31.9751 357.638 32.3764V36.9824H356.308ZM351.058 36.9824V27.1964H352.388V36.9824H351.058ZM364.797 34.7144H366.071C365.997 35.1718 365.819 35.5824 365.539 35.9464C365.259 36.3104 364.891 36.5998 364.433 36.8144C363.976 37.0291 363.439 37.1364 362.823 37.1364C362.095 37.1364 361.447 36.9824 360.877 36.6744C360.308 36.3664 359.86 35.9418 359.533 35.4004C359.207 34.8591 359.043 34.2291 359.043 33.5104C359.043 32.7824 359.202 32.1478 359.519 31.6064C359.837 31.0558 360.275 30.6264 360.835 30.3184C361.395 30.0104 362.035 29.8564 362.753 29.8564C363.509 29.8564 364.144 30.0058 364.657 30.3044C365.171 30.6031 365.549 31.0464 365.791 31.6344C366.043 32.2131 366.146 32.9364 366.099 33.8044H360.373C360.42 34.2244 360.546 34.5978 360.751 34.9244C360.966 35.2511 361.246 35.5078 361.591 35.6944C361.946 35.8811 362.352 35.9744 362.809 35.9744C363.323 35.9744 363.752 35.8578 364.097 35.6244C364.443 35.3911 364.676 35.0878 364.797 34.7144ZM362.767 31.0044C362.161 31.0044 361.657 31.1678 361.255 31.4944C360.854 31.8118 360.588 32.2364 360.457 32.7684H364.755C364.718 32.1991 364.513 31.7651 364.139 31.4664C363.766 31.1584 363.309 31.0044 362.767 31.0044ZM367.515 29.9964H368.859V36.9824H367.515V29.9964ZM371.225 31.1864C370.739 31.1864 370.324 31.2984 369.979 31.5224C369.643 31.7464 369.372 32.0218 369.167 32.3484C368.971 32.6751 368.84 32.9878 368.775 33.2864L368.761 32.4884C368.77 32.3951 368.793 32.2504 368.831 32.0544C368.877 31.8491 368.957 31.6204 369.069 31.3684C369.181 31.1164 369.33 30.8784 369.517 30.6544C369.703 30.4211 369.937 30.2298 370.217 30.0804C370.497 29.9311 370.833 29.8564 371.225 29.8564V31.1864Z" fill="#D1D5DB"/>
<path d="M203.183 65.3481H204.471C204.499 65.7121 204.621 66.0434 204.835 66.3421C205.059 66.6314 205.358 66.8601 205.731 67.0281C206.114 67.1961 206.557 67.2801 207.061 67.2801C207.5 67.2801 207.864 67.2194 208.153 67.0981C208.443 66.9767 208.657 66.8134 208.797 66.6081C208.947 66.3934 209.021 66.1414 209.021 65.8521C209.021 65.5627 208.942 65.3341 208.783 65.1661C208.625 64.9887 208.387 64.8441 208.069 64.7321C207.752 64.6107 207.36 64.4941 206.893 64.3821C206.483 64.2794 206.077 64.1581 205.675 64.0181C205.283 63.8687 204.919 63.6867 204.583 63.4721C204.257 63.2574 203.991 63.0007 203.785 62.7021C203.589 62.3941 203.491 62.0254 203.491 61.5961C203.491 61.1387 203.617 60.7234 203.869 60.3501C204.121 59.9674 204.49 59.6641 204.975 59.4401C205.47 59.2067 206.067 59.0901 206.767 59.0901C207.85 59.0901 208.667 59.3607 209.217 59.9021C209.777 60.4434 210.048 61.1667 210.029 62.0721H208.769C208.741 61.4374 208.541 60.9847 208.167 60.7141C207.794 60.4341 207.309 60.2941 206.711 60.2941C206.198 60.2941 205.759 60.4014 205.395 60.6161C205.031 60.8214 204.849 61.1481 204.849 61.5961C204.849 61.7921 204.891 61.9647 204.975 62.1141C205.059 62.2541 205.199 62.3847 205.395 62.5061C205.591 62.6274 205.853 62.7441 206.179 62.8561C206.515 62.9681 206.931 63.0894 207.425 63.2201C207.799 63.3041 208.158 63.4114 208.503 63.5421C208.858 63.6727 209.175 63.8361 209.455 64.0321C209.735 64.2281 209.955 64.4801 210.113 64.7881C210.281 65.0961 210.365 65.4741 210.365 65.9221C210.365 66.3981 210.249 66.8321 210.015 67.2241C209.782 67.6067 209.418 67.9147 208.923 68.1481C208.438 68.3721 207.808 68.4841 207.033 68.4841C206.417 68.4841 205.881 68.4047 205.423 68.2461C204.975 68.0874 204.597 67.8821 204.289 67.6301C203.991 67.3781 203.753 67.1074 203.575 66.8181C203.407 66.5287 203.291 66.2534 203.225 65.9921C203.169 65.7307 203.155 65.5161 203.183 65.3481ZM211.316 61.3441H215.838V62.5061H211.316V61.3441ZM212.912 59.4961H214.242V68.3301H212.912V59.4961ZM217.111 61.3441H218.455V68.3301H217.111V61.3441ZM220.821 62.5341C220.335 62.5341 219.92 62.6461 219.575 62.8701C219.239 63.0941 218.968 63.3694 218.763 63.6961C218.567 64.0227 218.436 64.3354 218.371 64.6341L218.357 63.8361C218.366 63.7427 218.389 63.5981 218.427 63.4021C218.473 63.1967 218.553 62.9681 218.665 62.7161C218.777 62.4641 218.926 62.2261 219.113 62.0021C219.299 61.7687 219.533 61.5774 219.813 61.4281C220.093 61.2787 220.429 61.2041 220.821 61.2041V62.5341ZM227.422 66.0621H228.696C228.622 66.5194 228.444 66.9301 228.164 67.2941C227.884 67.6581 227.516 67.9474 227.058 68.1621C226.601 68.3767 226.064 68.4841 225.448 68.4841C224.72 68.4841 224.072 68.3301 223.502 68.0221C222.933 67.7141 222.485 67.2894 222.158 66.7481C221.832 66.2067 221.668 65.5767 221.668 64.8581C221.668 64.1301 221.827 63.4954 222.144 62.9541C222.462 62.4034 222.9 61.9741 223.46 61.6661C224.02 61.3581 224.66 61.2041 225.378 61.2041C226.134 61.2041 226.769 61.3534 227.282 61.6521C227.796 61.9507 228.174 62.3941 228.416 62.9821C228.668 63.5607 228.771 64.2841 228.724 65.1521H222.998C223.045 65.5721 223.171 65.9454 223.376 66.2721C223.591 66.5987 223.871 66.8554 224.216 67.0421C224.571 67.2287 224.977 67.3221 225.434 67.3221C225.948 67.3221 226.377 67.2054 226.722 66.9721C227.068 66.7387 227.301 66.4354 227.422 66.0621ZM225.392 62.3521C224.786 62.3521 224.282 62.5154 223.88 62.8421C223.479 63.1594 223.213 63.5841 223.082 64.1161H227.38C227.343 63.5467 227.138 63.1127 226.764 62.8141C226.391 62.5061 225.934 62.3521 225.392 62.3521ZM229.832 66.0621H231.064C231.11 66.4354 231.278 66.7434 231.568 66.9861C231.857 67.2194 232.263 67.3361 232.786 67.3361C233.122 67.3361 233.383 67.2987 233.57 67.2241C233.756 67.1401 233.887 67.0281 233.962 66.8881C234.046 66.7481 234.088 66.5941 234.088 66.4261C234.088 66.2114 234.032 66.0481 233.92 65.9361C233.808 65.8147 233.649 65.7167 233.444 65.6421C233.238 65.5581 232.996 65.4787 232.716 65.4041C232.408 65.3201 232.1 65.2221 231.792 65.1101C231.484 64.9981 231.199 64.8627 230.938 64.7041C230.686 64.5454 230.48 64.3494 230.322 64.1161C230.172 63.8734 230.098 63.5794 230.098 63.2341C230.098 62.9447 230.158 62.6741 230.28 62.4221C230.41 62.1701 230.592 61.9554 230.826 61.7781C231.068 61.5914 231.348 61.4514 231.666 61.3581C231.983 61.2554 232.333 61.2041 232.716 61.2041C233.248 61.2041 233.696 61.3021 234.06 61.4981C234.424 61.6847 234.699 61.9507 234.886 62.2961C235.082 62.6414 235.184 63.0381 235.194 63.4861H234.018C233.952 63.0941 233.817 62.8094 233.612 62.6321C233.406 62.4454 233.098 62.3521 232.688 62.3521C232.286 62.3521 231.978 62.4314 231.764 62.5901C231.549 62.7487 231.442 62.9634 231.442 63.2341C231.442 63.4394 231.516 63.6074 231.666 63.7381C231.815 63.8594 232.016 63.9667 232.268 64.0601C232.52 64.1534 232.804 64.2514 233.122 64.3541C233.42 64.4567 233.705 64.5641 233.976 64.6761C234.256 64.7787 234.503 64.9047 234.718 65.0541C234.942 65.1941 235.114 65.3807 235.236 65.6141C235.366 65.8381 235.432 66.1181 235.432 66.4541C235.432 66.8647 235.329 67.2241 235.124 67.5321C234.918 67.8307 234.62 68.0641 234.228 68.2321C233.845 68.4001 233.378 68.4841 232.828 68.4841C232.324 68.4841 231.894 68.4234 231.54 68.3021C231.194 68.1807 230.9 68.0221 230.658 67.8261C230.424 67.6301 230.242 67.4247 230.112 67.2101C229.99 66.9861 229.906 66.7714 229.86 66.5661C229.822 66.3607 229.813 66.1927 229.832 66.0621ZM236.531 66.0621H237.763C237.81 66.4354 237.978 66.7434 238.267 66.9861C238.556 67.2194 238.962 67.3361 239.485 67.3361C239.821 67.3361 240.082 67.2987 240.269 67.2241C240.456 67.1401 240.586 67.0281 240.661 66.8881C240.745 66.7481 240.787 66.5941 240.787 66.4261C240.787 66.2114 240.731 66.0481 240.619 65.9361C240.507 65.8147 240.348 65.7167 240.143 65.6421C239.938 65.5581 239.695 65.4787 239.415 65.4041C239.107 65.3201 238.799 65.2221 238.491 65.1101C238.183 64.9981 237.898 64.8627 237.637 64.7041C237.385 64.5454 237.18 64.3494 237.021 64.1161C236.872 63.8734 236.797 63.5794 236.797 63.2341C236.797 62.9447 236.858 62.6741 236.979 62.4221C237.11 62.1701 237.292 61.9554 237.525 61.7781C237.768 61.5914 238.048 61.4514 238.365 61.3581C238.682 61.2554 239.032 61.2041 239.415 61.2041C239.947 61.2041 240.395 61.3021 240.759 61.4981C241.123 61.6847 241.398 61.9507 241.585 62.2961C241.781 62.6414 241.884 63.0381 241.893 63.4861H240.717C240.652 63.0941 240.516 62.8094 240.311 62.6321C240.106 62.4454 239.798 62.3521 239.387 62.3521C238.986 62.3521 238.678 62.4314 238.463 62.5901C238.248 62.7487 238.141 62.9634 238.141 63.2341C238.141 63.4394 238.216 63.6074 238.365 63.7381C238.514 63.8594 238.715 63.9667 238.967 64.0601C239.219 64.1534 239.504 64.2514 239.821 64.3541C240.12 64.4567 240.404 64.5641 240.675 64.6761C240.955 64.7787 241.202 64.9047 241.417 65.0541C241.641 65.1941 241.814 65.3807 241.935 65.6141C242.066 65.8381 242.131 66.1181 242.131 66.4541C242.131 66.8647 242.028 67.2241 241.823 67.5321C241.618 67.8307 241.319 68.0641 240.927 68.2321C240.544 68.4001 240.078 68.4841 239.527 68.4841C239.023 68.4841 238.594 68.4234 238.239 68.3021C237.894 68.1807 237.6 68.0221 237.357 67.8261C237.124 67.6301 236.942 67.4247 236.811 67.2101C236.69 66.9861 236.606 66.7714 236.559 66.5661C236.522 66.3607 236.512 66.1927 236.531 66.0621ZM243.776 63.9761H248.032V65.1101H243.776V63.9761ZM249.542 61.3861H254.12V62.5341H249.542V61.3861ZM253.364 58.5441H254.26V59.7761H253.504C253.262 59.7667 253.042 59.7994 252.846 59.8741C252.65 59.9394 252.496 60.0607 252.384 60.2381C252.282 60.4154 252.23 60.6721 252.23 61.0081V68.3301H250.9V60.9381C250.9 60.3781 250.998 59.9207 251.194 59.5661C251.4 59.2114 251.689 58.9547 252.062 58.7961C252.436 58.6281 252.87 58.5441 253.364 58.5441ZM255.31 61.3441H256.654V68.3301H255.31V61.3441ZM259.02 62.5341C258.534 62.5341 258.119 62.6461 257.774 62.8701C257.438 63.0941 257.167 63.3694 256.962 63.6961C256.766 64.0227 256.635 64.3354 256.57 64.6341L256.556 63.8361C256.565 63.7427 256.588 63.5981 256.626 63.4021C256.672 63.1967 256.752 62.9681 256.864 62.7161C256.976 62.4641 257.125 62.2261 257.312 62.0021C257.498 61.7687 257.732 61.5774 258.012 61.4281C258.292 61.2787 258.628 61.2041 259.02 61.2041V62.5341ZM265.622 66.0621H266.896C266.821 66.5194 266.644 66.9301 266.364 67.2941C266.084 67.6581 265.715 67.9474 265.258 68.1621C264.8 68.3767 264.264 68.4841 263.648 68.4841C262.92 68.4841 262.271 68.3301 261.702 68.0221C261.132 67.7141 260.684 67.2894 260.358 66.7481C260.031 66.2067 259.868 65.5767 259.868 64.8581C259.868 64.1301 260.026 63.4954 260.344 62.9541C260.661 62.4034 261.1 61.9741 261.66 61.6661C262.22 61.3581 262.859 61.2041 263.578 61.2041C264.334 61.2041 264.968 61.3534 265.482 61.6521C265.995 61.9507 266.373 62.3941 266.616 62.9821C266.868 63.5607 266.97 64.2841 266.924 65.1521H261.198C261.244 65.5721 261.37 65.9454 261.576 66.2721C261.79 66.5987 262.07 66.8554 262.416 67.0421C262.77 67.2287 263.176 67.3221 263.634 67.3221C264.147 67.3221 264.576 67.2054 264.922 66.9721C265.267 66.7387 265.5 66.4354 265.622 66.0621ZM263.592 62.3521C262.985 62.3521 262.481 62.5154 262.08 62.8421C261.678 63.1594 261.412 63.5841 261.282 64.1161H265.58C265.542 63.5467 265.337 63.1127 264.964 62.8141C264.59 62.5061 264.133 62.3521 263.592 62.3521ZM273.729 66.0621H275.003C274.928 66.5194 274.751 66.9301 274.471 67.2941C274.191 67.6581 273.822 67.9474 273.365 68.1621C272.908 68.3767 272.371 68.4841 271.755 68.4841C271.027 68.4841 270.378 68.3301 269.809 68.0221C269.24 67.7141 268.792 67.2894 268.465 66.7481C268.138 66.2067 267.975 65.5767 267.975 64.8581C267.975 64.1301 268.134 63.4954 268.451 62.9541C268.768 62.4034 269.207 61.9741 269.767 61.6661C270.327 61.3581 270.966 61.2041 271.685 61.2041C272.441 61.2041 273.076 61.3534 273.589 61.6521C274.102 61.9507 274.48 62.3941 274.723 62.9821C274.975 63.5607 275.078 64.2841 275.031 65.1521H269.305C269.352 65.5721 269.478 65.9454 269.683 66.2721C269.898 66.5987 270.178 66.8554 270.523 67.0421C270.878 67.2287 271.284 67.3221 271.741 67.3221C272.254 67.3221 272.684 67.2054 273.029 66.9721C273.374 66.7387 273.608 66.4354 273.729 66.0621ZM271.699 62.3521C271.092 62.3521 270.588 62.5154 270.187 62.8421C269.786 63.1594 269.52 63.5841 269.389 64.1161H273.687C273.65 63.5467 273.444 63.1127 273.071 62.8141C272.698 62.5061 272.24 62.3521 271.699 62.3521ZM286.369 65.6701C286.313 66.2487 286.126 66.7527 285.809 67.1821C285.501 67.6021 285.095 67.9241 284.591 68.1481C284.087 68.3721 283.527 68.4841 282.911 68.4841C282.229 68.4841 281.604 68.3441 281.035 68.0641C280.465 67.7747 280.008 67.3594 279.663 66.8181C279.327 66.2674 279.159 65.6141 279.159 64.8581C279.159 64.0927 279.327 63.4394 279.663 62.8981C280.008 62.3474 280.465 61.9274 281.035 61.6381C281.604 61.3487 282.229 61.2041 282.911 61.2041C283.527 61.2041 284.082 61.3161 284.577 61.5401C285.071 61.7641 285.477 62.0861 285.795 62.5061C286.112 62.9167 286.303 63.4114 286.369 63.9901H285.151C284.992 63.4861 284.707 63.0894 284.297 62.8001C283.895 62.5014 283.433 62.3521 282.911 62.3521C282.481 62.3521 282.08 62.4501 281.707 62.6461C281.343 62.8421 281.049 63.1267 280.825 63.5001C280.61 63.8641 280.503 64.3167 280.503 64.8581C280.503 65.3807 280.61 65.8287 280.825 66.2021C281.049 66.5661 281.343 66.8461 281.707 67.0421C282.071 67.2287 282.472 67.3221 282.911 67.3221C283.508 67.3221 283.993 67.1774 284.367 66.8881C284.74 66.5987 285.006 66.1927 285.165 65.6701H286.369ZM287.767 61.3441H289.111V68.3301H287.767V61.3441ZM291.477 62.5341C290.991 62.5341 290.576 62.6461 290.231 62.8701C289.895 63.0941 289.624 63.3694 289.419 63.6961C289.223 64.0227 289.092 64.3354 289.027 64.6341L289.013 63.8361C289.022 63.7427 289.045 63.5981 289.083 63.4021C289.129 63.1967 289.209 62.9681 289.321 62.7161C289.433 62.4641 289.582 62.2261 289.769 62.0021C289.955 61.7687 290.189 61.5774 290.469 61.4281C290.749 61.2787 291.085 61.2041 291.477 61.2041V62.5341ZM298.079 66.0621H299.353C299.278 66.5194 299.101 66.9301 298.821 67.2941C298.541 67.6581 298.172 67.9474 297.715 68.1621C297.257 68.3767 296.721 68.4841 296.105 68.4841C295.377 68.4841 294.728 68.3301 294.159 68.0221C293.589 67.7141 293.141 67.2894 292.815 66.7481C292.488 66.2067 292.325 65.5767 292.325 64.8581C292.325 64.1301 292.483 63.4954 292.801 62.9541C293.118 62.4034 293.557 61.9741 294.117 61.6661C294.677 61.3581 295.316 61.2041 296.035 61.2041C296.791 61.2041 297.425 61.3534 297.939 61.6521C298.452 61.9507 298.83 62.3941 299.073 62.9821C299.325 63.5607 299.427 64.2841 299.381 65.1521H293.655C293.701 65.5721 293.827 65.9454 294.033 66.2721C294.247 66.5987 294.527 66.8554 294.873 67.0421C295.227 67.2287 295.633 67.3221 296.091 67.3221C296.604 67.3221 297.033 67.2054 297.379 66.9721C297.724 66.7387 297.957 66.4354 298.079 66.0621ZM296.049 62.3521C295.442 62.3521 294.938 62.5154 294.537 62.8421C294.135 63.1594 293.869 63.5841 293.739 64.1161H298.037C297.999 63.5467 297.794 63.1127 297.421 62.8141C297.047 62.5061 296.59 62.3521 296.049 62.3521ZM303.68 68.4701C303.073 68.4701 302.523 68.3161 302.028 68.0081C301.533 67.7001 301.141 67.2754 300.852 66.7341C300.572 66.1834 300.432 65.5534 300.432 64.8441C300.432 64.1347 300.572 63.5094 300.852 62.9681C301.132 62.4174 301.515 61.9881 302 61.6801C302.485 61.3627 303.045 61.2041 303.68 61.2041C304.231 61.2041 304.688 61.2974 305.052 61.4841C305.416 61.6707 305.701 61.9321 305.906 62.2681C306.111 62.6041 306.256 62.9914 306.34 63.4301C306.433 63.8687 306.48 64.3401 306.48 64.8441C306.48 65.2174 306.433 65.6141 306.34 66.0341C306.247 66.4541 306.097 66.8507 305.892 67.2241C305.687 67.5974 305.402 67.9007 305.038 68.1341C304.674 68.3581 304.221 68.4701 303.68 68.4701ZM304.058 67.3081C304.553 67.3081 304.968 67.2007 305.304 66.9861C305.649 66.7621 305.906 66.4634 306.074 66.0901C306.242 65.7167 306.326 65.3014 306.326 64.8441C306.326 64.3494 306.237 63.9154 306.06 63.5421C305.892 63.1687 305.635 62.8794 305.29 62.6741C304.954 62.4687 304.543 62.3661 304.058 62.3661C303.33 62.3661 302.765 62.5994 302.364 63.0661C301.972 63.5327 301.776 64.1254 301.776 64.8441C301.776 65.3294 301.874 65.7587 302.07 66.1321C302.266 66.4961 302.532 66.7854 302.868 67.0001C303.213 67.2054 303.61 67.3081 304.058 67.3081ZM306.326 58.5441H307.67V68.3301H306.438C306.41 68.1247 306.382 67.8727 306.354 67.5741C306.335 67.2754 306.326 67.0187 306.326 66.8041V58.5441ZM311.279 58.4601V59.9021H309.613V58.4601H311.279ZM309.781 61.3441H311.111V68.3301H309.781V61.3441ZM312.515 61.3441H317.037V62.5061H312.515V61.3441ZM314.111 59.4961H315.441V68.3301H314.111V59.4961Z" fill="#D1D5DB"/>
<path d="M210.771 96.0237V90.5917H212.115V96.0797C212.115 96.6211 212.045 97.0971 211.905 97.5077C211.775 97.9184 211.583 98.2731 211.331 98.5717C211.079 98.8704 210.781 99.1131 210.435 99.2997C210.099 99.4771 209.721 99.6077 209.301 99.6917C208.891 99.7851 208.452 99.8317 207.985 99.8317C207.5 99.8317 207.047 99.7851 206.627 99.6917C206.207 99.6077 205.82 99.4771 205.465 99.2997C205.12 99.1131 204.821 98.8704 204.569 98.5717C204.327 98.2731 204.135 97.9184 203.995 97.5077C203.865 97.0971 203.799 96.6211 203.799 96.0797V90.5917H205.143V96.0237C205.143 96.7237 205.269 97.2604 205.521 97.6337C205.783 98.0071 206.128 98.2637 206.557 98.4037C206.987 98.5437 207.463 98.6137 207.985 98.6137C208.489 98.6137 208.951 98.5437 209.371 98.4037C209.791 98.2637 210.127 98.0071 210.379 97.6337C210.641 97.2604 210.771 96.7237 210.771 96.0237ZM214.103 92.6917H215.447V99.6777H214.103V92.6917ZM218.107 92.5517C218.499 92.5517 218.853 92.6077 219.171 92.7197C219.488 92.8317 219.759 92.9997 219.983 93.2237C220.207 93.4384 220.379 93.7091 220.501 94.0357C220.631 94.3531 220.697 94.7171 220.697 95.1277V99.6777H219.367V95.4217C219.367 94.8711 219.231 94.4604 218.961 94.1897C218.699 93.9097 218.298 93.7697 217.757 93.7697C217.337 93.7697 216.954 93.8677 216.609 94.0637C216.263 94.2597 215.979 94.5211 215.755 94.8477C215.54 95.1651 215.409 95.5244 215.363 95.9257L215.349 95.1557C215.395 94.7824 215.493 94.4371 215.643 94.1197C215.801 93.8024 215.997 93.5271 216.231 93.2937C216.473 93.0511 216.753 92.8691 217.071 92.7477C217.388 92.6171 217.733 92.5517 218.107 92.5517ZM222.596 89.8917H223.94V99.6777H222.596V89.8917ZM229.235 99.8317C228.553 99.8317 227.928 99.6871 227.359 99.3977C226.789 99.1084 226.337 98.6931 226.001 98.1517C225.665 97.6104 225.497 96.9617 225.497 96.2057C225.497 95.4404 225.665 94.7871 226.001 94.2457C226.337 93.6951 226.789 93.2751 227.359 92.9857C227.928 92.6964 228.553 92.5517 229.235 92.5517C229.916 92.5517 230.537 92.6964 231.097 92.9857C231.657 93.2751 232.105 93.6951 232.441 94.2457C232.777 94.7871 232.945 95.4404 232.945 96.2057C232.945 96.9617 232.777 97.6104 232.441 98.1517C232.105 98.6931 231.657 99.1084 231.097 99.3977C230.537 99.6871 229.916 99.8317 229.235 99.8317ZM229.235 98.6697C229.655 98.6697 230.042 98.5764 230.397 98.3897C230.761 98.1937 231.05 97.9137 231.265 97.5497C231.489 97.1764 231.601 96.7284 231.601 96.2057C231.601 95.6737 231.489 95.2211 231.265 94.8477C231.05 94.4744 230.761 94.1897 230.397 93.9937C230.042 93.7977 229.655 93.6997 229.235 93.6997C228.815 93.6997 228.423 93.7977 228.059 93.9937C227.695 94.1804 227.401 94.4604 227.177 94.8337C226.953 95.2071 226.841 95.6644 226.841 96.2057C226.841 96.7284 226.948 97.1764 227.163 97.5497C227.387 97.9137 227.681 98.1937 228.045 98.3897C228.409 98.5764 228.805 98.6697 229.235 98.6697ZM241.197 97.0177C241.141 97.5964 240.954 98.1004 240.637 98.5297C240.329 98.9497 239.923 99.2717 239.419 99.4957C238.915 99.7197 238.355 99.8317 237.739 99.8317C237.057 99.8317 236.432 99.6917 235.863 99.4117C235.293 99.1224 234.836 98.7071 234.491 98.1657C234.155 97.6151 233.987 96.9617 233.987 96.2057C233.987 95.4404 234.155 94.7871 234.491 94.2457C234.836 93.6951 235.293 93.2751 235.863 92.9857C236.432 92.6964 237.057 92.5517 237.739 92.5517C238.355 92.5517 238.91 92.6637 239.405 92.8877C239.899 93.1117 240.305 93.4337 240.623 93.8537C240.94 94.2644 241.131 94.7591 241.197 95.3377H239.979C239.82 94.8337 239.535 94.4371 239.125 94.1477C238.723 93.8491 238.261 93.6997 237.739 93.6997C237.309 93.6997 236.908 93.7977 236.535 93.9937C236.171 94.1897 235.877 94.4744 235.653 94.8477C235.438 95.2117 235.331 95.6644 235.331 96.2057C235.331 96.7284 235.438 97.1764 235.653 97.5497C235.877 97.9137 236.171 98.1937 236.535 98.3897C236.899 98.5764 237.3 98.6697 237.739 98.6697C238.336 98.6697 238.821 98.5251 239.195 98.2357C239.568 97.9464 239.834 97.5404 239.993 97.0177H241.197ZM242.763 89.8917H244.093V99.6777H242.763V89.8917ZM249.133 92.6917L245.437 96.2057L245.465 95.3657L249.399 99.6777H247.705L244.121 95.7717L247.271 92.6917H249.133ZM252.012 89.8077V91.2497H250.346V89.8077H252.012ZM250.514 92.6917H251.844V99.6777H250.514V92.6917ZM253.737 92.6917H255.081V99.6777H253.737V92.6917ZM257.741 92.5517C258.133 92.5517 258.488 92.6077 258.805 92.7197C259.123 92.8317 259.393 92.9997 259.617 93.2237C259.841 93.4384 260.014 93.7091 260.135 94.0357C260.266 94.3531 260.331 94.7171 260.331 95.1277V99.6777H259.001V95.4217C259.001 94.8711 258.866 94.4604 258.595 94.1897C258.334 93.9097 257.933 93.7697 257.391 93.7697C256.971 93.7697 256.589 93.8677 256.243 94.0637C255.898 94.2597 255.613 94.5211 255.389 94.8477C255.175 95.1651 255.044 95.5244 254.997 95.9257L254.983 95.1557C255.03 94.7824 255.128 94.4371 255.277 94.1197C255.436 93.8024 255.632 93.5271 255.865 93.2937C256.108 93.0511 256.388 92.8691 256.705 92.7477C257.023 92.6171 257.368 92.5517 257.741 92.5517ZM264.905 98.5857C264.326 98.5857 263.794 98.4691 263.309 98.2357C262.824 98.0024 262.436 97.6617 262.147 97.2137C261.867 96.7657 261.727 96.2244 261.727 95.5897C261.727 94.9644 261.867 94.4277 262.147 93.9797C262.427 93.5224 262.805 93.1724 263.281 92.9297C263.766 92.6777 264.308 92.5517 264.905 92.5517C265.082 92.5517 265.25 92.5657 265.409 92.5937C265.568 92.6124 265.722 92.6451 265.871 92.6917H268.923V93.9517C268.503 93.9517 268.078 93.8817 267.649 93.7417C267.229 93.6017 266.86 93.4524 266.543 93.2937L266.501 93.2237C266.818 93.3917 267.094 93.5971 267.327 93.8397C267.56 94.0731 267.738 94.3391 267.859 94.6377C267.99 94.9271 268.055 95.2537 268.055 95.6177C268.055 96.2337 267.915 96.7657 267.635 97.2137C267.364 97.6617 266.986 98.0024 266.501 98.2357C266.025 98.4691 265.493 98.5857 264.905 98.5857ZM267.047 102.506V102.184C267.047 101.708 266.916 101.367 266.655 101.162C266.394 100.956 266.011 100.854 265.507 100.854H263.869C263.524 100.854 263.23 100.826 262.987 100.77C262.744 100.714 262.544 100.63 262.385 100.518C262.226 100.415 262.11 100.284 262.035 100.126C261.96 99.9764 261.923 99.8084 261.923 99.6217C261.923 99.2577 262.035 98.9824 262.259 98.7957C262.483 98.6091 262.768 98.4924 263.113 98.4457C263.458 98.3897 263.808 98.3851 264.163 98.4317L264.905 98.5857C264.373 98.6137 263.967 98.6651 263.687 98.7397C263.407 98.8144 263.267 98.9731 263.267 99.2157C263.267 99.3557 263.323 99.4677 263.435 99.5517C263.547 99.6357 263.706 99.6777 263.911 99.6777H265.619C266.151 99.6777 266.622 99.7431 267.033 99.8737C267.453 100.014 267.78 100.242 268.013 100.56C268.256 100.886 268.377 101.33 268.377 101.89V102.506H267.047ZM264.905 97.4517C265.241 97.4517 265.544 97.3817 265.815 97.2417C266.095 97.0924 266.319 96.8824 266.487 96.6117C266.655 96.3317 266.739 95.9957 266.739 95.6037C266.739 95.2024 266.655 94.8617 266.487 94.5817C266.328 94.2924 266.109 94.0777 265.829 93.9377C265.549 93.7884 265.241 93.7137 264.905 93.7137C264.569 93.7137 264.256 93.7884 263.967 93.9377C263.687 94.0777 263.463 94.2877 263.295 94.5677C263.127 94.8477 263.043 95.1931 263.043 95.6037C263.043 95.9957 263.127 96.3317 263.295 96.6117C263.463 96.8824 263.687 97.0924 263.967 97.2417C264.247 97.3817 264.56 97.4517 264.905 97.4517ZM272.785 92.6917H277.307V93.8537H272.785V92.6917ZM274.381 90.8437H275.711V99.6777H274.381V90.8437ZM283.997 99.6777V95.4637C283.997 95.0904 283.937 94.7824 283.815 94.5397C283.694 94.2971 283.512 94.1151 283.269 93.9937C283.027 93.8631 282.719 93.7977 282.345 93.7977C281.935 93.7977 281.557 93.8957 281.211 94.0917C280.875 94.2784 280.6 94.5351 280.385 94.8617C280.171 95.1791 280.04 95.5384 279.993 95.9397L279.979 95.1417C280.026 94.7777 280.124 94.4371 280.273 94.1197C280.432 93.8024 280.628 93.5271 280.861 93.2937C281.104 93.0604 281.384 92.8784 281.701 92.7477C282.019 92.6171 282.364 92.5517 282.737 92.5517C283.129 92.5517 283.484 92.6077 283.801 92.7197C284.119 92.8224 284.389 92.9857 284.613 93.2097C284.847 93.4244 285.024 93.6904 285.145 94.0077C285.267 94.3157 285.327 94.6704 285.327 95.0717V99.6777H283.997ZM278.747 99.6777V89.8917H280.077V99.6777H278.747ZM292.487 97.4097H293.761C293.686 97.8671 293.509 98.2777 293.229 98.6417C292.949 99.0057 292.58 99.2951 292.123 99.5097C291.666 99.7244 291.129 99.8317 290.513 99.8317C289.785 99.8317 289.136 99.6777 288.567 99.3697C287.998 99.0617 287.55 98.6371 287.223 98.0957C286.896 97.5544 286.733 96.9244 286.733 96.2057C286.733 95.4777 286.892 94.8431 287.209 94.3017C287.526 93.7511 287.965 93.3217 288.525 93.0137C289.085 92.7057 289.724 92.5517 290.443 92.5517C291.199 92.5517 291.834 92.7011 292.347 92.9997C292.86 93.2984 293.238 93.7417 293.481 94.3297C293.733 94.9084 293.836 95.6317 293.789 96.4997H288.063C288.11 96.9197 288.236 97.2931 288.441 97.6197C288.656 97.9464 288.936 98.2031 289.281 98.3897C289.636 98.5764 290.042 98.6697 290.499 98.6697C291.012 98.6697 291.442 98.5531 291.787 98.3197C292.132 98.0864 292.366 97.7831 292.487 97.4097ZM290.457 93.6997C289.85 93.6997 289.346 93.8631 288.945 94.1897C288.544 94.5071 288.278 94.9317 288.147 95.4637H292.445C292.408 94.8944 292.202 94.4604 291.829 94.1617C291.456 93.8537 290.998 93.6997 290.457 93.6997ZM302.27 99.8317C301.729 99.8317 301.276 99.7151 300.912 99.4817C300.548 99.2484 300.264 98.9451 300.058 98.5717C299.853 98.1984 299.704 97.8017 299.61 97.3817C299.517 96.9617 299.47 96.5651 299.47 96.1917C299.47 95.6877 299.512 95.2164 299.596 94.7777C299.69 94.3391 299.839 93.9517 300.044 93.6157C300.25 93.2797 300.534 93.0184 300.898 92.8317C301.262 92.6451 301.72 92.5517 302.27 92.5517C302.877 92.5517 303.423 92.7104 303.908 93.0277C304.394 93.3357 304.781 93.7651 305.07 94.3157C305.369 94.8664 305.518 95.4917 305.518 96.1917C305.518 96.9104 305.369 97.5451 305.07 98.0957C304.772 98.6371 304.375 99.0617 303.88 99.3697C303.395 99.6777 302.858 99.8317 302.27 99.8317ZM301.892 98.6557C302.34 98.6557 302.737 98.5531 303.082 98.3477C303.428 98.1331 303.694 97.8437 303.88 97.4797C304.076 97.1064 304.174 96.6771 304.174 96.1917C304.174 95.4731 303.974 94.8804 303.572 94.4137C303.18 93.9471 302.62 93.7137 301.892 93.7137C301.454 93.7137 301.062 93.8164 300.716 94.0217C300.38 94.2271 300.114 94.5164 299.918 94.8897C299.722 95.2631 299.624 95.6971 299.624 96.1917C299.624 96.6584 299.708 97.0784 299.876 97.4517C300.054 97.8157 300.31 98.1097 300.646 98.3337C300.982 98.5484 301.398 98.6557 301.892 98.6557ZM298.28 92.6917H299.568L299.624 94.2737V102.478H298.28V92.6917ZM310.295 99.8317C309.614 99.8317 308.988 99.6871 308.419 99.3977C307.85 99.1084 307.397 98.6931 307.061 98.1517C306.725 97.6104 306.557 96.9617 306.557 96.2057C306.557 95.4404 306.725 94.7871 307.061 94.2457C307.397 93.6951 307.85 93.2751 308.419 92.9857C308.988 92.6964 309.614 92.5517 310.295 92.5517C310.976 92.5517 311.597 92.6964 312.157 92.9857C312.717 93.2751 313.165 93.6951 313.501 94.2457C313.837 94.7871 314.005 95.4404 314.005 96.2057C314.005 96.9617 313.837 97.6104 313.501 98.1517C313.165 98.6931 312.717 99.1084 312.157 99.3977C311.597 99.6871 310.976 99.8317 310.295 99.8317ZM310.295 98.6697C310.715 98.6697 311.102 98.5764 311.457 98.3897C311.821 98.1937 312.11 97.9137 312.325 97.5497C312.549 97.1764 312.661 96.7284 312.661 96.2057C312.661 95.6737 312.549 95.2211 312.325 94.8477C312.11 94.4744 311.821 94.1897 311.457 93.9937C311.102 93.7977 310.715 93.6997 310.295 93.6997C309.875 93.6997 309.483 93.7977 309.119 93.9937C308.755 94.1804 308.461 94.4604 308.237 94.8337C308.013 95.2071 307.901 95.6644 307.901 96.2057C307.901 96.7284 308.008 97.1764 308.223 97.5497C308.447 97.9137 308.741 98.1937 309.105 98.3897C309.469 98.5764 309.866 98.6697 310.295 98.6697ZM322.837 98.5857L322.473 98.5717L324.307 92.6917H325.763L323.341 99.6777H322.081L319.967 93.6997H320.345L318.203 99.6777H316.943L314.549 92.6917H316.019L317.797 98.5717L317.433 98.5857L319.365 92.6917H320.947L322.837 98.5857ZM332.053 97.4097H333.327C333.253 97.8671 333.075 98.2777 332.795 98.6417C332.515 99.0057 332.147 99.2951 331.689 99.5097C331.232 99.7244 330.695 99.8317 330.079 99.8317C329.351 99.8317 328.703 99.6777 328.133 99.3697C327.564 99.0617 327.116 98.6371 326.789 98.0957C326.463 97.5544 326.299 96.9244 326.299 96.2057C326.299 95.4777 326.458 94.8431 326.775 94.3017C327.093 93.7511 327.531 93.3217 328.091 93.0137C328.651 92.7057 329.291 92.5517 330.009 92.5517C330.765 92.5517 331.4 92.7011 331.913 92.9997C332.427 93.2984 332.805 93.7417 333.047 94.3297C333.299 94.9084 333.402 95.6317 333.355 96.4997H327.629C327.676 96.9197 327.802 97.2931 328.007 97.6197C328.222 97.9464 328.502 98.2031 328.847 98.3897C329.202 98.5764 329.608 98.6697 330.065 98.6697C330.579 98.6697 331.008 98.5531 331.353 98.3197C331.699 98.0864 331.932 97.7831 332.053 97.4097ZM330.023 93.6997C329.417 93.6997 328.913 93.8631 328.511 94.1897C328.11 94.5071 327.844 94.9317 327.713 95.4637H332.011C331.974 94.8944 331.769 94.4604 331.395 94.1617C331.022 93.8537 330.565 93.6997 330.023 93.6997ZM334.771 92.6917H336.115V99.6777H334.771V92.6917ZM338.481 93.8817C337.995 93.8817 337.58 93.9937 337.235 94.2177C336.899 94.4417 336.628 94.7171 336.423 95.0437C336.227 95.3704 336.096 95.6831 336.031 95.9817L336.017 95.1837C336.026 95.0904 336.049 94.9457 336.087 94.7497C336.133 94.5444 336.213 94.3157 336.325 94.0637C336.437 93.8117 336.586 93.5737 336.773 93.3497C336.959 93.1164 337.193 92.9251 337.473 92.7757C337.753 92.6264 338.089 92.5517 338.481 92.5517V93.8817ZM346.143 99.8317C345.461 99.8317 344.836 99.6871 344.267 99.3977C343.697 99.1084 343.245 98.6931 342.909 98.1517C342.573 97.6104 342.405 96.9617 342.405 96.2057C342.405 95.4404 342.573 94.7871 342.909 94.2457C343.245 93.6951 343.697 93.2751 344.267 92.9857C344.836 92.6964 345.461 92.5517 346.143 92.5517C346.824 92.5517 347.445 92.6964 348.005 92.9857C348.565 93.2751 349.013 93.6951 349.349 94.2457C349.685 94.7871 349.853 95.4404 349.853 96.2057C349.853 96.9617 349.685 97.6104 349.349 98.1517C349.013 98.6931 348.565 99.1084 348.005 99.3977C347.445 99.6871 346.824 99.8317 346.143 99.8317ZM346.143 98.6697C346.563 98.6697 346.95 98.5764 347.305 98.3897C347.669 98.1937 347.958 97.9137 348.173 97.5497C348.397 97.1764 348.509 96.7284 348.509 96.2057C348.509 95.6737 348.397 95.2211 348.173 94.8477C347.958 94.4744 347.669 94.1897 347.305 93.9937C346.95 93.7977 346.563 93.6997 346.143 93.6997C345.723 93.6997 345.331 93.7977 344.967 93.9937C344.603 94.1804 344.309 94.4604 344.085 94.8337C343.861 95.2071 343.749 95.6644 343.749 96.2057C343.749 96.7284 343.856 97.1764 344.071 97.5497C344.295 97.9137 344.589 98.1937 344.953 98.3897C345.317 98.5764 345.713 98.6697 346.143 98.6697ZM350.646 92.7337H355.224V93.8817H350.646V92.7337ZM354.468 89.8917H355.364V91.1237H354.608C354.365 91.1144 354.146 91.1471 353.95 91.2217C353.754 91.2871 353.6 91.4084 353.488 91.5857C353.385 91.7631 353.334 92.0197 353.334 92.3557V99.6777H352.004V92.2857C352.004 91.7257 352.102 91.2684 352.298 90.9137C352.503 90.5591 352.793 90.3024 353.166 90.1437C353.539 89.9757 353.973 89.8917 354.468 89.8917ZM362.373 99.8177C361.776 99.8177 361.23 99.6637 360.735 99.3557C360.241 99.0477 359.849 98.6231 359.559 98.0817C359.27 97.5311 359.125 96.9011 359.125 96.1917C359.125 95.4824 359.27 94.8571 359.559 94.3157C359.858 93.7651 360.264 93.3357 360.777 93.0277C361.291 92.7104 361.865 92.5517 362.499 92.5517C363.199 92.5517 363.741 92.7151 364.123 93.0417C364.515 93.3684 364.786 93.8071 364.935 94.3577C365.094 94.9084 365.173 95.5197 365.173 96.1917C365.173 96.5651 365.127 96.9617 365.033 97.3817C364.94 97.8017 364.791 98.1984 364.585 98.5717C364.38 98.9451 364.095 99.2484 363.731 99.4817C363.367 99.7057 362.915 99.8177 362.373 99.8177ZM362.751 98.6557C363.246 98.6557 363.661 98.5484 363.997 98.3337C364.343 98.1097 364.599 97.8111 364.767 97.4377C364.935 97.0644 365.019 96.6491 365.019 96.1917C365.019 95.6971 364.931 95.2631 364.753 94.8897C364.585 94.5164 364.329 94.2271 363.983 94.0217C363.647 93.8164 363.237 93.7137 362.751 93.7137C362.023 93.7137 361.459 93.9471 361.057 94.4137C360.665 94.8804 360.469 95.4731 360.469 96.1917C360.469 96.6771 360.567 97.1064 360.763 97.4797C360.959 97.8437 361.225 98.1331 361.561 98.3477C361.907 98.5531 362.303 98.6557 362.751 98.6557ZM365.019 92.6917H366.363V99.6777H365.131C365.131 99.6777 365.122 99.5937 365.103 99.4257C365.085 99.2484 365.066 99.0384 365.047 98.7957C365.029 98.5531 365.019 98.3384 365.019 98.1517V92.6917ZM378.039 97.0177C377.983 97.5964 377.796 98.1004 377.479 98.5297C377.171 98.9497 376.765 99.2717 376.261 99.4957C375.757 99.7197 375.197 99.8317 374.581 99.8317C373.899 99.8317 373.274 99.6917 372.705 99.4117C372.135 99.1224 371.678 98.7071 371.333 98.1657C370.997 97.6151 370.829 96.9617 370.829 96.2057C370.829 95.4404 370.997 94.7871 371.333 94.2457C371.678 93.6951 372.135 93.2751 372.705 92.9857C373.274 92.6964 373.899 92.5517 374.581 92.5517C375.197 92.5517 375.752 92.6637 376.247 92.8877C376.741 93.1117 377.147 93.4337 377.465 93.8537C377.782 94.2644 377.973 94.7591 378.039 95.3377H376.821C376.662 94.8337 376.377 94.4371 375.967 94.1477C375.565 93.8491 375.103 93.6997 374.581 93.6997C374.151 93.6997 373.75 93.7977 373.377 93.9937C373.013 94.1897 372.719 94.4744 372.495 94.8477C372.28 95.2117 372.173 95.6644 372.173 96.2057C372.173 96.7284 372.28 97.1764 372.495 97.5497C372.719 97.9137 373.013 98.1937 373.377 98.3897C373.741 98.5764 374.142 98.6697 374.581 98.6697C375.178 98.6697 375.663 98.5251 376.037 98.2357C376.41 97.9464 376.676 97.5404 376.835 97.0177H378.039ZM382.811 99.8317C382.129 99.8317 381.504 99.6871 380.935 99.3977C380.365 99.1084 379.913 98.6931 379.577 98.1517C379.241 97.6104 379.073 96.9617 379.073 96.2057C379.073 95.4404 379.241 94.7871 379.577 94.2457C379.913 93.6951 380.365 93.2751 380.935 92.9857C381.504 92.6964 382.129 92.5517 382.811 92.5517C383.492 92.5517 384.113 92.6964 384.673 92.9857C385.233 93.2751 385.681 93.6951 386.017 94.2457C386.353 94.7871 386.521 95.4404 386.521 96.2057C386.521 96.9617 386.353 97.6104 386.017 98.1517C385.681 98.6931 385.233 99.1084 384.673 99.3977C384.113 99.6871 383.492 99.8317 382.811 99.8317ZM382.811 98.6697C383.231 98.6697 383.618 98.5764 383.973 98.3897C384.337 98.1937 384.626 97.9137 384.841 97.5497C385.065 97.1764 385.177 96.7284 385.177 96.2057C385.177 95.6737 385.065 95.2211 384.841 94.8477C384.626 94.4744 384.337 94.1897 383.973 93.9937C383.618 93.7977 383.231 93.6997 382.811 93.6997C382.391 93.6997 381.999 93.7977 381.635 93.9937C381.271 94.1804 380.977 94.4604 380.753 94.8337C380.529 95.2071 380.417 95.6644 380.417 96.2057C380.417 96.7284 380.524 97.1764 380.739 97.5497C380.963 97.9137 381.257 98.1937 381.621 98.3897C381.985 98.5764 382.381 98.6697 382.811 98.6697ZM387.927 92.6917H389.271V99.6777H387.927V92.6917ZM391.931 92.5517C392.323 92.5517 392.678 92.6077 392.995 92.7197C393.312 92.8317 393.583 92.9997 393.807 93.2237C394.031 93.4384 394.204 93.7091 394.325 94.0357C394.456 94.3531 394.521 94.7171 394.521 95.1277V99.6777H393.191V95.4217C393.191 94.8711 393.056 94.4604 392.785 94.1897C392.524 93.9097 392.122 93.7697 391.581 93.7697C391.161 93.7697 390.778 93.8677 390.433 94.0637C390.088 94.2597 389.803 94.5211 389.579 94.8477C389.364 95.1651 389.234 95.5244 389.187 95.9257L389.173 95.1557C389.22 94.7824 389.318 94.4371 389.467 94.1197C389.626 93.8024 389.822 93.5271 390.055 93.2937C390.298 93.0511 390.578 92.8691 390.895 92.7477C391.212 92.6171 391.558 92.5517 391.931 92.5517ZM397.055 92.5517C397.447 92.5517 397.802 92.6077 398.119 92.7197C398.436 92.8317 398.707 92.9997 398.931 93.2237C399.155 93.4384 399.328 93.7091 399.449 94.0357C399.58 94.3531 399.645 94.7171 399.645 95.1277V99.6777H398.315V95.4217C398.315 94.8711 398.18 94.4604 397.909 94.1897C397.648 93.9097 397.246 93.7697 396.705 93.7697C396.285 93.7697 395.902 93.8677 395.557 94.0637C395.212 94.2597 394.927 94.5211 394.703 94.8477C394.488 95.1651 394.358 95.5244 394.311 95.9257L394.297 95.1417C394.344 94.7684 394.442 94.4277 394.591 94.1197C394.75 93.8024 394.95 93.5271 395.193 93.2937C395.436 93.0511 395.716 92.8691 396.033 92.7477C396.35 92.6171 396.691 92.5517 397.055 92.5517ZM401.407 92.6917H402.751V99.6777H401.407V92.6917ZM405.411 92.5517C405.803 92.5517 406.158 92.6077 406.475 92.7197C406.793 92.8317 407.063 92.9997 407.287 93.2237C407.511 93.4384 407.684 93.7091 407.805 94.0357C407.936 94.3531 408.001 94.7171 408.001 95.1277V99.6777H406.671V95.4217C406.671 94.8711 406.536 94.4604 406.265 94.1897C406.004 93.9097 405.603 93.7697 405.061 93.7697C404.641 93.7697 404.259 93.8677 403.913 94.0637C403.568 94.2597 403.283 94.5211 403.059 94.8477C402.845 95.1651 402.714 95.5244 402.667 95.9257L402.653 95.1557C402.7 94.7824 402.798 94.4371 402.947 94.1197C403.106 93.8024 403.302 93.5271 403.535 93.2937C403.778 93.0511 404.058 92.8691 404.375 92.7477C404.693 92.6171 405.038 92.5517 405.411 92.5517ZM410.535 92.5517C410.927 92.5517 411.282 92.6077 411.599 92.7197C411.917 92.8317 412.187 92.9997 412.411 93.2237C412.635 93.4384 412.808 93.7091 412.929 94.0357C413.06 94.3531 413.125 94.7171 413.125 95.1277V99.6777H411.795V95.4217C411.795 94.8711 411.66 94.4604 411.389 94.1897C411.128 93.9097 410.727 93.7697 410.185 93.7697C409.765 93.7697 409.383 93.8677 409.037 94.0637C408.692 94.2597 408.407 94.5211 408.183 94.8477C407.969 95.1651 407.838 95.5244 407.791 95.9257L407.777 95.1417C407.824 94.7684 407.922 94.4277 408.071 94.1197C408.23 93.8024 408.431 93.5271 408.673 93.2937C408.916 93.0511 409.196 92.8691 409.513 92.7477C409.831 92.6171 410.171 92.5517 410.535 92.5517ZM421.482 99.6777H420.152V92.6917H421.482V99.6777ZM420.222 96.3877L420.236 96.8077C420.227 96.9291 420.194 97.1111 420.138 97.3537C420.091 97.5871 420.007 97.8437 419.886 98.1237C419.774 98.4037 419.615 98.6744 419.41 98.9357C419.214 99.1971 418.962 99.4117 418.654 99.5797C418.346 99.7477 417.973 99.8317 417.534 99.8317C417.235 99.8317 416.927 99.7897 416.61 99.7057C416.302 99.6217 416.017 99.4817 415.756 99.2857C415.495 99.0897 415.285 98.8237 415.126 98.4877C414.967 98.1424 414.888 97.7131 414.888 97.1997V92.6917H416.232V96.9197C416.232 97.3491 416.297 97.6851 416.428 97.9277C416.568 98.1704 416.764 98.3431 417.016 98.4457C417.268 98.5484 417.553 98.5997 417.87 98.5997C418.355 98.5997 418.761 98.4831 419.088 98.2497C419.424 98.0071 419.685 97.7177 419.872 97.3817C420.059 97.0364 420.175 96.7051 420.222 96.3877ZM423.241 92.6917H424.585V99.6777H423.241V92.6917ZM427.245 92.5517C427.637 92.5517 427.992 92.6077 428.309 92.7197C428.627 92.8317 428.897 92.9997 429.121 93.2237C429.345 93.4384 429.518 93.7091 429.639 94.0357C429.77 94.3531 429.835 94.7171 429.835 95.1277V99.6777H428.505V95.4217C428.505 94.8711 428.37 94.4604 428.099 94.1897C427.838 93.9097 427.437 93.7697 426.895 93.7697C426.475 93.7697 426.093 93.8677 425.747 94.0637C425.402 94.2597 425.117 94.5211 424.893 94.8477C424.679 95.1651 424.548 95.5244 424.501 95.9257L424.487 95.1557C424.534 94.7824 424.632 94.4371 424.781 94.1197C424.94 93.8024 425.136 93.5271 425.369 93.2937C425.612 93.0511 425.892 92.8691 426.209 92.7477C426.527 92.6171 426.872 92.5517 427.245 92.5517ZM433.205 89.8077V91.2497H431.539V89.8077H433.205ZM431.707 92.6917H433.037V99.6777H431.707V92.6917ZM434.441 92.6917H438.963V93.8537H434.441V92.6917ZM436.037 90.8437H437.367V99.6777H436.037V90.8437ZM439.606 92.6917H441.034L443.708 99.3977L442.546 99.6777L439.606 92.6917ZM446.732 92.6917L442.546 102.478H441.132L442.938 98.6837L445.318 92.6917H446.732Z" fill="#D1D5DB"/>
<path d="M20.8277 51.0127C20.5448 51.0127 20.262 51.1169 20.0386 51.3403L11.0016 60.3773C10.5698 60.8091 10.5698 61.5237 11.0016 61.9555C11.4333 62.3872 12.1479 62.3872 12.5797 61.9555L20.8277 53.7075L29.0757 61.9555C29.5075 62.3872 30.2221 62.3872 30.6538 61.9555C31.0856 61.5237 31.0856 60.8091 30.6538 60.3773L21.6168 51.3403C21.3934 51.1169 21.1106 51.0127 20.8277 51.0127Z" fill="#D1D5DB"/>
<path d="M20.8275 51.2648C20.2171 51.2648 19.7109 51.771 19.7109 52.3814V77.4381C19.7109 78.0485 20.2171 78.5547 20.8275 78.5547C21.438 78.5547 21.9442 78.0485 21.9442 77.4381V52.3814C21.9442 51.771 21.438 51.2648 20.8275 51.2648Z" fill="#D1D5DB"/>
<path d="M59.3716 88.6559C56.165 88.6559 53.0233 88.2009 49.9466 87.2909C46.9133 86.3375 44.3566 85.0375 42.2766 83.3909L45.8516 76.8259C47.4983 78.1692 49.4916 79.2525 51.8316 80.0759C54.215 80.8992 56.685 81.3109 59.2416 81.3109C62.2316 81.3109 64.5716 80.6825 66.2616 79.4259C67.995 78.1692 68.8616 76.4792 68.8616 74.3559C68.8616 72.9259 68.4933 71.6692 67.7566 70.5859C67.0633 69.5025 65.8066 68.6792 63.9866 68.1159C62.21 67.5525 59.7616 67.2709 56.6416 67.2709H45.6566L47.9966 42.5059H74.7116V49.5909H51.1166L55.5366 45.5609L53.7816 64.0859L49.3616 60.1209H58.5266C63.0333 60.1209 66.6516 60.7275 69.3816 61.9409C72.155 63.1109 74.17 64.7575 75.4266 66.8809C76.7266 68.9609 77.3766 71.3442 77.3766 74.0309C77.3766 76.6742 76.7266 79.1009 75.4266 81.3109C74.1266 83.5209 72.1333 85.2975 69.4466 86.6409C66.8033 87.9842 63.445 88.6559 59.3716 88.6559ZM85.5006 88.0059V42.5059H92.4556L112.346 75.7209H108.706L128.271 42.5059H135.226L135.291 88.0059H127.296L127.231 55.0509H128.921L112.281 82.8059H108.511L91.6106 55.0509H93.5606V88.0059H85.5006Z" fill="#D1D5DB"/>
</g>
<defs>
<clipPath id="clip0_6586_65837">
<rect width="449.796" height="127.783" fill="white" transform="translate(0.431641 0.613281)"/>
</clipPath>
</defs>
</svg>
