<svg width="30" height="31" viewBox="0 0 30 31" fill="none" xmlns="http://www.w3.org/2000/svg">
<circle cx="14.6974" cy="15.4983" r="14.6974" fill="#F3FCF3"/>
<path d="M12.8084 10.9386C13.4072 10.6906 14.049 10.5629 14.6971 10.5629C15.3452 10.5629 15.987 10.6906 16.5858 10.9386C17.1846 11.1866 17.7287 11.5502 18.1869 12.0085L18.5405 11.6549L18.1869 12.0085C18.6452 12.4668 19.0088 13.0108 19.2568 13.6096C19.5048 14.2084 19.6325 14.8502 19.6325 15.4983C19.6325 16.8073 19.1125 18.0626 18.1869 18.9882C17.2614 19.9137 16.006 20.4337 14.6971 20.4337C14.049 20.4337 13.4072 20.306 12.8084 20.058C12.2096 19.81 11.6656 19.4464 11.2073 18.9882L10.8537 19.3417L11.2073 18.9882C10.2817 18.0626 9.76172 16.8073 9.76172 15.4983C9.76172 14.1894 10.2817 12.934 11.2073 12.0085C11.6656 11.5502 12.2096 11.1866 12.8084 10.9386Z" stroke="#228B22"/>
<path d="M15.3427 12.4512V13.3782H14.2717V12.4512H15.3427ZM14.3797 14.3052H15.2347V18.7962H14.3797V14.3052Z" fill="#228B22"/>
</svg>
