<svg width="769" height="203" viewBox="0 0 769 203" fill="none" xmlns="http://www.w3.org/2000/svg">
<g clip-path="url(#clip0_3203_31164)">
<rect x="266" y="136" width="234" height="67" rx="33.5" fill="#23A323"/>
<circle cx="490.5" cy="148.5" r="12.5" stroke="white"/>
<circle cx="490.5" cy="148.5" r="6.25" fill="white"/>
<path d="M18.1792 43.245V37.14H41.7192V43.245H18.1792ZM9.32416 51L26.0442 15.415H33.9642L50.8492 51H42.8742L28.2442 18.935H31.7642L17.2442 51H9.32416ZM87.2153 40.22C87.032 42.6033 86.262 44.6567 84.9053 46.38C83.5853 48.1033 81.752 49.4233 79.4053 50.34C77.0587 51.22 74.272 51.66 71.0453 51.66C67.672 51.66 64.647 51.1283 61.9703 50.065C59.3303 48.965 57.2403 47.37 55.7003 45.28C54.197 43.1533 53.4453 40.5317 53.4453 37.415C53.4453 34.2983 54.197 31.6767 55.7003 29.55C57.2403 27.4233 59.3303 25.81 61.9703 24.71C64.647 23.61 67.672 23.06 71.0453 23.06C74.272 23.06 77.0403 23.5183 79.3503 24.435C81.6603 25.315 83.4753 26.5983 84.7953 28.285C86.152 29.9717 86.9403 32.0067 87.1603 34.39H80.6153C79.992 32.5567 78.837 31.1267 77.1503 30.1C75.4637 29.0733 73.4287 28.56 71.0453 28.56C69.1387 28.56 67.397 28.89 65.8203 29.55C64.2803 30.21 63.0337 31.2 62.0803 32.52C61.1637 33.8033 60.7053 35.435 60.7053 37.415C60.7053 39.3583 61.1637 40.99 62.0803 42.31C62.997 43.5933 64.2437 44.565 65.8203 45.225C67.397 45.8483 69.1387 46.16 71.0453 46.16C73.612 46.16 75.702 45.6467 77.3153 44.62C78.9653 43.5933 80.0837 42.1267 80.6703 40.22H87.2153ZM124.92 40.22C124.737 42.6033 123.967 44.6567 122.61 46.38C121.29 48.1033 119.457 49.4233 117.11 50.34C114.764 51.22 111.977 51.66 108.75 51.66C105.377 51.66 102.352 51.1283 99.6754 50.065C97.0354 48.965 94.9454 47.37 93.4054 45.28C91.9021 43.1533 91.1504 40.5317 91.1504 37.415C91.1504 34.2983 91.9021 31.6767 93.4054 29.55C94.9454 27.4233 97.0354 25.81 99.6754 24.71C102.352 23.61 105.377 23.06 108.75 23.06C111.977 23.06 114.745 23.5183 117.055 24.435C119.365 25.315 121.18 26.5983 122.5 28.285C123.857 29.9717 124.645 32.0067 124.865 34.39H118.32C117.697 32.5567 116.542 31.1267 114.855 30.1C113.169 29.0733 111.134 28.56 108.75 28.56C106.844 28.56 105.102 28.89 103.525 29.55C101.985 30.21 100.739 31.2 99.7854 32.52C98.8687 33.8033 98.4104 35.435 98.4104 37.415C98.4104 39.3583 98.8687 40.99 99.7854 42.31C100.702 43.5933 101.949 44.565 103.525 45.225C105.102 45.8483 106.844 46.16 108.75 46.16C111.317 46.16 113.407 45.6467 115.02 44.62C116.67 43.5933 117.789 42.1267 118.375 40.22H124.92ZM155.09 41.925H162.02C161.727 43.795 160.939 45.4633 159.655 46.93C158.409 48.3967 156.704 49.5517 154.54 50.395C152.377 51.2383 149.737 51.66 146.62 51.66C143.137 51.66 140.057 51.11 137.38 50.01C134.704 48.8733 132.614 47.2417 131.11 45.115C129.607 42.9883 128.855 40.4217 128.855 37.415C128.855 34.4083 129.589 31.8417 131.055 29.715C132.522 27.5517 134.557 25.9017 137.16 24.765C139.8 23.6283 142.88 23.06 146.4 23.06C149.994 23.06 152.982 23.6283 155.365 24.765C157.749 25.9017 159.509 27.625 160.645 29.935C161.819 32.2083 162.314 35.1233 162.13 38.68H136.06C136.244 40.0733 136.757 41.3383 137.6 42.475C138.48 43.6117 139.654 44.51 141.12 45.17C142.624 45.83 144.402 46.16 146.455 46.16C148.729 46.16 150.617 45.775 152.12 45.005C153.66 44.1983 154.65 43.1717 155.09 41.925ZM146.07 28.505C143.43 28.505 141.285 29.0917 139.635 30.265C137.985 31.4017 136.922 32.8133 136.445 34.5H155.035C154.852 32.6667 153.972 31.2183 152.395 30.155C150.855 29.055 148.747 28.505 146.07 28.505ZM168.001 12.665H175.151V51H168.001V12.665ZM207.298 41.925H214.228C213.934 43.795 213.146 45.4633 211.863 46.93C210.616 48.3967 208.911 49.5517 206.748 50.395C204.584 51.2383 201.944 51.66 198.828 51.66C195.344 51.66 192.264 51.11 189.588 50.01C186.911 48.8733 184.821 47.2417 183.318 45.115C181.814 42.9883 181.063 40.4217 181.063 37.415C181.063 34.4083 181.796 31.8417 183.263 29.715C184.729 27.5517 186.764 25.9017 189.368 24.765C192.008 23.6283 195.088 23.06 198.608 23.06C202.201 23.06 205.189 23.6283 207.573 24.765C209.956 25.9017 211.716 27.625 212.853 29.935C214.026 32.2083 214.521 35.1233 214.338 38.68H188.268C188.451 40.0733 188.964 41.3383 189.808 42.475C190.688 43.6117 191.861 44.51 193.328 45.17C194.831 45.83 196.609 46.16 198.663 46.16C200.936 46.16 202.824 45.775 204.328 45.005C205.868 44.1983 206.858 43.1717 207.298 41.925ZM198.278 28.505C195.638 28.505 193.493 29.0917 191.843 30.265C190.193 31.4017 189.129 32.8133 188.653 34.5H207.243C207.059 32.6667 206.179 31.2183 204.603 30.155C203.063 29.055 200.954 28.505 198.278 28.505ZM219.658 23.665H226.808V51H219.658V23.665ZM237.313 29.55C235.26 29.55 233.481 29.9533 231.978 30.76C230.475 31.53 229.265 32.4833 228.348 33.62C227.431 34.7567 226.79 35.8567 226.423 36.92L226.368 33.895C226.405 33.455 226.551 32.8133 226.808 31.97C227.065 31.09 227.45 30.155 227.963 29.165C228.476 28.1383 229.155 27.1667 229.998 26.25C230.841 25.2967 231.868 24.5267 233.078 23.94C234.288 23.3533 235.7 23.06 237.313 23.06V29.55ZM255.043 51.605C252.33 51.605 249.855 51.0183 247.618 49.845C245.418 48.635 243.658 46.9667 242.338 44.84C241.055 42.6767 240.413 40.1833 240.413 37.36C240.413 34.4633 241.073 31.9517 242.393 29.825C243.713 27.6983 245.491 26.0483 247.728 24.875C250.001 23.665 252.568 23.06 255.428 23.06C258.581 23.06 261.111 23.7017 263.018 24.985C264.961 26.2317 266.373 27.9367 267.253 30.1C268.133 32.2633 268.573 34.6833 268.573 37.36C268.573 38.9733 268.316 40.6233 267.803 42.31C267.29 43.96 266.501 45.5 265.438 46.93C264.375 48.3233 262.981 49.46 261.258 50.34C259.535 51.1833 257.463 51.605 255.043 51.605ZM257.353 46.105C259.516 46.105 261.386 45.7383 262.963 45.005C264.54 44.2717 265.75 43.245 266.593 41.925C267.436 40.605 267.858 39.0833 267.858 37.36C267.858 35.49 267.418 33.9133 266.538 32.63C265.695 31.31 264.485 30.32 262.908 29.66C261.368 28.9633 259.516 28.615 257.353 28.615C254.31 28.615 251.945 29.4217 250.258 31.035C248.571 32.6117 247.728 34.72 247.728 37.36C247.728 39.12 248.131 40.66 248.938 41.98C249.745 43.2633 250.863 44.2717 252.293 45.005C253.76 45.7383 255.446 46.105 257.353 46.105ZM267.858 23.665H275.008V51H268.353C268.353 51 268.298 50.6517 268.188 49.955C268.115 49.2217 268.041 48.305 267.968 47.205C267.895 46.105 267.858 45.0233 267.858 43.96V23.665ZM279.554 23.665H300.784V29.22H279.554V23.665ZM286.594 16.185H293.744V51H286.594V16.185ZM329.866 41.925H336.796C336.503 43.795 335.714 45.4633 334.431 46.93C333.184 48.3967 331.479 49.5517 329.316 50.395C327.153 51.2383 324.513 51.66 321.396 51.66C317.913 51.66 314.833 51.11 312.156 50.01C309.479 48.8733 307.389 47.2417 305.886 45.115C304.383 42.9883 303.631 40.4217 303.631 37.415C303.631 34.4083 304.364 31.8417 305.831 29.715C307.298 27.5517 309.333 25.9017 311.936 24.765C314.576 23.6283 317.656 23.06 321.176 23.06C324.769 23.06 327.758 23.6283 330.141 24.765C332.524 25.9017 334.284 27.625 335.421 29.935C336.594 32.2083 337.089 35.1233 336.906 38.68H310.836C311.019 40.0733 311.533 41.3383 312.376 42.475C313.256 43.6117 314.429 44.51 315.896 45.17C317.399 45.83 319.178 46.16 321.231 46.16C323.504 46.16 325.393 45.775 326.896 45.005C328.436 44.1983 329.426 43.1717 329.866 41.925ZM320.846 28.505C318.206 28.505 316.061 29.0917 314.411 30.265C312.761 31.4017 311.698 32.8133 311.221 34.5H329.811C329.628 32.6667 328.748 31.2183 327.171 30.155C325.631 29.055 323.523 28.505 320.846 28.505ZM353.018 23.665H360.608L372.433 49.9L366.273 51L353.018 23.665ZM386.458 23.665L367.538 62H360.113L368.198 46.93L378.813 23.665H386.458ZM405.499 51.66C402.053 51.66 399.009 51.11 396.369 50.01C393.766 48.91 391.731 47.315 390.264 45.225C388.798 43.0983 388.064 40.495 388.064 37.415C388.064 34.335 388.798 31.7317 390.264 29.605C391.731 27.4417 393.766 25.81 396.369 24.71C399.009 23.61 402.053 23.06 405.499 23.06C408.946 23.06 411.953 23.61 414.519 24.71C417.123 25.81 419.158 27.4417 420.624 29.605C422.091 31.7317 422.824 34.335 422.824 37.415C422.824 40.495 422.091 43.0983 420.624 45.225C419.158 47.315 417.123 48.91 414.519 50.01C411.953 51.11 408.946 51.66 405.499 51.66ZM405.499 46.16C407.406 46.16 409.111 45.83 410.614 45.17C412.154 44.4733 413.364 43.4833 414.244 42.2C415.124 40.88 415.564 39.285 415.564 37.415C415.564 35.545 415.124 33.95 414.244 32.63C413.364 31.2733 412.173 30.2467 410.669 29.55C409.166 28.8533 407.443 28.505 405.499 28.505C403.593 28.505 401.869 28.8533 400.329 29.55C398.789 30.2467 397.561 31.255 396.644 32.575C395.764 33.895 395.324 35.5083 395.324 37.415C395.324 39.285 395.764 40.88 396.644 42.2C397.524 43.4833 398.734 44.4733 400.274 45.17C401.814 45.83 403.556 46.16 405.499 46.16ZM459.735 51H452.585V23.665H459.735V51ZM452.97 37.855L453.025 39.725C452.952 40.2383 452.768 40.99 452.475 41.98C452.182 42.9333 451.723 43.96 451.1 45.06C450.513 46.16 449.743 47.2233 448.79 48.25C447.837 49.24 446.663 50.065 445.27 50.725C443.877 51.3483 442.227 51.66 440.32 51.66C438.817 51.66 437.332 51.4767 435.865 51.11C434.435 50.7433 433.133 50.1383 431.96 49.295C430.787 48.415 429.852 47.2417 429.155 45.775C428.458 44.3083 428.11 42.4567 428.11 40.22V23.665H435.26V39.01C435.26 40.77 435.535 42.1633 436.085 43.19C436.672 44.18 437.515 44.8767 438.615 45.28C439.715 45.6833 441.017 45.885 442.52 45.885C444.5 45.885 446.205 45.4633 447.635 44.62C449.065 43.74 450.22 42.6767 451.1 41.43C452.017 40.1833 452.64 38.9917 452.97 37.855ZM466.245 23.665H473.395V51H466.245V23.665ZM483.9 29.55C481.846 29.55 480.068 29.9533 478.565 30.76C477.061 31.53 475.851 32.4833 474.935 33.62C474.018 34.7567 473.376 35.8567 473.01 36.92L472.955 33.895C472.991 33.455 473.138 32.8133 473.395 31.97C473.651 31.09 474.036 30.155 474.55 29.165C475.063 28.1383 475.741 27.1667 476.585 26.25C477.428 25.2967 478.455 24.5267 479.665 23.94C480.875 23.3533 482.286 23.06 483.9 23.06V29.55ZM522.652 51.605C520.232 51.605 518.16 51.1833 516.437 50.34C514.713 49.46 513.32 48.3233 512.257 46.93C511.193 45.5 510.405 43.96 509.892 42.31C509.378 40.6233 509.122 38.9733 509.122 37.36C509.122 35.3433 509.36 33.4733 509.837 31.75C510.35 30.0267 511.138 28.5233 512.202 27.24C513.265 25.92 514.658 24.8933 516.382 24.16C518.105 23.4267 520.195 23.06 522.652 23.06C525.475 23.06 527.968 23.665 530.132 24.875C532.332 26.0483 534.055 27.6983 535.302 29.825C536.585 31.9517 537.227 34.4633 537.227 37.36C537.227 40.1833 536.585 42.6767 535.302 44.84C534.018 46.9667 532.277 48.635 530.077 49.845C527.877 51.0183 525.402 51.605 522.652 51.605ZM520.342 46.105C522.285 46.105 523.972 45.7383 525.402 45.005C526.832 44.2717 527.932 43.2633 528.702 41.98C529.508 40.66 529.912 39.12 529.912 37.36C529.912 34.72 529.068 32.5933 527.382 30.98C525.732 29.3667 523.385 28.56 520.342 28.56C518.215 28.56 516.363 28.9083 514.787 29.605C513.21 30.3017 511.982 31.31 511.102 32.63C510.258 33.9133 509.837 35.49 509.837 37.36C509.837 39.0833 510.258 40.605 511.102 41.925C511.945 43.245 513.155 44.2717 514.732 45.005C516.308 45.7383 518.178 46.105 520.342 46.105ZM509.837 12.665V43.96C509.837 45.1333 509.782 46.3983 509.672 47.755C509.562 49.075 509.452 50.1567 509.342 51H502.687V12.665H509.837ZM574.139 51H566.989V23.665H574.139V51ZM567.374 37.855L567.429 39.725C567.356 40.2383 567.173 40.99 566.879 41.98C566.586 42.9333 566.128 43.96 565.504 45.06C564.918 46.16 564.148 47.2233 563.194 48.25C562.241 49.24 561.068 50.065 559.674 50.725C558.281 51.3483 556.631 51.66 554.724 51.66C553.221 51.66 551.736 51.4767 550.269 51.11C548.839 50.7433 547.538 50.1383 546.364 49.295C545.191 48.415 544.256 47.2417 543.559 45.775C542.863 44.3083 542.514 42.4567 542.514 40.22V23.665H549.664V39.01C549.664 40.77 549.939 42.1633 550.489 43.19C551.076 44.18 551.919 44.8767 553.019 45.28C554.119 45.6833 555.421 45.885 556.924 45.885C558.904 45.885 560.609 45.4633 562.039 44.62C563.469 43.74 564.624 42.6767 565.504 41.43C566.421 40.1833 567.044 38.9917 567.374 37.855ZM579.549 41.925H586.149C586.552 43.1717 587.377 44.1983 588.624 45.005C589.907 45.775 591.576 46.16 593.629 46.16C595.022 46.16 596.104 46.0317 596.874 45.775C597.644 45.5183 598.176 45.1517 598.469 44.675C598.762 44.1617 598.909 43.5933 598.909 42.97C598.909 42.2 598.671 41.6133 598.194 41.21C597.717 40.77 596.984 40.4217 595.994 40.165C595.004 39.9083 593.739 39.67 592.199 39.45C590.659 39.1933 589.174 38.8817 587.744 38.515C586.314 38.1483 585.049 37.6717 583.949 37.085C582.849 36.4617 581.969 35.6917 581.309 34.775C580.686 33.8217 580.374 32.6667 580.374 31.31C580.374 29.99 580.686 28.8167 581.309 27.79C581.969 26.7633 582.867 25.9017 584.004 25.205C585.177 24.5083 586.534 23.9767 588.074 23.61C589.651 23.2433 591.337 23.06 593.134 23.06C595.847 23.06 598.102 23.4633 599.899 24.27C601.696 25.04 603.034 26.14 603.914 27.57C604.831 28.9633 605.289 30.5767 605.289 32.41H598.964C598.671 31.0533 598.084 30.0817 597.204 29.495C596.324 28.8717 594.967 28.56 593.134 28.56C591.337 28.56 589.981 28.835 589.064 29.385C588.147 29.935 587.689 30.6867 587.689 31.64C587.689 32.41 587.964 33.015 588.514 33.455C589.101 33.8583 589.944 34.1883 591.044 34.445C592.181 34.7017 593.592 34.9767 595.279 35.27C596.709 35.5633 598.066 35.8933 599.349 36.26C600.669 36.6267 601.842 37.1033 602.869 37.69C603.896 38.24 604.702 38.9917 605.289 39.945C605.912 40.8617 606.224 42.035 606.224 43.465C606.224 45.225 605.711 46.71 604.684 47.92C603.694 49.13 602.264 50.065 600.394 50.725C598.524 51.3483 596.287 51.66 593.684 51.66C591.374 51.66 589.376 51.4217 587.689 50.945C586.039 50.4317 584.664 49.79 583.564 49.02C582.464 48.2133 581.602 47.37 580.979 46.49C580.392 45.5733 579.989 44.7117 579.769 43.905C579.549 43.0983 579.476 42.4383 579.549 41.925ZM619.889 11.675V17.945H611.584V11.675H619.889ZM612.134 23.665H619.284V51H612.134V23.665ZM626.411 23.665H633.561V51H626.411V23.665ZM646.266 23.06C647.953 23.06 649.511 23.28 650.941 23.72C652.371 24.16 653.618 24.8383 654.681 25.755C655.744 26.6717 656.569 27.845 657.156 29.275C657.743 30.6683 658.036 32.3367 658.036 34.28V51H650.886V35.545C650.886 33.235 650.318 31.5483 649.181 30.485C648.081 29.385 646.266 28.835 643.736 28.835C641.829 28.835 640.106 29.2017 638.566 29.935C637.026 30.6683 635.779 31.6033 634.826 32.74C633.873 33.84 633.323 34.995 633.176 36.205L633.121 33.4C633.304 32.1167 633.726 30.87 634.386 29.66C635.046 28.45 635.926 27.35 637.026 26.36C638.163 25.3333 639.501 24.5267 641.041 23.94C642.581 23.3533 644.323 23.06 646.266 23.06ZM689.461 41.925H696.391C696.097 43.795 695.309 45.4633 694.026 46.93C692.779 48.3967 691.074 49.5517 688.911 50.395C686.747 51.2383 684.107 51.66 680.991 51.66C677.507 51.66 674.427 51.11 671.751 50.01C669.074 48.8733 666.984 47.2417 665.481 45.115C663.977 42.9883 663.226 40.4217 663.226 37.415C663.226 34.4083 663.959 31.8417 665.426 29.715C666.892 27.5517 668.927 25.9017 671.531 24.765C674.171 23.6283 677.251 23.06 680.771 23.06C684.364 23.06 687.352 23.6283 689.736 24.765C692.119 25.9017 693.879 27.625 695.016 29.935C696.189 32.2083 696.684 35.1233 696.501 38.68H670.431C670.614 40.0733 671.127 41.3383 671.971 42.475C672.851 43.6117 674.024 44.51 675.491 45.17C676.994 45.83 678.772 46.16 680.826 46.16C683.099 46.16 684.987 45.775 686.491 45.005C688.031 44.1983 689.021 43.1717 689.461 41.925ZM680.441 28.505C677.801 28.505 675.656 29.0917 674.006 30.265C672.356 31.4017 671.292 32.8133 670.816 34.5H689.406C689.222 32.6667 688.342 31.2183 686.766 30.155C685.226 29.055 683.117 28.505 680.441 28.505ZM700.721 41.925H707.321C707.724 43.1717 708.549 44.1983 709.796 45.005C711.079 45.775 712.748 46.16 714.801 46.16C716.194 46.16 717.276 46.0317 718.046 45.775C718.816 45.5183 719.348 45.1517 719.641 44.675C719.934 44.1617 720.081 43.5933 720.081 42.97C720.081 42.2 719.843 41.6133 719.366 41.21C718.889 40.77 718.156 40.4217 717.166 40.165C716.176 39.9083 714.911 39.67 713.371 39.45C711.831 39.1933 710.346 38.8817 708.916 38.515C707.486 38.1483 706.221 37.6717 705.121 37.085C704.021 36.4617 703.141 35.6917 702.481 34.775C701.858 33.8217 701.546 32.6667 701.546 31.31C701.546 29.99 701.858 28.8167 702.481 27.79C703.141 26.7633 704.039 25.9017 705.176 25.205C706.349 24.5083 707.706 23.9767 709.246 23.61C710.823 23.2433 712.509 23.06 714.306 23.06C717.019 23.06 719.274 23.4633 721.071 24.27C722.868 25.04 724.206 26.14 725.086 27.57C726.003 28.9633 726.461 30.5767 726.461 32.41H720.136C719.843 31.0533 719.256 30.0817 718.376 29.495C717.496 28.8717 716.139 28.56 714.306 28.56C712.509 28.56 711.153 28.835 710.236 29.385C709.319 29.935 708.861 30.6867 708.861 31.64C708.861 32.41 709.136 33.015 709.686 33.455C710.273 33.8583 711.116 34.1883 712.216 34.445C713.353 34.7017 714.764 34.9767 716.451 35.27C717.881 35.5633 719.238 35.8933 720.521 36.26C721.841 36.6267 723.014 37.1033 724.041 37.69C725.068 38.24 725.874 38.9917 726.461 39.945C727.084 40.8617 727.396 42.035 727.396 43.465C727.396 45.225 726.883 46.71 725.856 47.92C724.866 49.13 723.436 50.065 721.566 50.725C719.696 51.3483 717.459 51.66 714.856 51.66C712.546 51.66 710.548 51.4217 708.861 50.945C707.211 50.4317 705.836 49.79 704.736 49.02C703.636 48.2133 702.774 47.37 702.151 46.49C701.564 45.5733 701.161 44.7117 700.941 43.905C700.721 43.0983 700.648 42.4383 700.721 41.925ZM731.766 41.925H738.366C738.769 43.1717 739.594 44.1983 740.841 45.005C742.124 45.775 743.793 46.16 745.846 46.16C747.239 46.16 748.321 46.0317 749.091 45.775C749.861 45.5183 750.393 45.1517 750.686 44.675C750.979 44.1617 751.126 43.5933 751.126 42.97C751.126 42.2 750.888 41.6133 750.411 41.21C749.934 40.77 749.201 40.4217 748.211 40.165C747.221 39.9083 745.956 39.67 744.416 39.45C742.876 39.1933 741.391 38.8817 739.961 38.515C738.531 38.1483 737.266 37.6717 736.166 37.085C735.066 36.4617 734.186 35.6917 733.526 34.775C732.903 33.8217 732.591 32.6667 732.591 31.31C732.591 29.99 732.903 28.8167 733.526 27.79C734.186 26.7633 735.084 25.9017 736.221 25.205C737.394 24.5083 738.751 23.9767 740.291 23.61C741.868 23.2433 743.554 23.06 745.351 23.06C748.064 23.06 750.319 23.4633 752.116 24.27C753.913 25.04 755.251 26.14 756.131 27.57C757.048 28.9633 757.506 30.5767 757.506 32.41H751.181C750.888 31.0533 750.301 30.0817 749.421 29.495C748.541 28.8717 747.184 28.56 745.351 28.56C743.554 28.56 742.198 28.835 741.281 29.385C740.364 29.935 739.906 30.6867 739.906 31.64C739.906 32.41 740.181 33.015 740.731 33.455C741.318 33.8583 742.161 34.1883 743.261 34.445C744.398 34.7017 745.809 34.9767 747.496 35.27C748.926 35.5633 750.283 35.8933 751.566 36.26C752.886 36.6267 754.059 37.1033 755.086 37.69C756.113 38.24 756.919 38.9917 757.506 39.945C758.129 40.8617 758.441 42.035 758.441 43.465C758.441 45.225 757.928 46.71 756.901 47.92C755.911 49.13 754.481 50.065 752.611 50.725C750.741 51.3483 748.504 51.66 745.901 51.66C743.591 51.66 741.593 51.4217 739.906 50.945C738.256 50.4317 736.881 49.79 735.781 49.02C734.681 48.2133 733.819 47.37 733.196 46.49C732.609 45.5733 732.206 44.7117 731.986 43.905C731.766 43.0983 731.693 42.4383 731.766 41.925ZM80.7857 112.82C77.8157 112.82 75.194 112.38 72.9207 111.5C70.684 110.583 68.9424 109.245 67.6957 107.485C66.449 105.725 65.8257 103.598 65.8257 101.105C65.8257 98.6483 66.4307 96.5217 67.6407 94.725C68.8507 92.9283 70.574 91.535 72.8107 90.545C75.084 89.555 77.7424 89.06 80.7857 89.06C81.629 89.06 82.4357 89.115 83.2057 89.225C84.0124 89.335 84.8007 89.4817 85.5707 89.665L99.3757 89.72V95.11C97.5057 95.1467 95.599 94.9267 93.6557 94.45C91.749 93.9367 90.0624 93.3867 88.5957 92.8L88.4307 92.415C89.6774 93.0017 90.8507 93.735 91.9507 94.615C93.0507 95.4583 93.9307 96.4483 94.5907 97.585C95.2874 98.685 95.6357 99.9683 95.6357 101.435C95.6357 103.818 95.0307 105.872 93.8207 107.595C92.6107 109.282 90.8874 110.583 88.6507 111.5C86.4507 112.38 83.829 112.82 80.7857 112.82ZM89.9707 128.275V126.955C89.9707 125.268 89.4207 124.095 88.3207 123.435C87.2574 122.775 85.7907 122.445 83.9207 122.445H75.3957C73.7457 122.445 72.3524 122.317 71.2157 122.06C70.1157 121.803 69.2357 121.437 68.5757 120.96C67.9157 120.483 67.439 119.915 67.1457 119.255C66.8524 118.632 66.7057 117.953 66.7057 117.22C66.7057 115.753 67.1824 114.653 68.1357 113.92C69.089 113.15 70.3724 112.637 71.9857 112.38C73.599 112.123 75.3774 112.068 77.3207 112.215L80.7857 112.82C78.4757 112.893 76.7524 113.095 75.6157 113.425C74.5157 113.718 73.9657 114.323 73.9657 115.24C73.9657 115.79 74.1857 116.23 74.6257 116.56C75.0657 116.853 75.689 117 76.4957 117H85.4607C87.9174 117 90.0074 117.257 91.7307 117.77C93.4907 118.32 94.829 119.218 95.7457 120.465C96.6624 121.748 97.1207 123.49 97.1207 125.69V128.275H89.9707ZM80.7857 107.65C82.3624 107.65 83.7374 107.393 84.9107 106.88C86.1207 106.367 87.0557 105.633 87.7157 104.68C88.3757 103.69 88.7057 102.517 88.7057 101.16C88.7057 99.7667 88.3757 98.575 87.7157 97.585C87.0557 96.595 86.139 95.8433 84.9657 95.33C83.7924 94.78 82.399 94.505 80.7857 94.505C79.209 94.505 77.8157 94.78 76.6057 95.33C75.3957 95.8433 74.4607 96.595 73.8007 97.585C73.1407 98.575 72.8107 99.7667 72.8107 101.16C72.8107 102.517 73.1407 103.69 73.8007 104.68C74.4607 105.633 75.3774 106.367 76.5507 106.88C77.7607 107.393 79.1724 107.65 80.7857 107.65ZM119.677 117.66C116.23 117.66 113.187 117.11 110.547 116.01C107.943 114.91 105.908 113.315 104.442 111.225C102.975 109.098 102.242 106.495 102.242 103.415C102.242 100.335 102.975 97.7317 104.442 95.605C105.908 93.4417 107.943 91.81 110.547 90.71C113.187 89.61 116.23 89.06 119.677 89.06C123.123 89.06 126.13 89.61 128.697 90.71C131.3 91.81 133.335 93.4417 134.802 95.605C136.268 97.7317 137.002 100.335 137.002 103.415C137.002 106.495 136.268 109.098 134.802 111.225C133.335 113.315 131.3 114.91 128.697 116.01C126.13 117.11 123.123 117.66 119.677 117.66ZM119.677 112.16C121.583 112.16 123.288 111.83 124.792 111.17C126.332 110.473 127.542 109.483 128.422 108.2C129.302 106.88 129.742 105.285 129.742 103.415C129.742 101.545 129.302 99.95 128.422 98.63C127.542 97.2733 126.35 96.2467 124.847 95.55C123.343 94.8533 121.62 94.505 119.677 94.505C117.77 94.505 116.047 94.8533 114.507 95.55C112.967 96.2467 111.738 97.255 110.822 98.575C109.942 99.895 109.502 101.508 109.502 103.415C109.502 105.285 109.942 106.88 110.822 108.2C111.702 109.483 112.912 110.473 114.452 111.17C115.992 111.83 117.733 112.16 119.677 112.16ZM155.597 117.605C152.884 117.605 150.409 117.018 148.172 115.845C145.972 114.635 144.212 112.967 142.892 110.84C141.609 108.677 140.967 106.183 140.967 103.36C140.967 100.463 141.627 97.9517 142.947 95.825C144.267 93.6983 146.046 92.0483 148.282 90.875C150.556 89.665 153.122 89.06 155.982 89.06C159.136 89.06 161.666 89.7017 163.572 90.985C165.516 92.2317 166.927 93.9367 167.807 96.1C168.687 98.2633 169.127 100.683 169.127 103.36C169.127 104.973 168.871 106.623 168.357 108.31C167.844 109.96 167.056 111.5 165.992 112.93C164.929 114.323 163.536 115.46 161.812 116.34C160.089 117.183 158.017 117.605 155.597 117.605ZM157.907 112.105C160.071 112.105 161.941 111.738 163.517 111.005C165.094 110.272 166.304 109.245 167.147 107.925C167.991 106.605 168.412 105.083 168.412 103.36C168.412 101.49 167.972 99.9133 167.092 98.63C166.249 97.31 165.039 96.32 163.462 95.66C161.922 94.9633 160.071 94.615 157.907 94.615C154.864 94.615 152.499 95.4217 150.812 97.035C149.126 98.6117 148.282 100.72 148.282 103.36C148.282 105.12 148.686 106.66 149.492 107.98C150.299 109.263 151.417 110.272 152.847 111.005C154.314 111.738 156.001 112.105 157.907 112.105ZM168.412 89.665H175.562V117H168.907C168.907 117 168.852 116.652 168.742 115.955C168.669 115.222 168.596 114.305 168.522 113.205C168.449 112.105 168.412 111.023 168.412 109.96V89.665ZM182.583 78.665H189.733V117H182.583V78.665ZM195.865 107.925H202.465C202.868 109.172 203.693 110.198 204.94 111.005C206.223 111.775 207.892 112.16 209.945 112.16C211.338 112.16 212.42 112.032 213.19 111.775C213.96 111.518 214.492 111.152 214.785 110.675C215.078 110.162 215.225 109.593 215.225 108.97C215.225 108.2 214.987 107.613 214.51 107.21C214.033 106.77 213.3 106.422 212.31 106.165C211.32 105.908 210.055 105.67 208.515 105.45C206.975 105.193 205.49 104.882 204.06 104.515C202.63 104.148 201.365 103.672 200.265 103.085C199.165 102.462 198.285 101.692 197.625 100.775C197.002 99.8217 196.69 98.6667 196.69 97.31C196.69 95.99 197.002 94.8167 197.625 93.79C198.285 92.7633 199.183 91.9017 200.32 91.205C201.493 90.5083 202.85 89.9767 204.39 89.61C205.967 89.2433 207.653 89.06 209.45 89.06C212.163 89.06 214.418 89.4633 216.215 90.27C218.012 91.04 219.35 92.14 220.23 93.57C221.147 94.9633 221.605 96.5767 221.605 98.41H215.28C214.987 97.0533 214.4 96.0817 213.52 95.495C212.64 94.8717 211.283 94.56 209.45 94.56C207.653 94.56 206.297 94.835 205.38 95.385C204.463 95.935 204.005 96.6867 204.005 97.64C204.005 98.41 204.28 99.015 204.83 99.455C205.417 99.8583 206.26 100.188 207.36 100.445C208.497 100.702 209.908 100.977 211.595 101.27C213.025 101.563 214.382 101.893 215.665 102.26C216.985 102.627 218.158 103.103 219.185 103.69C220.212 104.24 221.018 104.992 221.605 105.945C222.228 106.862 222.54 108.035 222.54 109.465C222.54 111.225 222.027 112.71 221 113.92C220.01 115.13 218.58 116.065 216.71 116.725C214.84 117.348 212.603 117.66 210 117.66C207.69 117.66 205.692 117.422 204.005 116.945C202.355 116.432 200.98 115.79 199.88 115.02C198.78 114.213 197.918 113.37 197.295 112.49C196.708 111.573 196.305 110.712 196.085 109.905C195.865 109.098 195.792 108.438 195.865 107.925ZM276.917 112.05L274.662 111.995L283.572 89.665H291.437L279.392 117H272.682L263.882 94.945H266.302L257.227 117H250.517L238.802 89.665H246.667L255.247 112.05H252.992L261.022 89.665H269.217L276.917 112.05ZM303.827 77.675V83.945H295.522V77.675H303.827ZM296.072 89.665H303.222V117H296.072V89.665ZM308.424 89.665H329.654V95.22H308.424V89.665ZM315.464 82.185H322.614V117H315.464V82.185ZM359.166 117V101.985C359.166 100.482 358.91 99.235 358.396 98.245C357.883 97.255 357.058 96.5033 355.921 95.99C354.821 95.4767 353.336 95.22 351.466 95.22C349.67 95.22 348.038 95.5683 346.571 96.265C345.105 96.925 343.913 97.805 342.996 98.905C342.08 99.9683 341.566 101.105 341.456 102.315L341.401 99.29C341.585 98.08 342.006 96.87 342.666 95.66C343.326 94.45 344.206 93.35 345.306 92.36C346.406 91.37 347.726 90.5817 349.266 89.995C350.843 89.3717 352.603 89.06 354.546 89.06C356.233 89.06 357.791 89.28 359.221 89.72C360.651 90.1233 361.898 90.765 362.961 91.645C364.025 92.525 364.85 93.625 365.436 94.945C366.023 96.2283 366.316 97.75 366.316 99.51V117H359.166ZM334.691 117V78.665H341.841V117H334.691ZM399.391 117.605C396.678 117.605 394.203 117.018 391.966 115.845C389.766 114.635 388.006 112.967 386.686 110.84C385.403 108.677 384.761 106.183 384.761 103.36C384.761 100.463 385.421 97.9517 386.741 95.825C388.061 93.6983 389.84 92.0483 392.076 90.875C394.35 89.665 396.916 89.06 399.776 89.06C402.93 89.06 405.46 89.7017 407.366 90.985C409.31 92.2317 410.721 93.9367 411.601 96.1C412.481 98.2633 412.921 100.683 412.921 103.36C412.921 104.973 412.665 106.623 412.151 108.31C411.638 109.96 410.85 111.5 409.786 112.93C408.723 114.323 407.33 115.46 405.606 116.34C403.883 117.183 401.811 117.605 399.391 117.605ZM401.701 112.105C403.865 112.105 405.735 111.738 407.311 111.005C408.888 110.272 410.098 109.245 410.941 107.925C411.785 106.605 412.206 105.083 412.206 103.36C412.206 101.49 411.766 99.9133 410.886 98.63C410.043 97.31 408.833 96.32 407.256 95.66C405.716 94.9633 403.865 94.615 401.701 94.615C398.658 94.615 396.293 95.4217 394.606 97.035C392.92 98.6117 392.076 100.72 392.076 103.36C392.076 105.12 392.48 106.66 393.286 107.98C394.093 109.263 395.211 110.272 396.641 111.005C398.108 111.738 399.795 112.105 401.701 112.105ZM412.206 89.665H419.356V117H412.701C412.701 117 412.646 116.652 412.536 115.955C412.463 115.222 412.39 114.305 412.316 113.205C412.243 112.105 412.206 111.023 412.206 109.96V89.665ZM458.277 106.22C458.094 108.603 457.324 110.657 455.967 112.38C454.647 114.103 452.814 115.423 450.467 116.34C448.121 117.22 445.334 117.66 442.107 117.66C438.734 117.66 435.709 117.128 433.032 116.065C430.392 114.965 428.302 113.37 426.762 111.28C425.259 109.153 424.507 106.532 424.507 103.415C424.507 100.298 425.259 97.6767 426.762 95.55C428.302 93.4233 430.392 91.81 433.032 90.71C435.709 89.61 438.734 89.06 442.107 89.06C445.334 89.06 448.102 89.5183 450.412 90.435C452.722 91.315 454.537 92.5983 455.857 94.285C457.214 95.9717 458.002 98.0067 458.222 100.39H451.677C451.054 98.5567 449.899 97.1267 448.212 96.1C446.526 95.0733 444.491 94.56 442.107 94.56C440.201 94.56 438.459 94.89 436.882 95.55C435.342 96.21 434.096 97.2 433.142 98.52C432.226 99.8033 431.767 101.435 431.767 103.415C431.767 105.358 432.226 106.99 433.142 108.31C434.059 109.593 435.306 110.565 436.882 111.225C438.459 111.848 440.201 112.16 442.107 112.16C444.674 112.16 446.764 111.647 448.377 110.62C450.027 109.593 451.146 108.127 451.732 106.22H458.277ZM495.982 106.22C495.799 108.603 495.029 110.657 493.672 112.38C492.352 114.103 490.519 115.423 488.172 116.34C485.826 117.22 483.039 117.66 479.812 117.66C476.439 117.66 473.414 117.128 470.737 116.065C468.097 114.965 466.007 113.37 464.467 111.28C462.964 109.153 462.212 106.532 462.212 103.415C462.212 100.298 462.964 97.6767 464.467 95.55C466.007 93.4233 468.097 91.81 470.737 90.71C473.414 89.61 476.439 89.06 479.812 89.06C483.039 89.06 485.807 89.5183 488.117 90.435C490.427 91.315 492.242 92.5983 493.562 94.285C494.919 95.9717 495.707 98.0067 495.927 100.39H489.382C488.759 98.5567 487.604 97.1267 485.917 96.1C484.231 95.0733 482.196 94.56 479.812 94.56C477.906 94.56 476.164 94.89 474.587 95.55C473.047 96.21 471.801 97.2 470.847 98.52C469.931 99.8033 469.472 101.435 469.472 103.415C469.472 105.358 469.931 106.99 470.847 108.31C471.764 109.593 473.011 110.565 474.587 111.225C476.164 111.848 477.906 112.16 479.812 112.16C482.379 112.16 484.469 111.647 486.082 110.62C487.732 109.593 488.851 108.127 489.437 106.22H495.982ZM526.153 107.925H533.083C532.789 109.795 532.001 111.463 530.718 112.93C529.471 114.397 527.766 115.552 525.603 116.395C523.439 117.238 520.799 117.66 517.683 117.66C514.199 117.66 511.119 117.11 508.443 116.01C505.766 114.873 503.676 113.242 502.173 111.115C500.669 108.988 499.918 106.422 499.918 103.415C499.918 100.408 500.651 97.8417 502.118 95.715C503.584 93.5517 505.619 91.9017 508.223 90.765C510.863 89.6283 513.943 89.06 517.463 89.06C521.056 89.06 524.044 89.6283 526.428 90.765C528.811 91.9017 530.571 93.625 531.708 95.935C532.881 98.2083 533.376 101.123 533.193 104.68H507.123C507.306 106.073 507.819 107.338 508.663 108.475C509.543 109.612 510.716 110.51 512.183 111.17C513.686 111.83 515.464 112.16 517.518 112.16C519.791 112.16 521.679 111.775 523.183 111.005C524.723 110.198 525.713 109.172 526.153 107.925ZM517.133 94.505C514.493 94.505 512.348 95.0917 510.698 96.265C509.048 97.4017 507.984 98.8133 507.508 100.5H526.098C525.914 98.6667 525.034 97.2183 523.458 96.155C521.918 95.055 519.809 94.505 517.133 94.505ZM537.413 107.925H544.013C544.416 109.172 545.241 110.198 546.488 111.005C547.771 111.775 549.44 112.16 551.493 112.16C552.886 112.16 553.968 112.032 554.738 111.775C555.508 111.518 556.04 111.152 556.333 110.675C556.626 110.162 556.773 109.593 556.773 108.97C556.773 108.2 556.535 107.613 556.058 107.21C555.581 106.77 554.848 106.422 553.858 106.165C552.868 105.908 551.603 105.67 550.063 105.45C548.523 105.193 547.038 104.882 545.608 104.515C544.178 104.148 542.913 103.672 541.813 103.085C540.713 102.462 539.833 101.692 539.173 100.775C538.55 99.8217 538.238 98.6667 538.238 97.31C538.238 95.99 538.55 94.8167 539.173 93.79C539.833 92.7633 540.731 91.9017 541.868 91.205C543.041 90.5083 544.398 89.9767 545.938 89.61C547.515 89.2433 549.201 89.06 550.998 89.06C553.711 89.06 555.966 89.4633 557.763 90.27C559.56 91.04 560.898 92.14 561.778 93.57C562.695 94.9633 563.153 96.5767 563.153 98.41H556.828C556.535 97.0533 555.948 96.0817 555.068 95.495C554.188 94.8717 552.831 94.56 550.998 94.56C549.201 94.56 547.845 94.835 546.928 95.385C546.011 95.935 545.553 96.6867 545.553 97.64C545.553 98.41 545.828 99.015 546.378 99.455C546.965 99.8583 547.808 100.188 548.908 100.445C550.045 100.702 551.456 100.977 553.143 101.27C554.573 101.563 555.93 101.893 557.213 102.26C558.533 102.627 559.706 103.103 560.733 103.69C561.76 104.24 562.566 104.992 563.153 105.945C563.776 106.862 564.088 108.035 564.088 109.465C564.088 111.225 563.575 112.71 562.548 113.92C561.558 115.13 560.128 116.065 558.258 116.725C556.388 117.348 554.151 117.66 551.548 117.66C549.238 117.66 547.24 117.422 545.553 116.945C543.903 116.432 542.528 115.79 541.428 115.02C540.328 114.213 539.466 113.37 538.843 112.49C538.256 111.573 537.853 110.712 537.633 109.905C537.413 109.098 537.34 108.438 537.413 107.925ZM568.458 107.925H575.058C575.461 109.172 576.286 110.198 577.533 111.005C578.816 111.775 580.484 112.16 582.538 112.16C583.931 112.16 585.013 112.032 585.783 111.775C586.553 111.518 587.084 111.152 587.378 110.675C587.671 110.162 587.818 109.593 587.818 108.97C587.818 108.2 587.579 107.613 587.103 107.21C586.626 106.77 585.893 106.422 584.903 106.165C583.913 105.908 582.648 105.67 581.108 105.45C579.568 105.193 578.083 104.882 576.653 104.515C575.223 104.148 573.958 103.672 572.858 103.085C571.758 102.462 570.878 101.692 570.218 100.775C569.594 99.8217 569.283 98.6667 569.283 97.31C569.283 95.99 569.594 94.8167 570.218 93.79C570.878 92.7633 571.776 91.9017 572.913 91.205C574.086 90.5083 575.443 89.9767 576.983 89.61C578.559 89.2433 580.246 89.06 582.043 89.06C584.756 89.06 587.011 89.4633 588.808 90.27C590.604 91.04 591.943 92.14 592.823 93.57C593.739 94.9633 594.198 96.5767 594.198 98.41H587.873C587.579 97.0533 586.993 96.0817 586.113 95.495C585.233 94.8717 583.876 94.56 582.043 94.56C580.246 94.56 578.889 94.835 577.973 95.385C577.056 95.935 576.598 96.6867 576.598 97.64C576.598 98.41 576.873 99.015 577.423 99.455C578.009 99.8583 578.853 100.188 579.953 100.445C581.089 100.702 582.501 100.977 584.188 101.27C585.618 101.563 586.974 101.893 588.258 102.26C589.578 102.627 590.751 103.103 591.778 103.69C592.804 104.24 593.611 104.992 594.198 105.945C594.821 106.862 595.133 108.035 595.133 109.465C595.133 111.225 594.619 112.71 593.593 113.92C592.603 115.13 591.173 116.065 589.303 116.725C587.433 117.348 585.196 117.66 582.593 117.66C580.283 117.66 578.284 117.422 576.598 116.945C574.948 116.432 573.573 115.79 572.473 115.02C571.373 114.213 570.511 113.37 569.888 112.49C569.301 111.573 568.898 110.712 568.678 109.905C568.458 109.098 568.384 108.438 568.458 107.925ZM608.798 77.675V83.945H600.493V77.675H608.798ZM601.043 89.665H608.193V117H601.043V89.665ZM636.385 117.605C633.965 117.605 631.893 117.183 630.17 116.34C628.446 115.46 627.053 114.323 625.99 112.93C624.926 111.5 624.138 109.96 623.625 108.31C623.111 106.623 622.855 104.973 622.855 103.36C622.855 101.343 623.093 99.4733 623.57 97.75C624.083 96.0267 624.871 94.5233 625.935 93.24C626.998 91.92 628.391 90.8933 630.115 90.16C631.838 89.4267 633.928 89.06 636.385 89.06C639.208 89.06 641.701 89.665 643.865 90.875C646.065 92.0483 647.788 93.6983 649.035 95.825C650.318 97.9517 650.96 100.463 650.96 103.36C650.96 106.183 650.318 108.677 649.035 110.84C647.751 112.967 646.01 114.635 643.81 115.845C641.61 117.018 639.135 117.605 636.385 117.605ZM634.075 112.105C636.018 112.105 637.705 111.738 639.135 111.005C640.565 110.272 641.665 109.263 642.435 107.98C643.241 106.66 643.645 105.12 643.645 103.36C643.645 100.72 642.801 98.5933 641.115 96.98C639.465 95.3667 637.118 94.56 634.075 94.56C631.948 94.56 630.096 94.9083 628.52 95.605C626.943 96.3017 625.715 97.31 624.835 98.63C623.991 99.9133 623.57 101.49 623.57 103.36C623.57 105.083 623.991 106.605 624.835 107.925C625.678 109.245 626.888 110.272 628.465 111.005C630.041 111.738 631.911 112.105 634.075 112.105ZM623.57 78.665V109.96C623.57 111.133 623.515 112.398 623.405 113.755C623.295 115.075 623.185 116.157 623.075 117H616.42V78.665H623.57ZM656.797 78.665H663.947V117H656.797V78.665ZM696.094 107.925H703.024C702.731 109.795 701.942 111.463 700.659 112.93C699.412 114.397 697.707 115.552 695.544 116.395C693.381 117.238 690.741 117.66 687.624 117.66C684.141 117.66 681.061 117.11 678.384 116.01C675.707 114.873 673.617 113.242 672.114 111.115C670.611 108.988 669.859 106.422 669.859 103.415C669.859 100.408 670.592 97.8417 672.059 95.715C673.526 93.5517 675.561 91.9017 678.164 90.765C680.804 89.6283 683.884 89.06 687.404 89.06C690.997 89.06 693.986 89.6283 696.369 90.765C698.752 91.9017 700.512 93.625 701.649 95.935C702.822 98.2083 703.317 101.123 703.134 104.68H677.064C677.247 106.073 677.761 107.338 678.604 108.475C679.484 109.612 680.657 110.51 682.124 111.17C683.627 111.83 685.406 112.16 687.459 112.16C689.732 112.16 691.621 111.775 693.124 111.005C694.664 110.198 695.654 109.172 696.094 107.925ZM687.074 94.505C684.434 94.505 682.289 95.0917 680.639 96.265C678.989 97.4017 677.926 98.8133 677.449 100.5H696.039C695.856 98.6667 694.976 97.2183 693.399 96.155C691.859 95.055 689.751 94.505 687.074 94.505ZM325.423 172.22C325.24 174.603 324.47 176.657 323.113 178.38C321.793 180.103 319.96 181.423 317.613 182.34C315.267 183.22 312.48 183.66 309.253 183.66C305.88 183.66 302.855 183.128 300.178 182.065C297.538 180.965 295.448 179.37 293.908 177.28C292.405 175.153 291.653 172.532 291.653 169.415C291.653 166.298 292.405 163.677 293.908 161.55C295.448 159.423 297.538 157.81 300.178 156.71C302.855 155.61 305.88 155.06 309.253 155.06C312.48 155.06 315.248 155.518 317.558 156.435C319.868 157.315 321.683 158.598 323.003 160.285C324.36 161.972 325.148 164.007 325.368 166.39H318.823C318.2 164.557 317.045 163.127 315.358 162.1C313.672 161.073 311.637 160.56 309.253 160.56C307.347 160.56 305.605 160.89 304.028 161.55C302.488 162.21 301.242 163.2 300.288 164.52C299.372 165.803 298.913 167.435 298.913 169.415C298.913 171.358 299.372 172.99 300.288 174.31C301.205 175.593 302.452 176.565 304.028 177.225C305.605 177.848 307.347 178.16 309.253 178.16C311.82 178.16 313.91 177.647 315.523 176.62C317.173 175.593 318.292 174.127 318.878 172.22H325.423ZM330.678 155.665H337.828V183H330.678V155.665ZM348.333 161.55C346.28 161.55 344.502 161.953 342.998 162.76C341.495 163.53 340.285 164.483 339.368 165.62C338.452 166.757 337.81 167.857 337.443 168.92L337.388 165.895C337.425 165.455 337.572 164.813 337.828 163.97C338.085 163.09 338.47 162.155 338.983 161.165C339.497 160.138 340.175 159.167 341.018 158.25C341.862 157.297 342.888 156.527 344.098 155.94C345.308 155.353 346.72 155.06 348.333 155.06V161.55ZM377.669 173.925H384.599C384.305 175.795 383.517 177.463 382.234 178.93C380.987 180.397 379.282 181.552 377.119 182.395C374.955 183.238 372.315 183.66 369.199 183.66C365.715 183.66 362.635 183.11 359.959 182.01C357.282 180.873 355.192 179.242 353.689 177.115C352.185 174.988 351.434 172.422 351.434 169.415C351.434 166.408 352.167 163.842 353.634 161.715C355.1 159.552 357.135 157.902 359.739 156.765C362.379 155.628 365.459 155.06 368.979 155.06C372.572 155.06 375.56 155.628 377.944 156.765C380.327 157.902 382.087 159.625 383.224 161.935C384.397 164.208 384.892 167.123 384.709 170.68H358.639C358.822 172.073 359.335 173.338 360.179 174.475C361.059 175.612 362.232 176.51 363.699 177.17C365.202 177.83 366.98 178.16 369.034 178.16C371.307 178.16 373.195 177.775 374.699 177.005C376.239 176.198 377.229 175.172 377.669 173.925ZM368.649 160.505C366.009 160.505 363.864 161.092 362.214 162.265C360.564 163.402 359.5 164.813 359.024 166.5H377.614C377.43 164.667 376.55 163.218 374.974 162.155C373.434 161.055 371.325 160.505 368.649 160.505ZM403.339 183.605C400.589 183.605 398.096 183.018 395.859 181.845C393.659 180.635 391.917 178.967 390.634 176.84C389.351 174.677 388.709 172.183 388.709 169.36C388.709 166.463 389.332 163.952 390.579 161.825C391.862 159.698 393.604 158.048 395.804 156.875C398.004 155.665 400.516 155.06 403.339 155.06C405.796 155.06 407.886 155.427 409.609 156.16C411.332 156.893 412.726 157.92 413.789 159.24C414.852 160.523 415.622 162.027 416.099 163.75C416.612 165.473 416.869 167.343 416.869 169.36C416.869 170.973 416.612 172.623 416.099 174.31C415.586 175.96 414.797 177.5 413.734 178.93C412.671 180.323 411.277 181.46 409.554 182.34C407.831 183.183 405.759 183.605 403.339 183.605ZM405.649 178.105C407.812 178.105 409.682 177.738 411.259 177.005C412.836 176.272 414.046 175.245 414.889 173.925C415.732 172.605 416.154 171.083 416.154 169.36C416.154 167.49 415.714 165.913 414.834 164.63C413.991 163.31 412.781 162.302 411.204 161.605C409.664 160.908 407.812 160.56 405.649 160.56C402.606 160.56 400.241 161.367 398.554 162.98C396.867 164.593 396.024 166.72 396.024 169.36C396.024 171.12 396.427 172.66 397.234 173.98C398.041 175.263 399.159 176.272 400.589 177.005C402.056 177.738 403.742 178.105 405.649 178.105ZM416.154 144.665H423.304V183H416.649C416.539 182.157 416.429 181.075 416.319 179.755C416.209 178.398 416.154 177.133 416.154 175.96V144.665ZM439.205 143.675V149.945H430.9V143.675H439.205ZM431.45 155.665H438.6V183H431.45V155.665ZM443.802 155.665H465.032V161.22H443.802V155.665ZM450.842 148.185H457.992V183H450.842V148.185ZM476 176.73V183H467.695V176.73H476Z" fill="white"/>
</g>
<defs>
<clipPath id="clip0_3203_31164">
<rect width="769" height="203" fill="white"/>
</clipPath>
</defs>
</svg>
