<svg width="30" height="30" viewBox="0 0 30 30" fill="none" xmlns="http://www.w3.org/2000/svg">
<circle cx="15.1007" cy="15.2878" r="14.6974" fill="#FFFBF0"/>
<g clip-path="url(#clip0_3218_34371)">
<path d="M13.7686 14.8437H15.1007V15.7318H13.7686V14.8437Z" fill="#FFBD00"/>
<path d="M18.8528 13.5871C18.0653 12.2984 16.991 11.2089 15.7135 10.4033C15.1233 10.0293 14.4505 9.80541 13.7539 9.75123C13.0573 9.69705 12.358 9.81422 11.7171 10.0925C11.1565 10.3569 10.6687 10.7538 10.2958 11.249C9.92296 11.7441 9.67619 12.3225 9.57687 12.9343C9.54134 13.143 9.5147 13.3429 9.48806 13.5382C9.07233 13.6056 8.69407 13.8185 8.42078 14.139C8.1475 14.4595 7.99699 14.8666 7.99609 15.2877V18.0097C7.99609 18.2452 8.08966 18.4711 8.2562 18.6377C8.42275 18.8042 8.64864 18.8978 8.88417 18.8978V15.2877C8.88417 15.0522 8.97773 14.8263 9.14428 14.6598C9.31083 14.4932 9.53671 14.3997 9.77224 14.3997H18.0891C18.9449 14.4008 19.7653 14.7413 20.3704 15.3465C20.9756 15.9516 21.316 16.772 21.3172 17.6278V17.952H20.4291C20.2416 17.4947 19.8923 17.1224 19.4478 16.9063C19.0033 16.6901 18.4948 16.6451 18.0192 16.78C17.5437 16.9149 17.1345 17.2201 16.8697 17.6374C16.6048 18.0547 16.5029 18.555 16.5834 19.0426C16.6639 19.5303 16.9211 19.9713 17.3059 20.2814C17.6908 20.5916 18.1764 20.7491 18.67 20.7241C19.1636 20.699 19.6308 20.4931 19.9823 20.1456C20.3338 19.7981 20.545 19.3334 20.5757 18.84H21.3172C21.5528 18.84 21.7786 18.7465 21.9452 18.5799C22.1117 18.4134 22.2053 18.1875 22.2053 17.952V17.6278C22.2035 16.6696 21.8678 15.7419 21.2559 15.0044C20.6441 14.2669 19.7943 13.7657 18.8528 13.5871ZM11.9924 13.5116H10.1852C10.1852 13.3739 10.2252 13.2319 10.2518 13.0676C10.3285 12.5798 10.5287 12.1197 10.8334 11.7311C11.1381 11.3425 11.537 11.0383 11.9924 10.8474V13.5116ZM12.8805 13.5116V10.6609C13.7095 10.5532 14.5502 10.7352 15.2605 11.176C16.2302 11.7799 17.0671 12.5745 17.7205 13.5116H12.8805ZM18.5642 19.8969C18.3446 19.8969 18.13 19.8318 17.9475 19.7098C17.7649 19.5878 17.6226 19.4144 17.5386 19.2116C17.4546 19.0087 17.4326 18.7855 17.4754 18.5702C17.5183 18.3549 17.624 18.1571 17.7792 18.0018C17.9345 17.8466 18.1323 17.7408 18.3476 17.698C18.563 17.6552 18.7862 17.6772 18.989 17.7612C19.1918 17.8452 19.3652 17.9875 19.4872 18.17C19.6092 18.3526 19.6743 18.5672 19.6743 18.7868C19.6743 19.0812 19.5573 19.3635 19.3491 19.5717C19.141 19.7799 18.8586 19.8969 18.5642 19.8969Z" fill="#FFBD00"/>
<path d="M13.3989 17.952C13.2114 17.4947 12.8621 17.1224 12.4176 16.9063C11.9731 16.6901 11.4646 16.6452 10.989 16.78C10.5135 16.9149 10.1043 17.2201 9.83948 17.6374C9.57465 18.0548 9.47274 18.555 9.55321 19.0427C9.63367 19.5303 9.89088 19.9713 10.2757 20.2814C10.6606 20.5916 11.1462 20.7492 11.6398 20.7241C12.1334 20.6991 12.6006 20.4931 12.9521 20.1456C13.3035 19.7981 13.5148 19.3334 13.5455 18.8401H15.8989V18.7291C15.8901 18.4671 15.92 18.2052 15.9877 17.952H13.3989ZM11.5473 19.8969C11.3277 19.8969 11.1131 19.8318 10.9306 19.7098C10.748 19.5878 10.6057 19.4144 10.5217 19.2116C10.4377 19.0088 10.4157 18.7856 10.4585 18.5702C10.5014 18.3549 10.6071 18.1571 10.7623 18.0018C10.9176 17.8466 11.1154 17.7409 11.3307 17.698C11.5461 17.6552 11.7693 17.6772 11.9721 17.7612C12.175 17.8452 12.3483 17.9875 12.4703 18.17C12.5923 18.3526 12.6574 18.5672 12.6574 18.7868C12.6574 19.0812 12.5404 19.3636 12.3323 19.5717C12.1241 19.7799 11.8417 19.8969 11.5473 19.8969Z" fill="#FFBD00"/>
</g>
<defs>
<clipPath id="clip0_3218_34371">
<rect width="15.9854" height="15.9854" fill="white" transform="translate(7.10742 7.2951)"/>
</clipPath>
</defs>
</svg>
