<svg width="577" height="392" viewBox="0 0 577 392" fill="none" xmlns="http://www.w3.org/2000/svg">
<g clip-path="url(#clip0_11264_30741)">
<g filter="url(#filter0_di_11264_30741)">
<path d="M-0.0703125 147.042C-0.0703125 137.514 7.65325 129.79 17.1808 129.79H316.726C326.253 129.79 333.977 137.514 333.977 147.042V201.457C333.977 210.985 326.253 218.708 316.726 218.708H17.1808C7.65326 218.708 -0.0703125 210.985 -0.0703125 201.457V147.042Z" fill="url(#paint0_linear_11264_30741)"/>
<path d="M241.532 58.8311C241.532 49.3036 249.256 41.5801 258.783 41.5801H513.641C523.168 41.5801 530.892 49.3036 530.892 58.8311V113.247C530.892 122.774 523.168 130.498 513.641 130.498H258.783C249.256 130.498 241.532 122.774 241.532 113.247V58.8311Z" fill="url(#paint1_linear_11264_30741)"/>
</g>
<path d="M36.9809 94.0022L41.2037 105.549C41.2916 105.769 41.2696 105.967 41.1377 106.143C41.0057 106.363 40.8298 106.473 40.6098 106.473H24.0486C23.7846 106.473 23.5867 106.363 23.4547 106.143C23.3228 105.967 23.3008 105.769 23.3887 105.549L38.8943 65.9602L37.5747 61.2096C37.5307 61.0336 37.5747 60.8357 37.7067 60.6157C37.8386 60.4398 38.0146 60.3518 38.2345 60.3518H53.6741C53.938 60.3518 54.158 60.5058 54.3339 60.8137L71.8189 105.549C71.9069 105.769 71.8849 105.967 71.7529 106.143C71.621 106.363 71.423 106.473 71.1591 106.473H59.0846C58.7766 106.473 58.5567 106.319 58.4247 106.011L53.7401 94.0022H36.9809ZM38.3005 86.4804H50.7709L44.5687 70.5789L38.3005 86.4804ZM90.172 100.864L92.0195 105.483C92.1074 105.703 92.0854 105.901 91.9535 106.077C91.8215 106.297 91.6456 106.407 91.4256 106.407H76.3819C76.162 106.407 75.986 106.297 75.8541 106.077C75.7221 105.901 75.7001 105.703 75.7881 105.483L77.6356 100.864V68.8634L75.3922 65.1684C75.2602 64.9925 75.2383 64.7945 75.3262 64.5746C75.3702 64.3987 75.5022 64.2667 75.7221 64.1787L78.0315 63.4529L89.2483 60.4178C89.4242 60.3738 89.6222 60.4178 89.8421 60.5498C90.018 60.6817 90.106 60.8577 90.106 61.0776L90.172 100.864ZM111.242 100.864L113.09 105.483C113.178 105.703 113.156 105.901 113.024 106.077C112.892 106.297 112.716 106.407 112.496 106.407H97.4521C97.2322 106.407 97.0562 106.297 96.9242 106.077C96.7923 105.901 96.7703 105.703 96.8583 105.483L98.7057 100.864V68.8634L96.4624 65.1684C96.3304 64.9925 96.3084 64.7945 96.3964 64.5746C96.4404 64.3987 96.5723 64.2667 96.7923 64.1787L99.1016 63.4529L110.318 60.4178C110.494 60.3738 110.692 60.4178 110.912 60.5498C111.088 60.6817 111.176 60.8577 111.176 61.0776L111.242 100.864ZM136.073 68.7314L133.83 65.0365C133.698 64.8605 133.676 64.6626 133.764 64.4426C133.808 64.2667 133.94 64.1347 134.16 64.0468L136.469 63.321L147.686 60.2858C147.862 60.2418 148.06 60.2858 148.28 60.4178C148.456 60.5498 148.544 60.7257 148.544 60.9456V73.4161H157.055C157.539 73.4161 157.781 73.658 157.781 74.1419V82.3895C157.781 82.6535 157.671 82.8514 157.451 82.9834C157.275 83.1153 157.077 83.1373 156.857 83.0493L148.61 79.4864V95.5198C148.61 96.9274 148.852 97.9831 149.335 98.6869C149.863 99.3907 150.523 99.8306 151.315 100.007C152.107 100.138 152.964 100.028 153.888 99.6766C154.856 99.2807 155.78 98.7089 156.659 97.9611C156.879 97.7411 157.121 97.6972 157.385 97.8291C157.649 97.9611 157.781 98.159 157.781 98.423V103.306C157.781 103.525 157.693 103.701 157.517 103.833C155.758 105.241 153.976 106.187 152.173 106.671C150.369 107.154 148.28 107.396 145.904 107.396C142.737 107.396 140.318 106.605 138.647 105.021C136.975 103.394 136.139 100.996 136.139 97.8291L136.073 68.7314ZM184.438 100.864V83.5772C184.438 83.1813 184.372 82.7194 184.241 82.1916C184.153 81.6637 183.911 81.2898 183.515 81.0699C183.251 80.9379 182.921 80.894 182.525 80.9379C182.129 80.9379 181.733 81.0039 181.337 81.1359C180.941 81.2678 180.546 81.4438 180.15 81.6637C179.798 81.8397 179.49 81.9936 179.226 82.1256C178.126 82.7414 177.115 83.4452 176.191 84.237V100.93L178.038 105.549C178.126 105.769 178.104 105.967 177.972 106.143C177.84 106.363 177.664 106.473 177.444 106.473H162.401C162.181 106.473 162.005 106.363 161.873 106.143C161.741 105.967 161.719 105.769 161.807 105.549L163.522 101.26V68.4675L161.411 64.9705C161.279 64.7945 161.257 64.5966 161.345 64.3767C161.389 64.2007 161.521 64.0688 161.741 63.9808L175.333 60.1539C175.509 60.1099 175.707 60.1539 175.927 60.2858C176.103 60.4178 176.191 60.5937 176.191 60.8137V77.5729C176.939 76.9571 177.708 76.3852 178.5 75.8574C179.292 75.2856 180.128 74.7577 181.007 74.2738C182.063 73.658 183.163 73.2401 184.307 73.0202C185.45 72.8003 186.616 72.6903 187.804 72.6903C190.707 72.7343 192.972 73.592 194.6 75.2636C196.227 76.9351 197.041 79.2224 197.041 82.1256V100.93L198.888 105.549C198.976 105.769 198.954 105.967 198.822 106.143C198.69 106.363 198.514 106.473 198.295 106.473H183.251C183.031 106.473 182.855 106.363 182.723 106.143C182.591 105.967 182.569 105.769 182.657 105.549L184.438 100.864ZM215.214 94.2002V94.3981C215.917 96.5535 217.237 98.269 219.172 99.5446C221.108 100.776 223.153 101.546 225.309 101.854C226.012 101.986 226.782 102.052 227.618 102.052C228.894 102.052 230.147 101.898 231.379 101.59C232.655 101.282 233.864 100.82 235.008 100.204C235.316 100.028 235.58 100.094 235.8 100.402C236.02 100.71 236.02 100.996 235.8 101.26C233.908 103.504 231.599 105.087 228.872 106.011C226.188 106.891 223.417 107.33 220.558 107.33C217.919 107.33 215.433 106.957 213.102 106.209C210.815 105.417 208.791 104.295 207.032 102.844C205.316 101.348 203.953 99.5226 202.941 97.3673C201.973 95.2119 201.489 92.7486 201.489 89.9774C201.489 87.2062 201.973 84.7648 202.941 82.6535C203.953 80.4981 205.316 78.6946 207.032 77.243C208.747 75.7474 210.749 74.6257 213.036 73.878C215.324 73.1302 217.787 72.7563 220.426 72.7563C225.353 72.7563 229.136 73.9219 231.775 76.2533C234.458 78.5846 235.954 82.2136 236.262 87.1402C236.262 87.4921 236.108 87.712 235.8 87.8L233.49 88.5258L226.166 90.8351L215.016 94.3321L215.214 94.2002ZM224.583 85.9525C224.627 84.9408 224.517 83.8631 224.253 82.7194C224.033 81.9716 223.725 81.2239 223.329 80.4761C222.977 79.7283 222.515 79.0905 221.944 78.5626C221.416 77.9908 220.778 77.5729 220.03 77.309C219.326 77.0011 218.535 76.9571 217.655 77.177L217.259 77.375C216.379 77.7269 215.697 78.3427 215.214 79.2224C214.73 80.0582 214.378 80.894 214.158 81.7297C213.806 82.9614 213.608 84.237 213.564 85.5566C213.564 86.8762 213.674 88.1739 213.894 89.4495L224.583 85.9525ZM266.995 68.6654C267.435 69.5452 268.007 70.4029 268.711 71.2387C269.459 72.0305 270.184 72.7563 270.888 73.4161H279.796C280.28 73.4161 280.521 73.658 280.521 74.1419V82.3895C280.521 82.6535 280.412 82.8514 280.192 82.9834C280.016 83.1153 279.818 83.1373 279.598 83.0493L271.35 79.4864V100.93L273.198 105.549C273.286 105.769 273.264 105.967 273.132 106.143C273 106.363 272.824 106.473 272.604 106.473H257.56C257.34 106.473 257.164 106.363 257.032 106.143C256.9 105.967 256.878 105.769 256.966 105.549L258.814 100.93V69.9851C258.814 68.1376 259.166 66.576 259.869 65.3004C260.573 63.9808 261.497 62.9251 262.641 62.1333C263.828 61.2975 265.17 60.7257 266.665 60.4178C268.205 60.0659 269.789 59.9119 271.416 59.9559C272.868 60.0439 274.407 60.3078 276.035 60.7477C277.706 61.1436 279.114 61.8034 280.258 62.7271C280.434 62.8591 280.521 63.0351 280.521 63.255V71.3047C280.521 71.5686 280.39 71.7666 280.126 71.8985C279.862 72.0305 279.62 71.9865 279.4 71.7666C278.212 70.7109 276.893 69.6991 275.441 68.7314C273.989 67.7197 272.494 66.9499 270.954 66.4221C270.734 66.3341 270.426 66.2461 270.03 66.1582C269.635 66.0262 269.217 65.9602 268.777 65.9602C268.381 65.9162 267.985 65.9162 267.589 65.9602C267.237 66.0042 266.973 66.1582 266.797 66.4221C266.577 66.73 266.533 67.1259 266.665 67.6097C266.797 68.0496 266.929 68.4235 267.061 68.7314L266.995 68.6654ZM299.008 96.5095C299.008 96.9054 299.052 97.3673 299.14 97.8951C299.272 98.423 299.536 98.7968 299.932 99.0168C300.196 99.1487 300.526 99.2147 300.922 99.2147C301.317 99.1707 301.713 99.0828 302.109 98.9508C302.505 98.8188 302.879 98.6649 303.231 98.4889C303.627 98.269 303.957 98.093 304.221 97.9611C304.748 97.6532 305.276 97.3233 305.804 96.9714C306.376 96.6195 306.904 96.2456 307.388 95.8497V82.1256L305.144 78.4307C305.012 78.2547 304.99 78.0568 305.078 77.8368C305.122 77.6609 305.254 77.5289 305.474 77.4409L307.784 76.7151L319 73.68C319.176 73.636 319.374 73.68 319.594 73.812C319.77 73.9439 319.858 74.1199 319.858 74.3398V101.128L321.706 105.747C321.794 105.967 321.772 106.165 321.64 106.341C321.508 106.561 321.332 106.671 321.112 106.671H307.85C307.366 106.671 307.124 106.429 307.124 105.945V102.448C306.376 103.064 305.606 103.657 304.814 104.229C304.023 104.757 303.187 105.263 302.307 105.747C301.295 106.319 300.218 106.715 299.074 106.935C297.974 107.154 296.853 107.264 295.709 107.264C292.806 107.264 290.518 106.429 288.847 104.757C287.175 103.042 286.34 100.71 286.34 97.7631V81.9277L284.096 78.2327C283.964 78.0568 283.942 77.8588 284.03 77.6389C284.074 77.4629 284.206 77.331 284.426 77.243L286.736 76.5172L297.952 73.4821C298.128 73.4381 298.326 73.4821 298.546 73.614C298.722 73.746 298.81 73.9219 298.81 74.1419V84.5009V94.728L299.008 96.5095ZM348.296 100.798V83.5112C348.296 83.1153 348.23 82.6535 348.098 82.1256C348.01 81.5978 347.768 81.2239 347.372 81.0039C347.108 80.872 346.778 80.828 346.383 80.872C345.987 80.872 345.591 80.9379 345.195 81.0699C344.799 81.2019 344.403 81.3778 344.007 81.5978C343.655 81.7737 343.347 81.9277 343.083 82.0596C341.984 82.6754 340.972 83.3792 340.048 84.171V100.864L341.896 105.483C341.984 105.703 341.962 105.901 341.83 106.077C341.698 106.297 341.522 106.407 341.302 106.407H326.258C326.038 106.407 325.862 106.297 325.73 106.077C325.598 105.901 325.576 105.703 325.664 105.483L327.38 101.194V81.7297L325.269 78.2327C325.137 78.0568 325.115 77.8588 325.203 77.6389C325.247 77.4629 325.379 77.331 325.598 77.243L339.191 73.4161C339.367 73.3721 339.564 73.4161 339.784 73.5481C339.96 73.68 340.048 73.856 340.048 74.0759V77.5729C340.796 76.9571 341.566 76.3852 342.358 75.8574C343.149 75.2856 343.985 74.7577 344.865 74.2738C345.921 73.658 347.02 73.2401 348.164 73.0202C349.308 72.8003 350.473 72.6903 351.661 72.6903C354.564 72.7343 356.83 73.592 358.457 75.2636C360.085 76.9351 360.898 79.2224 360.898 82.1256V100.93L362.746 105.549C362.834 105.769 362.812 105.967 362.68 106.143C362.548 106.363 362.372 106.473 362.152 106.473H347.108C346.888 106.473 346.712 106.363 346.58 106.143C346.449 105.967 346.427 105.769 346.515 105.549L348.296 100.798ZM391.87 68.9954L389.627 65.3004C389.495 65.1245 389.473 64.9265 389.561 64.7066C389.605 64.5306 389.736 64.3987 389.956 64.3107L392.266 63.5849L403.483 60.5498C403.659 60.5058 403.856 60.5498 404.076 60.6817C404.252 60.8137 404.34 60.9896 404.34 61.2096V101.062L406.188 105.681C406.276 105.901 406.254 106.099 406.122 106.275C405.99 106.495 405.814 106.605 405.594 106.605H392.464C391.98 106.605 391.738 106.363 391.738 105.879V103.24C390.858 104.075 389.912 104.801 388.901 105.417C387.889 106.033 386.789 106.495 385.602 106.803C383.138 107.462 380.631 107.44 378.08 106.737C376.232 106.209 374.517 105.395 372.933 104.295C371.394 103.152 370.052 101.832 368.908 100.336C367.809 98.7968 366.929 97.1253 366.269 95.3218C365.653 93.4744 365.345 91.5829 365.345 89.6475C365.345 87.624 365.631 85.6886 366.203 83.8411C366.819 81.9497 367.765 80.2341 369.04 78.6946C371.372 75.8354 374.319 73.9659 377.882 73.0862C379.377 72.7783 380.895 72.6463 382.435 72.6903C384.238 72.7783 385.91 73.1082 387.449 73.68C388.989 74.2079 390.418 75.0436 391.738 76.1873L391.87 68.9954ZM391.078 94.926C391.43 93.6943 391.584 92.4187 391.54 91.099C391.54 89.7794 391.386 88.5038 391.078 87.2721C390.726 85.9085 390.22 84.5669 389.561 83.2473C388.945 81.9277 388.087 80.828 386.987 79.9482C386.239 79.3324 385.404 78.8925 384.48 78.6286C383.6 78.3207 382.698 78.2987 381.775 78.5626C380.939 78.7826 380.235 79.2224 379.663 79.8822C379.136 80.4981 378.718 81.2019 378.41 81.9936C377.926 83.2693 377.728 84.6549 377.816 86.1505C377.904 87.646 378.102 89.0536 378.41 90.3732C378.718 91.6049 379.136 92.8146 379.663 94.0022C380.191 95.1899 380.895 96.2456 381.775 97.1693C382.391 97.8291 383.094 98.423 383.886 98.9508C384.678 99.4347 385.536 99.6546 386.459 99.6106C386.635 99.6106 386.899 99.5666 387.251 99.4787C387.603 99.3907 387.867 99.3027 388.043 99.2147C388.923 98.8628 389.605 98.291 390.088 97.4992C390.616 96.7074 391.012 95.8717 391.276 94.9919L391.078 94.926ZM426.371 105.483C426.459 105.703 426.437 105.901 426.305 106.077C426.173 106.297 425.997 106.407 425.777 106.407H410.734C410.514 106.407 410.338 106.297 410.206 106.077C410.074 105.901 410.052 105.703 410.14 105.483L411.987 100.864V81.9277L409.744 78.2327C409.612 78.0568 409.59 77.8588 409.678 77.6389C409.722 77.4629 409.854 77.331 410.074 77.243L412.383 76.5172L423.6 73.4821C423.776 73.4381 423.974 73.4821 424.194 73.614C424.37 73.746 424.458 73.9219 424.458 74.1419V100.93L426.371 105.483ZM411.196 64.6406C411.196 63.7169 411.372 62.8591 411.723 62.0673C412.075 61.2316 412.559 60.5058 413.175 59.8899C413.791 59.2741 414.495 58.7903 415.286 58.4384C416.122 58.0865 417.002 57.9105 417.926 57.9105H417.992H418.058C418.981 57.9105 419.839 58.0865 420.631 58.4384C421.467 58.7903 422.193 59.2741 422.808 59.8899C423.424 60.5058 423.908 61.2316 424.26 62.0673C424.612 62.8591 424.788 63.7169 424.788 64.6406C424.788 65.5643 424.612 66.4441 424.26 67.2798C423.908 68.0716 423.424 68.7754 422.808 69.3912C422.236 70.0071 421.533 70.4909 420.697 70.8428C419.905 71.1947 419.047 71.3707 418.124 71.3707H418.058H417.992C417.068 71.3707 416.188 71.1947 415.352 70.8428C414.561 70.4909 413.857 70.0071 413.241 69.3912C412.625 68.7754 412.141 68.0716 411.789 67.2798C411.438 66.4441 411.262 65.5643 411.262 64.6406H411.196ZM452.938 100.798V83.5112C452.938 83.1153 452.872 82.6535 452.74 82.1256C452.652 81.5978 452.41 81.2239 452.014 81.0039C451.75 80.872 451.42 80.828 451.025 80.872C450.629 80.872 450.233 80.9379 449.837 81.0699C449.441 81.2019 449.045 81.3778 448.649 81.5978C448.297 81.7737 447.989 81.9277 447.726 82.0596C446.626 82.6754 445.614 83.3792 444.69 84.171V100.864L446.538 105.483C446.626 105.703 446.604 105.901 446.472 106.077C446.34 106.297 446.164 106.407 445.944 106.407H430.9C430.68 106.407 430.504 106.297 430.372 106.077C430.241 105.901 430.219 105.703 430.306 105.483L432.022 101.194V81.7297L429.911 78.2327C429.779 78.0568 429.757 77.8588 429.845 77.6389C429.889 77.4629 430.021 77.331 430.241 77.243L443.833 73.4161C444.009 73.3721 444.207 73.4161 444.426 73.5481C444.602 73.68 444.69 73.856 444.69 74.0759V77.5729C445.438 76.9571 446.208 76.3852 447 75.8574C447.791 75.2856 448.627 74.7577 449.507 74.2738C450.563 73.658 451.662 73.2401 452.806 73.0202C453.95 72.8003 455.115 72.6903 456.303 72.6903C459.206 72.7343 461.472 73.592 463.099 75.2636C464.727 76.9351 465.54 79.2224 465.54 82.1256V100.93L467.388 105.549C467.476 105.769 467.454 105.967 467.322 106.143C467.19 106.363 467.014 106.473 466.794 106.473H451.75C451.53 106.473 451.354 106.363 451.223 106.143C451.091 105.967 451.069 105.769 451.157 105.549L452.938 100.798ZM504.538 119.999C504.406 119.999 504.274 119.933 504.142 119.801V119.669V119.471C504.142 119.295 504.164 119.163 504.208 119.075C504.604 118.503 504.78 117.953 504.736 117.426C504.736 116.942 504.56 116.524 504.208 116.172C503.901 115.864 503.417 115.666 502.757 115.578C502.097 115.49 501.349 115.578 500.514 115.842C499.502 116.15 498.226 116.502 496.687 116.898C495.147 117.338 493.542 117.733 491.87 118.085C490.242 118.481 488.659 118.811 487.119 119.075C485.58 119.339 484.282 119.471 483.226 119.471C481.995 119.471 480.785 119.361 479.597 119.141C478.41 118.965 477.288 118.635 476.232 118.151C475.221 117.711 474.275 117.096 473.395 116.304C472.56 115.512 471.878 114.544 471.35 113.401C470.69 111.993 470.404 110.52 470.492 108.98C470.624 107.44 471.02 105.989 471.68 104.625C472.34 103.218 473.175 101.986 474.187 100.93C475.243 99.8306 476.342 99.0388 477.486 98.5549C475.595 97.2353 474.143 95.6737 473.131 93.8703C472.12 92.0668 471.526 90.2193 471.35 88.3278C471.218 86.3924 471.526 84.5009 472.274 82.6535C473.021 80.762 474.187 79.0905 475.771 77.6389C477.354 76.1433 479.356 74.9337 481.775 74.0099C484.238 73.0862 487.119 72.6243 490.418 72.6243C492.046 72.6243 493.651 72.7563 495.235 73.0202C496.863 73.2841 498.424 73.724 499.92 74.3398C500.58 72.8003 501.415 71.3707 502.427 70.051C503.483 68.7314 504.758 67.6317 506.254 66.752C506.43 66.664 506.606 66.642 506.782 66.686C507.002 66.73 507.156 66.84 507.244 67.0159L511.005 75.1316C511.093 75.3515 511.071 75.5495 510.939 75.7254C510.851 75.9014 510.697 76.0113 510.477 76.0553C509.597 76.1433 508.695 76.3193 507.771 76.5832C506.848 76.8031 505.99 77.133 505.198 77.5729C506.43 78.7166 507.42 80.0142 508.167 81.4658C508.915 82.8734 509.377 84.347 509.553 85.8865C509.729 87.4261 509.619 88.9876 509.223 90.5712C508.871 92.1108 508.211 93.5623 507.244 94.926C505.88 96.8614 504.208 98.357 502.229 99.4127C500.25 100.468 498.138 101.238 495.895 101.722C494.839 101.942 493.805 102.074 492.794 102.118C491.782 102.162 490.77 102.206 489.759 102.25C488.747 102.25 487.713 102.294 486.657 102.382C485.646 102.426 484.612 102.58 483.556 102.844C482.545 103.064 481.819 103.525 481.379 104.229C480.983 104.889 480.829 105.571 480.917 106.275C481.049 106.979 481.445 107.55 482.105 107.99C482.765 108.43 483.666 108.54 484.81 108.32C485.778 108.144 486.899 107.88 488.175 107.528C489.495 107.22 490.858 106.891 492.266 106.539C493.673 106.187 495.081 105.835 496.489 105.483C497.896 105.131 499.194 104.845 500.382 104.625C502.889 104.141 505.022 104.317 506.782 105.153C508.541 105.945 509.861 107.11 510.741 108.65C511.664 110.19 512.126 111.927 512.126 113.863C512.17 115.842 511.708 117.755 510.741 119.603C510.609 119.867 510.433 119.999 510.213 119.999C510.037 120.043 509.751 120.065 509.355 120.065H505.132L504.538 119.999ZM496.159 86.2824C495.807 85.0948 495.323 83.9511 494.707 82.8514C494.091 81.7077 493.344 80.696 492.464 79.8163C491.804 79.2004 491.034 78.6726 490.154 78.2327C489.319 77.7928 488.439 77.6389 487.515 77.7708C486.504 77.9468 485.69 78.4307 485.074 79.2224C484.502 80.0142 484.106 80.894 483.886 81.8617C483.622 82.8734 483.512 83.9071 483.556 84.9628C483.644 85.9745 483.82 86.9862 484.084 87.9979C484.436 89.1856 484.92 90.3513 485.536 91.4949C486.152 92.5946 486.899 93.5843 487.779 94.4641C488.615 95.2998 489.473 95.8937 490.352 96.2456C491.276 96.5535 492.134 96.6415 492.926 96.5095C493.717 96.3335 494.421 95.9157 495.037 95.2559C495.653 94.596 496.115 93.6723 496.423 92.4846C496.687 91.4729 496.775 90.4612 496.687 89.4495C496.643 88.3938 496.489 87.3601 496.225 86.3484L496.159 86.2824ZM45.7564 182.52L49.2534 161.01C49.3413 160.614 49.5613 160.416 49.9132 160.416H60.866C61.086 160.416 61.2619 160.526 61.3939 160.746C61.5259 160.922 61.5479 161.12 61.4599 161.34L44.5027 200.137C43.403 202.644 41.9734 204.382 40.2139 205.349C38.4984 206.317 36.1891 206.757 33.2859 206.669C32.846 206.669 32.2522 206.603 31.5044 206.471C30.7566 206.339 29.9869 206.163 29.1951 205.943C28.4033 205.767 27.6335 205.547 26.8857 205.283C26.1819 205.063 25.6761 204.821 25.3682 204.557C25.1043 204.382 25.0163 204.14 25.1043 203.832L27.6775 195.914L28.1394 194.594C28.2274 194.374 28.3813 194.22 28.6013 194.132C28.8212 194.044 29.0191 194.088 29.1951 194.264C29.591 194.66 30.1848 195.232 30.9766 195.98C31.7684 196.728 32.6041 197.432 33.4839 198.091C34.4076 198.751 35.3093 199.235 36.1891 199.543C37.0688 199.851 37.8166 199.763 38.4324 199.279C38.9603 198.883 39.2682 198.421 39.3562 197.893C39.4881 197.366 39.4881 196.838 39.3562 196.31C39.2682 195.782 39.0923 195.254 38.8283 194.726C38.5644 194.198 38.3445 193.693 38.1685 193.209C37.5527 191.801 36.8049 190.174 35.9252 188.326C35.0894 186.435 34.2536 184.609 33.4179 182.85C32.5821 181.09 31.8123 179.507 31.1085 178.099C30.4487 176.647 29.9869 175.636 29.7229 175.064L23.4547 161.472C23.3667 161.252 23.3887 161.032 23.5207 160.812C23.6527 160.592 23.8286 160.482 24.0486 160.482H37.0468C37.1788 160.482 37.3108 160.526 37.4427 160.614C37.5747 160.658 37.6407 160.746 37.6407 160.878L37.5087 163.649L45.7564 182.52ZM81.1826 194.264C78.5433 194.264 76.058 193.891 73.7267 193.143C71.4394 192.351 69.4159 191.229 67.6564 189.778C65.9409 188.282 64.5773 186.457 63.5656 184.301C62.5979 182.146 62.114 179.683 62.114 176.911C62.114 174.14 62.6199 171.699 63.6316 169.587C64.6433 167.432 66.0069 165.629 67.7224 164.177C69.4379 162.681 71.4394 161.56 73.7267 160.812C76.058 160.064 78.5433 159.69 81.1826 159.69C83.8218 159.69 86.3071 160.064 88.6384 160.812C90.9698 161.56 92.9932 162.681 94.7087 164.177C96.4242 165.629 97.7878 167.432 98.7995 169.587C99.8113 171.743 100.317 174.206 100.317 176.977C100.317 179.749 99.8113 182.212 98.7995 184.367C97.7878 186.523 96.4242 188.348 94.7087 189.844C92.9932 191.295 90.9698 192.395 88.6384 193.143C86.3071 193.891 83.8218 194.264 81.1826 194.264ZM83.4919 166.882C82.8761 166.134 82.0843 165.475 81.1166 164.903C80.1929 164.287 79.2251 164.089 78.2134 164.309C77.2017 164.529 76.4099 165.123 75.8381 166.09C75.2663 167.058 74.8704 168.004 74.6504 168.928C74.2546 170.467 74.1006 172.073 74.1886 173.744C74.2765 175.372 74.4965 176.955 74.8484 178.495C75.2003 180.034 75.7281 181.574 76.4319 183.114C77.1357 184.609 77.9935 185.951 79.0052 187.138C79.621 187.886 80.3908 188.568 81.3145 189.184C82.2823 189.756 83.272 189.932 84.2837 189.712C85.2954 189.492 86.0872 188.898 86.659 187.93C87.2309 186.963 87.6267 186.017 87.8467 185.093C88.2426 183.553 88.3965 181.97 88.3085 180.342C88.2206 178.671 88.0006 177.065 87.6487 175.526C87.2968 173.986 86.769 172.469 86.0652 170.973C85.3614 169.434 84.5036 168.07 83.4919 166.882ZM118.011 183.509C118.011 183.905 118.055 184.367 118.143 184.895C118.275 185.423 118.539 185.797 118.935 186.017C119.199 186.149 119.528 186.215 119.924 186.215C120.32 186.171 120.716 186.083 121.112 185.951C121.508 185.819 121.882 185.665 122.234 185.489C122.63 185.269 122.959 185.093 123.223 184.961C123.751 184.653 124.279 184.323 124.807 183.971C125.379 183.619 125.907 183.246 126.391 182.85V169.126L124.147 165.431C124.015 165.255 123.993 165.057 124.081 164.837C124.125 164.661 124.257 164.529 124.477 164.441L126.786 163.715L138.003 160.68C138.179 160.636 138.377 160.68 138.597 160.812C138.773 160.944 138.861 161.12 138.861 161.34V188.128L140.708 192.747C140.796 192.967 140.774 193.165 140.642 193.341C140.51 193.561 140.335 193.671 140.115 193.671H126.852C126.369 193.671 126.127 193.429 126.127 192.945V189.448C125.379 190.064 124.609 190.657 123.817 191.229C123.025 191.757 122.19 192.263 121.31 192.747C120.298 193.319 119.221 193.715 118.077 193.935C116.977 194.154 115.856 194.264 114.712 194.264C111.809 194.264 109.521 193.429 107.85 191.757C106.178 190.042 105.343 187.71 105.343 184.763V168.928L103.099 165.233C102.967 165.057 102.945 164.859 103.033 164.639C103.077 164.463 103.209 164.331 103.429 164.243L105.738 163.517L116.955 160.482C117.131 160.438 117.329 160.482 117.549 160.614C117.725 160.746 117.813 160.922 117.813 161.142V171.501V181.728L118.011 183.509ZM184.632 187.798V170.511C184.632 170.115 184.566 169.653 184.434 169.126C184.346 168.598 184.104 168.224 183.708 168.004C183.444 167.872 183.114 167.828 182.718 167.872C182.322 167.872 181.927 167.938 181.531 168.07C181.135 168.202 180.739 168.378 180.343 168.598C179.991 168.774 179.683 168.928 179.419 169.06C178.32 169.675 177.308 170.379 176.384 171.171V187.864L178.232 192.483C178.32 192.703 178.298 192.901 178.166 193.077C178.034 193.297 177.858 193.407 177.638 193.407H162.594C162.374 193.407 162.198 193.297 162.066 193.077C161.934 192.901 161.912 192.703 162 192.483L163.716 188.194V168.73L161.604 165.233C161.472 165.057 161.45 164.859 161.538 164.639C161.582 164.463 161.714 164.331 161.934 164.243L175.526 160.416C175.702 160.372 175.9 160.416 176.12 160.548C176.296 160.68 176.384 160.856 176.384 161.076V164.573C177.132 163.957 177.902 163.385 178.693 162.857C179.485 162.286 180.321 161.758 181.201 161.274C182.256 160.658 183.356 160.24 184.5 160.02C185.643 159.8 186.809 159.69 187.997 159.69C190.9 159.734 193.165 160.592 194.793 162.264C196.42 163.935 197.234 166.222 197.234 169.126V187.93L199.082 192.549C199.17 192.769 199.148 192.967 199.016 193.143C198.884 193.363 198.708 193.473 198.488 193.473H183.444C183.224 193.473 183.048 193.363 182.916 193.143C182.784 192.967 182.762 192.769 182.85 192.549L184.632 187.798ZM215.471 181.2V181.398C216.175 183.553 217.495 185.269 219.43 186.545C221.366 187.776 223.411 188.546 225.566 188.854C226.27 188.986 227.04 189.052 227.876 189.052C229.151 189.052 230.405 188.898 231.637 188.59C232.912 188.282 234.122 187.82 235.266 187.204C235.574 187.028 235.837 187.094 236.057 187.402C236.277 187.71 236.277 187.996 236.057 188.26C234.166 190.504 231.857 192.087 229.129 193.011C226.446 193.891 223.675 194.33 220.816 194.33C218.177 194.33 215.691 193.957 213.36 193.209C211.073 192.417 209.049 191.295 207.29 189.844C205.574 188.348 204.21 186.523 203.199 184.367C202.231 182.212 201.747 179.749 201.747 176.977C201.747 174.206 202.231 171.765 203.199 169.653C204.21 167.498 205.574 165.695 207.29 164.243C209.005 162.747 211.007 161.626 213.294 160.878C215.581 160.13 218.045 159.756 220.684 159.756C225.61 159.756 229.393 160.922 232.033 163.253C234.716 165.585 236.211 169.214 236.519 174.14C236.519 174.492 236.365 174.712 236.057 174.8L233.748 175.526L226.424 177.835L215.273 181.332L215.471 181.2ZM224.841 172.953C224.885 171.941 224.775 170.863 224.511 169.719C224.291 168.972 223.983 168.224 223.587 167.476C223.235 166.728 222.773 166.09 222.201 165.563C221.674 164.991 221.036 164.573 220.288 164.309C219.584 164.001 218.792 163.957 217.913 164.177L217.517 164.375C216.637 164.727 215.955 165.343 215.471 166.222C214.987 167.058 214.636 167.894 214.416 168.73C214.064 169.961 213.866 171.237 213.822 172.557C213.822 173.876 213.932 175.174 214.152 176.45L224.841 172.953ZM253.681 181.2V181.398C254.385 183.553 255.704 185.269 257.64 186.545C259.575 187.776 261.621 188.546 263.776 188.854C264.48 188.986 265.25 189.052 266.086 189.052C267.361 189.052 268.615 188.898 269.846 188.59C271.122 188.282 272.332 187.82 273.475 187.204C273.783 187.028 274.047 187.094 274.267 187.402C274.487 187.71 274.487 187.996 274.267 188.26C272.376 190.504 270.066 192.087 267.339 193.011C264.656 193.891 261.885 194.33 259.026 194.33C256.386 194.33 253.901 193.957 251.57 193.209C249.282 192.417 247.259 191.295 245.499 189.844C243.784 188.348 242.42 186.523 241.409 184.367C240.441 182.212 239.957 179.749 239.957 176.977C239.957 174.206 240.441 171.765 241.409 169.653C242.42 167.498 243.784 165.695 245.499 164.243C247.215 162.747 249.216 161.626 251.504 160.878C253.791 160.13 256.254 159.756 258.894 159.756C263.82 159.756 267.603 160.922 270.242 163.253C272.926 165.585 274.421 169.214 274.729 174.14C274.729 174.492 274.575 174.712 274.267 174.8L271.958 175.526L264.634 177.835L253.483 181.332L253.681 181.2ZM263.05 172.953C263.094 171.941 262.984 170.863 262.72 169.719C262.501 168.972 262.193 168.224 261.797 167.476C261.445 166.728 260.983 166.09 260.411 165.563C259.883 164.991 259.245 164.573 258.498 164.309C257.794 164.001 257.002 163.957 256.122 164.177L255.726 164.375C254.847 164.727 254.165 165.343 253.681 166.222C253.197 167.058 252.845 167.894 252.625 168.73C252.273 169.961 252.076 171.237 252.032 172.557C252.032 173.876 252.142 175.174 252.361 176.45L263.05 172.953ZM304.69 155.995L302.446 152.3C302.314 152.124 302.292 151.927 302.38 151.707C302.424 151.531 302.556 151.399 302.776 151.311L305.086 150.585L316.302 147.55C316.478 147.506 316.676 147.55 316.896 147.682C317.072 147.814 317.16 147.99 317.16 148.21V188.062L319.008 192.681C319.096 192.901 319.074 193.099 318.942 193.275C318.81 193.495 318.634 193.605 318.414 193.605H305.283C304.8 193.605 304.558 193.363 304.558 192.879V190.24C303.678 191.075 302.732 191.801 301.721 192.417C300.709 193.033 299.609 193.495 298.421 193.803C295.958 194.462 293.451 194.44 290.9 193.737C289.052 193.209 287.337 192.395 285.753 191.295C284.214 190.152 282.872 188.832 281.728 187.336C280.629 185.797 279.749 184.125 279.089 182.322C278.473 180.474 278.165 178.583 278.165 176.647C278.165 174.624 278.451 172.689 279.023 170.841C279.639 168.95 280.585 167.234 281.86 165.695C284.192 162.835 287.139 160.966 290.702 160.086C292.197 159.778 293.715 159.646 295.254 159.69C297.058 159.778 298.729 160.108 300.269 160.68C301.808 161.208 303.238 162.044 304.558 163.187L304.69 155.995ZM303.898 181.926C304.25 180.694 304.404 179.419 304.36 178.099C304.36 176.779 304.206 175.504 303.898 174.272C303.546 172.909 303.04 171.567 302.38 170.247C301.764 168.928 300.907 167.828 299.807 166.948C299.059 166.332 298.224 165.893 297.3 165.629C296.42 165.321 295.518 165.299 294.595 165.563C293.759 165.783 293.055 166.222 292.483 166.882C291.955 167.498 291.537 168.202 291.23 168.994C290.746 170.269 290.548 171.655 290.636 173.15C290.724 174.646 290.922 176.054 291.23 177.373C291.537 178.605 291.955 179.815 292.483 181.002C293.011 182.19 293.715 183.246 294.595 184.169C295.21 184.829 295.914 185.423 296.706 185.951C297.498 186.435 298.355 186.655 299.279 186.611C299.455 186.611 299.719 186.567 300.071 186.479C300.423 186.391 300.687 186.303 300.863 186.215C301.743 185.863 302.424 185.291 302.908 184.499C303.436 183.707 303.832 182.872 304.096 181.992L303.898 181.926ZM341.942 155.731L339.699 152.036C339.567 151.861 339.545 151.663 339.633 151.443C339.677 151.267 339.809 151.135 340.029 151.047L342.338 150.321L353.555 147.286C353.731 147.242 353.929 147.286 354.149 147.418C354.325 147.55 354.413 147.726 354.413 147.946V160.416H362.924C363.408 160.416 363.65 160.658 363.65 161.142V169.39C363.65 169.653 363.54 169.851 363.32 169.983C363.144 170.115 362.946 170.137 362.726 170.049L354.479 166.486V182.52C354.479 183.927 354.721 184.983 355.204 185.687C355.732 186.391 356.392 186.831 357.184 187.007C357.976 187.138 358.833 187.028 359.757 186.677C360.725 186.281 361.649 185.709 362.528 184.961C362.748 184.741 362.99 184.697 363.254 184.829C363.518 184.961 363.65 185.159 363.65 185.423V190.306C363.65 190.525 363.562 190.701 363.386 190.833C361.627 192.241 359.845 193.187 358.042 193.671C356.238 194.154 354.149 194.396 351.773 194.396C348.606 194.396 346.187 193.605 344.515 192.021C342.844 190.394 342.008 187.996 342.008 184.829L341.942 155.731ZM387.054 194.264C384.415 194.264 381.93 193.891 379.598 193.143C377.311 192.351 375.288 191.229 373.528 189.778C371.813 188.282 370.449 186.457 369.437 184.301C368.47 182.146 367.986 179.683 367.986 176.911C367.986 174.14 368.492 171.699 369.503 169.587C370.515 167.432 371.879 165.629 373.594 164.177C375.31 162.681 377.311 161.56 379.598 160.812C381.93 160.064 384.415 159.69 387.054 159.69C389.694 159.69 392.179 160.064 394.51 160.812C396.841 161.56 398.865 162.681 400.58 164.177C402.296 165.629 403.66 167.432 404.671 169.587C405.683 171.743 406.189 174.206 406.189 176.977C406.189 179.749 405.683 182.212 404.671 184.367C403.66 186.523 402.296 188.348 400.58 189.844C398.865 191.295 396.841 192.395 394.51 193.143C392.179 193.891 389.694 194.264 387.054 194.264ZM389.364 166.882C388.748 166.134 387.956 165.475 386.988 164.903C386.065 164.287 385.097 164.089 384.085 164.309C383.073 164.529 382.282 165.123 381.71 166.09C381.138 167.058 380.742 168.004 380.522 168.928C380.126 170.467 379.972 172.073 380.06 173.744C380.148 175.372 380.368 176.955 380.72 178.495C381.072 180.034 381.6 181.574 382.304 183.114C383.007 184.609 383.865 185.951 384.877 187.138C385.493 187.886 386.263 188.568 387.186 189.184C388.154 189.756 389.144 189.932 390.155 189.712C391.167 189.492 391.959 188.898 392.531 187.93C393.103 186.963 393.498 186.017 393.718 185.093C394.114 183.553 394.268 181.97 394.18 180.342C394.092 178.671 393.872 177.065 393.52 175.526C393.169 173.986 392.641 172.469 391.937 170.973C391.233 169.434 390.375 168.07 389.364 166.882ZM56.6433 251.969C56.6433 252.145 56.5773 252.299 56.4453 252.431L48.6595 259.095C48.4396 259.227 48.2417 259.271 48.0657 259.227C47.8458 259.183 47.7138 259.051 47.6698 258.831C47.186 257.599 46.6141 256.456 45.9543 255.4C45.6464 254.916 45.2505 254.388 44.7666 253.816C44.3268 253.244 43.8209 252.739 43.2491 252.299C42.6772 251.859 42.0614 251.529 41.4016 251.309C40.7418 251.045 40.082 251.001 39.4222 251.177C38.5424 251.397 37.8166 251.925 37.2448 252.761C36.7169 253.552 36.3211 254.344 36.0571 255.136C35.6612 256.412 35.4193 257.753 35.3313 259.161C35.2873 260.524 35.3753 261.844 35.5953 263.12C35.8592 264.703 36.2771 266.221 36.8489 267.672C37.4647 269.08 38.2565 270.356 39.2242 271.499C40.1919 272.599 41.3356 273.523 42.6552 274.27C43.9749 274.974 45.4704 275.458 47.142 275.722C47.8458 275.854 48.6155 275.92 49.4513 275.92C50.7269 275.92 51.9806 275.766 53.2122 275.458C54.4879 275.15 55.6975 274.688 56.8412 274.072C57.1491 273.897 57.413 273.963 57.633 274.27C57.8529 274.578 57.8529 274.864 57.633 275.128C55.7415 277.372 53.4322 278.955 50.7049 279.879C48.0217 280.759 45.2505 281.198 42.3913 281.198C39.7521 281.198 37.2668 280.825 34.9354 280.077C32.6481 279.285 30.6247 278.163 28.8652 276.712C27.1497 275.216 25.7861 273.391 24.7743 271.235C23.8066 269.08 23.3228 266.617 23.3228 263.845C23.3228 261.074 23.8286 258.633 24.8403 256.521C25.852 254.366 27.2156 252.563 28.9312 251.111C30.6467 249.615 32.6481 248.494 34.9354 247.746C37.2668 246.998 39.7521 246.624 42.3913 246.624C44.9866 246.624 47.5379 246.998 50.0451 247.746C52.5524 248.45 54.7518 249.725 56.6433 251.573C56.7752 251.705 56.8412 251.881 56.8412 252.101L56.6433 251.969ZM78.4763 281.264C75.8371 281.264 73.3518 280.891 71.0204 280.143C68.7331 279.351 66.7097 278.229 64.9502 276.778C63.2347 275.282 61.8711 273.457 60.8593 271.301C59.8916 269.146 59.4078 266.683 59.4078 263.911C59.4078 261.14 59.9136 258.699 60.9253 256.587C61.937 254.432 63.3006 252.629 65.0162 251.177C66.7317 249.681 68.7331 248.56 71.0204 247.812C73.3518 247.064 75.8371 246.69 78.4763 246.69C81.1156 246.69 83.6009 247.064 85.9322 247.812C88.2635 248.56 90.2869 249.681 92.0025 251.177C93.718 252.629 95.0816 254.432 96.0933 256.587C97.105 258.743 97.6109 261.206 97.6109 263.977C97.6109 266.749 97.105 269.212 96.0933 271.367C95.0816 273.523 93.718 275.348 92.0025 276.844C90.2869 278.295 88.2635 279.395 85.9322 280.143C83.6009 280.891 81.1156 281.264 78.4763 281.264ZM80.7857 253.882C80.1698 253.134 79.3781 252.475 78.4103 251.903C77.4866 251.287 76.5189 251.089 75.5072 251.309C74.4955 251.529 73.7037 252.123 73.1318 253.09C72.56 254.058 72.1641 255.004 71.9442 255.928C71.5483 257.467 71.3943 259.073 71.4823 260.744C71.5703 262.372 71.7902 263.955 72.1421 265.495C72.494 267.034 73.0219 268.574 73.7257 270.114C74.4295 271.609 75.2872 272.951 76.2989 274.138C76.9148 274.886 77.6845 275.568 78.6083 276.184C79.576 276.756 80.5657 276.932 81.5774 276.712C82.5891 276.492 83.3809 275.898 83.9528 274.93C84.5246 273.963 84.9205 273.017 85.1404 272.093C85.5363 270.553 85.6903 268.97 85.6023 267.342C85.5143 265.671 85.2944 264.065 84.9425 262.526C84.5906 260.986 84.0627 259.469 83.3589 257.973C82.6551 256.434 81.7974 255.07 80.7857 253.882ZM122.5 274.864V257.577C122.5 257.181 122.456 256.697 122.368 256.126C122.28 255.51 122.016 255.092 121.576 254.872C121.048 254.652 120.388 254.74 119.597 255.136C118.805 255.488 118.189 255.796 117.749 256.06C117.265 256.368 116.781 256.697 116.297 257.049C115.858 257.401 115.396 257.775 114.912 258.171C114.912 260.942 114.89 263.713 114.846 266.485C114.846 269.256 114.846 272.027 114.846 274.798L116.693 279.417C116.781 279.637 116.759 279.835 116.627 280.011C116.495 280.231 116.319 280.341 116.1 280.341H101.254C101.034 280.341 100.858 280.231 100.726 280.011C100.594 279.835 100.572 279.637 100.66 279.417L102.507 274.798V255.268L100.198 252.233C100.066 252.013 100.022 251.815 100.066 251.639C100.11 251.463 100.242 251.331 100.462 251.243L102.771 250.517L113.988 247.482C114.164 247.438 114.362 247.482 114.582 247.614C114.758 247.746 114.846 247.922 114.846 248.142V251.573C115.462 251.089 116.056 250.605 116.627 250.121C117.199 249.637 117.793 249.176 118.409 248.736C119.553 247.988 120.74 247.46 121.972 247.152C123.247 246.8 124.545 246.646 125.865 246.69C127.844 246.734 129.582 247.218 131.077 248.142C132.573 249.022 133.65 250.385 134.31 252.233C135.014 251.617 135.718 251.023 136.422 250.451C137.126 249.835 137.851 249.264 138.599 248.736C139.743 247.988 140.952 247.46 142.228 247.152C143.504 246.8 144.801 246.646 146.121 246.69C147.089 246.69 148.034 246.822 148.958 247.086C149.882 247.306 150.74 247.68 151.531 248.208C152.895 249.088 153.863 250.231 154.435 251.639C155.006 253.046 155.292 254.52 155.292 256.06V275.524L156.876 279.483C156.964 279.703 156.942 279.901 156.81 280.077C156.678 280.297 156.502 280.407 156.282 280.407H141.502C141.282 280.407 141.106 280.297 140.974 280.077C140.842 279.901 140.82 279.703 140.908 279.483L142.756 274.864V257.577C142.756 257.181 142.712 256.697 142.624 256.126C142.536 255.51 142.272 255.092 141.832 254.872C141.304 254.652 140.645 254.74 139.853 255.136C139.061 255.488 138.445 255.796 138.005 256.06C137.477 256.412 136.972 256.785 136.488 257.181C136.004 257.533 135.52 257.907 135.036 258.303V275.59L136.62 279.549C136.708 279.769 136.686 279.967 136.554 280.143C136.422 280.363 136.246 280.473 136.026 280.473H121.246C121.026 280.473 120.85 280.363 120.718 280.143C120.586 279.967 120.564 279.769 120.652 279.549L122.5 274.864ZM174.322 284.959L176.566 288.654C176.698 288.83 176.72 289.028 176.632 289.248C176.544 289.468 176.412 289.6 176.236 289.644L173.926 290.37L162.71 293.405C162.534 293.449 162.336 293.405 162.116 293.273C161.94 293.141 161.852 292.965 161.852 292.745V255.862L159.608 252.167C159.476 251.991 159.454 251.793 159.542 251.573C159.586 251.397 159.718 251.265 159.938 251.177L162.248 250.451L172.739 247.614L173.135 247.416C173.179 247.372 173.245 247.35 173.332 247.35H173.596C174.08 247.35 174.322 247.592 174.322 248.076V250.715C175.202 249.879 176.148 249.154 177.159 248.538C178.171 247.922 179.271 247.46 180.458 247.152C182.922 246.492 185.429 246.514 187.98 247.218C189.828 247.746 191.521 248.582 193.061 249.725C194.644 250.825 195.986 252.145 197.086 253.684C198.229 255.18 199.109 256.851 199.725 258.699C200.385 260.546 200.715 262.416 200.715 264.307C200.715 266.331 200.407 268.288 199.791 270.18C199.219 272.027 198.295 273.721 197.02 275.26C195.876 276.668 194.556 277.855 193.061 278.823C191.565 279.747 189.938 280.429 188.178 280.869C186.639 281.22 185.121 281.352 183.626 281.264C181.822 281.176 180.151 280.869 178.611 280.341C177.071 279.769 175.642 278.911 174.322 277.767V284.959ZM175.114 259.029C174.762 260.26 174.586 261.536 174.586 262.856C174.63 264.175 174.806 265.451 175.114 266.683C175.466 268.046 175.95 269.388 176.566 270.707C177.225 272.027 178.105 273.127 179.205 274.007C179.953 274.622 180.766 275.084 181.646 275.392C182.57 275.656 183.494 275.656 184.417 275.392C185.253 275.172 185.935 274.754 186.463 274.138C187.035 273.479 187.474 272.753 187.782 271.961C188.266 270.685 188.464 269.3 188.376 267.804C188.288 266.309 188.09 264.901 187.782 263.581C187.474 262.35 187.057 261.14 186.529 259.953C186.001 258.765 185.297 257.709 184.417 256.785C183.802 256.126 183.098 255.554 182.306 255.07C181.514 254.542 180.656 254.3 179.733 254.344C179.557 254.344 179.293 254.388 178.941 254.476C178.589 254.564 178.325 254.652 178.149 254.74C177.269 255.092 176.566 255.664 176.038 256.456C175.554 257.247 175.18 258.083 174.916 258.963L175.114 259.029ZM217.366 274.864L219.214 279.483C219.302 279.703 219.28 279.901 219.148 280.077C219.016 280.297 218.84 280.407 218.62 280.407H203.576C203.356 280.407 203.18 280.297 203.048 280.077C202.916 279.901 202.894 279.703 202.982 279.483L204.83 274.864V242.863L202.586 239.168C202.454 238.992 202.432 238.795 202.52 238.575C202.564 238.399 202.696 238.267 202.916 238.179L205.226 237.453L216.442 234.418C216.618 234.374 216.816 234.418 217.036 234.55C217.212 234.682 217.3 234.858 217.3 235.078L217.366 274.864ZM235.51 268.2V268.398C236.214 270.553 237.534 272.269 239.469 273.545C241.405 274.776 243.45 275.546 245.606 275.854C246.309 275.986 247.079 276.052 247.915 276.052C249.191 276.052 250.444 275.898 251.676 275.59C252.951 275.282 254.161 274.82 255.305 274.204C255.613 274.028 255.877 274.094 256.097 274.402C256.317 274.71 256.317 274.996 256.097 275.26C254.205 277.504 251.896 279.087 249.169 280.011C246.485 280.891 243.714 281.33 240.855 281.33C238.216 281.33 235.73 280.957 233.399 280.209C231.112 279.417 229.088 278.295 227.329 276.844C225.613 275.348 224.25 273.523 223.238 271.367C222.27 269.212 221.786 266.749 221.786 263.977C221.786 261.206 222.27 258.765 223.238 256.653C224.25 254.498 225.613 252.695 227.329 251.243C229.044 249.747 231.046 248.626 233.333 247.878C235.62 247.13 238.084 246.756 240.723 246.756C245.65 246.756 249.433 247.922 252.072 250.253C254.755 252.585 256.251 256.214 256.558 261.14C256.558 261.492 256.405 261.712 256.097 261.8L253.787 262.526L246.463 264.835L235.313 268.332L235.51 268.2ZM244.88 259.953C244.924 258.941 244.814 257.863 244.55 256.719C244.33 255.972 244.022 255.224 243.626 254.476C243.274 253.728 242.812 253.09 242.241 252.563C241.713 251.991 241.075 251.573 240.327 251.309C239.623 251.001 238.832 250.957 237.952 251.177L237.556 251.375C236.676 251.727 235.994 252.343 235.51 253.222C235.027 254.058 234.675 254.894 234.455 255.73C234.103 256.961 233.905 258.237 233.861 259.557C233.861 260.876 233.971 262.174 234.191 263.45L244.88 259.953ZM261.141 242.731L258.898 239.036C258.766 238.861 258.744 238.663 258.832 238.443C258.876 238.267 259.008 238.135 259.228 238.047L261.537 237.321L272.754 234.286C272.93 234.242 273.128 234.286 273.348 234.418C273.524 234.55 273.612 234.726 273.612 234.946V247.416H282.123C282.607 247.416 282.849 247.658 282.849 248.142V256.39C282.849 256.653 282.739 256.851 282.519 256.983C282.343 257.115 282.145 257.137 281.925 257.049L273.677 253.486V269.52C273.677 270.927 273.919 271.983 274.403 272.687C274.931 273.391 275.591 273.831 276.383 274.007C277.174 274.138 278.032 274.028 278.956 273.677C279.924 273.281 280.847 272.709 281.727 271.961C281.947 271.741 282.189 271.697 282.453 271.829C282.717 271.961 282.849 272.159 282.849 272.423V277.306C282.849 277.525 282.761 277.701 282.585 277.833C280.825 279.241 279.044 280.187 277.24 280.671C275.437 281.154 273.348 281.396 270.972 281.396C267.805 281.396 265.386 280.605 263.714 279.021C262.043 277.394 261.207 274.996 261.207 271.829L261.141 242.731ZM300.267 268.2V268.398C300.971 270.553 302.291 272.269 304.226 273.545C306.162 274.776 308.207 275.546 310.362 275.854C311.066 275.986 311.836 276.052 312.672 276.052C313.947 276.052 315.201 275.898 316.433 275.59C317.708 275.282 318.918 274.82 320.062 274.204C320.37 274.028 320.634 274.094 320.853 274.402C321.073 274.71 321.073 274.996 320.853 275.26C318.962 277.504 316.653 279.087 313.925 280.011C311.242 280.891 308.471 281.33 305.612 281.33C302.973 281.33 300.487 280.957 298.156 280.209C295.869 279.417 293.845 278.295 292.086 276.844C290.37 275.348 289.007 273.523 287.995 271.367C287.027 269.212 286.543 266.749 286.543 263.977C286.543 261.206 287.027 258.765 287.995 256.653C289.007 254.498 290.37 252.695 292.086 251.243C293.801 249.747 295.803 248.626 298.09 247.878C300.377 247.13 302.841 246.756 305.48 246.756C310.406 246.756 314.189 247.922 316.829 250.253C319.512 252.585 321.007 256.214 321.315 261.14C321.315 261.492 321.161 261.712 320.853 261.8L318.544 262.526L311.22 264.835L300.069 268.332L300.267 268.2ZM309.637 259.953C309.681 258.941 309.571 257.863 309.307 256.719C309.087 255.972 308.779 255.224 308.383 254.476C308.031 253.728 307.569 253.09 306.997 252.563C306.47 251.991 305.832 251.573 305.084 251.309C304.38 251.001 303.588 250.957 302.709 251.177L302.313 251.375C301.433 251.727 300.751 252.343 300.267 253.222C299.784 254.058 299.432 254.894 299.212 255.73C298.86 256.961 298.662 258.237 298.618 259.557C298.618 260.876 298.728 262.174 298.948 263.45L309.637 259.953ZM364.322 269.52L367.819 248.01C367.907 247.614 368.127 247.416 368.479 247.416H379.431C379.651 247.416 379.827 247.526 379.959 247.746C380.091 247.922 380.113 248.12 380.025 248.34L363.068 287.137C361.968 289.644 360.539 291.382 358.779 292.349C357.064 293.317 354.754 293.757 351.851 293.669C351.411 293.669 350.818 293.603 350.07 293.471C349.322 293.339 348.552 293.163 347.76 292.943C346.969 292.767 346.199 292.547 345.451 292.283C344.747 292.063 344.241 291.821 343.934 291.557C343.67 291.382 343.582 291.14 343.67 290.832L346.243 282.914L346.705 281.594C346.793 281.374 346.947 281.22 347.167 281.132C347.387 281.044 347.584 281.088 347.76 281.264C348.156 281.66 348.75 282.232 349.542 282.98C350.334 283.728 351.169 284.432 352.049 285.091C352.973 285.751 353.875 286.235 354.754 286.543C355.634 286.851 356.382 286.763 356.998 286.279C357.526 285.883 357.834 285.421 357.922 284.893C358.053 284.366 358.053 283.838 357.922 283.31C357.834 282.782 357.658 282.254 357.394 281.726C357.13 281.198 356.91 280.693 356.734 280.209C356.118 278.801 355.37 277.174 354.491 275.326C353.655 273.435 352.819 271.609 351.983 269.85C351.147 268.09 350.378 266.507 349.674 265.099C349.014 263.647 348.552 262.636 348.288 262.064L342.02 248.472C341.932 248.252 341.954 248.032 342.086 247.812C342.218 247.592 342.394 247.482 342.614 247.482H355.612C355.744 247.482 355.876 247.526 356.008 247.614C356.14 247.658 356.206 247.746 356.206 247.878L356.074 250.649L364.322 269.52ZM399.748 281.264C397.109 281.264 394.623 280.891 392.292 280.143C390.005 279.351 387.981 278.229 386.222 276.778C384.506 275.282 383.143 273.457 382.131 271.301C381.163 269.146 380.679 266.683 380.679 263.911C380.679 261.14 381.185 258.699 382.197 256.587C383.209 254.432 384.572 252.629 386.288 251.177C388.003 249.681 390.005 248.56 392.292 247.812C394.623 247.064 397.109 246.69 399.748 246.69C402.387 246.69 404.872 247.064 407.204 247.812C409.535 248.56 411.559 249.681 413.274 251.177C414.99 252.629 416.353 254.432 417.365 256.587C418.377 258.743 418.882 261.206 418.882 263.977C418.882 266.749 418.377 269.212 417.365 271.367C416.353 273.523 414.99 275.348 413.274 276.844C411.559 278.295 409.535 279.395 407.204 280.143C404.872 280.891 402.387 281.264 399.748 281.264ZM402.057 253.882C401.441 253.134 400.65 252.475 399.682 251.903C398.758 251.287 397.79 251.089 396.779 251.309C395.767 251.529 394.975 252.123 394.403 253.09C393.832 254.058 393.436 255.004 393.216 255.928C392.82 257.467 392.666 259.073 392.754 260.744C392.842 262.372 393.062 263.955 393.414 265.495C393.766 267.034 394.293 268.574 394.997 270.114C395.701 271.609 396.559 272.951 397.571 274.138C398.186 274.886 398.956 275.568 399.88 276.184C400.848 276.756 401.837 276.932 402.849 276.712C403.861 276.492 404.653 275.898 405.224 274.93C405.796 273.963 406.192 273.017 406.412 272.093C406.808 270.553 406.962 268.97 406.874 267.342C406.786 265.671 406.566 264.065 406.214 262.526C405.862 260.986 405.334 259.469 404.631 257.973C403.927 256.434 403.069 255.07 402.057 253.882ZM436.576 270.509C436.576 270.905 436.62 271.367 436.708 271.895C436.84 272.423 437.104 272.797 437.5 273.017C437.764 273.149 438.094 273.215 438.49 273.215C438.886 273.171 439.281 273.083 439.677 272.951C440.073 272.819 440.447 272.665 440.799 272.489C441.195 272.269 441.525 272.093 441.789 271.961C442.317 271.653 442.844 271.323 443.372 270.971C443.944 270.619 444.472 270.246 444.956 269.85V256.126L442.712 252.431C442.581 252.255 442.559 252.057 442.646 251.837C442.69 251.661 442.822 251.529 443.042 251.441L445.352 250.715L456.569 247.68C456.744 247.636 456.942 247.68 457.162 247.812C457.338 247.944 457.426 248.12 457.426 248.34V275.128L459.274 279.747C459.362 279.967 459.34 280.165 459.208 280.341C459.076 280.561 458.9 280.671 458.68 280.671H445.418C444.934 280.671 444.692 280.429 444.692 279.945V276.448C443.944 277.064 443.174 277.657 442.383 278.229C441.591 278.757 440.755 279.263 439.875 279.747C438.864 280.319 437.786 280.715 436.642 280.935C435.543 281.154 434.421 281.264 433.277 281.264C430.374 281.264 428.087 280.429 426.415 278.757C424.744 277.042 423.908 274.71 423.908 271.763V255.928L421.664 252.233C421.533 252.057 421.511 251.859 421.598 251.639C421.642 251.463 421.774 251.331 421.994 251.243L424.304 250.517L435.521 247.482C435.696 247.438 435.894 247.482 436.114 247.614C436.29 247.746 436.378 247.922 436.378 248.142V258.501V268.728L436.576 270.509ZM465.852 274.864V255.928L463.608 252.233C463.476 252.057 463.454 251.859 463.542 251.639C463.586 251.463 463.718 251.331 463.938 251.243L466.248 250.517L477.464 247.482C477.64 247.438 477.838 247.482 478.058 247.614C478.234 247.746 478.322 247.922 478.322 248.142V250.517C479.07 249.813 479.906 249.198 480.829 248.67C481.753 248.142 482.655 247.702 483.535 247.35C484.546 246.998 485.58 246.778 486.636 246.69C487.692 246.558 488.725 246.646 489.737 246.954C490.045 247.042 490.199 247.262 490.199 247.614V257.577C490.199 257.885 490.067 258.105 489.803 258.237C489.539 258.369 489.297 258.325 489.077 258.105C488.241 257.225 487.252 256.609 486.108 256.258C484.964 255.906 483.799 255.84 482.611 256.06C481.819 256.192 480.983 256.521 480.104 257.049C479.224 257.533 478.674 258.215 478.454 259.095C478.41 259.227 478.388 259.425 478.388 259.689V274.93L480.236 279.549C480.324 279.769 480.302 279.967 480.17 280.143C480.038 280.363 479.862 280.473 479.642 280.473H464.598C464.378 280.473 464.202 280.363 464.07 280.143C463.938 279.967 463.916 279.769 464.004 279.549L465.852 274.864ZM37.9046 361.864L39.7521 366.483C39.84 366.703 39.8181 366.901 39.6861 367.077C39.5541 367.297 39.3562 367.407 39.0923 367.407H24.0486C23.7846 367.407 23.5867 367.297 23.4547 367.077C23.3228 366.901 23.3008 366.703 23.3887 366.483L25.2362 361.864V326.894L23.3887 322.276C23.3008 322.056 23.3228 321.858 23.4547 321.682C23.5867 321.462 23.7846 321.352 24.0486 321.352H46.5481C51.0788 321.352 54.8398 322.188 57.8309 323.859C60.866 325.531 63.1314 327.62 64.627 330.127C66.1225 332.635 66.8703 335.34 66.8703 338.243C66.8703 341.146 66.1225 343.851 64.627 346.359C63.1314 348.866 60.866 350.955 57.8309 352.627C54.8398 354.298 51.0788 355.134 46.5481 355.134H37.9046V361.864ZM37.9046 347.48H43.513C45.8443 347.48 47.7798 347.04 49.3193 346.161C50.9029 345.237 52.0686 344.093 52.8163 342.73C53.6081 341.322 54.004 339.827 54.004 338.243C54.004 336.659 53.6081 335.186 52.8163 333.822C52.0686 332.415 50.9029 331.271 49.3193 330.391C47.7798 329.468 45.8443 329.006 43.513 329.006H37.9046V347.48ZM86.1801 357.509C86.1801 357.905 86.2241 358.367 86.3121 358.895C86.4441 359.423 86.708 359.797 87.1039 360.017C87.3678 360.149 87.6977 360.215 88.0936 360.215C88.4895 360.171 88.8854 360.083 89.2813 359.951C89.6771 359.819 90.051 359.665 90.4029 359.489C90.7988 359.269 91.1287 359.093 91.3926 358.961C91.9205 358.653 92.4483 358.323 92.9762 357.971C93.548 357.619 94.0759 357.246 94.5597 356.85V343.126L92.3164 339.431C92.1844 339.255 92.1624 339.057 92.2504 338.837C92.2944 338.661 92.4264 338.529 92.6463 338.441L94.9556 337.715L106.172 334.68C106.348 334.636 106.546 334.68 106.766 334.812C106.942 334.944 107.03 335.12 107.03 335.34V362.128L108.878 366.747C108.966 366.967 108.944 367.165 108.812 367.341C108.68 367.561 108.504 367.671 108.284 367.671H95.0216C94.5378 367.671 94.2958 367.429 94.2958 366.945V363.448C93.548 364.064 92.7783 364.657 91.9865 365.229C91.1947 365.757 90.3589 366.263 89.4792 366.747C88.4675 367.319 87.3898 367.715 86.2461 367.935C85.1464 368.154 84.0248 368.264 82.8811 368.264C79.9779 368.264 77.6906 367.429 76.019 365.757C74.3475 364.042 73.5118 361.71 73.5118 358.763V342.928L71.2684 339.233C71.1364 339.057 71.1144 338.859 71.2024 338.639C71.2464 338.463 71.3784 338.331 71.5983 338.243L73.9076 337.517L85.1244 334.482C85.3004 334.438 85.4983 334.482 85.7183 334.614C85.8942 334.746 85.9822 334.922 85.9822 335.142V345.501V355.728L86.1801 357.509ZM115.456 361.864V342.928L113.212 339.233C113.08 339.057 113.058 338.859 113.146 338.639C113.19 338.463 113.322 338.331 113.542 338.243L115.852 337.517L127.068 334.482C127.244 334.438 127.442 334.482 127.662 334.614C127.838 334.746 127.926 334.922 127.926 335.142V337.517C128.674 336.813 129.51 336.198 130.433 335.67C131.357 335.142 132.259 334.702 133.139 334.35C134.15 333.998 135.184 333.778 136.24 333.69C137.295 333.558 138.329 333.646 139.341 333.954C139.649 334.042 139.803 334.262 139.803 334.614V344.577C139.803 344.885 139.671 345.105 139.407 345.237C139.143 345.369 138.901 345.325 138.681 345.105C137.845 344.225 136.856 343.609 135.712 343.258C134.568 342.906 133.403 342.84 132.215 343.06C131.423 343.192 130.587 343.521 129.708 344.049C128.828 344.533 128.278 345.215 128.058 346.095C128.014 346.227 127.992 346.425 127.992 346.689V361.93L129.84 366.549C129.928 366.769 129.906 366.967 129.774 367.143C129.642 367.363 129.466 367.473 129.246 367.473H114.202C113.982 367.473 113.806 367.363 113.674 367.143C113.542 366.967 113.52 366.769 113.608 366.549L115.456 361.864ZM176.556 338.969C176.556 339.145 176.49 339.299 176.358 339.431L168.573 346.095C168.353 346.227 168.155 346.271 167.979 346.227C167.759 346.183 167.627 346.051 167.583 345.831C167.099 344.599 166.527 343.456 165.867 342.4C165.559 341.916 165.164 341.388 164.68 340.816C164.24 340.244 163.734 339.739 163.162 339.299C162.59 338.859 161.974 338.529 161.315 338.309C160.655 338.045 159.995 338.001 159.335 338.177C158.455 338.397 157.73 338.925 157.158 339.761C156.63 340.552 156.234 341.344 155.97 342.136C155.574 343.412 155.332 344.753 155.244 346.161C155.2 347.524 155.288 348.844 155.508 350.12C155.772 351.703 156.19 353.221 156.762 354.672C157.378 356.08 158.17 357.356 159.137 358.499C160.105 359.599 161.249 360.523 162.568 361.27C163.888 361.974 165.383 362.458 167.055 362.722C167.759 362.854 168.529 362.92 169.364 362.92C170.64 362.92 171.894 362.766 173.125 362.458C174.401 362.15 175.611 361.688 176.754 361.072C177.062 360.897 177.326 360.963 177.546 361.27C177.766 361.578 177.766 361.864 177.546 362.128C175.655 364.372 173.345 365.955 170.618 366.879C167.935 367.759 165.164 368.198 162.304 368.198C159.665 368.198 157.18 367.825 154.848 367.077C152.561 366.285 150.538 365.163 148.778 363.712C147.063 362.216 145.699 360.391 144.687 358.235C143.72 356.08 143.236 353.617 143.236 350.845C143.236 348.074 143.742 345.633 144.753 343.521C145.765 341.366 147.129 339.563 148.844 338.111C150.56 336.615 152.561 335.494 154.848 334.746C157.18 333.998 159.665 333.624 162.304 333.624C164.9 333.624 167.451 333.998 169.958 334.746C172.465 335.45 174.665 336.725 176.556 338.573C176.688 338.705 176.754 338.881 176.754 339.101L176.556 338.969ZM203.382 361.864V344.577C203.382 344.181 203.316 343.719 203.184 343.192C203.096 342.664 202.854 342.29 202.459 342.07C202.195 341.938 201.865 341.894 201.469 341.938C201.073 341.938 200.677 342.004 200.281 342.136C199.885 342.268 199.489 342.444 199.094 342.664C198.742 342.84 198.434 342.994 198.17 343.126C197.07 343.741 196.058 344.445 195.135 345.237V361.93L196.982 366.549C197.07 366.769 197.048 366.967 196.916 367.143C196.784 367.363 196.608 367.473 196.388 367.473H181.345C181.125 367.473 180.949 367.363 180.817 367.143C180.685 366.967 180.663 366.769 180.751 366.549L182.466 362.26V329.467L180.355 325.97C180.223 325.795 180.201 325.597 180.289 325.377C180.333 325.201 180.465 325.069 180.685 324.981L194.277 321.154C194.453 321.11 194.651 321.154 194.871 321.286C195.047 321.418 195.135 321.594 195.135 321.814V338.573C195.882 337.957 196.652 337.385 197.444 336.857C198.236 336.286 199.072 335.758 199.951 335.274C201.007 334.658 202.107 334.24 203.25 334.02C204.394 333.8 205.56 333.69 206.747 333.69C209.65 333.734 211.916 334.592 213.543 336.264C215.171 337.935 215.985 340.222 215.985 343.126V361.93L217.832 366.549C217.92 366.769 217.898 366.967 217.766 367.143C217.634 367.363 217.458 367.473 217.238 367.473H202.195C201.975 367.473 201.799 367.363 201.667 367.143C201.535 366.967 201.513 366.769 201.601 366.549L203.382 361.864ZM257.579 366.615C257.667 366.835 257.645 367.033 257.513 367.209C257.381 367.429 257.205 367.539 256.985 367.539H243.855C243.371 367.539 243.129 367.297 243.129 366.813V364.767C241.502 365.999 239.764 366.901 237.917 367.473C236.069 368.001 234.09 368.264 231.978 368.264C230.835 368.264 229.691 368.154 228.547 367.935C227.448 367.715 226.414 367.363 225.446 366.879C224.479 366.351 223.599 365.713 222.807 364.965C222.015 364.174 221.399 363.228 220.96 362.128C220.036 359.885 219.926 357.641 220.63 355.398C221.333 353.155 222.477 351.197 224.061 349.526C225.248 348.294 226.59 347.26 228.086 346.425C229.581 345.545 231.143 344.841 232.77 344.313C234.442 343.785 236.135 343.412 237.851 343.192C239.61 342.928 241.326 342.796 242.997 342.796H243.195C243.151 342.18 243.019 341.586 242.799 341.014C242.623 340.442 242.271 339.98 241.744 339.629C240.644 338.969 239.412 338.683 238.049 338.771C236.729 338.815 235.387 339.079 234.024 339.563C232.66 340.046 231.341 340.662 230.065 341.41C228.833 342.114 227.756 342.796 226.832 343.456C226.612 343.587 226.414 343.631 226.238 343.587C226.018 343.543 225.886 343.412 225.842 343.192L222.939 337.187C222.851 337.011 222.851 336.813 222.939 336.593C222.983 336.418 223.115 336.286 223.335 336.198C224.962 335.494 226.876 334.9 229.075 334.416C231.319 333.932 233.65 333.646 236.069 333.558C238.489 333.426 240.864 333.536 243.195 333.888C245.571 334.24 247.682 334.9 249.529 335.868C251.421 336.835 252.938 338.155 254.082 339.827C255.27 341.498 255.864 343.587 255.864 346.095V361.93L257.579 366.615ZM243.129 348.602C240.358 348.866 238.071 350.032 236.267 352.099C235.519 352.935 234.904 353.903 234.42 355.002C233.936 356.102 233.738 357.224 233.826 358.367C233.87 358.851 233.98 359.291 234.156 359.687C234.332 360.083 234.618 360.413 235.014 360.677C235.761 361.16 236.597 361.314 237.521 361.138C238.489 360.963 239.302 360.655 239.962 360.215C241.018 359.511 241.81 358.631 242.337 357.575C242.865 356.476 243.129 355.288 243.129 354.012V348.602ZM288.842 337.385C288.886 337.605 288.842 337.781 288.71 337.913L283.96 344.643C283.828 344.819 283.652 344.907 283.432 344.907C283.212 344.907 283.036 344.841 282.904 344.709C282.376 344.181 281.738 343.587 280.991 342.928C280.287 342.224 279.517 341.564 278.681 340.948C277.889 340.288 277.076 339.739 276.24 339.299C275.404 338.859 274.59 338.639 273.799 338.639C273.007 338.639 272.435 338.793 272.083 339.101C271.731 339.365 271.555 339.717 271.555 340.156C271.555 340.596 271.709 341.058 272.017 341.542C272.325 341.982 272.743 342.378 273.271 342.73C273.843 343.082 274.436 343.412 275.052 343.719C275.712 344.027 276.35 344.313 276.966 344.577C277.714 344.929 278.461 345.281 279.209 345.633C279.957 345.941 280.705 346.271 281.452 346.623C282.508 347.15 283.52 347.744 284.488 348.404C285.499 349.02 286.401 349.746 287.193 350.581C287.985 351.417 288.6 352.341 289.04 353.353C289.524 354.364 289.766 355.53 289.766 356.85C289.766 359.049 289.282 360.897 288.314 362.392C287.347 363.844 286.093 365.009 284.554 365.889C283.014 366.769 281.276 367.385 279.341 367.737C277.45 368.132 275.58 368.33 273.733 368.33C271.269 368.33 268.85 367.979 266.475 367.275C264.143 366.527 261.922 365.515 259.811 364.24C259.635 364.064 259.525 363.91 259.481 363.778C259.393 363.602 259.437 363.426 259.613 363.25L264.825 355.926C264.957 355.75 265.133 355.662 265.353 355.662C265.573 355.662 265.749 355.728 265.881 355.86C267.069 357.048 268.3 358.257 269.576 359.489C270.895 360.677 272.303 361.666 273.799 362.458C274.502 362.854 275.338 363.118 276.306 363.25C276.658 363.294 277.076 363.316 277.56 363.316C278.043 363.316 278.483 363.272 278.879 363.184C279.319 363.052 279.693 362.854 280.001 362.59C280.309 362.282 280.463 361.864 280.463 361.336C280.463 361.028 280.353 360.721 280.133 360.413C279.913 360.105 279.649 359.819 279.341 359.555C279.033 359.291 278.703 359.071 278.351 358.895C278.043 358.675 277.779 358.499 277.56 358.367C277.032 358.059 276.482 357.773 275.91 357.509C275.382 357.246 274.832 356.982 274.26 356.718L270.5 354.936C269.928 354.628 269.356 354.342 268.784 354.078C268.256 353.771 267.728 353.441 267.201 353.089C266.409 352.605 265.639 352.055 264.891 351.439C264.143 350.823 263.484 350.142 262.912 349.394C262.208 348.426 261.768 347.436 261.592 346.425C261.372 345.237 261.394 344.049 261.658 342.862C261.966 341.63 262.428 340.508 263.044 339.497C263.791 338.265 264.715 337.231 265.815 336.396C267.266 335.296 268.894 334.57 270.698 334.218C272.545 333.866 274.348 333.69 276.108 333.69C278.395 333.69 280.485 333.932 282.376 334.416C284.268 334.856 286.225 335.626 288.249 336.725C288.424 336.813 288.556 336.945 288.644 337.121L288.842 337.385ZM305.1 355.2V355.398C305.804 357.553 307.123 359.269 309.059 360.545C310.994 361.776 313.04 362.546 315.195 362.854C315.899 362.986 316.669 363.052 317.504 363.052C318.78 363.052 320.034 362.898 321.265 362.59C322.541 362.282 323.751 361.82 324.894 361.204C325.202 361.028 325.466 361.094 325.686 361.402C325.906 361.71 325.906 361.996 325.686 362.26C323.795 364.504 321.485 366.087 318.758 367.011C316.075 367.891 313.304 368.33 310.444 368.33C307.805 368.33 305.32 367.957 302.989 367.209C300.701 366.417 298.678 365.295 296.918 363.844C295.203 362.348 293.839 360.523 292.827 358.367C291.86 356.212 291.376 353.749 291.376 350.977C291.376 348.206 291.86 345.765 292.827 343.653C293.839 341.498 295.203 339.695 296.918 338.243C298.634 336.747 300.635 335.626 302.923 334.878C305.21 334.13 307.673 333.756 310.312 333.756C315.239 333.756 319.022 334.922 321.661 337.253C324.344 339.585 325.84 343.214 326.148 348.14C326.148 348.492 325.994 348.712 325.686 348.8L323.377 349.526L316.053 351.835L304.902 355.332L305.1 355.2ZM314.469 346.953C314.513 345.941 314.403 344.863 314.139 343.719C313.919 342.972 313.612 342.224 313.216 341.476C312.864 340.728 312.402 340.09 311.83 339.563C311.302 338.991 310.664 338.573 309.917 338.309C309.213 338.001 308.421 337.957 307.541 338.177L307.145 338.375C306.266 338.727 305.584 339.343 305.1 340.222C304.616 341.058 304.264 341.894 304.044 342.73C303.692 343.961 303.494 345.237 303.45 346.557C303.45 347.876 303.56 349.174 303.78 350.45L314.469 346.953ZM372.123 368.594C367.901 368.594 364.206 367.913 361.039 366.549C357.872 365.141 355.21 363.316 353.055 361.072C350.944 358.785 349.36 356.19 348.304 353.287C347.249 350.384 346.721 347.436 346.721 344.445C346.721 341.41 347.249 338.441 348.304 335.538C349.36 332.635 350.944 330.061 353.055 327.818C355.21 325.531 357.872 323.705 361.039 322.342C364.206 320.934 367.901 320.23 372.123 320.23C376.478 320.23 380.283 320.934 383.538 322.342C386.837 323.705 389.564 325.531 391.72 327.818C393.919 330.061 395.569 332.635 396.668 335.538C397.768 338.441 398.318 341.41 398.318 344.445C398.318 347.436 397.768 350.384 396.668 353.287C395.569 356.19 393.919 358.785 391.72 361.072C389.564 363.316 386.859 365.141 383.604 366.549C380.349 367.913 376.544 368.594 372.189 368.594H372.123ZM366.581 358.301C367.901 359.621 369.418 360.765 371.134 361.732C372.893 362.656 374.763 363.03 376.742 362.854C377.798 362.81 378.854 362.502 379.909 361.93C381.229 361.226 382.307 360.259 383.142 359.027C383.978 357.751 384.616 356.41 385.056 355.002C385.628 353.155 385.892 351.241 385.848 349.262C385.848 347.282 385.628 345.369 385.188 343.521C384.66 341.146 383.824 338.859 382.68 336.659C381.537 334.416 380.129 332.437 378.458 330.721C377.138 329.402 375.598 328.28 373.839 327.356C372.123 326.388 370.276 325.992 368.297 326.168C367.241 326.212 366.185 326.52 365.129 327.092C363.81 327.796 362.732 328.786 361.896 330.061C361.061 331.293 360.423 332.613 359.983 334.02C359.411 335.868 359.125 337.781 359.125 339.761C359.169 341.74 359.411 343.653 359.851 345.501C360.379 347.876 361.215 350.164 362.358 352.363C363.502 354.562 364.91 356.52 366.581 358.235V358.301ZM404.123 361.864V342.928L401.88 339.233C401.748 339.057 401.726 338.859 401.814 338.639C401.858 338.463 401.99 338.331 402.21 338.243L404.519 337.517L415.736 334.482C415.912 334.438 416.11 334.482 416.33 334.614C416.506 334.746 416.594 334.922 416.594 335.142V337.517C417.342 336.813 418.177 336.198 419.101 335.67C420.025 335.142 420.926 334.702 421.806 334.35C422.818 333.998 423.852 333.778 424.907 333.69C425.963 333.558 426.997 333.646 428.008 333.954C428.316 334.042 428.47 334.262 428.47 334.614V344.577C428.47 344.885 428.338 345.105 428.074 345.237C427.811 345.369 427.569 345.325 427.349 345.105C426.513 344.225 425.523 343.609 424.38 343.258C423.236 342.906 422.07 342.84 420.883 343.06C420.091 343.192 419.255 343.521 418.375 344.049C417.495 344.533 416.946 345.215 416.726 346.095C416.682 346.227 416.66 346.425 416.66 346.689V361.93L418.507 366.549C418.595 366.769 418.573 366.967 418.441 367.143C418.309 367.363 418.133 367.473 417.913 367.473H402.87C402.65 367.473 402.474 367.363 402.342 367.143C402.21 366.967 402.188 366.769 402.276 366.549L404.123 361.864ZM457.787 329.995L455.543 326.3C455.411 326.124 455.389 325.927 455.477 325.707C455.521 325.531 455.653 325.399 455.873 325.311L458.182 324.585L469.399 321.55C469.575 321.506 469.773 321.55 469.993 321.682C470.169 321.814 470.257 321.99 470.257 322.21V362.062L472.105 366.681C472.192 366.901 472.17 367.099 472.039 367.275C471.907 367.495 471.731 367.605 471.511 367.605H458.38C457.897 367.605 457.655 367.363 457.655 366.879V364.24C456.775 365.075 455.829 365.801 454.817 366.417C453.806 367.033 452.706 367.495 451.518 367.803C449.055 368.462 446.548 368.44 443.997 367.737C442.149 367.209 440.434 366.395 438.85 365.295C437.31 364.152 435.969 362.832 434.825 361.336C433.725 359.797 432.846 358.125 432.186 356.322C431.57 354.474 431.262 352.583 431.262 350.647C431.262 348.624 431.548 346.689 432.12 344.841C432.736 342.95 433.681 341.234 434.957 339.695C437.288 336.835 440.236 334.966 443.799 334.086C445.294 333.778 446.812 333.646 448.351 333.69C450.155 333.778 451.826 334.108 453.366 334.68C454.905 335.208 456.335 336.044 457.655 337.187L457.787 329.995ZM456.995 355.926C457.347 354.694 457.501 353.419 457.457 352.099C457.457 350.779 457.303 349.504 456.995 348.272C456.643 346.909 456.137 345.567 455.477 344.247C454.861 342.928 454.004 341.828 452.904 340.948C452.156 340.332 451.32 339.893 450.397 339.629C449.517 339.321 448.615 339.299 447.691 339.563C446.856 339.783 446.152 340.222 445.58 340.882C445.052 341.498 444.634 342.202 444.326 342.994C443.843 344.269 443.645 345.655 443.733 347.15C443.821 348.646 444.019 350.054 444.326 351.373C444.634 352.605 445.052 353.815 445.58 355.002C446.108 356.19 446.812 357.246 447.691 358.169C448.307 358.829 449.011 359.423 449.803 359.951C450.595 360.435 451.452 360.655 452.376 360.611C452.552 360.611 452.816 360.567 453.168 360.479C453.52 360.391 453.784 360.303 453.96 360.215C454.839 359.863 455.521 359.291 456.005 358.499C456.533 357.707 456.929 356.872 457.193 355.992L456.995 355.926ZM489.254 355.2V355.398C489.958 357.553 491.278 359.269 493.213 360.545C495.149 361.776 497.194 362.546 499.35 362.854C500.053 362.986 500.823 363.052 501.659 363.052C502.935 363.052 504.188 362.898 505.42 362.59C506.695 362.282 507.905 361.82 509.049 361.204C509.357 361.028 509.621 361.094 509.841 361.402C510.061 361.71 510.061 361.996 509.841 362.26C507.949 364.504 505.64 366.087 502.913 367.011C500.229 367.891 497.458 368.33 494.599 368.33C491.96 368.33 489.474 367.957 487.143 367.209C484.856 366.417 482.832 365.295 481.073 363.844C479.357 362.348 477.994 360.523 476.982 358.367C476.014 356.212 475.53 353.749 475.53 350.977C475.53 348.206 476.014 345.765 476.982 343.653C477.994 341.498 479.357 339.695 481.073 338.243C482.788 336.747 484.79 335.626 487.077 334.878C489.364 334.13 491.828 333.756 494.467 333.756C499.394 333.756 503.176 334.922 505.816 337.253C508.499 339.585 509.995 343.214 510.302 348.14C510.302 348.492 510.149 348.712 509.841 348.8L507.531 349.526L500.207 351.835L489.057 355.332L489.254 355.2ZM498.624 346.953C498.668 345.941 498.558 344.863 498.294 343.719C498.074 342.972 497.766 342.224 497.37 341.476C497.018 340.728 496.556 340.09 495.985 339.563C495.457 338.991 494.819 338.573 494.071 338.309C493.367 338.001 492.576 337.957 491.696 338.177L491.3 338.375C490.42 338.727 489.738 339.343 489.254 340.222C488.771 341.058 488.419 341.894 488.199 342.73C487.847 343.961 487.649 345.237 487.605 346.557C487.605 347.876 487.715 349.174 487.935 350.45L498.624 346.953ZM514.951 361.864V342.928L512.708 339.233C512.576 339.057 512.554 338.859 512.642 338.639C512.686 338.463 512.818 338.331 513.038 338.243L515.347 337.517L526.564 334.482C526.74 334.438 526.938 334.482 527.158 334.614C527.334 334.746 527.421 334.922 527.421 335.142V337.517C528.169 336.813 529.005 336.198 529.929 335.67C530.853 335.142 531.754 334.702 532.634 334.35C533.646 333.998 534.679 333.778 535.735 333.69C536.791 333.558 537.825 333.646 538.836 333.954C539.144 334.042 539.298 334.262 539.298 334.614V344.577C539.298 344.885 539.166 345.105 538.902 345.237C538.638 345.369 538.396 345.325 538.176 345.105C537.341 344.225 536.351 343.609 535.207 343.258C534.064 342.906 532.898 342.84 531.71 343.06C530.918 343.192 530.083 343.521 529.203 344.049C528.323 344.533 527.773 345.215 527.553 346.095C527.509 346.227 527.487 346.425 527.487 346.689V361.93L529.335 366.549C529.423 366.769 529.401 366.967 529.269 367.143C529.137 367.363 528.961 367.473 528.741 367.473H513.697C513.477 367.473 513.302 367.363 513.17 367.143C513.038 366.967 513.016 366.769 513.104 366.549L514.951 361.864Z" fill="white"/>
<path d="M520.978 33.1187L521.281 -0.141602" stroke="white" stroke-width="4.31784" stroke-linecap="round"/>
<path d="M532.562 34.1332L555.941 0.298828" stroke="white" stroke-width="4.31784" stroke-linecap="round"/>
<path d="M537.818 43.6101L566.215 26.291" stroke="white" stroke-width="4.31784" stroke-linecap="round"/>
</g>
<defs>
<filter id="filter0_di_11264_30741" x="-19.0465" y="29.5043" width="568.913" height="215.08" filterUnits="userSpaceOnUse" color-interpolation-filters="sRGB">
<feFlood flood-opacity="0" result="BackgroundImageFix"/>
<feColorMatrix in="SourceAlpha" type="matrix" values="0 0 0 0 0 0 0 0 0 0 0 0 0 0 0 0 0 0 127 0" result="hardAlpha"/>
<feOffset dy="6.90043"/>
<feGaussianBlur stdDeviation="9.48809"/>
<feComposite in2="hardAlpha" operator="out"/>
<feColorMatrix type="matrix" values="0 0 0 0 0.137255 0 0 0 0 0.639216 0 0 0 0 0.137255 0 0 0 1 0"/>
<feBlend mode="normal" in2="BackgroundImageFix" result="effect1_dropShadow_11264_30741"/>
<feBlend mode="normal" in="SourceGraphic" in2="effect1_dropShadow_11264_30741" result="shape"/>
<feColorMatrix in="SourceAlpha" type="matrix" values="0 0 0 0 0 0 0 0 0 0 0 0 0 0 0 0 0 0 127 0" result="hardAlpha"/>
<feOffset dx="10.3506" dy="6.03787"/>
<feGaussianBlur stdDeviation="1.72511"/>
<feComposite in2="hardAlpha" operator="arithmetic" k2="-1" k3="1"/>
<feColorMatrix type="matrix" values="0 0 0 0 0 0 0 0 0 0 0 0 0 0 0 0 0 0 0.16 0"/>
<feBlend mode="normal" in2="shape" result="effect2_innerShadow_11264_30741"/>
</filter>
<linearGradient id="paint0_linear_11264_30741" x1="22.2045" y1="201.922" x2="570.059" y2="179.842" gradientUnits="userSpaceOnUse">
<stop stop-color="#23A323"/>
<stop offset="1" stop-color="#FFBD00"/>
</linearGradient>
<linearGradient id="paint1_linear_11264_30741" x1="22.2045" y1="201.922" x2="570.059" y2="179.842" gradientUnits="userSpaceOnUse">
<stop stop-color="#23A323"/>
<stop offset="1" stop-color="#FFBD00"/>
</linearGradient>
<clipPath id="clip0_11264_30741">
<rect width="577" height="392" fill="white"/>
</clipPath>
</defs>
</svg>
