<svg width="596" height="183" viewBox="0 0 596 183" fill="none" xmlns="http://www.w3.org/2000/svg">
<path d="M11.2814 24.6654V33.4104H38.7264V39.5154H3.96645V3.93038H38.6714V10.0354H11.2814V18.8904H33.7214V24.6654H11.2814ZM45.302 12.1804H52.452V39.5154H45.302V12.1804ZM65.157 11.5754C66.8436 11.5754 68.402 11.7954 69.832 12.2354C71.262 12.6754 72.5086 13.3537 73.572 14.2704C74.6353 15.187 75.4603 16.3604 76.047 17.7904C76.6336 19.1837 76.927 20.852 76.927 22.7954V39.5154H69.777V24.0604C69.777 21.7504 69.2086 20.0637 68.072 19.0004C66.972 17.9004 65.157 17.3504 62.627 17.3504C60.7203 17.3504 58.997 17.717 57.457 18.4504C55.917 19.1837 54.6703 20.1187 53.717 21.2554C52.7636 22.3554 52.2136 23.5104 52.067 24.7204L52.012 21.9154C52.1953 20.632 52.617 19.3854 53.277 18.1754C53.937 16.9654 54.817 15.8654 55.917 14.8754C57.0536 13.8487 58.392 13.042 59.932 12.4554C61.472 11.8687 63.2136 11.5754 65.157 11.5754ZM88.972 11.5754C90.6586 11.5754 92.217 11.7954 93.647 12.2354C95.077 12.6754 96.3236 13.3537 97.387 14.2704C98.4503 15.187 99.2753 16.3604 99.862 17.7904C100.485 19.1837 100.797 20.852 100.797 22.7954V39.5154H93.647V24.0604C93.647 21.7504 93.0786 20.0637 91.942 19.0004C90.8053 17.9004 88.972 17.3504 86.442 17.3504C84.5353 17.3504 82.812 17.717 81.272 18.4504C79.732 19.1837 78.4853 20.1187 77.532 21.2554C76.5786 22.3554 76.047 23.5104 75.937 24.7204L75.827 21.7504C76.0103 20.5404 76.4503 19.3304 77.147 18.1204C77.8436 16.9104 78.7603 15.8104 79.897 14.8204C81.0336 13.8304 82.3536 13.042 83.857 12.4554C85.397 11.8687 87.102 11.5754 88.972 11.5754ZM127.194 40.1754C124.774 40.1754 122.703 39.7537 120.979 38.9104C119.293 38.0304 117.918 36.8937 116.854 35.5004C115.791 34.0704 115.003 32.512 114.489 30.8254C113.976 29.1387 113.719 27.4887 113.719 25.8754C113.719 23.8587 113.958 21.9887 114.434 20.2654C114.948 18.542 115.736 17.0387 116.799 15.7554C117.863 14.4354 119.238 13.4087 120.924 12.6754C122.648 11.942 124.738 11.5754 127.194 11.5754C129.944 11.5754 132.419 12.1804 134.619 13.3904C136.819 14.6004 138.561 16.287 139.844 18.4504C141.164 20.577 141.824 23.052 141.824 25.8754C141.824 28.772 141.164 31.302 139.844 33.4654C138.524 35.592 136.764 37.242 134.564 38.4154C132.364 39.5887 129.908 40.1754 127.194 40.1754ZM124.884 34.6204C126.828 34.6204 128.514 34.2537 129.944 33.5204C131.411 32.787 132.529 31.7787 133.299 30.4954C134.106 29.1754 134.509 27.6354 134.509 25.8754C134.509 23.2354 133.666 21.1087 131.979 19.4954C130.329 17.882 127.964 17.0754 124.884 17.0754C122.941 17.0754 121.163 17.4237 119.549 18.1204C117.973 18.817 116.726 19.8254 115.809 21.1454C114.893 22.4287 114.434 24.0054 114.434 25.8754C114.434 27.6354 114.856 29.1754 115.699 30.4954C116.543 31.7787 117.753 32.787 119.329 33.5204C120.906 34.2537 122.758 34.6204 124.884 34.6204ZM107.284 12.1804H114.104L114.434 19.4404V50.5154H107.284V12.1804ZM163.199 40.1754C159.753 40.1754 156.709 39.6254 154.069 38.5254C151.466 37.4254 149.431 35.8304 147.964 33.7404C146.498 31.6137 145.764 29.0104 145.764 25.9304C145.764 22.8504 146.498 20.247 147.964 18.1204C149.431 15.957 151.466 14.3254 154.069 13.2254C156.709 12.1254 159.753 11.5754 163.199 11.5754C166.646 11.5754 169.653 12.1254 172.219 13.2254C174.823 14.3254 176.858 15.957 178.324 18.1204C179.791 20.247 180.524 22.8504 180.524 25.9304C180.524 29.0104 179.791 31.6137 178.324 33.7404C176.858 35.8304 174.823 37.4254 172.219 38.5254C169.653 39.6254 166.646 40.1754 163.199 40.1754ZM163.199 34.6754C165.106 34.6754 166.811 34.3454 168.314 33.6854C169.854 32.9887 171.064 31.9987 171.944 30.7154C172.824 29.3954 173.264 27.8004 173.264 25.9304C173.264 24.0604 172.824 22.4654 171.944 21.1454C171.064 19.7887 169.873 18.762 168.369 18.0654C166.866 17.3687 165.143 17.0204 163.199 17.0204C161.293 17.0204 159.569 17.3687 158.029 18.0654C156.489 18.762 155.261 19.7704 154.344 21.0904C153.464 22.4104 153.024 24.0237 153.024 25.9304C153.024 27.8004 153.464 29.3954 154.344 30.7154C155.224 31.9987 156.434 32.9887 157.974 33.6854C159.514 34.3454 161.256 34.6754 163.199 34.6754ZM220.376 34.5654L218.121 34.5104L227.031 12.1804H234.896L222.851 39.5154H216.141L207.341 17.4604H209.761L200.686 39.5154H193.976L182.261 12.1804H190.126L198.706 34.5654H196.451L204.481 12.1804H212.676L220.376 34.5654ZM262.771 30.4404H269.701C269.407 32.3104 268.619 33.9787 267.336 35.4454C266.089 36.912 264.384 38.067 262.221 38.9104C260.057 39.7537 257.417 40.1754 254.301 40.1754C250.817 40.1754 247.737 39.6254 245.061 38.5254C242.384 37.3887 240.294 35.757 238.791 33.6304C237.287 31.5037 236.536 28.937 236.536 25.9304C236.536 22.9237 237.269 20.357 238.736 18.2304C240.202 16.067 242.237 14.417 244.841 13.2804C247.481 12.1437 250.561 11.5754 254.081 11.5754C257.674 11.5754 260.662 12.1437 263.046 13.2804C265.429 14.417 267.189 16.1404 268.326 18.4504C269.499 20.7237 269.994 23.6387 269.811 27.1954H243.741C243.924 28.5887 244.437 29.8537 245.281 30.9904C246.161 32.127 247.334 33.0254 248.801 33.6854C250.304 34.3454 252.082 34.6754 254.136 34.6754C256.409 34.6754 258.297 34.2904 259.801 33.5204C261.341 32.7137 262.331 31.687 262.771 30.4404ZM253.751 17.0204C251.111 17.0204 248.966 17.607 247.316 18.7804C245.666 19.917 244.602 21.3287 244.126 23.0154H262.716C262.532 21.182 261.652 19.7337 260.076 18.6704C258.536 17.5704 256.427 17.0204 253.751 17.0204ZM275.131 12.1804H282.281V39.5154H275.131V12.1804ZM292.786 18.0654C290.733 18.0654 288.954 18.4687 287.451 19.2754C285.948 20.0454 284.738 20.9987 283.821 22.1354C282.904 23.272 282.263 24.372 281.896 25.4354L281.841 22.4104C281.878 21.9704 282.024 21.3287 282.281 20.4854C282.538 19.6054 282.923 18.6704 283.436 17.6804C283.949 16.6537 284.628 15.682 285.471 14.7654C286.314 13.812 287.341 13.042 288.551 12.4554C289.761 11.8687 291.173 11.5754 292.786 11.5754V18.0654ZM305.401 0.190379V6.46038H297.096V0.190379H305.401ZM297.646 12.1804H304.796V39.5154H297.646V12.1804ZM311.923 12.1804H319.073V39.5154H311.923V12.1804ZM331.778 11.5754C333.465 11.5754 335.023 11.7954 336.453 12.2354C337.883 12.6754 339.13 13.3537 340.193 14.2704C341.256 15.187 342.081 16.3604 342.668 17.7904C343.255 19.1837 343.548 20.852 343.548 22.7954V39.5154H336.398V24.0604C336.398 21.7504 335.83 20.0637 334.693 19.0004C333.593 17.9004 331.778 17.3504 329.248 17.3504C327.341 17.3504 325.618 17.717 324.078 18.4504C322.538 19.1837 321.291 20.1187 320.338 21.2554C319.385 22.3554 318.835 23.5104 318.688 24.7204L318.633 21.9154C318.816 20.632 319.238 19.3854 319.898 18.1754C320.558 16.9654 321.438 15.8654 322.538 14.8754C323.675 13.8487 325.013 13.042 326.553 12.4554C328.093 11.8687 329.835 11.5754 331.778 11.5754ZM363.698 35.3354C360.728 35.3354 358.106 34.8954 355.833 34.0154C353.596 33.0987 351.854 31.7604 350.608 30.0004C349.361 28.2404 348.738 26.1137 348.738 23.6204C348.738 21.1637 349.343 19.037 350.553 17.2404C351.763 15.4437 353.486 14.0504 355.723 13.0604C357.996 12.0704 360.654 11.5754 363.698 11.5754C364.541 11.5754 365.348 11.6304 366.118 11.7404C366.924 11.8504 367.713 11.997 368.483 12.1804L382.288 12.2354V17.6254C380.418 17.662 378.511 17.442 376.568 16.9654C374.661 16.452 372.974 15.902 371.508 15.3154L371.343 14.9304C372.589 15.517 373.763 16.2504 374.863 17.1304C375.963 17.9737 376.843 18.9637 377.503 20.1004C378.199 21.2004 378.548 22.4837 378.548 23.9504C378.548 26.3337 377.943 28.387 376.733 30.1104C375.523 31.797 373.799 33.0987 371.563 34.0154C369.363 34.8954 366.741 35.3354 363.698 35.3354ZM372.883 50.7904V49.4704C372.883 47.7837 372.333 46.6104 371.233 45.9504C370.169 45.2904 368.703 44.9604 366.833 44.9604H358.308C356.658 44.9604 355.264 44.832 354.128 44.5754C353.028 44.3187 352.148 43.952 351.488 43.4754C350.828 42.9987 350.351 42.4304 350.058 41.7704C349.764 41.147 349.618 40.4687 349.618 39.7354C349.618 38.2687 350.094 37.1687 351.048 36.4354C352.001 35.6654 353.284 35.152 354.898 34.8954C356.511 34.6387 358.289 34.5837 360.233 34.7304L363.698 35.3354C361.388 35.4087 359.664 35.6104 358.528 35.9404C357.428 36.2337 356.878 36.8387 356.878 37.7554C356.878 38.3054 357.098 38.7454 357.538 39.0754C357.978 39.3687 358.601 39.5154 359.408 39.5154H368.373C370.829 39.5154 372.919 39.772 374.643 40.2854C376.403 40.8354 377.741 41.7337 378.658 42.9804C379.574 44.2637 380.033 46.0054 380.033 48.2054V50.7904H372.883ZM363.698 30.1654C365.274 30.1654 366.649 29.9087 367.823 29.3954C369.033 28.882 369.968 28.1487 370.628 27.1954C371.288 26.2054 371.618 25.032 371.618 23.6754C371.618 22.282 371.288 21.0904 370.628 20.1004C369.968 19.1104 369.051 18.3587 367.878 17.8454C366.704 17.2954 365.311 17.0204 363.698 17.0204C362.121 17.0204 360.728 17.2954 359.518 17.8454C358.308 18.3587 357.373 19.1104 356.713 20.1004C356.053 21.0904 355.723 22.282 355.723 23.6754C355.723 25.032 356.053 26.2054 356.713 27.1954C357.373 28.1487 358.289 28.882 359.463 29.3954C360.673 29.9087 362.084 30.1654 363.698 30.1654ZM397.749 12.1804H405.339L417.164 38.4154L411.004 39.5154L397.749 12.1804ZM431.189 12.1804L412.269 50.5154H404.844L412.929 35.4454L423.544 12.1804H431.189ZM451.466 40.1754C448.019 40.1754 444.976 39.6254 442.336 38.5254C439.732 37.4254 437.697 35.8304 436.231 33.7404C434.764 31.6137 434.031 29.0104 434.031 25.9304C434.031 22.8504 434.764 20.247 436.231 18.1204C437.697 15.957 439.732 14.3254 442.336 13.2254C444.976 12.1254 448.019 11.5754 451.466 11.5754C454.912 11.5754 457.919 12.1254 460.486 13.2254C463.089 14.3254 465.124 15.957 466.591 18.1204C468.057 20.247 468.791 22.8504 468.791 25.9304C468.791 29.0104 468.057 31.6137 466.591 33.7404C465.124 35.8304 463.089 37.4254 460.486 38.5254C457.919 39.6254 454.912 40.1754 451.466 40.1754ZM451.466 34.6754C453.372 34.6754 455.077 34.3454 456.581 33.6854C458.121 32.9887 459.331 31.9987 460.211 30.7154C461.091 29.3954 461.531 27.8004 461.531 25.9304C461.531 24.0604 461.091 22.4654 460.211 21.1454C459.331 19.7887 458.139 18.762 456.636 18.0654C455.132 17.3687 453.409 17.0204 451.466 17.0204C449.559 17.0204 447.836 17.3687 446.296 18.0654C444.756 18.762 443.527 19.7704 442.611 21.0904C441.731 22.4104 441.291 24.0237 441.291 25.9304C441.291 27.8004 441.731 29.3954 442.611 30.7154C443.491 31.9987 444.701 32.9887 446.241 33.6854C447.781 34.3454 449.522 34.6754 451.466 34.6754ZM505.701 39.5154H498.551V12.1804H505.701V39.5154ZM498.936 26.3704L498.991 28.2404C498.918 28.7537 498.735 29.5054 498.441 30.4954C498.148 31.4487 497.69 32.4754 497.066 33.5754C496.48 34.6754 495.71 35.7387 494.756 36.7654C493.803 37.7554 492.63 38.5804 491.236 39.2404C489.843 39.8637 488.193 40.1754 486.286 40.1754C484.783 40.1754 483.298 39.992 481.831 39.6254C480.401 39.2587 479.1 38.6537 477.926 37.8104C476.753 36.9304 475.818 35.757 475.121 34.2904C474.425 32.8237 474.076 30.972 474.076 28.7354V12.1804H481.226V27.5254C481.226 29.2854 481.501 30.6787 482.051 31.7054C482.638 32.6954 483.481 33.392 484.581 33.7954C485.681 34.1987 486.983 34.4004 488.486 34.4004C490.466 34.4004 492.171 33.9787 493.601 33.1354C495.031 32.2554 496.186 31.192 497.066 29.9454C497.983 28.6987 498.606 27.507 498.936 26.3704ZM512.211 12.1804H519.361V39.5154H512.211V12.1804ZM529.866 18.0654C527.813 18.0654 526.034 18.4687 524.531 19.2754C523.028 20.0454 521.818 20.9987 520.901 22.1354C519.984 23.272 519.343 24.372 518.976 25.4354L518.921 22.4104C518.958 21.9704 519.104 21.3287 519.361 20.4854C519.618 19.6054 520.003 18.6704 520.516 17.6804C521.029 16.6537 521.708 15.682 522.551 14.7654C523.394 13.812 524.421 13.042 525.631 12.4554C526.841 11.8687 528.253 11.5754 529.866 11.5754V18.0654ZM9.52145 163.76V157.655H33.0614V163.76H9.52145ZM0.666445 171.515L17.3864 135.93H25.3064L42.1914 171.515H34.2164L19.5864 139.45H23.1064L8.58645 171.515H0.666445ZM46.4299 144.18H53.5799V171.515H46.4299V144.18ZM66.2849 143.575C67.9716 143.575 69.5299 143.795 70.9599 144.235C72.3899 144.675 73.6366 145.354 74.6999 146.27C75.7632 147.187 76.5882 148.36 77.1749 149.79C77.7616 151.184 78.0549 152.852 78.0549 154.795V171.515H70.9049V156.06C70.9049 153.75 70.3365 152.064 69.1999 151C68.0999 149.9 66.2849 149.35 63.7549 149.35C61.8482 149.35 60.1249 149.717 58.5849 150.45C57.0449 151.184 55.7982 152.119 54.8449 153.255C53.8915 154.355 53.3415 155.51 53.1949 156.72L53.1399 153.915C53.3232 152.632 53.7449 151.385 54.4049 150.175C55.0649 148.965 55.9449 147.865 57.0449 146.875C58.1816 145.849 59.5199 145.042 61.0599 144.455C62.5999 143.869 64.3416 143.575 66.2849 143.575ZM81.5525 144.18H89.1425L100.968 170.415L94.8075 171.515L81.5525 144.18ZM114.993 144.18L96.0725 182.515H88.6475L96.7325 167.445L107.348 144.18H114.993ZM154.794 166.565L152.539 166.51L161.449 144.18H169.314L157.269 171.515H150.559L141.759 149.46H144.179L135.104 171.515H128.394L116.679 144.18H124.544L133.124 166.565H130.869L138.899 144.18H147.094L154.794 166.565ZM198.48 171.515V156.5C198.48 154.997 198.223 153.75 197.71 152.76C197.197 151.77 196.372 151.019 195.235 150.505C194.135 149.992 192.65 149.735 190.78 149.735C188.983 149.735 187.352 150.084 185.885 150.78C184.418 151.44 183.227 152.32 182.31 153.42C181.393 154.484 180.88 155.62 180.77 156.83L180.715 153.805C180.898 152.595 181.32 151.385 181.98 150.175C182.64 148.965 183.52 147.865 184.62 146.875C185.72 145.885 187.04 145.097 188.58 144.51C190.157 143.887 191.917 143.575 193.86 143.575C195.547 143.575 197.105 143.795 198.535 144.235C199.965 144.639 201.212 145.28 202.275 146.16C203.338 147.04 204.163 148.14 204.75 149.46C205.337 150.744 205.63 152.265 205.63 154.025V171.515H198.48ZM174.005 171.515V133.18H181.155V171.515H174.005ZM237.043 162.44H243.973C243.68 164.31 242.891 165.979 241.608 167.445C240.361 168.912 238.656 170.067 236.493 170.91C234.33 171.754 231.69 172.175 228.573 172.175C225.09 172.175 222.01 171.625 219.333 170.525C216.656 169.389 214.566 167.757 213.063 165.63C211.56 163.504 210.808 160.937 210.808 157.93C210.808 154.924 211.541 152.357 213.008 150.23C214.475 148.067 216.51 146.417 219.113 145.28C221.753 144.144 224.833 143.575 228.353 143.575C231.946 143.575 234.935 144.144 237.318 145.28C239.701 146.417 241.461 148.14 242.598 150.45C243.771 152.724 244.266 155.639 244.083 159.195H218.013C218.196 160.589 218.71 161.854 219.553 162.99C220.433 164.127 221.606 165.025 223.073 165.685C224.576 166.345 226.355 166.675 228.408 166.675C230.681 166.675 232.57 166.29 234.073 165.52C235.613 164.714 236.603 163.687 237.043 162.44ZM228.023 149.02C225.383 149.02 223.238 149.607 221.588 150.78C219.938 151.917 218.875 153.329 218.398 155.015H236.988C236.805 153.182 235.925 151.734 234.348 150.67C232.808 149.57 230.7 149.02 228.023 149.02ZM249.404 144.18H256.554V171.515H249.404V144.18ZM267.059 150.065C265.005 150.065 263.227 150.469 261.724 151.275C260.22 152.045 259.01 152.999 258.094 154.135C257.177 155.272 256.535 156.372 256.169 157.435L256.114 154.41C256.15 153.97 256.297 153.329 256.554 152.485C256.81 151.605 257.195 150.67 257.709 149.68C258.222 148.654 258.9 147.682 259.744 146.765C260.587 145.812 261.614 145.042 262.824 144.455C264.034 143.869 265.445 143.575 267.059 143.575V150.065ZM296.394 162.44H303.324C303.03 164.31 302.242 165.979 300.959 167.445C299.712 168.912 298.007 170.067 295.844 170.91C293.68 171.754 291.04 172.175 287.924 172.175C284.44 172.175 281.36 171.625 278.684 170.525C276.007 169.389 273.917 167.757 272.414 165.63C270.91 163.504 270.159 160.937 270.159 157.93C270.159 154.924 270.892 152.357 272.359 150.23C273.825 148.067 275.86 146.417 278.464 145.28C281.104 144.144 284.184 143.575 287.704 143.575C291.297 143.575 294.285 144.144 296.669 145.28C299.052 146.417 300.812 148.14 301.949 150.45C303.122 152.724 303.617 155.639 303.434 159.195H277.364C277.547 160.589 278.06 161.854 278.904 162.99C279.784 164.127 280.957 165.025 282.424 165.685C283.927 166.345 285.705 166.675 287.759 166.675C290.032 166.675 291.92 166.29 293.424 165.52C294.964 164.714 295.954 163.687 296.394 162.44ZM287.374 149.02C284.734 149.02 282.589 149.607 280.939 150.78C279.289 151.917 278.225 153.329 277.749 155.015H296.339C296.155 153.182 295.275 151.734 293.699 150.67C292.159 149.57 290.05 149.02 287.374 149.02ZM308.602 179.71L307.612 177.84C308.162 177.034 308.694 176.135 309.207 175.145C309.757 174.155 310.05 173.147 310.087 172.12L307.062 171.515V165.19H315.477V169.7C315.477 172.304 314.854 174.394 313.607 175.97C312.397 177.584 310.729 178.83 308.602 179.71ZM340.703 163.76V157.655H364.243V163.76H340.703ZM331.848 171.515L348.568 135.93H356.488L373.373 171.515H365.398L350.768 139.45H354.288L339.768 171.515H331.848ZM377.612 144.18H384.762V171.515H377.612V144.18ZM397.467 143.575C399.153 143.575 400.712 143.795 402.142 144.235C403.572 144.675 404.818 145.354 405.882 146.27C406.945 147.187 407.77 148.36 408.357 149.79C408.943 151.184 409.237 152.852 409.237 154.795V171.515H402.087V156.06C402.087 153.75 401.518 152.064 400.382 151C399.282 149.9 397.467 149.35 394.937 149.35C393.03 149.35 391.307 149.717 389.767 150.45C388.227 151.184 386.98 152.119 386.027 153.255C385.073 154.355 384.523 155.51 384.377 156.72L384.322 153.915C384.505 152.632 384.927 151.385 385.587 150.175C386.247 148.965 387.127 147.865 388.227 146.875C389.363 145.849 390.702 145.042 392.242 144.455C393.782 143.869 395.523 143.575 397.467 143.575ZM412.734 144.18H420.324L432.149 170.415L425.989 171.515L412.734 144.18ZM446.174 144.18L427.254 182.515H419.829L427.914 167.445L438.529 144.18H446.174ZM448.411 144.18H469.641V149.735H448.411V144.18ZM455.451 136.7H462.601V171.515H455.451V136.7ZM482.379 132.19V138.46H474.074V132.19H482.379ZM474.624 144.18H481.774V171.515H474.624V144.18ZM488.901 144.18H496.051V171.515H488.901V144.18ZM508.756 143.575C510.442 143.575 512.001 143.795 513.431 144.235C514.861 144.675 516.107 145.354 517.171 146.27C518.234 147.187 519.059 148.36 519.646 149.79C520.232 151.184 520.526 152.852 520.526 154.795V171.515H513.376V156.06C513.376 153.75 512.807 152.064 511.671 151C510.571 149.9 508.756 149.35 506.226 149.35C504.319 149.35 502.596 149.717 501.056 150.45C499.516 151.184 498.269 152.119 497.316 153.255C496.362 154.355 495.812 155.51 495.666 156.72L495.611 153.915C495.794 152.632 496.216 151.385 496.876 150.175C497.536 148.965 498.416 147.865 499.516 146.875C500.652 145.849 501.991 145.042 503.531 144.455C505.071 143.869 506.812 143.575 508.756 143.575ZM532.571 143.575C534.257 143.575 535.816 143.795 537.246 144.235C538.676 144.675 539.922 145.354 540.986 146.27C542.049 147.187 542.874 148.36 543.461 149.79C544.084 151.184 544.396 152.852 544.396 154.795V171.515H537.246V156.06C537.246 153.75 536.677 152.064 535.541 151C534.404 149.9 532.571 149.35 530.041 149.35C528.134 149.35 526.411 149.717 524.871 150.45C523.331 151.184 522.084 152.119 521.131 153.255C520.177 154.355 519.646 155.51 519.536 156.72L519.426 153.75C519.609 152.54 520.049 151.33 520.746 150.12C521.442 148.91 522.359 147.81 523.496 146.82C524.632 145.83 525.952 145.042 527.456 144.455C528.996 143.869 530.701 143.575 532.571 143.575ZM575.798 162.44H582.728C582.435 164.31 581.646 165.979 580.363 167.445C579.116 168.912 577.411 170.067 575.248 170.91C573.085 171.754 570.445 172.175 567.328 172.175C563.845 172.175 560.765 171.625 558.088 170.525C555.411 169.389 553.321 167.757 551.818 165.63C550.315 163.504 549.563 160.937 549.563 157.93C549.563 154.924 550.296 152.357 551.763 150.23C553.23 148.067 555.265 146.417 557.868 145.28C560.508 144.144 563.588 143.575 567.108 143.575C570.701 143.575 573.69 144.144 576.073 145.28C578.456 146.417 580.216 148.14 581.353 150.45C582.526 152.724 583.021 155.639 582.838 159.195H556.768C556.951 160.589 557.465 161.854 558.308 162.99C559.188 164.127 560.361 165.025 561.828 165.685C563.331 166.345 565.11 166.675 567.163 166.675C569.436 166.675 571.325 166.29 572.828 165.52C574.368 164.714 575.358 163.687 575.798 162.44ZM566.778 149.02C564.138 149.02 561.993 149.607 560.343 150.78C558.693 151.917 557.63 153.329 557.153 155.015H575.743C575.56 153.182 574.68 151.734 573.103 150.67C571.563 149.57 569.455 149.02 566.778 149.02ZM595.926 165.245V171.515H587.621V165.245H595.926Z" fill="black"/>
<path d="M38.6714 69.9304V76.0354H11.2814V85.6054H33.7214V91.3254H11.2814V105.515H3.96645V69.9304H38.6714ZM51.993 66.1904V72.4604H43.688V66.1904H51.993ZM44.238 78.1804H51.388V105.515H44.238V78.1804ZM58.5148 78.1804H65.6648V105.515H58.5148V78.1804ZM78.3698 77.5754C80.0565 77.5754 81.6148 77.7954 83.0448 78.2354C84.4748 78.6754 85.7215 79.3537 86.7848 80.2704C87.8482 81.187 88.6732 82.3604 89.2598 83.7904C89.8465 85.1837 90.1398 86.852 90.1398 88.7954V105.515H82.9898V90.0604C82.9898 87.7504 82.4215 86.0637 81.2848 85.0004C80.1848 83.9004 78.3698 83.3504 75.8398 83.3504C73.9332 83.3504 72.2098 83.717 70.6698 84.4504C69.1298 85.1837 67.8832 86.1187 66.9298 87.2554C65.9765 88.3554 65.4265 89.5104 65.2798 90.7204L65.2248 87.9154C65.4082 86.632 65.8298 85.3854 66.4898 84.1754C67.1498 82.9654 68.0298 81.8654 69.1298 80.8754C70.2665 79.8487 71.6048 79.042 73.1448 78.4554C74.6848 77.8687 76.4265 77.5754 78.3698 77.5754ZM109.96 106.12C107.246 106.12 104.771 105.534 102.535 104.36C100.335 103.15 98.5746 101.482 97.2546 99.3554C95.9713 97.192 95.3296 94.6987 95.3296 91.8754C95.3296 88.9787 95.9896 86.467 97.3096 84.3404C98.6296 82.2137 100.408 80.5637 102.645 79.3904C104.918 78.1804 107.485 77.5754 110.345 77.5754C113.498 77.5754 116.028 78.217 117.935 79.5004C119.878 80.747 121.29 82.452 122.17 84.6154C123.05 86.7787 123.49 89.1987 123.49 91.8754C123.49 93.4887 123.233 95.1387 122.72 96.8254C122.206 98.4754 121.418 100.015 120.355 101.445C119.291 102.839 117.898 103.975 116.175 104.855C114.451 105.699 112.38 106.12 109.96 106.12ZM112.27 100.62C114.433 100.62 116.303 100.254 117.88 99.5204C119.456 98.787 120.666 97.7604 121.51 96.4404C122.353 95.1204 122.775 93.5987 122.775 91.8754C122.775 90.0054 122.335 88.4287 121.455 87.1454C120.611 85.8254 119.401 84.8354 117.825 84.1754C116.285 83.4787 114.433 83.1304 112.27 83.1304C109.226 83.1304 106.861 83.937 105.175 85.5504C103.488 87.127 102.645 89.2354 102.645 91.8754C102.645 93.6354 103.048 95.1754 103.855 96.4954C104.661 97.7787 105.78 98.787 107.21 99.5204C108.676 100.254 110.363 100.62 112.27 100.62ZM122.775 78.1804H129.925V105.515H123.27C123.27 105.515 123.215 105.167 123.105 104.47C123.031 103.737 122.958 102.82 122.885 101.72C122.811 100.62 122.775 99.5387 122.775 98.4754V78.1804ZM136.396 78.1804H143.546V105.515H136.396V78.1804ZM156.251 77.5754C157.937 77.5754 159.496 77.7954 160.926 78.2354C162.356 78.6754 163.602 79.3537 164.666 80.2704C165.729 81.187 166.554 82.3604 167.141 83.7904C167.727 85.1837 168.021 86.852 168.021 88.7954V105.515H160.871V90.0604C160.871 87.7504 160.302 86.0637 159.166 85.0004C158.066 83.9004 156.251 83.3504 153.721 83.3504C151.814 83.3504 150.091 83.717 148.551 84.4504C147.011 85.1837 145.764 86.1187 144.811 87.2554C143.857 88.3554 143.307 89.5104 143.161 90.7204L143.106 87.9154C143.289 86.632 143.711 85.3854 144.371 84.1754C145.031 82.9654 145.911 81.8654 147.011 80.8754C148.147 79.8487 149.486 79.042 151.026 78.4554C152.566 77.8687 154.307 77.5754 156.251 77.5754ZM206.98 94.7354C206.797 97.1187 206.027 99.172 204.67 100.895C203.35 102.619 201.517 103.939 199.17 104.855C196.824 105.735 194.037 106.175 190.81 106.175C187.437 106.175 184.412 105.644 181.735 104.58C179.095 103.48 177.005 101.885 175.465 99.7954C173.962 97.6687 173.21 95.047 173.21 91.9304C173.21 88.8137 173.962 86.192 175.465 84.0654C177.005 81.9387 179.095 80.3254 181.735 79.2254C184.412 78.1254 187.437 77.5754 190.81 77.5754C194.037 77.5754 196.805 78.0337 199.115 78.9504C201.425 79.8304 203.24 81.1137 204.56 82.8004C205.917 84.487 206.705 86.522 206.925 88.9054H200.38C199.757 87.072 198.602 85.642 196.915 84.6154C195.229 83.5887 193.194 83.0754 190.81 83.0754C188.904 83.0754 187.162 83.4054 185.585 84.0654C184.045 84.7254 182.799 85.7154 181.845 87.0354C180.929 88.3187 180.47 89.9504 180.47 91.9304C180.47 93.8737 180.929 95.5054 181.845 96.8254C182.762 98.1087 184.009 99.0804 185.585 99.7404C187.162 100.364 188.904 100.675 190.81 100.675C193.377 100.675 195.467 100.162 197.08 99.1354C198.73 98.1087 199.849 96.642 200.435 94.7354H206.98ZM220.431 66.1904V72.4604H212.126V66.1904H220.431ZM212.676 78.1804H219.826V105.515H212.676V78.1804ZM240.262 106.12C237.549 106.12 235.074 105.534 232.837 104.36C230.637 103.15 228.877 101.482 227.557 99.3554C226.274 97.192 225.632 94.6987 225.632 91.8754C225.632 88.9787 226.292 86.467 227.612 84.3404C228.932 82.2137 230.711 80.5637 232.947 79.3904C235.221 78.1804 237.787 77.5754 240.647 77.5754C243.801 77.5754 246.331 78.217 248.237 79.5004C250.181 80.747 251.592 82.452 252.472 84.6154C253.352 86.7787 253.792 89.1987 253.792 91.8754C253.792 93.4887 253.536 95.1387 253.022 96.8254C252.509 98.4754 251.721 100.015 250.657 101.445C249.594 102.839 248.201 103.975 246.477 104.855C244.754 105.699 242.682 106.12 240.262 106.12ZM242.572 100.62C244.736 100.62 246.606 100.254 248.182 99.5204C249.759 98.787 250.969 97.7604 251.812 96.4404C252.656 95.1204 253.077 93.5987 253.077 91.8754C253.077 90.0054 252.637 88.4287 251.757 87.1454C250.914 85.8254 249.704 84.8354 248.127 84.1754C246.587 83.4787 244.736 83.1304 242.572 83.1304C239.529 83.1304 237.164 83.937 235.477 85.5504C233.791 87.127 232.947 89.2354 232.947 91.8754C232.947 93.6354 233.351 95.1754 234.157 96.4954C234.964 97.7787 236.082 98.787 237.512 99.5204C238.979 100.254 240.666 100.62 242.572 100.62ZM253.077 78.1804H260.227V105.515H253.572C253.572 105.515 253.517 105.167 253.407 104.47C253.334 103.737 253.261 102.82 253.187 101.72C253.114 100.62 253.077 99.5387 253.077 98.4754V78.1804ZM267.248 67.1804H274.398V105.515H267.248V67.1804ZM316.182 69.9304C320.178 69.9304 323.515 70.407 326.192 71.3604C328.868 72.3137 330.995 73.6154 332.572 75.2654C334.185 76.8787 335.322 78.7487 335.982 80.8754C336.678 83.002 337.027 85.2387 337.027 87.5854C337.027 89.932 336.642 92.187 335.872 94.3504C335.138 96.5137 333.947 98.4387 332.297 100.125C330.683 101.775 328.538 103.095 325.862 104.085C323.222 105.039 319.995 105.515 316.182 105.515H295.832V69.9304H316.182ZM303.147 99.2454H316.017C318.657 99.2454 320.838 98.9337 322.562 98.3104C324.322 97.6504 325.715 96.7704 326.742 95.6704C327.768 94.5704 328.502 93.3237 328.942 91.9304C329.382 90.537 329.602 89.0887 329.602 87.5854C329.602 86.082 329.382 84.652 328.942 83.2954C328.502 81.9387 327.768 80.7287 326.742 79.6654C325.715 78.602 324.322 77.7587 322.562 77.1354C320.838 76.512 318.657 76.2004 316.017 76.2004H303.147V99.2454ZM343.237 78.1804H350.387V105.515H343.237V78.1804ZM360.892 84.0654C358.838 84.0654 357.06 84.4687 355.557 85.2754C354.053 86.0454 352.843 86.9987 351.927 88.1354C351.01 89.272 350.368 90.372 350.002 91.4354L349.947 88.4104C349.983 87.9704 350.13 87.3287 350.387 86.4854C350.643 85.6054 351.028 84.6704 351.542 83.6804C352.055 82.6537 352.733 81.682 353.577 80.7654C354.42 79.812 355.447 79.042 356.657 78.4554C357.867 77.8687 359.278 77.5754 360.892 77.5754V84.0654ZM390.227 96.4404H397.157C396.863 98.3104 396.075 99.9787 394.792 101.445C393.545 102.912 391.84 104.067 389.677 104.91C387.513 105.754 384.873 106.175 381.757 106.175C378.273 106.175 375.193 105.625 372.517 104.525C369.84 103.389 367.75 101.757 366.247 99.6304C364.743 97.5037 363.992 94.937 363.992 91.9304C363.992 88.9237 364.725 86.357 366.192 84.2304C367.658 82.067 369.693 80.417 372.297 79.2804C374.937 78.1437 378.017 77.5754 381.537 77.5754C385.13 77.5754 388.118 78.1437 390.502 79.2804C392.885 80.417 394.645 82.1404 395.782 84.4504C396.955 86.7237 397.45 89.6387 397.267 93.1954H371.197C371.38 94.5887 371.893 95.8537 372.737 96.9904C373.617 98.127 374.79 99.0254 376.257 99.6854C377.76 100.345 379.538 100.675 381.592 100.675C383.865 100.675 385.753 100.29 387.257 99.5204C388.797 98.7137 389.787 97.687 390.227 96.4404ZM381.207 83.0204C378.567 83.0204 376.422 83.607 374.772 84.7804C373.122 85.917 372.058 87.3287 371.582 89.0154H390.172C389.988 87.182 389.108 85.7337 387.532 84.6704C385.992 83.5704 383.883 83.0204 381.207 83.0204ZM415.897 106.12C413.184 106.12 410.709 105.534 408.472 104.36C406.272 103.15 404.512 101.482 403.192 99.3554C401.909 97.192 401.267 94.6987 401.267 91.8754C401.267 88.9787 401.927 86.467 403.247 84.3404C404.567 82.2137 406.345 80.5637 408.582 79.3904C410.855 78.1804 413.422 77.5754 416.282 77.5754C419.435 77.5754 421.965 78.217 423.872 79.5004C425.815 80.747 427.227 82.452 428.107 84.6154C428.987 86.7787 429.427 89.1987 429.427 91.8754C429.427 93.4887 429.17 95.1387 428.657 96.8254C428.144 98.4754 427.355 100.015 426.292 101.445C425.229 102.839 423.835 103.975 422.112 104.855C420.389 105.699 418.317 106.12 415.897 106.12ZM418.207 100.62C420.37 100.62 422.24 100.254 423.817 99.5204C425.394 98.787 426.604 97.7604 427.447 96.4404C428.29 95.1204 428.712 93.5987 428.712 91.8754C428.712 90.0054 428.272 88.4287 427.392 87.1454C426.549 85.8254 425.339 84.8354 423.762 84.1754C422.222 83.4787 420.37 83.1304 418.207 83.1304C415.164 83.1304 412.799 83.937 411.112 85.5504C409.425 87.127 408.582 89.2354 408.582 91.8754C408.582 93.6354 408.985 95.1754 409.792 96.4954C410.599 97.7787 411.717 98.787 413.147 99.5204C414.614 100.254 416.3 100.62 418.207 100.62ZM428.712 78.1804H435.862V105.515H429.207C429.207 105.515 429.152 105.167 429.042 104.47C428.969 103.737 428.895 102.82 428.822 101.72C428.749 100.62 428.712 99.5387 428.712 98.4754V78.1804ZM442.333 78.1804H449.483V105.515H442.333V78.1804ZM462.188 77.5754C463.875 77.5754 465.433 77.7954 466.863 78.2354C468.293 78.6754 469.54 79.3537 470.603 80.2704C471.667 81.187 472.492 82.3604 473.078 83.7904C473.665 85.1837 473.958 86.852 473.958 88.7954V105.515H466.808V90.0604C466.808 87.7504 466.24 86.0637 465.103 85.0004C464.003 83.9004 462.188 83.3504 459.658 83.3504C457.752 83.3504 456.028 83.717 454.488 84.4504C452.948 85.1837 451.702 86.1187 450.748 87.2554C449.795 88.3554 449.245 89.5104 449.098 90.7204L449.043 87.9154C449.227 86.632 449.648 85.3854 450.308 84.1754C450.968 82.9654 451.848 81.8654 452.948 80.8754C454.085 79.8487 455.423 79.042 456.963 78.4554C458.503 77.8687 460.245 77.5754 462.188 77.5754ZM486.003 77.5754C487.69 77.5754 489.248 77.7954 490.678 78.2354C492.108 78.6754 493.355 79.3537 494.418 80.2704C495.482 81.187 496.307 82.3604 496.893 83.7904C497.517 85.1837 497.828 86.852 497.828 88.7954V105.515H490.678V90.0604C490.678 87.7504 490.11 86.0637 488.973 85.0004C487.837 83.9004 486.003 83.3504 483.473 83.3504C481.567 83.3504 479.843 83.717 478.303 84.4504C476.763 85.1837 475.517 86.1187 474.563 87.2554C473.61 88.3554 473.078 89.5104 472.968 90.7204L472.858 87.7504C473.042 86.5404 473.482 85.3304 474.178 84.1204C474.875 82.9104 475.792 81.8104 476.928 80.8204C478.065 79.8304 479.385 79.042 480.888 78.4554C482.428 77.8687 484.133 77.5754 486.003 77.5754ZM503.216 96.4404H509.816C510.219 97.687 511.044 98.7137 512.291 99.5204C513.574 100.29 515.242 100.675 517.296 100.675C518.689 100.675 519.771 100.547 520.541 100.29C521.311 100.034 521.842 99.667 522.136 99.1904C522.429 98.677 522.576 98.1087 522.576 97.4854C522.576 96.7154 522.337 96.1287 521.861 95.7254C521.384 95.2854 520.651 94.937 519.661 94.6804C518.671 94.4237 517.406 94.1854 515.866 93.9654C514.326 93.7087 512.841 93.397 511.411 93.0304C509.981 92.6637 508.716 92.187 507.616 91.6004C506.516 90.977 505.636 90.207 504.976 89.2904C504.352 88.337 504.041 87.182 504.041 85.8254C504.041 84.5054 504.352 83.332 504.976 82.3054C505.636 81.2787 506.534 80.417 507.671 79.7204C508.844 79.0237 510.201 78.492 511.741 78.1254C513.317 77.7587 515.004 77.5754 516.801 77.5754C519.514 77.5754 521.769 77.9787 523.566 78.7854C525.362 79.5554 526.701 80.6554 527.581 82.0854C528.497 83.4787 528.956 85.092 528.956 86.9254H522.631C522.337 85.5687 521.751 84.597 520.871 84.0104C519.991 83.387 518.634 83.0754 516.801 83.0754C515.004 83.0754 513.647 83.3504 512.731 83.9004C511.814 84.4504 511.356 85.202 511.356 86.1554C511.356 86.9254 511.631 87.5304 512.181 87.9704C512.767 88.3737 513.611 88.7037 514.711 88.9604C515.847 89.217 517.259 89.492 518.946 89.7854C520.376 90.0787 521.732 90.4087 523.016 90.7754C524.336 91.142 525.509 91.6187 526.536 92.2054C527.562 92.7554 528.369 93.507 528.956 94.4604C529.579 95.377 529.891 96.5504 529.891 97.9804C529.891 99.7404 529.377 101.225 528.351 102.435C527.361 103.645 525.931 104.58 524.061 105.24C522.191 105.864 519.954 106.175 517.351 106.175C515.041 106.175 513.042 105.937 511.356 105.46C509.706 104.947 508.331 104.305 507.231 103.535C506.131 102.729 505.269 101.885 504.646 101.005C504.059 100.089 503.656 99.227 503.436 98.4204C503.216 97.6137 503.142 96.9537 503.216 96.4404ZM536.791 69.0504H544.051V94.4054H536.791V69.0504ZM544.601 99.2454V105.515H536.296V99.2454H544.601Z" fill="#23A323"/>
</svg>
