<svg width="164" height="59" viewBox="0 0 164 59" fill="none" xmlns="http://www.w3.org/2000/svg">
<rect x="1" y="0.713135" width="161.995" height="57.2265" rx="28.6132" stroke="black" stroke-width="1.32061"/>
<g clip-path="url(#clip0_15530_152189)">
<path d="M38.6394 21.1043C40.2106 21.1043 41.589 20.4907 42.7745 19.2635C43.96 18.0364 44.5528 16.6094 44.5528 14.9826C44.5528 14.804 44.5387 14.5501 44.5105 14.2209C44.3035 14.2492 44.1482 14.2727 44.0447 14.2915C42.5958 14.4984 41.3209 15.2083 40.22 16.4213C39.1192 17.6344 38.5688 18.9321 38.5688 20.3144C38.5688 20.4742 38.5923 20.7375 38.6394 21.1043ZM44.2705 42.671C45.3902 42.671 46.6274 41.9047 47.9823 40.3719C49.3372 38.8391 50.3721 37.0384 51.0872 34.9696C48.4245 33.5967 47.0932 31.6267 47.0932 29.0596C47.0932 26.9156 48.1705 25.0819 50.3251 23.5586C48.8291 21.6873 46.8532 20.7516 44.3976 20.7516C43.3626 20.7516 42.417 20.9068 41.5608 21.2171L41.0245 21.4146L40.3047 21.6967C39.8343 21.8753 39.4062 21.9647 39.0204 21.9647C38.7193 21.9647 38.3242 21.8612 37.8349 21.6544L37.2845 21.4287L36.7623 21.2171C36.0002 20.8974 35.1816 20.7375 34.3066 20.7375C31.9639 20.7375 30.0821 21.5274 28.6614 23.1072C27.2406 24.687 26.5303 26.7698 26.5303 29.3558C26.5303 32.9949 27.6687 36.3566 29.9457 39.441C31.5263 41.5943 32.9706 42.671 34.2784 42.671C34.8335 42.671 35.3839 42.5629 35.9296 42.3466L36.6212 42.0645L37.1716 41.867C37.9431 41.5943 38.6535 41.458 39.3027 41.458C39.9895 41.458 40.7799 41.632 41.6737 41.9799L42.1112 42.1491C43.0238 42.4971 43.7437 42.671 44.2705 42.671Z" fill="black"/>
</g>
<path d="M71.0449 23.1535C70.9745 23.6465 70.8054 24.0726 70.5378 24.4318C70.2701 24.791 69.9286 25.0692 69.513 25.2664C69.1045 25.4566 68.6467 25.5517 68.1396 25.5517C67.6677 25.5517 67.231 25.4707 66.8295 25.3087C66.4281 25.1397 66.0759 24.9002 65.773 24.5903C65.4772 24.2804 65.2448 23.9071 65.0757 23.4704C64.9067 23.0337 64.8222 22.5477 64.8222 22.0125C64.8222 21.4701 64.9067 20.9841 65.0757 20.5545C65.2448 20.1178 65.4772 19.7445 65.773 19.4346C66.0759 19.1247 66.4281 18.8888 66.8295 18.7268C67.231 18.5577 67.6677 18.4732 68.1396 18.4732C68.6537 18.4732 69.1151 18.5718 69.5236 18.769C69.9391 18.9592 70.2807 19.2374 70.5484 19.6037C70.816 19.9629 70.985 20.3925 71.0555 20.8926H70.2737C70.1751 20.5404 70.0201 20.2446 69.8088 20.0051C69.6046 19.7657 69.358 19.5825 69.0693 19.4558C68.7805 19.329 68.4706 19.2656 68.1396 19.2656C67.7099 19.2656 67.3049 19.3712 66.9246 19.5825C66.5513 19.7938 66.2484 20.1037 66.016 20.5122C65.7836 20.9208 65.6674 21.4208 65.6674 22.0125C65.6674 22.6041 65.7836 23.1042 66.016 23.5127C66.2484 23.9212 66.5513 24.2311 66.9246 24.4424C67.3049 24.6537 67.7099 24.7593 68.1396 24.7593C68.4706 24.7593 68.777 24.6995 69.0587 24.5797C69.3475 24.4529 69.594 24.2698 69.7983 24.0304C70.0095 23.7909 70.1645 23.4986 70.2631 23.1535H71.0449ZM74.5676 25.5517C74.1168 25.5517 73.6942 25.4425 73.2998 25.2242C72.9053 25.0058 72.5849 24.6924 72.3384 24.2839C72.0989 23.8684 71.9792 23.3788 71.9792 22.8154C71.9792 22.2519 72.0989 21.7659 72.3384 21.3574C72.5849 20.9419 72.9053 20.6214 73.2998 20.396C73.6942 20.1706 74.1168 20.058 74.5676 20.058C75.0183 20.058 75.4374 20.1706 75.8248 20.396C76.2192 20.6214 76.5361 20.9419 76.7756 21.3574C77.0151 21.7659 77.1348 22.2519 77.1348 22.8154C77.1348 23.3788 77.0151 23.8684 76.7756 24.2839C76.5361 24.6924 76.2192 25.0058 75.8248 25.2242C75.4374 25.4425 75.0183 25.5517 74.5676 25.5517ZM74.5676 24.7593C74.8634 24.7593 75.1416 24.6854 75.4022 24.5375C75.6628 24.3896 75.8741 24.1712 76.0361 23.8824C76.2051 23.5866 76.2896 23.2309 76.2896 22.8154C76.2896 22.3998 76.2051 22.0477 76.0361 21.7589C75.8741 21.4631 75.6628 21.2377 75.4022 21.0827C75.1416 20.9278 74.8634 20.8503 74.5676 20.8503C74.2717 20.8503 73.99 20.9278 73.7224 21.0827C73.4618 21.2307 73.2469 21.4525 73.0779 21.7483C72.9089 22.0371 72.8243 22.3928 72.8243 22.8154C72.8243 23.2309 72.9053 23.5866 73.0673 23.8824C73.2364 24.1712 73.4547 24.3896 73.7224 24.5375C73.99 24.6854 74.2717 24.7593 74.5676 24.7593ZM78.2074 20.1636H79.0526V25.446H78.2074V20.1636ZM80.8698 20.058C81.1515 20.058 81.405 20.1002 81.6304 20.1847C81.8558 20.2693 82.046 20.3925 82.2009 20.5545C82.3559 20.7165 82.4756 20.9137 82.5601 21.1461C82.6447 21.3715 82.6869 21.6286 82.6869 21.9174V25.446H81.8417V22.1287C81.8417 21.7202 81.7466 21.4138 81.5565 21.2095C81.3663 21.0053 81.0811 20.9031 80.7007 20.9031C80.4119 20.9031 80.1443 20.9771 79.8978 21.125C79.6513 21.2729 79.447 21.4772 79.285 21.7378C79.1301 21.9913 79.035 22.2871 78.9998 22.6252L78.9892 22.0125C79.0244 21.7166 79.0949 21.449 79.2005 21.2095C79.3132 20.9701 79.4505 20.7658 79.6125 20.5968C79.7816 20.4207 79.9717 20.2869 80.183 20.1953C80.4014 20.1037 80.6303 20.058 80.8698 20.058ZM84.4196 20.058C84.7013 20.058 84.9548 20.1002 85.1802 20.1847C85.4056 20.2693 85.5958 20.3925 85.7507 20.5545C85.9057 20.7165 86.0254 20.9137 86.1099 21.1461C86.1945 21.3715 86.2367 21.6286 86.2367 21.9174V25.446H85.3915V22.1287C85.3915 21.7202 85.2964 21.4138 85.1063 21.2095C84.9161 21.0053 84.6309 20.9031 84.2505 20.9031C83.9617 20.9031 83.6941 20.9771 83.4476 21.125C83.2011 21.2729 82.9968 21.4772 82.8348 21.7378C82.6799 21.9913 82.5848 22.2871 82.5496 22.6252L82.539 22.0125C82.5742 21.7166 82.6447 21.449 82.7503 21.2095C82.863 20.9701 83.0003 20.7658 83.1623 20.5968C83.3314 20.4207 83.5215 20.2869 83.7328 20.1953C83.9512 20.1037 84.1801 20.058 84.4196 20.058ZM88.6524 18.0506V19.0754H87.5536V18.0506H88.6524ZM87.6804 20.1636H88.5256V25.446H87.6804V20.1636ZM89.9691 20.1636H90.8143V25.446H89.9691V20.1636ZM92.6314 20.058C92.9132 20.058 93.1667 20.1002 93.3921 20.1847C93.6175 20.2693 93.8077 20.3925 93.9626 20.5545C94.1176 20.7165 94.2373 20.9137 94.3218 21.1461C94.4063 21.3715 94.4486 21.6286 94.4486 21.9174V25.446H93.6034V22.1287C93.6034 21.7202 93.5083 21.4138 93.3182 21.2095C93.128 21.0053 92.8427 20.9031 92.4624 20.9031C92.1736 20.9031 91.906 20.9771 91.6595 21.125C91.413 21.2729 91.2087 21.4772 91.0467 21.7378C90.8918 21.9913 90.7967 22.2871 90.7615 22.6252L90.7509 22.0125C90.7861 21.7166 90.8565 21.449 90.9622 21.2095C91.0749 20.9701 91.2122 20.7658 91.3742 20.5968C91.5433 20.4207 91.7334 20.2869 91.9447 20.1953C92.1631 20.1037 92.392 20.058 92.6314 20.058ZM97.7101 24.6114C97.3368 24.6114 96.9811 24.5234 96.643 24.3473C96.312 24.1642 96.0408 23.9036 95.8295 23.5655C95.6253 23.2274 95.5232 22.8224 95.5232 22.3505C95.5232 21.8786 95.6253 21.4736 95.8295 21.1356C96.0338 20.7905 96.3014 20.5263 96.6325 20.3432C96.9635 20.153 97.3227 20.058 97.7101 20.058C97.8298 20.058 97.9425 20.0685 98.0482 20.0896C98.1609 20.1037 98.2665 20.1284 98.3651 20.1636H100.51V21.0722C100.207 21.0722 99.9041 21.0158 99.6012 20.9031C99.3054 20.7905 99.0518 20.6742 98.8405 20.5545L98.7983 20.5122C99.0448 20.6461 99.2455 20.8045 99.4005 20.9877C99.5625 21.1708 99.6822 21.3786 99.7597 21.611C99.8442 21.8364 99.8865 22.0829 99.8865 22.3505C99.8865 22.8224 99.7843 23.2274 99.5801 23.5655C99.3829 23.9036 99.1188 24.1642 98.7877 24.3473C98.4567 24.5234 98.0975 24.6114 97.7101 24.6114ZM99.2631 27.559V27.3266C99.2631 26.9533 99.1645 26.6821 98.9673 26.5131C98.7772 26.3441 98.4884 26.2595 98.101 26.2595H97.0445C96.8121 26.2595 96.6078 26.2384 96.4317 26.1962C96.2627 26.1609 96.1218 26.1046 96.0092 26.0271C95.8965 25.9496 95.8119 25.8546 95.7556 25.7419C95.6992 25.6292 95.6711 25.5024 95.6711 25.3615C95.6711 25.0939 95.7521 24.8931 95.9141 24.7593C96.0761 24.6185 96.2768 24.5304 96.5163 24.4952C96.7557 24.46 96.9846 24.46 97.203 24.4952L97.7101 24.6114C97.3298 24.6325 97.0339 24.6713 96.8226 24.7276C96.6184 24.784 96.5163 24.9037 96.5163 25.0868C96.5163 25.1925 96.555 25.2805 96.6325 25.351C96.717 25.4144 96.8403 25.446 97.0023 25.446H98.101C98.4672 25.446 98.8018 25.4953 99.1047 25.594C99.4075 25.6996 99.6505 25.8722 99.8336 26.1116C100.017 26.3581 100.108 26.6927 100.108 27.1153V27.559H99.2631ZM97.7101 23.8191C97.9425 23.8191 98.1573 23.7627 98.3546 23.65C98.5588 23.5373 98.7243 23.3718 98.8511 23.1535C98.9779 22.9351 99.0413 22.6675 99.0413 22.3505C99.0413 22.0336 98.9779 21.7659 98.8511 21.5476C98.7314 21.3222 98.5694 21.1532 98.3651 21.0405C98.1609 20.9208 97.9425 20.8609 97.7101 20.8609C97.4777 20.8609 97.2593 20.9208 97.0551 21.0405C96.8508 21.1532 96.6853 21.3187 96.5585 21.537C96.4317 21.7554 96.3684 22.0265 96.3684 22.3505C96.3684 22.6675 96.4317 22.9351 96.5585 23.1535C96.6853 23.3718 96.8508 23.5373 97.0551 23.65C97.2593 23.7627 97.4777 23.8191 97.7101 23.8191ZM103.468 23.7451H104.25C104.271 24.048 104.384 24.2945 104.588 24.4846C104.8 24.6748 105.102 24.7699 105.497 24.7699C105.736 24.7699 105.923 24.7382 106.057 24.6748C106.198 24.6114 106.3 24.5269 106.363 24.4213C106.427 24.3086 106.458 24.1853 106.458 24.0515C106.458 23.8895 106.416 23.7627 106.332 23.6711C106.254 23.5725 106.145 23.4915 106.004 23.4282C105.87 23.3648 105.715 23.3049 105.539 23.2485C105.335 23.1711 105.124 23.0901 104.905 23.0056C104.694 22.914 104.493 22.8083 104.303 22.6886C104.12 22.5618 103.972 22.4104 103.859 22.2343C103.747 22.0512 103.69 21.8329 103.69 21.5793C103.69 21.368 103.733 21.1708 103.817 20.9877C103.902 20.7975 104.021 20.6355 104.176 20.5017C104.338 20.3608 104.525 20.2516 104.736 20.1742C104.955 20.0967 105.194 20.058 105.455 20.058C105.807 20.058 106.103 20.1284 106.342 20.2693C106.589 20.4101 106.775 20.6108 106.902 20.8714C107.036 21.125 107.106 21.4208 107.113 21.7589H106.384C106.335 21.442 106.233 21.213 106.078 21.0722C105.93 20.9243 105.715 20.8503 105.434 20.8503C105.145 20.8503 104.923 20.9137 104.768 21.0405C104.613 21.1673 104.536 21.3363 104.536 21.5476C104.536 21.7026 104.592 21.8329 104.705 21.9385C104.817 22.0371 104.962 22.1287 105.138 22.2132C105.321 22.2907 105.515 22.3717 105.719 22.4562C105.923 22.5407 106.12 22.6252 106.31 22.7097C106.501 22.7943 106.67 22.8929 106.818 23.0056C106.965 23.1182 107.082 23.2591 107.166 23.4282C107.258 23.5901 107.304 23.7944 107.304 24.0409C107.304 24.3367 107.233 24.6009 107.092 24.8333C106.958 25.0587 106.758 25.2347 106.49 25.3615C106.229 25.4883 105.909 25.5517 105.529 25.5517C105.183 25.5517 104.888 25.5094 104.641 25.4249C104.402 25.3334 104.201 25.2171 104.039 25.0763C103.877 24.9284 103.75 24.7734 103.659 24.6114C103.574 24.4494 103.518 24.291 103.49 24.136C103.461 23.981 103.454 23.8507 103.468 23.7451ZM110.678 25.5517C110.227 25.5517 109.805 25.4425 109.41 25.2242C109.016 25.0058 108.695 24.6924 108.449 24.2839C108.209 23.8684 108.09 23.3788 108.09 22.8154C108.09 22.2519 108.209 21.7659 108.449 21.3574C108.695 20.9419 109.016 20.6214 109.41 20.396C109.805 20.1706 110.227 20.058 110.678 20.058C111.129 20.058 111.548 20.1706 111.935 20.396C112.33 20.6214 112.647 20.9419 112.886 21.3574C113.126 21.7659 113.245 22.2519 113.245 22.8154C113.245 23.3788 113.126 23.8684 112.886 24.2839C112.647 24.6924 112.33 25.0058 111.935 25.2242C111.548 25.4425 111.129 25.5517 110.678 25.5517ZM110.678 24.7593C110.974 24.7593 111.252 24.6854 111.513 24.5375C111.773 24.3896 111.985 24.1712 112.147 23.8824C112.316 23.5866 112.4 23.2309 112.4 22.8154C112.4 22.3998 112.316 22.0477 112.147 21.7589C111.985 21.4631 111.773 21.2377 111.513 21.0827C111.252 20.9278 110.974 20.8503 110.678 20.8503C110.382 20.8503 110.1 20.9278 109.833 21.0827C109.572 21.2307 109.357 21.4525 109.188 21.7483C109.019 22.0371 108.935 22.3928 108.935 22.8154C108.935 23.2309 109.016 23.5866 109.178 23.8824C109.347 24.1712 109.565 24.3896 109.833 24.5375C110.1 24.6854 110.382 24.7593 110.678 24.7593ZM116.61 25.5517C116.16 25.5517 115.737 25.4425 115.343 25.2242C114.948 25.0058 114.628 24.6924 114.381 24.2839C114.142 23.8684 114.022 23.3788 114.022 22.8154C114.022 22.2519 114.142 21.7659 114.381 21.3574C114.628 20.9419 114.948 20.6214 115.343 20.396C115.737 20.1706 116.16 20.058 116.61 20.058C117.061 20.058 117.48 20.1706 117.868 20.396C118.262 20.6214 118.579 20.9419 118.818 21.3574C119.058 21.7659 119.178 22.2519 119.178 22.8154C119.178 23.3788 119.058 23.8684 118.818 24.2839C118.579 24.6924 118.262 25.0058 117.868 25.2242C117.48 25.4425 117.061 25.5517 116.61 25.5517ZM116.61 24.7593C116.906 24.7593 117.184 24.6854 117.445 24.5375C117.706 24.3896 117.917 24.1712 118.079 23.8824C118.248 23.5866 118.333 23.2309 118.333 22.8154C118.333 22.3998 118.248 22.0477 118.079 21.7589C117.917 21.4631 117.706 21.2377 117.445 21.0827C117.184 20.9278 116.906 20.8503 116.61 20.8503C116.315 20.8503 116.033 20.9278 115.765 21.0827C115.505 21.2307 115.29 21.4525 115.121 21.7483C114.952 22.0371 114.867 22.3928 114.867 22.8154C114.867 23.2309 114.948 23.5866 115.11 23.8824C115.279 24.1712 115.498 24.3896 115.765 24.5375C116.033 24.6854 116.315 24.7593 116.61 24.7593ZM120.25 20.1636H121.095V25.446H120.25V20.1636ZM122.913 20.058C123.194 20.058 123.448 20.1002 123.673 20.1847C123.899 20.2693 124.089 20.3925 124.244 20.5545C124.399 20.7165 124.518 20.9137 124.603 21.1461C124.688 21.3715 124.73 21.6286 124.73 21.9174V25.446H123.885V22.1287C123.885 21.7202 123.79 21.4138 123.599 21.2095C123.409 21.0053 123.124 20.9031 122.744 20.9031C122.455 20.9031 122.187 20.9771 121.941 21.125C121.694 21.2729 121.49 21.4772 121.328 21.7378C121.173 21.9913 121.078 22.2871 121.043 22.6252L121.032 22.0125C121.067 21.7166 121.138 21.449 121.243 21.2095C121.356 20.9701 121.493 20.7658 121.655 20.5968C121.824 20.4207 122.015 20.2869 122.226 20.1953C122.444 20.1037 122.673 20.058 122.913 20.058ZM130.611 25.5517C130.16 25.5517 129.738 25.4425 129.343 25.2242C128.949 25.0058 128.628 24.6924 128.382 24.2839C128.142 23.8684 128.023 23.3788 128.023 22.8154C128.023 22.2519 128.142 21.7659 128.382 21.3574C128.628 20.9419 128.949 20.6214 129.343 20.396C129.738 20.1706 130.16 20.058 130.611 20.058C131.062 20.058 131.481 20.1706 131.868 20.396C132.263 20.6214 132.58 20.9419 132.819 21.3574C133.059 21.7659 133.178 22.2519 133.178 22.8154C133.178 23.3788 133.059 23.8684 132.819 24.2839C132.58 24.6924 132.263 25.0058 131.868 25.2242C131.481 25.4425 131.062 25.5517 130.611 25.5517ZM130.611 24.7593C130.907 24.7593 131.185 24.6854 131.446 24.5375C131.706 24.3896 131.917 24.1712 132.079 23.8824C132.249 23.5866 132.333 23.2309 132.333 22.8154C132.333 22.3998 132.249 22.0477 132.079 21.7589C131.917 21.4631 131.706 21.2377 131.446 21.0827C131.185 20.9278 130.907 20.8503 130.611 20.8503C130.315 20.8503 130.033 20.9278 129.766 21.0827C129.505 21.2307 129.29 21.4525 129.121 21.7483C128.952 22.0371 128.868 22.3928 128.868 22.8154C128.868 23.2309 128.949 23.5866 129.111 23.8824C129.28 24.1712 129.498 24.3896 129.766 24.5375C130.033 24.6854 130.315 24.7593 130.611 24.7593ZM134.251 20.1636H135.096V25.446H134.251V20.1636ZM136.913 20.058C137.195 20.058 137.448 20.1002 137.674 20.1847C137.899 20.2693 138.089 20.3925 138.244 20.5545C138.399 20.7165 138.519 20.9137 138.604 21.1461C138.688 21.3715 138.73 21.6286 138.73 21.9174V25.446H137.885V22.1287C137.885 21.7202 137.79 21.4138 137.6 21.2095C137.41 21.0053 137.124 20.9031 136.744 20.9031C136.455 20.9031 136.188 20.9771 135.941 21.125C135.695 21.2729 135.49 21.4772 135.328 21.7378C135.173 21.9913 135.078 22.2871 135.043 22.6252L135.033 22.0125C135.068 21.7166 135.138 21.449 135.244 21.2095C135.357 20.9701 135.494 20.7658 135.656 20.5968C135.825 20.4207 136.015 20.2869 136.226 20.1953C136.445 20.1037 136.674 20.058 136.913 20.058ZM66.1745 36.9564V35.7837H70.6963V36.9564H66.1745ZM64.4735 38.446L67.6853 31.6106H69.2066L72.45 38.446H70.9181L68.1079 32.2867H68.784L65.9949 38.446H64.4735ZM77.0887 38.5728C76.6238 38.5728 76.2259 38.4918 75.8948 38.3298C75.5709 38.1608 75.3067 37.9425 75.1025 37.6748C74.8982 37.4001 74.7468 37.1008 74.6482 36.7768C74.5496 36.4528 74.5003 36.1359 74.5003 35.826C74.5003 35.4386 74.5461 35.0794 74.6376 34.7483C74.7362 34.4173 74.8877 34.1285 75.0919 33.882C75.2962 33.6285 75.5603 33.4312 75.8843 33.2904C76.2153 33.1495 76.6168 33.0791 77.0887 33.0791C77.6169 33.0791 78.0923 33.1953 78.5149 33.4277C78.9375 33.6602 79.2721 33.9841 79.5186 34.3997C79.7722 34.8082 79.8989 35.2836 79.8989 35.826C79.8989 36.3824 79.7722 36.8684 79.5186 37.2839C79.265 37.6924 78.927 38.0094 78.5044 38.2347C78.0818 38.4601 77.6099 38.5728 77.0887 38.5728ZM76.645 37.5058C77.0182 37.5058 77.3422 37.4353 77.6169 37.2945C77.8987 37.1536 78.1135 36.9599 78.2614 36.7134C78.4163 36.4598 78.4938 36.164 78.4938 35.826C78.4938 35.3188 78.3318 34.9103 78.0078 34.6004C77.6909 34.2905 77.2366 34.1356 76.645 34.1356C76.2717 34.1356 75.9301 34.2025 75.6202 34.3363C75.3173 34.4701 75.0778 34.6638 74.9017 34.9174C74.7257 35.1639 74.6376 35.4667 74.6376 35.826C74.6376 36.164 74.7186 36.4598 74.8806 36.7134C75.0426 36.9599 75.275 37.1536 75.5779 37.2945C75.8808 37.4353 76.2364 37.5058 76.645 37.5058ZM73.2642 33.1953H74.5742L74.6376 34.5899V40.559H73.2642V33.1953ZM84.7338 38.5728C84.2689 38.5728 83.871 38.4918 83.5399 38.3298C83.216 38.1608 82.9518 37.9425 82.7476 37.6748C82.5433 37.4001 82.3919 37.1008 82.2933 36.7768C82.1947 36.4528 82.1454 36.1359 82.1454 35.826C82.1454 35.4386 82.1912 35.0794 82.2827 34.7483C82.3813 34.4173 82.5328 34.1285 82.737 33.882C82.9413 33.6285 83.2054 33.4312 83.5294 33.2904C83.8604 33.1495 84.2619 33.0791 84.7338 33.0791C85.262 33.0791 85.7374 33.1953 86.16 33.4277C86.5826 33.6602 86.9172 33.9841 87.1637 34.3997C87.4173 34.8082 87.544 35.2836 87.544 35.826C87.544 36.3824 87.4173 36.8684 87.1637 37.2839C86.9101 37.6924 86.5721 38.0094 86.1495 38.2347C85.7269 38.4601 85.255 38.5728 84.7338 38.5728ZM84.2901 37.5058C84.6633 37.5058 84.9873 37.4353 85.262 37.2945C85.5438 37.1536 85.7586 36.9599 85.9065 36.7134C86.0614 36.4598 86.1389 36.164 86.1389 35.826C86.1389 35.3188 85.9769 34.9103 85.6529 34.6004C85.336 34.2905 84.8817 34.1356 84.2901 34.1356C83.9168 34.1356 83.5752 34.2025 83.2653 34.3363C82.9624 34.4701 82.7229 34.6638 82.5468 34.9174C82.3708 35.1639 82.2827 35.4667 82.2827 35.826C82.2827 36.164 82.3637 36.4598 82.5257 36.7134C82.6877 36.9599 82.9201 37.1536 83.223 37.2945C83.5259 37.4353 83.8815 37.5058 84.2901 37.5058ZM80.9093 33.1953H82.2193L82.2827 34.5899V40.559H80.9093V33.1953ZM90.8281 36.1429H92.2543C92.2825 36.3824 92.3917 36.6007 92.5818 36.7979C92.779 36.9881 93.0361 37.1395 93.3531 37.2522C93.67 37.3579 94.0257 37.4107 94.4201 37.4107C94.7793 37.4107 95.0752 37.3719 95.3076 37.2945C95.54 37.217 95.7126 37.1078 95.8253 36.967C95.9379 36.8261 95.9943 36.6571 95.9943 36.4598C95.9943 36.2697 95.9239 36.1253 95.783 36.0267C95.6421 35.921 95.4203 35.8365 95.1174 35.7731C94.8146 35.7027 94.4166 35.6323 93.9236 35.5618C93.5362 35.5055 93.1699 35.428 92.8248 35.3294C92.4797 35.2238 92.1733 35.0899 91.9057 34.9279C91.6451 34.7659 91.4373 34.5687 91.2824 34.3363C91.1344 34.0968 91.0605 33.8151 91.0605 33.4911C91.0605 33.0896 91.1732 32.7375 91.3986 32.4346C91.631 32.1318 91.9726 31.8958 92.4234 31.7268C92.8741 31.5577 93.427 31.4732 94.0821 31.4732C95.0681 31.4732 95.8253 31.6845 96.3535 32.1071C96.8888 32.5227 97.1494 33.0967 97.1353 33.8292H95.7619C95.7337 33.4136 95.5576 33.1143 95.2336 32.9312C94.9167 32.748 94.5152 32.6565 94.0292 32.6565C93.5785 32.6565 93.2052 32.7234 92.9093 32.8572C92.6206 32.991 92.4762 33.2199 92.4762 33.5439C92.4762 33.6707 92.5114 33.7834 92.5818 33.882C92.6523 33.9736 92.772 34.0546 92.941 34.125C93.1101 34.1954 93.339 34.2624 93.6278 34.3257C93.9165 34.3891 94.2757 34.4525 94.7054 34.5159C95.1068 34.5723 95.4696 34.6497 95.7936 34.7483C96.1246 34.8399 96.4063 34.9632 96.6388 35.1181C96.8782 35.266 97.0613 35.4562 97.1881 35.6886C97.3149 35.921 97.3783 36.2063 97.3783 36.5444C97.3783 36.9599 97.2691 37.3226 97.0508 37.6325C96.8395 37.9354 96.5085 38.1714 96.0577 38.3404C95.614 38.5094 95.0364 38.594 94.325 38.594C93.8179 38.594 93.3707 38.5411 92.9833 38.4355C92.5959 38.3228 92.2614 38.1749 91.9796 37.9918C91.6979 37.8086 91.469 37.6079 91.2929 37.3896C91.1168 37.1712 90.9901 36.9529 90.9126 36.7345C90.8422 36.5162 90.814 36.319 90.8281 36.1429ZM98.0686 33.1953H102.147V34.2624H98.0686V33.1953ZM99.4209 31.7585H100.794V38.446H99.4209V31.7585ZM106.042 38.5728C105.38 38.5728 104.796 38.4672 104.289 38.2559C103.789 38.0446 103.398 37.7382 103.116 37.3367C102.834 36.9282 102.693 36.4282 102.693 35.8365C102.693 35.2449 102.834 34.7448 103.116 34.3363C103.398 33.9208 103.789 33.6073 104.289 33.396C104.796 33.1847 105.38 33.0791 106.042 33.0791C106.705 33.0791 107.282 33.1847 107.775 33.396C108.275 33.6073 108.666 33.9208 108.948 34.3363C109.23 34.7448 109.37 35.2449 109.37 35.8365C109.37 36.4282 109.23 36.9282 108.948 37.3367C108.666 37.7382 108.275 38.0446 107.775 38.2559C107.282 38.4672 106.705 38.5728 106.042 38.5728ZM106.042 37.5163C106.409 37.5163 106.736 37.4529 107.025 37.3262C107.321 37.1923 107.553 37.0022 107.722 36.7557C107.891 36.5021 107.976 36.1957 107.976 35.8365C107.976 35.4773 107.891 35.1709 107.722 34.9174C107.553 34.6568 107.324 34.4596 107.036 34.3257C106.747 34.1919 106.416 34.125 106.042 34.125C105.676 34.125 105.345 34.1919 105.049 34.3257C104.754 34.4596 104.518 34.6533 104.342 34.9068C104.173 35.1604 104.088 35.4703 104.088 35.8365C104.088 36.1957 104.173 36.5021 104.342 36.7557C104.511 37.0022 104.743 37.1923 105.039 37.3262C105.335 37.4529 105.669 37.5163 106.042 37.5163ZM110.386 33.1953H111.759V38.446H110.386V33.1953ZM113.777 34.3257C113.383 34.3257 113.041 34.4032 112.752 34.5582C112.463 34.7061 112.231 34.8892 112.055 35.1075C111.879 35.3259 111.756 35.5372 111.685 35.7414L111.675 35.1604C111.682 35.0758 111.71 34.9526 111.759 34.7906C111.808 34.6216 111.882 34.442 111.981 34.2518C112.08 34.0546 112.21 33.8679 112.372 33.6918C112.534 33.5087 112.731 33.3608 112.964 33.2481C113.196 33.1354 113.467 33.0791 113.777 33.0791V34.3257ZM119.412 36.7028H120.743C120.687 37.062 120.535 37.3825 120.289 37.6642C120.049 37.946 119.722 38.1678 119.306 38.3298C118.891 38.4918 118.384 38.5728 117.785 38.5728C117.116 38.5728 116.524 38.4672 116.01 38.2559C115.496 38.0375 115.095 37.7241 114.806 37.3156C114.517 36.9071 114.373 36.4141 114.373 35.8365C114.373 35.259 114.513 34.7659 114.795 34.3574C115.077 33.9419 115.468 33.6249 115.968 33.4066C116.475 33.1883 117.067 33.0791 117.743 33.0791C118.433 33.0791 119.007 33.1883 119.465 33.4066C119.923 33.6249 120.261 33.956 120.479 34.3997C120.704 34.8364 120.8 35.3963 120.764 36.0795H115.757C115.792 36.3472 115.89 36.5901 116.052 36.8085C116.221 37.0268 116.447 37.1994 116.729 37.3262C117.017 37.4529 117.359 37.5163 117.753 37.5163C118.19 37.5163 118.553 37.4424 118.842 37.2945C119.137 37.1395 119.328 36.9423 119.412 36.7028ZM117.679 34.125C117.172 34.125 116.76 34.2377 116.443 34.4631C116.126 34.6814 115.922 34.9526 115.831 35.2766H119.401C119.366 34.9244 119.197 34.6462 118.894 34.442C118.599 34.2307 118.194 34.125 117.679 34.125Z" fill="black"/>
<defs>
<clipPath id="clip0_15530_152189">
<rect width="24.5581" height="28.4501" fill="white" transform="translate(26.5293 14.2209)"/>
</clipPath>
</defs>
</svg>
