<svg width="405" height="65" viewBox="0 0 405 65" fill="none" xmlns="http://www.w3.org/2000/svg">
<rect opacity="0.2" width="186" height="65" rx="32.5" fill="white"/>
<g clip-path="url(#clip0_1891_19307)">
<path d="M42.9139 23.161C44.6986 23.161 46.2642 22.4641 47.6108 21.0702C48.9573 19.6764 49.6306 18.0556 49.6306 16.2078C49.6306 16.0049 49.6145 15.7165 49.5825 15.3427C49.3474 15.3747 49.171 15.4014 49.0535 15.4228C47.4077 15.6577 45.9596 16.4641 44.7093 17.8419C43.4589 19.2198 42.8338 20.6937 42.8338 22.2638C42.8338 22.4454 42.8605 22.7445 42.9139 23.161ZM49.31 47.6573C50.5817 47.6573 51.987 46.7869 53.5259 45.0459C55.0649 43.3049 56.2404 41.2595 57.0526 38.9098C54.0282 37.3504 52.516 35.1128 52.516 32.1969C52.516 29.7617 53.7397 27.679 56.187 25.9487C54.4878 23.8232 52.2435 22.7604 49.4543 22.7604C48.2787 22.7604 47.2047 22.9367 46.2322 23.2891L45.623 23.5134L44.8055 23.8339C44.2711 24.0368 43.7849 24.1383 43.3467 24.1383C43.0047 24.1383 42.5559 24.0208 42.0002 23.7858L41.375 23.5295L40.7819 23.2891C39.9162 22.926 38.9865 22.7444 37.9926 22.7444C35.3316 22.7444 33.1942 23.6416 31.5805 25.436C29.9668 27.2303 29.1599 29.5962 29.1599 32.5334C29.1599 36.6668 30.453 40.4852 33.0392 43.9885C34.8346 46.4344 36.4751 47.6573 37.9605 47.6573C38.5911 47.6573 39.2162 47.5345 39.8361 47.2889L40.6216 46.9684L41.2468 46.7441C42.1231 46.4344 42.9299 46.2795 43.6673 46.2795C44.4474 46.2795 45.3452 46.4771 46.3604 46.8723L46.8573 47.0646C47.8939 47.4598 48.7115 47.6573 49.31 47.6573Z" fill="white"/>
</g>
<path d="M79.721 25.896C79.641 26.456 79.449 26.94 79.145 27.348C78.841 27.756 78.453 28.072 77.981 28.296C77.517 28.512 76.997 28.62 76.421 28.62C75.885 28.62 75.389 28.528 74.933 28.344C74.477 28.152 74.077 27.88 73.733 27.528C73.397 27.176 73.133 26.752 72.941 26.256C72.749 25.76 72.653 25.208 72.653 24.6C72.653 23.984 72.749 23.432 72.941 22.944C73.133 22.448 73.397 22.024 73.733 21.672C74.077 21.32 74.477 21.052 74.933 20.868C75.389 20.676 75.885 20.58 76.421 20.58C77.005 20.58 77.529 20.692 77.993 20.916C78.465 21.132 78.853 21.448 79.157 21.864C79.461 22.272 79.653 22.76 79.733 23.328H78.845C78.733 22.928 78.557 22.592 78.317 22.32C78.085 22.048 77.805 21.84 77.477 21.696C77.149 21.552 76.797 21.48 76.421 21.48C75.933 21.48 75.473 21.6 75.041 21.84C74.617 22.08 74.273 22.432 74.009 22.896C73.745 23.36 73.613 23.928 73.613 24.6C73.613 25.272 73.745 25.84 74.009 26.304C74.273 26.768 74.617 27.12 75.041 27.36C75.473 27.6 75.933 27.72 76.421 27.72C76.797 27.72 77.145 27.652 77.465 27.516C77.793 27.372 78.073 27.164 78.305 26.892C78.545 26.62 78.721 26.288 78.833 25.896H79.721ZM83.7221 28.62C83.2101 28.62 82.7301 28.496 82.2821 28.248C81.8341 28 81.4701 27.644 81.1901 27.18C80.9181 26.708 80.7821 26.152 80.7821 25.512C80.7821 24.872 80.9181 24.32 81.1901 23.856C81.4701 23.384 81.8341 23.02 82.2821 22.764C82.7301 22.508 83.2101 22.38 83.7221 22.38C84.2341 22.38 84.7101 22.508 85.1501 22.764C85.5981 23.02 85.9581 23.384 86.2301 23.856C86.5021 24.32 86.6381 24.872 86.6381 25.512C86.6381 26.152 86.5021 26.708 86.2301 27.18C85.9581 27.644 85.5981 28 85.1501 28.248C84.7101 28.496 84.2341 28.62 83.7221 28.62ZM83.7221 27.72C84.0581 27.72 84.3741 27.636 84.6701 27.468C84.9661 27.3 85.2061 27.052 85.3901 26.724C85.5821 26.388 85.6781 25.984 85.6781 25.512C85.6781 25.04 85.5821 24.64 85.3901 24.312C85.2061 23.976 84.9661 23.72 84.6701 23.544C84.3741 23.368 84.0581 23.28 83.7221 23.28C83.3861 23.28 83.0661 23.368 82.7621 23.544C82.4661 23.712 82.2221 23.964 82.0301 24.3C81.8381 24.628 81.7421 25.032 81.7421 25.512C81.7421 25.984 81.8341 26.388 82.0181 26.724C82.2101 27.052 82.4581 27.3 82.7621 27.468C83.0661 27.636 83.3861 27.72 83.7221 27.72ZM87.8564 22.5H88.8164V28.5H87.8564V22.5ZM90.8804 22.38C91.2004 22.38 91.4884 22.428 91.7444 22.524C92.0004 22.62 92.2164 22.76 92.3924 22.944C92.5684 23.128 92.7044 23.352 92.8004 23.616C92.8964 23.872 92.9444 24.164 92.9444 24.492V28.5H91.9844V24.732C91.9844 24.268 91.8764 23.92 91.6604 23.688C91.4444 23.456 91.1204 23.34 90.6884 23.34C90.3604 23.34 90.0564 23.424 89.7764 23.592C89.4964 23.76 89.2644 23.992 89.0804 24.288C88.9044 24.576 88.7964 24.912 88.7564 25.296L88.7444 24.6C88.7844 24.264 88.8644 23.96 88.9844 23.688C89.1124 23.416 89.2684 23.184 89.4524 22.992C89.6444 22.792 89.8604 22.64 90.1004 22.536C90.3484 22.432 90.6084 22.38 90.8804 22.38ZM94.9124 22.38C95.2324 22.38 95.5204 22.428 95.7764 22.524C96.0324 22.62 96.2484 22.76 96.4244 22.944C96.6004 23.128 96.7364 23.352 96.8324 23.616C96.9284 23.872 96.9764 24.164 96.9764 24.492V28.5H96.0164V24.732C96.0164 24.268 95.9084 23.92 95.6924 23.688C95.4764 23.456 95.1524 23.34 94.7204 23.34C94.3924 23.34 94.0884 23.424 93.8084 23.592C93.5284 23.76 93.2964 23.992 93.1124 24.288C92.9364 24.576 92.8284 24.912 92.7884 25.296L92.7764 24.6C92.8164 24.264 92.8964 23.96 93.0164 23.688C93.1444 23.416 93.3004 23.184 93.4844 22.992C93.6764 22.792 93.8924 22.64 94.1324 22.536C94.3804 22.432 94.6404 22.38 94.9124 22.38ZM99.7202 20.1V21.264H98.4722V20.1H99.7202ZM98.6162 22.5H99.5762V28.5H98.6162V22.5ZM101.216 22.5H102.176V28.5H101.216V22.5ZM104.24 22.38C104.56 22.38 104.848 22.428 105.104 22.524C105.36 22.62 105.576 22.76 105.752 22.944C105.928 23.128 106.064 23.352 106.16 23.616C106.256 23.872 106.304 24.164 106.304 24.492V28.5H105.344V24.732C105.344 24.268 105.236 23.92 105.02 23.688C104.804 23.456 104.48 23.34 104.048 23.34C103.72 23.34 103.416 23.424 103.136 23.592C102.856 23.76 102.624 23.992 102.44 24.288C102.264 24.576 102.156 24.912 102.116 25.296L102.104 24.6C102.144 24.264 102.224 23.96 102.344 23.688C102.472 23.416 102.628 23.184 102.812 22.992C103.004 22.792 103.22 22.64 103.46 22.536C103.708 22.432 103.968 22.38 104.24 22.38ZM110.008 27.552C109.584 27.552 109.18 27.452 108.796 27.252C108.42 27.044 108.112 26.748 107.872 26.364C107.64 25.98 107.524 25.52 107.524 24.984C107.524 24.448 107.64 23.988 107.872 23.604C108.104 23.212 108.408 22.912 108.784 22.704C109.16 22.488 109.568 22.38 110.008 22.38C110.144 22.38 110.272 22.392 110.392 22.416C110.52 22.432 110.64 22.46 110.752 22.5H113.188V23.532C112.844 23.532 112.5 23.468 112.156 23.34C111.82 23.212 111.532 23.08 111.292 22.944L111.244 22.896C111.524 23.048 111.752 23.228 111.928 23.436C112.112 23.644 112.248 23.88 112.336 24.144C112.432 24.4 112.48 24.68 112.48 24.984C112.48 25.52 112.364 25.98 112.132 26.364C111.908 26.748 111.608 27.044 111.232 27.252C110.856 27.452 110.448 27.552 110.008 27.552ZM111.772 30.9V30.636C111.772 30.212 111.66 29.904 111.436 29.712C111.22 29.52 110.892 29.424 110.452 29.424H109.252C108.988 29.424 108.756 29.4 108.556 29.352C108.364 29.312 108.204 29.248 108.076 29.16C107.948 29.072 107.852 28.964 107.788 28.836C107.724 28.708 107.692 28.564 107.692 28.404C107.692 28.1 107.784 27.872 107.968 27.72C108.152 27.56 108.38 27.46 108.652 27.42C108.924 27.38 109.184 27.38 109.432 27.42L110.008 27.552C109.576 27.576 109.24 27.62 109 27.684C108.768 27.748 108.652 27.884 108.652 28.092C108.652 28.212 108.696 28.312 108.784 28.392C108.88 28.464 109.02 28.5 109.204 28.5H110.452C110.868 28.5 111.248 28.556 111.592 28.668C111.936 28.788 112.212 28.984 112.42 29.256C112.628 29.536 112.732 29.916 112.732 30.396V30.9H111.772ZM110.008 26.652C110.272 26.652 110.516 26.588 110.74 26.46C110.972 26.332 111.16 26.144 111.304 25.896C111.448 25.648 111.52 25.344 111.52 24.984C111.52 24.624 111.448 24.32 111.304 24.072C111.168 23.816 110.984 23.624 110.752 23.496C110.52 23.36 110.272 23.292 110.008 23.292C109.744 23.292 109.496 23.36 109.264 23.496C109.032 23.624 108.844 23.812 108.7 24.06C108.556 24.308 108.484 24.616 108.484 24.984C108.484 25.344 108.556 25.648 108.7 25.896C108.844 26.144 109.032 26.332 109.264 26.46C109.496 26.588 109.744 26.652 110.008 26.652ZM116.549 26.568H117.437C117.461 26.912 117.589 27.192 117.821 27.408C118.061 27.624 118.405 27.732 118.853 27.732C119.125 27.732 119.337 27.696 119.489 27.624C119.649 27.552 119.765 27.456 119.837 27.336C119.909 27.208 119.945 27.068 119.945 26.916C119.945 26.732 119.897 26.588 119.801 26.484C119.713 26.372 119.589 26.28 119.429 26.208C119.277 26.136 119.101 26.068 118.901 26.004C118.669 25.916 118.429 25.824 118.181 25.728C117.941 25.624 117.713 25.504 117.497 25.368C117.289 25.224 117.121 25.052 116.993 24.852C116.865 24.644 116.801 24.396 116.801 24.108C116.801 23.868 116.849 23.644 116.945 23.436C117.041 23.22 117.177 23.036 117.353 22.884C117.537 22.724 117.749 22.6 117.989 22.512C118.237 22.424 118.509 22.38 118.805 22.38C119.205 22.38 119.541 22.46 119.813 22.62C120.093 22.78 120.305 23.008 120.449 23.304C120.601 23.592 120.681 23.928 120.689 24.312H119.861C119.805 23.952 119.689 23.692 119.513 23.532C119.345 23.364 119.101 23.28 118.781 23.28C118.453 23.28 118.201 23.352 118.025 23.496C117.849 23.64 117.761 23.832 117.761 24.072C117.761 24.248 117.825 24.396 117.953 24.516C118.081 24.628 118.245 24.732 118.445 24.828C118.653 24.916 118.873 25.008 119.105 25.104C119.337 25.2 119.561 25.296 119.777 25.392C119.993 25.488 120.185 25.6 120.353 25.728C120.521 25.856 120.653 26.016 120.749 26.208C120.853 26.392 120.905 26.624 120.905 26.904C120.905 27.24 120.825 27.54 120.665 27.804C120.513 28.06 120.285 28.26 119.981 28.404C119.685 28.548 119.321 28.62 118.889 28.62C118.497 28.62 118.161 28.572 117.881 28.476C117.609 28.372 117.381 28.24 117.197 28.08C117.013 27.912 116.869 27.736 116.765 27.552C116.669 27.368 116.605 27.188 116.573 27.012C116.541 26.836 116.533 26.688 116.549 26.568ZM124.738 28.62C124.226 28.62 123.746 28.496 123.298 28.248C122.85 28 122.486 27.644 122.206 27.18C121.934 26.708 121.798 26.152 121.798 25.512C121.798 24.872 121.934 24.32 122.206 23.856C122.486 23.384 122.85 23.02 123.298 22.764C123.746 22.508 124.226 22.38 124.738 22.38C125.25 22.38 125.726 22.508 126.166 22.764C126.614 23.02 126.974 23.384 127.246 23.856C127.518 24.32 127.654 24.872 127.654 25.512C127.654 26.152 127.518 26.708 127.246 27.18C126.974 27.644 126.614 28 126.166 28.248C125.726 28.496 125.25 28.62 124.738 28.62ZM124.738 27.72C125.074 27.72 125.39 27.636 125.686 27.468C125.982 27.3 126.222 27.052 126.406 26.724C126.598 26.388 126.694 25.984 126.694 25.512C126.694 25.04 126.598 24.64 126.406 24.312C126.222 23.976 125.982 23.72 125.686 23.544C125.39 23.368 125.074 23.28 124.738 23.28C124.402 23.28 124.082 23.368 123.778 23.544C123.482 23.712 123.238 23.964 123.046 24.3C122.854 24.628 122.758 25.032 122.758 25.512C122.758 25.984 122.85 26.388 123.034 26.724C123.226 27.052 123.474 27.3 123.778 27.468C124.082 27.636 124.402 27.72 124.738 27.72ZM131.476 28.62C130.964 28.62 130.484 28.496 130.036 28.248C129.588 28 129.224 27.644 128.944 27.18C128.672 26.708 128.536 26.152 128.536 25.512C128.536 24.872 128.672 24.32 128.944 23.856C129.224 23.384 129.588 23.02 130.036 22.764C130.484 22.508 130.964 22.38 131.476 22.38C131.988 22.38 132.464 22.508 132.904 22.764C133.352 23.02 133.712 23.384 133.984 23.856C134.256 24.32 134.392 24.872 134.392 25.512C134.392 26.152 134.256 26.708 133.984 27.18C133.712 27.644 133.352 28 132.904 28.248C132.464 28.496 131.988 28.62 131.476 28.62ZM131.476 27.72C131.812 27.72 132.128 27.636 132.424 27.468C132.72 27.3 132.96 27.052 133.144 26.724C133.336 26.388 133.432 25.984 133.432 25.512C133.432 25.04 133.336 24.64 133.144 24.312C132.96 23.976 132.72 23.72 132.424 23.544C132.128 23.368 131.812 23.28 131.476 23.28C131.14 23.28 130.82 23.368 130.516 23.544C130.22 23.712 129.976 23.964 129.784 24.3C129.592 24.628 129.496 25.032 129.496 25.512C129.496 25.984 129.588 26.388 129.772 26.724C129.964 27.052 130.212 27.3 130.516 27.468C130.82 27.636 131.14 27.72 131.476 27.72ZM135.61 22.5H136.57V28.5H135.61V22.5ZM138.634 22.38C138.954 22.38 139.242 22.428 139.498 22.524C139.754 22.62 139.97 22.76 140.146 22.944C140.322 23.128 140.458 23.352 140.554 23.616C140.65 23.872 140.698 24.164 140.698 24.492V28.5H139.738V24.732C139.738 24.268 139.63 23.92 139.414 23.688C139.198 23.456 138.874 23.34 138.442 23.34C138.114 23.34 137.81 23.424 137.53 23.592C137.25 23.76 137.018 23.992 136.834 24.288C136.658 24.576 136.55 24.912 136.51 25.296L136.498 24.6C136.538 24.264 136.618 23.96 136.738 23.688C136.866 23.416 137.022 23.184 137.206 22.992C137.398 22.792 137.614 22.64 137.854 22.536C138.102 22.432 138.362 22.38 138.634 22.38ZM147.378 28.62C146.866 28.62 146.386 28.496 145.938 28.248C145.49 28 145.126 27.644 144.846 27.18C144.574 26.708 144.438 26.152 144.438 25.512C144.438 24.872 144.574 24.32 144.846 23.856C145.126 23.384 145.49 23.02 145.938 22.764C146.386 22.508 146.866 22.38 147.378 22.38C147.89 22.38 148.366 22.508 148.806 22.764C149.254 23.02 149.614 23.384 149.886 23.856C150.158 24.32 150.294 24.872 150.294 25.512C150.294 26.152 150.158 26.708 149.886 27.18C149.614 27.644 149.254 28 148.806 28.248C148.366 28.496 147.89 28.62 147.378 28.62ZM147.378 27.72C147.714 27.72 148.03 27.636 148.326 27.468C148.622 27.3 148.862 27.052 149.046 26.724C149.238 26.388 149.334 25.984 149.334 25.512C149.334 25.04 149.238 24.64 149.046 24.312C148.862 23.976 148.622 23.72 148.326 23.544C148.03 23.368 147.714 23.28 147.378 23.28C147.042 23.28 146.722 23.368 146.418 23.544C146.122 23.712 145.878 23.964 145.686 24.3C145.494 24.628 145.398 25.032 145.398 25.512C145.398 25.984 145.49 26.388 145.674 26.724C145.866 27.052 146.114 27.3 146.418 27.468C146.722 27.636 147.042 27.72 147.378 27.72ZM151.513 22.5H152.473V28.5H151.513V22.5ZM154.537 22.38C154.857 22.38 155.145 22.428 155.401 22.524C155.657 22.62 155.873 22.76 156.049 22.944C156.225 23.128 156.361 23.352 156.457 23.616C156.553 23.872 156.601 24.164 156.601 24.492V28.5H155.641V24.732C155.641 24.268 155.533 23.92 155.317 23.688C155.101 23.456 154.777 23.34 154.345 23.34C154.017 23.34 153.713 23.424 153.433 23.592C153.153 23.76 152.921 23.992 152.737 24.288C152.561 24.576 152.453 24.912 152.413 25.296L152.401 24.6C152.441 24.264 152.521 23.96 152.641 23.688C152.769 23.416 152.925 23.184 153.109 22.992C153.301 22.792 153.517 22.64 153.757 22.536C154.005 22.432 154.265 22.38 154.537 22.38ZM74.189 40.808V39.476H79.325V40.808H74.189ZM72.257 42.5L75.905 34.736H77.633L81.317 42.5H79.577L76.385 35.504H77.153L73.985 42.5H72.257ZM86.5857 42.644C86.0577 42.644 85.6057 42.552 85.2297 42.368C84.8617 42.176 84.5617 41.928 84.3297 41.624C84.0977 41.312 83.9257 40.972 83.8137 40.604C83.7017 40.236 83.6457 39.876 83.6457 39.524C83.6457 39.084 83.6977 38.676 83.8017 38.3C83.9137 37.924 84.0857 37.596 84.3177 37.316C84.5497 37.028 84.8497 36.804 85.2177 36.644C85.5937 36.484 86.0497 36.404 86.5857 36.404C87.1857 36.404 87.7257 36.536 88.2057 36.8C88.6857 37.064 89.0657 37.432 89.3457 37.904C89.6337 38.368 89.7777 38.908 89.7777 39.524C89.7777 40.156 89.6337 40.708 89.3457 41.18C89.0577 41.644 88.6737 42.004 88.1937 42.26C87.7137 42.516 87.1777 42.644 86.5857 42.644ZM86.0817 41.432C86.5057 41.432 86.8737 41.352 87.1857 41.192C87.5057 41.032 87.7497 40.812 87.9177 40.532C88.0937 40.244 88.1817 39.908 88.1817 39.524C88.1817 38.948 87.9977 38.484 87.6297 38.132C87.2697 37.78 86.7537 37.604 86.0817 37.604C85.6577 37.604 85.2697 37.68 84.9177 37.832C84.5737 37.984 84.3017 38.204 84.1017 38.492C83.9017 38.772 83.8017 39.116 83.8017 39.524C83.8017 39.908 83.8937 40.244 84.0777 40.532C84.2617 40.812 84.5257 41.032 84.8697 41.192C85.2137 41.352 85.6177 41.432 86.0817 41.432ZM82.2417 36.536H83.7297L83.8017 38.12V44.9H82.2417V36.536ZM95.2693 42.644C94.7413 42.644 94.2893 42.552 93.9133 42.368C93.5453 42.176 93.2453 41.928 93.0133 41.624C92.7813 41.312 92.6093 40.972 92.4973 40.604C92.3853 40.236 92.3293 39.876 92.3293 39.524C92.3293 39.084 92.3813 38.676 92.4853 38.3C92.5973 37.924 92.7693 37.596 93.0013 37.316C93.2333 37.028 93.5333 36.804 93.9013 36.644C94.2773 36.484 94.7333 36.404 95.2693 36.404C95.8693 36.404 96.4093 36.536 96.8893 36.8C97.3693 37.064 97.7493 37.432 98.0293 37.904C98.3173 38.368 98.4613 38.908 98.4613 39.524C98.4613 40.156 98.3173 40.708 98.0293 41.18C97.7413 41.644 97.3573 42.004 96.8773 42.26C96.3973 42.516 95.8613 42.644 95.2693 42.644ZM94.7653 41.432C95.1893 41.432 95.5573 41.352 95.8693 41.192C96.1893 41.032 96.4333 40.812 96.6013 40.532C96.7773 40.244 96.8653 39.908 96.8653 39.524C96.8653 38.948 96.6813 38.484 96.3133 38.132C95.9533 37.78 95.4373 37.604 94.7653 37.604C94.3413 37.604 93.9533 37.68 93.6013 37.832C93.2573 37.984 92.9853 38.204 92.7853 38.492C92.5853 38.772 92.4853 39.116 92.4853 39.524C92.4853 39.908 92.5773 40.244 92.7613 40.532C92.9453 40.812 93.2093 41.032 93.5533 41.192C93.8973 41.352 94.3013 41.432 94.7653 41.432ZM90.9253 36.536H92.4133L92.4853 38.12V44.9H90.9253V36.536ZM102.191 39.884H103.811C103.843 40.156 103.967 40.404 104.183 40.628C104.407 40.844 104.699 41.016 105.059 41.144C105.419 41.264 105.823 41.324 106.271 41.324C106.679 41.324 107.015 41.28 107.279 41.192C107.543 41.104 107.739 40.98 107.867 40.82C107.995 40.66 108.059 40.468 108.059 40.244C108.059 40.028 107.979 39.864 107.819 39.752C107.659 39.632 107.407 39.536 107.063 39.464C106.719 39.384 106.267 39.304 105.707 39.224C105.267 39.16 104.851 39.072 104.459 38.96C104.067 38.84 103.719 38.688 103.415 38.504C103.119 38.32 102.883 38.096 102.707 37.832C102.539 37.56 102.455 37.24 102.455 36.872C102.455 36.416 102.583 36.016 102.839 35.672C103.103 35.328 103.491 35.06 104.003 34.868C104.515 34.676 105.143 34.58 105.887 34.58C107.007 34.58 107.867 34.82 108.467 35.3C109.075 35.772 109.371 36.424 109.355 37.256H107.795C107.763 36.784 107.563 36.444 107.195 36.236C106.835 36.028 106.379 35.924 105.827 35.924C105.315 35.924 104.891 36 104.555 36.152C104.227 36.304 104.063 36.564 104.063 36.932C104.063 37.076 104.103 37.204 104.183 37.316C104.263 37.42 104.399 37.512 104.591 37.592C104.783 37.672 105.043 37.748 105.371 37.82C105.699 37.892 106.107 37.964 106.595 38.036C107.051 38.1 107.463 38.188 107.831 38.3C108.207 38.404 108.527 38.544 108.791 38.72C109.063 38.888 109.271 39.104 109.415 39.368C109.559 39.632 109.631 39.956 109.631 40.34C109.631 40.812 109.507 41.224 109.259 41.576C109.019 41.92 108.643 42.188 108.131 42.38C107.627 42.572 106.971 42.668 106.163 42.668C105.587 42.668 105.079 42.608 104.639 42.488C104.199 42.36 103.819 42.192 103.499 41.984C103.179 41.776 102.919 41.548 102.719 41.3C102.519 41.052 102.375 40.804 102.287 40.556C102.207 40.308 102.175 40.084 102.191 39.884ZM110.415 36.536H115.047V37.748H110.415V36.536ZM111.951 34.904H113.511V42.5H111.951V34.904ZM119.473 42.644C118.721 42.644 118.057 42.524 117.481 42.284C116.913 42.044 116.469 41.696 116.149 41.24C115.829 40.776 115.669 40.208 115.669 39.536C115.669 38.864 115.829 38.296 116.149 37.832C116.469 37.36 116.913 37.004 117.481 36.764C118.057 36.524 118.721 36.404 119.473 36.404C120.225 36.404 120.881 36.524 121.441 36.764C122.009 37.004 122.453 37.36 122.773 37.832C123.093 38.296 123.253 38.864 123.253 39.536C123.253 40.208 123.093 40.776 122.773 41.24C122.453 41.696 122.009 42.044 121.441 42.284C120.881 42.524 120.225 42.644 119.473 42.644ZM119.473 41.444C119.889 41.444 120.261 41.372 120.589 41.228C120.925 41.076 121.189 40.86 121.381 40.58C121.573 40.292 121.669 39.944 121.669 39.536C121.669 39.128 121.573 38.78 121.381 38.492C121.189 38.196 120.929 37.972 120.601 37.82C120.273 37.668 119.897 37.592 119.473 37.592C119.057 37.592 118.681 37.668 118.345 37.82C118.009 37.972 117.741 38.192 117.541 38.48C117.349 38.768 117.253 39.12 117.253 39.536C117.253 39.944 117.349 40.292 117.541 40.58C117.733 40.86 117.997 41.076 118.333 41.228C118.669 41.372 119.049 41.444 119.473 41.444ZM124.406 36.536H125.966V42.5H124.406V36.536ZM128.258 37.82C127.81 37.82 127.422 37.908 127.094 38.084C126.766 38.252 126.502 38.46 126.302 38.708C126.102 38.956 125.962 39.196 125.882 39.428L125.87 38.768C125.878 38.672 125.91 38.532 125.966 38.348C126.022 38.156 126.106 37.952 126.218 37.736C126.33 37.512 126.478 37.3 126.662 37.1C126.846 36.892 127.07 36.724 127.334 36.596C127.598 36.468 127.906 36.404 128.258 36.404V37.82ZM134.658 40.52H136.17C136.106 40.928 135.934 41.292 135.654 41.612C135.382 41.932 135.01 42.184 134.538 42.368C134.066 42.552 133.49 42.644 132.81 42.644C132.05 42.644 131.378 42.524 130.794 42.284C130.21 42.036 129.754 41.68 129.426 41.216C129.098 40.752 128.934 40.192 128.934 39.536C128.934 38.88 129.094 38.32 129.414 37.856C129.734 37.384 130.178 37.024 130.746 36.776C131.322 36.528 131.994 36.404 132.762 36.404C133.546 36.404 134.198 36.528 134.718 36.776C135.238 37.024 135.622 37.4 135.87 37.904C136.126 38.4 136.234 39.036 136.194 39.812H130.506C130.546 40.116 130.658 40.392 130.842 40.64C131.034 40.888 131.29 41.084 131.61 41.228C131.938 41.372 132.326 41.444 132.774 41.444C133.27 41.444 133.682 41.36 134.01 41.192C134.346 41.016 134.562 40.792 134.658 40.52ZM132.69 37.592C132.114 37.592 131.646 37.72 131.286 37.976C130.926 38.224 130.694 38.532 130.59 38.9H134.646C134.606 38.5 134.414 38.184 134.07 37.952C133.734 37.712 133.274 37.592 132.69 37.592Z" fill="white"/>
<rect opacity="0.2" x="221" width="184" height="65" rx="32.5" fill="white"/>
<path d="M263.254 39.5625L269.628 33.1814L271.463 35.0172L273.298 36.8529L265.499 41.2318C261.209 43.6401 257.515 45.6857 257.29 45.7771C256.969 45.9078 258.257 44.5661 263.254 39.5625ZM255.63 45.3781C255.535 45.2342 255.412 44.9554 255.356 44.7612C255.214 44.2661 255.221 20.7185 255.363 20.2061C255.422 19.9935 255.551 19.7218 255.651 19.6003C255.829 19.3833 255.922 19.4696 262.388 25.9393L268.945 32.4991L262.374 39.0705L255.803 45.6418L255.63 45.3781ZM272.244 34.4329L270.311 32.4983L272.252 30.5672L274.192 28.6361L276.602 29.9893C279.316 31.5133 279.747 31.8574 279.747 32.4989C279.747 33.1222 279.327 33.4712 277.024 34.7595C275.928 35.3729 274.839 35.9855 274.604 36.1213L274.177 36.3677L272.244 34.4329ZM263.228 25.4092C258.192 20.3664 256.967 19.089 257.297 19.2236C257.526 19.3166 261.22 21.362 265.506 23.7684L273.299 28.1436L271.491 29.954C270.496 30.9498 269.658 31.7644 269.629 31.7644C269.599 31.7644 266.719 28.9047 263.228 25.4092Z" fill="white"/>
<path d="M299.824 24.96V24.06H303.568V24.96H299.824ZM298.24 27L301.204 19.2H302.212L305.2 27H304.168L301.564 19.944H301.852L299.248 27H298.24ZM308.174 26.172H307.886L309.722 21H310.766L308.486 27H307.586L305.318 21H306.362L308.174 26.172ZM313.88 27.12C313.408 27.12 312.972 26.988 312.572 26.724C312.18 26.452 311.864 26.084 311.624 25.62C311.392 25.148 311.276 24.612 311.276 24.012C311.276 23.412 311.396 22.876 311.636 22.404C311.876 21.932 312.2 21.56 312.608 21.288C313.024 21.016 313.488 20.88 314 20.88C314.56 20.88 314.984 21.024 315.272 21.312C315.568 21.592 315.768 21.968 315.872 22.44C315.984 22.912 316.04 23.436 316.04 24.012C316.04 24.316 316.008 24.648 315.944 25.008C315.88 25.36 315.768 25.7 315.608 26.028C315.456 26.348 315.24 26.612 314.96 26.82C314.68 27.02 314.32 27.12 313.88 27.12ZM314.12 26.208C314.528 26.208 314.864 26.108 315.128 25.908C315.4 25.708 315.6 25.444 315.728 25.116C315.856 24.78 315.92 24.412 315.92 24.012C315.92 23.572 315.852 23.188 315.716 22.86C315.588 22.524 315.388 22.264 315.116 22.08C314.852 21.888 314.52 21.792 314.12 21.792C313.52 21.792 313.056 22.004 312.728 22.428C312.4 22.844 312.236 23.372 312.236 24.012C312.236 24.436 312.316 24.816 312.476 25.152C312.644 25.48 312.868 25.74 313.148 25.932C313.436 26.116 313.76 26.208 314.12 26.208ZM315.92 21H316.88V27H316.004C316.004 27 315.996 26.928 315.98 26.784C315.972 26.64 315.96 26.472 315.944 26.28C315.928 26.088 315.92 25.928 315.92 25.8V21ZM319.632 18.6V19.764H318.384V18.6H319.632ZM318.528 21H319.488V27H318.528V21ZM321.248 18.6H322.208V27H321.248V18.6ZM326.161 27.12C325.689 27.12 325.253 26.988 324.853 26.724C324.461 26.452 324.145 26.084 323.905 25.62C323.673 25.148 323.557 24.612 323.557 24.012C323.557 23.412 323.677 22.876 323.917 22.404C324.157 21.932 324.481 21.56 324.889 21.288C325.305 21.016 325.769 20.88 326.281 20.88C326.841 20.88 327.265 21.024 327.553 21.312C327.849 21.592 328.049 21.968 328.153 22.44C328.265 22.912 328.321 23.436 328.321 24.012C328.321 24.316 328.289 24.648 328.225 25.008C328.161 25.36 328.049 25.7 327.889 26.028C327.737 26.348 327.521 26.612 327.241 26.82C326.961 27.02 326.601 27.12 326.161 27.12ZM326.401 26.208C326.809 26.208 327.145 26.108 327.409 25.908C327.681 25.708 327.881 25.444 328.009 25.116C328.137 24.78 328.201 24.412 328.201 24.012C328.201 23.572 328.133 23.188 327.997 22.86C327.869 22.524 327.669 22.264 327.397 22.08C327.133 21.888 326.801 21.792 326.401 21.792C325.801 21.792 325.337 22.004 325.009 22.428C324.681 22.844 324.517 23.372 324.517 24.012C324.517 24.436 324.597 24.816 324.757 25.152C324.925 25.48 325.149 25.74 325.429 25.932C325.717 26.116 326.041 26.208 326.401 26.208ZM328.201 21H329.161V27H328.285C328.285 27 328.277 26.928 328.261 26.784C328.253 26.64 328.241 26.472 328.225 26.28C328.209 26.088 328.201 25.928 328.201 25.8V21ZM333.788 27.12C333.348 27.12 332.988 27.02 332.708 26.82C332.428 26.612 332.208 26.348 332.048 26.028C331.896 25.7 331.788 25.36 331.724 25.008C331.66 24.648 331.628 24.316 331.628 24.012C331.628 23.58 331.656 23.176 331.712 22.8C331.776 22.424 331.884 22.092 332.036 21.804C332.188 21.516 332.404 21.292 332.684 21.132C332.972 20.964 333.34 20.88 333.788 20.88C334.292 20.88 334.74 21.016 335.132 21.288C335.524 21.56 335.832 21.932 336.056 22.404C336.28 22.876 336.392 23.412 336.392 24.012C336.392 24.612 336.276 25.148 336.044 25.62C335.812 26.084 335.5 26.452 335.108 26.724C334.716 26.988 334.276 27.12 333.788 27.12ZM333.548 26.208C333.916 26.208 334.24 26.116 334.52 25.932C334.8 25.74 335.02 25.48 335.18 25.152C335.348 24.816 335.432 24.436 335.432 24.012C335.432 23.372 335.268 22.844 334.94 22.428C334.612 22.004 334.148 21.792 333.548 21.792C333.148 21.792 332.812 21.888 332.54 22.08C332.276 22.264 332.076 22.524 331.94 22.86C331.812 23.188 331.748 23.572 331.748 24.012C331.748 24.412 331.812 24.78 331.94 25.116C332.076 25.444 332.276 25.708 332.54 25.908C332.804 26.108 333.14 26.208 333.548 26.208ZM331.748 18.6V25.8C331.748 25.944 331.736 26.136 331.712 26.376C331.696 26.616 331.68 26.824 331.664 27H330.788V18.6H331.748ZM337.736 18.6H338.696V27H337.736V18.6ZM344.63 25.068H345.53C345.466 25.46 345.322 25.812 345.098 26.124C344.882 26.428 344.594 26.672 344.234 26.856C343.882 27.032 343.474 27.12 343.01 27.12C342.45 27.12 341.946 26.988 341.498 26.724C341.05 26.452 340.694 26.084 340.43 25.62C340.174 25.148 340.046 24.612 340.046 24.012C340.046 23.412 340.17 22.876 340.418 22.404C340.674 21.932 341.022 21.56 341.462 21.288C341.902 21.016 342.398 20.88 342.95 20.88C343.534 20.88 344.026 21.012 344.426 21.276C344.834 21.532 345.134 21.912 345.326 22.416C345.526 22.912 345.606 23.524 345.566 24.252H341.006C341.046 24.644 341.154 24.988 341.33 25.284C341.506 25.58 341.738 25.812 342.026 25.98C342.314 26.14 342.642 26.22 343.01 26.22C343.418 26.22 343.762 26.116 344.042 25.908C344.33 25.692 344.526 25.412 344.63 25.068ZM342.986 21.78C342.49 21.78 342.074 21.924 341.738 22.212C341.402 22.5 341.178 22.892 341.066 23.388H344.582C344.55 22.86 344.378 22.46 344.066 22.188C343.762 21.916 343.402 21.78 342.986 21.78ZM351.927 27.12C351.415 27.12 350.935 26.996 350.487 26.748C350.039 26.5 349.675 26.144 349.395 25.68C349.123 25.208 348.987 24.652 348.987 24.012C348.987 23.372 349.123 22.82 349.395 22.356C349.675 21.884 350.039 21.52 350.487 21.264C350.935 21.008 351.415 20.88 351.927 20.88C352.439 20.88 352.915 21.008 353.355 21.264C353.803 21.52 354.163 21.884 354.435 22.356C354.707 22.82 354.843 23.372 354.843 24.012C354.843 24.652 354.707 25.208 354.435 25.68C354.163 26.144 353.803 26.5 353.355 26.748C352.915 26.996 352.439 27.12 351.927 27.12ZM351.927 26.22C352.263 26.22 352.579 26.136 352.875 25.968C353.171 25.8 353.411 25.552 353.595 25.224C353.787 24.888 353.883 24.484 353.883 24.012C353.883 23.54 353.787 23.14 353.595 22.812C353.411 22.476 353.171 22.22 352.875 22.044C352.579 21.868 352.263 21.78 351.927 21.78C351.591 21.78 351.271 21.868 350.967 22.044C350.671 22.212 350.427 22.464 350.235 22.8C350.043 23.128 349.947 23.532 349.947 24.012C349.947 24.484 350.039 24.888 350.223 25.224C350.415 25.552 350.663 25.8 350.967 25.968C351.271 26.136 351.591 26.22 351.927 26.22ZM356.061 21H357.021V27H356.061V21ZM359.085 20.88C359.405 20.88 359.693 20.928 359.949 21.024C360.205 21.12 360.421 21.26 360.597 21.444C360.773 21.628 360.909 21.852 361.005 22.116C361.101 22.372 361.149 22.664 361.149 22.992V27H360.189V23.232C360.189 22.768 360.081 22.42 359.865 22.188C359.649 21.956 359.325 21.84 358.893 21.84C358.565 21.84 358.261 21.924 357.981 22.092C357.701 22.26 357.469 22.492 357.285 22.788C357.109 23.076 357.001 23.412 356.961 23.796L356.949 23.1C356.989 22.764 357.069 22.46 357.189 22.188C357.317 21.916 357.473 21.684 357.657 21.492C357.849 21.292 358.065 21.14 358.305 21.036C358.553 20.932 358.813 20.88 359.085 20.88ZM300.688 41.06V39.576H304.832C305.327 39.576 305.719 39.4453 306.008 39.184C306.297 38.9133 306.442 38.54 306.442 38.064C306.442 37.5693 306.297 37.1913 306.008 36.93C305.719 36.6687 305.327 36.538 304.832 36.538H300.912V44H299.05V34.942H304.664C305.168 34.942 305.639 35.0027 306.078 35.124C306.526 35.2453 306.913 35.432 307.24 35.684C307.576 35.936 307.837 36.258 308.024 36.65C308.211 37.042 308.304 37.5133 308.304 38.064C308.304 38.6053 308.211 39.0673 308.024 39.45C307.837 39.8327 307.576 40.1453 307.24 40.388C306.913 40.6213 306.526 40.794 306.078 40.906C305.639 41.0087 305.168 41.06 304.664 41.06H300.688ZM309.959 34.242H311.779V44H309.959V34.242ZM317.007 44.154C316.317 44.154 315.687 44.0047 315.117 43.706C314.557 43.398 314.109 42.9733 313.773 42.432C313.447 41.8813 313.283 41.2467 313.283 40.528C313.283 39.7907 313.451 39.1513 313.787 38.61C314.123 38.0687 314.576 37.6487 315.145 37.35C315.724 37.042 316.377 36.888 317.105 36.888C317.908 36.888 318.552 37.0513 319.037 37.378C319.532 37.6953 319.891 38.1293 320.115 38.68C320.339 39.2307 320.451 39.8467 320.451 40.528C320.451 40.9387 320.386 41.3587 320.255 41.788C320.125 42.208 319.924 42.6 319.653 42.964C319.383 43.3187 319.028 43.608 318.589 43.832C318.151 44.0467 317.623 44.154 317.007 44.154ZM317.595 42.754C318.146 42.754 318.622 42.6607 319.023 42.474C319.425 42.2873 319.733 42.026 319.947 41.69C320.162 41.354 320.269 40.9667 320.269 40.528C320.269 40.052 320.157 39.6507 319.933 39.324C319.719 38.988 319.411 38.736 319.009 38.568C318.617 38.3907 318.146 38.302 317.595 38.302C316.821 38.302 316.219 38.5073 315.789 38.918C315.36 39.3193 315.145 39.856 315.145 40.528C315.145 40.976 315.248 41.368 315.453 41.704C315.659 42.0307 315.943 42.2873 316.307 42.474C316.681 42.6607 317.11 42.754 317.595 42.754ZM320.269 37.042H322.089V44H320.395C320.395 44 320.381 43.9113 320.353 43.734C320.335 43.5473 320.316 43.314 320.297 43.034C320.279 42.754 320.269 42.4787 320.269 42.208V37.042ZM323.106 37.042H325.038L328.048 43.72L326.48 44L323.106 37.042ZM331.618 37.042L326.802 46.8H324.912L326.97 42.964L329.672 37.042H331.618ZM332.314 40.948H334.204C334.241 41.2653 334.386 41.5547 334.638 41.816C334.899 42.068 335.24 42.2687 335.66 42.418C336.08 42.558 336.551 42.628 337.074 42.628C337.55 42.628 337.942 42.5767 338.25 42.474C338.558 42.3713 338.787 42.2267 338.936 42.04C339.085 41.8533 339.16 41.6293 339.16 41.368C339.16 41.116 339.067 40.9247 338.88 40.794C338.693 40.654 338.399 40.542 337.998 40.458C337.597 40.3647 337.069 40.2713 336.416 40.178C335.903 40.1033 335.417 40.0007 334.96 39.87C334.503 39.73 334.097 39.5527 333.742 39.338C333.397 39.1233 333.121 38.862 332.916 38.554C332.72 38.2367 332.622 37.8633 332.622 37.434C332.622 36.902 332.771 36.4353 333.07 36.034C333.378 35.6327 333.831 35.32 334.428 35.096C335.025 34.872 335.758 34.76 336.626 34.76C337.933 34.76 338.936 35.04 339.636 35.6C340.345 36.1507 340.691 36.9113 340.672 37.882H338.852C338.815 37.3313 338.581 36.9347 338.152 36.692C337.732 36.4493 337.2 36.328 336.556 36.328C335.959 36.328 335.464 36.4167 335.072 36.594C334.689 36.7713 334.498 37.0747 334.498 37.504C334.498 37.672 334.545 37.8213 334.638 37.952C334.731 38.0733 334.89 38.1807 335.114 38.274C335.338 38.3673 335.641 38.456 336.024 38.54C336.407 38.624 336.883 38.708 337.452 38.792C337.984 38.8667 338.465 38.9693 338.894 39.1C339.333 39.2213 339.706 39.3847 340.014 39.59C340.331 39.786 340.574 40.038 340.742 40.346C340.91 40.654 340.994 41.032 340.994 41.48C340.994 42.0307 340.849 42.5113 340.56 42.922C340.28 43.3233 339.841 43.636 339.244 43.86C338.656 44.084 337.891 44.196 336.948 44.196C336.276 44.196 335.683 44.126 335.17 43.986C334.657 43.8367 334.213 43.6407 333.84 43.398C333.467 43.1553 333.163 42.8893 332.93 42.6C332.697 42.3107 332.529 42.0213 332.426 41.732C332.333 41.4427 332.295 41.1813 332.314 40.948ZM341.909 37.042H347.313V38.456H341.909V37.042ZM343.701 35.138H345.521V44H343.701V35.138ZM352.475 44.168C351.598 44.168 350.823 44.028 350.151 43.748C349.489 43.468 348.971 43.062 348.597 42.53C348.224 41.9887 348.037 41.326 348.037 40.542C348.037 39.758 348.224 39.0953 348.597 38.554C348.971 38.0033 349.489 37.588 350.151 37.308C350.823 37.028 351.598 36.888 352.475 36.888C353.353 36.888 354.118 37.028 354.771 37.308C355.434 37.588 355.952 38.0033 356.325 38.554C356.699 39.0953 356.885 39.758 356.885 40.542C356.885 41.326 356.699 41.9887 356.325 42.53C355.952 43.062 355.434 43.468 354.771 43.748C354.118 44.028 353.353 44.168 352.475 44.168ZM352.475 42.768C352.961 42.768 353.395 42.684 353.777 42.516C354.169 42.3387 354.477 42.0867 354.701 41.76C354.925 41.424 355.037 41.018 355.037 40.542C355.037 40.066 354.925 39.66 354.701 39.324C354.477 38.9787 354.174 38.7173 353.791 38.54C353.409 38.3627 352.97 38.274 352.475 38.274C351.99 38.274 351.551 38.3627 351.159 38.54C350.767 38.7173 350.455 38.974 350.221 39.31C349.997 39.646 349.885 40.0567 349.885 40.542C349.885 41.018 349.997 41.424 350.221 41.76C350.445 42.0867 350.753 42.3387 351.145 42.516C351.537 42.684 351.981 42.768 352.475 42.768ZM358.231 37.042H360.051V44H358.231V37.042ZM362.725 38.54C362.202 38.54 361.749 38.6427 361.367 38.848C360.984 39.044 360.676 39.2867 360.443 39.576C360.209 39.8653 360.046 40.1453 359.953 40.416L359.939 39.646C359.948 39.534 359.985 39.3707 360.051 39.156C360.116 38.932 360.214 38.694 360.345 38.442C360.475 38.1807 360.648 37.9333 360.863 37.7C361.077 37.4573 361.339 37.2613 361.647 37.112C361.955 36.9627 362.314 36.888 362.725 36.888V38.54ZM370.192 41.69H371.956C371.881 42.166 371.68 42.5907 371.354 42.964C371.036 43.3373 370.602 43.6313 370.052 43.846C369.501 44.0607 368.829 44.168 368.036 44.168C367.149 44.168 366.365 44.028 365.684 43.748C365.002 43.4587 364.47 43.0433 364.088 42.502C363.705 41.9607 363.514 41.3073 363.514 40.542C363.514 39.7767 363.7 39.1233 364.074 38.582C364.447 38.0313 364.965 37.6113 365.628 37.322C366.3 37.0327 367.084 36.888 367.98 36.888C368.894 36.888 369.655 37.0327 370.262 37.322C370.868 37.6113 371.316 38.05 371.606 38.638C371.904 39.2167 372.03 39.9587 371.984 40.864H365.348C365.394 41.2187 365.525 41.5407 365.74 41.83C365.964 42.1193 366.262 42.348 366.636 42.516C367.018 42.684 367.471 42.768 367.994 42.768C368.572 42.768 369.053 42.67 369.436 42.474C369.828 42.2687 370.08 42.0073 370.192 41.69ZM367.896 38.274C367.224 38.274 366.678 38.4233 366.258 38.722C365.838 39.0113 365.567 39.3707 365.446 39.8H370.178C370.131 39.3333 369.907 38.9647 369.506 38.694C369.114 38.414 368.577 38.274 367.896 38.274Z" fill="white"/>
<defs>
<clipPath id="clip0_1891_19307">
<rect width="27.894" height="32.3147" fill="white" transform="translate(29.1589 15.3427)"/>
</clipPath>
</defs>
</svg>
