<svg width="132" height="58" viewBox="0 0 132 58" fill="none" xmlns="http://www.w3.org/2000/svg">
<g clip-path="url(#clip0_4908_41037)">
<path d="M0.568787 13.4972C0.0587537 13.7091 -0.182964 14.2943 0.0288956 14.8043C0.240755 15.3144 0.825965 15.5561 1.336 15.3442L0.568787 13.4972ZM130.53 57.9779C130.958 58.3276 131.588 58.2646 131.937 57.8372L137.636 50.8715C137.986 50.4441 137.923 49.8141 137.496 49.4643C137.068 49.1146 136.438 49.1776 136.089 49.6051L131.023 55.7967L124.831 50.7308C124.403 50.3811 123.773 50.4441 123.424 50.8716C123.074 51.299 123.137 51.929 123.564 52.2787L130.53 57.9779ZM3.66051 14.3997C4.17374 14.1957 4.42441 13.6143 4.22041 13.1011C4.01641 12.5878 3.43498 12.3371 2.92175 12.5411L3.66051 14.3997ZM7.72332 10.7138C7.2044 10.9028 6.93698 11.4767 7.12602 11.9956C7.31506 12.5146 7.88898 12.782 8.4079 12.5929L7.72332 10.7138ZM13.2053 10.9196C13.7291 10.7447 14.0121 10.1783 13.8373 9.65443C13.6625 9.13055 13.0961 8.84758 12.5722 9.0224L13.2053 10.9196ZM17.4611 7.46269C16.9327 7.6236 16.6349 8.18234 16.7958 8.71066C16.9567 9.23898 17.5154 9.53683 18.0438 9.37592L17.4611 7.46269ZM22.9149 7.96179C23.4472 7.81478 23.7596 7.26404 23.6126 6.73168C23.4656 6.19932 22.9149 5.88693 22.3825 6.03394L22.9149 7.96179ZM27.3404 4.73507C26.8043 4.86792 26.4774 5.41019 26.6103 5.94625C26.7432 6.48232 27.2854 6.80919 27.8215 6.67634L27.3404 4.73507ZM32.761 5.5229C33.3005 5.40468 33.642 4.87151 33.5238 4.33202C33.4056 3.79254 32.8724 3.45104 32.3329 3.56926L32.761 5.5229ZM37.3572 2.54195C36.8146 2.64487 36.4581 3.16817 36.5611 3.71078C36.664 4.2534 37.1873 4.60984 37.7299 4.50692L37.3572 2.54195ZM42.7246 3.63555C43.2701 3.5488 43.6419 3.03632 43.5552 2.49089C43.4684 1.94546 42.9559 1.57363 42.4105 1.66037L42.7246 3.63555ZM47.4899 0.933588C46.942 1.00309 46.5542 1.50359 46.6237 2.05148C46.6932 2.59938 47.1937 2.98719 47.7416 2.91769L47.4899 0.933588ZM52.7768 2.3641C53.3267 2.31313 53.7312 1.82601 53.6803 1.27608C53.6293 0.726153 53.1422 0.321666 52.5922 0.372633L52.7768 2.3641ZM57.7139 -0.00929761C57.1625 0.0215968 56.7405 0.493656 56.7714 1.04508C56.8023 1.5965 57.2744 2.01847 57.8258 1.98757L57.7139 -0.00929761ZM62.8825 1.80321C63.4347 1.79419 63.875 1.33922 63.866 0.787012C63.857 0.234801 63.402 -0.205541 62.8498 -0.19652L62.8825 1.80321ZM67.9928 -0.170685C67.4408 -0.185624 66.9811 0.249817 66.9662 0.8019C66.9512 1.35398 67.3867 1.81364 67.9387 1.82858L67.9928 -0.170685ZM72.9841 2.08381C73.5348 2.1251 74.0147 1.7121 74.056 1.16137C74.0973 0.610627 73.6843 0.130693 73.1336 0.089404L72.9841 2.08381ZM78.2595 0.607923C77.7117 0.537588 77.2106 0.924641 77.1403 1.47243C77.0699 2.02022 77.457 2.5213 78.0048 2.59164L78.2595 0.607923ZM82.9832 3.37731C83.5259 3.47966 84.0488 3.12268 84.1512 2.57996C84.2535 2.03724 83.8965 1.51431 83.3538 1.41196L82.9832 3.37731ZM88.3947 2.53111C87.8598 2.39358 87.3147 2.71569 87.1772 3.25058C87.0396 3.78546 87.3618 4.33057 87.8966 4.4681L88.3947 2.53111ZM92.7182 5.89285C93.2418 6.06879 93.8088 5.78703 93.9847 5.26352C94.1606 4.74001 93.8789 4.17299 93.3554 3.99705L92.7182 5.89285ZM98.1963 5.83947C97.6886 5.62217 97.1008 5.85763 96.8835 6.36537C96.6662 6.87312 96.9017 7.46087 97.4094 7.67816L98.1963 5.83947ZM101.926 9.84677C102.413 10.1077 103.019 9.92463 103.28 9.43787C103.541 8.95111 103.358 8.34499 102.871 8.08406L101.926 9.84677ZM107.327 10.7477C106.867 10.442 106.246 10.5671 105.94 11.027C105.635 11.487 105.76 12.1077 106.22 12.4134L107.327 10.7477ZM110.238 15.3809C110.665 15.7309 111.295 15.6682 111.645 15.241C111.995 14.8138 111.933 14.1837 111.505 13.8337L110.238 15.3809ZM115.351 17.3279C114.962 16.936 114.329 16.9338 113.937 17.3229C113.545 17.712 113.543 18.3452 113.932 18.7371L115.351 17.3279ZM117.262 22.4544C117.609 22.8841 118.238 22.9511 118.668 22.6042C119.098 22.2572 119.165 21.6276 118.818 21.1979L117.262 22.4544ZM121.874 25.3963C121.571 24.9342 120.951 24.8049 120.489 25.1074C120.027 25.4099 119.898 26.0297 120.2 26.4918L121.874 25.3963ZM122.736 30.8002C122.994 31.2887 123.599 31.4758 124.088 31.2181C124.576 30.9604 124.763 30.3555 124.505 29.867L122.736 30.8002ZM126.719 34.554C126.505 34.045 125.918 33.8059 125.409 34.0201C124.9 34.2342 124.661 34.8205 124.875 35.3296L126.719 34.554ZM126.635 40.0349C126.808 40.5594 127.373 40.8443 127.898 40.6712C128.422 40.4982 128.707 39.9327 128.534 39.4083L126.635 40.0349ZM129.979 44.392C129.844 43.8565 129.3 43.5318 128.765 43.6668C128.229 43.8018 127.904 44.3453 128.039 44.8809L129.979 44.392ZM129.108 49.7887C129.209 50.3318 129.73 50.6905 130.273 50.5899C130.816 50.4894 131.175 49.9676 131.075 49.4246L129.108 49.7887ZM131.862 54.491C131.792 53.9431 131.292 53.5554 130.744 53.625C130.196 53.6946 129.808 54.1952 129.878 54.7431L131.862 54.491ZM1.336 15.3442C2.09588 15.0286 2.87099 14.7135 3.66051 14.3997L2.92175 12.5411C2.12283 12.8587 1.33824 13.1776 0.568787 13.4972L1.336 15.3442ZM8.4079 12.5929C9.96491 12.0257 11.5657 11.4667 13.2053 10.9196L12.5722 9.0224C10.9154 9.57527 9.29743 10.1403 7.72332 10.7138L8.4079 12.5929ZM18.0438 9.37592C19.6395 8.88992 21.2645 8.41753 22.9149 7.96179L22.3825 6.03394C20.7151 6.4944 19.0732 6.97167 17.4611 7.46269L18.0438 9.37592ZM27.8215 6.67634C29.4497 6.27283 31.0974 5.88745 32.761 5.5229L32.3329 3.56926C30.6512 3.93778 28.9858 4.3273 27.3404 4.73507L27.8215 6.67634ZM37.7299 4.50692C39.3843 4.19313 41.0504 3.90183 42.7246 3.63555L42.4105 1.66037C40.716 1.92987 39.0305 2.22458 37.3572 2.54195L37.7299 4.50692ZM47.7416 2.91769C49.4165 2.70522 51.096 2.51988 52.7768 2.3641L52.5922 0.372633C50.8882 0.530566 49.1863 0.718394 47.4899 0.933588L47.7416 2.91769ZM57.8258 1.98757C59.5146 1.89295 61.2013 1.83068 62.8825 1.80321L62.8498 -0.19652C61.1411 -0.168606 59.428 -0.105335 57.7139 -0.00929761L57.8258 1.98757ZM67.9387 1.82858C69.631 1.87438 71.314 1.9586 72.9841 2.08381L73.1336 0.089404C71.4303 -0.0382885 69.7155 -0.12407 67.9928 -0.170685L67.9387 1.82858ZM78.0048 2.59164C79.6828 2.8071 81.3435 3.06809 82.9832 3.37731L83.3538 1.41196C81.674 1.09515 79.9745 0.828131 78.2595 0.607923L78.0048 2.59164ZM87.8966 4.4681C89.5315 4.88848 91.14 5.36244 92.7182 5.89285L93.3554 3.99705C91.7292 3.45054 90.0742 2.96298 88.3947 2.53111L87.8966 4.4681ZM97.4094 7.67816C98.9521 8.33835 100.459 9.0602 101.926 9.84677L102.871 8.08406C101.351 7.26881 99.7906 6.52176 98.1963 5.83947L97.4094 7.67816ZM106.22 12.4134C107.604 13.3335 108.945 14.3216 110.238 15.3809L111.505 13.8337C110.16 12.7313 108.765 11.7037 107.327 10.7477L106.22 12.4134ZM113.932 18.7371C115.092 19.9048 116.203 21.1428 117.262 22.4544L118.818 21.1979C117.716 19.8329 116.559 18.5439 115.351 17.3279L113.932 18.7371ZM120.2 26.4918C121.096 27.8593 121.942 29.2945 122.736 30.8002L124.505 29.867C123.682 28.3065 122.804 26.817 121.874 25.3963L120.2 26.4918ZM124.875 35.3296C125.509 36.8358 126.096 38.4035 126.635 40.0349L128.534 39.4083C127.979 37.7279 127.374 36.1104 126.719 34.554L124.875 35.3296ZM128.039 44.8809C128.438 46.463 128.795 48.0985 129.108 49.7887L131.075 49.4246C130.754 47.6938 130.388 46.0167 129.979 44.392L128.039 44.8809ZM129.878 54.7431C129.985 55.5842 130.082 56.4376 130.168 57.3034L132.158 57.1044C132.07 56.2211 131.971 55.35 131.862 54.491L129.878 54.7431Z" fill="url(#paint0_linear_4908_41037)"/>
</g>
<defs>
<linearGradient id="paint0_linear_4908_41037" x1="148.226" y1="57.2031" x2="21.6765" y2="0.78711" gradientUnits="userSpaceOnUse">
<stop stop-color="#FF823B"/>
<stop offset="1" stop-color="#FF823B" stop-opacity="0"/>
</linearGradient>
<clipPath id="clip0_4908_41037">
<rect width="130.211" height="56.4168" fill="white" transform="translate(0.952393 0.787109)"/>
</clipPath>
</defs>
</svg>
