<svg width="243" height="110" viewBox="0 0 243 110" fill="none" xmlns="http://www.w3.org/2000/svg">
<g filter="url(#filter0_d_4136_41426)">
<rect x="23.9351" y="15.0117" width="212" height="66" rx="33" fill="white"/>
</g>
<path d="M75.9351 48.0108L73.4951 45.2308L73.8351 41.5508L70.2251 40.7308L68.3351 37.5508L64.9351 39.0108L61.5351 37.5508L59.6451 40.7308L56.0351 41.5408L56.3751 45.2208L53.9351 48.0108L56.3751 50.7908L56.0351 54.4808L59.6451 55.3008L61.5351 58.4808L64.9351 57.0108L68.3351 58.4708L70.2251 55.2908L73.8351 54.4708L73.4951 50.7908L75.9351 48.0108ZM62.9351 53.0108L58.9351 49.0108L60.3451 47.6008L62.9351 50.1808L69.5251 43.5908L70.9351 45.0108L62.9351 53.0108Z" fill="#23A323"/>
<path d="M95.8831 43.0117V35.2237H99.3871C100.267 35.2237 100.947 35.4037 101.427 35.7637C101.907 36.1237 102.147 36.6397 102.147 37.3117C102.147 37.7277 102.055 38.0637 101.871 38.3197C101.695 38.5757 101.443 38.7677 101.115 38.8957C100.787 39.0157 100.403 39.0957 99.9631 39.1357L99.9871 39.0517C100.315 39.0677 100.623 39.1037 100.911 39.1597C101.207 39.2157 101.463 39.3077 101.679 39.4357C101.903 39.5637 102.079 39.7397 102.207 39.9637C102.343 40.1877 102.411 40.4797 102.411 40.8397C102.411 41.3117 102.299 41.7077 102.075 42.0277C101.851 42.3397 101.539 42.5757 101.139 42.7357C100.747 42.8957 100.291 42.9877 99.7711 43.0117H95.8831ZM97.0351 41.9797H99.5551C100.083 41.9797 100.495 41.8837 100.791 41.6917C101.087 41.4997 101.235 41.1957 101.235 40.7797C101.235 40.4597 101.143 40.2197 100.959 40.0597C100.775 39.8997 100.535 39.7957 100.239 39.7477C99.9511 39.6997 99.6511 39.6757 99.3391 39.6757H97.0351V41.9797ZM97.0351 38.6557H99.2911C99.8191 38.6557 100.231 38.5517 100.527 38.3437C100.823 38.1277 100.971 37.8157 100.971 37.4077C100.971 36.9917 100.823 36.6957 100.527 36.5197C100.231 36.3437 99.8551 36.2557 99.3991 36.2557H97.0351V38.6557ZM109.335 43.0117H108.195V37.0237H109.335V43.0117ZM108.255 40.1917L108.267 40.5517C108.259 40.6557 108.231 40.8117 108.183 41.0197C108.143 41.2197 108.071 41.4397 107.967 41.6797C107.871 41.9197 107.735 42.1517 107.559 42.3757C107.391 42.5997 107.175 42.7837 106.911 42.9277C106.647 43.0717 106.327 43.1437 105.951 43.1437C105.695 43.1437 105.431 43.1077 105.159 43.0357C104.895 42.9637 104.651 42.8437 104.427 42.6757C104.203 42.5077 104.023 42.2797 103.887 41.9917C103.751 41.6957 103.683 41.3277 103.683 40.8877V37.0237H104.835V40.6477C104.835 41.0157 104.891 41.3037 105.003 41.5117C105.123 41.7197 105.291 41.8677 105.507 41.9557C105.723 42.0437 105.967 42.0877 106.239 42.0877C106.655 42.0877 107.003 41.9877 107.283 41.7877C107.571 41.5797 107.795 41.3317 107.955 41.0437C108.115 40.7477 108.215 40.4637 108.255 40.1917ZM110.579 41.0677H111.635C111.675 41.3877 111.819 41.6517 112.067 41.8597C112.315 42.0597 112.663 42.1597 113.111 42.1597C113.399 42.1597 113.623 42.1277 113.783 42.0637C113.943 41.9917 114.055 41.8957 114.119 41.7757C114.191 41.6557 114.227 41.5237 114.227 41.3797C114.227 41.1957 114.179 41.0557 114.083 40.9597C113.987 40.8557 113.851 40.7717 113.675 40.7077C113.499 40.6357 113.291 40.5677 113.051 40.5037C112.787 40.4317 112.523 40.3477 112.259 40.2517C111.995 40.1557 111.751 40.0397 111.527 39.9037C111.311 39.7677 111.135 39.5997 110.999 39.3997C110.871 39.1917 110.807 38.9397 110.807 38.6437C110.807 38.3957 110.859 38.1637 110.963 37.9477C111.075 37.7317 111.231 37.5477 111.431 37.3957C111.639 37.2357 111.879 37.1157 112.151 37.0357C112.423 36.9477 112.723 36.9037 113.051 36.9037C113.507 36.9037 113.891 36.9877 114.203 37.1557C114.515 37.3157 114.751 37.5437 114.911 37.8397C115.079 38.1357 115.167 38.4757 115.175 38.8597H114.167C114.111 38.5237 113.995 38.2797 113.819 38.1277C113.643 37.9677 113.379 37.8877 113.027 37.8877C112.683 37.8877 112.419 37.9557 112.235 38.0917C112.051 38.2277 111.959 38.4117 111.959 38.6437C111.959 38.8197 112.023 38.9637 112.151 39.0757C112.279 39.1797 112.451 39.2717 112.667 39.3517C112.883 39.4317 113.127 39.5157 113.399 39.6037C113.655 39.6917 113.899 39.7837 114.131 39.8797C114.371 39.9677 114.583 40.0757 114.767 40.2037C114.959 40.3237 115.107 40.4837 115.211 40.6837C115.323 40.8757 115.379 41.1157 115.379 41.4037C115.379 41.7557 115.291 42.0637 115.115 42.3277C114.939 42.5837 114.683 42.7837 114.347 42.9277C114.019 43.0717 113.619 43.1437 113.147 43.1437C112.715 43.1437 112.347 43.0917 112.043 42.9877C111.747 42.8837 111.495 42.7477 111.287 42.5797C111.087 42.4117 110.931 42.2357 110.819 42.0517C110.715 41.8597 110.643 41.6757 110.603 41.4997C110.571 41.3237 110.563 41.1797 110.579 41.0677ZM117.966 34.5517V35.7877H116.538V34.5517H117.966ZM116.682 37.0237H117.822V43.0117H116.682V37.0237ZM119.445 37.0237H120.597V43.0117H119.445V37.0237ZM122.877 36.9037C123.213 36.9037 123.517 36.9517 123.789 37.0477C124.061 37.1437 124.293 37.2877 124.485 37.4797C124.677 37.6637 124.825 37.8957 124.929 38.1757C125.041 38.4477 125.097 38.7597 125.097 39.1117V43.0117H123.957V39.3637C123.957 38.8917 123.841 38.5397 123.609 38.3077C123.385 38.0677 123.041 37.9477 122.577 37.9477C122.217 37.9477 121.889 38.0317 121.593 38.1997C121.297 38.3677 121.053 38.5917 120.861 38.8717C120.677 39.1437 120.565 39.4517 120.525 39.7957L120.513 39.1357C120.553 38.8157 120.637 38.5197 120.765 38.2477C120.901 37.9757 121.069 37.7397 121.269 37.5397C121.477 37.3317 121.717 37.1757 121.989 37.0717C122.261 36.9597 122.557 36.9037 122.877 36.9037ZM131.225 41.0677H132.317C132.253 41.4597 132.101 41.8117 131.861 42.1237C131.621 42.4357 131.305 42.6837 130.913 42.8677C130.521 43.0517 130.061 43.1437 129.533 43.1437C128.909 43.1437 128.353 43.0117 127.865 42.7477C127.377 42.4837 126.993 42.1197 126.713 41.6557C126.433 41.1917 126.293 40.6517 126.293 40.0357C126.293 39.4117 126.429 38.8677 126.701 38.4037C126.973 37.9317 127.349 37.5637 127.829 37.2997C128.309 37.0357 128.857 36.9037 129.473 36.9037C130.121 36.9037 130.665 37.0317 131.105 37.2877C131.545 37.5437 131.869 37.9237 132.077 38.4277C132.293 38.9237 132.381 39.5437 132.341 40.2877H127.433C127.473 40.6477 127.581 40.9677 127.757 41.2477C127.941 41.5277 128.181 41.7477 128.477 41.9077C128.781 42.0677 129.129 42.1477 129.521 42.1477C129.961 42.1477 130.329 42.0477 130.625 41.8477C130.921 41.6477 131.121 41.3877 131.225 41.0677ZM129.485 37.8877C128.965 37.8877 128.533 38.0277 128.189 38.3077C127.845 38.5797 127.617 38.9437 127.505 39.3997H131.189C131.157 38.9117 130.981 38.5397 130.661 38.2837C130.341 38.0197 129.949 37.8877 129.485 37.8877ZM133.29 41.0677H134.346C134.386 41.3877 134.53 41.6517 134.778 41.8597C135.026 42.0597 135.374 42.1597 135.822 42.1597C136.11 42.1597 136.334 42.1277 136.494 42.0637C136.654 41.9917 136.766 41.8957 136.83 41.7757C136.902 41.6557 136.938 41.5237 136.938 41.3797C136.938 41.1957 136.89 41.0557 136.794 40.9597C136.698 40.8557 136.562 40.7717 136.386 40.7077C136.21 40.6357 136.002 40.5677 135.762 40.5037C135.498 40.4317 135.234 40.3477 134.97 40.2517C134.706 40.1557 134.462 40.0397 134.238 39.9037C134.022 39.7677 133.846 39.5997 133.71 39.3997C133.582 39.1917 133.518 38.9397 133.518 38.6437C133.518 38.3957 133.57 38.1637 133.674 37.9477C133.786 37.7317 133.942 37.5477 134.142 37.3957C134.35 37.2357 134.59 37.1157 134.862 37.0357C135.134 36.9477 135.434 36.9037 135.762 36.9037C136.218 36.9037 136.602 36.9877 136.914 37.1557C137.226 37.3157 137.462 37.5437 137.622 37.8397C137.79 38.1357 137.878 38.4757 137.886 38.8597H136.878C136.822 38.5237 136.706 38.2797 136.53 38.1277C136.354 37.9677 136.09 37.8877 135.738 37.8877C135.394 37.8877 135.13 37.9557 134.946 38.0917C134.762 38.2277 134.67 38.4117 134.67 38.6437C134.67 38.8197 134.734 38.9637 134.862 39.0757C134.99 39.1797 135.162 39.2717 135.378 39.3517C135.594 39.4317 135.838 39.5157 136.11 39.6037C136.366 39.6917 136.61 39.7837 136.842 39.8797C137.082 39.9677 137.294 40.0757 137.478 40.2037C137.67 40.3237 137.818 40.4837 137.922 40.6837C138.034 40.8757 138.09 41.1157 138.09 41.4037C138.09 41.7557 138.002 42.0637 137.826 42.3277C137.65 42.5837 137.394 42.7837 137.058 42.9277C136.73 43.0717 136.33 43.1437 135.858 43.1437C135.426 43.1437 135.058 43.0917 134.754 42.9877C134.458 42.8837 134.206 42.7477 133.998 42.5797C133.798 42.4117 133.642 42.2357 133.53 42.0517C133.426 41.8597 133.354 41.6757 133.314 41.4997C133.282 41.3237 133.274 41.1797 133.29 41.0677ZM139.033 41.0677H140.089C140.129 41.3877 140.273 41.6517 140.521 41.8597C140.769 42.0597 141.117 42.1597 141.565 42.1597C141.853 42.1597 142.077 42.1277 142.237 42.0637C142.397 41.9917 142.509 41.8957 142.573 41.7757C142.645 41.6557 142.681 41.5237 142.681 41.3797C142.681 41.1957 142.633 41.0557 142.537 40.9597C142.441 40.8557 142.305 40.7717 142.129 40.7077C141.953 40.6357 141.745 40.5677 141.505 40.5037C141.241 40.4317 140.977 40.3477 140.713 40.2517C140.449 40.1557 140.205 40.0397 139.981 39.9037C139.765 39.7677 139.589 39.5997 139.453 39.3997C139.325 39.1917 139.261 38.9397 139.261 38.6437C139.261 38.3957 139.313 38.1637 139.417 37.9477C139.529 37.7317 139.685 37.5477 139.885 37.3957C140.093 37.2357 140.333 37.1157 140.605 37.0357C140.877 36.9477 141.177 36.9037 141.505 36.9037C141.961 36.9037 142.345 36.9877 142.657 37.1557C142.969 37.3157 143.205 37.5437 143.365 37.8397C143.533 38.1357 143.621 38.4757 143.629 38.8597H142.621C142.565 38.5237 142.449 38.2797 142.273 38.1277C142.097 37.9677 141.833 37.8877 141.481 37.8877C141.137 37.8877 140.873 37.9557 140.689 38.0917C140.505 38.2277 140.413 38.4117 140.413 38.6437C140.413 38.8197 140.477 38.9637 140.605 39.0757C140.733 39.1797 140.905 39.2717 141.121 39.3517C141.337 39.4317 141.581 39.5157 141.853 39.6037C142.109 39.6917 142.353 39.7837 142.585 39.8797C142.825 39.9677 143.037 40.0757 143.221 40.2037C143.413 40.3237 143.561 40.4837 143.665 40.6837C143.777 40.8757 143.833 41.1157 143.833 41.4037C143.833 41.7557 143.745 42.0637 143.569 42.3277C143.393 42.5837 143.137 42.7837 142.801 42.9277C142.473 43.0717 142.073 43.1437 141.601 43.1437C141.169 43.1437 140.801 43.0917 140.497 42.9877C140.201 42.8837 139.949 42.7477 139.741 42.5797C139.541 42.4117 139.385 42.2357 139.273 42.0517C139.169 41.8597 139.097 41.6757 139.057 41.4997C139.025 41.3237 139.017 41.1797 139.033 41.0677ZM153.543 40.7317C153.495 41.2277 153.335 41.6597 153.063 42.0277C152.799 42.3877 152.451 42.6637 152.019 42.8557C151.587 43.0477 151.107 43.1437 150.579 43.1437C149.995 43.1437 149.459 43.0237 148.971 42.7837C148.483 42.5357 148.091 42.1797 147.795 41.7157C147.507 41.2437 147.363 40.6837 147.363 40.0357C147.363 39.3797 147.507 38.8197 147.795 38.3557C148.091 37.8837 148.483 37.5237 148.971 37.2757C149.459 37.0277 149.995 36.9037 150.579 36.9037C151.107 36.9037 151.583 36.9997 152.007 37.1917C152.431 37.3837 152.779 37.6597 153.051 38.0197C153.323 38.3717 153.487 38.7957 153.543 39.2917H152.499C152.363 38.8597 152.119 38.5197 151.767 38.2717C151.423 38.0157 151.027 37.8877 150.579 37.8877C150.211 37.8877 149.867 37.9717 149.547 38.1397C149.235 38.3077 148.983 38.5517 148.791 38.8717C148.607 39.1837 148.515 39.5717 148.515 40.0357C148.515 40.4837 148.607 40.8677 148.791 41.1877C148.983 41.4997 149.235 41.7397 149.547 41.9077C149.859 42.0677 150.203 42.1477 150.579 42.1477C151.091 42.1477 151.507 42.0237 151.827 41.7757C152.147 41.5277 152.375 41.1797 152.511 40.7317H153.543ZM157.214 43.1317C156.702 43.1317 156.234 42.9997 155.81 42.7357C155.386 42.4717 155.05 42.1077 154.802 41.6437C154.554 41.1717 154.43 40.6317 154.43 40.0237C154.43 39.4157 154.554 38.8797 154.802 38.4157C155.058 37.9437 155.406 37.5757 155.846 37.3117C156.286 37.0397 156.778 36.9037 157.322 36.9037C157.922 36.9037 158.386 37.0437 158.714 37.3237C159.05 37.6037 159.282 37.9797 159.41 38.4517C159.546 38.9237 159.614 39.4477 159.614 40.0237C159.614 40.3437 159.574 40.6837 159.494 41.0437C159.414 41.4037 159.286 41.7437 159.11 42.0637C158.934 42.3837 158.69 42.6437 158.378 42.8437C158.066 43.0357 157.678 43.1317 157.214 43.1317ZM157.538 42.1357C157.962 42.1357 158.318 42.0437 158.606 41.8597C158.902 41.6677 159.122 41.4117 159.266 41.0917C159.41 40.7717 159.482 40.4157 159.482 40.0237C159.482 39.5997 159.406 39.2277 159.254 38.9077C159.11 38.5877 158.89 38.3397 158.594 38.1637C158.306 37.9877 157.954 37.8997 157.538 37.8997C156.914 37.8997 156.43 38.0997 156.086 38.4997C155.75 38.8997 155.582 39.4077 155.582 40.0237C155.582 40.4397 155.666 40.8077 155.834 41.1277C156.002 41.4397 156.23 41.6877 156.518 41.8717C156.814 42.0477 157.154 42.1357 157.538 42.1357ZM159.482 37.0237H160.634V43.0117H159.578C159.578 43.0117 159.57 42.9397 159.554 42.7957C159.538 42.6437 159.522 42.4637 159.506 42.2557C159.49 42.0477 159.482 41.8637 159.482 41.7037V37.0237ZM165.556 43.1437C165.092 43.1437 164.704 43.0437 164.392 42.8437C164.08 42.6437 163.836 42.3837 163.66 42.0637C163.484 41.7437 163.356 41.4037 163.276 41.0437C163.196 40.6837 163.156 40.3437 163.156 40.0237C163.156 39.5917 163.192 39.1877 163.264 38.8117C163.344 38.4357 163.472 38.1037 163.648 37.8157C163.824 37.5277 164.068 37.3037 164.38 37.1437C164.692 36.9837 165.084 36.9037 165.556 36.9037C166.076 36.9037 166.544 37.0397 166.96 37.3117C167.376 37.5757 167.708 37.9437 167.956 38.4157C168.212 38.8877 168.34 39.4237 168.34 40.0237C168.34 40.6397 168.212 41.1837 167.956 41.6557C167.7 42.1197 167.36 42.4837 166.936 42.7477C166.52 43.0117 166.06 43.1437 165.556 43.1437ZM165.232 42.1357C165.616 42.1357 165.956 42.0477 166.252 41.8717C166.548 41.6877 166.776 41.4397 166.936 41.1277C167.104 40.8077 167.188 40.4397 167.188 40.0237C167.188 39.4077 167.016 38.8997 166.672 38.4997C166.336 38.0997 165.856 37.8997 165.232 37.8997C164.856 37.8997 164.52 37.9877 164.224 38.1637C163.936 38.3397 163.708 38.5877 163.54 38.9077C163.372 39.2277 163.288 39.5997 163.288 40.0237C163.288 40.4237 163.36 40.7837 163.504 41.1037C163.656 41.4157 163.876 41.6677 164.164 41.8597C164.452 42.0437 164.808 42.1357 165.232 42.1357ZM162.136 37.0237H163.24L163.288 38.3797V45.4117H162.136V37.0237ZM170.923 34.5517V35.7877H169.495V34.5517H170.923ZM169.639 37.0237H170.779V43.0117H169.639V37.0237ZM171.982 37.0237H175.858V38.0197H171.982V37.0237ZM173.35 35.4397H174.49V43.0117H173.35V35.4397ZM179.315 43.1317C178.803 43.1317 178.335 42.9997 177.911 42.7357C177.487 42.4717 177.151 42.1077 176.903 41.6437C176.655 41.1717 176.531 40.6317 176.531 40.0237C176.531 39.4157 176.655 38.8797 176.903 38.4157C177.159 37.9437 177.507 37.5757 177.947 37.3117C178.387 37.0397 178.879 36.9037 179.423 36.9037C180.023 36.9037 180.487 37.0437 180.815 37.3237C181.151 37.6037 181.383 37.9797 181.511 38.4517C181.647 38.9237 181.715 39.4477 181.715 40.0237C181.715 40.3437 181.675 40.6837 181.595 41.0437C181.515 41.4037 181.387 41.7437 181.211 42.0637C181.035 42.3837 180.791 42.6437 180.479 42.8437C180.167 43.0357 179.779 43.1317 179.315 43.1317ZM179.639 42.1357C180.063 42.1357 180.419 42.0437 180.707 41.8597C181.003 41.6677 181.223 41.4117 181.367 41.0917C181.511 40.7717 181.583 40.4157 181.583 40.0237C181.583 39.5997 181.507 39.2277 181.355 38.9077C181.211 38.5877 180.991 38.3397 180.695 38.1637C180.407 37.9877 180.055 37.8997 179.639 37.8997C179.015 37.8997 178.531 38.0997 178.187 38.4997C177.851 38.8997 177.683 39.4077 177.683 40.0237C177.683 40.4397 177.767 40.8077 177.935 41.1277C178.103 41.4397 178.331 41.6877 178.619 41.8717C178.915 42.0477 179.255 42.1357 179.639 42.1357ZM181.583 37.0237H182.735V43.0117H181.679C181.679 43.0117 181.671 42.9397 181.655 42.7957C181.639 42.6437 181.623 42.4637 181.607 42.2557C181.591 42.0477 181.583 41.8637 181.583 41.7037V37.0237ZM184.358 34.6237H185.51V43.0117H184.358V34.6237ZM195.445 43.0117H194.305V37.0237H195.445V43.0117ZM194.365 40.1917L194.377 40.5517C194.369 40.6557 194.341 40.8117 194.293 41.0197C194.253 41.2197 194.181 41.4397 194.077 41.6797C193.981 41.9197 193.845 42.1517 193.669 42.3757C193.501 42.5997 193.285 42.7837 193.021 42.9277C192.757 43.0717 192.437 43.1437 192.061 43.1437C191.805 43.1437 191.541 43.1077 191.269 43.0357C191.005 42.9637 190.761 42.8437 190.537 42.6757C190.313 42.5077 190.133 42.2797 189.997 41.9917C189.861 41.6957 189.793 41.3277 189.793 40.8877V37.0237H190.945V40.6477C190.945 41.0157 191.001 41.3037 191.113 41.5117C191.233 41.7197 191.401 41.8677 191.617 41.9557C191.833 42.0437 192.077 42.0877 192.349 42.0877C192.765 42.0877 193.113 41.9877 193.393 41.7877C193.681 41.5797 193.905 41.3317 194.065 41.0437C194.225 40.7477 194.325 40.4637 194.365 40.1917ZM200.373 43.1437C199.909 43.1437 199.521 43.0437 199.209 42.8437C198.897 42.6437 198.653 42.3837 198.477 42.0637C198.301 41.7437 198.173 41.4037 198.093 41.0437C198.013 40.6837 197.973 40.3437 197.973 40.0237C197.973 39.5917 198.009 39.1877 198.081 38.8117C198.161 38.4357 198.289 38.1037 198.465 37.8157C198.641 37.5277 198.885 37.3037 199.197 37.1437C199.509 36.9837 199.901 36.9037 200.373 36.9037C200.893 36.9037 201.361 37.0397 201.777 37.3117C202.193 37.5757 202.525 37.9437 202.773 38.4157C203.029 38.8877 203.157 39.4237 203.157 40.0237C203.157 40.6397 203.029 41.1837 202.773 41.6557C202.517 42.1197 202.177 42.4837 201.753 42.7477C201.337 43.0117 200.877 43.1437 200.373 43.1437ZM200.049 42.1357C200.433 42.1357 200.773 42.0477 201.069 41.8717C201.365 41.6877 201.593 41.4397 201.753 41.1277C201.921 40.8077 202.005 40.4397 202.005 40.0237C202.005 39.4077 201.833 38.8997 201.489 38.4997C201.153 38.0997 200.673 37.8997 200.049 37.8997C199.673 37.8997 199.337 37.9877 199.041 38.1637C198.753 38.3397 198.525 38.5877 198.357 38.9077C198.189 39.2277 198.105 39.5997 198.105 40.0237C198.105 40.4237 198.177 40.7837 198.321 41.1037C198.473 41.4157 198.693 41.6677 198.981 41.8597C199.269 42.0437 199.625 42.1357 200.049 42.1357ZM196.953 37.0237H198.057L198.105 38.3797V45.4117H196.953V37.0237ZM95.2711 54.0237H99.1471V55.0197H95.2711V54.0237ZM96.6391 52.4397H97.7791V60.0117H96.6391V52.4397ZM103.024 60.1437C102.44 60.1437 101.904 60.0197 101.416 59.7717C100.928 59.5237 100.54 59.1677 100.252 58.7037C99.9645 58.2397 99.8205 57.6837 99.8205 57.0357C99.8205 56.3797 99.9645 55.8197 100.252 55.3557C100.54 54.8837 100.928 54.5237 101.416 54.2757C101.904 54.0277 102.44 53.9037 103.024 53.9037C103.608 53.9037 104.14 54.0277 104.62 54.2757C105.1 54.5237 105.484 54.8837 105.772 55.3557C106.06 55.8197 106.204 56.3797 106.204 57.0357C106.204 57.6837 106.06 58.2397 105.772 58.7037C105.484 59.1677 105.1 59.5237 104.62 59.7717C104.14 60.0197 103.608 60.1437 103.024 60.1437ZM103.024 59.1477C103.384 59.1477 103.716 59.0677 104.02 58.9077C104.332 58.7397 104.58 58.4997 104.764 58.1877C104.956 57.8677 105.052 57.4837 105.052 57.0357C105.052 56.5797 104.956 56.1917 104.764 55.8717C104.58 55.5517 104.332 55.3077 104.02 55.1397C103.716 54.9717 103.384 54.8877 103.024 54.8877C102.664 54.8877 102.328 54.9717 102.016 55.1397C101.704 55.2997 101.452 55.5397 101.26 55.8597C101.068 56.1797 100.972 56.5717 100.972 57.0357C100.972 57.4837 101.064 57.8677 101.248 58.1877C101.44 58.4997 101.692 58.7397 102.004 58.9077C102.316 59.0677 102.656 59.1477 103.024 59.1477ZM116.827 58.7397L116.491 58.8597V52.2237H117.655V60.0117H116.491L111.055 53.5197L111.391 53.3997V60.0117H110.239V52.2237H111.391L116.827 58.7397ZM122.519 56.8077C122.887 56.8077 123.223 56.8677 123.527 56.9877C123.831 57.0997 124.095 57.2677 124.319 57.4917C124.543 57.7077 124.715 57.9757 124.835 58.2957C124.963 58.6077 125.027 58.9637 125.027 59.3637C125.027 59.8997 124.903 60.3597 124.655 60.7437C124.415 61.1277 124.083 61.4237 123.659 61.6317C123.243 61.8397 122.775 61.9437 122.255 61.9437C121.863 61.9437 121.495 61.8877 121.151 61.7757C120.807 61.6717 120.503 61.5157 120.239 61.3077C119.975 61.0997 119.759 60.8477 119.591 60.5517C119.431 60.2637 119.339 59.9317 119.315 59.5557H120.443C120.475 59.8437 120.567 60.0877 120.719 60.2877C120.879 60.4957 121.087 60.6477 121.343 60.7437C121.607 60.8477 121.903 60.8997 122.231 60.8997C122.447 60.8997 122.655 60.8677 122.855 60.8037C123.055 60.7397 123.231 60.6437 123.383 60.5157C123.543 60.3877 123.667 60.2277 123.755 60.0357C123.843 59.8437 123.887 59.6197 123.887 59.3637C123.887 59.1077 123.843 58.8837 123.755 58.6917C123.675 58.4997 123.563 58.3397 123.419 58.2117C123.275 58.0757 123.103 57.9757 122.903 57.9117C122.711 57.8397 122.507 57.8037 122.291 57.8037C122.075 57.8037 121.855 57.8317 121.631 57.8877C121.415 57.9357 121.215 58.0277 121.031 58.1637C120.855 58.2997 120.703 58.4877 120.575 58.7277L119.543 58.5237L119.819 54.0117H124.355V55.0437H120.899L120.683 58.2837L120.575 58.1997C120.663 57.8797 120.807 57.6197 121.007 57.4197C121.207 57.2117 121.439 57.0597 121.703 56.9637C121.967 56.8597 122.239 56.8077 122.519 56.8077ZM126.324 54.0237H127.476V60.0117H126.324V54.0237ZM129.756 53.9037C130.092 53.9037 130.396 53.9517 130.668 54.0477C130.94 54.1437 131.172 54.2877 131.364 54.4797C131.556 54.6637 131.704 54.8957 131.808 55.1757C131.92 55.4477 131.976 55.7597 131.976 56.1117V60.0117H130.836V56.3637C130.836 55.8917 130.72 55.5397 130.488 55.3077C130.264 55.0677 129.92 54.9477 129.456 54.9477C129.096 54.9477 128.768 55.0317 128.472 55.1997C128.176 55.3677 127.932 55.5917 127.74 55.8717C127.556 56.1437 127.444 56.4517 127.404 56.7957L127.392 56.1357C127.432 55.8157 127.516 55.5197 127.644 55.2477C127.78 54.9757 127.948 54.7397 128.148 54.5397C128.356 54.3317 128.596 54.1757 128.868 54.0717C129.14 53.9597 129.436 53.9037 129.756 53.9037ZM134.148 53.9037C134.484 53.9037 134.788 53.9517 135.06 54.0477C135.332 54.1437 135.564 54.2877 135.756 54.4797C135.948 54.6637 136.096 54.8957 136.2 55.1757C136.312 55.4477 136.368 55.7597 136.368 56.1117V60.0117H135.228V56.3637C135.228 55.8917 135.112 55.5397 134.88 55.3077C134.656 55.0677 134.312 54.9477 133.848 54.9477C133.488 54.9477 133.16 55.0317 132.864 55.1997C132.568 55.3677 132.324 55.5917 132.132 55.8717C131.948 56.1437 131.836 56.4517 131.796 56.7957L131.784 56.1237C131.824 55.8037 131.908 55.5117 132.036 55.2477C132.172 54.9757 132.344 54.7397 132.552 54.5397C132.76 54.3317 133 54.1757 133.272 54.0717C133.544 53.9597 133.836 53.9037 134.148 53.9037Z" fill="black"/>
<g filter="url(#filter1_d_4136_41426)">
<path d="M12.9031 14.3973C12.4526 12.9562 13.7002 11.5547 15.1837 11.8353L34.8915 15.5628C36.7559 15.9154 37.1273 18.4232 35.4452 19.301L27.0056 23.7057C26.5724 23.9317 26.237 24.3086 26.0626 24.765L22.6656 33.6575C21.9885 35.4299 19.4546 35.3515 18.8884 33.5406L12.9031 14.3973Z" fill="#23A323"/>
</g>
<defs>
<filter id="filter0_d_4136_41426" x="3.93506" y="3.01172" width="252" height="106" filterUnits="userSpaceOnUse" color-interpolation-filters="sRGB">
<feFlood flood-opacity="0" result="BackgroundImageFix"/>
<feColorMatrix in="SourceAlpha" type="matrix" values="0 0 0 0 0 0 0 0 0 0 0 0 0 0 0 0 0 0 127 0" result="hardAlpha"/>
<feOffset dy="8"/>
<feGaussianBlur stdDeviation="10"/>
<feComposite in2="hardAlpha" operator="out"/>
<feColorMatrix type="matrix" values="0 0 0 0 0 0 0 0 0 0 0 0 0 0 0 0 0 0 0.12 0"/>
<feBlend mode="normal" in2="BackgroundImageFix" result="effect1_dropShadow_4136_41426"/>
<feBlend mode="normal" in="SourceGraphic" in2="effect1_dropShadow_4136_41426" result="shape"/>
</filter>
<filter id="filter1_d_4136_41426" x="0.809814" y="3.79883" width="47.7109" height="47.1445" filterUnits="userSpaceOnUse" color-interpolation-filters="sRGB">
<feFlood flood-opacity="0" result="BackgroundImageFix"/>
<feColorMatrix in="SourceAlpha" type="matrix" values="0 0 0 0 0 0 0 0 0 0 0 0 0 0 0 0 0 0 127 0" result="hardAlpha"/>
<feOffset dy="4"/>
<feGaussianBlur stdDeviation="6"/>
<feComposite in2="hardAlpha" operator="out"/>
<feColorMatrix type="matrix" values="0 0 0 0 0 0 0 0 0 0 0 0 0 0 0 0 0 0 0.25 0"/>
<feBlend mode="normal" in2="BackgroundImageFix" result="effect1_dropShadow_4136_41426"/>
<feBlend mode="normal" in="SourceGraphic" in2="effect1_dropShadow_4136_41426" result="shape"/>
</filter>
</defs>
</svg>
