<svg width="68" height="77" viewBox="0 0 68 77" fill="none" xmlns="http://www.w3.org/2000/svg">
<g opacity="0.2" filter="url(#filter0_f_5303_55175)">
<circle cx="34.0527" cy="42.6123" r="13.5146" fill="black" fill-opacity="0.74"/>
</g>
<circle cx="32.2158" cy="27.7383" r="23.2695" fill="#F2FCF2"/>
<circle cx="30.2979" cy="23.8574" r="23.2695" fill="#23A323"/>
<g clip-path="url(#clip0_5303_55175)">
<path d="M34.2882 16.6875H22.5473C21.7844 16.6875 21.166 17.3059 21.166 18.0688V26.3564C21.166 27.1193 21.7844 27.7377 22.5473 27.7377H34.2882C35.051 27.7377 35.6694 27.1193 35.6694 26.3564V18.0688C35.6694 17.3059 35.051 16.6875 34.2882 16.6875Z" stroke="white" stroke-width="1.38128" stroke-linecap="round" stroke-linejoin="round"/>
<path d="M28.4176 24.2845C29.5619 24.2845 30.4895 23.3568 30.4895 22.2125C30.4895 21.0683 29.5619 20.1406 28.4176 20.1406C27.2733 20.1406 26.3457 21.0683 26.3457 22.2125C26.3457 23.3568 27.2733 24.2845 28.4176 24.2845Z" stroke="white" stroke-width="1.38128" stroke-linecap="round" stroke-linejoin="round"/>
<path d="M25.3096 31.19H37.7411C38.1074 31.19 38.4587 31.0445 38.7178 30.7854C38.9768 30.5264 39.1223 30.1751 39.1223 29.8087V22.9023" stroke="white" stroke-width="1.38128" stroke-linecap="round" stroke-linejoin="round"/>
</g>
<defs>
<filter id="filter0_f_5303_55175" x="0.538086" y="9.09766" width="67.0293" height="67.0293" filterUnits="userSpaceOnUse" color-interpolation-filters="sRGB">
<feFlood flood-opacity="0" result="BackgroundImageFix"/>
<feBlend mode="normal" in="SourceGraphic" in2="BackgroundImageFix" result="shape"/>
<feGaussianBlur stdDeviation="10" result="effect1_foregroundBlur_5303_55175"/>
</filter>
<clipPath id="clip0_5303_55175">
<rect width="19.3379" height="19.3379" fill="white" transform="translate(20.4756 14.2715)"/>
</clipPath>
</defs>
</svg>
