<svg width="213" height="57" viewBox="0 0 213 57" fill="none" xmlns="http://www.w3.org/2000/svg">
<path d="M2.00207 33.418V23.0324H7.29101C8.5625 23.0324 9.53481 23.2728 10.2079 23.7536C10.8918 24.2238 11.2337 24.9076 11.2337 25.8051C11.2337 26.3821 11.1001 26.8415 10.833 27.1834C10.5766 27.5147 10.2079 27.7657 9.72713 27.9367C9.24632 28.097 8.68003 28.1985 8.02826 28.2412L8.09237 28.1451C8.5625 28.1557 9.00591 28.1985 9.42262 28.2733C9.85001 28.3374 10.224 28.4549 10.5445 28.6259C10.8757 28.7968 11.1322 29.0372 11.3138 29.3471C11.5061 29.6463 11.6023 30.0362 11.6023 30.5171C11.6023 31.1581 11.442 31.687 11.1215 32.1037C10.8009 32.5205 10.3575 32.841 9.79124 33.0654C9.22495 33.2791 8.57318 33.3966 7.83593 33.418H2.00207ZM3.82916 31.8633H7.56347C8.25798 31.8633 8.79756 31.7458 9.18221 31.5107C9.56686 31.265 9.75919 30.8857 9.75919 30.3728C9.75919 29.9668 9.64165 29.673 9.40659 29.4913C9.17152 29.299 8.86701 29.1761 8.49304 29.1227C8.12976 29.0693 7.73977 29.0426 7.32307 29.0426H3.82916V31.8633ZM3.82916 27.52H7.17882C7.87333 27.52 8.40757 27.4025 8.78153 27.1674C9.16618 26.9216 9.35851 26.537 9.35851 26.0134C9.35851 25.5006 9.16618 25.1373 8.78153 24.9236C8.40757 24.6992 7.91607 24.587 7.30704 24.587H3.82916V27.52ZM21.5832 33.418H19.8042V25.4365H21.5832V33.418ZM19.9003 29.6195L19.9164 30.1324C19.895 30.2713 19.8469 30.4797 19.7721 30.7575C19.708 31.0353 19.5958 31.3398 19.4355 31.671C19.286 31.9916 19.083 32.3014 18.8265 32.6006C18.5808 32.8891 18.2709 33.1295 17.8969 33.3218C17.523 33.5034 17.0689 33.5943 16.5346 33.5943C16.15 33.5943 15.76 33.5408 15.3647 33.434C14.98 33.3378 14.6274 33.1722 14.3069 32.9372C13.997 32.7021 13.7459 32.3815 13.5536 31.9755C13.3613 31.5695 13.2651 31.0566 13.2651 30.4369V25.4365H15.0441V30.1004C15.0441 30.6025 15.1243 30.9979 15.2845 31.2864C15.4555 31.5642 15.6905 31.7618 15.9897 31.8794C16.2889 31.9969 16.6361 32.0557 17.0315 32.0557C17.5978 32.0557 18.0786 31.9274 18.4739 31.671C18.8693 31.4146 19.1845 31.0994 19.4195 30.7254C19.6653 30.3408 19.8255 29.9721 19.9003 29.6195ZM22.6704 25.4365H24.5776L27.7991 33.0974L26.2605 33.418L22.6704 25.4365ZM31.5654 25.4365L26.4368 36.6234H24.5616L26.7573 32.248L29.6582 25.4365H31.5654ZM40.0969 33.5943C39.3703 33.5943 38.7025 33.418 38.0935 33.0654C37.4951 32.7128 37.0143 32.2266 36.651 31.6069C36.2984 30.9765 36.1221 30.2553 36.1221 29.4432C36.1221 28.6098 36.3038 27.8833 36.6671 27.2636C37.0303 26.6332 37.5218 26.1417 38.1416 25.7891C38.7613 25.4365 39.4558 25.2602 40.2251 25.2602C41.0799 25.2602 41.7583 25.4472 42.2605 25.8211C42.7627 26.1951 43.1206 26.6973 43.3343 27.3277C43.548 27.9581 43.6549 28.6633 43.6549 29.4432C43.6549 29.8813 43.5908 30.3461 43.4626 30.8376C43.3343 31.3184 43.1313 31.7672 42.8535 32.1839C42.5864 32.6006 42.2231 32.9425 41.7637 33.2096C41.3149 33.4661 40.7593 33.5943 40.0969 33.5943ZM40.6418 32.1198C41.2401 32.1198 41.7477 32.0076 42.1644 31.7832C42.5917 31.5481 42.9123 31.2276 43.126 30.8216C43.3504 30.4156 43.4626 29.9561 43.4626 29.4432C43.4626 28.877 43.3504 28.3961 43.126 28.0008C42.9016 27.5948 42.5811 27.2849 42.1644 27.0712C41.7477 26.8469 41.2401 26.7347 40.6418 26.7347C39.787 26.7347 39.1246 26.9858 38.6544 27.4879C38.1843 27.9901 37.9492 28.6419 37.9492 29.4432C37.9492 29.9668 38.0614 30.4316 38.2858 30.8376C38.5209 31.2436 38.8414 31.5588 39.2474 31.7832C39.6534 32.0076 40.1182 32.1198 40.6418 32.1198ZM43.4626 25.4365H45.2576V33.418H43.5908C43.5908 33.418 43.5801 33.3165 43.5587 33.1135C43.5373 32.9104 43.516 32.6647 43.4946 32.3762C43.4732 32.077 43.4626 31.7939 43.4626 31.5268V25.4365ZM47.2131 25.4365H48.9922V33.418H47.2131V25.4365ZM52.3578 25.2602C52.8173 25.2602 53.2393 25.3243 53.624 25.4525C54.0193 25.5807 54.3559 25.7784 54.6337 26.0455C54.9222 26.3019 55.1412 26.6225 55.2908 27.0071C55.4511 27.3918 55.5312 27.8459 55.5312 28.3694V33.418H53.7522V28.722C53.7522 28.0703 53.5919 27.5894 53.2714 27.2796C52.9615 26.959 52.47 26.7988 51.7969 26.7988C51.284 26.7988 50.8139 26.911 50.3865 27.1353C49.9698 27.349 49.6279 27.6322 49.3608 27.9848C49.0937 28.3267 48.9387 28.706 48.896 29.1227L48.88 28.2572C48.9334 27.8619 49.0509 27.4879 49.2326 27.1353C49.4142 26.7721 49.6546 26.4515 49.9538 26.1737C50.253 25.8852 50.6056 25.6609 51.0116 25.5006C51.4176 25.3403 51.8664 25.2602 52.3578 25.2602ZM61.0542 33.5943C60.3169 33.5943 59.6438 33.418 59.0348 33.0654C58.4364 32.7128 57.9609 32.2266 57.6084 31.6069C57.2558 30.9765 57.0795 30.2553 57.0795 29.4432C57.0795 28.6098 57.2504 27.8833 57.5923 27.2636C57.9449 26.6332 58.4151 26.1417 59.0027 25.7891C59.6011 25.4365 60.2849 25.2602 61.0542 25.2602C61.7273 25.2602 62.2936 25.3724 62.7531 25.5967C63.2125 25.8104 63.5758 26.1096 63.8429 26.4943C64.11 26.8682 64.3023 27.3063 64.4199 27.8085C64.5481 28.3107 64.6122 28.8556 64.6122 29.4432C64.6122 29.8813 64.5481 30.3461 64.4199 30.8376C64.2917 31.3184 64.0886 31.7672 63.8108 32.1839C63.5437 32.6006 63.1804 32.9425 62.721 33.2096C62.2722 33.4661 61.7166 33.5943 61.0542 33.5943ZM61.5991 32.1198C62.1974 32.1198 62.705 32.0076 63.1217 31.7832C63.5491 31.5481 63.8696 31.2276 64.0833 30.8216C64.3077 30.4156 64.4199 29.9561 64.4199 29.4432C64.4199 28.877 64.3077 28.3961 64.0833 28.0008C63.8589 27.5948 63.5384 27.2796 63.1217 27.0552C62.705 26.8308 62.1974 26.7186 61.5991 26.7186C60.7443 26.7186 60.0819 26.9751 59.6117 27.4879C59.1416 27.9901 58.9065 28.6419 58.9065 29.4432C58.9065 29.9668 59.0187 30.4316 59.2431 30.8376C59.4782 31.2436 59.7987 31.5588 60.2047 31.7832C60.6108 32.0076 61.0756 32.1198 61.5991 32.1198ZM64.4199 22.2311H66.2149V33.418H64.5481C64.5267 33.1722 64.5 32.8677 64.468 32.5044C64.4359 32.1411 64.4199 31.8153 64.4199 31.5268V22.2311ZM71.7445 29.9721H73.5235C73.5663 30.3675 73.7212 30.7254 73.9883 31.046C74.2661 31.3558 74.6294 31.6016 75.0781 31.7832C75.5376 31.9542 76.0611 32.0396 76.6488 32.0396C77.1724 32.0396 77.6051 31.9755 77.947 31.8473C78.2889 31.7191 78.54 31.5428 78.7003 31.3184C78.8712 31.0834 78.9567 30.8109 78.9567 30.501C78.9567 30.1912 78.8552 29.9508 78.6522 29.7798C78.4599 29.5982 78.1607 29.4486 77.7547 29.3311C77.3487 29.2028 76.8304 29.08 76.2 28.9624C75.6765 28.8663 75.169 28.7381 74.6775 28.5778C74.186 28.4175 73.7426 28.2145 73.3472 27.9688C72.9626 27.723 72.6581 27.4238 72.4337 27.0712C72.2093 26.708 72.0971 26.2806 72.0971 25.7891C72.0971 25.2335 72.252 24.7313 72.5619 24.2825C72.8824 23.8338 73.3526 23.4812 73.9723 23.2247C74.592 22.9683 75.3453 22.8401 76.2321 22.8401C77.5891 22.8401 78.6255 23.1553 79.3414 23.7857C80.0572 24.4054 80.4045 25.2495 80.3831 26.318H78.6362C78.6041 25.6448 78.3584 25.1587 77.8989 24.8595C77.4395 24.5603 76.8572 24.4107 76.152 24.4107C75.5216 24.4107 74.9927 24.5229 74.5653 24.7473C74.1379 24.9717 73.9242 25.335 73.9242 25.8371C73.9242 26.0508 73.9723 26.2378 74.0684 26.3981C74.1753 26.5477 74.3462 26.6866 74.5813 26.8148C74.8164 26.9323 75.1369 27.0499 75.5429 27.1674C75.9596 27.2742 76.4672 27.3918 77.0655 27.52C77.5784 27.6055 78.0592 27.723 78.5079 27.8726C78.9567 28.0222 79.3467 28.2092 79.6779 28.4335C80.0198 28.6579 80.287 28.9464 80.4793 29.299C80.6716 29.6516 80.7678 30.0843 80.7678 30.5972C80.7678 31.1849 80.6182 31.7084 80.319 32.1679C80.0198 32.6166 79.5604 32.9746 78.9407 33.2417C78.3317 33.4981 77.541 33.6263 76.5687 33.6263C75.8314 33.6263 75.185 33.5408 74.6294 33.3699C74.0845 33.1882 73.6197 32.9585 73.235 32.6807C72.8504 32.3922 72.5405 32.0824 72.3055 31.7511C72.0811 31.4199 71.9208 31.0994 71.8246 30.7895C71.7392 30.469 71.7125 30.1965 71.7445 29.9721ZM89.0649 30.7895H90.7798C90.6943 31.3344 90.4807 31.8206 90.1387 32.248C89.8075 32.6647 89.3534 32.9959 88.7764 33.2417C88.1995 33.4767 87.5103 33.5943 86.7089 33.5943C85.8007 33.5943 84.9887 33.4287 84.2728 33.0974C83.5569 32.7555 82.996 32.2747 82.59 31.655C82.184 31.0353 81.9809 30.298 81.9809 29.4432C81.9809 28.5992 82.1786 27.8619 82.5739 27.2315C82.9693 26.6011 83.5142 26.115 84.2087 25.773C84.9139 25.4311 85.7259 25.2602 86.6448 25.2602C87.5958 25.2602 88.3864 25.4311 89.0168 25.773C89.6579 26.1043 90.1334 26.6064 90.4433 27.2796C90.7531 27.942 90.8813 28.7808 90.8279 29.7958H83.792C83.8454 30.2446 83.9897 30.6506 84.2247 31.0139C84.4705 31.3665 84.8017 31.6443 85.2184 31.8473C85.6351 32.0396 86.1213 32.1358 86.6769 32.1358C87.2966 32.1358 87.8148 32.0129 88.2315 31.7672C88.6589 31.5214 88.9367 31.1955 89.0649 30.7895ZM86.5968 26.7026C85.8702 26.7026 85.2718 26.8843 84.8017 27.2475C84.3316 27.6001 84.0271 28.0542 83.8882 28.6098H89.0329C88.9901 28.0115 88.7497 27.5467 88.3117 27.2155C87.8736 26.8736 87.3019 26.7026 86.5968 26.7026ZM92.5749 22.2311H94.3539V33.418H92.5749V22.2311ZM96.6755 22.2311H98.4546V33.418H96.6755V22.2311ZM114.166 31.5268L113.621 31.7351V23.0324H115.433V33.418H113.621L105.832 24.9717L106.393 24.7633V33.418H104.566V23.0324H106.393L114.166 31.5268ZM121.923 33.5943C121.036 33.5943 120.24 33.434 119.535 33.1135C118.83 32.7929 118.274 32.3228 117.868 31.7031C117.462 31.0834 117.259 30.3301 117.259 29.4432C117.259 28.5671 117.462 27.8192 117.868 27.1995C118.274 26.5691 118.83 26.0882 119.535 25.757C120.24 25.4258 121.036 25.2602 121.923 25.2602C122.81 25.2602 123.601 25.4258 124.295 25.757C124.99 26.0882 125.535 26.5691 125.93 27.1995C126.336 27.8192 126.539 28.5671 126.539 29.4432C126.539 30.3301 126.336 31.0834 125.93 31.7031C125.535 32.3228 124.99 32.7929 124.295 33.1135C123.601 33.434 122.81 33.5943 121.923 33.5943ZM121.923 32.1358C122.436 32.1358 122.906 32.0343 123.334 31.8313C123.761 31.6283 124.098 31.3238 124.343 30.9177C124.6 30.5117 124.728 30.0202 124.728 29.4432C124.728 28.8663 124.6 28.3748 124.343 27.9688C124.098 27.5627 123.761 27.2529 123.334 27.0392C122.917 26.8148 122.447 26.7026 121.923 26.7026C121.4 26.7026 120.924 26.8095 120.497 27.0232C120.069 27.2368 119.722 27.5467 119.455 27.9527C119.199 28.3587 119.07 28.8556 119.07 29.4432C119.07 30.0202 119.199 30.5117 119.455 30.9177C119.711 31.3238 120.053 31.6283 120.481 31.8313C120.919 32.0343 121.4 32.1358 121.923 32.1358ZM137.37 32.0717L136.841 32.0557L139.165 25.4365H141.12L138.011 33.418H136.328L133.844 26.7667H134.405L131.856 33.418H130.173L127.128 25.4365H129.084L131.343 32.0717H130.815L133.09 25.4365H135.174L137.37 32.0717Z" fill="black"/>
<circle cx="185.127" cy="28.3921" r="27.7681" fill="#23A323"/>
<path d="M187.921 21.3242L194.988 28.3918L187.921 35.4594" stroke="white" stroke-width="1.74652" stroke-miterlimit="10" stroke-linecap="round" stroke-linejoin="round"/>
<path d="M175.195 28.3926H194.791" stroke="white" stroke-width="1.74652" stroke-miterlimit="10" stroke-linecap="round" stroke-linejoin="round"/>
</svg>
