<svg width="561" height="172" viewBox="0 0 561 172" fill="none" xmlns="http://www.w3.org/2000/svg">
<rect y="92" width="561" height="80" rx="2" fill="url(#paint0_linear_3822_42170)"/>
<path d="M33.135 64V21.815H52.115C56.8817 21.815 60.565 22.79 63.165 24.74C65.765 26.69 67.065 29.485 67.065 33.125C67.065 35.3783 66.5667 37.1983 65.57 38.585C64.6167 39.9717 63.2517 41.0117 61.475 41.705C59.6983 42.355 57.6183 42.7883 55.235 43.005L55.365 42.55C57.1417 42.6367 58.81 42.8317 60.37 43.135C61.9733 43.4383 63.36 43.9367 64.53 44.63C65.7433 45.3233 66.6967 46.2767 67.39 47.49C68.1267 48.7033 68.495 50.285 68.495 52.235C68.495 54.7917 67.8883 56.9367 66.675 58.67C65.4617 60.36 63.7717 61.6383 61.605 62.505C59.4817 63.3717 57.0117 63.87 54.195 64H33.135ZM39.375 58.41H53.025C55.885 58.41 58.1167 57.89 59.72 56.85C61.3233 55.81 62.125 54.1633 62.125 51.91C62.125 50.1767 61.6267 48.8767 60.63 48.01C59.6333 47.1433 58.3333 46.58 56.73 46.32C55.17 46.06 53.545 45.93 51.855 45.93H39.375V58.41ZM39.375 40.405H51.595C54.455 40.405 56.6867 39.8417 58.29 38.715C59.8933 37.545 60.695 35.855 60.695 33.645C60.695 31.3917 59.8933 29.7883 58.29 28.835C56.6867 27.8817 54.65 27.405 52.18 27.405H39.375V40.405ZM106.001 64H99.826V31.565H106.001V64ZM100.151 48.725L100.216 50.675C100.173 51.2383 100.021 52.0833 99.761 53.21C99.5444 54.2933 99.1544 55.485 98.591 56.785C98.071 58.085 97.3344 59.3417 96.381 60.555C95.471 61.7683 94.301 62.765 92.871 63.545C91.441 64.325 89.7077 64.715 87.671 64.715C86.2843 64.715 84.8543 64.52 83.381 64.13C81.951 63.74 80.6293 63.09 79.416 62.18C78.2027 61.27 77.2277 60.035 76.491 58.475C75.7543 56.8717 75.386 54.8783 75.386 52.495V31.565H81.626V51.195C81.626 53.1883 81.9293 54.7483 82.536 55.875C83.186 57.0017 84.096 57.8033 85.266 58.28C86.436 58.7567 87.7577 58.995 89.231 58.995C91.4843 58.995 93.3693 58.4533 94.886 57.37C96.446 56.2433 97.6594 54.9 98.526 53.34C99.3927 51.7367 99.9344 50.1983 100.151 48.725ZM121.645 18.175V24.87H113.91V18.175H121.645ZM114.69 31.565H120.865V64H114.69V31.565ZM130.308 18.565H136.548V64H130.308V18.565ZM158.854 64.65C156.037 64.65 153.481 63.935 151.184 62.505C148.887 61.075 147.067 59.1033 145.724 56.59C144.424 54.0333 143.774 51.1083 143.774 47.815C143.774 44.5217 144.424 41.6183 145.724 39.105C147.024 36.5483 148.801 34.555 151.054 33.125C153.307 31.6517 155.907 30.915 158.854 30.915C161.411 30.915 163.534 31.3483 165.224 32.215C166.914 33.0817 168.236 34.295 169.189 35.855C170.142 37.415 170.814 39.2133 171.204 41.25C171.637 43.2867 171.854 45.475 171.854 47.815C171.854 49.5483 171.637 51.39 171.204 53.34C170.771 55.29 170.077 57.1317 169.124 58.865C168.171 60.5983 166.849 62.0067 165.159 63.09C163.469 64.13 161.367 64.65 158.854 64.65ZM160.609 59.255C162.906 59.255 164.834 58.7567 166.394 57.76C167.997 56.72 169.189 55.3333 169.969 53.6C170.749 51.8667 171.139 49.9383 171.139 47.815C171.139 45.5183 170.727 43.5033 169.904 41.77C169.124 40.0367 167.932 38.6933 166.329 37.74C164.769 36.7867 162.862 36.31 160.609 36.31C157.229 36.31 154.607 37.3933 152.744 39.56C150.924 41.7267 150.014 44.4783 150.014 47.815C150.014 50.0683 150.469 52.0617 151.379 53.795C152.289 55.485 153.524 56.8283 155.084 57.825C156.687 58.7783 158.529 59.255 160.609 59.255ZM171.139 18.565H177.379V64H171.659C171.529 63.0467 171.399 61.8767 171.269 60.49C171.182 59.1033 171.139 57.9117 171.139 56.915V18.565ZM194.135 18.175V24.87H186.4V18.175H194.135ZM187.18 31.565H193.355V64H187.18V31.565ZM202.149 31.565H208.389V64H202.149V31.565ZM220.739 30.915C222.559 30.915 224.205 31.175 225.679 31.695C227.152 32.215 228.409 32.995 229.449 34.035C230.489 35.0317 231.29 36.2883 231.854 37.805C232.46 39.2783 232.764 40.9683 232.764 42.875V64H226.589V44.24C226.589 41.6833 225.96 39.7767 224.704 38.52C223.49 37.22 221.627 36.57 219.114 36.57C217.164 36.57 215.387 37.025 213.784 37.935C212.18 38.845 210.859 40.0583 209.819 41.575C208.822 43.0483 208.215 44.7167 207.999 46.58L207.934 43.005C208.15 41.2717 208.605 39.6683 209.299 38.195C210.035 36.7217 210.945 35.4433 212.029 34.36C213.155 33.2333 214.455 32.3883 215.929 31.825C217.402 31.2183 219.005 30.915 220.739 30.915ZM253.998 58.93C251.311 58.93 248.841 58.3883 246.588 57.305C244.335 56.2217 242.536 54.64 241.193 52.56C239.893 50.48 239.243 47.9667 239.243 45.02C239.243 42.1167 239.893 39.625 241.193 37.545C242.493 35.4217 244.248 33.7967 246.458 32.67C248.711 31.5 251.225 30.915 253.998 30.915C254.821 30.915 255.601 30.98 256.338 31.11C257.075 31.1967 257.79 31.3483 258.483 31.565H272.653V37.415C270.703 37.415 268.731 37.09 266.738 36.44C264.788 35.79 263.076 35.0967 261.603 34.36L261.408 34.035C262.881 34.815 264.16 35.7683 265.243 36.895C266.326 37.9783 267.15 39.2133 267.713 40.6C268.32 41.9433 268.623 43.46 268.623 45.15C268.623 48.01 267.973 50.48 266.673 52.56C265.416 54.64 263.661 56.2217 261.408 57.305C259.198 58.3883 256.728 58.93 253.998 58.93ZM263.943 77.13V75.635C263.943 73.425 263.336 71.8433 262.123 70.89C260.91 69.9367 259.133 69.46 256.793 69.46H249.188C247.585 69.46 246.22 69.33 245.093 69.07C243.966 68.81 243.035 68.42 242.298 67.9C241.561 67.4233 241.02 66.8167 240.673 66.08C240.326 65.3867 240.153 64.6067 240.153 63.74C240.153 62.05 240.673 60.7717 241.713 59.905C242.753 59.0383 244.075 58.4967 245.678 58.28C247.281 58.02 248.906 57.9983 250.553 58.215L253.998 58.93C251.528 59.06 249.643 59.2983 248.343 59.645C247.043 59.9917 246.393 60.7283 246.393 61.855C246.393 62.505 246.653 63.025 247.173 63.415C247.693 63.805 248.43 64 249.383 64H257.313C259.783 64 261.971 64.3033 263.878 64.91C265.828 65.56 267.345 66.6217 268.428 68.095C269.555 69.6117 270.118 71.67 270.118 74.27V77.13H263.943ZM253.998 53.665C255.558 53.665 256.966 53.34 258.223 52.69C259.523 51.9967 260.563 51.0217 261.343 49.765C262.123 48.465 262.513 46.905 262.513 45.085C262.513 43.2217 262.123 41.64 261.343 40.34C260.606 38.9967 259.588 38 258.288 37.35C256.988 36.6567 255.558 36.31 253.998 36.31C252.438 36.31 250.986 36.6567 249.643 37.35C248.343 38 247.303 38.975 246.523 40.275C245.743 41.575 245.353 43.1783 245.353 45.085C245.353 46.905 245.743 48.465 246.523 49.765C247.303 51.0217 248.343 51.9967 249.643 52.69C250.943 53.34 252.395 53.665 253.998 53.665Z" fill="black"/>
<path d="M51.725 149.65C49.1683 149.65 47.045 149.13 45.355 148.09C43.7083 147.007 42.3867 145.598 41.39 143.865C40.4367 142.132 39.7433 140.29 39.31 138.34C38.8767 136.39 38.66 134.548 38.66 132.815C38.66 130.475 38.855 128.287 39.245 126.25C39.6783 124.213 40.3717 122.415 41.325 120.855C42.2783 119.295 43.6 118.082 45.29 117.215C46.98 116.348 49.125 115.915 51.725 115.915C54.6283 115.915 57.2067 116.652 59.46 118.125C61.7567 119.555 63.555 121.548 64.855 124.105C66.155 126.618 66.805 129.522 66.805 132.815C66.805 136.108 66.1333 139.033 64.79 141.59C63.4467 144.103 61.6267 146.075 59.33 147.505C57.0767 148.935 54.5417 149.65 51.725 149.65ZM49.97 144.255C52.05 144.255 53.87 143.778 55.43 142.825C57.0333 141.828 58.2683 140.485 59.135 138.795C60.045 137.062 60.5 135.068 60.5 132.815C60.5 129.478 59.5683 126.727 57.705 124.56C55.885 122.393 53.3067 121.31 49.97 121.31C47.7167 121.31 45.7883 121.787 44.185 122.74C42.625 123.693 41.4333 125.037 40.61 126.77C39.7867 128.503 39.375 130.518 39.375 132.815C39.375 134.938 39.765 136.867 40.545 138.6C41.3683 140.333 42.56 141.72 44.12 142.76C45.7233 143.757 47.6733 144.255 49.97 144.255ZM39.375 103.565V141.915C39.375 142.912 39.31 144.103 39.18 145.49C39.0933 146.877 39.0067 148.047 38.92 149H33.2V103.565H39.375ZM73.2278 116.565H79.4678V149H73.2278V116.565ZM90.4528 122.09C88.1995 122.09 86.2711 122.61 84.6678 123.65C83.1078 124.69 81.8511 125.968 80.8978 127.485C79.9878 129.002 79.3811 130.453 79.0778 131.84L79.0128 128.135C79.0561 127.702 79.1645 127.03 79.3378 126.12C79.5545 125.167 79.9228 124.105 80.4428 122.935C80.9628 121.765 81.6561 120.66 82.5228 119.62C83.3895 118.537 84.4728 117.648 85.7728 116.955C87.0728 116.262 88.6328 115.915 90.4528 115.915V122.09ZM103.554 103.175V109.87H95.8194V103.175H103.554ZM96.5994 116.565H102.774V149H96.5994V116.565ZM124.958 149.65C122.141 149.65 119.584 148.935 117.288 147.505C114.991 146.075 113.171 144.103 111.828 141.59C110.528 139.033 109.878 136.108 109.878 132.815C109.878 129.522 110.528 126.618 111.828 124.105C113.128 121.548 114.904 119.555 117.158 118.125C119.411 116.652 122.011 115.915 124.958 115.915C127.514 115.915 129.638 116.348 131.328 117.215C133.018 118.082 134.339 119.295 135.293 120.855C136.246 122.415 136.918 124.213 137.308 126.25C137.741 128.287 137.958 130.475 137.958 132.815C137.958 134.548 137.741 136.39 137.308 138.34C136.874 140.29 136.181 142.132 135.228 143.865C134.274 145.598 132.953 147.007 131.263 148.09C129.573 149.13 127.471 149.65 124.958 149.65ZM126.713 144.255C129.009 144.255 130.938 143.757 132.498 142.76C134.101 141.72 135.293 140.333 136.073 138.6C136.853 136.867 137.243 134.938 137.243 132.815C137.243 130.518 136.831 128.503 136.008 126.77C135.228 125.037 134.036 123.693 132.433 122.74C130.873 121.787 128.966 121.31 126.713 121.31C123.333 121.31 120.711 122.393 118.848 124.56C117.028 126.727 116.118 129.478 116.118 132.815C116.118 135.068 116.573 137.062 117.483 138.795C118.393 140.485 119.628 141.828 121.188 142.825C122.791 143.778 124.633 144.255 126.713 144.255ZM137.243 103.565H143.483V149H137.763C137.633 148.047 137.503 146.877 137.373 145.49C137.286 144.103 137.243 142.912 137.243 141.915V103.565ZM165.829 143.93C163.142 143.93 160.672 143.388 158.419 142.305C156.166 141.222 154.367 139.64 153.024 137.56C151.724 135.48 151.074 132.967 151.074 130.02C151.074 127.117 151.724 124.625 153.024 122.545C154.324 120.422 156.079 118.797 158.289 117.67C160.542 116.5 163.056 115.915 165.829 115.915C166.652 115.915 167.432 115.98 168.169 116.11C168.906 116.197 169.621 116.348 170.314 116.565H184.484V122.415C182.534 122.415 180.562 122.09 178.569 121.44C176.619 120.79 174.907 120.097 173.434 119.36L173.239 119.035C174.712 119.815 175.991 120.768 177.074 121.895C178.157 122.978 178.981 124.213 179.544 125.6C180.151 126.943 180.454 128.46 180.454 130.15C180.454 133.01 179.804 135.48 178.504 137.56C177.247 139.64 175.492 141.222 173.239 142.305C171.029 143.388 168.559 143.93 165.829 143.93ZM175.774 162.13V160.635C175.774 158.425 175.167 156.843 173.954 155.89C172.741 154.937 170.964 154.46 168.624 154.46H161.019C159.416 154.46 158.051 154.33 156.924 154.07C155.797 153.81 154.866 153.42 154.129 152.9C153.392 152.423 152.851 151.817 152.504 151.08C152.157 150.387 151.984 149.607 151.984 148.74C151.984 147.05 152.504 145.772 153.544 144.905C154.584 144.038 155.906 143.497 157.509 143.28C159.112 143.02 160.737 142.998 162.384 143.215L165.829 143.93C163.359 144.06 161.474 144.298 160.174 144.645C158.874 144.992 158.224 145.728 158.224 146.855C158.224 147.505 158.484 148.025 159.004 148.415C159.524 148.805 160.261 149 161.214 149H169.144C171.614 149 173.802 149.303 175.709 149.91C177.659 150.56 179.176 151.622 180.259 153.095C181.386 154.612 181.949 156.67 181.949 159.27V162.13H175.774ZM165.829 138.665C167.389 138.665 168.797 138.34 170.054 137.69C171.354 136.997 172.394 136.022 173.174 134.765C173.954 133.465 174.344 131.905 174.344 130.085C174.344 128.222 173.954 126.64 173.174 125.34C172.437 123.997 171.419 123 170.119 122.35C168.819 121.657 167.389 121.31 165.829 121.31C164.269 121.31 162.817 121.657 161.474 122.35C160.174 123 159.134 123.975 158.354 125.275C157.574 126.575 157.184 128.178 157.184 130.085C157.184 131.905 157.574 133.465 158.354 134.765C159.134 136.022 160.174 136.997 161.474 137.69C162.774 138.34 164.226 138.665 165.829 138.665ZM215.24 138.47H221.155C220.808 140.593 219.985 142.5 218.685 144.19C217.385 145.88 215.673 147.223 213.55 148.22C211.427 149.217 208.935 149.715 206.075 149.715C202.695 149.715 199.683 149 197.04 147.57C194.397 146.14 192.317 144.168 190.8 141.655C189.283 139.142 188.525 136.217 188.525 132.88C188.525 129.5 189.262 126.553 190.735 124.04C192.208 121.483 194.245 119.49 196.845 118.06C199.445 116.63 202.413 115.915 205.75 115.915C209.26 115.915 212.207 116.608 214.59 117.995C216.973 119.382 218.728 121.44 219.855 124.17C221.025 126.857 221.502 130.215 221.285 134.245H194.7C194.917 136.195 195.502 137.928 196.455 139.445C197.452 140.962 198.752 142.153 200.355 143.02C202.002 143.887 203.887 144.32 206.01 144.32C208.393 144.32 210.387 143.778 211.99 142.695C213.593 141.612 214.677 140.203 215.24 138.47ZM205.815 121.245C202.998 121.245 200.658 122.003 198.795 123.52C196.932 124.993 195.697 126.965 195.09 129.435H215.045C214.872 126.792 213.918 124.777 212.185 123.39C210.452 121.96 208.328 121.245 205.815 121.245ZM226.427 138.47H232.147C232.363 140.203 233.143 141.633 234.487 142.76C235.83 143.843 237.715 144.385 240.142 144.385C241.702 144.385 242.915 144.212 243.782 143.865C244.648 143.475 245.255 142.955 245.602 142.305C245.992 141.655 246.187 140.94 246.187 140.16C246.187 139.163 245.927 138.405 245.407 137.885C244.887 137.322 244.15 136.867 243.197 136.52C242.243 136.13 241.117 135.762 239.817 135.415C238.387 135.025 236.957 134.57 235.527 134.05C234.097 133.53 232.775 132.902 231.562 132.165C230.392 131.428 229.438 130.518 228.702 129.435C228.008 128.308 227.662 126.943 227.662 125.34C227.662 123.997 227.943 122.74 228.507 121.57C229.113 120.4 229.958 119.403 231.042 118.58C232.168 117.713 233.468 117.063 234.942 116.63C236.415 116.153 238.04 115.915 239.817 115.915C242.287 115.915 244.367 116.37 246.057 117.28C247.747 118.147 249.025 119.382 249.892 120.985C250.802 122.588 251.278 124.43 251.322 126.51H245.862C245.558 124.69 244.93 123.368 243.977 122.545C243.023 121.678 241.593 121.245 239.687 121.245C237.823 121.245 236.393 121.613 235.397 122.35C234.4 123.087 233.902 124.083 233.902 125.34C233.902 126.293 234.248 127.073 234.942 127.68C235.635 128.243 236.567 128.742 237.737 129.175C238.907 129.608 240.228 130.063 241.702 130.54C243.088 131.017 244.41 131.515 245.667 132.035C246.967 132.512 248.115 133.097 249.112 133.79C250.152 134.44 250.953 135.307 251.517 136.39C252.123 137.43 252.427 138.73 252.427 140.29C252.427 142.197 251.95 143.865 250.997 145.295C250.043 146.682 248.657 147.765 246.837 148.545C245.06 149.325 242.893 149.715 240.337 149.715C237.997 149.715 236.003 149.433 234.357 148.87C232.753 148.307 231.388 147.57 230.262 146.66C229.178 145.75 228.333 144.797 227.727 143.8C227.163 142.76 226.773 141.763 226.557 140.81C226.383 139.857 226.34 139.077 226.427 138.47ZM270.967 116.565H291.962V121.96H270.967V116.565ZM278.377 107.985H284.552V149H278.377V107.985ZM312.965 149.715C309.802 149.715 306.898 149.043 304.255 147.7C301.612 146.357 299.51 144.428 297.95 141.915C296.39 139.402 295.61 136.39 295.61 132.88C295.61 129.327 296.39 126.293 297.95 123.78C299.51 121.223 301.612 119.273 304.255 117.93C306.898 116.587 309.802 115.915 312.965 115.915C316.128 115.915 319.01 116.587 321.61 117.93C324.21 119.273 326.29 121.223 327.85 123.78C329.41 126.293 330.19 129.327 330.19 132.88C330.19 136.39 329.41 139.402 327.85 141.915C326.29 144.428 324.21 146.357 321.61 147.7C319.01 149.043 316.128 149.715 312.965 149.715ZM312.965 144.32C314.915 144.32 316.713 143.887 318.36 143.02C320.05 142.11 321.393 140.81 322.39 139.12C323.43 137.387 323.95 135.307 323.95 132.88C323.95 130.41 323.43 128.308 322.39 126.575C321.393 124.842 320.05 123.52 318.36 122.61C316.713 121.7 314.915 121.245 312.965 121.245C311.015 121.245 309.195 121.7 307.505 122.61C305.815 123.477 304.45 124.777 303.41 126.51C302.37 128.243 301.85 130.367 301.85 132.88C301.85 135.307 302.348 137.387 303.345 139.12C304.385 140.81 305.75 142.11 307.44 143.02C309.13 143.887 310.972 144.32 312.965 144.32ZM349.784 143.93C347.097 143.93 344.627 143.388 342.374 142.305C340.121 141.222 338.322 139.64 336.979 137.56C335.679 135.48 335.029 132.967 335.029 130.02C335.029 127.117 335.679 124.625 336.979 122.545C338.279 120.422 340.034 118.797 342.244 117.67C344.497 116.5 347.011 115.915 349.784 115.915C350.607 115.915 351.387 115.98 352.124 116.11C352.861 116.197 353.576 116.348 354.269 116.565H368.439V122.415C366.489 122.415 364.517 122.09 362.524 121.44C360.574 120.79 358.862 120.097 357.389 119.36L357.194 119.035C358.667 119.815 359.946 120.768 361.029 121.895C362.112 122.978 362.936 124.213 363.499 125.6C364.106 126.943 364.409 128.46 364.409 130.15C364.409 133.01 363.759 135.48 362.459 137.56C361.202 139.64 359.447 141.222 357.194 142.305C354.984 143.388 352.514 143.93 349.784 143.93ZM359.729 162.13V160.635C359.729 158.425 359.122 156.843 357.909 155.89C356.696 154.937 354.919 154.46 352.579 154.46H344.974C343.371 154.46 342.006 154.33 340.879 154.07C339.752 153.81 338.821 153.42 338.084 152.9C337.347 152.423 336.806 151.817 336.459 151.08C336.112 150.387 335.939 149.607 335.939 148.74C335.939 147.05 336.459 145.772 337.499 144.905C338.539 144.038 339.861 143.497 341.464 143.28C343.067 143.02 344.692 142.998 346.339 143.215L349.784 143.93C347.314 144.06 345.429 144.298 344.129 144.645C342.829 144.992 342.179 145.728 342.179 146.855C342.179 147.505 342.439 148.025 342.959 148.415C343.479 148.805 344.216 149 345.169 149H353.099C355.569 149 357.757 149.303 359.664 149.91C361.614 150.56 363.131 151.622 364.214 153.095C365.341 154.612 365.904 156.67 365.904 159.27V162.13H359.729ZM349.784 138.665C351.344 138.665 352.752 138.34 354.009 137.69C355.309 136.997 356.349 136.022 357.129 134.765C357.909 133.465 358.299 131.905 358.299 130.085C358.299 128.222 357.909 126.64 357.129 125.34C356.392 123.997 355.374 123 354.074 122.35C352.774 121.657 351.344 121.31 349.784 121.31C348.224 121.31 346.772 121.657 345.429 122.35C344.129 123 343.089 123.975 342.309 125.275C341.529 126.575 341.139 128.178 341.139 130.085C341.139 131.905 341.529 133.465 342.309 134.765C343.089 136.022 344.129 136.997 345.429 137.69C346.729 138.34 348.181 138.665 349.784 138.665ZM399.195 138.47H405.11C404.764 140.593 403.94 142.5 402.64 144.19C401.34 145.88 399.629 147.223 397.505 148.22C395.382 149.217 392.89 149.715 390.03 149.715C386.65 149.715 383.639 149 380.995 147.57C378.352 146.14 376.272 144.168 374.755 141.655C373.239 139.142 372.48 136.217 372.48 132.88C372.48 129.5 373.217 126.553 374.69 124.04C376.164 121.483 378.2 119.49 380.8 118.06C383.4 116.63 386.369 115.915 389.705 115.915C393.215 115.915 396.162 116.608 398.545 117.995C400.929 119.382 402.684 121.44 403.81 124.17C404.98 126.857 405.457 130.215 405.24 134.245H378.655C378.872 136.195 379.457 137.928 380.41 139.445C381.407 140.962 382.707 142.153 384.31 143.02C385.957 143.887 387.842 144.32 389.965 144.32C392.349 144.32 394.342 143.778 395.945 142.695C397.549 141.612 398.632 140.203 399.195 138.47ZM389.77 121.245C386.954 121.245 384.614 122.003 382.75 123.52C380.887 124.993 379.652 126.965 379.045 129.435H399C398.827 126.792 397.874 124.777 396.14 123.39C394.407 121.96 392.284 121.245 389.77 121.245ZM408.966 116.565H429.961V121.96H408.966V116.565ZM416.376 107.985H422.551V149H416.376V107.985ZM461.024 149V129.435C461.024 127.702 460.743 126.272 460.179 125.145C459.616 124.018 458.771 123.173 457.644 122.61C456.518 122.003 455.088 121.7 453.354 121.7C451.448 121.7 449.693 122.155 448.089 123.065C446.529 123.932 445.251 125.123 444.254 126.64C443.258 128.113 442.651 129.782 442.434 131.645L442.369 127.94C442.586 126.25 443.041 124.668 443.734 123.195C444.471 121.722 445.381 120.443 446.464 119.36C447.591 118.277 448.891 117.432 450.364 116.825C451.838 116.218 453.441 115.915 455.174 115.915C456.994 115.915 458.641 116.175 460.114 116.695C461.588 117.172 462.844 117.93 463.884 118.97C464.968 119.967 465.791 121.202 466.354 122.675C466.918 124.105 467.199 125.752 467.199 127.615V149H461.024ZM436.649 149V103.565H442.824V149H436.649ZM500.44 138.47H506.355C506.009 140.593 505.185 142.5 503.885 144.19C502.585 145.88 500.874 147.223 498.75 148.22C496.627 149.217 494.135 149.715 491.275 149.715C487.895 149.715 484.884 149 482.24 147.57C479.597 146.14 477.517 144.168 476 141.655C474.484 139.142 473.725 136.217 473.725 132.88C473.725 129.5 474.462 126.553 475.935 124.04C477.409 121.483 479.445 119.49 482.045 118.06C484.645 116.63 487.614 115.915 490.95 115.915C494.46 115.915 497.407 116.608 499.79 117.995C502.174 119.382 503.929 121.44 505.055 124.17C506.225 126.857 506.702 130.215 506.485 134.245H479.9C480.117 136.195 480.702 137.928 481.655 139.445C482.652 140.962 483.952 142.153 485.555 143.02C487.202 143.887 489.087 144.32 491.21 144.32C493.594 144.32 495.587 143.778 497.19 142.695C498.794 141.612 499.877 140.203 500.44 138.47ZM491.015 121.245C488.199 121.245 485.859 122.003 483.995 123.52C482.132 124.993 480.897 126.965 480.29 129.435H500.245C500.072 126.792 499.119 124.777 497.385 123.39C495.652 121.96 493.529 121.245 491.015 121.245ZM513.057 116.565H519.297V149H513.057V116.565ZM530.282 122.09C528.029 122.09 526.1 122.61 524.497 123.65C522.937 124.69 521.68 125.968 520.727 127.485C519.817 129.002 519.21 130.453 518.907 131.84L518.842 128.135C518.885 127.702 518.994 127.03 519.167 126.12C519.384 125.167 519.752 124.105 520.272 122.935C520.792 121.765 521.485 120.66 522.352 119.62C523.219 118.537 524.302 117.648 525.602 116.955C526.902 116.262 528.462 115.915 530.282 115.915V122.09Z" fill="white"/>
<defs>
<linearGradient id="paint0_linear_3822_42170" x1="52.7805" y1="91.4142" x2="87.9141" y2="254.092" gradientUnits="userSpaceOnUse">
<stop stop-color="#228B22"/>
<stop offset="0.740862" stop-color="#FFBD00"/>
</linearGradient>
</defs>
</svg>
