<svg width="478" height="133" viewBox="0 0 478 133" fill="none" xmlns="http://www.w3.org/2000/svg">
<rect x="164" y="64" width="314" height="69" rx="10" fill="#FF823B"/>
<path d="M137.223 96.3769C137.717 96.6238 137.917 97.2244 137.67 97.7184L133.646 105.769C133.399 106.263 132.799 106.463 132.305 106.216C131.811 105.969 131.61 105.369 131.857 104.875L135.434 97.7187L128.278 94.1419C127.784 93.895 127.584 93.2943 127.831 92.8003C128.078 92.3063 128.678 92.106 129.172 92.3529L137.223 96.3769ZM0.428104 21.5625C5.2138 18.2261 9.87255 17.3114 14.4741 18.3181C19.0221 19.3132 23.3984 22.1602 27.7227 26.1071C36.34 33.9722 45.1724 46.6275 55.0567 59.0773C65.0001 71.6017 76.073 84.0182 89.3101 91.7531C102.495 99.4573 117.846 102.53 136.459 96.3227L137.092 98.22C117.883 104.626 101.936 101.447 88.3011 93.4799C74.7188 85.5434 63.4514 72.8676 53.4903 60.3209C43.4701 47.6998 34.8338 35.3053 26.3744 27.5843C22.1604 23.7381 18.0964 21.1579 14.0467 20.2719C10.0506 19.3976 5.95419 20.148 1.5719 23.2031L0.428104 21.5625Z" fill="url(#paint0_linear_3203_31258)"/>
<path d="M229.106 104V94.914H233.782C234.435 94.914 234.995 95.012 235.462 95.208C235.938 95.3947 236.302 95.684 236.554 96.076C236.806 96.4587 236.932 96.9487 236.932 97.546C236.932 97.9567 236.862 98.3067 236.722 98.596C236.591 98.876 236.409 99.1093 236.176 99.296C235.943 99.4827 235.667 99.6273 235.35 99.73C235.033 99.8327 234.692 99.898 234.328 99.926L234.23 99.842C234.781 99.8607 235.243 99.9213 235.616 100.024C235.989 100.127 236.274 100.313 236.47 100.584C236.675 100.845 236.778 101.237 236.778 101.76V104H235.42V101.802C235.42 101.438 235.359 101.153 235.238 100.948C235.117 100.743 234.907 100.598 234.608 100.514C234.309 100.43 233.889 100.388 233.348 100.388H230.45V104H229.106ZM230.45 99.212H233.782C234.379 99.212 234.827 99.0627 235.126 98.764C235.434 98.4653 235.588 98.0733 235.588 97.588C235.588 97.1213 235.434 96.762 235.126 96.51C234.827 96.258 234.379 96.132 233.782 96.132H230.45V99.212ZM240.281 94.13V95.572H238.615V94.13H240.281ZM238.783 97.014H240.113V104H238.783V97.014ZM244.891 104.14C244.284 104.14 243.734 103.986 243.239 103.678C242.744 103.37 242.352 102.945 242.063 102.404C241.783 101.853 241.643 101.223 241.643 100.514C241.643 99.8047 241.783 99.1793 242.063 98.638C242.343 98.0873 242.726 97.658 243.211 97.35C243.696 97.0327 244.256 96.874 244.891 96.874C245.442 96.874 245.899 96.9673 246.263 97.154C246.627 97.3407 246.912 97.602 247.117 97.938C247.322 98.274 247.467 98.6613 247.551 99.1C247.644 99.5387 247.691 100.01 247.691 100.514C247.691 100.887 247.644 101.284 247.551 101.704C247.458 102.124 247.308 102.521 247.103 102.894C246.898 103.267 246.613 103.571 246.249 103.804C245.885 104.028 245.432 104.14 244.891 104.14ZM245.269 102.978C245.764 102.978 246.179 102.871 246.515 102.656C246.86 102.432 247.117 102.133 247.285 101.76C247.453 101.387 247.537 100.971 247.537 100.514C247.537 100.019 247.448 99.5853 247.271 99.212C247.103 98.8387 246.846 98.5493 246.501 98.344C246.165 98.1387 245.754 98.036 245.269 98.036C244.541 98.036 243.976 98.2693 243.575 98.736C243.183 99.2027 242.987 99.7953 242.987 100.514C242.987 100.999 243.085 101.429 243.281 101.802C243.477 102.166 243.743 102.455 244.079 102.67C244.424 102.875 244.821 102.978 245.269 102.978ZM247.537 94.214H248.881V104H247.649C247.621 103.795 247.593 103.543 247.565 103.244C247.546 102.945 247.537 102.689 247.537 102.474V94.214ZM256.27 101.732H257.544C257.469 102.189 257.292 102.6 257.012 102.964C256.732 103.328 256.363 103.617 255.906 103.832C255.449 104.047 254.912 104.154 254.296 104.154C253.568 104.154 252.919 104 252.35 103.692C251.781 103.384 251.333 102.959 251.006 102.418C250.679 101.877 250.516 101.247 250.516 100.528C250.516 99.8 250.675 99.1653 250.992 98.624C251.309 98.0733 251.748 97.644 252.308 97.336C252.868 97.028 253.507 96.874 254.226 96.874C254.982 96.874 255.617 97.0233 256.13 97.322C256.643 97.6207 257.021 98.064 257.264 98.652C257.516 99.2307 257.619 99.954 257.572 100.822H251.846C251.893 101.242 252.019 101.615 252.224 101.942C252.439 102.269 252.719 102.525 253.064 102.712C253.419 102.899 253.825 102.992 254.282 102.992C254.795 102.992 255.225 102.875 255.57 102.642C255.915 102.409 256.149 102.105 256.27 101.732ZM254.24 98.022C253.633 98.022 253.129 98.1853 252.728 98.512C252.327 98.8293 252.061 99.254 251.93 99.786H256.228C256.191 99.2167 255.985 98.7827 255.612 98.484C255.239 98.176 254.781 98.022 254.24 98.022ZM270.954 100.892C270.87 101.573 270.636 102.157 270.254 102.642C269.88 103.127 269.39 103.501 268.784 103.762C268.177 104.023 267.486 104.154 266.712 104.154C266.012 104.154 265.368 104.047 264.78 103.832C264.201 103.617 263.697 103.309 263.268 102.908C262.838 102.507 262.502 102.017 262.26 101.438C262.017 100.85 261.896 100.192 261.896 99.464C261.896 98.7267 262.017 98.0687 262.26 97.49C262.502 96.9113 262.838 96.4213 263.268 96.02C263.697 95.6093 264.201 95.2967 264.78 95.082C265.368 94.8673 266.012 94.76 266.712 94.76C267.496 94.76 268.191 94.8953 268.798 95.166C269.404 95.4273 269.894 95.8053 270.268 96.3C270.65 96.7853 270.884 97.3687 270.968 98.05H269.68C269.558 97.6113 269.358 97.238 269.078 96.93C268.798 96.622 268.457 96.3887 268.056 96.23C267.654 96.062 267.206 95.978 266.712 95.978C266.077 95.978 265.498 96.1133 264.976 96.384C264.453 96.6547 264.033 97.0467 263.716 97.56C263.408 98.0733 263.254 98.708 263.254 99.464C263.254 100.211 263.408 100.845 263.716 101.368C264.033 101.881 264.453 102.273 264.976 102.544C265.498 102.805 266.077 102.936 266.712 102.936C267.206 102.936 267.65 102.857 268.042 102.698C268.443 102.539 268.784 102.306 269.064 101.998C269.344 101.69 269.549 101.321 269.68 100.892H270.954ZM275.938 104.154C275.256 104.154 274.631 104.009 274.062 103.72C273.492 103.431 273.04 103.015 272.704 102.474C272.368 101.933 272.2 101.284 272.2 100.528C272.2 99.7627 272.368 99.1093 272.704 98.568C273.04 98.0173 273.492 97.5973 274.062 97.308C274.631 97.0187 275.256 96.874 275.938 96.874C276.619 96.874 277.24 97.0187 277.8 97.308C278.36 97.5973 278.808 98.0173 279.144 98.568C279.48 99.1093 279.648 99.7627 279.648 100.528C279.648 101.284 279.48 101.933 279.144 102.474C278.808 103.015 278.36 103.431 277.8 103.72C277.24 104.009 276.619 104.154 275.938 104.154ZM275.938 102.992C276.358 102.992 276.745 102.899 277.1 102.712C277.464 102.516 277.753 102.236 277.968 101.872C278.192 101.499 278.304 101.051 278.304 100.528C278.304 99.996 278.192 99.5433 277.968 99.17C277.753 98.7967 277.464 98.512 277.1 98.316C276.745 98.12 276.358 98.022 275.938 98.022C275.518 98.022 275.126 98.12 274.762 98.316C274.398 98.5027 274.104 98.7827 273.88 99.156C273.656 99.5293 273.544 99.9867 273.544 100.528C273.544 101.051 273.651 101.499 273.866 101.872C274.09 102.236 274.384 102.516 274.748 102.712C275.112 102.899 275.508 102.992 275.938 102.992ZM281.054 97.014H282.398V104H281.054V97.014ZM285.058 96.874C285.45 96.874 285.805 96.93 286.122 97.042C286.439 97.154 286.71 97.322 286.934 97.546C287.158 97.7607 287.331 98.0313 287.452 98.358C287.583 98.6753 287.648 99.0393 287.648 99.45V104H286.318V99.744C286.318 99.1933 286.183 98.7827 285.912 98.512C285.651 98.232 285.249 98.092 284.708 98.092C284.288 98.092 283.905 98.19 283.56 98.386C283.215 98.582 282.93 98.8433 282.706 99.17C282.491 99.4873 282.361 99.8467 282.314 100.248L282.3 99.478C282.347 99.1047 282.445 98.7593 282.594 98.442C282.753 98.1247 282.949 97.8493 283.182 97.616C283.425 97.3733 283.705 97.1913 284.022 97.07C284.339 96.9393 284.685 96.874 285.058 96.874ZM292.323 102.964H291.889L294.157 97.014H295.613L292.743 104H291.483L288.641 97.014H290.111L292.323 102.964ZM301.907 101.732H303.181C303.106 102.189 302.929 102.6 302.649 102.964C302.369 103.328 302 103.617 301.543 103.832C301.085 104.047 300.549 104.154 299.933 104.154C299.205 104.154 298.556 104 297.987 103.692C297.417 103.384 296.969 102.959 296.643 102.418C296.316 101.877 296.153 101.247 296.153 100.528C296.153 99.8 296.311 99.1653 296.629 98.624C296.946 98.0733 297.385 97.644 297.945 97.336C298.505 97.028 299.144 96.874 299.863 96.874C300.619 96.874 301.253 97.0233 301.767 97.322C302.28 97.6207 302.658 98.064 302.901 98.652C303.153 99.2307 303.255 99.954 303.209 100.822H297.483C297.529 101.242 297.655 101.615 297.861 101.942C298.075 102.269 298.355 102.525 298.701 102.712C299.055 102.899 299.461 102.992 299.919 102.992C300.432 102.992 300.861 102.875 301.207 102.642C301.552 102.409 301.785 102.105 301.907 101.732ZM299.877 98.022C299.27 98.022 298.766 98.1853 298.365 98.512C297.963 98.8293 297.697 99.254 297.567 99.786H301.865C301.827 99.2167 301.622 98.7827 301.249 98.484C300.875 98.176 300.418 98.022 299.877 98.022ZM304.624 97.014H305.968V104H304.624V97.014ZM308.628 96.874C309.02 96.874 309.375 96.93 309.692 97.042C310.01 97.154 310.28 97.322 310.504 97.546C310.728 97.7607 310.901 98.0313 311.022 98.358C311.153 98.6753 311.218 99.0393 311.218 99.45V104H309.888V99.744C309.888 99.1933 309.753 98.7827 309.482 98.512C309.221 98.232 308.82 98.092 308.278 98.092C307.858 98.092 307.476 98.19 307.13 98.386C306.785 98.582 306.5 98.8433 306.276 99.17C306.062 99.4873 305.931 99.8467 305.884 100.248L305.87 99.478C305.917 99.1047 306.015 98.7593 306.164 98.442C306.323 98.1247 306.519 97.8493 306.752 97.616C306.995 97.3733 307.275 97.1913 307.592 97.07C307.91 96.9393 308.255 96.874 308.628 96.874ZM314.588 94.13V95.572H312.922V94.13H314.588ZM313.09 97.014H314.42V104H313.09V97.014ZM321.704 101.732H322.978C322.903 102.189 322.726 102.6 322.446 102.964C322.166 103.328 321.797 103.617 321.34 103.832C320.882 104.047 320.346 104.154 319.73 104.154C319.002 104.154 318.353 104 317.784 103.692C317.214 103.384 316.766 102.959 316.44 102.418C316.113 101.877 315.95 101.247 315.95 100.528C315.95 99.8 316.108 99.1653 316.426 98.624C316.743 98.0733 317.182 97.644 317.742 97.336C318.302 97.028 318.941 96.874 319.66 96.874C320.416 96.874 321.05 97.0233 321.564 97.322C322.077 97.6207 322.455 98.064 322.698 98.652C322.95 99.2307 323.052 99.954 323.006 100.822H317.28C317.326 101.242 317.452 101.615 317.658 101.942C317.872 102.269 318.152 102.525 318.498 102.712C318.852 102.899 319.258 102.992 319.716 102.992C320.229 102.992 320.658 102.875 321.004 102.642C321.349 102.409 321.582 102.105 321.704 101.732ZM319.674 98.022C319.067 98.022 318.563 98.1853 318.162 98.512C317.76 98.8293 317.494 99.254 317.364 99.786H321.662C321.624 99.2167 321.419 98.7827 321.046 98.484C320.672 98.176 320.215 98.022 319.674 98.022ZM324.421 97.014H325.765V104H324.421V97.014ZM328.425 96.874C328.817 96.874 329.172 96.93 329.489 97.042C329.806 97.154 330.077 97.322 330.301 97.546C330.525 97.7607 330.698 98.0313 330.819 98.358C330.95 98.6753 331.015 99.0393 331.015 99.45V104H329.685V99.744C329.685 99.1933 329.55 98.7827 329.279 98.512C329.018 98.232 328.616 98.092 328.075 98.092C327.655 98.092 327.272 98.19 326.927 98.386C326.582 98.582 326.297 98.8433 326.073 99.17C325.858 99.4873 325.728 99.8467 325.681 100.248L325.667 99.478C325.714 99.1047 325.812 98.7593 325.961 98.442C326.12 98.1247 326.316 97.8493 326.549 97.616C326.792 97.3733 327.072 97.1913 327.389 97.07C327.706 96.9393 328.052 96.874 328.425 96.874ZM332.285 97.014H336.807V98.176H332.285V97.014ZM333.881 95.166H335.211V104H333.881V95.166ZM338.219 94.214H339.563V104H338.219V94.214ZM340.854 97.014H342.282L344.956 103.72L343.794 104L340.854 97.014ZM347.98 97.014L343.794 106.8H342.38L344.186 103.006L346.566 97.014H347.98ZM355.086 104.14C354.489 104.14 353.943 103.986 353.448 103.678C352.954 103.37 352.562 102.945 352.272 102.404C351.983 101.853 351.838 101.223 351.838 100.514C351.838 99.8047 351.983 99.1793 352.272 98.638C352.571 98.0873 352.977 97.658 353.49 97.35C354.004 97.0327 354.578 96.874 355.212 96.874C355.912 96.874 356.454 97.0373 356.836 97.364C357.228 97.6907 357.499 98.1293 357.648 98.68C357.807 99.2307 357.886 99.842 357.886 100.514C357.886 100.887 357.84 101.284 357.746 101.704C357.653 102.124 357.504 102.521 357.298 102.894C357.093 103.267 356.808 103.571 356.444 103.804C356.08 104.028 355.628 104.14 355.086 104.14ZM355.464 102.978C355.959 102.978 356.374 102.871 356.71 102.656C357.056 102.432 357.312 102.133 357.48 101.76C357.648 101.387 357.732 100.971 357.732 100.514C357.732 100.019 357.644 99.5853 357.466 99.212C357.298 98.8387 357.042 98.5493 356.696 98.344C356.36 98.1387 355.95 98.036 355.464 98.036C354.736 98.036 354.172 98.2693 353.77 98.736C353.378 99.2027 353.182 99.7953 353.182 100.514C353.182 100.999 353.28 101.429 353.476 101.802C353.672 102.166 353.938 102.455 354.274 102.67C354.62 102.875 355.016 102.978 355.464 102.978ZM357.732 97.014H359.076V104H357.844C357.844 104 357.835 103.916 357.816 103.748C357.798 103.571 357.779 103.361 357.76 103.118C357.742 102.875 357.732 102.661 357.732 102.474V97.014ZM360.829 97.014H362.173V104H360.829V97.014ZM364.833 96.874C365.225 96.874 365.58 96.93 365.897 97.042C366.215 97.154 366.485 97.322 366.709 97.546C366.933 97.7607 367.106 98.0313 367.227 98.358C367.358 98.6753 367.423 99.0393 367.423 99.45V104H366.093V99.744C366.093 99.1933 365.958 98.7827 365.687 98.512C365.426 98.232 365.025 98.092 364.483 98.092C364.063 98.092 363.681 98.19 363.335 98.386C362.99 98.582 362.705 98.8433 362.481 99.17C362.267 99.4873 362.136 99.8467 362.089 100.248L362.075 99.478C362.122 99.1047 362.22 98.7593 362.369 98.442C362.528 98.1247 362.724 97.8493 362.957 97.616C363.2 97.3733 363.48 97.1913 363.797 97.07C364.115 96.9393 364.46 96.874 364.833 96.874ZM372.067 104.14C371.46 104.14 370.909 103.986 370.415 103.678C369.92 103.37 369.528 102.945 369.239 102.404C368.959 101.853 368.819 101.223 368.819 100.514C368.819 99.8047 368.959 99.1793 369.239 98.638C369.519 98.0873 369.901 97.658 370.387 97.35C370.872 97.0327 371.432 96.874 372.067 96.874C372.617 96.874 373.075 96.9673 373.439 97.154C373.803 97.3407 374.087 97.602 374.293 97.938C374.498 98.274 374.643 98.6613 374.727 99.1C374.82 99.5387 374.867 100.01 374.867 100.514C374.867 100.887 374.82 101.284 374.727 101.704C374.633 102.124 374.484 102.521 374.279 102.894C374.073 103.267 373.789 103.571 373.425 103.804C373.061 104.028 372.608 104.14 372.067 104.14ZM372.445 102.978C372.939 102.978 373.355 102.871 373.691 102.656C374.036 102.432 374.293 102.133 374.461 101.76C374.629 101.387 374.713 100.971 374.713 100.514C374.713 100.019 374.624 99.5853 374.447 99.212C374.279 98.8387 374.022 98.5493 373.677 98.344C373.341 98.1387 372.93 98.036 372.445 98.036C371.717 98.036 371.152 98.2693 370.751 98.736C370.359 99.2027 370.163 99.7953 370.163 100.514C370.163 100.999 370.261 101.429 370.457 101.802C370.653 102.166 370.919 102.455 371.255 102.67C371.6 102.875 371.997 102.978 372.445 102.978ZM374.713 94.214H376.057V104H374.825C374.797 103.795 374.769 103.543 374.741 103.244C374.722 102.945 374.713 102.689 374.713 102.474V94.214ZM388.79 102.908L388.426 102.894L390.26 97.014H391.716L389.294 104H388.034L385.92 98.022H386.298L384.156 104H382.896L380.502 97.014H381.972L383.75 102.894L383.386 102.908L385.318 97.014H386.9L388.79 102.908ZM394.472 94.13V95.572H392.806V94.13H394.472ZM392.974 97.014H394.304V104H392.974V97.014ZM395.708 97.014H400.23V98.176H395.708V97.014ZM397.304 95.166H398.634V104H397.304V95.166ZM406.921 104V99.786C406.921 99.4127 406.86 99.1047 406.739 98.862C406.618 98.6193 406.436 98.4373 406.193 98.316C405.95 98.1853 405.642 98.12 405.269 98.12C404.858 98.12 404.48 98.218 404.135 98.414C403.799 98.6007 403.524 98.8573 403.309 99.184C403.094 99.5013 402.964 99.8607 402.917 100.262L402.903 99.464C402.95 99.1 403.048 98.7593 403.197 98.442C403.356 98.1247 403.552 97.8493 403.785 97.616C404.028 97.3827 404.308 97.2007 404.625 97.07C404.942 96.9393 405.288 96.874 405.661 96.874C406.053 96.874 406.408 96.93 406.725 97.042C407.042 97.1447 407.313 97.308 407.537 97.532C407.77 97.7467 407.948 98.0127 408.069 98.33C408.19 98.638 408.251 98.9927 408.251 99.394V104H406.921ZM401.671 104V94.214H403.001V104H401.671ZM414.665 100.066V102.796H420.517V104H413.321V94.914H420.503V96.118H414.665V98.89H419.439V100.066H414.665ZM424.977 104.14C424.38 104.14 423.834 103.986 423.339 103.678C422.844 103.37 422.452 102.945 422.163 102.404C421.874 101.853 421.729 101.223 421.729 100.514C421.729 99.8047 421.874 99.1793 422.163 98.638C422.462 98.0873 422.868 97.658 423.381 97.35C423.894 97.0327 424.468 96.874 425.103 96.874C425.803 96.874 426.344 97.0373 426.727 97.364C427.119 97.6907 427.39 98.1293 427.539 98.68C427.698 99.2307 427.777 99.842 427.777 100.514C427.777 100.887 427.73 101.284 427.637 101.704C427.544 102.124 427.394 102.521 427.189 102.894C426.984 103.267 426.699 103.571 426.335 103.804C425.971 104.028 425.518 104.14 424.977 104.14ZM425.355 102.978C425.85 102.978 426.265 102.871 426.601 102.656C426.946 102.432 427.203 102.133 427.371 101.76C427.539 101.387 427.623 100.971 427.623 100.514C427.623 100.019 427.534 99.5853 427.357 99.212C427.189 98.8387 426.932 98.5493 426.587 98.344C426.251 98.1387 425.84 98.036 425.355 98.036C424.627 98.036 424.062 98.2693 423.661 98.736C423.269 99.2027 423.073 99.7953 423.073 100.514C423.073 100.999 423.171 101.429 423.367 101.802C423.563 102.166 423.829 102.455 424.165 102.67C424.51 102.875 424.907 102.978 425.355 102.978ZM427.623 97.014H428.967V104H427.735C427.735 104 427.726 103.916 427.707 103.748C427.688 103.571 427.67 103.361 427.651 103.118C427.632 102.875 427.623 102.661 427.623 102.474V97.014ZM430.412 101.732H431.644C431.691 102.105 431.859 102.413 432.148 102.656C432.437 102.889 432.843 103.006 433.366 103.006C433.702 103.006 433.963 102.969 434.15 102.894C434.337 102.81 434.467 102.698 434.542 102.558C434.626 102.418 434.668 102.264 434.668 102.096C434.668 101.881 434.612 101.718 434.5 101.606C434.388 101.485 434.229 101.387 434.024 101.312C433.819 101.228 433.576 101.149 433.296 101.074C432.988 100.99 432.68 100.892 432.372 100.78C432.064 100.668 431.779 100.533 431.518 100.374C431.266 100.215 431.061 100.019 430.902 99.786C430.753 99.5433 430.678 99.2493 430.678 98.904C430.678 98.6147 430.739 98.344 430.86 98.092C430.991 97.84 431.173 97.6253 431.406 97.448C431.649 97.2613 431.929 97.1213 432.246 97.028C432.563 96.9253 432.913 96.874 433.296 96.874C433.828 96.874 434.276 96.972 434.64 97.168C435.004 97.3547 435.279 97.6207 435.466 97.966C435.662 98.3113 435.765 98.708 435.774 99.156H434.598C434.533 98.764 434.397 98.4793 434.192 98.302C433.987 98.1153 433.679 98.022 433.268 98.022C432.867 98.022 432.559 98.1013 432.344 98.26C432.129 98.4187 432.022 98.6333 432.022 98.904C432.022 99.1093 432.097 99.2773 432.246 99.408C432.395 99.5293 432.596 99.6367 432.848 99.73C433.1 99.8233 433.385 99.9213 433.702 100.024C434.001 100.127 434.285 100.234 434.556 100.346C434.836 100.449 435.083 100.575 435.298 100.724C435.522 100.864 435.695 101.051 435.816 101.284C435.947 101.508 436.012 101.788 436.012 102.124C436.012 102.535 435.909 102.894 435.704 103.202C435.499 103.501 435.2 103.734 434.808 103.902C434.425 104.07 433.959 104.154 433.408 104.154C432.904 104.154 432.475 104.093 432.12 103.972C431.775 103.851 431.481 103.692 431.238 103.496C431.005 103.3 430.823 103.095 430.692 102.88C430.571 102.656 430.487 102.441 430.44 102.236C430.403 102.031 430.393 101.863 430.412 101.732ZM442.809 101.732H444.083C444.008 102.189 443.831 102.6 443.551 102.964C443.271 103.328 442.902 103.617 442.445 103.832C441.988 104.047 441.451 104.154 440.835 104.154C440.107 104.154 439.458 104 438.889 103.692C438.32 103.384 437.872 102.959 437.545 102.418C437.218 101.877 437.055 101.247 437.055 100.528C437.055 99.8 437.214 99.1653 437.531 98.624C437.848 98.0733 438.287 97.644 438.847 97.336C439.407 97.028 440.046 96.874 440.765 96.874C441.521 96.874 442.156 97.0233 442.669 97.322C443.182 97.6207 443.56 98.064 443.803 98.652C444.055 99.2307 444.158 99.954 444.111 100.822H438.385C438.432 101.242 438.558 101.615 438.763 101.942C438.978 102.269 439.258 102.525 439.603 102.712C439.958 102.899 440.364 102.992 440.821 102.992C441.334 102.992 441.764 102.875 442.109 102.642C442.454 102.409 442.688 102.105 442.809 101.732ZM440.779 98.022C440.172 98.022 439.668 98.1853 439.267 98.512C438.866 98.8293 438.6 99.254 438.469 99.786H442.767C442.73 99.2167 442.524 98.7827 442.151 98.484C441.778 98.176 441.32 98.022 440.779 98.022ZM447.056 102.558V104H445.39V102.558H447.056Z" fill="white"/>
<path fill-rule="evenodd" clip-rule="evenodd" d="M197.944 89.25H202.056C203.894 89.25 205.35 89.25 206.489 89.403C207.661 89.561 208.61 89.893 209.359 90.641C210.107 91.39 210.439 92.339 210.597 93.511C210.687 94.184 210.724 94.967 210.739 95.874C210.752 95.95 210.754 96.0276 210.743 96.104C210.75 96.67 210.75 97.282 210.75 97.944V98.056C210.75 99.894 210.75 101.35 210.597 102.489C210.439 103.661 210.107 104.61 209.359 105.359C208.61 106.107 207.661 106.439 206.489 106.597C205.349 106.75 203.894 106.75 202.056 106.75H197.944C196.106 106.75 194.65 106.75 193.511 106.597C192.339 106.439 191.39 106.107 190.641 105.359C189.893 104.61 189.561 103.661 189.403 102.489C189.25 101.349 189.25 99.894 189.25 98.056V97.944C189.25 97.282 189.25 96.67 189.257 96.104C189.247 96.0276 189.248 95.9501 189.26 95.874C189.276 94.967 189.313 94.184 189.403 93.511C189.561 92.339 189.893 91.39 190.641 90.641C191.39 89.893 192.339 89.561 193.511 89.403C194.651 89.25 196.106 89.25 197.944 89.25ZM190.752 96.75C190.75 97.138 190.75 97.554 190.75 98C190.75 99.907 190.752 101.261 190.89 102.29C191.025 103.295 191.279 103.875 191.702 104.298C192.125 104.721 192.705 104.975 193.711 105.11C194.739 105.248 196.093 105.25 198 105.25H202C203.907 105.25 205.262 105.248 206.29 105.11C207.295 104.975 207.875 104.721 208.298 104.298C208.721 103.875 208.975 103.295 209.11 102.289C209.248 101.261 209.25 99.907 209.25 98C209.25 97.554 209.25 97.138 209.248 96.75H190.752ZM209.224 95.25H190.776C190.796 94.663 190.83 94.156 190.89 93.71C191.025 92.705 191.279 92.125 191.702 91.702C192.125 91.279 192.705 91.025 193.711 90.89C194.739 90.752 196.093 90.75 198 90.75H202C203.907 90.75 205.262 90.752 206.29 90.89C207.295 91.025 207.875 91.279 208.298 91.702C208.721 92.125 208.975 92.705 209.11 93.711C209.17 94.156 209.204 94.663 209.224 95.25ZM193.25 102C193.25 101.801 193.329 101.61 193.47 101.47C193.611 101.329 193.801 101.25 194 101.25H198C198.199 101.25 198.39 101.329 198.531 101.47C198.671 101.61 198.75 101.801 198.75 102C198.75 102.199 198.671 102.39 198.531 102.53C198.39 102.671 198.199 102.75 198 102.75H194C193.801 102.75 193.611 102.671 193.47 102.53C193.329 102.39 193.25 102.199 193.25 102ZM199.75 102C199.75 101.801 199.829 101.61 199.97 101.47C200.111 101.329 200.301 101.25 200.5 101.25H202C202.199 101.25 202.39 101.329 202.531 101.47C202.671 101.61 202.75 101.801 202.75 102C202.75 102.199 202.671 102.39 202.531 102.53C202.39 102.671 202.199 102.75 202 102.75H200.5C200.301 102.75 200.111 102.671 199.97 102.53C199.829 102.39 199.75 102.199 199.75 102Z" fill="white"/>
<defs>
<linearGradient id="paint0_linear_3203_31258" x1="139.218" y1="104.863" x2="0.802027" y2="31.0706" gradientUnits="userSpaceOnUse">
<stop stop-color="#FF823B"/>
<stop offset="1" stop-color="#FF823B" stop-opacity="0"/>
</linearGradient>
</defs>
</svg>
