<svg width="30" height="31" viewBox="0 0 30 31" fill="none" xmlns="http://www.w3.org/2000/svg">
<circle cx="15.0919" cy="15.4983" r="14.6974" fill="#F0F5FF"/>
<path d="M13.7122 11.4422H17.5199M13.7122 13.9806H17.5199M16.2507 16.519H17.5199M11.1738 20.3267V10.173C11.1738 9.8364 11.3075 9.51357 11.5456 9.27555C11.7836 9.03753 12.1064 8.90381 12.443 8.90381H18.7891C19.1257 8.90381 19.4485 9.03753 19.6865 9.27555C19.9245 9.51357 20.0583 9.8364 20.0583 10.173V20.3267L18.1545 19.0575L16.8853 20.3267L15.616 19.0575L14.3468 20.3267L13.0776 19.0575L11.1738 20.3267Z" stroke="#2D79FD" stroke-width="1.26921" stroke-linecap="round" stroke-linejoin="round"/>
<rect x="15.2295" y="11.5668" width="6.66798" height="6.66798" rx="3.33399" fill="#F0F5FF"/>
<path d="M18.8182 12.9142L19.3211 13.2811L19.9437 13.2799L20.1349 13.8724L20.6392 14.2373L20.4457 14.829L20.6392 15.4207L20.1349 15.7856L19.9437 16.3781L19.3211 16.3769L18.8182 16.7438L18.3152 16.3769L17.6926 16.3781L17.5014 15.7856L16.9971 15.4207L17.1906 14.829L16.9971 14.2373L17.5014 13.8724L17.6926 13.2799L18.3152 13.2811L18.8182 12.9142Z" stroke="#2D79FD" stroke-width="0.382963" stroke-linecap="round" stroke-linejoin="round"/>
<path d="M18.1475 14.829L18.6262 15.3077L19.5836 14.3503" stroke="#2D79FD" stroke-width="0.382963" stroke-linecap="round" stroke-linejoin="round"/>
</svg>
