<svg width="30" height="31" viewBox="0 0 30 31" fill="none" xmlns="http://www.w3.org/2000/svg">
<circle cx="15.1007" cy="15.6825" r="14.6974" fill="#F0F5FF"/>
<path d="M9.51092 21.1832C9.16564 21.1832 8.86996 21.0602 8.62387 20.8141C8.37779 20.568 8.25495 20.2725 8.25537 19.9277V13.0222C8.25537 12.6769 8.37842 12.3812 8.6245 12.1351C8.87059 11.8891 9.16606 11.7662 9.51092 11.7666H12.022V10.5111C12.022 10.1658 12.145 9.87014 12.3911 9.62406C12.6372 9.37797 12.9327 9.25514 13.2775 9.25556H15.7886C16.1339 9.25556 16.4296 9.3786 16.6757 9.62469C16.9218 9.87077 17.0446 10.1662 17.0442 10.5111V11.7666H19.5553C19.9005 11.7666 20.1962 11.8897 20.4423 12.1358C20.6884 12.3819 20.8112 12.6773 20.8108 13.0222V19.9277C20.8108 20.273 20.6878 20.5686 20.4417 20.8147C20.1956 21.0608 19.9001 21.1836 19.5553 21.1832H9.51092ZM13.2775 11.7666H15.7886V10.5111H13.2775V11.7666ZM19.5553 17.4166H16.4164V18.6721H12.6498V17.4166H9.51092V19.9277H19.5553V17.4166ZM13.9053 17.4166H15.1609V16.161H13.9053V17.4166ZM9.51092 16.161H12.6498V14.9055H16.4164V16.161H19.5553V13.0222H9.51092V16.161Z" fill="#2D79FD"/>
</svg>
