<svg width="132" height="58" viewBox="0 0 132 58" fill="none" xmlns="http://www.w3.org/2000/svg">
<g clip-path="url(#clip0_4908_41043)">
<path d="M0.453308 13.3078C-0.0567248 13.5196 -0.298442 14.1048 -0.086583 14.6149C0.125277 15.1249 0.710486 15.3666 1.22052 15.1548L0.453308 13.3078ZM130.415 57.7884C130.842 58.1381 131.472 58.0751 131.822 57.6477L137.521 50.6821C137.871 50.2546 137.808 49.6246 137.38 49.2749C136.953 48.9252 136.323 48.9882 135.973 49.4156L130.907 55.6073L124.715 50.5414C124.288 50.1917 123.658 50.2547 123.308 50.6821C122.959 51.1095 123.022 51.7396 123.449 52.0893L130.415 57.7884ZM3.54503 14.2103C4.05826 14.0063 4.30893 13.4248 4.10493 12.9116C3.90093 12.3984 3.3195 12.1477 2.80628 12.3517L3.54503 14.2103ZM7.60784 10.5243C7.08892 10.7133 6.8215 11.2873 7.01054 11.8062C7.19958 12.3251 7.7735 12.5925 8.29242 12.4035L7.60784 10.5243ZM13.0898 10.7301C13.6137 10.5553 13.8966 9.98887 13.7218 9.46498C13.547 8.9411 12.9806 8.65812 12.4567 8.83295L13.0898 10.7301ZM17.3456 7.27324C16.8173 7.43415 16.5194 7.99288 16.6803 8.52121C16.8412 9.04953 17.4 9.34738 17.9283 9.18647L17.3456 7.27324ZM22.7994 7.77233C23.3318 7.62532 23.6441 7.07459 23.4971 6.54223C23.3501 6.00987 22.7994 5.69748 22.267 5.84449L22.7994 7.77233ZM27.2249 4.54562C26.6888 4.67847 26.362 5.22073 26.4948 5.7568C26.6277 6.29287 27.1699 6.61974 27.706 6.48689L27.2249 4.54562ZM32.6455 5.33345C33.185 5.21523 33.5265 4.68206 33.4083 4.14257C33.2901 3.60309 32.7569 3.26159 32.2174 3.37981L32.6455 5.33345ZM37.2417 2.3525C36.6991 2.45542 36.3427 2.97872 36.4456 3.52133C36.5485 4.06394 37.0718 4.42039 37.6144 4.31747L37.2417 2.3525ZM42.6092 3.4461C43.1546 3.35935 43.5264 2.84687 43.4397 2.30144C43.3529 1.75601 42.8404 1.38418 42.295 1.47092L42.6092 3.4461ZM47.3745 0.744135C46.8266 0.813639 46.4387 1.31414 46.5083 1.86203C46.5778 2.40993 47.0783 2.79774 47.6261 2.72823L47.3745 0.744135ZM52.6613 2.17465C53.2113 2.12368 53.6157 1.63656 53.5648 1.08663C53.5138 0.536701 53.0267 0.132213 52.4768 0.183181L52.6613 2.17465ZM57.5984 -0.19875C57.047 -0.167856 56.625 0.304203 56.6559 0.855623C56.6868 1.40704 57.1589 1.82901 57.7103 1.79812L57.5984 -0.19875ZM62.767 1.61376C63.3192 1.60474 63.7596 1.14977 63.7505 0.59756C63.7415 0.0453488 63.2865 -0.394994 62.7343 -0.385972L62.767 1.61376ZM67.8774 -0.360138C67.3253 -0.375076 66.8656 0.0603647 66.8507 0.612447C66.8357 1.16453 67.2712 1.62419 67.8233 1.63913L67.8774 -0.360138ZM72.8686 1.89435C73.4193 1.93564 73.8993 1.52265 73.9405 0.971913C73.9818 0.421174 73.5688 -0.0587596 73.0181 -0.100049L72.8686 1.89435ZM78.144 0.41847C77.5962 0.348136 77.0951 0.735188 77.0248 1.28298C76.9545 1.83076 77.3415 2.33185 77.8893 2.40219L78.144 0.41847ZM82.8677 3.18786C83.4104 3.29021 83.9333 2.93322 84.0357 2.39051C84.138 1.84779 83.7811 1.32486 83.2383 1.22251L82.8677 3.18786ZM88.2792 2.34166C87.7443 2.20412 87.1992 2.52624 87.0617 3.06112C86.9242 3.59601 87.2463 4.14111 87.7812 4.27865L88.2792 2.34166ZM92.6028 5.7034C93.1263 5.87934 93.6933 5.59758 93.8692 5.07407C94.0452 4.55055 93.7634 3.98354 93.2399 3.8076L92.6028 5.7034ZM98.0808 5.65001C97.5731 5.43272 96.9853 5.66818 96.768 6.17592C96.5508 6.68366 96.7862 7.27142 97.294 7.48871L98.0808 5.65001ZM101.811 9.65732C102.298 9.91825 102.904 9.73518 103.165 9.24842C103.426 8.76166 103.243 8.15554 102.756 7.89461L101.811 9.65732ZM107.211 10.5583C106.751 10.2526 106.131 10.3776 105.825 10.8376C105.519 11.2975 105.644 11.9182 106.104 12.2239L107.211 10.5583ZM110.123 15.1914C110.55 15.5414 111.18 15.4788 111.53 15.0515C111.88 14.6243 111.817 13.9942 111.39 13.6443L110.123 15.1914ZM115.236 17.1384C114.847 16.7465 114.214 16.7443 113.822 17.1334C113.43 17.5226 113.428 18.1558 113.817 18.5477L115.236 17.1384ZM117.146 22.265C117.493 22.6946 118.123 22.7617 118.553 22.4147C118.982 22.0677 119.049 21.4381 118.702 21.0085L117.146 22.265ZM121.758 25.2068C121.456 24.7447 120.836 24.6154 120.374 24.9179C119.912 25.2205 119.782 25.8403 120.085 26.3023L121.758 25.2068ZM122.621 30.6108C122.879 31.0993 123.484 31.2863 123.972 31.0286C124.461 30.7709 124.648 30.166 124.39 29.6776L122.621 30.6108ZM126.603 34.3646C126.389 33.8555 125.803 33.6164 125.294 33.8306C124.785 34.0448 124.546 34.6311 124.76 35.1401L126.603 34.3646ZM126.519 39.8455C126.692 40.3699 127.258 40.6548 127.782 40.4818C128.307 40.3087 128.591 39.7433 128.418 39.2188L126.519 39.8455ZM129.863 44.2026C129.728 43.6671 129.185 43.3424 128.649 43.4773C128.114 43.6123 127.789 44.1559 127.924 44.6914L129.863 44.2026ZM128.992 49.5993C129.093 50.1423 129.615 50.5011 130.158 50.4005C130.701 50.2999 131.06 49.7782 130.959 49.2351L128.992 49.5993ZM131.747 54.3015C131.677 53.7537 131.176 53.366 130.629 53.4356C130.081 53.5052 129.693 54.0057 129.763 54.5536L131.747 54.3015ZM1.22052 15.1548C1.9804 14.8391 2.75551 14.5241 3.54503 14.2103L2.80628 12.3517C2.00735 12.6693 1.22276 12.9881 0.453308 13.3078L1.22052 15.1548ZM8.29242 12.4035C9.84944 11.8363 11.4502 11.2772 13.0898 10.7301L12.4567 8.83295C10.7999 9.38581 9.18195 9.95086 7.60784 10.5243L8.29242 12.4035ZM17.9283 9.18647C19.524 8.70047 21.149 8.22807 22.7994 7.77233L22.267 5.84449C20.5996 6.30495 18.9577 6.78222 17.3456 7.27324L17.9283 9.18647ZM27.706 6.48689C29.3342 6.08338 30.982 5.698 32.6455 5.33345L32.2174 3.37981C30.5357 3.74833 28.8703 4.13785 27.2249 4.54562L27.706 6.48689ZM37.6144 4.31747C39.2688 4.00368 40.9349 3.71238 42.6092 3.4461L42.295 1.47092C40.6006 1.74041 38.915 2.03513 37.2417 2.3525L37.6144 4.31747ZM47.6261 2.72823C49.301 2.51577 50.9805 2.33043 52.6613 2.17465L52.4768 0.183181C50.7727 0.341113 49.0708 0.528942 47.3745 0.744135L47.6261 2.72823ZM57.7103 1.79812C59.3992 1.7035 61.0858 1.64123 62.767 1.61376L62.7343 -0.385972C61.0257 -0.358059 59.3126 -0.294787 57.5984 -0.19875L57.7103 1.79812ZM67.8233 1.63913C69.5156 1.68492 71.1985 1.76915 72.8686 1.89435L73.0181 -0.100049C71.3149 -0.227741 69.6001 -0.313523 67.8774 -0.360138L67.8233 1.63913ZM77.8893 2.40219C79.5674 2.61765 81.2281 2.87864 82.8677 3.18786L83.2383 1.22251C81.5585 0.905698 79.8591 0.638679 78.144 0.41847L77.8893 2.40219ZM87.7812 4.27865C89.416 4.69903 91.0245 5.17299 92.6028 5.7034L93.2399 3.8076C91.6137 3.26109 89.9588 2.77353 88.2792 2.34166L87.7812 4.27865ZM97.294 7.48871C98.8366 8.1489 100.344 8.87075 101.811 9.65732L102.756 7.89461C101.235 7.07936 99.6751 6.33231 98.0808 5.65001L97.294 7.48871ZM106.104 12.2239C107.489 13.144 108.829 14.1321 110.123 15.1914L111.39 13.6443C110.044 12.5418 108.65 11.5143 107.211 10.5583L106.104 12.2239ZM113.817 18.5477C114.976 19.7153 116.087 20.9534 117.146 22.265L118.702 21.0085C117.6 19.6434 116.443 18.3544 115.236 17.1384L113.817 18.5477ZM120.085 26.3023C120.98 27.6698 121.827 29.1051 122.621 30.6108L124.39 29.6776C123.567 28.1171 122.688 26.6276 121.758 25.2068L120.085 26.3023ZM124.76 35.1401C125.394 36.6463 125.981 38.2141 126.519 39.8455L128.418 39.2188C127.864 37.5384 127.258 35.9209 126.603 34.3646L124.76 35.1401ZM127.924 44.6914C128.323 46.2736 128.679 47.909 128.992 49.5993L130.959 49.2351C130.639 47.5043 130.273 45.8273 129.863 44.2026L127.924 44.6914ZM129.763 54.5536C129.869 55.3947 129.966 56.2481 130.053 57.114L132.043 56.915C131.955 56.0317 131.856 55.1606 131.747 54.3015L129.763 54.5536Z" fill="url(#paint0_linear_4908_41043)"/>
</g>
<defs>
<linearGradient id="paint0_linear_4908_41043" x1="124.084" y1="43.4997" x2="45.2214" y2="0.597658" gradientUnits="userSpaceOnUse">
<stop stop-color="#2D79FD"/>
<stop offset="1" stop-color="#2D79FD" stop-opacity="0"/>
</linearGradient>
<clipPath id="clip0_4908_41043">
<rect width="130.211" height="56.4168" fill="white" transform="translate(0.836914 0.597656)"/>
</clipPath>
</defs>
</svg>
