<svg width="563" height="268" viewBox="0 0 563 268" fill="none" xmlns="http://www.w3.org/2000/svg">
<g clip-path="url(#clip0_7448_71782)">
<path d="M62.8998 144.752L60.7548 144.687L70.1798 117.842H78.1098L65.4998 150.212H58.6748L48.5998 123.237H50.8748L40.5398 150.212H33.7148L21.3648 117.842H29.2948L38.4598 144.752H36.3148L45.5448 117.842H53.9948L62.8998 144.752ZM91.773 104.127V111.082H83.128V104.127H91.773ZM83.778 117.842H91.058V150.212H83.778V117.842ZM97.4249 117.842H120.305V123.757H97.4249V117.842ZM105.225 109.132H112.505V150.212H105.225V109.132ZM153.149 150.212V131.492C153.149 129.758 152.846 128.328 152.239 127.202C151.676 126.032 150.788 125.143 149.574 124.537C148.361 123.93 146.758 123.627 144.764 123.627C142.771 123.627 140.951 124.06 139.304 124.927C137.658 125.75 136.314 126.855 135.274 128.242C134.234 129.628 133.628 131.167 133.454 132.857L133.389 129.217C133.606 127.657 134.083 126.162 134.819 124.732C135.556 123.258 136.531 121.958 137.744 120.832C138.958 119.705 140.388 118.817 142.034 118.167C143.681 117.473 145.501 117.127 147.494 117.127C149.358 117.127 151.069 117.387 152.629 117.907C154.233 118.427 155.598 119.207 156.724 120.247C157.894 121.243 158.783 122.5 159.389 124.017C160.039 125.49 160.364 127.202 160.364 129.152V150.212H153.149ZM126.629 150.212V104.842H133.844V150.212H126.629ZM190.967 125.967H221.907V132.272H190.967V125.967ZM220.867 108.092H228.212V150.212H220.867V108.092ZM184.402 108.092H191.812V150.212H184.402V108.092ZM251.747 150.927C248.8 150.927 246.092 150.212 243.622 148.782C241.195 147.352 239.245 145.38 237.772 142.867C236.342 140.31 235.627 137.385 235.627 134.092C235.627 130.712 236.364 127.765 237.837 125.252C239.31 122.695 241.304 120.702 243.817 119.272C246.33 117.842 249.147 117.127 252.267 117.127C255.734 117.127 258.485 117.885 260.522 119.402C262.559 120.918 264.01 122.955 264.877 125.512C265.744 128.068 266.177 130.928 266.177 134.092C266.177 135.868 265.917 137.753 265.397 139.747C264.877 141.697 264.054 143.517 262.927 145.207C261.844 146.897 260.37 148.283 258.507 149.367C256.687 150.407 254.434 150.927 251.747 150.927ZM253.957 144.947C256.384 144.947 258.442 144.492 260.132 143.582C261.865 142.628 263.165 141.328 264.032 139.682C264.942 138.035 265.397 136.172 265.397 134.092C265.397 131.795 264.942 129.845 264.032 128.242C263.122 126.595 261.822 125.338 260.132 124.472C258.442 123.562 256.384 123.107 253.957 123.107C250.49 123.107 247.804 124.125 245.897 126.162C243.99 128.198 243.037 130.842 243.037 134.092C243.037 136.215 243.492 138.1 244.402 139.747C245.355 141.393 246.655 142.672 248.302 143.582C249.949 144.492 251.834 144.947 253.957 144.947ZM265.397 117.842H272.677V150.212H265.917C265.917 150.212 265.874 149.8 265.787 148.977C265.7 148.153 265.614 147.157 265.527 145.987C265.44 144.773 265.397 143.625 265.397 142.542V117.842ZM280.608 117.842H287.823V150.212H280.608V117.842ZM299.523 124.017C297.183 124.017 295.168 124.515 293.478 125.512C291.831 126.508 290.51 127.722 289.513 129.152C288.516 130.582 287.823 131.968 287.433 133.312L287.368 129.672C287.411 129.195 287.563 128.48 287.823 127.527C288.083 126.53 288.473 125.447 288.993 124.277C289.556 123.107 290.293 121.98 291.203 120.897C292.156 119.77 293.305 118.86 294.648 118.167C296.035 117.473 297.66 117.127 299.523 117.127V124.017ZM319.413 145.207C316.38 145.207 313.628 144.665 311.158 143.582C308.731 142.498 306.803 140.917 305.373 138.837C303.986 136.757 303.293 134.265 303.293 131.362C303.293 128.458 303.965 125.945 305.308 123.822C306.695 121.698 308.601 120.052 311.028 118.882C313.498 117.712 316.293 117.127 319.413 117.127C320.323 117.127 321.19 117.192 322.013 117.322C322.88 117.452 323.703 117.625 324.483 117.842L339.628 117.907V123.952C337.548 123.995 335.446 123.713 333.323 123.107C331.243 122.457 329.401 121.785 327.798 121.092L327.603 120.702C329.076 121.438 330.398 122.348 331.568 123.432C332.781 124.472 333.735 125.663 334.428 127.007C335.121 128.35 335.468 129.867 335.468 131.557C335.468 134.417 334.775 136.865 333.388 138.902C332.045 140.938 330.16 142.498 327.733 143.582C325.35 144.665 322.576 145.207 319.413 145.207ZM329.813 163.407V161.912C329.813 159.788 329.185 158.293 327.928 157.427C326.671 156.56 324.916 156.127 322.663 156.127H313.888C312.155 156.127 310.66 155.975 309.403 155.672C308.19 155.412 307.215 155 306.478 154.437C305.741 153.917 305.2 153.288 304.853 152.552C304.506 151.858 304.333 151.078 304.333 150.212C304.333 148.478 304.853 147.178 305.893 146.312C306.976 145.445 308.385 144.882 310.118 144.622C311.895 144.362 313.758 144.318 315.708 144.492L319.413 145.207C316.856 145.293 314.906 145.532 313.563 145.922C312.263 146.268 311.613 146.983 311.613 148.067C311.613 148.717 311.873 149.237 312.393 149.627C312.913 150.017 313.65 150.212 314.603 150.212H323.833C326.476 150.212 328.795 150.515 330.788 151.122C332.781 151.772 334.32 152.833 335.403 154.307C336.53 155.823 337.093 157.882 337.093 160.482V163.407H329.813ZM319.413 139.552C321.146 139.552 322.685 139.227 324.028 138.577C325.371 137.927 326.433 136.995 327.213 135.782C327.993 134.568 328.383 133.095 328.383 131.362C328.383 129.628 327.993 128.133 327.213 126.877C326.433 125.62 325.371 124.667 324.028 124.017C322.685 123.367 321.146 123.042 319.413 123.042C317.723 123.042 316.185 123.367 314.798 124.017C313.455 124.667 312.393 125.62 311.613 126.877C310.833 128.09 310.443 129.585 310.443 131.362C310.443 133.095 310.833 134.568 311.613 135.782C312.393 136.995 313.455 137.927 314.798 138.577C316.141 139.227 317.68 139.552 319.413 139.552ZM362.262 150.927C358.665 150.927 355.437 150.277 352.577 148.977C349.717 147.677 347.464 145.77 345.817 143.257C344.17 140.743 343.347 137.688 343.347 134.092C343.347 130.538 344.17 127.505 345.817 124.992C347.464 122.435 349.717 120.485 352.577 119.142C355.437 117.798 358.665 117.127 362.262 117.127C365.859 117.127 369.065 117.798 371.882 119.142C374.699 120.485 376.909 122.435 378.512 124.992C380.159 127.505 380.982 130.538 380.982 134.092C380.982 137.688 380.159 140.743 378.512 143.257C376.909 145.77 374.699 147.677 371.882 148.977C369.065 150.277 365.859 150.927 362.262 150.927ZM362.262 145.012C364.342 145.012 366.249 144.6 367.982 143.777C369.715 142.953 371.08 141.718 372.077 140.072C373.117 138.425 373.637 136.432 373.637 134.092C373.637 131.752 373.117 129.758 372.077 128.112C371.08 126.465 369.715 125.208 367.982 124.342C366.292 123.432 364.385 122.977 362.262 122.977C360.139 122.977 358.21 123.41 356.477 124.277C354.744 125.143 353.335 126.4 352.252 128.047C351.212 129.693 350.692 131.708 350.692 134.092C350.692 136.432 351.212 138.425 352.252 140.072C353.292 141.718 354.679 142.953 356.412 143.777C358.189 144.6 360.139 145.012 362.262 145.012ZM387.439 117.842H394.654V150.212H387.439V117.842ZM408.304 117.127C410.168 117.127 411.879 117.387 413.439 117.907C415.043 118.427 416.408 119.228 417.534 120.312C418.704 121.352 419.593 122.652 420.199 124.212C420.849 125.772 421.174 127.613 421.174 129.737V150.212H413.959V131.167C413.959 128.523 413.309 126.573 412.009 125.317C410.753 124.017 408.759 123.367 406.029 123.367C403.949 123.367 402.043 123.822 400.309 124.732C398.619 125.598 397.233 126.747 396.149 128.177C395.066 129.563 394.438 131.102 394.264 132.792L394.199 129.282C394.416 127.678 394.893 126.162 395.629 124.732C396.366 123.258 397.341 121.958 398.554 120.832C399.768 119.662 401.198 118.752 402.844 118.102C404.491 117.452 406.311 117.127 408.304 117.127ZM433.38 121.352H429.48L427.27 113.227V107.832H435.655V113.227L433.38 121.352ZM440.916 139.552H447.611C447.958 141.198 448.846 142.542 450.276 143.582C451.706 144.578 453.635 145.077 456.061 145.077C457.621 145.077 458.835 144.903 459.701 144.557C460.611 144.21 461.24 143.733 461.586 143.127C461.976 142.52 462.171 141.827 462.171 141.047C462.171 140.093 461.89 139.357 461.326 138.837C460.806 138.317 460.026 137.883 458.986 137.537C457.946 137.19 456.646 136.887 455.086 136.627C453.483 136.237 451.901 135.803 450.341 135.327C448.781 134.85 447.373 134.265 446.116 133.572C444.86 132.835 443.863 131.925 443.126 130.842C442.433 129.715 442.086 128.35 442.086 126.747C442.086 125.273 442.411 123.952 443.061 122.782C443.755 121.568 444.708 120.55 445.921 119.727C447.135 118.903 448.565 118.275 450.211 117.842C451.858 117.365 453.656 117.127 455.606 117.127C458.423 117.127 460.763 117.582 462.626 118.492C464.533 119.402 465.963 120.68 466.916 122.327C467.913 123.973 468.411 125.858 468.411 127.982H462.041C461.695 126.248 461.023 124.992 460.026 124.212C459.03 123.432 457.535 123.042 455.541 123.042C453.548 123.042 452.031 123.388 450.991 124.082C449.951 124.775 449.431 125.728 449.431 126.942C449.431 127.852 449.756 128.588 450.406 129.152C451.1 129.672 452.075 130.127 453.331 130.517C454.588 130.907 456.061 131.297 457.751 131.687C459.311 132.12 460.785 132.575 462.171 133.052C463.558 133.485 464.793 134.048 465.876 134.742C467.003 135.392 467.891 136.258 468.541 137.342C469.191 138.425 469.516 139.768 469.516 141.372C469.516 143.365 468.975 145.077 467.891 146.507C466.851 147.937 465.335 149.042 463.341 149.822C461.348 150.558 458.943 150.927 456.126 150.927C453.656 150.927 451.511 150.645 449.691 150.082C447.915 149.518 446.42 148.782 445.206 147.872C444.036 146.962 443.126 145.987 442.476 144.947C441.826 143.907 441.371 142.91 441.111 141.957C440.895 141.003 440.83 140.202 440.916 139.552ZM24.9398 183.842H32.1548V229.212H24.9398V183.842ZM67.9606 218.552H74.9156C74.569 220.762 73.7023 222.733 72.3156 224.467C70.9723 226.157 69.1306 227.5 66.7906 228.497C64.4506 229.45 61.6556 229.927 58.4056 229.927C54.7223 229.927 51.429 229.255 48.5256 227.912C45.6223 226.525 43.3473 224.575 41.7006 222.062C40.054 219.548 39.2306 216.558 39.2306 213.092C39.2306 209.668 40.0323 206.678 41.6356 204.122C43.239 201.565 45.449 199.593 48.2656 198.207C51.1256 196.82 54.419 196.127 58.1456 196.127C62.0023 196.127 65.209 196.82 67.7656 198.207C70.3656 199.55 72.294 201.587 73.5506 204.317C74.8073 207.003 75.3273 210.405 75.1106 214.522H46.5756C46.7923 216.342 47.3773 217.988 48.3306 219.462C49.3273 220.892 50.6706 222.018 52.3606 222.842C54.0506 223.622 56.0223 224.012 58.2756 224.012C60.789 224.012 62.8906 223.513 64.5806 222.517C66.314 221.52 67.4406 220.198 67.9606 218.552ZM57.9506 201.977C55.004 201.977 52.5773 202.713 50.6706 204.187C48.764 205.617 47.529 207.458 46.9656 209.712H67.8306C67.6573 207.285 66.6823 205.4 64.9056 204.057C63.129 202.67 60.8106 201.977 57.9506 201.977ZM81.5456 196.842H88.7606V229.212H81.5456V196.842ZM102.411 196.127C104.274 196.127 105.986 196.387 107.546 196.907C109.149 197.427 110.514 198.228 111.641 199.312C112.811 200.352 113.699 201.652 114.306 203.212C114.956 204.772 115.281 206.613 115.281 208.737V229.212H108.066V210.167C108.066 207.523 107.416 205.573 106.116 204.317C104.859 203.017 102.866 202.367 100.136 202.367C98.0556 202.367 96.149 202.822 94.4156 203.732C92.7256 204.598 91.339 205.747 90.2556 207.177C89.1723 208.563 88.544 210.102 88.3706 211.792L88.3056 208.282C88.5223 206.678 88.999 205.162 89.7356 203.732C90.4723 202.258 91.4473 200.958 92.6606 199.832C93.874 198.662 95.304 197.752 96.9506 197.102C98.5973 196.452 100.417 196.127 102.411 196.127ZM137.68 229.927C134.69 229.927 131.96 229.212 129.49 227.782C127.063 226.352 125.135 224.38 123.705 221.867C122.275 219.31 121.56 216.385 121.56 213.092C121.56 209.712 122.253 206.765 123.64 204.252C125.07 201.695 126.976 199.702 129.36 198.272C131.786 196.842 134.56 196.127 137.68 196.127C140.41 196.127 142.706 196.582 144.57 197.492C146.433 198.358 147.906 199.572 148.99 201.132C150.073 202.648 150.853 204.425 151.33 206.462C151.85 208.498 152.11 210.708 152.11 213.092C152.11 214.868 151.85 216.753 151.33 218.747C150.81 220.697 149.986 222.517 148.86 224.207C147.776 225.897 146.303 227.283 144.44 228.367C142.62 229.407 140.366 229.927 137.68 229.927ZM139.89 223.947C142.316 223.947 144.375 223.492 146.065 222.582C147.798 221.628 149.098 220.328 149.965 218.682C150.875 217.035 151.33 215.172 151.33 213.092C151.33 210.795 150.875 208.845 149.965 207.242C149.055 205.595 147.755 204.317 146.065 203.407C144.375 202.497 142.316 202.042 139.89 202.042C136.423 202.042 133.736 203.082 131.83 205.162C129.923 207.198 128.97 209.842 128.97 213.092C128.97 215.215 129.425 217.1 130.335 218.747C131.288 220.393 132.588 221.672 134.235 222.582C135.881 223.492 137.766 223.947 139.89 223.947ZM151.33 183.842H158.61V229.212H151.85C151.763 228.215 151.655 226.98 151.525 225.507C151.395 224.033 151.33 222.712 151.33 221.542V183.842ZM176.26 183.127V190.082H167.615V183.127H176.26ZM168.265 196.842H175.545V229.212H168.265V196.842ZM184.187 196.842H191.402V229.212H184.187V196.842ZM205.052 196.127C206.916 196.127 208.627 196.387 210.187 196.907C211.791 197.427 213.156 198.228 214.282 199.312C215.452 200.352 216.341 201.652 216.947 203.212C217.597 204.772 217.922 206.613 217.922 208.737V229.212H210.707V210.167C210.707 207.523 210.057 205.573 208.757 204.317C207.501 203.017 205.507 202.367 202.777 202.367C200.697 202.367 198.791 202.822 197.057 203.732C195.367 204.598 193.981 205.747 192.897 207.177C191.814 208.563 191.186 210.102 191.012 211.792L190.947 208.282C191.164 206.678 191.641 205.162 192.377 203.732C193.114 202.258 194.089 200.958 195.302 199.832C196.516 198.662 197.946 197.752 199.592 197.102C201.239 196.452 203.059 196.127 205.052 196.127ZM240.321 224.207C237.288 224.207 234.536 223.665 232.066 222.582C229.64 221.498 227.711 219.917 226.281 217.837C224.895 215.757 224.201 213.265 224.201 210.362C224.201 207.458 224.873 204.945 226.216 202.822C227.603 200.698 229.51 199.052 231.936 197.882C234.406 196.712 237.201 196.127 240.321 196.127C241.231 196.127 242.098 196.192 242.921 196.322C243.788 196.452 244.611 196.625 245.391 196.842L260.536 196.907V202.952C258.456 202.995 256.355 202.713 254.231 202.107C252.151 201.457 250.31 200.785 248.706 200.092L248.511 199.702C249.985 200.438 251.306 201.348 252.476 202.432C253.69 203.472 254.643 204.663 255.336 206.007C256.03 207.35 256.376 208.867 256.376 210.557C256.376 213.417 255.683 215.865 254.296 217.902C252.953 219.938 251.068 221.498 248.641 222.582C246.258 223.665 243.485 224.207 240.321 224.207ZM250.721 242.407V240.912C250.721 238.788 250.093 237.293 248.836 236.427C247.58 235.56 245.825 235.127 243.571 235.127H234.796C233.063 235.127 231.568 234.975 230.311 234.672C229.098 234.412 228.123 234 227.386 233.437C226.65 232.917 226.108 232.288 225.761 231.552C225.415 230.858 225.241 230.078 225.241 229.212C225.241 227.478 225.761 226.178 226.801 225.312C227.885 224.445 229.293 223.882 231.026 223.622C232.803 223.362 234.666 223.318 236.616 223.492L240.321 224.207C237.765 224.293 235.815 224.532 234.471 224.922C233.171 225.268 232.521 225.983 232.521 227.067C232.521 227.717 232.781 228.237 233.301 228.627C233.821 229.017 234.558 229.212 235.511 229.212H244.741C247.385 229.212 249.703 229.515 251.696 230.122C253.69 230.772 255.228 231.833 256.311 233.307C257.438 234.823 258.001 236.882 258.001 239.482V242.407H250.721ZM240.321 218.552C242.055 218.552 243.593 218.227 244.936 217.577C246.28 216.927 247.341 215.995 248.121 214.782C248.901 213.568 249.291 212.095 249.291 210.362C249.291 208.628 248.901 207.133 248.121 205.877C247.341 204.62 246.28 203.667 244.936 203.017C243.593 202.367 242.055 202.042 240.321 202.042C238.631 202.042 237.093 202.367 235.706 203.017C234.363 203.667 233.301 204.62 232.521 205.877C231.741 207.09 231.351 208.585 231.351 210.362C231.351 212.095 231.741 213.568 232.521 214.782C233.301 215.995 234.363 216.927 235.706 217.577C237.05 218.227 238.588 218.552 240.321 218.552ZM279.876 218.552H286.571C286.918 220.198 287.806 221.542 289.236 222.582C290.666 223.578 292.595 224.077 295.021 224.077C296.581 224.077 297.795 223.903 298.661 223.557C299.571 223.21 300.2 222.733 300.546 222.127C300.936 221.52 301.131 220.827 301.131 220.047C301.131 219.093 300.85 218.357 300.286 217.837C299.766 217.317 298.986 216.883 297.946 216.537C296.906 216.19 295.606 215.887 294.046 215.627C292.443 215.237 290.861 214.803 289.301 214.327C287.741 213.85 286.333 213.265 285.076 212.572C283.82 211.835 282.823 210.925 282.086 209.842C281.393 208.715 281.046 207.35 281.046 205.747C281.046 204.273 281.371 202.952 282.021 201.782C282.715 200.568 283.668 199.55 284.881 198.727C286.095 197.903 287.525 197.275 289.171 196.842C290.818 196.365 292.616 196.127 294.566 196.127C297.383 196.127 299.723 196.582 301.586 197.492C303.493 198.402 304.923 199.68 305.876 201.327C306.873 202.973 307.371 204.858 307.371 206.982H301.001C300.655 205.248 299.983 203.992 298.986 203.212C297.99 202.432 296.495 202.042 294.501 202.042C292.508 202.042 290.991 202.388 289.951 203.082C288.911 203.775 288.391 204.728 288.391 205.942C288.391 206.852 288.716 207.588 289.366 208.152C290.06 208.672 291.035 209.127 292.291 209.517C293.548 209.907 295.021 210.297 296.711 210.687C298.271 211.12 299.745 211.575 301.131 212.052C302.518 212.485 303.753 213.048 304.836 213.742C305.963 214.392 306.851 215.258 307.501 216.342C308.151 217.425 308.476 218.768 308.476 220.372C308.476 222.365 307.935 224.077 306.851 225.507C305.811 226.937 304.295 228.042 302.301 228.822C300.308 229.558 297.903 229.927 295.086 229.927C292.616 229.927 290.471 229.645 288.651 229.082C286.875 228.518 285.38 227.782 284.166 226.872C282.996 225.962 282.086 224.987 281.436 223.947C280.786 222.907 280.331 221.91 280.071 220.957C279.855 220.003 279.79 219.202 279.876 218.552ZM342.052 218.552H349.007C348.661 220.762 347.794 222.733 346.407 224.467C345.064 226.157 343.222 227.5 340.882 228.497C338.542 229.45 335.747 229.927 332.497 229.927C328.814 229.927 325.521 229.255 322.617 227.912C319.714 226.525 317.439 224.575 315.792 222.062C314.146 219.548 313.322 216.558 313.322 213.092C313.322 209.668 314.124 206.678 315.727 204.122C317.331 201.565 319.541 199.593 322.357 198.207C325.217 196.82 328.511 196.127 332.237 196.127C336.094 196.127 339.301 196.82 341.857 198.207C344.457 199.55 346.386 201.587 347.642 204.317C348.899 207.003 349.419 210.405 349.202 214.522H320.667C320.884 216.342 321.469 217.988 322.422 219.462C323.419 220.892 324.762 222.018 326.452 222.842C328.142 223.622 330.114 224.012 332.367 224.012C334.881 224.012 336.982 223.513 338.672 222.517C340.406 221.52 341.532 220.198 342.052 218.552ZM332.042 201.977C329.096 201.977 326.669 202.713 324.762 204.187C322.856 205.617 321.621 207.458 321.057 209.712H341.922C341.749 207.285 340.774 205.4 338.997 204.057C337.221 202.67 334.902 201.977 332.042 201.977ZM355.637 196.842H362.852V229.212H355.637V196.842ZM374.552 203.017C372.212 203.017 370.197 203.515 368.507 204.512C366.861 205.508 365.539 206.722 364.542 208.152C363.546 209.582 362.852 210.968 362.462 212.312L362.397 208.672C362.441 208.195 362.592 207.48 362.852 206.527C363.112 205.53 363.502 204.447 364.022 203.277C364.586 202.107 365.322 200.98 366.232 199.897C367.186 198.77 368.334 197.86 369.677 197.167C371.064 196.473 372.689 196.127 374.552 196.127V203.017ZM395.872 224.077H393.337L404.517 196.842H412.382L398.082 229.212H391.192L377.087 196.842H385.017L395.872 224.077ZM426.041 183.127V190.082H417.396V183.127H426.041ZM418.046 196.842H425.326V229.212H418.046V196.842ZM468.808 216.667C468.548 219.44 467.659 221.823 466.143 223.817C464.626 225.81 462.589 227.327 460.033 228.367C457.519 229.407 454.616 229.927 451.323 229.927C447.769 229.927 444.541 229.277 441.638 227.977C438.778 226.677 436.503 224.77 434.813 222.257C433.123 219.743 432.278 216.688 432.278 213.092C432.278 209.495 433.123 206.44 434.813 203.927C436.503 201.413 438.778 199.485 441.638 198.142C444.541 196.798 447.769 196.127 451.323 196.127C454.616 196.127 457.519 196.668 460.033 197.752C462.546 198.792 464.561 200.287 466.078 202.237C467.594 204.187 468.483 206.548 468.743 209.322H462.113C461.376 207.025 460.033 205.248 458.083 203.992C456.176 202.692 453.923 202.042 451.323 202.042C449.199 202.042 447.249 202.475 445.473 203.342C443.696 204.165 442.266 205.4 441.183 207.047C440.143 208.65 439.623 210.665 439.623 213.092C439.623 215.475 440.143 217.49 441.183 219.137C442.266 220.783 443.696 222.018 445.473 222.842C447.249 223.622 449.199 224.012 451.323 224.012C454.183 224.012 456.523 223.383 458.343 222.127C460.206 220.827 461.484 219.007 462.178 216.667H468.808ZM502.204 218.552H509.159C508.812 220.762 507.945 222.733 506.559 224.467C505.215 226.157 503.374 227.5 501.034 228.497C498.694 229.45 495.899 229.927 492.649 229.927C488.965 229.927 485.672 229.255 482.769 227.912C479.865 226.525 477.59 224.575 475.944 222.062C474.297 219.548 473.474 216.558 473.474 213.092C473.474 209.668 474.275 206.678 475.879 204.122C477.482 201.565 479.692 199.593 482.509 198.207C485.369 196.82 488.662 196.127 492.389 196.127C496.245 196.127 499.452 196.82 502.009 198.207C504.609 199.55 506.537 201.587 507.794 204.317C509.05 207.003 509.57 210.405 509.354 214.522H480.819C481.035 216.342 481.62 217.988 482.574 219.462C483.57 220.892 484.914 222.018 486.604 222.842C488.294 223.622 490.265 224.012 492.519 224.012C495.032 224.012 497.134 223.513 498.824 222.517C500.557 221.52 501.684 220.198 502.204 218.552ZM492.194 201.977C489.247 201.977 486.82 202.713 484.914 204.187C483.007 205.617 481.772 207.458 481.209 209.712H502.074C501.9 207.285 500.925 205.4 499.149 204.057C497.372 202.67 495.054 201.977 492.194 201.977ZM514.359 218.552H521.054C521.4 220.198 522.289 221.542 523.719 222.582C525.149 223.578 527.077 224.077 529.504 224.077C531.064 224.077 532.277 223.903 533.144 223.557C534.054 223.21 534.682 222.733 535.029 222.127C535.419 221.52 535.614 220.827 535.614 220.047C535.614 219.093 535.332 218.357 534.769 217.837C534.249 217.317 533.469 216.883 532.429 216.537C531.389 216.19 530.089 215.887 528.529 215.627C526.925 215.237 525.344 214.803 523.784 214.327C522.224 213.85 520.815 213.265 519.559 212.572C518.302 211.835 517.305 210.925 516.569 209.842C515.875 208.715 515.529 207.35 515.529 205.747C515.529 204.273 515.854 202.952 516.504 201.782C517.197 200.568 518.15 199.55 519.364 198.727C520.577 197.903 522.007 197.275 523.654 196.842C525.3 196.365 527.099 196.127 529.049 196.127C531.865 196.127 534.205 196.582 536.069 197.492C537.975 198.402 539.405 199.68 540.359 201.327C541.355 202.973 541.854 204.858 541.854 206.982H535.484C535.137 205.248 534.465 203.992 533.469 203.212C532.472 202.432 530.977 202.042 528.984 202.042C526.99 202.042 525.474 202.388 524.434 203.082C523.394 203.775 522.874 204.728 522.874 205.942C522.874 206.852 523.199 207.588 523.849 208.152C524.542 208.672 525.517 209.127 526.774 209.517C528.03 209.907 529.504 210.297 531.194 210.687C532.754 211.12 534.227 211.575 535.614 212.052C537 212.485 538.235 213.048 539.319 213.742C540.445 214.392 541.334 215.258 541.984 216.342C542.634 217.425 542.959 218.768 542.959 220.372C542.959 222.365 542.417 224.077 541.334 225.507C540.294 226.937 538.777 228.042 536.784 228.822C534.79 229.558 532.385 229.927 529.569 229.927C527.099 229.927 524.954 229.645 523.134 229.082C521.357 228.518 519.862 227.782 518.649 226.872C517.479 225.962 516.569 224.987 515.919 223.947C515.269 222.907 514.814 221.91 514.554 220.957C514.337 220.003 514.272 219.202 514.359 218.552Z" fill="white"/>
<g filter="url(#filter0_d_7448_71782)">
<rect y="0.420898" width="426.263" height="88.533" rx="10" fill="#FFBD00"/>
</g>
<path d="M28.1735 65.1128V22.9928H49.6235C54.7802 22.9928 58.7235 23.9678 61.4535 25.9178C64.2269 27.8245 65.6135 30.5978 65.6135 34.2378C65.6135 36.5778 65.0719 38.4411 63.9885 39.8278C62.9485 41.1711 61.4535 42.1895 59.5035 42.8828C57.5535 43.5328 55.2569 43.9445 52.6135 44.1178L52.8735 43.7278C54.7802 43.7711 56.5785 43.9445 58.2685 44.2478C60.0019 44.5078 61.5185 44.9845 62.8185 45.6778C64.1618 46.3711 65.2019 47.3461 65.9385 48.6028C66.7185 49.8161 67.1085 51.3978 67.1085 53.3478C67.1085 55.9478 66.4585 58.0928 65.1585 59.7828C63.8585 61.4728 62.0602 62.7728 59.7635 63.6828C57.4669 64.5495 54.8235 65.0261 51.8335 65.1128H28.1735ZM35.5835 58.8078H50.7285C53.5452 58.8078 55.7335 58.3311 57.2935 57.3778C58.8535 56.3811 59.6335 54.8428 59.6335 52.7628C59.6335 51.1161 59.1569 49.9245 58.2035 49.1878C57.2502 48.4078 56.0152 47.9095 54.4985 47.6928C53.0252 47.4761 51.4435 47.3678 49.7535 47.3678H35.5835V58.8078ZM35.5835 41.1928H49.1685C51.9852 41.1928 54.1519 40.7161 55.6685 39.7628C57.2285 38.7661 58.0085 37.2061 58.0085 35.0828C58.0085 33.0028 57.2285 31.5295 55.6685 30.6628C54.1519 29.7528 52.1585 29.2978 49.6885 29.2978H35.5835V41.1928ZM91.0773 65.8278C87.4806 65.8278 84.2523 65.1778 81.3923 63.8778C78.5323 62.5778 76.2789 60.6711 74.6323 58.1578C72.9856 55.6445 72.1623 52.5895 72.1623 48.9928C72.1623 45.4395 72.9856 42.4061 74.6323 39.8928C76.2789 37.3361 78.5323 35.3861 81.3923 34.0428C84.2523 32.6995 87.4806 32.0278 91.0773 32.0278C94.6739 32.0278 97.8806 32.6995 100.697 34.0428C103.514 35.3861 105.724 37.3361 107.327 39.8928C108.974 42.4061 109.797 45.4395 109.797 48.9928C109.797 52.5895 108.974 55.6445 107.327 58.1578C105.724 60.6711 103.514 62.5778 100.697 63.8778C97.8806 65.1778 94.6739 65.8278 91.0773 65.8278ZM91.0773 59.9128C93.1573 59.9128 95.0639 59.5011 96.7973 58.6778C98.5306 57.8545 99.8956 56.6195 100.892 54.9728C101.932 53.3261 102.452 51.3328 102.452 48.9928C102.452 46.6528 101.932 44.6595 100.892 43.0128C99.8956 41.3661 98.5306 40.1095 96.7973 39.2428C95.1073 38.3328 93.2006 37.8778 91.0773 37.8778C88.9539 37.8778 87.0256 38.3111 85.2923 39.1778C83.5589 40.0445 82.1506 41.3011 81.0673 42.9478C80.0273 44.5945 79.5073 46.6095 79.5073 48.9928C79.5073 51.3328 80.0273 53.3261 81.0673 54.9728C82.1073 56.6195 83.4939 57.8545 85.2273 58.6778C87.0039 59.5011 88.9539 59.9128 91.0773 59.9128ZM133.48 65.8278C129.883 65.8278 126.655 65.1778 123.795 63.8778C120.935 62.5778 118.681 60.6711 117.035 58.1578C115.388 55.6445 114.565 52.5895 114.565 48.9928C114.565 45.4395 115.388 42.4061 117.035 39.8928C118.681 37.3361 120.935 35.3861 123.795 34.0428C126.655 32.6995 129.883 32.0278 133.48 32.0278C137.076 32.0278 140.283 32.6995 143.1 34.0428C145.916 35.3861 148.126 37.3361 149.73 39.8928C151.376 42.4061 152.2 45.4395 152.2 48.9928C152.2 52.5895 151.376 55.6445 149.73 58.1578C148.126 60.6711 145.916 62.5778 143.1 63.8778C140.283 65.1778 137.076 65.8278 133.48 65.8278ZM133.48 59.9128C135.56 59.9128 137.466 59.5011 139.2 58.6778C140.933 57.8545 142.298 56.6195 143.295 54.9728C144.335 53.3261 144.855 51.3328 144.855 48.9928C144.855 46.6528 144.335 44.6595 143.295 43.0128C142.298 41.3661 140.933 40.1095 139.2 39.2428C137.51 38.3328 135.603 37.8778 133.48 37.8778C131.356 37.8778 129.428 38.3111 127.695 39.1778C125.961 40.0445 124.553 41.3011 123.47 42.9478C122.43 44.5945 121.91 46.6095 121.91 48.9928C121.91 51.3328 122.43 53.3261 123.47 54.9728C124.51 56.6195 125.896 57.8545 127.63 58.6778C129.406 59.5011 131.356 59.9128 133.48 59.9128ZM157.227 54.4528H163.922C164.269 56.0995 165.157 57.4428 166.587 58.4828C168.017 59.4795 169.945 59.9778 172.372 59.9778C173.932 59.9778 175.145 59.8045 176.012 59.4578C176.922 59.1111 177.55 58.6345 177.897 58.0278C178.287 57.4211 178.482 56.7278 178.482 55.9478C178.482 54.9945 178.2 54.2578 177.637 53.7378C177.117 53.2178 176.337 52.7845 175.297 52.4378C174.257 52.0911 172.957 51.7878 171.397 51.5278C169.794 51.1378 168.212 50.7045 166.652 50.2278C165.092 49.7511 163.684 49.1661 162.427 48.4728C161.17 47.7361 160.174 46.8261 159.437 45.7428C158.744 44.6161 158.397 43.2511 158.397 41.6478C158.397 40.1745 158.722 38.8528 159.372 37.6828C160.065 36.4695 161.019 35.4511 162.232 34.6278C163.445 33.8045 164.875 33.1761 166.522 32.7428C168.169 32.2661 169.967 32.0278 171.917 32.0278C174.734 32.0278 177.074 32.4828 178.937 33.3928C180.844 34.3028 182.274 35.5811 183.227 37.2278C184.224 38.8745 184.722 40.7595 184.722 42.8828H178.352C178.005 41.1495 177.334 39.8928 176.337 39.1128C175.34 38.3328 173.845 37.9428 171.852 37.9428C169.859 37.9428 168.342 38.2895 167.302 38.9828C166.262 39.6761 165.742 40.6295 165.742 41.8428C165.742 42.7528 166.067 43.4895 166.717 44.0528C167.41 44.5728 168.385 45.0278 169.642 45.4178C170.899 45.8078 172.372 46.1978 174.062 46.5878C175.622 47.0211 177.095 47.4761 178.482 47.9528C179.869 48.3861 181.104 48.9495 182.187 49.6428C183.314 50.2928 184.202 51.1595 184.852 52.2428C185.502 53.3261 185.827 54.6695 185.827 56.2728C185.827 58.2661 185.285 59.9778 184.202 61.4078C183.162 62.8378 181.645 63.9428 179.652 64.7228C177.659 65.4595 175.254 65.8278 172.437 65.8278C169.967 65.8278 167.822 65.5461 166.002 64.9828C164.225 64.4195 162.73 63.6828 161.517 62.7728C160.347 61.8628 159.437 60.8878 158.787 59.8478C158.137 58.8078 157.682 57.8111 157.422 56.8578C157.205 55.9045 157.14 55.1028 157.227 54.4528ZM190.088 32.7428H212.968V38.6578H190.088V32.7428ZM197.888 24.0328H205.168V65.1128H197.888V24.0328ZM232.193 54.4528H238.888C239.234 56.0995 240.123 57.4428 241.553 58.4828C242.983 59.4795 244.911 59.9778 247.338 59.9778C248.898 59.9778 250.111 59.8045 250.978 59.4578C251.888 59.1111 252.516 58.6345 252.863 58.0278C253.253 57.4211 253.448 56.7278 253.448 55.9478C253.448 54.9945 253.166 54.2578 252.603 53.7378C252.083 53.2178 251.303 52.7845 250.263 52.4378C249.223 52.0911 247.923 51.7878 246.363 51.5278C244.759 51.1378 243.178 50.7045 241.618 50.2278C240.058 49.7511 238.649 49.1661 237.393 48.4728C236.136 47.7361 235.139 46.8261 234.403 45.7428C233.709 44.6161 233.363 43.2511 233.363 41.6478C233.363 40.1745 233.688 38.8528 234.338 37.6828C235.031 36.4695 235.984 35.4511 237.198 34.6278C238.411 33.8045 239.841 33.1761 241.488 32.7428C243.134 32.2661 244.933 32.0278 246.883 32.0278C249.699 32.0278 252.039 32.4828 253.903 33.3928C255.809 34.3028 257.239 35.5811 258.193 37.2278C259.189 38.8745 259.688 40.7595 259.688 42.8828H253.318C252.971 41.1495 252.299 39.8928 251.303 39.1128C250.306 38.3328 248.811 37.9428 246.818 37.9428C244.824 37.9428 243.308 38.2895 242.268 38.9828C241.228 39.6761 240.708 40.6295 240.708 41.8428C240.708 42.7528 241.033 43.4895 241.683 44.0528C242.376 44.5728 243.351 45.0278 244.608 45.4178C245.864 45.8078 247.338 46.1978 249.028 46.5878C250.588 47.0211 252.061 47.4761 253.448 47.9528C254.834 48.3861 256.069 48.9495 257.153 49.6428C258.279 50.2928 259.168 51.1595 259.818 52.2428C260.468 53.3261 260.793 54.6695 260.793 56.2728C260.793 58.2661 260.251 59.9778 259.168 61.4078C258.128 62.8378 256.611 63.9428 254.618 64.7228C252.624 65.4595 250.219 65.8278 247.403 65.8278C244.933 65.8278 242.788 65.5461 240.968 64.9828C239.191 64.4195 237.696 63.6828 236.483 62.7728C235.313 61.8628 234.403 60.8878 233.753 59.8478C233.103 58.8078 232.648 57.8111 232.388 56.8578C232.171 55.9045 232.106 55.1028 232.193 54.4528ZM281.759 65.8278C278.812 65.8278 276.104 65.1128 273.634 63.6828C271.207 62.2528 269.257 60.2811 267.784 57.7678C266.354 55.2111 265.639 52.2861 265.639 48.9928C265.639 45.6128 266.375 42.6661 267.849 40.1528C269.322 37.5961 271.315 35.6028 273.829 34.1728C276.342 32.7428 279.159 32.0278 282.279 32.0278C285.745 32.0278 288.497 32.7861 290.534 34.3028C292.57 35.8195 294.022 37.8561 294.889 40.4128C295.755 42.9695 296.189 45.8295 296.189 48.9928C296.189 50.7695 295.929 52.6545 295.409 54.6478C294.889 56.5978 294.065 58.4178 292.939 60.1078C291.855 61.7978 290.382 63.1845 288.519 64.2678C286.699 65.3078 284.445 65.8278 281.759 65.8278ZM283.969 59.8478C286.395 59.8478 288.454 59.3928 290.144 58.4828C291.877 57.5295 293.177 56.2295 294.044 54.5828C294.954 52.9361 295.409 51.0728 295.409 48.9928C295.409 46.6961 294.954 44.7461 294.044 43.1428C293.134 41.4961 291.834 40.2395 290.144 39.3728C288.454 38.4628 286.395 38.0078 283.969 38.0078C280.502 38.0078 277.815 39.0261 275.909 41.0628C274.002 43.0995 273.049 45.7428 273.049 48.9928C273.049 51.1161 273.504 53.0011 274.414 54.6478C275.367 56.2945 276.667 57.5728 278.314 58.4828C279.96 59.3928 281.845 59.8478 283.969 59.8478ZM295.409 32.7428H302.689V65.1128H295.929C295.929 65.1128 295.885 64.7011 295.799 63.8778C295.712 63.0545 295.625 62.0578 295.539 60.8878C295.452 59.6745 295.409 58.5261 295.409 57.4428V32.7428ZM311.27 19.7428H318.485V65.1128H311.27V19.7428ZM354.291 54.4528H361.246C360.899 56.6628 360.032 58.6345 358.646 60.3678C357.302 62.0578 355.461 63.4011 353.121 64.3978C350.781 65.3511 347.986 65.8278 344.736 65.8278C341.052 65.8278 337.759 65.1561 334.856 63.8128C331.952 62.4261 329.677 60.4761 328.031 57.9628C326.384 55.4495 325.561 52.4595 325.561 48.9928C325.561 45.5695 326.362 42.5795 327.966 40.0228C329.569 37.4661 331.779 35.4945 334.596 34.1078C337.456 32.7211 340.749 32.0278 344.476 32.0278C348.332 32.0278 351.539 32.7211 354.096 34.1078C356.696 35.4511 358.624 37.4878 359.881 40.2178C361.137 42.9045 361.657 46.3061 361.441 50.4228H332.906C333.122 52.2428 333.707 53.8895 334.661 55.3628C335.657 56.7928 337.001 57.9195 338.691 58.7428C340.381 59.5228 342.352 59.9128 344.606 59.9128C347.119 59.9128 349.221 59.4145 350.911 58.4178C352.644 57.4211 353.771 56.0995 354.291 54.4528ZM344.281 37.8778C341.334 37.8778 338.907 38.6145 337.001 40.0878C335.094 41.5178 333.859 43.3595 333.296 45.6128H354.161C353.987 43.1861 353.012 41.3011 351.236 39.9578C349.459 38.5711 347.141 37.8778 344.281 37.8778ZM366.446 54.4528H373.141C373.487 56.0995 374.376 57.4428 375.806 58.4828C377.236 59.4795 379.164 59.9778 381.591 59.9778C383.151 59.9778 384.364 59.8045 385.231 59.4578C386.141 59.1111 386.769 58.6345 387.116 58.0278C387.506 57.4211 387.701 56.7278 387.701 55.9478C387.701 54.9945 387.419 54.2578 386.856 53.7378C386.336 53.2178 385.556 52.7845 384.516 52.4378C383.476 52.0911 382.176 51.7878 380.616 51.5278C379.012 51.1378 377.431 50.7045 375.871 50.2278C374.311 49.7511 372.902 49.1661 371.646 48.4728C370.389 47.7361 369.392 46.8261 368.656 45.7428C367.962 44.6161 367.616 43.2511 367.616 41.6478C367.616 40.1745 367.941 38.8528 368.591 37.6828C369.284 36.4695 370.237 35.4511 371.451 34.6278C372.664 33.8045 374.094 33.1761 375.741 32.7428C377.387 32.2661 379.186 32.0278 381.136 32.0278C383.952 32.0278 386.292 32.4828 388.156 33.3928C390.062 34.3028 391.492 35.5811 392.446 37.2278C393.442 38.8745 393.941 40.7595 393.941 42.8828H387.571C387.224 41.1495 386.552 39.8928 385.556 39.1128C384.559 38.3328 383.064 37.9428 381.071 37.9428C379.077 37.9428 377.561 38.2895 376.521 38.9828C375.481 39.6761 374.961 40.6295 374.961 41.8428C374.961 42.7528 375.286 43.4895 375.936 44.0528C376.629 44.5728 377.604 45.0278 378.861 45.4178C380.117 45.8078 381.591 46.1978 383.281 46.5878C384.841 47.0211 386.314 47.4761 387.701 47.9528C389.087 48.3861 390.322 48.9495 391.406 49.6428C392.532 50.2928 393.421 51.1595 394.071 52.2428C394.721 53.3261 395.046 54.6695 395.046 56.2728C395.046 58.2661 394.504 59.9778 393.421 61.4078C392.381 62.8378 390.864 63.9428 388.871 64.7228C386.877 65.4595 384.472 65.8278 381.656 65.8278C379.186 65.8278 377.041 65.5461 375.221 64.9828C373.444 64.4195 371.949 63.6828 370.736 62.7728C369.566 61.8628 368.656 60.8878 368.006 59.8478C367.356 58.8078 366.901 57.8111 366.641 56.8578C366.424 55.9045 366.359 55.1028 366.446 54.4528Z" fill="white"/>
</g>
<defs>
<filter id="filter0_d_7448_71782" x="-20" y="-11.5791" width="466.263" height="128.533" filterUnits="userSpaceOnUse" color-interpolation-filters="sRGB">
<feFlood flood-opacity="0" result="BackgroundImageFix"/>
<feColorMatrix in="SourceAlpha" type="matrix" values="0 0 0 0 0 0 0 0 0 0 0 0 0 0 0 0 0 0 127 0" result="hardAlpha"/>
<feOffset dy="8"/>
<feGaussianBlur stdDeviation="10"/>
<feComposite in2="hardAlpha" operator="out"/>
<feColorMatrix type="matrix" values="0 0 0 0 0 0 0 0 0 0 0 0 0 0 0 0 0 0 0.12 0"/>
<feBlend mode="normal" in2="BackgroundImageFix" result="effect1_dropShadow_7448_71782"/>
<feBlend mode="normal" in="SourceGraphic" in2="effect1_dropShadow_7448_71782" result="shape"/>
</filter>
<clipPath id="clip0_7448_71782">
<rect width="562.803" height="266.718" fill="white" transform="translate(0 0.420898)"/>
</clipPath>
</defs>
</svg>
