<svg width="452" height="223" viewBox="0 0 452 223" fill="none" xmlns="http://www.w3.org/2000/svg">
<g clip-path="url(#clip0_7448_71780)">
<rect x="-0.25" y="-0.381104" width="451.75" height="227.039" fill="#F0F5FF"/>
<circle cx="389.067" cy="176.591" r="101.21" transform="rotate(-22.7084 389.067 176.591)" fill="#CCDFFF"/>
<path d="M456.068 147.147C462.123 144.613 465.048 137.592 461.683 131.956C453.152 117.667 440.504 106.16 425.27 99.0288C406.427 90.2086 384.975 88.7164 365.092 94.8428C345.209 100.969 328.317 114.276 317.706 132.172C309.127 146.64 305.149 163.27 306.139 179.882C306.53 186.435 312.899 190.592 319.33 189.279C325.762 187.966 329.785 181.66 329.763 175.096C329.727 164.333 332.589 153.68 338.153 144.296C345.753 131.479 357.851 121.949 372.092 117.561C386.333 113.173 401.697 114.242 415.193 120.559C425.073 125.184 433.434 132.379 439.462 141.295C443.139 146.734 450.012 149.681 456.068 147.147Z" fill="#2D79FD"/>
<circle cx="319.893" cy="205.582" r="10.3241" transform="rotate(-22.7084 319.893 205.582)" fill="#679EFE"/>
<circle cx="329.384" cy="228.262" r="10.3241" transform="rotate(-22.7084 329.384 228.262)" fill="#9ABFFE"/>
</g>
<defs>
<clipPath id="clip0_7448_71780">
<rect width="452" height="223" rx="20" fill="white"/>
</clipPath>
</defs>
</svg>
