<svg width="461" height="227" viewBox="0 0 461 227" fill="none" xmlns="http://www.w3.org/2000/svg">
<g clip-path="url(#clip0_7448_71779)">
<rect x="0.319336" y="0.306152" width="460.181" height="227.039" fill="#FFF5F0"/>
<g filter="url(#filter0_d_7448_71779)">
<rect x="255.627" y="32.4967" width="219.164" height="48.374" rx="2.96168" transform="rotate(-3.2999 255.627 32.4967)" fill="white"/>
</g>
<path d="M276.293 46.6102C273.467 46.7675 271.301 49.1887 271.459 52.0146C271.616 54.8406 274.037 57.0065 276.863 56.8492C279.689 56.6919 281.855 54.2707 281.698 51.4447C281.541 48.6188 279.119 46.4529 276.293 46.6102ZM279.563 51.9282L278.673 52.9226C278.485 53.1334 278.162 53.1513 277.951 52.9628L276.578 51.7297L275.35 53.1024C275.162 53.3132 274.839 53.3311 274.628 53.1426L273.634 52.253C273.423 52.0645 273.405 51.742 273.594 51.5312L274.483 50.5368C274.672 50.326 274.994 50.308 275.205 50.4966L276.578 51.7297L277.806 50.357C277.995 50.1462 278.317 50.1282 278.528 50.3168L279.523 51.2063C279.733 51.3898 279.751 51.7174 279.563 51.9282Z" fill="#FF823B"/>
<path d="M302.259 50.1149L302.204 49.1299L304.937 48.9778C305.39 48.9526 305.746 48.7955 306.004 48.5067C306.271 48.2174 306.391 47.85 306.366 47.4044C306.341 46.9431 306.18 46.5875 305.884 46.3373C305.595 46.0868 305.224 45.9741 304.771 45.9993L302.226 46.141L302.593 52.7312L301.467 52.7938L301.044 45.1835L304.667 44.9818C305.042 44.9609 305.393 44.9962 305.72 45.0878C306.054 45.1712 306.348 45.3117 306.602 45.5092C306.864 45.7064 307.07 45.9576 307.22 46.2629C307.379 46.5678 307.469 46.9274 307.492 47.3417C307.515 47.7482 307.464 48.1118 307.341 48.4323C307.226 48.7524 307.049 49.0249 306.81 49.2499C306.579 49.4667 306.302 49.635 305.98 49.7549C305.665 49.8744 305.32 49.9446 304.945 49.9654L302.259 50.1149ZM311.26 52.3663C310.76 52.3942 310.296 52.2907 309.867 52.0557C309.438 51.8208 309.09 51.4834 308.823 51.0435C308.554 50.5957 308.404 50.0748 308.371 49.4807C308.338 48.8865 308.43 48.356 308.647 47.8891C308.871 47.4139 309.191 47.0354 309.607 46.7535C310.022 46.4638 310.496 46.3041 311.027 46.2745C311.614 46.2419 312.075 46.3535 312.41 46.6092C312.754 46.8646 313.001 47.2194 313.152 47.6736C313.31 48.1275 313.405 48.6358 313.437 49.1987C313.454 49.5114 313.433 49.8458 313.375 50.202C313.316 50.5581 313.21 50.8973 313.055 51.2196C312.901 51.5419 312.676 51.8092 312.382 52.0216C312.088 52.2262 311.714 52.3411 311.26 52.3663ZM311.523 51.3754C311.937 51.3524 312.28 51.2431 312.551 51.0476C312.83 50.8439 313.031 50.5818 313.155 50.2613C313.278 49.9407 313.329 49.5889 313.308 49.2059C313.285 48.7915 313.19 48.4322 313.024 48.1277C312.866 47.8229 312.638 47.5925 312.339 47.4366C312.048 47.2803 311.699 47.2134 311.292 47.2361C310.683 47.27 310.221 47.4918 309.906 47.9013C309.6 48.3105 309.463 48.8161 309.497 49.418C309.519 49.8245 309.621 50.1796 309.803 50.4831C309.984 50.7789 310.22 51.0088 310.512 51.1729C310.811 51.3288 311.148 51.3963 311.523 51.3754ZM313.144 46.2743L314.27 46.2116L314.596 52.0631L313.564 52.1205C313.564 52.1205 313.552 52.0506 313.529 51.9107C313.505 51.7631 313.479 51.588 313.453 51.3857C313.426 51.1833 313.408 51.0039 313.399 50.8476L313.144 46.2743ZM315.211 46.1593L316.407 46.0927L318.959 51.5849L317.999 51.8736L315.211 46.1593ZM321.179 45.827L318.13 54.2189L316.945 54.2848L318.281 51.0228L319.995 45.893L321.179 45.827ZM324.575 49.0022L325.654 48.9421C325.694 49.2457 325.811 49.5176 326.005 49.7577C326.206 49.9896 326.467 50.1672 326.787 50.2905C327.116 50.4134 327.491 50.4631 327.913 50.4396C328.28 50.4191 328.582 50.3514 328.819 50.2362C329.056 50.1211 329.228 49.9743 329.336 49.7958C329.451 49.609 329.502 49.3945 329.488 49.1521C329.475 48.9098 329.398 48.722 329.257 48.5886C329.116 48.4475 328.91 48.3374 328.639 48.2584C328.367 48.1716 328.033 48.0921 327.637 48.0201C327.288 47.9532 326.943 47.8705 326.6 47.772C326.265 47.6652 325.951 47.5297 325.66 47.3656C325.376 47.201 325.142 46.9984 324.956 46.7578C324.777 46.509 324.678 46.2048 324.658 45.8452C324.636 45.4621 324.723 45.1083 324.916 44.7839C325.11 44.4516 325.404 44.1804 325.8 43.9701C326.204 43.7516 326.699 43.6261 327.285 43.5934C328.192 43.5429 328.888 43.7316 329.375 44.1593C329.869 44.5866 330.13 45.1799 330.156 45.939L329.101 45.9978C329.048 45.4675 328.859 45.0977 328.533 44.8884C328.208 44.6713 327.794 44.5766 327.294 44.6045C326.864 44.6284 326.502 44.7388 326.207 44.9356C325.912 45.1245 325.774 45.4066 325.795 45.7818C325.804 45.946 325.848 46.0887 325.925 46.2098C326.002 46.3232 326.125 46.4261 326.295 46.5186C326.465 46.6111 326.689 46.6966 326.968 46.7752C327.255 46.8534 327.608 46.9356 328.029 47.022C328.345 47.075 328.651 47.1481 328.947 47.2414C329.25 47.3344 329.523 47.4564 329.767 47.6075C330.01 47.7586 330.206 47.9594 330.353 48.21C330.508 48.4602 330.596 48.7729 330.617 49.1481C330.639 49.5468 330.562 49.9158 330.385 50.255C330.207 50.5864 329.917 50.8613 329.513 51.0798C329.117 51.2901 328.595 51.4133 327.946 51.4494C327.43 51.4781 326.977 51.4367 326.586 51.3251C326.203 51.2131 325.877 51.0587 325.608 50.862C325.346 50.6648 325.134 50.4492 324.972 50.2152C324.817 49.9806 324.707 49.7555 324.64 49.5396C324.581 49.3233 324.559 49.1442 324.575 49.0022ZM331.61 45.2464L332.736 45.1838L333.062 51.0352L331.936 51.0979L331.61 45.2464ZM334.957 44.9425C335.286 44.9242 335.585 44.9546 335.856 45.0336C336.127 45.1126 336.362 45.2407 336.56 45.4179C336.758 45.5873 336.915 45.8059 337.032 46.0739C337.156 46.3336 337.228 46.6354 337.247 46.9794L337.459 50.7904L336.345 50.8525L336.147 47.2877C336.121 46.8264 335.988 46.4888 335.749 46.2747C335.517 46.0523 335.174 45.9538 334.721 45.979C334.369 45.9986 334.053 46.0985 333.773 46.2788C333.493 46.4591 333.267 46.6912 333.094 46.9753C332.929 47.2511 332.837 47.5582 332.816 47.8965L332.769 47.2522C332.79 46.9373 332.856 46.6435 332.967 46.3707C333.085 46.0975 333.236 45.8578 333.421 45.6515C333.613 45.4369 333.839 45.2714 334.099 45.155C334.358 45.0307 334.645 44.9599 334.957 44.9425ZM339.249 44.7036C339.578 44.6853 339.877 44.7157 340.148 44.7947C340.419 44.8737 340.654 45.0018 340.852 45.179C341.05 45.3484 341.207 45.567 341.324 45.835C341.448 46.0947 341.52 46.3965 341.539 46.7405L341.751 50.5516L340.637 50.6136L340.438 47.0488C340.413 46.5875 340.28 46.2499 340.041 46.0358C339.809 45.8134 339.466 45.7149 339.013 45.7401C338.661 45.7597 338.345 45.8596 338.065 46.0399C337.785 46.2202 337.559 46.4523 337.386 46.7364C337.221 47.0122 337.129 47.3193 337.108 47.6576L337.06 47.0016C337.082 46.6867 337.148 46.3968 337.259 46.1318C337.377 45.8586 337.532 45.6187 337.724 45.4119C337.916 45.1974 338.142 45.0319 338.402 44.9154C338.662 44.7912 338.944 44.7206 339.249 44.7036ZM345.649 50.4522C345.149 50.48 344.684 50.3765 344.256 50.1416C343.827 49.9067 343.479 49.5692 343.211 49.1293C342.943 48.6816 342.793 48.1606 342.76 47.5665C342.727 46.9724 342.819 46.4419 343.036 45.9749C343.26 45.4998 343.58 45.1213 343.996 44.8393C344.411 44.5496 344.884 44.39 345.416 44.3604C346.002 44.3277 346.463 44.4393 346.799 44.6951C347.143 44.9504 347.39 45.3052 347.541 45.7595C347.699 46.2133 347.794 46.7217 347.825 47.2845C347.843 47.5972 347.822 47.9317 347.764 48.2878C347.705 48.6439 347.598 48.9831 347.444 49.3054C347.289 49.6277 347.065 49.895 346.771 50.1074C346.477 50.312 346.103 50.427 345.649 50.4522ZM345.912 49.4613C346.326 49.4382 346.669 49.329 346.94 49.1335C347.219 48.9298 347.42 48.6676 347.543 48.3471C347.667 48.0266 347.718 47.6748 347.696 47.2917C347.673 46.8774 347.579 46.518 347.413 46.2136C347.255 45.9087 347.026 45.6783 346.728 45.5224C346.437 45.3661 346.088 45.2993 345.681 45.3219C345.071 45.3558 344.609 45.5776 344.295 45.9872C343.988 46.3963 343.852 46.9019 343.885 47.5038C343.908 47.9104 344.01 48.2654 344.192 48.569C344.373 48.8647 344.609 49.0946 344.901 49.2588C345.199 49.4147 345.536 49.4822 345.912 49.4613ZM347.533 44.3601L348.659 44.2975L348.985 50.1489L347.953 50.2063C347.953 50.2063 347.941 50.1364 347.918 49.9966C347.894 49.8489 347.868 49.6739 347.841 49.4715C347.814 49.2691 347.797 49.0897 347.788 48.9334L347.533 44.3601ZM350.114 41.864L351.24 41.8013L351.696 49.998L350.57 50.0606L350.114 41.864ZM352.965 41.7052L354.091 41.6426L354.547 49.8393L353.422 49.9019L352.965 41.7052ZM356.355 51.4325L356.104 51.1406C356.21 50.9308 356.308 50.7176 356.398 50.5009C356.487 50.2841 356.53 50.07 356.526 49.8585L355.921 49.7628L355.854 48.555L357.285 48.4754L357.333 49.3431C357.361 49.8434 357.274 50.256 357.072 50.5809C356.879 50.9132 356.64 51.197 356.355 51.4325ZM360.704 46.9911L361.783 46.9311C361.823 47.2347 361.94 47.5065 362.134 47.7467C362.335 47.9786 362.596 48.1562 362.917 48.2795C363.245 48.4024 363.62 48.4521 364.042 48.4286C364.41 48.4081 364.712 48.3403 364.949 48.2252C365.185 48.1101 365.357 47.9633 365.465 47.7848C365.58 47.598 365.631 47.3834 365.618 47.1411C365.604 46.8987 365.527 46.7109 365.386 46.5776C365.245 46.4365 365.039 46.3264 364.768 46.2474C364.496 46.1605 364.163 46.0811 363.767 46.009C363.418 45.9422 363.072 45.8595 362.729 45.7609C362.394 45.6541 362.081 45.5187 361.789 45.3545C361.506 45.19 361.271 44.9874 361.085 44.7468C360.906 44.4979 360.807 44.1937 360.787 43.8341C360.766 43.4511 360.852 43.0973 361.046 42.7729C361.239 42.4406 361.534 42.1693 361.93 41.9591C362.333 41.7406 362.828 41.615 363.414 41.5824C364.321 41.5319 365.018 41.7205 365.504 42.1483C365.999 42.5756 366.259 43.1688 366.286 43.928L365.23 43.9867C365.177 43.4565 364.988 43.0867 364.663 42.8774C364.337 42.6602 363.924 42.5656 363.424 42.5934C362.994 42.6174 362.631 42.7277 362.336 42.9245C362.041 43.1135 361.904 43.3956 361.925 43.7708C361.934 43.935 361.977 44.0776 362.054 44.1988C362.131 44.3121 362.255 44.4151 362.424 44.5076C362.594 44.6 362.819 44.6856 363.097 44.7642C363.384 44.8423 363.738 44.9246 364.158 45.011C364.475 45.0639 364.781 45.1371 365.076 45.2304C365.379 45.3233 365.653 45.4453 365.896 45.5964C366.14 45.7476 366.335 45.9484 366.483 46.199C366.638 46.4491 366.726 46.7618 366.747 47.1371C366.769 47.5358 366.691 47.9047 366.514 48.2439C366.336 48.5753 366.046 48.8503 365.642 49.0688C365.246 49.279 364.724 49.4022 364.075 49.4383C363.559 49.467 363.106 49.4256 362.715 49.314C362.333 49.202 362.007 49.0477 361.737 48.851C361.475 48.6538 361.263 48.4382 361.101 48.2041C360.947 47.9696 360.836 47.7444 360.769 47.5286C360.71 47.3123 360.689 47.1331 360.704 46.9911ZM367.74 43.2354L368.865 43.1727L369.191 49.0242L368.065 49.0868L367.74 43.2354ZM371.087 42.9315C371.415 42.9132 371.715 42.9436 371.986 43.0226C372.257 43.1016 372.491 43.2297 372.689 43.4069C372.887 43.5762 373.044 43.7949 373.161 44.0628C373.285 44.3225 373.357 44.6244 373.376 44.9684L373.588 48.7794L372.474 48.8414L372.276 45.2766C372.25 44.8154 372.118 44.4777 371.878 44.2636C371.647 44.0413 371.304 43.9427 370.85 43.968C370.499 43.9876 370.183 44.0875 369.903 44.2677C369.622 44.448 369.396 44.6802 369.224 44.9642C369.059 45.24 368.966 45.5471 368.946 45.8854L368.898 45.2411C368.92 44.9263 368.986 44.6324 369.096 44.3597C369.214 44.0865 369.366 43.8467 369.55 43.6404C369.742 43.4259 369.968 43.2604 370.228 43.1439C370.488 43.0197 370.774 42.9489 371.087 42.9315ZM375.379 42.6926C375.707 42.6743 376.007 42.7047 376.278 42.7837C376.549 42.8627 376.783 42.9908 376.981 43.168C377.179 43.3373 377.336 43.556 377.453 43.8239C377.577 44.0837 377.649 44.3855 377.668 44.7295L377.88 48.5405L376.766 48.6025L376.568 45.0377C376.542 44.5765 376.41 44.2388 376.17 44.0247C375.938 43.8024 375.596 43.7038 375.142 43.7291C374.79 43.7487 374.475 43.8486 374.194 44.0289C373.914 44.2091 373.688 44.4413 373.516 44.7253C373.351 45.0011 373.258 45.3082 373.238 45.6465L373.189 44.9905C373.211 44.6756 373.277 44.3857 373.388 44.1208C373.506 43.8476 373.661 43.6076 373.854 43.4009C374.046 43.1863 374.272 43.0208 374.532 42.9044C374.791 42.7801 375.074 42.7095 375.379 42.6926ZM381.779 48.4411C381.278 48.469 380.814 48.3655 380.385 48.1305C379.956 47.8956 379.608 47.5582 379.341 47.1183C379.073 46.6705 378.922 46.1496 378.889 45.5555C378.856 44.9613 378.948 44.4308 379.165 43.9639C379.39 43.4887 379.71 43.1102 380.125 42.8283C380.54 42.5386 381.014 42.3789 381.545 42.3493C382.132 42.3167 382.593 42.4282 382.928 42.684C383.272 42.9394 383.519 43.2942 383.67 43.7484C383.829 44.2023 383.923 44.7106 383.955 45.2735C383.972 45.5862 383.952 45.9206 383.893 46.2768C383.834 46.6329 383.728 46.9721 383.573 47.2944C383.419 47.6166 383.194 47.884 382.9 48.0964C382.606 48.301 382.232 48.4159 381.779 48.4411ZM382.041 47.4502C382.455 47.4272 382.798 47.3179 383.07 47.1224C383.348 46.9187 383.55 46.6566 383.673 46.3361C383.796 46.0155 383.847 45.6637 383.826 45.2807C383.803 44.8663 383.708 44.507 383.542 44.2025C383.384 43.8977 383.156 43.6673 382.857 43.5114C382.566 43.3551 382.217 43.2882 381.811 43.3109C381.201 43.3448 380.739 43.5666 380.424 43.9761C380.118 44.3853 379.981 44.8908 380.015 45.4928C380.037 45.8993 380.139 46.2543 380.321 46.5579C380.502 46.8537 380.738 47.0836 381.03 47.2477C381.329 47.4036 381.666 47.4711 382.041 47.4502ZM383.663 42.3491L384.788 42.2864L385.114 48.1379L384.082 48.1953C384.082 48.1953 384.07 48.1254 384.047 47.9855C384.023 47.8379 383.998 47.6628 383.971 47.4605C383.944 47.2581 383.926 47.0787 383.917 46.9224L383.663 42.3491ZM386.243 39.8529L387.369 39.7903L387.825 47.9869L386.7 48.0496L386.243 39.8529ZM389.095 39.6942L390.22 39.6315L390.677 47.8282L389.551 47.8909L389.095 39.6942Z" fill="#FF823B"/>
<path d="M301.635 63.3733L301.611 62.9335L302.807 62.867C303.041 62.8539 303.227 62.7711 303.363 62.6184C303.504 62.4616 303.567 62.2659 303.554 62.0314C303.541 61.789 303.456 61.6016 303.299 61.4692C303.147 61.3326 302.953 61.2709 302.718 61.2839L301.616 61.3453L301.804 64.7166L301.335 64.7427L301.123 60.9316L302.694 60.8442C302.87 60.8344 303.036 60.8526 303.191 60.8989C303.347 60.9451 303.484 61.0178 303.603 61.117C303.726 61.2161 303.823 61.34 303.894 61.489C303.969 61.6377 304.012 61.8098 304.023 62.0053C304.034 62.2007 304.01 62.3765 303.952 62.5326C303.898 62.6886 303.816 62.8226 303.704 62.9346C303.597 63.0465 303.468 63.134 303.319 63.1972C303.17 63.2604 303.007 63.2969 302.831 63.3067L301.635 63.3733ZM305.811 64.5523C305.581 64.5652 305.364 64.5125 305.161 64.3944C304.962 64.2722 304.798 64.101 304.668 63.8808C304.542 63.6565 304.471 63.3978 304.454 63.1046C304.438 62.8114 304.482 62.5463 304.586 62.3092C304.691 62.072 304.839 61.8814 305.031 61.7374C305.227 61.5932 305.45 61.5142 305.7 61.5002C305.974 61.485 306.185 61.5438 306.333 61.6767C306.486 61.8055 306.594 61.9838 306.657 62.2115C306.725 62.4391 306.766 62.6936 306.782 62.975C306.79 63.1236 306.784 63.2867 306.762 63.4643C306.74 63.638 306.695 63.8072 306.626 63.9718C306.56 64.1323 306.462 64.2672 306.331 64.3764C306.199 64.4817 306.026 64.5404 305.811 64.5523ZM305.904 64.1002C306.103 64.0891 306.264 64.0311 306.388 63.9262C306.515 63.8211 306.606 63.6867 306.66 63.5229C306.713 63.3553 306.734 63.1737 306.723 62.9783C306.711 62.7633 306.668 62.5776 306.592 62.421C306.521 62.2603 306.416 62.1387 306.278 62.0562C306.144 61.9696 305.979 61.9317 305.784 61.9426C305.49 61.9589 305.269 62.0751 305.121 62.2912C304.972 62.5034 304.906 62.7658 304.923 63.0785C304.935 63.2857 304.984 63.4692 305.072 63.629C305.163 63.7847 305.279 63.9056 305.421 63.9918C305.567 64.0739 305.728 64.11 305.904 64.1002ZM306.641 61.5067L307.111 61.4805L307.274 64.4121L306.846 64.4359C306.846 64.4359 306.84 64.401 306.828 64.3311C306.82 64.2609 306.81 64.1792 306.797 64.0858C306.784 63.9924 306.775 63.9145 306.772 63.8519L306.641 61.5067ZM307.611 61.4527L308.115 61.4246L309.321 64.1805L308.917 64.3206L307.611 61.4527ZM310.337 61.3009L308.93 65.4962L308.42 65.5246L309.041 63.9021L309.839 61.3287L310.337 61.3009ZM312.036 63.2002L312.47 63.176C312.491 63.3434 312.561 63.4768 312.68 63.576C312.803 63.675 312.974 63.7184 313.193 63.7062C313.326 63.6988 313.429 63.6755 313.501 63.6362C313.577 63.5966 313.631 63.5466 313.663 63.486C313.695 63.4215 313.709 63.3521 313.705 63.2778C313.7 63.1879 313.672 63.1189 313.622 63.0707C313.576 63.0183 313.513 62.9768 313.433 62.9459C313.357 62.9149 313.269 62.8865 313.17 62.8606C313.054 62.8239 312.934 62.7855 312.81 62.7454C312.69 62.7011 312.576 62.6486 312.466 62.5881C312.361 62.5234 312.274 62.4439 312.206 62.3497C312.138 62.2515 312.1 62.1321 312.092 61.9914C312.086 61.8741 312.103 61.7633 312.144 61.6591C312.185 61.551 312.247 61.4574 312.328 61.3783C312.414 61.2951 312.514 61.2288 312.629 61.1793C312.748 61.1295 312.88 61.1006 313.024 61.0926C313.22 61.0817 313.386 61.1116 313.523 61.1824C313.664 61.253 313.774 61.3586 313.853 61.4993C313.935 61.6359 313.983 61.7979 313.997 61.9853L313.593 62.0078C313.556 61.8334 313.492 61.7096 313.401 61.6362C313.315 61.5587 313.193 61.5242 313.037 61.533C312.877 61.5419 312.756 61.5839 312.673 61.659C312.591 61.7342 312.554 61.8304 312.56 61.9477C312.565 62.0337 312.6 62.1042 312.666 62.1594C312.732 62.2106 312.815 62.257 312.915 62.2984C313.019 62.3358 313.129 62.3747 313.245 62.4153C313.361 62.4559 313.473 62.4967 313.581 62.5378C313.689 62.5788 313.786 62.6283 313.872 62.6863C313.957 62.7443 314.026 62.8188 314.078 62.91C314.134 62.9971 314.166 63.1091 314.173 63.2459C314.182 63.41 314.152 63.5588 314.081 63.6921C314.013 63.8213 313.907 63.9253 313.763 64.0039C313.622 64.0823 313.446 64.1274 313.235 64.1391C313.043 64.1498 312.878 64.1355 312.739 64.0962C312.603 64.0528 312.488 63.9945 312.394 63.9213C312.299 63.8442 312.224 63.7621 312.168 63.6751C312.116 63.5878 312.08 63.5016 312.06 63.4164C312.039 63.3313 312.031 63.2592 312.036 63.2002ZM314.654 61.0607L315.123 61.0346L315.286 63.9661L314.817 63.9922L314.654 61.0607ZM316.128 60.9198C316.285 60.9111 316.427 60.9267 316.554 60.9666C316.682 61.0066 316.791 61.0691 316.882 61.1542C316.973 61.2394 317.046 61.3451 317.1 61.4715C317.154 61.5939 317.185 61.7353 317.194 61.8956L317.303 63.8539L316.834 63.88L316.732 62.0389C316.719 61.8122 316.657 61.6451 316.545 61.5377C316.433 61.4302 316.272 61.3823 316.061 61.3941C315.9 61.403 315.754 61.4523 315.622 61.542C315.49 61.6317 315.382 61.7514 315.301 61.901C315.222 62.0465 315.179 62.2136 315.17 62.4023L315.145 62.0626C315.155 61.8973 315.186 61.7466 315.237 61.6104C315.293 61.4741 315.362 61.3565 315.447 61.2576C315.536 61.1547 315.637 61.0746 315.751 61.0172C315.87 60.9597 315.995 60.9272 316.128 60.9198ZM318.098 60.8101C318.255 60.8014 318.397 60.817 318.524 60.857C318.652 60.8969 318.761 60.9595 318.852 61.0446C318.943 61.1297 319.016 61.2354 319.07 61.3618C319.124 61.4843 319.155 61.6257 319.164 61.7859L319.273 63.7442L318.804 63.7703L318.702 61.9293C318.689 61.7026 318.627 61.5355 318.515 61.428C318.403 61.3205 318.242 61.2727 318.031 61.2844C317.87 61.2933 317.724 61.3426 317.592 61.4323C317.46 61.522 317.352 61.6417 317.271 61.7913C317.192 61.9368 317.149 62.1039 317.14 62.2926L317.115 61.9529C317.125 61.7877 317.156 61.6369 317.207 61.5008C317.263 61.3644 317.332 61.2468 317.417 61.148C317.506 61.045 317.607 60.9649 317.721 60.9076C317.84 60.85 317.965 60.8175 318.098 60.8101ZM321.145 63.6988C320.914 63.7117 320.697 63.659 320.495 63.5409C320.296 63.4187 320.131 63.2475 320.002 63.0273C319.875 62.803 319.804 62.5443 319.788 62.2511C319.772 61.958 319.816 61.6928 319.92 61.4557C320.024 61.2185 320.173 61.0279 320.365 60.8839C320.56 60.7397 320.783 60.6607 321.034 60.6467C321.307 60.6315 321.518 60.6903 321.667 60.8232C321.819 60.952 321.927 61.1303 321.991 61.358C322.058 61.5856 322.1 61.8401 322.116 62.1215C322.124 62.2701 322.117 62.4332 322.096 62.6108C322.074 62.7845 322.029 62.9537 321.959 63.1183C321.894 63.2788 321.795 63.4137 321.664 63.5229C321.533 63.6282 321.36 63.6869 321.145 63.6988ZM321.237 63.2467C321.436 63.2356 321.598 63.1776 321.721 63.0727C321.849 62.9676 321.939 62.8332 321.993 62.6694C322.047 62.5018 322.068 62.3202 322.057 62.1248C322.045 61.9098 322.001 61.7241 321.926 61.5675C321.854 61.4068 321.749 61.2852 321.612 61.2027C321.477 61.1161 321.312 61.0782 321.117 61.0891C320.824 61.1054 320.603 61.2216 320.454 61.4377C320.305 61.6499 320.239 61.9123 320.257 62.225C320.268 62.4322 320.318 62.6157 320.405 62.7755C320.496 62.9312 320.613 63.0521 320.755 63.1383C320.9 63.2204 321.061 63.2565 321.237 63.2467ZM321.975 60.6532L322.444 60.627L322.607 63.5586L322.179 63.5824C322.179 63.5824 322.173 63.5475 322.162 63.4776C322.154 63.4074 322.143 63.3257 322.13 63.2323C322.117 63.1389 322.109 63.061 322.106 62.9984L321.975 60.6532ZM323.202 59.4086L323.671 59.3825L323.899 63.4867L323.43 63.5128L323.202 59.4086ZM324.553 59.3334L325.022 59.3073L325.25 63.4115L324.781 63.4376L324.553 59.3334ZM328.416 63.2941C328.186 63.3069 327.969 63.2543 327.767 63.1362C327.568 63.0139 327.403 62.8427 327.273 62.6225C327.147 62.3982 327.076 62.1395 327.06 61.8463C327.043 61.5532 327.087 61.288 327.192 61.0509C327.296 60.8138 327.444 60.6232 327.636 60.4792C327.832 60.335 328.055 60.2559 328.305 60.242C328.579 60.2268 328.79 60.2856 328.939 60.4185C329.091 60.5472 329.199 60.7255 329.262 60.9533C329.33 61.1809 329.372 61.4354 329.387 61.7168C329.395 61.8653 329.389 62.0284 329.367 62.206C329.346 62.3798 329.3 62.5489 329.231 62.7135C329.165 62.874 329.067 63.0089 328.936 63.1181C328.805 63.2235 328.631 63.2821 328.416 63.2941ZM328.509 62.842C328.708 62.8309 328.87 62.7729 328.993 62.668C329.121 62.5629 329.211 62.4284 329.265 62.2647C329.318 62.097 329.339 61.9155 329.329 61.72C329.317 61.5051 329.273 61.3193 329.198 61.1627C329.126 61.002 329.021 60.8805 328.883 60.7979C328.749 60.7113 328.584 60.6734 328.389 60.6843C328.096 60.7006 327.875 60.8168 327.726 61.0329C327.577 61.2451 327.511 61.5075 327.529 61.8202C327.54 62.0274 327.59 62.2109 327.677 62.3707C327.768 62.5264 327.884 62.6473 328.026 62.7335C328.172 62.8156 328.333 62.8518 328.509 62.842ZM329.247 60.2484L329.716 60.2223L329.879 63.1539L329.451 63.1777C329.451 63.1777 329.445 63.1427 329.433 63.0728C329.425 63.0027 329.415 62.9209 329.402 62.8275C329.389 62.7342 329.381 62.6562 329.377 62.5937L329.247 60.2484ZM330.275 60.1912L331.998 60.0952L332.023 60.535L330.299 60.6309L330.275 60.1912ZM330.86 59.394L331.329 59.3679L331.534 63.0617L331.065 63.0878L330.86 59.394ZM333.52 60.0105L334.024 59.9825L335.23 62.7384L334.826 62.8785L333.52 60.0105ZM336.246 59.8588L334.839 64.0541L334.329 64.0824L334.95 62.4599L335.748 59.8865L336.246 59.8588ZM338.097 62.7553C337.847 62.7692 337.609 62.7216 337.383 62.6127C337.157 62.5037 336.97 62.3396 336.82 62.1205C336.675 61.8973 336.593 61.6294 336.576 61.3167C336.558 61.004 336.61 60.7306 336.73 60.4964C336.854 60.2582 337.022 60.0705 337.234 59.9332C337.446 59.7959 337.677 59.7203 337.927 59.7064C338.177 59.6925 338.413 59.7421 338.635 59.8552C338.861 59.9681 339.047 60.1362 339.193 60.3594C339.338 60.5787 339.42 60.8447 339.437 61.1574C339.454 61.4701 339.403 61.7455 339.283 61.9835C339.163 62.2176 338.996 62.4013 338.784 62.5347C338.576 62.6678 338.347 62.7413 338.097 62.7553ZM338.072 62.3155C338.236 62.3064 338.389 62.2567 338.529 62.1666C338.669 62.0765 338.779 61.9488 338.86 61.7835C338.945 61.6141 338.981 61.4141 338.968 61.1835C338.955 60.9529 338.897 60.7601 338.795 60.605C338.695 60.4459 338.571 60.3273 338.422 60.2494C338.272 60.1714 338.116 60.137 337.951 60.1462C337.787 60.1553 337.633 60.207 337.49 60.3013C337.35 60.3914 337.237 60.5211 337.153 60.6905C337.068 60.856 337.032 61.056 337.045 61.2905C337.058 61.5212 337.114 61.7161 337.213 61.8752C337.315 62.0303 337.443 62.1447 337.596 62.2185C337.749 62.2923 337.908 62.3247 338.072 62.3155ZM342.599 62.4458L342.13 62.4719L341.967 59.5403L342.436 59.5142L342.599 62.4458ZM342.084 61.1042L342.099 61.268C342.097 61.3151 342.09 61.3881 342.076 61.4869C342.065 61.5855 342.042 61.6966 342.006 61.8201C341.973 61.9396 341.921 62.0562 341.849 62.17C341.781 62.2836 341.688 62.3789 341.571 62.456C341.457 62.5329 341.313 62.5762 341.137 62.586C341.024 62.5923 340.905 62.5813 340.782 62.5528C340.663 62.5281 340.551 62.4814 340.445 62.4128C340.339 62.3403 340.251 62.2374 340.181 62.1041C340.111 61.9707 340.07 61.8024 340.059 61.5992L339.95 59.6526L340.419 59.6265L340.521 61.4558C340.531 61.6317 340.566 61.7689 340.626 61.8675C340.69 61.962 340.773 62.028 340.873 62.0655C340.973 62.1031 341.083 62.1185 341.205 62.1118C341.404 62.1007 341.567 62.0406 341.694 61.9316C341.822 61.8226 341.916 61.6918 341.978 61.5394C342.041 61.3869 342.076 61.2419 342.084 61.1042ZM343.197 59.4719L343.666 59.4458L343.829 62.3774L343.36 62.4035L343.197 59.4719ZM344.628 59.8333C344.429 59.8444 344.264 59.9046 344.133 60.0138C344.005 60.1189 343.906 60.246 343.836 60.395C343.77 60.5398 343.729 60.6793 343.713 60.8135L343.688 60.4738C343.686 60.4386 343.69 60.3796 343.701 60.2966C343.712 60.2137 343.737 60.1202 343.774 60.0161C343.811 59.9082 343.862 59.8054 343.927 59.7077C343.996 59.6058 344.086 59.5205 344.195 59.4516C344.305 59.3828 344.44 59.3439 344.601 59.3349L344.628 59.8333ZM347.995 62.2043C347.78 62.2162 347.602 62.1772 347.459 62.0871C347.317 61.9931 347.202 61.8701 347.115 61.7181C347.032 61.5619 346.97 61.3987 346.929 61.2285C346.888 61.0543 346.864 60.893 346.855 60.7445C346.844 60.5334 346.846 60.3352 346.864 60.15C346.885 59.9645 346.928 59.7994 346.995 59.6545C347.061 59.5097 347.161 59.3944 347.293 59.3086C347.429 59.2187 347.607 59.1676 347.826 59.1554C348.06 59.1424 348.277 59.197 348.476 59.3192C348.675 59.4414 348.837 59.6147 348.963 59.839C349.094 60.0631 349.167 60.3217 349.183 60.6149C349.199 60.9081 349.155 61.1732 349.051 61.4104C348.946 61.6436 348.8 61.8321 348.612 61.9759C348.428 62.1155 348.222 62.1917 347.995 62.2043ZM347.853 61.7652C348.033 61.7552 348.189 61.7014 348.321 61.6039C348.456 61.5023 348.559 61.3691 348.628 61.2045C348.697 61.036 348.726 60.8482 348.714 60.641C348.697 60.3283 348.602 60.0748 348.431 59.8805C348.259 59.6822 348.026 59.5912 347.733 59.6076C347.561 59.6171 347.411 59.6725 347.284 59.7737C347.156 59.871 347.059 60.0038 346.994 60.1721C346.929 60.3365 346.902 60.5262 346.914 60.7412C346.925 60.9366 346.966 61.1147 347.038 61.2754C347.113 61.432 347.218 61.5555 347.353 61.646C347.487 61.7366 347.654 61.7763 347.853 61.7652ZM346.363 59.2957L346.815 59.2705L346.866 59.8852L347.061 63.3738L346.592 63.3999L346.363 59.2957ZM350.976 62.0384C350.745 62.0512 350.529 61.9986 350.326 61.8805C350.127 61.7582 349.963 61.587 349.833 61.3668C349.707 61.1425 349.635 60.8838 349.619 60.5906C349.603 60.2975 349.647 60.0323 349.751 59.7952C349.856 59.558 350.004 59.3675 350.196 59.2235C350.392 59.0793 350.615 59.0002 350.865 58.9863C351.138 58.971 351.349 59.0299 351.498 59.1628C351.65 59.2915 351.758 59.4698 351.822 59.6976C351.889 59.9251 351.931 60.1796 351.947 60.4611C351.955 60.6096 351.948 60.7727 351.927 60.9503C351.905 61.1241 351.86 61.2932 351.79 61.4578C351.725 61.6183 351.626 61.7532 351.495 61.8624C351.364 61.9678 351.191 62.0264 350.976 62.0384ZM351.068 61.5863C351.268 61.5752 351.429 61.5172 351.553 61.4123C351.68 61.3071 351.771 61.1727 351.824 61.009C351.878 60.8413 351.899 60.6598 351.888 60.4643C351.876 60.2494 351.832 60.0636 351.757 59.907C351.685 59.7463 351.581 59.6247 351.443 59.5422C351.308 59.4556 351.144 59.4177 350.948 59.4286C350.655 59.4449 350.434 59.5611 350.285 59.7772C350.136 59.9894 350.071 60.2518 350.088 60.5645C350.1 60.7717 350.149 60.9552 350.236 61.115C350.327 61.2707 350.444 61.3916 350.586 61.4778C350.732 61.5599 350.892 61.596 351.068 61.5863ZM351.806 58.9927L352.275 58.9666L352.438 61.8982L352.01 61.922C352.01 61.922 352.004 61.887 351.993 61.8171C351.985 61.747 351.974 61.6652 351.961 61.5718C351.948 61.4784 351.94 61.4005 351.937 61.338L351.806 58.9927ZM355.744 60.6084C355.73 60.8523 355.664 61.0658 355.545 61.2489C355.429 61.4278 355.278 61.5695 355.092 61.674C354.906 61.7746 354.701 61.831 354.478 61.8434C354.228 61.8574 353.99 61.8098 353.764 61.7008C353.539 61.5919 353.351 61.4278 353.202 61.2087C353.056 60.9855 352.974 60.7175 352.957 60.4048C352.94 60.0921 352.991 59.8187 353.111 59.5846C353.235 59.3464 353.403 59.1586 353.615 59.0214C353.827 58.8841 354.058 58.8085 354.308 58.7946C354.531 58.7822 354.739 58.8177 354.932 58.901C355.129 58.9842 355.294 59.1083 355.429 59.2733C355.567 59.4381 355.659 59.6389 355.704 59.8756L355.276 59.8994C355.197 59.6803 355.072 59.5128 354.901 59.3968C354.729 59.277 354.54 59.2228 354.333 59.2343C354.165 59.2437 354.009 59.2955 353.865 59.3898C353.721 59.484 353.609 59.6157 353.528 59.7849C353.447 59.9502 353.413 60.1481 353.426 60.3787C353.439 60.6054 353.495 60.7984 353.594 60.9575C353.692 61.1128 353.817 61.2294 353.966 61.3073C354.119 61.3811 354.282 61.4133 354.454 61.4037C354.692 61.3904 354.882 61.3171 355.024 61.1838C355.169 61.0463 355.268 60.8624 355.322 60.6319L355.744 60.6084ZM358.426 60.618L358.866 60.5935C358.845 60.7868 358.785 60.9627 358.684 61.1212C358.586 61.2756 358.452 61.4027 358.281 61.5023C358.114 61.5979 357.917 61.652 357.69 61.6646C357.417 61.6799 357.167 61.6291 356.941 61.5123C356.715 61.3915 356.531 61.2214 356.389 61.0019C356.251 60.7782 356.174 60.5198 356.158 60.2267C356.141 59.9335 356.187 59.6683 356.296 59.4309C356.408 59.1933 356.568 59.0021 356.775 58.8572C356.983 58.7124 357.222 58.6324 357.491 58.6174C357.777 58.6015 358.021 58.6526 358.223 58.7708C358.43 58.8847 358.587 59.0623 358.694 59.3033C358.805 59.5402 358.861 59.837 358.861 60.1938L356.633 60.3178C356.664 60.5083 356.726 60.6734 356.82 60.8133C356.914 60.9531 357.033 61.0601 357.179 61.1344C357.324 61.2047 357.486 61.2349 357.666 61.2249C357.865 61.2138 358.031 61.1536 358.162 61.0444C358.297 60.931 358.385 60.7889 358.426 60.618ZM357.533 59.0562C357.291 59.0697 357.092 59.1513 356.935 59.3012C356.779 59.451 356.68 59.6487 356.639 59.8941L358.357 59.7984C358.327 59.5413 358.232 59.3506 358.072 59.2261C357.916 59.1015 357.737 59.0449 357.533 59.0562Z" fill="#FF823B"/>
<g filter="url(#filter1_d_7448_71779)">
<rect x="275.876" y="105.093" width="219.164" height="48.3741" rx="2.96168" transform="rotate(-4.59565 275.876 105.093)" fill="white"/>
</g>
<path d="M322.847 123.589L322.363 123.628L325.565 116.299L326.699 116.208L327.315 123.872L326.181 123.963L325.709 118.082L325.961 118.121L323.253 124.198L322.06 124.294L318.416 118.739L318.66 118.66L319.131 124.529L317.998 124.62L317.382 116.957L318.515 116.866L322.847 123.589ZM331.851 123.638C331.276 123.684 330.739 123.604 330.239 123.399C329.739 123.193 329.33 122.874 329.009 122.44C328.689 122.006 328.504 121.47 328.452 120.833C328.4 120.187 328.498 119.625 328.745 119.145C328.991 118.658 329.344 118.273 329.805 117.99C330.265 117.708 330.783 117.543 331.358 117.497C331.932 117.451 332.466 117.531 332.957 117.737C333.449 117.943 333.856 118.267 334.177 118.709C334.497 119.142 334.683 119.682 334.735 120.328C334.786 120.965 334.688 121.524 334.441 122.003C334.195 122.483 333.845 122.863 333.392 123.145C332.94 123.427 332.426 123.591 331.851 123.638ZM331.772 122.658C332.127 122.629 332.447 122.524 332.733 122.343C333.027 122.153 333.252 121.897 333.409 121.575C333.572 121.245 333.636 120.86 333.601 120.419C333.565 119.97 333.44 119.596 333.225 119.296C333.019 118.996 332.756 118.775 332.435 118.635C332.123 118.493 331.79 118.437 331.435 118.465C331.081 118.494 330.757 118.603 330.463 118.793C330.169 118.975 329.94 119.231 329.776 119.562C329.613 119.892 329.549 120.285 329.586 120.742C329.621 121.182 329.742 121.553 329.949 121.853C330.162 122.145 330.429 122.361 330.75 122.502C331.069 122.635 331.41 122.687 331.772 122.658ZM335.682 117.268L336.816 117.177L337.29 123.07L336.156 123.161L335.682 117.268ZM339.05 116.879C339.381 116.852 339.684 116.875 339.959 116.948C340.234 117.021 340.474 117.145 340.678 117.318C340.882 117.484 341.046 117.701 341.17 117.968C341.302 118.227 341.382 118.53 341.409 118.876L341.718 122.714L340.596 122.804L340.308 119.214C340.27 118.75 340.128 118.412 339.882 118.203C339.642 117.984 339.294 117.893 338.838 117.93C338.483 117.958 338.167 118.067 337.889 118.256C337.611 118.444 337.389 118.684 337.222 118.975C337.062 119.257 336.977 119.569 336.964 119.911L336.9 119.262C336.915 118.944 336.974 118.646 337.078 118.368C337.191 118.09 337.337 117.845 337.518 117.632C337.706 117.411 337.93 117.238 338.19 117.114C338.448 116.983 338.735 116.904 339.05 116.879ZM342.315 116.735L346.129 116.429L346.208 117.409L342.394 117.715L342.315 116.735ZM343.536 115.068L344.658 114.978L345.257 122.429L344.135 122.52L343.536 115.068ZM352.246 121.868L351.961 118.313C351.935 117.998 351.863 117.743 351.744 117.546C351.626 117.35 351.46 117.208 351.247 117.123C351.033 117.029 350.769 116.995 350.454 117.02C350.108 117.048 349.796 117.156 349.518 117.345C349.247 117.525 349.032 117.76 348.873 118.05C348.714 118.332 348.628 118.644 348.616 118.986L348.55 118.314C348.564 118.004 348.624 117.71 348.728 117.432C348.841 117.154 348.987 116.908 349.168 116.695C349.357 116.482 349.581 116.31 349.84 116.178C350.099 116.046 350.386 115.968 350.7 115.942C351.031 115.916 351.334 115.939 351.609 116.012C351.884 116.077 352.123 116.196 352.327 116.37C352.539 116.535 352.706 116.748 352.83 117.007C352.953 117.259 353.029 117.554 353.056 117.892L353.368 121.777L352.246 121.868ZM347.818 122.223L347.155 113.969L348.276 113.879L348.94 122.133L347.818 122.223ZM354.315 113.394L355.449 113.303L356.112 121.557L354.979 121.648L354.315 113.394ZM356.727 115.577L357.932 115.48L360.642 120.955L359.681 121.27L356.727 115.577ZM362.738 115.094L359.87 123.632L358.678 123.728L359.944 120.405L361.545 115.19L362.738 115.094Z" fill="#FF823B"/>
<path d="M318.666 134.03L318.63 133.587L319.835 133.49C320.071 133.471 320.256 133.383 320.39 133.226C320.528 133.064 320.587 132.865 320.568 132.629C320.548 132.385 320.458 132.198 320.297 132.068C320.14 131.935 319.943 131.877 319.707 131.896L318.597 131.985L318.87 135.38L318.397 135.418L318.089 131.58L319.671 131.453C319.848 131.439 320.016 131.453 320.174 131.496C320.332 131.539 320.472 131.609 320.595 131.706C320.721 131.803 320.822 131.925 320.898 132.074C320.977 132.222 321.024 132.394 321.04 132.591C321.056 132.788 321.037 132.966 320.982 133.125C320.931 133.283 320.851 133.42 320.742 133.536C320.636 133.652 320.509 133.743 320.36 133.811C320.211 133.878 320.048 133.919 319.87 133.933L318.666 134.03ZM322.907 135.115C322.674 135.134 322.455 135.086 322.247 134.972C322.044 134.854 321.874 134.685 321.737 134.466C321.604 134.243 321.526 133.984 321.502 133.689C321.479 133.394 321.516 133.125 321.616 132.884C321.715 132.642 321.86 132.446 322.05 132.296C322.244 132.146 322.467 132.06 322.719 132.04C322.994 132.018 323.209 132.072 323.362 132.202C323.518 132.329 323.632 132.506 323.702 132.734C323.775 132.962 323.824 133.217 323.846 133.501C323.858 133.65 323.856 133.815 323.839 133.994C323.821 134.17 323.779 134.342 323.714 134.51C323.651 134.673 323.556 134.811 323.426 134.925C323.296 135.034 323.123 135.098 322.907 135.115ZM322.989 134.657C323.189 134.641 323.351 134.578 323.473 134.469C323.599 134.36 323.687 134.223 323.737 134.056C323.786 133.886 323.803 133.702 323.787 133.505C323.77 133.289 323.721 133.103 323.641 132.947C323.565 132.786 323.456 132.666 323.315 132.586C323.178 132.502 323.011 132.468 322.814 132.484C322.519 132.508 322.299 132.631 322.154 132.852C322.009 133.07 321.949 133.336 321.975 133.651C321.991 133.86 322.046 134.043 322.138 134.202C322.234 134.357 322.354 134.476 322.499 134.56C322.648 134.639 322.811 134.671 322.989 134.657ZM323.668 132.023L324.141 131.985L324.378 134.937L323.947 134.972C323.947 134.972 323.94 134.937 323.926 134.867C323.917 134.796 323.904 134.714 323.889 134.62C323.873 134.526 323.863 134.448 323.858 134.385L323.668 132.023ZM324.644 131.945L325.152 131.904L326.437 134.653L326.033 134.804L324.644 131.945ZM327.39 131.724L326.075 135.99L325.561 136.031L326.147 134.379L326.888 131.764L327.39 131.724ZM329.698 134.569C329.481 134.587 329.3 134.552 329.155 134.464C329.009 134.373 328.89 134.252 328.798 134.101C328.711 133.945 328.644 133.782 328.599 133.612C328.553 133.437 328.524 133.275 328.512 133.126C328.495 132.913 328.493 132.713 328.505 132.526C328.522 132.338 328.562 132.171 328.625 132.023C328.689 131.875 328.786 131.757 328.918 131.667C329.053 131.573 329.231 131.517 329.451 131.499C329.699 131.479 329.925 131.528 330.128 131.647C330.332 131.765 330.498 131.936 330.627 132.159C330.756 132.383 330.832 132.642 330.856 132.937C330.88 133.232 330.844 133.501 330.748 133.742C330.653 133.98 330.514 134.173 330.332 134.322C330.149 134.468 329.938 134.55 329.698 134.569ZM329.544 134.13C329.725 134.116 329.88 134.057 330.011 133.956C330.141 133.85 330.239 133.714 330.305 133.546C330.374 133.374 330.4 133.184 330.384 132.975C330.358 132.66 330.257 132.407 330.079 132.215C329.901 132.02 329.664 131.934 329.369 131.957C329.172 131.973 329.011 132.034 328.884 132.139C328.762 132.24 328.674 132.376 328.62 132.546C328.57 132.713 328.554 132.904 328.571 133.121C328.587 133.318 328.633 133.496 328.709 133.656C328.789 133.812 328.898 133.934 329.036 134.022C329.174 134.11 329.343 134.146 329.544 134.13ZM328.357 130.458L328.642 134.001C328.648 134.071 328.649 134.166 328.647 134.285C328.649 134.404 328.649 134.507 328.648 134.594L328.217 134.629L327.885 130.496L328.357 130.458ZM332.697 134.328C332.465 134.347 332.245 134.299 332.038 134.185C331.834 134.067 331.664 133.898 331.528 133.679C331.395 133.456 331.317 133.197 331.293 132.902C331.269 132.607 331.307 132.338 331.406 132.097C331.506 131.855 331.651 131.659 331.841 131.509C332.034 131.359 332.257 131.273 332.509 131.253C332.785 131.231 332.999 131.285 333.152 131.415C333.309 131.542 333.422 131.719 333.492 131.947C333.566 132.175 333.614 132.43 333.637 132.714C333.649 132.863 333.646 133.028 333.629 133.207C333.612 133.383 333.57 133.555 333.504 133.723C333.442 133.886 333.346 134.024 333.217 134.138C333.087 134.247 332.914 134.311 332.697 134.328ZM332.779 133.87C332.98 133.854 333.141 133.791 333.263 133.683C333.389 133.573 333.477 133.436 333.527 133.269C333.577 133.099 333.594 132.915 333.578 132.718C333.56 132.502 333.512 132.316 333.432 132.16C333.356 131.999 333.247 131.879 333.106 131.8C332.968 131.715 332.801 131.681 332.604 131.697C332.309 131.721 332.089 131.844 331.945 132.065C331.8 132.283 331.74 132.549 331.765 132.864C331.782 133.073 331.836 133.256 331.928 133.415C332.024 133.57 332.145 133.689 332.29 133.773C332.439 133.852 332.602 133.884 332.779 133.87ZM333.459 131.236L333.931 131.198L334.168 134.151L333.737 134.185C333.737 134.185 333.731 134.15 333.717 134.08C333.707 134.009 333.695 133.927 333.679 133.833C333.664 133.739 333.654 133.661 333.649 133.598L333.459 131.236ZM337.47 132.768C337.462 133.014 337.4 133.231 337.285 133.419C337.173 133.602 337.024 133.749 336.839 133.859C336.653 133.965 336.448 134.027 336.224 134.045C335.972 134.065 335.731 134.023 335.501 133.919C335.27 133.814 335.077 133.654 334.921 133.436C334.769 133.215 334.68 132.947 334.654 132.632C334.629 132.317 334.674 132.04 334.79 131.801C334.909 131.558 335.073 131.364 335.284 131.22C335.494 131.077 335.725 130.995 335.977 130.974C336.201 130.956 336.412 130.987 336.608 131.066C336.809 131.145 336.979 131.266 337.119 131.429C337.263 131.592 337.36 131.792 337.411 132.03L336.98 132.065C336.895 131.846 336.765 131.68 336.589 131.567C336.414 131.45 336.221 131.401 336.013 131.417C335.843 131.431 335.688 131.487 335.545 131.586C335.402 131.684 335.292 131.82 335.215 131.992C335.138 132.161 335.108 132.362 335.127 132.594C335.145 132.822 335.206 133.015 335.31 133.173C335.414 133.327 335.542 133.442 335.694 133.517C335.85 133.587 336.015 133.616 336.188 133.602C336.428 133.583 336.618 133.504 336.758 133.366C336.901 133.224 336.997 133.036 337.045 132.802L337.47 132.768ZM337.9 129.691L338.372 129.653L338.704 133.786L338.232 133.824L337.9 129.691ZM340.439 130.675L339.08 132.252L339.067 131.944L340.777 133.619L340.174 133.668L338.584 132.138L339.766 130.729L340.439 130.675ZM342.709 129.304L342.755 129.877L342.141 129.926L342.095 129.354L342.709 129.304ZM342.261 130.529L342.733 130.491L342.97 133.443L342.498 133.481L342.261 130.529ZM343.54 130.426L344.012 130.388L344.249 133.34L343.777 133.378L343.54 130.426ZM345.023 130.247C345.18 130.235 345.324 130.247 345.454 130.284C345.584 130.321 345.695 130.381 345.789 130.465C345.883 130.549 345.959 130.653 346.017 130.78C346.074 130.902 346.109 131.043 346.122 131.205L346.281 133.177L345.808 133.215L345.659 131.361C345.641 131.133 345.574 130.966 345.458 130.86C345.343 130.754 345.179 130.71 344.966 130.727C344.805 130.74 344.659 130.794 344.528 130.887C344.397 130.981 344.292 131.104 344.213 131.257C344.138 131.406 344.098 131.576 344.093 131.766L344.06 131.424C344.066 131.257 344.094 131.104 344.142 130.966C344.194 130.827 344.262 130.707 344.345 130.605C344.431 130.499 344.531 130.416 344.645 130.355C344.763 130.294 344.889 130.258 345.023 130.247ZM350.024 129.875L350.333 133.713L349.86 133.751L349.599 130.498L349.714 130.524L348.554 132.727L348.439 132.558L349.851 132.444L349.886 132.887L348.168 133.025L348.132 132.582L349.552 129.913L350.024 129.875ZM350.17 132.864L350.134 132.421L350.772 132.37L350.807 132.813L350.17 132.864ZM352.364 130.733C352.163 130.749 351.976 130.732 351.801 130.683C351.631 130.633 351.491 130.546 351.382 130.42C351.273 130.29 351.209 130.119 351.192 129.906C351.176 129.709 351.208 129.53 351.286 129.37C351.364 129.205 351.482 129.071 351.64 128.967C351.797 128.859 351.986 128.796 352.207 128.779C352.431 128.76 352.628 128.792 352.797 128.874C352.969 128.951 353.107 129.065 353.211 129.215C353.313 129.361 353.373 129.533 353.389 129.729C353.406 129.942 353.371 130.121 353.283 130.267C353.196 130.409 353.072 130.518 352.911 130.594C352.751 130.67 352.569 130.716 352.364 130.733ZM352.34 130.438C352.47 130.427 352.578 130.391 352.664 130.328C352.754 130.266 352.821 130.187 352.865 130.092C352.909 129.994 352.926 129.885 352.916 129.767C352.907 129.649 352.873 129.547 352.814 129.461C352.756 129.374 352.678 129.311 352.579 129.272C352.485 129.228 352.372 129.211 352.242 129.221C352.116 129.231 352.008 129.266 351.918 129.325C351.827 129.38 351.76 129.454 351.716 129.549C351.672 129.644 351.655 129.75 351.665 129.868C351.674 129.986 351.708 130.09 351.767 130.181C351.825 130.267 351.904 130.334 352.003 130.382C352.102 130.429 352.214 130.448 352.34 130.438ZM352.525 132.734C352.265 132.755 352.039 132.724 351.846 132.64C351.653 132.553 351.5 132.431 351.388 132.273C351.276 132.112 351.212 131.929 351.196 131.724C351.177 131.492 351.217 131.295 351.315 131.132C351.412 130.966 351.552 130.838 351.735 130.748C351.918 130.654 352.123 130.598 352.352 130.579C352.584 130.561 352.796 130.583 352.987 130.647C353.182 130.707 353.341 130.811 353.464 130.959C353.586 131.104 353.657 131.293 353.676 131.525C353.692 131.729 353.658 131.92 353.573 132.098C353.488 132.271 353.357 132.416 353.18 132.533C353.007 132.646 352.789 132.713 352.525 132.734ZM352.489 132.292C352.658 132.278 352.798 132.239 352.908 132.175C353.017 132.107 353.095 132.019 353.142 131.912C353.193 131.805 353.213 131.689 353.203 131.563C353.192 131.425 353.153 131.307 353.086 131.21C353.022 131.108 352.931 131.032 352.812 130.982C352.693 130.932 352.549 130.914 352.38 130.928C352.21 130.941 352.071 130.982 351.962 131.05C351.852 131.119 351.772 131.208 351.722 131.319C351.675 131.426 351.657 131.548 351.668 131.686C351.678 131.812 351.715 131.924 351.778 132.022C351.846 132.12 351.939 132.193 352.057 132.243C352.176 132.289 352.32 132.305 352.489 132.292ZM355.354 129.476L355.827 129.438L356.064 132.391L355.591 132.428L355.354 129.476ZM356.837 129.298C356.995 129.285 357.138 129.297 357.268 129.334C357.398 129.371 357.51 129.432 357.604 129.515C357.697 129.599 357.773 129.704 357.831 129.83C357.888 129.952 357.923 130.094 357.936 130.255L358.095 132.227L357.623 132.265L357.474 130.411C357.455 130.183 357.388 130.016 357.273 129.91C357.157 129.805 356.993 129.761 356.781 129.778C356.619 129.791 356.473 129.844 356.342 129.938C356.211 130.031 356.106 130.155 356.027 130.308C355.952 130.456 355.912 130.626 355.908 130.816L355.874 130.474C355.881 130.308 355.908 130.155 355.956 130.016C356.008 129.877 356.076 129.757 356.159 129.655C356.245 129.549 356.346 129.466 356.46 129.405C356.578 129.344 356.703 129.308 356.837 129.298ZM358.821 129.138C358.979 129.126 359.122 129.138 359.252 129.175C359.382 129.212 359.494 129.272 359.587 129.356C359.681 129.44 359.757 129.544 359.815 129.67C359.872 129.793 359.907 129.934 359.92 130.096L360.079 132.068L359.606 132.106L359.457 130.252C359.439 130.024 359.372 129.857 359.257 129.751C359.141 129.645 358.977 129.601 358.765 129.618C358.603 129.631 358.457 129.684 358.326 129.778C358.195 129.872 358.09 129.995 358.011 130.148C357.936 130.297 357.896 130.466 357.891 130.657L357.858 130.315C357.864 130.148 357.892 129.995 357.94 129.857C357.992 129.718 358.06 129.598 358.143 129.496C358.229 129.39 358.33 129.306 358.444 129.246C358.561 129.185 358.687 129.149 358.821 129.138ZM362.13 131.962C361.878 131.983 361.637 131.941 361.407 131.836C361.177 131.732 360.984 131.571 360.827 131.354C360.675 131.132 360.586 130.864 360.561 130.549C360.535 130.234 360.581 129.958 360.696 129.718C360.815 129.475 360.98 129.282 361.19 129.138C361.4 128.994 361.632 128.912 361.883 128.892C362.135 128.872 362.375 128.916 362.601 129.025C362.832 129.133 363.023 129.298 363.176 129.519C363.328 129.737 363.417 130.003 363.442 130.318C363.467 130.633 363.422 130.912 363.307 131.155C363.192 131.394 363.029 131.583 362.818 131.723C362.611 131.862 362.382 131.942 362.13 131.962ZM362.095 131.519C362.26 131.506 362.412 131.452 362.551 131.358C362.69 131.264 362.798 131.132 362.876 130.963C362.957 130.791 362.988 130.588 362.97 130.356C362.951 130.124 362.888 129.93 362.781 129.777C362.677 129.619 362.549 129.502 362.396 129.427C362.243 129.352 362.084 129.322 361.919 129.335C361.754 129.348 361.6 129.404 361.457 129.503C361.318 129.597 361.208 129.731 361.127 129.904C361.045 130.073 361.014 130.275 361.033 130.511C361.052 130.744 361.113 130.939 361.217 131.097C361.324 131.251 361.456 131.363 361.612 131.433C361.769 131.504 361.929 131.533 362.095 131.519ZM363.922 128.788L364.395 128.75L364.632 131.702L364.16 131.74L363.922 128.788ZM365.405 128.609C365.563 128.596 365.707 128.609 365.836 128.646C365.966 128.683 366.078 128.743 366.172 128.827C366.266 128.91 366.341 129.015 366.399 129.141C366.456 129.263 366.492 129.405 366.505 129.566L366.663 131.539L366.191 131.577L366.042 129.723C366.023 129.494 365.956 129.327 365.841 129.222C365.726 129.116 365.562 129.072 365.349 129.089C365.188 129.102 365.041 129.155 364.91 129.249C364.779 129.343 364.674 129.466 364.595 129.619C364.52 129.768 364.48 129.937 364.476 130.128L364.442 129.786C364.449 129.619 364.476 129.466 364.524 129.328C364.577 129.189 364.644 129.068 364.727 128.967C364.814 128.861 364.914 128.777 365.028 128.717C365.146 128.656 365.272 128.62 365.405 128.609ZM366.985 128.541L368.721 128.402L368.756 128.845L367.021 128.984L366.985 128.541ZM367.555 127.723L368.027 127.685L368.326 131.405L367.854 131.443L367.555 127.723ZM371.618 131.14L371.469 129.286C371.457 129.133 371.423 129.009 371.368 128.914C371.312 128.816 371.235 128.745 371.137 128.701C371.038 128.657 370.918 128.641 370.776 128.653C370.615 128.666 370.469 128.719 370.338 128.813C370.207 128.906 370.102 129.03 370.023 129.183C369.948 129.331 369.908 129.501 369.903 129.691L369.87 129.349C369.876 129.183 369.903 129.03 369.952 128.891C370.004 128.752 370.072 128.632 370.154 128.53C370.241 128.424 370.341 128.341 370.455 128.28C370.573 128.219 370.699 128.183 370.833 128.173C370.99 128.16 371.134 128.172 371.264 128.209C371.393 128.246 371.505 128.307 371.599 128.39C371.693 128.474 371.769 128.579 371.826 128.705C371.884 128.827 371.919 128.969 371.932 129.13L372.09 131.102L371.618 131.14ZM369.587 131.304L369.255 127.17L369.727 127.133L370.059 131.266L369.587 131.304ZM372.642 130.101L373.079 130.066C373.105 130.234 373.179 130.367 373.301 130.464C373.428 130.561 373.602 130.6 373.822 130.583C373.956 130.572 374.059 130.546 374.131 130.504C374.207 130.463 374.26 130.411 374.29 130.349C374.321 130.283 374.333 130.213 374.327 130.138C374.32 130.048 374.29 129.979 374.239 129.931C374.191 129.88 374.127 129.839 374.045 129.81C373.967 129.781 373.878 129.754 373.777 129.731C373.66 129.697 373.538 129.661 373.412 129.623C373.29 129.582 373.173 129.532 373.061 129.473C372.953 129.411 372.864 129.333 372.793 129.239C372.722 129.142 372.68 129.023 372.669 128.881C372.66 128.763 372.674 128.651 372.713 128.544C372.752 128.434 372.812 128.339 372.892 128.257C372.976 128.171 373.076 128.101 373.19 128.049C373.309 127.995 373.441 127.963 373.587 127.951C373.784 127.936 373.952 127.962 374.092 128.03C374.236 128.097 374.35 128.201 374.432 128.341C374.518 128.477 374.571 128.639 374.59 128.827L374.183 128.86C374.141 128.685 374.074 128.562 373.981 128.49C373.891 128.414 373.768 128.382 373.61 128.395C373.449 128.408 373.328 128.453 373.247 128.531C373.166 128.609 373.13 128.707 373.14 128.825C373.147 128.912 373.184 128.982 373.252 129.036C373.319 129.086 373.404 129.131 373.506 129.17C373.612 129.205 373.724 129.242 373.842 129.28C373.96 129.318 374.074 129.356 374.184 129.395C374.294 129.434 374.393 129.481 374.481 129.537C374.568 129.594 374.64 129.667 374.695 129.758C374.753 129.844 374.788 129.956 374.799 130.094C374.812 130.26 374.785 130.41 374.716 130.547C374.652 130.679 374.547 130.786 374.404 130.869C374.264 130.951 374.087 131.001 373.875 131.018C373.682 131.034 373.515 131.023 373.373 130.987C373.235 130.947 373.118 130.891 373.021 130.819C372.924 130.744 372.846 130.663 372.788 130.577C372.733 130.49 372.694 130.404 372.672 130.319C372.649 130.233 372.639 130.161 372.642 130.101Z" fill="#FF823B"/>
<circle cx="299.345" cy="125.983" r="7.89779" transform="rotate(-4.59565 299.345 125.983)" fill="#FF823B"/>
<path d="M301.222 121.93L301.164 121.214C301.149 121.026 300.98 120.882 300.792 120.897C300.604 120.912 300.46 121.081 300.475 121.269L300.531 121.958L297.546 122.198L297.49 121.509C297.475 121.321 297.306 121.177 297.118 121.193C296.93 121.208 296.786 121.376 296.801 121.565L296.859 122.281C295.628 122.496 295.086 123.283 295.083 124.388C295.084 124.522 295.203 124.623 295.332 124.613L303.102 123.989C303.235 123.978 303.336 123.854 303.312 123.727C303.132 122.637 302.471 121.946 301.222 121.93Z" fill="white"/>
<path d="M302.945 124.694L295.598 125.285C295.345 125.305 295.155 125.529 295.176 125.781L295.403 128.61C295.514 129.988 296.276 130.851 297.884 130.722L301.557 130.426C303.165 130.297 303.78 129.323 303.669 127.946L303.442 125.117C303.421 124.864 303.198 124.674 302.945 124.694ZM298.299 128.936C298.278 128.957 298.257 128.982 298.235 128.997C298.209 129.018 298.182 129.034 298.156 129.045C298.129 129.061 298.102 129.072 298.075 129.079C298.043 129.086 298.016 129.093 297.984 129.096C297.924 129.101 297.864 129.092 297.807 129.073C297.745 129.055 297.697 129.027 297.647 128.989C297.558 128.908 297.498 128.793 297.488 128.674C297.478 128.554 297.519 128.431 297.595 128.337C297.637 128.292 297.681 128.256 297.739 128.228C297.818 128.185 297.91 128.168 298.003 128.179C298.031 128.182 298.059 128.189 298.088 128.2C298.116 128.207 298.145 128.219 298.174 128.235C298.198 128.251 298.223 128.268 298.247 128.284C298.337 128.365 298.397 128.48 298.406 128.6C298.416 128.719 298.375 128.843 298.299 128.936ZM298.17 127.329C298.09 127.419 297.974 127.479 297.855 127.489C297.735 127.498 297.612 127.457 297.518 127.382C297.428 127.301 297.368 127.186 297.359 127.066C297.349 126.947 297.39 126.823 297.466 126.73C297.584 126.591 297.783 126.533 297.959 126.593C298.02 126.611 298.073 126.639 298.118 126.677C298.207 126.758 298.268 126.873 298.277 126.992C298.287 127.112 298.246 127.235 298.17 127.329ZM299.907 128.807C299.826 128.897 299.711 128.957 299.591 128.967C299.472 128.976 299.348 128.935 299.255 128.86C299.165 128.779 299.105 128.664 299.095 128.544C299.086 128.425 299.127 128.302 299.202 128.208C299.358 128.024 299.671 127.999 299.854 128.155C299.944 128.236 300.004 128.351 300.014 128.471C300.023 128.59 299.982 128.713 299.907 128.807ZM299.777 127.2C299.756 127.22 299.735 127.24 299.713 127.261C299.687 127.281 299.661 127.297 299.634 127.309C299.607 127.325 299.58 127.336 299.553 127.343C299.521 127.35 299.494 127.357 299.462 127.359C299.343 127.369 299.219 127.328 299.125 127.252C299.036 127.172 298.976 127.056 298.966 126.937C298.956 126.818 298.997 126.694 299.073 126.6C299.111 126.556 299.159 126.519 299.217 126.492C299.381 126.405 299.586 126.43 299.725 126.548C299.815 126.629 299.875 126.744 299.884 126.863C299.894 126.983 299.853 127.106 299.777 127.2ZM301.514 128.678C301.433 128.768 301.318 128.828 301.199 128.837C301.079 128.847 300.956 128.806 300.862 128.731C300.772 128.65 300.712 128.535 300.702 128.415C300.693 128.296 300.734 128.172 300.809 128.078C300.966 127.895 301.278 127.87 301.462 128.026C301.551 128.107 301.611 128.222 301.621 128.341C301.631 128.461 301.59 128.584 301.514 128.678ZM301.385 127.071C301.363 127.091 301.342 127.111 301.32 127.131C301.294 127.152 301.268 127.168 301.241 127.179C301.215 127.195 301.188 127.207 301.161 127.214C301.129 127.221 301.097 127.228 301.069 127.23C300.95 127.24 300.827 127.199 300.733 127.123C300.643 127.043 300.583 126.927 300.573 126.808C300.564 126.688 300.605 126.565 300.68 126.471C300.723 126.426 300.766 126.39 300.824 126.363C300.904 126.319 300.995 126.303 301.088 126.314C301.116 126.316 301.144 126.323 301.173 126.334C301.201 126.341 301.23 126.353 301.259 126.369C301.283 126.386 301.308 126.402 301.332 126.419C301.422 126.499 301.482 126.615 301.492 126.734C301.501 126.853 301.46 126.977 301.385 127.071Z" fill="white"/>
<g filter="url(#filter2_d_7448_71779)">
<rect x="288.545" y="167.971" width="219.164" height="48.3741" rx="2.96168" transform="rotate(-4.27404 288.545 167.971)" fill="white"/>
</g>
<path d="M331.381 185.765L331.305 184.749L335.417 184.442L335.493 185.458L331.381 185.765ZM329.858 187.792L332.415 179.891L333.62 179.8L337.348 187.232L336.119 187.324L332.861 180.606L333.286 180.574L331.075 187.701L329.858 187.792ZM343.879 186.744L342.757 186.828L342.316 180.933L343.439 180.849L343.879 186.744ZM342.608 184.047L342.647 184.4C342.647 184.503 342.63 184.659 342.599 184.867C342.574 185.067 342.519 185.289 342.434 185.533C342.358 185.776 342.241 186.015 342.084 186.248C341.935 186.481 341.736 186.678 341.487 186.839C341.237 187.001 340.928 187.095 340.557 187.123C340.305 187.141 340.043 187.125 339.77 187.075C339.505 187.023 339.256 186.923 339.023 186.774C338.79 186.625 338.596 186.414 338.441 186.14C338.285 185.859 338.191 185.502 338.159 185.069L337.874 181.265L339.008 181.18L339.275 184.748C339.302 185.11 339.378 185.389 339.504 185.586C339.638 185.782 339.814 185.915 340.033 185.986C340.252 186.057 340.495 186.082 340.763 186.062C341.173 186.031 341.508 185.907 341.769 185.69C342.037 185.464 342.239 185.203 342.376 184.908C342.512 184.605 342.589 184.318 342.608 184.047ZM344.51 180.769L348.326 180.483L348.399 181.464L344.583 181.749L344.51 180.769ZM345.74 179.109L346.862 179.025L347.42 186.479L346.297 186.563L345.74 179.109ZM352.593 186.223C352.018 186.266 351.482 186.183 350.983 185.975C350.484 185.767 350.076 185.445 349.758 185.009C349.441 184.574 349.258 184.037 349.21 183.399C349.162 182.753 349.263 182.191 349.512 181.713C349.761 181.228 350.116 180.845 350.578 180.565C351.041 180.284 351.559 180.123 352.134 180.08C352.709 180.037 353.242 180.12 353.733 180.329C354.224 180.538 354.628 180.864 354.946 181.307C355.264 181.743 355.447 182.284 355.495 182.929C355.543 183.567 355.442 184.125 355.193 184.603C354.943 185.081 354.591 185.46 354.137 185.74C353.683 186.019 353.168 186.18 352.593 186.223ZM352.52 185.243C352.874 185.216 353.195 185.113 353.483 184.933C353.778 184.745 354.004 184.49 354.162 184.17C354.328 183.84 354.394 183.455 354.361 183.014C354.328 182.565 354.204 182.19 353.992 181.889C353.787 181.588 353.525 181.366 353.206 181.224C352.894 181.081 352.561 181.022 352.207 181.049C351.852 181.075 351.528 181.183 351.233 181.371C350.937 181.551 350.707 181.806 350.541 182.135C350.376 182.465 350.31 182.858 350.344 183.314C350.377 183.755 350.496 184.127 350.701 184.428C350.913 184.721 351.179 184.939 351.498 185.081C351.817 185.216 352.158 185.27 352.52 185.243ZM356.46 179.875L357.594 179.791L358.035 185.686L356.901 185.771L356.46 179.875ZM359.83 179.505C360.161 179.48 360.464 179.505 360.739 179.58C361.013 179.654 361.252 179.779 361.456 179.954C361.658 180.121 361.821 180.338 361.944 180.606C362.074 180.866 362.152 181.169 362.178 181.515L362.465 185.355L361.343 185.439L361.074 181.847C361.04 181.383 360.9 181.045 360.654 180.833C360.416 180.613 360.068 180.521 359.612 180.555C359.257 180.581 358.94 180.688 358.661 180.875C358.382 181.062 358.159 181.301 357.99 181.591C357.829 181.872 357.742 182.183 357.727 182.525L357.667 181.876C357.683 181.558 357.744 181.261 357.85 180.983C357.964 180.706 358.112 180.461 358.294 180.249C358.483 180.029 358.708 179.858 358.968 179.736C359.228 179.605 359.515 179.528 359.83 179.505ZM364.154 179.182C364.485 179.157 364.788 179.182 365.062 179.256C365.337 179.331 365.576 179.456 365.779 179.63C365.982 179.797 366.145 180.015 366.268 180.283C366.398 180.543 366.476 180.846 366.502 181.192L366.789 185.032L365.667 185.115L365.398 181.524C365.364 181.059 365.223 180.721 364.978 180.51C364.74 180.29 364.392 180.197 363.935 180.232C363.581 180.258 363.264 180.365 362.985 180.552C362.706 180.739 362.482 180.978 362.314 181.267C362.153 181.549 362.065 181.86 362.051 182.202L361.99 181.541C362.006 181.223 362.067 180.93 362.174 180.66C362.288 180.382 362.44 180.137 362.63 179.925C362.819 179.705 363.044 179.534 363.304 179.412C363.563 179.281 363.847 179.205 364.154 179.182ZM370.719 184.857C370.215 184.894 369.744 184.799 369.307 184.57C368.87 184.341 368.513 184.008 368.235 183.569C367.956 183.123 367.794 182.6 367.749 182.002C367.704 181.403 367.787 180.866 367.997 180.391C368.214 179.908 368.53 179.52 368.944 179.228C369.357 178.928 369.831 178.757 370.367 178.717C370.957 178.673 371.425 178.777 371.768 179.028C372.119 179.279 372.375 179.632 372.536 180.088C372.705 180.542 372.81 181.053 372.853 181.62C372.876 181.935 372.862 182.273 372.81 182.633C372.757 182.994 372.656 183.338 372.507 183.666C372.357 183.994 372.136 184.268 371.843 184.488C371.55 184.699 371.175 184.823 370.719 184.857ZM370.964 183.852C371.382 183.821 371.725 183.704 371.995 183.502C372.273 183.291 372.47 183.023 372.589 182.697C372.707 182.372 372.752 182.016 372.723 181.63C372.692 181.213 372.589 180.852 372.416 180.548C372.251 180.244 372.016 180.016 371.712 179.864C371.415 179.712 371.062 179.651 370.653 179.682C370.038 179.728 369.577 179.96 369.267 180.38C368.966 180.798 368.838 181.311 368.883 181.917C368.914 182.327 369.024 182.683 369.213 182.985C369.401 183.28 369.644 183.508 369.941 183.667C370.245 183.819 370.586 183.881 370.964 183.852ZM372.502 178.677L373.636 178.592L374.077 184.487L373.037 184.565C373.037 184.565 373.024 184.494 372.998 184.354C372.971 184.205 372.942 184.029 372.911 183.826C372.88 183.622 372.858 183.442 372.846 183.284L372.502 178.677ZM374.702 178.512L378.518 178.227L378.591 179.208L374.775 179.493L374.702 178.512ZM375.932 176.852L377.054 176.768L377.612 184.223L376.489 184.307L375.932 176.852ZM384.334 181.796L385.409 181.716C385.375 182.106 385.251 182.464 385.038 182.789C384.824 183.113 384.531 183.381 384.159 183.591C383.787 183.801 383.34 183.925 382.821 183.964C382.206 184.01 381.649 183.921 381.149 183.697C380.65 183.473 380.245 183.143 379.935 182.707C379.625 182.271 379.448 181.749 379.402 181.143C379.356 180.528 379.45 179.983 379.684 179.506C379.917 179.021 380.26 178.631 380.713 178.336C381.166 178.041 381.696 177.871 382.303 177.825C382.94 177.778 383.485 177.864 383.937 178.083C384.389 178.303 384.736 178.653 384.978 179.134C385.227 179.607 385.36 180.21 385.375 180.946L380.543 181.307C380.609 181.658 380.739 181.966 380.933 182.228C381.135 182.49 381.387 182.689 381.69 182.825C382.001 182.96 382.35 183.013 382.736 182.984C383.169 182.952 383.524 182.827 383.8 182.608C384.077 182.389 384.255 182.119 384.334 181.796ZM382.387 178.793C381.875 178.831 381.46 179.001 381.142 179.302C380.823 179.595 380.625 179.97 380.549 180.427L384.176 180.156C384.108 179.678 383.907 179.325 383.574 179.097C383.239 178.86 382.844 178.759 382.387 178.793ZM389.212 183.475C388.7 183.513 388.226 183.418 387.789 183.189C387.352 182.96 386.995 182.627 386.716 182.188C386.445 181.741 386.288 181.218 386.243 180.62C386.198 180.021 386.277 179.485 386.479 179.01C386.68 178.528 386.976 178.141 387.366 177.851C387.756 177.552 388.218 177.383 388.754 177.343C389.219 177.309 389.611 177.358 389.929 177.493C390.248 177.628 390.505 177.83 390.7 178.101C390.894 178.371 391.04 178.689 391.139 179.054C391.245 179.418 391.315 179.813 391.346 180.238C391.37 180.553 391.356 180.891 391.303 181.251C391.251 181.612 391.15 181.956 391 182.284C390.851 182.612 390.629 182.886 390.337 183.105C390.044 183.317 389.669 183.44 389.212 183.475ZM389.458 182.47C389.875 182.439 390.219 182.322 390.489 182.12C390.766 181.909 390.964 181.641 391.082 181.315C391.201 180.99 391.245 180.634 391.216 180.248C391.185 179.831 391.083 179.47 390.91 179.166C390.745 178.862 390.51 178.634 390.205 178.482C389.909 178.33 389.556 178.269 389.146 178.3C388.532 178.346 388.07 178.578 387.761 178.997C387.46 179.416 387.332 179.928 387.377 180.535C387.408 180.944 387.517 181.301 387.706 181.603C387.895 181.898 388.137 182.125 388.434 182.285C388.739 182.437 389.08 182.498 389.458 182.47ZM390.819 174.932L391.953 174.847L392.57 183.105L391.531 183.183C391.494 183.011 391.455 182.8 391.412 182.55C391.378 182.299 391.354 182.083 391.34 181.902L390.819 174.932Z" fill="#FF823B"/>
<path d="M331.262 197.487L331.229 197.044L333.072 196.906L333.105 197.349L331.262 197.487ZM330.557 198.549L331.729 194.601L332.225 194.564L333.983 198.293L333.475 198.331L331.934 194.954L332.076 194.943L331.053 198.512L330.557 198.549ZM336.99 198.069L336.518 198.104L336.297 195.15L336.77 195.115L336.99 198.069ZM336.445 196.725L336.463 196.89C336.462 196.938 336.456 197.012 336.444 197.112C336.435 197.211 336.414 197.324 336.38 197.449C336.349 197.57 336.299 197.689 336.228 197.805C336.162 197.921 336.07 198.019 335.953 198.099C335.84 198.178 335.695 198.225 335.518 198.238C335.404 198.247 335.284 198.238 335.16 198.211C335.039 198.189 334.925 198.144 334.817 198.077C334.709 198.006 334.618 197.903 334.545 197.77C334.471 197.637 334.427 197.468 334.412 197.263L334.265 195.302L334.738 195.267L334.876 197.11C334.889 197.287 334.927 197.425 334.99 197.523C335.056 197.617 335.14 197.682 335.242 197.718C335.343 197.754 335.455 197.768 335.577 197.758C335.778 197.743 335.942 197.68 336.068 197.567C336.194 197.455 336.287 197.321 336.347 197.166C336.407 197.011 336.439 196.864 336.445 196.725ZM337.329 195.073L339.066 194.944L339.099 195.387L337.362 195.516L337.329 195.073ZM337.904 194.258L338.376 194.223L338.654 197.944L338.182 197.98L337.904 194.258ZM341.073 197.823C340.821 197.842 340.58 197.798 340.351 197.693C340.121 197.587 339.929 197.425 339.774 197.207C339.623 196.985 339.535 196.716 339.512 196.401C339.488 196.086 339.535 195.809 339.652 195.571C339.772 195.328 339.938 195.136 340.149 194.993C340.36 194.851 340.592 194.77 340.844 194.751C341.096 194.732 341.335 194.778 341.561 194.888C341.791 194.997 341.981 195.163 342.133 195.386C342.284 195.604 342.371 195.871 342.394 196.186C342.418 196.501 342.371 196.779 342.255 197.022C342.138 197.26 341.974 197.449 341.763 197.587C341.555 197.726 341.325 197.804 341.073 197.823ZM341.04 197.38C341.206 197.368 341.358 197.315 341.498 197.221C341.637 197.127 341.746 196.996 341.825 196.828C341.907 196.656 341.939 196.453 341.922 196.221C341.904 195.989 341.843 195.795 341.736 195.641C341.633 195.482 341.505 195.365 341.353 195.289C341.201 195.214 341.042 195.182 340.877 195.194C340.712 195.207 340.557 195.262 340.414 195.36C340.275 195.453 340.164 195.586 340.082 195.759C339.999 195.927 339.967 196.13 339.984 196.366C340.002 196.598 340.062 196.794 340.165 196.952C340.271 197.107 340.403 197.22 340.558 197.291C340.714 197.363 340.875 197.392 341.04 197.38ZM342.883 194.658L343.356 194.623L343.577 197.576L343.104 197.612L342.883 194.658ZM344.367 194.488C344.525 194.476 344.668 194.489 344.798 194.527C344.928 194.565 345.039 194.626 345.132 194.71C345.226 194.794 345.301 194.899 345.358 195.026C345.415 195.148 345.449 195.29 345.461 195.452L345.609 197.425L345.136 197.46L344.997 195.605C344.98 195.377 344.914 195.209 344.799 195.103C344.685 194.997 344.521 194.952 344.308 194.968C344.147 194.98 344 195.032 343.869 195.125C343.737 195.218 343.631 195.341 343.552 195.493C343.476 195.642 343.435 195.811 343.429 196.001L343.398 195.659C343.405 195.492 343.433 195.34 343.482 195.202C343.535 195.063 343.603 194.943 343.687 194.842C343.774 194.736 343.875 194.653 343.989 194.593C344.107 194.533 344.233 194.498 344.367 194.488ZM346.352 194.34C346.51 194.328 346.653 194.341 346.783 194.379C346.912 194.417 347.024 194.478 347.117 194.562C347.211 194.646 347.286 194.751 347.343 194.877C347.399 195 347.434 195.142 347.446 195.303L347.593 197.276L347.121 197.312L346.982 195.457C346.965 195.228 346.899 195.061 346.784 194.955C346.669 194.849 346.506 194.803 346.293 194.819C346.131 194.831 345.985 194.884 345.853 194.977C345.722 195.07 345.616 195.193 345.536 195.345C345.46 195.493 345.419 195.663 345.414 195.853L345.382 195.511C345.39 195.344 345.418 195.192 345.467 195.053C345.52 194.915 345.588 194.795 345.672 194.693C345.759 194.588 345.86 194.505 345.974 194.445C346.092 194.385 346.218 194.35 346.352 194.34ZM349.48 197.195C349.248 197.212 349.028 197.163 348.821 197.048C348.618 196.928 348.449 196.759 348.314 196.539C348.183 196.315 348.106 196.056 348.084 195.761C348.062 195.465 348.101 195.197 348.202 194.956C348.303 194.715 348.448 194.52 348.639 194.371C348.834 194.221 349.057 194.137 349.309 194.119C349.585 194.098 349.799 194.153 349.951 194.284C350.107 194.411 350.22 194.589 350.288 194.818C350.361 195.046 350.408 195.302 350.429 195.585C350.44 195.735 350.436 195.9 350.418 196.079C350.4 196.255 350.357 196.426 350.29 196.594C350.227 196.757 350.131 196.895 350 197.007C349.87 197.116 349.696 197.178 349.48 197.195ZM349.564 196.737C349.765 196.722 349.927 196.66 350.05 196.552C350.176 196.444 350.265 196.306 350.316 196.14C350.366 195.97 350.384 195.787 350.37 195.59C350.354 195.373 350.306 195.187 350.227 195.03C350.152 194.869 350.044 194.749 349.903 194.668C349.766 194.583 349.599 194.548 349.402 194.563C349.107 194.585 348.886 194.707 348.74 194.927C348.594 195.144 348.533 195.41 348.556 195.725C348.572 195.934 348.625 196.118 348.716 196.278C348.811 196.433 348.931 196.553 349.076 196.637C349.224 196.717 349.387 196.75 349.564 196.737ZM350.259 194.107L350.731 194.072L350.952 197.025L350.521 197.057C350.521 197.057 350.514 197.022 350.501 196.952C350.492 196.881 350.48 196.799 350.465 196.705C350.45 196.611 350.44 196.533 350.435 196.47L350.259 194.107ZM351.295 194.03L353.031 193.9L353.064 194.343L351.328 194.473L351.295 194.03ZM351.869 193.215L352.342 193.179L352.62 196.901L352.147 196.936L351.869 193.215ZM355.772 195.709L356.216 195.676C356.198 195.871 356.14 196.049 356.042 196.211C355.947 196.369 355.814 196.5 355.643 196.603C355.477 196.703 355.279 196.761 355.051 196.778C354.775 196.799 354.522 196.752 354.292 196.639C354.061 196.522 353.872 196.354 353.725 196.135C353.582 195.912 353.499 195.653 353.477 195.357C353.455 195.062 353.496 194.794 353.601 194.552C353.71 194.31 353.867 194.115 354.074 193.965C354.281 193.814 354.52 193.729 354.791 193.709C355.079 193.687 355.326 193.734 355.533 193.85C355.743 193.961 355.904 194.137 356.018 194.378C356.134 194.614 356.196 194.913 356.203 195.273L353.959 195.44C353.993 195.632 354.059 195.797 354.156 195.936C354.254 196.076 354.376 196.181 354.524 196.253C354.672 196.322 354.836 196.349 355.017 196.335C355.218 196.32 355.384 196.256 355.514 196.144C355.648 196.027 355.734 195.882 355.772 195.709ZM354.842 194.151C354.598 194.169 354.399 194.255 354.244 194.409C354.089 194.563 353.993 194.765 353.956 195.013L355.687 194.883C355.652 194.625 355.553 194.434 355.389 194.312C355.229 194.189 355.047 194.135 354.842 194.151ZM361.087 195.834L360.968 195.837L361.471 193.269L361.985 193.231L361.302 196.252L360.859 196.285L359.792 193.763L359.91 193.754L359.229 196.407L358.786 196.44L357.667 193.553L358.181 193.515L359.049 195.981L358.931 195.995L359.54 193.413L360.113 193.371L361.087 195.834ZM364.814 195.989L364.675 194.134C364.664 193.981 364.631 193.857 364.576 193.762C364.521 193.663 364.444 193.591 364.346 193.547C364.248 193.503 364.128 193.486 363.986 193.497C363.825 193.509 363.678 193.562 363.546 193.655C363.415 193.748 363.309 193.87 363.229 194.023C363.153 194.171 363.113 194.34 363.107 194.531L363.075 194.189C363.083 194.022 363.111 193.869 363.16 193.731C363.213 193.592 363.281 193.472 363.365 193.371C363.452 193.266 363.553 193.183 363.667 193.123C363.785 193.063 363.911 193.027 364.045 193.017C364.203 193.006 364.346 193.019 364.476 193.056C364.605 193.094 364.717 193.155 364.81 193.239C364.904 193.323 364.979 193.429 365.036 193.555C365.092 193.678 365.127 193.82 365.139 193.981L365.286 195.954L364.814 195.989ZM362.782 196.141L362.473 192.006L362.945 191.971L363.254 196.106L362.782 196.141ZM368.077 194.789L368.52 194.756C368.503 194.951 368.445 195.13 368.346 195.292C368.251 195.449 368.118 195.58 367.947 195.684C367.781 195.783 367.583 195.842 367.355 195.859C367.079 195.879 366.826 195.833 366.596 195.719C366.365 195.602 366.176 195.434 366.029 195.215C365.886 194.992 365.803 194.733 365.781 194.438C365.759 194.143 365.801 193.874 365.905 193.633C366.014 193.391 366.172 193.195 366.378 193.045C366.585 192.895 366.824 192.81 367.096 192.789C367.383 192.768 367.63 192.815 367.837 192.93C368.047 193.041 368.209 193.217 368.322 193.458C368.438 193.695 368.5 193.993 368.507 194.353L366.263 194.521C366.297 194.712 366.363 194.878 366.46 195.017C366.558 195.156 366.68 195.262 366.828 195.334C366.976 195.402 367.14 195.429 367.322 195.416C367.522 195.401 367.688 195.337 367.818 195.224C367.952 195.107 368.038 194.962 368.077 194.789ZM367.146 193.231C366.902 193.249 366.703 193.336 366.548 193.49C366.393 193.644 366.297 193.845 366.26 194.093L367.991 193.964C367.956 193.705 367.857 193.515 367.693 193.392C367.533 193.269 367.351 193.216 367.146 193.231ZM368.997 192.707L369.47 192.671L369.69 195.625L369.218 195.66L368.997 192.707ZM370.481 192.536C370.639 192.525 370.782 192.538 370.912 192.575C371.041 192.613 371.153 192.674 371.246 192.758C371.34 192.842 371.415 192.948 371.472 193.074C371.528 193.197 371.563 193.339 371.575 193.5L371.722 195.473L371.25 195.508L371.111 193.654C371.094 193.425 371.028 193.258 370.913 193.152C370.798 193.045 370.635 193 370.422 193.016C370.26 193.028 370.114 193.081 369.982 193.174C369.851 193.267 369.745 193.389 369.665 193.542C369.589 193.69 369.548 193.859 369.543 194.05L369.511 193.708C369.519 193.541 369.547 193.388 369.596 193.25C369.649 193.111 369.717 192.991 369.801 192.89C369.888 192.785 369.989 192.702 370.103 192.642C370.221 192.582 370.347 192.546 370.481 192.536ZM373.242 192.389L373.75 192.351L375.019 195.108L374.615 195.257L373.242 192.389ZM375.989 192.184L374.65 196.442L374.136 196.481L374.731 194.832L375.487 192.222L375.989 192.184ZM377.911 195.07C377.659 195.089 377.418 195.045 377.188 194.94C376.958 194.834 376.766 194.672 376.611 194.454C376.46 194.232 376.373 193.963 376.349 193.648C376.326 193.333 376.372 193.056 376.489 192.818C376.609 192.575 376.775 192.383 376.986 192.24C377.197 192.098 377.429 192.017 377.681 191.998C377.933 191.979 378.172 192.025 378.398 192.135C378.628 192.244 378.819 192.41 378.97 192.633C379.121 192.851 379.208 193.118 379.232 193.433C379.255 193.748 379.209 194.026 379.092 194.269C378.975 194.507 378.811 194.696 378.6 194.834C378.392 194.972 378.163 195.051 377.911 195.07ZM377.877 194.627C378.043 194.614 378.195 194.562 378.335 194.468C378.474 194.374 378.583 194.243 378.662 194.075C378.744 193.903 378.776 193.7 378.759 193.468C378.742 193.236 378.68 193.042 378.573 192.888C378.47 192.729 378.343 192.612 378.191 192.536C378.038 192.461 377.88 192.429 377.714 192.441C377.549 192.454 377.394 192.509 377.251 192.607C377.112 192.7 377.001 192.833 376.919 193.006C376.836 193.174 376.804 193.377 376.822 193.613C376.839 193.845 376.899 194.041 377.002 194.199C377.109 194.354 377.24 194.467 377.396 194.538C377.551 194.61 377.712 194.639 377.877 194.627ZM382.446 194.672L381.973 194.707L381.752 191.753L382.225 191.718L382.446 194.672ZM381.9 193.328L381.918 193.493C381.918 193.541 381.911 193.615 381.899 193.714C381.891 193.814 381.869 193.927 381.835 194.052C381.805 194.173 381.754 194.292 381.684 194.408C381.617 194.524 381.525 194.622 381.409 194.702C381.296 194.781 381.151 194.828 380.973 194.841C380.859 194.849 380.74 194.841 380.615 194.814C380.495 194.792 380.38 194.747 380.272 194.68C380.164 194.608 380.073 194.506 380 194.373C379.927 194.24 379.882 194.071 379.867 193.866L379.721 191.905L380.193 191.87L380.331 193.713C380.344 193.89 380.382 194.028 380.445 194.126C380.511 194.22 380.595 194.285 380.697 194.321C380.799 194.357 380.911 194.37 381.033 194.361C381.233 194.346 381.397 194.283 381.523 194.17C381.649 194.058 381.742 193.924 381.802 193.769C381.862 193.614 381.894 193.467 381.9 193.328ZM385.933 194.47C385.717 194.486 385.536 194.45 385.391 194.362C385.245 194.27 385.127 194.148 385.037 193.997C384.95 193.841 384.884 193.678 384.84 193.507C384.795 193.332 384.767 193.17 384.756 193.02C384.74 192.807 384.739 192.607 384.752 192.42C384.77 192.233 384.811 192.065 384.875 191.918C384.94 191.771 385.038 191.652 385.17 191.563C385.305 191.47 385.483 191.415 385.704 191.399C385.94 191.381 386.16 191.432 386.363 191.551C386.566 191.671 386.733 191.843 386.864 192.066C387 192.29 387.079 192.549 387.101 192.845C387.123 193.14 387.083 193.408 386.983 193.649C386.882 193.887 386.738 194.08 386.551 194.228C386.368 194.373 386.162 194.453 385.933 194.47ZM385.782 194.03C385.963 194.017 386.119 193.959 386.25 193.859C386.385 193.753 386.485 193.617 386.552 193.45C386.618 193.279 386.644 193.089 386.628 192.88C386.605 192.565 386.505 192.311 386.328 192.118C386.151 191.922 385.914 191.834 385.619 191.856C385.446 191.869 385.296 191.928 385.169 192.033C385.042 192.133 384.947 192.269 384.885 192.44C384.822 192.607 384.799 192.799 384.815 193.015C384.83 193.212 384.875 193.391 384.95 193.552C385.029 193.708 385.137 193.831 385.274 193.92C385.412 194.008 385.581 194.045 385.782 194.03ZM384.231 191.568L384.686 191.534L384.75 192.153L385.013 195.668L384.54 195.703L384.231 191.568ZM388.936 194.246C388.704 194.263 388.484 194.214 388.278 194.099C388.075 193.98 387.906 193.81 387.77 193.591C387.639 193.367 387.562 193.107 387.54 192.812C387.518 192.516 387.557 192.248 387.658 192.007C387.759 191.766 387.904 191.571 388.095 191.422C388.29 191.273 388.513 191.189 388.765 191.17C389.041 191.149 389.255 191.205 389.408 191.336C389.564 191.463 389.676 191.64 389.744 191.869C389.817 192.097 389.864 192.353 389.885 192.637C389.896 192.786 389.893 192.951 389.874 193.13C389.856 193.306 389.813 193.477 389.746 193.645C389.683 193.808 389.587 193.946 389.457 194.058C389.326 194.167 389.153 194.23 388.936 194.246ZM389.021 193.788C389.221 193.773 389.383 193.712 389.506 193.603C389.632 193.495 389.721 193.358 389.772 193.191C389.823 193.021 389.841 192.838 389.826 192.641C389.81 192.424 389.762 192.238 389.683 192.081C389.608 191.921 389.5 191.8 389.359 191.72C389.222 191.635 389.055 191.6 388.858 191.614C388.563 191.636 388.342 191.758 388.196 191.979C388.05 192.196 387.989 192.461 388.012 192.776C388.028 192.985 388.081 193.169 388.172 193.329C388.267 193.484 388.387 193.604 388.532 193.688C388.68 193.768 388.843 193.801 389.021 193.788ZM389.715 191.158L390.188 191.123L390.408 194.076L389.977 194.109C389.977 194.109 389.97 194.074 389.957 194.003C389.948 193.933 389.936 193.85 389.921 193.756C389.906 193.663 389.896 193.584 389.892 193.521L389.715 191.158ZM390.692 191.085L391.2 191.047L392.469 193.804L392.064 193.953L390.692 191.085ZM393.438 190.88L392.099 195.138L391.585 195.176L392.181 193.528L392.936 190.918L393.438 190.88Z" fill="#FF823B"/>
<path d="M312.273 180.717C307.745 181.056 304.344 185.006 304.682 189.535C305.021 194.063 308.971 197.464 313.5 197.125C318.028 196.787 321.429 192.837 321.09 188.308C320.752 183.78 316.802 180.379 312.273 180.717ZM312.074 192.398L308.579 192.659C308.423 192.67 308.312 192.505 308.383 192.36L309.913 189.317C309.985 189.18 310.174 189.165 310.266 189.291L312.231 192.072C312.323 192.206 312.238 192.385 312.074 192.398ZM311.025 187.526C310.869 187.538 310.758 187.373 310.829 187.227L312.359 184.184C312.431 184.047 312.62 184.033 312.712 184.158L314.677 186.94C314.769 187.073 314.684 187.253 314.528 187.264L311.025 187.526ZM317.702 191.977L314.207 192.238C314.051 192.25 313.94 192.085 314.011 191.939L315.541 188.896C315.613 188.759 315.802 188.745 315.894 188.87L317.859 191.652C317.943 191.786 317.858 191.965 317.702 191.977Z" fill="#FF823B"/>
</g>
<defs>
<filter id="filter0_d_7448_71779" x="188.068" y="-40.9048" width="356.702" height="196.026" filterUnits="userSpaceOnUse" color-interpolation-filters="sRGB">
<feFlood flood-opacity="0" result="BackgroundImageFix"/>
<feColorMatrix in="SourceAlpha" type="matrix" values="0 0 0 0 0 0 0 0 0 0 0 0 0 0 0 0 0 0 127 0" result="hardAlpha"/>
<feOffset dy="6.77238"/>
<feGaussianBlur stdDeviation="33.8619"/>
<feComposite in2="hardAlpha" operator="out"/>
<feColorMatrix type="matrix" values="0 0 0 0 0.504167 0 0 0 0 0.495764 0 0 0 0 0.495764 0 0 0 0.06 0"/>
<feBlend mode="normal" in2="BackgroundImageFix" result="effect1_dropShadow_7448_71779"/>
<feBlend mode="normal" in="SourceGraphic" in2="effect1_dropShadow_7448_71779" result="shape"/>
</filter>
<filter id="filter1_d_7448_71779" x="208.38" y="26.8095" width="357.327" height="200.771" filterUnits="userSpaceOnUse" color-interpolation-filters="sRGB">
<feFlood flood-opacity="0" result="BackgroundImageFix"/>
<feColorMatrix in="SourceAlpha" type="matrix" values="0 0 0 0 0 0 0 0 0 0 0 0 0 0 0 0 0 0 127 0" result="hardAlpha"/>
<feOffset dy="6.77238"/>
<feGaussianBlur stdDeviation="33.8619"/>
<feComposite in2="hardAlpha" operator="out"/>
<feColorMatrix type="matrix" values="0 0 0 0 0.504167 0 0 0 0 0.495764 0 0 0 0 0.495764 0 0 0 0.04 0"/>
<feBlend mode="normal" in2="BackgroundImageFix" result="effect1_dropShadow_7448_71779"/>
<feBlend mode="normal" in="SourceGraphic" in2="effect1_dropShadow_7448_71779" result="shape"/>
</filter>
<filter id="filter2_d_7448_71779" x="221.033" y="90.8986" width="357.183" height="199.596" filterUnits="userSpaceOnUse" color-interpolation-filters="sRGB">
<feFlood flood-opacity="0" result="BackgroundImageFix"/>
<feColorMatrix in="SourceAlpha" type="matrix" values="0 0 0 0 0 0 0 0 0 0 0 0 0 0 0 0 0 0 127 0" result="hardAlpha"/>
<feOffset dy="6.77238"/>
<feGaussianBlur stdDeviation="33.8619"/>
<feComposite in2="hardAlpha" operator="out"/>
<feColorMatrix type="matrix" values="0 0 0 0 0.504167 0 0 0 0 0.495764 0 0 0 0 0.495764 0 0 0 0.06 0"/>
<feBlend mode="normal" in2="BackgroundImageFix" result="effect1_dropShadow_7448_71779"/>
<feBlend mode="normal" in="SourceGraphic" in2="effect1_dropShadow_7448_71779" result="shape"/>
</filter>
<clipPath id="clip0_7448_71779">
<rect width="461" height="227" rx="20" fill="white"/>
</clipPath>
</defs>
</svg>
