<svg width="1216" height="488" viewBox="0 0 1216 488" fill="none" xmlns="http://www.w3.org/2000/svg">
<path d="M247.247 65.1508C247.615 65.1991 247.953 64.9396 248.001 64.5713L248.788 58.5681C248.836 58.1998 248.577 57.862 248.209 57.8137C247.84 57.7654 247.502 58.0249 247.454 58.3933L246.755 63.7294L241.418 63.0298C241.05 62.9815 240.712 63.241 240.664 63.6094C240.616 63.9778 240.875 64.3156 241.244 64.3639L247.247 65.1508ZM35.807 45.9481C57.1636 31.105 93.3607 14.2426 132.497 11.9015C171.597 9.56252 213.629 21.7122 246.801 64.8936L247.868 64.074C214.384 20.4868 171.892 8.19698 132.417 10.5584C92.977 12.9177 56.5464 29.8955 35.0391 44.8433L35.807 45.9481Z" fill="url(#paint0_linear_3203_31167)"/>
<g filter="url(#filter0_b_3203_31167)">
<rect x="0.42627" y="140.994" width="484" height="333.656" rx="8" transform="rotate(-12.1769 0.42627 140.994)" fill="url(#paint1_linear_3203_31167)"/>
<circle cx="93.8827" cy="218.525" r="14" transform="rotate(-12.1769 93.8827 218.525)" fill="white"/>
<circle cx="93.8827" cy="218.525" r="9" transform="rotate(-12.1769 93.8827 218.525)" fill="#23A323"/>
<path d="M136.887 200.705L137.425 203.196L125.886 205.686L126.917 210.464L136.372 208.424L136.887 210.813L127.433 212.853L128.903 219.664L126.005 220.289L122.452 203.82L136.887 200.705ZM139.2 198.876L142.021 198.267L145.849 216.007L143.028 216.616L139.2 198.876ZM158.95 208.818L161.669 208.231C161.72 209.125 161.547 209.969 161.152 210.763C160.769 211.538 160.162 212.218 159.331 212.805C158.497 213.375 157.444 213.798 156.173 214.072C154.733 214.383 153.389 214.398 152.14 214.118C150.888 213.82 149.834 213.25 148.978 212.406C148.122 211.562 147.548 210.463 147.256 209.107C146.967 207.769 147.028 206.532 147.439 205.397C147.85 204.262 148.548 203.305 149.532 202.525C150.534 201.741 151.763 201.192 153.22 200.878C154.728 200.553 156.04 200.553 157.157 200.88C158.287 201.185 159.213 201.819 159.934 202.781C160.652 203.725 161.143 205.011 161.405 206.639L150.248 209.047C150.486 209.74 150.854 210.334 151.351 210.83C151.861 211.305 152.482 211.632 153.212 211.812C153.939 211.974 154.742 211.96 155.624 211.77C156.606 211.558 157.386 211.186 157.963 210.654C158.556 210.118 158.885 209.506 158.95 208.818ZM153.637 203.182C152.485 203.43 151.598 203.923 150.977 204.66C150.352 205.38 150.025 206.204 149.995 207.133L158.153 205.373C157.88 204.438 157.34 203.784 156.532 203.408C155.721 203.016 154.756 202.94 153.637 203.182ZM174.793 196.515L170.354 204.788L167.104 211.421L163.648 212.166L168.31 203.447L171.362 197.256L174.793 196.515ZM160.917 199.51L164.399 198.758L170.012 203.08L177.855 209.101L174.398 209.847L168.561 205.228L160.917 199.51ZM179.394 189.91L179.98 192.63L176.6 193.359L176.013 190.64L179.394 189.91ZM177.425 195.948L180.271 195.333L183.002 207.99L180.156 208.604L177.425 195.948ZM195.057 205.681C194.007 205.908 193.074 205.897 192.257 205.647C191.454 205.377 190.761 204.959 190.178 204.394C189.612 203.824 189.145 203.18 188.777 202.462C188.422 201.722 188.17 201.005 188.02 200.311C187.819 199.379 187.726 198.495 187.74 197.658C187.755 196.822 187.91 196.061 188.206 195.377C188.515 194.672 188.988 194.073 189.627 193.58C190.279 193.067 191.138 192.696 192.206 192.465C193.426 192.202 194.562 192.25 195.614 192.608C196.684 192.962 197.597 193.581 198.355 194.463C199.127 195.325 199.655 196.417 199.94 197.739C200.218 199.026 200.185 200.23 199.842 201.351C199.495 202.454 198.907 203.388 198.079 204.152C197.251 204.915 196.243 205.425 195.057 205.681ZM193.689 203.53C194.553 203.343 195.26 203.004 195.81 202.513C196.377 202.018 196.769 201.411 196.986 200.69C197.203 199.97 197.222 199.194 197.043 198.364C196.768 197.093 196.173 196.14 195.255 195.505C194.334 194.852 193.196 194.672 191.841 194.965C190.909 195.166 190.142 195.517 189.541 196.019C188.957 196.518 188.557 197.127 188.34 197.848C188.136 198.548 188.131 199.347 188.325 200.245C188.501 201.058 188.827 201.75 189.305 202.321C189.8 202.888 190.418 203.287 191.159 203.517C191.897 203.73 192.74 203.734 193.689 203.53ZM185.857 188.808L189.038 203.549C189.137 204.006 189.223 204.529 189.296 205.116C189.37 205.703 189.423 206.197 189.457 206.597L186.839 207.162L183.011 189.422L185.857 188.808ZM200.206 185.712L203.027 185.103L206.855 202.843L204.034 203.452L200.206 185.712ZM219.956 195.654L222.675 195.067C222.726 195.96 222.553 196.804 222.158 197.599C221.775 198.373 221.168 199.054 220.337 199.641C219.503 200.211 218.45 200.633 217.179 200.908C215.739 201.218 214.395 201.234 213.146 200.953C211.894 200.656 210.84 200.086 209.984 199.242C209.128 198.398 208.554 197.298 208.262 195.943C207.973 194.604 208.034 193.368 208.445 192.233C208.856 191.098 209.554 190.141 210.538 189.361C211.54 188.577 212.769 188.028 214.226 187.714C215.734 187.388 217.046 187.389 218.163 187.715C219.293 188.021 220.219 188.655 220.94 189.616C221.658 190.561 222.149 191.847 222.411 193.475L211.254 195.882C211.492 196.576 211.86 197.17 212.357 197.666C212.867 198.141 213.488 198.468 214.218 198.647C214.945 198.81 215.748 198.796 216.63 198.606C217.612 198.394 218.392 198.022 218.969 197.489C219.562 196.953 219.891 196.342 219.956 195.654ZM214.643 190.018C213.491 190.266 212.604 190.759 211.983 191.496C211.358 192.216 211.031 193.04 211.001 193.969L219.159 192.208C218.886 191.274 218.346 190.619 217.538 190.244C216.727 189.852 215.762 189.776 214.643 190.018ZM229.293 184.755L232.114 184.146L234.845 196.803L232.024 197.412L229.293 184.755ZM237.21 185.574C236.295 185.771 235.549 186.136 234.972 186.668C234.413 187.197 233.998 187.783 233.729 188.426C233.46 189.069 233.306 189.67 233.267 190.228L232.934 188.81C232.911 188.62 232.91 188.328 232.931 187.933C232.949 187.522 233.01 187.065 233.115 186.564C233.236 186.059 233.429 185.556 233.693 185.056C233.971 184.535 234.343 184.082 234.81 183.698C235.294 183.31 235.9 183.037 236.629 182.88L237.21 185.574ZM251.228 188.906L253.947 188.319C253.998 189.212 253.826 190.056 253.43 190.851C253.047 191.625 252.441 192.306 251.61 192.893C250.775 193.463 249.723 193.885 248.452 194.16C247.012 194.47 245.667 194.486 244.419 194.205C243.166 193.908 242.112 193.338 241.257 192.494C240.401 191.65 239.826 190.55 239.534 189.195C239.245 187.856 239.306 186.62 239.717 185.485C240.129 184.35 240.826 183.392 241.811 182.613C242.812 181.829 244.041 181.28 245.498 180.966C247.006 180.64 248.319 180.641 249.435 180.967C250.565 181.273 251.491 181.907 252.213 182.868C252.931 183.813 253.421 185.099 253.684 186.727L242.527 189.134C242.765 189.828 243.132 190.422 243.63 190.918C244.14 191.393 244.76 191.72 245.49 191.899C246.217 192.062 247.021 192.048 247.902 191.858C248.885 191.646 249.664 191.274 250.241 190.741C250.835 190.205 251.164 189.593 251.228 188.906ZM245.916 183.269C244.764 183.518 243.877 184.011 243.256 184.748C242.631 185.468 242.303 186.292 242.273 187.221L250.431 185.46C250.159 184.526 249.619 183.871 248.811 183.496C247.999 183.104 247.034 183.028 245.916 183.269ZM265.632 190.452C264.599 190.675 263.674 190.662 262.858 190.413C262.058 190.16 261.367 189.75 260.784 189.184C260.214 188.598 259.745 187.946 259.377 187.227C259.006 186.492 258.745 185.776 258.595 185.082C258.394 184.15 258.301 183.266 258.315 182.429C258.347 181.589 258.51 180.827 258.806 180.142C259.115 179.437 259.589 178.838 260.227 178.346C260.879 177.833 261.73 177.463 262.781 177.236C263.967 176.98 265.096 177.038 266.169 177.41C267.239 177.764 268.161 178.381 268.936 179.26C269.707 180.122 270.233 181.205 270.515 182.51C270.796 183.814 270.757 185.029 270.397 186.153C270.05 187.256 269.462 188.19 268.634 188.953C267.802 189.7 266.801 190.2 265.632 190.452ZM264.289 188.295C265.136 188.112 265.843 187.773 266.41 187.279C266.978 186.784 267.37 186.176 267.586 185.456C267.803 184.735 267.822 183.96 267.643 183.129C267.369 181.859 266.773 180.906 265.856 180.27C264.935 179.618 263.796 179.438 262.441 179.73C261.594 179.913 260.87 180.255 260.269 180.757C259.668 181.26 259.242 181.875 258.991 182.602C258.737 183.313 258.706 184.118 258.9 185.016C259.076 185.829 259.411 186.519 259.906 187.086C260.4 187.654 261.018 188.052 261.76 188.282C262.497 188.496 263.34 188.5 264.289 188.295ZM254.708 179.271L257.402 178.69L258.198 181.763L261.357 196.402L258.536 197.011L254.708 179.271ZM280.093 187.332C278.941 187.58 277.822 187.529 276.735 187.179C275.666 186.824 274.737 186.218 273.949 185.359C273.174 184.48 272.648 183.397 272.37 182.109C272.085 180.788 272.124 179.573 272.488 178.466C272.849 177.342 273.46 176.395 274.322 175.624C275.184 174.853 276.225 174.335 277.445 174.072C278.8 173.78 279.94 173.844 280.864 174.265C281.789 174.686 282.528 175.36 283.083 176.287C283.637 177.213 284.048 178.295 284.315 179.532C284.465 180.226 284.522 180.985 284.487 181.809C284.448 182.615 284.28 183.396 283.982 184.152C283.701 184.904 283.242 185.571 282.605 186.151C281.981 186.712 281.144 187.105 280.093 187.332ZM280.453 184.807C281.402 184.602 282.168 184.251 282.752 183.752C283.349 183.233 283.748 182.615 283.948 181.898C284.165 181.178 284.186 180.411 284.01 179.598C283.816 178.7 283.474 177.976 282.983 177.425C282.488 176.858 281.874 176.477 281.14 176.28C280.402 176.067 279.559 176.063 278.61 176.268C277.255 176.56 276.29 177.185 275.716 178.142C275.143 179.099 274.993 180.213 275.267 181.484C275.446 182.314 275.783 183.013 276.278 183.58C276.79 184.144 277.406 184.534 278.127 184.751C278.847 184.967 279.623 184.986 280.453 184.807ZM282.639 173.244L285.485 172.63L288.217 185.286L285.573 185.857C285.573 185.857 285.522 185.699 285.418 185.385C285.315 185.07 285.197 184.688 285.064 184.238C284.928 183.77 284.814 183.325 284.723 182.902L282.639 173.244ZM287.443 172.207L290.467 171.555L298.197 182.601L295.867 183.635L287.443 172.207ZM301.548 169.164L297.243 188.658L294.27 189.3L296.254 181.61L298.524 169.816L301.548 169.164ZM303.577 168.726L306.398 168.117L309.13 180.774L306.309 181.382L303.577 168.726ZM311.675 166.686C312.404 166.528 313.095 166.486 313.749 166.557C314.42 166.625 315.021 166.824 315.553 167.152C316.098 167.46 316.555 167.894 316.924 168.452C317.31 169.007 317.592 169.7 317.771 170.53L319.499 178.536L316.678 179.145L315.071 171.698C314.848 170.665 314.429 169.957 313.815 169.575C313.214 169.173 312.38 169.087 311.312 169.317C310.499 169.493 309.792 169.832 309.191 170.334C308.603 170.815 308.158 171.381 307.855 172.032C307.548 172.665 307.433 173.32 307.507 173.995L307.186 172.628C307.135 171.983 307.194 171.35 307.361 170.729C307.525 170.09 307.796 169.5 308.176 168.957C308.551 168.397 309.034 167.921 309.623 167.528C310.212 167.134 310.896 166.854 311.675 166.686ZM321.765 164.508C322.511 164.348 323.21 164.303 323.864 164.375C324.518 164.446 325.111 164.646 325.643 164.975C326.188 165.283 326.653 165.714 327.039 166.27C327.425 166.825 327.707 167.517 327.887 168.348L329.614 176.353L326.768 176.968L325.161 169.521C324.938 168.487 324.519 167.78 323.905 167.398C323.304 166.996 322.469 166.91 321.402 167.14C320.589 167.316 319.882 167.654 319.281 168.157C318.693 168.638 318.248 169.204 317.945 169.855C317.655 170.484 317.548 171.137 317.623 171.813L317.265 170.4C317.218 169.772 317.286 169.145 317.471 168.521C317.651 167.879 317.931 167.286 318.311 166.743C318.69 166.2 319.166 165.734 319.738 165.345C320.327 164.952 321.003 164.673 321.765 164.508ZM342.39 169.234L345.109 168.648C345.16 169.541 344.987 170.385 344.591 171.18C344.209 171.954 343.602 172.635 342.771 173.222C341.937 173.792 340.884 174.214 339.613 174.488C338.173 174.799 336.829 174.814 335.58 174.534C334.328 174.237 333.274 173.666 332.418 172.822C331.562 171.979 330.988 170.879 330.695 169.524C330.407 168.185 330.468 166.948 330.879 165.813C331.29 164.678 331.988 163.721 332.972 162.941C333.974 162.158 335.203 161.609 336.66 161.294C338.168 160.969 339.48 160.969 340.597 161.296C341.727 161.602 342.653 162.235 343.374 163.197C344.092 164.141 344.583 165.428 344.845 167.055L333.688 169.463C333.926 170.156 334.294 170.751 334.791 171.246C335.301 171.721 335.922 172.049 336.652 172.228C337.379 172.39 338.182 172.377 339.063 172.186C340.046 171.974 340.826 171.602 341.403 171.07C341.996 170.534 342.325 169.922 342.39 169.234ZM337.077 163.598C335.925 163.847 335.038 164.34 334.417 165.076C333.792 165.796 333.465 166.621 333.435 167.549L341.593 165.789C341.32 164.855 340.78 164.2 339.972 163.825C339.16 163.432 338.195 163.357 337.077 163.598ZM345.87 159.6L348.691 158.991L351.422 171.648L348.601 172.256L345.87 159.6ZM353.968 157.56C354.696 157.402 355.387 157.36 356.041 157.431C356.712 157.499 357.313 157.698 357.845 158.026C358.39 158.334 358.847 158.767 359.216 159.326C359.602 159.881 359.884 160.574 360.064 161.404L361.791 169.41L358.97 170.019L357.363 162.572C357.14 161.539 356.722 160.831 356.107 160.449C355.506 160.047 354.672 159.961 353.604 160.191C352.791 160.367 352.084 160.706 351.483 161.208C350.895 161.689 350.45 162.255 350.147 162.906C349.841 163.539 349.725 164.194 349.8 164.869L349.478 163.502C349.427 162.857 349.486 162.224 349.653 161.603C349.817 160.964 350.088 160.374 350.468 159.831C350.844 159.271 351.326 158.795 351.915 158.402C352.504 158.008 353.188 157.728 353.968 157.56ZM361.286 156.273L370.232 154.342L370.732 156.655L361.785 158.586L361.286 156.273ZM363.601 152.209L366.448 151.595L369.914 167.657L367.067 168.271L363.601 152.209Z" fill="white"/>
<circle cx="108.859" cy="287.928" r="14" transform="rotate(-12.1769 108.859 287.928)" fill="white"/>
<circle cx="108.859" cy="287.928" r="9" transform="rotate(-12.1769 108.859 287.928)" fill="#23A323"/>
<path d="M140.325 272.598L143.341 286.576L153.609 284.36L154.146 286.851L140.981 289.692L137.428 273.223L140.325 272.598ZM163.23 285.183C161.823 285.487 160.506 285.505 159.278 285.238C158.05 284.971 157.008 284.416 156.153 283.572C155.297 282.728 154.717 281.603 154.414 280.197C154.114 278.807 154.18 277.552 154.612 276.43C155.04 275.292 155.756 274.339 156.761 273.573C157.766 272.806 158.972 272.271 160.378 271.968C161.784 271.664 163.095 271.656 164.309 271.944C165.524 272.231 166.553 272.807 167.395 273.672C168.251 274.516 168.829 275.632 169.129 277.021C169.432 278.428 169.368 279.692 168.936 280.813C168.521 281.931 167.818 282.863 166.827 283.609C165.835 284.355 164.636 284.88 163.23 285.183ZM162.731 282.871C163.544 282.695 164.255 282.373 164.863 281.905C165.471 281.437 165.901 280.839 166.152 280.111C166.419 279.379 166.454 278.556 166.257 277.641C166.06 276.726 165.688 275.991 165.142 275.435C164.614 274.875 163.974 274.499 163.223 274.306C162.486 274.093 161.702 274.076 160.872 274.255C160.041 274.434 159.324 274.766 158.719 275.251C158.115 275.736 157.67 276.347 157.385 277.082C157.118 277.813 157.084 278.645 157.285 279.577C157.483 280.492 157.854 281.228 158.4 281.784C158.946 282.34 159.592 282.706 160.339 282.881C161.103 283.053 161.9 283.05 162.731 282.871ZM187.203 277.484L186.359 277.639L187.779 266.347L190.88 265.678L188.68 279.399L186.012 279.975L179.796 270.278L180.686 270.086L178.921 281.505L176.252 282.081L168.692 270.466L171.793 269.797L177.647 279.546L176.808 279.727L178.147 268.426L181.451 267.713L187.203 277.484ZM200.922 257.899L201.509 260.619L198.129 261.348L197.542 258.628L200.922 257.899ZM198.953 263.936L201.8 263.322L204.531 275.979L201.684 276.593L198.953 263.936ZM205.179 262.593L208 261.984L210.731 274.641L207.91 275.25L205.179 262.593ZM213.277 260.553C214.005 260.396 214.696 260.353 215.35 260.425C216.021 260.493 216.622 260.691 217.154 261.019C217.699 261.327 218.156 261.761 218.525 262.319C218.911 262.875 219.193 263.567 219.373 264.398L221.1 272.403L218.279 273.012L216.672 265.565C216.449 264.532 216.031 263.824 215.416 263.443C214.815 263.04 213.981 262.954 212.913 263.185C212.1 263.36 211.393 263.699 210.792 264.201C210.204 264.682 209.759 265.248 209.456 265.899C209.15 266.533 209.034 267.187 209.109 267.862L208.787 266.496C208.736 265.85 208.795 265.217 208.962 264.596C209.126 263.958 209.398 263.367 209.777 262.824C210.153 262.264 210.635 261.788 211.224 261.395C211.813 261.002 212.497 260.721 213.277 260.553ZM220.595 259.266L229.542 257.336L230.041 259.648L221.094 261.579L220.595 259.266ZM222.91 255.202L225.757 254.588L229.223 270.65L226.376 271.265L222.91 255.202ZM243.966 263.107L246.685 262.52C246.736 263.414 246.564 264.258 246.168 265.052C245.785 265.826 245.178 266.507 244.348 267.094C243.513 267.664 242.46 268.087 241.19 268.361C239.75 268.672 238.405 268.687 237.157 268.407C235.904 268.109 234.85 267.539 233.994 266.695C233.139 265.851 232.564 264.752 232.272 263.396C231.983 262.058 232.044 260.821 232.455 259.686C232.867 258.551 233.564 257.594 234.549 256.814C235.55 256.03 236.779 255.481 238.236 255.167C239.744 254.842 241.057 254.842 242.173 255.169C243.303 255.474 244.229 256.108 244.951 257.069C245.669 258.014 246.159 259.3 246.422 260.928L235.264 263.336C235.503 264.029 235.87 264.623 236.367 265.119C236.878 265.594 237.498 265.921 238.228 266.101C238.955 266.263 239.759 266.249 240.64 266.059C241.623 265.847 242.402 265.475 242.979 264.942C243.573 264.407 243.902 263.795 243.966 263.107ZM238.654 257.471C237.501 257.719 236.615 258.212 235.994 258.949C235.369 259.669 235.041 260.493 235.011 261.422L243.169 259.662C242.897 258.727 242.357 258.073 241.549 257.697C240.737 257.305 239.772 257.229 238.654 257.471ZM247.446 253.472L250.267 252.863L252.998 265.52L250.177 266.129L247.446 253.472ZM255.363 254.291C254.448 254.488 253.702 254.853 253.125 255.385C252.566 255.914 252.151 256.5 251.882 257.143C251.613 257.786 251.459 258.387 251.42 258.945L251.087 257.527C251.064 257.337 251.063 257.045 251.084 256.65C251.102 256.239 251.163 255.782 251.267 255.281C251.389 254.776 251.582 254.273 251.846 253.773C252.124 253.252 252.496 252.799 252.963 252.415C253.447 252.027 254.053 251.754 254.781 251.597L255.363 254.291ZM269.381 257.623L272.1 257.036C272.151 257.929 271.979 258.773 271.583 259.568C271.2 260.342 270.593 261.023 269.763 261.61C268.928 262.18 267.875 262.602 266.605 262.877C265.165 263.187 263.82 263.203 262.572 262.922C261.319 262.625 260.265 262.055 259.409 261.211C258.554 260.367 257.979 259.267 257.687 257.912C257.398 256.573 257.459 255.337 257.87 254.202C258.282 253.067 258.979 252.109 259.964 251.33C260.965 250.546 262.194 249.997 263.651 249.683C265.159 249.357 266.472 249.358 267.588 249.684C268.718 249.99 269.644 250.624 270.366 251.585C271.084 252.53 271.574 253.816 271.837 255.444L260.679 257.851C260.918 258.545 261.285 259.139 261.782 259.635C262.293 260.11 262.913 260.437 263.643 260.616C264.37 260.779 265.174 260.765 266.055 260.575C267.038 260.363 267.817 259.991 268.394 259.458C268.988 258.922 269.317 258.311 269.381 257.623ZM264.069 251.987C262.916 252.235 262.03 252.728 261.409 253.465C260.784 254.185 260.456 255.009 260.426 255.938L268.584 254.177C268.312 253.243 267.772 252.588 266.964 252.213C266.152 251.821 265.187 251.745 264.069 251.987ZM274.134 256.597L276.751 256.032C277.026 256.647 277.487 257.097 278.133 257.383C278.777 257.652 279.573 257.684 280.521 257.48C281.131 257.348 281.591 257.178 281.901 256.969C282.227 256.757 282.433 256.518 282.517 256.251C282.619 255.981 282.636 255.693 282.57 255.388C282.49 255.016 282.318 254.751 282.054 254.596C281.806 254.436 281.465 254.333 281.029 254.285C280.593 254.237 280.059 254.228 279.427 254.258C278.768 254.241 278.113 254.205 277.462 254.15C276.812 254.095 276.212 253.985 275.662 253.82C275.109 253.638 274.642 253.367 274.263 253.005C273.897 252.623 273.646 252.119 273.511 251.492C273.386 250.916 273.402 250.372 273.557 249.859C273.726 249.326 274.013 248.848 274.418 248.423C274.823 247.999 275.329 247.633 275.936 247.324C276.54 246.999 277.223 246.754 277.985 246.59C279.087 246.352 280.04 246.332 280.845 246.531C281.668 246.726 282.335 247.105 282.846 247.669C283.375 248.228 283.729 248.923 283.908 249.754L281.417 250.291C281.136 249.643 280.767 249.208 280.311 248.987C279.856 248.766 279.238 248.74 278.459 248.908C277.68 249.076 277.116 249.34 276.768 249.698C276.42 250.057 276.297 250.474 276.399 250.948C276.476 251.304 276.665 251.565 276.967 251.73C277.282 251.875 277.701 251.971 278.226 252.017C278.75 252.064 279.359 252.092 280.053 252.102C280.699 252.139 281.314 252.193 281.896 252.262C282.475 252.315 283.005 252.431 283.487 252.611C283.983 252.77 284.403 253.034 284.749 253.402C285.094 253.771 285.335 254.269 285.47 254.896C285.638 255.675 285.571 256.39 285.268 257.041C284.982 257.688 284.482 258.248 283.768 258.721C283.051 259.177 282.142 259.524 281.04 259.762C280.075 259.97 279.212 260.041 278.453 259.974C277.711 259.904 277.064 259.742 276.513 259.488C275.979 259.231 275.541 258.927 275.199 258.575C274.857 258.223 274.595 257.872 274.413 257.521C274.248 257.167 274.155 256.859 274.134 256.597ZM285.151 245.336L294.097 243.406L294.596 245.718L285.65 247.649L285.151 245.336ZM287.466 241.272L290.312 240.658L293.778 256.72L290.932 257.335L287.466 241.272ZM297.588 251.536L300.206 250.971C300.48 251.586 300.941 252.036 301.588 252.322C302.231 252.591 303.027 252.623 303.976 252.419C304.586 252.287 305.046 252.117 305.355 251.908C305.682 251.696 305.887 251.456 305.972 251.19C306.073 250.92 306.091 250.632 306.025 250.327C305.944 249.955 305.772 249.69 305.508 249.535C305.261 249.375 304.919 249.271 304.483 249.224C304.047 249.176 303.514 249.167 302.882 249.197C302.222 249.18 301.567 249.144 300.917 249.089C300.266 249.034 299.666 248.924 299.117 248.759C298.563 248.577 298.097 248.306 297.717 247.944C297.351 247.562 297.1 247.058 296.965 246.431C296.841 245.855 296.856 245.31 297.012 244.798C297.18 244.265 297.467 243.787 297.872 243.362C298.277 242.938 298.783 242.572 299.391 242.263C299.994 241.938 300.677 241.693 301.44 241.529C302.541 241.291 303.494 241.271 304.3 241.47C305.122 241.665 305.789 242.044 306.301 242.608C306.829 243.167 307.183 243.862 307.362 244.692L304.872 245.23C304.59 244.581 304.221 244.147 303.766 243.926C303.31 243.705 302.693 243.679 301.913 243.847C301.134 244.015 300.57 244.278 300.222 244.637C299.874 244.996 299.751 245.413 299.853 245.887C299.93 246.243 300.119 246.504 300.421 246.669C300.736 246.814 301.156 246.91 301.68 246.956C302.204 247.002 302.813 247.031 303.507 247.041C304.153 247.078 304.768 247.132 305.35 247.201C305.929 247.254 306.459 247.37 306.941 247.55C307.437 247.709 307.857 247.973 308.203 248.341C308.548 248.71 308.789 249.208 308.924 249.835C309.092 250.614 309.025 251.329 308.722 251.98C308.436 252.627 307.936 253.187 307.223 253.66C306.505 254.116 305.596 254.463 304.495 254.7C303.529 254.909 302.667 254.98 301.907 254.913C301.165 254.843 300.518 254.681 299.967 254.427C299.433 254.17 298.995 253.866 298.653 253.514C298.311 253.162 298.049 252.811 297.867 252.46C297.702 252.106 297.609 251.798 297.588 251.536Z" fill="white"/>
<circle cx="123.904" cy="357.651" r="14" transform="rotate(-12.1769 123.904 357.651)" fill="white"/>
<circle cx="123.904" cy="357.651" r="9" transform="rotate(-12.1769 123.904 357.651)" fill="#23A323"/>
<path d="M163.194 356.389L166.04 355.775L167.373 361.951L164.526 362.565L163.194 356.389ZM164.919 357.48C162.987 357.897 161.226 357.913 159.636 357.529C158.063 357.142 156.741 356.398 155.671 355.299C154.617 354.197 153.9 352.764 153.52 351.002C153.14 349.24 153.202 347.64 153.707 346.201C154.226 344.741 155.124 343.519 156.4 342.534C157.691 341.529 159.302 340.818 161.233 340.401C163.182 339.98 164.943 339.964 166.516 340.352C168.085 340.722 169.399 341.467 170.456 342.587C171.526 343.686 172.252 345.116 172.632 346.878C173.012 348.64 172.941 350.243 172.419 351.685C171.914 353.124 171.025 354.345 169.751 355.346C168.478 356.348 166.867 357.059 164.919 357.48ZM164.37 354.938C165.658 354.66 166.746 354.195 167.633 353.543C168.521 352.89 169.149 352.063 169.518 351.061C169.901 350.039 169.947 348.858 169.658 347.52C169.373 346.198 168.848 345.159 168.081 344.402C167.328 343.625 166.413 343.122 165.335 342.894C164.254 342.648 163.069 342.665 161.782 342.942C160.511 343.217 159.425 343.69 158.524 344.363C157.62 345.02 156.976 345.859 156.594 346.881C156.208 347.887 156.157 349.05 156.443 350.372C156.731 351.71 157.261 352.766 158.031 353.54C158.797 354.297 159.727 354.788 160.822 355.012C161.917 355.237 163.099 355.212 164.37 354.938ZM190.508 351.639L187.687 352.248L184.956 339.591L187.777 338.982L190.508 351.639ZM186.54 346.191L186.74 346.999C186.754 347.227 186.749 347.574 186.726 348.04C186.719 348.502 186.645 349.023 186.504 349.603C186.377 350.163 186.161 350.724 185.857 351.286C185.566 351.827 185.157 352.315 184.63 352.748C184.099 353.164 183.41 353.463 182.562 353.646C181.953 353.778 181.316 353.826 180.652 353.792C180.009 353.771 179.394 353.629 178.805 353.366C178.233 353.099 177.725 352.677 177.281 352.099C176.837 351.521 176.509 350.741 176.297 349.758L174.586 341.828L177.407 341.22L179.003 348.615C179.175 349.412 179.438 350.011 179.79 350.414C180.157 350.796 180.597 351.029 181.112 351.113C181.626 351.197 182.197 351.171 182.824 351.036C183.722 350.842 184.44 350.474 184.98 349.933C185.519 349.391 185.911 348.783 186.156 348.109C186.414 347.415 186.542 346.776 186.54 346.191ZM193.039 332.234L193.626 334.954L190.246 335.683L189.659 332.964L193.039 332.234ZM191.071 338.271L193.917 337.657L196.648 350.314L193.802 350.928L191.071 338.271ZM212.591 341.74C212.724 342.846 212.577 343.853 212.152 344.761C211.728 345.668 211.059 346.433 210.147 347.055C209.252 347.674 208.161 348.122 206.873 348.4C205.484 348.7 204.167 348.718 202.922 348.455C201.694 348.188 200.644 347.634 199.771 346.794C198.898 345.954 198.31 344.831 198.006 343.424C197.703 342.018 197.776 340.752 198.224 339.627C198.673 338.502 199.4 337.556 200.405 336.789C201.427 336.019 202.632 335.484 204.022 335.184C205.309 334.906 206.49 334.873 207.564 335.085C208.635 335.279 209.549 335.694 210.306 336.328C211.064 336.963 211.61 337.811 211.946 338.874L209.354 339.433C208.872 338.597 208.197 338.016 207.328 337.689C206.473 337.342 205.537 337.278 204.521 337.497C203.69 337.676 202.965 338.01 202.343 338.499C201.718 338.971 201.263 339.574 200.978 340.309C200.707 341.024 200.673 341.856 200.878 342.805C201.079 343.737 201.453 344.481 201.998 345.037C202.561 345.589 203.224 345.951 203.988 346.123C204.749 346.278 205.544 346.266 206.374 346.087C207.493 345.846 208.354 345.403 208.96 344.758C209.579 344.092 209.925 343.273 209.999 342.299L212.591 341.74ZM212.561 328.314L215.382 327.706L219.21 345.445L216.389 346.054L212.561 328.314ZM226.34 330.661L220.653 338.697L220.346 336.902L229.605 343.202L225.996 343.981L217.756 338.338L222.426 331.505L226.34 330.661ZM242.959 340.613C241.807 340.862 240.687 340.811 239.601 340.46C238.531 340.106 237.603 339.499 236.814 338.641C236.04 337.762 235.513 336.679 235.235 335.391C234.95 334.069 234.99 332.855 235.354 331.748C235.714 330.624 236.325 329.676 237.187 328.905C238.049 328.134 239.09 327.617 240.31 327.354C241.666 327.061 242.806 327.125 243.73 327.547C244.654 327.968 245.394 328.642 245.948 329.568C246.503 330.495 246.914 331.576 247.18 332.813C247.33 333.508 247.388 334.267 247.353 335.09C247.314 335.897 247.145 336.678 246.847 337.433C246.566 338.186 246.107 338.852 245.47 339.433C244.846 339.993 244.009 340.387 242.959 340.613ZM243.318 338.089C244.267 337.884 245.034 337.532 245.618 337.034C246.215 336.515 246.613 335.897 246.813 335.18C247.03 334.459 247.051 333.692 246.875 332.879C246.682 331.981 246.339 331.257 245.848 330.707C245.353 330.14 244.739 329.758 244.005 329.562C243.268 329.349 242.424 329.344 241.476 329.549C240.12 329.842 239.156 330.467 238.582 331.424C238.008 332.381 237.858 333.495 238.133 334.766C238.312 335.596 238.649 336.295 239.144 336.862C239.655 337.425 240.271 337.815 240.992 338.032C241.713 338.249 242.488 338.268 243.318 338.089ZM245.504 326.525L248.351 325.911L251.082 338.568L248.439 339.138C248.439 339.138 248.387 338.981 248.284 338.666C248.18 338.352 248.063 337.969 247.93 337.519C247.794 337.052 247.68 336.607 247.588 336.183L245.504 326.525ZM251.452 325.242L254.273 324.633L257.004 337.29L254.183 337.899L251.452 325.242ZM259.55 323.202C260.278 323.045 260.97 323.002 261.623 323.074C262.294 323.142 262.896 323.34 263.427 323.669C263.973 323.976 264.43 324.41 264.799 324.969C265.184 325.524 265.467 326.216 265.646 327.047L267.373 335.052L264.552 335.661L262.946 328.214C262.722 327.181 262.304 326.473 261.689 326.092C261.088 325.689 260.254 325.603 259.187 325.834C258.374 326.009 257.666 326.348 257.065 326.85C256.478 327.332 256.032 327.898 255.73 328.548C255.423 329.182 255.307 329.836 255.382 330.512L255.06 329.145C255.01 328.499 255.068 327.866 255.236 327.245C255.399 326.607 255.671 326.016 256.05 325.473C256.426 324.913 256.908 324.437 257.497 324.044C258.086 323.651 258.77 323.37 259.55 323.202ZM276.192 333.442C275.023 333.694 273.895 333.645 272.809 333.294C271.739 332.94 270.819 332.332 270.048 331.47C269.273 330.591 268.746 329.507 268.469 328.22C268.183 326.898 268.206 325.687 268.536 324.588C268.879 323.467 269.457 322.527 270.268 321.767C271.096 321.003 272.12 320.489 273.34 320.226C274.407 319.996 275.344 319.98 276.149 320.179C276.951 320.36 277.629 320.71 278.185 321.229C278.736 321.731 279.191 322.359 279.549 323.116C279.924 323.868 280.212 324.71 280.414 325.642C280.563 326.337 280.621 327.096 280.586 327.919C280.547 328.725 280.379 329.506 280.081 330.262C279.8 331.014 279.341 331.681 278.703 332.262C278.08 332.822 277.242 333.215 276.192 333.442ZM276.551 330.917C277.5 330.713 278.267 330.361 278.851 329.863C279.448 329.344 279.847 328.726 280.047 328.009C280.263 327.288 280.284 326.521 280.109 325.708C279.915 324.81 279.572 324.086 279.081 323.536C278.587 322.969 277.97 322.578 277.233 322.365C276.495 322.152 275.652 322.148 274.703 322.353C273.348 322.645 272.385 323.278 271.815 324.253C271.241 325.21 271.092 326.324 271.366 327.594C271.545 328.425 271.882 329.123 272.377 329.69C272.888 330.254 273.505 330.644 274.225 330.861C274.946 331.078 275.721 331.097 276.551 330.917ZM277.641 314.271L280.487 313.657L284.315 331.397L281.672 331.967C281.554 331.585 281.407 331.111 281.232 330.546C281.057 329.981 280.92 329.469 280.822 329.012L277.641 314.271ZM292.311 325.309L294.929 324.744C295.204 325.359 295.664 325.809 296.311 326.095C296.954 326.364 297.75 326.396 298.699 326.191C299.309 326.06 299.769 325.89 300.079 325.681C300.405 325.469 300.611 325.229 300.695 324.963C300.796 324.693 300.814 324.405 300.748 324.1C300.668 323.727 300.496 323.463 300.231 323.307C299.984 323.148 299.643 323.044 299.207 322.996C298.771 322.949 298.237 322.94 297.605 322.97C296.945 322.953 296.29 322.917 295.64 322.862C294.99 322.807 294.39 322.697 293.84 322.532C293.287 322.35 292.82 322.078 292.441 321.717C292.074 321.335 291.824 320.83 291.688 320.203C291.564 319.627 291.58 319.083 291.735 318.571C291.904 318.038 292.191 317.559 292.596 317.135C293.001 316.711 293.507 316.344 294.114 316.036C294.718 315.711 295.401 315.466 296.163 315.301C297.264 315.064 298.218 315.044 299.023 315.243C299.845 315.438 300.512 315.817 301.024 316.38C301.553 316.94 301.907 317.635 302.086 318.465L299.595 319.003C299.313 318.354 298.945 317.92 298.489 317.699C298.034 317.478 297.416 317.451 296.637 317.62C295.857 317.788 295.294 318.051 294.945 318.41C294.597 318.769 294.474 319.186 294.577 319.66C294.654 320.016 294.843 320.276 295.145 320.442C295.459 320.587 295.879 320.682 296.403 320.729C296.928 320.775 297.537 320.803 298.23 320.813C298.877 320.851 299.491 320.905 300.074 320.974C300.652 321.027 301.183 321.143 301.665 321.322C302.16 321.481 302.581 321.745 302.926 322.114C303.272 322.483 303.512 322.981 303.648 323.608C303.816 324.387 303.748 325.102 303.445 325.752C303.159 326.399 302.66 326.959 301.946 327.432C301.229 327.889 300.32 328.236 299.218 328.473C298.252 328.682 297.39 328.753 296.631 328.686C295.889 328.615 295.242 328.454 294.691 328.2C294.157 327.943 293.718 327.639 293.377 327.287C293.035 326.935 292.773 326.584 292.591 326.233C292.425 325.878 292.332 325.57 292.311 325.309ZM316.622 320.063L319.342 319.476C319.393 320.37 319.22 321.214 318.824 322.008C318.441 322.782 317.835 323.463 317.004 324.05C316.169 324.62 315.117 325.043 313.846 325.317C312.406 325.628 311.061 325.643 309.813 325.363C308.561 325.065 307.507 324.495 306.651 323.651C305.795 322.807 305.221 321.708 304.928 320.352C304.639 319.014 304.7 317.777 305.112 316.642C305.523 315.507 306.221 314.55 307.205 313.77C308.206 312.986 309.435 312.437 310.893 312.123C312.401 311.798 313.713 311.798 314.829 312.125C315.959 312.43 316.885 313.064 317.607 314.026C318.325 314.97 318.815 316.256 319.078 317.884L307.921 320.292C308.159 320.985 308.527 321.579 309.024 322.075C309.534 322.55 310.154 322.877 310.885 323.057C311.611 323.219 312.415 323.205 313.296 323.015C314.279 322.803 315.059 322.431 315.635 321.899C316.229 321.363 316.558 320.751 316.622 320.063ZM311.31 314.427C310.158 314.675 309.271 315.168 308.65 315.905C308.025 316.625 307.698 317.449 307.667 318.378L315.826 316.618C315.553 315.683 315.013 315.029 314.205 314.653C313.393 314.261 312.428 314.185 311.31 314.427ZM335.397 315.24C335.53 316.347 335.384 317.353 334.959 318.261C334.534 319.168 333.865 319.933 332.954 320.555C332.059 321.174 330.967 321.622 329.68 321.9C328.29 322.2 326.973 322.218 325.728 321.955C324.5 321.688 323.45 321.134 322.577 320.294C321.704 319.454 321.116 318.331 320.813 316.925C320.509 315.518 320.582 314.252 321.03 313.127C321.479 312.002 322.206 311.056 323.211 310.289C324.233 309.519 325.438 308.984 326.828 308.684C328.115 308.407 329.296 308.373 330.37 308.585C331.441 308.779 332.355 309.194 333.113 309.828C333.87 310.463 334.417 311.311 334.752 312.374L332.16 312.933C331.678 312.097 331.003 311.516 330.135 311.189C329.279 310.842 328.343 310.778 327.327 310.997C326.497 311.176 325.771 311.51 325.149 311.999C324.524 312.471 324.069 313.074 323.784 313.81C323.513 314.524 323.48 315.356 323.684 316.305C323.886 317.237 324.259 317.981 324.804 318.537C325.367 319.089 326.03 319.452 326.794 319.624C327.555 319.779 328.35 319.767 329.18 319.587C330.299 319.346 331.161 318.903 331.766 318.258C332.385 317.593 332.731 316.773 332.805 315.8L335.397 315.24ZM352.132 316.763L349.311 317.372L346.579 304.715L349.4 304.106L352.132 316.763ZM348.163 311.315L348.364 312.123C348.378 312.351 348.373 312.697 348.349 313.164C348.343 313.626 348.269 314.147 348.128 314.727C348.001 315.287 347.785 315.848 347.481 316.41C347.19 316.951 346.78 317.439 346.253 317.872C345.722 318.288 345.033 318.587 344.186 318.77C343.576 318.902 342.939 318.95 342.276 318.916C341.633 318.895 341.017 318.753 340.429 318.49C339.857 318.223 339.349 317.801 338.905 317.223C338.461 316.645 338.133 315.865 337.921 314.882L336.21 306.952L339.031 306.344L340.627 313.739C340.799 314.536 341.061 315.135 341.414 315.538C341.78 315.92 342.221 316.153 342.735 316.237C343.25 316.321 343.821 316.295 344.448 316.16C345.346 315.966 346.064 315.598 346.603 315.056C347.142 314.515 347.534 313.907 347.779 313.233C348.037 312.539 348.165 311.9 348.163 311.315ZM352.516 303.434L355.337 302.825L358.069 315.482L355.248 316.09L352.516 303.434ZM360.433 304.252C359.518 304.45 358.772 304.815 358.196 305.347C357.636 305.875 357.222 306.461 356.952 307.105C356.683 307.748 356.529 308.349 356.49 308.907L356.158 307.489C356.134 307.299 356.133 307.007 356.155 306.612C356.172 306.2 356.233 305.744 356.338 305.242C356.459 304.737 356.652 304.235 356.917 303.734C357.194 303.213 357.567 302.761 358.033 302.376C358.517 301.988 359.123 301.715 359.852 301.558L360.433 304.252ZM374.451 307.584L377.171 306.998C377.222 307.891 377.049 308.735 376.653 309.53C376.271 310.304 375.664 310.984 374.833 311.572C373.998 312.142 372.946 312.564 371.675 312.838C370.235 313.149 368.891 313.164 367.642 312.884C366.39 312.587 365.336 312.016 364.48 311.172C363.624 310.329 363.05 309.229 362.757 307.874C362.468 306.535 362.53 305.298 362.941 304.163C363.352 303.028 364.05 302.071 365.034 301.291C366.035 300.508 367.265 299.959 368.722 299.644C370.23 299.319 371.542 299.319 372.659 299.646C373.789 299.952 374.714 300.585 375.436 301.547C376.154 302.491 376.644 303.777 376.907 305.405L365.75 307.813C365.988 308.506 366.356 309.101 366.853 309.596C367.363 310.071 367.983 310.399 368.714 310.578C369.44 310.74 370.244 310.726 371.125 310.536C372.108 310.324 372.888 309.952 373.464 309.42C374.058 308.884 374.387 308.272 374.451 307.584ZM369.139 301.948C367.987 302.197 367.1 302.689 366.479 303.426C365.854 304.146 365.527 304.971 365.496 305.899L373.655 304.139C373.382 303.205 372.842 302.55 372.034 302.175C371.222 301.782 370.257 301.707 369.139 301.948ZM382.946 291.548L385.767 290.939L389.595 308.679L386.774 309.287L382.946 291.548ZM399.818 306.765C398.412 307.069 397.094 307.087 395.867 306.82C394.639 306.553 393.597 305.998 392.741 305.154C391.885 304.31 391.305 303.185 391.002 301.779C390.702 300.389 390.768 299.134 391.2 298.012C391.628 296.874 392.344 295.921 393.349 295.155C394.354 294.388 395.56 293.853 396.966 293.55C398.372 293.246 399.683 293.238 400.898 293.526C402.112 293.813 403.141 294.389 403.983 295.254C404.839 296.098 405.417 297.214 405.717 298.603C406.02 300.01 405.956 301.274 405.525 302.395C405.11 303.513 404.406 304.445 403.415 305.191C402.423 305.937 401.224 306.462 399.818 306.765ZM399.319 304.453C400.132 304.277 400.843 303.955 401.451 303.487C402.059 303.019 402.489 302.421 402.74 301.693C403.007 300.961 403.043 300.138 402.845 299.223C402.648 298.308 402.276 297.573 401.731 297.017C401.202 296.457 400.562 296.081 399.811 295.888C399.074 295.675 398.29 295.658 397.46 295.837C396.629 296.016 395.912 296.348 395.307 296.833C394.703 297.318 394.258 297.929 393.974 298.664C393.706 299.395 393.673 300.227 393.874 301.159C394.071 302.074 394.443 302.81 394.988 303.366C395.534 303.922 396.18 304.288 396.927 304.463C397.691 304.635 398.489 304.632 399.319 304.453ZM415.304 303.424C414.152 303.672 413.033 303.621 411.947 303.27C410.877 302.916 409.948 302.31 409.16 301.451C408.385 300.572 407.859 299.489 407.581 298.201C407.296 296.88 407.335 295.665 407.699 294.558C408.06 293.434 408.671 292.487 409.533 291.716C410.395 290.944 411.436 290.427 412.656 290.164C414.011 289.871 415.151 289.936 416.076 290.357C417 290.778 417.739 291.452 418.294 292.379C418.848 293.305 419.259 294.387 419.526 295.624C419.676 296.318 419.733 297.077 419.698 297.901C419.659 298.707 419.491 299.488 419.193 300.244C418.912 300.996 418.453 301.663 417.816 302.243C417.192 302.803 416.355 303.197 415.304 303.424ZM415.664 300.899C416.613 300.694 417.379 300.343 417.963 299.844C418.56 299.325 418.959 298.707 419.159 297.99C419.376 297.27 419.397 296.503 419.221 295.689C419.027 294.791 418.685 294.067 418.194 293.517C417.699 292.95 417.085 292.569 416.351 292.372C415.613 292.159 414.77 292.155 413.821 292.36C412.466 292.652 411.501 293.277 410.928 294.234C410.354 295.191 410.204 296.305 410.478 297.576C410.658 298.406 410.994 299.105 411.489 299.672C412.001 300.235 412.617 300.626 413.338 300.842C414.058 301.059 414.834 301.078 415.664 300.899ZM417.85 289.336L420.697 288.721L423.428 301.378L420.785 301.948C420.785 301.948 420.733 301.791 420.629 301.477C420.526 301.162 420.408 300.78 420.276 300.329C420.139 299.862 420.025 299.417 419.934 298.993L417.85 289.336ZM423.798 288.052L426.619 287.444L429.35 300.1L426.529 300.709L423.798 288.052ZM431.895 286.012C432.624 285.855 433.315 285.812 433.969 285.884C434.64 285.952 435.241 286.15 435.773 286.479C436.318 286.787 436.775 287.22 437.144 287.779C437.53 288.334 437.812 289.027 437.992 289.857L439.719 297.863L436.898 298.471L435.291 291.025C435.068 289.991 434.649 289.284 434.035 288.902C433.434 288.5 432.6 288.414 431.532 288.644C430.719 288.82 430.012 289.158 429.411 289.66C428.823 290.142 428.378 290.708 428.075 291.358C427.769 291.992 427.653 292.647 427.728 293.322L427.406 291.955C427.355 291.31 427.414 290.677 427.581 290.055C427.745 289.417 428.016 288.826 428.396 288.284C428.772 287.724 429.254 287.247 429.843 286.854C430.432 286.461 431.116 286.18 431.895 286.012ZM441.377 293.143L443.994 292.578C444.269 293.193 444.729 293.643 445.376 293.929C446.02 294.198 446.816 294.23 447.764 294.025C448.374 293.894 448.834 293.724 449.144 293.515C449.47 293.303 449.676 293.063 449.76 292.797C449.861 292.527 449.879 292.239 449.813 291.934C449.733 291.561 449.561 291.297 449.296 291.141C449.049 290.982 448.708 290.878 448.272 290.83C447.836 290.783 447.302 290.774 446.67 290.804C446.01 290.786 445.355 290.75 444.705 290.696C444.055 290.641 443.455 290.531 442.905 290.366C442.352 290.184 441.885 289.912 441.506 289.551C441.14 289.169 440.889 288.664 440.754 288.037C440.629 287.461 440.645 286.917 440.8 286.405C440.969 285.872 441.256 285.393 441.661 284.969C442.066 284.545 442.572 284.178 443.179 283.87C443.783 283.545 444.466 283.3 445.228 283.135C446.33 282.898 447.283 282.878 448.088 283.077C448.911 283.272 449.578 283.651 450.089 284.214C450.618 284.774 450.972 285.469 451.151 286.299L448.66 286.837C448.378 286.188 448.01 285.753 447.554 285.533C447.099 285.312 446.481 285.285 445.702 285.454C444.923 285.622 444.359 285.885 444.011 286.244C443.662 286.603 443.54 287.02 443.642 287.494C443.719 287.85 443.908 288.11 444.21 288.276C444.525 288.421 444.944 288.516 445.468 288.563C445.993 288.609 446.602 288.637 447.295 288.647C447.942 288.685 448.556 288.739 449.139 288.808C449.718 288.861 450.248 288.977 450.73 289.156C451.225 289.315 451.646 289.579 451.991 289.948C452.337 290.317 452.577 290.815 452.713 291.441C452.881 292.221 452.813 292.936 452.511 293.586C452.225 294.233 451.725 294.793 451.011 295.266C450.294 295.723 449.385 296.07 448.283 296.307C447.318 296.516 446.455 296.586 445.696 296.52C444.954 296.449 444.307 296.288 443.756 296.034C443.222 295.777 442.784 295.473 442.442 295.121C442.1 294.769 441.838 294.418 441.656 294.067C441.491 293.712 441.397 293.404 441.377 293.143Z" fill="white"/>
</g>
<g clip-path="url(#clip0_3203_31167)">
<path d="M1000.77 65.1508C1000.4 65.1991 1000.06 64.9396 1000.01 64.5713L999.225 58.5681C999.177 58.1998 999.436 57.862 999.804 57.8137C1000.17 57.7654 1000.51 58.0249 1000.56 58.3933L1001.26 63.7294L1006.59 63.0298C1006.96 62.9815 1007.3 63.241 1007.35 63.6094C1007.4 63.9778 1007.14 64.3156 1006.77 64.3639L1000.77 65.1508ZM1212.21 45.9481C1190.85 31.105 1154.65 14.2426 1115.52 11.9015C1076.42 9.56252 1034.38 21.7122 1001.21 64.8936L1000.15 64.074C1033.63 20.4868 1076.12 8.19698 1115.6 10.5584C1155.04 12.9177 1191.47 29.8955 1212.97 44.8433L1212.21 45.9481Z" fill="url(#paint2_linear_3203_31167)"/>
<g filter="url(#filter1_b_3203_31167)">
<rect x="672.48" y="39.3816" width="503" height="355" rx="8" transform="rotate(11.511 672.48 39.3816)" fill="url(#paint3_linear_3203_31167)"/>
</g>
<circle cx="723.615" cy="148.889" r="14" transform="rotate(11.511 723.615 148.889)" fill="white"/>
<circle cx="723.615" cy="148.889" r="9" transform="rotate(11.511 723.615 148.889)" fill="#23A323"/>
<path d="M752.323 163.41L755.685 146.901L764.092 148.614C766.113 149.025 767.581 149.722 768.495 150.704C769.43 151.673 769.752 152.871 769.462 154.297C769.275 155.215 768.914 155.902 768.379 156.359C767.864 156.802 767.197 157.082 766.377 157.198C765.561 157.297 764.628 157.275 763.578 157.132L763.711 157C764.455 157.169 765.146 157.381 765.784 157.635C766.443 157.875 766.999 158.183 767.453 158.558C767.924 158.937 768.254 159.402 768.443 159.954C768.652 160.492 768.678 161.143 768.522 161.907C768.315 162.926 767.889 163.715 767.244 164.274C766.6 164.832 765.791 165.198 764.819 165.372C763.849 165.528 762.775 165.504 761.596 165.299L752.323 163.41ZM755.73 161.531L761.666 162.74C762.77 162.964 763.666 162.952 764.354 162.703C765.045 162.437 765.473 161.896 765.639 161.081C765.771 160.436 765.679 159.931 765.364 159.566C765.053 159.184 764.608 158.89 764.031 158.684C763.471 158.481 762.86 158.313 762.197 158.178L756.643 157.047L755.73 161.531ZM757.136 154.626L762.461 155.711C763.565 155.936 764.452 155.922 765.123 155.669C765.814 155.403 766.244 154.854 766.414 154.022C766.58 153.206 766.392 152.567 765.849 152.102C765.327 151.625 764.582 151.287 763.614 151.09L758.086 149.964L757.136 154.626ZM783.449 169.75L780.621 169.174L783.205 156.486L786.033 157.062L783.449 169.75ZM782.004 163.167L781.863 163.987C781.784 164.201 781.64 164.517 781.432 164.934C781.24 165.355 780.963 165.803 780.601 166.277C780.259 166.738 779.836 167.165 779.332 167.558C778.848 167.937 778.277 168.219 777.621 168.403C776.967 168.571 776.216 168.568 775.367 168.395C774.755 168.271 774.153 168.06 773.559 167.762C772.979 167.484 772.472 167.107 772.038 166.63C771.622 166.156 771.326 165.565 771.152 164.857C770.978 164.149 770.991 163.303 771.192 162.318L772.81 154.369L775.638 154.945L774.129 162.359C773.966 163.157 773.965 163.812 774.127 164.322C774.309 164.819 774.618 165.209 775.056 165.493C775.493 165.777 776.026 165.982 776.655 166.11C777.555 166.294 778.361 166.246 779.072 165.966C779.784 165.686 780.387 165.287 780.881 164.769C781.397 164.237 781.771 163.703 782.004 163.167ZM786.863 166.093L789.487 166.628C789.492 167.301 789.733 167.898 790.21 168.42C790.691 168.925 791.407 169.274 792.358 169.468C792.97 169.592 793.459 169.621 793.826 169.554C794.211 169.491 794.495 169.355 794.679 169.144C794.881 168.938 795.013 168.682 795.075 168.376C795.151 168.002 795.099 167.691 794.92 167.442C794.758 167.197 794.487 166.965 794.107 166.746C793.727 166.527 793.241 166.304 792.651 166.078C792.053 165.797 791.468 165.501 790.895 165.19C790.321 164.878 789.816 164.537 789.379 164.164C788.945 163.775 788.627 163.339 788.425 162.856C788.243 162.359 788.216 161.796 788.344 161.168C788.461 160.59 788.694 160.098 789.042 159.691C789.411 159.271 789.866 158.948 790.407 158.722C790.949 158.496 791.559 158.364 792.239 158.326C792.923 158.27 793.647 158.321 794.411 158.476C795.515 158.701 796.396 159.066 797.054 159.572C797.728 160.081 798.187 160.696 798.429 161.417C798.688 162.142 798.733 162.921 798.563 163.753L796.067 163.245C796.069 162.538 795.906 161.991 795.578 161.606C795.249 161.221 794.695 160.949 793.913 160.789C793.132 160.63 792.51 160.645 792.047 160.834C791.584 161.023 791.304 161.355 791.207 161.83C791.135 162.187 791.203 162.502 791.413 162.774C791.643 163.034 791.989 163.29 792.45 163.543C792.912 163.796 793.458 164.067 794.089 164.354C794.666 164.649 795.207 164.945 795.713 165.242C796.222 165.523 796.661 165.842 797.03 166.2C797.42 166.545 797.699 166.956 797.867 167.432C798.036 167.909 798.056 168.461 797.928 169.09C797.769 169.871 797.42 170.498 796.881 170.973C796.359 171.45 795.676 171.762 794.833 171.909C793.993 172.038 793.021 171.991 791.917 171.766C790.949 171.569 790.13 171.287 789.462 170.921C788.811 170.558 788.283 170.15 787.88 169.697C787.495 169.247 787.216 168.792 787.044 168.332C786.872 167.873 786.773 167.446 786.748 167.051C786.739 166.661 786.777 166.341 786.863 166.093ZM806.775 155.687L806.219 158.413L802.831 157.723L803.386 154.997L806.775 155.687ZM802.546 160.425L805.4 161.006L802.816 173.694L799.962 173.112L802.546 160.425ZM808.787 161.696L811.615 162.272L809.031 174.959L806.203 174.383L808.787 161.696ZM817.022 163.081C817.752 163.23 818.403 163.468 818.972 163.797C819.559 164.129 820.03 164.552 820.386 165.066C820.761 165.567 821.006 166.148 821.119 166.808C821.249 167.471 821.229 168.219 821.06 169.051L819.426 177.076L816.598 176.5L818.118 169.036C818.329 167.999 818.23 167.183 817.82 166.587C817.432 165.977 816.702 165.563 815.632 165.345C814.817 165.179 814.033 165.205 813.281 165.424C812.55 165.629 811.915 165.968 811.376 166.442C810.84 166.899 810.471 167.452 810.269 168.1L810.523 166.719C810.736 166.108 811.044 165.552 811.447 165.05C811.853 164.531 812.339 164.1 812.905 163.755C813.474 163.393 814.107 163.151 814.804 163.027C815.501 162.904 816.241 162.922 817.022 163.081ZM833.998 175.693L836.724 176.248C836.412 177.086 835.915 177.79 835.233 178.359C834.572 178.914 833.743 179.293 832.746 179.497C831.753 179.684 830.619 179.648 829.345 179.388C827.902 179.094 826.664 178.568 825.634 177.81C824.606 177.035 823.87 176.089 823.426 174.972C822.981 173.856 822.897 172.618 823.173 171.259C823.447 169.917 824 168.809 824.832 167.935C825.665 167.061 826.688 166.465 827.903 166.146C829.135 165.831 830.481 165.822 831.941 166.119C833.453 166.427 834.655 166.955 835.546 167.703C836.458 168.437 837.051 169.389 837.326 170.559C837.604 171.713 837.536 173.087 837.123 174.684L825.938 172.406C825.878 173.137 825.976 173.829 826.232 174.482C826.508 175.122 826.945 175.671 827.542 176.129C828.142 176.569 828.883 176.88 829.767 177.059C830.752 177.26 831.615 177.233 832.357 176.977C833.116 176.725 833.663 176.296 833.998 175.693ZM831.398 168.397C830.243 168.162 829.233 168.257 828.368 168.682C827.507 169.09 826.876 169.714 826.475 170.552L834.653 172.217C834.779 171.252 834.547 170.436 833.958 169.767C833.372 169.082 832.519 168.625 831.398 168.397ZM838.763 176.663L841.387 177.197C841.391 177.87 841.632 178.468 842.11 178.989C842.591 179.494 843.307 179.844 844.258 180.037C844.869 180.162 845.359 180.191 845.726 180.124C846.11 180.061 846.395 179.924 846.579 179.714C846.78 179.507 846.912 179.251 846.974 178.945C847.05 178.572 846.999 178.26 846.82 178.012C846.657 177.766 846.386 177.534 846.006 177.315C845.626 177.096 845.141 176.874 844.55 176.647C843.953 176.367 843.367 176.07 842.794 175.759C842.221 175.448 841.715 175.106 841.278 174.734C840.844 174.345 840.526 173.909 840.324 173.425C840.142 172.928 840.115 172.366 840.243 171.737C840.361 171.16 840.594 170.668 840.942 170.261C841.311 169.841 841.766 169.518 842.307 169.292C842.848 169.066 843.459 168.934 844.139 168.895C844.822 168.84 845.546 168.89 846.31 169.046C847.414 169.271 848.295 169.636 848.953 170.141C849.628 170.65 850.086 171.265 850.328 171.987C850.588 172.712 850.632 173.49 850.463 174.323L847.966 173.814C847.969 173.107 847.806 172.561 847.477 172.176C847.149 171.79 846.594 171.518 845.813 171.359C845.032 171.2 844.409 171.215 843.946 171.403C843.483 171.592 843.204 171.924 843.107 172.4C843.034 172.757 843.103 173.071 843.312 173.344C843.543 173.603 843.889 173.859 844.35 174.112C844.811 174.366 845.358 174.636 845.989 174.924C846.566 175.218 847.107 175.514 847.612 175.812C848.121 176.092 848.56 176.412 848.93 176.77C849.319 177.115 849.598 177.525 849.767 178.002C849.935 178.478 849.955 179.031 849.827 179.659C849.668 180.44 849.319 181.068 848.78 181.542C848.259 182.019 847.576 182.332 846.732 182.478C845.892 182.608 844.92 182.56 843.816 182.335C842.848 182.138 842.03 181.857 841.362 181.49C840.71 181.128 840.183 180.72 839.78 180.266C839.394 179.816 839.115 179.361 838.943 178.902C838.772 178.442 838.673 178.015 838.647 177.621C838.638 177.23 838.677 176.911 838.763 176.663ZM851.974 179.353L854.598 179.888C854.602 180.561 854.843 181.158 855.321 181.68C855.802 182.185 856.518 182.534 857.469 182.728C858.08 182.852 858.57 182.881 858.937 182.814C859.322 182.751 859.606 182.615 859.79 182.404C859.991 182.198 860.123 181.942 860.186 181.636C860.262 181.262 860.21 180.951 860.031 180.702C859.868 180.457 859.597 180.225 859.217 180.006C858.837 179.787 858.352 179.564 857.761 179.338C857.164 179.057 856.579 178.761 856.005 178.45C855.432 178.138 854.927 177.797 854.489 177.424C854.056 177.035 853.738 176.599 853.535 176.116C853.354 175.619 853.327 175.056 853.455 174.428C853.572 173.85 853.805 173.358 854.153 172.951C854.522 172.531 854.977 172.208 855.518 171.982C856.059 171.756 856.67 171.624 857.35 171.586C858.034 171.53 858.757 171.581 859.522 171.736C860.626 171.961 861.507 172.326 862.164 172.832C862.839 173.341 863.297 173.956 863.54 174.677C863.799 175.402 863.844 176.181 863.674 177.013L861.177 176.505C861.18 175.798 861.017 175.251 860.689 174.866C860.36 174.481 859.805 174.209 859.024 174.05C858.243 173.89 857.621 173.905 857.158 174.094C856.695 174.283 856.415 174.615 856.318 175.09C856.245 175.447 856.314 175.762 856.524 176.034C856.754 176.294 857.1 176.55 857.561 176.803C858.023 177.056 858.569 177.327 859.2 177.614C859.777 177.909 860.318 178.205 860.824 178.502C861.333 178.783 861.772 179.102 862.141 179.46C862.531 179.805 862.81 180.216 862.978 180.692C863.146 181.169 863.166 181.721 863.038 182.35C862.879 183.131 862.53 183.759 861.992 184.233C861.47 184.71 860.787 185.022 859.944 185.169C859.104 185.298 858.132 185.251 857.028 185.026C856.059 184.829 855.241 184.547 854.573 184.181C853.921 183.818 853.394 183.41 852.991 182.957C852.605 182.507 852.326 182.052 852.155 181.592C851.983 181.133 851.884 180.706 851.858 180.311C851.85 179.921 851.888 179.601 851.974 179.353ZM885.423 185.396C885.1 186.462 884.562 187.325 883.808 187.986C883.055 188.646 882.135 189.078 881.05 189.281C879.982 189.488 878.802 189.46 877.512 189.198C876.119 188.914 874.905 188.401 873.871 187.66C872.854 186.922 872.115 185.993 871.653 184.873C871.191 183.753 871.104 182.488 871.391 181.079C871.678 179.669 872.253 178.539 873.116 177.689C873.979 176.839 875.025 176.264 876.253 175.966C877.498 175.671 878.817 175.666 880.21 175.949C881.501 176.212 882.595 176.656 883.494 177.282C884.396 177.89 885.066 178.637 885.505 179.522C885.944 180.407 886.104 181.404 885.984 182.512L883.386 181.983C883.28 181.024 882.895 180.22 882.231 179.572C881.588 178.91 880.757 178.475 879.738 178.268C878.905 178.098 878.106 178.113 877.341 178.31C876.579 178.491 875.92 178.861 875.364 179.42C874.828 179.966 874.463 180.714 874.27 181.665C874.079 182.599 874.122 183.43 874.399 184.159C874.692 184.891 875.154 185.489 875.784 185.954C876.418 186.401 877.152 186.71 877.984 186.879C879.105 187.107 880.072 187.048 880.886 186.701C881.72 186.34 882.366 185.729 882.825 184.867L885.423 185.396ZM892.512 192.252C891.357 192.017 890.353 191.521 889.499 190.763C888.662 190.009 888.055 189.08 887.678 187.978C887.322 186.862 887.275 185.658 887.538 184.367C887.808 183.042 888.332 181.946 889.11 181.079C889.891 180.194 890.832 179.572 891.931 179.212C893.03 178.852 894.191 178.797 895.414 179.046C896.773 179.323 897.791 179.839 898.468 180.597C899.145 181.354 899.552 182.268 899.687 183.339C899.823 184.41 899.764 185.566 899.512 186.806C899.37 187.502 899.118 188.22 898.755 188.96C898.395 189.683 897.927 190.33 897.351 190.903C896.791 191.479 896.103 191.905 895.286 192.181C894.49 192.443 893.565 192.467 892.512 192.252ZM893.856 190.085C894.807 190.279 895.65 190.265 896.385 190.043C897.141 189.808 897.754 189.402 898.225 188.826C898.713 188.253 899.04 187.559 899.206 186.743C899.39 185.843 899.367 185.043 899.138 184.342C898.913 183.624 898.504 183.027 897.911 182.553C897.321 182.061 896.55 181.718 895.599 181.525C894.24 181.248 893.106 181.433 892.196 182.079C891.286 182.725 890.702 183.685 890.442 184.959C890.273 185.791 890.301 186.566 890.526 187.284C890.768 188.006 891.175 188.61 891.748 189.099C892.321 189.587 893.024 189.915 893.856 190.085ZM900.503 180.374L903.357 180.955L900.773 193.643L898.123 193.103C898.123 193.103 898.139 192.938 898.171 192.609C898.203 192.279 898.248 191.882 898.308 191.416C898.371 190.934 898.445 190.48 898.532 190.055L900.503 180.374ZM911.977 196.217C910.941 196.006 910.099 195.622 909.452 195.065C908.822 194.513 908.353 193.86 908.046 193.108C907.76 192.342 907.593 191.556 907.545 190.75C907.5 189.927 907.549 189.168 907.691 188.471C907.881 187.537 908.151 186.69 908.5 185.93C908.866 185.173 909.322 184.541 909.868 184.033C910.434 183.511 911.109 183.153 911.891 182.959C912.694 182.751 913.622 182.754 914.675 182.968C915.864 183.211 916.875 183.717 917.709 184.488C918.546 185.243 919.143 186.178 919.499 187.294C919.859 188.393 919.906 189.597 919.639 190.905C919.373 192.213 918.849 193.309 918.067 194.193C917.306 195.064 916.393 195.683 915.328 196.05C914.266 196.4 913.149 196.455 911.977 196.217ZM911.614 193.701C912.463 193.874 913.247 193.848 913.965 193.623C914.683 193.398 915.286 192.999 915.774 192.426C916.262 191.853 916.591 191.151 916.76 190.318C917.02 189.045 916.857 187.932 916.272 186.982C915.691 186.014 914.721 185.392 913.362 185.116C912.513 184.943 911.712 184.965 910.96 185.184C910.208 185.402 909.571 185.794 909.049 186.36C908.531 186.909 908.18 187.633 907.996 188.534C907.83 189.349 907.86 190.115 908.085 190.834C908.31 191.552 908.716 192.165 909.302 192.673C909.892 193.165 910.663 193.508 911.614 193.701ZM906.465 181.588L909.166 182.138L908.66 185.273L905.672 199.947L902.844 199.371L906.465 181.588ZM927.865 180.348L927.31 183.074L923.922 182.384L924.477 179.658L927.865 180.348ZM923.637 185.085L926.49 185.666L923.906 198.354L921.053 197.773L923.637 185.085ZM928.986 186.175L937.954 188.001L937.481 190.319L928.514 188.493L928.986 186.175ZM932.738 183.383L935.592 183.965L932.313 200.066L929.459 199.485L932.738 183.383ZM942.994 202.533C941.839 202.298 940.834 201.801 939.98 201.044C939.143 200.29 938.536 199.361 938.159 198.258C937.803 197.142 937.756 195.939 938.019 194.648C938.289 193.323 938.813 192.227 939.591 191.359C940.373 190.475 941.313 189.853 942.412 189.493C943.511 189.133 944.673 189.078 945.895 189.327C947.254 189.603 948.272 190.12 948.949 190.877C949.627 191.634 950.033 192.548 950.169 193.62C950.304 194.691 950.246 195.847 949.993 197.086C949.852 197.783 949.599 198.501 949.236 199.241C948.877 199.963 948.409 200.611 947.832 201.184C947.273 201.759 946.585 202.185 945.768 202.461C944.971 202.724 944.047 202.748 942.994 202.533ZM944.337 200.366C945.288 200.559 946.131 200.545 946.866 200.324C947.622 200.088 948.235 199.682 948.706 199.106C949.195 198.533 949.522 197.839 949.688 197.024C949.871 196.124 949.848 195.323 949.62 194.622C949.394 193.904 948.985 193.308 948.392 192.833C947.802 192.342 947.032 191.999 946.081 191.805C944.722 191.529 943.587 191.713 942.678 192.359C941.768 193.005 941.183 193.965 940.924 195.239C940.754 196.072 940.782 196.847 941.007 197.565C941.249 198.286 941.657 198.891 942.23 199.379C942.802 199.867 943.505 200.196 944.337 200.366ZM950.985 190.655L953.838 191.236L951.254 203.924L948.605 203.384C948.605 203.384 948.621 203.219 948.652 202.89C948.684 202.56 948.73 202.162 948.789 201.697C948.852 201.214 948.927 200.761 949.013 200.336L950.985 190.655ZM958.239 186.826L961.067 187.401L957.446 205.184L954.618 204.609L958.239 186.826ZM961.172 201.592L963.796 202.126C963.8 202.799 964.041 203.397 964.519 203.918C965 204.423 965.716 204.773 966.667 204.966C967.278 205.091 967.768 205.12 968.135 205.053C968.52 204.99 968.804 204.853 968.988 204.643C969.189 204.436 969.321 204.18 969.384 203.874C969.46 203.501 969.408 203.189 969.229 202.941C969.066 202.695 968.795 202.463 968.415 202.244C968.035 202.025 967.55 201.803 966.959 201.576C966.362 201.296 965.777 200.999 965.203 200.688C964.63 200.377 964.125 200.035 963.687 199.663C963.254 199.274 962.936 198.838 962.733 198.354C962.552 197.857 962.525 197.295 962.653 196.666C962.77 196.089 963.003 195.597 963.351 195.19C963.72 194.77 964.175 194.447 964.716 194.221C965.257 193.995 965.868 193.863 966.548 193.824C967.232 193.769 967.955 193.819 968.72 193.975C969.824 194.2 970.705 194.565 971.362 195.07C972.037 195.579 972.495 196.194 972.738 196.916C972.997 197.641 973.042 198.419 972.872 199.252L970.375 198.743C970.378 198.036 970.215 197.49 969.887 197.105C969.558 196.719 969.003 196.447 968.222 196.288C967.441 196.129 966.819 196.144 966.356 196.332C965.893 196.521 965.613 196.853 965.516 197.329C965.443 197.686 965.512 198 965.722 198.273C965.952 198.532 966.298 198.788 966.759 199.041C967.221 199.295 967.767 199.565 968.398 199.853C968.975 200.147 969.516 200.443 970.022 200.741C970.531 201.021 970.97 201.341 971.339 201.699C971.729 202.044 972.008 202.454 972.176 202.931C972.344 203.407 972.364 203.96 972.236 204.588C972.077 205.369 971.728 205.997 971.19 206.471C970.668 206.949 969.985 207.261 969.142 207.407C968.302 207.537 967.33 207.489 966.226 207.264C965.257 207.067 964.439 206.786 963.771 206.42C963.119 206.057 962.592 205.649 962.189 205.195C961.803 204.745 961.524 204.29 961.353 203.831C961.181 203.371 961.082 202.944 961.056 202.55C961.047 202.159 961.086 201.84 961.172 201.592Z" fill="white"/>
<circle cx="709.447" cy="218.461" r="14" transform="rotate(11.511 709.447 218.461)" fill="white"/>
<circle cx="709.447" cy="218.461" r="9" transform="rotate(11.511 709.447 218.461)" fill="#23A323"/>
<path d="M741.726 227.952L742.219 225.532L748.894 226.891C749.828 227.081 750.631 226.962 751.302 226.532C751.99 226.107 752.427 225.435 752.614 224.518C752.808 223.567 752.67 222.769 752.199 222.125C751.75 221.467 751.058 221.043 750.123 220.853L743.856 219.577L741.008 233.564L738.103 232.972L741.465 216.463L750.433 218.289C751.299 218.466 752.082 218.749 752.781 219.139C753.483 219.512 754.068 219.985 754.535 220.558C755.019 221.134 755.343 221.801 755.507 222.56C755.691 223.305 755.687 224.153 755.493 225.104C755.303 226.038 754.975 226.821 754.511 227.451C754.067 228.068 753.511 228.539 752.844 228.863C752.193 229.191 751.472 229.389 750.68 229.457C749.891 229.509 749.063 229.446 748.197 229.27L741.726 227.952ZM761.184 237.965C760.029 237.729 759.025 237.233 758.171 236.475C757.334 235.721 756.727 234.793 756.35 233.69C755.994 232.574 755.947 231.37 756.21 230.079C756.48 228.754 757.004 227.658 757.782 226.791C758.563 225.906 759.504 225.284 760.603 224.924C761.702 224.564 762.863 224.509 764.086 224.758C765.445 225.035 766.463 225.552 767.14 226.309C767.817 227.066 768.224 227.98 768.359 229.051C768.495 230.122 768.436 231.278 768.184 232.518C768.042 233.214 767.79 233.932 767.427 234.672C767.067 235.395 766.599 236.043 766.023 236.615C765.463 237.191 764.775 237.617 763.958 237.893C763.162 238.155 762.237 238.179 761.184 237.965ZM762.528 235.797C763.479 235.991 764.322 235.977 765.057 235.755C765.813 235.52 766.426 235.114 766.897 234.538C767.385 233.965 767.712 233.271 767.878 232.456C768.062 231.555 768.039 230.755 767.81 230.054C767.585 229.336 767.176 228.739 766.582 228.265C765.993 227.773 765.222 227.43 764.271 227.237C762.912 226.96 761.778 227.145 760.868 227.791C759.958 228.437 759.374 229.397 759.114 230.671C758.945 231.503 758.973 232.278 759.198 232.996C759.44 233.718 759.847 234.323 760.42 234.811C760.993 235.299 761.696 235.628 762.528 235.797ZM769.175 226.086L772.029 226.667L769.445 239.355L766.795 238.815C766.795 238.815 766.811 238.651 766.843 238.321C766.875 237.991 766.92 237.594 766.98 237.128C767.043 236.646 767.117 236.192 767.204 235.768L769.175 226.086ZM773.991 227.067L777.023 227.684L779.663 240.905L777.114 240.917L773.991 227.067ZM788.131 229.947L776.356 246.069L773.376 245.462L778.282 239.218L785.099 229.329L788.131 229.947ZM799.051 245.676C797.88 245.438 796.867 244.939 796.013 244.182C795.176 243.428 794.577 242.501 794.217 241.402C793.861 240.285 793.814 239.082 794.077 237.791C794.347 236.466 794.854 235.367 795.598 234.492C796.362 233.604 797.269 232.975 798.317 232.605C799.383 232.238 800.527 232.179 801.749 232.428C802.82 232.646 803.683 233.008 804.341 233.513C805.002 234.002 805.483 234.595 805.783 235.293C806.087 235.974 806.25 236.732 806.275 237.569C806.316 238.408 806.241 239.295 806.051 240.23C805.909 240.926 805.657 241.644 805.294 242.384C804.935 243.107 804.467 243.754 803.89 244.327C803.331 244.903 802.642 245.329 801.826 245.604C801.029 245.867 800.105 245.891 799.051 245.676ZM800.395 243.509C801.346 243.703 802.189 243.689 802.924 243.467C803.68 243.231 804.293 242.826 804.764 242.249C805.252 241.677 805.579 240.983 805.745 240.167C805.929 239.267 805.906 238.467 805.677 237.765C805.452 237.047 805.045 236.443 804.455 235.951C803.865 235.459 803.095 235.117 802.144 234.923C800.785 234.646 799.649 234.84 798.735 235.503C797.825 236.149 797.241 237.109 796.981 238.383C796.812 239.215 796.84 239.99 797.065 240.708C797.307 241.429 797.715 242.034 798.288 242.522C798.86 243.011 799.563 243.339 800.395 243.509ZM808.08 228.703L810.934 229.284L807.312 247.067L804.663 246.527C804.708 246.13 804.764 245.637 804.831 245.049C804.898 244.461 804.978 243.938 805.071 243.479L808.08 228.703ZM816.517 249.233C815.362 248.998 814.358 248.502 813.504 247.744C812.667 246.99 812.06 246.061 811.683 244.959C811.327 243.842 811.28 242.639 811.543 241.348C811.813 240.023 812.336 238.927 813.115 238.06C813.896 237.175 814.837 236.553 815.936 236.193C817.035 235.833 818.196 235.778 819.419 236.027C820.778 236.303 821.796 236.82 822.473 237.577C823.15 238.334 823.557 239.249 823.692 240.32C823.828 241.391 823.769 242.547 823.517 243.787C823.375 244.483 823.123 245.201 822.76 245.941C822.4 246.664 821.932 247.311 821.356 247.884C820.796 248.46 820.108 248.886 819.291 249.161C818.495 249.424 817.57 249.448 816.517 249.233ZM817.861 247.066C818.812 247.259 819.655 247.245 820.39 247.024C821.146 246.788 821.759 246.383 822.23 245.806C822.718 245.234 823.045 244.54 823.211 243.724C823.395 242.824 823.372 242.023 823.143 241.322C822.918 240.604 822.509 240.008 821.915 239.533C821.326 239.042 820.555 238.699 819.604 238.506C818.245 238.229 817.111 238.413 816.201 239.06C815.291 239.706 814.707 240.666 814.447 241.939C814.278 242.772 814.305 243.547 814.531 244.265C814.773 244.986 815.18 245.591 815.753 246.079C816.326 246.567 817.029 246.896 817.861 247.066ZM824.508 237.355L827.362 237.936L824.778 250.624L822.128 250.084C822.128 250.084 822.144 249.919 822.176 249.59C822.208 249.26 822.253 248.862 822.313 248.397C822.376 247.914 822.45 247.461 822.537 247.036L824.508 237.355ZM829.324 238.336L832.356 238.953L834.996 252.174L832.447 252.186L829.324 238.336ZM843.464 241.215L831.689 257.338L828.709 256.731L833.615 250.487L840.432 240.598L843.464 241.215ZM852.662 237.782L855.49 238.358L851.868 256.141L849.04 255.565L852.662 237.782ZM861.998 258.496C860.589 258.209 859.375 257.696 858.358 256.958C857.341 256.22 856.61 255.293 856.165 254.177C855.72 253.06 855.641 251.797 855.928 250.387C856.212 248.995 856.777 247.871 857.623 247.018C858.473 246.147 859.511 245.563 860.74 245.264C861.968 244.966 863.287 244.961 864.697 245.248C866.106 245.535 867.309 246.054 868.306 246.805C869.303 247.557 870.014 248.497 870.438 249.627C870.883 250.744 870.963 251.999 870.68 253.391C870.393 254.801 869.826 255.933 868.98 256.787C868.151 257.644 867.133 258.215 865.925 258.499C864.717 258.784 863.408 258.783 861.998 258.496ZM862.471 256.177C863.286 256.343 864.066 256.334 864.811 256.15C865.556 255.965 866.19 255.59 866.712 255.024C867.251 254.462 867.614 253.722 867.801 252.805C867.988 251.888 867.943 251.065 867.667 250.337C867.407 249.612 866.973 249.01 866.363 248.532C865.773 248.041 865.062 247.71 864.23 247.541C863.397 247.371 862.607 247.387 861.858 247.588C861.11 247.79 860.457 248.17 859.901 248.729C859.362 249.291 858.998 250.039 858.807 250.974C858.621 251.891 858.665 252.714 858.942 253.442C859.218 254.17 859.663 254.765 860.276 255.226C860.907 255.691 861.638 256.008 862.471 256.177ZM877.523 261.657C876.368 261.422 875.363 260.926 874.509 260.168C873.672 259.414 873.065 258.485 872.689 257.383C872.332 256.266 872.285 255.063 872.548 253.772C872.818 252.447 873.342 251.351 874.12 250.483C874.902 249.599 875.842 248.977 876.941 248.617C878.041 248.257 879.202 248.202 880.425 248.451C881.783 248.727 882.801 249.244 883.479 250.001C884.156 250.758 884.562 251.673 884.698 252.744C884.833 253.815 884.775 254.971 884.522 256.211C884.381 256.907 884.128 257.625 883.765 258.365C883.406 259.088 882.938 259.735 882.361 260.308C881.802 260.884 881.114 261.31 880.297 261.585C879.501 261.848 878.576 261.872 877.523 261.657ZM878.866 259.49C879.817 259.683 880.661 259.669 881.396 259.448C882.151 259.212 882.764 258.807 883.236 258.23C883.724 257.658 884.051 256.964 884.217 256.148C884.4 255.248 884.377 254.447 884.149 253.746C883.923 253.028 883.514 252.432 882.921 251.957C882.331 251.466 881.561 251.123 880.61 250.929C879.251 250.653 878.117 250.837 877.207 251.484C876.297 252.13 875.712 253.09 875.453 254.363C875.283 255.196 875.311 255.971 875.536 256.689C875.779 257.41 876.186 258.015 876.759 258.503C877.332 258.991 878.034 259.32 878.866 259.49ZM885.514 249.779L888.367 250.36L885.783 263.048L883.134 262.508C883.134 262.508 883.15 262.343 883.181 262.014C883.213 261.684 883.259 261.286 883.318 260.821C883.381 260.338 883.456 259.885 883.542 259.46L885.514 249.779ZM891.476 250.993L894.304 251.569L891.72 264.257L888.892 263.681L891.476 250.993ZM899.711 252.378C900.441 252.527 901.092 252.766 901.662 253.094C902.248 253.426 902.719 253.849 903.075 254.364C903.45 254.865 903.695 255.445 903.808 256.105C903.938 256.768 903.918 257.516 903.749 258.348L902.115 266.374L899.287 265.798L900.807 258.333C901.018 257.297 900.919 256.481 900.51 255.884C900.121 255.274 899.391 254.861 898.321 254.643C897.506 254.477 896.722 254.503 895.97 254.721C895.239 254.926 894.604 255.265 894.065 255.739C893.53 256.196 893.16 256.749 892.958 257.398L893.212 256.017C893.425 255.406 893.733 254.849 894.136 254.348C894.542 253.829 895.028 253.397 895.594 253.052C896.163 252.691 896.796 252.448 897.493 252.325C898.191 252.201 898.93 252.219 899.711 252.378ZM905.529 262.717L908.153 263.252C908.157 263.925 908.398 264.522 908.876 265.044C909.357 265.549 910.073 265.898 911.024 266.092C911.635 266.216 912.125 266.245 912.492 266.179C912.876 266.115 913.161 265.979 913.345 265.768C913.546 265.562 913.678 265.306 913.74 265C913.816 264.626 913.765 264.315 913.585 264.066C913.423 263.821 913.152 263.589 912.772 263.37C912.392 263.151 911.907 262.928 911.316 262.702C910.719 262.421 910.133 262.125 909.56 261.814C908.987 261.502 908.481 261.161 908.044 260.789C907.61 260.399 907.292 259.963 907.09 259.48C906.908 258.983 906.881 258.42 907.009 257.792C907.127 257.214 907.36 256.722 907.708 256.315C908.077 255.895 908.531 255.572 909.073 255.346C909.614 255.12 910.225 254.988 910.905 254.95C911.588 254.895 912.312 254.945 913.076 255.1C914.18 255.325 915.061 255.69 915.719 256.196C916.394 256.705 916.852 257.32 917.094 258.041C917.354 258.766 917.398 259.545 917.229 260.377L914.732 259.869C914.735 259.162 914.572 258.615 914.243 258.23C913.915 257.845 913.36 257.573 912.579 257.414C911.797 257.254 911.175 257.269 910.712 257.458C910.249 257.647 909.969 257.979 909.873 258.454C909.8 258.811 909.869 259.126 910.078 259.399C910.309 259.658 910.654 259.914 911.116 260.167C911.577 260.42 912.124 260.691 912.755 260.978C913.332 261.273 913.873 261.569 914.378 261.866C914.887 262.147 915.326 262.466 915.696 262.824C916.085 263.169 916.364 263.58 916.533 264.056C916.701 264.533 916.721 265.085 916.593 265.714C916.434 266.495 916.085 267.123 915.546 267.597C915.025 268.074 914.342 268.386 913.498 268.533C912.658 268.662 911.686 268.615 910.582 268.39C909.614 268.193 908.796 267.911 908.127 267.545C907.476 267.182 906.949 266.774 906.546 266.321C906.16 265.871 905.881 265.416 905.709 264.956C905.538 264.497 905.439 264.07 905.413 263.676C905.404 263.285 905.443 262.965 905.529 262.717Z" fill="white"/>
<circle cx="693.776" cy="295.406" r="14" transform="rotate(11.511 693.776 295.406)" fill="white"/>
<circle cx="693.776" cy="295.406" r="9" transform="rotate(11.511 693.776 295.406)" fill="#23A323"/>
<path d="M734.626 309.72L733.326 309.455L745.146 296.234L748.025 296.82L744.663 313.329L741.784 312.743L744.301 300.387L744.927 300.7L735.262 311.415L732.103 310.771L727.388 297.181L728.118 297.117L725.606 309.448L722.702 308.857L726.064 292.348L728.969 292.939L734.626 309.72ZM754.914 315.709C753.504 315.422 752.29 314.909 751.273 314.171C750.256 313.433 749.525 312.506 749.08 311.39C748.635 310.273 748.556 309.01 748.844 307.6C749.127 306.208 749.692 305.084 750.538 304.231C751.388 303.36 752.426 302.776 753.655 302.477C754.883 302.179 756.202 302.173 757.612 302.461C759.021 302.748 760.225 303.267 761.221 304.018C762.218 304.77 762.929 305.71 763.353 306.84C763.798 307.957 763.878 309.212 763.595 310.604C763.308 312.014 762.741 313.146 761.895 313.999C761.066 314.857 760.048 315.428 758.84 315.712C757.632 315.997 756.323 315.996 754.914 315.709ZM755.386 313.39C756.201 313.556 756.981 313.547 757.726 313.363C758.471 313.178 759.105 312.803 759.627 312.237C760.166 311.675 760.529 310.935 760.716 310.018C760.903 309.101 760.858 308.278 760.582 307.55C760.323 306.825 759.888 306.223 759.278 305.745C758.688 305.254 757.977 304.923 757.145 304.754C756.312 304.584 755.522 304.6 754.773 304.801C754.025 305.003 753.373 305.383 752.816 305.942C752.277 306.504 751.913 307.252 751.722 308.187C751.536 309.104 751.58 309.927 751.857 310.655C752.133 311.383 752.578 311.978 753.191 312.439C753.822 312.904 754.553 313.221 755.386 313.39ZM767.423 304.751L770.251 305.326L767.667 318.014L764.839 317.438L767.423 304.751ZM774.344 308.681C773.427 308.494 772.597 308.528 771.855 308.784C771.13 309.043 770.515 309.413 770.01 309.894C769.506 310.375 769.123 310.863 768.863 311.359L769.128 309.927C769.183 309.744 769.3 309.475 769.478 309.123C769.659 308.753 769.899 308.359 770.196 307.942C770.51 307.528 770.889 307.146 771.332 306.794C771.795 306.428 772.318 306.163 772.9 305.999C773.499 305.838 774.163 305.831 774.894 305.98L774.344 308.681ZM785.842 317.364L788.568 317.919C788.256 318.758 787.759 319.461 787.077 320.03C786.416 320.585 785.587 320.965 784.59 321.169C783.597 321.355 782.463 321.319 781.189 321.06C779.745 320.766 778.508 320.24 777.478 319.481C776.45 318.706 775.714 317.76 775.269 316.644C774.825 315.527 774.741 314.289 775.017 312.931C775.291 311.589 775.843 310.481 776.676 309.607C777.508 308.733 778.532 308.136 779.747 307.818C780.978 307.502 782.325 307.493 783.785 307.791C785.297 308.099 786.498 308.627 787.39 309.374C788.302 310.108 788.895 311.06 789.17 312.231C789.448 313.384 789.38 314.759 788.966 316.355L777.782 314.077C777.722 314.808 777.82 315.5 778.076 316.154C778.352 316.794 778.789 317.343 779.385 317.8C779.985 318.241 780.727 318.551 781.61 318.731C782.595 318.932 783.459 318.904 784.201 318.648C784.96 318.396 785.507 317.968 785.842 317.364ZM783.242 310.068C782.087 309.833 781.077 309.928 780.212 310.353C779.351 310.762 778.719 311.385 778.319 312.223L786.497 313.889C786.623 312.924 786.391 312.107 785.802 311.439C785.216 310.753 784.363 310.297 783.242 310.068ZM810.845 321.686C810.522 322.753 809.983 323.616 809.23 324.276C808.476 324.936 807.557 325.368 806.471 325.572C805.403 325.779 804.224 325.751 802.933 325.488C801.54 325.204 800.327 324.692 799.293 323.951C798.275 323.213 797.536 322.284 797.074 321.164C796.612 320.044 796.525 318.779 796.812 317.369C797.099 315.959 797.674 314.829 798.537 313.979C799.4 313.129 800.446 312.555 801.674 312.257C802.919 311.962 804.238 311.956 805.631 312.24C806.922 312.503 808.017 312.947 808.915 313.572C809.817 314.18 810.488 314.927 810.927 315.813C811.365 316.698 811.525 317.694 811.406 318.802L808.807 318.273C808.702 317.314 808.317 316.51 807.653 315.862C807.009 315.2 806.178 314.766 805.159 314.558C804.327 314.389 803.528 314.403 802.762 314.601C802 314.782 801.341 315.152 800.785 315.711C800.249 316.256 799.885 317.004 799.691 317.955C799.501 318.89 799.544 319.721 799.82 320.449C800.113 321.181 800.575 321.779 801.206 322.244C801.84 322.692 802.573 323 803.405 323.17C804.526 323.398 805.494 323.338 806.307 322.991C807.141 322.63 807.788 322.019 808.246 321.157L810.845 321.686ZM825.557 329.804L822.729 329.228L825.313 316.54L828.141 317.116L825.557 329.804ZM824.112 323.221L823.971 324.041C823.892 324.255 823.749 324.571 823.54 324.988C823.348 325.409 823.071 325.857 822.709 326.331C822.367 326.792 821.944 327.219 821.44 327.612C820.956 327.991 820.386 328.273 819.729 328.457C819.076 328.625 818.324 328.622 817.475 328.449C816.864 328.325 816.261 328.114 815.667 327.816C815.087 327.539 814.58 327.161 814.146 326.684C813.73 326.21 813.435 325.619 813.26 324.911C813.086 324.204 813.099 323.357 813.3 322.372L814.919 314.423L817.747 314.999L816.237 322.413C816.074 323.211 816.074 323.866 816.235 324.376C816.417 324.873 816.726 325.263 817.164 325.547C817.602 325.831 818.134 326.037 818.763 326.165C819.663 326.348 820.469 326.3 821.18 326.02C821.892 325.74 822.495 325.341 822.99 324.823C823.505 324.291 823.879 323.757 824.112 323.221ZM828.971 326.147L831.595 326.682C831.6 327.355 831.841 327.952 832.318 328.474C832.799 328.979 833.515 329.328 834.466 329.522C835.078 329.646 835.567 329.675 835.935 329.609C836.319 329.545 836.603 329.409 836.788 329.199C836.989 328.992 837.121 328.736 837.183 328.43C837.259 328.056 837.207 327.745 837.028 327.496C836.866 327.251 836.595 327.019 836.215 326.8C835.835 326.581 835.35 326.358 834.759 326.132C834.162 325.851 833.576 325.555 833.003 325.244C832.429 324.932 831.924 324.591 831.487 324.219C831.053 323.829 830.735 323.393 830.533 322.91C830.351 322.413 830.324 321.85 830.452 321.222C830.57 320.644 830.803 320.152 831.151 319.745C831.519 319.325 831.974 319.002 832.516 318.776C833.057 318.551 833.667 318.418 834.348 318.38C835.031 318.325 835.755 318.375 836.519 318.53C837.623 318.755 838.504 319.12 839.162 319.626C839.836 320.135 840.295 320.75 840.537 321.471C840.796 322.196 840.841 322.975 840.672 323.807L838.175 323.299C838.177 322.592 838.014 322.045 837.686 321.66C837.358 321.275 836.803 321.003 836.022 320.844C835.24 320.684 834.618 320.699 834.155 320.888C833.692 321.077 833.412 321.409 833.315 321.884C833.243 322.241 833.311 322.556 833.521 322.829C833.751 323.088 834.097 323.344 834.559 323.597C835.02 323.85 835.566 324.121 836.198 324.408C836.775 324.703 837.316 324.999 837.821 325.296C838.33 325.577 838.769 325.896 839.138 326.254C839.528 326.599 839.807 327.01 839.975 327.486C840.144 327.963 840.164 328.515 840.036 329.144C839.877 329.925 839.528 330.553 838.989 331.027C838.467 331.504 837.785 331.816 836.941 331.963C836.101 332.092 835.129 332.045 834.025 331.82C833.057 331.623 832.239 331.341 831.57 330.975C830.919 330.612 830.392 330.204 829.989 329.751C829.603 329.301 829.324 328.846 829.152 328.386C828.98 327.927 828.882 327.5 828.856 327.106C828.847 326.715 828.885 326.395 828.971 326.147ZM843.584 320.261L852.552 322.087L852.08 324.406L843.112 322.579L843.584 320.261ZM847.337 317.47L850.19 318.051L846.911 334.152L844.058 333.571L847.337 317.47ZM858.688 336.843C857.278 336.555 856.065 336.043 855.047 335.305C854.03 334.567 853.299 333.64 852.854 332.524C852.409 331.407 852.331 330.144 852.618 328.734C852.901 327.341 853.466 326.218 854.312 325.365C855.162 324.494 856.201 323.909 857.429 323.611C858.657 323.313 859.976 323.307 861.386 323.595C862.795 323.882 863.999 324.401 864.996 325.152C865.992 325.904 866.703 326.844 867.127 327.974C867.572 329.091 867.653 330.346 867.369 331.738C867.082 333.148 866.515 334.28 865.669 335.133C864.84 335.991 863.822 336.561 862.614 336.846C861.406 337.131 860.097 337.13 858.688 336.843ZM859.16 334.524C859.975 334.69 860.755 334.681 861.5 334.497C862.246 334.312 862.879 333.937 863.401 333.371C863.94 332.809 864.303 332.069 864.49 331.152C864.677 330.235 864.632 329.412 864.356 328.684C864.097 327.959 863.662 327.357 863.052 326.879C862.462 326.387 861.751 326.057 860.919 325.887C860.087 325.718 859.296 325.734 858.548 325.935C857.799 326.137 857.147 326.517 856.591 327.076C856.052 327.638 855.687 328.386 855.497 329.32C855.31 330.238 855.355 331.06 855.631 331.789C855.907 332.517 856.352 333.112 856.966 333.573C857.596 334.038 858.328 334.355 859.16 334.524ZM871.197 325.884L874.025 326.46L871.441 339.148L868.613 338.572L871.197 325.884ZM879.432 327.27C880.163 327.418 880.813 327.657 881.383 327.985C881.97 328.317 882.441 328.74 882.796 329.255C883.171 329.756 883.416 330.336 883.529 330.996C883.659 331.66 883.64 332.407 883.47 333.24L881.836 341.265L879.008 340.689L880.528 333.224C880.739 332.188 880.64 331.372 880.231 330.776C879.842 330.166 879.113 329.752 878.042 329.534C877.227 329.368 876.444 329.394 875.692 329.612C874.96 329.817 874.325 330.157 873.786 330.631C873.251 331.088 872.882 331.64 872.679 332.289L872.933 330.908C873.146 330.297 873.454 329.74 873.857 329.239C874.264 328.72 874.749 328.288 875.315 327.944C875.884 327.582 876.517 327.339 877.214 327.216C877.912 327.093 878.651 327.111 879.432 327.27ZM889.547 329.33C890.294 329.482 890.953 329.722 891.523 330.05C892.092 330.379 892.555 330.8 892.91 331.315C893.286 331.816 893.539 332.398 893.669 333.061C893.799 333.725 893.78 334.472 893.61 335.305L891.976 343.33L889.122 342.749L890.642 335.284C890.853 334.248 890.754 333.432 890.345 332.835C889.956 332.226 889.227 331.812 888.157 331.594C887.342 331.428 886.558 331.454 885.806 331.672C885.074 331.877 884.439 332.216 883.9 332.69C883.382 333.151 883.021 333.705 882.819 334.354L883.058 332.917C883.268 332.323 883.582 331.777 884.002 331.278C884.426 330.763 884.92 330.333 885.485 329.988C886.051 329.644 886.674 329.408 887.354 329.281C888.052 329.158 888.782 329.174 889.547 329.33ZM906.535 341.943L909.261 342.499C908.949 343.337 908.451 344.041 907.77 344.609C907.108 345.165 906.279 345.544 905.282 345.748C904.289 345.935 903.156 345.899 901.882 345.639C900.438 345.345 899.201 344.819 898.17 344.061C897.143 343.285 896.407 342.34 895.962 341.223C895.517 340.106 895.433 338.869 895.71 337.51C895.983 336.168 896.536 335.06 897.368 334.186C898.201 333.312 899.225 332.716 900.439 332.397C901.671 332.082 903.017 332.073 904.478 332.37C905.989 332.678 907.191 333.206 908.082 333.954C908.994 334.688 909.587 335.64 909.862 336.81C910.14 337.963 910.072 339.338 909.659 340.935L898.475 338.657C898.414 339.387 898.512 340.08 898.768 340.733C899.045 341.373 899.481 341.922 900.078 342.38C900.678 342.82 901.42 343.131 902.303 343.31C903.288 343.511 904.152 343.483 904.893 343.228C905.652 342.975 906.2 342.547 906.535 341.943ZM903.934 334.648C902.779 334.413 901.769 334.508 900.905 334.933C900.043 335.341 899.412 335.964 899.011 336.803L907.189 338.468C907.315 337.503 907.084 336.686 906.494 336.018C905.909 335.333 905.055 334.876 903.934 334.648ZM913.592 334.518L916.42 335.094L913.837 347.782L911.009 347.206L913.592 334.518ZM920.513 338.449C919.596 338.262 918.767 338.296 918.025 338.552C917.3 338.811 916.685 339.181 916.18 339.662C915.675 340.143 915.293 340.631 915.033 341.127L915.298 339.695C915.353 339.511 915.469 339.243 915.647 338.89C915.829 338.521 916.068 338.127 916.365 337.71C916.68 337.296 917.058 336.914 917.501 336.562C917.965 336.196 918.488 335.931 919.07 335.767C919.668 335.605 920.333 335.599 921.063 335.748L920.513 338.449ZM929.018 337.66L931.846 338.236L929.262 350.923L926.434 350.347L929.018 337.66ZM935.939 341.59C935.022 341.403 934.192 341.438 933.45 341.694C932.725 341.953 932.11 342.323 931.606 342.804C931.101 343.285 930.718 343.773 930.458 344.268L930.723 342.836C930.778 342.653 930.895 342.385 931.073 342.032C931.254 341.662 931.494 341.269 931.791 340.851C932.105 340.438 932.484 340.055 932.927 339.703C933.39 339.338 933.913 339.073 934.495 338.908C935.094 338.747 935.759 338.741 936.489 338.89L935.939 341.59ZM947.437 350.273L950.163 350.828C949.851 351.667 949.354 352.371 948.672 352.939C948.011 353.495 947.182 353.874 946.185 354.078C945.192 354.265 944.058 354.229 942.784 353.969C941.341 353.675 940.103 353.149 939.073 352.391C938.045 351.615 937.309 350.669 936.864 349.553C936.42 348.436 936.336 347.199 936.612 345.84C936.886 344.498 937.439 343.39 938.271 342.516C939.104 341.642 940.127 341.046 941.342 340.727C942.574 340.412 943.92 340.403 945.38 340.7C946.892 341.008 948.094 341.536 948.985 342.283C949.897 343.018 950.49 343.97 950.765 345.14C951.043 346.293 950.975 347.668 950.562 349.264L939.377 346.987C939.317 347.717 939.415 348.41 939.671 349.063C939.947 349.703 940.384 350.252 940.98 350.71C941.581 351.15 942.322 351.46 943.205 351.64C944.191 351.841 945.054 351.813 945.796 351.558C946.555 351.305 947.102 350.877 947.437 350.273ZM944.837 342.978C943.682 342.742 942.672 342.837 941.807 343.263C940.946 343.671 940.315 344.294 939.914 345.133L948.092 346.798C948.218 345.833 947.986 345.016 947.397 344.348C946.811 343.663 945.958 343.206 944.837 342.978ZM957.51 356.968C956.355 356.733 955.351 356.236 954.497 355.479C953.66 354.725 953.053 353.796 952.676 352.693C952.319 351.577 952.273 350.374 952.536 349.083C952.805 347.758 953.329 346.662 954.107 345.794C954.889 344.91 955.829 344.288 956.929 343.928C958.028 343.568 959.189 343.512 960.412 343.761C961.771 344.038 962.789 344.555 963.466 345.312C964.143 346.069 964.549 346.983 964.685 348.055C964.821 349.126 964.762 350.281 964.51 351.521C964.368 352.218 964.116 352.936 963.753 353.676C963.393 354.398 962.925 355.046 962.349 355.618C961.789 356.194 961.101 356.62 960.284 356.896C959.488 357.159 958.563 357.183 957.51 356.968ZM958.854 354.801C959.805 354.994 960.648 354.98 961.383 354.758C962.138 354.523 962.752 354.117 963.223 353.541C963.711 352.968 964.038 352.274 964.204 351.459C964.387 350.559 964.365 349.758 964.136 349.057C963.911 348.339 963.501 347.743 962.908 347.268C962.318 346.777 961.548 346.434 960.597 346.24C959.238 345.964 958.104 346.148 957.194 346.794C956.284 347.44 955.699 348.4 955.44 349.674C955.27 350.506 955.298 351.282 955.524 352C955.766 352.721 956.173 353.326 956.746 353.814C957.319 354.302 958.021 354.631 958.854 354.801ZM965.501 345.09L968.355 345.671L965.771 358.358L963.121 357.819C963.121 357.819 963.137 357.654 963.169 357.324C963.2 356.995 963.246 356.597 963.305 356.132C963.368 355.649 963.443 355.196 963.53 354.771L965.501 345.09ZM983.536 356.856C983.213 357.922 982.675 358.785 981.921 359.445C981.167 360.105 980.248 360.537 979.163 360.741C978.095 360.948 976.915 360.92 975.625 360.657C974.232 360.373 973.018 359.861 971.984 359.12C970.967 358.382 970.227 357.453 969.766 356.333C969.304 355.213 969.217 353.948 969.504 352.538C969.791 351.129 970.366 349.999 971.229 349.148C972.092 348.298 973.137 347.724 974.366 347.426C975.611 347.131 976.93 347.125 978.323 347.409C979.613 347.672 980.708 348.116 981.607 348.741C982.509 349.35 983.179 350.096 983.618 350.982C984.057 351.867 984.217 352.864 984.097 353.971L981.499 353.442C981.393 352.483 981.008 351.68 980.344 351.031C979.701 350.37 978.87 349.935 977.85 349.727C977.018 349.558 976.219 349.572 975.454 349.77C974.692 349.951 974.033 350.321 973.477 350.88C972.941 351.425 972.576 352.174 972.383 353.125C972.192 354.059 972.235 354.89 972.511 355.619C972.805 356.35 973.267 356.949 973.897 357.413C974.531 357.861 975.264 358.169 976.097 358.339C977.218 358.567 978.185 358.508 978.999 358.16C979.833 357.799 980.479 357.188 980.938 356.326L983.536 356.856ZM995.676 364.449L997.17 357.111C997.308 356.432 997.304 355.847 997.156 355.357C997.028 354.854 996.751 354.435 996.324 354.1C995.897 353.765 995.293 353.518 994.511 353.359C993.73 353.2 992.982 353.225 992.267 353.433C991.556 353.624 990.942 353.95 990.423 354.411C989.905 354.871 989.544 355.426 989.342 356.074L989.607 354.642C989.816 354.048 990.122 353.5 990.525 352.999C990.931 352.48 991.417 352.048 991.983 351.703C992.548 351.359 993.18 351.125 993.877 351.001C994.578 350.861 995.319 350.87 996.1 351.03C996.831 351.178 997.481 351.417 998.051 351.745C998.638 352.077 999.11 352.492 999.469 352.989C999.848 353.473 1000.1 354.037 1000.21 354.68C1000.35 355.309 1000.34 356.006 1000.18 356.77L998.504 365.025L995.676 364.449ZM985.281 362.332L988.903 344.549L991.731 345.125L988.109 362.908L985.281 362.332Z" fill="white"/>
</g>
<defs>
<filter id="filter0_b_3203_31167" x="-399.574" y="-361.097" width="1343.49" height="1228.24" filterUnits="userSpaceOnUse" color-interpolation-filters="sRGB">
<feFlood flood-opacity="0" result="BackgroundImageFix"/>
<feGaussianBlur in="BackgroundImageFix" stdDeviation="200"/>
<feComposite in2="SourceAlpha" operator="in" result="effect1_backgroundBlur_3203_31167"/>
<feBlend mode="normal" in="SourceGraphic" in2="effect1_backgroundBlur_3203_31167" result="shape"/>
</filter>
<filter id="filter1_b_3203_31167" x="203.071" y="-359.184" width="1360.86" height="1245.37" filterUnits="userSpaceOnUse" color-interpolation-filters="sRGB">
<feFlood flood-opacity="0" result="BackgroundImageFix"/>
<feGaussianBlur in="BackgroundImageFix" stdDeviation="200"/>
<feComposite in2="SourceAlpha" operator="in" result="effect1_backgroundBlur_3203_31167"/>
<feBlend mode="normal" in="SourceGraphic" in2="effect1_backgroundBlur_3203_31167" result="shape"/>
</filter>
<linearGradient id="paint0_linear_3203_31167" x1="255.941" y1="57.726" x2="41.8688" y2="35.3639" gradientUnits="userSpaceOnUse">
<stop stop-color="white"/>
<stop offset="1" stop-color="white" stop-opacity="0"/>
</linearGradient>
<linearGradient id="paint1_linear_3203_31167" x1="242.426" y1="140.994" x2="242.426" y2="474.649" gradientUnits="userSpaceOnUse">
<stop stop-color="white" stop-opacity="0.19"/>
<stop offset="0.927083" stop-color="white" stop-opacity="0.23"/>
</linearGradient>
<linearGradient id="paint2_linear_3203_31167" x1="992.071" y1="57.726" x2="1206.14" y2="35.3639" gradientUnits="userSpaceOnUse">
<stop stop-color="white"/>
<stop offset="1" stop-color="white" stop-opacity="0"/>
</linearGradient>
<linearGradient id="paint3_linear_3203_31167" x1="923.98" y1="39.3816" x2="923.98" y2="394.382" gradientUnits="userSpaceOnUse">
<stop stop-color="white" stop-opacity="0.29"/>
<stop offset="1" stop-color="white" stop-opacity="0.17"/>
</linearGradient>
<clipPath id="clip0_3203_31167">
<rect width="613.375" height="487.277" fill="white" transform="translate(601.637 0.341797)"/>
</clipPath>
</defs>
</svg>
