<svg width="55" height="55" viewBox="0 0 55 55" fill="none" xmlns="http://www.w3.org/2000/svg">
<path d="M7.48926 27.0876H9.74683M27.8074 6.76953V9.0271M45.8679 27.0876H48.1255M13.3589 12.6392L14.9392 14.2195M42.2558 12.6392L40.6755 14.2195M22.615 38.3755H32.9998M21.0347 36.1179C19.1394 34.6964 17.7394 32.7147 17.033 30.4533C16.3266 28.192 16.3496 25.7657 17.0988 23.5181C17.848 21.2706 19.2853 19.3157 21.2073 17.9305C23.1292 16.5452 25.4383 15.7998 27.8074 15.7998C30.1765 15.7998 32.4856 16.5452 34.4075 17.9305C36.3294 19.3157 37.7668 21.2706 38.516 23.5181C39.2651 25.7657 39.2882 28.192 38.5818 30.4533C37.8754 32.7147 36.4754 34.6964 34.5801 36.1179C33.6987 36.9904 33.035 38.0582 32.6428 39.2348C32.2506 40.4114 32.1409 41.6638 32.3225 42.8906C32.3225 44.0881 31.8468 45.2366 31.0001 46.0833C30.1533 46.9301 29.0049 47.4058 27.8074 47.4058C26.6099 47.4058 25.4614 46.9301 24.6147 46.0833C23.7679 45.2366 23.2922 44.0881 23.2922 42.8906C23.4739 41.6638 23.3641 40.4114 22.972 39.2348C22.5798 38.0582 21.9161 36.9904 21.0347 36.1179Z" stroke="#FFBD00" stroke-width="4.51514" stroke-linecap="round" stroke-linejoin="round"/>
</svg>
