<svg width="665" height="207" viewBox="0 0 665 207" fill="none" xmlns="http://www.w3.org/2000/svg">
<rect x="3" y="129" width="576" height="75" rx="37.5" fill="white" fill-opacity="0.14" stroke="white" stroke-width="5"/>
<path d="M43.79 43.245V37.14H67.33V43.245H43.79ZM34.935 51L51.655 15.415H59.575L76.46 51H68.485L53.855 18.935H57.375L42.855 51H34.935ZM112.826 40.22C112.643 42.6033 111.873 44.6567 110.516 46.38C109.196 48.1033 107.363 49.4233 105.016 50.34C102.67 51.22 99.8828 51.66 96.6562 51.66C93.2828 51.66 90.2578 51.1283 87.5812 50.065C84.9412 48.965 82.8512 47.37 81.3112 45.28C79.8078 43.1533 79.0562 40.5317 79.0562 37.415C79.0562 34.2983 79.8078 31.6767 81.3112 29.55C82.8512 27.4233 84.9412 25.81 87.5812 24.71C90.2578 23.61 93.2828 23.06 96.6562 23.06C99.8828 23.06 102.651 23.5183 104.961 24.435C107.271 25.315 109.086 26.5983 110.406 28.285C111.763 29.9717 112.551 32.0067 112.771 34.39H106.226C105.603 32.5567 104.448 31.1267 102.761 30.1C101.075 29.0733 99.0395 28.56 96.6562 28.56C94.7495 28.56 93.0078 28.89 91.4312 29.55C89.8912 30.21 88.6445 31.2 87.6912 32.52C86.7745 33.8033 86.3162 35.435 86.3162 37.415C86.3162 39.3583 86.7745 40.99 87.6912 42.31C88.6078 43.5933 89.8545 44.565 91.4312 45.225C93.0078 45.8483 94.7495 46.16 96.6562 46.16C99.2228 46.16 101.313 45.6467 102.926 44.62C104.576 43.5933 105.695 42.1267 106.281 40.22H112.826ZM150.531 40.22C150.348 42.6033 149.578 44.6567 148.221 46.38C146.901 48.1033 145.068 49.4233 142.721 50.34C140.375 51.22 137.588 51.66 134.361 51.66C130.988 51.66 127.963 51.1283 125.286 50.065C122.646 48.965 120.556 47.37 119.016 45.28C117.513 43.1533 116.761 40.5317 116.761 37.415C116.761 34.2983 117.513 31.6767 119.016 29.55C120.556 27.4233 122.646 25.81 125.286 24.71C127.963 23.61 130.988 23.06 134.361 23.06C137.588 23.06 140.356 23.5183 142.666 24.435C144.976 25.315 146.791 26.5983 148.111 28.285C149.468 29.9717 150.256 32.0067 150.476 34.39H143.931C143.308 32.5567 142.153 31.1267 140.466 30.1C138.78 29.0733 136.745 28.56 134.361 28.56C132.455 28.56 130.713 28.89 129.136 29.55C127.596 30.21 126.35 31.2 125.396 32.52C124.48 33.8033 124.021 35.435 124.021 37.415C124.021 39.3583 124.48 40.99 125.396 42.31C126.313 43.5933 127.56 44.565 129.136 45.225C130.713 45.8483 132.455 46.16 134.361 46.16C136.928 46.16 139.018 45.6467 140.631 44.62C142.281 43.5933 143.4 42.1267 143.986 40.22H150.531ZM180.701 41.925H187.631C187.338 43.795 186.55 45.4633 185.266 46.93C184.02 48.3967 182.315 49.5517 180.151 50.395C177.988 51.2383 175.348 51.66 172.231 51.66C168.748 51.66 165.668 51.11 162.991 50.01C160.315 48.8733 158.225 47.2417 156.721 45.115C155.218 42.9883 154.466 40.4217 154.466 37.415C154.466 34.4083 155.2 31.8417 156.666 29.715C158.133 27.5517 160.168 25.9017 162.771 24.765C165.411 23.6283 168.491 23.06 172.011 23.06C175.605 23.06 178.593 23.6283 180.976 24.765C183.36 25.9017 185.12 27.625 186.256 29.935C187.43 32.2083 187.925 35.1233 187.741 38.68H161.671C161.855 40.0733 162.368 41.3383 163.211 42.475C164.091 43.6117 165.265 44.51 166.731 45.17C168.235 45.83 170.013 46.16 172.066 46.16C174.34 46.16 176.228 45.775 177.731 45.005C179.271 44.1983 180.261 43.1717 180.701 41.925ZM171.681 28.505C169.041 28.505 166.896 29.0917 165.246 30.265C163.596 31.4017 162.533 32.8133 162.056 34.5H180.646C180.463 32.6667 179.583 31.2183 178.006 30.155C176.466 29.055 174.358 28.505 171.681 28.505ZM193.612 12.665H200.762V51H193.612V12.665ZM232.908 41.925H239.838C239.545 43.795 238.757 45.4633 237.473 46.93C236.227 48.3967 234.522 49.5517 232.358 50.395C230.195 51.2383 227.555 51.66 224.438 51.66C220.955 51.66 217.875 51.11 215.198 50.01C212.522 48.8733 210.432 47.2417 208.928 45.115C207.425 42.9883 206.673 40.4217 206.673 37.415C206.673 34.4083 207.407 31.8417 208.873 29.715C210.34 27.5517 212.375 25.9017 214.978 24.765C217.618 23.6283 220.698 23.06 224.218 23.06C227.812 23.06 230.8 23.6283 233.183 24.765C235.567 25.9017 237.327 27.625 238.463 29.935C239.637 32.2083 240.132 35.1233 239.948 38.68H213.878C214.062 40.0733 214.575 41.3383 215.418 42.475C216.298 43.6117 217.472 44.51 218.938 45.17C220.442 45.83 222.22 46.16 224.273 46.16C226.547 46.16 228.435 45.775 229.938 45.005C231.478 44.1983 232.468 43.1717 232.908 41.925ZM223.888 28.505C221.248 28.505 219.103 29.0917 217.453 30.265C215.803 31.4017 214.74 32.8133 214.263 34.5H232.853C232.67 32.6667 231.79 31.2183 230.213 30.155C228.673 29.055 226.565 28.505 223.888 28.505ZM245.269 23.665H252.419V51H245.269V23.665ZM262.924 29.55C260.87 29.55 259.092 29.9533 257.589 30.76C256.085 31.53 254.875 32.4833 253.959 33.62C253.042 34.7567 252.4 35.8567 252.034 36.92L251.979 33.895C252.015 33.455 252.162 32.8133 252.419 31.97C252.675 31.09 253.06 30.155 253.574 29.165C254.087 28.1383 254.765 27.1667 255.609 26.25C256.452 25.2967 257.479 24.5267 258.689 23.94C259.899 23.3533 261.31 23.06 262.924 23.06V29.55ZM280.654 51.605C277.941 51.605 275.466 51.0183 273.229 49.845C271.029 48.635 269.269 46.9667 267.949 44.84C266.666 42.6767 266.024 40.1833 266.024 37.36C266.024 34.4633 266.684 31.9517 268.004 29.825C269.324 27.6983 271.102 26.0483 273.339 24.875C275.612 23.665 278.179 23.06 281.039 23.06C284.192 23.06 286.722 23.7017 288.629 24.985C290.572 26.2317 291.984 27.9367 292.864 30.1C293.744 32.2633 294.184 34.6833 294.184 37.36C294.184 38.9733 293.927 40.6233 293.414 42.31C292.901 43.96 292.112 45.5 291.049 46.93C289.986 48.3233 288.592 49.46 286.869 50.34C285.146 51.1833 283.074 51.605 280.654 51.605ZM282.964 46.105C285.127 46.105 286.997 45.7383 288.574 45.005C290.151 44.2717 291.361 43.245 292.204 41.925C293.047 40.605 293.469 39.0833 293.469 37.36C293.469 35.49 293.029 33.9133 292.149 32.63C291.306 31.31 290.096 30.32 288.519 29.66C286.979 28.9633 285.127 28.615 282.964 28.615C279.921 28.615 277.556 29.4217 275.869 31.035C274.182 32.6117 273.339 34.72 273.339 37.36C273.339 39.12 273.742 40.66 274.549 41.98C275.356 43.2633 276.474 44.2717 277.904 45.005C279.371 45.7383 281.057 46.105 282.964 46.105ZM293.469 23.665H300.619V51H293.964C293.964 51 293.909 50.6517 293.799 49.955C293.726 49.2217 293.652 48.305 293.579 47.205C293.506 46.105 293.469 45.0233 293.469 43.96V23.665ZM305.165 23.665H326.395V29.22H305.165V23.665ZM312.205 16.185H319.355V51H312.205V16.185ZM355.477 41.925H362.407C362.113 43.795 361.325 45.4633 360.042 46.93C358.795 48.3967 357.09 49.5517 354.927 50.395C352.763 51.2383 350.123 51.66 347.007 51.66C343.523 51.66 340.443 51.11 337.767 50.01C335.09 48.8733 333 47.2417 331.497 45.115C329.993 42.9883 329.242 40.4217 329.242 37.415C329.242 34.4083 329.975 31.8417 331.442 29.715C332.908 27.5517 334.943 25.9017 337.547 24.765C340.187 23.6283 343.267 23.06 346.787 23.06C350.38 23.06 353.368 23.6283 355.752 24.765C358.135 25.9017 359.895 27.625 361.032 29.935C362.205 32.2083 362.7 35.1233 362.517 38.68H336.447C336.63 40.0733 337.143 41.3383 337.987 42.475C338.867 43.6117 340.04 44.51 341.507 45.17C343.01 45.83 344.788 46.16 346.842 46.16C349.115 46.16 351.003 45.775 352.507 45.005C354.047 44.1983 355.037 43.1717 355.477 41.925ZM346.457 28.505C343.817 28.505 341.672 29.0917 340.022 30.265C338.372 31.4017 337.308 32.8133 336.832 34.5H355.422C355.238 32.6667 354.358 31.2183 352.782 30.155C351.242 29.055 349.133 28.505 346.457 28.505ZM378.629 23.665H386.219L398.044 49.9L391.884 51L378.629 23.665ZM412.069 23.665L393.149 62H385.724L393.809 46.93L404.424 23.665H412.069ZM431.11 51.66C427.664 51.66 424.62 51.11 421.98 50.01C419.377 48.91 417.342 47.315 415.875 45.225C414.409 43.0983 413.675 40.495 413.675 37.415C413.675 34.335 414.409 31.7317 415.875 29.605C417.342 27.4417 419.377 25.81 421.98 24.71C424.62 23.61 427.664 23.06 431.11 23.06C434.557 23.06 437.564 23.61 440.13 24.71C442.734 25.81 444.769 27.4417 446.235 29.605C447.702 31.7317 448.435 34.335 448.435 37.415C448.435 40.495 447.702 43.0983 446.235 45.225C444.769 47.315 442.734 48.91 440.13 50.01C437.564 51.11 434.557 51.66 431.11 51.66ZM431.11 46.16C433.017 46.16 434.722 45.83 436.225 45.17C437.765 44.4733 438.975 43.4833 439.855 42.2C440.735 40.88 441.175 39.285 441.175 37.415C441.175 35.545 440.735 33.95 439.855 32.63C438.975 31.2733 437.784 30.2467 436.28 29.55C434.777 28.8533 433.054 28.505 431.11 28.505C429.204 28.505 427.48 28.8533 425.94 29.55C424.4 30.2467 423.172 31.255 422.255 32.575C421.375 33.895 420.935 35.5083 420.935 37.415C420.935 39.285 421.375 40.88 422.255 42.2C423.135 43.4833 424.345 44.4733 425.885 45.17C427.425 45.83 429.167 46.16 431.11 46.16ZM485.346 51H478.196V23.665H485.346V51ZM478.581 37.855L478.636 39.725C478.563 40.2383 478.379 40.99 478.086 41.98C477.793 42.9333 477.334 43.96 476.711 45.06C476.124 46.16 475.354 47.2233 474.401 48.25C473.448 49.24 472.274 50.065 470.881 50.725C469.488 51.3483 467.838 51.66 465.931 51.66C464.428 51.66 462.943 51.4767 461.476 51.11C460.046 50.7433 458.744 50.1383 457.571 49.295C456.398 48.415 455.463 47.2417 454.766 45.775C454.069 44.3083 453.721 42.4567 453.721 40.22V23.665H460.871V39.01C460.871 40.77 461.146 42.1633 461.696 43.19C462.283 44.18 463.126 44.8767 464.226 45.28C465.326 45.6833 466.628 45.885 468.131 45.885C470.111 45.885 471.816 45.4633 473.246 44.62C474.676 43.74 475.831 42.6767 476.711 41.43C477.628 40.1833 478.251 38.9917 478.581 37.855ZM491.856 23.665H499.006V51H491.856V23.665ZM509.511 29.55C507.457 29.55 505.679 29.9533 504.176 30.76C502.672 31.53 501.462 32.4833 500.546 33.62C499.629 34.7567 498.987 35.8567 498.621 36.92L498.566 33.895C498.602 33.455 498.749 32.8133 499.006 31.97C499.262 31.09 499.647 30.155 500.161 29.165C500.674 28.1383 501.352 27.1667 502.196 26.25C503.039 25.2967 504.066 24.5267 505.276 23.94C506.486 23.3533 507.897 23.06 509.511 23.06V29.55ZM58.365 117.605C55.945 117.605 53.8733 117.183 52.15 116.34C50.4267 115.46 49.0333 114.323 47.97 112.93C46.9067 111.5 46.1183 109.96 45.605 108.31C45.0917 106.623 44.835 104.973 44.835 103.36C44.835 101.343 45.0733 99.4733 45.55 97.75C46.0633 96.0267 46.8517 94.5233 47.915 93.24C48.9783 91.92 50.3717 90.8933 52.095 90.16C53.8183 89.4267 55.9083 89.06 58.365 89.06C61.1883 89.06 63.6817 89.665 65.845 90.875C68.045 92.0483 69.7683 93.6983 71.015 95.825C72.2983 97.9517 72.94 100.463 72.94 103.36C72.94 106.183 72.2983 108.677 71.015 110.84C69.7317 112.967 67.99 114.635 65.79 115.845C63.59 117.018 61.115 117.605 58.365 117.605ZM56.055 112.105C57.9983 112.105 59.685 111.738 61.115 111.005C62.545 110.272 63.645 109.263 64.415 107.98C65.2217 106.66 65.625 105.12 65.625 103.36C65.625 100.72 64.7817 98.5933 63.095 96.98C61.445 95.3667 59.0983 94.56 56.055 94.56C53.9283 94.56 52.0767 94.9083 50.5 95.605C48.9233 96.3017 47.695 97.31 46.815 98.63C45.9717 99.9133 45.55 101.49 45.55 103.36C45.55 105.083 45.9717 106.605 46.815 107.925C47.6583 109.245 48.8683 110.272 50.445 111.005C52.0217 111.738 53.8917 112.105 56.055 112.105ZM45.55 78.665V109.96C45.55 111.133 45.495 112.398 45.385 113.755C45.275 115.075 45.165 116.157 45.055 117H38.4V78.665H45.55ZM109.853 117H102.703V89.665H109.853V117ZM103.088 103.855L103.143 105.725C103.069 106.238 102.886 106.99 102.593 107.98C102.299 108.933 101.841 109.96 101.218 111.06C100.631 112.16 99.8611 113.223 98.9077 114.25C97.9544 115.24 96.7811 116.065 95.3877 116.725C93.9944 117.348 92.3444 117.66 90.4377 117.66C88.9344 117.66 87.4494 117.477 85.9827 117.11C84.5527 116.743 83.2511 116.138 82.0777 115.295C80.9044 114.415 79.9694 113.242 79.2727 111.775C78.5761 110.308 78.2277 108.457 78.2277 106.22V89.665H85.3777V105.01C85.3777 106.77 85.6527 108.163 86.2027 109.19C86.7894 110.18 87.6327 110.877 88.7327 111.28C89.8327 111.683 91.1344 111.885 92.6377 111.885C94.6177 111.885 96.3227 111.463 97.7527 110.62C99.1827 109.74 100.338 108.677 101.218 107.43C102.134 106.183 102.758 104.992 103.088 103.855ZM115.263 107.925H121.863C122.266 109.172 123.091 110.198 124.338 111.005C125.621 111.775 127.289 112.16 129.343 112.16C130.736 112.16 131.818 112.032 132.588 111.775C133.358 111.518 133.889 111.152 134.183 110.675C134.476 110.162 134.623 109.593 134.623 108.97C134.623 108.2 134.384 107.613 133.908 107.21C133.431 106.77 132.698 106.422 131.708 106.165C130.718 105.908 129.453 105.67 127.913 105.45C126.373 105.193 124.888 104.882 123.458 104.515C122.028 104.148 120.763 103.672 119.663 103.085C118.563 102.462 117.683 101.692 117.023 100.775C116.399 99.8217 116.088 98.6667 116.088 97.31C116.088 95.99 116.399 94.8167 117.023 93.79C117.683 92.7633 118.581 91.9017 119.718 91.205C120.891 90.5083 122.248 89.9767 123.788 89.61C125.364 89.2433 127.051 89.06 128.848 89.06C131.561 89.06 133.816 89.4633 135.613 90.27C137.409 91.04 138.748 92.14 139.628 93.57C140.544 94.9633 141.003 96.5767 141.003 98.41H134.678C134.384 97.0533 133.798 96.0817 132.918 95.495C132.038 94.8717 130.681 94.56 128.848 94.56C127.051 94.56 125.694 94.835 124.778 95.385C123.861 95.935 123.403 96.6867 123.403 97.64C123.403 98.41 123.678 99.015 124.228 99.455C124.814 99.8583 125.658 100.188 126.758 100.445C127.894 100.702 129.306 100.977 130.993 101.27C132.423 101.563 133.779 101.893 135.063 102.26C136.383 102.627 137.556 103.103 138.583 103.69C139.609 104.24 140.416 104.992 141.003 105.945C141.626 106.862 141.938 108.035 141.938 109.465C141.938 111.225 141.424 112.71 140.398 113.92C139.408 115.13 137.978 116.065 136.108 116.725C134.238 117.348 132.001 117.66 129.398 117.66C127.088 117.66 125.089 117.422 123.403 116.945C121.753 116.432 120.378 115.79 119.278 115.02C118.178 114.213 117.316 113.37 116.692 112.49C116.106 111.573 115.703 110.712 115.483 109.905C115.263 109.098 115.189 108.438 115.263 107.925ZM155.602 77.675V83.945H147.297V77.675H155.602ZM147.847 89.665H154.997V117H147.847V89.665ZM162.124 89.665H169.274V117H162.124V89.665ZM181.979 89.06C183.666 89.06 185.224 89.28 186.654 89.72C188.084 90.16 189.331 90.8383 190.394 91.755C191.458 92.6717 192.283 93.845 192.869 95.275C193.456 96.6683 193.749 98.3367 193.749 100.28V117H186.599V101.545C186.599 99.235 186.031 97.5483 184.894 96.485C183.794 95.385 181.979 94.835 179.449 94.835C177.543 94.835 175.819 95.2017 174.279 95.935C172.739 96.6683 171.493 97.6033 170.539 98.74C169.586 99.84 169.036 100.995 168.889 102.205L168.834 99.4C169.018 98.1167 169.439 96.87 170.099 95.66C170.759 94.45 171.639 93.35 172.739 92.36C173.876 91.3333 175.214 90.5267 176.754 89.94C178.294 89.3533 180.036 89.06 181.979 89.06ZM225.174 107.925H232.104C231.811 109.795 231.022 111.463 229.739 112.93C228.492 114.397 226.787 115.552 224.624 116.395C222.461 117.238 219.821 117.66 216.704 117.66C213.221 117.66 210.141 117.11 207.464 116.01C204.787 114.873 202.697 113.242 201.194 111.115C199.691 108.988 198.939 106.422 198.939 103.415C198.939 100.408 199.672 97.8417 201.139 95.715C202.606 93.5517 204.641 91.9017 207.244 90.765C209.884 89.6283 212.964 89.06 216.484 89.06C220.077 89.06 223.066 89.6283 225.449 90.765C227.832 91.9017 229.592 93.625 230.729 95.935C231.902 98.2083 232.397 101.123 232.214 104.68H206.144C206.327 106.073 206.841 107.338 207.684 108.475C208.564 109.612 209.737 110.51 211.204 111.17C212.707 111.83 214.486 112.16 216.539 112.16C218.812 112.16 220.701 111.775 222.204 111.005C223.744 110.198 224.734 109.172 225.174 107.925ZM216.154 94.505C213.514 94.505 211.369 95.0917 209.719 96.265C208.069 97.4017 207.006 98.8133 206.529 100.5H225.119C224.936 98.6667 224.056 97.2183 222.479 96.155C220.939 95.055 218.831 94.505 216.154 94.505ZM236.434 107.925H243.034C243.438 109.172 244.263 110.198 245.509 111.005C246.793 111.775 248.461 112.16 250.514 112.16C251.908 112.16 252.989 112.032 253.759 111.775C254.529 111.518 255.061 111.152 255.354 110.675C255.648 110.162 255.794 109.593 255.794 108.97C255.794 108.2 255.556 107.613 255.079 107.21C254.603 106.77 253.869 106.422 252.879 106.165C251.889 105.908 250.624 105.67 249.084 105.45C247.544 105.193 246.059 104.882 244.629 104.515C243.199 104.148 241.934 103.672 240.834 103.085C239.734 102.462 238.854 101.692 238.194 100.775C237.571 99.8217 237.259 98.6667 237.259 97.31C237.259 95.99 237.571 94.8167 238.194 93.79C238.854 92.7633 239.753 91.9017 240.889 91.205C242.063 90.5083 243.419 89.9767 244.959 89.61C246.536 89.2433 248.223 89.06 250.019 89.06C252.733 89.06 254.988 89.4633 256.784 90.27C258.581 91.04 259.919 92.14 260.799 93.57C261.716 94.9633 262.174 96.5767 262.174 98.41H255.849C255.556 97.0533 254.969 96.0817 254.089 95.495C253.209 94.8717 251.853 94.56 250.019 94.56C248.223 94.56 246.866 94.835 245.949 95.385C245.033 95.935 244.574 96.6867 244.574 97.64C244.574 98.41 244.849 99.015 245.399 99.455C245.986 99.8583 246.829 100.188 247.929 100.445C249.066 100.702 250.478 100.977 252.164 101.27C253.594 101.563 254.951 101.893 256.234 102.26C257.554 102.627 258.728 103.103 259.754 103.69C260.781 104.24 261.588 104.992 262.174 105.945C262.798 106.862 263.109 108.035 263.109 109.465C263.109 111.225 262.596 112.71 261.569 113.92C260.579 115.13 259.149 116.065 257.279 116.725C255.409 117.348 253.173 117.66 250.569 117.66C248.259 117.66 246.261 117.422 244.574 116.945C242.924 116.432 241.549 115.79 240.449 115.02C239.349 114.213 238.488 113.37 237.864 112.49C237.278 111.573 236.874 110.712 236.654 109.905C236.434 109.098 236.361 108.438 236.434 107.925ZM267.479 107.925H274.079C274.483 109.172 275.308 110.198 276.554 111.005C277.838 111.775 279.506 112.16 281.559 112.16C282.953 112.16 284.034 112.032 284.804 111.775C285.574 111.518 286.106 111.152 286.399 110.675C286.693 110.162 286.839 109.593 286.839 108.97C286.839 108.2 286.601 107.613 286.124 107.21C285.648 106.77 284.914 106.422 283.924 106.165C282.934 105.908 281.669 105.67 280.129 105.45C278.589 105.193 277.104 104.882 275.674 104.515C274.244 104.148 272.979 103.672 271.879 103.085C270.779 102.462 269.899 101.692 269.239 100.775C268.616 99.8217 268.304 98.6667 268.304 97.31C268.304 95.99 268.616 94.8167 269.239 93.79C269.899 92.7633 270.798 91.9017 271.934 91.205C273.108 90.5083 274.464 89.9767 276.004 89.61C277.581 89.2433 279.268 89.06 281.064 89.06C283.778 89.06 286.033 89.4633 287.829 90.27C289.626 91.04 290.964 92.14 291.844 93.57C292.761 94.9633 293.219 96.5767 293.219 98.41H286.894C286.601 97.0533 286.014 96.0817 285.134 95.495C284.254 94.8717 282.898 94.56 281.064 94.56C279.268 94.56 277.911 94.835 276.994 95.385C276.078 95.935 275.619 96.6867 275.619 97.64C275.619 98.41 275.894 99.015 276.444 99.455C277.031 99.8583 277.874 100.188 278.974 100.445C280.111 100.702 281.523 100.977 283.209 101.27C284.639 101.563 285.996 101.893 287.279 102.26C288.599 102.627 289.773 103.103 290.799 103.69C291.826 104.24 292.633 104.992 293.219 105.945C293.843 106.862 294.154 108.035 294.154 109.465C294.154 111.225 293.641 112.71 292.614 113.92C291.624 115.13 290.194 116.065 288.324 116.725C286.454 117.348 284.218 117.66 281.614 117.66C279.304 117.66 277.306 117.422 275.619 116.945C273.969 116.432 272.594 115.79 271.494 115.02C270.394 114.213 269.533 113.37 268.909 112.49C268.323 111.573 267.919 110.712 267.699 109.905C267.479 109.098 267.406 108.438 267.479 107.925ZM326.531 112.82C323.561 112.82 320.939 112.38 318.666 111.5C316.429 110.583 314.687 109.245 313.441 107.485C312.194 105.725 311.571 103.598 311.571 101.105C311.571 98.6483 312.176 96.5217 313.386 94.725C314.596 92.9283 316.319 91.535 318.556 90.545C320.829 89.555 323.487 89.06 326.531 89.06C327.374 89.06 328.181 89.115 328.951 89.225C329.757 89.335 330.546 89.4817 331.316 89.665L345.121 89.72V95.11C343.251 95.1467 341.344 94.9267 339.401 94.45C337.494 93.9367 335.807 93.3867 334.341 92.8L334.176 92.415C335.422 93.0017 336.596 93.735 337.696 94.615C338.796 95.4583 339.676 96.4483 340.336 97.585C341.032 98.685 341.381 99.9683 341.381 101.435C341.381 103.818 340.776 105.872 339.566 107.595C338.356 109.282 336.632 110.583 334.396 111.5C332.196 112.38 329.574 112.82 326.531 112.82ZM335.716 128.275V126.955C335.716 125.268 335.166 124.095 334.066 123.435C333.002 122.775 331.536 122.445 329.666 122.445H321.141C319.491 122.445 318.097 122.317 316.961 122.06C315.861 121.803 314.981 121.437 314.321 120.96C313.661 120.483 313.184 119.915 312.891 119.255C312.597 118.632 312.451 117.953 312.451 117.22C312.451 115.753 312.927 114.653 313.881 113.92C314.834 113.15 316.117 112.637 317.731 112.38C319.344 112.123 321.122 112.068 323.066 112.215L326.531 112.82C324.221 112.893 322.497 113.095 321.361 113.425C320.261 113.718 319.711 114.323 319.711 115.24C319.711 115.79 319.931 116.23 320.371 116.56C320.811 116.853 321.434 117 322.241 117H331.206C333.662 117 335.752 117.257 337.476 117.77C339.236 118.32 340.574 119.218 341.491 120.465C342.407 121.748 342.866 123.49 342.866 125.69V128.275H335.716ZM326.531 107.65C328.107 107.65 329.482 107.393 330.656 106.88C331.866 106.367 332.801 105.633 333.461 104.68C334.121 103.69 334.451 102.517 334.451 101.16C334.451 99.7667 334.121 98.575 333.461 97.585C332.801 96.595 331.884 95.8433 330.711 95.33C329.537 94.78 328.144 94.505 326.531 94.505C324.954 94.505 323.561 94.78 322.351 95.33C321.141 95.8433 320.206 96.595 319.546 97.585C318.886 98.575 318.556 99.7667 318.556 101.16C318.556 102.517 318.886 103.69 319.546 104.68C320.206 105.633 321.122 106.367 322.296 106.88C323.506 107.393 324.917 107.65 326.531 107.65ZM365.422 117.66C361.975 117.66 358.932 117.11 356.292 116.01C353.689 114.91 351.654 113.315 350.187 111.225C348.72 109.098 347.987 106.495 347.987 103.415C347.987 100.335 348.72 97.7317 350.187 95.605C351.654 93.4417 353.689 91.81 356.292 90.71C358.932 89.61 361.975 89.06 365.422 89.06C368.869 89.06 371.875 89.61 374.442 90.71C377.045 91.81 379.08 93.4417 380.547 95.605C382.014 97.7317 382.747 100.335 382.747 103.415C382.747 106.495 382.014 109.098 380.547 111.225C379.08 113.315 377.045 114.91 374.442 116.01C371.875 117.11 368.869 117.66 365.422 117.66ZM365.422 112.16C367.329 112.16 369.034 111.83 370.537 111.17C372.077 110.473 373.287 109.483 374.167 108.2C375.047 106.88 375.487 105.285 375.487 103.415C375.487 101.545 375.047 99.95 374.167 98.63C373.287 97.2733 372.095 96.2467 370.592 95.55C369.089 94.8533 367.365 94.505 365.422 94.505C363.515 94.505 361.792 94.8533 360.252 95.55C358.712 96.2467 357.484 97.255 356.567 98.575C355.687 99.895 355.247 101.508 355.247 103.415C355.247 105.285 355.687 106.88 356.567 108.2C357.447 109.483 358.657 110.473 360.197 111.17C361.737 111.83 363.479 112.16 365.422 112.16ZM401.342 117.605C398.629 117.605 396.154 117.018 393.917 115.845C391.717 114.635 389.957 112.967 388.637 110.84C387.354 108.677 386.712 106.183 386.712 103.36C386.712 100.463 387.372 97.9517 388.692 95.825C390.012 93.6983 391.791 92.0483 394.027 90.875C396.301 89.665 398.867 89.06 401.727 89.06C404.881 89.06 407.411 89.7017 409.317 90.985C411.261 92.2317 412.672 93.9367 413.552 96.1C414.432 98.2633 414.872 100.683 414.872 103.36C414.872 104.973 414.616 106.623 414.102 108.31C413.589 109.96 412.801 111.5 411.737 112.93C410.674 114.323 409.281 115.46 407.557 116.34C405.834 117.183 403.762 117.605 401.342 117.605ZM403.652 112.105C405.816 112.105 407.686 111.738 409.262 111.005C410.839 110.272 412.049 109.245 412.892 107.925C413.736 106.605 414.157 105.083 414.157 103.36C414.157 101.49 413.717 99.9133 412.837 98.63C411.994 97.31 410.784 96.32 409.207 95.66C407.667 94.9633 405.816 94.615 403.652 94.615C400.609 94.615 398.244 95.4217 396.557 97.035C394.871 98.6117 394.027 100.72 394.027 103.36C394.027 105.12 394.431 106.66 395.237 107.98C396.044 109.263 397.162 110.272 398.592 111.005C400.059 111.738 401.746 112.105 403.652 112.105ZM414.157 89.665H421.307V117H414.652C414.652 117 414.597 116.652 414.487 115.955C414.414 115.222 414.341 114.305 414.267 113.205C414.194 112.105 414.157 111.023 414.157 109.96V89.665ZM428.329 78.665H435.479V117H428.329V78.665ZM441.61 107.925H448.21C448.613 109.172 449.438 110.198 450.685 111.005C451.968 111.775 453.637 112.16 455.69 112.16C457.083 112.16 458.165 112.032 458.935 111.775C459.705 111.518 460.237 111.152 460.53 110.675C460.823 110.162 460.97 109.593 460.97 108.97C460.97 108.2 460.732 107.613 460.255 107.21C459.778 106.77 459.045 106.422 458.055 106.165C457.065 105.908 455.8 105.67 454.26 105.45C452.72 105.193 451.235 104.882 449.805 104.515C448.375 104.148 447.11 103.672 446.01 103.085C444.91 102.462 444.03 101.692 443.37 100.775C442.747 99.8217 442.435 98.6667 442.435 97.31C442.435 95.99 442.747 94.8167 443.37 93.79C444.03 92.7633 444.928 91.9017 446.065 91.205C447.238 90.5083 448.595 89.9767 450.135 89.61C451.712 89.2433 453.398 89.06 455.195 89.06C457.908 89.06 460.163 89.4633 461.96 90.27C463.757 91.04 465.095 92.14 465.975 93.57C466.892 94.9633 467.35 96.5767 467.35 98.41H461.025C460.732 97.0533 460.145 96.0817 459.265 95.495C458.385 94.8717 457.028 94.56 455.195 94.56C453.398 94.56 452.042 94.835 451.125 95.385C450.208 95.935 449.75 96.6867 449.75 97.64C449.75 98.41 450.025 99.015 450.575 99.455C451.162 99.8583 452.005 100.188 453.105 100.445C454.242 100.702 455.653 100.977 457.34 101.27C458.77 101.563 460.127 101.893 461.41 102.26C462.73 102.627 463.903 103.103 464.93 103.69C465.957 104.24 466.763 104.992 467.35 105.945C467.973 106.862 468.285 108.035 468.285 109.465C468.285 111.225 467.772 112.71 466.745 113.92C465.755 115.13 464.325 116.065 462.455 116.725C460.585 117.348 458.348 117.66 455.745 117.66C453.435 117.66 451.437 117.422 449.75 116.945C448.1 116.432 446.725 115.79 445.625 115.02C444.525 114.213 443.663 113.37 443.04 112.49C442.453 111.573 442.05 110.712 441.83 109.905C441.61 109.098 441.537 108.438 441.61 107.925ZM522.662 112.05L520.407 111.995L529.317 89.665H537.182L525.137 117H518.427L509.627 94.945H512.047L502.972 117H496.262L484.547 89.665H492.412L500.992 112.05H498.737L506.767 89.665H514.962L522.662 112.05ZM549.572 77.675V83.945H541.267V77.675H549.572ZM541.817 89.665H548.967V117H541.817V89.665ZM554.169 89.665H575.399V95.22H554.169V89.665ZM561.209 82.185H568.359V117H561.209V82.185ZM604.912 117V101.985C604.912 100.482 604.655 99.235 604.142 98.245C603.628 97.255 602.803 96.5033 601.667 95.99C600.567 95.4767 599.082 95.22 597.212 95.22C595.415 95.22 593.783 95.5683 592.317 96.265C590.85 96.925 589.658 97.805 588.742 98.905C587.825 99.9683 587.312 101.105 587.202 102.315L587.147 99.29C587.33 98.08 587.752 96.87 588.412 95.66C589.072 94.45 589.952 93.35 591.052 92.36C592.152 91.37 593.472 90.5817 595.012 89.995C596.588 89.3717 598.348 89.06 600.292 89.06C601.978 89.06 603.537 89.28 604.967 89.72C606.397 90.1233 607.643 90.765 608.707 91.645C609.77 92.525 610.595 93.625 611.182 94.945C611.768 96.2283 612.062 97.75 612.062 99.51V117H604.912ZM580.437 117V78.665H587.587V117H580.437ZM43.79 175.245V169.14H67.33V175.245H43.79ZM34.935 183L51.655 147.415H59.575L76.46 183H68.485L53.855 150.935H57.375L42.855 183H34.935ZM112.826 172.22C112.643 174.603 111.873 176.657 110.516 178.38C109.196 180.103 107.363 181.423 105.016 182.34C102.67 183.22 99.8828 183.66 96.6562 183.66C93.2828 183.66 90.2578 183.128 87.5812 182.065C84.9412 180.965 82.8512 179.37 81.3112 177.28C79.8078 175.153 79.0562 172.532 79.0562 169.415C79.0562 166.298 79.8078 163.677 81.3112 161.55C82.8512 159.423 84.9412 157.81 87.5812 156.71C90.2578 155.61 93.2828 155.06 96.6562 155.06C99.8828 155.06 102.651 155.518 104.961 156.435C107.271 157.315 109.086 158.598 110.406 160.285C111.763 161.972 112.551 164.007 112.771 166.39H106.226C105.603 164.557 104.448 163.127 102.761 162.1C101.075 161.073 99.0395 160.56 96.6562 160.56C94.7495 160.56 93.0078 160.89 91.4312 161.55C89.8912 162.21 88.6445 163.2 87.6912 164.52C86.7745 165.803 86.3162 167.435 86.3162 169.415C86.3162 171.358 86.7745 172.99 87.6912 174.31C88.6078 175.593 89.8545 176.565 91.4312 177.225C93.0078 177.848 94.7495 178.16 96.6562 178.16C99.2228 178.16 101.313 177.647 102.926 176.62C104.576 175.593 105.695 174.127 106.281 172.22H112.826ZM150.531 172.22C150.348 174.603 149.578 176.657 148.221 178.38C146.901 180.103 145.068 181.423 142.721 182.34C140.375 183.22 137.588 183.66 134.361 183.66C130.988 183.66 127.963 183.128 125.286 182.065C122.646 180.965 120.556 179.37 119.016 177.28C117.513 175.153 116.761 172.532 116.761 169.415C116.761 166.298 117.513 163.677 119.016 161.55C120.556 159.423 122.646 157.81 125.286 156.71C127.963 155.61 130.988 155.06 134.361 155.06C137.588 155.06 140.356 155.518 142.666 156.435C144.976 157.315 146.791 158.598 148.111 160.285C149.468 161.972 150.256 164.007 150.476 166.39H143.931C143.308 164.557 142.153 163.127 140.466 162.1C138.78 161.073 136.745 160.56 134.361 160.56C132.455 160.56 130.713 160.89 129.136 161.55C127.596 162.21 126.35 163.2 125.396 164.52C124.48 165.803 124.021 167.435 124.021 169.415C124.021 171.358 124.48 172.99 125.396 174.31C126.313 175.593 127.56 176.565 129.136 177.225C130.713 177.848 132.455 178.16 134.361 178.16C136.928 178.16 139.018 177.647 140.631 176.62C142.281 175.593 143.4 174.127 143.986 172.22H150.531ZM180.701 173.925H187.631C187.338 175.795 186.55 177.463 185.266 178.93C184.02 180.397 182.315 181.552 180.151 182.395C177.988 183.238 175.348 183.66 172.231 183.66C168.748 183.66 165.668 183.11 162.991 182.01C160.315 180.873 158.225 179.242 156.721 177.115C155.218 174.988 154.466 172.422 154.466 169.415C154.466 166.408 155.2 163.842 156.666 161.715C158.133 159.552 160.168 157.902 162.771 156.765C165.411 155.628 168.491 155.06 172.011 155.06C175.605 155.06 178.593 155.628 180.976 156.765C183.36 157.902 185.12 159.625 186.256 161.935C187.43 164.208 187.925 167.123 187.741 170.68H161.671C161.855 172.073 162.368 173.338 163.211 174.475C164.091 175.612 165.265 176.51 166.731 177.17C168.235 177.83 170.013 178.16 172.066 178.16C174.34 178.16 176.228 177.775 177.731 177.005C179.271 176.198 180.261 175.172 180.701 173.925ZM171.681 160.505C169.041 160.505 166.896 161.092 165.246 162.265C163.596 163.402 162.533 164.813 162.056 166.5H180.646C180.463 164.667 179.583 163.218 178.006 162.155C176.466 161.055 174.358 160.505 171.681 160.505ZM191.962 173.925H198.562C198.965 175.172 199.79 176.198 201.037 177.005C202.32 177.775 203.988 178.16 206.042 178.16C207.435 178.16 208.517 178.032 209.287 177.775C210.057 177.518 210.588 177.152 210.882 176.675C211.175 176.162 211.322 175.593 211.322 174.97C211.322 174.2 211.083 173.613 210.607 173.21C210.13 172.77 209.397 172.422 208.407 172.165C207.417 171.908 206.152 171.67 204.612 171.45C203.072 171.193 201.587 170.882 200.157 170.515C198.727 170.148 197.462 169.672 196.362 169.085C195.262 168.462 194.382 167.692 193.722 166.775C193.098 165.822 192.787 164.667 192.787 163.31C192.787 161.99 193.098 160.817 193.722 159.79C194.382 158.763 195.28 157.902 196.417 157.205C197.59 156.508 198.947 155.977 200.487 155.61C202.063 155.243 203.75 155.06 205.547 155.06C208.26 155.06 210.515 155.463 212.312 156.27C214.108 157.04 215.447 158.14 216.327 159.57C217.243 160.963 217.702 162.577 217.702 164.41H211.377C211.083 163.053 210.497 162.082 209.617 161.495C208.737 160.872 207.38 160.56 205.547 160.56C203.75 160.56 202.393 160.835 201.477 161.385C200.56 161.935 200.102 162.687 200.102 163.64C200.102 164.41 200.377 165.015 200.927 165.455C201.513 165.858 202.357 166.188 203.457 166.445C204.593 166.702 206.005 166.977 207.692 167.27C209.122 167.563 210.478 167.893 211.762 168.26C213.082 168.627 214.255 169.103 215.282 169.69C216.308 170.24 217.115 170.992 217.702 171.945C218.325 172.862 218.637 174.035 218.637 175.465C218.637 177.225 218.123 178.71 217.097 179.92C216.107 181.13 214.677 182.065 212.807 182.725C210.937 183.348 208.7 183.66 206.097 183.66C203.787 183.66 201.788 183.422 200.102 182.945C198.452 182.432 197.077 181.79 195.977 181.02C194.877 180.213 194.015 179.37 193.392 178.49C192.805 177.573 192.402 176.712 192.182 175.905C191.962 175.098 191.888 174.438 191.962 173.925ZM223.007 173.925H229.607C230.01 175.172 230.835 176.198 232.082 177.005C233.365 177.775 235.033 178.16 237.087 178.16C238.48 178.16 239.562 178.032 240.332 177.775C241.102 177.518 241.633 177.152 241.927 176.675C242.22 176.162 242.367 175.593 242.367 174.97C242.367 174.2 242.128 173.613 241.652 173.21C241.175 172.77 240.442 172.422 239.452 172.165C238.462 171.908 237.197 171.67 235.657 171.45C234.117 171.193 232.632 170.882 231.202 170.515C229.772 170.148 228.507 169.672 227.407 169.085C226.307 168.462 225.427 167.692 224.767 166.775C224.143 165.822 223.832 164.667 223.832 163.31C223.832 161.99 224.143 160.817 224.767 159.79C225.427 158.763 226.325 157.902 227.462 157.205C228.635 156.508 229.992 155.977 231.532 155.61C233.108 155.243 234.795 155.06 236.592 155.06C239.305 155.06 241.56 155.463 243.357 156.27C245.153 157.04 246.492 158.14 247.372 159.57C248.288 160.963 248.747 162.577 248.747 164.41H242.422C242.128 163.053 241.542 162.082 240.662 161.495C239.782 160.872 238.425 160.56 236.592 160.56C234.795 160.56 233.438 160.835 232.522 161.385C231.605 161.935 231.147 162.687 231.147 163.64C231.147 164.41 231.422 165.015 231.972 165.455C232.558 165.858 233.402 166.188 234.502 166.445C235.638 166.702 237.05 166.977 238.737 167.27C240.167 167.563 241.523 167.893 242.807 168.26C244.127 168.627 245.3 169.103 246.327 169.69C247.353 170.24 248.16 170.992 248.747 171.945C249.37 172.862 249.682 174.035 249.682 175.465C249.682 177.225 249.168 178.71 248.142 179.92C247.152 181.13 245.722 182.065 243.852 182.725C241.982 183.348 239.745 183.66 237.142 183.66C234.832 183.66 232.833 183.422 231.147 182.945C229.497 182.432 228.122 181.79 227.022 181.02C225.922 180.213 225.06 179.37 224.437 178.49C223.85 177.573 223.447 176.712 223.227 175.905C223.007 175.098 222.933 174.438 223.007 173.925ZM263.347 143.675V149.945H255.042V143.675H263.347ZM255.592 155.665H262.742V183H255.592V155.665ZM290.933 183.605C288.513 183.605 286.442 183.183 284.718 182.34C282.995 181.46 281.602 180.323 280.538 178.93C279.475 177.5 278.687 175.96 278.173 174.31C277.66 172.623 277.403 170.973 277.403 169.36C277.403 167.343 277.642 165.473 278.118 163.75C278.632 162.027 279.42 160.523 280.483 159.24C281.547 157.92 282.94 156.893 284.663 156.16C286.387 155.427 288.477 155.06 290.933 155.06C293.757 155.06 296.25 155.665 298.413 156.875C300.613 158.048 302.337 159.698 303.583 161.825C304.867 163.952 305.508 166.463 305.508 169.36C305.508 172.183 304.867 174.677 303.583 176.84C302.3 178.967 300.558 180.635 298.358 181.845C296.158 183.018 293.683 183.605 290.933 183.605ZM288.623 178.105C290.567 178.105 292.253 177.738 293.683 177.005C295.113 176.272 296.213 175.263 296.983 173.98C297.79 172.66 298.193 171.12 298.193 169.36C298.193 166.72 297.35 164.593 295.663 162.98C294.013 161.367 291.667 160.56 288.623 160.56C286.497 160.56 284.645 160.908 283.068 161.605C281.492 162.302 280.263 163.31 279.383 164.63C278.54 165.913 278.118 167.49 278.118 169.36C278.118 171.083 278.54 172.605 279.383 173.925C280.227 175.245 281.437 176.272 283.013 177.005C284.59 177.738 286.46 178.105 288.623 178.105ZM278.118 144.665V175.96C278.118 177.133 278.063 178.398 277.953 179.755C277.843 181.075 277.733 182.157 277.623 183H270.968V144.665H278.118ZM311.346 144.665H318.496V183H311.346V144.665ZM350.643 173.925H357.573C357.279 175.795 356.491 177.463 355.208 178.93C353.961 180.397 352.256 181.552 350.093 182.395C347.929 183.238 345.289 183.66 342.173 183.66C338.689 183.66 335.609 183.11 332.933 182.01C330.256 180.873 328.166 179.242 326.663 177.115C325.159 174.988 324.408 172.422 324.408 169.415C324.408 166.408 325.141 163.842 326.608 161.715C328.074 159.552 330.109 157.902 332.713 156.765C335.353 155.628 338.433 155.06 341.953 155.06C345.546 155.06 348.534 155.628 350.918 156.765C353.301 157.902 355.061 159.625 356.198 161.935C357.371 164.208 357.866 167.123 357.683 170.68H331.613C331.796 172.073 332.309 173.338 333.153 174.475C334.033 175.612 335.206 176.51 336.673 177.17C338.176 177.83 339.954 178.16 342.008 178.16C344.281 178.16 346.169 177.775 347.673 177.005C349.213 176.198 350.203 175.172 350.643 173.925ZM341.623 160.505C338.983 160.505 336.838 161.092 335.188 162.265C333.538 163.402 332.474 164.813 331.998 166.5H350.588C350.404 164.667 349.524 163.218 347.948 162.155C346.408 161.055 344.299 160.505 341.623 160.505ZM408.72 172.22C408.536 174.603 407.766 176.657 406.41 178.38C405.09 180.103 403.256 181.423 400.91 182.34C398.563 183.22 395.776 183.66 392.55 183.66C389.176 183.66 386.151 183.128 383.475 182.065C380.835 180.965 378.745 179.37 377.205 177.28C375.701 175.153 374.95 172.532 374.95 169.415C374.95 166.298 375.701 163.677 377.205 161.55C378.745 159.423 380.835 157.81 383.475 156.71C386.151 155.61 389.176 155.06 392.55 155.06C395.776 155.06 398.545 155.518 400.855 156.435C403.165 157.315 404.98 158.598 406.3 160.285C407.656 161.972 408.445 164.007 408.665 166.39H402.12C401.496 164.557 400.341 163.127 398.655 162.1C396.968 161.073 394.933 160.56 392.55 160.56C390.643 160.56 388.901 160.89 387.325 161.55C385.785 162.21 384.538 163.2 383.585 164.52C382.668 165.803 382.21 167.435 382.21 169.415C382.21 171.358 382.668 172.99 383.585 174.31C384.501 175.593 385.748 176.565 387.325 177.225C388.901 177.848 390.643 178.16 392.55 178.16C395.116 178.16 397.206 177.647 398.82 176.62C400.47 175.593 401.588 174.127 402.175 172.22H408.72ZM413.975 155.665H421.125V183H413.975V155.665ZM431.63 161.55C429.576 161.55 427.798 161.953 426.295 162.76C424.791 163.53 423.581 164.483 422.665 165.62C421.748 166.757 421.106 167.857 420.74 168.92L420.685 165.895C420.721 165.455 420.868 164.813 421.125 163.97C421.381 163.09 421.766 162.155 422.28 161.165C422.793 160.138 423.471 159.167 424.315 158.25C425.158 157.297 426.185 156.527 427.395 155.94C428.605 155.353 430.016 155.06 431.63 155.06V161.55ZM460.965 173.925H467.895C467.602 175.795 466.813 177.463 465.53 178.93C464.283 180.397 462.578 181.552 460.415 182.395C458.252 183.238 455.612 183.66 452.495 183.66C449.012 183.66 445.932 183.11 443.255 182.01C440.578 180.873 438.488 179.242 436.985 177.115C435.482 174.988 434.73 172.422 434.73 169.415C434.73 166.408 435.463 163.842 436.93 161.715C438.397 159.552 440.432 157.902 443.035 156.765C445.675 155.628 448.755 155.06 452.275 155.06C455.868 155.06 458.857 155.628 461.24 156.765C463.623 157.902 465.383 159.625 466.52 161.935C467.693 164.208 468.188 167.123 468.005 170.68H441.935C442.118 172.073 442.632 173.338 443.475 174.475C444.355 175.612 445.528 176.51 446.995 177.17C448.498 177.83 450.277 178.16 452.33 178.16C454.603 178.16 456.492 177.775 457.995 177.005C459.535 176.198 460.525 175.172 460.965 173.925ZM451.945 160.505C449.305 160.505 447.16 161.092 445.51 162.265C443.86 163.402 442.797 164.813 442.32 166.5H460.91C460.727 164.667 459.847 163.218 458.27 162.155C456.73 161.055 454.622 160.505 451.945 160.505ZM486.635 183.605C483.885 183.605 481.392 183.018 479.155 181.845C476.955 180.635 475.214 178.967 473.93 176.84C472.647 174.677 472.005 172.183 472.005 169.36C472.005 166.463 472.629 163.952 473.875 161.825C475.159 159.698 476.9 158.048 479.1 156.875C481.3 155.665 483.812 155.06 486.635 155.06C489.092 155.06 491.182 155.427 492.905 156.16C494.629 156.893 496.022 157.92 497.085 159.24C498.149 160.523 498.919 162.027 499.395 163.75C499.909 165.473 500.165 167.343 500.165 169.36C500.165 170.973 499.909 172.623 499.395 174.31C498.882 175.96 498.094 177.5 497.03 178.93C495.967 180.323 494.574 181.46 492.85 182.34C491.127 183.183 489.055 183.605 486.635 183.605ZM488.945 178.105C491.109 178.105 492.979 177.738 494.555 177.005C496.132 176.272 497.342 175.245 498.185 173.925C499.029 172.605 499.45 171.083 499.45 169.36C499.45 167.49 499.01 165.913 498.13 164.63C497.287 163.31 496.077 162.302 494.5 161.605C492.96 160.908 491.109 160.56 488.945 160.56C485.902 160.56 483.537 161.367 481.85 162.98C480.164 164.593 479.32 166.72 479.32 169.36C479.32 171.12 479.724 172.66 480.53 173.98C481.337 175.263 482.455 176.272 483.885 177.005C485.352 177.738 487.039 178.105 488.945 178.105ZM499.45 144.665H506.6V183H499.945C499.835 182.157 499.725 181.075 499.615 179.755C499.505 178.398 499.45 177.133 499.45 175.96V144.665ZM522.502 143.675V149.945H514.197V143.675H522.502ZM514.747 155.665H521.897V183H514.747V155.665ZM527.099 155.665H548.329V161.22H527.099V155.665ZM534.139 148.185H541.289V183H534.139V148.185ZM559.296 176.73V183H550.991V176.73H559.296Z" fill="white"/>
</svg>
