<svg width="386" height="15" viewBox="0 0 386 15" fill="none" xmlns="http://www.w3.org/2000/svg">
<path d="M116.936 11.5V3.724H120.896C121.848 3.724 122.576 3.904 123.08 4.264C123.592 4.616 123.848 5.128 123.848 5.8C123.848 6.232 123.748 6.576 123.548 6.832C123.356 7.08 123.08 7.268 122.72 7.396C122.36 7.516 121.936 7.592 121.448 7.624L121.496 7.552C121.848 7.56 122.18 7.592 122.492 7.648C122.812 7.696 123.092 7.784 123.332 7.912C123.58 8.04 123.772 8.22 123.908 8.452C124.052 8.676 124.124 8.968 124.124 9.328C124.124 9.808 124.004 10.204 123.764 10.516C123.524 10.828 123.192 11.068 122.768 11.236C122.344 11.396 121.856 11.484 121.304 11.5H116.936ZM118.304 10.336H121.1C121.62 10.336 122.024 10.248 122.312 10.072C122.6 9.888 122.744 9.604 122.744 9.22C122.744 8.916 122.656 8.696 122.48 8.56C122.304 8.416 122.076 8.324 121.796 8.284C121.524 8.244 121.232 8.224 120.92 8.224H118.304V10.336ZM118.304 7.084H120.812C121.332 7.084 121.732 6.996 122.012 6.82C122.3 6.636 122.444 6.348 122.444 5.956C122.444 5.572 122.3 5.3 122.012 5.14C121.732 4.972 121.364 4.888 120.908 4.888H118.304V7.084ZM134.597 8.224V3.724H135.953V8.332C135.953 8.82 135.885 9.248 135.749 9.616C135.621 9.984 135.437 10.296 135.197 10.552C134.957 10.808 134.673 11.02 134.345 11.188C134.017 11.348 133.657 11.464 133.265 11.536C132.881 11.608 132.473 11.644 132.041 11.644C131.593 11.644 131.169 11.608 130.769 11.536C130.369 11.464 130.005 11.348 129.677 11.188C129.349 11.02 129.065 10.808 128.825 10.552C128.593 10.296 128.409 9.984 128.273 9.616C128.145 9.248 128.081 8.82 128.081 8.332V3.724H129.449V8.224C129.449 8.832 129.561 9.296 129.785 9.616C130.017 9.928 130.329 10.144 130.721 10.264C131.113 10.384 131.553 10.444 132.041 10.444C132.513 10.444 132.941 10.384 133.325 10.264C133.709 10.144 134.017 9.928 134.249 9.616C134.481 9.296 134.597 8.832 134.597 8.224ZM139.823 8.92H141.155C141.187 9.216 141.303 9.484 141.503 9.724C141.711 9.956 141.983 10.14 142.319 10.276C142.663 10.404 143.055 10.468 143.495 10.468C143.887 10.468 144.211 10.42 144.467 10.324C144.723 10.228 144.911 10.096 145.031 9.928C145.159 9.752 145.223 9.548 145.223 9.316C145.223 9.084 145.147 8.904 144.995 8.776C144.851 8.64 144.627 8.528 144.323 8.44C144.019 8.344 143.631 8.252 143.159 8.164C142.767 8.092 142.387 7.996 142.019 7.876C141.651 7.756 141.319 7.604 141.023 7.42C140.735 7.236 140.507 7.012 140.339 6.748C140.171 6.476 140.087 6.156 140.087 5.788C140.087 5.372 140.203 4.996 140.435 4.66C140.675 4.324 141.027 4.06 141.491 3.868C141.955 3.676 142.519 3.58 143.183 3.58C144.199 3.58 144.975 3.816 145.511 4.288C146.047 4.752 146.307 5.384 146.291 6.184H144.983C144.959 5.68 144.775 5.316 144.431 5.092C144.087 4.868 143.651 4.756 143.123 4.756C142.651 4.756 142.255 4.84 141.935 5.008C141.615 5.176 141.455 5.448 141.455 5.824C141.455 5.984 141.491 6.124 141.563 6.244C141.643 6.356 141.771 6.46 141.947 6.556C142.123 6.644 142.363 6.732 142.667 6.82C142.979 6.9 143.359 6.988 143.807 7.084C144.191 7.148 144.551 7.236 144.887 7.348C145.223 7.46 145.515 7.6 145.763 7.768C146.019 7.936 146.219 8.152 146.363 8.416C146.507 8.68 146.579 9.004 146.579 9.388C146.579 9.828 146.467 10.22 146.243 10.564C146.019 10.9 145.675 11.168 145.211 11.368C144.755 11.56 144.163 11.656 143.435 11.656C142.883 11.656 142.399 11.592 141.983 11.464C141.575 11.328 141.227 11.156 140.939 10.948C140.651 10.732 140.419 10.5 140.243 10.252C140.075 10.004 139.955 9.764 139.883 9.532C139.819 9.292 139.799 9.088 139.823 8.92ZM150.74 3.724H152.108V11.5H150.74V3.724ZM163.911 10.084L163.503 10.24V3.724H164.859V11.5H163.503L157.671 5.176L158.091 5.02V11.5H156.723V3.724H158.091L163.911 10.084ZM170.619 8.188V10.324H176.079V11.5H169.251V3.724H176.067V4.9H170.619V7.06H175.083V8.188H170.619ZM179.739 8.92H181.071C181.103 9.216 181.219 9.484 181.419 9.724C181.627 9.956 181.899 10.14 182.235 10.276C182.579 10.404 182.971 10.468 183.411 10.468C183.803 10.468 184.127 10.42 184.383 10.324C184.639 10.228 184.827 10.096 184.947 9.928C185.075 9.752 185.139 9.548 185.139 9.316C185.139 9.084 185.063 8.904 184.911 8.776C184.767 8.64 184.543 8.528 184.239 8.44C183.935 8.344 183.547 8.252 183.075 8.164C182.683 8.092 182.303 7.996 181.935 7.876C181.567 7.756 181.235 7.604 180.939 7.42C180.651 7.236 180.423 7.012 180.255 6.748C180.087 6.476 180.003 6.156 180.003 5.788C180.003 5.372 180.119 4.996 180.351 4.66C180.591 4.324 180.943 4.06 181.407 3.868C181.871 3.676 182.435 3.58 183.099 3.58C184.115 3.58 184.891 3.816 185.427 4.288C185.963 4.752 186.223 5.384 186.207 6.184H184.899C184.875 5.68 184.691 5.316 184.347 5.092C184.003 4.868 183.567 4.756 183.039 4.756C182.567 4.756 182.171 4.84 181.851 5.008C181.531 5.176 181.371 5.448 181.371 5.824C181.371 5.984 181.407 6.124 181.479 6.244C181.559 6.356 181.687 6.46 181.863 6.556C182.039 6.644 182.279 6.732 182.583 6.82C182.895 6.9 183.275 6.988 183.723 7.084C184.107 7.148 184.467 7.236 184.803 7.348C185.139 7.46 185.431 7.6 185.679 7.768C185.935 7.936 186.135 8.152 186.279 8.416C186.423 8.68 186.495 9.004 186.495 9.388C186.495 9.828 186.383 10.22 186.159 10.564C185.935 10.9 185.591 11.168 185.127 11.368C184.671 11.56 184.079 11.656 183.351 11.656C182.799 11.656 182.315 11.592 181.899 11.464C181.491 11.328 181.143 11.156 180.855 10.948C180.567 10.732 180.335 10.5 180.159 10.252C179.991 10.004 179.871 9.764 179.799 9.532C179.735 9.292 179.715 9.088 179.739 8.92ZM189.912 8.92H191.244C191.276 9.216 191.392 9.484 191.592 9.724C191.8 9.956 192.072 10.14 192.408 10.276C192.752 10.404 193.144 10.468 193.584 10.468C193.976 10.468 194.3 10.42 194.556 10.324C194.812 10.228 195 10.096 195.12 9.928C195.248 9.752 195.312 9.548 195.312 9.316C195.312 9.084 195.236 8.904 195.084 8.776C194.94 8.64 194.716 8.528 194.412 8.44C194.108 8.344 193.72 8.252 193.248 8.164C192.856 8.092 192.476 7.996 192.108 7.876C191.74 7.756 191.408 7.604 191.112 7.42C190.824 7.236 190.596 7.012 190.428 6.748C190.26 6.476 190.176 6.156 190.176 5.788C190.176 5.372 190.292 4.996 190.524 4.66C190.764 4.324 191.116 4.06 191.58 3.868C192.044 3.676 192.608 3.58 193.272 3.58C194.288 3.58 195.064 3.816 195.6 4.288C196.136 4.752 196.396 5.384 196.38 6.184H195.072C195.048 5.68 194.864 5.316 194.52 5.092C194.176 4.868 193.74 4.756 193.212 4.756C192.74 4.756 192.344 4.84 192.024 5.008C191.704 5.176 191.544 5.448 191.544 5.824C191.544 5.984 191.58 6.124 191.652 6.244C191.732 6.356 191.86 6.46 192.036 6.556C192.212 6.644 192.452 6.732 192.756 6.82C193.068 6.9 193.448 6.988 193.896 7.084C194.28 7.148 194.64 7.236 194.976 7.348C195.312 7.46 195.604 7.6 195.852 7.768C196.108 7.936 196.308 8.152 196.452 8.416C196.596 8.68 196.668 9.004 196.668 9.388C196.668 9.828 196.556 10.22 196.332 10.564C196.108 10.9 195.764 11.168 195.3 11.368C194.844 11.56 194.252 11.656 193.524 11.656C192.972 11.656 192.488 11.592 192.072 11.464C191.664 11.328 191.316 11.156 191.028 10.948C190.74 10.732 190.508 10.5 190.332 10.252C190.164 10.004 190.044 9.764 189.972 9.532C189.908 9.292 189.888 9.088 189.912 8.92ZM214.082 8.776C214.002 9.376 213.79 9.892 213.446 10.324C213.102 10.748 212.642 11.076 212.066 11.308C211.498 11.532 210.834 11.644 210.074 11.644C209.418 11.644 208.814 11.556 208.262 11.38C207.718 11.204 207.242 10.948 206.834 10.612C206.434 10.268 206.122 9.848 205.898 9.352C205.682 8.848 205.574 8.272 205.574 7.624C205.574 6.968 205.682 6.392 205.898 5.896C206.122 5.4 206.434 4.98 206.834 4.636C207.242 4.284 207.718 4.02 208.262 3.844C208.814 3.668 209.418 3.58 210.074 3.58C210.842 3.58 211.51 3.696 212.078 3.928C212.654 4.16 213.114 4.492 213.458 4.924C213.802 5.356 214.01 5.876 214.082 6.484H212.762C212.65 6.124 212.474 5.82 212.234 5.572C211.994 5.316 211.69 5.12 211.322 4.984C210.962 4.848 210.546 4.78 210.074 4.78C209.482 4.78 208.95 4.892 208.478 5.116C208.006 5.332 207.634 5.652 207.362 6.076C207.098 6.492 206.966 7.008 206.966 7.624C206.966 8.232 207.098 8.748 207.362 9.172C207.634 9.588 208.006 9.904 208.478 10.12C208.95 10.336 209.482 10.444 210.074 10.444C210.546 10.444 210.962 10.38 211.322 10.252C211.682 10.116 211.982 9.924 212.222 9.676C212.462 9.42 212.638 9.12 212.75 8.776H214.082ZM218.167 11.5V3.724H222.763C223.339 3.724 223.839 3.808 224.263 3.976C224.687 4.136 225.015 4.388 225.247 4.732C225.479 5.068 225.595 5.5 225.595 6.028C225.595 6.38 225.535 6.684 225.415 6.94C225.295 7.188 225.127 7.392 224.911 7.552C224.695 7.712 224.443 7.836 224.155 7.924C223.875 8.012 223.575 8.068 223.255 8.092L223.135 8.008C223.647 8.016 224.071 8.064 224.407 8.152C224.743 8.232 224.999 8.388 225.175 8.62C225.351 8.844 225.439 9.176 225.439 9.616V11.5H224.083V9.688C224.083 9.384 224.027 9.148 223.915 8.98C223.811 8.804 223.627 8.684 223.363 8.62C223.107 8.548 222.739 8.512 222.259 8.512H219.535V11.5H218.167ZM219.535 7.396H222.763C223.243 7.396 223.607 7.276 223.855 7.036C224.103 6.796 224.227 6.48 224.227 6.088C224.227 5.712 224.103 5.424 223.855 5.224C223.607 5.016 223.243 4.912 222.763 4.912H219.535V7.396ZM231.149 8.188V10.324H236.609V11.5H229.781V3.724H236.597V4.9H231.149V7.06H235.613V8.188H231.149ZM244.517 3.724C245.357 3.724 246.061 3.828 246.629 4.036C247.197 4.244 247.649 4.528 247.985 4.888C248.321 5.24 248.561 5.648 248.705 6.112C248.857 6.576 248.933 7.064 248.933 7.576C248.933 8.096 248.853 8.592 248.693 9.064C248.533 9.536 248.277 9.956 247.925 10.324C247.581 10.684 247.129 10.972 246.569 11.188C246.009 11.396 245.325 11.5 244.517 11.5H240.785V3.724H244.517ZM242.153 10.3H244.505C245.097 10.3 245.589 10.224 245.981 10.072C246.373 9.92 246.685 9.716 246.917 9.46C247.149 9.196 247.313 8.904 247.409 8.584C247.505 8.256 247.553 7.92 247.553 7.576C247.553 7.232 247.505 6.904 247.409 6.592C247.313 6.272 247.149 5.988 246.917 5.74C246.685 5.484 246.373 5.284 245.981 5.14C245.589 4.988 245.097 4.912 244.505 4.912H242.153V10.3ZM253.225 3.724H254.593V11.5H253.225V3.724ZM258.488 3.724H265.952V4.9H258.488V3.724ZM261.548 4.756H262.904V11.5H261.548V4.756Z" fill="white"/>
<path d="M101 8C101.276 8 101.5 7.77614 101.5 7.5C101.5 7.22386 101.276 7 101 7V8ZM0 8H101V7H0V8Z" fill="url(#paint0_linear_2133_19332)"/>
<path d="M385 8C385.276 8 385.5 7.77614 385.5 7.5C385.5 7.22386 385.276 7 385 7V8ZM282 8H385V7H282V8Z" fill="url(#paint1_linear_2133_19332)"/>
<defs>
<linearGradient id="paint0_linear_2133_19332" x1="101" y1="8.00022" x2="-6.37379" y2="8.00015" gradientUnits="userSpaceOnUse">
<stop stop-color="white"/>
<stop offset="1" stop-color="white" stop-opacity="0"/>
</linearGradient>
<linearGradient id="paint1_linear_2133_19332" x1="284.5" y1="8.00002" x2="390" y2="8.00006" gradientUnits="userSpaceOnUse">
<stop stop-color="white"/>
<stop offset="1" stop-color="white" stop-opacity="0"/>
</linearGradient>
</defs>
</svg>
