<svg width="456" height="172" viewBox="0 0 456 172" fill="none" xmlns="http://www.w3.org/2000/svg">
<path d="M5.46 66.8613V20.9831H31.9091C38.0545 20.9831 42.7109 22.0231 45.8782 24.1031C49.0927 26.1359 50.7 29.185 50.7 33.2504C50.7 35.8504 50.0618 37.9068 48.7855 39.4195C47.5091 40.885 45.6891 41.9722 43.3255 42.6813C41.0091 43.3904 38.2673 43.8395 35.1 44.0286L35.3836 43.5322C37.7 43.5795 39.8745 43.745 41.9073 44.0286C43.9873 44.3122 45.8073 44.8322 47.3673 45.5886C48.9273 46.345 50.1564 47.4086 51.0545 48.7795C51.9527 50.1031 52.4018 51.8522 52.4018 54.0268C52.4018 56.8631 51.6455 59.2268 50.1327 61.1177C48.62 62.9613 46.5164 64.3559 43.8218 65.3013C41.1273 66.2468 38.0073 66.7668 34.4618 66.8613H5.46ZM14.8909 59.0613H33.4691C36.4473 59.0613 38.74 58.5886 40.3473 57.6431C41.9545 56.6504 42.7582 55.0904 42.7582 52.9631C42.7582 51.4031 42.2855 50.2686 41.34 49.5595C40.3945 48.8504 39.1418 48.425 37.5818 48.2831C36.0218 48.0941 34.3436 47.9995 32.5473 47.9995H14.8909V59.0613ZM14.8909 40.4122H31.5545C34.5327 40.4122 36.8255 39.9868 38.4327 39.1359C40.04 38.2377 40.8436 36.725 40.8436 34.5977C40.8436 32.4704 40.04 30.9813 38.4327 30.1304C36.8255 29.2322 34.6982 28.7831 32.0509 28.7831H14.8909V40.4122ZM100.356 66.8613H91.1376V31.6195H100.356V66.8613ZM91.6339 49.9141L91.7048 52.325C91.6103 52.9868 91.3739 53.9559 90.9958 55.2322C90.6176 56.4613 90.0267 57.785 89.223 59.2031C88.4667 60.6213 87.4739 61.9922 86.2448 63.3159C85.0158 64.5922 83.503 65.6559 81.7067 66.5068C79.9103 67.3104 77.783 67.7122 75.3248 67.7122C73.3867 67.7122 71.4721 67.4759 69.5812 67.0031C67.7376 66.5304 66.0594 65.7504 64.5467 64.6631C63.0339 63.5286 61.8285 62.0159 60.9303 60.125C60.0321 58.2341 59.583 55.8468 59.583 52.9631V31.6195H68.8012V51.4031C68.8012 53.6722 69.1558 55.4686 69.8648 56.7922C70.6212 58.0686 71.7085 58.9668 73.1267 59.4868C74.5448 60.0068 76.223 60.2668 78.1612 60.2668C80.7139 60.2668 82.9121 59.7231 84.7558 58.6359C86.5994 57.5013 88.0885 56.1304 89.223 54.5231C90.4048 52.9159 91.2085 51.3795 91.6339 49.9141ZM107.33 55.1613H115.839C116.359 56.7686 117.423 58.0922 119.03 59.1322C120.685 60.125 122.836 60.6213 125.483 60.6213C127.279 60.6213 128.674 60.4559 129.667 60.125C130.659 59.7941 131.345 59.3213 131.723 58.7068C132.101 58.045 132.29 57.3122 132.29 56.5086C132.29 55.5159 131.983 54.7595 131.369 54.2395C130.754 53.6722 129.809 53.2231 128.532 52.8922C127.256 52.5613 125.625 52.2541 123.639 51.9704C121.654 51.6395 119.739 51.2377 117.896 50.765C116.052 50.2922 114.421 49.6777 113.003 48.9213C111.585 48.1177 110.45 47.125 109.599 45.9431C108.796 44.7141 108.394 43.225 108.394 41.4759C108.394 39.7741 108.796 38.2613 109.599 36.9377C110.45 35.6141 111.609 34.5031 113.074 33.605C114.587 32.7068 116.336 32.0213 118.321 31.5486C120.354 31.0759 122.529 30.8395 124.845 30.8395C128.343 30.8395 131.25 31.3595 133.567 32.3995C135.883 33.3922 137.609 34.8104 138.743 36.6541C139.925 38.4504 140.516 40.5304 140.516 42.8941H132.361C131.983 41.145 131.227 39.8922 130.092 39.1359C128.958 38.3322 127.209 37.9304 124.845 37.9304C122.529 37.9304 120.779 38.285 119.598 38.9941C118.416 39.7031 117.825 40.6722 117.825 41.9013C117.825 42.8941 118.179 43.6741 118.889 44.2413C119.645 44.7613 120.732 45.1868 122.15 45.5177C123.616 45.8486 125.436 46.2031 127.61 46.5813C129.454 46.9595 131.203 47.385 132.858 47.8577C134.559 48.3304 136.072 48.945 137.396 49.7013C138.719 50.4104 139.759 51.3795 140.516 52.6086C141.319 53.7904 141.721 55.3031 141.721 57.1468C141.721 59.4159 141.059 61.3304 139.736 62.8904C138.459 64.4504 136.616 65.6559 134.205 66.5068C131.794 67.3104 128.91 67.7122 125.554 67.7122C122.576 67.7122 119.999 67.405 117.825 66.7904C115.698 66.1286 113.925 65.3013 112.507 64.3086C111.089 63.2686 109.978 62.1813 109.174 61.0468C108.418 59.865 107.898 58.7541 107.614 57.7141C107.33 56.6741 107.236 55.8231 107.33 55.1613ZM159.339 16.1613V24.245H148.632V16.1613H159.339ZM149.341 31.6195H158.559V66.8613H149.341V31.6195ZM167.747 31.6195H176.965V66.8613H167.747V31.6195ZM193.345 30.8395C195.52 30.8395 197.529 31.1231 199.373 31.6904C201.216 32.2577 202.823 33.1322 204.194 34.3141C205.565 35.4959 206.629 37.0086 207.385 38.8522C208.142 40.6486 208.52 42.7995 208.52 45.305V66.8613H199.302V46.9359C199.302 43.9577 198.569 41.7831 197.103 40.4122C195.685 38.9941 193.345 38.285 190.083 38.285C187.625 38.285 185.403 38.7577 183.418 39.7031C181.433 40.6486 179.825 41.8541 178.596 43.3195C177.367 44.7377 176.658 46.2268 176.469 47.7868L176.398 44.1704C176.634 42.5159 177.178 40.9086 178.029 39.3486C178.88 37.7886 180.014 36.3704 181.433 35.0941C182.898 33.7704 184.623 32.7304 186.609 31.9741C188.594 31.2177 190.84 30.8395 193.345 30.8395ZM249.034 55.1613H257.969C257.591 57.5722 256.574 59.7231 254.92 61.6141C253.313 63.505 251.114 64.9941 248.325 66.0813C245.536 67.1686 242.133 67.7122 238.114 67.7122C233.623 67.7122 229.653 67.0031 226.202 65.585C222.751 64.1195 220.056 62.0159 218.118 59.2741C216.18 56.5322 215.211 53.2231 215.211 49.3468C215.211 45.4704 216.156 42.1613 218.047 39.4195C219.938 36.6304 222.562 34.5031 225.918 33.0377C229.322 31.5722 233.293 30.8395 237.831 30.8395C242.463 30.8395 246.316 31.5722 249.389 33.0377C252.462 34.5031 254.731 36.725 256.196 39.7031C257.709 42.6341 258.347 46.3922 258.111 50.9777H224.5C224.736 52.7741 225.398 54.405 226.485 55.8704C227.62 57.3359 229.133 58.4941 231.023 59.345C232.962 60.1959 235.254 60.6213 237.902 60.6213C240.833 60.6213 243.267 60.125 245.205 59.1322C247.191 58.0922 248.467 56.7686 249.034 55.1613ZM237.405 37.8595C234.002 37.8595 231.236 38.6159 229.109 40.1286C226.982 41.5941 225.611 43.4141 224.996 45.5886H248.963C248.727 43.225 247.593 41.3577 245.56 39.9868C243.574 38.5686 240.856 37.8595 237.405 37.8595ZM263.552 55.1613H272.061C272.581 56.7686 273.645 58.0922 275.252 59.1322C276.906 60.125 279.057 60.6213 281.705 60.6213C283.501 60.6213 284.896 60.4559 285.888 60.125C286.881 59.7941 287.566 59.3213 287.945 58.7068C288.323 58.045 288.512 57.3122 288.512 56.5086C288.512 55.5159 288.205 54.7595 287.59 54.2395C286.976 53.6722 286.03 53.2231 284.754 52.8922C283.477 52.5613 281.846 52.2541 279.861 51.9704C277.876 51.6395 275.961 51.2377 274.117 50.765C272.274 50.2922 270.643 49.6777 269.225 48.9213C267.806 48.1177 266.672 47.125 265.821 45.9431C265.017 44.7141 264.616 43.225 264.616 41.4759C264.616 39.7741 265.017 38.2613 265.821 36.9377C266.672 35.6141 267.83 34.5031 269.296 33.605C270.808 32.7068 272.557 32.0213 274.543 31.5486C276.576 31.0759 278.75 30.8395 281.066 30.8395C284.565 30.8395 287.472 31.3595 289.788 32.3995C292.105 33.3922 293.83 34.8104 294.965 36.6541C296.146 38.4504 296.737 40.5304 296.737 42.8941H288.583C288.205 41.145 287.448 39.8922 286.314 39.1359C285.179 38.3322 283.43 37.9304 281.066 37.9304C278.75 37.9304 277.001 38.285 275.819 38.9941C274.637 39.7031 274.046 40.6722 274.046 41.9013C274.046 42.8941 274.401 43.6741 275.11 44.2413C275.866 44.7613 276.954 45.1868 278.372 45.5177C279.837 45.8486 281.657 46.2031 283.832 46.5813C285.676 46.9595 287.425 47.385 289.079 47.8577C290.781 48.3304 292.294 48.945 293.617 49.7013C294.941 50.4104 295.981 51.3795 296.737 52.6086C297.541 53.7904 297.943 55.3031 297.943 57.1468C297.943 59.4159 297.281 61.3304 295.957 62.8904C294.681 64.4504 292.837 65.6559 290.426 66.5068C288.016 67.3104 285.132 67.7122 281.776 67.7122C278.797 67.7122 276.221 67.405 274.046 66.7904C271.919 66.1286 270.146 65.3013 268.728 64.3086C267.31 63.2686 266.199 62.1813 265.396 61.0468C264.639 59.865 264.119 58.7541 263.836 57.7141C263.552 56.6741 263.457 55.8231 263.552 55.1613ZM303.577 55.1613H312.086C312.606 56.7686 313.67 58.0922 315.277 59.1322C316.931 60.125 319.082 60.6213 321.73 60.6213C323.526 60.6213 324.92 60.4559 325.913 60.125C326.906 59.7941 327.591 59.3213 327.97 58.7068C328.348 58.045 328.537 57.3122 328.537 56.5086C328.537 55.5159 328.23 54.7595 327.615 54.2395C327 53.6722 326.055 53.2231 324.779 52.8922C323.502 52.5613 321.871 52.2541 319.886 51.9704C317.9 51.6395 315.986 51.2377 314.142 50.765C312.299 50.2922 310.668 49.6777 309.25 48.9213C307.831 48.1177 306.697 47.125 305.846 45.9431C305.042 44.7141 304.64 43.225 304.64 41.4759C304.64 39.7741 305.042 38.2613 305.846 36.9377C306.697 35.6141 307.855 34.5031 309.32 33.605C310.833 32.7068 312.582 32.0213 314.568 31.5486C316.6 31.0759 318.775 30.8395 321.091 30.8395C324.59 30.8395 327.497 31.3595 329.813 32.3995C332.13 33.3922 333.855 34.8104 334.99 36.6541C336.171 38.4504 336.762 40.5304 336.762 42.8941H328.608C328.23 41.145 327.473 39.8922 326.339 39.1359C325.204 38.3322 323.455 37.9304 321.091 37.9304C318.775 37.9304 317.026 38.285 315.844 38.9941C314.662 39.7031 314.071 40.6722 314.071 41.9013C314.071 42.8941 314.426 43.6741 315.135 44.2413C315.891 44.7613 316.979 45.1868 318.397 45.5177C319.862 45.8486 321.682 46.2031 323.857 46.5813C325.7 46.9595 327.45 47.385 329.104 47.8577C330.806 48.3304 332.319 48.945 333.642 49.7013C334.966 50.4104 336.006 51.3795 336.762 52.6086C337.566 53.7904 337.968 55.3031 337.968 57.1468C337.968 59.4159 337.306 61.3304 335.982 62.8904C334.706 64.4504 332.862 65.6559 330.451 66.5068C328.04 67.3104 325.157 67.7122 321.8 67.7122C318.822 67.7122 316.246 67.405 314.071 66.7904C311.944 66.1286 310.171 65.3013 308.753 64.3086C307.335 63.2686 306.224 62.1813 305.42 61.0468C304.664 59.865 304.144 58.7541 303.86 57.7141C303.577 56.6741 303.482 55.8231 303.577 55.1613ZM14.82 101.161V109.245H4.11273V101.161H14.82ZM4.82182 116.62H14.04V151.861H4.82182V116.62ZM23.2283 116.62H32.4464V151.861H23.2283V116.62ZM48.8264 115.84C51.001 115.84 53.0101 116.123 54.8537 116.69C56.6974 117.258 58.3046 118.132 59.6755 119.314C61.0464 120.496 62.1101 122.009 62.8664 123.852C63.6228 125.649 64.001 127.8 64.001 130.305V151.861H54.7828V131.936C54.7828 128.958 54.0501 126.783 52.5846 125.412C51.1664 123.994 48.8264 123.285 45.5646 123.285C43.1064 123.285 40.8846 123.758 38.8992 124.703C36.9137 125.649 35.3064 126.854 34.0774 128.32C32.8483 129.738 32.1392 131.227 31.9501 132.787L31.8792 129.17C32.1155 127.516 32.6592 125.909 33.5101 124.349C34.361 122.789 35.4955 121.37 36.9137 120.094C38.3792 118.77 40.1046 117.73 42.0901 116.974C44.0755 116.218 46.321 115.84 48.8264 115.84ZM72.3938 116.62H81.6119V151.861H72.3938V116.62ZM97.9919 115.84C100.166 115.84 102.176 116.123 104.019 116.69C105.863 117.258 107.47 118.132 108.841 119.314C110.212 120.496 111.276 122.009 112.032 123.852C112.788 125.649 113.166 127.8 113.166 130.305V151.861H103.948V131.936C103.948 128.958 103.216 126.783 101.75 125.412C100.332 123.994 97.9919 123.285 94.7301 123.285C92.2719 123.285 90.0501 123.758 88.0647 124.703C86.0792 125.649 84.4719 126.854 83.2428 128.32C82.0138 129.738 81.3047 131.227 81.1156 132.787L81.0447 129.17C81.281 127.516 81.8247 125.909 82.6756 124.349C83.5265 122.789 84.661 121.37 86.0792 120.094C87.5447 118.77 89.2701 117.73 91.2556 116.974C93.241 116.218 95.4865 115.84 97.9919 115.84ZM192.3 145.834H188.968L201.873 116.62H211.942L194.995 151.861H186.273L169.68 116.62H179.82L192.3 145.834ZM232.895 152.641C229.397 152.641 226.206 151.885 223.323 150.372C220.486 148.812 218.217 146.661 216.515 143.92C214.861 141.13 214.034 137.916 214.034 134.276C214.034 130.541 214.884 127.303 216.586 124.561C218.288 121.82 220.581 119.692 223.464 118.18C226.395 116.62 229.704 115.84 233.392 115.84C237.457 115.84 240.719 116.667 243.177 118.321C245.683 119.929 247.503 122.127 248.637 124.916C249.772 127.705 250.339 130.825 250.339 134.276C250.339 136.356 250.008 138.483 249.346 140.658C248.684 142.785 247.668 144.77 246.297 146.614C244.926 148.41 243.13 149.876 240.908 151.01C238.686 152.098 236.015 152.641 232.895 152.641ZM235.874 145.55C238.663 145.55 241.074 145.078 243.106 144.132C245.139 143.187 246.699 141.863 247.786 140.161C248.874 138.46 249.417 136.498 249.417 134.276C249.417 131.865 248.85 129.832 247.715 128.178C246.628 126.476 245.068 125.2 243.035 124.349C241.05 123.45 238.663 123.001 235.874 123.001C231.95 123.001 228.901 124.041 226.726 126.121C224.552 128.154 223.464 130.872 223.464 134.276C223.464 136.545 223.984 138.53 225.024 140.232C226.064 141.887 227.506 143.187 229.35 144.132C231.241 145.078 233.415 145.55 235.874 145.55ZM249.417 116.62H258.635V151.861H250.055C250.055 151.861 249.984 151.412 249.843 150.514C249.748 149.569 249.654 148.387 249.559 146.969C249.464 145.55 249.417 144.156 249.417 142.785V116.62ZM264.496 116.62H291.867V123.781H264.496V116.62ZM273.573 106.976H282.791V151.861H273.573V106.976ZM308.289 101.161V109.245H297.582V101.161H308.289ZM298.291 116.62H307.509V151.861H298.291V116.62ZM368.01 116.62H377.228V151.861H368.01V116.62ZM393.608 115.84C395.783 115.84 397.792 116.123 399.635 116.69C401.479 117.258 403.086 118.132 404.457 119.314C405.828 120.496 406.892 122.009 407.648 123.852C408.404 125.649 408.783 127.8 408.783 130.305V151.861H399.564V131.936C399.564 128.958 398.832 126.783 397.366 125.412C395.948 123.994 393.608 123.285 390.346 123.285C387.888 123.285 385.666 123.758 383.681 124.703C381.695 125.649 380.088 126.854 378.859 128.32C377.63 129.738 376.921 131.227 376.732 132.787L376.661 129.17C376.897 127.516 377.441 125.909 378.292 124.349C379.143 122.789 380.277 121.37 381.695 120.094C383.161 118.77 384.886 117.73 386.872 116.974C388.857 116.218 391.103 115.84 393.608 115.84ZM415.757 140.161H424.266C424.786 141.769 425.85 143.092 427.457 144.132C429.112 145.125 431.263 145.621 433.91 145.621C435.706 145.621 437.101 145.456 438.094 145.125C439.086 144.794 439.772 144.321 440.15 143.707C440.528 143.045 440.717 142.312 440.717 141.509C440.717 140.516 440.41 139.76 439.795 139.24C439.181 138.672 438.235 138.223 436.959 137.892C435.683 137.561 434.052 137.254 432.066 136.97C430.081 136.64 428.166 136.238 426.323 135.765C424.479 135.292 422.848 134.678 421.43 133.921C420.012 133.118 418.877 132.125 418.026 130.943C417.223 129.714 416.821 128.225 416.821 126.476C416.821 124.774 417.223 123.261 418.026 121.938C418.877 120.614 420.035 119.503 421.501 118.605C423.014 117.707 424.763 117.021 426.748 116.549C428.781 116.076 430.955 115.84 433.272 115.84C436.77 115.84 439.677 116.36 441.994 117.4C444.31 118.392 446.035 119.81 447.17 121.654C448.352 123.45 448.943 125.53 448.943 127.894H440.788C440.41 126.145 439.654 124.892 438.519 124.136C437.384 123.332 435.635 122.93 433.272 122.93C430.955 122.93 429.206 123.285 428.024 123.994C426.843 124.703 426.252 125.672 426.252 126.901C426.252 127.894 426.606 128.674 427.315 129.241C428.072 129.761 429.159 130.187 430.577 130.518C432.043 130.849 433.863 131.203 436.037 131.581C437.881 131.96 439.63 132.385 441.284 132.858C442.986 133.33 444.499 133.945 445.823 134.701C447.146 135.41 448.186 136.38 448.943 137.609C449.746 138.79 450.148 140.303 450.148 142.147C450.148 144.416 449.486 146.33 448.163 147.89C446.886 149.45 445.043 150.656 442.632 151.507C440.221 152.31 437.337 152.712 433.981 152.712C431.003 152.712 428.426 152.405 426.252 151.79C424.124 151.129 422.352 150.301 420.934 149.309C419.515 148.269 418.404 147.181 417.601 146.047C416.844 144.865 416.324 143.754 416.041 142.714C415.757 141.674 415.663 140.823 415.757 140.161Z" fill="white"/>
<path d="M151.983 153.672L150.484 151.472C150.198 151.052 149.67 150.869 149.187 151.026C148.425 151.273 147.654 151.469 146.879 151.614C146.376 151.709 145.993 152.119 145.942 152.628L145.678 155.276C145.619 155.867 145.117 156.316 144.523 156.308L141.721 156.272C141.127 156.265 140.637 155.804 140.593 155.211L140.395 152.552C140.358 152.042 139.986 151.623 139.486 151.515C138.713 151.349 137.951 151.135 137.204 150.873C136.722 150.704 136.186 150.867 135.887 151.283L134.331 153.448C133.984 153.931 133.326 154.068 132.815 153.764L130.406 152.333C129.895 152.029 129.702 151.385 129.96 150.85L131.116 148.453C131.338 147.992 131.225 147.442 130.845 147.099C130.261 146.571 129.705 146.002 129.184 145.393C128.854 145.007 128.308 144.887 127.845 145.096L125.418 146.191C124.876 146.436 124.238 146.226 123.947 145.707L122.577 143.263C122.287 142.745 122.441 142.09 122.932 141.756L125.132 140.257C125.552 139.972 125.735 139.443 125.578 138.96C125.331 138.198 125.135 137.427 124.989 136.652C124.895 136.149 124.485 135.766 123.976 135.715L121.328 135.451C120.736 135.392 120.288 134.89 120.296 134.296L120.332 131.494C120.339 130.9 120.8 130.41 121.392 130.366L124.052 130.169C124.562 130.131 124.981 129.759 125.089 129.259C125.255 128.486 125.469 127.724 125.731 126.978C125.9 126.495 125.737 125.959 125.321 125.66L123.156 124.104C122.673 123.757 122.536 123.099 122.84 122.588L124.271 120.18C124.575 119.669 125.219 119.475 125.754 119.733L128.151 120.889C128.612 121.111 129.162 120.998 129.505 120.619C130.033 120.034 130.602 119.478 131.211 118.957C131.597 118.627 131.717 118.081 131.508 117.618L130.413 115.191C130.168 114.65 130.378 114.011 130.897 113.72L133.341 112.35C133.859 112.06 134.514 112.214 134.848 112.705L136.346 114.905C136.632 115.325 137.161 115.508 137.644 115.351C138.406 115.104 139.177 114.908 139.952 114.763C140.455 114.668 140.838 114.258 140.889 113.749L141.153 111.101C141.212 110.51 141.714 110.062 142.308 110.069L145.109 110.105C145.704 110.112 146.194 110.573 146.238 111.166L146.435 113.825C146.473 114.335 146.845 114.754 147.345 114.862C148.118 115.028 148.88 115.242 149.626 115.504C150.109 115.673 150.645 115.51 150.944 115.094L152.5 112.929C152.847 112.446 153.505 112.309 154.016 112.613L156.424 114.044C156.935 114.348 157.129 114.992 156.871 115.527L155.715 117.924C155.493 118.385 155.606 118.935 155.985 119.278C156.57 119.806 157.126 120.375 157.647 120.984C157.977 121.37 158.523 121.49 158.986 121.281L161.413 120.186C161.954 119.941 162.593 120.151 162.884 120.67L164.254 123.114C164.544 123.632 164.39 124.287 163.899 124.621L161.699 126.12C161.279 126.405 161.096 126.934 161.253 127.417C161.5 128.179 161.696 128.95 161.841 129.725C161.936 130.228 162.346 130.611 162.855 130.662L165.503 130.926C166.094 130.985 166.542 131.487 166.535 132.081L166.499 134.883C166.492 135.477 166.031 135.967 165.438 136.011L162.779 136.208C162.269 136.246 161.85 136.618 161.742 137.118C161.576 137.891 161.361 138.653 161.1 139.399C160.93 139.882 161.094 140.418 161.51 140.717L163.675 142.273C164.158 142.62 164.295 143.278 163.991 143.789L162.56 146.198C162.256 146.708 161.612 146.902 161.077 146.644L158.68 145.488C158.219 145.266 157.669 145.379 157.326 145.758C156.798 146.343 156.229 146.899 155.62 147.42C155.234 147.75 155.114 148.296 155.323 148.759L156.418 151.186C156.663 151.727 156.453 152.366 155.934 152.657L153.49 154.027C152.972 154.317 152.317 154.163 151.983 153.672ZM156.369 125.928C152.359 118.774 143.308 116.225 136.154 120.235C129 124.245 126.452 133.296 130.462 140.45C134.472 147.604 143.522 150.152 150.676 146.142C157.83 142.132 160.379 133.082 156.369 125.928Z" fill="#FFFEFF"/>
<path d="M348.745 153.672L347.247 151.472C346.961 151.052 346.432 150.869 345.949 151.026C345.187 151.273 344.416 151.469 343.641 151.614C343.138 151.709 342.755 152.119 342.704 152.628L342.44 155.276C342.381 155.867 341.879 156.316 341.285 156.308L338.484 156.272C337.889 156.265 337.399 155.804 337.355 155.211L337.158 152.552C337.12 152.042 336.748 151.623 336.248 151.515C335.475 151.349 334.713 151.135 333.967 150.873C333.484 150.704 332.948 150.867 332.649 151.283L331.093 153.448C330.746 153.931 330.088 154.068 329.577 153.764L327.169 152.333C326.658 152.029 326.464 151.385 326.722 150.85L327.878 148.453C328.1 147.992 327.987 147.442 327.608 147.099C327.023 146.571 326.467 146.002 325.946 145.393C325.616 145.007 325.07 144.887 324.607 145.096L322.18 146.191C321.639 146.436 321 146.226 320.709 145.707L319.339 143.263C319.049 142.745 319.203 142.09 319.694 141.756L321.894 140.257C322.314 139.972 322.497 139.443 322.34 138.96C322.093 138.198 321.897 137.427 321.752 136.652C321.657 136.149 321.247 135.766 320.738 135.715L318.09 135.451C317.499 135.392 317.051 134.89 317.058 134.296L317.094 131.494C317.101 130.9 317.562 130.41 318.155 130.366L320.814 130.169C321.324 130.131 321.744 129.759 321.851 129.259C322.017 128.486 322.232 127.724 322.493 126.978C322.663 126.495 322.499 125.959 322.084 125.66L319.918 124.104C319.436 123.757 319.298 123.099 319.602 122.588L321.033 120.18C321.337 119.669 321.981 119.475 322.516 119.733L324.913 120.889C325.374 121.111 325.924 120.998 326.267 120.619C326.795 120.034 327.364 119.478 327.973 118.957C328.359 118.627 328.479 118.081 328.27 117.618L327.175 115.191C326.93 114.65 327.14 114.011 327.659 113.72L330.103 112.35C330.621 112.06 331.276 112.214 331.61 112.705L333.109 114.905C333.395 115.325 333.923 115.508 334.406 115.351C335.168 115.104 335.939 114.908 336.714 114.763C337.217 114.668 337.6 114.258 337.651 113.749L337.915 111.101C337.974 110.51 338.476 110.062 339.07 110.069L341.872 110.105C342.466 110.112 342.956 110.573 343 111.166L343.198 113.825C343.236 114.335 343.608 114.754 344.108 114.862C344.881 115.028 345.643 115.242 346.389 115.504C346.871 115.673 347.407 115.51 347.706 115.094L349.262 112.929C349.609 112.446 350.267 112.309 350.778 112.613L353.187 114.044C353.698 114.348 353.892 114.992 353.633 115.527L352.477 117.924C352.255 118.385 352.368 118.935 352.748 119.278C353.333 119.806 353.888 120.375 354.409 120.984C354.739 121.37 355.285 121.49 355.748 121.281L358.175 120.186C358.717 119.941 359.355 120.151 359.646 120.67L361.016 123.114C361.306 123.632 361.153 124.287 360.661 124.621L358.461 126.12C358.041 126.405 357.858 126.934 358.015 127.417C358.262 128.179 358.458 128.95 358.604 129.725C358.698 130.228 359.108 130.611 359.617 130.662L362.265 130.926C362.857 130.985 363.305 131.487 363.297 132.081L363.262 134.883C363.254 135.477 362.793 135.967 362.201 136.011L359.541 136.208C359.031 136.246 358.612 136.618 358.504 137.118C358.338 137.891 358.124 138.653 357.862 139.399C357.693 139.882 357.857 140.418 358.272 140.717L360.437 142.273C360.92 142.62 361.057 143.278 360.753 143.789L359.322 146.198C359.018 146.708 358.374 146.902 357.839 146.644L355.442 145.488C354.981 145.266 354.432 145.379 354.088 145.758C353.56 146.343 352.991 146.899 352.382 147.42C351.996 147.75 351.876 148.296 352.085 148.759L353.181 151.186C353.425 151.727 353.215 152.366 352.696 152.657L350.253 154.027C349.734 154.317 349.079 154.163 348.745 153.672ZM353.131 125.928C349.121 118.774 340.071 116.225 332.917 120.235C325.763 124.245 323.214 133.296 327.224 140.45C331.234 147.604 340.285 150.152 347.439 146.142C354.593 142.132 357.141 133.082 353.131 125.928Z" fill="#FFFEFF"/>
</svg>
