<svg width="227" height="39" viewBox="0 0 227 39" fill="none" xmlns="http://www.w3.org/2000/svg">
<rect width="187" height="39" rx="19.5" fill="#F3FCF3"/>
<path d="M26.948 23.5V15.712H30.452C31.332 15.712 32.012 15.892 32.492 16.252C32.972 16.612 33.212 17.128 33.212 17.8C33.212 18.216 33.12 18.552 32.936 18.808C32.76 19.064 32.508 19.256 32.18 19.384C31.852 19.504 31.468 19.584 31.028 19.624L31.052 19.54C31.38 19.556 31.688 19.592 31.976 19.648C32.272 19.704 32.528 19.796 32.744 19.924C32.968 20.052 33.144 20.228 33.272 20.452C33.408 20.676 33.476 20.968 33.476 21.328C33.476 21.8 33.364 22.196 33.14 22.516C32.916 22.828 32.604 23.064 32.204 23.224C31.812 23.384 31.356 23.476 30.836 23.5H26.948ZM28.1 22.468H30.62C31.148 22.468 31.56 22.372 31.856 22.18C32.152 21.988 32.3 21.684 32.3 21.268C32.3 20.948 32.208 20.708 32.024 20.548C31.84 20.388 31.6 20.284 31.304 20.236C31.016 20.188 30.716 20.164 30.404 20.164H28.1V22.468ZM28.1 19.144H30.356C30.884 19.144 31.296 19.04 31.592 18.832C31.888 18.616 32.036 18.304 32.036 17.896C32.036 17.48 31.888 17.184 31.592 17.008C31.296 16.832 30.92 16.744 30.464 16.744H28.1V19.144ZM43.4362 20.368V15.712H44.5882V20.416C44.5882 20.88 44.5282 21.288 44.4082 21.64C44.2962 21.992 44.1322 22.296 43.9162 22.552C43.7002 22.808 43.4442 23.016 43.1482 23.176C42.8602 23.328 42.5362 23.44 42.1762 23.512C41.8242 23.592 41.4482 23.632 41.0482 23.632C40.6322 23.632 40.2442 23.592 39.8842 23.512C39.5242 23.44 39.1922 23.328 38.8882 23.176C38.5922 23.016 38.3362 22.808 38.1202 22.552C37.9122 22.296 37.7482 21.992 37.6282 21.64C37.5162 21.288 37.4602 20.88 37.4602 20.416V15.712H38.6122V20.368C38.6122 20.968 38.7202 21.428 38.9362 21.748C39.1602 22.068 39.4562 22.288 39.8242 22.408C40.1922 22.528 40.6002 22.588 41.0482 22.588C41.4802 22.588 41.8762 22.528 42.2362 22.408C42.5962 22.288 42.8842 22.068 43.1002 21.748C43.3242 21.428 43.4362 20.968 43.4362 20.368ZM48.4756 20.944H49.5796C49.6036 21.256 49.7076 21.54 49.8916 21.796C50.0836 22.044 50.3396 22.24 50.6596 22.384C50.9876 22.528 51.3676 22.6 51.7996 22.6C52.1756 22.6 52.4876 22.548 52.7356 22.444C52.9836 22.34 53.1676 22.2 53.2876 22.024C53.4156 21.84 53.4796 21.624 53.4796 21.376C53.4796 21.128 53.4116 20.932 53.2756 20.788C53.1396 20.636 52.9356 20.512 52.6636 20.416C52.3916 20.312 52.0556 20.212 51.6556 20.116C51.3036 20.028 50.9556 19.924 50.6116 19.804C50.2756 19.676 49.9636 19.52 49.6756 19.336C49.3956 19.152 49.1676 18.932 48.9916 18.676C48.8236 18.412 48.7396 18.096 48.7396 17.728C48.7396 17.336 48.8476 16.98 49.0636 16.66C49.2796 16.332 49.5956 16.072 50.0116 15.88C50.4356 15.68 50.9476 15.58 51.5476 15.58C52.4756 15.58 53.1756 15.812 53.6476 16.276C54.1276 16.74 54.3596 17.36 54.3436 18.136H53.2636C53.2396 17.592 53.0676 17.204 52.7476 16.972C52.4276 16.732 52.0116 16.612 51.4996 16.612C51.0596 16.612 50.6836 16.704 50.3716 16.888C50.0596 17.064 49.9036 17.344 49.9036 17.728C49.9036 17.896 49.9396 18.044 50.0116 18.172C50.0836 18.292 50.2036 18.404 50.3716 18.508C50.5396 18.612 50.7636 18.712 51.0436 18.808C51.3316 18.904 51.6876 19.008 52.1116 19.12C52.4316 19.192 52.7396 19.284 53.0356 19.396C53.3396 19.508 53.6116 19.648 53.8516 19.816C54.0916 19.984 54.2796 20.2 54.4156 20.464C54.5596 20.728 54.6316 21.052 54.6316 21.436C54.6316 21.844 54.5316 22.216 54.3316 22.552C54.1316 22.88 53.8196 23.144 53.3956 23.344C52.9796 23.536 52.4396 23.632 51.7756 23.632C51.2476 23.632 50.7876 23.564 50.3956 23.428C50.0116 23.292 49.6876 23.116 49.4236 22.9C49.1676 22.684 48.9636 22.452 48.8116 22.204C48.6676 21.956 48.5676 21.72 48.5116 21.496C48.4636 21.272 48.4516 21.088 48.4756 20.944ZM58.8183 15.712H59.9703V23.5H58.8183V15.712ZM71.2137 22.228L70.8777 22.348V15.712H72.0417V23.5H70.8777L65.4417 17.008L65.7777 16.888V23.5H64.6257V15.712H65.7777L71.2137 22.228ZM77.6141 20.128V22.468H82.6301V23.5H76.4621V15.712H82.6181V16.744H77.6141V19.12H81.7061V20.128H77.6141ZM86.2939 20.944H87.3979C87.4219 21.256 87.5259 21.54 87.7099 21.796C87.9019 22.044 88.1579 22.24 88.4779 22.384C88.8059 22.528 89.1859 22.6 89.6179 22.6C89.9939 22.6 90.3059 22.548 90.5539 22.444C90.8019 22.34 90.9859 22.2 91.1059 22.024C91.2339 21.84 91.2979 21.624 91.2979 21.376C91.2979 21.128 91.2299 20.932 91.0939 20.788C90.9579 20.636 90.7539 20.512 90.4819 20.416C90.2099 20.312 89.8739 20.212 89.4739 20.116C89.1219 20.028 88.7739 19.924 88.4299 19.804C88.0939 19.676 87.7819 19.52 87.4939 19.336C87.2139 19.152 86.9859 18.932 86.8099 18.676C86.6419 18.412 86.5579 18.096 86.5579 17.728C86.5579 17.336 86.6659 16.98 86.8819 16.66C87.0979 16.332 87.4139 16.072 87.8299 15.88C88.2539 15.68 88.7659 15.58 89.3659 15.58C90.2939 15.58 90.9939 15.812 91.4659 16.276C91.9459 16.74 92.1779 17.36 92.1619 18.136H91.0819C91.0579 17.592 90.8859 17.204 90.5659 16.972C90.2459 16.732 89.8299 16.612 89.3179 16.612C88.8779 16.612 88.5019 16.704 88.1899 16.888C87.8779 17.064 87.7219 17.344 87.7219 17.728C87.7219 17.896 87.7579 18.044 87.8299 18.172C87.9019 18.292 88.0219 18.404 88.1899 18.508C88.3579 18.612 88.5819 18.712 88.8619 18.808C89.1499 18.904 89.5059 19.008 89.9299 19.12C90.2499 19.192 90.5579 19.284 90.8539 19.396C91.1579 19.508 91.4299 19.648 91.6699 19.816C91.9099 19.984 92.0979 20.2 92.2339 20.464C92.3779 20.728 92.4499 21.052 92.4499 21.436C92.4499 21.844 92.3499 22.216 92.1499 22.552C91.9499 22.88 91.6379 23.144 91.2139 23.344C90.7979 23.536 90.2579 23.632 89.5939 23.632C89.0659 23.632 88.6059 23.564 88.2139 23.428C87.8299 23.292 87.5059 23.116 87.2419 22.9C86.9859 22.684 86.7819 22.452 86.6299 22.204C86.4859 21.956 86.3859 21.72 86.3299 21.496C86.2819 21.272 86.2699 21.088 86.2939 20.944ZM95.8686 20.944H96.9726C96.9966 21.256 97.1006 21.54 97.2846 21.796C97.4766 22.044 97.7326 22.24 98.0526 22.384C98.3806 22.528 98.7606 22.6 99.1926 22.6C99.5686 22.6 99.8806 22.548 100.129 22.444C100.377 22.34 100.561 22.2 100.681 22.024C100.809 21.84 100.873 21.624 100.873 21.376C100.873 21.128 100.805 20.932 100.669 20.788C100.533 20.636 100.329 20.512 100.057 20.416C99.7846 20.312 99.4486 20.212 99.0486 20.116C98.6966 20.028 98.3486 19.924 98.0046 19.804C97.6686 19.676 97.3566 19.52 97.0686 19.336C96.7886 19.152 96.5606 18.932 96.3846 18.676C96.2166 18.412 96.1326 18.096 96.1326 17.728C96.1326 17.336 96.2406 16.98 96.4566 16.66C96.6726 16.332 96.9886 16.072 97.4046 15.88C97.8286 15.68 98.3406 15.58 98.9406 15.58C99.8686 15.58 100.569 15.812 101.041 16.276C101.521 16.74 101.753 17.36 101.737 18.136H100.657C100.633 17.592 100.461 17.204 100.141 16.972C99.8206 16.732 99.4046 16.612 98.8926 16.612C98.4526 16.612 98.0766 16.704 97.7646 16.888C97.4526 17.064 97.2966 17.344 97.2966 17.728C97.2966 17.896 97.3326 18.044 97.4046 18.172C97.4766 18.292 97.5966 18.404 97.7646 18.508C97.9326 18.612 98.1566 18.712 98.4366 18.808C98.7246 18.904 99.0806 19.008 99.5046 19.12C99.8246 19.192 100.133 19.284 100.429 19.396C100.733 19.508 101.005 19.648 101.245 19.816C101.485 19.984 101.673 20.2 101.809 20.464C101.953 20.728 102.025 21.052 102.025 21.436C102.025 21.844 101.925 22.216 101.725 22.552C101.525 22.88 101.213 23.144 100.789 23.344C100.373 23.536 99.8326 23.632 99.1686 23.632C98.6406 23.632 98.1806 23.564 97.7886 23.428C97.4046 23.292 97.0806 23.116 96.8166 22.9C96.5606 22.684 96.3566 22.452 96.2046 22.204C96.0606 21.956 95.9606 21.72 95.9046 21.496C95.8566 21.272 95.8446 21.088 95.8686 20.944ZM112.28 15.712V22.468H116.864V23.5H111.128V15.712H112.28ZM124.39 23.632C123.582 23.632 122.862 23.468 122.23 23.14C121.606 22.812 121.114 22.348 120.754 21.748C120.402 21.148 120.226 20.436 120.226 19.612C120.226 18.78 120.402 18.064 120.754 17.464C121.114 16.864 121.606 16.4 122.23 16.072C122.862 15.744 123.582 15.58 124.39 15.58C125.206 15.58 125.926 15.744 126.55 16.072C127.174 16.4 127.666 16.864 128.026 17.464C128.386 18.064 128.566 18.78 128.566 19.612C128.566 20.436 128.386 21.148 128.026 21.748C127.666 22.348 127.174 22.812 126.55 23.14C125.926 23.468 125.206 23.632 124.39 23.632ZM124.39 22.588C124.966 22.588 125.478 22.476 125.926 22.252C126.374 22.028 126.73 21.696 126.994 21.256C127.258 20.816 127.39 20.268 127.39 19.612C127.39 18.956 127.258 18.408 126.994 17.968C126.73 17.528 126.374 17.196 125.926 16.972C125.478 16.74 124.966 16.624 124.39 16.624C123.83 16.624 123.322 16.74 122.866 16.972C122.41 17.196 122.05 17.528 121.786 17.968C121.522 18.408 121.39 18.956 121.39 19.612C121.39 20.268 121.522 20.816 121.786 21.256C122.05 21.696 122.41 22.028 122.866 22.252C123.322 22.476 123.83 22.588 124.39 22.588ZM133.335 21.568V20.536H137.511V21.568H133.335ZM131.643 23.5L134.823 15.712H136.047L139.251 23.5H138.003L135.219 16.468H135.651L132.879 23.5H131.643ZM149.534 22.228L149.198 22.348V15.712H150.362V23.5H149.198L143.762 17.008L144.098 16.888V23.5H142.946V15.712H144.098L149.534 22.228ZM154.254 20.944H155.358C155.382 21.256 155.486 21.54 155.67 21.796C155.862 22.044 156.118 22.24 156.438 22.384C156.766 22.528 157.146 22.6 157.578 22.6C157.954 22.6 158.266 22.548 158.514 22.444C158.762 22.34 158.946 22.2 159.066 22.024C159.194 21.84 159.258 21.624 159.258 21.376C159.258 21.128 159.19 20.932 159.054 20.788C158.918 20.636 158.714 20.512 158.442 20.416C158.17 20.312 157.834 20.212 157.434 20.116C157.082 20.028 156.734 19.924 156.39 19.804C156.054 19.676 155.742 19.52 155.454 19.336C155.174 19.152 154.946 18.932 154.77 18.676C154.602 18.412 154.518 18.096 154.518 17.728C154.518 17.336 154.626 16.98 154.842 16.66C155.058 16.332 155.374 16.072 155.79 15.88C156.214 15.68 156.726 15.58 157.326 15.58C158.254 15.58 158.954 15.812 159.426 16.276C159.906 16.74 160.138 17.36 160.122 18.136H159.042C159.018 17.592 158.846 17.204 158.526 16.972C158.206 16.732 157.79 16.612 157.278 16.612C156.838 16.612 156.462 16.704 156.15 16.888C155.838 17.064 155.682 17.344 155.682 17.728C155.682 17.896 155.718 18.044 155.79 18.172C155.862 18.292 155.982 18.404 156.15 18.508C156.318 18.612 156.542 18.712 156.822 18.808C157.11 18.904 157.466 19.008 157.89 19.12C158.21 19.192 158.518 19.284 158.814 19.396C159.118 19.508 159.39 19.648 159.63 19.816C159.87 19.984 160.058 20.2 160.194 20.464C160.338 20.728 160.41 21.052 160.41 21.436C160.41 21.844 160.31 22.216 160.11 22.552C159.91 22.88 159.598 23.144 159.174 23.344C158.758 23.536 158.218 23.632 157.554 23.632C157.026 23.632 156.566 23.564 156.174 23.428C155.79 23.292 155.466 23.116 155.202 22.9C154.946 22.684 154.742 22.452 154.59 22.204C154.446 21.956 154.346 21.72 154.29 21.496C154.242 21.272 154.23 21.088 154.254 20.944Z" fill="#228B22"/>
<circle cx="219" cy="19.5" r="7.5" stroke="#228B22"/>
<circle cx="219" cy="19.5" r="4" fill="#23A323"/>
</svg>
