<svg width="634" height="85" viewBox="0 0 634 85" fill="none" xmlns="http://www.w3.org/2000/svg">
<rect width="634" height="85" rx="4" fill="url(#paint0_linear_3991_41206)"/>
<path d="M47.075 60.55C44.9117 60.55 43.115 60.11 41.685 59.23C40.2917 58.3133 39.1733 57.1217 38.33 55.655C37.5233 54.1883 36.9367 52.63 36.57 50.98C36.2033 49.33 36.02 47.7717 36.02 46.305C36.02 44.325 36.185 42.4733 36.515 40.75C36.8817 39.0267 37.4683 37.505 38.275 36.185C39.0817 34.865 40.2 33.8383 41.63 33.105C43.06 32.3717 44.875 32.005 47.075 32.005C49.5317 32.005 51.7133 32.6283 53.62 33.875C55.5633 35.085 57.085 36.7717 58.185 38.935C59.285 41.0617 59.835 43.5183 59.835 46.305C59.835 49.0917 59.2667 51.5667 58.13 53.73C56.9933 55.8567 55.4533 57.525 53.51 58.735C51.6033 59.945 49.4583 60.55 47.075 60.55ZM45.59 55.985C47.35 55.985 48.89 55.5817 50.21 54.775C51.5667 53.9317 52.6117 52.795 53.345 51.365C54.115 49.8983 54.5 48.2117 54.5 46.305C54.5 43.4817 53.7117 41.1533 52.135 39.32C50.595 37.4867 48.4133 36.57 45.59 36.57C43.6833 36.57 42.0517 36.9733 40.695 37.78C39.375 38.5867 38.3667 39.7233 37.67 41.19C36.9733 42.6567 36.625 44.3617 36.625 46.305C36.625 48.1017 36.955 49.7333 37.615 51.2C38.3117 52.6667 39.32 53.84 40.64 54.72C41.9967 55.5633 43.6467 55.985 45.59 55.985ZM36.625 21.555V54.005C36.625 54.8483 36.57 55.8567 36.46 57.03C36.3867 58.2033 36.3133 59.1933 36.24 60H31.4V21.555H36.625ZM91.1747 60H85.9497V32.555H91.1747V60ZM86.2247 47.075L86.2797 48.725C86.243 49.2017 86.1147 49.9167 85.8947 50.87C85.7114 51.7867 85.3814 52.795 84.9047 53.895C84.4647 54.995 83.8414 56.0583 83.0347 57.085C82.2647 58.1117 81.2747 58.955 80.0647 59.615C78.8547 60.275 77.388 60.605 75.6647 60.605C74.4914 60.605 73.2814 60.44 72.0347 60.11C70.8247 59.78 69.7064 59.23 68.6797 58.46C67.653 57.69 66.828 56.645 66.2047 55.325C65.5814 53.9683 65.2697 52.2817 65.2697 50.265V32.555H70.5497V49.165C70.5497 50.8517 70.8064 52.1717 71.3197 53.125C71.8697 54.0783 72.6397 54.7567 73.6297 55.16C74.6197 55.5633 75.738 55.765 76.9847 55.765C78.8914 55.765 80.4864 55.3067 81.7697 54.39C83.0897 53.4367 84.1164 52.3 84.8497 50.98C85.583 49.6233 86.0414 48.3217 86.2247 47.075ZM96.8771 51.09H101.717C101.9 52.5567 102.56 53.7667 103.697 54.72C104.834 55.6367 106.429 56.095 108.482 56.095C109.802 56.095 110.829 55.9483 111.562 55.655C112.295 55.325 112.809 54.885 113.102 54.335C113.432 53.785 113.597 53.18 113.597 52.52C113.597 51.6767 113.377 51.035 112.937 50.595C112.497 50.1183 111.874 49.7333 111.067 49.44C110.26 49.11 109.307 48.7983 108.207 48.505C106.997 48.175 105.787 47.79 104.577 47.35C103.367 46.91 102.249 46.3783 101.222 45.755C100.232 45.1317 99.4254 44.3617 98.8021 43.445C98.2154 42.4917 97.9221 41.3367 97.9221 39.98C97.9221 38.8433 98.1604 37.78 98.6371 36.79C99.1504 35.8 99.8654 34.9567 100.782 34.26C101.735 33.5267 102.835 32.9767 104.082 32.61C105.329 32.2067 106.704 32.005 108.207 32.005C110.297 32.005 112.057 32.39 113.487 33.16C114.917 33.8933 115.999 34.9383 116.732 36.295C117.502 37.6517 117.905 39.21 117.942 40.97H113.322C113.065 39.43 112.534 38.3117 111.727 37.615C110.92 36.8817 109.71 36.515 108.097 36.515C106.52 36.515 105.31 36.8267 104.467 37.45C103.624 38.0733 103.202 38.9167 103.202 39.98C103.202 40.7867 103.495 41.4467 104.082 41.96C104.669 42.4367 105.457 42.8583 106.447 43.225C107.437 43.5917 108.555 43.9767 109.802 44.38C110.975 44.7833 112.094 45.205 113.157 45.645C114.257 46.0483 115.229 46.5433 116.072 47.13C116.952 47.68 117.63 48.4133 118.107 49.33C118.62 50.21 118.877 51.31 118.877 52.63C118.877 54.2433 118.474 55.655 117.667 56.865C116.86 58.0383 115.687 58.955 114.147 59.615C112.644 60.275 110.81 60.605 108.647 60.605C106.667 60.605 104.98 60.3667 103.587 59.89C102.23 59.4133 101.075 58.79 100.122 58.02C99.2054 57.25 98.4904 56.4433 97.9771 55.6C97.5004 54.72 97.1704 53.8767 96.9871 53.07C96.8404 52.2633 96.8037 51.6033 96.8771 51.09ZM130.73 21.225V26.89H124.185V21.225H130.73ZM124.845 32.555H130.07V60H124.845V32.555ZM137.511 32.555H142.791V60H137.511V32.555ZM153.241 32.005C154.781 32.005 156.174 32.225 157.421 32.665C158.668 33.105 159.731 33.765 160.611 34.645C161.491 35.4883 162.169 36.5517 162.646 37.835C163.159 39.0817 163.416 40.5117 163.416 42.125V60H158.191V43.28C158.191 41.1167 157.659 39.5033 156.596 38.44C155.569 37.34 153.993 36.79 151.866 36.79C150.216 36.79 148.713 37.175 147.356 37.945C145.999 38.715 144.881 39.7417 144.001 41.025C143.158 42.2717 142.644 43.6833 142.461 45.26L142.406 42.235C142.589 40.7683 142.974 39.4117 143.561 38.165C144.184 36.9183 144.954 35.8367 145.871 34.92C146.824 33.9667 147.924 33.2517 149.171 32.775C150.418 32.2617 151.774 32.005 153.241 32.005ZM191.503 51.09H196.508C196.215 52.8867 195.518 54.5 194.418 55.93C193.318 57.36 191.87 58.4967 190.073 59.34C188.277 60.1833 186.168 60.605 183.748 60.605C180.888 60.605 178.34 60 176.103 58.79C173.867 57.58 172.107 55.9117 170.823 53.785C169.54 51.6583 168.898 49.1833 168.898 46.36C168.898 43.5 169.522 41.0067 170.768 38.88C172.015 36.7167 173.738 35.03 175.938 33.82C178.138 32.61 180.65 32.005 183.473 32.005C186.443 32.005 188.937 32.5917 190.953 33.765C192.97 34.9383 194.455 36.68 195.408 38.99C196.398 41.2633 196.802 44.105 196.618 47.515H174.123C174.307 49.165 174.802 50.6317 175.608 51.915C176.452 53.1983 177.552 54.2067 178.908 54.94C180.302 55.6733 181.897 56.04 183.693 56.04C185.71 56.04 187.397 55.5817 188.753 54.665C190.11 53.7483 191.027 52.5567 191.503 51.09ZM183.528 36.515C181.145 36.515 179.165 37.1567 177.588 38.44C176.012 39.6867 174.967 41.355 174.453 43.445H191.338C191.192 41.2083 190.385 39.5033 188.918 38.33C187.452 37.12 185.655 36.515 183.528 36.515ZM200.969 51.09H205.809C205.992 52.5567 206.652 53.7667 207.789 54.72C208.926 55.6367 210.521 56.095 212.574 56.095C213.894 56.095 214.921 55.9483 215.654 55.655C216.387 55.325 216.901 54.885 217.194 54.335C217.524 53.785 217.689 53.18 217.689 52.52C217.689 51.6767 217.469 51.035 217.029 50.595C216.589 50.1183 215.966 49.7333 215.159 49.44C214.352 49.11 213.399 48.7983 212.299 48.505C211.089 48.175 209.879 47.79 208.669 47.35C207.459 46.91 206.341 46.3783 205.314 45.755C204.324 45.1317 203.517 44.3617 202.894 43.445C202.307 42.4917 202.014 41.3367 202.014 39.98C202.014 38.8433 202.252 37.78 202.729 36.79C203.242 35.8 203.957 34.9567 204.874 34.26C205.827 33.5267 206.927 32.9767 208.174 32.61C209.421 32.2067 210.796 32.005 212.299 32.005C214.389 32.005 216.149 32.39 217.579 33.16C219.009 33.8933 220.091 34.9383 220.824 36.295C221.594 37.6517 221.997 39.21 222.034 40.97H217.414C217.157 39.43 216.626 38.3117 215.819 37.615C215.012 36.8817 213.802 36.515 212.189 36.515C210.612 36.515 209.402 36.8267 208.559 37.45C207.716 38.0733 207.294 38.9167 207.294 39.98C207.294 40.7867 207.587 41.4467 208.174 41.96C208.761 42.4367 209.549 42.8583 210.539 43.225C211.529 43.5917 212.647 43.9767 213.894 44.38C215.067 44.7833 216.186 45.205 217.249 45.645C218.349 46.0483 219.321 46.5433 220.164 47.13C221.044 47.68 221.722 48.4133 222.199 49.33C222.712 50.21 222.969 51.31 222.969 52.63C222.969 54.2433 222.566 55.655 221.759 56.865C220.952 58.0383 219.779 58.955 218.239 59.615C216.736 60.275 214.902 60.605 212.739 60.605C210.759 60.605 209.072 60.3667 207.679 59.89C206.322 59.4133 205.167 58.79 204.214 58.02C203.297 57.25 202.582 56.4433 202.069 55.6C201.592 54.72 201.262 53.8767 201.079 53.07C200.932 52.2633 200.896 51.6033 200.969 51.09ZM227.287 51.09H232.127C232.311 52.5567 232.971 53.7667 234.107 54.72C235.244 55.6367 236.839 56.095 238.892 56.095C240.212 56.095 241.239 55.9483 241.972 55.655C242.706 55.325 243.219 54.885 243.512 54.335C243.842 53.785 244.007 53.18 244.007 52.52C244.007 51.6767 243.787 51.035 243.347 50.595C242.907 50.1183 242.284 49.7333 241.477 49.44C240.671 49.11 239.717 48.7983 238.617 48.505C237.407 48.175 236.197 47.79 234.987 47.35C233.777 46.91 232.659 46.3783 231.632 45.755C230.642 45.1317 229.836 44.3617 229.212 43.445C228.626 42.4917 228.332 41.3367 228.332 39.98C228.332 38.8433 228.571 37.78 229.047 36.79C229.561 35.8 230.276 34.9567 231.192 34.26C232.146 33.5267 233.246 32.9767 234.492 32.61C235.739 32.2067 237.114 32.005 238.617 32.005C240.707 32.005 242.467 32.39 243.897 33.16C245.327 33.8933 246.409 34.9383 247.142 36.295C247.912 37.6517 248.316 39.21 248.352 40.97H243.732C243.476 39.43 242.944 38.3117 242.137 37.615C241.331 36.8817 240.121 36.515 238.507 36.515C236.931 36.515 235.721 36.8267 234.877 37.45C234.034 38.0733 233.612 38.9167 233.612 39.98C233.612 40.7867 233.906 41.4467 234.492 41.96C235.079 42.4367 235.867 42.8583 236.857 43.225C237.847 43.5917 238.966 43.9767 240.212 44.38C241.386 44.7833 242.504 45.205 243.567 45.645C244.667 46.0483 245.639 46.5433 246.482 47.13C247.362 47.68 248.041 48.4133 248.517 49.33C249.031 50.21 249.287 51.31 249.287 52.63C249.287 54.2433 248.884 55.655 248.077 56.865C247.271 58.0383 246.097 58.955 244.557 59.615C243.054 60.275 241.221 60.605 239.057 60.605C237.077 60.605 235.391 60.3667 233.997 59.89C232.641 59.4133 231.486 58.79 230.532 58.02C229.616 57.25 228.901 56.4433 228.387 55.6C227.911 54.72 227.581 53.8767 227.397 53.07C227.251 52.2633 227.214 51.6033 227.287 51.09ZM293.796 49.55C293.576 51.8233 292.842 53.8033 291.596 55.49C290.386 57.14 288.791 58.405 286.811 59.285C284.831 60.165 282.631 60.605 280.211 60.605C277.534 60.605 275.077 60.055 272.841 58.955C270.604 57.8183 268.807 56.1867 267.451 54.06C266.131 51.8967 265.471 49.33 265.471 46.36C265.471 43.3533 266.131 40.7867 267.451 38.66C268.807 36.4967 270.604 34.8467 272.841 33.71C275.077 32.5733 277.534 32.005 280.211 32.005C282.631 32.005 284.812 32.445 286.756 33.325C288.699 34.205 290.294 35.47 291.541 37.12C292.787 38.7333 293.539 40.6767 293.796 42.95H289.011C288.387 40.97 287.269 39.4117 285.656 38.275C284.079 37.1017 282.264 36.515 280.211 36.515C278.524 36.515 276.947 36.9 275.481 37.67C274.051 38.44 272.896 39.5583 272.016 41.025C271.172 42.455 270.751 44.2333 270.751 46.36C270.751 48.4133 271.172 50.1733 272.016 51.64C272.896 53.07 274.051 54.17 275.481 54.94C276.911 55.6733 278.487 56.04 280.211 56.04C282.557 56.04 284.464 55.4717 285.931 54.335C287.397 53.1983 288.442 51.6033 289.066 49.55H293.796ZM312.543 60.605C309.867 60.605 307.41 60.0367 305.173 58.9C302.937 57.7633 301.158 56.1317 299.838 54.005C298.518 51.8783 297.858 49.33 297.858 46.36C297.858 43.3533 298.518 40.7867 299.838 38.66C301.158 36.4967 302.937 34.8467 305.173 33.71C307.41 32.5733 309.867 32.005 312.543 32.005C315.22 32.005 317.658 32.5733 319.858 33.71C322.058 34.8467 323.818 36.4967 325.138 38.66C326.458 40.7867 327.118 43.3533 327.118 46.36C327.118 49.33 326.458 51.8783 325.138 54.005C323.818 56.1317 322.058 57.7633 319.858 58.9C317.658 60.0367 315.22 60.605 312.543 60.605ZM312.543 56.04C314.193 56.04 315.715 55.6733 317.108 54.94C318.538 54.17 319.675 53.07 320.518 51.64C321.398 50.1733 321.838 48.4133 321.838 46.36C321.838 44.27 321.398 42.4917 320.518 41.025C319.675 39.5583 318.538 38.44 317.108 37.67C315.715 36.9 314.193 36.515 312.543 36.515C310.893 36.515 309.353 36.9 307.923 37.67C306.493 38.4033 305.338 39.5033 304.458 40.97C303.578 42.4367 303.138 44.2333 303.138 46.36C303.138 48.4133 303.56 50.1733 304.403 51.64C305.283 53.07 306.438 54.17 307.868 54.94C309.298 55.6733 310.857 56.04 312.543 56.04ZM332.643 32.555H337.923V60H332.643V32.555ZM348.373 32.005C349.913 32.005 351.306 32.225 352.553 32.665C353.799 33.105 354.863 33.765 355.743 34.645C356.623 35.4883 357.301 36.5517 357.778 37.835C358.291 39.0817 358.548 40.5117 358.548 42.125V60H353.323V43.28C353.323 41.1167 352.791 39.5033 351.728 38.44C350.701 37.34 349.124 36.79 346.998 36.79C345.348 36.79 343.844 37.175 342.488 37.945C341.131 38.715 340.013 39.7417 339.133 41.025C338.289 42.2717 337.776 43.6833 337.593 45.26L337.538 42.235C337.721 40.7683 338.106 39.4117 338.693 38.165C339.316 36.9183 340.086 35.8367 341.003 34.92C341.956 33.9667 343.056 33.2517 344.303 32.775C345.549 32.2617 346.906 32.005 348.373 32.005ZM368.503 32.005C370.043 32.005 371.436 32.225 372.683 32.665C373.929 33.105 374.993 33.765 375.873 34.645C376.753 35.4883 377.431 36.5517 377.908 37.835C378.421 39.0817 378.678 40.5117 378.678 42.125V60H373.453V43.28C373.453 41.1167 372.921 39.5033 371.858 38.44C370.831 37.34 369.254 36.79 367.128 36.79C365.478 36.79 363.974 37.175 362.618 37.945C361.261 38.715 360.143 39.7417 359.263 41.025C358.419 42.2717 357.906 43.6833 357.723 45.26L357.668 42.18C357.851 40.7133 358.236 39.375 358.823 38.165C359.446 36.9183 360.234 35.8367 361.188 34.92C362.141 33.9667 363.241 33.2517 364.488 32.775C365.734 32.2617 367.073 32.005 368.503 32.005ZM385.602 32.555H390.882V60H385.602V32.555ZM401.332 32.005C402.872 32.005 404.265 32.225 405.512 32.665C406.758 33.105 407.822 33.765 408.702 34.645C409.582 35.4883 410.26 36.5517 410.737 37.835C411.25 39.0817 411.507 40.5117 411.507 42.125V60H406.282V43.28C406.282 41.1167 405.75 39.5033 404.687 38.44C403.66 37.34 402.083 36.79 399.957 36.79C398.307 36.79 396.803 37.175 395.447 37.945C394.09 38.715 392.972 39.7417 392.092 41.025C391.248 42.2717 390.735 43.6833 390.552 45.26L390.497 42.235C390.68 40.7683 391.065 39.4117 391.652 38.165C392.275 36.9183 393.045 35.8367 393.962 34.92C394.915 33.9667 396.015 33.2517 397.262 32.775C398.508 32.2617 399.865 32.005 401.332 32.005ZM421.462 32.005C423.002 32.005 424.395 32.225 425.642 32.665C426.888 33.105 427.952 33.765 428.832 34.645C429.712 35.4883 430.39 36.5517 430.867 37.835C431.38 39.0817 431.637 40.5117 431.637 42.125V60H426.412V43.28C426.412 41.1167 425.88 39.5033 424.817 38.44C423.79 37.34 422.213 36.79 420.087 36.79C418.437 36.79 416.933 37.175 415.577 37.945C414.22 38.715 413.102 39.7417 412.222 41.025C411.378 42.2717 410.865 43.6833 410.682 45.26L410.627 42.18C410.81 40.7133 411.195 39.375 411.782 38.165C412.405 36.9183 413.193 35.8367 414.147 34.92C415.1 33.9667 416.2 33.2517 417.447 32.775C418.693 32.2617 420.032 32.005 421.462 32.005ZM464.466 60H459.241V32.555H464.466V60ZM459.516 47.075L459.571 48.725C459.534 49.2017 459.406 49.9167 459.186 50.87C459.002 51.7867 458.672 52.795 458.196 53.895C457.756 54.995 457.132 56.0583 456.326 57.085C455.556 58.1117 454.566 58.955 453.356 59.615C452.146 60.275 450.679 60.605 448.956 60.605C447.782 60.605 446.572 60.44 445.326 60.11C444.116 59.78 442.997 59.23 441.971 58.46C440.944 57.69 440.119 56.645 439.496 55.325C438.872 53.9683 438.561 52.2817 438.561 50.265V32.555H443.841V49.165C443.841 50.8517 444.097 52.1717 444.611 53.125C445.161 54.0783 445.931 54.7567 446.921 55.16C447.911 55.5633 449.029 55.765 450.276 55.765C452.182 55.765 453.777 55.3067 455.061 54.39C456.381 53.4367 457.407 52.3 458.141 50.98C458.874 49.6233 459.332 48.3217 459.516 47.075ZM471.378 32.555H476.658V60H471.378V32.555ZM487.108 32.005C488.648 32.005 490.041 32.225 491.288 32.665C492.535 33.105 493.598 33.765 494.478 34.645C495.358 35.4883 496.036 36.5517 496.513 37.835C497.026 39.0817 497.283 40.5117 497.283 42.125V60H492.058V43.28C492.058 41.1167 491.526 39.5033 490.463 38.44C489.436 37.34 487.86 36.79 485.733 36.79C484.083 36.79 482.58 37.175 481.223 37.945C479.866 38.715 478.748 39.7417 477.868 41.025C477.025 42.2717 476.511 43.6833 476.328 45.26L476.273 42.235C476.456 40.7683 476.841 39.4117 477.428 38.165C478.051 36.9183 478.821 35.8367 479.738 34.92C480.691 33.9667 481.791 33.2517 483.038 32.775C484.285 32.2617 485.641 32.005 487.108 32.005ZM510.52 21.225V26.89H503.975V21.225H510.52ZM504.635 32.555H509.86V60H504.635V32.555ZM515.376 32.555H533.141V37.12H515.376V32.555ZM521.646 25.295H526.871V60H521.646V25.295ZM544.466 21.225V26.89H537.921V21.225H544.466ZM538.581 32.555H543.806V60H538.581V32.555ZM572.421 51.09H577.426C577.133 52.8867 576.436 54.5 575.336 55.93C574.236 57.36 572.788 58.4967 570.991 59.34C569.195 60.1833 567.086 60.605 564.666 60.605C561.806 60.605 559.258 60 557.021 58.79C554.785 57.58 553.025 55.9117 551.741 53.785C550.458 51.6583 549.816 49.1833 549.816 46.36C549.816 43.5 550.44 41.0067 551.686 38.88C552.933 36.7167 554.656 35.03 556.856 33.82C559.056 32.61 561.568 32.005 564.391 32.005C567.361 32.005 569.855 32.5917 571.871 33.765C573.888 34.9383 575.373 36.68 576.326 38.99C577.316 41.2633 577.72 44.105 577.536 47.515H555.041C555.225 49.165 555.72 50.6317 556.526 51.915C557.37 53.1983 558.47 54.2067 559.826 54.94C561.22 55.6733 562.815 56.04 564.611 56.04C566.628 56.04 568.315 55.5817 569.671 54.665C571.028 53.7483 571.945 52.5567 572.421 51.09ZM564.446 36.515C562.063 36.515 560.083 37.1567 558.506 38.44C556.93 39.6867 555.885 41.355 555.371 43.445H572.256C572.11 41.2083 571.303 39.5033 569.836 38.33C568.37 37.12 566.573 36.515 564.446 36.515ZM581.887 51.09H586.727C586.91 52.5567 587.57 53.7667 588.707 54.72C589.844 55.6367 591.439 56.095 593.492 56.095C594.812 56.095 595.839 55.9483 596.572 55.655C597.305 55.325 597.819 54.885 598.112 54.335C598.442 53.785 598.607 53.18 598.607 52.52C598.607 51.6767 598.387 51.035 597.947 50.595C597.507 50.1183 596.884 49.7333 596.077 49.44C595.27 49.11 594.317 48.7983 593.217 48.505C592.007 48.175 590.797 47.79 589.587 47.35C588.377 46.91 587.259 46.3783 586.232 45.755C585.242 45.1317 584.435 44.3617 583.812 43.445C583.225 42.4917 582.932 41.3367 582.932 39.98C582.932 38.8433 583.17 37.78 583.647 36.79C584.16 35.8 584.875 34.9567 585.792 34.26C586.745 33.5267 587.845 32.9767 589.092 32.61C590.339 32.2067 591.714 32.005 593.217 32.005C595.307 32.005 597.067 32.39 598.497 33.16C599.927 33.8933 601.009 34.9383 601.742 36.295C602.512 37.6517 602.915 39.21 602.952 40.97H598.332C598.075 39.43 597.544 38.3117 596.737 37.615C595.93 36.8817 594.72 36.515 593.107 36.515C591.53 36.515 590.32 36.8267 589.477 37.45C588.634 38.0733 588.212 38.9167 588.212 39.98C588.212 40.7867 588.505 41.4467 589.092 41.96C589.679 42.4367 590.467 42.8583 591.457 43.225C592.447 43.5917 593.565 43.9767 594.812 44.38C595.985 44.7833 597.104 45.205 598.167 45.645C599.267 46.0483 600.239 46.5433 601.082 47.13C601.962 47.68 602.64 48.4133 603.117 49.33C603.63 50.21 603.887 51.31 603.887 52.63C603.887 54.2433 603.484 55.655 602.677 56.865C601.87 58.0383 600.697 58.955 599.157 59.615C597.654 60.275 595.82 60.605 593.657 60.605C591.677 60.605 589.99 60.3667 588.597 59.89C587.24 59.4133 586.085 58.79 585.132 58.02C584.215 57.25 583.5 56.4433 582.987 55.6C582.51 54.72 582.18 53.8767 581.997 53.07C581.85 52.2633 581.814 51.6033 581.887 51.09Z" fill="white"/>
<defs>
<linearGradient id="paint0_linear_3991_41206" x1="-107.901" y1="33.5" x2="-20.8129" y2="309.999" gradientUnits="userSpaceOnUse">
<stop stop-color="#147A32" stop-opacity="0"/>
<stop offset="1" stop-color="#FFBD00"/>
</linearGradient>
</defs>
</svg>
