<svg width="633" height="280" viewBox="0 0 633 280" fill="none" xmlns="http://www.w3.org/2000/svg">
<g clip-path="url(#clip0_11489_28457)">
<rect x="0.46875" y="57.0312" width="317.957" height="23.4932" fill="#FFBD00"/>
<rect x="0.46875" y="150.548" width="576.551" height="18.0674" fill="#23A323"/>
<g filter="url(#filter0_d_11489_28457)">
<path d="M61.6797 23.532V60.632L63.6397 65.532C63.733 65.7654 63.7097 65.9754 63.5697 66.162C63.4297 66.3954 63.2197 66.512 62.9397 66.512H46.9797C46.6997 66.512 46.4897 66.3954 46.3497 66.162C46.2097 65.9754 46.1864 65.7654 46.2797 65.532L48.2397 60.632V46.072H30.2497V60.632L32.2097 65.532C32.303 65.7654 32.2797 65.9754 32.1397 66.162C31.9997 66.3954 31.7897 66.512 31.5097 66.512H15.5497C15.2697 66.512 15.0597 66.3954 14.9197 66.162C14.7797 65.9754 14.7564 65.7654 14.8497 65.532L16.8097 60.632V23.532L14.8497 18.632C14.7564 18.3987 14.7797 18.1887 14.9197 18.002C15.0597 17.7687 15.2697 17.652 15.5497 17.652H31.5097C31.7897 17.652 31.9997 17.7687 32.1397 18.002C32.2797 18.1887 32.303 18.3987 32.2097 18.632L30.2497 23.532V38.092H48.2397V23.532L46.2797 18.632C46.1864 18.3987 46.2097 18.1887 46.3497 18.002C46.4897 17.7687 46.6997 17.652 46.9797 17.652H62.9397C63.2197 17.652 63.4297 17.7687 63.5697 18.002C63.7097 18.1887 63.733 18.3987 63.6397 18.632L61.6797 23.532ZM106.763 65.672C106.856 65.9054 106.833 66.1154 106.693 66.302C106.553 66.5354 106.366 66.652 106.133 66.652H92.203C91.6896 66.652 91.433 66.3954 91.433 65.882V63.712C89.7063 65.0187 87.863 65.9754 85.903 66.582C83.943 67.142 81.843 67.422 79.603 67.422C78.3896 67.422 77.1763 67.3054 75.963 67.072C74.7963 66.8387 73.6996 66.4654 72.673 65.952C71.6463 65.392 70.713 64.7154 69.873 63.922C69.033 63.082 68.3796 62.0787 67.913 60.912C66.933 58.532 66.8163 56.152 67.563 53.772C68.3096 51.392 69.523 49.3154 71.203 47.542C72.463 46.2354 73.8863 45.1387 75.473 44.252C77.0596 43.3187 78.7163 42.572 80.443 42.012C82.2163 41.452 84.013 41.0554 85.833 40.822C87.6996 40.542 89.5196 40.402 91.293 40.402H91.503C91.4563 39.7487 91.3163 39.1187 91.083 38.512C90.8963 37.9054 90.523 37.4154 89.963 37.042C88.7963 36.342 87.4896 36.0387 86.043 36.132C84.643 36.1787 83.2196 36.4587 81.773 36.972C80.3263 37.4854 78.9263 38.1387 77.573 38.932C76.2663 39.6787 75.123 40.402 74.143 41.102C73.9096 41.242 73.6996 41.2887 73.513 41.242C73.2796 41.1954 73.1396 41.0554 73.093 40.822L70.013 34.452C69.9196 34.2654 69.9196 34.0554 70.013 33.822C70.0596 33.6354 70.1996 33.4954 70.433 33.402C72.1596 32.6554 74.1896 32.0254 76.523 31.512C78.903 30.9987 81.3763 30.6954 83.943 30.602C86.5096 30.462 89.0296 30.5787 91.503 30.952C94.023 31.3254 96.263 32.0254 98.223 33.052C100.23 34.0787 101.84 35.4787 103.053 37.252C104.313 39.0254 104.943 41.242 104.943 43.902V60.702L106.763 65.672ZM91.433 46.562C88.493 46.842 86.0663 48.0787 84.153 50.272C83.3596 51.1587 82.7063 52.1854 82.193 53.352C81.6796 54.5187 81.4696 55.7087 81.563 56.922C81.6096 57.4354 81.7263 57.902 81.913 58.322C82.0996 58.742 82.403 59.092 82.823 59.372C83.6163 59.8854 84.503 60.0487 85.483 59.862C86.5096 59.6754 87.373 59.3487 88.073 58.882C89.193 58.1354 90.033 57.202 90.593 56.082C91.153 54.9154 91.433 53.6554 91.433 52.302V46.562ZM113.004 60.632V40.542L110.624 36.622C110.484 36.4354 110.461 36.2254 110.554 35.992C110.601 35.8054 110.741 35.6654 110.974 35.572L113.424 34.802L125.324 31.582C125.511 31.5354 125.721 31.582 125.954 31.722C126.141 31.862 126.234 32.0487 126.234 32.282V34.802C127.028 34.0554 127.914 33.402 128.894 32.842C129.874 32.282 130.831 31.8154 131.764 31.442C132.838 31.0687 133.934 30.8354 135.054 30.742C136.174 30.602 137.271 30.6954 138.344 31.022C138.671 31.1154 138.834 31.3487 138.834 31.722V42.292C138.834 42.6187 138.694 42.852 138.414 42.992C138.134 43.132 137.878 43.0854 137.644 42.852C136.758 41.9187 135.708 41.2654 134.494 40.892C133.281 40.5187 132.044 40.4487 130.784 40.682C129.944 40.822 129.058 41.172 128.124 41.732C127.191 42.2454 126.608 42.9687 126.374 43.902C126.328 44.042 126.304 44.252 126.304 44.532V60.702L128.264 65.602C128.358 65.8354 128.334 66.0454 128.194 66.232C128.054 66.4654 127.868 66.582 127.634 66.582H111.674C111.441 66.582 111.254 66.4654 111.114 66.232C110.974 66.0454 110.951 65.8354 111.044 65.602L113.004 60.632ZM167.117 60.562V42.222C167.117 41.802 167.047 41.312 166.907 40.752C166.813 40.192 166.557 39.7954 166.137 39.562C165.857 39.422 165.507 39.3754 165.087 39.422C164.667 39.422 164.247 39.492 163.827 39.632C163.407 39.772 162.987 39.9587 162.567 40.192C162.193 40.3787 161.867 40.542 161.587 40.682C160.42 41.3354 159.347 42.082 158.367 42.922V60.632L160.327 65.532C160.42 65.7654 160.397 65.9754 160.257 66.162C160.117 66.3954 159.93 66.512 159.697 66.512H143.737C143.503 66.512 143.317 66.3954 143.177 66.162C143.037 65.9754 143.013 65.7654 143.107 65.532L144.927 60.982V40.332L142.687 36.622C142.547 36.4354 142.523 36.2254 142.617 35.992C142.663 35.8054 142.803 35.6654 143.037 35.572L157.457 31.512C157.643 31.4654 157.853 31.512 158.087 31.652C158.273 31.792 158.367 31.9787 158.367 32.212V35.922C159.16 35.2687 159.977 34.662 160.817 34.102C161.657 33.4954 162.543 32.9354 163.477 32.422C164.597 31.7687 165.763 31.3254 166.977 31.092C168.19 30.8587 169.427 30.742 170.687 30.742C173.767 30.7887 176.17 31.6987 177.897 33.472C179.623 35.2454 180.487 37.672 180.487 40.752V60.702L182.447 65.602C182.54 65.8354 182.517 66.0454 182.377 66.232C182.237 66.4654 182.05 66.582 181.817 66.582H165.857C165.623 66.582 165.437 66.4654 165.297 66.232C165.157 66.0454 165.133 65.8354 165.227 65.602L167.117 60.562ZM199.835 53.562V53.772C200.581 56.0587 201.981 57.8787 204.035 59.232C206.088 60.5387 208.258 61.3554 210.545 61.682C211.291 61.822 212.108 61.892 212.995 61.892C214.348 61.892 215.678 61.7287 216.985 61.402C218.338 61.0754 219.621 60.5854 220.835 59.932C221.161 59.7454 221.441 59.8154 221.675 60.142C221.908 60.4687 221.908 60.772 221.675 61.052C219.668 63.432 217.218 65.112 214.325 66.092C211.478 67.0254 208.538 67.492 205.505 67.492C202.705 67.492 200.068 67.0954 197.595 66.302C195.168 65.462 193.021 64.272 191.155 62.732C189.335 61.1454 187.888 59.2087 186.815 56.922C185.788 54.6354 185.275 52.022 185.275 49.082C185.275 46.142 185.788 43.552 186.815 41.312C187.888 39.0254 189.335 37.112 191.155 35.572C192.975 33.9854 195.098 32.7954 197.525 32.002C199.951 31.2087 202.565 30.812 205.365 30.812C210.591 30.812 214.605 32.0487 217.405 34.522C220.251 36.9954 221.838 40.8454 222.165 46.072C222.165 46.4454 222.001 46.6787 221.675 46.772L219.225 47.542L211.455 49.992L199.625 53.702L199.835 53.562ZM209.775 44.812C209.821 43.7387 209.705 42.5954 209.425 41.382C209.191 40.5887 208.865 39.7954 208.445 39.002C208.071 38.2087 207.581 37.532 206.975 36.972C206.415 36.3654 205.738 35.922 204.945 35.642C204.198 35.3154 203.358 35.2687 202.425 35.502L202.005 35.712C201.071 36.0854 200.348 36.7387 199.835 37.672C199.321 38.5587 198.948 39.4454 198.715 40.332C198.341 41.6387 198.131 42.992 198.085 44.392C198.085 45.792 198.201 47.1687 198.435 48.522L209.775 44.812ZM255.048 34.662C255.094 34.8954 255.048 35.082 254.908 35.222L249.868 42.362C249.728 42.5487 249.541 42.642 249.308 42.642C249.074 42.642 248.888 42.572 248.748 42.432C248.188 41.872 247.511 41.242 246.718 40.542C245.971 39.7954 245.154 39.0954 244.268 38.442C243.428 37.742 242.564 37.1587 241.678 36.692C240.791 36.2254 239.928 35.992 239.088 35.992C238.248 35.992 237.641 36.1554 237.268 36.482C236.894 36.762 236.708 37.1354 236.708 37.602C236.708 38.0687 236.871 38.5587 237.198 39.072C237.524 39.5387 237.968 39.9587 238.528 40.332C239.134 40.7054 239.764 41.0554 240.418 41.382C241.118 41.7087 241.794 42.012 242.448 42.292C243.241 42.6654 244.034 43.0387 244.828 43.412C245.621 43.7387 246.414 44.0887 247.208 44.462C248.328 45.022 249.401 45.652 250.428 46.352C251.501 47.0054 252.458 47.7754 253.298 48.662C254.138 49.5487 254.791 50.5287 255.258 51.602C255.771 52.6754 256.028 53.912 256.028 55.312C256.028 57.6454 255.514 59.6054 254.488 61.192C253.461 62.732 252.131 63.9687 250.498 64.902C248.864 65.8354 247.021 66.4887 244.968 66.862C242.961 67.282 240.978 67.492 239.018 67.492C236.404 67.492 233.838 67.1187 231.318 66.372C228.844 65.5787 226.488 64.5054 224.248 63.152C224.061 62.9654 223.944 62.802 223.898 62.662C223.804 62.4754 223.851 62.2887 224.038 62.102L229.568 54.332C229.708 54.1454 229.894 54.052 230.128 54.052C230.361 54.052 230.548 54.122 230.688 54.262C231.948 55.522 233.254 56.8054 234.608 58.112C236.008 59.372 237.501 60.422 239.088 61.262C239.834 61.682 240.721 61.962 241.748 62.102C242.121 62.1487 242.564 62.172 243.078 62.172C243.591 62.172 244.058 62.1254 244.478 62.032C244.944 61.892 245.341 61.682 245.668 61.402C245.994 61.0754 246.158 60.632 246.158 60.072C246.158 59.7454 246.041 59.4187 245.808 59.092C245.574 58.7654 245.294 58.462 244.968 58.182C244.641 57.902 244.291 57.6687 243.918 57.482C243.591 57.2487 243.311 57.062 243.078 56.922C242.518 56.5954 241.934 56.292 241.328 56.012C240.768 55.732 240.184 55.452 239.578 55.172L235.588 53.282C234.981 52.9554 234.374 52.652 233.768 52.372C233.208 52.0454 232.648 51.6954 232.088 51.322C231.248 50.8087 230.431 50.2254 229.638 49.572C228.844 48.9187 228.144 48.1954 227.538 47.402C226.791 46.3754 226.324 45.3254 226.138 44.252C225.904 42.992 225.928 41.732 226.208 40.472C226.534 39.1654 227.024 37.9754 227.678 36.902C228.471 35.5954 229.451 34.4987 230.618 33.612C232.158 32.4454 233.884 31.6754 235.798 31.302C237.758 30.9287 239.671 30.742 241.538 30.742C243.964 30.742 246.181 30.9987 248.188 31.512C250.194 31.9787 252.271 32.7954 254.418 33.962C254.604 34.0554 254.744 34.1954 254.838 34.382L255.048 34.662ZM288.885 34.662C288.932 34.8954 288.885 35.082 288.745 35.222L283.705 42.362C283.565 42.5487 283.379 42.642 283.145 42.642C282.912 42.642 282.725 42.572 282.585 42.432C282.025 41.872 281.349 41.242 280.555 40.542C279.809 39.7954 278.992 39.0954 278.105 38.442C277.265 37.742 276.402 37.1587 275.515 36.692C274.629 36.2254 273.765 35.992 272.925 35.992C272.085 35.992 271.479 36.1554 271.105 36.482C270.732 36.762 270.545 37.1354 270.545 37.602C270.545 38.0687 270.709 38.5587 271.035 39.072C271.362 39.5387 271.805 39.9587 272.365 40.332C272.972 40.7054 273.602 41.0554 274.255 41.382C274.955 41.7087 275.632 42.012 276.285 42.292C277.079 42.6654 277.872 43.0387 278.665 43.412C279.459 43.7387 280.252 44.0887 281.045 44.462C282.165 45.022 283.239 45.652 284.265 46.352C285.339 47.0054 286.295 47.7754 287.135 48.662C287.975 49.5487 288.629 50.5287 289.095 51.602C289.609 52.6754 289.865 53.912 289.865 55.312C289.865 57.6454 289.352 59.6054 288.325 61.192C287.299 62.732 285.969 63.9687 284.335 64.902C282.702 65.8354 280.859 66.4887 278.805 66.862C276.799 67.282 274.815 67.492 272.855 67.492C270.242 67.492 267.675 67.1187 265.155 66.372C262.682 65.5787 260.325 64.5054 258.085 63.152C257.899 62.9654 257.782 62.802 257.735 62.662C257.642 62.4754 257.689 62.2887 257.875 62.102L263.405 54.332C263.545 54.1454 263.732 54.052 263.965 54.052C264.199 54.052 264.385 54.122 264.525 54.262C265.785 55.522 267.092 56.8054 268.445 58.112C269.845 59.372 271.339 60.422 272.925 61.262C273.672 61.682 274.559 61.962 275.585 62.102C275.959 62.1487 276.402 62.172 276.915 62.172C277.429 62.172 277.895 62.1254 278.315 62.032C278.782 61.892 279.179 61.682 279.505 61.402C279.832 61.0754 279.995 60.632 279.995 60.072C279.995 59.7454 279.879 59.4187 279.645 59.092C279.412 58.7654 279.132 58.462 278.805 58.182C278.479 57.902 278.129 57.6687 277.755 57.482C277.429 57.2487 277.149 57.062 276.915 56.922C276.355 56.5954 275.772 56.292 275.165 56.012C274.605 55.732 274.022 55.452 273.415 55.172L269.425 53.282C268.819 52.9554 268.212 52.652 267.605 52.372C267.045 52.0454 266.485 51.6954 265.925 51.322C265.085 50.8087 264.269 50.2254 263.475 49.572C262.682 48.9187 261.982 48.1954 261.375 47.402C260.629 46.3754 260.162 45.3254 259.975 44.252C259.742 42.992 259.765 41.732 260.045 40.472C260.372 39.1654 260.862 37.9754 261.515 36.902C262.309 35.5954 263.289 34.4987 264.455 33.612C265.995 32.4454 267.722 31.6754 269.635 31.302C271.595 30.9287 273.509 30.742 275.375 30.742C277.802 30.742 280.019 30.9987 282.025 31.512C284.032 31.9787 286.109 32.7954 288.255 33.962C288.442 34.0554 288.582 34.1954 288.675 34.382L288.885 34.662ZM314.116 26.542L311.736 22.622C311.596 22.4354 311.573 22.2254 311.666 21.992C311.713 21.8054 311.853 21.6654 312.086 21.572L314.536 20.802L326.436 17.582C326.623 17.5354 326.833 17.582 327.066 17.722C327.253 17.862 327.346 18.0487 327.346 18.282V31.512H336.376C336.889 31.512 337.146 31.7687 337.146 32.282V41.032C337.146 41.312 337.029 41.522 336.796 41.662C336.609 41.802 336.399 41.8254 336.166 41.732L327.416 37.952V54.962C327.416 56.4554 327.673 57.5754 328.186 58.322C328.746 59.0687 329.446 59.5354 330.286 59.722C331.126 59.862 332.036 59.7454 333.016 59.372C334.043 58.952 335.023 58.3454 335.956 57.552C336.189 57.3187 336.446 57.272 336.726 57.412C337.006 57.552 337.146 57.762 337.146 58.042V63.222C337.146 63.4554 337.053 63.642 336.866 63.782C334.999 65.2754 333.109 66.2787 331.196 66.792C329.283 67.3054 327.066 67.562 324.546 67.562C321.186 67.562 318.619 66.722 316.846 65.042C315.073 63.3154 314.186 60.772 314.186 57.412L314.116 26.542ZM365.427 60.632V42.292C365.427 41.872 365.357 41.382 365.217 40.822C365.124 40.262 364.867 39.8654 364.447 39.632C364.167 39.492 363.817 39.4454 363.397 39.492C362.977 39.492 362.557 39.562 362.137 39.702C361.717 39.842 361.297 40.0287 360.877 40.262C360.504 40.4487 360.177 40.612 359.897 40.752C358.731 41.4054 357.657 42.152 356.677 42.992V60.702L358.637 65.602C358.731 65.8354 358.707 66.0454 358.567 66.232C358.427 66.4654 358.241 66.582 358.007 66.582H342.047C341.814 66.582 341.627 66.4654 341.487 66.232C341.347 66.0454 341.324 65.8354 341.417 65.602L343.237 61.052V26.262L340.997 22.552C340.857 22.3654 340.834 22.1554 340.927 21.922C340.974 21.7354 341.114 21.5954 341.347 21.502L355.767 17.442C355.954 17.3954 356.164 17.442 356.397 17.582C356.584 17.722 356.677 17.9087 356.677 18.142V35.922C357.471 35.2687 358.287 34.662 359.127 34.102C359.967 33.4954 360.854 32.9354 361.787 32.422C362.907 31.7687 364.074 31.3254 365.287 31.092C366.501 30.8587 367.737 30.742 368.997 30.742C372.077 30.7887 374.481 31.6987 376.207 33.472C377.934 35.2454 378.797 37.672 378.797 40.752V60.702L380.757 65.602C380.851 65.8354 380.827 66.0454 380.687 66.232C380.547 66.4654 380.361 66.582 380.127 66.582H364.167C363.934 66.582 363.747 66.4654 363.607 66.232C363.467 66.0454 363.444 65.8354 363.537 65.602L365.427 60.632ZM398.077 53.562V53.772C398.823 56.0587 400.223 57.8787 402.277 59.232C404.33 60.5387 406.5 61.3554 408.787 61.682C409.533 61.822 410.35 61.892 411.237 61.892C412.59 61.892 413.92 61.7287 415.227 61.402C416.58 61.0754 417.863 60.5854 419.077 59.932C419.403 59.7454 419.683 59.8154 419.917 60.142C420.15 60.4687 420.15 60.772 419.917 61.052C417.91 63.432 415.46 65.112 412.567 66.092C409.72 67.0254 406.78 67.492 403.747 67.492C400.947 67.492 398.31 67.0954 395.837 66.302C393.41 65.462 391.263 64.272 389.397 62.732C387.577 61.1454 386.13 59.2087 385.057 56.922C384.03 54.6354 383.517 52.022 383.517 49.082C383.517 46.142 384.03 43.552 385.057 41.312C386.13 39.0254 387.577 37.112 389.397 35.572C391.217 33.9854 393.34 32.7954 395.767 32.002C398.193 31.2087 400.807 30.812 403.607 30.812C408.833 30.812 412.847 32.0487 415.647 34.522C418.493 36.9954 420.08 40.8454 420.407 46.072C420.407 46.4454 420.243 46.6787 419.917 46.772L417.467 47.542L409.697 49.992L397.867 53.702L398.077 53.562ZM408.017 44.812C408.063 43.7387 407.947 42.5954 407.667 41.382C407.433 40.5887 407.107 39.7954 406.687 39.002C406.313 38.2087 405.823 37.532 405.217 36.972C404.657 36.3654 403.98 35.922 403.187 35.642C402.44 35.3154 401.6 35.2687 400.667 35.502L400.247 35.712C399.313 36.0854 398.59 36.7387 398.077 37.672C397.563 38.5587 397.19 39.4454 396.957 40.332C396.583 41.6387 396.373 42.992 396.327 44.392C396.327 45.792 396.443 47.1687 396.677 48.522L408.017 44.812ZM30.3197 153.632L32.2797 158.532C32.373 158.765 32.3497 158.975 32.2097 159.162C32.0697 159.395 31.8597 159.512 31.5797 159.512H15.6197C15.3397 159.512 15.1297 159.395 14.9897 159.162C14.8497 158.975 14.8264 158.765 14.9197 158.532L16.8797 153.632V116.532L14.9197 111.632C14.8264 111.399 14.8497 111.189 14.9897 111.002C15.1297 110.769 15.3397 110.652 15.6197 110.652H39.4897C44.2964 110.652 48.2864 111.539 51.4597 113.312C54.6797 115.085 57.083 117.302 58.6697 119.962C60.2564 122.622 61.0497 125.492 61.0497 128.572C61.0497 131.652 60.2564 134.522 58.6697 137.182C57.083 139.842 54.6797 142.059 51.4597 143.832C48.2864 145.605 44.2964 146.492 39.4897 146.492H30.3197V153.632ZM30.3197 138.372H36.2697C38.743 138.372 40.7964 137.905 42.4297 136.972C44.1097 135.992 45.3464 134.779 46.1397 133.332C46.9797 131.839 47.3997 130.252 47.3997 128.572C47.3997 126.892 46.9797 125.329 46.1397 123.882C45.3464 122.389 44.1097 121.175 42.4297 120.242C40.7964 119.262 38.743 118.772 36.2697 118.772H30.3197V138.372ZM84.847 160.422C82.047 160.422 79.4103 160.025 76.937 159.232C74.5103 158.392 72.3636 157.202 70.497 155.662C68.677 154.075 67.2303 152.139 66.157 149.852C65.1303 147.565 64.617 144.952 64.617 142.012C64.617 139.072 65.1536 136.482 66.227 134.242C67.3003 131.955 68.747 130.042 70.567 128.502C72.387 126.915 74.5103 125.725 76.937 124.932C79.4103 124.139 82.047 123.742 84.847 123.742C87.647 123.742 90.2836 124.139 92.757 124.932C95.2303 125.725 97.377 126.915 99.197 128.502C101.017 130.042 102.464 131.955 103.537 134.242C104.61 136.529 105.147 139.142 105.147 142.082C105.147 145.022 104.61 147.635 103.537 149.922C102.464 152.209 101.017 154.145 99.197 155.732C97.377 157.272 95.2303 158.439 92.757 159.232C90.2836 160.025 87.647 160.422 84.847 160.422ZM87.297 131.372C86.6436 130.579 85.8036 129.879 84.777 129.272C83.797 128.619 82.7703 128.409 81.697 128.642C80.6236 128.875 79.7836 129.505 79.177 130.532C78.5703 131.559 78.1503 132.562 77.917 133.542C77.497 135.175 77.3336 136.879 77.427 138.652C77.5203 140.379 77.7536 142.059 78.127 143.692C78.5003 145.325 79.0603 146.959 79.807 148.592C80.5536 150.179 81.4636 151.602 82.537 152.862C83.1903 153.655 84.007 154.379 84.987 155.032C86.0136 155.639 87.0636 155.825 88.137 155.592C89.2103 155.359 90.0503 154.729 90.657 153.702C91.2636 152.675 91.6836 151.672 91.917 150.692C92.337 149.059 92.5003 147.379 92.407 145.652C92.3136 143.879 92.0803 142.175 91.707 140.542C91.3336 138.909 90.7736 137.299 90.027 135.712C89.2803 134.079 88.3703 132.632 87.297 131.372ZM121.796 127.942C123.243 131.302 124.619 134.522 125.926 137.602C127.279 140.635 128.703 143.809 130.196 147.122L135.236 134.312L131.176 125.492C131.083 125.259 131.106 125.049 131.246 124.862C131.386 124.629 131.596 124.512 131.876 124.512H145.386C145.713 124.512 145.946 124.652 146.086 124.932C147.673 128.525 149.213 132.119 150.706 135.712C152.246 139.259 153.833 142.829 155.466 146.422L158.616 125.142C158.709 124.722 158.943 124.512 159.316 124.512H170.936C171.216 124.512 171.426 124.629 171.566 124.862C171.706 125.049 171.729 125.259 171.636 125.492L156.936 159.092C156.796 159.372 156.563 159.512 156.236 159.512H147.486C147.206 159.512 146.996 159.372 146.856 159.092L138.946 141.942L131.456 159.092C131.316 159.372 131.083 159.512 130.756 159.512H122.006C121.726 159.512 121.516 159.372 121.376 159.092L105.836 125.492C105.743 125.259 105.766 125.049 105.906 124.862C106.046 124.629 106.256 124.512 106.536 124.512H121.166C121.493 124.512 121.726 124.652 121.866 124.932C122.053 125.305 122.076 125.819 121.936 126.472C121.843 127.079 121.889 127.569 122.076 127.942H121.796ZM187.12 146.562V146.772C187.866 149.059 189.266 150.879 191.32 152.232C193.373 153.539 195.543 154.355 197.83 154.682C198.576 154.822 199.393 154.892 200.28 154.892C201.633 154.892 202.963 154.729 204.27 154.402C205.623 154.075 206.906 153.585 208.12 152.932C208.446 152.745 208.726 152.815 208.96 153.142C209.193 153.469 209.193 153.772 208.96 154.052C206.953 156.432 204.503 158.112 201.61 159.092C198.763 160.025 195.823 160.492 192.79 160.492C189.99 160.492 187.353 160.095 184.88 159.302C182.453 158.462 180.306 157.272 178.44 155.732C176.62 154.145 175.173 152.209 174.1 149.922C173.073 147.635 172.56 145.022 172.56 142.082C172.56 139.142 173.073 136.552 174.1 134.312C175.173 132.025 176.62 130.112 178.44 128.572C180.26 126.985 182.383 125.795 184.81 125.002C187.236 124.209 189.85 123.812 192.65 123.812C197.876 123.812 201.89 125.049 204.69 127.522C207.536 129.995 209.123 133.845 209.45 139.072C209.45 139.445 209.286 139.679 208.96 139.772L206.51 140.542L198.74 142.992L186.91 146.702L187.12 146.562ZM197.06 137.812C197.106 136.739 196.99 135.595 196.71 134.382C196.476 133.589 196.15 132.795 195.73 132.002C195.356 131.209 194.866 130.532 194.26 129.972C193.7 129.365 193.023 128.922 192.23 128.642C191.483 128.315 190.643 128.269 189.71 128.502L189.29 128.712C188.356 129.085 187.633 129.739 187.12 130.672C186.606 131.559 186.233 132.445 186 133.332C185.626 134.639 185.416 135.992 185.37 137.392C185.37 138.792 185.486 140.169 185.72 141.522L197.06 137.812ZM214.381 153.632V133.542L212.001 129.622C211.861 129.435 211.838 129.225 211.931 128.992C211.978 128.805 212.118 128.665 212.351 128.572L214.801 127.802L226.701 124.582C226.888 124.535 227.098 124.582 227.331 124.722C227.518 124.862 227.611 125.049 227.611 125.282V127.802C228.405 127.055 229.291 126.402 230.271 125.842C231.251 125.282 232.208 124.815 233.141 124.442C234.215 124.069 235.311 123.835 236.431 123.742C237.551 123.602 238.648 123.695 239.721 124.022C240.048 124.115 240.211 124.349 240.211 124.722V135.292C240.211 135.619 240.071 135.852 239.791 135.992C239.511 136.132 239.255 136.085 239.021 135.852C238.135 134.919 237.085 134.265 235.871 133.892C234.658 133.519 233.421 133.449 232.161 133.682C231.321 133.822 230.435 134.172 229.501 134.732C228.568 135.245 227.985 135.969 227.751 136.902C227.705 137.042 227.681 137.252 227.681 137.532V153.702L229.641 158.602C229.735 158.835 229.711 159.045 229.571 159.232C229.431 159.465 229.245 159.582 229.011 159.582H213.051C212.818 159.582 212.631 159.465 212.491 159.232C212.351 159.045 212.328 158.835 212.421 158.602L214.381 153.632ZM282.542 160.422C279.742 160.422 277.106 160.025 274.632 159.232C272.206 158.392 270.059 157.202 268.192 155.662C266.372 154.075 264.926 152.139 263.852 149.852C262.826 147.565 262.312 144.952 262.312 142.012C262.312 139.072 262.849 136.482 263.922 134.242C264.996 131.955 266.442 130.042 268.262 128.502C270.082 126.915 272.206 125.725 274.632 124.932C277.106 124.139 279.742 123.742 282.542 123.742C285.342 123.742 287.979 124.139 290.452 124.932C292.926 125.725 295.072 126.915 296.892 128.502C298.712 130.042 300.159 131.955 301.232 134.242C302.306 136.529 302.842 139.142 302.842 142.082C302.842 145.022 302.306 147.635 301.232 149.922C300.159 152.209 298.712 154.145 296.892 155.732C295.072 157.272 292.926 158.439 290.452 159.232C287.979 160.025 285.342 160.422 282.542 160.422ZM284.992 131.372C284.339 130.579 283.499 129.879 282.472 129.272C281.492 128.619 280.466 128.409 279.392 128.642C278.319 128.875 277.479 129.505 276.872 130.532C276.266 131.559 275.846 132.562 275.612 133.542C275.192 135.175 275.029 136.879 275.122 138.652C275.216 140.379 275.449 142.059 275.822 143.692C276.196 145.325 276.756 146.959 277.502 148.592C278.249 150.179 279.159 151.602 280.232 152.862C280.886 153.655 281.702 154.379 282.682 155.032C283.709 155.639 284.759 155.825 285.832 155.592C286.906 155.359 287.746 154.729 288.352 153.702C288.959 152.675 289.379 151.672 289.612 150.692C290.032 149.059 290.196 147.379 290.102 145.652C290.009 143.879 289.776 142.175 289.402 140.542C289.029 138.909 288.469 137.299 287.722 135.712C286.976 134.079 286.066 132.632 284.992 131.372ZM317.114 119.472C317.581 120.405 318.187 121.315 318.934 122.202C319.727 123.042 320.497 123.812 321.244 124.512H330.694C331.207 124.512 331.464 124.769 331.464 125.282V134.032C331.464 134.312 331.347 134.522 331.114 134.662C330.927 134.802 330.717 134.825 330.484 134.732L321.734 130.952V153.702L323.694 158.602C323.787 158.835 323.764 159.045 323.624 159.232C323.484 159.465 323.297 159.582 323.064 159.582H307.104C306.871 159.582 306.684 159.465 306.544 159.232C306.404 159.045 306.381 158.835 306.474 158.602L308.434 153.702V120.872C308.434 118.912 308.807 117.255 309.554 115.902C310.301 114.502 311.281 113.382 312.494 112.542C313.754 111.655 315.177 111.049 316.764 110.722C318.397 110.349 320.077 110.185 321.804 110.232C323.344 110.325 324.977 110.605 326.704 111.072C328.477 111.492 329.971 112.192 331.184 113.172C331.371 113.312 331.464 113.499 331.464 113.732V122.272C331.464 122.552 331.324 122.762 331.044 122.902C330.764 123.042 330.507 122.995 330.274 122.762C329.014 121.642 327.614 120.569 326.074 119.542C324.534 118.469 322.947 117.652 321.314 117.092C321.081 116.999 320.754 116.905 320.334 116.812C319.914 116.672 319.471 116.602 319.004 116.602C318.584 116.555 318.164 116.555 317.744 116.602C317.371 116.649 317.091 116.812 316.904 117.092C316.671 117.419 316.624 117.839 316.764 118.352C316.904 118.819 317.044 119.215 317.184 119.542L317.114 119.472ZM403.975 150.622C404.209 150.949 404.209 151.252 403.975 151.532C402.575 153.165 400.989 154.565 399.215 155.732C397.489 156.899 395.645 157.855 393.685 158.602C391.772 159.349 389.765 159.885 387.665 160.212C385.565 160.585 383.465 160.772 381.365 160.772C376.699 160.772 372.615 160.049 369.115 158.602C365.615 157.109 362.699 155.172 360.365 152.792C358.032 150.365 356.282 147.612 355.115 144.532C353.949 141.452 353.365 138.325 353.365 135.152C353.365 131.932 353.949 128.782 355.115 125.702C356.282 122.622 358.032 119.892 360.365 117.512C362.699 115.085 365.615 113.149 369.115 111.702C372.615 110.209 376.699 109.462 381.365 109.462C385.192 109.462 388.949 110.069 392.635 111.282C396.369 112.449 399.635 114.385 402.435 117.092C402.575 117.232 402.645 117.419 402.645 117.652C402.645 117.885 402.575 118.072 402.435 118.212L392.075 126.962C391.889 127.149 391.702 127.195 391.515 127.102C391.329 127.055 391.165 126.915 391.025 126.682C390.139 125.049 389.065 123.532 387.805 122.132C386.545 120.685 385.075 119.542 383.395 118.702C382.135 118.049 380.782 117.629 379.335 117.442C377.935 117.255 376.535 117.372 375.135 117.792C373.735 118.212 372.499 118.912 371.425 119.892C370.399 120.825 369.559 121.945 368.905 123.252C367.972 125.025 367.412 126.939 367.225 128.992C367.085 131.045 367.132 133.052 367.365 135.012C367.925 139.492 369.839 143.319 373.105 146.492C375.019 148.359 377.212 149.852 379.685 150.972C382.205 152.045 384.819 152.769 387.525 153.142C390.232 153.469 392.939 153.399 395.645 152.932C398.352 152.465 400.872 151.602 403.205 150.342C403.532 150.155 403.812 150.225 404.045 150.552L403.975 150.622ZM407.428 153.632V133.542L405.048 129.622C404.908 129.435 404.885 129.225 404.978 128.992C405.025 128.805 405.165 128.665 405.398 128.572L407.848 127.802L419.748 124.582C419.935 124.535 420.145 124.582 420.378 124.722C420.565 124.862 420.658 125.049 420.658 125.282V127.802C421.452 127.055 422.338 126.402 423.318 125.842C424.298 125.282 425.255 124.815 426.188 124.442C427.262 124.069 428.358 123.835 429.478 123.742C430.598 123.602 431.695 123.695 432.768 124.022C433.095 124.115 433.258 124.349 433.258 124.722V135.292C433.258 135.619 433.118 135.852 432.838 135.992C432.558 136.132 432.302 136.085 432.068 135.852C431.182 134.919 430.132 134.265 428.918 133.892C427.705 133.519 426.468 133.449 425.208 133.682C424.368 133.822 423.482 134.172 422.548 134.732C421.615 135.245 421.032 135.969 420.798 136.902C420.752 137.042 420.728 137.252 420.728 137.532V153.702L422.688 158.602C422.782 158.835 422.758 159.045 422.618 159.232C422.478 159.465 422.292 159.582 422.058 159.582H406.098C405.865 159.582 405.678 159.465 405.538 159.232C405.398 159.045 405.375 158.835 405.468 158.602L407.428 153.632ZM450.713 146.562V146.772C451.46 149.059 452.86 150.879 454.913 152.232C456.967 153.539 459.137 154.355 461.423 154.682C462.17 154.822 462.987 154.892 463.873 154.892C465.227 154.892 466.557 154.729 467.863 154.402C469.217 154.075 470.5 153.585 471.713 152.932C472.04 152.745 472.32 152.815 472.553 153.142C472.787 153.469 472.787 153.772 472.553 154.052C470.547 156.432 468.097 158.112 465.203 159.092C462.357 160.025 459.417 160.492 456.383 160.492C453.583 160.492 450.947 160.095 448.473 159.302C446.047 158.462 443.9 157.272 442.033 155.732C440.213 154.145 438.767 152.209 437.693 149.922C436.667 147.635 436.153 145.022 436.153 142.082C436.153 139.142 436.667 136.552 437.693 134.312C438.767 132.025 440.213 130.112 442.033 128.572C443.853 126.985 445.977 125.795 448.403 125.002C450.83 124.209 453.443 123.812 456.243 123.812C461.47 123.812 465.483 125.049 468.283 127.522C471.13 129.995 472.717 133.845 473.043 139.072C473.043 139.445 472.88 139.679 472.553 139.772L470.103 140.542L462.333 142.992L450.503 146.702L450.713 146.562ZM460.653 137.812C460.7 136.739 460.583 135.595 460.303 134.382C460.07 133.589 459.743 132.795 459.323 132.002C458.95 131.209 458.46 130.532 457.853 129.972C457.293 129.365 456.617 128.922 455.823 128.642C455.077 128.315 454.237 128.269 453.303 128.502L452.883 128.712C451.95 129.085 451.227 129.739 450.713 130.672C450.2 131.559 449.827 132.445 449.593 133.332C449.22 134.639 449.01 135.992 448.963 137.392C448.963 138.792 449.08 140.169 449.313 141.522L460.653 137.812ZM504.829 119.822L502.449 115.902C502.309 115.715 502.286 115.505 502.379 115.272C502.426 115.085 502.566 114.945 502.799 114.852L505.249 114.082L517.149 110.862C517.336 110.815 517.546 110.862 517.779 111.002C517.966 111.142 518.059 111.329 518.059 111.562V153.842L520.019 158.742C520.112 158.975 520.089 159.185 519.949 159.372C519.809 159.605 519.622 159.722 519.389 159.722H505.459C504.946 159.722 504.689 159.465 504.689 158.952V156.152C503.756 157.039 502.752 157.809 501.679 158.462C500.606 159.115 499.439 159.605 498.179 159.932C495.566 160.632 492.906 160.609 490.199 159.862C488.239 159.302 486.419 158.439 484.739 157.272C483.106 156.059 481.682 154.659 480.469 153.072C479.302 151.439 478.369 149.665 477.669 147.752C477.016 145.792 476.689 143.785 476.689 141.732C476.689 139.585 476.992 137.532 477.599 135.572C478.252 133.565 479.256 131.745 480.609 130.112C483.082 127.079 486.209 125.095 489.989 124.162C491.576 123.835 493.186 123.695 494.819 123.742C496.732 123.835 498.506 124.185 500.139 124.792C501.772 125.352 503.289 126.239 504.689 127.452L504.829 119.822ZM503.989 147.332C504.362 146.025 504.526 144.672 504.479 143.272C504.479 141.872 504.316 140.519 503.989 139.212C503.616 137.765 503.079 136.342 502.379 134.942C501.726 133.542 500.816 132.375 499.649 131.442C498.856 130.789 497.969 130.322 496.989 130.042C496.056 129.715 495.099 129.692 494.119 129.972C493.232 130.205 492.486 130.672 491.879 131.372C491.319 132.025 490.876 132.772 490.549 133.612C490.036 134.965 489.826 136.435 489.919 138.022C490.012 139.609 490.222 141.102 490.549 142.502C490.876 143.809 491.319 145.092 491.879 146.352C492.439 147.612 493.186 148.732 494.119 149.712C494.772 150.412 495.519 151.042 496.359 151.602C497.199 152.115 498.109 152.349 499.089 152.302C499.276 152.302 499.556 152.255 499.929 152.162C500.302 152.069 500.582 151.975 500.769 151.882C501.702 151.509 502.426 150.902 502.939 150.062C503.499 149.222 503.919 148.335 504.199 147.402L503.989 147.332ZM541.432 158.532C541.525 158.765 541.502 158.975 541.362 159.162C541.222 159.395 541.035 159.512 540.802 159.512H524.842C524.608 159.512 524.422 159.395 524.282 159.162C524.142 158.975 524.118 158.765 524.212 158.532L526.172 153.632V133.542L523.792 129.622C523.652 129.435 523.628 129.225 523.722 128.992C523.768 128.805 523.908 128.665 524.142 128.572L526.592 127.802L538.492 124.582C538.678 124.535 538.888 124.582 539.122 124.722C539.308 124.862 539.402 125.049 539.402 125.282V153.702L541.432 158.532ZM525.332 115.202C525.332 114.222 525.518 113.312 525.892 112.472C526.265 111.585 526.778 110.815 527.432 110.162C528.085 109.509 528.832 108.995 529.672 108.622C530.558 108.249 531.492 108.062 532.472 108.062H532.542H532.612C533.592 108.062 534.502 108.249 535.342 108.622C536.228 108.995 536.998 109.509 537.652 110.162C538.305 110.815 538.818 111.585 539.192 112.472C539.565 113.312 539.752 114.222 539.752 115.202C539.752 116.182 539.565 117.115 539.192 118.002C538.818 118.842 538.305 119.589 537.652 120.242C537.045 120.895 536.298 121.409 535.412 121.782C534.572 122.155 533.662 122.342 532.682 122.342H532.612H532.542C531.562 122.342 530.628 122.155 529.742 121.782C528.902 121.409 528.155 120.895 527.502 120.242C526.848 119.589 526.335 118.842 525.962 118.002C525.588 117.115 525.402 116.182 525.402 115.202H525.332ZM546.606 119.542L544.226 115.622C544.086 115.435 544.063 115.225 544.156 114.992C544.203 114.805 544.343 114.665 544.576 114.572L547.026 113.802L558.926 110.582C559.113 110.535 559.323 110.582 559.556 110.722C559.743 110.862 559.836 111.049 559.836 111.282V124.512H568.866C569.38 124.512 569.636 124.769 569.636 125.282V134.032C569.636 134.312 569.52 134.522 569.286 134.662C569.1 134.802 568.89 134.825 568.656 134.732L559.906 130.952V147.962C559.906 149.455 560.163 150.575 560.676 151.322C561.236 152.069 561.936 152.535 562.776 152.722C563.616 152.862 564.526 152.745 565.506 152.372C566.533 151.952 567.513 151.345 568.446 150.552C568.68 150.319 568.936 150.272 569.216 150.412C569.496 150.552 569.636 150.762 569.636 151.042V156.222C569.636 156.455 569.543 156.642 569.356 156.782C567.49 158.275 565.6 159.279 563.686 159.792C561.773 160.305 559.556 160.562 557.036 160.562C553.676 160.562 551.11 159.722 549.336 158.042C547.563 156.315 546.676 153.772 546.676 150.412L546.606 119.542ZM25.6297 212.472C26.0964 213.405 26.703 214.315 27.4497 215.202C28.243 216.042 29.013 216.812 29.7597 217.512H39.2097C39.723 217.512 39.9797 217.769 39.9797 218.282V227.032C39.9797 227.312 39.863 227.522 39.6297 227.662C39.443 227.802 39.233 227.825 38.9997 227.732L30.2497 223.952V246.702L32.2097 251.602C32.303 251.835 32.2797 252.045 32.1397 252.232C31.9997 252.465 31.813 252.582 31.5797 252.582H15.6197C15.3864 252.582 15.1997 252.465 15.0597 252.232C14.9197 252.045 14.8964 251.835 14.9897 251.602L16.9497 246.702V213.872C16.9497 211.912 17.323 210.255 18.0697 208.902C18.8164 207.502 19.7964 206.382 21.0097 205.542C22.2697 204.655 23.693 204.049 25.2797 203.722C26.913 203.349 28.593 203.185 30.3197 203.232C31.8597 203.325 33.493 203.605 35.2197 204.072C36.993 204.492 38.4864 205.192 39.6997 206.172C39.8864 206.312 39.9797 206.499 39.9797 206.732V215.272C39.9797 215.552 39.8397 215.762 39.5597 215.902C39.2797 216.042 39.023 215.995 38.7897 215.762C37.5297 214.642 36.1297 213.569 34.5897 212.542C33.0497 211.469 31.463 210.652 29.8297 210.092C29.5964 209.999 29.2697 209.905 28.8497 209.812C28.4297 209.672 27.9864 209.602 27.5197 209.602C27.0997 209.555 26.6797 209.555 26.2597 209.602C25.8864 209.649 25.6064 209.812 25.4197 210.092C25.1864 210.419 25.1397 210.839 25.2797 211.352C25.4197 211.819 25.5597 212.215 25.6997 212.542L25.6297 212.472ZM62.8352 253.422C60.0352 253.422 57.3986 253.025 54.9252 252.232C52.4986 251.392 50.3519 250.202 48.4852 248.662C46.6652 247.075 45.2186 245.139 44.1452 242.852C43.1186 240.565 42.6052 237.952 42.6052 235.012C42.6052 232.072 43.1419 229.482 44.2152 227.242C45.2886 224.955 46.7352 223.042 48.5552 221.502C50.3752 219.915 52.4986 218.725 54.9252 217.932C57.3986 217.139 60.0352 216.742 62.8352 216.742C65.6352 216.742 68.2719 217.139 70.7452 217.932C73.2186 218.725 75.3652 219.915 77.1852 221.502C79.0052 223.042 80.4519 224.955 81.5252 227.242C82.5986 229.529 83.1352 232.142 83.1352 235.082C83.1352 238.022 82.5986 240.635 81.5252 242.922C80.4519 245.209 79.0052 247.145 77.1852 248.732C75.3652 250.272 73.2186 251.439 70.7452 252.232C68.2719 253.025 65.6352 253.422 62.8352 253.422ZM65.2852 224.372C64.6319 223.579 63.7919 222.879 62.7652 222.272C61.7852 221.619 60.7586 221.409 59.6852 221.642C58.6119 221.875 57.7719 222.505 57.1652 223.532C56.5586 224.559 56.1386 225.562 55.9052 226.542C55.4852 228.175 55.3219 229.879 55.4152 231.652C55.5086 233.379 55.7419 235.059 56.1152 236.692C56.4886 238.325 57.0486 239.959 57.7952 241.592C58.5419 243.179 59.4519 244.602 60.5252 245.862C61.1786 246.655 61.9952 247.379 62.9752 248.032C64.0019 248.639 65.0519 248.825 66.1252 248.592C67.1986 248.359 68.0386 247.729 68.6452 246.702C69.2519 245.675 69.6719 244.672 69.9052 243.692C70.3252 242.059 70.4886 240.379 70.3952 238.652C70.3019 236.879 70.0686 235.175 69.6952 233.542C69.3219 231.909 68.7619 230.299 68.0152 228.712C67.2686 227.079 66.3586 225.632 65.2852 224.372ZM89.147 246.632V226.542L86.767 222.622C86.627 222.435 86.6037 222.225 86.697 221.992C86.7437 221.805 86.8837 221.665 87.117 221.572L89.567 220.802L101.467 217.582C101.654 217.535 101.864 217.582 102.097 217.722C102.284 217.862 102.377 218.049 102.377 218.282V220.802C103.17 220.055 104.057 219.402 105.037 218.842C106.017 218.282 106.974 217.815 107.907 217.442C108.98 217.069 110.077 216.835 111.197 216.742C112.317 216.602 113.414 216.695 114.487 217.022C114.814 217.115 114.977 217.349 114.977 217.722V228.292C114.977 228.619 114.837 228.852 114.557 228.992C114.277 229.132 114.02 229.085 113.787 228.852C112.9 227.919 111.85 227.265 110.637 226.892C109.424 226.519 108.187 226.449 106.927 226.682C106.087 226.822 105.2 227.172 104.267 227.732C103.334 228.245 102.75 228.969 102.517 229.902C102.47 230.042 102.447 230.252 102.447 230.532V246.702L104.407 251.602C104.5 251.835 104.477 252.045 104.337 252.232C104.197 252.465 104.01 252.582 103.777 252.582H87.817C87.5837 252.582 87.397 252.465 87.257 252.232C87.117 252.045 87.0937 251.835 87.187 251.602L89.147 246.632ZM137.218 204.772C137.078 204.539 137.078 204.305 137.218 204.072C137.358 203.839 137.568 203.722 137.848 203.722H152.618H157.028C157.308 203.722 157.518 203.839 157.658 204.072C157.798 204.259 157.821 204.469 157.728 204.702L156.398 207.992L156.188 208.482L165.568 222.692L172.008 204.142C172.101 203.815 172.311 203.652 172.638 203.652H186.498C186.778 203.652 186.988 203.769 187.128 204.002C187.268 204.235 187.268 204.469 187.128 204.702L168.928 231.862V246.632L170.888 251.532C170.981 251.765 170.958 251.975 170.818 252.162C170.678 252.395 170.468 252.512 170.188 252.512H154.228C153.948 252.512 153.738 252.395 153.598 252.162C153.458 251.975 153.435 251.765 153.528 251.532L155.488 246.632V231.582L137.218 204.772ZM202.63 253.422C199.83 253.422 197.193 253.025 194.72 252.232C192.293 251.392 190.147 250.202 188.28 248.662C186.46 247.075 185.013 245.139 183.94 242.852C182.913 240.565 182.4 237.952 182.4 235.012C182.4 232.072 182.937 229.482 184.01 227.242C185.083 224.955 186.53 223.042 188.35 221.502C190.17 219.915 192.293 218.725 194.72 217.932C197.193 217.139 199.83 216.742 202.63 216.742C205.43 216.742 208.067 217.139 210.54 217.932C213.013 218.725 215.16 219.915 216.98 221.502C218.8 223.042 220.247 224.955 221.32 227.242C222.393 229.529 222.93 232.142 222.93 235.082C222.93 238.022 222.393 240.635 221.32 242.922C220.247 245.209 218.8 247.145 216.98 248.732C215.16 250.272 213.013 251.439 210.54 252.232C208.067 253.025 205.43 253.422 202.63 253.422ZM205.08 224.372C204.427 223.579 203.587 222.879 202.56 222.272C201.58 221.619 200.553 221.409 199.48 221.642C198.407 221.875 197.567 222.505 196.96 223.532C196.353 224.559 195.933 225.562 195.7 226.542C195.28 228.175 195.117 229.879 195.21 231.652C195.303 233.379 195.537 235.059 195.91 236.692C196.283 238.325 196.843 239.959 197.59 241.592C198.337 243.179 199.247 244.602 200.32 245.862C200.973 246.655 201.79 247.379 202.77 248.032C203.797 248.639 204.847 248.825 205.92 248.592C206.993 248.359 207.833 247.729 208.44 246.702C209.047 245.675 209.467 244.672 209.7 243.692C210.12 242.059 210.283 240.379 210.19 238.652C210.097 236.879 209.863 235.175 209.49 233.542C209.117 231.909 208.557 230.299 207.81 228.712C207.063 227.079 206.153 225.632 205.08 224.372ZM241.702 242.012C241.702 242.432 241.748 242.922 241.842 243.482C241.982 244.042 242.262 244.439 242.682 244.672C242.962 244.812 243.312 244.882 243.732 244.882C244.152 244.835 244.572 244.742 244.992 244.602C245.412 244.462 245.808 244.299 246.182 244.112C246.602 243.879 246.952 243.692 247.232 243.552C247.792 243.225 248.352 242.875 248.912 242.502C249.518 242.129 250.078 241.732 250.592 241.312V226.752L248.212 222.832C248.072 222.645 248.048 222.435 248.142 222.202C248.188 222.015 248.328 221.875 248.562 221.782L251.012 221.012L262.912 217.792C263.098 217.745 263.308 217.792 263.542 217.932C263.728 218.072 263.822 218.259 263.822 218.492V246.912L265.782 251.812C265.875 252.045 265.852 252.255 265.712 252.442C265.572 252.675 265.385 252.792 265.152 252.792H251.082C250.568 252.792 250.312 252.535 250.312 252.022V248.312C249.518 248.965 248.702 249.595 247.862 250.202C247.022 250.762 246.135 251.299 245.202 251.812C244.128 252.419 242.985 252.839 241.772 253.072C240.605 253.305 239.415 253.422 238.202 253.422C235.122 253.422 232.695 252.535 230.922 250.762C229.148 248.942 228.262 246.469 228.262 243.342V226.542L225.882 222.622C225.742 222.435 225.718 222.225 225.812 221.992C225.858 221.805 225.998 221.665 226.232 221.572L228.682 220.802L240.582 217.582C240.768 217.535 240.978 217.582 241.212 217.722C241.398 217.862 241.492 218.049 241.492 218.282V229.272V240.122L241.702 242.012ZM272.76 246.632V226.542L270.38 222.622C270.24 222.435 270.217 222.225 270.31 221.992C270.357 221.805 270.497 221.665 270.73 221.572L273.18 220.802L285.08 217.582C285.267 217.535 285.477 217.582 285.71 217.722C285.897 217.862 285.99 218.049 285.99 218.282V220.802C286.784 220.055 287.67 219.402 288.65 218.842C289.63 218.282 290.587 217.815 291.52 217.442C292.594 217.069 293.69 216.835 294.81 216.742C295.93 216.602 297.027 216.695 298.1 217.022C298.427 217.115 298.59 217.349 298.59 217.722V228.292C298.59 228.619 298.45 228.852 298.17 228.992C297.89 229.132 297.634 229.085 297.4 228.852C296.514 227.919 295.464 227.265 294.25 226.892C293.037 226.519 291.8 226.449 290.54 226.682C289.7 226.822 288.814 227.172 287.88 227.732C286.947 228.245 286.364 228.969 286.13 229.902C286.084 230.042 286.06 230.252 286.06 230.532V246.702L288.02 251.602C288.114 251.835 288.09 252.045 287.95 252.232C287.81 252.465 287.624 252.582 287.39 252.582H271.43C271.197 252.582 271.01 252.465 270.87 252.232C270.73 252.045 270.707 251.835 270.8 251.602L272.76 246.632ZM320.831 204.562C320.738 204.329 320.761 204.119 320.901 203.932C321.041 203.699 321.251 203.582 321.531 203.582H352.261C354.081 203.582 355.785 203.932 357.371 204.632C359.005 205.332 360.405 206.289 361.571 207.502C362.785 208.669 363.741 210.069 364.441 211.702C365.141 213.289 365.491 214.992 365.491 216.812C365.491 219.005 365.001 221.059 364.021 222.972C363.041 224.839 361.688 226.379 359.961 227.592C362.061 228.759 363.718 230.369 364.931 232.422C366.145 234.475 366.751 236.715 366.751 239.142C366.751 240.962 366.401 242.689 365.701 244.322C365.001 245.955 364.045 247.379 362.831 248.592C361.618 249.805 360.195 250.762 358.561 251.462C356.928 252.162 355.201 252.512 353.381 252.512H321.461C321.181 252.512 320.971 252.395 320.831 252.162C320.691 251.975 320.668 251.765 320.761 251.532L322.721 246.632V209.532L320.831 204.562ZM345.891 223.952C347.618 223.952 349.088 223.345 350.301 222.132C351.515 220.919 352.121 219.449 352.121 217.722C352.121 215.995 351.515 214.525 350.301 213.312C349.088 212.099 347.618 211.492 345.891 211.492H336.161V224.022L345.891 223.952ZM336.161 244.392H347.081C348.808 244.392 350.278 243.785 351.491 242.572C352.705 241.359 353.311 239.889 353.311 238.162C353.311 236.435 352.705 234.965 351.491 233.752C350.278 232.539 348.808 231.932 347.081 231.932H336.161V244.392ZM386.282 242.012C386.282 242.432 386.328 242.922 386.422 243.482C386.562 244.042 386.842 244.439 387.262 244.672C387.542 244.812 387.892 244.882 388.312 244.882C388.732 244.835 389.152 244.742 389.572 244.602C389.992 244.462 390.388 244.299 390.762 244.112C391.182 243.879 391.532 243.692 391.812 243.552C392.372 243.225 392.932 242.875 393.492 242.502C394.098 242.129 394.658 241.732 395.172 241.312V226.752L392.792 222.832C392.652 222.645 392.628 222.435 392.722 222.202C392.768 222.015 392.908 221.875 393.142 221.782L395.592 221.012L407.492 217.792C407.678 217.745 407.888 217.792 408.122 217.932C408.308 218.072 408.402 218.259 408.402 218.492V246.912L410.362 251.812C410.455 252.045 410.432 252.255 410.292 252.442C410.152 252.675 409.965 252.792 409.732 252.792H395.662C395.148 252.792 394.892 252.535 394.892 252.022V248.312C394.098 248.965 393.282 249.595 392.442 250.202C391.602 250.762 390.715 251.299 389.782 251.812C388.708 252.419 387.565 252.839 386.352 253.072C385.185 253.305 383.995 253.422 382.782 253.422C379.702 253.422 377.275 252.535 375.502 250.762C373.728 248.942 372.842 246.469 372.842 243.342V226.542L370.462 222.622C370.322 222.435 370.298 222.225 370.392 221.992C370.438 221.805 370.578 221.665 370.812 221.572L373.262 220.802L385.162 217.582C385.348 217.535 385.558 217.582 385.792 217.722C385.978 217.862 386.072 218.049 386.072 218.282V229.272V240.122L386.282 242.012ZM444.266 220.662C444.313 220.895 444.266 221.082 444.126 221.222L439.086 228.362C438.946 228.549 438.76 228.642 438.526 228.642C438.293 228.642 438.106 228.572 437.966 228.432C437.406 227.872 436.73 227.242 435.936 226.542C435.19 225.795 434.373 225.095 433.486 224.442C432.646 223.742 431.783 223.159 430.896 222.692C430.01 222.225 429.146 221.992 428.306 221.992C427.466 221.992 426.86 222.155 426.486 222.482C426.113 222.762 425.926 223.135 425.926 223.602C425.926 224.069 426.09 224.559 426.416 225.072C426.743 225.539 427.186 225.959 427.746 226.332C428.353 226.705 428.983 227.055 429.636 227.382C430.336 227.709 431.013 228.012 431.666 228.292C432.46 228.665 433.253 229.039 434.046 229.412C434.84 229.739 435.633 230.089 436.426 230.462C437.546 231.022 438.62 231.652 439.646 232.352C440.72 233.005 441.676 233.775 442.516 234.662C443.356 235.549 444.01 236.529 444.476 237.602C444.99 238.675 445.246 239.912 445.246 241.312C445.246 243.645 444.733 245.605 443.706 247.192C442.68 248.732 441.35 249.969 439.716 250.902C438.083 251.835 436.24 252.489 434.186 252.862C432.18 253.282 430.196 253.492 428.236 253.492C425.623 253.492 423.056 253.119 420.536 252.372C418.063 251.579 415.706 250.505 413.466 249.152C413.28 248.965 413.163 248.802 413.116 248.662C413.023 248.475 413.07 248.289 413.256 248.102L418.786 240.332C418.926 240.145 419.113 240.052 419.346 240.052C419.58 240.052 419.766 240.122 419.906 240.262C421.166 241.522 422.473 242.805 423.826 244.112C425.226 245.372 426.72 246.422 428.306 247.262C429.053 247.682 429.94 247.962 430.966 248.102C431.34 248.149 431.783 248.172 432.296 248.172C432.81 248.172 433.276 248.125 433.696 248.032C434.163 247.892 434.56 247.682 434.886 247.402C435.213 247.075 435.376 246.632 435.376 246.072C435.376 245.745 435.26 245.419 435.026 245.092C434.793 244.765 434.513 244.462 434.186 244.182C433.86 243.902 433.51 243.669 433.136 243.482C432.81 243.249 432.53 243.062 432.296 242.922C431.736 242.595 431.153 242.292 430.546 242.012C429.986 241.732 429.403 241.452 428.796 241.172L424.806 239.282C424.2 238.955 423.593 238.652 422.986 238.372C422.426 238.045 421.866 237.695 421.306 237.322C420.466 236.809 419.65 236.225 418.856 235.572C418.063 234.919 417.363 234.195 416.756 233.402C416.01 232.375 415.543 231.325 415.356 230.252C415.123 228.992 415.146 227.732 415.426 226.472C415.753 225.165 416.243 223.975 416.896 222.902C417.69 221.595 418.67 220.499 419.836 219.612C421.376 218.445 423.103 217.675 425.016 217.302C426.976 216.929 428.89 216.742 430.756 216.742C433.183 216.742 435.4 216.999 437.406 217.512C439.413 217.979 441.49 218.795 443.636 219.962C443.823 220.055 443.963 220.195 444.056 220.382L444.266 220.662ZM465.553 251.532C465.646 251.765 465.623 251.975 465.483 252.162C465.343 252.395 465.156 252.512 464.923 252.512H448.963C448.73 252.512 448.543 252.395 448.403 252.162C448.263 251.975 448.24 251.765 448.333 251.532L450.293 246.632V226.542L447.913 222.622C447.773 222.435 447.75 222.225 447.843 221.992C447.89 221.805 448.03 221.665 448.263 221.572L450.713 220.802L462.613 217.582C462.8 217.535 463.01 217.582 463.243 217.722C463.43 217.862 463.523 218.049 463.523 218.282V246.702L465.553 251.532ZM449.453 208.202C449.453 207.222 449.64 206.312 450.013 205.472C450.386 204.585 450.9 203.815 451.553 203.162C452.206 202.509 452.953 201.995 453.793 201.622C454.68 201.249 455.613 201.062 456.593 201.062H456.663H456.733C457.713 201.062 458.623 201.249 459.463 201.622C460.35 201.995 461.12 202.509 461.773 203.162C462.426 203.815 462.94 204.585 463.313 205.472C463.686 206.312 463.873 207.222 463.873 208.202C463.873 209.182 463.686 210.115 463.313 211.002C462.94 211.842 462.426 212.589 461.773 213.242C461.166 213.895 460.42 214.409 459.533 214.782C458.693 215.155 457.783 215.342 456.803 215.342H456.733H456.663C455.683 215.342 454.75 215.155 453.863 214.782C453.023 214.409 452.276 213.895 451.623 213.242C450.97 212.589 450.456 211.842 450.083 211.002C449.71 210.115 449.523 209.182 449.523 208.202H449.453ZM493.738 246.562V228.222C493.738 227.802 493.668 227.312 493.528 226.752C493.434 226.192 493.178 225.795 492.758 225.562C492.478 225.422 492.128 225.375 491.708 225.422C491.288 225.422 490.868 225.492 490.448 225.632C490.028 225.772 489.608 225.959 489.188 226.192C488.814 226.379 488.488 226.542 488.208 226.682C487.041 227.335 485.968 228.082 484.988 228.922V246.632L486.948 251.532C487.041 251.765 487.018 251.975 486.878 252.162C486.738 252.395 486.551 252.512 486.318 252.512H470.358C470.124 252.512 469.938 252.395 469.798 252.162C469.658 251.975 469.634 251.765 469.728 251.532L471.548 246.982V226.332L469.308 222.622C469.168 222.435 469.144 222.225 469.238 221.992C469.284 221.805 469.424 221.665 469.658 221.572L484.078 217.512C484.264 217.465 484.474 217.512 484.708 217.652C484.894 217.792 484.988 217.979 484.988 218.212V221.922C485.781 221.269 486.598 220.662 487.438 220.102C488.278 219.495 489.164 218.935 490.098 218.422C491.218 217.769 492.384 217.325 493.598 217.092C494.811 216.859 496.048 216.742 497.308 216.742C500.388 216.789 502.791 217.699 504.518 219.472C506.244 221.245 507.108 223.672 507.108 226.752V246.702L509.068 251.602C509.161 251.835 509.138 252.045 508.998 252.232C508.858 252.465 508.671 252.582 508.438 252.582H492.478C492.244 252.582 492.058 252.465 491.918 252.232C491.778 252.045 491.754 251.835 491.848 251.602L493.738 246.562ZM526.456 239.562V239.772C527.202 242.059 528.602 243.879 530.656 245.232C532.709 246.539 534.879 247.355 537.166 247.682C537.912 247.822 538.729 247.892 539.616 247.892C540.969 247.892 542.299 247.729 543.606 247.402C544.959 247.075 546.242 246.585 547.456 245.932C547.782 245.745 548.062 245.815 548.296 246.142C548.529 246.469 548.529 246.772 548.296 247.052C546.289 249.432 543.839 251.112 540.946 252.092C538.099 253.025 535.159 253.492 532.126 253.492C529.326 253.492 526.689 253.095 524.216 252.302C521.789 251.462 519.642 250.272 517.776 248.732C515.956 247.145 514.509 245.209 513.436 242.922C512.409 240.635 511.896 238.022 511.896 235.082C511.896 232.142 512.409 229.552 513.436 227.312C514.509 225.025 515.956 223.112 517.776 221.572C519.596 219.985 521.719 218.795 524.146 218.002C526.572 217.209 529.186 216.812 531.986 216.812C537.212 216.812 541.226 218.049 544.026 220.522C546.872 222.995 548.459 226.845 548.786 232.072C548.786 232.445 548.622 232.679 548.296 232.772L545.846 233.542L538.076 235.992L526.246 239.702L526.456 239.562ZM536.396 230.812C536.442 229.739 536.326 228.595 536.046 227.382C535.812 226.589 535.486 225.795 535.066 225.002C534.692 224.209 534.202 223.532 533.596 222.972C533.036 222.365 532.359 221.922 531.566 221.642C530.819 221.315 529.979 221.269 529.046 221.502L528.626 221.712C527.692 222.085 526.969 222.739 526.456 223.672C525.942 224.559 525.569 225.445 525.336 226.332C524.962 227.639 524.752 228.992 524.706 230.392C524.706 231.792 524.822 233.169 525.056 234.522L536.396 230.812ZM581.669 220.662C581.715 220.895 581.669 221.082 581.529 221.222L576.489 228.362C576.349 228.549 576.162 228.642 575.929 228.642C575.695 228.642 575.509 228.572 575.369 228.432C574.809 227.872 574.132 227.242 573.339 226.542C572.592 225.795 571.775 225.095 570.889 224.442C570.049 223.742 569.185 223.159 568.299 222.692C567.412 222.225 566.549 221.992 565.709 221.992C564.869 221.992 564.262 222.155 563.889 222.482C563.515 222.762 563.329 223.135 563.329 223.602C563.329 224.069 563.492 224.559 563.819 225.072C564.145 225.539 564.589 225.959 565.149 226.332C565.755 226.705 566.385 227.055 567.039 227.382C567.739 227.709 568.415 228.012 569.069 228.292C569.862 228.665 570.655 229.039 571.449 229.412C572.242 229.739 573.035 230.089 573.829 230.462C574.949 231.022 576.022 231.652 577.049 232.352C578.122 233.005 579.079 233.775 579.919 234.662C580.759 235.549 581.412 236.529 581.879 237.602C582.392 238.675 582.649 239.912 582.649 241.312C582.649 243.645 582.135 245.605 581.109 247.192C580.082 248.732 578.752 249.969 577.119 250.902C575.485 251.835 573.642 252.489 571.589 252.862C569.582 253.282 567.599 253.492 565.639 253.492C563.025 253.492 560.459 253.119 557.939 252.372C555.465 251.579 553.109 250.505 550.869 249.152C550.682 248.965 550.565 248.802 550.519 248.662C550.425 248.475 550.472 248.289 550.659 248.102L556.189 240.332C556.329 240.145 556.515 240.052 556.749 240.052C556.982 240.052 557.169 240.122 557.309 240.262C558.569 241.522 559.875 242.805 561.229 244.112C562.629 245.372 564.122 246.422 565.709 247.262C566.455 247.682 567.342 247.962 568.369 248.102C568.742 248.149 569.185 248.172 569.699 248.172C570.212 248.172 570.679 248.125 571.099 248.032C571.565 247.892 571.962 247.682 572.289 247.402C572.615 247.075 572.779 246.632 572.779 246.072C572.779 245.745 572.662 245.419 572.429 245.092C572.195 244.765 571.915 244.462 571.589 244.182C571.262 243.902 570.912 243.669 570.539 243.482C570.212 243.249 569.932 243.062 569.699 242.922C569.139 242.595 568.555 242.292 567.949 242.012C567.389 241.732 566.805 241.452 566.199 241.172L562.209 239.282C561.602 238.955 560.995 238.652 560.389 238.372C559.829 238.045 559.269 237.695 558.709 237.322C557.869 236.809 557.052 236.225 556.259 235.572C555.465 234.919 554.765 234.195 554.159 233.402C553.412 232.375 552.945 231.325 552.759 230.252C552.525 228.992 552.549 227.732 552.829 226.472C553.155 225.165 553.645 223.975 554.299 222.902C555.092 221.595 556.072 220.499 557.239 219.612C558.779 218.445 560.505 217.675 562.419 217.302C564.379 216.929 566.292 216.742 568.159 216.742C570.585 216.742 572.802 216.999 574.809 217.512C576.815 217.979 578.892 218.795 581.039 219.962C581.225 220.055 581.365 220.195 581.459 220.382L581.669 220.662ZM615.507 220.662C615.553 220.895 615.507 221.082 615.367 221.222L610.327 228.362C610.187 228.549 610 228.642 609.767 228.642C609.533 228.642 609.347 228.572 609.207 228.432C608.647 227.872 607.97 227.242 607.177 226.542C606.43 225.795 605.613 225.095 604.727 224.442C603.887 223.742 603.023 223.159 602.137 222.692C601.25 222.225 600.387 221.992 599.547 221.992C598.707 221.992 598.1 222.155 597.727 222.482C597.353 222.762 597.167 223.135 597.167 223.602C597.167 224.069 597.33 224.559 597.657 225.072C597.983 225.539 598.427 225.959 598.987 226.332C599.593 226.705 600.223 227.055 600.877 227.382C601.577 227.709 602.253 228.012 602.907 228.292C603.7 228.665 604.493 229.039 605.287 229.412C606.08 229.739 606.873 230.089 607.667 230.462C608.787 231.022 609.86 231.652 610.887 232.352C611.96 233.005 612.917 233.775 613.757 234.662C614.597 235.549 615.25 236.529 615.717 237.602C616.23 238.675 616.487 239.912 616.487 241.312C616.487 243.645 615.973 245.605 614.947 247.192C613.92 248.732 612.59 249.969 610.957 250.902C609.323 251.835 607.48 252.489 605.427 252.862C603.42 253.282 601.437 253.492 599.477 253.492C596.863 253.492 594.297 253.119 591.777 252.372C589.303 251.579 586.947 250.505 584.707 249.152C584.52 248.965 584.403 248.802 584.357 248.662C584.263 248.475 584.31 248.289 584.497 248.102L590.027 240.332C590.167 240.145 590.353 240.052 590.587 240.052C590.82 240.052 591.007 240.122 591.147 240.262C592.407 241.522 593.713 242.805 595.067 244.112C596.467 245.372 597.96 246.422 599.547 247.262C600.293 247.682 601.18 247.962 602.207 248.102C602.58 248.149 603.023 248.172 603.537 248.172C604.05 248.172 604.517 248.125 604.937 248.032C605.403 247.892 605.8 247.682 606.127 247.402C606.453 247.075 606.617 246.632 606.617 246.072C606.617 245.745 606.5 245.419 606.267 245.092C606.033 244.765 605.753 244.462 605.427 244.182C605.1 243.902 604.75 243.669 604.377 243.482C604.05 243.249 603.77 243.062 603.537 242.922C602.977 242.595 602.393 242.292 601.787 242.012C601.227 241.732 600.643 241.452 600.037 241.172L596.047 239.282C595.44 238.955 594.833 238.652 594.227 238.372C593.667 238.045 593.107 237.695 592.547 237.322C591.707 236.809 590.89 236.225 590.097 235.572C589.303 234.919 588.603 234.195 587.997 233.402C587.25 232.375 586.783 231.325 586.597 230.252C586.363 228.992 586.387 227.732 586.667 226.472C586.993 225.165 587.483 223.975 588.137 222.902C588.93 221.595 589.91 220.499 591.077 219.612C592.617 218.445 594.343 217.675 596.257 217.302C598.217 216.929 600.13 216.742 601.997 216.742C604.423 216.742 606.64 216.999 608.647 217.512C610.653 217.979 612.73 218.795 614.877 219.962C615.063 220.055 615.203 220.195 615.297 220.382L615.507 220.662Z" fill="black"/>
</g>
</g>
<defs>
<filter id="filter0_d_11489_28457" x="-0.289062" y="17.3721" width="631.777" height="266.12" filterUnits="userSpaceOnUse" color-interpolation-filters="sRGB">
<feFlood flood-opacity="0" result="BackgroundImageFix"/>
<feColorMatrix in="SourceAlpha" type="matrix" values="0 0 0 0 0 0 0 0 0 0 0 0 0 0 0 0 0 0 127 0" result="hardAlpha"/>
<feOffset dy="15"/>
<feGaussianBlur stdDeviation="7.5"/>
<feComposite in2="hardAlpha" operator="out"/>
<feColorMatrix type="matrix" values="0 0 0 0 0 0 0 0 0 0 0 0 0 0 0 0 0 0 0.06 0"/>
<feBlend mode="normal" in2="BackgroundImageFix" result="effect1_dropShadow_11489_28457"/>
<feBlend mode="normal" in="SourceGraphic" in2="effect1_dropShadow_11489_28457" result="shape"/>
</filter>
<clipPath id="clip0_11489_28457">
<rect width="632.004" height="279" fill="white" transform="translate(0.46875 0.582031)"/>
</clipPath>
</defs>
</svg>
