<svg width="128" height="32" viewBox="0 0 128 32" fill="none" xmlns="http://www.w3.org/2000/svg">
<path d="M25.006 31.0978C24.3155 32.3007 22.5699 32.3007 21.8794 31.0978L12.3533 14.5023C11.669 13.3104 12.5354 11.8286 13.9166 11.8286H32.9689C34.3501 11.8286 35.2164 13.3104 34.5321 14.5023L25.006 31.0978Z" fill="black"/>
<g filter="url(#filter0_f_20046_183562)">
<path d="M25.0618 13.0945H13.5439V15.2401H25.0618V13.0945Z" fill="white"/>
</g>
<path d="M17.8738 2.71521C18.4279 1.7616 19.8133 1.7616 20.3675 2.7152L26.1341 12.6387C26.6883 13.5924 25.9956 14.7843 24.8872 14.7843H13.354C12.2457 14.7843 11.553 13.5924 12.1071 12.6387L17.8738 2.71521Z" fill="black"/>
<path d="M53.8085 25.7869V18.5572C53.8085 17.9167 53.7032 17.3883 53.4927 16.9719C53.2822 16.5556 52.9663 16.2433 52.5452 16.0352C52.124 15.811 51.5895 15.6989 50.9417 15.6989C50.229 15.6989 49.573 15.8671 48.9738 16.2033C48.3907 16.5236 47.9129 16.9639 47.5403 17.5244C47.1678 18.0688 46.9411 18.6853 46.86 19.3738L46.8358 18.0047C46.9168 17.3803 47.0868 16.7957 47.346 16.2514C47.6213 15.707 47.9615 15.2345 48.3664 14.8342C48.7875 14.434 49.2734 14.1217 49.8241 13.8975C50.3748 13.6733 50.9741 13.5612 51.622 13.5612C52.3022 13.5612 52.9178 13.6573 53.4684 13.8495C54.0191 14.0256 54.4888 14.3058 54.8775 14.6901C55.2824 15.0585 55.5903 15.5148 55.8008 16.0592C56.0113 16.5876 56.1166 17.1961 56.1166 17.8847V25.7869H53.8085ZM44.6978 25.7869V8.99762H47.0058V25.7869H44.6978ZM64.1924 26.0271C63.1557 26.0271 62.2082 25.7629 61.3499 25.2345C60.4914 24.706 59.8111 23.9774 59.309 23.0487C58.8069 22.1039 58.5559 21.0231 58.5559 19.8062C58.5559 18.5892 58.8069 17.5163 59.309 16.5876C59.8273 15.6428 60.5318 14.9063 61.4227 14.3779C62.3135 13.8335 63.3096 13.5612 64.4111 13.5612C65.6259 13.5612 66.5652 13.8414 67.2294 14.4019C67.9096 14.9624 68.3793 15.7149 68.6385 16.6597C68.9138 17.6045 69.0515 18.6533 69.0515 19.8062C69.0515 20.4466 68.9705 21.1272 68.8086 21.8478C68.6465 22.5684 68.3874 23.2489 68.0311 23.8894C67.6747 24.5299 67.1808 25.0504 66.5491 25.4506C65.9174 25.8349 65.1318 26.0271 64.1924 26.0271ZM64.8484 24.0335C65.7068 24.0335 66.4276 23.8494 67.0107 23.4811C67.6099 23.0968 68.0554 22.5843 68.3469 21.9439C68.6385 21.3034 68.7843 20.5908 68.7843 19.8062C68.7843 18.9575 68.6304 18.2129 68.3227 17.5724C68.0311 16.9319 67.5856 16.4355 66.9864 16.0832C66.4033 15.731 65.6906 15.5548 64.8484 15.5548C63.585 15.5548 62.6051 15.9551 61.9086 16.7558C61.2284 17.5564 60.8882 18.5732 60.8882 19.8062C60.8882 20.6388 61.0583 21.3755 61.3984 22.0159C61.7386 22.6404 62.2002 23.1368 62.7833 23.5051C63.3825 23.8573 64.0709 24.0335 64.8484 24.0335ZM68.7843 13.8014H71.1166V25.7869H68.9786C68.9786 25.7869 68.9624 25.6428 68.93 25.3546C68.8976 25.0504 68.8652 24.6901 68.8329 24.2737C68.8004 23.8573 68.7843 23.4891 68.7843 23.1688V13.8014ZM74.1587 13.8014H76.491V25.7869H74.1587V13.8014ZM80.597 15.843C79.7548 15.843 79.0339 16.0352 78.4347 16.4195C77.8516 16.8038 77.3818 17.2761 77.0255 17.8366C76.6854 18.3971 76.4586 18.9334 76.3452 19.4459L76.321 18.0768C76.3371 17.9167 76.3777 17.6685 76.4424 17.3322C76.5235 16.98 76.6611 16.5876 76.8555 16.1553C77.0498 15.7229 77.3089 15.3146 77.6329 14.9303C77.9569 14.53 78.3618 14.2017 78.8477 13.9455C79.3336 13.6894 79.9167 13.5612 80.597 13.5612V15.843ZM87.5834 23.9134C86.5792 23.9134 85.656 23.7132 84.8137 23.3129C83.9715 22.9127 83.2993 22.3282 82.7971 21.5596C82.3112 20.7909 82.0683 19.8623 82.0683 18.7734C82.0683 17.7005 82.3112 16.7798 82.7971 16.0112C83.2831 15.2266 83.939 14.6261 84.7651 14.2097C85.6074 13.7774 86.5468 13.5612 87.5834 13.5612C87.8912 13.5612 88.1827 13.5852 88.458 13.6333C88.7334 13.6654 89.0006 13.7213 89.2597 13.8014H94.5561V15.9631C93.8273 15.9631 93.0904 15.843 92.3453 15.6028C91.6164 15.3627 90.9767 15.1065 90.4259 14.8342L90.353 14.7141C90.9038 15.0024 91.3816 15.3546 91.7865 15.771C92.1915 16.1713 92.4992 16.6276 92.7097 17.1401C92.9365 17.6364 93.0498 18.1969 93.0498 18.8214C93.0498 19.8782 92.8069 20.7909 92.321 21.5596C91.8513 22.3282 91.1954 22.9127 90.353 23.3129C89.527 23.7132 88.6038 23.9134 87.5834 23.9134ZM91.3006 30.6387V30.0863C91.3006 29.2697 91.0739 28.6852 90.6203 28.3329C90.1668 27.9807 89.5027 27.8045 88.6281 27.8045H85.7855C85.1862 27.8045 84.676 27.7565 84.2549 27.6604C83.8338 27.5643 83.4856 27.4202 83.2102 27.228C82.9349 27.0519 82.7324 26.8278 82.6028 26.5555C82.4733 26.2993 82.4084 26.0111 82.4084 25.6908C82.4084 25.0663 82.6028 24.594 82.9915 24.2737C83.3802 23.9534 83.8743 23.7533 84.4735 23.6732C85.0729 23.5772 85.6803 23.5691 86.2957 23.6492L87.5834 23.9134C86.6601 23.9615 85.9556 24.0495 85.4696 24.1776C84.9837 24.3058 84.7408 24.5779 84.7408 24.9943C84.7408 25.2345 84.838 25.4266 85.0323 25.5707C85.2267 25.7148 85.5021 25.7869 85.8584 25.7869H88.8224C89.7457 25.7869 90.5637 25.899 91.2763 26.1232C92.0051 26.3634 92.5721 26.7557 92.9769 27.3001C93.3981 27.8606 93.6086 28.6211 93.6086 29.5819V30.6387H91.3006ZM87.5834 21.9679C88.1664 21.9679 88.6929 21.8478 89.1626 21.6076C89.6485 21.3514 90.0372 20.9911 90.3287 20.5267C90.6203 20.0464 90.7661 19.4699 90.7661 18.7974C90.7661 18.1089 90.6203 17.5244 90.3287 17.044C90.0535 16.5476 89.6728 16.1793 89.1868 15.9391C88.7009 15.6829 88.1664 15.5548 87.5834 15.5548C87.0003 15.5548 86.4577 15.6829 85.9556 15.9391C85.4697 16.1793 85.0809 16.5396 84.7894 17.02C84.4978 17.5003 84.3521 18.0928 84.3521 18.7974C84.3521 19.4699 84.4978 20.0464 84.7894 20.5267C85.0809 20.9911 85.4697 21.3514 85.9556 21.6076C86.4415 21.8478 86.9841 21.9679 87.5834 21.9679ZM102.554 26.0511C101.371 26.0511 100.286 25.8029 99.298 25.3065C98.3099 24.8102 97.5244 24.0975 96.9413 23.1688C96.3583 22.2401 96.0667 21.1272 96.0667 19.8302C96.0667 18.5172 96.3583 17.3962 96.9413 16.4675C97.5244 15.5227 98.3099 14.8022 99.298 14.3058C100.286 13.8095 101.371 13.5612 102.554 13.5612C103.736 13.5612 104.813 13.8095 105.785 14.3058C106.757 14.8022 107.534 15.5227 108.117 16.4675C108.7 17.3962 108.992 18.5172 108.992 19.8302C108.992 21.1272 108.7 22.2401 108.117 23.1688C107.534 24.0975 106.757 24.8102 105.785 25.3065C104.813 25.8029 103.736 26.0511 102.554 26.0511ZM102.554 24.0575C103.282 24.0575 103.955 23.8974 104.57 23.5772C105.202 23.2409 105.704 22.7605 106.076 22.136C106.465 21.4955 106.66 20.7269 106.66 19.8302C106.66 18.9175 106.465 18.1408 106.076 17.5003C105.704 16.8599 105.202 16.3715 104.57 16.0352C103.955 15.6989 103.282 15.5308 102.554 15.5308C101.825 15.5308 101.144 15.6989 100.513 16.0352C99.8811 16.3555 99.3709 16.8359 98.9822 17.4763C98.5934 18.1168 98.3991 18.9015 98.3991 19.8302C98.3991 20.7269 98.5853 21.4955 98.9579 22.136C99.3466 22.7605 99.8568 23.2409 100.488 23.5772C101.12 23.8974 101.808 24.0575 102.554 24.0575ZM111.432 13.8014H113.765V25.7869H111.432V13.8014ZM118.381 13.5612C119.061 13.5612 119.676 13.6573 120.227 13.8495C120.778 14.0416 121.248 14.3298 121.636 14.7141C122.025 15.0825 122.325 15.5468 122.535 16.1072C122.762 16.6516 122.875 17.2761 122.875 17.9807V25.7869H120.567V18.4851C120.567 17.5403 120.332 16.8359 119.863 16.3715C119.409 15.8911 118.713 15.6509 117.773 15.6509C117.045 15.6509 116.38 15.819 115.781 16.1553C115.182 16.4915 114.688 16.9399 114.299 17.5003C113.927 18.0447 113.7 18.6613 113.619 19.3498L113.595 18.0288C113.675 17.3883 113.846 16.7957 114.105 16.2514C114.38 15.707 114.72 15.2345 115.125 14.8342C115.546 14.4179 116.032 14.1056 116.583 13.8975C117.134 13.6733 117.733 13.5612 118.381 13.5612Z" fill="black"/>
<path d="M127.912 24.5926C127.912 23.9293 127.368 23.3916 126.697 23.3916C126.026 23.3916 125.482 23.9293 125.482 24.5926C125.482 25.2558 126.026 25.7935 126.697 25.7935C127.368 25.7935 127.912 25.2558 127.912 24.5926Z" fill="black"/>
<defs>
<filter id="filter0_f_20046_183562" x="0.44303" y="-0.00643253" width="37.7194" height="28.3475" filterUnits="userSpaceOnUse" color-interpolation-filters="sRGB">
<feFlood flood-opacity="0" result="BackgroundImageFix"/>
<feBlend mode="normal" in="SourceGraphic" in2="BackgroundImageFix" result="shape"/>
<feGaussianBlur stdDeviation="6.55046" result="effect1_foregroundBlur_20046_183562"/>
</filter>
</defs>
</svg>
