<svg width="530" height="241" viewBox="0 0 530 241" fill="none" xmlns="http://www.w3.org/2000/svg">
<g clip-path="url(#clip0_13233_119795)">
<circle cx="481.34" cy="113.724" r="34.8271" transform="rotate(28.4813 481.34 113.724)" stroke="#23A323"/>
<path d="M487.548 107.158L491.163 119.349L478.972 122.965" stroke="#23A323" stroke-width="2.22196" stroke-miterlimit="10" stroke-linecap="round" stroke-linejoin="round"/>
<path d="M469.029 107.342L490.942 119.23" stroke="#23A323" stroke-width="2.22196" stroke-miterlimit="10" stroke-linecap="round" stroke-linejoin="round"/>
<path d="M5.33384 98.7617V60.262H27.5292C32.6863 60.262 36.5938 61.1347 39.2517 62.8802C41.9493 64.586 43.2981 67.1447 43.2981 70.5563C43.2981 72.7382 42.7625 74.4638 41.6914 75.7333C40.6203 76.963 39.093 77.8754 37.1095 78.4705C35.1657 79.0655 32.8648 79.4424 30.207 79.6011L30.445 79.1846C32.3888 79.2242 34.2136 79.3631 35.9194 79.6011C37.6649 79.8391 39.1922 80.2755 40.5013 80.9102C41.8104 81.5449 42.8419 82.4375 43.5956 83.5879C44.3493 84.6987 44.7262 86.1665 44.7262 87.9913C44.7262 90.3715 44.0915 92.355 42.822 93.9418C41.5526 95.4889 39.7873 96.6592 37.5261 97.4526C35.2649 98.246 32.6467 98.6824 29.6714 98.7617H5.33384ZM13.248 92.2162H28.8383C31.3376 92.2162 33.2615 91.8195 34.6103 91.0261C35.9591 90.193 36.6335 88.8839 36.6335 87.0987C36.6335 85.7896 36.2368 84.8375 35.4434 84.2425C34.65 83.6474 33.5987 83.2904 32.2896 83.1714C30.9805 83.0127 29.5722 82.9334 28.0648 82.9334H13.248V92.2162ZM13.248 76.5663H27.2317C29.7309 76.5663 31.6549 76.2093 33.0037 75.4952C34.3525 74.7415 35.0269 73.4721 35.0269 71.6869C35.0269 69.9018 34.3525 68.6522 33.0037 67.9381C31.6549 67.1844 29.8698 66.8075 27.6482 66.8075H13.248V76.5663ZM84.9679 98.7617H77.2322V69.1877H84.9679V98.7617ZM77.6488 84.54L77.7083 86.5632C77.6289 87.1186 77.4306 87.9318 77.1132 89.0029C76.7958 90.0343 76.3 91.1451 75.6256 92.3352C74.9909 93.5253 74.1578 94.6757 73.1264 95.7865C72.0949 96.8576 70.8255 97.7501 69.318 98.4642C67.8106 99.1386 66.0254 99.4758 63.9626 99.4758C62.3361 99.4758 60.7295 99.2774 59.1427 98.8807C57.5955 98.484 56.1873 97.8295 54.9178 96.9171C53.6484 95.965 52.6368 94.6955 51.8831 93.1087C51.1293 91.5219 50.7525 89.5186 50.7525 87.0987V69.1877H58.4881V85.7896C58.4881 87.6938 58.7856 89.2012 59.3807 90.312C60.0154 91.3831 60.9278 92.1368 62.1179 92.5732C63.308 93.0096 64.7163 93.2277 66.3428 93.2277C68.485 93.2277 70.3296 92.7715 71.8768 91.8591C73.4239 90.9071 74.6735 89.7566 75.6256 88.4078C76.6173 87.0591 77.2917 85.7698 77.6488 84.54ZM88.752 69.1877H96.9637L109.757 97.5716L103.093 98.7617L88.752 69.1877ZM124.931 69.1877L104.461 110.663H96.4282L105.175 94.3583L116.66 69.1877H124.931ZM12.1769 206.266V199.958H29.7904C31.8929 199.958 33.5591 199.403 34.7888 198.292C36.0186 197.142 36.6335 195.555 36.6335 193.532C36.6335 191.429 36.0186 189.822 34.7888 188.712C33.5591 187.601 31.8929 187.046 29.7904 187.046H13.129V218.762H5.21483V180.262H29.0764C31.2185 180.262 33.2219 180.52 35.0864 181.036C36.9905 181.551 38.6368 182.345 40.0253 183.416C41.4534 184.487 42.5642 185.855 43.3576 187.522C44.151 189.188 44.5477 191.191 44.5477 193.532C44.5477 195.832 44.151 197.796 43.3576 199.423C42.5642 201.049 41.4534 202.378 40.0253 203.409C38.6368 204.401 36.9905 205.135 35.0864 205.611C33.2219 206.047 31.2185 206.266 29.0764 206.266H12.1769ZM64.3973 219.416C61.4617 219.416 58.7839 218.782 56.3641 217.512C53.9839 216.203 52.0797 214.398 50.6516 212.097C49.2631 209.757 48.5689 207.059 48.5689 204.004C48.5689 200.871 49.283 198.153 50.7111 195.852C52.1392 193.551 54.0632 191.766 56.4831 190.497C58.9426 189.188 61.7195 188.533 64.8138 188.533C68.2254 188.533 70.9626 189.227 73.0255 190.616C75.128 191.965 76.6553 193.809 77.6074 196.15C78.5595 198.49 79.0355 201.109 79.0355 204.004C79.0355 205.75 78.7578 207.535 78.2024 209.36C77.647 211.145 76.7941 212.811 75.6437 214.358C74.4933 215.866 72.9858 217.096 71.1213 218.048C69.2568 218.96 67.0155 219.416 64.3973 219.416ZM66.8965 213.466C69.237 213.466 71.2602 213.069 72.966 212.276C74.6718 211.482 75.9809 210.372 76.8933 208.943C77.8057 207.515 78.2619 205.869 78.2619 204.004C78.2619 201.981 77.7859 200.275 76.8338 198.887C75.9214 197.459 74.6123 196.388 72.9065 195.674C71.2403 194.92 69.237 194.543 66.8965 194.543C63.6039 194.543 61.0451 195.416 59.2203 197.161C57.3955 198.867 56.4831 201.148 56.4831 204.004C56.4831 205.909 56.9195 207.575 57.7922 209.003C58.6649 210.391 59.8749 211.482 61.422 212.276C63.0088 213.069 64.8336 213.466 66.8965 213.466ZM78.2619 189.188H85.9976V218.762H78.7975C78.7975 218.762 78.738 218.385 78.619 217.631C78.5396 216.838 78.4603 215.846 78.3809 214.656C78.3016 213.466 78.2619 212.296 78.2619 211.145V189.188ZM90.321 189.188H98.5327L111.326 217.572L104.662 218.762L90.321 189.188ZM126.5 189.188L106.03 230.663H97.9971L106.744 214.358L118.229 189.188H126.5Z" fill="black"/>
<path d="M229.73 83.2072L224.781 85.2105V22.5211H240.453V98.7617H224.781L163.152 38.547L168.101 36.5437V98.7617H152.429V22.5211H168.101L229.73 83.2072ZM291.166 100.176C283.782 100.176 277.261 98.9974 271.605 96.6407C266.027 94.2839 261.667 90.8666 258.525 86.3888C255.383 81.8325 253.812 76.2548 253.812 69.656C253.812 63.0571 255.383 57.4795 258.525 52.9231C261.667 48.2882 266.027 44.7923 271.605 42.4356C277.261 40.0789 283.782 38.9005 291.166 38.9005C298.55 38.9005 304.992 40.0789 310.491 42.4356C316.069 44.7923 320.429 48.2882 323.571 52.9231C326.714 57.4795 328.285 63.0571 328.285 69.656C328.285 76.2548 326.714 81.8325 323.571 86.3888C320.429 90.8666 316.069 94.2839 310.491 96.6407C304.992 98.9974 298.55 100.176 291.166 100.176ZM291.166 88.3921C295.251 88.3921 298.904 87.685 302.125 86.271C305.424 84.7784 308.017 82.6573 309.902 79.9078C311.788 77.0797 312.73 73.6624 312.73 69.656C312.73 65.6495 311.788 62.2322 309.902 59.4041C308.017 56.4975 305.464 54.2979 302.243 52.8053C299.022 51.3127 295.33 50.5664 291.166 50.5664C287.081 50.5664 283.389 51.3127 280.089 52.8053C276.79 54.2979 274.158 56.4582 272.194 59.2863C270.309 62.1144 269.366 65.5709 269.366 69.656C269.366 73.6624 270.309 77.0797 272.194 79.9078C274.08 82.6573 276.672 84.7784 279.972 86.271C283.271 87.685 287.002 88.3921 291.166 88.3921ZM413.666 88.1564L408.835 88.0385L427.924 40.1967H444.775L418.969 98.7617H404.593L385.739 51.509H390.923L371.48 98.7617H357.104L332.005 40.1967H348.856L367.238 88.1564H362.407L379.611 40.1967H397.169L413.666 88.1564Z" fill="#228B22"/>
<path d="M166.532 142.521V205.682H217.202V218.762H150.859V142.521H166.532ZM255.969 220.058C250.156 220.058 244.853 218.801 240.061 216.287C235.348 213.695 231.577 210.12 228.749 205.564C225.999 200.929 224.624 195.587 224.624 189.538C224.624 183.332 226.038 177.951 228.867 173.394C231.695 168.838 235.505 165.303 240.297 162.789C245.167 160.197 250.666 158.9 256.794 158.9C263.55 158.9 268.97 160.275 273.055 163.025C277.219 165.696 280.244 169.349 282.129 173.984C284.014 178.619 284.957 183.803 284.957 189.538C284.957 192.995 284.407 196.53 283.307 200.143C282.207 203.679 280.519 206.978 278.24 210.042C275.962 213.027 272.977 215.462 269.285 217.348C265.592 219.155 261.154 220.058 255.969 220.058ZM260.918 208.274C265.553 208.274 269.56 207.489 272.938 205.917C276.316 204.346 278.908 202.147 280.715 199.319C282.522 196.491 283.425 193.23 283.425 189.538C283.425 185.532 282.482 182.154 280.597 179.404C278.79 176.576 276.198 174.455 272.82 173.041C269.52 171.548 265.553 170.802 260.918 170.802C254.398 170.802 249.331 172.53 245.717 175.987C242.104 179.365 240.297 183.882 240.297 189.538C240.297 193.309 241.161 196.608 242.889 199.436C244.617 202.186 247.013 204.346 250.077 205.917C253.22 207.489 256.833 208.274 260.918 208.274ZM283.425 160.197H298.744V218.762H284.486C284.486 218.762 284.368 218.015 284.132 216.523C283.975 214.952 283.818 212.988 283.661 210.631C283.504 208.274 283.425 205.957 283.425 203.679V160.197ZM308.484 160.197H353.969V172.098H308.484V160.197ZM323.567 144.171H338.886V218.762H323.567V144.171ZM416.276 199.319H431.124C430.495 203.325 428.806 206.899 426.057 210.042C423.386 213.184 419.733 215.659 415.098 217.466C410.463 219.272 404.807 220.176 398.129 220.176C390.666 220.176 384.068 218.997 378.333 216.641C372.598 214.205 368.12 210.71 364.899 206.153C361.678 201.597 360.068 196.098 360.068 189.656C360.068 183.214 361.639 177.715 364.782 173.159C367.924 168.524 372.284 164.989 377.861 162.553C383.518 160.118 390.116 158.9 397.658 158.9C405.357 158.9 411.759 160.118 416.866 162.553C421.972 164.989 425.743 168.681 428.178 173.63C430.692 178.501 431.752 184.746 431.359 192.366H375.505C375.897 195.351 376.997 198.062 378.804 200.497C380.69 202.932 383.203 204.857 386.346 206.271C389.567 207.685 393.377 208.392 397.776 208.392C402.646 208.392 406.692 207.567 409.913 205.917C413.213 204.189 415.334 201.99 416.276 199.319ZM396.951 170.566C391.295 170.566 386.699 171.823 383.164 174.337C379.629 176.772 377.351 179.797 376.33 183.411H416.158C415.766 179.483 413.88 176.38 410.502 174.101C407.203 171.745 402.686 170.566 396.951 170.566ZM442.758 160.197H458.077V218.762H442.758V160.197ZM480.584 172.805C476.185 172.805 472.375 173.669 469.154 175.398C465.933 177.047 463.341 179.09 461.377 181.525C459.413 183.961 458.038 186.317 457.252 188.595L457.134 182.114C457.213 181.172 457.527 179.797 458.077 177.99C458.627 176.105 459.452 174.101 460.552 171.98C461.652 169.781 463.105 167.699 464.912 165.735C466.719 163.693 468.918 162.043 471.511 160.786C474.103 159.529 477.128 158.9 480.584 158.9V172.805Z" fill="#FFBD00"/>
</g>
<defs>
<clipPath id="clip0_13233_119795">
<rect width="528.486" height="240" fill="white" transform="translate(0.751953 0.761719)"/>
</clipPath>
</defs>
</svg>
