<svg width="60" height="17" viewBox="0 0 60 17" fill="none" xmlns="http://www.w3.org/2000/svg">
<path d="M10.7154 13.6119C11.298 13.781 11.9017 13.8666 12.5085 13.866C13.4842 13.8674 14.4472 13.6449 15.3234 13.2157C15.3494 12.6034 15.175 11.9994 14.8267 11.4952C14.4784 10.991 13.9753 10.6141 13.3935 10.4215C12.8118 10.229 12.1831 10.2314 11.6028 10.4283C11.0225 10.6252 10.5222 11.0059 10.1778 11.5127M10.7154 13.6119V13.6098C10.7154 12.8495 10.52 12.1344 10.1778 11.5127M10.7154 13.6119V13.6843C9.40076 14.476 7.89465 14.8932 6.36003 14.8906C4.76776 14.8906 3.27796 14.45 2.00605 13.6843L2.00537 13.6098C2.00485 12.6429 2.32616 11.7033 2.91864 10.9391C3.51113 10.175 4.34109 9.62978 5.27767 9.38945C6.21426 9.14912 7.2042 9.22734 8.09141 9.61179C8.97863 9.99623 9.71266 10.665 10.1778 11.5127M8.66612 4.9005C8.66612 5.51193 8.42323 6.09832 7.99088 6.53067C7.55853 6.96301 6.97214 7.2059 6.36071 7.2059C5.74928 7.2059 5.16289 6.96301 4.73054 6.53067C4.2982 6.09832 4.0553 5.51193 4.0553 4.9005C4.0553 4.28907 4.2982 3.70268 4.73054 3.27033C5.16289 2.83798 5.74928 2.59509 6.36071 2.59509C6.97214 2.59509 7.55853 2.83798 7.99088 3.27033C8.42323 3.70268 8.66612 4.28907 8.66612 4.9005ZM14.3016 6.43744C14.3016 6.91299 14.1126 7.36907 13.7764 7.70534C13.4401 8.04161 12.984 8.23053 12.5085 8.23053C12.0329 8.23053 11.5768 8.04161 11.2406 7.70534C10.9043 7.36907 10.7154 6.91299 10.7154 6.43744C10.7154 5.96188 10.9043 5.5058 11.2406 5.16953C11.5768 4.83326 12.0329 4.64434 12.5085 4.64434C12.984 4.64434 13.4401 4.83326 13.7764 5.16953C14.1126 5.5058 14.3016 5.96188 14.3016 6.43744Z" stroke="white" stroke-width="1.02462" stroke-linecap="round" stroke-linejoin="round"/>
<path d="M27.058 11.7868C24.9521 11.7868 23.5612 10.3861 23.5612 8.13327C23.5612 5.87065 24.9619 4.47978 27.058 4.47978C28.8211 4.47978 30.0846 5.44947 30.3001 6.94809H29.2227C29.0268 6.03716 28.2236 5.4005 27.058 5.4005C25.579 5.4005 24.6583 6.38978 24.6583 8.13327C24.6583 9.86696 25.579 10.866 27.058 10.866C28.2138 10.866 29.0464 10.2392 29.2227 9.27927L30.3001 9.28907C30.114 10.7975 28.8211 11.7868 27.058 11.7868ZM31.393 11.6986V4.55814H32.4019V11.6986H31.393ZM33.8035 5.72373V4.55814H34.8123V5.72373H33.8035ZM33.8035 11.6986V6.51711H34.8123V11.6986H33.8035ZM38.3688 11.7868C36.8114 11.7868 35.8613 10.7289 35.8613 9.13235C35.8613 7.4966 36.8114 6.43875 38.3296 6.43875C40.0339 6.43875 40.8567 7.6827 40.7 9.30866H36.8604C36.88 10.3763 37.4677 10.9836 38.3688 10.9836C39.0642 10.9836 39.5834 10.6408 39.7107 10.102H40.6706C40.5335 11.1207 39.5932 11.7868 38.3688 11.7868ZM38.3198 7.23214C37.5069 7.23214 36.9583 7.75127 36.88 8.59363H39.7107C39.6813 7.63373 39.0838 7.23214 38.3198 7.23214ZM41.7905 11.6986V6.51711H42.7504L42.7896 7.54558H42.8484C43.152 6.81096 43.8376 6.43875 44.6016 6.43875C45.6595 6.43875 46.4529 7.03624 46.4529 8.62301V11.6986H45.444V8.82871C45.444 7.77086 45.062 7.27132 44.2392 7.27132C43.3479 7.27132 42.7896 7.97655 42.7896 8.86789V11.6986H41.7905ZM49.1713 11.6986C48.3192 11.6986 48.0547 11.3166 48.0547 10.6212V7.33988H47.0752V6.51711H48.0547V5.0185L49.0636 4.90096V6.51711H50.2096V7.33988H49.0636V10.4351C49.0636 10.7779 49.1811 10.866 49.5044 10.866H50.2096V11.6986H49.1713ZM53.1419 11.7966C51.7217 11.7966 50.9283 11.1011 50.9283 10.0727H51.9274C51.9274 10.7779 52.4465 11.0815 53.1713 11.0815C53.9157 11.0815 54.3075 10.7975 54.3075 10.3175C54.3075 9.73963 53.9353 9.6025 53.0636 9.47517C51.8882 9.30866 51.0752 9.0344 51.0752 7.97655C51.0752 6.98727 51.9078 6.41916 53.1615 6.41916C54.4349 6.41916 55.2087 7.03624 55.2282 8.04512H54.239C54.2292 7.41824 53.808 7.13419 53.1419 7.13419C52.4563 7.13419 52.0841 7.43783 52.0841 7.8786C52.0841 8.38794 52.4759 8.54465 53.3574 8.66219C54.4349 8.80912 55.336 9.04419 55.336 10.2294C55.336 11.2872 54.4936 11.7966 53.1419 11.7966Z" fill="white"/>
</svg>
