<svg width="77" height="30" viewBox="0 0 77 30" fill="none" xmlns="http://www.w3.org/2000/svg">
<circle cx="15.9727" cy="15" r="14.5" stroke="#D1D5DB"/>
<path d="M17.7163 19.5895C18.3012 19.7593 18.9072 19.8452 19.5163 19.8445C20.4958 19.846 21.4625 19.6226 22.3422 19.1917C22.3682 18.5771 22.1931 17.9708 21.8435 17.4646C21.4939 16.9585 20.9888 16.5801 20.4048 16.3868C19.8208 16.1935 19.1897 16.1959 18.6071 16.3936C18.0246 16.5913 17.5224 16.9735 17.1766 17.4822M17.7163 19.5895V19.5874C17.7163 18.8242 17.5202 18.1062 17.1766 17.4822M17.7163 19.5895V19.6621C16.3966 20.457 14.8847 20.8757 13.3441 20.8731C11.7457 20.8731 10.2502 20.4308 8.97334 19.6621L8.97266 19.5874C8.97213 18.6167 9.29468 17.6735 9.88945 16.9064C10.4842 16.1393 11.3174 15.592 12.2576 15.3507C13.1978 15.1095 14.1916 15.188 15.0822 15.5739C15.9728 15.9599 16.7097 16.6312 17.1766 17.4822M15.6591 10.8445C15.6591 11.4583 15.4153 12.0469 14.9813 12.4809C14.5473 12.9149 13.9586 13.1588 13.3448 13.1588C12.731 13.1588 12.1424 12.9149 11.7083 12.4809C11.2743 12.0469 11.0305 11.4583 11.0305 10.8445C11.0305 10.2307 11.2743 9.64201 11.7083 9.208C12.1424 8.77398 12.731 8.53015 13.3448 8.53015C13.9586 8.53015 14.5473 8.77398 14.9813 9.208C15.4153 9.64201 15.6591 10.2307 15.6591 10.8445ZM21.3163 12.3873C21.3163 12.8647 21.1267 13.3226 20.7891 13.6601C20.4515 13.9977 19.9937 14.1873 19.5163 14.1873C19.0389 14.1873 18.5811 13.9977 18.2435 13.6601C17.9059 13.3226 17.7163 12.8647 17.7163 12.3873C17.7163 11.9099 17.9059 11.4521 18.2435 11.1145C18.5811 10.777 19.0389 10.5873 19.5163 10.5873C19.9937 10.5873 20.4515 10.777 20.7891 11.1145C21.1267 11.4521 21.3163 11.9099 21.3163 12.3873Z" stroke="#D1D5DB" stroke-width="1.02858" stroke-linecap="round" stroke-linejoin="round"/>
<path d="M43.8762 18.0247C41.7622 18.0247 40.366 16.6186 40.366 14.3571C40.366 12.0857 41.772 10.6895 43.8762 10.6895C45.6461 10.6895 46.9145 11.6629 47.1309 13.1673H46.0493C45.8526 12.2529 45.0463 11.6137 43.8762 11.6137C42.3915 11.6137 41.4672 12.6068 41.4672 14.3571C41.4672 16.0974 42.3915 17.1004 43.8762 17.1004C45.0365 17.1004 45.8723 16.4711 46.0493 15.5075L47.1309 15.5173C46.944 17.0315 45.6461 18.0247 43.8762 18.0247ZM48.228 17.9362V10.7681H49.2407V17.9362H48.228ZM50.6477 11.9382V10.7681H51.6605V11.9382H50.6477ZM50.6477 17.9362V12.7347H51.6605V17.9362H50.6477ZM55.2307 18.0247C53.6673 18.0247 52.7135 16.9627 52.7135 15.36C52.7135 13.7179 53.6673 12.656 55.1914 12.656C56.9023 12.656 57.7282 13.9047 57.5709 15.537H53.7165C53.7361 16.6087 54.3261 17.2184 55.2307 17.2184C55.9288 17.2184 56.45 16.8742 56.5778 16.3334H57.5414C57.4037 17.356 56.4598 18.0247 55.2307 18.0247ZM55.1815 13.4524C54.3654 13.4524 53.8148 13.9736 53.7361 14.8192H56.5778C56.5483 13.8556 55.9485 13.4524 55.1815 13.4524ZM58.6656 17.9362V12.7347H59.6292L59.6686 13.7671H59.7276C60.0324 13.0296 60.7207 12.656 61.4876 12.656C62.5495 12.656 63.346 13.2558 63.346 14.8487V17.9362H62.3332V15.0552C62.3332 13.9932 61.9498 13.4918 61.1238 13.4918C60.229 13.4918 59.6686 14.1997 59.6686 15.0945V17.9362H58.6656ZM66.075 17.9362C65.2195 17.9362 64.954 17.5527 64.954 16.8546V13.5606H63.9708V12.7347H64.954V11.2303L65.9668 11.1123V12.7347H67.1172V13.5606H65.9668V16.6677C65.9668 17.0119 66.0848 17.1004 66.4093 17.1004H67.1172V17.9362H66.075ZM70.0609 18.0345C68.6351 18.0345 67.8387 17.3364 67.8387 16.3039H68.8416C68.8416 17.0119 69.3628 17.3167 70.0904 17.3167C70.8377 17.3167 71.231 17.0315 71.231 16.5497C71.231 15.9696 70.8573 15.832 69.9822 15.7041C68.8023 15.537 67.9862 15.2617 67.9862 14.1997C67.9862 13.2066 68.822 12.6363 70.0806 12.6363C71.3588 12.6363 72.1356 13.2558 72.1553 14.2686H71.1622C71.1523 13.6393 70.7295 13.3541 70.0609 13.3541C69.3726 13.3541 68.999 13.6589 68.999 14.1014C68.999 14.6127 69.3923 14.77 70.2772 14.888C71.3588 15.0355 72.2634 15.2715 72.2634 16.4613C72.2634 17.5232 71.4178 18.0345 70.0609 18.0345Z" fill="#9CA3AF"/>
</svg>
