<svg width="1440" height="827" viewBox="0 0 1440 827" fill="none" xmlns="http://www.w3.org/2000/svg">
<g clip-path="url(#clip0_4152_41285)">
<rect y="-0.00390625" width="1448.57" height="827.004" fill="#F3FCF3"/>
<path d="M411.672 609.156C280.023 690.101 85.6783 630.189 -4.18517 577.61L-107.433 560.401V827.124H1576.07L1616.22 221.98C1543.57 212.42 1387.36 221.98 1343.77 336.7C1289.27 480.099 867.681 508.778 818.925 508.778C770.17 508.778 632.778 473.21 411.672 609.156Z" fill="url(#paint0_linear_4152_41285)"/>
<circle cx="533.219" cy="557.928" r="50.5" stroke="#23A323" stroke-width="1.5"/>
<circle cx="520.219" cy="549.928" r="50.5" fill="#23A323"/>
<path d="M488.679 536.578H490.58V549.428H488.679V536.578ZM493.787 539.548H495.688V549.428H493.787V539.548ZM499.45 539.35C500.004 539.35 500.506 539.429 500.954 539.587C501.403 539.746 501.786 539.983 502.103 540.3C502.42 540.604 502.664 540.986 502.835 541.448C503.02 541.897 503.113 542.412 503.113 542.993V549.428H501.232V543.409C501.232 542.63 501.04 542.049 500.657 541.666C500.288 541.27 499.72 541.072 498.955 541.072C498.361 541.072 497.819 541.211 497.331 541.488C496.843 541.765 496.44 542.135 496.123 542.597C495.82 543.046 495.635 543.554 495.569 544.121L495.549 543.032C495.615 542.504 495.754 542.016 495.965 541.567C496.189 541.118 496.466 540.729 496.796 540.399C497.14 540.056 497.536 539.798 497.984 539.627C498.433 539.442 498.922 539.35 499.45 539.35ZM505.165 546.22H506.908C506.974 546.748 507.211 547.184 507.621 547.527C508.03 547.857 508.604 548.022 509.343 548.022C509.818 548.022 510.188 547.969 510.452 547.864C510.716 547.745 510.901 547.586 511.006 547.388C511.125 547.19 511.185 546.973 511.185 546.735C511.185 546.431 511.105 546.2 510.947 546.042C510.789 545.87 510.564 545.732 510.274 545.626C509.983 545.507 509.64 545.395 509.244 545.29C508.809 545.171 508.373 545.032 507.937 544.874C507.502 544.715 507.099 544.524 506.73 544.3C506.373 544.075 506.083 543.798 505.858 543.468C505.647 543.125 505.542 542.709 505.542 542.221C505.542 541.811 505.627 541.429 505.799 541.072C505.984 540.716 506.241 540.412 506.571 540.161C506.914 539.897 507.31 539.699 507.759 539.567C508.208 539.422 508.703 539.35 509.244 539.35C509.997 539.35 510.63 539.488 511.145 539.765C511.66 540.029 512.049 540.406 512.313 540.894C512.59 541.382 512.736 541.943 512.749 542.577H511.086C510.993 542.023 510.802 541.62 510.511 541.369C510.221 541.105 509.785 540.973 509.205 540.973C508.637 540.973 508.201 541.085 507.898 541.31C507.594 541.534 507.442 541.838 507.442 542.221C507.442 542.511 507.548 542.749 507.759 542.933C507.97 543.105 508.254 543.257 508.611 543.389C508.967 543.521 509.37 543.659 509.818 543.805C510.241 543.95 510.643 544.102 511.026 544.26C511.422 544.405 511.772 544.583 512.076 544.795C512.392 544.993 512.637 545.257 512.808 545.587C512.993 545.903 513.085 546.299 513.085 546.775C513.085 547.355 512.94 547.864 512.65 548.299C512.359 548.722 511.937 549.052 511.383 549.289C510.841 549.527 510.181 549.646 509.403 549.646C508.69 549.646 508.083 549.56 507.581 549.388C507.093 549.217 506.677 548.992 506.334 548.715C506.004 548.438 505.746 548.147 505.561 547.844C505.39 547.527 505.271 547.223 505.205 546.933C505.152 546.643 505.139 546.405 505.165 546.22ZM514.383 539.548H520.778V541.191H514.383V539.548ZM516.64 536.934H518.521V549.428H516.64V536.934ZM526.483 549.626C525.638 549.626 524.866 549.408 524.166 548.972C523.467 548.537 522.912 547.936 522.503 547.171C522.094 546.392 521.889 545.501 521.889 544.498C521.889 543.494 522.094 542.61 522.503 541.844C522.925 541.066 523.5 540.458 524.226 540.023C524.952 539.574 525.763 539.35 526.661 539.35C527.651 539.35 528.417 539.581 528.958 540.043C529.512 540.505 529.895 541.125 530.106 541.904C530.331 542.683 530.443 543.547 530.443 544.498C530.443 545.026 530.377 545.587 530.245 546.181C530.113 546.775 529.902 547.336 529.611 547.864C529.321 548.392 528.918 548.821 528.403 549.151C527.889 549.467 527.248 549.626 526.483 549.626ZM527.017 547.982C527.717 547.982 528.304 547.831 528.78 547.527C529.268 547.21 529.631 546.788 529.869 546.26C530.106 545.732 530.225 545.144 530.225 544.498C530.225 543.798 530.1 543.184 529.849 542.656C529.611 542.128 529.248 541.719 528.76 541.429C528.285 541.138 527.704 540.993 527.017 540.993C525.988 540.993 525.189 541.323 524.622 541.983C524.067 542.643 523.79 543.481 523.79 544.498C523.79 545.184 523.929 545.791 524.206 546.319C524.483 546.834 524.859 547.243 525.334 547.547C525.823 547.837 526.384 547.982 527.017 547.982ZM530.225 539.548H532.126V549.428H530.383C530.383 549.428 530.37 549.309 530.344 549.071C530.317 548.821 530.291 548.524 530.265 548.18C530.238 547.837 530.225 547.534 530.225 547.27V539.548ZM534.605 539.548H536.506V549.428H534.605V539.548ZM540.268 539.35C540.822 539.35 541.324 539.429 541.773 539.587C542.221 539.746 542.604 539.983 542.921 540.3C543.238 540.604 543.482 540.986 543.654 541.448C543.838 541.897 543.931 542.412 543.931 542.993V549.428H542.05V543.409C542.05 542.63 541.858 542.049 541.476 541.666C541.106 541.27 540.538 541.072 539.773 541.072C539.179 541.072 538.638 541.211 538.149 541.488C537.661 541.765 537.258 542.135 536.941 542.597C536.638 543.046 536.453 543.554 536.387 544.121L536.367 543.032C536.433 542.504 536.572 542.016 536.783 541.567C537.007 541.118 537.285 540.729 537.615 540.399C537.958 540.056 538.354 539.798 538.803 539.627C539.251 539.442 539.74 539.35 540.268 539.35ZM545.726 539.548H552.122V541.191H545.726V539.548ZM547.983 536.934H549.864V549.428H547.983V536.934Z" fill="white"/>
<path d="M493.699 558.208C493.639 558.694 493.473 559.111 493.199 559.458C492.933 559.804 492.583 560.071 492.149 560.258C491.716 560.444 491.223 560.538 490.669 560.538C490.169 560.538 489.709 560.461 489.289 560.308C488.876 560.154 488.516 559.934 488.209 559.648C487.903 559.361 487.663 559.011 487.489 558.598C487.316 558.178 487.229 557.708 487.229 557.188C487.229 556.661 487.316 556.191 487.489 555.778C487.663 555.364 487.903 555.014 488.209 554.728C488.516 554.434 488.876 554.211 489.289 554.058C489.709 553.904 490.169 553.828 490.669 553.828C491.229 553.828 491.726 553.924 492.159 554.118C492.593 554.304 492.943 554.574 493.209 554.928C493.483 555.274 493.649 555.691 493.709 556.178H492.789C492.703 555.864 492.559 555.598 492.359 555.378C492.159 555.158 491.916 554.991 491.629 554.878C491.343 554.758 491.023 554.698 490.669 554.698C490.216 554.698 489.803 554.794 489.429 554.988C489.056 555.181 488.756 555.461 488.529 555.828C488.309 556.194 488.199 556.648 488.199 557.188C488.199 557.721 488.309 558.174 488.529 558.548C488.756 558.914 489.056 559.194 489.429 559.388C489.803 559.574 490.216 559.668 490.669 559.668C491.023 559.668 491.339 559.611 491.619 559.498C491.906 559.384 492.149 559.218 492.349 558.998C492.549 558.778 492.696 558.514 492.789 558.208H493.699ZM494.849 555.438H495.809V560.428H494.849V555.438ZM497.499 556.288C497.153 556.288 496.856 556.368 496.609 556.528C496.369 556.688 496.176 556.884 496.029 557.118C495.889 557.351 495.796 557.574 495.749 557.788L495.739 557.218C495.746 557.151 495.763 557.048 495.789 556.908C495.823 556.761 495.879 556.598 495.959 556.418C496.039 556.238 496.146 556.068 496.279 555.908C496.413 555.741 496.579 555.604 496.779 555.498C496.979 555.391 497.219 555.338 497.499 555.338V556.288ZM502.215 558.808H503.125C503.072 559.134 502.945 559.428 502.745 559.688C502.545 559.948 502.282 560.154 501.955 560.308C501.628 560.461 501.245 560.538 500.805 560.538C500.285 560.538 499.822 560.428 499.415 560.208C499.008 559.988 498.688 559.684 498.455 559.298C498.222 558.911 498.105 558.461 498.105 557.948C498.105 557.428 498.218 556.974 498.445 556.588C498.672 556.194 498.985 555.888 499.385 555.668C499.785 555.448 500.242 555.338 500.755 555.338C501.295 555.338 501.748 555.444 502.115 555.658C502.482 555.871 502.752 556.188 502.925 556.608C503.105 557.021 503.178 557.538 503.145 558.158H499.055C499.088 558.458 499.178 558.724 499.325 558.958C499.478 559.191 499.678 559.374 499.925 559.508C500.178 559.641 500.468 559.708 500.795 559.708C501.162 559.708 501.468 559.624 501.715 559.458C501.962 559.291 502.128 559.074 502.215 558.808ZM500.765 556.158C500.332 556.158 499.972 556.274 499.685 556.508C499.398 556.734 499.208 557.038 499.115 557.418H502.185C502.158 557.011 502.012 556.701 501.745 556.488C501.478 556.268 501.152 556.158 500.765 556.158ZM506.216 560.528C505.783 560.528 505.389 560.418 505.036 560.198C504.683 559.978 504.403 559.674 504.196 559.288C503.996 558.894 503.896 558.444 503.896 557.938C503.896 557.431 503.996 556.984 504.196 556.598C504.396 556.204 504.669 555.898 505.016 555.678C505.363 555.451 505.763 555.338 506.216 555.338C506.609 555.338 506.936 555.404 507.196 555.538C507.456 555.671 507.659 555.858 507.806 556.098C507.953 556.338 508.056 556.614 508.116 556.928C508.183 557.241 508.216 557.578 508.216 557.938C508.216 558.204 508.183 558.488 508.116 558.788C508.049 559.088 507.943 559.371 507.796 559.638C507.649 559.904 507.446 560.121 507.186 560.288C506.926 560.448 506.603 560.528 506.216 560.528ZM506.486 559.698C506.839 559.698 507.136 559.621 507.376 559.468C507.623 559.308 507.806 559.094 507.926 558.828C508.046 558.561 508.106 558.264 508.106 557.938C508.106 557.584 508.043 557.274 507.916 557.008C507.796 556.741 507.613 556.534 507.366 556.388C507.126 556.241 506.833 556.168 506.486 556.168C505.966 556.168 505.563 556.334 505.276 556.668C504.996 557.001 504.856 557.424 504.856 557.938C504.856 558.284 504.926 558.591 505.066 558.858C505.206 559.118 505.396 559.324 505.636 559.478C505.883 559.624 506.166 559.698 506.486 559.698ZM508.106 553.438H509.066V560.428H508.186C508.166 560.281 508.146 560.101 508.126 559.888C508.113 559.674 508.106 559.491 508.106 559.338V553.438ZM511.644 553.378V554.408H510.454V553.378H511.644ZM510.574 555.438H511.524V560.428H510.574V555.438ZM512.527 555.438H515.757V556.268H512.527V555.438ZM513.667 554.118H514.617V560.428H513.667V554.118Z" fill="white"/>
<circle cx="283.917" cy="650.385" r="50.5" stroke="#FFBD00" stroke-width="1.5"/>
<circle cx="270.917" cy="642.385" r="50.5" fill="#FFBD00"/>
<path d="M238.11 637.667H239.932C239.972 638.182 240.143 638.651 240.447 639.073C240.764 639.482 241.186 639.806 241.714 640.043C242.255 640.281 242.882 640.4 243.595 640.4C244.215 640.4 244.73 640.314 245.139 640.142C245.549 639.971 245.852 639.74 246.05 639.449C246.261 639.146 246.367 638.789 246.367 638.38C246.367 637.971 246.255 637.648 246.03 637.41C245.806 637.159 245.469 636.955 245.021 636.796C244.572 636.625 244.017 636.46 243.357 636.301C242.777 636.156 242.202 635.984 241.635 635.786C241.08 635.575 240.566 635.318 240.09 635.014C239.628 634.711 239.252 634.348 238.962 633.925C238.685 633.49 238.546 632.968 238.546 632.361C238.546 631.714 238.724 631.127 239.081 630.599C239.437 630.058 239.958 629.629 240.645 629.312C241.344 628.982 242.189 628.817 243.179 628.817C244.71 628.817 245.865 629.2 246.644 629.965C247.436 630.731 247.819 631.754 247.793 633.034H246.011C245.971 632.137 245.687 631.496 245.159 631.114C244.631 630.718 243.945 630.52 243.1 630.52C242.374 630.52 241.754 630.671 241.239 630.975C240.724 631.265 240.467 631.727 240.467 632.361C240.467 632.638 240.526 632.882 240.645 633.094C240.764 633.292 240.962 633.476 241.239 633.648C241.516 633.82 241.886 633.985 242.348 634.143C242.823 634.301 243.41 634.473 244.11 634.658C244.638 634.777 245.146 634.928 245.634 635.113C246.136 635.298 246.585 635.529 246.981 635.806C247.377 636.083 247.687 636.44 247.911 636.875C248.149 637.311 248.268 637.846 248.268 638.479C248.268 639.152 248.103 639.766 247.773 640.321C247.443 640.862 246.928 641.297 246.228 641.627C245.542 641.944 244.651 642.103 243.555 642.103C242.684 642.103 241.925 641.99 241.278 641.766C240.645 641.542 240.11 641.251 239.675 640.895C239.252 640.538 238.916 640.156 238.665 639.746C238.427 639.337 238.262 638.948 238.17 638.578C238.091 638.209 238.071 637.905 238.11 637.667ZM250.305 632.005H252.206V641.885H250.305V632.005ZM255.968 631.807C256.522 631.807 257.024 631.886 257.473 632.044C257.922 632.203 258.304 632.44 258.621 632.757C258.938 633.061 259.182 633.443 259.354 633.905C259.539 634.354 259.631 634.869 259.631 635.45V641.885H257.75V635.866C257.75 635.087 257.559 634.506 257.176 634.123C256.806 633.727 256.239 633.529 255.473 633.529C254.879 633.529 254.338 633.668 253.849 633.945C253.361 634.222 252.958 634.592 252.642 635.054C252.338 635.503 252.153 636.011 252.087 636.578L252.067 635.489C252.133 634.961 252.272 634.473 252.483 634.024C252.708 633.575 252.985 633.186 253.315 632.856C253.658 632.513 254.054 632.255 254.503 632.084C254.952 631.899 255.44 631.807 255.968 631.807ZM263.215 631.807C263.769 631.807 264.271 631.886 264.72 632.044C265.168 632.203 265.551 632.44 265.868 632.757C266.185 633.061 266.429 633.443 266.601 633.905C266.785 634.354 266.878 634.869 266.878 635.45V641.885H264.997V635.866C264.997 635.087 264.805 634.506 264.423 634.123C264.053 633.727 263.485 633.529 262.72 633.529C262.126 633.529 261.585 633.668 261.096 633.945C260.608 634.222 260.205 634.592 259.888 635.054C259.585 635.503 259.4 636.011 259.334 636.578L259.314 635.47C259.38 634.942 259.519 634.46 259.73 634.024C259.954 633.575 260.238 633.186 260.581 632.856C260.925 632.513 261.321 632.255 261.769 632.084C262.218 631.899 262.7 631.807 263.215 631.807ZM273.449 642.083C272.604 642.083 271.832 641.865 271.133 641.429C270.433 640.994 269.879 640.393 269.469 639.628C269.06 638.849 268.856 637.958 268.856 636.955C268.856 635.951 269.06 635.067 269.469 634.301C269.892 633.523 270.466 632.915 271.192 632.48C271.918 632.031 272.73 631.807 273.627 631.807C274.617 631.807 275.383 632.038 275.924 632.5C276.479 632.962 276.861 633.582 277.073 634.361C277.297 635.14 277.409 636.004 277.409 636.955C277.409 637.483 277.343 638.044 277.211 638.638C277.079 639.232 276.868 639.793 276.578 640.321C276.287 640.849 275.885 641.278 275.37 641.608C274.855 641.924 274.215 642.083 273.449 642.083ZM273.984 640.439C274.683 640.439 275.271 640.288 275.746 639.984C276.234 639.667 276.597 639.245 276.835 638.717C277.073 638.189 277.191 637.601 277.191 636.955C277.191 636.255 277.066 635.641 276.815 635.113C276.578 634.585 276.215 634.176 275.726 633.886C275.251 633.595 274.67 633.45 273.984 633.45C272.954 633.45 272.156 633.78 271.588 634.44C271.034 635.1 270.756 635.938 270.756 636.955C270.756 637.641 270.895 638.248 271.172 638.776C271.449 639.291 271.826 639.7 272.301 640.004C272.789 640.294 273.35 640.439 273.984 640.439ZM277.191 632.005H279.092V641.885H277.35C277.35 641.885 277.337 641.766 277.31 641.528C277.284 641.278 277.257 640.981 277.231 640.637C277.205 640.294 277.191 639.991 277.191 639.727V632.005ZM281.769 628.045H283.67V641.885H281.769V628.045ZM286.584 628.045H288.485V641.885H286.584V628.045Z" fill="white"/>
<path d="M239.167 646.395V652.025H242.987V652.885H238.207V646.395H239.167ZM246.327 652.995C245.84 652.995 245.393 652.891 244.987 652.685C244.58 652.478 244.257 652.181 244.017 651.795C243.777 651.408 243.657 650.945 243.657 650.405C243.657 649.858 243.777 649.391 244.017 649.005C244.257 648.611 244.58 648.311 244.987 648.105C245.393 647.898 245.84 647.795 246.327 647.795C246.813 647.795 247.257 647.898 247.657 648.105C248.057 648.311 248.377 648.611 248.617 649.005C248.857 649.391 248.977 649.858 248.977 650.405C248.977 650.945 248.857 651.408 248.617 651.795C248.377 652.181 248.057 652.478 247.657 652.685C247.257 652.891 246.813 652.995 246.327 652.995ZM246.327 652.165C246.627 652.165 246.903 652.098 247.157 651.965C247.417 651.825 247.623 651.625 247.777 651.365C247.937 651.098 248.017 650.778 248.017 650.405C248.017 650.025 247.937 649.701 247.777 649.435C247.623 649.168 247.417 648.965 247.157 648.825C246.903 648.685 246.627 648.615 246.327 648.615C246.027 648.615 245.747 648.685 245.487 648.825C245.227 648.958 245.017 649.158 244.857 649.425C244.697 649.691 244.617 650.018 244.617 650.405C244.617 650.778 244.693 651.098 244.847 651.365C245.007 651.625 245.217 651.825 245.477 651.965C245.737 652.098 246.02 652.165 246.327 652.165ZM252.041 652.985C251.614 652.985 251.224 652.875 250.871 652.655C250.518 652.435 250.238 652.131 250.031 651.745C249.824 651.351 249.721 650.901 249.721 650.395C249.721 649.888 249.824 649.441 250.031 649.055C250.244 648.661 250.534 648.355 250.901 648.135C251.268 647.908 251.678 647.795 252.131 647.795C252.631 647.795 253.018 647.911 253.291 648.145C253.571 648.378 253.764 648.691 253.871 649.085C253.984 649.478 254.041 649.915 254.041 650.395C254.041 650.661 254.008 650.945 253.941 651.245C253.874 651.545 253.768 651.828 253.621 652.095C253.474 652.361 253.271 652.578 253.011 652.745C252.751 652.905 252.428 652.985 252.041 652.985ZM252.311 652.155C252.664 652.155 252.961 652.078 253.201 651.925C253.448 651.765 253.631 651.551 253.751 651.285C253.871 651.018 253.931 650.721 253.931 650.395C253.931 650.041 253.868 649.731 253.741 649.465C253.621 649.198 253.438 648.991 253.191 648.845C252.951 648.698 252.658 648.625 252.311 648.625C251.791 648.625 251.388 648.791 251.101 649.125C250.821 649.458 250.681 649.881 250.681 650.395C250.681 650.741 250.751 651.048 250.891 651.315C251.031 651.575 251.221 651.781 251.461 651.935C251.708 652.081 251.991 652.155 252.311 652.155ZM253.931 647.895H254.891V652.885H254.011C254.011 652.885 254.004 652.825 253.991 652.705C253.978 652.578 253.964 652.428 253.951 652.255C253.938 652.081 253.931 651.928 253.931 651.795V647.895ZM256.143 647.895H257.103V652.885H256.143V647.895ZM259.003 647.795C259.283 647.795 259.537 647.835 259.763 647.915C259.99 647.995 260.183 648.115 260.343 648.275C260.503 648.428 260.627 648.621 260.713 648.855C260.807 649.081 260.853 649.341 260.853 649.635V652.885H259.903V649.845C259.903 649.451 259.807 649.158 259.613 648.965C259.427 648.765 259.14 648.665 258.753 648.665C258.453 648.665 258.18 648.735 257.933 648.875C257.687 649.015 257.483 649.201 257.323 649.435C257.17 649.661 257.077 649.918 257.043 650.205L257.033 649.655C257.067 649.388 257.137 649.141 257.243 648.915C257.357 648.688 257.497 648.491 257.663 648.325C257.837 648.151 258.037 648.021 258.263 647.935C258.49 647.841 258.737 647.795 259.003 647.795ZM261.89 651.265H262.77C262.803 651.531 262.923 651.751 263.13 651.925C263.337 652.091 263.627 652.175 264 652.175C264.24 652.175 264.427 652.148 264.56 652.095C264.693 652.035 264.787 651.955 264.84 651.855C264.9 651.755 264.93 651.645 264.93 651.525C264.93 651.371 264.89 651.255 264.81 651.175C264.73 651.088 264.617 651.018 264.47 650.965C264.323 650.905 264.15 650.848 263.95 650.795C263.73 650.735 263.51 650.665 263.29 650.585C263.07 650.505 262.867 650.408 262.68 650.295C262.5 650.181 262.353 650.041 262.24 649.875C262.133 649.701 262.08 649.491 262.08 649.245C262.08 649.038 262.123 648.845 262.21 648.665C262.303 648.485 262.433 648.331 262.6 648.205C262.773 648.071 262.973 647.971 263.2 647.905C263.427 647.831 263.677 647.795 263.95 647.795C264.33 647.795 264.65 647.865 264.91 648.005C265.17 648.138 265.367 648.328 265.5 648.575C265.64 648.821 265.713 649.105 265.72 649.425H264.88C264.833 649.145 264.737 648.941 264.59 648.815C264.443 648.681 264.223 648.615 263.93 648.615C263.643 648.615 263.423 648.671 263.27 648.785C263.117 648.898 263.04 649.051 263.04 649.245C263.04 649.391 263.093 649.511 263.2 649.605C263.307 649.691 263.45 649.768 263.63 649.835C263.81 649.901 264.013 649.971 264.24 650.045C264.453 650.118 264.657 650.195 264.85 650.275C265.05 650.348 265.227 650.438 265.38 650.545C265.54 650.645 265.663 650.778 265.75 650.945C265.843 651.105 265.89 651.305 265.89 651.545C265.89 651.838 265.817 652.095 265.67 652.315C265.523 652.528 265.31 652.695 265.03 652.815C264.757 652.935 264.423 652.995 264.03 652.995C263.67 652.995 263.363 652.951 263.11 652.865C262.863 652.778 262.653 652.665 262.48 652.525C262.313 652.385 262.183 652.238 262.09 652.085C262.003 651.925 261.943 651.771 261.91 651.625C261.883 651.478 261.877 651.358 261.89 651.265Z" fill="white"/>
</g>
<defs>
<linearGradient id="paint0_linear_4152_41285" x1="1616.22" y1="458.089" x2="139.214" y2="732.48" gradientUnits="userSpaceOnUse">
<stop stop-color="#23A323"/>
<stop offset="1" stop-color="#D5F6D5" stop-opacity="0"/>
</linearGradient>
<clipPath id="clip0_4152_41285">
<rect width="1440" height="827" fill="white"/>
</clipPath>
</defs>
</svg>
