<svg width="22" height="23" viewBox="0 0 22 23" fill="none" xmlns="http://www.w3.org/2000/svg">
<path d="M5.16794 5.22888C4.3744 5.22888 3.61337 5.54411 3.05225 6.10523C2.49114 6.66635 2.1759 7.42738 2.1759 8.22092V9.58094H19.5841V8.22092C19.5841 7.42738 19.2689 6.66635 18.7078 6.10523C18.1467 5.54411 17.3856 5.22888 16.5921 5.22888H5.16794ZM19.5841 10.669H2.1759V15.293C2.1759 16.0865 2.49114 16.8476 3.05225 17.4087C3.61337 17.9698 4.3744 18.285 5.16794 18.285H16.5921C17.3856 18.285 18.1467 17.9698 18.7078 17.4087C19.2689 16.8476 19.5841 16.0865 19.5841 15.293V10.669ZM14.6881 15.021H16.8641C17.0084 15.021 17.1467 15.0783 17.2488 15.1803C17.3508 15.2824 17.4081 15.4207 17.4081 15.565C17.4081 15.7093 17.3508 15.8477 17.2488 15.9497C17.1467 16.0517 17.0084 16.109 16.8641 16.109H14.6881C14.5438 16.109 14.4054 16.0517 14.3034 15.9497C14.2014 15.8477 14.1441 15.7093 14.1441 15.565C14.1441 15.4207 14.2014 15.2824 14.3034 15.1803C14.4054 15.0783 14.5438 15.021 14.6881 15.021Z" fill="#999999"/>
</svg>
