<svg width="30" height="30" viewBox="0 0 30 30" fill="none" xmlns="http://www.w3.org/2000/svg">
<circle cx="14.6974" cy="14.8931" r="14.6974" fill="#FFFBF0"/>
<path d="M15.7659 11.6879V10.6195H13.6291V11.6879H15.7659ZM10.4239 13.2904V18.0982C10.4239 18.392 10.6643 18.6324 10.9581 18.6324H18.4368C18.7307 18.6324 18.971 18.392 18.971 18.0982V13.2904C18.971 12.9966 18.7307 12.7562 18.4368 12.7562H10.9581C10.6643 12.7562 10.4239 12.9966 10.4239 13.2904ZM18.971 11.6879C19.564 11.6879 20.0394 12.1633 20.0394 12.7562V18.6324C20.0394 19.2254 19.564 19.7008 18.971 19.7008H10.4239C9.83091 19.7008 9.35547 19.2254 9.35547 18.6324L9.36081 12.7562C9.36081 12.1633 9.83091 11.6879 10.4239 11.6879H12.5607V10.6195C12.5607 10.0265 13.0361 9.55106 13.6291 9.55106H15.7659C16.3588 9.55106 16.8343 10.0265 16.8343 10.6195V11.6879H18.971Z" fill="#FFBD00"/>
</svg>
