<svg width="119" height="119" viewBox="0 0 119 119" fill="none" xmlns="http://www.w3.org/2000/svg">
<path d="M48.2752 101.367L50.007 101.857L48.9505 105.595L51.7012 114.045L49.5647 113.442L48.096 108.867L47.5784 107.235L47.4489 107.199L46.17 108.323L42.5404 111.457L40.3878 110.848L47.2279 105.074L48.2752 101.367Z" fill="#228B22"/>
<path d="M32.9056 93.6109C35.0192 95.4092 35.2967 97.964 33.6291 99.9239C31.9398 101.909 29.3845 102.032 27.2709 100.234C25.1444 98.4243 24.856 95.8823 26.5454 93.8968C28.2129 91.9369 30.7791 91.8017 32.9056 93.6109ZM31.8593 94.8406C30.3093 93.5218 29.0476 93.7071 27.9032 95.0521C26.7479 96.4099 26.7563 97.6978 28.3062 99.0166C29.8434 100.324 31.116 100.126 32.2713 98.7686C33.4157 97.4236 33.3964 96.1485 31.8593 94.8406Z" fill="#228B22"/>
<path d="M21.5955 80.4731C22.6055 82.6002 21.683 84.3042 19.9358 85.1338L15.393 87.2907L14.6211 85.665L18.7233 83.7173C20.1363 83.0464 20.5402 82.0541 19.7827 80.4588C18.9892 78.7875 17.7705 78.4166 16.1296 79.1957L12.3921 80.9703L11.6202 79.3446L19.1712 75.7594L19.8854 77.2635L17.5456 78.3744L17.5889 78.4656C18.9806 78.1027 20.6721 78.5284 21.5955 80.4731Z" fill="#228B22"/>
<path d="M16.3297 64.9167L16.4313 66.7303L8.08545 67.1978L7.99231 65.5354L10.2425 65.4093L10.2359 65.2917C8.87841 65.1151 7.75289 64.2685 7.65693 62.5557C7.55062 60.6581 8.86472 59.7591 10.4432 59.6707L11.5347 59.6095L11.6354 61.4063L10.8965 61.4477C9.70425 61.5145 9.17832 62.0493 9.24794 63.292C9.3279 64.7193 10.1501 65.2629 11.6446 65.1791L16.3297 64.9167Z" fill="#228B22"/>
<path d="M21.233 38.967L18.584 43.3599L8.93409 37.541L11.583 33.1481C13.3895 30.1523 16.3708 29.3772 19.3522 31.175C22.3336 32.9728 23.0395 35.9712 21.233 38.967ZM12.9801 33.9905L11.2605 36.8423L18.1163 40.9764L19.8359 38.1246C21.1821 35.8921 20.8394 34.3107 18.3621 32.8169C15.8848 31.3231 14.3263 31.7581 12.9801 33.9905Z" fill="#228B22"/>
<path d="M32.0564 25.8253L30.5703 26.8699L25.7634 20.0313L27.1256 19.0738L28.4217 20.9176L28.518 20.8499C27.9506 19.604 28.0747 18.2011 29.4781 17.2146C31.033 16.1217 32.4906 16.7623 33.3998 18.0557L34.0285 18.9501L32.5562 19.985L32.1306 19.3796C31.4439 18.4026 30.7119 18.2387 29.6937 18.9544C28.5242 19.7765 28.4971 20.7617 29.3579 21.9864L32.0564 25.8253Z" fill="#228B22"/>
<path d="M47.7848 17.966C45.117 18.5974 43.0094 17.5061 42.3664 14.7893C41.766 12.2524 43.0981 10.1397 45.7495 9.51218C48.2699 8.91565 50.3177 9.90011 50.9026 12.3715C50.9723 12.6661 51.0102 12.8991 51.0192 13.1562L44.1124 14.7908C44.5498 16.3465 45.5165 16.9992 47.3987 16.5537C49.1009 16.1509 49.6729 15.4279 49.4444 14.4622L49.4134 14.3313L51.181 13.913L51.2159 14.0603C51.6265 15.7951 50.2071 17.3927 47.7848 17.966ZM46.046 10.9111C44.2456 11.3372 43.6498 12.3251 43.8964 13.805L49.1828 12.5538L49.1751 12.5211C48.8187 11.0153 47.7809 10.5005 46.046 10.9111Z" fill="#228B22"/>
<path d="M63.4984 16.4923C61.7907 16.2009 60.8489 15.2212 61.0808 13.8617C61.2987 12.5851 62.4398 12.0974 64.0956 12.1922L67.9104 12.4337L67.9925 11.9529C68.2245 10.5934 67.7097 10.0108 66.1346 9.74202C64.6094 9.48174 63.7784 9.85181 63.5719 11.0621L63.5606 11.1284L61.7866 10.8257L61.7979 10.7594C62.1176 8.88593 63.9165 7.74263 66.536 8.18963C69.1556 8.63663 70.0894 10.2633 69.7527 12.2362L68.8983 17.2432L67.257 16.9631L67.6078 14.9073L67.4917 14.8874C66.823 16.2065 65.3718 16.812 63.4984 16.4923ZM62.8912 14.0512C62.778 14.7144 63.1719 15.1058 64.1998 15.2812C66.0733 15.6009 67.4521 15.1196 67.7294 13.4948L64.4342 13.3079C63.486 13.2655 63.0015 13.4046 62.8912 14.0512Z" fill="#228B22"/>
<path d="M79.971 20.5576L78.5541 19.421L83.7845 12.9006L85.0833 13.9425L83.5047 15.9104L83.5834 15.9736C84.6275 15.0214 86.1463 14.5795 87.7731 15.8845C89.2556 17.0737 89.3297 18.6209 88.5136 20.0146L88.5924 20.0777C89.6574 19.0994 91.2235 18.6523 92.8766 19.9783C94.569 21.3359 94.4956 23.1745 93.2328 24.7488L90.0861 28.6715L88.6823 27.5455L91.5238 24.0032C92.5551 22.7175 92.4855 21.756 91.226 20.7457C89.8354 19.6302 88.7685 19.9388 87.6109 21.3819L85.022 24.6093L83.6182 23.4832L86.4597 19.941C87.491 18.6553 87.4345 17.7043 86.175 16.694C84.7712 15.568 83.7175 15.887 82.5599 17.3302L79.971 20.5576Z" fill="#228B22"/>
<path d="M101.401 49.4793C100.936 46.7605 102.373 44.6889 104.91 44.2551C107.479 43.8157 109.507 45.2946 109.972 48.0135C110.394 50.4836 109.311 52.5288 107.255 52.8804L107.089 52.9087L106.786 51.1349L106.885 51.1178C108.162 50.8995 108.633 49.8634 108.358 48.2553C108.041 46.3986 107.02 45.7199 105.213 46.029C103.439 46.3324 102.686 47.3144 103.003 49.1711C103.278 50.7792 104.067 51.5998 105.344 51.3815L105.46 51.3617L105.763 53.1355L105.581 53.1667C103.525 53.5183 101.823 51.9495 101.401 49.4793Z" fill="#228B22"/>
<path d="M101.895 67.6047C102.364 65.9371 103.438 65.1034 104.765 65.4769C106.012 65.8277 106.377 67.0137 106.109 68.6505L105.468 72.4188L105.937 72.5509C107.265 72.9244 107.898 72.4737 108.331 70.9356C108.75 69.4461 108.469 68.5809 107.288 68.2484L107.223 68.2301L107.71 66.4978L107.775 66.516C109.604 67.0308 110.552 68.9398 109.833 71.4979C109.113 74.0559 107.397 74.8137 105.471 74.2716L100.581 72.8959L101.032 71.2931L103.04 71.8579L103.072 71.7446C101.83 70.941 101.38 69.4342 101.895 67.6047ZM104.386 67.2574C103.739 67.0752 103.308 67.4257 103.026 68.4295C102.511 70.259 102.845 71.6808 104.431 72.1272L104.964 68.8699C105.105 67.9314 105.018 67.435 104.386 67.2574Z" fill="#228B22"/>
<path d="M93.9757 85.9886C95.8975 84.1049 97.7322 83.7903 99.0861 85.1715L99.1214 85.2076L97.8242 86.4791L97.73 86.383C96.9648 85.6023 96.2491 85.8092 94.9999 87.0336C93.8349 88.1756 93.722 88.7572 94.24 89.2857C94.7227 89.7782 95.1641 89.6518 96.1346 88.936L97.98 87.551C99.2503 86.5885 100.406 86.3979 101.383 87.3948C102.407 88.4397 102.188 90.1145 100.351 91.9158C98.525 93.7053 96.7018 94.0558 95.3126 92.6385L95.2773 92.6024L96.5624 91.3427L96.6331 91.4148C97.3277 92.1234 98.053 92.1426 99.3742 90.8475C100.467 89.7762 100.616 89.1592 100.063 88.5947C99.6036 88.1263 99.1986 88.1936 98.18 88.9564L96.6104 90.1182C95.0165 91.3272 93.8969 91.4826 92.9315 90.4976C91.8366 89.3806 92.2941 87.6369 93.9757 85.9886Z" fill="#228B22"/>
<path d="M84.52 96.2824L86.2748 95.8132L89.186 106.699L87.4312 107.169L86.019 101.888L85.9216 101.914C86.0103 103.353 85.3581 104.885 83.2946 105.437C81.0687 106.032 79.589 104.861 79.0633 102.895L77.7771 98.0856L79.5156 97.6207L80.6888 102.008C81.1233 103.632 82.0283 104.087 83.7018 103.639C85.6191 103.127 86.0234 101.904 85.5672 100.198L84.52 96.2824Z" fill="#228B22"/>
<g filter="url(#filter0_d_2790_31980)">
<circle cx="61.9317" cy="55.9234" r="20.6031" fill="white"/>
</g>
<path d="M58.1472 61.3899L66.5566 52.9805" stroke="#228B22" stroke-width="1.68189" stroke-linecap="round" stroke-linejoin="round"/>
<path d="M58.1472 52.9805H66.5566V61.3899" stroke="#228B22" stroke-width="1.68189" stroke-linecap="round" stroke-linejoin="round"/>
<defs>
<filter id="filter0_d_2790_31980" x="21.146" y="18.5015" width="81.5716" height="81.5723" filterUnits="userSpaceOnUse" color-interpolation-filters="sRGB">
<feFlood flood-opacity="0" result="BackgroundImageFix"/>
<feColorMatrix in="SourceAlpha" type="matrix" values="0 0 0 0 0 0 0 0 0 0 0 0 0 0 0 0 0 0 127 0" result="hardAlpha"/>
<feOffset dy="3.36377"/>
<feGaussianBlur stdDeviation="10.0913"/>
<feComposite in2="hardAlpha" operator="out"/>
<feColorMatrix type="matrix" values="0 0 0 0 0.458333 0 0 0 0 0.458333 0 0 0 0 0.458333 0 0 0 0.1 0"/>
<feBlend mode="normal" in2="BackgroundImageFix" result="effect1_dropShadow_2790_31980"/>
<feBlend mode="normal" in="SourceGraphic" in2="effect1_dropShadow_2790_31980" result="shape"/>
</filter>
</defs>
</svg>
