<svg width="36" height="35" viewBox="0 0 36 35" fill="none" xmlns="http://www.w3.org/2000/svg">
<circle cx="18.0505" cy="17.1329" r="17.0685" fill="#F2FCF2"/>
<g clip-path="url(#clip0_4582_45991)">
<path d="M17.7596 13.5114C17.116 13.5114 16.4869 13.7023 15.9517 14.0599C15.4166 14.4174 14.9995 14.9256 14.7532 15.5202C14.507 16.1148 14.4425 16.7691 14.5681 17.4003C14.6936 18.0316 15.0035 18.6114 15.4586 19.0665C15.9137 19.5215 16.4935 19.8315 17.1248 19.957C17.756 20.0826 18.4103 20.0181 19.0049 19.7719C19.5995 19.5256 20.1077 19.1085 20.4652 18.5734C20.8228 18.0382 21.0136 17.4091 21.0136 16.7655C21.0136 15.9025 20.6708 15.0748 20.0606 14.4645C19.4503 13.8543 18.6226 13.5114 17.7596 13.5114ZM17.7596 18.7179C17.3734 18.7179 16.996 18.6034 16.6749 18.3889C16.3538 18.1744 16.1036 17.8694 15.9558 17.5127C15.808 17.1559 15.7693 16.7633 15.8447 16.3846C15.92 16.0059 16.106 15.658 16.379 15.3849C16.6521 15.1119 17 14.9259 17.3787 14.8506C17.7574 14.7752 18.15 14.8139 18.5068 14.9617C18.8635 15.1095 19.1684 15.3597 19.383 15.6808C19.5975 16.0019 19.712 16.3793 19.712 16.7655C19.712 17.2833 19.5063 17.7799 19.1402 18.1461C18.774 18.5122 18.2774 18.7179 17.7596 18.7179ZM26.8709 10.9082H8.64825C8.47564 10.9082 8.31011 10.9768 8.18805 11.0988C8.066 11.2209 7.99744 11.3864 7.99744 11.559V21.972C7.99744 22.1446 8.066 22.3101 8.18805 22.4322C8.31011 22.5542 8.47564 22.6228 8.64825 22.6228H26.8709C27.0436 22.6228 27.2091 22.5542 27.3311 22.4322C27.4532 22.3101 27.5218 22.1446 27.5218 21.972V11.559C27.5218 11.3864 27.4532 11.2209 27.3311 11.0988C27.2091 10.9768 27.0436 10.9082 26.8709 10.9082ZM23.1003 21.3212H12.4189C12.2004 20.5822 11.8005 19.9096 11.2555 19.3647C10.7106 18.8198 10.0381 18.4199 9.29906 18.2013V15.3296C10.0381 15.1111 10.7106 14.7112 11.2555 14.1663C11.8005 13.6214 12.2004 12.9488 12.4189 12.2098H23.1003C23.3188 12.9488 23.7187 13.6214 24.2636 14.1663C24.8086 14.7112 25.4811 15.1111 26.2201 15.3296V18.2013C25.4811 18.4199 24.8086 18.8198 24.2636 19.3647C23.7187 19.9096 23.3188 20.5822 23.1003 21.3212ZM26.2201 13.9483C25.4395 13.6126 24.8173 12.9904 24.4817 12.2098H26.2201V13.9483ZM11.0375 12.2098C10.7019 12.9904 10.0797 13.6126 9.29906 13.9483V12.2098H11.0375ZM9.29906 19.5827C10.0797 19.9184 10.7019 20.5406 11.0375 21.3212H9.29906V19.5827ZM24.4817 21.3212C24.8173 20.5406 25.4395 19.9184 26.2201 19.5827V21.3212H24.4817Z" fill="#23A323"/>
</g>
<defs>
<clipPath id="clip0_4582_45991">
<rect width="20.8259" height="20.8259" fill="white" transform="translate(8.34705 7.35156)"/>
</clipPath>
</defs>
</svg>
