<svg width="194" height="99" viewBox="0 0 194 99" fill="none" xmlns="http://www.w3.org/2000/svg">
<circle cx="37.1895" cy="37.1318" r="36.7861" fill="#FFBD00"/>
<path d="M24.1635 19.5195C24.5944 19.5195 25.0078 19.3483 25.3125 19.0436C25.6173 18.7388 25.7885 18.3255 25.7885 17.8945C25.7885 17.4636 25.6173 17.0502 25.3125 16.7455C25.0078 16.4407 24.5944 16.2695 24.1635 16.2695V19.5195ZM33.0706 16.2695C32.6397 16.2695 32.2263 16.4407 31.9216 16.7455C31.6168 17.0502 31.4456 17.4636 31.4456 17.8945C31.4456 18.3255 31.6168 18.7388 31.9216 19.0436C32.2263 19.3483 32.6397 19.5195 33.0706 19.5195V16.2695ZM50.6445 19.5195C54.3495 19.5195 57.4456 22.6395 57.4456 26.6045H60.6956C60.6956 20.9495 56.2453 16.2695 50.6445 16.2695V19.5195ZM24.1635 16.2695C18.5626 16.2695 14.1145 20.9495 14.1145 26.6045H17.3645C17.3645 22.6395 20.4585 19.5195 24.1635 19.5195V16.2695ZM57.4456 26.6045C57.4456 30.2164 54.8673 33.1392 51.6108 33.6202L52.0875 36.8355C56.995 36.1097 60.6956 31.7699 60.6956 26.6045H57.4456ZM23.1971 33.6202C19.9385 33.1392 17.3645 30.2185 17.3645 26.6045H14.1123C14.1123 31.7699 17.813 36.1097 22.7226 36.8355L23.1971 33.6202ZM33.0706 19.5195H50.6445V16.2695H33.0706V19.5195Z" fill="white"/>
<path d="M37.4036 30.8945V41.7279M37.4036 41.7279L41.737 36.673M37.4036 41.7279L33.0703 36.673" stroke="white" stroke-width="3.25" stroke-linecap="round" stroke-linejoin="round"/>
<path d="M22.2373 33.0612C22.2373 28.9749 22.2373 26.9339 23.507 25.6642C24.7766 24.3945 26.8176 24.3945 30.904 24.3945H43.904C47.9903 24.3945 50.0313 24.3945 51.301 25.6642C52.5706 26.9339 52.5706 28.9749 52.5706 33.0612V46.0612C52.5706 50.1475 52.5706 52.1885 51.301 53.4582C50.0313 54.7279 47.9903 54.7279 43.904 54.7279H30.904C26.8176 54.7279 24.7766 54.7279 23.507 53.4582C22.2373 52.1885 22.2373 50.1475 22.2373 46.0612V33.0612Z" stroke="white" stroke-width="3.25"/>
<path d="M22.2373 48.2285H39.5706M52.5706 48.2285H48.2373" stroke="white" stroke-width="3.25" stroke-linecap="round" stroke-linejoin="round"/>
<line x1="0.40332" y1="97.5371" x2="193.086" y2="97.5371" stroke="url(#paint0_linear_7575_73306)"/>
<defs>
<linearGradient id="paint0_linear_7575_73306" x1="0.40332" y1="98.0371" x2="193.086" y2="98.0371" gradientUnits="userSpaceOnUse">
<stop stop-color="#FFBD00"/>
<stop offset="0.963542" stop-color="#FFBD00" stop-opacity="0"/>
</linearGradient>
</defs>
</svg>
