<svg width="31" height="31" viewBox="0 0 31 31" fill="none" xmlns="http://www.w3.org/2000/svg">
<circle cx="15.4952" cy="15.472" r="14.6974" fill="#F3FCF3"/>
<g clip-path="url(#clip0_3231_34892)">
<path d="M9.96826 15.7471C9.96826 13.5402 9.96826 12.4365 10.6541 11.7512C11.3394 11.0653 12.4432 11.0653 14.6501 11.0653H16.991C19.1979 11.0653 20.3016 11.0653 20.9869 11.7512C21.6728 12.4365 21.6728 13.5402 21.6728 15.7471C21.6728 17.954 21.6728 19.0577 20.9869 19.743C20.3016 20.4289 19.1979 20.4289 16.991 20.4289H14.6501C12.4432 20.4289 11.3394 20.4289 10.6541 19.743C9.96826 19.0577 9.96826 17.954 9.96826 15.7471Z" stroke="#228B22" stroke-width="0.877838"/>
<path d="M14.6501 18.088H12.3092M16.991 18.088H16.1131M9.96826 14.5766H21.6728" stroke="#228B22" stroke-width="0.877838" stroke-linecap="round"/>
</g>
<defs>
<clipPath id="clip0_3231_34892">
<rect width="14.0454" height="14.0454" fill="white" transform="translate(8.79785 8.72437)"/>
</clipPath>
</defs>
</svg>
