<svg width="74" height="74" viewBox="0 0 74 74" fill="none" xmlns="http://www.w3.org/2000/svg">
<circle cx="37.2374" cy="36.8456" r="36.369" fill="#FFFBF0"/>
<path d="M51.2184 25.3508H26.4338C24.7143 25.3508 23.3512 26.7295 23.3512 28.4489L23.3357 47.0374C23.3357 48.7568 24.7143 50.1355 26.4338 50.1355H32.6299C33.4819 50.1355 34.179 49.4384 34.179 48.5864C34.179 47.7345 33.4819 47.0374 32.6299 47.0374H26.4338V37.7432H54.3165V28.4489C54.3165 26.745 52.9224 25.3508 51.2184 25.3508ZM51.2184 31.547H26.4338V28.4489H51.2184V31.547ZM43.3648 48.8498L40.0808 45.5658C39.9374 45.4224 39.7672 45.3086 39.5798 45.231C39.3924 45.1534 39.1916 45.1135 38.9887 45.1135C38.7859 45.1135 38.5851 45.1534 38.3977 45.231C38.2103 45.3086 38.0401 45.4224 37.8967 45.5658C37.7533 45.7092 37.6395 45.8795 37.5619 46.0669C37.4843 46.2542 37.4443 46.4551 37.4443 46.6579C37.4443 46.8607 37.4843 47.0615 37.5619 47.2489C37.6395 47.4363 37.7533 47.6065 37.8967 47.75L42.2805 52.1337C42.8846 52.7379 43.8605 52.7379 44.4646 52.1337L53.2322 43.3662C53.5218 43.0765 53.6845 42.6837 53.6845 42.2741C53.6845 41.8645 53.5218 41.4717 53.2322 41.182C52.9425 40.8924 52.5497 40.7297 52.1401 40.7297C51.7305 40.7297 51.3377 40.8924 51.048 41.182L43.3648 48.8498Z" fill="#FFBD00"/>
</svg>
