<svg width="44" height="43" viewBox="0 0 44 43" fill="none" xmlns="http://www.w3.org/2000/svg">
<rect x="1.08789" y="0.759277" width="41.5714" height="41.5714" rx="5.83459" fill="#FFF5F0" stroke="#FF823B" stroke-width="1.09398"/>
<path d="M18.773 14.1724C18.4898 14.1724 18.2182 14.2849 18.0179 14.4851C17.8176 14.6854 17.7051 14.957 17.7051 15.2402C17.7051 15.5235 17.8176 15.7951 18.0179 15.9954C18.2182 16.1956 18.4898 16.3081 18.773 16.3081H25.1803C25.4635 16.3081 25.7351 16.1956 25.9354 15.9954C26.1357 15.7951 26.2482 15.5235 26.2482 15.2402C26.2482 14.957 26.1357 14.6854 25.9354 14.4851C25.7351 14.2849 25.4635 14.1724 25.1803 14.1724H18.773ZM15.5694 18.4439C15.5694 18.1607 15.6819 17.8891 15.8821 17.6888C16.0824 17.4885 16.354 17.376 16.6372 17.376H27.3161C27.5993 17.376 27.8709 17.4885 28.0712 17.6888C28.2714 17.8891 28.3839 18.1607 28.3839 18.4439C28.3839 18.7271 28.2714 18.9987 28.0712 19.199C27.8709 19.3993 27.5993 19.5118 27.3161 19.5118H16.6372C16.354 19.5118 16.0824 19.3993 15.8821 19.199C15.6819 18.9987 15.5694 18.7271 15.5694 18.4439ZM13.4336 22.7154C13.4336 22.149 13.6586 21.6057 14.0591 21.2052C14.4597 20.8047 15.0029 20.5797 15.5694 20.5797H28.3839C28.9504 20.5797 29.4936 20.8047 29.8942 21.2052C30.2947 21.6057 30.5197 22.149 30.5197 22.7154V26.9869C30.5197 27.5534 30.2947 28.0966 29.8942 28.4972C29.4936 28.8977 28.9504 29.1227 28.3839 29.1227H15.5694C15.0029 29.1227 14.4597 28.8977 14.0591 28.4972C13.6586 28.0966 13.4336 27.5534 13.4336 26.9869V22.7154Z" fill="#FF823B"/>
</svg>
