<svg width="41" height="40" viewBox="0 0 41 40" fill="none" xmlns="http://www.w3.org/2000/svg">
<circle cx="20.8175" cy="20.0003" r="19.8723" fill="#FFF5F0"/>
<path d="M18.3444 12.7578C18.0868 12.7578 17.8397 12.8602 17.6575 13.0424C17.4753 13.2246 17.3729 13.4717 17.3729 13.7293C17.3729 13.987 17.4753 14.2341 17.6575 14.4163C17.8397 14.5985 18.0868 14.7009 18.3444 14.7009H24.1736C24.4313 14.7009 24.6784 14.5985 24.8606 14.4163C25.0428 14.2341 25.1452 13.987 25.1452 13.7293C25.1452 13.4717 25.0428 13.2246 24.8606 13.0424C24.6784 12.8602 24.4313 12.7578 24.1736 12.7578H18.3444ZM15.4298 16.644C15.4298 16.3863 15.5322 16.1392 15.7144 15.957C15.8966 15.7748 16.1437 15.6724 16.4014 15.6724H26.1167C26.3744 15.6724 26.6215 15.7748 26.8037 15.957C26.9859 16.1392 27.0883 16.3863 27.0883 16.644C27.0883 16.9016 26.9859 17.1487 26.8037 17.3309C26.6215 17.5131 26.3744 17.6155 26.1167 17.6155H16.4014C16.1437 17.6155 15.8966 17.5131 15.7144 17.3309C15.5322 17.1487 15.4298 16.9016 15.4298 16.644ZM13.4868 20.5301C13.4868 20.0148 13.6915 19.5205 14.0559 19.1561C14.4203 18.7917 14.9145 18.587 15.4298 18.587H27.0883C27.6036 18.587 28.0978 18.7917 28.4622 19.1561C28.8266 19.5205 29.0313 20.0148 29.0313 20.5301V24.4162C29.0313 24.9316 28.8266 25.4258 28.4622 25.7902C28.0978 26.1546 27.6036 26.3593 27.0883 26.3593H15.4298C14.9145 26.3593 14.4203 26.1546 14.0559 25.7902C13.6915 25.4258 13.4868 24.9316 13.4868 24.4162V20.5301Z" fill="#FF823B"/>
</svg>
