<svg width="73" height="73" viewBox="0 0 73 73" fill="none" xmlns="http://www.w3.org/2000/svg">
<path d="M21.6201 20.1797C23.277 20.1797 24.6201 18.8365 24.6201 17.1797C24.6201 15.5228 23.277 14.1797 21.6201 14.1797C19.9633 14.1797 18.6201 15.5228 18.6201 17.1797C18.6201 18.8365 19.9633 20.1797 21.6201 20.1797Z" fill="#FFA65B"/>
<path d="M56.6123 29.5039C58.2692 29.5039 59.6123 28.1608 59.6123 26.5039C59.6123 24.8471 58.2692 23.5039 56.6123 23.5039C54.9555 23.5039 53.6123 24.8471 53.6123 26.5039C53.6123 28.1608 54.9555 29.5039 56.6123 29.5039Z" fill="#FFA65B"/>
<path d="M30.6133 50.1875C32.2701 50.1875 33.6133 48.8444 33.6133 47.1875C33.6133 45.5306 32.2701 44.1875 30.6133 44.1875C28.9564 44.1875 27.6133 45.5306 27.6133 47.1875C27.6133 48.8444 28.9564 50.1875 30.6133 50.1875Z" fill="#FFA65B"/>
<path d="M16.0569 27.2831L19.1379 24.5691L23.9719 24.3711L26.9409 27.1981L27.6249 31.1781L15.5439 31.1701L16.0569 27.2831ZM51.1109 36.6091L54.1929 33.8951L59.0269 33.6971L61.9949 36.5241L62.6799 40.5041L50.5979 40.4971L51.1109 36.6091ZM25.1049 57.2911L28.1859 54.5771L33.0209 54.3791L35.9889 57.2061L36.6729 61.1861L24.5919 61.1781L25.1049 57.2911Z" fill="#FFA65B"/>
<path d="M21.6201 20.1797C23.277 20.1797 24.6201 18.8365 24.6201 17.1797C24.6201 15.5228 23.277 14.1797 21.6201 14.1797C19.9633 14.1797 18.6201 15.5228 18.6201 17.1797C18.6201 18.8365 19.9633 20.1797 21.6201 20.1797Z" stroke="#FFA65B" stroke-width="2" stroke-miterlimit="10"/>
<path d="M15.6201 30.1782C15.6201 30.1782 16.6201 25.8672 18.6201 24.8672C20.6201 23.8672 22.6201 23.8672 24.6201 24.8672C26.6201 25.8672 27.6201 30.1782 27.6201 30.1782" stroke="#FFA65B" stroke-width="2" stroke-miterlimit="10" stroke-linecap="round" stroke-linejoin="round"/>
<path d="M56.6123 29.5039C58.2692 29.5039 59.6123 28.1608 59.6123 26.5039C59.6123 24.8471 58.2692 23.5039 56.6123 23.5039C54.9555 23.5039 53.6123 24.8471 53.6123 26.5039C53.6123 28.1608 54.9555 29.5039 56.6123 29.5039Z" stroke="#FFA65B" stroke-width="2" stroke-miterlimit="10"/>
<path d="M50.6123 39.5024C50.6123 39.5024 51.6123 35.1914 53.6123 34.1914C55.6123 33.1914 57.6123 33.1914 59.6123 34.1914C61.6123 35.1914 62.6123 39.5014 62.6123 39.5014" stroke="#FFA65B" stroke-width="2" stroke-miterlimit="10" stroke-linecap="round" stroke-linejoin="round"/>
<path d="M30.6133 50.1875C32.2701 50.1875 33.6133 48.8444 33.6133 47.1875C33.6133 45.5306 32.2701 44.1875 30.6133 44.1875C28.9564 44.1875 27.6133 45.5306 27.6133 47.1875C27.6133 48.8444 28.9564 50.1875 30.6133 50.1875Z" stroke="#FFA65B" stroke-width="2" stroke-miterlimit="10"/>
<path d="M24.6131 60.1877C24.6131 60.1877 25.6131 55.8767 27.6131 54.8767C29.6131 53.8767 31.6131 53.8767 33.6131 54.8767C35.6131 55.8767 36.6131 60.1867 36.6131 60.1867M53.1721 20.3157C48.9531 15.3387 42.6551 12.1797 35.6201 12.1797C32.8501 12.1797 30.1961 12.6697 27.7371 13.5667M40.0531 57.7527C48.2661 56.1487 54.9151 50.1757 57.4801 42.3507M12.7071 33.1677C12.6491 33.8368 12.6201 34.5081 12.6201 35.1797C12.6201 43.1537 16.6781 50.1797 22.8421 54.3067" stroke="#FFA65B" stroke-width="2" stroke-miterlimit="10" stroke-linecap="round" stroke-linejoin="round"/>
</svg>
