<svg width="36" height="35" viewBox="0 0 36 35" fill="none" xmlns="http://www.w3.org/2000/svg">
<circle cx="17.9884" cy="17.1312" r="17.0685" fill="white"/>
<path d="M23.9231 14.3506L23.7403 12.6042C23.4755 10.7003 22.6118 9.9248 20.7645 9.9248H19.2767H18.3436H16.427H15.4939H13.9809C12.1273 9.9248 11.2699 10.7003 10.9988 12.6231L10.8286 14.3569C10.7656 15.0315 10.9484 15.6871 11.3456 16.1978C11.8247 16.822 12.5623 17.175 13.3819 17.175C14.1763 17.175 14.9391 16.7778 15.4183 16.1411C15.847 16.7778 16.5783 17.175 17.3916 17.175C18.2049 17.175 18.9173 16.7967 19.3523 16.1663C19.8378 16.7904 20.588 17.175 21.3698 17.175C22.2083 17.175 22.9648 16.803 23.4376 16.1474C23.8159 15.643 23.9861 15.0063 23.9231 14.3506Z" fill="#23A323"/>
<path d="M16.9821 19.6394C16.1814 19.7214 15.5762 20.4023 15.5762 21.2092V22.9367C15.5762 23.1069 15.7149 23.2456 15.8851 23.2456H18.8924C19.0626 23.2456 19.2013 23.1069 19.2013 22.9367V21.4299C19.2076 20.1122 18.4321 19.4881 16.9821 19.6394Z" fill="#23A323"/>
<path d="M23.2991 18.2148V20.0936C23.2991 21.8336 21.8868 23.2458 20.1468 23.2458C19.9766 23.2458 19.8379 23.1071 19.8379 22.9369V21.4301C19.8379 20.6231 19.592 19.9927 19.1129 19.564C18.6904 19.1794 18.1167 18.9903 17.4043 18.9903C17.2467 18.9903 17.0891 18.9966 16.9189 19.0155C15.7967 19.129 14.9456 20.0746 14.9456 21.2095V22.9369C14.9456 23.1071 14.8069 23.2458 14.6366 23.2458C12.8966 23.2458 11.4844 21.8336 11.4844 20.0936V18.2274C11.4844 17.7861 11.9194 17.4898 12.3292 17.6348C12.4994 17.6915 12.6696 17.7357 12.8462 17.7609C12.9218 17.7735 13.0038 17.7861 13.0794 17.7861C13.1803 17.7987 13.2812 17.805 13.382 17.805C14.1134 17.805 14.8321 17.5339 15.3995 17.0674C15.9417 17.5339 16.6478 17.805 17.3917 17.805C18.142 17.805 18.8355 17.5465 19.3776 17.08C19.945 17.5402 20.6512 17.805 21.3699 17.805C21.4834 17.805 21.5968 17.7987 21.704 17.7861C21.7797 17.7798 21.849 17.7735 21.9184 17.7609C22.1138 17.7357 22.2903 17.6789 22.4669 17.6222C22.8767 17.4835 23.2991 17.7861 23.2991 18.2148Z" fill="#23A323"/>
</svg>
