<svg width="1438" height="860" viewBox="0 0 1438 860" fill="none" xmlns="http://www.w3.org/2000/svg">
<g clip-path="url(#clip0_3203_31184)">
<rect x="-5.06885" width="1443.07" height="844" fill="white"/>
<g opacity="0.05">
<path d="M195.871 256.13C265.64 325.899 309.138 408.69 323.087 486.12C337.036 563.552 321.431 635.557 273.099 683.889C224.767 732.221 152.762 747.826 75.3295 733.877C-2.10023 719.928 -84.891 676.43 -154.66 606.661C-224.43 536.892 -267.927 454.101 -281.876 376.671C-295.826 299.238 -280.22 227.234 -231.888 178.902C-183.556 130.57 -111.552 114.964 -34.119 128.914C43.3107 142.863 126.101 186.36 195.871 256.13Z" stroke="black" stroke-width="1.30798"/>
<path d="M237.726 214.274C307.496 284.043 350.993 366.834 364.942 444.264C378.892 521.696 363.286 593.701 314.954 642.033C266.622 690.365 194.618 705.97 117.185 692.021C39.7552 678.072 -43.0356 634.574 -112.805 564.805C-182.574 495.036 -226.072 412.245 -240.021 334.815C-253.97 257.382 -238.365 185.378 -190.033 137.046C-141.701 88.7139 -69.6961 73.1082 7.73643 87.0577C85.1661 101.007 167.957 144.504 237.726 214.274Z" stroke="black" stroke-width="1.30798"/>
<path d="M279.582 172.418C349.351 242.188 392.849 324.978 406.798 402.408C420.747 479.841 405.142 551.845 356.81 600.177C308.477 648.509 236.473 664.115 159.04 650.165C81.6107 636.216 -1.18009 592.719 -70.9494 522.949C-140.719 453.18 -184.216 370.389 -198.165 292.96C-212.115 215.527 -196.509 143.523 -148.177 95.1905C-99.8452 46.8585 -27.8407 31.2527 49.5919 45.2022C127.022 59.1513 209.812 102.649 279.582 172.418Z" stroke="black" stroke-width="1.30798"/>
</g>
<path opacity="0.1" d="M678 455.531C718 513.501 788.847 615.329 888.515 602.021C988.184 588.714 1021.3 424.288 1111.34 397.674C1201.38 371.059 1238 428 1280 486.306" stroke="url(#paint0_linear_3203_31184)" stroke-width="144" stroke-linecap="round"/>
</g>
<defs>
<linearGradient id="paint0_linear_3203_31184" x1="678" y1="393" x2="1280" y2="393" gradientUnits="userSpaceOnUse">
<stop stop-color="#23A323"/>
<stop offset="1" stop-color="#FF823B"/>
</linearGradient>
<clipPath id="clip0_3203_31184">
<rect width="1438" height="860" fill="white"/>
</clipPath>
</defs>
</svg>
