<svg width="654" height="258" viewBox="0 0 654 258" fill="none" xmlns="http://www.w3.org/2000/svg">
<path d="M15.96 57L1.2 18.06H7.5L20.1 52.08H18.3L30.36 18.06H36.78L48.84 52.08H47.1L59.7 18.06H65.82L51.24 57H44.7L32.76 22.38H34.44L22.44 57H15.96ZM90.63 47.28H96.09C95.77 49.24 95.01 51 93.81 52.56C92.61 54.12 91.03 55.36 89.07 56.28C87.11 57.2 84.81 57.66 82.17 57.66C79.05 57.66 76.27 57 73.83 55.68C71.39 54.36 69.47 52.54 68.07 50.22C66.67 47.9 65.97 45.2 65.97 42.12C65.97 39 66.65 36.28 68.01 33.96C69.37 31.6 71.25 29.76 73.65 28.44C76.05 27.12 78.79 26.46 81.87 26.46C85.11 26.46 87.83 27.1 90.03 28.38C92.23 29.66 93.85 31.56 94.89 34.08C95.97 36.56 96.41 39.66 96.21 43.38H71.67C71.87 45.18 72.41 46.78 73.29 48.18C74.21 49.58 75.41 50.68 76.89 51.48C78.41 52.28 80.15 52.68 82.11 52.68C84.31 52.68 86.15 52.18 87.63 51.18C89.11 50.18 90.11 48.88 90.63 47.28ZM81.93 31.38C79.33 31.38 77.17 32.08 75.45 33.48C73.73 34.84 72.59 36.66 72.03 38.94H90.45C90.29 36.5 89.41 34.64 87.81 33.36C86.21 32.04 84.25 31.38 81.93 31.38ZM138.68 57V38.94C138.68 37.34 138.42 36.02 137.9 34.98C137.38 33.94 136.6 33.16 135.56 32.64C134.52 32.08 133.2 31.8 131.6 31.8C129.84 31.8 128.22 32.22 126.74 33.06C125.3 33.86 124.12 34.96 123.2 36.36C122.28 37.72 121.72 39.26 121.52 40.98L121.46 37.56C121.66 36 122.08 34.54 122.72 33.18C123.4 31.82 124.24 30.64 125.24 29.64C126.28 28.64 127.48 27.86 128.84 27.3C130.2 26.74 131.68 26.46 133.28 26.46C134.96 26.46 136.48 26.7 137.84 27.18C139.2 27.62 140.36 28.32 141.32 29.28C142.32 30.2 143.08 31.34 143.6 32.7C144.12 34.02 144.38 35.54 144.38 37.26V57H138.68ZM116.18 57V15.06H121.88V57H116.18ZM164.324 57.6C161.764 57.6 159.424 56.94 157.304 55.62C155.184 54.3 153.504 52.48 152.264 50.16C151.024 47.8 150.404 45.1 150.404 42.06C150.404 39.02 151.024 36.34 152.264 34.02C153.544 31.66 155.284 29.82 157.484 28.5C159.684 27.14 162.144 26.46 164.864 26.46C167.864 26.46 170.184 27.16 171.824 28.56C173.504 29.96 174.664 31.84 175.304 34.2C175.984 36.56 176.324 39.18 176.324 42.06C176.324 43.66 176.124 45.36 175.724 47.16C175.324 48.96 174.684 50.66 173.804 52.26C172.924 53.86 171.704 55.16 170.144 56.16C168.584 57.12 166.644 57.6 164.324 57.6ZM165.944 52.62C168.064 52.62 169.844 52.16 171.284 51.24C172.764 50.28 173.864 49 174.584 47.4C175.304 45.8 175.664 44.02 175.664 42.06C175.664 39.94 175.284 38.08 174.524 36.48C173.804 34.88 172.704 33.64 171.224 32.76C169.784 31.88 168.024 31.44 165.944 31.44C162.824 31.44 160.404 32.44 158.684 34.44C157.004 36.44 156.164 38.98 156.164 42.06C156.164 44.14 156.584 45.98 157.424 47.58C158.264 49.14 159.404 50.38 160.844 51.3C162.324 52.18 164.024 52.62 165.944 52.62ZM175.664 27.06H181.424V57H176.144C176.144 57 176.104 56.64 176.024 55.92C175.944 55.16 175.864 54.26 175.784 53.22C175.704 52.18 175.664 51.26 175.664 50.46V27.06ZM202.016 52.56H200.156L209.876 27.06H216.116L203.816 57H198.416L186.236 27.06H192.536L202.016 52.56ZM243.15 47.28H248.61C248.29 49.24 247.53 51 246.33 52.56C245.13 54.12 243.55 55.36 241.59 56.28C239.63 57.2 237.33 57.66 234.69 57.66C231.57 57.66 228.79 57 226.35 55.68C223.91 54.36 221.99 52.54 220.59 50.22C219.19 47.9 218.49 45.2 218.49 42.12C218.49 39 219.17 36.28 220.53 33.96C221.89 31.6 223.77 29.76 226.17 28.44C228.57 27.12 231.31 26.46 234.39 26.46C237.63 26.46 240.35 27.1 242.55 28.38C244.75 29.66 246.37 31.56 247.41 34.08C248.49 36.56 248.93 39.66 248.73 43.38H224.19C224.39 45.18 224.93 46.78 225.81 48.18C226.73 49.58 227.93 50.68 229.41 51.48C230.93 52.28 232.67 52.68 234.63 52.68C236.83 52.68 238.67 52.18 240.15 51.18C241.63 50.18 242.63 48.88 243.15 47.28ZM234.45 31.38C231.85 31.38 229.69 32.08 227.97 33.48C226.25 34.84 225.11 36.66 224.55 38.94H242.97C242.81 36.5 241.93 34.64 240.33 33.36C238.73 32.04 236.77 31.38 234.45 31.38ZM268.519 27.06H274.219V69H268.519V27.06ZM274.879 14.7V20.88H267.739V14.7H274.879ZM310.536 57H304.836V27.06H310.536V57ZM305.136 42.9L305.196 44.7C305.156 45.22 305.016 46 304.776 47.04C304.576 48.04 304.216 49.14 303.696 50.34C303.216 51.54 302.536 52.7 301.656 53.82C300.816 54.94 299.736 55.86 298.416 56.58C297.096 57.3 295.496 57.66 293.616 57.66C292.336 57.66 291.016 57.48 289.656 57.12C288.336 56.76 287.116 56.16 285.996 55.32C284.876 54.48 283.976 53.34 283.296 51.9C282.616 50.42 282.276 48.58 282.276 46.38V27.06H288.036V45.18C288.036 47.02 288.316 48.46 288.876 49.5C289.476 50.54 290.316 51.28 291.396 51.72C292.476 52.16 293.696 52.38 295.056 52.38C297.136 52.38 298.876 51.88 300.276 50.88C301.716 49.84 302.836 48.6 303.636 47.16C304.436 45.68 304.936 44.26 305.136 42.9ZM316.757 47.28H322.037C322.237 48.88 322.957 50.2 324.197 51.24C325.437 52.24 327.177 52.74 329.417 52.74C330.857 52.74 331.977 52.58 332.777 52.26C333.577 51.9 334.137 51.42 334.457 50.82C334.817 50.22 334.997 49.56 334.997 48.84C334.997 47.92 334.757 47.22 334.277 46.74C333.797 46.22 333.117 45.8 332.237 45.48C331.357 45.12 330.317 44.78 329.117 44.46C327.797 44.1 326.477 43.68 325.157 43.2C323.837 42.72 322.617 42.14 321.497 41.46C320.417 40.78 319.537 39.94 318.857 38.94C318.217 37.9 317.897 36.64 317.897 35.16C317.897 33.92 318.157 32.76 318.677 31.68C319.237 30.6 320.017 29.68 321.017 28.92C322.057 28.12 323.257 27.52 324.617 27.12C325.977 26.68 327.477 26.46 329.117 26.46C331.397 26.46 333.317 26.88 334.877 27.72C336.437 28.52 337.617 29.66 338.417 31.14C339.257 32.62 339.697 34.32 339.737 36.24H334.697C334.417 34.56 333.837 33.34 332.957 32.58C332.077 31.78 330.757 31.38 328.997 31.38C327.277 31.38 325.957 31.72 325.037 32.4C324.117 33.08 323.657 34 323.657 35.16C323.657 36.04 323.977 36.76 324.617 37.32C325.257 37.84 326.117 38.3 327.197 38.7C328.277 39.1 329.497 39.52 330.857 39.96C332.137 40.4 333.357 40.86 334.517 41.34C335.717 41.78 336.777 42.32 337.697 42.96C338.657 43.56 339.397 44.36 339.917 45.36C340.477 46.32 340.757 47.52 340.757 48.96C340.757 50.72 340.317 52.26 339.437 53.58C338.557 54.86 337.277 55.86 335.597 56.58C333.957 57.3 331.957 57.66 329.597 57.66C327.437 57.66 325.597 57.4 324.077 56.88C322.597 56.36 321.337 55.68 320.297 54.84C319.297 54 318.517 53.12 317.957 52.2C317.437 51.24 317.077 50.32 316.877 49.44C316.717 48.56 316.677 47.84 316.757 47.28ZM344.688 27.06H364.068V32.04H344.688V27.06ZM351.528 19.14H357.228V57H351.528V19.14ZM380.606 27.06H399.986V32.04H380.606V27.06ZM387.446 19.14H393.146V57H387.446V19.14ZM428.66 57V38.94C428.66 37.34 428.4 36.02 427.88 34.98C427.36 33.94 426.58 33.16 425.54 32.64C424.5 32.08 423.18 31.8 421.58 31.8C419.82 31.8 418.2 32.22 416.72 33.06C415.28 33.86 414.1 34.96 413.18 36.36C412.26 37.72 411.7 39.26 411.5 40.98L411.44 37.56C411.64 36 412.06 34.54 412.7 33.18C413.38 31.82 414.22 30.64 415.22 29.64C416.26 28.64 417.46 27.86 418.82 27.3C420.18 26.74 421.66 26.46 423.26 26.46C424.94 26.46 426.46 26.7 427.82 27.18C429.18 27.62 430.34 28.32 431.3 29.28C432.3 30.2 433.06 31.34 433.58 32.7C434.1 34.02 434.36 35.54 434.36 37.26V57H428.66ZM406.16 57V15.06H411.86V57H406.16ZM465.044 47.28H470.504C470.184 49.24 469.424 51 468.224 52.56C467.024 54.12 465.444 55.36 463.484 56.28C461.524 57.2 459.224 57.66 456.584 57.66C453.464 57.66 450.684 57 448.244 55.68C445.804 54.36 443.884 52.54 442.484 50.22C441.084 47.9 440.384 45.2 440.384 42.12C440.384 39 441.064 36.28 442.424 33.96C443.784 31.6 445.664 29.76 448.064 28.44C450.464 27.12 453.204 26.46 456.284 26.46C459.524 26.46 462.244 27.1 464.444 28.38C466.644 29.66 468.264 31.56 469.304 34.08C470.384 36.56 470.824 39.66 470.624 43.38H446.084C446.284 45.18 446.824 46.78 447.704 48.18C448.624 49.58 449.824 50.68 451.304 51.48C452.824 52.28 454.564 52.68 456.524 52.68C458.724 52.68 460.564 52.18 462.044 51.18C463.524 50.18 464.524 48.88 465.044 47.28ZM456.344 31.38C453.744 31.38 451.584 32.08 449.864 33.48C448.144 34.84 447.004 36.66 446.444 38.94H464.864C464.704 36.5 463.824 34.64 462.224 33.36C460.624 32.04 458.664 31.38 456.344 31.38Z" fill="white"/>
<path d="M3.3 122.665H10.45V150H3.3V122.665ZM20.955 128.55C18.9017 128.55 17.1233 128.953 15.62 129.76C14.1167 130.53 12.9067 131.483 11.99 132.62C11.0733 133.757 10.4317 134.857 10.065 135.92L10.01 132.895C10.0467 132.455 10.1933 131.813 10.45 130.97C10.7067 130.09 11.0917 129.155 11.605 128.165C12.1183 127.138 12.7967 126.167 13.64 125.25C14.4833 124.297 15.51 123.527 16.72 122.94C17.93 122.353 19.3417 122.06 20.955 122.06V128.55ZM33.5702 110.675V116.945H25.2652V110.675H33.5702ZM25.8152 122.665H32.9652V150H25.8152V122.665ZM53.732 145.82C50.762 145.82 48.1403 145.38 45.867 144.5C43.6303 143.583 41.8887 142.245 40.642 140.485C39.3953 138.725 38.772 136.598 38.772 134.105C38.772 131.648 39.377 129.522 40.587 127.725C41.797 125.928 43.5203 124.535 45.757 123.545C48.0303 122.555 50.6887 122.06 53.732 122.06C54.5753 122.06 55.382 122.115 56.152 122.225C56.9587 122.335 57.747 122.482 58.517 122.665L72.322 122.72V128.11C70.452 128.147 68.5453 127.927 66.602 127.45C64.6953 126.937 63.0087 126.387 61.542 125.8L61.377 125.415C62.6237 126.002 63.797 126.735 64.897 127.615C65.997 128.458 66.877 129.448 67.537 130.585C68.2337 131.685 68.582 132.968 68.582 134.435C68.582 136.818 67.977 138.872 66.767 140.595C65.557 142.282 63.8337 143.583 61.597 144.5C59.397 145.38 56.7753 145.82 53.732 145.82ZM62.917 161.275V159.955C62.917 158.268 62.367 157.095 61.267 156.435C60.2037 155.775 58.737 155.445 56.867 155.445H48.342C46.692 155.445 45.2987 155.317 44.162 155.06C43.062 154.803 42.182 154.437 41.522 153.96C40.862 153.483 40.3853 152.915 40.092 152.255C39.7987 151.632 39.652 150.953 39.652 150.22C39.652 148.753 40.1287 147.653 41.082 146.92C42.0353 146.15 43.3187 145.637 44.932 145.38C46.5453 145.123 48.3237 145.068 50.267 145.215L53.732 145.82C51.422 145.893 49.6987 146.095 48.562 146.425C47.462 146.718 46.912 147.323 46.912 148.24C46.912 148.79 47.132 149.23 47.572 149.56C48.012 149.853 48.6353 150 49.442 150H58.407C60.8637 150 62.9537 150.257 64.677 150.77C66.437 151.32 67.7753 152.218 68.692 153.465C69.6087 154.748 70.067 156.49 70.067 158.69V161.275H62.917ZM53.732 140.65C55.3087 140.65 56.6837 140.393 57.857 139.88C59.067 139.367 60.002 138.633 60.662 137.68C61.322 136.69 61.652 135.517 61.652 134.16C61.652 132.767 61.322 131.575 60.662 130.585C60.002 129.595 59.0853 128.843 57.912 128.33C56.7387 127.78 55.3453 127.505 53.732 127.505C52.1553 127.505 50.762 127.78 49.552 128.33C48.342 128.843 47.407 129.595 46.747 130.585C46.087 131.575 45.757 132.767 45.757 134.16C45.757 135.517 46.087 136.69 46.747 137.68C47.407 138.633 48.3237 139.367 49.497 139.88C50.707 140.393 52.1187 140.65 53.732 140.65ZM101.961 150V134.985C101.961 133.482 101.705 132.235 101.191 131.245C100.678 130.255 99.8531 129.503 98.7164 128.99C97.6164 128.477 96.1314 128.22 94.2614 128.22C92.4647 128.22 90.8331 128.568 89.3664 129.265C87.8997 129.925 86.7081 130.805 85.7914 131.905C84.8747 132.968 84.3614 134.105 84.2514 135.315L84.1964 132.29C84.3797 131.08 84.8014 129.87 85.4614 128.66C86.1214 127.45 87.0014 126.35 88.1014 125.36C89.2014 124.37 90.5214 123.582 92.0614 122.995C93.6381 122.372 95.3981 122.06 97.3414 122.06C99.0281 122.06 100.586 122.28 102.016 122.72C103.446 123.123 104.693 123.765 105.756 124.645C106.82 125.525 107.645 126.625 108.231 127.945C108.818 129.228 109.111 130.75 109.111 132.51V150H101.961ZM77.4864 150V111.665H84.6364V150H77.4864ZM113.685 122.665H134.915V128.22H113.685V122.665ZM120.725 115.185H127.875V150H120.725V115.185Z" fill="white"/>
<rect x="147" y="96" width="507" height="70" rx="35" fill="url(#paint0_linear_3317_31760)"/>
<path d="M203.75 139.22C203.567 141.603 202.797 143.657 201.44 145.38C200.12 147.103 198.287 148.423 195.94 149.34C193.593 150.22 190.807 150.66 187.58 150.66C184.207 150.66 181.182 150.128 178.505 149.065C175.865 147.965 173.775 146.37 172.235 144.28C170.732 142.153 169.98 139.532 169.98 136.415C169.98 133.298 170.732 130.677 172.235 128.55C173.775 126.423 175.865 124.81 178.505 123.71C181.182 122.61 184.207 122.06 187.58 122.06C190.807 122.06 193.575 122.518 195.885 123.435C198.195 124.315 200.01 125.598 201.33 127.285C202.687 128.972 203.475 131.007 203.695 133.39H197.15C196.527 131.557 195.372 130.127 193.685 129.1C191.998 128.073 189.963 127.56 187.58 127.56C185.673 127.56 183.932 127.89 182.355 128.55C180.815 129.21 179.568 130.2 178.615 131.52C177.698 132.803 177.24 134.435 177.24 136.415C177.24 138.358 177.698 139.99 178.615 141.31C179.532 142.593 180.778 143.565 182.355 144.225C183.932 144.848 185.673 145.16 187.58 145.16C190.147 145.16 192.237 144.647 193.85 143.62C195.5 142.593 196.618 141.127 197.205 139.22H203.75ZM209.005 122.665H216.155V150H209.005V122.665ZM226.66 128.55C224.607 128.55 222.828 128.953 221.325 129.76C219.822 130.53 218.612 131.483 217.695 132.62C216.778 133.757 216.137 134.857 215.77 135.92L215.715 132.895C215.752 132.455 215.898 131.813 216.155 130.97C216.412 130.09 216.797 129.155 217.31 128.165C217.823 127.138 218.502 126.167 219.345 125.25C220.188 124.297 221.215 123.527 222.425 122.94C223.635 122.353 225.047 122.06 226.66 122.06V128.55ZM255.995 140.925H262.925C262.632 142.795 261.844 144.463 260.56 145.93C259.314 147.397 257.609 148.552 255.445 149.395C253.282 150.238 250.642 150.66 247.525 150.66C244.042 150.66 240.962 150.11 238.285 149.01C235.609 147.873 233.519 146.242 232.015 144.115C230.512 141.988 229.76 139.422 229.76 136.415C229.76 133.408 230.494 130.842 231.96 128.715C233.427 126.552 235.462 124.902 238.065 123.765C240.705 122.628 243.785 122.06 247.305 122.06C250.899 122.06 253.887 122.628 256.27 123.765C258.654 124.902 260.414 126.625 261.55 128.935C262.724 131.208 263.219 134.123 263.035 137.68H236.965C237.149 139.073 237.662 140.338 238.505 141.475C239.385 142.612 240.559 143.51 242.025 144.17C243.529 144.83 245.307 145.16 247.36 145.16C249.634 145.16 251.522 144.775 253.025 144.005C254.565 143.198 255.555 142.172 255.995 140.925ZM246.975 127.505C244.335 127.505 242.19 128.092 240.54 129.265C238.89 130.402 237.827 131.813 237.35 133.5H255.94C255.757 131.667 254.877 130.218 253.3 129.155C251.76 128.055 249.652 127.505 246.975 127.505ZM281.666 150.605C278.916 150.605 276.422 150.018 274.186 148.845C271.986 147.635 270.244 145.967 268.961 143.84C267.677 141.677 267.036 139.183 267.036 136.36C267.036 133.463 267.659 130.952 268.906 128.825C270.189 126.698 271.931 125.048 274.131 123.875C276.331 122.665 278.842 122.06 281.666 122.06C284.122 122.06 286.212 122.427 287.936 123.16C289.659 123.893 291.052 124.92 292.116 126.24C293.179 127.523 293.949 129.027 294.426 130.75C294.939 132.473 295.196 134.343 295.196 136.36C295.196 137.973 294.939 139.623 294.426 141.31C293.912 142.96 293.124 144.5 292.061 145.93C290.997 147.323 289.604 148.46 287.881 149.34C286.157 150.183 284.086 150.605 281.666 150.605ZM283.976 145.105C286.139 145.105 288.009 144.738 289.586 144.005C291.162 143.272 292.372 142.245 293.216 140.925C294.059 139.605 294.481 138.083 294.481 136.36C294.481 134.49 294.041 132.913 293.161 131.63C292.317 130.31 291.107 129.302 289.531 128.605C287.991 127.908 286.139 127.56 283.976 127.56C280.932 127.56 278.567 128.367 276.881 129.98C275.194 131.593 274.351 133.72 274.351 136.36C274.351 138.12 274.754 139.66 275.561 140.98C276.367 142.263 277.486 143.272 278.916 144.005C280.382 144.738 282.069 145.105 283.976 145.105ZM294.481 111.665H301.631V150H294.976C294.866 149.157 294.756 148.075 294.646 146.755C294.536 145.398 294.481 144.133 294.481 142.96V111.665ZM317.532 110.675V116.945H309.227V110.675H317.532ZM309.777 122.665H316.927V150H309.777V122.665ZM322.129 122.665H343.359V128.22H322.129V122.665ZM329.169 115.185H336.319V150H329.169V115.185ZM360.068 140.925H366.668C367.071 142.172 367.896 143.198 369.143 144.005C370.426 144.775 372.095 145.16 374.148 145.16C375.541 145.16 376.623 145.032 377.393 144.775C378.163 144.518 378.695 144.152 378.988 143.675C379.281 143.162 379.428 142.593 379.428 141.97C379.428 141.2 379.19 140.613 378.713 140.21C378.236 139.77 377.503 139.422 376.513 139.165C375.523 138.908 374.258 138.67 372.718 138.45C371.178 138.193 369.693 137.882 368.263 137.515C366.833 137.148 365.568 136.672 364.468 136.085C363.368 135.462 362.488 134.692 361.828 133.775C361.205 132.822 360.893 131.667 360.893 130.31C360.893 128.99 361.205 127.817 361.828 126.79C362.488 125.763 363.386 124.902 364.523 124.205C365.696 123.508 367.053 122.977 368.593 122.61C370.17 122.243 371.856 122.06 373.653 122.06C376.366 122.06 378.621 122.463 380.418 123.27C382.215 124.04 383.553 125.14 384.433 126.57C385.35 127.963 385.808 129.577 385.808 131.41H379.483C379.19 130.053 378.603 129.082 377.723 128.495C376.843 127.872 375.486 127.56 373.653 127.56C371.856 127.56 370.5 127.835 369.583 128.385C368.666 128.935 368.208 129.687 368.208 130.64C368.208 131.41 368.483 132.015 369.033 132.455C369.62 132.858 370.463 133.188 371.563 133.445C372.7 133.702 374.111 133.977 375.798 134.27C377.228 134.563 378.585 134.893 379.868 135.26C381.188 135.627 382.361 136.103 383.388 136.69C384.415 137.24 385.221 137.992 385.808 138.945C386.431 139.862 386.743 141.035 386.743 142.465C386.743 144.225 386.23 145.71 385.203 146.92C384.213 148.13 382.783 149.065 380.913 149.725C379.043 150.348 376.806 150.66 374.203 150.66C371.893 150.66 369.895 150.422 368.208 149.945C366.558 149.432 365.183 148.79 364.083 148.02C362.983 147.213 362.121 146.37 361.498 145.49C360.911 144.573 360.508 143.712 360.288 142.905C360.068 142.098 359.995 141.438 360.068 140.925ZM408.328 150.66C404.881 150.66 401.838 150.11 399.198 149.01C396.595 147.91 394.56 146.315 393.093 144.225C391.626 142.098 390.893 139.495 390.893 136.415C390.893 133.335 391.626 130.732 393.093 128.605C394.56 126.442 396.595 124.81 399.198 123.71C401.838 122.61 404.881 122.06 408.328 122.06C411.775 122.06 414.781 122.61 417.348 123.71C419.951 124.81 421.986 126.442 423.453 128.605C424.92 130.732 425.653 133.335 425.653 136.415C425.653 139.495 424.92 142.098 423.453 144.225C421.986 146.315 419.951 147.91 417.348 149.01C414.781 150.11 411.775 150.66 408.328 150.66ZM408.328 145.16C410.235 145.16 411.94 144.83 413.443 144.17C414.983 143.473 416.193 142.483 417.073 141.2C417.953 139.88 418.393 138.285 418.393 136.415C418.393 134.545 417.953 132.95 417.073 131.63C416.193 130.273 415.001 129.247 413.498 128.55C411.995 127.853 410.271 127.505 408.328 127.505C406.421 127.505 404.698 127.853 403.158 128.55C401.618 129.247 400.39 130.255 399.473 131.575C398.593 132.895 398.153 134.508 398.153 136.415C398.153 138.285 398.593 139.88 399.473 141.2C400.353 142.483 401.563 143.473 403.103 144.17C404.643 144.83 406.385 145.16 408.328 145.16ZM431.489 111.665H438.639V150H431.489V111.665ZM477.495 150H470.345V122.665H477.495V150ZM470.73 136.855L470.785 138.725C470.712 139.238 470.529 139.99 470.235 140.98C469.942 141.933 469.484 142.96 468.86 144.06C468.274 145.16 467.504 146.223 466.55 147.25C465.597 148.24 464.424 149.065 463.03 149.725C461.637 150.348 459.987 150.66 458.08 150.66C456.577 150.66 455.092 150.477 453.625 150.11C452.195 149.743 450.894 149.138 449.72 148.295C448.547 147.415 447.612 146.242 446.915 144.775C446.219 143.308 445.87 141.457 445.87 139.22V122.665H453.02V138.01C453.02 139.77 453.295 141.163 453.845 142.19C454.432 143.18 455.275 143.877 456.375 144.28C457.475 144.683 458.777 144.885 460.28 144.885C462.26 144.885 463.965 144.463 465.395 143.62C466.825 142.74 467.98 141.677 468.86 140.43C469.777 139.183 470.4 137.992 470.73 136.855ZM482.08 122.665H503.31V128.22H482.08V122.665ZM489.12 115.185H496.27V150H489.12V115.185ZM516.048 110.675V116.945H507.743V110.675H516.048ZM508.293 122.665H515.443V150H508.293V122.665ZM538.685 150.66C535.238 150.66 532.195 150.11 529.555 149.01C526.951 147.91 524.916 146.315 523.45 144.225C521.983 142.098 521.25 139.495 521.25 136.415C521.25 133.335 521.983 130.732 523.45 128.605C524.916 126.442 526.951 124.81 529.555 123.71C532.195 122.61 535.238 122.06 538.685 122.06C542.131 122.06 545.138 122.61 547.705 123.71C550.308 124.81 552.343 126.442 553.81 128.605C555.276 130.732 556.01 133.335 556.01 136.415C556.01 139.495 555.276 142.098 553.81 144.225C552.343 146.315 550.308 147.91 547.705 149.01C545.138 150.11 542.131 150.66 538.685 150.66ZM538.685 145.16C540.591 145.16 542.296 144.83 543.8 144.17C545.34 143.473 546.55 142.483 547.43 141.2C548.31 139.88 548.75 138.285 548.75 136.415C548.75 134.545 548.31 132.95 547.43 131.63C546.55 130.273 545.358 129.247 543.855 128.55C542.351 127.853 540.628 127.505 538.685 127.505C536.778 127.505 535.055 127.853 533.515 128.55C531.975 129.247 530.746 130.255 529.83 131.575C528.95 132.895 528.51 134.508 528.51 136.415C528.51 138.285 528.95 139.88 529.83 141.2C530.71 142.483 531.92 143.473 533.46 144.17C535 144.83 536.741 145.16 538.685 145.16ZM561.295 122.665H568.445V150H561.295V122.665ZM581.15 122.06C582.837 122.06 584.395 122.28 585.825 122.72C587.255 123.16 588.502 123.838 589.565 124.755C590.628 125.672 591.453 126.845 592.04 128.275C592.627 129.668 592.92 131.337 592.92 133.28V150H585.77V134.545C585.77 132.235 585.202 130.548 584.065 129.485C582.965 128.385 581.15 127.835 578.62 127.835C576.713 127.835 574.99 128.202 573.45 128.935C571.91 129.668 570.663 130.603 569.71 131.74C568.757 132.84 568.207 133.995 568.06 135.205L568.005 132.4C568.188 131.117 568.61 129.87 569.27 128.66C569.93 127.45 570.81 126.35 571.91 125.36C573.047 124.333 574.385 123.527 575.925 122.94C577.465 122.353 579.207 122.06 581.15 122.06ZM598.33 140.925H604.93C605.333 142.172 606.158 143.198 607.405 144.005C608.688 144.775 610.357 145.16 612.41 145.16C613.803 145.16 614.885 145.032 615.655 144.775C616.425 144.518 616.957 144.152 617.25 143.675C617.543 143.162 617.69 142.593 617.69 141.97C617.69 141.2 617.452 140.613 616.975 140.21C616.498 139.77 615.765 139.422 614.775 139.165C613.785 138.908 612.52 138.67 610.98 138.45C609.44 138.193 607.955 137.882 606.525 137.515C605.095 137.148 603.83 136.672 602.73 136.085C601.63 135.462 600.75 134.692 600.09 133.775C599.467 132.822 599.155 131.667 599.155 130.31C599.155 128.99 599.467 127.817 600.09 126.79C600.75 125.763 601.648 124.902 602.785 124.205C603.958 123.508 605.315 122.977 606.855 122.61C608.432 122.243 610.118 122.06 611.915 122.06C614.628 122.06 616.883 122.463 618.68 123.27C620.477 124.04 621.815 125.14 622.695 126.57C623.612 127.963 624.07 129.577 624.07 131.41H617.745C617.452 130.053 616.865 129.082 615.985 128.495C615.105 127.872 613.748 127.56 611.915 127.56C610.118 127.56 608.762 127.835 607.845 128.385C606.928 128.935 606.47 129.687 606.47 130.64C606.47 131.41 606.745 132.015 607.295 132.455C607.882 132.858 608.725 133.188 609.825 133.445C610.962 133.702 612.373 133.977 614.06 134.27C615.49 134.563 616.847 134.893 618.13 135.26C619.45 135.627 620.623 136.103 621.65 136.69C622.677 137.24 623.483 137.992 624.07 138.945C624.693 139.862 625.005 141.035 625.005 142.465C625.005 144.225 624.492 145.71 623.465 146.92C622.475 148.13 621.045 149.065 619.175 149.725C617.305 150.348 615.068 150.66 612.465 150.66C610.155 150.66 608.157 150.422 606.47 149.945C604.82 149.432 603.445 148.79 602.345 148.02C601.245 147.213 600.383 146.37 599.76 145.49C599.173 144.573 598.77 143.712 598.55 142.905C598.33 142.098 598.257 141.438 598.33 140.925Z" fill="white"/>
<path d="M1.375 213.16H23.375V218.605H1.375V213.16ZM18.095 201.665H23.76V207.44H19.8C18.7367 207.403 17.82 207.513 17.05 207.77C16.28 208.027 15.6933 208.503 15.29 209.2C14.8867 209.86 14.685 210.813 14.685 212.06V240H7.535V211.18C7.535 208.98 7.93833 207.183 8.745 205.79C9.55167 204.36 10.7433 203.315 12.32 202.655C13.8967 201.995 15.8217 201.665 18.095 201.665ZM43.5849 240.66C40.1383 240.66 37.0949 240.11 34.4549 239.01C31.8516 237.91 29.8166 236.315 28.3499 234.225C26.8833 232.098 26.1499 229.495 26.1499 226.415C26.1499 223.335 26.8833 220.732 28.3499 218.605C29.8166 216.442 31.8516 214.81 34.4549 213.71C37.0949 212.61 40.1383 212.06 43.5849 212.06C47.0316 212.06 50.0383 212.61 52.6049 213.71C55.2083 214.81 57.2433 216.442 58.7099 218.605C60.1766 220.732 60.9099 223.335 60.9099 226.415C60.9099 229.495 60.1766 232.098 58.7099 234.225C57.2433 236.315 55.2083 237.91 52.6049 239.01C50.0383 240.11 47.0316 240.66 43.5849 240.66ZM43.5849 235.16C45.4916 235.16 47.1966 234.83 48.6999 234.17C50.2399 233.473 51.4499 232.483 52.3299 231.2C53.2099 229.88 53.6499 228.285 53.6499 226.415C53.6499 224.545 53.2099 222.95 52.3299 221.63C51.4499 220.273 50.2583 219.247 48.7549 218.55C47.2516 217.853 45.5283 217.505 43.5849 217.505C41.6783 217.505 39.9549 217.853 38.4149 218.55C36.8749 219.247 35.6466 220.255 34.7299 221.575C33.8499 222.895 33.4099 224.508 33.4099 226.415C33.4099 228.285 33.8499 229.88 34.7299 231.2C35.6099 232.483 36.8199 233.473 38.3599 234.17C39.8999 234.83 41.6416 235.16 43.5849 235.16ZM66.1955 212.665H73.3455V240H66.1955V212.665ZM83.8505 218.55C81.7972 218.55 80.0188 218.953 78.5155 219.76C77.0122 220.53 75.8022 221.483 74.8855 222.62C73.9688 223.757 73.3272 224.857 72.9605 225.92L72.9055 222.895C72.9422 222.455 73.0888 221.813 73.3455 220.97C73.6022 220.09 73.9872 219.155 74.5005 218.165C75.0138 217.138 75.6922 216.167 76.5355 215.25C77.3788 214.297 78.4055 213.527 79.6155 212.94C80.8255 212.353 82.2372 212.06 83.8505 212.06V218.55ZM99.0623 212.665H106.652L118.477 238.9L112.317 240L99.0623 212.665ZM132.502 212.665L113.582 251H106.157L114.242 235.93L124.857 212.665H132.502ZM151.49 240.66C148.044 240.66 145 240.11 142.36 239.01C139.757 237.91 137.722 236.315 136.255 234.225C134.789 232.098 134.055 229.495 134.055 226.415C134.055 223.335 134.789 220.732 136.255 218.605C137.722 216.442 139.757 214.81 142.36 213.71C145 212.61 148.044 212.06 151.49 212.06C154.937 212.06 157.944 212.61 160.51 213.71C163.114 214.81 165.149 216.442 166.615 218.605C168.082 220.732 168.815 223.335 168.815 226.415C168.815 229.495 168.082 232.098 166.615 234.225C165.149 236.315 163.114 237.91 160.51 239.01C157.944 240.11 154.937 240.66 151.49 240.66ZM151.49 235.16C153.397 235.16 155.102 234.83 156.605 234.17C158.145 233.473 159.355 232.483 160.235 231.2C161.115 229.88 161.555 228.285 161.555 226.415C161.555 224.545 161.115 222.95 160.235 221.63C159.355 220.273 158.164 219.247 156.66 218.55C155.157 217.853 153.434 217.505 151.49 217.505C149.584 217.505 147.86 217.853 146.32 218.55C144.78 219.247 143.552 220.255 142.635 221.575C141.755 222.895 141.315 224.508 141.315 226.415C141.315 228.285 141.755 229.88 142.635 231.2C143.515 232.483 144.725 233.473 146.265 234.17C147.805 234.83 149.547 235.16 151.49 235.16ZM205.726 240H198.576V212.665H205.726V240ZM198.961 226.855L199.016 228.725C198.942 229.238 198.759 229.99 198.466 230.98C198.172 231.933 197.714 232.96 197.091 234.06C196.504 235.16 195.734 236.223 194.781 237.25C193.827 238.24 192.654 239.065 191.261 239.725C189.867 240.348 188.217 240.66 186.311 240.66C184.807 240.66 183.322 240.477 181.856 240.11C180.426 239.743 179.124 239.138 177.951 238.295C176.777 237.415 175.842 236.242 175.146 234.775C174.449 233.308 174.101 231.457 174.101 229.22V212.665H181.251V228.01C181.251 229.77 181.526 231.163 182.076 232.19C182.662 233.18 183.506 233.877 184.606 234.28C185.706 234.683 187.007 234.885 188.511 234.885C190.491 234.885 192.196 234.463 193.626 233.62C195.056 232.74 196.211 231.677 197.091 230.43C198.007 229.183 198.631 227.992 198.961 226.855Z" fill="white"/>
<defs>
<linearGradient id="paint0_linear_3317_31760" x1="212.186" y1="120.294" x2="287.645" y2="270.633" gradientUnits="userSpaceOnUse">
<stop stop-color="#207D11"/>
<stop offset="1" stop-color="#FFC00B"/>
</linearGradient>
</defs>
</svg>
