<svg width="657" height="306" viewBox="0 0 657 306" fill="none" xmlns="http://www.w3.org/2000/svg">
<g filter="url(#filter0_d_3312_31738)">
<circle cx="152.5" cy="146.5" r="112.5" fill="white"/>
<circle cx="152.5" cy="146.5" r="112" stroke="#179942"/>
</g>
<path d="M153 147.9C150.275 147.9 147.575 147.1 145.45 145.525L134.7 137.5C131.85 135.375 129.625 130.925 129.625 127.4V108.8C129.625 104.95 132.45 100.85 136.075 99.4996L148.55 94.8246C151.025 93.8996 154.925 93.8996 157.4 94.8246L169.875 99.4996C173.5 100.85 176.325 104.95 176.325 108.8V127.375C176.325 130.925 174.1 135.35 171.25 137.475L160.5 145.5C158.425 147.1 155.725 147.9 153 147.9ZM149.875 98.3496L137.4 103.025C135.275 103.825 133.4 106.525 133.4 108.825V127.4C133.4 129.775 135.075 133.1 136.95 134.5L147.7 142.525C150.575 144.675 155.425 144.675 158.325 142.525L169.075 134.5C170.975 133.075 172.625 129.775 172.625 127.4V108.8C172.625 106.525 170.75 103.825 168.625 103L156.15 98.3246C154.45 97.7246 151.55 97.7246 149.875 98.3496Z" fill="#179942"/>
<path d="M149.65 126.576C149.175 126.576 148.7 126.401 148.325 126.026L144.3 122.001C143.575 121.276 143.575 120.076 144.3 119.351C145.025 118.626 146.225 118.626 146.95 119.351L149.65 122.051L159.075 112.626C159.8 111.901 161 111.901 161.725 112.626C162.45 113.351 162.45 114.551 161.725 115.276L150.975 126.026C150.6 126.401 150.125 126.576 149.65 126.576Z" fill="#179942"/>
<path d="M123.781 189.792C123.621 190.912 123.237 191.88 122.629 192.696C122.021 193.512 121.245 194.144 120.301 194.592C119.373 195.024 118.333 195.24 117.181 195.24C116.109 195.24 115.117 195.056 114.205 194.688C113.293 194.304 112.493 193.76 111.805 193.056C111.133 192.352 110.605 191.504 110.221 190.512C109.837 189.52 109.645 188.416 109.645 187.2C109.645 185.968 109.837 184.864 110.221 183.888C110.605 182.896 111.133 182.048 111.805 181.344C112.493 180.64 113.293 180.104 114.205 179.736C115.117 179.352 116.109 179.16 117.181 179.16C118.349 179.16 119.397 179.384 120.325 179.832C121.269 180.264 122.045 180.896 122.653 181.728C123.261 182.544 123.645 183.52 123.805 184.656H122.029C121.805 183.856 121.453 183.184 120.973 182.64C120.509 182.096 119.949 181.68 119.293 181.392C118.637 181.104 117.933 180.96 117.181 180.96C116.205 180.96 115.285 181.2 114.421 181.68C113.573 182.16 112.885 182.864 112.357 183.792C111.829 184.72 111.565 185.856 111.565 187.2C111.565 188.544 111.829 189.68 112.357 190.608C112.885 191.536 113.573 192.24 114.421 192.72C115.285 193.2 116.205 193.44 117.181 193.44C117.933 193.44 118.629 193.304 119.269 193.032C119.925 192.744 120.485 192.328 120.949 191.784C121.429 191.24 121.781 190.576 122.005 189.792H123.781ZM126.576 183H128.496V195H126.576V183ZM132.336 184.8C131.52 184.8 130.832 185.008 130.272 185.424C129.728 185.824 129.296 186.32 128.976 186.912C128.672 187.488 128.472 188.048 128.376 188.592L128.352 187.2C128.352 187.056 128.384 186.816 128.448 186.48C128.512 186.144 128.632 185.768 128.808 185.352C128.984 184.92 129.216 184.512 129.504 184.128C129.808 183.728 130.192 183.4 130.656 183.144C131.12 182.888 131.68 182.76 132.336 182.76V184.8ZM142.994 191.136H144.794C144.666 191.92 144.378 192.624 143.93 193.248C143.498 193.856 142.922 194.344 142.202 194.712C141.498 195.064 140.682 195.24 139.754 195.24C138.634 195.24 137.626 194.976 136.73 194.448C135.834 193.904 135.122 193.168 134.594 192.24C134.082 191.296 133.826 190.224 133.826 189.024C133.826 187.824 134.074 186.752 134.57 185.808C135.082 184.864 135.778 184.12 136.658 183.576C137.538 183.032 138.53 182.76 139.634 182.76C140.802 182.76 141.786 183.024 142.586 183.552C143.402 184.064 144.002 184.824 144.386 185.832C144.786 186.824 144.946 188.048 144.866 189.504H135.746C135.826 190.288 136.042 190.976 136.394 191.568C136.746 192.16 137.21 192.624 137.786 192.96C138.362 193.28 139.018 193.44 139.754 193.44C140.57 193.44 141.258 193.232 141.818 192.816C142.394 192.384 142.786 191.824 142.994 191.136ZM139.706 184.56C138.714 184.56 137.882 184.848 137.21 185.424C136.538 186 136.09 186.784 135.866 187.776H142.898C142.834 186.72 142.49 185.92 141.866 185.376C141.258 184.832 140.538 184.56 139.706 184.56ZM151.877 195.24C150.917 195.24 150.037 194.976 149.237 194.448C148.453 193.904 147.829 193.168 147.365 192.24C146.901 191.296 146.669 190.224 146.669 189.024C146.669 187.824 146.893 186.752 147.341 185.808C147.789 184.864 148.405 184.12 149.189 183.576C149.973 183.032 150.869 182.76 151.877 182.76C152.773 182.76 153.501 182.928 154.061 183.264C154.637 183.584 155.077 184.032 155.381 184.608C155.685 185.184 155.893 185.848 156.005 186.6C156.133 187.352 156.197 188.16 156.197 189.024C156.197 189.632 156.133 190.296 156.005 191.016C155.877 191.72 155.653 192.4 155.333 193.056C155.029 193.696 154.597 194.224 154.037 194.64C153.477 195.04 152.757 195.24 151.877 195.24ZM152.357 193.416C153.173 193.416 153.845 193.216 154.373 192.816C154.917 192.416 155.317 191.888 155.573 191.232C155.829 190.56 155.957 189.824 155.957 189.024C155.957 188.144 155.821 187.376 155.549 186.72C155.293 186.048 154.893 185.528 154.349 185.16C153.821 184.776 153.157 184.584 152.357 184.584C151.157 184.584 150.229 185.008 149.573 185.856C148.917 186.688 148.589 187.744 148.589 189.024C148.589 189.872 148.749 190.632 149.069 191.304C149.405 191.96 149.853 192.48 150.413 192.864C150.989 193.232 151.637 193.416 152.357 193.416ZM155.957 178.2H157.877V195H156.125C156.093 194.648 156.053 194.232 156.005 193.752C155.973 193.272 155.957 192.888 155.957 192.6V178.2ZM163.733 178.2V180.528H161.237V178.2H163.733ZM161.525 183H163.445V195H161.525V183ZM173.084 195.24C172.204 195.24 171.484 195.04 170.924 194.64C170.364 194.224 169.924 193.696 169.604 193.056C169.3 192.4 169.084 191.72 168.956 191.016C168.828 190.296 168.764 189.632 168.764 189.024C168.764 188.16 168.82 187.352 168.932 186.6C169.06 185.848 169.276 185.184 169.58 184.608C169.884 184.032 170.316 183.584 170.876 183.264C171.452 182.928 172.188 182.76 173.084 182.76C174.092 182.76 174.988 183.032 175.772 183.576C176.556 184.12 177.172 184.864 177.62 185.808C178.068 186.752 178.292 187.824 178.292 189.024C178.292 190.224 178.06 191.296 177.596 192.24C177.132 193.168 176.508 193.904 175.724 194.448C174.94 194.976 174.06 195.24 173.084 195.24ZM172.604 193.416C173.34 193.416 173.988 193.232 174.548 192.864C175.108 192.48 175.548 191.96 175.868 191.304C176.204 190.632 176.372 189.872 176.372 189.024C176.372 187.744 176.044 186.688 175.388 185.856C174.732 185.008 173.804 184.584 172.604 184.584C171.804 184.584 171.132 184.776 170.588 185.16C170.06 185.528 169.66 186.048 169.388 186.72C169.132 187.376 169.004 188.144 169.004 189.024C169.004 189.824 169.132 190.56 169.388 191.232C169.66 191.888 170.06 192.416 170.588 192.816C171.116 193.216 171.788 193.416 172.604 193.416ZM169.004 178.2V192.6C169.004 192.888 168.98 193.272 168.932 193.752C168.9 194.232 168.868 194.648 168.836 195H167.084V178.2H169.004ZM180.98 178.2H182.9V195H180.98V178.2ZM194.767 191.136H196.567C196.439 191.92 196.151 192.624 195.703 193.248C195.271 193.856 194.695 194.344 193.975 194.712C193.271 195.064 192.455 195.24 191.527 195.24C190.407 195.24 189.399 194.976 188.503 194.448C187.607 193.904 186.895 193.168 186.367 192.24C185.855 191.296 185.599 190.224 185.599 189.024C185.599 187.824 185.847 186.752 186.343 185.808C186.855 184.864 187.551 184.12 188.431 183.576C189.311 183.032 190.303 182.76 191.407 182.76C192.575 182.76 193.559 183.024 194.359 183.552C195.175 184.064 195.775 184.824 196.159 185.832C196.559 186.824 196.719 188.048 196.639 189.504H187.519C187.599 190.288 187.815 190.976 188.167 191.568C188.519 192.16 188.983 192.624 189.559 192.96C190.135 193.28 190.791 193.44 191.527 193.44C192.343 193.44 193.031 193.232 193.591 192.816C194.167 192.384 194.559 191.824 194.767 191.136ZM191.479 184.56C190.487 184.56 189.655 184.848 188.983 185.424C188.311 186 187.863 186.784 187.639 187.776H194.671C194.607 186.72 194.263 185.92 193.639 185.376C193.031 184.832 192.311 184.56 191.479 184.56Z" fill="black"/>
<g filter="url(#filter1_d_3312_31738)">
<circle cx="504.5" cy="147.5" r="112.5" fill="white"/>
<circle cx="504.5" cy="147.5" r="112" stroke="#1C35EC"/>
</g>
<path d="M499.975 148.875C499.475 148.875 499.075 148.775 498.775 148.65C497.775 148.275 496.075 147.05 496.075 143.175V127.05H490.225C486.875 127.05 485.675 125.475 485.25 124.55C484.825 123.6 484.45 121.675 486.65 119.15L505.575 97.6496C508.125 94.7496 510.2 94.9496 511.2 95.3246C512.2 95.6996 513.9 96.9246 513.9 100.8V116.925H519.75C523.1 116.925 524.3 118.5 524.725 119.425C525.15 120.375 525.525 122.3 523.325 124.825L504.4 146.325C502.625 148.35 501.075 148.875 499.975 148.875ZM509.825 98.8496C509.75 98.9496 509.225 99.1996 508.4 100.15L489.475 121.65C488.775 122.45 488.675 122.95 488.675 123.05C488.725 123.075 489.175 123.325 490.225 123.325H497.95C498.975 123.325 499.825 124.175 499.825 125.2V143.2C499.825 144.45 500.05 145 500.15 145.15C500.225 145.05 500.75 144.8 501.575 143.85L520.5 122.35C521.2 121.55 521.3 121.05 521.3 120.95C521.25 120.925 520.8 120.675 519.75 120.675H512.025C511 120.675 510.15 119.825 510.15 118.8V100.8C510.175 99.5496 509.925 99.0246 509.825 98.8496Z" fill="#1C35EC"/>
<path d="M495.167 180.4V182.2H486.047V187.336H493.511V189.136H486.047V196H484.127V180.4H495.167ZM501.147 196.24C500.203 196.24 499.331 195.976 498.531 195.448C497.747 194.904 497.115 194.168 496.635 193.24C496.171 192.296 495.939 191.224 495.939 190.024C495.939 188.824 496.179 187.752 496.659 186.808C497.139 185.864 497.787 185.12 498.603 184.576C499.435 184.032 500.363 183.76 501.387 183.76C502.507 183.76 503.355 184.048 503.931 184.624C504.523 185.184 504.923 185.936 505.131 186.88C505.355 187.824 505.467 188.872 505.467 190.024C505.467 190.632 505.403 191.296 505.275 192.016C505.147 192.72 504.923 193.4 504.603 194.056C504.299 194.696 503.867 195.224 503.307 195.64C502.747 196.04 502.027 196.24 501.147 196.24ZM501.627 194.416C502.443 194.416 503.115 194.216 503.643 193.816C504.187 193.416 504.587 192.888 504.843 192.232C505.099 191.56 505.227 190.824 505.227 190.024C505.227 189.144 505.091 188.376 504.819 187.72C504.563 187.048 504.163 186.528 503.619 186.16C503.091 185.776 502.427 185.584 501.627 185.584C500.427 185.584 499.499 186.008 498.843 186.856C498.187 187.688 497.859 188.744 497.859 190.024C497.859 190.872 498.019 191.632 498.339 192.304C498.675 192.96 499.123 193.48 499.683 193.864C500.259 194.232 500.907 194.416 501.627 194.416ZM505.227 184H507.147V196H505.395C505.395 196 505.379 195.856 505.347 195.568C505.331 195.28 505.307 194.944 505.275 194.56C505.243 194.176 505.227 193.856 505.227 193.6V184ZM509.699 192.136H511.475C511.523 192.824 511.779 193.384 512.243 193.816C512.723 194.248 513.411 194.464 514.307 194.464C514.851 194.464 515.275 194.392 515.579 194.248C515.899 194.104 516.131 193.912 516.275 193.672C516.419 193.416 516.491 193.136 516.491 192.832C516.491 192.464 516.395 192.176 516.203 191.968C516.027 191.744 515.779 191.56 515.459 191.416C515.155 191.272 514.803 191.136 514.403 191.008C513.939 190.832 513.459 190.648 512.963 190.456C512.483 190.248 512.027 190.008 511.595 189.736C511.179 189.448 510.843 189.104 510.587 188.704C510.331 188.288 510.203 187.792 510.203 187.216C510.203 186.736 510.299 186.288 510.491 185.872C510.683 185.44 510.955 185.072 511.307 184.768C511.675 184.448 512.099 184.2 512.579 184.024C513.075 183.848 513.619 183.76 514.211 183.76C515.011 183.76 515.683 183.92 516.227 184.24C516.787 184.56 517.211 185.016 517.499 185.608C517.803 186.184 517.963 186.856 517.979 187.624H516.323C516.211 186.904 515.979 186.384 515.627 186.064C515.291 185.728 514.803 185.56 514.163 185.56C513.507 185.56 513.003 185.704 512.651 185.992C512.299 186.28 512.123 186.664 512.123 187.144C512.123 187.496 512.251 187.792 512.507 188.032C512.763 188.256 513.091 188.464 513.491 188.656C513.907 188.832 514.347 189.016 514.811 189.208C515.275 189.4 515.723 189.592 516.155 189.784C516.587 189.976 516.971 190.2 517.307 190.456C517.643 190.712 517.907 191.032 518.099 191.416C518.307 191.784 518.411 192.248 518.411 192.808C518.411 193.48 518.251 194.08 517.931 194.608C517.627 195.12 517.171 195.52 516.563 195.808C515.971 196.096 515.243 196.24 514.379 196.24C513.595 196.24 512.923 196.144 512.363 195.952C511.819 195.744 511.363 195.48 510.995 195.16C510.627 194.824 510.339 194.472 510.131 194.104C509.939 193.736 509.811 193.376 509.747 193.024C509.683 192.672 509.667 192.376 509.699 192.136ZM520.029 184H527.085V185.8H520.029V184ZM522.597 180.88H524.517V196H522.597V180.88Z" fill="black"/>
<g filter="url(#filter2_d_3312_31738)">
<circle cx="328.5" cy="147.5" r="112.5" fill="white"/>
<circle cx="328.5" cy="147.5" r="112" stroke="#F2994A"/>
</g>
<path d="M329 148.875C315.9 148.875 305.25 138.225 305.25 125.125C305.25 112.025 315.9 101.375 329 101.375C342.1 101.375 352.75 112.025 352.75 125.125C352.75 138.225 342.1 148.875 329 148.875ZM329 105.125C317.975 105.125 309 114.1 309 125.125C309 136.15 317.975 145.125 329 145.125C340.025 145.125 349 136.15 349 125.125C349 114.1 340.025 105.125 329 105.125Z" fill="#F2994A"/>
<path d="M329 126.375C327.975 126.375 327.125 125.525 327.125 124.5V112C327.125 110.975 327.975 110.125 329 110.125C330.025 110.125 330.875 110.975 330.875 112V124.5C330.875 125.525 330.025 126.375 329 126.375Z" fill="#F2994A"/>
<path d="M336.5 98.875H321.5C320.475 98.875 319.625 98.025 319.625 97C319.625 95.975 320.475 95.125 321.5 95.125H336.5C337.525 95.125 338.375 95.975 338.375 97C338.375 98.025 337.525 98.875 336.5 98.875Z" fill="#F2994A"/>
<path d="M287.94 196V180.4H294.828C295.916 180.4 296.844 180.568 297.612 180.904C298.38 181.224 298.964 181.712 299.364 182.368C299.78 183.024 299.988 183.848 299.988 184.84C299.988 185.512 299.876 186.088 299.652 186.568C299.444 187.048 299.148 187.456 298.764 187.792C298.38 188.112 297.924 188.36 297.396 188.536C296.884 188.712 296.324 188.824 295.716 188.872L295.644 188.752C296.492 188.784 297.22 188.888 297.828 189.064C298.436 189.24 298.908 189.56 299.244 190.024C299.58 190.488 299.748 191.184 299.748 192.112V196H297.828V192.112C297.828 191.472 297.716 190.976 297.492 190.624C297.284 190.256 296.924 190 296.412 189.856C295.916 189.696 295.228 189.616 294.348 189.616H289.86V196H287.94ZM289.86 187.816H294.828C295.916 187.816 296.724 187.544 297.252 187C297.796 186.44 298.068 185.72 298.068 184.84C298.068 183.992 297.796 183.344 297.252 182.896C296.724 182.432 295.916 182.2 294.828 182.2H289.86V187.816ZM311.474 192.136H313.274C313.146 192.92 312.858 193.624 312.41 194.248C311.978 194.856 311.402 195.344 310.682 195.712C309.978 196.064 309.162 196.24 308.234 196.24C307.114 196.24 306.106 195.976 305.21 195.448C304.314 194.904 303.602 194.168 303.074 193.24C302.562 192.296 302.306 191.224 302.306 190.024C302.306 188.824 302.554 187.752 303.05 186.808C303.562 185.864 304.258 185.12 305.138 184.576C306.018 184.032 307.01 183.76 308.114 183.76C309.282 183.76 310.266 184.024 311.066 184.552C311.882 185.064 312.482 185.824 312.866 186.832C313.266 187.824 313.426 189.048 313.346 190.504H304.226C304.306 191.288 304.522 191.976 304.874 192.568C305.226 193.16 305.69 193.624 306.266 193.96C306.842 194.28 307.498 194.44 308.234 194.44C309.05 194.44 309.738 194.232 310.298 193.816C310.874 193.384 311.266 192.824 311.474 192.136ZM308.186 185.56C307.194 185.56 306.362 185.848 305.69 186.424C305.018 187 304.57 187.784 304.346 188.776H311.378C311.314 187.72 310.97 186.92 310.346 186.376C309.738 185.832 309.018 185.56 308.186 185.56ZM316.062 179.2H317.982V196H316.062V179.2ZM323.729 179.2V181.528H321.233V179.2H323.729ZM321.521 184H323.441V196H321.521V184ZM331.256 196.24C330.312 196.24 329.44 195.976 328.64 195.448C327.856 194.904 327.224 194.168 326.744 193.24C326.28 192.296 326.048 191.224 326.048 190.024C326.048 188.824 326.288 187.752 326.768 186.808C327.248 185.864 327.896 185.12 328.712 184.576C329.544 184.032 330.472 183.76 331.496 183.76C332.616 183.76 333.464 184.048 334.04 184.624C334.632 185.184 335.032 185.936 335.24 186.88C335.464 187.824 335.576 188.872 335.576 190.024C335.576 190.632 335.512 191.296 335.384 192.016C335.256 192.72 335.032 193.4 334.712 194.056C334.408 194.696 333.976 195.224 333.416 195.64C332.856 196.04 332.136 196.24 331.256 196.24ZM331.736 194.416C332.552 194.416 333.224 194.216 333.752 193.816C334.296 193.416 334.696 192.888 334.952 192.232C335.208 191.56 335.336 190.824 335.336 190.024C335.336 189.144 335.2 188.376 334.928 187.72C334.672 187.048 334.272 186.528 333.728 186.16C333.2 185.776 332.536 185.584 331.736 185.584C330.536 185.584 329.608 186.008 328.952 186.856C328.296 187.688 327.968 188.744 327.968 190.024C327.968 190.872 328.128 191.632 328.448 192.304C328.784 192.96 329.232 193.48 329.792 193.864C330.368 194.232 331.016 194.416 331.736 194.416ZM335.336 184H337.256V196H335.504C335.504 196 335.488 195.856 335.456 195.568C335.44 195.28 335.416 194.944 335.384 194.56C335.352 194.176 335.336 193.856 335.336 193.6V184ZM346.51 196.24C345.63 196.24 344.91 196.04 344.35 195.64C343.79 195.224 343.35 194.696 343.03 194.056C342.726 193.4 342.51 192.72 342.382 192.016C342.254 191.296 342.19 190.632 342.19 190.024C342.19 189.16 342.246 188.352 342.358 187.6C342.486 186.848 342.702 186.184 343.006 185.608C343.31 185.032 343.742 184.584 344.302 184.264C344.878 183.928 345.614 183.76 346.51 183.76C347.518 183.76 348.414 184.032 349.198 184.576C349.982 185.12 350.598 185.864 351.046 186.808C351.494 187.752 351.718 188.824 351.718 190.024C351.718 191.224 351.486 192.296 351.022 193.24C350.558 194.168 349.934 194.904 349.15 195.448C348.366 195.976 347.486 196.24 346.51 196.24ZM346.03 194.416C346.766 194.416 347.414 194.232 347.974 193.864C348.534 193.48 348.974 192.96 349.294 192.304C349.63 191.632 349.798 190.872 349.798 190.024C349.798 188.744 349.47 187.688 348.814 186.856C348.158 186.008 347.23 185.584 346.03 185.584C345.23 185.584 344.558 185.776 344.014 186.16C343.486 186.528 343.086 187.048 342.814 187.72C342.558 188.376 342.43 189.144 342.43 190.024C342.43 190.824 342.558 191.56 342.814 192.232C343.086 192.888 343.486 193.416 344.014 193.816C344.542 194.216 345.214 194.416 346.03 194.416ZM342.43 179.2V193.6C342.43 193.888 342.406 194.272 342.358 194.752C342.326 195.232 342.294 195.648 342.262 196H340.51V179.2H342.43ZM354.405 179.2H356.325V196H354.405V179.2ZM368.193 192.136H369.993C369.865 192.92 369.577 193.624 369.129 194.248C368.697 194.856 368.121 195.344 367.401 195.712C366.697 196.064 365.881 196.24 364.953 196.24C363.833 196.24 362.825 195.976 361.929 195.448C361.033 194.904 360.321 194.168 359.793 193.24C359.281 192.296 359.025 191.224 359.025 190.024C359.025 188.824 359.273 187.752 359.769 186.808C360.281 185.864 360.977 185.12 361.857 184.576C362.737 184.032 363.729 183.76 364.833 183.76C366.001 183.76 366.985 184.024 367.785 184.552C368.601 185.064 369.201 185.824 369.585 186.832C369.985 187.824 370.145 189.048 370.065 190.504H360.945C361.025 191.288 361.241 191.976 361.593 192.568C361.945 193.16 362.409 193.624 362.985 193.96C363.561 194.28 364.217 194.44 364.953 194.44C365.769 194.44 366.457 194.232 367.017 193.816C367.593 193.384 367.985 192.824 368.193 192.136ZM364.905 185.56C363.913 185.56 363.081 185.848 362.409 186.424C361.737 187 361.289 187.784 361.065 188.776H368.097C368.033 187.72 367.689 186.92 367.065 186.376C366.457 185.832 365.737 185.56 364.905 185.56Z" fill="black"/>
<defs>
<filter id="filter0_d_3312_31738" x="0" y="0" width="305" height="305" filterUnits="userSpaceOnUse" color-interpolation-filters="sRGB">
<feFlood flood-opacity="0" result="BackgroundImageFix"/>
<feColorMatrix in="SourceAlpha" type="matrix" values="0 0 0 0 0 0 0 0 0 0 0 0 0 0 0 0 0 0 127 0" result="hardAlpha"/>
<feOffset dy="6"/>
<feGaussianBlur stdDeviation="20"/>
<feComposite in2="hardAlpha" operator="out"/>
<feColorMatrix type="matrix" values="0 0 0 0 0.2375 0 0 0 0 0.2375 0 0 0 0 0.2375 0 0 0 0.12 0"/>
<feBlend mode="normal" in2="BackgroundImageFix" result="effect1_dropShadow_3312_31738"/>
<feBlend mode="normal" in="SourceGraphic" in2="effect1_dropShadow_3312_31738" result="shape"/>
</filter>
<filter id="filter1_d_3312_31738" x="352" y="1" width="305" height="305" filterUnits="userSpaceOnUse" color-interpolation-filters="sRGB">
<feFlood flood-opacity="0" result="BackgroundImageFix"/>
<feColorMatrix in="SourceAlpha" type="matrix" values="0 0 0 0 0 0 0 0 0 0 0 0 0 0 0 0 0 0 127 0" result="hardAlpha"/>
<feOffset dy="6"/>
<feGaussianBlur stdDeviation="20"/>
<feComposite in2="hardAlpha" operator="out"/>
<feColorMatrix type="matrix" values="0 0 0 0 0.2375 0 0 0 0 0.2375 0 0 0 0 0.2375 0 0 0 0.12 0"/>
<feBlend mode="normal" in2="BackgroundImageFix" result="effect1_dropShadow_3312_31738"/>
<feBlend mode="normal" in="SourceGraphic" in2="effect1_dropShadow_3312_31738" result="shape"/>
</filter>
<filter id="filter2_d_3312_31738" x="176" y="1" width="305" height="305" filterUnits="userSpaceOnUse" color-interpolation-filters="sRGB">
<feFlood flood-opacity="0" result="BackgroundImageFix"/>
<feColorMatrix in="SourceAlpha" type="matrix" values="0 0 0 0 0 0 0 0 0 0 0 0 0 0 0 0 0 0 127 0" result="hardAlpha"/>
<feOffset dy="6"/>
<feGaussianBlur stdDeviation="20"/>
<feComposite in2="hardAlpha" operator="out"/>
<feColorMatrix type="matrix" values="0 0 0 0 0.2375 0 0 0 0 0.2375 0 0 0 0 0.2375 0 0 0 0.12 0"/>
<feBlend mode="normal" in2="BackgroundImageFix" result="effect1_dropShadow_3312_31738"/>
<feBlend mode="normal" in="SourceGraphic" in2="effect1_dropShadow_3312_31738" result="shape"/>
</filter>
</defs>
</svg>
