<svg width="483" height="313" viewBox="0 0 483 313" fill="none" xmlns="http://www.w3.org/2000/svg">
<path d="M42.6144 148.166L30.6135 152.255L12.3498 98.6503L28.591 93.1166L50.1476 115.239L59.4677 126.083L60.3478 125.783L60.9484 111.559L64.1138 81.0135L80.4351 75.4526L98.6988 129.057L86.6979 133.146L77.4297 105.944L74.9676 97.4067L74.0875 97.7065L73.8295 107.17L70.8064 134.988L56.2452 139.95L36.8665 119.764L30.8841 112.427L30.004 112.726L33.3463 120.963L42.6144 148.166ZM126.629 120.434C112.948 125.095 100.966 120.069 96.6594 107.428C92.2979 94.6272 98.7455 83.4118 112.427 78.7505C126.108 74.0891 138.062 79.0349 142.423 91.836C146.73 104.477 140.31 115.772 126.629 120.434ZM123.003 109.793C131.084 107.04 132.901 102.938 130.502 95.8976C128.103 88.857 124.105 86.5581 116.025 89.3113C107.864 92.0917 106.182 96.3261 108.58 103.367C110.979 110.407 114.842 112.573 123.003 109.793ZM166.14 106.079L154.139 110.168L140.482 70.0845L151.603 66.2955L155.228 76.9363L155.948 76.691C154.86 69.8289 157.411 63.4237 165.491 60.6705C174.452 57.6175 180.231 62.5241 182.903 70.3647L185.165 77.0052L173.164 81.0941L171.747 76.9338C170.248 72.5334 167.833 71.213 162.953 72.8758C157.592 74.7022 156.517 77.8366 158.235 82.877L166.14 106.079ZM217.962 89.3152C204.601 93.8675 193.245 90.4145 188.393 76.1734C184.031 63.3724 190.319 52.2114 203.52 47.7137C216.641 43.2431 227.706 47.1524 231.986 59.7134C232.476 61.1535 232.671 62.2481 232.974 63.6628L200.332 74.7845C202.751 80.836 206.53 82.4949 214.291 79.8507C221.411 77.4246 223.265 74.7395 222.093 71.2992L221.82 70.4991L233.821 66.4102L234.121 67.2903C237.092 76.011 230.683 84.9809 217.962 89.3152ZM206.469 57.1562C199.349 59.5822 197.126 63.0183 198.338 68.4095L219.62 61.1586C217.501 55.9872 213.51 54.7574 206.469 57.1562Z" fill="white"/>
<path d="M62.6144 276.166L63.2594 278.059L65.1526 277.414L64.5075 275.521L62.6144 276.166ZM50.6135 280.255L48.7203 280.9L49.3653 282.793L51.2585 282.148L50.6135 280.255ZM32.3498 226.65L31.7047 224.757L29.8116 225.402L30.4566 227.295L32.3498 226.65ZM48.591 221.117L50.0235 219.721L49.1418 218.816L47.946 219.224L48.591 221.117ZM70.1476 243.239L71.6643 241.935L71.6236 241.888L71.58 241.843L70.1476 243.239ZM79.4677 254.083L77.9509 255.386L78.8325 256.412L80.1127 255.976L79.4677 254.083ZM80.3478 253.783L80.9928 255.676L82.2882 255.235L82.346 253.867L80.3478 253.783ZM80.9484 239.559L78.9591 239.353L78.9528 239.414L78.9502 239.475L80.9484 239.559ZM84.1138 209.014L83.4688 207.12L82.2565 207.533L82.1245 208.807L84.1138 209.014ZM100.435 203.453L102.328 202.808L101.683 200.914L99.7901 201.56L100.435 203.453ZM118.699 257.057L119.344 258.95L121.237 258.305L120.592 256.412L118.699 257.057ZM106.698 261.146L104.805 261.791L105.45 263.684L107.343 263.039L106.698 261.146ZM97.4297 233.944L95.5081 234.498L95.5213 234.544L95.5366 234.589L97.4297 233.944ZM94.9676 225.407L96.8892 224.852L96.308 222.837L94.3225 223.514L94.9676 225.407ZM94.0875 225.707L93.4425 223.813L92.1261 224.262L92.0882 225.652L94.0875 225.707ZM93.8295 235.17L95.8178 235.386L95.8265 235.306L95.8287 235.225L93.8295 235.17ZM90.8064 262.988L91.4514 264.882L92.657 264.471L92.7946 263.205L90.8064 262.988ZM76.2452 267.95L74.8024 269.335L75.6846 270.254L76.8902 269.843L76.2452 267.95ZM56.8665 247.764L55.3165 249.028L55.3677 249.091L55.4238 249.149L56.8665 247.764ZM50.8841 240.427L52.4342 239.163L51.5554 238.085L50.2391 238.533L50.8841 240.427ZM50.004 240.726L49.359 238.833L47.3546 239.516L48.1507 241.478L50.004 240.726ZM53.3463 248.963L55.2394 248.318L55.221 248.264L55.1995 248.211L53.3463 248.963ZM61.9694 274.272L49.9684 278.361L51.2585 282.148L63.2594 278.059L61.9694 274.272ZM52.5066 279.609L34.2429 226.005L30.4566 227.295L48.7203 280.9L52.5066 279.609ZM32.9948 228.543L49.2361 223.01L47.946 219.224L31.7047 224.757L32.9948 228.543ZM47.1586 222.512L68.7152 244.635L71.58 241.843L50.0235 219.721L47.1586 222.512ZM68.6308 244.543L77.9509 255.386L80.9844 252.779L71.6643 241.935L68.6308 244.543ZM80.1127 255.976L80.9928 255.676L79.7027 251.89L78.8227 252.19L80.1127 255.976ZM82.346 253.867L82.9467 239.643L78.9502 239.475L78.3495 253.698L82.346 253.867ZM82.9378 239.765L86.1032 209.22L82.1245 208.807L78.9591 239.353L82.9378 239.765ZM84.7589 210.907L101.08 205.346L99.7901 201.56L83.4688 207.12L84.7589 210.907ZM98.542 204.098L116.806 257.702L120.592 256.412L102.328 202.808L98.542 204.098ZM118.054 255.164L106.053 259.253L107.343 263.039L119.344 258.95L118.054 255.164ZM108.591 260.501L99.3229 233.299L95.5366 234.589L104.805 261.791L108.591 260.501ZM99.3514 233.389L96.8892 224.852L93.0459 225.961L95.5081 234.498L99.3514 233.389ZM94.3225 223.514L93.4425 223.813L94.7325 227.6L95.6126 227.3L94.3225 223.514ZM92.0882 225.652L91.8302 235.116L95.8287 235.225L96.0867 225.761L92.0882 225.652ZM91.8412 234.954L88.8181 262.772L92.7946 263.205L95.8178 235.386L91.8412 234.954ZM90.1613 261.095L75.6002 266.057L76.8902 269.843L91.4514 264.882L90.1613 261.095ZM77.688 266.565L58.3093 246.379L55.4238 249.149L74.8024 269.335L77.688 266.565ZM58.4166 246.5L52.4342 239.163L49.334 241.69L55.3165 249.028L58.4166 246.5ZM50.2391 238.533L49.359 238.833L50.649 242.619L51.5291 242.32L50.2391 238.533ZM48.1507 241.478L51.493 249.715L55.1995 248.211L51.8573 239.974L48.1507 241.478ZM51.4531 249.608L60.7213 276.811L64.5075 275.521L55.2394 248.318L51.4531 249.608ZM145.984 246.541C139.514 248.745 133.621 248.603 128.918 246.582C124.241 244.572 120.541 240.618 118.553 234.783L114.766 236.073C117.085 242.879 121.528 247.759 127.339 250.257C133.124 252.743 140.062 252.784 147.274 250.327L145.984 246.541ZM118.553 234.783C116.535 228.862 117.05 223.453 119.524 219.01C122.012 214.542 126.597 210.849 133.072 208.644L131.782 204.857C124.575 207.313 119.095 211.559 116.03 217.064C112.95 222.595 112.422 229.193 114.766 236.073L118.553 234.783ZM133.072 208.644C139.546 206.438 145.431 206.563 150.13 208.582C154.802 210.59 158.512 214.56 160.53 220.481L164.316 219.191C161.972 212.311 157.525 207.407 151.709 204.907C145.92 202.419 138.988 202.402 131.782 204.857L133.072 208.644ZM160.53 220.481C162.518 226.316 162.001 231.706 159.524 236.154C157.034 240.626 152.453 244.336 145.984 246.541L147.274 250.327C154.485 247.87 159.955 243.602 163.019 238.1C166.096 232.575 166.635 225.997 164.316 219.191L160.53 220.481ZM143.648 239.686C147.859 238.251 150.938 236.31 152.459 233.372C153.994 230.406 153.662 226.971 152.395 223.253L148.609 224.543C149.741 227.865 149.7 230.001 148.906 231.534C148.098 233.095 146.228 234.581 142.358 235.9L143.648 239.686ZM152.395 223.253C151.128 219.533 149.284 216.583 146.261 215.129C143.252 213.682 139.612 213.976 135.38 215.418L136.67 219.204C140.518 217.893 142.917 217.96 144.527 218.734C146.123 219.501 147.478 221.222 148.609 224.543L152.395 223.253ZM135.38 215.418C131.113 216.872 128.044 218.861 126.553 221.848C125.057 224.847 125.424 228.304 126.687 232.012L130.473 230.722C129.338 227.389 129.347 225.208 130.132 223.634C130.923 222.049 132.776 220.531 136.67 219.204L135.38 215.418ZM126.687 232.012C127.95 235.718 129.76 238.653 132.78 240.073C135.774 241.479 139.402 241.133 143.648 239.686L142.358 235.9C138.443 237.234 136.06 237.194 134.482 236.453C132.931 235.724 131.609 234.056 130.473 230.722L126.687 232.012ZM186.14 234.079L186.785 235.972L188.678 235.327L188.033 233.434L186.14 234.079ZM174.139 238.168L172.246 238.813L172.891 240.706L174.784 240.061L174.139 238.168ZM160.482 198.085L159.837 196.191L157.944 196.836L158.589 198.73L160.482 198.085ZM171.603 194.295L173.496 193.65L172.851 191.757L170.958 192.402L171.603 194.295ZM175.228 204.936L173.335 205.581L173.98 207.474L175.873 206.829L175.228 204.936ZM175.948 204.691L176.593 206.584L178.187 206.041L177.924 204.378L175.948 204.691ZM205.165 205.005L205.81 206.898L207.703 206.253L207.058 204.36L205.165 205.005ZM193.164 209.094L191.271 209.739L191.916 211.632L193.809 210.987L193.164 209.094ZM185.495 232.186L173.494 236.275L174.784 240.061L186.785 235.972L185.495 232.186ZM176.032 237.523L162.375 197.44L158.589 198.73L172.246 238.813L176.032 237.523ZM161.127 199.978L172.248 196.189L170.958 192.402L159.837 196.191L161.127 199.978ZM169.71 194.941L173.335 205.581L177.121 204.291L173.496 193.65L169.71 194.941ZM175.873 206.829L176.593 206.584L175.303 202.798L174.583 203.043L175.873 206.829ZM177.924 204.378C177.431 201.27 177.786 198.419 179.042 196.089C180.283 193.789 182.507 191.8 186.136 190.564L184.846 186.777C180.395 188.294 177.304 190.885 175.521 194.191C173.754 197.467 173.378 201.25 173.973 205.004L177.924 204.378ZM186.136 190.564C190.144 189.198 193.183 189.673 195.49 191.125C197.871 192.624 199.763 195.351 201.01 199.01L204.796 197.72C203.371 193.537 201.037 189.891 197.621 187.74C194.13 185.542 189.8 185.09 184.846 186.777L186.136 190.564ZM201.01 199.01L203.272 205.65L207.058 204.36L204.796 197.72L201.01 199.01ZM204.52 203.112L192.519 207.201L193.809 210.987L205.81 206.898L204.52 203.112ZM195.057 208.449L193.64 204.289L189.854 205.579L191.271 209.739L195.057 208.449ZM193.64 204.289C192.826 201.9 191.606 199.847 189.483 198.828C187.375 197.817 184.926 198.091 182.308 198.983L183.598 202.769C185.86 201.998 187.058 202.101 187.752 202.434C188.432 202.76 189.168 203.567 189.854 205.579L193.64 204.289ZM182.308 198.983C179.377 199.981 177.156 201.492 176.11 203.864C175.084 206.19 175.423 208.828 176.341 211.522L180.128 210.232C179.328 207.886 179.347 206.436 179.769 205.478C180.171 204.567 181.168 203.597 183.598 202.769L182.308 198.983ZM176.341 211.522L184.247 234.724L188.033 233.434L180.128 210.232L176.341 211.522ZM252.974 191.663L253.619 193.556L255.303 192.982L254.93 191.243L252.974 191.663ZM220.332 202.785L219.687 200.891L217.692 201.571L218.474 203.527L220.332 202.785ZM241.82 198.499L241.175 196.606L239.282 197.251L239.927 199.144L241.82 198.499ZM253.821 194.41L255.714 193.765L255.069 191.872L253.176 192.517L253.821 194.41ZM218.338 196.41L216.387 196.848L216.875 199.021L218.983 198.303L218.338 196.41ZM239.62 189.159L240.265 191.052L242.276 190.366L241.47 188.4L239.62 189.159ZM237.317 215.422C230.919 217.602 225.264 217.774 220.738 215.938C216.271 214.127 212.567 210.223 210.286 203.528L206.5 204.818C209.071 212.365 213.471 217.308 219.235 219.645C224.941 221.959 231.644 221.581 238.607 219.208L237.317 215.422ZM210.286 203.528C208.265 197.596 208.747 192.19 211.13 187.781C213.524 183.351 217.948 179.725 224.165 177.607L222.875 173.821C215.891 176.2 210.571 180.403 207.611 185.879C204.641 191.374 204.16 197.95 206.5 204.818L210.286 203.528ZM224.165 177.607C230.414 175.478 235.946 175.421 240.322 177.182C244.647 178.923 248.112 182.546 250.093 188.358L253.879 187.068C251.579 180.319 247.372 175.708 241.815 173.471C236.307 171.255 229.747 171.479 222.875 173.821L224.165 177.607ZM250.093 188.358C250.535 189.658 250.702 190.606 251.019 192.082L254.93 191.243C254.639 189.89 254.417 188.649 253.879 187.068L250.093 188.358ZM252.329 189.77L219.687 200.891L220.977 204.678L253.619 193.556L252.329 189.77ZM218.474 203.527C219.781 206.796 221.633 209.324 224.599 210.449C227.477 211.54 230.917 211.113 234.936 209.744L233.646 205.958C229.905 207.232 227.574 207.299 226.017 206.708C224.549 206.152 223.301 204.824 222.189 202.042L218.474 203.527ZM234.936 209.744C238.578 208.503 241.25 207.084 242.818 205.259C243.636 204.307 244.162 203.235 244.346 202.053C244.527 200.885 244.356 199.74 243.986 198.654L240.199 199.944C240.416 200.579 240.452 201.059 240.393 201.439C240.337 201.803 240.173 202.199 239.785 202.652C238.939 203.635 237.125 204.772 233.646 205.958L234.936 209.744ZM243.986 198.654L243.713 197.854L239.927 199.144L240.199 199.944L243.986 198.654ZM242.465 200.392L254.466 196.303L253.176 192.517L241.175 196.606L242.465 200.392ZM251.928 195.055L252.228 195.935L256.014 194.645L255.714 193.765L251.928 195.055ZM252.228 195.935C253.478 199.606 252.795 203.356 250.309 206.77C247.792 210.228 243.399 213.35 237.317 215.422L238.607 219.208C245.246 216.946 250.418 213.416 253.543 209.125C256.699 204.79 257.734 199.695 256.014 194.645L252.228 195.935ZM225.824 183.263C222.109 184.529 219.298 186.173 217.644 188.519C215.925 190.958 215.701 193.796 216.387 196.848L220.289 195.971C219.764 193.632 220.044 192.056 220.914 190.823C221.849 189.496 223.709 188.21 227.114 187.049L225.824 183.263ZM218.983 198.303L240.265 191.052L238.975 187.265L217.693 194.516L218.983 198.303ZM241.47 188.4C240.256 185.435 238.351 183.284 235.474 182.406C232.733 181.569 229.488 182.015 225.824 183.263L227.114 187.049C230.491 185.899 232.762 185.76 234.306 186.231C235.714 186.661 236.865 187.71 237.769 189.917L241.47 188.4Z" fill="white"/>
<g filter="url(#filter0_d_3203_31239)">
<rect x="132" y="108" width="343" height="88" rx="44" fill="#2D7EFD"/>
</g>
<path d="M216.635 153.055C216.402 154.805 215.783 156.31 214.78 157.57C213.777 158.807 212.435 159.763 210.755 160.44C209.098 161.093 207.162 161.42 204.945 161.42C203.032 161.42 201.27 161.163 199.66 160.65C198.073 160.137 196.685 159.39 195.495 158.41C194.328 157.407 193.418 156.182 192.765 154.735C192.135 153.265 191.82 151.585 191.82 149.695C191.82 147.782 192.135 146.102 192.765 144.655C193.418 143.208 194.328 141.983 195.495 140.98C196.685 139.953 198.073 139.183 199.66 138.67C201.27 138.157 203.032 137.9 204.945 137.9C207.185 137.9 209.133 138.238 210.79 138.915C212.47 139.592 213.812 140.56 214.815 141.82C215.818 143.08 216.425 144.597 216.635 146.37H212.785C212.458 145.32 211.945 144.433 211.245 143.71C210.545 142.963 209.658 142.392 208.585 141.995C207.535 141.598 206.322 141.4 204.945 141.4C203.218 141.4 201.667 141.727 200.29 142.38C198.913 143.01 197.828 143.943 197.035 145.18C196.265 146.393 195.88 147.898 195.88 149.695C195.88 151.468 196.265 152.973 197.035 154.21C197.828 155.423 198.913 156.345 200.29 156.975C201.667 157.605 203.218 157.92 204.945 157.92C206.322 157.92 207.535 157.733 208.585 157.36C209.635 156.963 210.51 156.403 211.21 155.68C211.91 154.933 212.423 154.058 212.75 153.055H216.635ZM238.807 161H234.922V143.57H238.807V161ZM235.132 152.705L235.167 153.825C235.12 154.128 235.015 154.583 234.852 155.19C234.712 155.797 234.467 156.462 234.117 157.185C233.79 157.885 233.347 158.562 232.787 159.215C232.25 159.845 231.573 160.37 230.757 160.79C229.94 161.187 228.948 161.385 227.782 161.385C226.942 161.385 226.09 161.268 225.227 161.035C224.387 160.825 223.617 160.463 222.917 159.95C222.24 159.437 221.692 158.737 221.272 157.85C220.852 156.963 220.642 155.843 220.642 154.49V143.57H224.527V153.755C224.527 154.852 224.702 155.715 225.052 156.345C225.425 156.952 225.938 157.383 226.592 157.64C227.245 157.897 228.003 158.025 228.867 158.025C230.103 158.025 231.153 157.745 232.017 157.185C232.88 156.625 233.568 155.937 234.082 155.12C234.618 154.28 234.968 153.475 235.132 152.705ZM242.328 155.26H245.933C246.119 156.147 246.598 156.87 247.368 157.43C248.138 157.967 249.176 158.235 250.483 158.235C251.323 158.235 251.976 158.142 252.443 157.955C252.933 157.768 253.271 157.512 253.458 157.185C253.668 156.858 253.773 156.485 253.773 156.065C253.773 155.552 253.621 155.155 253.318 154.875C253.038 154.595 252.618 154.362 252.058 154.175C251.498 153.988 250.798 153.825 249.958 153.685C249.094 153.475 248.243 153.242 247.403 152.985C246.563 152.728 245.804 152.413 245.128 152.04C244.451 151.643 243.914 151.153 243.518 150.57C243.144 149.963 242.958 149.228 242.958 148.365C242.958 147.572 243.133 146.86 243.483 146.23C243.856 145.577 244.369 145.028 245.023 144.585C245.676 144.142 246.446 143.803 247.333 143.57C248.219 143.313 249.188 143.185 250.238 143.185C251.754 143.185 253.014 143.43 254.018 143.92C255.044 144.41 255.814 145.098 256.328 145.985C256.864 146.872 257.133 147.887 257.133 149.03H253.703C253.516 148.097 253.154 147.42 252.618 147C252.081 146.58 251.276 146.37 250.203 146.37C249.129 146.37 248.313 146.557 247.753 146.93C247.193 147.303 246.913 147.817 246.913 148.47C246.913 148.96 247.088 149.357 247.438 149.66C247.811 149.94 248.336 150.185 249.013 150.395C249.689 150.605 250.483 150.815 251.393 151.025C252.233 151.258 253.026 151.503 253.773 151.76C254.519 151.993 255.184 152.297 255.768 152.67C256.374 153.02 256.853 153.487 257.203 154.07C257.553 154.653 257.728 155.377 257.728 156.24C257.728 157.313 257.436 158.235 256.853 159.005C256.293 159.775 255.476 160.37 254.403 160.79C253.329 161.187 252.034 161.385 250.518 161.385C249.188 161.385 248.033 161.233 247.053 160.93C246.096 160.627 245.291 160.23 244.638 159.74C244.008 159.25 243.518 158.725 243.168 158.165C242.818 157.605 242.573 157.068 242.433 156.555C242.316 156.042 242.281 155.61 242.328 155.26ZM260.022 143.57H272.342V146.755H260.022V143.57ZM264.222 138.88H268.142V161H264.222V138.88ZM284.399 161.385C282.462 161.385 280.724 161.035 279.184 160.335C277.644 159.635 276.431 158.608 275.544 157.255C274.657 155.902 274.214 154.257 274.214 152.32C274.214 150.407 274.657 148.773 275.544 147.42C276.431 146.043 277.644 144.993 279.184 144.27C280.724 143.547 282.462 143.185 284.399 143.185C286.336 143.185 288.062 143.547 289.579 144.27C291.096 144.993 292.286 146.043 293.149 147.42C294.036 148.773 294.479 150.407 294.479 152.32C294.479 154.257 294.036 155.902 293.149 157.255C292.286 158.608 291.096 159.635 289.579 160.335C288.062 161.035 286.336 161.385 284.399 161.385ZM284.399 158.2C285.519 158.2 286.546 157.978 287.479 157.535C288.412 157.092 289.147 156.427 289.684 155.54C290.244 154.653 290.524 153.58 290.524 152.32C290.524 151.06 290.244 149.987 289.684 149.1C289.147 148.213 288.412 147.537 287.479 147.07C286.569 146.58 285.542 146.335 284.399 146.335C283.256 146.335 282.217 146.568 281.284 147.035C280.351 147.502 279.592 148.178 279.009 149.065C278.449 149.952 278.169 151.037 278.169 152.32C278.169 153.58 278.449 154.653 279.009 155.54C279.569 156.427 280.316 157.092 281.249 157.535C282.206 157.978 283.256 158.2 284.399 158.2ZM297.956 143.57H301.841V161H297.956V143.57ZM309.191 143.185C310.194 143.185 311.116 143.325 311.956 143.605C312.819 143.885 313.554 144.317 314.161 144.9C314.791 145.46 315.269 146.16 315.596 147C315.946 147.84 316.121 148.832 316.121 149.975V161H312.236V150.745C312.236 149.322 311.886 148.272 311.186 147.595C310.509 146.895 309.436 146.545 307.966 146.545C306.846 146.545 305.819 146.79 304.886 147.28C303.976 147.747 303.229 148.365 302.646 149.135C302.063 149.882 301.724 150.71 301.631 151.62L301.596 149.73C301.713 148.867 301.969 148.05 302.366 147.28C302.763 146.487 303.288 145.787 303.941 145.18C304.594 144.55 305.364 144.06 306.251 143.71C307.138 143.36 308.118 143.185 309.191 143.185ZM323.086 143.185C324.113 143.185 325.046 143.325 325.886 143.605C326.726 143.885 327.449 144.317 328.056 144.9C328.686 145.46 329.176 146.16 329.526 147C329.876 147.84 330.051 148.832 330.051 149.975V161H326.131V150.745C326.131 149.322 325.781 148.272 325.081 147.595C324.404 146.895 323.331 146.545 321.861 146.545C320.741 146.545 319.714 146.79 318.781 147.28C317.871 147.747 317.124 148.365 316.541 149.135C315.981 149.882 315.654 150.71 315.561 151.62L315.491 149.66C315.608 148.82 315.876 148.015 316.296 147.245C316.716 146.452 317.253 145.752 317.906 145.145C318.559 144.538 319.318 144.06 320.181 143.71C321.068 143.36 322.036 143.185 323.086 143.185ZM348.883 155.26H352.628C352.442 156.45 351.975 157.512 351.228 158.445C350.505 159.355 349.513 160.078 348.253 160.615C346.993 161.128 345.488 161.385 343.738 161.385C341.755 161.385 339.982 161.023 338.418 160.3C336.855 159.553 335.63 158.503 334.743 157.15C333.857 155.797 333.413 154.187 333.413 152.32C333.413 150.477 333.845 148.867 334.708 147.49C335.572 146.113 336.762 145.052 338.278 144.305C339.818 143.558 341.592 143.185 343.598 143.185C345.675 143.185 347.402 143.558 348.778 144.305C350.178 145.028 351.217 146.125 351.893 147.595C352.57 149.042 352.85 150.873 352.733 153.09H337.368C337.485 154.07 337.8 154.957 338.313 155.75C338.85 156.52 339.573 157.127 340.483 157.57C341.393 157.99 342.455 158.2 343.668 158.2C345.022 158.2 346.153 157.932 347.063 157.395C347.997 156.858 348.603 156.147 348.883 155.26ZM343.493 146.335C341.907 146.335 340.6 146.732 339.573 147.525C338.547 148.295 337.882 149.287 337.578 150.5H348.813C348.72 149.193 348.195 148.178 347.238 147.455C346.282 146.708 345.033 146.335 343.493 146.335ZM356.198 143.57H360.083V161H356.198V143.57ZM366.383 146.895C365.123 146.895 364.038 147.163 363.128 147.7C362.242 148.237 361.53 148.89 360.993 149.66C360.457 150.43 360.083 151.177 359.873 151.9L359.838 149.94C359.862 149.683 359.943 149.298 360.083 148.785C360.223 148.248 360.433 147.665 360.713 147.035C361.017 146.405 361.413 145.798 361.903 145.215C362.417 144.608 363.035 144.118 363.758 143.745C364.505 143.372 365.38 143.185 366.383 143.185V146.895ZM368.553 155.26H372.158C372.345 156.147 372.823 156.87 373.593 157.43C374.363 157.967 375.402 158.235 376.708 158.235C377.548 158.235 378.202 158.142 378.668 157.955C379.158 157.768 379.497 157.512 379.683 157.185C379.893 156.858 379.998 156.485 379.998 156.065C379.998 155.552 379.847 155.155 379.543 154.875C379.263 154.595 378.843 154.362 378.283 154.175C377.723 153.988 377.023 153.825 376.183 153.685C375.32 153.475 374.468 153.242 373.628 152.985C372.788 152.728 372.03 152.413 371.353 152.04C370.677 151.643 370.14 151.153 369.743 150.57C369.37 149.963 369.183 149.228 369.183 148.365C369.183 147.572 369.358 146.86 369.708 146.23C370.082 145.577 370.595 145.028 371.248 144.585C371.902 144.142 372.672 143.803 373.558 143.57C374.445 143.313 375.413 143.185 376.463 143.185C377.98 143.185 379.24 143.43 380.243 143.92C381.27 144.41 382.04 145.098 382.553 145.985C383.09 146.872 383.358 147.887 383.358 149.03H379.928C379.742 148.097 379.38 147.42 378.843 147C378.307 146.58 377.502 146.37 376.428 146.37C375.355 146.37 374.538 146.557 373.978 146.93C373.418 147.303 373.138 147.817 373.138 148.47C373.138 148.96 373.313 149.357 373.663 149.66C374.037 149.94 374.562 150.185 375.238 150.395C375.915 150.605 376.708 150.815 377.618 151.025C378.458 151.258 379.252 151.503 379.998 151.76C380.745 151.993 381.41 152.297 381.993 152.67C382.6 153.02 383.078 153.487 383.428 154.07C383.778 154.653 383.953 155.377 383.953 156.24C383.953 157.313 383.662 158.235 383.078 159.005C382.518 159.775 381.702 160.37 380.628 160.79C379.555 161.187 378.26 161.385 376.743 161.385C375.413 161.385 374.258 161.233 373.278 160.93C372.322 160.627 371.517 160.23 370.863 159.74C370.233 159.25 369.743 158.725 369.393 158.165C369.043 157.605 368.798 157.068 368.658 156.555C368.542 156.042 368.507 155.61 368.553 155.26Z" fill="white"/>
<g filter="url(#filter1_d_3203_31239)">
<rect x="111" y="213" width="341" height="88" rx="44" fill="white"/>
</g>
<path d="M171.73 268V245.32H183.28C186.057 245.32 188.18 245.845 189.65 246.895C191.143 247.922 191.89 249.415 191.89 251.375C191.89 252.635 191.598 253.638 191.015 254.385C190.455 255.108 189.65 255.657 188.6 256.03C187.55 256.38 186.313 256.602 184.89 256.695L185.03 256.485C186.057 256.508 187.025 256.602 187.935 256.765C188.868 256.905 189.685 257.162 190.385 257.535C191.108 257.908 191.668 258.433 192.065 259.11C192.485 259.763 192.695 260.615 192.695 261.665C192.695 263.065 192.345 264.22 191.645 265.13C190.945 266.04 189.977 266.74 188.74 267.23C187.503 267.697 186.08 267.953 184.47 268H171.73ZM175.72 264.605H183.875C185.392 264.605 186.57 264.348 187.41 263.835C188.25 263.298 188.67 262.47 188.67 261.35C188.67 260.463 188.413 259.822 187.9 259.425C187.387 259.005 186.722 258.737 185.905 258.62C185.112 258.503 184.26 258.445 183.35 258.445H175.72V264.605ZM175.72 255.12H183.035C184.552 255.12 185.718 254.863 186.535 254.35C187.375 253.813 187.795 252.973 187.795 251.83C187.795 250.71 187.375 249.917 186.535 249.45C185.718 248.96 184.645 248.715 183.315 248.715H175.72V255.12ZM214.491 268H210.606V250.57H214.491V268ZM210.816 259.705L210.851 260.825C210.805 261.128 210.7 261.583 210.536 262.19C210.396 262.797 210.151 263.462 209.801 264.185C209.475 264.885 209.031 265.562 208.471 266.215C207.935 266.845 207.258 267.37 206.441 267.79C205.625 268.187 204.633 268.385 203.466 268.385C202.626 268.385 201.775 268.268 200.911 268.035C200.071 267.825 199.301 267.463 198.601 266.95C197.925 266.437 197.376 265.737 196.956 264.85C196.536 263.963 196.326 262.843 196.326 261.49V250.57H200.211V260.755C200.211 261.852 200.386 262.715 200.736 263.345C201.11 263.952 201.623 264.383 202.276 264.64C202.93 264.897 203.688 265.025 204.551 265.025C205.788 265.025 206.838 264.745 207.701 264.185C208.565 263.625 209.253 262.937 209.766 262.12C210.303 261.28 210.653 260.475 210.816 259.705ZM218.012 262.26H221.617C221.804 263.147 222.282 263.87 223.052 264.43C223.822 264.967 224.861 265.235 226.167 265.235C227.007 265.235 227.661 265.142 228.127 264.955C228.617 264.768 228.956 264.512 229.142 264.185C229.352 263.858 229.457 263.485 229.457 263.065C229.457 262.552 229.306 262.155 229.002 261.875C228.722 261.595 228.302 261.362 227.742 261.175C227.182 260.988 226.482 260.825 225.642 260.685C224.779 260.475 223.927 260.242 223.087 259.985C222.247 259.728 221.489 259.413 220.812 259.04C220.136 258.643 219.599 258.153 219.202 257.57C218.829 256.963 218.642 256.228 218.642 255.365C218.642 254.572 218.817 253.86 219.167 253.23C219.541 252.577 220.054 252.028 220.707 251.585C221.361 251.142 222.131 250.803 223.017 250.57C223.904 250.313 224.872 250.185 225.922 250.185C227.439 250.185 228.699 250.43 229.702 250.92C230.729 251.41 231.499 252.098 232.012 252.985C232.549 253.872 232.817 254.887 232.817 256.03H229.387C229.201 255.097 228.839 254.42 228.302 254C227.766 253.58 226.961 253.37 225.887 253.37C224.814 253.37 223.997 253.557 223.437 253.93C222.877 254.303 222.597 254.817 222.597 255.47C222.597 255.96 222.772 256.357 223.122 256.66C223.496 256.94 224.021 257.185 224.697 257.395C225.374 257.605 226.167 257.815 227.077 258.025C227.917 258.258 228.711 258.503 229.457 258.76C230.204 258.993 230.869 259.297 231.452 259.67C232.059 260.02 232.537 260.487 232.887 261.07C233.237 261.653 233.412 262.377 233.412 263.24C233.412 264.313 233.121 265.235 232.537 266.005C231.977 266.775 231.161 267.37 230.087 267.79C229.014 268.187 227.719 268.385 226.202 268.385C224.872 268.385 223.717 268.233 222.737 267.93C221.781 267.627 220.976 267.23 220.322 266.74C219.692 266.25 219.202 265.725 218.852 265.165C218.502 264.605 218.257 264.068 218.117 263.555C218.001 263.042 217.966 262.61 218.012 262.26ZM241.482 243.185V246.93H236.827V243.185H241.482ZM237.177 250.57H241.097V268H237.177V250.57ZM245.75 250.57H249.635V268H245.75V250.57ZM256.985 250.185C257.988 250.185 258.91 250.325 259.75 250.605C260.613 250.885 261.348 251.317 261.955 251.9C262.585 252.46 263.063 253.16 263.39 254C263.74 254.84 263.915 255.832 263.915 256.975V268H260.03V257.745C260.03 256.322 259.68 255.272 258.98 254.595C258.303 253.895 257.23 253.545 255.76 253.545C254.64 253.545 253.613 253.79 252.68 254.28C251.77 254.747 251.023 255.365 250.44 256.135C249.857 256.882 249.518 257.71 249.425 258.62L249.39 256.73C249.507 255.867 249.763 255.05 250.16 254.28C250.557 253.487 251.082 252.787 251.735 252.18C252.388 251.55 253.158 251.06 254.045 250.71C254.932 250.36 255.912 250.185 256.985 250.185ZM282.766 262.26H286.511C286.324 263.45 285.858 264.512 285.111 265.445C284.388 266.355 283.396 267.078 282.136 267.615C280.876 268.128 279.371 268.385 277.621 268.385C275.638 268.385 273.864 268.023 272.301 267.3C270.738 266.553 269.513 265.503 268.626 264.15C267.739 262.797 267.296 261.187 267.296 259.32C267.296 257.477 267.728 255.867 268.591 254.49C269.454 253.113 270.644 252.052 272.161 251.305C273.701 250.558 275.474 250.185 277.481 250.185C279.558 250.185 281.284 250.558 282.661 251.305C284.061 252.028 285.099 253.125 285.776 254.595C286.453 256.042 286.733 257.873 286.616 260.09H271.251C271.368 261.07 271.683 261.957 272.196 262.75C272.733 263.52 273.456 264.127 274.366 264.57C275.276 264.99 276.338 265.2 277.551 265.2C278.904 265.2 280.036 264.932 280.946 264.395C281.879 263.858 282.486 263.147 282.766 262.26ZM277.376 253.335C275.789 253.335 274.483 253.732 273.456 254.525C272.429 255.295 271.764 256.287 271.461 257.5H282.696C282.603 256.193 282.078 255.178 281.121 254.455C280.164 253.708 278.916 253.335 277.376 253.335ZM289.311 262.26H292.916C293.103 263.147 293.581 263.87 294.351 264.43C295.121 264.967 296.159 265.235 297.466 265.235C298.306 265.235 298.959 265.142 299.426 264.955C299.916 264.768 300.254 264.512 300.441 264.185C300.651 263.858 300.756 263.485 300.756 263.065C300.756 262.552 300.604 262.155 300.301 261.875C300.021 261.595 299.601 261.362 299.041 261.175C298.481 260.988 297.781 260.825 296.941 260.685C296.078 260.475 295.226 260.242 294.386 259.985C293.546 259.728 292.788 259.413 292.111 259.04C291.434 258.643 290.898 258.153 290.501 257.57C290.128 256.963 289.941 256.228 289.941 255.365C289.941 254.572 290.116 253.86 290.466 253.23C290.839 252.577 291.353 252.028 292.006 251.585C292.659 251.142 293.429 250.803 294.316 250.57C295.203 250.313 296.171 250.185 297.221 250.185C298.738 250.185 299.998 250.43 301.001 250.92C302.028 251.41 302.798 252.098 303.311 252.985C303.848 253.872 304.116 254.887 304.116 256.03H300.686C300.499 255.097 300.138 254.42 299.601 254C299.064 253.58 298.259 253.37 297.186 253.37C296.113 253.37 295.296 253.557 294.736 253.93C294.176 254.303 293.896 254.817 293.896 255.47C293.896 255.96 294.071 256.357 294.421 256.66C294.794 256.94 295.319 257.185 295.996 257.395C296.673 257.605 297.466 257.815 298.376 258.025C299.216 258.258 300.009 258.503 300.756 258.76C301.503 258.993 302.168 259.297 302.751 259.67C303.358 260.02 303.836 260.487 304.186 261.07C304.536 261.653 304.711 262.377 304.711 263.24C304.711 264.313 304.419 265.235 303.836 266.005C303.276 266.775 302.459 267.37 301.386 267.79C300.313 268.187 299.018 268.385 297.501 268.385C296.171 268.385 295.016 268.233 294.036 267.93C293.079 267.627 292.274 267.23 291.621 266.74C290.991 266.25 290.501 265.725 290.151 265.165C289.801 264.605 289.556 264.068 289.416 263.555C289.299 263.042 289.264 262.61 289.311 262.26ZM307.461 262.26H311.066C311.252 263.147 311.731 263.87 312.501 264.43C313.271 264.967 314.309 265.235 315.616 265.235C316.456 265.235 317.109 265.142 317.576 264.955C318.066 264.768 318.404 264.512 318.591 264.185C318.801 263.858 318.906 263.485 318.906 263.065C318.906 262.552 318.754 262.155 318.451 261.875C318.171 261.595 317.751 261.362 317.191 261.175C316.631 260.988 315.931 260.825 315.091 260.685C314.227 260.475 313.376 260.242 312.536 259.985C311.696 259.728 310.937 259.413 310.261 259.04C309.584 258.643 309.047 258.153 308.651 257.57C308.277 256.963 308.091 256.228 308.091 255.365C308.091 254.572 308.266 253.86 308.616 253.23C308.989 252.577 309.502 252.028 310.156 251.585C310.809 251.142 311.579 250.803 312.466 250.57C313.352 250.313 314.321 250.185 315.371 250.185C316.887 250.185 318.147 250.43 319.151 250.92C320.177 251.41 320.947 252.098 321.461 252.985C321.997 253.872 322.266 254.887 322.266 256.03H318.836C318.649 255.097 318.287 254.42 317.751 254C317.214 253.58 316.409 253.37 315.336 253.37C314.262 253.37 313.446 253.557 312.886 253.93C312.326 254.303 312.046 254.817 312.046 255.47C312.046 255.96 312.221 256.357 312.571 256.66C312.944 256.94 313.469 257.185 314.146 257.395C314.822 257.605 315.616 257.815 316.526 258.025C317.366 258.258 318.159 258.503 318.906 258.76C319.652 258.993 320.317 259.297 320.901 259.67C321.507 260.02 321.986 260.487 322.336 261.07C322.686 261.653 322.861 262.377 322.861 263.24C322.861 264.313 322.569 265.235 321.986 266.005C321.426 266.775 320.609 267.37 319.536 267.79C318.462 268.187 317.167 268.385 315.651 268.385C314.321 268.385 313.166 268.233 312.186 267.93C311.229 267.627 310.424 267.23 309.771 266.74C309.141 266.25 308.651 265.725 308.301 265.165C307.951 264.605 307.706 264.068 307.566 263.555C307.449 263.042 307.414 262.61 307.461 262.26Z" fill="#008800"/>
<defs>
<filter id="filter0_d_3203_31239" x="124" y="104" width="359" height="104" filterUnits="userSpaceOnUse" color-interpolation-filters="sRGB">
<feFlood flood-opacity="0" result="BackgroundImageFix"/>
<feColorMatrix in="SourceAlpha" type="matrix" values="0 0 0 0 0 0 0 0 0 0 0 0 0 0 0 0 0 0 127 0" result="hardAlpha"/>
<feOffset dy="4"/>
<feGaussianBlur stdDeviation="4"/>
<feComposite in2="hardAlpha" operator="out"/>
<feColorMatrix type="matrix" values="0 0 0 0 0 0 0 0 0 0 0 0 0 0 0 0 0 0 0.15 0"/>
<feBlend mode="normal" in2="BackgroundImageFix" result="effect1_dropShadow_3203_31239"/>
<feBlend mode="normal" in="SourceGraphic" in2="effect1_dropShadow_3203_31239" result="shape"/>
</filter>
<filter id="filter1_d_3203_31239" x="103" y="209" width="357" height="104" filterUnits="userSpaceOnUse" color-interpolation-filters="sRGB">
<feFlood flood-opacity="0" result="BackgroundImageFix"/>
<feColorMatrix in="SourceAlpha" type="matrix" values="0 0 0 0 0 0 0 0 0 0 0 0 0 0 0 0 0 0 127 0" result="hardAlpha"/>
<feOffset dy="4"/>
<feGaussianBlur stdDeviation="4"/>
<feComposite in2="hardAlpha" operator="out"/>
<feColorMatrix type="matrix" values="0 0 0 0 0 0 0 0 0 0 0 0 0 0 0 0 0 0 0.15 0"/>
<feBlend mode="normal" in2="BackgroundImageFix" result="effect1_dropShadow_3203_31239"/>
<feBlend mode="normal" in="SourceGraphic" in2="effect1_dropShadow_3203_31239" result="shape"/>
</filter>
</defs>
</svg>
