<svg width="55" height="55" viewBox="0 0 55 55" fill="none" xmlns="http://www.w3.org/2000/svg">
<g clip-path="url(#clip0_6379_64155)">
<path d="M26.0399 46.1443C25.9486 46.5096 25.7378 46.8339 25.441 47.0657C25.1442 47.2975 24.7784 47.4234 24.4018 47.4235C24.2596 47.4242 24.1177 47.4071 23.9797 47.3728L17.2248 45.6841C17.0367 45.6369 16.8582 45.5576 16.697 45.4498L11.6309 42.0723C11.2583 41.8238 10.9997 41.4374 10.912 40.9982C10.8244 40.5589 10.9147 40.1029 11.1633 39.7303C11.4119 39.3577 11.7983 39.0992 12.2375 39.0115C12.6767 38.9238 13.1328 39.0142 13.5054 39.2627L18.3267 42.4776L24.7987 44.0967C25.0149 44.1491 25.2187 44.2438 25.3982 44.3752C25.5778 44.5066 25.7296 44.6722 25.8449 44.8625C25.9603 45.0528 26.0369 45.264 26.0703 45.4839C26.1038 45.7039 26.0934 45.9283 26.0399 46.1443ZM54.0494 25.7825C53.9109 26.2034 53.6903 26.5927 53.4004 26.9278C53.1106 27.2629 52.7572 27.5373 52.3607 27.7351L47.3621 30.2344L35.7353 41.8634C35.5289 42.0695 35.2727 42.2187 34.9915 42.2964C34.7104 42.3741 34.4139 42.3776 34.131 42.3067L20.6212 38.9292C20.4158 38.8776 20.2218 38.7882 20.0492 38.6654L8.32943 30.2977L3.20417 27.7351C2.40316 27.3347 1.79396 26.6325 1.51053 25.7831C1.22711 24.9336 1.29266 24.0063 1.69276 23.2051L6.93835 12.7161C7.33877 11.915 8.04093 11.3058 8.89041 11.0224C9.7399 10.739 10.6672 10.8045 11.4683 11.2046L16.125 13.5266L27.3128 10.3307C27.6163 10.2439 27.938 10.2439 28.2416 10.3307L39.4293 13.5266L44.086 11.2046C44.8872 10.8045 45.8144 10.739 46.6639 11.0224C47.5134 11.3058 48.2156 11.915 48.616 12.7161L53.8616 23.2051C54.0616 23.601 54.1813 24.0326 54.2135 24.475C54.2458 24.9174 54.19 25.3618 54.0494 25.7825ZM44.3013 28.514L38.5575 17.0265H31.8406L22.7131 25.8923C25.3855 27.6 29.5757 28.0707 33.3352 24.2817C33.6288 23.9857 34.0215 23.8088 34.4377 23.7851C34.8539 23.7613 35.2642 23.8923 35.5896 24.1529L42.8532 29.9727L44.3013 28.514ZM4.71346 24.7144L8.44764 26.5826L13.6932 16.0935L9.95905 14.2253L4.71346 24.7144ZM40.4447 32.3643L34.5954 27.6802C30.4707 31.0577 25.2335 31.5031 20.8935 28.7357C20.4666 28.4641 20.1062 28.1001 19.8388 27.6705C19.5715 27.241 19.404 26.7568 19.3489 26.2539C19.2938 25.7509 19.3524 25.242 19.5204 24.7647C19.6883 24.2874 19.9614 23.854 20.3194 23.4964C20.3244 23.4903 20.3301 23.4846 20.3362 23.4795L29.8057 14.295L27.7793 13.7166L17.1361 16.7584L11.3586 28.3114L21.7442 35.7312L34.017 38.7983L40.4447 32.3643ZM50.8388 24.7144L45.5995 14.2253L41.8653 16.0935L47.1109 26.5826L50.8388 24.7144Z" fill="#FF823B"/>
</g>
<defs>
<clipPath id="clip0_6379_64155">
<rect width="54.0391" height="54.0391" fill="white" transform="translate(0.759766 0.140625)"/>
</clipPath>
</defs>
</svg>
