<svg width="552" height="223" viewBox="0 0 552 223" fill="none" xmlns="http://www.w3.org/2000/svg">
<path d="M46.9758 19.6637L28.5158 48.4587V61.7188H19.8058V48.4587L1.34584 19.6637H11.3558L26.8908 44.8187H21.6908L36.9658 19.6637H46.9758ZM64.7599 62.4988C60.6866 62.4988 57.0899 61.8487 53.9699 60.5487C50.8933 59.2487 48.4883 57.3637 46.7549 54.8937C45.0216 52.3804 44.1549 49.3037 44.1549 45.6637C44.1549 42.0237 45.0216 38.9471 46.7549 36.4337C48.4883 33.8771 50.8933 31.9487 53.9699 30.6487C57.0899 29.3487 60.6866 28.6987 64.7599 28.6987C68.8333 28.6987 72.3866 29.3487 75.4199 30.6487C78.4966 31.9487 80.9016 33.8771 82.6349 36.4337C84.3683 38.9471 85.2349 42.0237 85.2349 45.6637C85.2349 49.3037 84.3683 52.3804 82.6349 54.8937C80.9016 57.3637 78.4966 59.2487 75.4199 60.5487C72.3866 61.8487 68.8333 62.4988 64.7599 62.4988ZM64.7599 55.9987C67.0133 55.9987 69.0283 55.6087 70.8049 54.8287C72.6249 54.0054 74.0549 52.8354 75.0949 51.3187C76.1349 49.7587 76.6549 47.8737 76.6549 45.6637C76.6549 43.4537 76.1349 41.5687 75.0949 40.0087C74.0549 38.4054 72.6466 37.1921 70.8699 36.3687C69.0933 35.5454 67.0566 35.1337 64.7599 35.1337C62.5066 35.1337 60.4699 35.5454 58.6499 36.3687C56.8299 37.1921 55.3783 38.3837 54.2949 39.9437C53.2549 41.5037 52.7349 43.4104 52.7349 45.6637C52.7349 47.8737 53.2549 49.7587 54.2949 51.3187C55.3349 52.8354 56.7649 54.0054 58.5849 54.8287C60.4049 55.6087 62.4633 55.9987 64.7599 55.9987ZM128.857 61.7188H120.407V29.4137H128.857V61.7188ZM120.862 46.1837L120.927 48.3937C120.84 49.0004 120.623 49.8887 120.277 51.0587C119.93 52.1854 119.388 53.3987 118.652 54.6987C117.958 55.9987 117.048 57.2554 115.922 58.4687C114.795 59.6387 113.408 60.6137 111.762 61.3937C110.115 62.1304 108.165 62.4988 105.912 62.4988C104.135 62.4988 102.38 62.2821 100.647 61.8488C98.9565 61.4154 97.4182 60.7004 96.0315 59.7037C94.6449 58.6637 93.5399 57.2771 92.7165 55.5437C91.8932 53.8104 91.4815 51.6221 91.4815 48.9787V29.4137H99.9315V47.5487C99.9315 49.6287 100.257 51.2754 100.907 52.4887C101.6 53.6587 102.597 54.4821 103.897 54.9587C105.197 55.4354 106.735 55.6737 108.512 55.6737C110.852 55.6737 112.867 55.1754 114.557 54.1787C116.247 53.1387 117.612 51.8821 118.652 50.4087C119.735 48.9354 120.472 47.5271 120.862 46.1837ZM167.959 62.4338C164.709 62.4338 161.762 61.7404 159.119 60.3537C156.519 58.9237 154.46 56.9521 152.944 54.4387C151.427 51.8821 150.669 48.9354 150.669 45.5987C150.669 42.1754 151.405 39.2071 152.879 36.6937C154.395 34.1804 156.454 32.2304 159.054 30.8437C161.654 29.4137 164.622 28.6987 167.959 28.6987C170.862 28.6987 173.332 29.1321 175.369 29.9987C177.405 30.8654 179.052 32.0787 180.309 33.6387C181.565 35.1554 182.475 36.9321 183.039 38.9687C183.645 41.0054 183.949 43.2154 183.949 45.5987C183.949 47.5054 183.645 49.4554 183.039 51.4487C182.432 53.3987 181.5 55.2187 180.244 56.9087C178.987 58.5554 177.34 59.8987 175.304 60.9387C173.267 61.9354 170.819 62.4338 167.959 62.4338ZM170.689 55.9337C173.245 55.9337 175.455 55.5004 177.319 54.6337C179.182 53.7671 180.612 52.5537 181.609 50.9937C182.605 49.4337 183.104 47.6354 183.104 45.5987C183.104 43.3887 182.584 41.5254 181.544 40.0087C180.547 38.4487 179.117 37.2571 177.254 36.4337C175.434 35.6104 173.245 35.1987 170.689 35.1987C167.092 35.1987 164.297 36.1521 162.304 38.0587C160.31 39.9654 159.314 42.4787 159.314 45.5987C159.314 47.6787 159.79 49.4987 160.744 51.0587C161.697 52.5754 163.019 53.7671 164.709 54.6337C166.442 55.5004 168.435 55.9337 170.689 55.9337ZM183.104 16.4137H191.554V61.7188H183.689C183.559 60.7221 183.429 59.4437 183.299 57.8837C183.169 56.2804 183.104 54.7854 183.104 53.3987V16.4137ZM230.106 50.9937H238.296C237.95 53.2037 237.018 55.1754 235.501 56.9087C234.028 58.6421 232.013 60.0071 229.456 61.0037C226.9 62.0004 223.78 62.4988 220.096 62.4988C215.98 62.4988 212.34 61.8487 209.176 60.5487C206.013 59.2054 203.543 57.2771 201.766 54.7637C199.99 52.2504 199.101 49.2171 199.101 45.6637C199.101 42.1104 199.968 39.0771 201.701 36.5637C203.435 34.0071 205.84 32.0571 208.916 30.7137C212.036 29.3704 215.676 28.6987 219.836 28.6987C224.083 28.6987 227.615 29.3704 230.431 30.7137C233.248 32.0571 235.328 34.0937 236.671 36.8237C238.058 39.5104 238.643 42.9554 238.426 47.1587H207.616C207.833 48.8054 208.44 50.3004 209.436 51.6437C210.476 52.9871 211.863 54.0487 213.596 54.8287C215.373 55.6087 217.475 55.9987 219.901 55.9987C222.588 55.9987 224.82 55.5437 226.596 54.6337C228.416 53.6804 229.586 52.4671 230.106 50.9937ZM219.446 35.1337C216.326 35.1337 213.791 35.8271 211.841 37.2137C209.891 38.5571 208.635 40.2254 208.071 42.2187H230.041C229.825 40.0521 228.785 38.3404 226.921 37.0837C225.101 35.7837 222.61 35.1337 219.446 35.1337ZM241.995 29.4137H267.085V35.9787H241.995V29.4137ZM250.315 20.5737H258.765V61.7188H250.315V20.5737ZM301.454 50.9937H309.644C309.297 53.2037 308.366 55.1754 306.849 56.9087C305.376 58.6421 303.361 60.0071 300.804 61.0037C298.247 62.0004 295.127 62.4988 291.444 62.4988C287.327 62.4988 283.687 61.8487 280.524 60.5487C277.361 59.2054 274.891 57.2771 273.114 54.7637C271.337 52.2504 270.449 49.2171 270.449 45.6637C270.449 42.1104 271.316 39.0771 273.049 36.5637C274.782 34.0071 277.187 32.0571 280.264 30.7137C283.384 29.3704 287.024 28.6987 291.184 28.6987C295.431 28.6987 298.962 29.3704 301.779 30.7137C304.596 32.0571 306.676 34.0937 308.019 36.8237C309.406 39.5104 309.991 42.9554 309.774 47.1587H278.964C279.181 48.8054 279.787 50.3004 280.784 51.6437C281.824 52.9871 283.211 54.0487 284.944 54.8287C286.721 55.6087 288.822 55.9987 291.249 55.9987C293.936 55.9987 296.167 55.5437 297.944 54.6337C299.764 53.6804 300.934 52.4671 301.454 50.9937ZM290.794 35.1337C287.674 35.1337 285.139 35.8271 283.189 37.2137C281.239 38.5571 279.982 40.2254 279.419 42.2187H301.389C301.172 40.0521 300.132 38.3404 298.269 37.0837C296.449 35.7837 293.957 35.1337 290.794 35.1337ZM316.062 29.4137H324.512V61.7188H316.062V29.4137ZM336.927 36.3687C334.5 36.3687 332.398 36.8454 330.622 37.7987C328.845 38.7087 327.415 39.8354 326.332 41.1787C325.248 42.5221 324.49 43.8221 324.057 45.0787L323.992 41.5037C324.035 40.9837 324.208 40.2254 324.512 39.2287C324.815 38.1887 325.27 37.0837 325.877 35.9137C326.483 34.7004 327.285 33.5521 328.282 32.4687C329.278 31.3421 330.492 30.4321 331.922 29.7387C333.352 29.0454 335.02 28.6987 336.927 28.6987V36.3687ZM342.15 29.4137H350.6V61.7188H342.15V29.4137ZM365.615 28.6987C367.609 28.6987 369.45 28.9587 371.14 29.4787C372.83 29.9987 374.304 30.8004 375.56 31.8837C376.817 32.9671 377.792 34.3537 378.485 36.0437C379.179 37.6904 379.525 39.6621 379.525 41.9587V61.7188H371.075V43.4537C371.075 40.7237 370.404 38.7304 369.06 37.4737C367.76 36.1737 365.615 35.5237 362.625 35.5237C360.372 35.5237 358.335 35.9571 356.515 36.8237C354.695 37.6904 353.222 38.7954 352.095 40.1387C350.969 41.4387 350.319 42.8037 350.145 44.2337L350.08 40.9187C350.297 39.4021 350.795 37.9287 351.575 36.4987C352.355 35.0687 353.395 33.7687 354.695 32.5987C356.039 31.3854 357.62 30.4321 359.44 29.7387C361.26 29.0454 363.319 28.6987 365.615 28.6987ZM393.76 28.6987C395.754 28.6987 397.595 28.9587 399.285 29.4787C400.975 29.9987 402.449 30.8004 403.705 31.8837C404.962 32.9671 405.937 34.3537 406.63 36.0437C407.367 37.6904 407.735 39.6621 407.735 41.9587V61.7188H399.285V43.4537C399.285 40.7237 398.614 38.7304 397.27 37.4737C395.927 36.1737 393.76 35.5237 390.77 35.5237C388.517 35.5237 386.48 35.9571 384.66 36.8237C382.84 37.6904 381.367 38.7954 380.24 40.1387C379.114 41.4387 378.485 42.8037 378.355 44.2337L378.225 40.7237C378.442 39.2937 378.962 37.8637 379.785 36.4337C380.609 35.0037 381.692 33.7037 383.035 32.5337C384.379 31.3637 385.939 30.4321 387.715 29.7387C389.535 29.0454 391.55 28.6987 393.76 28.6987ZM425.087 15.2437V22.6537H415.272V15.2437H425.087ZM415.922 29.4137H424.372V61.7188H415.922V29.4137ZM432.795 29.4137H441.245V61.7188H432.795V29.4137ZM456.26 28.6987C458.253 28.6987 460.095 28.9587 461.785 29.4787C463.475 29.9987 464.948 30.8004 466.205 31.8837C467.462 32.9671 468.437 34.3537 469.13 36.0437C469.823 37.6904 470.17 39.6621 470.17 41.9587V61.7188H461.72V43.4537C461.72 40.7237 461.048 38.7304 459.705 37.4737C458.405 36.1737 456.26 35.5237 453.27 35.5237C451.017 35.5237 448.98 35.9571 447.16 36.8237C445.34 37.6904 443.867 38.7954 442.74 40.1387C441.613 41.4387 440.963 42.8037 440.79 44.2337L440.725 40.9187C440.942 39.4021 441.44 37.9287 442.22 36.4987C443 35.0687 444.04 33.7687 445.34 32.5987C446.683 31.3854 448.265 30.4321 450.085 29.7387C451.905 29.0454 453.963 28.6987 456.26 28.6987ZM507.308 50.9937H515.498C515.152 53.2037 514.22 55.1754 512.703 56.9087C511.23 58.6421 509.215 60.0071 506.658 61.0037C504.102 62.0004 500.982 62.4988 497.298 62.4988C493.182 62.4988 489.542 61.8487 486.378 60.5487C483.215 59.2054 480.745 57.2771 478.968 54.7637C477.192 52.2504 476.303 49.2171 476.303 45.6637C476.303 42.1104 477.17 39.0771 478.903 36.5637C480.637 34.0071 483.042 32.0571 486.118 30.7137C489.238 29.3704 492.878 28.6987 497.038 28.6987C501.285 28.6987 504.817 29.3704 507.633 30.7137C510.45 32.0571 512.53 34.0937 513.873 36.8237C515.26 39.5104 515.845 42.9554 515.628 47.1587H484.818C485.035 48.8054 485.642 50.3004 486.638 51.6437C487.678 52.9871 489.065 54.0487 490.798 54.8287C492.575 55.6087 494.677 55.9987 497.103 55.9987C499.79 55.9987 502.022 55.5437 503.798 54.6337C505.618 53.6804 506.788 52.4671 507.308 50.9937ZM496.648 35.1337C493.528 35.1337 490.993 35.8271 489.043 37.2137C487.093 38.5571 485.837 40.2254 485.273 42.2187H507.243C507.027 40.0521 505.987 38.3404 504.123 37.0837C502.303 35.7837 499.812 35.1337 496.648 35.1337ZM1.08584 109.414H10.0558L24.0308 140.419L16.7508 141.719L1.08584 109.414ZM40.6058 109.414L18.2458 154.719H9.47084L19.0258 136.909L31.5708 109.414H40.6058ZM63.1096 142.499C59.0362 142.499 55.4396 141.849 52.3196 140.549C49.2429 139.249 46.8379 137.364 45.1046 134.894C43.3712 132.38 42.5046 129.304 42.5046 125.664C42.5046 122.024 43.3712 118.947 45.1046 116.434C46.8379 113.877 49.2429 111.949 52.3196 110.649C55.4396 109.349 59.0362 108.699 63.1096 108.699C67.1829 108.699 70.7362 109.349 73.7696 110.649C76.8462 111.949 79.2512 113.877 80.9846 116.434C82.7179 118.947 83.5846 122.024 83.5846 125.664C83.5846 129.304 82.7179 132.38 80.9846 134.894C79.2512 137.364 76.8462 139.249 73.7696 140.549C70.7362 141.849 67.1829 142.499 63.1096 142.499ZM63.1096 135.999C65.3629 135.999 67.3779 135.609 69.1546 134.829C70.9746 134.005 72.4046 132.835 73.4446 131.319C74.4846 129.759 75.0046 127.874 75.0046 125.664C75.0046 123.454 74.4846 121.569 73.4446 120.009C72.4046 118.405 70.9962 117.192 69.2196 116.369C67.4429 115.545 65.4062 115.134 63.1096 115.134C60.8562 115.134 58.8196 115.545 56.9996 116.369C55.1796 117.192 53.7279 118.384 52.6446 119.944C51.6046 121.504 51.0846 123.41 51.0846 125.664C51.0846 127.874 51.6046 129.759 52.6446 131.319C53.6846 132.835 55.1146 134.005 56.9346 134.829C58.7546 135.609 60.8129 135.999 63.1096 135.999ZM127.206 141.719H118.756V109.414H127.206V141.719ZM119.211 126.184L119.276 128.394C119.189 129 118.973 129.889 118.626 131.059C118.279 132.185 117.738 133.399 117.001 134.699C116.308 135.999 115.398 137.255 114.271 138.469C113.144 139.639 111.758 140.614 110.111 141.394C108.464 142.13 106.514 142.499 104.261 142.499C102.484 142.499 100.729 142.282 98.9962 141.849C97.3062 141.415 95.7678 140.7 94.3812 139.704C92.9945 138.664 91.8895 137.277 91.0662 135.544C90.2428 133.81 89.8312 131.622 89.8312 128.979V109.414H98.2812V127.549C98.2812 129.629 98.6062 131.275 99.2562 132.489C99.9495 133.659 100.946 134.482 102.246 134.959C103.546 135.435 105.084 135.674 106.861 135.674C109.201 135.674 111.216 135.175 112.906 134.179C114.596 133.139 115.961 131.882 117.001 130.409C118.084 128.935 118.821 127.527 119.211 126.184ZM134.9 109.414H143.35V141.719H134.9V109.414ZM155.765 116.369C153.338 116.369 151.236 116.845 149.46 117.799C147.683 118.709 146.253 119.835 145.17 121.179C144.086 122.522 143.328 123.822 142.895 125.079L142.83 121.504C142.873 120.984 143.046 120.225 143.35 119.229C143.653 118.189 144.108 117.084 144.715 115.914C145.321 114.7 146.123 113.552 147.12 112.469C148.116 111.342 149.33 110.432 150.76 109.739C152.19 109.045 153.858 108.699 155.765 108.699V116.369Z" fill="black"/>
<path d="M175.367 130.994H183.167C183.644 132.467 184.619 133.68 186.092 134.634C187.609 135.544 189.58 135.999 192.007 135.999C193.654 135.999 194.932 135.847 195.842 135.544C196.752 135.24 197.38 134.807 197.727 134.244C198.074 133.637 198.247 132.965 198.247 132.229C198.247 131.319 197.965 130.625 197.402 130.149C196.839 129.629 195.972 129.217 194.802 128.914C193.632 128.61 192.137 128.329 190.317 128.069C188.497 127.765 186.742 127.397 185.052 126.964C183.362 126.53 181.867 125.967 180.567 125.274C179.267 124.537 178.227 123.627 177.447 122.544C176.71 121.417 176.342 120.052 176.342 118.449C176.342 116.889 176.71 115.502 177.447 114.289C178.227 113.075 179.289 112.057 180.632 111.234C182.019 110.41 183.622 109.782 185.442 109.349C187.305 108.915 189.299 108.699 191.422 108.699C194.629 108.699 197.294 109.175 199.417 110.129C201.54 111.039 203.122 112.339 204.162 114.029C205.245 115.675 205.787 117.582 205.787 119.749H198.312C197.965 118.145 197.272 116.997 196.232 116.304C195.192 115.567 193.589 115.199 191.422 115.199C189.299 115.199 187.695 115.524 186.612 116.174C185.529 116.824 184.987 117.712 184.987 118.839C184.987 119.749 185.312 120.464 185.962 120.984C186.655 121.46 187.652 121.85 188.952 122.154C190.295 122.457 191.964 122.782 193.957 123.129C195.647 123.475 197.25 123.865 198.767 124.299C200.327 124.732 201.714 125.295 202.927 125.989C204.14 126.639 205.094 127.527 205.787 128.654C206.524 129.737 206.892 131.124 206.892 132.814C206.892 134.894 206.285 136.649 205.072 138.079C203.902 139.509 202.212 140.614 200.002 141.394C197.792 142.13 195.149 142.499 192.072 142.499C189.342 142.499 186.98 142.217 184.987 141.654C183.037 141.047 181.412 140.289 180.112 139.379C178.812 138.425 177.794 137.429 177.057 136.389C176.364 135.305 175.887 134.287 175.627 133.334C175.367 132.38 175.28 131.6 175.367 130.994ZM229.087 142.434C225.88 142.434 222.955 141.74 220.312 140.354C217.712 138.924 215.632 136.952 214.072 134.439C212.555 131.882 211.797 128.935 211.797 125.599C211.797 122.175 212.577 119.207 214.137 116.694C215.697 114.18 217.798 112.23 220.442 110.844C223.128 109.414 226.162 108.699 229.542 108.699C233.268 108.699 236.258 109.457 238.512 110.974C240.808 112.447 242.477 114.462 243.517 117.019C244.557 119.575 245.077 122.435 245.077 125.599C245.077 127.505 244.773 129.455 244.167 131.449C243.56 133.399 242.628 135.219 241.372 136.909C240.115 138.555 238.468 139.899 236.432 140.939C234.395 141.935 231.947 142.434 229.087 142.434ZM231.817 135.934C234.373 135.934 236.583 135.5 238.447 134.634C240.31 133.767 241.74 132.554 242.737 130.994C243.733 129.434 244.232 127.635 244.232 125.599C244.232 123.389 243.712 121.525 242.672 120.009C241.675 118.449 240.245 117.279 238.382 116.499C236.562 115.675 234.373 115.264 231.817 115.264C228.22 115.264 225.425 116.217 223.432 118.124C221.438 119.987 220.442 122.479 220.442 125.599C220.442 127.679 220.918 129.499 221.872 131.059C222.825 132.575 224.147 133.767 225.837 134.634C227.57 135.5 229.563 135.934 231.817 135.934ZM244.232 109.414H252.682V141.719H244.817C244.817 141.719 244.752 141.307 244.622 140.484C244.535 139.617 244.448 138.534 244.362 137.234C244.275 135.934 244.232 134.655 244.232 133.399V109.414ZM278.139 136.194H275.084L286.914 109.414H296.144L280.609 141.719H272.614L257.404 109.414H266.699L278.139 136.194ZM310.766 95.2437V102.654H300.951V95.2437H310.766ZM301.601 109.414H310.051V141.719H301.601V109.414ZM318.474 109.414H326.924V141.719H318.474V109.414ZM341.939 108.699C343.932 108.699 345.774 108.959 347.464 109.479C349.154 109.999 350.627 110.8 351.884 111.884C353.14 112.967 354.115 114.354 354.809 116.044C355.502 117.69 355.849 119.662 355.849 121.959V141.719H347.399V123.454C347.399 120.724 346.727 118.73 345.384 117.474C344.084 116.174 341.939 115.524 338.949 115.524C336.695 115.524 334.659 115.957 332.839 116.824C331.019 117.69 329.545 118.795 328.419 120.139C327.292 121.439 326.642 122.804 326.469 124.234L326.404 120.919C326.62 119.402 327.119 117.929 327.899 116.499C328.679 115.069 329.719 113.769 331.019 112.599C332.362 111.385 333.944 110.432 335.764 109.739C337.584 109.045 339.642 108.699 341.939 108.699ZM379.662 136.779C376.152 136.779 373.054 136.259 370.367 135.219C367.724 134.135 365.665 132.554 364.192 130.474C362.719 128.394 361.982 125.88 361.982 122.934C361.982 120.03 362.697 117.517 364.127 115.394C365.557 113.27 367.594 111.624 370.237 110.454C372.924 109.284 376.065 108.699 379.662 108.699C380.659 108.699 381.612 108.764 382.522 108.894C383.475 109.024 384.407 109.197 385.317 109.414L401.632 109.479V115.849C399.422 115.892 397.169 115.632 394.872 115.069C392.619 114.462 390.625 113.812 388.892 113.119L388.697 112.664C390.17 113.357 391.557 114.224 392.857 115.264C394.157 116.26 395.197 117.43 395.977 118.774C396.8 120.074 397.212 121.59 397.212 123.324C397.212 126.14 396.497 128.567 395.067 130.604C393.637 132.597 391.6 134.135 388.957 135.219C386.357 136.259 383.259 136.779 379.662 136.779ZM390.517 155.044V153.484C390.517 151.49 389.867 150.104 388.567 149.324C387.31 148.544 385.577 148.154 383.367 148.154H373.292C371.342 148.154 369.695 148.002 368.352 147.699C367.052 147.395 366.012 146.962 365.232 146.399C364.452 145.835 363.889 145.164 363.542 144.384C363.195 143.647 363.022 142.845 363.022 141.979C363.022 140.245 363.585 138.945 364.712 138.079C365.839 137.169 367.355 136.562 369.262 136.259C371.169 135.955 373.27 135.89 375.567 136.064L379.662 136.779C376.932 136.865 374.895 137.104 373.552 137.494C372.252 137.84 371.602 138.555 371.602 139.639C371.602 140.289 371.862 140.809 372.382 141.199C372.902 141.545 373.639 141.719 374.592 141.719H385.187C388.09 141.719 390.56 142.022 392.597 142.629C394.677 143.279 396.259 144.34 397.342 145.814C398.425 147.33 398.967 149.389 398.967 151.989V155.044H390.517ZM379.662 130.669C381.525 130.669 383.15 130.365 384.537 129.759C385.967 129.152 387.072 128.285 387.852 127.159C388.632 125.989 389.022 124.602 389.022 122.999C389.022 121.352 388.632 119.944 387.852 118.774C387.072 117.604 385.989 116.715 384.602 116.109C383.215 115.459 381.569 115.134 379.662 115.134C377.799 115.134 376.152 115.459 374.722 116.109C373.292 116.715 372.187 117.604 371.407 118.774C370.627 119.944 370.237 121.352 370.237 122.999C370.237 124.602 370.627 125.989 371.407 127.159C372.187 128.285 373.27 129.152 374.657 129.759C376.087 130.365 377.755 130.669 379.662 130.669ZM405.85 130.994H413.65C414.127 132.467 415.102 133.68 416.575 134.634C418.092 135.544 420.064 135.999 422.49 135.999C424.137 135.999 425.415 135.847 426.325 135.544C427.235 135.24 427.864 134.807 428.21 134.244C428.557 133.637 428.73 132.965 428.73 132.229C428.73 131.319 428.449 130.625 427.885 130.149C427.322 129.629 426.455 129.217 425.285 128.914C424.115 128.61 422.62 128.329 420.8 128.069C418.98 127.765 417.225 127.397 415.535 126.964C413.845 126.53 412.35 125.967 411.05 125.274C409.75 124.537 408.71 123.627 407.93 122.544C407.194 121.417 406.825 120.052 406.825 118.449C406.825 116.889 407.194 115.502 407.93 114.289C408.71 113.075 409.772 112.057 411.115 111.234C412.502 110.41 414.105 109.782 415.925 109.349C417.789 108.915 419.782 108.699 421.905 108.699C425.112 108.699 427.777 109.175 429.9 110.129C432.024 111.039 433.605 112.339 434.645 114.029C435.729 115.675 436.27 117.582 436.27 119.749H428.795C428.449 118.145 427.755 116.997 426.715 116.304C425.675 115.567 424.072 115.199 421.905 115.199C419.782 115.199 418.179 115.524 417.095 116.174C416.012 116.824 415.47 117.712 415.47 118.839C415.47 119.749 415.795 120.464 416.445 120.984C417.139 121.46 418.135 121.85 419.435 122.154C420.779 122.457 422.447 122.782 424.44 123.129C426.13 123.475 427.734 123.865 429.25 124.299C430.81 124.732 432.197 125.295 433.41 125.989C434.624 126.639 435.577 127.527 436.27 128.654C437.007 129.737 437.375 131.124 437.375 132.814C437.375 134.894 436.769 136.649 435.555 138.079C434.385 139.509 432.695 140.614 430.485 141.394C428.275 142.13 425.632 142.499 422.555 142.499C419.825 142.499 417.464 142.217 415.47 141.654C413.52 141.047 411.895 140.289 410.595 139.379C409.295 138.425 408.277 137.429 407.54 136.389C406.847 135.305 406.37 134.287 406.11 133.334C405.85 132.38 405.764 131.6 405.85 130.994ZM1.73584 189.414H26.8258V195.979H1.73584V189.414ZM10.0558 180.574H18.5058V221.719H10.0558V180.574ZM61.1951 210.994H69.3851C69.0384 213.204 68.1068 215.175 66.5901 216.909C65.1168 218.642 63.1018 220.007 60.5451 221.004C57.9884 222 54.8684 222.499 51.1851 222.499C47.0684 222.499 43.4284 221.849 40.2651 220.549C37.1018 219.205 34.6318 217.277 32.8551 214.764C31.0784 212.25 30.1901 209.217 30.1901 205.664C30.1901 202.11 31.0568 199.077 32.7901 196.564C34.5234 194.007 36.9284 192.057 40.0051 190.714C43.1251 189.37 46.7651 188.699 50.9251 188.699C55.1718 188.699 58.7034 189.37 61.5201 190.714C64.3368 192.057 66.4168 194.094 67.7601 196.824C69.1468 199.51 69.7318 202.955 69.5151 207.159H38.7051C38.9218 208.805 39.5284 210.3 40.5251 211.644C41.5651 212.987 42.9518 214.049 44.6851 214.829C46.4618 215.609 48.5634 215.999 50.9901 215.999C53.6768 215.999 55.9084 215.544 57.6851 214.634C59.5051 213.68 60.6751 212.467 61.1951 210.994ZM50.5351 195.134C47.4151 195.134 44.8801 195.827 42.9301 197.214C40.9801 198.557 39.7234 200.225 39.1601 202.219H61.1301C60.9134 200.052 59.8734 198.34 58.0101 197.084C56.1901 195.784 53.6984 195.134 50.5351 195.134ZM75.8028 189.414H84.2528V221.719H75.8028V189.414ZM96.6678 196.369C94.2412 196.369 92.1395 196.845 90.3628 197.799C88.5862 198.709 87.1562 199.835 86.0728 201.179C84.9895 202.522 84.2312 203.822 83.7978 205.079L83.7328 201.504C83.7762 200.984 83.9495 200.225 84.2528 199.229C84.5562 198.189 85.0112 197.084 85.6178 195.914C86.2245 194.7 87.0262 193.552 88.0228 192.469C89.0195 191.342 90.2328 190.432 91.6628 189.739C93.0928 189.045 94.7612 188.699 96.6678 188.699V196.369ZM101.892 189.414H110.342V221.719H101.892V189.414ZM125.357 188.699C127.35 188.699 129.192 188.959 130.882 189.479C132.572 189.999 134.045 190.8 135.302 191.884C136.558 192.967 137.533 194.354 138.227 196.044C138.92 197.69 139.267 199.662 139.267 201.959V221.719H130.817V203.454C130.817 200.724 130.145 198.73 128.802 197.474C127.502 196.174 125.357 195.524 122.367 195.524C120.113 195.524 118.077 195.957 116.257 196.824C114.437 197.69 112.963 198.795 111.837 200.139C110.71 201.439 110.06 202.804 109.887 204.234L109.822 200.919C110.038 199.402 110.537 197.929 111.317 196.499C112.097 195.069 113.137 193.769 114.437 192.599C115.78 191.385 117.362 190.432 119.182 189.739C121.002 189.045 123.06 188.699 125.357 188.699ZM153.502 188.699C155.495 188.699 157.337 188.959 159.027 189.479C160.717 189.999 162.19 190.8 163.447 191.884C164.703 192.967 165.678 194.354 166.372 196.044C167.108 197.69 167.477 199.662 167.477 201.959V221.719H159.027V203.454C159.027 200.724 158.355 198.73 157.012 197.474C155.668 196.174 153.502 195.524 150.512 195.524C148.258 195.524 146.222 195.957 144.402 196.824C142.582 197.69 141.108 198.795 139.982 200.139C138.855 201.439 138.227 202.804 138.097 204.234L137.967 200.724C138.183 199.294 138.703 197.864 139.527 196.434C140.35 195.004 141.433 193.704 142.777 192.534C144.12 191.364 145.68 190.432 147.457 189.739C149.277 189.045 151.292 188.699 153.502 188.699ZM173.844 210.994H181.644C182.12 212.467 183.095 213.68 184.569 214.634C186.085 215.544 188.057 215.999 190.484 215.999C192.13 215.999 193.409 215.847 194.319 215.544C195.229 215.24 195.857 214.807 196.204 214.244C196.55 213.637 196.724 212.965 196.724 212.229C196.724 211.319 196.442 210.625 195.879 210.149C195.315 209.629 194.449 209.217 193.279 208.914C192.109 208.61 190.614 208.329 188.794 208.069C186.974 207.765 185.219 207.397 183.529 206.964C181.839 206.53 180.344 205.967 179.044 205.274C177.744 204.537 176.704 203.627 175.924 202.544C175.187 201.417 174.819 200.052 174.819 198.449C174.819 196.889 175.187 195.502 175.924 194.289C176.704 193.075 177.765 192.057 179.109 191.234C180.495 190.41 182.099 189.782 183.919 189.349C185.782 188.915 187.775 188.699 189.899 188.699C193.105 188.699 195.77 189.175 197.894 190.129C200.017 191.039 201.599 192.339 202.639 194.029C203.722 195.675 204.264 197.582 204.264 199.749H196.789C196.442 198.145 195.749 196.997 194.709 196.304C193.669 195.567 192.065 195.199 189.899 195.199C187.775 195.199 186.172 195.524 185.089 196.174C184.005 196.824 183.464 197.712 183.464 198.839C183.464 199.749 183.789 200.464 184.439 200.984C185.132 201.46 186.129 201.85 187.429 202.154C188.772 202.457 190.44 202.782 192.434 203.129C194.124 203.475 195.727 203.865 197.244 204.299C198.804 204.732 200.19 205.295 201.404 205.989C202.617 206.639 203.57 207.527 204.264 208.654C205 209.737 205.369 211.124 205.369 212.814C205.369 214.894 204.762 216.649 203.549 218.079C202.379 219.509 200.689 220.614 198.479 221.394C196.269 222.13 193.625 222.499 190.549 222.499C187.819 222.499 185.457 222.217 183.464 221.654C181.514 221.047 179.889 220.289 178.589 219.379C177.289 218.425 176.27 217.429 175.534 216.389C174.84 215.305 174.364 214.287 174.104 213.334C173.844 212.38 173.757 211.6 173.844 210.994Z" fill="#23A323"/>
<mask id="path-2-inside-1_4830_46912" fill="white">
<path d="M210.903 190.127L250.308 178.274L210.903 179.692L278.076 169.921L343.357 160.426L266.334 177.698L210.903 190.127Z"/>
</mask>
<path d="M176.671 175.678C176.671 178.623 179.059 181.011 182.004 181.011C184.95 181.011 187.338 178.623 187.338 175.678C187.338 172.732 184.95 170.344 182.004 170.344C179.059 170.344 176.671 172.732 176.671 175.678ZM309.642 160.426L309.93 161.383L309.523 159.433L309.642 160.426ZM278.076 169.921L278.364 170.879L278.076 169.921ZM250.308 178.274L250.02 177.316L250.344 179.273L250.308 178.274ZM266.334 177.698L266.298 176.698L266.334 177.698ZM182.123 176.671L309.76 161.419L309.523 159.433L181.886 174.685L182.123 176.671ZM309.354 159.468L277.788 168.964L278.364 170.879L309.93 161.383L309.354 159.468ZM277.788 168.964L250.02 177.316L250.596 179.232L278.364 170.879L277.788 168.964ZM250.344 179.273L266.37 178.697L266.298 176.698L250.272 177.275L250.344 179.273ZM266.37 178.697L322.522 176.677L322.45 174.678L266.298 176.698L266.37 178.697ZM278.076 169.921L278.364 171.9L278.076 169.921ZM250.308 178.274L250.884 180.189L250.236 176.275L250.308 178.274ZM210.903 190.127L210.327 188.212L211.341 192.079L210.903 190.127ZM266.334 177.698L266.771 179.649L266.334 177.698ZM343.357 160.426L343.795 162.377L343.07 158.447L343.357 160.426ZM210.903 179.692L210.616 177.712L210.975 181.69L210.903 179.692ZM249.732 176.359L210.327 188.212L211.48 192.043L250.884 180.189L249.732 176.359ZM211.341 192.079L266.771 179.649L265.896 175.746L210.466 188.176L211.341 192.079ZM266.771 179.649L343.795 162.377L342.92 158.474L265.896 175.746L266.771 179.649ZM343.07 158.447L277.788 167.942L278.364 171.9L343.645 162.405L343.07 158.447ZM277.788 167.942L210.616 177.712L211.191 181.671L278.364 171.9L277.788 167.942ZM210.975 181.69L250.38 180.273L250.236 176.275L210.832 177.693L210.975 181.69Z" fill="#23A323" mask="url(#path-2-inside-1_4830_46912)"/>
</svg>
