<svg width="378" height="184" viewBox="0 0 378 184" fill="none" xmlns="http://www.w3.org/2000/svg">
<g clip-path="url(#clip0_5587_56152)">
<path d="M288.482 115.595H297.415V116.945H288.482V115.595ZM292.187 116.788H293.71V125.784H292.187V116.788ZM301.082 125.957C300.318 125.957 299.617 125.795 298.979 125.47C298.34 125.146 297.833 124.68 297.456 124.073C297.079 123.466 296.891 122.738 296.891 121.891C296.891 121.032 297.079 120.3 297.456 119.693C297.833 119.075 298.34 118.604 298.979 118.28C299.617 117.955 300.318 117.793 301.082 117.793C301.847 117.793 302.543 117.955 303.171 118.28C303.798 118.604 304.301 119.075 304.678 119.693C305.054 120.3 305.243 121.032 305.243 121.891C305.243 122.738 305.054 123.466 304.678 124.073C304.301 124.68 303.798 125.146 303.171 125.47C302.543 125.795 301.847 125.957 301.082 125.957ZM301.082 124.654C301.553 124.654 301.988 124.549 302.386 124.34C302.794 124.12 303.118 123.806 303.359 123.398C303.61 122.979 303.736 122.477 303.736 121.891C303.736 121.294 303.61 120.787 303.359 120.368C303.118 119.949 302.794 119.63 302.386 119.41C301.988 119.19 301.553 119.081 301.082 119.081C300.611 119.081 300.172 119.19 299.764 119.41C299.356 119.62 299.026 119.934 298.775 120.352C298.523 120.771 298.398 121.284 298.398 121.891C298.398 122.477 298.518 122.979 298.759 123.398C299.01 123.806 299.34 124.12 299.748 124.34C300.156 124.549 300.601 124.654 301.082 124.654ZM320.238 122.299C320.144 123.063 319.883 123.717 319.454 124.261C319.035 124.806 318.485 125.224 317.805 125.517C317.125 125.81 316.35 125.957 315.482 125.957C314.697 125.957 313.974 125.837 313.315 125.596C312.666 125.355 312.101 125.01 311.619 124.56C311.138 124.11 310.761 123.56 310.489 122.911C310.217 122.252 310.081 121.514 310.081 120.698C310.081 119.871 310.217 119.133 310.489 118.484C310.761 117.835 311.138 117.286 311.619 116.836C312.101 116.375 312.666 116.024 313.315 115.784C313.974 115.543 314.697 115.423 315.482 115.423C316.361 115.423 317.14 115.574 317.821 115.878C318.501 116.171 319.051 116.595 319.469 117.149C319.898 117.694 320.16 118.348 320.254 119.112H318.81C318.674 118.62 318.449 118.201 318.135 117.856C317.821 117.511 317.439 117.249 316.989 117.071C316.539 116.883 316.036 116.788 315.482 116.788C314.77 116.788 314.121 116.94 313.535 117.244C312.949 117.547 312.478 117.987 312.122 118.562C311.776 119.138 311.604 119.85 311.604 120.698C311.604 121.535 311.776 122.247 312.122 122.833C312.478 123.408 312.949 123.848 313.535 124.151C314.121 124.444 314.77 124.591 315.482 124.591C316.036 124.591 316.533 124.502 316.973 124.324C317.423 124.146 317.805 123.885 318.119 123.539C318.433 123.194 318.663 122.78 318.81 122.299H320.238ZM322.044 117.95H323.551V125.784H322.044V117.95ZM326.204 119.285C325.66 119.285 325.194 119.41 324.807 119.661C324.43 119.913 324.127 120.221 323.896 120.588C323.677 120.954 323.53 121.305 323.457 121.64L323.441 120.745C323.452 120.64 323.478 120.478 323.52 120.258C323.572 120.028 323.661 119.771 323.787 119.489C323.912 119.206 324.08 118.939 324.289 118.688C324.498 118.426 324.76 118.212 325.074 118.044C325.388 117.877 325.765 117.793 326.204 117.793V119.285ZM333.608 123.241H335.036C334.952 123.754 334.754 124.214 334.44 124.622C334.126 125.031 333.712 125.355 333.199 125.596C332.686 125.837 332.085 125.957 331.394 125.957C330.578 125.957 329.85 125.784 329.212 125.439C328.573 125.093 328.071 124.617 327.705 124.01C327.338 123.403 327.155 122.697 327.155 121.891C327.155 121.074 327.333 120.363 327.689 119.756C328.045 119.138 328.537 118.657 329.165 118.311C329.793 117.966 330.509 117.793 331.315 117.793C332.163 117.793 332.875 117.961 333.451 118.296C334.026 118.63 334.45 119.128 334.722 119.787C335.005 120.436 335.12 121.247 335.068 122.22H328.646C328.699 122.691 328.84 123.11 329.07 123.476C329.311 123.843 329.625 124.131 330.012 124.34C330.41 124.549 330.865 124.654 331.378 124.654C331.954 124.654 332.435 124.523 332.823 124.261C333.21 124 333.471 123.66 333.608 123.241ZM331.331 119.081C330.651 119.081 330.086 119.264 329.636 119.63C329.186 119.986 328.887 120.462 328.741 121.059H333.56C333.519 120.42 333.288 119.934 332.87 119.599C332.451 119.253 331.938 119.081 331.331 119.081ZM339.889 125.941C339.219 125.941 338.607 125.768 338.052 125.423C337.497 125.078 337.058 124.601 336.733 123.994C336.409 123.377 336.247 122.67 336.247 121.875C336.247 121.08 336.409 120.378 336.733 119.771C337.068 119.154 337.523 118.672 338.099 118.327C338.675 117.971 339.318 117.793 340.03 117.793C340.815 117.793 341.422 117.976 341.851 118.343C342.291 118.709 342.594 119.201 342.762 119.818C342.94 120.436 343.029 121.121 343.029 121.875C343.029 122.294 342.976 122.738 342.872 123.209C342.767 123.68 342.6 124.125 342.369 124.544C342.139 124.963 341.82 125.303 341.412 125.564C341.004 125.816 340.496 125.941 339.889 125.941ZM340.313 124.638C340.867 124.638 341.333 124.518 341.71 124.277C342.097 124.026 342.385 123.691 342.573 123.272C342.762 122.854 342.856 122.388 342.856 121.875C342.856 121.32 342.757 120.834 342.558 120.415C342.369 119.996 342.082 119.672 341.694 119.442C341.318 119.211 340.857 119.096 340.313 119.096C339.496 119.096 338.863 119.358 338.413 119.881C337.974 120.405 337.754 121.069 337.754 121.875C337.754 122.419 337.864 122.901 338.083 123.319C338.303 123.728 338.602 124.052 338.978 124.293C339.366 124.523 339.81 124.638 340.313 124.638ZM342.856 117.95H344.363V125.784H342.982C342.982 125.784 342.971 125.69 342.95 125.502C342.929 125.303 342.908 125.067 342.887 124.795C342.867 124.523 342.856 124.282 342.856 124.073V117.95ZM345.779 117.95H350.85V119.253H345.779V117.95ZM347.569 115.878H349.061V125.784H347.569V115.878ZM358.184 123.241H359.612C359.529 123.754 359.33 124.214 359.016 124.622C358.702 125.031 358.289 125.355 357.776 125.596C357.263 125.837 356.661 125.957 355.97 125.957C355.154 125.957 354.426 125.784 353.788 125.439C353.15 125.093 352.647 124.617 352.281 124.01C351.915 123.403 351.731 122.697 351.731 121.891C351.731 121.074 351.909 120.363 352.265 119.756C352.621 119.138 353.113 118.657 353.741 118.311C354.369 117.966 355.086 117.793 355.892 117.793C356.739 117.793 357.451 117.961 358.027 118.296C358.602 118.63 359.026 119.128 359.299 119.787C359.581 120.436 359.696 121.247 359.644 122.22H353.223C353.275 122.691 353.416 123.11 353.647 123.476C353.887 123.843 354.201 124.131 354.589 124.34C354.986 124.549 355.442 124.654 355.955 124.654C356.53 124.654 357.012 124.523 357.399 124.261C357.786 124 358.048 123.66 358.184 123.241ZM355.907 119.081C355.227 119.081 354.662 119.264 354.212 119.63C353.762 119.986 353.464 120.462 353.317 121.059H358.137C358.095 120.42 357.865 119.934 357.446 119.599C357.027 119.253 356.514 119.081 355.907 119.081ZM292.438 151.941C291.768 151.941 291.156 151.768 290.601 151.423C290.046 151.078 289.607 150.601 289.282 149.994C288.958 149.377 288.796 148.67 288.796 147.875C288.796 147.08 288.958 146.378 289.282 145.771C289.617 145.154 290.073 144.672 290.648 144.327C291.224 143.971 291.868 143.793 292.579 143.793C293.364 143.793 293.971 143.976 294.4 144.343C294.84 144.709 295.144 145.201 295.311 145.818C295.489 146.436 295.578 147.121 295.578 147.875C295.578 148.294 295.526 148.738 295.421 149.209C295.316 149.68 295.149 150.125 294.918 150.544C294.688 150.963 294.369 151.303 293.961 151.564C293.553 151.816 293.045 151.941 292.438 151.941ZM292.862 150.638C293.417 150.638 293.882 150.518 294.259 150.277C294.646 150.026 294.934 149.691 295.123 149.272C295.311 148.854 295.405 148.388 295.405 147.875C295.405 147.32 295.306 146.834 295.107 146.415C294.918 145.996 294.631 145.672 294.243 145.442C293.867 145.211 293.406 145.096 292.862 145.096C292.046 145.096 291.412 145.358 290.962 145.881C290.523 146.405 290.303 147.069 290.303 147.875C290.303 148.419 290.413 148.901 290.633 149.319C290.852 149.728 291.151 150.052 291.527 150.293C291.915 150.523 292.359 150.638 292.862 150.638ZM295.405 143.95H296.912V151.784H295.531C295.531 151.784 295.52 151.69 295.499 151.502C295.478 151.303 295.458 151.067 295.437 150.795C295.416 150.523 295.405 150.282 295.405 150.073V143.95ZM298.878 143.95H300.385V151.784H298.878V143.95ZM303.368 143.793C303.808 143.793 304.205 143.856 304.561 143.982C304.917 144.107 305.221 144.296 305.472 144.547C305.723 144.787 305.917 145.091 306.053 145.457C306.199 145.813 306.272 146.221 306.272 146.682V151.784H304.781V147.012C304.781 146.394 304.629 145.934 304.326 145.63C304.033 145.316 303.583 145.159 302.976 145.159C302.505 145.159 302.076 145.269 301.688 145.489C301.301 145.709 300.982 146.002 300.731 146.368C300.49 146.724 300.343 147.127 300.291 147.577L300.275 146.713C300.328 146.295 300.438 145.907 300.605 145.552C300.783 145.196 301.003 144.887 301.264 144.625C301.536 144.353 301.85 144.149 302.206 144.013C302.562 143.866 302.949 143.793 303.368 143.793ZM314.929 151.941C314.259 151.941 313.647 151.768 313.092 151.423C312.538 151.078 312.098 150.601 311.774 149.994C311.449 149.377 311.287 148.67 311.287 147.875C311.287 147.08 311.449 146.378 311.774 145.771C312.109 145.154 312.564 144.672 313.14 144.327C313.715 143.971 314.359 143.793 315.071 143.793C315.856 143.793 316.463 143.976 316.892 144.343C317.331 144.709 317.635 145.201 317.802 145.818C317.98 146.436 318.069 147.121 318.069 147.875C318.069 148.294 318.017 148.738 317.912 149.209C317.807 149.68 317.64 150.125 317.41 150.544C317.179 150.963 316.86 151.303 316.452 151.564C316.044 151.816 315.536 151.941 314.929 151.941ZM315.353 150.638C315.908 150.638 316.374 150.518 316.75 150.277C317.138 150.026 317.425 149.691 317.614 149.272C317.802 148.854 317.896 148.388 317.896 147.875C317.896 147.32 317.797 146.834 317.598 146.415C317.41 145.996 317.122 145.672 316.735 145.442C316.358 145.211 315.897 145.096 315.353 145.096C314.537 145.096 313.904 145.358 313.454 145.881C313.014 146.405 312.794 147.069 312.794 147.875C312.794 148.419 312.904 148.901 313.124 149.319C313.344 149.728 313.642 150.052 314.019 150.293C314.406 150.523 314.851 150.638 315.353 150.638ZM317.896 143.95H319.404V151.784H318.022C318.022 151.784 318.012 151.69 317.991 151.502C317.97 151.303 317.949 151.067 317.928 150.795C317.907 150.523 317.896 150.282 317.896 150.073V143.95ZM329.046 148.801C328.984 149.45 328.774 150.015 328.418 150.497C328.073 150.968 327.618 151.329 327.053 151.58C326.487 151.831 325.859 151.957 325.169 151.957C324.405 151.957 323.703 151.8 323.065 151.486C322.426 151.161 321.914 150.696 321.526 150.089C321.15 149.471 320.961 148.738 320.961 147.891C320.961 147.032 321.15 146.3 321.526 145.693C321.914 145.075 322.426 144.604 323.065 144.28C323.703 143.955 324.405 143.793 325.169 143.793C325.859 143.793 326.482 143.919 327.037 144.17C327.592 144.421 328.047 144.782 328.403 145.253C328.759 145.714 328.973 146.268 329.046 146.917H327.68C327.503 146.352 327.183 145.907 326.723 145.583C326.273 145.248 325.755 145.081 325.169 145.081C324.687 145.081 324.237 145.19 323.818 145.41C323.41 145.63 323.081 145.949 322.829 146.368C322.589 146.776 322.468 147.284 322.468 147.891C322.468 148.477 322.589 148.979 322.829 149.398C323.081 149.806 323.41 150.12 323.818 150.34C324.227 150.549 324.677 150.654 325.169 150.654C325.838 150.654 326.383 150.492 326.801 150.167C327.22 149.843 327.518 149.387 327.696 148.801H329.046ZM338.291 148.801C338.228 149.45 338.019 150.015 337.663 150.497C337.318 150.968 336.863 151.329 336.297 151.58C335.732 151.831 335.104 151.957 334.413 151.957C333.649 151.957 332.948 151.8 332.31 151.486C331.671 151.161 331.158 150.696 330.771 150.089C330.394 149.471 330.206 148.738 330.206 147.891C330.206 147.032 330.394 146.3 330.771 145.693C331.158 145.075 331.671 144.604 332.31 144.28C332.948 143.955 333.649 143.793 334.413 143.793C335.104 143.793 335.727 143.919 336.282 144.17C336.836 144.421 337.292 144.782 337.648 145.253C338.003 145.714 338.218 146.268 338.291 146.917H336.925C336.747 146.352 336.428 145.907 335.968 145.583C335.518 145.248 335 145.081 334.413 145.081C333.932 145.081 333.482 145.19 333.063 145.41C332.655 145.63 332.325 145.949 332.074 146.368C331.834 146.776 331.713 147.284 331.713 147.891C331.713 148.477 331.834 148.979 332.074 149.398C332.325 149.806 332.655 150.12 333.063 150.34C333.471 150.549 333.922 150.654 334.413 150.654C335.083 150.654 335.628 150.492 336.046 150.167C336.465 149.843 336.763 149.387 336.941 148.801H338.291ZM343.643 151.957C342.879 151.957 342.177 151.795 341.539 151.47C340.9 151.146 340.393 150.68 340.016 150.073C339.639 149.466 339.451 148.738 339.451 147.891C339.451 147.032 339.639 146.3 340.016 145.693C340.393 145.075 340.9 144.604 341.539 144.28C342.177 143.955 342.879 143.793 343.643 143.793C344.407 143.793 345.103 143.955 345.731 144.28C346.359 144.604 346.861 145.075 347.238 145.693C347.615 146.3 347.803 147.032 347.803 147.891C347.803 148.738 347.615 149.466 347.238 150.073C346.861 150.68 346.359 151.146 345.731 151.47C345.103 151.795 344.407 151.957 343.643 151.957ZM343.643 150.654C344.114 150.654 344.548 150.549 344.946 150.34C345.354 150.12 345.678 149.806 345.919 149.398C346.17 148.979 346.296 148.477 346.296 147.891C346.296 147.294 346.17 146.787 345.919 146.368C345.678 145.949 345.354 145.63 344.946 145.41C344.548 145.19 344.114 145.081 343.643 145.081C343.172 145.081 342.732 145.19 342.324 145.41C341.916 145.62 341.586 145.934 341.335 146.352C341.084 146.771 340.958 147.284 340.958 147.891C340.958 148.477 341.078 148.979 341.319 149.398C341.57 149.806 341.9 150.12 342.308 150.34C342.716 150.549 343.161 150.654 343.643 150.654ZM356.774 151.784H355.283V143.95H356.774V151.784ZM355.361 148.095L355.377 148.566C355.367 148.702 355.33 148.906 355.267 149.178C355.215 149.44 355.121 149.728 354.985 150.042C354.859 150.356 354.681 150.659 354.451 150.952C354.231 151.245 353.948 151.486 353.603 151.674C353.258 151.863 352.839 151.957 352.347 151.957C352.012 151.957 351.667 151.91 351.311 151.816C350.966 151.721 350.646 151.564 350.353 151.345C350.06 151.125 349.825 150.827 349.647 150.45C349.469 150.062 349.38 149.581 349.38 149.005V143.95H350.887V148.691C350.887 149.173 350.96 149.55 351.107 149.822C351.264 150.094 351.484 150.288 351.766 150.403C352.049 150.518 352.368 150.575 352.724 150.575C353.268 150.575 353.723 150.444 354.09 150.183C354.467 149.911 354.76 149.586 354.969 149.209C355.178 148.822 355.309 148.451 355.361 148.095ZM358.747 143.95H360.255V151.784H358.747V143.95ZM363.237 143.793C363.677 143.793 364.075 143.856 364.431 143.982C364.786 144.107 365.09 144.296 365.341 144.547C365.592 144.787 365.786 145.091 365.922 145.457C366.069 145.813 366.142 146.221 366.142 146.682V151.784H364.65V147.012C364.65 146.394 364.499 145.934 364.195 145.63C363.902 145.316 363.452 145.159 362.845 145.159C362.374 145.159 361.945 145.269 361.558 145.489C361.17 145.709 360.851 146.002 360.6 146.368C360.359 146.724 360.213 147.127 360.16 147.577L360.145 146.713C360.197 146.295 360.307 145.907 360.474 145.552C360.652 145.196 360.872 144.887 361.134 144.625C361.406 144.353 361.72 144.149 362.076 144.013C362.432 143.866 362.819 143.793 363.237 143.793ZM367.565 143.95H372.636V145.253H367.565V143.95ZM369.355 141.878H370.847V151.784H369.355V141.878Z" fill="white"/>
<path d="M28.0381 15.2273C32.5199 15.2273 36.2616 15.7618 39.2631 16.8309C42.2647 17.8999 44.6495 19.3596 46.4176 21.2099C48.2268 23.019 49.5014 25.116 50.2415 27.5009C51.0228 29.8857 51.4134 32.3938 51.4134 35.0254C51.4134 37.6569 50.9816 40.1856 50.1182 42.6115C49.2958 45.0375 47.9595 47.1962 46.1092 49.0876C44.3 50.9378 41.8947 52.4181 38.8931 53.5283C35.9326 54.5973 32.3143 55.1318 28.0381 55.1318H5.21782V15.2273H28.0381ZM13.4208 48.1007H27.853C30.8135 48.1007 33.26 47.7512 35.1925 47.0522C37.1661 46.3121 38.7286 45.3253 39.8799 44.0918C41.0312 42.8583 41.8535 41.4603 42.347 39.8978C42.8404 38.3353 43.0871 36.7112 43.0871 35.0254C43.0871 33.3395 42.8404 31.736 42.347 30.2146C41.8535 28.6933 41.0312 27.3364 39.8799 26.144C38.7286 24.9516 37.1661 24.0059 35.1925 23.3069C33.26 22.6079 30.8135 22.2584 27.853 22.2584H13.4208V48.1007ZM76.4482 55.872C72.5831 55.872 69.1704 55.2552 66.2099 54.0217C63.2906 52.7881 61.0085 50.9995 59.3638 48.6558C57.7191 46.271 56.8968 43.3517 56.8968 39.8978C56.8968 36.4439 57.7191 33.5246 59.3638 31.1398C61.0085 28.7138 63.2906 26.8841 66.2099 25.6506C69.1704 24.417 72.5831 23.8003 76.4482 23.8003C80.3132 23.8003 83.6848 24.417 86.5631 25.6506C89.4824 26.8841 91.7644 28.7138 93.4091 31.1398C95.0538 33.5246 95.8762 36.4439 95.8762 39.8978C95.8762 43.3517 95.0538 46.271 93.4091 48.6558C91.7644 50.9995 89.4824 52.7881 86.5631 54.0217C83.6848 55.2552 80.3132 55.872 76.4482 55.872ZM76.4482 49.7043C78.5863 49.7043 80.4982 49.3343 82.1841 48.5941C83.911 47.8129 85.2679 46.7027 86.2547 45.2636C87.2415 43.7834 87.7349 41.9948 87.7349 39.8978C87.7349 37.8008 87.2415 36.0122 86.2547 34.532C85.2679 33.0106 83.9316 31.8593 82.2457 31.0781C80.5599 30.2968 78.6274 29.9062 76.4482 29.9062C74.3101 29.9062 72.3775 30.2968 70.6506 31.0781C68.9237 31.8593 67.5462 32.99 66.5183 34.4703C65.5315 35.9505 65.038 37.7597 65.038 39.8978C65.038 41.9948 65.5315 43.7834 66.5183 45.2636C67.5051 46.7027 68.862 47.8129 70.5889 48.5941C72.3159 49.3343 74.2689 49.7043 76.4482 49.7043ZM140.565 49.581L138.036 49.5193L148.028 24.4787H156.848L143.34 55.1318H135.816L125.948 30.3996H128.661L118.485 55.1318H110.96L97.8233 24.4787H106.643L116.265 49.581H113.736L122.741 24.4787H131.93L140.565 49.581ZM161.552 24.4787H169.57V55.1318H161.552V24.4787ZM183.817 23.8003C185.709 23.8003 187.456 24.047 189.06 24.5404C190.664 25.0338 192.061 25.7945 193.254 26.8224C194.446 27.8504 195.371 29.1661 196.029 30.7697C196.687 32.3322 197.016 34.203 197.016 36.3822V55.1318H188.998V37.8008C188.998 35.2104 188.361 33.319 187.086 32.1266C185.853 30.8931 183.817 30.2763 180.98 30.2763C178.842 30.2763 176.91 30.6875 175.183 31.5098C173.456 32.3322 172.058 33.3807 170.989 34.6553C169.92 35.8888 169.303 37.184 169.138 38.5409L169.077 35.3954C169.282 33.9563 169.755 32.5583 170.495 31.2014C171.235 29.8446 172.222 28.611 173.456 27.5009C174.73 26.3496 176.231 25.445 177.958 24.7871C179.685 24.1292 181.638 23.8003 183.817 23.8003ZM204.933 12.1435H212.951V55.1318H204.933V12.1435ZM239.131 55.872C235.266 55.872 231.854 55.2552 228.893 54.0217C225.974 52.7881 223.692 50.9995 222.047 48.6558C220.402 46.271 219.58 43.3517 219.58 39.8978C219.58 36.4439 220.402 33.5246 222.047 31.1398C223.692 28.7138 225.974 26.8841 228.893 25.6506C231.854 24.417 235.266 23.8003 239.131 23.8003C242.996 23.8003 246.368 24.417 249.246 25.6506C252.166 26.8841 254.448 28.7138 256.092 31.1398C257.737 33.5246 258.559 36.4439 258.559 39.8978C258.559 43.3517 257.737 46.271 256.092 48.6558C254.448 50.9995 252.166 52.7881 249.246 54.0217C246.368 55.2552 242.996 55.872 239.131 55.872ZM239.131 49.7043C241.27 49.7043 243.182 49.3343 244.867 48.5941C246.594 47.8129 247.951 46.7027 248.938 45.2636C249.925 43.7834 250.418 41.9948 250.418 39.8978C250.418 37.8008 249.925 36.0122 248.938 34.532C247.951 33.0106 246.615 31.8593 244.929 31.0781C243.243 30.2968 241.311 29.9062 239.131 29.9062C236.993 29.9062 235.061 30.2968 233.334 31.0781C231.607 31.8593 230.229 32.99 229.202 34.4703C228.215 35.9505 227.721 37.7597 227.721 39.8978C227.721 41.9948 228.215 43.7834 229.202 45.2636C230.188 46.7027 231.545 47.8129 233.272 48.5941C234.999 49.3343 236.952 49.7043 239.131 49.7043ZM279.412 55.8103C276.37 55.8103 273.594 55.1524 271.086 53.8366C268.619 52.4798 266.645 50.6089 265.165 48.2241C263.726 45.7982 263.006 43.0022 263.006 39.8361C263.006 36.5878 263.747 33.7713 265.227 31.3865C266.707 29.0016 268.701 27.1514 271.209 25.8356C273.759 24.4787 276.637 23.8003 279.844 23.8003C283.38 23.8003 286.217 24.5198 288.355 25.9589C290.535 27.3569 292.118 29.2689 293.104 31.6948C294.091 34.1208 294.585 36.8345 294.585 39.8361C294.585 41.6453 294.297 43.4956 293.721 45.387C293.146 47.2373 292.262 48.9642 291.069 50.5678C289.877 52.1303 288.314 53.4049 286.382 54.3917C284.449 55.3374 282.126 55.8103 279.412 55.8103ZM282.003 49.6426C284.429 49.6426 286.526 49.2315 288.294 48.4091C290.062 47.5868 291.419 46.4355 292.364 44.9552C293.31 43.475 293.783 41.7686 293.783 39.8361C293.783 37.7391 293.289 35.9711 292.303 34.532C291.357 33.0517 290 31.9415 288.232 31.2014C286.505 30.4202 284.429 30.0296 282.003 30.0296C278.59 30.0296 275.938 30.9342 274.046 32.7433C272.155 34.5114 271.209 36.8757 271.209 39.8361C271.209 41.8098 271.662 43.5367 272.566 45.0169C273.471 46.456 274.725 47.5868 276.328 48.4091C277.973 49.2315 279.865 49.6426 282.003 49.6426ZM293.783 24.4787H301.801V55.1318H294.338C294.338 55.1318 294.276 54.7412 294.153 53.96C294.071 53.1376 293.988 52.1097 293.906 50.8762C293.824 49.6426 293.783 48.4297 293.783 47.2373V24.4787ZM323.983 55.8103C320.899 55.8103 318.103 55.1524 315.595 53.8366C313.128 52.4798 311.175 50.6089 309.736 48.2241C308.297 45.7982 307.577 43.0022 307.577 39.8361C307.577 36.5878 308.276 33.7713 309.674 31.3865C311.113 29.0016 313.066 27.1514 315.533 25.8356C318 24.4787 320.817 23.8003 323.983 23.8003C326.738 23.8003 329.082 24.2115 331.014 25.0338C332.947 25.8562 334.509 27.0074 335.702 28.4877C336.894 29.9268 337.757 31.6126 338.292 33.5451C338.868 35.4777 339.155 37.5747 339.155 39.8361C339.155 41.6453 338.868 43.4956 338.292 45.387C337.716 47.2373 336.832 48.9642 335.64 50.5678C334.447 52.1303 332.885 53.4049 330.953 54.3917C329.02 55.3374 326.697 55.8103 323.983 55.8103ZM326.573 49.6426C328.999 49.6426 331.096 49.2315 332.864 48.4091C334.633 47.5868 335.989 46.4355 336.935 44.9552C337.881 43.475 338.354 41.7686 338.354 39.8361C338.354 37.7391 337.86 35.9711 336.873 34.532C335.928 33.0517 334.571 31.921 332.803 31.1398C331.076 30.3585 328.999 29.9679 326.573 29.9679C323.161 29.9679 320.509 30.8725 318.617 32.6817C316.726 34.4908 315.78 36.8757 315.78 39.8361C315.78 41.8098 316.232 43.5367 317.137 45.0169C318.042 46.456 319.296 47.5868 320.899 48.4091C322.544 49.2315 324.435 49.6426 326.573 49.6426ZM338.354 12.1435H346.372V55.1318H338.909C338.785 54.1861 338.662 52.9732 338.539 51.4929C338.415 49.9716 338.354 48.553 338.354 47.2373V12.1435ZM12.434 101.695H44.0739V108.541H12.434V101.695ZM42.717 85.2273H50.92V125.132H42.717V85.2273ZM5.21782 85.2273H13.4208V125.132H5.21782V85.2273ZM74.2664 125.81C71.2237 125.81 68.4482 125.152 65.9401 123.837C63.473 122.48 61.4994 120.609 60.0191 118.224C58.58 115.798 57.8605 113.002 57.8605 109.836C57.8605 106.588 58.6006 103.771 60.0808 101.386C61.561 99.0016 63.5552 97.1514 66.0634 95.8356C68.6127 94.4787 71.4909 93.8003 74.6981 93.8003C78.2342 93.8003 81.0713 94.5198 83.2094 95.9589C85.3887 97.3569 86.9717 99.2689 87.9585 101.695C88.9453 104.121 89.4387 106.835 89.4387 109.836C89.4387 111.645 89.1509 113.496 88.5753 115.387C87.9996 117.237 87.1156 118.964 85.9232 120.568C84.7308 122.13 83.1683 123.405 81.2358 124.392C79.3033 125.337 76.9801 125.81 74.2664 125.81ZM76.8568 119.643C79.2827 119.643 81.3797 119.231 83.1477 118.409C84.9158 117.587 86.2727 116.435 87.2184 114.955C88.1641 113.475 88.6369 111.769 88.6369 109.836C88.6369 107.739 88.1435 105.971 87.1567 104.532C86.211 103.052 84.8541 101.942 83.0861 101.201C81.3591 100.42 79.2827 100.03 76.8568 100.03C73.444 100.03 70.7919 100.934 68.9005 102.743C67.0091 104.511 66.0634 106.876 66.0634 109.836C66.0634 111.81 66.5157 113.537 67.4203 115.017C68.3249 116.456 69.579 117.587 71.1825 118.409C72.8272 119.231 74.7187 119.643 76.8568 119.643ZM88.6369 94.4787H96.6549V125.132H89.192C89.192 125.132 89.1303 124.741 89.007 123.96C88.9248 123.138 88.8425 122.11 88.7603 120.876C88.6781 119.643 88.6369 118.43 88.6369 117.237V94.4787ZM103.911 94.4787H111.929V125.132H103.911V94.4787ZM123.71 101.078C121.407 101.078 119.413 101.53 117.727 102.435C116.041 103.298 114.684 104.367 113.656 105.642C112.628 106.917 111.909 108.15 111.498 109.343L111.436 105.951C111.477 105.457 111.642 104.738 111.929 103.792C112.217 102.805 112.649 101.757 113.225 100.646C113.8 99.4951 114.561 98.4054 115.507 97.3775C116.452 96.3084 117.604 95.445 118.96 94.7871C120.317 94.1292 121.9 93.8003 123.71 93.8003V101.078ZM143.962 120.444C140.632 120.444 137.692 119.951 135.142 118.964C132.634 117.936 130.681 116.435 129.283 114.462C127.885 112.488 127.186 110.103 127.186 107.307C127.186 104.553 127.865 102.168 129.221 100.153C130.578 98.1382 132.511 96.5757 135.019 95.4655C137.568 94.3554 140.549 93.8003 143.962 93.8003C144.908 93.8003 145.812 93.862 146.676 93.9853C147.58 94.1087 148.464 94.2731 149.328 94.4787L164.809 94.5404V100.585C162.712 100.626 160.574 100.379 158.394 99.8446C156.256 99.2689 154.365 98.6521 152.72 97.9943L152.535 97.5625C153.933 98.2204 155.249 99.0428 156.482 100.03C157.716 100.975 158.703 102.085 159.443 103.36C160.224 104.594 160.615 106.033 160.615 107.677C160.615 110.35 159.936 112.653 158.579 114.585C157.222 116.477 155.29 117.936 152.782 118.964C150.315 119.951 147.375 120.444 143.962 120.444ZM154.262 137.775V136.295C154.262 134.404 153.645 133.088 152.412 132.348C151.219 131.608 149.575 131.238 147.478 131.238H137.918C136.067 131.238 134.505 131.094 133.23 130.806C131.997 130.518 131.01 130.107 130.27 129.573C129.53 129.038 128.995 128.401 128.666 127.661C128.337 126.962 128.173 126.201 128.173 125.379C128.173 123.734 128.707 122.5 129.776 121.678C130.846 120.814 132.285 120.239 134.094 119.951C135.903 119.663 137.897 119.602 140.076 119.766L143.962 120.444C141.372 120.527 139.439 120.753 138.164 121.123C136.931 121.452 136.314 122.13 136.314 123.158C136.314 123.775 136.561 124.268 137.054 124.638C137.548 124.967 138.247 125.132 139.151 125.132H149.205C151.959 125.132 154.303 125.42 156.236 125.995C158.209 126.612 159.71 127.619 160.738 129.017C161.766 130.457 162.28 132.41 162.28 134.877V137.775H154.262ZM143.962 114.647C145.73 114.647 147.272 114.359 148.588 113.783C149.945 113.208 150.993 112.385 151.733 111.316C152.473 110.206 152.843 108.89 152.843 107.369C152.843 105.807 152.473 104.47 151.733 103.36C150.993 102.25 149.965 101.407 148.649 100.831C147.334 100.215 145.771 99.9062 143.962 99.9062C142.194 99.9062 140.632 100.215 139.275 100.831C137.918 101.407 136.869 102.25 136.129 103.36C135.389 104.47 135.019 105.807 135.019 107.369C135.019 108.89 135.389 110.206 136.129 111.316C136.869 112.385 137.897 113.208 139.213 113.783C140.57 114.359 142.153 114.647 143.962 114.647ZM187.574 125.872C183.709 125.872 180.296 125.255 177.336 124.022C174.416 122.788 172.134 121 170.49 118.656C168.845 116.271 168.023 113.352 168.023 109.898C168.023 106.444 168.845 103.525 170.49 101.14C172.134 98.7138 174.416 96.8841 177.336 95.6506C180.296 94.417 183.709 93.8003 187.574 93.8003C191.439 93.8003 194.811 94.417 197.689 95.6506C200.608 96.8841 202.89 98.7138 204.535 101.14C206.18 103.525 207.002 106.444 207.002 109.898C207.002 113.352 206.18 116.271 204.535 118.656C202.89 121 200.608 122.788 197.689 124.022C194.811 125.255 191.439 125.872 187.574 125.872ZM187.574 119.704C189.712 119.704 191.624 119.334 193.31 118.594C195.037 117.813 196.394 116.703 197.38 115.264C198.367 113.783 198.861 111.995 198.861 109.898C198.861 107.801 198.367 106.012 197.38 104.532C196.394 103.011 195.057 101.859 193.371 101.078C191.686 100.297 189.753 99.9062 187.574 99.9062C185.436 99.9062 183.503 100.297 181.776 101.078C180.049 101.859 178.672 102.99 177.644 104.47C176.657 105.951 176.164 107.76 176.164 109.898C176.164 111.995 176.657 113.783 177.644 115.264C178.631 116.703 179.988 117.813 181.715 118.594C183.442 119.334 185.395 119.704 187.574 119.704ZM212.929 94.4787H220.947V125.132H212.929V94.4787ZM235.194 93.8003C237.086 93.8003 238.833 94.047 240.437 94.5404C242.04 95.0338 243.438 95.7945 244.631 96.8224C245.823 97.8504 246.748 99.1661 247.406 100.77C248.064 102.332 248.393 104.203 248.393 106.382V125.132H240.375V107.801C240.375 105.21 239.738 103.319 238.463 102.127C237.23 100.893 235.194 100.276 232.357 100.276C230.219 100.276 228.287 100.687 226.56 101.51C224.833 102.332 223.435 103.381 222.366 104.655C221.297 105.889 220.68 107.184 220.515 108.541L220.454 105.395C220.659 103.956 221.132 102.558 221.872 101.201C222.612 99.8446 223.599 98.611 224.833 97.5009C226.107 96.3496 227.608 95.445 229.335 94.7871C231.062 94.1292 233.015 93.8003 235.194 93.8003Z" fill="white"/>
<path d="M283.289 97.3262C283.289 96.7068 282.787 96.2048 282.168 96.2048C281.549 96.2048 281.047 96.7068 281.047 97.3262L283.289 97.3262ZM282.168 183.282L288.642 172.068L275.694 172.068L282.168 183.282ZM281.047 97.3262L281.047 173.19L283.289 173.19L283.289 97.3262L281.047 97.3262Z" fill="#FFBD00"/>
</g>
<defs>
<clipPath id="clip0_5587_56152">
<rect width="377.527" height="183.15" fill="white" transform="translate(0.46875 0.131836)"/>
</clipPath>
</defs>
</svg>
