<svg width="128" height="33" viewBox="0 0 128 33" fill="none" xmlns="http://www.w3.org/2000/svg">
<path d="M24.5636 31.5978C23.8732 32.8007 22.1275 32.8007 21.4371 31.5978L11.9109 15.0023C11.2267 13.8104 12.0931 12.3286 13.4742 12.3286H32.5265C33.9077 12.3286 34.774 13.8104 34.0898 15.0023L24.5636 31.5978Z" fill="white"/>
<g filter="url(#filter0_f_3112_31652)">
<path d="M24.6194 13.5945H13.1016V15.7401H24.6194V13.5945Z" fill="#0D3D0D"/>
</g>
<path d="M17.4304 3.21521C17.9846 2.2616 19.37 2.2616 19.9241 3.2152L25.6907 13.1387C26.2449 14.0924 25.5522 15.2843 24.4439 15.2843H12.9106C11.8023 15.2843 11.1096 14.0924 11.6638 13.1387L17.4304 3.21521Z" fill="white"/>
<path d="M53.3647 26.2869V19.0572C53.3647 18.4167 53.2594 17.8883 53.0489 17.4719C52.8383 17.0556 52.5225 16.7433 52.1013 16.5352C51.6802 16.311 51.1457 16.1989 50.4978 16.1989C49.7851 16.1989 49.1292 16.3671 48.5299 16.7033C47.9468 17.0236 47.469 17.4639 47.0965 18.0244C46.7239 18.5688 46.4972 19.1853 46.4162 19.8738L46.3919 18.5047C46.4729 17.8803 46.643 17.2957 46.9021 16.7514C47.1775 16.207 47.5176 15.7345 47.9225 15.3342C48.3437 14.934 48.8296 14.6217 49.3802 14.3975C49.9309 14.1733 50.5303 14.0612 51.1781 14.0612C51.8584 14.0612 52.4739 14.1573 53.0246 14.3495C53.5752 14.5256 54.045 14.8058 54.4337 15.1901C54.8386 15.5585 55.1464 16.0148 55.3569 16.5592C55.5674 17.0876 55.6728 17.6961 55.6728 18.3847V26.2869H53.3647ZM44.2539 26.2869V9.49762H46.562V26.2869H44.2539ZM63.7486 26.5271C62.7119 26.5271 61.7644 26.2629 60.906 25.7345C60.0475 25.206 59.3673 24.4774 58.8652 23.5487C58.363 22.6039 58.112 21.5231 58.112 20.3062C58.112 19.0892 58.363 18.0163 58.8652 17.0876C59.3834 16.1428 60.088 15.4063 60.9789 14.8779C61.8697 14.3335 62.8658 14.0612 63.9672 14.0612C65.182 14.0612 66.1214 14.3414 66.7855 14.9019C67.4658 15.4624 67.9354 16.2149 68.1946 17.1597C68.4699 18.1045 68.6077 19.1533 68.6077 20.3062C68.6077 20.9466 68.5266 21.6272 68.3647 22.3478C68.2027 23.0684 67.9435 23.7489 67.5873 24.3894C67.2308 25.0299 66.7369 25.5504 66.1052 25.9506C65.4736 26.3349 64.688 26.5271 63.7486 26.5271ZM64.4046 24.5335C65.2629 24.5335 65.9838 24.3494 66.5668 23.9811C67.1661 23.5968 67.6115 23.0843 67.9031 22.4439C68.1946 21.8034 68.3404 21.0908 68.3404 20.3062C68.3404 19.4575 68.1865 18.7129 67.8788 18.0724C67.5873 17.4319 67.1418 16.9355 66.5426 16.5832C65.9595 16.231 65.2468 16.0548 64.4046 16.0548C63.1412 16.0548 62.1612 16.4551 61.4648 17.2558C60.7845 18.0564 60.4444 19.0732 60.4444 20.3062C60.4444 21.1388 60.6145 21.8755 60.9546 22.5159C61.2947 23.1404 61.7563 23.6368 62.3394 24.0051C62.9387 24.3573 63.6271 24.5335 64.4046 24.5335ZM68.3404 14.3014H70.6728V26.2869H68.5348C68.5348 26.2869 68.5185 26.1428 68.4862 25.8546C68.4538 25.5504 68.4213 25.1901 68.389 24.7737C68.3566 24.3573 68.3404 23.9891 68.3404 23.6688V14.3014ZM73.7148 14.3014H76.0472V26.2869H73.7148V14.3014ZM80.1531 16.343C79.3109 16.343 78.5901 16.5352 77.9908 16.9195C77.4077 17.3038 76.938 17.7761 76.5817 18.3366C76.2415 18.8971 76.0147 19.4334 75.9014 19.9459L75.8771 18.5768C75.8933 18.4167 75.9338 18.1685 75.9986 17.8322C76.0796 17.48 76.2172 17.0876 76.4116 16.6553C76.606 16.2229 76.8651 15.8146 77.1891 15.4303C77.513 15.03 77.9179 14.7017 78.4038 14.4455C78.8897 14.1894 79.4728 14.0612 80.1531 14.0612V16.343ZM87.1395 24.4134C86.1354 24.4134 85.2121 24.2132 84.3698 23.8129C83.5276 23.4127 82.8555 22.8282 82.3533 22.0596C81.8674 21.2909 81.6244 20.3623 81.6244 19.2734C81.6244 18.2005 81.8674 17.2798 82.3533 16.5112C82.8392 15.7266 83.4952 15.1261 84.3212 14.7097C85.1636 14.2774 86.1029 14.0612 87.1395 14.0612C87.4473 14.0612 87.7389 14.0852 88.0141 14.1333C88.2895 14.1654 88.5568 14.2213 88.8159 14.3014H94.1123V16.4631C93.3834 16.4631 92.6465 16.343 91.9014 16.1028C91.1725 15.8627 90.5329 15.6065 89.9821 15.3342L89.9092 15.2141C90.46 15.5024 90.9377 15.8546 91.3426 16.271C91.7476 16.6713 92.0553 17.1276 92.2658 17.6401C92.4926 18.1364 92.606 18.6969 92.606 19.3214C92.606 20.3782 92.363 21.2909 91.8771 22.0596C91.4075 22.8282 90.7515 23.4127 89.9092 23.8129C89.0831 24.2132 88.1599 24.4134 87.1395 24.4134ZM90.8567 31.1387V30.5863C90.8567 29.7697 90.63 29.1852 90.1764 28.8329C89.723 28.4807 89.0588 28.3045 88.1842 28.3045H85.3416C84.7424 28.3045 84.2322 28.2565 83.811 28.1604C83.39 28.0643 83.0417 27.9202 82.7663 27.728C82.4911 27.5519 82.2886 27.3278 82.1589 27.0555C82.0294 26.7993 81.9646 26.5111 81.9646 26.1908C81.9646 25.5663 82.1589 25.094 82.5477 24.7737C82.9364 24.4534 83.4304 24.2533 84.0297 24.1732C84.6291 24.0772 85.2364 24.0691 85.8518 24.1492L87.1395 24.4134C86.2163 24.4615 85.5117 24.5495 85.0258 24.6776C84.5399 24.8058 84.2969 25.0779 84.2969 25.4943C84.2969 25.7345 84.3941 25.9266 84.5885 26.0707C84.7828 26.2148 85.0582 26.2869 85.4145 26.2869H88.3786C89.3018 26.2869 90.1198 26.399 90.8324 26.6232C91.5613 26.8634 92.1282 27.2557 92.5331 27.8001C92.9543 28.3606 93.1648 29.1211 93.1648 30.0819V31.1387H90.8567ZM87.1395 22.4679C87.7226 22.4679 88.2491 22.3478 88.7187 22.1076C89.2046 21.8514 89.5933 21.4911 89.8849 21.0267C90.1764 20.5464 90.3222 19.9699 90.3222 19.2974C90.3222 18.6089 90.1764 18.0244 89.8849 17.544C89.6096 17.0476 89.2289 16.6793 88.743 16.4391C88.2571 16.1829 87.7226 16.0548 87.1395 16.0548C86.5564 16.0548 86.0139 16.1829 85.5117 16.4391C85.0258 16.6793 84.6371 17.0396 84.3455 17.52C84.054 18.0003 83.9082 18.5928 83.9082 19.2974C83.9082 19.9699 84.054 20.5464 84.3455 21.0267C84.6371 21.4911 85.0258 21.8514 85.5117 22.1076C85.9976 22.3478 86.5403 22.4679 87.1395 22.4679ZM102.11 26.5511C100.927 26.5511 99.8421 26.3029 98.8542 25.8065C97.8661 25.3102 97.0806 24.5975 96.4975 23.6688C95.9144 22.7401 95.6229 21.6272 95.6229 20.3302C95.6229 19.0172 95.9144 17.8962 96.4975 16.9675C97.0806 16.0227 97.8661 15.3022 98.8542 14.8058C99.8421 14.3095 100.927 14.0612 102.11 14.0612C103.292 14.0612 104.369 14.3095 105.341 14.8058C106.313 15.3022 107.09 16.0227 107.673 16.9675C108.257 17.8962 108.548 19.0172 108.548 20.3302C108.548 21.6272 108.257 22.7401 107.673 23.6688C107.09 24.5975 106.313 25.3102 105.341 25.8065C104.369 26.3029 103.292 26.5511 102.11 26.5511ZM102.11 24.5575C102.839 24.5575 103.511 24.3974 104.126 24.0772C104.758 23.7409 105.26 23.2605 105.633 22.636C106.021 21.9955 106.216 21.2269 106.216 20.3302C106.216 19.4175 106.021 18.6408 105.633 18.0003C105.26 17.3599 104.758 16.8715 104.126 16.5352C103.511 16.1989 102.839 16.0308 102.11 16.0308C101.381 16.0308 100.701 16.1989 100.069 16.5352C99.4373 16.8555 98.927 17.3359 98.5383 17.9763C98.1496 18.6168 97.9552 19.4015 97.9552 20.3302C97.9552 21.2269 98.1415 21.9955 98.514 22.636C98.9028 23.2605 99.413 23.7409 100.045 24.0772C100.676 24.3974 101.365 24.5575 102.11 24.5575ZM110.988 14.3014H113.321V26.2869H110.988V14.3014ZM117.937 14.0612C118.617 14.0612 119.233 14.1573 119.783 14.3495C120.334 14.5416 120.804 14.8298 121.192 15.2141C121.581 15.5825 121.881 16.0468 122.091 16.6072C122.318 17.1516 122.432 17.7761 122.432 18.4807V26.2869H120.123V18.9851C120.123 18.0403 119.889 17.3359 119.419 16.8715C118.965 16.3911 118.269 16.1509 117.33 16.1509C116.601 16.1509 115.937 16.319 115.337 16.6553C114.738 16.9915 114.244 17.4399 113.855 18.0003C113.483 18.5447 113.256 19.1613 113.175 19.8498L113.151 18.5288C113.232 17.8883 113.402 17.2957 113.661 16.7514C113.936 16.207 114.276 15.7345 114.681 15.3342C115.102 14.9179 115.588 14.6056 116.139 14.3975C116.69 14.1733 117.289 14.0612 117.937 14.0612Z" fill="white"/>
<path d="M127.469 25.0926C127.469 24.4293 126.925 23.8916 126.254 23.8916C125.583 23.8916 125.039 24.4293 125.039 25.0926C125.039 25.7558 125.583 26.2935 126.254 26.2935C126.925 26.2935 127.469 25.7558 127.469 25.0926Z" fill="white"/>
<defs>
<filter id="filter0_f_3112_31652" x="0.000647545" y="0.493567" width="37.7214" height="28.3475" filterUnits="userSpaceOnUse" color-interpolation-filters="sRGB">
<feFlood flood-opacity="0" result="BackgroundImageFix"/>
<feBlend mode="normal" in="SourceGraphic" in2="BackgroundImageFix" result="shape"/>
<feGaussianBlur stdDeviation="6.55046" result="effect1_foregroundBlur_3112_31652"/>
</filter>
</defs>
</svg>
