<svg width="570" height="199" viewBox="0 0 570 199" fill="none" xmlns="http://www.w3.org/2000/svg">
<g clip-path="url(#clip0_2205_19164)">
<rect x="13" y="113.847" width="218.504" height="27.4493" transform="rotate(-4.68495 13 113.847)" fill="#FFC727"/>
<path d="M11.55 37.0663V45.8113H38.995V51.9163H4.235V16.3313H38.94V22.4363H11.55V31.2913H33.99V37.0663H11.55ZM58.1823 52.5213C55.4689 52.5213 52.9939 51.9346 50.7573 50.7613C48.5573 49.5513 46.7973 47.8829 45.4773 45.7563C44.1939 43.5929 43.5523 41.0996 43.5523 38.2763C43.5523 35.3796 44.2123 32.8679 45.5323 30.7413C46.8523 28.6146 48.6306 26.9646 50.8673 25.7913C53.1406 24.5813 55.7073 23.9763 58.5673 23.9763C61.7206 23.9763 64.2506 24.6179 66.1573 25.9013C68.1006 27.1479 69.5123 28.8529 70.3923 31.0163C71.2723 33.1796 71.7123 35.5996 71.7123 38.2763C71.7123 39.8896 71.4556 41.5396 70.9423 43.2263C70.4289 44.8763 69.6406 46.4163 68.5773 47.8463C67.5139 49.2396 66.1206 50.3763 64.3973 51.2563C62.6739 52.0996 60.6023 52.5213 58.1823 52.5213ZM60.4923 47.0213C62.6556 47.0213 64.5256 46.6546 66.1023 45.9213C67.6789 45.1879 68.8889 44.1613 69.7323 42.8413C70.5756 41.5213 70.9973 39.9996 70.9973 38.2763C70.9973 36.4063 70.5573 34.8296 69.6773 33.5463C68.8339 32.2263 67.6239 31.2363 66.0473 30.5763C64.5073 29.8796 62.6556 29.5313 60.4923 29.5313C57.4489 29.5313 55.0839 30.3379 53.3973 31.9513C51.7106 33.5279 50.8673 35.6363 50.8673 38.2763C50.8673 40.0363 51.2706 41.5763 52.0773 42.8963C52.8839 44.1796 54.0023 45.1879 55.4323 45.9213C56.8989 46.6546 58.5856 47.0213 60.4923 47.0213ZM70.9973 24.5813H78.1473V51.9163H71.4923C71.4923 51.9163 71.4373 51.5679 71.3273 50.8713C71.2539 50.1379 71.1806 49.2213 71.1073 48.1213C71.0339 47.0213 70.9973 45.9396 70.9973 44.8763V24.5813ZM83.5184 42.8413H90.1184C90.5217 44.0879 91.3467 45.1146 92.5934 45.9213C93.8767 46.6913 95.545 47.0763 97.5984 47.0763C98.9917 47.0763 100.073 46.9479 100.843 46.6913C101.613 46.4346 102.145 46.0679 102.438 45.5913C102.732 45.0779 102.878 44.5096 102.878 43.8863C102.878 43.1163 102.64 42.5296 102.163 42.1263C101.687 41.6863 100.953 41.3379 99.9634 41.0813C98.9734 40.8246 97.7084 40.5863 96.1684 40.3663C94.6284 40.1096 93.1434 39.7979 91.7134 39.4313C90.2834 39.0646 89.0184 38.5879 87.9184 38.0013C86.8184 37.3779 85.9384 36.6079 85.2784 35.6913C84.655 34.7379 84.3434 33.5829 84.3434 32.2263C84.3434 30.9063 84.655 29.7329 85.2784 28.7063C85.9384 27.6796 86.8367 26.8179 87.9734 26.1213C89.1467 25.4246 90.5034 24.8929 92.0434 24.5263C93.62 24.1596 95.3067 23.9763 97.1034 23.9763C99.8167 23.9763 102.072 24.3796 103.868 25.1863C105.665 25.9563 107.003 27.0563 107.883 28.4863C108.8 29.8796 109.258 31.4929 109.258 33.3263H102.933C102.64 31.9696 102.053 30.9979 101.173 30.4113C100.293 29.7879 98.9367 29.4763 97.1034 29.4763C95.3067 29.4763 93.95 29.7513 93.0334 30.3013C92.1167 30.8513 91.6584 31.6029 91.6584 32.5563C91.6584 33.3263 91.9334 33.9313 92.4834 34.3713C93.07 34.7746 93.9134 35.1046 95.0134 35.3613C96.15 35.6179 97.5617 35.8929 99.2484 36.1863C100.678 36.4796 102.035 36.8096 103.318 37.1763C104.638 37.5429 105.812 38.0196 106.838 38.6063C107.865 39.1563 108.672 39.9079 109.258 40.8613C109.882 41.7779 110.193 42.9513 110.193 44.3813C110.193 46.1413 109.68 47.6263 108.653 48.8363C107.663 50.0463 106.233 50.9813 104.363 51.6413C102.493 52.2646 100.257 52.5763 97.6534 52.5763C95.3434 52.5763 93.345 52.3379 91.6584 51.8613C90.0084 51.3479 88.6334 50.7063 87.5334 49.9363C86.4334 49.1296 85.5717 48.2863 84.9484 47.4063C84.3617 46.4896 83.9584 45.6279 83.7384 44.8213C83.5184 44.0146 83.445 43.3546 83.5184 42.8413ZM112.168 24.5813H119.758L131.583 50.8163L125.423 51.9163L112.168 24.5813ZM145.608 24.5813L126.688 62.9163H119.263L127.348 47.8463L137.963 24.5813H145.608ZM174.201 52.5213C172.515 52.5213 170.901 52.3013 169.361 51.8613C167.858 51.4213 166.538 50.7979 165.401 49.9913C164.265 49.1846 163.366 48.2129 162.706 47.0763C162.046 45.9029 161.716 44.6013 161.716 43.1713C161.716 41.4113 162.138 39.9263 162.981 38.7163C163.825 37.4696 164.98 36.4613 166.446 35.6913C167.95 34.9213 169.673 34.3529 171.616 33.9863C173.56 33.5829 175.631 33.3446 177.831 33.2713L178.051 33.6013C175.961 33.5279 174 33.3629 172.166 33.1063C170.37 32.8129 168.793 32.3546 167.436 31.7313C166.116 31.1079 165.071 30.3013 164.301 29.3113C163.568 28.2846 163.201 27.0013 163.201 25.4613C163.201 23.4813 163.825 21.7579 165.071 20.2913C166.318 18.7879 168.115 17.6329 170.461 16.8263C172.808 16.0196 175.595 15.6163 178.821 15.6163C181.058 15.6163 183.093 15.8363 184.926 16.2763C186.796 16.7163 188.391 17.3946 189.711 18.3113C191.068 19.1913 192.113 20.3096 192.846 21.6663C193.58 22.9863 193.946 24.5446 193.946 26.3413H187.236C187.2 24.8379 186.43 23.7013 184.926 22.9313C183.46 22.1246 181.461 21.7213 178.931 21.7213C176.218 21.7213 174.165 22.1613 172.771 23.0413C171.378 23.8846 170.681 25.0579 170.681 26.5613C170.681 27.6246 171.011 28.5413 171.671 29.3113C172.331 30.0813 173.34 30.6679 174.696 31.0713C176.09 31.4746 177.831 31.6763 179.921 31.6763H201.316V35.8013H194.386V51.9163H187.731C187.585 50.8529 187.475 49.8079 187.401 48.7813C187.328 47.7179 187.273 46.5446 187.236 45.2613C187.236 43.9413 187.236 42.3646 187.236 40.5313L187.731 42.0163C187.438 43.2629 186.98 44.5096 186.356 45.7563C185.77 47.0029 184.945 48.1396 183.881 49.1663C182.855 50.1929 181.535 51.0179 179.921 51.6413C178.345 52.2279 176.438 52.5213 174.201 52.5213ZM177.226 47.0213C179.463 47.0213 181.315 46.6363 182.781 45.8663C184.248 45.0596 185.348 44.0329 186.081 42.7863C186.851 41.5029 187.236 40.1829 187.236 38.8263V35.8013H179.921C176.731 35.8013 174.165 36.2779 172.221 37.2313C170.278 38.1479 169.306 39.6146 169.306 41.6313C169.306 43.2079 169.985 44.5096 171.341 45.5363C172.698 46.5263 174.66 47.0213 177.226 47.0213ZM225.654 44.1613V38.0563H249.194V44.1613H225.654ZM216.799 51.9163L233.519 16.3313H241.439L258.324 51.9163H250.349L235.719 19.8513H239.239L224.719 51.9163H216.799ZM285.875 51.9163V23.0963L293.025 23.9763V51.9163H285.875ZM296.435 13.5813H302.1V19.3563H298.14C297.077 19.3196 296.16 19.4296 295.39 19.6863C294.62 19.9429 294.034 20.4196 293.63 21.1163C293.227 21.7763 293.025 22.7296 293.025 23.9763L285.875 23.0963C285.875 20.8963 286.279 19.0996 287.085 17.7063C287.892 16.2763 289.084 15.2313 290.66 14.5713C292.237 13.9113 294.162 13.5813 296.435 13.5813ZM264.535 51.9163V23.8663L271.685 24.7463V51.9163H264.535ZM275.095 14.3513H280.815V20.1263H276.8C275.737 20.0896 274.82 20.1996 274.05 20.4563C273.28 20.7129 272.694 21.1713 272.29 21.8313C271.887 22.4913 271.685 23.4629 271.685 24.7463L264.535 23.8663C264.535 21.6663 264.939 19.8696 265.745 18.4763C266.552 17.0463 267.744 16.0013 269.32 15.3413C270.897 14.6813 272.822 14.3513 275.095 14.3513ZM258.65 25.0763H302.045V30.5213H258.65V25.0763ZM322.291 52.5763C318.844 52.5763 315.801 52.0263 313.161 50.9263C310.558 49.8263 308.523 48.2313 307.056 46.1413C305.589 44.0146 304.856 41.4113 304.856 38.3313C304.856 35.2513 305.589 32.6479 307.056 30.5213C308.523 28.3579 310.558 26.7263 313.161 25.6263C315.801 24.5263 318.844 23.9763 322.291 23.9763C325.738 23.9763 328.744 24.5263 331.311 25.6263C333.914 26.7263 335.949 28.3579 337.416 30.5213C338.883 32.6479 339.616 35.2513 339.616 38.3313C339.616 41.4113 338.883 44.0146 337.416 46.1413C335.949 48.2313 333.914 49.8263 331.311 50.9263C328.744 52.0263 325.738 52.5763 322.291 52.5763ZM322.291 47.0763C324.198 47.0763 325.903 46.7463 327.406 46.0863C328.946 45.3896 330.156 44.3996 331.036 43.1163C331.916 41.7963 332.356 40.2013 332.356 38.3313C332.356 36.4613 331.916 34.8663 331.036 33.5463C330.156 32.1896 328.964 31.1629 327.461 30.4663C325.958 29.7696 324.234 29.4213 322.291 29.4213C320.384 29.4213 318.661 29.7696 317.121 30.4663C315.581 31.1629 314.353 32.1713 313.436 33.4913C312.556 34.8113 312.116 36.4246 312.116 38.3313C312.116 40.2013 312.556 41.7963 313.436 43.1163C314.316 44.3996 315.526 45.3896 317.066 46.0863C318.606 46.7463 320.348 47.0763 322.291 47.0763ZM344.902 24.5813H352.052V51.9163H344.902V24.5813ZM362.557 30.4663C360.503 30.4663 358.725 30.8696 357.222 31.6763C355.718 32.4463 354.508 33.3996 353.592 34.5363C352.675 35.6729 352.033 36.7729 351.667 37.8363L351.612 34.8113C351.648 34.3713 351.795 33.7296 352.052 32.8863C352.308 32.0063 352.693 31.0713 353.207 30.0813C353.72 29.0546 354.398 28.0829 355.242 27.1663C356.085 26.2129 357.112 25.4429 358.322 24.8563C359.532 24.2696 360.943 23.9763 362.557 23.9763V30.4663ZM380.287 52.5213C377.537 52.5213 375.043 51.9346 372.807 50.7613C370.607 49.5513 368.865 47.8829 367.582 45.7563C366.298 43.5929 365.657 41.0996 365.657 38.2763C365.657 35.3796 366.28 32.8679 367.527 30.7413C368.81 28.6146 370.552 26.9646 372.752 25.7913C374.952 24.5813 377.463 23.9763 380.287 23.9763C382.743 23.9763 384.833 24.3429 386.557 25.0763C388.28 25.8096 389.673 26.8363 390.737 28.1563C391.8 29.4396 392.57 30.9429 393.047 32.6663C393.56 34.3896 393.817 36.2596 393.817 38.2763C393.817 39.8896 393.56 41.5396 393.047 43.2263C392.533 44.8763 391.745 46.4163 390.682 47.8463C389.618 49.2396 388.225 50.3763 386.502 51.2563C384.778 52.0996 382.707 52.5213 380.287 52.5213ZM382.597 47.0213C384.76 47.0213 386.63 46.6546 388.207 45.9213C389.783 45.1879 390.993 44.1613 391.837 42.8413C392.68 41.5213 393.102 39.9996 393.102 38.2763C393.102 36.4063 392.662 34.8296 391.782 33.5463C390.938 32.2263 389.728 31.2179 388.152 30.5213C386.612 29.8246 384.76 29.4763 382.597 29.4763C379.553 29.4763 377.188 30.2829 375.502 31.8963C373.815 33.5096 372.972 35.6363 372.972 38.2763C372.972 40.0363 373.375 41.5763 374.182 42.8963C374.988 44.1796 376.107 45.1879 377.537 45.9213C379.003 46.6546 380.69 47.0213 382.597 47.0213ZM393.102 13.5813H400.252V51.9163H393.597C393.487 51.0729 393.377 49.9913 393.267 48.6713C393.157 47.3146 393.102 46.0496 393.102 44.8763V13.5813ZM421.268 52.5213C418.555 52.5213 416.08 51.9346 413.843 50.7613C411.643 49.5513 409.883 47.8829 408.563 45.7563C407.28 43.5929 406.638 41.0996 406.638 38.2763C406.638 35.3796 407.298 32.8679 408.618 30.7413C409.938 28.6146 411.717 26.9646 413.953 25.7913C416.227 24.5813 418.793 23.9763 421.653 23.9763C424.807 23.9763 427.337 24.6179 429.243 25.9013C431.187 27.1479 432.598 28.8529 433.478 31.0163C434.358 33.1796 434.798 35.5996 434.798 38.2763C434.798 39.8896 434.542 41.5396 434.028 43.2263C433.515 44.8763 432.727 46.4163 431.663 47.8463C430.6 49.2396 429.207 50.3763 427.483 51.2563C425.76 52.0996 423.688 52.5213 421.268 52.5213ZM423.578 47.0213C425.742 47.0213 427.612 46.6546 429.188 45.9213C430.765 45.1879 431.975 44.1613 432.818 42.8413C433.662 41.5213 434.083 39.9996 434.083 38.2763C434.083 36.4063 433.643 34.8296 432.763 33.5463C431.92 32.2263 430.71 31.2363 429.133 30.5763C427.593 29.8796 425.742 29.5313 423.578 29.5313C420.535 29.5313 418.17 30.3379 416.483 31.9513C414.797 33.5279 413.953 35.6363 413.953 38.2763C413.953 40.0363 414.357 41.5763 415.163 42.8963C415.97 44.1796 417.088 45.1879 418.518 45.9213C419.985 46.6546 421.672 47.0213 423.578 47.0213ZM434.083 24.5813H441.233V51.9163H434.578C434.578 51.9163 434.523 51.5679 434.413 50.8713C434.34 50.1379 434.267 49.2213 434.193 48.1213C434.12 47.0213 434.083 45.9396 434.083 44.8763V24.5813ZM468.232 52.5213C465.812 52.5213 463.741 52.0996 462.017 51.2563C460.294 50.3763 458.901 49.2396 457.837 47.8463C456.774 46.4163 455.986 44.8763 455.472 43.2263C454.959 41.5396 454.702 39.8896 454.702 38.2763C454.702 36.2596 454.941 34.3896 455.417 32.6663C455.931 30.9429 456.719 29.4396 457.782 28.1563C458.846 26.8363 460.239 25.8096 461.962 25.0763C463.686 24.3429 465.776 23.9763 468.232 23.9763C471.056 23.9763 473.549 24.5813 475.712 25.7913C477.912 26.9646 479.636 28.6146 480.882 30.7413C482.166 32.8679 482.807 35.3796 482.807 38.2763C482.807 41.0996 482.166 43.5929 480.882 45.7563C479.599 47.8829 477.857 49.5513 475.657 50.7613C473.457 51.9346 470.982 52.5213 468.232 52.5213ZM465.922 47.0213C467.866 47.0213 469.552 46.6546 470.982 45.9213C472.412 45.1879 473.512 44.1796 474.282 42.8963C475.089 41.5763 475.492 40.0363 475.492 38.2763C475.492 35.6363 474.649 33.5096 472.962 31.8963C471.312 30.2829 468.966 29.4763 465.922 29.4763C463.796 29.4763 461.944 29.8246 460.367 30.5213C458.791 31.2179 457.562 32.2263 456.682 33.5463C455.839 34.8296 455.417 36.4063 455.417 38.2763C455.417 39.9996 455.839 41.5213 456.682 42.8413C457.526 44.1613 458.736 45.1879 460.312 45.9213C461.889 46.6546 463.759 47.0213 465.922 47.0213ZM455.417 13.5813V44.8763C455.417 46.0496 455.362 47.3146 455.252 48.6713C455.142 49.9913 455.032 51.0729 454.922 51.9163H448.267V13.5813H455.417ZM488.645 13.5813H495.795V51.9163H488.645V13.5813ZM527.942 42.8413H534.872C534.578 44.7113 533.79 46.3796 532.507 47.8463C531.26 49.3129 529.555 50.4679 527.392 51.3113C525.228 52.1546 522.588 52.5763 519.472 52.5763C515.988 52.5763 512.908 52.0263 510.232 50.9263C507.555 49.7896 505.465 48.1579 503.962 46.0313C502.458 43.9046 501.707 41.3379 501.707 38.3313C501.707 35.3246 502.44 32.7579 503.907 30.6313C505.373 28.4679 507.408 26.8179 510.012 25.6813C512.652 24.5446 515.732 23.9763 519.252 23.9763C522.845 23.9763 525.833 24.5446 528.217 25.6813C530.6 26.8179 532.36 28.5413 533.497 30.8513C534.67 33.1246 535.165 36.0396 534.982 39.5963H508.912C509.095 40.9896 509.608 42.2546 510.452 43.3913C511.332 44.5279 512.505 45.4263 513.972 46.0863C515.475 46.7463 517.253 47.0763 519.307 47.0763C521.58 47.0763 523.468 46.6913 524.972 45.9213C526.512 45.1146 527.502 44.0879 527.942 42.8413ZM518.922 29.4213C516.282 29.4213 514.137 30.0079 512.487 31.1813C510.837 32.3179 509.773 33.7296 509.297 35.4163H527.887C527.703 33.5829 526.823 32.1346 525.247 31.0713C523.707 29.9713 521.598 29.4213 518.922 29.4213ZM548.07 45.6463V51.9163H539.765V45.6463H548.07ZM11.55 82.3313V111.811H35.2V117.916H4.235V82.3313H11.55ZM64.8996 108.841H71.8296C71.5362 110.711 70.7479 112.38 69.4646 113.846C68.2179 115.313 66.5129 116.468 64.3496 117.311C62.1862 118.155 59.5462 118.576 56.4296 118.576C52.9462 118.576 49.8662 118.026 47.1896 116.926C44.5129 115.79 42.4229 114.158 40.9196 112.031C39.4162 109.905 38.6646 107.338 38.6646 104.331C38.6646 101.325 39.3979 98.7579 40.8646 96.6313C42.3312 94.4679 44.3662 92.8179 46.9696 91.6813C49.6096 90.5446 52.6896 89.9763 56.2096 89.9763C59.8029 89.9763 62.7912 90.5446 65.1746 91.6813C67.5579 92.8179 69.3179 94.5413 70.4546 96.8513C71.6279 99.1246 72.1229 102.04 71.9396 105.596H45.8696C46.0529 106.99 46.5662 108.255 47.4096 109.391C48.2896 110.528 49.4629 111.426 50.9296 112.086C52.4329 112.746 54.2112 113.076 56.2646 113.076C58.5379 113.076 60.4262 112.691 61.9296 111.921C63.4696 111.115 64.4596 110.088 64.8996 108.841ZM55.8796 95.4213C53.2396 95.4213 51.0946 96.0079 49.4446 97.1813C47.7946 98.3179 46.7312 99.7296 46.2546 101.416H64.8446C64.6612 99.5829 63.7812 98.1346 62.2046 97.0713C60.6646 95.9713 58.5562 95.4213 55.8796 95.4213ZM77.26 90.5813H84.41V117.916H77.26V90.5813ZM97.115 89.9763C98.8016 89.9763 100.36 90.1963 101.79 90.6363C103.22 91.0763 104.467 91.7546 105.53 92.6713C106.593 93.5879 107.418 94.7613 108.005 96.1913C108.592 97.5846 108.885 99.2529 108.885 101.196V117.916H101.735V102.461C101.735 100.151 101.167 98.4646 100.03 97.4013C98.93 96.3013 97.115 95.7513 94.585 95.7513C92.6783 95.7513 90.955 96.1179 89.415 96.8513C87.875 97.5846 86.6283 98.5196 85.675 99.6563C84.7216 100.756 84.1716 101.911 84.025 103.121L83.97 100.316C84.1533 99.0329 84.575 97.7863 85.235 96.5763C85.895 95.3663 86.775 94.2663 87.875 93.2763C89.0116 92.2496 90.35 91.4429 91.89 90.8563C93.43 90.2696 95.1716 89.9763 97.115 89.9763ZM128.705 118.521C125.955 118.521 123.461 117.935 121.225 116.761C119.025 115.551 117.283 113.883 116 111.756C114.716 109.593 114.075 107.1 114.075 104.276C114.075 101.38 114.698 98.8679 115.945 96.7413C117.228 94.6146 118.97 92.9646 121.17 91.7913C123.37 90.5813 125.881 89.9763 128.705 89.9763C131.161 89.9763 133.251 90.3429 134.975 91.0763C136.698 91.8096 138.091 92.8363 139.155 94.1563C140.218 95.4396 140.988 96.9429 141.465 98.6663C141.978 100.39 142.235 102.26 142.235 104.276C142.235 105.89 141.978 107.54 141.465 109.226C140.951 110.876 140.163 112.416 139.1 113.846C138.036 115.24 136.643 116.376 134.92 117.256C133.196 118.1 131.125 118.521 128.705 118.521ZM131.015 113.021C133.178 113.021 135.048 112.655 136.625 111.921C138.201 111.188 139.411 110.161 140.255 108.841C141.098 107.521 141.52 106 141.52 104.276C141.52 102.406 141.08 100.83 140.2 99.5463C139.356 98.2263 138.146 97.2179 136.57 96.5213C135.03 95.8246 133.178 95.4763 131.015 95.4763C127.971 95.4763 125.606 96.2829 123.92 97.8963C122.233 99.5096 121.39 101.636 121.39 104.276C121.39 106.036 121.793 107.576 122.6 108.896C123.406 110.18 124.525 111.188 125.955 111.921C127.421 112.655 129.108 113.021 131.015 113.021ZM141.52 79.5813H148.67V117.916H142.015C141.905 117.073 141.795 115.991 141.685 114.671C141.575 113.315 141.52 112.05 141.52 110.876V79.5813ZM164.571 78.5913V84.8613H156.266V78.5913H164.571ZM156.816 90.5813H163.966V117.916H156.816V90.5813ZM171.093 90.5813H178.243V117.916H171.093V90.5813ZM190.948 89.9763C192.635 89.9763 194.193 90.1963 195.623 90.6363C197.053 91.0763 198.3 91.7546 199.363 92.6713C200.426 93.5879 201.251 94.7613 201.838 96.1913C202.425 97.5846 202.718 99.2529 202.718 101.196V117.916H195.568V102.461C195.568 100.151 195 98.4646 193.863 97.4013C192.763 96.3013 190.948 95.7513 188.418 95.7513C186.511 95.7513 184.788 96.1179 183.248 96.8513C181.708 97.5846 180.461 98.5196 179.508 99.6563C178.555 100.756 178.005 101.911 177.858 103.121L177.803 100.316C177.986 99.0329 178.408 97.7863 179.068 96.5763C179.728 95.3663 180.608 94.2663 181.708 93.2763C182.845 92.2496 184.183 91.4429 185.723 90.8563C187.263 90.2696 189.005 89.9763 190.948 89.9763ZM222.868 113.736C219.898 113.736 217.276 113.296 215.003 112.416C212.766 111.5 211.024 110.161 209.778 108.401C208.531 106.641 207.908 104.515 207.908 102.021C207.908 99.5646 208.513 97.4379 209.723 95.6413C210.933 93.8446 212.656 92.4513 214.893 91.4613C217.166 90.4713 219.824 89.9763 222.868 89.9763C223.711 89.9763 224.518 90.0313 225.288 90.1413C226.094 90.2513 226.883 90.3979 227.653 90.5813L241.458 90.6363V96.0263C239.588 96.0629 237.681 95.8429 235.738 95.3663C233.831 94.8529 232.144 94.3029 230.678 93.7163L230.513 93.3313C231.759 93.9179 232.933 94.6513 234.033 95.5313C235.133 96.3746 236.013 97.3646 236.673 98.5013C237.369 99.6013 237.718 100.885 237.718 102.351C237.718 104.735 237.113 106.788 235.903 108.511C234.693 110.198 232.969 111.5 230.733 112.416C228.533 113.296 225.911 113.736 222.868 113.736ZM232.053 129.191V127.871C232.053 126.185 231.503 125.011 230.403 124.351C229.339 123.691 227.873 123.361 226.003 123.361H217.478C215.828 123.361 214.434 123.233 213.298 122.976C212.198 122.72 211.318 122.353 210.658 121.876C209.998 121.4 209.521 120.831 209.228 120.171C208.934 119.548 208.788 118.87 208.788 118.136C208.788 116.67 209.264 115.57 210.218 114.836C211.171 114.066 212.454 113.553 214.068 113.296C215.681 113.04 217.459 112.985 219.403 113.131L222.868 113.736C220.558 113.81 218.834 114.011 217.698 114.341C216.598 114.635 216.048 115.24 216.048 116.156C216.048 116.706 216.268 117.146 216.708 117.476C217.148 117.77 217.771 117.916 218.578 117.916H227.543C229.999 117.916 232.089 118.173 233.813 118.686C235.573 119.236 236.911 120.135 237.828 121.381C238.744 122.665 239.203 124.406 239.203 126.606V129.191H232.053ZM222.868 108.566C224.444 108.566 225.819 108.31 226.993 107.796C228.203 107.283 229.138 106.55 229.798 105.596C230.458 104.606 230.788 103.433 230.788 102.076C230.788 100.683 230.458 99.4913 229.798 98.5013C229.138 97.5113 228.221 96.7596 227.048 96.2463C225.874 95.6963 224.481 95.4213 222.868 95.4213C221.291 95.4213 219.898 95.6963 218.688 96.2463C217.478 96.7596 216.543 97.5113 215.883 98.5013C215.223 99.4913 214.893 100.683 214.893 102.076C214.893 103.433 215.223 104.606 215.883 105.596C216.543 106.55 217.459 107.283 218.633 107.796C219.843 108.31 221.254 108.566 222.868 108.566ZM258.294 108.841H264.894C265.297 110.088 266.122 111.115 267.369 111.921C268.652 112.691 270.32 113.076 272.374 113.076C273.767 113.076 274.849 112.948 275.619 112.691C276.389 112.435 276.92 112.068 277.214 111.591C277.507 111.078 277.654 110.51 277.654 109.886C277.654 109.116 277.415 108.53 276.939 108.126C276.462 107.686 275.729 107.338 274.739 107.081C273.749 106.825 272.484 106.586 270.944 106.366C269.404 106.11 267.919 105.798 266.489 105.431C265.059 105.065 263.794 104.588 262.694 104.001C261.594 103.378 260.714 102.608 260.054 101.691C259.43 100.738 259.119 99.5829 259.119 98.2263C259.119 96.9063 259.43 95.7329 260.054 94.7063C260.714 93.6796 261.612 92.8179 262.749 92.1213C263.922 91.4246 265.279 90.8929 266.819 90.5263C268.395 90.1596 270.082 89.9763 271.879 89.9763C274.592 89.9763 276.847 90.3796 278.644 91.1863C280.44 91.9563 281.779 93.0563 282.659 94.4863C283.575 95.8796 284.034 97.4929 284.034 99.3263H277.709C277.415 97.9696 276.829 96.9979 275.949 96.4113C275.069 95.7879 273.712 95.4763 271.879 95.4763C270.082 95.4763 268.725 95.7513 267.809 96.3013C266.892 96.8513 266.434 97.6029 266.434 98.5563C266.434 99.3263 266.709 99.9313 267.259 100.371C267.845 100.775 268.689 101.105 269.789 101.361C270.925 101.618 272.337 101.893 274.024 102.186C275.454 102.48 276.81 102.81 278.094 103.176C279.414 103.543 280.587 104.02 281.614 104.606C282.64 105.156 283.447 105.908 284.034 106.861C284.657 107.778 284.969 108.951 284.969 110.381C284.969 112.141 284.455 113.626 283.429 114.836C282.439 116.046 281.009 116.981 279.139 117.641C277.269 118.265 275.032 118.576 272.429 118.576C270.119 118.576 268.12 118.338 266.434 117.861C264.784 117.348 263.409 116.706 262.309 115.936C261.209 115.13 260.347 114.286 259.724 113.406C259.137 112.49 258.734 111.628 258.514 110.821C258.294 110.015 258.22 109.355 258.294 108.841ZM306.554 118.576C303.107 118.576 300.064 118.026 297.424 116.926C294.82 115.826 292.785 114.231 291.319 112.141C289.852 110.015 289.119 107.411 289.119 104.331C289.119 101.251 289.852 98.6479 291.319 96.5213C292.785 94.3579 294.82 92.7263 297.424 91.6263C300.064 90.5263 303.107 89.9763 306.554 89.9763C310 89.9763 313.007 90.5263 315.574 91.6263C318.177 92.7263 320.212 94.3579 321.679 96.5213C323.145 98.6479 323.879 101.251 323.879 104.331C323.879 107.411 323.145 110.015 321.679 112.141C320.212 114.231 318.177 115.826 315.574 116.926C313.007 118.026 310 118.576 306.554 118.576ZM306.554 113.076C308.46 113.076 310.165 112.746 311.669 112.086C313.209 111.39 314.419 110.4 315.299 109.116C316.179 107.796 316.619 106.201 316.619 104.331C316.619 102.461 316.179 100.866 315.299 99.5463C314.419 98.1896 313.227 97.1629 311.724 96.4663C310.22 95.7696 308.497 95.4213 306.554 95.4213C304.647 95.4213 302.924 95.7696 301.384 96.4663C299.844 97.1629 298.615 98.1713 297.699 99.4913C296.819 100.811 296.379 102.425 296.379 104.331C296.379 106.201 296.819 107.796 297.699 109.116C298.579 110.4 299.789 111.39 301.329 112.086C302.869 112.746 304.61 113.076 306.554 113.076ZM329.714 79.5813H336.864V117.916H329.714V79.5813ZM375.721 117.916H368.571V90.5813H375.721V117.916ZM368.956 104.771L369.011 106.641C368.938 107.155 368.754 107.906 368.461 108.896C368.168 109.85 367.709 110.876 367.086 111.976C366.499 113.076 365.729 114.14 364.776 115.166C363.823 116.156 362.649 116.981 361.256 117.641C359.863 118.265 358.213 118.576 356.306 118.576C354.803 118.576 353.318 118.393 351.851 118.026C350.421 117.66 349.119 117.055 347.946 116.211C346.773 115.331 345.838 114.158 345.141 112.691C344.444 111.225 344.096 109.373 344.096 107.136V90.5813H351.246V105.926C351.246 107.686 351.521 109.08 352.071 110.106C352.658 111.096 353.501 111.793 354.601 112.196C355.701 112.6 357.003 112.801 358.506 112.801C360.486 112.801 362.191 112.38 363.621 111.536C365.051 110.656 366.206 109.593 367.086 108.346C368.003 107.1 368.626 105.908 368.956 104.771ZM380.306 90.5813H401.536V96.1363H380.306V90.5813ZM387.346 83.1013H394.496V117.916H387.346V83.1013ZM414.273 78.5913V84.8613H405.968V78.5913H414.273ZM406.518 90.5813H413.668V117.916H406.518V90.5813ZM436.91 118.576C433.463 118.576 430.42 118.026 427.78 116.926C425.177 115.826 423.142 114.231 421.675 112.141C420.208 110.015 419.475 107.411 419.475 104.331C419.475 101.251 420.208 98.6479 421.675 96.5213C423.142 94.3579 425.177 92.7263 427.78 91.6263C430.42 90.5263 433.463 89.9763 436.91 89.9763C440.357 89.9763 443.363 90.5263 445.93 91.6263C448.533 92.7263 450.568 94.3579 452.035 96.5213C453.502 98.6479 454.235 101.251 454.235 104.331C454.235 107.411 453.502 110.015 452.035 112.141C450.568 114.231 448.533 115.826 445.93 116.926C443.363 118.026 440.357 118.576 436.91 118.576ZM436.91 113.076C438.817 113.076 440.522 112.746 442.025 112.086C443.565 111.39 444.775 110.4 445.655 109.116C446.535 107.796 446.975 106.201 446.975 104.331C446.975 102.461 446.535 100.866 445.655 99.5463C444.775 98.1896 443.583 97.1629 442.08 96.4663C440.577 95.7696 438.853 95.4213 436.91 95.4213C435.003 95.4213 433.28 95.7696 431.74 96.4663C430.2 97.1629 428.972 98.1713 428.055 99.4913C427.175 100.811 426.735 102.425 426.735 104.331C426.735 106.201 427.175 107.796 428.055 109.116C428.935 110.4 430.145 111.39 431.685 112.086C433.225 112.746 434.967 113.076 436.91 113.076ZM459.521 90.5813H466.671V117.916H459.521V90.5813ZM479.376 89.9763C481.062 89.9763 482.621 90.1963 484.051 90.6363C485.481 91.0763 486.727 91.7546 487.791 92.6713C488.854 93.5879 489.679 94.7613 490.266 96.1913C490.852 97.5846 491.146 99.2529 491.146 101.196V117.916H483.996V102.461C483.996 100.151 483.427 98.4646 482.291 97.4013C481.191 96.3013 479.376 95.7513 476.846 95.7513C474.939 95.7513 473.216 96.1179 471.676 96.8513C470.136 97.5846 468.889 98.5196 467.936 99.6563C466.982 100.756 466.432 101.911 466.286 103.121L466.231 100.316C466.414 99.0329 466.836 97.7863 467.496 96.5763C468.156 95.3663 469.036 94.2663 470.136 93.2763C471.272 92.2496 472.611 91.4429 474.151 90.8563C475.691 90.2696 477.432 89.9763 479.376 89.9763ZM496.555 108.841H503.155C503.559 110.088 504.384 111.115 505.63 111.921C506.914 112.691 508.582 113.076 510.635 113.076C512.029 113.076 513.11 112.948 513.88 112.691C514.65 112.435 515.182 112.068 515.475 111.591C515.769 111.078 515.915 110.51 515.915 109.886C515.915 109.116 515.677 108.53 515.2 108.126C514.724 107.686 513.99 107.338 513 107.081C512.01 106.825 510.745 106.586 509.205 106.366C507.665 106.11 506.18 105.798 504.75 105.431C503.32 105.065 502.055 104.588 500.955 104.001C499.855 103.378 498.975 102.608 498.315 101.691C497.692 100.738 497.38 99.5829 497.38 98.2263C497.38 96.9063 497.692 95.7329 498.315 94.7063C498.975 93.6796 499.874 92.8179 501.01 92.1213C502.184 91.4246 503.54 90.8929 505.08 90.5263C506.657 90.1596 508.344 89.9763 510.14 89.9763C512.854 89.9763 515.109 90.3796 516.905 91.1863C518.702 91.9563 520.04 93.0563 520.92 94.4863C521.837 95.8796 522.295 97.4929 522.295 99.3263H515.97C515.677 97.9696 515.09 96.9979 514.21 96.4113C513.33 95.7879 511.974 95.4763 510.14 95.4763C508.344 95.4763 506.987 95.7513 506.07 96.3013C505.154 96.8513 504.695 97.6029 504.695 98.5563C504.695 99.3263 504.97 99.9313 505.52 100.371C506.107 100.775 506.95 101.105 508.05 101.361C509.187 101.618 510.599 101.893 512.285 102.186C513.715 102.48 515.072 102.81 516.355 103.176C517.675 103.543 518.849 104.02 519.875 104.606C520.902 105.156 521.709 105.908 522.295 106.861C522.919 107.778 523.23 108.951 523.23 110.381C523.23 112.141 522.717 113.626 521.69 114.836C520.7 116.046 519.27 116.981 517.4 117.641C515.53 118.265 513.294 118.576 510.69 118.576C508.38 118.576 506.382 118.338 504.695 117.861C503.045 117.348 501.67 116.706 500.57 115.936C499.47 115.13 498.609 114.286 497.985 113.406C497.399 112.49 496.995 111.628 496.775 110.821C496.555 110.015 496.482 109.355 496.555 108.841ZM0.825 156.581H8.415L20.24 182.816L14.08 183.916L0.825 156.581ZM34.265 156.581L15.345 194.916H7.92L16.005 179.846L26.62 156.581H34.265ZM53.3066 184.576C49.8599 184.576 46.8166 184.026 44.1766 182.926C41.5733 181.826 39.5383 180.231 38.0716 178.141C36.6049 176.015 35.8716 173.411 35.8716 170.331C35.8716 167.251 36.6049 164.648 38.0716 162.521C39.5383 160.358 41.5733 158.726 44.1766 157.626C46.8166 156.526 49.8599 155.976 53.3066 155.976C56.7533 155.976 59.7599 156.526 62.3266 157.626C64.9299 158.726 66.9649 160.358 68.4316 162.521C69.8983 164.648 70.6316 167.251 70.6316 170.331C70.6316 173.411 69.8983 176.015 68.4316 178.141C66.9649 180.231 64.9299 181.826 62.3266 182.926C59.7599 184.026 56.7533 184.576 53.3066 184.576ZM53.3066 179.076C55.2133 179.076 56.9183 178.746 58.4216 178.086C59.9616 177.39 61.1716 176.4 62.0516 175.116C62.9316 173.796 63.3716 172.201 63.3716 170.331C63.3716 168.461 62.9316 166.866 62.0516 165.546C61.1716 164.19 59.9799 163.163 58.4766 162.466C56.9733 161.77 55.2499 161.421 53.3066 161.421C51.3999 161.421 49.6766 161.77 48.1366 162.466C46.5966 163.163 45.3683 164.171 44.4516 165.491C43.5716 166.811 43.1316 168.425 43.1316 170.331C43.1316 172.201 43.5716 173.796 44.4516 175.116C45.3316 176.4 46.5416 177.39 48.0816 178.086C49.6216 178.746 51.3633 179.076 53.3066 179.076ZM107.542 183.916H100.392V156.581H107.542V183.916ZM100.777 170.771L100.832 172.641C100.759 173.155 100.576 173.906 100.282 174.896C99.9889 175.85 99.5305 176.876 98.9072 177.976C98.3205 179.076 97.5505 180.14 96.5972 181.166C95.6439 182.156 94.4705 182.981 93.0772 183.641C91.6839 184.265 90.0339 184.576 88.1272 184.576C86.6239 184.576 85.1389 184.393 83.6722 184.026C82.2422 183.66 80.9405 183.055 79.7672 182.211C78.5939 181.331 77.6589 180.158 76.9622 178.691C76.2655 177.225 75.9172 175.373 75.9172 173.136V156.581H83.0672V171.926C83.0672 173.686 83.3422 175.08 83.8922 176.106C84.4789 177.096 85.3222 177.793 86.4222 178.196C87.5222 178.6 88.8239 178.801 90.3272 178.801C92.3072 178.801 94.0122 178.38 95.4422 177.536C96.8722 176.656 98.0272 175.593 98.9072 174.346C99.8239 173.1 100.447 171.908 100.777 170.771ZM159.769 173.136C159.585 175.52 158.815 177.573 157.459 179.296C156.139 181.02 154.305 182.34 151.959 183.256C149.612 184.136 146.825 184.576 143.599 184.576C140.225 184.576 137.2 184.045 134.524 182.981C131.884 181.881 129.794 180.286 128.254 178.196C126.75 176.07 125.999 173.448 125.999 170.331C125.999 167.215 126.75 164.593 128.254 162.466C129.794 160.34 131.884 158.726 134.524 157.626C137.2 156.526 140.225 155.976 143.599 155.976C146.825 155.976 149.594 156.435 151.904 157.351C154.214 158.231 156.029 159.515 157.349 161.201C158.705 162.888 159.494 164.923 159.714 167.306H153.169C152.545 165.473 151.39 164.043 149.704 163.016C148.017 161.99 145.982 161.476 143.599 161.476C141.692 161.476 139.95 161.806 138.374 162.466C136.834 163.126 135.587 164.116 134.634 165.436C133.717 166.72 133.259 168.351 133.259 170.331C133.259 172.275 133.717 173.906 134.634 175.226C135.55 176.51 136.797 177.481 138.374 178.141C139.95 178.765 141.692 179.076 143.599 179.076C146.165 179.076 148.255 178.563 149.869 177.536C151.519 176.51 152.637 175.043 153.224 173.136H159.769ZM178.334 184.521C175.62 184.521 173.145 183.935 170.909 182.761C168.709 181.551 166.949 179.883 165.629 177.756C164.345 175.593 163.704 173.1 163.704 170.276C163.704 167.38 164.364 164.868 165.684 162.741C167.004 160.615 168.782 158.965 171.019 157.791C173.292 156.581 175.859 155.976 178.719 155.976C181.872 155.976 184.402 156.618 186.309 157.901C188.252 159.148 189.664 160.853 190.544 163.016C191.424 165.18 191.864 167.6 191.864 170.276C191.864 171.89 191.607 173.54 191.094 175.226C190.58 176.876 189.792 178.416 188.729 179.846C187.665 181.24 186.272 182.376 184.549 183.256C182.825 184.1 180.754 184.521 178.334 184.521ZM180.644 179.021C182.807 179.021 184.677 178.655 186.254 177.921C187.83 177.188 189.04 176.161 189.884 174.841C190.727 173.521 191.149 172 191.149 170.276C191.149 168.406 190.709 166.83 189.829 165.546C188.985 164.226 187.775 163.236 186.199 162.576C184.659 161.88 182.807 161.531 180.644 161.531C177.6 161.531 175.235 162.338 173.549 163.951C171.862 165.528 171.019 167.636 171.019 170.276C171.019 172.036 171.422 173.576 172.229 174.896C173.035 176.18 174.154 177.188 175.584 177.921C177.05 178.655 178.737 179.021 180.644 179.021ZM191.149 156.581H198.299V183.916H191.644C191.644 183.916 191.589 183.568 191.479 182.871C191.405 182.138 191.332 181.221 191.259 180.121C191.185 179.021 191.149 177.94 191.149 176.876V156.581ZM204.77 156.581H211.92V183.916H204.77V156.581ZM224.625 155.976C226.311 155.976 227.87 156.196 229.3 156.636C230.73 157.076 231.976 157.755 233.04 158.671C234.103 159.588 234.928 160.761 235.515 162.191C236.101 163.585 236.395 165.253 236.395 167.196V183.916H229.245V168.461C229.245 166.151 228.676 164.465 227.54 163.401C226.44 162.301 224.625 161.751 222.095 161.751C220.188 161.751 218.465 162.118 216.925 162.851C215.385 163.585 214.138 164.52 213.185 165.656C212.231 166.756 211.681 167.911 211.535 169.121L211.48 166.316C211.663 165.033 212.085 163.786 212.745 162.576C213.405 161.366 214.285 160.266 215.385 159.276C216.521 158.25 217.86 157.443 219.4 156.856C220.94 156.27 222.681 155.976 224.625 155.976ZM254.246 156.581H275.476V162.136H254.246V156.581ZM261.286 149.101H268.436V183.916H261.286V149.101ZM280.019 156.581H287.169V183.916H280.019V156.581ZM297.674 162.466C295.62 162.466 293.842 162.87 292.339 163.676C290.835 164.446 289.625 165.4 288.709 166.536C287.792 167.673 287.15 168.773 286.784 169.836L286.729 166.811C286.765 166.371 286.912 165.73 287.169 164.886C287.425 164.006 287.81 163.071 288.324 162.081C288.837 161.055 289.515 160.083 290.359 159.166C291.202 158.213 292.229 157.443 293.439 156.856C294.649 156.27 296.06 155.976 297.674 155.976V162.466ZM333.719 183.916H326.569V156.581H333.719V183.916ZM326.954 170.771L327.009 172.641C326.936 173.155 326.752 173.906 326.459 174.896C326.166 175.85 325.707 176.876 325.084 177.976C324.497 179.076 323.727 180.14 322.774 181.166C321.821 182.156 320.647 182.981 319.254 183.641C317.861 184.265 316.211 184.576 314.304 184.576C312.801 184.576 311.316 184.393 309.849 184.026C308.419 183.66 307.117 183.055 305.944 182.211C304.771 181.331 303.836 180.158 303.139 178.691C302.442 177.225 302.094 175.373 302.094 173.136V156.581H309.244V171.926C309.244 173.686 309.519 175.08 310.069 176.106C310.656 177.096 311.499 177.793 312.599 178.196C313.699 178.6 315.001 178.801 316.504 178.801C318.484 178.801 320.189 178.38 321.619 177.536C323.049 176.656 324.204 175.593 325.084 174.346C326.001 173.1 326.624 171.908 326.954 170.771ZM339.129 174.841H345.729C346.132 176.088 346.957 177.115 348.204 177.921C349.487 178.691 351.155 179.076 353.209 179.076C354.602 179.076 355.684 178.948 356.454 178.691C357.224 178.435 357.755 178.068 358.049 177.591C358.342 177.078 358.489 176.51 358.489 175.886C358.489 175.116 358.25 174.53 357.774 174.126C357.297 173.686 356.564 173.338 355.574 173.081C354.584 172.825 353.319 172.586 351.779 172.366C350.239 172.11 348.754 171.798 347.324 171.431C345.894 171.065 344.629 170.588 343.529 170.001C342.429 169.378 341.549 168.608 340.889 167.691C340.265 166.738 339.954 165.583 339.954 164.226C339.954 162.906 340.265 161.733 340.889 160.706C341.549 159.68 342.447 158.818 343.584 158.121C344.757 157.425 346.114 156.893 347.654 156.526C349.23 156.16 350.917 155.976 352.714 155.976C355.427 155.976 357.682 156.38 359.479 157.186C361.275 157.956 362.614 159.056 363.494 160.486C364.41 161.88 364.869 163.493 364.869 165.326H358.544C358.25 163.97 357.664 162.998 356.784 162.411C355.904 161.788 354.547 161.476 352.714 161.476C350.917 161.476 349.56 161.751 348.644 162.301C347.727 162.851 347.269 163.603 347.269 164.556C347.269 165.326 347.544 165.931 348.094 166.371C348.68 166.775 349.524 167.105 350.624 167.361C351.76 167.618 353.172 167.893 354.859 168.186C356.289 168.48 357.645 168.81 358.929 169.176C360.249 169.543 361.422 170.02 362.449 170.606C363.475 171.156 364.282 171.908 364.869 172.861C365.492 173.778 365.804 174.951 365.804 176.381C365.804 178.141 365.29 179.626 364.264 180.836C363.274 182.046 361.844 182.981 359.974 183.641C358.104 184.265 355.867 184.576 353.264 184.576C350.954 184.576 348.955 184.338 347.269 183.861C345.619 183.348 344.244 182.706 343.144 181.936C342.044 181.13 341.182 180.286 340.559 179.406C339.972 178.49 339.569 177.628 339.349 176.821C339.129 176.015 339.055 175.355 339.129 174.841ZM369.349 156.581H390.579V162.136H369.349V156.581ZM376.389 149.101H383.539V183.916H376.389V149.101ZM401.546 177.646V183.916H393.241V177.646H401.546Z" fill="white"/>
<g clip-path="url(#clip1_2205_19164)">
<path d="M559.935 78.5881L563.073 79.6919L536.414 93.1211L559.935 78.5881Z" fill="url(#paint0_linear_2205_19164)"/>
<path d="M563.073 79.6919L563.509 81.9763L536.52 93.2854L536.414 93.121L563.073 79.6919Z" fill="url(#paint1_linear_2205_19164)"/>
<path d="M538.342 95.8366L559.79 88.9106L557.813 94.1371L538.342 95.8366Z" fill="url(#paint2_linear_2205_19164)"/>
<path d="M559.79 88.9106L560.637 90.213L558.66 95.4416L557.813 94.1371L559.79 88.9106Z" fill="url(#paint3_linear_2205_19164)"/>
<path d="M557.813 94.1379L558.66 95.4424L538.472 96.038L538.342 95.8373L557.813 94.1379Z" fill="url(#paint4_linear_2205_19164)"/>
<path d="M544.234 77.2214L549.95 77.0378L535.404 90.136L544.234 77.2214Z" fill="url(#paint5_linear_2205_19164)"/>
<path d="M549.95 77.0378L550.797 78.3423L535.553 90.3666L535.404 90.136L549.95 77.0378Z" fill="url(#paint6_linear_2205_19164)"/>
</g>
</g>
<defs>
<linearGradient id="paint0_linear_2205_19164" x1="537.533" y1="84.4742" x2="562.049" y2="87.6408" gradientUnits="userSpaceOnUse">
<stop stop-color="white"/>
<stop offset="1" stop-color="white"/>
</linearGradient>
<linearGradient id="paint1_linear_2205_19164" x1="537.479" y1="84.8913" x2="562.713" y2="88.1506" gradientUnits="userSpaceOnUse">
<stop stop-color="#C9E5EE"/>
<stop offset="1" stop-color="white"/>
</linearGradient>
<linearGradient id="paint2_linear_2205_19164" x1="538.962" y1="91.0629" x2="559.177" y2="93.674" gradientUnits="userSpaceOnUse">
<stop stop-color="white"/>
<stop offset="1" stop-color="white"/>
</linearGradient>
<linearGradient id="paint3_linear_2205_19164" x1="558.088" y1="92.0221" x2="560.368" y2="92.3167" gradientUnits="userSpaceOnUse">
<stop stop-color="#C9E5EE"/>
<stop offset="1" stop-color="white"/>
</linearGradient>
<linearGradient id="paint4_linear_2205_19164" x1="538.602" y1="93.8502" x2="558.535" y2="96.4249" gradientUnits="userSpaceOnUse">
<stop stop-color="#C9E5EE"/>
<stop offset="1" stop-color="white"/>
</linearGradient>
<linearGradient id="paint5_linear_2205_19164" x1="536.359" y1="82.7657" x2="549.002" y2="84.3988" gradientUnits="userSpaceOnUse">
<stop stop-color="white"/>
<stop offset="1" stop-color="white"/>
</linearGradient>
<linearGradient id="paint6_linear_2205_19164" x1="536.346" y1="82.8695" x2="549.988" y2="84.6316" gradientUnits="userSpaceOnUse">
<stop stop-color="#C9E5EE"/>
<stop offset="1" stop-color="white"/>
</linearGradient>
<clipPath id="clip0_2205_19164">
<rect width="570" height="198" fill="white" transform="translate(0 0.91626)"/>
</clipPath>
<clipPath id="clip1_2205_19164">
<rect width="28.1051" height="18.9994" fill="white" transform="translate(535.404 77.0378)"/>
</clipPath>
</defs>
</svg>
