<svg width="588" height="292" viewBox="0 0 588 292" fill="none" xmlns="http://www.w3.org/2000/svg">
<path d="M48.55 39.15V47.895H75.995V54H41.235V18.415H75.94V24.52H48.55V33.375H70.99V39.15H48.55ZM95.1823 54.605C92.4689 54.605 89.9939 54.0183 87.7573 52.845C85.5573 51.635 83.7973 49.9667 82.4773 47.84C81.1939 45.6767 80.5523 43.1833 80.5523 40.36C80.5523 37.4633 81.2123 34.9517 82.5323 32.825C83.8523 30.6983 85.6306 29.0483 87.8673 27.875C90.1406 26.665 92.7073 26.06 95.5673 26.06C98.7206 26.06 101.251 26.7017 103.157 27.985C105.101 29.2317 106.512 30.9367 107.392 33.1C108.272 35.2633 108.712 37.6833 108.712 40.36C108.712 41.9733 108.456 43.6233 107.942 45.31C107.429 46.96 106.641 48.5 105.577 49.93C104.514 51.3233 103.121 52.46 101.397 53.34C99.6739 54.1833 97.6023 54.605 95.1823 54.605ZM97.4923 49.105C99.6556 49.105 101.526 48.7383 103.102 48.005C104.679 47.2717 105.889 46.245 106.732 44.925C107.576 43.605 107.997 42.0833 107.997 40.36C107.997 38.49 107.557 36.9133 106.677 35.63C105.834 34.31 104.624 33.32 103.047 32.66C101.507 31.9633 99.6556 31.615 97.4923 31.615C94.4489 31.615 92.0839 32.4217 90.3973 34.035C88.7106 35.6117 87.8673 37.72 87.8673 40.36C87.8673 42.12 88.2706 43.66 89.0773 44.98C89.8839 46.2633 91.0023 47.2717 92.4323 48.005C93.8989 48.7383 95.5856 49.105 97.4923 49.105ZM107.997 26.665H115.147V54H108.492C108.492 54 108.437 53.6517 108.327 52.955C108.254 52.2217 108.181 51.305 108.107 50.205C108.034 49.105 107.997 48.0233 107.997 46.96V26.665ZM120.518 44.925H127.118C127.522 46.1717 128.347 47.1983 129.593 48.005C130.877 48.775 132.545 49.16 134.598 49.16C135.992 49.16 137.073 49.0317 137.843 48.775C138.613 48.5183 139.145 48.1517 139.438 47.675C139.732 47.1617 139.878 46.5933 139.878 45.97C139.878 45.2 139.64 44.6133 139.163 44.21C138.687 43.77 137.953 43.4217 136.963 43.165C135.973 42.9083 134.708 42.67 133.168 42.45C131.628 42.1933 130.143 41.8817 128.713 41.515C127.283 41.1483 126.018 40.6717 124.918 40.085C123.818 39.4617 122.938 38.6917 122.278 37.775C121.655 36.8217 121.343 35.6667 121.343 34.31C121.343 32.99 121.655 31.8167 122.278 30.79C122.938 29.7633 123.837 28.9017 124.973 28.205C126.147 27.5083 127.503 26.9767 129.043 26.61C130.62 26.2433 132.307 26.06 134.103 26.06C136.817 26.06 139.072 26.4633 140.868 27.27C142.665 28.04 144.003 29.14 144.883 30.57C145.8 31.9633 146.258 33.5767 146.258 35.41H139.933C139.64 34.0533 139.053 33.0817 138.173 32.495C137.293 31.8717 135.937 31.56 134.103 31.56C132.307 31.56 130.95 31.835 130.033 32.385C129.117 32.935 128.658 33.6867 128.658 34.64C128.658 35.41 128.933 36.015 129.483 36.455C130.07 36.8583 130.913 37.1883 132.013 37.445C133.15 37.7017 134.562 37.9767 136.248 38.27C137.678 38.5633 139.035 38.8933 140.318 39.26C141.638 39.6267 142.812 40.1033 143.838 40.69C144.865 41.24 145.672 41.9917 146.258 42.945C146.882 43.8617 147.193 45.035 147.193 46.465C147.193 48.225 146.68 49.71 145.653 50.92C144.663 52.13 143.233 53.065 141.363 53.725C139.493 54.3483 137.257 54.66 134.653 54.66C132.343 54.66 130.345 54.4217 128.658 53.945C127.008 53.4317 125.633 52.79 124.533 52.02C123.433 51.2133 122.572 50.37 121.948 49.49C121.362 48.5733 120.958 47.7117 120.738 46.905C120.518 46.0983 120.445 45.4383 120.518 44.925ZM149.168 26.665H156.758L168.583 52.9L162.423 54L149.168 26.665ZM182.608 26.665L163.688 65H156.263L164.348 49.93L174.963 26.665H182.608ZM213.346 54.605C210.633 54.605 208.158 54.0183 205.921 52.845C203.721 51.635 201.961 49.9667 200.641 47.84C199.358 45.6767 198.716 43.1833 198.716 40.36C198.716 37.4633 199.376 34.9517 200.696 32.825C202.016 30.6983 203.795 29.0483 206.031 27.875C208.305 26.665 210.871 26.06 213.731 26.06C216.885 26.06 219.415 26.7017 221.321 27.985C223.265 29.2317 224.676 30.9367 225.556 33.1C226.436 35.2633 226.876 37.6833 226.876 40.36C226.876 41.9733 226.62 43.6233 226.106 45.31C225.593 46.96 224.805 48.5 223.741 49.93C222.678 51.3233 221.285 52.46 219.561 53.34C217.838 54.1833 215.766 54.605 213.346 54.605ZM215.656 49.105C217.82 49.105 219.69 48.7383 221.266 48.005C222.843 47.2717 224.053 46.245 224.896 44.925C225.74 43.605 226.161 42.0833 226.161 40.36C226.161 38.49 225.721 36.9133 224.841 35.63C223.998 34.31 222.788 33.32 221.211 32.66C219.671 31.9633 217.82 31.615 215.656 31.615C212.613 31.615 210.248 32.4217 208.561 34.035C206.875 35.6117 206.031 37.72 206.031 40.36C206.031 42.12 206.435 43.66 207.241 44.98C208.048 46.2633 209.166 47.2717 210.596 48.005C212.063 48.7383 213.75 49.105 215.656 49.105ZM226.161 26.665H233.311V54H226.656C226.656 54 226.601 53.6517 226.491 52.955C226.418 52.2217 226.345 51.305 226.271 50.205C226.198 49.105 226.161 48.0233 226.161 46.96V26.665ZM239.782 26.665H246.932V54H239.782V26.665ZM259.637 26.06C261.324 26.06 262.882 26.28 264.312 26.72C265.742 27.16 266.989 27.8383 268.052 28.755C269.116 29.6717 269.941 30.845 270.527 32.275C271.114 33.6683 271.407 35.3367 271.407 37.28V54H264.257V38.545C264.257 36.235 263.689 34.5483 262.552 33.485C261.452 32.385 259.637 31.835 257.107 31.835C255.201 31.835 253.477 32.2017 251.937 32.935C250.397 33.6683 249.151 34.6033 248.197 35.74C247.244 36.84 246.694 37.995 246.547 39.205L246.492 36.4C246.676 35.1167 247.097 33.87 247.757 32.66C248.417 31.45 249.297 30.35 250.397 29.36C251.534 28.3333 252.872 27.5267 254.412 26.94C255.952 26.3533 257.694 26.06 259.637 26.06ZM291.227 54.605C288.477 54.605 285.984 54.0183 283.747 52.845C281.547 51.635 279.806 49.9667 278.522 47.84C277.239 45.6767 276.597 43.1833 276.597 40.36C276.597 37.4633 277.221 34.9517 278.467 32.825C279.751 30.6983 281.492 29.0483 283.692 27.875C285.892 26.665 288.404 26.06 291.227 26.06C293.684 26.06 295.774 26.4267 297.497 27.16C299.221 27.8933 300.614 28.92 301.677 30.24C302.741 31.5233 303.511 33.0267 303.987 34.75C304.501 36.4733 304.757 38.3433 304.757 40.36C304.757 41.9733 304.501 43.6233 303.987 45.31C303.474 46.96 302.686 48.5 301.622 49.93C300.559 51.3233 299.166 52.46 297.442 53.34C295.719 54.1833 293.647 54.605 291.227 54.605ZM293.537 49.105C295.701 49.105 297.571 48.7383 299.147 48.005C300.724 47.2717 301.934 46.245 302.777 44.925C303.621 43.605 304.042 42.0833 304.042 40.36C304.042 38.49 303.602 36.9133 302.722 35.63C301.879 34.31 300.669 33.3017 299.092 32.605C297.552 31.9083 295.701 31.56 293.537 31.56C290.494 31.56 288.129 32.3667 286.442 33.98C284.756 35.5933 283.912 37.72 283.912 40.36C283.912 42.12 284.316 43.66 285.122 44.98C285.929 46.2633 287.047 47.2717 288.477 48.005C289.944 48.7383 291.631 49.105 293.537 49.105ZM304.042 15.665H311.192V54H304.537C304.427 53.1567 304.317 52.075 304.207 50.755C304.097 49.3983 304.042 48.1333 304.042 46.96V15.665ZM46.79 119.245V113.14H70.33V119.245H46.79ZM37.935 127L54.655 91.415H62.575L79.46 127H71.485L56.855 94.935H60.375L45.855 127H37.935ZM107.011 127V98.18L114.161 99.06V127H107.011ZM117.571 88.665H123.236V94.44H119.276C118.213 94.4033 117.296 94.5133 116.526 94.77C115.756 95.0267 115.169 95.5033 114.766 96.2C114.363 96.86 114.161 97.8133 114.161 99.06L107.011 98.18C107.011 95.98 107.414 94.1833 108.221 92.79C109.028 91.36 110.219 90.315 111.796 89.655C113.373 88.995 115.298 88.665 117.571 88.665ZM85.6711 127V98.95L92.8211 99.83V127H85.6711ZM96.2311 89.435H101.951V95.21H97.9361C96.8728 95.1733 95.9561 95.2833 95.1861 95.54C94.4161 95.7967 93.8295 96.255 93.4261 96.915C93.0228 97.575 92.8211 98.5467 92.8211 99.83L85.6711 98.95C85.6711 96.75 86.0745 94.9533 86.8811 93.56C87.6878 92.13 88.8795 91.085 90.4561 90.425C92.0328 89.765 93.9578 89.435 96.2311 89.435ZM79.7861 100.16H123.181V105.605H79.7861V100.16ZM143.427 127.66C139.98 127.66 136.937 127.11 134.297 126.01C131.693 124.91 129.658 123.315 128.192 121.225C126.725 119.098 125.992 116.495 125.992 113.415C125.992 110.335 126.725 107.732 128.192 105.605C129.658 103.442 131.693 101.81 134.297 100.71C136.937 99.61 139.98 99.06 143.427 99.06C146.873 99.06 149.88 99.61 152.447 100.71C155.05 101.81 157.085 103.442 158.552 105.605C160.018 107.732 160.752 110.335 160.752 113.415C160.752 116.495 160.018 119.098 158.552 121.225C157.085 123.315 155.05 124.91 152.447 126.01C149.88 127.11 146.873 127.66 143.427 127.66ZM143.427 122.16C145.333 122.16 147.038 121.83 148.542 121.17C150.082 120.473 151.292 119.483 152.172 118.2C153.052 116.88 153.492 115.285 153.492 113.415C153.492 111.545 153.052 109.95 152.172 108.63C151.292 107.273 150.1 106.247 148.597 105.55C147.093 104.853 145.37 104.505 143.427 104.505C141.52 104.505 139.797 104.853 138.257 105.55C136.717 106.247 135.488 107.255 134.572 108.575C133.692 109.895 133.252 111.508 133.252 113.415C133.252 115.285 133.692 116.88 134.572 118.2C135.452 119.483 136.662 120.473 138.202 121.17C139.742 121.83 141.483 122.16 143.427 122.16ZM166.037 99.665H173.187V127H166.037V99.665ZM183.692 105.55C181.639 105.55 179.861 105.953 178.357 106.76C176.854 107.53 175.644 108.483 174.727 109.62C173.811 110.757 173.169 111.857 172.802 112.92L172.747 109.895C172.784 109.455 172.931 108.813 173.187 107.97C173.444 107.09 173.829 106.155 174.342 105.165C174.856 104.138 175.534 103.167 176.377 102.25C177.221 101.297 178.247 100.527 179.457 99.94C180.667 99.3533 182.079 99.06 183.692 99.06V105.55ZM201.423 127.605C198.673 127.605 196.179 127.018 193.943 125.845C191.743 124.635 190.001 122.967 188.718 120.84C187.434 118.677 186.793 116.183 186.793 113.36C186.793 110.463 187.416 107.952 188.663 105.825C189.946 103.698 191.688 102.048 193.888 100.875C196.088 99.665 198.599 99.06 201.423 99.06C203.879 99.06 205.969 99.4267 207.693 100.16C209.416 100.893 210.809 101.92 211.873 103.24C212.936 104.523 213.706 106.027 214.183 107.75C214.696 109.473 214.953 111.343 214.953 113.36C214.953 114.973 214.696 116.623 214.183 118.31C213.669 119.96 212.881 121.5 211.818 122.93C210.754 124.323 209.361 125.46 207.638 126.34C205.914 127.183 203.843 127.605 201.423 127.605ZM203.733 122.105C205.896 122.105 207.766 121.738 209.343 121.005C210.919 120.272 212.129 119.245 212.973 117.925C213.816 116.605 214.238 115.083 214.238 113.36C214.238 111.49 213.798 109.913 212.918 108.63C212.074 107.31 210.864 106.302 209.288 105.605C207.748 104.908 205.896 104.56 203.733 104.56C200.689 104.56 198.324 105.367 196.638 106.98C194.951 108.593 194.108 110.72 194.108 113.36C194.108 115.12 194.511 116.66 195.318 117.98C196.124 119.263 197.243 120.272 198.673 121.005C200.139 121.738 201.826 122.105 203.733 122.105ZM214.238 88.665H221.388V127H214.733C214.623 126.157 214.513 125.075 214.403 123.755C214.293 122.398 214.238 121.133 214.238 119.96V88.665ZM242.404 127.605C239.691 127.605 237.216 127.018 234.979 125.845C232.779 124.635 231.019 122.967 229.699 120.84C228.416 118.677 227.774 116.183 227.774 113.36C227.774 110.463 228.434 107.952 229.754 105.825C231.074 103.698 232.852 102.048 235.089 100.875C237.362 99.665 239.929 99.06 242.789 99.06C245.942 99.06 248.472 99.7017 250.379 100.985C252.322 102.232 253.734 103.937 254.614 106.1C255.494 108.263 255.934 110.683 255.934 113.36C255.934 114.973 255.677 116.623 255.164 118.31C254.651 119.96 253.862 121.5 252.799 122.93C251.736 124.323 250.342 125.46 248.619 126.34C246.896 127.183 244.824 127.605 242.404 127.605ZM244.714 122.105C246.877 122.105 248.747 121.738 250.324 121.005C251.901 120.272 253.111 119.245 253.954 117.925C254.797 116.605 255.219 115.083 255.219 113.36C255.219 111.49 254.779 109.913 253.899 108.63C253.056 107.31 251.846 106.32 250.269 105.66C248.729 104.963 246.877 104.615 244.714 104.615C241.671 104.615 239.306 105.422 237.619 107.035C235.932 108.612 235.089 110.72 235.089 113.36C235.089 115.12 235.492 116.66 236.299 117.98C237.106 119.263 238.224 120.272 239.654 121.005C241.121 121.738 242.807 122.105 244.714 122.105ZM255.219 99.665H262.369V127H255.714C255.714 127 255.659 126.652 255.549 125.955C255.476 125.222 255.402 124.305 255.329 123.205C255.256 122.105 255.219 121.023 255.219 119.96V99.665ZM289.368 127.605C286.948 127.605 284.876 127.183 283.153 126.34C281.43 125.46 280.036 124.323 278.973 122.93C277.91 121.5 277.121 119.96 276.608 118.31C276.095 116.623 275.838 114.973 275.838 113.36C275.838 111.343 276.076 109.473 276.553 107.75C277.066 106.027 277.855 104.523 278.918 103.24C279.981 101.92 281.375 100.893 283.098 100.16C284.821 99.4267 286.911 99.06 289.368 99.06C292.191 99.06 294.685 99.665 296.848 100.875C299.048 102.048 300.771 103.698 302.018 105.825C303.301 107.952 303.943 110.463 303.943 113.36C303.943 116.183 303.301 118.677 302.018 120.84C300.735 122.967 298.993 124.635 296.793 125.845C294.593 127.018 292.118 127.605 289.368 127.605ZM287.058 122.105C289.001 122.105 290.688 121.738 292.118 121.005C293.548 120.272 294.648 119.263 295.418 117.98C296.225 116.66 296.628 115.12 296.628 113.36C296.628 110.72 295.785 108.593 294.098 106.98C292.448 105.367 290.101 104.56 287.058 104.56C284.931 104.56 283.08 104.908 281.503 105.605C279.926 106.302 278.698 107.31 277.818 108.63C276.975 109.913 276.553 111.49 276.553 113.36C276.553 115.083 276.975 116.605 277.818 117.925C278.661 119.245 279.871 120.272 281.448 121.005C283.025 121.738 284.895 122.105 287.058 122.105ZM276.553 88.665V119.96C276.553 121.133 276.498 122.398 276.388 123.755C276.278 125.075 276.168 126.157 276.058 127H269.403V88.665H276.553ZM309.781 88.665H316.931V127H309.781V88.665ZM349.077 117.925H356.007C355.714 119.795 354.926 121.463 353.642 122.93C352.396 124.397 350.691 125.552 348.527 126.395C346.364 127.238 343.724 127.66 340.607 127.66C337.124 127.66 334.044 127.11 331.367 126.01C328.691 124.873 326.601 123.242 325.097 121.115C323.594 118.988 322.842 116.422 322.842 113.415C322.842 110.408 323.576 107.842 325.042 105.715C326.509 103.552 328.544 101.902 331.147 100.765C333.787 99.6283 336.867 99.06 340.387 99.06C343.981 99.06 346.969 99.6283 349.352 100.765C351.736 101.902 353.496 103.625 354.632 105.935C355.806 108.208 356.301 111.123 356.117 114.68H330.047C330.231 116.073 330.744 117.338 331.587 118.475C332.467 119.612 333.641 120.51 335.107 121.17C336.611 121.83 338.389 122.16 340.442 122.16C342.716 122.16 344.604 121.775 346.107 121.005C347.647 120.198 348.637 119.172 349.077 117.925ZM340.057 104.505C337.417 104.505 335.272 105.092 333.622 106.265C331.972 107.402 330.909 108.813 330.432 110.5H349.022C348.839 108.667 347.959 107.218 346.382 106.155C344.842 105.055 342.734 104.505 340.057 104.505ZM277.999 190.925H284.599C285.002 192.172 285.827 193.198 287.074 194.005C288.357 194.775 290.025 195.16 292.079 195.16C293.472 195.16 294.554 195.032 295.324 194.775C296.094 194.518 296.625 194.152 296.919 193.675C297.212 193.162 297.359 192.593 297.359 191.97C297.359 191.2 297.12 190.613 296.644 190.21C296.167 189.77 295.434 189.422 294.444 189.165C293.454 188.908 292.189 188.67 290.649 188.45C289.109 188.193 287.624 187.882 286.194 187.515C284.764 187.148 283.499 186.672 282.399 186.085C281.299 185.462 280.419 184.692 279.759 183.775C279.135 182.822 278.824 181.667 278.824 180.31C278.824 178.99 279.135 177.817 279.759 176.79C280.419 175.763 281.317 174.902 282.454 174.205C283.627 173.508 284.984 172.977 286.524 172.61C288.1 172.243 289.787 172.06 291.584 172.06C294.297 172.06 296.552 172.463 298.349 173.27C300.145 174.04 301.484 175.14 302.364 176.57C303.28 177.963 303.739 179.577 303.739 181.41H297.414C297.12 180.053 296.534 179.082 295.654 178.495C294.774 177.872 293.417 177.56 291.584 177.56C289.787 177.56 288.43 177.835 287.514 178.385C286.597 178.935 286.139 179.687 286.139 180.64C286.139 181.41 286.414 182.015 286.964 182.455C287.55 182.858 288.394 183.188 289.494 183.445C290.63 183.702 292.042 183.977 293.729 184.27C295.159 184.563 296.515 184.893 297.799 185.26C299.119 185.627 300.292 186.103 301.319 186.69C302.345 187.24 303.152 187.992 303.739 188.945C304.362 189.862 304.674 191.035 304.674 192.465C304.674 194.225 304.16 195.71 303.134 196.92C302.144 198.13 300.714 199.065 298.844 199.725C296.974 200.348 294.737 200.66 292.134 200.66C289.824 200.66 287.825 200.422 286.139 199.945C284.489 199.432 283.114 198.79 282.014 198.02C280.914 197.213 280.052 196.37 279.429 195.49C278.842 194.573 278.439 193.712 278.219 192.905C277.999 192.098 277.925 191.438 277.999 190.925ZM326.259 200.66C322.812 200.66 319.769 200.11 317.129 199.01C314.525 197.91 312.49 196.315 311.024 194.225C309.557 192.098 308.824 189.495 308.824 186.415C308.824 183.335 309.557 180.732 311.024 178.605C312.49 176.442 314.525 174.81 317.129 173.71C319.769 172.61 322.812 172.06 326.259 172.06C329.705 172.06 332.712 172.61 335.279 173.71C337.882 174.81 339.917 176.442 341.384 178.605C342.85 180.732 343.584 183.335 343.584 186.415C343.584 189.495 342.85 192.098 341.384 194.225C339.917 196.315 337.882 197.91 335.279 199.01C332.712 200.11 329.705 200.66 326.259 200.66ZM326.259 195.16C328.165 195.16 329.87 194.83 331.374 194.17C332.914 193.473 334.124 192.483 335.004 191.2C335.884 189.88 336.324 188.285 336.324 186.415C336.324 184.545 335.884 182.95 335.004 181.63C334.124 180.273 332.932 179.247 331.429 178.55C329.925 177.853 328.202 177.505 326.259 177.505C324.352 177.505 322.629 177.853 321.089 178.55C319.549 179.247 318.32 180.255 317.404 181.575C316.524 182.895 316.084 184.508 316.084 186.415C316.084 188.285 316.524 189.88 317.404 191.2C318.284 192.483 319.494 193.473 321.034 194.17C322.574 194.83 324.315 195.16 326.259 195.16ZM349.419 161.665H356.569V200H349.419V161.665ZM395.426 200H388.276V172.665H395.426V200ZM388.661 186.855L388.716 188.725C388.643 189.238 388.459 189.99 388.166 190.98C387.873 191.933 387.414 192.96 386.791 194.06C386.204 195.16 385.434 196.223 384.481 197.25C383.528 198.24 382.354 199.065 380.961 199.725C379.568 200.348 377.918 200.66 376.011 200.66C374.508 200.66 373.023 200.477 371.556 200.11C370.126 199.743 368.824 199.138 367.651 198.295C366.478 197.415 365.543 196.242 364.846 194.775C364.149 193.308 363.801 191.457 363.801 189.22V172.665H370.951V188.01C370.951 189.77 371.226 191.163 371.776 192.19C372.363 193.18 373.206 193.877 374.306 194.28C375.406 194.683 376.708 194.885 378.211 194.885C380.191 194.885 381.896 194.463 383.326 193.62C384.756 192.74 385.911 191.677 386.791 190.43C387.708 189.183 388.331 187.992 388.661 186.855ZM400.011 172.665H421.241V178.22H400.011V172.665ZM407.051 165.185H414.201V200H407.051V165.185ZM433.978 160.675V166.945H425.673V160.675H433.978ZM426.223 172.665H433.373V200H426.223V172.665ZM456.615 200.66C453.169 200.66 450.125 200.11 447.485 199.01C444.882 197.91 442.847 196.315 441.38 194.225C439.914 192.098 439.18 189.495 439.18 186.415C439.18 183.335 439.914 180.732 441.38 178.605C442.847 176.442 444.882 174.81 447.485 173.71C450.125 172.61 453.169 172.06 456.615 172.06C460.062 172.06 463.069 172.61 465.635 173.71C468.239 174.81 470.274 176.442 471.74 178.605C473.207 180.732 473.94 183.335 473.94 186.415C473.94 189.495 473.207 192.098 471.74 194.225C470.274 196.315 468.239 197.91 465.635 199.01C463.069 200.11 460.062 200.66 456.615 200.66ZM456.615 195.16C458.522 195.16 460.227 194.83 461.73 194.17C463.27 193.473 464.48 192.483 465.36 191.2C466.24 189.88 466.68 188.285 466.68 186.415C466.68 184.545 466.24 182.95 465.36 181.63C464.48 180.273 463.289 179.247 461.785 178.55C460.282 177.853 458.559 177.505 456.615 177.505C454.709 177.505 452.985 177.853 451.445 178.55C449.905 179.247 448.677 180.255 447.76 181.575C446.88 182.895 446.44 184.508 446.44 186.415C446.44 188.285 446.88 189.88 447.76 191.2C448.64 192.483 449.85 193.473 451.39 194.17C452.93 194.83 454.672 195.16 456.615 195.16ZM479.226 172.665H486.376V200H479.226V172.665ZM499.081 172.06C500.767 172.06 502.326 172.28 503.756 172.72C505.186 173.16 506.432 173.838 507.496 174.755C508.559 175.672 509.384 176.845 509.971 178.275C510.557 179.668 510.851 181.337 510.851 183.28V200H503.701V184.545C503.701 182.235 503.132 180.548 501.996 179.485C500.896 178.385 499.081 177.835 496.551 177.835C494.644 177.835 492.921 178.202 491.381 178.935C489.841 179.668 488.594 180.603 487.641 181.74C486.687 182.84 486.137 183.995 485.991 185.205L485.936 182.4C486.119 181.117 486.541 179.87 487.201 178.66C487.861 177.45 488.741 176.35 489.841 175.36C490.977 174.333 492.316 173.527 493.856 172.94C495.396 172.353 497.137 172.06 499.081 172.06ZM516.261 190.925H522.861C523.264 192.172 524.089 193.198 525.336 194.005C526.619 194.775 528.287 195.16 530.341 195.16C531.734 195.16 532.816 195.032 533.586 194.775C534.356 194.518 534.887 194.152 535.181 193.675C535.474 193.162 535.621 192.593 535.621 191.97C535.621 191.2 535.382 190.613 534.906 190.21C534.429 189.77 533.696 189.422 532.706 189.165C531.716 188.908 530.451 188.67 528.911 188.45C527.371 188.193 525.886 187.882 524.456 187.515C523.026 187.148 521.761 186.672 520.661 186.085C519.561 185.462 518.681 184.692 518.021 183.775C517.397 182.822 517.086 181.667 517.086 180.31C517.086 178.99 517.397 177.817 518.021 176.79C518.681 175.763 519.579 174.902 520.716 174.205C521.889 173.508 523.246 172.977 524.786 172.61C526.362 172.243 528.049 172.06 529.846 172.06C532.559 172.06 534.814 172.463 536.611 173.27C538.407 174.04 539.746 175.14 540.626 176.57C541.542 177.963 542.001 179.577 542.001 181.41H535.676C535.382 180.053 534.796 179.082 533.916 178.495C533.036 177.872 531.679 177.56 529.846 177.56C528.049 177.56 526.692 177.835 525.776 178.385C524.859 178.935 524.401 179.687 524.401 180.64C524.401 181.41 524.676 182.015 525.226 182.455C525.812 182.858 526.656 183.188 527.756 183.445C528.892 183.702 530.304 183.977 531.991 184.27C533.421 184.563 534.777 184.893 536.061 185.26C537.381 185.627 538.554 186.103 539.581 186.69C540.607 187.24 541.414 187.992 542.001 188.945C542.624 189.862 542.936 191.035 542.936 192.465C542.936 194.225 542.422 195.71 541.396 196.92C540.406 198.13 538.976 199.065 537.106 199.725C535.236 200.348 532.999 200.66 530.396 200.66C528.086 200.66 526.087 200.422 524.401 199.945C522.751 199.432 521.376 198.79 520.276 198.02C519.176 197.213 518.314 196.37 517.691 195.49C517.104 194.573 516.701 193.712 516.481 192.905C516.261 192.098 516.187 191.438 516.261 190.925ZM37.825 245.665H45.415L57.24 271.9L51.08 273L37.825 245.665ZM71.265 245.665L52.345 284H44.92L53.005 268.93L63.62 245.665H71.265ZM90.3066 273.66C86.8599 273.66 83.8166 273.11 81.1766 272.01C78.5733 270.91 76.5383 269.315 75.0716 267.225C73.6049 265.098 72.8716 262.495 72.8716 259.415C72.8716 256.335 73.6049 253.732 75.0716 251.605C76.5383 249.442 78.5733 247.81 81.1766 246.71C83.8166 245.61 86.8599 245.06 90.3066 245.06C93.7533 245.06 96.7599 245.61 99.3266 246.71C101.93 247.81 103.965 249.442 105.432 251.605C106.898 253.732 107.632 256.335 107.632 259.415C107.632 262.495 106.898 265.098 105.432 267.225C103.965 269.315 101.93 270.91 99.3266 272.01C96.7599 273.11 93.7533 273.66 90.3066 273.66ZM90.3066 268.16C92.2133 268.16 93.9183 267.83 95.4216 267.17C96.9616 266.473 98.1716 265.483 99.0516 264.2C99.9316 262.88 100.372 261.285 100.372 259.415C100.372 257.545 99.9316 255.95 99.0516 254.63C98.1716 253.273 96.9799 252.247 95.4766 251.55C93.9733 250.853 92.2499 250.505 90.3066 250.505C88.3999 250.505 86.6766 250.853 85.1366 251.55C83.5966 252.247 82.3683 253.255 81.4516 254.575C80.5716 255.895 80.1316 257.508 80.1316 259.415C80.1316 261.285 80.5716 262.88 81.4516 264.2C82.3316 265.483 83.5416 266.473 85.0816 267.17C86.6216 267.83 88.3633 268.16 90.3066 268.16ZM144.542 273H137.392V245.665H144.542V273ZM137.777 259.855L137.832 261.725C137.759 262.238 137.576 262.99 137.282 263.98C136.989 264.933 136.531 265.96 135.907 267.06C135.321 268.16 134.551 269.223 133.597 270.25C132.644 271.24 131.471 272.065 130.077 272.725C128.684 273.348 127.034 273.66 125.127 273.66C123.624 273.66 122.139 273.477 120.672 273.11C119.242 272.743 117.941 272.138 116.767 271.295C115.594 270.415 114.659 269.242 113.962 267.775C113.266 266.308 112.917 264.457 112.917 262.22V245.665H120.067V261.01C120.067 262.77 120.342 264.163 120.892 265.19C121.479 266.18 122.322 266.877 123.422 267.28C124.522 267.683 125.824 267.885 127.327 267.885C129.307 267.885 131.012 267.463 132.442 266.62C133.872 265.74 135.027 264.677 135.907 263.43C136.824 262.183 137.447 260.992 137.777 259.855ZM196.769 262.22C196.585 264.603 195.815 266.657 194.459 268.38C193.139 270.103 191.305 271.423 188.959 272.34C186.612 273.22 183.825 273.66 180.599 273.66C177.225 273.66 174.2 273.128 171.524 272.065C168.884 270.965 166.794 269.37 165.254 267.28C163.75 265.153 162.999 262.532 162.999 259.415C162.999 256.298 163.75 253.677 165.254 251.55C166.794 249.423 168.884 247.81 171.524 246.71C174.2 245.61 177.225 245.06 180.599 245.06C183.825 245.06 186.594 245.518 188.904 246.435C191.214 247.315 193.029 248.598 194.349 250.285C195.705 251.972 196.494 254.007 196.714 256.39H190.169C189.545 254.557 188.39 253.127 186.704 252.1C185.017 251.073 182.982 250.56 180.599 250.56C178.692 250.56 176.95 250.89 175.374 251.55C173.834 252.21 172.587 253.2 171.634 254.52C170.717 255.803 170.259 257.435 170.259 259.415C170.259 261.358 170.717 262.99 171.634 264.31C172.55 265.593 173.797 266.565 175.374 267.225C176.95 267.848 178.692 268.16 180.599 268.16C183.165 268.16 185.255 267.647 186.869 266.62C188.519 265.593 189.637 264.127 190.224 262.22H196.769ZM215.334 273.605C212.62 273.605 210.145 273.018 207.909 271.845C205.709 270.635 203.949 268.967 202.629 266.84C201.345 264.677 200.704 262.183 200.704 259.36C200.704 256.463 201.364 253.952 202.684 251.825C204.004 249.698 205.782 248.048 208.019 246.875C210.292 245.665 212.859 245.06 215.719 245.06C218.872 245.06 221.402 245.702 223.309 246.985C225.252 248.232 226.664 249.937 227.544 252.1C228.424 254.263 228.864 256.683 228.864 259.36C228.864 260.973 228.607 262.623 228.094 264.31C227.58 265.96 226.792 267.5 225.729 268.93C224.665 270.323 223.272 271.46 221.549 272.34C219.825 273.183 217.754 273.605 215.334 273.605ZM217.644 268.105C219.807 268.105 221.677 267.738 223.254 267.005C224.83 266.272 226.04 265.245 226.884 263.925C227.727 262.605 228.149 261.083 228.149 259.36C228.149 257.49 227.709 255.913 226.829 254.63C225.985 253.31 224.775 252.32 223.199 251.66C221.659 250.963 219.807 250.615 217.644 250.615C214.6 250.615 212.235 251.422 210.549 253.035C208.862 254.612 208.019 256.72 208.019 259.36C208.019 261.12 208.422 262.66 209.229 263.98C210.035 265.263 211.154 266.272 212.584 267.005C214.05 267.738 215.737 268.105 217.644 268.105ZM228.149 245.665H235.299V273H228.644C228.644 273 228.589 272.652 228.479 271.955C228.405 271.222 228.332 270.305 228.259 269.205C228.185 268.105 228.149 267.023 228.149 265.96V245.665ZM241.77 245.665H248.92V273H241.77V245.665ZM261.625 245.06C263.311 245.06 264.87 245.28 266.3 245.72C267.73 246.16 268.976 246.838 270.04 247.755C271.103 248.672 271.928 249.845 272.515 251.275C273.101 252.668 273.395 254.337 273.395 256.28V273H266.245V257.545C266.245 255.235 265.676 253.548 264.54 252.485C263.44 251.385 261.625 250.835 259.095 250.835C257.188 250.835 255.465 251.202 253.925 251.935C252.385 252.668 251.138 253.603 250.185 254.74C249.231 255.84 248.681 256.995 248.535 258.205L248.48 255.4C248.663 254.117 249.085 252.87 249.745 251.66C250.405 250.45 251.285 249.35 252.385 248.36C253.521 247.333 254.86 246.527 256.4 245.94C257.94 245.353 259.681 245.06 261.625 245.06ZM291.246 245.665H312.476V251.22H291.246V245.665ZM298.286 238.185H305.436V273H298.286V238.185ZM317.019 245.665H324.169V273H317.019V245.665ZM334.674 251.55C332.62 251.55 330.842 251.953 329.339 252.76C327.835 253.53 326.625 254.483 325.709 255.62C324.792 256.757 324.15 257.857 323.784 258.92L323.729 255.895C323.765 255.455 323.912 254.813 324.169 253.97C324.425 253.09 324.81 252.155 325.324 251.165C325.837 250.138 326.515 249.167 327.359 248.25C328.202 247.297 329.229 246.527 330.439 245.94C331.649 245.353 333.06 245.06 334.674 245.06V251.55ZM370.719 273H363.569V245.665H370.719V273ZM363.954 259.855L364.009 261.725C363.936 262.238 363.752 262.99 363.459 263.98C363.166 264.933 362.707 265.96 362.084 267.06C361.497 268.16 360.727 269.223 359.774 270.25C358.821 271.24 357.647 272.065 356.254 272.725C354.861 273.348 353.211 273.66 351.304 273.66C349.801 273.66 348.316 273.477 346.849 273.11C345.419 272.743 344.117 272.138 342.944 271.295C341.771 270.415 340.836 269.242 340.139 267.775C339.442 266.308 339.094 264.457 339.094 262.22V245.665H346.244V261.01C346.244 262.77 346.519 264.163 347.069 265.19C347.656 266.18 348.499 266.877 349.599 267.28C350.699 267.683 352.001 267.885 353.504 267.885C355.484 267.885 357.189 267.463 358.619 266.62C360.049 265.74 361.204 264.677 362.084 263.43C363.001 262.183 363.624 260.992 363.954 259.855ZM376.129 263.925H382.729C383.132 265.172 383.957 266.198 385.204 267.005C386.487 267.775 388.155 268.16 390.209 268.16C391.602 268.16 392.684 268.032 393.454 267.775C394.224 267.518 394.755 267.152 395.049 266.675C395.342 266.162 395.489 265.593 395.489 264.97C395.489 264.2 395.25 263.613 394.774 263.21C394.297 262.77 393.564 262.422 392.574 262.165C391.584 261.908 390.319 261.67 388.779 261.45C387.239 261.193 385.754 260.882 384.324 260.515C382.894 260.148 381.629 259.672 380.529 259.085C379.429 258.462 378.549 257.692 377.889 256.775C377.265 255.822 376.954 254.667 376.954 253.31C376.954 251.99 377.265 250.817 377.889 249.79C378.549 248.763 379.447 247.902 380.584 247.205C381.757 246.508 383.114 245.977 384.654 245.61C386.23 245.243 387.917 245.06 389.714 245.06C392.427 245.06 394.682 245.463 396.479 246.27C398.275 247.04 399.614 248.14 400.494 249.57C401.41 250.963 401.869 252.577 401.869 254.41H395.544C395.25 253.053 394.664 252.082 393.784 251.495C392.904 250.872 391.547 250.56 389.714 250.56C387.917 250.56 386.56 250.835 385.644 251.385C384.727 251.935 384.269 252.687 384.269 253.64C384.269 254.41 384.544 255.015 385.094 255.455C385.68 255.858 386.524 256.188 387.624 256.445C388.76 256.702 390.172 256.977 391.859 257.27C393.289 257.563 394.645 257.893 395.929 258.26C397.249 258.627 398.422 259.103 399.449 259.69C400.475 260.24 401.282 260.992 401.869 261.945C402.492 262.862 402.804 264.035 402.804 265.465C402.804 267.225 402.29 268.71 401.264 269.92C400.274 271.13 398.844 272.065 396.974 272.725C395.104 273.348 392.867 273.66 390.264 273.66C387.954 273.66 385.955 273.422 384.269 272.945C382.619 272.432 381.244 271.79 380.144 271.02C379.044 270.213 378.182 269.37 377.559 268.49C376.972 267.573 376.569 266.712 376.349 265.905C376.129 265.098 376.055 264.438 376.129 263.925ZM406.349 245.665H427.579V251.22H406.349V245.665ZM413.389 238.185H420.539V273H413.389V238.185ZM438.546 266.73V273H430.241V266.73H438.546Z" fill="black"/>
<g clip-path="url(#clip0_15986_35789)">
<g filter="url(#filter0_d_15986_35789)">
<rect x="16" y="147" width="251" height="70" rx="35" fill="#23A323"/>
<rect x="14" y="145" width="255" height="74" rx="37" stroke="black" stroke-width="4"/>
</g>
<g clip-path="url(#clip1_15986_35789)">
<g opacity="0.2">
<g style="mix-blend-mode:soft-light">
<mask id="mask0_15986_35789" style="mask-type:alpha" maskUnits="userSpaceOnUse" x="24" y="176" width="323" height="51">
<rect x="24.1318" y="176.612" width="322.864" height="49.5636" rx="24.7818" fill="#D9D9D9"/>
</mask>
<g mask="url(#mask0_15986_35789)">
<path d="M50.6723 234.006C46.5527 188.862 12.6638 180.952 -3.76562 182.64L-3.76563 234.006H50.6723Z" fill="#328A28"/>
<g filter="url(#filter1_d_15986_35789)">
<path d="M99.3764 182.433C95.2568 227.577 61.3679 235.487 44.9385 233.799V182.433H99.3764Z" fill="#B6E8B0"/>
<path d="M153.815 234.006C149.695 188.861 115.806 180.952 99.377 182.64V234.006H153.815Z" fill="#0E280B"/>
</g>
<path d="M202.52 234.006C198.4 188.862 164.511 180.952 148.082 182.64V234.006H202.52Z" fill="#F2C94C"/>
<g filter="url(#filter2_d_15986_35789)">
<path d="M254.758 182.433C250.639 227.577 216.75 235.487 200.32 233.799V182.433H254.758Z" fill="#B6E8B0"/>
<path d="M309.196 234.006C305.076 188.861 271.187 180.952 254.758 182.64V234.006H309.196Z" fill="#F2994A"/>
</g>
</g>
</g>
<g style="mix-blend-mode:soft-light">
<mask id="mask1_15986_35789" style="mask-type:alpha" maskUnits="userSpaceOnUse" x="4" y="132" width="323" height="51">
<rect width="322.864" height="49.5636" rx="24.7818" transform="matrix(-1 0 0 1 326.996 132.612)" fill="#D9D9D9"/>
</mask>
<g mask="url(#mask1_15986_35789)">
<path d="M-6.77581 138.433C-2.65618 183.577 31.2326 191.487 47.6621 189.799L47.6621 138.433H-6.77581Z" fill="#328A28"/>
<g filter="url(#filter3_d_15986_35789)">
<path d="M251.752 138.433C255.871 183.577 289.76 191.487 306.189 189.799V138.433H251.752Z" fill="#B6E8B0"/>
<path d="M197.313 190.006C201.433 144.861 235.322 136.952 251.751 138.64V190.006H197.313Z" fill="#0E280B"/>
</g>
<path d="M148.609 190.006C152.729 144.862 186.617 136.952 203.047 138.64V190.006H148.609Z" fill="#F2C94C"/>
<g filter="url(#filter4_d_15986_35789)">
<path d="M96.3697 138.433C100.489 183.577 134.378 191.487 150.808 189.799V138.433H96.3697Z" fill="#B6E8B0"/>
<path d="M41.9312 190.006C46.0508 144.862 79.9397 136.952 96.3691 138.64V190.006H41.9312Z" fill="#F2994A"/>
</g>
</g>
</g>
</g>
</g>
<circle cx="35.9961" cy="181.608" r="6" fill="black"/>
</g>
<path d="M99.7561 185.793C99.4261 188.653 98.4178 191.091 96.7311 193.108C95.0444 195.124 92.7528 196.664 89.8561 197.728C86.9594 198.791 83.5128 199.323 79.5161 199.323C76.1794 199.323 73.1178 198.938 70.3311 198.168C67.5811 197.398 65.1978 196.243 63.1811 194.703C61.2011 193.163 59.6611 191.256 58.5611 188.983C57.4611 186.673 56.9111 183.978 56.9111 180.898C56.9111 177.818 57.4611 175.123 58.5611 172.813C59.6611 170.503 61.2011 168.578 63.1811 167.038C65.1978 165.461 67.5811 164.288 70.3311 163.518C73.1178 162.711 76.1794 162.308 79.5161 162.308C83.5128 162.308 86.9594 162.858 89.8561 163.958C92.7894 165.058 95.0994 166.634 96.7861 168.688C98.4728 170.704 99.4628 173.161 99.7561 176.058H92.4961C92.0194 174.518 91.2128 173.198 90.0761 172.098C88.9761 170.961 87.5461 170.099 85.7861 169.513C84.0261 168.926 81.9361 168.633 79.5161 168.633C76.5094 168.633 73.8694 169.109 71.5961 170.063C69.3228 170.979 67.5628 172.354 66.3161 174.188C65.0694 175.984 64.4461 178.221 64.4461 180.898C64.4461 183.538 65.0694 185.756 66.3161 187.553C67.5628 189.349 69.3228 190.724 71.5961 191.678C73.8694 192.594 76.5094 193.053 79.5161 193.053C81.9361 193.053 84.0078 192.759 85.7311 192.173C87.4911 191.586 88.9211 190.743 90.0211 189.643C91.1578 188.543 91.9828 187.259 92.4961 185.793H99.7561ZM105.958 171.273H113.108V198.608H105.958V171.273ZM123.613 177.158C121.56 177.158 119.782 177.561 118.278 178.368C116.775 179.138 115.565 180.091 114.648 181.228C113.732 182.364 113.09 183.464 112.723 184.528L112.668 181.503C112.705 181.063 112.852 180.421 113.108 179.578C113.365 178.698 113.75 177.763 114.263 176.773C114.777 175.746 115.455 174.774 116.298 173.858C117.142 172.904 118.168 172.134 119.378 171.548C120.588 170.961 122 170.668 123.613 170.668V177.158ZM152.948 189.533H159.878C159.585 191.403 158.797 193.071 157.513 194.538C156.267 196.004 154.562 197.159 152.398 198.003C150.235 198.846 147.595 199.268 144.478 199.268C140.995 199.268 137.915 198.718 135.238 197.618C132.562 196.481 130.472 194.849 128.968 192.723C127.465 190.596 126.713 188.029 126.713 185.023C126.713 182.016 127.447 179.449 128.913 177.323C130.38 175.159 132.415 173.509 135.018 172.373C137.658 171.236 140.738 170.668 144.258 170.668C147.852 170.668 150.84 171.236 153.223 172.373C155.607 173.509 157.367 175.233 158.503 177.543C159.677 179.816 160.172 182.731 159.988 186.288H133.918C134.102 187.681 134.615 188.946 135.458 190.083C136.338 191.219 137.512 192.118 138.978 192.778C140.482 193.438 142.26 193.768 144.313 193.768C146.587 193.768 148.475 193.383 149.978 192.613C151.518 191.806 152.508 190.779 152.948 189.533ZM143.928 176.113C141.288 176.113 139.143 176.699 137.493 177.873C135.843 179.009 134.78 180.421 134.303 182.108H152.893C152.71 180.274 151.83 178.826 150.253 177.763C148.713 176.663 146.605 176.113 143.928 176.113ZM178.619 199.213C175.869 199.213 173.375 198.626 171.139 197.453C168.939 196.243 167.197 194.574 165.914 192.448C164.63 190.284 163.989 187.791 163.989 184.968C163.989 182.071 164.612 179.559 165.859 177.433C167.142 175.306 168.884 173.656 171.084 172.483C173.284 171.273 175.795 170.668 178.619 170.668C181.075 170.668 183.165 171.034 184.889 171.768C186.612 172.501 188.005 173.528 189.069 174.848C190.132 176.131 190.902 177.634 191.379 179.358C191.892 181.081 192.149 182.951 192.149 184.968C192.149 186.581 191.892 188.231 191.379 189.918C190.865 191.568 190.077 193.108 189.014 194.538C187.95 195.931 186.557 197.068 184.834 197.948C183.11 198.791 181.039 199.213 178.619 199.213ZM180.929 193.713C183.092 193.713 184.962 193.346 186.539 192.613C188.115 191.879 189.325 190.853 190.169 189.533C191.012 188.213 191.434 186.691 191.434 184.968C191.434 183.098 190.994 181.521 190.114 180.238C189.27 178.918 188.06 177.909 186.484 177.213C184.944 176.516 183.092 176.168 180.929 176.168C177.885 176.168 175.52 176.974 173.834 178.588C172.147 180.201 171.304 182.328 171.304 184.968C171.304 186.728 171.707 188.268 172.514 189.588C173.32 190.871 174.439 191.879 175.869 192.613C177.335 193.346 179.022 193.713 180.929 193.713ZM191.434 160.273H198.584V198.608H191.929C191.819 197.764 191.709 196.683 191.599 195.363C191.489 194.006 191.434 192.741 191.434 191.568V160.273ZM214.485 159.283V165.553H206.18V159.283H214.485ZM206.73 171.273H213.88V198.608H206.73V171.273ZM219.082 171.273H240.312V176.828H219.082V171.273ZM226.122 163.793H233.272V198.608H226.122V163.793Z" fill="black"/>
<defs>
<filter id="filter0_d_15986_35789" x="-6" y="128" width="295" height="114" filterUnits="userSpaceOnUse" color-interpolation-filters="sRGB">
<feFlood flood-opacity="0" result="BackgroundImageFix"/>
<feColorMatrix in="SourceAlpha" type="matrix" values="0 0 0 0 0 0 0 0 0 0 0 0 0 0 0 0 0 0 127 0" result="hardAlpha"/>
<feOffset dy="3"/>
<feGaussianBlur stdDeviation="9"/>
<feComposite in2="hardAlpha" operator="out"/>
<feColorMatrix type="matrix" values="0 0 0 0 0 0 0 0 0 0 0 0 0 0 0 0 0 0 0.25 0"/>
<feBlend mode="normal" in2="BackgroundImageFix" result="effect1_dropShadow_15986_35789"/>
<feBlend mode="normal" in="SourceGraphic" in2="effect1_dropShadow_15986_35789" result="shape"/>
</filter>
<filter id="filter1_d_15986_35789" x="33.214" y="175.398" width="132.325" height="75.0218" filterUnits="userSpaceOnUse" color-interpolation-filters="sRGB">
<feFlood flood-opacity="0" result="BackgroundImageFix"/>
<feColorMatrix in="SourceAlpha" type="matrix" values="0 0 0 0 0 0 0 0 0 0 0 0 0 0 0 0 0 0 127 0" result="hardAlpha"/>
<feOffset dy="4.6898"/>
<feGaussianBlur stdDeviation="5.86225"/>
<feComposite in2="hardAlpha" operator="out"/>
<feColorMatrix type="matrix" values="0 0 0 0 0 0 0 0 0 0 0 0 0 0 0 0 0 0 0.12 0"/>
<feBlend mode="normal" in2="BackgroundImageFix" result="effect1_dropShadow_15986_35789"/>
<feBlend mode="normal" in="SourceGraphic" in2="effect1_dropShadow_15986_35789" result="shape"/>
</filter>
<filter id="filter2_d_15986_35789" x="188.596" y="175.398" width="132.324" height="75.0218" filterUnits="userSpaceOnUse" color-interpolation-filters="sRGB">
<feFlood flood-opacity="0" result="BackgroundImageFix"/>
<feColorMatrix in="SourceAlpha" type="matrix" values="0 0 0 0 0 0 0 0 0 0 0 0 0 0 0 0 0 0 127 0" result="hardAlpha"/>
<feOffset dy="4.6898"/>
<feGaussianBlur stdDeviation="5.86225"/>
<feComposite in2="hardAlpha" operator="out"/>
<feColorMatrix type="matrix" values="0 0 0 0 0 0 0 0 0 0 0 0 0 0 0 0 0 0 0.12 0"/>
<feBlend mode="normal" in2="BackgroundImageFix" result="effect1_dropShadow_15986_35789"/>
<feBlend mode="normal" in="SourceGraphic" in2="effect1_dropShadow_15986_35789" result="shape"/>
</filter>
<filter id="filter3_d_15986_35789" x="185.589" y="131.398" width="132.325" height="75.0218" filterUnits="userSpaceOnUse" color-interpolation-filters="sRGB">
<feFlood flood-opacity="0" result="BackgroundImageFix"/>
<feColorMatrix in="SourceAlpha" type="matrix" values="0 0 0 0 0 0 0 0 0 0 0 0 0 0 0 0 0 0 127 0" result="hardAlpha"/>
<feOffset dy="4.6898"/>
<feGaussianBlur stdDeviation="5.86225"/>
<feComposite in2="hardAlpha" operator="out"/>
<feColorMatrix type="matrix" values="0 0 0 0 0 0 0 0 0 0 0 0 0 0 0 0 0 0 0.12 0"/>
<feBlend mode="normal" in2="BackgroundImageFix" result="effect1_dropShadow_15986_35789"/>
<feBlend mode="normal" in="SourceGraphic" in2="effect1_dropShadow_15986_35789" result="shape"/>
</filter>
<filter id="filter4_d_15986_35789" x="30.2071" y="131.398" width="132.325" height="75.0219" filterUnits="userSpaceOnUse" color-interpolation-filters="sRGB">
<feFlood flood-opacity="0" result="BackgroundImageFix"/>
<feColorMatrix in="SourceAlpha" type="matrix" values="0 0 0 0 0 0 0 0 0 0 0 0 0 0 0 0 0 0 127 0" result="hardAlpha"/>
<feOffset dy="4.6898"/>
<feGaussianBlur stdDeviation="5.86225"/>
<feComposite in2="hardAlpha" operator="out"/>
<feColorMatrix type="matrix" values="0 0 0 0 0 0 0 0 0 0 0 0 0 0 0 0 0 0 0.12 0"/>
<feBlend mode="normal" in2="BackgroundImageFix" result="effect1_dropShadow_15986_35789"/>
<feBlend mode="normal" in="SourceGraphic" in2="effect1_dropShadow_15986_35789" result="shape"/>
</filter>
<clipPath id="clip0_15986_35789">
<rect width="273" height="96" fill="white" transform="translate(4 138)"/>
</clipPath>
<clipPath id="clip1_15986_35789">
<rect x="9.01953" y="147.514" width="285.46" height="69.9351" rx="34.9676" fill="white"/>
</clipPath>
</defs>
</svg>
