<svg width="35" height="35" viewBox="0 0 35 35" fill="none" xmlns="http://www.w3.org/2000/svg">
<circle cx="17.9295" cy="17.6134" r="17.0685" fill="#F2FCF2"/>
<path d="M21.3894 16.2747C20.9825 15.8678 20.4306 15.6392 19.8552 15.6392C19.2797 15.6392 18.7279 15.8678 18.321 16.2747C17.9141 16.6816 17.6855 17.2334 17.6855 17.8089C17.6855 18.3843 17.9141 18.9362 18.321 19.3431C18.5225 19.5445 18.7616 19.7044 19.0249 19.8134C19.2881 19.9224 19.5703 19.9786 19.8552 19.9786C20.1401 19.9786 20.4222 19.9224 20.6855 19.8134C20.9487 19.7044 21.1879 19.5445 21.3894 19.3431C21.5909 19.1416 21.7507 18.9024 21.8597 18.6392C21.9687 18.3759 22.0249 18.0938 22.0249 17.8089C22.0249 17.5239 21.9687 17.2418 21.8597 16.9786C21.7507 16.7153 21.5909 16.4761 21.3894 16.2747ZM14.0658 13.4668V22.1509H25.6446V13.4668H14.0658ZM24.1973 19.2562C23.8137 19.2562 23.4446 19.4082 23.1769 19.6832C22.9019 19.951 22.7499 20.32 22.7499 20.7036H16.9605C16.9605 20.32 16.8085 19.951 16.5335 19.6832C16.2657 19.4082 15.8967 19.2562 15.5131 19.2562V16.3615C15.8967 16.3615 16.2657 16.2095 16.5335 15.9345C16.8085 15.6668 16.9605 15.2977 16.9605 14.9142H22.7499C22.7499 15.2977 22.9019 15.6668 23.1769 15.9345C23.4446 16.2095 23.8137 16.3615 24.1973 16.3615V19.2562ZM12.6184 14.9142H11.171C10.773 14.9142 10.4474 14.5885 10.4474 14.1905C10.4474 13.7925 10.773 13.4668 11.171 13.4668H12.6184V14.9142ZM12.6184 18.5325H10.4474C10.0493 18.5325 9.72368 18.2069 9.72368 17.8089C9.72368 17.4108 10.0493 17.0852 10.4474 17.0852H12.6184V18.5325ZM12.6184 22.1509H9.72368C9.32421 22.1509 9 21.8253 9 21.4273C9 21.0292 9.32421 20.7036 9.72368 20.7036H12.6184V22.1509Z" fill="#23A323"/>
</svg>
