<svg width="23" height="24" viewBox="0 0 23 24" fill="none" xmlns="http://www.w3.org/2000/svg">
<path d="M2.8208 9.94365V8.06313C2.8208 7.56439 3.01893 7.08607 3.37159 6.73341C3.72426 6.38074 4.20257 6.18262 4.70132 6.18262H6.58184M2.8208 9.94365C4.07417 9.94365 6.58184 9.19145 6.58184 6.18262M2.8208 9.94365V13.7047M6.58184 6.18262H15.9844M2.8208 13.7047V15.5852C2.8208 16.0839 3.01893 16.5623 3.37159 16.9149C3.72426 17.2676 4.20257 17.4657 4.70132 17.4657H6.58184M2.8208 13.7047C4.07417 13.7047 6.58184 14.4569 6.58184 17.4657M19.7455 9.94365V8.06313C19.7455 7.56439 19.5473 7.08607 19.1947 6.73341C18.842 6.38074 18.3637 6.18262 17.8649 6.18262H15.9844M19.7455 9.94365C18.4921 9.94365 15.9844 9.19145 15.9844 6.18262M19.7455 9.94365V13.7047M19.7455 13.7047V15.5852C19.7455 16.0839 19.5473 16.5623 19.1947 16.9149C18.842 17.2676 18.3637 17.4657 17.8649 17.4657H15.9844M19.7455 13.7047C18.4921 13.7047 15.9844 14.4569 15.9844 17.4657M15.9844 17.4657H6.58184" stroke="#999999" stroke-width="1.88052" stroke-linecap="round" stroke-linejoin="round"/>
<path d="M11.283 13.7048C12.3216 13.7048 13.1635 12.8628 13.1635 11.8242C13.1635 10.7857 12.3216 9.94373 11.283 9.94373C10.2444 9.94373 9.40247 10.7857 9.40247 11.8242C9.40247 12.8628 10.2444 13.7048 11.283 13.7048Z" stroke="#999999" stroke-width="1.88052" stroke-linecap="round" stroke-linejoin="round"/>
</svg>
