<svg width="13" height="13" viewBox="0 0 13 13" fill="none" xmlns="http://www.w3.org/2000/svg">
<path d="M9.1425 11.8257H4.15231C3.99436 11.8257 3.85615 11.727 3.80186 11.5839C3.74756 11.4358 3.79199 11.2729 3.91045 11.1742C4.02891 11.0755 4.1375 10.9472 4.21648 10.8089C4.37442 10.5572 4.4534 10.2709 4.4534 9.97972C4.4534 9.09619 3.73276 8.37555 2.84923 8.37555C2.48397 8.37555 2.13846 8.49893 1.84724 8.73092C1.73372 8.81977 1.58564 8.83459 1.45731 8.77536C1.32897 8.71613 1.25 8.58286 1.25 8.43972V6.28274C1.25 5.0537 2.24705 4.05664 3.47609 4.05664H9.1425C10.3715 4.05664 11.3686 5.0537 11.3686 6.28274V6.99351C11.3686 7.19588 11.2008 7.3637 10.9984 7.3637H10.0013C9.82859 7.3637 9.67064 7.42786 9.55712 7.54632L9.55218 7.55126C9.41398 7.68453 9.34981 7.86714 9.36462 8.05471C9.39423 8.38048 9.70519 8.64208 10.0606 8.64208H10.9984C11.2008 8.64208 11.3686 8.8099 11.3686 9.01227V9.59964C11.3686 10.8287 10.3715 11.8257 9.1425 11.8257ZM4.91737 11.0854H9.1425C9.96186 11.0854 10.6282 10.419 10.6282 9.59964V9.38246H10.0606C9.31526 9.38246 8.68346 8.82964 8.62423 8.11887C8.58475 7.71413 8.73282 7.31434 9.02898 7.02312C9.28564 6.76152 9.63116 6.61837 10.0013 6.61837H10.6282V6.27779C10.6282 5.45844 9.96186 4.79208 9.1425 4.79208H3.47609C2.65673 4.79208 1.99038 5.45844 1.99038 6.27779V7.79806C2.2668 7.68947 2.55801 7.63023 2.85417 7.63023C4.14737 7.63023 5.19872 8.68157 5.19872 9.97478C5.19872 10.3647 5.1 10.7497 4.91737 11.0854Z" fill="#D1D5DB"/>
<path d="M1.62019 7.0899C1.41782 7.0899 1.25 6.92208 1.25 6.7197V4.46402C1.25 3.72858 1.71398 3.0622 2.40007 2.8006L6.31917 1.31983C6.71897 1.16682 7.17308 1.22114 7.52353 1.46793C7.87891 1.71473 8.08622 2.11453 8.08622 2.54395V4.41959C8.08622 4.62196 7.9184 4.78978 7.71602 4.78978C7.51365 4.78978 7.34583 4.62196 7.34583 4.41959V2.54395C7.34583 2.35639 7.25699 2.18363 7.09904 2.07504C6.94109 1.96645 6.75353 1.94177 6.57583 2.01087L2.65673 3.49164C2.25692 3.64465 1.98545 4.0346 1.98545 4.46402V6.7197C1.99038 6.92701 1.82256 7.0899 1.62019 7.0899Z" fill="#D1D5DB"/>
<path d="M10.0637 9.38128C9.3184 9.38128 8.68661 8.82846 8.62738 8.11769C8.58789 7.70801 8.73597 7.30821 9.03212 7.01699C9.28385 6.76033 9.62936 6.61719 9.99955 6.61719H11.0262C11.5149 6.632 11.89 7.01697 11.89 7.49082V8.50764C11.89 8.98149 11.5149 9.36647 11.041 9.38128H10.0637ZM11.0163 7.35757H10.0045C9.83174 7.35757 9.67379 7.42174 9.56026 7.5402C9.41712 7.6784 9.34802 7.86596 9.36776 8.05352C9.39738 8.37929 9.70834 8.64089 10.0637 8.64089H11.0312C11.0953 8.64089 11.1546 8.58168 11.1546 8.50764V7.49082C11.1546 7.41678 11.0953 7.36251 11.0163 7.35757Z" fill="#D1D5DB"/>
<path d="M7.29407 6.88882H3.83894C3.63657 6.88882 3.46875 6.721 3.46875 6.51863C3.46875 6.31626 3.63657 6.14844 3.83894 6.14844H7.29407C7.49644 6.14844 7.66426 6.31626 7.66426 6.51863C7.66426 6.721 7.49644 6.88882 7.29407 6.88882Z" fill="#D1D5DB"/>
<path d="M2.85236 12.318C2.033 12.318 1.26301 11.8837 0.848391 11.1778C0.626275 10.8224 0.507812 10.4029 0.507812 9.97346C0.507812 9.25282 0.828645 8.58646 1.3864 8.14223C1.80102 7.81152 2.32422 7.62891 2.85236 7.62891C4.14557 7.62891 5.19692 8.68025 5.19692 9.97346C5.19692 10.4029 5.07845 10.8224 4.85634 11.1828C4.73788 11.3901 4.57499 11.5776 4.38743 11.7356C3.97775 12.1107 3.42986 12.318 2.85236 12.318ZM2.85236 8.36929C2.48711 8.36929 2.1416 8.49267 1.85038 8.72466C1.47031 9.02575 1.2482 9.4848 1.2482 9.97346C1.2482 10.2647 1.32717 10.5509 1.48018 10.7977C1.7714 11.2913 2.28474 11.5776 2.85236 11.5776C3.2423 11.5776 3.61743 11.4345 3.90371 11.1778C4.03204 11.0692 4.14063 10.9409 4.21961 10.8027C4.37755 10.551 4.45653 10.2647 4.45653 9.97346C4.45653 9.08993 3.73589 8.36929 2.85236 8.36929Z" fill="#D1D5DB"/>
<path d="M3.59212 10.3341H2.11629C1.91391 10.3341 1.74609 10.1663 1.74609 9.96394C1.74609 9.76157 1.91391 9.59375 2.11629 9.59375H3.59212C3.79449 9.59375 3.96231 9.76157 3.96231 9.96394C3.96231 10.1663 3.79943 10.3341 3.59212 10.3341Z" fill="#D1D5DB"/>
<path d="M2.85457 11.0893C2.6522 11.0893 2.48438 10.9214 2.48438 10.7191V9.24324C2.48438 9.04087 2.6522 8.87305 2.85457 8.87305C3.05694 8.87305 3.22476 9.04087 3.22476 9.24324V10.7191C3.22476 10.9264 3.05694 11.0893 2.85457 11.0893Z" fill="#D1D5DB"/>
</svg>
