<svg width="634" height="245" viewBox="0 0 634 245" fill="none" xmlns="http://www.w3.org/2000/svg">
<path d="M9.625 34.545V45.27H32.615V50H4.345V14.305H32.56V19.035H9.625V29.925H28.38V34.545H9.625ZM39.3976 22.555H44.6776V50H39.3976V22.555ZM55.1276 22.005C56.6676 22.005 58.061 22.225 59.3076 22.665C60.5543 23.105 61.6176 23.765 62.4976 24.645C63.3776 25.4883 64.056 26.5517 64.5326 27.835C65.046 29.0817 65.3026 30.5117 65.3026 32.125V50H60.0776V33.28C60.0776 31.1167 59.546 29.5033 58.4826 28.44C57.456 27.34 55.8793 26.79 53.7526 26.79C52.1026 26.79 50.5993 27.175 49.2426 27.945C47.886 28.715 46.7676 29.7417 45.8876 31.025C45.0443 32.2717 44.531 33.6833 44.3476 35.26L44.2926 32.235C44.476 30.7683 44.861 29.4117 45.4476 28.165C46.071 26.9183 46.841 25.8367 47.7576 24.92C48.711 23.9667 49.811 23.2517 51.0576 22.775C52.3043 22.2617 53.661 22.005 55.1276 22.005ZM83.545 50.55C81.1983 50.55 79.0533 49.945 77.11 48.735C75.1667 47.525 73.6267 45.8567 72.49 43.73C71.3533 41.5667 70.785 39.0917 70.785 36.305C70.785 33.5183 71.3533 31.0617 72.49 28.935C73.6633 26.7717 75.2583 25.085 77.275 23.875C79.2917 22.6283 81.5467 22.005 84.04 22.005C86.79 22.005 88.9167 22.6467 90.42 23.93C91.96 25.2133 93.0233 26.9367 93.61 29.1C94.2333 31.2633 94.545 33.665 94.545 36.305C94.545 37.7717 94.3617 39.33 93.995 40.98C93.6283 42.63 93.0417 44.1883 92.235 45.655C91.4283 47.1217 90.31 48.3133 88.88 49.23C87.45 50.11 85.6717 50.55 83.545 50.55ZM85.03 45.985C86.9733 45.985 88.605 45.5633 89.925 44.72C91.2817 43.84 92.29 42.6667 92.95 41.2C93.61 39.7333 93.94 38.1017 93.94 36.305C93.94 34.3617 93.5917 32.6567 92.895 31.19C92.235 29.7233 91.2267 28.5867 89.87 27.78C88.55 26.9733 86.9367 26.57 85.03 26.57C82.17 26.57 79.9517 27.4867 78.375 29.32C76.835 31.1533 76.065 33.4817 76.065 36.305C76.065 38.2117 76.45 39.8983 77.22 41.365C77.99 42.795 79.035 43.9317 80.355 44.775C81.7117 45.5817 83.27 45.985 85.03 45.985ZM93.94 22.555H99.22V50H94.38C94.38 50 94.3433 49.67 94.27 49.01C94.1967 48.3133 94.1233 47.4883 94.05 46.535C93.9767 45.5817 93.94 44.7383 93.94 44.005V22.555ZM122.179 50.55C120.016 50.55 118.219 50.11 116.789 49.23C115.396 48.3133 114.278 47.1217 113.434 45.655C112.628 44.1883 112.041 42.63 111.674 40.98C111.308 39.33 111.124 37.7717 111.124 36.305C111.124 34.325 111.289 32.4733 111.619 30.75C111.986 29.0267 112.573 27.505 113.379 26.185C114.186 24.865 115.304 23.8383 116.734 23.105C118.164 22.3717 119.979 22.005 122.179 22.005C124.636 22.005 126.818 22.6283 128.724 23.875C130.668 25.085 132.189 26.7717 133.289 28.935C134.389 31.0617 134.939 33.5183 134.939 36.305C134.939 39.0917 134.371 41.5667 133.234 43.73C132.098 45.8567 130.558 47.525 128.614 48.735C126.708 49.945 124.563 50.55 122.179 50.55ZM120.694 45.985C122.454 45.985 123.994 45.5817 125.314 44.775C126.671 43.9317 127.716 42.795 128.449 41.365C129.219 39.8983 129.604 38.2117 129.604 36.305C129.604 33.4817 128.816 31.1533 127.239 29.32C125.699 27.4867 123.518 26.57 120.694 26.57C118.788 26.57 117.156 26.9733 115.799 27.78C114.479 28.5867 113.471 29.7233 112.774 31.19C112.078 32.6567 111.729 34.3617 111.729 36.305C111.729 38.1017 112.059 39.7333 112.719 41.2C113.416 42.6667 114.424 43.84 115.744 44.72C117.101 45.5633 118.751 45.985 120.694 45.985ZM111.729 11.555V44.005C111.729 44.8483 111.674 45.8567 111.564 47.03C111.491 48.2033 111.418 49.1933 111.344 50H106.504V11.555H111.729ZM140.924 11.555H146.204V50H140.924V11.555ZM160.073 11.225V16.89H153.528V11.225H160.073ZM154.188 22.555H159.413V50H154.188V22.555ZM166.854 22.555H172.134V50H166.854V22.555ZM182.584 22.005C184.124 22.005 185.517 22.225 186.764 22.665C188.01 23.105 189.074 23.765 189.954 24.645C190.834 25.4883 191.512 26.5517 191.989 27.835C192.502 29.0817 192.759 30.5117 192.759 32.125V50H187.534V33.28C187.534 31.1167 187.002 29.5033 185.939 28.44C184.912 27.34 183.335 26.79 181.209 26.79C179.559 26.79 178.055 27.175 176.699 27.945C175.342 28.715 174.224 29.7417 173.344 31.025C172.5 32.2717 171.987 33.6833 171.804 35.26L171.749 32.235C171.932 30.7683 172.317 29.4117 172.904 28.165C173.527 26.9183 174.297 25.8367 175.214 24.92C176.167 23.9667 177.267 23.2517 178.514 22.775C179.76 22.2617 181.117 22.005 182.584 22.005ZM210.726 45.71C208.453 45.71 206.363 45.2517 204.456 44.335C202.549 43.4183 201.028 42.08 199.891 40.32C198.791 38.56 198.241 36.4333 198.241 33.94C198.241 31.4833 198.791 29.375 199.891 27.615C200.991 25.8183 202.476 24.4433 204.346 23.49C206.253 22.5 208.379 22.005 210.726 22.005C211.423 22.005 212.083 22.06 212.706 22.17C213.329 22.2433 213.934 22.3717 214.521 22.555H226.511V27.505C224.861 27.505 223.193 27.23 221.506 26.68C219.856 26.13 218.408 25.5433 217.161 24.92L216.996 24.645C218.243 25.305 219.324 26.1117 220.241 27.065C221.158 27.9817 221.854 29.0267 222.331 30.2C222.844 31.3367 223.101 32.62 223.101 34.05C223.101 36.47 222.551 38.56 221.451 40.32C220.388 42.08 218.903 43.4183 216.996 44.335C215.126 45.2517 213.036 45.71 210.726 45.71ZM219.141 61.11V59.845C219.141 57.975 218.628 56.6367 217.601 55.83C216.574 55.0233 215.071 54.62 213.091 54.62H206.656C205.299 54.62 204.144 54.51 203.191 54.29C202.238 54.07 201.449 53.74 200.826 53.3C200.203 52.8967 199.744 52.3833 199.451 51.76C199.158 51.1733 199.011 50.5133 199.011 49.78C199.011 48.35 199.451 47.2683 200.331 46.535C201.211 45.8017 202.329 45.3433 203.686 45.16C205.043 44.94 206.418 44.9217 207.811 45.105L210.726 45.71C208.636 45.82 207.041 46.0217 205.941 46.315C204.841 46.6083 204.291 47.2317 204.291 48.185C204.291 48.735 204.511 49.175 204.951 49.505C205.391 49.835 206.014 50 206.821 50H213.531C215.621 50 217.473 50.2567 219.086 50.77C220.736 51.32 222.019 52.2183 222.936 53.465C223.889 54.7483 224.366 56.49 224.366 58.69V61.11H219.141ZM210.726 41.255C212.046 41.255 213.238 40.98 214.301 40.43C215.401 39.8433 216.281 39.0183 216.941 37.955C217.601 36.855 217.931 35.535 217.931 33.995C217.931 32.4183 217.601 31.08 216.941 29.98C216.318 28.8433 215.456 28 214.356 27.45C213.256 26.8633 212.046 26.57 210.726 26.57C209.406 26.57 208.178 26.8633 207.041 27.45C205.941 28 205.061 28.825 204.401 29.925C203.741 31.025 203.411 32.3817 203.411 33.995C203.411 35.535 203.741 36.855 204.401 37.955C205.061 39.0183 205.941 39.8433 207.041 40.43C208.141 40.98 209.369 41.255 210.726 41.255ZM242.397 41.09H247.237C247.42 42.5567 248.08 43.7667 249.217 44.72C250.353 45.6367 251.948 46.095 254.002 46.095C255.322 46.095 256.348 45.9483 257.082 45.655C257.815 45.325 258.328 44.885 258.622 44.335C258.952 43.785 259.117 43.18 259.117 42.52C259.117 41.6767 258.897 41.035 258.457 40.595C258.017 40.1183 257.393 39.7333 256.587 39.44C255.78 39.11 254.827 38.7983 253.727 38.505C252.517 38.175 251.307 37.79 250.097 37.35C248.887 36.91 247.768 36.3783 246.742 35.755C245.752 35.1317 244.945 34.3617 244.322 33.445C243.735 32.4917 243.442 31.3367 243.442 29.98C243.442 28.8433 243.68 27.78 244.157 26.79C244.67 25.8 245.385 24.9567 246.302 24.26C247.255 23.5267 248.355 22.9767 249.602 22.61C250.848 22.2067 252.223 22.005 253.727 22.005C255.817 22.005 257.577 22.39 259.007 23.16C260.437 23.8933 261.518 24.9383 262.252 26.295C263.022 27.6517 263.425 29.21 263.462 30.97H258.842C258.585 29.43 258.053 28.3117 257.247 27.615C256.44 26.8817 255.23 26.515 253.617 26.515C252.04 26.515 250.83 26.8267 249.987 27.45C249.143 28.0733 248.722 28.9167 248.722 29.98C248.722 30.7867 249.015 31.4467 249.602 31.96C250.188 32.4367 250.977 32.8583 251.967 33.225C252.957 33.5917 254.075 33.9767 255.322 34.38C256.495 34.7833 257.613 35.205 258.677 35.645C259.777 36.0483 260.748 36.5433 261.592 37.13C262.472 37.68 263.15 38.4133 263.627 39.33C264.14 40.21 264.397 41.31 264.397 42.63C264.397 44.2433 263.993 45.655 263.187 46.865C262.38 48.0383 261.207 48.955 259.667 49.615C258.163 50.275 256.33 50.605 254.167 50.605C252.187 50.605 250.5 50.3667 249.107 49.89C247.75 49.4133 246.595 48.79 245.642 48.02C244.725 47.25 244.01 46.4433 243.497 45.6C243.02 44.72 242.69 43.8767 242.507 43.07C242.36 42.2633 242.323 41.6033 242.397 41.09ZM295.83 50H290.605V22.555H295.83V50ZM290.88 37.075L290.935 38.725C290.898 39.2017 290.77 39.9167 290.55 40.87C290.367 41.7867 290.037 42.795 289.56 43.895C289.12 44.995 288.497 46.0583 287.69 47.085C286.92 48.1117 285.93 48.955 284.72 49.615C283.51 50.275 282.043 50.605 280.32 50.605C279.147 50.605 277.937 50.44 276.69 50.11C275.48 49.78 274.362 49.23 273.335 48.46C272.308 47.69 271.483 46.645 270.86 45.325C270.237 43.9683 269.925 42.2817 269.925 40.265V22.555H275.205V39.165C275.205 40.8517 275.462 42.1717 275.975 43.125C276.525 44.0783 277.295 44.7567 278.285 45.16C279.275 45.5633 280.393 45.765 281.64 45.765C283.547 45.765 285.142 45.3067 286.425 44.39C287.745 43.4367 288.772 42.3 289.505 40.98C290.238 39.6233 290.697 38.3217 290.88 37.075ZM329.637 39.55C329.417 41.8233 328.684 43.8033 327.437 45.49C326.227 47.14 324.632 48.405 322.652 49.285C320.672 50.165 318.472 50.605 316.052 50.605C313.376 50.605 310.919 50.055 308.682 48.955C306.446 47.8183 304.649 46.1867 303.292 44.06C301.972 41.8967 301.312 39.33 301.312 36.36C301.312 33.3533 301.972 30.7867 303.292 28.66C304.649 26.4967 306.446 24.8467 308.682 23.71C310.919 22.5733 313.376 22.005 316.052 22.005C318.472 22.005 320.654 22.445 322.597 23.325C324.541 24.205 326.136 25.47 327.382 27.12C328.629 28.7333 329.381 30.6767 329.637 32.95H324.852C324.229 30.97 323.111 29.4117 321.497 28.275C319.921 27.1017 318.106 26.515 316.052 26.515C314.366 26.515 312.789 26.9 311.322 27.67C309.892 28.44 308.737 29.5583 307.857 31.025C307.014 32.455 306.592 34.2333 306.592 36.36C306.592 38.4133 307.014 40.1733 307.857 41.64C308.737 43.07 309.892 44.17 311.322 44.94C312.752 45.6733 314.329 46.04 316.052 46.04C318.399 46.04 320.306 45.4717 321.772 44.335C323.239 43.1983 324.284 41.6033 324.907 39.55H329.637ZM362.025 39.55C361.805 41.8233 361.072 43.8033 359.825 45.49C358.615 47.14 357.02 48.405 355.04 49.285C353.06 50.165 350.86 50.605 348.44 50.605C345.763 50.605 343.307 50.055 341.07 48.955C338.833 47.8183 337.037 46.1867 335.68 44.06C334.36 41.8967 333.7 39.33 333.7 36.36C333.7 33.3533 334.36 30.7867 335.68 28.66C337.037 26.4967 338.833 24.8467 341.07 23.71C343.307 22.5733 345.763 22.005 348.44 22.005C350.86 22.005 353.042 22.445 354.985 23.325C356.928 24.205 358.523 25.47 359.77 27.12C361.017 28.7333 361.768 30.6767 362.025 32.95H357.24C356.617 30.97 355.498 29.4117 353.885 28.275C352.308 27.1017 350.493 26.515 348.44 26.515C346.753 26.515 345.177 26.9 343.71 27.67C342.28 28.44 341.125 29.5583 340.245 31.025C339.402 32.455 338.98 34.2333 338.98 36.36C338.98 38.4133 339.402 40.1733 340.245 41.64C341.125 43.07 342.28 44.17 343.71 44.94C345.14 45.6733 346.717 46.04 348.44 46.04C350.787 46.04 352.693 45.4717 354.16 44.335C355.627 43.1983 356.672 41.6033 357.295 39.55H362.025ZM388.693 41.09H393.698C393.404 42.8867 392.708 44.5 391.608 45.93C390.508 47.36 389.059 48.4967 387.263 49.34C385.466 50.1833 383.358 50.605 380.938 50.605C378.078 50.605 375.529 50 373.293 48.79C371.056 47.58 369.296 45.9117 368.013 43.785C366.729 41.6583 366.088 39.1833 366.088 36.36C366.088 33.5 366.711 31.0067 367.958 28.88C369.204 26.7167 370.928 25.03 373.128 23.82C375.328 22.61 377.839 22.005 380.663 22.005C383.633 22.005 386.126 22.5917 388.143 23.765C390.159 24.9383 391.644 26.68 392.598 28.99C393.588 31.2633 393.991 34.105 393.808 37.515H371.313C371.496 39.165 371.991 40.6317 372.798 41.915C373.641 43.1983 374.741 44.2067 376.098 44.94C377.491 45.6733 379.086 46.04 380.883 46.04C382.899 46.04 384.586 45.5817 385.943 44.665C387.299 43.7483 388.216 42.5567 388.693 41.09ZM380.718 26.515C378.334 26.515 376.354 27.1567 374.778 28.44C373.201 29.6867 372.156 31.355 371.643 33.445H388.528C388.381 31.2083 387.574 29.5033 386.108 28.33C384.641 27.12 382.844 26.515 380.718 26.515ZM398.158 41.09H402.998C403.182 42.5567 403.842 43.7667 404.978 44.72C406.115 45.6367 407.71 46.095 409.763 46.095C411.083 46.095 412.11 45.9483 412.843 45.655C413.577 45.325 414.09 44.885 414.383 44.335C414.713 43.785 414.878 43.18 414.878 42.52C414.878 41.6767 414.658 41.035 414.218 40.595C413.778 40.1183 413.155 39.7333 412.348 39.44C411.542 39.11 410.588 38.7983 409.488 38.505C408.278 38.175 407.068 37.79 405.858 37.35C404.648 36.91 403.53 36.3783 402.503 35.755C401.513 35.1317 400.707 34.3617 400.083 33.445C399.497 32.4917 399.203 31.3367 399.203 29.98C399.203 28.8433 399.442 27.78 399.918 26.79C400.432 25.8 401.147 24.9567 402.063 24.26C403.017 23.5267 404.117 22.9767 405.363 22.61C406.61 22.2067 407.985 22.005 409.488 22.005C411.578 22.005 413.338 22.39 414.768 23.16C416.198 23.8933 417.28 24.9383 418.013 26.295C418.783 27.6517 419.187 29.21 419.223 30.97H414.603C414.347 29.43 413.815 28.3117 413.008 27.615C412.202 26.8817 410.992 26.515 409.378 26.515C407.802 26.515 406.592 26.8267 405.748 27.45C404.905 28.0733 404.483 28.9167 404.483 29.98C404.483 30.7867 404.777 31.4467 405.363 31.96C405.95 32.4367 406.738 32.8583 407.728 33.225C408.718 33.5917 409.837 33.9767 411.083 34.38C412.257 34.7833 413.375 35.205 414.438 35.645C415.538 36.0483 416.51 36.5433 417.353 37.13C418.233 37.68 418.912 38.4133 419.388 39.33C419.902 40.21 420.158 41.31 420.158 42.63C420.158 44.2433 419.755 45.655 418.948 46.865C418.142 48.0383 416.968 48.955 415.428 49.615C413.925 50.275 412.092 50.605 409.928 50.605C407.948 50.605 406.262 50.3667 404.868 49.89C403.512 49.4133 402.357 48.79 401.403 48.02C400.487 47.25 399.772 46.4433 399.258 45.6C398.782 44.72 398.452 43.8767 398.268 43.07C398.122 42.2633 398.085 41.6033 398.158 41.09ZM424.477 41.09H429.317C429.5 42.5567 430.16 43.7667 431.297 44.72C432.433 45.6367 434.028 46.095 436.082 46.095C437.402 46.095 438.428 45.9483 439.162 45.655C439.895 45.325 440.408 44.885 440.702 44.335C441.032 43.785 441.197 43.18 441.197 42.52C441.197 41.6767 440.977 41.035 440.537 40.595C440.097 40.1183 439.473 39.7333 438.667 39.44C437.86 39.11 436.907 38.7983 435.807 38.505C434.597 38.175 433.387 37.79 432.177 37.35C430.967 36.91 429.848 36.3783 428.822 35.755C427.832 35.1317 427.025 34.3617 426.402 33.445C425.815 32.4917 425.522 31.3367 425.522 29.98C425.522 28.8433 425.76 27.78 426.237 26.79C426.75 25.8 427.465 24.9567 428.382 24.26C429.335 23.5267 430.435 22.9767 431.682 22.61C432.928 22.2067 434.303 22.005 435.807 22.005C437.897 22.005 439.657 22.39 441.087 23.16C442.517 23.8933 443.598 24.9383 444.332 26.295C445.102 27.6517 445.505 29.21 445.542 30.97H440.922C440.665 29.43 440.133 28.3117 439.327 27.615C438.52 26.8817 437.31 26.515 435.697 26.515C434.12 26.515 432.91 26.8267 432.067 27.45C431.223 28.0733 430.802 28.9167 430.802 29.98C430.802 30.7867 431.095 31.4467 431.682 31.96C432.268 32.4367 433.057 32.8583 434.047 33.225C435.037 33.5917 436.155 33.9767 437.402 34.38C438.575 34.7833 439.693 35.205 440.757 35.645C441.857 36.0483 442.828 36.5433 443.672 37.13C444.552 37.68 445.23 38.4133 445.707 39.33C446.22 40.21 446.477 41.31 446.477 42.63C446.477 44.2433 446.073 45.655 445.267 46.865C444.46 48.0383 443.287 48.955 441.747 49.615C440.243 50.275 438.41 50.605 436.247 50.605C434.267 50.605 432.58 50.3667 431.187 49.89C429.83 49.4133 428.675 48.79 427.722 48.02C426.805 47.25 426.09 46.4433 425.577 45.6C425.1 44.72 424.77 43.8767 424.587 43.07C424.44 42.2633 424.403 41.6033 424.477 41.09Z" fill="white"/>
<path d="M1.54 102.555H19.305V107.12H1.54V102.555ZM7.81 95.295H13.035V130H7.81V95.295ZM45.5898 130V113.445C45.5898 111.978 45.3515 110.768 44.8748 109.815C44.3982 108.862 43.6832 108.147 42.7298 107.67C41.7765 107.157 40.5665 106.9 39.0998 106.9C37.4865 106.9 36.0015 107.285 34.6448 108.055C33.3248 108.788 32.2432 109.797 31.3998 111.08C30.5565 112.327 30.0432 113.738 29.8598 115.315L29.8048 112.18C29.9882 110.75 30.3732 109.412 30.9598 108.165C31.5832 106.918 32.3532 105.837 33.2698 104.92C34.2232 104.003 35.3232 103.288 36.5698 102.775C37.8165 102.262 39.1732 102.005 40.6398 102.005C42.1798 102.005 43.5732 102.225 44.8198 102.665C46.0665 103.068 47.1298 103.71 48.0098 104.59C48.9265 105.433 49.6232 106.478 50.0998 107.725C50.5765 108.935 50.8148 110.328 50.8148 111.905V130H45.5898ZM24.9648 130V91.555H30.1898V130H24.9648ZM57.7668 102.555H63.0468V130H57.7668V102.555ZM72.3418 107.23C70.4351 107.23 68.8034 107.67 67.4468 108.55C66.1268 109.43 65.0634 110.512 64.2568 111.795C63.4868 113.078 62.9734 114.307 62.7168 115.48L62.6618 112.345C62.6984 111.978 62.7901 111.41 62.9368 110.64C63.1201 109.833 63.4318 108.935 63.8718 107.945C64.3118 106.955 64.8984 106.02 65.6318 105.14C66.3651 104.223 67.2818 103.472 68.3818 102.885C69.4818 102.298 70.8018 102.005 72.3418 102.005V107.23ZM90.3577 130.605C87.681 130.605 85.2244 130.037 82.9877 128.9C80.751 127.763 78.9727 126.132 77.6527 124.005C76.3327 121.878 75.6727 119.33 75.6727 116.36C75.6727 113.353 76.3327 110.787 77.6527 108.66C78.9727 106.497 80.751 104.847 82.9877 103.71C85.2244 102.573 87.681 102.005 90.3577 102.005C93.0344 102.005 95.4727 102.573 97.6727 103.71C99.8727 104.847 101.633 106.497 102.953 108.66C104.273 110.787 104.933 113.353 104.933 116.36C104.933 119.33 104.273 121.878 102.953 124.005C101.633 126.132 99.8727 127.763 97.6727 128.9C95.4727 130.037 93.0344 130.605 90.3577 130.605ZM90.3577 126.04C92.0077 126.04 93.5294 125.673 94.9227 124.94C96.3527 124.17 97.4894 123.07 98.3327 121.64C99.2127 120.173 99.6527 118.413 99.6527 116.36C99.6527 114.27 99.2127 112.492 98.3327 111.025C97.4894 109.558 96.3527 108.44 94.9227 107.67C93.5294 106.9 92.0077 106.515 90.3577 106.515C88.7077 106.515 87.1677 106.9 85.7377 107.67C84.3077 108.403 83.1527 109.503 82.2727 110.97C81.3927 112.437 80.9527 114.233 80.9527 116.36C80.9527 118.413 81.3744 120.173 82.2177 121.64C83.0977 123.07 84.2527 124.17 85.6827 124.94C87.1127 125.673 88.671 126.04 90.3577 126.04ZM136.362 130H131.137V102.555H136.362V130ZM131.412 117.075L131.467 118.725C131.431 119.202 131.302 119.917 131.082 120.87C130.899 121.787 130.569 122.795 130.092 123.895C129.652 124.995 129.029 126.058 128.222 127.085C127.452 128.112 126.462 128.955 125.252 129.615C124.042 130.275 122.576 130.605 120.852 130.605C119.679 130.605 118.469 130.44 117.222 130.11C116.012 129.78 114.894 129.23 113.867 128.46C112.841 127.69 112.016 126.645 111.392 125.325C110.769 123.968 110.457 122.282 110.457 120.265V102.555H115.737V119.165C115.737 120.852 115.994 122.172 116.507 123.125C117.057 124.078 117.827 124.757 118.817 125.16C119.807 125.563 120.926 125.765 122.172 125.765C124.079 125.765 125.674 125.307 126.957 124.39C128.277 123.437 129.304 122.3 130.037 120.98C130.771 119.623 131.229 118.322 131.412 117.075ZM154.33 125.71C152.056 125.71 149.966 125.252 148.06 124.335C146.153 123.418 144.631 122.08 143.495 120.32C142.395 118.56 141.845 116.433 141.845 113.94C141.845 111.483 142.395 109.375 143.495 107.615C144.595 105.818 146.08 104.443 147.95 103.49C149.856 102.5 151.983 102.005 154.33 102.005C155.026 102.005 155.686 102.06 156.31 102.17C156.933 102.243 157.538 102.372 158.125 102.555H170.115V107.505C168.465 107.505 166.796 107.23 165.11 106.68C163.46 106.13 162.011 105.543 160.765 104.92L160.6 104.645C161.846 105.305 162.928 106.112 163.845 107.065C164.761 107.982 165.458 109.027 165.935 110.2C166.448 111.337 166.705 112.62 166.705 114.05C166.705 116.47 166.155 118.56 165.055 120.32C163.991 122.08 162.506 123.418 160.6 124.335C158.73 125.252 156.64 125.71 154.33 125.71ZM162.745 141.11V139.845C162.745 137.975 162.231 136.637 161.205 135.83C160.178 135.023 158.675 134.62 156.695 134.62H150.26C148.903 134.62 147.748 134.51 146.795 134.29C145.841 134.07 145.053 133.74 144.43 133.3C143.806 132.897 143.348 132.383 143.055 131.76C142.761 131.173 142.615 130.513 142.615 129.78C142.615 128.35 143.055 127.268 143.935 126.535C144.815 125.802 145.933 125.343 147.29 125.16C148.646 124.94 150.021 124.922 151.415 125.105L154.33 125.71C152.24 125.82 150.645 126.022 149.545 126.315C148.445 126.608 147.895 127.232 147.895 128.185C147.895 128.735 148.115 129.175 148.555 129.505C148.995 129.835 149.618 130 150.425 130H157.135C159.225 130 161.076 130.257 162.69 130.77C164.34 131.32 165.623 132.218 166.54 133.465C167.493 134.748 167.97 136.49 167.97 138.69V141.11H162.745ZM154.33 121.255C155.65 121.255 156.841 120.98 157.905 120.43C159.005 119.843 159.885 119.018 160.545 117.955C161.205 116.855 161.535 115.535 161.535 113.995C161.535 112.418 161.205 111.08 160.545 109.98C159.921 108.843 159.06 108 157.96 107.45C156.86 106.863 155.65 106.57 154.33 106.57C153.01 106.57 151.781 106.863 150.645 107.45C149.545 108 148.665 108.825 148.005 109.925C147.345 111.025 147.015 112.382 147.015 113.995C147.015 115.535 147.345 116.855 148.005 117.955C148.665 119.018 149.545 119.843 150.645 120.43C151.745 120.98 152.973 121.255 154.33 121.255ZM196.41 130V113.445C196.41 111.978 196.172 110.768 195.695 109.815C195.218 108.862 194.503 108.147 193.55 107.67C192.597 107.157 191.387 106.9 189.92 106.9C188.307 106.9 186.822 107.285 185.465 108.055C184.145 108.788 183.063 109.797 182.22 111.08C181.377 112.327 180.863 113.738 180.68 115.315L180.625 112.18C180.808 110.75 181.193 109.412 181.78 108.165C182.403 106.918 183.173 105.837 184.09 104.92C185.043 104.003 186.143 103.288 187.39 102.775C188.637 102.262 189.993 102.005 191.46 102.005C193 102.005 194.393 102.225 195.64 102.665C196.887 103.068 197.95 103.71 198.83 104.59C199.747 105.433 200.443 106.478 200.92 107.725C201.397 108.935 201.635 110.328 201.635 111.905V130H196.41ZM175.785 130V91.555H181.01V130H175.785ZM241.847 121.09H246.852C246.559 122.887 245.862 124.5 244.762 125.93C243.662 127.36 242.214 128.497 240.417 129.34C238.62 130.183 236.512 130.605 234.092 130.605C231.232 130.605 228.684 130 226.447 128.79C224.21 127.58 222.45 125.912 221.167 123.785C219.884 121.658 219.242 119.183 219.242 116.36C219.242 113.5 219.865 111.007 221.112 108.88C222.359 106.717 224.082 105.03 226.282 103.82C228.482 102.61 230.994 102.005 233.817 102.005C236.787 102.005 239.28 102.592 241.297 103.765C243.314 104.938 244.799 106.68 245.752 108.99C246.742 111.263 247.145 114.105 246.962 117.515H224.467C224.65 119.165 225.145 120.632 225.952 121.915C226.795 123.198 227.895 124.207 229.252 124.94C230.645 125.673 232.24 126.04 234.037 126.04C236.054 126.04 237.74 125.582 239.097 124.665C240.454 123.748 241.37 122.557 241.847 121.09ZM233.872 106.515C231.489 106.515 229.509 107.157 227.932 108.44C226.355 109.687 225.31 111.355 224.797 113.445H241.682C241.535 111.208 240.729 109.503 239.262 108.33C237.795 107.12 235.999 106.515 233.872 106.515ZM252.523 102.555H257.803V130H252.523V102.555ZM268.253 102.005C269.793 102.005 271.186 102.225 272.433 102.665C273.679 103.105 274.743 103.765 275.623 104.645C276.503 105.488 277.181 106.552 277.658 107.835C278.171 109.082 278.428 110.512 278.428 112.125V130H273.203V113.28C273.203 111.117 272.671 109.503 271.608 108.44C270.581 107.34 269.004 106.79 266.878 106.79C265.228 106.79 263.724 107.175 262.368 107.945C261.011 108.715 259.893 109.742 259.013 111.025C258.169 112.272 257.656 113.683 257.473 115.26L257.418 112.235C257.601 110.768 257.986 109.412 258.573 108.165C259.196 106.918 259.966 105.837 260.883 104.92C261.836 103.967 262.936 103.252 264.183 102.775C265.429 102.262 266.786 102.005 268.253 102.005ZM288.383 102.005C289.923 102.005 291.316 102.225 292.563 102.665C293.809 103.105 294.873 103.765 295.753 104.645C296.633 105.488 297.311 106.552 297.788 107.835C298.301 109.082 298.558 110.512 298.558 112.125V130H293.333V113.28C293.333 111.117 292.801 109.503 291.738 108.44C290.711 107.34 289.134 106.79 287.008 106.79C285.358 106.79 283.854 107.175 282.498 107.945C281.141 108.715 280.023 109.742 279.143 111.025C278.299 112.272 277.786 113.683 277.603 115.26L277.548 112.18C277.731 110.713 278.116 109.375 278.703 108.165C279.326 106.918 280.114 105.837 281.068 104.92C282.021 103.967 283.121 103.252 284.368 102.775C285.614 102.262 286.953 102.005 288.383 102.005ZM321.157 130.605C319.03 130.605 317.252 130.147 315.822 129.23C314.392 128.313 313.273 127.122 312.467 125.655C311.66 124.188 311.073 122.63 310.707 120.98C310.34 119.33 310.157 117.772 310.157 116.305C310.157 114.325 310.322 112.473 310.652 110.75C311.018 109.027 311.605 107.505 312.412 106.185C313.218 104.865 314.337 103.838 315.767 103.105C317.197 102.372 318.993 102.005 321.157 102.005C323.54 102.005 325.685 102.628 327.592 103.875C329.498 105.085 331.02 106.772 332.157 108.935C333.33 111.098 333.917 113.555 333.917 116.305C333.917 119.128 333.33 121.622 332.157 123.785C330.983 125.912 329.425 127.58 327.482 128.79C325.575 130 323.467 130.605 321.157 130.605ZM319.672 125.985C321.432 125.985 322.99 125.582 324.347 124.775C325.703 123.932 326.748 122.795 327.482 121.365C328.252 119.898 328.637 118.212 328.637 116.305C328.637 113.482 327.848 111.153 326.272 109.32C324.732 107.487 322.532 106.57 319.672 106.57C317.948 106.57 316.408 106.973 315.052 107.78C313.732 108.587 312.687 109.723 311.917 111.19C311.147 112.657 310.762 114.362 310.762 116.305C310.762 118.138 311.092 119.788 311.752 121.255C312.448 122.685 313.457 123.84 314.777 124.72C316.097 125.563 317.728 125.985 319.672 125.985ZM305.482 102.555H310.542L310.762 108.77V141H305.482V102.555ZM352.682 130.605C350.005 130.605 347.549 130.037 345.312 128.9C343.075 127.763 341.297 126.132 339.977 124.005C338.657 121.878 337.997 119.33 337.997 116.36C337.997 113.353 338.657 110.787 339.977 108.66C341.297 106.497 343.075 104.847 345.312 103.71C347.549 102.573 350.005 102.005 352.682 102.005C355.359 102.005 357.797 102.573 359.997 103.71C362.197 104.847 363.957 106.497 365.277 108.66C366.597 110.787 367.257 113.353 367.257 116.36C367.257 119.33 366.597 121.878 365.277 124.005C363.957 126.132 362.197 127.763 359.997 128.9C357.797 130.037 355.359 130.605 352.682 130.605ZM352.682 126.04C354.332 126.04 355.854 125.673 357.247 124.94C358.677 124.17 359.814 123.07 360.657 121.64C361.537 120.173 361.977 118.413 361.977 116.36C361.977 114.27 361.537 112.492 360.657 111.025C359.814 109.558 358.677 108.44 357.247 107.67C355.854 106.9 354.332 106.515 352.682 106.515C351.032 106.515 349.492 106.9 348.062 107.67C346.632 108.403 345.477 109.503 344.597 110.97C343.717 112.437 343.277 114.233 343.277 116.36C343.277 118.413 343.699 120.173 344.542 121.64C345.422 123.07 346.577 124.17 348.007 124.94C349.437 125.673 350.995 126.04 352.682 126.04ZM401.953 125.71L400.523 125.655L407.728 102.555H413.448L403.933 130H398.983L390.678 106.515H392.163L383.748 130H378.798L369.393 102.555H375.168L382.153 125.655L380.723 125.71L388.313 102.555H394.528L401.953 125.71ZM438.214 121.09H443.219C442.926 122.887 442.229 124.5 441.129 125.93C440.029 127.36 438.581 128.497 436.784 129.34C434.988 130.183 432.879 130.605 430.459 130.605C427.599 130.605 425.051 130 422.814 128.79C420.578 127.58 418.818 125.912 417.534 123.785C416.251 121.658 415.609 119.183 415.609 116.36C415.609 113.5 416.233 111.007 417.479 108.88C418.726 106.717 420.449 105.03 422.649 103.82C424.849 102.61 427.361 102.005 430.184 102.005C433.154 102.005 435.648 102.592 437.664 103.765C439.681 104.938 441.166 106.68 442.119 108.99C443.109 111.263 443.513 114.105 443.329 117.515H420.834C421.018 119.165 421.513 120.632 422.319 121.915C423.163 123.198 424.263 124.207 425.619 124.94C427.013 125.673 428.608 126.04 430.404 126.04C432.421 126.04 434.108 125.582 435.464 124.665C436.821 123.748 437.738 122.557 438.214 121.09ZM430.239 106.515C427.856 106.515 425.876 107.157 424.299 108.44C422.723 109.687 421.678 111.355 421.164 113.445H438.049C437.903 111.208 437.096 109.503 435.629 108.33C434.163 107.12 432.366 106.515 430.239 106.515ZM448.89 102.555H454.17V130H448.89V102.555ZM463.465 107.23C461.558 107.23 459.926 107.67 458.57 108.55C457.25 109.43 456.186 110.512 455.38 111.795C454.61 113.078 454.096 114.307 453.84 115.48L453.785 112.345C453.821 111.978 453.913 111.41 454.06 110.64C454.243 109.833 454.555 108.935 454.995 107.945C455.435 106.955 456.021 106.02 456.755 105.14C457.488 104.223 458.405 103.472 459.505 102.885C460.605 102.298 461.925 102.005 463.465 102.005V107.23ZM489.401 121.09H494.406C494.112 122.887 493.416 124.5 492.316 125.93C491.216 127.36 489.767 128.497 487.971 129.34C486.174 130.183 484.066 130.605 481.646 130.605C478.786 130.605 476.237 130 474.001 128.79C471.764 127.58 470.004 125.912 468.721 123.785C467.437 121.658 466.796 119.183 466.796 116.36C466.796 113.5 467.419 111.007 468.666 108.88C469.912 106.717 471.636 105.03 473.836 103.82C476.036 102.61 478.547 102.005 481.371 102.005C484.341 102.005 486.834 102.592 488.851 103.765C490.867 104.938 492.352 106.68 493.306 108.99C494.296 111.263 494.699 114.105 494.516 117.515H472.021C472.204 119.165 472.699 120.632 473.506 121.915C474.349 123.198 475.449 124.207 476.806 124.94C478.199 125.673 479.794 126.04 481.591 126.04C483.607 126.04 485.294 125.582 486.651 124.665C488.007 123.748 488.924 122.557 489.401 121.09ZM481.426 106.515C479.042 106.515 477.062 107.157 475.486 108.44C473.909 109.687 472.864 111.355 472.351 113.445H489.236C489.089 111.208 488.282 109.503 486.816 108.33C485.349 107.12 483.552 106.515 481.426 106.515ZM511.406 130.55C509.023 130.55 506.86 129.945 504.916 128.735C502.973 127.525 501.433 125.857 500.296 123.73C499.196 121.567 498.646 119.092 498.646 116.305C498.646 113.518 499.196 111.062 500.296 108.935C501.396 106.772 502.9 105.085 504.806 103.875C506.713 102.628 508.913 102.005 511.406 102.005C513.57 102.005 515.366 102.372 516.796 103.105C518.226 103.838 519.345 104.865 520.151 106.185C520.958 107.505 521.526 109.027 521.856 110.75C522.223 112.473 522.406 114.325 522.406 116.305C522.406 117.772 522.223 119.33 521.856 120.98C521.49 122.63 520.903 124.188 520.096 125.655C519.29 127.122 518.171 128.313 516.741 129.23C515.311 130.11 513.533 130.55 511.406 130.55ZM512.891 125.985C514.835 125.985 516.466 125.563 517.786 124.72C519.143 123.84 520.151 122.667 520.811 121.2C521.471 119.733 521.801 118.102 521.801 116.305C521.801 114.362 521.453 112.657 520.756 111.19C520.096 109.723 519.088 108.587 517.731 107.78C516.411 106.973 514.798 106.57 512.891 106.57C510.031 106.57 507.813 107.487 506.236 109.32C504.696 111.153 503.926 113.482 503.926 116.305C503.926 118.212 504.311 119.898 505.081 121.365C505.851 122.795 506.896 123.932 508.216 124.775C509.573 125.582 511.131 125.985 512.891 125.985ZM521.801 91.555H527.081V130H522.241C522.131 129.193 522.021 128.203 521.911 127.03C521.838 125.857 521.801 124.848 521.801 124.005V91.555Z" fill="white"/>
<rect y="160" width="634" height="85" rx="4" fill="url(#paint0_linear_3995_41207)"/>
<path d="M47.075 220.55C44.9117 220.55 43.115 220.11 41.685 219.23C40.2917 218.313 39.1733 217.122 38.33 215.655C37.5233 214.188 36.9367 212.63 36.57 210.98C36.2033 209.33 36.02 207.772 36.02 206.305C36.02 204.325 36.185 202.473 36.515 200.75C36.8817 199.027 37.4683 197.505 38.275 196.185C39.0817 194.865 40.2 193.838 41.63 193.105C43.06 192.372 44.875 192.005 47.075 192.005C49.5317 192.005 51.7133 192.628 53.62 193.875C55.5633 195.085 57.085 196.772 58.185 198.935C59.285 201.062 59.835 203.518 59.835 206.305C59.835 209.092 59.2667 211.567 58.13 213.73C56.9933 215.857 55.4533 217.525 53.51 218.735C51.6033 219.945 49.4583 220.55 47.075 220.55ZM45.59 215.985C47.35 215.985 48.89 215.582 50.21 214.775C51.5667 213.932 52.6117 212.795 53.345 211.365C54.115 209.898 54.5 208.212 54.5 206.305C54.5 203.482 53.7117 201.153 52.135 199.32C50.595 197.487 48.4133 196.57 45.59 196.57C43.6833 196.57 42.0517 196.973 40.695 197.78C39.375 198.587 38.3667 199.723 37.67 201.19C36.9733 202.657 36.625 204.362 36.625 206.305C36.625 208.102 36.955 209.733 37.615 211.2C38.3117 212.667 39.32 213.84 40.64 214.72C41.9967 215.563 43.6467 215.985 45.59 215.985ZM36.625 181.555V214.005C36.625 214.848 36.57 215.857 36.46 217.03C36.3867 218.203 36.3133 219.193 36.24 220H31.4V181.555H36.625ZM91.1747 220H85.9497V192.555H91.1747V220ZM86.2247 207.075L86.2797 208.725C86.243 209.202 86.1147 209.917 85.8947 210.87C85.7114 211.787 85.3814 212.795 84.9047 213.895C84.4647 214.995 83.8414 216.058 83.0347 217.085C82.2647 218.112 81.2747 218.955 80.0647 219.615C78.8547 220.275 77.388 220.605 75.6647 220.605C74.4914 220.605 73.2814 220.44 72.0347 220.11C70.8247 219.78 69.7064 219.23 68.6797 218.46C67.653 217.69 66.828 216.645 66.2047 215.325C65.5814 213.968 65.2697 212.282 65.2697 210.265V192.555H70.5497V209.165C70.5497 210.852 70.8064 212.172 71.3197 213.125C71.8697 214.078 72.6397 214.757 73.6297 215.16C74.6197 215.563 75.738 215.765 76.9847 215.765C78.8914 215.765 80.4864 215.307 81.7697 214.39C83.0897 213.437 84.1164 212.3 84.8497 210.98C85.583 209.623 86.0414 208.322 86.2247 207.075ZM96.8771 211.09H101.717C101.9 212.557 102.56 213.767 103.697 214.72C104.834 215.637 106.429 216.095 108.482 216.095C109.802 216.095 110.829 215.948 111.562 215.655C112.295 215.325 112.809 214.885 113.102 214.335C113.432 213.785 113.597 213.18 113.597 212.52C113.597 211.677 113.377 211.035 112.937 210.595C112.497 210.118 111.874 209.733 111.067 209.44C110.26 209.11 109.307 208.798 108.207 208.505C106.997 208.175 105.787 207.79 104.577 207.35C103.367 206.91 102.249 206.378 101.222 205.755C100.232 205.132 99.4254 204.362 98.8021 203.445C98.2154 202.492 97.9221 201.337 97.9221 199.98C97.9221 198.843 98.1604 197.78 98.6371 196.79C99.1504 195.8 99.8654 194.957 100.782 194.26C101.735 193.527 102.835 192.977 104.082 192.61C105.329 192.207 106.704 192.005 108.207 192.005C110.297 192.005 112.057 192.39 113.487 193.16C114.917 193.893 115.999 194.938 116.732 196.295C117.502 197.652 117.905 199.21 117.942 200.97H113.322C113.065 199.43 112.534 198.312 111.727 197.615C110.92 196.882 109.71 196.515 108.097 196.515C106.52 196.515 105.31 196.827 104.467 197.45C103.624 198.073 103.202 198.917 103.202 199.98C103.202 200.787 103.495 201.447 104.082 201.96C104.669 202.437 105.457 202.858 106.447 203.225C107.437 203.592 108.555 203.977 109.802 204.38C110.975 204.783 112.094 205.205 113.157 205.645C114.257 206.048 115.229 206.543 116.072 207.13C116.952 207.68 117.63 208.413 118.107 209.33C118.62 210.21 118.877 211.31 118.877 212.63C118.877 214.243 118.474 215.655 117.667 216.865C116.86 218.038 115.687 218.955 114.147 219.615C112.644 220.275 110.81 220.605 108.647 220.605C106.667 220.605 104.98 220.367 103.587 219.89C102.23 219.413 101.075 218.79 100.122 218.02C99.2054 217.25 98.4904 216.443 97.9771 215.6C97.5004 214.72 97.1704 213.877 96.9871 213.07C96.8404 212.263 96.8037 211.603 96.8771 211.09ZM130.73 181.225V186.89H124.185V181.225H130.73ZM124.845 192.555H130.07V220H124.845V192.555ZM137.511 192.555H142.791V220H137.511V192.555ZM153.241 192.005C154.781 192.005 156.174 192.225 157.421 192.665C158.668 193.105 159.731 193.765 160.611 194.645C161.491 195.488 162.169 196.552 162.646 197.835C163.159 199.082 163.416 200.512 163.416 202.125V220H158.191V203.28C158.191 201.117 157.659 199.503 156.596 198.44C155.569 197.34 153.993 196.79 151.866 196.79C150.216 196.79 148.713 197.175 147.356 197.945C145.999 198.715 144.881 199.742 144.001 201.025C143.158 202.272 142.644 203.683 142.461 205.26L142.406 202.235C142.589 200.768 142.974 199.412 143.561 198.165C144.184 196.918 144.954 195.837 145.871 194.92C146.824 193.967 147.924 193.252 149.171 192.775C150.418 192.262 151.774 192.005 153.241 192.005ZM191.503 211.09H196.508C196.215 212.887 195.518 214.5 194.418 215.93C193.318 217.36 191.87 218.497 190.073 219.34C188.277 220.183 186.168 220.605 183.748 220.605C180.888 220.605 178.34 220 176.103 218.79C173.867 217.58 172.107 215.912 170.823 213.785C169.54 211.658 168.898 209.183 168.898 206.36C168.898 203.5 169.522 201.007 170.768 198.88C172.015 196.717 173.738 195.03 175.938 193.82C178.138 192.61 180.65 192.005 183.473 192.005C186.443 192.005 188.937 192.592 190.953 193.765C192.97 194.938 194.455 196.68 195.408 198.99C196.398 201.263 196.802 204.105 196.618 207.515H174.123C174.307 209.165 174.802 210.632 175.608 211.915C176.452 213.198 177.552 214.207 178.908 214.94C180.302 215.673 181.897 216.04 183.693 216.04C185.71 216.04 187.397 215.582 188.753 214.665C190.11 213.748 191.027 212.557 191.503 211.09ZM183.528 196.515C181.145 196.515 179.165 197.157 177.588 198.44C176.012 199.687 174.967 201.355 174.453 203.445H191.338C191.192 201.208 190.385 199.503 188.918 198.33C187.452 197.12 185.655 196.515 183.528 196.515ZM200.969 211.09H205.809C205.992 212.557 206.652 213.767 207.789 214.72C208.926 215.637 210.521 216.095 212.574 216.095C213.894 216.095 214.921 215.948 215.654 215.655C216.387 215.325 216.901 214.885 217.194 214.335C217.524 213.785 217.689 213.18 217.689 212.52C217.689 211.677 217.469 211.035 217.029 210.595C216.589 210.118 215.966 209.733 215.159 209.44C214.352 209.11 213.399 208.798 212.299 208.505C211.089 208.175 209.879 207.79 208.669 207.35C207.459 206.91 206.341 206.378 205.314 205.755C204.324 205.132 203.517 204.362 202.894 203.445C202.307 202.492 202.014 201.337 202.014 199.98C202.014 198.843 202.252 197.78 202.729 196.79C203.242 195.8 203.957 194.957 204.874 194.26C205.827 193.527 206.927 192.977 208.174 192.61C209.421 192.207 210.796 192.005 212.299 192.005C214.389 192.005 216.149 192.39 217.579 193.16C219.009 193.893 220.091 194.938 220.824 196.295C221.594 197.652 221.997 199.21 222.034 200.97H217.414C217.157 199.43 216.626 198.312 215.819 197.615C215.012 196.882 213.802 196.515 212.189 196.515C210.612 196.515 209.402 196.827 208.559 197.45C207.716 198.073 207.294 198.917 207.294 199.98C207.294 200.787 207.587 201.447 208.174 201.96C208.761 202.437 209.549 202.858 210.539 203.225C211.529 203.592 212.647 203.977 213.894 204.38C215.067 204.783 216.186 205.205 217.249 205.645C218.349 206.048 219.321 206.543 220.164 207.13C221.044 207.68 221.722 208.413 222.199 209.33C222.712 210.21 222.969 211.31 222.969 212.63C222.969 214.243 222.566 215.655 221.759 216.865C220.952 218.038 219.779 218.955 218.239 219.615C216.736 220.275 214.902 220.605 212.739 220.605C210.759 220.605 209.072 220.367 207.679 219.89C206.322 219.413 205.167 218.79 204.214 218.02C203.297 217.25 202.582 216.443 202.069 215.6C201.592 214.72 201.262 213.877 201.079 213.07C200.932 212.263 200.896 211.603 200.969 211.09ZM227.287 211.09H232.127C232.311 212.557 232.971 213.767 234.107 214.72C235.244 215.637 236.839 216.095 238.892 216.095C240.212 216.095 241.239 215.948 241.972 215.655C242.706 215.325 243.219 214.885 243.512 214.335C243.842 213.785 244.007 213.18 244.007 212.52C244.007 211.677 243.787 211.035 243.347 210.595C242.907 210.118 242.284 209.733 241.477 209.44C240.671 209.11 239.717 208.798 238.617 208.505C237.407 208.175 236.197 207.79 234.987 207.35C233.777 206.91 232.659 206.378 231.632 205.755C230.642 205.132 229.836 204.362 229.212 203.445C228.626 202.492 228.332 201.337 228.332 199.98C228.332 198.843 228.571 197.78 229.047 196.79C229.561 195.8 230.276 194.957 231.192 194.26C232.146 193.527 233.246 192.977 234.492 192.61C235.739 192.207 237.114 192.005 238.617 192.005C240.707 192.005 242.467 192.39 243.897 193.16C245.327 193.893 246.409 194.938 247.142 196.295C247.912 197.652 248.316 199.21 248.352 200.97H243.732C243.476 199.43 242.944 198.312 242.137 197.615C241.331 196.882 240.121 196.515 238.507 196.515C236.931 196.515 235.721 196.827 234.877 197.45C234.034 198.073 233.612 198.917 233.612 199.98C233.612 200.787 233.906 201.447 234.492 201.96C235.079 202.437 235.867 202.858 236.857 203.225C237.847 203.592 238.966 203.977 240.212 204.38C241.386 204.783 242.504 205.205 243.567 205.645C244.667 206.048 245.639 206.543 246.482 207.13C247.362 207.68 248.041 208.413 248.517 209.33C249.031 210.21 249.287 211.31 249.287 212.63C249.287 214.243 248.884 215.655 248.077 216.865C247.271 218.038 246.097 218.955 244.557 219.615C243.054 220.275 241.221 220.605 239.057 220.605C237.077 220.605 235.391 220.367 233.997 219.89C232.641 219.413 231.486 218.79 230.532 218.02C229.616 217.25 228.901 216.443 228.387 215.6C227.911 214.72 227.581 213.877 227.397 213.07C227.251 212.263 227.214 211.603 227.287 211.09ZM293.796 209.55C293.576 211.823 292.842 213.803 291.596 215.49C290.386 217.14 288.791 218.405 286.811 219.285C284.831 220.165 282.631 220.605 280.211 220.605C277.534 220.605 275.077 220.055 272.841 218.955C270.604 217.818 268.807 216.187 267.451 214.06C266.131 211.897 265.471 209.33 265.471 206.36C265.471 203.353 266.131 200.787 267.451 198.66C268.807 196.497 270.604 194.847 272.841 193.71C275.077 192.573 277.534 192.005 280.211 192.005C282.631 192.005 284.812 192.445 286.756 193.325C288.699 194.205 290.294 195.47 291.541 197.12C292.787 198.733 293.539 200.677 293.796 202.95H289.011C288.387 200.97 287.269 199.412 285.656 198.275C284.079 197.102 282.264 196.515 280.211 196.515C278.524 196.515 276.947 196.9 275.481 197.67C274.051 198.44 272.896 199.558 272.016 201.025C271.172 202.455 270.751 204.233 270.751 206.36C270.751 208.413 271.172 210.173 272.016 211.64C272.896 213.07 274.051 214.17 275.481 214.94C276.911 215.673 278.487 216.04 280.211 216.04C282.557 216.04 284.464 215.472 285.931 214.335C287.397 213.198 288.442 211.603 289.066 209.55H293.796ZM312.543 220.605C309.867 220.605 307.41 220.037 305.173 218.9C302.937 217.763 301.158 216.132 299.838 214.005C298.518 211.878 297.858 209.33 297.858 206.36C297.858 203.353 298.518 200.787 299.838 198.66C301.158 196.497 302.937 194.847 305.173 193.71C307.41 192.573 309.867 192.005 312.543 192.005C315.22 192.005 317.658 192.573 319.858 193.71C322.058 194.847 323.818 196.497 325.138 198.66C326.458 200.787 327.118 203.353 327.118 206.36C327.118 209.33 326.458 211.878 325.138 214.005C323.818 216.132 322.058 217.763 319.858 218.9C317.658 220.037 315.22 220.605 312.543 220.605ZM312.543 216.04C314.193 216.04 315.715 215.673 317.108 214.94C318.538 214.17 319.675 213.07 320.518 211.64C321.398 210.173 321.838 208.413 321.838 206.36C321.838 204.27 321.398 202.492 320.518 201.025C319.675 199.558 318.538 198.44 317.108 197.67C315.715 196.9 314.193 196.515 312.543 196.515C310.893 196.515 309.353 196.9 307.923 197.67C306.493 198.403 305.338 199.503 304.458 200.97C303.578 202.437 303.138 204.233 303.138 206.36C303.138 208.413 303.56 210.173 304.403 211.64C305.283 213.07 306.438 214.17 307.868 214.94C309.298 215.673 310.857 216.04 312.543 216.04ZM332.643 192.555H337.923V220H332.643V192.555ZM348.373 192.005C349.913 192.005 351.306 192.225 352.553 192.665C353.799 193.105 354.863 193.765 355.743 194.645C356.623 195.488 357.301 196.552 357.778 197.835C358.291 199.082 358.548 200.512 358.548 202.125V220H353.323V203.28C353.323 201.117 352.791 199.503 351.728 198.44C350.701 197.34 349.124 196.79 346.998 196.79C345.348 196.79 343.844 197.175 342.488 197.945C341.131 198.715 340.013 199.742 339.133 201.025C338.289 202.272 337.776 203.683 337.593 205.26L337.538 202.235C337.721 200.768 338.106 199.412 338.693 198.165C339.316 196.918 340.086 195.837 341.003 194.92C341.956 193.967 343.056 193.252 344.303 192.775C345.549 192.262 346.906 192.005 348.373 192.005ZM368.503 192.005C370.043 192.005 371.436 192.225 372.683 192.665C373.929 193.105 374.993 193.765 375.873 194.645C376.753 195.488 377.431 196.552 377.908 197.835C378.421 199.082 378.678 200.512 378.678 202.125V220H373.453V203.28C373.453 201.117 372.921 199.503 371.858 198.44C370.831 197.34 369.254 196.79 367.128 196.79C365.478 196.79 363.974 197.175 362.618 197.945C361.261 198.715 360.143 199.742 359.263 201.025C358.419 202.272 357.906 203.683 357.723 205.26L357.668 202.18C357.851 200.713 358.236 199.375 358.823 198.165C359.446 196.918 360.234 195.837 361.188 194.92C362.141 193.967 363.241 193.252 364.488 192.775C365.734 192.262 367.073 192.005 368.503 192.005ZM385.602 192.555H390.882V220H385.602V192.555ZM401.332 192.005C402.872 192.005 404.265 192.225 405.512 192.665C406.758 193.105 407.822 193.765 408.702 194.645C409.582 195.488 410.26 196.552 410.737 197.835C411.25 199.082 411.507 200.512 411.507 202.125V220H406.282V203.28C406.282 201.117 405.75 199.503 404.687 198.44C403.66 197.34 402.083 196.79 399.957 196.79C398.307 196.79 396.803 197.175 395.447 197.945C394.09 198.715 392.972 199.742 392.092 201.025C391.248 202.272 390.735 203.683 390.552 205.26L390.497 202.235C390.68 200.768 391.065 199.412 391.652 198.165C392.275 196.918 393.045 195.837 393.962 194.92C394.915 193.967 396.015 193.252 397.262 192.775C398.508 192.262 399.865 192.005 401.332 192.005ZM421.462 192.005C423.002 192.005 424.395 192.225 425.642 192.665C426.888 193.105 427.952 193.765 428.832 194.645C429.712 195.488 430.39 196.552 430.867 197.835C431.38 199.082 431.637 200.512 431.637 202.125V220H426.412V203.28C426.412 201.117 425.88 199.503 424.817 198.44C423.79 197.34 422.213 196.79 420.087 196.79C418.437 196.79 416.933 197.175 415.577 197.945C414.22 198.715 413.102 199.742 412.222 201.025C411.378 202.272 410.865 203.683 410.682 205.26L410.627 202.18C410.81 200.713 411.195 199.375 411.782 198.165C412.405 196.918 413.193 195.837 414.147 194.92C415.1 193.967 416.2 193.252 417.447 192.775C418.693 192.262 420.032 192.005 421.462 192.005ZM464.466 220H459.241V192.555H464.466V220ZM459.516 207.075L459.571 208.725C459.534 209.202 459.406 209.917 459.186 210.87C459.002 211.787 458.672 212.795 458.196 213.895C457.756 214.995 457.132 216.058 456.326 217.085C455.556 218.112 454.566 218.955 453.356 219.615C452.146 220.275 450.679 220.605 448.956 220.605C447.782 220.605 446.572 220.44 445.326 220.11C444.116 219.78 442.997 219.23 441.971 218.46C440.944 217.69 440.119 216.645 439.496 215.325C438.872 213.968 438.561 212.282 438.561 210.265V192.555H443.841V209.165C443.841 210.852 444.097 212.172 444.611 213.125C445.161 214.078 445.931 214.757 446.921 215.16C447.911 215.563 449.029 215.765 450.276 215.765C452.182 215.765 453.777 215.307 455.061 214.39C456.381 213.437 457.407 212.3 458.141 210.98C458.874 209.623 459.332 208.322 459.516 207.075ZM471.378 192.555H476.658V220H471.378V192.555ZM487.108 192.005C488.648 192.005 490.041 192.225 491.288 192.665C492.535 193.105 493.598 193.765 494.478 194.645C495.358 195.488 496.036 196.552 496.513 197.835C497.026 199.082 497.283 200.512 497.283 202.125V220H492.058V203.28C492.058 201.117 491.526 199.503 490.463 198.44C489.436 197.34 487.86 196.79 485.733 196.79C484.083 196.79 482.58 197.175 481.223 197.945C479.866 198.715 478.748 199.742 477.868 201.025C477.025 202.272 476.511 203.683 476.328 205.26L476.273 202.235C476.456 200.768 476.841 199.412 477.428 198.165C478.051 196.918 478.821 195.837 479.738 194.92C480.691 193.967 481.791 193.252 483.038 192.775C484.285 192.262 485.641 192.005 487.108 192.005ZM510.52 181.225V186.89H503.975V181.225H510.52ZM504.635 192.555H509.86V220H504.635V192.555ZM515.376 192.555H533.141V197.12H515.376V192.555ZM521.646 185.295H526.871V220H521.646V185.295ZM544.466 181.225V186.89H537.921V181.225H544.466ZM538.581 192.555H543.806V220H538.581V192.555ZM572.421 211.09H577.426C577.133 212.887 576.436 214.5 575.336 215.93C574.236 217.36 572.788 218.497 570.991 219.34C569.195 220.183 567.086 220.605 564.666 220.605C561.806 220.605 559.258 220 557.021 218.79C554.785 217.58 553.025 215.912 551.741 213.785C550.458 211.658 549.816 209.183 549.816 206.36C549.816 203.5 550.44 201.007 551.686 198.88C552.933 196.717 554.656 195.03 556.856 193.82C559.056 192.61 561.568 192.005 564.391 192.005C567.361 192.005 569.855 192.592 571.871 193.765C573.888 194.938 575.373 196.68 576.326 198.99C577.316 201.263 577.72 204.105 577.536 207.515H555.041C555.225 209.165 555.72 210.632 556.526 211.915C557.37 213.198 558.47 214.207 559.826 214.94C561.22 215.673 562.815 216.04 564.611 216.04C566.628 216.04 568.315 215.582 569.671 214.665C571.028 213.748 571.945 212.557 572.421 211.09ZM564.446 196.515C562.063 196.515 560.083 197.157 558.506 198.44C556.93 199.687 555.885 201.355 555.371 203.445H572.256C572.11 201.208 571.303 199.503 569.836 198.33C568.37 197.12 566.573 196.515 564.446 196.515ZM581.887 211.09H586.727C586.91 212.557 587.57 213.767 588.707 214.72C589.844 215.637 591.439 216.095 593.492 216.095C594.812 216.095 595.839 215.948 596.572 215.655C597.305 215.325 597.819 214.885 598.112 214.335C598.442 213.785 598.607 213.18 598.607 212.52C598.607 211.677 598.387 211.035 597.947 210.595C597.507 210.118 596.884 209.733 596.077 209.44C595.27 209.11 594.317 208.798 593.217 208.505C592.007 208.175 590.797 207.79 589.587 207.35C588.377 206.91 587.259 206.378 586.232 205.755C585.242 205.132 584.435 204.362 583.812 203.445C583.225 202.492 582.932 201.337 582.932 199.98C582.932 198.843 583.17 197.78 583.647 196.79C584.16 195.8 584.875 194.957 585.792 194.26C586.745 193.527 587.845 192.977 589.092 192.61C590.339 192.207 591.714 192.005 593.217 192.005C595.307 192.005 597.067 192.39 598.497 193.16C599.927 193.893 601.009 194.938 601.742 196.295C602.512 197.652 602.915 199.21 602.952 200.97H598.332C598.075 199.43 597.544 198.312 596.737 197.615C595.93 196.882 594.72 196.515 593.107 196.515C591.53 196.515 590.32 196.827 589.477 197.45C588.634 198.073 588.212 198.917 588.212 199.98C588.212 200.787 588.505 201.447 589.092 201.96C589.679 202.437 590.467 202.858 591.457 203.225C592.447 203.592 593.565 203.977 594.812 204.38C595.985 204.783 597.104 205.205 598.167 205.645C599.267 206.048 600.239 206.543 601.082 207.13C601.962 207.68 602.64 208.413 603.117 209.33C603.63 210.21 603.887 211.31 603.887 212.63C603.887 214.243 603.484 215.655 602.677 216.865C601.87 218.038 600.697 218.955 599.157 219.615C597.654 220.275 595.82 220.605 593.657 220.605C591.677 220.605 589.99 220.367 588.597 219.89C587.24 219.413 586.085 218.79 585.132 218.02C584.215 217.25 583.5 216.443 582.987 215.6C582.51 214.72 582.18 213.877 581.997 213.07C581.85 212.263 581.814 211.603 581.887 211.09Z" fill="white"/>
<defs>
<linearGradient id="paint0_linear_3995_41207" x1="-107.901" y1="193.5" x2="-20.8129" y2="469.999" gradientUnits="userSpaceOnUse">
<stop stop-color="#147A32" stop-opacity="0"/>
<stop offset="1" stop-color="#FFBD00"/>
</linearGradient>
</defs>
</svg>
