<svg width="498" height="234" viewBox="0 0 498 234" fill="none" xmlns="http://www.w3.org/2000/svg">
<g clip-path="url(#clip0_7192_67410)">
<path d="M13.65 42.1067V52.4417H46.085V59.6567H5.005V17.6017H46.02V24.8167H13.65V35.2817H40.17V42.1067H13.65ZM90.4511 27.3517L73.6811 45.3567L61.5911 59.6567H51.2561L68.7411 40.7417L80.1811 27.3517H90.4511ZM51.2561 27.3517H61.5911L73.8111 40.6117L91.3611 59.6567H81.0261L68.4811 45.5517L51.2561 27.3517ZM120.106 60.4367C117.246 60.4367 114.797 59.9384 112.761 58.9417C110.767 57.9017 109.142 56.5584 107.886 54.9117C106.629 53.2217 105.697 51.3801 105.091 49.3867C104.484 47.3934 104.181 45.4434 104.181 43.5367C104.181 41.1534 104.462 38.9434 105.026 36.9067C105.632 34.8701 106.564 33.0934 107.821 31.5767C109.077 30.0167 110.702 28.8034 112.696 27.9367C114.732 27.0701 117.202 26.6367 120.106 26.6367C123.356 26.6367 126.281 27.3517 128.881 28.7817C131.481 30.2117 133.539 32.2051 135.056 34.7617C136.616 37.2751 137.396 40.2001 137.396 43.5367C137.396 46.9601 136.616 49.9501 135.056 52.5067C133.496 55.0201 131.416 56.9701 128.816 58.3567C126.216 59.7434 123.312 60.4367 120.106 60.4367ZM117.376 53.8717C119.672 53.8717 121.666 53.4384 123.356 52.5717C125.089 51.7051 126.411 50.5134 127.321 48.9967C128.274 47.4367 128.751 45.6167 128.751 43.5367C128.751 40.4167 127.754 37.9034 125.761 35.9967C123.811 34.0901 121.016 33.1367 117.376 33.1367C115.079 33.1367 112.977 33.5484 111.071 34.3717C109.207 35.1951 107.734 36.3867 106.651 37.9467C105.567 39.4634 105.026 41.3267 105.026 43.5367C105.026 45.6167 105.524 47.4367 106.521 48.9967C107.517 50.5134 108.947 51.7051 110.811 52.5717C112.674 53.4384 114.862 53.8717 117.376 53.8717ZM96.5758 27.3517H104.636L105.026 35.9317V72.6567H96.5758V27.3517ZM159.342 60.3717C156.135 60.3717 153.21 59.6784 150.567 58.2917C147.967 56.8617 145.887 54.8901 144.327 52.3767C142.81 49.8201 142.052 46.8734 142.052 43.5367C142.052 40.1134 142.832 37.1451 144.392 34.6317C145.952 32.1184 148.054 30.1684 150.697 28.7817C153.384 27.3517 156.417 26.6367 159.797 26.6367C163.524 26.6367 166.514 27.3951 168.767 28.9117C171.064 30.3851 172.732 32.4001 173.772 34.9567C174.812 37.5134 175.332 40.3734 175.332 43.5367C175.332 45.4434 175.029 47.3934 174.422 49.3867C173.815 51.3367 172.884 53.1567 171.627 54.8467C170.37 56.4934 168.724 57.8367 166.687 58.8767C164.65 59.8734 162.202 60.3717 159.342 60.3717ZM162.072 53.8717C164.629 53.8717 166.839 53.4384 168.702 52.5717C170.565 51.7051 171.995 50.4917 172.992 48.9317C173.989 47.3717 174.487 45.5734 174.487 43.5367C174.487 41.3267 173.967 39.4634 172.927 37.9467C171.93 36.3867 170.5 35.2167 168.637 34.4367C166.817 33.6134 164.629 33.2017 162.072 33.2017C158.475 33.2017 155.68 34.1551 153.687 36.0617C151.694 37.9251 150.697 40.4167 150.697 43.5367C150.697 45.6167 151.174 47.4367 152.127 48.9967C153.08 50.5134 154.402 51.7051 156.092 52.5717C157.825 53.4384 159.819 53.8717 162.072 53.8717ZM174.487 27.3517H182.937V59.6567H175.072C175.072 59.6567 175.007 59.2451 174.877 58.4217C174.79 57.5551 174.704 56.4717 174.617 55.1717C174.53 53.8717 174.487 52.5934 174.487 51.3367V27.3517ZM190.585 27.3517H199.035V59.6567H190.585V27.3517ZM214.05 26.6367C216.043 26.6367 217.885 26.8967 219.575 27.4167C221.265 27.9367 222.738 28.7384 223.995 29.8217C225.251 30.9051 226.226 32.2917 226.92 33.9817C227.613 35.6284 227.96 37.6001 227.96 39.8967V59.6567H219.51V41.3917C219.51 38.6617 218.838 36.6684 217.495 35.4117C216.195 34.1117 214.05 33.4617 211.06 33.4617C208.806 33.4617 206.77 33.8951 204.95 34.7617C203.13 35.6284 201.656 36.7334 200.53 38.0767C199.403 39.3767 198.753 40.7417 198.58 42.1717L198.515 38.8567C198.731 37.3401 199.23 35.8667 200.01 34.4367C200.79 33.0067 201.83 31.7067 203.13 30.5367C204.473 29.3234 206.055 28.3701 207.875 27.6767C209.695 26.9834 211.753 26.6367 214.05 26.6367ZM251.383 60.3717C248.133 60.3717 245.186 59.6784 242.543 58.2917C239.943 56.8617 237.885 54.8901 236.368 52.3767C234.851 49.8201 234.093 46.8734 234.093 43.5367C234.093 40.1134 234.83 37.1451 236.303 34.6317C237.82 32.1184 239.878 30.1684 242.478 28.7817C245.078 27.3517 248.046 26.6367 251.383 26.6367C254.286 26.6367 256.756 27.0701 258.793 27.9367C260.83 28.8034 262.476 30.0167 263.733 31.5767C264.99 33.0934 265.9 34.8701 266.463 36.9067C267.07 38.9434 267.373 41.1534 267.373 43.5367C267.373 45.4434 267.07 47.3934 266.463 49.3867C265.856 51.3367 264.925 53.1567 263.668 54.8467C262.411 56.4934 260.765 57.8367 258.728 58.8767C256.691 59.8734 254.243 60.3717 251.383 60.3717ZM254.113 53.8717C256.67 53.8717 258.88 53.4384 260.743 52.5717C262.606 51.7051 264.036 50.4917 265.033 48.9317C266.03 47.3717 266.528 45.5734 266.528 43.5367C266.528 41.3267 266.008 39.4634 264.968 37.9467C263.971 36.3867 262.541 35.1951 260.678 34.3717C258.858 33.5484 256.67 33.1367 254.113 33.1367C250.516 33.1367 247.721 34.0901 245.728 35.9967C243.735 37.9034 242.738 40.4167 242.738 43.5367C242.738 45.6167 243.215 47.4367 244.168 48.9967C245.121 50.5134 246.443 51.7051 248.133 52.5717C249.866 53.4384 251.86 53.8717 254.113 53.8717ZM266.528 14.3517H274.978V59.6567H267.113C266.983 58.6601 266.853 57.3817 266.723 55.8217C266.593 54.2184 266.528 52.7234 266.528 51.3367V14.3517ZM293.771 13.1817V20.5917H283.956V13.1817H293.771ZM284.606 27.3517H293.056V59.6567H284.606V27.3517ZM301.478 27.3517H309.928V59.6567H301.478V27.3517ZM324.943 26.6367C326.936 26.6367 328.778 26.8967 330.468 27.4167C332.158 27.9367 333.631 28.7384 334.888 29.8217C336.145 30.9051 337.12 32.2917 337.813 33.9817C338.506 35.6284 338.853 37.6001 338.853 39.8967V59.6567H330.403V41.3917C330.403 38.6617 329.731 36.6684 328.388 35.4117C327.088 34.1117 324.943 33.4617 321.953 33.4617C319.7 33.4617 317.663 33.8951 315.843 34.7617C314.023 35.6284 312.55 36.7334 311.423 38.0767C310.296 39.3767 309.646 40.7417 309.473 42.1717L309.408 38.8567C309.625 37.3401 310.123 35.8667 310.903 34.4367C311.683 33.0067 312.723 31.7067 314.023 30.5367C315.366 29.3234 316.948 28.3701 318.768 27.6767C320.588 26.9834 322.646 26.6367 324.943 26.6367ZM362.666 54.7167C359.156 54.7167 356.058 54.1967 353.371 53.1567C350.728 52.0734 348.67 50.4917 347.196 48.4117C345.723 46.3317 344.986 43.8184 344.986 40.8717C344.986 37.9684 345.701 35.4551 347.131 33.3317C348.561 31.2084 350.598 29.5617 353.241 28.3917C355.928 27.2217 359.07 26.6367 362.666 26.6367C363.663 26.6367 364.616 26.7017 365.526 26.8317C366.48 26.9617 367.411 27.1351 368.321 27.3517L384.636 27.4167V33.7867C382.426 33.8301 380.173 33.5701 377.876 33.0067C375.623 32.4001 373.63 31.7501 371.896 31.0567L371.701 30.6017C373.175 31.2951 374.561 32.1617 375.861 33.2017C377.161 34.1984 378.201 35.3684 378.981 36.7117C379.805 38.0117 380.216 39.5284 380.216 41.2617C380.216 44.0784 379.501 46.5051 378.071 48.5417C376.641 50.5351 374.605 52.0734 371.961 53.1567C369.361 54.1967 366.263 54.7167 362.666 54.7167ZM373.521 72.9817V71.4217C373.521 69.4284 372.871 68.0417 371.571 67.2617C370.315 66.4817 368.581 66.0917 366.371 66.0917H356.296C354.346 66.0917 352.7 65.9401 351.356 65.6367C350.056 65.3334 349.016 64.9001 348.236 64.3367C347.456 63.7734 346.893 63.1017 346.546 62.3217C346.2 61.5851 346.026 60.7834 346.026 59.9167C346.026 58.1834 346.59 56.8834 347.716 56.0167C348.843 55.1067 350.36 54.5001 352.266 54.1967C354.173 53.8934 356.275 53.8284 358.571 54.0017L362.666 54.7167C359.936 54.8034 357.9 55.0417 356.556 55.4317C355.256 55.7784 354.606 56.4934 354.606 57.5767C354.606 58.2267 354.866 58.7467 355.386 59.1367C355.906 59.4834 356.643 59.6567 357.596 59.6567H368.191C371.095 59.6567 373.565 59.9601 375.601 60.5667C377.681 61.2167 379.263 62.2784 380.346 63.7517C381.43 65.2684 381.971 67.3267 381.971 69.9267V72.9817H373.521ZM362.666 48.6067C364.53 48.6067 366.155 48.3034 367.541 47.6967C368.971 47.0901 370.076 46.2234 370.856 45.0967C371.636 43.9267 372.026 42.5401 372.026 40.9367C372.026 39.2901 371.636 37.8817 370.856 36.7117C370.076 35.5417 368.993 34.6534 367.606 34.0467C366.22 33.3967 364.573 33.0717 362.666 33.0717C360.803 33.0717 359.156 33.3967 357.726 34.0467C356.296 34.6534 355.191 35.5417 354.411 36.7117C353.631 37.8817 353.241 39.2901 353.241 40.9367C353.241 42.5401 353.631 43.9267 354.411 45.0967C355.191 46.2234 356.275 47.0901 357.661 47.6967C359.091 48.3034 360.76 48.6067 362.666 48.6067ZM0.975 105.352H9.945L23.92 136.357L16.64 137.657L0.975 105.352ZM40.495 105.352L18.135 150.657H9.36L18.915 132.847L31.46 105.352H40.495ZM62.9987 138.437C58.9254 138.437 55.3287 137.787 52.2087 136.487C49.132 135.187 46.727 133.302 44.9937 130.832C43.2604 128.318 42.3937 125.242 42.3937 121.602C42.3937 117.962 43.2604 114.885 44.9937 112.372C46.727 109.815 49.132 107.887 52.2087 106.587C55.3287 105.287 58.9254 104.637 62.9987 104.637C67.072 104.637 70.6254 105.287 73.6587 106.587C76.7354 107.887 79.1404 109.815 80.8737 112.372C82.607 114.885 83.4737 117.962 83.4737 121.602C83.4737 125.242 82.607 128.318 80.8737 130.832C79.1404 133.302 76.7354 135.187 73.6587 136.487C70.6254 137.787 67.072 138.437 62.9987 138.437ZM62.9987 131.937C65.252 131.937 67.267 131.547 69.0437 130.767C70.8637 129.943 72.2937 128.773 73.3337 127.257C74.3737 125.697 74.8937 123.812 74.8937 121.602C74.8937 119.392 74.3737 117.507 73.3337 115.947C72.2937 114.343 70.8854 113.13 69.1087 112.307C67.332 111.483 65.2954 111.072 62.9987 111.072C60.7454 111.072 58.7087 111.483 56.8887 112.307C55.0687 113.13 53.617 114.322 52.5337 115.882C51.4937 117.442 50.9737 119.348 50.9737 121.602C50.9737 123.812 51.4937 125.697 52.5337 127.257C53.5737 128.773 55.0037 129.943 56.8237 130.767C58.6437 131.547 60.702 131.937 62.9987 131.937ZM127.095 137.657H118.645V105.352H127.095V137.657ZM119.1 122.122L119.165 124.332C119.079 124.938 118.862 125.827 118.515 126.997C118.169 128.123 117.627 129.337 116.89 130.637C116.197 131.937 115.287 133.193 114.16 134.407C113.034 135.577 111.647 136.552 110 137.332C108.354 138.068 106.404 138.437 104.15 138.437C102.374 138.437 100.619 138.22 98.8853 137.787C97.1953 137.353 95.657 136.638 94.2703 135.642C92.8836 134.602 91.7786 133.215 90.9553 131.482C90.132 129.748 89.7203 127.56 89.7203 124.917V105.352H98.1703V123.487C98.1703 125.567 98.4953 127.213 99.1453 128.427C99.8386 129.597 100.835 130.42 102.135 130.897C103.435 131.373 104.974 131.612 106.75 131.612C109.09 131.612 111.105 131.113 112.795 130.117C114.485 129.077 115.85 127.82 116.89 126.347C117.974 124.873 118.71 123.465 119.1 122.122ZM134.789 105.352H143.239V137.657H134.789V105.352ZM155.654 112.307C153.227 112.307 151.125 112.783 149.349 113.737C147.572 114.647 146.142 115.773 145.059 117.117C143.975 118.46 143.217 119.76 142.784 121.017L142.719 117.442C142.762 116.922 142.935 116.163 143.239 115.167C143.542 114.127 143.997 113.022 144.604 111.852C145.21 110.638 146.012 109.49 147.009 108.407C148.005 107.28 149.219 106.37 150.649 105.677C152.079 104.983 153.747 104.637 155.654 104.637V112.307ZM3.9 183.352H12.35V215.657H3.9V183.352ZM24.765 190.307C22.3383 190.307 20.2367 190.783 18.46 191.737C16.6833 192.647 15.2533 193.773 14.17 195.117C13.0867 196.46 12.3283 197.76 11.895 199.017L11.83 195.442C11.8733 194.922 12.0467 194.163 12.35 193.167C12.6533 192.127 13.1083 191.022 13.715 189.852C14.3217 188.638 15.1233 187.49 16.12 186.407C17.1167 185.28 18.33 184.37 19.76 183.677C21.19 182.983 22.8583 182.637 24.765 182.637V190.307ZM59.4339 204.932H67.6239C67.2772 207.142 66.3455 209.113 64.8289 210.847C63.3555 212.58 61.3405 213.945 58.7839 214.942C56.2272 215.938 53.1072 216.437 49.4239 216.437C45.3072 216.437 41.6672 215.787 38.5039 214.487C35.3405 213.143 32.8705 211.215 31.0939 208.702C29.3172 206.188 28.4289 203.155 28.4289 199.602C28.4289 196.048 29.2955 193.015 31.0289 190.502C32.7622 187.945 35.1672 185.995 38.2439 184.652C41.3639 183.308 45.0039 182.637 49.1639 182.637C53.4105 182.637 56.9422 183.308 59.7589 184.652C62.5755 185.995 64.6555 188.032 65.9989 190.762C67.3855 193.448 67.9705 196.893 67.7539 201.097H36.9439C37.1605 202.743 37.7672 204.238 38.7639 205.582C39.8039 206.925 41.1905 207.987 42.9239 208.767C44.7005 209.547 46.8022 209.937 49.2289 209.937C51.9155 209.937 54.1472 209.482 55.9239 208.572C57.7439 207.618 58.9139 206.405 59.4339 204.932ZM48.7739 189.072C45.6539 189.072 43.1189 189.765 41.1689 191.152C39.2189 192.495 37.9622 194.163 37.3989 196.157H59.3689C59.1522 193.99 58.1122 192.278 56.2489 191.022C54.4289 189.722 51.9372 189.072 48.7739 189.072ZM89.7716 216.372C86.5649 216.372 83.6399 215.678 80.9966 214.292C78.3966 212.862 76.3166 210.89 74.7566 208.377C73.2399 205.82 72.4816 202.873 72.4816 199.537C72.4816 196.113 73.2616 193.145 74.8216 190.632C76.3816 188.118 78.4833 186.168 81.1266 184.782C83.8133 183.352 86.8466 182.637 90.2266 182.637C93.9533 182.637 96.9433 183.395 99.1966 184.912C101.493 186.385 103.162 188.4 104.202 190.957C105.242 193.513 105.762 196.373 105.762 199.537C105.762 201.443 105.458 203.393 104.852 205.387C104.245 207.337 103.313 209.157 102.057 210.847C100.8 212.493 99.1533 213.837 97.1166 214.877C95.0799 215.873 92.6316 216.372 89.7716 216.372ZM92.5016 209.872C95.0583 209.872 97.2683 209.438 99.1316 208.572C100.995 207.705 102.425 206.492 103.422 204.932C104.418 203.372 104.917 201.573 104.917 199.537C104.917 197.327 104.397 195.463 103.357 193.947C102.36 192.387 100.93 191.217 99.0666 190.437C97.2466 189.613 95.0583 189.202 92.5016 189.202C88.9049 189.202 86.1099 190.155 84.1166 192.062C82.1233 193.925 81.1266 196.417 81.1266 199.537C81.1266 201.617 81.6033 203.437 82.5566 204.997C83.5099 206.513 84.8316 207.705 86.5216 208.572C88.2549 209.438 90.2483 209.872 92.5016 209.872ZM104.917 183.352H113.367V215.657H105.502C105.502 215.657 105.437 215.245 105.307 214.422C105.22 213.555 105.133 212.472 105.047 211.172C104.96 209.872 104.917 208.593 104.917 207.337V183.352ZM159.364 202.917C159.148 205.733 158.238 208.16 156.634 210.197C155.074 212.233 152.908 213.793 150.134 214.877C147.361 215.917 144.068 216.437 140.254 216.437C136.268 216.437 132.693 215.808 129.529 214.552C126.409 213.252 123.939 211.367 122.119 208.897C120.343 206.383 119.454 203.285 119.454 199.602C119.454 195.918 120.343 192.82 122.119 190.307C123.939 187.793 126.409 185.887 129.529 184.587C132.693 183.287 136.268 182.637 140.254 182.637C144.068 182.637 147.339 183.178 150.069 184.262C152.799 185.302 154.944 186.818 156.504 188.812C158.108 190.805 159.039 193.21 159.299 196.027H151.564C150.828 193.86 149.463 192.17 147.469 190.957C145.476 189.743 143.071 189.137 140.254 189.137C138.001 189.137 135.943 189.527 134.079 190.307C132.259 191.087 130.786 192.257 129.659 193.817C128.576 195.333 128.034 197.262 128.034 199.602C128.034 201.898 128.576 203.827 129.659 205.387C130.743 206.903 132.216 208.052 134.079 208.832C135.943 209.568 138.001 209.937 140.254 209.937C143.288 209.937 145.758 209.33 147.664 208.117C149.614 206.903 150.936 205.17 151.629 202.917H159.364ZM195.085 215.657V197.912C195.085 196.135 194.781 194.662 194.175 193.492C193.568 192.322 192.593 191.433 191.25 190.827C189.95 190.22 188.195 189.917 185.985 189.917C183.861 189.917 181.933 190.328 180.2 191.152C178.466 191.932 177.058 192.972 175.975 194.272C174.891 195.528 174.285 196.872 174.155 198.302L174.09 194.727C174.306 193.297 174.805 191.867 175.585 190.437C176.365 189.007 177.405 187.707 178.705 186.537C180.005 185.367 181.565 184.435 183.385 183.742C185.248 183.005 187.328 182.637 189.625 182.637C191.618 182.637 193.46 182.897 195.15 183.417C196.84 183.893 198.313 184.652 199.57 185.692C200.826 186.732 201.801 188.032 202.495 189.592C203.188 191.108 203.535 192.907 203.535 194.987V215.657H195.085ZM166.16 215.657V170.352H174.61V215.657H166.16Z" fill="#228B22"/>
<path d="M201.451 138.372C198.591 138.372 196.143 137.873 194.106 136.877C192.07 135.837 190.423 134.493 189.166 132.847C187.91 131.157 186.978 129.337 186.371 127.387C185.765 125.393 185.461 123.443 185.461 121.537C185.461 119.153 185.743 116.943 186.306 114.907C186.913 112.87 187.845 111.093 189.101 109.577C190.358 108.017 192.005 106.803 194.041 105.937C196.078 105.07 198.548 104.637 201.451 104.637C204.788 104.637 207.735 105.352 210.291 106.782C212.891 108.168 214.928 110.118 216.401 112.632C217.918 115.145 218.676 118.113 218.676 121.537C218.676 124.873 217.918 127.82 216.401 130.377C214.885 132.89 212.826 134.862 210.226 136.292C207.626 137.678 204.701 138.372 201.451 138.372ZM198.721 131.872C201.018 131.872 203.011 131.438 204.701 130.572C206.391 129.705 207.691 128.513 208.601 126.997C209.555 125.437 210.031 123.617 210.031 121.537C210.031 118.417 209.035 115.903 207.041 113.997C205.091 112.09 202.318 111.137 198.721 111.137C196.208 111.137 194.02 111.548 192.156 112.372C190.293 113.195 188.841 114.387 187.801 115.947C186.805 117.463 186.306 119.327 186.306 121.537C186.306 123.573 186.805 125.372 187.801 126.932C188.798 128.492 190.228 129.705 192.091 130.572C193.955 131.438 196.165 131.872 198.721 131.872ZM186.306 92.3517V129.337C186.306 130.723 186.241 132.218 186.111 133.822C185.981 135.382 185.851 136.66 185.721 137.657H177.856V92.3517H186.306ZM262.3 137.657H253.85V105.352H262.3V137.657ZM254.305 122.122L254.37 124.332C254.284 124.938 254.067 125.827 253.72 126.997C253.374 128.123 252.832 129.337 252.095 130.637C251.402 131.937 250.492 133.193 249.365 134.407C248.239 135.577 246.852 136.552 245.205 137.332C243.559 138.068 241.609 138.437 239.355 138.437C237.579 138.437 235.824 138.22 234.09 137.787C232.4 137.353 230.862 136.638 229.475 135.642C228.089 134.602 226.984 133.215 226.16 131.482C225.337 129.748 224.925 127.56 224.925 124.917V105.352H233.375V123.487C233.375 125.567 233.7 127.213 234.35 128.427C235.044 129.597 236.04 130.42 237.34 130.897C238.64 131.373 240.179 131.612 241.955 131.612C244.295 131.612 246.31 131.113 248 130.117C249.69 129.077 251.055 127.82 252.095 126.347C253.179 124.873 253.915 123.465 254.305 122.122ZM268.694 126.932H276.494C276.97 128.405 277.945 129.618 279.419 130.572C280.935 131.482 282.907 131.937 285.334 131.937C286.98 131.937 288.259 131.785 289.169 131.482C290.079 131.178 290.707 130.745 291.054 130.182C291.4 129.575 291.574 128.903 291.574 128.167C291.574 127.257 291.292 126.563 290.729 126.087C290.165 125.567 289.299 125.155 288.129 124.852C286.959 124.548 285.464 124.267 283.644 124.007C281.824 123.703 280.069 123.335 278.379 122.902C276.689 122.468 275.194 121.905 273.894 121.212C272.594 120.475 271.554 119.565 270.774 118.482C270.037 117.355 269.669 115.99 269.669 114.387C269.669 112.827 270.037 111.44 270.774 110.227C271.554 109.013 272.615 107.995 273.959 107.172C275.345 106.348 276.949 105.72 278.769 105.287C280.632 104.853 282.625 104.637 284.749 104.637C287.955 104.637 290.62 105.113 292.744 106.067C294.867 106.977 296.449 108.277 297.489 109.967C298.572 111.613 299.114 113.52 299.114 115.687H291.639C291.292 114.083 290.599 112.935 289.559 112.242C288.519 111.505 286.915 111.137 284.749 111.137C282.625 111.137 281.022 111.462 279.939 112.112C278.855 112.762 278.314 113.65 278.314 114.777C278.314 115.687 278.639 116.402 279.289 116.922C279.982 117.398 280.979 117.788 282.279 118.092C283.622 118.395 285.29 118.72 287.284 119.067C288.974 119.413 290.577 119.803 292.094 120.237C293.654 120.67 295.04 121.233 296.254 121.927C297.467 122.577 298.42 123.465 299.114 124.592C299.85 125.675 300.219 127.062 300.219 128.752C300.219 130.832 299.612 132.587 298.399 134.017C297.229 135.447 295.539 136.552 293.329 137.332C291.119 138.068 288.475 138.437 285.399 138.437C282.669 138.437 280.307 138.155 278.314 137.592C276.364 136.985 274.739 136.227 273.439 135.317C272.139 134.363 271.12 133.367 270.384 132.327C269.69 131.243 269.214 130.225 268.954 129.272C268.694 128.318 268.607 127.538 268.694 126.932ZM316.368 91.1817V98.5917H306.553V91.1817H316.368ZM307.203 105.352H315.653V137.657H307.203V105.352ZM324.076 105.352H332.526V137.657H324.076V105.352ZM347.541 104.637C349.534 104.637 351.376 104.897 353.066 105.417C354.756 105.937 356.229 106.738 357.486 107.822C358.742 108.905 359.717 110.292 360.411 111.982C361.104 113.628 361.451 115.6 361.451 117.897V137.657H353.001V119.392C353.001 116.662 352.329 114.668 350.986 113.412C349.686 112.112 347.541 111.462 344.551 111.462C342.297 111.462 340.261 111.895 338.441 112.762C336.621 113.628 335.147 114.733 334.021 116.077C332.894 117.377 332.244 118.742 332.071 120.172L332.006 116.857C332.222 115.34 332.721 113.867 333.501 112.437C334.281 111.007 335.321 109.707 336.621 108.537C337.964 107.323 339.546 106.37 341.366 105.677C343.186 104.983 345.244 104.637 347.541 104.637ZM398.589 126.932H406.779C406.432 129.142 405.501 131.113 403.984 132.847C402.511 134.58 400.496 135.945 397.939 136.942C395.382 137.938 392.262 138.437 388.579 138.437C384.462 138.437 380.822 137.787 377.659 136.487C374.496 135.143 372.026 133.215 370.249 130.702C368.472 128.188 367.584 125.155 367.584 121.602C367.584 118.048 368.451 115.015 370.184 112.502C371.917 109.945 374.322 107.995 377.399 106.652C380.519 105.308 384.159 104.637 388.319 104.637C392.566 104.637 396.097 105.308 398.914 106.652C401.731 107.995 403.811 110.032 405.154 112.762C406.541 115.448 407.126 118.893 406.909 123.097H376.099C376.316 124.743 376.922 126.238 377.919 127.582C378.959 128.925 380.346 129.987 382.079 130.767C383.856 131.547 385.957 131.937 388.384 131.937C391.071 131.937 393.302 131.482 395.079 130.572C396.899 129.618 398.069 128.405 398.589 126.932ZM387.929 111.072C384.809 111.072 382.274 111.765 380.324 113.152C378.374 114.495 377.117 116.163 376.554 118.157H398.524C398.307 115.99 397.267 114.278 395.404 113.022C393.584 111.722 391.092 111.072 387.929 111.072ZM411.897 126.932H419.697C420.174 128.405 421.149 129.618 422.622 130.572C424.139 131.482 426.11 131.937 428.537 131.937C430.184 131.937 431.462 131.785 432.372 131.482C433.282 131.178 433.91 130.745 434.257 130.182C434.604 129.575 434.777 128.903 434.777 128.167C434.777 127.257 434.495 126.563 433.932 126.087C433.369 125.567 432.502 125.155 431.332 124.852C430.162 124.548 428.667 124.267 426.847 124.007C425.027 123.703 423.272 123.335 421.582 122.902C419.892 122.468 418.397 121.905 417.097 121.212C415.797 120.475 414.757 119.565 413.977 118.482C413.24 117.355 412.872 115.99 412.872 114.387C412.872 112.827 413.24 111.44 413.977 110.227C414.757 109.013 415.819 107.995 417.162 107.172C418.549 106.348 420.152 105.72 421.972 105.287C423.835 104.853 425.829 104.637 427.952 104.637C431.159 104.637 433.824 105.113 435.947 106.067C438.07 106.977 439.652 108.277 440.692 109.967C441.775 111.613 442.317 113.52 442.317 115.687H434.842C434.495 114.083 433.802 112.935 432.762 112.242C431.722 111.505 430.119 111.137 427.952 111.137C425.829 111.137 424.225 111.462 423.142 112.112C422.059 112.762 421.517 113.65 421.517 114.777C421.517 115.687 421.842 116.402 422.492 116.922C423.185 117.398 424.182 117.788 425.482 118.092C426.825 118.395 428.494 118.72 430.487 119.067C432.177 119.413 433.78 119.803 435.297 120.237C436.857 120.67 438.244 121.233 439.457 121.927C440.67 122.577 441.624 123.465 442.317 124.592C443.054 125.675 443.422 127.062 443.422 128.752C443.422 130.832 442.815 132.587 441.602 134.017C440.432 135.447 438.742 136.552 436.532 137.332C434.322 138.068 431.679 138.437 428.602 138.437C425.872 138.437 423.51 138.155 421.517 137.592C419.567 136.985 417.942 136.227 416.642 135.317C415.342 134.363 414.324 133.367 413.587 132.327C412.894 131.243 412.417 130.225 412.157 129.272C411.897 128.318 411.81 127.538 411.897 126.932ZM448.586 126.932H456.386C456.863 128.405 457.838 129.618 459.311 130.572C460.828 131.482 462.8 131.937 465.226 131.937C466.873 131.937 468.151 131.785 469.061 131.482C469.971 131.178 470.6 130.745 470.946 130.182C471.293 129.575 471.466 128.903 471.466 128.167C471.466 127.257 471.185 126.563 470.621 126.087C470.058 125.567 469.191 125.155 468.021 124.852C466.851 124.548 465.356 124.267 463.536 124.007C461.716 123.703 459.961 123.335 458.271 122.902C456.581 122.468 455.086 121.905 453.786 121.212C452.486 120.475 451.446 119.565 450.666 118.482C449.93 117.355 449.561 115.99 449.561 114.387C449.561 112.827 449.93 111.44 450.666 110.227C451.446 109.013 452.508 107.995 453.851 107.172C455.238 106.348 456.841 105.72 458.661 105.287C460.525 104.853 462.518 104.637 464.641 104.637C467.848 104.637 470.513 105.113 472.636 106.067C474.76 106.977 476.341 108.277 477.381 109.967C478.465 111.613 479.006 113.52 479.006 115.687H471.531C471.185 114.083 470.491 112.935 469.451 112.242C468.411 111.505 466.808 111.137 464.641 111.137C462.518 111.137 460.915 111.462 459.831 112.112C458.748 112.762 458.206 113.65 458.206 114.777C458.206 115.687 458.531 116.402 459.181 116.922C459.875 117.398 460.871 117.788 462.171 118.092C463.515 118.395 465.183 118.72 467.176 119.067C468.866 119.413 470.47 119.803 471.986 120.237C473.546 120.67 474.933 121.233 476.146 121.927C477.36 122.577 478.313 123.465 479.006 124.592C479.743 125.675 480.111 127.062 480.111 128.752C480.111 130.832 479.505 132.587 478.291 134.017C477.121 135.447 475.431 136.552 473.221 137.332C471.011 138.068 468.368 138.437 465.291 138.437C462.561 138.437 460.2 138.155 458.206 137.592C456.256 136.985 454.631 136.227 453.331 135.317C452.031 134.363 451.013 133.367 450.276 132.327C449.583 131.243 449.106 130.225 448.846 129.272C448.586 128.318 448.5 127.538 448.586 126.932Z" fill="#FFBD00"/>
<path d="M181.329 178.152C224.881 158.861 343.377 128.17 468.946 159.738" stroke="#FFBD00" stroke-width="3.50752" stroke-linecap="round"/>
<path d="M181.395 168.203C226.32 152.37 346.85 131.024 469.572 172.298" stroke="#FFBD00" stroke-width="3.50752" stroke-linecap="round"/>
</g>
<defs>
<clipPath id="clip0_7192_67410">
<rect width="498" height="234" fill="white"/>
</clipPath>
</defs>
</svg>
