<svg width="620" height="156" viewBox="0 0 620 156" fill="none" xmlns="http://www.w3.org/2000/svg">
<path d="M11.55 36.15V44.895H38.995V51H4.235V15.415H38.94V21.52H11.55V30.375H33.99V36.15H11.55ZM76.5355 23.665L62.3455 38.9L52.1155 51H43.3705L58.1655 34.995L67.8455 23.665H76.5355ZM43.3705 23.665H52.1155L62.4555 34.885L77.3055 51H68.5605L57.9455 39.065L43.3705 23.665ZM101.628 51.66C99.208 51.66 97.1363 51.2383 95.413 50.395C93.7263 49.515 92.3513 48.3783 91.288 46.985C90.2246 45.555 89.4363 43.9967 88.923 42.31C88.4096 40.6233 88.153 38.9733 88.153 37.36C88.153 35.3433 88.3913 33.4733 88.868 31.75C89.3813 30.0267 90.1696 28.5233 91.233 27.24C92.2963 25.92 93.6713 24.8933 95.358 24.16C97.0813 23.4267 99.1713 23.06 101.628 23.06C104.378 23.06 106.853 23.665 109.053 24.875C111.253 26.085 112.995 27.7717 114.278 29.935C115.598 32.0617 116.258 34.5367 116.258 37.36C116.258 40.2567 115.598 42.7867 114.278 44.95C112.958 47.0767 111.198 48.7267 108.998 49.9C106.798 51.0733 104.341 51.66 101.628 51.66ZM99.318 46.105C101.261 46.105 102.948 45.7383 104.378 45.005C105.845 44.2717 106.963 43.2633 107.733 41.98C108.54 40.66 108.943 39.12 108.943 37.36C108.943 34.72 108.1 32.5933 106.413 30.98C104.763 29.3667 102.398 28.56 99.318 28.56C97.3746 28.56 95.5963 28.9083 93.983 29.605C92.4063 30.3017 91.1596 31.31 90.243 32.63C89.3263 33.9133 88.868 35.49 88.868 37.36C88.868 39.12 89.2896 40.66 90.133 41.98C90.9763 43.2633 92.1863 44.2717 93.763 45.005C95.3396 45.7383 97.1913 46.105 99.318 46.105ZM81.718 23.665H88.538L88.868 30.925V62H81.718V23.665ZM134.828 51.605C132.114 51.605 129.639 51.0183 127.403 49.845C125.203 48.635 123.443 46.9667 122.123 44.84C120.839 42.6767 120.198 40.1833 120.198 37.36C120.198 34.4633 120.858 31.9517 122.178 29.825C123.498 27.6983 125.276 26.0483 127.513 24.875C129.786 23.665 132.353 23.06 135.213 23.06C138.366 23.06 140.896 23.7017 142.803 24.985C144.746 26.2317 146.158 27.9367 147.038 30.1C147.918 32.2633 148.358 34.6833 148.358 37.36C148.358 38.9733 148.101 40.6233 147.588 42.31C147.074 43.96 146.286 45.5 145.223 46.93C144.159 48.3233 142.766 49.46 141.043 50.34C139.319 51.1833 137.248 51.605 134.828 51.605ZM137.138 46.105C139.301 46.105 141.171 45.7383 142.748 45.005C144.324 44.2717 145.534 43.245 146.378 41.925C147.221 40.605 147.643 39.0833 147.643 37.36C147.643 35.49 147.203 33.9133 146.323 32.63C145.479 31.31 144.269 30.32 142.693 29.66C141.153 28.9633 139.301 28.615 137.138 28.615C134.094 28.615 131.729 29.4217 130.043 31.035C128.356 32.6117 127.513 34.72 127.513 37.36C127.513 39.12 127.916 40.66 128.723 41.98C129.529 43.2633 130.648 44.2717 132.078 45.005C133.544 45.7383 135.231 46.105 137.138 46.105ZM147.643 23.665H154.793V51H148.138C148.138 51 148.083 50.6517 147.973 49.955C147.899 49.2217 147.826 48.305 147.753 47.205C147.679 46.105 147.643 45.0233 147.643 43.96V23.665ZM161.264 23.665H168.414V51H161.264V23.665ZM181.119 23.06C182.806 23.06 184.364 23.28 185.794 23.72C187.224 24.16 188.471 24.8383 189.534 25.755C190.597 26.6717 191.422 27.845 192.009 29.275C192.596 30.6683 192.889 32.3367 192.889 34.28V51H185.739V35.545C185.739 33.235 185.171 31.5483 184.034 30.485C182.934 29.385 181.119 28.835 178.589 28.835C176.682 28.835 174.959 29.2017 173.419 29.935C171.879 30.6683 170.632 31.6033 169.679 32.74C168.726 33.84 168.176 34.995 168.029 36.205L167.974 33.4C168.157 32.1167 168.579 30.87 169.239 29.66C169.899 28.45 170.779 27.35 171.879 26.36C173.016 25.3333 174.354 24.5267 175.894 23.94C177.434 23.3533 179.176 23.06 181.119 23.06ZM212.709 51.605C209.959 51.605 207.465 51.0183 205.229 49.845C203.029 48.635 201.287 46.9667 200.004 44.84C198.72 42.6767 198.079 40.1833 198.079 37.36C198.079 34.4633 198.702 31.9517 199.949 29.825C201.232 27.6983 202.974 26.0483 205.174 24.875C207.374 23.665 209.885 23.06 212.709 23.06C215.165 23.06 217.255 23.4267 218.979 24.16C220.702 24.8933 222.095 25.92 223.159 27.24C224.222 28.5233 224.992 30.0267 225.469 31.75C225.982 33.4733 226.239 35.3433 226.239 37.36C226.239 38.9733 225.982 40.6233 225.469 42.31C224.955 43.96 224.167 45.5 223.104 46.93C222.04 48.3233 220.647 49.46 218.924 50.34C217.2 51.1833 215.129 51.605 212.709 51.605ZM215.019 46.105C217.182 46.105 219.052 45.7383 220.629 45.005C222.205 44.2717 223.415 43.245 224.259 41.925C225.102 40.605 225.524 39.0833 225.524 37.36C225.524 35.49 225.084 33.9133 224.204 32.63C223.36 31.31 222.15 30.3017 220.574 29.605C219.034 28.9083 217.182 28.56 215.019 28.56C211.975 28.56 209.61 29.3667 207.924 30.98C206.237 32.5933 205.394 34.72 205.394 37.36C205.394 39.12 205.797 40.66 206.604 41.98C207.41 43.2633 208.529 44.2717 209.959 45.005C211.425 45.7383 213.112 46.105 215.019 46.105ZM225.524 12.665H232.674V51H226.019C225.909 50.1567 225.799 49.075 225.689 47.755C225.579 46.3983 225.524 45.1333 225.524 43.96V12.665ZM248.575 11.675V17.945H240.27V11.675H248.575ZM240.82 23.665H247.97V51H240.82V23.665ZM255.097 23.665H262.247V51H255.097V23.665ZM274.952 23.06C276.639 23.06 278.197 23.28 279.627 23.72C281.057 24.16 282.304 24.8383 283.367 25.755C284.43 26.6717 285.255 27.845 285.842 29.275C286.429 30.6683 286.722 32.3367 286.722 34.28V51H279.572V35.545C279.572 33.235 279.004 31.5483 277.867 30.485C276.767 29.385 274.952 28.835 272.422 28.835C270.515 28.835 268.792 29.2017 267.252 29.935C265.712 30.6683 264.465 31.6033 263.512 32.74C262.559 33.84 262.009 34.995 261.862 36.205L261.807 33.4C261.99 32.1167 262.412 30.87 263.072 29.66C263.732 28.45 264.612 27.35 265.712 26.36C266.849 25.3333 268.187 24.5267 269.727 23.94C271.267 23.3533 273.009 23.06 274.952 23.06ZM306.872 46.82C303.902 46.82 301.28 46.38 299.007 45.5C296.77 44.5833 295.028 43.245 293.782 41.485C292.535 39.725 291.912 37.5983 291.912 35.105C291.912 32.6483 292.517 30.5217 293.727 28.725C294.937 26.9283 296.66 25.535 298.897 24.545C301.17 23.555 303.828 23.06 306.872 23.06C307.715 23.06 308.522 23.115 309.292 23.225C310.098 23.335 310.887 23.4817 311.657 23.665L325.462 23.72V29.11C323.592 29.1467 321.685 28.9267 319.742 28.45C317.835 27.9367 316.148 27.3867 314.682 26.8L314.517 26.415C315.763 27.0017 316.937 27.735 318.037 28.615C319.137 29.4583 320.017 30.4483 320.677 31.585C321.373 32.685 321.722 33.9683 321.722 35.435C321.722 37.8183 321.117 39.8717 319.907 41.595C318.697 43.2817 316.973 44.5833 314.737 45.5C312.537 46.38 309.915 46.82 306.872 46.82ZM316.057 62.275V60.955C316.057 59.2683 315.507 58.095 314.407 57.435C313.343 56.775 311.877 56.445 310.007 56.445H301.482C299.832 56.445 298.438 56.3167 297.302 56.06C296.202 55.8033 295.322 55.4367 294.662 54.96C294.002 54.4833 293.525 53.915 293.232 53.255C292.938 52.6317 292.792 51.9533 292.792 51.22C292.792 49.7533 293.268 48.6533 294.222 47.92C295.175 47.15 296.458 46.6367 298.072 46.38C299.685 46.1233 301.463 46.0683 303.407 46.215L306.872 46.82C304.562 46.8933 302.838 47.095 301.702 47.425C300.602 47.7183 300.052 48.3233 300.052 49.24C300.052 49.79 300.272 50.23 300.712 50.56C301.152 50.8533 301.775 51 302.582 51H311.547C314.003 51 316.093 51.2567 317.817 51.77C319.577 52.32 320.915 53.2183 321.832 54.465C322.748 55.7483 323.207 57.49 323.207 59.69V62.275H316.057ZM306.872 41.65C308.448 41.65 309.823 41.3933 310.997 40.88C312.207 40.3667 313.142 39.6333 313.802 38.68C314.462 37.69 314.792 36.5167 314.792 35.16C314.792 33.7667 314.462 32.575 313.802 31.585C313.142 30.595 312.225 29.8433 311.052 29.33C309.878 28.78 308.485 28.505 306.872 28.505C305.295 28.505 303.902 28.78 302.692 29.33C301.482 29.8433 300.547 30.595 299.887 31.585C299.227 32.575 298.897 33.7667 298.897 35.16C298.897 36.5167 299.227 37.69 299.887 38.68C300.547 39.6333 301.463 40.3667 302.637 40.88C303.847 41.3933 305.258 41.65 306.872 41.65ZM340.923 23.665H348.513L360.338 49.9L354.178 51L340.923 23.665ZM374.363 23.665L355.443 62H348.018L356.103 46.93L366.718 23.665H374.363ZM393.404 51.66C389.958 51.66 386.914 51.11 384.274 50.01C381.671 48.91 379.636 47.315 378.169 45.225C376.703 43.0983 375.969 40.495 375.969 37.415C375.969 34.335 376.703 31.7317 378.169 29.605C379.636 27.4417 381.671 25.81 384.274 24.71C386.914 23.61 389.958 23.06 393.404 23.06C396.851 23.06 399.858 23.61 402.424 24.71C405.028 25.81 407.063 27.4417 408.529 29.605C409.996 31.7317 410.729 34.335 410.729 37.415C410.729 40.495 409.996 43.0983 408.529 45.225C407.063 47.315 405.028 48.91 402.424 50.01C399.858 51.11 396.851 51.66 393.404 51.66ZM393.404 46.16C395.311 46.16 397.016 45.83 398.519 45.17C400.059 44.4733 401.269 43.4833 402.149 42.2C403.029 40.88 403.469 39.285 403.469 37.415C403.469 35.545 403.029 33.95 402.149 32.63C401.269 31.2733 400.078 30.2467 398.574 29.55C397.071 28.8533 395.348 28.505 393.404 28.505C391.498 28.505 389.774 28.8533 388.234 29.55C386.694 30.2467 385.466 31.255 384.549 32.575C383.669 33.895 383.229 35.5083 383.229 37.415C383.229 39.285 383.669 40.88 384.549 42.2C385.429 43.4833 386.639 44.4733 388.179 45.17C389.719 45.83 391.461 46.16 393.404 46.16ZM447.64 51H440.49V23.665H447.64V51ZM440.875 37.855L440.93 39.725C440.857 40.2383 440.673 40.99 440.38 41.98C440.087 42.9333 439.628 43.96 439.005 45.06C438.418 46.16 437.648 47.2233 436.695 48.25C435.742 49.24 434.568 50.065 433.175 50.725C431.782 51.3483 430.132 51.66 428.225 51.66C426.722 51.66 425.237 51.4767 423.77 51.11C422.34 50.7433 421.038 50.1383 419.865 49.295C418.692 48.415 417.757 47.2417 417.06 45.775C416.363 44.3083 416.015 42.4567 416.015 40.22V23.665H423.165V39.01C423.165 40.77 423.44 42.1633 423.99 43.19C424.577 44.18 425.42 44.8767 426.52 45.28C427.62 45.6833 428.922 45.885 430.425 45.885C432.405 45.885 434.11 45.4633 435.54 44.62C436.97 43.74 438.125 42.6767 439.005 41.43C439.922 40.1833 440.545 38.9917 440.875 37.855ZM454.15 23.665H461.3V51H454.15V23.665ZM471.805 29.55C469.751 29.55 467.973 29.9533 466.47 30.76C464.966 31.53 463.756 32.4833 462.84 33.62C461.923 34.7567 461.281 35.8567 460.915 36.92L460.86 33.895C460.896 33.455 461.043 32.8133 461.3 31.97C461.556 31.09 461.941 30.155 462.455 29.165C462.968 28.1383 463.646 27.1667 464.49 26.25C465.333 25.2967 466.36 24.5267 467.57 23.94C468.78 23.3533 470.191 23.06 471.805 23.06V29.55ZM278.891 89.665H286.041V117H278.891V89.665ZM296.546 95.55C294.492 95.55 292.714 95.9533 291.211 96.76C289.707 97.53 288.497 98.4833 287.581 99.62C286.664 100.757 286.022 101.857 285.656 102.92L285.601 99.895C285.637 99.455 285.784 98.8133 286.041 97.97C286.297 97.09 286.682 96.155 287.196 95.165C287.709 94.1383 288.387 93.1667 289.231 92.25C290.074 91.2967 291.101 90.5267 292.311 89.94C293.521 89.3533 294.932 89.06 296.546 89.06V95.55ZM325.881 107.925H332.811C332.518 109.795 331.729 111.463 330.446 112.93C329.199 114.397 327.494 115.552 325.331 116.395C323.168 117.238 320.528 117.66 317.411 117.66C313.928 117.66 310.848 117.11 308.171 116.01C305.494 114.873 303.404 113.242 301.901 111.115C300.398 108.988 299.646 106.422 299.646 103.415C299.646 100.408 300.379 97.8417 301.846 95.715C303.313 93.5517 305.348 91.9017 307.951 90.765C310.591 89.6283 313.671 89.06 317.191 89.06C320.784 89.06 323.773 89.6283 326.156 90.765C328.539 91.9017 330.299 93.625 331.436 95.935C332.609 98.2083 333.104 101.123 332.921 104.68H306.851C307.034 106.073 307.548 107.338 308.391 108.475C309.271 109.612 310.444 110.51 311.911 111.17C313.414 111.83 315.193 112.16 317.246 112.16C319.519 112.16 321.408 111.775 322.911 111.005C324.451 110.198 325.441 109.172 325.881 107.925ZM316.861 94.505C314.221 94.505 312.076 95.0917 310.426 96.265C308.776 97.4017 307.713 98.8133 307.236 100.5H325.826C325.643 98.6667 324.763 97.2183 323.186 96.155C321.646 95.055 319.538 94.505 316.861 94.505ZM351.551 117.605C348.838 117.605 346.363 117.018 344.126 115.845C341.926 114.635 340.166 112.967 338.846 110.84C337.563 108.677 336.921 106.183 336.921 103.36C336.921 100.463 337.581 97.9517 338.901 95.825C340.221 93.6983 342 92.0483 344.236 90.875C346.51 89.665 349.076 89.06 351.936 89.06C355.09 89.06 357.62 89.7017 359.526 90.985C361.47 92.2317 362.881 93.9367 363.761 96.1C364.641 98.2633 365.081 100.683 365.081 103.36C365.081 104.973 364.825 106.623 364.311 108.31C363.798 109.96 363.01 111.5 361.946 112.93C360.883 114.323 359.49 115.46 357.766 116.34C356.043 117.183 353.971 117.605 351.551 117.605ZM353.861 112.105C356.025 112.105 357.895 111.738 359.471 111.005C361.048 110.272 362.258 109.245 363.101 107.925C363.945 106.605 364.366 105.083 364.366 103.36C364.366 101.49 363.926 99.9133 363.046 98.63C362.203 97.31 360.993 96.32 359.416 95.66C357.876 94.9633 356.025 94.615 353.861 94.615C350.818 94.615 348.453 95.4217 346.766 97.035C345.08 98.6117 344.236 100.72 344.236 103.36C344.236 105.12 344.64 106.66 345.446 107.98C346.253 109.263 347.371 110.272 348.801 111.005C350.268 111.738 351.955 112.105 353.861 112.105ZM364.366 89.665H371.516V117H364.861C364.861 117 364.806 116.652 364.696 115.955C364.623 115.222 364.55 114.305 364.476 113.205C364.403 112.105 364.366 111.023 364.366 109.96V89.665ZM410.438 106.22C410.254 108.603 409.484 110.657 408.128 112.38C406.808 114.103 404.974 115.423 402.628 116.34C400.281 117.22 397.494 117.66 394.268 117.66C390.894 117.66 387.869 117.128 385.193 116.065C382.553 114.965 380.463 113.37 378.923 111.28C377.419 109.153 376.668 106.532 376.668 103.415C376.668 100.298 377.419 97.6767 378.923 95.55C380.463 93.4233 382.553 91.81 385.193 90.71C387.869 89.61 390.894 89.06 394.268 89.06C397.494 89.06 400.263 89.5183 402.573 90.435C404.883 91.315 406.698 92.5983 408.018 94.285C409.374 95.9717 410.163 98.0067 410.383 100.39H403.838C403.214 98.5567 402.059 97.1267 400.373 96.1C398.686 95.0733 396.651 94.56 394.268 94.56C392.361 94.56 390.619 94.89 389.043 95.55C387.503 96.21 386.256 97.2 385.303 98.52C384.386 99.8033 383.928 101.435 383.928 103.415C383.928 105.358 384.386 106.99 385.303 108.31C386.219 109.593 387.466 110.565 389.043 111.225C390.619 111.848 392.361 112.16 394.268 112.16C396.834 112.16 398.924 111.647 400.538 110.62C402.188 109.593 403.306 108.127 403.893 106.22H410.438ZM440.663 117V101.985C440.663 100.482 440.406 99.235 439.893 98.245C439.379 97.255 438.554 96.5033 437.418 95.99C436.318 95.4767 434.833 95.22 432.963 95.22C431.166 95.22 429.534 95.5683 428.068 96.265C426.601 96.925 425.409 97.805 424.493 98.905C423.576 99.9683 423.063 101.105 422.953 102.315L422.898 99.29C423.081 98.08 423.503 96.87 424.163 95.66C424.823 94.45 425.703 93.35 426.803 92.36C427.903 91.37 429.223 90.5817 430.763 89.995C432.339 89.3717 434.099 89.06 436.043 89.06C437.729 89.06 439.288 89.28 440.718 89.72C442.148 90.1233 443.394 90.765 444.458 91.645C445.521 92.525 446.346 93.625 446.933 94.945C447.519 96.2283 447.813 97.75 447.813 99.51V117H440.663ZM416.188 117V78.665H423.338V117H416.188Z" fill="white"/>
<path d="M24.365 117.605C21.945 117.605 19.8733 117.183 18.15 116.34C16.4267 115.46 15.0333 114.323 13.97 112.93C12.9067 111.5 12.1183 109.96 11.605 108.31C11.0917 106.623 10.835 104.973 10.835 103.36C10.835 101.343 11.0733 99.4733 11.55 97.75C12.0633 96.0267 12.8517 94.5233 13.915 93.24C14.9783 91.92 16.3717 90.8933 18.095 90.16C19.8183 89.4267 21.9083 89.06 24.365 89.06C27.1883 89.06 29.6817 89.665 31.845 90.875C34.045 92.0483 35.7683 93.6983 37.015 95.825C38.2983 97.9517 38.94 100.463 38.94 103.36C38.94 106.183 38.2983 108.677 37.015 110.84C35.7317 112.967 33.99 114.635 31.79 115.845C29.59 117.018 27.115 117.605 24.365 117.605ZM22.055 112.105C23.9983 112.105 25.685 111.738 27.115 111.005C28.545 110.272 29.645 109.263 30.415 107.98C31.2217 106.66 31.625 105.12 31.625 103.36C31.625 100.72 30.7817 98.5933 29.095 96.98C27.445 95.3667 25.0983 94.56 22.055 94.56C19.9283 94.56 18.0767 94.9083 16.5 95.605C14.9233 96.3017 13.695 97.31 12.815 98.63C11.9717 99.9133 11.55 101.49 11.55 103.36C11.55 105.083 11.9717 106.605 12.815 107.925C13.6583 109.245 14.8683 110.272 16.445 111.005C18.0217 111.738 19.8917 112.105 22.055 112.105ZM11.55 78.665V109.96C11.55 111.133 11.495 112.398 11.385 113.755C11.275 115.075 11.165 116.157 11.055 117H4.4V78.665H11.55ZM75.8527 117H68.7027V89.665H75.8527V117ZM69.0877 103.855L69.1427 105.725C69.0694 106.238 68.8861 106.99 68.5927 107.98C68.2994 108.933 67.8411 109.96 67.2177 111.06C66.6311 112.16 65.8611 113.223 64.9077 114.25C63.9544 115.24 62.7811 116.065 61.3877 116.725C59.9944 117.348 58.3444 117.66 56.4377 117.66C54.9344 117.66 53.4494 117.477 51.9827 117.11C50.5527 116.743 49.2511 116.138 48.0777 115.295C46.9044 114.415 45.9694 113.242 45.2727 111.775C44.5761 110.308 44.2277 108.457 44.2277 106.22V89.665H51.3777V105.01C51.3777 106.77 51.6527 108.163 52.2027 109.19C52.7894 110.18 53.6327 110.877 54.7327 111.28C55.8327 111.683 57.1344 111.885 58.6377 111.885C60.6177 111.885 62.3227 111.463 63.7527 110.62C65.1827 109.74 66.3377 108.677 67.2177 107.43C68.1344 106.183 68.7577 104.992 69.0877 103.855ZM81.2625 107.925H87.8625C88.2658 109.172 89.0908 110.198 90.3375 111.005C91.6208 111.775 93.2892 112.16 95.3425 112.16C96.7358 112.16 97.8175 112.032 98.5875 111.775C99.3575 111.518 99.8892 111.152 100.183 110.675C100.476 110.162 100.623 109.593 100.623 108.97C100.623 108.2 100.384 107.613 99.9075 107.21C99.4308 106.77 98.6975 106.422 97.7075 106.165C96.7175 105.908 95.4525 105.67 93.9125 105.45C92.3725 105.193 90.8875 104.882 89.4575 104.515C88.0275 104.148 86.7625 103.672 85.6625 103.085C84.5625 102.462 83.6825 101.692 83.0225 100.775C82.3992 99.8217 82.0875 98.6667 82.0875 97.31C82.0875 95.99 82.3992 94.8167 83.0225 93.79C83.6825 92.7633 84.5808 91.9017 85.7175 91.205C86.8908 90.5083 88.2475 89.9767 89.7875 89.61C91.3642 89.2433 93.0508 89.06 94.8475 89.06C97.5608 89.06 99.8158 89.4633 101.613 90.27C103.409 91.04 104.748 92.14 105.628 93.57C106.544 94.9633 107.003 96.5767 107.003 98.41H100.678C100.384 97.0533 99.7975 96.0817 98.9175 95.495C98.0375 94.8717 96.6808 94.56 94.8475 94.56C93.0508 94.56 91.6942 94.835 90.7775 95.385C89.8608 95.935 89.4025 96.6867 89.4025 97.64C89.4025 98.41 89.6775 99.015 90.2275 99.455C90.8142 99.8583 91.6575 100.188 92.7575 100.445C93.8942 100.702 95.3058 100.977 96.9925 101.27C98.4225 101.563 99.7792 101.893 101.063 102.26C102.383 102.627 103.556 103.103 104.583 103.69C105.609 104.24 106.416 104.992 107.003 105.945C107.626 106.862 107.938 108.035 107.938 109.465C107.938 111.225 107.424 112.71 106.398 113.92C105.408 115.13 103.978 116.065 102.108 116.725C100.238 117.348 98.0008 117.66 95.3975 117.66C93.0875 117.66 91.0892 117.422 89.4025 116.945C87.7525 116.432 86.3775 115.79 85.2775 115.02C84.1775 114.213 83.3158 113.37 82.6925 112.49C82.1058 111.573 81.7025 110.712 81.4825 109.905C81.2625 109.098 81.1892 108.438 81.2625 107.925ZM121.602 77.675V83.945H113.297V77.675H121.602ZM113.847 89.665H120.997V117H113.847V89.665ZM128.124 89.665H135.274V117H128.124V89.665ZM147.979 89.06C149.666 89.06 151.224 89.28 152.654 89.72C154.084 90.16 155.331 90.8383 156.394 91.755C157.458 92.6717 158.283 93.845 158.869 95.275C159.456 96.6683 159.749 98.3367 159.749 100.28V117H152.599V101.545C152.599 99.235 152.031 97.5483 150.894 96.485C149.794 95.385 147.979 94.835 145.449 94.835C143.543 94.835 141.819 95.2017 140.279 95.935C138.739 96.6683 137.493 97.6033 136.539 98.74C135.586 99.84 135.036 100.995 134.889 102.205L134.834 99.4C135.018 98.1167 135.439 96.87 136.099 95.66C136.759 94.45 137.639 93.35 138.739 92.36C139.876 91.3333 141.214 90.5267 142.754 89.94C144.294 89.3533 146.036 89.06 147.979 89.06ZM191.174 107.925H198.104C197.811 109.795 197.022 111.463 195.739 112.93C194.492 114.397 192.787 115.552 190.624 116.395C188.461 117.238 185.821 117.66 182.704 117.66C179.221 117.66 176.141 117.11 173.464 116.01C170.787 114.873 168.697 113.242 167.194 111.115C165.691 108.988 164.939 106.422 164.939 103.415C164.939 100.408 165.672 97.8417 167.139 95.715C168.606 93.5517 170.641 91.9017 173.244 90.765C175.884 89.6283 178.964 89.06 182.484 89.06C186.077 89.06 189.066 89.6283 191.449 90.765C193.832 91.9017 195.592 93.625 196.729 95.935C197.902 98.2083 198.397 101.123 198.214 104.68H172.144C172.327 106.073 172.841 107.338 173.684 108.475C174.564 109.612 175.737 110.51 177.204 111.17C178.707 111.83 180.486 112.16 182.539 112.16C184.812 112.16 186.701 111.775 188.204 111.005C189.744 110.198 190.734 109.172 191.174 107.925ZM182.154 94.505C179.514 94.505 177.369 95.0917 175.719 96.265C174.069 97.4017 173.006 98.8133 172.529 100.5H191.119C190.936 98.6667 190.056 97.2183 188.479 96.155C186.939 95.055 184.831 94.505 182.154 94.505ZM202.434 107.925H209.034C209.438 109.172 210.263 110.198 211.509 111.005C212.793 111.775 214.461 112.16 216.514 112.16C217.908 112.16 218.989 112.032 219.759 111.775C220.529 111.518 221.061 111.152 221.354 110.675C221.648 110.162 221.794 109.593 221.794 108.97C221.794 108.2 221.556 107.613 221.079 107.21C220.603 106.77 219.869 106.422 218.879 106.165C217.889 105.908 216.624 105.67 215.084 105.45C213.544 105.193 212.059 104.882 210.629 104.515C209.199 104.148 207.934 103.672 206.834 103.085C205.734 102.462 204.854 101.692 204.194 100.775C203.571 99.8217 203.259 98.6667 203.259 97.31C203.259 95.99 203.571 94.8167 204.194 93.79C204.854 92.7633 205.753 91.9017 206.889 91.205C208.063 90.5083 209.419 89.9767 210.959 89.61C212.536 89.2433 214.223 89.06 216.019 89.06C218.733 89.06 220.988 89.4633 222.784 90.27C224.581 91.04 225.919 92.14 226.799 93.57C227.716 94.9633 228.174 96.5767 228.174 98.41H221.849C221.556 97.0533 220.969 96.0817 220.089 95.495C219.209 94.8717 217.853 94.56 216.019 94.56C214.223 94.56 212.866 94.835 211.949 95.385C211.033 95.935 210.574 96.6867 210.574 97.64C210.574 98.41 210.849 99.015 211.399 99.455C211.986 99.8583 212.829 100.188 213.929 100.445C215.066 100.702 216.478 100.977 218.164 101.27C219.594 101.563 220.951 101.893 222.234 102.26C223.554 102.627 224.728 103.103 225.754 103.69C226.781 104.24 227.588 104.992 228.174 105.945C228.798 106.862 229.109 108.035 229.109 109.465C229.109 111.225 228.596 112.71 227.569 113.92C226.579 115.13 225.149 116.065 223.279 116.725C221.409 117.348 219.173 117.66 216.569 117.66C214.259 117.66 212.261 117.422 210.574 116.945C208.924 116.432 207.549 115.79 206.449 115.02C205.349 114.213 204.488 113.37 203.864 112.49C203.278 111.573 202.874 110.712 202.654 109.905C202.434 109.098 202.361 108.438 202.434 107.925ZM233.479 107.925H240.079C240.483 109.172 241.308 110.198 242.554 111.005C243.838 111.775 245.506 112.16 247.559 112.16C248.953 112.16 250.034 112.032 250.804 111.775C251.574 111.518 252.106 111.152 252.399 110.675C252.693 110.162 252.839 109.593 252.839 108.97C252.839 108.2 252.601 107.613 252.124 107.21C251.648 106.77 250.914 106.422 249.924 106.165C248.934 105.908 247.669 105.67 246.129 105.45C244.589 105.193 243.104 104.882 241.674 104.515C240.244 104.148 238.979 103.672 237.879 103.085C236.779 102.462 235.899 101.692 235.239 100.775C234.616 99.8217 234.304 98.6667 234.304 97.31C234.304 95.99 234.616 94.8167 235.239 93.79C235.899 92.7633 236.798 91.9017 237.934 91.205C239.108 90.5083 240.464 89.9767 242.004 89.61C243.581 89.2433 245.268 89.06 247.064 89.06C249.778 89.06 252.033 89.4633 253.829 90.27C255.626 91.04 256.964 92.14 257.844 93.57C258.761 94.9633 259.219 96.5767 259.219 98.41H252.894C252.601 97.0533 252.014 96.0817 251.134 95.495C250.254 94.8717 248.898 94.56 247.064 94.56C245.268 94.56 243.911 94.835 242.994 95.385C242.078 95.935 241.619 96.6867 241.619 97.64C241.619 98.41 241.894 99.015 242.444 99.455C243.031 99.8583 243.874 100.188 244.974 100.445C246.111 100.702 247.523 100.977 249.209 101.27C250.639 101.563 251.996 101.893 253.279 102.26C254.599 102.627 255.773 103.103 256.799 103.69C257.826 104.24 258.633 104.992 259.219 105.945C259.843 106.862 260.154 108.035 260.154 109.465C260.154 111.225 259.641 112.71 258.614 113.92C257.624 115.13 256.194 116.065 254.324 116.725C252.454 117.348 250.218 117.66 247.614 117.66C245.304 117.66 243.306 117.422 241.619 116.945C239.969 116.432 238.594 115.79 237.494 115.02C236.394 114.213 235.533 113.37 234.909 112.49C234.323 111.573 233.919 110.712 233.699 109.905C233.479 109.098 233.406 108.438 233.479 107.925Z" fill="#FFBD00"/>
<path d="M64.5 148.5C89.3333 137.5 156.9 120 228.5 138" stroke="#FFBD00" stroke-width="2" stroke-linecap="round"/>
<path d="M64.5376 142.827C90.1539 133.799 158.881 121.628 228.857 145.162" stroke="#FFBD00" stroke-width="2" stroke-linecap="round"/>
</svg>
