<svg width="642" height="175" viewBox="0 0 642 175" fill="none" xmlns="http://www.w3.org/2000/svg">
<path d="M15.96 60L1.2 21.06H7.5L20.1 55.08H18.3L30.36 21.06H36.78L48.84 55.08H47.1L59.7 21.06H65.82L51.24 60H44.7L32.76 25.38H34.44L22.44 60H15.96ZM93.5039 60V41.94C93.5039 40.34 93.2439 39.02 92.7239 37.98C92.2039 36.94 91.4239 36.16 90.3839 35.64C89.3439 35.08 88.0239 34.8 86.4239 34.8C84.6639 34.8 83.0439 35.22 81.5639 36.06C80.1239 36.86 78.9439 37.96 78.0239 39.36C77.1039 40.72 76.5439 42.26 76.3439 43.98L76.2839 40.56C76.4839 39 76.9039 37.54 77.5439 36.18C78.2239 34.82 79.0639 33.64 80.0639 32.64C81.1039 31.64 82.3039 30.86 83.6639 30.3C85.0239 29.74 86.5039 29.46 88.1039 29.46C89.7839 29.46 91.3039 29.7 92.6639 30.18C94.0239 30.62 95.1839 31.32 96.1439 32.28C97.1439 33.2 97.9039 34.34 98.4239 35.7C98.9439 37.02 99.2039 38.54 99.2039 40.26V60H93.5039ZM71.0039 60V18.06H76.7039V60H71.0039ZM119.148 60.6C116.588 60.6 114.248 59.94 112.128 58.62C110.008 57.3 108.328 55.48 107.088 53.16C105.848 50.8 105.228 48.1 105.228 45.06C105.228 42.02 105.848 39.34 107.088 37.02C108.368 34.66 110.108 32.82 112.308 31.5C114.508 30.14 116.968 29.46 119.688 29.46C122.688 29.46 125.008 30.16 126.648 31.56C128.328 32.96 129.488 34.84 130.128 37.2C130.808 39.56 131.148 42.18 131.148 45.06C131.148 46.66 130.948 48.36 130.548 50.16C130.148 51.96 129.508 53.66 128.628 55.26C127.748 56.86 126.528 58.16 124.968 59.16C123.408 60.12 121.468 60.6 119.148 60.6ZM120.768 55.62C122.888 55.62 124.668 55.16 126.108 54.24C127.588 53.28 128.688 52 129.408 50.4C130.128 48.8 130.488 47.02 130.488 45.06C130.488 42.94 130.108 41.08 129.348 39.48C128.628 37.88 127.528 36.64 126.048 35.76C124.608 34.88 122.848 34.44 120.768 34.44C117.648 34.44 115.228 35.44 113.508 37.44C111.828 39.44 110.988 41.98 110.988 45.06C110.988 47.14 111.408 48.98 112.248 50.58C113.088 52.14 114.228 53.38 115.668 54.3C117.148 55.18 118.848 55.62 120.768 55.62ZM130.488 30.06H136.248V60H130.968C130.968 60 130.928 59.64 130.848 58.92C130.768 58.16 130.688 57.26 130.608 56.22C130.528 55.18 130.488 54.26 130.488 53.46V30.06ZM141.66 30.06H161.04V35.04H141.66V30.06ZM148.5 22.14H154.2V60H148.5V22.14ZM177.578 30.06H196.958V35.04H177.578V30.06ZM184.418 22.14H190.118V60H184.418V22.14ZM216.345 60.66C213.425 60.66 210.745 60.04 208.305 58.8C205.865 57.56 203.925 55.78 202.485 53.46C201.045 51.14 200.325 48.36 200.325 45.12C200.325 41.84 201.045 39.04 202.485 36.72C203.925 34.36 205.865 32.56 208.305 31.32C210.745 30.08 213.425 29.46 216.345 29.46C219.265 29.46 221.925 30.08 224.325 31.32C226.725 32.56 228.645 34.36 230.085 36.72C231.525 39.04 232.245 41.84 232.245 45.12C232.245 48.36 231.525 51.14 230.085 53.46C228.645 55.78 226.725 57.56 224.325 58.8C221.925 60.04 219.265 60.66 216.345 60.66ZM216.345 55.68C218.145 55.68 219.805 55.28 221.325 54.48C222.885 53.64 224.125 52.44 225.045 50.88C226.005 49.28 226.485 47.36 226.485 45.12C226.485 42.84 226.005 40.9 225.045 39.3C224.125 37.7 222.885 36.48 221.325 35.64C219.805 34.8 218.145 34.38 216.345 34.38C214.545 34.38 212.865 34.8 211.305 35.64C209.745 36.44 208.485 37.64 207.525 39.24C206.565 40.84 206.085 42.8 206.085 45.12C206.085 47.36 206.545 49.28 207.465 50.88C208.425 52.44 209.685 53.64 211.245 54.48C212.805 55.28 214.505 55.68 216.345 55.68ZM499.784 55.32L498.224 55.26L506.084 30.06H512.324L501.944 60H496.544L487.484 34.38H489.104L479.924 60H474.524L464.264 30.06H470.564L478.184 55.26L476.624 55.32L484.904 30.06H491.684L499.784 55.32ZM540.457 60V41.94C540.457 40.34 540.197 39.02 539.677 37.98C539.157 36.94 538.377 36.16 537.337 35.64C536.297 35.08 534.977 34.8 533.377 34.8C531.617 34.8 529.997 35.22 528.517 36.06C527.077 36.86 525.897 37.96 524.977 39.36C524.057 40.72 523.497 42.26 523.297 43.98L523.237 40.56C523.437 39 523.857 37.54 524.497 36.18C525.177 34.82 526.017 33.64 527.017 32.64C528.057 31.64 529.257 30.86 530.617 30.3C531.977 29.74 533.457 29.46 535.057 29.46C536.737 29.46 538.257 29.7 539.617 30.18C540.977 30.62 542.137 31.32 543.097 32.28C544.097 33.2 544.857 34.34 545.377 35.7C545.897 37.02 546.157 38.54 546.157 40.26V60H540.457ZM517.957 60V18.06H523.657V60H517.957ZM576.841 50.28H582.301C581.981 52.24 581.221 54 580.021 55.56C578.821 57.12 577.241 58.36 575.281 59.28C573.321 60.2 571.021 60.66 568.381 60.66C565.261 60.66 562.481 60 560.041 58.68C557.601 57.36 555.681 55.54 554.281 53.22C552.881 50.9 552.181 48.2 552.181 45.12C552.181 42 552.861 39.28 554.221 36.96C555.581 34.6 557.461 32.76 559.861 31.44C562.261 30.12 565.001 29.46 568.081 29.46C571.321 29.46 574.041 30.1 576.241 31.38C578.441 32.66 580.061 34.56 581.101 37.08C582.181 39.56 582.621 42.66 582.421 46.38H557.881C558.081 48.18 558.621 49.78 559.501 51.18C560.421 52.58 561.621 53.68 563.101 54.48C564.621 55.28 566.361 55.68 568.321 55.68C570.521 55.68 572.361 55.18 573.841 54.18C575.321 53.18 576.321 51.88 576.841 50.28ZM568.141 34.38C565.541 34.38 563.381 35.08 561.661 36.48C559.941 37.84 558.801 39.66 558.241 41.94H576.661C576.501 39.5 575.621 37.64 574.021 36.36C572.421 35.04 570.461 34.38 568.141 34.38ZM588.487 30.06H594.247V60H588.487V30.06ZM605.647 29.46C607.327 29.46 608.847 29.7 610.207 30.18C611.567 30.66 612.727 31.38 613.687 32.34C614.647 33.26 615.387 34.42 615.907 35.82C616.467 37.18 616.747 38.74 616.747 40.5V60H611.047V41.76C611.047 39.4 610.467 37.64 609.307 36.48C608.187 35.28 606.467 34.68 604.147 34.68C602.347 34.68 600.707 35.1 599.227 35.94C597.747 36.78 596.527 37.9 595.567 39.3C594.647 40.66 594.087 42.2 593.887 43.92L593.827 40.62C594.027 39.02 594.447 37.54 595.087 36.18C595.767 34.82 596.607 33.64 597.607 32.64C598.647 31.6 599.847 30.82 601.207 30.3C602.567 29.74 604.047 29.46 605.647 29.46ZM1.08 110.06H7.2L18.66 138.8L13.68 140L1.08 110.06ZM31.62 110.06L13.68 152H7.62L15.36 135.74L25.56 110.06H31.62ZM49.9978 140.66C47.0778 140.66 44.3978 140.04 41.9578 138.8C39.5178 137.56 37.5778 135.78 36.1378 133.46C34.6978 131.14 33.9778 128.36 33.9778 125.12C33.9778 121.84 34.6978 119.04 36.1378 116.72C37.5778 114.36 39.5178 112.56 41.9578 111.32C44.3978 110.08 47.0778 109.46 49.9978 109.46C52.9178 109.46 55.5778 110.08 57.9778 111.32C60.3778 112.56 62.2978 114.36 63.7378 116.72C65.1778 119.04 65.8978 121.84 65.8978 125.12C65.8978 128.36 65.1778 131.14 63.7378 133.46C62.2978 135.78 60.3778 137.56 57.9778 138.8C55.5778 140.04 52.9178 140.66 49.9978 140.66ZM49.9978 135.68C51.7978 135.68 53.4578 135.28 54.9778 134.48C56.5378 133.64 57.7778 132.44 58.6978 130.88C59.6578 129.28 60.1378 127.36 60.1378 125.12C60.1378 122.84 59.6578 120.9 58.6978 119.3C57.7778 117.7 56.5378 116.48 54.9778 115.64C53.4578 114.8 51.7978 114.38 49.9978 114.38C48.1978 114.38 46.5178 114.8 44.9578 115.64C43.3978 116.44 42.1378 117.64 41.1778 119.24C40.2178 120.84 39.7378 122.8 39.7378 125.12C39.7378 127.36 40.1978 129.28 41.1178 130.88C42.0778 132.44 43.3378 133.64 44.8978 134.48C46.4578 135.28 48.1578 135.68 49.9978 135.68ZM100.185 140H94.4845V110.06H100.185V140ZM94.7845 125.9L94.8445 127.7C94.8045 128.22 94.6645 129 94.4245 130.04C94.2245 131.04 93.8645 132.14 93.3445 133.34C92.8645 134.54 92.1845 135.7 91.3045 136.82C90.4645 137.94 89.3845 138.86 88.0645 139.58C86.7445 140.3 85.1445 140.66 83.2645 140.66C81.9845 140.66 80.6645 140.48 79.3045 140.12C77.9845 139.76 76.7645 139.16 75.6445 138.32C74.5245 137.48 73.6245 136.34 72.9445 134.9C72.2645 133.42 71.9245 131.58 71.9245 129.38V110.06H77.6845V128.18C77.6845 130.02 77.9645 131.46 78.5245 132.5C79.1245 133.54 79.9645 134.28 81.0445 134.72C82.1245 135.16 83.3445 135.38 84.7045 135.38C86.7845 135.38 88.5245 134.88 89.9245 133.88C91.3645 132.84 92.4845 131.6 93.2845 130.16C94.0845 128.68 94.5845 127.26 94.7845 125.9ZM305.018 135.32L303.458 135.26L311.318 110.06H317.558L307.178 140H301.778L292.718 114.38H294.338L285.158 140H279.758L269.498 110.06H275.798L283.418 135.26L281.858 135.32L290.138 110.06H296.918L305.018 135.32ZM329.371 97.7V103.88H322.231V97.7H329.371ZM322.951 110.06H328.651V140H322.951V110.06ZM334.668 110.06H354.048V115.04H334.668V110.06ZM341.508 102.14H347.208V140H341.508V102.14ZM382.723 140V121.94C382.723 120.34 382.463 119.02 381.943 117.98C381.423 116.94 380.643 116.16 379.603 115.64C378.563 115.08 377.243 114.8 375.643 114.8C373.883 114.8 372.263 115.22 370.783 116.06C369.343 116.86 368.163 117.96 367.243 119.36C366.323 120.72 365.763 122.26 365.563 123.98L365.503 120.56C365.703 119 366.123 117.54 366.763 116.18C367.443 114.82 368.283 113.64 369.283 112.64C370.323 111.64 371.523 110.86 372.883 110.3C374.243 109.74 375.723 109.46 377.323 109.46C379.003 109.46 380.523 109.7 381.883 110.18C383.243 110.62 384.403 111.32 385.363 112.28C386.363 113.2 387.123 114.34 387.643 115.7C388.163 117.02 388.423 118.54 388.423 120.26V140H382.723ZM360.223 140V98.06H365.923V140H360.223Z" fill="#041004"/>
<path d="M258.176 43.14V54.84H283.256V60H252.416V21.06H283.196V26.22H258.176V38.1H278.636V43.14H258.176ZM318.135 30.06L305.295 46.44L295.275 60H288.255L301.875 42.72L311.175 30.06H318.135ZM288.255 30.06H295.395L305.295 42.78L318.795 60H311.835L301.515 46.5L288.255 30.06ZM341.036 60.66C338.716 60.66 336.776 60.16 335.216 59.16C333.656 58.16 332.436 56.86 331.556 55.26C330.676 53.66 330.036 51.96 329.636 50.16C329.236 48.36 329.036 46.66 329.036 45.06C329.036 42.9 329.216 40.88 329.576 39C329.976 37.12 330.616 35.46 331.496 34.02C332.376 32.58 333.596 31.46 335.156 30.66C336.716 29.86 338.676 29.46 341.036 29.46C343.636 29.46 345.976 30.14 348.056 31.5C350.136 32.82 351.796 34.66 353.036 37.02C354.316 39.38 354.956 42.06 354.956 45.06C354.956 48.14 354.316 50.86 353.036 53.22C351.756 55.54 350.056 57.36 347.936 58.68C345.856 60 343.556 60.66 341.036 60.66ZM339.416 55.62C341.336 55.62 343.036 55.18 344.516 54.3C345.996 53.38 347.136 52.14 347.936 50.58C348.776 48.98 349.196 47.14 349.196 45.06C349.196 41.98 348.336 39.44 346.616 37.44C344.936 35.44 342.536 34.44 339.416 34.44C337.536 34.44 335.856 34.88 334.376 35.76C332.936 36.64 331.796 37.88 330.956 39.48C330.116 41.08 329.696 42.94 329.696 45.06C329.696 47.06 330.056 48.86 330.776 50.46C331.536 52.02 332.636 53.28 334.076 54.24C335.516 55.16 337.296 55.62 339.416 55.62ZM323.936 30.06H329.456L329.696 36.84V72H323.936V30.06ZM384.068 50.28H389.528C389.208 52.24 388.448 54 387.248 55.56C386.048 57.12 384.468 58.36 382.508 59.28C380.548 60.2 378.248 60.66 375.608 60.66C372.488 60.66 369.708 60 367.268 58.68C364.828 57.36 362.908 55.54 361.508 53.22C360.108 50.9 359.408 48.2 359.408 45.12C359.408 42 360.088 39.28 361.448 36.96C362.808 34.6 364.688 32.76 367.088 31.44C369.488 30.12 372.228 29.46 375.308 29.46C378.548 29.46 381.268 30.1 383.468 31.38C385.668 32.66 387.288 34.56 388.328 37.08C389.408 39.56 389.848 42.66 389.648 46.38H365.107C365.308 48.18 365.848 49.78 366.728 51.18C367.648 52.58 368.848 53.68 370.328 54.48C371.848 55.28 373.588 55.68 375.548 55.68C377.748 55.68 379.588 55.18 381.068 54.18C382.548 53.18 383.548 51.88 384.068 50.28ZM375.368 34.38C372.768 34.38 370.608 35.08 368.888 36.48C367.168 37.84 366.028 39.66 365.468 41.94H383.888C383.728 39.5 382.848 37.64 381.248 36.36C379.648 35.04 377.688 34.38 375.368 34.38ZM425.054 48.6C424.814 51.08 424.014 53.24 422.654 55.08C421.334 56.88 419.594 58.26 417.434 59.22C415.274 60.18 412.874 60.66 410.234 60.66C407.314 60.66 404.634 60.06 402.194 58.86C399.754 57.62 397.794 55.84 396.314 53.52C394.874 51.16 394.154 48.36 394.154 45.12C394.154 41.84 394.874 39.04 396.314 36.72C397.794 34.36 399.754 32.56 402.194 31.32C404.634 30.08 407.314 29.46 410.234 29.46C412.874 29.46 415.254 29.94 417.374 30.9C419.494 31.86 421.234 33.24 422.594 35.04C423.954 36.8 424.774 38.92 425.054 41.4H419.834C419.154 39.24 417.934 37.54 416.174 36.3C414.454 35.02 412.474 34.38 410.234 34.38C408.394 34.38 406.674 34.8 405.074 35.64C403.514 36.48 402.254 37.7 401.294 39.3C400.374 40.86 399.914 42.8 399.914 45.12C399.914 47.36 400.374 49.28 401.294 50.88C402.254 52.44 403.514 53.64 405.074 54.48C406.634 55.28 408.354 55.68 410.234 55.68C412.794 55.68 414.874 55.06 416.474 53.82C418.074 52.58 419.214 50.84 419.894 48.6H425.054ZM428.946 30.06H448.326V35.04H428.946V30.06ZM435.786 22.14H441.486V60H435.786V22.14ZM119.229 127.22H124.749C124.869 128.78 125.389 130.2 126.309 131.48C127.269 132.72 128.549 133.7 130.149 134.42C131.789 135.14 133.689 135.5 135.849 135.5C137.729 135.5 139.289 135.24 140.529 134.72C141.769 134.2 142.689 133.5 143.289 132.62C143.929 131.7 144.249 130.62 144.249 129.38C144.249 128.14 143.909 127.16 143.229 126.44C142.549 125.68 141.529 125.06 140.169 124.58C138.809 124.06 137.129 123.56 135.129 123.08C133.369 122.64 131.629 122.12 129.909 121.52C128.229 120.88 126.669 120.1 125.229 119.18C123.829 118.26 122.689 117.16 121.809 115.88C120.969 114.56 120.549 112.98 120.549 111.14C120.549 109.18 121.089 107.4 122.169 105.8C123.249 104.16 124.829 102.86 126.909 101.9C129.029 100.9 131.589 100.4 134.589 100.4C139.229 100.4 142.729 101.56 145.089 103.88C147.489 106.2 148.649 109.3 148.569 113.18H143.169C143.049 110.46 142.189 108.52 140.589 107.36C138.989 106.16 136.909 105.56 134.349 105.56C132.149 105.56 130.269 106.02 128.709 106.94C127.149 107.82 126.369 109.22 126.369 111.14C126.369 111.98 126.549 112.72 126.909 113.36C127.269 113.96 127.869 114.52 128.709 115.04C129.549 115.56 130.669 116.06 132.069 116.54C133.509 117.02 135.289 117.54 137.409 118.1C139.009 118.46 140.549 118.92 142.029 119.48C143.549 120.04 144.909 120.74 146.109 121.58C147.309 122.42 148.249 123.5 148.929 124.82C149.649 126.14 150.009 127.76 150.009 129.68C150.009 131.72 149.509 133.58 148.509 135.26C147.509 136.9 145.949 138.22 143.829 139.22C141.749 140.18 139.049 140.66 135.729 140.66C133.089 140.66 130.789 140.32 128.829 139.64C126.909 138.96 125.289 138.08 123.969 137C122.689 135.92 121.669 134.76 120.909 133.52C120.189 132.28 119.689 131.1 119.409 129.98C119.169 128.86 119.109 127.94 119.229 127.22ZM168.542 140.6C165.982 140.6 163.642 139.94 161.522 138.62C159.402 137.3 157.722 135.48 156.482 133.16C155.242 130.8 154.622 128.1 154.622 125.06C154.622 122.02 155.242 119.34 156.482 117.02C157.762 114.66 159.502 112.82 161.702 111.5C163.902 110.14 166.362 109.46 169.082 109.46C172.082 109.46 174.402 110.16 176.042 111.56C177.722 112.96 178.882 114.84 179.522 117.2C180.202 119.56 180.542 122.18 180.542 125.06C180.542 126.66 180.342 128.36 179.942 130.16C179.542 131.96 178.902 133.66 178.022 135.26C177.142 136.86 175.922 138.16 174.362 139.16C172.802 140.12 170.862 140.6 168.542 140.6ZM170.162 135.62C172.282 135.62 174.062 135.16 175.502 134.24C176.982 133.28 178.082 132 178.802 130.4C179.522 128.8 179.882 127.02 179.882 125.06C179.882 122.94 179.502 121.08 178.742 119.48C178.022 117.88 176.922 116.64 175.442 115.76C174.002 114.88 172.242 114.44 170.162 114.44C167.042 114.44 164.622 115.44 162.902 117.44C161.222 119.44 160.382 121.98 160.382 125.06C160.382 127.14 160.802 128.98 161.642 130.58C162.482 132.14 163.622 133.38 165.062 134.3C166.542 135.18 168.242 135.62 170.162 135.62ZM179.882 110.06H185.642V140H180.362C180.362 140 180.322 139.64 180.242 138.92C180.162 138.16 180.082 137.26 180.002 136.22C179.922 135.18 179.882 134.26 179.882 133.46V110.06ZM206.235 135.56H204.375L214.095 110.06H220.335L208.035 140H202.635L190.455 110.06H196.755L206.235 135.56ZM247.368 130.28H252.828C252.508 132.24 251.748 134 250.548 135.56C249.348 137.12 247.768 138.36 245.808 139.28C243.848 140.2 241.548 140.66 238.908 140.66C235.788 140.66 233.008 140 230.568 138.68C228.128 137.36 226.208 135.54 224.808 133.22C223.408 130.9 222.708 128.2 222.708 125.12C222.708 122 223.388 119.28 224.748 116.96C226.108 114.6 227.988 112.76 230.388 111.44C232.788 110.12 235.528 109.46 238.608 109.46C241.848 109.46 244.568 110.1 246.768 111.38C248.968 112.66 250.588 114.56 251.628 117.08C252.708 119.56 253.148 122.66 252.948 126.38H228.408C228.608 128.18 229.148 129.78 230.028 131.18C230.948 132.58 232.148 133.68 233.628 134.48C235.148 135.28 236.888 135.68 238.848 135.68C241.048 135.68 242.888 135.18 244.368 134.18C245.848 133.18 246.848 131.88 247.368 130.28ZM238.668 114.38C236.068 114.38 233.908 115.08 232.188 116.48C230.468 117.84 229.328 119.66 228.768 121.94H247.188C247.028 119.5 246.148 117.64 244.548 116.36C242.948 115.04 240.988 114.38 238.668 114.38ZM415.37 117.92H441.95V123.14H415.37V117.92ZM441.29 101.06H447.11V140H441.29V101.06ZM410.15 101.06H415.91V140H410.15V101.06ZM468.015 140.6C465.455 140.6 463.115 139.94 460.995 138.62C458.875 137.3 457.195 135.48 455.955 133.16C454.715 130.8 454.095 128.1 454.095 125.06C454.095 122.02 454.715 119.34 455.955 117.02C457.235 114.66 458.975 112.82 461.175 111.5C463.375 110.14 465.835 109.46 468.555 109.46C471.555 109.46 473.875 110.16 475.515 111.56C477.195 112.96 478.355 114.84 478.995 117.2C479.675 119.56 480.015 122.18 480.015 125.06C480.015 126.66 479.815 128.36 479.415 130.16C479.015 131.96 478.375 133.66 477.495 135.26C476.615 136.86 475.395 138.16 473.835 139.16C472.275 140.12 470.335 140.6 468.015 140.6ZM469.635 135.62C471.755 135.62 473.535 135.16 474.975 134.24C476.455 133.28 477.555 132 478.275 130.4C478.995 128.8 479.355 127.02 479.355 125.06C479.355 122.94 478.975 121.08 478.215 119.48C477.495 117.88 476.395 116.64 474.915 115.76C473.475 114.88 471.715 114.44 469.635 114.44C466.515 114.44 464.095 115.44 462.375 117.44C460.695 119.44 459.855 121.98 459.855 125.06C459.855 127.14 460.275 128.98 461.115 130.58C461.955 132.14 463.095 133.38 464.535 134.3C466.015 135.18 467.715 135.62 469.635 135.62ZM479.355 110.06H485.115V140H479.835C479.835 140 479.795 139.64 479.715 138.92C479.635 138.16 479.555 137.26 479.475 136.22C479.395 135.18 479.355 134.26 479.355 133.46V110.06ZM492.628 110.06H498.388V140H492.628V110.06ZM508.528 115.16C506.448 115.16 504.668 115.64 503.188 116.6C501.748 117.56 500.588 118.74 499.708 120.14C498.868 121.54 498.308 122.88 498.028 124.16L497.968 120.74C498.008 120.34 498.108 119.72 498.268 118.88C498.468 118 498.808 117.02 499.288 115.94C499.768 114.86 500.408 113.84 501.208 112.88C502.008 111.88 503.008 111.06 504.208 110.42C505.408 109.78 506.848 109.46 508.528 109.46V115.16ZM525.781 135.32C523.301 135.32 521.021 134.82 518.941 133.82C516.861 132.82 515.201 131.36 513.961 129.44C512.761 127.52 512.161 125.2 512.161 122.48C512.161 119.8 512.761 117.5 513.961 115.58C515.161 113.62 516.781 112.12 518.821 111.08C520.901 110 523.221 109.46 525.781 109.46C526.541 109.46 527.261 109.52 527.941 109.64C528.621 109.72 529.281 109.86 529.921 110.06H543.001V115.46C541.201 115.46 539.381 115.16 537.541 114.56C535.741 113.96 534.161 113.32 532.801 112.64L532.621 112.34C533.981 113.06 535.161 113.94 536.161 114.98C537.161 115.98 537.921 117.12 538.441 118.4C539.001 119.64 539.281 121.04 539.281 122.6C539.281 125.24 538.681 127.52 537.481 129.44C536.321 131.36 534.701 132.82 532.621 133.82C530.581 134.82 528.301 135.32 525.781 135.32ZM534.961 152.12V150.74C534.961 148.7 534.401 147.24 533.281 146.36C532.161 145.48 530.521 145.04 528.361 145.04H521.341C519.861 145.04 518.601 144.92 517.561 144.68C516.521 144.44 515.661 144.08 514.981 143.6C514.301 143.16 513.801 142.6 513.481 141.92C513.161 141.28 513.001 140.56 513.001 139.76C513.001 138.2 513.481 137.02 514.441 136.22C515.401 135.42 516.621 134.92 518.101 134.72C519.581 134.48 521.081 134.46 522.601 134.66L525.781 135.32C523.501 135.44 521.761 135.66 520.561 135.98C519.361 136.3 518.761 136.98 518.761 138.02C518.761 138.62 519.001 139.1 519.481 139.46C519.961 139.82 520.641 140 521.521 140H528.841C531.121 140 533.141 140.28 534.901 140.84C536.701 141.44 538.101 142.42 539.101 143.78C540.141 145.18 540.661 147.08 540.661 149.48V152.12H534.961ZM525.781 130.46C527.221 130.46 528.521 130.16 529.681 129.56C530.881 128.92 531.841 128.02 532.561 126.86C533.281 125.66 533.641 124.22 533.641 122.54C533.641 120.82 533.281 119.36 532.561 118.16C531.881 116.92 530.941 116 529.741 115.4C528.541 114.76 527.221 114.44 525.781 114.44C524.341 114.44 523.001 114.76 521.761 115.4C520.561 116 519.601 116.9 518.881 118.1C518.161 119.3 517.801 120.78 517.801 122.54C517.801 124.22 518.161 125.66 518.881 126.86C519.601 128.02 520.561 128.92 521.761 129.56C522.961 130.16 524.301 130.46 525.781 130.46ZM562.752 140.66C559.832 140.66 557.152 140.04 554.712 138.8C552.272 137.56 550.332 135.78 548.892 133.46C547.452 131.14 546.732 128.36 546.732 125.12C546.732 121.84 547.452 119.04 548.892 116.72C550.332 114.36 552.272 112.56 554.712 111.32C557.152 110.08 559.832 109.46 562.752 109.46C565.672 109.46 568.332 110.08 570.732 111.32C573.132 112.56 575.052 114.36 576.492 116.72C577.932 119.04 578.652 121.84 578.652 125.12C578.652 128.36 577.932 131.14 576.492 133.46C575.052 135.78 573.132 137.56 570.732 138.8C568.332 140.04 565.672 140.66 562.752 140.66ZM562.752 135.68C564.552 135.68 566.212 135.28 567.732 134.48C569.292 133.64 570.532 132.44 571.452 130.88C572.412 129.28 572.892 127.36 572.892 125.12C572.892 122.84 572.412 120.9 571.452 119.3C570.532 117.7 569.292 116.48 567.732 115.64C566.212 114.8 564.552 114.38 562.752 114.38C560.952 114.38 559.272 114.8 557.712 115.64C556.152 116.44 554.892 117.64 553.932 119.24C552.972 120.84 552.492 122.8 552.492 125.12C552.492 127.36 552.952 129.28 553.872 130.88C554.832 132.44 556.092 133.64 557.652 134.48C559.212 135.28 560.912 135.68 562.752 135.68ZM584.678 110.06H590.438V140H584.678V110.06ZM601.838 109.46C603.518 109.46 605.038 109.7 606.398 110.18C607.758 110.66 608.918 111.38 609.878 112.34C610.838 113.26 611.578 114.42 612.098 115.82C612.658 117.18 612.938 118.74 612.938 120.5V140H607.238V121.76C607.238 119.4 606.658 117.64 605.498 116.48C604.378 115.28 602.658 114.68 600.338 114.68C598.538 114.68 596.898 115.1 595.418 115.94C593.938 116.78 592.718 117.9 591.758 119.3C590.838 120.66 590.278 122.2 590.078 123.92L590.018 120.62C590.218 119.02 590.638 117.54 591.278 116.18C591.958 114.82 592.798 113.64 593.798 112.64C594.838 111.6 596.038 110.82 597.398 110.3C598.758 109.74 600.238 109.46 601.838 109.46Z" fill="url(#paint0_linear_3793_39424)"/>
<path d="M347 80.0003C373.333 69.3337 432.8 54.4003 460 80.0003" stroke="url(#paint1_linear_3793_39424)" stroke-width="2" stroke-dasharray="4 4"/>
<path d="M154 164.135C180.333 153.468 239.8 138.535 267 164.135" stroke="url(#paint2_linear_3793_39424)" stroke-width="2" stroke-dasharray="4 4"/>
<path d="M509 173.135C535.333 162.468 594.8 147.535 622 173.135" stroke="url(#paint3_linear_3793_39424)" stroke-width="2" stroke-dasharray="4 4"/>
<defs>
<linearGradient id="paint0_linear_3793_39424" x1="60.4013" y1="-1.13499" x2="166.799" y2="289.849" gradientUnits="userSpaceOnUse">
<stop stop-color="#228B22"/>
<stop offset="0.740862" stop-color="#FFBD00"/>
</linearGradient>
<linearGradient id="paint1_linear_3793_39424" x1="357.631" y1="65.7617" x2="363.133" y2="94.8033" gradientUnits="userSpaceOnUse">
<stop stop-color="#228B22"/>
<stop offset="0.740862" stop-color="#FFBD00"/>
</linearGradient>
<linearGradient id="paint2_linear_3793_39424" x1="164.631" y1="149.896" x2="170.133" y2="178.938" gradientUnits="userSpaceOnUse">
<stop stop-color="#228B22"/>
<stop offset="0.740862" stop-color="#FFBD00"/>
</linearGradient>
<linearGradient id="paint3_linear_3793_39424" x1="519.631" y1="158.896" x2="525.133" y2="187.938" gradientUnits="userSpaceOnUse">
<stop stop-color="#228B22"/>
<stop offset="0.740862" stop-color="#FFBD00"/>
</linearGradient>
</defs>
</svg>
