<svg width="533" height="138" viewBox="0 0 533 138" fill="none" xmlns="http://www.w3.org/2000/svg">
<path d="M0.302344 32.2938H7.51734C7.69068 33.8971 8.31901 35.3488 9.40234 36.6488C10.529 37.9055 12.0023 38.9021 13.8223 39.6388C15.6857 40.3321 17.809 40.6788 20.1923 40.6788C22.3157 40.6788 24.0707 40.4188 25.4573 39.8988C26.844 39.3788 27.8623 38.6638 28.5123 37.7538C29.2057 36.8005 29.5523 35.6955 29.5523 34.4388C29.5523 33.1821 29.1407 32.2071 28.3173 31.5138C27.5373 30.7771 26.324 30.1705 24.6773 29.6938C23.0307 29.1738 20.929 28.6755 18.3723 28.1988C16.249 27.8088 14.1907 27.2888 12.1973 26.6388C10.204 25.9888 8.40568 25.1655 6.80234 24.1688C5.24234 23.1721 4.00734 21.9588 3.09734 20.5288C2.18734 19.0555 1.73234 17.3221 1.73234 15.3288C1.73234 13.0755 2.36068 11.0388 3.61734 9.2188C4.91734 7.3988 6.82401 5.9688 9.33734 4.9288C11.8507 3.8888 14.9057 3.3688 18.5023 3.3688C24.0057 3.3688 28.209 4.64713 31.1123 7.2038C34.0157 9.71713 35.424 13.1405 35.3373 17.4738H28.2523C28.1223 14.7438 27.1257 12.7721 25.2623 11.5588C23.399 10.3455 21.0373 9.7388 18.1773 9.7388C15.6207 9.7388 13.4757 10.1938 11.7423 11.1038C10.009 12.0138 9.14234 13.4871 9.14234 15.5238C9.14234 16.3905 9.33734 17.1488 9.72734 17.7988C10.1607 18.4055 10.854 18.9688 11.8073 19.4888C12.7607 19.9655 14.0607 20.4421 15.7073 20.9188C17.3973 21.3521 19.4557 21.8288 21.8823 22.3488C23.9623 22.6955 25.9123 23.1721 27.7323 23.7788C29.5523 24.3855 31.134 25.1438 32.4773 26.0538C33.864 26.9638 34.9473 28.1338 35.7273 29.5638C36.5073 30.9938 36.8973 32.7488 36.8973 34.8288C36.8973 37.2121 36.2907 39.3355 35.0773 41.1988C33.864 43.0188 32.0007 44.4705 29.4873 45.5538C27.0173 46.5938 23.8107 47.1138 19.8673 47.1138C16.8773 47.1138 14.2557 46.7671 12.0023 46.0738C9.79234 45.3371 7.90734 44.4055 6.34734 43.2788C4.78734 42.1088 3.53068 40.8521 2.57734 39.5088C1.66734 38.1655 1.01734 36.8655 0.627344 35.6088C0.280677 34.3088 0.172344 33.2038 0.302344 32.2938ZM57.9375 46.9838C54.9909 46.9838 52.2825 46.2688 49.8125 44.8388C47.3859 43.4088 45.4359 41.4371 43.9625 38.9238C42.5325 36.3671 41.8175 33.4421 41.8175 30.1488C41.8175 26.7688 42.5542 23.8221 44.0275 21.3088C45.5009 18.7521 47.4942 16.7588 50.0075 15.3288C52.5209 13.8988 55.3375 13.1838 58.4575 13.1838C61.9242 13.1838 64.6759 13.9421 66.7125 15.4588C68.7492 16.9755 70.2009 19.0121 71.0675 21.5688C71.9342 24.1255 72.3675 26.9855 72.3675 30.1488C72.3675 31.9255 72.1075 33.8105 71.5875 35.8038C71.0675 37.7538 70.2442 39.5738 69.1175 41.2638C68.0342 42.9538 66.5609 44.3405 64.6975 45.4238C62.8775 46.4638 60.6242 46.9838 57.9375 46.9838ZM60.1475 41.0038C62.5742 41.0038 64.6325 40.5488 66.3225 39.6388C68.0559 38.6855 69.3559 37.3855 70.2225 35.7388C71.1325 34.0921 71.5875 32.2288 71.5875 30.1488C71.5875 27.8521 71.1325 25.9021 70.2225 24.2988C69.3125 22.6521 68.0125 21.3955 66.3225 20.5288C64.6325 19.6188 62.5742 19.1638 60.1475 19.1638C56.6809 19.1638 53.9942 20.1821 52.0875 22.2188C50.1809 24.2555 49.2275 26.8988 49.2275 30.1488C49.2275 32.2721 49.6825 34.1571 50.5925 35.8038C51.5459 37.4505 52.8459 38.7288 54.4925 39.6388C56.1392 40.5488 58.0242 41.0038 60.1475 41.0038ZM71.5875 13.8988H78.8675V46.2688H72.1075C72.1075 46.2688 72.0642 45.8571 71.9775 45.0338C71.8909 44.2105 71.8042 43.2138 71.7175 42.0438C71.6309 40.8305 71.5875 39.6821 71.5875 38.5988V13.8988ZM87.4486 0.898798H94.6636V46.2688H87.4486V0.898798ZM130.469 35.6088H137.424C137.078 37.8188 136.211 39.7905 134.824 41.5238C133.481 43.2138 131.639 44.5571 129.299 45.5538C126.959 46.5071 124.164 46.9838 120.914 46.9838C117.231 46.9838 113.938 46.3121 111.034 44.9688C108.131 43.5821 105.856 41.6321 104.209 39.1188C102.563 36.6055 101.739 33.6155 101.739 30.1488C101.739 26.7255 102.541 23.7355 104.144 21.1788C105.748 18.6221 107.958 16.6505 110.774 15.2638C113.634 13.8771 116.928 13.1838 120.654 13.1838C124.511 13.1838 127.718 13.8771 130.274 15.2638C132.874 16.6071 134.803 18.6438 136.059 21.3738C137.316 24.0605 137.836 27.4621 137.619 31.5788H109.084C109.301 33.3988 109.886 35.0455 110.839 36.5188C111.836 37.9488 113.179 39.0755 114.869 39.8988C116.559 40.6788 118.531 41.0688 120.784 41.0688C123.298 41.0688 125.399 40.5705 127.089 39.5738C128.823 38.5771 129.949 37.2555 130.469 35.6088ZM120.459 19.0338C117.513 19.0338 115.086 19.7705 113.179 21.2438C111.273 22.6738 110.038 24.5155 109.474 26.7688H130.339C130.166 24.3421 129.191 22.4571 127.414 21.1138C125.638 19.7271 123.319 19.0338 120.459 19.0338ZM142.624 35.6088H149.319C149.666 37.2555 150.554 38.5988 151.984 39.6388C153.414 40.6355 155.343 41.1338 157.769 41.1338C159.329 41.1338 160.543 40.9605 161.409 40.6138C162.319 40.2671 162.948 39.7905 163.294 39.1838C163.684 38.5771 163.879 37.8838 163.879 37.1038C163.879 36.1505 163.598 35.4138 163.034 34.8938C162.514 34.3738 161.734 33.9405 160.694 33.5938C159.654 33.2471 158.354 32.9438 156.794 32.6838C155.191 32.2938 153.609 31.8605 152.049 31.3838C150.489 30.9071 149.081 30.3221 147.824 29.6288C146.568 28.8921 145.571 27.9821 144.834 26.8988C144.141 25.7721 143.794 24.4071 143.794 22.8038C143.794 21.3305 144.119 20.0088 144.769 18.8388C145.463 17.6255 146.416 16.6071 147.629 15.7838C148.843 14.9605 150.273 14.3321 151.919 13.8988C153.566 13.4221 155.364 13.1838 157.314 13.1838C160.131 13.1838 162.471 13.6388 164.334 14.5488C166.241 15.4588 167.671 16.7371 168.624 18.3838C169.621 20.0305 170.119 21.9155 170.119 24.0388H163.749C163.403 22.3055 162.731 21.0488 161.734 20.2688C160.738 19.4888 159.243 19.0988 157.249 19.0988C155.256 19.0988 153.739 19.4455 152.699 20.1388C151.659 20.8321 151.139 21.7855 151.139 22.9988C151.139 23.9088 151.464 24.6455 152.114 25.2088C152.808 25.7288 153.783 26.1838 155.039 26.5738C156.296 26.9638 157.769 27.3538 159.459 27.7438C161.019 28.1771 162.493 28.6321 163.879 29.1088C165.266 29.5421 166.501 30.1055 167.584 30.7988C168.711 31.4488 169.599 32.3155 170.249 33.3988C170.899 34.4821 171.224 35.8255 171.224 37.4288C171.224 39.4221 170.683 41.1338 169.599 42.5638C168.559 43.9938 167.043 45.0988 165.049 45.8788C163.056 46.6155 160.651 46.9838 157.834 46.9838C155.364 46.9838 153.219 46.7021 151.399 46.1388C149.623 45.5755 148.128 44.8388 146.914 43.9288C145.744 43.0188 144.834 42.0438 144.184 41.0038C143.534 39.9638 143.079 38.9671 142.819 38.0138C142.603 37.0605 142.538 36.2588 142.624 35.6088Z" fill="black"/>
<path d="M10.5073 106.329V117.899H40.0823V124.269H3.09734V82.1488H40.0173V88.5188H10.5073V100.219H34.6873V106.329H10.5073ZM80.9044 91.8988L65.6944 109.774L54.2544 124.269H45.4144L61.4044 105.419L72.1294 91.8988H80.9044ZM45.4144 91.8988H54.3194L65.7594 105.419L81.7494 124.269H72.9094L61.0794 109.904L45.4144 91.8988ZM84.9044 91.8988H107.784V97.8138H84.9044V91.8988ZM92.7044 83.1888H99.9844V124.269H92.7044V83.1888ZM113.459 91.8988H120.674V124.269H113.459V91.8988ZM132.374 98.0738C130.034 98.0738 128.019 98.5721 126.329 99.5688C124.682 100.565 123.36 101.779 122.364 103.209C121.367 104.639 120.674 106.025 120.284 107.369L120.219 103.729C120.262 103.252 120.414 102.537 120.674 101.584C120.934 100.587 121.324 99.5038 121.844 98.3338C122.407 97.1638 123.144 96.0371 124.054 94.9538C125.007 93.8271 126.155 92.9171 127.499 92.2238C128.885 91.5305 130.51 91.1838 132.374 91.1838V98.0738ZM152.264 124.984C149.317 124.984 146.609 124.269 144.139 122.839C141.712 121.409 139.762 119.437 138.289 116.924C136.859 114.367 136.144 111.442 136.144 108.149C136.144 104.769 136.88 101.822 138.354 99.3088C139.827 96.7521 141.82 94.7588 144.334 93.3288C146.847 91.8988 149.664 91.1838 152.784 91.1838C156.25 91.1838 159.002 91.9421 161.039 93.4588C163.075 94.9755 164.527 97.0121 165.394 99.5688C166.26 102.125 166.694 104.985 166.694 108.149C166.694 109.925 166.434 111.81 165.914 113.804C165.394 115.754 164.57 117.574 163.444 119.264C162.36 120.954 160.887 122.34 159.024 123.424C157.204 124.464 154.95 124.984 152.264 124.984ZM154.474 119.004C156.9 119.004 158.959 118.549 160.649 117.639C162.382 116.685 163.682 115.385 164.549 113.739C165.459 112.092 165.914 110.229 165.914 108.149C165.914 105.852 165.459 103.902 164.549 102.299C163.639 100.652 162.339 99.3955 160.649 98.5288C158.959 97.6188 156.9 97.1638 154.474 97.1638C151.007 97.1638 148.32 98.1821 146.414 100.219C144.507 102.255 143.554 104.899 143.554 108.149C143.554 110.272 144.009 112.157 144.919 113.804C145.872 115.45 147.172 116.729 148.819 117.639C150.465 118.549 152.35 119.004 154.474 119.004ZM165.914 91.8988H173.194V124.269H166.434C166.434 124.269 166.39 123.857 166.304 123.034C166.217 122.21 166.13 121.214 166.044 120.044C165.957 118.83 165.914 117.682 165.914 116.599V91.8988ZM196.985 119.134H194.45L205.63 91.8988H213.495L199.195 124.269H192.305L178.2 91.8988H186.13L196.985 119.134ZM231.863 124.984C228.917 124.984 226.208 124.269 223.738 122.839C221.312 121.409 219.362 119.437 217.888 116.924C216.458 114.367 215.743 111.442 215.743 108.149C215.743 104.769 216.48 101.822 217.953 99.3088C219.427 96.7521 221.42 94.7588 223.933 93.3288C226.447 91.8988 229.263 91.1838 232.383 91.1838C235.85 91.1838 238.602 91.9421 240.638 93.4588C242.675 94.9755 244.127 97.0121 244.993 99.5688C245.86 102.125 246.293 104.985 246.293 108.149C246.293 109.925 246.033 111.81 245.513 113.804C244.993 115.754 244.17 117.574 243.043 119.264C241.96 120.954 240.487 122.34 238.623 123.424C236.803 124.464 234.55 124.984 231.863 124.984ZM234.073 119.004C236.5 119.004 238.558 118.549 240.248 117.639C241.982 116.685 243.282 115.385 244.148 113.739C245.058 112.092 245.513 110.229 245.513 108.149C245.513 105.852 245.058 103.902 244.148 102.299C243.238 100.652 241.938 99.3955 240.248 98.5288C238.558 97.6188 236.5 97.1638 234.073 97.1638C230.607 97.1638 227.92 98.1821 226.013 100.219C224.107 102.255 223.153 104.899 223.153 108.149C223.153 110.272 223.608 112.157 224.518 113.804C225.472 115.45 226.772 116.729 228.418 117.639C230.065 118.549 231.95 119.004 234.073 119.004ZM245.513 91.8988H252.793V124.269H246.033C246.033 124.269 245.99 123.857 245.903 123.034C245.817 122.21 245.73 121.214 245.643 120.044C245.557 118.83 245.513 117.682 245.513 116.599V91.8988ZM275.154 119.264C272.121 119.264 269.369 118.722 266.899 117.639C264.473 116.555 262.544 114.974 261.114 112.894C259.728 110.814 259.034 108.322 259.034 105.419C259.034 102.515 259.706 100.002 261.049 97.8788C262.436 95.7555 264.343 94.1088 266.769 92.9388C269.239 91.7688 272.034 91.1838 275.154 91.1838C276.064 91.1838 276.931 91.2488 277.754 91.3788C278.621 91.5088 279.444 91.6821 280.224 91.8988L295.369 91.9638V98.0088C293.289 98.0521 291.188 97.7705 289.064 97.1638C286.984 96.5138 285.143 95.8421 283.539 95.1488L283.344 94.7588C284.818 95.4955 286.139 96.4055 287.309 97.4888C288.523 98.5288 289.476 99.7205 290.169 101.064C290.863 102.407 291.209 103.924 291.209 105.614C291.209 108.474 290.516 110.922 289.129 112.959C287.786 114.995 285.901 116.555 283.474 117.639C281.091 118.722 278.318 119.264 275.154 119.264ZM285.554 137.464V135.969C285.554 133.845 284.926 132.35 283.669 131.484C282.413 130.617 280.658 130.184 278.404 130.184H269.629C267.896 130.184 266.401 130.032 265.144 129.729C263.931 129.469 262.956 129.057 262.219 128.494C261.483 127.974 260.941 127.345 260.594 126.609C260.248 125.915 260.074 125.135 260.074 124.269C260.074 122.535 260.594 121.235 261.634 120.369C262.718 119.502 264.126 118.939 265.859 118.679C267.636 118.419 269.499 118.375 271.449 118.549L275.154 119.264C272.598 119.35 270.648 119.589 269.304 119.979C268.004 120.325 267.354 121.04 267.354 122.124C267.354 122.774 267.614 123.294 268.134 123.684C268.654 124.074 269.391 124.269 270.344 124.269H279.574C282.218 124.269 284.536 124.572 286.529 125.179C288.523 125.829 290.061 126.89 291.144 128.364C292.271 129.88 292.834 131.939 292.834 134.539V137.464H285.554ZM275.154 113.609C276.888 113.609 278.426 113.284 279.769 112.634C281.113 111.984 282.174 111.052 282.954 109.839C283.734 108.625 284.124 107.152 284.124 105.419C284.124 103.685 283.734 102.19 282.954 100.934C282.174 99.6771 281.113 98.7238 279.769 98.0738C278.426 97.4238 276.888 97.0988 275.154 97.0988C273.464 97.0988 271.926 97.4238 270.539 98.0738C269.196 98.7238 268.134 99.6771 267.354 100.934C266.574 102.147 266.184 103.642 266.184 105.419C266.184 107.152 266.574 108.625 267.354 109.839C268.134 111.052 269.196 111.984 270.539 112.634C271.883 113.284 273.421 113.609 275.154 113.609ZM315.208 124.984C312.261 124.984 309.553 124.269 307.083 122.839C304.656 121.409 302.706 119.437 301.233 116.924C299.803 114.367 299.088 111.442 299.088 108.149C299.088 104.769 299.825 101.822 301.298 99.3088C302.771 96.7521 304.765 94.7588 307.278 93.3288C309.791 91.8988 312.608 91.1838 315.728 91.1838C319.195 91.1838 321.946 91.9421 323.983 93.4588C326.02 94.9755 327.471 97.0121 328.338 99.5688C329.205 102.125 329.638 104.985 329.638 108.149C329.638 109.925 329.378 111.81 328.858 113.804C328.338 115.754 327.515 117.574 326.388 119.264C325.305 120.954 323.831 122.34 321.968 123.424C320.148 124.464 317.895 124.984 315.208 124.984ZM317.418 119.004C319.845 119.004 321.903 118.549 323.593 117.639C325.326 116.685 326.626 115.385 327.493 113.739C328.403 112.092 328.858 110.229 328.858 108.149C328.858 105.852 328.403 103.902 327.493 102.299C326.583 100.652 325.283 99.3955 323.593 98.5288C321.903 97.6188 319.845 97.1638 317.418 97.1638C313.951 97.1638 311.265 98.1821 309.358 100.219C307.451 102.255 306.498 104.899 306.498 108.149C306.498 110.272 306.953 112.157 307.863 113.804C308.816 115.45 310.116 116.729 311.763 117.639C313.41 118.549 315.295 119.004 317.418 119.004ZM328.858 91.8988H336.138V124.269H329.378C329.378 124.269 329.335 123.857 329.248 123.034C329.161 122.21 329.075 121.214 328.988 120.044C328.901 118.83 328.858 117.682 328.858 116.599V91.8988ZM344.069 91.8988H351.284V124.269H344.069V91.8988ZM364.934 91.1838C366.797 91.1838 368.509 91.4438 370.069 91.9638C371.672 92.4838 373.037 93.2855 374.164 94.3688C375.334 95.4088 376.222 96.7088 376.829 98.2688C377.479 99.8288 377.804 101.67 377.804 103.794V124.269H370.589V105.224C370.589 102.58 369.939 100.63 368.639 99.3738C367.382 98.0738 365.389 97.4238 362.659 97.4238C360.579 97.4238 358.672 97.8788 356.939 98.7888C355.249 99.6555 353.862 100.804 352.779 102.234C351.696 103.62 351.067 105.159 350.894 106.849L350.829 103.339C351.046 101.735 351.522 100.219 352.259 98.7888C352.996 97.3155 353.971 96.0155 355.184 94.8888C356.397 93.7188 357.827 92.8088 359.474 92.1588C361.121 91.5088 362.941 91.1838 364.934 91.1838ZM415.218 97.7488L391.623 120.694L390.778 118.419H415.608V124.269H385.383V118.419L409.108 95.5388L410.018 97.7488H385.383V91.8988H415.218V97.7488ZM437.147 124.984C434.2 124.984 431.492 124.269 429.022 122.839C426.595 121.409 424.645 119.437 423.172 116.924C421.742 114.367 421.027 111.442 421.027 108.149C421.027 104.769 421.763 101.822 423.237 99.3088C424.71 96.7521 426.703 94.7588 429.217 93.3288C431.73 91.8988 434.547 91.1838 437.667 91.1838C441.133 91.1838 443.885 91.9421 445.922 93.4588C447.958 94.9755 449.41 97.0121 450.277 99.5688C451.143 102.125 451.577 104.985 451.577 108.149C451.577 109.925 451.317 111.81 450.797 113.804C450.277 115.754 449.453 117.574 448.327 119.264C447.243 120.954 445.77 122.34 443.907 123.424C442.087 124.464 439.833 124.984 437.147 124.984ZM439.357 119.004C441.783 119.004 443.842 118.549 445.532 117.639C447.265 116.685 448.565 115.385 449.432 113.739C450.342 112.092 450.797 110.229 450.797 108.149C450.797 105.852 450.342 103.902 449.432 102.299C448.522 100.652 447.222 99.3955 445.532 98.5288C443.842 97.6188 441.783 97.1638 439.357 97.1638C435.89 97.1638 433.203 98.1821 431.297 100.219C429.39 102.255 428.437 104.899 428.437 108.149C428.437 110.272 428.892 112.157 429.802 113.804C430.755 115.45 432.055 116.729 433.702 117.639C435.348 118.549 437.233 119.004 439.357 119.004ZM450.797 91.8988H458.077V124.269H451.317C451.317 124.269 451.273 123.857 451.187 123.034C451.1 122.21 451.013 121.214 450.927 120.044C450.84 118.83 450.797 117.682 450.797 116.599V91.8988ZM467.763 80.2638H475.043V111.139H467.763V80.2638ZM475.758 117.249V124.269H467.048V117.249H475.758ZM486.615 80.2638H493.895V111.139H486.615V80.2638ZM494.61 117.249V124.269H485.9V117.249H494.61ZM505.468 80.2638H512.748V111.139H505.468V80.2638ZM513.463 117.249V124.269H504.753V117.249H513.463ZM524.32 80.2638H531.6V111.139H524.32V80.2638ZM532.315 117.249V124.269H523.605V117.249H532.315Z" fill="#23A323"/>
</svg>
