<svg width="836" height="171" viewBox="0 0 836 171" fill="none" xmlns="http://www.w3.org/2000/svg">
<g clip-path="url(#clip0_12304_23076)">
<rect x="25.9258" y="75.9883" width="783.521" height="94.7363" fill="#FFBD00"/>
<path d="M174.248 47.6343C173.858 51.0143 172.666 53.896 170.673 56.2793C168.68 58.6626 165.971 60.4826 162.548 61.7393C159.125 62.996 155.051 63.6243 150.328 63.6243C146.385 63.6243 142.766 63.1693 139.473 62.2593C136.223 61.3493 133.406 59.9843 131.023 58.1643C128.683 56.3443 126.863 54.091 125.563 51.4043C124.263 48.6743 123.613 45.4893 123.613 41.8493C123.613 38.2093 124.263 35.0243 125.563 32.2943C126.863 29.5643 128.683 27.2893 131.023 25.4693C133.406 23.606 136.223 22.2193 139.473 21.3093C142.766 20.356 146.385 19.8793 150.328 19.8793C155.051 19.8793 159.125 20.5293 162.548 21.8293C166.015 23.1293 168.745 24.9926 170.738 27.4193C172.731 29.8026 173.901 32.706 174.248 36.1293H165.668C165.105 34.3093 164.151 32.7493 162.808 31.4493C161.508 30.106 159.818 29.0876 157.738 28.3943C155.658 27.701 153.188 27.3543 150.328 27.3543C146.775 27.3543 143.655 27.9176 140.968 29.0443C138.281 30.1276 136.201 31.7526 134.728 33.9193C133.255 36.0426 132.518 38.686 132.518 41.8493C132.518 44.9693 133.255 47.591 134.728 49.7143C136.201 51.8376 138.281 53.4626 140.968 54.5893C143.655 55.6726 146.775 56.2143 150.328 56.2143C153.188 56.2143 155.636 55.8676 157.673 55.1743C159.753 54.481 161.443 53.4843 162.743 52.1843C164.086 50.8843 165.061 49.3676 165.668 47.6343H174.248ZM181.578 30.4743H190.028V62.7793H181.578V30.4743ZM202.443 37.4293C200.016 37.4293 197.914 37.906 196.138 38.8593C194.361 39.7693 192.931 40.896 191.848 42.2393C190.764 43.5826 190.006 44.8826 189.573 46.1393L189.508 42.5643C189.551 42.0443 189.724 41.286 190.028 40.2893C190.331 39.2493 190.786 38.1443 191.393 36.9743C191.999 35.761 192.801 34.6126 193.798 33.5293C194.794 32.4026 196.008 31.4926 197.438 30.7993C198.868 30.106 200.536 29.7593 202.443 29.7593V37.4293ZM237.112 52.0543H245.302C244.955 54.2643 244.023 56.236 242.507 57.9693C241.033 59.7026 239.018 61.0676 236.462 62.0643C233.905 63.061 230.785 63.5593 227.102 63.5593C222.985 63.5593 219.345 62.9093 216.182 61.6093C213.018 60.266 210.548 58.3376 208.772 55.8243C206.995 53.311 206.107 50.2776 206.107 46.7243C206.107 43.171 206.973 40.1376 208.707 37.6243C210.44 35.0676 212.845 33.1176 215.922 31.7743C219.042 30.431 222.682 29.7593 226.842 29.7593C231.088 29.7593 234.62 30.431 237.437 31.7743C240.253 33.1176 242.333 35.1543 243.677 37.8843C245.063 40.571 245.648 44.016 245.432 48.2193H214.622C214.838 49.866 215.445 51.361 216.442 52.7043C217.482 54.0476 218.868 55.1093 220.602 55.8893C222.378 56.6693 224.48 57.0593 226.907 57.0593C229.593 57.0593 231.825 56.6043 233.602 55.6943C235.422 54.741 236.592 53.5276 237.112 52.0543ZM226.452 36.1943C223.332 36.1943 220.797 36.8876 218.847 38.2743C216.897 39.6176 215.64 41.286 215.077 43.2793H237.047C236.83 41.1126 235.79 39.401 233.927 38.1443C232.107 36.8443 229.615 36.1943 226.452 36.1943ZM267.449 63.4943C264.199 63.4943 261.253 62.801 258.609 61.4143C256.009 59.9843 253.951 58.0126 252.434 55.4993C250.918 52.9426 250.159 49.996 250.159 46.6593C250.159 43.236 250.896 40.2676 252.369 37.7543C253.886 35.241 255.944 33.291 258.544 31.9043C261.144 30.4743 264.113 29.7593 267.449 29.7593C270.353 29.7593 272.823 30.1926 274.859 31.0593C276.896 31.926 278.543 33.1393 279.799 34.6993C281.056 36.216 281.966 37.9926 282.529 40.0293C283.136 42.066 283.439 44.276 283.439 46.6593C283.439 48.566 283.136 50.516 282.529 52.5093C281.923 54.4593 280.991 56.2793 279.734 57.9693C278.478 59.616 276.831 60.9593 274.794 61.9993C272.758 62.996 270.309 63.4943 267.449 63.4943ZM270.179 56.9943C272.736 56.9943 274.946 56.561 276.809 55.6943C278.673 54.8276 280.103 53.6143 281.099 52.0543C282.096 50.4943 282.594 48.696 282.594 46.6593C282.594 44.4493 282.074 42.586 281.034 41.0693C280.038 39.5093 278.608 38.3176 276.744 37.4943C274.924 36.671 272.736 36.2593 270.179 36.2593C266.583 36.2593 263.788 37.2126 261.794 39.1193C259.801 41.026 258.804 43.5393 258.804 46.6593C258.804 48.7393 259.281 50.5593 260.234 52.1193C261.188 53.636 262.509 54.8276 264.199 55.6943C265.933 56.561 267.926 56.9943 270.179 56.9943ZM282.594 17.4743H291.044V62.7793H283.179C283.049 61.7826 282.919 60.5043 282.789 58.9443C282.659 57.341 282.594 55.846 282.594 54.4593V17.4743ZM309.837 16.3043V23.7143H300.022V16.3043H309.837ZM300.672 30.4743H309.122V62.7793H300.672V30.4743ZM315.27 30.4743H340.36V37.0393H315.27V30.4743ZM323.59 21.6343H332.04V62.7793H323.59V21.6343ZM359.132 31.0593H385.132V37.4943H359.132V31.0593ZM378.892 17.4743H385.587V24.2993H380.907C379.65 24.256 378.567 24.386 377.657 24.6893C376.747 24.9926 376.054 25.556 375.577 26.3793C375.1 27.1593 374.862 28.286 374.862 29.7593V62.7793H366.412V28.7193C366.412 26.1193 366.889 23.996 367.842 22.3493C368.795 20.6593 370.204 19.4243 372.067 18.6443C373.93 17.8643 376.205 17.4743 378.892 17.4743ZM405.701 63.4943C402.495 63.4943 399.57 62.801 396.926 61.4143C394.326 59.9843 392.246 58.0126 390.686 55.4993C389.17 52.9426 388.411 49.996 388.411 46.6593C388.411 43.236 389.191 40.2676 390.751 37.7543C392.311 35.241 394.413 33.291 397.056 31.9043C399.743 30.4743 402.776 29.7593 406.156 29.7593C409.883 29.7593 412.873 30.5176 415.126 32.0343C417.423 33.5076 419.091 35.5226 420.131 38.0793C421.171 40.636 421.691 43.496 421.691 46.6593C421.691 48.566 421.388 50.516 420.781 52.5093C420.175 54.4593 419.243 56.2793 417.986 57.9693C416.73 59.616 415.083 60.9593 413.046 61.9993C411.01 62.996 408.561 63.4943 405.701 63.4943ZM408.431 56.9943C410.988 56.9943 413.198 56.561 415.061 55.6943C416.925 54.8276 418.355 53.6143 419.351 52.0543C420.348 50.4943 420.846 48.696 420.846 46.6593C420.846 44.4493 420.326 42.586 419.286 41.0693C418.29 39.5093 416.86 38.3393 414.996 37.5593C413.176 36.736 410.988 36.3243 408.431 36.3243C404.835 36.3243 402.04 37.2776 400.046 39.1843C398.053 41.0476 397.056 43.5393 397.056 46.6593C397.056 48.7393 397.533 50.5593 398.486 52.1193C399.44 53.636 400.761 54.8276 402.451 55.6943C404.185 56.561 406.178 56.9943 408.431 56.9943ZM420.846 30.4743H429.296V62.7793H421.431C421.431 62.7793 421.366 62.3676 421.236 61.5443C421.15 60.6776 421.063 59.5943 420.976 58.2943C420.89 56.9943 420.846 55.716 420.846 54.4593V30.4743ZM475.294 50.0393C475.077 52.856 474.167 55.2826 472.564 57.3193C471.004 59.356 468.837 60.916 466.064 61.9993C463.291 63.0393 459.997 63.5593 456.184 63.5593C452.197 63.5593 448.622 62.931 445.459 61.6743C442.339 60.3743 439.869 58.4893 438.049 56.0193C436.272 53.506 435.384 50.4076 435.384 46.7243C435.384 43.041 436.272 39.9426 438.049 37.4293C439.869 34.916 442.339 33.0093 445.459 31.7093C448.622 30.4093 452.197 29.7593 456.184 29.7593C459.997 29.7593 463.269 30.301 465.999 31.3843C468.729 32.4243 470.874 33.941 472.434 35.9343C474.037 37.9276 474.969 40.3326 475.229 43.1493H467.494C466.757 40.9826 465.392 39.2926 463.399 38.0793C461.406 36.866 459.001 36.2593 456.184 36.2593C453.931 36.2593 451.872 36.6493 450.009 37.4293C448.189 38.2093 446.716 39.3793 445.589 40.9393C444.506 42.456 443.964 44.3843 443.964 46.7243C443.964 49.021 444.506 50.9493 445.589 52.5093C446.672 54.026 448.146 55.1743 450.009 55.9543C451.872 56.691 453.931 57.0593 456.184 57.0593C459.217 57.0593 461.687 56.4526 463.594 55.2393C465.544 54.026 466.866 52.2926 467.559 50.0393H475.294ZM491.189 16.3043V23.7143H481.374V16.3043H491.189ZM482.024 30.4743H490.474V62.7793H482.024V30.4743ZM499.547 17.4743H507.997V62.7793H499.547V17.4743ZM526.229 16.3043V23.7143H516.414V16.3043H526.229ZM517.064 30.4743H525.514V62.7793H517.064V30.4743ZM531.661 30.4743H556.751V37.0393H531.661V30.4743ZM539.981 21.6343H548.431V62.7793H539.981V21.6343ZM559.195 30.4743H568.165L582.14 61.4793L574.86 62.7793L559.195 30.4743ZM598.715 30.4743L576.355 75.7793H567.58L577.135 57.9693L589.68 30.4743H598.715ZM617.037 31.0593H643.037V37.4943H617.037V31.0593ZM636.797 17.4743H643.492V24.2993H638.812C637.555 24.256 636.472 24.386 635.562 24.6893C634.652 24.9926 633.959 25.556 633.482 26.3793C633.005 27.1593 632.767 28.286 632.767 29.7593V62.7793H624.317V28.7193C624.317 26.1193 624.794 23.996 625.747 22.3493C626.7 20.6593 628.109 19.4243 629.972 18.6443C631.835 17.8643 634.11 17.4743 636.797 17.4743ZM666.922 63.5593C662.848 63.5593 659.252 62.9093 656.132 61.6093C653.055 60.3093 650.65 58.4243 648.917 55.9543C647.183 53.441 646.317 50.3643 646.317 46.7243C646.317 43.0843 647.183 40.0076 648.917 37.4943C650.65 34.9376 653.055 33.0093 656.132 31.7093C659.252 30.4093 662.848 29.7593 666.922 29.7593C670.995 29.7593 674.548 30.4093 677.582 31.7093C680.658 33.0093 683.063 34.9376 684.797 37.4943C686.53 40.0076 687.397 43.0843 687.397 46.7243C687.397 50.3643 686.53 53.441 684.797 55.9543C683.063 58.4243 680.658 60.3093 677.582 61.6093C674.548 62.9093 670.995 63.5593 666.922 63.5593ZM666.922 57.0593C669.175 57.0593 671.19 56.6693 672.967 55.8893C674.787 55.066 676.217 53.896 677.257 52.3793C678.297 50.8193 678.817 48.9343 678.817 46.7243C678.817 44.5143 678.297 42.6293 677.257 41.0693C676.217 39.466 674.808 38.2526 673.032 37.4293C671.255 36.606 669.218 36.1943 666.922 36.1943C664.668 36.1943 662.632 36.606 660.812 37.4293C658.992 38.2526 657.54 39.4443 656.457 41.0043C655.417 42.5643 654.897 44.471 654.897 46.7243C654.897 48.9343 655.417 50.8193 656.457 52.3793C657.497 53.896 658.927 55.066 660.747 55.8893C662.567 56.6693 664.625 57.0593 666.922 57.0593ZM693.643 30.4743H702.093V62.7793H693.643V30.4743ZM714.508 37.4293C712.081 37.4293 709.98 37.906 708.203 38.8593C706.426 39.7693 704.996 40.896 703.913 42.2393C702.83 43.5826 702.071 44.8826 701.638 46.1393L701.573 42.5643C701.616 42.0443 701.79 41.286 702.093 40.2893C702.396 39.2493 702.851 38.1443 703.458 36.9743C704.065 35.761 704.866 34.6126 705.863 33.5293C706.86 32.4026 708.073 31.4926 709.503 30.7993C710.933 30.106 712.601 29.7593 714.508 29.7593V37.4293ZM68.7847 97.3043V104.714H58.9697V97.3043H68.7847ZM59.6197 111.474H68.0697V143.779H59.6197V111.474ZM76.4923 111.474H84.9423V143.779H76.4923V111.474ZM99.9573 110.759C101.951 110.759 103.792 111.019 105.482 111.539C107.172 112.059 108.646 112.861 109.902 113.944C111.159 115.028 112.134 116.414 112.827 118.104C113.521 119.751 113.867 121.723 113.867 124.019V143.779H105.417V125.514C105.417 122.784 104.746 120.791 103.402 119.534C102.102 118.234 99.9573 117.584 96.9673 117.584C94.714 117.584 92.6773 118.018 90.8573 118.884C89.0373 119.751 87.564 120.856 86.4373 122.199C85.3106 123.499 84.6606 124.864 84.4873 126.294L84.4223 122.979C84.639 121.463 85.1373 119.989 85.9173 118.559C86.6973 117.129 87.7373 115.829 89.0373 114.659C90.3806 113.446 91.9623 112.493 93.7823 111.799C95.6023 111.106 97.6606 110.759 99.9573 110.759ZM119.286 111.474H144.376V118.039H119.286V111.474ZM127.606 102.634H136.056V143.779H127.606V102.634ZM178.745 133.054H186.935C186.588 135.264 185.657 137.236 184.14 138.969C182.667 140.703 180.652 142.068 178.095 143.064C175.538 144.061 172.418 144.559 168.735 144.559C164.618 144.559 160.978 143.909 157.815 142.609C154.652 141.266 152.182 139.338 150.405 136.824C148.628 134.311 147.74 131.278 147.74 127.724C147.74 124.171 148.607 121.138 150.34 118.624C152.073 116.068 154.478 114.118 157.555 112.774C160.675 111.431 164.315 110.759 168.475 110.759C172.722 110.759 176.253 111.431 179.07 112.774C181.887 114.118 183.967 116.154 185.31 118.884C186.697 121.571 187.282 125.016 187.065 129.219H156.255C156.472 130.866 157.078 132.361 158.075 133.704C159.115 135.048 160.502 136.109 162.235 136.889C164.012 137.669 166.113 138.059 168.54 138.059C171.227 138.059 173.458 137.604 175.235 136.694C177.055 135.741 178.225 134.528 178.745 133.054ZM168.085 117.194C164.965 117.194 162.43 117.888 160.48 119.274C158.53 120.618 157.273 122.286 156.71 124.279H178.68C178.463 122.113 177.423 120.401 175.56 119.144C173.74 117.844 171.248 117.194 168.085 117.194ZM193.353 111.474H201.803V143.779H193.353V111.474ZM214.218 118.429C211.791 118.429 209.689 118.906 207.913 119.859C206.136 120.769 204.706 121.896 203.623 123.239C202.539 124.583 201.781 125.883 201.348 127.139L201.283 123.564C201.326 123.044 201.499 122.286 201.803 121.289C202.106 120.249 202.561 119.144 203.168 117.974C203.774 116.761 204.576 115.613 205.573 114.529C206.569 113.403 207.783 112.493 209.213 111.799C210.643 111.106 212.311 110.759 214.218 110.759V118.429ZM219.442 111.474H227.892V143.779H219.442V111.474ZM242.907 110.759C244.9 110.759 246.742 111.019 248.432 111.539C250.122 112.059 251.595 112.861 252.852 113.944C254.108 115.028 255.083 116.414 255.777 118.104C256.47 119.751 256.817 121.723 256.817 124.019V143.779H248.367V125.514C248.367 122.784 247.695 120.791 246.352 119.534C245.052 118.234 242.907 117.584 239.917 117.584C237.663 117.584 235.627 118.018 233.807 118.884C231.987 119.751 230.513 120.856 229.387 122.199C228.26 123.499 227.61 124.864 227.437 126.294L227.372 122.979C227.588 121.463 228.087 119.989 228.867 118.559C229.647 117.129 230.687 115.829 231.987 114.659C233.33 113.446 234.912 112.493 236.732 111.799C238.552 111.106 240.61 110.759 242.907 110.759ZM280.24 144.494C277.033 144.494 274.108 143.801 271.465 142.414C268.865 140.984 266.785 139.013 265.225 136.499C263.708 133.943 262.95 130.996 262.95 127.659C262.95 124.236 263.73 121.268 265.29 118.754C266.85 116.241 268.952 114.291 271.595 112.904C274.282 111.474 277.315 110.759 280.695 110.759C284.422 110.759 287.412 111.518 289.665 113.034C291.962 114.508 293.63 116.523 294.67 119.079C295.71 121.636 296.23 124.496 296.23 127.659C296.23 129.566 295.927 131.516 295.32 133.509C294.713 135.459 293.782 137.279 292.525 138.969C291.268 140.616 289.622 141.959 287.585 142.999C285.548 143.996 283.1 144.494 280.24 144.494ZM282.97 137.994C285.527 137.994 287.737 137.561 289.6 136.694C291.463 135.828 292.893 134.614 293.89 133.054C294.887 131.494 295.385 129.696 295.385 127.659C295.385 125.449 294.865 123.586 293.825 122.069C292.828 120.509 291.398 119.339 289.535 118.559C287.715 117.736 285.527 117.324 282.97 117.324C279.373 117.324 276.578 118.278 274.585 120.184C272.592 122.048 271.595 124.539 271.595 127.659C271.595 129.739 272.072 131.559 273.025 133.119C273.978 134.636 275.3 135.828 276.99 136.694C278.723 137.561 280.717 137.994 282.97 137.994ZM295.385 111.474H303.835V143.779H295.97C295.97 143.779 295.905 143.368 295.775 142.544C295.688 141.678 295.602 140.594 295.515 139.294C295.428 137.994 295.385 136.716 295.385 135.459V111.474ZM309.208 111.474H334.298V118.039H309.208V111.474ZM317.528 102.634H325.978V143.779H317.528V102.634ZM349.351 97.3043V104.714H339.536V97.3043H349.351ZM340.186 111.474H348.636V143.779H340.186V111.474ZM376.104 144.559C372.03 144.559 368.434 143.909 365.314 142.609C362.237 141.309 359.832 139.424 358.099 136.954C356.365 134.441 355.499 131.364 355.499 127.724C355.499 124.084 356.365 121.008 358.099 118.494C359.832 115.938 362.237 114.009 365.314 112.709C368.434 111.409 372.03 110.759 376.104 110.759C380.177 110.759 383.73 111.409 386.764 112.709C389.84 114.009 392.245 115.938 393.979 118.494C395.712 121.008 396.579 124.084 396.579 127.724C396.579 131.364 395.712 134.441 393.979 136.954C392.245 139.424 389.84 141.309 386.764 142.609C383.73 143.909 380.177 144.559 376.104 144.559ZM376.104 138.059C378.357 138.059 380.372 137.669 382.149 136.889C383.969 136.066 385.399 134.896 386.439 133.379C387.479 131.819 387.999 129.934 387.999 127.724C387.999 125.514 387.479 123.629 386.439 122.069C385.399 120.466 383.99 119.253 382.214 118.429C380.437 117.606 378.4 117.194 376.104 117.194C373.85 117.194 371.814 117.606 369.994 118.429C368.174 119.253 366.722 120.444 365.639 122.004C364.599 123.564 364.079 125.471 364.079 127.724C364.079 129.934 364.599 131.819 365.639 133.379C366.679 134.896 368.109 136.066 369.929 136.889C371.749 137.669 373.807 138.059 376.104 138.059ZM402.825 111.474H411.275V143.779H402.825V111.474ZM426.29 110.759C428.284 110.759 430.125 111.019 431.815 111.539C433.505 112.059 434.979 112.861 436.235 113.944C437.492 115.028 438.467 116.414 439.16 118.104C439.854 119.751 440.2 121.723 440.2 124.019V143.779H431.75V125.514C431.75 122.784 431.079 120.791 429.735 119.534C428.435 118.234 426.29 117.584 423.3 117.584C421.047 117.584 419.01 118.018 417.19 118.884C415.37 119.751 413.897 120.856 412.77 122.199C411.644 123.499 410.994 124.864 410.82 126.294L410.755 122.979C410.972 121.463 411.47 119.989 412.25 118.559C413.03 117.129 414.07 115.829 415.37 114.659C416.714 113.446 418.295 112.493 420.115 111.799C421.935 111.106 423.994 110.759 426.29 110.759ZM463.624 144.494C460.417 144.494 457.492 143.801 454.849 142.414C452.249 140.984 450.169 139.013 448.609 136.499C447.092 133.943 446.334 130.996 446.334 127.659C446.334 124.236 447.114 121.268 448.674 118.754C450.234 116.241 452.335 114.291 454.979 112.904C457.665 111.474 460.699 110.759 464.079 110.759C467.805 110.759 470.795 111.518 473.049 113.034C475.345 114.508 477.014 116.523 478.054 119.079C479.094 121.636 479.614 124.496 479.614 127.659C479.614 129.566 479.31 131.516 478.704 133.509C478.097 135.459 477.165 137.279 475.909 138.969C474.652 140.616 473.005 141.959 470.969 142.999C468.932 143.996 466.484 144.494 463.624 144.494ZM466.354 137.994C468.91 137.994 471.12 137.561 472.984 136.694C474.847 135.828 476.277 134.614 477.274 133.054C478.27 131.494 478.769 129.696 478.769 127.659C478.769 125.449 478.249 123.586 477.209 122.069C476.212 120.509 474.782 119.339 472.919 118.559C471.099 117.736 468.91 117.324 466.354 117.324C462.757 117.324 459.962 118.278 457.969 120.184C455.975 122.048 454.979 124.539 454.979 127.659C454.979 129.739 455.455 131.559 456.409 133.119C457.362 134.636 458.684 135.828 460.374 136.694C462.107 137.561 464.1 137.994 466.354 137.994ZM478.769 111.474H487.219V143.779H479.354C479.354 143.779 479.289 143.368 479.159 142.544C479.072 141.678 478.985 140.594 478.899 139.294C478.812 137.994 478.769 136.716 478.769 135.459V111.474ZM495.516 98.4743H503.966V143.779H495.516V98.4743ZM526.892 133.054H534.692C535.168 134.528 536.143 135.741 537.617 136.694C539.133 137.604 541.105 138.059 543.532 138.059C545.178 138.059 546.457 137.908 547.367 137.604C548.277 137.301 548.905 136.868 549.252 136.304C549.598 135.698 549.772 135.026 549.772 134.289C549.772 133.379 549.49 132.686 548.927 132.209C548.363 131.689 547.497 131.278 546.327 130.974C545.157 130.671 543.662 130.389 541.842 130.129C540.022 129.826 538.267 129.458 536.577 129.024C534.887 128.591 533.392 128.028 532.092 127.334C530.792 126.598 529.752 125.688 528.972 124.604C528.235 123.478 527.867 122.113 527.867 120.509C527.867 118.949 528.235 117.563 528.972 116.349C529.752 115.136 530.813 114.118 532.157 113.294C533.543 112.471 535.147 111.843 536.967 111.409C538.83 110.976 540.823 110.759 542.947 110.759C546.153 110.759 548.818 111.236 550.942 112.189C553.065 113.099 554.647 114.399 555.687 116.089C556.77 117.736 557.312 119.643 557.312 121.809H549.837C549.49 120.206 548.797 119.058 547.757 118.364C546.717 117.628 545.113 117.259 542.947 117.259C540.823 117.259 539.22 117.584 538.137 118.234C537.053 118.884 536.512 119.773 536.512 120.899C536.512 121.809 536.837 122.524 537.487 123.044C538.18 123.521 539.177 123.911 540.477 124.214C541.82 124.518 543.488 124.843 545.482 125.189C547.172 125.536 548.775 125.926 550.292 126.359C551.852 126.793 553.238 127.356 554.452 128.049C555.665 128.699 556.618 129.588 557.312 130.714C558.048 131.798 558.417 133.184 558.417 134.874C558.417 136.954 557.81 138.709 556.597 140.139C555.427 141.569 553.737 142.674 551.527 143.454C549.317 144.191 546.673 144.559 543.597 144.559C540.867 144.559 538.505 144.278 536.512 143.714C534.562 143.108 532.937 142.349 531.637 141.439C530.337 140.486 529.318 139.489 528.582 138.449C527.888 137.366 527.412 136.348 527.152 135.394C526.892 134.441 526.805 133.661 526.892 133.054ZM562.606 111.474H587.696V118.039H562.606V111.474ZM570.926 102.634H579.376V143.779H570.926V102.634ZM630.44 143.779H621.99V111.474H630.44V143.779ZM622.445 128.244L622.51 130.454C622.423 131.061 622.206 131.949 621.86 133.119C621.513 134.246 620.971 135.459 620.235 136.759C619.541 138.059 618.631 139.316 617.505 140.529C616.378 141.699 614.991 142.674 613.345 143.454C611.698 144.191 609.748 144.559 607.495 144.559C605.718 144.559 603.963 144.343 602.23 143.909C600.54 143.476 599.001 142.761 597.615 141.764C596.228 140.724 595.123 139.338 594.3 137.604C593.476 135.871 593.065 133.683 593.065 131.039V111.474H601.515V129.609C601.515 131.689 601.84 133.336 602.49 134.549C603.183 135.719 604.18 136.543 605.48 137.019C606.78 137.496 608.318 137.734 610.095 137.734C612.435 137.734 614.45 137.236 616.14 136.239C617.83 135.199 619.195 133.943 620.235 132.469C621.318 130.996 622.055 129.588 622.445 128.244ZM653.863 144.494C650.613 144.494 647.666 143.801 645.023 142.414C642.423 140.984 640.365 139.013 638.848 136.499C637.331 133.943 636.573 130.996 636.573 127.659C636.573 124.236 637.31 121.268 638.783 118.754C640.3 116.241 642.358 114.291 644.958 112.904C647.558 111.474 650.526 110.759 653.863 110.759C656.766 110.759 659.236 111.193 661.273 112.059C663.31 112.926 664.956 114.139 666.213 115.699C667.47 117.216 668.38 118.993 668.943 121.029C669.55 123.066 669.853 125.276 669.853 127.659C669.853 129.566 669.55 131.516 668.943 133.509C668.336 135.459 667.405 137.279 666.148 138.969C664.891 140.616 663.245 141.959 661.208 142.999C659.171 143.996 656.723 144.494 653.863 144.494ZM656.593 137.994C659.15 137.994 661.36 137.561 663.223 136.694C665.086 135.828 666.516 134.614 667.513 133.054C668.51 131.494 669.008 129.696 669.008 127.659C669.008 125.449 668.488 123.586 667.448 122.069C666.451 120.509 665.021 119.318 663.158 118.494C661.338 117.671 659.15 117.259 656.593 117.259C652.996 117.259 650.201 118.213 648.208 120.119C646.215 122.026 645.218 124.539 645.218 127.659C645.218 129.739 645.695 131.559 646.648 133.119C647.601 134.636 648.923 135.828 650.613 136.694C652.346 137.561 654.34 137.994 656.593 137.994ZM669.008 98.4743H677.458V143.779H669.593C669.463 142.783 669.333 141.504 669.203 139.944C669.073 138.341 669.008 136.846 669.008 135.459V98.4743ZM696.251 97.3043V104.714H686.436V97.3043H696.251ZM687.086 111.474H695.536V143.779H687.086V111.474ZM733.403 133.054H741.593C741.246 135.264 740.315 137.236 738.798 138.969C737.325 140.703 735.31 142.068 732.753 143.064C730.196 144.061 727.076 144.559 723.393 144.559C719.276 144.559 715.636 143.909 712.473 142.609C709.31 141.266 706.84 139.338 705.063 136.824C703.286 134.311 702.398 131.278 702.398 127.724C702.398 124.171 703.265 121.138 704.998 118.624C706.731 116.068 709.136 114.118 712.213 112.774C715.333 111.431 718.973 110.759 723.133 110.759C727.38 110.759 730.911 111.431 733.728 112.774C736.545 114.118 738.625 116.154 739.968 118.884C741.355 121.571 741.94 125.016 741.723 129.219H710.913C711.13 130.866 711.736 132.361 712.733 133.704C713.773 135.048 715.16 136.109 716.893 136.889C718.67 137.669 720.771 138.059 723.198 138.059C725.885 138.059 728.116 137.604 729.893 136.694C731.713 135.741 732.883 134.528 733.403 133.054ZM722.743 117.194C719.623 117.194 717.088 117.888 715.138 119.274C713.188 120.618 711.931 122.286 711.368 124.279H733.338C733.121 122.113 732.081 120.401 730.218 119.144C728.398 117.844 725.906 117.194 722.743 117.194ZM746.711 133.054H754.511C754.988 134.528 755.963 135.741 757.436 136.694C758.953 137.604 760.924 138.059 763.351 138.059C764.998 138.059 766.276 137.908 767.186 137.604C768.096 137.301 768.724 136.868 769.071 136.304C769.418 135.698 769.591 135.026 769.591 134.289C769.591 133.379 769.309 132.686 768.746 132.209C768.183 131.689 767.316 131.278 766.146 130.974C764.976 130.671 763.481 130.389 761.661 130.129C759.841 129.826 758.086 129.458 756.396 129.024C754.706 128.591 753.211 128.028 751.911 127.334C750.611 126.598 749.571 125.688 748.791 124.604C748.054 123.478 747.686 122.113 747.686 120.509C747.686 118.949 748.054 117.563 748.791 116.349C749.571 115.136 750.633 114.118 751.976 113.294C753.363 112.471 754.966 111.843 756.786 111.409C758.649 110.976 760.643 110.759 762.766 110.759C765.973 110.759 768.638 111.236 770.761 112.189C772.884 113.099 774.466 114.399 775.506 116.089C776.589 117.736 777.131 119.643 777.131 121.809H769.656C769.309 120.206 768.616 119.058 767.576 118.364C766.536 117.628 764.933 117.259 762.766 117.259C760.643 117.259 759.039 117.584 757.956 118.234C756.873 118.884 756.331 119.773 756.331 120.899C756.331 121.809 756.656 122.524 757.306 123.044C757.999 123.521 758.996 123.911 760.296 124.214C761.639 124.518 763.308 124.843 765.301 125.189C766.991 125.536 768.594 125.926 770.111 126.359C771.671 126.793 773.058 127.356 774.271 128.049C775.484 128.699 776.438 129.588 777.131 130.714C777.868 131.798 778.236 133.184 778.236 134.874C778.236 136.954 777.629 138.709 776.416 140.139C775.246 141.569 773.556 142.674 771.346 143.454C769.136 144.191 766.493 144.559 763.416 144.559C760.686 144.559 758.324 144.278 756.331 143.714C754.381 143.108 752.756 142.349 751.456 141.439C750.156 140.486 749.138 139.489 748.401 138.449C747.708 137.366 747.231 136.348 746.971 135.394C746.711 134.441 746.624 133.661 746.711 133.054Z" fill="white"/>
</g>
<defs>
<clipPath id="clip0_12304_23076">
<rect width="835.271" height="169.945" fill="white" transform="translate(0.364258 0.779297)"/>
</clipPath>
</defs>
</svg>
