<svg width="344" height="256" viewBox="0 0 344 256" fill="none" xmlns="http://www.w3.org/2000/svg">
<g clip-path="url(#clip0_19951_97069)">
<g clip-path="url(#clip1_19951_97069)">
<rect y="46.166" width="56.9569" height="56.9569" rx="8.37602" fill="#FEF1F1"/>
<g clip-path="url(#clip2_19951_97069)">
<path d="M37.5318 74.125H19.9839C19.1029 74.125 18.3887 74.8392 18.3887 75.7203V83.6966C18.3887 84.5776 19.1029 85.2918 19.9839 85.2918H37.5318C38.4129 85.2918 39.1271 84.5776 39.1271 83.6966V75.7203C39.1271 74.8392 38.4129 74.125 37.5318 74.125Z" stroke="#EF4444" stroke-width="1.59526" stroke-linecap="round" stroke-linejoin="round"/>
<path d="M23.1738 66.9466V70.1371M28.7572 64.5537V70.1371M34.3407 66.9466V70.1371" stroke="#EF4444" stroke-width="1.59526" stroke-linecap="round" stroke-linejoin="round"/>
<path d="M28.7572 82.1022C30.0787 82.1022 31.15 81.0309 31.15 79.7093C31.15 78.3877 30.0787 77.3164 28.7572 77.3164C27.4356 77.3164 26.3643 78.3877 26.3643 79.7093C26.3643 81.0309 27.4356 82.1022 28.7572 82.1022Z" stroke="#EF4444" stroke-width="1.59526" stroke-linecap="round" stroke-linejoin="round"/>
</g>
</g>
<path d="M7.78 130.94C9.18 130.94 10.3533 131.114 11.3 131.46C12.2467 131.807 13 132.28 13.56 132.88C14.12 133.467 14.52 134.147 14.76 134.92C15.0133 135.694 15.14 136.507 15.14 137.36C15.14 138.227 15.0067 139.054 14.74 139.84C14.4733 140.627 14.0467 141.327 13.46 141.94C12.8867 142.54 12.1333 143.02 11.2 143.38C10.2667 143.727 9.12667 143.9 7.78 143.9H1.56V130.94H7.78ZM3.84 141.9H7.76C8.74667 141.9 9.56667 141.774 10.22 141.52C10.8733 141.267 11.3933 140.927 11.78 140.5C12.1667 140.06 12.44 139.574 12.6 139.04C12.76 138.494 12.84 137.934 12.84 137.36C12.84 136.787 12.76 136.24 12.6 135.72C12.44 135.187 12.1667 134.714 11.78 134.3C11.3933 133.874 10.8733 133.54 10.22 133.3C9.56667 133.047 8.74667 132.92 7.76 132.92H3.84V141.9ZM21.8323 144.12C20.9257 144.12 20.0923 143.9 19.3323 143.46C18.5857 143.02 17.9857 142.414 17.5323 141.64C17.0923 140.854 16.8723 139.954 16.8723 138.94C16.8723 137.9 17.099 136.994 17.5523 136.22C18.0057 135.434 18.619 134.82 19.3923 134.38C20.1657 133.94 21.0323 133.72 21.9923 133.72C23.059 133.72 23.9057 133.954 24.5323 134.42C25.159 134.887 25.6057 135.514 25.8723 136.3C26.139 137.087 26.2723 137.967 26.2723 138.94C26.2723 139.487 26.1923 140.067 26.0323 140.68C25.8723 141.28 25.619 141.84 25.2723 142.36C24.939 142.88 24.4857 143.307 23.9123 143.64C23.3523 143.96 22.659 144.12 21.8323 144.12ZM22.5123 142.28C23.259 142.28 23.8923 142.14 24.4123 141.86C24.9457 141.567 25.3457 141.167 25.6123 140.66C25.8923 140.154 26.0323 139.58 26.0323 138.94C26.0323 138.234 25.8923 137.634 25.6123 137.14C25.3323 136.634 24.9323 136.247 24.4123 135.98C23.8923 135.7 23.259 135.56 22.5123 135.56C21.4457 135.56 20.619 135.874 20.0323 136.5C19.4457 137.127 19.1523 137.94 19.1523 138.94C19.1523 139.594 19.2923 140.174 19.5723 140.68C19.8657 141.187 20.2657 141.58 20.7723 141.86C21.279 142.14 21.859 142.28 22.5123 142.28ZM26.0323 133.94H28.2723V143.9H26.1923C26.1923 143.9 26.179 143.774 26.1523 143.52C26.1257 143.267 26.099 142.96 26.0723 142.6C26.0457 142.227 26.0323 141.874 26.0323 141.54V133.94ZM33.3127 129.72V131.86H30.6527V129.72H33.3127ZM30.8527 133.94H33.0927V143.9H30.8527V133.94ZM35.9517 129.94H38.1717V143.9H35.9517V129.94ZM39.9689 133.94H42.3489L46.3689 143.5L44.4489 143.9L39.9689 133.94ZM51.0689 133.94L44.6689 147.9H42.3289L45.0689 142.44L48.6889 133.94H51.0689ZM59.8752 129.72V131.86H57.2152V129.72H59.8752ZM57.4152 133.94H59.6552V143.9H57.4152V133.94ZM62.3142 133.94H64.5342V143.9H62.3142V133.94ZM68.7342 133.72C69.3076 133.72 69.8342 133.8 70.3142 133.96C70.8076 134.12 71.2276 134.367 71.5742 134.7C71.9342 135.02 72.2076 135.42 72.3942 135.9C72.5942 136.38 72.6942 136.947 72.6942 137.6V143.9H70.4742V138.04C70.4742 137.227 70.2742 136.627 69.8742 136.24C69.4876 135.84 68.8742 135.64 68.0342 135.64C67.3942 135.64 66.8076 135.78 66.2742 136.06C65.7542 136.327 65.3276 136.68 64.9942 137.12C64.6609 137.547 64.4676 138.02 64.4142 138.54L64.3942 137.46C64.4609 136.967 64.6076 136.5 64.8342 136.06C65.0609 135.607 65.3609 135.207 65.7342 134.86C66.1076 134.5 66.5476 134.22 67.0542 134.02C67.5609 133.82 68.1209 133.72 68.7342 133.72ZM74.4463 133.94H81.4863V135.76H74.4463V133.94ZM76.8462 131.26H79.0863V143.9H76.8462V131.26ZM91.3959 140.62H93.5359C93.4293 141.3 93.1626 141.907 92.7359 142.44C92.3226 142.96 91.7559 143.374 91.0359 143.68C90.3159 143.974 89.4559 144.12 88.4559 144.12C87.3226 144.12 86.3093 143.914 85.4159 143.5C84.5226 143.074 83.8226 142.474 83.3159 141.7C82.8093 140.927 82.5559 140.007 82.5559 138.94C82.5559 137.887 82.8026 136.967 83.2959 136.18C83.7893 135.394 84.4693 134.787 85.3359 134.36C86.2159 133.934 87.2293 133.72 88.3759 133.72C89.5626 133.72 90.5493 133.934 91.3359 134.36C92.1359 134.774 92.7293 135.4 93.1159 136.24C93.5026 137.067 93.6626 138.114 93.5959 139.38H84.8159C84.8826 139.94 85.0626 140.447 85.3559 140.9C85.6626 141.34 86.0759 141.687 86.5959 141.94C87.1159 142.18 87.7226 142.3 88.4159 142.3C89.1893 142.3 89.8359 142.147 90.3559 141.84C90.8893 141.534 91.2359 141.127 91.3959 140.62ZM88.3159 135.52C87.4093 135.52 86.6626 135.747 86.0759 136.2C85.4893 136.64 85.1093 137.207 84.9359 137.9H91.3559C91.3026 137.154 91.0026 136.574 90.4559 136.16C89.9093 135.734 89.1959 135.52 88.3159 135.52ZM95.5759 133.94H97.7959V143.9H95.5759V133.94ZM101.396 135.84C100.676 135.84 100.056 135.994 99.5359 136.3C99.0293 136.607 98.6226 136.98 98.3159 137.42C98.0093 137.86 97.7959 138.287 97.6759 138.7L97.6559 137.58C97.6693 137.434 97.7159 137.214 97.7959 136.92C97.8759 136.614 97.9959 136.28 98.1559 135.92C98.3293 135.56 98.5559 135.214 98.8359 134.88C99.1293 134.534 99.4826 134.254 99.8959 134.04C100.323 133.827 100.823 133.72 101.396 133.72V135.84ZM111.396 140.62H113.536C113.429 141.3 113.163 141.907 112.736 142.44C112.323 142.96 111.756 143.374 111.036 143.68C110.316 143.974 109.456 144.12 108.456 144.12C107.323 144.12 106.309 143.914 105.416 143.5C104.523 143.074 103.823 142.474 103.316 141.7C102.809 140.927 102.556 140.007 102.556 138.94C102.556 137.887 102.803 136.967 103.296 136.18C103.789 135.394 104.469 134.787 105.336 134.36C106.216 133.934 107.229 133.72 108.376 133.72C109.563 133.72 110.549 133.934 111.336 134.36C112.136 134.774 112.729 135.4 113.116 136.24C113.503 137.067 113.663 138.114 113.596 139.38H104.816C104.883 139.94 105.063 140.447 105.356 140.9C105.663 141.34 106.076 141.687 106.596 141.94C107.116 142.18 107.723 142.3 108.416 142.3C109.189 142.3 109.836 142.147 110.356 141.84C110.889 141.534 111.236 141.127 111.396 140.62ZM108.316 135.52C107.409 135.52 106.663 135.747 106.076 136.2C105.489 136.64 105.109 137.207 104.936 137.9H111.356C111.303 137.154 111.003 136.574 110.456 136.16C109.909 135.734 109.196 135.52 108.316 135.52ZM115.136 140.62H117.196C117.303 141.127 117.576 141.54 118.016 141.86C118.456 142.167 119.049 142.32 119.796 142.32C120.276 142.32 120.649 142.267 120.916 142.16C121.196 142.054 121.389 141.907 121.496 141.72C121.616 141.534 121.676 141.32 121.676 141.08C121.676 140.787 121.589 140.56 121.416 140.4C121.256 140.24 121.016 140.107 120.696 140C120.376 139.894 119.976 139.8 119.496 139.72C119.003 139.6 118.516 139.467 118.036 139.32C117.556 139.174 117.123 138.994 116.736 138.78C116.349 138.554 116.043 138.274 115.816 137.94C115.603 137.594 115.496 137.174 115.496 136.68C115.496 136.227 115.596 135.82 115.796 135.46C116.009 135.087 116.303 134.774 116.676 134.52C117.049 134.267 117.489 134.074 117.996 133.94C118.503 133.794 119.056 133.72 119.656 133.72C120.523 133.72 121.243 133.86 121.816 134.14C122.403 134.42 122.843 134.814 123.136 135.32C123.443 135.827 123.596 136.407 123.596 137.06H121.636C121.529 136.527 121.323 136.14 121.016 135.9C120.709 135.66 120.249 135.54 119.636 135.54C119.023 135.54 118.556 135.647 118.236 135.86C117.916 136.074 117.756 136.367 117.756 136.74C117.756 137.02 117.856 137.247 118.056 137.42C118.269 137.58 118.569 137.72 118.956 137.84C119.343 137.96 119.796 138.08 120.316 138.2C120.796 138.334 121.249 138.474 121.676 138.62C122.103 138.754 122.483 138.927 122.816 139.14C123.163 139.34 123.436 139.607 123.636 139.94C123.836 140.274 123.936 140.687 123.936 141.18C123.936 141.794 123.769 142.32 123.436 142.76C123.116 143.2 122.649 143.54 122.036 143.78C121.423 144.007 120.683 144.12 119.816 144.12C119.056 144.12 118.396 144.034 117.836 143.86C117.289 143.687 116.829 143.46 116.456 143.18C116.096 142.9 115.816 142.6 115.616 142.28C115.416 141.96 115.276 141.654 115.196 141.36C115.129 141.067 115.109 140.82 115.136 140.62ZM125.247 133.94H132.287V135.76H125.247V133.94ZM127.647 131.26H129.887V143.9H127.647V131.26ZM143.942 144.12C142.836 144.12 141.842 143.92 140.962 143.52C140.082 143.12 139.389 142.534 138.882 141.76C138.376 140.987 138.122 140.047 138.122 138.94C138.122 137.847 138.376 136.914 138.882 136.14C139.389 135.354 140.082 134.754 140.962 134.34C141.842 133.927 142.836 133.72 143.942 133.72C145.049 133.72 146.036 133.927 146.902 134.34C147.769 134.754 148.449 135.354 148.942 136.14C149.449 136.914 149.702 137.847 149.702 138.94C149.702 140.047 149.449 140.987 148.942 141.76C148.449 142.534 147.769 143.12 146.902 143.52C146.036 143.92 145.049 144.12 143.942 144.12ZM143.942 142.3C144.582 142.3 145.169 142.174 145.702 141.92C146.236 141.667 146.656 141.287 146.962 140.78C147.282 140.274 147.442 139.66 147.442 138.94C147.442 138.22 147.282 137.607 146.962 137.1C146.656 136.594 146.236 136.207 145.702 135.94C145.182 135.66 144.596 135.52 143.942 135.52C143.289 135.52 142.696 135.654 142.162 135.92C141.629 136.187 141.196 136.574 140.862 137.08C140.542 137.587 140.382 138.207 140.382 138.94C140.382 139.66 140.542 140.274 140.862 140.78C141.182 141.287 141.609 141.667 142.142 141.92C142.689 142.174 143.289 142.3 143.942 142.3ZM151.689 133.94H153.909V143.9H151.689V133.94ZM158.109 133.72C158.683 133.72 159.209 133.8 159.689 133.96C160.183 134.12 160.603 134.367 160.949 134.7C161.309 135.02 161.583 135.42 161.769 135.9C161.969 136.38 162.069 136.947 162.069 137.6V143.9H159.849V138.04C159.849 137.227 159.649 136.627 159.249 136.24C158.863 135.84 158.249 135.64 157.409 135.64C156.769 135.64 156.183 135.78 155.649 136.06C155.129 136.327 154.703 136.68 154.369 137.12C154.036 137.547 153.843 138.02 153.789 138.54L153.769 137.46C153.836 136.967 153.983 136.5 154.209 136.06C154.436 135.607 154.736 135.207 155.109 134.86C155.483 134.5 155.923 134.22 156.429 134.02C156.936 133.82 157.496 133.72 158.109 133.72ZM168.591 139.6H170.811C170.864 140.094 171.057 140.54 171.391 140.94C171.737 141.327 172.191 141.634 172.751 141.86C173.324 142.074 173.977 142.18 174.711 142.18C175.364 142.18 175.904 142.1 176.331 141.94C176.757 141.78 177.071 141.56 177.271 141.28C177.484 140.987 177.591 140.647 177.591 140.26C177.591 139.874 177.464 139.574 177.211 139.36C176.971 139.134 176.597 138.947 176.091 138.8C175.584 138.64 174.937 138.487 174.151 138.34C173.497 138.22 172.864 138.06 172.251 137.86C171.637 137.66 171.084 137.407 170.591 137.1C170.111 136.794 169.731 136.42 169.451 135.98C169.171 135.527 169.031 134.994 169.031 134.38C169.031 133.687 169.224 133.06 169.611 132.5C170.011 131.94 170.597 131.5 171.371 131.18C172.144 130.86 173.084 130.7 174.191 130.7C175.884 130.7 177.177 131.094 178.071 131.88C178.964 132.654 179.397 133.707 179.371 135.04H177.191C177.151 134.2 176.844 133.594 176.271 133.22C175.697 132.847 174.971 132.66 174.091 132.66C173.304 132.66 172.644 132.8 172.111 133.08C171.577 133.36 171.311 133.814 171.311 134.44C171.311 134.707 171.371 134.94 171.491 135.14C171.624 135.327 171.837 135.5 172.131 135.66C172.424 135.807 172.824 135.954 173.331 136.1C173.851 136.234 174.484 136.38 175.231 136.54C175.871 136.647 176.471 136.794 177.031 136.98C177.591 137.167 178.077 137.4 178.491 137.68C178.917 137.96 179.251 138.32 179.491 138.76C179.731 139.2 179.851 139.74 179.851 140.38C179.851 141.114 179.664 141.767 179.291 142.34C178.917 142.9 178.344 143.347 177.571 143.68C176.811 144 175.824 144.16 174.611 144.16C173.691 144.16 172.884 144.054 172.191 143.84C171.511 143.614 170.931 143.327 170.451 142.98C169.971 142.62 169.584 142.234 169.291 141.82C169.011 141.407 168.811 141.007 168.691 140.62C168.584 140.22 168.551 139.88 168.591 139.6ZM186.325 144.12C185.418 144.12 184.585 143.9 183.825 143.46C183.078 143.02 182.478 142.414 182.025 141.64C181.585 140.854 181.365 139.954 181.365 138.94C181.365 137.9 181.591 136.994 182.045 136.22C182.498 135.434 183.111 134.82 183.885 134.38C184.658 133.94 185.525 133.72 186.485 133.72C187.551 133.72 188.398 133.954 189.025 134.42C189.651 134.887 190.098 135.514 190.365 136.3C190.631 137.087 190.765 137.967 190.765 138.94C190.765 139.487 190.685 140.067 190.525 140.68C190.365 141.28 190.111 141.84 189.765 142.36C189.431 142.88 188.978 143.307 188.405 143.64C187.845 143.96 187.151 144.12 186.325 144.12ZM187.005 142.28C187.751 142.28 188.385 142.14 188.905 141.86C189.438 141.567 189.838 141.167 190.105 140.66C190.385 140.154 190.525 139.58 190.525 138.94C190.525 138.234 190.385 137.634 190.105 137.14C189.825 136.634 189.425 136.247 188.905 135.98C188.385 135.7 187.751 135.56 187.005 135.56C185.938 135.56 185.111 135.874 184.525 136.5C183.938 137.127 183.645 137.94 183.645 138.94C183.645 139.594 183.785 140.174 184.065 140.68C184.358 141.187 184.758 141.58 185.265 141.86C185.771 142.14 186.351 142.28 187.005 142.28ZM190.525 133.94H192.765V143.9H190.685C190.685 143.9 190.671 143.774 190.645 143.52C190.618 143.267 190.591 142.96 190.565 142.6C190.538 142.227 190.525 141.874 190.525 141.54V133.94ZM200.085 142.32H199.305L202.745 133.94H205.165L200.765 143.9H198.645L194.305 133.94H196.745L200.085 142.32ZM209.367 129.72V131.86H206.707V129.72H209.367ZM206.907 133.94H209.147V143.9H206.907V133.94ZM211.806 133.94H214.026V143.9H211.806V133.94ZM218.226 133.72C218.8 133.72 219.326 133.8 219.806 133.96C220.3 134.12 220.72 134.367 221.066 134.7C221.426 135.02 221.7 135.42 221.886 135.9C222.086 136.38 222.186 136.947 222.186 137.6V143.9H219.966V138.04C219.966 137.227 219.766 136.627 219.366 136.24C218.98 135.84 218.366 135.64 217.526 135.64C216.886 135.64 216.3 135.78 215.766 136.06C215.246 136.327 214.82 136.68 214.486 137.12C214.153 137.547 213.96 138.02 213.906 138.54L213.886 137.46C213.953 136.967 214.1 136.5 214.326 136.06C214.553 135.607 214.853 135.207 215.226 134.86C215.6 134.5 216.04 134.22 216.546 134.02C217.053 133.82 217.613 133.72 218.226 133.72ZM229.078 142.36C228.145 142.36 227.298 142.194 226.538 141.86C225.792 141.527 225.198 141.04 224.758 140.4C224.332 139.76 224.118 138.994 224.118 138.1C224.118 137.207 224.325 136.434 224.738 135.78C225.165 135.127 225.752 134.62 226.498 134.26C227.258 133.9 228.118 133.72 229.078 133.72C229.358 133.72 229.625 133.74 229.878 133.78C230.145 133.82 230.398 133.874 230.638 133.94L235.298 133.96V135.82C234.658 135.834 234.012 135.747 233.358 135.56C232.718 135.36 232.152 135.154 231.658 134.94L231.598 134.82C232.052 135.047 232.458 135.327 232.818 135.66C233.192 135.98 233.485 136.347 233.698 136.76C233.912 137.174 234.018 137.64 234.018 138.16C234.018 139.04 233.805 139.794 233.378 140.42C232.965 141.047 232.385 141.527 231.638 141.86C230.905 142.194 230.052 142.36 229.078 142.36ZM232.278 147.96V147.5C232.278 146.847 232.085 146.387 231.698 146.12C231.312 145.854 230.772 145.72 230.078 145.72H227.378C226.845 145.72 226.385 145.674 225.998 145.58C225.625 145.5 225.325 145.374 225.098 145.2C224.872 145.04 224.705 144.847 224.598 144.62C224.492 144.407 224.438 144.167 224.438 143.9C224.438 143.367 224.598 142.967 224.918 142.7C225.252 142.434 225.685 142.26 226.218 142.18C226.765 142.1 227.338 142.087 227.938 142.14L229.078 142.36C228.292 142.387 227.692 142.46 227.278 142.58C226.878 142.687 226.678 142.907 226.678 143.24C226.678 143.44 226.758 143.6 226.918 143.72C227.078 143.84 227.305 143.9 227.598 143.9H230.438C231.252 143.9 231.965 143.994 232.578 144.18C233.192 144.38 233.665 144.707 233.998 145.16C234.345 145.627 234.518 146.26 234.518 147.06V147.96H232.278ZM229.078 140.62C229.612 140.62 230.085 140.52 230.498 140.32C230.912 140.12 231.238 139.834 231.478 139.46C231.718 139.087 231.838 138.634 231.838 138.1C231.838 137.567 231.718 137.107 231.478 136.72C231.238 136.334 230.912 136.04 230.498 135.84C230.085 135.64 229.612 135.54 229.078 135.54C228.558 135.54 228.085 135.64 227.658 135.84C227.245 136.04 226.918 136.334 226.678 136.72C226.438 137.094 226.318 137.554 226.318 138.1C226.318 138.634 226.438 139.087 226.678 139.46C226.918 139.834 227.245 140.12 227.658 140.32C228.072 140.52 228.545 140.62 229.078 140.62ZM236.64 140.62H238.7C238.807 141.127 239.08 141.54 239.52 141.86C239.96 142.167 240.553 142.32 241.3 142.32C241.78 142.32 242.153 142.267 242.42 142.16C242.7 142.054 242.893 141.907 243 141.72C243.12 141.534 243.18 141.32 243.18 141.08C243.18 140.787 243.093 140.56 242.92 140.4C242.76 140.24 242.52 140.107 242.2 140C241.88 139.894 241.48 139.8 241 139.72C240.507 139.6 240.02 139.467 239.54 139.32C239.06 139.174 238.627 138.994 238.24 138.78C237.853 138.554 237.547 138.274 237.32 137.94C237.107 137.594 237 137.174 237 136.68C237 136.227 237.1 135.82 237.3 135.46C237.513 135.087 237.807 134.774 238.18 134.52C238.553 134.267 238.993 134.074 239.5 133.94C240.007 133.794 240.56 133.72 241.16 133.72C242.027 133.72 242.747 133.86 243.32 134.14C243.907 134.42 244.347 134.814 244.64 135.32C244.947 135.827 245.1 136.407 245.1 137.06H243.14C243.033 136.527 242.827 136.14 242.52 135.9C242.213 135.66 241.753 135.54 241.14 135.54C240.527 135.54 240.06 135.647 239.74 135.86C239.42 136.074 239.26 136.367 239.26 136.74C239.26 137.02 239.36 137.247 239.56 137.42C239.773 137.58 240.073 137.72 240.46 137.84C240.847 137.96 241.3 138.08 241.82 138.2C242.3 138.334 242.753 138.474 243.18 138.62C243.607 138.754 243.987 138.927 244.32 139.14C244.667 139.34 244.94 139.607 245.14 139.94C245.34 140.274 245.44 140.687 245.44 141.18C245.44 141.794 245.273 142.32 244.94 142.76C244.62 143.2 244.153 143.54 243.54 143.78C242.927 144.007 242.187 144.12 241.32 144.12C240.56 144.12 239.9 144.034 239.34 143.86C238.793 143.687 238.333 143.46 237.96 143.18C237.6 142.9 237.32 142.6 237.12 142.28C236.92 141.96 236.78 141.654 236.7 141.36C236.633 141.067 236.613 140.82 236.64 140.62Z" fill="black"/>
<path d="M7.356 171.668L4.392 176.852V179.456H3.24V176.852L0.276 171.668H1.596L4.116 176.216H3.564L6.036 171.668H7.356ZM10.1636 179.588C9.57963 179.588 9.04363 179.464 8.55563 179.216C8.06763 178.968 7.67963 178.612 7.39163 178.148C7.10363 177.684 6.95963 177.128 6.95963 176.48C6.95963 175.824 7.10363 175.264 7.39163 174.8C7.67963 174.328 8.06763 173.968 8.55563 173.72C9.04363 173.472 9.57963 173.348 10.1636 173.348C10.7476 173.348 11.2796 173.472 11.7596 173.72C12.2396 173.968 12.6236 174.328 12.9116 174.8C13.1996 175.264 13.3436 175.824 13.3436 176.48C13.3436 177.128 13.1996 177.684 12.9116 178.148C12.6236 178.612 12.2396 178.968 11.7596 179.216C11.2796 179.464 10.7476 179.588 10.1636 179.588ZM10.1636 178.592C10.5236 178.592 10.8556 178.512 11.1596 178.352C11.4716 178.184 11.7196 177.944 11.9036 177.632C12.0956 177.312 12.1916 176.928 12.1916 176.48C12.1916 176.024 12.0956 175.636 11.9036 175.316C11.7196 174.996 11.4716 174.752 11.1596 174.584C10.8556 174.416 10.5236 174.332 10.1636 174.332C9.80363 174.332 9.46763 174.416 9.15563 174.584C8.84363 174.744 8.59163 174.984 8.39963 175.304C8.20763 175.624 8.11163 176.016 8.11163 176.48C8.11163 176.928 8.20363 177.312 8.38763 177.632C8.57963 177.944 8.83163 178.184 9.14363 178.352C9.45563 178.512 9.79563 178.592 10.1636 178.592ZM20.201 179.456H19.061V173.468H20.201V179.456ZM19.121 176.636L19.133 176.996C19.125 177.1 19.097 177.256 19.049 177.464C19.009 177.664 18.937 177.884 18.833 178.124C18.737 178.364 18.601 178.596 18.425 178.82C18.257 179.044 18.041 179.228 17.777 179.372C17.513 179.516 17.193 179.588 16.817 179.588C16.561 179.588 16.297 179.552 16.025 179.48C15.761 179.408 15.517 179.288 15.293 179.12C15.069 178.952 14.889 178.724 14.753 178.436C14.617 178.14 14.549 177.772 14.549 177.332V173.468H15.701V177.092C15.701 177.46 15.757 177.748 15.869 177.956C15.989 178.164 16.157 178.312 16.373 178.4C16.589 178.488 16.833 178.532 17.105 178.532C17.521 178.532 17.869 178.432 18.149 178.232C18.437 178.024 18.661 177.776 18.821 177.488C18.981 177.192 19.081 176.908 19.121 176.636ZM30.2138 177.176C30.1658 177.672 30.0058 178.104 29.7338 178.472C29.4698 178.832 29.1218 179.108 28.6898 179.3C28.2578 179.492 27.7778 179.588 27.2498 179.588C26.6658 179.588 26.1298 179.468 25.6418 179.228C25.1538 178.98 24.7618 178.624 24.4658 178.16C24.1778 177.688 24.0338 177.128 24.0338 176.48C24.0338 175.824 24.1778 175.264 24.4658 174.8C24.7618 174.328 25.1538 173.968 25.6418 173.72C26.1298 173.472 26.6658 173.348 27.2498 173.348C27.7778 173.348 28.2538 173.444 28.6778 173.636C29.1018 173.828 29.4498 174.104 29.7218 174.464C29.9938 174.816 30.1578 175.24 30.2138 175.736H29.1698C29.0338 175.304 28.7898 174.964 28.4378 174.716C28.0938 174.46 27.6978 174.332 27.2498 174.332C26.8818 174.332 26.5378 174.416 26.2178 174.584C25.9058 174.752 25.6538 174.996 25.4618 175.316C25.2778 175.628 25.1858 176.016 25.1858 176.48C25.1858 176.928 25.2778 177.312 25.4618 177.632C25.6538 177.944 25.9058 178.184 26.2178 178.352C26.5298 178.512 26.8738 178.592 27.2498 178.592C27.7618 178.592 28.1778 178.468 28.4978 178.22C28.8178 177.972 29.0458 177.624 29.1818 177.176H30.2138ZM33.8843 179.576C33.3723 179.576 32.9043 179.444 32.4803 179.18C32.0563 178.916 31.7203 178.552 31.4723 178.088C31.2243 177.616 31.1003 177.076 31.1003 176.468C31.1003 175.86 31.2243 175.324 31.4723 174.86C31.7283 174.388 32.0763 174.02 32.5163 173.756C32.9563 173.484 33.4483 173.348 33.9923 173.348C34.5923 173.348 35.0563 173.488 35.3843 173.768C35.7203 174.048 35.9523 174.424 36.0803 174.896C36.2163 175.368 36.2843 175.892 36.2843 176.468C36.2843 176.788 36.2443 177.128 36.1643 177.488C36.0843 177.848 35.9563 178.188 35.7803 178.508C35.6043 178.828 35.3603 179.088 35.0483 179.288C34.7363 179.48 34.3483 179.576 33.8843 179.576ZM34.2083 178.58C34.6323 178.58 34.9883 178.488 35.2763 178.304C35.5723 178.112 35.7923 177.856 35.9363 177.536C36.0803 177.216 36.1523 176.86 36.1523 176.468C36.1523 176.044 36.0763 175.672 35.9243 175.352C35.7803 175.032 35.5603 174.784 35.2643 174.608C34.9763 174.432 34.6243 174.344 34.2083 174.344C33.5843 174.344 33.1003 174.544 32.7563 174.944C32.4203 175.344 32.2523 175.852 32.2523 176.468C32.2523 176.884 32.3363 177.252 32.5043 177.572C32.6723 177.884 32.9003 178.132 33.1883 178.316C33.4843 178.492 33.8243 178.58 34.2083 178.58ZM36.1523 173.468H37.3043V179.456H36.2483C36.2483 179.456 36.2403 179.384 36.2243 179.24C36.2083 179.088 36.1923 178.908 36.1763 178.7C36.1603 178.492 36.1523 178.308 36.1523 178.148V173.468ZM38.8068 173.468H39.9588V179.456H38.8068V173.468ZM42.2388 173.348C42.5748 173.348 42.8788 173.396 43.1508 173.492C43.4228 173.588 43.6548 173.732 43.8468 173.924C44.0388 174.108 44.1868 174.34 44.2908 174.62C44.4028 174.892 44.4588 175.204 44.4588 175.556V179.456H43.3188V175.808C43.3188 175.336 43.2028 174.984 42.9708 174.752C42.7468 174.512 42.4028 174.392 41.9388 174.392C41.5788 174.392 41.2508 174.476 40.9548 174.644C40.6588 174.812 40.4148 175.036 40.2228 175.316C40.0388 175.588 39.9268 175.896 39.8868 176.24L39.8748 175.58C39.9148 175.26 39.9988 174.964 40.1268 174.692C40.2628 174.42 40.4308 174.184 40.6308 173.984C40.8388 173.776 41.0788 173.62 41.3508 173.516C41.6228 173.404 41.9188 173.348 42.2388 173.348ZM53.2237 177.512H54.3157C54.2517 177.904 54.0997 178.256 53.8597 178.568C53.6197 178.88 53.3037 179.128 52.9117 179.312C52.5197 179.496 52.0597 179.588 51.5317 179.588C50.9077 179.588 50.3517 179.456 49.8637 179.192C49.3757 178.928 48.9917 178.564 48.7117 178.1C48.4317 177.636 48.2917 177.096 48.2917 176.48C48.2917 175.856 48.4277 175.312 48.6997 174.848C48.9717 174.376 49.3477 174.008 49.8277 173.744C50.3077 173.48 50.8557 173.348 51.4717 173.348C52.1197 173.348 52.6637 173.476 53.1037 173.732C53.5437 173.988 53.8677 174.368 54.0757 174.872C54.2917 175.368 54.3797 175.988 54.3397 176.732H49.4317C49.4717 177.092 49.5797 177.412 49.7557 177.692C49.9397 177.972 50.1797 178.192 50.4757 178.352C50.7797 178.512 51.1277 178.592 51.5197 178.592C51.9597 178.592 52.3277 178.492 52.6237 178.292C52.9197 178.092 53.1197 177.832 53.2237 177.512ZM51.4837 174.332C50.9637 174.332 50.5317 174.472 50.1877 174.752C49.8437 175.024 49.6157 175.388 49.5037 175.844H53.1877C53.1557 175.356 52.9797 174.984 52.6597 174.728C52.3397 174.464 51.9477 174.332 51.4837 174.332ZM58.0249 179.576C57.5129 179.576 57.0449 179.444 56.6209 179.18C56.1969 178.916 55.8609 178.552 55.6129 178.088C55.3649 177.616 55.2409 177.076 55.2409 176.468C55.2409 175.86 55.3649 175.324 55.6129 174.86C55.8689 174.388 56.2169 174.02 56.6569 173.756C57.0969 173.484 57.5889 173.348 58.1329 173.348C58.7329 173.348 59.1969 173.488 59.5249 173.768C59.8609 174.048 60.0929 174.424 60.2209 174.896C60.3569 175.368 60.4249 175.892 60.4249 176.468C60.4249 176.788 60.3849 177.128 60.3049 177.488C60.2249 177.848 60.0969 178.188 59.9209 178.508C59.7449 178.828 59.5009 179.088 59.1889 179.288C58.8769 179.48 58.4889 179.576 58.0249 179.576ZM58.3489 178.58C58.7729 178.58 59.1289 178.488 59.4169 178.304C59.7129 178.112 59.9329 177.856 60.0769 177.536C60.2209 177.216 60.2929 176.86 60.2929 176.468C60.2929 176.044 60.2169 175.672 60.0649 175.352C59.9209 175.032 59.7009 174.784 59.4049 174.608C59.1169 174.432 58.7649 174.344 58.3489 174.344C57.7249 174.344 57.2409 174.544 56.8969 174.944C56.5609 175.344 56.3929 175.852 56.3929 176.468C56.3929 176.884 56.4769 177.252 56.6449 177.572C56.8129 177.884 57.0409 178.132 57.3289 178.316C57.6249 178.492 57.9649 178.58 58.3489 178.58ZM60.2929 173.468H61.4449V179.456H60.3889C60.3889 179.456 60.3809 179.384 60.3649 179.24C60.3489 179.088 60.3329 178.908 60.3169 178.7C60.3009 178.492 60.2929 178.308 60.2929 178.148V173.468ZM62.9474 173.468H64.0994V179.456H62.9474V173.468ZM66.1274 174.488C65.7114 174.488 65.3554 174.584 65.0594 174.776C64.7714 174.968 64.5394 175.204 64.3634 175.484C64.1954 175.764 64.0834 176.032 64.0274 176.288L64.0154 175.604C64.0234 175.524 64.0434 175.4 64.0754 175.232C64.1154 175.056 64.1834 174.86 64.2794 174.644C64.3754 174.428 64.5034 174.224 64.6634 174.032C64.8234 173.832 65.0234 173.668 65.2634 173.54C65.5034 173.412 65.7914 173.348 66.1274 173.348V174.488ZM67.1662 173.468H68.3182V179.456H67.1662V173.468ZM70.5982 173.348C70.9342 173.348 71.2382 173.396 71.5102 173.492C71.7822 173.588 72.0142 173.732 72.2062 173.924C72.3982 174.108 72.5462 174.34 72.6502 174.62C72.7622 174.892 72.8182 175.204 72.8182 175.556V179.456H71.6782V175.808C71.6782 175.336 71.5622 174.984 71.3302 174.752C71.1062 174.512 70.7622 174.392 70.2982 174.392C69.9382 174.392 69.6102 174.476 69.3142 174.644C69.0182 174.812 68.7742 175.036 68.5822 175.316C68.3982 175.588 68.2862 175.896 68.2462 176.24L68.2342 175.58C68.2742 175.26 68.3582 174.964 68.4862 174.692C68.6222 174.42 68.7902 174.184 68.9902 173.984C69.1982 173.776 69.4382 173.62 69.7102 173.516C69.9822 173.404 70.2782 173.348 70.5982 173.348ZM80.383 179.588C79.919 179.588 79.531 179.488 79.219 179.288C78.907 179.088 78.663 178.828 78.487 178.508C78.311 178.188 78.183 177.848 78.103 177.488C78.023 177.128 77.983 176.788 77.983 176.468C77.983 176.036 78.019 175.632 78.091 175.256C78.171 174.88 78.299 174.548 78.475 174.26C78.651 173.972 78.895 173.748 79.207 173.588C79.519 173.428 79.911 173.348 80.383 173.348C80.903 173.348 81.371 173.484 81.787 173.756C82.203 174.02 82.535 174.388 82.783 174.86C83.039 175.332 83.167 175.868 83.167 176.468C83.167 177.084 83.039 177.628 82.783 178.1C82.527 178.564 82.187 178.928 81.763 179.192C81.347 179.456 80.887 179.588 80.383 179.588ZM80.059 178.58C80.443 178.58 80.783 178.492 81.079 178.316C81.375 178.132 81.603 177.884 81.763 177.572C81.931 177.252 82.015 176.884 82.015 176.468C82.015 175.852 81.843 175.344 81.499 174.944C81.163 174.544 80.683 174.344 80.059 174.344C79.683 174.344 79.347 174.432 79.051 174.608C78.763 174.784 78.535 175.032 78.367 175.352C78.199 175.672 78.115 176.044 78.115 176.468C78.115 176.868 78.187 177.228 78.331 177.548C78.483 177.86 78.703 178.112 78.991 178.304C79.279 178.488 79.635 178.58 80.059 178.58ZM76.963 173.468H78.067L78.115 174.824V181.856H76.963V173.468ZM86.8413 179.576C86.3293 179.576 85.8613 179.444 85.4373 179.18C85.0133 178.916 84.6773 178.552 84.4293 178.088C84.1813 177.616 84.0573 177.076 84.0573 176.468C84.0573 175.86 84.1813 175.324 84.4293 174.86C84.6853 174.388 85.0333 174.02 85.4733 173.756C85.9133 173.484 86.4053 173.348 86.9493 173.348C87.5493 173.348 88.0133 173.488 88.3413 173.768C88.6773 174.048 88.9093 174.424 89.0373 174.896C89.1733 175.368 89.2413 175.892 89.2413 176.468C89.2413 176.788 89.2013 177.128 89.1213 177.488C89.0413 177.848 88.9133 178.188 88.7373 178.508C88.5613 178.828 88.3173 179.088 88.0053 179.288C87.6933 179.48 87.3053 179.576 86.8413 179.576ZM87.1653 178.58C87.5893 178.58 87.9453 178.488 88.2333 178.304C88.5293 178.112 88.7493 177.856 88.8933 177.536C89.0373 177.216 89.1093 176.86 89.1093 176.468C89.1093 176.044 89.0333 175.672 88.8813 175.352C88.7373 175.032 88.5173 174.784 88.2213 174.608C87.9333 174.432 87.5813 174.344 87.1653 174.344C86.5413 174.344 86.0573 174.544 85.7133 174.944C85.3773 175.344 85.2093 175.852 85.2093 176.468C85.2093 176.884 85.2933 177.252 85.4613 177.572C85.6293 177.884 85.8573 178.132 86.1453 178.316C86.4413 178.492 86.7813 178.58 87.1653 178.58ZM89.1093 173.468H90.2613V179.456H89.2053C89.2053 179.456 89.1973 179.384 89.1813 179.24C89.1653 179.088 89.1493 178.908 89.1333 178.7C89.1173 178.492 89.1093 178.308 89.1093 178.148V173.468ZM91.4998 177.512H92.5558C92.5958 177.832 92.7398 178.096 92.9878 178.304C93.2358 178.504 93.5838 178.604 94.0318 178.604C94.3198 178.604 94.5438 178.572 94.7038 178.508C94.8638 178.436 94.9758 178.34 95.0398 178.22C95.1118 178.1 95.1478 177.968 95.1478 177.824C95.1478 177.64 95.0998 177.5 95.0038 177.404C94.9078 177.3 94.7718 177.216 94.5958 177.152C94.4198 177.08 94.2118 177.012 93.9718 176.948C93.7078 176.876 93.4438 176.792 93.1798 176.696C92.9158 176.6 92.6718 176.484 92.4478 176.348C92.2318 176.212 92.0558 176.044 91.9198 175.844C91.7918 175.636 91.7278 175.384 91.7278 175.088C91.7278 174.84 91.7798 174.608 91.8838 174.392C91.9958 174.176 92.1518 173.992 92.3518 173.84C92.5598 173.68 92.7998 173.56 93.0718 173.48C93.3438 173.392 93.6438 173.348 93.9718 173.348C94.4278 173.348 94.8118 173.432 95.1238 173.6C95.4358 173.76 95.6718 173.988 95.8318 174.284C95.9998 174.58 96.0878 174.92 96.0958 175.304H95.0878C95.0318 174.968 94.9158 174.724 94.7398 174.572C94.5638 174.412 94.2998 174.332 93.9478 174.332C93.6038 174.332 93.3398 174.4 93.1558 174.536C92.9718 174.672 92.8798 174.856 92.8798 175.088C92.8798 175.264 92.9438 175.408 93.0718 175.52C93.1998 175.624 93.3718 175.716 93.5878 175.796C93.8038 175.876 94.0478 175.96 94.3198 176.048C94.5758 176.136 94.8198 176.228 95.0518 176.324C95.2918 176.412 95.5038 176.52 95.6878 176.648C95.8798 176.768 96.0278 176.928 96.1318 177.128C96.2438 177.32 96.2998 177.56 96.2998 177.848C96.2998 178.2 96.2118 178.508 96.0358 178.772C95.8598 179.028 95.6038 179.228 95.2678 179.372C94.9398 179.516 94.5398 179.588 94.0678 179.588C93.6358 179.588 93.2678 179.536 92.9638 179.432C92.6678 179.328 92.4158 179.192 92.2078 179.024C92.0078 178.856 91.8518 178.68 91.7398 178.496C91.6358 178.304 91.5638 178.12 91.5238 177.944C91.4918 177.768 91.4838 177.624 91.4998 177.512ZM97.242 177.512H98.298C98.338 177.832 98.482 178.096 98.73 178.304C98.978 178.504 99.326 178.604 99.774 178.604C100.062 178.604 100.286 178.572 100.446 178.508C100.606 178.436 100.718 178.34 100.782 178.22C100.854 178.1 100.89 177.968 100.89 177.824C100.89 177.64 100.842 177.5 100.746 177.404C100.65 177.3 100.514 177.216 100.338 177.152C100.162 177.08 99.954 177.012 99.714 176.948C99.45 176.876 99.186 176.792 98.922 176.696C98.658 176.6 98.414 176.484 98.19 176.348C97.974 176.212 97.798 176.044 97.662 175.844C97.534 175.636 97.47 175.384 97.47 175.088C97.47 174.84 97.522 174.608 97.626 174.392C97.738 174.176 97.894 173.992 98.094 173.84C98.302 173.68 98.542 173.56 98.814 173.48C99.086 173.392 99.386 173.348 99.714 173.348C100.17 173.348 100.554 173.432 100.866 173.6C101.178 173.76 101.414 173.988 101.574 174.284C101.742 174.58 101.83 174.92 101.838 175.304H100.83C100.774 174.968 100.658 174.724 100.482 174.572C100.306 174.412 100.042 174.332 99.69 174.332C99.346 174.332 99.082 174.4 98.898 174.536C98.714 174.672 98.622 174.856 98.622 175.088C98.622 175.264 98.686 175.408 98.814 175.52C98.942 175.624 99.114 175.716 99.33 175.796C99.546 175.876 99.79 175.96 100.062 176.048C100.318 176.136 100.562 176.228 100.794 176.324C101.034 176.412 101.246 176.52 101.43 176.648C101.622 176.768 101.77 176.928 101.874 177.128C101.986 177.32 102.042 177.56 102.042 177.848C102.042 178.2 101.954 178.508 101.778 178.772C101.602 179.028 101.346 179.228 101.01 179.372C100.682 179.516 100.282 179.588 99.81 179.588C99.378 179.588 99.01 179.536 98.706 179.432C98.41 179.328 98.158 179.192 97.95 179.024C97.75 178.856 97.594 178.68 97.482 178.496C97.378 178.304 97.306 178.12 97.266 177.944C97.234 177.768 97.226 177.624 97.242 177.512ZM104.628 170.996V172.232H103.2V170.996H104.628ZM103.344 173.468H104.484V179.456H103.344V173.468ZM108.724 178.568H108.352L110.296 173.468H111.544L109.084 179.456H108.004L105.568 173.468H106.828L108.724 178.568ZM116.939 177.512H118.031C117.967 177.904 117.815 178.256 117.575 178.568C117.335 178.88 117.019 179.128 116.627 179.312C116.235 179.496 115.775 179.588 115.247 179.588C114.623 179.588 114.067 179.456 113.579 179.192C113.091 178.928 112.707 178.564 112.427 178.1C112.147 177.636 112.007 177.096 112.007 176.48C112.007 175.856 112.143 175.312 112.415 174.848C112.687 174.376 113.063 174.008 113.543 173.744C114.023 173.48 114.571 173.348 115.187 173.348C115.835 173.348 116.379 173.476 116.819 173.732C117.259 173.988 117.583 174.368 117.791 174.872C118.007 175.368 118.095 175.988 118.055 176.732H113.146C113.187 177.092 113.295 177.412 113.471 177.692C113.655 177.972 113.895 178.192 114.191 178.352C114.495 178.512 114.843 178.592 115.235 178.592C115.675 178.592 116.043 178.492 116.339 178.292C116.635 178.092 116.835 177.832 116.939 177.512ZM115.199 174.332C114.679 174.332 114.247 174.472 113.903 174.752C113.559 175.024 113.331 175.388 113.219 175.844H116.903C116.871 175.356 116.695 174.984 116.375 174.728C116.055 174.464 115.663 174.332 115.199 174.332ZM119.388 171.068H120.54V179.456H119.388V171.068ZM121.646 173.468H122.87L125.162 179.216L124.166 179.456L121.646 173.468ZM127.754 173.468L124.166 181.856H122.954L124.502 178.604L126.542 173.468H127.754ZM134.997 179.576C134.525 179.576 134.133 179.48 133.821 179.288C133.517 179.088 133.273 178.828 133.089 178.508C132.913 178.188 132.785 177.848 132.705 177.488C132.625 177.128 132.585 176.788 132.585 176.468C132.585 176.036 132.621 175.632 132.693 175.256C132.773 174.88 132.901 174.548 133.077 174.26C133.253 173.972 133.497 173.748 133.809 173.588C134.121 173.428 134.517 173.348 134.997 173.348C135.533 173.348 136.009 173.484 136.425 173.756C136.849 174.02 137.181 174.388 137.421 174.86C137.661 175.324 137.781 175.86 137.781 176.468C137.781 177.076 137.657 177.616 137.409 178.088C137.161 178.552 136.825 178.916 136.401 179.18C135.985 179.444 135.517 179.576 134.997 179.576ZM134.673 178.58C135.057 178.58 135.393 178.492 135.681 178.316C135.977 178.132 136.205 177.884 136.365 177.572C136.533 177.252 136.617 176.884 136.617 176.468C136.617 175.852 136.445 175.344 136.101 174.944C135.765 174.544 135.289 174.344 134.673 174.344C134.257 174.344 133.901 174.432 133.605 174.608C133.317 174.784 133.097 175.032 132.945 175.352C132.793 175.672 132.717 176.044 132.717 176.468C132.717 176.86 132.789 177.216 132.933 177.536C133.085 177.856 133.305 178.112 133.593 178.304C133.889 178.488 134.249 178.58 134.673 178.58ZM132.717 171.068V178.148C132.717 178.332 132.705 178.552 132.681 178.808C132.665 179.064 132.649 179.28 132.633 179.456H131.577V171.068H132.717ZM138.228 173.468H139.452L141.744 179.216L140.748 179.456L138.228 173.468ZM144.336 173.468L140.748 181.856H139.536L141.084 178.604L143.124 173.468H144.336ZM3.228 193.576C2.716 193.576 2.248 193.444 1.824 193.18C1.4 192.916 1.064 192.552 0.816 192.088C0.568 191.616 0.444 191.076 0.444 190.468C0.444 189.86 0.568 189.324 0.816 188.86C1.072 188.388 1.42 188.02 1.86 187.756C2.3 187.484 2.792 187.348 3.336 187.348C3.936 187.348 4.4 187.488 4.728 187.768C5.064 188.048 5.296 188.424 5.424 188.896C5.56 189.368 5.628 189.892 5.628 190.468C5.628 190.788 5.588 191.128 5.508 191.488C5.428 191.848 5.3 192.188 5.124 192.508C4.948 192.828 4.704 193.088 4.392 193.288C4.08 193.48 3.692 193.576 3.228 193.576ZM3.552 192.58C3.976 192.58 4.332 192.488 4.62 192.304C4.916 192.112 5.136 191.856 5.28 191.536C5.424 191.216 5.496 190.86 5.496 190.468C5.496 190.044 5.42 189.672 5.268 189.352C5.124 189.032 4.904 188.784 4.608 188.608C4.32 188.432 3.968 188.344 3.552 188.344C2.928 188.344 2.444 188.544 2.1 188.944C1.764 189.344 1.596 189.852 1.596 190.468C1.596 190.884 1.68 191.252 1.848 191.572C2.016 191.884 2.244 192.132 2.532 192.316C2.828 192.492 3.168 192.58 3.552 192.58ZM5.496 187.468H6.648V193.456H5.592C5.592 193.456 5.584 193.384 5.568 193.24C5.552 193.088 5.536 192.908 5.52 192.7C5.504 192.492 5.496 192.308 5.496 192.148V187.468ZM14.0185 191.176C13.9705 191.672 13.8105 192.104 13.5385 192.472C13.2745 192.832 12.9265 193.108 12.4945 193.3C12.0625 193.492 11.5825 193.588 11.0545 193.588C10.4705 193.588 9.93453 193.468 9.44653 193.228C8.95853 192.98 8.56653 192.624 8.27053 192.16C7.98253 191.688 7.83853 191.128 7.83853 190.48C7.83853 189.824 7.98253 189.264 8.27053 188.8C8.56653 188.328 8.95853 187.968 9.44653 187.72C9.93453 187.472 10.4705 187.348 11.0545 187.348C11.5825 187.348 12.0585 187.444 12.4825 187.636C12.9065 187.828 13.2545 188.104 13.5265 188.464C13.7985 188.816 13.9625 189.24 14.0185 189.736H12.9745C12.8385 189.304 12.5945 188.964 12.2425 188.716C11.8985 188.46 11.5025 188.332 11.0545 188.332C10.6865 188.332 10.3425 188.416 10.0225 188.584C9.71053 188.752 9.45853 188.996 9.26653 189.316C9.08253 189.628 8.99053 190.016 8.99053 190.48C8.99053 190.928 9.08253 191.312 9.26653 191.632C9.45853 191.944 9.71053 192.184 10.0225 192.352C10.3345 192.512 10.6785 192.592 11.0545 192.592C11.5665 192.592 11.9825 192.468 12.3025 192.22C12.6225 191.972 12.8505 191.624 12.9865 191.176H14.0185ZM21.0849 191.176C21.0369 191.672 20.8769 192.104 20.6049 192.472C20.3409 192.832 19.9929 193.108 19.5609 193.3C19.1289 193.492 18.6489 193.588 18.1209 193.588C17.5369 193.588 17.0009 193.468 16.5129 193.228C16.0249 192.98 15.6329 192.624 15.3369 192.16C15.0489 191.688 14.9049 191.128 14.9049 190.48C14.9049 189.824 15.0489 189.264 15.3369 188.8C15.6329 188.328 16.0249 187.968 16.5129 187.72C17.0009 187.472 17.5369 187.348 18.1209 187.348C18.6489 187.348 19.1249 187.444 19.5489 187.636C19.9729 187.828 20.3209 188.104 20.5929 188.464C20.8649 188.816 21.0289 189.24 21.0849 189.736H20.0409C19.9049 189.304 19.6609 188.964 19.3089 188.716C18.9649 188.46 18.5689 188.332 18.1209 188.332C17.7529 188.332 17.4089 188.416 17.0889 188.584C16.7769 188.752 16.5249 188.996 16.3329 189.316C16.1489 189.628 16.0569 190.016 16.0569 190.48C16.0569 190.928 16.1489 191.312 16.3329 191.632C16.5249 191.944 16.7769 192.184 17.0889 192.352C17.4009 192.512 17.7449 192.592 18.1209 192.592C18.6329 192.592 19.0489 192.468 19.3689 192.22C19.6889 191.972 19.9169 191.624 20.0529 191.176H21.0849ZM27.9353 193.456H26.7953V187.468H27.9353V193.456ZM26.8553 190.636L26.8673 190.996C26.8593 191.1 26.8313 191.256 26.7833 191.464C26.7433 191.664 26.6713 191.884 26.5673 192.124C26.4713 192.364 26.3353 192.596 26.1593 192.82C25.9913 193.044 25.7753 193.228 25.5113 193.372C25.2473 193.516 24.9273 193.588 24.5513 193.588C24.2953 193.588 24.0313 193.552 23.7593 193.48C23.4953 193.408 23.2513 193.288 23.0273 193.12C22.8033 192.952 22.6233 192.724 22.4873 192.436C22.3513 192.14 22.2833 191.772 22.2833 191.332V187.468H23.4353V191.092C23.4353 191.46 23.4913 191.748 23.6033 191.956C23.7233 192.164 23.8913 192.312 24.1073 192.4C24.3233 192.488 24.5673 192.532 24.8393 192.532C25.2553 192.532 25.6033 192.432 25.8833 192.232C26.1713 192.024 26.3953 191.776 26.5553 191.488C26.7153 191.192 26.8153 190.908 26.8553 190.636ZM29.4435 187.468H30.5955V193.456H29.4435V187.468ZM32.8755 187.348C33.2115 187.348 33.5155 187.396 33.7875 187.492C34.0595 187.588 34.2915 187.732 34.4835 187.924C34.6755 188.108 34.8235 188.34 34.9275 188.62C35.0395 188.892 35.0955 189.204 35.0955 189.556V193.456H33.9555V189.808C33.9555 189.336 33.8395 188.984 33.6075 188.752C33.3835 188.512 33.0395 188.392 32.5755 188.392C32.2155 188.392 31.8875 188.476 31.5915 188.644C31.2955 188.812 31.0515 189.036 30.8595 189.316C30.6755 189.588 30.5635 189.896 30.5235 190.24L30.5115 189.58C30.5515 189.26 30.6355 188.964 30.7635 188.692C30.8995 188.42 31.0675 188.184 31.2675 187.984C31.4755 187.776 31.7155 187.62 31.9875 187.516C32.2595 187.404 32.5555 187.348 32.8755 187.348ZM37.2675 187.348C37.6035 187.348 37.9075 187.396 38.1795 187.492C38.4515 187.588 38.6835 187.732 38.8755 187.924C39.0675 188.108 39.2155 188.34 39.3195 188.62C39.4315 188.892 39.4875 189.204 39.4875 189.556V193.456H38.3475V189.808C38.3475 189.336 38.2315 188.984 37.9995 188.752C37.7755 188.512 37.4315 188.392 36.9675 188.392C36.6075 188.392 36.2795 188.476 35.9835 188.644C35.6875 188.812 35.4435 189.036 35.2515 189.316C35.0675 189.588 34.9555 189.896 34.9155 190.24L34.9035 189.568C34.9435 189.248 35.0275 188.956 35.1555 188.692C35.2915 188.42 35.4635 188.184 35.6715 187.984C35.8795 187.776 36.1195 187.62 36.3915 187.516C36.6635 187.404 36.9555 187.348 37.2675 187.348ZM46.6502 193.456H45.5102V187.468H46.6502V193.456ZM45.5702 190.636L45.5822 190.996C45.5742 191.1 45.5462 191.256 45.4982 191.464C45.4582 191.664 45.3862 191.884 45.2822 192.124C45.1862 192.364 45.0502 192.596 44.8742 192.82C44.7062 193.044 44.4902 193.228 44.2262 193.372C43.9622 193.516 43.6422 193.588 43.2662 193.588C43.0102 193.588 42.7462 193.552 42.4742 193.48C42.2102 193.408 41.9662 193.288 41.7422 193.12C41.5182 192.952 41.3382 192.724 41.2022 192.436C41.0662 192.14 40.9982 191.772 40.9982 191.332V187.468H42.1502V191.092C42.1502 191.46 42.2062 191.748 42.3182 191.956C42.4382 192.164 42.6062 192.312 42.8222 192.4C43.0382 192.488 43.2822 192.532 43.5542 192.532C43.9702 192.532 44.3182 192.432 44.5982 192.232C44.8862 192.024 45.1102 191.776 45.2702 191.488C45.4302 191.192 45.5302 190.908 45.5702 190.636ZM48.2783 185.068H49.4303V193.456H48.2783V185.068ZM53.5483 193.576C53.0363 193.576 52.5683 193.444 52.1443 193.18C51.7203 192.916 51.3843 192.552 51.1363 192.088C50.8883 191.616 50.7643 191.076 50.7643 190.468C50.7643 189.86 50.8883 189.324 51.1363 188.86C51.3923 188.388 51.7403 188.02 52.1803 187.756C52.6203 187.484 53.1123 187.348 53.6563 187.348C54.2563 187.348 54.7203 187.488 55.0483 187.768C55.3843 188.048 55.6163 188.424 55.7443 188.896C55.8803 189.368 55.9483 189.892 55.9483 190.468C55.9483 190.788 55.9083 191.128 55.8283 191.488C55.7483 191.848 55.6203 192.188 55.4443 192.508C55.2683 192.828 55.0243 193.088 54.7123 193.288C54.4003 193.48 54.0123 193.576 53.5483 193.576ZM53.8723 192.58C54.2963 192.58 54.6523 192.488 54.9403 192.304C55.2363 192.112 55.4563 191.856 55.6003 191.536C55.7443 191.216 55.8163 190.86 55.8163 190.468C55.8163 190.044 55.7403 189.672 55.5883 189.352C55.4443 189.032 55.2243 188.784 54.9283 188.608C54.6403 188.432 54.2883 188.344 53.8723 188.344C53.2483 188.344 52.7643 188.544 52.4203 188.944C52.0843 189.344 51.9163 189.852 51.9163 190.468C51.9163 190.884 52.0003 191.252 52.1683 191.572C52.3363 191.884 52.5643 192.132 52.8523 192.316C53.1483 192.492 53.4883 192.58 53.8723 192.58ZM55.8163 187.468H56.9683V193.456H55.9123C55.9123 193.456 55.9043 193.384 55.8883 193.24C55.8723 193.088 55.8563 192.908 55.8403 192.7C55.8243 192.492 55.8163 192.308 55.8163 192.148V187.468ZM58.0508 187.468H61.9268V188.464H58.0508V187.468ZM59.4188 185.884H60.5588V193.456H59.4188V185.884ZM64.3977 184.996V186.232H62.9697V184.996H64.3977ZM63.1137 187.468H64.2537V193.456H63.1137V187.468ZM65.8771 187.468H67.0291V193.456H65.8771V187.468ZM69.3091 187.348C69.6451 187.348 69.9491 187.396 70.2211 187.492C70.4931 187.588 70.7251 187.732 70.9171 187.924C71.1091 188.108 71.2571 188.34 71.3611 188.62C71.4731 188.892 71.5291 189.204 71.5291 189.556V193.456H70.3891V189.808C70.3891 189.336 70.2731 188.984 70.0411 188.752C69.8171 188.512 69.4731 188.392 69.0091 188.392C68.6491 188.392 68.3211 188.476 68.0251 188.644C67.7291 188.812 67.4851 189.036 67.2931 189.316C67.1091 189.588 66.9971 189.896 66.9571 190.24L66.9451 189.58C66.9851 189.26 67.0691 188.964 67.1971 188.692C67.3331 188.42 67.5011 188.184 67.7011 187.984C67.9091 187.776 68.1491 187.62 68.4211 187.516C68.6931 187.404 68.9891 187.348 69.3091 187.348ZM75.4492 192.52C74.9533 192.52 74.4973 192.42 74.0813 192.22C73.6653 192.02 73.3333 191.728 73.0853 191.344C72.8453 190.96 72.7253 190.496 72.7253 189.952C72.7253 189.416 72.8453 188.956 73.0853 188.572C73.3253 188.18 73.6493 187.88 74.0573 187.672C74.4733 187.456 74.9373 187.348 75.4492 187.348C75.6013 187.348 75.7453 187.36 75.8813 187.384C76.0173 187.4 76.1493 187.428 76.2773 187.468H78.8932V188.548C78.5333 188.548 78.1693 188.488 77.8013 188.368C77.4413 188.248 77.1253 188.12 76.8533 187.984L76.8173 187.924C77.0893 188.068 77.3253 188.244 77.5253 188.452C77.7253 188.652 77.8773 188.88 77.9813 189.136C78.0933 189.384 78.1493 189.664 78.1493 189.976C78.1493 190.504 78.0293 190.96 77.7893 191.344C77.5573 191.728 77.2333 192.02 76.8173 192.22C76.4093 192.42 75.9533 192.52 75.4492 192.52ZM77.2853 195.88V195.604C77.2853 195.196 77.1733 194.904 76.9493 194.728C76.7253 194.552 76.3973 194.464 75.9653 194.464H74.5613C74.2653 194.464 74.0133 194.44 73.8053 194.392C73.5973 194.344 73.4253 194.272 73.2893 194.176C73.1533 194.088 73.0533 193.976 72.9893 193.84C72.9253 193.712 72.8933 193.568 72.8933 193.408C72.8933 193.096 72.9893 192.86 73.1813 192.7C73.3733 192.54 73.6173 192.44 73.9133 192.4C74.2093 192.352 74.5093 192.348 74.8133 192.388L75.4492 192.52C74.9933 192.544 74.6453 192.588 74.4053 192.652C74.1653 192.716 74.0452 192.852 74.0452 193.06C74.0452 193.18 74.0933 193.276 74.1893 193.348C74.2853 193.42 74.4213 193.456 74.5973 193.456H76.0613C76.5173 193.456 76.9213 193.512 77.2733 193.624C77.6333 193.744 77.9133 193.94 78.1133 194.212C78.3213 194.492 78.4253 194.872 78.4253 195.352V195.88H77.2853ZM75.4492 191.548C75.7373 191.548 75.9973 191.488 76.2293 191.368C76.4693 191.24 76.6613 191.06 76.8053 190.828C76.9493 190.588 77.0213 190.3 77.0213 189.964C77.0213 189.62 76.9493 189.328 76.8053 189.088C76.6693 188.84 76.4813 188.656 76.2413 188.536C76.0013 188.408 75.7373 188.344 75.4492 188.344C75.1613 188.344 74.8933 188.408 74.6453 188.536C74.4053 188.656 74.2133 188.836 74.0693 189.076C73.9253 189.316 73.8533 189.612 73.8533 189.964C73.8533 190.3 73.9253 190.588 74.0693 190.828C74.2133 191.06 74.4053 191.24 74.6453 191.368C74.8853 191.488 75.1533 191.548 75.4492 191.548ZM85.0952 193.576C84.5752 193.576 84.1032 193.444 83.6792 193.18C83.2552 192.916 82.9192 192.552 82.6712 192.088C82.4312 191.616 82.3112 191.076 82.3112 190.468C82.3112 189.86 82.4312 189.324 82.6712 188.86C82.9112 188.388 83.2392 188.02 83.6552 187.756C84.0712 187.484 84.5512 187.348 85.0952 187.348C85.5672 187.348 85.9592 187.428 86.2712 187.588C86.5832 187.748 86.8272 187.972 87.0032 188.26C87.1792 188.548 87.3032 188.88 87.3752 189.256C87.4552 189.632 87.4952 190.036 87.4952 190.468C87.4952 190.788 87.4552 191.128 87.3752 191.488C87.2952 191.848 87.1672 192.188 86.9912 192.508C86.8152 192.828 86.5712 193.088 86.2592 193.288C85.9472 193.48 85.5592 193.576 85.0952 193.576ZM85.4192 192.58C85.8432 192.58 86.1992 192.488 86.4872 192.304C86.7832 192.112 87.0032 191.856 87.1472 191.536C87.2912 191.216 87.3632 190.86 87.3632 190.468C87.3632 190.044 87.2872 189.672 87.1352 189.352C86.9912 189.032 86.7712 188.784 86.4752 188.608C86.1872 188.432 85.8352 188.344 85.4192 188.344C84.7952 188.344 84.3112 188.544 83.9672 188.944C83.6312 189.344 83.4632 189.852 83.4632 190.468C83.4632 190.884 83.5472 191.252 83.7152 191.572C83.8832 191.884 84.1112 192.132 84.3992 192.316C84.6952 192.492 85.0352 192.58 85.4192 192.58ZM87.3632 185.068H88.5152V193.456H87.4592C87.4352 193.28 87.4112 193.064 87.3872 192.808C87.3712 192.552 87.3632 192.332 87.3632 192.148V185.068ZM92.7007 193.576C92.1887 193.576 91.7207 193.444 91.2967 193.18C90.8727 192.916 90.5367 192.552 90.2887 192.088C90.0407 191.616 89.9167 191.076 89.9167 190.468C89.9167 189.86 90.0407 189.324 90.2887 188.86C90.5447 188.388 90.8927 188.02 91.3327 187.756C91.7727 187.484 92.2647 187.348 92.8087 187.348C93.4087 187.348 93.8727 187.488 94.2007 187.768C94.5367 188.048 94.7687 188.424 94.8967 188.896C95.0327 189.368 95.1007 189.892 95.1007 190.468C95.1007 190.788 95.0607 191.128 94.9807 191.488C94.9007 191.848 94.7727 192.188 94.5967 192.508C94.4207 192.828 94.1767 193.088 93.8647 193.288C93.5527 193.48 93.1647 193.576 92.7007 193.576ZM93.0247 192.58C93.4487 192.58 93.8047 192.488 94.0927 192.304C94.3887 192.112 94.6087 191.856 94.7527 191.536C94.8967 191.216 94.9687 190.86 94.9687 190.468C94.9687 190.044 94.8927 189.672 94.7407 189.352C94.5967 189.032 94.3767 188.784 94.0807 188.608C93.7927 188.432 93.4407 188.344 93.0247 188.344C92.4007 188.344 91.9167 188.544 91.5727 188.944C91.2367 189.344 91.0687 189.852 91.0687 190.468C91.0687 190.884 91.1527 191.252 91.3207 191.572C91.4887 191.884 91.7167 192.132 92.0047 192.316C92.3007 192.492 92.6407 192.58 93.0247 192.58ZM94.9687 187.468H96.1207V193.456H95.0647C95.0647 193.456 95.0567 193.384 95.0407 193.24C95.0247 193.088 95.0087 192.908 94.9927 192.7C94.9767 192.492 94.9687 192.308 94.9687 192.148V187.468ZM99.0032 184.996V186.232H97.5752V184.996H99.0032ZM97.7192 187.468H98.8592V193.456H97.7192V187.468ZM100.603 185.068H101.755V193.456H100.603V185.068ZM102.861 187.468H104.085L106.377 193.216L105.381 193.456L102.861 187.468ZM108.969 187.468L105.381 195.856H104.169L105.717 192.604L107.757 187.468H108.969ZM113.968 184.996V186.232H112.54V184.996H113.968ZM112.684 187.468H113.824V193.456H112.684V187.468ZM115.447 187.468H116.599V193.456H115.447V187.468ZM118.879 187.348C119.215 187.348 119.519 187.396 119.791 187.492C120.063 187.588 120.295 187.732 120.487 187.924C120.679 188.108 120.827 188.34 120.931 188.62C121.043 188.892 121.099 189.204 121.099 189.556V193.456H119.959V189.808C119.959 189.336 119.843 188.984 119.611 188.752C119.387 188.512 119.043 188.392 118.579 188.392C118.219 188.392 117.891 188.476 117.595 188.644C117.299 188.812 117.055 189.036 116.863 189.316C116.679 189.588 116.567 189.896 116.527 190.24L116.515 189.58C116.555 189.26 116.639 188.964 116.767 188.692C116.903 188.42 117.071 188.184 117.271 187.984C117.479 187.776 117.719 187.62 117.991 187.516C118.263 187.404 118.559 187.348 118.879 187.348ZM122.188 187.468H126.064V188.464H122.188V187.468ZM123.556 185.884H124.696V193.456H123.556V185.884ZM131.669 191.512H132.761C132.697 191.904 132.545 192.256 132.305 192.568C132.065 192.88 131.749 193.128 131.357 193.312C130.965 193.496 130.505 193.588 129.977 193.588C129.353 193.588 128.797 193.456 128.309 193.192C127.821 192.928 127.437 192.564 127.157 192.1C126.877 191.636 126.737 191.096 126.737 190.48C126.737 189.856 126.873 189.312 127.145 188.848C127.417 188.376 127.793 188.008 128.273 187.744C128.753 187.48 129.301 187.348 129.917 187.348C130.565 187.348 131.109 187.476 131.549 187.732C131.989 187.988 132.313 188.368 132.521 188.872C132.737 189.368 132.825 189.988 132.785 190.732H127.877C127.917 191.092 128.025 191.412 128.201 191.692C128.385 191.972 128.625 192.192 128.921 192.352C129.225 192.512 129.573 192.592 129.965 192.592C130.405 192.592 130.773 192.492 131.069 192.292C131.365 192.092 131.565 191.832 131.669 191.512ZM129.929 188.332C129.409 188.332 128.977 188.472 128.633 188.752C128.289 189.024 128.061 189.388 127.949 189.844H131.633C131.601 189.356 131.425 188.984 131.105 188.728C130.785 188.464 130.393 188.332 129.929 188.332ZM133.998 187.468H135.15V193.456H133.998V187.468ZM137.178 188.488C136.762 188.488 136.406 188.584 136.11 188.776C135.822 188.968 135.59 189.204 135.414 189.484C135.246 189.764 135.134 190.032 135.078 190.288L135.066 189.604C135.074 189.524 135.094 189.4 135.126 189.232C135.166 189.056 135.234 188.86 135.33 188.644C135.426 188.428 135.554 188.224 135.714 188.032C135.874 187.832 136.074 187.668 136.314 187.54C136.554 187.412 136.842 187.348 137.178 187.348V188.488ZM142.837 191.512H143.929C143.865 191.904 143.713 192.256 143.473 192.568C143.233 192.88 142.917 193.128 142.525 193.312C142.133 193.496 141.673 193.588 141.145 193.588C140.521 193.588 139.965 193.456 139.477 193.192C138.989 192.928 138.605 192.564 138.325 192.1C138.045 191.636 137.905 191.096 137.905 190.48C137.905 189.856 138.041 189.312 138.313 188.848C138.585 188.376 138.961 188.008 139.441 187.744C139.921 187.48 140.469 187.348 141.085 187.348C141.733 187.348 142.277 187.476 142.717 187.732C143.157 187.988 143.481 188.368 143.689 188.872C143.905 189.368 143.993 189.988 143.953 190.732H139.045C139.085 191.092 139.193 191.412 139.369 191.692C139.553 191.972 139.793 192.192 140.089 192.352C140.393 192.512 140.741 192.592 141.133 192.592C141.573 192.592 141.941 192.492 142.237 192.292C142.533 192.092 142.733 191.832 142.837 191.512ZM141.097 188.332C140.577 188.332 140.145 188.472 139.801 188.752C139.457 189.024 139.229 189.388 139.117 189.844H142.801C142.769 189.356 142.593 188.984 142.273 188.728C141.953 188.464 141.561 188.332 141.097 188.332ZM144.902 191.512H145.958C145.998 191.832 146.142 192.096 146.39 192.304C146.638 192.504 146.986 192.604 147.434 192.604C147.722 192.604 147.946 192.572 148.106 192.508C148.266 192.436 148.378 192.34 148.442 192.22C148.514 192.1 148.55 191.968 148.55 191.824C148.55 191.64 148.502 191.5 148.406 191.404C148.31 191.3 148.174 191.216 147.998 191.152C147.822 191.08 147.614 191.012 147.374 190.948C147.11 190.876 146.846 190.792 146.582 190.696C146.318 190.6 146.074 190.484 145.85 190.348C145.634 190.212 145.458 190.044 145.322 189.844C145.194 189.636 145.13 189.384 145.13 189.088C145.13 188.84 145.182 188.608 145.286 188.392C145.398 188.176 145.554 187.992 145.754 187.84C145.962 187.68 146.202 187.56 146.474 187.48C146.746 187.392 147.046 187.348 147.374 187.348C147.83 187.348 148.214 187.432 148.526 187.6C148.838 187.76 149.074 187.988 149.234 188.284C149.402 188.58 149.49 188.92 149.498 189.304H148.49C148.434 188.968 148.318 188.724 148.142 188.572C147.966 188.412 147.702 188.332 147.35 188.332C147.006 188.332 146.742 188.4 146.558 188.536C146.374 188.672 146.282 188.856 146.282 189.088C146.282 189.264 146.346 189.408 146.474 189.52C146.602 189.624 146.774 189.716 146.99 189.796C147.206 189.876 147.45 189.96 147.722 190.048C147.978 190.136 148.222 190.228 148.454 190.324C148.694 190.412 148.906 190.52 149.09 190.648C149.282 190.768 149.43 190.928 149.534 191.128C149.646 191.32 149.702 191.56 149.702 191.848C149.702 192.2 149.614 192.508 149.438 192.772C149.262 193.028 149.006 193.228 148.67 193.372C148.342 193.516 147.942 193.588 147.47 193.588C147.038 193.588 146.67 193.536 146.366 193.432C146.07 193.328 145.818 193.192 145.61 193.024C145.41 192.856 145.254 192.68 145.142 192.496C145.038 192.304 144.966 192.12 144.926 191.944C144.894 191.768 144.886 191.624 144.902 191.512ZM150.488 187.468H154.364V188.464H150.488V187.468ZM151.856 185.884H152.996V193.456H151.856V185.884ZM155.191 191.512H156.247C156.287 191.832 156.431 192.096 156.679 192.304C156.927 192.504 157.275 192.604 157.723 192.604C158.011 192.604 158.235 192.572 158.395 192.508C158.555 192.436 158.667 192.34 158.731 192.22C158.803 192.1 158.839 191.968 158.839 191.824C158.839 191.64 158.791 191.5 158.695 191.404C158.599 191.3 158.463 191.216 158.287 191.152C158.111 191.08 157.903 191.012 157.663 190.948C157.399 190.876 157.135 190.792 156.871 190.696C156.607 190.6 156.363 190.484 156.139 190.348C155.923 190.212 155.747 190.044 155.611 189.844C155.483 189.636 155.419 189.384 155.419 189.088C155.419 188.84 155.471 188.608 155.575 188.392C155.687 188.176 155.843 187.992 156.043 187.84C156.251 187.68 156.491 187.56 156.763 187.48C157.035 187.392 157.335 187.348 157.663 187.348C158.119 187.348 158.503 187.432 158.815 187.6C159.127 187.76 159.363 187.988 159.523 188.284C159.691 188.58 159.779 188.92 159.787 189.304H158.779C158.723 188.968 158.607 188.724 158.431 188.572C158.255 188.412 157.991 188.332 157.639 188.332C157.295 188.332 157.031 188.4 156.847 188.536C156.663 188.672 156.571 188.856 156.571 189.088C156.571 189.264 156.635 189.408 156.763 189.52C156.891 189.624 157.063 189.716 157.279 189.796C157.495 189.876 157.739 189.96 158.011 190.048C158.267 190.136 158.511 190.228 158.743 190.324C158.983 190.412 159.195 190.52 159.379 190.648C159.571 190.768 159.719 190.928 159.823 191.128C159.935 191.32 159.991 191.56 159.991 191.848C159.991 192.2 159.903 192.508 159.727 192.772C159.551 193.028 159.295 193.228 158.959 193.372C158.631 193.516 158.231 193.588 157.759 193.588C157.327 193.588 156.959 193.536 156.655 193.432C156.359 193.328 156.107 193.192 155.899 193.024C155.699 192.856 155.543 192.68 155.431 192.496C155.327 192.304 155.255 192.12 155.215 191.944C155.183 191.768 155.175 191.624 155.191 191.512ZM166.726 193.588C166.142 193.588 165.606 193.464 165.118 193.216C164.63 192.968 164.242 192.612 163.954 192.148C163.666 191.684 163.522 191.128 163.522 190.48C163.522 189.824 163.666 189.264 163.954 188.8C164.242 188.328 164.63 187.968 165.118 187.72C165.606 187.472 166.142 187.348 166.726 187.348C167.31 187.348 167.842 187.472 168.322 187.72C168.802 187.968 169.186 188.328 169.474 188.8C169.762 189.264 169.906 189.824 169.906 190.48C169.906 191.128 169.762 191.684 169.474 192.148C169.186 192.612 168.802 192.968 168.322 193.216C167.842 193.464 167.31 193.588 166.726 193.588ZM166.726 192.592C167.086 192.592 167.418 192.512 167.722 192.352C168.034 192.184 168.282 191.944 168.466 191.632C168.658 191.312 168.754 190.928 168.754 190.48C168.754 190.024 168.658 189.636 168.466 189.316C168.282 188.996 168.034 188.752 167.722 188.584C167.418 188.416 167.086 188.332 166.726 188.332C166.366 188.332 166.03 188.416 165.718 188.584C165.406 188.744 165.154 188.984 164.962 189.304C164.77 189.624 164.674 190.016 164.674 190.48C164.674 190.928 164.766 191.312 164.95 191.632C165.142 191.944 165.394 192.184 165.706 192.352C166.018 192.512 166.358 192.592 166.726 192.592ZM171.111 187.468H172.263V193.456H171.111V187.468ZM174.543 187.348C174.879 187.348 175.183 187.396 175.455 187.492C175.727 187.588 175.959 187.732 176.151 187.924C176.343 188.108 176.491 188.34 176.595 188.62C176.707 188.892 176.763 189.204 176.763 189.556V193.456H175.623V189.808C175.623 189.336 175.507 188.984 175.275 188.752C175.051 188.512 174.707 188.392 174.243 188.392C173.883 188.392 173.555 188.476 173.259 188.644C172.963 188.812 172.719 189.036 172.527 189.316C172.343 189.588 172.231 189.896 172.191 190.24L172.179 189.58C172.219 189.26 172.303 188.964 172.431 188.692C172.567 188.42 172.735 188.184 172.935 187.984C173.143 187.776 173.383 187.62 173.655 187.516C173.927 187.404 174.223 187.348 174.543 187.348ZM185.528 191.512H186.62C186.556 191.904 186.404 192.256 186.164 192.568C185.924 192.88 185.608 193.128 185.216 193.312C184.824 193.496 184.364 193.588 183.836 193.588C183.212 193.588 182.656 193.456 182.168 193.192C181.68 192.928 181.296 192.564 181.016 192.1C180.736 191.636 180.596 191.096 180.596 190.48C180.596 189.856 180.732 189.312 181.004 188.848C181.276 188.376 181.652 188.008 182.132 187.744C182.612 187.48 183.16 187.348 183.776 187.348C184.424 187.348 184.968 187.476 185.408 187.732C185.848 187.988 186.172 188.368 186.38 188.872C186.596 189.368 186.684 189.988 186.644 190.732H181.736C181.776 191.092 181.884 191.412 182.06 191.692C182.244 191.972 182.484 192.192 182.78 192.352C183.084 192.512 183.432 192.592 183.824 192.592C184.264 192.592 184.632 192.492 184.928 192.292C185.224 192.092 185.424 191.832 185.528 191.512ZM183.788 188.332C183.268 188.332 182.836 188.472 182.492 188.752C182.148 189.024 181.92 189.388 181.808 189.844H185.492C185.46 189.356 185.284 188.984 184.964 188.728C184.644 188.464 184.252 188.332 183.788 188.332ZM190.274 192.568H189.902L191.846 187.468H193.094L190.634 193.456H189.554L187.118 187.468H188.378L190.274 192.568ZM198.489 191.512H199.581C199.517 191.904 199.365 192.256 199.125 192.568C198.885 192.88 198.569 193.128 198.177 193.312C197.785 193.496 197.325 193.588 196.797 193.588C196.173 193.588 195.617 193.456 195.129 193.192C194.641 192.928 194.257 192.564 193.977 192.1C193.697 191.636 193.557 191.096 193.557 190.48C193.557 189.856 193.693 189.312 193.965 188.848C194.237 188.376 194.613 188.008 195.093 187.744C195.573 187.48 196.121 187.348 196.737 187.348C197.385 187.348 197.929 187.476 198.369 187.732C198.809 187.988 199.133 188.368 199.341 188.872C199.557 189.368 199.645 189.988 199.605 190.732H194.697C194.737 191.092 194.845 191.412 195.021 191.692C195.205 191.972 195.445 192.192 195.741 192.352C196.045 192.512 196.393 192.592 196.785 192.592C197.225 192.592 197.593 192.492 197.889 192.292C198.185 192.092 198.385 191.832 198.489 191.512ZM196.749 188.332C196.229 188.332 195.797 188.472 195.453 188.752C195.109 189.024 194.881 189.388 194.769 189.844H198.453C198.421 189.356 198.245 188.984 197.925 188.728C197.605 188.464 197.213 188.332 196.749 188.332ZM200.819 187.468H201.971V193.456H200.819V187.468ZM203.999 188.488C203.583 188.488 203.227 188.584 202.931 188.776C202.643 188.968 202.411 189.204 202.235 189.484C202.067 189.764 201.955 190.032 201.899 190.288L201.887 189.604C201.895 189.524 201.915 189.4 201.947 189.232C201.987 189.056 202.055 188.86 202.151 188.644C202.247 188.428 202.375 188.224 202.535 188.032C202.695 187.832 202.895 187.668 203.135 187.54C203.375 187.412 203.663 187.348 203.999 187.348V188.488ZM204.497 187.468H205.721L208.013 193.216L207.017 193.456L204.497 187.468ZM210.605 187.468L207.017 195.856H205.805L207.353 192.604L209.393 187.468H210.605ZM0.492 205.512H1.548C1.588 205.832 1.732 206.096 1.98 206.304C2.228 206.504 2.576 206.604 3.024 206.604C3.312 206.604 3.536 206.572 3.696 206.508C3.856 206.436 3.968 206.34 4.032 206.22C4.104 206.1 4.14 205.968 4.14 205.824C4.14 205.64 4.092 205.5 3.996 205.404C3.9 205.3 3.764 205.216 3.588 205.152C3.412 205.08 3.204 205.012 2.964 204.948C2.7 204.876 2.436 204.792 2.172 204.696C1.908 204.6 1.664 204.484 1.44 204.348C1.224 204.212 1.048 204.044 0.912 203.844C0.784 203.636 0.72 203.384 0.72 203.088C0.72 202.84 0.772 202.608 0.876 202.392C0.988 202.176 1.144 201.992 1.344 201.84C1.552 201.68 1.792 201.56 2.064 201.48C2.336 201.392 2.636 201.348 2.964 201.348C3.42 201.348 3.804 201.432 4.116 201.6C4.428 201.76 4.664 201.988 4.824 202.284C4.992 202.58 5.08 202.92 5.088 203.304H4.08C4.024 202.968 3.908 202.724 3.732 202.572C3.556 202.412 3.292 202.332 2.94 202.332C2.596 202.332 2.332 202.4 2.148 202.536C1.964 202.672 1.872 202.856 1.872 203.088C1.872 203.264 1.936 203.408 2.064 203.52C2.192 203.624 2.364 203.716 2.58 203.796C2.796 203.876 3.04 203.96 3.312 204.048C3.568 204.136 3.812 204.228 4.044 204.324C4.284 204.412 4.496 204.52 4.68 204.648C4.872 204.768 5.02 204.928 5.124 205.128C5.236 205.32 5.292 205.56 5.292 205.848C5.292 206.2 5.204 206.508 5.028 206.772C4.852 207.028 4.596 207.228 4.26 207.372C3.932 207.516 3.532 207.588 3.06 207.588C2.628 207.588 2.26 207.536 1.956 207.432C1.66 207.328 1.408 207.192 1.2 207.024C1 206.856 0.844 206.68 0.732 206.496C0.628 206.304 0.556 206.12 0.516 205.944C0.484 205.768 0.476 205.624 0.492 205.512ZM8.97019 207.576C8.45819 207.576 7.99019 207.444 7.56619 207.18C7.14219 206.916 6.80619 206.552 6.55819 206.088C6.31019 205.616 6.18619 205.076 6.18619 204.468C6.18619 203.86 6.31019 203.324 6.55819 202.86C6.81419 202.388 7.16219 202.02 7.60219 201.756C8.04219 201.484 8.53419 201.348 9.07819 201.348C9.67819 201.348 10.1422 201.488 10.4702 201.768C10.8062 202.048 11.0382 202.424 11.1662 202.896C11.3022 203.368 11.3702 203.892 11.3702 204.468C11.3702 204.788 11.3302 205.128 11.2502 205.488C11.1702 205.848 11.0422 206.188 10.8662 206.508C10.6902 206.828 10.4462 207.088 10.1342 207.288C9.82219 207.48 9.43419 207.576 8.97019 207.576ZM9.29419 206.58C9.71819 206.58 10.0742 206.488 10.3622 206.304C10.6582 206.112 10.8782 205.856 11.0222 205.536C11.1662 205.216 11.2382 204.86 11.2382 204.468C11.2382 204.044 11.1622 203.672 11.0102 203.352C10.8662 203.032 10.6462 202.784 10.3502 202.608C10.0622 202.432 9.71019 202.344 9.29419 202.344C8.67019 202.344 8.18619 202.544 7.84219 202.944C7.50619 203.344 7.33819 203.852 7.33819 204.468C7.33819 204.884 7.42219 205.252 7.59019 205.572C7.75819 205.884 7.98619 206.132 8.27419 206.316C8.57019 206.492 8.91019 206.58 9.29419 206.58ZM11.2382 201.468H12.3902V207.456H11.3342C11.3342 207.456 11.3262 207.384 11.3102 207.24C11.2942 207.088 11.2782 206.908 11.2622 206.7C11.2462 206.492 11.2382 206.308 11.2382 206.148V201.468ZM16.5087 206.568H16.1367L18.0807 201.468H19.3287L16.8687 207.456H15.7887L13.3527 201.468H14.6127L16.5087 206.568ZM21.6946 198.996V200.232H20.2666V198.996H21.6946ZM20.4106 201.468H21.5506V207.456H20.4106V201.468ZM23.174 201.468H24.326V207.456H23.174V201.468ZM26.606 201.348C26.942 201.348 27.246 201.396 27.518 201.492C27.79 201.588 28.022 201.732 28.214 201.924C28.406 202.108 28.554 202.34 28.658 202.62C28.77 202.892 28.826 203.204 28.826 203.556V207.456H27.686V203.808C27.686 203.336 27.57 202.984 27.338 202.752C27.114 202.512 26.77 202.392 26.306 202.392C25.946 202.392 25.618 202.476 25.322 202.644C25.026 202.812 24.782 203.036 24.59 203.316C24.406 203.588 24.294 203.896 24.254 204.24L24.242 203.58C24.282 203.26 24.366 202.964 24.494 202.692C24.63 202.42 24.798 202.184 24.998 201.984C25.206 201.776 25.446 201.62 25.718 201.516C25.99 201.404 26.286 201.348 26.606 201.348ZM32.7461 206.52C32.2501 206.52 31.7941 206.42 31.3781 206.22C30.9621 206.02 30.6301 205.728 30.3821 205.344C30.1421 204.96 30.0221 204.496 30.0221 203.952C30.0221 203.416 30.1421 202.956 30.3821 202.572C30.6221 202.18 30.9461 201.88 31.3541 201.672C31.7701 201.456 32.2341 201.348 32.7461 201.348C32.8981 201.348 33.0421 201.36 33.1781 201.384C33.3141 201.4 33.4461 201.428 33.5741 201.468H36.1901V202.548C35.8301 202.548 35.4661 202.488 35.0981 202.368C34.7381 202.248 34.4221 202.12 34.1501 201.984L34.1141 201.924C34.3861 202.068 34.6221 202.244 34.8221 202.452C35.0221 202.652 35.1741 202.88 35.2781 203.136C35.3901 203.384 35.4461 203.664 35.4461 203.976C35.4461 204.504 35.3261 204.96 35.0861 205.344C34.8541 205.728 34.5301 206.02 34.1141 206.22C33.7061 206.42 33.2501 206.52 32.7461 206.52ZM34.5821 209.88V209.604C34.5821 209.196 34.4701 208.904 34.2461 208.728C34.0221 208.552 33.6941 208.464 33.2621 208.464H31.8581C31.5621 208.464 31.3101 208.44 31.1021 208.392C30.8941 208.344 30.7221 208.272 30.5861 208.176C30.4501 208.088 30.3501 207.976 30.2861 207.84C30.2221 207.712 30.1901 207.568 30.1901 207.408C30.1901 207.096 30.2861 206.86 30.4781 206.7C30.6701 206.54 30.9141 206.44 31.2101 206.4C31.5061 206.352 31.8061 206.348 32.1101 206.388L32.7461 206.52C32.2901 206.544 31.9421 206.588 31.7021 206.652C31.4621 206.716 31.3421 206.852 31.3421 207.06C31.3421 207.18 31.3901 207.276 31.4861 207.348C31.5821 207.42 31.7181 207.456 31.8941 207.456H33.3581C33.8141 207.456 34.2181 207.512 34.5701 207.624C34.9301 207.744 35.2101 207.94 35.4101 208.212C35.6181 208.492 35.7221 208.872 35.7221 209.352V209.88H34.5821ZM32.7461 205.548C33.0341 205.548 33.2941 205.488 33.5261 205.368C33.7661 205.24 33.9581 205.06 34.1021 204.828C34.2461 204.588 34.3181 204.3 34.3181 203.964C34.3181 203.62 34.2461 203.328 34.1021 203.088C33.9661 202.84 33.7781 202.656 33.5381 202.536C33.2981 202.408 33.0341 202.344 32.7461 202.344C32.4581 202.344 32.1901 202.408 31.9421 202.536C31.7021 202.656 31.5101 202.836 31.3661 203.076C31.2221 203.316 31.1501 203.612 31.1501 203.964C31.1501 204.3 31.2221 204.588 31.3661 204.828C31.5101 205.06 31.7021 205.24 31.9421 205.368C32.1821 205.488 32.4501 205.548 32.7461 205.548ZM37.0193 205.512H38.0753C38.1153 205.832 38.2593 206.096 38.5073 206.304C38.7553 206.504 39.1033 206.604 39.5513 206.604C39.8393 206.604 40.0633 206.572 40.2233 206.508C40.3833 206.436 40.4953 206.34 40.5593 206.22C40.6313 206.1 40.6673 205.968 40.6673 205.824C40.6673 205.64 40.6193 205.5 40.5233 205.404C40.4273 205.3 40.2913 205.216 40.1153 205.152C39.9393 205.08 39.7313 205.012 39.4913 204.948C39.2273 204.876 38.9633 204.792 38.6993 204.696C38.4353 204.6 38.1913 204.484 37.9673 204.348C37.7513 204.212 37.5753 204.044 37.4393 203.844C37.3113 203.636 37.2473 203.384 37.2473 203.088C37.2473 202.84 37.2993 202.608 37.4033 202.392C37.5153 202.176 37.6713 201.992 37.8713 201.84C38.0793 201.68 38.3193 201.56 38.5913 201.48C38.8633 201.392 39.1633 201.348 39.4913 201.348C39.9473 201.348 40.3313 201.432 40.6433 201.6C40.9553 201.76 41.1913 201.988 41.3513 202.284C41.5193 202.58 41.6073 202.92 41.6153 203.304H40.6073C40.5513 202.968 40.4353 202.724 40.2593 202.572C40.0833 202.412 39.8193 202.332 39.4673 202.332C39.1233 202.332 38.8593 202.4 38.6753 202.536C38.4913 202.672 38.3993 202.856 38.3993 203.088C38.3993 203.264 38.4633 203.408 38.5913 203.52C38.7193 203.624 38.8913 203.716 39.1073 203.796C39.3233 203.876 39.5673 203.96 39.8393 204.048C40.0953 204.136 40.3393 204.228 40.5713 204.324C40.8113 204.412 41.0233 204.52 41.2073 204.648C41.3993 204.768 41.5473 204.928 41.6513 205.128C41.7633 205.32 41.8193 205.56 41.8193 205.848C41.8193 206.2 41.7313 206.508 41.5553 206.772C41.3793 207.028 41.1233 207.228 40.7873 207.372C40.4593 207.516 40.0593 207.588 39.5873 207.588C39.1553 207.588 38.7873 207.536 38.4833 207.432C38.1873 207.328 37.9353 207.192 37.7273 207.024C37.5273 206.856 37.3713 206.68 37.2593 206.496C37.1553 206.304 37.0833 206.12 37.0433 205.944C37.0113 205.768 37.0033 205.624 37.0193 205.512ZM48.1343 207.576C47.6223 207.576 47.1543 207.444 46.7303 207.18C46.3063 206.916 45.9703 206.552 45.7223 206.088C45.4743 205.616 45.3503 205.076 45.3503 204.468C45.3503 203.86 45.4743 203.324 45.7223 202.86C45.9783 202.388 46.3263 202.02 46.7663 201.756C47.2063 201.484 47.6983 201.348 48.2423 201.348C48.8423 201.348 49.3063 201.488 49.6343 201.768C49.9703 202.048 50.2023 202.424 50.3303 202.896C50.4663 203.368 50.5343 203.892 50.5343 204.468C50.5343 204.788 50.4943 205.128 50.4143 205.488C50.3343 205.848 50.2063 206.188 50.0303 206.508C49.8543 206.828 49.6103 207.088 49.2983 207.288C48.9863 207.48 48.5983 207.576 48.1343 207.576ZM48.4583 206.58C48.8823 206.58 49.2383 206.488 49.5263 206.304C49.8223 206.112 50.0423 205.856 50.1863 205.536C50.3303 205.216 50.4023 204.86 50.4023 204.468C50.4023 204.044 50.3263 203.672 50.1743 203.352C50.0303 203.032 49.8103 202.784 49.5143 202.608C49.2263 202.432 48.8743 202.344 48.4583 202.344C47.8343 202.344 47.3503 202.544 47.0063 202.944C46.6703 203.344 46.5023 203.852 46.5023 204.468C46.5023 204.884 46.5863 205.252 46.7543 205.572C46.9223 205.884 47.1503 206.132 47.4383 206.316C47.7343 206.492 48.0743 206.58 48.4583 206.58ZM50.4023 201.468H51.5543V207.456H50.4983C50.4983 207.456 50.4903 207.384 50.4743 207.24C50.4583 207.088 50.4423 206.908 50.4263 206.7C50.4103 206.492 50.4023 206.308 50.4023 206.148V201.468ZM58.9248 205.176C58.8768 205.672 58.7168 206.104 58.4448 206.472C58.1808 206.832 57.8328 207.108 57.4008 207.3C56.9688 207.492 56.4888 207.588 55.9608 207.588C55.3768 207.588 54.8408 207.468 54.3528 207.228C53.8648 206.98 53.4728 206.624 53.1768 206.16C52.8888 205.688 52.7448 205.128 52.7448 204.48C52.7448 203.824 52.8888 203.264 53.1768 202.8C53.4728 202.328 53.8648 201.968 54.3528 201.72C54.8408 201.472 55.3768 201.348 55.9608 201.348C56.4888 201.348 56.9648 201.444 57.3888 201.636C57.8128 201.828 58.1608 202.104 58.4328 202.464C58.7048 202.816 58.8688 203.24 58.9248 203.736H57.8808C57.7448 203.304 57.5008 202.964 57.1488 202.716C56.8048 202.46 56.4088 202.332 55.9608 202.332C55.5928 202.332 55.2488 202.416 54.9288 202.584C54.6168 202.752 54.3648 202.996 54.1728 203.316C53.9888 203.628 53.8968 204.016 53.8968 204.48C53.8968 204.928 53.9888 205.312 54.1728 205.632C54.3648 205.944 54.6168 206.184 54.9288 206.352C55.2408 206.512 55.5848 206.592 55.9608 206.592C56.4728 206.592 56.8888 206.468 57.2088 206.22C57.5288 205.972 57.7568 205.624 57.8928 205.176H58.9248ZM65.9912 205.176C65.9432 205.672 65.7832 206.104 65.5112 206.472C65.2472 206.832 64.8992 207.108 64.4672 207.3C64.0352 207.492 63.5552 207.588 63.0272 207.588C62.4432 207.588 61.9072 207.468 61.4192 207.228C60.9312 206.98 60.5392 206.624 60.2432 206.16C59.9552 205.688 59.8112 205.128 59.8112 204.48C59.8112 203.824 59.9552 203.264 60.2432 202.8C60.5392 202.328 60.9312 201.968 61.4192 201.72C61.9072 201.472 62.4432 201.348 63.0272 201.348C63.5552 201.348 64.0312 201.444 64.4552 201.636C64.8792 201.828 65.2272 202.104 65.4992 202.464C65.7712 202.816 65.9352 203.24 65.9912 203.736H64.9472C64.8112 203.304 64.5672 202.964 64.2152 202.716C63.8712 202.46 63.4752 202.332 63.0272 202.332C62.6592 202.332 62.3152 202.416 61.9952 202.584C61.6832 202.752 61.4312 202.996 61.2392 203.316C61.0552 203.628 60.9632 204.016 60.9632 204.48C60.9632 204.928 61.0552 205.312 61.2392 205.632C61.4312 205.944 61.6832 206.184 61.9952 206.352C62.3072 206.512 62.6512 206.592 63.0272 206.592C63.5392 206.592 63.9552 206.468 64.2752 206.22C64.5952 205.972 64.8232 205.624 64.9592 205.176H65.9912ZM70.0816 207.588C69.4976 207.588 68.9616 207.464 68.4736 207.216C67.9856 206.968 67.5976 206.612 67.3096 206.148C67.0216 205.684 66.8776 205.128 66.8776 204.48C66.8776 203.824 67.0216 203.264 67.3096 202.8C67.5976 202.328 67.9856 201.968 68.4736 201.72C68.9616 201.472 69.4976 201.348 70.0816 201.348C70.6656 201.348 71.1976 201.472 71.6776 201.72C72.1576 201.968 72.5416 202.328 72.8296 202.8C73.1176 203.264 73.2616 203.824 73.2616 204.48C73.2616 205.128 73.1176 205.684 72.8296 206.148C72.5416 206.612 72.1576 206.968 71.6776 207.216C71.1976 207.464 70.6656 207.588 70.0816 207.588ZM70.0816 206.592C70.4416 206.592 70.7736 206.512 71.0776 206.352C71.3896 206.184 71.6376 205.944 71.8216 205.632C72.0136 205.312 72.1096 204.928 72.1096 204.48C72.1096 204.024 72.0136 203.636 71.8216 203.316C71.6376 202.996 71.3896 202.752 71.0776 202.584C70.7736 202.416 70.4416 202.332 70.0816 202.332C69.7216 202.332 69.3856 202.416 69.0736 202.584C68.7616 202.744 68.5096 202.984 68.3176 203.304C68.1256 203.624 68.0296 204.016 68.0296 204.48C68.0296 204.928 68.1216 205.312 68.3056 205.632C68.4976 205.944 68.7496 206.184 69.0616 206.352C69.3736 206.512 69.7136 206.592 70.0816 206.592ZM80.1189 207.456H78.9789V201.468H80.1189V207.456ZM79.0389 204.636L79.0509 204.996C79.0429 205.1 79.0149 205.256 78.9669 205.464C78.9269 205.664 78.8549 205.884 78.7509 206.124C78.6549 206.364 78.5189 206.596 78.3429 206.82C78.1749 207.044 77.9589 207.228 77.6949 207.372C77.4309 207.516 77.1109 207.588 76.7349 207.588C76.4789 207.588 76.2149 207.552 75.9429 207.48C75.6789 207.408 75.4349 207.288 75.2109 207.12C74.9869 206.952 74.8069 206.724 74.6709 206.436C74.5349 206.14 74.4669 205.772 74.4669 205.332V201.468H75.6189V205.092C75.6189 205.46 75.6749 205.748 75.7869 205.956C75.9069 206.164 76.0749 206.312 76.2909 206.4C76.5069 206.488 76.7509 206.532 77.0229 206.532C77.4389 206.532 77.7869 206.432 78.0669 206.232C78.3549 206.024 78.5789 205.776 78.7389 205.488C78.8989 205.192 78.9989 204.908 79.0389 204.636ZM81.6271 201.468H82.7791V207.456H81.6271V201.468ZM85.0591 201.348C85.3951 201.348 85.6991 201.396 85.9711 201.492C86.2431 201.588 86.4751 201.732 86.6671 201.924C86.8591 202.108 87.0071 202.34 87.1111 202.62C87.2231 202.892 87.2791 203.204 87.2791 203.556V207.456H86.1391V203.808C86.1391 203.336 86.0231 202.984 85.7911 202.752C85.5671 202.512 85.2231 202.392 84.7591 202.392C84.3991 202.392 84.0711 202.476 83.7751 202.644C83.4791 202.812 83.2351 203.036 83.0431 203.316C82.8591 203.588 82.7471 203.896 82.7071 204.24L82.6951 203.58C82.7351 203.26 82.8191 202.964 82.9471 202.692C83.0831 202.42 83.2511 202.184 83.4511 201.984C83.6591 201.776 83.8991 201.62 84.1711 201.516C84.4431 201.404 84.7391 201.348 85.0591 201.348ZM88.3673 201.468H92.2433V202.464H88.3673V201.468ZM89.7353 199.884H90.8753V207.456H89.7353V199.884ZM95.4308 201.468H96.6548L98.9468 207.216L97.9508 207.456L95.4308 201.468ZM101.539 201.468L97.9508 209.856H96.7388L98.2868 206.604L100.327 201.468H101.539ZM105.203 207.588C104.619 207.588 104.083 207.464 103.595 207.216C103.107 206.968 102.719 206.612 102.431 206.148C102.143 205.684 101.999 205.128 101.999 204.48C101.999 203.824 102.143 203.264 102.431 202.8C102.719 202.328 103.107 201.968 103.595 201.72C104.083 201.472 104.619 201.348 105.203 201.348C105.787 201.348 106.319 201.472 106.799 201.72C107.279 201.968 107.663 202.328 107.951 202.8C108.239 203.264 108.383 203.824 108.383 204.48C108.383 205.128 108.239 205.684 107.951 206.148C107.663 206.612 107.279 206.968 106.799 207.216C106.319 207.464 105.787 207.588 105.203 207.588ZM105.203 206.592C105.563 206.592 105.895 206.512 106.199 206.352C106.511 206.184 106.759 205.944 106.943 205.632C107.135 205.312 107.231 204.928 107.231 204.48C107.231 204.024 107.135 203.636 106.943 203.316C106.759 202.996 106.511 202.752 106.199 202.584C105.895 202.416 105.563 202.332 105.203 202.332C104.843 202.332 104.507 202.416 104.195 202.584C103.883 202.744 103.631 202.984 103.439 203.304C103.247 203.624 103.151 204.016 103.151 204.48C103.151 204.928 103.243 205.312 103.427 205.632C103.619 205.944 103.871 206.184 104.183 206.352C104.495 206.512 104.835 206.592 105.203 206.592ZM115.24 207.456H114.1V201.468H115.24V207.456ZM114.16 204.636L114.172 204.996C114.164 205.1 114.136 205.256 114.088 205.464C114.048 205.664 113.976 205.884 113.872 206.124C113.776 206.364 113.64 206.596 113.464 206.82C113.296 207.044 113.08 207.228 112.816 207.372C112.552 207.516 112.232 207.588 111.856 207.588C111.6 207.588 111.336 207.552 111.064 207.48C110.8 207.408 110.556 207.288 110.332 207.12C110.108 206.952 109.928 206.724 109.792 206.436C109.656 206.14 109.588 205.772 109.588 205.332V201.468H110.74V205.092C110.74 205.46 110.796 205.748 110.908 205.956C111.028 206.164 111.196 206.312 111.412 206.4C111.628 206.488 111.872 206.532 112.144 206.532C112.56 206.532 112.908 206.432 113.188 206.232C113.476 206.024 113.7 205.776 113.86 205.488C114.02 205.192 114.12 204.908 114.16 204.636ZM124.029 207.456V203.844C124.029 203.524 123.977 203.26 123.873 203.052C123.769 202.844 123.613 202.688 123.405 202.584C123.197 202.472 122.933 202.416 122.613 202.416C122.261 202.416 121.937 202.5 121.641 202.668C121.353 202.828 121.117 203.048 120.933 203.328C120.749 203.6 120.637 203.908 120.597 204.252L120.585 203.568C120.625 203.256 120.709 202.964 120.837 202.692C120.973 202.42 121.141 202.184 121.341 201.984C121.549 201.784 121.789 201.628 122.061 201.516C122.333 201.404 122.629 201.348 122.949 201.348C123.285 201.348 123.589 201.396 123.861 201.492C124.133 201.58 124.365 201.72 124.557 201.912C124.757 202.096 124.909 202.324 125.013 202.596C125.117 202.86 125.169 203.164 125.169 203.508V207.456H124.029ZM119.529 207.456V199.068H120.669V207.456H119.529ZM129.158 207.576C128.646 207.576 128.178 207.444 127.754 207.18C127.33 206.916 126.994 206.552 126.746 206.088C126.498 205.616 126.374 205.076 126.374 204.468C126.374 203.86 126.498 203.324 126.746 202.86C127.002 202.388 127.35 202.02 127.79 201.756C128.23 201.484 128.722 201.348 129.266 201.348C129.866 201.348 130.33 201.488 130.658 201.768C130.994 202.048 131.226 202.424 131.354 202.896C131.49 203.368 131.558 203.892 131.558 204.468C131.558 204.788 131.518 205.128 131.438 205.488C131.358 205.848 131.23 206.188 131.054 206.508C130.878 206.828 130.634 207.088 130.322 207.288C130.01 207.48 129.622 207.576 129.158 207.576ZM129.482 206.58C129.906 206.58 130.262 206.488 130.55 206.304C130.846 206.112 131.066 205.856 131.21 205.536C131.354 205.216 131.426 204.86 131.426 204.468C131.426 204.044 131.35 203.672 131.198 203.352C131.054 203.032 130.834 202.784 130.538 202.608C130.25 202.432 129.898 202.344 129.482 202.344C128.858 202.344 128.374 202.544 128.03 202.944C127.694 203.344 127.526 203.852 127.526 204.468C127.526 204.884 127.61 205.252 127.778 205.572C127.946 205.884 128.174 206.132 128.462 206.316C128.758 206.492 129.098 206.58 129.482 206.58ZM131.426 201.468H132.578V207.456H131.522C131.522 207.456 131.514 207.384 131.498 207.24C131.482 207.088 131.466 206.908 131.45 206.7C131.434 206.492 131.426 206.308 131.426 206.148V201.468ZM136.696 206.568H136.324L138.268 201.468H139.516L137.056 207.456H135.976L133.54 201.468H134.8L136.696 206.568ZM144.911 205.512H146.003C145.939 205.904 145.787 206.256 145.547 206.568C145.307 206.88 144.991 207.128 144.599 207.312C144.207 207.496 143.747 207.588 143.219 207.588C142.595 207.588 142.039 207.456 141.551 207.192C141.063 206.928 140.679 206.564 140.399 206.1C140.119 205.636 139.979 205.096 139.979 204.48C139.979 203.856 140.115 203.312 140.387 202.848C140.659 202.376 141.035 202.008 141.515 201.744C141.995 201.48 142.543 201.348 143.159 201.348C143.807 201.348 144.351 201.476 144.791 201.732C145.231 201.988 145.555 202.368 145.763 202.872C145.979 203.368 146.067 203.988 146.027 204.732H141.119C141.159 205.092 141.267 205.412 141.443 205.692C141.627 205.972 141.867 206.192 142.163 206.352C142.467 206.512 142.815 206.592 143.207 206.592C143.647 206.592 144.015 206.492 144.311 206.292C144.607 206.092 144.807 205.832 144.911 205.512ZM143.171 202.332C142.651 202.332 142.219 202.472 141.875 202.752C141.531 203.024 141.303 203.388 141.191 203.844H144.875C144.843 203.356 144.667 202.984 144.347 202.728C144.027 202.464 143.635 202.332 143.171 202.332ZM152.769 207.588C152.185 207.588 151.649 207.464 151.161 207.216C150.673 206.968 150.285 206.612 149.997 206.148C149.709 205.684 149.565 205.128 149.565 204.48C149.565 203.824 149.709 203.264 149.997 202.8C150.285 202.328 150.673 201.968 151.161 201.72C151.649 201.472 152.185 201.348 152.769 201.348C153.353 201.348 153.885 201.472 154.365 201.72C154.845 201.968 155.229 202.328 155.517 202.8C155.805 203.264 155.949 203.824 155.949 204.48C155.949 205.128 155.805 205.684 155.517 206.148C155.229 206.612 154.845 206.968 154.365 207.216C153.885 207.464 153.353 207.588 152.769 207.588ZM152.769 206.592C153.129 206.592 153.461 206.512 153.765 206.352C154.077 206.184 154.325 205.944 154.509 205.632C154.701 205.312 154.797 204.928 154.797 204.48C154.797 204.024 154.701 203.636 154.509 203.316C154.325 202.996 154.077 202.752 153.765 202.584C153.461 202.416 153.129 202.332 152.769 202.332C152.409 202.332 152.073 202.416 151.761 202.584C151.449 202.744 151.197 202.984 151.005 203.304C150.813 203.624 150.717 204.016 150.717 204.48C150.717 204.928 150.809 205.312 150.993 205.632C151.185 205.944 151.437 206.184 151.749 206.352C152.061 206.512 152.401 206.592 152.769 206.592ZM157.154 201.468H158.306V207.456H157.154V201.468ZM160.586 201.348C160.922 201.348 161.226 201.396 161.498 201.492C161.77 201.588 162.002 201.732 162.194 201.924C162.386 202.108 162.534 202.34 162.638 202.62C162.75 202.892 162.806 203.204 162.806 203.556V207.456H161.666V203.808C161.666 203.336 161.55 202.984 161.318 202.752C161.094 202.512 160.75 202.392 160.286 202.392C159.926 202.392 159.598 202.476 159.302 202.644C159.006 202.812 158.762 203.036 158.57 203.316C158.386 203.588 158.274 203.896 158.234 204.24L158.222 203.58C158.262 203.26 158.346 202.964 158.474 202.692C158.61 202.42 158.778 202.184 158.978 201.984C159.186 201.776 159.426 201.62 159.698 201.516C159.97 201.404 160.266 201.348 160.586 201.348ZM168.187 203.04H173.503V204.084H168.187V203.04ZM173.371 199.668H174.535V207.456H173.371V199.668ZM167.143 199.668H168.295V207.456H167.143V199.668ZM178.716 207.576C178.204 207.576 177.736 207.444 177.312 207.18C176.888 206.916 176.552 206.552 176.304 206.088C176.056 205.616 175.932 205.076 175.932 204.468C175.932 203.86 176.056 203.324 176.304 202.86C176.56 202.388 176.908 202.02 177.348 201.756C177.788 201.484 178.28 201.348 178.824 201.348C179.424 201.348 179.888 201.488 180.216 201.768C180.552 202.048 180.784 202.424 180.912 202.896C181.048 203.368 181.116 203.892 181.116 204.468C181.116 204.788 181.076 205.128 180.996 205.488C180.916 205.848 180.788 206.188 180.612 206.508C180.436 206.828 180.192 207.088 179.88 207.288C179.568 207.48 179.18 207.576 178.716 207.576ZM179.04 206.58C179.464 206.58 179.82 206.488 180.108 206.304C180.404 206.112 180.624 205.856 180.768 205.536C180.912 205.216 180.984 204.86 180.984 204.468C180.984 204.044 180.908 203.672 180.756 203.352C180.612 203.032 180.392 202.784 180.096 202.608C179.808 202.432 179.456 202.344 179.04 202.344C178.416 202.344 177.932 202.544 177.588 202.944C177.252 203.344 177.084 203.852 177.084 204.468C177.084 204.884 177.168 205.252 177.336 205.572C177.504 205.884 177.732 206.132 178.02 206.316C178.316 206.492 178.656 206.58 179.04 206.58ZM180.984 201.468H182.136V207.456H181.08C181.08 207.456 181.072 207.384 181.056 207.24C181.04 207.088 181.024 206.908 181.008 206.7C180.992 206.492 180.984 206.308 180.984 206.148V201.468ZM183.639 201.468H184.791V207.456H183.639V201.468ZM186.819 202.488C186.403 202.488 186.047 202.584 185.751 202.776C185.463 202.968 185.231 203.204 185.055 203.484C184.887 203.764 184.775 204.032 184.719 204.288L184.707 203.604C184.715 203.524 184.735 203.4 184.767 203.232C184.807 203.056 184.875 202.86 184.971 202.644C185.067 202.428 185.195 202.224 185.355 202.032C185.515 201.832 185.715 201.668 185.955 201.54C186.195 201.412 186.483 201.348 186.819 201.348V202.488ZM190.27 206.52C189.774 206.52 189.318 206.42 188.902 206.22C188.486 206.02 188.154 205.728 187.906 205.344C187.666 204.96 187.546 204.496 187.546 203.952C187.546 203.416 187.666 202.956 187.906 202.572C188.146 202.18 188.47 201.88 188.878 201.672C189.294 201.456 189.758 201.348 190.27 201.348C190.422 201.348 190.566 201.36 190.702 201.384C190.838 201.4 190.97 201.428 191.098 201.468H193.714V202.548C193.354 202.548 192.99 202.488 192.622 202.368C192.262 202.248 191.946 202.12 191.674 201.984L191.638 201.924C191.91 202.068 192.146 202.244 192.346 202.452C192.546 202.652 192.698 202.88 192.802 203.136C192.914 203.384 192.97 203.664 192.97 203.976C192.97 204.504 192.85 204.96 192.61 205.344C192.378 205.728 192.054 206.02 191.638 206.22C191.23 206.42 190.774 206.52 190.27 206.52ZM192.106 209.88V209.604C192.106 209.196 191.994 208.904 191.77 208.728C191.546 208.552 191.218 208.464 190.786 208.464H189.382C189.086 208.464 188.834 208.44 188.626 208.392C188.418 208.344 188.246 208.272 188.11 208.176C187.974 208.088 187.874 207.976 187.81 207.84C187.746 207.712 187.714 207.568 187.714 207.408C187.714 207.096 187.81 206.86 188.002 206.7C188.194 206.54 188.438 206.44 188.734 206.4C189.03 206.352 189.33 206.348 189.634 206.388L190.27 206.52C189.814 206.544 189.466 206.588 189.226 206.652C188.986 206.716 188.866 206.852 188.866 207.06C188.866 207.18 188.914 207.276 189.01 207.348C189.106 207.42 189.242 207.456 189.418 207.456H190.882C191.338 207.456 191.742 207.512 192.094 207.624C192.454 207.744 192.734 207.94 192.934 208.212C193.142 208.492 193.246 208.872 193.246 209.352V209.88H192.106ZM190.27 205.548C190.558 205.548 190.818 205.488 191.05 205.368C191.29 205.24 191.482 205.06 191.626 204.828C191.77 204.588 191.842 204.3 191.842 203.964C191.842 203.62 191.77 203.328 191.626 203.088C191.49 202.84 191.302 202.656 191.062 202.536C190.822 202.408 190.558 202.344 190.27 202.344C189.982 202.344 189.714 202.408 189.466 202.536C189.226 202.656 189.034 202.836 188.89 203.076C188.746 203.316 188.674 203.612 188.674 203.964C188.674 204.3 188.746 204.588 188.89 204.828C189.034 205.06 189.226 205.24 189.466 205.368C189.706 205.488 189.974 205.548 190.27 205.548ZM197.664 207.588C197.08 207.588 196.544 207.464 196.056 207.216C195.568 206.968 195.18 206.612 194.892 206.148C194.604 205.684 194.46 205.128 194.46 204.48C194.46 203.824 194.604 203.264 194.892 202.8C195.18 202.328 195.568 201.968 196.056 201.72C196.544 201.472 197.08 201.348 197.664 201.348C198.248 201.348 198.78 201.472 199.26 201.72C199.74 201.968 200.124 202.328 200.412 202.8C200.7 203.264 200.844 203.824 200.844 204.48C200.844 205.128 200.7 205.684 200.412 206.148C200.124 206.612 199.74 206.968 199.26 207.216C198.78 207.464 198.248 207.588 197.664 207.588ZM197.664 206.592C198.024 206.592 198.356 206.512 198.66 206.352C198.972 206.184 199.22 205.944 199.404 205.632C199.596 205.312 199.692 204.928 199.692 204.48C199.692 204.024 199.596 203.636 199.404 203.316C199.22 202.996 198.972 202.752 198.66 202.584C198.356 202.416 198.024 202.332 197.664 202.332C197.304 202.332 196.968 202.416 196.656 202.584C196.344 202.744 196.092 202.984 195.9 203.304C195.708 203.624 195.612 204.016 195.612 204.48C195.612 204.928 195.704 205.312 195.888 205.632C196.08 205.944 196.332 206.184 196.644 206.352C196.956 206.512 197.296 206.592 197.664 206.592ZM202.049 201.468H203.201V207.456H202.049V201.468ZM205.481 201.348C205.817 201.348 206.121 201.396 206.393 201.492C206.665 201.588 206.897 201.732 207.089 201.924C207.281 202.108 207.429 202.34 207.533 202.62C207.645 202.892 207.701 203.204 207.701 203.556V207.456H206.561V203.808C206.561 203.336 206.445 202.984 206.213 202.752C205.989 202.512 205.645 202.392 205.181 202.392C204.821 202.392 204.493 202.476 204.197 202.644C203.901 202.812 203.657 203.036 203.465 203.316C203.281 203.588 203.169 203.896 203.129 204.24L203.117 203.58C203.157 203.26 203.241 202.964 203.369 202.692C203.505 202.42 203.673 202.184 203.873 201.984C204.081 201.776 204.321 201.62 204.593 201.516C204.865 201.404 205.161 201.348 205.481 201.348Z" fill="#9CA3AF"/>
</g>
<defs>
<clipPath id="clip0_19951_97069">
<rect width="343.417" height="256" fill="white"/>
</clipPath>
<clipPath id="clip1_19951_97069">
<rect y="46.166" width="56.9569" height="56.9569" rx="8.37602" fill="white"/>
</clipPath>
<clipPath id="clip2_19951_97069">
<rect width="22.3337" height="22.3337" fill="white" transform="translate(17.5898 63.7559)"/>
</clipPath>
</defs>
</svg>
