<svg width="194" height="99" viewBox="0 0 194 99" fill="none" xmlns="http://www.w3.org/2000/svg">
<circle cx="37.1689" cy="37.1318" r="36.7861" fill="#23A323"/>
<g clip-path="url(#clip0_7575_73307)">
<path d="M53.5223 19.4434H22.6002C21.0476 19.4434 19.7891 20.7019 19.7891 22.2545V39.1211C19.7891 40.6736 21.0476 41.9322 22.6002 41.9322H53.5223C55.0749 41.9322 56.3334 40.6736 56.3334 39.1211V22.2545C56.3334 20.7019 55.0749 19.4434 53.5223 19.4434Z" stroke="white" stroke-width="2.81111" stroke-linecap="round" stroke-linejoin="round"/>
<path d="M38.0614 34.904C40.3902 34.904 42.278 33.0162 42.278 30.6874C42.278 28.3586 40.3902 26.4707 38.0614 26.4707C35.7326 26.4707 33.8447 28.3586 33.8447 30.6874C33.8447 33.0162 35.7326 34.904 38.0614 34.904Z" stroke="white" stroke-width="2.81111" stroke-linecap="round" stroke-linejoin="round"/>
<path d="M22.6006 48.9609H53.5227M25.4117 55.9887H50.7116" stroke="white" stroke-width="2.81111" stroke-linecap="round" stroke-linejoin="round"/>
</g>
<line x1="0.382812" y1="97.5371" x2="193.065" y2="97.5371" stroke="url(#paint0_linear_7575_73307)"/>
<defs>
<linearGradient id="paint0_linear_7575_73307" x1="0.382813" y1="98.0371" x2="193.065" y2="98.0371" gradientUnits="userSpaceOnUse">
<stop stop-color="#23A323"/>
<stop offset="1" stop-color="#23A323" stop-opacity="0"/>
</linearGradient>
<clipPath id="clip0_7575_73307">
<rect width="39.3555" height="39.3555" fill="white" transform="translate(18.3828 18.0391)"/>
</clipPath>
</defs>
</svg>
