<svg width="441" height="268" viewBox="0 0 441 268" fill="none" xmlns="http://www.w3.org/2000/svg">
<g filter="url(#filter0_d_3792_39420)">
<g clip-path="url(#clip0_3792_39420)">
<rect x="17.9196" y="177.469" width="343.419" height="74.1777" rx="7.67356" transform="rotate(-29.1758 17.9196 177.469)" fill="white"/>
<path d="M123.666 151.811L124.631 153.54L116.249 158.22L118.516 162.28L125.37 158.453L126.313 160.141L119.459 163.968L122.568 169.536L120.638 170.613L113.355 157.568L123.666 151.811ZM127.161 148.383L128.317 150.454L125.925 151.789L124.769 149.719L127.161 148.383ZM127.322 153.725L129.231 152.659L134.831 162.689L132.922 163.755L127.322 153.725ZM141.156 146.001L139.919 153.89L139.098 160.306L136.747 161.619L138.077 153.283L138.825 147.303L141.156 146.001ZM131.147 151.589L133.538 150.254L139.234 152.663L146.977 155.907L144.646 157.209L138.664 154.617L131.147 151.589ZM154.267 147.566L156.096 146.545C156.355 147.261 156.43 147.993 156.32 148.74C156.21 149.487 155.912 150.198 155.428 150.873C154.943 151.548 154.259 152.132 153.374 152.626C152.329 153.209 151.274 153.508 150.21 153.522C149.146 153.536 148.162 153.286 147.259 152.771C146.356 152.255 145.617 151.482 145.041 150.45C144.457 149.405 144.176 148.366 144.198 147.335C144.212 146.29 144.498 145.322 145.055 144.431C145.612 143.539 146.406 142.806 147.438 142.23C148.524 141.624 149.554 141.329 150.531 141.347C151.507 141.364 152.405 141.698 153.225 142.347C154.051 142.976 154.778 143.932 155.407 145.216L147.186 149.806C147.59 150.371 148.07 150.806 148.626 151.111C149.196 151.408 149.804 151.552 150.45 151.543C151.108 151.527 151.766 151.335 152.423 150.969C153.16 150.557 153.683 150.045 153.991 149.434C154.3 148.822 154.392 148.199 154.267 147.566ZM148.378 143.867C147.507 144.353 146.915 144.992 146.6 145.782C146.279 146.56 146.237 147.382 146.476 148.251L152.647 144.806C152.137 144.018 151.494 143.56 150.719 143.43C149.936 143.287 149.156 143.433 148.378 143.867ZM164.239 146.533C163.368 147.019 162.454 147.24 161.497 147.194C160.54 147.148 159.637 146.853 158.787 146.308C157.944 145.741 157.238 144.949 156.669 143.931C156.101 142.912 155.801 141.902 155.769 140.901C155.729 139.886 155.934 138.963 156.384 138.131C156.827 137.287 157.504 136.61 158.415 136.101C159.205 135.66 159.937 135.427 160.609 135.403C161.281 135.38 161.899 135.527 162.464 135.844C163.028 136.162 163.546 136.602 164.018 137.165C164.504 137.72 164.949 138.359 165.353 139.083C165.652 139.619 165.903 140.226 166.106 140.903C166.308 141.581 166.412 142.27 166.416 142.971C166.421 143.672 166.255 144.335 165.92 144.962C165.577 145.576 165.016 146.099 164.239 146.533ZM163.85 144.562C164.561 144.165 165.071 143.678 165.381 143.101C165.697 142.502 165.827 141.868 165.768 141.197C165.71 140.526 165.498 139.863 165.131 139.206C164.735 138.496 164.26 137.944 163.706 137.55C163.165 137.149 162.565 136.939 161.905 136.921C161.258 136.896 160.586 137.077 159.889 137.467C158.844 138.05 158.22 138.838 158.018 139.829C157.829 140.814 158.023 141.822 158.599 142.853C158.988 143.55 159.473 144.088 160.054 144.467C160.627 144.832 161.241 145.035 161.895 145.074C162.555 145.092 163.207 144.921 163.85 144.562ZM160.081 130.161L162.011 129.084L169.855 143.134L168.087 144.121C167.882 143.849 167.64 143.51 167.36 143.103C167.094 142.689 166.875 142.328 166.703 142.02L160.081 130.161ZM175.406 122.923C176.76 122.168 177.989 121.71 179.095 121.549C180.207 121.368 181.205 121.426 182.092 121.722C182.991 122.011 183.778 122.476 184.453 123.119C185.129 123.761 185.709 124.518 186.196 125.389C186.674 126.247 187.001 127.146 187.174 128.086C187.361 129.019 187.338 129.954 187.106 130.892C186.887 131.823 186.424 132.723 185.714 133.594C184.998 134.451 183.989 135.242 182.69 135.968L177.464 138.886L170.18 125.841L175.406 122.923ZM178.417 136.06L181.693 134.231C182.725 133.655 183.501 133.045 184.021 132.403C184.534 131.748 184.858 131.084 184.992 130.411C185.132 129.718 185.122 129.038 184.961 128.372C184.813 127.699 184.575 127.067 184.246 126.478C183.909 125.875 183.497 125.34 183.008 124.875C182.533 124.402 181.971 124.056 181.322 123.839C180.679 123.6 179.952 123.54 179.14 123.66C178.32 123.766 177.394 124.107 176.363 124.683L173.086 126.512L178.417 136.06ZM198.079 123.105L199.908 122.084C200.167 122.8 200.242 123.532 200.131 124.279C200.021 125.026 199.724 125.737 199.239 126.412C198.755 127.086 198.07 127.671 197.186 128.164C196.141 128.748 195.086 129.047 194.022 129.061C192.957 129.075 191.974 128.825 191.071 128.309C190.168 127.794 189.428 127.02 188.852 125.989C188.269 124.943 187.988 123.905 188.01 122.873C188.024 121.828 188.309 120.86 188.867 119.969C189.424 119.078 190.218 118.345 191.25 117.769C192.335 117.163 193.366 116.868 194.343 116.885C195.319 116.903 196.217 117.236 197.037 117.886C197.862 118.515 198.59 119.471 199.218 120.755L190.998 125.345C191.401 125.91 191.881 126.345 192.438 126.65C193.008 126.946 193.616 127.091 194.261 127.082C194.92 127.065 195.578 126.874 196.234 126.507C196.971 126.096 197.494 125.584 197.803 124.972C198.112 124.361 198.204 123.738 198.079 123.105ZM192.19 119.406C191.319 119.892 190.727 120.53 190.412 121.321C190.09 122.098 190.049 122.921 190.288 123.79L196.458 120.345C195.948 119.557 195.306 119.099 194.53 118.969C193.747 118.826 192.967 118.972 192.19 119.406ZM209.65 121.205C208.873 121.639 208.129 121.835 207.42 121.791C206.71 121.748 206.058 121.541 205.464 121.17C204.87 120.798 204.338 120.348 203.867 119.82C203.396 119.292 203.011 118.76 202.712 118.224C202.308 117.5 201.991 116.79 201.76 116.093C201.542 115.388 201.446 114.712 201.471 114.065C201.497 113.418 201.696 112.815 202.069 112.255C202.442 111.695 203.024 111.195 203.814 110.753C204.685 110.267 205.596 110.057 206.548 110.124C207.491 110.177 208.392 110.483 209.248 111.042C210.119 111.593 210.834 112.371 211.395 113.376C211.972 114.408 212.266 115.439 212.278 116.469C212.284 117.485 212.055 118.413 211.591 119.252C211.141 120.083 210.494 120.734 209.65 121.205ZM208.165 119.82C208.808 119.461 209.295 118.996 209.626 118.424C209.95 117.839 210.1 117.21 210.076 116.538C210.058 115.845 209.855 115.15 209.466 114.453C208.89 113.421 208.127 112.731 207.176 112.383C206.239 112.027 205.248 112.141 204.203 112.725C203.573 113.076 203.093 113.538 202.762 114.11C202.444 114.674 202.294 115.302 202.312 115.995C202.33 116.689 202.537 117.39 202.933 118.1C203.307 118.77 203.765 119.306 204.305 119.707C204.852 120.088 205.456 120.304 206.118 120.357C206.772 120.395 207.454 120.217 208.165 119.82ZM198.198 114.153L200.047 113.12L201.396 115.347L207.972 127.125L206.043 128.203L198.198 114.153ZM221.171 114.773C220.193 115.319 219.179 115.613 218.13 115.654C217.08 115.695 216.098 115.461 215.181 114.953C214.265 114.445 213.504 113.649 212.898 112.563C212.284 111.465 212.002 110.392 212.05 109.345C212.091 108.285 212.405 107.32 212.99 106.448C213.575 105.576 214.357 104.867 215.335 104.321C216.314 103.775 217.321 103.485 218.357 103.451C219.393 103.418 220.372 103.662 221.296 104.183C222.213 104.691 222.978 105.494 223.591 106.593C224.197 107.678 224.476 108.744 224.427 109.791C224.379 110.838 224.069 111.793 223.497 112.657C222.924 113.522 222.149 114.227 221.171 114.773ZM220.24 113.105C220.843 112.768 221.324 112.323 221.684 111.771C222.049 111.198 222.24 110.564 222.256 109.869C222.279 109.154 222.08 108.421 221.661 107.67C221.235 106.907 220.711 106.347 220.09 105.99C219.483 105.626 218.839 105.449 218.16 105.46C217.493 105.463 216.859 105.632 216.256 105.969C215.653 106.306 215.168 106.761 214.803 107.334C214.43 107.894 214.232 108.531 214.21 109.247C214.188 109.962 214.393 110.709 214.827 111.486C215.246 112.236 215.76 112.794 216.367 113.158C216.98 113.501 217.627 113.667 218.307 113.657C218.979 113.633 219.623 113.449 220.24 113.105ZM226.133 107.441L227.902 106.454C228.268 106.952 228.756 107.26 229.366 107.376C229.968 107.479 230.645 107.321 231.395 106.903C231.878 106.633 232.223 106.37 232.431 106.113C232.632 105.843 232.73 105.578 232.725 105.317C232.733 105.048 232.67 104.794 232.535 104.552C232.363 104.244 232.152 104.055 231.901 103.984C231.643 103.899 231.337 103.886 230.982 103.943C230.62 103.987 230.208 104.068 229.746 104.185C229.237 104.311 228.716 104.417 228.184 104.503C227.652 104.59 227.135 104.623 226.632 104.605C226.143 104.579 225.691 104.462 225.276 104.255C224.868 104.026 224.525 103.664 224.248 103.168C224.016 102.753 223.886 102.315 223.858 101.856C223.844 101.39 223.933 100.936 224.126 100.494C224.325 100.031 224.614 99.606 224.995 99.2176C225.369 98.8158 225.83 98.4616 226.379 98.1548C227.143 97.7284 227.865 97.51 228.545 97.4996C229.217 97.4758 229.825 97.637 230.37 97.9832C230.928 98.3219 231.394 98.8091 231.766 99.4448L230.078 100.387C229.67 99.877 229.247 99.5768 228.81 99.4868C228.366 99.3834 227.849 99.4963 227.259 99.8255C226.683 100.147 226.305 100.508 226.124 100.908C225.943 101.308 225.961 101.702 226.177 102.091C226.342 102.385 226.584 102.567 226.903 102.635C227.215 102.689 227.589 102.682 228.025 102.614C228.462 102.546 228.949 102.459 229.487 102.352C229.998 102.26 230.493 102.186 230.971 102.13C231.456 102.053 231.912 102.035 232.34 102.078C232.774 102.099 233.171 102.229 233.532 102.466C233.9 102.683 234.218 103.033 234.487 103.515C234.816 104.105 234.957 104.703 234.909 105.31C234.854 105.903 234.612 106.478 234.184 107.033C233.769 107.581 233.166 108.076 232.376 108.517C231.652 108.921 230.987 109.178 230.381 109.288C229.788 109.391 229.238 109.399 228.733 109.312C228.241 109.217 227.815 109.069 227.455 108.865C227.101 108.641 226.809 108.4 226.577 108.143C226.359 107.878 226.211 107.644 226.133 107.441ZM232.411 89.6195L233.567 91.6898L231.175 93.0253L230.019 90.955L232.411 89.6195ZM232.572 94.9609L234.482 93.8948L240.082 103.925L238.172 104.991L232.572 94.9609ZM236.497 92.7694L242.99 89.1446L243.921 90.8129L237.429 94.4377L236.497 92.7694ZM237.307 88.8368L239.217 87.7707L246.298 100.454L244.389 101.52L237.307 88.8368ZM248.157 95.145L249.925 94.1574C250.292 94.656 250.78 94.9635 251.39 95.08C251.992 95.1831 252.668 95.0251 253.419 94.6062C253.901 94.3368 254.247 94.0737 254.455 93.8169C254.655 93.5467 254.753 93.2811 254.748 93.0203C254.757 92.7519 254.693 92.4972 254.559 92.256C254.387 91.9478 254.175 91.7582 253.925 91.6871C253.667 91.6027 253.36 91.5892 253.006 91.6466C252.644 91.6906 252.232 91.7712 251.77 91.8885C251.26 92.0148 250.739 92.1209 250.207 92.207C249.675 92.2931 249.158 92.327 248.656 92.3087C248.167 92.2829 247.715 92.1661 247.3 91.9583C246.891 91.7296 246.548 91.3673 246.272 90.8715C246.04 90.4561 245.91 90.0189 245.882 89.5599C245.868 89.0933 245.957 88.6392 246.15 88.1976C246.348 87.7351 246.638 87.3096 247.019 86.9212C247.392 86.5195 247.854 86.1652 248.403 85.8585C249.167 85.432 249.889 85.2136 250.568 85.2032C251.24 85.1794 251.849 85.3406 252.394 85.6868C252.952 86.0255 253.417 86.5127 253.79 87.1484L252.102 88.0911C251.693 87.5807 251.271 87.2804 250.834 87.1904C250.39 87.087 249.873 87.1999 249.283 87.5291C248.707 87.8508 248.328 88.2116 248.147 88.6115C247.966 89.0114 247.984 89.4056 248.201 89.7942C248.366 90.089 248.608 90.2703 248.927 90.3382C249.238 90.3927 249.613 90.386 250.049 90.318C250.486 90.25 250.973 90.1625 251.511 90.0555C252.022 89.9635 252.517 89.8894 252.995 89.8332C253.479 89.7562 253.936 89.7388 254.363 89.7812C254.797 89.8026 255.195 89.9322 255.556 90.1699C255.923 90.3868 256.241 90.7364 256.511 91.2188C256.84 91.8084 256.981 92.4066 256.933 93.0134C256.877 93.6068 256.636 94.1812 256.207 94.7366C255.793 95.2846 255.19 95.7793 254.399 96.2207C253.676 96.6247 253.011 96.8817 252.404 96.9918C251.811 97.0945 251.262 97.1023 250.756 97.0154C250.264 96.9211 249.838 96.7722 249.479 96.5687C249.125 96.3444 248.832 96.1035 248.601 95.8461C248.383 95.5812 248.234 95.3475 248.157 95.145Z" fill="#228B22"/>
</g>
</g>
<path d="M399.314 242.591L391.672 233.934L402.989 231.644L399.314 242.591ZM299.313 129.25C324.968 126.608 378.896 144.541 398.507 233.562L396.554 233.992C377.123 145.793 323.996 128.719 299.518 131.239L299.313 129.25Z" fill="url(#paint0_linear_3792_39420)"/>
<defs>
<filter id="filter0_d_3792_39420" x="-2.08044" y="-1.94531" width="376.01" height="272.182" filterUnits="userSpaceOnUse" color-interpolation-filters="sRGB">
<feFlood flood-opacity="0" result="BackgroundImageFix"/>
<feColorMatrix in="SourceAlpha" type="matrix" values="0 0 0 0 0 0 0 0 0 0 0 0 0 0 0 0 0 0 127 0" result="hardAlpha"/>
<feOffset dy="8"/>
<feGaussianBlur stdDeviation="10"/>
<feComposite in2="hardAlpha" operator="out"/>
<feColorMatrix type="matrix" values="0 0 0 0 0 0 0 0 0 0 0 0 0 0 0 0 0 0 0.12 0"/>
<feBlend mode="normal" in2="BackgroundImageFix" result="effect1_dropShadow_3792_39420"/>
<feBlend mode="normal" in="SourceGraphic" in2="effect1_dropShadow_3792_39420" result="shape"/>
</filter>
<linearGradient id="paint0_linear_3792_39420" x1="393.529" y1="242.59" x2="322.479" y2="142.067" gradientUnits="userSpaceOnUse">
<stop stop-color="white"/>
<stop offset="1" stop-color="white" stop-opacity="0"/>
</linearGradient>
<clipPath id="clip0_3792_39420">
<rect x="17.9196" y="177.469" width="343.419" height="74.1777" rx="7.67356" transform="rotate(-29.1758 17.9196 177.469)" fill="white"/>
</clipPath>
</defs>
</svg>
