<svg width="48" height="25" viewBox="0 0 48 25" fill="none" xmlns="http://www.w3.org/2000/svg">
<g clip-path="url(#clip0_3342_32235)">
<path d="M2.66667 3.83301C1.95942 3.83301 1.28115 4.11396 0.781049 4.61406C0.280952 5.11415 0 5.79243 0 6.49967L0 18.4997C0 19.2069 0.280952 19.8852 0.781049 20.3853C1.28115 20.8854 1.95942 21.1663 2.66667 21.1663H8V3.83301H2.66667Z" fill="#009A49"/>
<path d="M8 3.83301H16V21.1663H8V3.83301Z" fill="#EEEEEE"/>
<path d="M21.3333 3.83301H16V21.1663H21.3333C22.0406 21.1663 22.7189 20.8854 23.219 20.3853C23.719 19.8852 24 19.2069 24 18.4997V6.49967C24 5.79243 23.719 5.11415 23.219 4.61406C22.7189 4.11396 22.0406 3.83301 21.3333 3.83301Z" fill="#009A49"/>
</g>
<path d="M40 15.7004C39.5333 15.7004 39.0667 15.5204 38.7133 15.1671L34.3667 10.8204C34.1733 10.6271 34.1733 10.3071 34.3667 10.1137C34.56 9.92042 34.88 9.92042 35.0733 10.1137L39.42 14.4604C39.74 14.7804 40.26 14.7804 40.58 14.4604L44.9267 10.1137C45.12 9.92042 45.44 9.92042 45.6333 10.1137C45.8267 10.3071 45.8267 10.6271 45.6333 10.8204L41.2867 15.1671C40.9333 15.5204 40.4667 15.7004 40 15.7004Z" fill="white"/>
<defs>
<clipPath id="clip0_3342_32235">
<rect width="24" height="24" fill="white" transform="translate(0 0.5)"/>
</clipPath>
</defs>
</svg>
