<svg width="894" height="159" viewBox="0 0 894 159" fill="none" xmlns="http://www.w3.org/2000/svg">
<g clip-path="url(#clip0_4937_41035)">
<rect x="38.4346" y="1.73828" width="817.13" height="97.0957" rx="48.5479" stroke="#23A323" stroke-width="2" stroke-linecap="round" stroke-linejoin="round" stroke-dasharray="4 8 12 16"/>
<path d="M124.888 27.714V34.084H95.3783V46.304H119.558V52.414H95.3783V69.834H87.9683V27.714H124.888ZM131.504 24.464H138.719V69.834H131.504V24.464ZM174.525 59.174H181.48C181.133 61.384 180.267 63.3557 178.88 65.089C177.537 66.779 175.695 68.1223 173.355 69.119C171.015 70.0723 168.22 70.549 164.97 70.549C161.287 70.549 157.993 69.8773 155.09 68.534C152.187 67.1473 149.912 65.1973 148.265 62.684C146.618 60.1707 145.795 57.1807 145.795 53.714C145.795 50.2906 146.597 47.3006 148.2 44.744C149.803 42.1873 152.013 40.2156 154.83 38.829C157.69 37.4423 160.983 36.749 164.71 36.749C168.567 36.749 171.773 37.4423 174.33 38.829C176.93 40.1723 178.858 42.209 180.115 44.939C181.372 47.6257 181.892 51.0273 181.675 55.144H153.14C153.357 56.964 153.942 58.6107 154.895 60.084C155.892 61.514 157.235 62.6407 158.925 63.464C160.615 64.244 162.587 64.634 164.84 64.634C167.353 64.634 169.455 64.1357 171.145 63.139C172.878 62.1423 174.005 60.8207 174.525 59.174ZM164.515 42.599C161.568 42.599 159.142 43.3356 157.235 44.809C155.328 46.239 154.093 48.0806 153.53 50.334H174.395C174.222 47.9073 173.247 46.0223 171.47 44.679C169.693 43.2923 167.375 42.599 164.515 42.599ZM219.73 37.464L204.52 55.339L193.08 69.834H184.24L200.23 50.984L210.955 37.464H219.73ZM184.24 37.464H193.145L204.585 50.984L220.575 69.834H211.735L199.905 55.469L184.24 37.464ZM234.455 23.749V30.704H225.81V23.749H234.455ZM226.46 37.464H233.74V69.834H226.46V37.464ZM264.417 70.549C261.731 70.549 259.456 70.029 257.592 68.989C255.772 67.9057 254.299 66.519 253.172 64.829C252.089 63.139 251.287 61.319 250.767 59.369C250.291 57.3757 250.052 55.4907 250.052 53.714C250.052 51.3307 250.291 49.1207 250.767 47.084C251.244 45.0473 252.024 43.2707 253.107 41.754C254.234 40.194 255.707 38.9806 257.527 38.114C259.391 37.204 261.687 36.749 264.417 36.749C267.537 36.749 270.289 37.464 272.672 38.894C275.099 40.324 277.006 42.3173 278.392 44.874C279.822 47.3873 280.537 50.334 280.537 53.714C280.537 57.0073 279.822 59.9323 278.392 62.489C276.962 65.0023 275.034 66.974 272.607 68.404C270.181 69.834 267.451 70.549 264.417 70.549ZM262.207 64.569C264.417 64.569 266.324 64.114 267.927 63.204C269.574 62.294 270.852 61.0157 271.762 59.369C272.672 57.7223 273.127 55.8373 273.127 53.714C273.127 50.464 272.174 47.8207 270.267 45.784C268.361 43.704 265.674 42.664 262.207 42.664C259.824 42.664 257.766 43.119 256.032 44.029C254.342 44.939 253.042 46.2173 252.132 47.864C251.266 49.4673 250.832 51.4173 250.832 53.714C250.832 55.794 251.266 57.6573 252.132 59.304C253.042 60.9507 254.342 62.2507 256.032 63.204C257.722 64.114 259.781 64.569 262.207 64.569ZM250.832 24.464V62.164C250.832 63.334 250.767 64.6557 250.637 66.129C250.507 67.6023 250.377 68.8373 250.247 69.834H243.552V24.464H250.832ZM287.529 24.464H294.744V69.834H287.529V24.464ZM330.55 59.174H337.505C337.159 61.384 336.292 63.3557 334.905 65.089C333.562 66.779 331.72 68.1223 329.38 69.119C327.04 70.0723 324.245 70.549 320.995 70.549C317.312 70.549 314.019 69.8773 311.115 68.534C308.212 67.1473 305.937 65.1973 304.29 62.684C302.644 60.1707 301.82 57.1807 301.82 53.714C301.82 50.2906 302.622 47.3006 304.225 44.744C305.829 42.1873 308.039 40.2156 310.855 38.829C313.715 37.4423 317.009 36.749 320.735 36.749C324.592 36.749 327.799 37.4423 330.355 38.829C332.955 40.1723 334.884 42.209 336.14 44.939C337.397 47.6257 337.917 51.0273 337.7 55.144H309.165C309.382 56.964 309.967 58.6107 310.92 60.084C311.917 61.514 313.26 62.6407 314.95 63.464C316.64 64.244 318.612 64.634 320.865 64.634C323.379 64.634 325.48 64.1357 327.17 63.139C328.904 62.1423 330.03 60.8207 330.55 59.174ZM320.54 42.599C317.594 42.599 315.167 43.3356 313.26 44.809C311.354 46.239 310.119 48.0806 309.555 50.334H330.42C330.247 47.9073 329.272 46.0223 327.495 44.679C325.719 43.2923 323.4 42.599 320.54 42.599ZM448.999 37.464H456.214V69.834H448.999V37.464ZM467.914 43.639C465.574 43.639 463.559 44.1373 461.869 45.134C460.222 46.1306 458.9 47.344 457.904 48.774C456.907 50.204 456.214 51.5907 455.824 52.934L455.759 49.294C455.802 48.8173 455.954 48.1023 456.214 47.149C456.474 46.1523 456.864 45.069 457.384 43.899C457.947 42.729 458.684 41.6023 459.594 40.519C460.547 39.3923 461.695 38.4823 463.039 37.789C464.425 37.0957 466.05 36.749 467.914 36.749V43.639ZM500.414 59.174H507.369C507.022 61.384 506.155 63.3557 504.769 65.089C503.425 66.779 501.584 68.1223 499.244 69.119C496.904 70.0723 494.109 70.549 490.859 70.549C487.175 70.549 483.882 69.8773 480.979 68.534C478.075 67.1473 475.8 65.1973 474.154 62.684C472.507 60.1707 471.684 57.1807 471.684 53.714C471.684 50.2906 472.485 47.3006 474.089 44.744C475.692 42.1873 477.902 40.2156 480.719 38.829C483.579 37.4423 486.872 36.749 490.599 36.749C494.455 36.749 497.662 37.4423 500.219 38.829C502.819 40.1723 504.747 42.209 506.004 44.939C507.26 47.6257 507.78 51.0273 507.564 55.144H479.029C479.245 56.964 479.83 58.6107 480.784 60.084C481.78 61.514 483.124 62.6407 484.814 63.464C486.504 64.244 488.475 64.634 490.729 64.634C493.242 64.634 495.344 64.1357 497.034 63.139C498.767 62.1423 499.894 60.8207 500.414 59.174ZM490.404 42.599C487.457 42.599 485.03 43.3356 483.124 44.809C481.217 46.239 479.982 48.0806 479.419 50.334H500.284C500.11 47.9073 499.135 46.0223 497.359 44.679C495.582 43.2923 493.264 42.599 490.404 42.599ZM534.799 70.549C532.155 70.549 529.902 70.029 528.039 68.989C526.219 67.949 524.745 66.584 523.619 64.894C522.535 63.1607 521.734 61.319 521.214 59.369C520.694 57.3757 520.434 55.4907 520.434 53.714C520.434 51.3307 520.672 49.1207 521.149 47.084C521.669 45.0473 522.47 43.2707 523.554 41.754C524.68 40.194 526.154 38.9806 527.974 38.114C529.837 37.204 532.112 36.749 534.799 36.749C537.832 36.749 540.562 37.4857 542.989 38.959C545.415 40.389 547.344 42.3823 548.774 44.939C550.204 47.4523 550.919 50.3773 550.919 53.714C550.919 57.0507 550.182 59.9973 548.709 62.554C547.279 65.0673 545.35 67.039 542.924 68.469C540.497 69.8557 537.789 70.549 534.799 70.549ZM532.654 64.569C534.82 64.569 536.727 64.114 538.374 63.204C540.02 62.294 541.299 61.0157 542.209 59.369C543.119 57.7223 543.574 55.8373 543.574 53.714C543.574 50.464 542.62 47.8207 540.714 45.784C538.807 43.704 536.12 42.664 532.654 42.664C530.487 42.664 528.537 43.119 526.804 44.029C525.07 44.939 523.705 46.2173 522.709 47.864C521.712 49.4673 521.214 51.4173 521.214 53.714C521.214 55.794 521.669 57.6573 522.579 59.304C523.489 60.9507 524.789 62.2507 526.479 63.204C528.169 64.114 530.227 64.569 532.654 64.569ZM513.999 37.464H520.889L521.214 45.394V82.834H513.999V37.464ZM571.783 70.549C568.836 70.549 566.128 69.834 563.658 68.404C561.231 66.974 559.281 65.0023 557.808 62.489C556.378 59.9323 555.663 57.0073 555.663 53.714C555.663 50.334 556.4 47.3873 557.873 44.874C559.346 42.3173 561.34 40.324 563.853 38.894C566.366 37.464 569.183 36.749 572.303 36.749C575.77 36.749 578.521 37.5073 580.558 39.024C582.595 40.5406 584.046 42.5773 584.913 45.134C585.78 47.6907 586.213 50.5507 586.213 53.714C586.213 55.4907 585.953 57.3757 585.433 59.369C584.913 61.319 584.09 63.139 582.963 64.829C581.88 66.519 580.406 67.9057 578.543 68.989C576.723 70.029 574.47 70.549 571.783 70.549ZM573.993 64.569C576.42 64.569 578.478 64.114 580.168 63.204C581.901 62.2507 583.201 60.9507 584.068 59.304C584.978 57.6573 585.433 55.794 585.433 53.714C585.433 51.4173 584.978 49.4673 584.068 47.864C583.158 46.2173 581.858 44.9606 580.168 44.094C578.478 43.184 576.42 42.729 573.993 42.729C570.526 42.729 567.84 43.7473 565.933 45.784C564.026 47.8207 563.073 50.464 563.073 53.714C563.073 55.8373 563.528 57.7223 564.438 59.369C565.391 61.0157 566.691 62.294 568.338 63.204C569.985 64.114 571.87 64.569 573.993 64.569ZM585.433 37.464H592.713V69.834H585.953C585.953 69.834 585.91 69.4223 585.823 68.599C585.736 67.7757 585.65 66.779 585.563 65.609C585.476 64.3957 585.433 63.2473 585.433 62.164V37.464ZM597.719 37.464H605.454L618.519 68.534L612.279 69.834L597.719 37.464ZM633.794 37.464L612.994 82.834H605.389L614.294 65.089L626.059 37.464H633.794ZM638.984 37.464H646.199V69.834H638.984V37.464ZM659.849 36.749C661.712 36.749 663.424 37.009 664.984 37.529C666.587 38.049 667.952 38.8507 669.079 39.934C670.249 40.974 671.137 42.274 671.744 43.834C672.394 45.394 672.719 47.2356 672.719 49.359V69.834H665.504V50.789C665.504 48.1457 664.854 46.1957 663.554 44.939C662.297 43.639 660.304 42.989 657.574 42.989C655.494 42.989 653.587 43.444 651.854 44.354C650.164 45.2207 648.777 46.369 647.694 47.799C646.611 49.1857 645.982 50.724 645.809 52.414L645.744 48.904C645.961 47.3006 646.437 45.784 647.174 44.354C647.911 42.8806 648.886 41.5806 650.099 40.454C651.312 39.284 652.742 38.374 654.389 37.724C656.036 37.074 657.856 36.749 659.849 36.749ZM685.654 36.749C687.561 36.749 689.294 37.009 690.854 37.529C692.414 38.049 693.757 38.8507 694.884 39.934C696.054 40.974 696.964 42.274 697.614 43.834C698.264 45.394 698.589 47.2356 698.589 49.359V69.834H691.309V50.789C691.309 48.1457 690.659 46.1957 689.359 44.939C688.102 43.639 686.109 42.989 683.379 42.989C681.299 42.989 679.392 43.444 677.659 44.354C675.969 45.2207 674.582 46.369 673.499 47.799C672.459 49.1857 671.852 50.724 671.679 52.414L671.549 48.774C671.766 47.214 672.264 45.719 673.044 44.289C673.824 42.8157 674.821 41.5157 676.034 40.389C677.247 39.2623 678.656 38.374 680.259 37.724C681.906 37.074 683.704 36.749 685.654 36.749ZM733.563 59.174H740.518C740.171 61.384 739.305 63.3557 737.918 65.089C736.575 66.779 734.733 68.1223 732.393 69.119C730.053 70.0723 727.258 70.549 724.008 70.549C720.325 70.549 717.031 69.8773 714.128 68.534C711.225 67.1473 708.95 65.1973 707.303 62.684C705.656 60.1707 704.833 57.1807 704.833 53.714C704.833 50.2906 705.635 47.3006 707.238 44.744C708.841 42.1873 711.051 40.2156 713.868 38.829C716.728 37.4423 720.021 36.749 723.748 36.749C727.605 36.749 730.811 37.4423 733.368 38.829C735.968 40.1723 737.896 42.209 739.153 44.939C740.41 47.6257 740.93 51.0273 740.713 55.144H712.178C712.395 56.964 712.98 58.6107 713.933 60.084C714.93 61.514 716.273 62.6407 717.963 63.464C719.653 64.244 721.625 64.634 723.878 64.634C726.391 64.634 728.493 64.1357 730.183 63.139C731.916 62.1423 733.043 60.8207 733.563 59.174ZM723.553 42.599C720.606 42.599 718.18 43.3356 716.273 44.809C714.366 46.239 713.131 48.0806 712.568 50.334H733.433C733.26 47.9073 732.285 46.0223 730.508 44.679C728.731 43.2923 726.413 42.599 723.553 42.599ZM747.148 37.464H754.363V69.834H747.148V37.464ZM768.013 36.749C769.876 36.749 771.588 37.009 773.148 37.529C774.751 38.049 776.116 38.8507 777.243 39.934C778.413 40.974 779.301 42.274 779.908 43.834C780.558 45.394 780.883 47.2356 780.883 49.359V69.834H773.668V50.789C773.668 48.1457 773.018 46.1957 771.718 44.939C770.461 43.639 768.468 42.989 765.738 42.989C763.658 42.989 761.751 43.444 760.018 44.354C758.328 45.2207 756.941 46.369 755.858 47.799C754.775 49.1857 754.146 50.724 753.973 52.414L753.908 48.904C754.125 47.3006 754.601 45.784 755.338 44.354C756.075 42.8806 757.05 41.5806 758.263 40.454C759.476 39.284 760.906 38.374 762.553 37.724C764.2 37.074 766.02 36.749 768.013 36.749ZM786.577 37.464H809.457V43.379H786.577V37.464ZM794.377 28.754H801.657V69.834H794.377V28.754Z" fill="#23A323"/>
<path d="M352.747 115.464H375.627V121.379H352.747V115.464ZM360.547 106.754H367.827V147.834H360.547V106.754ZM407.833 137.174H414.788C414.441 139.384 413.575 141.356 412.188 143.089C410.845 144.779 409.003 146.122 406.663 147.119C404.323 148.072 401.528 148.549 398.278 148.549C394.595 148.549 391.301 147.877 388.398 146.534C385.495 145.147 383.22 143.197 381.573 140.684C379.926 138.171 379.103 135.181 379.103 131.714C379.103 128.291 379.905 125.301 381.508 122.744C383.111 120.187 385.321 118.216 388.138 116.829C390.998 115.442 394.291 114.749 398.018 114.749C401.875 114.749 405.081 115.442 407.638 116.829C410.238 118.172 412.166 120.209 413.423 122.939C414.68 125.626 415.2 129.027 414.983 133.144H386.448C386.665 134.964 387.25 136.611 388.203 138.084C389.2 139.514 390.543 140.641 392.233 141.464C393.923 142.244 395.895 142.634 398.148 142.634C400.661 142.634 402.763 142.136 404.453 141.139C406.186 140.142 407.313 138.821 407.833 137.174ZM397.823 120.599C394.876 120.599 392.45 121.336 390.543 122.809C388.636 124.239 387.401 126.081 386.838 128.334H407.703C407.53 125.907 406.555 124.022 404.778 122.679C403.001 121.292 400.683 120.599 397.823 120.599ZM421.418 115.464H428.633V147.834H421.418V115.464ZM440.333 121.639C437.993 121.639 435.978 122.137 434.288 123.134C432.641 124.131 431.32 125.344 430.323 126.774C429.326 128.204 428.633 129.591 428.243 130.934L428.178 127.294C428.221 126.817 428.373 126.102 428.633 125.149C428.893 124.152 429.283 123.069 429.803 121.899C430.366 120.729 431.103 119.602 432.013 118.519C432.966 117.392 434.115 116.482 435.458 115.789C436.845 115.096 438.47 114.749 440.333 114.749V121.639ZM445.793 115.464H453.008V147.834H445.793V115.464ZM466.658 114.749C468.521 114.749 470.233 115.009 471.793 115.529C473.396 116.049 474.761 116.851 475.888 117.934C477.058 118.974 477.946 120.274 478.553 121.834C479.203 123.394 479.528 125.236 479.528 127.359V147.834H472.313V128.789C472.313 126.146 471.663 124.196 470.363 122.939C469.106 121.639 467.113 120.989 464.383 120.989C462.303 120.989 460.396 121.444 458.663 122.354C456.973 123.221 455.586 124.369 454.503 125.799C453.42 127.186 452.791 128.724 452.618 130.414L452.553 126.904C452.77 125.301 453.246 123.784 453.983 122.354C454.72 120.881 455.695 119.581 456.908 118.454C458.121 117.284 459.551 116.374 461.198 115.724C462.845 115.074 464.665 114.749 466.658 114.749ZM492.463 114.749C494.37 114.749 496.103 115.009 497.663 115.529C499.223 116.049 500.566 116.851 501.693 117.934C502.863 118.974 503.773 120.274 504.423 121.834C505.073 123.394 505.398 125.236 505.398 127.359V147.834H498.118V128.789C498.118 126.146 497.468 124.196 496.168 122.939C494.911 121.639 492.918 120.989 490.188 120.989C488.108 120.989 486.201 121.444 484.468 122.354C482.778 123.221 481.391 124.369 480.308 125.799C479.268 127.186 478.661 128.724 478.488 130.414L478.358 126.774C478.575 125.214 479.073 123.719 479.853 122.289C480.633 120.816 481.63 119.516 482.843 118.389C484.056 117.262 485.465 116.374 487.068 115.724C488.715 115.074 490.513 114.749 492.463 114.749ZM511.902 137.174H518.597C518.944 138.821 519.832 140.164 521.262 141.204C522.692 142.201 524.62 142.699 527.047 142.699C528.607 142.699 529.82 142.526 530.687 142.179C531.597 141.832 532.225 141.356 532.572 140.749C532.962 140.142 533.157 139.449 533.157 138.669C533.157 137.716 532.875 136.979 532.312 136.459C531.792 135.939 531.012 135.506 529.972 135.159C528.932 134.812 527.632 134.509 526.072 134.249C524.469 133.859 522.887 133.426 521.327 132.949C519.767 132.472 518.359 131.887 517.102 131.194C515.845 130.457 514.849 129.547 514.112 128.464C513.419 127.337 513.072 125.972 513.072 124.369C513.072 122.896 513.397 121.574 514.047 120.404C514.74 119.191 515.694 118.172 516.907 117.349C518.12 116.526 519.55 115.897 521.197 115.464C522.844 114.987 524.642 114.749 526.592 114.749C529.409 114.749 531.749 115.204 533.612 116.114C535.519 117.024 536.949 118.302 537.902 119.949C538.899 121.596 539.397 123.481 539.397 125.604H533.027C532.68 123.871 532.009 122.614 531.012 121.834C530.015 121.054 528.52 120.664 526.527 120.664C524.534 120.664 523.017 121.011 521.977 121.704C520.937 122.397 520.417 123.351 520.417 124.564C520.417 125.474 520.742 126.211 521.392 126.774C522.085 127.294 523.06 127.749 524.317 128.139C525.574 128.529 527.047 128.919 528.737 129.309C530.297 129.742 531.77 130.197 533.157 130.674C534.544 131.107 535.779 131.671 536.862 132.364C537.989 133.014 538.877 133.881 539.527 134.964C540.177 136.047 540.502 137.391 540.502 138.994C540.502 140.987 539.96 142.699 538.877 144.129C537.837 145.559 536.32 146.664 534.327 147.444C532.334 148.181 529.929 148.549 527.112 148.549C524.642 148.549 522.497 148.267 520.677 147.704C518.9 147.141 517.405 146.404 516.192 145.494C515.022 144.584 514.112 143.609 513.462 142.569C512.812 141.529 512.357 140.532 512.097 139.579C511.88 138.626 511.815 137.824 511.902 137.174Z" fill="black"/>
<g filter="url(#filter0_d_4937_41035)">
<rect x="344" y="33.7383" width="92.8999" height="44.3168" rx="22.1584" fill="#F2FCF2"/>
</g>
<circle cx="368.852" cy="55.8949" r="20.0004" fill="#23A323"/>
</g>
<defs>
<filter id="filter0_d_4937_41035" x="322.738" y="20.9808" width="135.425" height="86.8413" filterUnits="userSpaceOnUse" color-interpolation-filters="sRGB">
<feFlood flood-opacity="0" result="BackgroundImageFix"/>
<feColorMatrix in="SourceAlpha" type="matrix" values="0 0 0 0 0 0 0 0 0 0 0 0 0 0 0 0 0 0 127 0" result="hardAlpha"/>
<feOffset dy="8.50498"/>
<feGaussianBlur stdDeviation="10.6312"/>
<feComposite in2="hardAlpha" operator="out"/>
<feColorMatrix type="matrix" values="0 0 0 0 0 0 0 0 0 0 0 0 0 0 0 0 0 0 0.12 0"/>
<feBlend mode="normal" in2="BackgroundImageFix" result="effect1_dropShadow_4937_41035"/>
<feBlend mode="normal" in="SourceGraphic" in2="effect1_dropShadow_4937_41035" result="shape"/>
</filter>
<clipPath id="clip0_4937_41035">
<rect width="894" height="159" fill="white"/>
</clipPath>
</defs>
</svg>
