<svg width="261" height="39" viewBox="0 0 261 39" fill="none" xmlns="http://www.w3.org/2000/svg">
<rect width="261" height="39" rx="19.5" fill="url(#paint0_linear_2271_19162)"/>
<path d="M38.604 15.712V16.744H33.6V19.168H37.692V20.176H33.6V23.5H32.448V15.712H38.604ZM43.5497 15.712V22.468H48.1337V23.5H42.3977V15.712H43.5497ZM52.435 15.712H53.587V23.5H52.435V15.712ZM61.9144 23.632C61.2984 23.632 60.7424 23.54 60.2464 23.356C59.7584 23.172 59.3384 22.908 58.9864 22.564C58.6344 22.22 58.3664 21.804 58.1824 21.316C57.9984 20.82 57.9064 20.272 57.9064 19.672C57.9064 19.056 58.0064 18.5 58.2064 18.004C58.4064 17.5 58.6904 17.068 59.0584 16.708C59.4264 16.34 59.8624 16.06 60.3664 15.868C60.8704 15.676 61.4264 15.58 62.0344 15.58C62.7144 15.58 63.3104 15.696 63.8224 15.928C64.3424 16.16 64.7584 16.488 65.0704 16.912C65.3824 17.328 65.5664 17.824 65.6224 18.4H64.5784C64.4744 18.032 64.3064 17.716 64.0744 17.452C63.8424 17.188 63.5544 16.984 63.2104 16.84C62.8664 16.696 62.4744 16.624 62.0344 16.624C61.4344 16.624 60.9144 16.756 60.4744 17.02C60.0344 17.276 59.6904 17.636 59.4424 18.1C59.1944 18.556 59.0704 19.08 59.0704 19.672C59.0704 20.256 59.1784 20.768 59.3944 21.208C59.6184 21.64 59.9424 21.98 60.3664 22.228C60.7984 22.468 61.3184 22.588 61.9264 22.588C62.3984 22.588 62.8104 22.508 63.1624 22.348C63.5224 22.18 63.8144 21.948 64.0384 21.652C64.2704 21.348 64.4304 20.984 64.5184 20.56L65.1184 20.488C64.9984 21.52 64.6544 22.304 64.0864 22.84C63.5184 23.368 62.7944 23.632 61.9144 23.632ZM64.8544 23.5C64.8544 23.244 64.8624 22.952 64.8784 22.624C64.9024 22.288 64.9264 21.952 64.9504 21.616C64.9824 21.272 65.0104 20.964 65.0344 20.692H62.1184V19.756H65.9224V23.5H64.8544ZM71.1697 19.084H76.4857V20.128H71.1697V19.084ZM76.3537 15.712H77.5177V23.5H76.3537V15.712ZM70.1257 15.712H71.2777V23.5H70.1257V15.712ZM81.1946 15.712H88.0226V16.744H81.1946V15.712ZM84.0266 16.624H85.1906V23.5H84.0266V16.624ZM91.1611 20.944H92.2651C92.2891 21.256 92.3931 21.54 92.5771 21.796C92.7691 22.044 93.0251 22.24 93.3451 22.384C93.6731 22.528 94.0531 22.6 94.4851 22.6C94.8611 22.6 95.1731 22.548 95.4211 22.444C95.6691 22.34 95.8531 22.2 95.9731 22.024C96.1011 21.84 96.1651 21.624 96.1651 21.376C96.1651 21.128 96.0971 20.932 95.9611 20.788C95.8251 20.636 95.6211 20.512 95.3491 20.416C95.0771 20.312 94.7411 20.212 94.3411 20.116C93.9891 20.028 93.6411 19.924 93.2971 19.804C92.9611 19.676 92.6491 19.52 92.3611 19.336C92.0811 19.152 91.8531 18.932 91.6771 18.676C91.5091 18.412 91.4251 18.096 91.4251 17.728C91.4251 17.336 91.5331 16.98 91.7491 16.66C91.9651 16.332 92.2811 16.072 92.6971 15.88C93.1211 15.68 93.6331 15.58 94.2331 15.58C95.1611 15.58 95.8611 15.812 96.3331 16.276C96.8131 16.74 97.0451 17.36 97.0291 18.136H95.9491C95.9251 17.592 95.7531 17.204 95.4331 16.972C95.1131 16.732 94.6971 16.612 94.1851 16.612C93.7451 16.612 93.3691 16.704 93.0571 16.888C92.7451 17.064 92.5891 17.344 92.5891 17.728C92.5891 17.896 92.6251 18.044 92.6971 18.172C92.7691 18.292 92.8891 18.404 93.0571 18.508C93.2251 18.612 93.4491 18.712 93.7291 18.808C94.0171 18.904 94.3731 19.008 94.7971 19.12C95.1171 19.192 95.4251 19.284 95.7211 19.396C96.0251 19.508 96.2971 19.648 96.5371 19.816C96.7771 19.984 96.9651 20.2 97.1011 20.464C97.2451 20.728 97.3171 21.052 97.3171 21.436C97.3171 21.844 97.2171 22.216 97.0171 22.552C96.8171 22.88 96.5051 23.144 96.0811 23.344C95.6651 23.536 95.1251 23.632 94.4611 23.632C93.9331 23.632 93.4731 23.564 93.0811 23.428C92.6971 23.292 92.3731 23.116 92.1091 22.9C91.8531 22.684 91.6491 22.452 91.4971 22.204C91.3531 21.956 91.2531 21.72 91.1971 21.496C91.1491 21.272 91.1371 21.088 91.1611 20.944ZM107.393 21.568V20.536H111.569V21.568H107.393ZM105.701 23.5L108.881 15.712H110.105L113.309 23.5H112.061L109.277 16.468H109.709L106.937 23.5H105.701ZM123.591 22.228L123.255 22.348V15.712H124.419V23.5H123.255L117.819 17.008L118.155 16.888V23.5H117.003V15.712H118.155L123.591 22.228ZM131.959 15.712C132.767 15.712 133.443 15.816 133.987 16.024C134.539 16.224 134.979 16.504 135.307 16.864C135.643 17.224 135.883 17.636 136.027 18.1C136.171 18.564 136.243 19.056 136.243 19.576C136.243 20.088 136.163 20.58 136.003 21.052C135.851 21.524 135.603 21.944 135.259 22.312C134.923 22.68 134.483 22.972 133.939 23.188C133.395 23.396 132.735 23.5 131.959 23.5H128.839V15.712H131.959ZM129.991 22.456H131.947C132.563 22.456 133.071 22.376 133.471 22.216C133.871 22.048 134.187 21.828 134.419 21.556C134.659 21.276 134.827 20.964 134.923 20.62C135.027 20.276 135.079 19.928 135.079 19.576C135.079 19.216 135.027 18.868 134.923 18.532C134.827 18.196 134.659 17.896 134.419 17.632C134.187 17.36 133.871 17.148 133.471 16.996C133.071 16.836 132.563 16.756 131.947 16.756H129.991V22.456ZM144.256 15.712H151.084V16.744H144.256V15.712ZM147.088 16.624H148.252V23.5H147.088V16.624ZM154.991 15.712H156.143V23.5H154.991V15.712ZM168.226 20.836C168.154 21.42 167.954 21.92 167.626 22.336C167.306 22.752 166.886 23.072 166.366 23.296C165.846 23.52 165.254 23.632 164.59 23.632C163.99 23.632 163.438 23.54 162.934 23.356C162.438 23.172 162.006 22.908 161.638 22.564C161.27 22.22 160.982 21.8 160.774 21.304C160.566 20.8 160.462 20.236 160.462 19.612C160.462 18.98 160.566 18.416 160.774 17.92C160.982 17.424 161.27 17.004 161.638 16.66C162.006 16.308 162.438 16.04 162.934 15.856C163.438 15.672 163.99 15.58 164.59 15.58C165.262 15.58 165.858 15.696 166.378 15.928C166.898 16.152 167.318 16.476 167.638 16.9C167.966 17.316 168.166 17.816 168.238 18.4H167.134C167.03 18.024 166.858 17.704 166.618 17.44C166.378 17.176 166.086 16.976 165.742 16.84C165.398 16.696 165.014 16.624 164.59 16.624C164.046 16.624 163.55 16.74 163.102 16.972C162.654 17.204 162.294 17.54 162.022 17.98C161.758 18.42 161.626 18.964 161.626 19.612C161.626 20.252 161.758 20.796 162.022 21.244C162.294 21.684 162.654 22.02 163.102 22.252C163.55 22.476 164.046 22.588 164.59 22.588C165.014 22.588 165.394 22.52 165.73 22.384C166.074 22.248 166.366 22.048 166.606 21.784C166.846 21.52 167.022 21.204 167.134 20.836H168.226ZM174.634 19.708L174.622 19.072L179.362 23.5H177.742L173.47 19.42L177.25 15.712H178.846L174.634 19.708ZM172.318 15.712H173.47V23.5H172.318V15.712ZM184.229 20.128V22.468H189.245V23.5H183.077V15.712H189.233V16.744H184.229V19.12H188.321V20.128H184.229ZM192.692 15.712H199.52V16.744H192.692V15.712ZM195.524 16.624H196.688V23.5H195.524V16.624ZM203.427 15.712H204.579V23.5H203.427V15.712ZM215.822 22.228L215.486 22.348V15.712H216.65V23.5H215.486L210.05 17.008L210.386 16.888V23.5H209.234V15.712H210.386L215.822 22.228ZM224.743 23.632C224.127 23.632 223.571 23.54 223.075 23.356C222.587 23.172 222.167 22.908 221.815 22.564C221.463 22.22 221.195 21.804 221.011 21.316C220.827 20.82 220.735 20.272 220.735 19.672C220.735 19.056 220.835 18.5 221.035 18.004C221.235 17.5 221.519 17.068 221.887 16.708C222.255 16.34 222.691 16.06 223.195 15.868C223.699 15.676 224.255 15.58 224.863 15.58C225.543 15.58 226.139 15.696 226.651 15.928C227.171 16.16 227.587 16.488 227.899 16.912C228.211 17.328 228.395 17.824 228.451 18.4H227.407C227.303 18.032 227.135 17.716 226.903 17.452C226.671 17.188 226.383 16.984 226.039 16.84C225.695 16.696 225.303 16.624 224.863 16.624C224.263 16.624 223.743 16.756 223.303 17.02C222.863 17.276 222.519 17.636 222.271 18.1C222.023 18.556 221.899 19.08 221.899 19.672C221.899 20.256 222.007 20.768 222.223 21.208C222.447 21.64 222.771 21.98 223.195 22.228C223.627 22.468 224.147 22.588 224.755 22.588C225.227 22.588 225.639 22.508 225.991 22.348C226.351 22.18 226.643 21.948 226.867 21.652C227.099 21.348 227.259 20.984 227.347 20.56L227.947 20.488C227.827 21.52 227.483 22.304 226.915 22.84C226.347 23.368 225.623 23.632 224.743 23.632ZM227.683 23.5C227.683 23.244 227.691 22.952 227.707 22.624C227.731 22.288 227.755 21.952 227.779 21.616C227.811 21.272 227.839 20.964 227.863 20.692H224.947V19.756H228.751V23.5H227.683Z" fill="#228B22"/>
<defs>
<linearGradient id="paint0_linear_2271_19162" x1="33.5571" y1="13.5353" x2="77.5411" y2="94.5041" gradientUnits="userSpaceOnUse">
<stop stop-color="#207D11" stop-opacity="0.1"/>
<stop offset="1" stop-color="#FFC00B" stop-opacity="0.1"/>
</linearGradient>
</defs>
</svg>
