<svg width="462" height="416" viewBox="0 0 462 416" fill="none" xmlns="http://www.w3.org/2000/svg">
<g clip-path="url(#clip0_12307_22556)">
<g filter="url(#filter0_d_12307_22556)">
<path d="M359.605 256.76C416.029 239.953 373.111 287.774 344.599 313.786C434.637 387.318 256.062 402.322 206.541 384.314C157.02 366.307 178.029 372.309 83.4891 384.314C7.85721 393.918 19.5422 328.835 31.0471 293.821C62.5604 310.328 50.4752 282.271 83.4891 256.76C116.503 231.25 124.006 280.771 163.023 282.271C202.039 283.772 218.546 232.751 241.055 256.76C263.565 280.77 289.075 277.77 359.605 256.76Z" fill="#23A323"/>
</g>
<path d="M72.5017 75.1835H86.9638C87.2494 77.6117 88.3564 79.8257 90.2847 81.8254C92.2844 83.7537 94.8911 85.2891 98.1049 86.4318C101.319 87.5031 104.925 88.0387 108.925 88.0387C112.567 88.0387 115.567 87.6459 117.923 86.8603C120.28 86.0747 122.03 84.9678 123.172 83.5394C124.315 82.111 124.887 80.397 124.887 78.3973C124.887 76.4691 124.172 75.005 122.744 74.0051C121.316 72.9339 119.066 72.0769 115.995 71.4341C112.924 70.7199 108.889 70.0058 103.89 69.2916C99.9618 68.7202 96.248 67.9346 92.7486 66.9348C89.2491 65.8635 86.1424 64.5066 83.4286 62.864C80.7861 61.2214 78.6793 59.2217 77.1081 56.8649C75.6083 54.4367 74.8585 51.58 74.8585 48.2948C74.8585 44.224 76.0011 40.6531 78.2865 37.5821C80.6433 34.5112 84.107 32.1187 88.6778 30.4047C93.2485 28.6906 98.8548 27.8336 105.497 27.8336C115.495 27.8336 123.172 29.9762 128.529 34.2612C133.957 38.4749 136.599 44.2954 136.456 51.7228H122.53C122.244 47.5092 120.459 44.4739 117.173 42.6171C113.96 40.7602 109.889 39.8318 104.961 39.8318C100.39 39.8318 96.6051 40.5103 93.6056 41.8672C90.6775 43.2241 89.2134 45.5452 89.2134 48.8304C89.2134 50.1159 89.5705 51.2586 90.2847 52.2585C90.9988 53.1869 92.2129 54.0082 93.927 54.7224C95.641 55.4366 97.9621 56.115 100.89 56.7578C103.818 57.4005 107.461 58.0433 111.817 58.6861C115.888 59.2574 119.566 60.043 122.851 61.0428C126.208 61.9713 129.064 63.2211 131.421 64.7923C133.849 66.292 135.706 68.2203 136.992 70.5771C138.277 72.9339 138.92 75.8263 138.92 79.2543C138.92 83.468 137.813 87.146 135.599 90.2884C133.457 93.3593 130.1 95.7518 125.529 97.4658C121.03 99.1799 115.174 100.037 107.961 100.037C102.818 100.037 98.2834 99.5012 94.3555 98.43C90.4275 97.2873 87.0352 95.7875 84.1785 93.9307C81.3218 92.0738 79.0007 90.0384 77.2152 87.8245C75.4298 85.6105 74.1443 83.3966 73.3587 81.1826C72.6445 78.9687 72.3588 76.969 72.5017 75.1835ZM145.919 45.2953H187.27V56.115H145.919V45.2953ZM159.631 30.7261H173.558V98.5371H159.631V30.7261ZM257.716 98.5371H243.789V45.2953H257.716V98.5371ZM244.539 72.9339L244.646 76.5762C244.504 77.576 244.146 79.0401 243.575 80.9684C243.004 82.8252 242.111 84.8249 240.897 86.9675C239.754 89.11 238.255 91.1811 236.398 93.1808C234.541 95.1091 232.255 96.716 229.542 98.0015C226.828 99.2156 223.614 99.8226 219.9 99.8226C216.972 99.8226 214.08 99.4655 211.223 98.7514C208.438 98.0372 205.902 96.8588 203.617 95.2162C201.332 93.5022 199.51 91.2168 198.153 88.3601C196.797 85.5034 196.118 81.8968 196.118 77.5403V45.2953H210.045V75.1835C210.045 78.6116 210.58 81.3255 211.651 83.3251C212.794 85.2534 214.437 86.6104 216.579 87.396C218.722 88.1816 221.257 88.5743 224.185 88.5743C228.042 88.5743 231.363 87.753 234.148 86.1104C236.933 84.3964 239.183 82.3253 240.897 79.8971C242.682 77.4689 243.897 75.1478 244.539 72.9339ZM296.32 99.7155C290.964 99.7155 286.107 98.5728 281.751 96.2875C277.466 93.9307 274.073 90.6812 271.574 86.5389C269.074 82.3253 267.824 77.4689 267.824 71.9697C267.824 66.3277 269.038 61.4356 271.467 57.2934C273.966 53.1512 277.358 49.9374 281.644 47.652C285.929 45.2953 290.821 44.1169 296.32 44.1169C301.105 44.1169 305.176 44.831 308.532 46.2594C311.889 47.6877 314.603 49.6874 316.674 52.2585C318.745 54.7581 320.245 57.6862 321.173 61.0428C322.173 64.3995 322.673 68.0418 322.673 71.9697C322.673 75.1121 322.173 78.3259 321.173 81.6111C320.173 84.8249 318.638 87.8245 316.567 90.6098C314.496 93.3236 311.782 95.5376 308.425 97.2516C305.069 98.8942 301.033 99.7155 296.32 99.7155ZM300.819 89.0029C305.033 89.0029 308.675 88.2887 311.746 86.8603C314.817 85.432 317.174 83.4323 318.816 80.8612C320.459 78.2902 321.28 75.3264 321.28 71.9697C321.28 68.3274 320.423 65.2565 318.709 62.7569C317.067 60.1858 314.71 58.2218 311.639 56.8649C308.639 55.508 305.033 54.8295 300.819 54.8295C294.891 54.8295 290.285 56.4007 287 59.5431C283.715 62.6854 282.072 66.8277 282.072 71.9697C282.072 75.3978 282.858 78.3973 284.429 80.9684C286 83.468 288.178 85.432 290.964 86.8603C293.82 88.2887 297.105 89.0029 300.819 89.0029ZM321.28 23.87H335.207V98.5371H322.244C322.03 96.8945 321.816 94.7877 321.602 92.2166C321.387 89.5742 321.28 87.1103 321.28 84.8249V23.87ZM345.396 45.2953H360.18L383.212 96.3946L371.214 98.5371L345.396 45.2953ZM410.529 45.2953L373.678 119.962H359.216L374.963 90.6098L395.639 45.2953H410.529ZM144.705 217.896L140.313 217.789L157.667 174.295H172.986L149.526 227.537H136.456L119.316 184.579H124.03L106.354 227.537H93.2842L70.4663 174.295H85.7854L102.497 217.896H98.1049L113.745 174.295H129.707L144.705 217.896ZM210.14 228.823C203.427 228.823 197.499 227.751 192.357 225.609C187.286 223.466 183.323 220.36 180.466 216.289C177.609 212.147 176.181 207.076 176.181 201.077C176.181 195.078 177.609 190.007 180.466 185.865C183.323 181.651 187.286 178.473 192.357 176.331C197.499 174.188 203.427 173.117 210.14 173.117C216.853 173.117 222.709 174.188 227.709 176.331C232.779 178.473 236.743 181.651 239.6 185.865C242.456 190.007 243.885 195.078 243.885 201.077C243.885 207.076 242.456 212.147 239.6 216.289C236.743 220.36 232.779 223.466 227.709 225.609C222.709 227.751 216.853 228.823 210.14 228.823ZM210.14 218.11C213.854 218.11 217.175 217.467 220.103 216.182C223.102 214.825 225.459 212.896 227.173 210.397C228.887 207.826 229.744 204.719 229.744 201.077C229.744 197.435 228.887 194.328 227.173 191.757C225.459 189.114 223.138 187.115 220.21 185.758C217.282 184.401 213.925 183.722 210.14 183.722C206.426 183.722 203.07 184.401 200.07 185.758C197.071 187.115 194.678 189.079 192.893 191.65C191.179 194.221 190.322 197.363 190.322 201.077C190.322 204.719 191.179 207.826 192.893 210.397C194.607 212.896 196.963 214.825 199.963 216.182C202.962 217.467 206.355 218.11 210.14 218.11ZM254.18 174.295H268.106V227.537H254.18V174.295ZM288.567 185.758C284.568 185.758 281.104 186.543 278.176 188.115C275.248 189.614 272.891 191.471 271.106 193.685C269.32 195.899 268.071 198.042 267.356 200.113L267.249 194.221C267.321 193.364 267.606 192.114 268.106 190.471C268.606 188.757 269.356 186.936 270.356 185.008C271.356 183.008 272.677 181.116 274.32 179.33C275.962 177.473 277.962 175.974 280.319 174.831C282.675 173.688 285.425 173.117 288.567 173.117V185.758ZM297.177 174.295H311.103V227.537H297.177V174.295ZM331.564 185.758C327.565 185.758 324.101 186.543 321.173 188.115C318.245 189.614 315.888 191.471 314.103 193.685C312.317 195.899 311.068 198.042 310.353 200.113L310.246 194.221C310.318 193.364 310.603 192.114 311.103 190.471C311.603 188.757 312.353 186.936 313.353 185.008C314.353 183.008 315.674 181.116 317.317 179.33C318.959 177.473 320.959 175.974 323.316 174.831C325.672 173.688 328.422 173.117 331.564 173.117V185.758ZM335.353 174.295H350.137L373.169 225.395L361.171 227.537L335.353 174.295ZM400.486 174.295L363.635 248.962H349.173L364.92 219.61L385.596 174.295H400.486ZM407.701 193.257H443.481V203.755H407.701V193.257Z" fill="black"/>
<path d="M71.5375 304.259H114.388V314.865H71.5375V304.259ZM104.104 281.87H115.138V293.118H107.425C105.354 293.047 103.568 293.261 102.069 293.761C100.569 294.261 99.4261 295.189 98.6405 296.546C97.8549 297.832 97.4621 299.689 97.4621 302.117V356.537H83.5357V300.403C83.5357 296.118 84.3213 292.618 85.8925 289.904C87.4637 287.119 89.7847 285.084 92.8557 283.798C95.9267 282.513 99.6761 281.87 104.104 281.87ZM123.096 303.295H137.023V356.537H123.096V303.295ZM157.484 314.758C153.485 314.758 150.021 315.543 147.093 317.115C144.165 318.614 141.808 320.471 140.022 322.685C138.237 324.899 136.987 327.042 136.273 329.113L136.166 323.221C136.237 322.364 136.523 321.114 137.023 319.471C137.523 317.757 138.273 315.936 139.272 314.008C140.272 312.008 141.594 310.116 143.236 308.33C144.879 306.473 146.878 304.974 149.235 303.831C151.592 302.688 154.342 302.117 157.484 302.117V314.758ZM214.622 338.861H228.12C227.548 342.504 226.013 345.753 223.513 348.61C221.085 351.466 217.764 353.716 213.55 355.359C209.337 357.001 204.195 357.823 198.124 357.823C191.34 357.823 185.34 356.751 180.127 354.609C174.913 352.395 170.843 349.217 167.915 345.075C164.986 340.932 163.522 335.933 163.522 330.077C163.522 324.221 164.951 319.221 167.807 315.079C170.664 310.866 174.628 307.652 179.698 305.438C184.841 303.224 190.84 302.117 197.696 302.117C204.695 302.117 210.515 303.224 215.157 305.438C219.799 307.652 223.228 311.008 225.441 315.508C227.727 319.936 228.691 325.613 228.334 332.541H177.556C177.913 335.255 178.913 337.719 180.555 339.933C182.269 342.146 184.555 343.896 187.412 345.182C190.34 346.467 193.803 347.11 197.803 347.11C202.231 347.11 205.909 346.36 208.837 344.86C211.836 343.289 213.765 341.289 214.622 338.861ZM197.053 312.722C191.911 312.722 187.733 313.865 184.519 316.15C181.305 318.364 179.234 321.114 178.306 324.399H214.515C214.157 320.828 212.443 318.007 209.372 315.936C206.373 313.794 202.266 312.722 197.053 312.722ZM287.225 338.861H300.723C300.152 342.504 298.616 345.753 296.116 348.61C293.688 351.466 290.367 353.716 286.154 355.359C281.94 357.001 276.798 357.823 270.727 357.823C263.943 357.823 257.944 356.751 252.73 354.609C247.517 352.395 243.446 349.217 240.518 345.075C237.59 340.932 236.126 335.933 236.126 330.077C236.126 324.221 237.554 319.221 240.411 315.079C243.267 310.866 247.231 307.652 252.302 305.438C257.444 303.224 263.443 302.117 270.299 302.117C277.298 302.117 283.118 303.224 287.761 305.438C292.403 307.652 295.831 311.008 298.045 315.508C300.33 319.936 301.294 325.613 300.937 332.541H250.159C250.516 335.255 251.516 337.719 253.159 339.933C254.873 342.146 257.158 343.896 260.015 345.182C262.943 346.467 266.407 347.11 270.406 347.11C274.834 347.11 278.512 346.36 281.44 344.86C284.44 343.289 286.368 341.289 287.225 338.861ZM269.656 312.722C264.514 312.722 260.336 313.865 257.122 316.15C253.909 318.364 251.838 321.114 250.909 324.399H287.118C286.761 320.828 285.047 318.007 281.976 315.936C278.976 313.794 274.87 312.722 269.656 312.722ZM314.085 285.512H328.226V334.898H314.085V285.512ZM329.297 344.325V356.537H313.121V344.325H329.297Z" fill="white"/>
</g>
<defs>
<filter id="filter0_d_12307_22556" x="2.63184" y="237.471" width="404.596" height="181.762" filterUnits="userSpaceOnUse" color-interpolation-filters="sRGB">
<feFlood flood-opacity="0" result="BackgroundImageFix"/>
<feColorMatrix in="SourceAlpha" type="matrix" values="0 0 0 0 0 0 0 0 0 0 0 0 0 0 0 0 0 0 127 0" result="hardAlpha"/>
<feOffset dy="8"/>
<feGaussianBlur stdDeviation="10"/>
<feComposite in2="hardAlpha" operator="out"/>
<feColorMatrix type="matrix" values="0 0 0 0 0 0 0 0 0 0 0 0 0 0 0 0 0 0 0.12 0"/>
<feBlend mode="normal" in2="BackgroundImageFix" result="effect1_dropShadow_12307_22556"/>
<feBlend mode="normal" in="SourceGraphic" in2="effect1_dropShadow_12307_22556" result="shape"/>
</filter>
<clipPath id="clip0_12307_22556">
<rect width="462" height="416" fill="white"/>
</clipPath>
</defs>
</svg>
