<svg width="73" height="74" viewBox="0 0 73 74" fill="none" xmlns="http://www.w3.org/2000/svg">
<circle cx="36.5663" cy="36.8456" r="36.369" fill="#F0F5FF"/>
<path d="M24.9427 32.6941C24.9427 32.6941 20.6727 34.3546 19.9612 40.1664M48.1897 32.6941C48.1897 32.6941 52.4597 34.3546 53.1712 40.1664M31.5847 32.6941C31.5847 32.6941 35.5699 33.663 36.5662 38.5058C37.5625 33.663 41.5477 32.6941 41.5477 32.6941M33.2452 45.1479C33.2452 45.1479 29.7581 45.7705 28.2637 50.1294M39.8872 45.1479C39.8872 45.1479 43.3743 45.7705 44.8687 50.1294" stroke="#2D79FD" stroke-width="3.321" stroke-linecap="round"/>
<path d="M36.5661 46.8084C38.8587 46.8084 40.7173 44.9498 40.7173 42.6571C40.7173 40.3644 38.8587 38.5059 36.5661 38.5059C34.2734 38.5059 32.4148 40.3644 32.4148 42.6571C32.4148 44.9498 34.2734 46.8084 36.5661 46.8084Z" stroke="#2D79FD" stroke-width="3.321" stroke-linecap="round" stroke-linejoin="round"/>
<path d="M44.8687 33.5245C47.6199 33.5245 49.8502 31.2942 49.8502 28.543C49.8502 25.7918 47.6199 23.5615 44.8687 23.5615C42.1175 23.5615 39.8872 25.7918 39.8872 28.543C39.8872 31.2942 42.1175 33.5245 44.8687 33.5245Z" stroke="#2D79FD" stroke-width="3.321" stroke-linecap="round" stroke-linejoin="round"/>
<path d="M28.2637 33.5245C31.0149 33.5245 33.2452 31.2942 33.2452 28.543C33.2452 25.7918 31.0149 23.5615 28.2637 23.5615C25.5125 23.5615 23.2822 25.7918 23.2822 28.543C23.2822 31.2942 25.5125 33.5245 28.2637 33.5245Z" stroke="#2D79FD" stroke-width="3.321" stroke-linecap="round" stroke-linejoin="round"/>
</svg>
