<svg width="525" height="210" viewBox="0 0 525 210" fill="none" xmlns="http://www.w3.org/2000/svg">
<g clip-path="url(#clip0_3203_31163)">
<path d="M32.56 27.305V32.035H9.625V43.145H28.38V47.765H9.625V63H4.345V27.305H32.56ZM61.2206 63H55.9956V35.555H61.2206V63ZM56.2706 50.075L56.3256 51.725C56.2889 52.2017 56.1606 52.9167 55.9406 53.87C55.7573 54.7867 55.4273 55.795 54.9506 56.895C54.5106 57.995 53.8873 59.0583 53.0806 60.085C52.3106 61.1117 51.3206 61.955 50.1106 62.615C48.9006 63.275 47.4339 63.605 45.7106 63.605C44.5373 63.605 43.3273 63.44 42.0806 63.11C40.8706 62.78 39.7523 62.23 38.7256 61.46C37.6989 60.69 36.8739 59.645 36.2506 58.325C35.6273 56.9683 35.3156 55.2817 35.3156 53.265V35.555H40.5956V52.165C40.5956 53.8517 40.8523 55.1717 41.3656 56.125C41.9156 57.0783 42.6856 57.7567 43.6756 58.16C44.6656 58.5633 45.7839 58.765 47.0306 58.765C48.9373 58.765 50.5323 58.3067 51.8156 57.39C53.1356 56.4367 54.1623 55.3 54.8956 53.98C55.6289 52.6233 56.0873 51.3217 56.2706 50.075ZM89.308 54.09H94.313C94.0196 55.8867 93.323 57.5 92.223 58.93C91.123 60.36 89.6746 61.4967 87.878 62.34C86.0813 63.1833 83.973 63.605 81.553 63.605C78.693 63.605 76.1446 63 73.908 61.79C71.6713 60.58 69.9113 58.9117 68.628 56.785C67.3446 54.6583 66.703 52.1833 66.703 49.36C66.703 46.5 67.3263 44.0067 68.573 41.88C69.8196 39.7167 71.543 38.03 73.743 36.82C75.943 35.61 78.4546 35.005 81.278 35.005C84.248 35.005 86.7413 35.5917 88.758 36.765C90.7746 37.9383 92.2596 39.68 93.213 41.99C94.203 44.2633 94.6063 47.105 94.423 50.515H71.928C72.1113 52.165 72.6063 53.6317 73.413 54.915C74.2563 56.1983 75.3563 57.2067 76.713 57.94C78.1063 58.6733 79.7013 59.04 81.498 59.04C83.5146 59.04 85.2013 58.5817 86.558 57.665C87.9146 56.7483 88.8313 55.5567 89.308 54.09ZM81.333 39.515C78.9496 39.515 76.9696 40.1567 75.393 41.44C73.8163 42.6867 72.7713 44.355 72.258 46.445H89.143C88.9963 44.2083 88.1896 42.5033 86.723 41.33C85.2563 40.12 83.4596 39.515 81.333 39.515ZM100.534 24.555H105.814V63H100.534V24.555ZM119.683 24.225V29.89H113.138V24.225H119.683ZM113.798 35.555H119.023V63H113.798V35.555ZM126.463 35.555H131.743V63H126.463V35.555ZM142.193 35.005C143.733 35.005 145.126 35.225 146.373 35.665C147.62 36.105 148.683 36.765 149.563 37.645C150.443 38.4883 151.121 39.5517 151.598 40.835C152.111 42.0817 152.368 43.5117 152.368 45.125V63H147.143V46.28C147.143 44.1167 146.611 42.5033 145.548 41.44C144.521 40.34 142.945 39.79 140.818 39.79C139.168 39.79 137.665 40.175 136.308 40.945C134.951 41.715 133.833 42.7417 132.953 44.025C132.11 45.2717 131.596 46.6833 131.413 48.26L131.358 45.235C131.541 43.7683 131.926 42.4117 132.513 41.165C133.136 39.9183 133.906 38.8367 134.823 37.92C135.776 36.9667 136.876 36.2517 138.123 35.775C139.37 35.2617 140.726 35.005 142.193 35.005ZM170.335 58.71C168.062 58.71 165.972 58.2517 164.065 57.335C162.159 56.4183 160.637 55.08 159.5 53.32C158.4 51.56 157.85 49.4333 157.85 46.94C157.85 44.4833 158.4 42.375 159.5 40.615C160.6 38.8183 162.085 37.4433 163.955 36.49C165.862 35.5 167.989 35.005 170.335 35.005C171.032 35.005 171.692 35.06 172.315 35.17C172.939 35.2433 173.544 35.3717 174.13 35.555H186.12V40.505C184.47 40.505 182.802 40.23 181.115 39.68C179.465 39.13 178.017 38.5433 176.77 37.92L176.605 37.645C177.852 38.305 178.934 39.1117 179.85 40.065C180.767 40.9817 181.464 42.0267 181.94 43.2C182.454 44.3367 182.71 45.62 182.71 47.05C182.71 49.47 182.16 51.56 181.06 53.32C179.997 55.08 178.512 56.4183 176.605 57.335C174.735 58.2517 172.645 58.71 170.335 58.71ZM178.75 74.11V72.845C178.75 70.975 178.237 69.6367 177.21 68.83C176.184 68.0233 174.68 67.62 172.7 67.62H166.265C164.909 67.62 163.754 67.51 162.8 67.29C161.847 67.07 161.059 66.74 160.435 66.3C159.812 65.8967 159.354 65.3833 159.06 64.76C158.767 64.1733 158.62 63.5133 158.62 62.78C158.62 61.35 159.06 60.2683 159.94 59.535C160.82 58.8017 161.939 58.3433 163.295 58.16C164.652 57.94 166.027 57.9217 167.42 58.105L170.335 58.71C168.245 58.82 166.65 59.0217 165.55 59.315C164.45 59.6083 163.9 60.2317 163.9 61.185C163.9 61.735 164.12 62.175 164.56 62.505C165 62.835 165.624 63 166.43 63H173.14C175.23 63 177.082 63.2567 178.695 63.77C180.345 64.32 181.629 65.2183 182.545 66.465C183.499 67.7483 183.975 69.49 183.975 71.69V74.11H178.75ZM170.335 54.255C171.655 54.255 172.847 53.98 173.91 53.43C175.01 52.8433 175.89 52.0183 176.55 50.955C177.21 49.855 177.54 48.535 177.54 46.995C177.54 45.4183 177.21 44.08 176.55 42.98C175.927 41.8433 175.065 41 173.965 40.45C172.865 39.8633 171.655 39.57 170.335 39.57C169.015 39.57 167.787 39.8633 166.65 40.45C165.55 41 164.67 41.825 164.01 42.925C163.35 44.025 163.02 45.3817 163.02 46.995C163.02 48.535 163.35 49.855 164.01 50.955C164.67 52.0183 165.55 52.8433 166.65 53.43C167.75 53.98 168.979 54.255 170.335 54.255ZM200.741 35.555H206.351L216.856 61.9L212.291 63L200.741 35.555ZM228.736 35.555L212.291 74H206.736L213.831 59.095L223.181 35.555H228.736ZM245.529 63.605C242.852 63.605 240.395 63.0367 238.159 61.9C235.922 60.7633 234.144 59.1317 232.824 57.005C231.504 54.8783 230.844 52.33 230.844 49.36C230.844 46.3533 231.504 43.7867 232.824 41.66C234.144 39.4967 235.922 37.8467 238.159 36.71C240.395 35.5733 242.852 35.005 245.529 35.005C248.205 35.005 250.644 35.5733 252.844 36.71C255.044 37.8467 256.804 39.4967 258.124 41.66C259.444 43.7867 260.104 46.3533 260.104 49.36C260.104 52.33 259.444 54.8783 258.124 57.005C256.804 59.1317 255.044 60.7633 252.844 61.9C250.644 63.0367 248.205 63.605 245.529 63.605ZM245.529 59.04C247.179 59.04 248.7 58.6733 250.094 57.94C251.524 57.17 252.66 56.07 253.504 54.64C254.384 53.1733 254.824 51.4133 254.824 49.36C254.824 47.27 254.384 45.4917 253.504 44.025C252.66 42.5583 251.524 41.44 250.094 40.67C248.7 39.9 247.179 39.515 245.529 39.515C243.879 39.515 242.339 39.9 240.909 40.67C239.479 41.4033 238.324 42.5033 237.444 43.97C236.564 45.4367 236.124 47.2333 236.124 49.36C236.124 51.4133 236.545 53.1733 237.389 54.64C238.269 56.07 239.424 57.17 240.854 57.94C242.284 58.6733 243.842 59.04 245.529 59.04ZM291.533 63H286.308V35.555H291.533V63ZM286.583 50.075L286.638 51.725C286.601 52.2017 286.473 52.9167 286.253 53.87C286.07 54.7867 285.74 55.795 285.263 56.895C284.823 57.995 284.2 59.0583 283.393 60.085C282.623 61.1117 281.633 61.955 280.423 62.615C279.213 63.275 277.746 63.605 276.023 63.605C274.85 63.605 273.64 63.44 272.393 63.11C271.183 62.78 270.065 62.23 269.038 61.46C268.011 60.69 267.186 59.645 266.563 58.325C265.94 56.9683 265.628 55.2817 265.628 53.265V35.555H270.908V52.165C270.908 53.8517 271.165 55.1717 271.678 56.125C272.228 57.0783 272.998 57.7567 273.988 58.16C274.978 58.5633 276.096 58.765 277.343 58.765C279.25 58.765 280.845 58.3067 282.128 57.39C283.448 56.4367 284.475 55.3 285.208 53.98C285.941 52.6233 286.4 51.3217 286.583 50.075ZM298.445 35.555H303.725V63H298.445V35.555ZM313.02 40.23C311.114 40.23 309.482 40.67 308.125 41.55C306.805 42.43 305.742 43.5117 304.935 44.795C304.165 46.0783 303.652 47.3067 303.395 48.48L303.34 45.345C303.377 44.9783 303.469 44.41 303.615 43.64C303.799 42.8333 304.11 41.935 304.55 40.945C304.99 39.955 305.577 39.02 306.31 38.14C307.044 37.2233 307.96 36.4717 309.06 35.885C310.16 35.2983 311.48 35.005 313.02 35.005V40.23ZM1.54 167.555H19.305V172.12H1.54V167.555ZM7.81 160.295H13.035V195H7.81V160.295ZM45.5898 195V178.445C45.5898 176.978 45.3515 175.768 44.8748 174.815C44.3982 173.862 43.6832 173.147 42.7298 172.67C41.7765 172.157 40.5665 171.9 39.0998 171.9C37.4865 171.9 36.0015 172.285 34.6448 173.055C33.3248 173.788 32.2432 174.797 31.3998 176.08C30.5565 177.327 30.0432 178.738 29.8598 180.315L29.8048 177.18C29.9882 175.75 30.3732 174.412 30.9598 173.165C31.5832 171.918 32.3532 170.837 33.2698 169.92C34.2232 169.003 35.3232 168.288 36.5698 167.775C37.8165 167.262 39.1732 167.005 40.6398 167.005C42.1798 167.005 43.5732 167.225 44.8198 167.665C46.0665 168.068 47.1298 168.71 48.0098 169.59C48.9265 170.433 49.6232 171.478 50.0998 172.725C50.5765 173.935 50.8148 175.328 50.8148 176.905V195H45.5898ZM24.9648 195V156.555H30.1898V195H24.9648ZM57.7668 167.555H63.0468V195H57.7668V167.555ZM72.3418 172.23C70.4351 172.23 68.8034 172.67 67.4468 173.55C66.1268 174.43 65.0634 175.512 64.2568 176.795C63.4868 178.078 62.9734 179.307 62.7168 180.48L62.6618 177.345C62.6984 176.978 62.7901 176.41 62.9368 175.64C63.1201 174.833 63.4318 173.935 63.8718 172.945C64.3118 171.955 64.8984 171.02 65.6318 170.14C66.3651 169.223 67.2818 168.472 68.3818 167.885C69.4818 167.298 70.8018 167.005 72.3418 167.005V172.23ZM90.3577 195.605C87.681 195.605 85.2244 195.037 82.9877 193.9C80.751 192.763 78.9727 191.132 77.6527 189.005C76.3327 186.878 75.6727 184.33 75.6727 181.36C75.6727 178.353 76.3327 175.787 77.6527 173.66C78.9727 171.497 80.751 169.847 82.9877 168.71C85.2244 167.573 87.681 167.005 90.3577 167.005C93.0344 167.005 95.4727 167.573 97.6727 168.71C99.8727 169.847 101.633 171.497 102.953 173.66C104.273 175.787 104.933 178.353 104.933 181.36C104.933 184.33 104.273 186.878 102.953 189.005C101.633 191.132 99.8727 192.763 97.6727 193.9C95.4727 195.037 93.0344 195.605 90.3577 195.605ZM90.3577 191.04C92.0077 191.04 93.5294 190.673 94.9227 189.94C96.3527 189.17 97.4894 188.07 98.3327 186.64C99.2127 185.173 99.6527 183.413 99.6527 181.36C99.6527 179.27 99.2127 177.492 98.3327 176.025C97.4894 174.558 96.3527 173.44 94.9227 172.67C93.5294 171.9 92.0077 171.515 90.3577 171.515C88.7077 171.515 87.1677 171.9 85.7377 172.67C84.3077 173.403 83.1527 174.503 82.2727 175.97C81.3927 177.437 80.9527 179.233 80.9527 181.36C80.9527 183.413 81.3744 185.173 82.2177 186.64C83.0977 188.07 84.2527 189.17 85.6827 189.94C87.1127 190.673 88.671 191.04 90.3577 191.04ZM136.362 195H131.137V167.555H136.362V195ZM131.412 182.075L131.467 183.725C131.431 184.202 131.302 184.917 131.082 185.87C130.899 186.787 130.569 187.795 130.092 188.895C129.652 189.995 129.029 191.058 128.222 192.085C127.452 193.112 126.462 193.955 125.252 194.615C124.042 195.275 122.576 195.605 120.852 195.605C119.679 195.605 118.469 195.44 117.222 195.11C116.012 194.78 114.894 194.23 113.867 193.46C112.841 192.69 112.016 191.645 111.392 190.325C110.769 188.968 110.457 187.282 110.457 185.265V167.555H115.737V184.165C115.737 185.852 115.994 187.172 116.507 188.125C117.057 189.078 117.827 189.757 118.817 190.16C119.807 190.563 120.926 190.765 122.172 190.765C124.079 190.765 125.674 190.307 126.957 189.39C128.277 188.437 129.304 187.3 130.037 185.98C130.771 184.623 131.229 183.322 131.412 182.075ZM154.33 190.71C152.056 190.71 149.966 190.252 148.06 189.335C146.153 188.418 144.631 187.08 143.495 185.32C142.395 183.56 141.845 181.433 141.845 178.94C141.845 176.483 142.395 174.375 143.495 172.615C144.595 170.818 146.08 169.443 147.95 168.49C149.856 167.5 151.983 167.005 154.33 167.005C155.026 167.005 155.686 167.06 156.31 167.17C156.933 167.243 157.538 167.372 158.125 167.555H170.115V172.505C168.465 172.505 166.796 172.23 165.11 171.68C163.46 171.13 162.011 170.543 160.765 169.92L160.6 169.645C161.846 170.305 162.928 171.112 163.845 172.065C164.761 172.982 165.458 174.027 165.935 175.2C166.448 176.337 166.705 177.62 166.705 179.05C166.705 181.47 166.155 183.56 165.055 185.32C163.991 187.08 162.506 188.418 160.6 189.335C158.73 190.252 156.64 190.71 154.33 190.71ZM162.745 206.11V204.845C162.745 202.975 162.231 201.637 161.205 200.83C160.178 200.023 158.675 199.62 156.695 199.62H150.26C148.903 199.62 147.748 199.51 146.795 199.29C145.841 199.07 145.053 198.74 144.43 198.3C143.806 197.897 143.348 197.383 143.055 196.76C142.761 196.173 142.615 195.513 142.615 194.78C142.615 193.35 143.055 192.268 143.935 191.535C144.815 190.802 145.933 190.343 147.29 190.16C148.646 189.94 150.021 189.922 151.415 190.105L154.33 190.71C152.24 190.82 150.645 191.022 149.545 191.315C148.445 191.608 147.895 192.232 147.895 193.185C147.895 193.735 148.115 194.175 148.555 194.505C148.995 194.835 149.618 195 150.425 195H157.135C159.225 195 161.076 195.257 162.69 195.77C164.34 196.32 165.623 197.218 166.54 198.465C167.493 199.748 167.97 201.49 167.97 203.69V206.11H162.745ZM154.33 186.255C155.65 186.255 156.841 185.98 157.905 185.43C159.005 184.843 159.885 184.018 160.545 182.955C161.205 181.855 161.535 180.535 161.535 178.995C161.535 177.418 161.205 176.08 160.545 174.98C159.921 173.843 159.06 173 157.96 172.45C156.86 171.863 155.65 171.57 154.33 171.57C153.01 171.57 151.781 171.863 150.645 172.45C149.545 173 148.665 173.825 148.005 174.925C147.345 176.025 147.015 177.382 147.015 178.995C147.015 180.535 147.345 181.855 148.005 182.955C148.665 184.018 149.545 184.843 150.645 185.43C151.745 185.98 152.973 186.255 154.33 186.255ZM196.41 195V178.445C196.41 176.978 196.172 175.768 195.695 174.815C195.218 173.862 194.503 173.147 193.55 172.67C192.597 172.157 191.387 171.9 189.92 171.9C188.307 171.9 186.822 172.285 185.465 173.055C184.145 173.788 183.063 174.797 182.22 176.08C181.377 177.327 180.863 178.738 180.68 180.315L180.625 177.18C180.808 175.75 181.193 174.412 181.78 173.165C182.403 171.918 183.173 170.837 184.09 169.92C185.043 169.003 186.143 168.288 187.39 167.775C188.637 167.262 189.993 167.005 191.46 167.005C193 167.005 194.393 167.225 195.64 167.665C196.887 168.068 197.95 168.71 198.83 169.59C199.747 170.433 200.443 171.478 200.92 172.725C201.397 173.935 201.635 175.328 201.635 176.905V195H196.41ZM175.785 195V156.555H181.01V195H175.785ZM247.567 184.55C247.347 186.823 246.614 188.803 245.367 190.49C244.157 192.14 242.562 193.405 240.582 194.285C238.602 195.165 236.402 195.605 233.982 195.605C231.305 195.605 228.849 195.055 226.612 193.955C224.375 192.818 222.579 191.187 221.222 189.06C219.902 186.897 219.242 184.33 219.242 181.36C219.242 178.353 219.902 175.787 221.222 173.66C222.579 171.497 224.375 169.847 226.612 168.71C228.849 167.573 231.305 167.005 233.982 167.005C236.402 167.005 238.584 167.445 240.527 168.325C242.47 169.205 244.065 170.47 245.312 172.12C246.559 173.733 247.31 175.677 247.567 177.95H242.782C242.159 175.97 241.04 174.412 239.427 173.275C237.85 172.102 236.035 171.515 233.982 171.515C232.295 171.515 230.719 171.9 229.252 172.67C227.822 173.44 226.667 174.558 225.787 176.025C224.944 177.455 224.522 179.233 224.522 181.36C224.522 183.413 224.944 185.173 225.787 186.64C226.667 188.07 227.822 189.17 229.252 189.94C230.682 190.673 232.259 191.04 233.982 191.04C236.329 191.04 238.235 190.472 239.702 189.335C241.169 188.198 242.214 186.603 242.837 184.55H247.567ZM253.06 167.555H258.34V195H253.06V167.555ZM267.635 172.23C265.728 172.23 264.096 172.67 262.74 173.55C261.42 174.43 260.356 175.512 259.55 176.795C258.78 178.078 258.266 179.307 258.01 180.48L257.955 177.345C257.991 176.978 258.083 176.41 258.23 175.64C258.413 174.833 258.725 173.935 259.165 172.945C259.605 171.955 260.191 171.02 260.925 170.14C261.658 169.223 262.575 168.472 263.675 167.885C264.775 167.298 266.095 167.005 267.635 167.005V172.23ZM293.571 186.09H298.576C298.282 187.887 297.586 189.5 296.486 190.93C295.386 192.36 293.937 193.497 292.141 194.34C290.344 195.183 288.236 195.605 285.816 195.605C282.956 195.605 280.407 195 278.171 193.79C275.934 192.58 274.174 190.912 272.891 188.785C271.607 186.658 270.966 184.183 270.966 181.36C270.966 178.5 271.589 176.007 272.836 173.88C274.082 171.717 275.806 170.03 278.006 168.82C280.206 167.61 282.717 167.005 285.541 167.005C288.511 167.005 291.004 167.592 293.021 168.765C295.037 169.938 296.522 171.68 297.476 173.99C298.466 176.263 298.869 179.105 298.686 182.515H276.191C276.374 184.165 276.869 185.632 277.676 186.915C278.519 188.198 279.619 189.207 280.976 189.94C282.369 190.673 283.964 191.04 285.761 191.04C287.777 191.04 289.464 190.582 290.821 189.665C292.177 188.748 293.094 187.557 293.571 186.09ZM285.596 171.515C283.212 171.515 281.232 172.157 279.656 173.44C278.079 174.687 277.034 176.355 276.521 178.445H293.406C293.259 176.208 292.452 174.503 290.986 173.33C289.519 172.12 287.722 171.515 285.596 171.515ZM315.576 195.55C313.193 195.55 311.03 194.945 309.086 193.735C307.143 192.525 305.603 190.857 304.466 188.73C303.366 186.567 302.816 184.092 302.816 181.305C302.816 178.518 303.366 176.062 304.466 173.935C305.566 171.772 307.07 170.085 308.976 168.875C310.883 167.628 313.083 167.005 315.576 167.005C317.74 167.005 319.536 167.372 320.966 168.105C322.396 168.838 323.515 169.865 324.321 171.185C325.128 172.505 325.696 174.027 326.026 175.75C326.393 177.473 326.576 179.325 326.576 181.305C326.576 182.772 326.393 184.33 326.026 185.98C325.66 187.63 325.073 189.188 324.266 190.655C323.46 192.122 322.341 193.313 320.911 194.23C319.481 195.11 317.703 195.55 315.576 195.55ZM317.061 190.985C319.005 190.985 320.636 190.563 321.956 189.72C323.313 188.84 324.321 187.667 324.981 186.2C325.641 184.733 325.971 183.102 325.971 181.305C325.971 179.362 325.623 177.657 324.926 176.19C324.266 174.723 323.258 173.587 321.901 172.78C320.581 171.973 318.968 171.57 317.061 171.57C314.201 171.57 311.983 172.487 310.406 174.32C308.866 176.153 308.096 178.482 308.096 181.305C308.096 183.212 308.481 184.898 309.251 186.365C310.021 187.795 311.066 188.932 312.386 189.775C313.743 190.582 315.301 190.985 317.061 190.985ZM325.971 156.555H331.251V195H326.411C326.301 194.193 326.191 193.203 326.081 192.03C326.008 190.857 325.971 189.848 325.971 189.005V156.555ZM345.43 156.225V161.89H338.885V156.225H345.43ZM339.545 167.555H344.77V195H339.545V167.555ZM350.285 167.555H368.05V172.12H350.285V167.555ZM356.555 160.295H361.78V195H356.555V160.295Z" fill="#0E390E"/>
<path d="M24.365 129.605C21.945 129.605 19.8733 129.183 18.15 128.34C16.4267 127.46 15.0333 126.323 13.97 124.93C12.9067 123.5 12.1183 121.96 11.605 120.31C11.0917 118.623 10.835 116.973 10.835 115.36C10.835 113.343 11.0733 111.473 11.55 109.75C12.0633 108.027 12.8517 106.523 13.915 105.24C14.9783 103.92 16.3717 102.893 18.095 102.16C19.8183 101.427 21.9083 101.06 24.365 101.06C27.1883 101.06 29.6817 101.665 31.845 102.875C34.045 104.048 35.7683 105.698 37.015 107.825C38.2983 109.952 38.94 112.463 38.94 115.36C38.94 118.183 38.2983 120.677 37.015 122.84C35.7317 124.967 33.99 126.635 31.79 127.845C29.59 129.018 27.115 129.605 24.365 129.605ZM22.055 124.105C23.9983 124.105 25.685 123.738 27.115 123.005C28.545 122.272 29.645 121.263 30.415 119.98C31.2217 118.66 31.625 117.12 31.625 115.36C31.625 112.72 30.7817 110.593 29.095 108.98C27.445 107.367 25.0983 106.56 22.055 106.56C19.9283 106.56 18.0767 106.908 16.5 107.605C14.9233 108.302 13.695 109.31 12.815 110.63C11.9717 111.913 11.55 113.49 11.55 115.36C11.55 117.083 11.9717 118.605 12.815 119.925C13.6583 121.245 14.8683 122.272 16.445 123.005C18.0217 123.738 19.8917 124.105 22.055 124.105ZM11.55 90.665V121.96C11.55 123.133 11.495 124.398 11.385 125.755C11.275 127.075 11.165 128.157 11.055 129H4.4V90.665H11.55ZM75.8527 129H68.7027V101.665H75.8527V129ZM69.0877 115.855L69.1427 117.725C69.0694 118.238 68.8861 118.99 68.5927 119.98C68.2994 120.933 67.8411 121.96 67.2177 123.06C66.6311 124.16 65.8611 125.223 64.9077 126.25C63.9544 127.24 62.7811 128.065 61.3877 128.725C59.9944 129.348 58.3444 129.66 56.4377 129.66C54.9344 129.66 53.4494 129.477 51.9827 129.11C50.5527 128.743 49.2511 128.138 48.0777 127.295C46.9044 126.415 45.9694 125.242 45.2727 123.775C44.5761 122.308 44.2277 120.457 44.2277 118.22V101.665H51.3777V117.01C51.3777 118.77 51.6527 120.163 52.2027 121.19C52.7894 122.18 53.6327 122.877 54.7327 123.28C55.8327 123.683 57.1344 123.885 58.6377 123.885C60.6177 123.885 62.3227 123.463 63.7527 122.62C65.1827 121.74 66.3377 120.677 67.2177 119.43C68.1344 118.183 68.7577 116.992 69.0877 115.855ZM81.2625 119.925H87.8625C88.2658 121.172 89.0908 122.198 90.3375 123.005C91.6208 123.775 93.2892 124.16 95.3425 124.16C96.7358 124.16 97.8175 124.032 98.5875 123.775C99.3575 123.518 99.8892 123.152 100.183 122.675C100.476 122.162 100.623 121.593 100.623 120.97C100.623 120.2 100.384 119.613 99.9075 119.21C99.4308 118.77 98.6975 118.422 97.7075 118.165C96.7175 117.908 95.4525 117.67 93.9125 117.45C92.3725 117.193 90.8875 116.882 89.4575 116.515C88.0275 116.148 86.7625 115.672 85.6625 115.085C84.5625 114.462 83.6825 113.692 83.0225 112.775C82.3992 111.822 82.0875 110.667 82.0875 109.31C82.0875 107.99 82.3992 106.817 83.0225 105.79C83.6825 104.763 84.5808 103.902 85.7175 103.205C86.8908 102.508 88.2475 101.977 89.7875 101.61C91.3642 101.243 93.0508 101.06 94.8475 101.06C97.5608 101.06 99.8158 101.463 101.613 102.27C103.409 103.04 104.748 104.14 105.628 105.57C106.544 106.963 107.003 108.577 107.003 110.41H100.678C100.384 109.053 99.7975 108.082 98.9175 107.495C98.0375 106.872 96.6808 106.56 94.8475 106.56C93.0508 106.56 91.6942 106.835 90.7775 107.385C89.8608 107.935 89.4025 108.687 89.4025 109.64C89.4025 110.41 89.6775 111.015 90.2275 111.455C90.8142 111.858 91.6575 112.188 92.7575 112.445C93.8942 112.702 95.3058 112.977 96.9925 113.27C98.4225 113.563 99.7792 113.893 101.063 114.26C102.383 114.627 103.556 115.103 104.583 115.69C105.609 116.24 106.416 116.992 107.003 117.945C107.626 118.862 107.938 120.035 107.938 121.465C107.938 123.225 107.424 124.71 106.398 125.92C105.408 127.13 103.978 128.065 102.108 128.725C100.238 129.348 98.0008 129.66 95.3975 129.66C93.0875 129.66 91.0892 129.422 89.4025 128.945C87.7525 128.432 86.3775 127.79 85.2775 127.02C84.1775 126.213 83.3158 125.37 82.6925 124.49C82.1058 123.573 81.7025 122.712 81.4825 121.905C81.2625 121.098 81.1892 120.438 81.2625 119.925ZM121.602 89.675V95.945H113.297V89.675H121.602ZM113.847 101.665H120.997V129H113.847V101.665ZM128.124 101.665H135.274V129H128.124V101.665ZM147.979 101.06C149.666 101.06 151.224 101.28 152.654 101.72C154.084 102.16 155.331 102.838 156.394 103.755C157.458 104.672 158.283 105.845 158.869 107.275C159.456 108.668 159.749 110.337 159.749 112.28V129H152.599V113.545C152.599 111.235 152.031 109.548 150.894 108.485C149.794 107.385 147.979 106.835 145.449 106.835C143.543 106.835 141.819 107.202 140.279 107.935C138.739 108.668 137.493 109.603 136.539 110.74C135.586 111.84 135.036 112.995 134.889 114.205L134.834 111.4C135.018 110.117 135.439 108.87 136.099 107.66C136.759 106.45 137.639 105.35 138.739 104.36C139.876 103.333 141.214 102.527 142.754 101.94C144.294 101.353 146.036 101.06 147.979 101.06ZM191.174 119.925H198.104C197.811 121.795 197.022 123.463 195.739 124.93C194.492 126.397 192.787 127.552 190.624 128.395C188.461 129.238 185.821 129.66 182.704 129.66C179.221 129.66 176.141 129.11 173.464 128.01C170.787 126.873 168.697 125.242 167.194 123.115C165.691 120.988 164.939 118.422 164.939 115.415C164.939 112.408 165.672 109.842 167.139 107.715C168.606 105.552 170.641 103.902 173.244 102.765C175.884 101.628 178.964 101.06 182.484 101.06C186.077 101.06 189.066 101.628 191.449 102.765C193.832 103.902 195.592 105.625 196.729 107.935C197.902 110.208 198.397 113.123 198.214 116.68H172.144C172.327 118.073 172.841 119.338 173.684 120.475C174.564 121.612 175.737 122.51 177.204 123.17C178.707 123.83 180.486 124.16 182.539 124.16C184.812 124.16 186.701 123.775 188.204 123.005C189.744 122.198 190.734 121.172 191.174 119.925ZM182.154 106.505C179.514 106.505 177.369 107.092 175.719 108.265C174.069 109.402 173.006 110.813 172.529 112.5H191.119C190.936 110.667 190.056 109.218 188.479 108.155C186.939 107.055 184.831 106.505 182.154 106.505ZM202.434 119.925H209.034C209.438 121.172 210.263 122.198 211.509 123.005C212.793 123.775 214.461 124.16 216.514 124.16C217.908 124.16 218.989 124.032 219.759 123.775C220.529 123.518 221.061 123.152 221.354 122.675C221.648 122.162 221.794 121.593 221.794 120.97C221.794 120.2 221.556 119.613 221.079 119.21C220.603 118.77 219.869 118.422 218.879 118.165C217.889 117.908 216.624 117.67 215.084 117.45C213.544 117.193 212.059 116.882 210.629 116.515C209.199 116.148 207.934 115.672 206.834 115.085C205.734 114.462 204.854 113.692 204.194 112.775C203.571 111.822 203.259 110.667 203.259 109.31C203.259 107.99 203.571 106.817 204.194 105.79C204.854 104.763 205.753 103.902 206.889 103.205C208.063 102.508 209.419 101.977 210.959 101.61C212.536 101.243 214.223 101.06 216.019 101.06C218.733 101.06 220.988 101.463 222.784 102.27C224.581 103.04 225.919 104.14 226.799 105.57C227.716 106.963 228.174 108.577 228.174 110.41H221.849C221.556 109.053 220.969 108.082 220.089 107.495C219.209 106.872 217.853 106.56 216.019 106.56C214.223 106.56 212.866 106.835 211.949 107.385C211.033 107.935 210.574 108.687 210.574 109.64C210.574 110.41 210.849 111.015 211.399 111.455C211.986 111.858 212.829 112.188 213.929 112.445C215.066 112.702 216.478 112.977 218.164 113.27C219.594 113.563 220.951 113.893 222.234 114.26C223.554 114.627 224.728 115.103 225.754 115.69C226.781 116.24 227.588 116.992 228.174 117.945C228.798 118.862 229.109 120.035 229.109 121.465C229.109 123.225 228.596 124.71 227.569 125.92C226.579 127.13 225.149 128.065 223.279 128.725C221.409 129.348 219.173 129.66 216.569 129.66C214.259 129.66 212.261 129.422 210.574 128.945C208.924 128.432 207.549 127.79 206.449 127.02C205.349 126.213 204.488 125.37 203.864 124.49C203.278 123.573 202.874 122.712 202.654 121.905C202.434 121.098 202.361 120.438 202.434 119.925ZM233.479 119.925H240.079C240.483 121.172 241.308 122.198 242.554 123.005C243.838 123.775 245.506 124.16 247.559 124.16C248.953 124.16 250.034 124.032 250.804 123.775C251.574 123.518 252.106 123.152 252.399 122.675C252.693 122.162 252.839 121.593 252.839 120.97C252.839 120.2 252.601 119.613 252.124 119.21C251.648 118.77 250.914 118.422 249.924 118.165C248.934 117.908 247.669 117.67 246.129 117.45C244.589 117.193 243.104 116.882 241.674 116.515C240.244 116.148 238.979 115.672 237.879 115.085C236.779 114.462 235.899 113.692 235.239 112.775C234.616 111.822 234.304 110.667 234.304 109.31C234.304 107.99 234.616 106.817 235.239 105.79C235.899 104.763 236.798 103.902 237.934 103.205C239.108 102.508 240.464 101.977 242.004 101.61C243.581 101.243 245.268 101.06 247.064 101.06C249.778 101.06 252.033 101.463 253.829 102.27C255.626 103.04 256.964 104.14 257.844 105.57C258.761 106.963 259.219 108.577 259.219 110.41H252.894C252.601 109.053 252.014 108.082 251.134 107.495C250.254 106.872 248.898 106.56 247.064 106.56C245.268 106.56 243.911 106.835 242.994 107.385C242.078 107.935 241.619 108.687 241.619 109.64C241.619 110.41 241.894 111.015 242.444 111.455C243.031 111.858 243.874 112.188 244.974 112.445C246.111 112.702 247.523 112.977 249.209 113.27C250.639 113.563 251.996 113.893 253.279 114.26C254.599 114.627 255.773 115.103 256.799 115.69C257.826 116.24 258.633 116.992 259.219 117.945C259.843 118.862 260.154 120.035 260.154 121.465C260.154 123.225 259.641 124.71 258.614 125.92C257.624 127.13 256.194 128.065 254.324 128.725C252.454 129.348 250.218 129.66 247.614 129.66C245.304 129.66 243.306 129.422 241.619 128.945C239.969 128.432 238.594 127.79 237.494 127.02C236.394 126.213 235.533 125.37 234.909 124.49C234.323 123.573 233.919 122.712 233.699 121.905C233.479 121.098 233.406 120.438 233.479 119.925ZM292.531 124.82C289.561 124.82 286.939 124.38 284.666 123.5C282.429 122.583 280.687 121.245 279.441 119.485C278.194 117.725 277.571 115.598 277.571 113.105C277.571 110.648 278.176 108.522 279.386 106.725C280.596 104.928 282.319 103.535 284.556 102.545C286.829 101.555 289.487 101.06 292.531 101.06C293.374 101.06 294.181 101.115 294.951 101.225C295.757 101.335 296.546 101.482 297.316 101.665L311.121 101.72V107.11C309.251 107.147 307.344 106.927 305.401 106.45C303.494 105.937 301.807 105.387 300.341 104.8L300.176 104.415C301.422 105.002 302.596 105.735 303.696 106.615C304.796 107.458 305.676 108.448 306.336 109.585C307.032 110.685 307.381 111.968 307.381 113.435C307.381 115.818 306.776 117.872 305.566 119.595C304.356 121.282 302.632 122.583 300.396 123.5C298.196 124.38 295.574 124.82 292.531 124.82ZM301.716 140.275V138.955C301.716 137.268 301.166 136.095 300.066 135.435C299.002 134.775 297.536 134.445 295.666 134.445H287.141C285.491 134.445 284.097 134.317 282.961 134.06C281.861 133.803 280.981 133.437 280.321 132.96C279.661 132.483 279.184 131.915 278.891 131.255C278.597 130.632 278.451 129.953 278.451 129.22C278.451 127.753 278.927 126.653 279.881 125.92C280.834 125.15 282.117 124.637 283.731 124.38C285.344 124.123 287.122 124.068 289.066 124.215L292.531 124.82C290.221 124.893 288.497 125.095 287.361 125.425C286.261 125.718 285.711 126.323 285.711 127.24C285.711 127.79 285.931 128.23 286.371 128.56C286.811 128.853 287.434 129 288.241 129H297.206C299.662 129 301.752 129.257 303.476 129.77C305.236 130.32 306.574 131.218 307.491 132.465C308.407 133.748 308.866 135.49 308.866 137.69V140.275H301.716ZM292.531 119.65C294.107 119.65 295.482 119.393 296.656 118.88C297.866 118.367 298.801 117.633 299.461 116.68C300.121 115.69 300.451 114.517 300.451 113.16C300.451 111.767 300.121 110.575 299.461 109.585C298.801 108.595 297.884 107.843 296.711 107.33C295.537 106.78 294.144 106.505 292.531 106.505C290.954 106.505 289.561 106.78 288.351 107.33C287.141 107.843 286.206 108.595 285.546 109.585C284.886 110.575 284.556 111.767 284.556 113.16C284.556 114.517 284.886 115.69 285.546 116.68C286.206 117.633 287.122 118.367 288.296 118.88C289.506 119.393 290.917 119.65 292.531 119.65ZM315.79 101.665H322.94V129H315.79V101.665ZM333.445 107.55C331.392 107.55 329.614 107.953 328.11 108.76C326.607 109.53 325.397 110.483 324.48 111.62C323.564 112.757 322.922 113.857 322.555 114.92L322.5 111.895C322.537 111.455 322.684 110.813 322.94 109.97C323.197 109.09 323.582 108.155 324.095 107.165C324.609 106.138 325.287 105.167 326.13 104.25C326.974 103.297 328 102.527 329.21 101.94C330.42 101.353 331.832 101.06 333.445 101.06V107.55ZM353.98 129.66C350.534 129.66 347.49 129.11 344.85 128.01C342.247 126.91 340.212 125.315 338.745 123.225C337.279 121.098 336.545 118.495 336.545 115.415C336.545 112.335 337.279 109.732 338.745 107.605C340.212 105.442 342.247 103.81 344.85 102.71C347.49 101.61 350.534 101.06 353.98 101.06C357.427 101.06 360.434 101.61 363 102.71C365.604 103.81 367.639 105.442 369.105 107.605C370.572 109.732 371.305 112.335 371.305 115.415C371.305 118.495 370.572 121.098 369.105 123.225C367.639 125.315 365.604 126.91 363 128.01C360.434 129.11 357.427 129.66 353.98 129.66ZM353.98 124.16C355.887 124.16 357.592 123.83 359.095 123.17C360.635 122.473 361.845 121.483 362.725 120.2C363.605 118.88 364.045 117.285 364.045 115.415C364.045 113.545 363.605 111.95 362.725 110.63C361.845 109.273 360.654 108.247 359.15 107.55C357.647 106.853 355.924 106.505 353.98 106.505C352.074 106.505 350.35 106.853 348.81 107.55C347.27 108.247 346.042 109.255 345.125 110.575C344.245 111.895 343.805 113.508 343.805 115.415C343.805 117.285 344.245 118.88 345.125 120.2C346.005 121.483 347.215 122.473 348.755 123.17C350.295 123.83 352.037 124.16 353.98 124.16ZM411.157 124.05L408.902 123.995L417.812 101.665H425.677L413.632 129H406.922L398.122 106.945H400.542L391.467 129H384.757L373.042 101.665H380.907L389.487 124.05H387.232L395.262 101.665H403.457L411.157 124.05ZM427.947 101.665H449.177V107.22H427.947V101.665ZM434.987 94.185H442.137V129H434.987V94.185ZM478.69 129V113.985C478.69 112.482 478.433 111.235 477.92 110.245C477.407 109.255 476.582 108.503 475.445 107.99C474.345 107.477 472.86 107.22 470.99 107.22C469.193 107.22 467.562 107.568 466.095 108.265C464.628 108.925 463.437 109.805 462.52 110.905C461.603 111.968 461.09 113.105 460.98 114.315L460.925 111.29C461.108 110.08 461.53 108.87 462.19 107.66C462.85 106.45 463.73 105.35 464.83 104.36C465.93 103.37 467.25 102.582 468.79 101.995C470.367 101.372 472.127 101.06 474.07 101.06C475.757 101.06 477.315 101.28 478.745 101.72C480.175 102.123 481.422 102.765 482.485 103.645C483.548 104.525 484.373 105.625 484.96 106.945C485.547 108.228 485.84 109.75 485.84 111.51V129H478.69ZM454.215 129V90.665H461.365V129H454.215Z" fill="#23A323"/>
<path d="M452.839 65.112C453.201 65.1964 453.562 64.9716 453.647 64.6097L455.022 58.7136C455.107 58.3518 454.882 57.9901 454.52 57.9057C454.158 57.8212 453.797 58.0461 453.712 58.4079L452.489 63.6489L447.248 62.426C446.886 62.3416 446.525 62.5665 446.44 62.9283C446.356 63.2901 446.581 63.6518 446.943 63.7363L452.839 65.112ZM244.328 25.1298C267.045 12.4675 304.73 -0.739166 343.906 0.79467C383.046 2.32708 423.673 18.5668 452.42 64.812L453.563 64.1017C424.546 17.4219 383.475 0.997413 343.959 -0.549739C304.479 -2.09546 266.55 11.203 243.672 23.9546L244.328 25.1298Z" fill="url(#paint0_linear_3203_31163)"/>
</g>
<defs>
<linearGradient id="paint0_linear_3203_31163" x1="462.224" y1="58.5818" x2="251.405" y2="15.1957" gradientUnits="userSpaceOnUse">
<stop stop-color="#207D11"/>
<stop offset="1" stop-color="#207D11" stop-opacity="0"/>
</linearGradient>
<clipPath id="clip0_3203_31163">
<rect width="525" height="210" fill="white"/>
</clipPath>
</defs>
</svg>
