<svg width="595" height="164" viewBox="0 0 595 164" fill="none" xmlns="http://www.w3.org/2000/svg">
<path d="M46.02 18.3356V25.5506H13.65V36.8606H40.17V43.6206H13.65V60.3906H5.005V18.3356H46.02ZM86.8512 60.3906H78.4012V28.0856H86.8512V60.3906ZM78.8562 44.8556L78.9212 47.0656C78.8345 47.6723 78.6178 48.5606 78.2712 49.7306C77.9245 50.8573 77.3828 52.0706 76.6462 53.3706C75.9528 54.6706 75.0428 55.9273 73.9162 57.1406C72.7895 58.3106 71.4028 59.2856 69.7562 60.0656C68.1095 60.8023 66.1595 61.1706 63.9062 61.1706C62.1295 61.1706 60.3745 60.954 58.6412 60.5206C56.9512 60.0873 55.4128 59.3723 54.0262 58.3756C52.6395 57.3356 51.5345 55.949 50.7112 54.2156C49.8878 52.4823 49.4762 50.294 49.4762 47.6506V28.0856H57.9262V46.2206C57.9262 48.3006 58.2512 49.9473 58.9012 51.1606C59.5945 52.3306 60.5912 53.154 61.8912 53.6306C63.1912 54.1073 64.7295 54.3456 66.5062 54.3456C68.8462 54.3456 70.8612 53.8473 72.5512 52.8506C74.2412 51.8106 75.6062 50.554 76.6462 49.0806C77.7295 47.6073 78.4662 46.199 78.8562 44.8556ZM123.99 49.6656H132.18C131.833 51.8756 130.901 53.8473 129.385 55.5806C127.911 57.314 125.896 58.679 123.34 59.6756C120.783 60.6723 117.663 61.1706 113.98 61.1706C109.863 61.1706 106.223 60.5206 103.06 59.2206C99.8962 57.8773 97.4262 55.949 95.6495 53.4356C93.8729 50.9223 92.9845 47.889 92.9845 44.3356C92.9845 40.7823 93.8512 37.749 95.5845 35.2356C97.3179 32.679 99.7229 30.729 102.8 29.3856C105.92 28.0423 109.56 27.3706 113.72 27.3706C117.966 27.3706 121.498 28.0423 124.315 29.3856C127.131 30.729 129.211 32.7656 130.555 35.4956C131.941 38.1823 132.526 41.6273 132.31 45.8306H101.5C101.716 47.4773 102.323 48.9723 103.32 50.3156C104.36 51.659 105.746 52.7206 107.48 53.5006C109.256 54.2806 111.358 54.6706 113.785 54.6706C116.471 54.6706 118.703 54.2156 120.48 53.3056C122.3 52.3523 123.47 51.139 123.99 49.6656ZM113.33 33.8056C110.21 33.8056 107.675 34.499 105.725 35.8856C103.775 37.229 102.518 38.8973 101.955 40.8906H123.925C123.708 38.724 122.668 37.0123 120.805 35.7556C118.985 34.4556 116.493 33.8056 113.33 33.8056ZM139.247 15.0856H147.697V60.3906H139.247V15.0856ZM165.929 13.9156V21.3256H156.114V13.9156H165.929ZM156.764 28.0856H165.214V60.3906H156.764V28.0856ZM173.636 28.0856H182.086V60.3906H173.636V28.0856ZM197.101 27.3706C199.095 27.3706 200.936 27.6306 202.626 28.1506C204.316 28.6706 205.79 29.4723 207.046 30.5556C208.303 31.639 209.278 33.0256 209.971 34.7156C210.665 36.3623 211.011 38.334 211.011 40.6306V60.3906H202.561V42.1256C202.561 39.3956 201.89 37.4023 200.546 36.1456C199.246 34.8456 197.101 34.1956 194.111 34.1956C191.858 34.1956 189.821 34.629 188.001 35.4956C186.181 36.3623 184.708 37.4673 183.581 38.8106C182.455 40.1106 181.805 41.4756 181.631 42.9056L181.566 39.5906C181.783 38.074 182.281 36.6006 183.061 35.1706C183.841 33.7406 184.881 32.4406 186.181 31.2706C187.525 30.0573 189.106 29.104 190.926 28.4106C192.746 27.7173 194.805 27.3706 197.101 27.3706ZM234.825 55.4506C231.315 55.4506 228.216 54.9306 225.53 53.8906C222.886 52.8073 220.828 51.2256 219.355 49.1456C217.881 47.0656 217.145 44.5523 217.145 41.6056C217.145 38.7023 217.86 36.189 219.29 34.0656C220.72 31.9423 222.756 30.2956 225.4 29.1256C228.086 27.9556 231.228 27.3706 234.825 27.3706C235.821 27.3706 236.775 27.4356 237.685 27.5656C238.638 27.6956 239.57 27.869 240.48 28.0856L256.795 28.1506V34.5206C254.585 34.564 252.331 34.304 250.035 33.7406C247.781 33.134 245.788 32.484 244.055 31.7906L243.86 31.3356C245.333 32.029 246.72 32.8956 248.02 33.9356C249.32 34.9323 250.36 36.1023 251.14 37.4456C251.963 38.7456 252.375 40.2623 252.375 41.9956C252.375 44.8123 251.66 47.239 250.23 49.2756C248.8 51.269 246.763 52.8073 244.12 53.8906C241.52 54.9306 238.421 55.4506 234.825 55.4506ZM245.68 73.7156V72.1556C245.68 70.1623 245.03 68.7756 243.73 67.9956C242.473 67.2156 240.74 66.8256 238.53 66.8256H228.455C226.505 66.8256 224.858 66.674 223.515 66.3706C222.215 66.0673 221.175 65.634 220.395 65.0706C219.615 64.5073 219.051 63.8356 218.705 63.0556C218.358 62.319 218.185 61.5173 218.185 60.6506C218.185 58.9173 218.748 57.6173 219.875 56.7506C221.001 55.8406 222.518 55.234 224.425 54.9306C226.331 54.6273 228.433 54.5623 230.73 54.7356L234.825 55.4506C232.095 55.5373 230.058 55.7756 228.715 56.1656C227.415 56.5123 226.765 57.2273 226.765 58.3106C226.765 58.9606 227.025 59.4806 227.545 59.8706C228.065 60.2173 228.801 60.3906 229.755 60.3906H240.35C243.253 60.3906 245.723 60.694 247.76 61.3006C249.84 61.9506 251.421 63.0123 252.505 64.4856C253.588 66.0023 254.13 68.0606 254.13 70.6606V73.7156H245.68ZM234.825 49.3406C236.688 49.3406 238.313 49.0373 239.7 48.4306C241.13 47.824 242.235 46.9573 243.015 45.8306C243.795 44.6606 244.185 43.274 244.185 41.6706C244.185 40.024 243.795 38.6156 243.015 37.4456C242.235 36.2756 241.151 35.3873 239.765 34.7806C238.378 34.1306 236.731 33.8056 234.825 33.8056C232.961 33.8056 231.315 34.1306 229.885 34.7806C228.455 35.3873 227.35 36.2756 226.57 37.4456C225.79 38.6156 225.4 40.024 225.4 41.6706C225.4 43.274 225.79 44.6606 226.57 45.8306C227.35 46.9573 228.433 47.824 229.82 48.4306C231.25 49.0373 232.918 49.3406 234.825 49.3406ZM293.722 61.1056C290.472 61.1056 287.525 60.4123 284.882 59.0256C282.282 57.5956 280.223 55.624 278.707 53.1106C277.19 50.554 276.432 47.6073 276.432 44.2706C276.432 40.8473 277.168 37.879 278.642 35.3656C280.158 32.8523 282.217 30.9023 284.817 29.5156C287.417 28.0856 290.385 27.3706 293.722 27.3706C296.625 27.3706 299.095 27.804 301.132 28.6706C303.168 29.5373 304.815 30.7506 306.072 32.3106C307.328 33.8273 308.238 35.604 308.802 37.6406C309.408 39.6773 309.712 41.8873 309.712 44.2706C309.712 46.1773 309.408 48.1273 308.802 50.1206C308.195 52.0706 307.263 53.8906 306.007 55.5806C304.75 57.2273 303.103 58.5706 301.067 59.6106C299.03 60.6073 296.582 61.1056 293.722 61.1056ZM296.452 54.6056C299.008 54.6056 301.218 54.1723 303.082 53.3056C304.945 52.439 306.375 51.2256 307.372 49.6656C308.368 48.1056 308.867 46.3073 308.867 44.2706C308.867 42.0606 308.347 40.1973 307.307 38.6806C306.31 37.1206 304.88 35.929 303.017 35.1056C301.197 34.2823 299.008 33.8706 296.452 33.8706C292.855 33.8706 290.06 34.824 288.067 36.7306C286.073 38.6373 285.077 41.1506 285.077 44.2706C285.077 46.3506 285.553 48.1706 286.507 49.7306C287.46 51.2473 288.782 52.439 290.472 53.3056C292.205 54.1723 294.198 54.6056 296.452 54.6056ZM308.867 15.0856H317.317V60.3906H309.452C309.322 59.394 309.192 58.1156 309.062 56.5556C308.932 54.9523 308.867 53.4573 308.867 52.0706V15.0856ZM326.424 28.0856H334.874V60.3906H326.424V28.0856ZM347.289 35.0406C344.863 35.0406 342.761 35.5173 340.984 36.4706C339.208 37.3806 337.778 38.5073 336.694 39.8506C335.611 41.194 334.853 42.494 334.419 43.7506L334.354 40.1756C334.398 39.6556 334.571 38.8973 334.874 37.9006C335.178 36.8606 335.633 35.7556 336.239 34.5856C336.846 33.3723 337.648 32.224 338.644 31.1406C339.641 30.014 340.854 29.104 342.284 28.4106C343.714 27.7173 345.383 27.3706 347.289 27.3706V35.0406ZM381.958 49.6656H390.148C389.802 51.8756 388.87 53.8473 387.353 55.5806C385.88 57.314 383.865 58.679 381.308 59.6756C378.752 60.6723 375.632 61.1706 371.948 61.1706C367.832 61.1706 364.192 60.5206 361.028 59.2206C357.865 57.8773 355.395 55.949 353.618 53.4356C351.842 50.9223 350.953 47.889 350.953 44.3356C350.953 40.7823 351.82 37.749 353.553 35.2356C355.287 32.679 357.692 30.729 360.768 29.3856C363.888 28.0423 367.528 27.3706 371.688 27.3706C375.935 27.3706 379.467 28.0423 382.283 29.3856C385.1 30.729 387.18 32.7656 388.523 35.4956C389.91 38.1823 390.495 41.6273 390.278 45.8306H359.468C359.685 47.4773 360.292 48.9723 361.288 50.3156C362.328 51.659 363.715 52.7206 365.448 53.5006C367.225 54.2806 369.327 54.6706 371.753 54.6706C374.44 54.6706 376.672 54.2156 378.448 53.3056C380.268 52.3523 381.438 51.139 381.958 49.6656ZM371.298 33.8056C368.178 33.8056 365.643 34.499 363.693 35.8856C361.743 37.229 360.487 38.8973 359.923 40.8906H381.893C381.677 38.724 380.637 37.0123 378.773 35.7556C376.953 34.4556 374.462 33.8056 371.298 33.8056ZM412.296 61.1056C409.089 61.1056 406.164 60.4123 403.521 59.0256C400.921 57.5956 398.841 55.624 397.281 53.1106C395.764 50.554 395.006 47.6073 395.006 44.2706C395.006 40.8473 395.786 37.879 397.346 35.3656C398.906 32.8523 401.008 30.9023 403.651 29.5156C406.338 28.0856 409.371 27.3706 412.751 27.3706C416.478 27.3706 419.468 28.129 421.721 29.6456C424.018 31.119 425.686 33.134 426.726 35.6906C427.766 38.2473 428.286 41.1073 428.286 44.2706C428.286 46.1773 427.983 48.1273 427.376 50.1206C426.769 52.0706 425.838 53.8906 424.581 55.5806C423.324 57.2273 421.678 58.5706 419.641 59.6106C417.604 60.6073 415.156 61.1056 412.296 61.1056ZM415.026 54.6056C417.583 54.6056 419.793 54.1723 421.656 53.3056C423.519 52.439 424.949 51.2256 425.946 49.6656C426.943 48.1056 427.441 46.3073 427.441 44.2706C427.441 42.0606 426.921 40.1973 425.881 38.6806C424.884 37.1206 423.454 35.9506 421.591 35.1706C419.771 34.3473 417.583 33.9356 415.026 33.9356C411.429 33.9356 408.634 34.889 406.641 36.7956C404.648 38.659 403.651 41.1506 403.651 44.2706C403.651 46.3506 404.128 48.1706 405.081 49.7306C406.034 51.2473 407.356 52.439 409.046 53.3056C410.779 54.1723 412.773 54.6056 415.026 54.6056ZM427.441 28.0856H435.891V60.3906H428.026C428.026 60.3906 427.961 59.979 427.831 59.1556C427.744 58.289 427.658 57.2056 427.571 55.9056C427.484 54.6056 427.441 53.3273 427.441 52.0706V28.0856ZM443.539 28.0856H451.989V60.3906H443.539V28.0856ZM467.004 27.3706C468.997 27.3706 470.839 27.6306 472.529 28.1506C474.219 28.6706 475.692 29.4723 476.949 30.5556C478.205 31.639 479.18 33.0256 479.874 34.7156C480.567 36.3623 480.914 38.334 480.914 40.6306V60.3906H472.464V42.1256C472.464 39.3956 471.792 37.4023 470.449 36.1456C469.149 34.8456 467.004 34.1956 464.014 34.1956C461.76 34.1956 459.724 34.629 457.904 35.4956C456.084 36.3623 454.61 37.4673 453.484 38.8106C452.357 40.1106 451.707 41.4756 451.534 42.9056L451.469 39.5906C451.685 38.074 452.184 36.6006 452.964 35.1706C453.744 33.7406 454.784 32.4406 456.084 31.2706C457.427 30.0573 459.009 29.104 460.829 28.4106C462.649 27.7173 464.707 27.3706 467.004 27.3706ZM495.149 27.3706C497.142 27.3706 498.984 27.6306 500.674 28.1506C502.364 28.6706 503.837 29.4723 505.094 30.5556C506.35 31.639 507.325 33.0256 508.019 34.7156C508.755 36.3623 509.124 38.334 509.124 40.6306V60.3906H500.674V42.1256C500.674 39.3956 500.002 37.4023 498.659 36.1456C497.315 34.8456 495.149 34.1956 492.159 34.1956C489.905 34.1956 487.869 34.629 486.049 35.4956C484.229 36.3623 482.755 37.4673 481.629 38.8106C480.502 40.1106 479.874 41.4756 479.744 42.9056L479.614 39.3956C479.83 37.9656 480.35 36.5356 481.174 35.1056C481.997 33.6756 483.08 32.3756 484.424 31.2056C485.767 30.0356 487.327 29.104 489.104 28.4106C490.924 27.7173 492.939 27.3706 495.149 27.3706ZM515.491 49.6656H523.291C523.767 51.139 524.742 52.3523 526.216 53.3056C527.732 54.2156 529.704 54.6706 532.131 54.6706C533.777 54.6706 535.056 54.519 535.966 54.2156C536.876 53.9123 537.504 53.479 537.851 52.9156C538.197 52.309 538.371 51.6373 538.371 50.9006C538.371 49.9906 538.089 49.2973 537.526 48.8206C536.962 48.3006 536.096 47.889 534.926 47.5856C533.756 47.2823 532.261 47.0006 530.441 46.7406C528.621 46.4373 526.866 46.069 525.176 45.6356C523.486 45.2023 521.991 44.639 520.691 43.9456C519.391 43.209 518.351 42.299 517.571 41.2156C516.834 40.089 516.466 38.724 516.466 37.1206C516.466 35.5606 516.834 34.174 517.571 32.9606C518.351 31.7473 519.412 30.729 520.756 29.9056C522.142 29.0823 523.746 28.454 525.566 28.0206C527.429 27.5873 529.422 27.3706 531.546 27.3706C534.752 27.3706 537.417 27.8473 539.541 28.8006C541.664 29.7106 543.246 31.0106 544.286 32.7006C545.369 34.3473 545.911 36.254 545.911 38.4206H538.436C538.089 36.8173 537.396 35.669 536.356 34.9756C535.316 34.239 533.712 33.8706 531.546 33.8706C529.422 33.8706 527.819 34.1956 526.736 34.8456C525.652 35.4956 525.111 36.384 525.111 37.5106C525.111 38.4206 525.436 39.1356 526.086 39.6556C526.779 40.1323 527.776 40.5223 529.076 40.8256C530.419 41.129 532.087 41.454 534.081 41.8006C535.771 42.1473 537.374 42.5373 538.891 42.9706C540.451 43.404 541.837 43.9673 543.051 44.6606C544.264 45.3106 545.217 46.199 545.911 47.3256C546.647 48.409 547.016 49.7956 547.016 51.4856C547.016 53.5656 546.409 55.3206 545.196 56.7506C544.026 58.1806 542.336 59.2856 540.126 60.0656C537.916 60.8023 535.272 61.1706 532.196 61.1706C529.466 61.1706 527.104 60.889 525.111 60.3256C523.161 59.719 521.536 58.9606 520.236 58.0506C518.936 57.0973 517.917 56.1006 517.181 55.0606C516.487 53.9773 516.011 52.959 515.751 52.0056C515.491 51.0523 515.404 50.2723 515.491 49.6656ZM46.02 132.541L43.355 132.476L53.885 106.086H63.18L48.945 138.391H41.015L30.615 112.326H33.475L22.75 138.391H14.82L0.975 106.086H10.27L20.41 132.541H17.745L27.235 106.086H36.92L46.02 132.541ZM77.8233 91.9156V99.3256H68.0083V91.9156H77.8233ZM68.6583 106.086H77.1083V138.391H68.6583V106.086ZM83.2559 106.086H108.346V112.651H83.2559V106.086ZM91.5759 97.2456H100.026V138.391H91.5759V97.2456ZM143.224 138.391V120.646C143.224 118.869 142.921 117.396 142.314 116.226C141.708 115.056 140.733 114.167 139.389 113.561C138.089 112.954 136.334 112.651 134.124 112.651C132.001 112.651 130.073 113.062 128.339 113.886C126.606 114.666 125.198 115.706 124.114 117.006C123.031 118.262 122.424 119.606 122.294 121.036L122.229 117.461C122.446 116.031 122.944 114.601 123.724 113.171C124.504 111.741 125.544 110.441 126.844 109.271C128.144 108.101 129.704 107.169 131.524 106.476C133.388 105.739 135.468 105.371 137.764 105.371C139.758 105.371 141.599 105.631 143.289 106.151C144.979 106.627 146.453 107.386 147.709 108.426C148.966 109.466 149.941 110.766 150.634 112.326C151.328 113.842 151.674 115.641 151.674 117.721V138.391H143.224ZM114.299 138.391V93.0856H122.749V138.391H114.299Z" fill="black"/>
<path d="M173.733 127.666H181.533C182.009 129.139 182.984 130.352 184.458 131.306C185.974 132.216 187.946 132.671 190.373 132.671C192.019 132.671 193.298 132.519 194.208 132.216C195.118 131.912 195.746 131.479 196.093 130.916C196.439 130.309 196.613 129.637 196.613 128.901C196.613 127.991 196.331 127.297 195.768 126.821C195.204 126.301 194.338 125.889 193.168 125.586C191.998 125.282 190.503 125.001 188.683 124.741C186.863 124.437 185.108 124.069 183.418 123.636C181.728 123.202 180.233 122.639 178.933 121.946C177.633 121.209 176.593 120.299 175.813 119.216C175.076 118.089 174.708 116.724 174.708 115.121C174.708 113.561 175.076 112.174 175.813 110.961C176.593 109.747 177.654 108.729 178.998 107.906C180.384 107.082 181.988 106.454 183.808 106.021C185.671 105.587 187.664 105.371 189.788 105.371C192.994 105.371 195.659 105.847 197.783 106.801C199.906 107.711 201.488 109.011 202.528 110.701C203.611 112.347 204.153 114.254 204.153 116.421H196.678C196.331 114.817 195.638 113.669 194.598 112.976C193.558 112.239 191.954 111.871 189.788 111.871C187.664 111.871 186.061 112.196 184.978 112.846C183.894 113.496 183.353 114.384 183.353 115.511C183.353 116.421 183.678 117.136 184.328 117.656C185.021 118.132 186.018 118.522 187.318 118.826C188.661 119.129 190.329 119.454 192.323 119.801C194.013 120.147 195.616 120.537 197.133 120.971C198.693 121.404 200.079 121.967 201.293 122.661C202.506 123.311 203.459 124.199 204.153 125.326C204.889 126.409 205.258 127.796 205.258 129.486C205.258 131.566 204.651 133.321 203.438 134.751C202.268 136.181 200.578 137.286 198.368 138.066C196.158 138.802 193.514 139.171 190.438 139.171C187.708 139.171 185.346 138.889 183.353 138.326C181.403 137.719 179.778 136.961 178.478 136.051C177.178 135.097 176.159 134.101 175.423 133.061C174.729 131.977 174.253 130.959 173.993 130.006C173.733 129.052 173.646 128.272 173.733 127.666ZM211.722 106.086H220.172V138.391H211.722V106.086ZM235.187 105.371C237.181 105.371 239.022 105.631 240.712 106.151C242.402 106.671 243.876 107.472 245.132 108.556C246.389 109.639 247.364 111.026 248.057 112.716C248.751 114.362 249.097 116.334 249.097 118.631V138.391H240.647V120.126C240.647 117.396 239.976 115.402 238.632 114.146C237.332 112.846 235.187 112.196 232.197 112.196C229.944 112.196 227.907 112.629 226.087 113.496C224.267 114.362 222.794 115.467 221.667 116.811C220.541 118.111 219.891 119.476 219.717 120.906L219.652 117.591C219.869 116.074 220.367 114.601 221.147 113.171C221.927 111.741 222.967 110.441 224.267 109.271C225.611 108.057 227.192 107.104 229.012 106.411C230.832 105.717 232.891 105.371 235.187 105.371ZM263.332 105.371C265.326 105.371 267.167 105.631 268.857 106.151C270.547 106.671 272.021 107.472 273.277 108.556C274.534 109.639 275.509 111.026 276.202 112.716C276.939 114.362 277.307 116.334 277.307 118.631V138.391H268.857V120.126C268.857 117.396 268.186 115.402 266.842 114.146C265.499 112.846 263.332 112.196 260.342 112.196C258.089 112.196 256.052 112.629 254.232 113.496C252.412 114.362 250.939 115.467 249.812 116.811C248.686 118.111 248.057 119.476 247.927 120.906L247.797 117.396C248.014 115.966 248.534 114.536 249.357 113.106C250.181 111.676 251.264 110.376 252.607 109.206C253.951 108.036 255.511 107.104 257.287 106.411C259.107 105.717 261.122 105.371 263.332 105.371ZM300.704 139.106C297.498 139.106 294.573 138.412 291.929 137.026C289.329 135.596 287.249 133.624 285.689 131.111C284.173 128.554 283.414 125.607 283.414 122.271C283.414 118.847 284.194 115.879 285.754 113.366C287.314 110.852 289.416 108.902 292.059 107.516C294.746 106.086 297.779 105.371 301.159 105.371C304.886 105.371 307.876 106.129 310.129 107.646C312.426 109.119 314.094 111.134 315.134 113.691C316.174 116.247 316.694 119.107 316.694 122.271C316.694 124.177 316.391 126.127 315.784 128.121C315.178 130.071 314.246 131.891 312.989 133.581C311.733 135.227 310.086 136.571 308.049 137.611C306.013 138.607 303.564 139.106 300.704 139.106ZM303.434 132.606C305.991 132.606 308.201 132.172 310.064 131.306C311.928 130.439 313.358 129.226 314.354 127.666C315.351 126.106 315.849 124.307 315.849 122.271C315.849 120.061 315.329 118.197 314.289 116.681C313.293 115.121 311.863 113.951 309.999 113.171C308.179 112.347 305.991 111.936 303.434 111.936C299.838 111.936 297.043 112.889 295.049 114.796C293.056 116.659 292.059 119.151 292.059 122.271C292.059 124.351 292.536 126.171 293.489 127.731C294.443 129.247 295.764 130.439 297.454 131.306C299.188 132.172 301.181 132.606 303.434 132.606ZM315.849 106.086H324.299V138.391H316.434C316.434 138.391 316.369 137.979 316.239 137.156C316.153 136.289 316.066 135.206 315.979 133.906C315.893 132.606 315.849 131.327 315.849 130.071V106.086ZM332.597 93.0856H341.047V138.391H332.597V93.0856ZM350.243 93.0856H358.693V138.391H350.243V93.0856ZM383.569 93.0856H392.019V138.391H383.569V93.0856ZM419.61 139.171C415.537 139.171 411.94 138.521 408.82 137.221C405.743 135.921 403.338 134.036 401.605 131.566C399.872 129.052 399.005 125.976 399.005 122.336C399.005 118.696 399.872 115.619 401.605 113.106C403.338 110.549 405.743 108.621 408.82 107.321C411.94 106.021 415.537 105.371 419.61 105.371C423.683 105.371 427.237 106.021 430.27 107.321C433.347 108.621 435.752 110.549 437.485 113.106C439.218 115.619 440.085 118.696 440.085 122.336C440.085 125.976 439.218 129.052 437.485 131.566C435.752 134.036 433.347 135.921 430.27 137.221C427.237 138.521 423.683 139.171 419.61 139.171ZM419.61 132.671C421.863 132.671 423.878 132.281 425.655 131.501C427.475 130.677 428.905 129.507 429.945 127.991C430.985 126.431 431.505 124.546 431.505 122.336C431.505 120.126 430.985 118.241 429.945 116.681C428.905 115.077 427.497 113.864 425.72 113.041C423.943 112.217 421.907 111.806 419.61 111.806C417.357 111.806 415.32 112.217 413.5 113.041C411.68 113.864 410.228 115.056 409.145 116.616C408.105 118.176 407.585 120.082 407.585 122.336C407.585 124.546 408.105 126.431 409.145 127.991C410.185 129.507 411.615 130.677 413.435 131.501C415.255 132.281 417.313 132.671 419.61 132.671ZM462.062 139.106C458.855 139.106 455.93 138.412 453.287 137.026C450.687 135.596 448.607 133.624 447.047 131.111C445.53 128.554 444.772 125.607 444.772 122.271C444.772 118.847 445.552 115.879 447.112 113.366C448.672 110.852 450.773 108.902 453.417 107.516C456.103 106.086 459.137 105.371 462.517 105.371C466.243 105.371 469.233 106.129 471.487 107.646C473.783 109.119 475.452 111.134 476.492 113.691C477.532 116.247 478.052 119.107 478.052 122.271C478.052 124.177 477.748 126.127 477.142 128.121C476.535 130.071 475.603 131.891 474.347 133.581C473.09 135.227 471.443 136.571 469.407 137.611C467.37 138.607 464.922 139.106 462.062 139.106ZM464.792 132.606C467.348 132.606 469.558 132.172 471.422 131.306C473.285 130.439 474.715 129.226 475.712 127.666C476.708 126.106 477.207 124.307 477.207 122.271C477.207 120.061 476.687 118.197 475.647 116.681C474.65 115.121 473.22 113.951 471.357 113.171C469.537 112.347 467.348 111.936 464.792 111.936C461.195 111.936 458.4 112.889 456.407 114.796C454.413 116.659 453.417 119.151 453.417 122.271C453.417 124.351 453.893 126.171 454.847 127.731C455.8 129.247 457.122 130.439 458.812 131.306C460.545 132.172 462.538 132.606 464.792 132.606ZM477.207 106.086H485.657V138.391H477.792C477.792 138.391 477.727 137.979 477.597 137.156C477.51 136.289 477.423 135.206 477.337 133.906C477.25 132.606 477.207 131.327 477.207 130.071V106.086ZM493.304 106.086H501.754V138.391H493.304V106.086ZM516.769 105.371C518.763 105.371 520.604 105.631 522.294 106.151C523.984 106.671 525.458 107.472 526.714 108.556C527.971 109.639 528.946 111.026 529.639 112.716C530.333 114.362 530.679 116.334 530.679 118.631V138.391H522.229V120.126C522.229 117.396 521.558 115.402 520.214 114.146C518.914 112.846 516.769 112.196 513.779 112.196C511.526 112.196 509.489 112.629 507.669 113.496C505.849 114.362 504.376 115.467 503.249 116.811C502.123 118.111 501.473 119.476 501.299 120.906L501.234 117.591C501.451 116.074 501.949 114.601 502.729 113.171C503.509 111.741 504.549 110.441 505.849 109.271C507.193 108.057 508.774 107.104 510.594 106.411C512.414 105.717 514.473 105.371 516.769 105.371ZM537.073 127.666H544.873C545.349 129.139 546.324 130.352 547.798 131.306C549.314 132.216 551.286 132.671 553.713 132.671C555.359 132.671 556.638 132.519 557.548 132.216C558.458 131.912 559.086 131.479 559.433 130.916C559.779 130.309 559.953 129.637 559.953 128.901C559.953 127.991 559.671 127.297 559.108 126.821C558.544 126.301 557.678 125.889 556.508 125.586C555.338 125.282 553.843 125.001 552.023 124.741C550.203 124.437 548.448 124.069 546.758 123.636C545.068 123.202 543.573 122.639 542.273 121.946C540.973 121.209 539.933 120.299 539.153 119.216C538.416 118.089 538.048 116.724 538.048 115.121C538.048 113.561 538.416 112.174 539.153 110.961C539.933 109.747 540.994 108.729 542.338 107.906C543.724 107.082 545.328 106.454 547.148 106.021C549.011 105.587 551.004 105.371 553.128 105.371C556.334 105.371 558.999 105.847 561.123 106.801C563.246 107.711 564.828 109.011 565.868 110.701C566.951 112.347 567.493 114.254 567.493 116.421H560.018C559.671 114.817 558.978 113.669 557.938 112.976C556.898 112.239 555.294 111.871 553.128 111.871C551.004 111.871 549.401 112.196 548.318 112.846C547.234 113.496 546.693 114.384 546.693 115.511C546.693 116.421 547.018 117.136 547.668 117.656C548.361 118.132 549.358 118.522 550.658 118.826C552.001 119.129 553.669 119.454 555.663 119.801C557.353 120.147 558.956 120.537 560.473 120.971C562.033 121.404 563.419 121.967 564.633 122.661C565.846 123.311 566.799 124.199 567.493 125.326C568.229 126.409 568.598 127.796 568.598 129.486C568.598 131.566 567.991 133.321 566.778 134.751C565.608 136.181 563.918 137.286 561.708 138.066C559.498 138.802 556.854 139.171 553.778 139.171C551.048 139.171 548.686 138.889 546.693 138.326C544.743 137.719 543.118 136.961 541.818 136.051C540.518 135.097 539.499 134.101 538.763 133.061C538.069 131.977 537.593 130.959 537.333 130.006C537.073 129.052 536.986 128.272 537.073 127.666Z" fill="#FFBD00"/>
<path d="M176.333 161.85C219.004 155.132 294.159 137.293 374.067 151.773C449.911 165.516 535.322 161.85 576.373 147.07" stroke="url(#paint0_linear_4152_41282)" stroke-width="4" stroke-linecap="round"/>
<defs>
<linearGradient id="paint0_linear_4152_41282" x1="576.373" y1="154.052" x2="171.452" y2="154.052" gradientUnits="userSpaceOnUse">
<stop stop-color="#FFBD00"/>
<stop offset="1" stop-color="#FFBD00" stop-opacity="0"/>
</linearGradient>
</defs>
</svg>
