<svg width="315" height="112" viewBox="0 0 315 112" fill="none" xmlns="http://www.w3.org/2000/svg">
<g filter="url(#filter0_d_4265_41404)">
<rect opacity="0.85" x="20.4214" y="12.4664" width="274.129" height="71" rx="8.76992" fill="white"/>
<path d="M98.2368 36.6904H99.6048V44.4664H98.2368V36.6904ZM101.508 38.4904H102.84V44.4664H101.508V38.4904ZM105.36 38.3584C105.704 38.3584 106.02 38.4064 106.308 38.5024C106.604 38.5984 106.856 38.7464 107.064 38.9464C107.28 39.1384 107.444 39.3784 107.556 39.6664C107.676 39.9544 107.736 40.2944 107.736 40.6864V44.4664H106.404V40.9504C106.404 40.4624 106.284 40.1024 106.044 39.8704C105.812 39.6304 105.444 39.5104 104.94 39.5104C104.556 39.5104 104.204 39.5944 103.884 39.7624C103.572 39.9224 103.316 40.1344 103.116 40.3984C102.916 40.6544 102.8 40.9384 102.768 41.2504L102.756 40.6024C102.796 40.3064 102.884 40.0264 103.02 39.7624C103.156 39.4904 103.336 39.2504 103.56 39.0424C103.784 38.8264 104.048 38.6584 104.352 38.5384C104.656 38.4184 104.992 38.3584 105.36 38.3584ZM108.787 38.4904H113.011V39.5824H108.787V38.4904ZM110.227 36.8824H111.571V44.4664H110.227V36.8824ZM118.957 42.4984H120.241C120.177 42.9064 120.017 43.2704 119.761 43.5904C119.513 43.9024 119.173 44.1504 118.741 44.3344C118.309 44.5104 117.793 44.5984 117.193 44.5984C116.513 44.5984 115.905 44.4744 115.369 44.2264C114.833 43.9704 114.413 43.6104 114.109 43.1464C113.805 42.6824 113.653 42.1304 113.653 41.4904C113.653 40.8584 113.801 40.3064 114.097 39.8344C114.393 39.3624 114.801 38.9984 115.321 38.7424C115.849 38.4864 116.457 38.3584 117.145 38.3584C117.857 38.3584 118.449 38.4864 118.921 38.7424C119.401 38.9904 119.757 39.3664 119.989 39.8704C120.221 40.3664 120.317 40.9944 120.277 41.7544H115.009C115.049 42.0904 115.157 42.3944 115.333 42.6664C115.517 42.9304 115.765 43.1384 116.077 43.2904C116.389 43.4344 116.753 43.5064 117.169 43.5064C117.633 43.5064 118.021 43.4144 118.333 43.2304C118.653 43.0464 118.861 42.8024 118.957 42.4984ZM117.109 39.4384C116.565 39.4384 116.117 39.5744 115.765 39.8464C115.413 40.1104 115.185 40.4504 115.081 40.8664H118.933C118.901 40.4184 118.721 40.0704 118.393 39.8224C118.065 39.5664 117.637 39.4384 117.109 39.4384ZM121.465 38.4904H122.797V44.4664H121.465V38.4904ZM124.957 39.6304C124.525 39.6304 124.153 39.7224 123.841 39.9064C123.537 40.0904 123.293 40.3144 123.109 40.5784C122.925 40.8424 122.797 41.0984 122.725 41.3464L122.713 40.6744C122.721 40.5864 122.749 40.4544 122.797 40.2784C122.845 40.0944 122.917 39.8944 123.013 39.6784C123.117 39.4624 123.253 39.2544 123.421 39.0544C123.597 38.8464 123.809 38.6784 124.057 38.5504C124.313 38.4224 124.613 38.3584 124.957 38.3584V39.6304ZM125.965 38.4904H127.297V44.4664H125.965V38.4904ZM129.817 38.3584C130.161 38.3584 130.477 38.4064 130.765 38.5024C131.061 38.5984 131.313 38.7464 131.521 38.9464C131.737 39.1384 131.901 39.3784 132.013 39.6664C132.133 39.9544 132.193 40.2944 132.193 40.6864V44.4664H130.861V40.9504C130.861 40.4624 130.741 40.1024 130.501 39.8704C130.269 39.6304 129.901 39.5104 129.397 39.5104C129.013 39.5104 128.661 39.5944 128.341 39.7624C128.029 39.9224 127.773 40.1344 127.573 40.3984C127.373 40.6544 127.257 40.9384 127.225 41.2504L127.213 40.6024C127.253 40.3064 127.341 40.0264 127.477 39.7624C127.613 39.4904 127.793 39.2504 128.017 39.0424C128.241 38.8264 128.505 38.6584 128.809 38.5384C129.113 38.4184 129.449 38.3584 129.817 38.3584ZM136.328 44.5984C135.784 44.5984 135.284 44.4664 134.828 44.2024C134.38 43.9384 134.02 43.5744 133.748 43.1104C133.484 42.6384 133.352 42.0984 133.352 41.4904C133.352 40.8664 133.488 40.3224 133.76 39.8584C134.032 39.3864 134.4 39.0184 134.864 38.7544C135.328 38.4904 135.848 38.3584 136.424 38.3584C137.064 38.3584 137.572 38.4984 137.948 38.7784C138.324 39.0584 138.592 39.4344 138.752 39.9064C138.912 40.3784 138.992 40.9064 138.992 41.4904C138.992 41.8184 138.944 42.1664 138.848 42.5344C138.752 42.8944 138.6 43.2304 138.392 43.5424C138.192 43.8544 137.92 44.1104 137.576 44.3104C137.24 44.5024 136.824 44.5984 136.328 44.5984ZM136.736 43.4944C137.184 43.4944 137.564 43.4104 137.876 43.2424C138.196 43.0664 138.436 42.8264 138.596 42.5224C138.764 42.2184 138.848 41.8744 138.848 41.4904C138.848 41.0664 138.764 40.7064 138.596 40.4104C138.428 40.1064 138.188 39.8744 137.876 39.7144C137.564 39.5464 137.184 39.4624 136.736 39.4624C136.096 39.4624 135.6 39.6504 135.248 40.0264C134.896 40.4024 134.72 40.8904 134.72 41.4904C134.72 41.8824 134.804 42.2304 134.972 42.5344C135.148 42.8384 135.388 43.0744 135.692 43.2424C135.996 43.4104 136.344 43.4944 136.736 43.4944ZM138.848 38.4904H140.192V44.4664H138.944C138.944 44.4664 138.936 44.3904 138.92 44.2384C138.904 44.0864 138.888 43.9024 138.872 43.6864C138.856 43.4624 138.848 43.2504 138.848 43.0504V38.4904ZM141.237 38.4904H145.461V39.5824H141.237V38.4904ZM142.677 36.8824H144.021V44.4664H142.677V36.8824ZM148.068 35.9584V37.2424H146.472V35.9584H148.068ZM146.592 38.4904H147.936V44.4664H146.592V38.4904ZM152.712 44.5984C152.048 44.5984 151.452 44.4784 150.924 44.2384C150.396 43.9984 149.98 43.6464 149.676 43.1824C149.372 42.7184 149.22 42.1544 149.22 41.4904C149.22 40.8344 149.372 40.2744 149.676 39.8104C149.98 39.3384 150.396 38.9784 150.924 38.7304C151.452 38.4824 152.048 38.3584 152.712 38.3584C153.376 38.3584 153.968 38.4824 154.488 38.7304C155.008 38.9784 155.416 39.3384 155.712 39.8104C156.016 40.2744 156.168 40.8344 156.168 41.4904C156.168 42.1544 156.016 42.7184 155.712 43.1824C155.416 43.6464 155.008 43.9984 154.488 44.2384C153.968 44.4784 153.376 44.5984 152.712 44.5984ZM152.712 43.5064C153.096 43.5064 153.448 43.4304 153.768 43.2784C154.088 43.1264 154.34 42.8984 154.524 42.5944C154.716 42.2904 154.812 41.9224 154.812 41.4904C154.812 41.0584 154.716 40.6904 154.524 40.3864C154.34 40.0824 154.088 39.8504 153.768 39.6904C153.456 39.5224 153.104 39.4384 152.712 39.4384C152.32 39.4384 151.964 39.5184 151.644 39.6784C151.324 39.8384 151.064 40.0704 150.864 40.3744C150.672 40.6784 150.576 41.0504 150.576 41.4904C150.576 41.9224 150.672 42.2904 150.864 42.5944C151.056 42.8984 151.312 43.1264 151.632 43.2784C151.96 43.4304 152.32 43.5064 152.712 43.5064ZM157.36 38.4904H158.692V44.4664H157.36V38.4904ZM161.212 38.3584C161.556 38.3584 161.872 38.4064 162.16 38.5024C162.456 38.5984 162.708 38.7464 162.916 38.9464C163.132 39.1384 163.296 39.3784 163.408 39.6664C163.528 39.9544 163.588 40.2944 163.588 40.6864V44.4664H162.256V40.9504C162.256 40.4624 162.136 40.1024 161.896 39.8704C161.664 39.6304 161.296 39.5104 160.792 39.5104C160.408 39.5104 160.056 39.5944 159.736 39.7624C159.424 39.9224 159.168 40.1344 158.968 40.3984C158.768 40.6544 158.652 40.9384 158.62 41.2504L158.608 40.6024C158.648 40.3064 158.736 40.0264 158.872 39.7624C159.008 39.4904 159.188 39.2504 159.412 39.0424C159.636 38.8264 159.9 38.6584 160.204 38.5384C160.508 38.4184 160.844 38.3584 161.212 38.3584ZM167.723 44.5984C167.179 44.5984 166.679 44.4664 166.223 44.2024C165.775 43.9384 165.415 43.5744 165.143 43.1104C164.879 42.6384 164.747 42.0984 164.747 41.4904C164.747 40.8664 164.883 40.3224 165.155 39.8584C165.427 39.3864 165.795 39.0184 166.259 38.7544C166.723 38.4904 167.243 38.3584 167.819 38.3584C168.459 38.3584 168.967 38.4984 169.343 38.7784C169.719 39.0584 169.987 39.4344 170.147 39.9064C170.307 40.3784 170.387 40.9064 170.387 41.4904C170.387 41.8184 170.339 42.1664 170.243 42.5344C170.147 42.8944 169.995 43.2304 169.787 43.5424C169.587 43.8544 169.315 44.1104 168.971 44.3104C168.635 44.5024 168.219 44.5984 167.723 44.5984ZM168.131 43.4944C168.579 43.4944 168.959 43.4104 169.271 43.2424C169.591 43.0664 169.831 42.8264 169.991 42.5224C170.159 42.2184 170.243 41.8744 170.243 41.4904C170.243 41.0664 170.159 40.7064 169.991 40.4104C169.823 40.1064 169.583 39.8744 169.271 39.7144C168.959 39.5464 168.579 39.4624 168.131 39.4624C167.491 39.4624 166.995 39.6504 166.643 40.0264C166.291 40.4024 166.115 40.8904 166.115 41.4904C166.115 41.8824 166.199 42.2304 166.367 42.5344C166.543 42.8384 166.783 43.0744 167.087 43.2424C167.391 43.4104 167.739 43.4944 168.131 43.4944ZM170.243 38.4904H171.587V44.4664H170.339C170.339 44.4664 170.331 44.3904 170.315 44.2384C170.299 44.0864 170.283 43.9024 170.267 43.6864C170.251 43.4624 170.243 43.2504 170.243 43.0504V38.4904ZM173.171 36.0904H174.503V44.4664H173.171V36.0904ZM180.447 41.1544V43.2904H185.907V44.4664H179.079V36.6904H185.895V37.8664H180.447V40.0264H184.911V41.1544H180.447ZM189.895 44.5984C189.343 44.5984 188.839 44.4664 188.383 44.2024C187.935 43.9384 187.579 43.5744 187.315 43.1104C187.051 42.6384 186.919 42.0984 186.919 41.4904C186.919 40.8664 187.047 40.3224 187.303 39.8584C187.567 39.3864 187.919 39.0184 188.359 38.7544C188.807 38.4904 189.319 38.3584 189.895 38.3584C190.399 38.3584 190.823 38.4424 191.167 38.6104C191.511 38.7704 191.783 38.9944 191.983 39.2824C192.183 39.5624 192.327 39.8904 192.415 40.2664C192.511 40.6424 192.559 41.0504 192.559 41.4904C192.559 41.8184 192.511 42.1664 192.415 42.5344C192.319 42.8944 192.167 43.2304 191.959 43.5424C191.759 43.8544 191.487 44.1104 191.143 44.3104C190.807 44.5024 190.391 44.5984 189.895 44.5984ZM190.303 43.4944C190.751 43.4944 191.131 43.4104 191.443 43.2424C191.763 43.0664 192.003 42.8264 192.163 42.5224C192.331 42.2184 192.415 41.8744 192.415 41.4904C192.415 41.0664 192.331 40.7064 192.163 40.4104C191.995 40.1064 191.755 39.8704 191.443 39.7024C191.131 39.5344 190.751 39.4504 190.303 39.4504C189.663 39.4504 189.167 39.6424 188.815 40.0264C188.463 40.4024 188.287 40.8904 188.287 41.4904C188.287 41.8824 188.371 42.2304 188.539 42.5344C188.715 42.8384 188.955 43.0744 189.259 43.2424C189.563 43.4104 189.911 43.4944 190.303 43.4944ZM192.415 36.0904H193.759V44.4664H192.511C192.495 44.2824 192.475 44.0544 192.451 43.7824C192.427 43.5104 192.415 43.2664 192.415 43.0504V36.0904ZM201.685 44.4664H200.353V38.4904H201.685V44.4664ZM200.425 41.6224L200.437 42.0064C200.421 42.1104 200.385 42.2664 200.329 42.4744C200.281 42.6824 200.197 42.9104 200.077 43.1584C199.965 43.3984 199.813 43.6304 199.621 43.8544C199.437 44.0704 199.205 44.2504 198.925 44.3944C198.645 44.5304 198.305 44.5984 197.905 44.5984C197.617 44.5984 197.325 44.5584 197.029 44.4784C196.741 44.4064 196.477 44.2824 196.237 44.1064C196.005 43.9304 195.817 43.6904 195.673 43.3864C195.529 43.0824 195.457 42.6984 195.457 42.2344V38.4904H196.789V41.9824C196.789 42.3584 196.849 42.6544 196.969 42.8704C197.097 43.0784 197.273 43.2264 197.497 43.3144C197.721 43.4024 197.981 43.4464 198.277 43.4464C198.701 43.4464 199.061 43.3504 199.357 43.1584C199.653 42.9664 199.889 42.7304 200.065 42.4504C200.249 42.1624 200.369 41.8864 200.425 41.6224ZM209.589 42.1504C209.541 42.6624 209.377 43.1024 209.097 43.4704C208.817 43.8384 208.441 44.1184 207.969 44.3104C207.505 44.5024 206.969 44.5984 206.361 44.5984C205.705 44.5984 205.109 44.4784 204.573 44.2384C204.045 43.9984 203.625 43.6464 203.313 43.1824C203.001 42.7184 202.845 42.1544 202.845 41.4904C202.845 40.8264 203.001 40.2624 203.313 39.7984C203.625 39.3344 204.045 38.9784 204.573 38.7304C205.109 38.4824 205.705 38.3584 206.361 38.3584C206.969 38.3584 207.505 38.4584 207.969 38.6584C208.433 38.8504 208.805 39.1264 209.085 39.4864C209.365 39.8464 209.529 40.2824 209.577 40.7944H208.353C208.217 40.3704 207.969 40.0424 207.609 39.8104C207.257 39.5704 206.841 39.4504 206.361 39.4504C205.969 39.4504 205.609 39.5304 205.281 39.6904C204.953 39.8424 204.689 40.0704 204.489 40.3744C204.297 40.6704 204.201 41.0424 204.201 41.4904C204.201 41.9304 204.297 42.3024 204.489 42.6064C204.689 42.9104 204.953 43.1384 205.281 43.2904C205.609 43.4344 205.969 43.5064 206.361 43.5064C206.889 43.5064 207.321 43.3904 207.657 43.1584C208.001 42.9184 208.237 42.5824 208.365 42.1504H209.589ZM213.426 44.5984C212.882 44.5984 212.382 44.4664 211.926 44.2024C211.478 43.9384 211.118 43.5744 210.846 43.1104C210.582 42.6384 210.45 42.0984 210.45 41.4904C210.45 40.8664 210.586 40.3224 210.858 39.8584C211.13 39.3864 211.498 39.0184 211.962 38.7544C212.426 38.4904 212.946 38.3584 213.522 38.3584C214.162 38.3584 214.67 38.4984 215.046 38.7784C215.422 39.0584 215.69 39.4344 215.85 39.9064C216.01 40.3784 216.09 40.9064 216.09 41.4904C216.09 41.8184 216.042 42.1664 215.946 42.5344C215.85 42.8944 215.698 43.2304 215.49 43.5424C215.29 43.8544 215.018 44.1104 214.674 44.3104C214.338 44.5024 213.922 44.5984 213.426 44.5984ZM213.834 43.4944C214.282 43.4944 214.662 43.4104 214.974 43.2424C215.294 43.0664 215.534 42.8264 215.694 42.5224C215.862 42.2184 215.946 41.8744 215.946 41.4904C215.946 41.0664 215.862 40.7064 215.694 40.4104C215.526 40.1064 215.286 39.8744 214.974 39.7144C214.662 39.5464 214.282 39.4624 213.834 39.4624C213.194 39.4624 212.698 39.6504 212.346 40.0264C211.994 40.4024 211.818 40.8904 211.818 41.4904C211.818 41.8824 211.902 42.2304 212.07 42.5344C212.246 42.8384 212.486 43.0744 212.79 43.2424C213.094 43.4104 213.442 43.4944 213.834 43.4944ZM215.946 38.4904H217.29V44.4664H216.042C216.042 44.4664 216.034 44.3904 216.018 44.2384C216.002 44.0864 215.986 43.9024 215.97 43.6864C215.954 43.4624 215.946 43.2504 215.946 43.0504V38.4904ZM218.334 38.4904H222.558V39.5824H218.334V38.4904ZM219.774 36.8824H221.118V44.4664H219.774V36.8824ZM225.166 35.9584V37.2424H223.57V35.9584H225.166ZM223.69 38.4904H225.034V44.4664H223.69V38.4904ZM229.809 44.5984C229.145 44.5984 228.549 44.4784 228.021 44.2384C227.493 43.9984 227.077 43.6464 226.773 43.1824C226.469 42.7184 226.317 42.1544 226.317 41.4904C226.317 40.8344 226.469 40.2744 226.773 39.8104C227.077 39.3384 227.493 38.9784 228.021 38.7304C228.549 38.4824 229.145 38.3584 229.809 38.3584C230.473 38.3584 231.065 38.4824 231.585 38.7304C232.105 38.9784 232.513 39.3384 232.809 39.8104C233.113 40.2744 233.265 40.8344 233.265 41.4904C233.265 42.1544 233.113 42.7184 232.809 43.1824C232.513 43.6464 232.105 43.9984 231.585 44.2384C231.065 44.4784 230.473 44.5984 229.809 44.5984ZM229.809 43.5064C230.193 43.5064 230.545 43.4304 230.865 43.2784C231.185 43.1264 231.437 42.8984 231.621 42.5944C231.813 42.2904 231.909 41.9224 231.909 41.4904C231.909 41.0584 231.813 40.6904 231.621 40.3864C231.437 40.0824 231.185 39.8504 230.865 39.6904C230.553 39.5224 230.201 39.4384 229.809 39.4384C229.417 39.4384 229.061 39.5184 228.741 39.6784C228.421 39.8384 228.161 40.0704 227.961 40.3744C227.769 40.6784 227.673 41.0504 227.673 41.4904C227.673 41.9224 227.769 42.2904 227.961 42.5944C228.153 42.8984 228.409 43.1264 228.729 43.2784C229.057 43.4304 229.417 43.5064 229.809 43.5064ZM234.457 38.4904H235.789V44.4664H234.457V38.4904ZM238.309 38.3584C238.653 38.3584 238.969 38.4064 239.257 38.5024C239.553 38.5984 239.805 38.7464 240.013 38.9464C240.229 39.1384 240.393 39.3784 240.505 39.6664C240.625 39.9544 240.685 40.2944 240.685 40.6864V44.4664H239.353V40.9504C239.353 40.4624 239.233 40.1024 238.993 39.8704C238.761 39.6304 238.393 39.5104 237.889 39.5104C237.505 39.5104 237.153 39.5944 236.833 39.7624C236.521 39.9224 236.265 40.1344 236.065 40.3984C235.865 40.6544 235.749 40.9384 235.717 41.2504L235.705 40.6024C235.745 40.3064 235.833 40.0264 235.969 39.7624C236.105 39.4904 236.285 39.2504 236.509 39.0424C236.733 38.8264 236.997 38.6584 237.301 38.5384C237.605 38.4184 237.941 38.3584 238.309 38.3584ZM97.3968 52.5624H101.729V53.6424H97.3968V52.5624ZM100.841 50.0904H101.825V51.2424H101.081C100.857 51.2344 100.661 51.2584 100.493 51.3144C100.333 51.3704 100.205 51.4744 100.109 51.6264C100.021 51.7784 99.9768 51.9944 99.9768 52.2744V58.4664H98.6328V52.1544C98.6328 51.6744 98.7208 51.2824 98.8968 50.9784C99.0728 50.6744 99.3248 50.4504 99.6528 50.3064C99.9888 50.1624 100.385 50.0904 100.841 50.0904ZM108.955 58.4664H107.623V52.4904H108.955V58.4664ZM107.695 55.6224L107.707 56.0064C107.691 56.1104 107.655 56.2664 107.599 56.4744C107.551 56.6824 107.467 56.9104 107.347 57.1584C107.235 57.3984 107.083 57.6304 106.891 57.8544C106.707 58.0704 106.475 58.2504 106.195 58.3944C105.915 58.5304 105.575 58.5984 105.175 58.5984C104.887 58.5984 104.595 58.5584 104.299 58.4784C104.011 58.4064 103.747 58.2824 103.507 58.1064C103.275 57.9304 103.087 57.6904 102.943 57.3864C102.799 57.0824 102.727 56.6984 102.727 56.2344V52.4904H104.059V55.9824C104.059 56.3584 104.119 56.6544 104.239 56.8704C104.367 57.0784 104.543 57.2264 104.767 57.3144C104.991 57.4024 105.251 57.4464 105.547 57.4464C105.971 57.4464 106.331 57.3504 106.627 57.1584C106.923 56.9664 107.159 56.7304 107.335 56.4504C107.519 56.1624 107.639 55.8864 107.695 55.6224ZM110.426 52.4904H111.758V58.4664H110.426V52.4904ZM114.278 52.3584C114.622 52.3584 114.938 52.4064 115.226 52.5024C115.522 52.5984 115.774 52.7464 115.982 52.9464C116.198 53.1384 116.362 53.3784 116.474 53.6664C116.594 53.9544 116.654 54.2944 116.654 54.6864V58.4664H115.322V54.9504C115.322 54.4624 115.202 54.1024 114.962 53.8704C114.73 53.6304 114.362 53.5104 113.858 53.5104C113.474 53.5104 113.122 53.5944 112.802 53.7624C112.49 53.9224 112.234 54.1344 112.034 54.3984C111.834 54.6544 111.718 54.9384 111.686 55.2504L111.674 54.6024C111.714 54.3064 111.802 54.0264 111.938 53.7624C112.074 53.4904 112.254 53.2504 112.478 53.0424C112.702 52.8264 112.966 52.6584 113.27 52.5384C113.574 52.4184 113.91 52.3584 114.278 52.3584ZM120.789 58.5984C120.237 58.5984 119.733 58.4664 119.277 58.2024C118.829 57.9384 118.473 57.5744 118.209 57.1104C117.945 56.6384 117.813 56.0984 117.813 55.4904C117.813 54.8664 117.941 54.3224 118.197 53.8584C118.461 53.3864 118.813 53.0184 119.253 52.7544C119.701 52.4904 120.213 52.3584 120.789 52.3584C121.293 52.3584 121.717 52.4424 122.061 52.6104C122.405 52.7704 122.677 52.9944 122.877 53.2824C123.077 53.5624 123.221 53.8904 123.309 54.2664C123.405 54.6424 123.453 55.0504 123.453 55.4904C123.453 55.8184 123.405 56.1664 123.309 56.5344C123.213 56.8944 123.061 57.2304 122.853 57.5424C122.653 57.8544 122.381 58.1104 122.037 58.3104C121.701 58.5024 121.285 58.5984 120.789 58.5984ZM121.197 57.4944C121.645 57.4944 122.025 57.4104 122.337 57.2424C122.657 57.0664 122.897 56.8264 123.057 56.5224C123.225 56.2184 123.309 55.8744 123.309 55.4904C123.309 55.0664 123.225 54.7064 123.057 54.4104C122.889 54.1064 122.649 53.8704 122.337 53.7024C122.025 53.5344 121.645 53.4504 121.197 53.4504C120.557 53.4504 120.061 53.6424 119.709 54.0264C119.357 54.4024 119.181 54.8904 119.181 55.4904C119.181 55.8824 119.265 56.2304 119.433 56.5344C119.609 56.8384 119.849 57.0744 120.153 57.2424C120.457 57.4104 120.805 57.4944 121.197 57.4944ZM123.309 50.0904H124.653V58.4664H123.405C123.389 58.2824 123.369 58.0544 123.345 57.7824C123.321 57.5104 123.309 57.2664 123.309 57.0504V50.0904ZM127.912 49.9584V51.2424H126.316V49.9584H127.912ZM126.436 52.4904H127.78V58.4664H126.436V52.4904ZM129.375 52.4904H130.707V58.4664H129.375V52.4904ZM133.227 52.3584C133.571 52.3584 133.887 52.4064 134.175 52.5024C134.471 52.5984 134.723 52.7464 134.931 52.9464C135.147 53.1384 135.311 53.3784 135.423 53.6664C135.543 53.9544 135.603 54.2944 135.603 54.6864V58.4664H134.271V54.9504C134.271 54.4624 134.151 54.1024 133.911 53.8704C133.679 53.6304 133.311 53.5104 132.807 53.5104C132.423 53.5104 132.071 53.5944 131.751 53.7624C131.439 53.9224 131.183 54.1344 130.983 54.3984C130.783 54.6544 130.667 54.9384 130.635 55.2504L130.623 54.6024C130.663 54.3064 130.751 54.0264 130.887 53.7624C131.023 53.4904 131.203 53.2504 131.427 53.0424C131.651 52.8264 131.915 52.6584 132.219 52.5384C132.523 52.4184 132.859 52.3584 133.227 52.3584ZM139.739 57.5424C139.179 57.5424 138.671 57.4424 138.215 57.2424C137.767 57.0424 137.411 56.7504 137.147 56.3664C136.891 55.9824 136.763 55.5224 136.763 54.9864C136.763 54.4504 136.887 53.9864 137.135 53.5944C137.391 53.2024 137.743 52.8984 138.191 52.6824C138.647 52.4664 139.163 52.3584 139.739 52.3584C139.907 52.3584 140.067 52.3704 140.219 52.3944C140.379 52.4184 140.531 52.4504 140.675 52.4904L143.471 52.5024V53.6184C143.087 53.6264 142.699 53.5744 142.307 53.4624C141.923 53.3424 141.583 53.2184 141.287 53.0904L141.251 53.0184C141.523 53.1544 141.767 53.3224 141.983 53.5224C142.207 53.7144 142.383 53.9344 142.511 54.1824C142.639 54.4304 142.703 54.7104 142.703 55.0224C142.703 55.5504 142.575 56.0024 142.319 56.3784C142.071 56.7544 141.723 57.0424 141.275 57.2424C140.835 57.4424 140.323 57.5424 139.739 57.5424ZM141.659 60.9024V60.6264C141.659 60.2344 141.543 59.9584 141.311 59.7984C141.079 59.6384 140.755 59.5584 140.339 59.5584H138.719C138.399 59.5584 138.123 59.5304 137.891 59.4744C137.667 59.4264 137.487 59.3504 137.351 59.2464C137.215 59.1504 137.115 59.0344 137.051 58.8984C136.987 58.7704 136.955 58.6264 136.955 58.4664C136.955 58.1464 137.051 57.9064 137.243 57.7464C137.443 57.5864 137.703 57.4824 138.023 57.4344C138.351 57.3864 138.695 57.3784 139.055 57.4104L139.739 57.5424C139.267 57.5584 138.907 57.6024 138.659 57.6744C138.419 57.7384 138.299 57.8704 138.299 58.0704C138.299 58.1904 138.347 58.2864 138.443 58.3584C138.539 58.4304 138.675 58.4664 138.851 58.4664H140.555C141.043 58.4664 141.471 58.5224 141.839 58.6344C142.207 58.7544 142.491 58.9504 142.691 59.2224C142.899 59.5024 143.003 59.8824 143.003 60.3624V60.9024H141.659ZM139.739 56.4984C140.059 56.4984 140.343 56.4384 140.591 56.3184C140.839 56.1984 141.035 56.0264 141.179 55.8024C141.323 55.5784 141.395 55.3064 141.395 54.9864C141.395 54.6664 141.323 54.3904 141.179 54.1584C141.035 53.9264 140.839 53.7504 140.591 53.6304C140.343 53.5104 140.059 53.4504 139.739 53.4504C139.427 53.4504 139.143 53.5104 138.887 53.6304C138.639 53.7504 138.443 53.9264 138.299 54.1584C138.155 54.3824 138.083 54.6584 138.083 54.9864C138.083 55.3064 138.155 55.5784 138.299 55.8024C138.443 56.0264 138.639 56.1984 138.887 56.3184C139.135 56.4384 139.419 56.4984 139.739 56.4984ZM144.275 56.4984H145.511C145.575 56.8024 145.739 57.0504 146.003 57.2424C146.267 57.4264 146.623 57.5184 147.071 57.5184C147.359 57.5184 147.583 57.4864 147.743 57.4224C147.911 57.3584 148.027 57.2704 148.091 57.1584C148.163 57.0464 148.199 56.9184 148.199 56.7744C148.199 56.5984 148.147 56.4624 148.043 56.3664C147.947 56.2704 147.803 56.1904 147.611 56.1264C147.419 56.0624 147.179 56.0064 146.891 55.9584C146.595 55.8864 146.303 55.8064 146.015 55.7184C145.727 55.6304 145.467 55.5224 145.235 55.3944C145.003 55.2584 144.819 55.0904 144.683 54.8904C144.555 54.6824 144.491 54.4304 144.491 54.1344C144.491 53.8624 144.551 53.6184 144.671 53.4024C144.799 53.1784 144.975 52.9904 145.199 52.8384C145.423 52.6864 145.687 52.5704 145.991 52.4904C146.295 52.4024 146.627 52.3584 146.987 52.3584C147.507 52.3584 147.939 52.4424 148.283 52.6104C148.635 52.7784 148.899 53.0144 149.075 53.3184C149.259 53.6224 149.351 53.9704 149.351 54.3624H148.175C148.111 54.0424 147.987 53.8104 147.803 53.6664C147.619 53.5224 147.343 53.4504 146.975 53.4504C146.607 53.4504 146.327 53.5144 146.135 53.6424C145.943 53.7704 145.847 53.9464 145.847 54.1704C145.847 54.3384 145.907 54.4744 146.027 54.5784C146.155 54.6744 146.335 54.7584 146.567 54.8304C146.799 54.9024 147.071 54.9744 147.383 55.0464C147.671 55.1264 147.943 55.2104 148.199 55.2984C148.455 55.3784 148.683 55.4824 148.883 55.6104C149.091 55.7304 149.255 55.8904 149.375 56.0904C149.495 56.2904 149.555 56.5384 149.555 56.8344C149.555 57.2024 149.455 57.5184 149.255 57.7824C149.063 58.0464 148.783 58.2504 148.415 58.3944C148.047 58.5304 147.603 58.5984 147.083 58.5984C146.627 58.5984 146.231 58.5464 145.895 58.4424C145.567 58.3384 145.291 58.2024 145.067 58.0344C144.851 57.8664 144.683 57.6864 144.563 57.4944C144.443 57.3024 144.359 57.1184 144.311 56.9424C144.271 56.7664 144.259 56.6184 144.275 56.4984Z" fill="#228B22"/>
<path d="M61.3963 67.0504C72.0045 67.0504 80.6041 58.8608 80.6041 48.7584C80.6041 38.656 72.0045 30.4664 61.3963 30.4664C50.7881 30.4664 42.1885 38.656 42.1885 48.7584C42.1885 58.8608 50.7881 67.0504 61.3963 67.0504Z" fill="#23A323"/>
<path d="M54.6177 45.2616L56.3125 45.2616L56.3125 40.4196L58.0073 40.4196L60.9054 45.2616L64.7865 45.2616L64.7865 40.4196L66.4813 40.4196L66.4813 45.2616L68.1761 45.2616L68.1761 46.8756L66.4813 46.8756L66.4813 48.4896L68.1761 48.4896L68.1761 50.1036L66.4813 50.1036L66.4813 54.9456L64.7865 54.9456L61.8799 50.1036L58.0073 50.1036L58.0073 54.9456L56.3125 54.9456L56.3125 50.1036L54.6177 50.1036L54.6177 48.4896L56.3125 48.4896L56.3125 46.8756L54.6177 46.8756L54.6177 45.2616ZM58.0073 45.2616L58.9649 45.2616L58.0073 43.6718L58.0073 45.2616ZM58.0073 46.8756L58.0073 48.4896L60.9054 48.4896L59.9394 46.8756L58.0073 46.8756ZM64.7865 51.7176L64.7865 50.1036L63.812 50.1036L64.7865 51.7176ZM61.8715 46.8756L62.846 48.4896L64.7865 48.4896L64.7865 46.8756L61.8715 46.8756Z" fill="white"/>
</g>
<defs>
<filter id="filter0_d_4265_41404" x="0.421387" y="0.466431" width="314.129" height="111" filterUnits="userSpaceOnUse" color-interpolation-filters="sRGB">
<feFlood flood-opacity="0" result="BackgroundImageFix"/>
<feColorMatrix in="SourceAlpha" type="matrix" values="0 0 0 0 0 0 0 0 0 0 0 0 0 0 0 0 0 0 127 0" result="hardAlpha"/>
<feOffset dy="8"/>
<feGaussianBlur stdDeviation="10"/>
<feComposite in2="hardAlpha" operator="out"/>
<feColorMatrix type="matrix" values="0 0 0 0 0 0 0 0 0 0 0 0 0 0 0 0 0 0 0.01 0"/>
<feBlend mode="normal" in2="BackgroundImageFix" result="effect1_dropShadow_4265_41404"/>
<feBlend mode="normal" in="SourceGraphic" in2="effect1_dropShadow_4265_41404" result="shape"/>
</filter>
</defs>
</svg>
