<svg width="799" height="201" viewBox="0 0 799 201" fill="none" xmlns="http://www.w3.org/2000/svg">
<g clip-path="url(#clip0_6580_65835)">
<path d="M23.2166 51.9481C20.1733 51.9481 17.4233 51.5448 14.9666 50.7381C12.5099 49.9314 10.4016 48.7581 8.6416 47.2181C6.91827 45.6414 5.57994 43.7164 4.6266 41.4431C3.70994 39.1698 3.2516 36.6031 3.2516 33.7431C3.2516 30.8464 3.7466 28.2431 4.7366 25.9331C5.7266 23.6231 7.13827 21.6614 8.9716 20.0481C10.8049 18.3981 12.9866 17.1514 15.5166 16.3081C18.0466 15.4281 20.8333 14.9881 23.8766 14.9881C27.4333 14.9881 30.5133 15.5381 33.1166 16.6381C35.7199 17.7381 37.7916 19.2781 39.3316 21.2581C40.8716 23.2014 41.7516 25.5114 41.9716 28.1881H36.1966C35.7199 26.6114 34.9316 25.2548 33.8316 24.1181C32.7683 22.9814 31.3933 22.1014 29.7066 21.4781C28.0566 20.8181 26.1133 20.4881 23.8766 20.4881C20.9433 20.4881 18.3949 21.0564 16.2316 22.1931C14.1049 23.2931 12.4733 24.8514 11.3366 26.8681C10.1999 28.8481 9.6316 31.1398 9.6316 33.7431C9.6316 36.3464 10.1266 38.6014 11.1166 40.5081C12.1433 42.3781 13.6833 43.8448 15.7366 44.9081C17.7899 45.9348 20.3383 46.4481 23.3816 46.4481C25.7283 46.4481 27.7816 46.0998 29.5416 45.4031C31.3383 44.6698 32.8233 43.6614 33.9966 42.3781C35.1699 41.0948 35.9949 39.6098 36.4716 37.9231L39.2766 37.2631C38.7633 41.9931 37.0766 45.6231 34.2166 48.1531C31.3933 50.6831 27.7266 51.9481 23.2166 51.9481ZM37.7916 51.2881C37.7916 50.1148 37.8466 48.7948 37.9566 47.3281C38.0666 45.8248 38.1949 44.3031 38.3416 42.7631C38.5249 41.1864 38.6899 39.7748 38.8366 38.5281H24.0966V34.0181H43.3466V51.2881H37.7916ZM73.0341 42.2681H78.9191C78.6258 44.1381 77.8925 45.8064 76.7191 47.2731C75.5825 48.7031 74.0241 49.8398 72.0441 50.6831C70.0641 51.4898 67.6991 51.8931 64.9491 51.8931C61.8325 51.8931 59.0458 51.3248 56.5891 50.1881C54.1325 49.0148 52.2075 47.3648 50.8141 45.2381C49.4208 43.1114 48.7241 40.5814 48.7241 37.6481C48.7241 34.7514 49.4025 32.2214 50.7591 30.0581C52.1158 27.8948 53.9858 26.2264 56.3691 25.0531C58.7891 23.8798 61.5758 23.2931 64.7291 23.2931C67.9925 23.2931 70.7058 23.8798 72.8691 25.0531C75.0691 26.1898 76.7008 27.9131 77.7641 30.2231C78.8275 32.4964 79.2675 35.3748 79.0841 38.8581H54.9391C55.1225 40.3981 55.6175 41.7914 56.4241 43.0381C57.2675 44.2481 58.4041 45.2014 59.8341 45.8981C61.2641 46.5581 62.9325 46.8881 64.8391 46.8881C66.9658 46.8881 68.7441 46.4664 70.1741 45.6231C71.6408 44.7798 72.5941 43.6614 73.0341 42.2681ZM64.5641 28.2431C62.0708 28.2431 60.0175 28.8664 58.4041 30.1131C56.7908 31.3231 55.7458 32.8814 55.2691 34.7881H72.9241C72.7775 32.7348 71.9525 31.1398 70.4491 30.0031C68.9458 28.8298 66.9841 28.2431 64.5641 28.2431ZM82.1745 23.8981H101.534V28.9031H82.1745V23.8981ZM88.7745 16.5281H94.9345V51.2881H88.7745V16.5281ZM1.8766 90.8981H21.2366V95.9031H1.8766V90.8981ZM8.4766 83.5281H14.6366V118.288H8.4766V83.5281ZM49.0279 118.288V102.448C49.0279 100.981 48.7713 99.7714 48.2579 98.8181C47.7813 97.8281 47.0296 97.0764 46.0029 96.5631C44.9763 96.0498 43.6196 95.7931 41.9329 95.7931C40.2463 95.7931 38.7063 96.1598 37.3129 96.8931C35.9196 97.5898 34.7829 98.5248 33.9029 99.6981C33.0229 100.871 32.5096 102.173 32.3629 103.603L32.3079 100.523C32.4913 99.2031 32.8946 97.9381 33.5179 96.7281C34.1413 95.4814 34.9663 94.3814 35.9929 93.4281C37.0196 92.4748 38.2296 91.7231 39.6229 91.1731C41.0163 90.5864 42.5563 90.2931 44.2429 90.2931C45.8196 90.2931 47.2679 90.5131 48.5879 90.9531C49.9446 91.3931 51.0996 92.0531 52.0529 92.9331C53.0429 93.7764 53.7946 94.8398 54.3079 96.1231C54.8579 97.3698 55.1329 98.8181 55.1329 100.468V118.288H49.0279ZM26.5879 118.288V79.8981H32.6929V118.288H26.5879ZM61.9168 90.8981H68.0218V118.288H61.9168V90.8981ZM77.9218 96.1231C75.9418 96.1231 74.2368 96.5448 72.8068 97.3881C71.4135 98.2314 70.2952 99.2581 69.4518 100.468C68.6085 101.678 68.0218 102.851 67.6918 103.988L67.6368 100.908C67.6735 100.505 67.8018 99.8998 68.0218 99.0931C68.2418 98.2498 68.5718 97.3331 69.0118 96.3431C69.4885 95.3531 70.1118 94.3998 70.8818 93.4831C71.6885 92.5298 72.6602 91.7598 73.7968 91.1731C74.9702 90.5864 76.3452 90.2931 77.9218 90.2931V96.1231ZM97.1168 118.893C94.0735 118.893 91.3418 118.343 88.9218 117.243C86.5018 116.143 84.5952 114.53 83.2018 112.403C81.8085 110.276 81.1118 107.691 81.1118 104.648C81.1118 101.641 81.8085 99.0748 83.2018 96.9481C84.5952 94.7848 86.5018 93.1348 88.9218 91.9981C91.3418 90.8614 94.0735 90.2931 97.1168 90.2931C100.16 90.2931 102.874 90.8614 105.257 91.9981C107.64 93.1348 109.51 94.7848 110.867 96.9481C112.26 99.0748 112.957 101.641 112.957 104.648C112.957 107.691 112.26 110.276 110.867 112.403C109.51 114.53 107.64 116.143 105.257 117.243C102.874 118.343 100.16 118.893 97.1168 118.893ZM97.1168 113.888C98.8768 113.888 100.49 113.54 101.957 112.843C103.424 112.146 104.579 111.101 105.422 109.708C106.302 108.315 106.742 106.628 106.742 104.648C106.742 102.668 106.302 100.981 105.422 99.5881C104.579 98.1948 103.424 97.1314 101.957 96.3981C100.527 95.6281 98.9135 95.2431 97.1168 95.2431C95.3202 95.2431 93.6885 95.6098 92.2218 96.3431C90.7552 97.0764 89.5635 98.1398 88.6468 99.5331C87.7668 100.926 87.3268 102.631 87.3268 104.648C87.3268 106.628 87.7668 108.315 88.6468 109.708C89.5268 111.101 90.7002 112.146 92.1668 112.843C93.6702 113.54 95.3202 113.888 97.1168 113.888ZM146.966 118.288H140.861V90.8981H146.966V118.288ZM141.191 105.253L141.246 107.013C141.172 107.49 141.007 108.205 140.751 109.158C140.531 110.111 140.146 111.156 139.596 112.293C139.082 113.393 138.386 114.456 137.506 115.483C136.662 116.473 135.599 117.298 134.316 117.958C133.032 118.581 131.474 118.893 129.641 118.893C128.321 118.893 126.982 118.71 125.626 118.343C124.306 118.013 123.096 117.445 121.996 116.638C120.932 115.831 120.071 114.731 119.411 113.338C118.751 111.945 118.421 110.185 118.421 108.058V90.8981H124.526V106.903C124.526 108.626 124.801 109.983 125.351 110.973C125.937 111.926 126.744 112.605 127.771 113.008C128.797 113.411 129.989 113.613 131.346 113.613C133.289 113.613 134.939 113.173 136.296 112.293C137.652 111.413 138.734 110.331 139.541 109.048C140.384 107.728 140.934 106.463 141.191 105.253ZM165.919 114.053C163.352 114.053 161.024 113.595 158.934 112.678C156.88 111.761 155.249 110.423 154.039 108.663C152.865 106.903 152.279 104.795 152.279 102.338C152.279 99.8814 152.847 97.7548 153.984 95.9581C155.157 94.1614 156.77 92.7681 158.824 91.7781C160.914 90.7881 163.279 90.2931 165.919 90.2931C166.689 90.2931 167.422 90.3481 168.119 90.4581C168.852 90.5681 169.549 90.7148 170.209 90.8981L183.024 90.9531V96.0681C181.264 96.1048 179.485 95.8664 177.689 95.3531C175.929 94.8031 174.37 94.2348 173.014 93.6481L172.849 93.3181C174.095 93.9414 175.214 94.7114 176.204 95.6281C177.23 96.5081 178.037 97.5164 178.624 98.6531C179.21 99.7898 179.504 101.073 179.504 102.503C179.504 104.923 178.917 106.995 177.744 108.718C176.607 110.441 175.012 111.761 172.959 112.678C170.942 113.595 168.595 114.053 165.919 114.053ZM174.719 129.453V128.188C174.719 126.391 174.187 125.126 173.124 124.393C172.06 123.66 170.575 123.293 168.669 123.293H161.244C159.777 123.293 158.512 123.165 157.449 122.908C156.422 122.688 155.597 122.34 154.974 121.863C154.35 121.423 153.892 120.891 153.599 120.268C153.305 119.681 153.159 119.021 153.159 118.288C153.159 116.821 153.599 115.721 154.479 114.988C155.395 114.255 156.587 113.778 158.054 113.558C159.557 113.338 161.134 113.301 162.784 113.448L165.919 114.053C163.755 114.126 162.105 114.328 160.969 114.658C159.869 114.951 159.319 115.556 159.319 116.473C159.319 117.023 159.539 117.463 159.979 117.793C160.419 118.123 161.042 118.288 161.849 118.288H169.659C171.895 118.288 173.857 118.545 175.544 119.058C177.23 119.608 178.532 120.506 179.449 121.753C180.402 123.036 180.879 124.778 180.879 126.978V129.453H174.719ZM165.919 109.268C167.385 109.268 168.687 108.993 169.824 108.443C170.96 107.893 171.859 107.105 172.519 106.078C173.179 105.051 173.509 103.805 173.509 102.338C173.509 100.871 173.179 99.6064 172.519 98.5431C171.859 97.4798 170.96 96.6731 169.824 96.1231C168.687 95.5731 167.385 95.2981 165.919 95.2981C164.489 95.2981 163.187 95.5731 162.014 96.1231C160.877 96.6731 159.979 97.4798 159.319 98.5431C158.659 99.5698 158.329 100.835 158.329 102.338C158.329 103.805 158.659 105.051 159.319 106.078C159.979 107.105 160.877 107.893 162.014 108.443C163.15 108.993 164.452 109.268 165.919 109.268ZM210.913 118.288V102.448C210.913 100.981 210.656 99.7714 210.143 98.8181C209.666 97.8281 208.914 97.0764 207.888 96.5631C206.861 96.0498 205.504 95.7931 203.818 95.7931C202.131 95.7931 200.591 96.1598 199.198 96.8931C197.804 97.5898 196.668 98.5248 195.788 99.6981C194.908 100.871 194.394 102.173 194.248 103.603L194.193 100.523C194.376 99.2031 194.779 97.9381 195.403 96.7281C196.026 95.4814 196.851 94.3814 197.878 93.4281C198.904 92.4748 200.114 91.7231 201.508 91.1731C202.901 90.5864 204.441 90.2931 206.128 90.2931C207.704 90.2931 209.153 90.5131 210.473 90.9531C211.829 91.3931 212.984 92.0531 213.938 92.9331C214.928 93.7764 215.679 94.8398 216.193 96.1231C216.743 97.3698 217.018 98.8181 217.018 100.468V118.288H210.913ZM188.473 118.288V79.8981H194.578V118.288H188.473ZM251.052 118.893C248.009 118.893 245.277 118.343 242.857 117.243C240.437 116.143 238.531 114.53 237.137 112.403C235.744 110.276 235.047 107.691 235.047 104.648C235.047 101.641 235.744 99.0748 237.137 96.9481C238.531 94.7848 240.437 93.1348 242.857 91.9981C245.277 90.8614 248.009 90.2931 251.052 90.2931C254.096 90.2931 256.809 90.8614 259.192 91.9981C261.576 93.1348 263.446 94.7848 264.802 96.9481C266.196 99.0748 266.892 101.641 266.892 104.648C266.892 107.691 266.196 110.276 264.802 112.403C263.446 114.53 261.576 116.143 259.192 117.243C256.809 118.343 254.096 118.893 251.052 118.893ZM251.052 113.888C252.812 113.888 254.426 113.54 255.892 112.843C257.359 112.146 258.514 111.101 259.357 109.708C260.237 108.315 260.677 106.628 260.677 104.648C260.677 102.668 260.237 100.981 259.357 99.5881C258.514 98.1948 257.359 97.1314 255.892 96.3981C254.462 95.6281 252.849 95.2431 251.052 95.2431C249.256 95.2431 247.624 95.6098 246.157 96.3431C244.691 97.0764 243.499 98.1398 242.582 99.5331C241.702 100.926 241.262 102.631 241.262 104.648C241.262 106.628 241.702 108.315 242.582 109.708C243.462 111.101 244.636 112.146 246.102 112.843C247.606 113.54 249.256 113.888 251.052 113.888ZM300.901 118.288H294.796V90.8981H300.901V118.288ZM295.126 105.253L295.181 107.013C295.108 107.49 294.943 108.205 294.686 109.158C294.466 110.111 294.081 111.156 293.531 112.293C293.018 113.393 292.321 114.456 291.441 115.483C290.598 116.473 289.535 117.298 288.251 117.958C286.968 118.581 285.41 118.893 283.576 118.893C282.256 118.893 280.918 118.71 279.561 118.343C278.241 118.013 277.031 117.445 275.931 116.638C274.868 115.831 274.006 114.731 273.346 113.338C272.686 111.945 272.356 110.185 272.356 108.058V90.8981H278.461V106.903C278.461 108.626 278.736 109.983 279.286 110.973C279.873 111.926 280.68 112.605 281.706 113.008C282.733 113.411 283.925 113.613 285.281 113.613C287.225 113.613 288.875 113.173 290.231 112.293C291.588 111.413 292.67 110.331 293.476 109.048C294.32 107.728 294.87 106.463 295.126 105.253ZM307.644 90.8981H313.749V118.288H307.644V90.8981ZM323.649 96.1231C321.669 96.1231 319.964 96.5448 318.534 97.3881C317.141 98.2314 316.023 99.2581 315.179 100.468C314.336 101.678 313.749 102.851 313.419 103.988L313.364 100.908C313.401 100.505 313.529 99.8998 313.749 99.0931C313.969 98.2498 314.299 97.3331 314.739 96.3431C315.216 95.3531 315.839 94.3998 316.609 93.4831C317.416 92.5298 318.388 91.7598 319.524 91.1731C320.698 90.5864 322.073 90.2931 323.649 90.2931V96.1231Z" fill="#041004"/>
<path d="M134.797 30.0581V25.1081H147.557V30.0581H134.797ZM142.332 25.1081H148.437V51.2881H142.332V25.1081ZM122.752 51.2881V22.3581L128.912 22.9081V51.2881H122.752ZM132.872 12.8981H148.437V18.1781H133.972C132.945 18.1414 132.047 18.2514 131.277 18.5081C130.543 18.7648 129.957 19.2414 129.517 19.9381C129.113 20.6348 128.912 21.6248 128.912 22.9081L122.752 22.3581C122.752 20.1581 123.155 18.3614 123.962 16.9681C124.768 15.5748 125.923 14.5481 127.427 13.8881C128.967 13.2281 130.782 12.8981 132.872 12.8981ZM117.087 25.1081H136.942V30.0581H117.087V25.1081ZM155.159 23.8981H161.264V51.2881H155.159V23.8981ZM172.814 23.2931C174.391 23.2931 175.839 23.5131 177.159 23.9531C178.516 24.3931 179.671 25.0714 180.624 25.9881C181.614 26.8681 182.366 27.9681 182.879 29.2881C183.429 30.6081 183.704 32.1664 183.704 33.9631V51.2881H177.599V35.1731C177.599 32.9364 177.049 31.2864 175.949 30.2231C174.886 29.1231 173.199 28.5731 170.889 28.5731C169.129 28.5731 167.516 28.9581 166.049 29.7281C164.619 30.4614 163.446 31.4331 162.529 32.6431C161.612 33.8164 161.081 35.1181 160.934 36.5481L160.879 33.5781C161.062 32.2214 161.466 30.9381 162.089 29.7281C162.712 28.4814 163.537 27.3814 164.564 26.4281C165.591 25.4381 166.801 24.6681 168.194 24.1181C169.587 23.5681 171.127 23.2931 172.814 23.2931ZM202.657 51.8931C200.164 51.8931 197.872 51.2881 195.782 50.0781C193.729 48.8681 192.079 47.1998 190.832 45.0731C189.622 42.9098 189.017 40.4348 189.017 37.6481C189.017 34.7881 189.64 32.2948 190.887 30.1681C192.134 28.0048 193.82 26.3181 195.947 25.1081C198.074 23.8981 200.457 23.2931 203.097 23.2931C206.03 23.2931 208.359 23.9348 210.082 25.2181C211.805 26.5014 213.034 28.2248 213.767 30.3881C214.5 32.5514 214.867 34.9714 214.867 37.6481C214.867 39.1514 214.647 40.7464 214.207 42.4331C213.767 44.0831 213.07 45.6231 212.117 47.0531C211.2 48.4831 209.954 49.6564 208.377 50.5731C206.837 51.4531 204.93 51.8931 202.657 51.8931ZM204.527 46.8331C206.58 46.8331 208.322 46.4481 209.752 45.6781C211.219 44.8714 212.319 43.7714 213.052 42.3781C213.822 40.9848 214.207 39.4081 214.207 37.6481C214.207 35.7048 213.822 34.0548 213.052 32.6981C212.282 31.3048 211.182 30.2414 209.752 29.5081C208.322 28.7381 206.58 28.3531 204.527 28.3531C201.594 28.3531 199.32 29.2148 197.707 30.9381C196.094 32.6614 195.287 34.8981 195.287 37.6481C195.287 39.4448 195.672 41.0398 196.442 42.4331C197.249 43.8264 198.349 44.9081 199.742 45.6781C201.135 46.4481 202.73 46.8331 204.527 46.8331ZM214.207 23.8981H220.367V51.2881H214.647C214.647 51.2881 214.61 50.9398 214.537 50.2431C214.464 49.5464 214.39 48.7031 214.317 47.7131C214.244 46.6864 214.207 45.7148 214.207 44.7981V23.8981ZM227.078 23.8981H233.183V51.2881H227.078V23.8981ZM244.733 23.2931C246.31 23.2931 247.758 23.5131 249.078 23.9531C250.435 24.3931 251.59 25.0714 252.543 25.9881C253.533 26.8681 254.285 27.9681 254.798 29.2881C255.348 30.6081 255.623 32.1664 255.623 33.9631V51.2881H249.518V35.1731C249.518 32.9364 248.968 31.2864 247.868 30.2231C246.805 29.1231 245.118 28.5731 242.808 28.5731C241.048 28.5731 239.435 28.9581 237.968 29.7281C236.538 30.4614 235.365 31.4331 234.448 32.6431C233.531 33.8164 233 35.1181 232.853 36.5481L232.798 33.5781C232.981 32.2214 233.385 30.9381 234.008 29.7281C234.631 28.4814 235.456 27.3814 236.483 26.4281C237.51 25.4381 238.72 24.6681 240.113 24.1181C241.506 23.5681 243.046 23.2931 244.733 23.2931ZM291.846 40.6731C291.626 43.0198 290.874 45.0364 289.591 46.7231C288.308 48.4098 286.584 49.6931 284.421 50.5731C282.294 51.4531 279.838 51.8931 277.051 51.8931C274.044 51.8931 271.313 51.3431 268.856 50.2431C266.436 49.1431 264.511 47.5298 263.081 45.4031C261.651 43.2764 260.936 40.6914 260.936 37.6481C260.936 34.6048 261.651 32.0198 263.081 29.8931C264.511 27.7664 266.436 26.1348 268.856 24.9981C271.313 23.8614 274.044 23.2931 277.051 23.2931C279.838 23.2931 282.294 23.7514 284.421 24.6681C286.548 25.5481 288.253 26.8131 289.536 28.4631C290.819 30.1131 291.571 32.1114 291.791 34.4581H286.181C285.558 32.5148 284.421 31.0114 282.771 29.9481C281.158 28.8481 279.251 28.2981 277.051 28.2981C275.254 28.2981 273.604 28.6648 272.101 29.3981C270.598 30.0948 269.388 31.1398 268.471 32.5331C267.591 33.8898 267.151 35.5948 267.151 37.6481C267.151 39.6648 267.591 41.3698 268.471 42.7631C269.388 44.1564 270.598 45.2014 272.101 45.8981C273.604 46.5581 275.254 46.8881 277.051 46.8881C279.471 46.8881 281.451 46.3564 282.991 45.2931C284.568 44.1931 285.649 42.6531 286.236 40.6731H291.846ZM304.374 12.2931V18.1781H297.059V12.2931H304.374ZM297.609 23.8981H303.769V51.2881H297.609V23.8981ZM323.292 51.8931C320.799 51.8931 318.507 51.2881 316.417 50.0781C314.364 48.8681 312.714 47.1998 311.467 45.0731C310.257 42.9098 309.652 40.4348 309.652 37.6481C309.652 34.7881 310.275 32.2948 311.522 30.1681C312.769 28.0048 314.455 26.3181 316.582 25.1081C318.709 23.8981 321.092 23.2931 323.732 23.2931C326.665 23.2931 328.994 23.9348 330.717 25.2181C332.44 26.5014 333.669 28.2248 334.402 30.3881C335.135 32.5514 335.502 34.9714 335.502 37.6481C335.502 39.1514 335.282 40.7464 334.842 42.4331C334.402 44.0831 333.705 45.6231 332.752 47.0531C331.835 48.4831 330.589 49.6564 329.012 50.5731C327.472 51.4531 325.565 51.8931 323.292 51.8931ZM325.162 46.8331C327.215 46.8331 328.957 46.4481 330.387 45.6781C331.854 44.8714 332.954 43.7714 333.687 42.3781C334.457 40.9848 334.842 39.4081 334.842 37.6481C334.842 35.7048 334.457 34.0548 333.687 32.6981C332.917 31.3048 331.817 30.2414 330.387 29.5081C328.957 28.7381 327.215 28.3531 325.162 28.3531C322.229 28.3531 319.955 29.2148 318.342 30.9381C316.729 32.6614 315.922 34.8981 315.922 37.6481C315.922 39.4448 316.307 41.0398 317.077 42.4331C317.884 43.8264 318.984 44.9081 320.377 45.6781C321.77 46.4481 323.365 46.8331 325.162 46.8331ZM334.842 23.8981H341.002V51.2881H335.282C335.282 51.2881 335.245 50.9398 335.172 50.2431C335.099 49.5464 335.025 48.7031 334.952 47.7131C334.879 46.6864 334.842 45.7148 334.842 44.7981V23.8981ZM348.263 12.8981H354.368V51.2881H348.263V12.8981ZM397.341 42.2681H403.226C402.932 44.1381 402.199 45.8064 401.026 47.2731C399.889 48.7031 398.331 49.8398 396.351 50.6831C394.371 51.4898 392.006 51.8931 389.256 51.8931C386.139 51.8931 383.352 51.3248 380.896 50.1881C378.439 49.0148 376.514 47.3648 375.121 45.2381C373.727 43.1114 373.031 40.5814 373.031 37.6481C373.031 34.7514 373.709 32.2214 375.066 30.0581C376.422 27.8948 378.292 26.2264 380.676 25.0531C383.096 23.8798 385.882 23.2931 389.036 23.2931C392.299 23.2931 395.012 23.8798 397.176 25.0531C399.376 26.1898 401.007 27.9131 402.071 30.2231C403.134 32.4964 403.574 35.3748 403.391 38.8581H379.246C379.429 40.3981 379.924 41.7914 380.731 43.0381C381.574 44.2481 382.711 45.2014 384.141 45.8981C385.571 46.5581 387.239 46.8881 389.146 46.8881C391.272 46.8881 393.051 46.4664 394.481 45.6231C395.947 44.7798 396.901 43.6614 397.341 42.2681ZM388.871 28.2431C386.377 28.2431 384.324 28.8664 382.711 30.1131C381.097 31.3231 380.052 32.8814 379.576 34.7881H397.231C397.084 32.7348 396.259 31.1398 394.756 30.0031C393.252 28.8298 391.291 28.2431 388.871 28.2431ZM408.836 23.8981H414.941V51.2881H408.836V23.8981ZM426.491 23.2931C428.067 23.2931 429.516 23.5131 430.836 23.9531C432.192 24.3931 433.347 25.0714 434.301 25.9881C435.291 26.8681 436.042 27.9681 436.556 29.2881C437.106 30.6081 437.381 32.1664 437.381 33.9631V51.2881H431.276V35.1731C431.276 32.9364 430.726 31.2864 429.626 30.2231C428.562 29.1231 426.876 28.5731 424.566 28.5731C422.806 28.5731 421.192 28.9581 419.726 29.7281C418.296 30.4614 417.122 31.4331 416.206 32.6431C415.289 33.8164 414.757 35.1181 414.611 36.5481L414.556 33.5781C414.739 32.2214 415.142 30.9381 415.766 29.7281C416.389 28.4814 417.214 27.3814 418.241 26.4281C419.267 25.4381 420.477 24.6681 421.871 24.1181C423.264 23.5681 424.804 23.2931 426.491 23.2931ZM448.326 23.2931C449.939 23.2931 451.406 23.5131 452.726 23.9531C454.046 24.3931 455.182 25.0714 456.136 25.9881C457.126 26.8681 457.896 27.9681 458.446 29.2881C458.996 30.6081 459.271 32.1664 459.271 33.9631V51.2881H453.111V35.1731C453.111 32.9364 452.561 31.2864 451.461 30.2231C450.397 29.1231 448.711 28.5731 446.401 28.5731C444.641 28.5731 443.027 28.9581 441.561 29.7281C440.131 30.4614 438.957 31.4331 438.041 32.6431C437.161 33.8164 436.647 35.1181 436.501 36.5481L436.391 33.4681C436.574 32.1481 436.996 30.8831 437.656 29.6731C438.316 28.4264 439.159 27.3264 440.186 26.3731C441.212 25.4198 442.404 24.6681 443.761 24.1181C445.154 23.5681 446.676 23.2931 448.326 23.2931ZM483.584 51.8931C481.348 51.8931 479.441 51.4531 477.864 50.5731C476.324 49.6931 475.078 48.5381 474.124 47.1081C473.208 45.6414 472.529 44.0831 472.089 42.4331C471.649 40.7464 471.429 39.1514 471.429 37.6481C471.429 35.6314 471.631 33.7614 472.034 32.0381C472.474 30.3148 473.153 28.8114 474.069 27.5281C475.023 26.2081 476.269 25.1814 477.809 24.4481C479.386 23.6781 481.311 23.2931 483.584 23.2931C486.151 23.2931 488.461 23.9164 490.514 25.1631C492.568 26.3731 494.199 28.0598 495.409 30.2231C496.619 32.3498 497.224 34.8248 497.224 37.6481C497.224 40.4714 496.601 42.9648 495.354 45.1281C494.144 47.2548 492.513 48.9231 490.459 50.1331C488.406 51.3064 486.114 51.8931 483.584 51.8931ZM481.769 46.8331C483.603 46.8331 485.216 46.4481 486.609 45.6781C488.003 44.9081 489.084 43.8264 489.854 42.4331C490.624 41.0398 491.009 39.4448 491.009 37.6481C491.009 34.8981 490.203 32.6614 488.589 30.9381C486.976 29.1781 484.703 28.2981 481.769 28.2981C479.936 28.2981 478.286 28.6831 476.819 29.4531C475.353 30.2231 474.198 31.3048 473.354 32.6981C472.511 34.0548 472.089 35.7048 472.089 37.6481C472.089 39.4081 472.474 40.9848 473.244 42.3781C474.014 43.7714 475.114 44.8714 476.544 45.6781C477.974 46.4481 479.716 46.8331 481.769 46.8331ZM465.984 23.8981H471.814L472.089 30.6081V62.2881H465.984V23.8981ZM517.244 51.8931C514.2 51.8931 511.469 51.3431 509.049 50.2431C506.629 49.1431 504.722 47.5298 503.329 45.4031C501.935 43.2764 501.239 40.6914 501.239 37.6481C501.239 34.6414 501.935 32.0748 503.329 29.9481C504.722 27.7848 506.629 26.1348 509.049 24.9981C511.469 23.8614 514.2 23.2931 517.244 23.2931C520.287 23.2931 523 23.8614 525.384 24.9981C527.767 26.1348 529.637 27.7848 530.994 29.9481C532.387 32.0748 533.084 34.6414 533.084 37.6481C533.084 40.6914 532.387 43.2764 530.994 45.4031C529.637 47.5298 527.767 49.1431 525.384 50.2431C523 51.3431 520.287 51.8931 517.244 51.8931ZM517.244 46.8881C519.004 46.8881 520.617 46.5398 522.084 45.8431C523.55 45.1464 524.705 44.1014 525.549 42.7081C526.429 41.3148 526.869 39.6281 526.869 37.6481C526.869 35.6681 526.429 33.9814 525.549 32.5881C524.705 31.1948 523.55 30.1314 522.084 29.3981C520.654 28.6281 519.04 28.2431 517.244 28.2431C515.447 28.2431 513.815 28.6098 512.349 29.3431C510.882 30.0764 509.69 31.1398 508.774 32.5331C507.894 33.9264 507.454 35.6314 507.454 37.6481C507.454 39.6281 507.894 41.3148 508.774 42.7081C509.654 44.1014 510.827 45.1464 512.294 45.8431C513.797 46.5398 515.447 46.8881 517.244 46.8881ZM570.251 46.6681L568.436 46.6131L576.411 23.8981H583.121L572.451 51.2881H566.676L558.151 28.4631H560.076L551.331 51.2881H545.556L535.106 23.8981H541.816L549.571 46.6681H547.756L555.566 23.8981H562.716L570.251 46.6681ZM609.338 42.2681H615.223C614.93 44.1381 614.196 45.8064 613.023 47.2731C611.886 48.7031 610.328 49.8398 608.348 50.6831C606.368 51.4898 604.003 51.8931 601.253 51.8931C598.136 51.8931 595.35 51.3248 592.893 50.1881C590.436 49.0148 588.511 47.3648 587.118 45.2381C585.725 43.1114 585.028 40.5814 585.028 37.6481C585.028 34.7514 585.706 32.2214 587.063 30.0581C588.42 27.8948 590.29 26.2264 592.673 25.0531C595.093 23.8798 597.88 23.2931 601.033 23.2931C604.296 23.2931 607.01 23.8798 609.173 25.0531C611.373 26.1898 613.005 27.9131 614.068 30.2231C615.131 32.4964 615.571 35.3748 615.388 38.8581H591.243C591.426 40.3981 591.921 41.7914 592.728 43.0381C593.571 44.2481 594.708 45.2014 596.138 45.8981C597.568 46.5581 599.236 46.8881 601.143 46.8881C603.27 46.8881 605.048 46.4664 606.478 45.6231C607.945 44.7798 608.898 43.6614 609.338 42.2681ZM600.868 28.2431C598.375 28.2431 596.321 28.8664 594.708 30.1131C593.095 31.3231 592.05 32.8814 591.573 34.7881H609.228C609.081 32.7348 608.256 31.1398 606.753 30.0031C605.25 28.8298 603.288 28.2431 600.868 28.2431ZM620.833 23.8981H626.938V51.2881H620.833V23.8981ZM636.838 29.1231C634.858 29.1231 633.153 29.5448 631.723 30.3881C630.33 31.2314 629.211 32.2581 628.368 33.4681C627.525 34.6781 626.938 35.8514 626.608 36.9881L626.553 33.9081C626.59 33.5048 626.718 32.8998 626.938 32.0931C627.158 31.2498 627.488 30.3331 627.928 29.3431C628.405 28.3531 629.028 27.3998 629.798 26.4831C630.605 25.5298 631.576 24.7598 632.713 24.1731C633.886 23.5864 635.261 23.2931 636.838 23.2931V29.1231ZM641.458 23.8981H647.563V51.2881H641.458V23.8981ZM659.113 23.2931C660.69 23.2931 662.138 23.5131 663.458 23.9531C664.815 24.3931 665.97 25.0714 666.923 25.9881C667.913 26.8681 668.665 27.9681 669.178 29.2881C669.728 30.6081 670.003 32.1664 670.003 33.9631V51.2881H663.898V35.1731C663.898 32.9364 663.348 31.2864 662.248 30.2231C661.185 29.1231 659.498 28.5731 657.188 28.5731C655.428 28.5731 653.815 28.9581 652.348 29.7281C650.918 30.4614 649.745 31.4331 648.828 32.6431C647.911 33.8164 647.38 35.1181 647.233 36.5481L647.178 33.5781C647.361 32.2214 647.765 30.9381 648.388 29.7281C649.011 28.4814 649.836 27.3814 650.863 26.4281C651.89 25.4381 653.1 24.6681 654.493 24.1181C655.886 23.5681 657.426 23.2931 659.113 23.2931ZM680.948 23.2931C682.561 23.2931 684.028 23.5131 685.348 23.9531C686.668 24.3931 687.805 25.0714 688.758 25.9881C689.748 26.8681 690.518 27.9681 691.068 29.2881C691.618 30.6081 691.893 32.1664 691.893 33.9631V51.2881H685.733V35.1731C685.733 32.9364 685.183 31.2864 684.083 30.2231C683.02 29.1231 681.333 28.5731 679.023 28.5731C677.263 28.5731 675.65 28.9581 674.183 29.7281C672.753 30.4614 671.58 31.4331 670.663 32.6431C669.783 33.8164 669.27 35.1181 669.123 36.5481L669.013 33.4681C669.196 32.1481 669.618 30.8831 670.278 29.6731C670.938 28.4264 671.781 27.3264 672.808 26.3731C673.835 25.4198 675.026 24.6681 676.383 24.1181C677.776 23.5681 679.298 23.2931 680.948 23.2931ZM721.486 42.2681H727.371C727.078 44.1381 726.345 45.8064 725.171 47.2731C724.035 48.7031 722.476 49.8398 720.496 50.6831C718.516 51.4898 716.151 51.8931 713.401 51.8931C710.285 51.8931 707.498 51.3248 705.041 50.1881C702.585 49.0148 700.66 47.3648 699.266 45.2381C697.873 43.1114 697.176 40.5814 697.176 37.6481C697.176 34.7514 697.855 32.2214 699.211 30.0581C700.568 27.8948 702.438 26.2264 704.821 25.0531C707.241 23.8798 710.028 23.2931 713.181 23.2931C716.445 23.2931 719.158 23.8798 721.321 25.0531C723.521 26.1898 725.153 27.9131 726.216 30.2231C727.28 32.4964 727.72 35.3748 727.536 38.8581H703.391C703.575 40.3981 704.07 41.7914 704.876 43.0381C705.72 44.2481 706.856 45.2014 708.286 45.8981C709.716 46.5581 711.385 46.8881 713.291 46.8881C715.418 46.8881 717.196 46.4664 718.626 45.6231C720.093 44.7798 721.046 43.6614 721.486 42.2681ZM713.016 28.2431C710.523 28.2431 708.47 28.8664 706.856 30.1131C705.243 31.3231 704.198 32.8814 703.721 34.7881H721.376C721.23 32.7348 720.405 31.1398 718.901 30.0031C717.398 28.8298 715.436 28.2431 713.016 28.2431ZM732.981 23.8981H739.086V51.2881H732.981V23.8981ZM750.636 23.2931C752.213 23.2931 753.661 23.5131 754.981 23.9531C756.338 24.3931 757.493 25.0714 758.446 25.9881C759.436 26.8681 760.188 27.9681 760.701 29.2881C761.251 30.6081 761.526 32.1664 761.526 33.9631V51.2881H755.421V35.1731C755.421 32.9364 754.871 31.2864 753.771 30.2231C752.708 29.1231 751.021 28.5731 748.711 28.5731C746.951 28.5731 745.338 28.9581 743.871 29.7281C742.441 30.4614 741.268 31.4331 740.351 32.6431C739.435 33.8164 738.903 35.1181 738.756 36.5481L738.701 33.5781C738.885 32.2214 739.288 30.9381 739.911 29.7281C740.535 28.4814 741.36 27.3814 742.386 26.4281C743.413 25.4381 744.623 24.6681 746.016 24.1181C747.41 23.5681 748.95 23.2931 750.636 23.2931ZM766.344 23.8981H785.704V28.9031H766.344V23.8981ZM772.944 16.5281H779.104V51.2881H772.944V16.5281Z" fill="#FFBD00"/>
<path d="M370.425 107.673C370.205 110.02 369.453 112.036 368.17 113.723C366.887 115.41 365.163 116.693 363 117.573C360.873 118.453 358.417 118.893 355.63 118.893C352.623 118.893 349.892 118.343 347.435 117.243C345.015 116.143 343.09 114.53 341.66 112.403C340.23 110.276 339.515 107.691 339.515 104.648C339.515 101.605 340.23 99.0198 341.66 96.8931C343.09 94.7664 345.015 93.1348 347.435 91.9981C349.892 90.8614 352.623 90.2931 355.63 90.2931C358.417 90.2931 360.873 90.7514 363 91.6681C365.127 92.5481 366.832 93.8131 368.115 95.4631C369.398 97.1131 370.15 99.1114 370.37 101.458H364.76C364.137 99.5148 363 98.0114 361.35 96.9481C359.737 95.8481 357.83 95.2981 355.63 95.2981C353.833 95.2981 352.183 95.6648 350.68 96.3981C349.177 97.0948 347.967 98.1398 347.05 99.5331C346.17 100.89 345.73 102.595 345.73 104.648C345.73 106.665 346.17 108.37 347.05 109.763C347.967 111.156 349.177 112.201 350.68 112.898C352.183 113.558 353.833 113.888 355.63 113.888C358.05 113.888 360.03 113.356 361.57 112.293C363.147 111.193 364.228 109.653 364.815 107.673H370.425ZM390.379 118.893C387.335 118.893 384.604 118.343 382.184 117.243C379.764 116.143 377.857 114.53 376.464 112.403C375.07 110.276 374.374 107.691 374.374 104.648C374.374 101.641 375.07 99.0748 376.464 96.9481C377.857 94.7848 379.764 93.1348 382.184 91.9981C384.604 90.8614 387.335 90.2931 390.379 90.2931C393.422 90.2931 396.135 90.8614 398.519 91.9981C400.902 93.1348 402.772 94.7848 404.129 96.9481C405.522 99.0748 406.219 101.641 406.219 104.648C406.219 107.691 405.522 110.276 404.129 112.403C402.772 114.53 400.902 116.143 398.519 117.243C396.135 118.343 393.422 118.893 390.379 118.893ZM390.379 113.888C392.139 113.888 393.752 113.54 395.219 112.843C396.685 112.146 397.84 111.101 398.684 109.708C399.564 108.315 400.004 106.628 400.004 104.648C400.004 102.668 399.564 100.981 398.684 99.5881C397.84 98.1948 396.685 97.1314 395.219 96.3981C393.789 95.6281 392.175 95.2431 390.379 95.2431C388.582 95.2431 386.95 95.6098 385.484 96.3431C384.017 97.0764 382.825 98.1398 381.909 99.5331C381.029 100.926 380.589 102.631 380.589 104.648C380.589 106.628 381.029 108.315 381.909 109.708C382.789 111.101 383.962 112.146 385.429 112.843C386.932 113.54 388.582 113.888 390.379 113.888ZM411.682 90.8981H417.787V118.288H411.682V90.8981ZM429.337 90.2931C430.914 90.2931 432.362 90.5131 433.682 90.9531C435.039 91.3931 436.194 92.0714 437.147 92.9881C438.137 93.8681 438.889 94.9681 439.402 96.2881C439.952 97.6081 440.227 99.1664 440.227 100.963V118.288H434.122V102.173C434.122 99.9364 433.572 98.2864 432.472 97.2231C431.409 96.1231 429.722 95.5731 427.412 95.5731C425.652 95.5731 424.039 95.9581 422.572 96.7281C421.142 97.4614 419.969 98.4331 419.052 99.6431C418.136 100.816 417.604 102.118 417.457 103.548L417.402 100.578C417.586 99.2214 417.989 97.9381 418.612 96.7281C419.236 95.4814 420.061 94.3814 421.087 93.4281C422.114 92.4381 423.324 91.6681 424.717 91.1181C426.111 90.5681 427.651 90.2931 429.337 90.2931ZM451.172 90.2931C452.786 90.2931 454.252 90.5131 455.572 90.9531C456.892 91.3931 458.029 92.0714 458.982 92.9881C459.972 93.8681 460.742 94.9681 461.292 96.2881C461.842 97.6081 462.117 99.1664 462.117 100.963V118.288H455.957V102.173C455.957 99.9364 455.407 98.2864 454.307 97.2231C453.244 96.1231 451.557 95.5731 449.247 95.5731C447.487 95.5731 445.874 95.9581 444.407 96.7281C442.977 97.4614 441.804 98.4331 440.887 99.6431C440.007 100.816 439.494 102.118 439.347 103.548L439.237 100.468C439.421 99.1481 439.842 97.8831 440.502 96.6731C441.162 95.4264 442.006 94.3264 443.032 93.3731C444.059 92.4198 445.251 91.6681 446.607 91.1181C448.001 90.5681 449.522 90.2931 451.172 90.2931ZM468.831 90.8981H474.936V118.288H468.831V90.8981ZM486.486 90.2931C488.063 90.2931 489.511 90.5131 490.831 90.9531C492.188 91.3931 493.343 92.0714 494.296 92.9881C495.286 93.8681 496.038 94.9681 496.551 96.2881C497.101 97.6081 497.376 99.1664 497.376 100.963V118.288H491.271V102.173C491.271 99.9364 490.721 98.2864 489.621 97.2231C488.558 96.1231 486.871 95.5731 484.561 95.5731C482.801 95.5731 481.188 95.9581 479.721 96.7281C478.291 97.4614 477.118 98.4331 476.201 99.6431C475.284 100.816 474.753 102.118 474.606 103.548L474.551 100.578C474.734 99.2214 475.138 97.9381 475.761 96.7281C476.384 95.4814 477.209 94.3814 478.236 93.4281C479.263 92.4381 480.473 91.6681 481.866 91.1181C483.259 90.5681 484.799 90.2931 486.486 90.2931ZM508.321 90.2931C509.934 90.2931 511.401 90.5131 512.721 90.9531C514.041 91.3931 515.178 92.0714 516.131 92.9881C517.121 93.8681 517.891 94.9681 518.441 96.2881C518.991 97.6081 519.266 99.1664 519.266 100.963V118.288H513.106V102.173C513.106 99.9364 512.556 98.2864 511.456 97.2231C510.393 96.1231 508.706 95.5731 506.396 95.5731C504.636 95.5731 503.023 95.9581 501.556 96.7281C500.126 97.4614 498.953 98.4331 498.036 99.6431C497.156 100.816 496.643 102.118 496.496 103.548L496.386 100.468C496.569 99.1481 496.991 97.8831 497.651 96.6731C498.311 95.4264 499.154 94.3264 500.181 93.3731C501.208 92.4198 502.399 91.6681 503.756 91.1181C505.149 90.5681 506.671 90.2931 508.321 90.2931ZM554.524 118.288H548.419V90.8981H554.524V118.288ZM548.749 105.253L548.804 107.013C548.731 107.49 548.566 108.205 548.309 109.158C548.089 110.111 547.704 111.156 547.154 112.293C546.641 113.393 545.944 114.456 545.064 115.483C544.221 116.473 543.158 117.298 541.874 117.958C540.591 118.581 539.033 118.893 537.199 118.893C535.879 118.893 534.541 118.71 533.184 118.343C531.864 118.013 530.654 117.445 529.554 116.638C528.491 115.831 527.629 114.731 526.969 113.338C526.309 111.945 525.979 110.185 525.979 108.058V90.8981H532.084V106.903C532.084 108.626 532.359 109.983 532.909 110.973C533.496 111.926 534.303 112.605 535.329 113.008C536.356 113.411 537.548 113.613 538.904 113.613C540.848 113.613 542.498 113.173 543.854 112.293C545.211 111.413 546.293 110.331 547.099 109.048C547.943 107.728 548.493 106.463 548.749 105.253ZM561.267 90.8981H567.372V118.288H561.267V90.8981ZM578.922 90.2931C580.499 90.2931 581.947 90.5131 583.267 90.9531C584.624 91.3931 585.779 92.0714 586.732 92.9881C587.722 93.8681 588.474 94.9681 588.987 96.2881C589.537 97.6081 589.812 99.1664 589.812 100.963V118.288H583.707V102.173C583.707 99.9364 583.157 98.2864 582.057 97.2231C580.994 96.1231 579.307 95.5731 576.997 95.5731C575.237 95.5731 573.624 95.9581 572.157 96.7281C570.727 97.4614 569.554 98.4331 568.637 99.6431C567.721 100.816 567.189 102.118 567.042 103.548L566.987 100.578C567.171 99.2214 567.574 97.9381 568.197 96.7281C568.821 95.4814 569.646 94.3814 570.672 93.4281C571.699 92.4381 572.909 91.6681 574.302 91.1181C575.696 90.5681 577.236 90.2931 578.922 90.2931ZM603.706 79.2931V85.1781H596.391V79.2931H603.706ZM596.941 90.8981H603.101V118.288H596.941V90.8981ZM608.488 90.8981H627.848V95.9031H608.488V90.8981ZM615.088 83.5281H621.248V118.288H615.088V83.5281ZM630.174 90.8981H636.719L647.774 117.188L642.494 118.288L630.174 90.8981ZM660.699 90.8981L643.099 129.288H636.664L644.199 114.273L654.154 90.8981H660.699ZM33.2816 174.673C33.0616 177.02 32.3099 179.036 31.0266 180.723C29.7433 182.41 28.0199 183.693 25.8566 184.573C23.7299 185.453 21.2733 185.893 18.4866 185.893C15.4799 185.893 12.7483 185.343 10.2916 184.243C7.8716 183.143 5.9466 181.53 4.5166 179.403C3.0866 177.276 2.3716 174.691 2.3716 171.648C2.3716 168.605 3.0866 166.02 4.5166 163.893C5.9466 161.766 7.8716 160.135 10.2916 158.998C12.7483 157.861 15.4799 157.293 18.4866 157.293C21.2733 157.293 23.7299 157.751 25.8566 158.668C27.9833 159.548 29.6883 160.813 30.9716 162.463C32.2549 164.113 33.0066 166.111 33.2266 168.458H27.6166C26.9933 166.515 25.8566 165.011 24.2066 163.948C22.5933 162.848 20.6866 162.298 18.4866 162.298C16.6899 162.298 15.0399 162.665 13.5366 163.398C12.0333 164.095 10.8233 165.14 9.9066 166.533C9.0266 167.89 8.5866 169.595 8.5866 171.648C8.5866 173.665 9.0266 175.37 9.9066 176.763C10.8233 178.156 12.0333 179.201 13.5366 179.898C15.0399 180.558 16.6899 180.888 18.4866 180.888C20.9066 180.888 22.8866 180.356 24.4266 179.293C26.0033 178.193 27.0849 176.653 27.6716 174.673H33.2816ZM38.66 157.898H44.765V185.288H38.66V157.898ZM54.665 163.123C52.685 163.123 50.98 163.545 49.55 164.388C48.1567 165.231 47.0383 166.258 46.195 167.468C45.3517 168.678 44.765 169.851 44.435 170.988L44.38 167.908C44.4167 167.505 44.545 166.9 44.765 166.093C44.985 165.25 45.315 164.333 45.755 163.343C46.2317 162.353 46.855 161.4 47.625 160.483C48.4317 159.53 49.4033 158.76 50.54 158.173C51.7133 157.586 53.0883 157.293 54.665 157.293V163.123ZM82.165 176.268H88.05C87.7567 178.138 87.0233 179.806 85.85 181.273C84.7133 182.703 83.155 183.84 81.175 184.683C79.195 185.49 76.83 185.893 74.08 185.893C70.9633 185.893 68.1767 185.325 65.72 184.188C63.2633 183.015 61.3383 181.365 59.945 179.238C58.5517 177.111 57.855 174.581 57.855 171.648C57.855 168.751 58.5333 166.221 59.89 164.058C61.2467 161.895 63.1167 160.226 65.5 159.053C67.92 157.88 70.7067 157.293 73.86 157.293C77.1233 157.293 79.8367 157.88 82 159.053C84.2 160.19 85.8317 161.913 86.895 164.223C87.9583 166.496 88.3983 169.375 88.215 172.858H64.07C64.2533 174.398 64.7483 175.791 65.555 177.038C66.3983 178.248 67.535 179.201 68.965 179.898C70.395 180.558 72.0633 180.888 73.97 180.888C76.0967 180.888 77.875 180.466 79.305 179.623C80.7717 178.78 81.725 177.661 82.165 176.268ZM73.695 162.243C71.2017 162.243 69.1483 162.866 67.535 164.113C65.9217 165.323 64.8767 166.881 64.4 168.788H82.055C81.9083 166.735 81.0833 165.14 79.58 164.003C78.0767 162.83 76.115 162.243 73.695 162.243ZM105.87 185.893C103.34 185.893 101.03 185.288 98.94 184.078C96.8867 182.868 95.255 181.2 94.045 179.073C92.835 176.91 92.23 174.435 92.23 171.648C92.23 168.788 92.8167 166.295 93.99 164.168C95.2 162.005 96.8133 160.318 98.83 159.108C100.883 157.898 103.23 157.293 105.87 157.293C108.18 157.293 110.123 157.678 111.7 158.448C113.277 159.181 114.523 160.208 115.44 161.528C116.357 162.811 117.017 164.315 117.42 166.038C117.86 167.761 118.08 169.631 118.08 171.648C118.08 173.151 117.86 174.746 117.42 176.433C116.98 178.083 116.283 179.623 115.33 181.053C114.413 182.483 113.167 183.656 111.59 184.573C110.05 185.453 108.143 185.893 105.87 185.893ZM107.74 180.833C109.793 180.833 111.535 180.448 112.965 179.678C114.432 178.871 115.532 177.771 116.265 176.378C117.035 174.985 117.42 173.408 117.42 171.648C117.42 169.705 117.035 168.055 116.265 166.698C115.495 165.305 114.395 164.223 112.965 163.453C111.535 162.683 109.793 162.298 107.74 162.298C104.807 162.298 102.533 163.178 100.92 164.938C99.3067 166.661 98.5 168.898 98.5 171.648C98.5 173.445 98.885 175.04 99.655 176.433C100.462 177.826 101.562 178.908 102.955 179.678C104.348 180.448 105.943 180.833 107.74 180.833ZM117.42 146.898H123.58V185.288H117.86C117.787 184.445 117.695 183.4 117.585 182.153C117.475 180.906 117.42 179.788 117.42 178.798V146.898ZM138.515 146.293V152.178H131.2V146.293H138.515ZM131.75 157.898H137.91V185.288H131.75V157.898ZM143.298 157.898H162.658V162.903H143.298V157.898ZM149.897 150.528H156.058V185.288H149.897V150.528Z" fill="#23A323"/>
<line x1="122.095" y1="63.7129" x2="295.231" y2="63.7129" stroke="url(#paint0_linear_6580_65835)"/>
<line x1="345.932" y1="133.441" x2="519.068" y2="133.441" stroke="url(#paint1_linear_6580_65835)"/>
</g>
<defs>
<linearGradient id="paint0_linear_6580_65835" x1="134.073" y1="64.2129" x2="295.231" y2="64.2132" gradientUnits="userSpaceOnUse">
<stop stop-color="#FFBD00"/>
<stop offset="1" stop-color="#FFBD00" stop-opacity="0"/>
</linearGradient>
<linearGradient id="paint1_linear_6580_65835" x1="345.932" y1="133.941" x2="551.206" y2="133.941" gradientUnits="userSpaceOnUse">
<stop stop-color="#23A323"/>
<stop offset="1" stop-color="#23A323" stop-opacity="0"/>
</linearGradient>
<clipPath id="clip0_6580_65835">
<rect width="798.54" height="199.715" fill="white" transform="translate(0.391602 0.288086)"/>
</clipPath>
</defs>
</svg>
