<svg width="30" height="31" viewBox="0 0 30 31" fill="none" xmlns="http://www.w3.org/2000/svg">
<circle cx="15.1007" cy="15.6825" r="14.6974" fill="#F0F5FF"/>
<g clip-path="url(#clip0_3218_34380)">
<path d="M14.591 14.9435C15.5947 14.9435 16.3754 14.1257 16.3754 13.122C16.3754 12.1183 15.5576 11.3376 14.5539 11.3376C13.5502 11.3376 12.7695 12.1554 12.7695 13.122C12.7695 14.1257 13.5874 14.9435 14.591 14.9435ZM14.5539 12.0811C14.591 12.0811 14.591 12.0811 14.5539 12.0811C15.1487 12.0811 15.6319 12.5644 15.6319 13.1591C15.6319 13.7539 15.1487 14.2 14.5539 14.2C13.9591 14.2 13.513 13.7167 13.513 13.1591C13.513 12.5644 13.9963 12.0811 14.5539 12.0811Z" fill="#2D79FD"/>
<path d="M14.5539 12.0811C14.591 12.0811 14.591 12.0811 14.5539 12.0811ZM14.5539 12.0811C15.1487 12.0811 15.6319 12.5644 15.6319 13.1591C15.6319 13.7539 15.1487 14.2 14.5539 14.2C13.9591 14.2 13.513 13.7167 13.513 13.1591C13.513 12.5644 13.9963 12.0811 14.5539 12.0811ZM14.591 14.9435C15.5947 14.9435 16.3754 14.1257 16.3754 13.122C16.3754 12.1183 15.5576 11.3376 14.5539 11.3376C13.5502 11.3376 12.7695 12.1554 12.7695 13.122C12.7695 14.1257 13.5874 14.9435 14.591 14.9435Z" stroke="#2D79FD" stroke-width="0.2"/>
<path d="M20.0925 14.7205C19.3862 14.0885 18.4569 13.754 17.4904 13.7911H17.193C17.1186 14.0885 17.0071 14.3487 16.8584 14.5718C17.0814 14.5346 17.2673 14.5346 17.4904 14.5346C18.1967 14.4974 18.903 14.7205 19.4606 15.1294V17.8059H20.204V14.832L20.0925 14.7205Z" fill="#2D79FD" stroke="#2D79FD" stroke-width="0.2"/>
<path d="M16.6347 11.412C16.8206 10.9659 17.341 10.7428 17.8243 10.9287C18.2703 11.1146 18.4934 11.635 18.3075 12.1183C18.1588 12.4528 17.8243 12.6759 17.4897 12.6759C17.4153 12.6759 17.3038 12.6759 17.2295 12.6387C17.2666 12.8246 17.2666 13.0104 17.2666 13.1591V13.3822C17.341 13.3822 17.4153 13.4193 17.4897 13.4193C18.419 13.4193 19.1625 12.6759 19.1625 11.7837C19.1625 10.8543 18.419 10.1109 17.5269 10.1109C16.9321 10.1109 16.4116 10.4083 16.1143 10.9287C16.3001 11.0402 16.486 11.1889 16.6347 11.412Z" fill="#2D79FD" stroke="#2D79FD" stroke-width="0.2"/>
<path d="M12.3974 14.609C12.2487 14.3859 12.1372 14.1257 12.0628 13.8283H11.7654C10.7989 13.7911 9.86958 14.1257 9.16328 14.7205L9.05176 14.832V17.8059H9.79523V15.1294C10.39 14.7205 11.0591 14.4974 11.7654 14.5346C11.9885 14.5346 12.2115 14.5718 12.3974 14.609Z" fill="#2D79FD" stroke="#2D79FD" stroke-width="0.2"/>
<path d="M11.7649 13.3822C11.8392 13.3822 11.9136 13.3822 11.9879 13.345V13.122C11.9879 12.9361 11.9879 12.7502 12.0251 12.6015C11.9507 12.6387 11.8392 12.6387 11.7649 12.6387C11.2816 12.6387 10.8727 12.2298 10.8727 11.7465C10.8727 11.2633 11.2816 10.8544 11.7649 10.8544C12.1366 10.8544 12.4712 11.0774 12.6199 11.412C12.7686 11.2261 12.9916 11.0402 13.1775 10.8915C12.6942 10.1109 11.6905 9.85067 10.9099 10.3339C10.1292 10.8172 9.86901 11.8209 10.3523 12.6015C10.6497 13.0848 11.1701 13.3822 11.7649 13.3822Z" fill="#2D79FD" stroke="#2D79FD" stroke-width="0.2"/>
<path d="M17.6393 16.9509L17.5649 16.8394C16.8215 16.0215 15.7806 15.5383 14.6654 15.5755C13.5502 15.5383 12.4721 16.0215 11.7286 16.8394L11.6543 16.9509V19.7761C11.6543 20.1107 11.9145 20.4081 12.2863 20.4081H17.0445C17.3791 20.4081 17.6765 20.1107 17.6765 19.7761V16.9509H17.6393ZM16.8958 19.6646H12.3978V17.2111C12.9926 16.6163 13.8104 16.3189 14.6654 16.3189C15.4832 16.2818 16.301 16.6163 16.8958 17.2111V19.6646Z" fill="#2D79FD" stroke="#2D79FD" stroke-width="0.2"/>
</g>
<defs>
<clipPath id="clip0_3218_34380">
<rect width="15.5447" height="15.5447" fill="white" transform="translate(6.37012 7.98517)"/>
</clipPath>
</defs>
</svg>
