<svg width="48" height="25" viewBox="0 0 48 25" fill="none" xmlns="http://www.w3.org/2000/svg">
<g clip-path="url(#clip0_2090_19170)">
<path d="M2.66667 3.83334C1.95942 3.83334 1.28115 4.11429 0.781049 4.61439C0.280952 5.11449 0 5.79277 0 6.50001L0 18.5C0 19.2073 0.280952 19.8855 0.781049 20.3856C1.28115 20.8857 1.95942 21.1667 2.66667 21.1667H8V3.83334H2.66667Z" fill="#009A49"/>
<path d="M8 3.83334H16V21.1667H8V3.83334Z" fill="#EEEEEE"/>
<path d="M21.3333 3.83334H16V21.1667H21.3333C22.0406 21.1667 22.7189 20.8857 23.219 20.3856C23.719 19.8855 24 19.2073 24 18.5V6.50001C24 5.79277 23.719 5.11449 23.219 4.61439C22.7189 4.11429 22.0406 3.83334 21.3333 3.83334Z" fill="#009A49"/>
</g>
<path d="M40 15.6999C39.5333 15.6999 39.0667 15.5199 38.7133 15.1666L34.3667 10.8199C34.1733 10.6266 34.1733 10.3066 34.3667 10.1133C34.56 9.91993 34.88 9.91993 35.0733 10.1133L39.42 14.4599C39.74 14.7799 40.26 14.7799 40.58 14.4599L44.9267 10.1133C45.12 9.91993 45.44 9.91993 45.6333 10.1133C45.8267 10.3066 45.8267 10.6266 45.6333 10.8199L41.2867 15.1666C40.9333 15.5199 40.4667 15.6999 40 15.6999Z" fill="#101828"/>
<defs>
<clipPath id="clip0_2090_19170">
<rect width="24" height="24" fill="white" transform="translate(0 0.5)"/>
</clipPath>
</defs>
</svg>
