<svg width="222" height="68" viewBox="0 0 222 68" fill="none" xmlns="http://www.w3.org/2000/svg">
<rect x="1.73145" y="2.27795" width="218.929" height="64.6593" rx="32.3297" stroke="#23A323" stroke-width="2"/>
<path d="M35.392 39.61C34.5066 39.61 33.7066 39.4926 32.992 39.258C32.2773 39.0233 31.664 38.682 31.152 38.234C30.6506 37.7753 30.2613 37.2153 29.984 36.554C29.7173 35.8926 29.584 35.146 29.584 34.314C29.584 33.4713 29.728 32.714 30.016 32.042C30.304 31.37 30.7146 30.7993 31.248 30.33C31.7813 29.85 32.416 29.4873 33.152 29.242C33.888 28.986 34.6986 28.858 35.584 28.858C36.6186 28.858 37.5146 29.018 38.272 29.338C39.0293 29.658 39.632 30.106 40.08 30.682C40.528 31.2473 40.784 31.9193 40.848 32.698H39.168C39.0293 32.2393 38.8 31.8446 38.48 31.514C38.1706 31.1833 37.7706 30.9273 37.28 30.746C36.8 30.554 36.2346 30.458 35.584 30.458C34.7306 30.458 33.9893 30.6233 33.36 30.954C32.7413 31.274 32.2666 31.7273 31.936 32.314C31.6053 32.89 31.44 33.5566 31.44 34.314C31.44 35.0713 31.584 35.7273 31.872 36.282C32.1706 36.826 32.6186 37.2526 33.216 37.562C33.8133 37.8606 34.5546 38.01 35.44 38.01C36.1226 38.01 36.72 37.9086 37.232 37.706C37.7546 37.4926 38.1866 37.1993 38.528 36.826C38.8693 36.4526 39.1093 36.0206 39.248 35.53L40.064 35.338C39.9146 36.714 39.424 37.77 38.592 38.506C37.7706 39.242 36.704 39.61 35.392 39.61ZM39.632 39.418C39.632 39.0766 39.648 38.6926 39.68 38.266C39.712 37.8286 39.7493 37.386 39.792 36.938C39.8453 36.4793 39.8933 36.0686 39.936 35.706H35.648V34.394H41.248V39.418H39.632ZM49.8843 36.794H51.5963C51.511 37.338 51.2977 37.8233 50.9563 38.25C50.6257 38.666 50.1723 38.9966 49.5963 39.242C49.0203 39.4766 48.3323 39.594 47.5323 39.594C46.6257 39.594 45.815 39.4286 45.1003 39.098C44.3857 38.7566 43.8257 38.2766 43.4203 37.658C43.015 37.0393 42.8123 36.3033 42.8123 35.45C42.8123 34.6073 43.0097 33.8713 43.4043 33.242C43.799 32.6126 44.343 32.1273 45.0363 31.786C45.7403 31.4446 46.551 31.274 47.4683 31.274C48.4177 31.274 49.207 31.4446 49.8363 31.786C50.4763 32.1166 50.951 32.618 51.2603 33.29C51.5697 33.9513 51.6977 34.7886 51.6443 35.802H44.6203C44.6737 36.25 44.8177 36.6553 45.0523 37.018C45.2977 37.37 45.6283 37.6473 46.0443 37.85C46.4603 38.042 46.9457 38.138 47.5003 38.138C48.119 38.138 48.6363 38.0153 49.0523 37.77C49.479 37.5246 49.7563 37.1993 49.8843 36.794ZM47.4203 32.714C46.695 32.714 46.0977 32.8953 45.6283 33.258C45.159 33.61 44.855 34.0633 44.7163 34.618H49.8523C49.8097 34.0206 49.5697 33.5566 49.1323 33.226C48.695 32.8846 48.1243 32.714 47.4203 32.714ZM52.5433 31.45H58.1753V32.906H52.5433V31.45ZM54.4633 29.306H56.2553V39.418H54.4633V29.306ZM62.8276 35.978H64.6036C64.6462 36.3726 64.8009 36.73 65.0676 37.05C65.3449 37.3593 65.7076 37.6046 66.1556 37.786C66.6142 37.9566 67.1369 38.042 67.7236 38.042C68.2462 38.042 68.6782 37.978 69.0196 37.85C69.3609 37.722 69.6116 37.546 69.7716 37.322C69.9422 37.0873 70.0276 36.8153 70.0276 36.506C70.0276 36.1966 69.9262 35.9566 69.7236 35.786C69.5316 35.6046 69.2329 35.4553 68.8276 35.338C68.4222 35.21 67.9049 35.0873 67.2756 34.97C66.7529 34.874 66.2462 34.746 65.7556 34.586C65.2649 34.426 64.8222 34.2233 64.4276 33.978C64.0436 33.7326 63.7396 33.434 63.5156 33.082C63.2916 32.7193 63.1796 32.2926 63.1796 31.802C63.1796 31.2473 63.3342 30.746 63.6436 30.298C63.9636 29.85 64.4329 29.498 65.0516 29.242C65.6702 28.986 66.4222 28.858 67.3076 28.858C68.6622 28.858 69.6969 29.1726 70.4116 29.802C71.1262 30.4206 71.4729 31.2633 71.4516 32.33H69.7076C69.6756 31.658 69.4302 31.1726 68.9716 30.874C68.5129 30.5753 67.9316 30.426 67.2276 30.426C66.5982 30.426 66.0702 30.538 65.6436 30.762C65.2169 30.986 65.0036 31.3486 65.0036 31.85C65.0036 32.0633 65.0516 32.25 65.1476 32.41C65.2542 32.5593 65.4249 32.698 65.6596 32.826C65.8942 32.9433 66.2142 33.0606 66.6196 33.178C67.0356 33.2846 67.5422 33.402 68.1396 33.53C68.6516 33.6153 69.1316 33.7326 69.5796 33.882C70.0276 34.0313 70.4169 34.218 70.7476 34.442C71.0889 34.666 71.3556 34.954 71.5476 35.306C71.7396 35.658 71.8356 36.09 71.8356 36.602C71.8356 37.1886 71.6862 37.7113 71.3876 38.17C71.0889 38.618 70.6302 38.9753 70.0116 39.242C69.4036 39.498 68.6142 39.626 67.6436 39.626C66.9076 39.626 66.2622 39.5406 65.7076 39.37C65.1636 39.1886 64.6996 38.9593 64.3156 38.682C63.9316 38.394 63.6222 38.0846 63.3876 37.754C63.1636 37.4233 63.0036 37.1033 62.9076 36.794C62.8222 36.474 62.7956 36.202 62.8276 35.978ZM72.9027 31.45H78.5347V32.906H72.9027V31.45ZM74.8227 29.306H76.6147V39.418H74.8227V29.306ZM83.3585 39.594C82.6331 39.594 81.9665 39.418 81.3585 39.066C80.7611 38.714 80.2811 38.2286 79.9185 37.61C79.5665 36.9806 79.3905 36.2606 79.3905 35.45C79.3905 34.618 79.5718 33.8926 79.9345 33.274C80.2971 32.6446 80.7878 32.154 81.4065 31.802C82.0251 31.45 82.7185 31.274 83.4865 31.274C84.3398 31.274 85.0171 31.4606 85.5185 31.834C86.0198 32.2073 86.3771 32.7086 86.5905 33.338C86.8038 33.9673 86.9105 34.6713 86.9105 35.45C86.9105 35.8873 86.8465 36.3513 86.7185 36.842C86.5905 37.322 86.3878 37.77 86.1105 38.186C85.8438 38.602 85.4811 38.9433 85.0225 39.21C84.5745 39.466 84.0198 39.594 83.3585 39.594ZM83.9025 38.122C84.4998 38.122 85.0065 38.01 85.4225 37.786C85.8491 37.5513 86.1691 37.2313 86.3825 36.826C86.6065 36.4206 86.7185 35.962 86.7185 35.45C86.7185 34.8846 86.6065 34.4046 86.3825 34.01C86.1585 33.6046 85.8385 33.2953 85.4225 33.082C85.0065 32.858 84.4998 32.746 83.9025 32.746C83.0491 32.746 82.3878 32.9966 81.9185 33.498C81.4491 33.9993 81.2145 34.65 81.2145 35.45C81.2145 35.9726 81.3265 36.4366 81.5505 36.842C81.7851 37.2473 82.1051 37.562 82.5105 37.786C82.9158 38.01 83.3798 38.122 83.9025 38.122ZM86.7185 31.45H88.5105V39.418H86.8465C86.8465 39.418 86.8358 39.3166 86.8145 39.114C86.7931 38.9113 86.7718 38.666 86.7505 38.378C86.7291 38.0793 86.7185 37.7966 86.7185 37.53V31.45ZM90.4627 31.45H92.2387V39.418H90.4627V31.45ZM95.1187 32.97C94.5427 32.97 94.0467 33.0926 93.6307 33.338C93.2254 33.5833 92.9 33.882 92.6547 34.234C92.4094 34.586 92.2387 34.9273 92.1427 35.258L92.1267 34.362C92.1374 34.2446 92.1747 34.0686 92.2387 33.834C92.3027 33.5886 92.3987 33.322 92.5267 33.034C92.6654 32.746 92.8467 32.4686 93.0707 32.202C93.3054 31.9246 93.588 31.7006 93.9187 31.53C94.26 31.3593 94.66 31.274 95.1187 31.274V32.97ZM95.934 31.45H101.566V32.906H95.934V31.45ZM97.854 29.306H99.646V39.418H97.854V29.306ZM109.494 36.794H111.206C111.12 37.338 110.907 37.8233 110.566 38.25C110.235 38.666 109.782 38.9966 109.206 39.242C108.63 39.4766 107.942 39.594 107.142 39.594C106.235 39.594 105.424 39.4286 104.71 39.098C103.995 38.7566 103.435 38.2766 103.03 37.658C102.624 37.0393 102.422 36.3033 102.422 35.45C102.422 34.6073 102.619 33.8713 103.014 33.242C103.408 32.6126 103.952 32.1273 104.646 31.786C105.35 31.4446 106.16 31.274 107.078 31.274C108.027 31.274 108.816 31.4446 109.446 31.786C110.086 32.1166 110.56 32.618 110.87 33.29C111.179 33.9513 111.307 34.7886 111.254 35.802H104.23C104.283 36.25 104.427 36.6553 104.662 37.018C104.907 37.37 105.238 37.6473 105.654 37.85C106.07 38.042 106.555 38.138 107.11 38.138C107.728 38.138 108.246 38.0153 108.662 37.77C109.088 37.5246 109.366 37.1993 109.494 36.794ZM107.03 32.714C106.304 32.714 105.707 32.8953 105.238 33.258C104.768 33.61 104.464 34.0633 104.326 34.618H109.462C109.419 34.0206 109.179 33.5566 108.742 33.226C108.304 32.8846 107.734 32.714 107.03 32.714ZM116.39 39.594C115.654 39.594 114.982 39.418 114.374 39.066C113.776 38.714 113.302 38.2286 112.95 37.61C112.598 36.9806 112.422 36.2606 112.422 35.45C112.422 34.618 112.592 33.8926 112.934 33.274C113.286 32.6446 113.755 32.154 114.342 31.802C114.939 31.45 115.622 31.274 116.39 31.274C117.062 31.274 117.627 31.386 118.086 31.61C118.544 31.8233 118.907 32.122 119.174 32.506C119.44 32.8793 119.632 33.3166 119.75 33.818C119.878 34.3193 119.942 34.8633 119.942 35.45C119.942 35.8873 119.878 36.3513 119.75 36.842C119.622 37.322 119.419 37.77 119.142 38.186C118.875 38.602 118.512 38.9433 118.054 39.21C117.606 39.466 117.051 39.594 116.39 39.594ZM116.934 38.122C117.531 38.122 118.038 38.01 118.454 37.786C118.88 37.5513 119.2 37.2313 119.414 36.826C119.638 36.4206 119.75 35.962 119.75 35.45C119.75 34.8846 119.638 34.4046 119.414 34.01C119.19 33.6046 118.87 33.29 118.454 33.066C118.038 32.842 117.531 32.73 116.934 32.73C116.08 32.73 115.419 32.986 114.95 33.498C114.48 33.9993 114.246 34.65 114.246 35.45C114.246 35.9726 114.358 36.4366 114.582 36.842C114.816 37.2473 115.136 37.562 115.542 37.786C115.947 38.01 116.411 38.122 116.934 38.122ZM119.75 28.25H121.542V39.418H119.878C119.856 39.1726 119.83 38.8686 119.798 38.506C119.766 38.1433 119.75 37.818 119.75 37.53V28.25Z" fill="black"/>
<circle cx="184.2" cy="33.3921" r="23.8403" transform="rotate(-36.7207 184.2 33.3921)" fill="#23A323"/>
<path d="M182.494 27.0942L190.986 28.3299L189.75 36.8218" stroke="white" stroke-width="1.49948" stroke-miterlimit="10" stroke-linecap="round" stroke-linejoin="round"/>
<path d="M177.365 38.4911L190.85 28.4317" stroke="white" stroke-width="1.49948" stroke-miterlimit="10" stroke-linecap="round" stroke-linejoin="round"/>
</svg>
