<svg width="35" height="35" viewBox="0 0 35 35" fill="none" xmlns="http://www.w3.org/2000/svg">
<circle cx="17.6478" cy="17.6134" r="17.0685" fill="#F2FCF2"/>
<path d="M24.0634 13.1097H22.6013L19.014 16.6955C19.1375 17.0103 19.1489 17.3582 19.0461 17.6805C18.9434 18.0027 18.7328 18.2798 18.4498 18.4651C18.1668 18.6504 17.8286 18.7325 17.4922 18.6978C17.1557 18.6631 16.8414 18.5135 16.6023 18.2744C16.3631 18.0352 16.2135 17.7209 16.1788 17.3845C16.1441 17.048 16.2263 16.7098 16.4115 16.4268C16.5968 16.1438 16.8739 15.9332 17.1962 15.8305C17.5184 15.7277 17.8663 15.7391 18.1812 15.8627L21.7677 12.2761V10.814C21.7678 10.6183 21.8455 10.4307 21.9838 10.2923L23.343 8.93308C23.3681 8.90769 23.3997 8.88966 23.4343 8.88093C23.4689 8.87221 23.5053 8.87312 23.5394 8.88358C23.6093 8.90401 23.6612 8.96215 23.6753 9.03364L24.0367 10.8415L25.8438 11.2029C25.9145 11.217 25.9726 11.2689 25.993 11.3388C26.0034 11.3728 26.0043 11.4089 25.9957 11.4433C25.9871 11.4778 25.9694 11.5093 25.9443 11.5344L24.5843 12.8936C24.516 12.9621 24.4348 13.0164 24.3454 13.0535C24.256 13.0906 24.1602 13.1097 24.0634 13.1097Z" fill="#23A323"/>
<path d="M10.2774 17.2336C10.2774 19.1871 11.0534 21.0605 12.4347 22.4419C13.816 23.8232 15.6895 24.5992 17.643 24.5992C18.6103 24.5992 19.5681 24.4087 20.4617 24.0385C21.3553 23.6684 22.1673 23.1258 22.8513 22.4419C23.5352 21.7579 24.0778 20.9459 24.4479 20.0523C24.8181 19.1586 25.0086 18.2008 25.0086 17.2336C25.0086 16.528 24.9096 15.8461 24.725 15.2011C24.6883 15.053 24.7105 14.8964 24.7869 14.7643C24.8633 14.6322 24.9879 14.5349 25.1346 14.4929C25.2813 14.4508 25.4385 14.4673 25.5733 14.5389C25.7081 14.6105 25.8098 14.7315 25.8571 14.8766C26.0724 15.6261 26.1871 16.4165 26.1871 17.2336C26.1871 21.9523 22.3617 25.7777 17.643 25.7777C12.9243 25.7777 9.09888 21.9523 9.09888 17.2336C9.09888 12.5149 12.9243 8.68946 17.643 8.68946C18.4404 8.68867 19.2332 8.79945 20 9.01865C20.0748 9.03962 20.1446 9.07517 20.2056 9.12324C20.2666 9.17131 20.3175 9.23096 20.3553 9.29876C20.3932 9.36656 20.4173 9.44118 20.4262 9.51832C20.4351 9.59545 20.4287 9.67359 20.4073 9.74824C20.3859 9.8229 20.35 9.89258 20.3016 9.9533C20.2532 10.014 20.1933 10.0646 20.1253 10.1021C20.0573 10.1395 19.9825 10.1632 19.9053 10.1717C19.8282 10.1802 19.75 10.1734 19.6755 10.1516C19.0145 9.96281 18.3304 9.86734 17.643 9.86796C15.6895 9.86796 13.816 10.644 12.4347 12.0253C11.0534 13.4066 10.2774 15.2801 10.2774 17.2336Z" fill="#23A323"/>
<path d="M13.8128 17.235C13.815 17.7554 13.9232 18.2698 14.1309 18.747C14.3385 19.2241 14.6412 19.6539 15.0205 20.0102C15.3999 20.3664 15.8478 20.6416 16.337 20.819C16.8262 20.9963 17.3465 21.0721 17.8659 21.0417C18.3854 21.0113 18.8932 20.8753 19.3584 20.642C19.8236 20.4088 20.2364 20.0832 20.5715 19.6851C20.9066 19.2871 21.1571 18.8248 21.3077 18.3267C21.4582 17.8286 21.5057 17.305 21.4471 16.788C21.4306 16.6833 21.4427 16.576 21.4822 16.4776C21.5217 16.3793 21.5871 16.2934 21.6714 16.2291C21.7557 16.1649 21.8558 16.1246 21.9611 16.1126C22.0665 16.1006 22.1731 16.1173 22.2697 16.161C22.4669 16.249 22.5997 16.4368 22.617 16.6521C22.7389 17.6854 22.536 18.7311 22.0363 19.6437C21.5365 20.5564 20.7649 21.2907 19.8286 21.7446C18.8923 22.1985 17.8379 22.3494 16.8118 22.1764C15.7858 22.0034 14.8391 21.515 14.1035 20.7792C13.368 20.0441 12.8795 19.0984 12.7057 18.0732C12.5319 17.048 12.6815 15.9942 13.1336 15.0578C13.5857 14.1214 14.318 13.349 15.2289 12.8475C16.1399 12.3461 17.1842 12.1405 18.2172 12.2594C18.2953 12.2666 18.3712 12.2894 18.4404 12.3263C18.5095 12.3633 18.5706 12.4137 18.6201 12.4745C18.6696 12.5354 18.7064 12.6055 18.7284 12.6808C18.7504 12.7561 18.7571 12.835 18.7482 12.9129C18.7393 12.9908 18.715 13.0662 18.6766 13.1346C18.6382 13.203 18.5865 13.263 18.5247 13.3112C18.4628 13.3593 18.3919 13.3947 18.3161 13.4151C18.2404 13.4355 18.1614 13.4406 18.0837 13.43C17.5471 13.368 17.0034 13.4201 16.4884 13.583C15.9734 13.7459 15.4987 14.0159 15.0953 14.3752C14.692 14.7345 14.3693 15.1751 14.1482 15.668C13.9272 16.1608 13.8129 16.6949 13.8128 17.235Z" fill="#23A323"/>
</svg>
