<svg width="163" height="22" viewBox="0 0 163 22" fill="none" xmlns="http://www.w3.org/2000/svg">
<path d="M8.40162 17.1003C8.23701 17.1003 8.0724 17.0397 7.94244 16.9097L2.68355 11.6508C2.43231 11.3996 2.43231 10.9837 2.68355 10.7325L7.94244 5.47359C8.19369 5.22234 8.60955 5.22234 8.8608 5.47359C9.11205 5.72484 9.11205 6.1407 8.8608 6.39195L4.06109 11.1917L8.8608 15.9914C9.11205 16.2426 9.11205 16.6585 8.8608 16.9097C8.73951 17.0397 8.56623 17.1003 8.40162 17.1003Z" fill="#23A323"/>
<path d="M17.8715 11.8386H3.29041C2.93519 11.8386 2.64062 11.5441 2.64062 11.1888C2.64062 10.8336 2.93519 10.5391 3.29041 10.5391H17.8715C18.2267 10.5391 18.5213 10.8336 18.5213 11.1888C18.5213 11.5441 18.2267 11.8386 17.8715 11.8386Z" fill="#23A323"/>
<path d="M40.3959 13.947C39.6772 13.947 39.0285 13.8396 38.4499 13.625C37.8805 13.4103 37.3905 13.1023 36.9799 12.701C36.5692 12.2996 36.2565 11.8143 36.0419 11.245C35.8272 10.6663 35.7199 10.027 35.7199 9.32697C35.7199 8.6083 35.8365 7.95963 36.0699 7.38097C36.3032 6.79297 36.6345 6.28897 37.0639 5.86897C37.4932 5.43963 38.0019 5.11297 38.5899 4.88897C39.1779 4.66497 39.8265 4.55297 40.5359 4.55297C41.3292 4.55297 42.0245 4.6883 42.6219 4.95897C43.2285 5.22963 43.7139 5.6123 44.0779 6.10697C44.4419 6.5923 44.6565 7.17097 44.7219 7.84297H43.5039C43.3825 7.41364 43.1865 7.04497 42.9159 6.73697C42.6452 6.42897 42.3092 6.19097 41.9079 6.02297C41.5065 5.85497 41.0492 5.77097 40.5359 5.77097C39.8359 5.77097 39.2292 5.92497 38.7159 6.23297C38.2025 6.53164 37.8012 6.95164 37.5119 7.49297C37.2225 8.02497 37.0779 8.6363 37.0779 9.32697C37.0779 10.0083 37.2039 10.6056 37.4559 11.119C37.7172 11.623 38.0952 12.0196 38.5899 12.309C39.0939 12.589 39.7005 12.729 40.4099 12.729C40.9605 12.729 41.4412 12.6356 41.8519 12.449C42.2719 12.253 42.6125 11.9823 42.8739 11.637C43.1445 11.2823 43.3312 10.8576 43.4339 10.363L44.1339 10.279C43.9939 11.483 43.5925 12.3976 42.9299 13.023C42.2672 13.639 41.4225 13.947 40.3959 13.947ZM43.8259 13.793C43.8259 13.4943 43.8352 13.1536 43.8539 12.771C43.8819 12.379 43.9099 11.987 43.9379 11.595C43.9752 11.1936 44.0079 10.8343 44.0359 10.517H40.6339V9.42497H45.0719V13.793H43.8259ZM50.1857 13.947C49.5044 13.947 48.879 13.8023 48.3097 13.513C47.7404 13.2236 47.2877 12.8083 46.9517 12.267C46.6157 11.7256 46.4477 11.077 46.4477 10.321C46.4477 9.55564 46.6157 8.9023 46.9517 8.36097C47.2877 7.8103 47.7404 7.3903 48.3097 7.10097C48.879 6.81164 49.5044 6.66697 50.1857 6.66697C50.867 6.66697 51.4877 6.81164 52.0477 7.10097C52.6077 7.3903 53.0557 7.8103 53.3917 8.36097C53.7277 8.9023 53.8957 9.55564 53.8957 10.321C53.8957 11.077 53.7277 11.7256 53.3917 12.267C53.0557 12.8083 52.6077 13.2236 52.0477 13.513C51.4877 13.8023 50.867 13.947 50.1857 13.947ZM50.1857 12.785C50.6057 12.785 50.993 12.6916 51.3477 12.505C51.7117 12.309 52.001 12.029 52.2157 11.665C52.4397 11.2916 52.5517 10.8436 52.5517 10.321C52.5517 9.78897 52.4397 9.3363 52.2157 8.96297C52.001 8.58964 51.7117 8.30497 51.3477 8.10897C50.993 7.91297 50.6057 7.81497 50.1857 7.81497C49.7657 7.81497 49.3737 7.91297 49.0097 8.10897C48.6457 8.29564 48.3517 8.57564 48.1277 8.94897C47.9037 9.3223 47.7917 9.77964 47.7917 10.321C47.7917 10.8436 47.899 11.2916 48.1137 11.665C48.3377 12.029 48.6317 12.309 48.9957 12.505C49.3597 12.6916 49.7564 12.785 50.1857 12.785ZM62.6061 13.933C62.0554 13.933 61.5981 13.821 61.2341 13.597C60.8794 13.3636 60.5948 13.0603 60.3801 12.687C60.1748 12.3136 60.0254 11.917 59.9321 11.497C59.8388 11.077 59.7921 10.6803 59.7921 10.307C59.7921 9.80297 59.8341 9.33164 59.9181 8.89297C60.0114 8.4543 60.1608 8.06697 60.3661 7.73097C60.5714 7.39497 60.8561 7.13364 61.2201 6.94697C61.5841 6.7603 62.0461 6.66697 62.6061 6.66697C63.2314 6.66697 63.7868 6.82564 64.2721 7.14297C64.7668 7.45097 65.1541 7.8803 65.4341 8.43097C65.7141 8.9723 65.8541 9.59764 65.8541 10.307C65.8541 11.0163 65.7094 11.6463 65.4201 12.197C65.1308 12.7383 64.7388 13.163 64.2441 13.471C63.7588 13.779 63.2128 13.933 62.6061 13.933ZM62.2281 12.771C62.6761 12.771 63.0681 12.6683 63.4041 12.463C63.7494 12.2483 64.0154 11.959 64.2021 11.595C64.3981 11.2216 64.4961 10.7923 64.4961 10.307C64.4961 9.5883 64.2954 8.99564 63.8941 8.52897C63.5021 8.0623 62.9468 7.82897 62.2281 7.82897C61.7428 7.82897 61.3274 7.93164 60.9821 8.13697C60.6461 8.3423 60.3894 8.63164 60.2121 9.00497C60.0348 9.3783 59.9461 9.8123 59.9461 10.307C59.9461 10.7643 60.0301 11.1796 60.1981 11.553C60.3754 11.9263 60.6321 12.225 60.9681 12.449C61.3134 12.6636 61.7334 12.771 62.2281 12.771ZM59.9461 4.00697V12.267C59.9461 12.4816 59.9321 12.7383 59.9041 13.037C59.8854 13.3356 59.8668 13.5876 59.8481 13.793H58.6161V4.00697H59.9461ZM70.1215 13.933C69.5241 13.933 68.9781 13.779 68.4835 13.471C67.9888 13.163 67.5968 12.7383 67.3075 12.197C67.0181 11.6463 66.8735 11.0163 66.8735 10.307C66.8735 9.59764 67.0181 8.9723 67.3075 8.43097C67.6061 7.8803 68.0121 7.45097 68.5255 7.14297C69.0388 6.82564 69.6128 6.66697 70.2475 6.66697C70.9475 6.66697 71.4888 6.8303 71.8715 7.15697C72.2635 7.48364 72.5341 7.9223 72.6835 8.47297C72.8421 9.02364 72.9215 9.63497 72.9215 10.307C72.9215 10.6803 72.8748 11.077 72.7815 11.497C72.6881 11.917 72.5388 12.3136 72.3335 12.687C72.1281 13.0603 71.8435 13.3636 71.4795 13.597C71.1155 13.821 70.6628 13.933 70.1215 13.933ZM70.4995 12.771C70.9941 12.771 71.4095 12.6636 71.7455 12.449C72.0908 12.225 72.3475 11.9263 72.5155 11.553C72.6835 11.1796 72.7675 10.7643 72.7675 10.307C72.7675 9.8123 72.6788 9.3783 72.5015 9.00497C72.3335 8.63164 72.0768 8.3423 71.7315 8.13697C71.3955 7.93164 70.9848 7.82897 70.4995 7.82897C69.7715 7.82897 69.2068 8.0623 68.8055 8.52897C68.4135 8.99564 68.2175 9.5883 68.2175 10.307C68.2175 10.7923 68.3155 11.2216 68.5115 11.595C68.7075 11.959 68.9735 12.2483 69.3095 12.463C69.6548 12.6683 70.0515 12.771 70.4995 12.771ZM72.7675 6.80697H74.1115V13.793H72.8795C72.8795 13.793 72.8701 13.709 72.8515 13.541C72.8328 13.3636 72.8141 13.1536 72.7955 12.911C72.7768 12.6683 72.7675 12.4536 72.7675 12.267V6.80697ZM82.7104 11.133C82.6544 11.7116 82.4678 12.2156 82.1504 12.645C81.8424 13.065 81.4364 13.387 80.9324 13.611C80.4284 13.835 79.8684 13.947 79.2524 13.947C78.5711 13.947 77.9458 13.807 77.3764 13.527C76.8071 13.2376 76.3498 12.8223 76.0044 12.281C75.6684 11.7303 75.5004 11.077 75.5004 10.321C75.5004 9.55564 75.6684 8.9023 76.0044 8.36097C76.3498 7.8103 76.8071 7.3903 77.3764 7.10097C77.9458 6.81164 78.5711 6.66697 79.2524 6.66697C79.8684 6.66697 80.4238 6.77897 80.9184 7.00297C81.4131 7.22697 81.8191 7.54897 82.1364 7.96897C82.4538 8.37964 82.6451 8.8743 82.7104 9.45297H81.4924C81.3338 8.94897 81.0491 8.5523 80.6384 8.26297C80.2371 7.9643 79.7751 7.81497 79.2524 7.81497C78.8231 7.81497 78.4218 7.91297 78.0484 8.10897C77.6844 8.30497 77.3904 8.58964 77.1664 8.96297C76.9518 9.32697 76.8444 9.77964 76.8444 10.321C76.8444 10.8436 76.9518 11.2916 77.1664 11.665C77.3904 12.029 77.6844 12.309 78.0484 12.505C78.4124 12.6916 78.8138 12.785 79.2524 12.785C79.8498 12.785 80.3351 12.6403 80.7084 12.351C81.0818 12.0616 81.3478 11.6556 81.5064 11.133H82.7104ZM84.2766 4.00697H85.6066V13.793H84.2766V4.00697ZM90.6466 6.80697L86.9506 10.321L86.9786 9.48097L90.9126 13.793H89.2186L85.6346 9.88697L88.7846 6.80697H90.6466ZM94.5014 6.80697H99.0234V7.96897H94.5014V6.80697ZM96.0974 4.95897H97.4274V13.793H96.0974V4.95897ZM103.547 13.947C102.866 13.947 102.24 13.8023 101.671 13.513C101.102 13.2236 100.649 12.8083 100.313 12.267C99.977 11.7256 99.809 11.077 99.809 10.321C99.809 9.55564 99.977 8.9023 100.313 8.36097C100.649 7.8103 101.102 7.3903 101.671 7.10097C102.24 6.81164 102.866 6.66697 103.547 6.66697C104.228 6.66697 104.849 6.81164 105.409 7.10097C105.969 7.3903 106.417 7.8103 106.753 8.36097C107.089 8.9023 107.257 9.55564 107.257 10.321C107.257 11.077 107.089 11.7256 106.753 12.267C106.417 12.8083 105.969 13.2236 105.409 13.513C104.849 13.8023 104.228 13.947 103.547 13.947ZM103.547 12.785C103.967 12.785 104.354 12.6916 104.709 12.505C105.073 12.309 105.362 12.029 105.577 11.665C105.801 11.2916 105.913 10.8436 105.913 10.321C105.913 9.78897 105.801 9.3363 105.577 8.96297C105.362 8.58964 105.073 8.30497 104.709 8.10897C104.354 7.91297 103.967 7.81497 103.547 7.81497C103.127 7.81497 102.735 7.91297 102.371 8.10897C102.007 8.29564 101.713 8.57564 101.489 8.94897C101.265 9.3223 101.153 9.77964 101.153 10.321C101.153 10.8436 101.26 11.2916 101.475 11.665C101.699 12.029 101.993 12.309 102.357 12.505C102.721 12.6916 103.118 12.785 103.547 12.785ZM118.585 11.133C118.529 11.7116 118.343 12.2156 118.025 12.645C117.717 13.065 117.311 13.387 116.807 13.611C116.303 13.835 115.743 13.947 115.127 13.947C114.446 13.947 113.821 13.807 113.251 13.527C112.682 13.2376 112.225 12.8223 111.879 12.281C111.543 11.7303 111.375 11.077 111.375 10.321C111.375 9.55564 111.543 8.9023 111.879 8.36097C112.225 7.8103 112.682 7.3903 113.251 7.10097C113.821 6.81164 114.446 6.66697 115.127 6.66697C115.743 6.66697 116.299 6.77897 116.793 7.00297C117.288 7.22697 117.694 7.54897 118.011 7.96897C118.329 8.37964 118.52 8.8743 118.585 9.45297H117.367C117.209 8.94897 116.924 8.5523 116.513 8.26297C116.112 7.9643 115.65 7.81497 115.127 7.81497C114.698 7.81497 114.297 7.91297 113.923 8.10897C113.559 8.30497 113.265 8.58964 113.041 8.96297C112.827 9.32697 112.719 9.77964 112.719 10.321C112.719 10.8436 112.827 11.2916 113.041 11.665C113.265 12.029 113.559 12.309 113.923 12.505C114.287 12.6916 114.689 12.785 115.127 12.785C115.725 12.785 116.21 12.6403 116.583 12.351C116.957 12.0616 117.223 11.6556 117.381 11.133H118.585ZM122.868 13.933C122.27 13.933 121.724 13.779 121.23 13.471C120.735 13.163 120.343 12.7383 120.054 12.197C119.764 11.6463 119.62 11.0163 119.62 10.307C119.62 9.59764 119.764 8.9723 120.054 8.43097C120.352 7.8803 120.758 7.45097 121.272 7.14297C121.785 6.82564 122.359 6.66697 122.994 6.66697C123.694 6.66697 124.235 6.8303 124.618 7.15697C125.01 7.48364 125.28 7.9223 125.43 8.47297C125.588 9.02364 125.668 9.63497 125.668 10.307C125.668 10.6803 125.621 11.077 125.528 11.497C125.434 11.917 125.285 12.3136 125.08 12.687C124.874 13.0603 124.59 13.3636 124.226 13.597C123.862 13.821 123.409 13.933 122.868 13.933ZM123.246 12.771C123.74 12.771 124.156 12.6636 124.492 12.449C124.837 12.225 125.094 11.9263 125.262 11.553C125.43 11.1796 125.514 10.7643 125.514 10.307C125.514 9.8123 125.425 9.3783 125.248 9.00497C125.08 8.63164 124.823 8.3423 124.478 8.13697C124.142 7.93164 123.731 7.82897 123.246 7.82897C122.518 7.82897 121.953 8.0623 121.552 8.52897C121.16 8.99564 120.964 9.5883 120.964 10.307C120.964 10.7923 121.062 11.2216 121.258 11.595C121.454 11.959 121.72 12.2483 122.056 12.463C122.401 12.6683 122.798 12.771 123.246 12.771ZM125.514 6.80697H126.858V13.793H125.626C125.626 13.793 125.616 13.709 125.598 13.541C125.579 13.3636 125.56 13.1536 125.542 12.911C125.523 12.6683 125.514 12.4536 125.514 12.267V6.80697ZM128.611 6.80697H129.955V13.793H128.611V6.80697ZM132.321 7.99697C131.835 7.99697 131.42 8.10897 131.075 8.33297C130.739 8.55697 130.468 8.8323 130.263 9.15897C130.067 9.48564 129.936 9.7983 129.871 10.097L129.857 9.29897C129.866 9.20564 129.889 9.06097 129.927 8.86497C129.973 8.65964 130.053 8.43097 130.165 8.17897C130.277 7.92697 130.426 7.68897 130.613 7.46497C130.799 7.23164 131.033 7.0403 131.313 6.89097C131.593 6.74164 131.929 6.66697 132.321 6.66697V7.99697ZM138.922 11.525H140.196C140.122 11.9823 139.944 12.393 139.664 12.757C139.384 13.121 139.016 13.4103 138.558 13.625C138.101 13.8396 137.564 13.947 136.948 13.947C136.22 13.947 135.572 13.793 135.002 13.485C134.433 13.177 133.985 12.7523 133.658 12.211C133.332 11.6696 133.168 11.0396 133.168 10.321C133.168 9.59297 133.327 8.9583 133.644 8.41697C133.962 7.8663 134.4 7.43697 134.96 7.12897C135.52 6.82097 136.16 6.66697 136.878 6.66697C137.634 6.66697 138.269 6.8163 138.782 7.11497C139.296 7.41364 139.674 7.85697 139.916 8.44497C140.168 9.02364 140.271 9.74697 140.224 10.615H134.498C134.545 11.035 134.671 11.4083 134.876 11.735C135.091 12.0616 135.371 12.3183 135.716 12.505C136.071 12.6916 136.477 12.785 136.934 12.785C137.448 12.785 137.877 12.6683 138.222 12.435C138.568 12.2016 138.801 11.8983 138.922 11.525ZM136.892 7.81497C136.286 7.81497 135.782 7.9783 135.38 8.30497C134.979 8.6223 134.713 9.04697 134.582 9.57897H138.88C138.843 9.00964 138.638 8.57564 138.264 8.27697C137.891 7.96897 137.434 7.81497 136.892 7.81497ZM147.03 11.525H148.304C148.229 11.9823 148.052 12.393 147.772 12.757C147.492 13.121 147.123 13.4103 146.666 13.625C146.208 13.8396 145.672 13.947 145.056 13.947C144.328 13.947 143.679 13.793 143.11 13.485C142.54 13.177 142.092 12.7523 141.766 12.211C141.439 11.6696 141.276 11.0396 141.276 10.321C141.276 9.59297 141.434 8.9583 141.752 8.41697C142.069 7.8663 142.508 7.43697 143.068 7.12897C143.628 6.82097 144.267 6.66697 144.986 6.66697C145.742 6.66697 146.376 6.8163 146.89 7.11497C147.403 7.41364 147.781 7.85697 148.024 8.44497C148.276 9.02364 148.378 9.74697 148.332 10.615H142.606C142.652 11.035 142.778 11.4083 142.984 11.735C143.198 12.0616 143.478 12.3183 143.824 12.505C144.178 12.6916 144.584 12.785 145.042 12.785C145.555 12.785 145.984 12.6683 146.33 12.435C146.675 12.2016 146.908 11.8983 147.03 11.525ZM145 7.81497C144.393 7.81497 143.889 7.9783 143.488 8.30497C143.086 8.6223 142.82 9.04697 142.69 9.57897H146.988C146.95 9.00964 146.745 8.57564 146.372 8.27697C145.998 7.96897 145.541 7.81497 145 7.81497ZM149.747 6.80697H151.091V13.793H149.747V6.80697ZM153.457 7.99697C152.972 7.99697 152.557 8.10897 152.211 8.33297C151.875 8.55697 151.605 8.8323 151.399 9.15897C151.203 9.48564 151.073 9.7983 151.007 10.097L150.993 9.29897C151.003 9.20564 151.026 9.06097 151.063 8.86497C151.11 8.65964 151.189 8.43097 151.301 8.17897C151.413 7.92697 151.563 7.68897 151.749 7.46497C151.936 7.23164 152.169 7.0403 152.449 6.89097C152.729 6.74164 153.065 6.66697 153.457 6.66697V7.99697Z" fill="#23A323"/>
</svg>
