<svg width="526" height="199" viewBox="0 0 526 199" fill="none" xmlns="http://www.w3.org/2000/svg">
<g clip-path="url(#clip0_13945_26420)">
<path d="M39.6714 16.3285V22.4335H12.2814V32.0035H34.7214V37.7235H12.2814V51.9135H4.96645V16.3285H39.6714ZM74.2209 51.9135H67.0709V24.5785H74.2209V51.9135ZM67.4559 38.7685L67.5109 40.6385C67.4376 41.1518 67.2542 41.9035 66.9609 42.8935C66.6676 43.8468 66.2092 44.8735 65.5859 45.9735C64.9992 47.0735 64.2292 48.1368 63.2759 49.1635C62.3226 50.1535 61.1492 50.9785 59.7559 51.6385C58.3626 52.2618 56.7126 52.5735 54.8059 52.5735C53.3026 52.5735 51.8176 52.3901 50.3509 52.0235C48.9209 51.6568 47.6192 51.0518 46.4459 50.2085C45.2726 49.3285 44.3376 48.1551 43.6409 46.6885C42.9442 45.2218 42.5959 43.3701 42.5959 41.1335V24.5785H49.7459V39.9235C49.7459 41.6835 50.0209 43.0768 50.5709 44.1035C51.1576 45.0935 52.0009 45.7901 53.1009 46.1935C54.2009 46.5968 55.5026 46.7985 57.0059 46.7985C58.9859 46.7985 60.6909 46.3768 62.1209 45.5335C63.5509 44.6535 64.7059 43.5901 65.5859 42.3435C66.5026 41.0968 67.1259 39.9051 67.4559 38.7685ZM105.646 42.8385H112.576C112.282 44.7085 111.494 46.3768 110.211 47.8435C108.964 49.3101 107.259 50.4651 105.096 51.3085C102.932 52.1518 100.292 52.5735 97.1757 52.5735C93.6923 52.5735 90.6123 52.0235 87.9357 50.9235C85.259 49.7868 83.169 48.1551 81.6657 46.0285C80.1623 43.9018 79.4107 41.3351 79.4107 38.3285C79.4107 35.3218 80.144 32.7551 81.6107 30.6285C83.0773 28.4651 85.1123 26.8151 87.7157 25.6785C90.3557 24.5418 93.4357 23.9735 96.9557 23.9735C100.549 23.9735 103.537 24.5418 105.921 25.6785C108.304 26.8151 110.064 28.5385 111.201 30.8485C112.374 33.1218 112.869 36.0368 112.686 39.5935H86.6157C86.799 40.9868 87.3123 42.2518 88.1557 43.3885C89.0357 44.5251 90.209 45.4235 91.6757 46.0835C93.179 46.7435 94.9573 47.0735 97.0107 47.0735C99.284 47.0735 101.172 46.6885 102.676 45.9185C104.216 45.1118 105.206 44.0851 105.646 42.8385ZM96.6257 29.4185C93.9857 29.4185 91.8407 30.0051 90.1907 31.1785C88.5407 32.3151 87.4773 33.7268 87.0007 35.4135H105.591C105.407 33.5801 104.527 32.1318 102.951 31.0685C101.411 29.9685 99.3023 29.4185 96.6257 29.4185ZM118.556 13.5785H125.706V51.9135H118.556V13.5785ZM141.133 12.5885V18.8585H132.828V12.5885H141.133ZM133.378 24.5785H140.528V51.9135H133.378V24.5785ZM147.654 24.5785H154.804V51.9135H147.654V24.5785ZM167.509 23.9735C169.196 23.9735 170.754 24.1935 172.184 24.6335C173.614 25.0735 174.861 25.7518 175.924 26.6685C176.988 27.5851 177.813 28.7585 178.399 30.1885C178.986 31.5818 179.279 33.2501 179.279 35.1935V51.9135H172.129V36.4585C172.129 34.1485 171.561 32.4618 170.424 31.3985C169.324 30.2985 167.509 29.7485 164.979 29.7485C163.073 29.7485 161.349 30.1151 159.809 30.8485C158.269 31.5818 157.023 32.5168 156.069 33.6535C155.116 34.7535 154.566 35.9085 154.419 37.1185L154.364 34.3135C154.548 33.0301 154.969 31.7835 155.629 30.5735C156.289 29.3635 157.169 28.2635 158.269 27.2735C159.406 26.2468 160.744 25.4401 162.284 24.8535C163.824 24.2668 165.566 23.9735 167.509 23.9735ZM199.429 47.7335C196.459 47.7335 193.838 47.2935 191.564 46.4135C189.328 45.4968 187.586 44.1585 186.339 42.3985C185.093 40.6385 184.469 38.5118 184.469 36.0185C184.469 33.5618 185.074 31.4351 186.284 29.6385C187.494 27.8418 189.218 26.4485 191.454 25.4585C193.728 24.4685 196.386 23.9735 199.429 23.9735C200.273 23.9735 201.079 24.0285 201.849 24.1385C202.656 24.2485 203.444 24.3951 204.214 24.5785L218.019 24.6335V30.0235C216.149 30.0601 214.243 29.8401 212.299 29.3635C210.393 28.8501 208.706 28.3001 207.239 27.7135L207.074 27.3285C208.321 27.9151 209.494 28.6485 210.594 29.5285C211.694 30.3718 212.574 31.3618 213.234 32.4985C213.931 33.5985 214.279 34.8818 214.279 36.3485C214.279 38.7318 213.674 40.7851 212.464 42.5085C211.254 44.1951 209.531 45.4968 207.294 46.4135C205.094 47.2935 202.473 47.7335 199.429 47.7335ZM208.614 63.1885V61.8685C208.614 60.1818 208.064 59.0085 206.964 58.3485C205.901 57.6885 204.434 57.3585 202.564 57.3585H194.039C192.389 57.3585 190.996 57.2301 189.859 56.9735C188.759 56.7168 187.879 56.3501 187.219 55.8735C186.559 55.3968 186.083 54.8285 185.789 54.1685C185.496 53.5451 185.349 52.8668 185.349 52.1335C185.349 50.6668 185.826 49.5668 186.779 48.8335C187.733 48.0635 189.016 47.5501 190.629 47.2935C192.243 47.0368 194.021 46.9818 195.964 47.1285L199.429 47.7335C197.119 47.8068 195.396 48.0085 194.259 48.3385C193.159 48.6318 192.609 49.2368 192.609 50.1535C192.609 50.7035 192.829 51.1435 193.269 51.4735C193.709 51.7668 194.333 51.9135 195.139 51.9135H204.104C206.561 51.9135 208.651 52.1701 210.374 52.6835C212.134 53.2335 213.473 54.1318 214.389 55.3785C215.306 56.6618 215.764 58.4035 215.764 60.6035V63.1885H208.614ZM199.429 42.5635C201.006 42.5635 202.381 42.3068 203.554 41.7935C204.764 41.2801 205.699 40.5468 206.359 39.5935C207.019 38.6035 207.349 37.4301 207.349 36.0735C207.349 34.6801 207.019 33.4885 206.359 32.4985C205.699 31.5085 204.783 30.7568 203.609 30.2435C202.436 29.6935 201.043 29.4185 199.429 29.4185C197.853 29.4185 196.459 29.6935 195.249 30.2435C194.039 30.7568 193.104 31.5085 192.444 32.4985C191.784 33.4885 191.454 34.6801 191.454 36.0735C191.454 37.4301 191.784 38.6035 192.444 39.5935C193.104 40.5468 194.021 41.2801 195.194 41.7935C196.404 42.3068 197.816 42.5635 199.429 42.5635ZM233.48 24.5785H241.07L252.895 50.8135L246.735 51.9135L233.48 24.5785ZM266.92 24.5785L248 62.9135H240.575L248.66 47.8435L259.275 24.5785H266.92ZM285.962 52.5735C282.515 52.5735 279.472 52.0235 276.832 50.9235C274.229 49.8235 272.194 48.2285 270.727 46.1385C269.26 44.0118 268.527 41.4085 268.527 38.3285C268.527 35.2485 269.26 32.6451 270.727 30.5185C272.194 28.3551 274.229 26.7235 276.832 25.6235C279.472 24.5235 282.515 23.9735 285.962 23.9735C289.409 23.9735 292.415 24.5235 294.982 25.6235C297.585 26.7235 299.62 28.3551 301.087 30.5185C302.554 32.6451 303.287 35.2485 303.287 38.3285C303.287 41.4085 302.554 44.0118 301.087 46.1385C299.62 48.2285 297.585 49.8235 294.982 50.9235C292.415 52.0235 289.409 52.5735 285.962 52.5735ZM285.962 47.0735C287.869 47.0735 289.574 46.7435 291.077 46.0835C292.617 45.3868 293.827 44.3968 294.707 43.1135C295.587 41.7935 296.027 40.1985 296.027 38.3285C296.027 36.4585 295.587 34.8635 294.707 33.5435C293.827 32.1868 292.635 31.1601 291.132 30.4635C289.629 29.7668 287.905 29.4185 285.962 29.4185C284.055 29.4185 282.332 29.7668 280.792 30.4635C279.252 31.1601 278.024 32.1685 277.107 33.4885C276.227 34.8085 275.787 36.4218 275.787 38.3285C275.787 40.1985 276.227 41.7935 277.107 43.1135C277.987 44.3968 279.197 45.3868 280.737 46.0835C282.277 46.7435 284.019 47.0735 285.962 47.0735ZM340.197 51.9135H333.047V24.5785H340.197V51.9135ZM333.432 38.7685L333.487 40.6385C333.414 41.1518 333.231 41.9035 332.937 42.8935C332.644 43.8468 332.186 44.8735 331.562 45.9735C330.976 47.0735 330.206 48.1368 329.252 49.1635C328.299 50.1535 327.126 50.9785 325.732 51.6385C324.339 52.2618 322.689 52.5735 320.782 52.5735C319.279 52.5735 317.794 52.3901 316.327 52.0235C314.897 51.6568 313.596 51.0518 312.422 50.2085C311.249 49.3285 310.314 48.1551 309.617 46.6885C308.921 45.2218 308.572 43.3701 308.572 41.1335V24.5785H315.722V39.9235C315.722 41.6835 315.997 43.0768 316.547 44.1035C317.134 45.0935 317.977 45.7901 319.077 46.1935C320.177 46.5968 321.479 46.7985 322.982 46.7985C324.962 46.7985 326.667 46.3768 328.097 45.5335C329.527 44.6535 330.682 43.5901 331.562 42.3435C332.479 41.0968 333.102 39.9051 333.432 38.7685ZM346.707 24.5785H353.857V51.9135H346.707V24.5785ZM364.362 30.4635C362.309 30.4635 360.531 30.8668 359.027 31.6735C357.524 32.4435 356.314 33.3968 355.397 34.5335C354.481 35.6701 353.839 36.7701 353.472 37.8335L353.417 34.8085C353.454 34.3685 353.601 33.7268 353.857 32.8835C354.114 32.0035 354.499 31.0685 355.012 30.0785C355.526 29.0518 356.204 28.0801 357.047 27.1635C357.891 26.2101 358.917 25.4401 360.127 24.8535C361.337 24.2668 362.749 23.9735 364.362 23.9735V30.4635ZM2.10645 156.578H23.3364V162.133H2.10645V156.578ZM9.14645 149.098H16.2964V183.913H9.14645V149.098ZM52.8491 183.913V168.898C52.8491 167.395 52.5924 166.148 52.0791 165.158C51.5658 164.168 50.7408 163.417 49.6041 162.903C48.5041 162.39 47.0191 162.133 45.1491 162.133C43.3524 162.133 41.7208 162.482 40.2541 163.178C38.7874 163.838 37.5958 164.718 36.6791 165.818C35.7624 166.882 35.2491 168.018 35.1391 169.228L35.0841 166.203C35.2674 164.993 35.6891 163.783 36.3491 162.573C37.0091 161.363 37.8891 160.263 38.9891 159.273C40.0891 158.283 41.4091 157.495 42.9491 156.908C44.5258 156.285 46.2858 155.973 48.2291 155.973C49.9158 155.973 51.4741 156.193 52.9041 156.633C54.3341 157.037 55.5808 157.678 56.6441 158.558C57.7074 159.438 58.5324 160.538 59.1191 161.858C59.7058 163.142 59.9991 164.663 59.9991 166.423V183.913H52.8491ZM28.3741 183.913V145.578H35.5241V183.913H28.3741ZM66.4973 156.578H73.6473V183.913H66.4973V156.578ZM84.1523 162.463C82.0989 162.463 80.3206 162.867 78.8173 163.673C77.3139 164.443 76.1039 165.397 75.1873 166.533C74.2706 167.67 73.6289 168.77 73.2623 169.833L73.2073 166.808C73.2439 166.368 73.3906 165.727 73.6473 164.883C73.9039 164.003 74.2889 163.068 74.8023 162.078C75.3156 161.052 75.9939 160.08 76.8373 159.163C77.6806 158.21 78.7073 157.44 79.9173 156.853C81.1273 156.267 82.5389 155.973 84.1523 155.973V162.463ZM104.687 184.573C101.241 184.573 98.1975 184.023 95.5575 182.923C92.9541 181.823 90.9191 180.228 89.4525 178.138C87.9858 176.012 87.2525 173.408 87.2525 170.328C87.2525 167.248 87.9858 164.645 89.4525 162.518C90.9191 160.355 92.9541 158.723 95.5575 157.623C98.1975 156.523 101.241 155.973 104.687 155.973C108.134 155.973 111.141 156.523 113.707 157.623C116.311 158.723 118.346 160.355 119.812 162.518C121.279 164.645 122.012 167.248 122.012 170.328C122.012 173.408 121.279 176.012 119.812 178.138C118.346 180.228 116.311 181.823 113.707 182.923C111.141 184.023 108.134 184.573 104.687 184.573ZM104.687 179.073C106.594 179.073 108.299 178.743 109.802 178.083C111.342 177.387 112.552 176.397 113.432 175.113C114.312 173.793 114.752 172.198 114.752 170.328C114.752 168.458 114.312 166.863 113.432 165.543C112.552 164.187 111.361 163.16 109.857 162.463C108.354 161.767 106.631 161.418 104.687 161.418C102.781 161.418 101.057 161.767 99.5175 162.463C97.9775 163.16 96.7491 164.168 95.8325 165.488C94.9525 166.808 94.5125 168.422 94.5125 170.328C94.5125 172.198 94.9525 173.793 95.8325 175.113C96.7125 176.397 97.9225 177.387 99.4625 178.083C101.002 178.743 102.744 179.073 104.687 179.073ZM158.923 183.913H151.773V156.578H158.923V183.913ZM152.158 170.768L152.213 172.638C152.14 173.152 151.956 173.903 151.663 174.893C151.37 175.847 150.911 176.873 150.288 177.973C149.701 179.073 148.931 180.137 147.978 181.163C147.025 182.153 145.851 182.978 144.458 183.638C143.065 184.262 141.415 184.573 139.508 184.573C138.005 184.573 136.52 184.39 135.053 184.023C133.623 183.657 132.321 183.052 131.148 182.208C129.975 181.328 129.04 180.155 128.343 178.688C127.646 177.222 127.298 175.37 127.298 173.133V156.578H134.448V171.923C134.448 173.683 134.723 175.077 135.273 176.103C135.86 177.093 136.703 177.79 137.803 178.193C138.903 178.597 140.205 178.798 141.708 178.798C143.688 178.798 145.393 178.377 146.823 177.533C148.253 176.653 149.408 175.59 150.288 174.343C151.205 173.097 151.828 171.905 152.158 170.768ZM179.073 179.733C176.103 179.733 173.481 179.293 171.208 178.413C168.971 177.497 167.229 176.158 165.983 174.398C164.736 172.638 164.113 170.512 164.113 168.018C164.113 165.562 164.718 163.435 165.928 161.638C167.138 159.842 168.861 158.448 171.098 157.458C173.371 156.468 176.029 155.973 179.073 155.973C179.916 155.973 180.723 156.028 181.493 156.138C182.299 156.248 183.088 156.395 183.858 156.578L197.663 156.633V162.023C195.793 162.06 193.886 161.84 191.943 161.363C190.036 160.85 188.349 160.3 186.883 159.713L186.718 159.328C187.964 159.915 189.138 160.648 190.238 161.528C191.338 162.372 192.218 163.362 192.878 164.498C193.574 165.598 193.923 166.882 193.923 168.348C193.923 170.732 193.318 172.785 192.108 174.508C190.898 176.195 189.174 177.497 186.938 178.413C184.738 179.293 182.116 179.733 179.073 179.733ZM188.258 195.188V193.868C188.258 192.182 187.708 191.008 186.608 190.348C185.544 189.688 184.078 189.358 182.208 189.358H173.683C172.033 189.358 170.639 189.23 169.503 188.973C168.403 188.717 167.523 188.35 166.863 187.873C166.203 187.397 165.726 186.828 165.433 186.168C165.139 185.545 164.993 184.867 164.993 184.133C164.993 182.667 165.469 181.567 166.423 180.833C167.376 180.063 168.659 179.55 170.273 179.293C171.886 179.037 173.664 178.982 175.608 179.128L179.073 179.733C176.763 179.807 175.039 180.008 173.903 180.338C172.803 180.632 172.253 181.237 172.253 182.153C172.253 182.703 172.473 183.143 172.913 183.473C173.353 183.767 173.976 183.913 174.783 183.913H183.748C186.204 183.913 188.294 184.17 190.018 184.683C191.778 185.233 193.116 186.132 194.033 187.378C194.949 188.662 195.408 190.403 195.408 192.603V195.188H188.258ZM179.073 174.563C180.649 174.563 182.024 174.307 183.198 173.793C184.408 173.28 185.343 172.547 186.003 171.593C186.663 170.603 186.993 169.43 186.993 168.073C186.993 166.68 186.663 165.488 186.003 164.498C185.343 163.508 184.426 162.757 183.253 162.243C182.079 161.693 180.686 161.418 179.073 161.418C177.496 161.418 176.103 161.693 174.893 162.243C173.683 162.757 172.748 163.508 172.088 164.498C171.428 165.488 171.098 166.68 171.098 168.073C171.098 169.43 171.428 170.603 172.088 171.593C172.748 172.547 173.664 173.28 174.838 173.793C176.048 174.307 177.459 174.563 179.073 174.563ZM227.302 183.913V168.898C227.302 167.395 227.046 166.148 226.532 165.158C226.019 164.168 225.194 163.417 224.057 162.903C222.957 162.39 221.472 162.133 219.602 162.133C217.806 162.133 216.174 162.482 214.707 163.178C213.241 163.838 212.049 164.718 211.132 165.818C210.216 166.882 209.702 168.018 209.592 169.228L209.537 166.203C209.721 164.993 210.142 163.783 210.802 162.573C211.462 161.363 212.342 160.263 213.442 159.273C214.542 158.283 215.862 157.495 217.402 156.908C218.979 156.285 220.739 155.973 222.682 155.973C224.369 155.973 225.927 156.193 227.357 156.633C228.787 157.037 230.034 157.678 231.097 158.558C232.161 159.438 232.986 160.538 233.572 161.858C234.159 163.142 234.452 164.663 234.452 166.423V183.913H227.302ZM202.827 183.913V145.578H209.977V183.913H202.827ZM286.667 173.133C286.484 175.517 285.714 177.57 284.357 179.293C283.037 181.017 281.204 182.337 278.857 183.253C276.51 184.133 273.724 184.573 270.497 184.573C267.124 184.573 264.099 184.042 261.422 182.978C258.782 181.878 256.692 180.283 255.152 178.193C253.649 176.067 252.897 173.445 252.897 170.328C252.897 167.212 253.649 164.59 255.152 162.463C256.692 160.337 258.782 158.723 261.422 157.623C264.099 156.523 267.124 155.973 270.497 155.973C273.724 155.973 276.492 156.432 278.802 157.348C281.112 158.228 282.927 159.512 284.247 161.198C285.604 162.885 286.392 164.92 286.612 167.303H280.067C279.444 165.47 278.289 164.04 276.602 163.013C274.915 161.987 272.88 161.473 270.497 161.473C268.59 161.473 266.849 161.803 265.272 162.463C263.732 163.123 262.485 164.113 261.532 165.433C260.615 166.717 260.157 168.348 260.157 170.328C260.157 172.272 260.615 173.903 261.532 175.223C262.449 176.507 263.695 177.478 265.272 178.138C266.849 178.762 268.59 179.073 270.497 179.073C273.064 179.073 275.154 178.56 276.767 177.533C278.417 176.507 279.535 175.04 280.122 173.133H286.667ZM291.922 156.578H299.072V183.913H291.922V156.578ZM309.577 162.463C307.524 162.463 305.745 162.867 304.242 163.673C302.739 164.443 301.529 165.397 300.612 166.533C299.695 167.67 299.054 168.77 298.687 169.833L298.632 166.808C298.669 166.368 298.815 165.727 299.072 164.883C299.329 164.003 299.714 163.068 300.227 162.078C300.74 161.052 301.419 160.08 302.262 159.163C303.105 158.21 304.132 157.44 305.342 156.853C306.552 156.267 307.964 155.973 309.577 155.973V162.463ZM338.912 174.838H345.842C345.549 176.708 344.761 178.377 343.477 179.843C342.231 181.31 340.526 182.465 338.362 183.308C336.199 184.152 333.559 184.573 330.442 184.573C326.959 184.573 323.879 184.023 321.202 182.923C318.526 181.787 316.436 180.155 314.932 178.028C313.429 175.902 312.677 173.335 312.677 170.328C312.677 167.322 313.411 164.755 314.877 162.628C316.344 160.465 318.379 158.815 320.982 157.678C323.622 156.542 326.702 155.973 330.222 155.973C333.816 155.973 336.804 156.542 339.187 157.678C341.571 158.815 343.331 160.538 344.467 162.848C345.641 165.122 346.136 168.037 345.952 171.593H319.882C320.066 172.987 320.579 174.252 321.422 175.388C322.302 176.525 323.476 177.423 324.942 178.083C326.446 178.743 328.224 179.073 330.277 179.073C332.551 179.073 334.439 178.688 335.942 177.918C337.482 177.112 338.472 176.085 338.912 174.838ZM329.892 161.418C327.252 161.418 325.107 162.005 323.457 163.178C321.807 164.315 320.744 165.727 320.267 167.413H338.857C338.674 165.58 337.794 164.132 336.217 163.068C334.677 161.968 332.569 161.418 329.892 161.418ZM364.583 184.518C361.833 184.518 359.339 183.932 357.103 182.758C354.903 181.548 353.161 179.88 351.878 177.753C350.594 175.59 349.953 173.097 349.953 170.273C349.953 167.377 350.576 164.865 351.823 162.738C353.106 160.612 354.848 158.962 357.048 157.788C359.248 156.578 361.759 155.973 364.583 155.973C367.039 155.973 369.129 156.34 370.853 157.073C372.576 157.807 373.969 158.833 375.033 160.153C376.096 161.437 376.866 162.94 377.343 164.663C377.856 166.387 378.113 168.257 378.113 170.273C378.113 171.887 377.856 173.537 377.343 175.223C376.829 176.873 376.041 178.413 374.978 179.843C373.914 181.237 372.521 182.373 370.798 183.253C369.074 184.097 367.003 184.518 364.583 184.518ZM366.893 179.018C369.056 179.018 370.926 178.652 372.503 177.918C374.079 177.185 375.289 176.158 376.133 174.838C376.976 173.518 377.398 171.997 377.398 170.273C377.398 168.403 376.958 166.827 376.078 165.543C375.234 164.223 374.024 163.215 372.448 162.518C370.908 161.822 369.056 161.473 366.893 161.473C363.849 161.473 361.484 162.28 359.798 163.893C358.111 165.507 357.268 167.633 357.268 170.273C357.268 172.033 357.671 173.573 358.478 174.893C359.284 176.177 360.403 177.185 361.833 177.918C363.299 178.652 364.986 179.018 366.893 179.018ZM377.398 145.578H384.548V183.913H377.893C377.783 183.07 377.673 181.988 377.563 180.668C377.453 179.312 377.398 178.047 377.398 176.873V145.578ZM400.449 144.588V150.858H392.144V144.588H400.449ZM392.694 156.578H399.844V183.913H392.694V156.578ZM405.046 156.578H426.276V162.133H405.046V156.578ZM412.086 149.098H419.236V183.913H412.086V149.098Z" fill="#0E390E"/>
<path d="M25.0964 118.518C22.6764 118.518 20.6048 118.097 18.8814 117.253C17.1581 116.373 15.7648 115.237 14.7014 113.843C13.6381 112.413 12.8498 110.873 12.3364 109.223C11.8231 107.537 11.5664 105.887 11.5664 104.273C11.5664 102.257 11.8048 100.387 12.2814 98.6635C12.7948 96.9401 13.5831 95.4368 14.6464 94.1535C15.7098 92.8335 17.1031 91.8068 18.8264 91.0735C20.5498 90.3401 22.6398 89.9735 25.0964 89.9735C27.9198 89.9735 30.4131 90.5785 32.5764 91.7885C34.7764 92.9618 36.4998 94.6118 37.7464 96.7385C39.0298 98.8651 39.6714 101.377 39.6714 104.273C39.6714 107.097 39.0298 109.59 37.7464 111.753C36.4631 113.88 34.7214 115.548 32.5214 116.758C30.3214 117.932 27.8464 118.518 25.0964 118.518ZM22.7864 113.018C24.7298 113.018 26.4164 112.652 27.8464 111.918C29.2764 111.185 30.3764 110.177 31.1464 108.893C31.9531 107.573 32.3564 106.033 32.3564 104.273C32.3564 101.633 31.5131 99.5068 29.8264 97.8935C28.1764 96.2801 25.8298 95.4735 22.7864 95.4735C20.6598 95.4735 18.8081 95.8218 17.2314 96.5185C15.6548 97.2151 14.4264 98.2235 13.5464 99.5435C12.7031 100.827 12.2814 102.403 12.2814 104.273C12.2814 105.997 12.7031 107.518 13.5464 108.838C14.3898 110.158 15.5998 111.185 17.1764 111.918C18.7531 112.652 20.6231 113.018 22.7864 113.018ZM12.2814 79.5785V110.873C12.2814 112.047 12.2264 113.312 12.1164 114.668C12.0064 115.988 11.8964 117.07 11.7864 117.913H5.13145V79.5785H12.2814ZM76.5842 117.913H69.4342V90.5785H76.5842V117.913ZM69.8192 104.768L69.8742 106.638C69.8008 107.152 69.6175 107.903 69.3242 108.893C69.0308 109.847 68.5725 110.873 67.9492 111.973C67.3625 113.073 66.5925 114.137 65.6392 115.163C64.6858 116.153 63.5125 116.978 62.1192 117.638C60.7258 118.262 59.0758 118.573 57.1692 118.573C55.6658 118.573 54.1808 118.39 52.7142 118.023C51.2842 117.657 49.9825 117.052 48.8092 116.208C47.6358 115.328 46.7008 114.155 46.0042 112.688C45.3075 111.222 44.9592 109.37 44.9592 107.133V90.5785H52.1092V105.923C52.1092 107.683 52.3842 109.077 52.9342 110.103C53.5208 111.093 54.3642 111.79 55.4642 112.193C56.5642 112.597 57.8658 112.798 59.3692 112.798C61.3492 112.798 63.0542 112.377 64.4842 111.533C65.9142 110.653 67.0692 109.59 67.9492 108.343C68.8658 107.097 69.4892 105.905 69.8192 104.768ZM81.9939 108.838H88.5939C88.9973 110.085 89.8223 111.112 91.0689 111.918C92.3523 112.688 94.0206 113.073 96.0739 113.073C97.4673 113.073 98.5489 112.945 99.3189 112.688C100.089 112.432 100.621 112.065 100.914 111.588C101.207 111.075 101.354 110.507 101.354 109.883C101.354 109.113 101.116 108.527 100.639 108.123C100.162 107.683 99.4289 107.335 98.4389 107.078C97.4489 106.822 96.1839 106.583 94.6439 106.363C93.1039 106.107 91.6189 105.795 90.1889 105.428C88.7589 105.062 87.4939 104.585 86.3939 103.998C85.2939 103.375 84.4139 102.605 83.7539 101.688C83.1306 100.735 82.8189 99.5801 82.8189 98.2235C82.8189 96.9035 83.1306 95.7301 83.7539 94.7035C84.4139 93.6768 85.3123 92.8151 86.4489 92.1185C87.6223 91.4218 88.9789 90.8901 90.5189 90.5235C92.0956 90.1568 93.7823 89.9735 95.5789 89.9735C98.2923 89.9735 100.547 90.3768 102.344 91.1835C104.141 91.9535 105.479 93.0535 106.359 94.4835C107.276 95.8768 107.734 97.4901 107.734 99.3235H101.409C101.116 97.9668 100.529 96.9951 99.6489 96.4085C98.7689 95.7851 97.4123 95.4735 95.5789 95.4735C93.7823 95.4735 92.4256 95.7485 91.5089 96.2985C90.5923 96.8485 90.1339 97.6001 90.1339 98.5535C90.1339 99.3235 90.4089 99.9285 90.9589 100.368C91.5456 100.772 92.3889 101.102 93.4889 101.358C94.6256 101.615 96.0373 101.89 97.7239 102.183C99.1539 102.477 100.511 102.807 101.794 103.173C103.114 103.54 104.287 104.017 105.314 104.603C106.341 105.153 107.147 105.905 107.734 106.858C108.357 107.775 108.669 108.948 108.669 110.378C108.669 112.138 108.156 113.623 107.129 114.833C106.139 116.043 104.709 116.978 102.839 117.638C100.969 118.262 98.7323 118.573 96.1289 118.573C93.8189 118.573 91.8206 118.335 90.1339 117.858C88.4839 117.345 87.1089 116.703 86.0089 115.933C84.9089 115.127 84.0473 114.283 83.4239 113.403C82.8373 112.487 82.4339 111.625 82.2139 110.818C81.9939 110.012 81.9206 109.352 81.9939 108.838ZM122.334 78.5885V84.8585H114.029V78.5885H122.334ZM114.579 90.5785H121.729V117.913H114.579V90.5785ZM128.856 90.5785H136.006V117.913H128.856V90.5785ZM148.711 89.9735C150.397 89.9735 151.956 90.1935 153.386 90.6335C154.816 91.0735 156.062 91.7518 157.126 92.6685C158.189 93.5851 159.014 94.7585 159.601 96.1885C160.187 97.5818 160.481 99.2501 160.481 101.193V117.913H153.331V102.458C153.331 100.148 152.762 98.4618 151.626 97.3985C150.526 96.2985 148.711 95.7485 146.181 95.7485C144.274 95.7485 142.551 96.1151 141.011 96.8485C139.471 97.5818 138.224 98.5168 137.271 99.6535C136.317 100.753 135.767 101.908 135.621 103.118L135.566 100.313C135.749 99.0301 136.171 97.7835 136.831 96.5735C137.491 95.3635 138.371 94.2635 139.471 93.2735C140.607 92.2468 141.946 91.4401 143.486 90.8535C145.026 90.2668 146.767 89.9735 148.711 89.9735ZM191.905 108.838H198.835C198.542 110.708 197.754 112.377 196.47 113.843C195.224 115.31 193.519 116.465 191.355 117.308C189.192 118.152 186.552 118.573 183.435 118.573C179.952 118.573 176.872 118.023 174.195 116.923C171.519 115.787 169.429 114.155 167.925 112.028C166.422 109.902 165.67 107.335 165.67 104.328C165.67 101.322 166.404 98.7551 167.87 96.6285C169.337 94.4651 171.372 92.8151 173.975 91.6785C176.615 90.5418 179.695 89.9735 183.215 89.9735C186.809 89.9735 189.797 90.5418 192.18 91.6785C194.564 92.8151 196.324 94.5385 197.46 96.8485C198.634 99.1218 199.129 102.037 198.945 105.593H172.875C173.059 106.987 173.572 108.252 174.415 109.388C175.295 110.525 176.469 111.423 177.935 112.083C179.439 112.743 181.217 113.073 183.27 113.073C185.544 113.073 187.432 112.688 188.935 111.918C190.475 111.112 191.465 110.085 191.905 108.838ZM182.885 95.4185C180.245 95.4185 178.1 96.0051 176.45 97.1785C174.8 98.3151 173.737 99.7268 173.26 101.413H191.85C191.667 99.5801 190.787 98.1318 189.21 97.0685C187.67 95.9685 185.562 95.4185 182.885 95.4185ZM203.166 108.838H209.766C210.169 110.085 210.994 111.112 212.241 111.918C213.524 112.688 215.192 113.073 217.246 113.073C218.639 113.073 219.721 112.945 220.491 112.688C221.261 112.432 221.792 112.065 222.086 111.588C222.379 111.075 222.526 110.507 222.526 109.883C222.526 109.113 222.287 108.527 221.811 108.123C221.334 107.683 220.601 107.335 219.611 107.078C218.621 106.822 217.356 106.583 215.816 106.363C214.276 106.107 212.791 105.795 211.361 105.428C209.931 105.062 208.666 104.585 207.566 103.998C206.466 103.375 205.586 102.605 204.926 101.688C204.302 100.735 203.991 99.5801 203.991 98.2235C203.991 96.9035 204.302 95.7301 204.926 94.7035C205.586 93.6768 206.484 92.8151 207.621 92.1185C208.794 91.4218 210.151 90.8901 211.691 90.5235C213.267 90.1568 214.954 89.9735 216.751 89.9735C219.464 89.9735 221.719 90.3768 223.516 91.1835C225.312 91.9535 226.651 93.0535 227.531 94.4835C228.447 95.8768 228.906 97.4901 228.906 99.3235H222.581C222.287 97.9668 221.701 96.9951 220.821 96.4085C219.941 95.7851 218.584 95.4735 216.751 95.4735C214.954 95.4735 213.597 95.7485 212.681 96.2985C211.764 96.8485 211.306 97.6001 211.306 98.5535C211.306 99.3235 211.581 99.9285 212.131 100.368C212.717 100.772 213.561 101.102 214.661 101.358C215.797 101.615 217.209 101.89 218.896 102.183C220.326 102.477 221.682 102.807 222.966 103.173C224.286 103.54 225.459 104.017 226.486 104.603C227.512 105.153 228.319 105.905 228.906 106.858C229.529 107.775 229.841 108.948 229.841 110.378C229.841 112.138 229.327 113.623 228.301 114.833C227.311 116.043 225.881 116.978 224.011 117.638C222.141 118.262 219.904 118.573 217.301 118.573C214.991 118.573 212.992 118.335 211.306 117.858C209.656 117.345 208.281 116.703 207.181 115.933C206.081 115.127 205.219 114.283 204.596 113.403C204.009 112.487 203.606 111.625 203.386 110.818C203.166 110.012 203.092 109.352 203.166 108.838ZM234.211 108.838H240.811C241.214 110.085 242.039 111.112 243.286 111.918C244.569 112.688 246.237 113.073 248.291 113.073C249.684 113.073 250.766 112.945 251.536 112.688C252.306 112.432 252.837 112.065 253.131 111.588C253.424 111.075 253.571 110.507 253.571 109.883C253.571 109.113 253.332 108.527 252.856 108.123C252.379 107.683 251.646 107.335 250.656 107.078C249.666 106.822 248.401 106.583 246.861 106.363C245.321 106.107 243.836 105.795 242.406 105.428C240.976 105.062 239.711 104.585 238.611 103.998C237.511 103.375 236.631 102.605 235.971 101.688C235.347 100.735 235.036 99.5801 235.036 98.2235C235.036 96.9035 235.347 95.7301 235.971 94.7035C236.631 93.6768 237.529 92.8151 238.666 92.1185C239.839 91.4218 241.196 90.8901 242.736 90.5235C244.312 90.1568 245.999 89.9735 247.796 89.9735C250.509 89.9735 252.764 90.3768 254.561 91.1835C256.357 91.9535 257.696 93.0535 258.576 94.4835C259.492 95.8768 259.951 97.4901 259.951 99.3235H253.626C253.332 97.9668 252.746 96.9951 251.866 96.4085C250.986 95.7851 249.629 95.4735 247.796 95.4735C245.999 95.4735 244.642 95.7485 243.726 96.2985C242.809 96.8485 242.351 97.6001 242.351 98.5535C242.351 99.3235 242.626 99.9285 243.176 100.368C243.762 100.772 244.606 101.102 245.706 101.358C246.842 101.615 248.254 101.89 249.941 102.183C251.371 102.477 252.727 102.807 254.011 103.173C255.331 103.54 256.504 104.017 257.531 104.603C258.557 105.153 259.364 105.905 259.951 106.858C260.574 107.775 260.886 108.948 260.886 110.378C260.886 112.138 260.372 113.623 259.346 114.833C258.356 116.043 256.926 116.978 255.056 117.638C253.186 118.262 250.949 118.573 248.346 118.573C246.036 118.573 244.037 118.335 242.351 117.858C240.701 117.345 239.326 116.703 238.226 115.933C237.126 115.127 236.264 114.283 235.641 113.403C235.054 112.487 234.651 111.625 234.431 110.818C234.211 110.012 234.137 109.352 234.211 108.838ZM293.262 113.733C290.292 113.733 287.671 113.293 285.397 112.413C283.161 111.497 281.419 110.158 280.172 108.398C278.926 106.638 278.302 104.512 278.302 102.018C278.302 99.5618 278.907 97.4351 280.117 95.6385C281.327 93.8418 283.051 92.4485 285.287 91.4585C287.561 90.4685 290.219 89.9735 293.262 89.9735C294.106 89.9735 294.912 90.0285 295.682 90.1385C296.489 90.2485 297.277 90.3951 298.047 90.5785L311.852 90.6335V96.0235C309.982 96.0601 308.076 95.8401 306.132 95.3635C304.226 94.8501 302.539 94.3001 301.072 93.7135L300.907 93.3285C302.154 93.9151 303.327 94.6485 304.427 95.5285C305.527 96.3718 306.407 97.3618 307.067 98.4985C307.764 99.5985 308.112 100.882 308.112 102.348C308.112 104.732 307.507 106.785 306.297 108.508C305.087 110.195 303.364 111.497 301.127 112.413C298.927 113.293 296.306 113.733 293.262 113.733ZM302.447 129.188V127.868C302.447 126.182 301.897 125.008 300.797 124.348C299.734 123.688 298.267 123.358 296.397 123.358H287.872C286.222 123.358 284.829 123.23 283.692 122.973C282.592 122.717 281.712 122.35 281.052 121.873C280.392 121.397 279.916 120.828 279.622 120.168C279.329 119.545 279.182 118.867 279.182 118.133C279.182 116.667 279.659 115.567 280.612 114.833C281.566 114.063 282.849 113.55 284.462 113.293C286.076 113.037 287.854 112.982 289.797 113.128L293.262 113.733C290.952 113.807 289.229 114.008 288.092 114.338C286.992 114.632 286.442 115.237 286.442 116.153C286.442 116.703 286.662 117.143 287.102 117.473C287.542 117.767 288.166 117.913 288.972 117.913H297.937C300.394 117.913 302.484 118.17 304.207 118.683C305.967 119.233 307.306 120.132 308.222 121.378C309.139 122.662 309.597 124.403 309.597 126.603V129.188H302.447ZM293.262 108.563C294.839 108.563 296.214 108.307 297.387 107.793C298.597 107.28 299.532 106.547 300.192 105.593C300.852 104.603 301.182 103.43 301.182 102.073C301.182 100.68 300.852 99.4885 300.192 98.4985C299.532 97.5085 298.616 96.7568 297.442 96.2435C296.269 95.6935 294.876 95.4185 293.262 95.4185C291.686 95.4185 290.292 95.6935 289.082 96.2435C287.872 96.7568 286.937 97.5085 286.277 98.4985C285.617 99.4885 285.287 100.68 285.287 102.073C285.287 103.43 285.617 104.603 286.277 105.593C286.937 106.547 287.854 107.28 289.027 107.793C290.237 108.307 291.649 108.563 293.262 108.563ZM316.522 90.5785H323.672V117.913H316.522V90.5785ZM334.177 96.4635C332.123 96.4635 330.345 96.8668 328.842 97.6735C327.338 98.4435 326.128 99.3968 325.212 100.533C324.295 101.67 323.653 102.77 323.287 103.833L323.232 100.808C323.268 100.368 323.415 99.7268 323.672 98.8835C323.928 98.0035 324.313 97.0685 324.827 96.0785C325.34 95.0518 326.018 94.0801 326.862 93.1635C327.705 92.2101 328.732 91.4401 329.942 90.8535C331.152 90.2668 332.563 89.9735 334.177 89.9735V96.4635ZM354.712 118.573C351.265 118.573 348.222 118.023 345.582 116.923C342.979 115.823 340.944 114.228 339.477 112.138C338.01 110.012 337.277 107.408 337.277 104.328C337.277 101.248 338.01 98.6451 339.477 96.5185C340.944 94.3551 342.979 92.7235 345.582 91.6235C348.222 90.5235 351.265 89.9735 354.712 89.9735C358.159 89.9735 361.165 90.5235 363.732 91.6235C366.335 92.7235 368.37 94.3551 369.837 96.5185C371.304 98.6451 372.037 101.248 372.037 104.328C372.037 107.408 371.304 110.012 369.837 112.138C368.37 114.228 366.335 115.823 363.732 116.923C361.165 118.023 358.159 118.573 354.712 118.573ZM354.712 113.073C356.619 113.073 358.324 112.743 359.827 112.083C361.367 111.387 362.577 110.397 363.457 109.113C364.337 107.793 364.777 106.198 364.777 104.328C364.777 102.458 364.337 100.863 363.457 99.5435C362.577 98.1868 361.385 97.1601 359.882 96.4635C358.379 95.7668 356.655 95.4185 354.712 95.4185C352.805 95.4185 351.082 95.7668 349.542 96.4635C348.002 97.1601 346.774 98.1685 345.857 99.4885C344.977 100.808 344.537 102.422 344.537 104.328C344.537 106.198 344.977 107.793 345.857 109.113C346.737 110.397 347.947 111.387 349.487 112.083C351.027 112.743 352.769 113.073 354.712 113.073ZM411.888 112.963L409.633 112.908L418.543 90.5785H426.408L414.363 117.913H407.653L398.853 95.8585H401.273L392.198 117.913H385.488L373.773 90.5785H381.638L390.218 112.963H387.963L395.993 90.5785H404.188L411.888 112.963ZM428.679 90.5785H449.909V96.1335H428.679V90.5785ZM435.719 83.0985H442.869V117.913H435.719V83.0985ZM479.421 117.913V102.898C479.421 101.395 479.165 100.148 478.651 99.1585C478.138 98.1685 477.313 97.4168 476.176 96.9035C475.076 96.3901 473.591 96.1335 471.721 96.1335C469.925 96.1335 468.293 96.4818 466.826 97.1785C465.36 97.8385 464.168 98.7185 463.251 99.8185C462.335 100.882 461.821 102.018 461.711 103.228L461.656 100.203C461.84 98.9935 462.261 97.7835 462.921 96.5735C463.581 95.3635 464.461 94.2635 465.561 93.2735C466.661 92.2835 467.981 91.4951 469.521 90.9085C471.098 90.2851 472.858 89.9735 474.801 89.9735C476.488 89.9735 478.046 90.1935 479.476 90.6335C480.906 91.0368 482.153 91.6785 483.216 92.5585C484.28 93.4385 485.105 94.5385 485.691 95.8585C486.278 97.1418 486.571 98.6635 486.571 100.423V117.913H479.421ZM454.946 117.913V79.5785H462.096V117.913H454.946Z" fill="#23A323"/>
<circle cx="414.571" cy="34.4988" r="27.1174" fill="#FFBD00" stroke="white"/>
<circle cx="455.806" cy="34.4988" r="27.1174" fill="#23A323" stroke="white" stroke-width="6"/>
<path d="M452.052 23.9907L462.139 34.0784L452.052 44.166" stroke="white" stroke-width="3.09087" stroke-miterlimit="10" stroke-linecap="round" stroke-linejoin="round"/>
<path d="M411.612 33.4995L461.21 33.4995" stroke="white" stroke-width="3.09087" stroke-miterlimit="10" stroke-linecap="round" stroke-linejoin="round"/>
</g>
<defs>
<clipPath id="clip0_13945_26420">
<rect width="525" height="198" fill="white" transform="translate(0.731445 0.913452)"/>
</clipPath>
</defs>
</svg>
