<svg width="147" height="48" viewBox="0 0 147 48" fill="none" xmlns="http://www.w3.org/2000/svg">
<g clip-path="url(#clip0_5591_56151)">
<path d="M32.1684 15.208C31.2084 15.208 30.339 15.096 29.5604 14.872C28.7924 14.648 28.1257 14.312 27.5604 13.864C27.0057 13.416 26.579 12.8613 26.2804 12.2C25.9817 11.5387 25.8324 10.776 25.8324 9.912C25.8324 9.03733 25.987 8.264 26.2964 7.592C26.6164 6.90933 27.0644 6.33333 27.6404 5.864C28.227 5.39467 28.9204 5.04267 29.7204 4.808C30.531 4.56267 31.427 4.44 32.4084 4.44C33.571 4.44 34.5737 4.60533 35.4164 4.936C36.259 5.256 36.9204 5.70933 37.4004 6.296C37.891 6.88267 38.1684 7.58133 38.2324 8.392H36.1844C36.0457 7.96533 35.8164 7.59733 35.4964 7.288C35.187 6.968 34.7764 6.72267 34.2644 6.552C33.7524 6.37067 33.1337 6.28 32.4084 6.28C31.4804 6.28 30.6857 6.42933 30.0244 6.728C29.3737 7.02667 28.8777 7.448 28.5364 7.992C28.195 8.536 28.0244 9.176 28.0244 9.912C28.0244 10.6267 28.1737 11.2453 28.4724 11.768C28.771 12.28 29.2297 12.6747 29.8484 12.952C30.4777 13.2293 31.2777 13.368 32.2484 13.368C32.995 13.368 33.651 13.272 34.2164 13.08C34.7924 12.8773 35.2724 12.6107 35.6564 12.28C36.0404 11.9387 36.3124 11.56 36.4724 11.144L37.3044 10.84C37.1657 12.216 36.643 13.288 35.7364 14.056C34.8404 14.824 33.651 15.208 32.1684 15.208ZM36.7604 15C36.7604 14.6693 36.7817 14.2907 36.8244 13.864C36.867 13.4267 36.9204 12.9893 36.9844 12.552C37.0484 12.104 37.107 11.6933 37.1604 11.32H32.4244V9.96H38.6004V15H36.7604ZM47.8174 12.36H49.8334C49.748 12.904 49.5187 13.3893 49.1454 13.816C48.7827 14.2427 48.2867 14.5787 47.6574 14.824C47.028 15.0693 46.26 15.192 45.3534 15.192C44.34 15.192 43.444 15.032 42.6654 14.712C41.8867 14.3813 41.2787 13.9067 40.8414 13.288C40.404 12.6693 40.1854 11.9227 40.1854 11.048C40.1854 10.1733 40.3987 9.42667 40.8254 8.808C41.252 8.17867 41.844 7.69867 42.6014 7.368C43.3694 7.03733 44.2654 6.872 45.2894 6.872C46.3347 6.872 47.204 7.03733 47.8974 7.368C48.5907 7.69867 49.1027 8.2 49.4334 8.872C49.7747 9.53333 49.9187 10.3813 49.8654 11.416H42.2814C42.3347 11.8213 42.484 12.1893 42.7294 12.52C42.9854 12.8507 43.3267 13.112 43.7534 13.304C44.1907 13.496 44.708 13.592 45.3054 13.592C45.9667 13.592 46.516 13.48 46.9534 13.256C47.4014 13.0213 47.6894 12.7227 47.8174 12.36ZM45.1934 8.456C44.4254 8.456 43.8014 8.62667 43.3214 8.968C42.8414 9.29867 42.532 9.70933 42.3934 10.2H47.8014C47.748 9.66667 47.492 9.24533 47.0334 8.936C46.5854 8.616 45.972 8.456 45.1934 8.456ZM50.7438 7.048H56.9198V8.664H50.7438V7.048ZM52.7918 4.872H54.8718V15H52.7918V4.872ZM61.6846 11.512H63.8446C63.8873 11.8747 64.0526 12.2053 64.3406 12.504C64.6393 12.792 65.0286 13.0213 65.5086 13.192C65.9886 13.352 66.5273 13.432 67.1246 13.432C67.6686 13.432 68.1166 13.3733 68.4686 13.256C68.8206 13.1387 69.082 12.9733 69.2526 12.76C69.4233 12.5467 69.5086 12.2907 69.5086 11.992C69.5086 11.704 69.402 11.4853 69.1886 11.336C68.9753 11.176 68.6393 11.048 68.1806 10.952C67.722 10.8453 67.1193 10.7387 66.3726 10.632C65.786 10.5467 65.2313 10.4293 64.7086 10.28C64.186 10.12 63.722 9.91733 63.3166 9.672C62.922 9.42667 62.6073 9.128 62.3726 8.776C62.1486 8.41333 62.0366 7.98667 62.0366 7.496C62.0366 6.888 62.2073 6.35467 62.5486 5.896C62.9006 5.43733 63.418 5.08 64.1006 4.824C64.7833 4.568 65.6206 4.44 66.6126 4.44C68.106 4.44 69.2526 4.76 70.0526 5.4C70.8633 6.02933 71.258 6.89867 71.2366 8.008H69.1566C69.114 7.37867 68.8473 6.92533 68.3566 6.648C67.8766 6.37067 67.2686 6.232 66.5326 6.232C65.85 6.232 65.2846 6.33333 64.8366 6.536C64.3993 6.73867 64.1806 7.08533 64.1806 7.576C64.1806 7.768 64.234 7.93867 64.3406 8.088C64.4473 8.22667 64.6286 8.34933 64.8846 8.456C65.1406 8.56267 65.4873 8.664 65.9246 8.76C66.362 8.856 66.906 8.952 67.5566 9.048C68.1646 9.13333 68.714 9.25067 69.2046 9.4C69.706 9.53867 70.1326 9.72533 70.4846 9.96C70.8473 10.184 71.1246 10.472 71.3166 10.824C71.5086 11.176 71.6046 11.608 71.6046 12.12C71.6046 12.7493 71.4393 13.2987 71.1086 13.768C70.7886 14.2267 70.2873 14.584 69.6046 14.84C68.9326 15.096 68.058 15.224 66.9806 15.224C66.2126 15.224 65.5353 15.144 64.9486 14.984C64.362 14.8133 63.8553 14.5893 63.4286 14.312C63.002 14.0347 62.6553 13.7307 62.3886 13.4C62.122 13.0693 61.93 12.7387 61.8126 12.408C61.706 12.0773 61.6633 11.7787 61.6846 11.512ZM72.65 7.048H78.826V8.664H72.65V7.048ZM74.698 4.872H76.778V15H74.698V4.872ZM83.9101 15.176C83.1208 15.176 82.4008 15.0053 81.7501 14.664C81.1101 14.312 80.5981 13.8267 80.2141 13.208C79.8408 12.5787 79.6541 11.8533 79.6541 11.032C79.6541 10.1893 79.8461 9.45867 80.2301 8.84C80.6141 8.22133 81.1315 7.74133 81.7821 7.4C82.4435 7.048 83.1901 6.872 84.0221 6.872C84.9395 6.872 85.6755 7.05867 86.2301 7.432C86.7955 7.79467 87.2061 8.29067 87.4621 8.92C87.7181 9.54933 87.8461 10.2533 87.8461 11.032C87.8461 11.5013 87.7715 11.9813 87.6221 12.472C87.4728 12.952 87.2435 13.4 86.9341 13.816C86.6248 14.2213 86.2195 14.552 85.7181 14.808C85.2168 15.0533 84.6141 15.176 83.9101 15.176ZM84.5821 13.576C85.2115 13.576 85.7555 13.4693 86.2141 13.256C86.6728 13.0427 87.0248 12.744 87.2701 12.36C87.5155 11.976 87.6381 11.5333 87.6381 11.032C87.6381 10.488 87.5101 10.0293 87.2541 9.656C87.0088 9.272 86.6568 8.984 86.1981 8.792C85.7501 8.58933 85.2115 8.488 84.5821 8.488C83.6968 8.488 83.0088 8.72267 82.5181 9.192C82.0275 9.65067 81.7821 10.264 81.7821 11.032C81.7821 11.544 81.8995 11.992 82.1341 12.376C82.3688 12.7493 82.6941 13.0427 83.1101 13.256C83.5368 13.4693 84.0275 13.576 84.5821 13.576ZM87.6381 7.048H89.7181V15H87.7821C87.7821 15 87.7661 14.8987 87.7341 14.696C87.7128 14.4827 87.6915 14.216 87.6701 13.896C87.6488 13.576 87.6381 13.2613 87.6381 12.952V7.048ZM91.6006 7.048H93.6806V15H91.6006V7.048ZM96.7366 8.76C96.1393 8.76 95.622 8.87733 95.1846 9.112C94.7473 9.336 94.3953 9.61333 94.1286 9.944C93.862 10.2747 93.6753 10.5947 93.5686 10.904L93.5526 10.024C93.5633 9.896 93.606 9.70933 93.6806 9.464C93.7553 9.208 93.8673 8.936 94.0166 8.648C94.166 8.34933 94.3633 8.06667 94.6086 7.8C94.854 7.52267 95.1526 7.29867 95.5046 7.128C95.8566 6.95733 96.2673 6.872 96.7366 6.872V8.76ZM97.5094 7.048H103.685V8.664H97.5094V7.048ZM99.5574 4.872H101.637V15H99.5574V4.872ZM112.146 12.36H114.162C114.076 12.904 113.847 13.3893 113.474 13.816C113.111 14.2427 112.615 14.5787 111.986 14.824C111.356 15.0693 110.588 15.192 109.682 15.192C108.668 15.192 107.772 15.032 106.994 14.712C106.215 14.3813 105.607 13.9067 105.17 13.288C104.732 12.6693 104.514 11.9227 104.514 11.048C104.514 10.1733 104.727 9.42667 105.154 8.808C105.58 8.17867 106.172 7.69867 106.93 7.368C107.698 7.03733 108.594 6.872 109.618 6.872C110.663 6.872 111.532 7.03733 112.226 7.368C112.919 7.69867 113.431 8.2 113.762 8.872C114.103 9.53333 114.247 10.3813 114.194 11.416H106.61C106.663 11.8213 106.812 12.1893 107.058 12.52C107.314 12.8507 107.655 13.112 108.082 13.304C108.519 13.496 109.036 13.592 109.634 13.592C110.295 13.592 110.844 13.48 111.282 13.256C111.73 13.0213 112.018 12.7227 112.146 12.36ZM109.522 8.456C108.754 8.456 108.13 8.62667 107.65 8.968C107.17 9.29867 106.86 9.70933 106.722 10.2H112.13C112.076 9.66667 111.82 9.24533 111.362 8.936C110.914 8.616 110.3 8.456 109.522 8.456ZM119.613 15.176C118.813 15.176 118.088 15.0053 117.437 14.664C116.797 14.312 116.291 13.8267 115.917 13.208C115.544 12.5787 115.357 11.8533 115.357 11.032C115.357 10.1893 115.539 9.45867 115.901 8.84C116.275 8.22133 116.781 7.74133 117.421 7.4C118.061 7.048 118.792 6.872 119.613 6.872C120.328 6.872 120.936 6.97867 121.437 7.192C121.939 7.40533 122.344 7.704 122.653 8.088C122.963 8.46133 123.187 8.89867 123.325 9.4C123.475 9.90133 123.549 10.4453 123.549 11.032C123.549 11.5013 123.475 11.9813 123.325 12.472C123.176 12.952 122.947 13.4 122.637 13.816C122.328 14.2213 121.923 14.552 121.421 14.808C120.92 15.0533 120.317 15.176 119.613 15.176ZM120.285 13.576C120.915 13.576 121.459 13.4693 121.917 13.256C122.376 13.0427 122.728 12.744 122.973 12.36C123.219 11.976 123.341 11.5333 123.341 11.032C123.341 10.488 123.213 10.0293 122.957 9.656C122.712 9.272 122.36 8.97867 121.901 8.776C121.453 8.57333 120.915 8.472 120.285 8.472C119.4 8.472 118.712 8.70667 118.221 9.176C117.731 9.64533 117.485 10.264 117.485 11.032C117.485 11.544 117.603 11.992 117.837 12.376C118.072 12.7493 118.397 13.0427 118.813 13.256C119.24 13.4693 119.731 13.576 120.285 13.576ZM123.341 3.848H125.421V15H123.485C123.453 14.7547 123.421 14.44 123.389 14.056C123.357 13.6613 123.341 13.2933 123.341 12.952V3.848Z" fill="white"/>
<path d="M0.9375 47.0907C26.6571 36.305 91.786 21.2049 146.545 47.0907" stroke="#FFBD00" stroke-width="4" stroke-linecap="round"/>
</g>
<defs>
<clipPath id="clip0_5591_56151">
<rect width="145.607" height="47.0907" fill="white" transform="translate(0.9375)"/>
</clipPath>
</defs>
</svg>
