<svg width="1080" height="391" viewBox="0 0 1080 391" fill="none" xmlns="http://www.w3.org/2000/svg">
<g clip-path="url(#clip0_4821_48670)">
<g filter="url(#filter0_d_4821_48670)">
<rect x="0.330078" y="47.0703" width="387.312" height="308.842" rx="8" fill="#23A323"/>
</g>
<path d="M63.0587 225.894H77.3387V228.804H63.0587V225.894ZM76.8587 217.644H80.2487V237.084H76.8587V217.644ZM60.0287 217.644H63.4487V237.084H60.0287V217.644ZM91.111 237.414C89.751 237.414 88.501 237.084 87.361 236.424C86.241 235.764 85.341 234.854 84.661 233.694C84.001 232.514 83.671 231.164 83.671 229.644C83.671 228.084 84.011 226.724 84.691 225.564C85.371 224.384 86.291 223.464 87.451 222.804C88.611 222.144 89.911 221.814 91.351 221.814C92.951 221.814 94.221 222.164 95.161 222.864C96.101 223.564 96.771 224.504 97.171 225.684C97.571 226.864 97.771 228.184 97.771 229.644C97.771 230.464 97.651 231.334 97.411 232.254C97.171 233.154 96.791 233.994 96.271 234.774C95.771 235.554 95.091 236.194 94.231 236.694C93.391 237.174 92.351 237.414 91.111 237.414ZM92.131 234.654C93.251 234.654 94.201 234.444 94.981 234.024C95.781 233.584 96.381 232.984 96.781 232.224C97.201 231.464 97.411 230.604 97.411 229.644C97.411 228.584 97.201 227.684 96.781 226.944C96.361 226.184 95.761 225.604 94.981 225.204C94.201 224.784 93.251 224.574 92.131 224.574C90.531 224.574 89.291 225.044 88.411 225.984C87.531 226.924 87.091 228.144 87.091 229.644C87.091 230.624 87.301 231.494 87.721 232.254C88.161 233.014 88.761 233.604 89.521 234.024C90.281 234.444 91.151 234.654 92.131 234.654ZM97.411 222.144H100.771V237.084H97.651C97.651 237.084 97.631 236.894 97.591 236.514C97.551 236.134 97.511 235.674 97.471 235.134C97.431 234.574 97.411 234.044 97.411 233.544V222.144ZM104.431 222.144H107.761V237.084H104.431V222.144ZM113.161 224.994C112.081 224.994 111.151 225.224 110.371 225.684C109.611 226.144 109.001 226.704 108.541 227.364C108.081 228.024 107.761 228.664 107.581 229.284L107.551 227.604C107.571 227.384 107.641 227.054 107.761 226.614C107.881 226.154 108.061 225.654 108.301 225.114C108.561 224.574 108.901 224.054 109.321 223.554C109.761 223.034 110.291 222.614 110.911 222.294C111.551 221.974 112.301 221.814 113.161 221.814V224.994ZM122.341 234.774C120.941 234.774 119.671 234.524 118.531 234.024C117.411 233.524 116.521 232.794 115.861 231.834C115.221 230.874 114.901 229.724 114.901 228.384C114.901 227.044 115.211 225.884 115.831 224.904C116.471 223.924 117.351 223.164 118.471 222.624C119.611 222.084 120.901 221.814 122.341 221.814C122.761 221.814 123.161 221.844 123.541 221.904C123.941 221.964 124.321 222.044 124.681 222.144L131.671 222.174V224.964C130.711 224.984 129.741 224.854 128.761 224.574C127.801 224.274 126.951 223.964 126.211 223.644L126.121 223.464C126.801 223.804 127.411 224.224 127.951 224.724C128.511 225.204 128.951 225.754 129.271 226.374C129.591 226.994 129.751 227.694 129.751 228.474C129.751 229.794 129.431 230.924 128.791 231.864C128.171 232.804 127.301 233.524 126.181 234.024C125.081 234.524 123.801 234.774 122.341 234.774ZM127.141 243.174V242.484C127.141 241.504 126.851 240.814 126.271 240.414C125.691 240.014 124.881 239.814 123.841 239.814H119.791C118.991 239.814 118.301 239.744 117.721 239.604C117.161 239.484 116.711 239.294 116.371 239.034C116.031 238.794 115.781 238.504 115.621 238.164C115.461 237.844 115.381 237.484 115.381 237.084C115.381 236.284 115.621 235.684 116.101 235.284C116.601 234.884 117.251 234.624 118.051 234.504C118.871 234.384 119.731 234.364 120.631 234.444L122.341 234.774C121.161 234.814 120.261 234.924 119.641 235.104C119.041 235.264 118.741 235.594 118.741 236.094C118.741 236.394 118.861 236.634 119.101 236.814C119.341 236.994 119.681 237.084 120.121 237.084H124.381C125.601 237.084 126.671 237.224 127.591 237.504C128.511 237.804 129.221 238.294 129.721 238.974C130.241 239.674 130.501 240.624 130.501 241.824V243.174H127.141ZM122.341 232.164C123.141 232.164 123.851 232.014 124.471 231.714C125.091 231.414 125.581 230.984 125.941 230.424C126.301 229.864 126.481 229.184 126.481 228.384C126.481 227.584 126.301 226.894 125.941 226.314C125.581 225.734 125.091 225.294 124.471 224.994C123.851 224.694 123.141 224.544 122.341 224.544C121.561 224.544 120.851 224.694 120.211 224.994C119.591 225.294 119.101 225.734 118.741 226.314C118.381 226.874 118.201 227.564 118.201 228.384C118.201 229.184 118.381 229.864 118.741 230.424C119.101 230.984 119.591 231.414 120.211 231.714C120.831 232.014 121.541 232.164 122.341 232.164ZM142.118 237.414C140.458 237.414 138.968 237.114 137.648 236.514C136.328 235.914 135.288 235.034 134.528 233.874C133.768 232.714 133.388 231.304 133.388 229.644C133.388 228.004 133.768 226.604 134.528 225.444C135.288 224.264 136.328 223.364 137.648 222.744C138.968 222.124 140.458 221.814 142.118 221.814C143.778 221.814 145.258 222.124 146.558 222.744C147.858 223.364 148.878 224.264 149.618 225.444C150.378 226.604 150.758 228.004 150.758 229.644C150.758 231.304 150.378 232.714 149.618 233.874C148.878 235.034 147.858 235.914 146.558 236.514C145.258 237.114 143.778 237.414 142.118 237.414ZM142.118 234.684C143.078 234.684 143.958 234.494 144.758 234.114C145.558 233.734 146.188 233.164 146.648 232.404C147.128 231.644 147.368 230.724 147.368 229.644C147.368 228.564 147.128 227.644 146.648 226.884C146.188 226.124 145.558 225.544 144.758 225.144C143.978 224.724 143.098 224.514 142.118 224.514C141.138 224.514 140.248 224.714 139.448 225.114C138.648 225.514 137.998 226.094 137.498 226.854C137.018 227.614 136.778 228.544 136.778 229.644C136.778 230.724 137.018 231.644 137.498 232.404C137.978 233.164 138.618 233.734 139.418 234.114C140.238 234.494 141.138 234.684 142.118 234.684ZM153.738 222.144H157.068V237.084H153.738V222.144ZM163.368 221.814C164.228 221.814 165.018 221.934 165.738 222.174C166.478 222.414 167.108 222.784 167.628 223.284C168.168 223.764 168.578 224.364 168.858 225.084C169.158 225.804 169.308 226.654 169.308 227.634V237.084H165.978V228.294C165.978 227.074 165.678 226.174 165.078 225.594C164.498 224.994 163.578 224.694 162.318 224.694C161.358 224.694 160.478 224.904 159.678 225.324C158.898 225.724 158.258 226.254 157.758 226.914C157.258 227.554 156.968 228.264 156.888 229.044L156.858 227.424C156.958 226.684 157.178 225.984 157.518 225.324C157.858 224.644 158.308 224.044 158.868 223.524C159.428 222.984 160.088 222.564 160.848 222.264C161.608 221.964 162.448 221.814 163.368 221.814ZM183.08 232.524V229.614H194.66V232.524H183.08ZM178.58 237.084L187.07 217.644H190.73L199.28 237.084H195.59L188.15 219.534H189.65L182.24 237.084H178.58ZM217.66 231.294C217.54 232.574 217.13 233.674 216.43 234.594C215.73 235.514 214.79 236.214 213.61 236.694C212.45 237.174 211.11 237.414 209.59 237.414C207.95 237.414 206.46 237.114 205.12 236.514C203.8 235.914 202.75 235.034 201.97 233.874C201.19 232.714 200.8 231.304 200.8 229.644C200.8 227.984 201.19 226.574 201.97 225.414C202.75 224.254 203.8 223.364 205.12 222.744C206.46 222.124 207.95 221.814 209.59 221.814C211.11 221.814 212.45 222.064 213.61 222.564C214.77 223.044 215.7 223.734 216.4 224.634C217.1 225.534 217.51 226.624 217.63 227.904H214.57C214.23 226.844 213.61 226.024 212.71 225.444C211.83 224.844 210.79 224.544 209.59 224.544C208.61 224.544 207.71 224.744 206.89 225.144C206.07 225.524 205.41 226.094 204.91 226.854C204.43 227.594 204.19 228.524 204.19 229.644C204.19 230.744 204.43 231.674 204.91 232.434C205.41 233.194 206.07 233.764 206.89 234.144C207.71 234.504 208.61 234.684 209.59 234.684C210.91 234.684 211.99 234.394 212.83 233.814C213.69 233.214 214.28 232.374 214.6 231.294H217.66ZM236.674 231.294C236.554 232.574 236.144 233.674 235.444 234.594C234.744 235.514 233.804 236.214 232.624 236.694C231.464 237.174 230.124 237.414 228.604 237.414C226.964 237.414 225.474 237.114 224.134 236.514C222.814 235.914 221.764 235.034 220.984 233.874C220.204 232.714 219.814 231.304 219.814 229.644C219.814 227.984 220.204 226.574 220.984 225.414C221.764 224.254 222.814 223.364 224.134 222.744C225.474 222.124 226.964 221.814 228.604 221.814C230.124 221.814 231.464 222.064 232.624 222.564C233.784 223.044 234.714 223.734 235.414 224.634C236.114 225.534 236.524 226.624 236.644 227.904H233.584C233.244 226.844 232.624 226.024 231.724 225.444C230.844 224.844 229.804 224.544 228.604 224.544C227.624 224.544 226.724 224.744 225.904 225.144C225.084 225.524 224.424 226.094 223.924 226.854C223.444 227.594 223.204 228.524 223.204 229.644C223.204 230.744 223.444 231.674 223.924 232.434C224.424 233.194 225.084 233.764 225.904 234.144C226.724 234.504 227.624 234.684 228.604 234.684C229.924 234.684 231.004 234.394 231.844 233.814C232.704 233.214 233.294 232.374 233.614 231.294H236.674ZM247.557 237.414C245.897 237.414 244.407 237.114 243.087 236.514C241.767 235.914 240.727 235.034 239.967 233.874C239.207 232.714 238.827 231.304 238.827 229.644C238.827 228.004 239.207 226.604 239.967 225.444C240.727 224.264 241.767 223.364 243.087 222.744C244.407 222.124 245.897 221.814 247.557 221.814C249.217 221.814 250.697 222.124 251.997 222.744C253.297 223.364 254.317 224.264 255.057 225.444C255.817 226.604 256.197 228.004 256.197 229.644C256.197 231.304 255.817 232.714 255.057 233.874C254.317 235.034 253.297 235.914 251.997 236.514C250.697 237.114 249.217 237.414 247.557 237.414ZM247.557 234.684C248.517 234.684 249.397 234.494 250.197 234.114C250.997 233.734 251.627 233.164 252.087 232.404C252.567 231.644 252.807 230.724 252.807 229.644C252.807 228.564 252.567 227.644 252.087 226.884C251.627 226.124 250.997 225.544 250.197 225.144C249.417 224.724 248.537 224.514 247.557 224.514C246.577 224.514 245.687 224.714 244.887 225.114C244.087 225.514 243.437 226.094 242.937 226.854C242.457 227.614 242.217 228.544 242.217 229.644C242.217 230.724 242.457 231.644 242.937 232.404C243.417 233.164 244.057 233.734 244.857 234.114C245.677 234.494 246.577 234.684 247.557 234.684ZM274.748 237.084H271.418V222.144H274.748V237.084ZM271.598 229.974L271.628 230.934C271.588 231.194 271.498 231.584 271.358 232.104C271.238 232.624 271.028 233.194 270.728 233.814C270.448 234.414 270.068 234.994 269.588 235.554C269.128 236.094 268.548 236.544 267.848 236.904C267.148 237.244 266.298 237.414 265.298 237.414C264.578 237.414 263.848 237.314 263.108 237.114C262.388 236.934 261.728 236.624 261.128 236.184C260.548 235.744 260.078 235.144 259.718 234.384C259.358 233.624 259.178 232.664 259.178 231.504V222.144H262.508V230.874C262.508 231.814 262.658 232.554 262.958 233.094C263.278 233.614 263.718 233.984 264.278 234.204C264.838 234.424 265.488 234.534 266.228 234.534C267.288 234.534 268.188 234.294 268.928 233.814C269.668 233.334 270.258 232.744 270.698 232.044C271.158 231.324 271.458 230.634 271.598 229.974ZM278.426 222.144H281.756V237.084H278.426V222.144ZM288.056 221.814C288.916 221.814 289.706 221.934 290.426 222.174C291.166 222.414 291.796 222.784 292.316 223.284C292.856 223.764 293.266 224.364 293.546 225.084C293.846 225.804 293.996 226.654 293.996 227.634V237.084H290.666V228.294C290.666 227.074 290.366 226.174 289.766 225.594C289.186 224.994 288.266 224.694 287.006 224.694C286.046 224.694 285.166 224.904 284.366 225.324C283.586 225.724 282.946 226.254 282.446 226.914C281.946 227.554 281.656 228.264 281.576 229.044L281.546 227.424C281.646 226.684 281.866 225.984 282.206 225.324C282.546 224.644 282.996 224.044 283.556 223.524C284.116 222.984 284.776 222.564 285.536 222.264C286.296 221.964 287.136 221.814 288.056 221.814ZM296.624 222.144H307.184V224.874H296.624V222.144ZM300.224 218.124H303.584V237.084H300.224V218.124Z" fill="white"/>
<g opacity="0.6" filter="url(#filter1_f_4821_48670)">
<rect x="335.357" y="89.9902" width="52.2847" height="239.779" rx="8" fill="black"/>
</g>
<g filter="url(#filter2_d_4821_48670)">
<rect x="335.357" y="46.6973" width="387.312" height="308.842" rx="8" fill="#FFA529"/>
<rect x="335.357" y="46.6973" width="387.312" height="308.842" rx="8" stroke="#FFBD00" stroke-width="2"/>
</g>
<path d="M423.26 227.057L423.29 226.907C424.31 226.947 425.25 227.057 426.11 227.237C426.97 227.397 427.71 227.657 428.33 228.017C428.97 228.377 429.46 228.867 429.8 229.487C430.16 230.107 430.34 230.887 430.34 231.827C430.34 232.907 430.02 233.877 429.38 234.737C428.76 235.597 427.88 236.277 426.74 236.777C425.6 237.277 424.26 237.527 422.72 237.527C421.24 237.527 419.93 237.257 418.79 236.717C417.65 236.197 416.77 235.487 416.15 234.587C415.55 233.687 415.29 232.667 415.37 231.527H418.52C418.54 232.127 418.71 232.657 419.03 233.117C419.37 233.577 419.85 233.937 420.47 234.197C421.11 234.457 421.86 234.587 422.72 234.587C424.04 234.587 425.05 234.307 425.75 233.747C426.47 233.207 426.83 232.437 426.83 231.437C426.83 230.437 426.42 229.697 425.6 229.217C424.8 228.717 423.67 228.467 422.21 228.467H419.96V225.767H422.21C423.21 225.767 424.03 225.677 424.67 225.497C425.31 225.297 425.78 224.997 426.08 224.597C426.38 224.177 426.53 223.667 426.53 223.067C426.53 222.207 426.22 221.527 425.6 221.027C425 220.527 424.04 220.277 422.72 220.277C421.5 220.277 420.54 220.537 419.84 221.057C419.14 221.577 418.78 222.267 418.76 223.127H415.58C415.52 222.247 415.66 221.457 416 220.757C416.36 220.057 416.87 219.457 417.53 218.957C418.21 218.437 418.99 218.037 419.87 217.757C420.77 217.477 421.72 217.337 422.72 217.337C424.22 217.337 425.51 217.567 426.59 218.027C427.69 218.467 428.53 219.087 429.11 219.887C429.69 220.687 429.98 221.607 429.98 222.647C429.98 223.507 429.81 224.217 429.47 224.777C429.15 225.337 428.68 225.787 428.06 226.127C427.46 226.447 426.75 226.677 425.93 226.817C425.13 226.957 424.24 227.037 423.26 227.057ZM440.202 217.697H443.532V232.637H440.202V217.697ZM449.832 217.367C450.692 217.367 451.482 217.487 452.202 217.727C452.942 217.967 453.572 218.337 454.092 218.837C454.632 219.317 455.042 219.917 455.322 220.637C455.622 221.357 455.772 222.207 455.772 223.187V232.637H452.442V223.847C452.442 222.627 452.142 221.727 451.542 221.147C450.962 220.547 450.042 220.247 448.782 220.247C447.822 220.247 446.942 220.457 446.142 220.877C445.362 221.277 444.722 221.807 444.222 222.467C443.722 223.107 443.432 223.817 443.352 224.597L443.322 222.977C443.422 222.237 443.642 221.537 443.982 220.877C444.322 220.197 444.772 219.597 445.332 219.077C445.892 218.537 446.552 218.117 447.312 217.817C448.072 217.517 448.912 217.367 449.832 217.367ZM461.742 217.367C462.622 217.367 463.422 217.487 464.142 217.727C464.862 217.967 465.482 218.337 466.002 218.837C466.542 219.317 466.962 219.917 467.262 220.637C467.562 221.357 467.712 222.207 467.712 223.187V232.637H464.352V223.847C464.352 222.627 464.052 221.727 463.452 221.147C462.872 220.547 461.952 220.247 460.692 220.247C459.732 220.247 458.852 220.457 458.052 220.877C457.272 221.277 456.632 221.807 456.132 222.467C455.652 223.107 455.372 223.817 455.292 224.597L455.232 222.917C455.332 222.197 455.562 221.507 455.922 220.847C456.282 220.167 456.742 219.567 457.302 219.047C457.862 218.527 458.512 218.117 459.252 217.817C460.012 217.517 460.842 217.367 461.742 217.367ZM479.324 232.967C477.664 232.967 476.174 232.667 474.854 232.067C473.534 231.467 472.494 230.587 471.734 229.427C470.974 228.267 470.594 226.857 470.594 225.197C470.594 223.557 470.974 222.157 471.734 220.997C472.494 219.817 473.534 218.917 474.854 218.297C476.174 217.677 477.664 217.367 479.324 217.367C480.984 217.367 482.464 217.677 483.764 218.297C485.064 218.917 486.084 219.817 486.824 220.997C487.584 222.157 487.964 223.557 487.964 225.197C487.964 226.857 487.584 228.267 486.824 229.427C486.084 230.587 485.064 231.467 483.764 232.067C482.464 232.667 480.984 232.967 479.324 232.967ZM479.324 230.237C480.284 230.237 481.164 230.047 481.964 229.667C482.764 229.287 483.394 228.717 483.854 227.957C484.334 227.197 484.574 226.277 484.574 225.197C484.574 224.117 484.334 223.197 483.854 222.437C483.394 221.677 482.764 221.097 481.964 220.697C481.184 220.277 480.304 220.067 479.324 220.067C478.344 220.067 477.454 220.267 476.654 220.667C475.854 221.067 475.204 221.647 474.704 222.407C474.224 223.167 473.984 224.097 473.984 225.197C473.984 226.277 474.224 227.197 474.704 227.957C475.184 228.717 475.824 229.287 476.624 229.667C477.444 230.047 478.344 230.237 479.324 230.237ZM490.944 217.697H494.274V232.637H490.944V217.697ZM500.574 217.367C501.434 217.367 502.224 217.487 502.944 217.727C503.684 217.967 504.314 218.337 504.834 218.837C505.374 219.317 505.784 219.917 506.064 220.637C506.364 221.357 506.514 222.207 506.514 223.187V232.637H503.184V223.847C503.184 222.627 502.884 221.727 502.284 221.147C501.704 220.547 500.784 220.247 499.524 220.247C498.564 220.247 497.684 220.457 496.884 220.877C496.104 221.277 495.464 221.807 494.964 222.467C494.464 223.107 494.174 223.817 494.094 224.597L494.064 222.977C494.164 222.237 494.384 221.537 494.724 220.877C495.064 220.197 495.514 219.597 496.074 219.077C496.634 218.537 497.294 218.117 498.054 217.817C498.814 217.517 499.654 217.367 500.574 217.367ZM509.143 217.697H519.703V220.427H509.143V217.697ZM512.743 213.677H516.103V232.637H512.743V213.677ZM534.861 232.637V223.997C534.861 223.197 534.721 222.537 534.441 222.017C534.181 221.477 533.771 221.067 533.211 220.787C532.651 220.507 531.911 220.367 530.991 220.367C530.071 220.367 529.231 220.567 528.471 220.967C527.711 221.347 527.091 221.857 526.611 222.497C526.131 223.137 525.851 223.847 525.771 224.627L525.741 222.947C525.841 222.227 526.061 221.537 526.401 220.877C526.741 220.197 527.191 219.597 527.751 219.077C528.311 218.557 528.971 218.147 529.731 217.847C530.491 217.527 531.331 217.367 532.251 217.367C533.111 217.367 533.901 217.487 534.621 217.727C535.361 217.967 535.991 218.327 536.511 218.807C537.051 219.267 537.461 219.847 537.741 220.547C538.041 221.227 538.191 222.017 538.191 222.917V232.637H534.861ZM522.621 232.637V211.697H525.951V232.637H522.621ZM541.232 227.717H544.322C544.482 228.477 544.892 229.097 545.552 229.577C546.212 230.037 547.102 230.267 548.222 230.267C548.942 230.267 549.502 230.187 549.902 230.027C550.322 229.867 550.612 229.647 550.772 229.367C550.952 229.087 551.042 228.767 551.042 228.407C551.042 227.967 550.912 227.627 550.652 227.387C550.412 227.147 550.052 226.947 549.572 226.787C549.092 226.627 548.492 226.487 547.772 226.367C547.032 226.187 546.302 225.987 545.582 225.767C544.862 225.547 544.212 225.277 543.632 224.957C543.052 224.617 542.592 224.197 542.252 223.697C541.932 223.177 541.772 222.547 541.772 221.807C541.772 221.127 541.922 220.517 542.222 219.977C542.542 219.417 542.982 218.947 543.542 218.567C544.102 218.187 544.762 217.897 545.522 217.697C546.282 217.477 547.112 217.367 548.012 217.367C549.312 217.367 550.392 217.577 551.252 217.997C552.132 218.417 552.792 219.007 553.232 219.767C553.692 220.527 553.922 221.397 553.922 222.377H550.982C550.822 221.577 550.512 220.997 550.052 220.637C549.592 220.277 548.902 220.097 547.982 220.097C547.062 220.097 546.362 220.257 545.882 220.577C545.402 220.897 545.162 221.337 545.162 221.897C545.162 222.317 545.312 222.657 545.612 222.917C545.932 223.157 546.382 223.367 546.962 223.547C547.542 223.727 548.222 223.907 549.002 224.087C549.722 224.287 550.402 224.497 551.042 224.717C551.682 224.917 552.252 225.177 552.752 225.497C553.272 225.797 553.682 226.197 553.982 226.697C554.282 227.197 554.432 227.817 554.432 228.557C554.432 229.477 554.182 230.267 553.682 230.927C553.202 231.587 552.502 232.097 551.582 232.457C550.662 232.797 549.552 232.967 548.252 232.967C547.112 232.967 546.122 232.837 545.282 232.577C544.462 232.317 543.772 231.977 543.212 231.557C542.672 231.137 542.252 230.687 541.952 230.207C541.652 229.727 541.442 229.267 541.322 228.827C541.222 228.387 541.192 228.017 541.232 227.717ZM559.638 219.317H557.838L556.818 215.567V213.077H560.688V215.567L559.638 219.317ZM580.861 232.967C579.621 232.967 578.571 232.727 577.711 232.247C576.871 231.747 576.191 231.107 575.671 230.327C575.171 229.547 574.801 228.707 574.561 227.807C574.341 226.887 574.231 226.017 574.231 225.197C574.231 224.097 574.341 223.077 574.561 222.137C574.781 221.197 575.141 220.377 575.641 219.677C576.161 218.957 576.841 218.397 577.681 217.997C578.541 217.577 579.601 217.367 580.861 217.367C582.301 217.367 583.571 217.697 584.671 218.357C585.791 219.017 586.671 219.937 587.311 221.117C587.971 222.277 588.301 223.637 588.301 225.197C588.301 226.717 587.971 228.067 587.311 229.247C586.651 230.407 585.761 231.317 584.641 231.977C583.521 232.637 582.261 232.967 580.861 232.967ZM579.841 230.207C580.861 230.207 581.741 229.997 582.481 229.577C583.241 229.157 583.831 228.567 584.251 227.807C584.671 227.047 584.881 226.177 584.881 225.197C584.881 223.697 584.441 222.477 583.561 221.537C582.681 220.577 581.441 220.097 579.841 220.097C578.741 220.097 577.791 220.307 576.991 220.727C576.211 221.147 575.611 221.737 575.191 222.497C574.791 223.237 574.591 224.137 574.591 225.197C574.591 226.157 574.791 227.017 575.191 227.777C575.611 228.537 576.211 229.137 576.991 229.577C577.771 229.997 578.721 230.207 579.841 230.207ZM574.591 211.697V229.097C574.591 229.637 574.561 230.247 574.501 230.927C574.441 231.607 574.381 232.177 574.321 232.637H571.231V211.697H574.591ZM597.888 232.967C596.528 232.967 595.278 232.637 594.138 231.977C593.018 231.317 592.118 230.407 591.438 229.247C590.778 228.067 590.448 226.717 590.448 225.197C590.448 223.637 590.788 222.277 591.468 221.117C592.148 219.937 593.068 219.017 594.228 218.357C595.388 217.697 596.688 217.367 598.128 217.367C599.728 217.367 600.998 217.717 601.938 218.417C602.878 219.117 603.548 220.057 603.948 221.237C604.348 222.417 604.548 223.737 604.548 225.197C604.548 226.017 604.428 226.887 604.188 227.807C603.948 228.707 603.568 229.547 603.048 230.327C602.548 231.107 601.868 231.747 601.008 232.247C600.168 232.727 599.128 232.967 597.888 232.967ZM598.908 230.207C600.028 230.207 600.978 229.997 601.758 229.577C602.558 229.137 603.158 228.537 603.558 227.777C603.978 227.017 604.188 226.157 604.188 225.197C604.188 224.137 603.978 223.237 603.558 222.497C603.138 221.737 602.538 221.157 601.758 220.757C600.978 220.337 600.028 220.127 598.908 220.127C597.308 220.127 596.068 220.597 595.188 221.537C594.308 222.477 593.868 223.697 593.868 225.197C593.868 226.177 594.078 227.047 594.498 227.807C594.938 228.567 595.538 229.157 596.298 229.577C597.058 229.997 597.928 230.207 598.908 230.207ZM604.188 217.697H607.548V232.637H604.428C604.428 232.637 604.408 232.447 604.368 232.067C604.328 231.687 604.288 231.227 604.248 230.687C604.208 230.127 604.188 229.597 604.188 229.097V217.697ZM611.208 217.697H614.538V232.637H611.208V217.697ZM620.838 217.367C621.698 217.367 622.488 217.487 623.208 217.727C623.948 217.967 624.578 218.337 625.098 218.837C625.638 219.317 626.048 219.917 626.328 220.637C626.628 221.357 626.778 222.207 626.778 223.187V232.637H623.448V223.847C623.448 222.627 623.148 221.727 622.548 221.147C621.968 220.547 621.048 220.247 619.788 220.247C618.828 220.247 617.948 220.457 617.148 220.877C616.368 221.277 615.728 221.807 615.228 222.467C614.728 223.107 614.438 223.817 614.358 224.597L614.328 222.977C614.428 222.237 614.648 221.537 614.988 220.877C615.328 220.197 615.778 219.597 616.338 219.077C616.898 218.537 617.558 218.117 618.318 217.817C619.078 217.517 619.918 217.367 620.838 217.367ZM630.756 211.697H634.086V232.637H630.756V211.697ZM645.726 217.697L637.356 225.377L637.446 223.277L646.356 232.637H642.096L634.176 224.267L641.106 217.697H645.726ZM451.95 271.717H455.04C455.2 272.477 455.61 273.097 456.27 273.577C456.93 274.037 457.82 274.267 458.94 274.267C459.66 274.267 460.22 274.187 460.62 274.027C461.04 273.867 461.33 273.647 461.49 273.367C461.67 273.087 461.76 272.767 461.76 272.407C461.76 271.967 461.63 271.627 461.37 271.387C461.13 271.147 460.77 270.947 460.29 270.787C459.81 270.627 459.21 270.487 458.49 270.367C457.75 270.187 457.02 269.987 456.3 269.767C455.58 269.547 454.93 269.277 454.35 268.957C453.77 268.617 453.31 268.197 452.97 267.697C452.65 267.177 452.49 266.547 452.49 265.807C452.49 265.127 452.64 264.517 452.94 263.977C453.26 263.417 453.7 262.947 454.26 262.567C454.82 262.187 455.48 261.897 456.24 261.697C457 261.477 457.83 261.367 458.73 261.367C460.03 261.367 461.11 261.577 461.97 261.997C462.85 262.417 463.51 263.007 463.95 263.767C464.41 264.527 464.64 265.397 464.64 266.377H461.7C461.54 265.577 461.23 264.997 460.77 264.637C460.31 264.277 459.62 264.097 458.7 264.097C457.78 264.097 457.08 264.257 456.6 264.577C456.12 264.897 455.88 265.337 455.88 265.897C455.88 266.317 456.03 266.657 456.33 266.917C456.65 267.157 457.1 267.367 457.68 267.547C458.26 267.727 458.94 267.907 459.72 268.087C460.44 268.287 461.12 268.497 461.76 268.717C462.4 268.917 462.97 269.177 463.47 269.497C463.99 269.797 464.4 270.197 464.7 270.697C465 271.197 465.15 271.817 465.15 272.557C465.15 273.477 464.9 274.267 464.4 274.927C463.92 275.587 463.22 276.097 462.3 276.457C461.38 276.797 460.27 276.967 458.97 276.967C457.83 276.967 456.84 276.837 456 276.577C455.18 276.317 454.49 275.977 453.93 275.557C453.39 275.137 452.97 274.687 452.67 274.207C452.37 273.727 452.16 273.267 452.04 272.827C451.94 272.387 451.91 272.017 451.95 271.717ZM467.116 261.697H477.676V264.427H467.116V261.697ZM470.716 257.677H474.076V276.637H470.716V257.677ZM486.721 276.967C485.361 276.967 484.111 276.637 482.971 275.977C481.851 275.317 480.951 274.407 480.271 273.247C479.611 272.067 479.281 270.717 479.281 269.197C479.281 267.637 479.621 266.277 480.301 265.117C480.981 263.937 481.901 263.017 483.061 262.357C484.221 261.697 485.521 261.367 486.961 261.367C488.561 261.367 489.831 261.717 490.771 262.417C491.711 263.117 492.381 264.057 492.781 265.237C493.181 266.417 493.381 267.737 493.381 269.197C493.381 270.017 493.261 270.887 493.021 271.807C492.781 272.707 492.401 273.547 491.881 274.327C491.381 275.107 490.701 275.747 489.841 276.247C489.001 276.727 487.961 276.967 486.721 276.967ZM487.741 274.207C488.861 274.207 489.811 273.997 490.591 273.577C491.391 273.137 491.991 272.537 492.391 271.777C492.811 271.017 493.021 270.157 493.021 269.197C493.021 268.137 492.811 267.237 492.391 266.497C491.971 265.737 491.371 265.157 490.591 264.757C489.811 264.337 488.861 264.127 487.741 264.127C486.141 264.127 484.901 264.597 484.021 265.537C483.141 266.477 482.701 267.697 482.701 269.197C482.701 270.177 482.911 271.047 483.331 271.807C483.771 272.567 484.371 273.157 485.131 273.577C485.891 273.997 486.761 274.207 487.741 274.207ZM493.021 261.697H496.381V276.637H493.261C493.261 276.637 493.241 276.447 493.201 276.067C493.161 275.687 493.121 275.227 493.081 274.687C493.041 274.127 493.021 273.597 493.021 273.097V261.697ZM498.991 261.697H509.551V264.427H498.991V261.697ZM502.591 257.677H505.951V276.637H502.591V257.677ZM524.416 271.717H527.626C527.466 272.737 527.066 273.647 526.426 274.447C525.806 275.227 524.956 275.847 523.876 276.307C522.796 276.747 521.506 276.967 520.006 276.967C518.306 276.967 516.786 276.657 515.446 276.037C514.106 275.397 513.056 274.497 512.296 273.337C511.536 272.177 511.156 270.797 511.156 269.197C511.156 267.617 511.526 266.237 512.266 265.057C513.006 263.877 514.026 262.967 515.326 262.327C516.646 261.687 518.166 261.367 519.886 261.367C521.666 261.367 523.146 261.687 524.326 262.327C525.526 262.947 526.416 263.887 526.996 265.147C527.576 266.387 527.816 267.957 527.716 269.857H514.546C514.646 270.697 514.916 271.457 515.356 272.137C515.816 272.797 516.436 273.317 517.216 273.697C517.996 274.057 518.906 274.237 519.946 274.237C521.106 274.237 522.076 274.007 522.856 273.547C523.656 273.087 524.176 272.477 524.416 271.717ZM519.796 264.067C518.436 264.067 517.316 264.407 516.436 265.087C515.556 265.747 514.986 266.597 514.726 267.637H524.356C524.276 266.517 523.826 265.647 523.006 265.027C522.186 264.387 521.116 264.067 519.796 264.067ZM530.686 261.697H534.016V276.637H530.686V261.697ZM540.316 261.367C541.176 261.367 541.966 261.487 542.686 261.727C543.426 261.967 544.056 262.337 544.576 262.837C545.116 263.317 545.526 263.917 545.806 264.637C546.106 265.357 546.256 266.207 546.256 267.187V276.637H542.926V267.847C542.926 266.627 542.626 265.727 542.026 265.147C541.446 264.547 540.526 264.247 539.266 264.247C538.306 264.247 537.426 264.457 536.626 264.877C535.846 265.277 535.206 265.807 534.706 266.467C534.206 267.107 533.916 267.817 533.836 268.597L533.806 266.977C533.906 266.237 534.126 265.537 534.466 264.877C534.806 264.197 535.256 263.597 535.816 263.077C536.376 262.537 537.036 262.117 537.796 261.817C538.556 261.517 539.396 261.367 540.316 261.367ZM552.226 261.367C553.106 261.367 553.906 261.487 554.626 261.727C555.346 261.967 555.966 262.337 556.486 262.837C557.026 263.317 557.446 263.917 557.746 264.637C558.046 265.357 558.196 266.207 558.196 267.187V276.637H554.836V267.847C554.836 266.627 554.536 265.727 553.936 265.147C553.356 264.547 552.436 264.247 551.176 264.247C550.216 264.247 549.336 264.457 548.536 264.877C547.756 265.277 547.116 265.807 546.616 266.467C546.136 267.107 545.856 267.817 545.776 268.597L545.716 266.917C545.816 266.197 546.046 265.507 546.406 264.847C546.766 264.167 547.226 263.567 547.786 263.047C548.346 262.527 548.996 262.117 549.736 261.817C550.496 261.517 551.326 261.367 552.226 261.367ZM574.338 271.717H577.548C577.388 272.737 576.988 273.647 576.348 274.447C575.728 275.227 574.878 275.847 573.798 276.307C572.718 276.747 571.428 276.967 569.928 276.967C568.228 276.967 566.708 276.657 565.368 276.037C564.028 275.397 562.978 274.497 562.218 273.337C561.458 272.177 561.078 270.797 561.078 269.197C561.078 267.617 561.448 266.237 562.188 265.057C562.928 263.877 563.948 262.967 565.248 262.327C566.568 261.687 568.088 261.367 569.808 261.367C571.588 261.367 573.068 261.687 574.248 262.327C575.448 262.947 576.338 263.887 576.918 265.147C577.498 266.387 577.738 267.957 577.638 269.857H564.468C564.568 270.697 564.838 271.457 565.278 272.137C565.738 272.797 566.358 273.317 567.138 273.697C567.918 274.057 568.828 274.237 569.868 274.237C571.028 274.237 571.998 274.007 572.778 273.547C573.578 273.087 574.098 272.477 574.338 271.717ZM569.718 264.067C568.358 264.067 567.238 264.407 566.358 265.087C565.478 265.747 564.908 266.597 564.648 267.637H574.278C574.198 266.517 573.748 265.647 572.928 265.027C572.108 264.387 571.038 264.067 569.718 264.067ZM580.608 261.697H583.938V276.637H580.608V261.697ZM590.238 261.367C591.098 261.367 591.888 261.487 592.608 261.727C593.348 261.967 593.978 262.337 594.498 262.837C595.038 263.317 595.448 263.917 595.728 264.637C596.028 265.357 596.178 266.207 596.178 267.187V276.637H592.848V267.847C592.848 266.627 592.548 265.727 591.948 265.147C591.368 264.547 590.448 264.247 589.188 264.247C588.228 264.247 587.348 264.457 586.548 264.877C585.768 265.277 585.128 265.807 584.628 266.467C584.128 267.107 583.838 267.817 583.758 268.597L583.728 266.977C583.828 266.237 584.048 265.537 584.388 264.877C584.728 264.197 585.178 263.597 585.738 263.077C586.298 262.537 586.958 262.117 587.718 261.817C588.478 261.517 589.318 261.367 590.238 261.367ZM598.806 261.697H609.366V264.427H598.806V261.697ZM602.406 257.677H605.766V276.637H602.406V257.677Z" fill="white"/>
<g opacity="0.6" filter="url(#filter3_f_4821_48670)">
<rect x="701.385" y="89.9902" width="52.2847" height="239.779" rx="8" fill="black"/>
</g>
<g filter="url(#filter4_d_4821_48670)">
<rect x="692.357" y="46.8672" width="387.312" height="308.842" rx="8" fill="#FF823B"/>
<rect x="692.357" y="46.8672" width="387.312" height="308.842" rx="8" stroke="#FF823B" stroke-width="2"/>
</g>
<path d="M743.688 196.591V201.931H757.338V204.871H740.268V185.431H757.308V188.371H743.688V193.771H754.848V196.591H743.688ZM760.999 189.931H764.329V204.871H760.999V189.931ZM770.629 189.601C771.489 189.601 772.279 189.721 772.999 189.961C773.739 190.201 774.369 190.571 774.889 191.071C775.429 191.551 775.839 192.151 776.119 192.871C776.419 193.591 776.569 194.441 776.569 195.421V204.871H773.239V196.081C773.239 194.861 772.939 193.961 772.339 193.381C771.759 192.781 770.839 192.481 769.579 192.481C768.619 192.481 767.739 192.691 766.939 193.111C766.159 193.511 765.519 194.041 765.019 194.701C764.519 195.341 764.229 196.051 764.149 196.831L764.119 195.211C764.219 194.471 764.439 193.771 764.779 193.111C765.119 192.431 765.569 191.831 766.129 191.311C766.689 190.771 767.349 190.351 768.109 190.051C768.869 189.751 769.709 189.601 770.629 189.601ZM782.539 189.601C783.419 189.601 784.219 189.721 784.939 189.961C785.659 190.201 786.279 190.571 786.799 191.071C787.339 191.551 787.759 192.151 788.059 192.871C788.359 193.591 788.509 194.441 788.509 195.421V204.871H785.149V196.081C785.149 194.861 784.849 193.961 784.249 193.381C783.669 192.781 782.749 192.481 781.489 192.481C780.529 192.481 779.649 192.691 778.849 193.111C778.069 193.511 777.429 194.041 776.929 194.701C776.449 195.341 776.169 196.051 776.089 196.831L776.029 195.151C776.129 194.431 776.359 193.741 776.719 193.081C777.079 192.401 777.539 191.801 778.099 191.281C778.659 190.761 779.309 190.351 780.049 190.051C780.809 189.751 781.639 189.601 782.539 189.601ZM801.771 205.201C800.551 205.201 799.511 204.961 798.651 204.481C797.811 204.001 797.131 203.371 796.611 202.591C796.111 201.791 795.741 200.941 795.501 200.041C795.261 199.121 795.141 198.251 795.141 197.431C795.141 196.331 795.251 195.311 795.471 194.371C795.711 193.431 796.081 192.611 796.581 191.911C797.101 191.191 797.781 190.631 798.621 190.231C799.481 189.811 800.531 189.601 801.771 189.601C803.171 189.601 804.431 189.941 805.551 190.621C806.671 191.281 807.561 192.201 808.221 193.381C808.881 194.541 809.211 195.891 809.211 197.431C809.211 198.971 808.871 200.331 808.191 201.511C807.531 202.671 806.641 203.581 805.521 204.241C804.401 204.881 803.151 205.201 801.771 205.201ZM800.781 202.441C801.781 202.441 802.661 202.231 803.421 201.811C804.181 201.391 804.771 200.801 805.191 200.041C805.611 199.281 805.821 198.411 805.821 197.431C805.821 195.931 805.381 194.711 804.501 193.771C803.621 192.811 802.381 192.331 800.781 192.331C799.781 192.331 798.881 192.541 798.081 192.961C797.281 193.381 796.651 193.971 796.191 194.731C795.731 195.471 795.501 196.371 795.501 197.431C795.501 198.391 795.711 199.251 796.131 200.011C796.551 200.771 797.151 201.371 797.931 201.811C798.711 202.231 799.661 202.441 800.781 202.441ZM792.171 189.931H795.351L795.501 193.591V210.871H792.171V189.931ZM812.48 183.931H815.81V204.871H812.48V183.931ZM827.806 205.201C826.146 205.201 824.656 204.901 823.336 204.301C822.016 203.701 820.976 202.821 820.216 201.661C819.456 200.501 819.076 199.091 819.076 197.431C819.076 195.791 819.456 194.391 820.216 193.231C820.976 192.051 822.016 191.151 823.336 190.531C824.656 189.911 826.146 189.601 827.806 189.601C829.466 189.601 830.946 189.911 832.246 190.531C833.546 191.151 834.566 192.051 835.306 193.231C836.066 194.391 836.446 195.791 836.446 197.431C836.446 199.091 836.066 200.501 835.306 201.661C834.566 202.821 833.546 203.701 832.246 204.301C830.946 204.901 829.466 205.201 827.806 205.201ZM827.806 202.471C828.766 202.471 829.646 202.281 830.446 201.901C831.246 201.521 831.876 200.951 832.336 200.191C832.816 199.431 833.056 198.511 833.056 197.431C833.056 196.351 832.816 195.431 832.336 194.671C831.876 193.911 831.246 193.331 830.446 192.931C829.666 192.511 828.786 192.301 827.806 192.301C826.826 192.301 825.936 192.501 825.136 192.901C824.336 193.301 823.686 193.881 823.186 194.641C822.706 195.401 822.466 196.331 822.466 197.431C822.466 198.511 822.706 199.431 823.186 200.191C823.666 200.951 824.306 201.521 825.106 201.901C825.926 202.281 826.826 202.471 827.806 202.471ZM837.549 189.931H841.119L847.149 204.271L844.269 204.871L837.549 189.931ZM854.199 189.931L844.599 210.871H841.089L845.199 202.681L850.629 189.931H854.199ZM856.594 189.931H859.924V204.871H856.594V189.931ZM866.224 189.601C867.084 189.601 867.874 189.721 868.594 189.961C869.334 190.201 869.964 190.571 870.484 191.071C871.024 191.551 871.434 192.151 871.714 192.871C872.014 193.591 872.164 194.441 872.164 195.421V204.871H868.834V196.081C868.834 194.861 868.534 193.961 867.934 193.381C867.354 192.781 866.434 192.481 865.174 192.481C864.214 192.481 863.334 192.691 862.534 193.111C861.754 193.511 861.114 194.041 860.614 194.701C860.114 195.341 859.824 196.051 859.744 196.831L859.714 195.211C859.814 194.471 860.034 193.771 860.374 193.111C860.714 192.431 861.164 191.831 861.724 191.311C862.284 190.771 862.944 190.351 863.704 190.051C864.464 189.751 865.304 189.601 866.224 189.601ZM878.134 189.601C879.014 189.601 879.814 189.721 880.534 189.961C881.254 190.201 881.874 190.571 882.394 191.071C882.934 191.551 883.354 192.151 883.654 192.871C883.954 193.591 884.104 194.441 884.104 195.421V204.871H880.744V196.081C880.744 194.861 880.444 193.961 879.844 193.381C879.264 192.781 878.344 192.481 877.084 192.481C876.124 192.481 875.244 192.691 874.444 193.111C873.664 193.511 873.024 194.041 872.524 194.701C872.044 195.341 871.764 196.051 871.684 196.831L871.624 195.151C871.724 194.431 871.954 193.741 872.314 193.081C872.674 192.401 873.134 191.801 873.694 191.281C874.254 190.761 874.904 190.351 875.644 190.051C876.404 189.751 877.234 189.601 878.134 189.601ZM900.246 199.951H903.456C903.296 200.971 902.896 201.881 902.256 202.681C901.636 203.461 900.786 204.081 899.706 204.541C898.626 204.981 897.336 205.201 895.836 205.201C894.136 205.201 892.616 204.891 891.276 204.271C889.936 203.631 888.886 202.731 888.126 201.571C887.366 200.411 886.986 199.031 886.986 197.431C886.986 195.851 887.356 194.471 888.096 193.291C888.836 192.111 889.856 191.201 891.156 190.561C892.476 189.921 893.996 189.601 895.716 189.601C897.496 189.601 898.976 189.921 900.156 190.561C901.356 191.181 902.246 192.121 902.826 193.381C903.406 194.621 903.646 196.191 903.546 198.091H890.376C890.476 198.931 890.746 199.691 891.186 200.371C891.646 201.031 892.266 201.551 893.046 201.931C893.826 202.291 894.736 202.471 895.776 202.471C896.936 202.471 897.906 202.241 898.686 201.781C899.486 201.321 900.006 200.711 900.246 199.951ZM895.626 192.301C894.266 192.301 893.146 192.641 892.266 193.321C891.386 193.981 890.816 194.831 890.556 195.871H900.186C900.106 194.751 899.656 193.881 898.836 193.261C898.016 192.621 896.946 192.301 895.626 192.301ZM906.516 189.931H909.846V204.871H906.516V189.931ZM916.146 189.601C917.006 189.601 917.796 189.721 918.516 189.961C919.256 190.201 919.886 190.571 920.406 191.071C920.946 191.551 921.356 192.151 921.636 192.871C921.936 193.591 922.086 194.441 922.086 195.421V204.871H918.756V196.081C918.756 194.861 918.456 193.961 917.856 193.381C917.276 192.781 916.356 192.481 915.096 192.481C914.136 192.481 913.256 192.691 912.456 193.111C911.676 193.511 911.036 194.041 910.536 194.701C910.036 195.341 909.746 196.051 909.666 196.831L909.636 195.211C909.736 194.471 909.956 193.771 910.296 193.111C910.636 192.431 911.086 191.831 911.646 191.311C912.206 190.771 912.866 190.351 913.626 190.051C914.386 189.751 915.226 189.601 916.146 189.601ZM924.714 189.931H935.274V192.661H924.714V189.931ZM928.314 185.911H931.674V204.871H928.314V185.911ZM945.107 183.931H948.437V204.871H945.107V183.931ZM964.963 199.951H968.173C968.013 200.971 967.613 201.881 966.973 202.681C966.353 203.461 965.503 204.081 964.423 204.541C963.343 204.981 962.053 205.201 960.553 205.201C958.853 205.201 957.333 204.891 955.993 204.271C954.653 203.631 953.603 202.731 952.843 201.571C952.083 200.411 951.703 199.031 951.703 197.431C951.703 195.851 952.073 194.471 952.813 193.291C953.553 192.111 954.573 191.201 955.873 190.561C957.193 189.921 958.713 189.601 960.433 189.601C962.213 189.601 963.693 189.921 964.873 190.561C966.073 191.181 966.963 192.121 967.543 193.381C968.123 194.621 968.363 196.191 968.263 198.091H955.093C955.193 198.931 955.463 199.691 955.903 200.371C956.363 201.031 956.983 201.551 957.763 201.931C958.543 202.291 959.453 202.471 960.493 202.471C961.653 202.471 962.623 202.241 963.403 201.781C964.203 201.321 964.723 200.711 964.963 199.951ZM960.343 192.301C958.983 192.301 957.863 192.641 956.983 193.321C956.103 193.981 955.533 194.831 955.273 195.871H964.903C964.823 194.751 964.373 193.881 963.553 193.261C962.733 192.621 961.663 192.301 960.343 192.301ZM969.949 189.931H980.509V192.661H969.949V189.931ZM973.549 185.911H976.909V204.871H973.549V185.911ZM982.078 189.931H992.638V192.661H982.078V189.931ZM985.678 185.911H989.038V204.871H985.678V185.911ZM1007.5 199.951H1010.71C1010.55 200.971 1010.15 201.881 1009.51 202.681C1008.89 203.461 1008.04 204.081 1006.96 204.541C1005.88 204.981 1004.59 205.201 1003.09 205.201C1001.39 205.201 999.872 204.891 998.532 204.271C997.192 203.631 996.142 202.731 995.382 201.571C994.622 200.411 994.242 199.031 994.242 197.431C994.242 195.851 994.612 194.471 995.352 193.291C996.092 192.111 997.112 191.201 998.412 190.561C999.732 189.921 1001.25 189.601 1002.97 189.601C1004.75 189.601 1006.23 189.921 1007.41 190.561C1008.61 191.181 1009.5 192.121 1010.08 193.381C1010.66 194.621 1010.9 196.191 1010.8 198.091H997.632C997.732 198.931 998.002 199.691 998.442 200.371C998.902 201.031 999.522 201.551 1000.3 201.931C1001.08 202.291 1001.99 202.471 1003.03 202.471C1004.19 202.471 1005.16 202.241 1005.94 201.781C1006.74 201.321 1007.26 200.711 1007.5 199.951ZM1002.88 192.301C1001.52 192.301 1000.4 192.641 999.522 193.321C998.642 193.981 998.072 194.831 997.812 195.871H1007.44C1007.36 194.751 1006.91 193.881 1006.09 193.261C1005.27 192.621 1004.2 192.301 1002.88 192.301ZM1013.77 189.931H1017.1V204.871H1013.77V189.931ZM1022.5 192.781C1021.42 192.781 1020.49 193.011 1019.71 193.471C1018.95 193.931 1018.34 194.491 1017.88 195.151C1017.42 195.811 1017.1 196.451 1016.92 197.071L1016.89 195.391C1016.91 195.171 1016.98 194.841 1017.1 194.401C1017.22 193.941 1017.4 193.441 1017.64 192.901C1017.9 192.361 1018.24 191.841 1018.66 191.341C1019.1 190.821 1019.63 190.401 1020.25 190.081C1020.89 189.761 1021.64 189.601 1022.5 189.601V192.781ZM794.765 251.541L792.725 253.101C792.725 253.101 792.565 252.921 792.245 252.561C791.945 252.201 791.565 251.661 791.105 250.941C790.665 250.221 790.215 249.351 789.755 248.331C789.295 247.291 788.905 246.101 788.585 244.761C788.285 243.401 788.135 241.911 788.135 240.291C788.135 238.651 788.285 237.161 788.585 235.821C788.905 234.481 789.295 233.301 789.755 232.281C790.215 231.261 790.665 230.401 791.105 229.701C791.565 228.981 791.945 228.441 792.245 228.081C792.565 227.721 792.725 227.541 792.725 227.541L794.765 229.101C794.765 229.101 794.565 229.341 794.165 229.821C793.785 230.301 793.345 231.021 792.845 231.981C792.345 232.921 791.905 234.091 791.525 235.491C791.145 236.871 790.955 238.471 790.955 240.291C790.955 241.771 791.075 243.111 791.315 244.311C791.575 245.491 791.895 246.531 792.275 247.431C792.655 248.331 793.035 249.081 793.415 249.681C793.795 250.301 794.115 250.761 794.375 251.061C794.635 251.381 794.765 251.541 794.765 251.541ZM815.711 229.431V232.371H802.091V238.011H813.251V240.831H802.091V248.871H798.671V229.431H815.711ZM825.272 249.201C823.612 249.201 822.122 248.901 820.802 248.301C819.482 247.701 818.442 246.821 817.682 245.661C816.922 244.501 816.542 243.091 816.542 241.431C816.542 239.791 816.922 238.391 817.682 237.231C818.442 236.051 819.482 235.151 820.802 234.531C822.122 233.911 823.612 233.601 825.272 233.601C826.932 233.601 828.412 233.911 829.712 234.531C831.012 235.151 832.032 236.051 832.772 237.231C833.532 238.391 833.912 239.791 833.912 241.431C833.912 243.091 833.532 244.501 832.772 245.661C832.032 246.821 831.012 247.701 829.712 248.301C828.412 248.901 826.932 249.201 825.272 249.201ZM825.272 246.471C826.232 246.471 827.112 246.281 827.912 245.901C828.712 245.521 829.342 244.951 829.802 244.191C830.282 243.431 830.522 242.511 830.522 241.431C830.522 240.351 830.282 239.431 829.802 238.671C829.342 237.911 828.712 237.331 827.912 236.931C827.132 236.511 826.252 236.301 825.272 236.301C824.292 236.301 823.402 236.501 822.602 236.901C821.802 237.301 821.152 237.881 820.652 238.641C820.172 239.401 819.932 240.331 819.932 241.431C819.932 242.511 820.172 243.431 820.652 244.191C821.132 244.951 821.772 245.521 822.572 245.901C823.392 246.281 824.292 246.471 825.272 246.471ZM836.892 233.931H840.222V248.871H836.892V233.931ZM845.622 236.781C844.542 236.781 843.612 237.011 842.832 237.471C842.072 237.931 841.462 238.491 841.002 239.151C840.542 239.811 840.222 240.451 840.042 241.071L840.012 239.391C840.032 239.171 840.102 238.841 840.222 238.401C840.342 237.941 840.522 237.441 840.762 236.901C841.022 236.361 841.362 235.841 841.782 235.341C842.222 234.821 842.752 234.401 843.372 234.081C844.012 233.761 844.762 233.601 845.622 233.601V236.781ZM854.396 243.951H857.486C857.646 244.711 858.056 245.331 858.716 245.811C859.376 246.271 860.266 246.501 861.386 246.501C862.106 246.501 862.666 246.421 863.066 246.261C863.486 246.101 863.776 245.881 863.936 245.601C864.116 245.321 864.206 245.001 864.206 244.641C864.206 244.201 864.076 243.861 863.816 243.621C863.576 243.381 863.216 243.181 862.736 243.021C862.256 242.861 861.656 242.721 860.936 242.601C860.196 242.421 859.466 242.221 858.746 242.001C858.026 241.781 857.376 241.511 856.796 241.191C856.216 240.851 855.756 240.431 855.416 239.931C855.096 239.411 854.936 238.781 854.936 238.041C854.936 237.361 855.086 236.751 855.386 236.211C855.706 235.651 856.146 235.181 856.706 234.801C857.266 234.421 857.926 234.131 858.686 233.931C859.446 233.711 860.276 233.601 861.176 233.601C862.476 233.601 863.556 233.811 864.416 234.231C865.296 234.651 865.956 235.241 866.396 236.001C866.856 236.761 867.086 237.631 867.086 238.611H864.146C863.986 237.811 863.676 237.231 863.216 236.871C862.756 236.511 862.066 236.331 861.146 236.331C860.226 236.331 859.526 236.491 859.046 236.811C858.566 237.131 858.326 237.571 858.326 238.131C858.326 238.551 858.476 238.891 858.776 239.151C859.096 239.391 859.546 239.601 860.126 239.781C860.706 239.961 861.386 240.141 862.166 240.321C862.886 240.521 863.566 240.731 864.206 240.951C864.846 241.151 865.416 241.411 865.916 241.731C866.436 242.031 866.846 242.431 867.146 242.931C867.446 243.431 867.596 244.051 867.596 244.791C867.596 245.711 867.346 246.501 866.846 247.161C866.366 247.821 865.666 248.331 864.746 248.691C863.826 249.031 862.716 249.201 861.416 249.201C860.276 249.201 859.286 249.071 858.446 248.811C857.626 248.551 856.936 248.211 856.376 247.791C855.836 247.371 855.416 246.921 855.116 246.441C854.816 245.961 854.606 245.501 854.486 245.061C854.386 244.621 854.356 244.251 854.396 243.951ZM877.273 249.201C875.913 249.201 874.663 248.871 873.523 248.211C872.403 247.551 871.503 246.641 870.823 245.481C870.163 244.301 869.833 242.951 869.833 241.431C869.833 239.871 870.173 238.511 870.853 237.351C871.533 236.171 872.453 235.251 873.613 234.591C874.773 233.931 876.073 233.601 877.513 233.601C879.113 233.601 880.383 233.951 881.323 234.651C882.263 235.351 882.933 236.291 883.333 237.471C883.733 238.651 883.933 239.971 883.933 241.431C883.933 242.251 883.813 243.121 883.573 244.041C883.333 244.941 882.953 245.781 882.433 246.561C881.933 247.341 881.253 247.981 880.393 248.481C879.553 248.961 878.513 249.201 877.273 249.201ZM878.293 246.441C879.413 246.441 880.363 246.231 881.143 245.811C881.943 245.371 882.543 244.771 882.943 244.011C883.363 243.251 883.573 242.391 883.573 241.431C883.573 240.371 883.363 239.471 882.943 238.731C882.523 237.971 881.923 237.391 881.143 236.991C880.363 236.571 879.413 236.361 878.293 236.361C876.693 236.361 875.453 236.831 874.573 237.771C873.693 238.711 873.253 239.931 873.253 241.431C873.253 242.411 873.463 243.281 873.883 244.041C874.323 244.801 874.923 245.391 875.683 245.811C876.443 246.231 877.313 246.441 878.293 246.441ZM883.573 233.931H886.933V248.871H883.813C883.813 248.871 883.793 248.681 883.753 248.301C883.713 247.921 883.673 247.461 883.633 246.921C883.593 246.361 883.573 245.831 883.573 245.331V233.931ZM890.893 227.931H894.223V248.871H890.893V227.931ZM904.929 249.201C903.569 249.201 902.319 248.871 901.179 248.211C900.059 247.551 899.159 246.641 898.479 245.481C897.819 244.301 897.489 242.951 897.489 241.431C897.489 239.871 897.829 238.511 898.509 237.351C899.189 236.171 900.109 235.251 901.269 234.591C902.429 233.931 903.729 233.601 905.169 233.601C906.769 233.601 908.039 233.951 908.979 234.651C909.919 235.351 910.589 236.291 910.989 237.471C911.389 238.651 911.589 239.971 911.589 241.431C911.589 242.251 911.469 243.121 911.229 244.041C910.989 244.941 910.609 245.781 910.089 246.561C909.589 247.341 908.909 247.981 908.049 248.481C907.209 248.961 906.169 249.201 904.929 249.201ZM905.949 246.441C907.069 246.441 908.019 246.231 908.799 245.811C909.599 245.371 910.199 244.771 910.599 244.011C911.019 243.251 911.229 242.391 911.229 241.431C911.229 240.371 911.019 239.471 910.599 238.731C910.179 237.971 909.579 237.391 908.799 236.991C908.019 236.571 907.069 236.361 905.949 236.361C904.349 236.361 903.109 236.831 902.229 237.771C901.349 238.711 900.909 239.931 900.909 241.431C900.909 242.411 901.119 243.281 901.539 244.041C901.979 244.801 902.579 245.391 903.339 245.811C904.099 246.231 904.969 246.441 905.949 246.441ZM911.229 233.931H914.589V248.871H911.469C911.469 248.871 911.449 248.681 911.409 248.301C911.369 247.921 911.329 247.461 911.289 246.921C911.249 246.361 911.229 245.831 911.229 245.331V233.931ZM918.25 233.931H921.58V248.871H918.25V233.931ZM926.98 236.781C925.9 236.781 924.97 237.011 924.19 237.471C923.43 237.931 922.82 238.491 922.36 239.151C921.9 239.811 921.58 240.451 921.4 241.071L921.37 239.391C921.39 239.171 921.46 238.841 921.58 238.401C921.7 237.941 921.88 237.441 922.12 236.901C922.38 236.361 922.72 235.841 923.14 235.341C923.58 234.821 924.11 234.401 924.73 234.081C925.37 233.761 926.12 233.601 926.98 233.601V236.781ZM933.4 227.601V230.811H929.41V227.601H933.4ZM929.71 233.931H933.07V248.871H929.71V233.931ZM949.538 243.951H952.748C952.588 244.971 952.188 245.881 951.548 246.681C950.928 247.461 950.078 248.081 948.998 248.541C947.918 248.981 946.628 249.201 945.128 249.201C943.428 249.201 941.908 248.891 940.568 248.271C939.228 247.631 938.178 246.731 937.418 245.571C936.658 244.411 936.278 243.031 936.278 241.431C936.278 239.851 936.648 238.471 937.388 237.291C938.128 236.111 939.148 235.201 940.448 234.561C941.768 233.921 943.288 233.601 945.008 233.601C946.788 233.601 948.268 233.921 949.448 234.561C950.648 235.181 951.538 236.121 952.118 237.381C952.698 238.621 952.938 240.191 952.838 242.091H939.668C939.768 242.931 940.038 243.691 940.478 244.371C940.938 245.031 941.558 245.551 942.338 245.931C943.118 246.291 944.028 246.471 945.068 246.471C946.228 246.471 947.198 246.241 947.978 245.781C948.778 245.321 949.298 244.711 949.538 243.951ZM944.918 236.301C943.558 236.301 942.438 236.641 941.558 237.321C940.678 237.981 940.108 238.831 939.848 239.871H949.478C949.398 238.751 948.948 237.881 948.128 237.261C947.308 236.621 946.238 236.301 944.918 236.301ZM962.468 249.201C961.088 249.201 959.828 248.871 958.688 248.211C957.568 247.551 956.678 246.641 956.018 245.481C955.358 244.301 955.028 242.951 955.028 241.431C955.028 239.871 955.348 238.511 955.988 237.351C956.648 236.171 957.528 235.251 958.628 234.591C959.748 233.931 961.028 233.601 962.468 233.601C963.728 233.601 964.788 233.811 965.648 234.231C966.508 234.631 967.188 235.191 967.688 235.911C968.188 236.611 968.548 237.431 968.768 238.371C969.008 239.311 969.128 240.331 969.128 241.431C969.128 242.251 969.008 243.121 968.768 244.041C968.528 244.941 968.148 245.781 967.628 246.561C967.128 247.341 966.448 247.981 965.588 248.481C964.748 248.961 963.708 249.201 962.468 249.201ZM963.488 246.441C964.608 246.441 965.558 246.231 966.338 245.811C967.138 245.371 967.738 244.771 968.138 244.011C968.558 243.251 968.768 242.391 968.768 241.431C968.768 240.371 968.558 239.471 968.138 238.731C967.718 237.971 967.118 237.381 966.338 236.961C965.558 236.541 964.608 236.331 963.488 236.331C961.888 236.331 960.648 236.811 959.768 237.771C958.888 238.711 958.448 239.931 958.448 241.431C958.448 242.411 958.658 243.281 959.078 244.041C959.518 244.801 960.118 245.391 960.878 245.811C961.638 246.231 962.508 246.441 963.488 246.441ZM968.768 227.931H972.128V248.871H969.008C968.968 248.411 968.918 247.841 968.858 247.161C968.798 246.481 968.768 245.871 968.768 245.331V227.931ZM820.085 293.201C818.725 293.201 817.475 292.871 816.335 292.211C815.215 291.551 814.315 290.641 813.635 289.481C812.975 288.301 812.645 286.951 812.645 285.431C812.645 283.871 812.985 282.511 813.665 281.351C814.345 280.171 815.265 279.251 816.425 278.591C817.585 277.931 818.885 277.601 820.325 277.601C821.925 277.601 823.195 277.951 824.135 278.651C825.075 279.351 825.745 280.291 826.145 281.471C826.545 282.651 826.745 283.971 826.745 285.431C826.745 286.251 826.625 287.121 826.385 288.041C826.145 288.941 825.765 289.781 825.245 290.561C824.745 291.341 824.065 291.981 823.205 292.481C822.365 292.961 821.325 293.201 820.085 293.201ZM821.105 290.441C822.225 290.441 823.175 290.231 823.955 289.811C824.755 289.371 825.355 288.771 825.755 288.011C826.175 287.251 826.385 286.391 826.385 285.431C826.385 284.371 826.175 283.471 825.755 282.731C825.335 281.971 824.735 281.391 823.955 280.991C823.175 280.571 822.225 280.361 821.105 280.361C819.505 280.361 818.265 280.831 817.385 281.771C816.505 282.711 816.065 283.931 816.065 285.431C816.065 286.411 816.275 287.281 816.695 288.041C817.135 288.801 817.735 289.391 818.495 289.811C819.255 290.231 820.125 290.441 821.105 290.441ZM826.385 277.931H829.745V292.871H826.625C826.625 292.871 826.605 292.681 826.565 292.301C826.525 291.921 826.485 291.461 826.445 290.921C826.405 290.361 826.385 289.831 826.385 289.331V277.931ZM849.486 287.081C849.366 288.361 848.956 289.461 848.256 290.381C847.556 291.301 846.616 292.001 845.436 292.481C844.276 292.961 842.936 293.201 841.416 293.201C839.776 293.201 838.286 292.901 836.946 292.301C835.626 291.701 834.576 290.821 833.796 289.661C833.016 288.501 832.626 287.091 832.626 285.431C832.626 283.771 833.016 282.361 833.796 281.201C834.576 280.041 835.626 279.151 836.946 278.531C838.286 277.911 839.776 277.601 841.416 277.601C842.936 277.601 844.276 277.851 845.436 278.351C846.596 278.831 847.526 279.521 848.226 280.421C848.926 281.321 849.336 282.411 849.456 283.691H846.396C846.056 282.631 845.436 281.811 844.536 281.231C843.656 280.631 842.616 280.331 841.416 280.331C840.436 280.331 839.536 280.531 838.716 280.931C837.896 281.311 837.236 281.881 836.736 282.641C836.256 283.381 836.016 284.311 836.016 285.431C836.016 286.531 836.256 287.461 836.736 288.221C837.236 288.981 837.896 289.551 838.716 289.931C839.536 290.291 840.436 290.471 841.416 290.471C842.736 290.471 843.816 290.181 844.656 289.601C845.516 289.001 846.106 288.161 846.426 287.081H849.486ZM868.5 287.081C868.38 288.361 867.97 289.461 867.27 290.381C866.57 291.301 865.63 292.001 864.45 292.481C863.29 292.961 861.95 293.201 860.43 293.201C858.79 293.201 857.3 292.901 855.96 292.301C854.64 291.701 853.59 290.821 852.81 289.661C852.03 288.501 851.64 287.091 851.64 285.431C851.64 283.771 852.03 282.361 852.81 281.201C853.59 280.041 854.64 279.151 855.96 278.531C857.3 277.911 858.79 277.601 860.43 277.601C861.95 277.601 863.29 277.851 864.45 278.351C865.61 278.831 866.54 279.521 867.24 280.421C867.94 281.321 868.35 282.411 868.47 283.691H865.41C865.07 282.631 864.45 281.811 863.55 281.231C862.67 280.631 861.63 280.331 860.43 280.331C859.45 280.331 858.55 280.531 857.73 280.931C856.91 281.311 856.25 281.881 855.75 282.641C855.27 283.381 855.03 284.311 855.03 285.431C855.03 286.531 855.27 287.461 855.75 288.221C856.25 288.981 856.91 289.551 857.73 289.931C858.55 290.291 859.45 290.471 860.43 290.471C861.75 290.471 862.83 290.181 863.67 289.601C864.53 289.001 865.12 288.161 865.44 287.081H868.5ZM879.383 293.201C877.723 293.201 876.233 292.901 874.913 292.301C873.593 291.701 872.553 290.821 871.793 289.661C871.033 288.501 870.653 287.091 870.653 285.431C870.653 283.791 871.033 282.391 871.793 281.231C872.553 280.051 873.593 279.151 874.913 278.531C876.233 277.911 877.723 277.601 879.383 277.601C881.043 277.601 882.523 277.911 883.823 278.531C885.123 279.151 886.143 280.051 886.883 281.231C887.643 282.391 888.023 283.791 888.023 285.431C888.023 287.091 887.643 288.501 886.883 289.661C886.143 290.821 885.123 291.701 883.823 292.301C882.523 292.901 881.043 293.201 879.383 293.201ZM879.383 290.471C880.343 290.471 881.223 290.281 882.023 289.901C882.823 289.521 883.453 288.951 883.913 288.191C884.393 287.431 884.633 286.511 884.633 285.431C884.633 284.351 884.393 283.431 883.913 282.671C883.453 281.911 882.823 281.331 882.023 280.931C881.243 280.511 880.363 280.301 879.383 280.301C878.403 280.301 877.513 280.501 876.713 280.901C875.913 281.301 875.263 281.881 874.763 282.641C874.283 283.401 874.043 284.331 874.043 285.431C874.043 286.511 874.283 287.431 874.763 288.191C875.243 288.951 875.883 289.521 876.683 289.901C877.503 290.281 878.403 290.471 879.383 290.471ZM906.574 292.871H903.244V277.931H906.574V292.871ZM903.424 285.761L903.454 286.721C903.414 286.981 903.324 287.371 903.184 287.891C903.064 288.411 902.854 288.981 902.554 289.601C902.274 290.201 901.894 290.781 901.414 291.341C900.954 291.881 900.374 292.331 899.674 292.691C898.974 293.031 898.124 293.201 897.124 293.201C896.404 293.201 895.674 293.101 894.934 292.901C894.214 292.721 893.554 292.411 892.954 291.971C892.374 291.531 891.904 290.931 891.544 290.171C891.184 289.411 891.004 288.451 891.004 287.291V277.931H894.334V286.661C894.334 287.601 894.484 288.341 894.784 288.881C895.104 289.401 895.544 289.771 896.104 289.991C896.664 290.211 897.314 290.321 898.054 290.321C899.114 290.321 900.014 290.081 900.754 289.601C901.494 289.121 902.084 288.531 902.524 287.831C902.984 287.111 903.284 286.421 903.424 285.761ZM910.252 277.931H913.582V292.871H910.252V277.931ZM919.882 277.601C920.742 277.601 921.532 277.721 922.252 277.961C922.992 278.201 923.622 278.571 924.142 279.071C924.682 279.551 925.092 280.151 925.372 280.871C925.672 281.591 925.822 282.441 925.822 283.421V292.871H922.492V284.081C922.492 282.861 922.192 281.961 921.592 281.381C921.012 280.781 920.092 280.481 918.832 280.481C917.872 280.481 916.992 280.691 916.192 281.111C915.412 281.511 914.772 282.041 914.272 282.701C913.772 283.341 913.482 284.051 913.402 284.831L913.372 283.211C913.472 282.471 913.692 281.771 914.032 281.111C914.372 280.431 914.822 279.831 915.382 279.311C915.942 278.771 916.602 278.351 917.362 278.051C918.122 277.751 918.962 277.601 919.882 277.601ZM928.45 277.931H939.01V280.661H928.45V277.931ZM932.05 273.911H935.41V292.871H932.05V273.911ZM941.329 295.541C941.329 295.541 941.459 295.391 941.719 295.091C941.979 294.791 942.299 294.331 942.679 293.711C943.059 293.091 943.429 292.331 943.789 291.431C944.169 290.531 944.489 289.491 944.749 288.311C945.009 287.111 945.139 285.771 945.139 284.291C945.139 282.471 944.939 280.871 944.539 279.491C944.159 278.091 943.719 276.921 943.219 275.981C942.739 275.021 942.299 274.301 941.899 273.821C941.519 273.341 941.329 273.101 941.329 273.101L943.369 271.541C943.369 271.541 943.519 271.721 943.819 272.081C944.139 272.441 944.529 272.981 944.989 273.701C945.449 274.401 945.899 275.261 946.339 276.281C946.799 277.301 947.179 278.481 947.479 279.821C947.799 281.161 947.959 282.651 947.959 284.291C947.959 285.911 947.799 287.401 947.479 288.761C947.179 290.101 946.799 291.291 946.339 292.331C945.879 293.351 945.419 294.221 944.959 294.941C944.519 295.661 944.139 296.201 943.819 296.561C943.519 296.921 943.369 297.101 943.369 297.101L941.329 295.541Z" fill="white"/>
<g opacity="0.6" filter="url(#filter5_f_4821_48670)">
<rect x="494.743" y="81.3223" width="71.1743" height="56.9258" fill="black"/>
</g>
<path d="M486.603 6.4668C486.603 6.4668 479.857 7.81604 480.127 15.102C480.397 22.3879 480.397 138.963 480.397 138.963C480.397 138.963 482.016 145.979 488.223 145.979C494.429 145.979 572.685 145.709 572.685 145.709C572.685 145.709 581.051 145.439 581.32 137.614C581.59 129.788 581.59 44.5155 581.59 44.5155L544.081 6.73665L486.603 6.4668Z" fill="#FFA529"/>
<path d="M508.33 106.182C510.956 106.182 513.088 108.32 513.088 110.954C513.088 113.588 510.956 115.727 508.33 115.727C505.704 115.727 503.572 113.588 503.572 110.954C503.572 108.32 505.704 106.182 508.33 106.182Z" fill="#FFFEFE"/>
<path d="M556.612 107.525V114.619H521.009V107.525H556.612Z" fill="#FFFEFE"/>
<path d="M508.33 89.9902C510.956 89.9902 513.088 92.1288 513.088 94.7628C513.088 97.3968 510.956 99.5354 508.33 99.5354C505.704 99.5354 503.572 97.3968 503.572 94.7628C503.572 92.1288 505.704 89.9902 508.33 89.9902Z" fill="#FFFEFE"/>
<path d="M556.612 91.3359V98.4295H521.009V91.3359H556.612Z" fill="#FFFEFE"/>
<path d="M508.33 74.6094C510.956 74.6094 513.088 76.748 513.088 79.3819C513.088 82.0159 510.956 84.1545 508.33 84.1545C505.704 84.1545 503.572 82.0159 503.572 79.3819C503.572 76.748 505.704 74.6094 508.33 74.6094Z" fill="#FFFEFE"/>
<path d="M556.612 75.9531V83.0467H521.009V75.9531H556.612Z" fill="#FFFEFE"/>
<path d="M543.811 6.60156L543.271 37.4993C543.271 37.4993 544.486 44.9202 551.637 44.9202C558.788 44.9202 581.32 44.2455 581.32 44.2455L543.811 6.60156Z" fill="#51D0FE" fill-opacity="0.5"/>
<path d="M581.513 44.1919L548.725 44.5434L581.527 47.6158L581.513 44.1919Z" fill="#4D3EC4" fill-opacity="0.3"/>
<path d="M581.456 44.1113L548.669 44.5161L581.456 74.1995V44.1113Z" fill="#4D3EC4" fill-opacity="0.2"/>
<g opacity="0.6" filter="url(#filter6_f_4821_48670)">
<rect x="865.327" y="108.721" width="31.6255" height="56.9258" transform="rotate(-84.3519 865.327 108.721)" fill="black"/>
</g>
<path d="M824.555 107.125L947.312 124.505C951.01 125.029 954.49 122.136 954.687 118.374L958.892 38.1337C959.054 35.0472 956.918 32.4318 953.883 32.0021L831.127 14.622C827.429 14.0982 823.949 16.991 823.752 20.7536L819.547 100.994C819.385 104.081 821.521 106.696 824.555 107.125Z" fill="#FF6913"/>
<path d="M823.637 26.5907L880.392 83.119L957.952 46.1528L958.5 45.8919C958.5 45.8919 958.977 38.0733 958.935 38.2805C959.287 34.6161 956.552 32.3458 953.632 31.9392C912.782 26.251 831.167 14.5442 830.833 14.6128C826.007 14.3378 823.865 17.8726 823.633 20.6705C823.552 21.6389 823.479 25.1827 823.46 26.1589C823.457 26.3187 823.637 26.5907 823.637 26.5907Z" fill="#F2BDA0"/>
<g opacity="0.6" filter="url(#filter7_f_4821_48670)">
<path d="M145.992 62.9316H200.534L177.704 134.304L159.843 123.55L145.992 62.9316Z" fill="black"/>
</g>
<path d="M180.686 139.127C177.393 144.865 169.066 144.865 165.773 139.127L120.334 59.9684C117.07 54.2829 121.203 47.2148 127.791 47.2148H218.668C225.256 47.2148 229.389 54.2829 226.125 59.9684L180.686 139.127Z" fill="#269C26"/>
<g filter="url(#filter8_f_4821_48670)">
<path d="M180.952 53.252H126.013V63.4863H180.952V53.252Z" fill="#0D3D0D"/>
</g>
<path d="M146.666 3.74743C149.309 -0.80121 155.917 -0.801227 158.561 3.74738L186.067 51.0814C188.71 55.6303 185.406 61.3158 180.12 61.3158H125.107C119.821 61.3158 116.517 55.6303 119.16 51.0814L146.666 3.74743Z" fill="#23A323"/>
</g>
<defs>
<filter id="filter0_d_4821_48670" x="-39.6699" y="13.0703" width="467.312" height="388.842" filterUnits="userSpaceOnUse" color-interpolation-filters="sRGB">
<feFlood flood-opacity="0" result="BackgroundImageFix"/>
<feColorMatrix in="SourceAlpha" type="matrix" values="0 0 0 0 0 0 0 0 0 0 0 0 0 0 0 0 0 0 127 0" result="hardAlpha"/>
<feOffset dy="6"/>
<feGaussianBlur stdDeviation="20"/>
<feComposite in2="hardAlpha" operator="out"/>
<feColorMatrix type="matrix" values="0 0 0 0 0.2375 0 0 0 0 0.2375 0 0 0 0 0.2375 0 0 0 0.12 0"/>
<feBlend mode="normal" in2="BackgroundImageFix" result="effect1_dropShadow_4821_48670"/>
<feBlend mode="normal" in="SourceGraphic" in2="effect1_dropShadow_4821_48670" result="shape"/>
</filter>
<filter id="filter1_f_4821_48670" x="245.357" y="-0.00976562" width="232.285" height="419.779" filterUnits="userSpaceOnUse" color-interpolation-filters="sRGB">
<feFlood flood-opacity="0" result="BackgroundImageFix"/>
<feBlend mode="normal" in="SourceGraphic" in2="BackgroundImageFix" result="shape"/>
<feGaussianBlur stdDeviation="45" result="effect1_foregroundBlur_4821_48670"/>
</filter>
<filter id="filter2_d_4821_48670" x="294.357" y="11.6973" width="469.312" height="390.842" filterUnits="userSpaceOnUse" color-interpolation-filters="sRGB">
<feFlood flood-opacity="0" result="BackgroundImageFix"/>
<feColorMatrix in="SourceAlpha" type="matrix" values="0 0 0 0 0 0 0 0 0 0 0 0 0 0 0 0 0 0 127 0" result="hardAlpha"/>
<feOffset dy="6"/>
<feGaussianBlur stdDeviation="20"/>
<feComposite in2="hardAlpha" operator="out"/>
<feColorMatrix type="matrix" values="0 0 0 0 0.2375 0 0 0 0 0.2375 0 0 0 0 0.2375 0 0 0 0.12 0"/>
<feBlend mode="normal" in2="BackgroundImageFix" result="effect1_dropShadow_4821_48670"/>
<feBlend mode="normal" in="SourceGraphic" in2="effect1_dropShadow_4821_48670" result="shape"/>
</filter>
<filter id="filter3_f_4821_48670" x="611.385" y="-0.00976562" width="232.285" height="419.779" filterUnits="userSpaceOnUse" color-interpolation-filters="sRGB">
<feFlood flood-opacity="0" result="BackgroundImageFix"/>
<feBlend mode="normal" in="SourceGraphic" in2="BackgroundImageFix" result="shape"/>
<feGaussianBlur stdDeviation="45" result="effect1_foregroundBlur_4821_48670"/>
</filter>
<filter id="filter4_d_4821_48670" x="651.357" y="11.8672" width="469.312" height="390.842" filterUnits="userSpaceOnUse" color-interpolation-filters="sRGB">
<feFlood flood-opacity="0" result="BackgroundImageFix"/>
<feColorMatrix in="SourceAlpha" type="matrix" values="0 0 0 0 0 0 0 0 0 0 0 0 0 0 0 0 0 0 127 0" result="hardAlpha"/>
<feOffset dy="6"/>
<feGaussianBlur stdDeviation="20"/>
<feComposite in2="hardAlpha" operator="out"/>
<feColorMatrix type="matrix" values="0 0 0 0 0.2375 0 0 0 0 0.2375 0 0 0 0 0.2375 0 0 0 0.12 0"/>
<feBlend mode="normal" in2="BackgroundImageFix" result="effect1_dropShadow_4821_48670"/>
<feBlend mode="normal" in="SourceGraphic" in2="effect1_dropShadow_4821_48670" result="shape"/>
</filter>
<filter id="filter5_f_4821_48670" x="404.743" y="-8.67773" width="251.174" height="236.926" filterUnits="userSpaceOnUse" color-interpolation-filters="sRGB">
<feFlood flood-opacity="0" result="BackgroundImageFix"/>
<feBlend mode="normal" in="SourceGraphic" in2="BackgroundImageFix" result="shape"/>
<feGaussianBlur stdDeviation="45" result="effect1_foregroundBlur_4821_48670"/>
</filter>
<filter id="filter6_f_4821_48670" x="775.327" y="-12.752" width="239.762" height="217.074" filterUnits="userSpaceOnUse" color-interpolation-filters="sRGB">
<feFlood flood-opacity="0" result="BackgroundImageFix"/>
<feBlend mode="normal" in="SourceGraphic" in2="BackgroundImageFix" result="shape"/>
<feGaussianBlur stdDeviation="45" result="effect1_foregroundBlur_4821_48670"/>
</filter>
<filter id="filter7_f_4821_48670" x="55.9917" y="-27.0684" width="234.542" height="251.373" filterUnits="userSpaceOnUse" color-interpolation-filters="sRGB">
<feFlood flood-opacity="0" result="BackgroundImageFix"/>
<feBlend mode="normal" in="SourceGraphic" in2="BackgroundImageFix" result="shape"/>
<feGaussianBlur stdDeviation="45" result="effect1_foregroundBlur_4821_48670"/>
</filter>
<filter id="filter8_f_4821_48670" x="63.5231" y="-9.23811" width="179.919" height="135.214" filterUnits="userSpaceOnUse" color-interpolation-filters="sRGB">
<feFlood flood-opacity="0" result="BackgroundImageFix"/>
<feBlend mode="normal" in="SourceGraphic" in2="BackgroundImageFix" result="shape"/>
<feGaussianBlur stdDeviation="31.245" result="effect1_foregroundBlur_4821_48670"/>
</filter>
<clipPath id="clip0_4821_48670">
<rect width="1080" height="391" fill="white"/>
</clipPath>
</defs>
</svg>
