<svg width="955" height="317" viewBox="0 0 955 317" fill="none" xmlns="http://www.w3.org/2000/svg">
<g clip-path="url(#clip0_3203_31170)">
<path d="M867 22L893.918 44.1681C897.484 47.1041 897.278 52.6271 893.505 55.2904L875.459 68.029C871.41 70.8872 871.532 76.9323 875.693 79.6248L892.655 90.6003C896.721 93.231 896.951 99.0962 893.104 102.038L874.567 116.214C870.814 119.083 870.923 124.769 874.782 127.493L893.505 140.71C897.278 143.373 897.484 148.896 893.918 151.832L874.082 168.168C870.516 171.104 870.722 176.627 874.495 179.29L892.541 192.029C896.59 194.887 896.468 200.932 892.307 203.625L876.521 213.839C872.149 216.668 872.287 223.11 876.775 225.75L891.225 234.25C895.713 236.89 895.851 243.332 891.479 246.161L867 262" stroke="#FF823B" stroke-linecap="round"/>
<path d="M879 22L905.918 44.1681C909.484 47.1041 909.278 52.6271 905.505 55.2904L887.459 68.029C883.41 70.8872 883.532 76.9323 887.693 79.6248L904.655 90.6003C908.721 93.231 908.951 99.0962 905.104 102.038L886.567 116.214C882.814 119.083 882.923 124.769 886.782 127.493L905.505 140.71C909.278 143.373 909.484 148.896 905.918 151.832L886.082 168.168C882.516 171.104 882.722 176.627 886.495 179.29L904.541 192.029C908.59 194.887 908.468 200.932 904.307 203.625L888.521 213.839C884.149 216.668 884.287 223.11 888.775 225.75L903.225 234.25C907.713 236.89 907.851 243.332 903.479 246.161L879 262" stroke="#FF823B" stroke-linecap="round"/>
<path d="M891 22L917.918 44.1681C921.484 47.1041 921.278 52.6271 917.505 55.2904L899.459 68.029C895.41 70.8872 895.532 76.9323 899.693 79.6248L916.655 90.6003C920.721 93.231 920.951 99.0962 917.104 102.038L898.567 116.214C894.814 119.083 894.923 124.769 898.782 127.493L917.505 140.71C921.278 143.373 921.484 148.896 917.918 151.832L898.082 168.168C894.516 171.104 894.722 176.627 898.495 179.29L916.541 192.029C920.59 194.887 920.468 200.932 916.307 203.625L900.521 213.839C896.149 216.668 896.287 223.11 900.775 225.75L915.225 234.25C919.713 236.89 919.851 243.332 915.479 246.161L891 262" stroke="#FF823B" stroke-linecap="round"/>
<path d="M903 22L929.918 44.1681C933.484 47.1041 933.278 52.6271 929.505 55.2904L911.459 68.029C907.41 70.8872 907.532 76.9323 911.693 79.6248L928.655 90.6003C932.721 93.231 932.951 99.0962 929.104 102.038L910.567 116.214C906.814 119.083 906.923 124.769 910.782 127.493L929.505 140.71C933.278 143.373 933.484 148.896 929.918 151.832L910.082 168.168C906.516 171.104 906.722 176.627 910.495 179.29L928.541 192.029C932.59 194.887 932.468 200.932 928.307 203.625L912.521 213.839C908.149 216.668 908.287 223.11 912.775 225.75L927.225 234.25C931.713 236.89 931.851 243.332 927.479 246.161L903 262" stroke="#FF823B" stroke-linecap="round"/>
<g filter="url(#filter0_d_3203_31170)">
<rect x="52" width="764" height="136" rx="4" fill="#FFA65B"/>
</g>
<g filter="url(#filter1_d_3203_31170)">
<circle cx="61" cy="147" r="61" fill="#FF823B"/>
<path d="M42.4968 136.58C42.764 136.532 43.1979 136.621 43.264 136.632C43.6863 136.788 43.8012 137.066 43.6057 137.25C43.37 137.509 42.2462 138.253 42.1686 138.307C41.8783 138.488 41.4702 138.798 41.4242 138.749C41.3783 138.701 41.4386 138.588 41.6341 138.405C41.3524 138.614 41.0995 138.815 41.0334 138.804C40.9904 138.66 41.2634 138.422 41.3439 138.272L41.1715 138.324C41.0566 138.358 40.8755 138.381 40.7318 138.424C41.0278 138.367 41.091 138.473 40.5594 138.476L40.6744 138.442L40.5019 138.493L40.5594 138.476C40.4444 138.511 40.2806 138.591 40.1254 138.7C39.8381 138.786 39.5392 138.938 39.2518 139.024C39.0506 139.085 38.8006 139.191 38.5994 139.251L38.5535 139.202C38.4702 139.133 38.519 139.087 39.0076 138.941L39.726 138.726C39.8697 138.683 39.8984 138.674 39.8036 138.671C39.7375 138.66 39.1139 138.878 38.2891 139.156C38.088 139.217 37.8954 139.306 37.7517 139.349C37.2718 139.524 36.993 139.639 37.0505 139.621C37.1654 139.587 37.1827 139.644 37.0849 139.736C36.9786 139.8 37.0361 139.782 37.1711 139.711C37.654 139.441 37.8178 139.36 38.1597 139.352C38.2546 139.355 38.3494 139.357 38.4069 139.34C38.3494 139.357 38.3005 139.403 38.2431 139.421L38.2517 139.449L38.1942 139.467L37.993 139.527C37.9643 139.536 37.8867 139.59 37.8292 139.607C37.7143 139.642 37.6079 139.705 37.493 139.739C37.0992 139.889 36.6768 140.047 36.2831 140.196C35.9756 140.319 35.7169 140.397 35.4094 140.52C35.1019 140.644 34.8232 140.759 34.5156 140.882C34.372 140.925 34.2369 140.997 34.0932 141.04C34.1219 141.031 34.0846 141.011 34.0846 141.011C34.0558 141.02 34.0875 140.916 34.1565 140.833C34.2743 140.704 34.2829 140.732 34.28 140.827C34.2771 140.922 34.3145 140.942 34.5731 140.865C34.8892 140.77 34.9324 140.601 34.6077 140.667C34.5215 140.692 34.7341 140.566 35.0416 140.443C35.3491 140.319 35.6653 140.224 35.7026 140.244C35.806 140.276 36.3435 140.084 36.6136 139.94C36.7774 139.86 36.6826 139.857 36.2889 140.006C35.809 140.181 35.7802 140.19 36.0504 140.046C36.4269 139.84 36.2257 139.9 35.2457 140.287C34.6307 140.534 34.4784 140.549 34.4899 140.483C34.5014 140.416 34.7227 140.319 35.5676 140.003C35.8464 139.888 36.22 139.776 36.6712 139.61C38.0823 139.093 39.091 138.697 39.9646 138.372C40.64 138.013 40.9618 138.042 41.3814 137.979C41.4303 137.933 41.4044 137.847 41.2607 137.89C40.459 138.036 38.2231 138.832 36.858 139.397C34.8808 140.115 35.8494 139.48 35.7833 139.469C35.7201 139.676 34.49 140.169 34.2889 140.23C34.4296 140.281 33.2313 140.672 33.0962 140.744C32.8663 140.812 32.576 140.993 32.3835 141.082C32.4495 141.094 32.5242 141.134 32.5616 141.154C32.6191 141.137 32.6679 141.091 32.7254 141.074C32.6679 141.091 32.6564 141.157 32.5989 141.174C32.5989 141.174 32.665 141.186 32.6736 141.215C32.8461 141.163 32.9151 141.08 32.9064 141.051C32.8978 141.022 32.918 140.985 32.984 140.996C33.0214 141.017 33.1823 141.031 33.2685 141.005C33.326 140.988 33.1133 141.114 32.7196 141.264C32.8029 141.333 32.9034 141.459 32.9838 141.623C32.9924 141.652 33.0212 141.643 33.0298 141.672C33.0728 141.815 32.9835 142.562 32.9116 142.741C32.7246 143.266 32.8884 143.499 32.8336 144.048C32.8076 144.275 32.7213 144.614 32.612 145.085C32.5458 145.387 32.4248 146.237 32.2981 146.964C32.1369 147.89 32.0361 148.39 31.875 149.002L31.8404 149.2C31.8059 149.398 31.734 149.576 31.6995 149.774C32.4581 149.484 32.6479 149.177 37.8438 147.182C40.7349 146.065 40.4245 146.283 40.5911 146.421C40.6917 146.548 41.4849 146.06 41.4044 146.209C41.183 146.62 40.0019 147.068 40.1542 147.053C40.43 147.033 41.4905 146.496 41.4474 146.666C38.5388 148.352 37.5935 148.228 33.9261 150.517C32.7909 151.013 32.3857 151.229 31.9115 151.527C31.8827 151.536 31.8051 151.591 31.7764 151.599C31.6413 151.671 31.5149 151.771 31.3798 151.843C31.3683 151.909 31.3654 152.004 31.3538 152.07C31.155 153.602 31.0744 154.064 30.9766 154.469C30.9305 154.734 30.8931 155.027 30.9074 155.179C30.9131 155.303 30.8383 155.576 30.8239 155.737C30.6367 156.889 30.5668 159.478 30.3939 161.095C30.6782 161.417 39.4352 157.196 42.2343 156.295C42.6653 156.166 43.2229 155.936 43.6367 155.75C44.0563 155.687 41.3747 157.398 41.4149 157.637C41.5556 157.689 43.7083 156.511 44.056 156.313C43.004 157.192 34.9799 161.35 31.0054 162.509C30.149 162.891 28.8274 162.348 28.8078 160.819C28.7449 159.773 28.7974 157.753 28.953 156.391C28.9444 156.362 28.9846 156.288 29.0077 156.156C29.0422 155.957 29.0509 155.673 29.0913 155.285C29.1461 154.736 29.2382 154.207 29.2699 154.104C29.3015 154 29.2671 153.886 29.2671 153.886C29.2671 153.886 29.2412 153.799 29.2614 153.762C29.2815 153.725 29.3506 153.328 29.3939 152.845C29.2875 152.909 29.1438 152.952 29.0375 153.015C28.2587 153.342 28.5056 153.957 27.816 153.851L27.77 153.802C27.1897 153.537 26.9602 152.353 27.5034 151.971C27.9978 151.635 28.0036 151.446 28.6186 151.199C29.0612 151.003 29.4262 150.863 29.7337 150.739C29.7883 150.504 29.8229 150.305 29.8747 150.165C29.9063 150.061 29.9409 149.863 29.9524 149.797C29.9639 149.731 30.0617 149.326 30.1452 148.768C30.1482 148.673 30.1712 148.541 30.2028 148.438C30.4619 147.107 30.5483 146.455 30.7557 144.952C30.8623 144.263 30.9001 143.03 31.0297 142.208C31.0009 142.217 30.9348 142.205 30.9061 142.214C30.7337 142.266 30.5411 142.355 30.3773 142.435L30.406 142.427L30.3773 142.435C30.2336 142.478 30.0985 142.55 29.9548 142.593C30.0411 142.567 29.9347 142.63 29.8485 142.656C29.906 142.639 29.6387 142.688 29.6962 142.671C29.61 142.696 29.5324 142.751 29.4462 142.777C29.3887 142.794 29.4088 142.757 29.5238 142.722C29.8025 142.607 29.6819 142.518 29.3744 142.642C29.1732 142.702 29.133 142.777 29.2077 142.817C29.245 142.837 29.2249 142.874 29.2249 142.874C29.1099 142.909 29.0036 142.972 28.8886 143.006L28.745 143.049C28.9864 142.915 29.0266 142.84 29.0266 142.84C29.018 142.811 28.8427 142.958 28.1127 143.239C27.719 143.388 25.7561 144.258 27.3597 143.652C27.5322 143.601 27.1384 143.75 27.3109 143.698L27.0522 143.776C26.716 143.908 26.5608 144.017 26.4832 144.072C26.3078 144.218 26.3337 144.304 25.7503 144.448C25.3308 144.511 24.8685 143.491 25.6129 143.048C28.4467 141.322 38.6864 137.033 42.2036 136.856L42.2554 136.715C42.2669 136.649 42.3818 136.615 42.4968 136.58ZM44.056 156.313C44.1135 156.296 44.1422 156.287 44.0848 156.304L44.056 156.313ZM28.745 143.049C28.6875 143.067 28.6674 143.104 28.6099 143.121L28.5524 143.138L28.5237 143.147C28.3512 143.199 28.4748 143.193 28.5897 143.159C28.6472 143.141 28.6875 143.067 28.745 143.049ZM28.5897 143.159C28.4748 143.193 28.3397 143.265 28.196 143.308L28.4259 143.239L28.5121 143.213L28.5409 143.205L28.6558 143.17C28.742 143.144 28.676 143.133 28.5897 143.159ZM41.7091 137.505C41.4994 137.537 40.9936 137.626 40.9936 137.626C39.9619 137.841 36.588 139.228 36.9328 139.124C37.1541 139.027 41.7034 137.382 41.7666 137.488L41.7953 137.479L41.7091 137.505ZM39.6081 138.855L39.6369 138.846C39.6369 138.846 39.588 138.892 39.4443 138.935C39.2719 138.987 39.1771 138.984 39.2346 138.967L39.407 138.915L39.5794 138.864L39.6081 138.855ZM36.7717 139.736C36.8292 139.719 36.7803 139.765 36.6366 139.808C36.493 139.851 36.4269 139.84 36.4843 139.822C36.5131 139.814 36.5619 139.768 36.6194 139.751C36.6769 139.733 36.743 139.745 36.7717 139.736ZM34.1336 140.652L34.0186 140.686C33.9899 140.695 33.941 140.741 33.941 140.741C33.9123 140.75 33.9783 140.761 34.0646 140.735L34.0933 140.727C34.2083 140.692 34.2198 140.626 34.1336 140.652ZM31.162 141.605C31.1046 141.622 30.9982 141.685 30.9408 141.703C30.5672 141.815 30.3545 141.941 30.4407 141.915C30.5269 141.889 30.1102 142.171 28.8801 142.664C28.2939 142.903 25.4573 144.097 27.8685 143.155C28.4548 142.917 28.4376 142.86 28.4462 142.888C28.4548 142.917 28.5123 142.9 28.6186 142.837C28.7451 142.736 30.4378 142.01 30.6677 141.941C30.7539 141.915 30.9177 141.835 31.0901 141.783C31.1017 141.717 31.1419 141.642 31.162 141.605ZM32.3344 141.755L32.3056 141.763C32.274 141.867 31.4159 146.947 31.2778 147.74C31.2086 148.136 31.1108 148.542 31.0618 148.901C30.9812 149.363 30.9207 149.789 30.843 150.156C30.9005 150.139 30.9494 150.093 31.0068 150.076C31.05 149.906 31.0615 149.84 31.099 149.547C31.145 149.283 31.1911 149.019 31.2227 148.915C31.2141 148.886 31.2343 148.849 31.2343 148.849C31.2544 148.812 31.2429 148.878 31.2515 148.906C31.2601 148.935 31.2773 148.993 31.2888 148.927C31.3004 148.861 31.3177 148.605 31.4127 147.981C31.5308 147.226 31.6632 146.622 31.6776 146.461L31.669 146.433L32.3946 141.956C32.4062 141.89 32.3717 141.775 32.3717 141.775L32.3344 141.755ZM31.0642 142.01L31.0527 142.076C30.9464 142.139 30.7049 142.274 30.475 142.343C30.1388 142.475 29.9089 142.544 29.929 142.507C29.9491 142.469 30.248 142.317 30.5843 142.185C30.613 142.177 30.6044 142.148 30.6331 142.139L31.0642 142.01ZM31.9033 141.884C31.8746 141.893 31.8544 141.93 31.8257 141.938C31.7481 141.993 31.0167 146.346 31.0195 146.565C31.0252 146.688 30.9821 146.858 30.9907 146.886C30.9993 146.915 30.9245 147.188 30.887 147.481C30.7949 148.01 30.7805 148.171 30.8782 148.079C30.907 148.07 30.9876 147.608 31.0596 147.116C31.097 146.823 31.8659 142.177 31.9033 141.884ZM30.2711 142.185L30.3084 142.205L30.1073 142.265C29.9348 142.317 29.8572 142.372 29.9061 142.326L30.0498 142.283C30.1073 142.265 30.1849 142.211 30.2423 142.194L30.2711 142.185ZM40.9966 145.579C41.0253 145.571 41.0339 145.6 41.0339 145.6C40.8729 145.898 36.9645 147.383 36.9559 147.354L39.1889 146.34C39.1889 146.34 40.7868 145.611 40.9966 145.579ZM38.4414 147.504C38.4414 147.504 37.7459 147.9 36.7659 148.288L36.7084 148.305C36.536 148.357 36.3435 148.446 36.1509 148.535C35.9583 148.624 35.6796 148.738 35.6221 148.756C35.5646 148.773 35.4008 148.853 35.2945 148.917C35.1307 148.997 35.0732 149.014 35.0646 148.985C35.056 148.957 35.0071 149.003 34.9295 149.057C34.3777 149.41 33.7857 149.525 33.2425 149.907C32.4607 150.329 31.9003 150.654 31.5238 150.861L31.5123 150.927C31.8686 150.757 32.4176 150.499 33.1389 150.189C33.2453 150.126 33.274 150.117 33.2539 150.154C33.2337 150.192 33.1274 150.255 33.0498 150.309C32.7509 150.462 32.8457 150.464 33.182 150.332C33.547 150.192 33.7223 150.045 33.6763 149.996C33.9034 149.709 34.4035 149.497 34.8173 149.31C35.2024 149.132 35.4812 149.017 35.4812 149.017C35.4812 149.017 35.7801 148.865 36.0301 148.759C36.1738 148.716 36.3089 148.644 36.3089 148.644C36.3089 148.644 36.329 148.607 36.3865 148.589C36.4152 148.581 36.5503 148.509 36.7227 148.457C37.0877 148.317 36.6854 148.437 37.0504 148.296C37.7919 147.949 38.3351 147.567 38.3925 147.55C38.4213 147.541 38.4414 147.504 38.4414 147.504ZM30.32 150.188C30.32 150.188 30.3171 150.283 30.3027 150.443L30.274 150.452C30.2884 150.291 30.32 150.188 30.32 150.188ZM30.7533 152.156C30.782 152.148 30.7791 152.242 30.7877 152.271L30.7762 152.337C30.7474 152.346 30.7388 152.317 30.7388 152.317C30.7015 152.297 30.6958 152.173 30.7245 152.165L30.7533 152.156ZM30.6182 152.228C30.532 152.254 30.463 152.337 30.3768 152.363L30.2989 153.044C30.2529 153.308 30.1953 153.639 30.155 153.713C30.0947 153.825 30.0831 153.892 30.1205 153.912C30.1578 153.932 30.1463 153.998 30.0916 154.234C30.0485 154.403 30.0427 154.593 30.0398 154.688C29.9936 155.265 29.8842 155.736 29.8381 156.314C29.4925 158.61 29.9186 156.164 29.9933 156.205C30.0307 155.912 30.0883 155.581 30.1373 155.222C30.1776 154.834 30.2467 154.438 30.2467 154.438C30.2467 154.438 30.2871 154.05 30.3706 153.492L30.4628 152.964C30.4628 152.964 30.5462 152.719 30.5922 152.455C30.6038 152.389 30.6067 152.294 30.6182 152.228ZM30.0491 152.524L29.9917 152.541C29.8102 153.817 29.6201 155.064 29.6201 155.064C29.6 155.101 29.6086 155.13 29.5885 155.167C29.5683 155.205 29.5223 155.469 29.5049 155.725C29.5106 155.848 29.4474 156.055 29.4243 156.187C29.4013 156.319 29.3753 156.546 29.3753 156.546C29.3753 156.546 29.194 157.509 29.5766 156.173C29.6285 155.719 29.666 155.426 29.6775 155.36L29.6689 155.331C29.6603 155.302 29.8648 153.894 30.0491 152.524ZM30.6813 152.648C30.6813 152.648 30.6238 152.665 30.6123 152.731C30.5605 152.872 30.5173 153.041 30.5432 153.127C30.5776 153.242 30.6868 153.084 30.6927 152.895L30.684 152.866C30.6697 152.714 30.71 152.639 30.6813 152.648ZM42.0215 156.735C40.685 157.605 33.2819 160.7 32.1266 160.921C32.3565 160.852 31.8421 161.225 31.957 161.191C33.1927 160.821 38.3083 158.662 40.0442 157.766L42.0215 156.735ZM46.2148 145.269C46.6458 145.14 47.1372 145.212 47.594 145.482C48.7724 144.502 50.2119 144.917 49.8924 146.359C49.5816 147.83 49.4288 149.41 49.184 150.893C49.5491 150.439 50.0434 150.103 50.5293 149.425C50.4804 149.471 49.9515 150.005 50.1384 149.793L50.1585 149.756L50.2074 149.71C50.285 149.655 50.2275 149.672 50.3252 149.58L50.354 149.572L50.3454 149.543C50.3741 149.534 50.423 149.488 50.4431 149.451C50.4632 149.414 50.5494 149.388 50.5696 149.351C50.5782 149.379 50.5782 149.379 50.6558 149.325C50.7736 149.195 50.7363 149.175 50.6673 149.259C50.6472 149.296 50.6385 149.267 50.6385 149.267C50.6673 149.259 50.6788 149.193 50.7075 149.184L50.7277 149.147C50.7478 149.109 50.8053 149.092 50.7765 149.101C50.8254 149.055 50.8455 149.017 50.8944 148.971L50.9145 148.934C50.9634 148.888 51.041 148.833 51.0812 148.759C51.11 148.75 51.064 148.701 51.0928 148.693L51.1215 148.684C51.1704 148.638 51.2106 148.563 51.2595 148.517C51.3946 148.446 51.3946 148.446 51.3054 148.566C51.2566 148.612 51.2451 148.678 51.2738 148.67C51.2738 148.67 51.4693 148.486 51.6274 148.282C51.7855 148.078 51.9321 147.94 51.9119 147.977C51.8918 148.015 51.8516 148.09 51.8602 148.118C51.8688 148.147 51.8314 148.127 51.8314 148.127C51.8314 148.127 51.774 148.144 51.705 148.227C51.6158 148.348 51.5785 148.328 51.6848 148.265C51.7136 148.256 51.7624 148.21 51.7912 148.202C51.7711 148.239 51.7136 148.256 51.6934 148.293L51.5957 148.385C51.567 148.394 51.5469 148.431 51.5267 148.469C51.5152 148.535 51.4663 148.581 51.4577 148.552C51.4577 148.552 51.2019 148.848 51.1329 148.931C51.0639 149.015 50.5637 149.54 50.4861 149.595C50.4287 149.612 50.4085 149.649 50.4085 149.649C50.19 149.965 49.434 150.787 49.2069 151.074C48.7182 151.847 49.9198 150.422 50.4717 149.756C50.8828 149.351 51.1415 148.96 51.1214 148.997C51.1013 149.035 51.199 148.943 51.2881 148.822C51.406 148.693 51.4951 148.572 51.5238 148.564C51.5526 148.555 51.6302 148.5 51.679 148.454C51.748 148.371 51.748 148.371 51.6905 148.388C51.6331 148.406 51.6618 148.397 51.7797 148.268C51.8975 148.138 51.9751 148.084 51.9837 148.113C51.9837 148.113 52.0211 148.133 52.0125 148.104L52.1131 147.917C52.1821 147.834 52.2396 147.817 52.2396 147.817C52.2396 147.817 52.2683 147.808 52.2597 147.779C52.2511 147.751 52.5069 147.455 53.0416 146.731C53.0819 146.656 53.1222 146.581 53.171 146.535C53.7259 145.774 53.9817 145.478 54.2117 145.096C54.321 144.938 54.4187 144.846 54.4187 144.846L54.3784 144.921C54.3583 144.958 54.3583 144.958 54.4072 144.912C54.4273 144.875 54.4848 144.858 54.4848 144.858C54.4934 144.886 54.5423 144.841 54.6314 144.72C55.0482 144.125 54.41 145.131 54.2835 145.231C54.2921 145.26 54.3611 145.177 54.5106 144.944C54.5997 144.823 54.6199 144.786 54.6285 144.815C54.6658 144.835 54.6629 144.93 54.5767 144.955C54.548 144.964 54.4991 145.01 54.4876 145.076C54.4761 145.142 53.8292 146.119 53.8579 146.11C54.0074 145.878 54.9043 144.795 54.5334 145.438C54.5334 145.438 53.9009 146.567 53.4725 147.228C51.9 149.296 50.0373 151.232 48.9795 152.301C50.8351 154.313 50.9724 156.026 51.5321 157.894C52.2812 160.394 52.1785 166.532 50.5088 167.126C50.0289 167.301 48.9886 167.487 48.2936 166.631C46.4957 163.975 46.5835 159.251 46.7738 157.378C47.0649 154.691 47.3735 151.436 47.9406 148.416C47.6272 149.042 46.4454 151.369 45.4454 151.481C44.6552 151.561 44.0203 151.219 43.5953 150.219C43.1244 149.17 43.6278 147.61 44.358 146.702C44.8409 146.119 45.4963 145.484 46.2148 145.269ZM46.6397 146.269C45.6051 146.579 44.5812 149.328 44.943 150.222C45.2617 150.972 46.7282 148.027 47.3665 146.709C47.516 146.476 47.0995 146.131 46.6397 146.269ZM54.6833 144.266C54.6833 144.266 54.574 144.424 54.3756 144.703C54.068 145.139 53.8812 145.352 53.8812 145.352C53.8812 145.352 53.8841 145.257 53.9128 145.248C53.9416 145.24 53.9818 145.165 54.0019 145.128L53.9243 145.182C53.8553 145.266 53.8036 145.406 53.7346 145.49C53.6656 145.573 53.5477 145.702 53.4787 145.786C53.4385 145.86 53.3695 145.944 53.3292 146.018L53.3379 146.047C53.3551 146.104 53.3551 146.104 53.4844 145.909C53.5448 145.797 53.6339 145.676 53.6541 145.639C53.6742 145.602 53.7029 145.593 53.7116 145.622C53.7202 145.651 53.5419 145.892 53.3148 146.179C53.2746 146.254 53.2056 146.337 53.1567 146.383C53.1366 146.42 53.1165 146.458 53.0877 146.466C52.9986 146.587 52.9785 146.624 52.9785 146.624C52.9986 146.587 52.9986 146.587 52.9411 146.604C52.9124 146.613 52.9124 146.613 52.9612 146.567C53.0101 146.521 53.059 146.475 53.0791 146.438C53.1481 146.354 53.197 146.308 53.2286 146.205C53.2487 146.168 53.2603 146.102 53.2603 146.102C53.2315 146.11 53.2114 146.148 53.1826 146.156L53.1625 146.193L53.1223 146.268C53.1223 146.268 53.1021 146.306 53.0734 146.314C53.0447 146.323 53.0331 146.389 53.0044 146.397L52.9843 146.435C52.8664 146.564 52.7572 146.722 52.6393 146.851C52.5416 146.943 52.4898 147.084 52.3921 147.176C52.2944 147.268 52.2139 147.417 52.1161 147.509C52.0673 147.555 52.0471 147.592 51.9983 147.638L52.0356 147.659L52.0931 147.641C52.1506 147.624 52.1506 147.624 52.1132 147.604C52.0845 147.613 52.0673 147.555 52.1362 147.472C52.2254 147.351 52.2915 147.363 52.2311 147.475C52.2109 147.512 52.2885 147.458 52.3777 147.337C52.4668 147.216 52.5272 147.104 52.5272 147.104C52.5186 147.075 52.6681 146.843 52.7658 146.751C52.8147 146.705 52.8319 146.762 52.714 146.892C52.576 147.058 52.5559 147.096 52.6536 147.004C52.7715 146.874 52.7514 146.912 52.4553 147.282C52.2684 147.495 52.2282 147.57 52.2569 147.561C52.2856 147.552 52.3632 147.498 52.6191 147.202C52.6881 147.119 52.8261 146.952 52.9353 146.794C53.0043 146.711 53.0647 146.599 53.1337 146.515C53.4298 146.145 53.6684 145.791 53.8265 145.587C54.0047 145.346 54.1341 145.151 54.1341 145.151C54.1341 145.151 54.1945 145.039 54.2635 144.955C54.3526 144.835 54.4216 144.751 54.413 144.723C54.4044 144.694 54.4331 144.685 54.4331 144.685L54.4906 144.668C54.5193 144.659 54.482 144.639 54.482 144.639C54.6315 144.407 54.6833 144.266 54.6833 144.266ZM54.6629 144.93L54.6342 144.938C54.6342 144.938 54.6227 145.004 54.6025 145.042C54.591 145.108 54.591 145.108 54.6313 145.033L54.6916 144.921L54.6629 144.93ZM47.7946 146.988C46.9004 148.602 46.6443 149.524 45.8826 150.222C46.5695 149.797 47.2884 148.329 47.7946 146.988ZM54.2692 145.079L54.2778 145.108L54.2289 145.154L54.2088 145.191C54.2088 145.191 54.2002 145.162 54.2203 145.125L54.2491 145.116C54.2778 145.108 54.2692 145.079 54.2692 145.079ZM53.5966 145.656L53.6052 145.685L53.5276 145.74L53.4874 145.814C53.4586 145.823 53.5075 145.777 53.5563 145.731L53.5966 145.656ZM54.3294 145.593L53.9901 146.133C53.7515 146.487 53.5617 146.794 53.6796 146.665C53.8176 146.498 54.3868 145.576 54.3294 145.593ZM53.7947 146.004C53.4124 146.4 52.9237 147.173 52.5787 147.59C52.6218 147.733 53.7344 146.116 53.7545 146.079C53.7832 146.07 53.8034 146.033 53.8034 146.033L53.7947 146.004ZM52.8807 146.716L52.8405 146.791L52.8204 146.828C52.7916 146.837 52.783 146.808 52.8319 146.762C52.852 146.725 52.8807 146.716 52.8807 146.716ZM52.1592 147.653C52.1592 147.653 52.139 147.69 52.1103 147.699C52.0902 147.736 52.0988 147.765 52.0988 147.765L52.1189 147.728L52.139 147.69L52.1592 147.653ZM52.366 147.716C52.366 147.716 52.3459 147.753 52.2769 147.837C52.2079 147.92 52.1591 147.966 52.1591 147.966C52.1591 147.966 52.2568 147.874 52.297 147.799C52.3172 147.762 52.366 147.716 52.366 147.716ZM52.4206 147.794L52.3919 147.802C52.3631 147.811 52.3602 147.906 52.3315 147.914C52.3028 147.923 52.2539 147.969 52.2539 147.969C52.2252 147.978 52.2539 147.969 52.3229 147.886L52.4206 147.794ZM51.6504 148.15L51.6303 148.187C51.5814 148.233 51.5239 148.25 51.4952 148.259C51.4665 148.268 51.4549 148.334 51.4348 148.371C51.4147 148.408 51.4434 148.4 51.5124 148.316L51.5613 148.27C51.6303 148.187 51.6504 148.15 51.6504 148.15ZM51.886 148.204L51.9147 148.196C51.9147 148.196 51.932 148.253 51.9032 148.262L51.8457 148.279C51.8457 148.279 51.8285 148.222 51.8573 148.213L51.886 148.204ZM51.1675 148.733C51.1962 148.724 51.1559 148.799 51.0381 148.928C50.9403 149.02 50.8139 149.121 50.8139 149.121C50.8139 149.121 50.8743 149.009 50.972 148.917L51.1675 148.733ZM51.0064 149.032L50.9777 149.04C50.9777 149.04 50.9576 149.078 50.9288 149.086C50.9001 149.095 50.88 149.132 50.88 149.132C50.8512 149.141 50.88 149.132 50.9288 149.086C50.949 149.049 51.0064 149.032 51.0064 149.032ZM48.2178 152.999C48.2264 153.028 47.9733 153.855 48.0393 153.867C48.114 153.907 48.3069 152.878 48.3069 152.878L48.2178 152.999ZM47.6515 153.513C47.3436 154.889 47.3289 155.99 47.205 156.935C47.2136 156.964 47.3199 156.901 47.3314 156.835C47.4062 156.562 47.4668 155.823 47.5447 155.142C47.6225 154.461 47.6025 154.186 47.6515 153.513ZM48.8987 153.39C48.5534 154.746 48.0833 159.867 48.2465 161.352C48.4036 164.28 49.0924 166.579 49.67 166.626C51.7763 166.339 50.7602 154.899 48.8987 153.39ZM48.068 154.171C47.9818 154.197 47.337 157.272 47.5137 161.728C47.4243 162.476 48.1363 164.329 48.013 163.708C46.9507 160.895 48.068 154.171 48.0852 154.229L48.068 154.171ZM50.016 154.715C50.326 155.75 51.0263 157.983 51.1893 160.408C51.3037 161.939 51.3178 162.718 50.9637 164.672C51.1072 165.255 51.4124 163.348 51.3443 160.925C51.2934 158.56 50.197 154.692 50.016 154.715ZM47.1818 157.381C47.0583 157.386 46.9709 160.858 47.1026 162.133C47.2141 163.76 48.1273 165.553 48.1273 165.553C48.1273 165.553 47.4986 163.769 47.3322 163.004C47.0021 162.007 47.2106 157.372 47.2106 157.372L47.1818 157.381ZM54.4178 144.69C54.8777 144.552 55.4609 144.722 55.2567 145.19C54.7853 145.707 54.2469 148.718 54.9452 148.541C55.8793 148.104 56.5092 146.13 57.2654 144.995C57.9755 143.812 59.1505 144.493 59.5209 145.416C59.9975 146.588 60.1066 146.744 60.3739 146.695C61.7706 146.026 63.4093 143.656 64.3063 142.259C64.7201 142.386 62.2393 145.29 62.4721 145.127C62.7537 144.917 63.2281 144.305 63.7657 143.486C63.8059 143.412 64.151 142.682 64.1251 142.909C64.0732 143.363 64.6512 142.156 64.8726 141.745C65.1773 141.403 64.6911 143.021 64.3001 143.702C63.3081 145.408 61.5344 147.85 60.0662 147.445C59.0031 147.137 58.3167 145.996 58.3167 145.996C58.3167 145.996 56.5684 149.463 55.4679 149.449C54.3674 149.434 53.6118 149.003 53.4944 147.879C53.4285 147.241 53.7738 145.885 54.0068 145.095C54.0414 144.897 54.2167 144.75 54.4178 144.69ZM63.0612 144.793C63.0095 144.934 62.1988 145.991 62.1988 145.991C62.1988 145.991 62.2274 146.296 63.2882 144.819C63.6533 144.366 64.1968 143.357 64.2485 143.216L63.0612 144.793ZM67.0097 138.787C68.1592 138.443 69.254 138.647 69.6645 139.808C69.6903 139.895 69.696 140.018 69.6845 140.084C70.1529 139.975 70.647 140.266 70.7072 140.78C70.7846 141.352 70.3263 145.467 70.7258 145.128C72.14 143.89 72.7553 142.703 74.0144 141.261C74.23 141.04 73.4997 142.261 73.5429 142.091C72.6258 143.212 75.2849 140.066 75.466 139.73C75.7938 139.256 76.9753 137.869 76.9753 137.869C76.7798 138.052 76.5009 138.48 76.0151 139.158C75.8857 139.354 75.4487 139.986 74.9887 140.75C74.7558 141.227 75.782 139.948 76.0437 139.463C76.245 139.089 76.7107 138.449 76.7107 138.449C76.1298 139.75 75.7044 140.003 75.1237 140.991C75.0345 141.112 74.9167 141.241 74.9339 141.299C75.0029 141.215 75.0201 141.273 74.8505 141.543C74.7901 141.655 74.6723 141.784 74.6119 141.896C74.6809 141.813 74.7901 141.655 74.8591 141.572C74.908 141.526 74.9885 141.376 75.1179 141.181C75.5146 140.624 76.0896 139.825 76.6272 139.006C76.8371 138.662 76.9866 138.429 77.0469 138.317C76.9664 138.466 77.2654 138.001 76.7824 138.897C76.7623 138.934 76.6933 139.018 76.6731 139.055L76.653 139.092C76.6329 139.13 76.584 139.176 76.5639 139.213C76.5236 139.288 76.5207 139.383 76.5379 139.44C76.4977 139.515 76.4287 139.598 76.3884 139.673C76.3683 139.71 76.2993 139.794 76.2792 139.831C76.2591 139.868 76.2102 139.914 76.1901 139.952C76.17 139.989 76.1498 140.026 76.1584 140.055C75.8796 140.483 75.5432 140.928 75.2845 141.319C74.1402 143.04 73.2517 144.778 71.6766 146.002C70.9178 146.605 69.2829 146.374 68.9816 145.055C68.798 144.233 68.8961 143.202 68.8878 142.233C68.3819 142.636 67.3344 147.083 64.7026 146.243C63.3494 145.803 63.0658 143.289 64.1383 141.12C64.6933 140.045 65.8602 139.132 67.0097 138.787ZM67.7593 140.035C65.5666 140.66 64.5679 145.376 65.4645 144.919C66.7494 143.876 67.4916 141.336 69.2994 140.262C69.2333 140.251 69.1298 140.219 69.0839 140.17C68.607 139.937 68.1616 139.914 67.7593 140.035ZM68.4944 141.443C67.4854 142.466 66.7636 144.342 65.7806 145.137C66.6112 144.669 67.6951 142.747 68.4944 141.443ZM70.1123 140.99C69.8677 142.159 69.6918 143.872 70.1512 144.987C70.0651 144.699 70.0193 144.024 70.0109 143.369C70.0083 142.524 70.2187 140.926 70.1123 140.99ZM76.1584 140.055L76.167 140.084C76.1469 140.121 76.0693 140.176 76.0492 140.213C76.0291 140.25 75.9802 140.296 75.9601 140.334C75.9399 140.371 75.9687 140.362 75.9888 140.325L76.0089 140.288L76.0291 140.25L76.0578 140.242L76.0779 140.204C76.0981 140.167 76.1383 140.092 76.167 140.084L76.1584 140.055ZM74.7271 140.922C74.6984 140.931 74.4426 141.227 74.2039 141.58L73.1345 143.028C73.1633 143.019 74.1895 141.741 74.4483 141.35C74.5978 141.118 74.7271 140.922 74.7271 140.922ZM80.9059 121.408C81.2507 121.304 81.9432 121.316 82.3769 122.032C84.1173 124.705 78.4316 138.654 77.0089 139.55C76.8563 140.504 77.0133 143.432 77.7546 143.711C79.0217 144.177 80.5829 141.548 81.4914 140.086C81.5115 140.048 81.5086 140.143 81.4568 140.284C81.4051 140.425 81.1118 141.014 81.865 139.974C82.0489 139.856 82.0146 139.428 82.2847 139.284C82.5607 138.951 82.5808 138.914 82.5435 138.893C82.443 138.767 83.5467 137.747 83.6043 137.417C85.1221 135.584 81.6576 141.476 80.5853 142.706C82.2295 141.086 83.3339 138.187 83.4947 138.514C83.558 138.308 83.6299 138.129 83.7075 138.075L83.765 138.058C83.765 138.058 83.8023 138.078 83.7822 138.115C83.7707 138.181 83.7304 138.256 83.7189 138.322C83.7678 138.276 83.7707 138.181 83.8196 138.135C84.1703 137.529 84.1732 137.434 84.0955 137.802L83.8943 138.176C83.7534 138.437 83.5837 138.707 83.4429 138.968C83.3911 139.109 83.3307 139.221 83.2904 139.296C82.2726 141.229 81.0735 143.499 79.1193 144.398C77.7714 145.021 76.7802 144.535 76.1859 143.178C75.4307 141.494 75.719 138.903 75.7395 137.612C76.0283 133.455 76.4921 130.09 77.9935 126.007C78.6866 124.14 79.4086 121.95 80.8197 121.434L80.9059 121.408ZM80.6929 122.474C80.2618 122.603 78.6916 126.456 78.5071 128.14C78.0065 129.918 79.8593 123.35 80.759 122.485C80.759 122.485 80.7216 122.465 80.6929 122.474ZM81.3566 122.494C80.2732 122.85 78.4232 129.637 77.8188 132.636C77.6518 133.438 77.3235 135.478 77.0786 137.587L77.1073 137.578C78.835 135.401 83.1815 121.791 81.4716 122.46L81.3566 122.494ZM82.3104 123.273C82.2816 123.282 82.2328 123.328 82.1925 123.402C82.3965 123.561 82.1285 125.802 81.5847 127.75C80.7532 130.724 79.6807 132.893 80.3448 131.973C81.9324 127.865 82.6351 123.207 82.3104 123.273ZM79.0454 125.128C77.1448 128.923 76.2161 138.785 76.5612 138.055C76.6618 137.868 76.5791 136.233 76.9103 133.785C77.0428 132.869 77.3938 131.636 77.5581 130.303C77.9495 128.369 78.7694 125.775 79.0454 125.128ZM78.4149 128.668C78.4149 128.668 78.3459 128.751 78.2223 129.07C78.0785 129.427 77.8655 130.493 77.6985 131.294C77.9776 130.24 78.3747 128.743 78.3747 128.743L78.4149 128.668ZM80.978 128.965L80.9579 129.002C80.9866 128.994 79.3846 133.263 79.5226 133.097C79.9193 132.539 81.0355 128.948 80.978 128.965ZM80.1895 132.396C80.1981 132.424 78.9096 135.754 79.0821 135.389C79.5508 134.654 80.5634 131.344 80.1895 132.396ZM76.6604 133.578C76.6604 133.578 76.0413 137.365 76.1502 138.147C76.1675 138.204 76.1473 138.242 76.1646 138.299C76.1414 138.745 76.1413 139.058 76.1499 139.087C76.2332 139.156 76.2592 138.929 76.1646 138.299C76.3059 136.785 76.6604 133.578 76.6604 133.578ZM77.3731 133.553C76.875 136.176 77.1398 134.969 77.0304 135.754C76.9439 136.406 76.8573 137.685 76.8659 137.713L77.3731 133.553ZM79.9596 132.465C79.9596 132.465 78.3002 136.438 78.4583 136.234C78.6164 136.03 79.9451 132.625 79.9596 132.465ZM84.6851 136.216C84.7139 136.207 84.5988 136.555 84.0669 137.497L84.0382 137.506C84.3459 136.756 84.6277 136.233 84.6851 136.216ZM84.0382 137.506C84.0267 137.572 83.9663 137.684 83.9548 137.75C83.9059 137.796 83.9375 137.693 84.018 137.543L84.0382 137.506ZM84.5587 136.317C84.5587 136.317 84.4149 136.673 84.0209 137.449C83.9807 137.523 83.8744 137.586 83.8744 137.586C83.8744 137.586 83.906 137.483 83.9463 137.408C84.3488 136.661 84.5587 136.317 84.5587 136.317ZM83.2567 137.302C82.6355 138.678 82.2733 139.037 81.6927 139.712C82.1124 139.023 82.6788 138.195 83.1675 137.422C83.2365 137.339 83.2567 137.302 83.2567 137.302ZM76.526 140.133C76.4504 142.598 77.1828 143.788 77.3983 143.567C77.3983 143.567 77.0277 143.584 76.7179 141.923C76.5716 141.121 76.6723 140.934 76.526 140.133ZM82.9688 138.641C82.6064 139.626 81.1979 141.301 80.7034 141.95C81.2956 141.209 82.3307 139.333 82.9688 138.641ZM87.4044 131.643C88.439 131.333 89.5913 131.207 90.1226 131.831C90.7949 132.193 89.263 133.247 89.263 133.247C88.8693 133.397 88.7057 132.851 88.792 132.511C88.8668 132.239 88.3956 132.129 86.8089 133.732C85.2825 135.223 84.7304 136.516 85.0291 136.99C85.5632 137.832 87.3538 136.701 89.4715 136.974C89.5088 136.994 89.6036 136.997 89.641 137.017C90.1153 136.406 92.2741 134.099 93.1105 133.441C93.0099 133.628 92.8805 133.823 92.7339 133.961C92.32 134.461 91.8659 134.722 91.6646 135.096C92.5844 134.194 93.5157 133.226 93.6336 133.096C93.9843 132.803 93.4265 133.66 92.8401 134.211C92.9465 134.148 92.9867 134.073 93.0155 134.065C93.1074 134.162 90.6066 136.791 90.2673 137.331C91.1895 137.9 93.085 140.777 90.5809 144.44C90.0836 145.184 88.1261 147.117 86.356 147.272C84.5858 147.426 83.9886 146.165 84.446 144.556C84.7107 143.662 85.257 142.559 85.9959 141.367C89.3623 136.819 86.3896 141.217 87.5914 139.479C87.1515 140.206 86.844 140.33 85.921 141.953C85.9498 141.944 87.5166 139.752 87.9909 139.14C88.1979 138.89 88.4048 138.64 88.6607 138.345C88.8878 138.057 89.1925 137.716 89.1839 137.687C89.1753 137.658 89.1092 137.647 89.0804 137.655C88.8764 137.81 87.442 139.399 88.977 137.623C88.9109 137.612 88.8075 137.58 88.7414 137.569C87.4599 137.264 85.1551 138.142 83.96 137.498C81.9461 136.316 84.7746 133.214 85.864 132.355C86.1945 132.1 86.8009 131.824 87.4044 131.643ZM87.999 132.373C87.9415 132.391 87.6915 132.497 87.5161 132.643C86.0876 133.729 84.7969 135.274 85.4752 134.821C85.4263 134.867 85.9783 134.2 86.4008 133.729C86.7745 133.304 88.0076 132.402 88.0076 132.402C88.0363 132.393 88.0277 132.365 87.999 132.373ZM85.9986 133.536C86.0389 133.462 85.2858 134.188 84.7568 135.036C84.406 135.642 84.5468 135.694 84.6589 135.441C84.7539 135.131 85.9986 133.536 85.9986 133.536ZM93.0356 134.027L93.0155 134.065L93.0356 134.027ZM92.3544 134.576C92.2682 134.602 90.3738 136.954 90.0806 137.23C90.5203 136.817 91.4489 135.63 92.0956 134.967C92.3026 134.717 92.3544 134.576 92.3544 134.576ZM91.3225 135.417C90.992 135.673 89.6956 137.095 89.8191 137.089C89.8363 137.147 90.8712 135.897 91.3225 135.417ZM89.3706 137.787C89.3131 137.805 88.9193 138.267 88.7612 138.471C88.9078 138.333 88.8963 138.399 88.7583 138.566C88.6893 138.649 88.6404 138.695 88.6404 138.695L88.6117 138.704C88.583 138.712 88.4737 138.87 88.3473 138.971C88.2294 139.1 88.1604 139.183 88.1604 139.183C88.1891 139.175 88.2265 139.195 88.1776 139.241C88.1489 139.25 88.1 139.296 88.0512 139.341C87.896 139.451 87.801 139.761 87.6056 139.945C87.4705 140.017 87.0507 140.706 86.8725 140.947C86.6741 141.226 86.7316 141.209 86.8696 141.042C86.9587 140.922 87.0162 140.904 86.9673 140.95C86.9184 140.996 86.9472 140.988 87.0162 140.904C87.7434 140.091 86.7834 141.068 87.5423 140.152C87.5423 140.152 87.571 140.143 87.5624 140.114C87.5538 140.086 87.663 139.928 87.7522 139.807C87.8901 139.64 87.9189 139.632 87.8298 139.752C87.7406 139.873 87.778 139.893 87.8671 139.772C88.1143 139.448 87.8384 139.781 87.6199 140.097C87.5308 140.218 88.2006 139.422 88.6749 138.81L88.6548 138.847L88.7151 138.735C89.1291 138.236 89.3476 137.92 88.8244 138.577C88.8848 138.465 89.0228 138.299 89.1406 138.169C89.2383 138.078 89.408 137.808 89.3792 137.816L89.3706 137.787ZM88.7151 138.735C88.7353 138.698 88.7755 138.623 88.8244 138.577L88.8043 138.615C88.7353 138.698 88.695 138.773 88.6749 138.81C88.7036 138.802 88.7151 138.735 88.7151 138.735ZM89.6493 137.986C88.5683 139.5 87.2431 141.243 86.2224 142.959C85.3915 144.366 84.859 146.875 86.3332 146.464C86.8505 146.309 87.8564 145.695 88.2876 145.252C89.837 143.629 91.6229 139.242 89.6493 137.986ZM88.8906 138.276C88.8906 138.276 88.7842 138.339 88.6089 138.485C88.5514 138.503 88.4623 138.623 88.3732 138.744C88.3042 138.827 88.2438 138.939 88.2237 138.977C88.2036 139.014 88.1547 139.06 88.0771 139.115C88.0484 139.123 88.0282 139.16 88.0282 139.16C87.9794 139.206 87.9075 139.385 88.0253 139.255C88.0742 139.209 88.1029 139.201 88.0828 139.238C88.0627 139.275 88.0541 139.247 88.1029 139.201L88.1432 139.126C88.2036 139.014 88.2812 138.959 88.2812 138.959C88.2812 138.959 88.3588 138.905 88.4076 138.859C88.4565 138.813 88.4479 138.784 88.4192 138.793C88.2352 138.911 88.9481 138.259 88.8906 138.276ZM88.3186 138.666L88.2209 138.758C88.172 138.804 88.1605 138.87 88.1605 138.87L88.2582 138.778L88.3186 138.666ZM88.4104 139.077C88.4104 139.077 88.3903 139.115 88.3414 139.161C88.3213 139.198 88.2725 139.244 88.2523 139.281C88.2035 139.327 88.1143 139.448 88.0942 139.485L88.0741 139.523C88.054 139.56 88.0252 139.568 88.0453 139.531C88.0655 139.494 88.1546 139.373 88.2236 139.29C88.2523 139.281 88.2638 139.215 88.2638 139.215C88.284 139.178 88.3328 139.132 88.3616 139.123C88.3903 139.115 88.4104 139.077 88.4104 139.077ZM88.1602 139.81C87.9389 139.908 85.9064 142.74 85.7222 143.484C85.6273 143.795 86.0443 142.887 86.5531 142.077C87.0016 141.378 87.614 140.6 88.1602 139.81ZM90.8555 139.817C90.9531 140.038 90.9818 140.342 90.9615 140.693C90.9414 140.73 90.9299 140.796 90.9098 140.834C90.8982 140.9 90.9385 140.825 90.9701 140.722C90.6852 141.966 90.3342 143.198 89.9578 143.405C90.0065 143.673 89.5926 144.172 89.239 144.56C89.5494 144.342 89.0952 144.916 89.4056 144.698C89.6068 144.638 88.7042 145.597 88.1782 146.037C88.2759 145.945 88.7587 145.675 89.0663 145.238C89.3337 144.876 89.4774 144.833 89.6758 144.555C89.3079 144.79 89.7017 144.328 89.7333 144.224C90.0266 143.635 90.4521 143.069 90.5587 142.38C90.5932 142.181 90.7542 141.883 90.7974 141.713C91.0189 140.989 91.0909 140.498 90.9615 140.693C91.0162 140.457 91.0968 139.995 90.8555 139.817ZM90.9615 140.693L90.9701 140.722L90.9615 140.693ZM85.7111 142.298C85.7111 142.298 85.1274 143.381 85.2137 143.355C85.32 143.292 85.7111 142.298 85.7111 142.298ZM91.1971 140.748C91.1971 140.748 91.0964 141.248 90.9468 141.794C90.8576 142.227 90.7022 142.65 90.4779 143.155C90.1932 143.773 89.6671 144.526 89.7936 144.425C90.3685 143.94 91.3924 141.19 91.1971 140.748ZM89.0291 144.905L89.0004 144.913C88.9515 144.959 88.802 145.192 88.7733 145.201C88.6151 145.405 88.5663 145.451 88.4197 145.589C88.6812 145.416 89.2015 144.853 89.0291 144.905ZM88.3018 145.718C88.2817 145.755 87.0228 146.571 86.8648 146.462C86.8504 146.622 87.8017 146.244 88.1552 145.856L88.3018 145.718Z" fill="white"/>
</g>
<g filter="url(#filter2_d_3203_31170)">
<rect x="102.393" y="93.5349" width="855.452" height="136" rx="4" transform="rotate(5.89382 102.393 93.5349)" fill="#4482F7"/>
</g>
<path d="M134.64 61.2H165.42V67.86H134.64V61.2ZM164.1 45.18H172.08V84H164.1V45.18ZM127.62 45.18H135.6V84H127.62V45.18ZM194.792 84.66C191.832 84.66 189.132 84.02 186.692 82.74C184.292 81.42 182.372 79.6 180.932 77.28C179.532 74.92 178.832 72.2 178.832 69.12C178.832 65.96 179.552 63.22 180.992 60.9C182.432 58.58 184.372 56.78 186.812 55.5C189.292 54.18 192.092 53.52 195.212 53.52C198.652 53.52 201.412 54.22 203.492 55.62C205.612 56.98 207.152 58.84 208.112 61.2C209.072 63.56 209.552 66.2 209.552 69.12C209.552 70.88 209.272 72.68 208.712 74.52C208.152 76.32 207.292 78 206.132 79.56C204.972 81.08 203.452 82.32 201.572 83.28C199.692 84.2 197.432 84.66 194.792 84.66ZM197.312 78.66C199.672 78.66 201.712 78.26 203.432 77.46C205.152 76.66 206.472 75.54 207.392 74.1C208.312 72.66 208.772 71 208.772 69.12C208.772 67.08 208.292 65.36 207.332 63.96C206.412 62.52 205.092 61.44 203.372 60.72C201.692 59.96 199.672 59.58 197.312 59.58C193.992 59.58 191.412 60.46 189.572 62.22C187.732 63.94 186.812 66.24 186.812 69.12C186.812 71.04 187.252 72.72 188.132 74.16C189.012 75.56 190.232 76.66 191.792 77.46C193.392 78.26 195.232 78.66 197.312 78.66ZM208.772 54.18H216.572V84H209.312C209.312 84 209.252 83.62 209.132 82.86C209.052 82.06 208.972 81.06 208.892 79.86C208.812 78.66 208.772 77.48 208.772 76.32V54.18ZM245.351 84.72C242.711 84.72 240.451 84.26 238.571 83.34C236.731 82.38 235.231 81.14 234.071 79.62C232.911 78.06 232.051 76.36 231.491 74.52C230.931 72.68 230.651 70.88 230.651 69.12C230.651 66.92 230.911 64.88 231.431 63C231.991 61.12 232.851 59.48 234.011 58.08C235.171 56.64 236.671 55.52 238.511 54.72C240.391 53.92 242.671 53.52 245.351 53.52C248.351 53.52 251.051 54.18 253.451 55.5C255.851 56.82 257.751 58.66 259.151 61.02C260.591 63.34 261.311 66.04 261.311 69.12C261.311 72.28 260.591 75.04 259.151 77.4C257.711 79.72 255.791 81.52 253.391 82.8C250.991 84.08 248.311 84.72 245.351 84.72ZM242.831 78.66C244.951 78.66 246.791 78.26 248.351 77.46C249.951 76.66 251.171 75.56 252.011 74.16C252.891 72.72 253.331 71.04 253.331 69.12C253.331 66.24 252.411 63.92 250.571 62.16C248.771 60.4 246.191 59.52 242.831 59.52C240.711 59.52 238.771 59.9 237.011 60.66C235.291 61.42 233.931 62.52 232.931 63.96C231.931 65.36 231.431 67.08 231.431 69.12C231.431 71.04 231.891 72.72 232.811 74.16C233.731 75.56 235.051 76.66 236.771 77.46C238.491 78.26 240.511 78.66 242.831 78.66ZM223.631 54.18H231.071L231.431 62.1V96H223.631V54.18ZM288.769 84.72C286.129 84.72 283.869 84.26 281.989 83.34C280.149 82.38 278.649 81.14 277.489 79.62C276.329 78.06 275.469 76.36 274.909 74.52C274.349 72.68 274.069 70.88 274.069 69.12C274.069 66.92 274.329 64.88 274.849 63C275.409 61.12 276.269 59.48 277.429 58.08C278.589 56.64 280.089 55.52 281.929 54.72C283.809 53.92 286.089 53.52 288.769 53.52C291.769 53.52 294.469 54.18 296.869 55.5C299.269 56.82 301.169 58.66 302.569 61.02C304.009 63.34 304.729 66.04 304.729 69.12C304.729 72.28 304.009 75.04 302.569 77.4C301.129 79.72 299.209 81.52 296.809 82.8C294.409 84.08 291.729 84.72 288.769 84.72ZM286.249 78.66C288.369 78.66 290.209 78.26 291.769 77.46C293.369 76.66 294.589 75.56 295.429 74.16C296.309 72.72 296.749 71.04 296.749 69.12C296.749 66.24 295.829 63.92 293.989 62.16C292.189 60.4 289.609 59.52 286.249 59.52C284.129 59.52 282.189 59.9 280.429 60.66C278.709 61.42 277.349 62.52 276.349 63.96C275.349 65.36 274.849 67.08 274.849 69.12C274.849 71.04 275.309 72.72 276.229 74.16C277.149 75.56 278.469 76.66 280.189 77.46C281.909 78.26 283.929 78.66 286.249 78.66ZM267.049 54.18H274.489L274.849 62.1V96H267.049V54.18ZM307.767 54.18H316.047L328.947 82.8L322.227 84L307.767 54.18ZM344.247 54.18L323.607 96H315.507L324.327 79.56L335.907 54.18H344.247ZM404.913 74.1H412.473C412.153 76.14 411.293 77.96 409.893 79.56C408.533 81.16 406.673 82.42 404.313 83.34C401.953 84.26 399.073 84.72 395.673 84.72C391.873 84.72 388.513 84.12 385.593 82.92C382.673 81.68 380.393 79.9 378.753 77.58C377.113 75.26 376.293 72.46 376.293 69.18C376.293 65.9 377.093 63.1 378.693 60.78C380.293 58.42 382.513 56.62 385.353 55.38C388.233 54.14 391.593 53.52 395.433 53.52C399.353 53.52 402.613 54.14 405.213 55.38C407.813 56.62 409.733 58.5 410.973 61.02C412.253 63.5 412.793 66.68 412.593 70.56H384.153C384.353 72.08 384.913 73.46 385.833 74.7C386.793 75.94 388.073 76.92 389.673 77.64C391.313 78.36 393.253 78.72 395.493 78.72C397.973 78.72 400.033 78.3 401.673 77.46C403.353 76.58 404.433 75.46 404.913 74.1ZM395.073 59.46C392.193 59.46 389.853 60.1 388.053 61.38C386.253 62.62 385.093 64.16 384.573 66H404.853C404.653 64 403.693 62.42 401.973 61.26C400.293 60.06 397.993 59.46 395.073 59.46ZM418.397 54.18H426.197V84H418.397V54.18ZM440.057 53.52C441.897 53.52 443.597 53.76 445.157 54.24C446.717 54.72 448.077 55.46 449.237 56.46C450.397 57.46 451.297 58.74 451.937 60.3C452.577 61.82 452.897 63.64 452.897 65.76V84H445.097V67.14C445.097 64.62 444.477 62.78 443.237 61.62C442.037 60.42 440.057 59.82 437.297 59.82C435.217 59.82 433.337 60.22 431.657 61.02C429.977 61.82 428.617 62.84 427.577 64.08C426.537 65.28 425.937 66.54 425.777 67.86L425.717 64.8C425.917 63.4 426.377 62.04 427.097 60.72C427.817 59.4 428.777 58.2 429.977 57.12C431.217 56 432.677 55.12 434.357 54.48C436.037 53.84 437.937 53.52 440.057 53.52ZM466.037 53.52C467.877 53.52 469.577 53.76 471.137 54.24C472.697 54.72 474.057 55.46 475.217 56.46C476.377 57.46 477.277 58.74 477.917 60.3C478.597 61.82 478.937 63.64 478.937 65.76V84H471.137V67.14C471.137 64.62 470.517 62.78 469.277 61.62C468.037 60.42 466.037 59.82 463.277 59.82C461.197 59.82 459.317 60.22 457.637 61.02C455.957 61.82 454.597 62.84 453.557 64.08C452.517 65.28 451.937 66.54 451.817 67.86L451.697 64.62C451.897 63.3 452.377 61.98 453.137 60.66C453.897 59.34 454.897 58.14 456.137 57.06C457.377 55.98 458.817 55.12 460.457 54.48C462.137 53.84 463.997 53.52 466.037 53.52ZM507.734 84.72C505.094 84.72 502.834 84.26 500.954 83.34C499.114 82.38 497.614 81.14 496.454 79.62C495.294 78.06 494.434 76.36 493.874 74.52C493.314 72.68 493.034 70.88 493.034 69.12C493.034 66.92 493.294 64.88 493.814 63C494.374 61.12 495.234 59.48 496.394 58.08C497.554 56.64 499.054 55.52 500.894 54.72C502.774 53.92 505.054 53.52 507.734 53.52C510.734 53.52 513.434 54.18 515.834 55.5C518.234 56.82 520.134 58.66 521.534 61.02C522.974 63.34 523.694 66.04 523.694 69.12C523.694 72.28 522.974 75.04 521.534 77.4C520.094 79.72 518.174 81.52 515.774 82.8C513.374 84.08 510.694 84.72 507.734 84.72ZM505.214 78.66C507.334 78.66 509.174 78.26 510.734 77.46C512.334 76.66 513.554 75.56 514.394 74.16C515.274 72.72 515.714 71.04 515.714 69.12C515.714 66.24 514.794 63.92 512.954 62.16C511.154 60.4 508.574 59.52 505.214 59.52C503.094 59.52 501.154 59.9 499.394 60.66C497.674 61.42 496.314 62.52 495.314 63.96C494.314 65.36 493.814 67.08 493.814 69.12C493.814 71.04 494.274 72.72 495.194 74.16C496.114 75.56 497.434 76.66 499.154 77.46C500.874 78.26 502.894 78.66 505.214 78.66ZM486.014 54.18H493.454L493.814 62.1V96H486.014V54.18ZM530.032 42.18H537.832V84H530.032V42.18ZM563.301 84.72C559.541 84.72 556.221 84.12 553.341 82.92C550.501 81.72 548.281 79.98 546.681 77.7C545.081 75.38 544.281 72.54 544.281 69.18C544.281 65.82 545.081 62.98 546.681 60.66C548.281 58.3 550.501 56.52 553.341 55.32C556.221 54.12 559.541 53.52 563.301 53.52C567.061 53.52 570.341 54.12 573.141 55.32C575.981 56.52 578.201 58.3 579.801 60.66C581.401 62.98 582.201 65.82 582.201 69.18C582.201 72.54 581.401 75.38 579.801 77.7C578.201 79.98 575.981 81.72 573.141 82.92C570.341 84.12 567.061 84.72 563.301 84.72ZM563.301 78.72C565.381 78.72 567.241 78.36 568.881 77.64C570.561 76.88 571.881 75.8 572.841 74.4C573.801 72.96 574.281 71.22 574.281 69.18C574.281 67.14 573.801 65.4 572.841 63.96C571.881 62.48 570.581 61.36 568.941 60.6C567.301 59.84 565.421 59.46 563.301 59.46C561.221 59.46 559.341 59.84 557.661 60.6C555.981 61.36 554.641 62.46 553.641 63.9C552.681 65.34 552.201 67.1 552.201 69.18C552.201 71.22 552.681 72.96 553.641 74.4C554.601 75.8 555.921 76.88 557.601 77.64C559.281 78.36 561.181 78.72 563.301 78.72ZM584.095 54.18H592.375L605.275 82.8L598.555 84L584.095 54.18ZM620.575 54.18L599.935 96H591.835L600.655 79.56L612.235 54.18H620.575ZM650.948 74.1H658.508C658.188 76.14 657.328 77.96 655.928 79.56C654.568 81.16 652.708 82.42 650.348 83.34C647.988 84.26 645.108 84.72 641.708 84.72C637.908 84.72 634.548 84.12 631.628 82.92C628.708 81.68 626.428 79.9 624.788 77.58C623.148 75.26 622.328 72.46 622.328 69.18C622.328 65.9 623.128 63.1 624.728 60.78C626.328 58.42 628.548 56.62 631.388 55.38C634.268 54.14 637.628 53.52 641.468 53.52C645.388 53.52 648.648 54.14 651.248 55.38C653.848 56.62 655.768 58.5 657.008 61.02C658.288 63.5 658.828 66.68 658.628 70.56H630.188C630.388 72.08 630.948 73.46 631.868 74.7C632.828 75.94 634.108 76.92 635.708 77.64C637.348 78.36 639.288 78.72 641.528 78.72C644.008 78.72 646.068 78.3 647.708 77.46C649.388 76.58 650.468 75.46 650.948 74.1ZM641.108 59.46C638.228 59.46 635.888 60.1 634.088 61.38C632.288 62.62 631.128 64.16 630.608 66H650.888C650.688 64 649.728 62.42 648.008 61.26C646.328 60.06 644.028 59.46 641.108 59.46ZM691.612 74.1H699.172C698.852 76.14 697.992 77.96 696.592 79.56C695.232 81.16 693.372 82.42 691.012 83.34C688.652 84.26 685.772 84.72 682.372 84.72C678.572 84.72 675.212 84.12 672.292 82.92C669.372 81.68 667.092 79.9 665.452 77.58C663.812 75.26 662.992 72.46 662.992 69.18C662.992 65.9 663.792 63.1 665.392 60.78C666.992 58.42 669.212 56.62 672.052 55.38C674.932 54.14 678.292 53.52 682.132 53.52C686.052 53.52 689.312 54.14 691.912 55.38C694.512 56.62 696.432 58.5 697.672 61.02C698.952 63.5 699.492 66.68 699.292 70.56H670.852C671.052 72.08 671.612 73.46 672.532 74.7C673.492 75.94 674.772 76.92 676.372 77.64C678.012 78.36 679.952 78.72 682.192 78.72C684.672 78.72 686.732 78.3 688.372 77.46C690.052 76.58 691.132 75.46 691.612 74.1ZM681.772 59.46C678.892 59.46 676.552 60.1 674.752 61.38C672.952 62.62 671.792 64.16 671.272 66H691.552C691.352 64 690.392 62.42 688.672 61.26C686.992 60.06 684.692 59.46 681.772 59.46ZM703.896 74.1H711.096C711.536 75.46 712.436 76.58 713.796 77.46C715.196 78.3 717.016 78.72 719.256 78.72C720.776 78.72 721.956 78.58 722.796 78.3C723.636 78.02 724.216 77.62 724.536 77.1C724.856 76.54 725.016 75.92 725.016 75.24C725.016 74.4 724.756 73.76 724.236 73.32C723.716 72.84 722.916 72.46 721.836 72.18C720.756 71.9 719.376 71.64 717.696 71.4C716.016 71.12 714.396 70.78 712.836 70.38C711.276 69.98 709.896 69.46 708.696 68.82C707.496 68.14 706.536 67.3 705.816 66.3C705.136 65.26 704.796 64 704.796 62.52C704.796 61.08 705.136 59.8 705.816 58.68C706.536 57.56 707.516 56.62 708.756 55.86C710.036 55.1 711.516 54.52 713.196 54.12C714.916 53.72 716.756 53.52 718.716 53.52C721.676 53.52 724.136 53.96 726.096 54.84C728.056 55.68 729.516 56.88 730.476 58.44C731.476 59.96 731.976 61.72 731.976 63.72H725.076C724.756 62.24 724.116 61.18 723.156 60.54C722.196 59.86 720.716 59.52 718.716 59.52C716.756 59.52 715.276 59.82 714.276 60.42C713.276 61.02 712.776 61.84 712.776 62.88C712.776 63.72 713.076 64.38 713.676 64.86C714.316 65.3 715.236 65.66 716.436 65.94C717.676 66.22 719.216 66.52 721.056 66.84C722.616 67.16 724.096 67.52 725.496 67.92C726.936 68.32 728.216 68.84 729.336 69.48C730.456 70.08 731.336 70.9 731.976 71.94C732.656 72.94 732.996 74.22 732.996 75.78C732.996 77.7 732.436 79.32 731.316 80.64C730.236 81.96 728.676 82.98 726.636 83.7C724.596 84.38 722.156 84.72 719.316 84.72C716.796 84.72 714.616 84.46 712.776 83.94C710.976 83.38 709.476 82.68 708.276 81.84C707.076 80.96 706.136 80.04 705.456 79.08C704.816 78.08 704.376 77.14 704.136 76.26C703.896 75.38 703.816 74.66 703.896 74.1Z" fill="#041004"/>
<path d="M180.31 186.054L176.55 185.666L202.332 153.282L210.269 154.102L206.283 192.717L198.345 191.897L201.241 163.846L203.095 164.581L182.529 190.265L173.637 189.347L158.739 160.122L160.704 159.782L157.821 187.714L149.883 186.894L153.869 148.28L161.807 149.099L180.31 186.054ZM231.851 196.08C228.111 195.694 224.87 194.756 222.128 193.267C219.427 191.781 217.397 189.823 216.04 187.39C214.686 184.918 214.182 182.011 214.527 178.669C214.872 175.327 215.96 172.584 217.789 170.44C219.623 168.257 222.014 166.715 224.962 165.813C227.95 164.915 231.315 164.659 235.055 165.045C238.795 165.431 241.996 166.365 244.658 167.846C247.36 169.331 249.385 171.33 250.734 173.841C252.088 176.313 252.592 179.221 252.247 182.563C251.902 185.905 250.814 188.648 248.984 190.791C247.159 192.895 244.772 194.398 241.824 195.3C238.915 196.206 235.591 196.466 231.851 196.08ZM232.467 190.112C234.536 190.325 236.423 190.158 238.128 189.61C239.878 189.027 241.301 188.088 242.4 186.794C243.503 185.46 244.159 183.779 244.369 181.75C244.578 179.72 244.279 177.94 243.472 176.409C242.669 174.839 241.491 173.591 239.938 172.667C238.385 171.742 236.553 171.171 234.445 170.953C232.376 170.74 230.467 170.925 228.717 171.508C226.968 172.092 225.522 173.048 224.38 174.378C223.277 175.712 222.619 177.413 222.405 179.482C222.196 181.511 222.495 183.292 223.302 184.823C224.113 186.314 225.315 187.524 226.908 188.452C228.505 189.341 230.358 189.894 232.467 190.112ZM257.026 167.976L280.063 170.355L279.441 176.383L256.403 174.004L257.026 167.976ZM265.503 160.648L273.262 161.449L269.362 199.228L261.603 198.427L265.503 160.648ZM295.229 158.771L294.526 165.575L285.514 164.644L286.216 157.84L295.229 158.771ZM285.47 170.913L293.229 171.714L290.167 201.376L282.408 200.575L285.47 170.913ZM314.777 198.79L311.972 198.5L325.373 175.032L333.848 175.907L316.521 204.097L309.18 203.339L298.277 172.235L306.811 173.116L314.777 198.79ZM348.354 208.046C345.409 207.742 342.789 206.828 340.494 205.305C338.242 203.745 336.519 201.738 335.325 199.282C334.175 196.791 333.758 194.013 334.074 190.95C334.398 187.806 335.396 185.155 337.066 182.995C338.737 180.835 340.852 179.244 343.41 178.221C346.013 177.163 348.866 176.794 351.969 177.114C355.391 177.467 358.064 178.447 359.99 180.053C361.959 181.624 363.3 183.632 364.012 186.078C364.725 188.524 364.931 191.2 364.631 194.104C364.451 195.855 363.987 197.617 363.241 199.389C362.499 201.122 361.472 202.705 360.157 204.138C358.848 205.531 357.208 206.608 355.24 207.37C353.275 208.092 350.98 208.317 348.354 208.046ZM351.476 202.337C353.824 202.579 355.894 202.391 357.687 201.772C359.48 201.152 360.908 200.174 361.971 198.836C363.034 197.498 363.662 195.894 363.856 194.024C364.065 191.995 363.764 190.235 362.953 188.743C362.186 187.217 360.984 186.007 359.347 185.114C357.754 184.185 355.783 183.6 353.436 183.358C350.133 183.017 347.477 183.627 345.466 185.189C343.459 186.711 342.307 188.904 342.012 191.769C341.814 193.679 342.08 195.395 342.807 196.918C343.539 198.401 344.639 199.62 346.109 200.576C347.618 201.536 349.407 202.123 351.476 202.337ZM365.39 179.163L373.148 179.964L370.086 209.626L362.865 208.881C362.865 208.881 362.844 208.497 362.803 207.728C362.805 206.924 362.828 205.921 362.872 204.72C362.916 203.518 362.997 202.34 363.116 201.186L365.39 179.163ZM378.082 180.473L401.119 182.851L400.497 188.879L377.459 186.501L378.082 180.473ZM386.559 173.145L394.318 173.946L390.418 211.725L382.659 210.924L386.559 173.145ZM430.631 205.924L438.151 206.7C437.624 208.696 436.581 210.419 435.024 211.866C433.507 213.318 431.528 214.381 429.086 215.053C426.644 215.726 423.732 215.888 420.35 215.539C416.57 215.149 413.289 214.207 410.508 212.713C407.731 211.18 405.645 209.175 404.252 206.699C402.859 204.223 402.331 201.354 402.668 198.091C403.005 194.828 404.088 192.125 405.918 189.982C407.752 187.799 410.145 186.236 413.097 185.294C416.089 184.357 419.495 184.085 423.315 184.479C427.214 184.882 430.393 185.833 432.852 187.334C435.311 188.834 437.028 190.901 438.003 193.535C439.021 196.134 439.232 199.352 438.634 203.191L410.345 200.271C410.388 201.803 410.803 203.233 411.591 204.561C412.418 205.893 413.591 207 415.108 207.88C416.666 208.765 418.559 209.322 420.787 209.552C423.254 209.807 425.346 209.601 427.064 208.933C428.825 208.231 430.014 207.227 430.631 205.924ZM422.347 190.351C419.482 190.055 417.089 190.451 415.167 191.54C413.249 192.588 411.937 194.001 411.231 195.778L431.403 197.86C431.41 195.85 430.617 194.18 429.025 192.85C427.478 191.484 425.251 190.651 422.347 190.351ZM457.403 219.304C454.419 218.996 451.779 218.08 449.483 216.556C447.232 214.996 445.529 212.991 444.374 210.539C443.224 208.048 442.807 205.271 443.123 202.207C443.448 199.064 444.405 196.408 445.996 194.24C447.627 192.076 449.702 190.48 452.221 189.454C454.744 188.387 457.537 188.012 460.601 188.328C463.267 188.603 465.493 189.235 467.281 190.224C469.069 191.213 470.466 192.483 471.472 194.035C472.482 195.546 473.149 197.264 473.474 199.187C473.838 201.115 473.907 203.173 473.681 205.361C473.5 207.112 473.037 208.874 472.291 210.647C471.549 212.38 470.521 213.962 469.207 215.395C467.897 216.788 466.258 217.865 464.289 218.627C462.324 219.349 460.029 219.575 457.403 219.304ZM460.526 213.594C462.873 213.836 464.944 213.648 466.737 213.029C468.53 212.41 469.958 211.431 471.021 210.093C472.084 208.755 472.712 207.151 472.905 205.281C473.114 203.252 472.814 201.492 472.002 200.001C471.235 198.474 470.035 197.244 468.402 196.311C466.809 195.383 464.839 194.798 462.491 194.555C459.189 194.214 456.532 194.825 454.521 196.387C452.51 197.948 451.357 200.162 451.061 203.026C450.864 204.936 451.129 206.652 451.857 208.175C452.588 209.658 453.689 210.878 455.158 211.834C456.668 212.794 458.457 213.38 460.526 213.594ZM475.671 178.484L483.43 179.285L479.136 220.884L471.914 220.138C471.889 219.211 471.891 218.025 471.92 216.58C471.952 215.095 472.034 213.716 472.166 212.443L475.671 178.484ZM529.947 216.176L537.467 216.953C536.94 218.949 535.897 220.671 534.34 222.119C532.823 223.571 530.844 224.633 528.402 225.306C525.96 225.979 523.048 226.14 519.666 225.791C515.886 225.401 512.605 224.459 509.824 222.966C507.047 221.433 504.961 219.428 503.568 216.952C502.175 214.476 501.647 211.606 501.984 208.343C502.321 205.081 503.404 202.378 505.234 200.234C507.068 198.051 509.461 196.489 512.413 195.547C515.405 194.609 518.811 194.337 522.631 194.732C526.53 195.134 529.709 196.086 532.168 197.586C534.627 199.086 536.344 201.154 537.318 203.788C538.337 206.386 538.548 209.605 537.95 213.444L509.661 210.523C509.704 212.056 510.119 213.486 510.907 214.814C511.734 216.146 512.907 217.252 514.424 218.133C515.982 219.017 517.875 219.575 520.103 219.805C522.57 220.059 524.662 219.853 526.379 219.186C528.141 218.483 529.33 217.48 529.947 216.176ZM521.663 200.603C518.798 200.308 516.405 200.704 514.483 201.792C512.565 202.841 511.253 204.254 510.547 206.03L530.719 208.113C530.726 206.103 529.933 204.433 528.341 203.102C526.794 201.736 524.567 200.903 521.663 200.603ZM545.406 197.746L553.164 198.547L550.102 228.21L542.344 227.409L545.406 197.746ZM567.019 199.314C568.849 199.503 570.516 199.916 572.018 200.554C573.521 201.191 574.797 202.067 575.849 203.181C576.9 204.295 577.664 205.66 578.14 207.278C578.62 208.856 578.752 210.699 578.534 212.808L576.661 230.951L568.902 230.15L570.634 213.379C570.892 210.873 570.465 208.979 569.35 207.698C568.28 206.381 566.372 205.581 563.627 205.297C561.558 205.084 559.646 205.288 557.893 205.912C556.14 206.535 554.682 207.41 553.521 208.537C552.363 209.623 551.637 210.815 551.342 212.112L551.596 209.062C551.939 207.69 552.536 206.384 553.388 205.145C554.24 203.906 555.318 202.811 556.623 201.86C557.971 200.873 559.514 200.148 561.25 199.683C562.987 199.219 564.91 199.096 567.019 199.314ZM592.862 201.982C594.692 202.171 596.358 202.584 597.861 203.222C599.363 203.859 600.64 204.735 601.691 205.849C602.742 206.963 603.506 208.328 603.983 209.946C604.503 211.527 604.654 213.373 604.437 215.482L602.564 233.625L594.805 232.824L596.536 216.053C596.795 213.547 596.367 211.653 595.253 210.372C594.143 209.051 592.215 208.248 589.469 207.965C587.4 207.751 585.489 207.956 583.736 208.579C581.983 209.203 580.525 210.078 579.363 211.204C578.206 212.291 577.499 213.485 577.244 214.786L577.458 211.55C577.792 210.258 578.405 208.994 579.297 207.759C580.188 206.524 581.306 205.433 582.65 204.486C583.995 203.539 585.515 202.832 587.213 202.364C588.949 201.899 590.832 201.772 592.862 201.982ZM631.135 237.298C628.509 237.027 626.308 236.338 624.532 235.229C622.8 234.086 621.436 232.698 620.438 231.067C619.444 229.396 618.763 227.617 618.395 225.729C618.027 223.841 617.933 222.022 618.114 220.271C618.34 218.083 618.808 216.08 619.519 214.264C620.269 212.451 621.292 210.908 622.59 209.635C623.892 208.321 625.499 207.361 627.411 206.755C629.364 206.152 631.673 205.988 634.338 206.263C637.323 206.571 639.94 207.505 642.192 209.065C644.444 210.624 646.145 212.649 647.295 215.141C648.489 217.596 648.928 220.356 648.612 223.42C648.288 226.563 647.288 229.234 645.613 231.434C643.943 233.594 641.848 235.187 639.329 236.214C636.811 237.241 634.079 237.602 631.135 237.298ZM629.25 231.012C631.359 231.229 633.23 231.02 634.864 230.385C636.538 229.753 637.864 228.784 638.844 227.478C639.867 226.136 640.477 224.51 640.674 222.6C640.97 219.736 640.293 217.333 638.644 215.394C637.034 213.458 634.558 212.318 631.216 211.973C629.107 211.755 627.138 211.934 625.309 212.509C623.52 213.089 622.055 214.043 620.912 215.373C619.774 216.663 619.1 218.322 618.89 220.351C618.693 222.261 618.978 223.98 619.745 225.507C620.517 226.994 621.717 228.223 623.345 229.196C624.974 230.168 626.942 230.773 629.25 231.012ZM612.665 204.69L620.066 205.453L619.611 213.369L616.13 247.089L608.371 246.288L612.665 204.69ZM657.683 197.273L665.442 198.074L661.147 239.673L653.389 238.872L657.683 197.273ZM686.408 243.004C682.668 242.618 679.427 241.68 676.685 240.191C673.984 238.706 671.954 236.747 670.597 234.315C669.243 231.843 668.739 228.936 669.084 225.593C669.429 222.251 670.517 219.508 672.346 217.365C674.18 215.182 676.571 213.639 679.519 212.737C682.507 211.839 685.872 211.583 689.612 211.969C693.352 212.355 696.553 213.289 699.215 214.77C701.917 216.255 703.942 218.254 705.291 220.766C706.645 223.238 707.149 226.145 706.804 229.487C706.459 232.829 705.371 235.572 703.542 237.716C701.716 239.819 699.329 241.322 696.381 242.224C693.472 243.13 690.148 243.39 686.408 243.004ZM687.024 237.036C689.093 237.25 690.98 237.083 692.685 236.535C694.435 235.951 695.859 235.013 696.957 233.718C698.06 232.385 698.716 230.703 698.926 228.674C699.135 226.645 698.836 224.865 698.029 223.334C697.226 221.763 696.048 220.515 694.495 219.591C692.942 218.667 691.111 218.096 689.002 217.878C686.933 217.664 685.024 217.849 683.274 218.433C681.525 219.016 680.079 219.973 678.937 221.302C677.834 222.636 677.176 224.338 676.962 226.407C676.753 228.436 677.052 230.216 677.859 231.747C678.67 233.238 679.872 234.448 681.465 235.376C683.062 236.265 684.915 236.818 687.024 237.036ZM710.228 214.761L718.464 215.611L728.357 245.405L721.55 245.908L710.228 214.761ZM746.515 218.507L721.69 257.986L713.633 257.155L724.095 241.707L738.219 217.651L746.515 218.507ZM774.682 241.44L782.202 242.217C781.674 244.213 780.632 245.935 779.075 247.383C777.558 248.835 775.578 249.897 773.136 250.57C770.694 251.243 767.782 251.405 764.4 251.056C760.62 250.665 757.34 249.723 754.558 248.23C751.781 246.697 749.696 244.692 748.303 242.216C746.91 239.74 746.382 236.87 746.718 233.608C747.055 230.345 748.139 227.642 749.968 225.498C751.802 223.315 754.195 221.753 757.148 220.811C760.14 219.873 763.546 219.602 767.365 219.996C771.265 220.398 774.444 221.35 776.903 222.85C779.362 224.351 781.078 226.418 782.053 229.052C783.072 231.65 783.282 234.869 782.685 238.708L754.395 235.787C754.438 237.32 754.853 238.75 755.641 240.078C756.469 241.41 757.641 242.516 759.159 243.397C760.716 244.281 762.609 244.839 764.837 245.069C767.304 245.323 769.397 245.117 771.114 244.45C772.876 243.747 774.065 242.744 774.682 241.44ZM766.397 225.867C763.533 225.572 761.139 225.968 759.217 227.056C757.299 228.105 755.987 229.518 755.281 231.295L775.454 233.377C775.46 231.367 774.668 229.697 773.076 228.366C771.528 227 769.302 226.167 766.397 225.867ZM815.131 245.616L822.651 246.392C822.123 248.389 821.081 250.111 819.524 251.559C818.007 253.011 816.027 254.073 813.585 254.746C811.143 255.418 808.231 255.58 804.849 255.231C801.07 254.841 797.789 253.899 795.008 252.406C792.23 250.872 790.145 248.868 788.752 246.391C787.359 243.915 786.831 241.046 787.168 237.783C787.504 234.521 788.588 231.818 790.417 229.674C792.251 227.491 794.644 225.928 797.597 224.987C800.589 224.049 803.995 223.777 807.814 224.171C811.714 224.574 814.893 225.525 817.352 227.026C819.811 228.526 821.528 230.594 822.502 233.228C823.521 235.826 823.731 239.044 823.134 242.883L794.844 239.963C794.887 241.496 795.303 242.926 796.09 244.254C796.918 245.586 798.091 246.692 799.608 247.572C801.166 248.457 803.058 249.014 805.286 249.244C807.753 249.499 809.846 249.293 811.563 248.626C813.325 247.923 814.514 246.92 815.131 245.616ZM806.846 230.043C803.982 229.747 801.588 230.144 799.666 231.232C797.749 232.281 796.437 233.693 795.73 235.47L815.903 237.553C815.91 235.543 815.117 233.873 813.525 232.542C811.977 231.176 809.751 230.343 806.846 230.043ZM827.35 246.877L834.512 247.617C834.81 249.015 835.59 250.221 836.853 251.236C838.159 252.216 839.926 252.82 842.155 253.05C843.667 253.206 844.855 253.188 845.719 252.996C846.583 252.804 847.201 252.465 847.573 251.981C847.949 251.457 848.172 250.857 848.242 250.18C848.328 249.345 848.135 248.681 847.663 248.19C847.195 247.659 846.438 247.199 845.393 246.81C844.347 246.42 843.001 246.02 841.355 245.609C839.712 245.158 838.136 244.653 836.625 244.095C835.114 243.537 833.795 242.878 832.667 242.118C831.543 241.319 830.675 240.385 830.061 239.316C829.491 238.212 829.283 236.923 829.435 235.451C829.582 234.019 830.052 232.78 830.843 231.736C831.675 230.696 832.746 229.862 834.058 229.233C835.409 228.608 836.941 228.183 838.653 227.958C840.405 227.737 842.256 227.727 844.205 227.928C847.149 228.232 849.551 228.922 851.411 229.999C853.274 231.036 854.603 232.379 855.398 234.03C856.236 235.644 856.553 237.446 856.348 239.436L849.484 238.727C849.318 237.222 848.79 236.102 847.901 235.367C847.016 234.592 845.578 234.102 843.589 233.896C841.639 233.695 840.136 233.842 839.08 234.336C838.024 234.83 837.442 235.594 837.335 236.629C837.249 237.464 837.48 238.152 838.027 238.691C838.619 239.194 839.497 239.647 840.662 240.048C841.867 240.454 843.368 240.911 845.165 241.418C846.684 241.896 848.119 242.407 849.471 242.948C850.862 243.494 852.082 244.143 853.13 244.894C854.183 245.606 854.974 246.512 855.504 247.612C856.077 248.677 856.284 249.985 856.124 251.537C855.927 253.447 855.203 255.001 853.954 256.199C852.744 257.401 851.087 258.255 848.984 258.762C846.885 259.229 844.423 259.316 841.598 259.025C839.092 258.766 836.95 258.284 835.173 257.577C833.44 256.835 832.02 255.985 830.912 255.026C829.809 254.028 828.968 253.016 828.391 251.991C827.857 250.931 827.516 249.951 827.367 249.051C827.219 248.151 827.213 247.426 827.35 246.877Z" fill="#041004"/>
</g>
<defs>
<filter id="filter0_d_3203_31170" x="28" y="-20" width="812" height="184" filterUnits="userSpaceOnUse" color-interpolation-filters="sRGB">
<feFlood flood-opacity="0" result="BackgroundImageFix"/>
<feColorMatrix in="SourceAlpha" type="matrix" values="0 0 0 0 0 0 0 0 0 0 0 0 0 0 0 0 0 0 127 0" result="hardAlpha"/>
<feOffset dy="4"/>
<feGaussianBlur stdDeviation="12"/>
<feComposite in2="hardAlpha" operator="out"/>
<feColorMatrix type="matrix" values="0 0 0 0 0.458333 0 0 0 0 0.458333 0 0 0 0 0.458333 0 0 0 0.1 0"/>
<feBlend mode="normal" in2="BackgroundImageFix" result="effect1_dropShadow_3203_31170"/>
<feBlend mode="normal" in="SourceGraphic" in2="effect1_dropShadow_3203_31170" result="shape"/>
</filter>
<filter id="filter1_d_3203_31170" x="-8" y="82" width="138" height="138" filterUnits="userSpaceOnUse" color-interpolation-filters="sRGB">
<feFlood flood-opacity="0" result="BackgroundImageFix"/>
<feColorMatrix in="SourceAlpha" type="matrix" values="0 0 0 0 0 0 0 0 0 0 0 0 0 0 0 0 0 0 127 0" result="hardAlpha"/>
<feOffset dy="4"/>
<feGaussianBlur stdDeviation="4"/>
<feComposite in2="hardAlpha" operator="out"/>
<feColorMatrix type="matrix" values="0 0 0 0 0 0 0 0 0 0 0 0 0 0 0 0 0 0 0.15 0"/>
<feBlend mode="normal" in2="BackgroundImageFix" result="effect1_dropShadow_3203_31170"/>
<feBlend mode="normal" in="SourceGraphic" in2="effect1_dropShadow_3203_31170" result="shape"/>
</filter>
<filter id="filter2_d_3203_31170" x="53.8171" y="62.9243" width="934.116" height="292.345" filterUnits="userSpaceOnUse" color-interpolation-filters="sRGB">
<feFlood flood-opacity="0" result="BackgroundImageFix"/>
<feColorMatrix in="SourceAlpha" type="matrix" values="0 0 0 0 0 0 0 0 0 0 0 0 0 0 0 0 0 0 127 0" result="hardAlpha"/>
<feOffset dy="4"/>
<feGaussianBlur stdDeviation="17.5"/>
<feComposite in2="hardAlpha" operator="out"/>
<feColorMatrix type="matrix" values="0 0 0 0 0.483333 0 0 0 0 0.469236 0 0 0 0 0.469236 0 0 0 0.08 0"/>
<feBlend mode="normal" in2="BackgroundImageFix" result="effect1_dropShadow_3203_31170"/>
<feBlend mode="normal" in="SourceGraphic" in2="effect1_dropShadow_3203_31170" result="shape"/>
</filter>
<clipPath id="clip0_3203_31170">
<rect width="954.766" height="316.658" fill="white"/>
</clipPath>
</defs>
</svg>
