<svg width="21" height="21" viewBox="0 0 21 21" fill="none" xmlns="http://www.w3.org/2000/svg">
<path d="M10.7783 0.621094C8.83683 0.621094 6.93893 1.19682 5.32463 2.27546C3.71033 3.3541 2.45213 4.88722 1.70915 6.68093C0.966167 8.47465 0.771769 10.4484 1.15054 12.3526C1.52931 14.2568 2.46423 16.0059 3.83708 17.3788C5.20993 18.7516 6.95905 19.6865 8.86325 20.0653C10.7675 20.4441 12.7412 20.2497 14.5349 19.5067C16.3286 18.7637 17.8618 17.5055 18.9404 15.8912C20.019 14.2769 20.5948 12.379 20.5948 10.4375C20.5948 7.83404 19.5605 5.33719 17.7196 3.49626C15.8787 1.65532 13.3818 0.621094 10.7783 0.621094ZM5.16896 11.8399C4.8916 11.8399 4.62047 11.7576 4.38985 11.6035C4.15924 11.4494 3.9795 11.2304 3.87336 10.9742C3.76722 10.7179 3.73945 10.436 3.79356 10.1639C3.84767 9.8919 3.98123 9.64203 4.17735 9.44591C4.37347 9.24978 4.62334 9.11622 4.89537 9.06211C5.1674 9.008 5.44936 9.03578 5.70561 9.14192C5.96186 9.24806 6.18087 9.4278 6.33496 9.65841C6.48906 9.88903 6.5713 10.1602 6.5713 10.4375C6.5713 10.8094 6.42355 11.1661 6.16056 11.4291C5.89757 11.6921 5.54088 11.8399 5.16896 11.8399ZM10.7783 11.8399C10.501 11.8399 10.2299 11.7576 9.99924 11.6035C9.76862 11.4494 9.58888 11.2304 9.48274 10.9742C9.3766 10.7179 9.34883 10.436 9.40294 10.1639C9.45705 9.8919 9.59061 9.64203 9.78673 9.44591C9.98285 9.24978 10.2327 9.11622 10.5048 9.06211C10.7768 9.008 11.0587 9.03578 11.315 9.14192C11.5712 9.24806 11.7903 9.4278 11.9443 9.65841C12.0984 9.88903 12.1807 10.1602 12.1807 10.4375C12.1807 10.8094 12.0329 11.1661 11.7699 11.4291C11.507 11.6921 11.1503 11.8399 10.7783 11.8399ZM16.3877 11.8399C16.1104 11.8399 15.8392 11.7576 15.6086 11.6035C15.378 11.4494 15.1983 11.2304 15.0921 10.9742C14.986 10.7179 14.9582 10.436 15.0123 10.1639C15.0664 9.8919 15.2 9.64203 15.3961 9.44591C15.5922 9.24978 15.8421 9.11622 16.1141 9.06211C16.3862 9.008 16.6681 9.03578 16.9244 9.14192C17.1806 9.24806 17.3996 9.4278 17.5537 9.65841C17.7078 9.88903 17.7901 10.1602 17.7901 10.4375C17.7901 10.8094 17.6423 11.1661 17.3793 11.4291C17.1163 11.6921 16.7596 11.8399 16.3877 11.8399Z" fill="#FFC727"/>
</svg>
