<svg width="130" height="37" viewBox="0 0 130 37" fill="none" xmlns="http://www.w3.org/2000/svg">
<g clip-path="url(#clip0_2021_19607)">
<path d="M11.2953 29.4143C10.6911 30.4648 9.16361 30.4648 8.55942 29.4143L0.223678 14.9227C-0.375051 13.8818 0.38307 12.5879 1.59161 12.5879H18.2631C19.4717 12.5879 20.2298 13.8818 19.631 14.9227L11.2953 29.4143Z" fill="white"/>
<g filter="url(#filter0_f_2021_19607)">
<path d="M11.3447 13.6807H1.26624V15.5543H11.3447V13.6807Z" fill="#0D3D0D"/>
</g>
<path d="M5.0569 4.62454C5.5418 3.79182 6.75406 3.79182 7.23896 4.62453L12.285 13.29C12.7699 14.1228 12.1638 15.1636 11.1939 15.1636H1.10189C0.132105 15.1636 -0.474033 14.1228 0.0108731 13.29L5.0569 4.62454Z" fill="white"/>
<path d="M43.5918 27.296V19.4174C43.5918 18.7195 43.4768 18.1437 43.2469 17.6899C43.017 17.2362 42.6721 16.8959 42.2122 16.6691C41.7523 16.4248 41.1686 16.3027 40.4612 16.3027C39.6829 16.3027 38.9666 16.4859 38.3122 16.8523C37.6755 17.2014 37.1538 17.6812 36.7469 18.2919C36.3401 18.8852 36.0925 19.5571 36.004 20.3074L35.9775 18.8154C36.066 18.1349 36.2517 17.4979 36.5347 16.9047C36.8354 16.3115 37.2068 15.7966 37.6489 15.3604C38.1089 14.9242 38.6395 14.5839 39.2408 14.3396C39.8421 14.0953 40.4966 13.9732 41.204 13.9732C41.9469 13.9732 42.6191 14.0779 43.2204 14.2872C43.8217 14.4792 44.3347 14.7846 44.7591 15.2034C45.2013 15.6047 45.5374 16.1021 45.7673 16.6953C45.9972 17.2711 46.1122 17.9343 46.1122 18.6846V27.296H43.5918ZM33.6428 27.296V9H36.1632V27.296H33.6428ZM54.931 27.5577C53.7989 27.5577 52.7642 27.2698 51.8269 26.694C50.8894 26.1181 50.1466 25.3241 49.5983 24.3121C49.0499 23.2825 48.7759 22.1047 48.7759 20.7785C48.7759 19.4524 49.0499 18.2832 49.5983 17.2711C50.1642 16.2416 50.9336 15.4389 51.9065 14.8631C52.8792 14.2698 53.967 13.9732 55.1698 13.9732C56.4963 13.9732 57.5221 14.2785 58.2473 14.8893C58.9902 15.5 59.503 16.3201 59.7861 17.3497C60.0867 18.3792 60.2371 19.5221 60.2371 20.7785C60.2371 21.4765 60.1486 22.2181 59.9718 23.0034C59.7948 23.7886 59.5119 24.5302 59.1228 25.2282C58.7336 25.9261 58.1942 26.4933 57.5045 26.9295C56.8147 27.3483 55.9568 27.5577 54.931 27.5577ZM55.6473 25.3852C56.5846 25.3852 57.3718 25.1846 58.0085 24.7832C58.6629 24.3644 59.1494 23.806 59.4677 23.1081C59.7861 22.4101 59.9453 21.6335 59.9453 20.7785C59.9453 19.8536 59.7772 19.0422 59.4412 18.3443C59.1228 17.6464 58.6364 17.1053 57.982 16.7215C57.3453 16.3376 56.567 16.1456 55.6473 16.1456C54.2677 16.1456 53.1976 16.5818 52.4371 17.4544C51.6943 18.3269 51.3228 19.4349 51.3228 20.7785C51.3228 21.6859 51.5085 22.4886 51.88 23.1866C52.2514 23.8671 52.7555 24.408 53.3922 24.8094C54.0466 25.1932 54.7983 25.3852 55.6473 25.3852ZM59.9453 14.2349H62.4922V27.296H60.1575C60.1575 27.296 60.1397 27.1389 60.1045 26.8248C60.069 26.4933 60.0336 26.1007 59.9983 25.647C59.9629 25.1932 59.9453 24.792 59.9453 24.443V14.2349ZM65.8141 14.2349H68.361V27.296H65.8141V14.2349ZM72.8447 16.4597C71.925 16.4597 71.1379 16.6691 70.4835 17.0879C69.8468 17.5067 69.3338 18.0214 68.9447 18.6322C68.5733 19.243 68.3256 19.8275 68.2019 20.3859L68.1753 18.894C68.193 18.7195 68.2373 18.449 68.308 18.0825C68.3965 17.6987 68.5468 17.2711 68.759 16.8C68.9712 16.3289 69.2542 15.8839 69.608 15.4651C69.9618 15.0289 70.4039 14.6711 70.9345 14.3919C71.4651 14.1128 72.1019 13.9732 72.8447 13.9732V16.4597ZM80.4739 25.2544C79.3773 25.2544 78.3692 25.0362 77.4494 24.6C76.5297 24.1638 75.7957 23.5268 75.2473 22.6893C74.7167 21.8517 74.4514 20.8396 74.4514 19.653C74.4514 18.4839 74.7167 17.4805 75.2473 16.643C75.7779 15.788 76.4943 15.1336 77.3963 14.6799C78.3161 14.2087 79.3419 13.9732 80.4739 13.9732C80.81 13.9732 81.1284 13.9993 81.429 14.0517C81.7297 14.0866 82.0215 14.1476 82.3045 14.2349H88.0882V16.5906C87.2922 16.5906 86.4875 16.4597 85.6739 16.198C84.8779 15.9362 84.1794 15.6571 83.5779 15.3604L83.4983 15.2295C84.0998 15.5436 84.6215 15.9275 85.0637 16.3812C85.5059 16.8174 85.8419 17.3147 86.0718 17.8732C86.3195 18.414 86.4432 19.0248 86.4432 19.7054C86.4432 20.857 86.1779 21.8517 85.6473 22.6893C85.1345 23.5268 84.4182 24.1638 83.4983 24.6C82.5963 25.0362 81.5881 25.2544 80.4739 25.2544ZM84.5331 32.5832V31.9812C84.5331 31.0913 84.2855 30.4543 83.7902 30.0705C83.295 29.6866 82.5698 29.4946 81.6147 29.4946H78.5106C77.8562 29.4946 77.2991 29.4423 76.8392 29.3376C76.3794 29.2329 75.9991 29.0758 75.6984 28.8664C75.3978 28.6744 75.1766 28.4302 75.0351 28.1336C74.8937 27.8544 74.8228 27.5403 74.8228 27.1913C74.8228 26.5107 75.0351 25.996 75.4596 25.647C75.8841 25.2979 76.4236 25.0799 77.0779 24.9926C77.7325 24.8879 78.3957 24.8791 79.0677 24.9664L80.4739 25.2544C79.4657 25.3067 78.6963 25.4026 78.1657 25.5423C77.6351 25.6819 77.3698 25.9785 77.3698 26.4322C77.3698 26.694 77.4759 26.9034 77.6881 27.0604C77.9004 27.2174 78.2011 27.296 78.5902 27.296H81.8269C82.8351 27.296 83.7284 27.4181 84.5065 27.6624C85.3024 27.9242 85.9215 28.3517 86.3637 28.945C86.8236 29.5557 87.0535 30.3846 87.0535 31.4315V32.5832H84.5331ZM80.4739 23.1342C81.1106 23.1342 81.6855 23.0034 82.1984 22.7416C82.729 22.4625 83.1535 22.0698 83.4718 21.5638C83.7902 21.0403 83.9494 20.4121 83.9494 19.6792C83.9494 18.9289 83.7902 18.2919 83.4718 17.7685C83.1712 17.2276 82.7555 16.8262 82.2249 16.5644C81.6943 16.2853 81.1106 16.1456 80.4739 16.1456C79.8371 16.1456 79.2447 16.2853 78.6963 16.5644C78.1657 16.8262 77.7412 17.2188 77.4228 17.7423C77.1045 18.2658 76.9453 18.9114 76.9453 19.6792C76.9453 20.4121 77.1045 21.0403 77.4228 21.5638C77.7412 22.0698 78.1657 22.4625 78.6963 22.7416C79.2269 23.0034 79.8195 23.1342 80.4739 23.1342ZM96.8214 27.5839C95.5301 27.5839 94.3451 27.3134 93.2663 26.7725C92.1873 26.2316 91.3295 25.455 90.6928 24.443C90.0561 23.4309 89.7377 22.2181 89.7377 20.8047C89.7377 19.3739 90.0561 18.1523 90.6928 17.1403C91.3295 16.1107 92.1873 15.3255 93.2663 14.7846C94.3451 14.2437 95.5301 13.9732 96.8214 13.9732C98.1125 13.9732 99.2887 14.2437 100.35 14.7846C101.411 15.3255 102.26 16.1107 102.897 17.1403C103.534 18.1523 103.852 19.3739 103.852 20.8047C103.852 22.2181 103.534 23.4309 102.897 24.443C102.26 25.455 101.411 26.2316 100.35 26.7725C99.2887 27.3134 98.1125 27.5839 96.8214 27.5839ZM96.8214 25.4114C97.6173 25.4114 98.3513 25.237 99.0234 24.8879C99.7132 24.5215 100.261 23.998 100.668 23.3174C101.093 22.6195 101.305 21.7819 101.305 20.8047C101.305 19.8101 101.093 18.9637 100.668 18.2658C100.261 17.5678 99.7132 17.0356 99.0234 16.6691C98.3513 16.3027 97.6173 16.1195 96.8214 16.1195C96.0254 16.1195 95.2826 16.3027 94.5928 16.6691C93.903 17.0182 93.3458 17.5417 92.9214 18.2396C92.4969 18.9375 92.2846 19.7927 92.2846 20.8047C92.2846 21.7819 92.488 22.6195 92.8948 23.3174C93.3193 23.998 93.8765 24.5215 94.5663 24.8879C95.2561 25.237 96.0077 25.4114 96.8214 25.4114ZM106.517 14.2349H109.064V27.296H106.517V14.2349ZM114.105 13.9732C114.847 13.9732 115.519 14.0779 116.121 14.2872C116.722 14.4966 117.235 14.8107 117.66 15.2295C118.084 15.6309 118.411 16.1369 118.641 16.7476C118.889 17.3409 119.013 18.0214 119.013 18.7893V27.296H116.492V19.3389C116.492 18.3094 116.236 17.5417 115.723 17.0356C115.228 16.5121 114.467 16.2503 113.441 16.2503C112.645 16.2503 111.92 16.4336 111.266 16.8C110.611 17.1664 110.072 17.655 109.647 18.2658C109.241 18.859 108.993 19.5309 108.905 20.2812L108.878 18.8416C108.966 18.1437 109.152 17.4979 109.435 16.9047C109.736 16.3115 110.107 15.7966 110.549 15.3604C111.009 14.9067 111.54 14.5664 112.141 14.3396C112.743 14.0953 113.397 13.9732 114.105 13.9732Z" fill="white"/>
<path d="M124 26.174C124 25.4512 123.406 24.8652 122.673 24.8652C121.941 24.8652 121.347 25.4512 121.347 26.174C121.347 26.8967 121.941 27.4827 122.673 27.4827C123.406 27.4827 124 26.8967 124 26.174Z" fill="white"/>
</g>
<defs>
<filter id="filter0_f_2021_19607" x="-10.7338" y="1.68066" width="34.0785" height="25.874" filterUnits="userSpaceOnUse" color-interpolation-filters="sRGB">
<feFlood flood-opacity="0" result="BackgroundImageFix"/>
<feBlend mode="normal" in="SourceGraphic" in2="BackgroundImageFix" result="shape"/>
<feGaussianBlur stdDeviation="6" result="effect1_foregroundBlur_2021_19607"/>
</filter>
<clipPath id="clip0_2021_19607">
<rect width="130" height="36.6443" fill="white"/>
</clipPath>
</defs>
</svg>
