<svg width="137" height="41" viewBox="0 0 137 41" fill="none" xmlns="http://www.w3.org/2000/svg">
<g clip-path="url(#clip0_4091_41798)">
<path d="M18.4773 36.8198C17.687 38.2508 15.6891 38.2508 14.8989 36.8198L3.99621 17.079C3.21311 15.6611 4.20469 13.8984 5.7854 13.8984H27.5907C29.1715 13.8984 30.1631 15.6611 29.3799 17.079L18.4773 36.8198Z" fill="black"/>
<g filter="url(#filter0_f_4091_41798)">
<path d="M18.5415 15.4062H5.35938V17.9585H18.5415V15.4062Z" fill="white"/>
</g>
<path d="M10.3153 3.0578C10.9496 1.92345 12.5351 1.92344 13.1693 3.05779L19.7692 14.8621C20.4035 15.9965 19.6107 17.4144 18.3422 17.4144H5.1424C3.87397 17.4144 3.08118 15.9965 3.71541 14.8621L10.3153 3.0578Z" fill="black"/>
<path d="M51.4429 30.5027V21.9027C51.4429 21.1408 51.3224 20.5122 51.0814 20.017C50.8405 19.5217 50.479 19.1503 49.997 18.9027C49.515 18.636 48.9032 18.5027 48.1618 18.5027C47.3461 18.5027 46.5953 18.7027 45.9095 19.1027C45.2422 19.4837 44.6953 20.0074 44.2689 20.6741C43.8425 21.3217 43.5831 22.0551 43.4904 22.8741L43.4626 21.2455C43.5553 20.5027 43.7499 19.8074 44.0465 19.1598C44.3617 18.5123 44.751 17.9503 45.2143 17.4741C45.6964 16.998 46.2525 16.6265 46.8827 16.3598C47.5129 16.0931 48.1989 15.9598 48.9404 15.9598C49.7189 15.9598 50.4234 16.0741 51.0536 16.3027C51.6839 16.5123 52.2215 16.8455 52.6664 17.3027C53.1298 17.7408 53.4821 18.2837 53.723 18.9312C53.964 19.5598 54.0845 20.2837 54.0845 21.1027V30.5027H51.4429ZM41.0156 30.5027V10.5312H43.6572V30.5027H41.0156ZM63.3273 30.7884C62.1408 30.7884 61.0563 30.4741 60.0739 29.8455C59.0914 29.217 58.3128 28.3502 57.7382 27.2455C57.1635 26.1217 56.8762 24.836 56.8762 23.3884C56.8762 21.9408 57.1635 20.6645 57.7382 19.5598C58.3313 18.436 59.1377 17.5598 60.1574 16.9313C61.1769 16.2837 62.3169 15.9598 63.5775 15.9598C64.9678 15.9598 66.0429 16.2931 66.803 16.9598C67.5816 17.6265 68.1191 18.5217 68.4158 19.6455C68.7308 20.7694 68.8885 22.017 68.8885 23.3884C68.8885 24.1503 68.7957 24.9598 68.6104 25.817C68.4249 26.6741 68.1284 27.4837 67.7206 28.2455C67.3127 29.0074 66.7474 29.6265 66.0244 30.1027C65.3015 30.5598 64.4024 30.7884 63.3273 30.7884ZM64.078 28.417C65.0604 28.417 65.8854 28.198 66.5528 27.7598C67.2386 27.3027 67.7484 26.6931 68.0821 25.9312C68.4158 25.1694 68.5826 24.3217 68.5826 23.3884C68.5826 22.3788 68.4065 21.4931 68.0543 20.7312C67.7206 19.9694 67.2108 19.3788 66.525 18.9598C65.8576 18.5408 65.0419 18.3312 64.078 18.3312C62.6321 18.3312 61.5105 18.8074 60.7135 19.7598C59.9349 20.7122 59.5456 21.9217 59.5456 23.3884C59.5456 24.3788 59.7403 25.2551 60.1296 26.017C60.5188 26.7598 61.0472 27.3503 61.7145 27.7884C62.4003 28.2074 63.1882 28.417 64.078 28.417ZM68.5826 16.2455H71.252V30.5027H68.8051C68.8051 30.5027 68.7864 30.3312 68.7494 29.9884C68.7123 29.6265 68.6752 29.198 68.6382 28.7027C68.6011 28.2074 68.5826 27.7694 68.5826 27.3884V16.2455ZM74.7336 16.2455H77.403V30.5027H74.7336V16.2455ZM82.1022 18.6741C81.1383 18.6741 80.3133 18.9027 79.6275 19.3598C78.9601 19.817 78.4225 20.3788 78.0147 21.0455C77.6254 21.7123 77.3659 22.3503 77.2362 22.9598L77.2083 21.3313C77.2268 21.1408 77.2733 20.8455 77.3474 20.4455C77.4401 20.0265 77.5976 19.5598 77.8201 19.0455C78.0425 18.5312 78.3391 18.0455 78.7099 17.5884C79.0807 17.1123 79.5441 16.7217 80.1002 16.417C80.6563 16.1123 81.3237 15.9598 82.1022 15.9598V18.6741ZM90.0981 28.2741C88.9489 28.2741 87.8923 28.036 86.9282 27.5598C85.9644 27.0837 85.1951 26.3884 84.6203 25.4741C84.0642 24.5598 83.7862 23.4551 83.7862 22.1598C83.7862 20.8837 84.0642 19.7884 84.6203 18.8741C85.1765 17.9408 85.9272 17.2265 86.8726 16.7312C87.8367 16.217 88.9118 15.9598 90.0981 15.9598C90.4505 15.9598 90.7841 15.9884 91.0992 16.0455C91.4144 16.0837 91.7202 16.1503 92.0168 16.2455H98.0785V18.817C97.2443 18.817 96.401 18.6741 95.5481 18.3884C94.714 18.1027 93.9818 17.798 93.3515 17.4741L93.268 17.3312C93.8984 17.6741 94.4452 18.0931 94.9086 18.5884C95.3721 19.0645 95.7243 19.6074 95.9652 20.217C96.2248 20.8074 96.3545 21.4741 96.3545 22.217C96.3545 23.4741 96.0765 24.5598 95.5203 25.4741C94.9828 26.3884 94.2321 27.0837 93.268 27.5598C92.3226 28.036 91.266 28.2741 90.0981 28.2741ZM94.3525 36.2741V35.617C94.3525 34.6455 94.0931 33.9503 93.5739 33.5313C93.0549 33.1123 92.2948 32.9027 91.2938 32.9027H88.0405C87.3547 32.9027 86.7707 32.8455 86.2887 32.7312C85.8068 32.617 85.4082 32.4455 85.093 32.217C84.778 32.0074 84.5462 31.7408 84.3979 31.417C84.2497 31.1122 84.1754 30.7694 84.1754 30.3884C84.1754 29.6455 84.3979 29.0837 84.8428 28.7027C85.2877 28.3217 85.8531 28.0837 86.539 27.9884C87.2249 27.8741 87.9201 27.8645 88.6244 27.9598L90.0981 28.2741C89.0415 28.3313 88.2351 28.436 87.679 28.5884C87.1229 28.7408 86.8448 29.0645 86.8448 29.5598C86.8448 29.8455 86.9561 30.0741 87.1785 30.2455C87.401 30.417 87.7161 30.5027 88.1239 30.5027H91.5163C92.5729 30.5027 93.5091 30.636 94.3247 30.9027C95.1589 31.1884 95.8077 31.6551 96.2711 32.3027C96.7531 32.9694 96.9941 33.8741 96.9941 35.017V36.2741H94.3525ZM90.0981 25.9598C90.7655 25.9598 91.3681 25.817 91.9055 25.5312C92.4617 25.2265 92.9066 24.798 93.2402 24.2455C93.5739 23.6741 93.7408 22.9884 93.7408 22.1884C93.7408 21.3694 93.5739 20.6741 93.2402 20.1027C92.9252 19.5123 92.4895 19.0741 91.9333 18.7884C91.3772 18.4837 90.7655 18.3312 90.0981 18.3312C89.4308 18.3312 88.8099 18.4837 88.2351 18.7884C87.679 19.0741 87.2341 19.5027 86.9004 20.0741C86.5668 20.6455 86.3999 21.3503 86.3999 22.1884C86.3999 22.9884 86.5668 23.6741 86.9004 24.2455C87.2341 24.798 87.679 25.2265 88.2351 25.5312C88.7913 25.817 89.4123 25.9598 90.0981 25.9598ZM107.232 30.817C105.878 30.817 104.636 30.5217 103.506 29.9312C102.375 29.3408 101.476 28.4931 100.808 27.3884C100.141 26.2837 99.8074 24.9598 99.8074 23.417C99.8074 21.8551 100.141 20.5217 100.808 19.417C101.476 18.2931 102.375 17.436 103.506 16.8455C104.636 16.2551 105.878 15.9598 107.232 15.9598C108.585 15.9598 109.818 16.2551 110.93 16.8455C112.042 17.436 112.932 18.2931 113.599 19.417C114.267 20.5217 114.6 21.8551 114.6 23.417C114.6 24.9598 114.267 26.2837 113.599 27.3884C112.932 28.4931 112.042 29.3408 110.93 29.9312C109.818 30.5217 108.585 30.817 107.232 30.817ZM107.232 28.4455C108.066 28.4455 108.835 28.2551 109.539 27.8741C110.262 27.4741 110.837 26.9027 111.263 26.1598C111.708 25.398 111.931 24.4837 111.931 23.417C111.931 22.3313 111.708 21.4074 111.263 20.6455C110.837 19.8837 110.262 19.3027 109.539 18.9027C108.835 18.5027 108.066 18.3027 107.232 18.3027C106.397 18.3027 105.619 18.5027 104.896 18.9027C104.173 19.2837 103.589 19.8551 103.144 20.617C102.699 21.3788 102.477 22.3123 102.477 23.417C102.477 24.4837 102.69 25.398 103.116 26.1598C103.561 26.9027 104.145 27.4741 104.868 27.8741C105.591 28.2551 106.379 28.4455 107.232 28.4455ZM117.393 16.2455H120.063V30.5027H117.393V16.2455ZM125.346 15.9598C126.124 15.9598 126.829 16.0741 127.459 16.3027C128.089 16.5313 128.627 16.8741 129.072 17.3312C129.517 17.7694 129.86 18.3217 130.101 18.9884C130.36 19.636 130.49 20.3788 130.49 21.217V30.5027H127.848V21.817C127.848 20.6931 127.579 19.8551 127.042 19.3027C126.523 18.7312 125.726 18.4455 124.651 18.4455C123.816 18.4455 123.056 18.6455 122.37 19.0455C121.685 19.4455 121.119 19.9788 120.674 20.6455C120.248 21.2931 119.988 22.0265 119.896 22.8455L119.868 21.2741C119.961 20.5122 120.155 19.8074 120.452 19.1598C120.767 18.5123 121.156 17.9503 121.62 17.4741C122.102 16.9788 122.658 16.6074 123.288 16.3598C123.918 16.0931 124.604 15.9598 125.346 15.9598Z" fill="black"/>
<path d="M136.253 29.0809C136.253 28.2919 135.631 27.6523 134.863 27.6523C134.095 27.6523 133.473 28.2919 133.473 29.0809C133.473 29.8699 134.095 30.5095 134.863 30.5095C135.631 30.5095 136.253 29.8699 136.253 29.0809Z" fill="black"/>
</g>
<defs>
<filter id="filter0_f_4091_41798" x="-9.64062" y="0.40625" width="43.1821" height="32.5527" filterUnits="userSpaceOnUse" color-interpolation-filters="sRGB">
<feFlood flood-opacity="0" result="BackgroundImageFix"/>
<feBlend mode="normal" in="SourceGraphic" in2="BackgroundImageFix" result="shape"/>
<feGaussianBlur stdDeviation="7.5" result="effect1_foregroundBlur_4091_41798"/>
</filter>
<clipPath id="clip0_4091_41798">
<rect width="136.25" height="40" fill="white" transform="translate(0 0.5)"/>
</clipPath>
</defs>
</svg>
