<svg width="876" height="180" viewBox="0 0 876 180" fill="none" xmlns="http://www.w3.org/2000/svg">
<path d="M46.9968 71.1387L30.1618 29.0187H38.2218L52.5218 66.0687H50.1818L63.8318 29.0187H72.2168L85.8668 66.0687H83.5268L97.8268 29.0187H105.757L89.1168 71.1387H80.4068L66.9518 34.1537H69.1618L55.6418 71.1387H46.9968ZM137.757 71.1387V52.4187C137.757 50.6853 137.454 49.2553 136.847 48.1287C136.284 46.9587 135.395 46.0703 134.182 45.4637C132.969 44.857 131.365 44.5537 129.372 44.5537C127.379 44.5537 125.559 44.987 123.912 45.8537C122.265 46.677 120.922 47.782 119.882 49.1687C118.842 50.5553 118.235 52.0937 118.062 53.7837L117.997 50.1437C118.214 48.5837 118.69 47.0887 119.427 45.6587C120.164 44.1853 121.139 42.8853 122.352 41.7587C123.565 40.632 124.995 39.7437 126.642 39.0937C128.289 38.4003 130.109 38.0537 132.102 38.0537C133.965 38.0537 135.677 38.3137 137.237 38.8337C138.84 39.3537 140.205 40.1337 141.332 41.1737C142.502 42.1703 143.39 43.427 143.997 44.9437C144.647 46.417 144.972 48.1287 144.972 50.0787V71.1387H137.757ZM111.237 71.1387V25.7687H118.452V71.1387H111.237ZM149.43 38.7687H157.165L170.23 69.8387L163.99 71.1387L149.43 38.7687ZM185.505 38.7687L164.705 84.1387H157.1L166.005 66.3937L177.77 38.7687H185.505ZM129.733 107.019V142.769H155.993V149.139H122.323V107.019H129.733ZM179.069 149.854C175.473 149.854 172.244 149.204 169.384 147.904C166.524 146.604 164.271 144.697 162.624 142.184C160.978 139.67 160.154 136.615 160.154 133.019C160.154 129.465 160.978 126.432 162.624 123.919C164.271 121.362 166.524 119.412 169.384 118.069C172.244 116.725 175.473 116.054 179.069 116.054C182.666 116.054 185.873 116.725 188.689 118.069C191.506 119.412 193.716 121.362 195.319 123.919C196.966 126.432 197.789 129.465 197.789 133.019C197.789 136.615 196.966 139.67 195.319 142.184C193.716 144.697 191.506 146.604 188.689 147.904C185.873 149.204 182.666 149.854 179.069 149.854ZM179.069 143.939C181.149 143.939 183.056 143.527 184.789 142.704C186.523 141.88 187.888 140.645 188.884 138.999C189.924 137.352 190.444 135.359 190.444 133.019C190.444 130.679 189.924 128.685 188.884 127.039C187.888 125.392 186.523 124.135 184.789 123.269C183.099 122.359 181.193 121.904 179.069 121.904C176.946 121.904 175.018 122.337 173.284 123.204C171.551 124.07 170.143 125.327 169.059 126.974C168.019 128.62 167.499 130.635 167.499 133.019C167.499 135.359 168.019 137.352 169.059 138.999C170.099 140.645 171.486 141.88 173.219 142.704C174.996 143.527 176.946 143.939 179.069 143.939ZM218.677 149.854C215.73 149.854 213.022 149.139 210.552 147.709C208.125 146.279 206.175 144.307 204.702 141.794C203.272 139.237 202.557 136.312 202.557 133.019C202.557 129.639 203.293 126.692 204.767 124.179C206.24 121.622 208.233 119.629 210.747 118.199C213.26 116.769 216.077 116.054 219.197 116.054C222.663 116.054 225.415 116.812 227.452 118.329C229.488 119.845 230.94 121.882 231.807 124.439C232.673 126.995 233.107 129.855 233.107 133.019C233.107 134.795 232.847 136.68 232.327 138.674C231.807 140.624 230.983 142.444 229.857 144.134C228.773 145.824 227.3 147.21 225.437 148.294C223.617 149.334 221.363 149.854 218.677 149.854ZM220.887 143.874C223.313 143.874 225.372 143.419 227.062 142.509C228.795 141.555 230.095 140.255 230.962 138.609C231.872 136.962 232.327 135.099 232.327 133.019C232.327 130.722 231.872 128.772 230.962 127.169C230.052 125.522 228.752 124.265 227.062 123.399C225.372 122.489 223.313 122.034 220.887 122.034C217.42 122.034 214.733 123.052 212.827 125.089C210.92 127.125 209.967 129.769 209.967 133.019C209.967 135.142 210.422 137.027 211.332 138.674C212.285 140.32 213.585 141.599 215.232 142.509C216.878 143.419 218.763 143.874 220.887 143.874ZM232.327 116.769H239.607V149.139H232.847C232.847 149.139 232.803 148.727 232.717 147.904C232.63 147.08 232.543 146.084 232.457 144.914C232.37 143.7 232.327 142.552 232.327 141.469V116.769ZM247.538 116.769H254.753V149.139H247.538V116.769ZM268.403 116.054C270.266 116.054 271.978 116.314 273.538 116.834C275.141 117.354 276.506 118.155 277.633 119.239C278.803 120.279 279.691 121.579 280.298 123.139C280.948 124.699 281.273 126.54 281.273 128.664V149.139H274.058V130.094C274.058 127.45 273.408 125.5 272.108 124.244C270.851 122.944 268.858 122.294 266.128 122.294C264.048 122.294 262.141 122.749 260.408 123.659C258.718 124.525 257.331 125.674 256.248 127.104C255.164 128.49 254.536 130.029 254.363 131.719L254.298 128.209C254.514 126.605 254.991 125.089 255.728 123.659C256.464 122.185 257.439 120.885 258.653 119.759C259.866 118.589 261.296 117.679 262.943 117.029C264.589 116.379 266.409 116.054 268.403 116.054ZM318.327 149.139L301.492 107.019H309.552L323.852 144.069H321.512L335.162 107.019H343.547L357.197 144.069H354.857L369.157 107.019H377.087L360.447 149.139H351.737L338.282 112.154H340.492L326.972 149.139H318.327ZM395.778 149.854C392.182 149.854 388.953 149.204 386.093 147.904C383.233 146.604 380.98 144.697 379.333 142.184C377.687 139.67 376.863 136.615 376.863 133.019C376.863 129.465 377.687 126.432 379.333 123.919C380.98 121.362 383.233 119.412 386.093 118.069C388.953 116.725 392.182 116.054 395.778 116.054C399.375 116.054 402.582 116.725 405.398 118.069C408.215 119.412 410.425 121.362 412.028 123.919C413.675 126.432 414.498 129.465 414.498 133.019C414.498 136.615 413.675 139.67 412.028 142.184C410.425 144.697 408.215 146.604 405.398 147.904C402.582 149.204 399.375 149.854 395.778 149.854ZM395.778 143.939C397.858 143.939 399.765 143.527 401.498 142.704C403.232 141.88 404.597 140.645 405.593 138.999C406.633 137.352 407.153 135.359 407.153 133.019C407.153 130.679 406.633 128.685 405.593 127.039C404.597 125.392 403.232 124.135 401.498 123.269C399.808 122.359 397.902 121.904 395.778 121.904C393.655 121.904 391.727 122.337 389.993 123.204C388.26 124.07 386.852 125.327 385.768 126.974C384.728 128.62 384.208 130.635 384.208 133.019C384.208 135.359 384.728 137.352 385.768 138.999C386.808 140.645 388.195 141.88 389.928 142.704C391.705 143.527 393.655 143.939 395.778 143.939ZM420.956 116.769H428.171V149.139H420.956V116.769ZM439.871 122.944C437.531 122.944 435.516 123.442 433.826 124.439C432.179 125.435 430.857 126.649 429.861 128.079C428.864 129.509 428.171 130.895 427.781 132.239L427.716 128.599C427.759 128.122 427.911 127.407 428.171 126.454C428.431 125.457 428.821 124.374 429.341 123.204C429.904 122.034 430.641 120.907 431.551 119.824C432.504 118.697 433.652 117.787 434.996 117.094C436.382 116.4 438.007 116.054 439.871 116.054V122.944ZM445.981 103.769H453.196V149.139H445.981V103.769ZM478.416 116.769L460.281 133.409L460.476 128.859L479.781 149.139H470.551L453.391 131.004L468.406 116.769H478.416ZM482.431 138.479H489.126C489.473 140.125 490.361 141.469 491.791 142.509C493.221 143.505 495.149 144.004 497.576 144.004C499.136 144.004 500.349 143.83 501.216 143.484C502.126 143.137 502.754 142.66 503.101 142.054C503.491 141.447 503.686 140.754 503.686 139.974C503.686 139.02 503.404 138.284 502.841 137.764C502.321 137.244 501.541 136.81 500.501 136.464C499.461 136.117 498.161 135.814 496.601 135.554C494.998 135.164 493.416 134.73 491.856 134.254C490.296 133.777 488.888 133.192 487.631 132.499C486.374 131.762 485.378 130.852 484.641 129.769C483.948 128.642 483.601 127.277 483.601 125.674C483.601 124.2 483.926 122.879 484.576 121.709C485.269 120.495 486.223 119.477 487.436 118.654C488.649 117.83 490.079 117.202 491.726 116.769C493.373 116.292 495.171 116.054 497.121 116.054C499.938 116.054 502.278 116.509 504.141 117.419C506.048 118.329 507.478 119.607 508.431 121.254C509.428 122.9 509.926 124.785 509.926 126.909H503.556C503.209 125.175 502.538 123.919 501.541 123.139C500.544 122.359 499.049 121.969 497.056 121.969C495.063 121.969 493.546 122.315 492.506 123.009C491.466 123.702 490.946 124.655 490.946 125.869C490.946 126.779 491.271 127.515 491.921 128.079C492.614 128.599 493.589 129.054 494.846 129.444C496.103 129.834 497.576 130.224 499.266 130.614C500.826 131.047 502.299 131.502 503.686 131.979C505.073 132.412 506.308 132.975 507.391 133.669C508.518 134.319 509.406 135.185 510.056 136.269C510.706 137.352 511.031 138.695 511.031 140.299C511.031 142.292 510.489 144.004 509.406 145.434C508.366 146.864 506.849 147.969 504.856 148.749C502.863 149.485 500.458 149.854 497.641 149.854C495.171 149.854 493.026 149.572 491.206 149.009C489.429 148.445 487.934 147.709 486.721 146.799C485.551 145.889 484.641 144.914 483.991 143.874C483.341 142.834 482.886 141.837 482.626 140.884C482.409 139.93 482.344 139.129 482.431 138.479ZM530.273 117.159H553.738V123.009H530.273V117.159ZM548.928 103.769H554.258V110.009H550.228C549.014 109.965 547.953 110.095 547.043 110.399C546.176 110.702 545.483 111.265 544.963 112.089C544.486 112.912 544.248 114.082 544.248 115.599V149.139H536.968V114.949C536.968 112.349 537.444 110.225 538.398 108.579C539.351 106.932 540.716 105.719 542.493 104.939C544.313 104.159 546.458 103.769 548.928 103.769ZM575.861 149.854C572.265 149.854 569.036 149.204 566.176 147.904C563.316 146.604 561.063 144.697 559.416 142.184C557.77 139.67 556.946 136.615 556.946 133.019C556.946 129.465 557.77 126.432 559.416 123.919C561.063 121.362 563.316 119.412 566.176 118.069C569.036 116.725 572.265 116.054 575.861 116.054C579.458 116.054 582.665 116.725 585.481 118.069C588.298 119.412 590.508 121.362 592.111 123.919C593.758 126.432 594.581 129.465 594.581 133.019C594.581 136.615 593.758 139.67 592.111 142.184C590.508 144.697 588.298 146.604 585.481 147.904C582.665 149.204 579.458 149.854 575.861 149.854ZM575.861 143.939C577.941 143.939 579.848 143.527 581.581 142.704C583.315 141.88 584.68 140.645 585.676 138.999C586.716 137.352 587.236 135.359 587.236 133.019C587.236 130.679 586.716 128.685 585.676 127.039C584.68 125.392 583.315 124.135 581.581 123.269C579.891 122.359 577.985 121.904 575.861 121.904C573.738 121.904 571.81 122.337 570.076 123.204C568.343 124.07 566.935 125.327 565.851 126.974C564.811 128.62 564.291 130.635 564.291 133.019C564.291 135.359 564.811 137.352 565.851 138.999C566.891 140.645 568.278 141.88 570.011 142.704C571.788 143.527 573.738 143.939 575.861 143.939ZM601.039 116.769H608.254V149.139H601.039V116.769ZM619.954 122.944C617.614 122.944 615.599 123.442 613.909 124.439C612.262 125.435 610.94 126.649 609.944 128.079C608.947 129.509 608.254 130.895 607.864 132.239L607.799 128.599C607.842 128.122 607.994 127.407 608.254 126.454C608.514 125.457 608.904 124.374 609.424 123.204C609.987 122.034 610.724 120.907 611.634 119.824C612.587 118.697 613.735 117.787 615.079 117.094C616.465 116.4 618.09 116.054 619.954 116.054V122.944ZM679.459 107.019L662.299 135.424V149.139H654.889V135.424L637.729 107.019H646.244L660.739 131.849H656.709L671.009 107.019H679.459ZM695.896 149.854C692.299 149.854 689.071 149.204 686.211 147.904C683.351 146.604 681.097 144.697 679.451 142.184C677.804 139.67 676.981 136.615 676.981 133.019C676.981 129.465 677.804 126.432 679.451 123.919C681.097 121.362 683.351 119.412 686.211 118.069C689.071 116.725 692.299 116.054 695.896 116.054C699.492 116.054 702.699 116.725 705.516 118.069C708.332 119.412 710.542 121.362 712.146 123.919C713.792 126.432 714.616 129.465 714.616 133.019C714.616 136.615 713.792 139.67 712.146 142.184C710.542 144.697 708.332 146.604 705.516 147.904C702.699 149.204 699.492 149.854 695.896 149.854ZM695.896 143.939C697.976 143.939 699.882 143.527 701.616 142.704C703.349 141.88 704.714 140.645 705.711 138.999C706.751 137.352 707.271 135.359 707.271 133.019C707.271 130.679 706.751 128.685 705.711 127.039C704.714 125.392 703.349 124.135 701.616 123.269C699.926 122.359 698.019 121.904 695.896 121.904C693.772 121.904 691.844 122.337 690.111 123.204C688.377 124.07 686.969 125.327 685.886 126.974C684.846 128.62 684.326 130.635 684.326 133.019C684.326 135.359 684.846 137.352 685.886 138.999C686.926 140.645 688.312 141.88 690.046 142.704C691.822 143.527 693.772 143.939 695.896 143.939ZM754.808 149.139H747.593V116.769H754.808V149.139ZM747.983 133.734L748.048 135.814C747.961 136.377 747.766 137.222 747.463 138.349C747.203 139.475 746.748 140.71 746.098 142.054C745.491 143.354 744.668 144.61 743.628 145.824C742.631 146.994 741.375 147.969 739.858 148.749C738.341 149.485 736.5 149.854 734.333 149.854C732.773 149.854 731.191 149.637 729.588 149.204C728.028 148.814 726.598 148.142 725.298 147.189C724.041 146.235 723.023 144.935 722.243 143.289C721.463 141.642 721.073 139.562 721.073 137.049V116.769H728.288V135.684C728.288 137.72 728.613 139.324 729.263 140.494C729.956 141.62 730.91 142.422 732.123 142.899C733.336 143.375 734.745 143.614 736.348 143.614C738.645 143.614 740.595 143.094 742.198 142.054C743.801 141.014 745.08 139.735 746.033 138.219C747.03 136.659 747.68 135.164 747.983 133.734Z" fill="black"/>
<path d="M228.26 46.8937H259.2V53.1987H228.26V46.8937ZM258.16 29.0187H265.505V71.1387H258.16V29.0187ZM221.695 29.0187H229.105V71.1387H221.695V29.0187ZM289.041 71.8537C286.094 71.8537 283.386 71.1387 280.916 69.7087C278.489 68.2787 276.539 66.307 275.066 63.7937C273.636 61.237 272.921 58.312 272.921 55.0187C272.921 51.6387 273.657 48.692 275.131 46.1787C276.604 43.622 278.597 41.6287 281.111 40.1987C283.624 38.7687 286.441 38.0537 289.561 38.0537C293.027 38.0537 295.779 38.812 297.816 40.3287C299.852 41.8453 301.304 43.882 302.171 46.4387C303.037 48.9953 303.471 51.8553 303.471 55.0187C303.471 56.7953 303.211 58.6803 302.691 60.6737C302.171 62.6237 301.347 64.4437 300.221 66.1337C299.137 67.8237 297.664 69.2103 295.801 70.2937C293.981 71.3337 291.727 71.8537 289.041 71.8537ZM291.251 65.8737C293.677 65.8737 295.736 65.4187 297.426 64.5087C299.159 63.5553 300.459 62.2553 301.326 60.6087C302.236 58.962 302.691 57.0987 302.691 55.0187C302.691 52.722 302.236 50.772 301.326 49.1687C300.416 47.522 299.116 46.2653 297.426 45.3987C295.736 44.4887 293.677 44.0337 291.251 44.0337C287.784 44.0337 285.097 45.052 283.191 47.0887C281.284 49.1253 280.331 51.7687 280.331 55.0187C280.331 57.142 280.786 59.027 281.696 60.6737C282.649 62.3203 283.949 63.5987 285.596 64.5087C287.242 65.4187 289.127 65.8737 291.251 65.8737ZM302.691 38.7687H309.971V71.1387H303.211C303.211 71.1387 303.167 70.727 303.081 69.9037C302.994 69.0803 302.907 68.0837 302.821 66.9137C302.734 65.7003 302.691 64.552 302.691 63.4687V38.7687ZM317.902 38.7687H325.117V71.1387H317.902V38.7687ZM336.817 44.9437C334.477 44.9437 332.462 45.442 330.772 46.4387C329.125 47.4353 327.803 48.6487 326.807 50.0787C325.81 51.5087 325.117 52.8953 324.727 54.2387L324.662 50.5987C324.705 50.122 324.857 49.407 325.117 48.4537C325.377 47.457 325.767 46.3737 326.287 45.2037C326.85 44.0337 327.587 42.907 328.497 41.8237C329.45 40.697 330.598 39.787 331.942 39.0937C333.328 38.4003 334.953 38.0537 336.817 38.0537V44.9437ZM356.707 66.1337C353.673 66.1337 350.922 65.592 348.452 64.5087C346.025 63.4253 344.097 61.8437 342.667 59.7637C341.28 57.6837 340.587 55.192 340.587 52.2887C340.587 49.3853 341.258 46.872 342.602 44.7487C343.988 42.6253 345.895 40.9787 348.322 39.8087C350.792 38.6387 353.587 38.0537 356.707 38.0537C357.617 38.0537 358.483 38.1187 359.307 38.2487C360.173 38.3787 360.997 38.552 361.777 38.7687L376.922 38.8337V44.8787C374.842 44.922 372.74 44.6403 370.617 44.0337C368.537 43.3837 366.695 42.712 365.092 42.0187L364.897 41.6287C366.37 42.3653 367.692 43.2753 368.862 44.3587C370.075 45.3987 371.028 46.5903 371.722 47.9337C372.415 49.277 372.762 50.7937 372.762 52.4837C372.762 55.3437 372.068 57.792 370.682 59.8287C369.338 61.8653 367.453 63.4253 365.027 64.5087C362.643 65.592 359.87 66.1337 356.707 66.1337ZM367.107 84.3337V82.8387C367.107 80.7153 366.478 79.2203 365.222 78.3537C363.965 77.487 362.21 77.0537 359.957 77.0537H351.182C349.448 77.0537 347.953 76.902 346.697 76.5987C345.483 76.3387 344.508 75.927 343.772 75.3637C343.035 74.8437 342.493 74.2153 342.147 73.4787C341.8 72.7853 341.627 72.0053 341.627 71.1387C341.627 69.4053 342.147 68.1053 343.187 67.2387C344.27 66.372 345.678 65.8087 347.412 65.5487C349.188 65.2887 351.052 65.2453 353.002 65.4187L356.707 66.1337C354.15 66.2203 352.2 66.4587 350.857 66.8487C349.557 67.1953 348.907 67.9103 348.907 68.9937C348.907 69.6437 349.167 70.1637 349.687 70.5537C350.207 70.9437 350.943 71.1387 351.897 71.1387H361.127C363.77 71.1387 366.088 71.442 368.082 72.0487C370.075 72.6987 371.613 73.7603 372.697 75.2337C373.823 76.7503 374.387 78.8087 374.387 81.4087V84.3337H367.107ZM356.707 60.4787C358.44 60.4787 359.978 60.1537 361.322 59.5037C362.665 58.8537 363.727 57.922 364.507 56.7087C365.287 55.4953 365.677 54.022 365.677 52.2887C365.677 50.5553 365.287 49.0603 364.507 47.8037C363.727 46.547 362.665 45.5937 361.322 44.9437C359.978 44.2937 358.44 43.9687 356.707 43.9687C355.017 43.9687 353.478 44.2937 352.092 44.9437C350.748 45.5937 349.687 46.547 348.907 47.8037C348.127 49.017 347.737 50.512 347.737 52.2887C347.737 54.022 348.127 55.4953 348.907 56.7087C349.687 57.922 350.748 58.8537 352.092 59.5037C353.435 60.1537 354.973 60.4787 356.707 60.4787ZM399.555 71.8537C395.959 71.8537 392.73 71.2037 389.87 69.9037C387.01 68.6037 384.757 66.697 383.11 64.1837C381.464 61.6703 380.64 58.6153 380.64 55.0187C380.64 51.4653 381.464 48.432 383.11 45.9187C384.757 43.362 387.01 41.412 389.87 40.0687C392.73 38.7253 395.959 38.0537 399.555 38.0537C403.152 38.0537 406.359 38.7253 409.175 40.0687C411.992 41.412 414.202 43.362 415.805 45.9187C417.452 48.432 418.275 51.4653 418.275 55.0187C418.275 58.6153 417.452 61.6703 415.805 64.1837C414.202 66.697 411.992 68.6037 409.175 69.9037C406.359 71.2037 403.152 71.8537 399.555 71.8537ZM399.555 65.9387C401.635 65.9387 403.542 65.527 405.275 64.7037C407.009 63.8803 408.374 62.6453 409.37 60.9987C410.41 59.352 410.93 57.3587 410.93 55.0187C410.93 52.6787 410.41 50.6853 409.37 49.0387C408.374 47.392 407.009 46.1353 405.275 45.2687C403.585 44.3587 401.679 43.9037 399.555 43.9037C397.432 43.9037 395.504 44.337 393.77 45.2037C392.037 46.0703 390.629 47.327 389.545 48.9737C388.505 50.6203 387.985 52.6353 387.985 55.0187C387.985 57.3587 388.505 59.352 389.545 60.9987C390.585 62.6453 391.972 63.8803 393.705 64.7037C395.482 65.527 397.432 65.9387 399.555 65.9387ZM424.733 38.7687H431.948V71.1387H424.733V38.7687ZM445.598 38.0537C447.461 38.0537 449.173 38.3137 450.733 38.8337C452.336 39.3537 453.701 40.1553 454.828 41.2387C455.998 42.2787 456.886 43.5787 457.493 45.1387C458.143 46.6987 458.468 48.5403 458.468 50.6637V71.1387H451.253V52.0937C451.253 49.4503 450.603 47.5003 449.303 46.2437C448.046 44.9437 446.053 44.2937 443.323 44.2937C441.243 44.2937 439.336 44.7487 437.603 45.6587C435.913 46.5253 434.526 47.6737 433.443 49.1037C432.359 50.4903 431.731 52.0287 431.558 53.7187L431.493 50.2087C431.709 48.6053 432.186 47.0887 432.923 45.6587C433.659 44.1853 434.634 42.8853 435.848 41.7587C437.061 40.5887 438.491 39.6787 440.138 39.0287C441.784 38.3787 443.604 38.0537 445.598 38.0537ZM470.674 42.2787H466.774L464.564 34.1537V28.7587H472.949V34.1537L470.674 42.2787ZM478.21 60.4787H484.905C485.252 62.1253 486.14 63.4687 487.57 64.5087C489 65.5053 490.928 66.0037 493.355 66.0037C494.915 66.0037 496.128 65.8303 496.995 65.4837C497.905 65.137 498.533 64.6603 498.88 64.0537C499.27 63.447 499.465 62.7537 499.465 61.9737C499.465 61.0203 499.183 60.2837 498.62 59.7637C498.1 59.2437 497.32 58.8103 496.28 58.4637C495.24 58.117 493.94 57.8137 492.38 57.5537C490.777 57.1637 489.195 56.7303 487.635 56.2537C486.075 55.777 484.667 55.192 483.41 54.4987C482.153 53.762 481.157 52.852 480.42 51.7687C479.727 50.642 479.38 49.277 479.38 47.6737C479.38 46.2003 479.705 44.8787 480.355 43.7087C481.048 42.4953 482.002 41.477 483.215 40.6537C484.428 39.8303 485.858 39.202 487.505 38.7687C489.152 38.292 490.95 38.0537 492.9 38.0537C495.717 38.0537 498.057 38.5087 499.92 39.4187C501.827 40.3287 503.257 41.607 504.21 43.2537C505.207 44.9003 505.705 46.7853 505.705 48.9087H499.335C498.988 47.1753 498.317 45.9187 497.32 45.1387C496.323 44.3587 494.828 43.9687 492.835 43.9687C490.842 43.9687 489.325 44.3153 488.285 45.0087C487.245 45.702 486.725 46.6553 486.725 47.8687C486.725 48.7787 487.05 49.5153 487.7 50.0787C488.393 50.5987 489.368 51.0537 490.625 51.4437C491.882 51.8337 493.355 52.2237 495.045 52.6137C496.605 53.047 498.078 53.502 499.465 53.9787C500.852 54.412 502.087 54.9753 503.17 55.6687C504.297 56.3187 505.185 57.1853 505.835 58.2687C506.485 59.352 506.81 60.6953 506.81 62.2987C506.81 64.292 506.268 66.0037 505.185 67.4337C504.145 68.8637 502.628 69.9687 500.635 70.7487C498.642 71.4853 496.237 71.8537 493.42 71.8537C490.95 71.8537 488.805 71.572 486.985 71.0087C485.208 70.4453 483.713 69.7087 482.5 68.7987C481.33 67.8887 480.42 66.9137 479.77 65.8737C479.12 64.8337 478.665 63.837 478.405 62.8837C478.188 61.9303 478.123 61.1287 478.21 60.4787ZM559.006 67.3037H555.691L578.051 29.0187H585.396V71.1387H578.051V39.6137L579.741 40.0687L561.411 71.1387H553.351L535.021 40.1987L536.776 39.6787V71.1387H529.366V29.0187H536.776L559.006 67.3037ZM611.694 71.8537C608.097 71.8537 604.869 71.2037 602.009 69.9037C599.149 68.6037 596.896 66.697 595.249 64.1837C593.602 61.6703 592.779 58.6153 592.779 55.0187C592.779 51.4653 593.602 48.432 595.249 45.9187C596.896 43.362 599.149 41.412 602.009 40.0687C604.869 38.7253 608.097 38.0537 611.694 38.0537C615.291 38.0537 618.497 38.7253 621.314 40.0687C624.131 41.412 626.341 43.362 627.944 45.9187C629.591 48.432 630.414 51.4653 630.414 55.0187C630.414 58.6153 629.591 61.6703 627.944 64.1837C626.341 66.697 624.131 68.6037 621.314 69.9037C618.497 71.2037 615.291 71.8537 611.694 71.8537ZM611.694 65.9387C613.774 65.9387 615.681 65.527 617.414 64.7037C619.147 63.8803 620.512 62.6453 621.509 60.9987C622.549 59.352 623.069 57.3587 623.069 55.0187C623.069 52.6787 622.549 50.6853 621.509 49.0387C620.512 47.392 619.147 46.1353 617.414 45.2687C615.724 44.3587 613.817 43.9037 611.694 43.9037C609.571 43.9037 607.642 44.337 605.909 45.2037C604.176 46.0703 602.767 47.327 601.684 48.9737C600.644 50.6203 600.124 52.6353 600.124 55.0187C600.124 57.3587 600.644 59.352 601.684 60.9987C602.724 62.6453 604.111 63.8803 605.844 64.7037C607.621 65.527 609.571 65.9387 611.694 65.9387ZM636.871 38.7687H644.086V71.1387H636.871V38.7687ZM655.786 44.9437C653.446 44.9437 651.431 45.442 649.741 46.4387C648.095 47.4353 646.773 48.6487 645.776 50.0787C644.78 51.5087 644.086 52.8953 643.696 54.2387L643.631 50.5987C643.675 50.122 643.826 49.407 644.086 48.4537C644.346 47.457 644.736 46.3737 645.256 45.2037C645.82 44.0337 646.556 42.907 647.466 41.8237C648.42 40.697 649.568 39.787 650.911 39.0937C652.298 38.4003 653.923 38.0537 655.786 38.0537V44.9437ZM659.098 38.7687H681.978V44.6837H659.098V38.7687ZM666.898 30.0587H674.178V71.1387H666.898V30.0587ZM701.575 66.1337C698.541 66.1337 695.79 65.592 693.32 64.5087C690.893 63.4253 688.965 61.8437 687.535 59.7637C686.148 57.6837 685.455 55.192 685.455 52.2887C685.455 49.3853 686.126 46.872 687.47 44.7487C688.856 42.6253 690.763 40.9787 693.19 39.8087C695.66 38.6387 698.455 38.0537 701.575 38.0537C702.485 38.0537 703.351 38.1187 704.175 38.2487C705.041 38.3787 705.865 38.552 706.645 38.7687L721.79 38.8337V44.8787C719.71 44.922 717.608 44.6403 715.485 44.0337C713.405 43.3837 711.563 42.712 709.96 42.0187L709.765 41.6287C711.238 42.3653 712.56 43.2753 713.73 44.3587C714.943 45.3987 715.896 46.5903 716.59 47.9337C717.283 49.277 717.63 50.7937 717.63 52.4837C717.63 55.3437 716.936 57.792 715.55 59.8287C714.206 61.8653 712.321 63.4253 709.895 64.5087C707.511 65.592 704.738 66.1337 701.575 66.1337ZM711.975 84.3337V82.8387C711.975 80.7153 711.346 79.2203 710.09 78.3537C708.833 77.487 707.078 77.0537 704.825 77.0537H696.05C694.316 77.0537 692.821 76.902 691.565 76.5987C690.351 76.3387 689.376 75.927 688.64 75.3637C687.903 74.8437 687.361 74.2153 687.015 73.4787C686.668 72.7853 686.495 72.0053 686.495 71.1387C686.495 69.4053 687.015 68.1053 688.055 67.2387C689.138 66.372 690.546 65.8087 692.28 65.5487C694.056 65.2887 695.92 65.2453 697.87 65.4187L701.575 66.1337C699.018 66.2203 697.068 66.4587 695.725 66.8487C694.425 67.1953 693.775 67.9103 693.775 68.9937C693.775 69.6437 694.035 70.1637 694.555 70.5537C695.075 70.9437 695.811 71.1387 696.765 71.1387H705.995C708.638 71.1387 710.956 71.442 712.95 72.0487C714.943 72.6987 716.481 73.7603 717.565 75.2337C718.691 76.7503 719.255 78.8087 719.255 81.4087V84.3337H711.975ZM701.575 60.4787C703.308 60.4787 704.846 60.1537 706.19 59.5037C707.533 58.8537 708.595 57.922 709.375 56.7087C710.155 55.4953 710.545 54.022 710.545 52.2887C710.545 50.5553 710.155 49.0603 709.375 47.8037C708.595 46.547 707.533 45.5937 706.19 44.9437C704.846 44.2937 703.308 43.9687 701.575 43.9687C699.885 43.9687 698.346 44.2937 696.96 44.9437C695.616 45.5937 694.555 46.547 693.775 47.8037C692.995 49.017 692.605 50.512 692.605 52.2887C692.605 54.022 692.995 55.4953 693.775 56.7087C694.555 57.922 695.616 58.8537 696.96 59.5037C698.303 60.1537 699.841 60.4787 701.575 60.4787ZM741.628 71.8537C738.682 71.8537 735.973 71.1387 733.503 69.7087C731.077 68.2787 729.127 66.307 727.653 63.7937C726.223 61.237 725.508 58.312 725.508 55.0187C725.508 51.6387 726.245 48.692 727.718 46.1787C729.192 43.622 731.185 41.6287 733.698 40.1987C736.212 38.7687 739.028 38.0537 742.148 38.0537C745.615 38.0537 748.367 38.812 750.403 40.3287C752.44 41.8453 753.892 43.882 754.758 46.4387C755.625 48.9953 756.058 51.8553 756.058 55.0187C756.058 56.7953 755.798 58.6803 755.278 60.6737C754.758 62.6237 753.935 64.4437 752.808 66.1337C751.725 67.8237 750.252 69.2103 748.388 70.2937C746.568 71.3337 744.315 71.8537 741.628 71.8537ZM743.838 65.8737C746.265 65.8737 748.323 65.4187 750.013 64.5087C751.747 63.5553 753.047 62.2553 753.913 60.6087C754.823 58.962 755.278 57.0987 755.278 55.0187C755.278 52.722 754.823 50.772 753.913 49.1687C753.003 47.522 751.703 46.2653 750.013 45.3987C748.323 44.4887 746.265 44.0337 743.838 44.0337C740.372 44.0337 737.685 45.052 735.778 47.0887C733.872 49.1253 732.918 51.7687 732.918 55.0187C732.918 57.142 733.373 59.027 734.283 60.6737C735.237 62.3203 736.537 63.5987 738.183 64.5087C739.83 65.4187 741.715 65.8737 743.838 65.8737ZM755.278 38.7687H762.558V71.1387H755.798C755.798 71.1387 755.755 70.727 755.668 69.9037C755.582 69.0803 755.495 68.0837 755.408 66.9137C755.322 65.7003 755.278 64.552 755.278 63.4687V38.7687ZM784.919 66.1337C781.886 66.1337 779.134 65.592 776.664 64.5087C774.238 63.4253 772.309 61.8437 770.879 59.7637C769.493 57.6837 768.799 55.192 768.799 52.2887C768.799 49.3853 769.471 46.872 770.814 44.7487C772.201 42.6253 774.108 40.9787 776.534 39.8087C779.004 38.6387 781.799 38.0537 784.919 38.0537C785.829 38.0537 786.696 38.1187 787.519 38.2487C788.386 38.3787 789.209 38.552 789.989 38.7687L805.134 38.8337V44.8787C803.054 44.922 800.953 44.6403 798.829 44.0337C796.749 43.3837 794.908 42.712 793.304 42.0187L793.109 41.6287C794.583 42.3653 795.904 43.2753 797.074 44.3587C798.288 45.3987 799.241 46.5903 799.934 47.9337C800.628 49.277 800.974 50.7937 800.974 52.4837C800.974 55.3437 800.281 57.792 798.894 59.8287C797.551 61.8653 795.666 63.4253 793.239 64.5087C790.856 65.592 788.083 66.1337 784.919 66.1337ZM795.319 84.3337V82.8387C795.319 80.7153 794.691 79.2203 793.434 78.3537C792.178 77.487 790.423 77.0537 788.169 77.0537H779.394C777.661 77.0537 776.166 76.902 774.909 76.5987C773.696 76.3387 772.721 75.927 771.984 75.3637C771.248 74.8437 770.706 74.2153 770.359 73.4787C770.013 72.7853 769.839 72.0053 769.839 71.1387C769.839 69.4053 770.359 68.1053 771.399 67.2387C772.483 66.372 773.891 65.8087 775.624 65.5487C777.401 65.2887 779.264 65.2453 781.214 65.4187L784.919 66.1337C782.363 66.2203 780.413 66.4587 779.069 66.8487C777.769 67.1953 777.119 67.9103 777.119 68.9937C777.119 69.6437 777.379 70.1637 777.899 70.5537C778.419 70.9437 779.156 71.1387 780.109 71.1387H789.339C791.983 71.1387 794.301 71.442 796.294 72.0487C798.288 72.6987 799.826 73.7603 800.909 75.2337C802.036 76.7503 802.599 78.8087 802.599 81.4087V84.3337H795.319ZM784.919 60.4787C786.653 60.4787 788.191 60.1537 789.534 59.5037C790.878 58.8537 791.939 57.922 792.719 56.7087C793.499 55.4953 793.889 54.022 793.889 52.2887C793.889 50.5553 793.499 49.0603 792.719 47.8037C791.939 46.547 790.878 45.5937 789.534 44.9437C788.191 44.2937 786.653 43.9687 784.919 43.9687C783.229 43.9687 781.691 44.2937 780.304 44.9437C778.961 45.5937 777.899 46.547 777.119 47.8037C776.339 49.017 775.949 50.512 775.949 52.2887C775.949 54.022 776.339 55.4953 777.119 56.7087C777.899 57.922 778.961 58.8537 780.304 59.5037C781.648 60.1537 783.186 60.4787 784.919 60.4787ZM837.583 60.4787H844.538C844.192 62.6887 843.325 64.6603 841.938 66.3937C840.595 68.0837 838.753 69.427 836.413 70.4237C834.073 71.377 831.278 71.8537 828.028 71.8537C824.345 71.8537 821.052 71.182 818.148 69.8387C815.245 68.452 812.97 66.502 811.323 63.9887C809.677 61.4753 808.853 58.4853 808.853 55.0187C808.853 51.5953 809.655 48.6053 811.258 46.0487C812.862 43.492 815.072 41.5203 817.888 40.1337C820.748 38.747 824.042 38.0537 827.768 38.0537C831.625 38.0537 834.832 38.747 837.388 40.1337C839.988 41.477 841.917 43.5137 843.173 46.2437C844.43 48.9303 844.95 52.332 844.733 56.4487H816.198C816.415 58.2687 817 59.9153 817.953 61.3887C818.95 62.8187 820.293 63.9453 821.983 64.7687C823.673 65.5487 825.645 65.9387 827.898 65.9387C830.412 65.9387 832.513 65.4403 834.203 64.4437C835.937 63.447 837.063 62.1253 837.583 60.4787ZM827.573 43.9037C824.627 43.9037 822.2 44.6403 820.293 46.1137C818.387 47.5437 817.152 49.3853 816.588 51.6387H837.453C837.28 49.212 836.305 47.327 834.528 45.9837C832.752 44.597 830.433 43.9037 827.573 43.9037Z" fill="#23A323"/>
<path d="M857.594 42.8379V95.6953" stroke="#23A323" stroke-width="4"/>
<path d="M210.283 58.6699V0.548828" stroke="#23A323" stroke-width="4"/>
</svg>
