<svg width="128" height="33" viewBox="0 0 128 33" fill="none" xmlns="http://www.w3.org/2000/svg">
<path d="M25.0939 31.5973C24.4034 32.8003 22.6578 32.8003 21.9673 31.5973L12.4412 15.0019C11.7569 13.8099 12.6233 12.3281 14.0045 12.3281H33.0567C34.4379 12.3281 35.3043 13.8099 34.62 15.0019L25.0939 31.5973Z" fill="#228B22"/>
<g filter="url(#filter0_f_3342_32165)">
<path d="M25.1497 13.5947H13.6319V15.7403H25.1497V13.5947Z" fill="#0D3D0D"/>
</g>
<path d="M17.9617 3.21521C18.5158 2.2616 19.9012 2.2616 20.4554 3.2152L26.222 13.1387C26.7762 14.0924 26.0835 15.2843 24.9751 15.2843H13.4419C12.3336 15.2843 11.6409 14.0924 12.195 13.1387L17.9617 3.21521Z" fill="#23A323"/>
<path d="M53.8963 26.2873V19.0576C53.8963 18.4171 53.791 17.8887 53.5805 17.4724C53.37 17.056 53.0541 16.7437 52.633 16.5356C52.2118 16.3114 51.6773 16.1993 51.0295 16.1993C50.3167 16.1993 49.6608 16.3675 49.0615 16.7037C48.4784 17.024 48.0007 17.4643 47.6281 18.0248C47.2555 18.5692 47.0288 19.1858 46.9478 19.8743L46.9235 18.5052C47.0045 17.8807 47.1746 17.2962 47.4337 16.7518C47.7091 16.2074 48.0493 15.7349 48.4541 15.3347C48.8753 14.9344 49.3612 14.6221 49.9119 14.3979C50.4625 14.1737 51.0619 14.0617 51.7097 14.0617C52.39 14.0617 53.0055 14.1577 53.5562 14.3499C54.1068 14.5261 54.5766 14.8062 54.9653 15.1906C55.3702 15.5589 55.678 16.0152 55.8885 16.5596C56.0991 17.0881 56.2044 17.6966 56.2044 18.3851V26.2873H53.8963ZM44.7855 26.2873V9.49805H47.0936V26.2873H44.7855ZM64.2802 26.5275C63.2435 26.5275 62.296 26.2633 61.4376 25.7349C60.5791 25.2065 59.8989 24.4779 59.3968 23.5492C58.8946 22.6044 58.6436 21.5235 58.6436 20.3066C58.6436 19.0897 58.8946 18.0167 59.3968 17.0881C59.915 16.1433 60.6196 15.4067 61.5105 14.8783C62.4013 14.3339 63.3974 14.0617 64.4988 14.0617C65.7136 14.0617 66.653 14.3418 67.3171 14.9023C67.9974 15.4628 68.467 16.2153 68.7263 17.1601C69.0015 18.1049 69.1393 19.1537 69.1393 20.3066C69.1393 20.9471 69.0583 21.6276 68.8963 22.3482C68.7343 23.0688 68.4752 23.7494 68.1189 24.3898C67.7625 25.0303 67.2685 25.5508 66.6368 25.9511C66.0052 26.3354 65.2196 26.5275 64.2802 26.5275ZM64.9362 24.5339C65.7945 24.5339 66.5154 24.3498 67.0985 23.9815C67.6977 23.5972 68.1432 23.0848 68.4347 22.4443C68.7263 21.8038 68.872 21.0912 68.872 20.3066C68.872 19.4579 68.7181 18.7133 68.4104 18.0728C68.1189 17.4324 67.6734 16.9359 67.0742 16.5837C66.4911 16.2314 65.7784 16.0552 64.9362 16.0552C63.6728 16.0552 62.6928 16.4555 61.9964 17.2562C61.3161 18.0569 60.976 19.0736 60.976 20.3066C60.976 21.1392 61.1461 21.8759 61.4862 22.5163C61.8264 23.1408 62.288 23.6372 62.8711 24.0055C63.4703 24.3578 64.1587 24.5339 64.9362 24.5339ZM68.872 14.3018H71.2044V26.2873H69.0664C69.0664 26.2873 69.0501 26.1432 69.0178 25.855C68.9854 25.5508 68.9529 25.1905 68.9206 24.7741C68.8882 24.3578 68.872 23.9895 68.872 23.6693V14.3018ZM74.2464 14.3018H76.5788V26.2873H74.2464V14.3018ZM80.6847 16.3435C79.8425 16.3435 79.1217 16.5356 78.5224 16.9199C77.9393 17.3042 77.4696 17.7766 77.1133 18.337C76.7732 18.8975 76.5464 19.4339 76.433 19.9463L76.4087 18.5772C76.4249 18.4171 76.4655 18.1689 76.5302 17.8326C76.6112 17.4804 76.7489 17.0881 76.9432 16.6557C77.1376 16.2234 77.3967 15.815 77.7207 15.4307C78.0447 15.0305 78.4495 14.7021 78.9355 14.446C79.4214 14.1898 80.0044 14.0617 80.6847 14.0617V16.3435ZM87.6711 24.4138C86.667 24.4138 85.7438 24.2136 84.9014 23.8134C84.0592 23.4131 83.3871 22.8286 82.8849 22.06C82.399 21.2914 82.1561 20.3627 82.1561 19.2738C82.1561 18.201 82.399 17.2802 82.8849 16.5116C83.3708 15.727 84.0268 15.1265 84.8528 14.7102C85.6952 14.2778 86.6346 14.0617 87.6711 14.0617C87.9789 14.0617 88.2705 14.0857 88.5458 14.1337C88.8211 14.1658 89.0884 14.2217 89.3475 14.3018H94.6439V16.4636C93.9151 16.4636 93.1782 16.3435 92.433 16.1033C91.7042 15.8631 91.0645 15.6069 90.5137 15.3347L90.4408 15.2146C90.9916 15.5028 91.4693 15.855 91.8742 16.2714C92.2792 16.6717 92.5869 17.128 92.7975 17.6405C93.0243 18.1368 93.1376 18.6973 93.1376 19.3218C93.1376 20.3787 92.8946 21.2914 92.4087 22.06C91.9391 22.8286 91.2831 23.4131 90.4408 23.8134C89.6148 24.2136 88.6915 24.4138 87.6711 24.4138ZM91.3883 31.1392V30.5867C91.3883 29.7701 91.1616 29.1856 90.708 28.8333C90.2546 28.4811 89.5905 28.3049 88.7158 28.3049H85.8733C85.274 28.3049 84.7638 28.2569 84.3426 28.1608C83.9216 28.0647 83.5733 27.9206 83.2979 27.7285C83.0227 27.5523 82.8202 27.3282 82.6906 27.0559C82.5611 26.7998 82.4962 26.5115 82.4962 26.1913C82.4962 25.5668 82.6906 25.0944 83.0793 24.7741C83.468 24.4538 83.9621 24.2538 84.5613 24.1737C85.1607 24.0776 85.7681 24.0695 86.3835 24.1496L87.6711 24.4138C86.7479 24.4619 86.0433 24.5499 85.5574 24.6781C85.0715 24.8062 84.8286 25.0783 84.8286 25.4947C84.8286 25.7349 84.9257 25.927 85.1201 26.0712C85.3145 26.2153 85.5899 26.2873 85.9461 26.2873H88.9102C89.8334 26.2873 90.6514 26.3994 91.364 26.6236C92.0929 26.8638 92.6598 27.2561 93.0647 27.8005C93.4859 28.361 93.6964 29.1216 93.6964 30.0823V31.1392H91.3883ZM87.6711 22.4683C88.2542 22.4683 88.7807 22.3482 89.2503 22.108C89.7362 21.8519 90.125 21.4916 90.4165 21.0272C90.7081 20.5468 90.8538 19.9703 90.8538 19.2978C90.8538 18.6093 90.7081 18.0248 90.4165 17.5444C90.1412 17.0481 89.7605 16.6797 89.2746 16.4395C88.7887 16.1834 88.2542 16.0552 87.6711 16.0552C87.088 16.0552 86.5455 16.1834 86.0433 16.4395C85.5574 16.6797 85.1687 17.04 84.8771 17.5204C84.5856 18.0008 84.4398 18.5932 84.4398 19.2978C84.4398 19.9703 84.5856 20.5468 84.8771 21.0272C85.1687 21.4916 85.5574 21.8519 86.0433 22.108C86.5292 22.3482 87.0719 22.4683 87.6711 22.4683ZM102.641 26.5515C101.459 26.5515 100.374 26.3033 99.3858 25.8069C98.3977 25.3106 97.6122 24.598 97.0291 23.6693C96.446 22.7406 96.1545 21.6276 96.1545 20.3306C96.1545 19.0176 96.446 17.8967 97.0291 16.968C97.6122 16.0232 98.3977 15.3026 99.3858 14.8062C100.374 14.3099 101.459 14.0617 102.641 14.0617C103.824 14.0617 104.901 14.3099 105.873 14.8062C106.844 15.3026 107.622 16.0232 108.205 16.968C108.788 17.8967 109.08 19.0176 109.08 20.3306C109.08 21.6276 108.788 22.7406 108.205 23.6693C107.622 24.598 106.844 25.3106 105.873 25.8069C104.901 26.3033 103.824 26.5515 102.641 26.5515ZM102.641 24.558C103.37 24.558 104.042 24.3979 104.658 24.0776C105.29 23.7413 105.792 23.2609 106.164 22.6364C106.553 21.996 106.747 21.2274 106.747 20.3306C106.747 19.4179 106.553 18.6412 106.164 18.0008C105.792 17.3603 105.29 16.8719 104.658 16.5356C104.042 16.1993 103.37 16.0312 102.641 16.0312C101.913 16.0312 101.232 16.1993 100.601 16.5356C99.9689 16.8559 99.4587 17.3363 99.0699 17.9768C98.6812 18.6172 98.4869 19.4019 98.4869 20.3306C98.4869 21.2274 98.6731 21.996 99.0456 22.6364C99.4344 23.2609 99.9446 23.7413 100.576 24.0776C101.208 24.3979 101.896 24.558 102.641 24.558ZM111.52 14.3018H113.852V26.2873H111.52V14.3018ZM118.469 14.0617C119.149 14.0617 119.764 14.1577 120.315 14.3499C120.866 14.542 121.335 14.8303 121.724 15.2146C122.113 15.5829 122.412 16.0472 122.623 16.6077C122.85 17.1521 122.963 17.7766 122.963 18.4812V26.2873H120.655V18.9856C120.655 18.0408 120.42 17.3363 119.951 16.8719C119.497 16.3915 118.801 16.1513 117.861 16.1513C117.132 16.1513 116.468 16.3194 115.869 16.6557C115.27 16.992 114.776 17.4403 114.387 18.0008C114.014 18.5452 113.788 19.1617 113.707 19.8502L113.682 18.5292C113.763 17.8887 113.933 17.2962 114.193 16.7518C114.468 16.2074 114.808 15.7349 115.213 15.3347C115.634 14.9183 116.12 14.606 116.671 14.3979C117.221 14.1737 117.821 14.0617 118.469 14.0617Z" fill="white"/>
<path d="M128 25.0926C128 24.4293 127.456 23.8916 126.785 23.8916C126.114 23.8916 125.57 24.4293 125.57 25.0926C125.57 25.7558 126.114 26.2935 126.785 26.2935C127.456 26.2935 128 25.7558 128 25.0926Z" fill="#041004"/>
<defs>
<filter id="filter0_f_3342_32165" x="0.530982" y="0.493812" width="37.7197" height="28.3473" filterUnits="userSpaceOnUse" color-interpolation-filters="sRGB">
<feFlood flood-opacity="0" result="BackgroundImageFix"/>
<feBlend mode="normal" in="SourceGraphic" in2="BackgroundImageFix" result="shape"/>
<feGaussianBlur stdDeviation="6.55046" result="effect1_foregroundBlur_3342_32165"/>
</filter>
</defs>
</svg>
