<svg width="214" height="71" viewBox="0 0 214 71" fill="none" xmlns="http://www.w3.org/2000/svg">
<rect opacity="0.95" width="213.986" height="71" rx="8.76992" fill="#228B22"/>
<path d="M79.9794 27.1028H86.1354V28.4348H79.9794V27.1028ZM85.8714 23.8988H87.4674V31.6628H85.8714V23.8988ZM78.5754 23.8988H80.1714V31.6628H78.5754V23.8988ZM92.0097 31.7948C91.4177 31.7948 90.8777 31.6668 90.3897 31.4108C89.9097 31.1468 89.5257 30.7828 89.2377 30.3188C88.9577 29.8468 88.8177 29.3028 88.8177 28.6868C88.8177 28.0548 88.9617 27.5068 89.2497 27.0428C89.5377 26.5788 89.9257 26.2188 90.4137 25.9628C90.9097 25.6988 91.4697 25.5668 92.0937 25.5668C92.7817 25.5668 93.3337 25.7068 93.7497 25.9868C94.1737 26.2588 94.4817 26.6308 94.6737 27.1028C94.8657 27.5748 94.9617 28.1028 94.9617 28.6868C94.9617 29.0388 94.9057 29.3988 94.7937 29.7668C94.6817 30.1268 94.5097 30.4628 94.2777 30.7748C94.0457 31.0788 93.7417 31.3268 93.3657 31.5188C92.9897 31.7028 92.5377 31.7948 92.0097 31.7948ZM92.5137 30.5948C92.9857 30.5948 93.3937 30.5148 93.7377 30.3548C94.0817 30.1948 94.3457 29.9708 94.5297 29.6828C94.7137 29.3948 94.8057 29.0628 94.8057 28.6868C94.8057 28.2788 94.7097 27.9348 94.5177 27.6548C94.3337 27.3668 94.0697 27.1508 93.7257 27.0068C93.3897 26.8548 92.9857 26.7788 92.5137 26.7788C91.8497 26.7788 91.3337 26.9548 90.9657 27.3068C90.5977 27.6508 90.4137 28.1108 90.4137 28.6868C90.4137 29.0708 90.5017 29.4068 90.6777 29.6948C90.8537 29.9748 91.0977 30.1948 91.4097 30.3548C91.7297 30.5148 92.0977 30.5948 92.5137 30.5948ZM94.8057 25.6988H96.3657V31.6628H94.9137C94.9137 31.6628 94.9017 31.5868 94.8777 31.4348C94.8617 31.2748 94.8457 31.0748 94.8297 30.8348C94.8137 30.5948 94.8057 30.3588 94.8057 30.1268V25.6988ZM97.7776 25.6988H99.3376V31.6628H97.7776V25.6988ZM101.63 26.9828C101.182 26.9828 100.794 27.0708 100.466 27.2468C100.138 27.4148 99.8736 27.6228 99.6736 27.8708C99.4736 28.1188 99.3336 28.3588 99.2536 28.5908L99.2416 27.9308C99.2496 27.8348 99.2816 27.6948 99.3376 27.5108C99.3936 27.3188 99.4776 27.1148 99.5896 26.8988C99.7016 26.6748 99.8496 26.4628 100.034 26.2628C100.218 26.0548 100.442 25.8868 100.706 25.7588C100.97 25.6308 101.278 25.5668 101.63 25.5668V26.9828ZM105.57 30.7508C104.922 30.7508 104.35 30.6548 103.854 30.4628C103.366 30.2628 102.986 29.9708 102.714 29.5868C102.442 29.2028 102.306 28.7388 102.306 28.1948C102.306 27.6588 102.438 27.1948 102.702 26.8028C102.966 26.4108 103.342 26.1068 103.83 25.8908C104.326 25.6748 104.906 25.5668 105.57 25.5668C105.754 25.5668 105.93 25.5788 106.098 25.6028C106.274 25.6268 106.446 25.6588 106.614 25.6988L109.626 25.7108V26.8868C109.218 26.8948 108.802 26.8468 108.378 26.7428C107.962 26.6308 107.594 26.5108 107.274 26.3828L107.238 26.2988C107.51 26.4268 107.766 26.5868 108.006 26.7788C108.246 26.9628 108.438 27.1788 108.582 27.4268C108.734 27.6668 108.81 27.9468 108.81 28.2668C108.81 28.7868 108.678 29.2348 108.414 29.6108C108.15 29.9788 107.774 30.2628 107.286 30.4628C106.806 30.6548 106.234 30.7508 105.57 30.7508ZM107.574 34.1228V33.8348C107.574 33.4668 107.454 33.2108 107.214 33.0668C106.982 32.9228 106.662 32.8508 106.254 32.8508H104.394C104.034 32.8508 103.73 32.8228 103.482 32.7668C103.242 32.7108 103.05 32.6308 102.906 32.5268C102.762 32.4228 102.658 32.2988 102.594 32.1548C102.53 32.0188 102.498 31.8708 102.498 31.7108C102.498 31.3908 102.602 31.1508 102.81 30.9908C103.018 30.8228 103.298 30.7108 103.65 30.6548C104.002 30.5988 104.39 30.5868 104.814 30.6188L105.57 30.7508C105.066 30.7668 104.69 30.8108 104.442 30.8828C104.202 30.9468 104.082 31.0788 104.082 31.2788C104.082 31.3988 104.13 31.4948 104.226 31.5668C104.322 31.6308 104.458 31.6628 104.634 31.6628H106.59C107.126 31.6628 107.582 31.7188 107.958 31.8308C108.342 31.9508 108.634 32.1468 108.834 32.4188C109.034 32.6988 109.134 33.0788 109.134 33.5588V34.1228H107.574ZM105.57 29.6228C105.914 29.6228 106.214 29.5668 106.47 29.4548C106.734 29.3428 106.938 29.1828 107.082 28.9748C107.226 28.7588 107.298 28.5028 107.298 28.2068C107.298 27.9028 107.226 27.6428 107.082 27.4268C106.938 27.2108 106.738 27.0468 106.482 26.9348C106.226 26.8148 105.922 26.7548 105.57 26.7548C105.226 26.7548 104.922 26.8148 104.658 26.9348C104.394 27.0468 104.19 27.2108 104.046 27.4268C103.902 27.6428 103.83 27.9028 103.83 28.2068C103.83 28.5028 103.902 28.7588 104.046 28.9748C104.19 29.1828 104.39 29.3428 104.646 29.4548C104.91 29.5668 105.218 29.6228 105.57 29.6228ZM114.055 31.8068C113.303 31.8068 112.639 31.6868 112.063 31.4468C111.495 31.2068 111.051 30.8588 110.731 30.4028C110.411 29.9388 110.251 29.3708 110.251 28.6988C110.251 28.0268 110.411 27.4588 110.731 26.9948C111.051 26.5228 111.495 26.1668 112.063 25.9268C112.639 25.6868 113.303 25.5668 114.055 25.5668C114.807 25.5668 115.463 25.6868 116.023 25.9268C116.591 26.1668 117.035 26.5228 117.355 26.9948C117.675 27.4588 117.835 28.0268 117.835 28.6988C117.835 29.3708 117.675 29.9388 117.355 30.4028C117.035 30.8588 116.591 31.2068 116.023 31.4468C115.463 31.6868 114.807 31.8068 114.055 31.8068ZM114.055 30.6068C114.471 30.6068 114.843 30.5348 115.171 30.3908C115.507 30.2388 115.771 30.0228 115.963 29.7428C116.155 29.4548 116.251 29.1068 116.251 28.6988C116.251 28.2908 116.155 27.9428 115.963 27.6548C115.771 27.3588 115.511 27.1348 115.183 26.9828C114.855 26.8308 114.479 26.7548 114.055 26.7548C113.639 26.7548 113.263 26.8308 112.927 26.9828C112.591 27.1348 112.323 27.3548 112.123 27.6428C111.931 27.9308 111.835 28.2828 111.835 28.6988C111.835 29.1068 111.931 29.4548 112.123 29.7428C112.315 30.0228 112.579 30.2388 112.915 30.3908C113.251 30.5348 113.631 30.6068 114.055 30.6068ZM118.989 25.6988H120.549V31.6628H118.989V25.6988ZM123.321 25.5668C123.689 25.5668 124.029 25.6148 124.341 25.7108C124.653 25.8068 124.925 25.9548 125.157 26.1548C125.389 26.3548 125.569 26.6108 125.697 26.9228C125.825 27.2268 125.889 27.5908 125.889 28.0148V31.6628H124.329V28.2908C124.329 27.7868 124.205 27.4188 123.957 27.1868C123.717 26.9468 123.321 26.8268 122.769 26.8268C122.353 26.8268 121.977 26.9068 121.641 27.0668C121.305 27.2268 121.033 27.4308 120.825 27.6788C120.617 27.9188 120.497 28.1708 120.465 28.4348L120.453 27.8228C120.493 27.5428 120.585 27.2708 120.729 27.0068C120.873 26.7428 121.065 26.5028 121.305 26.2868C121.553 26.0628 121.845 25.8868 122.181 25.7588C122.517 25.6308 122.897 25.5668 123.321 25.5668ZM129.891 29.0468H131.511C131.543 29.3188 131.667 29.5668 131.883 29.7908C132.107 30.0068 132.399 30.1788 132.759 30.3068C133.119 30.4268 133.523 30.4868 133.971 30.4868C134.379 30.4868 134.715 30.4428 134.979 30.3548C135.243 30.2668 135.439 30.1428 135.567 29.9828C135.695 29.8228 135.759 29.6308 135.759 29.4068C135.759 29.1908 135.679 29.0268 135.519 28.9148C135.359 28.7948 135.107 28.6988 134.763 28.6268C134.419 28.5468 133.967 28.4668 133.407 28.3868C132.967 28.3228 132.551 28.2348 132.159 28.1228C131.767 28.0028 131.419 27.8508 131.115 27.6668C130.819 27.4828 130.583 27.2588 130.407 26.9948C130.239 26.7228 130.155 26.4028 130.155 26.0348C130.155 25.5788 130.283 25.1788 130.539 24.8348C130.803 24.4908 131.191 24.2228 131.703 24.0308C132.215 23.8388 132.843 23.7428 133.587 23.7428C134.707 23.7428 135.567 23.9828 136.167 24.4628C136.775 24.9348 137.071 25.5868 137.055 26.4188H135.495C135.463 25.9468 135.263 25.6068 134.895 25.3988C134.535 25.1908 134.079 25.0868 133.527 25.0868C133.015 25.0868 132.591 25.1628 132.255 25.3148C131.927 25.4668 131.763 25.7268 131.763 26.0948C131.763 26.2388 131.803 26.3668 131.883 26.4788C131.963 26.5828 132.099 26.6748 132.291 26.7548C132.483 26.8348 132.743 26.9108 133.071 26.9828C133.399 27.0548 133.807 27.1268 134.295 27.1988C134.751 27.2628 135.163 27.3508 135.531 27.4628C135.907 27.5668 136.227 27.7068 136.491 27.8828C136.763 28.0508 136.971 28.2668 137.115 28.5308C137.259 28.7948 137.331 29.1188 137.331 29.5028C137.331 29.9748 137.207 30.3868 136.959 30.7388C136.719 31.0828 136.343 31.3508 135.831 31.5428C135.327 31.7348 134.671 31.8308 133.863 31.8308C133.287 31.8308 132.779 31.7708 132.339 31.6508C131.899 31.5228 131.519 31.3548 131.199 31.1468C130.879 30.9388 130.619 30.7108 130.419 30.4628C130.219 30.2148 130.075 29.9668 129.987 29.7188C129.907 29.4708 129.875 29.2468 129.891 29.0468ZM145.435 31.6628H143.875V25.6988H145.435V31.6628ZM143.959 28.7948L143.971 29.2028C143.955 29.3148 143.915 29.4788 143.851 29.6948C143.787 29.9028 143.687 30.1268 143.551 30.3668C143.423 30.6068 143.255 30.8388 143.047 31.0628C142.839 31.2788 142.583 31.4588 142.279 31.6028C141.975 31.7388 141.615 31.8068 141.199 31.8068C140.871 31.8068 140.547 31.7668 140.227 31.6868C139.915 31.6068 139.631 31.4748 139.375 31.2908C139.119 31.0988 138.915 30.8428 138.763 30.5228C138.611 30.2028 138.535 29.7988 138.535 29.3108V25.6988H140.095V29.0468C140.095 29.4308 140.155 29.7348 140.275 29.9588C140.403 30.1748 140.587 30.3268 140.827 30.4148C141.067 30.5028 141.351 30.5468 141.679 30.5468C142.111 30.5468 142.483 30.4548 142.795 30.2708C143.107 30.0788 143.359 29.8468 143.551 29.5748C143.751 29.3028 143.887 29.0428 143.959 28.7948ZM151.2 31.8068C150.672 31.8068 150.22 31.7148 149.844 31.5308C149.476 31.3388 149.176 31.0908 148.944 30.7868C148.712 30.4748 148.54 30.1348 148.428 29.7668C148.316 29.3988 148.26 29.0388 148.26 28.6868C148.26 28.2468 148.312 27.8388 148.416 27.4628C148.528 27.0868 148.7 26.7588 148.932 26.4788C149.164 26.1908 149.464 25.9668 149.832 25.8068C150.208 25.6468 150.664 25.5668 151.2 25.5668C151.8 25.5668 152.34 25.6988 152.82 25.9628C153.3 26.2268 153.68 26.5948 153.96 27.0668C154.248 27.5308 154.392 28.0708 154.392 28.6868C154.392 29.3188 154.248 29.8708 153.96 30.3428C153.672 30.8068 153.288 31.1668 152.808 31.4228C152.328 31.6788 151.792 31.8068 151.2 31.8068ZM150.696 30.5948C151.12 30.5948 151.488 30.5148 151.8 30.3548C152.12 30.1948 152.364 29.9748 152.532 29.6948C152.708 29.4068 152.796 29.0708 152.796 28.6868C152.796 28.1108 152.612 27.6468 152.244 27.2948C151.884 26.9428 151.368 26.7668 150.696 26.7668C150.272 26.7668 149.884 26.8428 149.532 26.9948C149.188 27.1468 148.916 27.3668 148.716 27.6548C148.516 27.9348 148.416 28.2788 148.416 28.6868C148.416 29.0708 148.508 29.4068 148.692 29.6948C148.876 29.9748 149.14 30.1948 149.484 30.3548C149.828 30.5148 150.232 30.5948 150.696 30.5948ZM146.856 25.6988H148.344L148.416 27.2828V34.0628H146.856V25.6988ZM159.883 31.8068C159.355 31.8068 158.903 31.7148 158.527 31.5308C158.159 31.3388 157.859 31.0908 157.627 30.7868C157.395 30.4748 157.223 30.1348 157.111 29.7668C156.999 29.3988 156.943 29.0388 156.943 28.6868C156.943 28.2468 156.995 27.8388 157.099 27.4628C157.211 27.0868 157.383 26.7588 157.615 26.4788C157.847 26.1908 158.147 25.9668 158.515 25.8068C158.891 25.6468 159.347 25.5668 159.883 25.5668C160.483 25.5668 161.023 25.6988 161.503 25.9628C161.983 26.2268 162.363 26.5948 162.643 27.0668C162.931 27.5308 163.075 28.0708 163.075 28.6868C163.075 29.3188 162.931 29.8708 162.643 30.3428C162.355 30.8068 161.971 31.1668 161.491 31.4228C161.011 31.6788 160.475 31.8068 159.883 31.8068ZM159.379 30.5948C159.803 30.5948 160.171 30.5148 160.483 30.3548C160.803 30.1948 161.047 29.9748 161.215 29.6948C161.391 29.4068 161.479 29.0708 161.479 28.6868C161.479 28.1108 161.295 27.6468 160.927 27.2948C160.567 26.9428 160.051 26.7668 159.379 26.7668C158.955 26.7668 158.567 26.8428 158.215 26.9948C157.871 27.1468 157.599 27.3668 157.399 27.6548C157.199 27.9348 157.099 28.2788 157.099 28.6868C157.099 29.0708 157.191 29.4068 157.375 29.6948C157.559 29.9748 157.823 30.1948 158.167 30.3548C158.511 30.5148 158.915 30.5948 159.379 30.5948ZM155.539 25.6988H157.027L157.099 27.2828V34.0628H155.539V25.6988ZM167.739 31.8068C166.987 31.8068 166.323 31.6868 165.747 31.4468C165.179 31.2068 164.735 30.8588 164.415 30.4028C164.095 29.9388 163.935 29.3708 163.935 28.6988C163.935 28.0268 164.095 27.4588 164.415 26.9948C164.735 26.5228 165.179 26.1668 165.747 25.9268C166.323 25.6868 166.987 25.5668 167.739 25.5668C168.491 25.5668 169.147 25.6868 169.707 25.9268C170.275 26.1668 170.719 26.5228 171.039 26.9948C171.359 27.4588 171.519 28.0268 171.519 28.6988C171.519 29.3708 171.359 29.9388 171.039 30.4028C170.719 30.8588 170.275 31.2068 169.707 31.4468C169.147 31.6868 168.491 31.8068 167.739 31.8068ZM167.739 30.6068C168.155 30.6068 168.527 30.5348 168.855 30.3908C169.191 30.2388 169.455 30.0228 169.647 29.7428C169.839 29.4548 169.935 29.1068 169.935 28.6988C169.935 28.2908 169.839 27.9428 169.647 27.6548C169.455 27.3588 169.195 27.1348 168.867 26.9828C168.539 26.8308 168.163 26.7548 167.739 26.7548C167.323 26.7548 166.947 26.8308 166.611 26.9828C166.275 27.1348 166.007 27.3548 165.807 27.6428C165.615 27.9308 165.519 28.2828 165.519 28.6988C165.519 29.1068 165.615 29.4548 165.807 29.7428C165.999 30.0228 166.263 30.2388 166.599 30.3908C166.935 30.5348 167.315 30.6068 167.739 30.6068ZM172.672 25.6988H174.232V31.6628H172.672V25.6988ZM176.524 26.9828C176.076 26.9828 175.688 27.0708 175.36 27.2468C175.032 27.4148 174.768 27.6228 174.568 27.8708C174.368 28.1188 174.228 28.3588 174.148 28.5908L174.136 27.9308C174.144 27.8348 174.176 27.6948 174.232 27.5108C174.288 27.3188 174.372 27.1148 174.484 26.8988C174.596 26.6748 174.744 26.4628 174.928 26.2628C175.112 26.0548 175.336 25.8868 175.6 25.7588C175.864 25.6308 176.172 25.5668 176.524 25.5668V26.9828ZM177.104 25.6988H181.736V26.9108H177.104V25.6988ZM178.64 24.0668H180.2V31.6628H178.64V24.0668Z" fill="white"/>
<path d="M77.8014 40.1628H83.0014V40.9128H77.8014V40.1628ZM80.0014 40.8328H80.8014V46.6628H80.0014V40.8328ZM87.2875 46.6628H86.4875V41.6628H87.2875V46.6628ZM86.5375 44.3328L86.5475 44.6128C86.5408 44.6928 86.5208 44.8162 86.4875 44.9828C86.4608 45.1495 86.4108 45.3362 86.3375 45.5428C86.2708 45.7428 86.1708 45.9362 86.0375 46.1228C85.9108 46.3095 85.7441 46.4628 85.5375 46.5828C85.3375 46.7028 85.0875 46.7628 84.7875 46.7628C84.5941 46.7628 84.3941 46.7328 84.1875 46.6728C83.9875 46.6195 83.8008 46.5295 83.6275 46.4028C83.4541 46.2695 83.3141 46.0862 83.2075 45.8528C83.1008 45.6195 83.0475 45.3295 83.0475 44.9828V41.6628H83.8475V44.7828C83.8475 45.0828 83.8941 45.3195 83.9875 45.4928C84.0875 45.6595 84.2208 45.7795 84.3875 45.8528C84.5541 45.9262 84.7408 45.9628 84.9475 45.9628C85.2875 45.9628 85.5708 45.8762 85.7975 45.7028C86.0241 45.5295 86.1975 45.3162 86.3175 45.0628C86.4375 44.8095 86.5108 44.5662 86.5375 44.3328ZM88.2346 41.6628H91.1746V42.4128H88.2346V41.6628ZM89.3046 40.3628H90.1046V46.6628H89.3046V40.3628ZM93.1097 39.6628V40.6328H92.0697V39.6628H93.1097ZM92.1897 41.6628H92.9897V46.6628H92.1897V41.6628ZM96.5261 46.7628C96.0994 46.7628 95.6994 46.6595 95.3261 46.4528C94.9527 46.2462 94.6494 45.9495 94.4161 45.5628C94.1894 45.1695 94.0761 44.7062 94.0761 44.1728C94.0761 43.6395 94.1894 43.1795 94.4161 42.7928C94.6494 42.3995 94.9527 42.0962 95.3261 41.8828C95.6994 41.6695 96.0994 41.5628 96.5261 41.5628C96.9527 41.5628 97.3494 41.6695 97.7161 41.8828C98.0894 42.0962 98.3894 42.3995 98.6161 42.7928C98.8427 43.1795 98.9561 43.6395 98.9561 44.1728C98.9561 44.7062 98.8427 45.1695 98.6161 45.5628C98.3894 45.9495 98.0894 46.2462 97.7161 46.4528C97.3494 46.6595 96.9527 46.7628 96.5261 46.7628ZM96.5261 46.0128C96.8061 46.0128 97.0694 45.9428 97.3161 45.8028C97.5627 45.6628 97.7627 45.4562 97.9161 45.1828C98.0761 44.9028 98.1561 44.5662 98.1561 44.1728C98.1561 43.7795 98.0761 43.4462 97.9161 43.1728C97.7627 42.8928 97.5627 42.6795 97.3161 42.5328C97.0694 42.3862 96.8061 42.3128 96.5261 42.3128C96.2461 42.3128 95.9794 42.3862 95.7261 42.5328C95.4794 42.6728 95.2761 42.8828 95.1161 43.1628C94.9561 43.4362 94.8761 43.7728 94.8761 44.1728C94.8761 44.5662 94.9527 44.9028 95.1061 45.1828C95.2661 45.4562 95.4727 45.6628 95.7261 45.8028C95.9794 45.9428 96.2461 46.0128 96.5261 46.0128ZM99.9713 41.6628H100.771V46.6628H99.9713V41.6628ZM102.491 41.5628C102.758 41.5628 102.998 41.6028 103.211 41.6828C103.425 41.7628 103.605 41.8795 103.751 42.0328C103.898 42.1862 104.011 42.3728 104.091 42.5928C104.171 42.8062 104.211 43.0495 104.211 43.3228V46.6628H103.411V43.5228C103.411 43.1362 103.321 42.8462 103.141 42.6528C102.961 42.4595 102.691 42.3628 102.331 42.3628C102.058 42.3628 101.805 42.4328 101.571 42.5728C101.338 42.7128 101.145 42.9062 100.991 43.1528C100.845 43.3928 100.755 43.6728 100.721 43.9928L100.711 43.4128C100.745 43.1328 100.811 42.8795 100.911 42.6528C101.018 42.4262 101.148 42.2328 101.301 42.0728C101.461 41.9062 101.641 41.7795 101.841 41.6928C102.048 41.6062 102.265 41.5628 102.491 41.5628ZM107.258 41.6628H110.198V42.4128H107.258V41.6628ZM109.848 39.6628H110.308V40.4628H109.848C109.681 40.4562 109.528 40.4795 109.388 40.5328C109.255 40.5862 109.148 40.6795 109.068 40.8128C108.988 40.9395 108.948 41.1228 108.948 41.3628V46.6628H108.148V41.3628C108.148 40.9628 108.218 40.6395 108.358 40.3928C108.505 40.1395 108.705 39.9562 108.958 39.8428C109.218 39.7228 109.515 39.6628 109.848 39.6628ZM114.517 45.0528H115.267C115.214 45.3795 115.094 45.6728 114.907 45.9328C114.727 46.1862 114.487 46.3895 114.187 46.5428C113.894 46.6895 113.554 46.7628 113.167 46.7628C112.7 46.7628 112.28 46.6528 111.907 46.4328C111.534 46.2062 111.237 45.8995 111.017 45.5128C110.804 45.1195 110.697 44.6728 110.697 44.1728C110.697 43.6728 110.8 43.2262 111.007 42.8328C111.22 42.4395 111.51 42.1295 111.877 41.9028C112.244 41.6762 112.657 41.5628 113.117 41.5628C113.604 41.5628 114.014 41.6728 114.347 41.8928C114.687 42.1062 114.937 42.4228 115.097 42.8428C115.264 43.2562 115.33 43.7662 115.297 44.3728H111.497C111.53 44.6995 111.62 44.9862 111.767 45.2328C111.914 45.4795 112.107 45.6728 112.347 45.8128C112.587 45.9462 112.86 46.0128 113.167 46.0128C113.507 46.0128 113.794 45.9262 114.027 45.7528C114.267 45.5728 114.43 45.3395 114.517 45.0528ZM113.147 42.3128C112.734 42.3128 112.387 42.4328 112.107 42.6728C111.827 42.9128 111.64 43.2395 111.547 43.6528H114.477C114.45 43.2128 114.307 42.8795 114.047 42.6528C113.794 42.4262 113.494 42.3128 113.147 42.3128ZM119.869 45.0528H120.619C120.565 45.3795 120.445 45.6728 120.259 45.9328C120.079 46.1862 119.839 46.3895 119.539 46.5428C119.245 46.6895 118.905 46.7628 118.519 46.7628C118.052 46.7628 117.632 46.6528 117.259 46.4328C116.885 46.2062 116.589 45.8995 116.369 45.5128C116.155 45.1195 116.049 44.6728 116.049 44.1728C116.049 43.6728 116.152 43.2262 116.359 42.8328C116.572 42.4395 116.862 42.1295 117.229 41.9028C117.595 41.6762 118.009 41.5628 118.469 41.5628C118.955 41.5628 119.365 41.6728 119.699 41.8928C120.039 42.1062 120.289 42.4228 120.449 42.8428C120.615 43.2562 120.682 43.7662 120.649 44.3728H116.849C116.882 44.6995 116.972 44.9862 117.119 45.2328C117.265 45.4795 117.459 45.6728 117.699 45.8128C117.939 45.9462 118.212 46.0128 118.519 46.0128C118.859 46.0128 119.145 45.9262 119.379 45.7528C119.619 45.5728 119.782 45.3395 119.869 45.0528ZM118.499 42.3128C118.085 42.3128 117.739 42.4328 117.459 42.6728C117.179 42.9128 116.992 43.2395 116.899 43.6528H119.829C119.802 43.2128 119.659 42.8795 119.399 42.6528C119.145 42.4262 118.845 42.3128 118.499 42.3128ZM126.28 46.7628C125.913 46.7628 125.613 46.6795 125.38 46.5128C125.147 46.3395 124.963 46.1195 124.83 45.8528C124.703 45.5795 124.613 45.2962 124.56 45.0028C124.507 44.7028 124.48 44.4262 124.48 44.1728C124.48 43.8128 124.503 43.4762 124.55 43.1628C124.603 42.8495 124.693 42.5728 124.82 42.3328C124.947 42.0928 125.127 41.9062 125.36 41.7728C125.6 41.6328 125.907 41.5628 126.28 41.5628C126.68 41.5628 127.043 41.6762 127.37 41.9028C127.697 42.1295 127.957 42.4395 128.15 42.8328C128.35 43.2262 128.45 43.6728 128.45 44.1728C128.45 44.6728 128.35 45.1195 128.15 45.5128C127.95 45.8995 127.683 46.2062 127.35 46.4328C127.023 46.6528 126.667 46.7628 126.28 46.7628ZM126.08 46.0028C126.387 46.0028 126.657 45.9262 126.89 45.7728C127.13 45.6128 127.317 45.3962 127.45 45.1228C127.583 44.8428 127.65 44.5262 127.65 44.1728C127.65 43.6395 127.513 43.1995 127.24 42.8528C126.967 42.4995 126.58 42.3228 126.08 42.3228C125.787 42.3228 125.527 42.4028 125.3 42.5628C125.073 42.7162 124.897 42.9328 124.77 43.2128C124.643 43.4862 124.58 43.8062 124.58 44.1728C124.58 44.5062 124.633 44.8128 124.74 45.0928C124.853 45.3662 125.02 45.5862 125.24 45.7528C125.46 45.9195 125.74 46.0028 126.08 46.0028ZM123.78 41.6628H124.55L124.58 42.7128V48.6628H123.78V41.6628ZM131.363 46.7628C130.97 46.7628 130.607 46.6528 130.273 46.4328C129.947 46.2062 129.683 45.8995 129.483 45.5128C129.29 45.1195 129.193 44.6728 129.193 44.1728C129.193 43.6728 129.293 43.2262 129.493 42.8328C129.693 42.4395 129.963 42.1295 130.303 41.9028C130.65 41.6762 131.037 41.5628 131.463 41.5628C131.93 41.5628 132.283 41.6828 132.523 41.9228C132.77 42.1562 132.937 42.4695 133.023 42.8628C133.117 43.2562 133.163 43.6928 133.163 44.1728C133.163 44.4262 133.137 44.7028 133.083 45.0028C133.03 45.2962 132.937 45.5795 132.803 45.8528C132.677 46.1195 132.497 46.3395 132.263 46.5128C132.03 46.6795 131.73 46.7628 131.363 46.7628ZM131.563 46.0028C131.903 46.0028 132.183 45.9195 132.403 45.7528C132.63 45.5862 132.797 45.3662 132.903 45.0928C133.01 44.8128 133.063 44.5062 133.063 44.1728C133.063 43.8062 133.007 43.4862 132.893 43.2128C132.787 42.9328 132.62 42.7162 132.393 42.5628C132.173 42.4028 131.897 42.3228 131.563 42.3228C131.063 42.3228 130.677 42.4995 130.403 42.8528C130.13 43.1995 129.993 43.6395 129.993 44.1728C129.993 44.5262 130.06 44.8428 130.193 45.1228C130.333 45.3962 130.52 45.6128 130.753 45.7728C130.993 45.9262 131.263 46.0028 131.563 46.0028ZM133.063 41.6628H133.863V46.6628H133.133C133.133 46.6628 133.127 46.6028 133.113 46.4828C133.107 46.3628 133.097 46.2228 133.083 46.0628C133.07 45.9028 133.063 45.7695 133.063 45.6628V41.6628ZM136.157 39.6628V40.6328H135.117V39.6628H136.157ZM135.237 41.6628H136.037V46.6628H135.237V41.6628ZM139.293 46.7628C138.893 46.7628 138.526 46.6528 138.193 46.4328C137.866 46.2062 137.606 45.8995 137.413 45.5128C137.22 45.1195 137.123 44.6728 137.123 44.1728C137.123 43.6728 137.216 43.2262 137.403 42.8328C137.59 42.4395 137.846 42.1295 138.173 41.9028C138.5 41.6762 138.873 41.5628 139.293 41.5628C139.666 41.5628 139.97 41.6328 140.203 41.7728C140.443 41.9062 140.626 42.0928 140.753 42.3328C140.88 42.5728 140.966 42.8495 141.013 43.1628C141.066 43.4762 141.093 43.8128 141.093 44.1728C141.093 44.4262 141.066 44.7028 141.013 45.0028C140.96 45.2962 140.866 45.5795 140.733 45.8528C140.606 46.1195 140.426 46.3395 140.193 46.5128C139.96 46.6795 139.66 46.7628 139.293 46.7628ZM139.493 46.0028C139.833 46.0028 140.113 45.9195 140.333 45.7528C140.56 45.5862 140.726 45.3662 140.833 45.0928C140.94 44.8128 140.993 44.5062 140.993 44.1728C140.993 43.8062 140.936 43.4862 140.823 43.2128C140.716 42.9328 140.55 42.7162 140.323 42.5628C140.103 42.4028 139.826 42.3228 139.493 42.3228C138.993 42.3228 138.606 42.4995 138.333 42.8528C138.06 43.1995 137.923 43.6395 137.923 44.1728C137.923 44.5262 137.99 44.8428 138.123 45.1228C138.263 45.3962 138.45 45.6128 138.683 45.7728C138.923 45.9262 139.193 46.0028 139.493 46.0028ZM140.993 39.6628H141.793V46.6628H141.063C141.05 46.5162 141.033 46.3428 141.013 46.1428C141 45.9428 140.993 45.7828 140.993 45.6628V39.6628Z" fill="white"/>
<rect x="16.6631" y="13.0479" width="49.93" height="44.6681" rx="7.01594" fill="white"/>
<path d="M46.4328 34.0126C46.3114 33.8828 46.2378 33.7082 46.2444 33.5099L46.3338 30.8254L43.6493 30.736C43.2658 30.7233 42.959 30.3953 42.9718 30.0118C42.9846 29.6283 43.3125 29.3215 43.696 29.3343L47.0813 29.447C47.4648 29.4598 47.7716 29.7877 47.7588 30.1712L47.6461 33.5565C47.6333 33.94 47.3054 34.2468 46.9219 34.2341C46.7235 34.2274 46.5543 34.1424 46.4328 34.0126Z" fill="#228B22"/>
<path d="M39.5493 37.1725C39.2872 36.8924 39.3022 36.4428 39.5823 36.1807L46.5306 29.6803C46.8107 29.4182 47.2603 29.4332 47.5223 29.7133C47.7844 29.9934 47.7694 30.4431 47.4893 30.7051L40.5411 37.2055C40.2541 37.474 39.8114 37.4526 39.5493 37.1725Z" fill="#228B22"/>
<path d="M35.6497 40.9743C32.3579 37.4558 32.5164 32.6952 36.035 29.4035C36.3151 29.1414 36.7647 29.1564 37.0267 29.4365C37.2888 29.7166 37.2738 30.1662 36.9937 30.4283C34.0764 33.1575 33.9452 37.0982 36.6745 40.0155C39.4037 42.9328 43.3444 43.0641 46.2617 40.3348C46.5418 40.0727 46.9915 40.0877 47.2535 40.3678C47.5156 40.6479 47.5006 41.0975 47.2205 41.3596C43.702 44.6513 38.9414 44.4928 35.6497 40.9743Z" fill="#228B22"/>
</svg>
