<svg width="1440" height="754" viewBox="0 0 1440 754" fill="none" xmlns="http://www.w3.org/2000/svg">
<g clip-path="url(#clip0_15594_146748)">
<line x1="18.3359" y1="141.845" x2="1451.21" y2="141.845" stroke="#F2FCF2" stroke-width="1.64611"/>
<line x1="18.3359" y1="273.534" x2="1451.21" y2="273.534" stroke="#F2FCF2" stroke-width="1.64611"/>
<line x1="18.3359" y1="405.223" x2="1451.21" y2="405.223" stroke="#F2FCF2" stroke-width="1.64611"/>
<line x1="18.3359" y1="536.911" x2="1451.21" y2="536.911" stroke="#F2FCF2" stroke-width="1.64611"/>
<line x1="18.3359" y1="668.6" x2="1451.21" y2="668.6" stroke="#F2FCF2" stroke-width="1.64611"/>
<line x1="15.8231" y1="30.6172" x2="15.823" y2="891.938" stroke="#F2FCF2" stroke-width="1.64611"/>
<line x1="147.511" y1="30.6172" x2="147.511" y2="891.938" stroke="#F2FCF2" stroke-width="1.64611"/>
<line x1="279.202" y1="30.6172" x2="279.202" y2="891.938" stroke="#F2FCF2" stroke-width="1.64611"/>
<line x1="410.889" y1="30.6172" x2="410.889" y2="891.938" stroke="#F2FCF2" stroke-width="1.64611"/>
<line x1="542.577" y1="30.6172" x2="542.577" y2="891.938" stroke="#F2FCF2" stroke-width="1.64611"/>
<line x1="674.268" y1="30.6172" x2="674.268" y2="891.938" stroke="#F2FCF2" stroke-width="1.64611"/>
<line x1="805.956" y1="30.6172" x2="805.956" y2="891.938" stroke="#F2FCF2" stroke-width="1.64611"/>
<line x1="937.643" y1="30.6172" x2="937.643" y2="891.938" stroke="#F2FCF2" stroke-width="1.64611"/>
<line x1="1069.33" y1="30.6172" x2="1069.33" y2="891.938" stroke="#F2FCF2" stroke-width="1.64611"/>
<line x1="1201.02" y1="30.6172" x2="1201.02" y2="891.938" stroke="#F2FCF2" stroke-width="1.64611"/>
<line x1="1332.71" y1="30.6172" x2="1332.71" y2="891.938" stroke="#F2FCF2" stroke-width="1.64611"/>
<rect x="148.629" y="141.279" width="131.816" height="135.078" fill="url(#paint0_linear_15594_146748)" fill-opacity="0.11"/>
<rect x="1070.66" y="24.373" width="131.816" height="117.244" fill="url(#paint1_linear_15594_146748)" fill-opacity="0.11"/>
<rect x="544.547" y="537.877" width="131.816" height="135.078" fill="url(#paint2_linear_15594_146748)" fill-opacity="0.11"/>
<g filter="url(#filter0_f_15594_146748)">
<rect x="18.3359" y="754.479" width="1410.66" height="144.401" fill="white"/>
</g>
<g filter="url(#filter1_f_15594_146748)">
<rect x="15" y="-0.0556641" width="1412" height="63.6787" fill="white"/>
</g>
<g filter="url(#filter2_f_15594_146748)">
<circle cx="1038.5" cy="344.5" r="308.5" fill="white"/>
</g>
</g>
<defs>
<filter id="filter0_f_15594_146748" x="-41.6641" y="694.479" width="1530.66" height="264.401" filterUnits="userSpaceOnUse" color-interpolation-filters="sRGB">
<feFlood flood-opacity="0" result="BackgroundImageFix"/>
<feBlend mode="normal" in="SourceGraphic" in2="BackgroundImageFix" result="shape"/>
<feGaussianBlur stdDeviation="30" result="effect1_foregroundBlur_15594_146748"/>
</filter>
<filter id="filter1_f_15594_146748" x="-45" y="-60.0557" width="1532" height="183.679" filterUnits="userSpaceOnUse" color-interpolation-filters="sRGB">
<feFlood flood-opacity="0" result="BackgroundImageFix"/>
<feBlend mode="normal" in="SourceGraphic" in2="BackgroundImageFix" result="shape"/>
<feGaussianBlur stdDeviation="30" result="effect1_foregroundBlur_15594_146748"/>
</filter>
<filter id="filter2_f_15594_146748" x="640" y="-54" width="797" height="797" filterUnits="userSpaceOnUse" color-interpolation-filters="sRGB">
<feFlood flood-opacity="0" result="BackgroundImageFix"/>
<feBlend mode="normal" in="SourceGraphic" in2="BackgroundImageFix" result="shape"/>
<feGaussianBlur stdDeviation="45" result="effect1_foregroundBlur_15594_146748"/>
</filter>
<linearGradient id="paint0_linear_15594_146748" x1="214.537" y1="141.279" x2="214.537" y2="276.357" gradientUnits="userSpaceOnUse">
<stop stop-color="#23A323" stop-opacity="0.43"/>
<stop offset="1" stop-color="#23A323" stop-opacity="0"/>
</linearGradient>
<linearGradient id="paint1_linear_15594_146748" x1="1136.57" y1="24.373" x2="1136.57" y2="141.617" gradientUnits="userSpaceOnUse">
<stop stop-color="#23A323" stop-opacity="0.43"/>
<stop offset="1" stop-color="#23A323" stop-opacity="0"/>
</linearGradient>
<linearGradient id="paint2_linear_15594_146748" x1="610.455" y1="537.877" x2="610.455" y2="672.955" gradientUnits="userSpaceOnUse">
<stop stop-color="#23A323" stop-opacity="0.43"/>
<stop offset="1" stop-color="#23A323" stop-opacity="0"/>
</linearGradient>
<clipPath id="clip0_15594_146748">
<rect width="1441" height="754" fill="white" transform="translate(-1)"/>
</clipPath>
</defs>
</svg>
