<svg width="1210" height="128" viewBox="0 0 1210 128" fill="none" xmlns="http://www.w3.org/2000/svg">
<path d="M19.1555 58.5241H104.836V75.9841H19.1555V58.5241ZM101.956 9.02406H122.296V125.664H101.956V9.02406ZM0.975547 9.02406H21.4955V125.664H0.975547V9.02406ZM195.21 127.644C185.25 127.644 176.31 125.844 168.39 122.244C160.47 118.644 154.23 113.364 149.67 106.404C145.11 99.4441 142.83 90.9841 142.83 81.0241C142.83 71.1841 145.11 62.7841 149.67 55.8241C154.23 48.7441 160.47 43.3441 168.39 39.6241C176.31 35.9041 185.25 34.0441 195.21 34.0441C205.17 34.0441 214.05 35.9041 221.85 39.6241C229.65 43.3441 235.77 48.7441 240.21 55.8241C244.77 62.7841 247.05 71.1841 247.05 81.0241C247.05 90.9841 244.77 99.4441 240.21 106.404C235.77 113.364 229.65 118.644 221.85 122.244C214.05 125.844 205.17 127.644 195.21 127.644ZM195.21 111.264C200.97 111.264 206.25 110.124 211.05 107.844C215.85 105.564 219.63 102.144 222.39 97.5841C225.27 93.0241 226.71 87.5041 226.71 81.0241C226.71 74.5441 225.27 69.0241 222.39 64.4641C219.63 59.9041 215.85 56.4241 211.05 54.0241C206.37 51.5041 201.09 50.2441 195.21 50.2441C189.33 50.2441 183.99 51.4441 179.19 53.8441C174.39 56.2441 170.49 59.7241 167.49 64.2841C164.61 68.8441 163.17 74.4241 163.17 81.0241C163.17 87.5041 164.61 93.0241 167.49 97.5841C170.37 102.144 174.21 105.564 179.01 107.844C183.93 110.124 189.33 111.264 195.21 111.264ZM368.687 110.544L362.747 110.364L388.847 36.0241H410.807L375.887 125.664H356.987L329.087 50.9641H335.387L306.767 125.664H287.867L253.667 36.0241H275.627L301.007 110.544H295.067L320.627 36.0241H344.027L368.687 110.544ZM473.028 9.02406H493.548V125.664H473.028V9.02406ZM515.799 36.0241H579.159V52.4041H515.799V36.0241ZM537.399 11.9041H557.559V125.664H537.399V11.9041ZM675.417 125.664L628.797 9.02406H651.117L690.717 111.624H684.237L722.037 9.02406H745.257L783.057 111.624H776.577L816.177 9.02406H838.137L792.057 125.664H767.937L730.677 23.2441H736.797L699.357 125.664H675.417ZM889.897 127.644C879.937 127.644 870.997 125.844 863.077 122.244C855.157 118.644 848.917 113.364 844.357 106.404C839.797 99.4441 837.517 90.9841 837.517 81.0241C837.517 71.1841 839.797 62.7841 844.357 55.8241C848.917 48.7441 855.157 43.3441 863.077 39.6241C870.997 35.9041 879.937 34.0441 889.897 34.0441C899.857 34.0441 908.737 35.9041 916.537 39.6241C924.337 43.3441 930.457 48.7441 934.897 55.8241C939.457 62.7841 941.737 71.1841 941.737 81.0241C941.737 90.9841 939.457 99.4441 934.897 106.404C930.457 113.364 924.337 118.644 916.537 122.244C908.737 125.844 899.857 127.644 889.897 127.644ZM889.897 111.264C895.657 111.264 900.937 110.124 905.737 107.844C910.537 105.564 914.317 102.144 917.077 97.5841C919.957 93.0241 921.397 87.5041 921.397 81.0241C921.397 74.5441 919.957 69.0241 917.077 64.4641C914.317 59.9041 910.537 56.4241 905.737 54.0241C901.057 51.5041 895.777 50.2441 889.897 50.2441C884.017 50.2441 878.677 51.4441 873.877 53.8441C869.077 56.2441 865.177 59.7241 862.177 64.2841C859.297 68.8441 857.857 74.4241 857.857 81.0241C857.857 87.5041 859.297 93.0241 862.177 97.5841C865.057 102.144 868.897 105.564 873.697 107.844C878.617 110.124 884.017 111.264 889.897 111.264ZM959.619 36.0241H979.599V125.664H959.619V36.0241ZM1012 53.1241C1005.52 53.1241 999.939 54.5041 995.259 57.2641C990.699 60.0241 987.039 63.3841 984.279 67.3441C981.519 71.3041 979.599 75.1441 978.519 78.8641L978.339 68.7841C978.459 67.4641 978.879 65.4841 979.599 62.8441C980.319 60.0841 981.399 57.0841 982.839 53.8441C984.399 50.6041 986.439 47.4841 988.959 44.4841C991.599 41.3641 994.779 38.8441 998.499 36.9241C1002.34 35.0041 1006.84 34.0441 1012 34.0441V53.1241ZM1028.92 0.02406H1048.9V125.664H1028.92V0.02406ZM1118.74 36.0241L1068.52 82.1041L1069.06 69.5041L1122.52 125.664H1096.96L1049.44 75.4441L1091.02 36.0241H1118.74ZM1129.86 96.1441H1148.4C1149.36 100.704 1151.82 104.424 1155.78 107.304C1159.74 110.064 1165.08 111.444 1171.8 111.444C1176.12 111.444 1179.48 110.964 1181.88 110.004C1184.4 109.044 1186.14 107.724 1187.1 106.044C1188.18 104.364 1188.72 102.444 1188.72 100.284C1188.72 97.6441 1187.94 95.6041 1186.38 94.1641C1184.94 92.7241 1182.78 91.5241 1179.9 90.5641C1177.02 89.6041 1173.42 88.7641 1169.1 88.0441C1164.66 86.9641 1160.28 85.7641 1155.96 84.4441C1151.64 83.1241 1147.74 81.5041 1144.26 79.5841C1140.78 77.5441 1138.02 75.0241 1135.98 72.0241C1134.06 68.9041 1133.1 65.1241 1133.1 60.6841C1133.1 56.6041 1134 52.9441 1135.8 49.7041C1137.72 46.3441 1140.36 43.5241 1143.72 41.2441C1147.08 38.9641 1151.04 37.2241 1155.6 36.0241C1160.16 34.7041 1165.14 34.0441 1170.54 34.0441C1178.34 34.0441 1184.82 35.3041 1189.98 37.8241C1195.26 40.3441 1199.22 43.8841 1201.86 48.4441C1204.62 53.0041 1206 58.2241 1206 64.1041H1188.36C1187.4 59.3041 1185.54 55.8241 1182.78 53.6641C1180.02 51.5041 1175.88 50.4241 1170.36 50.4241C1164.84 50.4241 1160.64 51.3841 1157.76 53.3041C1154.88 55.2241 1153.44 57.8641 1153.44 61.2241C1153.44 63.7441 1154.34 65.7841 1156.14 67.3441C1158.06 68.7841 1160.76 70.0441 1164.24 71.1241C1167.72 72.2041 1171.8 73.2841 1176.48 74.3641C1180.8 75.5641 1184.88 76.8241 1188.72 78.1441C1192.56 79.3441 1195.98 80.9041 1198.98 82.8241C1202.1 84.6241 1204.56 87.0241 1206.36 90.0241C1208.16 93.0241 1209.06 96.7441 1209.06 101.184C1209.06 106.704 1207.56 111.444 1204.56 115.404C1201.68 119.364 1197.48 122.424 1191.96 124.584C1186.44 126.624 1179.78 127.644 1171.98 127.644C1165.14 127.644 1159.2 126.864 1154.16 125.304C1149.24 123.744 1145.1 121.704 1141.74 119.184C1138.5 116.664 1135.98 113.964 1134.18 111.084C1132.38 108.204 1131.12 105.444 1130.4 102.804C1129.8 100.164 1129.62 97.9441 1129.86 96.1441Z" fill="#E5E7EB"/>
</svg>
