<svg width="1440" height="663" viewBox="0 0 1440 663" fill="none" xmlns="http://www.w3.org/2000/svg">
<g clip-path="url(#clip0_3571_39368)">
<rect x="0.198242" width="1442.8" height="662.895" fill="white"/>
<path d="M171.654 55.3327L179.365 68.7889L194.6 71.6942L181.144 79.4056L178.238 94.6403L170.527 81.184L155.292 78.2788L168.749 70.5674L171.654 55.3327Z" fill="#179942"/>
<path d="M192.972 52.562L195.316 56.6512L199.945 57.534L195.856 59.8774L194.973 64.507L192.63 60.4178L188 59.535L192.09 57.1916L192.972 52.562Z" fill="#179942"/>
<path d="M192.972 81.9995L195.316 86.0887L199.945 86.9715L195.856 89.3149L194.973 93.9445L192.63 89.8553L188 88.9725L192.09 86.6291L192.972 81.9995Z" fill="#179942"/>
<path d="M150.972 63.9995L153.316 68.0887L157.945 68.9715L153.856 71.3149L152.973 75.9445L150.63 71.8553L146 70.9725L150.09 68.6291L150.972 63.9995Z" fill="#179942"/>
<ellipse cx="444.824" cy="554.75" rx="1.25" ry="19.75" fill="#179942"/>
<ellipse cx="444.25" cy="554.176" rx="1.25" ry="19.75" transform="rotate(-90 444.25 554.176)" fill="#179942"/>
<ellipse cx="445.214" cy="554.728" rx="0.759494" ry="12" transform="rotate(-51.8821 445.214 554.728)" fill="#179942"/>
<ellipse cx="444.728" cy="554.786" rx="0.759494" ry="12" transform="rotate(-141.882 444.728 554.786)" fill="#179942"/>
<ellipse cx="519.833" cy="387.5" rx="0.727848" ry="11.5" fill="#179942"/>
<ellipse cx="519.5" cy="387.167" rx="0.727848" ry="11.5" transform="rotate(-90 519.5 387.167)" fill="#179942"/>
<ellipse cx="520.063" cy="387.485" rx="0.442237" ry="6.98734" transform="rotate(-51.8821 520.063 387.485)" fill="#179942"/>
<ellipse cx="519.782" cy="387.519" rx="0.442237" ry="6.98734" transform="rotate(-141.882 519.782 387.519)" fill="#179942"/>
<ellipse cx="1219.83" cy="74.5" rx="0.727848" ry="11.5" fill="#179942"/>
<ellipse cx="1219.5" cy="74.1667" rx="0.727848" ry="11.5" transform="rotate(-90 1219.5 74.1667)" fill="#179942"/>
<ellipse cx="1220.06" cy="74.4848" rx="0.442237" ry="6.98734" transform="rotate(-51.8821 1220.06 74.4848)" fill="#179942"/>
<ellipse cx="1219.78" cy="74.5188" rx="0.442237" ry="6.98734" transform="rotate(-141.882 1219.78 74.5188)" fill="#179942"/>
</g>
<defs>
<clipPath id="clip0_3571_39368">
<rect width="1442.8" height="662.895" fill="white" transform="translate(0.198242)"/>
</clipPath>
</defs>
</svg>
