<svg width="456" height="82" viewBox="0 0 456 82" fill="none" xmlns="http://www.w3.org/2000/svg">
<g clip-path="url(#clip0_7308_70172)">
<rect x="0.536133" y="60.0259" width="432.434" height="21.8203" transform="rotate(-2.75639 0.536133 60.0259)" fill="#FFBD00"/>
<path d="M21.2368 36.4259H52.1768V42.7309H21.2368V36.4259ZM51.1368 18.5509H58.4818V60.6709H51.1368V18.5509ZM14.6718 18.5509H22.0818V60.6709H14.6718V18.5509ZM84.8119 61.3859C81.2152 61.3859 77.9869 60.7359 75.1269 59.4359C72.2669 58.1359 70.0136 56.2292 68.3669 53.7159C66.7202 51.2026 65.8969 48.1476 65.8969 44.5509C65.8969 40.9976 66.7202 37.9642 68.3669 35.4509C70.0136 32.8942 72.2669 30.9442 75.1269 29.6009C77.9869 28.2576 81.2152 27.5859 84.8119 27.5859C88.4086 27.5859 91.6152 28.2576 94.4319 29.6009C97.2486 30.9442 99.4586 32.8942 101.062 35.4509C102.709 37.9642 103.532 40.9976 103.532 44.5509C103.532 48.1476 102.709 51.2026 101.062 53.7159C99.4586 56.2292 97.2486 58.1359 94.4319 59.4359C91.6152 60.7359 88.4086 61.3859 84.8119 61.3859ZM84.8119 55.4709C86.8919 55.4709 88.7986 55.0592 90.5319 54.2359C92.2652 53.4126 93.6302 52.1776 94.6269 50.5309C95.6669 48.8842 96.1869 46.8909 96.1869 44.5509C96.1869 42.2109 95.6669 40.2176 94.6269 38.5709C93.6302 36.9242 92.2652 35.6676 90.5319 34.8009C88.8419 33.8909 86.9352 33.4359 84.8119 33.4359C82.6886 33.4359 80.7602 33.8692 79.0269 34.7359C77.2936 35.6026 75.8852 36.8592 74.8019 38.5059C73.7619 40.1526 73.2419 42.1676 73.2419 44.5509C73.2419 46.8909 73.7619 48.8842 74.8019 50.5309C75.8419 52.1776 77.2286 53.4126 78.9619 54.2359C80.7386 55.0592 82.6886 55.4709 84.8119 55.4709ZM147.457 55.2109L145.312 55.1459L154.737 28.3009H162.667L150.057 60.6709H143.232L133.157 33.6959H135.432L125.097 60.6709H118.272L105.922 28.3009H113.852L123.017 55.2109H120.872L130.102 28.3009H138.552L147.457 55.2109ZM191.31 14.5859V21.5409H182.665V14.5859H191.31ZM183.315 28.3009H190.595V60.6709H183.315V28.3009ZM196.962 28.3009H219.842V34.2159H196.962V28.3009ZM204.762 19.5909H212.042V60.6709H204.762V19.5909ZM279.107 55.2109L276.962 55.1459L286.387 28.3009H294.317L281.707 60.6709H274.882L264.807 33.6959H267.082L256.747 60.6709H249.922L237.572 28.3009H245.502L254.667 55.2109H252.522L261.752 28.3009H270.202L279.107 55.2109ZM315.486 61.3859C311.889 61.3859 308.661 60.7359 305.801 59.4359C302.941 58.1359 300.687 56.2292 299.041 53.7159C297.394 51.2026 296.571 48.1476 296.571 44.5509C296.571 40.9976 297.394 37.9642 299.041 35.4509C300.687 32.8942 302.941 30.9442 305.801 29.6009C308.661 28.2576 311.889 27.5859 315.486 27.5859C319.082 27.5859 322.289 28.2576 325.106 29.6009C327.922 30.9442 330.132 32.8942 331.736 35.4509C333.382 37.9642 334.206 40.9976 334.206 44.5509C334.206 48.1476 333.382 51.2026 331.736 53.7159C330.132 56.2292 327.922 58.1359 325.106 59.4359C322.289 60.7359 319.082 61.3859 315.486 61.3859ZM315.486 55.4709C317.566 55.4709 319.472 55.0592 321.206 54.2359C322.939 53.4126 324.304 52.1776 325.301 50.5309C326.341 48.8842 326.861 46.8909 326.861 44.5509C326.861 42.2109 326.341 40.2176 325.301 38.5709C324.304 36.9242 322.939 35.6676 321.206 34.8009C319.516 33.8909 317.609 33.4359 315.486 33.4359C313.362 33.4359 311.434 33.8692 309.701 34.7359C307.967 35.6026 306.559 36.8592 305.476 38.5059C304.436 40.1526 303.916 42.1676 303.916 44.5509C303.916 46.8909 304.436 48.8842 305.476 50.5309C306.516 52.1776 307.902 53.4126 309.636 54.2359C311.412 55.0592 313.362 55.4709 315.486 55.4709ZM340.663 28.3009H347.878V60.6709H340.663V28.3009ZM359.578 34.4759C357.238 34.4759 355.223 34.9742 353.533 35.9709C351.886 36.9676 350.565 38.1809 349.568 39.6109C348.571 41.0409 347.878 42.4276 347.488 43.7709L347.423 40.1309C347.466 39.6542 347.618 38.9392 347.878 37.9859C348.138 36.9892 348.528 35.9059 349.048 34.7359C349.611 33.5659 350.348 32.4392 351.258 31.3559C352.211 30.2292 353.36 29.3192 354.703 28.6259C356.09 27.9326 357.715 27.5859 359.578 27.5859V34.4759ZM365.688 15.3009H372.903V60.6709H365.688V15.3009ZM398.123 28.3009L379.988 44.9409L380.183 40.3909L399.488 60.6709H390.258L373.098 42.5359L388.113 28.3009H398.123ZM402.138 50.0109H408.833C409.18 51.6576 410.068 53.0009 411.498 54.0409C412.928 55.0376 414.857 55.5359 417.283 55.5359C418.843 55.5359 420.057 55.3626 420.923 55.0159C421.833 54.6692 422.462 54.1926 422.808 53.5859C423.198 52.9792 423.393 52.2859 423.393 51.5059C423.393 50.5526 423.112 49.8159 422.548 49.2959C422.028 48.7759 421.248 48.3426 420.208 47.9959C419.168 47.6492 417.868 47.3459 416.308 47.0859C414.705 46.6959 413.123 46.2626 411.563 45.7859C410.003 45.3092 408.595 44.7242 407.338 44.0309C406.082 43.2942 405.085 42.3842 404.348 41.3009C403.655 40.1742 403.308 38.8092 403.308 37.2059C403.308 35.7326 403.633 34.4109 404.283 33.2409C404.977 32.0276 405.93 31.0092 407.143 30.1859C408.357 29.3626 409.787 28.7342 411.433 28.3009C413.08 27.8242 414.878 27.5859 416.828 27.5859C419.645 27.5859 421.985 28.0409 423.848 28.9509C425.755 29.8609 427.185 31.1392 428.138 32.7859C429.135 34.4326 429.633 36.3176 429.633 38.4409H423.263C422.917 36.7076 422.245 35.4509 421.248 34.6709C420.252 33.8909 418.757 33.5009 416.763 33.5009C414.77 33.5009 413.253 33.8476 412.213 34.5409C411.173 35.2342 410.653 36.1876 410.653 37.4009C410.653 38.3109 410.978 39.0476 411.628 39.6109C412.322 40.1309 413.297 40.5859 414.553 40.9759C415.81 41.3659 417.283 41.7559 418.973 42.1459C420.533 42.5792 422.007 43.0342 423.393 43.5109C424.78 43.9442 426.015 44.5076 427.098 45.2009C428.225 45.8509 429.113 46.7176 429.763 47.8009C430.413 48.8842 430.738 50.2276 430.738 51.8309C430.738 53.8242 430.197 55.5359 429.113 56.9659C428.073 58.3959 426.557 59.5009 424.563 60.2809C422.57 61.0176 420.165 61.3859 417.348 61.3859C414.878 61.3859 412.733 61.1042 410.913 60.5409C409.137 59.9776 407.642 59.2409 406.428 58.3309C405.258 57.4209 404.348 56.4459 403.698 55.4059C403.048 54.3659 402.593 53.3692 402.333 52.4159C402.117 51.4626 402.052 50.6609 402.138 50.0109Z" fill="white"/>
</g>
<defs>
<clipPath id="clip0_7308_70172">
<rect width="454.927" height="81.15" fill="white" transform="translate(0.536133 0.670898)"/>
</clipPath>
</defs>
</svg>
