<svg width="438" height="63" viewBox="0 0 438 63" fill="none" xmlns="http://www.w3.org/2000/svg">
<path d="M7.83046 22.6434H28.5368V27.1237H7.83046V22.6434ZM27.6488 11.8665H33.0171V37.9814H27.6488V11.8665ZM3.10797 11.8665H8.47627V37.9814H3.10797V11.8665ZM50.3543 38.4658C47.8249 38.4658 45.5915 38.0622 43.654 37.2549C41.7435 36.4476 40.2501 35.2771 39.1737 33.7433C38.0974 32.1826 37.5592 30.2721 37.5592 28.0117C37.5592 25.7514 38.0974 23.8409 39.1737 22.2802C40.2501 20.6925 41.7435 19.4951 43.654 18.6878C45.5915 17.8806 47.8249 17.477 50.3543 17.477C52.8838 17.477 55.0903 17.8806 56.9739 18.6878C58.8844 19.4951 60.3778 20.6925 61.4542 22.2802C62.5306 23.8409 63.0687 25.7514 63.0687 28.0117C63.0687 30.2721 62.5306 32.1826 61.4542 33.7433C60.3778 35.2771 58.8844 36.4476 56.9739 37.2549C55.0903 38.0622 52.8838 38.4658 50.3543 38.4658ZM50.3543 34.4295C51.7536 34.4295 53.0048 34.1873 54.1081 33.7029C55.2383 33.1917 56.1263 32.4651 56.7721 31.5233C57.4179 30.5546 57.7408 29.3841 57.7408 28.0117C57.7408 26.6394 57.4179 25.4689 56.7721 24.5001C56.1263 23.5045 55.2517 22.7511 54.1485 22.2398C53.0452 21.7285 51.7805 21.4729 50.3543 21.4729C48.9551 21.4729 47.6904 21.7285 46.5602 22.2398C45.43 22.7511 44.5286 23.4911 43.8559 24.4598C43.21 25.4285 42.8871 26.6125 42.8871 28.0117C42.8871 29.3841 43.21 30.5546 43.8559 31.5233C44.5017 32.4651 45.3897 33.1917 46.5198 33.7029C47.65 34.1873 48.9282 34.4295 50.3543 34.4295ZM92.3147 34.3488L90.6598 34.3084L97.1986 17.9209H102.971L94.131 37.9814H89.2067L82.7486 21.7958H84.5246L77.8647 37.9814H72.9404L64.343 17.9209H70.1149L76.4116 34.3488H74.7567L80.6497 17.9209H86.6638L92.3147 34.3488ZM121.194 22.6434H141.901V27.1237H121.194V22.6434ZM141.013 11.8665H146.381V37.9814H141.013V11.8665ZM116.472 11.8665H121.84V37.9814H116.472V11.8665ZM161.66 38.4254C159.668 38.4254 157.852 37.9949 156.211 37.1338C154.596 36.2458 153.304 35.0215 152.336 33.4608C151.394 31.8732 150.923 30.0434 150.923 27.9714C150.923 25.8456 151.407 24.0023 152.376 22.4416C153.345 20.8809 154.65 19.67 156.291 18.8089C157.96 17.9209 159.843 17.477 161.942 17.477C164.256 17.477 166.113 17.9479 167.512 18.8897C168.938 19.8046 169.974 21.0558 170.62 22.6434C171.266 24.2311 171.589 26.007 171.589 27.9714C171.589 29.1554 171.401 30.3663 171.024 31.6041C170.647 32.815 170.069 33.9451 169.288 34.9946C168.508 36.0171 167.485 36.8513 166.221 37.4971C164.956 38.116 163.436 38.4254 161.66 38.4254ZM163.355 34.3891C164.942 34.3891 166.315 34.12 167.472 33.5819C168.629 33.0437 169.517 32.2902 170.136 31.3215C170.755 30.3528 171.064 29.2361 171.064 27.9714C171.064 26.599 170.741 25.442 170.095 24.5001C169.477 23.5314 168.589 22.8049 167.432 22.3205C166.301 21.8093 164.942 21.5536 163.355 21.5536C161.121 21.5536 159.386 22.1456 158.148 23.3296C156.91 24.4867 156.291 26.0339 156.291 27.9714C156.291 29.263 156.587 30.3932 157.179 31.3619C157.771 32.3037 158.592 33.0437 159.641 33.5819C160.718 34.12 161.956 34.3891 163.355 34.3891ZM171.064 17.9209H176.311V37.9814H171.427C171.427 37.9814 171.387 37.7258 171.306 37.2145C171.253 36.6764 171.199 36.0036 171.145 35.1964C171.091 34.3891 171.064 33.5953 171.064 32.815V17.9209ZM181.06 17.9209H186.308V37.9814H181.06V17.9209ZM194.017 22.2398C192.51 22.2398 191.205 22.5358 190.102 23.1278C188.998 23.6929 188.11 24.3925 187.438 25.2267C186.765 26.0609 186.294 26.8681 186.025 27.6485L185.985 25.4285C186.012 25.1056 186.119 24.6347 186.308 24.0158C186.496 23.37 186.779 22.6838 187.155 21.9573C187.532 21.2038 188.03 20.4907 188.649 19.818C189.268 19.1184 190.021 18.5533 190.909 18.1228C191.797 17.6922 192.833 17.477 194.017 17.477V22.2398ZM207.271 34.9138C205.091 34.9138 203.167 34.5909 201.499 33.9451C199.858 33.2724 198.579 32.2902 197.664 30.9986C196.75 29.707 196.292 28.1463 196.292 26.3165C196.292 24.5136 196.736 22.9529 197.624 21.6344C198.512 20.3158 199.777 19.2933 201.418 18.5668C203.087 17.8402 205.037 17.477 207.271 17.477C207.89 17.477 208.482 17.5173 209.047 17.598C209.639 17.6788 210.217 17.7864 210.783 17.9209L220.914 17.9613V21.9169C219.541 21.9438 218.142 21.7824 216.716 21.4325C215.317 21.0558 214.079 20.6522 213.002 20.2216L212.881 19.9391C213.796 20.3696 214.657 20.9078 215.465 21.5536C216.272 22.1725 216.918 22.8991 217.402 23.7332C217.913 24.5405 218.169 25.4823 218.169 26.5587C218.169 28.3077 217.725 29.8146 216.837 31.0793C215.949 32.3171 214.684 33.2724 213.043 33.9451C211.428 34.5909 209.504 34.9138 207.271 34.9138ZM214.012 46.2559V45.2872C214.012 44.0494 213.608 43.1883 212.801 42.7039C212.02 42.2196 210.944 41.9774 209.572 41.9774H203.315C202.104 41.9774 201.082 41.8832 200.248 41.6949C199.44 41.5065 198.795 41.2374 198.31 40.8876C197.826 40.5378 197.476 40.1207 197.261 39.6363C197.046 39.1789 196.938 38.6811 196.938 38.1429C196.938 37.0665 197.288 36.2593 197.987 35.7211C198.687 35.156 199.629 34.7793 200.813 34.5909C201.997 34.4026 203.302 34.3622 204.728 34.4698L207.271 34.9138C205.576 34.9677 204.311 35.1157 203.477 35.3578C202.67 35.5731 202.266 36.0171 202.266 36.6898C202.266 37.0935 202.427 37.4164 202.75 37.6585C203.073 37.8738 203.531 37.9814 204.123 37.9814H210.702C212.505 37.9814 214.038 38.1698 215.303 38.5465C216.595 38.9502 217.577 39.6094 218.25 40.5243C218.922 41.4661 219.259 42.7443 219.259 44.3588V46.2559H214.012ZM207.271 31.1197C208.428 31.1197 209.437 30.9313 210.298 30.5546C211.186 30.1779 211.872 29.6397 212.357 28.9401C212.841 28.2136 213.083 27.3525 213.083 26.3568C213.083 25.3343 212.841 24.4598 212.357 23.7332C211.872 23.0067 211.2 22.4551 210.339 22.0784C209.477 21.6747 208.455 21.4729 207.271 21.4729C206.114 21.4729 205.091 21.6747 204.203 22.0784C203.315 22.4551 202.629 23.0067 202.145 23.7332C201.66 24.4598 201.418 25.3343 201.418 26.3568C201.418 27.3525 201.66 28.2136 202.145 28.9401C202.629 29.6397 203.302 30.1779 204.163 30.5546C205.051 30.9313 206.087 31.1197 207.271 31.1197ZM235.812 38.4658C233.283 38.4658 231.049 38.0622 229.112 37.2549C227.201 36.4476 225.708 35.2771 224.631 33.7433C223.555 32.1826 223.017 30.2721 223.017 28.0117C223.017 25.7514 223.555 23.8409 224.631 22.2802C225.708 20.6925 227.201 19.4951 229.112 18.6878C231.049 17.8806 233.283 17.477 235.812 17.477C238.342 17.477 240.548 17.8806 242.432 18.6878C244.342 19.4951 245.836 20.6925 246.912 22.2802C247.988 23.8409 248.526 25.7514 248.526 28.0117C248.526 30.2721 247.988 32.1826 246.912 33.7433C245.836 35.2771 244.342 36.4476 242.432 37.2549C240.548 38.0622 238.342 38.4658 235.812 38.4658ZM235.812 34.4295C237.211 34.4295 238.463 34.1873 239.566 33.7029C240.696 33.1917 241.584 32.4651 242.23 31.5233C242.876 30.5546 243.199 29.3841 243.199 28.0117C243.199 26.6394 242.876 25.4689 242.23 24.5001C241.584 23.5045 240.709 22.7511 239.606 22.2398C238.503 21.7285 237.238 21.4729 235.812 21.4729C234.413 21.4729 233.148 21.7285 232.018 22.2398C230.888 22.7511 229.986 23.4911 229.314 24.4598C228.668 25.4285 228.345 26.6125 228.345 28.0117C228.345 29.3841 228.668 30.5546 229.314 31.5233C229.959 32.4651 230.847 33.1917 231.978 33.7029C233.108 34.1873 234.386 34.4295 235.812 34.4295ZM252.405 17.9209H257.653V37.9814H252.405V17.9209ZM266.977 17.477C268.214 17.477 269.358 17.6384 270.407 17.9613C271.457 18.2842 272.372 18.782 273.152 19.4547C273.932 20.1275 274.538 20.9885 274.968 22.038C275.399 23.0605 275.614 24.2849 275.614 25.711V37.9814H270.367V26.6394C270.367 24.9441 269.95 23.7063 269.116 22.926C268.309 22.1187 266.977 21.7151 265.12 21.7151C263.721 21.7151 262.456 21.9842 261.326 22.5223C260.196 23.0605 259.281 23.7467 258.581 24.5809C257.881 25.3881 257.478 26.2358 257.37 27.1237L257.33 25.0652C257.464 24.1234 257.774 23.2085 258.258 22.3205C258.742 21.4325 259.388 20.6253 260.196 19.8987C261.03 19.1453 262.012 18.5533 263.142 18.1228C264.272 17.6922 265.55 17.477 266.977 17.477Z" fill="black"/>
<path d="M299.532 37.9814L288.513 11.8665H294.447L303.77 34.9946L302.035 35.0349L310.915 11.8665H317.09L325.97 35.0349L324.235 34.9946L333.558 11.8665H339.371L328.473 37.9814H321.894L313.175 15.3377H314.87L306.112 37.9814H299.532ZM351.777 38.4658C349.248 38.4658 347.015 38.0622 345.077 37.2549C343.167 36.4476 341.673 35.2771 340.597 33.7433C339.52 32.1826 338.982 30.2721 338.982 28.0117C338.982 25.7514 339.52 23.8409 340.597 22.2802C341.673 20.6925 343.167 19.4951 345.077 18.6878C347.015 17.8806 349.248 17.477 351.777 17.477C354.307 17.477 356.513 17.8806 358.397 18.6878C360.307 19.4951 361.801 20.6925 362.877 22.2802C363.954 23.8409 364.492 25.7514 364.492 28.0117C364.492 30.2721 363.954 32.1826 362.877 33.7433C361.801 35.2771 360.307 36.4476 358.397 37.2549C356.513 38.0622 354.307 38.4658 351.777 38.4658ZM351.777 34.4295C353.177 34.4295 354.428 34.1873 355.531 33.7029C356.661 33.1917 357.549 32.4651 358.195 31.5233C358.841 30.5546 359.164 29.3841 359.164 28.0117C359.164 26.6394 358.841 25.4689 358.195 24.5001C357.549 23.5045 356.675 22.7511 355.572 22.2398C354.468 21.7285 353.204 21.4729 351.777 21.4729C350.378 21.4729 349.113 21.7285 347.983 22.2398C346.853 22.7511 345.952 23.4911 345.279 24.4598C344.633 25.4285 344.31 26.6125 344.31 28.0117C344.31 29.3841 344.633 30.5546 345.279 31.5233C345.925 32.4651 346.813 33.1917 347.943 33.7029C349.073 34.1873 350.351 34.4295 351.777 34.4295ZM368.371 17.9209H373.618V37.9814H368.371V17.9209ZM381.327 22.2398C379.82 22.2398 378.515 22.5358 377.412 23.1278C376.309 23.6929 375.421 24.3925 374.748 25.2267C374.075 26.0609 373.605 26.8681 373.335 27.6485L373.295 25.4285C373.322 25.1056 373.43 24.6347 373.618 24.0158C373.806 23.37 374.089 22.6838 374.466 21.9573C374.842 21.2038 375.34 20.4907 375.959 19.818C376.578 19.1184 377.331 18.5533 378.219 18.1228C379.107 17.6922 380.143 17.477 381.327 17.477V22.2398ZM384.934 9.84831H390.182V37.9814H384.934V9.84831ZM407.094 17.9209L395.146 28.4557L395.267 25.2267L408.022 37.9814H401.362L390.303 26.7201L399.95 17.9209H407.094ZM409.464 31.3215H414.308C414.604 32.2364 415.209 32.9899 416.124 33.5819C417.066 34.1469 418.29 34.4295 419.797 34.4295C420.819 34.4295 421.613 34.3353 422.178 34.1469C422.743 33.9586 423.134 33.6895 423.349 33.3397C423.564 32.963 423.672 32.5459 423.672 32.0884C423.672 31.5233 423.497 31.0928 423.147 30.7968C422.797 30.4739 422.259 30.2183 421.533 30.0299C420.806 29.8415 419.878 29.6666 418.747 29.5052C417.617 29.3168 416.528 29.0881 415.478 28.819C414.429 28.5499 413.5 28.2001 412.693 27.7696C411.886 27.3121 411.24 26.747 410.756 26.0743C410.298 25.3747 410.069 24.5271 410.069 23.5314C410.069 22.5627 410.298 21.7016 410.756 20.9482C411.24 20.1947 411.899 19.5624 412.733 19.0511C413.594 18.5398 414.59 18.1497 415.72 17.8806C416.877 17.6115 418.115 17.477 419.434 17.477C421.425 17.477 423.08 17.7729 424.398 18.3649C425.717 18.93 426.699 19.7373 427.345 20.7867C428.018 21.8093 428.354 22.9933 428.354 24.3387H423.712C423.497 23.3431 423.066 22.63 422.421 22.1994C421.775 21.742 420.779 21.5133 419.434 21.5133C418.115 21.5133 417.12 21.7151 416.447 22.1187C415.774 22.5223 415.438 23.074 415.438 23.7736C415.438 24.3387 415.64 24.7827 416.043 25.1056C416.474 25.4016 417.093 25.6438 417.9 25.8321C418.734 26.0205 419.77 26.2223 421.008 26.4376C422.057 26.6528 423.053 26.895 423.995 27.1641C424.963 27.4332 425.824 27.783 426.578 28.2136C427.331 28.6172 427.923 29.1688 428.354 29.8684C428.811 30.5412 429.04 31.4022 429.04 32.4517C429.04 33.7433 428.663 34.8331 427.91 35.7211C427.183 36.6091 426.134 37.2953 424.762 37.7796C423.389 38.2371 421.748 38.4658 419.837 38.4658C418.142 38.4658 416.676 38.2909 415.438 37.9411C414.227 37.5644 413.218 37.0935 412.41 36.5284C411.603 35.9364 410.971 35.3175 410.513 34.6717C410.083 33.9989 409.787 33.3666 409.625 32.7746C409.464 32.1826 409.41 31.6982 409.464 31.3215Z" fill="#FFA529"/>
<path d="M291.96 61.9746C316.178 50.1646 377.62 33.6307 429.644 61.9746" stroke="#FFA529" stroke-width="1.79392"/>
</svg>
