<svg width="140" height="111" viewBox="0 0 140 111" fill="none" xmlns="http://www.w3.org/2000/svg">
<path d="M5.55549 93.1254L128.312 110.505C132.01 111.029 135.49 108.136 135.687 104.374L139.892 24.1337C140.054 21.0472 137.918 18.4318 134.883 18.0021L12.1267 0.62198C8.4285 0.0981506 4.9491 2.99098 4.75178 6.75356L0.546694 86.9942C0.384881 90.081 2.52106 92.6956 5.55549 93.1254Z" fill="#FF6913"/>
<path d="M4.63749 12.5907L61.392 69.119L138.952 32.1528L139.5 31.8919C139.5 31.8919 139.977 24.0733 139.935 24.2805C140.287 20.6161 137.552 18.3458 134.632 17.9392C93.7824 12.251 12.1668 0.544233 11.8328 0.612756C7.00691 0.337838 4.86535 3.87256 4.63254 6.67045C4.55204 7.63885 4.47899 11.1827 4.46 12.1589C4.4571 12.3187 4.63749 12.5907 4.63749 12.5907Z" fill="#F2BDA0"/>
</svg>
