<svg width="33" height="34" viewBox="0 0 33 34" fill="none" xmlns="http://www.w3.org/2000/svg">
<g clip-path="url(#clip0_4160_41327)">
<path d="M30.745 12.0282L30.3463 8.21948C29.7688 4.06698 27.885 2.37573 23.8563 2.37573H20.6113H18.5763H14.3963H12.3613H9.06126C5.01876 2.37573 3.14876 4.06698 2.55751 8.26073L2.18626 12.042C2.04876 13.5132 2.44751 14.9432 3.31376 16.057C4.35876 17.4182 5.96751 18.1882 7.75501 18.1882C9.48751 18.1882 11.1513 17.322 12.1963 15.9332C13.1313 17.322 14.7263 18.1882 16.5 18.1882C18.2738 18.1882 19.8275 17.3632 20.7763 15.9882C21.835 17.3495 23.4713 18.1882 25.1763 18.1882C27.005 18.1882 28.655 17.377 29.6863 15.947C30.5113 14.847 30.8825 13.4582 30.745 12.0282Z" fill="#228B22"/>
<path d="M15.6063 23.5641C13.86 23.7428 12.54 25.2278 12.54 26.9878V30.7553C12.54 31.1266 12.8425 31.4291 13.2138 31.4291H19.7725C20.1438 31.4291 20.4463 31.1266 20.4463 30.7553V27.4691C20.46 24.5953 18.7688 23.2341 15.6063 23.5641Z" fill="#228B22"/>
<path d="M29.3832 20.4568V24.5543C29.3832 28.3493 26.3032 31.4293 22.5082 31.4293C22.137 31.4293 21.8345 31.1268 21.8345 30.7556V27.4693C21.8345 25.7093 21.2982 24.3343 20.2532 23.3993C19.332 22.5606 18.0807 22.1481 16.527 22.1481C16.1832 22.1481 15.8395 22.1618 15.4682 22.2031C13.0207 22.4506 11.1645 24.5131 11.1645 26.9881V30.7556C11.1645 31.1268 10.862 31.4293 10.4907 31.4293C6.69572 31.4293 3.61572 28.3493 3.61572 24.5543V20.4843C3.61572 19.5218 4.56447 18.8756 5.45822 19.1918C5.82947 19.3156 6.20072 19.4118 6.58572 19.4668C6.75072 19.4943 6.92947 19.5218 7.09447 19.5218C7.31447 19.5493 7.53447 19.5631 7.75447 19.5631C9.34947 19.5631 10.917 18.9718 12.1545 17.9543C13.337 18.9718 14.877 19.5631 16.4995 19.5631C18.1357 19.5631 19.6482 18.9993 20.8307 17.9818C22.0682 18.9856 23.6082 19.5631 25.1757 19.5631C25.4232 19.5631 25.6707 19.5493 25.9045 19.5218C26.0695 19.5081 26.2207 19.4943 26.372 19.4668C26.7982 19.4118 27.1832 19.2881 27.5682 19.1643C28.462 18.8618 29.3832 19.5218 29.3832 20.4568Z" fill="#228B22"/>
</g>
<defs>
<clipPath id="clip0_4160_41327">
<rect width="33" height="33" fill="white" transform="translate(0 0.656738)"/>
</clipPath>
</defs>
</svg>
