<svg width="102" height="140" viewBox="0 0 102 140" fill="none" xmlns="http://www.w3.org/2000/svg">
<path d="M6.60341 0.466797C6.60341 0.466797 -0.142824 1.81604 0.127025 9.10197C0.396875 16.3879 0.396875 132.963 0.396875 132.963C0.396875 132.963 2.01597 139.979 8.2225 139.979C14.429 139.979 92.6853 139.709 92.6853 139.709C92.6853 139.709 101.051 139.439 101.32 131.614C101.59 123.788 101.59 38.5155 101.59 38.5155L64.0813 0.736646L6.60341 0.466797Z" fill="#FFA529"/>
<path d="M28.33 100.182C30.956 100.182 33.0882 102.32 33.0882 104.954C33.0882 107.588 30.956 109.727 28.33 109.727C25.7039 109.727 23.5718 107.588 23.5718 104.954C23.5718 102.32 25.7039 100.182 28.33 100.182Z" fill="#FFFEFE"/>
<path d="M76.6121 101.525V108.619H41.0093V101.525H76.6121Z" fill="#FFFEFE"/>
<path d="M28.33 83.9902C30.956 83.9902 33.0882 86.1288 33.0882 88.7628C33.0882 91.3968 30.956 93.5354 28.33 93.5354C25.7039 93.5354 23.5718 91.3968 23.5718 88.7628C23.5718 86.1288 25.7039 83.9902 28.33 83.9902Z" fill="#FFFEFE"/>
<path d="M76.6121 85.3359V92.4295H41.0093V85.3359H76.6121Z" fill="#FFFEFE"/>
<path d="M28.33 68.6094C30.956 68.6094 33.0882 70.748 33.0882 73.3819C33.0882 76.0159 30.956 78.1545 28.33 78.1545C25.7039 78.1545 23.5718 76.0159 23.5718 73.3819C23.5718 70.748 25.7039 68.6094 28.33 68.6094Z" fill="#FFFEFE"/>
<path d="M76.6121 69.9531V77.0467H41.0093V69.9531H76.6121Z" fill="#FFFEFE"/>
<path d="M63.8112 0.601562L63.2715 31.4993C63.2715 31.4993 64.4858 38.9202 71.6368 38.9202C78.7878 38.9202 101.32 38.2455 101.32 38.2455L63.8112 0.601562Z" fill="#51D0FE" fill-opacity="0.5"/>
<path d="M101.513 38.1919L68.7254 38.5434L101.527 41.6158L101.513 38.1919Z" fill="#4D3EC4" fill-opacity="0.3"/>
<path d="M101.456 38.1113L68.6689 38.5161L101.456 68.1995V38.1113Z" fill="#4D3EC4" fill-opacity="0.2"/>
</svg>
