<svg width="33" height="34" viewBox="0 0 33 34" fill="none" xmlns="http://www.w3.org/2000/svg">
<g clip-path="url(#clip0_2173_20054)">
<path d="M30.7453 11.8847L30.3465 8.07593C29.769 3.92343 27.8853 2.23218 23.8565 2.23218H20.6115H18.5765H14.3965H12.3615H9.0615C5.019 2.23218 3.149 3.92343 2.55775 8.11718L2.1865 11.8984C2.049 13.3697 2.44775 14.7997 3.314 15.9134C4.359 17.2747 5.96775 18.0447 7.75525 18.0447C9.48775 18.0447 11.1515 17.1784 12.1965 15.7897C13.1315 17.1784 14.7265 18.0447 16.5003 18.0447C18.274 18.0447 19.8278 17.2197 20.7765 15.8447C21.8353 17.2059 23.4715 18.0447 25.1765 18.0447C27.0053 18.0447 28.6553 17.2334 29.6865 15.8034C30.5115 14.7034 30.8828 13.3147 30.7453 11.8847Z" fill="white"/>
<path d="M15.6065 23.4205C13.8603 23.5993 12.5403 25.0843 12.5403 26.8443V30.6118C12.5403 30.983 12.8428 31.2855 13.214 31.2855H19.7728C20.144 31.2855 20.4465 30.983 20.4465 30.6118V27.3255C20.4603 24.4518 18.769 23.0905 15.6065 23.4205Z" fill="white"/>
<path d="M29.3835 20.3133V24.4108C29.3835 28.2058 26.3035 31.2858 22.5085 31.2858C22.1372 31.2858 21.8347 30.9833 21.8347 30.612V27.3258C21.8347 25.5658 21.2985 24.1908 20.2535 23.2558C19.3322 22.417 18.081 22.0045 16.5272 22.0045C16.1835 22.0045 15.8397 22.0183 15.4685 22.0595C13.021 22.307 11.1647 24.3695 11.1647 26.8445V30.612C11.1647 30.9833 10.8622 31.2858 10.491 31.2858C6.69597 31.2858 3.61597 28.2058 3.61597 24.4108V20.3408C3.61597 19.3783 4.56472 18.732 5.45847 19.0483C5.82972 19.172 6.20097 19.2683 6.58597 19.3233C6.75097 19.3508 6.92972 19.3783 7.09472 19.3783C7.31472 19.4058 7.53472 19.4195 7.75472 19.4195C9.34972 19.4195 10.9172 18.8283 12.1547 17.8108C13.3372 18.8283 14.8772 19.4195 16.4997 19.4195C18.136 19.4195 19.6485 18.8558 20.831 17.8383C22.0685 18.842 23.6085 19.4195 25.176 19.4195C25.4235 19.4195 25.671 19.4058 25.9047 19.3783C26.0697 19.3645 26.221 19.3508 26.3722 19.3233C26.7985 19.2683 27.1835 19.1445 27.5685 19.0208C28.4622 18.7183 29.3835 19.3783 29.3835 20.3133Z" fill="white"/>
</g>
<defs>
<clipPath id="clip0_2173_20054">
<rect width="33" height="33" fill="white" transform="translate(0 0.513184)"/>
</clipPath>
</defs>
</svg>
