<svg width="494" height="253" viewBox="0 0 494 253" fill="none" xmlns="http://www.w3.org/2000/svg">
<path d="M10.1822 152.981L6.98459 111.048L35.437 108.878C38.6776 108.631 41.5207 108.87 43.9663 109.597C46.4519 110.276 48.4368 111.516 49.9212 113.315C51.4024 115.07 52.255 117.417 52.479 120.355C52.6306 122.343 52.4134 124.054 51.8275 125.49C51.2416 126.925 50.3551 128.123 49.168 129.082C48.024 130.039 46.6709 130.816 45.1084 131.413C43.5427 131.967 41.8574 132.378 40.0525 132.646L39.1056 132.197C42.1335 132.009 44.6377 132.079 46.6183 132.406C48.5956 132.69 50.1057 133.4 51.1485 134.538C52.2312 135.629 52.8616 137.341 53.0395 139.674L53.8006 149.655L45.1806 150.312L44.464 140.914C44.3421 139.316 43.9673 138.106 43.3397 137.284C42.7088 136.42 41.6457 135.871 40.1502 135.637C38.698 135.4 36.6109 135.385 33.8888 135.593L17.621 136.834L18.8022 152.324L10.1822 152.981ZM17.107 130.093L36.9394 128.581C39.3591 128.396 41.1509 127.673 42.315 126.411C43.5223 125.145 44.0501 123.519 43.8986 121.531C43.7536 119.63 42.9951 118.232 41.6231 117.337C40.2943 116.439 38.42 116.082 36.0004 116.267L16.168 117.779L17.107 130.093ZM90.9806 136.063L99.1468 135.441C98.9692 137.671 98.1902 139.708 96.8097 141.551C95.4724 143.391 93.567 144.906 91.0935 146.094C88.6201 147.282 85.547 148.016 81.8743 148.296C77.7696 148.609 74.0907 148.238 70.8377 147.182C67.5813 146.083 64.9719 144.348 63.0092 141.977C61.0466 139.606 59.9302 136.649 59.66 133.106C59.3899 129.563 60.0234 126.473 61.5606 123.835C63.0945 121.154 65.3443 119.027 68.3099 117.453C71.3187 115.877 74.8971 114.93 79.0451 114.614C83.2795 114.291 86.852 114.692 89.7626 115.817C92.6733 116.943 94.9021 118.815 96.4491 121.435C98.0361 124.009 98.8813 127.399 98.9849 131.607L68.2641 133.95C68.6053 135.575 69.3239 137.02 70.4198 138.283C71.5589 139.544 73.0223 140.497 74.8099 141.143C76.6408 141.785 78.766 142.014 81.1856 141.83C83.8645 141.626 86.0551 141.002 87.7575 139.96C89.4997 138.871 90.5741 137.572 90.9806 136.063ZM79.1455 121.06C76.0345 121.297 73.5596 122.181 71.7207 123.712C69.8785 125.2 68.7523 126.959 68.3421 128.989L90.2485 127.319C89.8678 125.175 88.7006 123.547 86.7471 122.436C84.8336 121.278 82.2997 120.819 79.1455 121.06ZM146.649 136.708L143.987 136.845L152.48 109.731L161.748 109.024L150.01 142.318L142.103 142.921L129.751 117.722L132.603 117.505L123.891 144.31L115.984 144.913L99.7228 113.754L108.991 113.047L121.113 138.655L118.456 138.858L125.907 111.758L135.564 111.021L146.649 136.708ZM183.431 140.487C180.234 140.731 177.264 140.262 174.523 139.08C171.822 137.852 169.598 136.044 167.852 133.657C166.145 131.223 165.165 128.342 164.911 125.015C164.651 121.602 165.203 118.583 166.567 115.958C167.932 113.333 169.879 111.229 172.409 109.646C174.979 108.015 177.949 107.072 181.32 106.815C185.036 106.532 188.075 107.06 190.437 108.401C192.839 109.696 194.655 111.578 195.887 114.048C197.118 116.518 197.854 119.331 198.095 122.485C198.24 124.386 198.085 126.353 197.632 128.387C197.175 130.378 196.385 132.263 195.26 134.044C194.133 135.781 192.593 137.246 190.641 138.438C188.686 139.586 186.283 140.269 183.431 140.487ZM185.659 133.798C188.208 133.604 190.379 133.004 192.171 131.998C193.963 130.992 195.297 129.673 196.172 128.042C197.047 126.411 197.407 124.58 197.252 122.549C197.084 120.345 196.424 118.527 195.272 117.094C194.159 115.614 192.644 114.556 190.727 113.92C188.85 113.238 186.637 112.994 184.087 113.188C180.501 113.461 177.787 114.624 175.944 116.677C174.098 118.687 173.294 121.247 173.531 124.358C173.689 126.432 174.303 128.21 175.372 129.693C176.438 131.133 177.846 132.221 179.597 132.957C181.392 133.689 183.412 133.969 185.659 133.798ZM196.022 106.411L204.447 105.768L206.903 137.98L199.061 138.578C199.061 138.578 198.965 138.172 198.773 137.361C198.62 136.504 198.452 135.43 198.266 134.14C198.081 132.851 197.941 131.579 197.845 130.326L196.022 106.411ZM212.073 105.187L220.498 104.544L222.954 136.756L214.529 137.398L212.073 105.187ZM233.406 110.535C230.986 110.72 228.927 111.355 227.228 112.441C225.526 113.483 224.185 114.715 223.207 116.137C222.229 117.559 221.572 118.913 221.236 120.199L220.899 116.639C220.903 116.117 221.018 115.348 221.244 114.331C221.468 113.271 221.837 112.135 222.353 110.922C222.866 109.666 223.578 108.46 224.489 107.304C225.398 106.105 226.538 105.105 227.911 104.305C229.285 103.505 230.922 103.032 232.823 102.888L233.406 110.535ZM256.281 134.932C253.04 135.179 250.05 134.711 247.308 133.53C244.607 132.302 242.405 130.492 240.702 128.101C238.995 125.668 238.015 122.787 237.761 119.46C237.501 116.047 238.01 113.031 239.288 110.413C240.609 107.791 242.513 105.691 245 104.11C247.484 102.487 250.389 101.548 253.716 101.294C256.611 101.074 259.107 101.318 261.203 102.027C263.3 102.736 265.034 103.821 266.406 105.281C267.774 106.698 268.817 108.4 269.533 110.388C270.293 112.373 270.764 114.553 270.945 116.93C271.09 118.831 270.936 120.798 270.482 122.832C270.026 124.822 269.235 126.708 268.11 128.489C266.983 130.226 265.443 131.691 263.491 132.883C261.536 134.031 259.133 134.714 256.281 134.932ZM258.509 128.243C261.058 128.048 263.229 127.448 265.021 126.443C266.813 125.437 268.147 124.118 269.022 122.487C269.897 120.856 270.257 119.025 270.102 116.994C269.934 114.79 269.274 112.972 268.122 111.539C267.009 110.059 265.493 108.979 263.572 108.3C261.695 107.618 259.482 107.374 256.932 107.568C253.346 107.841 250.632 109.004 248.789 111.057C246.946 113.11 246.144 115.692 246.381 118.803C246.539 120.877 247.153 122.655 248.222 124.138C249.288 125.578 250.696 126.666 252.447 127.401C254.242 128.134 256.262 128.414 258.509 128.243ZM267.883 87.8933L276.309 87.2508L279.753 132.425L271.911 133.023C271.706 132.039 271.479 130.774 271.231 129.228C270.979 127.64 270.801 126.154 270.695 124.771L267.883 87.8933ZM286.723 121.137L294.5 120.544C295.088 121.977 296.152 123.113 297.694 123.951C299.275 124.743 301.276 125.047 303.695 124.862C305.337 124.737 306.6 124.489 307.485 124.117C308.369 123.745 308.962 123.266 309.265 122.678C309.565 122.046 309.687 121.363 309.631 120.629C309.561 119.721 309.228 119.052 308.63 118.619C308.029 118.143 307.133 117.799 305.944 117.585C304.754 117.372 303.242 117.205 301.407 117.084C299.569 116.92 297.792 116.686 296.073 116.382C294.355 116.079 292.822 115.631 291.473 115.038C290.121 114.403 289.015 113.574 288.154 112.553C287.334 111.486 286.863 110.153 286.741 108.554C286.623 106.999 286.884 105.588 287.527 104.322C288.212 103.053 289.193 101.957 290.47 101.034C291.79 100.108 293.341 99.3592 295.123 98.7887C296.948 98.2149 298.919 97.8473 301.036 97.6859C304.234 97.4421 306.927 97.7147 309.117 98.5039C311.303 99.2498 312.979 100.426 314.145 102.032C315.35 103.591 316.035 105.451 316.2 107.612L308.747 108.18C308.279 106.608 307.5 105.515 306.411 104.903C305.318 104.248 303.691 104.002 301.53 104.167C299.413 104.329 297.839 104.774 296.809 105.505C295.778 106.235 295.305 107.162 295.391 108.286C295.46 109.193 295.838 109.881 296.526 110.35C297.254 110.773 298.277 111.086 299.596 111.29C300.959 111.49 302.647 111.687 304.661 111.881C306.373 112.099 308.001 112.365 309.546 112.682C311.135 112.996 312.56 113.452 313.823 114.051C315.082 114.607 316.1 115.42 316.877 116.491C317.694 117.515 318.167 118.87 318.295 120.555C318.453 122.629 317.982 124.425 316.881 125.943C315.823 127.458 314.222 128.688 312.077 129.634C309.93 130.536 307.322 131.105 304.254 131.339C301.532 131.546 299.156 131.445 297.126 131.035C295.135 130.578 293.457 129.946 292.092 129.137C290.723 128.285 289.632 127.369 288.818 126.388C288.045 125.36 287.492 124.381 287.16 123.451C286.828 122.52 286.683 121.749 286.723 121.137Z" fill="#FFBD00"/>
<path d="M12.1726 215.842L20.9222 215.174C21.207 216.63 21.9789 217.919 23.2377 219.039C24.5365 220.114 26.1845 220.923 28.1815 221.466C30.1753 221.965 32.382 222.123 34.8017 221.939C37.0053 221.771 38.8019 221.395 40.1915 220.811C41.5811 220.227 42.5886 219.476 43.2141 218.559C43.8395 217.642 44.1061 216.579 44.0138 215.369C43.9249 214.203 43.4252 213.35 42.515 212.811C41.6014 212.228 40.2008 211.814 38.3132 211.567C36.4223 211.276 33.9481 211.03 30.8906 210.829C28.4878 210.664 26.2048 210.36 24.0414 209.917C21.8748 209.43 19.9327 208.753 18.215 207.884C16.5405 207.012 15.1737 205.9 14.1143 204.546C13.095 203.146 12.5095 201.453 12.3579 199.465C12.1701 197.002 12.6967 194.789 13.9377 192.826C15.2219 190.859 17.2071 189.252 19.8933 188.004C22.5795 186.756 25.9318 185.979 29.9501 185.673C35.9992 185.211 40.7429 186.153 44.1812 188.499C47.6594 190.797 49.5266 194.197 49.7829 198.697L41.3573 199.34C40.9901 196.804 39.7699 195.05 37.6967 194.078C35.6666 193.103 33.161 192.729 30.1796 192.956C27.4143 193.167 25.1556 193.752 23.4035 194.711C21.6945 195.667 20.9159 197.139 21.0674 199.127C21.1267 199.905 21.3955 200.579 21.8737 201.151C22.3486 201.68 23.121 202.121 24.191 202.474C25.2609 202.827 26.6965 203.13 28.4976 203.384C30.2988 203.638 32.5321 203.859 35.1974 204.047C37.6866 204.205 39.9481 204.51 41.9818 204.964C44.0554 205.37 45.8413 205.995 47.3397 206.837C48.8779 207.632 50.0903 208.713 50.9768 210.079C51.8632 211.446 52.3856 213.166 52.5437 215.24C52.7381 217.789 52.2381 220.066 51.0436 222.069C49.889 224.026 47.9686 225.628 45.2824 226.876C42.6394 228.121 39.1359 228.909 34.7719 229.242C31.6609 229.479 28.8925 229.364 26.4666 228.897C24.0375 228.387 21.9159 227.637 20.1019 226.645C18.288 225.653 16.7898 224.529 15.6075 223.272C14.4251 222.015 13.5453 220.735 12.9678 219.431C12.4336 218.125 12.1685 216.928 12.1726 215.842ZM75.6751 225.927C72.4777 226.171 69.5085 225.702 66.7673 224.521C64.0661 223.292 61.8423 221.485 60.0957 219.097C58.389 216.663 57.4088 213.783 57.1551 210.456C56.8948 207.042 57.4469 204.023 58.8112 201.399C60.1756 198.774 62.1229 196.67 64.6532 195.086C67.2234 193.456 70.1935 192.512 73.5638 192.255C77.2796 191.972 80.3186 192.501 82.6808 193.842C85.0828 195.136 86.8995 197.019 88.1309 199.489C89.3623 201.959 90.0982 204.771 90.3388 207.925C90.4837 209.826 90.3296 211.794 89.8762 213.828C89.4196 215.818 88.629 217.704 87.5044 219.484C86.3766 221.222 84.8369 222.686 82.8852 223.878C80.9302 225.027 78.5268 225.71 75.6751 225.927ZM77.903 219.239C80.4522 219.044 82.6229 218.444 84.4149 217.438C86.207 216.432 87.5406 215.114 88.4158 213.483C89.2909 211.851 89.6511 210.02 89.4962 207.99C89.3282 205.786 88.668 203.968 87.5157 202.534C86.4033 201.055 84.8885 199.997 82.9712 199.361C81.0939 198.678 78.8806 198.434 76.3313 198.628C72.7451 198.902 70.0307 200.065 68.1881 202.118C66.3422 204.127 65.5379 206.687 65.7751 209.798C65.9332 211.872 66.5469 213.651 67.6161 215.134C68.682 216.574 70.0904 217.661 71.8414 218.397C73.6357 219.129 75.6562 219.41 77.903 219.239ZM88.2656 191.851L96.6911 191.209L99.1474 223.42L91.3052 224.018C91.3052 224.018 91.2091 223.613 91.0169 222.802C90.8645 221.944 90.6958 220.871 90.5105 219.581C90.3252 218.291 90.1848 217.02 90.0893 215.767L88.2656 191.851ZM124.111 215.976L121.065 216.208L130.825 188.606L140.028 187.904L126.994 221.297L119.022 221.905L101.4 190.85L110.668 190.143L124.111 215.976ZM164.745 212.877L161.699 213.109L171.459 185.507L180.662 184.806L167.628 218.198L159.656 218.806L142.034 187.751L151.302 187.045L164.745 212.877ZM182.668 184.653L191.612 183.971L207.904 213.823L200.744 215.673L182.668 184.653ZM222.074 181.648L203.223 228.522L194.474 229.189L202.647 210.704L213.065 182.335L222.074 181.648ZM242.305 198.293L251.055 197.626C251.34 199.081 252.112 200.37 253.37 201.491C254.669 202.565 256.317 203.374 258.314 203.917C260.308 204.417 262.515 204.574 264.934 204.39C267.138 204.222 268.935 203.846 270.324 203.262C271.714 202.678 272.721 201.927 273.347 201.01C273.972 200.093 274.239 199.03 274.146 197.82C274.058 196.654 273.558 195.801 272.648 195.262C271.734 194.68 270.333 194.265 268.446 194.018C266.555 193.727 264.081 193.481 261.023 193.28C258.62 193.116 256.337 192.812 254.174 192.368C252.007 191.881 250.065 191.204 248.348 190.335C246.673 189.463 245.306 188.351 244.247 186.997C243.228 185.597 242.642 183.904 242.491 181.916C242.303 179.453 242.829 177.24 244.07 175.277C245.355 173.31 247.34 171.703 250.026 170.455C252.712 169.207 256.064 168.43 260.083 168.124C266.132 167.662 270.876 168.604 274.314 170.95C277.792 173.249 279.659 176.648 279.916 181.148L271.49 181.791C271.123 179.255 269.903 177.501 267.829 176.529C265.799 175.554 263.294 175.18 260.312 175.407C257.547 175.618 255.288 176.203 253.536 177.163C251.827 178.119 251.049 179.59 251.2 181.578C251.259 182.356 251.528 183.031 252.006 183.603C252.481 184.131 253.254 184.572 254.324 184.925C255.394 185.278 256.829 185.582 258.63 185.835C260.431 186.089 262.665 186.31 265.33 186.498C267.819 186.656 270.081 186.961 272.114 187.415C274.188 187.822 275.974 188.446 277.472 189.288C279.011 190.083 280.223 191.164 281.109 192.531C281.996 193.897 282.518 195.617 282.676 197.691C282.871 200.241 282.371 202.517 281.176 204.52C280.022 206.477 278.101 208.079 275.415 209.327C272.772 210.572 269.269 211.36 264.905 211.693C261.794 211.93 259.025 211.816 256.599 211.349C254.17 210.839 252.049 210.088 250.235 209.096C248.421 208.104 246.922 206.98 245.74 205.723C244.558 204.466 243.678 203.186 243.1 201.883C242.566 200.576 242.301 199.38 242.305 198.293ZM305.808 208.379C302.61 208.622 299.641 208.153 296.9 206.972C294.199 205.744 291.975 203.936 290.228 201.548C288.522 199.114 287.541 196.234 287.288 192.907C287.027 189.493 287.58 186.474 288.944 183.85C290.308 181.225 292.256 179.121 294.786 177.537C297.356 175.907 300.326 174.964 303.696 174.707C307.412 174.423 310.451 174.952 312.813 176.293C315.215 177.587 317.032 179.47 318.264 181.94C319.495 184.41 320.231 187.222 320.471 190.376C320.616 192.278 320.462 194.245 320.009 196.279C319.552 198.269 318.762 200.155 317.637 201.935C316.509 203.673 314.97 205.138 313.018 206.329C311.063 207.478 308.659 208.161 305.808 208.379ZM308.036 201.69C310.585 201.495 312.756 200.895 314.548 199.889C316.34 198.884 317.673 197.565 318.548 195.934C319.424 194.303 319.784 192.471 319.629 190.441C319.461 188.237 318.801 186.419 317.648 184.986C316.536 183.506 315.021 182.448 313.104 181.812C311.227 181.129 309.013 180.885 306.464 181.08C302.878 181.353 300.163 182.516 298.321 184.569C296.475 186.578 295.671 189.139 295.908 192.25C296.066 194.324 296.68 196.102 297.749 197.585C298.815 199.025 300.223 200.113 301.974 200.848C303.768 201.581 305.789 201.861 308.036 201.69ZM318.398 174.303L326.824 173.66L329.28 205.872L321.438 206.47C321.438 206.47 321.342 206.064 321.15 205.253C320.997 204.395 320.828 203.322 320.643 202.032C320.458 200.743 320.317 199.471 320.222 198.218L318.398 174.303ZM354.244 198.427L351.198 198.659L360.957 171.057L370.161 170.355L357.127 203.748L349.155 204.356L331.533 173.301L340.801 172.594L354.244 198.427ZM404.628 189.37L412.794 188.747C412.617 190.977 411.838 193.014 410.457 194.857C409.12 196.698 407.215 198.212 404.741 199.4C402.268 200.588 399.195 201.322 395.522 201.603C391.417 201.916 387.738 201.544 384.485 200.488C381.229 199.39 378.619 197.655 376.657 195.284C374.694 192.913 373.578 189.956 373.308 186.413C373.037 182.87 373.671 179.779 375.208 177.141C376.742 174.46 378.992 172.333 381.958 170.76C384.966 169.183 388.545 168.236 392.693 167.92C396.927 167.597 400.5 167.998 403.41 169.124C406.321 170.249 408.55 172.122 410.097 174.742C411.684 177.315 412.529 180.706 412.632 184.913L381.912 187.256C382.253 188.881 382.971 190.326 384.067 191.589C385.207 192.85 386.67 193.803 388.458 194.449C390.288 195.092 392.414 195.321 394.833 195.136C397.512 194.932 399.703 194.309 401.405 193.266C403.147 192.177 404.222 190.878 404.628 189.37ZM392.793 174.366C389.682 174.603 387.207 175.487 385.368 177.018C383.526 178.506 382.4 180.265 381.99 182.296L403.896 180.625C403.515 178.481 402.348 176.854 400.395 175.742C398.481 174.584 395.947 174.126 392.793 174.366ZM417.553 166.742L425.978 166.099L428.435 198.311L420.009 198.953L417.553 166.742ZM438.886 172.09C436.467 172.274 434.407 172.91 432.708 173.995C431.006 175.038 429.666 176.27 428.688 177.692C427.71 179.113 427.052 180.467 426.716 181.753L426.379 178.194C426.383 177.672 426.498 176.902 426.725 175.886C426.948 174.826 427.318 173.689 427.834 172.476C428.346 171.22 429.058 170.015 429.97 168.859C430.878 167.659 432.018 166.66 433.392 165.86C434.765 165.06 436.402 164.587 438.303 164.442L438.886 172.09ZM443.911 186.374L451.688 185.781C452.275 187.214 453.34 188.35 454.881 189.188C456.463 189.98 458.463 190.284 460.883 190.1C462.525 189.974 463.788 189.726 464.672 189.354C465.557 188.983 466.15 188.503 466.453 187.915C466.753 187.283 466.874 186.601 466.818 185.866C466.749 184.959 466.416 184.289 465.818 183.856C465.216 183.381 464.321 183.036 463.131 182.823C461.942 182.609 460.43 182.442 458.595 182.321C456.757 182.157 454.979 181.923 453.261 181.62C451.543 181.316 450.01 180.868 448.661 180.275C447.308 179.64 446.202 178.811 445.342 177.791C444.522 176.723 444.051 175.39 443.929 173.791C443.81 172.236 444.072 170.825 444.715 169.559C445.4 168.29 446.381 167.194 447.658 166.271C448.978 165.345 450.529 164.596 452.311 164.026C454.136 163.452 456.107 163.084 458.224 162.923C461.421 162.679 464.115 162.952 466.305 163.741C468.491 164.487 470.167 165.663 471.332 167.269C472.538 168.828 473.223 170.688 473.388 172.849L465.934 173.417C465.467 171.845 464.688 170.753 463.598 170.14C462.505 169.485 460.879 169.239 458.718 169.404C456.601 169.566 455.027 170.012 453.996 170.742C452.966 171.473 452.493 172.4 452.579 173.523C452.648 174.43 453.026 175.119 453.714 175.588C454.441 176.01 455.465 176.323 456.784 176.527C458.147 176.727 459.835 176.924 461.849 177.119C463.56 177.336 465.189 177.603 466.734 177.919C468.322 178.233 469.748 178.689 471.01 179.288C472.27 179.844 473.288 180.657 474.065 181.728C474.882 182.752 475.354 184.107 475.483 185.792C475.641 187.866 475.17 189.662 474.068 191.18C473.011 192.695 471.409 193.925 469.265 194.871C467.118 195.774 464.51 196.342 461.442 196.576C458.72 196.783 456.344 196.682 454.313 196.272C452.323 195.815 450.645 195.183 449.28 194.374C447.911 193.522 446.82 192.606 446.006 191.625C445.232 190.598 444.68 189.618 444.348 188.688C444.016 187.757 443.87 186.986 443.911 186.374Z" fill="#23A323"/>
<path d="M31.5467 21.4681C31.7412 21.4532 32.0054 21.4983 32.1998 21.4835C32.4091 21.6631 32.5486 21.7828 32.4288 21.9223C32.1893 22.2013 31.4962 22.5149 30.6036 22.7786C30.808 22.8934 30.6685 22.7736 30.8129 22.9582C30.8678 22.8236 31.5011 22.5797 32.2091 22.4606C32.9171 22.3414 33.63 22.287 33.6399 22.4167C33.6449 22.4815 33.0116 22.7253 32.3085 22.9093C31.4808 23.168 31.1018 23.3273 30.8475 23.4119C30.3389 23.581 30.2192 23.7205 30.2889 23.7804C30.4833 23.7656 31.6802 23.218 32.7622 22.8747C33.8442 22.5315 34.5522 22.4123 33.8689 22.8555C33.7393 22.8654 33.0412 23.1142 32.3382 23.2982C31.6351 23.4822 31.0068 23.7908 31.0068 23.7908C31.0068 23.7908 31.7148 23.6717 32.2931 23.5624C32.8715 23.4531 33.4499 23.3438 33.385 23.3487C33.2554 23.3586 33.2604 23.4234 33.39 23.4135C33.4548 23.4086 33.5295 23.5333 33.5344 23.5981C33.5394 23.6629 33.3548 23.8074 33.0308 23.8321C32.258 23.9562 31.4154 24.0204 29.5254 24.8816C29.4606 24.8866 29.4007 24.9563 29.3359 24.9613C29.4057 25.0211 29.4853 25.2106 29.4903 25.2754C30.4976 24.8075 31.3803 24.4142 32.0185 24.2352C32.5271 24.066 32.911 23.9716 32.916 24.0364C32.9209 24.1012 33.1802 24.0814 33.3697 24.0018C33.619 23.8524 33.7486 23.8425 33.8233 23.9672C33.898 24.0919 33.898 24.0919 33.8882 23.9623C33.8832 23.8974 33.8733 23.7678 33.9381 23.7629C34.0029 23.7579 34.0079 23.8227 34.0128 23.8876L34.1474 23.9425C34.0826 23.9474 33.9678 24.1517 33.9079 24.2215C33.0154 24.4851 32.4518 24.7889 32.4568 24.8537C32.4617 24.9185 32.5914 24.9086 32.6512 24.8388C32.7111 24.7691 32.9055 24.7543 32.9753 24.8141C32.9105 24.8191 32.8506 24.8888 32.7858 24.8938C32.5963 24.9734 32.4019 24.9882 32.2124 25.0679C32.0229 25.1475 31.7087 25.3018 31.5192 25.3815C31.3896 25.3914 31.1353 25.476 31.0106 25.5506L31.0007 25.421C30.9161 25.1667 30.9161 25.1667 31.3001 25.0723C31.5593 25.0525 31.8136 24.9679 31.8784 24.963C32.008 24.9531 32.0031 24.8883 31.9333 24.8284C31.8636 24.7685 31.35 24.8729 30.7167 25.1167C30.5871 25.1266 30.4674 25.2661 30.3378 25.276C29.9588 25.4353 29.7094 25.5847 29.7742 25.5797C29.839 25.5748 29.9137 25.6995 29.8588 25.834C29.8039 25.9686 29.8687 25.9637 29.9236 25.8291C30.218 25.4155 30.4075 25.3359 30.6816 25.5105C30.7513 25.5704 30.8211 25.6303 30.8859 25.6253L30.7662 25.7648L30.7711 25.8297L30.5767 25.8445C30.5767 25.8445 30.5168 25.9142 30.452 25.9192C30.3872 25.9241 30.2674 26.0636 30.2026 26.0686C30.078 26.1433 29.8835 26.1581 29.7588 26.2328C29.7638 26.2976 29.7089 26.4322 29.7138 26.497C29.4842 26.9056 29.5391 26.7711 29.3842 27.3044C29.1497 27.6482 28.9201 28.0569 28.7504 28.3957C28.0962 30.0753 27.9363 30.5439 27.5969 31.2216C27.3723 31.6951 26.8483 32.5173 26.1941 34.1969C25.0159 36.6987 23.6976 39.9283 22.4288 43.806C21.11 47.8831 20.3151 51.1379 19.3358 54.5372C19.2358 54.936 19.071 55.3397 18.9661 55.6736C17.3715 62.1185 16.0603 69.7152 15.5967 77.3125C15.3918 78.0452 15.3116 78.7032 15.2572 77.9903C15.0886 76.6341 15.0211 73.1843 15.4227 69.0468C15.2178 69.7795 15.3826 69.3758 15.1629 69.914C15.1876 70.2381 14.981 73.5133 14.8991 76.7138C14.8172 79.9143 14.8551 82.9753 14.7903 82.9802C14.7255 82.9851 14.558 79.934 14.5701 76.6737C14.5625 73.1541 14.8635 70.2628 14.9289 69.4104C15.1448 67.1123 15.2003 66.1302 15.0954 66.4642C14.8652 67.7203 14.4131 72.9047 14.5091 78.4384C14.5821 81.1056 14.6705 83.1197 14.7694 84.4159C14.8386 85.3233 14.8182 85.9116 14.5305 83.8475C14.4514 82.8105 14.2389 80.0236 14.2812 76.3046C14.2884 72.9794 14.5697 69.8289 14.5746 69.8937C14.5147 69.9635 14.2137 72.8547 14.1121 75.796C14.0055 78.6724 14.1581 81.5291 14.1383 81.2698C14.0889 80.6217 14.0741 80.4273 14.0538 81.0155C14.0834 81.4044 13.9834 81.8031 13.9186 81.8081C13.8538 81.813 13.7747 80.776 13.7759 79.081C13.7622 77.1916 13.8484 74.9034 13.9946 72.5455C14.1456 70.2524 14.4423 66.4488 15.1932 61.7631C15.8189 57.9997 16.5038 55.014 16.9087 53.4837C17.3085 51.8887 17.6332 51.0165 17.693 50.9468C17.8078 50.7424 17.8078 50.7424 17.7381 50.6826C17.6733 50.6875 17.7584 50.0943 17.9534 49.232C18.1583 48.4993 18.4928 47.7567 18.5527 47.687C18.6773 47.6123 18.6675 47.4826 18.5977 47.4228C18.4631 47.3678 18.4983 46.974 18.9679 45.4389C19.3826 44.0383 19.5573 43.7642 19.5221 44.158C19.4321 44.6864 19.4969 44.6815 19.7616 43.879C19.9165 43.3457 20.1214 42.613 20.1016 42.3537C20.1417 42.0247 20.4466 40.8933 21.0557 39.4779C21.5451 38.202 21.9395 37.3896 21.7599 37.5989C21.705 37.7335 22.8238 34.4539 24.9753 30.1829C25.1401 29.7792 25.4246 29.236 25.6493 28.7626C25.5845 28.7675 25.5944 28.8972 25.5296 28.9021L25.4647 28.907C25.0654 29.6546 24.7111 30.1379 24.7111 30.1379C24.6463 30.1428 24.5365 30.412 24.3766 30.8805C24.2717 31.2144 23.5428 32.7694 22.8837 34.3841C22.2246 35.9989 21.5753 37.7433 21.3458 38.152C21.0063 38.8298 19.8127 41.9846 19.9973 41.8402C20.2417 41.626 19.9671 42.2988 19.6128 42.7822C19.3783 43.126 19.3283 43.3254 19.3431 43.5198C19.353 43.6494 19.203 44.2476 19.0531 44.8457L18.7383 45.8475C18.7784 45.5185 18.8833 45.1846 18.9234 44.8556C19.1184 43.9932 19.1635 43.7291 18.7438 45.0648C18.4791 45.8673 18.389 46.3957 18.4588 46.4555C18.5285 46.5154 18.5384 46.645 18.4187 46.7845C18.2989 46.924 18.0644 47.2679 17.9595 47.6018C17.8496 47.8709 18.1347 46.4802 18.879 44.2723C19.5634 42.134 20.2027 40.26 20.1928 40.1304C20.183 40.0008 20.0731 40.2699 19.8534 40.8081C19.4189 41.9495 19.2393 42.1587 19.5244 40.768L19.5194 40.7032C19.7392 40.165 19.9539 39.5619 20.1736 39.0236C20.1687 38.9588 20.2286 38.8891 20.2884 38.8193C20.4032 38.615 20.5131 38.3459 20.6279 38.1415C20.9075 37.5335 21.1222 36.9304 21.3321 36.2626L21.2771 36.3971L21.337 36.3274L21.3919 36.1928C21.6166 35.7194 21.7764 35.2508 22.0011 34.7774C21.8912 35.0465 21.9961 34.7126 22.1658 34.3737C22.2806 34.1694 22.3405 34.0996 22.4553 33.8953C22.5652 33.6262 22.6701 33.2922 22.7799 33.0231C22.8947 32.8188 22.9046 32.9484 22.7398 33.3521C22.0159 34.9718 22.8294 33.6712 23.0491 33.1329C23.3836 32.3904 23.4336 32.191 23.2441 32.2706C23.1792 32.2756 23.1144 32.2805 23.1095 32.2157C23.2792 31.8768 23.5088 31.4682 23.6785 31.1293L24.1877 30.1126C24.1828 30.0478 24.2426 29.9781 24.2377 29.9133L24.2976 29.8435C24.3525 29.7089 24.4124 29.6392 24.4722 29.5694L24.4074 29.5744C24.3426 29.5793 24.3475 29.6441 24.2877 29.7139C24.2229 29.7188 24.2179 29.654 24.2778 29.5843C24.4623 29.4398 24.4376 29.1157 24.1932 29.3299C24.0735 29.4695 24.0185 29.604 24.0932 29.7287C24.0982 29.7935 24.1679 29.8534 24.1679 29.8534C24.1081 29.9231 23.9834 29.9978 23.9235 30.0676C23.8637 30.1373 23.734 30.1472 23.6742 30.217L23.6093 30.2219C23.36 30.3713 23.4248 30.3664 23.3051 30.5059L23.2452 30.5756L23.1853 30.6454C23.1853 30.6454 23.0606 30.7201 22.9958 30.725C23.5445 30.2269 23.9686 29.8034 23.9636 29.7386C23.9587 29.6738 23.4001 30.0423 22.9162 30.5355C22.7366 30.7448 22.6366 31.1435 22.5965 31.4725C22.4811 32.5244 21.1531 27.932 21.263 27.6629C21.3229 27.5932 21.3877 27.5882 21.4376 27.3888L21.6173 27.1796C22.0517 26.0382 22.0265 26.5617 22.6801 25.7296C23.7824 24.7981 25.7131 22.7604 27.1889 22.4523C28.5105 21.83 29.9863 21.5219 31.5467 21.4681ZM34.1474 23.9425C34.8356 23.5641 34.9746 24.5313 34.1474 23.9425V23.9425ZM31.0222 23.1378C31.087 23.1328 31.0919 23.1977 30.9672 23.2723C30.8426 23.347 30.7129 23.3569 30.7728 23.2872C30.7728 23.2872 30.8327 23.2174 30.8975 23.2125C30.9623 23.2075 31.0222 23.1378 31.0222 23.1378ZM33.0061 23.508C33.0709 23.5031 33.0808 23.6327 33.0159 23.6376L32.9511 23.6426C32.8863 23.6475 32.8863 23.6475 32.8814 23.5827L32.9412 23.513L33.0061 23.508ZM31.7636 25.1673C31.8284 25.1623 31.8334 25.2272 31.7038 25.237C31.5791 25.3117 31.4494 25.3216 31.5093 25.2519L31.634 25.1772L31.7636 25.1673ZM26.304 26.2355C26.304 26.2355 26.4337 26.2256 26.4386 26.2904C26.4435 26.3552 26.3189 26.4299 26.3238 26.4947L26.2541 26.4349C26.2491 26.3701 26.2392 26.2404 26.304 26.2355ZM26.9571 26.2509L26.7923 26.6546C26.7973 26.7194 26.6726 26.7941 26.6775 26.8589C26.6078 26.799 26.6078 26.799 26.6177 26.9287L26.6226 26.9935C26.6275 27.0583 26.5029 27.133 26.5078 27.1978L26.3831 27.2725C26.3183 27.2774 26.2584 27.3472 26.2584 27.3472C26.3683 27.078 26.6127 26.8638 26.7226 26.5947C26.7824 26.525 26.7726 26.3953 26.8324 26.3256L26.9571 26.2509ZM26.0195 26.7787C26.0195 26.7787 25.9596 26.8485 25.8948 26.8534C25.7702 26.9281 25.6504 27.0676 25.6603 27.1972C25.6702 27.3268 25.4258 27.541 25.1116 27.6954C24.8622 27.8448 24.6826 28.054 24.7474 28.0491C24.8122 28.0442 24.1389 28.617 23.2859 29.3991C22.9217 29.7528 22.0786 30.6646 22.6322 30.2312C23.0563 29.8078 23.4303 29.5837 23.4352 29.6485C23.4402 29.7133 23.505 29.7084 23.5599 29.5738C23.6099 29.3744 24.7573 28.1787 24.9518 28.1639C25.0166 28.159 25.1412 28.0843 25.2659 28.0096L25.3258 27.9398C25.3857 27.87 25.3758 27.7404 25.4356 27.6707C25.5554 27.5312 25.6702 27.3268 25.8449 27.0528C25.6751 27.3917 25.5653 27.6608 25.3906 27.9349C25.5752 27.7904 25.69 27.5861 25.69 27.5861C25.6202 27.5262 25.6751 27.3917 25.8097 27.4466C25.8646 27.312 26.0492 27.1676 26.1041 27.033C26.0393 27.0379 26.0343 26.9731 26.0294 26.9083L26.0195 26.7787ZM26.3331 27.4719L26.2733 27.5416C26.2084 27.5466 26.2134 27.6114 26.1486 27.6163L25.8042 28.2293C25.869 28.2243 25.9338 28.2194 25.9388 28.2842C26.0486 28.0151 26.2233 27.741 26.3331 27.4719ZM25.3055 28.5281C25.2407 28.533 25.116 28.6077 25.0561 28.6774L24.9913 28.6824L24.9314 28.7521C24.8765 28.8867 24.7617 29.091 24.7068 29.2256C24.7716 29.2206 24.8913 29.0811 25.016 29.0064C25.0709 28.8719 25.2505 28.6626 25.3055 28.5281ZM24.7271 28.6373C24.7919 28.6324 24.732 28.7022 24.6074 28.7769C24.4827 28.8515 24.4827 28.8515 24.4777 28.7867L24.6024 28.712L24.6623 28.6423L24.7271 28.6373ZM24.8067 28.8268C24.687 28.9663 24.5722 29.1707 24.5771 29.2355L24.642 29.2305C24.7568 29.0262 24.7518 28.9614 24.8067 28.8268ZM24.9061 29.2756C24.8463 29.3453 24.7216 29.42 24.6617 29.4898C24.7265 29.4848 24.5969 29.4947 24.5321 29.4997L24.537 29.5645C23.8581 30.92 23.5335 31.7922 23.5335 31.7922C23.5335 31.7922 24.1674 30.7009 24.9061 29.2756ZM22.0807 34.9669C22.0807 34.9669 21.6814 35.7144 21.242 36.7909C20.7476 38.002 20.4378 39.0687 20.4477 39.1983C20.4527 39.2631 20.5076 39.1285 20.6174 38.8594C20.7273 38.5903 20.9519 38.1168 21.1716 37.5786C21.1667 37.5138 21.2266 37.444 21.2216 37.3792C21.6512 36.173 22.0906 35.0965 22.0807 34.9669ZM22.3548 35.1416C22.3548 35.1416 22.1801 35.4156 22.0203 35.8841C21.7456 36.557 21.6956 36.7563 21.8654 36.4175C21.9252 36.3477 21.9752 36.1483 22.0351 36.0786C22.095 36.0088 22.0851 35.8792 22.145 35.8094C22.1949 35.6101 22.3097 35.4057 22.3647 35.2712L22.3548 35.1416ZM19.2541 42.3532C19.2541 42.3532 19.1542 42.7519 18.9394 43.355L18.7746 43.7587C18.6697 44.0927 18.5598 44.3618 18.5099 44.5612C18.2951 45.1642 18.2951 45.1642 18.3901 44.7007C18.4802 44.1723 18.5802 43.7735 18.6851 43.4396C18.79 43.1057 18.9696 42.8964 19.1393 42.5575C19.1992 42.4878 19.2541 42.3532 19.2541 42.3532ZM19.197 45.8777C19.1321 45.8827 19.0124 46.0222 18.9624 46.2216C18.9124 46.4209 18.8674 46.6851 18.9322 46.6802C18.997 46.6752 19.1168 46.5357 19.1667 46.3364C19.2167 46.137 19.2618 45.8728 19.197 45.8777ZM18.3022 49.5313C18.2374 49.5363 17.9775 50.4036 17.7776 51.2011C17.6826 51.6646 17.5227 52.1331 17.5277 52.198C17.5326 52.2628 17.7073 51.9887 17.8023 51.5251C17.8572 51.3906 17.9072 51.1912 17.9572 50.9918C18.1572 50.1943 18.3022 49.5313 18.3022 49.5313ZM16.6368 49.9191C16.6418 49.9839 16.6467 50.0487 16.6418 49.9839C16.7016 49.9141 16.7214 50.1734 16.7511 50.5623C16.7307 51.1505 16.7357 51.2153 16.5863 50.966C16.5017 50.7117 16.3869 50.916 16.132 51.8481C15.7772 53.1789 16.0513 53.3536 16.366 52.3517C16.416 52.1523 16.3759 52.4813 16.2358 53.2091C16.1858 53.4085 16.0809 53.7424 16.0359 54.0066C15.7409 55.2677 15.4361 56.3992 15.3811 56.5337C15.1466 56.8775 14.6418 58.8065 14.6011 59.983C14.5907 60.7009 14.6857 60.2373 14.9659 58.7818C15.391 56.6633 15.3509 56.9923 15.2257 57.9145C14.945 60.2175 15.3103 58.1688 15.9804 54.9887C16.1205 54.2609 16.2704 53.6628 16.3704 53.264C16.6203 52.2671 16.7401 52.1276 16.7499 52.2573C16.7549 52.3221 16.7148 52.6511 16.5747 53.3788C16.3297 54.4405 16.1446 55.4325 15.8996 56.4942C15.7195 57.5509 15.3794 59.0762 15.1141 60.7262C14.2133 66.0099 13.8963 70.4018 13.7545 73.672L13.6897 73.677L13.6947 73.7418C13.6282 76.2892 13.5919 78.378 13.5919 78.378C13.5919 78.378 13.5265 79.2304 13.6105 80.3322C13.7192 81.7581 13.7687 82.4062 13.6588 82.6753C13.6138 82.9395 13.5588 83.0741 13.6237 83.0692C13.6885 83.0642 13.773 83.3185 13.7928 83.5778C13.8126 83.837 13.8175 83.9018 13.7428 83.7772C13.7577 83.9716 13.6379 84.1111 13.6527 84.3055C13.6181 83.8518 13.5786 83.3334 13.4693 82.755C13.1184 78.1533 13.1701 75.4115 13.1152 75.546C13.0602 75.6806 13.0251 76.0744 13.0498 76.3985C13.0745 76.7225 13.0542 77.3108 13.019 77.7046C12.9992 77.4454 13.0492 77.246 13.0295 76.9867C13.0152 75.9448 13.0009 74.9029 13.0515 73.856C13.0921 72.6795 13.1976 71.4981 13.2383 70.3216C13.3037 69.4691 13.4338 68.6117 13.4992 67.7593L13.5591 67.6896C13.8035 67.4753 13.7486 67.6099 13.5678 69.5142C13.4624 70.6956 13.302 72.0116 13.2718 72.4702C13.2514 73.0585 13.2564 73.1233 13.3613 72.7894C13.4063 72.5252 13.6074 70.0327 13.9485 66.8124C14.0188 66.0248 14.099 65.3668 14.1842 64.7736C14.4347 62.9292 14.6 61.678 14.555 61.9422C14.4599 62.4058 14.4599 62.4058 14.4204 61.8873C14.3908 61.4984 14.3259 61.5033 14.3106 62.1564C14.2095 64.2501 14.1293 64.9081 13.7695 66.1742C13.6646 66.5081 13.6146 66.7075 13.5646 66.9069L13.5102 66.1939L13.5152 66.2587C13.5102 66.1939 13.5652 66.0594 13.5602 65.9946C13.5503 65.8649 13.5954 65.6007 13.6305 65.2069C13.6206 65.0773 13.6657 64.8131 13.7107 64.5489C13.7409 64.0903 13.836 63.6267 13.8711 63.2329C14.0766 61.6527 14.4067 59.9978 14.6819 58.4775C14.917 57.2862 15.162 56.2245 15.3971 55.0332L15.8321 53.0443C15.9272 52.5808 16.1469 52.0425 16.2419 51.5789C16.3968 51.0456 16.4819 50.4524 16.6368 49.9191ZM13.6527 84.3055C13.4215 87.2567 14.2431 88.6282 13.6527 84.3055V84.3055ZM17.23 50.0042L17.235 50.069C17.2399 50.1339 17.185 50.2684 17.1949 50.398C17.1998 50.4629 17.0801 50.6024 17.085 50.6672C17.0899 50.732 17.0301 50.8017 17.035 50.8666C16.9252 51.1357 16.9202 51.0709 17.0153 50.6073C17.0103 50.5425 17.0702 50.4727 17.0652 50.4079C17.1103 50.1437 17.23 50.0042 17.23 50.0042ZM18.4713 50.04C18.4713 50.04 18.3016 50.3788 18.1566 51.0418C17.9017 51.9739 17.9215 52.2331 18.0215 51.8344C18.0764 51.6998 18.1264 51.5004 18.1813 51.3658C18.2362 51.2313 18.2263 51.1017 18.2813 50.9671C18.3263 50.7029 18.4312 50.369 18.4812 50.1696L18.4713 50.04ZM17.5271 53.0455C16.7125 56.0411 15.7425 60.4175 15.2409 64.9538C15.9556 62.3569 16.5466 58.1397 17.5271 53.0455ZM14.9653 59.6293C14.9653 59.6293 14.8554 59.8984 14.8203 60.2922C14.7351 60.8854 14.6852 61.0848 14.7302 60.8206C14.7851 60.6861 14.8351 60.4867 14.8851 60.2873C14.8703 60.0929 14.9851 59.8885 14.9752 59.7589L14.9653 59.6293ZM15.0486 69.2709C15.0486 69.2709 14.9437 69.6048 14.9184 70.1283C14.908 70.8461 14.9228 71.0406 14.958 70.6467C14.9432 70.4523 15.053 70.1832 15.0382 69.9887C15.0234 69.7943 15.0635 69.4653 15.0536 69.3357L15.0486 69.2709ZM13.2982 70.2518C13.2982 70.2518 13.263 70.6456 13.2377 71.1691C13.2322 71.9517 13.1773 72.0863 13.2124 71.6925C13.1976 71.4981 13.3025 71.1641 13.2877 70.9697C13.2729 70.7752 13.3179 70.5111 13.308 70.3814L13.2982 70.2518ZM13.9857 78.4132C13.9857 78.4132 13.9357 78.6125 13.9555 78.8718C13.9604 78.9366 13.8956 78.9415 13.9005 79.0063C13.9401 79.5248 13.945 79.5897 13.9851 79.2607C13.9752 79.131 14.0252 78.9317 14.0153 78.802L13.9857 78.4132ZM33.6742 52.7268C34.1279 52.6922 34.731 52.907 35.3088 53.6452C35.8168 54.3235 35.7317 54.9167 35.5619 55.2556C35.8613 54.9068 36.41 54.4086 37.1334 53.6364C38.9393 51.6734 41.7037 55.4391 41.6427 57.2039C41.5669 58.7742 41.3422 59.2476 41.212 60.105C40.5468 63.35 44.1797 57.9882 46.0955 55.7561C48.0064 53.4592 49.2559 56.167 49.3503 56.5509C49.6634 58.0916 48.3759 60.0151 49.2421 61.9699C50.0286 63.7352 56.9981 55.9677 59.3177 53.9004C59.8763 53.5319 60.1806 53.2479 60.425 53.0337C60.2454 53.243 60.0108 53.5868 59.7862 54.0602C59.2622 54.8825 60.1948 54.2898 60.6787 53.7966C60.7435 53.7917 59.3468 55.1368 59.3566 55.2664C58.4734 56.5071 57.0964 58.1115 55.999 59.1078C56.6971 58.859 58.1192 56.9905 59.0123 55.8794L60.0899 54.6238C60.0899 54.6238 59.8603 55.0324 59.4412 55.5207C58.9623 56.0787 58.7178 56.2929 58.8425 56.2182C58.9672 56.1435 59.3363 55.8546 59.6955 55.4361C59.9899 55.0225 60.2294 54.7435 60.2344 54.8083C60.1844 55.0077 59.1018 56.1985 58.9123 56.2781C58.7876 56.3528 58.7925 56.4176 58.7975 56.4824C58.8024 56.5472 58.8074 56.6121 58.6179 56.6917C58.4932 56.7664 58.4333 56.8361 58.4981 56.8312C58.4432 56.9658 58.3932 57.1651 58.2735 57.3046C58.3383 57.2997 58.3932 57.1651 58.458 57.1602C59.1814 56.388 62.6094 51.7589 61.1022 54.2206L60.8627 54.4997C60.8078 54.6342 60.6232 54.7787 60.5683 54.9132C60.5084 54.983 60.3838 55.0577 60.3239 55.1274C60.2041 55.267 60.2239 55.5262 60.2289 55.591C57.8989 58.3762 55.9979 60.8028 52.7908 63.1986C50.2021 65.1561 46.3293 63.9521 46.286 61.6738C45.8038 59.6245 45.3045 60.7708 41.7771 64.9511C40.2502 67.1536 38.1026 65.492 37.6858 62.5903C37.4474 61.1744 38.0368 59.4997 38.4268 57.775C38.7883 53.9665 31.9367 64.1369 31.5868 65.5326C31.2369 66.9282 30.7876 67.8751 28.5956 65.6303C26.4783 63.5101 31.6886 54.8991 31.6139 54.7744C32.0731 53.9571 32.7668 52.796 33.6742 52.7268ZM60.425 53.0337C60.9589 52.3411 61.0984 52.4608 60.425 53.0337V53.0337ZM60.9286 52.7997C60.9286 52.7997 60.704 53.2732 60.3547 53.8213C60.0004 54.3047 59.9954 54.2398 60.1701 53.9658C60.225 53.8312 60.3448 53.6917 60.3997 53.5571C60.275 53.6318 60.225 53.8312 60.1004 53.9059C59.801 54.2547 59.9757 53.9806 60.2151 53.7016C60.6892 53.0787 60.9286 52.7997 60.9286 52.7997ZM59.2726 54.1646L58.9733 54.5134C58.4943 55.0714 58.3795 55.2757 58.5641 55.1313L58.6239 55.0615C58.7986 54.7874 59.0381 54.5084 59.2726 54.1646ZM37.6601 56.269C37.4656 56.2838 36.4583 56.7518 36.054 57.4345C35.0115 58.2962 32.876 61.0666 32.9952 61.7746C32.9853 61.645 36.2089 56.9011 37.3508 56.4881C37.7298 56.3289 37.7249 56.264 37.6601 56.269ZM59.2474 54.688C59.2474 54.688 59.1227 54.7627 59.0628 54.8325C59.0029 54.9022 58.9529 55.1016 58.9529 55.1016C58.9529 55.1016 58.6036 55.6498 57.8802 56.422C51.9142 61.9617 51.5494 63.1629 58.2543 56.1979C58.4339 55.9886 58.6086 55.7146 58.7283 55.5751C59.1474 55.0868 59.322 54.8127 59.3171 54.7479L59.2474 54.688ZM58.4493 55.3356C58.3295 55.4751 58.0252 55.759 57.6611 56.1128C57.1173 56.6757 56.5087 57.2437 56.2693 57.5227L56.339 57.5825C56.5236 57.4381 56.9476 57.0146 57.8506 56.0331C57.9105 55.9634 58.2147 55.6794 58.4493 55.3356ZM44.7465 60.2918C44.7465 60.2918 44.557 60.3715 43.7737 61.2134C42.6862 62.3394 41.9079 63.2462 41.9079 63.2462L42.7109 62.6635C42.7109 62.6635 44.5317 60.8949 44.7465 60.2918ZM62.2825 50.5453C62.7362 50.5107 63.3393 50.7254 63.9171 51.4636C64.4252 52.142 64.34 52.7352 64.1703 53.074C64.4696 52.7253 65.0183 52.2271 65.7417 51.4549C67.5477 49.4919 70.312 53.2576 70.251 55.0223C70.1752 56.5926 69.9506 57.0661 69.8204 57.9235C69.1552 61.1684 72.788 55.8067 74.7038 53.5746C76.6147 51.2776 77.8642 53.9855 77.9587 54.3694C78.2717 55.9101 76.9843 57.8335 77.8504 59.7883C78.6369 61.5536 85.6065 53.7862 87.926 51.7189C88.4846 51.3503 88.7889 51.0664 89.0333 50.8522C88.8537 51.0614 88.6192 51.4052 88.3945 51.8787C87.8705 52.7009 88.8032 52.1083 89.2871 51.6151C89.3519 51.6101 87.9551 52.9552 87.965 53.0849C87.0818 54.3256 85.7048 55.9299 84.6074 56.9263C85.3055 56.6775 86.7275 54.8089 87.6206 53.6978L88.6983 52.4422C88.6983 52.4422 88.4687 52.8509 88.0496 53.3392C87.5706 53.8972 87.3262 54.1114 87.4509 54.0367C87.5756 53.962 87.9447 53.6731 88.3039 53.2546C88.5983 52.841 88.8378 52.562 88.8427 52.6268C88.7927 52.8262 87.7101 54.0169 87.5206 54.0966C87.396 54.1713 87.4009 54.2361 87.4058 54.3009C87.4108 54.3657 87.4157 54.4305 87.2262 54.5102C87.1015 54.5848 87.0417 54.6546 87.1065 54.6497C87.0516 54.7842 87.0016 54.9836 86.8818 55.1231C86.9466 55.1182 87.0016 54.9836 87.0664 54.9787C87.7898 54.2064 91.2177 49.5774 89.7105 52.0391L89.4711 52.3181C89.4161 52.4527 89.2316 52.5971 89.1766 52.7317C89.1168 52.8015 88.9921 52.8762 88.9322 52.9459C88.8125 53.0854 88.8323 53.3447 88.8372 53.4095C86.5072 56.1947 84.6062 58.6213 81.3991 61.017C78.8105 62.9745 74.9377 61.7705 74.8943 59.4922C74.4121 57.443 73.9128 58.5892 70.3855 62.7695C68.8585 64.972 66.711 63.3105 66.2941 60.4088C66.0558 58.9928 66.6452 57.3182 67.0351 55.5935C67.3966 51.785 60.5451 61.9554 60.1952 63.351C59.8453 64.7467 59.396 65.6936 57.204 63.4488C55.0866 61.3286 60.297 52.7175 60.2223 52.5928C60.6815 51.7756 61.3752 50.6144 62.2825 50.5453ZM89.0333 50.8522C89.5672 50.1596 89.7067 50.2793 89.0333 50.8522V50.8522ZM89.537 50.6182C89.537 50.6182 89.3123 51.0916 88.963 51.6398C88.6087 52.1231 88.6038 52.0583 88.7785 51.7842C88.8334 51.6497 88.9531 51.5102 89.0081 51.3756C88.8834 51.4503 88.8334 51.6497 88.7087 51.7244C88.4094 52.0731 88.584 51.7991 88.8235 51.52C89.2975 50.8972 89.537 50.6182 89.537 50.6182ZM87.881 51.9831L87.5816 52.3318C87.1027 52.8899 86.9879 53.0942 87.1724 52.9497L87.2323 52.88C87.407 52.6059 87.6464 52.3269 87.881 51.9831ZM66.2684 54.0874C66.074 54.1023 65.0666 54.5702 64.6624 55.2529C63.6199 56.1147 61.4844 58.8851 61.6035 59.5931C61.5936 59.4635 64.8173 54.7196 65.9592 54.3066C66.3382 54.1473 66.3332 54.0825 66.2684 54.0874ZM87.8557 52.5065C87.8557 52.5065 87.731 52.5812 87.6712 52.6509C87.6113 52.7207 87.5613 52.9201 87.5613 52.9201C87.5613 52.9201 87.212 53.4682 86.4886 54.2405C80.5225 59.7801 80.1578 60.9813 86.8626 54.0164C87.0422 53.8071 87.2169 53.533 87.3366 53.3935C87.7557 52.9052 87.9304 52.6312 87.9255 52.5664L87.8557 52.5065ZM87.0576 53.154C86.9379 53.2936 86.6336 53.5775 86.2694 53.9312C85.7257 54.4942 85.1171 55.0621 84.8776 55.3411L84.9474 55.401C85.1319 55.2566 85.5559 54.8331 86.4589 53.8516C86.5188 53.7818 86.8231 53.4979 87.0576 53.154ZM73.3548 58.1103C73.3548 58.1103 73.1653 58.1899 72.3821 59.0319C71.2945 60.1579 70.5162 61.0647 70.5162 61.0647L71.3192 60.4819C71.3192 60.4819 73.14 58.7134 73.3548 58.1103ZM94.488 44.2433L94.9417 44.2087C97.7533 44.3202 99.2868 47.3324 99.1313 48.7132C98.821 50.6273 97.4588 52.4261 94.9399 54.4435C92.6055 56.3164 89.8241 55.7462 89.8241 55.7462C88.8261 57.1913 88.7739 60.7806 91.3762 60.7126C94.1033 60.5698 99.1213 56.2758 101.92 53.6504C101.196 54.4227 100.288 55.3394 99.146 56.5999C98.5424 57.2326 98.4825 57.3024 102.264 53.885C105.137 51.3843 108.22 48.2157 103.865 52.6547C99.4596 57.293 114.56 42.4519 105.565 51.8731C111.97 46.1044 107.181 50.8373 106.662 51.7243C104.786 53.6274 104.961 53.3533 103.923 54.2799C103.739 54.4244 101.968 55.9936 102.656 55.6151C103.155 55.3163 103.644 54.8879 104.672 53.8317C105.23 53.4632 105.779 52.965 105.844 52.9601C102.177 57.0207 96.7644 62.127 91.4745 62.8563C89.7295 63.0545 87.6215 61.9115 86.7153 60.2857C84.9028 57.0341 85.6202 50.1998 90.7679 45.8959C92.1147 44.7502 93.3862 44.3273 94.488 44.2433ZM101.92 53.6504C104.229 51.4535 105.063 50.4121 101.92 53.6504V53.6504ZM95.3635 47.1752C93.8728 47.2889 90.0856 52.3364 90.9529 52.5963C92.0195 52.906 96.8085 48.1732 95.5579 47.1604L95.3635 47.1752ZM87.8721 52.3749C87.8721 52.3749 86.4841 55.5446 86.7818 57.7383C86.9899 59.6129 88.106 60.5708 88.5245 60.93C88.1011 60.506 87.0948 59.2789 86.9762 57.7235C86.9125 56.0334 87.8721 52.3749 87.8721 52.3749ZM98.1035 57.4616C97.0808 58.5827 93.1657 61.0976 93.0213 60.9131C92.896 61.8353 98.5023 57.5616 98.1035 57.4616ZM132.979 7.14923C133.757 7.08992 135.342 7.36018 136.009 9.26499C138.891 16.2812 122.135 47.0242 118.799 48.5824C118.184 50.7805 117.671 57.7296 119.116 58.7276C120.625 60.5682 124.491 57.4051 127.055 54.2761C128.562 52.6618 126.138 54.2156 128.557 52.597C129.001 52.4328 129.111 51.3162 129.75 51.1371C130.418 50.4995 130.473 50.3649 130.403 50.305C130.244 49.926 132.902 48.0284 133.107 47.2957C136.928 43.5493 127.648 56.0562 124.969 58.5421C128.969 55.4339 132.319 48.9204 132.517 49.8179C132.742 49.3444 132.972 48.9358 133.096 48.8611L133.291 48.8463L133.301 48.9759C133.246 49.1105 133.066 49.3197 133.011 49.4543C133.131 49.3148 133.256 49.2401 133.375 49.1006C134.318 47.7901 134.299 47.5308 134.034 48.3333C133.794 48.6123 133.625 48.9512 133.445 49.1604C133.096 49.7086 132.746 50.2567 132.337 50.8746C132.162 51.1487 131.928 51.4925 131.808 51.632C128.999 55.8228 126.224 59.6197 121.762 60.9379C118.64 61.893 116.757 60.2765 115.907 56.8211C115.618 55.6045 115.455 54.3132 115.481 52.9423C113.659 55.5584 111.494 57.9399 109.659 58.6665C107.191 59.637 105.257 59.0674 104.416 55.7417C103.944 53.822 105.393 48.8876 109.483 46.0985C111.343 44.8485 114.085 44.9001 116.263 46.103C116.443 45.0463 116.633 44.1191 116.708 43.3963C118.704 33.6614 120.718 25.8807 125.246 16.8654C127.337 12.6642 129.639 7.7951 132.85 7.15911L132.979 7.14923ZM132.185 9.55659C131.218 9.69554 126.656 18.2572 125.716 22.175C124.068 26.212 130.1 11.2801 132.32 9.61152C132.32 9.61152 132.25 9.55164 132.185 9.55659ZM133.71 9.8966L133.646 9.90154C131.198 10.2838 125.001 25.6194 122.788 32.5025C122.148 34.3766 120.744 39.0469 119.555 43.9615L119.679 43.8869C124.099 39.4429 137.754 9.06674 133.845 9.95153C133.78 9.95647 133.775 9.89166 133.71 9.8966ZM135.379 12.1162C135.314 12.1211 135.259 12.2557 135.139 12.3952C135.503 12.889 134.213 18.2024 132.456 22.5085C129.709 29.2368 126.74 33.8961 128.421 32.0078C133.138 22.9128 136.097 12.1266 135.379 12.1162ZM127.794 15.2369C122.489 23.464 117.089 47.5393 118.082 46.0295C118.312 45.6208 118.904 40.5562 120.428 34.8989C120.983 32.7706 122.196 29.8749 122.941 26.8194C124.429 22.4035 126.991 16.6671 127.794 15.2369ZM125.281 23.3163C125.281 23.3163 125.167 23.5207 124.762 24.2034C124.298 24.9558 123.509 27.428 122.934 29.2971C123.858 26.8799 125.231 23.5157 125.231 23.5157L125.281 23.3163ZM130.699 25.1196L130.639 25.1894C130.704 25.1844 125.882 34.6134 126.251 34.3245C127.274 33.2035 130.829 25.1097 130.699 25.1196ZM128.197 32.4812C128.197 32.4812 128.077 32.6207 127.907 32.9596C127.912 33.0244 124.163 40.2855 124.627 39.533C125.7 38.2126 128.266 32.5411 128.197 32.4812ZM127.389 32.9991C127.389 32.9991 122.517 41.78 122.941 41.3565C123.365 40.933 127.284 33.3331 127.389 32.9991ZM119.99 34.2804C119.99 34.2804 117.392 42.9531 117.405 44.8425L117.44 45.2962C117.26 46.353 117.15 46.6221 117.155 46.6869C117.304 46.9363 117.429 46.8616 117.44 45.2962C118.215 41.7821 119.99 34.2804 119.99 34.2804ZM121.51 34.5556C119.622 40.5666 120.581 37.7556 120.066 39.5549C119.656 41.0203 118.831 44.7338 118.836 44.7986L121.51 34.5556ZM133.83 47.371C134.01 47.1617 135.427 45.2284 133.97 47.4907C133.855 47.695 133.206 48.592 133.206 48.592C133.206 48.592 133.715 47.5753 133.83 47.371ZM115.413 49.4925C115.523 48.3758 113.52 46.8989 112.324 47.4464C109.551 48.7009 108.043 52.0101 107.429 54.2082C106.754 56.4761 107.501 57.7229 110.24 55.1672C112.24 53.1894 113.682 51.5801 115.413 49.4925ZM117.586 49.783C116.66 55.5903 117.81 58.6969 118.364 58.2635C118.364 58.2635 117.571 58.1284 117.459 54.0952C117.371 52.0811 117.61 51.8021 117.586 49.783ZM131.351 49.9068C130.213 52.0797 126.756 55.4723 125.424 56.8125C126.94 55.3279 129.764 51.3316 131.351 49.9068ZM115.721 50.9683C114.594 52.4232 110.059 57.0715 109.256 56.8067C108.129 58.2617 113.341 54.8004 115.721 50.9683ZM138.729 37.545C138.924 37.5302 139.188 37.5752 139.322 37.6302C140.06 37.8999 142.123 40.1546 137.28 42.4795C135.141 43.4901 136.514 40.9734 136.38 40.071C136.211 38.7149 137.627 37.629 138.729 37.545ZM135.184 45.7684L135.379 45.7535C136.55 45.7294 137.955 47.0564 136.947 48.3719C136.513 49.5132 131.372 58.1842 134.833 57.3988C139.012 54.9289 144.124 51.0188 147.841 47.6064C144.423 51.5175 142.289 52.5929 142.054 52.9368C141.929 53.859 148.983 47.1934 149.502 46.3063C151.088 44.8816 150.31 45.7884 150.379 45.8483C150.464 46.1026 144.139 52.0608 150.299 46.5063C150.179 46.6458 146.488 50.3823 146.188 50.731C146.677 50.3026 149.012 48.4297 149.925 47.5778C147.909 50.2087 140.356 58.0206 135.749 59.1542C133.186 59.7408 131.457 58.4385 130.949 56.9126C130.258 54.6838 130.908 52.0918 131.712 49.8141C131.757 49.5499 131.877 49.4104 131.872 49.3456C131.862 49.216 131.986 49.1413 131.986 49.1413C131.986 49.1413 132.101 48.937 132.206 48.603C132.311 48.2691 132.481 47.9302 132.481 47.9302C133.529 46.2857 133.918 46.2561 134.736 45.8678C134.86 45.7931 135.055 45.7783 135.184 45.7684ZM149.925 47.5778L149.984 47.5081C150.533 47.0099 150.349 47.1544 149.925 47.5778ZM133.358 48.3196C132.425 49.7597 130.896 54.5047 131.518 55.8262C131.331 53.3634 134.426 46.0869 133.358 48.3196ZM145.655 51.4236C145.345 51.6428 141.011 55.4935 140.826 55.638C140.641 55.7824 141.519 55.3244 144.018 53.0478L145.655 51.4236ZM155.385 41.2293C157.977 41.0316 160.2 41.9703 160.532 44.6177C160.547 44.8122 160.502 45.0763 160.447 45.2109C161.489 45.1966 162.401 46.0398 162.29 47.1564C162.19 48.4026 159.318 56.9006 160.32 56.3679C163.886 54.401 165.737 52.1739 169.069 49.7034C169.627 49.3348 167.517 51.5818 167.687 51.2429C165.228 53.1905 172.31 47.7613 172.849 47.1335C173.762 46.2816 176.904 43.8908 176.904 43.8908C176.406 44.1895 175.618 44.9667 174.276 46.1773C173.912 46.531 172.694 47.6668 171.367 49.0718C170.654 49.9736 173.417 47.7421 174.196 46.8353C174.794 46.1377 176.076 44.9969 176.076 44.9969C174.245 47.4834 173.228 47.8217 171.541 49.6452C171.297 49.8594 170.988 50.0785 170.998 50.2082C171.182 50.0637 171.192 50.1933 170.708 50.6866C170.529 50.8958 170.219 51.115 170.04 51.3242C170.224 51.1798 170.529 50.8958 170.713 50.7514C170.838 50.6767 171.077 50.3977 171.442 50.044C172.539 49.0476 174.125 47.6229 175.642 46.1383C176.245 45.5056 176.669 45.0821 176.849 44.8728C176.61 45.1518 177.458 44.3049 176.021 45.979C175.961 46.0488 175.776 46.1932 175.716 46.263L175.657 46.3327C175.597 46.4025 175.472 46.4772 175.412 46.5469C175.292 46.6864 175.242 46.8858 175.252 47.0154C175.133 47.1549 174.948 47.2994 174.828 47.4389C174.768 47.5087 174.584 47.6531 174.524 47.7229C174.464 47.7926 174.339 47.8673 174.28 47.9371C174.22 48.0068 174.16 48.0766 174.165 48.1414C173.377 48.9186 172.459 49.7056 171.73 50.4131C168.513 53.5267 165.829 56.7953 161.929 58.6572C160.044 59.5832 156.69 58.3396 156.662 55.4083C156.653 53.5836 157.337 51.4454 157.767 49.3918C156.511 50.0091 152.237 58.9399 147.055 55.9453C144.394 54.3881 144.955 48.9346 148.229 44.8389C149.9 42.8209 152.792 41.427 155.385 41.2293ZM156.395 44.2161C151.464 44.5269 147.171 54.046 149.28 53.494C152.481 51.8809 155.227 46.8476 159.55 45.4097C159.415 45.3548 159.211 45.24 159.136 45.1153C158.234 44.4018 157.302 44.147 156.395 44.2161ZM157.3 47.5369C154.692 49.2352 152.296 52.8728 149.848 54.1026C151.822 53.4957 155.005 49.9283 157.3 47.5369ZM160.934 47.325C159.876 49.6873 158.712 53.2311 159.169 55.8038C159.12 55.1556 159.335 53.7051 159.62 52.3144C160.005 50.5249 161.189 47.2404 160.934 47.325ZM174.165 48.1414L174.17 48.2062C174.11 48.2759 173.92 48.3556 173.86 48.4253C173.801 48.4951 173.676 48.5698 173.616 48.6395C173.556 48.7093 173.621 48.7044 173.681 48.6346L173.741 48.5648L173.801 48.4951L173.865 48.4902L173.925 48.4204C173.985 48.3506 174.105 48.2111 174.17 48.2062L174.165 48.1414ZM170.734 49.3156C170.669 49.3206 169.991 49.8286 169.323 50.4663L166.389 53.0367C166.454 53.0318 169.218 50.8002 169.946 50.0928C170.37 49.6693 170.734 49.3156 170.734 49.3156ZM186.254 15.2119C187.421 15.1229 188.816 16.3203 188.012 17.7505C186.843 21.2295 186.094 23.3726 185.614 24.7782C185.809 24.7634 185.998 24.6837 186.258 24.6639C189.942 24.2526 196.394 23.3695 201.06 23.0137L202.94 22.8704C208.254 22.4651 213 22.2987 218.793 22.1829C219.322 22.273 219.71 22.2434 219.197 22.3477C218.294 22.4817 215.837 22.7343 212.985 22.9518C213.508 22.9771 213.179 22.937 213.578 23.0369C214.022 22.8727 222.786 22.4 222.796 22.5296C222.801 22.5944 214.181 23.2517 213.339 23.316C211.718 23.4395 211.07 23.4889 211.269 23.5389C212.376 23.5197 228.37 22.1045 223.334 22.7493C222.427 22.8185 213.548 23.4956 213.677 23.4857C213.742 23.4807 221.988 23.0475 221.599 23.0772C221.081 23.1167 221.016 23.1216 221.405 23.092C221.664 23.0722 221.933 23.1821 221.933 23.1821C221.938 23.2469 221.22 23.2364 220.054 23.3254C217.197 23.478 214.993 23.6461 208.059 24.1749C202.679 24.5851 200.545 24.813 200.346 24.763C200.147 24.713 200.082 24.718 200.087 24.7828C200.092 24.8476 199.703 24.8773 199.119 24.9217C198.601 24.9613 198.018 25.0058 197.948 24.9459C197.878 24.886 197.753 24.9607 197.758 25.0255C197.763 25.0903 197.514 25.2397 196.347 25.3287C195.31 25.4078 195.116 25.4226 195.435 25.3331C195.754 25.2436 195.689 25.2485 195.106 25.293C194.717 25.3226 194.204 25.427 194.014 25.5066C193.825 25.5863 193.047 25.6456 191.945 25.7296C190.973 25.8037 190.335 25.9828 190.529 25.9679C190.724 25.9531 188.719 26.1711 186.266 26.4886C186.202 26.4935 186.082 26.633 186.017 26.638C187.373 26.4694 190.469 26.0377 191.053 25.9932C191.701 25.9438 193.835 25.7159 193.77 25.7208C193.57 25.6708 194.154 25.6264 194.547 25.6615C194.876 25.7016 195.006 25.6917 195.066 25.622C195.126 25.5522 195.51 25.4578 195.963 25.4232L196.741 25.3639C196.482 25.3836 196.292 25.4633 196.033 25.483C195.325 25.6022 195.39 25.5973 196.297 25.5281C196.881 25.4836 197.2 25.3941 197.195 25.3293C197.19 25.2644 197.32 25.2546 197.454 25.3095C197.584 25.2996 197.853 25.4095 198.112 25.3897C198.371 25.3699 197.275 25.5188 195.719 25.6374C194.164 25.756 192.753 26.0591 192.688 26.0641C192.623 26.069 192.887 26.1141 193.276 26.0844C194.248 26.0103 194.253 26.0751 193.42 26.269L193.356 26.2739C192.967 26.3036 192.453 26.4079 192.064 26.4376L191.935 26.4475C191.74 26.4623 191.541 26.4123 191.346 26.4271C190.828 26.4667 190.444 26.5611 189.99 26.5957L190.055 26.5908L189.99 26.5957L189.925 26.6007C189.537 26.6303 189.218 26.7198 188.829 26.7495C189.023 26.7347 188.764 26.7544 188.505 26.7742L188.116 26.8039L187.468 26.8533C187.338 26.8632 187.333 26.7984 187.657 26.7736C188.37 26.7193 188.36 26.5897 187.388 26.6638C186.805 26.7083 186.68 26.783 186.815 26.8379C186.879 26.8329 186.824 26.9675 186.824 26.9675L185.982 27.0318C185.723 27.0515 185.468 27.1361 185.209 27.1559L185.214 27.2207C185.214 27.2207 184.895 27.3102 184.7 27.325C181.854 34.4521 172.141 60.0949 177.396 65.7567C178.458 66.8491 181.945 62.9978 182.803 61.433C183.297 61.9169 180.617 65.2503 179.775 65.3145C179.495 65.9226 180.637 65.5095 181.879 63.8503C182.573 62.6892 183.605 62.5453 183.205 64.1403C182.526 65.4958 181.154 67.165 179.469 67.2935C177.784 67.422 176.393 67.1369 175.183 65.7951C173.046 63.4157 172.511 58.111 173.536 52.7525C175.297 44.2089 177.875 36.1245 180.712 28.0203C179.745 28.1593 179.296 28.2587 178.064 28.3526C174.071 28.9831 169.888 29.6932 168.482 30.0612C168.162 30.1507 169.164 30.4654 168.975 30.5451C167.07 31.2118 165.161 30.9663 165.092 30.0589C165.012 29.0219 165.098 28.4287 166.359 27.8762C166.683 27.8515 166.948 27.8965 167.207 27.8768C170.358 27.3105 170.478 27.171 174.79 26.451C176.979 26.0886 179.168 25.7261 181.362 25.4284C181.426 25.4235 181.551 25.3488 181.616 25.3438C182.63 22.3982 183.474 19.7915 185.037 16.3477C185.177 15.6199 185.606 15.2613 186.124 15.2217L186.254 15.2119ZM213.653 23.1616L214.106 23.127C214.366 23.1073 214.241 23.182 213.787 23.2165C213.334 23.2511 213.069 23.2061 213.264 23.1913L213.653 23.1616ZM200.381 24.3692L200.705 24.3445C201.094 24.3149 200.9 24.3297 200.251 24.3791C199.603 24.4285 199.279 24.4532 199.539 24.4335L200.122 24.389L200.381 24.3692ZM200.655 24.5439C200.979 24.5192 201.243 24.5642 201.179 24.5692L200.466 24.6235L199.169 24.7224C199.169 24.7224 199.683 24.618 200.266 24.5735L200.655 24.5439ZM179.661 26.21L179.666 26.2748C179.536 26.2847 179.531 26.2199 179.661 26.21ZM219.849 23.2106L220.238 23.1809C220.433 23.1661 220.373 23.2359 220.049 23.2606L219.919 23.2705C219.66 23.2902 219.59 23.2304 219.655 23.2254L219.849 23.2106ZM178.953 26.3292L179.212 26.3094L177.732 26.5527L177.796 26.5477C177.218 26.657 174.964 27.0244 174.77 27.0393C173.798 27.1134 177.527 26.4379 178.953 26.3292ZM196.841 24.9651C196.971 24.9552 197.17 25.0052 197.17 25.0052C197.17 25.0052 196.981 25.0848 196.851 25.0947C196.721 25.1046 196.522 25.0546 196.522 25.0546C196.522 25.0546 196.712 24.975 196.841 24.9651ZM216.429 23.667C214.29 23.8301 211.055 24.142 207.425 24.4188L204.444 24.6461C202.111 24.824 201.532 24.9333 201.472 25.0031C201.348 25.0778 201.672 25.0531 203.422 24.9196C206.139 24.6472 206.727 24.6676 205.63 24.8164C204.857 24.9405 204.857 24.9405 206.154 24.8417C207.256 24.7576 207.515 24.7379 207.066 24.8373C206.358 24.9565 204.862 25.0053 204.598 24.9603L202.848 25.0937C201.941 25.1629 201.492 25.2623 201.687 25.2475C202.534 25.2481 202.285 25.3974 201.377 25.4666C200.664 25.521 200.535 25.5309 200.655 25.3914C200.774 25.2519 200.774 25.2519 200.39 25.3463C200.136 25.4309 200.016 25.5704 200.081 25.5655C200.081 25.5655 200.151 25.6254 200.086 25.6303C200.475 25.6006 200.859 25.5062 201.248 25.4765L203.646 25.2937C204.488 25.2294 205.196 25.1102 206.039 25.046L209.344 24.7939L210.252 24.7247C210.446 24.7099 210.636 24.6303 210.7 24.6253L211.219 24.5858L211.413 24.571L211.349 24.5759L211.867 24.5364C211.737 24.5463 211.468 24.4364 211.274 24.4512C210.421 24.3859 209.903 24.4254 208.552 24.6588C208.163 24.6885 208.103 24.7582 208.357 24.6736C208.676 24.5841 208.672 24.5193 208.347 24.544C208.218 24.5539 208.991 24.4298 210.287 24.3309L211.713 24.2222C213.916 24.0542 215.606 23.9905 215.801 23.9756C216 24.0256 215.935 24.0306 215.547 24.0602C215.222 24.0849 214.375 24.0844 213.597 24.1437C212.236 24.2475 212.236 24.2475 212.376 24.3672L212.445 24.4271L214.195 24.2936L216.593 24.1108L218.667 23.9526L219.186 23.9131C218.922 23.868 218.468 23.9026 218.274 23.9175L217.69 23.9619C217.625 23.9669 219.43 23.6989 222.606 23.4567C222.995 23.4271 223.314 23.3375 223.638 23.3128C223.508 23.3227 223.439 23.2628 223.309 23.2727C223.374 23.2678 223.304 23.2079 223.175 23.2178C223.045 23.2277 222.85 23.2425 222.855 23.3073C222.86 23.3721 222.731 23.382 222.531 23.332C222.332 23.282 221.878 23.3166 220.906 23.3908L219.545 23.4946C219.545 23.4946 218.179 23.5335 216.429 23.667ZM223.638 23.3128C226.066 23.5188 226.221 22.9855 223.638 23.3128V23.3128ZM207.181 24.633L207.57 24.6033C207.764 24.5885 207.57 24.6033 207.181 24.633C206.792 24.6626 206.662 24.6725 206.857 24.6577L207.181 24.633ZM200.181 25.1667L199.922 25.1865C199.857 25.1914 199.927 25.2513 200.186 25.2315L200.316 25.2217C200.64 25.1969 200.635 25.1321 200.44 25.147L200.311 25.1568L200.181 25.1667ZM214.644 24.1942L215.098 24.1596C215.357 24.1399 215.168 24.2195 214.714 24.2541C214.26 24.2887 213.996 24.2437 214.19 24.2288L214.644 24.1942ZM189.577 26.3013L189.771 26.2865C190.03 26.2667 189.906 26.3414 189.452 26.376C188.998 26.4106 188.734 26.3656 188.929 26.3507L189.317 26.3211L189.577 26.3013ZM196.058 25.8071L195.475 25.8516L195.086 25.8812C194.373 25.9356 194.318 26.0702 194.577 26.0504L195.29 25.996C195.549 25.9763 195.809 25.9565 196.192 25.862C196.517 25.8373 196.512 25.7725 196.058 25.8071ZM191.785 26.1981C191.98 26.1833 192.114 26.2382 192.114 26.2382C192.049 26.2431 191.217 26.437 190.309 26.5062C189.402 26.5754 188.754 26.6248 188.819 26.6199C188.884 26.6149 189.716 26.4211 190.624 26.3519C190.688 26.3469 190.748 26.2772 190.813 26.2722L191.785 26.1981ZM176.166 27.3892L176.23 27.3842C176.295 27.3793 176.3 27.4441 176.235 27.449C175.981 27.5336 174.829 27.817 173.533 27.9159C173.787 27.8313 175.582 27.4337 176.166 27.3892ZM186.037 26.8972L186.426 26.8675C186.426 26.8675 185.982 27.0318 185.269 27.0861L185.264 27.0213C185.329 27.0164 185.389 26.9466 185.453 26.9417L186.037 26.8972ZM173.518 28.5689C173.647 28.559 173.911 28.6041 174.041 28.5942C173.333 28.7134 173.268 28.7183 173.518 28.5689ZM182.636 28.4603C182.636 28.4603 182.576 28.5301 182.511 28.535C182.511 28.535 180.983 32.4325 180.973 33.1504C180.967 33.933 183.279 28.3461 182.636 28.4603ZM180.748 33.6238C179.086 36.6189 178.084 43.1489 176.332 46.6723C176.511 47.3106 175.556 52.7289 175.102 51.916C174.859 51.2827 175.963 47.8087 176.222 46.9415L176.163 47.0112C175.943 47.5495 177.672 41.1595 177.442 41.5681C172.787 54.8957 173.546 60.5744 174.025 60.8639C173.667 59.5874 174.214 53.0919 174.573 53.5209C174.458 53.7252 174.143 62.4193 174.707 61.2681C174.702 61.2033 174.897 61.1885 174.987 60.6601C174.583 61.3428 175.044 57.9831 174.789 58.0676C174.535 58.1522 174.65 57.1004 174.98 55.4455C174.916 55.4504 174.911 55.3856 174.841 55.3258C174.527 54.6326 175.327 52.2901 175.327 52.2901C175.396 52.3499 175.536 52.4697 175.556 52.7289C177.111 45.7655 180.289 34.4411 180.748 33.6238ZM174.901 62.1008C174.895 63.731 175.403 64.4093 175.468 64.4044C175.533 64.3994 175.344 63.6316 174.901 62.1008ZM182.408 63.9404C182.343 63.9453 182.168 64.2194 182.168 64.2194C182.168 64.2194 181.036 65.6095 180.712 65.6342L180.647 65.6392L180.712 65.6342C180.777 65.6293 180.916 65.749 181.17 65.6644C181.494 65.6397 181.978 65.1465 182.378 64.399C182.487 64.1299 182.408 63.9404 182.408 63.9404ZM195.377 36.55L195.83 36.5154C198.642 36.6269 200.176 39.6391 200.02 41.0199C199.71 42.934 198.348 44.7328 195.829 46.7502C193.494 48.6231 190.713 48.0529 190.713 48.0529C189.715 49.498 189.663 53.0873 192.265 53.0193C194.992 52.8765 200.01 48.5825 202.809 45.9571C202.085 46.7294 201.177 47.6461 200.035 48.9066C199.431 49.5393 199.371 49.6091 203.152 46.1917C206.026 43.691 209.109 40.5224 204.753 44.9614C200.348 49.5997 215.449 34.7586 206.454 44.1798C212.859 38.4111 208.07 43.144 207.551 44.031C205.675 45.9341 205.85 45.66 204.812 46.5866C204.628 46.7311 202.857 48.3003 203.545 47.9218C204.044 47.623 204.533 47.1946 205.56 46.1384C206.119 45.7699 206.668 45.2717 206.732 45.2668C203.066 49.3274 197.653 54.4337 192.363 55.163C190.618 55.3612 188.51 54.2182 187.604 52.5924C185.792 49.3408 186.509 42.5065 191.657 38.2026C193.003 37.0569 194.275 36.634 195.377 36.55ZM202.809 45.9571C205.118 43.7602 205.951 42.7188 202.809 45.9571V45.9571ZM196.252 39.4819C194.762 39.5956 190.974 44.6431 191.842 44.903C192.908 45.2127 197.697 40.4799 196.447 39.4671L196.252 39.4819ZM188.761 44.6816C188.761 44.6816 187.373 47.8513 187.671 50.045C187.879 51.9196 188.995 52.8775 189.413 53.2367C188.99 52.8127 187.984 51.5856 187.865 50.0302C187.801 48.3401 188.761 44.6816 188.761 44.6816ZM198.992 49.7683C197.97 50.8894 194.054 53.4043 193.91 53.2198C193.785 54.142 199.391 49.8683 198.992 49.7683Z" fill="black"/>
<path d="M380.009 77.419C381.465 76.8516 382.063 77.8491 382.121 79.4743C381.752 79.7632 380.998 81.8416 380.629 82.1305C380.444 82.2749 380.655 80.7595 380.47 80.904C377.502 83.8682 371.9 89.9017 368.156 104.072C369.268 103.27 370.176 102.354 371.792 102.165C377.093 99.0232 379.318 96.5719 387.741 92.4746C382.519 95.8063 379.956 97.2404 376.993 99.422C373.437 101.518 387.073 93.1123 387.447 92.8882C387.576 92.8783 387.701 92.8036 387.696 92.7388C389.432 91.5634 389.626 91.5486 388.015 92.6493C384.913 94.7111 389.82 91.5338 389.546 92.2066C389.486 92.2764 386.374 94.2086 385.7 94.7815C385.092 95.3494 391.027 91.9633 390.348 92.4714C390.159 92.551 377.107 100.913 377.236 100.903C380.902 98.5372 386.573 95.1061 386.822 94.9567C387.445 94.5832 384.044 96.9938 381.874 98.463C380.199 99.5687 376.183 102.482 374.563 103.453C379.882 110.805 373.382 131.575 366.188 132.123C362.17 132.43 361.475 128.441 361.252 126.372C360.032 116.361 365.745 94.6735 374.711 82.3209C375.964 80.7913 378.234 78.0758 380.009 77.419ZM379.27 79.6918C377.374 81.3356 376.7 82.756 376.48 83.2943C376.48 83.2943 377.373 82.1831 377.483 81.914C377.593 81.6449 379.594 79.667 379.27 79.6918ZM375.837 84.256C371.93 89.4431 369.164 95.9121 368.024 99.7799C368.479 98.8978 370.965 93.0368 371.639 91.6164C376.441 82.7758 374.623 87.1516 375.837 84.256ZM368.58 96.8041C368.365 97.4072 366.687 101.903 366.467 102.441C365.432 106.822 365.263 107.161 364.862 109.604C365.597 106.419 368.26 97.7411 368.58 96.8041ZM366.553 100.153C366.553 100.153 366.054 101.299 365.615 102.376C365.405 103.044 364.895 104.908 364.67 106.229C364.465 106.961 362.832 111.193 363.575 110.68C363.59 110.874 364.545 107.151 364.735 106.224C365.349 104.026 366.553 100.153 366.553 100.153ZM383.83 95.9019C385.192 94.9506 378.25 98.8046 376.803 100.349C377.122 100.26 379.297 98.8552 381.776 97.1668C382.274 96.868 383.212 96.3402 383.83 95.9019ZM362.925 113.272C362.925 113.272 362.76 114.523 362.7 114.593C362.416 115.136 361.499 121.92 361.791 124.897C361.765 127.115 362.865 128.726 362.706 128.347C362.626 128.158 361.586 125.629 362.127 121.612C362.049 118.88 363.769 111.512 362.925 113.272ZM364.467 112.111C364.467 112.111 363.515 118.442 363.56 119.025C363.604 119.608 365.181 110.362 364.467 112.111ZM372.767 105.546C372.144 105.072 370.597 107.015 369.345 107.697C368.906 107.926 367.735 107.103 367.641 106.719C366.773 107.307 363.683 120.645 363.979 126.229C364.406 136.105 370.369 127.111 372.759 117.411C373.798 113.094 373.992 107.082 372.767 105.546ZM369.515 129.588C373.725 126.659 376.614 114.118 375.824 110.593C375.312 109.003 376.416 112.373 374.243 119.775C372.639 125.243 369.764 129.438 369.515 129.588ZM362.936 120.246C362.547 120.276 362.374 125.7 363.131 127.076C362.912 125.919 362.631 120.53 362.941 120.311L362.936 120.246ZM372.471 122.192C372.627 120.811 373.925 118.17 373.847 115.438C372.037 122.486 372.165 125.866 367.9 129.776C367.949 130.424 371.83 126.608 372.471 122.192ZM398.862 95.7987C398.079 96.6407 400.662 95.4658 403.635 93.4139C403.759 93.3392 405.001 92.5274 404.642 92.9459C403.988 93.778 402.153 95.3522 402.277 95.2775C402.592 95.1231 405.245 93.1607 405.32 93.2854C405.394 93.4101 403.509 95.1836 401.215 96.7275C400.596 97.1658 398.975 98.1368 395.988 99.1469C395.15 100.971 393.797 103.747 391.408 105.754C389.926 106.845 388.171 106.914 386.064 104.923C381.714 100.887 389.084 91.5248 389.209 91.4501C390.251 90.5883 390.998 91.8351 392.579 91.1931C393.078 90.8943 394.797 91.2195 396.082 92.686C396.87 93.6038 396.698 96.4852 396.643 96.6198C397.975 96.1271 398.773 95.4795 400.847 94.4739C401.476 94.1652 402.852 93.4084 403.096 93.1942C403.899 93.4589 398.493 96.0876 398.862 95.7987ZM403.036 94.1114C401.924 94.9133 400.113 95.964 399.296 96.3523C399.121 96.6264 402.512 94.9336 403.036 94.1114ZM393.34 93.4818L393.275 93.4868L393.21 93.4917C391.735 93.7998 391.498 97.5336 392.814 97.694C393.841 97.4853 394.118 93.4225 393.34 93.4818ZM389.838 97.1387C389.838 97.1387 386.089 104.4 388.502 104.411C390.651 104.378 392.798 99.1946 392.858 99.1248C391.148 98.9293 390.341 97.7522 389.838 97.1387ZM406.593 83.6055C407.76 83.5166 408.981 84.1405 409.817 85.7065C410.847 88.9526 405.476 92.0349 406.866 94.015C409.286 97.5461 413.319 98.2817 413.032 102.215C411.497 108.59 409.844 112.562 411.399 113.291C413.493 113.392 417.489 109.372 421.176 104.723C424.684 100.283 430.576 92.924 434.767 88.0412C432.851 91.1208 427.962 96.2524 425.706 100.01C427.188 98.0715 434.288 89.4467 434.288 89.4467L428.125 98.3912C428.125 98.3912 427.721 99.0739 427.785 99.069C429.881 95.7801 431.502 94.809 433.109 91.9485C432.116 94.3059 429.686 97.4899 427.53 100.849C424.092 106.195 418.783 112.663 414.584 114.873C411.452 116.546 407.705 113.573 407.942 109.839C408.139 105.587 411.652 101.212 407.492 97.0963C404.537 94.2577 400.122 91.0742 402.518 86.589C403.382 85.089 405.038 83.7241 406.593 83.6055ZM410.475 101.171C410.404 103.654 409.984 104.99 409.305 107.193C408.52 109.73 408.913 111.46 409.471 111.939C409.391 111.749 408.834 109.575 409.574 107.303C410.463 104.432 410.643 103.375 410.739 102.064C410.674 102.069 410.605 101.161 410.475 101.171ZM426.668 99.806C425.141 102.009 419.857 108.8 416.066 112.088C416.75 111.644 417.069 111.555 420.147 108.322C421.439 107.31 427.117 99.7066 426.668 99.806Z" fill="black"/>
</svg>
