<svg width="47" height="48" viewBox="0 0 47 48" fill="none" xmlns="http://www.w3.org/2000/svg">
<path d="M23.6559 5.5271C16.2747 5.5271 11.0632 10.8412 11.0632 17.3817C11.0632 20.3574 12.2876 22.3645 13.8239 24.2786C14.1572 24.6951 14.4962 25.0961 14.8449 25.5088L15.0309 25.7258C15.4377 26.2101 15.8581 26.7099 16.2514 27.2253C17.0341 28.254 17.7684 29.4106 18.1791 30.7784C18.2797 31.1441 18.2332 31.5347 18.0496 31.8667C17.8661 32.1987 17.5599 32.4457 17.1967 32.555C16.8334 32.6643 16.4418 32.6272 16.1055 32.4516C15.7692 32.276 15.515 31.9758 15.3971 31.6153C15.1297 30.7241 14.6279 29.8911 13.9382 28.9863C13.5742 28.5157 13.1982 28.0545 12.8107 27.6031L12.6325 27.3899C12.2838 26.9792 11.9157 26.5453 11.5573 26.0977C9.84271 23.9628 8.15723 21.3183 8.15723 17.3797C8.15723 9.13636 14.7732 2.62109 23.6559 2.62109C32.5386 2.62109 39.1546 9.13442 39.1546 17.3817C39.1546 21.3183 37.4691 23.9628 35.7546 26.0997C35.3962 26.5453 35.0281 26.9792 34.6794 27.3919L34.5011 27.6031C34.0943 28.0835 33.7165 28.5349 33.3736 28.9863C32.6839 29.8911 32.1821 30.726 31.9148 31.6153C31.7911 31.969 31.5358 32.2614 31.2019 32.4316C30.868 32.6017 30.4813 32.6364 30.1225 32.5285C29.7636 32.4207 29.4602 32.1785 29.2755 31.8524C29.0907 31.5264 29.0389 31.1416 29.1308 30.7784C29.5435 29.4106 30.2777 28.254 31.0624 27.2253C31.4537 26.7099 31.8741 26.2101 32.2829 25.7258L32.4669 25.5088C32.8157 25.0961 33.1547 24.6951 33.4879 24.2805C35.0242 22.3626 36.2486 20.3574 36.2486 17.3817C36.2486 10.8412 31.0372 5.5271 23.6559 5.5271ZM17.3596 35.5558H29.9523C30.3376 35.5558 30.7072 35.7089 30.9797 35.9814C31.2522 36.2539 31.4053 36.6235 31.4053 37.0088C31.4053 37.3942 31.2522 37.7638 30.9797 38.0363C30.7072 38.3088 30.3376 38.4618 29.9523 38.4618H17.3596C16.9742 38.4618 16.6046 38.3088 16.3322 38.0363C16.0597 37.7638 15.9066 37.3942 15.9066 37.0088C15.9066 36.6235 16.0597 36.2539 16.3322 35.9814C16.6046 35.7089 16.9742 35.5558 17.3596 35.5558ZM18.8126 42.8208C18.8126 42.4355 18.9657 42.0659 19.2382 41.7934C19.5106 41.5209 19.8802 41.3678 20.2656 41.3678H27.0463C27.4316 41.3678 27.8012 41.5209 28.0737 41.7934C28.3462 42.0659 28.4993 42.4355 28.4993 42.8208C28.4993 43.2062 28.3462 43.5758 28.0737 43.8483C27.8012 44.1208 27.4316 44.2738 27.0463 44.2738H20.2656C19.8802 44.2738 19.5106 44.1208 19.2382 43.8483C18.9657 43.5758 18.8126 43.2062 18.8126 42.8208Z" fill="#23A323"/>
</svg>
