<svg width="176" height="67" viewBox="0 0 176 67" fill="none" xmlns="http://www.w3.org/2000/svg">
<path d="M84.6982 42.1809C78.8815 42.1809 76.5591 37.4287 75.9173 34.0906C75.8092 33.5285 76.4483 33.1635 76.9416 33.4539C79.027 34.6817 81.4305 35.4568 81.8965 35.4568C82.3173 35.4568 91.327 32.166 96.6019 30.2174C97.062 30.0474 97.5419 30.4126 97.4805 30.8992C96.634 37.6161 92.6949 42.1809 84.6982 42.1809Z" fill="#23A323"/>
<path d="M73.0786 13.5295L69.7875 15.1751C69.2686 15.4345 69.2998 16.1853 69.8385 16.4008L73.1295 17.7172C73.5712 17.8939 74.0517 17.5686 74.0517 17.0929V14.131C74.0517 13.6311 73.5257 13.306 73.0786 13.5295Z" fill="#23A323"/>
<path d="M79.6562 33.7762H83.6924C83.8573 33.7762 83.9398 33.5769 83.8233 33.4603C83.675 33.3118 83.8981 32.9504 84.1014 33.0024C84.5621 33.1203 85.034 33.215 85.2597 33.215C85.6062 33.215 86.9795 32.3221 88.189 31.5717C88.5372 31.3557 88.4487 30.8026 88.0543 30.6916C84.1463 29.5919 84.2297 28.1727 85.2596 28.1727C86.3803 28.1727 87.4453 28.733 90.3027 28.733C94.5421 28.733 97.0269 27.6124 97.5872 27.6124C98.7079 27.6124 99.2683 28.7322 99.8286 28.7322C100.389 28.7322 100.389 26.4917 99.8286 26.4917L96.9143 26.4916C96.6667 26.4916 96.4039 26.3027 96.2728 26.0927C95.0866 24.1924 88.5965 16.7562 80.7754 21.4495C75.1708 24.8127 75.7326 33.7762 79.6562 33.7762Z" fill="#23A323"/>
<path d="M77.3197 11.9224H75.6204C75.3728 11.9224 75.1721 12.1231 75.1721 12.3707L75.1723 20.0045C75.1723 20.1975 75.045 20.3631 74.8742 20.4529C73.8996 20.9655 74.3204 21.9846 74.7989 22.3933C74.9753 22.544 75.1715 22.7568 75.1719 22.9888C75.172 23.08 75.1413 23.1689 75.0896 23.244C73.5478 25.4832 75.1918 28.7138 76.2935 27.6121C77.3108 26.5948 77.0673 24.0682 76.482 23.3042C76.3847 23.1772 76.2936 23.0308 76.2933 22.8708L76.2932 22.8095C76.2929 22.6593 76.3705 22.5199 76.4895 22.4283C77.5622 21.6024 77.1844 20.8022 76.7085 20.4783C76.5038 20.339 76.2928 20.1269 76.2928 19.8793V19.0948C76.2928 18.8473 76.4935 18.6466 76.7411 18.6466H77.5255C77.7731 18.6466 77.9738 18.4459 77.9738 18.1983V17.1771C77.9738 17.0431 78.0363 16.9137 78.1406 16.8295C85.5573 10.8428 91.7806 13.8851 94.105 16.2797C94.1835 16.3605 94.2238 16.4677 94.2238 16.5804V18.0568C94.2238 18.3532 94.5064 18.568 94.7921 18.4887L103.095 16.1822C103.502 16.0693 103.542 15.5087 103.155 15.3396L86.5587 8.07861C86.4441 8.0285 86.3138 8.0285 86.1993 8.07861L77.4994 11.8848C77.4427 11.9096 77.3815 11.9224 77.3197 11.9224Z" fill="#23A323"/>
<path d="M79.6541 17.1862V20.1626C79.6541 20.4958 80.0064 20.7136 80.312 20.5807C85.0334 18.5285 89.9714 19.575 92.4429 20.5901C92.7512 20.7167 93.1024 20.4958 93.1024 20.1626V17.1638C93.1024 17.0375 93.0476 16.9151 92.9526 16.8319C88.1639 12.6364 82.3384 14.9992 79.8293 16.8342C79.7169 16.9163 79.6541 17.0471 79.6541 17.1862Z" fill="#23A323"/>
<path d="M56.7737 51.171C56.9381 51.4686 57.1221 51.727 57.3257 51.9463C57.5371 52.1655 57.7642 52.3339 58.007 52.4513C58.2576 52.5688 58.5199 52.6275 58.794 52.6275C59.0837 52.6275 59.3225 52.5571 59.5105 52.4161C59.6984 52.2673 59.7924 52.0676 59.7924 51.8171C59.7924 51.6056 59.7376 51.4373 59.6279 51.312C59.5183 51.1789 59.3421 51.0536 59.0994 50.9361C58.8566 50.8186 58.5356 50.6855 58.1362 50.5367C57.9404 50.4663 57.7133 50.3684 57.4549 50.2431C57.2043 50.1178 56.9655 49.9573 56.7384 49.7615C56.5113 49.5579 56.3234 49.3151 56.1746 49.0332C56.0258 48.7435 55.9514 48.395 55.9514 47.9878C55.9514 47.5023 56.0767 47.0834 56.3273 46.731C56.5857 46.3786 56.9303 46.1124 57.361 45.9323C57.7995 45.7444 58.285 45.6504 58.8175 45.6504C59.3656 45.6504 59.8394 45.7404 60.2387 45.9205C60.6459 46.1007 60.9826 46.3277 61.2489 46.6018C61.5151 46.8759 61.7187 47.1539 61.8597 47.4358L60.3444 48.2815C60.227 48.0857 60.0899 47.9174 59.9333 47.7764C59.7846 47.6276 59.6162 47.5141 59.4283 47.4358C59.2481 47.3496 59.0524 47.3066 58.841 47.3066C58.559 47.3066 58.3437 47.3692 58.1949 47.4945C58.0461 47.612 57.9717 47.7608 57.9717 47.9409C57.9717 48.1288 58.0422 48.2932 58.1832 48.4342C58.332 48.5751 58.5395 48.7044 58.8057 48.8218C59.0798 48.9393 59.4087 49.0646 59.7924 49.1977C60.0821 49.3073 60.3523 49.4365 60.6029 49.5853C60.8534 49.7263 61.0727 49.8985 61.2606 50.1021C61.4564 50.3057 61.6091 50.5407 61.7187 50.8069C61.8284 51.0731 61.8832 51.3785 61.8832 51.7231C61.8832 52.1381 61.797 52.5101 61.6248 52.839C61.4603 53.16 61.2332 53.4302 60.9435 53.6494C60.6616 53.8687 60.3366 54.0331 59.9686 54.1428C59.6084 54.2602 59.2364 54.319 58.8527 54.319C58.3202 54.319 57.823 54.225 57.361 54.0371C56.9068 53.8413 56.5113 53.579 56.1746 53.2501C55.8379 52.9212 55.5756 52.561 55.3876 52.1694L56.7737 51.171ZM62.2238 48.6574H65.8416V50.1256H62.2238V48.6574ZM63.1752 46.778H64.8784V54.0605H63.1752V46.778ZM68.2772 51.9463C68.2772 52.2595 68.336 52.5062 68.4534 52.6863C68.5709 52.8585 68.7745 52.9447 69.0642 52.9447C69.26 52.9447 69.4244 52.9055 69.5576 52.8272C69.6985 52.7489 69.8081 52.6354 69.8864 52.4866C69.9648 52.3378 70.0039 52.1577 70.0039 51.9463V48.6574H71.7776V54.0605H70.0039V53.2501C69.8395 53.5398 69.6241 53.7708 69.3579 53.9431C69.0916 54.1075 68.7588 54.1898 68.3595 54.1898C67.686 54.1898 67.1927 54.0096 66.8795 53.6494C66.5741 53.2814 66.4214 52.7763 66.4214 52.1342V48.6574H68.2772V51.9463ZM77.1008 44.8986H78.8745V54.0605H77.1008V44.8986ZM72.6843 51.359C72.6843 50.7482 72.8057 50.2353 73.0484 49.8202C73.299 49.4052 73.6201 49.0881 74.0116 48.8688C74.4031 48.6495 74.8182 48.5399 75.2567 48.5399C75.7109 48.5399 76.1102 48.6535 76.4548 48.8805C76.8072 49.1076 77.0851 49.4326 77.2887 49.8555C77.4923 50.2705 77.5941 50.7717 77.5941 51.359C77.5941 51.9384 77.4923 52.4396 77.2887 52.8625C77.0851 53.2853 76.8072 53.6103 76.4548 53.8374C76.1102 54.0645 75.7109 54.178 75.2567 54.178C74.8182 54.178 74.4031 54.0684 74.0116 53.8491C73.6201 53.6299 73.299 53.3127 73.0484 52.8977C72.8057 52.4748 72.6843 51.9619 72.6843 51.359ZM74.5519 51.359C74.5519 51.6409 74.6106 51.8875 74.7281 52.099C74.8456 52.3026 75.0022 52.4631 75.1979 52.5805C75.3937 52.6902 75.6091 52.745 75.844 52.745C76.0476 52.745 76.2433 52.6902 76.4313 52.5805C76.627 52.4709 76.7876 52.3143 76.9129 52.1107C77.0382 51.8993 77.1008 51.6487 77.1008 51.359C77.1008 51.0692 77.0382 50.8226 76.9129 50.619C76.7876 50.4075 76.627 50.247 76.4313 50.1374C76.2433 50.0277 76.0476 49.9729 75.844 49.9729C75.6091 49.9729 75.3937 50.0317 75.1979 50.1491C75.0022 50.2587 74.8456 50.4193 74.7281 50.6307C74.6106 50.8343 74.5519 51.0771 74.5519 51.359ZM85.6071 48.6574L82.0833 56.6447H80.2979L81.6135 53.6259L79.276 48.6574H81.2259L82.976 52.9917L82.0598 52.9799L83.7865 48.6574H85.6071ZM86.2706 45.8383H87.269V54.0605H86.2706V45.8383ZM92.3799 50.7717C92.3799 50.3253 92.282 49.9886 92.0863 49.7615C91.8905 49.5344 91.6047 49.4209 91.2288 49.4209C90.9547 49.4209 90.712 49.4796 90.5006 49.5971C90.297 49.7067 90.1364 49.8633 90.019 50.0669C89.9093 50.2705 89.8545 50.5054 89.8545 50.7717V54.0605H88.9148V48.6574H89.8545V49.5031C90.0346 49.1742 90.2578 48.9314 90.524 48.7748C90.7981 48.6182 91.1113 48.5399 91.4637 48.5399C92.0354 48.5399 92.4856 48.7318 92.8145 49.1155C93.1512 49.4913 93.3196 50.0042 93.3196 50.6542V54.0605H92.3799V50.7717ZM95.1331 52.4044C95.2427 52.5688 95.368 52.7215 95.509 52.8625C95.6499 53.0034 95.8104 53.1169 95.9905 53.2031C96.1785 53.2814 96.3821 53.3205 96.6013 53.3205C96.8676 53.3205 97.0751 53.2618 97.2239 53.1444C97.3805 53.0191 97.4588 52.8507 97.4588 52.6393C97.4588 52.4513 97.3962 52.2947 97.2709 52.1694C97.1534 52.0363 97.0007 51.9267 96.8128 51.8405C96.6248 51.7466 96.4251 51.6604 96.2137 51.5821C95.9788 51.4882 95.74 51.3785 95.4972 51.2532C95.2623 51.1201 95.0626 50.9518 94.8982 50.7482C94.7415 50.5367 94.6632 50.2744 94.6632 49.9612C94.6632 49.6401 94.7455 49.3739 94.9099 49.1625C95.0822 48.951 95.3014 48.7944 95.5677 48.6926C95.8418 48.5908 96.1237 48.5399 96.4134 48.5399C96.7031 48.5399 96.9733 48.5869 97.2239 48.6809C97.4823 48.7748 97.7094 48.9001 97.9051 49.0567C98.1009 49.2133 98.2536 49.3935 98.3632 49.5971L97.6115 50.0786C97.4627 49.875 97.2748 49.7067 97.0477 49.5736C96.8284 49.4404 96.5778 49.3739 96.2959 49.3739C96.1002 49.3739 95.9318 49.4169 95.7909 49.5031C95.6499 49.5892 95.5794 49.7223 95.5794 49.9025C95.5794 50.0434 95.6342 50.1687 95.7439 50.2783C95.8535 50.388 95.9945 50.4858 96.1667 50.572C96.339 50.6581 96.5191 50.7403 96.707 50.8186C97.0203 50.9439 97.3061 51.081 97.5645 51.2298C97.8229 51.3707 98.0265 51.543 98.1753 51.7466C98.3319 51.9502 98.4102 52.2125 98.4102 52.5336C98.4102 53.0034 98.2379 53.3949 97.8934 53.7082C97.5567 54.0214 97.1103 54.178 96.5544 54.178C96.1941 54.178 95.8692 54.1154 95.5794 53.9901C95.2897 53.8569 95.043 53.6886 94.8394 53.485C94.6437 53.2814 94.4949 53.0739 94.3931 52.8625L95.1331 52.4044ZM99.4711 46.4256C99.4711 46.2455 99.5338 46.0928 99.6591 45.9675C99.7922 45.8422 99.9449 45.7796 100.117 45.7796C100.297 45.7796 100.45 45.8422 100.575 45.9675C100.701 46.0928 100.763 46.2455 100.763 46.4256C100.763 46.5979 100.701 46.7506 100.575 46.8837C100.45 47.009 100.297 47.0717 100.117 47.0717C99.9449 47.0717 99.7922 47.009 99.6591 46.8837C99.5338 46.7506 99.4711 46.5979 99.4711 46.4256ZM99.6473 48.6574H100.587V54.0605H99.6473V48.6574ZM101.982 54.4129H102.933C102.933 54.6713 103.004 54.9102 103.145 55.1294C103.286 55.3565 103.486 55.5366 103.744 55.6698C104.002 55.8107 104.308 55.8812 104.66 55.8812C104.934 55.8812 105.204 55.8146 105.471 55.6815C105.737 55.5484 105.956 55.3369 106.128 55.0472C106.308 54.7653 106.399 54.3973 106.399 53.9431V48.6574H107.338V53.9431C107.338 54.5617 107.209 55.0785 106.951 55.4936C106.692 55.9164 106.359 56.2336 105.952 56.445C105.545 56.6564 105.114 56.7621 104.66 56.7621C104.135 56.7621 103.67 56.6643 103.262 56.4685C102.863 56.2727 102.55 55.9947 102.323 55.6345C102.096 55.2821 101.982 54.8749 101.982 54.4129ZM101.876 51.359C101.876 50.7717 101.998 50.2705 102.24 49.8555C102.483 49.4326 102.808 49.1076 103.215 48.8805C103.623 48.6535 104.069 48.5399 104.554 48.5399C105.009 48.5399 105.404 48.6535 105.741 48.8805C106.077 49.1076 106.34 49.4326 106.528 49.8555C106.724 50.2705 106.821 50.7717 106.821 51.359C106.821 51.9384 106.724 52.4396 106.528 52.8625C106.34 53.2853 106.077 53.6103 105.741 53.8374C105.404 54.0645 105.009 54.178 104.554 54.178C104.069 54.178 103.623 54.0645 103.215 53.8374C102.808 53.6103 102.483 53.2853 102.24 52.8625C101.998 52.4396 101.876 51.9384 101.876 51.359ZM102.828 51.359C102.828 51.774 102.91 52.1264 103.074 52.4161C103.247 52.7058 103.474 52.9251 103.756 53.0739C104.038 53.2227 104.343 53.2971 104.672 53.2971C104.946 53.2971 105.216 53.2227 105.482 53.0739C105.749 52.9251 105.968 52.7058 106.14 52.4161C106.312 52.1264 106.399 51.774 106.399 51.359C106.399 51.0457 106.348 50.7717 106.246 50.5367C106.144 50.294 106.007 50.0904 105.835 49.9259C105.67 49.7615 105.486 49.6362 105.283 49.5501C105.079 49.4639 104.875 49.4209 104.672 49.4209C104.343 49.4209 104.038 49.4953 103.756 49.644C103.474 49.7928 103.247 50.0121 103.074 50.3018C102.91 50.5916 102.828 50.9439 102.828 51.359ZM109.809 44.8986V54.0605H108.869V44.8986H109.809ZM112.334 50.7717C112.334 50.3253 112.236 49.9886 112.04 49.7615C111.852 49.5344 111.567 49.4209 111.183 49.4209C110.909 49.4209 110.666 49.4796 110.455 49.5971C110.251 49.7145 110.09 49.875 109.973 50.0786C109.863 50.2822 109.809 50.5132 109.809 50.7717H109.503C109.503 50.341 109.585 49.9612 109.75 49.6323C109.914 49.2956 110.137 49.0293 110.419 48.8336C110.709 48.6378 111.042 48.5399 111.418 48.5399C111.794 48.5399 112.119 48.6182 112.393 48.7748C112.675 48.9314 112.89 49.1664 113.039 49.4796C113.195 49.7928 113.274 50.1844 113.274 50.6542V54.0605H112.334V50.7717ZM114.042 48.6574H116.743V49.5383H114.042V48.6574ZM114.923 46.778H115.862V54.0605H114.923V46.778Z" fill="#23A323"/>
</svg>
