<svg width="35" height="33" viewBox="0 0 35 33" fill="none" xmlns="http://www.w3.org/2000/svg">
<path d="M11 11.4431C11 11.0248 11.1464 10.6797 11.4392 10.4078C11.732 10.1359 12.1126 10 12.5811 10C13.0412 10 13.4134 10.1338 13.6979 10.4015C13.9907 10.6776 14.1371 11.0373 14.1371 11.4807C14.1371 11.8822 13.9949 12.2169 13.7104 12.4846C13.4176 12.7606 13.0328 12.8986 12.556 12.8986H12.5434C12.0833 12.8986 11.7111 12.7606 11.4266 12.4846C11.1422 12.2085 11 11.8613 11 11.4431ZM11.1631 22.4228V14.0405H13.9488V22.4228H11.1631ZM15.4923 22.4228H18.278V17.7423C18.278 17.4495 18.3115 17.2236 18.3784 17.0647C18.4955 16.7802 18.6733 16.5397 18.9117 16.3431C19.1501 16.1466 19.4492 16.0483 19.8089 16.0483C20.7458 16.0483 21.2143 16.6799 21.2143 17.943V22.4228H24V17.6168C24 16.3787 23.7072 15.4397 23.1216 14.7997C22.536 14.1597 21.7622 13.8398 20.8002 13.8398C19.721 13.8398 18.8803 14.3041 18.278 15.2326V15.2577H18.2654L18.278 15.2326V14.0405H15.4923C15.509 14.3082 15.5174 15.1406 15.5174 16.5376C15.5174 17.9347 15.509 19.8964 15.4923 22.4228Z" fill="white"/>
</svg>
