<svg width="526" height="228" viewBox="0 0 526 228" fill="none" xmlns="http://www.w3.org/2000/svg">
<g clip-path="url(#clip0_5018_41309)">
<g filter="url(#filter0_d_5018_41309)">
<rect x="95.3535" y="23.5117" width="400.934" height="91.6523" rx="4" fill="#23A323"/>
</g>
<path d="M156.448 80.6544L154.408 81.4344V48.8544H161.188V87.7344H154.408L125.248 56.1144L127.348 55.3344V87.7344H120.508V48.8544H127.348L156.448 80.6544ZM167.367 63.7344V57.8544H182.007V87.7344H175.287V63.7344H167.367ZM191.981 96.4944L190.781 94.7544C191.421 93.7944 192.001 92.7544 192.521 91.6344C193.081 90.5544 193.381 89.4744 193.421 88.3944L190.241 87.7344V81.2544H198.461V85.8744C198.461 88.5944 197.841 90.7744 196.601 92.4144C195.401 94.0944 193.861 95.4544 191.981 96.4944ZM221.486 88.3944C218.166 88.3944 215.186 87.7944 212.546 86.5944C209.906 85.3944 207.826 83.6344 206.306 81.3144C204.786 78.9944 204.026 76.1744 204.026 72.8544C204.026 69.5744 204.786 66.7744 206.306 64.4544C207.826 62.0944 209.906 60.2944 212.546 59.0544C215.186 57.8144 218.166 57.1944 221.486 57.1944C224.806 57.1944 227.766 57.8144 230.366 59.0544C232.966 60.2944 235.006 62.0944 236.486 64.4544C238.006 66.7744 238.766 69.5744 238.766 72.8544C238.766 76.1744 238.006 78.9944 236.486 81.3144C235.006 83.6344 232.966 85.3944 230.366 86.5944C227.766 87.7944 224.806 88.3944 221.486 88.3944ZM221.486 82.9344C223.366 82.9344 225.106 82.5544 226.706 81.7944C228.306 80.9944 229.586 79.8544 230.546 78.3744C231.506 76.8544 231.986 75.0144 231.986 72.8544C231.986 70.7344 231.506 68.9144 230.546 67.3944C229.586 65.8344 228.306 64.6544 226.706 63.8544C225.146 63.0544 223.406 62.6544 221.486 62.6544C219.566 62.6544 217.786 63.0544 216.146 63.8544C214.546 64.6544 213.246 65.8144 212.246 67.3344C211.286 68.8544 210.806 70.6944 210.806 72.8544C210.806 75.0144 211.286 76.8544 212.246 78.3744C213.246 79.8544 214.546 80.9944 216.146 81.7944C217.786 82.5544 219.566 82.9344 221.486 82.9344ZM262.443 88.3944C259.123 88.3944 256.143 87.7944 253.503 86.5944C250.863 85.3944 248.783 83.6344 247.263 81.3144C245.743 78.9944 244.983 76.1744 244.983 72.8544C244.983 69.5744 245.743 66.7744 247.263 64.4544C248.783 62.0944 250.863 60.2944 253.503 59.0544C256.143 57.8144 259.123 57.1944 262.443 57.1944C265.763 57.1944 268.723 57.8144 271.323 59.0544C273.923 60.2944 275.963 62.0944 277.443 64.4544C278.963 66.7744 279.723 69.5744 279.723 72.8544C279.723 76.1744 278.963 78.9944 277.443 81.3144C275.963 83.6344 273.923 85.3944 271.323 86.5944C268.723 87.7944 265.763 88.3944 262.443 88.3944ZM262.443 82.9344C264.323 82.9344 266.063 82.5544 267.663 81.7944C269.263 80.9944 270.543 79.8544 271.503 78.3744C272.463 76.8544 272.943 75.0144 272.943 72.8544C272.943 70.7344 272.463 68.9144 271.503 67.3944C270.543 65.8344 269.263 64.6544 267.663 63.8544C266.103 63.0544 264.363 62.6544 262.443 62.6544C260.523 62.6544 258.743 63.0544 257.103 63.8544C255.503 64.6544 254.203 65.8144 253.203 67.3344C252.243 68.8544 251.763 70.6944 251.763 72.8544C251.763 75.0144 252.243 76.8544 253.203 78.3744C254.203 79.8544 255.503 80.9944 257.103 81.7944C258.743 82.5544 260.523 82.9344 262.443 82.9344ZM303.4 88.3944C300.08 88.3944 297.1 87.7944 294.46 86.5944C291.82 85.3944 289.74 83.6344 288.22 81.3144C286.7 78.9944 285.94 76.1744 285.94 72.8544C285.94 69.5744 286.7 66.7744 288.22 64.4544C289.74 62.0944 291.82 60.2944 294.46 59.0544C297.1 57.8144 300.08 57.1944 303.4 57.1944C306.72 57.1944 309.68 57.8144 312.28 59.0544C314.88 60.2944 316.92 62.0944 318.4 64.4544C319.92 66.7744 320.68 69.5744 320.68 72.8544C320.68 76.1744 319.92 78.9944 318.4 81.3144C316.92 83.6344 314.88 85.3944 312.28 86.5944C309.68 87.7944 306.72 88.3944 303.4 88.3944ZM303.4 82.9344C305.28 82.9344 307.02 82.5544 308.62 81.7944C310.22 80.9944 311.5 79.8544 312.46 78.3744C313.42 76.8544 313.9 75.0144 313.9 72.8544C313.9 70.7344 313.42 68.9144 312.46 67.3944C311.5 65.8344 310.22 64.6544 308.62 63.8544C307.06 63.0544 305.32 62.6544 303.4 62.6544C301.48 62.6544 299.7 63.0544 298.06 63.8544C296.46 64.6544 295.16 65.8144 294.16 67.3344C293.2 68.8544 292.72 70.6944 292.72 72.8544C292.72 75.0144 293.2 76.8544 294.16 78.3744C295.16 79.8544 296.46 80.9944 298.06 81.7944C299.7 82.5544 301.48 82.9344 303.4 82.9344ZM327.977 96.4944L326.777 94.7544C327.417 93.7944 327.997 92.7544 328.517 91.6344C329.077 90.5544 329.377 89.4744 329.417 88.3944L326.237 87.7344V81.2544H334.457V85.8744C334.457 88.5944 333.837 90.7744 332.597 92.4144C331.397 94.0944 329.857 95.4544 327.977 96.4944ZM357.482 88.3944C354.162 88.3944 351.182 87.7944 348.542 86.5944C345.902 85.3944 343.822 83.6344 342.302 81.3144C340.782 78.9944 340.022 76.1744 340.022 72.8544C340.022 69.5744 340.782 66.7744 342.302 64.4544C343.822 62.0944 345.902 60.2944 348.542 59.0544C351.182 57.8144 354.162 57.1944 357.482 57.1944C360.802 57.1944 363.762 57.8144 366.362 59.0544C368.962 60.2944 371.002 62.0944 372.482 64.4544C374.002 66.7744 374.762 69.5744 374.762 72.8544C374.762 76.1744 374.002 78.9944 372.482 81.3144C371.002 83.6344 368.962 85.3944 366.362 86.5944C363.762 87.7944 360.802 88.3944 357.482 88.3944ZM357.482 82.9344C359.362 82.9344 361.102 82.5544 362.702 81.7944C364.302 80.9944 365.582 79.8544 366.542 78.3744C367.502 76.8544 367.982 75.0144 367.982 72.8544C367.982 70.7344 367.502 68.9144 366.542 67.3944C365.582 65.8344 364.302 64.6544 362.702 63.8544C361.142 63.0544 359.402 62.6544 357.482 62.6544C355.562 62.6544 353.782 63.0544 352.142 63.8544C350.542 64.6544 349.242 65.8144 348.242 67.3344C347.282 68.8544 346.802 70.6944 346.802 72.8544C346.802 75.0144 347.282 76.8544 348.242 78.3744C349.242 79.8544 350.542 80.9944 352.142 81.7944C353.782 82.5544 355.562 82.9344 357.482 82.9344ZM398.439 88.3944C395.119 88.3944 392.139 87.7944 389.499 86.5944C386.859 85.3944 384.779 83.6344 383.259 81.3144C381.739 78.9944 380.979 76.1744 380.979 72.8544C380.979 69.5744 381.739 66.7744 383.259 64.4544C384.779 62.0944 386.859 60.2944 389.499 59.0544C392.139 57.8144 395.119 57.1944 398.439 57.1944C401.759 57.1944 404.719 57.8144 407.319 59.0544C409.919 60.2944 411.959 62.0944 413.439 64.4544C414.959 66.7744 415.719 69.5744 415.719 72.8544C415.719 76.1744 414.959 78.9944 413.439 81.3144C411.959 83.6344 409.919 85.3944 407.319 86.5944C404.719 87.7944 401.759 88.3944 398.439 88.3944ZM398.439 82.9344C400.319 82.9344 402.059 82.5544 403.659 81.7944C405.259 80.9944 406.539 79.8544 407.499 78.3744C408.459 76.8544 408.939 75.0144 408.939 72.8544C408.939 70.7344 408.459 68.9144 407.499 67.3944C406.539 65.8344 405.259 64.6544 403.659 63.8544C402.099 63.0544 400.359 62.6544 398.439 62.6544C396.519 62.6544 394.739 63.0544 393.099 63.8544C391.499 64.6544 390.199 65.8144 389.199 67.3344C388.239 68.8544 387.759 70.6944 387.759 72.8544C387.759 75.0144 388.239 76.8544 389.199 78.3744C390.199 79.8544 391.499 80.9944 393.099 81.7944C394.739 82.5544 396.519 82.9344 398.439 82.9344ZM439.396 88.3944C436.076 88.3944 433.096 87.7944 430.456 86.5944C427.816 85.3944 425.736 83.6344 424.216 81.3144C422.696 78.9944 421.936 76.1744 421.936 72.8544C421.936 69.5744 422.696 66.7744 424.216 64.4544C425.736 62.0944 427.816 60.2944 430.456 59.0544C433.096 57.8144 436.076 57.1944 439.396 57.1944C442.716 57.1944 445.676 57.8144 448.276 59.0544C450.876 60.2944 452.916 62.0944 454.396 64.4544C455.916 66.7744 456.676 69.5744 456.676 72.8544C456.676 76.1744 455.916 78.9944 454.396 81.3144C452.916 83.6344 450.876 85.3944 448.276 86.5944C445.676 87.7944 442.716 88.3944 439.396 88.3944ZM439.396 82.9344C441.276 82.9344 443.016 82.5544 444.616 81.7944C446.216 80.9944 447.496 79.8544 448.456 78.3744C449.416 76.8544 449.896 75.0144 449.896 72.8544C449.896 70.7344 449.416 68.9144 448.456 67.3944C447.496 65.8344 446.216 64.6544 444.616 63.8544C443.056 63.0544 441.316 62.6544 439.396 62.6544C437.476 62.6544 435.696 63.0544 434.056 63.8544C432.456 64.6544 431.156 65.8144 430.156 67.3344C429.196 68.8544 428.716 70.6944 428.716 72.8544C428.716 75.0144 429.196 76.8544 430.156 78.3744C431.156 79.8544 432.456 80.9944 434.056 81.7944C435.696 82.5544 437.476 82.9344 439.396 82.9344Z" fill="white"/>
<path d="M14.8063 141.448V149.473H4.83125V141.448H14.8063ZM5.58125 157.273H13.9813V194.623H5.58125V157.273ZM23.9527 157.273H32.2777V194.623H23.9527V157.273ZM48.0277 156.448C50.1777 156.448 52.1527 156.748 53.9527 157.348C55.8027 157.948 57.3777 158.873 58.6777 160.123C60.0277 161.323 61.0527 162.823 61.7527 164.623C62.5027 166.423 62.8777 168.548 62.8777 170.998V194.623H54.5527V172.648C54.5527 169.598 53.8027 167.348 52.3027 165.898C50.8527 164.398 48.5527 163.648 45.4027 163.648C43.0027 163.648 40.8027 164.173 38.8027 165.223C36.8527 166.223 35.2527 167.548 34.0027 169.198C32.7527 170.798 32.0277 172.573 31.8277 174.523L31.7527 170.473C32.0027 168.623 32.5527 166.873 33.4027 165.223C34.2527 163.523 35.3777 162.023 36.7777 160.723C38.1777 159.373 39.8277 158.323 41.7277 157.573C43.6277 156.823 45.7277 156.448 48.0277 156.448ZM70.4229 182.323H78.1479C78.5479 184.223 79.5729 185.773 81.2229 186.973C82.8729 188.123 85.0979 188.698 87.8979 188.698C89.6979 188.698 91.0979 188.498 92.0979 188.098C93.1479 187.698 93.8729 187.148 94.2729 186.448C94.7229 185.748 94.9479 184.948 94.9479 184.048C94.9479 182.948 94.6229 182.098 93.9729 181.498C93.3729 180.898 92.4729 180.398 91.2729 179.998C90.0729 179.598 88.5729 179.248 86.7729 178.948C84.9229 178.498 83.0979 177.998 81.2979 177.448C79.4979 176.898 77.8729 176.223 76.4229 175.423C74.9729 174.573 73.8229 173.523 72.9729 172.273C72.1729 170.973 71.7729 169.398 71.7729 167.548C71.7729 165.848 72.1479 164.323 72.8979 162.973C73.6979 161.573 74.7979 160.398 76.1979 159.448C77.5979 158.498 79.2479 157.773 81.1479 157.273C83.0479 156.723 85.1229 156.448 87.3729 156.448C90.6229 156.448 93.3229 156.973 95.4729 158.023C97.6729 159.073 99.3229 160.548 100.423 162.448C101.573 164.348 102.148 166.523 102.148 168.973H94.7979C94.3979 166.973 93.6229 165.523 92.4729 164.623C91.3229 163.723 89.5979 163.273 87.2979 163.273C84.9979 163.273 83.2479 163.673 82.0479 164.473C80.8479 165.273 80.2479 166.373 80.2479 167.773C80.2479 168.823 80.6229 169.673 81.3729 170.323C82.1729 170.923 83.2979 171.448 84.7479 171.898C86.1979 172.348 87.8979 172.798 89.8479 173.248C91.6479 173.748 93.3479 174.273 94.9479 174.823C96.5479 175.323 97.9729 175.973 99.2229 176.773C100.523 177.523 101.548 178.523 102.298 179.773C103.048 181.023 103.423 182.573 103.423 184.423C103.423 186.723 102.798 188.698 101.548 190.348C100.348 191.998 98.5979 193.273 96.2979 194.173C93.9979 195.023 91.2229 195.448 87.9729 195.448C85.1229 195.448 82.6479 195.123 80.5479 194.473C78.4979 193.823 76.7729 192.973 75.3729 191.923C74.0229 190.873 72.9729 189.748 72.2229 188.548C71.4729 187.348 70.9479 186.198 70.6479 185.098C70.3979 183.998 70.3229 183.073 70.4229 182.323ZM108.339 157.273H134.739V164.098H108.339V157.273ZM117.339 147.223H125.739V194.623H117.339V147.223ZM157.351 195.448C153.951 195.448 150.826 194.623 147.976 192.973C145.176 191.323 142.926 189.048 141.226 186.148C139.576 183.198 138.751 179.823 138.751 176.023C138.751 172.123 139.601 168.723 141.301 165.823C143.001 162.873 145.301 160.573 148.201 158.923C151.101 157.273 154.351 156.448 157.951 156.448C161.951 156.448 165.126 157.323 167.476 159.073C169.826 160.823 171.501 163.173 172.501 166.123C173.501 169.073 174.001 172.373 174.001 176.023C174.001 178.073 173.701 180.248 173.101 182.548C172.501 184.798 171.551 186.898 170.251 188.848C169.001 190.798 167.301 192.398 165.151 193.648C163.051 194.848 160.451 195.448 157.351 195.448ZM159.901 188.548C162.701 188.548 165.076 188.023 167.026 186.973C169.026 185.873 170.526 184.373 171.526 182.473C172.576 180.573 173.101 178.423 173.101 176.023C173.101 173.373 172.576 171.123 171.526 169.273C170.476 167.373 168.976 165.923 167.026 164.923C165.076 163.873 162.701 163.348 159.901 163.348C155.901 163.348 152.801 164.523 150.601 166.873C148.401 169.223 147.301 172.273 147.301 176.023C147.301 178.473 147.826 180.648 148.876 182.548C149.976 184.448 151.476 185.923 153.376 186.973C155.276 188.023 157.451 188.548 159.901 188.548ZM173.101 157.273H181.501V194.623H173.701C173.701 194.623 173.651 194.148 173.551 193.198C173.451 192.248 173.351 191.098 173.251 189.748C173.151 188.348 173.101 187.023 173.101 185.773V157.273ZM190.652 157.273H198.977V194.623H190.652V157.273ZM214.727 156.448C216.877 156.448 218.852 156.748 220.652 157.348C222.502 157.948 224.077 158.873 225.377 160.123C226.727 161.323 227.752 162.823 228.452 164.623C229.202 166.423 229.577 168.548 229.577 170.998V194.623H221.252V172.648C221.252 169.598 220.502 167.348 219.002 165.898C217.552 164.398 215.252 163.648 212.102 163.648C209.702 163.648 207.502 164.173 205.502 165.223C203.552 166.223 201.952 167.548 200.702 169.198C199.452 170.798 198.727 172.573 198.527 174.523L198.452 170.473C198.702 168.623 199.252 166.873 200.102 165.223C200.952 163.523 202.077 162.023 203.477 160.723C204.877 159.373 206.527 158.323 208.427 157.573C210.327 156.823 212.427 156.448 214.727 156.448ZM236.147 157.273H262.547V164.098H236.147V157.273ZM245.147 147.223H253.547V194.623H245.147V147.223ZM326.579 180.148C326.279 183.348 325.254 186.098 323.504 188.398C321.754 190.698 319.404 192.448 316.454 193.648C313.554 194.848 310.204 195.448 306.404 195.448C302.304 195.448 298.579 194.698 295.229 193.198C291.929 191.698 289.304 189.498 287.354 186.598C285.404 183.698 284.429 180.173 284.429 176.023C284.429 171.873 285.404 168.348 287.354 165.448C289.304 162.548 291.929 160.323 295.229 158.773C298.579 157.223 302.304 156.448 306.404 156.448C310.204 156.448 313.554 157.073 316.454 158.323C319.354 159.523 321.679 161.248 323.429 163.498C325.179 165.748 326.204 168.473 326.504 171.673H318.854C318.004 169.023 316.454 166.973 314.204 165.523C312.004 164.023 309.404 163.273 306.404 163.273C303.954 163.273 301.704 163.773 299.654 164.773C297.604 165.723 295.954 167.148 294.704 169.048C293.504 170.898 292.904 173.223 292.904 176.023C292.904 178.773 293.504 181.098 294.704 182.998C295.954 184.898 297.604 186.323 299.654 187.273C301.704 188.173 303.954 188.623 306.404 188.623C309.704 188.623 312.404 187.898 314.504 186.448C316.654 184.948 318.129 182.848 318.929 180.148H326.579ZM333.914 157.273H342.239V194.623H333.914V157.273ZM355.739 164.398C353.039 164.398 350.714 164.973 348.764 166.123C346.864 167.273 345.339 168.673 344.189 170.323C343.039 171.973 342.239 173.573 341.789 175.123L341.714 170.923C341.764 170.373 341.939 169.548 342.239 168.448C342.539 167.298 342.989 166.048 343.589 164.698C344.239 163.348 345.089 162.048 346.139 160.798C347.239 159.498 348.564 158.448 350.114 157.648C351.714 156.848 353.589 156.448 355.739 156.448V164.398ZM393.239 182.323H401.264C400.864 184.873 399.864 187.148 398.264 189.148C396.714 191.098 394.589 192.648 391.889 193.798C389.189 194.898 385.964 195.448 382.214 195.448C377.964 195.448 374.164 194.673 370.814 193.123C367.464 191.523 364.839 189.273 362.939 186.373C361.039 183.473 360.089 180.023 360.089 176.023C360.089 172.073 361.014 168.623 362.864 165.673C364.714 162.723 367.264 160.448 370.514 158.848C373.814 157.248 377.614 156.448 381.914 156.448C386.364 156.448 390.064 157.248 393.014 158.848C396.014 160.398 398.239 162.748 399.689 165.898C401.139 168.998 401.739 172.923 401.489 177.673H368.564C368.814 179.773 369.489 181.673 370.589 183.373C371.739 185.023 373.289 186.323 375.239 187.273C377.189 188.173 379.464 188.623 382.064 188.623C384.964 188.623 387.389 188.048 389.339 186.898C391.339 185.748 392.639 184.223 393.239 182.323ZM381.689 163.198C378.289 163.198 375.489 164.048 373.289 165.748C371.089 167.398 369.664 169.523 369.014 172.123H393.089C392.889 169.323 391.764 167.148 389.714 165.598C387.664 163.998 384.989 163.198 381.689 163.198ZM425.564 195.448C422.114 195.448 418.964 194.623 416.114 192.973C413.314 191.323 411.089 189.048 409.439 186.148C407.789 183.198 406.964 179.823 406.964 176.023C406.964 172.123 407.764 168.723 409.364 165.823C411.014 162.873 413.214 160.573 415.964 158.923C418.764 157.273 421.964 156.448 425.564 156.448C428.714 156.448 431.364 156.973 433.514 158.023C435.664 159.023 437.364 160.423 438.614 162.223C439.864 163.973 440.764 166.023 441.314 168.373C441.914 170.723 442.214 173.273 442.214 176.023C442.214 178.073 441.914 180.248 441.314 182.548C440.714 184.798 439.764 186.898 438.464 188.848C437.214 190.798 435.514 192.398 433.364 193.648C431.264 194.848 428.664 195.448 425.564 195.448ZM428.114 188.548C430.914 188.548 433.289 188.023 435.239 186.973C437.239 185.873 438.739 184.373 439.739 182.473C440.789 180.573 441.314 178.423 441.314 176.023C441.314 173.373 440.789 171.123 439.739 169.273C438.689 167.373 437.189 165.898 435.239 164.848C433.289 163.798 430.914 163.273 428.114 163.273C424.114 163.273 421.014 164.473 418.814 166.873C416.614 169.223 415.514 172.273 415.514 176.023C415.514 178.473 416.039 180.648 417.089 182.548C418.189 184.448 419.689 185.923 421.589 186.973C423.489 188.023 425.664 188.548 428.114 188.548ZM441.314 142.273H449.714V194.623H441.914C441.814 193.473 441.689 192.048 441.539 190.348C441.389 188.648 441.314 187.123 441.314 185.773V142.273ZM470.08 141.448V149.473H460.105V141.448H470.08ZM460.855 157.273H469.255V194.623H460.855V157.273ZM476.601 157.273H503.001V164.098H476.601V157.273ZM485.601 147.223H494.001V194.623H485.601V147.223Z" fill="#23A323"/>
<path d="M34.1884 50.4096C34.8684 50.4096 35.5084 51.0096 35.3884 52.0896C35.2684 52.9696 34.5084 54.3696 34.2284 55.2096C34.2284 55.2096 24.8684 80.2896 27.8684 85.0496C28.4684 85.9696 30.7884 83.2096 31.4284 82.0096C31.7084 82.4496 29.8684 84.8496 29.3484 84.8496C29.1484 85.2896 29.9084 85.0496 30.7484 83.8096C31.2284 82.9696 31.9484 82.9296 31.5884 84.1696C31.1084 85.2096 30.1884 86.3696 29.1084 86.4096C28.0684 86.4496 27.1884 86.0896 26.5084 84.9696C25.2684 83.0096 25.2284 78.7696 26.1084 74.6096C27.4684 69.9296 26.5884 71.3296 28.6284 65.4096C25.7884 70.7296 23.4684 75.7296 18.9084 80.2096C17.2284 81.8096 11.5484 86.8896 9.30844 82.0496C9.26844 81.5696 9.30844 81.2096 9.34844 81.1296C9.38844 80.9696 9.38844 80.8096 9.30844 80.8096C9.26844 80.8096 9.18844 80.7296 9.18844 80.3696C9.18844 80.0096 9.22844 79.4096 9.34844 78.5296L9.38844 78.4896C9.70844 76.4496 9.70844 76.8096 9.70844 76.9296C9.66844 77.6096 9.74844 77.2896 9.90844 76.4496C10.0284 75.8096 10.1884 75.0096 10.1884 74.7296C10.1884 74.6096 10.2684 74.2896 10.3484 73.8896C10.4684 73.2496 10.6684 72.3696 10.9884 71.3296C11.4284 69.8096 11.7084 68.7696 11.5884 69.1296C11.5484 69.2096 11.6284 69.0496 11.7484 68.6096C12.1884 66.9296 12.9484 64.4096 14.3084 60.1296C14.4684 59.6096 14.7084 58.9296 14.9084 58.2496C15.3084 56.9296 15.6684 55.8496 15.8684 55.0896C16.0684 54.3296 16.0284 54.5296 15.6284 55.6896C15.3484 56.5696 15.0684 57.4896 14.8284 58.2096C14.4284 59.4496 14.0684 60.2896 14.0684 60.2896C14.0284 60.2896 13.9484 60.6096 13.8284 61.1296C13.7484 61.4896 12.2684 66.4496 11.6284 68.5696C11.4284 69.2096 11.3084 69.6496 11.2284 69.8896C10.9084 70.7696 10.3884 72.7696 10.1484 73.8496C10.1084 74.1296 10.0684 74.2896 10.0684 74.2496C10.2284 73.9296 10.0284 74.7696 9.74844 75.4496C9.54844 75.9296 9.54844 76.0896 9.58844 76.2896C9.62844 76.4096 9.50844 77.0896 9.38844 77.8096C9.38844 77.8096 9.30844 78.1696 9.26844 78.5296C9.22844 78.8096 9.18844 79.0496 9.18844 79.0496C9.18844 78.8896 9.22844 78.6896 9.22844 78.5296C9.22844 78.3296 9.30844 78.0496 9.30844 77.8496C9.34844 77.4096 9.50844 76.0096 9.14844 78.2096C9.14844 78.2896 9.10844 78.4096 9.10844 78.4896C8.98844 79.2896 9.02844 79.8096 9.06844 79.8096C9.14844 79.8096 9.10844 79.9296 9.02844 80.1696C8.94844 80.3696 8.86844 80.8896 8.86844 81.3296C8.86844 81.6896 8.74844 80.3696 9.02844 78.4896C9.06844 78.0896 9.14844 77.6896 9.22844 77.2496C9.46844 75.9296 9.78844 74.6496 9.98844 73.8096C10.1484 73.0096 10.2684 72.4496 10.2684 72.3696C10.2684 72.2096 10.1084 72.6096 9.94844 73.2896C9.90844 73.4496 9.86844 73.6496 9.82844 73.7696C9.58844 74.6096 9.46844 74.6896 9.62844 73.6896C9.62844 73.6096 9.66844 73.4896 9.66844 73.3696L9.70844 73.3296C9.86844 72.6496 10.0684 72.0096 10.2284 71.3296C10.2684 71.2496 10.2684 71.2096 10.3084 71.0896C10.3884 70.8096 10.5084 70.4896 10.5884 70.2096C10.7884 69.5696 10.9884 69.0096 11.1484 68.3696C11.1884 68.2496 11.1884 68.1296 11.2284 68.0096C11.2284 68.0496 11.1884 68.0896 11.1884 68.1296L11.2284 68.0896C11.2284 68.0496 11.2684 67.9696 11.2684 67.9296C11.4284 67.3296 11.6284 66.7696 11.7884 66.1696C11.6684 66.4896 11.8284 66.1296 11.9484 65.6896C12.0284 65.4096 12.0684 65.3296 12.1484 65.0496C12.2684 64.7296 12.3884 64.4096 12.4684 64.0896C12.5884 63.8496 12.5484 63.9296 12.4284 64.4096C11.9084 66.0896 12.4284 64.9696 12.7084 64.0496C12.9884 63.2096 13.0684 62.9296 12.9084 63.0896C12.8684 63.1696 12.7884 63.1296 12.7884 63.0896C12.9884 62.4496 13.0284 62.3696 13.2284 61.7296C13.2284 61.8096 13.6284 60.4496 13.6284 60.5296C13.6284 60.4496 13.7084 60.3696 13.7084 60.2896C13.7084 60.2496 13.7484 60.2096 13.7484 60.1696C14.2284 58.8496 14.0284 59.3296 14.3084 58.4096L14.4284 58.0496L14.4684 57.9696C14.4684 57.9296 14.5084 57.8896 14.5084 57.8496C14.5484 57.7296 14.5884 57.5696 14.6284 57.4496C14.7084 57.2496 14.7884 56.9696 14.9084 56.6096C14.7084 57.2496 14.6684 57.4096 14.4684 58.0496C13.6684 60.5696 13.0684 62.4896 13.1084 62.4896C13.1484 62.4896 13.8284 60.5296 14.6284 58.1296C14.7884 57.5696 14.9884 56.9696 15.1484 56.4096C15.4284 55.5296 15.5884 54.7696 15.6684 54.1696C15.7084 53.8496 15.7884 53.5296 15.7884 53.2896C15.7884 53.0896 15.8684 52.9296 15.9084 52.7696C16.0284 52.4096 16.1884 52.2496 16.4284 52.2096C16.6684 52.1696 16.9484 52.1696 17.2284 52.2496C17.7884 52.4496 18.2684 52.9696 18.2284 53.5296L18.1884 53.6096C18.0284 54.3296 18.1084 53.9696 17.9884 54.6896C17.9484 54.7696 17.9084 54.8896 17.9084 54.9696L17.5484 56.1696C17.2284 57.5696 16.9884 58.3696 16.8284 58.9696C16.5084 60.0496 16.2684 60.6496 15.4684 63.4096C14.9484 65.0096 14.3084 67.0896 13.6684 69.2496C13.1884 70.9296 12.7484 72.6896 12.3084 74.4896C11.7484 76.8496 10.3084 81.5696 11.0684 82.3696C11.8284 83.1696 14.5084 82.3696 16.7084 80.1296C23.7484 72.9696 27.5484 64.2096 31.2684 56.8896C31.5484 56.0096 31.7484 55.3696 31.7484 55.3696C32.3084 53.5296 32.7884 52.0496 33.5484 50.6096C33.7484 50.4496 33.9884 50.4096 34.1884 50.4096ZM32.9084 55.9696C32.9084 55.9696 32.8684 56.0496 32.8284 56.0496C32.8284 56.0496 32.4284 57.0496 32.1084 58.0096C32.1884 57.8896 32.2284 57.8496 32.2284 57.8496C32.2684 57.8496 32.1084 58.3696 31.7084 59.2496C31.6684 59.4096 31.6284 59.5296 31.6284 59.6096C31.6284 59.7296 31.6684 59.6496 31.7484 59.4896L31.7884 59.4496C32.0684 58.7296 32.2684 58.2496 32.4284 57.8896C32.7884 56.9296 33.1084 55.9696 32.9084 55.9696ZM30.4684 59.2896C28.8284 62.6496 26.4684 67.4496 24.8284 70.0496C25.3484 69.4096 24.9484 69.7296 25.4284 69.2896C25.5084 69.0496 26.3884 67.6896 27.3884 65.8496C28.3084 64.1696 29.1484 62.5696 29.9884 60.8896C30.1484 60.3296 30.3084 59.8096 30.4684 59.2896ZM31.5084 59.9696C31.3084 60.3696 31.1084 60.8096 30.9084 61.3296C30.9884 61.2096 31.1484 60.9696 31.2684 60.6496C31.3884 60.2896 31.4684 60.0496 31.5084 59.9696ZM30.7484 62.2896C30.5884 62.6496 30.4284 62.9696 30.3084 63.2496C30.2684 63.4096 30.1884 63.6096 30.1484 63.7696L30.2684 63.5296C30.3484 63.3696 30.4284 63.1296 30.5484 62.8896C30.5884 62.6896 30.7084 62.4496 30.7484 62.2896ZM29.5084 62.4496C28.9084 63.6496 28.2684 64.8896 27.5884 66.0896C26.5484 68.0096 25.6284 69.4896 25.3884 69.8496C25.0684 70.3696 24.7884 70.8096 24.5484 71.1696C23.7884 72.3696 23.4684 72.8496 23.6684 72.6496C23.7884 72.4896 24.1484 72.0096 24.6284 71.2496C26.0684 69.0096 27.7084 66.0896 29.3884 62.7696C29.4284 62.6496 29.4684 62.5296 29.5084 62.4496ZM30.4684 63.1696C30.3484 63.4496 30.1884 63.7296 30.0684 64.0096C29.4284 66.1296 28.8284 68.4496 28.1084 69.9696C28.1884 70.4896 27.3484 74.6496 27.1084 74.0096C26.9884 73.4896 27.7884 70.8496 27.9884 70.2096V70.2496C27.8284 70.6896 29.2284 65.7696 29.0684 66.0496C25.5484 76.2896 25.7484 80.7696 26.0284 81.0096C25.8684 80.0096 26.5084 74.8496 26.7084 75.2496C26.6284 75.4096 26.0284 82.2496 26.4284 81.3696C26.4284 81.3296 26.5484 81.2896 26.6284 80.8896C26.3484 81.4096 26.7884 78.7696 26.6284 78.8496C26.4684 78.8896 26.5884 78.1296 26.8684 76.8496C26.8284 76.8496 26.8284 76.7696 26.7884 76.7296C26.6284 76.1296 27.2684 74.2896 27.2684 74.2896C27.3084 74.3296 27.3884 74.4896 27.3884 74.6896C28.2284 71.2496 29.5484 66.3696 30.4684 63.1696ZM29.1084 63.6896C28.6284 64.6096 28.1484 65.5296 27.6684 66.4096C26.6684 68.2496 25.8684 69.5296 25.9084 69.4896C25.9484 69.4496 26.9084 67.9296 27.9884 66.0096C28.3084 65.4096 28.6684 64.8496 28.9484 64.2896C28.9884 64.0896 29.0684 63.8896 29.1084 63.6896ZM11.9084 66.2896C11.8684 66.2896 11.5884 67.1696 11.2284 68.4096C11.2284 68.4496 11.1484 68.5296 11.1484 68.5696C10.7484 69.9696 10.4284 71.2096 10.4284 71.3696C10.4284 71.4496 10.4684 71.3296 10.5884 70.9696C10.7084 70.6096 10.8684 70.0896 11.0684 69.4096C11.0684 69.3296 11.1484 69.2096 11.1484 69.1296C11.1884 68.8896 11.3084 68.6496 11.3484 68.4496C11.6684 67.3296 11.9084 66.4496 11.9084 66.3296V66.2896ZM12.1484 66.3696C12.1484 66.3696 11.9884 66.7296 11.8284 67.2896C11.5884 68.0896 11.5884 68.2896 11.7084 67.8896L11.8284 67.5296C11.8684 67.4096 11.9084 67.2496 11.9484 67.1296C12.0284 66.8896 12.0684 66.6496 12.1084 66.4896C12.1084 66.4096 12.1484 66.3696 12.1484 66.3696ZM26.1084 68.4896C26.1084 68.4896 26.0284 68.5696 25.9884 68.6496C25.8684 68.8496 25.7084 69.0896 25.5884 69.2896C25.4684 69.4896 25.3484 69.7696 25.2684 69.8896C25.1484 70.1296 25.3484 69.8896 25.7484 69.1696C26.0284 68.6496 26.1084 68.4896 26.1084 68.4896ZM9.46844 75.1296C9.46844 75.1296 9.38844 75.5296 9.22844 76.2896L9.10844 76.8096C9.02844 77.2096 8.98844 77.5696 8.94844 77.8096C8.82844 78.4496 8.78844 78.6896 8.82844 78.0096C8.86844 77.3696 8.94844 76.8496 9.02844 76.4896C9.10844 76.0896 9.22844 75.7696 9.34844 75.3696C9.38844 75.2496 9.46844 75.1296 9.46844 75.1296ZM9.54844 78.8496C9.50844 78.8496 9.46844 79.0496 9.42844 79.3296C9.38844 79.6096 9.38844 79.8096 9.42844 79.8096C9.46844 79.8096 9.54844 79.5696 9.58844 79.3296C9.62844 79.0896 9.58844 78.8496 9.54844 78.8496ZM26.5084 82.0496C26.4284 83.3296 26.7084 83.8896 26.7484 83.8896C26.7884 83.8896 26.7084 83.2896 26.5084 82.0496ZM31.0684 83.9296C31.0284 83.9296 30.9084 84.1296 30.9084 84.1296C30.9084 84.1296 30.1484 85.1696 29.9484 85.1696L29.9084 85.1296L29.9484 85.1696C30.0284 85.2096 30.0684 85.3296 30.2284 85.2496C30.4284 85.2496 30.7884 84.8496 31.0684 84.2896C31.1484 84.0496 31.0684 83.9296 31.0684 83.9296ZM38.1444 71.8896C39.9444 69.8096 43.7844 67.1296 45.7444 69.9296C46.5844 71.1296 46.4644 73.2896 45.7044 73.9296C45.3044 74.2896 45.2644 74.2896 44.6244 74.7296C46.3044 73.8496 48.4244 72.7696 50.4644 71.9696C50.1844 72.1696 49.4644 72.5696 47.7044 73.6096C47.0644 74.0496 52.3844 71.0896 52.4644 71.3296C52.4644 71.4096 51.2644 72.1296 47.7444 74.0096C46.5044 74.8096 46.3844 74.8496 46.1444 75.0096C47.3444 74.5296 48.6244 73.4496 50.1444 73.0896C47.9844 74.3696 47.5444 74.6896 45.0244 76.1696C44.7844 76.4096 43.1444 79.0096 41.3044 79.9696C39.5044 80.9296 38.1444 79.5296 39.2644 78.2896C40.7844 76.6496 42.3844 75.9696 43.1844 75.4896C43.6244 75.2496 45.8244 70.8096 44.5044 70.0096C42.7044 68.9296 37.8244 74.0096 37.4644 75.0096C35.7044 77.5696 34.4244 80.9696 34.0644 82.0496C33.2244 84.6496 31.9844 88.0496 31.8644 88.8496C31.8644 89.0096 31.7844 89.2896 31.7044 89.6496L31.4644 90.0896C30.5844 93.2496 30.7044 92.8096 30.2644 94.8496C29.7044 95.0496 31.2244 89.6096 31.4244 89.3296C31.5844 89.1296 32.4644 86.2896 31.9444 87.7296C31.7444 88.2896 31.5044 88.4496 31.8244 87.3696C32.0244 86.7696 32.3044 86.2896 32.2644 86.3696C32.2244 86.4096 32.2644 86.2096 32.3444 85.8496C33.0244 83.6896 30.8244 88.9296 31.0244 89.4896C30.9844 89.6496 30.9444 89.7696 30.9044 89.9296C30.7844 90.6096 30.5844 91.2496 30.3444 91.9296C29.6244 95.3696 29.3044 99.5696 30.2644 99.1296C30.7044 98.9296 31.3444 98.4896 32.0644 97.9296C31.5044 98.6496 30.5044 99.4496 31.9444 98.3296C32.1044 98.2096 32.8244 97.4896 32.7844 97.5696C32.7044 97.7296 31.0644 99.6496 32.2644 98.7296C32.3444 98.6896 32.0644 99.7296 30.8644 100.13C29.2644 100.57 28.4644 98.8496 28.3444 97.6896C27.9444 93.7296 30.2644 87.2896 31.8244 82.1696C32.9844 78.8496 34.4644 75.0096 35.7444 72.1696C36.0644 71.6496 36.9444 68.6096 37.3844 69.3296C38.2244 69.5696 38.7444 70.6096 38.5444 71.2096C38.3844 71.6896 37.7444 72.2496 38.1444 71.8896ZM43.3044 69.6096C42.3044 69.8896 41.4644 70.1696 40.0644 71.4096C40.7844 71.0496 40.5444 70.8896 41.8244 70.2896C42.0244 70.1296 43.3044 69.6096 43.3044 69.6096ZM39.5844 71.2096C40.1844 70.7296 41.9444 69.3296 41.5044 69.6896C41.3444 69.8496 39.5444 70.5696 38.0244 72.6896C38.0244 72.7296 39.0644 71.6096 39.5844 71.2096ZM36.8244 75.0496C35.9044 75.4896 34.0244 80.0496 33.6644 81.4096C34.1844 80.3696 35.3044 76.9696 36.8244 75.0496ZM42.9844 77.2096C42.9844 77.2096 39.9444 79.1296 40.3444 78.9296C40.6644 78.7696 41.4244 78.3696 42.9844 77.2096ZM33.3444 82.3296L33.3044 82.3696C33.1844 82.5296 32.8644 83.2896 32.7044 83.8496C32.6244 84.0896 32.5444 84.3296 32.5444 84.4096C32.5444 84.5696 32.6244 84.4896 32.7044 84.1696C32.7844 83.9296 32.9844 83.4096 33.1444 82.9696C33.1844 82.8496 33.2244 82.7296 33.2644 82.6496C33.2644 82.6096 33.3044 82.5696 33.3044 82.5696V82.4896C33.3444 82.4096 33.3444 82.3296 33.3444 82.3296ZM32.1444 86.0496C32.1444 86.0496 32.1044 86.0896 32.1044 86.1696V86.2096C32.0644 86.3296 32.0644 86.3696 32.1044 86.2896C32.1044 86.2496 32.1444 86.2096 32.1444 86.1696C32.1444 86.1296 32.1844 86.0496 32.1844 86.0496H32.1444ZM31.2644 86.6096C30.5444 87.2496 28.3044 96.0896 29.1044 96.8096C28.9444 96.1696 29.5444 91.9696 29.9044 91.4496V90.4496C30.1444 90.6896 31.3444 86.7696 31.2644 86.6096ZM59.3778 53.1696C60.0978 53.1696 60.8978 53.9696 60.3378 54.8096C59.4578 56.8896 58.8978 58.1696 58.5378 59.0096C58.6578 59.0096 58.7778 58.9696 58.9378 58.9696C61.2178 58.8896 65.2178 58.6496 68.0978 58.6496H69.2578C72.5378 58.6496 75.4578 58.7696 79.0178 58.9696C79.3378 59.0496 79.5778 59.0496 79.2578 59.0896C78.6978 59.1296 77.1778 59.1696 75.4178 59.1696C75.7378 59.2096 75.5378 59.1696 75.7778 59.2496C76.0578 59.1696 81.4578 59.2896 81.4578 59.3696C81.4578 59.4096 76.1378 59.4096 75.6178 59.4096C74.6178 59.4096 74.2178 59.4096 74.3378 59.4496C75.0178 59.4896 84.8978 59.3696 81.7778 59.5296C81.2178 59.5296 75.7378 59.5296 75.8178 59.5296C75.8578 59.5296 80.9378 59.6496 80.6978 59.6496C80.3778 59.6496 80.3378 59.6496 80.5778 59.6496C80.7378 59.6496 80.8978 59.7296 80.8978 59.7296C80.8978 59.7696 80.4578 59.7296 79.7378 59.7296C77.9778 59.6896 76.6178 59.6896 72.3378 59.6896C69.0178 59.6896 67.6978 59.7296 67.5778 59.6896C67.4578 59.6496 67.4178 59.6496 67.4178 59.6896C67.4178 59.7296 67.1778 59.7296 66.8178 59.7296C66.4978 59.7296 66.1378 59.7296 66.0978 59.6896C66.0578 59.6496 65.9778 59.6896 65.9778 59.7296C65.9778 59.7696 65.8178 59.8496 65.0978 59.8496C64.4578 59.8496 64.3378 59.8496 64.5378 59.8096C64.7378 59.7696 64.6978 59.7696 64.3378 59.7696C64.0978 59.7696 63.7778 59.8096 63.6578 59.8496C63.5378 59.8896 63.0578 59.8896 62.3778 59.8896C61.7778 59.8896 61.3778 59.9696 61.4978 59.9696C61.6178 59.9696 60.3778 60.0096 58.8578 60.0896C58.8178 60.0896 58.7378 60.1696 58.6978 60.1696C59.5378 60.1296 61.4578 60.0096 61.8178 60.0096C62.2178 60.0096 63.5378 59.9696 63.4978 59.9696C63.3778 59.9296 63.7378 59.9296 63.9778 59.9696C64.1778 60.0096 64.2578 60.0096 64.2978 59.9696C64.3378 59.9296 64.5778 59.8896 64.8578 59.8896H65.3378C65.1778 59.8896 65.0578 59.9296 64.8978 59.9296C64.4578 59.9696 64.4978 59.9696 65.0578 59.9696C65.4178 59.9696 65.6178 59.9296 65.6178 59.8896C65.6178 59.8496 65.6978 59.8496 65.7778 59.8896C65.8578 59.8896 66.0178 59.9696 66.1778 59.9696C66.3378 59.9696 65.6578 60.0096 64.6978 60.0096C63.7378 60.0096 62.8578 60.1296 62.8178 60.1296C62.7778 60.1296 62.9378 60.1696 63.1778 60.1696C63.7778 60.1696 63.7778 60.2096 63.2578 60.2896H63.2178C62.9778 60.2896 62.6578 60.3296 62.4178 60.3296H62.3378C62.2178 60.3296 62.0978 60.2896 61.9778 60.2896C61.6578 60.2896 61.4178 60.3296 61.1378 60.3296H61.1778H61.1378H61.0978C60.8578 60.3296 60.6578 60.3696 60.4178 60.3696C60.5378 60.3696 60.3778 60.3696 60.2178 60.3696H59.9778H59.5778C59.4978 60.3696 59.4978 60.3296 59.6978 60.3296C60.1378 60.3296 60.1378 60.2496 59.5378 60.2496C59.1778 60.2496 59.0978 60.2896 59.1778 60.3296C59.2178 60.3296 59.1778 60.4096 59.1778 60.4096H58.6578C58.4978 60.4096 58.3378 60.4496 58.1778 60.4496V60.4896C58.1778 60.4896 57.9778 60.5296 57.8578 60.5296C55.7778 64.7696 48.6178 80.0496 51.5778 83.7696C52.1778 84.4896 54.4978 82.2896 55.0978 81.3696C55.3778 81.6896 53.5778 83.6096 53.0578 83.6096C52.8578 83.9696 53.5778 83.7696 54.4178 82.8096C54.8978 82.1296 55.5378 82.0896 55.2178 83.0496C54.7378 83.8496 53.8178 84.8096 52.7778 84.8096C51.7378 84.8096 50.8978 84.5696 50.2178 83.6896C49.0178 82.1296 48.9378 78.8496 49.8178 75.6096C51.2978 70.4496 53.2578 65.6096 55.3778 60.7696C54.7778 60.8096 54.4978 60.8496 53.7378 60.8496C51.2578 61.0496 48.6578 61.2896 47.7778 61.4496C47.5778 61.4896 48.1778 61.7296 48.0578 61.7696C46.8578 62.0896 45.6978 61.8496 45.6978 61.2896C45.6978 60.6496 45.7778 60.2896 46.5778 60.0096C46.7778 60.0096 46.9378 60.0496 47.0978 60.0496C49.0578 59.8496 49.1378 59.7696 51.8178 59.5296C53.1778 59.4096 54.5378 59.2896 55.8978 59.2096C55.9378 59.2096 56.0178 59.1696 56.0578 59.1696C56.8178 57.4096 57.4578 55.8496 58.5778 53.8096C58.6978 53.3696 58.9778 53.1696 59.2978 53.1696H59.3778ZM75.8178 59.3296H76.0978C76.2578 59.3296 76.1778 59.3696 75.8978 59.3696C75.6178 59.3696 75.4578 59.3296 75.5778 59.3296H75.8178ZM67.6178 59.4496H67.8178C68.0578 59.4496 67.9378 59.4496 67.5378 59.4496C67.1378 59.4496 66.9378 59.4496 67.0978 59.4496H67.4578H67.6178ZM67.7778 59.5696C67.9778 59.5696 68.1378 59.6096 68.0978 59.6096H67.6578H66.8578C66.8578 59.6096 67.1778 59.5696 67.5378 59.5696H67.7778ZM54.8178 59.6096V59.6496C54.7378 59.6496 54.7378 59.6096 54.8178 59.6096ZM79.6178 59.6496H79.8578C79.9778 59.6496 79.9378 59.6896 79.7378 59.6896H79.6578C79.4978 59.6896 79.4578 59.6496 79.4978 59.6496H79.6178ZM54.3778 59.6496H54.5378L53.6178 59.7296H53.6578C53.2978 59.7696 51.8978 59.8896 51.7778 59.8896C51.1778 59.8896 53.4978 59.6496 54.3778 59.6496ZM65.4178 59.6496C65.4978 59.6496 65.6178 59.6896 65.6178 59.6896C65.6178 59.6896 65.4978 59.7296 65.4178 59.7296C65.3378 59.7296 65.2178 59.6896 65.2178 59.6896C65.2178 59.6896 65.3378 59.6496 65.4178 59.6496ZM77.4978 59.7696C76.1778 59.7696 74.1778 59.8096 71.9378 59.8096H70.0978C68.6578 59.8096 68.2978 59.8496 68.2578 59.8896C68.1778 59.9296 68.3778 59.9296 69.4578 59.9296C71.1378 59.8896 71.4978 59.9296 70.8178 59.9696C70.3378 60.0096 70.3378 60.0096 71.1378 60.0096C71.8178 60.0096 71.9778 60.0096 71.6978 60.0496C71.2578 60.0896 70.3378 60.0496 70.1778 60.0096H69.0978C68.5378 60.0096 68.2578 60.0496 68.3778 60.0496C68.8978 60.0896 68.7378 60.1696 68.1778 60.1696C67.7378 60.1696 67.6578 60.1696 67.7378 60.0896C67.8178 60.0096 67.8178 60.0096 67.5778 60.0496C67.4178 60.0896 67.3378 60.1696 67.3778 60.1696C67.3778 60.1696 67.4178 60.2096 67.3778 60.2096C67.6178 60.2096 67.8578 60.1696 68.0978 60.1696H69.5778C70.0978 60.1696 70.5378 60.1296 71.0578 60.1296H73.0978H73.6578C73.7778 60.1296 73.8978 60.0896 73.9378 60.0896H74.2578H74.3778H74.3378H74.6578C74.5778 60.0896 74.4178 60.0096 74.2978 60.0096C73.7778 59.9296 73.4578 59.9296 72.6178 60.0096C72.3778 60.0096 72.3378 60.0496 72.4978 60.0096C72.6978 59.9696 72.6978 59.9296 72.4978 59.9296C72.4178 59.9296 72.8978 59.8896 73.6978 59.8896H74.5778C75.9378 59.8896 76.9778 59.9296 77.0978 59.9296C77.2178 59.9696 77.1778 59.9696 76.9378 59.9696C76.7378 59.9696 76.2178 59.9296 75.7378 59.9296C74.8978 59.9296 74.8978 59.9296 74.9778 60.0096L75.0178 60.0496H76.0978H77.5778H78.8578H79.1778C79.0178 60.0096 78.7378 60.0096 78.6178 60.0096H78.2578C78.2178 60.0096 79.3378 59.9296 81.2978 59.9296C81.5378 59.9296 81.7378 59.8896 81.9378 59.8896C81.8578 59.8896 81.8178 59.8496 81.7378 59.8496C81.7778 59.8496 81.7378 59.8096 81.6578 59.8096C81.5778 59.8096 81.4578 59.8096 81.4578 59.8496C81.4578 59.8896 81.3778 59.8896 81.2578 59.8496C81.1378 59.8096 80.8578 59.8096 80.2578 59.8096H79.4178C79.4178 59.8096 78.5778 59.7696 77.4978 59.7696ZM81.9378 59.8896C83.4178 60.1296 83.5378 59.8096 81.9378 59.8896V59.8896ZM71.7778 59.9296H72.0178C72.1378 59.9296 72.0178 59.9296 71.7778 59.9296C71.5378 59.9296 71.4578 59.9296 71.5778 59.9296H71.7778ZM67.4578 59.9296H67.2978C67.2578 59.9296 67.2978 59.9696 67.4578 59.9696H67.5378C67.7378 59.9696 67.7378 59.9296 67.6178 59.9296H67.5378H67.4578ZM76.3778 60.0096H76.6578C76.8178 60.0096 76.6978 60.0496 76.4178 60.0496C76.1378 60.0496 75.9778 60.0096 76.0978 60.0096H76.3778ZM60.8978 60.1296H61.0178C61.1778 60.1296 61.0978 60.1696 60.8178 60.1696C60.5378 60.1696 60.3778 60.1296 60.4978 60.1296H60.7378H60.8978ZM64.8978 60.1296H64.5378H64.2978C63.8578 60.1296 63.8178 60.2096 63.9778 60.2096H64.4178C64.5778 60.2096 64.7378 60.2096 64.9778 60.1696C65.1778 60.1696 65.1778 60.1296 64.8978 60.1296ZM62.2578 60.1696C62.3778 60.1696 62.4578 60.2096 62.4578 60.2096C62.4178 60.2096 61.8978 60.2896 61.3378 60.2896C60.7778 60.2896 60.3778 60.2896 60.4178 60.2896C60.4578 60.2896 60.9778 60.2096 61.5378 60.2096C61.5778 60.2096 61.6178 60.1696 61.6578 60.1696H62.2578ZM52.6178 60.1696H52.6578C52.6978 60.1696 52.6978 60.2096 52.6578 60.2096C52.4978 60.2496 51.7778 60.3696 50.9778 60.3696C51.1378 60.3296 52.2578 60.1696 52.6178 60.1696ZM58.6978 60.3296H58.9378C58.9378 60.3296 58.6578 60.4096 58.2178 60.4096V60.3696C58.2578 60.3696 58.2978 60.3296 58.3378 60.3296H58.6978ZM50.9378 60.7696C51.0178 60.7696 51.1778 60.8096 51.2578 60.8096C50.8178 60.8496 50.7778 60.8496 50.9378 60.7696ZM56.5378 61.1296C56.5378 61.1296 56.4978 61.1696 56.4578 61.1696C56.4578 61.1696 55.3378 63.4896 55.2978 63.9296C55.2578 64.4096 56.9378 61.0896 56.5378 61.1296ZM55.1378 64.2096C53.9778 65.9696 53.0578 69.9296 51.8178 72.0096C51.8978 72.4096 51.0578 75.6896 50.8178 75.1696C50.6978 74.7696 51.5378 72.6896 51.7378 72.1696L51.6978 72.2096C51.5378 72.5296 52.8978 68.6896 52.7378 68.9296C49.2578 76.8896 49.4578 80.4096 49.7378 80.6096C49.5778 79.8096 50.2178 75.8496 50.4178 76.1296C50.3378 76.2496 49.7378 81.5696 50.1378 80.8896C50.1378 80.8496 50.2578 80.8496 50.3378 80.5296C50.0578 80.9296 50.4978 78.8896 50.3378 78.9296C50.1778 78.9696 50.2978 78.3296 50.5778 77.3296C50.5378 77.3296 50.5378 77.2896 50.4978 77.2496C50.3378 76.8096 50.9378 75.4096 50.9378 75.4096C50.9778 75.4496 51.0578 75.5296 51.0578 75.6896C52.3378 71.4896 54.8178 64.6896 55.1378 64.2096ZM50.2178 81.4096C50.1378 82.4096 50.4178 82.8496 50.4578 82.8496C50.4978 82.8496 50.4178 82.3696 50.2178 81.4096ZM54.7378 82.8896C54.6978 82.8896 54.5778 83.0496 54.5778 83.0496C54.5778 83.0496 53.8178 83.8496 53.6178 83.8496H53.5778H53.6178C53.6578 83.8496 53.7378 83.9296 53.8978 83.8896C54.0978 83.8896 54.4178 83.6096 54.6978 83.1696C54.7778 83.0096 54.7378 82.8896 54.7378 82.8896ZM66.2181 73.0096C65.6981 73.4896 67.3381 72.8896 69.2581 71.7696C69.3381 71.7296 70.1381 71.2896 69.8981 71.5296C69.4581 72.0096 68.2581 72.8896 68.3381 72.8496C68.5381 72.7696 70.2581 71.6896 70.2981 71.7696C70.3381 71.8496 69.0981 72.8496 67.6181 73.6896C67.2181 73.9296 66.1781 74.4496 64.2981 74.9296C63.6981 76.0096 62.7381 77.6496 61.1781 78.7696C60.2181 79.3696 59.1381 79.3296 57.9381 78.0096C55.4581 75.3296 60.4181 69.9296 60.4981 69.8896C61.1781 69.4096 61.5781 70.2096 62.5781 69.8896C62.8981 69.7296 63.9381 70.0096 64.6581 70.9696C65.0981 71.5696 64.8581 73.3296 64.8181 73.4096C65.6581 73.1696 66.1781 72.8096 67.4981 72.2896C67.8981 72.1296 68.7781 71.7296 68.9381 71.6096C69.4181 71.8096 65.9781 73.1696 66.2181 73.0096ZM68.8581 72.1696C68.1381 72.6096 66.9781 73.1696 66.4581 73.3696C66.3381 73.5296 68.4981 72.6496 68.8581 72.1696ZM62.9381 71.3296H62.8981H62.8581C61.9381 71.4496 61.6181 73.7296 62.4181 73.8896C63.0581 73.8096 63.4181 71.3296 62.9381 71.3296ZM60.6181 73.4096C60.6181 73.4096 57.9781 77.6896 59.4581 77.8096C60.7781 77.8896 62.3381 74.8096 62.3781 74.7696C61.3381 74.5696 60.8981 73.8096 60.6181 73.4096Z" fill="black"/>
</g>
<defs>
<filter id="filter0_d_5018_41309" x="65.3535" y="-2.48828" width="460.934" height="151.652" filterUnits="userSpaceOnUse" color-interpolation-filters="sRGB">
<feFlood flood-opacity="0" result="BackgroundImageFix"/>
<feColorMatrix in="SourceAlpha" type="matrix" values="0 0 0 0 0 0 0 0 0 0 0 0 0 0 0 0 0 0 127 0" result="hardAlpha"/>
<feOffset dy="4"/>
<feGaussianBlur stdDeviation="15"/>
<feComposite in2="hardAlpha" operator="out"/>
<feColorMatrix type="matrix" values="0 0 0 0 0.137255 0 0 0 0 0.639216 0 0 0 0 0.137255 0 0 0 0.53 0"/>
<feBlend mode="normal" in2="BackgroundImageFix" result="effect1_dropShadow_5018_41309"/>
<feBlend mode="normal" in="SourceGraphic" in2="effect1_dropShadow_5018_41309" result="shape"/>
</filter>
<clipPath id="clip0_5018_41309">
<rect width="526" height="228" fill="white"/>
</clipPath>
</defs>
</svg>
