<svg width="595" height="166" viewBox="0 0 595 166" fill="none" xmlns="http://www.w3.org/2000/svg">
<g clip-path="url(#clip0_4130_41301)">
<rect x="0.878906" y="0.585938" width="290.174" height="74.6748" fill="#23A323"/>
<rect x="0.878906" y="90.5586" width="361.805" height="74.6748" fill="#FFBD00"/>
</g>
<path d="M21.82 22.3798H28.66V61.2598H21.82V22.3798ZM38.177 31.3798H44.837V61.2598H38.177V31.3798ZM57.437 30.7198C59.157 30.7198 60.737 30.9598 62.177 31.4398C63.657 31.9198 64.917 32.6598 65.957 33.6598C67.037 34.6198 67.857 35.8198 68.417 37.2598C69.017 38.6998 69.317 40.3998 69.317 42.3598V61.2598H62.657V43.6798C62.657 41.2398 62.057 39.4398 60.857 38.2798C59.697 37.0798 57.857 36.4798 55.337 36.4798C53.417 36.4798 51.657 36.8998 50.057 37.7398C48.497 38.5398 47.217 39.5998 46.217 40.9198C45.217 42.1998 44.637 43.6198 44.477 45.1798L44.417 41.9398C44.617 40.4598 45.057 39.0598 45.737 37.7398C46.417 36.3798 47.317 35.1798 48.437 34.1398C49.557 33.0598 50.877 32.2198 52.397 31.6198C53.917 31.0198 55.597 30.7198 57.437 30.7198ZM74.5731 31.3798H95.6931V36.8398H74.5731V31.3798ZM81.7731 23.3398H88.4931V61.2598H81.7731V23.3398ZM125.422 51.4198H131.842C131.522 53.4598 130.722 55.2798 129.442 56.8798C128.202 58.4398 126.502 59.6798 124.342 60.5998C122.182 61.4798 119.602 61.9198 116.602 61.9198C113.202 61.9198 110.162 61.2998 107.482 60.0598C104.802 58.7798 102.702 56.9798 101.182 54.6598C99.6622 52.3398 98.9022 49.5798 98.9022 46.3798C98.9022 43.2198 99.6422 40.4598 101.122 38.0998C102.602 35.7398 104.642 33.9198 107.242 32.6398C109.882 31.3598 112.922 30.7198 116.362 30.7198C119.922 30.7198 122.882 31.3598 125.242 32.6398C127.642 33.8798 129.422 35.7598 130.582 38.2798C131.742 40.7598 132.222 43.8998 132.022 47.6998H105.682C105.882 49.3798 106.422 50.8998 107.302 52.2598C108.222 53.5798 109.462 54.6198 111.022 55.3798C112.582 56.0998 114.402 56.4598 116.482 56.4598C118.802 56.4598 120.742 55.9998 122.302 55.0798C123.902 54.1598 124.942 52.9398 125.422 51.4198ZM116.182 36.1198C113.462 36.1198 111.222 36.7998 109.462 38.1598C107.702 39.4798 106.562 41.1798 106.042 43.2598H125.302C125.142 41.0198 124.242 39.2798 122.602 38.0398C120.962 36.7598 118.822 36.1198 116.182 36.1198ZM137.962 31.3798H144.622V61.2598H137.962V31.3798ZM155.422 37.0798C153.262 37.0798 151.402 37.5398 149.842 38.4598C148.322 39.3798 147.102 40.4998 146.182 41.8198C145.262 43.1398 144.622 44.4198 144.262 45.6598L144.202 42.2998C144.242 41.8598 144.382 41.1998 144.622 40.3198C144.862 39.3998 145.222 38.3998 145.702 37.3198C146.222 36.2398 146.902 35.1998 147.742 34.1998C148.622 33.1598 149.682 32.3198 150.922 31.6798C152.202 31.0398 153.702 30.7198 155.422 30.7198V37.0798ZM185.422 51.4198H191.842C191.522 53.4598 190.722 55.2798 189.442 56.8798C188.202 58.4398 186.502 59.6798 184.342 60.5998C182.182 61.4798 179.602 61.9198 176.602 61.9198C173.202 61.9198 170.162 61.2998 167.482 60.0598C164.802 58.7798 162.702 56.9798 161.182 54.6598C159.662 52.3398 158.902 49.5798 158.902 46.3798C158.902 43.2198 159.642 40.4598 161.122 38.0998C162.602 35.7398 164.642 33.9198 167.242 32.6398C169.882 31.3598 172.922 30.7198 176.362 30.7198C179.922 30.7198 182.882 31.3598 185.242 32.6398C187.642 33.8798 189.422 35.7598 190.582 38.2798C191.742 40.7598 192.222 43.8998 192.022 47.6998H165.682C165.882 49.3798 166.422 50.8998 167.302 52.2598C168.222 53.5798 169.462 54.6198 171.022 55.3798C172.582 56.0998 174.402 56.4598 176.482 56.4598C178.802 56.4598 180.742 55.9998 182.302 55.0798C183.902 54.1598 184.942 52.9398 185.422 51.4198ZM176.182 36.1198C173.462 36.1198 171.222 36.7998 169.462 38.1598C167.702 39.4798 166.562 41.1798 166.042 43.2598H185.302C185.142 41.0198 184.242 39.2798 182.602 38.0398C180.962 36.7598 178.822 36.1198 176.182 36.1198ZM196.642 51.4198H202.822C203.142 52.9398 203.962 54.1798 205.282 55.1398C206.602 56.0598 208.382 56.5198 210.622 56.5198C212.062 56.5198 213.182 56.3598 213.982 56.0398C214.822 55.7198 215.402 55.2798 215.722 54.7198C216.082 54.1598 216.262 53.5198 216.262 52.7998C216.262 51.9198 216.002 51.2398 215.482 50.7598C215.002 50.2798 214.282 49.8798 213.322 49.5598C212.362 49.2398 211.162 48.9598 209.722 48.7198C208.242 48.3598 206.782 47.9598 205.342 47.5198C203.902 47.0798 202.602 46.5398 201.442 45.8998C200.282 45.2198 199.362 44.3798 198.682 43.3798C198.042 42.3398 197.722 41.0798 197.722 39.5998C197.722 38.2398 198.022 37.0198 198.622 35.9398C199.262 34.8198 200.142 33.8798 201.262 33.1198C202.382 32.3598 203.702 31.7798 205.222 31.3798C206.742 30.9398 208.402 30.7198 210.202 30.7198C212.802 30.7198 214.962 31.1398 216.682 31.9798C218.442 32.8198 219.762 33.9998 220.642 35.5198C221.562 37.0398 222.022 38.7798 222.022 40.7398H216.142C215.822 39.1398 215.202 37.9798 214.282 37.2598C213.362 36.5398 211.982 36.1798 210.142 36.1798C208.302 36.1798 206.902 36.4998 205.942 37.1398C204.982 37.7798 204.502 38.6598 204.502 39.7798C204.502 40.6198 204.802 41.2998 205.402 41.8198C206.042 42.2998 206.942 42.7198 208.102 43.0798C209.262 43.4398 210.622 43.7998 212.182 44.1598C213.622 44.5598 214.982 44.9798 216.262 45.4198C217.542 45.8198 218.682 46.3398 219.682 46.9798C220.722 47.5798 221.542 48.3798 222.142 49.3798C222.742 50.3798 223.042 51.6198 223.042 53.0998C223.042 54.9398 222.542 56.5198 221.542 57.8398C220.582 59.1598 219.182 60.1798 217.342 60.8998C215.502 61.5798 213.282 61.9198 210.682 61.9198C208.402 61.9198 206.422 61.6598 204.742 61.1398C203.102 60.6198 201.722 59.9398 200.602 59.0998C199.522 58.2598 198.682 57.3598 198.082 56.3998C197.482 55.4398 197.062 54.5198 196.822 53.6398C196.622 52.7598 196.562 52.0198 196.642 51.4198ZM226.975 31.3798H248.095V36.8398H226.975V31.3798ZM234.175 23.3398H240.895V61.2598H234.175V23.3398ZM252.013 51.4198H258.193C258.513 52.9398 259.333 54.1798 260.653 55.1398C261.973 56.0598 263.753 56.5198 265.993 56.5198C267.433 56.5198 268.553 56.3598 269.353 56.0398C270.193 55.7198 270.773 55.2798 271.093 54.7198C271.453 54.1598 271.633 53.5198 271.633 52.7998C271.633 51.9198 271.373 51.2398 270.853 50.7598C270.373 50.2798 269.653 49.8798 268.693 49.5598C267.733 49.2398 266.533 48.9598 265.093 48.7198C263.613 48.3598 262.153 47.9598 260.713 47.5198C259.273 47.0798 257.973 46.5398 256.813 45.8998C255.653 45.2198 254.733 44.3798 254.053 43.3798C253.413 42.3398 253.093 41.0798 253.093 39.5998C253.093 38.2398 253.393 37.0198 253.993 35.9398C254.633 34.8198 255.513 33.8798 256.633 33.1198C257.753 32.3598 259.073 31.7798 260.593 31.3798C262.113 30.9398 263.773 30.7198 265.573 30.7198C268.173 30.7198 270.333 31.1398 272.053 31.9798C273.813 32.8198 275.133 33.9998 276.013 35.5198C276.933 37.0398 277.393 38.7798 277.393 40.7398H271.513C271.193 39.1398 270.573 37.9798 269.653 37.2598C268.733 36.5398 267.353 36.1798 265.513 36.1798C263.673 36.1798 262.273 36.4998 261.313 37.1398C260.353 37.7798 259.873 38.6598 259.873 39.7798C259.873 40.6198 260.173 41.2998 260.773 41.8198C261.413 42.2998 262.313 42.7198 263.473 43.0798C264.633 43.4398 265.993 43.7998 267.553 44.1598C268.993 44.5598 270.353 44.9798 271.633 45.4198C272.913 45.8198 274.053 46.3398 275.053 46.9798C276.093 47.5798 276.913 48.3798 277.513 49.3798C278.113 50.3798 278.413 51.6198 278.413 53.0998C278.413 54.9398 277.913 56.5198 276.913 57.8398C275.953 59.1598 274.553 60.1798 272.713 60.8998C270.873 61.5798 268.653 61.9198 266.053 61.9198C263.773 61.9198 261.793 61.6598 260.113 61.1398C258.473 60.6198 257.093 59.9398 255.973 59.0998C254.893 58.2598 254.053 57.3598 253.453 56.3998C252.853 55.4398 252.433 54.5198 252.193 53.6398C251.993 52.7598 251.933 52.0198 252.013 51.4198ZM19.72 114.38H26.38V144.26H19.72V114.38ZM37.18 120.08C35.02 120.08 33.16 120.54 31.6 121.46C30.08 122.38 28.86 123.5 27.94 124.82C27.02 126.14 26.38 127.42 26.02 128.66L25.96 125.3C26 124.86 26.14 124.2 26.38 123.32C26.62 122.4 26.98 121.4 27.46 120.32C27.98 119.24 28.66 118.2 29.5 117.2C30.38 116.16 31.44 115.32 32.68 114.68C33.96 114.04 35.46 113.72 37.18 113.72V120.08ZM67.18 134.42H73.6C73.28 136.46 72.48 138.28 71.2 139.88C69.96 141.44 68.26 142.68 66.1 143.6C63.94 144.48 61.36 144.92 58.36 144.92C54.96 144.92 51.92 144.3 49.24 143.06C46.56 141.78 44.46 139.98 42.94 137.66C41.42 135.34 40.66 132.58 40.66 129.38C40.66 126.22 41.4 123.46 42.88 121.1C44.36 118.74 46.4 116.92 49 115.64C51.64 114.36 54.68 113.72 58.12 113.72C61.68 113.72 64.64 114.36 67 115.64C69.4 116.88 71.18 118.76 72.34 121.28C73.5 123.76 73.98 126.9 73.78 130.7H47.44C47.64 132.38 48.18 133.9 49.06 135.26C49.98 136.58 51.22 137.62 52.78 138.38C54.34 139.1 56.16 139.46 58.24 139.46C60.56 139.46 62.5 139 64.06 138.08C65.66 137.16 66.7 135.94 67.18 134.42ZM57.94 119.12C55.22 119.12 52.98 119.8 51.22 121.16C49.46 122.48 48.32 124.18 47.8 126.26H67.06C66.9 124.02 66 122.28 64.36 121.04C62.72 119.76 60.58 119.12 57.94 119.12ZM98.92 144.92C96.48 144.92 94.4 144.44 92.68 143.48C91 142.52 89.64 141.26 88.6 139.7C87.6 138.1 86.86 136.4 86.38 134.6C85.9 132.76 85.66 131.02 85.66 129.38C85.66 127.18 85.88 125.14 86.32 123.26C86.8 121.38 87.54 119.74 88.54 118.34C89.58 116.9 90.94 115.78 92.62 114.98C94.34 114.14 96.44 113.72 98.92 113.72C101.72 113.72 104.24 114.4 106.48 115.76C108.72 117.08 110.5 118.92 111.82 121.28C113.14 123.6 113.8 126.3 113.8 129.38C113.8 132.46 113.12 135.18 111.76 137.54C110.44 139.86 108.66 141.68 106.42 143C104.18 144.28 101.68 144.92 98.92 144.92ZM96.94 139.4C98.94 139.4 100.7 138.98 102.22 138.14C103.74 137.3 104.92 136.12 105.76 134.6C106.6 133.08 107.02 131.34 107.02 129.38C107.02 126.38 106.14 123.94 104.38 122.06C102.62 120.14 100.14 119.18 96.94 119.18C94.94 119.18 93.14 119.6 91.54 120.44C89.94 121.28 88.68 122.46 87.76 123.98C86.84 125.46 86.38 127.26 86.38 129.38C86.38 131.3 86.8 133.02 87.64 134.54C88.48 136.06 89.68 137.26 91.24 138.14C92.8 138.98 94.7 139.4 96.94 139.4ZM79.72 114.38H86.08L86.38 121.7V156.26H79.72V114.38ZM133.06 144.92C130.34 144.92 127.84 144.26 125.56 142.94C123.32 141.62 121.52 139.8 120.16 137.48C118.84 135.12 118.18 132.42 118.18 129.38C118.18 126.26 118.86 123.54 120.22 121.22C121.58 118.86 123.42 117.02 125.74 115.7C128.06 114.38 130.66 113.72 133.54 113.72C136.74 113.72 139.28 114.42 141.16 115.82C143.04 117.22 144.38 119.1 145.18 121.46C145.98 123.82 146.38 126.46 146.38 129.38C146.38 131.02 146.14 132.76 145.66 134.6C145.18 136.4 144.42 138.08 143.38 139.64C142.38 141.2 141.02 142.48 139.3 143.48C137.62 144.44 135.54 144.92 133.06 144.92ZM135.1 139.4C137.34 139.4 139.24 138.98 140.8 138.14C142.4 137.26 143.6 136.06 144.4 134.54C145.24 133.02 145.66 131.3 145.66 129.38C145.66 127.26 145.24 125.46 144.4 123.98C143.56 122.46 142.36 121.3 140.8 120.5C139.24 119.66 137.34 119.24 135.1 119.24C131.9 119.24 129.42 120.18 127.66 122.06C125.9 123.94 125.02 126.38 125.02 129.38C125.02 131.34 125.44 133.08 126.28 134.6C127.16 136.12 128.36 137.3 129.88 138.14C131.4 138.98 133.14 139.4 135.1 139.4ZM145.66 114.38H152.38V144.26H146.14C146.14 144.26 146.1 143.88 146.02 143.12C145.94 142.36 145.86 141.44 145.78 140.36C145.7 139.24 145.66 138.18 145.66 137.18V114.38ZM157 114.38H164.14L176.2 143.06L170.44 144.26L157 114.38ZM190.3 114.38L171.1 156.26H164.08L172.3 139.88L183.16 114.38H190.3ZM195.091 114.38H201.751V144.26H195.091V114.38ZM214.351 113.72C216.071 113.72 217.651 113.96 219.091 114.44C220.571 114.92 221.831 115.66 222.871 116.66C223.951 117.62 224.771 118.82 225.331 120.26C225.931 121.7 226.231 123.4 226.231 125.36V144.26H219.571V126.68C219.571 124.24 218.971 122.44 217.771 121.28C216.611 120.08 214.771 119.48 212.251 119.48C210.331 119.48 208.571 119.9 206.971 120.74C205.411 121.54 204.131 122.6 203.131 123.92C202.131 125.2 201.551 126.62 201.391 128.18L201.331 124.94C201.531 123.46 201.971 122.06 202.651 120.74C203.331 119.38 204.231 118.18 205.351 117.14C206.471 116.06 207.791 115.22 209.311 114.62C210.831 114.02 212.511 113.72 214.351 113.72ZM238.171 113.72C239.931 113.72 241.531 113.96 242.971 114.44C244.411 114.92 245.651 115.66 246.691 116.66C247.771 117.62 248.611 118.82 249.211 120.26C249.811 121.7 250.111 123.4 250.111 125.36V144.26H243.391V126.68C243.391 124.24 242.791 122.44 241.591 121.28C240.431 120.08 238.591 119.48 236.071 119.48C234.151 119.48 232.391 119.9 230.791 120.74C229.231 121.54 227.951 122.6 226.951 123.92C225.991 125.2 225.431 126.62 225.271 128.18L225.151 124.82C225.351 123.38 225.811 122 226.531 120.68C227.251 119.32 228.171 118.12 229.291 117.08C230.411 116.04 231.711 115.22 233.191 114.62C234.711 114.02 236.371 113.72 238.171 113.72ZM282.395 134.42H288.815C288.495 136.46 287.695 138.28 286.415 139.88C285.175 141.44 283.475 142.68 281.315 143.6C279.155 144.48 276.575 144.92 273.575 144.92C270.175 144.92 267.135 144.3 264.455 143.06C261.775 141.78 259.675 139.98 258.155 137.66C256.635 135.34 255.875 132.58 255.875 129.38C255.875 126.22 256.615 123.46 258.095 121.1C259.575 118.74 261.615 116.92 264.215 115.64C266.855 114.36 269.895 113.72 273.335 113.72C276.895 113.72 279.855 114.36 282.215 115.64C284.615 116.88 286.395 118.76 287.555 121.28C288.715 123.76 289.195 126.9 288.995 130.7H262.655C262.855 132.38 263.395 133.9 264.275 135.26C265.195 136.58 266.435 137.62 267.995 138.38C269.555 139.1 271.375 139.46 273.455 139.46C275.775 139.46 277.715 139 279.275 138.08C280.875 137.16 281.915 135.94 282.395 134.42ZM273.155 119.12C270.435 119.12 268.195 119.8 266.435 121.16C264.675 122.48 263.535 124.18 263.015 126.26H282.275C282.115 124.02 281.215 122.28 279.575 121.04C277.935 119.76 275.795 119.12 273.155 119.12ZM294.935 114.38H301.595V144.26H294.935V114.38ZM314.195 113.72C315.915 113.72 317.495 113.96 318.935 114.44C320.415 114.92 321.675 115.66 322.715 116.66C323.795 117.62 324.615 118.82 325.175 120.26C325.775 121.7 326.075 123.4 326.075 125.36V144.26H319.415V126.68C319.415 124.24 318.815 122.44 317.615 121.28C316.455 120.08 314.615 119.48 312.095 119.48C310.175 119.48 308.415 119.9 306.815 120.74C305.255 121.54 303.975 122.6 302.975 123.92C301.975 125.2 301.395 126.62 301.235 128.18L301.175 124.94C301.375 123.46 301.815 122.06 302.495 120.74C303.175 119.38 304.075 118.18 305.195 117.14C306.315 116.06 307.635 115.22 309.155 114.62C310.675 114.02 312.355 113.72 314.195 113.72ZM331.331 114.38H352.451V119.84H331.331V114.38ZM338.531 106.34H345.251V144.26H338.531V106.34Z" fill="white"/>
<path d="M311.595 61.9198C308.875 61.9198 306.375 61.2598 304.095 59.9398C301.855 58.6198 300.055 56.7998 298.695 54.4798C297.375 52.1198 296.715 49.4198 296.715 46.3798C296.715 43.2598 297.395 40.5398 298.755 38.2198C300.115 35.8598 301.955 34.0198 304.275 32.6998C306.595 31.3798 309.195 30.7198 312.075 30.7198C315.275 30.7198 317.815 31.4198 319.695 32.8198C321.575 34.2198 322.915 36.0998 323.715 38.4598C324.515 40.8198 324.915 43.4598 324.915 46.3798C324.915 48.0198 324.675 49.7598 324.195 51.5998C323.715 53.3998 322.955 55.0798 321.915 56.6398C320.915 58.1998 319.555 59.4798 317.835 60.4798C316.155 61.4398 314.075 61.9198 311.595 61.9198ZM313.635 56.3998C315.875 56.3998 317.775 55.9798 319.335 55.1398C320.935 54.2598 322.135 53.0598 322.935 51.5398C323.775 50.0198 324.195 48.2998 324.195 46.3798C324.195 44.2598 323.775 42.4598 322.935 40.9798C322.095 39.4598 320.895 38.2998 319.335 37.4998C317.775 36.6598 315.875 36.2398 313.635 36.2398C310.435 36.2398 307.955 37.1798 306.195 39.0598C304.435 40.9398 303.555 43.3798 303.555 46.3798C303.555 48.3398 303.975 50.0798 304.815 51.5998C305.695 53.1198 306.895 54.2998 308.415 55.1398C309.935 55.9798 311.675 56.3998 313.635 56.3998ZM324.195 31.3798H330.915V61.2598H324.675C324.675 61.2598 324.635 60.8798 324.555 60.1198C324.475 59.3598 324.395 58.4398 324.315 57.3598C324.235 56.2398 324.195 55.1798 324.195 54.1798V31.3798ZM338.236 31.3798H344.896V61.2598H338.236V31.3798ZM357.496 30.7198C359.216 30.7198 360.796 30.9598 362.236 31.4398C363.716 31.9198 364.976 32.6598 366.016 33.6598C367.096 34.6198 367.916 35.8198 368.476 37.2598C369.076 38.6998 369.376 40.3998 369.376 42.3598V61.2598H362.716V43.6798C362.716 41.2398 362.116 39.4398 360.916 38.2798C359.756 37.0798 357.916 36.4798 355.396 36.4798C353.476 36.4798 351.716 36.8998 350.116 37.7398C348.556 38.5398 347.276 39.5998 346.276 40.9198C345.276 42.1998 344.696 43.6198 344.536 45.1798L344.476 41.9398C344.676 40.4598 345.116 39.0598 345.796 37.7398C346.476 36.3798 347.376 35.1798 348.496 34.1398C349.616 33.0598 350.936 32.2198 352.456 31.6198C353.976 31.0198 355.656 30.7198 357.496 30.7198ZM390.052 61.9198C387.292 61.9198 384.772 61.2598 382.492 59.9398C380.252 58.6198 378.472 56.7998 377.152 54.4798C375.832 52.1198 375.172 49.4198 375.172 46.3798C375.172 43.2598 375.812 40.5398 377.092 38.2198C378.412 35.8598 380.172 34.0198 382.372 32.6998C384.612 31.3798 387.172 30.7198 390.052 30.7198C392.572 30.7198 394.692 31.1398 396.412 31.9798C398.132 32.7798 399.492 33.8998 400.492 35.3398C401.492 36.7398 402.212 38.3798 402.652 40.2598C403.132 42.1398 403.372 44.1798 403.372 46.3798C403.372 48.0198 403.132 49.7598 402.652 51.5998C402.172 53.3998 401.412 55.0798 400.372 56.6398C399.372 58.1998 398.012 59.4798 396.292 60.4798C394.612 61.4398 392.532 61.9198 390.052 61.9198ZM392.092 56.3998C394.332 56.3998 396.232 55.9798 397.792 55.1398C399.392 54.2598 400.592 53.0598 401.392 51.5398C402.232 50.0198 402.652 48.2998 402.652 46.3798C402.652 44.2598 402.232 42.4598 401.392 40.9798C400.552 39.4598 399.352 38.2798 397.792 37.4398C396.232 36.5998 394.332 36.1798 392.092 36.1798C388.892 36.1798 386.412 37.1398 384.652 39.0598C382.892 40.9398 382.012 43.3798 382.012 46.3798C382.012 48.3398 382.432 50.0798 383.272 51.5998C384.152 53.1198 385.352 54.2998 386.872 55.1398C388.392 55.9798 390.132 56.3998 392.092 56.3998ZM402.652 19.3798H409.372V61.2598H403.132C403.052 60.3398 402.952 59.1998 402.832 57.8398C402.712 56.4798 402.652 55.2598 402.652 54.1798V19.3798ZM387.417 144.92C384.097 144.92 381.117 144.32 378.477 143.12C375.837 141.92 373.757 140.16 372.237 137.84C370.717 135.52 369.957 132.7 369.957 129.38C369.957 126.1 370.717 123.3 372.237 120.98C373.757 118.62 375.837 116.82 378.477 115.58C381.117 114.34 384.097 113.72 387.417 113.72C390.737 113.72 393.697 114.34 396.297 115.58C398.897 116.82 400.937 118.62 402.417 120.98C403.937 123.3 404.697 126.1 404.697 129.38C404.697 132.7 403.937 135.52 402.417 137.84C400.937 140.16 398.897 141.92 396.297 143.12C393.697 144.32 390.737 144.92 387.417 144.92ZM387.417 139.46C389.337 139.46 391.097 139.08 392.697 138.32C394.297 137.56 395.557 136.42 396.477 134.9C397.437 133.38 397.917 131.54 397.917 129.38C397.917 127.22 397.437 125.38 396.477 123.86C395.557 122.34 394.297 121.18 392.697 120.38C391.137 119.54 389.377 119.12 387.417 119.12C385.457 119.12 383.677 119.52 382.077 120.32C380.477 121.12 379.177 122.28 378.177 123.8C377.217 125.32 376.737 127.18 376.737 129.38C376.737 131.54 377.217 133.38 378.177 134.9C379.137 136.42 380.417 137.56 382.017 138.32C383.657 139.08 385.457 139.46 387.417 139.46ZM429.858 144.92C427.418 144.92 425.338 144.44 423.618 143.48C421.938 142.52 420.578 141.26 419.538 139.7C418.538 138.1 417.798 136.4 417.318 134.6C416.838 132.76 416.598 131.02 416.598 129.38C416.598 127.18 416.818 125.14 417.258 123.26C417.738 121.38 418.478 119.74 419.478 118.34C420.518 116.9 421.878 115.78 423.558 114.98C425.278 114.14 427.378 113.72 429.858 113.72C432.658 113.72 435.178 114.4 437.418 115.76C439.658 117.08 441.438 118.92 442.758 121.28C444.078 123.6 444.738 126.3 444.738 129.38C444.738 132.46 444.058 135.18 442.698 137.54C441.378 139.86 439.598 141.68 437.358 143C435.118 144.28 432.618 144.92 429.858 144.92ZM427.878 139.4C429.878 139.4 431.638 138.98 433.158 138.14C434.678 137.3 435.858 136.12 436.698 134.6C437.538 133.08 437.958 131.34 437.958 129.38C437.958 126.38 437.078 123.94 435.318 122.06C433.558 120.14 431.078 119.18 427.878 119.18C425.878 119.18 424.078 119.6 422.478 120.44C420.878 121.28 419.618 122.46 418.698 123.98C417.778 125.46 417.318 127.26 417.318 129.38C417.318 131.3 417.738 133.02 418.578 134.54C419.418 136.06 420.618 137.26 422.178 138.14C423.738 138.98 425.638 139.4 427.878 139.4ZM410.658 114.38H417.018L417.318 121.7V156.26H410.658V114.38ZM448.577 114.38H469.697V119.84H448.577V114.38ZM455.777 106.34H462.497V144.26H455.777V106.34ZM482.735 101.72V108.14H474.755V101.72H482.735ZM475.355 114.38H482.075V144.26H475.355V114.38ZM505.952 144.92C502.632 144.92 499.652 144.32 497.012 143.12C494.372 141.92 492.292 140.16 490.772 137.84C489.252 135.52 488.492 132.7 488.492 129.38C488.492 126.1 489.252 123.3 490.772 120.98C492.292 118.62 494.372 116.82 497.012 115.58C499.652 114.34 502.632 113.72 505.952 113.72C509.272 113.72 512.232 114.34 514.832 115.58C517.432 116.82 519.472 118.62 520.952 120.98C522.472 123.3 523.232 126.1 523.232 129.38C523.232 132.7 522.472 135.52 520.952 137.84C519.472 140.16 517.432 141.92 514.832 143.12C512.232 144.32 509.272 144.92 505.952 144.92ZM505.952 139.46C507.872 139.46 509.632 139.08 511.232 138.32C512.832 137.56 514.092 136.42 515.012 134.9C515.972 133.38 516.452 131.54 516.452 129.38C516.452 127.22 515.972 125.38 515.012 123.86C514.092 122.34 512.832 121.18 511.232 120.38C509.672 119.54 507.912 119.12 505.952 119.12C503.992 119.12 502.212 119.52 500.612 120.32C499.012 121.12 497.712 122.28 496.712 123.8C495.752 125.32 495.272 127.18 495.272 129.38C495.272 131.54 495.752 133.38 496.712 134.9C497.672 136.42 498.952 137.56 500.552 138.32C502.192 139.08 503.992 139.46 505.952 139.46ZM529.193 114.38H535.853V144.26H529.193V114.38ZM548.453 113.72C550.173 113.72 551.753 113.96 553.193 114.44C554.673 114.92 555.933 115.66 556.973 116.66C558.053 117.62 558.873 118.82 559.433 120.26C560.033 121.7 560.333 123.4 560.333 125.36V144.26H553.673V126.68C553.673 124.24 553.073 122.44 551.873 121.28C550.713 120.08 548.873 119.48 546.353 119.48C544.433 119.48 542.673 119.9 541.073 120.74C539.513 121.54 538.233 122.6 537.233 123.92C536.233 125.2 535.653 126.62 535.493 128.18L535.433 124.94C535.633 123.46 536.073 122.06 536.753 120.74C537.433 119.38 538.333 118.18 539.453 117.14C540.573 116.06 541.893 115.22 543.413 114.62C544.933 114.02 546.613 113.72 548.453 113.72ZM566.369 134.42H572.549C572.869 135.94 573.689 137.18 575.009 138.14C576.329 139.06 578.109 139.52 580.349 139.52C581.789 139.52 582.909 139.36 583.709 139.04C584.549 138.72 585.129 138.28 585.449 137.72C585.809 137.16 585.989 136.52 585.989 135.8C585.989 134.92 585.729 134.24 585.209 133.76C584.729 133.28 584.009 132.88 583.049 132.56C582.089 132.24 580.889 131.96 579.449 131.72C577.969 131.36 576.509 130.96 575.069 130.52C573.629 130.08 572.329 129.54 571.169 128.9C570.009 128.22 569.089 127.38 568.409 126.38C567.769 125.34 567.449 124.08 567.449 122.6C567.449 121.24 567.749 120.02 568.349 118.94C568.989 117.82 569.869 116.88 570.989 116.12C572.109 115.36 573.429 114.78 574.949 114.38C576.469 113.94 578.129 113.72 579.929 113.72C582.529 113.72 584.689 114.14 586.409 114.98C588.169 115.82 589.489 117 590.369 118.52C591.289 120.04 591.749 121.78 591.749 123.74H585.869C585.549 122.14 584.929 120.98 584.009 120.26C583.089 119.54 581.709 119.18 579.869 119.18C578.029 119.18 576.629 119.5 575.669 120.14C574.709 120.78 574.229 121.66 574.229 122.78C574.229 123.62 574.529 124.3 575.129 124.82C575.769 125.3 576.669 125.72 577.829 126.08C578.989 126.44 580.349 126.8 581.909 127.16C583.349 127.56 584.709 127.98 585.989 128.42C587.269 128.82 588.409 129.34 589.409 129.98C590.449 130.58 591.269 131.38 591.869 132.38C592.469 133.38 592.769 134.62 592.769 136.1C592.769 137.94 592.269 139.52 591.269 140.84C590.309 142.16 588.909 143.18 587.069 143.9C585.229 144.58 583.009 144.92 580.409 144.92C578.129 144.92 576.149 144.66 574.469 144.14C572.829 143.62 571.449 142.94 570.329 142.1C569.249 141.26 568.409 140.36 567.809 139.4C567.209 138.44 566.789 137.52 566.549 136.64C566.349 135.76 566.289 135.02 566.369 134.42Z" fill="#041004"/>
<defs>
<clipPath id="clip0_4130_41301">
<rect width="361.805" height="164.647" fill="white" transform="translate(0.878906 0.585938)"/>
</clipPath>
</defs>
</svg>
