<svg width="1440" height="871" viewBox="0 0 1440 871" fill="none" xmlns="http://www.w3.org/2000/svg">
<g clip-path="url(#clip0_3312_31741)">
<rect y="0.727539" width="1440" height="869.937" fill="white"/>
<circle cx="320.333" cy="678.333" r="5.33333" fill="#179942"/>
<circle cx="339" cy="678.333" r="5.33333" fill="#FF4E4E"/>
<circle cx="329.666" cy="695" r="6" fill="#F2994A"/>
<circle cx="1090.33" cy="677.333" r="5.33333" fill="#179942"/>
<circle cx="1109" cy="677.333" r="5.33333" fill="#FF4E4E"/>
<circle cx="1099.67" cy="694" r="6" fill="#F2994A"/>
<circle cx="1249.33" cy="348.333" r="5.33333" fill="#179942"/>
<circle cx="1268" cy="348.333" r="5.33333" fill="#FF4E4E"/>
<circle cx="1258.67" cy="365" r="6" fill="#F2994A"/>
<circle cx="611.999" cy="145.333" r="5.33333" fill="#FF4E4E"/>
<circle cx="602.666" cy="162" r="6" fill="#F2994A"/>
<circle cx="1305.33" cy="121.333" r="5.33333" fill="#FF4E4E"/>
<circle cx="1296" cy="138" r="6" fill="#F2994A"/>
<circle cx="205.333" cy="93.3333" r="5.33333" fill="#179942"/>
<circle cx="224" cy="93.3333" r="5.33333" fill="#FF4E4E"/>
<circle cx="214.666" cy="110" r="6" fill="#F2994A"/>
<circle cx="726" cy="528" r="8" fill="#FF4E4E"/>
<circle cx="712" cy="553" r="9" fill="#F2994A"/>
<circle cx="60.3333" cy="458.333" r="5.33333" fill="#179942"/>
<circle cx="79.0003" cy="458.333" r="5.33333" fill="#FF4E4E"/>
<circle cx="69.666" cy="475" r="6" fill="#F2994A"/>
</g>
<defs>
<clipPath id="clip0_3312_31741">
<rect width="1440" height="869.937" fill="white" transform="translate(0 0.727539)"/>
</clipPath>
</defs>
</svg>
