<svg width="555" height="116" viewBox="0 0 555 116" fill="none" xmlns="http://www.w3.org/2000/svg">
<g clip-path="url(#clip0_3203_31242)">
<path d="M4.8 11.65H11.45V44H4.8V11.65ZM19.2109 19.15H25.7109V44H19.2109V19.15ZM37.2609 18.6C38.7943 18.6 40.2109 18.8 41.5109 19.2C42.8109 19.6 43.9443 20.2167 44.9109 21.05C45.8776 21.8833 46.6276 22.95 47.1609 24.25C47.6943 25.5167 47.9609 27.0333 47.9609 28.8V44H41.4609V29.95C41.4609 27.85 40.9443 26.3167 39.9109 25.35C38.9109 24.35 37.2609 23.85 34.9609 23.85C33.2276 23.85 31.6609 24.1833 30.2609 24.85C28.8609 25.5167 27.7276 26.3667 26.8609 27.4C25.9943 28.4 25.4943 29.45 25.3609 30.55L25.3109 28C25.4776 26.8333 25.8609 25.7 26.4609 24.6C27.0609 23.5 27.8609 22.5 28.8609 21.6C29.8943 20.6667 31.1109 19.9333 32.5109 19.4C33.9109 18.8667 35.4943 18.6 37.2609 18.6ZM67.0906 39.75H64.7406L73.8406 19.15H80.9406L68.9906 44H62.8406L51.1406 19.15H58.2906L67.0906 39.75ZM106.216 35.75H112.516C112.25 37.45 111.533 38.9667 110.366 40.3C109.233 41.6333 107.683 42.6833 105.716 43.45C103.75 44.2167 101.35 44.6 98.5164 44.6C95.3497 44.6 92.5497 44.1 90.1164 43.1C87.6831 42.0667 85.7831 40.5833 84.4164 38.65C83.0497 36.7167 82.3664 34.3833 82.3664 31.65C82.3664 28.9167 83.0331 26.5833 84.3664 24.65C85.6997 22.6833 87.5497 21.1833 89.9164 20.15C92.3164 19.1167 95.1164 18.6 98.3164 18.6C101.583 18.6 104.3 19.1167 106.466 20.15C108.633 21.1833 110.233 22.75 111.266 24.85C112.333 26.9167 112.783 29.5667 112.616 32.8H88.9164C89.0831 34.0667 89.5497 35.2167 90.3164 36.25C91.1164 37.2833 92.1831 38.1 93.5164 38.7C94.8831 39.3 96.4997 39.6 98.3664 39.6C100.433 39.6 102.15 39.25 103.516 38.55C104.916 37.8167 105.816 36.8833 106.216 35.75ZM98.0164 23.55C95.6164 23.55 93.6664 24.0833 92.1664 25.15C90.6664 26.1833 89.6997 27.4667 89.2664 29H106.166C106 27.3333 105.2 26.0167 103.766 25.05C102.366 24.05 100.45 23.55 98.0164 23.55ZM116.453 35.75H122.453C122.82 36.8833 123.57 37.8167 124.703 38.55C125.87 39.25 127.386 39.6 129.253 39.6C130.52 39.6 131.503 39.4833 132.203 39.25C132.903 39.0167 133.386 38.6833 133.653 38.25C133.92 37.7833 134.053 37.2667 134.053 36.7C134.053 36 133.836 35.4667 133.403 35.1C132.97 34.7 132.303 34.3833 131.403 34.15C130.503 33.9167 129.353 33.7 127.953 33.5C126.553 33.2667 125.203 32.9833 123.903 32.65C122.603 32.3167 121.453 31.8833 120.453 31.35C119.453 30.7833 118.653 30.0833 118.053 29.25C117.486 28.3833 117.203 27.3333 117.203 26.1C117.203 24.9 117.486 23.8333 118.053 22.9C118.653 21.9667 119.47 21.1833 120.503 20.55C121.57 19.9167 122.803 19.4333 124.203 19.1C125.636 18.7667 127.17 18.6 128.803 18.6C131.27 18.6 133.32 18.9667 134.953 19.7C136.586 20.4 137.803 21.4 138.603 22.7C139.436 23.9667 139.853 25.4333 139.853 27.1H134.103C133.836 25.8667 133.303 24.9833 132.503 24.45C131.703 23.8833 130.47 23.6 128.803 23.6C127.17 23.6 125.936 23.85 125.103 24.35C124.27 24.85 123.853 25.5333 123.853 26.4C123.853 27.1 124.103 27.65 124.603 28.05C125.136 28.4167 125.903 28.7167 126.903 28.95C127.936 29.1833 129.22 29.4333 130.753 29.7C132.053 29.9667 133.286 30.2667 134.453 30.6C135.653 30.9333 136.72 31.3667 137.653 31.9C138.586 32.4 139.32 33.0833 139.853 33.95C140.42 34.7833 140.703 35.85 140.703 37.15C140.703 38.75 140.236 40.1 139.303 41.2C138.403 42.3 137.103 43.15 135.403 43.75C133.703 44.3167 131.67 44.6 129.303 44.6C127.203 44.6 125.386 44.3833 123.853 43.95C122.353 43.4833 121.103 42.9 120.103 42.2C119.103 41.4667 118.32 40.7 117.753 39.9C117.22 39.0667 116.853 38.2833 116.653 37.55C116.453 36.8167 116.386 36.2167 116.453 35.75ZM143.926 19.15H163.226V24.2H143.926V19.15ZM150.326 12.35H156.826V44H150.326V12.35ZM211.816 39.5L209.766 39.45L217.866 19.15H225.016L214.066 44H207.966L199.966 23.95H202.166L193.916 44H187.816L177.166 19.15H184.316L192.116 39.5H190.066L197.366 19.15H204.816L211.816 39.5ZM236.28 8.25V13.95H228.73V8.25H236.28ZM229.23 19.15H235.73V44H229.23V19.15ZM240.459 19.15H259.759V24.2H240.459V19.15ZM246.859 12.35H253.359V44H246.859V12.35ZM286.589 44V30.35C286.589 28.9833 286.355 27.85 285.889 26.95C285.422 26.05 284.672 25.3667 283.639 24.9C282.639 24.4333 281.289 24.2 279.589 24.2C277.955 24.2 276.472 24.5167 275.139 25.15C273.805 25.75 272.722 26.55 271.889 27.55C271.055 28.5167 270.589 29.55 270.489 30.65L270.439 27.9C270.605 26.8 270.989 25.7 271.589 24.6C272.189 23.5 272.989 22.5 273.989 21.6C274.989 20.7 276.189 19.9833 277.589 19.45C279.022 18.8833 280.622 18.6 282.389 18.6C283.922 18.6 285.339 18.8 286.639 19.2C287.939 19.5667 289.072 20.15 290.039 20.95C291.005 21.75 291.755 22.75 292.289 23.95C292.822 25.1167 293.089 26.5 293.089 28.1V44H286.589ZM264.339 44V9.15H270.839V44H264.339ZM333.757 44V30.35C333.757 28.9833 333.523 27.85 333.057 26.95C332.59 26.05 331.84 25.3667 330.807 24.9C329.807 24.4333 328.457 24.2 326.757 24.2C325.123 24.2 323.64 24.5167 322.307 25.15C320.973 25.75 319.89 26.55 319.057 27.55C318.223 28.5167 317.757 29.55 317.657 30.65L317.607 27.9C317.773 26.8 318.157 25.7 318.757 24.6C319.357 23.5 320.157 22.5 321.157 21.6C322.157 20.7 323.357 19.9833 324.757 19.45C326.19 18.8833 327.79 18.6 329.557 18.6C331.09 18.6 332.507 18.8 333.807 19.2C335.107 19.5667 336.24 20.15 337.207 20.95C338.173 21.75 338.923 22.75 339.457 23.95C339.99 25.1167 340.257 26.5 340.257 28.1V44H333.757ZM311.507 44V9.15H318.007V44H311.507ZM358.264 44.55C355.797 44.55 353.547 44.0167 351.514 42.95C349.514 41.85 347.914 40.3333 346.714 38.4C345.547 36.4333 344.964 34.1667 344.964 31.6C344.964 28.9667 345.564 26.6833 346.764 24.75C347.964 22.8167 349.581 21.3167 351.614 20.25C353.681 19.15 356.014 18.6 358.614 18.6C361.481 18.6 363.781 19.1833 365.514 20.35C367.281 21.4833 368.564 23.0333 369.364 25C370.164 26.9667 370.564 29.1667 370.564 31.6C370.564 33.0667 370.331 34.5667 369.864 36.1C369.397 37.6 368.681 39 367.714 40.3C366.747 41.5667 365.481 42.6 363.914 43.4C362.347 44.1667 360.464 44.55 358.264 44.55ZM360.364 39.55C362.331 39.55 364.031 39.2167 365.464 38.55C366.897 37.8833 367.997 36.95 368.764 35.75C369.531 34.55 369.914 33.1667 369.914 31.6C369.914 29.9 369.514 28.4667 368.714 27.3C367.947 26.1 366.847 25.2 365.414 24.6C364.014 23.9667 362.331 23.65 360.364 23.65C357.597 23.65 355.447 24.3833 353.914 25.85C352.381 27.2833 351.614 29.2 351.614 31.6C351.614 33.2 351.981 34.6 352.714 35.8C353.447 36.9667 354.464 37.8833 355.764 38.55C357.097 39.2167 358.631 39.55 360.364 39.55ZM369.914 19.15H376.414V44H370.364C370.364 44 370.314 43.6833 370.214 43.05C370.147 42.3833 370.081 41.55 370.014 40.55C369.947 39.55 369.914 38.5667 369.914 37.6V19.15ZM382.297 19.15H388.797V44H382.297V19.15ZM398.347 24.5C396.48 24.5 394.864 24.8667 393.497 25.6C392.13 26.3 391.03 27.1667 390.197 28.2C389.364 29.2333 388.78 30.2333 388.447 31.2L388.397 28.45C388.43 28.05 388.564 27.4667 388.797 26.7C389.03 25.9 389.38 25.05 389.847 24.15C390.314 23.2167 390.93 22.3333 391.697 21.5C392.464 20.6333 393.397 19.9333 394.497 19.4C395.597 18.8667 396.88 18.6 398.347 18.6V24.5ZM414.765 40.2C412.065 40.2 409.682 39.8 407.615 39C405.582 38.1667 403.999 36.95 402.865 35.35C401.732 33.75 401.165 31.8167 401.165 29.55C401.165 27.3167 401.715 25.3833 402.815 23.75C403.915 22.1167 405.482 20.85 407.515 19.95C409.582 19.05 411.999 18.6 414.765 18.6C415.532 18.6 416.265 18.65 416.965 18.75C417.699 18.85 418.415 18.9833 419.115 19.15L431.665 19.2V24.1C429.965 24.1333 428.232 23.9333 426.465 23.5C424.732 23.0333 423.199 22.5333 421.865 22L421.715 21.65C422.849 22.1833 423.915 22.85 424.915 23.65C425.915 24.4167 426.715 25.3167 427.315 26.35C427.949 27.35 428.265 28.5167 428.265 29.85C428.265 32.0167 427.715 33.8833 426.615 35.45C425.515 36.9833 423.949 38.1667 421.915 39C419.915 39.8 417.532 40.2 414.765 40.2ZM423.115 54.25V53.05C423.115 51.5167 422.615 50.45 421.615 49.85C420.649 49.25 419.315 48.95 417.615 48.95H409.865C408.365 48.95 407.099 48.8333 406.065 48.6C405.065 48.3667 404.265 48.0333 403.665 47.6C403.065 47.1667 402.632 46.65 402.365 46.05C402.099 45.4833 401.965 44.8667 401.965 44.2C401.965 42.8667 402.399 41.8667 403.265 41.2C404.132 40.5 405.299 40.0333 406.765 39.8C408.232 39.5667 409.849 39.5167 411.615 39.65L414.765 40.2C412.665 40.2667 411.099 40.45 410.065 40.75C409.065 41.0167 408.565 41.5667 408.565 42.4C408.565 42.9 408.765 43.3 409.165 43.6C409.565 43.8667 410.132 44 410.865 44H419.015C421.249 44 423.149 44.2333 424.715 44.7C426.315 45.2 427.532 46.0167 428.365 47.15C429.199 48.3167 429.615 49.9 429.615 51.9V54.25H423.115ZM414.765 35.5C416.199 35.5 417.449 35.2667 418.515 34.8C419.615 34.3333 420.465 33.6667 421.065 32.8C421.665 31.9 421.965 30.8333 421.965 29.6C421.965 28.3333 421.665 27.25 421.065 26.35C420.465 25.45 419.632 24.7667 418.565 24.3C417.499 23.8 416.232 23.55 414.765 23.55C413.332 23.55 412.065 23.8 410.965 24.3C409.865 24.7667 409.015 25.45 408.415 26.35C407.815 27.25 407.515 28.3333 407.515 29.6C407.515 30.8333 407.815 31.9 408.415 32.8C409.015 33.6667 409.849 34.3333 410.915 34.8C412.015 35.2667 413.299 35.5 414.765 35.5ZM450.121 44.6C446.987 44.6 444.221 44.1 441.821 43.1C439.454 42.1 437.604 40.65 436.271 38.75C434.937 36.8167 434.271 34.45 434.271 31.65C434.271 28.85 434.937 26.4833 436.271 24.55C437.604 22.5833 439.454 21.1 441.821 20.1C444.221 19.1 446.987 18.6 450.121 18.6C453.254 18.6 455.987 19.1 458.321 20.1C460.687 21.1 462.537 22.5833 463.871 24.55C465.204 26.4833 465.871 28.85 465.871 31.65C465.871 34.45 465.204 36.8167 463.871 38.75C462.537 40.65 460.687 42.1 458.321 43.1C455.987 44.1 453.254 44.6 450.121 44.6ZM450.121 39.6C451.854 39.6 453.404 39.3 454.771 38.7C456.171 38.0667 457.271 37.1667 458.071 36C458.871 34.8 459.271 33.35 459.271 31.65C459.271 29.95 458.871 28.5 458.071 27.3C457.271 26.0667 456.187 25.1333 454.821 24.5C453.454 23.8667 451.887 23.55 450.121 23.55C448.387 23.55 446.821 23.8667 445.421 24.5C444.021 25.1333 442.904 26.05 442.071 27.25C441.271 28.45 440.871 29.9167 440.871 31.65C440.871 33.35 441.271 34.8 442.071 36C442.871 37.1667 443.971 38.0667 445.371 38.7C446.771 39.3 448.354 39.6 450.121 39.6ZM470.676 19.15H477.176V44H470.676V19.15ZM488.726 18.6C490.259 18.6 491.676 18.8 492.976 19.2C494.276 19.6 495.409 20.2167 496.376 21.05C497.342 21.8833 498.092 22.95 498.626 24.25C499.159 25.5167 499.426 27.0333 499.426 28.8V44H492.926V29.95C492.926 27.85 492.409 26.3167 491.376 25.35C490.376 24.35 488.726 23.85 486.426 23.85C484.692 23.85 483.126 24.1833 481.726 24.85C480.326 25.5167 479.192 26.3667 478.326 27.4C477.459 28.4 476.959 29.45 476.826 30.55L476.776 28C476.942 26.8333 477.326 25.7 477.926 24.6C478.526 23.5 479.326 22.5 480.326 21.6C481.359 20.6667 482.576 19.9333 483.976 19.4C485.376 18.8667 486.959 18.6 488.726 18.6Z" fill="black"/>
<path d="M305 78.8738C329.833 67.8738 397.4 50.3738 469 68.3738" stroke="#23A323" stroke-width="2" stroke-linecap="round"/>
<path d="M305.038 73.2009C330.654 64.1731 399.381 52.0014 469.357 75.5361" stroke="#23A323" stroke-width="2" stroke-linecap="round"/>
<path d="M23.92 94.28C23.76 95.9867 23.2133 97.4533 22.28 98.68C21.3467 99.9067 20.0933 100.84 18.52 101.48C16.9733 102.12 15.1867 102.44 13.16 102.44C10.9733 102.44 8.98667 102.04 7.2 101.24C5.44 100.44 4.04 99.2667 3 97.72C1.96 96.1733 1.44 94.2933 1.44 92.08C1.44 89.8667 1.96 87.9867 3 86.44C4.04 84.8933 5.44 83.7067 7.2 82.88C8.98667 82.0533 10.9733 81.64 13.16 81.64C15.1867 81.64 16.9733 81.9733 18.52 82.64C20.0667 83.28 21.3067 84.2 22.24 85.4C23.1733 86.6 23.72 88.0533 23.88 89.76H19.8C19.3467 88.3467 18.52 87.2533 17.32 86.48C16.1467 85.68 14.76 85.28 13.16 85.28C11.8533 85.28 10.6533 85.5467 9.56 86.08C8.46667 86.5867 7.58667 87.3467 6.92 88.36C6.28 89.3467 5.96 90.5867 5.96 92.08C5.96 93.5467 6.28 94.7867 6.92 95.8C7.58667 96.8133 8.46667 97.5733 9.56 98.08C10.6533 98.56 11.8533 98.8 13.16 98.8C14.92 98.8 16.36 98.4133 17.48 97.64C18.6267 96.84 19.4133 95.72 19.84 94.28H23.92ZM36.7116 102.44C34.8982 102.44 33.2316 102 31.7116 101.12C30.2182 100.24 29.0182 99.0267 28.1116 97.48C27.2316 95.9067 26.7916 94.1067 26.7916 92.08C26.7916 90 27.2449 88.1867 28.1516 86.64C29.0582 85.0667 30.2849 83.84 31.8316 82.96C33.3782 82.08 35.1116 81.64 37.0316 81.64C39.1649 81.64 40.8582 82.1067 42.1116 83.04C43.3649 83.9733 44.2582 85.2267 44.7916 86.8C45.3249 88.3733 45.5916 90.1333 45.5916 92.08C45.5916 93.1733 45.4316 94.3333 45.1116 95.56C44.7916 96.76 44.2849 97.88 43.5916 98.92C42.9249 99.96 42.0182 100.813 40.8716 101.48C39.7516 102.12 38.3649 102.44 36.7116 102.44ZM38.0716 98.76C39.5649 98.76 40.8316 98.48 41.8716 97.92C42.9382 97.3333 43.7382 96.5333 44.2716 95.52C44.8316 94.5067 45.1116 93.36 45.1116 92.08C45.1116 90.6667 44.8316 89.4667 44.2716 88.48C43.7116 87.4667 42.9116 86.6933 41.8716 86.16C40.8316 85.6 39.5649 85.32 38.0716 85.32C35.9382 85.32 34.2849 85.9467 33.1116 87.2C31.9382 88.4533 31.3516 90.08 31.3516 92.08C31.3516 93.3867 31.6316 94.5467 32.1916 95.56C32.7782 96.5733 33.5782 97.36 34.5916 97.92C35.6049 98.48 36.7649 98.76 38.0716 98.76ZM45.1116 82.08H49.5916V102H45.4316C45.4316 102 45.4049 101.747 45.3516 101.24C45.2982 100.733 45.2449 100.12 45.1916 99.4C45.1382 98.6533 45.1116 97.9467 45.1116 97.28V82.08ZM53.5922 95.44H57.7122C57.9255 96.4533 58.4722 97.28 59.3522 97.92C60.2322 98.5333 61.4189 98.84 62.9122 98.84C63.8722 98.84 64.6189 98.7333 65.1522 98.52C65.7122 98.3067 66.0989 98.0133 66.3122 97.64C66.5522 97.2667 66.6722 96.84 66.6722 96.36C66.6722 95.7733 66.4989 95.32 66.1522 95C65.8322 94.68 65.3522 94.4133 64.7122 94.2C64.0722 93.9867 63.2722 93.8 62.3122 93.64C61.3255 93.4 60.3522 93.1333 59.3922 92.84C58.4322 92.5467 57.5655 92.1867 56.7922 91.76C56.0189 91.3067 55.4055 90.7467 54.9522 90.08C54.5255 89.3867 54.3122 88.5467 54.3122 87.56C54.3122 86.6533 54.5122 85.84 54.9122 85.12C55.3389 84.3733 55.9255 83.7467 56.6722 83.24C57.4189 82.7333 58.2989 82.3467 59.3122 82.08C60.3255 81.7867 61.4322 81.64 62.6322 81.64C64.3655 81.64 65.8055 81.92 66.9522 82.48C68.1255 83.04 69.0055 83.8267 69.5922 84.84C70.2055 85.8533 70.5122 87.0133 70.5122 88.32H66.5922C66.3789 87.2533 65.9655 86.48 65.3522 86C64.7389 85.52 63.8189 85.28 62.5922 85.28C61.3655 85.28 60.4322 85.4933 59.7922 85.92C59.1522 86.3467 58.8322 86.9333 58.8322 87.68C58.8322 88.24 59.0322 88.6933 59.4322 89.04C59.8589 89.36 60.4589 89.64 61.2322 89.88C62.0055 90.12 62.9122 90.36 63.9522 90.6C64.9122 90.8667 65.8189 91.1467 66.6722 91.44C67.5255 91.7067 68.2855 92.0533 68.9522 92.48C69.6455 92.88 70.1922 93.4133 70.5922 94.08C70.9922 94.7467 71.1922 95.5733 71.1922 96.56C71.1922 97.7867 70.8589 98.84 70.1922 99.72C69.5522 100.6 68.6189 101.28 67.3922 101.76C66.1655 102.213 64.6855 102.44 62.9522 102.44C61.4322 102.44 60.1122 102.267 58.9922 101.92C57.8989 101.573 56.9789 101.12 56.2322 100.56C55.5122 100 54.9522 99.4 54.5522 98.76C54.1522 98.12 53.8722 97.5067 53.7122 96.92C53.5789 96.3333 53.5389 95.84 53.5922 95.44ZM91.9344 102V90.48C91.9344 89.4133 91.7477 88.5333 91.3744 87.84C91.0277 87.12 90.481 86.5733 89.7344 86.2C88.9877 85.8267 88.001 85.64 86.7744 85.64C85.5477 85.64 84.4277 85.9067 83.4144 86.44C82.401 86.9467 81.5744 87.6267 80.9344 88.48C80.2944 89.3333 79.921 90.28 79.8144 91.32L79.7744 89.08C79.9077 88.12 80.201 87.2 80.6544 86.32C81.1077 85.4133 81.7077 84.6133 82.4544 83.92C83.201 83.2267 84.081 82.68 85.0944 82.28C86.1077 81.8533 87.2277 81.64 88.4544 81.64C89.601 81.64 90.6544 81.8 91.6144 82.12C92.601 82.44 93.441 82.92 94.1344 83.56C94.8544 84.1733 95.401 84.9467 95.7744 85.88C96.1744 86.7867 96.3744 87.84 96.3744 89.04V102H91.9344ZM75.6144 102V74.08H80.0544V102H75.6144ZM121.127 102.44C118.914 102.44 116.927 102.04 115.167 101.24C113.407 100.44 112.02 99.2667 111.007 97.72C109.994 96.1733 109.487 94.2933 109.487 92.08C109.487 89.8933 109.994 88.0267 111.007 86.48C112.02 84.9067 113.407 83.7067 115.167 82.88C116.927 82.0533 118.914 81.64 121.127 81.64C123.34 81.64 125.314 82.0533 127.047 82.88C128.78 83.7067 130.14 84.9067 131.127 86.48C132.14 88.0267 132.647 89.8933 132.647 92.08C132.647 94.2933 132.14 96.1733 131.127 97.72C130.14 99.2667 128.78 100.44 127.047 101.24C125.314 102.04 123.34 102.44 121.127 102.44ZM121.127 98.8C122.407 98.8 123.58 98.5467 124.647 98.04C125.714 97.5333 126.554 96.7733 127.167 95.76C127.807 94.7467 128.127 93.52 128.127 92.08C128.127 90.64 127.807 89.4133 127.167 88.4C126.554 87.3867 125.714 86.6133 124.647 86.08C123.607 85.52 122.434 85.24 121.127 85.24C119.82 85.24 118.634 85.5067 117.567 86.04C116.5 86.5733 115.634 87.3467 114.967 88.36C114.327 89.3733 114.007 90.6133 114.007 92.08C114.007 93.52 114.327 94.7467 114.967 95.76C115.607 96.7733 116.46 97.5333 117.527 98.04C118.62 98.5467 119.82 98.8 121.127 98.8ZM157.381 102H152.941V82.08H157.381V102ZM153.181 92.52L153.221 93.8C153.167 94.1467 153.047 94.6667 152.861 95.36C152.701 96.0533 152.421 96.8133 152.021 97.64C151.647 98.44 151.141 99.2133 150.501 99.96C149.887 100.68 149.114 101.28 148.181 101.76C147.247 102.213 146.114 102.44 144.781 102.44C143.821 102.44 142.847 102.307 141.861 102.04C140.901 101.8 140.021 101.387 139.221 100.8C138.447 100.213 137.821 99.4133 137.341 98.4C136.861 97.3867 136.621 96.1067 136.621 94.56V82.08H141.061V93.72C141.061 94.9733 141.261 95.96 141.661 96.68C142.087 97.3733 142.674 97.8667 143.421 98.16C144.167 98.4533 145.034 98.6 146.021 98.6C147.434 98.6 148.634 98.28 149.621 97.64C150.607 97 151.394 96.2133 151.981 95.28C152.594 94.32 152.994 93.4 153.181 92.52ZM160.885 82.08H174.965V85.72H160.885V82.08ZM165.685 76.72H170.165V102H165.685V76.72ZM200.475 102.44C198.849 102.44 197.462 102.12 196.315 101.48C195.195 100.84 194.289 100 193.595 98.96C192.929 97.8933 192.435 96.76 192.115 95.56C191.795 94.3333 191.635 93.1733 191.635 92.08C191.635 90.6133 191.782 89.2533 192.075 88C192.395 86.7467 192.889 85.6533 193.555 84.72C194.249 83.76 195.155 83.0133 196.275 82.48C197.422 81.92 198.822 81.64 200.475 81.64C202.342 81.64 204.022 82.0933 205.515 83C207.009 83.88 208.195 85.1067 209.075 86.68C209.955 88.2267 210.395 90.0267 210.395 92.08C210.395 94.1333 209.942 95.9467 209.035 97.52C208.155 99.0667 206.969 100.28 205.475 101.16C203.982 102.013 202.315 102.44 200.475 102.44ZM199.155 98.76C200.489 98.76 201.662 98.48 202.675 97.92C203.689 97.36 204.475 96.5733 205.035 95.56C205.595 94.5467 205.875 93.3867 205.875 92.08C205.875 90.08 205.289 88.4533 204.115 87.2C202.942 85.92 201.289 85.28 199.155 85.28C197.822 85.28 196.622 85.56 195.555 86.12C194.489 86.68 193.649 87.4667 193.035 88.48C192.422 89.4667 192.115 90.6667 192.115 92.08C192.115 93.36 192.395 94.5067 192.955 95.52C193.515 96.5333 194.315 97.3333 195.355 97.92C196.395 98.48 197.662 98.76 199.155 98.76ZM187.675 82.08H191.915L192.115 86.96V110H187.675V82.08ZM214.755 74.08H219.195V102H214.755V74.08ZM241.229 95.44H245.509C245.296 96.8 244.763 98.0133 243.909 99.08C243.083 100.12 241.949 100.947 240.509 101.56C239.069 102.147 237.349 102.44 235.349 102.44C233.083 102.44 231.056 102.027 229.269 101.2C227.483 100.347 226.083 99.1467 225.069 97.6C224.056 96.0533 223.549 94.2133 223.549 92.08C223.549 89.9733 224.043 88.1333 225.029 86.56C226.016 84.9867 227.376 83.7733 229.109 82.92C230.869 82.0667 232.896 81.64 235.189 81.64C237.563 81.64 239.536 82.0667 241.109 82.92C242.709 83.7467 243.896 85 244.669 86.68C245.443 88.3333 245.763 90.4267 245.629 92.96H228.069C228.203 94.08 228.563 95.0933 229.149 96C229.763 96.88 230.589 97.5733 231.629 98.08C232.669 98.56 233.883 98.8 235.269 98.8C236.816 98.8 238.109 98.4933 239.149 97.88C240.216 97.2667 240.909 96.4533 241.229 95.44ZM235.069 85.24C233.256 85.24 231.763 85.6933 230.589 86.6C229.416 87.48 228.656 88.6133 228.309 90H241.149C241.043 88.5067 240.443 87.3467 239.349 86.52C238.256 85.6667 236.829 85.24 235.069 85.24ZM249.589 82.08H254.029V102H249.589V82.08ZM262.429 81.64C263.576 81.64 264.629 81.8 265.589 82.12C266.576 82.44 267.416 82.9333 268.109 83.6C268.829 84.24 269.376 85.04 269.749 86C270.149 86.96 270.349 88.0933 270.349 89.4V102H265.909V90.28C265.909 88.6533 265.509 87.4533 264.709 86.68C263.936 85.88 262.709 85.48 261.029 85.48C259.749 85.48 258.576 85.76 257.509 86.32C256.469 86.8533 255.616 87.56 254.949 88.44C254.283 89.2933 253.896 90.24 253.789 91.28L253.749 89.12C253.883 88.1333 254.176 87.2 254.629 86.32C255.083 85.4133 255.683 84.6133 256.429 83.92C257.176 83.2 258.056 82.64 259.069 82.24C260.083 81.84 261.203 81.64 262.429 81.64ZM273.853 82.08H287.933V85.72H273.853V82.08ZM278.653 76.72H283.133V102H278.653V76.72ZM289.625 82.08H294.385L302.425 101.2L298.585 102L289.625 82.08ZM311.825 82.08L299.025 110H294.345L299.825 99.08L307.065 82.08H311.825Z" fill="#228B22"/>
</g>
<defs>
<clipPath id="clip0_3203_31242">
<rect width="555" height="116" fill="white"/>
</clipPath>
</defs>
</svg>
