<svg width="1119" height="132" viewBox="0 0 1119 132" fill="none" xmlns="http://www.w3.org/2000/svg">
<path d="M9.6 28.3H22.9V93H9.6V28.3ZM105.722 79.8L101.522 81.5V28.3H114.822V93H101.522L49.2219 41.9L53.4219 40.2V93H40.1219V28.3H53.4219L105.722 79.8ZM153.159 93L124.559 28.3H139.259L163.759 86.7H159.159L183.559 28.3H198.059L169.759 93H153.159ZM221.098 66V81.9H270.998V93H207.798V28.3H270.898V39.4H221.098V55.5H261.898V66H221.098ZM280.353 71.2H293.853C294.12 73.4667 295.153 75.5333 296.953 77.4C298.82 79.2 301.253 80.6333 304.253 81.7C307.253 82.7 310.62 83.2 314.353 83.2C317.753 83.2 320.553 82.8333 322.753 82.1C324.953 81.3667 326.586 80.3333 327.653 79C328.72 77.6667 329.253 76.0667 329.253 74.2C329.253 72.4 328.586 71.0333 327.253 70.1C325.92 69.1 323.82 68.3 320.953 67.7C318.086 67.0333 314.32 66.3667 309.653 65.7C305.986 65.1667 302.52 64.4333 299.253 63.5C295.986 62.5 293.086 61.2333 290.553 59.7C288.086 58.1667 286.12 56.3 284.653 54.1C283.253 51.8333 282.553 49.1667 282.553 46.1C282.553 42.3 283.62 38.9667 285.753 36.1C287.953 33.2333 291.186 31 295.453 29.4C299.72 27.8 304.953 27 311.153 27C320.486 27 327.653 29 332.653 33C337.72 36.9333 340.186 42.3667 340.053 49.3H327.053C326.786 45.3667 325.12 42.5333 322.053 40.8C319.053 39.0667 315.253 38.2 310.653 38.2C306.386 38.2 302.853 38.8333 300.053 40.1C297.32 41.3667 295.953 43.5333 295.953 46.6C295.953 47.8 296.286 48.8667 296.953 49.8C297.62 50.6667 298.753 51.4333 300.353 52.1C301.953 52.7667 304.12 53.4 306.853 54C309.586 54.6 312.986 55.2 317.053 55.8C320.853 56.3333 324.286 57.0667 327.353 58C330.486 58.8667 333.153 60.0333 335.353 61.5C337.62 62.9 339.353 64.7 340.553 66.9C341.753 69.1 342.353 71.8 342.353 75C342.353 78.9333 341.32 82.3667 339.253 85.3C337.253 88.1667 334.12 90.4 329.853 92C325.653 93.6 320.186 94.4 313.453 94.4C308.653 94.4 304.42 93.9 300.753 92.9C297.086 91.8333 293.92 90.4333 291.253 88.7C288.586 86.9667 286.42 85.0667 284.753 83C283.086 80.9333 281.886 78.8667 281.153 76.8C280.486 74.7333 280.22 72.8667 280.353 71.2ZM348.387 28.3H416.587V39.4H348.387V28.3ZM375.887 38H389.187V93H375.887V38ZM459.774 94.3C451.174 94.3 443.808 92.9667 437.674 90.3C431.608 87.5667 426.941 83.7 423.674 78.7C420.474 73.7 418.874 67.7 418.874 60.7C418.874 53.6333 420.474 47.6 423.674 42.6C426.941 37.6 431.608 33.7667 437.674 31.1C443.808 28.3667 451.174 27 459.774 27C468.441 27 475.808 28.3667 481.874 31.1C487.941 33.7667 492.574 37.6 495.774 42.6C499.041 47.6 500.674 53.6333 500.674 60.7C500.674 67.7 499.041 73.7 495.774 78.7C492.574 83.7 487.941 87.5667 481.874 90.3C475.808 92.9667 468.441 94.3 459.774 94.3ZM459.774 82.8C465.108 82.8 469.774 82 473.774 80.4C477.841 78.8 481.008 76.3667 483.274 73.1C485.608 69.8333 486.774 65.7 486.774 60.7C486.774 55.7 485.608 51.5667 483.274 48.3C481.008 45.0333 477.841 42.6 473.774 41C469.774 39.3333 465.108 38.5 459.774 38.5C454.508 38.5 449.808 39.3333 445.674 41C441.541 42.6 438.308 45.0333 435.974 48.3C433.641 51.5667 432.474 55.7 432.474 60.7C432.474 65.7 433.641 69.8333 435.974 73.1C438.308 76.3667 441.541 78.8 445.674 80.4C449.808 82 454.508 82.8 459.774 82.8ZM513.657 93V28.3H557.557C562.557 28.3 566.89 29 570.557 30.4C574.29 31.7333 577.19 33.8667 579.257 36.8C581.324 39.6667 582.357 43.3667 582.357 47.9C582.357 50.9667 581.824 53.5667 580.757 55.7C579.69 57.8333 578.19 59.5667 576.257 60.9C574.39 62.2333 572.224 63.2667 569.757 64C567.29 64.6667 564.657 65.1 561.857 65.3L560.457 64.5C565.124 64.5667 568.957 64.9667 571.957 65.7C574.957 66.3667 577.19 67.6333 578.657 69.5C580.19 71.3 580.957 74 580.957 77.6V93H567.657V78.5C567.657 76.0333 567.224 74.1333 566.357 72.8C565.49 71.4 563.924 70.4333 561.657 69.9C559.457 69.3667 556.257 69.1 552.057 69.1H526.957V93H513.657ZM526.957 58.7H557.557C561.29 58.7 564.124 57.8 566.057 56C568.057 54.2 569.057 51.7667 569.057 48.7C569.057 45.7667 568.057 43.5333 566.057 42C564.124 40.4667 561.29 39.7 557.557 39.7H526.957V58.7ZM603.474 48.7H596.574L592.474 36.3V27.7H607.674V36.3L603.474 48.7ZM615.021 71.2H628.521C628.788 73.4667 629.821 75.5333 631.621 77.4C633.488 79.2 635.921 80.6333 638.921 81.7C641.921 82.7 645.288 83.2 649.021 83.2C652.421 83.2 655.221 82.8333 657.421 82.1C659.621 81.3667 661.254 80.3333 662.321 79C663.388 77.6667 663.921 76.0667 663.921 74.2C663.921 72.4 663.254 71.0333 661.921 70.1C660.588 69.1 658.488 68.3 655.621 67.7C652.754 67.0333 648.988 66.3667 644.321 65.7C640.654 65.1667 637.188 64.4333 633.921 63.5C630.654 62.5 627.754 61.2333 625.221 59.7C622.754 58.1667 620.788 56.3 619.321 54.1C617.921 51.8333 617.221 49.1667 617.221 46.1C617.221 42.3 618.288 38.9667 620.421 36.1C622.621 33.2333 625.854 31 630.121 29.4C634.388 27.8 639.621 27 645.821 27C655.154 27 662.321 29 667.321 33C672.388 36.9333 674.854 42.3667 674.721 49.3H661.721C661.454 45.3667 659.788 42.5333 656.721 40.8C653.721 39.0667 649.921 38.2 645.321 38.2C641.054 38.2 637.521 38.8333 634.721 40.1C631.988 41.3667 630.621 43.5333 630.621 46.6C630.621 47.8 630.954 48.8667 631.621 49.8C632.288 50.6667 633.421 51.4333 635.021 52.1C636.621 52.7667 638.788 53.4 641.521 54C644.254 54.6 647.654 55.2 651.721 55.8C655.521 56.3333 658.954 57.0667 662.021 58C665.154 58.8667 667.821 60.0333 670.021 61.5C672.288 62.9 674.021 64.7 675.221 66.9C676.421 69.1 677.021 71.8 677.021 75C677.021 78.9333 675.988 82.3667 673.921 85.3C671.921 88.1667 668.788 90.4 664.521 92C660.321 93.6 654.854 94.4 648.121 94.4C643.321 94.4 639.088 93.9 635.421 92.9C631.754 91.8333 628.588 90.4333 625.921 88.7C623.254 86.9667 621.088 85.0667 619.421 83C617.754 80.9333 616.554 78.8667 615.821 76.8C615.154 74.7333 614.888 72.8667 615.021 71.2Z" fill="#228B22"/>
<path d="M750.076 94.3C744.076 94.3 738.642 93.6 733.776 92.2C728.976 90.8 724.809 88.7 721.276 85.9C717.809 83.1 715.142 79.6333 713.276 75.5C711.409 71.3667 710.476 66.6 710.476 61.2C710.476 55.7333 711.442 50.9 713.376 46.7C715.376 42.4333 718.176 38.8333 721.776 35.9C725.442 32.9667 729.776 30.7667 734.776 29.3C739.842 27.7667 745.442 27 751.576 27C758.842 27 765.109 28.0333 770.376 30.1C775.642 32.1 779.776 34.9333 782.776 38.6C785.842 42.2667 787.576 46.6333 787.976 51.7H775.176C774.309 49.0333 772.876 46.7333 770.876 44.8C768.942 42.8 766.376 41.2667 763.176 40.2C759.976 39.0667 756.109 38.5 751.576 38.5C745.776 38.5 740.809 39.4333 736.676 41.3C732.609 43.1667 729.509 45.8 727.376 49.2C725.242 52.6 724.176 56.6 724.176 61.2C724.176 65.6667 725.109 69.5333 726.976 72.8C728.842 76 731.709 78.4667 735.576 80.2C739.509 81.9333 744.509 82.8 750.576 82.8C755.242 82.8 759.342 82.2 762.876 81C766.476 79.7333 769.476 78.0667 771.876 76C774.276 73.8667 775.976 71.5 776.976 68.9L782.176 67C781.309 75.6 778.042 82.3 772.376 87.1C766.776 91.9 759.342 94.3 750.076 94.3ZM778.776 93C778.776 90.9333 778.909 88.5667 779.176 85.9C779.442 83.1667 779.776 80.4333 780.176 77.7C780.576 74.9 780.942 72.3333 781.276 70H751.676V61.5H790.276V93H778.776ZM863.682 64.4V28.3H876.982V65.8C876.982 70.0667 876.349 73.8 875.082 77C873.882 80.2 872.149 82.9 869.882 85.1C867.615 87.3 864.949 89.1 861.882 90.5C858.882 91.8333 855.582 92.8 851.982 93.4C848.449 94 844.715 94.3 840.782 94.3C836.715 94.3 832.849 94 829.182 93.4C825.515 92.8 822.149 91.8333 819.082 90.5C816.082 89.1 813.482 87.3 811.282 85.1C809.082 82.9 807.349 80.2 806.082 77C804.882 73.8 804.282 70.0667 804.282 65.8V28.3H817.582V64.4C817.582 69.4667 818.582 73.3333 820.582 76C822.582 78.6 825.315 80.4 828.782 81.4C832.315 82.3333 836.315 82.8 840.782 82.8C845.115 82.8 848.982 82.3333 852.382 81.4C855.849 80.4 858.582 78.6 860.582 76C862.649 73.3333 863.682 69.4667 863.682 64.4ZM894.268 28.3H907.568V93H894.268V28.3ZM961.79 28.3C969.057 28.3 975.123 29.1667 979.99 30.9C984.857 32.6333 988.723 35 991.59 38C994.523 40.9333 996.59 44.3333 997.79 48.2C999.057 52.0667 999.69 56.1333 999.69 60.4C999.69 64.6667 998.99 68.7667 997.59 72.7C996.257 76.6333 994.09 80.1333 991.09 83.2C988.157 86.2 984.257 88.6 979.39 90.4C974.59 92.1333 968.723 93 961.79 93H924.79V28.3H961.79ZM938.09 81.6H961.49C966.29 81.6 970.257 81.0333 973.39 79.9C976.59 78.7 979.123 77.1 980.99 75.1C982.857 73.1 984.19 70.8333 984.99 68.3C985.79 65.7667 986.19 63.1333 986.19 60.4C986.19 57.6667 985.79 55.0667 984.99 52.6C984.19 50.1333 982.857 47.9333 980.99 46C979.123 44.0667 976.59 42.5333 973.39 41.4C970.257 40.2667 966.29 39.7 961.49 39.7H938.09V81.6ZM1025.98 66V81.9H1075.88V93H1012.68V28.3H1075.78V39.4H1025.98V55.5H1066.78V66H1025.98Z" fill="black"/>
<path d="M7 131L251 131" stroke="url(#paint0_linear_2220_19182)" stroke-width="2" stroke-linecap="round"/>
<defs>
<linearGradient id="paint0_linear_2220_19182" x1="7" y1="132" x2="245.281" y2="132" gradientUnits="userSpaceOnUse">
<stop stop-color="#228B22"/>
<stop offset="1" stop-color="#228B22" stop-opacity="0"/>
</linearGradient>
</defs>
</svg>
