<svg width="1024" height="348" viewBox="0 0 1024 348" fill="none" xmlns="http://www.w3.org/2000/svg">
<g clip-path="url(#clip0_17134_33694)">
<rect x="0.412109" y="0.145508" width="1023" height="347" rx="20" fill="#23A323"/>
<g opacity="0.7" clip-path="url(#clip1_17134_33694)">
<mask id="mask0_17134_33694" style="mask-type:luminance" maskUnits="userSpaceOnUse" x="-3" y="-150" width="1029" height="644">
<path d="M1025.41 -149.354H-2.58789V493.146H1025.41V-149.354Z" fill="white"/>
</mask>
<g mask="url(#mask0_17134_33694)">
<path d="M789.704 338.165L825.233 328.165L835.97 337.91L842.861 339.719L848.844 347.35L863.115 349.754L872.837 346.268L877.649 332.831L882.992 320.237L881.504 309.574L865.637 293.215L860.482 279.455L856.803 279.323L853.443 270.085L850.328 285.914L847.975 288.548L835.339 281.732L837.462 277.235L838.878 274.748L837.124 272.9L832.427 273.339L826.376 271.002L819.909 278.172L819.828 281.818L815.471 282.005L813.292 278.165L805.126 283.43L799.802 288.137L798.917 291.47L794.881 294.949L784.795 297.596L779.344 302.234L777.918 301.967L776.996 309.92L777.859 312.19L779.786 319.922L782.693 327.559L782.444 333.651L779.913 334.716L781.246 337.474L783.386 336.756L785.922 338.396L789.704 338.165Z" fill="white" fill-opacity="0.1"/>
<path d="M825.679 247.943L830.42 247.381L825.679 246.435L824.021 245.255L821.475 243.081L824.906 243.053L826.604 241.695L831.266 243.081L832.241 246.415L833.191 249.75L835.013 249.798L840.838 244.995L862.012 253.453L863.589 256.767L866.882 258.094L867.154 259.381L865.866 259.569L865.998 261.118L873.31 268.302L875.218 268.651L874.514 270.254L872.377 269.192L867.152 268.217L862.182 262.726L858.314 262.383L855.874 264.077L856.057 265.189L853.667 266.489L849.648 266.237L847.014 262.645L841.016 263.441L841.728 261.052L844.104 260.195L840.984 255.085L830.567 251.176L830.743 249.625L829.546 251.977L827.996 251.841L826.981 249.514L825.679 249.066V247.943Z" fill="white" fill-opacity="0.1"/>
<path d="M801.52 266.274C801.902 266.547 806.996 263.228 806.996 263.228L811.505 262.534L811.858 262.811L806.689 265.584C806.689 265.584 803.584 267.972 803.551 267.956C803.519 267.94 801.862 268.517 801.862 268.517L801.52 266.274Z" fill="white" fill-opacity="0.1"/>
<path d="M794.673 237.509L803.033 238.46L805.758 235.973L805.993 238.163L802.616 240.179L796.071 239.686L793.899 239.468L792.42 241.541L794.141 244.206C794.141 244.206 796.608 243.028 796.943 243.084C797.279 243.139 799.709 242.67 799.709 242.67L801.05 242.151L801.216 242.901L799.639 244.206L796.776 246.046L798.705 248.89L798.69 250.125L800.184 251.924L797.183 253.486L794.985 249.825L794.318 249.771L795.16 248.232L793.876 247.987L793.251 251.084L793.344 253.486L792.418 255.914L790.879 255.763L790.464 254.64L791.472 252.621L791.294 250.192L789.432 249.508V247.596L790.405 245.746L792.178 239.73L794.673 237.509Z" fill="white" fill-opacity="0.1"/>
<path d="M755.614 256.54L757.741 256.837L758.522 256.231L761.01 257.304L762.366 258.475L764.985 258.609L766.924 259.047L767.944 257.835L770.093 258.511L772.22 259.046L773.546 260.588L774.758 261.33C774.758 261.33 775.86 260.716 776.11 260.845C776.361 260.975 778.022 261.45 778.022 261.45L777.742 263.333L774.724 262.983L770.009 262.734L765.222 261.33H760.837L758.506 260.497L756.897 260.625L756.093 259.138L754.257 258.721L755.614 256.54Z" fill="white" fill-opacity="0.1"/>
<path d="M773.09 259.101L773.434 259.95L776.33 259.665L776.95 258.889L775.294 258.74L773.766 258.803L773.09 259.101Z" fill="white" fill-opacity="0.1"/>
<path d="M778.999 262.115C778.999 262.115 780.055 262.226 780.146 262.258C780.239 262.291 781.339 262.896 781.339 262.896L780.689 263.472C780.689 263.472 780.345 263.992 780.279 264.085C780.213 264.178 779.913 264.284 779.913 264.284L779.211 263.717L778.628 263.338L778.58 262.987L778.999 262.115Z" fill="white" fill-opacity="0.1"/>
<path d="M765.096 235.97L769.053 235.61L777.502 229.701L780.165 228.367L783.86 222.454L787.5 225.254L790.43 226.593L788.188 227.637L786.259 230.232L785.411 231.744L789.678 238.234L786.832 238.77L785.812 241.79L783.054 245.123L782.835 248.28L779.013 251.57L778.02 249.519C778.02 249.519 776.233 249.278 775.021 249.314C773.81 249.349 766.964 248.147 766.964 248.147L763.546 240.104L765.096 235.97Z" fill="white" fill-opacity="0.1"/>
<path d="M728.208 225.983L734.874 228.32C734.874 228.32 740.698 234.363 741.277 234.944C741.856 235.525 751.773 245.788 752.479 246.502C753.184 247.216 755.146 250.506 755.146 250.506L755.613 256.542L752.175 255.432L747.893 253.446L739.502 241.695L733.997 234.992L730.809 231.746L727.187 227.569L728.208 225.983Z" fill="white" fill-opacity="0.1"/>
<path d="M740.525 225.165C740.525 225.165 741.657 229.984 742.085 230.954C742.513 231.924 747.528 236.642 747.528 236.642L750.388 237.767L750.427 235.444L748.497 231.466L748.567 227.669L742.927 222.51L740.978 221.606L739.239 216.63L737.624 215.222L739.986 205.116L741.601 204.742L752.208 213.98L755.255 216.539L763.648 209.837L763.853 205.278L762.978 200.179L755.772 191.937L733.357 197.407L736.396 210.768L735.262 217.131L738.209 222.122L740.525 225.165Z" fill="white" fill-opacity="0.1"/>
<path d="M755.774 191.935V187.378C755.774 187.378 759.875 182.611 761.409 182.86C762.944 183.109 765.413 184.188 767.723 183.477C770.034 182.765 787.275 175.917 787.275 175.917L797.279 159.607L796.124 152.585L790.832 144.231L799.145 137.739L793.947 136.049L789.853 137.474L789.365 132.138L797.013 126.765L796.66 131.207L803.874 130.176L806.569 131.427L806.788 136.406L809.572 136.787L809.727 143.922L808.834 146.891L818.262 143.607L816.173 136.229L812.699 130.539C812.699 130.539 817.01 128.156 817.324 127.07C817.638 125.984 823.728 118.892 823.728 118.892L827.727 121.115L844.795 103.159L847.504 91.8215L848.038 84.6239L842.881 81.425L840.218 83.8681L833.326 79.916L850.083 64.4863L859.597 62.3548L880.176 63.3347L889.821 54.1357C889.821 54.1357 909.873 49.0543 909.157 50.618C908.441 52.1817 891.198 68.7533 889.821 70.3989C888.443 72.0445 886.399 79.8678 886.399 79.8678L888.89 92.6238L902.223 80.5778L906.974 73.5086L903.822 65.471L911.509 59.9583L922.49 57.4694L942.533 49.4197L949.688 39.824L952.975 33.6399C952.975 33.6399 959.912 35.5136 961.248 37.7342C962.585 39.9549 969.867 41.158 969.867 41.158L976.89 35.1546L967.734 30.1319L925.689 16.3944L925.778 22.1287L898.928 18.2151L896.127 13.1506C896.127 13.1506 882.747 14.3071 879.995 13.1506C877.242 11.9941 844.925 5.01813 844.925 5.01813L843.239 9.81841L820.569 12.753L814.835 6.61957L812.391 -0.535473L799.636 2.48669L757.499 0.484501L775.195 -9.33773L773.01 -15.8254L760.478 -17.2509L752.923 -22.2295L737.189 -15.7844L704.453 -8.57074L704.03 -4.04674L685.872 -2.05017L692.964 6.57218C692.964 6.57218 680.165 2.04095 679.807 4.70652C679.449 7.37209 670.65 7.73028 670.65 7.73028C670.65 7.73028 674.871 20.4438 677.659 21.7545C681.881 23.739 685.871 25.4641 685.871 25.4641L668.914 31.8674C668.914 31.8674 656.645 31.7325 659.981 31.6C663.317 31.4674 667.624 19.7739 667.624 19.7739L666.562 3.51148L658.072 3.82067L651.404 13.0671L656.512 21.687L630.96 21.7794L603.26 27.651L624.346 167.486C624.346 167.486 637.608 173.632 639.594 173.251C641.581 172.87 650.825 172.128 650.825 172.128L656.584 178.095L666.401 181.62L672.118 203.703L678.502 218.453L681.493 218.992L685.098 216.58L686.123 213.064L687.74 204.861L688.571 198.607L708.086 183.239L718.192 181.62C718.192 181.62 720.92 186.959 723.037 190.897C725.153 194.835 725.191 198.232 725.191 198.232L728.757 197.818L732.031 195.705L733.358 197.407L755.774 191.935Z" fill="white" fill-opacity="0.1"/>
<path d="M822.485 146.195C823.294 145.473 827.297 142.775 827.923 142.915C828.549 143.054 833.147 142.786 833.147 142.786L841.013 137.788C841.013 137.788 844.884 132.79 845.04 131.607C845.197 130.424 844.849 127.098 845.153 126.92C845.458 126.741 847.637 125.118 847.637 125.118L850.394 129.143L849.154 134.118L847.881 136.383L846.819 140.697C846.819 140.697 847.237 143.702 846.347 144.233C845.457 144.763 840.615 145.362 840.615 145.362L836.879 145.871L834.704 148.252L832.441 147.565L832.658 145.522C832.658 145.522 831.173 145.88 829.194 146.056C827.216 146.231 824.725 148.031 824.236 147.855C823.747 147.68 821.707 147.586 821.707 147.586L822.485 146.195Z" fill="white" fill-opacity="0.1"/>
<path d="M824.879 149.075L827.055 147.585L830.474 146.738L831.08 148.519L830.509 149.821H829.065L828.148 149.238L826.924 150.831L825.327 150.675L824.879 149.075Z" fill="white" fill-opacity="0.1"/>
<path d="M817.779 149.624L820.15 148.253L824.126 149.982C824.126 149.982 823.358 151.937 823.236 152.411C823.115 152.885 820.922 155.968 820.922 155.968L819.679 155.728L819.388 154.125L820.334 151.937L819.803 150.632L818.377 151.697L817.779 149.624Z" fill="white" fill-opacity="0.1"/>
<path d="M846.304 124.415L847.972 123.807L846.48 122.294L847.104 121.628C847.104 121.628 848.658 121.25 848.905 121.271C849.152 121.291 853.303 122.583 853.303 122.583L856.171 119.92C856.171 119.92 858.624 120.102 858.841 119.866C859.059 119.63 859.986 118.399 859.986 118.399L859.318 117.393L859.986 115.704L858.147 116.736L855.418 115.917L852.064 113.528L850.37 112.118L849.371 112.648L849.891 114.018C849.891 114.018 849.521 116.092 849.531 116.278C849.542 116.465 848.663 117.649 848.663 117.649L848.703 119.075L846.413 118.917L846.125 120.12L844.637 121.629L845.416 122.98L845.481 124.536L846.304 124.415Z" fill="white" fill-opacity="0.1"/>
<path d="M850.749 84.5385L852.039 83.3828L851.77 81.428C851.77 81.428 853.144 81.2899 853.191 81.9155C853.237 82.5411 854.838 92.54 854.838 92.54L857.233 100.579L853.545 99.5176L852.482 102.892L852.749 106.097L854.661 108.451L854.217 109.918L851.771 108.367L850.661 110.143L849.772 108.45L850.592 105.326L850.62 102.093L850.081 100.052L850.839 95.8746L850.882 92.3601L850.036 90.8952L849.903 87.8691L850.749 84.5385Z" fill="white" fill-opacity="0.1"/>
<path d="M603.26 27.6517L581.925 38.7983L572.6 40.2889L563.152 31.0096L574.162 32.7387L583.825 32.3757L583.788 27.8589L554.369 16.6304L544.877 11.9072L516.452 23.5919L501.87 44.3519L489.899 52.1839L492.839 66.478L503.03 63.8293L510.365 76.7531L520.227 73.4764L522.466 64.9014L528.819 63.1619L525.762 57.3175L522.383 57.2356L523.459 49.9376L533.027 42.2405L536.054 36.2315L542.517 37.0595L540.446 41.5289L532.411 48.2462L537.879 60.1341L550.017 57.8982L553.79 60.012L547.989 61.7492L539.327 62.9137L540.446 68.9636L539.077 71.2413L534.274 69.0448L531.493 74.0185L530.957 78.9465L505.227 81.3093L501.537 77.5804L503.65 73.3109L502.951 69.0448L497.478 73.6418L499.212 82.8424L491.306 84.7073L480.291 96.2819L471.043 97.7942L471.75 101.285L465.076 100.867L464.664 103.928L471.871 108.864L471.956 118.309H451.125L452.526 138.152L467.811 139.81L476.759 133.268L477.343 127.422L484.879 123.198L486.996 118.309L492.835 119.762L500.71 116.403L512.643 125.728L518.898 132.727L517.019 137.038L524.244 129.453L520.058 125.439L512.934 119.515L508.997 114.249L510.449 111.39L518.195 117.854L526.727 123.324L528.345 130.325L531.701 133.184L534.435 138.908H537.253L539.365 136.292L537.709 131.607L536.054 128.625L539.409 126.928L546.163 127.422L551.216 126.347L550.726 122.644L551.921 117.812L555.94 111.142L560.249 108.449L564.27 114.496L570.732 113.585L568.911 109.607L577.238 106.502L576.119 110.521L576.287 114.828L583.29 119.636L586.064 123.491L580.013 126.099L569.41 123.739L562.944 123.282L545.456 130.656L553.455 140.435L563.313 141.515L570.897 139.027L568.741 149.341L566.248 155.741L567.454 164.507L574.543 174.616L583.406 188.453L588.587 199.604L590.578 206.896L603.171 203.992L617.095 196.45L627.822 190.149L634 180.748L626.83 176.276L624.799 171.218L617.718 175.696L609.719 173.124L603.26 163.464L604.704 158.702L608.27 159.616L616.184 167.655L620.742 168.855L624.346 167.486L603.26 27.6517Z" fill="white" fill-opacity="0.1"/>
<path d="M567.452 164.508L566.523 166.144H565.556L562.152 161.489L566.948 171.8L570.028 176.943L571.295 180.287L574.112 186.012L575 190.951L578.098 193.722L580.136 199.812L585.65 203.67L590.409 208.432L589.5 210.38L592.865 213.333L608.061 210.923L610.275 209.708L611.296 212.082L608.192 220.062L581.502 249.91L579.766 259.065L582.995 269.427L583.33 281.031L579.683 286.332L567.995 294.489L569.944 302.573L568.372 307.792L563.029 310.239L559.253 321.425L547.945 333.65L538.455 335.1L532.612 336.343L524.326 335.347L523.665 328.014L515.003 310.569L512.641 299.504L506.006 289.271L508.792 278.041L512.397 271.166L507.751 254.346L500.047 242.907L501.951 232.758L498.517 229.147L491.219 229.109L488.45 225.093L480.633 224.999L466.65 227.579L454.347 229.4L432.217 207.975L433.629 191.156L433.972 179.125L439.647 169.838L448.087 162.526L451.983 152.54L457.904 148.147L461.181 142.472L470.42 145.082L487.281 139.32L502.077 137.994L505.602 145.163L504.192 149.096L521.881 156.559L528.966 157.844L529.3 153.617L535.636 151.836L550.099 156.431L561.59 156.22L566.245 155.742L567.452 164.508Z" fill="white" fill-opacity="0.1"/>
<path d="M593.179 285.473L593.119 294.066L590.332 299.99L592.288 308.885L598.75 309.352L602.957 299.932L605.445 292.466L607.639 284.707L606.156 273.799L601.671 279.013L593.179 285.473Z" fill="white" fill-opacity="0.1"/>
<path d="M287.45 313.825L285.25 337.543L281.339 346.433L281.28 357.81L283.884 360.72L280.272 378.023L279.209 386.847L283.65 393.315L290.821 402.674L303.208 403.149L295.624 396.033L293.487 390.879L300.54 380.866L298.464 374.937L302.435 368.533L305.634 360.836L305.103 355.913L311.803 351.646L322.409 348.623L325.964 342.934L323.476 336.419L332.424 337.719L341.847 326.938L348.188 314.667L347.537 309.452L351.014 306.194L359.387 303.463L364.361 303.113L369.877 295.523L373.199 283.969L373.374 275.317L376.813 272.176L380.487 268.207L383.567 263.584L381.734 255.168L375.269 251.967L366.086 249.119L358.322 247.283L353.223 244.383L349.072 243.254L344.929 242.246L342.557 236.265L335.035 227.074L325.426 225.949L310.554 214.808L301.487 213.681L295.086 212.441L288.089 208.53L278.85 212.379L272.394 220.013L271.678 229.652L267.503 236.914L262.109 244.161L262.816 247.853C262.816 247.853 260.889 254.364 261.245 254.958C261.601 255.553 272.92 274.279 272.92 274.279L276.478 281.422L283.469 285.515L289.397 290.37C289.397 290.37 289.758 304.706 289.75 305.957C289.743 307.207 287.45 313.825 287.45 313.825Z" fill="white" fill-opacity="0.1"/>
<path d="M272.156 223.207L272.961 219.343L267.904 215.327L264.934 215.127L262.145 216.433L259.401 216.63L255.806 212.997L254.264 210.685L254.561 207.129L255.799 201.61L254.324 199.607L252.004 197.241L247.931 198.015L241.95 198.628L241.565 197.241L242.82 194.438L242.281 192.736L242.708 190.118L244.073 189.584L244.37 186.504L246.66 183.408L245.614 182.356L240.752 182.535L237.49 183.428L236.193 186.382L234.979 190.874L228.901 191.185C228.901 191.185 226.711 192.499 226.117 191.842C225.524 191.185 221.674 188.163 221.674 188.163L218.408 182.749L217.346 178.981L218.013 174.769L219.008 170.398L217.82 166.637L192.571 175.631L196.662 180.431L197.343 184.574L197.878 188.43C197.878 188.43 204.686 191.981 205.4 192.34C206.115 192.699 216.2 197.27 216.914 197.546C217.629 197.822 222.296 198.355 222.296 198.355L225.668 197.138L230.024 199.627L232.057 202.09C232.057 202.09 236.657 203.482 237.759 204.014C238.861 204.546 244.017 205.23 244.017 205.23L248.982 211.055L248.963 213.555L251.423 214.744L253.079 215.215L254.709 217.47L257.17 218.297L259.894 219.156L261.944 220.726L263.874 220.435L263.334 218.776L265.199 216.814L267.749 217.022L272.156 223.207Z" fill="white" fill-opacity="0.1"/>
<path d="M217.821 166.64L219.657 163.618L224.537 161.749L228.288 159.159C228.288 159.159 233.744 159.746 233.992 159.875C234.239 160.003 238.024 160.724 238.381 160.886C238.739 161.048 240.258 160.979 240.258 160.979L237.763 157.834C237.763 157.834 240.073 157.606 240.592 157.618C241.111 157.629 246.504 157.517 246.504 157.517L249.772 158.798L250.77 159.706L254.03 158.874C254.03 158.874 256.773 161.504 256.936 161.786C257.099 162.069 256.934 165.515 256.934 165.515L259.175 168.865L259.882 170.401L261.083 170.968L261.729 172.108C261.729 172.108 262.634 172.908 262.794 172.749C262.953 172.59 264.276 170.14 264.276 170.14L262.308 162.984L260.669 155.134L271.972 145.15L275.642 140.226L273.886 136.718L274.594 130.846L275.306 134.818L277.622 133.73L280.618 127.489L288.225 123.555L289.231 118.106L298.001 113.42L306.54 111.417L300.792 117.171L313.001 112.311L318.92 110.874L305.332 107.208L302.627 98.443L304.043 95.4168L321.054 91.6269L327.754 89.4344L311.753 71.956L304.996 58.4988L298.652 65.3567L292.196 64.1311L291.073 58.1414L286.624 53.3186L270.625 49.254L269.614 62.7658L267.429 66.2048L272.106 67.391L273.058 74.6167L265.884 78.5344L267.84 88.7822L260.453 87.8932L257.822 80.1342L253.258 77.0502L231.096 68.6945L225.352 61.6374C225.352 61.6374 228.431 51.4514 229.379 51.0932C230.328 50.735 237.676 44.5156 237.676 44.5156L244.544 40.1867L247.15 32.3081L256.104 32.4848L259.957 27.2685L257.764 23.6568L260.192 20.0371L251.3 17.1941L249.465 22.3493L246.088 28.5736L242.889 21.641L236.962 19.8026L231.335 17.0752L226.592 6.88195L231.569 3.14982L236.782 -2.18534L224.932 -3.78516L223.511 4.21798L220.25 12.8652L227.897 20.8081L223.331 27.6234L210.296 26.4404L193.937 21.7614C193.937 21.7614 184.514 24.9587 182.382 25.9048C180.25 26.8508 158.379 19.0324 158.379 19.0324L144.333 18.7971L136.986 13.2812L121.876 19.5071L67.8829 12.4532L50.0864 13.3302L42.3114 19.6838L36.0486 21.8827L40.3574 26.1425L46.486 30.2344L50.9377 31.8647L43.0791 33.9673L35.647 34.4749L32.7373 36.9325L35.8261 39.3338L47.1454 40.7561L50.9377 40.104L51.0212 44.069L40.5967 47.9281L37.3296 53.4351L41.9861 59.2714L46.7599 58.1454L49.929 64.2861L61.3326 64.1038L40.0658 78.4573L41.5733 80.3044L70.4039 64.9985L72.4751 59.6874C72.4751 59.6874 76.4851 62.3321 76.9542 62.2108C77.4232 62.0896 84.4497 58.1783 84.4497 58.1783L85.5733 54.7723C85.5733 54.7723 99.8826 58.8915 102.758 59.7203C105.634 60.5492 120.039 69.9457 120.039 69.9457L135.77 85.3802L148.188 108.427L147.829 128.582C147.829 128.582 154.964 141.029 155.799 142.449C156.635 143.868 164.693 148.46 164.693 148.46L169.517 157.566C169.517 157.566 174.642 167.222 176.661 168.379C178.678 169.536 185.937 178.751 185.937 178.751L179.505 166.31L174.14 159.359L174.35 154.367L192.572 175.64L217.821 166.64Z" fill="white" fill-opacity="0.1"/>
<path d="M296.972 -14.2677C296.972 -14.2677 309.482 -16.029 310.695 -15.8732C311.909 -15.7174 322.485 -10.5155 322.485 -10.5155C322.485 -10.5155 332.159 2.37545 332.159 4.28529C332.159 6.19512 335.322 29.7885 335.322 29.7885L345.257 49.9156L355.668 56.5471L361.624 57.6811L369.354 39.2582L381.049 34.0796L391.428 25.6998L414.717 15.5909L422.433 -2.71074L419.764 -17.9894L420.686 -28.479L434.683 -41.9032L443.804 -46.6883L427.706 -46.2144L418.818 -45.0732L418.036 -52.3366L400.735 -59.0732L375.248 -58.7383L347.954 -56.5442L310.901 -44.4018L296.97 -37.6844L286.051 -27.7176L296.972 -14.2677Z" fill="white" fill-opacity="0.1"/>
<path d="M148.361 -5.8623L144.626 4.8056L152.185 11.1198L158.676 6.13477L165.789 13.6946L169.658 19.9646C169.658 19.9646 177.809 20.0674 181.623 19.9646C185.436 19.8618 197.356 17.9254 198.783 17.8749C200.21 17.8243 210.864 17.2532 210.864 17.2532L200.719 11.0852L197.563 4.45222L197.791 -2.35105L190.187 0.497635L191.393 7.87434L184.547 2.98491L174.144 -0.0878463L165.873 -4.44078L154.761 -5.68401L148.361 -5.8623Z" fill="white" fill-opacity="0.1"/>
<path d="M204.904 1.69676C206.104 1.24941 212.9 8.49441 212.9 8.49441L219.214 7.07367L223.511 4.21455L216.817 -3.86328L204.904 1.69676Z" fill="white" fill-opacity="0.1"/>
<path d="M243.127 -2.57812L238.233 4.89496L240.105 13.3984C240.105 13.3984 251.497 15.8528 252.176 15.7347C252.855 15.6167 268.453 15.0657 269.376 15.505C270.3 15.9452 278.536 23.4544 280.009 24.6623C281.482 25.871 285.122 28.9293 285.122 28.9293C285.122 28.9293 279.349 34.1504 279.178 34.9872C279.009 35.8241 276.794 38.9699 276.794 38.9699L269.697 37.3532L269.171 40.5111L274.713 41.7849L279.604 40.8653L284.585 44.1886L296.255 50.767L300.495 51.7115L297.707 47.7441L293.737 44.2184L295.311 44.2392L299.813 46.6173L303.666 48.2155L302.985 40.573L298.123 36.9284L296.81 33.4581L298.302 32.0976L303.902 37.281L307.429 38.9997L313.828 32.0109L303.751 25.9015L298.592 23.9499L294.897 22.3187L296.703 20.2146L297.862 17.3659L287.397 10.0205L281.704 9.75306L278.952 5.87396L274.28 2.64058L268.87 -1.35577L261.948 -2.12515L252.686 -0.695593L247.42 -2.12515L243.127 -2.57812Z" fill="white" fill-opacity="0.1"/>
<path d="M247.686 35.1445L247.301 41.3455L245.521 43.7596L248.263 44.2391L250.986 42.9589L249.522 45.965H252.198C252.198 45.965 255.065 42.09 255.836 42.7662C256.606 43.4424 261.261 45.4318 261.261 45.4318L264.313 44.2391L259.396 41.343L255.66 38.8493L252.989 38.0494L247.686 35.1445Z" fill="white" fill-opacity="0.1"/>
<path d="M270.88 26.5929L274.995 28.8529L277.282 27.0298L275.6 24.1426L271.186 24.4927L270.88 26.5929Z" fill="white" fill-opacity="0.1"/>
<path d="M253.973 49.4525L257.948 46.6953L259.397 48.9754L256.08 51.5044L253.973 49.4525Z" fill="white" fill-opacity="0.1"/>
<path d="M212.77 20.7173L221.077 23.6045L223.572 22.3195L221.613 19.25L223.615 18.585L222.029 17.4879L219.256 18.3199L216.591 17.165L212.77 20.7173Z" fill="white" fill-opacity="0.1"/>
<path d="M319.812 102.469L324.434 93.5835L328.525 91.4512L327.651 93.4879L326.333 96.4265C326.333 96.4265 334.516 100.694 334.751 101.168C334.987 101.642 335.936 105.494 335.936 105.494L334.509 107.332L328.229 105.912L323.728 104.252L318.926 104.071L319.812 102.469Z" fill="white" fill-opacity="0.1"/>
<path d="M253.795 180.697L261.322 181.171L268.427 184.073L275.367 187.035L279.394 186.503L276.016 183.897L269.025 180.933L262.862 178.384L256.458 178.27H252.36L253.795 180.697Z" fill="white" fill-opacity="0.1"/>
<path d="M270.623 193.14L274.18 192.433L272.917 190.874L268.728 191.426L270.623 193.14Z" fill="white" fill-opacity="0.1"/>
<path d="M280.696 191.898C281.47 191.843 287.099 193.021 287.099 193.021L287.932 191.307L293.38 190.773L294.216 189.005L289.823 187.452L283.425 186.444L282.005 186.98L283.659 189.94L279.824 189.742L280.696 191.898Z" fill="white" fill-opacity="0.1"/>
<path d="M413.371 36.4946L422.299 44.9395C422.299 44.9395 425.057 46.2028 425.922 46.3144C426.788 46.4269 433.007 44.0279 433.007 44.0279L440.587 39.5184L437.458 34.8691L433.21 32.8701L426.114 34.7141L421.255 37.0263L418.413 33.7656L415.568 32.9994L413.371 36.4946Z" fill="white" fill-opacity="0.1"/>
<path d="M452.769 81.8209L449.719 81.9687L450.078 84.8101L452.325 85.6703L449.543 89.2851L451.587 91.4222L454.993 90.2609L457.04 88.8121L459.144 88.723L459.663 82.5959L461.902 81.2258L459.645 78.153L456.534 77.8486L453.863 78.7441L452.769 81.8209Z" fill="white" fill-opacity="0.1"/>
<path d="M463.301 65.2891L460.282 72.4939C460.282 72.4939 462.367 76.2059 463.068 76.8846C463.769 77.5632 466.837 80.2063 466.837 80.2063L468.232 83.2742L465.147 85.8041L463.059 89.937L467.971 91.4203L462.545 95.6745L479.988 92.829V90.259L481.459 87.791L477.459 85.4298L473.148 79.9188L469.126 75.0543L471.587 69.3842L466.369 67.9626L467.66 65.6505L463.301 65.2891Z" fill="white" fill-opacity="0.1"/>
<path d="M497.668 127.641C497.864 128.125 498.772 132.503 498.772 132.503L502.072 132.655V125.449L497.668 127.641Z" fill="white" fill-opacity="0.1"/>
<path d="M622.692 4.2308L634.725 -7.06353L657.064 -15.7807L656.236 -18.5635L645.39 -15.4192L631.521 -12.932L618.603 -0.724474L611.492 8.22315L621.271 14.1526L627.947 13.5302L622.484 8.07055L622.692 4.2308Z" fill="white" fill-opacity="0.1"/>
<path d="M813.556 235.987L813.959 238.976L814.259 241.401L814.917 243.082L816.074 243.469L815.388 241.04V239.728L817.142 240.773L818.005 240.398L817.241 239.728L816.594 238.743L817.479 237.532V236.704L816.222 237.014L814.917 237.851V235.884V234.603L813.296 234.04L813.556 235.987Z" fill="white" fill-opacity="0.1"/>
<path d="M815.345 249.76L819.488 250.188L822.376 251.703L822.891 250.881L822.064 249.575L819.488 248.546H815.389L814.451 249.314L815.345 249.76Z" fill="white" fill-opacity="0.1"/>
<path d="M782.087 262.726L781.733 264.153L782.979 264.421C782.979 264.421 783.512 263.887 783.579 263.764C783.645 263.64 783.902 262.726 783.902 262.726L783.233 262.534L782.087 262.726Z" fill="white" fill-opacity="0.1"/>
<path d="M784.289 263.077C784.385 263.054 785.337 262.979 785.337 262.979L786.555 263.704L785.858 264.901L784.942 265.236L784.175 264.774L783.581 263.765L784.289 263.077Z" fill="white" fill-opacity="0.1"/>
<path d="M786.081 262.458L787.296 262.983L787.793 263.944L788.509 264.399L789.575 264.178L789.933 263.481V262.73L788.808 262.628H787.975L787.279 262.252L786.555 262.115L786.081 262.458Z" fill="white" fill-opacity="0.1"/>
<path d="M789.532 265.775C789.553 265.924 789.931 267.012 789.931 267.012H790.892L792.37 267.536L793.582 267.958L794.716 267.496L794.019 266.609L793.372 265.775L792.479 265.482L791.163 265.437L789.532 265.775Z" fill="white" fill-opacity="0.1"/>
<path d="M791.415 263.346L792.851 264.153C792.851 264.153 794.197 264.177 794.284 264.282C794.372 264.387 795.603 264.399 795.685 264.282C795.767 264.164 797.711 264.005 797.711 264.005L798.096 262.984L797.118 263.197L796.322 263.347L795.731 263.197L795.45 262.726L794.315 262.534L793.071 262.639L791.415 263.346Z" fill="white" fill-opacity="0.1"/>
<path d="M799.379 262.628L798.837 263.481L799.108 263.767L800.046 263.198L800.597 263.35L800.799 262.628L800.333 262.115L799.379 262.628Z" fill="white" fill-opacity="0.1"/>
<path d="M801.52 262.836H803.298L804.123 262.252L805.429 262.115L805.934 262.522L805.317 263.256H804.418L803.136 263.453L801.703 263.35L801.52 262.836Z" fill="white" fill-opacity="0.1"/>
<path d="M808.381 260.791L807.834 261.705L809.536 261.749L810.73 261.479L810.586 260.622L808.381 260.791Z" fill="white" fill-opacity="0.1"/>
<path d="M809.717 249.802L810.449 250.938L811.893 251.288L813.299 250.905L812.827 249.511L811.161 249.101L809.717 249.802Z" fill="white" fill-opacity="0.1"/>
<path d="M801.103 243.774L800.613 245.088L801.991 244.961L802.595 244.431V243.774H801.103Z" fill="white" fill-opacity="0.1"/>
<path d="M793.858 192.323L796.069 190.194L798.209 194.365L796.166 199.568L797.324 203.569L794.255 203.879L792.704 201.655L791.81 197.567L793.353 197.036L794.755 194.44L793.858 192.323Z" fill="white" fill-opacity="0.1"/>
<path d="M797.545 223.702L799.635 220.414L803.104 220.369L803.012 224.011L806.169 226.145L807.189 222.318L809.816 221.789L808.259 214.989L802.703 219.21C802.703 219.21 800.932 218.477 800.331 218.452C799.729 218.426 796.942 220.656 796.942 220.656L797.545 223.702Z" fill="white" fill-opacity="0.1"/>
<path d="M786.062 217.874C786.879 217.434 789.698 214.36 789.698 214.36L791.264 213.171L791.081 211.098L789.25 213.05L786.081 215.747L783.904 218.454L786.062 217.874Z" fill="white" fill-opacity="0.1"/>
<path d="M797.413 207.255L797.86 210.319L797.325 212.856L799.323 212.147L800.836 210.365L797.413 207.255Z" fill="white" fill-opacity="0.1"/>
<path d="M803.681 207.522L804.79 209.612L803.9 211.034L804.57 212.189L805.232 214.321L807.1 213.123L805.944 211.391L807.1 210.319L807.057 208.412L806.235 206.278L803.681 207.522Z" fill="white" fill-opacity="0.1"/>
<path d="M799.581 214.993L800.612 212.859L802.437 211.66L803.28 213.972L801.323 215.391L799.581 214.993Z" fill="white" fill-opacity="0.1"/>
<path d="M799.014 205.301L800.836 207.482L801.549 208.944H802.834L802.658 205.792H803.844L804.128 203.745H801.902L798.881 203.437L799.014 205.301Z" fill="white" fill-opacity="0.1"/>
<path d="M793.231 204.941L794.652 208.941L796.167 207.962L795.905 205.52L793.231 204.941Z" fill="white" fill-opacity="0.1"/>
<path d="M933.272 336.38L938.391 343.712L936.513 351.302L939.721 353.903V357.373L941.743 357.834L945.053 353.058L945.044 350.802L947.057 349.853L948.95 347.124L949.156 345.286L947.474 345.031L945.946 346.178L944.291 347.107L941.87 344.777L940.999 342.755L938.517 338.281L935.374 336.879L933.272 336.38Z" fill="white" fill-opacity="0.1"/>
<path d="M830.551 256.544L832.479 255.001L833.102 257.534L831.853 259.539L830.551 256.544Z" fill="white" fill-opacity="0.1"/>
<path d="M793.015 176.949L795.147 173.434L796.926 172.854L796.836 176.054L796.167 178.719L794.747 181.742L792.475 179.198L793.015 176.949Z" fill="white" fill-opacity="0.1"/>
<path d="M686.246 216.83C685.956 216.914 686.246 223.777 686.246 223.777C686.246 223.777 688.969 225.343 689.112 225.33C689.254 225.317 691.575 222.566 691.575 222.566C691.575 222.566 691.403 220.12 691.339 219.971C691.274 219.821 689.726 216.531 689.726 216.531L687.138 214.611L686.246 216.83Z" fill="white" fill-opacity="0.1"/>
<path d="M661.281 179.261L657.989 181.164C657.989 181.164 660.059 183.322 660.269 183.651C660.478 183.981 663.171 185.307 663.171 185.307L666.004 183.92L666.758 181.107L661.281 179.261Z" fill="white" fill-opacity="0.1"/>
<g opacity="0.994221">
<path d="M493.171 102.026C494.331 102.026 495.272 102.968 495.272 104.127C495.272 105.286 494.331 106.228 493.171 106.228C492.012 106.228 491.071 105.286 491.071 104.127C491.071 102.968 492.012 102.026 493.171 102.026Z" fill="#23A323"/>
</g>
<path d="M493.169 98.1006C496.494 98.1006 499.193 100.8 499.193 104.124C499.193 107.448 496.494 110.147 493.169 110.147C489.845 110.147 487.146 107.448 487.146 104.124C487.146 100.8 489.845 98.1006 493.169 98.1006Z" fill="#23A323"/>
<g opacity="0.994221">
<path d="M318.109 256.226C319.269 256.226 320.21 257.167 320.21 258.326C320.21 259.486 319.269 260.427 318.109 260.427C316.95 260.427 316.009 259.486 316.009 258.326C316.009 257.167 316.95 256.226 318.109 256.226Z" fill="#23A323"/>
</g>
<path d="M318.11 252.302C321.435 252.302 324.134 255.001 324.134 258.325C324.134 261.65 321.435 264.349 318.11 264.349C314.786 264.349 312.087 261.65 312.087 258.325C312.087 255.001 314.786 252.302 318.11 252.302Z" fill="#23A323"/>
<g opacity="0.994221">
<path d="M830.035 305.349C831.195 305.349 832.136 306.29 832.136 307.449C832.136 308.609 831.195 309.55 830.035 309.55C828.876 309.55 827.935 308.609 827.935 307.449C827.935 306.29 828.876 305.349 830.035 305.349Z" fill="#23A323"/>
</g>
<path d="M830.033 301.423C833.358 301.423 836.057 304.122 836.057 307.446C836.057 310.771 833.358 313.47 830.033 313.47C826.709 313.47 824.01 310.771 824.01 307.446C824.01 304.122 826.709 301.423 830.033 301.423Z" fill="#23A323"/>
<g opacity="0.994221">
<path d="M212.488 122.321C213.648 122.321 214.589 123.263 214.589 124.422C214.589 125.581 213.648 126.523 212.488 126.523C211.329 126.523 210.388 125.581 210.388 124.422C210.388 123.263 211.329 122.321 212.488 122.321Z" fill="#23A323"/>
</g>
<path d="M212.49 118.396C215.815 118.396 218.514 121.096 218.514 124.42C218.514 127.744 215.815 130.443 212.49 130.443C209.166 130.443 206.467 127.744 206.467 124.42C206.467 121.096 209.166 118.396 212.49 118.396Z" fill="#23A323"/>
<g opacity="0.994221">
<path d="M526.51 208.782C527.67 208.782 528.611 209.724 528.611 210.883C528.611 212.042 527.67 212.984 526.51 212.984C525.351 212.984 524.41 212.042 524.41 210.883C524.41 209.724 525.351 208.782 526.51 208.782Z" fill="#23A323"/>
</g>
<path d="M526.509 204.861C529.833 204.861 532.532 207.56 532.532 210.885C532.532 214.209 529.833 216.908 526.509 216.908C523.184 216.908 520.485 214.209 520.485 210.885C520.485 207.56 523.184 204.861 526.509 204.861Z" fill="#23A323"/>
<g opacity="0.994221">
<path d="M695.073 123.472C696.232 123.472 697.173 124.413 697.173 125.572C697.173 126.732 696.232 127.673 695.073 127.673C693.913 127.673 692.972 126.732 692.972 125.572C692.972 124.413 693.913 123.472 695.073 123.472Z" fill="#23A323"/>
</g>
<path d="M695.071 119.552C698.395 119.552 701.094 122.251 701.094 125.575C701.094 128.9 698.395 131.599 695.071 131.599C691.746 131.599 689.047 128.9 689.047 125.575C689.047 122.251 691.746 119.552 695.071 119.552Z" fill="#23A323"/>
</g>
</g>
<line opacity="0.07" x1="56.9121" y1="0.145508" x2="56.9121" y2="347.146" stroke="white"/>
<line opacity="0.07" x1="127.912" y1="0.145508" x2="127.912" y2="347.146" stroke="white"/>
<line opacity="0.07" x1="198.912" y1="0.145508" x2="198.912" y2="347.146" stroke="url(#paint0_linear_17134_33694)"/>
<line opacity="0.07" x1="269.912" y1="0.145508" x2="269.912" y2="347.146" stroke="url(#paint1_linear_17134_33694)"/>
<line opacity="0.07" x1="340.912" y1="0.145508" x2="340.912" y2="347.146" stroke="url(#paint2_linear_17134_33694)"/>
<line opacity="0.07" x1="411.912" y1="0.145508" x2="411.912" y2="347.146" stroke="url(#paint3_linear_17134_33694)"/>
<line opacity="0.07" x1="482.912" y1="0.145508" x2="482.912" y2="347.146" stroke="url(#paint4_linear_17134_33694)"/>
<line opacity="0.07" x1="553.912" y1="0.145508" x2="553.912" y2="347.146" stroke="url(#paint5_linear_17134_33694)"/>
<line opacity="0.07" x1="624.912" y1="0.145508" x2="624.912" y2="347.146" stroke="url(#paint6_linear_17134_33694)"/>
<line opacity="0.07" x1="695.912" y1="0.145508" x2="695.912" y2="347.146" stroke="url(#paint7_linear_17134_33694)"/>
<line opacity="0.07" x1="766.912" y1="0.145508" x2="766.912" y2="347.146" stroke="url(#paint8_linear_17134_33694)"/>
<line opacity="0.07" x1="837.912" y1="0.145508" x2="837.912" y2="347.146" stroke="white"/>
<line opacity="0.07" x1="908.912" y1="0.145508" x2="908.912" y2="347.146" stroke="white"/>
<line opacity="0.07" x1="979.912" y1="0.145508" x2="979.912" y2="347.146" stroke="white"/>
<line opacity="0.07" x1="-2.58789" y1="259.646" x2="1023.41" y2="259.646" stroke="url(#paint9_linear_17134_33694)"/>
<line opacity="0.07" x1="-2.58789" y1="310.646" x2="1023.41" y2="310.646" stroke="url(#paint10_linear_17134_33694)"/>
<line opacity="0.07" x1="-2.58789" y1="207.646" x2="1023.41" y2="207.646" stroke="url(#paint11_linear_17134_33694)"/>
<line opacity="0.07" x1="-2.58789" y1="150.646" x2="1023.41" y2="150.646" stroke="url(#paint12_linear_17134_33694)"/>
<line opacity="0.07" x1="-2.58789" y1="97.6455" x2="1023.41" y2="97.6455" stroke="url(#paint13_linear_17134_33694)"/>
<line opacity="0.07" x1="-2.58789" y1="45.6455" x2="1023.41" y2="45.6455" stroke="url(#paint14_linear_17134_33694)"/>
</g>
<defs>
<linearGradient id="paint0_linear_17134_33694" x1="198.412" y1="7.61935" x2="198.412" y2="347.146" gradientUnits="userSpaceOnUse">
<stop stop-color="white"/>
<stop offset="0.329492" stop-color="white" stop-opacity="0"/>
<stop offset="0.979167" stop-color="white"/>
</linearGradient>
<linearGradient id="paint1_linear_17134_33694" x1="269.412" y1="7.61935" x2="269.412" y2="347.146" gradientUnits="userSpaceOnUse">
<stop stop-color="white"/>
<stop offset="0.250683" stop-color="white" stop-opacity="0"/>
<stop offset="0.979167" stop-color="white"/>
</linearGradient>
<linearGradient id="paint2_linear_17134_33694" x1="340.412" y1="7.61935" x2="340.412" y2="347.146" gradientUnits="userSpaceOnUse">
<stop stop-color="white"/>
<stop offset="0.375" stop-color="white" stop-opacity="0"/>
<stop offset="0.979167" stop-color="white"/>
</linearGradient>
<linearGradient id="paint3_linear_17134_33694" x1="411.412" y1="7.61935" x2="411.412" y2="347.146" gradientUnits="userSpaceOnUse">
<stop stop-color="white"/>
<stop offset="0.53125" stop-color="white" stop-opacity="0"/>
<stop offset="0.979167" stop-color="white"/>
</linearGradient>
<linearGradient id="paint4_linear_17134_33694" x1="482.412" y1="7.61935" x2="482.412" y2="347.146" gradientUnits="userSpaceOnUse">
<stop stop-color="white"/>
<stop offset="0.229167" stop-color="white" stop-opacity="0"/>
<stop offset="0.8125" stop-color="white" stop-opacity="0.5"/>
<stop offset="0.979167" stop-color="white"/>
</linearGradient>
<linearGradient id="paint5_linear_17134_33694" x1="553.412" y1="7.61935" x2="553.412" y2="347.146" gradientUnits="userSpaceOnUse">
<stop stop-color="white"/>
<stop offset="0.229167" stop-color="white" stop-opacity="0"/>
<stop offset="0.8125" stop-color="white" stop-opacity="0.5"/>
<stop offset="0.979167" stop-color="white"/>
</linearGradient>
<linearGradient id="paint6_linear_17134_33694" x1="624.412" y1="7.61935" x2="624.412" y2="347.146" gradientUnits="userSpaceOnUse">
<stop stop-color="white"/>
<stop offset="0.375" stop-color="white" stop-opacity="0"/>
<stop offset="0.979167" stop-color="white"/>
</linearGradient>
<linearGradient id="paint7_linear_17134_33694" x1="695.412" y1="7.61935" x2="695.412" y2="347.146" gradientUnits="userSpaceOnUse">
<stop stop-color="white"/>
<stop offset="0.322917" stop-color="white" stop-opacity="0"/>
<stop offset="0.979167" stop-color="white"/>
</linearGradient>
<linearGradient id="paint8_linear_17134_33694" x1="766.412" y1="7.61935" x2="766.412" y2="347.146" gradientUnits="userSpaceOnUse">
<stop stop-color="white"/>
<stop offset="0.359375" stop-color="white" stop-opacity="0"/>
<stop offset="0.979167" stop-color="white"/>
</linearGradient>
<linearGradient id="paint9_linear_17134_33694" x1="1023.41" y1="260.146" x2="12.0549" y2="260.146" gradientUnits="userSpaceOnUse">
<stop stop-color="white"/>
<stop offset="0.245185" stop-color="white" stop-opacity="0.429208"/>
<stop offset="0.787671" stop-color="white" stop-opacity="0"/>
<stop offset="0.958333" stop-color="white"/>
</linearGradient>
<linearGradient id="paint10_linear_17134_33694" x1="1023.41" y1="311.146" x2="12.0549" y2="311.146" gradientUnits="userSpaceOnUse">
<stop stop-color="white"/>
<stop offset="0.245185" stop-color="white" stop-opacity="0.429208"/>
<stop offset="0.787671" stop-color="white" stop-opacity="0"/>
<stop offset="0.958333" stop-color="white"/>
</linearGradient>
<linearGradient id="paint11_linear_17134_33694" x1="1023.41" y1="208.146" x2="12.0549" y2="208.146" gradientUnits="userSpaceOnUse">
<stop stop-color="white"/>
<stop offset="0.245185" stop-color="white" stop-opacity="0.429208"/>
<stop offset="0.787671" stop-color="white" stop-opacity="0"/>
<stop offset="0.958333" stop-color="white"/>
</linearGradient>
<linearGradient id="paint12_linear_17134_33694" x1="1023.41" y1="151.146" x2="12.0549" y2="151.146" gradientUnits="userSpaceOnUse">
<stop stop-color="white"/>
<stop offset="0.329261" stop-color="white" stop-opacity="0.429208"/>
<stop offset="0.657887" stop-color="white" stop-opacity="0"/>
<stop offset="0.958333" stop-color="white"/>
</linearGradient>
<linearGradient id="paint13_linear_17134_33694" x1="1023.41" y1="98.1455" x2="12.0549" y2="98.1455" gradientUnits="userSpaceOnUse">
<stop stop-color="white"/>
<stop offset="0.245185" stop-color="white" stop-opacity="0.429208"/>
<stop offset="0.787671" stop-color="white" stop-opacity="0"/>
<stop offset="0.958333" stop-color="white"/>
</linearGradient>
<linearGradient id="paint14_linear_17134_33694" x1="-2.58789" y1="46.1455" x2="1009.91" y2="46.1455" gradientUnits="userSpaceOnUse">
<stop stop-color="white"/>
<stop offset="0.204805" stop-color="white" stop-opacity="0.541667"/>
<stop offset="1" stop-color="white"/>
</linearGradient>
<clipPath id="clip0_17134_33694">
<rect width="1023" height="347" fill="white" transform="translate(0.412109 0.145508)"/>
</clipPath>
<clipPath id="clip1_17134_33694">
<rect width="1028" height="642.5" fill="white" transform="translate(-2.58789 -149.354)"/>
</clipPath>
</defs>
</svg>
