<svg width="1023" height="347" viewBox="0 0 1023 347" fill="none" xmlns="http://www.w3.org/2000/svg">
<g clip-path="url(#clip0_2220_23271)">
<rect width="1023" height="347" rx="20" fill="#228B22"/>
<g opacity="0.7" clip-path="url(#clip1_2220_23271)">
<mask id="mask0_2220_23271" style="mask-type:luminance" maskUnits="userSpaceOnUse" x="-3" y="-150" width="1028" height="643">
<path d="M1025 -149.5H-3V493H1025V-149.5Z" fill="white"/>
</mask>
<g mask="url(#mask0_2220_23271)">
<path d="M789.291 338.019L824.82 328.019L835.557 337.764L842.449 339.573L848.431 347.204L862.703 349.608L872.424 346.122L877.236 332.685L882.58 320.091L881.092 309.428L865.224 293.069L860.069 279.309L856.391 279.177L853.031 269.939L849.915 285.768L847.563 288.402L834.926 281.586L837.049 277.089L838.465 274.602L836.711 272.754L832.014 273.193L825.964 270.856L819.496 278.026L819.415 281.672L815.059 281.859L812.88 278.019L804.714 283.284L799.389 287.991L798.505 291.324L794.468 294.803L784.383 297.45L778.931 302.088L777.505 301.821L776.583 309.774L777.446 312.044L779.374 319.776L782.281 327.413L782.031 333.505L779.5 334.57L780.834 337.328L782.973 336.61L785.509 338.25L789.291 338.019Z" fill="white" fill-opacity="0.1"/>
<path d="M825.267 247.797L830.008 247.236L825.267 246.289L823.609 245.109L821.063 242.936L824.494 242.908L826.191 241.55L830.854 242.936L831.829 246.27L832.779 249.604L834.6 249.653L840.425 244.849L861.6 253.308L863.177 256.621L866.47 257.949L866.742 259.235L865.454 259.423L865.586 260.973L872.897 268.157L874.805 268.505L874.101 270.109L871.965 269.046L866.74 268.071L861.77 262.58L857.902 262.237L855.461 263.931L855.645 265.044L853.254 266.344L849.236 266.092L846.601 262.499L840.604 263.296L841.316 260.907L843.692 260.05L840.571 254.94L830.154 251.031L830.331 249.48L829.133 251.831L827.583 251.696L826.568 249.368L825.267 248.921V247.797Z" fill="white" fill-opacity="0.1"/>
<path d="M801.107 266.129C801.489 266.403 806.584 263.084 806.584 263.084L811.092 262.39L811.446 262.667L806.277 265.44C806.277 265.44 803.172 267.828 803.139 267.812C803.106 267.796 801.45 268.373 801.45 268.373L801.107 266.129Z" fill="white" fill-opacity="0.1"/>
<path d="M794.261 237.364L802.62 238.314L805.345 235.827L805.581 238.017L802.203 240.034L795.659 239.541L793.486 239.322L792.008 241.395L793.729 244.061C793.729 244.061 796.195 242.883 796.531 242.938C796.867 242.993 799.297 242.524 799.297 242.524L800.638 242.006L800.804 242.756L799.226 244.061L796.364 245.901L798.292 248.745L798.278 249.98L799.772 251.779L796.77 253.341L794.573 249.679L793.906 249.626L794.747 248.086L793.464 247.842L792.838 250.939L792.932 253.341L792.006 255.769L790.467 255.618L790.052 254.494L791.059 252.475L790.882 250.046L789.019 249.362V247.451L789.993 245.6L791.766 239.584L794.261 237.364Z" fill="white" fill-opacity="0.1"/>
<path d="M755.201 256.396L757.329 256.693L758.11 256.087L760.598 257.16L761.954 258.331L764.572 258.465L766.512 258.903L767.532 257.691L769.681 258.367L771.808 258.902L773.134 260.444L774.346 261.186C774.346 261.186 775.447 260.572 775.698 260.701C775.949 260.831 777.609 261.306 777.609 261.306L777.329 263.189L774.312 262.838L769.597 262.59L764.809 261.186H760.424L758.094 260.353L756.485 260.481L755.681 258.994L753.845 258.577L755.201 256.396Z" fill="white" fill-opacity="0.1"/>
<path d="M772.678 258.955L773.022 259.804L775.918 259.52L776.538 258.743L774.882 258.595L773.354 258.657L772.678 258.955Z" fill="white" fill-opacity="0.1"/>
<path d="M778.586 261.971C778.586 261.971 779.642 262.082 779.734 262.114C779.826 262.147 780.926 262.751 780.926 262.751L780.277 263.327C780.277 263.327 779.932 263.848 779.866 263.941C779.8 264.033 779.501 264.14 779.501 264.14L778.798 263.572L778.216 263.193L778.168 262.842L778.586 261.971Z" fill="white" fill-opacity="0.1"/>
<path d="M764.683 235.825L768.641 235.465L777.09 229.556L779.753 228.222L783.448 222.309L787.088 225.109L790.018 226.448L787.776 227.492L785.847 230.087L784.999 231.599L789.265 238.089L786.42 238.625L785.4 241.645L782.642 244.978L782.423 248.135L778.601 251.425L777.608 249.374C777.608 249.374 775.82 249.133 774.609 249.169C773.398 249.204 766.552 248.002 766.552 248.002L763.134 239.959L764.683 235.825Z" fill="white" fill-opacity="0.1"/>
<path d="M727.796 225.838L734.461 228.175C734.461 228.175 740.286 234.218 740.864 234.799C741.443 235.38 751.361 245.643 752.066 246.357C752.772 247.071 754.734 250.361 754.734 250.361L755.201 256.396L751.762 255.287L747.481 253.301L739.09 241.55L733.584 234.847L730.396 231.601L726.774 227.424L727.796 225.838Z" fill="white" fill-opacity="0.1"/>
<path d="M740.112 225.02C740.112 225.02 741.244 229.838 741.672 230.808C742.101 231.779 747.115 236.496 747.115 236.496L749.976 237.621L750.015 235.299L748.085 231.32L748.154 227.524L742.515 222.364L740.566 221.46L738.826 216.485L737.211 215.076L739.573 204.97L741.188 204.597L751.796 213.834L754.842 216.394L763.236 209.691L763.44 205.133L762.566 200.033L755.359 191.791L732.945 197.261L735.983 210.623L734.849 216.986L737.797 221.976L740.112 225.02Z" fill="white" fill-opacity="0.1"/>
<path d="M755.362 191.79V187.233C755.362 187.233 759.463 182.466 760.997 182.715C762.532 182.964 765.001 184.043 767.311 183.332C769.622 182.62 786.863 175.772 786.863 175.772L796.867 159.462L795.712 152.44L790.42 144.086L798.733 137.594L793.535 135.904L789.441 137.329L788.953 131.993L796.601 126.62L796.248 131.062L803.462 130.031L806.157 131.282L806.376 136.261L809.16 136.642L809.315 143.777L808.422 146.746L817.85 143.462L815.761 136.084L812.287 130.394C812.287 130.394 816.597 128.011 816.911 126.925C817.225 125.839 823.316 118.747 823.316 118.747L827.315 120.97L844.383 103.014L847.092 91.6765L847.626 84.4789L842.469 81.28L839.806 83.7231L832.914 79.771L849.671 64.3413L859.185 62.2098L879.764 63.1896L889.409 53.9906C889.409 53.9906 909.461 48.9093 908.745 50.4729C908.028 52.0366 890.786 68.6083 889.409 70.2539C888.031 71.8995 885.987 79.7228 885.987 79.7228L888.478 92.4788L901.811 80.4327L906.562 73.3636L903.41 65.326L911.097 59.8133L922.078 57.3244L942.121 49.2747L949.276 39.6789L952.563 33.4949C952.563 33.4949 959.5 35.3686 960.836 37.5892C962.173 39.8099 969.455 41.0129 969.455 41.0129L976.478 35.0096L967.321 29.9868L925.277 16.2494L925.365 21.9837L898.516 18.0701L895.715 13.0056C895.715 13.0056 882.335 14.1621 879.582 13.0056C876.83 11.8491 844.513 4.87311 844.513 4.87311L842.827 9.67339L820.157 12.608L814.423 6.47455L811.979 -0.680492L799.223 2.34167L757.087 0.339481L774.783 -9.48275L772.598 -15.9704L760.066 -17.3959L752.511 -22.3745L736.776 -15.9294L704.041 -8.71576L703.618 -4.19176L685.46 -2.19519L692.552 6.42716C692.552 6.42716 679.753 1.89593 679.395 4.5615C679.037 7.22707 670.238 7.58526 670.238 7.58526C670.238 7.58526 674.459 20.2987 677.247 21.6094C681.469 23.594 685.459 25.3191 685.459 25.3191L668.502 31.7224C668.502 31.7224 656.233 31.5875 659.569 31.455C662.905 31.3224 667.212 19.6289 667.212 19.6289L666.15 3.36646L657.66 3.67566L650.991 12.922L656.1 21.542L630.548 21.6343L602.848 27.506L623.934 167.34C623.934 167.34 637.196 173.487 639.182 173.106C641.168 172.725 650.413 171.983 650.413 171.983L656.172 177.95L665.989 181.475L671.706 203.558L678.09 218.308L681.08 218.847L684.686 216.435L685.71 212.919L687.328 204.716L688.158 198.462L707.674 183.094L717.78 181.475C717.78 181.475 720.508 186.814 722.625 190.752C724.741 194.69 724.779 198.087 724.779 198.087L728.345 197.673L731.619 195.56L732.946 197.262L755.362 191.79Z" fill="white" fill-opacity="0.1"/>
<path d="M822.073 146.051C822.882 145.328 826.885 142.63 827.511 142.77C828.137 142.909 832.735 142.642 832.735 142.642L840.6 137.644C840.6 137.644 844.472 132.646 844.628 131.463C844.785 130.28 844.437 126.953 844.741 126.775C845.046 126.597 847.225 124.974 847.225 124.974L849.982 128.998L848.742 133.973L847.469 136.238L846.407 140.553C846.407 140.553 846.825 143.557 845.935 144.088C845.045 144.619 840.203 145.217 840.203 145.217L836.467 145.726L834.292 148.108L832.029 147.421L832.246 145.378C832.246 145.378 830.761 145.735 828.782 145.911C826.804 146.086 824.313 147.886 823.824 147.711C823.335 147.536 821.295 147.441 821.295 147.441L822.073 146.051Z" fill="white" fill-opacity="0.1"/>
<path d="M824.467 148.93L826.643 147.44L830.061 146.593L830.668 148.374L830.097 149.676H828.653L827.735 149.093L826.512 150.686L824.915 150.53L824.467 148.93Z" fill="white" fill-opacity="0.1"/>
<path d="M817.367 149.479L819.738 148.108L823.714 149.838C823.714 149.838 822.946 151.792 822.824 152.266C822.703 152.74 820.51 155.823 820.51 155.823L819.267 155.583L818.976 153.981L819.922 151.792L819.391 150.487L817.965 151.552L817.367 149.479Z" fill="white" fill-opacity="0.1"/>
<path d="M845.892 124.269L847.559 123.661L846.067 122.148L846.691 121.482C846.691 121.482 848.245 121.104 848.493 121.125C848.74 121.145 852.89 122.437 852.89 122.437L855.758 119.774C855.758 119.774 858.211 119.957 858.429 119.72C858.646 119.484 859.573 118.253 859.573 118.253L858.906 117.248L859.573 115.559L857.735 116.591L855.005 115.771L851.652 113.383L849.957 111.973L848.958 112.503L849.479 113.873C849.479 113.873 849.108 115.947 849.119 116.133C849.129 116.319 848.251 117.504 848.251 117.504L848.291 118.929L846 118.771L845.713 119.974L844.225 121.483L845.004 122.834L845.069 124.391L845.892 124.269Z" fill="white" fill-opacity="0.1"/>
<path d="M850.337 84.3935L851.627 83.2378L851.358 81.283C851.358 81.283 852.732 81.1448 852.778 81.7705C852.825 82.3961 854.426 92.395 854.426 92.395L856.821 100.434L853.133 99.3726L852.07 102.747L852.337 105.952L854.249 108.306L853.805 109.773L851.358 108.222L850.249 109.998L849.36 108.305L850.18 105.181L850.208 101.948L849.669 99.9075L850.427 95.7296L850.469 92.2151L849.624 90.7502L849.491 87.724L850.337 84.3935Z" fill="white" fill-opacity="0.1"/>
<path d="M602.848 27.5067L581.513 38.6532L572.187 40.1438L562.74 30.8645L573.75 32.5937L583.413 32.2307L583.376 27.7139L553.957 16.4854L544.465 11.7622L516.04 23.4469L501.458 44.2068L489.487 52.0389L492.427 66.3329L502.618 63.6842L509.953 76.6081L519.815 73.3314L522.054 64.7564L528.407 63.0168L525.35 57.1725L521.97 57.0906L523.047 49.7926L532.615 42.0954L535.642 36.0865L542.105 36.9145L540.034 41.3839L531.999 48.1012L537.467 59.9891L549.605 57.7532L553.377 59.867L547.577 61.6041L538.915 62.7687L540.034 68.8186L538.665 71.0963L533.862 68.8997L531.081 73.8735L530.545 78.8015L504.815 81.1643L501.125 77.4353L503.238 73.1659L502.539 68.8997L497.066 73.4968L498.8 82.6974L490.894 84.5623L479.879 96.1369L470.631 97.6492L471.337 101.14L464.663 100.722L464.251 103.783L471.459 108.719L471.544 118.164H450.712L452.114 138.007L467.399 139.665L476.347 133.123L476.93 127.277L484.467 123.053L486.584 118.164L492.423 119.617L500.298 116.258L512.231 125.583L518.486 132.582L516.606 136.893L523.832 129.308L519.645 125.294L512.522 119.37L508.585 114.104L510.037 111.244L517.783 117.709L526.315 123.179L527.933 130.18L531.289 133.039L534.023 138.763H536.841L538.953 136.147L537.297 131.462L535.642 128.48L538.997 126.783L545.751 127.277L550.804 126.202L550.314 122.499L551.509 117.667L555.528 110.997L559.837 108.304L563.858 114.351L570.319 113.44L568.499 109.462L576.826 106.357L575.707 110.376L575.875 114.683L582.878 119.491L585.652 123.346L579.601 125.954L568.998 123.594L562.532 123.137L545.044 130.511L553.043 140.29L562.901 141.37L570.485 138.882L568.329 149.196L565.836 155.596L567.042 164.362L574.131 174.471L582.994 188.308L588.174 199.459L590.165 206.751L602.758 203.847L616.683 196.305L627.41 190.004L633.588 180.603L626.418 176.131L624.387 171.072L617.306 175.551L609.307 172.979L602.848 163.319L604.292 158.557L607.858 159.471L615.772 167.51L620.33 168.71L623.934 167.341L602.848 27.5067Z" fill="white" fill-opacity="0.1"/>
<path d="M567.039 164.363L566.11 165.999H565.143L561.74 161.344L566.536 171.655L569.616 176.798L570.882 180.142L573.7 185.867L574.588 190.806L577.686 193.577L579.723 199.667L585.237 203.525L589.997 208.287L589.088 210.235L592.453 213.188L607.649 210.778L609.863 209.563L610.884 211.937L607.78 219.917L581.09 249.765L579.354 258.92L582.583 269.282L582.917 280.886L579.27 286.187L567.582 294.344L569.532 302.428L567.96 307.647L562.617 310.094L558.841 321.28L547.532 333.505L538.043 334.954L532.2 336.198L523.913 335.202L523.252 327.869L514.591 310.424L512.229 299.359L505.594 289.126L508.38 277.896L511.984 271.021L507.339 254.201L499.635 242.762L501.539 232.613L498.105 229.002L490.807 228.964L488.038 224.948L480.221 224.854L466.238 227.434L453.935 229.255L431.804 207.83L433.217 191.011L433.56 178.98L439.235 169.693L447.674 162.381L451.571 152.395L457.492 148.002L460.768 142.327L470.007 144.937L486.868 139.175L501.665 137.849L505.19 145.018L503.78 148.951L521.469 156.414L528.554 157.699L528.888 153.472L535.224 151.691L549.686 156.286L561.177 156.075L565.833 155.597L567.039 164.363Z" fill="white" fill-opacity="0.1"/>
<path d="M592.767 285.328L592.706 293.92L589.92 299.844L591.876 308.739L598.338 309.207L602.545 299.786L605.033 292.32L607.226 284.561L605.744 273.653L601.258 278.867L592.767 285.328Z" fill="white" fill-opacity="0.1"/>
<path d="M287.038 313.68L284.838 337.398L280.927 346.288L280.868 357.664L283.471 360.575L279.86 377.878L278.796 386.701L283.238 393.17L290.409 402.529L302.796 403.004L295.211 395.888L293.075 390.734L300.128 380.721L298.052 374.792L302.023 368.388L305.222 360.691L304.691 355.768L311.391 351.501L321.997 348.478L325.552 342.789L323.064 336.274L332.011 337.574L341.434 326.793L347.776 314.522L347.125 309.307L350.601 306.049L358.975 303.318L363.949 302.968L369.464 295.378L372.787 283.824L372.962 275.172L376.401 272.031L380.074 268.062L383.155 263.439L381.322 255.023L374.856 251.822L365.674 248.974L357.91 247.138L352.811 244.238L348.66 243.109L344.517 242.101L342.145 236.12L334.622 226.929L325.014 225.804L310.142 214.663L301.075 213.536L294.674 212.296L287.677 208.385L278.438 212.234L271.982 219.868L271.266 229.507L267.091 236.768L261.697 244.016L262.404 247.708C262.404 247.708 260.477 254.219 260.833 254.813C261.189 255.408 272.508 274.134 272.508 274.134L276.066 281.277L283.057 285.37L288.985 290.224C288.985 290.224 289.345 304.561 289.338 305.812C289.331 307.062 287.038 313.68 287.038 313.68Z" fill="white" fill-opacity="0.1"/>
<path d="M271.744 223.062L272.549 219.198L267.492 215.182L264.523 214.982L261.733 216.288L258.989 216.485L255.394 212.852L253.852 210.54L254.149 206.984L255.387 201.465L253.912 199.462L251.592 197.096L247.52 197.87L241.538 198.483L241.153 197.096L242.408 194.293L241.869 192.591L242.296 189.973L243.661 189.439L243.959 186.359L246.248 183.263L245.202 182.211L240.34 182.39L237.078 183.283L235.781 186.237L234.568 190.729L228.489 191.04C228.489 191.04 226.299 192.354 225.705 191.697C225.112 191.04 221.262 188.018 221.262 188.018L217.996 182.604L216.934 178.836L217.602 174.624L218.596 170.253L217.408 166.492L192.159 175.486L196.251 180.286L196.931 184.429L197.466 188.285C197.466 188.285 204.275 191.836 204.989 192.195C205.703 192.554 215.788 197.124 216.502 197.401C217.217 197.677 221.884 198.21 221.884 198.21L225.256 196.993L229.612 199.482L231.645 201.945C231.645 201.945 236.245 203.337 237.347 203.869C238.449 204.401 243.605 205.085 243.605 205.085L248.57 210.91L248.551 213.41L251.012 214.599L252.667 215.07L254.297 217.325L256.758 218.152L259.482 219.011L261.532 220.581L263.462 220.29L262.922 218.631L264.788 216.669L267.337 216.877L271.744 223.062Z" fill="white" fill-opacity="0.1"/>
<path d="M217.408 166.495L219.244 163.473L224.125 161.604L227.875 159.014C227.875 159.014 233.332 159.601 233.579 159.73C233.827 159.858 237.612 160.579 237.969 160.741C238.327 160.903 239.846 160.834 239.846 160.834L237.351 157.689C237.351 157.689 239.66 157.461 240.179 157.473C240.698 157.484 246.092 157.372 246.092 157.372L249.36 158.653L250.358 159.561L253.617 158.729C253.617 158.729 256.361 161.359 256.524 161.641C256.687 161.924 256.522 165.37 256.522 165.37L258.763 168.72L259.47 170.256L260.67 170.823L261.317 171.963C261.317 171.963 262.222 172.763 262.382 172.604C262.541 172.445 263.863 169.995 263.863 169.995L261.896 162.839L260.257 154.989L271.56 145.005L275.229 140.081L273.474 136.573L274.182 130.701L274.894 134.673L277.21 133.585L280.205 127.344L287.813 123.41L288.819 117.961L297.588 113.275L306.128 111.272L300.379 117.026L312.588 112.166L318.507 110.729L304.919 107.063L302.215 98.298L303.63 95.2718L320.641 91.4819L327.342 89.2893L311.34 71.8109L304.584 58.3538L298.24 65.2116L291.784 63.9861L290.661 57.9964L286.212 53.1736L270.212 49.109L269.202 62.6208L267.017 66.0597L271.694 67.246L272.646 74.4717L265.471 78.3893L267.428 88.6372L260.041 87.7481L257.41 79.9891L252.845 76.9051L230.683 68.5494L224.939 61.4924C224.939 61.4924 228.018 51.3063 228.967 50.9482C229.915 50.59 237.264 44.3706 237.264 44.3706L244.132 40.0417L246.738 32.1631L255.692 32.3397L259.545 27.1235L257.352 23.5118L259.78 19.8921L250.887 17.049L249.052 22.2043L245.676 28.4285L242.476 21.496L236.55 19.6576L230.923 16.9302L226.18 6.73693L231.157 3.0048L236.37 -2.33036L224.519 -3.93018L223.098 4.07296L219.838 12.7202L227.484 20.6631L222.919 27.4784L209.884 26.2954L193.524 21.6164C193.524 21.6164 184.102 24.8137 181.97 25.7597C179.837 26.7058 157.967 18.8874 157.967 18.8874L143.921 18.6521L136.574 13.1362L121.464 19.3621L67.4705 12.3082L49.6741 13.1852L41.899 19.5387L35.6362 21.7377L39.945 25.9975L46.0736 30.0894L50.5254 31.7197L42.6668 33.8223L35.2347 34.3299L32.325 36.7874L35.4138 39.1888L46.733 40.6111L50.5254 39.959L50.6089 43.924L40.1843 47.783L36.9172 53.2901L41.5737 59.1264L46.3475 58.0004L49.5166 64.1411L60.9202 63.9588L39.6535 78.3122L41.1609 80.1594L69.9915 64.8535L72.0628 59.5424C72.0628 59.5424 76.0728 62.1871 76.5418 62.0658C77.0108 61.9445 84.0374 58.0333 84.0374 58.0333L85.1609 54.6273C85.1609 54.6273 99.4702 58.7465 102.345 59.5753C105.221 60.4041 119.626 69.8007 119.626 69.8007L135.358 85.2352L147.776 108.282L147.417 128.437C147.417 128.437 154.552 140.884 155.387 142.304C156.222 143.723 164.281 148.315 164.281 148.315L169.104 157.421C169.104 157.421 174.23 167.077 176.248 168.234C178.266 169.391 185.524 178.606 185.524 178.606L179.093 166.165L173.727 159.214L173.938 154.222L192.16 175.495L217.408 166.495Z" fill="white" fill-opacity="0.1"/>
<path d="M296.56 -14.4127C296.56 -14.4127 309.07 -16.174 310.283 -16.0182C311.497 -15.8624 322.073 -10.6605 322.073 -10.6605C322.073 -10.6605 331.747 2.23043 331.747 4.14027C331.747 6.0501 334.91 29.6435 334.91 29.6435L344.845 49.7706L355.256 56.402L361.212 57.536L368.942 39.1132L380.637 33.9346L391.016 25.5548L414.305 15.4459L422.021 -2.85575L419.352 -18.1344L420.274 -28.624L434.271 -42.0483L443.392 -46.8333L427.294 -46.3594L418.406 -45.2182L417.624 -52.4816L400.323 -59.2183L374.836 -58.8834L347.542 -56.6892L310.489 -44.5468L296.558 -37.8294L285.639 -27.8627L296.56 -14.4127Z" fill="white" fill-opacity="0.1"/>
<path d="M147.949 -6.00684L144.213 4.66107L151.772 10.9752L158.263 5.99024L165.377 13.5501L169.245 19.82C169.245 19.82 177.397 19.9229 181.21 19.82C185.023 19.7173 196.943 17.7809 198.371 17.7303C199.798 17.6797 210.451 17.1087 210.451 17.1087L200.307 10.9407L197.151 4.30769L197.379 -2.49558L189.775 0.353104L190.98 7.7298L184.134 2.84038L173.731 -0.232378L165.46 -4.58531L154.349 -5.82854L147.949 -6.00684Z" fill="white" fill-opacity="0.1"/>
<path d="M204.492 1.55125C205.692 1.1039 212.488 8.3489 212.488 8.3489L218.802 6.92816L223.098 4.06904L216.404 -4.00879L204.492 1.55125Z" fill="white" fill-opacity="0.1"/>
<path d="M242.715 -2.72314L237.821 4.74994L239.694 13.2534C239.694 13.2534 251.085 15.7078 251.764 15.5897C252.443 15.4717 268.041 14.9207 268.964 15.36C269.888 15.8001 278.124 23.3093 279.597 24.5172C281.07 25.726 284.71 28.7843 284.71 28.7843C284.71 28.7843 278.937 34.0054 278.766 34.8422C278.597 35.6791 276.382 38.8249 276.382 38.8249L269.285 37.2082L268.759 40.3661L274.301 41.6399L279.192 40.7203L284.173 44.0436L295.843 50.622L300.083 51.5665L297.295 47.5991L293.325 44.0733L294.9 44.0942L299.401 46.4723L303.254 48.0705L302.573 40.428L297.711 36.7834L296.398 33.3131L297.89 31.9526L303.49 37.136L307.017 38.8546L313.416 31.8658L303.339 25.7565L298.18 23.8049L294.485 22.1737L296.291 20.0695L297.45 17.2209L286.985 9.87547L281.292 9.60804L278.54 5.72894L273.868 2.49556L268.458 -1.50079L261.536 -2.27017L252.274 -0.840612L247.008 -2.27017L242.715 -2.72314Z" fill="white" fill-opacity="0.1"/>
<path d="M247.274 35L246.889 41.2009L245.109 43.6151L247.851 44.0946L250.574 42.8144L249.11 45.8205H251.786C251.786 45.8205 254.653 41.9454 255.424 42.6216C256.194 43.2979 260.849 45.2872 260.849 45.2872L263.901 44.0946L258.984 41.1985L255.248 38.7048L252.577 37.9049L247.274 35Z" fill="white" fill-opacity="0.1"/>
<path d="M270.467 26.4479L274.582 28.7079L276.87 26.8848L275.187 23.9976L270.773 24.3477L270.467 26.4479Z" fill="white" fill-opacity="0.1"/>
<path d="M253.561 49.3074L257.536 46.5503L258.985 48.8304L255.668 51.3594L253.561 49.3074Z" fill="white" fill-opacity="0.1"/>
<path d="M212.357 20.5722L220.664 23.4595L223.16 22.1745L221.2 19.1049L223.202 18.4399L221.616 17.3429L218.844 18.1749L216.178 17.02L212.357 20.5722Z" fill="white" fill-opacity="0.1"/>
<path d="M319.399 102.325L324.022 93.4389L328.113 91.3066L327.239 93.3434L325.921 96.282C325.921 96.282 334.104 100.549 334.339 101.024C334.574 101.497 335.524 105.349 335.524 105.349L334.097 107.188L327.817 105.768L323.315 104.108L318.514 103.927L319.399 102.325Z" fill="white" fill-opacity="0.1"/>
<path d="M253.383 180.552L260.91 181.026L268.015 183.928L274.955 186.89L278.982 186.358L275.604 183.752L268.613 180.788L262.45 178.239L256.046 178.125H251.948L253.383 180.552Z" fill="white" fill-opacity="0.1"/>
<path d="M270.21 192.996L273.768 192.288L272.504 190.729L268.315 191.281L270.21 192.996Z" fill="white" fill-opacity="0.1"/>
<path d="M280.284 191.753C281.057 191.698 286.686 192.877 286.686 192.877L287.519 191.163L292.967 190.629L293.803 188.86L289.41 187.308L283.013 186.3L281.592 186.835L283.246 189.795L279.411 189.597L280.284 191.753Z" fill="white" fill-opacity="0.1"/>
<path d="M412.959 36.3496L421.887 44.7945C421.887 44.7945 424.645 46.0578 425.51 46.1694C426.376 46.2818 432.595 43.8829 432.595 43.8829L440.175 39.3734L437.046 34.7241L432.798 32.7251L425.702 34.5691L420.843 36.8813L418.001 33.6206L415.156 32.8544L412.959 36.3496Z" fill="white" fill-opacity="0.1"/>
<path d="M452.357 81.6759L449.307 81.8236L449.665 84.6651L451.913 85.5252L449.131 89.1401L451.174 91.2772L454.581 90.1159L456.628 88.6671L458.732 88.5779L459.251 82.4509L461.49 81.0807L459.233 78.008L456.122 77.7036L453.451 78.5991L452.357 81.6759Z" fill="white" fill-opacity="0.1"/>
<path d="M462.889 65.144L459.87 72.3489C459.87 72.3489 461.955 76.0609 462.656 76.7396C463.357 77.4182 466.425 80.0613 466.425 80.0613L467.82 83.1292L464.734 85.659L462.647 89.792L467.558 91.2753L462.132 95.5295L479.576 92.684V90.114L481.047 87.646L477.046 85.2848L472.736 79.7738L468.714 74.9092L471.175 69.2392L465.957 67.8176L467.247 65.5054L462.889 65.144Z" fill="white" fill-opacity="0.1"/>
<path d="M497.256 127.495C497.452 127.98 498.359 132.358 498.359 132.358L501.659 132.509V125.304L497.256 127.495Z" fill="white" fill-opacity="0.1"/>
<path d="M622.28 4.0853L634.313 -7.20904L656.652 -15.9262L655.824 -18.709L644.978 -15.5648L631.108 -13.0775L618.191 -0.869982L611.08 8.07764L620.859 14.0071L627.534 13.3847L622.072 7.92504L622.28 4.0853Z" fill="white" fill-opacity="0.1"/>
<path d="M813.143 235.841L813.547 238.831L813.846 241.255L814.505 242.936L815.662 243.323L814.975 240.895V239.582L816.729 240.627L817.593 240.253L816.828 239.582L816.182 238.598L817.067 237.387V236.559L815.81 236.869L814.505 237.705V235.738V234.458L812.884 233.895L813.143 235.841Z" fill="white" fill-opacity="0.1"/>
<path d="M814.932 249.616L819.075 250.044L821.964 251.558L822.479 250.736L821.651 249.431L819.075 248.401H814.977L814.039 249.17L814.932 249.616Z" fill="white" fill-opacity="0.1"/>
<path d="M781.675 262.582L781.321 264.009L782.566 264.277C782.566 264.277 783.1 263.743 783.166 263.62C783.233 263.496 783.49 262.582 783.49 262.582L782.821 262.39L781.675 262.582Z" fill="white" fill-opacity="0.1"/>
<path d="M783.877 262.933C783.972 262.91 784.924 262.835 784.924 262.835L786.142 263.559L785.445 264.756L784.53 265.092L783.762 264.629L783.168 263.62L783.877 262.933Z" fill="white" fill-opacity="0.1"/>
<path d="M785.669 262.314L786.884 262.838L787.381 263.799L788.097 264.254L789.162 264.034L789.521 263.337V262.585L788.395 262.484H787.563L786.867 262.107L786.143 261.971L785.669 262.314Z" fill="white" fill-opacity="0.1"/>
<path d="M789.12 265.631C789.141 265.779 789.518 266.868 789.518 266.868H790.479L791.957 267.391L793.169 267.813L794.303 267.351L793.607 266.465L792.959 265.631L792.066 265.337L790.75 265.292L789.12 265.631Z" fill="white" fill-opacity="0.1"/>
<path d="M791.002 263.202L792.439 264.009C792.439 264.009 793.784 264.033 793.872 264.138C793.96 264.243 795.19 264.255 795.272 264.138C795.354 264.02 797.298 263.861 797.298 263.861L797.683 262.84L796.705 263.053L795.909 263.203L795.319 263.053L795.038 262.582L793.903 262.39L792.659 262.495L791.002 263.202Z" fill="white" fill-opacity="0.1"/>
<path d="M798.967 262.484L798.425 263.337L798.696 263.623L799.634 263.053L800.185 263.206L800.387 262.484L799.921 261.971L798.967 262.484Z" fill="white" fill-opacity="0.1"/>
<path d="M801.107 262.691H802.886L803.711 262.107L805.017 261.971L805.522 262.378L804.904 263.112H804.006L802.724 263.309L801.291 263.206L801.107 262.691Z" fill="white" fill-opacity="0.1"/>
<path d="M807.969 260.645L807.422 261.56L809.124 261.603L810.317 261.333L810.174 260.477L807.969 260.645Z" fill="white" fill-opacity="0.1"/>
<path d="M809.305 249.657L810.037 250.794L811.481 251.143L812.886 250.761L812.415 249.366L810.749 248.956L809.305 249.657Z" fill="white" fill-opacity="0.1"/>
<path d="M800.69 243.629L800.2 244.943L801.578 244.816L802.182 244.286V243.629H800.69Z" fill="white" fill-opacity="0.1"/>
<path d="M793.445 192.178L795.656 190.049L797.797 194.22L795.753 199.423L796.912 203.424L793.843 203.734L792.292 201.51L791.397 197.422L792.941 196.891L794.342 194.295L793.445 192.178Z" fill="white" fill-opacity="0.1"/>
<path d="M797.132 223.558L799.223 220.27L802.691 220.225L802.6 223.867L805.757 226.001L806.777 222.174L809.403 221.644L807.847 214.845L802.291 219.066C802.291 219.066 800.52 218.333 799.918 218.307C799.317 218.282 796.53 220.512 796.53 220.512L797.132 223.558Z" fill="white" fill-opacity="0.1"/>
<path d="M785.65 217.728C786.467 217.288 789.286 214.214 789.286 214.214L790.852 213.025L790.669 210.952L788.838 212.905L785.669 215.601L783.492 218.309L785.65 217.728Z" fill="white" fill-opacity="0.1"/>
<path d="M797.001 207.11L797.448 210.174L796.913 212.711L798.911 212.002L800.424 210.22L797.001 207.11Z" fill="white" fill-opacity="0.1"/>
<path d="M803.269 207.378L804.378 209.468L803.488 210.889L804.158 212.045L804.82 214.176L806.688 212.978L805.532 211.246L806.688 210.174L806.645 208.268L805.822 206.134L803.269 207.378Z" fill="white" fill-opacity="0.1"/>
<path d="M799.168 214.848L800.199 212.714L802.025 211.515L802.867 213.827L800.91 215.245L799.168 214.848Z" fill="white" fill-opacity="0.1"/>
<path d="M798.602 205.155L800.423 207.336L801.136 208.798H802.421L802.246 205.647H803.432L803.716 203.599H801.49L798.469 203.291L798.602 205.155Z" fill="white" fill-opacity="0.1"/>
<path d="M792.819 204.796L794.239 208.796L795.755 207.817L795.492 205.375L792.819 204.796Z" fill="white" fill-opacity="0.1"/>
<path d="M932.86 336.234L937.979 343.566L936.101 351.156L939.309 353.757V357.227L941.331 357.688L944.641 352.912L944.632 350.656L946.645 349.707L948.538 346.978L948.744 345.14L947.062 344.885L945.534 346.032L943.878 346.961L941.458 344.631L940.587 342.609L938.105 338.135L934.962 336.733L932.86 336.234Z" fill="white" fill-opacity="0.1"/>
<path d="M830.139 256.398L832.067 254.855L832.689 257.389L831.441 259.394L830.139 256.398Z" fill="white" fill-opacity="0.1"/>
<path d="M792.603 176.804L794.734 173.289L796.513 172.709L796.424 175.909L795.755 178.574L794.335 181.597L792.062 179.053L792.603 176.804Z" fill="white" fill-opacity="0.1"/>
<path d="M685.834 216.684C685.544 216.768 685.834 223.631 685.834 223.631C685.834 223.631 688.557 225.197 688.699 225.184C688.841 225.171 691.163 222.421 691.163 222.421C691.163 222.421 690.991 219.974 690.926 219.825C690.862 219.676 689.314 216.385 689.314 216.385L686.725 214.466L685.834 216.684Z" fill="white" fill-opacity="0.1"/>
<path d="M660.869 179.116L657.577 181.019C657.577 181.019 659.647 183.177 659.857 183.506C660.065 183.836 662.758 185.162 662.758 185.162L665.592 183.775L666.346 180.962L660.869 179.116Z" fill="white" fill-opacity="0.1"/>
<g opacity="0.994221">
<path d="M492.759 101.881C493.918 101.881 494.86 102.822 494.86 103.981C494.86 105.141 493.918 106.082 492.759 106.082C491.6 106.082 490.658 105.141 490.658 103.981C490.658 102.822 491.6 101.881 492.759 101.881Z" fill="#228B22"/>
</g>
<path d="M492.757 97.9556C496.081 97.9556 498.781 100.655 498.781 103.979C498.781 107.303 496.081 110.002 492.757 110.002C489.433 110.002 486.734 107.303 486.734 103.979C486.734 100.655 489.433 97.9556 492.757 97.9556Z" fill="#228B22"/>
<g opacity="0.994221">
<path d="M317.697 256.081C318.856 256.081 319.797 257.022 319.797 258.182C319.797 259.341 318.856 260.282 317.697 260.282C316.537 260.282 315.596 259.341 315.596 258.182C315.596 257.022 316.537 256.081 317.697 256.081Z" fill="#228B22"/>
</g>
<path d="M317.698 252.157C321.022 252.157 323.721 254.856 323.721 258.18C323.721 261.505 321.022 264.204 317.698 264.204C314.374 264.204 311.674 261.505 311.674 258.18C311.674 254.856 314.374 252.157 317.698 252.157Z" fill="#228B22"/>
<g opacity="0.994221">
<path d="M829.623 305.204C830.782 305.204 831.724 306.145 831.724 307.305C831.724 308.464 830.782 309.405 829.623 309.405C828.464 309.405 827.522 308.464 827.522 307.305C827.522 306.145 828.464 305.204 829.623 305.204Z" fill="#228B22"/>
</g>
<path d="M829.621 301.279C832.945 301.279 835.644 303.978 835.644 307.302C835.644 310.627 832.945 313.326 829.621 313.326C826.297 313.326 823.598 310.627 823.598 307.302C823.598 303.978 826.297 301.279 829.621 301.279Z" fill="#228B22"/>
<g opacity="0.994221">
<path d="M212.076 122.177C213.236 122.177 214.177 123.118 214.177 124.277C214.177 125.437 213.236 126.378 212.076 126.378C210.917 126.378 209.976 125.437 209.976 124.277C209.976 123.118 210.917 122.177 212.076 122.177Z" fill="#228B22"/>
</g>
<path d="M212.078 118.251C215.402 118.251 218.101 120.951 218.101 124.275C218.101 127.599 215.402 130.298 212.078 130.298C208.753 130.298 206.054 127.599 206.054 124.275C206.054 120.951 208.753 118.251 212.078 118.251Z" fill="#228B22"/>
<g opacity="0.994221">
<path d="M526.098 208.636C527.257 208.636 528.199 209.578 528.199 210.737C528.199 211.896 527.257 212.838 526.098 212.838C524.939 212.838 523.997 211.896 523.997 210.737C523.997 209.578 524.939 208.636 526.098 208.636Z" fill="#228B22"/>
</g>
<path d="M526.096 204.716C529.421 204.716 532.12 207.415 532.12 210.739C532.12 214.064 529.421 216.763 526.096 216.763C522.772 216.763 520.073 214.064 520.073 210.739C520.073 207.415 522.772 204.716 526.096 204.716Z" fill="#228B22"/>
<g opacity="0.994221">
<path d="M694.66 123.327C695.82 123.327 696.761 124.268 696.761 125.428C696.761 126.587 695.82 127.528 694.66 127.528C693.501 127.528 692.56 126.587 692.56 125.428C692.56 124.268 693.501 123.327 694.66 123.327Z" fill="#228B22"/>
</g>
<path d="M694.658 119.406C697.983 119.406 700.682 122.105 700.682 125.43C700.682 128.754 697.983 131.453 694.658 131.453C691.334 131.453 688.635 128.754 688.635 125.43C688.635 122.105 691.334 119.406 694.658 119.406Z" fill="#228B22"/>
</g>
</g>
<line opacity="0.07" x1="56.5" y1="2.18557e-08" x2="56.5" y2="347" stroke="white"/>
<line opacity="0.07" x1="127.5" y1="2.18557e-08" x2="127.5" y2="347" stroke="white"/>
<line opacity="0.07" x1="198.5" y1="2.18557e-08" x2="198.5" y2="347" stroke="url(#paint0_linear_2220_23271)"/>
<line opacity="0.07" x1="269.5" y1="2.18557e-08" x2="269.5" y2="347" stroke="url(#paint1_linear_2220_23271)"/>
<line opacity="0.07" x1="340.5" y1="2.18557e-08" x2="340.5" y2="347" stroke="url(#paint2_linear_2220_23271)"/>
<line opacity="0.07" x1="411.5" y1="2.18557e-08" x2="411.5" y2="347" stroke="url(#paint3_linear_2220_23271)"/>
<line opacity="0.07" x1="482.5" y1="2.18557e-08" x2="482.5" y2="347" stroke="url(#paint4_linear_2220_23271)"/>
<line opacity="0.07" x1="553.5" y1="2.18557e-08" x2="553.5" y2="347" stroke="url(#paint5_linear_2220_23271)"/>
<line opacity="0.07" x1="624.5" y1="2.18557e-08" x2="624.5" y2="347" stroke="url(#paint6_linear_2220_23271)"/>
<line opacity="0.07" x1="695.5" y1="2.18557e-08" x2="695.5" y2="347" stroke="url(#paint7_linear_2220_23271)"/>
<line opacity="0.07" x1="766.5" y1="2.18557e-08" x2="766.5" y2="347" stroke="url(#paint8_linear_2220_23271)"/>
<line opacity="0.07" x1="837.5" y1="2.18557e-08" x2="837.5" y2="347" stroke="white"/>
<line opacity="0.07" x1="908.5" y1="2.18557e-08" x2="908.5" y2="347" stroke="white"/>
<line opacity="0.07" x1="979.5" y1="2.18557e-08" x2="979.5" y2="347" stroke="white"/>
<line opacity="0.07" x1="-3" y1="259.5" x2="1023" y2="259.5" stroke="url(#paint9_linear_2220_23271)"/>
<line opacity="0.07" x1="-3" y1="310.5" x2="1023" y2="310.5" stroke="url(#paint10_linear_2220_23271)"/>
<line opacity="0.07" x1="-3" y1="207.5" x2="1023" y2="207.5" stroke="url(#paint11_linear_2220_23271)"/>
<line opacity="0.07" x1="-3" y1="150.5" x2="1023" y2="150.5" stroke="url(#paint12_linear_2220_23271)"/>
<line opacity="0.07" x1="-3" y1="97.5" x2="1023" y2="97.5" stroke="url(#paint13_linear_2220_23271)"/>
<line opacity="0.07" x1="-3" y1="45.5" x2="1023" y2="45.5" stroke="url(#paint14_linear_2220_23271)"/>
</g>
<defs>
<linearGradient id="paint0_linear_2220_23271" x1="198" y1="7.47385" x2="198" y2="347" gradientUnits="userSpaceOnUse">
<stop stop-color="white"/>
<stop offset="0.329492" stop-color="white" stop-opacity="0"/>
<stop offset="0.979167" stop-color="white"/>
</linearGradient>
<linearGradient id="paint1_linear_2220_23271" x1="269" y1="7.47385" x2="269" y2="347" gradientUnits="userSpaceOnUse">
<stop stop-color="white"/>
<stop offset="0.250683" stop-color="white" stop-opacity="0"/>
<stop offset="0.979167" stop-color="white"/>
</linearGradient>
<linearGradient id="paint2_linear_2220_23271" x1="340" y1="7.47385" x2="340" y2="347" gradientUnits="userSpaceOnUse">
<stop stop-color="white"/>
<stop offset="0.375" stop-color="white" stop-opacity="0"/>
<stop offset="0.979167" stop-color="white"/>
</linearGradient>
<linearGradient id="paint3_linear_2220_23271" x1="411" y1="7.47385" x2="411" y2="347" gradientUnits="userSpaceOnUse">
<stop stop-color="white"/>
<stop offset="0.53125" stop-color="white" stop-opacity="0"/>
<stop offset="0.979167" stop-color="white"/>
</linearGradient>
<linearGradient id="paint4_linear_2220_23271" x1="482" y1="7.47385" x2="482" y2="347" gradientUnits="userSpaceOnUse">
<stop stop-color="white"/>
<stop offset="0.229167" stop-color="white" stop-opacity="0"/>
<stop offset="0.8125" stop-color="white" stop-opacity="0.5"/>
<stop offset="0.979167" stop-color="white"/>
</linearGradient>
<linearGradient id="paint5_linear_2220_23271" x1="553" y1="7.47385" x2="553" y2="347" gradientUnits="userSpaceOnUse">
<stop stop-color="white"/>
<stop offset="0.229167" stop-color="white" stop-opacity="0"/>
<stop offset="0.8125" stop-color="white" stop-opacity="0.5"/>
<stop offset="0.979167" stop-color="white"/>
</linearGradient>
<linearGradient id="paint6_linear_2220_23271" x1="624" y1="7.47385" x2="624" y2="347" gradientUnits="userSpaceOnUse">
<stop stop-color="white"/>
<stop offset="0.375" stop-color="white" stop-opacity="0"/>
<stop offset="0.979167" stop-color="white"/>
</linearGradient>
<linearGradient id="paint7_linear_2220_23271" x1="695" y1="7.47385" x2="695" y2="347" gradientUnits="userSpaceOnUse">
<stop stop-color="white"/>
<stop offset="0.322917" stop-color="white" stop-opacity="0"/>
<stop offset="0.979167" stop-color="white"/>
</linearGradient>
<linearGradient id="paint8_linear_2220_23271" x1="766" y1="7.47385" x2="766" y2="347" gradientUnits="userSpaceOnUse">
<stop stop-color="white"/>
<stop offset="0.359375" stop-color="white" stop-opacity="0"/>
<stop offset="0.979167" stop-color="white"/>
</linearGradient>
<linearGradient id="paint9_linear_2220_23271" x1="1023" y1="260" x2="11.6428" y2="260" gradientUnits="userSpaceOnUse">
<stop stop-color="white"/>
<stop offset="0.245185" stop-color="white" stop-opacity="0.429208"/>
<stop offset="0.787671" stop-color="white" stop-opacity="0"/>
<stop offset="0.958333" stop-color="white"/>
</linearGradient>
<linearGradient id="paint10_linear_2220_23271" x1="1023" y1="311" x2="11.6428" y2="311" gradientUnits="userSpaceOnUse">
<stop stop-color="white"/>
<stop offset="0.245185" stop-color="white" stop-opacity="0.429208"/>
<stop offset="0.787671" stop-color="white" stop-opacity="0"/>
<stop offset="0.958333" stop-color="white"/>
</linearGradient>
<linearGradient id="paint11_linear_2220_23271" x1="1023" y1="208" x2="11.6428" y2="208" gradientUnits="userSpaceOnUse">
<stop stop-color="white"/>
<stop offset="0.245185" stop-color="white" stop-opacity="0.429208"/>
<stop offset="0.787671" stop-color="white" stop-opacity="0"/>
<stop offset="0.958333" stop-color="white"/>
</linearGradient>
<linearGradient id="paint12_linear_2220_23271" x1="1023" y1="151" x2="11.6428" y2="151" gradientUnits="userSpaceOnUse">
<stop stop-color="white"/>
<stop offset="0.329261" stop-color="white" stop-opacity="0.429208"/>
<stop offset="0.657887" stop-color="white" stop-opacity="0"/>
<stop offset="0.958333" stop-color="white"/>
</linearGradient>
<linearGradient id="paint13_linear_2220_23271" x1="1023" y1="98" x2="11.6428" y2="98" gradientUnits="userSpaceOnUse">
<stop stop-color="white"/>
<stop offset="0.245185" stop-color="white" stop-opacity="0.429208"/>
<stop offset="0.787671" stop-color="white" stop-opacity="0"/>
<stop offset="0.958333" stop-color="white"/>
</linearGradient>
<linearGradient id="paint14_linear_2220_23271" x1="-3" y1="46" x2="1009.5" y2="46" gradientUnits="userSpaceOnUse">
<stop stop-color="white"/>
<stop offset="0.204805" stop-color="white" stop-opacity="0.541667"/>
<stop offset="1" stop-color="white"/>
</linearGradient>
<clipPath id="clip0_2220_23271">
<rect width="1023" height="347" fill="white"/>
</clipPath>
<clipPath id="clip1_2220_23271">
<rect width="1028" height="642.5" fill="white" transform="translate(-3 -149.5)"/>
</clipPath>
</defs>
</svg>
