<svg width="670" height="110" viewBox="0 0 670 110" fill="none" xmlns="http://www.w3.org/2000/svg">
<path d="M87.8923 45.6H103.282V48.93H87.8923V45.6ZM102.622 37.59H106.612V57H102.622V37.59ZM84.3823 37.59H88.3723V57H84.3823V37.59ZM117.968 57.33C116.488 57.33 115.138 57.01 113.918 56.37C112.718 55.71 111.758 54.8 111.038 53.64C110.338 52.46 109.988 51.1 109.988 49.56C109.988 47.98 110.348 46.61 111.068 45.45C111.788 44.29 112.758 43.39 113.978 42.75C115.218 42.09 116.618 41.76 118.178 41.76C119.898 41.76 121.278 42.11 122.318 42.81C123.378 43.49 124.148 44.42 124.628 45.6C125.108 46.78 125.348 48.1 125.348 49.56C125.348 50.44 125.208 51.34 124.928 52.26C124.648 53.16 124.218 54 123.638 54.78C123.058 55.54 122.298 56.16 121.358 56.64C120.418 57.1 119.288 57.33 117.968 57.33ZM119.228 54.33C120.408 54.33 121.428 54.13 122.288 53.73C123.148 53.33 123.808 52.77 124.268 52.05C124.728 51.33 124.958 50.5 124.958 49.56C124.958 48.54 124.718 47.68 124.238 46.98C123.778 46.26 123.118 45.72 122.258 45.36C121.418 44.98 120.408 44.79 119.228 44.79C117.568 44.79 116.278 45.23 115.358 46.11C114.438 46.97 113.978 48.12 113.978 49.56C113.978 50.52 114.198 51.36 114.638 52.08C115.078 52.78 115.688 53.33 116.468 53.73C117.268 54.13 118.188 54.33 119.228 54.33ZM124.958 42.09H128.858V57H125.228C125.228 57 125.198 56.81 125.138 56.43C125.098 56.03 125.058 55.53 125.018 54.93C124.978 54.33 124.958 53.74 124.958 53.16V42.09ZM132.388 42.09H136.288V57H132.388V42.09ZM142.018 45.3C140.898 45.3 139.928 45.52 139.108 45.96C138.288 46.38 137.628 46.9 137.128 47.52C136.628 48.14 136.278 48.74 136.078 49.32L136.048 47.67C136.068 47.43 136.148 47.08 136.288 46.62C136.428 46.14 136.638 45.63 136.918 45.09C137.198 44.53 137.568 44 138.028 43.5C138.488 42.98 139.048 42.56 139.708 42.24C140.368 41.92 141.138 41.76 142.018 41.76V45.3ZM151.869 54.72C150.249 54.72 148.819 54.48 147.579 54C146.359 53.5 145.409 52.77 144.729 51.81C144.049 50.85 143.709 49.69 143.709 48.33C143.709 46.99 144.039 45.83 144.699 44.85C145.359 43.87 146.299 43.11 147.519 42.57C148.759 42.03 150.209 41.76 151.869 41.76C152.329 41.76 152.769 41.79 153.189 41.85C153.629 41.91 154.059 41.99 154.479 42.09L162.009 42.12V45.06C160.989 45.08 159.949 44.96 158.889 44.7C157.849 44.42 156.929 44.12 156.129 43.8L156.039 43.59C156.719 43.91 157.359 44.31 157.959 44.79C158.559 45.25 159.039 45.79 159.399 46.41C159.779 47.01 159.969 47.71 159.969 48.51C159.969 49.81 159.639 50.93 158.979 51.87C158.319 52.79 157.379 53.5 156.159 54C154.959 54.48 153.529 54.72 151.869 54.72ZM156.879 63.15V62.43C156.879 61.51 156.579 60.87 155.979 60.51C155.399 60.15 154.599 59.97 153.579 59.97H148.929C148.029 59.97 147.269 59.9 146.649 59.76C146.049 59.62 145.569 59.42 145.209 59.16C144.849 58.9 144.589 58.59 144.429 58.23C144.269 57.89 144.189 57.52 144.189 57.12C144.189 56.32 144.449 55.72 144.969 55.32C145.489 54.9 146.189 54.62 147.069 54.48C147.949 54.34 148.919 54.31 149.979 54.39L151.869 54.72C150.609 54.76 149.669 54.87 149.049 55.05C148.449 55.21 148.149 55.54 148.149 56.04C148.149 56.34 148.269 56.58 148.509 56.76C148.749 56.92 149.089 57 149.529 57H154.419C155.759 57 156.899 57.14 157.839 57.42C158.799 57.72 159.529 58.21 160.029 58.89C160.529 59.59 160.779 60.54 160.779 61.74V63.15H156.879ZM151.869 51.9C152.729 51.9 153.479 51.76 154.119 51.48C154.779 51.2 155.289 50.8 155.649 50.28C156.009 49.74 156.189 49.1 156.189 48.36C156.189 47.6 156.009 46.95 155.649 46.41C155.289 45.87 154.789 45.46 154.149 45.18C153.509 44.88 152.749 44.73 151.869 44.73C151.009 44.73 150.249 44.88 149.589 45.18C148.929 45.46 148.419 45.87 148.059 46.41C147.699 46.95 147.519 47.6 147.519 48.36C147.519 49.1 147.699 49.74 148.059 50.28C148.419 50.8 148.919 51.2 149.559 51.48C150.219 51.76 150.989 51.9 151.869 51.9ZM173.082 57.36C171.202 57.36 169.542 57.06 168.102 56.46C166.682 55.86 165.572 54.99 164.772 53.85C163.972 52.69 163.572 51.27 163.572 49.59C163.572 47.91 163.972 46.49 164.772 45.33C165.572 44.15 166.682 43.26 168.102 42.66C169.542 42.06 171.202 41.76 173.082 41.76C174.962 41.76 176.602 42.06 178.002 42.66C179.422 43.26 180.532 44.15 181.332 45.33C182.132 46.49 182.532 47.91 182.532 49.59C182.532 51.27 182.132 52.69 181.332 53.85C180.532 54.99 179.422 55.86 178.002 56.46C176.602 57.06 174.962 57.36 173.082 57.36ZM173.082 54.36C174.122 54.36 175.052 54.18 175.872 53.82C176.712 53.44 177.372 52.9 177.852 52.2C178.332 51.48 178.572 50.61 178.572 49.59C178.572 48.57 178.332 47.7 177.852 46.98C177.372 46.24 176.722 45.68 175.902 45.3C175.082 44.92 174.142 44.73 173.082 44.73C172.042 44.73 171.102 44.92 170.262 45.3C169.422 45.68 168.752 46.23 168.252 46.95C167.772 47.67 167.532 48.55 167.532 49.59C167.532 50.61 167.772 51.48 168.252 52.2C168.732 52.9 169.392 53.44 170.232 53.82C171.072 54.18 172.022 54.36 173.082 54.36ZM185.415 42.09H189.315V57H185.415V42.09ZM196.245 41.76C197.165 41.76 198.015 41.88 198.795 42.12C199.575 42.36 200.255 42.73 200.835 43.23C201.415 43.73 201.865 44.37 202.185 45.15C202.505 45.91 202.665 46.82 202.665 47.88V57H198.765V48.57C198.765 47.31 198.455 46.39 197.835 45.81C197.235 45.21 196.245 44.91 194.865 44.91C193.825 44.91 192.885 45.11 192.045 45.51C191.205 45.91 190.525 46.42 190.005 47.04C189.485 47.64 189.185 48.27 189.105 48.93L189.075 47.4C189.175 46.7 189.405 46.02 189.765 45.36C190.125 44.7 190.605 44.1 191.205 43.56C191.825 43 192.555 42.56 193.395 42.24C194.235 41.92 195.185 41.76 196.245 41.76ZM212.402 42.09H223.982V45.12H212.402V42.09ZM216.242 38.01H220.142V57H216.242V38.01ZM235.045 57.36C233.165 57.36 231.505 57.06 230.065 56.46C228.645 55.86 227.535 54.99 226.735 53.85C225.935 52.69 225.535 51.27 225.535 49.59C225.535 47.91 225.935 46.49 226.735 45.33C227.535 44.15 228.645 43.26 230.065 42.66C231.505 42.06 233.165 41.76 235.045 41.76C236.925 41.76 238.565 42.06 239.965 42.66C241.385 43.26 242.495 44.15 243.295 45.33C244.095 46.49 244.495 47.91 244.495 49.59C244.495 51.27 244.095 52.69 243.295 53.85C242.495 54.99 241.385 55.86 239.965 56.46C238.565 57.06 236.925 57.36 235.045 57.36ZM235.045 54.36C236.085 54.36 237.015 54.18 237.835 53.82C238.675 53.44 239.335 52.9 239.815 52.2C240.295 51.48 240.535 50.61 240.535 49.59C240.535 48.57 240.295 47.7 239.815 46.98C239.335 46.24 238.685 45.68 237.865 45.3C237.045 44.92 236.105 44.73 235.045 44.73C234.005 44.73 233.065 44.92 232.225 45.3C231.385 45.68 230.715 46.23 230.215 46.95C229.735 47.67 229.495 48.55 229.495 49.59C229.495 50.61 229.735 51.48 230.215 52.2C230.695 52.9 231.355 53.44 232.195 53.82C233.035 54.18 233.985 54.36 235.045 54.36ZM254.638 57.33C253.138 57.33 251.778 57.01 250.558 56.37C249.358 55.71 248.408 54.8 247.708 53.64C247.008 52.46 246.658 51.1 246.658 49.56C246.658 47.98 246.998 46.61 247.678 45.45C248.378 44.29 249.328 43.39 250.528 42.75C251.728 42.09 253.098 41.76 254.638 41.76C255.978 41.76 257.118 41.96 258.058 42.36C258.998 42.76 259.758 43.32 260.338 44.04C260.918 44.74 261.338 45.56 261.598 46.5C261.878 47.44 262.018 48.46 262.018 49.56C262.018 50.44 261.878 51.34 261.598 52.26C261.318 53.16 260.888 54 260.308 54.78C259.728 55.54 258.968 56.16 258.028 56.64C257.088 57.1 255.958 57.33 254.638 57.33ZM255.898 54.33C257.078 54.33 258.098 54.13 258.958 53.73C259.818 53.33 260.478 52.77 260.938 52.05C261.398 51.33 261.628 50.5 261.628 49.56C261.628 48.54 261.388 47.68 260.908 46.98C260.448 46.26 259.788 45.71 258.928 45.33C258.088 44.95 257.078 44.76 255.898 44.76C254.238 44.76 252.948 45.2 252.028 46.08C251.108 46.96 250.648 48.12 250.648 49.56C250.648 50.52 250.868 51.36 251.308 52.08C251.748 52.78 252.358 53.33 253.138 53.73C253.938 54.13 254.858 54.33 255.898 54.33ZM261.628 36.09H265.528V57H261.898C261.838 56.54 261.778 55.95 261.718 55.23C261.658 54.49 261.628 53.8 261.628 53.16V36.09ZM276.992 57.33C275.512 57.33 274.162 57.01 272.942 56.37C271.742 55.71 270.782 54.8 270.062 53.64C269.362 52.46 269.012 51.1 269.012 49.56C269.012 47.98 269.372 46.61 270.092 45.45C270.812 44.29 271.782 43.39 273.002 42.75C274.242 42.09 275.642 41.76 277.202 41.76C278.922 41.76 280.302 42.11 281.342 42.81C282.402 43.49 283.172 44.42 283.652 45.6C284.132 46.78 284.372 48.1 284.372 49.56C284.372 50.44 284.232 51.34 283.952 52.26C283.672 53.16 283.242 54 282.662 54.78C282.082 55.54 281.322 56.16 280.382 56.64C279.442 57.1 278.312 57.33 276.992 57.33ZM278.252 54.33C279.432 54.33 280.452 54.13 281.312 53.73C282.172 53.33 282.832 52.77 283.292 52.05C283.752 51.33 283.982 50.5 283.982 49.56C283.982 48.54 283.742 47.68 283.262 46.98C282.802 46.26 282.142 45.72 281.282 45.36C280.442 44.98 279.432 44.79 278.252 44.79C276.592 44.79 275.302 45.23 274.382 46.11C273.462 46.97 273.002 48.12 273.002 49.56C273.002 50.52 273.222 51.36 273.662 52.08C274.102 52.78 274.712 53.33 275.492 53.73C276.292 54.13 277.212 54.33 278.252 54.33ZM283.982 42.09H287.882V57H284.252C284.252 57 284.222 56.81 284.162 56.43C284.122 56.03 284.082 55.53 284.042 54.93C284.002 54.33 283.982 53.74 283.982 53.16V42.09ZM290.061 42.09H294.201L300.651 56.4L297.291 57L290.061 42.09ZM308.301 42.09L297.981 63H293.931L298.341 54.78L304.131 42.09H308.301ZM323.898 57.33C322.978 57.33 322.098 57.21 321.258 56.97C320.438 56.73 319.718 56.39 319.098 55.95C318.478 55.51 317.988 54.98 317.628 54.36C317.268 53.72 317.088 53.01 317.088 52.23C317.088 51.27 317.318 50.46 317.778 49.8C318.238 49.12 318.868 48.57 319.668 48.15C320.488 47.73 321.428 47.42 322.488 47.22C323.548 47 324.678 46.87 325.878 46.83L325.998 47.01C324.858 46.97 323.788 46.88 322.788 46.74C321.808 46.58 320.948 46.33 320.208 45.99C319.488 45.65 318.918 45.21 318.498 44.67C318.098 44.11 317.898 43.41 317.898 42.57C317.898 41.49 318.238 40.55 318.918 39.75C319.598 38.93 320.578 38.3 321.858 37.86C323.138 37.42 324.658 37.2 326.418 37.2C327.638 37.2 328.748 37.32 329.748 37.56C330.768 37.8 331.638 38.17 332.358 38.67C333.098 39.15 333.668 39.76 334.068 40.5C334.468 41.22 334.668 42.07 334.668 43.05H331.008C330.988 42.23 330.568 41.61 329.748 41.19C328.948 40.75 327.858 40.53 326.478 40.53C324.998 40.53 323.878 40.77 323.118 41.25C322.358 41.71 321.978 42.35 321.978 43.17C321.978 43.75 322.158 44.25 322.518 44.67C322.878 45.09 323.428 45.41 324.168 45.63C324.928 45.85 325.878 45.96 327.018 45.96H338.688V48.21H334.908V57H331.278C331.198 56.42 331.138 55.85 331.098 55.29C331.058 54.71 331.028 54.07 331.008 53.37C331.008 52.65 331.008 51.79 331.008 50.79L331.278 51.6C331.118 52.28 330.868 52.96 330.528 53.64C330.208 54.32 329.758 54.94 329.178 55.5C328.618 56.06 327.898 56.51 327.018 56.85C326.158 57.17 325.118 57.33 323.898 57.33ZM325.548 54.33C326.768 54.33 327.778 54.12 328.578 53.7C329.378 53.26 329.978 52.7 330.378 52.02C330.798 51.32 331.008 50.6 331.008 49.86V48.21H327.018C325.278 48.21 323.878 48.47 322.818 48.99C321.758 49.49 321.228 50.29 321.228 51.39C321.228 52.25 321.598 52.96 322.338 53.52C323.078 54.06 324.148 54.33 325.548 54.33ZM362.013 52.05H365.793C365.633 53.07 365.203 53.98 364.503 54.78C363.823 55.58 362.893 56.21 361.713 56.67C360.533 57.13 359.093 57.36 357.393 57.36C355.493 57.36 353.813 57.06 352.353 56.46C350.893 55.84 349.753 54.95 348.933 53.79C348.113 52.63 347.703 51.23 347.703 49.59C347.703 47.95 348.103 46.55 348.903 45.39C349.703 44.21 350.813 43.31 352.233 42.69C353.673 42.07 355.353 41.76 357.273 41.76C359.233 41.76 360.863 42.07 362.163 42.69C363.463 43.31 364.423 44.25 365.043 45.51C365.683 46.75 365.953 48.34 365.853 50.28H351.633C351.733 51.04 352.013 51.73 352.473 52.35C352.953 52.97 353.593 53.46 354.393 53.82C355.213 54.18 356.183 54.36 357.303 54.36C358.543 54.36 359.573 54.15 360.393 53.73C361.233 53.29 361.773 52.73 362.013 52.05ZM357.093 44.73C355.653 44.73 354.483 45.05 353.583 45.69C352.683 46.31 352.103 47.08 351.843 48H361.983C361.883 47 361.403 46.21 360.543 45.63C359.703 45.03 358.553 44.73 357.093 44.73ZM384.971 42.09L377.231 50.4L371.651 57H366.881L374.951 48.27L380.231 42.09H384.971ZM366.881 42.09H371.651L377.291 48.21L385.391 57H380.621L374.831 50.49L366.881 42.09ZM398.658 57.36C397.338 57.36 396.208 57.13 395.268 56.67C394.348 56.19 393.598 55.57 393.018 54.81C392.438 54.03 392.008 53.18 391.728 52.26C391.448 51.34 391.308 50.44 391.308 49.56C391.308 48.46 391.438 47.44 391.698 46.5C391.978 45.56 392.408 44.74 392.988 44.04C393.568 43.32 394.318 42.76 395.238 42.36C396.178 41.96 397.318 41.76 398.658 41.76C400.158 41.76 401.508 42.09 402.708 42.75C403.908 43.41 404.858 44.33 405.558 45.51C406.278 46.67 406.638 48.02 406.638 49.56C406.638 51.14 406.278 52.52 405.558 53.7C404.838 54.86 403.878 55.76 402.678 56.4C401.478 57.04 400.138 57.36 398.658 57.36ZM397.398 54.33C398.458 54.33 399.378 54.13 400.158 53.73C400.958 53.33 401.568 52.78 401.988 52.08C402.428 51.36 402.648 50.52 402.648 49.56C402.648 48.12 402.188 46.96 401.268 46.08C400.368 45.2 399.078 44.76 397.398 44.76C396.338 44.76 395.368 44.95 394.488 45.33C393.628 45.71 392.948 46.26 392.448 46.98C391.948 47.68 391.698 48.54 391.698 49.56C391.698 50.52 391.928 51.36 392.388 52.08C392.848 52.78 393.508 53.33 394.368 53.73C395.228 54.13 396.238 54.33 397.398 54.33ZM387.798 42.09H391.518L391.698 46.05V63H387.798V42.09ZM423.097 52.05H426.877C426.717 53.07 426.287 53.98 425.587 54.78C424.907 55.58 423.977 56.21 422.797 56.67C421.617 57.13 420.177 57.36 418.477 57.36C416.577 57.36 414.897 57.06 413.437 56.46C411.977 55.84 410.837 54.95 410.017 53.79C409.197 52.63 408.787 51.23 408.787 49.59C408.787 47.95 409.187 46.55 409.987 45.39C410.787 44.21 411.897 43.31 413.317 42.69C414.757 42.07 416.437 41.76 418.357 41.76C420.317 41.76 421.947 42.07 423.247 42.69C424.547 43.31 425.507 44.25 426.127 45.51C426.767 46.75 427.037 48.34 426.937 50.28H412.717C412.817 51.04 413.097 51.73 413.557 52.35C414.037 52.97 414.677 53.46 415.477 53.82C416.297 54.18 417.267 54.36 418.387 54.36C419.627 54.36 420.657 54.15 421.477 53.73C422.317 53.29 422.857 52.73 423.097 52.05ZM418.177 44.73C416.737 44.73 415.567 45.05 414.667 45.69C413.767 46.31 413.187 47.08 412.927 48H423.067C422.967 47 422.487 46.21 421.627 45.63C420.787 45.03 419.637 44.73 418.177 44.73ZM429.839 42.09H433.739V57H429.839V42.09ZM439.469 45.3C438.349 45.3 437.379 45.52 436.559 45.96C435.739 46.38 435.079 46.9 434.579 47.52C434.079 48.14 433.729 48.74 433.529 49.32L433.499 47.67C433.519 47.43 433.599 47.08 433.739 46.62C433.879 46.14 434.089 45.63 434.369 45.09C434.649 44.53 435.019 44 435.479 43.5C435.939 42.98 436.499 42.56 437.159 42.24C437.819 41.92 438.589 41.76 439.469 41.76V45.3ZM446.35 35.55V38.97H441.82V35.55H446.35ZM442.12 42.09H446.02V57H442.12V42.09ZM463.497 52.05H467.277C467.117 53.07 466.687 53.98 465.987 54.78C465.307 55.58 464.377 56.21 463.197 56.67C462.017 57.13 460.577 57.36 458.877 57.36C456.977 57.36 455.297 57.06 453.837 56.46C452.377 55.84 451.237 54.95 450.417 53.79C449.597 52.63 449.187 51.23 449.187 49.59C449.187 47.95 449.587 46.55 450.387 45.39C451.187 44.21 452.297 43.31 453.717 42.69C455.157 42.07 456.837 41.76 458.757 41.76C460.717 41.76 462.347 42.07 463.647 42.69C464.947 43.31 465.907 44.25 466.527 45.51C467.167 46.75 467.437 48.34 467.337 50.28H453.117C453.217 51.04 453.497 51.73 453.957 52.35C454.437 52.97 455.077 53.46 455.877 53.82C456.697 54.18 457.667 54.36 458.787 54.36C460.027 54.36 461.057 54.15 461.877 53.73C462.717 53.29 463.257 52.73 463.497 52.05ZM458.577 44.73C457.137 44.73 455.967 45.05 455.067 45.69C454.167 46.31 453.587 47.08 453.327 48H463.467C463.367 47 462.887 46.21 462.027 45.63C461.187 45.03 460.037 44.73 458.577 44.73ZM470.239 42.09H474.139V57H470.239V42.09ZM481.069 41.76C481.989 41.76 482.839 41.88 483.619 42.12C484.399 42.36 485.079 42.73 485.659 43.23C486.239 43.73 486.689 44.37 487.009 45.15C487.329 45.91 487.489 46.82 487.489 47.88V57H483.589V48.57C483.589 47.31 483.279 46.39 482.659 45.81C482.059 45.21 481.069 44.91 479.689 44.91C478.649 44.91 477.709 45.11 476.869 45.51C476.029 45.91 475.349 46.42 474.829 47.04C474.309 47.64 474.009 48.27 473.929 48.93L473.899 47.4C473.999 46.7 474.229 46.02 474.589 45.36C474.949 44.7 475.429 44.1 476.029 43.56C476.649 43 477.379 42.56 478.219 42.24C479.059 41.92 480.009 41.76 481.069 41.76ZM508.74 51.12C508.64 52.42 508.22 53.54 507.48 54.48C506.76 55.42 505.76 56.14 504.48 56.64C503.2 57.12 501.68 57.36 499.92 57.36C498.08 57.36 496.43 57.07 494.97 56.49C493.53 55.89 492.39 55.02 491.55 53.88C490.73 52.72 490.32 51.29 490.32 49.59C490.32 47.89 490.73 46.46 491.55 45.3C492.39 44.14 493.53 43.26 494.97 42.66C496.43 42.06 498.08 41.76 499.92 41.76C501.68 41.76 503.19 42.01 504.45 42.51C505.71 42.99 506.7 43.69 507.42 44.61C508.16 45.53 508.59 46.64 508.71 47.94H505.14C504.8 46.94 504.17 46.16 503.25 45.6C502.33 45.04 501.22 44.76 499.92 44.76C498.88 44.76 497.93 44.94 497.07 45.3C496.23 45.66 495.55 46.2 495.03 46.92C494.53 47.62 494.28 48.51 494.28 49.59C494.28 50.65 494.53 51.54 495.03 52.26C495.53 52.96 496.21 53.49 497.07 53.85C497.93 54.19 498.88 54.36 499.92 54.36C501.32 54.36 502.46 54.08 503.34 53.52C504.24 52.96 504.85 52.16 505.17 51.12H508.74ZM525.197 52.05H528.977C528.817 53.07 528.387 53.98 527.687 54.78C527.007 55.58 526.077 56.21 524.897 56.67C523.717 57.13 522.277 57.36 520.577 57.36C518.677 57.36 516.997 57.06 515.537 56.46C514.077 55.84 512.937 54.95 512.117 53.79C511.297 52.63 510.887 51.23 510.887 49.59C510.887 47.95 511.287 46.55 512.087 45.39C512.887 44.21 513.997 43.31 515.417 42.69C516.857 42.07 518.537 41.76 520.457 41.76C522.417 41.76 524.047 42.07 525.347 42.69C526.647 43.31 527.607 44.25 528.227 45.51C528.867 46.75 529.137 48.34 529.037 50.28H514.817C514.917 51.04 515.197 51.73 515.657 52.35C516.137 52.97 516.777 53.46 517.577 53.82C518.397 54.18 519.367 54.36 520.487 54.36C521.727 54.36 522.757 54.15 523.577 53.73C524.417 53.29 524.957 52.73 525.197 52.05ZM520.277 44.73C518.837 44.73 517.667 45.05 516.767 45.69C515.867 46.31 515.287 47.08 515.027 48H525.167C525.067 47 524.587 46.21 523.727 45.63C522.887 45.03 521.737 44.73 520.277 44.73ZM546.435 57.33C544.955 57.33 543.605 57.01 542.385 56.37C541.185 55.71 540.225 54.8 539.505 53.64C538.805 52.46 538.455 51.1 538.455 49.56C538.455 47.98 538.815 46.61 539.535 45.45C540.255 44.29 541.225 43.39 542.445 42.75C543.685 42.09 545.085 41.76 546.645 41.76C548.365 41.76 549.745 42.11 550.785 42.81C551.845 43.49 552.615 44.42 553.095 45.6C553.575 46.78 553.815 48.1 553.815 49.56C553.815 50.44 553.675 51.34 553.395 52.26C553.115 53.16 552.685 54 552.105 54.78C551.525 55.54 550.765 56.16 549.825 56.64C548.885 57.1 547.755 57.33 546.435 57.33ZM547.695 54.33C548.875 54.33 549.895 54.13 550.755 53.73C551.615 53.33 552.275 52.77 552.735 52.05C553.195 51.33 553.425 50.5 553.425 49.56C553.425 48.54 553.185 47.68 552.705 46.98C552.245 46.26 551.585 45.72 550.725 45.36C549.885 44.98 548.875 44.79 547.695 44.79C546.035 44.79 544.745 45.23 543.825 46.11C542.905 46.97 542.445 48.12 542.445 49.56C542.445 50.52 542.665 51.36 543.105 52.08C543.545 52.78 544.155 53.33 544.935 53.73C545.735 54.13 546.655 54.33 547.695 54.33ZM553.425 42.09H557.325V57H553.695C553.695 57 553.665 56.81 553.605 56.43C553.565 56.03 553.525 55.53 553.485 54.93C553.445 54.33 553.425 53.74 553.425 53.16V42.09ZM587.531 54.3L586.301 54.27L591.161 42.09H595.451L588.881 57H585.221L580.421 44.97H581.741L576.791 57H573.131L566.741 42.09H571.031L575.711 54.3H574.481L578.861 42.09H583.331L587.531 54.3ZM605.856 57.36C603.976 57.36 602.316 57.06 600.876 56.46C599.456 55.86 598.346 54.99 597.546 53.85C596.746 52.69 596.346 51.27 596.346 49.59C596.346 47.91 596.746 46.49 597.546 45.33C598.346 44.15 599.456 43.26 600.876 42.66C602.316 42.06 603.976 41.76 605.856 41.76C607.736 41.76 609.376 42.06 610.776 42.66C612.196 43.26 613.306 44.15 614.106 45.33C614.906 46.49 615.306 47.91 615.306 49.59C615.306 51.27 614.906 52.69 614.106 53.85C613.306 54.99 612.196 55.86 610.776 56.46C609.376 57.06 607.736 57.36 605.856 57.36ZM605.856 54.36C606.896 54.36 607.826 54.18 608.646 53.82C609.486 53.44 610.146 52.9 610.626 52.2C611.106 51.48 611.346 50.61 611.346 49.59C611.346 48.57 611.106 47.7 610.626 46.98C610.146 46.24 609.496 45.68 608.676 45.3C607.856 44.92 606.916 44.73 605.856 44.73C604.816 44.73 603.876 44.92 603.036 45.3C602.196 45.68 601.526 46.23 601.026 46.95C600.546 47.67 600.306 48.55 600.306 49.59C600.306 50.61 600.546 51.48 601.026 52.2C601.506 52.9 602.166 53.44 603.006 53.82C603.846 54.18 604.796 54.36 605.856 54.36ZM618.189 42.09H622.089V57H618.189V42.09ZM627.819 45.3C626.699 45.3 625.729 45.52 624.909 45.96C624.089 46.38 623.429 46.9 622.929 47.52C622.429 48.14 622.079 48.74 621.879 49.32L621.849 47.67C621.869 47.43 621.949 47.08 622.089 46.62C622.229 46.14 622.439 45.63 622.719 45.09C622.999 44.53 623.369 44 623.829 43.5C624.289 42.98 624.849 42.56 625.509 42.24C626.169 41.92 626.939 41.76 627.819 41.76V45.3ZM630.53 36.09H634.43V57H630.53V36.09ZM645.634 57.33C644.134 57.33 642.774 57.01 641.554 56.37C640.354 55.71 639.404 54.8 638.704 53.64C638.004 52.46 637.654 51.1 637.654 49.56C637.654 47.98 637.994 46.61 638.674 45.45C639.374 44.29 640.324 43.39 641.524 42.75C642.724 42.09 644.094 41.76 645.634 41.76C646.974 41.76 648.114 41.96 649.054 42.36C649.994 42.76 650.754 43.32 651.334 44.04C651.914 44.74 652.334 45.56 652.594 46.5C652.874 47.44 653.014 48.46 653.014 49.56C653.014 50.44 652.874 51.34 652.594 52.26C652.314 53.16 651.884 54 651.304 54.78C650.724 55.54 649.964 56.16 649.024 56.64C648.084 57.1 646.954 57.33 645.634 57.33ZM646.894 54.33C648.074 54.33 649.094 54.13 649.954 53.73C650.814 53.33 651.474 52.77 651.934 52.05C652.394 51.33 652.624 50.5 652.624 49.56C652.624 48.54 652.384 47.68 651.904 46.98C651.444 46.26 650.784 45.71 649.924 45.33C649.084 44.95 648.074 44.76 646.894 44.76C645.234 44.76 643.944 45.2 643.024 46.08C642.104 46.96 641.644 48.12 641.644 49.56C641.644 50.52 641.864 51.36 642.304 52.08C642.744 52.78 643.354 53.33 644.134 53.73C644.934 54.13 645.854 54.33 646.894 54.33ZM652.624 36.09H656.524V57H652.894C652.834 56.54 652.774 55.95 652.714 55.23C652.654 54.49 652.624 53.8 652.624 53.16V36.09ZM182.677 99.36C180.797 99.36 179.137 99.06 177.697 98.46C176.277 97.86 175.167 96.99 174.367 95.85C173.567 94.69 173.167 93.27 173.167 91.59C173.167 89.91 173.567 88.49 174.367 87.33C175.167 86.15 176.277 85.26 177.697 84.66C179.137 84.06 180.797 83.76 182.677 83.76C184.557 83.76 186.197 84.06 187.597 84.66C189.017 85.26 190.127 86.15 190.927 87.33C191.727 88.49 192.127 89.91 192.127 91.59C192.127 93.27 191.727 94.69 190.927 95.85C190.127 96.99 189.017 97.86 187.597 98.46C186.197 99.06 184.557 99.36 182.677 99.36ZM182.677 96.36C183.717 96.36 184.647 96.18 185.467 95.82C186.307 95.44 186.967 94.9 187.447 94.2C187.927 93.48 188.167 92.61 188.167 91.59C188.167 90.57 187.927 89.7 187.447 88.98C186.967 88.24 186.317 87.68 185.497 87.3C184.677 86.92 183.737 86.73 182.677 86.73C181.637 86.73 180.697 86.92 179.857 87.3C179.017 87.68 178.347 88.23 177.847 88.95C177.367 89.67 177.127 90.55 177.127 91.59C177.127 92.61 177.367 93.48 177.847 94.2C178.327 94.9 178.987 95.44 179.827 95.82C180.667 96.18 181.617 96.36 182.677 96.36ZM193.755 84.36H205.755V87.33H193.755V84.36ZM202.875 78.09H205.965V81.24H203.805C203.225 81.22 202.725 81.28 202.305 81.42C201.885 81.56 201.565 81.82 201.345 82.2C201.125 82.56 201.015 83.08 201.015 83.76V99H197.115V83.28C197.115 82.08 197.335 81.1 197.775 80.34C198.215 79.56 198.865 78.99 199.725 78.63C200.585 78.27 201.635 78.09 202.875 78.09ZM225.24 87.75V84.78H232.71V87.75H225.24ZM229.38 84.78H233.28V99H229.38V84.78ZM217.74 99V83.28L221.64 83.76V99H217.74ZM223.5 78.09H233.28V81.24H224.43C223.85 81.22 223.35 81.28 222.93 81.42C222.51 81.56 222.19 81.82 221.97 82.2C221.75 82.56 221.64 83.08 221.64 83.76L217.74 83.28C217.74 82.08 217.96 81.1 218.4 80.34C218.84 79.56 219.49 78.99 220.35 78.63C221.21 78.27 222.26 78.09 223.5 78.09ZM214.38 84.78H226.38V87.75H214.38V84.78ZM236.846 84.09H240.746V99H236.846V84.09ZM247.676 83.76C248.596 83.76 249.446 83.88 250.226 84.12C251.006 84.36 251.686 84.73 252.266 85.23C252.846 85.73 253.296 86.37 253.616 87.15C253.936 87.91 254.096 88.82 254.096 89.88V99H250.196V90.57C250.196 89.31 249.886 88.39 249.266 87.81C248.666 87.21 247.676 86.91 246.296 86.91C245.256 86.91 244.316 87.11 243.476 87.51C242.636 87.91 241.956 88.42 241.436 89.04C240.916 89.64 240.616 90.27 240.536 90.93L240.506 89.4C240.606 88.7 240.836 88.02 241.196 87.36C241.556 86.7 242.036 86.1 242.636 85.56C243.256 85 243.986 84.56 244.826 84.24C245.666 83.92 246.616 83.76 247.676 83.76ZM264.907 99.33C263.427 99.33 262.077 99.01 260.857 98.37C259.657 97.71 258.697 96.8 257.977 95.64C257.277 94.46 256.927 93.1 256.927 91.56C256.927 89.98 257.287 88.61 258.007 87.45C258.727 86.29 259.697 85.39 260.917 84.75C262.157 84.09 263.557 83.76 265.117 83.76C266.837 83.76 268.217 84.11 269.257 84.81C270.317 85.49 271.087 86.42 271.567 87.6C272.047 88.78 272.287 90.1 272.287 91.56C272.287 92.44 272.147 93.34 271.867 94.26C271.587 95.16 271.157 96 270.577 96.78C269.997 97.54 269.237 98.16 268.297 98.64C267.357 99.1 266.227 99.33 264.907 99.33ZM266.167 96.33C267.347 96.33 268.367 96.13 269.227 95.73C270.087 95.33 270.747 94.77 271.207 94.05C271.667 93.33 271.897 92.5 271.897 91.56C271.897 90.54 271.657 89.68 271.177 88.98C270.717 88.26 270.057 87.72 269.197 87.36C268.357 86.98 267.347 86.79 266.167 86.79C264.507 86.79 263.217 87.23 262.297 88.11C261.377 88.97 260.917 90.12 260.917 91.56C260.917 92.52 261.137 93.36 261.577 94.08C262.017 94.78 262.627 95.33 263.407 95.73C264.207 96.13 265.127 96.33 266.167 96.33ZM271.897 84.09H275.797V99H272.167C272.167 99 272.137 98.81 272.077 98.43C272.037 98.03 271.997 97.53 271.957 96.93C271.917 96.33 271.897 95.74 271.897 95.16V84.09ZM279.326 84.09H283.226V99H279.326V84.09ZM290.156 83.76C291.076 83.76 291.926 83.88 292.706 84.12C293.486 84.36 294.166 84.73 294.746 85.23C295.326 85.73 295.776 86.37 296.096 87.15C296.416 87.91 296.576 88.82 296.576 89.88V99H292.676V90.57C292.676 89.31 292.366 88.39 291.746 87.81C291.146 87.21 290.156 86.91 288.776 86.91C287.736 86.91 286.796 87.11 285.956 87.51C285.116 87.91 284.436 88.42 283.916 89.04C283.396 89.64 283.096 90.27 283.016 90.93L282.986 89.4C283.086 88.7 283.316 88.02 283.676 87.36C284.036 86.7 284.516 86.1 285.116 85.56C285.736 85 286.466 84.56 287.306 84.24C288.146 83.92 289.096 83.76 290.156 83.76ZM317.827 93.12C317.727 94.42 317.307 95.54 316.567 96.48C315.847 97.42 314.847 98.14 313.567 98.64C312.287 99.12 310.767 99.36 309.007 99.36C307.167 99.36 305.517 99.07 304.057 98.49C302.617 97.89 301.477 97.02 300.637 95.88C299.817 94.72 299.407 93.29 299.407 91.59C299.407 89.89 299.817 88.46 300.637 87.3C301.477 86.14 302.617 85.26 304.057 84.66C305.517 84.06 307.167 83.76 309.007 83.76C310.767 83.76 312.277 84.01 313.537 84.51C314.797 84.99 315.787 85.69 316.507 86.61C317.247 87.53 317.677 88.64 317.797 89.94H314.227C313.887 88.94 313.257 88.16 312.337 87.6C311.417 87.04 310.307 86.76 309.007 86.76C307.967 86.76 307.017 86.94 306.157 87.3C305.317 87.66 304.637 88.2 304.117 88.92C303.617 89.62 303.367 90.51 303.367 91.59C303.367 92.65 303.617 93.54 304.117 94.26C304.617 94.96 305.297 95.49 306.157 95.85C307.017 96.19 307.967 96.36 309.007 96.36C310.407 96.36 311.547 96.08 312.427 95.52C313.327 94.96 313.937 94.16 314.257 93.12H317.827ZM325.164 77.55V80.97H320.634V77.55H325.164ZM320.934 84.09H324.834V99H320.934V84.09ZM335.981 99.33C334.501 99.33 333.151 99.01 331.931 98.37C330.731 97.71 329.771 96.8 329.051 95.64C328.351 94.46 328.001 93.1 328.001 91.56C328.001 89.98 328.361 88.61 329.081 87.45C329.801 86.29 330.771 85.39 331.991 84.75C333.231 84.09 334.631 83.76 336.191 83.76C337.911 83.76 339.291 84.11 340.331 84.81C341.391 85.49 342.161 86.42 342.641 87.6C343.121 88.78 343.361 90.1 343.361 91.56C343.361 92.44 343.221 93.34 342.941 94.26C342.661 95.16 342.231 96 341.651 96.78C341.071 97.54 340.311 98.16 339.371 98.64C338.431 99.1 337.301 99.33 335.981 99.33ZM337.241 96.33C338.421 96.33 339.441 96.13 340.301 95.73C341.161 95.33 341.821 94.77 342.281 94.05C342.741 93.33 342.971 92.5 342.971 91.56C342.971 90.54 342.731 89.68 342.251 88.98C341.791 88.26 341.131 87.72 340.271 87.36C339.431 86.98 338.421 86.79 337.241 86.79C335.581 86.79 334.291 87.23 333.371 88.11C332.451 88.97 331.991 90.12 331.991 91.56C331.991 92.52 332.211 93.36 332.651 94.08C333.091 94.78 333.701 95.33 334.481 95.73C335.281 96.13 336.201 96.33 337.241 96.33ZM342.971 84.09H346.871V99H343.241C343.241 99 343.211 98.81 343.151 98.43C343.111 98.03 343.071 97.53 343.031 96.93C342.991 96.33 342.971 95.74 342.971 95.16V84.09ZM350.701 78.09H354.601V99H350.701V78.09ZM376.641 99.36C375.321 99.36 374.191 99.13 373.251 98.67C372.331 98.19 371.581 97.57 371.001 96.81C370.421 96.03 369.991 95.18 369.711 94.26C369.431 93.34 369.291 92.44 369.291 91.56C369.291 90.46 369.421 89.44 369.681 88.5C369.961 87.56 370.391 86.74 370.971 86.04C371.551 85.32 372.301 84.76 373.221 84.36C374.161 83.96 375.301 83.76 376.641 83.76C378.141 83.76 379.491 84.09 380.691 84.75C381.891 85.41 382.841 86.33 383.541 87.51C384.261 88.67 384.621 90.02 384.621 91.56C384.621 93.14 384.261 94.52 383.541 95.7C382.821 96.86 381.861 97.76 380.661 98.4C379.461 99.04 378.121 99.36 376.641 99.36ZM375.381 96.33C376.441 96.33 377.361 96.13 378.141 95.73C378.941 95.33 379.551 94.78 379.971 94.08C380.411 93.36 380.631 92.52 380.631 91.56C380.631 90.12 380.171 88.96 379.251 88.08C378.351 87.2 377.061 86.76 375.381 86.76C374.321 86.76 373.351 86.95 372.471 87.33C371.611 87.71 370.931 88.26 370.431 88.98C369.931 89.68 369.681 90.54 369.681 91.56C369.681 92.52 369.911 93.36 370.371 94.08C370.831 94.78 371.491 95.33 372.351 95.73C373.211 96.13 374.221 96.33 375.381 96.33ZM365.781 84.09H369.501L369.681 88.05V105H365.781V84.09ZM396.28 99.36C394.4 99.36 392.74 99.06 391.3 98.46C389.88 97.86 388.77 96.99 387.97 95.85C387.17 94.69 386.77 93.27 386.77 91.59C386.77 89.91 387.17 88.49 387.97 87.33C388.77 86.15 389.88 85.26 391.3 84.66C392.74 84.06 394.4 83.76 396.28 83.76C398.16 83.76 399.8 84.06 401.2 84.66C402.62 85.26 403.73 86.15 404.53 87.33C405.33 88.49 405.73 89.91 405.73 91.59C405.73 93.27 405.33 94.69 404.53 95.85C403.73 96.99 402.62 97.86 401.2 98.46C399.8 99.06 398.16 99.36 396.28 99.36ZM396.28 96.36C397.32 96.36 398.25 96.18 399.07 95.82C399.91 95.44 400.57 94.9 401.05 94.2C401.53 93.48 401.77 92.61 401.77 91.59C401.77 90.57 401.53 89.7 401.05 88.98C400.57 88.24 399.92 87.68 399.1 87.3C398.28 86.92 397.34 86.73 396.28 86.73C395.24 86.73 394.3 86.92 393.46 87.3C392.62 87.68 391.95 88.23 391.45 88.95C390.97 89.67 390.73 90.55 390.73 91.59C390.73 92.61 390.97 93.48 391.45 94.2C391.93 94.9 392.59 95.44 393.43 95.82C394.27 96.18 395.22 96.36 396.28 96.36ZM408.013 94.05H411.613C411.833 94.73 412.283 95.29 412.963 95.73C413.663 96.15 414.573 96.36 415.693 96.36C416.453 96.36 417.043 96.29 417.463 96.15C417.883 96.01 418.173 95.81 418.333 95.55C418.493 95.27 418.573 94.96 418.573 94.62C418.573 94.2 418.443 93.88 418.183 93.66C417.923 93.42 417.523 93.23 416.983 93.09C416.443 92.95 415.753 92.82 414.913 92.7C414.073 92.56 413.263 92.39 412.483 92.19C411.703 91.99 411.013 91.73 410.413 91.41C409.813 91.07 409.333 90.65 408.973 90.15C408.633 89.63 408.463 89 408.463 88.26C408.463 87.54 408.633 86.9 408.973 86.34C409.333 85.78 409.823 85.31 410.443 84.93C411.083 84.55 411.823 84.26 412.663 84.06C413.523 83.86 414.443 83.76 415.423 83.76C416.903 83.76 418.133 83.98 419.113 84.42C420.093 84.84 420.823 85.44 421.303 86.22C421.803 86.98 422.053 87.86 422.053 88.86H418.603C418.443 88.12 418.123 87.59 417.643 87.27C417.163 86.93 416.423 86.76 415.423 86.76C414.443 86.76 413.703 86.91 413.203 87.21C412.703 87.51 412.453 87.92 412.453 88.44C412.453 88.86 412.603 89.19 412.903 89.43C413.223 89.65 413.683 89.83 414.283 89.97C414.903 90.11 415.673 90.26 416.593 90.42C417.373 90.58 418.113 90.76 418.813 90.96C419.533 91.16 420.173 91.42 420.733 91.74C421.293 92.04 421.733 92.45 422.053 92.97C422.393 93.47 422.563 94.11 422.563 94.89C422.563 95.85 422.283 96.66 421.723 97.32C421.183 97.98 420.403 98.49 419.383 98.85C418.363 99.19 417.143 99.36 415.723 99.36C414.463 99.36 413.373 99.23 412.453 98.97C411.553 98.69 410.803 98.34 410.203 97.92C409.603 97.48 409.133 97.02 408.793 96.54C408.473 96.04 408.253 95.57 408.133 95.13C408.013 94.69 407.973 94.33 408.013 94.05ZM424.947 94.05H428.547C428.767 94.73 429.217 95.29 429.897 95.73C430.597 96.15 431.507 96.36 432.627 96.36C433.387 96.36 433.977 96.29 434.397 96.15C434.817 96.01 435.107 95.81 435.267 95.55C435.427 95.27 435.507 94.96 435.507 94.62C435.507 94.2 435.377 93.88 435.117 93.66C434.857 93.42 434.457 93.23 433.917 93.09C433.377 92.95 432.687 92.82 431.847 92.7C431.007 92.56 430.197 92.39 429.417 92.19C428.637 91.99 427.947 91.73 427.347 91.41C426.747 91.07 426.267 90.65 425.907 90.15C425.567 89.63 425.397 89 425.397 88.26C425.397 87.54 425.567 86.9 425.907 86.34C426.267 85.78 426.757 85.31 427.377 84.93C428.017 84.55 428.757 84.26 429.597 84.06C430.457 83.86 431.377 83.76 432.357 83.76C433.837 83.76 435.067 83.98 436.047 84.42C437.027 84.84 437.757 85.44 438.237 86.22C438.737 86.98 438.987 87.86 438.987 88.86H435.537C435.377 88.12 435.057 87.59 434.577 87.27C434.097 86.93 433.357 86.76 432.357 86.76C431.377 86.76 430.637 86.91 430.137 87.21C429.637 87.51 429.387 87.92 429.387 88.44C429.387 88.86 429.537 89.19 429.837 89.43C430.157 89.65 430.617 89.83 431.217 89.97C431.837 90.11 432.607 90.26 433.527 90.42C434.307 90.58 435.047 90.76 435.747 90.96C436.467 91.16 437.107 91.42 437.667 91.74C438.227 92.04 438.667 92.45 438.987 92.97C439.327 93.47 439.497 94.11 439.497 94.89C439.497 95.85 439.217 96.66 438.657 97.32C438.117 97.98 437.337 98.49 436.317 98.85C435.297 99.19 434.077 99.36 432.657 99.36C431.397 99.36 430.307 99.23 429.387 98.97C428.487 98.69 427.737 98.34 427.137 97.92C426.537 97.48 426.067 97.02 425.727 96.54C425.407 96.04 425.187 95.57 425.067 95.13C424.947 94.69 424.907 94.33 424.947 94.05ZM446.951 77.55V80.97H442.421V77.55H446.951ZM442.721 84.09H446.621V99H442.721V84.09ZM461.998 99.33C460.678 99.33 459.548 99.1 458.608 98.64C457.668 98.16 456.908 97.54 456.328 96.78C455.748 96 455.318 95.16 455.038 94.26C454.758 93.34 454.618 92.44 454.618 91.56C454.618 90.46 454.748 89.44 455.008 88.5C455.288 87.56 455.718 86.74 456.298 86.04C456.878 85.32 457.638 84.76 458.578 84.36C459.518 83.96 460.658 83.76 461.998 83.76C463.538 83.76 464.898 84.09 466.078 84.75C467.278 85.39 468.218 86.29 468.898 87.45C469.598 88.61 469.948 89.98 469.948 91.56C469.948 93.1 469.598 94.46 468.898 95.64C468.198 96.8 467.248 97.71 466.048 98.37C464.848 99.01 463.498 99.33 461.998 99.33ZM460.738 96.33C461.798 96.33 462.718 96.13 463.498 95.73C464.278 95.33 464.878 94.78 465.298 94.08C465.738 93.36 465.958 92.52 465.958 91.56C465.958 90.12 465.498 88.96 464.578 88.08C463.678 87.2 462.398 86.76 460.738 86.76C459.578 86.76 458.568 86.95 457.708 87.33C456.848 87.71 456.178 88.26 455.698 88.98C455.238 89.68 455.008 90.54 455.008 91.56C455.008 92.5 455.238 93.33 455.698 94.05C456.158 94.77 456.818 95.33 457.678 95.73C458.538 96.13 459.558 96.33 460.738 96.33ZM455.008 78.09V95.16C455.008 95.8 454.978 96.49 454.918 97.23C454.858 97.95 454.798 98.54 454.738 99H451.108V78.09H455.008ZM477.302 77.55V80.97H472.772V77.55H477.302ZM473.072 84.09H476.972V99H473.072V84.09ZM481.16 78.09H485.06V99H481.16V78.09ZM493.474 77.55V80.97H488.944V77.55H493.474ZM489.244 84.09H493.144V99H489.244V84.09ZM495.981 84.09H507.561V87.12H495.981V84.09ZM499.821 80.01H503.721V99H499.821V80.01ZM514.509 77.55V80.97H509.979V77.55H514.509ZM510.279 84.09H514.179V99H510.279V84.09ZM531.657 94.05H535.437C535.277 95.07 534.847 95.98 534.147 96.78C533.467 97.58 532.537 98.21 531.357 98.67C530.177 99.13 528.737 99.36 527.037 99.36C525.137 99.36 523.457 99.06 521.997 98.46C520.537 97.84 519.397 96.95 518.577 95.79C517.757 94.63 517.347 93.23 517.347 91.59C517.347 89.95 517.747 88.55 518.547 87.39C519.347 86.21 520.457 85.31 521.877 84.69C523.317 84.07 524.997 83.76 526.917 83.76C528.877 83.76 530.507 84.07 531.807 84.69C533.107 85.31 534.067 86.25 534.687 87.51C535.327 88.75 535.597 90.34 535.497 92.28H521.277C521.377 93.04 521.657 93.73 522.117 94.35C522.597 94.97 523.237 95.46 524.037 95.82C524.857 96.18 525.827 96.36 526.947 96.36C528.187 96.36 529.217 96.15 530.037 95.73C530.877 95.29 531.417 94.73 531.657 94.05ZM526.737 86.73C525.297 86.73 524.127 87.05 523.227 87.69C522.327 88.31 521.747 89.08 521.487 90H531.627C531.527 89 531.047 88.21 530.187 87.63C529.347 87.03 528.197 86.73 526.737 86.73ZM537.799 94.05H541.399C541.619 94.73 542.069 95.29 542.749 95.73C543.449 96.15 544.359 96.36 545.479 96.36C546.239 96.36 546.829 96.29 547.249 96.15C547.669 96.01 547.959 95.81 548.119 95.55C548.279 95.27 548.359 94.96 548.359 94.62C548.359 94.2 548.229 93.88 547.969 93.66C547.709 93.42 547.309 93.23 546.769 93.09C546.229 92.95 545.539 92.82 544.699 92.7C543.859 92.56 543.049 92.39 542.269 92.19C541.489 91.99 540.799 91.73 540.199 91.41C539.599 91.07 539.119 90.65 538.759 90.15C538.419 89.63 538.249 89 538.249 88.26C538.249 87.54 538.419 86.9 538.759 86.34C539.119 85.78 539.609 85.31 540.229 84.93C540.869 84.55 541.609 84.26 542.449 84.06C543.309 83.86 544.229 83.76 545.209 83.76C546.689 83.76 547.919 83.98 548.899 84.42C549.879 84.84 550.609 85.44 551.089 86.22C551.589 86.98 551.839 87.86 551.839 88.86H548.389C548.229 88.12 547.909 87.59 547.429 87.27C546.949 86.93 546.209 86.76 545.209 86.76C544.229 86.76 543.489 86.91 542.989 87.21C542.489 87.51 542.239 87.92 542.239 88.44C542.239 88.86 542.389 89.19 542.689 89.43C543.009 89.65 543.469 89.83 544.069 89.97C544.689 90.11 545.459 90.26 546.379 90.42C547.159 90.58 547.899 90.76 548.599 90.96C549.319 91.16 549.959 91.42 550.519 91.74C551.079 92.04 551.519 92.45 551.839 92.97C552.179 93.47 552.349 94.11 552.349 94.89C552.349 95.85 552.069 96.66 551.509 97.32C550.969 97.98 550.189 98.49 549.169 98.85C548.149 99.19 546.929 99.36 545.509 99.36C544.249 99.36 543.159 99.23 542.239 98.97C541.339 98.69 540.589 98.34 539.989 97.92C539.389 97.48 538.919 97.02 538.579 96.54C538.259 96.04 538.039 95.57 537.919 95.13C537.799 94.69 537.759 94.33 537.799 94.05ZM559.862 95.58V99H555.332V95.58H559.862Z" fill="white"/>
<path d="M103.536 31.5C103.536 48.6208 82.0355 15 71.5355 43C59 69 41.5355 48.6208 41.5355 31.5C41.5355 14.3792 55.4147 0.5 72.5355 0.5C89.6563 0.5 103.536 14.3792 103.536 31.5Z" fill="white"/>
<path d="M51.5629 35.71C51.5329 35.71 51.5029 35.77 51.4729 35.77C51.5029 35.77 51.5929 35.71 51.6229 35.71H51.5629ZM49.5229 35.59H49.4929H49.5529H49.5229ZM50.5729 35.44C50.4829 35.44 50.3629 35.47 50.2429 35.47H50.1829C50.2429 35.47 50.3329 35.5 50.3629 35.5C50.4829 35.47 50.6029 35.44 50.6629 35.44H50.5729ZM49.5529 35.35C49.5829 35.35 49.6129 35.38 49.6429 35.38H49.8529C49.7329 35.38 49.6129 35.35 49.5529 35.35ZM51.2929 35.08H51.4129C51.4429 35.08 51.5029 35.11 51.5029 35.11C51.5029 35.11 51.4129 35.14 51.2929 35.17C51.2629 35.17 51.2629 35.2 51.2329 35.2H51.2029C51.1429 35.2 51.1129 35.17 51.1129 35.14C51.1129 35.11 51.1729 35.08 51.2929 35.08ZM51.8629 34.99H51.9529C51.9829 34.99 52.0129 35.02 52.0129 35.02C52.0129 35.02 52.0129 35.05 51.9529 35.05C51.9229 35.05 51.8329 35.08 51.8029 35.08C51.7729 35.08 51.7129 35.05 51.6829 35.05C51.6529 35.02 51.7129 34.99 51.8629 34.99ZM54.9229 34.96C54.8629 34.96 54.8029 34.99 54.6229 35.05C54.5629 35.08 54.4729 35.14 54.3829 35.17C54.3529 35.17 54.3229 35.23 54.2929 35.23C54.5029 35.17 54.7129 35.05 54.9229 34.96ZM48.8629 34.9H48.8029C48.7729 34.9 48.8329 34.96 48.9829 34.99C49.0729 35.02 49.1629 35.05 49.2829 35.08C49.6129 35.14 49.8229 35.14 49.7929 35.11L49.7629 35.08C49.6429 35.02 49.2229 34.93 48.9829 34.9H48.8629ZM54.6229 34.78C54.6229 34.78 54.5929 34.81 54.5329 34.81C54.4429 34.84 54.3529 34.87 54.2629 34.87C54.1729 34.87 54.0529 34.9 53.9929 34.9C53.8429 34.9 54.0229 34.9 54.2929 34.84C54.4729 34.81 54.5929 34.78 54.6229 34.78ZM55.8829 34.69C55.7029 34.75 55.7929 34.75 55.5529 34.87C55.6729 34.81 55.7929 34.72 55.8829 34.69ZM48.7429 34.57H48.8029C48.8629 34.57 48.9529 34.6 49.0429 34.6C49.1029 34.6 49.1929 34.63 49.2529 34.63C49.4629 34.66 49.6729 34.72 49.7329 34.75C49.7629 34.75 49.7629 34.78 49.7629 34.78C49.7629 34.81 49.5229 34.81 49.2229 34.75C49.1629 34.75 49.1029 34.69 49.0429 34.69C48.8329 34.63 48.7129 34.57 48.7129 34.57H48.7429ZM53.8729 34.57H53.9029C53.9329 34.57 53.9329 34.6 53.9329 34.63C53.9329 34.66 53.8429 34.75 53.7829 34.75C53.7229 34.75 53.7229 34.69 53.7529 34.66C53.7829 34.63 53.8429 34.57 53.8729 34.57ZM48.0529 34.51H48.0829C48.1429 34.51 48.2029 34.51 48.2629 34.54C48.3529 34.57 48.4429 34.63 48.4729 34.63L48.5029 34.66H48.5329C48.5329 34.66 48.3829 34.69 48.2329 34.66C48.2029 34.66 48.1729 34.63 48.1429 34.63H48.1129V34.6C48.0529 34.57 47.9929 34.57 47.9929 34.54C47.9929 34.54 48.0229 34.51 48.0529 34.51ZM49.7929 34.45H49.8229H49.8829C49.9129 34.45 49.9429 34.51 49.9429 34.54C49.9429 34.57 49.8529 34.6 49.7329 34.6C49.6129 34.6 49.5529 34.51 49.6129 34.48C49.6429 34.45 49.7329 34.45 49.7929 34.45ZM46.9129 34.18V34.21C46.9129 34.24 47.0029 34.36 47.2129 34.45C47.4229 34.54 47.5129 34.54 47.4229 34.48C47.2729 34.39 47.3329 34.39 47.4829 34.39C47.6029 34.39 47.6029 34.36 47.5129 34.33C47.4229 34.3 47.3029 34.3 47.2429 34.3C47.1829 34.3 47.0929 34.3 47.0329 34.24C47.0029 34.21 46.9729 34.18 46.9429 34.18H46.9129ZM54.3829 34.09C54.3829 34.09 54.3529 34.09 54.3229 34.12C54.2629 34.18 53.6629 34.39 52.7329 34.51C51.6229 34.66 51.2629 34.63 51.2629 34.72C51.2629 34.78 51.0829 34.81 50.6929 34.78C50.0629 34.72 50.2729 34.72 50.5429 34.72C50.7529 34.72 50.8429 34.66 50.8429 34.66C50.8129 34.66 50.6629 34.6 50.5729 34.57C50.3929 34.51 49.9129 34.66 49.9129 34.78C49.9129 34.81 50.2429 34.87 50.6929 34.9C51.1429 34.93 51.4729 34.87 51.4429 34.84C51.4129 34.81 51.6529 34.75 52.0129 34.75C52.4329 34.75 52.6129 34.75 52.4629 34.81C52.3729 34.84 52.2229 34.87 52.1629 34.87C52.1029 34.87 52.1029 34.9 52.1329 34.96C52.1629 35.02 52.2529 35.02 52.3429 35.02H52.4629C52.6729 34.96 52.9729 34.87 53.1529 34.84C53.2129 34.84 53.2729 34.78 53.2729 34.75C53.2729 34.72 53.1529 34.69 53.0629 34.72C52.9729 34.75 52.8229 34.75 52.8229 34.72C52.8229 34.69 53.2129 34.57 53.6329 34.51C54.2629 34.39 54.4129 34.3 54.4129 34.18C54.4129 34.12 54.3829 34.09 54.3829 34.09ZM51.3829 34.06H51.5329H51.6229C51.6829 34.06 51.7729 34.12 51.8029 34.12V34.15C51.8029 34.18 51.7729 34.21 51.7129 34.21C51.6529 34.21 51.5329 34.15 51.4129 34.12C51.2929 34.09 51.2929 34.06 51.3829 34.06ZM52.1329 34.03H52.1629C52.1629 34.03 52.1929 34.09 52.1929 34.12C52.1929 34.15 52.1029 34.21 52.0429 34.21C51.9829 34.21 51.9529 34.15 51.9829 34.12C52.0129 34.09 52.1029 34.03 52.1329 34.03ZM52.4029 33.94C52.4029 33.94 52.4329 34 52.4329 34.06C52.4329 34.12 52.4029 34.15 52.4029 34.15C52.4029 34.15 52.3729 34.15 52.3729 34.12C52.3429 34.06 52.3429 34 52.3729 33.97L52.4029 33.94ZM57.7729 33.88C57.7129 33.91 57.6529 33.97 57.5629 34.03L57.2929 34.21C57.5329 34.06 57.6829 33.94 57.7729 33.88ZM48.7729 33.82H48.8329C48.8929 33.82 48.9829 33.88 49.0729 33.88C49.1029 33.88 49.1929 33.91 49.2229 33.91C49.3729 33.94 49.4629 34 49.4929 34C49.4929 34.03 49.3429 34.03 49.1929 34C49.1329 34 49.1029 33.97 49.0429 33.97H48.9829L48.9529 33.94C48.8629 33.91 48.7729 33.88 48.7429 33.85C48.7129 33.82 48.7429 33.82 48.7729 33.82ZM50.4829 33.82H50.6629C50.7529 33.82 50.8429 33.85 50.9029 33.85C50.9629 33.85 51.0529 33.88 51.0529 33.88C51.0529 33.91 50.8129 33.94 50.6029 33.94C50.4829 33.94 50.3629 33.88 50.3629 33.85C50.3629 33.82 50.3929 33.82 50.4829 33.82ZM51.6529 33.79C51.7429 33.79 51.8629 33.82 51.8929 33.82H51.9229C51.9229 33.82 51.8629 33.85 51.7429 33.88C51.5629 33.91 51.4129 33.94 51.3229 33.94C51.2329 33.94 51.2329 33.91 51.2629 33.88C51.2929 33.85 51.4729 33.79 51.6529 33.79ZM49.5529 33.73C49.5529 33.73 49.5829 33.76 49.6129 33.76H49.6729C49.7629 33.76 49.8529 33.82 49.8829 33.82C49.9429 33.85 49.9129 33.88 49.7329 33.88H49.6429H49.6129C49.5529 33.88 49.4629 33.82 49.4629 33.79C49.4629 33.76 49.4929 33.73 49.5529 33.73ZM48.1129 33.58H48.1429C48.1729 33.58 48.2329 33.61 48.2629 33.61C48.2929 33.61 48.3529 33.64 48.3829 33.64C48.4729 33.67 48.5029 33.76 48.5029 33.79C48.5029 33.82 48.3529 33.79 48.2329 33.76C48.1129 33.73 48.0229 33.64 48.0229 33.61C48.0229 33.61 48.0829 33.58 48.1129 33.58ZM55.4329 33.58H55.4629C55.4629 33.58 55.4629 33.61 55.4329 33.61C55.4029 33.64 55.3429 33.64 55.2829 33.64C55.2229 33.64 55.1329 33.67 55.1029 33.67C55.0129 33.67 55.0729 33.64 55.2529 33.61C55.3129 33.58 55.4029 33.58 55.4329 33.58ZM46.4029 33.52C46.3729 33.52 46.4629 33.61 46.6729 33.73C46.7029 33.73 46.7629 33.79 46.7929 33.82C46.8829 33.88 47.0029 33.94 47.1529 34C47.6629 34.24 48.1429 34.39 48.1729 34.39C48.1729 34.39 48.1729 34.36 48.1129 34.33C48.0229 34.3 47.8429 34.24 47.6629 34.15C47.2729 34 47.0329 33.85 46.7029 33.67C46.5829 33.61 46.4629 33.52 46.4329 33.52H46.4029ZM45.9229 33.46C45.9529 33.46 45.9829 33.46 46.0129 33.49C46.0729 33.52 46.1929 33.61 46.3129 33.67C46.4329 33.76 46.5529 33.82 46.6129 33.85C46.6729 33.91 46.6729 33.94 46.6429 33.97H46.5529C46.4629 33.97 46.3429 33.88 46.2229 33.79L46.1329 33.76C45.9829 33.64 45.8929 33.52 45.8929 33.46H45.9229ZM44.6329 33.19C44.7829 33.31 44.9629 33.43 45.1129 33.52L45.3229 33.73C45.0829 33.58 44.8729 33.4 44.6329 33.19ZM57.5929 33.01C57.4729 33.01 56.8729 33.25 56.3329 33.46C55.7929 33.67 55.2229 33.85 55.1929 33.91C55.1629 33.94 55.1029 34.03 54.9829 34.09C54.9529 34.12 54.8929 34.15 54.8329 34.15C54.6529 34.21 54.6829 34.21 54.9829 34.15C55.0429 34.15 55.1329 34.12 55.2229 34.09C55.6729 33.97 56.2429 33.76 56.8429 33.49C57.5929 33.16 57.7129 33.04 57.6529 33.01H57.6229H57.5929ZM56.8129 33.01C56.8129 33.01 56.7529 33.01 56.6929 33.04C56.5729 33.07 56.5429 33.13 56.5429 33.13C56.5729 33.13 56.6029 33.1 56.6329 33.1C56.6629 33.1 56.7529 33.07 56.7829 33.04L56.8129 33.01ZM57.5929 32.8L57.5629 32.83C57.5329 32.83 57.5329 32.89 57.5329 32.92C57.5329 32.95 57.6229 32.95 57.6829 32.92C57.7429 32.89 57.7729 32.83 57.7129 32.83C57.6829 32.83 57.6529 32.8 57.6229 32.8H57.5929ZM56.7529 32.71C56.6329 32.71 56.2129 32.89 55.4329 33.13C55.2229 33.19 55.0429 33.28 54.8629 33.31C54.3829 33.43 54.0529 33.49 54.0229 33.49C53.8729 33.46 52.2829 33.82 52.5529 33.85C52.7329 33.85 53.0029 33.82 53.1829 33.79C53.4229 33.73 53.4829 33.76 53.4229 33.85C53.3929 33.91 53.4229 33.94 53.5129 33.94C53.5429 33.94 53.5729 33.91 53.6029 33.91C53.7229 33.88 53.8129 33.79 53.7829 33.76C53.7529 33.73 54.0229 33.7 54.3829 33.64C54.5929 33.61 54.7729 33.55 54.8929 33.52C55.3429 33.43 55.5529 33.34 56.0329 33.1C56.3629 32.95 56.6629 32.83 56.7229 32.83C56.7829 32.83 56.7829 32.77 56.7829 32.74V32.71H56.7529ZM57.5329 32.62C57.4429 32.62 57.2329 32.74 57.1729 32.83C57.1429 32.86 57.2329 32.86 57.3529 32.8L57.4129 32.77C57.5029 32.74 57.5629 32.68 57.5629 32.65V32.62H57.5329ZM44.8429 32.41C44.8429 32.41 44.8729 32.44 44.8729 32.47C44.9029 32.53 44.9629 32.59 44.9929 32.65C45.0229 32.71 45.0829 32.77 45.1129 32.8C45.2029 32.89 45.1429 32.77 45.0229 32.62C44.9629 32.53 44.8429 32.41 44.8429 32.41ZM60.2929 32.35L60.2329 32.38L60.2929 32.35ZM60.2629 32.32L60.1729 32.41H60.1429C60.1729 32.38 60.2329 32.35 60.2629 32.32ZM60.4129 32.14C60.4129 32.14 60.3829 32.14 60.3829 32.17L60.4129 32.14ZM60.4729 32.08L60.4129 32.11H60.4429C60.4429 32.11 60.4129 32.11 60.3829 32.17C60.3829 32.17 60.3829 32.14 60.4129 32.11V32.14L60.4729 32.08ZM45.4429 31.93C45.4429 31.93 45.4729 32.02 45.5929 32.23C45.6229 32.29 45.6829 32.38 45.7429 32.47C46.1929 33.07 46.5529 33.16 46.5829 33.1C46.6129 33.07 46.5529 33.04 46.4929 33.01C46.4329 32.98 46.1329 32.77 45.8929 32.5C45.7729 32.38 45.6829 32.26 45.6229 32.17C45.5929 32.14 45.4729 31.96 45.4429 31.93ZM58.7329 31.84C58.7029 31.84 58.5829 31.9 58.4329 31.99C58.1329 32.2 58.0729 32.26 58.3429 32.14C58.3729 32.14 58.4329 32.08 58.4629 32.08C58.5829 32.02 58.7029 31.93 58.7329 31.87V31.84ZM61.1329 31.51L61.0729 31.57L61.1329 31.51ZM58.7029 31.51H58.6729C58.5829 31.51 58.4029 31.63 58.3129 31.69C58.2229 31.78 58.0429 31.9 57.8029 32.05C57.4129 32.32 57.2029 32.44 57.0229 32.53C56.9629 32.56 56.9029 32.65 56.9029 32.68C56.9029 32.71 56.9929 32.71 57.0529 32.68C57.0829 32.68 57.0829 32.62 57.1129 32.62C57.2029 32.56 57.5929 32.32 57.8929 32.17C58.5529 31.78 58.8229 31.54 58.7329 31.51H58.7029ZM44.7529 31.45C44.7229 31.45 44.7529 31.6 44.8429 31.75C44.9929 32.05 44.9929 31.96 44.9629 31.81C44.9029 31.54 44.9029 31.51 44.8129 31.48L44.7829 31.45H44.7529ZM61.2829 31.36L61.2229 31.42L61.2829 31.36ZM59.5129 31.3C59.4829 31.3 59.3629 31.36 59.2429 31.45C59.0629 31.57 58.9129 31.69 58.9129 31.69C58.9129 31.72 59.1529 31.63 59.3329 31.51C59.4229 31.45 59.5429 31.36 59.5429 31.33V31.3H59.5129ZM44.9929 31.18C44.9929 31.18 45.0829 31.42 45.1729 31.6C45.2629 31.72 45.2329 31.57 45.1429 31.39C45.0529 31.24 45.0229 31.18 44.9929 31.18ZM61.8229 30.88C61.7929 30.91 61.7329 31.03 61.6429 31.12C61.6729 31.09 61.6729 31.03 61.7029 31L61.8229 30.88ZM60.2329 30.73H60.1129C60.0829 30.73 60.0529 30.82 60.0529 30.88C60.0529 30.94 60.1129 30.94 60.2029 30.88C60.2929 30.82 60.3229 30.73 60.2929 30.73H60.2629H60.2329ZM62.2729 30.46C62.2129 30.55 62.0929 30.64 62.0329 30.73C62.0629 30.7 62.0929 30.64 62.1229 30.61L62.2729 30.46ZM62.3629 30.37L62.3329 30.4C62.3329 30.43 62.2729 30.43 62.2729 30.46L62.3629 30.37ZM62.4229 30.31L62.3629 30.37H62.3329H62.3629L62.4229 30.31ZM44.4229 30.07V30.13C44.4229 30.25 44.3929 30.46 44.3629 30.52C44.3629 30.55 44.3329 30.64 44.3329 30.64H44.3929C44.4229 30.64 44.5129 30.7 44.5129 30.82C44.5129 30.94 44.5429 30.97 44.5429 30.91C44.5429 30.85 44.5729 30.79 44.6029 30.82C44.6329 30.85 44.5729 30.67 44.5129 30.4C44.4829 30.22 44.4229 30.07 44.4229 30.07ZM60.9529 29.8C60.8929 29.83 60.8629 29.89 60.8029 29.92C60.7729 29.95 60.7129 29.98 60.6829 30.01C60.5629 30.13 60.3529 30.34 60.2629 30.46C60.2029 30.52 60.1429 30.61 60.0829 30.67C60.1429 30.61 60.2329 30.55 60.2929 30.49C60.4129 30.4 60.5929 30.22 60.7129 30.07L60.8029 29.98C60.8329 29.92 60.9229 29.86 60.9529 29.8ZM44.3329 29.47C44.2729 29.47 44.2129 29.56 44.2129 29.65C44.2129 29.71 44.2429 29.77 44.2729 29.8H44.3329L44.3929 29.77C44.4229 29.74 44.4229 29.68 44.4229 29.62C44.4229 29.56 44.3929 29.5 44.3629 29.47H44.3329ZM63.5329 29.08L63.5029 29.11L63.5329 29.08L63.5029 29.11C63.4729 29.14 63.4429 29.2 63.4429 29.23C63.4429 29.26 63.3829 29.29 63.3829 29.32C63.4129 29.26 63.5029 29.14 63.5329 29.08ZM63.5629 29.02V29.05V29.02ZM63.7129 28.84C63.6829 28.9 63.5929 29.08 63.4429 29.32L63.6229 28.96V28.93L63.6529 28.9L63.7129 28.84ZM63.7429 28.78C63.7129 28.81 63.6829 28.87 63.6529 28.9L63.7129 28.84C63.7129 28.81 63.7429 28.78 63.7429 28.78ZM62.1229 28.51C62.1229 28.51 62.0629 28.54 61.9729 28.63C61.8529 28.75 61.8229 28.81 61.8829 28.78L62.0029 28.66L62.1229 28.54V28.51ZM43.9129 28.39C43.9429 28.39 43.9129 28.57 43.9129 28.84C43.9129 29.05 43.8529 29.47 43.8529 29.59C43.8529 29.59 43.7629 29.98 43.7929 29.17C43.7929 29.11 43.8229 29.05 43.8229 28.99C43.8529 28.63 43.9129 28.39 43.9129 28.39ZM64.0729 28.33C64.0129 28.42 63.9529 28.54 63.8929 28.63C63.9229 28.6 63.9229 28.54 63.9529 28.51C64.0129 28.39 64.0429 28.36 64.0729 28.33ZM45.1729 28.24C45.1729 28.24 45.1129 28.3 45.1129 28.33C45.1129 28.42 45.1129 28.48 45.1429 28.48C45.1729 28.48 45.2329 28.48 45.2329 28.45C45.2329 28.42 45.2329 28.33 45.2029 28.27L45.1729 28.24ZM45.0229 28.15C44.9929 28.15 44.9629 28.24 44.9329 28.36L44.9029 28.39C44.8729 28.54 44.9329 28.69 44.9629 28.69C44.9929 28.69 45.0529 28.6 45.0529 28.45C45.0529 28.3 45.0529 28.15 45.0229 28.15ZM65.0029 27.34H64.9729L64.9429 27.46L65.0029 27.34ZM45.5029 27.31C45.5029 27.31 45.4429 27.37 45.4429 27.4H45.4129C45.4129 27.43 45.3829 27.52 45.3829 27.55C45.3829 27.67 45.4129 27.64 45.4729 27.49V27.43C45.5029 27.34 45.5329 27.31 45.5329 27.31H45.5029ZM63.0229 27.25C62.9629 27.25 62.8129 27.46 62.6929 27.73C62.5729 27.94 62.5729 27.94 62.7829 27.7C62.9029 27.55 63.0229 27.37 63.0229 27.31V27.25ZM63.5629 26.41C63.5629 26.41 63.4429 26.56 63.3229 26.74C63.2029 26.92 63.1429 27.04 63.1729 27.04C63.1729 27.04 63.2329 27.01 63.2629 26.95V26.89C63.3829 26.71 63.5929 26.44 63.5629 26.41ZM47.0629 24.61V24.7C47.0629 24.76 47.0029 24.82 46.9429 24.94C46.8829 25.06 46.7629 25.15 46.7329 25.12C46.7029 25.09 46.7629 24.94 46.8829 24.79L46.9129 24.73L46.9429 24.7L47.0029 24.64L47.0629 24.61ZM46.4629 24.4C46.4629 24.4 46.4329 24.46 46.3429 24.55C46.1629 24.76 46.0129 24.88 46.0129 24.82C46.0129 24.76 45.9529 24.82 45.8929 24.94C45.8629 25 45.6229 25.39 45.5629 25.48C45.4429 25.69 45.4129 25.78 45.5029 25.78C45.5929 25.78 45.5029 25.87 45.3229 26.23C45.1729 26.47 45.1429 26.74 45.1429 26.8C45.1429 26.89 45.0829 27.1 45.0229 27.22C44.9629 27.31 44.9029 27.37 44.8729 27.34C44.8729 27.31 44.8729 27.25 44.9029 27.16C44.9329 27.04 44.9929 26.89 45.0529 26.74C45.2929 26.17 45.3829 25.96 45.1429 26.14C45.0829 26.17 45.0529 26.2 45.0529 26.23C45.0529 26.26 45.0229 26.29 45.0529 26.29C45.0829 26.32 45.0829 26.44 45.0229 26.5C44.9629 26.56 44.7829 26.8 44.6929 27.07L44.6629 27.13C44.1229 28.48 44.2429 29.2 44.3029 28.84C44.3629 28.51 44.3929 28.51 44.4529 28.66C44.4829 28.81 44.5429 28.78 44.5429 28.69C44.5429 28.6 44.5129 28.45 44.4829 28.33C44.3929 28.12 44.4229 28.15 44.5129 28.24C44.5729 28.3 44.6329 28.24 44.6629 28.15C44.6929 28.06 44.7529 28.12 44.7529 28.3C44.7829 28.69 44.7829 28.54 44.8429 28.15C44.8729 27.94 44.9629 27.61 45.0829 27.25C45.1129 27.16 45.1729 27.07 45.2029 26.98C45.3829 26.59 45.6229 26.2 45.8029 25.96C45.9829 25.72 46.0729 25.57 46.0429 25.54C46.0129 25.51 46.1029 25.36 46.2829 25.15C46.4629 24.94 46.5529 24.79 46.5229 24.76C46.4929 24.73 46.4029 24.82 46.3129 24.97C46.2529 25.12 46.1329 25.21 46.1029 25.18C46.0729 25.15 45.9529 25.27 45.8329 25.42C45.8329 25.42 45.8029 25.39 46.1329 24.91C46.3129 24.64 46.4629 24.4 46.4629 24.4ZM47.9029 23.29C47.8729 23.29 47.6329 23.47 47.4229 23.71C47.1829 23.98 46.9729 24.25 46.9729 24.31C46.9729 24.37 47.1529 24.22 47.4529 23.89C47.7229 23.59 47.9329 23.35 47.9029 23.32V23.29ZM48.3229 22.96C48.2929 22.96 48.2329 22.96 48.1429 23.02C48.1129 23.02 48.0829 23.08 48.0829 23.08L48.0529 23.11C48.0229 23.14 48.0229 23.2 48.0229 23.2C48.0529 23.23 48.1129 23.2 48.2029 23.11L48.3529 22.96H48.3229ZM66.6229 22.36H66.5929C66.5929 22.36 65.6629 25.12 64.0129 27.19C62.6329 29.5 60.4729 31.15 59.5729 31.9C60.2929 31.78 63.9529 28 64.4329 27.13C66.2329 24.58 66.7429 22.36 66.6229 22.36ZM50.0329 21.4H49.9729C49.9129 21.43 49.8529 21.49 49.7929 21.55C49.7329 21.61 49.6129 21.67 49.5829 21.73C49.4929 21.82 49.5829 21.76 49.7929 21.61C49.9429 21.49 50.0329 21.4 50.0329 21.4ZM50.7529 20.83C50.7229 20.83 50.6929 20.83 50.6629 20.86L50.5429 20.98C50.4829 21.07 50.5129 21.07 50.6329 20.98C50.7229 20.92 50.7529 20.83 50.7529 20.83ZM48.4429 23.29C48.3829 23.35 48.3229 23.38 48.4129 23.35L48.4429 23.29ZM52.7629 20.11H52.7929V20.17C51.9229 20.74 48.9229 22.87 48.4429 23.29C48.6229 22.66 52.3429 20.11 52.7629 20.11ZM54.2929 19.36H54.3229L54.1429 19.48C54.0229 19.54 53.9629 19.54 54.0529 19.48C54.0829 19.45 54.1729 19.42 54.2029 19.39C54.2329 19.36 54.2629 19.36 54.2929 19.36ZM55.1629 19.27L55.1029 19.3C55.1329 19.3 55.1629 19.27 55.1629 19.27ZM57.0829 17.41L57.1429 17.44H57.1729C57.2029 17.47 57.2029 17.53 57.0829 17.59C57.0229 17.62 56.9329 17.59 56.9329 17.56C56.9329 17.53 56.7229 17.62 56.4229 17.8C56.1529 17.98 55.7029 18.22 55.4329 18.31C54.9529 18.49 54.9229 18.52 55.2829 18.31C55.4029 18.25 55.5229 18.16 55.6729 18.07C56.1229 17.83 56.6029 17.56 56.8729 17.47C56.9629 17.44 57.0229 17.41 57.0829 17.41ZM62.0329 8.56C60.6529 9.25 61.3129 9.01 60.5329 9.7C59.9929 10.18 58.6429 12.58 59.1229 12.04C58.7629 11.74 60.3829 9.1 62.0329 8.56ZM64.4329 7.3C61.5829 7.69 58.7629 10.15 58.6729 12.04C59.3029 10.15 60.8929 8.08 64.4329 7.3ZM57.8929 11.62C58.8529 9.25 61.7629 6.91 64.7929 7C67.7029 7.09 68.8729 9.64 69.0529 12.58C69.2329 15.52 67.6129 23.68 64.8229 27.31C64.7629 27.37 64.7029 27.46 64.6429 27.52C64.5829 27.58 64.5529 27.7 64.4929 27.76C64.4629 27.82 64.3729 27.91 64.3429 27.97C64.3129 28.03 64.2229 28.09 64.1929 28.15C64.1629 28.18 64.1329 28.27 64.1029 28.3C64.0429 28.39 63.9529 28.48 63.8929 28.57C63.7729 28.69 63.7729 28.69 63.7429 28.75C63.6829 28.84 63.6229 28.93 63.5929 29.02H63.5629C63.5629 29.05 63.5329 29.05 63.5329 29.08L63.5629 29.05C63.5029 29.14 63.4429 29.32 63.3229 29.5C63.3229 29.44 63.3529 29.38 63.3829 29.32C63.2929 29.44 63.2629 29.56 63.1729 29.68C63.2029 29.59 63.2629 29.5 63.2929 29.41C63.4429 29.2 63.5029 29.11 63.5029 29.11C63.4729 29.17 63.3829 29.2 63.3529 29.26L63.2029 29.41C63.1429 29.47 63.1129 29.56 63.0529 29.62L62.8729 29.8C62.8129 29.86 62.7529 29.89 62.6929 29.95C62.6029 30.04 62.5429 30.13 62.4829 30.22C62.4529 30.25 62.3929 30.28 62.3929 30.28C62.3629 30.31 62.3029 30.4 62.2729 30.43V30.46C62.2129 30.52 62.0929 30.61 62.0329 30.67C61.9129 30.76 61.9129 30.76 61.8529 30.85C61.7929 30.91 61.7029 30.97 61.6429 31.03C61.6129 31.06 61.5529 31.09 61.5229 31.12L61.4929 31.15H61.4629C60.8929 31.78 61.1329 31.54 61.1329 31.54L61.1629 31.48H61.1929V31.45L61.2229 31.42L61.1629 31.48L61.1329 31.51C61.0729 31.57 60.9529 31.63 60.8929 31.69C60.7429 31.81 60.6529 31.9 60.5029 32.05H60.4729H60.5029H60.4729L60.4429 32.08C60.4129 32.11 60.3529 32.17 60.3829 32.17L60.3229 32.2L60.3829 32.17L60.2629 32.29C60.2629 32.29 60.2929 32.23 60.3229 32.2C60.1729 32.32 60.0829 32.44 59.9629 32.56C59.8429 32.65 59.6929 32.71 59.5729 32.8C59.4529 32.89 59.2729 32.98 59.1529 33.04C58.9129 33.16 58.6729 33.34 58.4629 33.49L58.3429 33.55C58.0129 33.7 58.0729 33.67 57.8629 33.82C57.7129 33.88 57.6229 33.94 57.4729 34C57.3529 34.06 57.1729 34.12 57.0529 34.18L56.6029 34.36C56.3629 34.45 56.2429 34.51 56.0629 34.6C55.9429 34.63 55.7929 34.69 55.6729 34.72C55.5529 34.75 55.4029 34.81 55.2829 34.84C55.2229 34.87 55.1629 34.87 55.1029 34.9C55.0729 34.9 55.0129 34.93 54.9829 34.93C54.9229 34.93 54.8329 34.99 54.7729 34.99C54.8329 34.93 54.5629 35.02 53.9629 35.17H53.9029C53.7529 35.2 53.6029 35.26 53.4529 35.26C53.0929 35.29 52.9429 35.32 52.7629 35.38H52.7929H52.7329H52.7629H52.5829H52.7329C52.6729 35.38 52.6129 35.41 52.5529 35.44C52.4629 35.44 52.3129 35.5 52.2229 35.5C52.4029 35.44 52.4929 35.38 52.5829 35.38C52.4329 35.38 52.3129 35.41 52.1629 35.41H51.6529H51.2029C50.8729 35.41 50.8429 35.41 50.6929 35.44C50.5729 35.44 50.4229 35.38 50.3029 35.38C50.0029 35.35 49.8529 35.35 49.5529 35.35C49.3729 35.32 49.1629 35.26 48.9229 35.2C48.5029 35.11 47.8729 34.9 47.2129 34.57C46.9429 34.45 46.7029 34.3 46.4629 34.15C45.5329 33.55 44.9629 32.83 44.6629 32.35C44.5729 32.2 44.4829 32.08 44.4829 32.05C44.4229 31.96 44.3629 31.84 44.3329 31.72C44.3929 31.81 44.4829 31.9 44.5429 31.99C44.6629 32.14 44.6029 32.02 44.4829 31.72C44.3629 31.45 44.0929 30.76 44.0329 29.83V29.29C44.0629 28.72 44.1829 28.09 44.1829 28.06C44.2129 27.88 44.1529 27.91 44.0929 27.94C44.0329 27.97 44.0329 27.91 44.0929 27.76C44.1529 27.64 44.2429 27.58 44.2429 27.64C44.2429 27.7 44.3329 27.52 44.4229 27.25C44.4529 27.16 44.4829 27.04 44.5129 26.98C44.5429 26.83 44.5729 26.77 44.5129 26.77C44.4529 26.77 44.4529 26.68 44.5429 26.47C44.5729 26.41 44.6029 26.35 44.6029 26.32C44.6629 26.23 44.6629 26.26 44.6329 26.41C44.6029 26.56 44.6029 26.62 44.6329 26.59C44.6629 26.56 44.8729 26.26 45.0529 25.96C45.2329 25.66 45.3829 25.33 45.4129 25.24C45.4429 25.15 45.6229 24.91 45.8329 24.7C46.1029 24.43 46.1929 24.34 46.1929 24.25C46.1929 24.19 46.2229 24.1 46.2529 24.04C46.2829 23.98 46.3429 24.01 46.3429 24.07C46.3429 24.1 46.4029 24.1 46.4629 24.04C46.5829 23.95 46.7629 23.77 47.0929 23.41C47.5129 22.99 47.9029 22.63 47.9329 22.63C47.9629 22.63 48.0529 22.48 48.1129 22.36C48.2029 22.21 48.2929 22.18 48.3229 22.24C48.3529 22.3 48.2929 22.42 48.1729 22.54C47.9329 22.75 47.5729 23.11 47.2429 23.47C46.9429 23.8 46.7029 24.1 46.7329 24.1C46.7629 24.1 47.3029 23.53 47.9629 22.9C48.6529 22.27 49.3729 21.7 49.6129 21.55C49.7029 21.49 49.8529 21.37 50.0029 21.28C50.1829 21.16 50.3929 21.01 50.5129 20.89C50.8129 20.65 50.9329 20.59 50.9329 20.65C50.9329 20.71 51.2629 20.47 51.8629 20.05C52.4929 19.6 52.9129 19.36 53.0329 19.36C53.1829 19.36 53.1529 19.42 52.9429 19.51C52.7929 19.57 52.6429 19.69 52.6429 19.75C52.6429 19.81 52.5529 19.87 52.4929 19.87C52.4329 19.87 52.4029 19.96 52.4029 19.99C52.4029 20.02 52.6729 19.9 53.0329 19.66C53.4229 19.42 53.5729 19.27 53.4529 19.3C53.1529 19.36 53.4229 19.09 54.1129 18.7C54.7429 18.34 55.0429 18.28 54.8329 18.52C54.7729 18.61 54.7429 18.61 54.7729 18.52C54.8029 18.43 54.6529 18.49 54.2329 18.73C53.7829 19 53.6629 19.15 53.6929 19.21C53.7529 19.36 52.4929 20.17 52.3429 20.05C52.2529 19.99 52.0429 20.08 50.7829 21.01C50.5429 21.19 50.3029 21.34 50.1229 21.49C49.1929 22.21 48.8029 22.54 48.6529 22.57C48.6229 22.57 48.5029 22.72 48.4429 22.84C48.3829 22.99 47.9629 23.32 46.9429 24.58C46.7629 24.79 46.5829 25.03 46.4029 25.3C45.8029 26.11 45.4429 26.8 45.2629 27.34C45.1429 27.7 45.1129 27.88 45.1129 27.88C45.1429 27.85 45.2029 27.64 45.3229 27.37C45.3829 27.19 45.5029 27.04 45.5929 26.83C45.8329 26.32 46.0729 26.02 46.0729 26.05C46.0729 26.08 46.0129 26.23 45.9529 26.35C45.8929 26.47 45.8329 26.62 45.8629 26.65C45.8929 26.68 46.3429 25.96 46.5829 25.48C46.6129 25.39 46.7029 25.33 46.7329 25.36C46.7629 25.39 46.7029 25.57 46.5229 25.84C46.3729 26.08 46.2229 26.29 46.2229 26.35C46.2229 26.41 46.4029 26.2 46.6129 25.87C46.8229 25.54 47.0029 25.24 46.9729 25.21C46.9429 25.18 47.0629 25.03 47.2129 24.85V24.82C47.3629 24.64 47.4529 24.52 47.3629 24.55C47.2729 24.61 47.2729 24.52 47.3929 24.31C47.4829 24.13 47.6029 24.01 47.6029 24.04C47.6029 24.07 47.6029 24.16 47.5729 24.22C47.5429 24.28 47.5729 24.31 47.6329 24.31C47.7229 24.31 47.9629 24.1 48.3529 23.71C48.9829 23.08 53.6629 19.78 53.8129 19.63C53.8129 19.66 54.8329 19.39 55.1029 19.3C51.0529 20.95 43.8829 27.19 45.2329 30.94C45.6229 32.71 48.5329 34.03 52.0429 33.58C55.1629 33.25 58.8229 31.42 61.2229 29.11C62.0329 28.33 62.6329 27.52 62.9029 27.1C63.1729 26.68 63.3529 26.44 63.7429 25.81C63.8629 25.66 63.9829 25.51 64.0729 25.33C64.1329 25.24 64.2229 25.09 64.2829 25C64.4029 24.76 64.5529 24.55 64.6729 24.31C64.8829 23.92 65.1229 23.53 65.3029 23.11C65.3329 23.05 65.3329 23.02 65.3629 22.96C65.5429 22.54 65.7529 22.12 65.9329 21.67C66.2029 20.98 66.4429 20.29 66.6529 19.57C66.8929 18.76 67.0729 17.95 67.2529 17.11C67.7929 14.41 68.5729 9.1 66.0229 8.47C63.5629 7.84 60.2329 10.57 59.5429 12.67C59.3029 13.39 59.3629 14.74 58.1629 13.78C57.6529 13.39 57.5029 12.55 57.8929 11.62ZM75.7241 23.62C75.3341 23.98 76.5641 23.53 78.0041 22.69C78.0641 22.66 78.6641 22.33 78.4841 22.51C78.1541 22.87 77.2541 23.53 77.3141 23.5C77.4641 23.44 78.7541 22.63 78.7841 22.69C78.8141 22.75 77.8841 23.5 76.7741 24.13C76.4741 24.31 75.6941 24.7 74.2841 25.06C73.8341 25.87 73.1141 27.1 71.9441 27.94C71.2241 28.39 70.4141 28.36 69.5141 27.37C67.6541 25.36 71.3741 21.31 71.4341 21.28C71.9441 20.92 72.2441 21.52 72.9941 21.28C73.2341 21.16 74.0141 21.37 74.5541 22.09C74.8841 22.54 74.7041 23.86 74.6741 23.92C75.3041 23.74 75.6941 23.47 76.6841 23.08C76.9841 22.96 77.6441 22.66 77.7641 22.57C78.1241 22.72 75.5441 23.74 75.7241 23.62ZM77.7041 22.99C77.1641 23.32 76.2941 23.74 75.9041 23.89C75.8141 24.01 77.4341 23.35 77.7041 22.99ZM73.2641 22.36H73.2341H73.2041C72.5141 22.45 72.2741 24.16 72.8741 24.28C73.3541 24.22 73.6241 22.36 73.2641 22.36ZM71.5241 23.92C71.5241 23.92 69.5441 27.13 70.6541 27.22C71.6441 27.28 72.8141 24.97 72.8441 24.94C72.0641 24.79 71.7341 24.22 71.5241 23.92ZM81.6306 17.35C81.7206 17.35 81.8406 17.38 81.9006 17.41C82.2306 17.56 83.1006 18.67 80.7906 19.57C79.7706 19.96 80.4906 18.85 80.4606 18.43C80.4306 17.8 81.1206 17.35 81.6306 17.35ZM79.7106 21.01H79.8006C80.3406 21.04 80.9406 21.7 80.4306 22.27C80.1906 22.78 77.5206 26.59 79.1406 26.35C81.1506 25.36 83.6406 23.74 85.4706 22.3C83.7606 23.98 82.7406 24.4 82.6206 24.55C82.5306 24.97 86.0106 22.15 86.2806 21.76C87.0606 21.16 86.6706 21.55 86.7006 21.58C86.7306 21.7 83.6106 24.22 86.6406 21.88C86.5806 21.94 84.7506 23.53 84.6006 23.68C84.8406 23.5 85.9806 22.72 86.4306 22.36C85.4106 23.5 81.6606 26.83 79.5006 27.19C78.3006 27.37 77.5506 26.71 77.3706 25.99C77.1306 24.94 77.5206 23.77 77.9706 22.75C78.0006 22.63 78.0606 22.57 78.0606 22.54C78.0606 22.48 78.1206 22.45 78.1206 22.45C78.1206 22.45 78.1806 22.36 78.2406 22.21C78.3006 22.06 78.3906 21.91 78.3906 21.91C78.9306 21.19 79.1106 21.19 79.5006 21.04C79.5606 21.01 79.6506 21.01 79.7106 21.01ZM86.4306 22.36L86.4606 22.33C86.7306 22.12 86.6406 22.18 86.4306 22.36ZM78.7806 22.12C78.3006 22.75 77.4306 24.88 77.6706 25.51C77.6706 24.37 79.3506 21.13 78.7806 22.12ZM84.3306 23.98C84.1806 24.07 82.0506 25.69 81.9606 25.75C81.8706 25.81 82.2906 25.63 83.5206 24.67L84.3306 23.98ZM86.137 21.4C86.617 21.4 86.887 22.24 86.257 23.41C85.837 24.34 86.617 24.04 87.697 22.9C89.797 20.65 90.337 21.94 90.487 22.33C90.907 23.47 90.127 24.34 90.247 25.51C90.427 26.35 93.517 23.32 94.057 22.93C91.837 25.24 94.297 22.99 94.387 22.93C94.477 22.93 95.197 22.24 95.437 22C94.807 22.84 95.287 22.24 94.477 23.23C94.447 23.26 94.027 23.71 94.057 23.71C94.597 23.32 94.627 23.26 95.227 22.66C95.377 22.54 95.767 22 95.797 22C96.097 21.97 92.737 25.96 91.297 26.59C90.487 26.92 89.467 26.59 89.197 25.69C89.017 25.06 89.227 24.16 88.687 23.59C88.477 23.38 86.977 25.24 85.987 26.44C85.297 27.28 84.817 26.86 84.307 26.23C83.797 25.6 84.487 24.04 84.877 22.99C85.297 21.88 85.777 21.4 86.137 21.4ZM93.097 24.4C92.407 25.15 92.947 24.55 92.317 25.24C92.317 25.33 93.577 24.13 93.607 24.07C94.297 23.32 93.157 24.37 93.097 24.4ZM88.657 22.99C88.147 23.05 86.647 24.94 86.647 25.03C86.647 25.03 87.277 24.34 87.997 23.56C88.717 22.78 89.077 23.11 89.077 23.11C89.077 23.11 89.167 22.99 88.657 22.99ZM94.267 23.74C93.997 23.95 92.227 25.66 92.407 25.57C92.587 25.51 94.267 23.83 94.267 23.74Z" fill="#228B22"/>
</svg>
