<svg width="30" height="30" viewBox="0 0 30 30" fill="none" xmlns="http://www.w3.org/2000/svg">
<circle cx="15.1007" cy="14.8931" r="14.6974" fill="#FFFBF0"/>
<path d="M10.4292 18.5265V11.623C10.4292 11.5164 10.462 11.4124 10.5231 11.3251C10.5842 11.2378 10.6707 11.1715 10.7708 11.135L15.7906 9.31001C15.8299 9.29574 15.8719 9.29113 15.9133 9.29658C15.9547 9.30203 15.9941 9.31738 16.0283 9.34132C16.0625 9.36526 16.0904 9.39709 16.1096 9.4341C16.1289 9.47112 16.1389 9.51224 16.1389 9.55397V12.1249L19.4173 13.2175C19.5207 13.252 19.6107 13.3181 19.6744 13.4065C19.7381 13.4949 19.7724 13.6011 19.7724 13.7101V18.5265H20.8105V19.5646H9.39111V18.5265H10.4292ZM11.4674 18.5265H15.1008V10.6658L11.4674 11.9863V18.5265ZM18.7343 18.5265V14.0844L16.1389 13.2191V18.5265H18.7343Z" fill="#FFBD00"/>
</svg>
