<svg width="122" height="40" viewBox="0 0 122 40" fill="none" xmlns="http://www.w3.org/2000/svg">
<path d="M2.82259 26.4166V9.77935L3.8818 9.46934V26.3391C3.8818 27.3466 4.60515 28.0441 5.61269 28.0441H6.62022V29.0258H5.53519C3.93346 29.0258 2.82259 27.9666 2.82259 26.4166ZM17.6603 15.9279C21.2771 15.9279 24.1705 18.4855 24.1705 22.1023C24.1705 22.3348 24.1705 22.5156 24.1705 22.774H12.2868C12.4935 25.9774 15.1286 28.1991 18.8228 28.1991C20.4762 28.1991 21.9746 27.76 23.0855 27.0366L23.473 27.8633C22.2071 28.69 20.5796 29.155 18.797 29.155C14.4052 29.155 11.2534 26.2874 11.2534 22.3089C11.2534 18.6405 13.9402 15.9279 17.6603 15.9279ZM12.2868 21.8698H23.1888C22.9563 18.9247 20.7087 16.8838 17.6861 16.8838C14.6894 16.8838 12.5193 18.9505 12.2868 21.8698ZM34.75 15.9279C38.2376 15.9279 40.3819 17.6588 40.3819 20.4489V22.5415C40.3819 25.0474 40.5369 26.4682 40.8986 29H39.8652C39.736 28.0441 39.6327 27.2691 39.5552 26.4941C38.7027 28.225 36.8943 29.155 34.3109 29.155C31.2366 29.155 29.5315 27.8375 29.5315 25.4607C29.5315 23.1873 31.0816 22.0506 34.7242 21.6631L39.3485 21.1981V20.5005C39.3485 18.253 37.566 16.8838 34.6984 16.8838C33.0966 16.8838 31.7533 17.3229 30.7457 18.0463L30.3324 17.1938C31.5208 16.3929 32.9933 15.9279 34.75 15.9279ZM39.3485 22.1023L34.7242 22.5673C31.8308 22.8515 30.5649 23.7298 30.5649 25.409C30.5649 27.1916 31.9858 28.1991 34.4917 28.1991C37.6176 28.1991 39.3744 26.6491 39.3744 23.8073L39.3485 22.1023ZM61.1756 22.5415C61.1756 26.2357 58.308 29.155 54.6654 29.155C52.1595 29.155 50.0411 27.7858 48.9302 25.7449V34.9419H47.871V22.5415C47.871 20.0355 47.7418 18.6147 47.3543 16.0829H48.4135C48.6202 17.4521 48.7493 18.4855 48.8268 19.5447C49.886 17.4004 52.082 15.9279 54.6654 15.9279C58.308 15.9279 61.1756 18.8472 61.1756 22.5415ZM60.1164 22.5415C60.1164 19.3897 57.688 16.9613 54.5362 16.9613C51.4103 16.9613 48.9819 19.3897 48.9819 22.5415C48.9819 25.6932 51.4103 28.1216 54.5362 28.1216C57.688 28.1216 60.1164 25.6932 60.1164 22.5415ZM71.2237 29.155C69.0278 29.155 67.3486 28.5092 66.0568 27.4499L66.4444 26.6233C67.6327 27.5791 69.2086 28.1991 71.2495 28.1991C73.7554 28.1991 75.3313 27.2691 75.3313 25.8482C75.3313 24.6857 74.2721 23.9365 71.1979 22.9806C67.5294 21.8698 66.1602 20.8106 66.1602 19.1055C66.1602 17.1679 67.9169 15.9279 70.6812 15.9279C72.6446 15.9279 74.2463 16.5737 75.5122 17.633L75.1247 18.4596C73.9879 17.5038 72.5154 16.8838 70.6812 16.8838C68.5628 16.8838 67.1677 17.7363 67.1677 19.0538C67.1677 20.2164 68.2528 20.9656 71.3012 21.9731C75.0213 23.1615 76.3389 24.169 76.3389 25.8482C76.3389 27.8891 74.3496 29.155 71.2237 29.155ZM86.8342 15.9279C90.3218 15.9279 92.4661 17.6588 92.4661 20.4489V22.5415C92.4661 25.0474 92.6211 26.4682 92.9827 29H91.9494C91.8202 28.0441 91.7169 27.2691 91.6394 26.4941C90.7868 28.225 88.9784 29.155 86.395 29.155C83.3208 29.155 81.6157 27.8375 81.6157 25.4607C81.6157 23.1873 83.1657 22.0506 86.8084 21.6631L91.4327 21.1981V20.5005C91.4327 18.253 89.6501 16.8838 86.7825 16.8838C85.1808 16.8838 83.8374 17.3229 82.8299 18.0463L82.4166 17.1938C83.6049 16.3929 85.0775 15.9279 86.8342 15.9279ZM91.4327 22.1023L86.8084 22.5673C83.9149 22.8515 82.6491 23.7298 82.6491 25.409C82.6491 27.1916 84.0699 28.1991 86.5759 28.1991C89.7018 28.1991 91.4585 26.6491 91.4585 23.8073L91.4327 22.1023ZM99.4102 11.6136C99.4102 11.0194 99.8752 10.5802 100.469 10.5802C101.064 10.5802 101.503 11.0194 101.503 11.6136C101.503 12.2078 101.064 12.6728 100.469 12.6728C99.8752 12.6728 99.4102 12.2078 99.4102 11.6136ZM99.9269 29V16.0829H100.986V29H99.9269ZM108.483 26.4166V9.77935L109.543 9.46934V26.3391C109.543 27.3466 110.266 28.0441 111.274 28.0441H112.281V29.0258H111.196C109.594 29.0258 108.483 27.9666 108.483 26.4166ZM117.812 28.1475C117.812 27.5791 118.252 27.1399 118.82 27.1399C119.388 27.1399 119.828 27.5791 119.828 28.1475C119.828 28.7158 119.388 29.155 118.82 29.155C118.252 29.155 117.812 28.7158 117.812 28.1475Z" fill="#D1D5DB"/>
<path d="M2.82259 9.77936L2.37168 8.23872L1.21733 8.57658V9.77936H2.82259ZM3.8818 9.46934H5.48706V7.3269L3.43088 7.92871L3.8818 9.46934ZM6.62022 28.0441H8.22548V26.4389H6.62022V28.0441ZM6.62022 29.0258V30.6311H8.22548V29.0258H6.62022ZM4.42786 26.4166V9.77936H1.21733V26.4166H4.42786ZM3.27351 11.32L4.33271 11.01L3.43088 7.92871L2.37168 8.23872L3.27351 11.32ZM2.27653 9.46934V26.3391H5.48706V9.46934H2.27653ZM2.27653 26.3391C2.27653 27.2403 2.60759 28.0911 3.24646 28.7165C3.88214 29.3388 4.73134 29.6494 5.61269 29.6494V26.4389C5.54666 26.4389 5.51028 26.4277 5.49692 26.4225C5.48407 26.4175 5.48554 26.4156 5.49237 26.4223C5.49944 26.4292 5.50102 26.4344 5.49921 26.4299C5.49722 26.4249 5.48706 26.3976 5.48706 26.3391H2.27653ZM5.61269 29.6494H6.62022V26.4389H5.61269V29.6494ZM5.01496 28.0441V29.0258H8.22548V28.0441H5.01496ZM6.62022 27.4206H5.53519V30.6311H6.62022V27.4206ZM5.53519 27.4206C5.09257 27.4206 4.83053 27.2793 4.68961 27.1441C4.55422 27.0142 4.42786 26.7933 4.42786 26.4166H1.21733C1.21733 27.59 1.6464 28.6736 2.46687 29.4608C3.28183 30.2427 4.37608 30.6311 5.53519 30.6311V27.4206ZM24.1705 22.774V24.3792H25.7758V22.774H24.1705ZM12.2868 22.774V21.1687H10.5746L10.6849 22.8773L12.2868 22.774ZM23.0855 27.0366L24.539 26.3553L23.7558 24.6845L22.2095 25.6914L23.0855 27.0366ZM23.473 27.8633L24.3507 29.2073L25.5184 28.4448L24.9265 27.182L23.473 27.8633ZM12.2868 21.8698L10.6866 21.7423L10.5486 23.475H12.2868V21.8698ZM23.1888 21.8698V23.475H24.9258L24.7891 21.7434L23.1888 21.8698ZM17.6603 17.5332C20.5046 17.5332 22.5653 19.482 22.5653 22.1023H25.7758C25.7758 17.489 22.0496 14.3226 17.6603 14.3226V17.5332ZM22.5653 22.1023C22.5653 22.1027 22.5653 22.1032 22.5653 22.1036C22.5653 22.1041 22.5653 22.1045 22.5653 22.105C22.5653 22.1054 22.5653 22.1059 22.5653 22.1063C22.5653 22.1068 22.5653 22.1073 22.5653 22.1077C22.5653 22.1082 22.5653 22.1086 22.5653 22.1091C22.5653 22.1095 22.5653 22.11 22.5653 22.1104C22.5653 22.1109 22.5653 22.1113 22.5653 22.1118C22.5653 22.1122 22.5653 22.1127 22.5653 22.1131C22.5653 22.1136 22.5653 22.114 22.5653 22.1145C22.5653 22.1149 22.5653 22.1154 22.5653 22.1158C22.5653 22.1163 22.5653 22.1167 22.5653 22.1172C22.5653 22.1176 22.5653 22.1181 22.5653 22.1185C22.5653 22.119 22.5653 22.1194 22.5653 22.1199C22.5653 22.1203 22.5653 22.1208 22.5653 22.1212C22.5653 22.1217 22.5653 22.1221 22.5653 22.1226C22.5653 22.123 22.5653 22.1235 22.5653 22.1239C22.5653 22.1244 22.5653 22.1248 22.5653 22.1253C22.5653 22.1257 22.5653 22.1262 22.5653 22.1266C22.5653 22.1271 22.5653 22.1275 22.5653 22.1279C22.5653 22.1284 22.5653 22.1288 22.5653 22.1293C22.5653 22.1297 22.5653 22.1302 22.5653 22.1306C22.5653 22.1311 22.5653 22.1315 22.5653 22.132C22.5653 22.1324 22.5653 22.1329 22.5653 22.1333C22.5653 22.1337 22.5653 22.1342 22.5653 22.1346C22.5653 22.1351 22.5653 22.1355 22.5653 22.136C22.5653 22.1364 22.5653 22.1369 22.5653 22.1373C22.5653 22.1378 22.5653 22.1382 22.5653 22.1386C22.5653 22.1391 22.5653 22.1395 22.5653 22.14C22.5653 22.1404 22.5653 22.1409 22.5653 22.1413C22.5653 22.1417 22.5653 22.1422 22.5653 22.1426C22.5653 22.1431 22.5653 22.1435 22.5653 22.144C22.5653 22.1444 22.5653 22.1448 22.5653 22.1453C22.5653 22.1457 22.5653 22.1462 22.5653 22.1466C22.5653 22.1471 22.5653 22.1475 22.5653 22.1479C22.5653 22.1484 22.5653 22.1488 22.5653 22.1493C22.5653 22.1497 22.5653 22.1502 22.5653 22.1506C22.5653 22.151 22.5653 22.1515 22.5653 22.1519C22.5653 22.1524 22.5653 22.1528 22.5653 22.1532C22.5653 22.1537 22.5653 22.1541 22.5653 22.1546C22.5653 22.155 22.5653 22.1554 22.5653 22.1559C22.5653 22.1563 22.5653 22.1568 22.5653 22.1572C22.5653 22.1576 22.5653 22.1581 22.5653 22.1585C22.5653 22.159 22.5653 22.1594 22.5653 22.1598C22.5653 22.1603 22.5653 22.1607 22.5653 22.1611C22.5653 22.1616 22.5653 22.162 22.5653 22.1625C22.5653 22.1629 22.5653 22.1633 22.5653 22.1638C22.5653 22.1642 22.5653 22.1647 22.5653 22.1651C22.5653 22.1655 22.5653 22.166 22.5653 22.1664C22.5653 22.1668 22.5653 22.1673 22.5653 22.1677C22.5653 22.1682 22.5653 22.1686 22.5653 22.169C22.5653 22.1695 22.5653 22.1699 22.5653 22.1703C22.5653 22.1708 22.5653 22.1712 22.5653 22.1716C22.5653 22.1721 22.5653 22.1725 22.5653 22.173C22.5653 22.1734 22.5653 22.1738 22.5653 22.1743C22.5653 22.1747 22.5653 22.1751 22.5653 22.1756C22.5653 22.176 22.5653 22.1764 22.5653 22.1769C22.5653 22.1773 22.5653 22.1777 22.5653 22.1782C22.5653 22.1786 22.5653 22.179 22.5653 22.1795C22.5653 22.1799 22.5653 22.1804 22.5653 22.1808C22.5653 22.1812 22.5653 22.1817 22.5653 22.1821C22.5653 22.1825 22.5653 22.183 22.5653 22.1834C22.5653 22.1838 22.5653 22.1843 22.5653 22.1847C22.5653 22.1851 22.5653 22.1856 22.5653 22.186C22.5653 22.1864 22.5653 22.1869 22.5653 22.1873C22.5653 22.1877 22.5653 22.1882 22.5653 22.1886C22.5653 22.189 22.5653 22.1895 22.5653 22.1899C22.5653 22.1903 22.5653 22.1907 22.5653 22.1912C22.5653 22.1916 22.5653 22.192 22.5653 22.1925C22.5653 22.1929 22.5653 22.1933 22.5653 22.1938C22.5653 22.1942 22.5653 22.1946 22.5653 22.1951C22.5653 22.1955 22.5653 22.1959 22.5653 22.1964C22.5653 22.1968 22.5653 22.1972 22.5653 22.1977C22.5653 22.1981 22.5653 22.1985 22.5653 22.1989C22.5653 22.1994 22.5653 22.1998 22.5653 22.2002C22.5653 22.2007 22.5653 22.2011 22.5653 22.2015C22.5653 22.202 22.5653 22.2024 22.5653 22.2028C22.5653 22.2032 22.5653 22.2037 22.5653 22.2041C22.5653 22.2045 22.5653 22.205 22.5653 22.2054C22.5653 22.2058 22.5653 22.2062 22.5653 22.2067C22.5653 22.2071 22.5653 22.2075 22.5653 22.208C22.5653 22.2084 22.5653 22.2088 22.5653 22.2093C22.5653 22.2097 22.5653 22.2101 22.5653 22.2105C22.5653 22.211 22.5653 22.2114 22.5653 22.2118C22.5653 22.2122 22.5653 22.2127 22.5653 22.2131C22.5653 22.2135 22.5653 22.214 22.5653 22.2144C22.5653 22.2148 22.5653 22.2152 22.5653 22.2157C22.5653 22.2161 22.5653 22.2165 22.5653 22.217C22.5653 22.2174 22.5653 22.2178 22.5653 22.2182C22.5653 22.2187 22.5653 22.2191 22.5653 22.2195C22.5653 22.2199 22.5653 22.2204 22.5653 22.2208C22.5653 22.2212 22.5653 22.2216 22.5653 22.2221C22.5653 22.2225 22.5653 22.2229 22.5653 22.2233C22.5653 22.2238 22.5653 22.2242 22.5653 22.2246C22.5653 22.2251 22.5653 22.2255 22.5653 22.2259C22.5653 22.2263 22.5653 22.2268 22.5653 22.2272C22.5653 22.2276 22.5653 22.228 22.5653 22.2285C22.5653 22.2289 22.5653 22.2293 22.5653 22.2297C22.5653 22.2302 22.5653 22.2306 22.5653 22.231C22.5653 22.2314 22.5653 22.2319 22.5653 22.2323C22.5653 22.2327 22.5653 22.2331 22.5653 22.2336C22.5653 22.234 22.5653 22.2344 22.5653 22.2348C22.5653 22.2352 22.5653 22.2357 22.5653 22.2361C22.5653 22.2365 22.5653 22.2369 22.5653 22.2374C22.5653 22.2378 22.5653 22.2382 22.5653 22.2386C22.5653 22.2391 22.5653 22.2395 22.5653 22.2399C22.5653 22.2403 22.5653 22.2408 22.5653 22.2412C22.5653 22.2416 22.5653 22.242 22.5653 22.2424C22.5653 22.2429 22.5653 22.2433 22.5653 22.2437C22.5653 22.2441 22.5653 22.2446 22.5653 22.245C22.5653 22.2454 22.5653 22.2458 22.5653 22.2463C22.5653 22.2467 22.5653 22.2471 22.5653 22.2475C22.5653 22.2479 22.5653 22.2484 22.5653 22.2488C22.5653 22.2492 22.5653 22.2496 22.5653 22.2501C22.5653 22.2505 22.5653 22.2509 22.5653 22.2513C22.5653 22.2517 22.5653 22.2522 22.5653 22.2526C22.5653 22.253 22.5653 22.2534 22.5653 22.2538C22.5653 22.2543 22.5653 22.2547 22.5653 22.2551C22.5653 22.2555 22.5653 22.256 22.5653 22.2564C22.5653 22.2568 22.5653 22.2572 22.5653 22.2576C22.5653 22.2581 22.5653 22.2585 22.5653 22.2589C22.5653 22.2593 22.5653 22.2597 22.5653 22.2602C22.5653 22.2606 22.5653 22.261 22.5653 22.2614C22.5653 22.2618 22.5653 22.2623 22.5653 22.2627C22.5653 22.2631 22.5653 22.2635 22.5653 22.2639C22.5653 22.2644 22.5653 22.2648 22.5653 22.2652C22.5653 22.2656 22.5653 22.266 22.5653 22.2665C22.5653 22.2669 22.5653 22.2673 22.5653 22.2677C22.5653 22.2681 22.5653 22.2686 22.5653 22.269C22.5653 22.2694 22.5653 22.2698 22.5653 22.2702C22.5653 22.2707 22.5653 22.2711 22.5653 22.2715C22.5653 22.2719 22.5653 22.2723 22.5653 22.2728C22.5653 22.2732 22.5653 22.2736 22.5653 22.274C22.5653 22.2744 22.5653 22.2748 22.5653 22.2753C22.5653 22.2757 22.5653 22.2761 22.5653 22.2765C22.5653 22.2769 22.5653 22.2774 22.5653 22.2778C22.5653 22.2782 22.5653 22.2786 22.5653 22.279C22.5653 22.2794 22.5653 22.2799 22.5653 22.2803C22.5653 22.2807 22.5653 22.2811 22.5653 22.2815C22.5653 22.282 22.5653 22.2824 22.5653 22.2828C22.5653 22.2832 22.5653 22.2836 22.5653 22.284C22.5653 22.2845 22.5653 22.2849 22.5653 22.2853C22.5653 22.2857 22.5653 22.2861 22.5653 22.2866C22.5653 22.287 22.5653 22.2874 22.5653 22.2878C22.5653 22.2882 22.5653 22.2886 22.5653 22.2891C22.5653 22.2895 22.5653 22.2899 22.5653 22.2903C22.5653 22.2907 22.5653 22.2911 22.5653 22.2916C22.5653 22.292 22.5653 22.2924 22.5653 22.2928C22.5653 22.2932 22.5653 22.2936 22.5653 22.2941C22.5653 22.2945 22.5653 22.2949 22.5653 22.2953C22.5653 22.2957 22.5653 22.2961 22.5653 22.2966C22.5653 22.297 22.5653 22.2974 22.5653 22.2978C22.5653 22.2982 22.5653 22.2986 22.5653 22.2991C22.5653 22.2995 22.5653 22.2999 22.5653 22.3003C22.5653 22.3007 22.5653 22.3011 22.5653 22.3016C22.5653 22.302 22.5653 22.3024 22.5653 22.3028C22.5653 22.3032 22.5653 22.3036 22.5653 22.3041C22.5653 22.3045 22.5653 22.3049 22.5653 22.3053C22.5653 22.3057 22.5653 22.3061 22.5653 22.3066C22.5653 22.307 22.5653 22.3074 22.5653 22.3078C22.5653 22.3082 22.5653 22.3086 22.5653 22.309C22.5653 22.3095 22.5653 22.3099 22.5653 22.3103C22.5653 22.3107 22.5653 22.3111 22.5653 22.3115C22.5653 22.312 22.5653 22.3124 22.5653 22.3128C22.5653 22.3132 22.5653 22.3136 22.5653 22.314C22.5653 22.3145 22.5653 22.3149 22.5653 22.3153C22.5653 22.3157 22.5653 22.3161 22.5653 22.3165C22.5653 22.3169 22.5653 22.3174 22.5653 22.3178C22.5653 22.3182 22.5653 22.3186 22.5653 22.319C22.5653 22.3194 22.5653 22.3198 22.5653 22.3203C22.5653 22.3207 22.5653 22.3211 22.5653 22.3215C22.5653 22.3219 22.5653 22.3223 22.5653 22.3228C22.5653 22.3232 22.5653 22.3236 22.5653 22.324C22.5653 22.3244 22.5653 22.3248 22.5653 22.3252C22.5653 22.3257 22.5653 22.3261 22.5653 22.3265C22.5653 22.3269 22.5653 22.3273 22.5653 22.3277C22.5653 22.3281 22.5653 22.3286 22.5653 22.329C22.5653 22.3294 22.5653 22.3298 22.5653 22.3302C22.5653 22.3306 22.5653 22.331 22.5653 22.3315C22.5653 22.3319 22.5653 22.3323 22.5653 22.3327C22.5653 22.3331 22.5653 22.3335 22.5653 22.3339C22.5653 22.3344 22.5653 22.3348 22.5653 22.3352C22.5653 22.3356 22.5653 22.336 22.5653 22.3364C22.5653 22.3368 22.5653 22.3373 22.5653 22.3377C22.5653 22.3381 22.5653 22.3385 22.5653 22.3389C22.5653 22.3393 22.5653 22.3397 22.5653 22.3402C22.5653 22.3406 22.5653 22.341 22.5653 22.3414C22.5653 22.3418 22.5653 22.3422 22.5653 22.3426C22.5653 22.3431 22.5653 22.3435 22.5653 22.3439C22.5653 22.3443 22.5653 22.3447 22.5653 22.3451C22.5653 22.3455 22.5653 22.346 22.5653 22.3464C22.5653 22.3468 22.5653 22.3472 22.5653 22.3476C22.5653 22.348 22.5653 22.3484 22.5653 22.3489C22.5653 22.3493 22.5653 22.3497 22.5653 22.3501C22.5653 22.3505 22.5653 22.3509 22.5653 22.3513C22.5653 22.3518 22.5653 22.3522 22.5653 22.3526C22.5653 22.353 22.5653 22.3534 22.5653 22.3538C22.5653 22.3542 22.5653 22.3546 22.5653 22.3551C22.5653 22.3555 22.5653 22.3559 22.5653 22.3563C22.5653 22.3567 22.5653 22.3571 22.5653 22.3575C22.5653 22.358 22.5653 22.3584 22.5653 22.3588C22.5653 22.3592 22.5653 22.3596 22.5653 22.36C22.5653 22.3604 22.5653 22.3609 22.5653 22.3613C22.5653 22.3617 22.5653 22.3621 22.5653 22.3625C22.5653 22.3629 22.5653 22.3633 22.5653 22.3638C22.5653 22.3642 22.5653 22.3646 22.5653 22.365C22.5653 22.3654 22.5653 22.3658 22.5653 22.3662C22.5653 22.3666 22.5653 22.3671 22.5653 22.3675C22.5653 22.3679 22.5653 22.3683 22.5653 22.3687C22.5653 22.3691 22.5653 22.3695 22.5653 22.37C22.5653 22.3704 22.5653 22.3708 22.5653 22.3712C22.5653 22.3716 22.5653 22.372 22.5653 22.3724C22.5653 22.3729 22.5653 22.3733 22.5653 22.3737C22.5653 22.3741 22.5653 22.3745 22.5653 22.3749C22.5653 22.3753 22.5653 22.3757 22.5653 22.3762C22.5653 22.3766 22.5653 22.377 22.5653 22.3774C22.5653 22.3778 22.5653 22.3782 22.5653 22.3786C22.5653 22.3791 22.5653 22.3795 22.5653 22.3799C22.5653 22.3803 22.5653 22.3807 22.5653 22.3811C22.5653 22.3815 22.5653 22.382 22.5653 22.3824C22.5653 22.3828 22.5653 22.3832 22.5653 22.3836C22.5653 22.384 22.5653 22.3844 22.5653 22.3849C22.5653 22.3853 22.5653 22.3857 22.5653 22.3861C22.5653 22.3865 22.5653 22.3869 22.5653 22.3873C22.5653 22.3878 22.5653 22.3882 22.5653 22.3886C22.5653 22.389 22.5653 22.3894 22.5653 22.3898C22.5653 22.3902 22.5653 22.3907 22.5653 22.3911C22.5653 22.3915 22.5653 22.3919 22.5653 22.3923C22.5653 22.3927 22.5653 22.3931 22.5653 22.3936C22.5653 22.394 22.5653 22.3944 22.5653 22.3948C22.5653 22.3952 22.5653 22.3956 22.5653 22.396C22.5653 22.3965 22.5653 22.3969 22.5653 22.3973C22.5653 22.3977 22.5653 22.3981 22.5653 22.3985C22.5653 22.3989 22.5653 22.3994 22.5653 22.3998C22.5653 22.4002 22.5653 22.4006 22.5653 22.401C22.5653 22.4014 22.5653 22.4018 22.5653 22.4023C22.5653 22.4027 22.5653 22.4031 22.5653 22.4035C22.5653 22.4039 22.5653 22.4043 22.5653 22.4047C22.5653 22.4052 22.5653 22.4056 22.5653 22.406C22.5653 22.4064 22.5653 22.4068 22.5653 22.4072C22.5653 22.4076 22.5653 22.4081 22.5653 22.4085C22.5653 22.4089 22.5653 22.4093 22.5653 22.4097C22.5653 22.4101 22.5653 22.4106 22.5653 22.411C22.5653 22.4114 22.5653 22.4118 22.5653 22.4122C22.5653 22.4126 22.5653 22.413 22.5653 22.4135C22.5653 22.4139 22.5653 22.4143 22.5653 22.4147C22.5653 22.4151 22.5653 22.4155 22.5653 22.416C22.5653 22.4164 22.5653 22.4168 22.5653 22.4172C22.5653 22.4176 22.5653 22.418 22.5653 22.4184C22.5653 22.4189 22.5653 22.4193 22.5653 22.4197C22.5653 22.4201 22.5653 22.4205 22.5653 22.4209C22.5653 22.4214 22.5653 22.4218 22.5653 22.4222C22.5653 22.4226 22.5653 22.423 22.5653 22.4234C22.5653 22.4238 22.5653 22.4243 22.5653 22.4247C22.5653 22.4251 22.5653 22.4255 22.5653 22.4259C22.5653 22.4263 22.5653 22.4268 22.5653 22.4272C22.5653 22.4276 22.5653 22.428 22.5653 22.4284C22.5653 22.4288 22.5653 22.4293 22.5653 22.4297C22.5653 22.4301 22.5653 22.4305 22.5653 22.4309C22.5653 22.4313 22.5653 22.4318 22.5653 22.4322C22.5653 22.4326 22.5653 22.433 22.5653 22.4334C22.5653 22.4338 22.5653 22.4343 22.5653 22.4347C22.5653 22.4351 22.5653 22.4355 22.5653 22.4359C22.5653 22.4363 22.5653 22.4368 22.5653 22.4372C22.5653 22.4376 22.5653 22.438 22.5653 22.4384C22.5653 22.4388 22.5653 22.4393 22.5653 22.4397C22.5653 22.4401 22.5653 22.4405 22.5653 22.4409C22.5653 22.4413 22.5653 22.4418 22.5653 22.4422C22.5653 22.4426 22.5653 22.443 22.5653 22.4434C22.5653 22.4439 22.5653 22.4443 22.5653 22.4447C22.5653 22.4451 22.5653 22.4455 22.5653 22.4459C22.5653 22.4464 22.5653 22.4468 22.5653 22.4472C22.5653 22.4476 22.5653 22.448 22.5653 22.4484C22.5653 22.4489 22.5653 22.4493 22.5653 22.4497C22.5653 22.4501 22.5653 22.4505 22.5653 22.451C22.5653 22.4514 22.5653 22.4518 22.5653 22.4522C22.5653 22.4526 22.5653 22.453 22.5653 22.4535C22.5653 22.4539 22.5653 22.4543 22.5653 22.4547C22.5653 22.4551 22.5653 22.4556 22.5653 22.456C22.5653 22.4564 22.5653 22.4568 22.5653 22.4572C22.5653 22.4577 22.5653 22.4581 22.5653 22.4585C22.5653 22.4589 22.5653 22.4593 22.5653 22.4598C22.5653 22.4602 22.5653 22.4606 22.5653 22.461C22.5653 22.4614 22.5653 22.4619 22.5653 22.4623C22.5653 22.4627 22.5653 22.4631 22.5653 22.4635C22.5653 22.4639 22.5653 22.4644 22.5653 22.4648C22.5653 22.4652 22.5653 22.4656 22.5653 22.466C22.5653 22.4665 22.5653 22.4669 22.5653 22.4673C22.5653 22.4677 22.5653 22.4681 22.5653 22.4686C22.5653 22.469 22.5653 22.4694 22.5653 22.4698C22.5653 22.4703 22.5653 22.4707 22.5653 22.4711C22.5653 22.4715 22.5653 22.4719 22.5653 22.4724C22.5653 22.4728 22.5653 22.4732 22.5653 22.4736C22.5653 22.474 22.5653 22.4745 22.5653 22.4749C22.5653 22.4753 22.5653 22.4757 22.5653 22.4761C22.5653 22.4766 22.5653 22.477 22.5653 22.4774C22.5653 22.4778 22.5653 22.4783 22.5653 22.4787C22.5653 22.4791 22.5653 22.4795 22.5653 22.4799C22.5653 22.4804 22.5653 22.4808 22.5653 22.4812C22.5653 22.4816 22.5653 22.4821 22.5653 22.4825C22.5653 22.4829 22.5653 22.4833 22.5653 22.4837C22.5653 22.4842 22.5653 22.4846 22.5653 22.485C22.5653 22.4854 22.5653 22.4859 22.5653 22.4863C22.5653 22.4867 22.5653 22.4871 22.5653 22.4875C22.5653 22.488 22.5653 22.4884 22.5653 22.4888C22.5653 22.4892 22.5653 22.4897 22.5653 22.4901C22.5653 22.4905 22.5653 22.4909 22.5653 22.4914C22.5653 22.4918 22.5653 22.4922 22.5653 22.4926C22.5653 22.4931 22.5653 22.4935 22.5653 22.4939C22.5653 22.4943 22.5653 22.4947 22.5653 22.4952C22.5653 22.4956 22.5653 22.496 22.5653 22.4964C22.5653 22.4969 22.5653 22.4973 22.5653 22.4977C22.5653 22.4981 22.5653 22.4986 22.5653 22.499C22.5653 22.4994 22.5653 22.4998 22.5653 22.5003C22.5653 22.5007 22.5653 22.5011 22.5653 22.5015C22.5653 22.502 22.5653 22.5024 22.5653 22.5028C22.5653 22.5032 22.5653 22.5037 22.5653 22.5041C22.5653 22.5045 22.5653 22.5049 22.5653 22.5054C22.5653 22.5058 22.5653 22.5062 22.5653 22.5066C22.5653 22.5071 22.5653 22.5075 22.5653 22.5079C22.5653 22.5084 22.5653 22.5088 22.5653 22.5092C22.5653 22.5096 22.5653 22.5101 22.5653 22.5105C22.5653 22.5109 22.5653 22.5113 22.5653 22.5118C22.5653 22.5122 22.5653 22.5126 22.5653 22.513C22.5653 22.5135 22.5653 22.5139 22.5653 22.5143C22.5653 22.5148 22.5653 22.5152 22.5653 22.5156C22.5653 22.516 22.5653 22.5165 22.5653 22.5169C22.5653 22.5173 22.5653 22.5178 22.5653 22.5182C22.5653 22.5186 22.5653 22.519 22.5653 22.5195C22.5653 22.5199 22.5653 22.5203 22.5653 22.5208C22.5653 22.5212 22.5653 22.5216 22.5653 22.522C22.5653 22.5225 22.5653 22.5229 22.5653 22.5233C22.5653 22.5238 22.5653 22.5242 22.5653 22.5246C22.5653 22.525 22.5653 22.5255 22.5653 22.5259C22.5653 22.5263 22.5653 22.5268 22.5653 22.5272C22.5653 22.5276 22.5653 22.528 22.5653 22.5285C22.5653 22.5289 22.5653 22.5293 22.5653 22.5298C22.5653 22.5302 22.5653 22.5306 22.5653 22.5311C22.5653 22.5315 22.5653 22.5319 22.5653 22.5324C22.5653 22.5328 22.5653 22.5332 22.5653 22.5336C22.5653 22.5341 22.5653 22.5345 22.5653 22.5349C22.5653 22.5354 22.5653 22.5358 22.5653 22.5362C22.5653 22.5367 22.5653 22.5371 22.5653 22.5375C22.5653 22.538 22.5653 22.5384 22.5653 22.5388C22.5653 22.5393 22.5653 22.5397 22.5653 22.5401C22.5653 22.5406 22.5653 22.541 22.5653 22.5414C22.5653 22.5419 22.5653 22.5423 22.5653 22.5427C22.5653 22.5431 22.5653 22.5436 22.5653 22.544C22.5653 22.5445 22.5653 22.5449 22.5653 22.5453C22.5653 22.5458 22.5653 22.5462 22.5653 22.5466C22.5653 22.5471 22.5653 22.5475 22.5653 22.5479C22.5653 22.5484 22.5653 22.5488 22.5653 22.5492C22.5653 22.5497 22.5653 22.5501 22.5653 22.5505C22.5653 22.551 22.5653 22.5514 22.5653 22.5518C22.5653 22.5523 22.5653 22.5527 22.5653 22.5531C22.5653 22.5536 22.5653 22.554 22.5653 22.5544C22.5653 22.5549 22.5653 22.5553 22.5653 22.5557C22.5653 22.5562 22.5653 22.5566 22.5653 22.5571C22.5653 22.5575 22.5653 22.5579 22.5653 22.5584C22.5653 22.5588 22.5653 22.5592 22.5653 22.5597C22.5653 22.5601 22.5653 22.5605 22.5653 22.561C22.5653 22.5614 22.5653 22.5619 22.5653 22.5623C22.5653 22.5627 22.5653 22.5632 22.5653 22.5636C22.5653 22.564 22.5653 22.5645 22.5653 22.5649C22.5653 22.5654 22.5653 22.5658 22.5653 22.5662C22.5653 22.5667 22.5653 22.5671 22.5653 22.5675C22.5653 22.568 22.5653 22.5684 22.5653 22.5689C22.5653 22.5693 22.5653 22.5697 22.5653 22.5702C22.5653 22.5706 22.5653 22.5711 22.5653 22.5715C22.5653 22.5719 22.5653 22.5724 22.5653 22.5728C22.5653 22.5733 22.5653 22.5737 22.5653 22.5741C22.5653 22.5746 22.5653 22.575 22.5653 22.5755C22.5653 22.5759 22.5653 22.5763 22.5653 22.5768C22.5653 22.5772 22.5653 22.5777 22.5653 22.5781C22.5653 22.5785 22.5653 22.579 22.5653 22.5794C22.5653 22.5799 22.5653 22.5803 22.5653 22.5807C22.5653 22.5812 22.5653 22.5816 22.5653 22.5821C22.5653 22.5825 22.5653 22.583 22.5653 22.5834C22.5653 22.5838 22.5653 22.5843 22.5653 22.5847C22.5653 22.5852 22.5653 22.5856 22.5653 22.5861C22.5653 22.5865 22.5653 22.5869 22.5653 22.5874C22.5653 22.5878 22.5653 22.5883 22.5653 22.5887C22.5653 22.5892 22.5653 22.5896 22.5653 22.59C22.5653 22.5905 22.5653 22.5909 22.5653 22.5914C22.5653 22.5918 22.5653 22.5923 22.5653 22.5927C22.5653 22.5932 22.5653 22.5936 22.5653 22.594C22.5653 22.5945 22.5653 22.5949 22.5653 22.5954C22.5653 22.5958 22.5653 22.5963 22.5653 22.5967C22.5653 22.5972 22.5653 22.5976 22.5653 22.5981C22.5653 22.5985 22.5653 22.599 22.5653 22.5994C22.5653 22.5998 22.5653 22.6003 22.5653 22.6007C22.5653 22.6012 22.5653 22.6016 22.5653 22.6021C22.5653 22.6025 22.5653 22.603 22.5653 22.6034C22.5653 22.6039 22.5653 22.6043 22.5653 22.6048C22.5653 22.6052 22.5653 22.6057 22.5653 22.6061C22.5653 22.6066 22.5653 22.607 22.5653 22.6075C22.5653 22.6079 22.5653 22.6083 22.5653 22.6088C22.5653 22.6092 22.5653 22.6097 22.5653 22.6101C22.5653 22.6106 22.5653 22.611 22.5653 22.6115C22.5653 22.6119 22.5653 22.6124 22.5653 22.6128C22.5653 22.6133 22.5653 22.6137 22.5653 22.6142C22.5653 22.6146 22.5653 22.6151 22.5653 22.6155C22.5653 22.616 22.5653 22.6164 22.5653 22.6169C22.5653 22.6173 22.5653 22.6178 22.5653 22.6183C22.5653 22.6187 22.5653 22.6192 22.5653 22.6196C22.5653 22.6201 22.5653 22.6205 22.5653 22.621C22.5653 22.6214 22.5653 22.6219 22.5653 22.6223C22.5653 22.6228 22.5653 22.6232 22.5653 22.6237C22.5653 22.6241 22.5653 22.6246 22.5653 22.625C22.5653 22.6255 22.5653 22.6259 22.5653 22.6264C22.5653 22.6269 22.5653 22.6273 22.5653 22.6278C22.5653 22.6282 22.5653 22.6287 22.5653 22.6291C22.5653 22.6296 22.5653 22.63 22.5653 22.6305C22.5653 22.6309 22.5653 22.6314 22.5653 22.6319C22.5653 22.6323 22.5653 22.6328 22.5653 22.6332C22.5653 22.6337 22.5653 22.6341 22.5653 22.6346C22.5653 22.635 22.5653 22.6355 22.5653 22.636C22.5653 22.6364 22.5653 22.6369 22.5653 22.6373C22.5653 22.6378 22.5653 22.6382 22.5653 22.6387C22.5653 22.6392 22.5653 22.6396 22.5653 22.6401C22.5653 22.6405 22.5653 22.641 22.5653 22.6415C22.5653 22.6419 22.5653 22.6424 22.5653 22.6428C22.5653 22.6433 22.5653 22.6437 22.5653 22.6442C22.5653 22.6447 22.5653 22.6451 22.5653 22.6456C22.5653 22.646 22.5653 22.6465 22.5653 22.647C22.5653 22.6474 22.5653 22.6479 22.5653 22.6483C22.5653 22.6488 22.5653 22.6493 22.5653 22.6497C22.5653 22.6502 22.5653 22.6506 22.5653 22.6511C22.5653 22.6516 22.5653 22.652 22.5653 22.6525C22.5653 22.653 22.5653 22.6534 22.5653 22.6539C22.5653 22.6543 22.5653 22.6548 22.5653 22.6553C22.5653 22.6557 22.5653 22.6562 22.5653 22.6567C22.5653 22.6571 22.5653 22.6576 22.5653 22.658C22.5653 22.6585 22.5653 22.659 22.5653 22.6594C22.5653 22.6599 22.5653 22.6604 22.5653 22.6608C22.5653 22.6613 22.5653 22.6618 22.5653 22.6622C22.5653 22.6627 22.5653 22.6632 22.5653 22.6636C22.5653 22.6641 22.5653 22.6645 22.5653 22.665C22.5653 22.6655 22.5653 22.6659 22.5653 22.6664C22.5653 22.6669 22.5653 22.6673 22.5653 22.6678C22.5653 22.6683 22.5653 22.6687 22.5653 22.6692C22.5653 22.6697 22.5653 22.6701 22.5653 22.6706C22.5653 22.6711 22.5653 22.6715 22.5653 22.672C22.5653 22.6725 22.5653 22.6729 22.5653 22.6734C22.5653 22.6739 22.5653 22.6744 22.5653 22.6748C22.5653 22.6753 22.5653 22.6758 22.5653 22.6762C22.5653 22.6767 22.5653 22.6772 22.5653 22.6776C22.5653 22.6781 22.5653 22.6786 22.5653 22.679C22.5653 22.6795 22.5653 22.68 22.5653 22.6805C22.5653 22.6809 22.5653 22.6814 22.5653 22.6819C22.5653 22.6823 22.5653 22.6828 22.5653 22.6833C22.5653 22.6838 22.5653 22.6842 22.5653 22.6847C22.5653 22.6852 22.5653 22.6856 22.5653 22.6861C22.5653 22.6866 22.5653 22.6871 22.5653 22.6875C22.5653 22.688 22.5653 22.6885 22.5653 22.689C22.5653 22.6894 22.5653 22.6899 22.5653 22.6904C22.5653 22.6909 22.5653 22.6913 22.5653 22.6918C22.5653 22.6923 22.5653 22.6928 22.5653 22.6932C22.5653 22.6937 22.5653 22.6942 22.5653 22.6947C22.5653 22.6951 22.5653 22.6956 22.5653 22.6961C22.5653 22.6966 22.5653 22.697 22.5653 22.6975C22.5653 22.698 22.5653 22.6985 22.5653 22.6989C22.5653 22.6994 22.5653 22.6999 22.5653 22.7004C22.5653 22.7008 22.5653 22.7013 22.5653 22.7018C22.5653 22.7023 22.5653 22.7028 22.5653 22.7032C22.5653 22.7037 22.5653 22.7042 22.5653 22.7047C22.5653 22.7052 22.5653 22.7056 22.5653 22.7061C22.5653 22.7066 22.5653 22.7071 22.5653 22.7075C22.5653 22.708 22.5653 22.7085 22.5653 22.709C22.5653 22.7095 22.5653 22.7099 22.5653 22.7104C22.5653 22.7109 22.5653 22.7114 22.5653 22.7119C22.5653 22.7124 22.5653 22.7128 22.5653 22.7133C22.5653 22.7138 22.5653 22.7143 22.5653 22.7148C22.5653 22.7152 22.5653 22.7157 22.5653 22.7162C22.5653 22.7167 22.5653 22.7172 22.5653 22.7177C22.5653 22.7181 22.5653 22.7186 22.5653 22.7191C22.5653 22.7196 22.5653 22.7201 22.5653 22.7206C22.5653 22.7211 22.5653 22.7215 22.5653 22.722C22.5653 22.7225 22.5653 22.723 22.5653 22.7235C22.5653 22.724 22.5653 22.7244 22.5653 22.7249C22.5653 22.7254 22.5653 22.7259 22.5653 22.7264C22.5653 22.7269 22.5653 22.7274 22.5653 22.7279C22.5653 22.7283 22.5653 22.7288 22.5653 22.7293C22.5653 22.7298 22.5653 22.7303 22.5653 22.7308C22.5653 22.7313 22.5653 22.7318 22.5653 22.7322C22.5653 22.7327 22.5653 22.7332 22.5653 22.7337C22.5653 22.7342 22.5653 22.7347 22.5653 22.7352C22.5653 22.7357 22.5653 22.7362 22.5653 22.7367C22.5653 22.7371 22.5653 22.7376 22.5653 22.7381C22.5653 22.7386 22.5653 22.7391 22.5653 22.7396C22.5653 22.7401 22.5653 22.7406 22.5653 22.7411C22.5653 22.7416 22.5653 22.7421 22.5653 22.7426C22.5653 22.743 22.5653 22.7435 22.5653 22.744C22.5653 22.7445 22.5653 22.745 22.5653 22.7455C22.5653 22.746 22.5653 22.7465 22.5653 22.747C22.5653 22.7475 22.5653 22.748 22.5653 22.7485C22.5653 22.749 22.5653 22.7495 22.5653 22.75C22.5653 22.7505 22.5653 22.751 22.5653 22.7514C22.5653 22.7519 22.5653 22.7524 22.5653 22.7529C22.5653 22.7534 22.5653 22.7539 22.5653 22.7544C22.5653 22.7549 22.5653 22.7554 22.5653 22.7559C22.5653 22.7564 22.5653 22.7569 22.5653 22.7574C22.5653 22.7579 22.5653 22.7584 22.5653 22.7589C22.5653 22.7594 22.5653 22.7599 22.5653 22.7604C22.5653 22.7609 22.5653 22.7614 22.5653 22.7619C22.5653 22.7624 22.5653 22.7629 22.5653 22.7634C22.5653 22.7639 22.5653 22.7644 22.5653 22.7649C22.5653 22.7654 22.5653 22.7659 22.5653 22.7664C22.5653 22.7669 22.5653 22.7674 22.5653 22.7679C22.5653 22.7684 22.5653 22.7689 22.5653 22.7694C22.5653 22.7699 22.5653 22.7704 22.5653 22.7709C22.5653 22.7714 22.5653 22.7719 22.5653 22.7724C22.5653 22.7729 22.5653 22.7735 22.5653 22.774H25.7758C25.7758 22.7735 25.7758 22.7729 25.7758 22.7724C25.7758 22.7719 25.7758 22.7714 25.7758 22.7709C25.7758 22.7704 25.7758 22.7699 25.7758 22.7694C25.7758 22.7689 25.7758 22.7684 25.7758 22.7679C25.7758 22.7674 25.7758 22.7669 25.7758 22.7664C25.7758 22.7659 25.7758 22.7654 25.7758 22.7649C25.7758 22.7644 25.7758 22.7639 25.7758 22.7634C25.7758 22.7629 25.7758 22.7624 25.7758 22.7619C25.7758 22.7614 25.7758 22.7609 25.7758 22.7604C25.7758 22.7599 25.7758 22.7594 25.7758 22.7589C25.7758 22.7584 25.7758 22.7579 25.7758 22.7574C25.7758 22.7569 25.7758 22.7564 25.7758 22.7559C25.7758 22.7554 25.7758 22.7549 25.7758 22.7544C25.7758 22.7539 25.7758 22.7534 25.7758 22.7529C25.7758 22.7524 25.7758 22.7519 25.7758 22.7514C25.7758 22.751 25.7758 22.7505 25.7758 22.75C25.7758 22.7495 25.7758 22.749 25.7758 22.7485C25.7758 22.748 25.7758 22.7475 25.7758 22.747C25.7758 22.7465 25.7758 22.746 25.7758 22.7455C25.7758 22.745 25.7758 22.7445 25.7758 22.744C25.7758 22.7435 25.7758 22.743 25.7758 22.7426C25.7758 22.7421 25.7758 22.7416 25.7758 22.7411C25.7758 22.7406 25.7758 22.7401 25.7758 22.7396C25.7758 22.7391 25.7758 22.7386 25.7758 22.7381C25.7758 22.7376 25.7758 22.7371 25.7758 22.7367C25.7758 22.7362 25.7758 22.7357 25.7758 22.7352C25.7758 22.7347 25.7758 22.7342 25.7758 22.7337C25.7758 22.7332 25.7758 22.7327 25.7758 22.7322C25.7758 22.7318 25.7758 22.7313 25.7758 22.7308C25.7758 22.7303 25.7758 22.7298 25.7758 22.7293C25.7758 22.7288 25.7758 22.7283 25.7758 22.7279C25.7758 22.7274 25.7758 22.7269 25.7758 22.7264C25.7758 22.7259 25.7758 22.7254 25.7758 22.7249C25.7758 22.7244 25.7758 22.724 25.7758 22.7235C25.7758 22.723 25.7758 22.7225 25.7758 22.722C25.7758 22.7215 25.7758 22.7211 25.7758 22.7206C25.7758 22.7201 25.7758 22.7196 25.7758 22.7191C25.7758 22.7186 25.7758 22.7181 25.7758 22.7177C25.7758 22.7172 25.7758 22.7167 25.7758 22.7162C25.7758 22.7157 25.7758 22.7152 25.7758 22.7148C25.7758 22.7143 25.7758 22.7138 25.7758 22.7133C25.7758 22.7128 25.7758 22.7124 25.7758 22.7119C25.7758 22.7114 25.7758 22.7109 25.7758 22.7104C25.7758 22.7099 25.7758 22.7095 25.7758 22.709C25.7758 22.7085 25.7758 22.708 25.7758 22.7075C25.7758 22.7071 25.7758 22.7066 25.7758 22.7061C25.7758 22.7056 25.7758 22.7052 25.7758 22.7047C25.7758 22.7042 25.7758 22.7037 25.7758 22.7032C25.7758 22.7028 25.7758 22.7023 25.7758 22.7018C25.7758 22.7013 25.7758 22.7008 25.7758 22.7004C25.7758 22.6999 25.7758 22.6994 25.7758 22.6989C25.7758 22.6985 25.7758 22.698 25.7758 22.6975C25.7758 22.697 25.7758 22.6966 25.7758 22.6961C25.7758 22.6956 25.7758 22.6951 25.7758 22.6947C25.7758 22.6942 25.7758 22.6937 25.7758 22.6932C25.7758 22.6928 25.7758 22.6923 25.7758 22.6918C25.7758 22.6913 25.7758 22.6909 25.7758 22.6904C25.7758 22.6899 25.7758 22.6894 25.7758 22.689C25.7758 22.6885 25.7758 22.688 25.7758 22.6875C25.7758 22.6871 25.7758 22.6866 25.7758 22.6861C25.7758 22.6856 25.7758 22.6852 25.7758 22.6847C25.7758 22.6842 25.7758 22.6838 25.7758 22.6833C25.7758 22.6828 25.7758 22.6823 25.7758 22.6819C25.7758 22.6814 25.7758 22.6809 25.7758 22.6805C25.7758 22.68 25.7758 22.6795 25.7758 22.679C25.7758 22.6786 25.7758 22.6781 25.7758 22.6776C25.7758 22.6772 25.7758 22.6767 25.7758 22.6762C25.7758 22.6758 25.7758 22.6753 25.7758 22.6748C25.7758 22.6744 25.7758 22.6739 25.7758 22.6734C25.7758 22.6729 25.7758 22.6725 25.7758 22.672C25.7758 22.6715 25.7758 22.6711 25.7758 22.6706C25.7758 22.6701 25.7758 22.6697 25.7758 22.6692C25.7758 22.6687 25.7758 22.6683 25.7758 22.6678C25.7758 22.6673 25.7758 22.6669 25.7758 22.6664C25.7758 22.6659 25.7758 22.6655 25.7758 22.665C25.7758 22.6645 25.7758 22.6641 25.7758 22.6636C25.7758 22.6632 25.7758 22.6627 25.7758 22.6622C25.7758 22.6618 25.7758 22.6613 25.7758 22.6608C25.7758 22.6604 25.7758 22.6599 25.7758 22.6594C25.7758 22.659 25.7758 22.6585 25.7758 22.658C25.7758 22.6576 25.7758 22.6571 25.7758 22.6567C25.7758 22.6562 25.7758 22.6557 25.7758 22.6553C25.7758 22.6548 25.7758 22.6543 25.7758 22.6539C25.7758 22.6534 25.7758 22.653 25.7758 22.6525C25.7758 22.652 25.7758 22.6516 25.7758 22.6511C25.7758 22.6506 25.7758 22.6502 25.7758 22.6497C25.7758 22.6493 25.7758 22.6488 25.7758 22.6483C25.7758 22.6479 25.7758 22.6474 25.7758 22.647C25.7758 22.6465 25.7758 22.646 25.7758 22.6456C25.7758 22.6451 25.7758 22.6447 25.7758 22.6442C25.7758 22.6437 25.7758 22.6433 25.7758 22.6428C25.7758 22.6424 25.7758 22.6419 25.7758 22.6415C25.7758 22.641 25.7758 22.6405 25.7758 22.6401C25.7758 22.6396 25.7758 22.6392 25.7758 22.6387C25.7758 22.6382 25.7758 22.6378 25.7758 22.6373C25.7758 22.6369 25.7758 22.6364 25.7758 22.636C25.7758 22.6355 25.7758 22.635 25.7758 22.6346C25.7758 22.6341 25.7758 22.6337 25.7758 22.6332C25.7758 22.6328 25.7758 22.6323 25.7758 22.6319C25.7758 22.6314 25.7758 22.6309 25.7758 22.6305C25.7758 22.63 25.7758 22.6296 25.7758 22.6291C25.7758 22.6287 25.7758 22.6282 25.7758 22.6278C25.7758 22.6273 25.7758 22.6269 25.7758 22.6264C25.7758 22.6259 25.7758 22.6255 25.7758 22.625C25.7758 22.6246 25.7758 22.6241 25.7758 22.6237C25.7758 22.6232 25.7758 22.6228 25.7758 22.6223C25.7758 22.6219 25.7758 22.6214 25.7758 22.621C25.7758 22.6205 25.7758 22.6201 25.7758 22.6196C25.7758 22.6192 25.7758 22.6187 25.7758 22.6183C25.7758 22.6178 25.7758 22.6173 25.7758 22.6169C25.7758 22.6164 25.7758 22.616 25.7758 22.6155C25.7758 22.6151 25.7758 22.6146 25.7758 22.6142C25.7758 22.6137 25.7758 22.6133 25.7758 22.6128C25.7758 22.6124 25.7758 22.6119 25.7758 22.6115C25.7758 22.611 25.7758 22.6106 25.7758 22.6101C25.7758 22.6097 25.7758 22.6092 25.7758 22.6088C25.7758 22.6083 25.7758 22.6079 25.7758 22.6075C25.7758 22.607 25.7758 22.6066 25.7758 22.6061C25.7758 22.6057 25.7758 22.6052 25.7758 22.6048C25.7758 22.6043 25.7758 22.6039 25.7758 22.6034C25.7758 22.603 25.7758 22.6025 25.7758 22.6021C25.7758 22.6016 25.7758 22.6012 25.7758 22.6007C25.7758 22.6003 25.7758 22.5998 25.7758 22.5994C25.7758 22.599 25.7758 22.5985 25.7758 22.5981C25.7758 22.5976 25.7758 22.5972 25.7758 22.5967C25.7758 22.5963 25.7758 22.5958 25.7758 22.5954C25.7758 22.5949 25.7758 22.5945 25.7758 22.594C25.7758 22.5936 25.7758 22.5932 25.7758 22.5927C25.7758 22.5923 25.7758 22.5918 25.7758 22.5914C25.7758 22.5909 25.7758 22.5905 25.7758 22.59C25.7758 22.5896 25.7758 22.5892 25.7758 22.5887C25.7758 22.5883 25.7758 22.5878 25.7758 22.5874C25.7758 22.5869 25.7758 22.5865 25.7758 22.5861C25.7758 22.5856 25.7758 22.5852 25.7758 22.5847C25.7758 22.5843 25.7758 22.5838 25.7758 22.5834C25.7758 22.583 25.7758 22.5825 25.7758 22.5821C25.7758 22.5816 25.7758 22.5812 25.7758 22.5807C25.7758 22.5803 25.7758 22.5799 25.7758 22.5794C25.7758 22.579 25.7758 22.5785 25.7758 22.5781C25.7758 22.5777 25.7758 22.5772 25.7758 22.5768C25.7758 22.5763 25.7758 22.5759 25.7758 22.5755C25.7758 22.575 25.7758 22.5746 25.7758 22.5741C25.7758 22.5737 25.7758 22.5733 25.7758 22.5728C25.7758 22.5724 25.7758 22.5719 25.7758 22.5715C25.7758 22.5711 25.7758 22.5706 25.7758 22.5702C25.7758 22.5697 25.7758 22.5693 25.7758 22.5689C25.7758 22.5684 25.7758 22.568 25.7758 22.5675C25.7758 22.5671 25.7758 22.5667 25.7758 22.5662C25.7758 22.5658 25.7758 22.5654 25.7758 22.5649C25.7758 22.5645 25.7758 22.564 25.7758 22.5636C25.7758 22.5632 25.7758 22.5627 25.7758 22.5623C25.7758 22.5619 25.7758 22.5614 25.7758 22.561C25.7758 22.5605 25.7758 22.5601 25.7758 22.5597C25.7758 22.5592 25.7758 22.5588 25.7758 22.5584C25.7758 22.5579 25.7758 22.5575 25.7758 22.5571C25.7758 22.5566 25.7758 22.5562 25.7758 22.5557C25.7758 22.5553 25.7758 22.5549 25.7758 22.5544C25.7758 22.554 25.7758 22.5536 25.7758 22.5531C25.7758 22.5527 25.7758 22.5523 25.7758 22.5518C25.7758 22.5514 25.7758 22.551 25.7758 22.5505C25.7758 22.5501 25.7758 22.5497 25.7758 22.5492C25.7758 22.5488 25.7758 22.5484 25.7758 22.5479C25.7758 22.5475 25.7758 22.5471 25.7758 22.5466C25.7758 22.5462 25.7758 22.5458 25.7758 22.5453C25.7758 22.5449 25.7758 22.5445 25.7758 22.544C25.7758 22.5436 25.7758 22.5431 25.7758 22.5427C25.7758 22.5423 25.7758 22.5419 25.7758 22.5414C25.7758 22.541 25.7758 22.5406 25.7758 22.5401C25.7758 22.5397 25.7758 22.5393 25.7758 22.5388C25.7758 22.5384 25.7758 22.538 25.7758 22.5375C25.7758 22.5371 25.7758 22.5367 25.7758 22.5362C25.7758 22.5358 25.7758 22.5354 25.7758 22.5349C25.7758 22.5345 25.7758 22.5341 25.7758 22.5336C25.7758 22.5332 25.7758 22.5328 25.7758 22.5324C25.7758 22.5319 25.7758 22.5315 25.7758 22.5311C25.7758 22.5306 25.7758 22.5302 25.7758 22.5298C25.7758 22.5293 25.7758 22.5289 25.7758 22.5285C25.7758 22.528 25.7758 22.5276 25.7758 22.5272C25.7758 22.5268 25.7758 22.5263 25.7758 22.5259C25.7758 22.5255 25.7758 22.525 25.7758 22.5246C25.7758 22.5242 25.7758 22.5238 25.7758 22.5233C25.7758 22.5229 25.7758 22.5225 25.7758 22.522C25.7758 22.5216 25.7758 22.5212 25.7758 22.5208C25.7758 22.5203 25.7758 22.5199 25.7758 22.5195C25.7758 22.519 25.7758 22.5186 25.7758 22.5182C25.7758 22.5178 25.7758 22.5173 25.7758 22.5169C25.7758 22.5165 25.7758 22.516 25.7758 22.5156C25.7758 22.5152 25.7758 22.5148 25.7758 22.5143C25.7758 22.5139 25.7758 22.5135 25.7758 22.513C25.7758 22.5126 25.7758 22.5122 25.7758 22.5118C25.7758 22.5113 25.7758 22.5109 25.7758 22.5105C25.7758 22.5101 25.7758 22.5096 25.7758 22.5092C25.7758 22.5088 25.7758 22.5084 25.7758 22.5079C25.7758 22.5075 25.7758 22.5071 25.7758 22.5066C25.7758 22.5062 25.7758 22.5058 25.7758 22.5054C25.7758 22.5049 25.7758 22.5045 25.7758 22.5041C25.7758 22.5037 25.7758 22.5032 25.7758 22.5028C25.7758 22.5024 25.7758 22.502 25.7758 22.5015C25.7758 22.5011 25.7758 22.5007 25.7758 22.5003C25.7758 22.4998 25.7758 22.4994 25.7758 22.499C25.7758 22.4986 25.7758 22.4981 25.7758 22.4977C25.7758 22.4973 25.7758 22.4969 25.7758 22.4964C25.7758 22.496 25.7758 22.4956 25.7758 22.4952C25.7758 22.4947 25.7758 22.4943 25.7758 22.4939C25.7758 22.4935 25.7758 22.4931 25.7758 22.4926C25.7758 22.4922 25.7758 22.4918 25.7758 22.4914C25.7758 22.4909 25.7758 22.4905 25.7758 22.4901C25.7758 22.4897 25.7758 22.4892 25.7758 22.4888C25.7758 22.4884 25.7758 22.488 25.7758 22.4875C25.7758 22.4871 25.7758 22.4867 25.7758 22.4863C25.7758 22.4859 25.7758 22.4854 25.7758 22.485C25.7758 22.4846 25.7758 22.4842 25.7758 22.4837C25.7758 22.4833 25.7758 22.4829 25.7758 22.4825C25.7758 22.4821 25.7758 22.4816 25.7758 22.4812C25.7758 22.4808 25.7758 22.4804 25.7758 22.4799C25.7758 22.4795 25.7758 22.4791 25.7758 22.4787C25.7758 22.4783 25.7758 22.4778 25.7758 22.4774C25.7758 22.477 25.7758 22.4766 25.7758 22.4761C25.7758 22.4757 25.7758 22.4753 25.7758 22.4749C25.7758 22.4745 25.7758 22.474 25.7758 22.4736C25.7758 22.4732 25.7758 22.4728 25.7758 22.4724C25.7758 22.4719 25.7758 22.4715 25.7758 22.4711C25.7758 22.4707 25.7758 22.4703 25.7758 22.4698C25.7758 22.4694 25.7758 22.469 25.7758 22.4686C25.7758 22.4681 25.7758 22.4677 25.7758 22.4673C25.7758 22.4669 25.7758 22.4665 25.7758 22.466C25.7758 22.4656 25.7758 22.4652 25.7758 22.4648C25.7758 22.4644 25.7758 22.4639 25.7758 22.4635C25.7758 22.4631 25.7758 22.4627 25.7758 22.4623C25.7758 22.4619 25.7758 22.4614 25.7758 22.461C25.7758 22.4606 25.7758 22.4602 25.7758 22.4598C25.7758 22.4593 25.7758 22.4589 25.7758 22.4585C25.7758 22.4581 25.7758 22.4577 25.7758 22.4572C25.7758 22.4568 25.7758 22.4564 25.7758 22.456C25.7758 22.4556 25.7758 22.4551 25.7758 22.4547C25.7758 22.4543 25.7758 22.4539 25.7758 22.4535C25.7758 22.453 25.7758 22.4526 25.7758 22.4522C25.7758 22.4518 25.7758 22.4514 25.7758 22.451C25.7758 22.4505 25.7758 22.4501 25.7758 22.4497C25.7758 22.4493 25.7758 22.4489 25.7758 22.4484C25.7758 22.448 25.7758 22.4476 25.7758 22.4472C25.7758 22.4468 25.7758 22.4464 25.7758 22.4459C25.7758 22.4455 25.7758 22.4451 25.7758 22.4447C25.7758 22.4443 25.7758 22.4439 25.7758 22.4434C25.7758 22.443 25.7758 22.4426 25.7758 22.4422C25.7758 22.4418 25.7758 22.4413 25.7758 22.4409C25.7758 22.4405 25.7758 22.4401 25.7758 22.4397C25.7758 22.4393 25.7758 22.4388 25.7758 22.4384C25.7758 22.438 25.7758 22.4376 25.7758 22.4372C25.7758 22.4368 25.7758 22.4363 25.7758 22.4359C25.7758 22.4355 25.7758 22.4351 25.7758 22.4347C25.7758 22.4343 25.7758 22.4338 25.7758 22.4334C25.7758 22.433 25.7758 22.4326 25.7758 22.4322C25.7758 22.4318 25.7758 22.4313 25.7758 22.4309C25.7758 22.4305 25.7758 22.4301 25.7758 22.4297C25.7758 22.4293 25.7758 22.4288 25.7758 22.4284C25.7758 22.428 25.7758 22.4276 25.7758 22.4272C25.7758 22.4268 25.7758 22.4263 25.7758 22.4259C25.7758 22.4255 25.7758 22.4251 25.7758 22.4247C25.7758 22.4243 25.7758 22.4238 25.7758 22.4234C25.7758 22.423 25.7758 22.4226 25.7758 22.4222C25.7758 22.4218 25.7758 22.4214 25.7758 22.4209C25.7758 22.4205 25.7758 22.4201 25.7758 22.4197C25.7758 22.4193 25.7758 22.4189 25.7758 22.4184C25.7758 22.418 25.7758 22.4176 25.7758 22.4172C25.7758 22.4168 25.7758 22.4164 25.7758 22.416C25.7758 22.4155 25.7758 22.4151 25.7758 22.4147C25.7758 22.4143 25.7758 22.4139 25.7758 22.4135C25.7758 22.413 25.7758 22.4126 25.7758 22.4122C25.7758 22.4118 25.7758 22.4114 25.7758 22.411C25.7758 22.4106 25.7758 22.4101 25.7758 22.4097C25.7758 22.4093 25.7758 22.4089 25.7758 22.4085C25.7758 22.4081 25.7758 22.4076 25.7758 22.4072C25.7758 22.4068 25.7758 22.4064 25.7758 22.406C25.7758 22.4056 25.7758 22.4052 25.7758 22.4047C25.7758 22.4043 25.7758 22.4039 25.7758 22.4035C25.7758 22.4031 25.7758 22.4027 25.7758 22.4023C25.7758 22.4018 25.7758 22.4014 25.7758 22.401C25.7758 22.4006 25.7758 22.4002 25.7758 22.3998C25.7758 22.3994 25.7758 22.3989 25.7758 22.3985C25.7758 22.3981 25.7758 22.3977 25.7758 22.3973C25.7758 22.3969 25.7758 22.3965 25.7758 22.396C25.7758 22.3956 25.7758 22.3952 25.7758 22.3948C25.7758 22.3944 25.7758 22.394 25.7758 22.3936C25.7758 22.3931 25.7758 22.3927 25.7758 22.3923C25.7758 22.3919 25.7758 22.3915 25.7758 22.3911C25.7758 22.3907 25.7758 22.3902 25.7758 22.3898C25.7758 22.3894 25.7758 22.389 25.7758 22.3886C25.7758 22.3882 25.7758 22.3878 25.7758 22.3873C25.7758 22.3869 25.7758 22.3865 25.7758 22.3861C25.7758 22.3857 25.7758 22.3853 25.7758 22.3849C25.7758 22.3844 25.7758 22.384 25.7758 22.3836C25.7758 22.3832 25.7758 22.3828 25.7758 22.3824C25.7758 22.382 25.7758 22.3815 25.7758 22.3811C25.7758 22.3807 25.7758 22.3803 25.7758 22.3799C25.7758 22.3795 25.7758 22.3791 25.7758 22.3786C25.7758 22.3782 25.7758 22.3778 25.7758 22.3774C25.7758 22.377 25.7758 22.3766 25.7758 22.3762C25.7758 22.3757 25.7758 22.3753 25.7758 22.3749C25.7758 22.3745 25.7758 22.3741 25.7758 22.3737C25.7758 22.3733 25.7758 22.3729 25.7758 22.3724C25.7758 22.372 25.7758 22.3716 25.7758 22.3712C25.7758 22.3708 25.7758 22.3704 25.7758 22.37C25.7758 22.3695 25.7758 22.3691 25.7758 22.3687C25.7758 22.3683 25.7758 22.3679 25.7758 22.3675C25.7758 22.3671 25.7758 22.3666 25.7758 22.3662C25.7758 22.3658 25.7758 22.3654 25.7758 22.365C25.7758 22.3646 25.7758 22.3642 25.7758 22.3638C25.7758 22.3633 25.7758 22.3629 25.7758 22.3625C25.7758 22.3621 25.7758 22.3617 25.7758 22.3613C25.7758 22.3609 25.7758 22.3604 25.7758 22.36C25.7758 22.3596 25.7758 22.3592 25.7758 22.3588C25.7758 22.3584 25.7758 22.358 25.7758 22.3575C25.7758 22.3571 25.7758 22.3567 25.7758 22.3563C25.7758 22.3559 25.7758 22.3555 25.7758 22.3551C25.7758 22.3546 25.7758 22.3542 25.7758 22.3538C25.7758 22.3534 25.7758 22.353 25.7758 22.3526C25.7758 22.3522 25.7758 22.3518 25.7758 22.3513C25.7758 22.3509 25.7758 22.3505 25.7758 22.3501C25.7758 22.3497 25.7758 22.3493 25.7758 22.3489C25.7758 22.3484 25.7758 22.348 25.7758 22.3476C25.7758 22.3472 25.7758 22.3468 25.7758 22.3464C25.7758 22.346 25.7758 22.3455 25.7758 22.3451C25.7758 22.3447 25.7758 22.3443 25.7758 22.3439C25.7758 22.3435 25.7758 22.3431 25.7758 22.3426C25.7758 22.3422 25.7758 22.3418 25.7758 22.3414C25.7758 22.341 25.7758 22.3406 25.7758 22.3402C25.7758 22.3397 25.7758 22.3393 25.7758 22.3389C25.7758 22.3385 25.7758 22.3381 25.7758 22.3377C25.7758 22.3373 25.7758 22.3368 25.7758 22.3364C25.7758 22.336 25.7758 22.3356 25.7758 22.3352C25.7758 22.3348 25.7758 22.3344 25.7758 22.3339C25.7758 22.3335 25.7758 22.3331 25.7758 22.3327C25.7758 22.3323 25.7758 22.3319 25.7758 22.3315C25.7758 22.331 25.7758 22.3306 25.7758 22.3302C25.7758 22.3298 25.7758 22.3294 25.7758 22.329C25.7758 22.3286 25.7758 22.3281 25.7758 22.3277C25.7758 22.3273 25.7758 22.3269 25.7758 22.3265C25.7758 22.3261 25.7758 22.3257 25.7758 22.3252C25.7758 22.3248 25.7758 22.3244 25.7758 22.324C25.7758 22.3236 25.7758 22.3232 25.7758 22.3228C25.7758 22.3223 25.7758 22.3219 25.7758 22.3215C25.7758 22.3211 25.7758 22.3207 25.7758 22.3203C25.7758 22.3198 25.7758 22.3194 25.7758 22.319C25.7758 22.3186 25.7758 22.3182 25.7758 22.3178C25.7758 22.3174 25.7758 22.3169 25.7758 22.3165C25.7758 22.3161 25.7758 22.3157 25.7758 22.3153C25.7758 22.3149 25.7758 22.3145 25.7758 22.314C25.7758 22.3136 25.7758 22.3132 25.7758 22.3128C25.7758 22.3124 25.7758 22.312 25.7758 22.3115C25.7758 22.3111 25.7758 22.3107 25.7758 22.3103C25.7758 22.3099 25.7758 22.3095 25.7758 22.309C25.7758 22.3086 25.7758 22.3082 25.7758 22.3078C25.7758 22.3074 25.7758 22.307 25.7758 22.3066C25.7758 22.3061 25.7758 22.3057 25.7758 22.3053C25.7758 22.3049 25.7758 22.3045 25.7758 22.3041C25.7758 22.3036 25.7758 22.3032 25.7758 22.3028C25.7758 22.3024 25.7758 22.302 25.7758 22.3016C25.7758 22.3011 25.7758 22.3007 25.7758 22.3003C25.7758 22.2999 25.7758 22.2995 25.7758 22.2991C25.7758 22.2986 25.7758 22.2982 25.7758 22.2978C25.7758 22.2974 25.7758 22.297 25.7758 22.2966C25.7758 22.2961 25.7758 22.2957 25.7758 22.2953C25.7758 22.2949 25.7758 22.2945 25.7758 22.2941C25.7758 22.2936 25.7758 22.2932 25.7758 22.2928C25.7758 22.2924 25.7758 22.292 25.7758 22.2916C25.7758 22.2911 25.7758 22.2907 25.7758 22.2903C25.7758 22.2899 25.7758 22.2895 25.7758 22.2891C25.7758 22.2886 25.7758 22.2882 25.7758 22.2878C25.7758 22.2874 25.7758 22.287 25.7758 22.2866C25.7758 22.2861 25.7758 22.2857 25.7758 22.2853C25.7758 22.2849 25.7758 22.2845 25.7758 22.284C25.7758 22.2836 25.7758 22.2832 25.7758 22.2828C25.7758 22.2824 25.7758 22.282 25.7758 22.2815C25.7758 22.2811 25.7758 22.2807 25.7758 22.2803C25.7758 22.2799 25.7758 22.2794 25.7758 22.279C25.7758 22.2786 25.7758 22.2782 25.7758 22.2778C25.7758 22.2774 25.7758 22.2769 25.7758 22.2765C25.7758 22.2761 25.7758 22.2757 25.7758 22.2753C25.7758 22.2748 25.7758 22.2744 25.7758 22.274C25.7758 22.2736 25.7758 22.2732 25.7758 22.2728C25.7758 22.2723 25.7758 22.2719 25.7758 22.2715C25.7758 22.2711 25.7758 22.2707 25.7758 22.2702C25.7758 22.2698 25.7758 22.2694 25.7758 22.269C25.7758 22.2686 25.7758 22.2681 25.7758 22.2677C25.7758 22.2673 25.7758 22.2669 25.7758 22.2665C25.7758 22.266 25.7758 22.2656 25.7758 22.2652C25.7758 22.2648 25.7758 22.2644 25.7758 22.2639C25.7758 22.2635 25.7758 22.2631 25.7758 22.2627C25.7758 22.2623 25.7758 22.2618 25.7758 22.2614C25.7758 22.261 25.7758 22.2606 25.7758 22.2602C25.7758 22.2597 25.7758 22.2593 25.7758 22.2589C25.7758 22.2585 25.7758 22.2581 25.7758 22.2576C25.7758 22.2572 25.7758 22.2568 25.7758 22.2564C25.7758 22.256 25.7758 22.2555 25.7758 22.2551C25.7758 22.2547 25.7758 22.2543 25.7758 22.2538C25.7758 22.2534 25.7758 22.253 25.7758 22.2526C25.7758 22.2522 25.7758 22.2517 25.7758 22.2513C25.7758 22.2509 25.7758 22.2505 25.7758 22.2501C25.7758 22.2496 25.7758 22.2492 25.7758 22.2488C25.7758 22.2484 25.7758 22.2479 25.7758 22.2475C25.7758 22.2471 25.7758 22.2467 25.7758 22.2463C25.7758 22.2458 25.7758 22.2454 25.7758 22.245C25.7758 22.2446 25.7758 22.2441 25.7758 22.2437C25.7758 22.2433 25.7758 22.2429 25.7758 22.2424C25.7758 22.242 25.7758 22.2416 25.7758 22.2412C25.7758 22.2408 25.7758 22.2403 25.7758 22.2399C25.7758 22.2395 25.7758 22.2391 25.7758 22.2386C25.7758 22.2382 25.7758 22.2378 25.7758 22.2374C25.7758 22.2369 25.7758 22.2365 25.7758 22.2361C25.7758 22.2357 25.7758 22.2352 25.7758 22.2348C25.7758 22.2344 25.7758 22.234 25.7758 22.2336C25.7758 22.2331 25.7758 22.2327 25.7758 22.2323C25.7758 22.2319 25.7758 22.2314 25.7758 22.231C25.7758 22.2306 25.7758 22.2302 25.7758 22.2297C25.7758 22.2293 25.7758 22.2289 25.7758 22.2285C25.7758 22.228 25.7758 22.2276 25.7758 22.2272C25.7758 22.2268 25.7758 22.2263 25.7758 22.2259C25.7758 22.2255 25.7758 22.2251 25.7758 22.2246C25.7758 22.2242 25.7758 22.2238 25.7758 22.2233C25.7758 22.2229 25.7758 22.2225 25.7758 22.2221C25.7758 22.2216 25.7758 22.2212 25.7758 22.2208C25.7758 22.2204 25.7758 22.2199 25.7758 22.2195C25.7758 22.2191 25.7758 22.2187 25.7758 22.2182C25.7758 22.2178 25.7758 22.2174 25.7758 22.217C25.7758 22.2165 25.7758 22.2161 25.7758 22.2157C25.7758 22.2152 25.7758 22.2148 25.7758 22.2144C25.7758 22.214 25.7758 22.2135 25.7758 22.2131C25.7758 22.2127 25.7758 22.2122 25.7758 22.2118C25.7758 22.2114 25.7758 22.211 25.7758 22.2105C25.7758 22.2101 25.7758 22.2097 25.7758 22.2093C25.7758 22.2088 25.7758 22.2084 25.7758 22.208C25.7758 22.2075 25.7758 22.2071 25.7758 22.2067C25.7758 22.2062 25.7758 22.2058 25.7758 22.2054C25.7758 22.205 25.7758 22.2045 25.7758 22.2041C25.7758 22.2037 25.7758 22.2032 25.7758 22.2028C25.7758 22.2024 25.7758 22.202 25.7758 22.2015C25.7758 22.2011 25.7758 22.2007 25.7758 22.2002C25.7758 22.1998 25.7758 22.1994 25.7758 22.1989C25.7758 22.1985 25.7758 22.1981 25.7758 22.1977C25.7758 22.1972 25.7758 22.1968 25.7758 22.1964C25.7758 22.1959 25.7758 22.1955 25.7758 22.1951C25.7758 22.1946 25.7758 22.1942 25.7758 22.1938C25.7758 22.1933 25.7758 22.1929 25.7758 22.1925C25.7758 22.192 25.7758 22.1916 25.7758 22.1912C25.7758 22.1907 25.7758 22.1903 25.7758 22.1899C25.7758 22.1895 25.7758 22.189 25.7758 22.1886C25.7758 22.1882 25.7758 22.1877 25.7758 22.1873C25.7758 22.1869 25.7758 22.1864 25.7758 22.186C25.7758 22.1856 25.7758 22.1851 25.7758 22.1847C25.7758 22.1843 25.7758 22.1838 25.7758 22.1834C25.7758 22.183 25.7758 22.1825 25.7758 22.1821C25.7758 22.1817 25.7758 22.1812 25.7758 22.1808C25.7758 22.1804 25.7758 22.1799 25.7758 22.1795C25.7758 22.179 25.7758 22.1786 25.7758 22.1782C25.7758 22.1777 25.7758 22.1773 25.7758 22.1769C25.7758 22.1764 25.7758 22.176 25.7758 22.1756C25.7758 22.1751 25.7758 22.1747 25.7758 22.1743C25.7758 22.1738 25.7758 22.1734 25.7758 22.173C25.7758 22.1725 25.7758 22.1721 25.7758 22.1716C25.7758 22.1712 25.7758 22.1708 25.7758 22.1703C25.7758 22.1699 25.7758 22.1695 25.7758 22.169C25.7758 22.1686 25.7758 22.1682 25.7758 22.1677C25.7758 22.1673 25.7758 22.1668 25.7758 22.1664C25.7758 22.166 25.7758 22.1655 25.7758 22.1651C25.7758 22.1647 25.7758 22.1642 25.7758 22.1638C25.7758 22.1633 25.7758 22.1629 25.7758 22.1625C25.7758 22.162 25.7758 22.1616 25.7758 22.1611C25.7758 22.1607 25.7758 22.1603 25.7758 22.1598C25.7758 22.1594 25.7758 22.159 25.7758 22.1585C25.7758 22.1581 25.7758 22.1576 25.7758 22.1572C25.7758 22.1568 25.7758 22.1563 25.7758 22.1559C25.7758 22.1554 25.7758 22.155 25.7758 22.1546C25.7758 22.1541 25.7758 22.1537 25.7758 22.1532C25.7758 22.1528 25.7758 22.1524 25.7758 22.1519C25.7758 22.1515 25.7758 22.151 25.7758 22.1506C25.7758 22.1502 25.7758 22.1497 25.7758 22.1493C25.7758 22.1488 25.7758 22.1484 25.7758 22.1479C25.7758 22.1475 25.7758 22.1471 25.7758 22.1466C25.7758 22.1462 25.7758 22.1457 25.7758 22.1453C25.7758 22.1448 25.7758 22.1444 25.7758 22.144C25.7758 22.1435 25.7758 22.1431 25.7758 22.1426C25.7758 22.1422 25.7758 22.1417 25.7758 22.1413C25.7758 22.1409 25.7758 22.1404 25.7758 22.14C25.7758 22.1395 25.7758 22.1391 25.7758 22.1386C25.7758 22.1382 25.7758 22.1378 25.7758 22.1373C25.7758 22.1369 25.7758 22.1364 25.7758 22.136C25.7758 22.1355 25.7758 22.1351 25.7758 22.1346C25.7758 22.1342 25.7758 22.1337 25.7758 22.1333C25.7758 22.1329 25.7758 22.1324 25.7758 22.132C25.7758 22.1315 25.7758 22.1311 25.7758 22.1306C25.7758 22.1302 25.7758 22.1297 25.7758 22.1293C25.7758 22.1288 25.7758 22.1284 25.7758 22.1279C25.7758 22.1275 25.7758 22.1271 25.7758 22.1266C25.7758 22.1262 25.7758 22.1257 25.7758 22.1253C25.7758 22.1248 25.7758 22.1244 25.7758 22.1239C25.7758 22.1235 25.7758 22.123 25.7758 22.1226C25.7758 22.1221 25.7758 22.1217 25.7758 22.1212C25.7758 22.1208 25.7758 22.1203 25.7758 22.1199C25.7758 22.1194 25.7758 22.119 25.7758 22.1185C25.7758 22.1181 25.7758 22.1176 25.7758 22.1172C25.7758 22.1167 25.7758 22.1163 25.7758 22.1158C25.7758 22.1154 25.7758 22.1149 25.7758 22.1145C25.7758 22.114 25.7758 22.1136 25.7758 22.1131C25.7758 22.1127 25.7758 22.1122 25.7758 22.1118C25.7758 22.1113 25.7758 22.1109 25.7758 22.1104C25.7758 22.11 25.7758 22.1095 25.7758 22.1091C25.7758 22.1086 25.7758 22.1082 25.7758 22.1077C25.7758 22.1073 25.7758 22.1068 25.7758 22.1063C25.7758 22.1059 25.7758 22.1054 25.7758 22.105C25.7758 22.1045 25.7758 22.1041 25.7758 22.1036C25.7758 22.1032 25.7758 22.1027 25.7758 22.1023H22.5653ZM24.1705 21.1687H12.2868V24.3792H24.1705V21.1687ZM10.6849 22.8773C10.9567 27.0904 14.458 29.8044 18.8228 29.8044V26.5939C15.7991 26.5939 14.0303 24.8644 13.8887 22.6706L10.6849 22.8773ZM18.8228 29.8044C20.7472 29.8044 22.5583 29.2955 23.9614 28.3818L22.2095 25.6914C21.3909 26.2244 20.2053 26.5939 18.8228 26.5939V29.8044ZM21.632 27.7179L22.0195 28.5446L24.9265 27.182L24.539 26.3553L21.632 27.7179ZM22.5953 26.5193C21.6221 27.1548 20.308 27.5497 18.797 27.5497V30.7603C20.8512 30.7603 22.7922 30.2252 24.3507 29.2073L22.5953 26.5193ZM18.797 27.5497C15.1428 27.5497 12.8587 25.2589 12.8587 22.3089H9.64816C9.64816 27.3159 13.6676 30.7603 18.797 30.7603V27.5497ZM12.8587 22.3089C12.8587 19.527 14.8267 17.5332 17.6603 17.5332V14.3226C13.0536 14.3226 9.64816 17.7539 9.64816 22.3089H12.8587ZM12.2868 23.475H23.1888V20.2645H12.2868V23.475ZM24.7891 21.7434C24.4885 17.9358 21.5184 15.2785 17.6861 15.2785V18.489C19.8991 18.489 21.4241 19.9135 21.5885 21.9961L24.7891 21.7434ZM17.6861 15.2785C13.8394 15.2785 10.9845 18.0014 10.6866 21.7423L13.887 21.9972C14.0541 19.8996 15.5394 18.489 17.6861 18.489V15.2785ZM40.8986 29V30.6053H42.7495L42.4877 28.773L40.8986 29ZM39.8652 29L38.2744 29.215L38.4623 30.6053H39.8652V29ZM39.5552 26.4941L41.1525 26.3344L40.5942 20.7515L38.1151 25.7848L39.5552 26.4941ZM34.7242 21.6631L34.5636 20.0659L34.5544 20.0668L34.7242 21.6631ZM39.3485 21.1981L39.5091 22.7953L40.9538 22.65V21.1981H39.3485ZM30.7457 18.0463L29.3013 18.7466L30.1331 20.4623L31.6819 19.3503L30.7457 18.0463ZM30.3324 17.1938L29.4353 15.8626L28.2803 16.6409L28.8879 17.8941L30.3324 17.1938ZM39.3485 22.1023L40.9536 22.0779L40.9271 20.3302L39.1879 20.5051L39.3485 22.1023ZM34.7242 22.5673L34.8811 24.1649L34.8848 24.1645L34.7242 22.5673ZM39.3744 23.8073H40.9796V23.7952L40.9794 23.783L39.3744 23.8073ZM34.75 17.5332C36.2474 17.5332 37.262 17.906 37.868 18.3932C38.4335 18.8478 38.7766 19.5037 38.7766 20.4489H41.9872C41.9872 18.6039 41.2581 16.9993 39.8797 15.891C38.5416 14.8153 36.7402 14.3226 34.75 14.3226V17.5332ZM38.7766 20.4489V22.5415H41.9872V20.4489H38.7766ZM38.7766 22.5415C38.7766 25.1506 38.9417 26.653 39.3094 29.227L42.4877 28.773C42.1321 26.2835 41.9872 24.9442 41.9872 22.5415H38.7766ZM40.8986 27.3947H39.8652V30.6053H40.8986V27.3947ZM41.456 28.785C41.3264 27.8256 41.2268 27.0775 41.1525 26.3344L37.9579 26.6538C38.0386 27.4608 38.1457 28.2626 38.2744 29.215L41.456 28.785ZM38.1151 25.7848C37.6215 26.7871 36.5132 27.5497 34.3108 27.5497V30.7603C37.2753 30.7603 39.7838 29.6629 40.9953 27.2034L38.1151 25.7848ZM34.3108 27.5497C32.9706 27.5497 32.1756 27.258 31.75 26.929C31.3878 26.6491 31.1368 26.226 31.1368 25.4607H27.9263C27.9263 27.0722 28.5278 28.4962 29.7867 29.4692C30.9822 30.3933 32.5768 30.7603 34.3108 30.7603V27.5497ZM31.1368 25.4607C31.1368 24.7568 31.3401 24.4207 31.7099 24.1501C32.2047 23.788 33.1564 23.4442 34.894 23.2593L34.5544 20.0668C32.6494 20.2695 31.0047 20.6878 29.8139 21.5593C28.498 22.5222 27.9263 23.8912 27.9263 25.4607H31.1368ZM34.8848 23.2603L39.5091 22.7953L39.1879 19.6009L34.5636 20.0659L34.8848 23.2603ZM40.9538 21.1981V20.5005H37.7433V21.1981H40.9538ZM40.9538 20.5005C40.9538 18.9064 40.2986 17.5234 39.0822 16.5806C37.913 15.6743 36.3655 15.2785 34.6984 15.2785V18.489C35.8988 18.489 36.6764 18.7778 37.1154 19.1181C37.5071 19.4217 37.7433 19.8471 37.7433 20.5005H40.9538ZM34.6984 15.2785C32.8015 15.2785 31.1213 15.8005 29.8095 16.7423L31.6819 19.3503C32.3853 18.8453 33.3918 18.489 34.6984 18.489V15.2785ZM32.1902 17.346L31.7768 16.4934L28.8879 17.8941L29.3013 18.7466L32.1902 17.346ZM31.2295 18.525C32.1333 17.9159 33.2886 17.5332 34.75 17.5332V14.3226C32.698 14.3226 30.9082 14.8699 29.4353 15.8626L31.2295 18.525ZM39.1879 20.5051L34.5636 20.9701L34.8848 24.1645L39.5091 23.6995L39.1879 20.5051ZM34.5673 20.9697C33.0373 21.12 31.6684 21.4439 30.6517 22.1411C29.5071 22.926 28.9596 24.0775 28.9596 25.409H32.1702C32.1702 25.0614 32.2557 24.9341 32.4673 24.7889C32.8069 24.5561 33.5177 24.2988 34.8811 24.1649L34.5673 20.9697ZM28.9596 25.409C28.9596 26.7874 29.5406 27.9871 30.6591 28.7814C31.7016 29.5217 33.0584 29.8044 34.4917 29.8044V26.5939C33.419 26.5939 32.8124 26.3728 32.518 26.1637C32.2996 26.0086 32.1702 25.8132 32.1702 25.409H28.9596ZM34.4917 29.8044C36.2994 29.8044 37.956 29.3567 39.1758 28.2651C40.4236 27.1483 40.9796 25.5691 40.9796 23.8073H37.7691C37.7691 24.8873 37.4467 25.504 37.0347 25.8727C36.5946 26.2666 35.8099 26.5939 34.4917 26.5939V29.8044ZM40.9794 23.783L40.9536 22.0779L37.7434 22.1266L37.7693 23.8316L40.9794 23.783ZM48.9302 25.7449L50.3401 24.9775L47.3249 25.7449H48.9302ZM48.9302 34.9419V36.5471H50.5354V34.9419H48.9302ZM47.871 34.9419H46.2657V36.5471H47.871V34.9419ZM47.3543 16.0829V14.4776H45.4846L45.7675 16.3258L47.3543 16.0829ZM48.4135 16.0829L50.0008 15.8433L49.7946 14.4776H48.4135V16.0829ZM48.8268 19.5447L47.2259 19.6618L47.6559 25.5396L50.2661 20.2556L48.8268 19.5447ZM59.5703 22.5415C59.5703 25.3741 57.3967 27.5497 54.6654 27.5497V30.7603C59.2193 30.7603 62.7809 27.0974 62.7809 22.5415H59.5703ZM54.6654 27.5497C52.7734 27.5497 51.1825 26.5252 50.3401 24.9775L47.5202 26.5123C48.8996 29.0464 51.5456 30.7603 54.6654 30.7603V27.5497ZM47.3249 25.7449V34.9419H50.5354V25.7449H47.3249ZM48.9302 33.3366H47.871V36.5471H48.9302V33.3366ZM49.4762 34.9419V22.5415H46.2657V34.9419H49.4762ZM49.4762 22.5415C49.4762 19.9422 49.3389 18.4393 48.9411 15.84L45.7675 16.3258C46.1447 18.79 46.2657 20.1289 46.2657 22.5415H49.4762ZM47.3543 17.6882H48.4135V14.4776H47.3543V17.6882ZM46.8262 16.3225C47.0298 17.6715 47.1526 18.6601 47.2259 19.6618L50.4278 19.4275C50.3461 18.3109 50.2105 17.2327 50.0008 15.8433L46.8262 16.3225ZM50.2661 20.2556C51.0645 18.6394 52.7144 17.5332 54.6654 17.5332V14.3226C51.4495 14.3226 48.7076 16.1615 47.3876 18.8337L50.2661 20.2556ZM54.6654 17.5332C57.3967 17.5332 59.5703 19.7088 59.5703 22.5415H62.7809C62.7809 17.9855 59.2193 14.3226 54.6654 14.3226V17.5332ZM61.7217 22.5415C61.7217 18.5031 58.5745 15.356 54.5362 15.356V18.5665C56.8014 18.5665 58.5111 20.2762 58.5111 22.5415H61.7217ZM54.5362 15.356C50.5188 15.356 47.3766 18.508 47.3766 22.5415H50.5871C50.5871 20.2713 52.3017 18.5665 54.5362 18.5665V15.356ZM47.3766 22.5415C47.3766 26.5749 50.5188 29.7269 54.5362 29.7269V26.5164C52.3017 26.5164 50.5871 24.8116 50.5871 22.5415H47.3766ZM54.5362 29.7269C58.5745 29.7269 61.7217 26.5798 61.7217 22.5415H58.5111C58.5111 24.8067 56.8014 26.5164 54.5362 26.5164V29.7269ZM66.0568 27.4499L64.6033 26.7686L64.0733 27.8994L65.039 28.6912L66.0568 27.4499ZM66.4444 26.6233L67.4505 25.3724L65.8582 24.0917L64.9909 25.9419L66.4444 26.6233ZM71.1979 22.9806L71.6745 21.4477L71.6631 21.4443L71.1979 22.9806ZM75.5122 17.633L76.9657 18.3143L77.4903 17.195L76.5423 16.4018L75.5122 17.633ZM75.1246 18.4596L74.0915 19.6883L75.6911 21.0334L76.5781 19.141L75.1246 18.4596ZM71.3012 21.9731L70.7974 23.4973L70.8051 23.4998L70.8127 23.5022L71.3012 21.9731ZM71.2237 27.5497C69.3697 27.5497 68.0576 27.0146 67.0747 26.2087L65.039 28.6912C66.6395 30.0037 68.6858 30.7603 71.2237 30.7603V27.5497ZM67.5103 28.1313L67.8979 27.3046L64.9909 25.9419L64.6033 26.7686L67.5103 28.1313ZM65.4382 27.8741C66.9245 29.0695 68.8593 29.8044 71.2495 29.8044V26.5939C69.5579 26.5939 68.341 26.0887 67.4505 25.3724L65.4382 27.8741ZM71.2495 29.8044C72.671 29.8044 74.0007 29.5452 75.0354 28.9452C76.1157 28.3187 76.9366 27.2594 76.9366 25.8482H73.7261C73.7261 25.8579 73.759 25.9741 73.4249 26.1679C73.0452 26.388 72.334 26.5939 71.2495 26.5939V29.8044ZM76.9366 25.8482C76.9366 25.2957 76.8057 24.7437 76.4988 24.2258C76.2024 23.7256 75.7884 23.3355 75.3349 23.0197C74.4671 22.4152 73.2263 21.9303 71.6745 21.4478L70.7212 24.5135C72.2437 24.9869 73.0696 25.3544 73.5 25.6542C73.5964 25.7213 73.6565 25.7742 73.6924 25.8105C73.71 25.8284 73.7213 25.8416 73.7279 25.8501C73.7312 25.8544 73.7335 25.8575 73.7348 25.8595C73.7355 25.8605 73.736 25.8612 73.7363 25.8617C73.7366 25.8622 73.7368 25.8624 73.7368 25.8624C73.7368 25.8624 73.7366 25.8622 73.7364 25.8618C73.7362 25.8614 73.7358 25.8608 73.7354 25.86C73.7346 25.8584 73.7336 25.8562 73.7325 25.8536C73.7302 25.848 73.7282 25.8422 73.7268 25.8369C73.7237 25.8249 73.7261 25.8261 73.7261 25.8482H76.9366ZM71.6631 21.4443C69.863 20.8992 68.8406 20.4236 68.2828 19.9941C67.8321 19.6469 67.7654 19.4064 67.7654 19.1055H64.5549C64.5549 20.5097 65.1729 21.6513 66.3239 22.5377C67.3678 23.3417 68.8642 23.9512 70.7326 24.517L71.6631 21.4443ZM67.7654 19.1055C67.7654 18.6884 67.9259 18.3717 68.3079 18.1029C68.7411 17.7981 69.5145 17.5332 70.6812 17.5332V14.3226C69.0836 14.3226 67.5965 14.6777 66.4603 15.4773C65.2729 16.3129 64.5549 17.585 64.5549 19.1055H67.7654ZM70.6812 17.5332C72.2634 17.5332 73.5015 18.0436 74.482 18.8641L76.5423 16.4018C74.9911 15.1039 73.0258 14.3226 70.6812 14.3226V17.5332ZM74.0587 16.9516L73.6712 17.7783L76.5781 19.141L76.9657 18.3143L74.0587 16.9516ZM76.1578 17.231C74.742 16.0405 72.9065 15.2785 70.6812 15.2785V18.489C72.1243 18.489 73.2339 18.9671 74.0915 19.6883L76.1578 17.231ZM70.6812 15.2785C69.4345 15.2785 68.2345 15.5252 67.2883 16.1078C66.2959 16.719 65.5625 17.734 65.5625 19.0538H68.773C68.773 19.0204 68.7783 19.0126 68.7844 19.0028C68.7953 18.985 68.8403 18.9226 68.9718 18.8416C69.2527 18.6686 69.8094 18.489 70.6812 18.489V15.2785ZM65.5625 19.0538C65.5625 20.295 66.2143 21.2143 67.1681 21.8848C68.0302 22.4908 69.2625 22.99 70.7974 23.4973L71.8049 20.4489C70.2915 19.9487 69.457 19.5695 69.0145 19.2583C68.8117 19.1158 68.7633 19.036 68.7622 19.0341C68.7618 19.0335 68.7633 19.036 68.7656 19.0413C68.7678 19.0466 68.7699 19.0526 68.7715 19.0585C68.775 19.0717 68.773 19.0727 68.773 19.0538H65.5625ZM70.8127 23.5022C72.651 24.0895 73.6792 24.5709 74.2371 24.9995C74.6783 25.3385 74.7336 25.5583 74.7336 25.8482H77.9441C77.9441 24.4589 77.3407 23.3353 76.1931 22.4536C75.1622 21.6616 73.6715 21.0451 71.7897 20.444L70.8127 23.5022ZM74.7336 25.8482C74.7336 26.2604 74.5687 26.6056 74.0847 26.9171C73.5414 27.2668 72.5994 27.5497 71.2237 27.5497V30.7603C72.974 30.7603 74.5895 30.4103 75.8223 29.6168C77.1144 28.7852 77.9441 27.4769 77.9441 25.8482H74.7336ZM92.9827 29V30.6053H94.8336L94.5719 28.773L92.9827 29ZM91.9494 29L90.3586 29.215L90.5464 30.6053H91.9494V29ZM91.6394 26.4941L93.2367 26.3344L92.6784 20.7515L90.1993 25.7848L91.6394 26.4941ZM86.8084 21.6631L86.6478 20.0659L86.6386 20.0668L86.8084 21.6631ZM91.4327 21.1981L91.5933 22.7953L93.038 22.65V21.1981H91.4327ZM82.8299 18.0463L81.3855 18.7466L82.2173 20.4623L83.7661 19.3503L82.8299 18.0463ZM82.4166 17.1938L81.5194 15.8626L80.3645 16.6409L80.9721 17.8941L82.4166 17.1938ZM91.4327 22.1023L93.0378 22.0779L93.0113 20.3302L91.2721 20.5051L91.4327 22.1023ZM86.8084 22.5673L86.9653 24.1649L86.969 24.1645L86.8084 22.5673ZM91.4585 23.8073H93.0638V23.7952L93.0636 23.783L91.4585 23.8073ZM86.8342 17.5332C88.3316 17.5332 89.3462 17.906 89.9521 18.3932C90.5177 18.8478 90.8608 19.5037 90.8608 20.4489H94.0713C94.0713 18.6039 93.3423 16.9993 91.9638 15.891C90.6258 14.8153 88.8244 14.3226 86.8342 14.3226V17.5332ZM90.8608 20.4489V22.5415H94.0713V20.4489H90.8608ZM90.8608 22.5415C90.8608 25.1506 91.0259 26.653 91.3936 29.227L94.5719 28.773C94.2162 26.2835 94.0713 24.9442 94.0713 22.5415H90.8608ZM92.9827 27.3947H91.9494V30.6053H92.9827V27.3947ZM93.5402 28.785C93.4105 27.8256 93.311 27.0775 93.2367 26.3344L90.0421 26.6538C90.1228 27.4608 90.2299 28.2626 90.3586 29.215L93.5402 28.785ZM90.1993 25.7848C89.7057 26.7871 88.5974 27.5497 86.395 27.5497V30.7603C89.3595 30.7603 91.868 29.6629 93.0794 27.2034L90.1993 25.7848ZM86.395 27.5497C85.0548 27.5497 84.2598 27.258 83.8342 26.929C83.472 26.6491 83.221 26.226 83.221 25.4607H80.0104C80.0104 27.0722 80.6119 28.4962 81.8708 29.4692C83.0663 30.3933 84.661 30.7603 86.395 30.7603V27.5497ZM83.221 25.4607C83.221 24.7568 83.4243 24.4207 83.7941 24.1501C84.2889 23.788 85.2406 23.4442 86.9782 23.2593L86.6386 20.0668C84.7336 20.2695 83.0889 20.6878 81.898 21.5593C80.5821 22.5222 80.0104 23.8912 80.0104 25.4607H83.221ZM86.969 23.2603L91.5933 22.7953L91.2721 19.6009L86.6478 20.0659L86.969 23.2603ZM93.038 21.1981V20.5005H89.8274V21.1981H93.038ZM93.038 20.5005C93.038 18.9064 92.3828 17.5234 91.1664 16.5806C89.9972 15.6743 88.4496 15.2785 86.7825 15.2785V18.489C87.983 18.489 88.7605 18.7778 89.1995 19.1181C89.5913 19.4217 89.8274 19.8471 89.8274 20.5005H93.038ZM86.7825 15.2785C84.8857 15.2785 83.2054 15.8005 81.8937 16.7423L83.7661 19.3503C84.4694 18.8453 85.476 18.489 86.7825 18.489V15.2785ZM84.2743 17.346L83.861 16.4934L80.9721 17.8941L81.3855 18.7466L84.2743 17.346ZM83.3137 18.525C84.2175 17.9159 85.3728 17.5332 86.8342 17.5332V14.3226C84.7822 14.3226 82.9924 14.8699 81.5194 15.8626L83.3137 18.525ZM91.2721 20.5051L86.6478 20.9701L86.969 24.1645L91.5933 23.6995L91.2721 20.5051ZM86.6515 20.9697C85.1215 21.12 83.7526 21.4439 82.7359 22.1411C81.5912 22.926 81.0438 24.0775 81.0438 25.409H84.2543C84.2543 25.0614 84.3398 24.9341 84.5515 24.7889C84.891 24.5561 85.6018 24.2988 86.9653 24.1649L86.6515 20.9697ZM81.0438 25.409C81.0438 26.7874 81.6248 27.9871 82.7433 28.7814C83.7858 29.5217 85.1426 29.8044 86.5759 29.8044V26.5939C85.5032 26.5939 84.8966 26.3728 84.6022 26.1637C84.3838 26.0086 84.2543 25.8132 84.2543 25.409H81.0438ZM86.5759 29.8044C88.3836 29.8044 90.0402 29.3567 91.2599 28.2651C92.5078 27.1483 93.0638 25.5691 93.0638 23.8073H89.8533C89.8533 24.8873 89.5309 25.504 89.1189 25.8727C88.6788 26.2666 87.8941 26.5939 86.5759 26.5939V29.8044ZM93.0636 23.783L93.0378 22.0779L89.8276 22.1266L89.8534 23.8316L93.0636 23.783ZM99.9269 29H98.3216V30.6053H99.9269V29ZM99.9269 16.0829V14.4776H98.3216V16.0829H99.9269ZM100.986 16.0829H102.591V14.4776H100.986V16.0829ZM100.986 29V30.6053H102.591V29H100.986ZM101.015 11.6136C101.015 11.751 100.955 11.9096 100.832 12.0286C100.713 12.1437 100.574 12.1855 100.469 12.1855V8.97495C99.0413 8.97495 97.8049 10.0811 97.8049 11.6136H101.015ZM100.469 12.1855C100.36 12.1855 100.204 12.1396 100.074 12.0092C99.9434 11.8787 99.8975 11.7228 99.8975 11.6136H103.108C103.108 10.1328 101.95 8.97495 100.469 8.97495V12.1855ZM99.8975 11.6136C99.8975 11.5092 99.9393 11.3698 100.054 11.2506C100.173 11.1275 100.332 11.0675 100.469 11.0675V14.278C102.002 14.278 103.108 13.0417 103.108 11.6136H99.8975ZM100.469 11.0675C100.601 11.0675 100.744 11.1227 100.852 11.2309C100.96 11.3391 101.015 11.4817 101.015 11.6136H97.8049C97.8049 13.0943 98.9887 14.278 100.469 14.278V11.0675ZM101.532 29V16.0829H98.3216V29H101.532ZM99.9269 17.6882H100.986V14.4776H99.9269V17.6882ZM99.3808 16.0829V29H102.591V16.0829H99.3808ZM100.986 27.3947H99.9269V30.6053H100.986V27.3947ZM108.483 9.77936L108.033 8.23872L106.878 8.57658V9.77936H108.483ZM109.543 9.46934H111.148V7.3269L109.092 7.92871L109.543 9.46934ZM112.281 28.0441H113.886V26.4389H112.281V28.0441ZM112.281 29.0258V30.6311H113.886V29.0258H112.281ZM110.089 26.4166V9.77936H106.878V26.4166H110.089ZM108.934 11.32L109.994 11.01L109.092 7.92871L108.033 8.23872L108.934 11.32ZM107.937 9.46934V26.3391H111.148V9.46934H107.937ZM107.937 26.3391C107.937 27.2403 108.268 28.0911 108.907 28.7165C109.543 29.3388 110.392 29.6494 111.274 29.6494V26.4389C111.208 26.4389 111.171 26.4277 111.158 26.4225C111.145 26.4175 111.146 26.4156 111.153 26.4223C111.16 26.4292 111.162 26.4344 111.16 26.4299C111.158 26.4249 111.148 26.3976 111.148 26.3391H107.937ZM111.274 29.6494H112.281V26.4389H111.274V29.6494ZM110.676 28.0441V29.0258H113.886V28.0441H110.676ZM112.281 27.4206H111.196V30.6311H112.281V27.4206ZM111.196 27.4206C110.753 27.4206 110.491 27.2793 110.35 27.1441C110.215 27.0142 110.089 26.7933 110.089 26.4166H106.878C106.878 27.59 107.307 28.6736 108.128 29.4608C108.943 30.2427 110.037 30.6311 111.196 30.6311V27.4206ZM119.418 28.1475C119.418 28.2873 119.36 28.4442 119.238 28.5657C119.117 28.6871 118.96 28.7452 118.82 28.7452V25.5347C117.365 25.5347 116.207 26.6926 116.207 28.1475H119.418ZM118.82 28.7452C118.68 28.7452 118.523 28.6871 118.402 28.5657C118.28 28.4442 118.222 28.2873 118.222 28.1475H121.433C121.433 26.6926 120.275 25.5347 118.82 25.5347V28.7452ZM118.222 28.1475C118.222 28.0076 118.28 27.8507 118.402 27.7293C118.523 27.6078 118.68 27.5497 118.82 27.5497V30.7603C120.275 30.7603 121.433 29.6024 121.433 28.1475H118.222ZM118.82 27.5497C118.96 27.5497 119.117 27.6078 119.238 27.7293C119.36 27.8507 119.418 28.0076 119.418 28.1475H116.207C116.207 29.6024 117.365 30.7603 118.82 30.7603V27.5497Z" fill="#D1D5DB"/>
<path d="M69.9561 36.6319C76.5815 35.9465 90.5864 34.9869 93.6021 36.6319C96.6179 38.2768 79.0946 37.3173 69.9561 36.6319Z" fill="#D1D5DB" stroke="#D1D5DB" stroke-width="1.02809"/>
</svg>
