<svg width="496" height="206" viewBox="0 0 496 206" fill="none" xmlns="http://www.w3.org/2000/svg">
<g clip-path="url(#clip0_3780_40231)">
<rect x="16" y="70.4258" width="295.549" height="82.3337" transform="rotate(-13.8106 16 70.4258)" fill="#228B22"/>
<rect x="13" y="59.4258" width="12.998" height="82.3337" transform="rotate(-13.8106 13 59.4258)" fill="#FF823B"/>
<rect y="138.844" width="493.658" height="68.8877" transform="rotate(-13.8106 0 138.844)" fill="#FF823B"/>
<rect x="484.067" y="13.6875" width="14.1158" height="184.253" transform="rotate(75.692 484.067 13.6875)" fill="#228B22"/>
<path d="M78.7018 87.7056L79.446 90.7356L85.941 89.1403L86.2692 90.4765L78.2826 92.4382L75.8057 82.354L83.7767 80.3961L84.1049 81.7324L77.6255 83.3239L78.3812 86.4004L83.6797 85.099L84.0003 86.4042L78.7018 87.7056ZM87.2252 87.5727L88.5926 87.2368C88.7462 87.6384 89.0166 87.9345 89.4039 88.1249C89.7886 88.305 90.271 88.3238 90.8511 88.1814C91.224 88.0898 91.5039 87.9771 91.6907 87.8433C91.875 87.6992 91.9895 87.5393 92.0342 87.3635C92.0892 87.1853 92.0939 87.0029 92.0481 86.8164C91.9895 86.5782 91.8829 86.4122 91.728 86.3184C91.5707 86.2143 91.3678 86.1488 91.1196 86.1219C90.8688 86.0846 90.5778 86.0627 90.2467 86.0562C89.882 86.0469 89.5134 86.0221 89.1411 85.9818C88.7687 85.9414 88.4159 85.8688 88.0826 85.764C87.7596 85.6566 87.4783 85.495 87.2386 85.2793C87.0067 85.0507 86.8437 84.7447 86.7495 84.3615C86.6707 84.0403 86.6642 83.7234 86.7302 83.4106C86.8065 83.0953 86.95 82.8075 87.1606 82.547C87.379 82.2737 87.6516 82.042 87.9784 81.8519C88.3026 81.6514 88.6771 81.499 89.1018 81.3947C89.6922 81.2497 90.2161 81.2363 90.6736 81.3546C91.1285 81.4626 91.5065 81.6828 91.8079 82.0151C92.1195 82.345 92.3416 82.7572 92.4741 83.2519L91.1689 83.5725C90.9895 83.1553 90.7617 82.8762 90.4855 82.7354C90.2067 82.5842 89.8394 82.5645 89.3836 82.6765C88.9382 82.7859 88.618 82.9579 88.423 83.1925C88.228 83.4272 88.1674 83.6947 88.2412 83.9951C88.2972 84.223 88.4258 84.3891 88.6272 84.4934C88.826 84.5873 89.078 84.6518 89.3831 84.6866C89.6882 84.7215 90.0309 84.7527 90.4111 84.7801C90.7706 84.8127 91.1158 84.8542 91.4467 84.9047C91.7854 84.9423 92.0943 85.0147 92.3733 85.122C92.66 85.2163 92.9026 85.3764 93.1008 85.6023C93.3069 85.8153 93.4558 86.1082 93.5474 86.4811C93.6593 86.9369 93.6433 87.3637 93.4994 87.7615C93.3529 88.149 93.0851 88.4894 92.6958 88.7827C92.3169 89.0735 91.8218 89.2939 91.2107 89.444C90.6513 89.5814 90.1583 89.6311 89.7315 89.5932C89.3152 89.5526 88.9456 89.4567 88.6229 89.3053C88.3105 89.1514 88.0525 88.9731 87.849 88.7705C87.6532 88.5549 87.5015 88.3396 87.3937 88.1244C87.2963 87.9067 87.2401 87.7228 87.2252 87.5727ZM102.494 83.3611C102.589 84.0186 102.519 84.6289 102.284 85.1919C102.057 85.742 101.694 86.21 101.196 86.596C100.697 86.982 100.107 87.259 99.4228 87.4269C98.6666 87.6127 97.9344 87.6278 97.2262 87.4722C96.5155 87.3063 95.8947 86.97 95.3638 86.4633C94.8408 85.9438 94.4762 85.2644 94.2701 84.4254C94.0615 83.576 94.0698 82.8051 94.2952 82.1127C94.5283 81.4073 94.9214 80.8165 95.4744 80.3402C96.0274 79.8639 96.682 79.5328 97.4382 79.3471C98.1219 79.1792 98.7688 79.1521 99.3789 79.2658C99.9889 79.3796 100.527 79.6263 100.994 80.0059C101.458 80.3752 101.805 80.8721 102.036 81.4965L100.684 81.8285C100.37 81.3124 99.9462 80.9498 99.4116 80.7406C98.8847 80.5185 98.3313 80.4787 97.7512 80.6212C97.2747 80.7383 96.856 80.9564 96.495 81.2758C96.1445 81.5925 95.8958 81.9886 95.749 82.464C95.6099 82.9265 95.6142 83.4582 95.7618 84.059C95.9043 84.6391 96.1455 85.1071 96.4855 85.4629C96.8334 85.8058 97.236 86.0364 97.6934 86.1547C98.1483 86.2627 98.6192 86.2569 99.106 86.1373C99.769 85.9744 100.268 85.6816 100.604 85.2587C100.939 84.8358 101.124 84.3127 101.157 83.6893L102.494 83.3611ZM108.01 85.3014C107.347 85.4642 106.699 85.4421 106.066 85.2351C105.433 85.0281 104.882 84.6637 104.413 84.1418C103.942 83.6095 103.61 82.9497 103.416 82.1624C103.223 81.3752 103.213 80.6417 103.386 79.962C103.568 79.2694 103.901 78.6822 104.387 78.2004C104.87 77.7083 105.464 77.3757 106.169 77.2027C106.946 77.0119 107.591 77.0456 108.105 77.3038C108.629 77.5595 109.049 77.9726 109.365 78.5431C109.691 79.111 109.945 79.7678 110.129 80.5137C110.23 80.928 110.287 81.381 110.298 81.8726C110.309 82.3642 110.251 82.8451 110.125 83.3155C109.999 83.7858 109.766 84.2 109.425 84.5582C109.082 84.9061 108.61 85.1538 108.01 85.3014ZM108.112 83.9086C108.661 83.7738 109.093 83.5414 109.407 83.2116C109.73 82.8688 109.933 82.4674 110.018 82.0072C110.102 81.5471 110.082 81.0632 109.958 80.5557C109.823 80.0066 109.606 79.5491 109.308 79.1831C109.019 78.8146 108.656 78.5634 108.216 78.4297C107.787 78.2934 107.304 78.2914 106.765 78.4237C105.957 78.6221 105.394 79.035 105.076 79.6624C104.768 80.2872 104.712 80.9984 104.908 81.796C105.04 82.3347 105.266 82.7845 105.585 83.1454C105.902 83.496 106.276 83.7446 106.708 83.8912C107.147 84.025 107.615 84.0308 108.112 83.9086ZM109.004 76.6711L110.495 76.3047L112.4 84.0583L111.032 84.3941C111.032 84.3941 110.999 84.3034 110.933 84.1221C110.864 83.9303 110.786 83.7024 110.699 83.4381C110.612 83.1739 110.543 82.9382 110.492 82.731L109.004 76.6711ZM118.816 82.6636C118.215 82.8112 117.681 82.8051 117.213 82.6454C116.745 82.4856 116.347 82.2266 116.017 81.8682C115.687 81.5098 115.414 81.1103 115.196 80.6696C114.977 80.2289 114.817 79.8013 114.716 79.387C114.578 78.8276 114.496 78.293 114.47 77.7833C114.454 77.271 114.514 76.8004 114.651 76.3715C114.787 75.9426 115.032 75.575 115.385 75.2685C115.738 74.9621 116.22 74.7339 116.831 74.5838C117.504 74.4184 118.154 74.4456 118.779 74.6655C119.401 74.8751 119.948 75.246 120.42 75.7783C120.901 76.308 121.237 76.9613 121.428 77.7382C121.624 78.5359 121.631 79.281 121.45 79.9736C121.266 80.6558 120.942 81.2353 120.477 81.7119C120.022 82.1861 119.468 82.5033 118.816 82.6636ZM118.076 81.4614C118.573 81.3393 118.985 81.1172 119.312 80.7952C119.637 80.4628 119.853 80.0692 119.961 79.6143C120.077 79.1465 120.069 78.6433 119.937 78.1046C119.741 77.307 119.356 76.7039 118.784 76.2954C118.221 75.8843 117.536 75.778 116.728 75.9765C116.241 76.0961 115.834 76.3169 115.507 76.6389C115.19 76.9584 114.974 77.352 114.858 77.8198C114.742 78.2876 114.752 78.796 114.887 79.345C115.014 79.8629 115.222 80.3062 115.51 80.6747C115.806 81.0304 116.171 81.2867 116.605 81.4437C117.036 81.5904 117.527 81.5963 118.076 81.4614ZM112.441 75.8269L113.87 75.4757L114.364 77.2163L116.6 86.3216L115.109 86.688L112.441 75.8269ZM129.299 77.2383L130.713 76.891C130.755 77.419 130.67 77.9231 130.459 78.4034C130.247 78.8837 129.917 79.3054 129.468 79.6683C129.019 80.0312 128.452 80.2966 127.769 80.4646C126.961 80.663 126.199 80.6689 125.483 80.4823C124.767 80.2957 124.154 79.9465 123.644 79.4347C123.134 78.923 122.781 78.2683 122.585 77.4706C122.386 76.6627 122.389 75.915 122.594 75.2277C122.796 74.53 123.166 73.9339 123.703 73.4394C124.241 72.9449 124.909 72.5997 125.706 72.4038C126.545 72.1977 127.29 72.1904 127.942 72.382C128.593 72.5735 129.133 72.9625 129.563 73.549C130 74.1225 130.311 74.8973 130.496 75.8734L124.141 77.4344C124.307 77.8878 124.549 78.2678 124.866 78.5744C125.193 78.8784 125.574 79.087 126.008 79.2C126.453 79.3105 126.929 79.3034 127.436 79.1787C128.006 79.0388 128.451 78.7922 128.77 78.4391C129.09 78.086 129.266 77.6858 129.299 77.2383ZM126.035 73.6741C125.361 73.8395 124.847 74.1582 124.49 74.6301C124.131 75.0917 123.952 75.6356 123.952 76.2617L128.722 75.09C128.525 74.4683 128.179 74.0426 127.683 73.8129C127.185 73.5728 126.636 73.5265 126.035 73.6741ZM133.899 70.5562L138.918 69.3234L139.235 70.6131L134.216 71.8458L133.899 70.5562ZM135.167 68.07L136.643 67.7075L139.051 77.512L137.575 77.8746L135.167 68.07ZM148.248 75.253L147.1 70.576C146.998 70.1617 146.846 69.8364 146.646 69.6001C146.445 69.3639 146.193 69.2115 145.891 69.143C145.586 69.0641 145.226 69.0756 144.812 69.1773C144.356 69.2893 143.963 69.5011 143.633 69.8128C143.311 70.1116 143.076 70.4715 142.927 70.8926C142.775 71.3033 142.728 71.7377 142.785 72.1959L142.552 71.314C142.505 70.8973 142.521 70.4925 142.6 70.0996C142.69 69.7041 142.832 69.3451 143.027 69.0225C143.233 68.6974 143.494 68.4191 143.811 68.1875C144.127 67.956 144.493 67.7894 144.907 67.6876C145.342 67.5807 145.751 67.5462 146.134 67.584C146.514 67.6114 146.859 67.7189 147.169 67.9065C147.486 68.0811 147.756 68.328 147.977 68.6471C148.195 68.9559 148.359 69.333 148.469 69.7784L149.724 74.8904L148.248 75.253ZM142.422 76.6842L139.754 65.823L141.23 65.4605L143.898 76.3216L142.422 76.6842ZM157.052 70.4215L158.466 70.0742C158.508 70.6021 158.423 71.1063 158.212 71.5866C158 72.0669 157.67 72.4885 157.221 72.8514C156.772 73.2144 156.205 73.4798 155.522 73.6477C154.714 73.8462 153.952 73.8521 153.236 73.6655C152.52 73.4788 151.907 73.1296 151.397 72.6179C150.887 72.1061 150.534 71.4514 150.338 70.6538C150.139 69.8458 150.143 69.0982 150.347 68.4109C150.549 67.7132 150.919 67.1171 151.457 66.6226C151.994 66.1281 152.662 65.7829 153.459 65.587C154.299 65.3809 155.044 65.3736 155.695 65.5651C156.346 65.7567 156.886 66.1457 157.316 66.7321C157.753 67.3057 158.064 68.0805 158.249 69.0566L151.894 70.6175C152.061 71.071 152.302 71.451 152.619 71.7575C152.946 72.0616 153.327 72.2701 153.761 72.3831C154.206 72.4936 154.682 72.4865 155.189 72.3619C155.759 72.2219 156.204 71.9754 156.524 71.6223C156.843 71.2692 157.019 70.8689 157.052 70.4215ZM153.788 66.8573C153.115 67.0227 152.6 67.3413 152.243 67.8133C151.884 68.2749 151.705 68.8187 151.705 69.4448L156.475 68.2731C156.279 67.6514 155.932 67.2257 155.437 66.996C154.938 66.756 154.389 66.7097 153.788 66.8573ZM168.571 70.4425C167.97 70.5901 167.436 70.584 166.968 70.4242C166.501 70.2645 166.102 70.0054 165.773 69.6471C165.443 69.2887 165.169 68.8892 164.951 68.4485C164.733 68.0078 164.573 67.5802 164.471 67.1659C164.334 66.6065 164.252 66.0719 164.226 65.5622C164.21 65.0499 164.27 64.5793 164.406 64.1504C164.542 63.7215 164.787 63.3538 165.14 63.0474C165.493 62.741 165.975 62.5128 166.587 62.3627C167.26 62.1973 167.909 62.2245 168.534 62.4444C169.157 62.6539 169.704 63.0249 170.175 63.5572C170.657 64.0869 170.993 64.7402 171.184 65.5171C171.38 66.3148 171.387 67.0599 171.205 67.7525C171.022 68.4347 170.697 69.0141 170.232 69.4908C169.777 69.965 169.224 70.2822 168.571 70.4425ZM167.831 69.2403C168.328 69.1182 168.74 68.8961 169.068 68.5741C169.393 68.2417 169.609 67.8481 169.717 67.3932C169.833 66.9254 169.824 66.4222 169.692 65.8835C169.496 65.0859 169.112 64.4828 168.539 64.0743C167.977 63.6632 167.292 63.5569 166.484 63.7554C165.997 63.8749 165.59 64.0958 165.263 64.4178C164.946 64.7373 164.729 65.1309 164.613 65.5987C164.498 66.0665 164.507 66.5749 164.642 67.1239C164.769 67.6418 164.977 68.0851 165.265 68.4536C165.561 68.8093 165.926 69.0656 166.36 69.2226C166.792 69.3693 167.282 69.3752 167.831 69.2403ZM162.196 63.6057L163.626 63.2546L164.119 64.9952L166.356 74.1005L164.864 74.4669L162.196 63.6057ZM176.93 68.3729C176.267 68.5358 175.619 68.5137 174.986 68.3067C174.353 68.0997 173.802 67.7353 173.333 67.2133C172.862 66.681 172.53 66.0213 172.336 65.234C172.143 64.4467 172.133 63.7133 172.307 63.0336C172.488 62.341 172.822 61.7538 173.307 61.272C173.791 60.7799 174.384 60.4473 175.089 60.2743C175.866 60.0835 176.511 60.1172 177.025 60.3754C177.549 60.6311 177.969 61.0442 178.285 61.6146C178.611 62.1825 178.866 62.8394 179.049 63.5853C179.151 63.9996 179.207 64.4526 179.218 64.9442C179.229 65.4357 179.171 65.9167 179.045 66.387C178.919 66.8574 178.686 67.2716 178.345 67.6298C178.002 67.9777 177.531 68.2254 176.93 68.3729ZM177.032 66.9802C177.581 66.8454 178.013 66.613 178.328 66.2832C178.65 65.9404 178.853 65.539 178.938 65.0788C179.023 64.6187 179.003 64.1348 178.878 63.6272C178.743 63.0782 178.526 62.6207 178.228 62.2547C177.94 61.8861 177.576 61.635 177.137 61.5012C176.708 61.3649 176.224 61.363 175.685 61.4953C174.877 61.6937 174.314 62.1066 173.996 62.734C173.688 63.3588 173.632 64.07 173.828 64.8676C173.96 65.4063 174.186 65.8561 174.505 66.217C174.822 66.5675 175.196 66.8161 175.628 66.9628C176.067 67.0965 176.535 67.1024 177.032 66.9802ZM177.924 59.7427L179.415 59.3763L181.32 67.1298L179.953 67.4657C179.953 67.4657 179.919 67.375 179.853 67.1936C179.784 67.0019 179.706 66.7739 179.619 66.5097C179.532 66.2455 179.463 66.0098 179.412 65.8026L177.924 59.7427ZM180.662 59.0702L182.247 58.6809L187.043 65.3947L185.829 66.0222L180.662 59.0702ZM188.571 57.1276L186.593 69.1299L185.023 69.5153L185.993 64.8122L187.001 57.513L188.571 57.1276ZM198.348 59.8171C198.443 60.4746 198.373 61.0849 198.138 61.6479C197.911 62.198 197.548 62.666 197.05 63.052C196.551 63.438 195.96 63.715 195.277 63.8829C194.521 64.0687 193.788 64.0838 193.08 63.9282C192.369 63.7623 191.749 63.426 191.218 62.9193C190.695 62.3998 190.33 61.7205 190.124 60.8814C189.915 60.032 189.924 59.2611 190.149 58.5687C190.382 57.8633 190.775 57.2725 191.328 56.7962C191.881 56.3199 192.536 55.9888 193.292 55.8031C193.976 55.6352 194.623 55.6081 195.233 55.7218C195.843 55.8356 196.381 56.0823 196.848 56.4619C197.312 56.8312 197.659 57.3281 197.89 57.9525L196.538 58.2845C196.224 57.7684 195.8 57.4058 195.266 57.1966C194.739 56.9745 194.185 56.9347 193.605 57.0772C193.129 57.1943 192.71 57.4124 192.349 57.7318C191.998 58.0485 191.75 58.4446 191.603 58.92C191.464 59.3825 191.468 59.9142 191.616 60.515C191.758 61.0951 192 61.5631 192.34 61.9189C192.687 62.2618 193.09 62.4924 193.547 62.6107C194.002 62.7187 194.473 62.7129 194.96 62.5933C195.623 62.4304 196.122 62.1376 196.458 61.7147C196.793 61.2918 196.978 60.7687 197.011 60.1453L198.348 59.8171ZM206.638 60.9112L205.489 56.2342C205.387 55.8199 205.236 55.4946 205.035 55.2583C204.834 55.0221 204.583 54.8697 204.28 54.8012C203.975 54.7223 203.616 54.7337 203.201 54.8355C202.746 54.9475 202.353 55.1593 202.023 55.471C201.701 55.7697 201.465 56.1297 201.316 56.5507C201.164 56.9615 201.117 57.3959 201.175 57.854L200.942 56.9722C200.894 56.5555 200.91 56.1507 200.989 55.7577C201.079 55.3623 201.222 55.0033 201.417 54.6807C201.623 54.3556 201.884 54.0772 202.2 53.8457C202.517 53.6142 202.882 53.4475 203.297 53.3458C203.732 53.2389 204.141 53.2044 204.523 53.2422C204.904 53.2696 205.249 53.3771 205.558 53.5646C205.876 53.7393 206.145 53.9862 206.366 54.3053C206.585 54.614 206.749 54.9911 206.858 55.4366L208.114 60.5486L206.638 60.9112ZM200.811 62.3424L198.143 51.4812L199.619 51.1187L202.287 61.9798L200.811 62.3424ZM215.442 56.0797L216.856 55.7324C216.898 56.2603 216.813 56.7644 216.601 57.2447C216.39 57.7251 216.059 58.1467 215.61 58.5096C215.161 58.8725 214.595 59.138 213.911 59.3059C213.103 59.5044 212.341 59.5103 211.625 59.3236C210.91 59.137 210.297 58.7878 209.786 58.2761C209.276 57.7643 208.923 57.1096 208.727 56.312C208.529 55.504 208.532 54.7563 208.737 54.069C208.939 53.3714 209.309 52.7753 209.846 52.2808C210.384 51.7863 211.051 51.4411 211.849 51.2451C212.688 51.0391 213.433 51.0318 214.084 51.2233C214.735 51.4149 215.276 51.8039 215.705 52.3903C216.143 52.9638 216.454 53.7387 216.639 54.7148L210.284 56.2757C210.45 56.7291 210.692 57.1091 211.009 57.4157C211.336 57.7198 211.717 57.9283 212.151 58.0413C212.595 58.1518 213.071 58.1447 213.579 58.02C214.149 57.8801 214.593 57.6336 214.913 57.2805C215.233 56.9274 215.409 56.5271 215.442 56.0797ZM212.177 52.5155C211.504 52.6808 210.989 52.9995 210.633 53.4715C210.274 53.9331 210.094 54.4769 210.094 55.103L214.865 53.9313C214.668 53.3096 214.322 52.8839 213.826 52.6542C213.328 52.4141 212.778 52.3679 212.177 52.5155ZM225.949 53.0375C226.045 53.695 225.975 54.3053 225.74 54.8683C225.512 55.4184 225.15 55.8865 224.651 56.2725C224.153 56.6585 223.562 56.9354 222.878 57.1034C222.122 57.2891 221.39 57.3042 220.682 57.1486C219.971 56.9827 219.35 56.6464 218.819 56.1398C218.296 55.6202 217.932 54.9409 217.726 54.1018C217.517 53.2524 217.525 52.4815 217.751 51.7891C217.984 51.0838 218.377 50.493 218.93 50.0166C219.483 49.5403 220.137 49.2093 220.894 49.0235C221.577 48.8556 222.224 48.8285 222.834 48.9423C223.444 49.056 223.983 49.3027 224.449 49.6824C224.914 50.0517 225.261 50.5485 225.491 51.1729L224.139 51.505C223.826 50.9889 223.402 50.6262 222.867 50.417C222.34 50.195 221.787 50.1552 221.207 50.2977C220.73 50.4147 220.311 50.6329 219.95 50.9522C219.6 51.2689 219.351 51.665 219.204 52.1405C219.065 52.603 219.07 53.1346 219.217 53.7354C219.36 54.3155 219.601 54.7835 219.941 55.1393C220.289 55.4822 220.691 55.7129 221.149 55.8312C221.604 55.9391 222.075 55.9333 222.561 55.8137C223.224 55.6509 223.724 55.358 224.059 54.9351C224.395 54.5122 224.579 53.9891 224.613 53.3657L225.949 53.0375ZM225.745 44.7017L227.221 44.3391L229.889 55.2003L228.412 55.5628L225.745 44.7017ZM233.578 46.0728L230.434 50.9804L230.236 50.0405L235.778 53.7538L233.897 54.2156L228.855 50.8575L231.511 46.5804L233.578 46.0728ZM237.856 45.0219L242.875 43.7892L243.192 45.0788L238.173 46.3116L237.856 45.0219ZM239.124 42.5358L240.6 42.1732L243.008 51.9778L241.532 52.3404L239.124 42.5358ZM244.287 43.4422L245.779 43.0758L247.684 50.8294L246.192 51.1958L244.287 43.4422ZM248.73 43.7516C248.191 43.8839 247.76 44.1214 247.438 44.4642C247.126 44.8044 246.901 45.1837 246.762 45.6023C246.634 46.0183 246.574 46.4009 246.583 46.7502L246.35 45.8683C246.335 45.7622 246.321 45.5953 246.309 45.3676C246.305 45.127 246.331 44.8515 246.386 44.5413C246.442 44.2311 246.543 43.9262 246.689 43.6267C246.832 43.3169 247.039 43.0409 247.309 42.7989C247.579 42.5568 247.932 42.3823 248.367 42.2755L248.73 43.7516ZM254.894 49.2232C254.231 49.386 253.583 49.3639 252.95 49.157C252.317 48.95 251.766 48.5855 251.297 48.0636C250.826 47.5313 250.494 46.8715 250.3 46.0842C250.107 45.297 250.097 44.5635 250.271 43.8838C250.452 43.1912 250.785 42.604 251.271 42.1223C251.754 41.6301 252.348 41.2975 253.053 41.1245C253.83 40.9337 254.475 40.9674 254.989 41.2256C255.513 41.4813 255.933 41.8944 256.249 42.4649C256.575 43.0328 256.83 43.6897 257.013 44.4355C257.115 44.8498 257.171 45.3028 257.182 45.7944C257.193 46.286 257.135 46.7669 257.009 47.2373C256.883 47.7076 256.65 48.1219 256.309 48.4801C255.966 48.8279 255.494 49.0756 254.894 49.2232ZM254.996 47.8305C255.545 47.6956 255.977 47.4633 256.291 47.1334C256.614 46.7907 256.817 46.3892 256.902 45.9291C256.986 45.4689 256.967 44.9851 256.842 44.4775C256.707 43.9285 256.49 43.4709 256.192 43.1049C255.903 42.7364 255.54 42.4852 255.1 42.3515C254.672 42.2152 254.188 42.2132 253.649 42.3455C252.841 42.544 252.278 42.9569 251.96 43.5842C251.652 44.209 251.596 44.9202 251.792 45.7178C251.924 46.2565 252.15 46.7063 252.469 47.0672C252.786 47.4178 253.16 47.6664 253.592 47.813C254.031 47.9468 254.499 47.9526 254.996 47.8305ZM255.888 40.5929L257.379 40.2265L259.284 47.9801L257.916 48.3159C257.916 48.3159 257.883 48.2253 257.817 48.0439C257.748 47.8522 257.67 47.6242 257.583 47.3599C257.496 47.0957 257.427 46.86 257.376 46.6528L255.888 40.5929ZM265.7 46.5854C265.099 46.733 264.565 46.7269 264.097 46.5672C263.629 46.4074 263.231 46.1484 262.901 45.79C262.572 45.4316 262.298 45.0321 262.08 44.5914C261.861 44.1507 261.702 43.7232 261.6 43.3088C261.462 42.7494 261.381 42.2149 261.354 41.7051C261.338 41.1928 261.398 40.7222 261.535 40.2933C261.671 39.8644 261.916 39.4968 262.269 39.1904C262.622 38.884 263.104 38.6557 263.715 38.5056C264.388 38.3402 265.038 38.3675 265.663 38.5873C266.285 38.7969 266.832 39.1678 267.304 39.7001C267.785 40.2298 268.121 40.8832 268.312 41.6601C268.508 42.4577 268.515 43.2028 268.334 43.8954C268.15 44.5776 267.826 45.1571 267.361 45.6338C266.906 46.1079 266.352 46.4251 265.7 46.5854ZM264.96 45.3833C265.457 45.2611 265.869 45.039 266.196 44.717C266.521 44.3846 266.737 43.991 266.845 43.5361C266.961 43.0683 266.953 42.5651 266.821 42.0265C266.625 41.2288 266.24 40.6257 265.668 40.2172C265.105 39.8061 264.42 39.6998 263.612 39.8983C263.125 40.0179 262.718 40.2387 262.391 40.5607C262.074 40.8802 261.858 41.2738 261.742 41.7416C261.626 42.2094 261.636 42.7178 261.771 43.2668C261.898 43.7848 262.106 44.228 262.394 44.5966C262.69 44.9522 263.055 45.2085 263.489 45.3656C263.92 45.5122 264.411 45.5181 264.96 45.3833ZM259.325 39.7487L260.754 39.3976L261.248 41.1381L263.484 50.2435L261.993 50.6098L259.325 39.7487Z" fill="white"/>
<path d="M29.786 170.187L31.2155 169.836C31.3458 170.232 31.5708 170.567 31.8905 170.84C32.2179 171.1 32.6118 171.272 33.0719 171.357C33.5424 171.439 34.0574 171.412 34.6167 171.274C35.1036 171.155 35.491 170.988 35.7791 170.775C36.0671 170.561 36.2609 170.321 36.3603 170.055C36.4675 169.776 36.4817 169.476 36.4028 169.155C36.3239 168.834 36.1735 168.602 35.9516 168.459C35.7272 168.305 35.4236 168.209 35.0409 168.172C34.6556 168.123 34.1887 168.101 33.6403 168.104C33.1565 168.102 32.6728 168.078 32.1892 168.032C31.7134 167.973 31.2598 167.87 30.8284 167.723C30.4073 167.574 30.0421 167.362 29.7328 167.086C29.4313 166.798 29.222 166.415 29.105 165.939C28.9803 165.431 29.0069 164.936 29.1848 164.453C29.3602 163.96 29.6867 163.522 30.1643 163.142C30.6497 162.748 31.2808 162.455 32.0578 162.265C33.2594 161.969 34.2396 162.047 34.9983 162.498C35.7674 162.946 36.265 163.675 36.4911 164.685L35.0926 165.028C34.8885 164.332 34.5424 163.884 34.0543 163.685C33.5636 163.476 32.9868 163.453 32.3238 163.616C31.7541 163.756 31.2965 163.995 30.951 164.332C30.603 164.659 30.4901 165.072 30.6122 165.569C30.6656 165.786 30.7593 165.967 30.8932 166.109C31.0246 166.242 31.2156 166.349 31.4663 166.43C31.7169 166.511 32.0387 166.569 32.4318 166.605C32.8353 166.637 33.3293 166.659 33.9139 166.669C34.3512 166.66 34.7793 166.682 35.1981 166.732C35.6274 166.781 36.0241 166.876 36.3883 167.017C36.7525 167.158 37.0646 167.378 37.3247 167.676C37.5951 167.973 37.7914 168.369 37.9135 168.866C38.0433 169.395 38.0321 169.908 37.88 170.407C37.7254 170.895 37.4053 171.336 36.9199 171.73C36.4423 172.111 35.7737 172.407 34.9139 172.618C34.2302 172.786 33.6129 172.844 33.0621 172.793C32.5216 172.739 32.0461 172.614 31.6356 172.418C31.2354 172.22 30.8975 171.985 30.6218 171.712C30.3565 171.436 30.1519 171.163 30.0082 170.89C29.8748 170.616 29.8007 170.381 29.786 170.187ZM45.5326 167.16L46.9466 166.812C46.9884 167.34 46.9035 167.844 46.692 168.325C46.4805 168.805 46.1502 169.227 45.7011 169.59C45.252 169.953 44.6857 170.218 44.002 170.386C43.194 170.584 42.4321 170.59 41.7162 170.404C41.0004 170.217 40.3874 169.868 39.8773 169.356C39.3671 168.844 39.0141 168.19 38.8182 167.392C38.6198 166.584 38.6228 165.836 38.8275 165.149C39.0295 164.451 39.3994 163.855 39.9369 163.361C40.4745 162.866 41.1421 162.521 41.9397 162.325C42.7788 162.119 43.5239 162.112 44.175 162.303C44.8262 162.495 45.3666 162.884 45.7962 163.47C46.2336 164.044 46.5448 164.819 46.7296 165.795L40.3745 167.356C40.5408 167.809 40.7824 168.189 41.0993 168.496C41.4266 168.8 41.8074 169.008 42.2415 169.121C42.6861 169.232 43.1621 169.225 43.6697 169.1C44.2394 168.96 44.6841 168.714 45.0038 168.36C45.3234 168.007 45.4997 167.607 45.5326 167.16ZM42.2682 163.595C41.5949 163.761 41.08 164.08 40.7237 164.551C40.3647 165.013 40.1853 165.557 40.1853 166.183L44.9555 165.011C44.7589 164.39 44.4127 163.964 43.9169 163.734C43.4186 163.494 42.869 163.448 42.2682 163.595ZM56.0399 164.118C56.1355 164.775 56.0657 165.385 55.8305 165.948C55.6032 166.498 55.2404 166.966 54.7421 167.352C54.2438 167.738 53.6528 168.015 52.9691 168.183C52.2129 168.369 51.4807 168.384 50.7725 168.229C50.0617 168.063 49.4409 167.726 48.9101 167.22C48.387 166.7 48.0225 166.021 47.8164 165.182C47.6077 164.332 47.6161 163.562 47.8414 162.869C48.0746 162.164 48.4677 161.573 49.0207 161.097C49.5737 160.62 50.2283 160.289 50.9845 160.104C51.6682 159.936 52.315 159.909 52.9251 160.022C53.5352 160.136 54.0736 160.383 54.5403 160.762C55.0044 161.132 55.3516 161.629 55.5819 162.253L54.2301 162.585C53.9166 162.069 53.4925 161.706 52.9578 161.497C52.431 161.275 51.8775 161.235 51.2974 161.378C50.8209 161.495 50.4022 161.713 50.0413 162.032C49.6907 162.349 49.442 162.745 49.2952 163.22C49.1562 163.683 49.1605 164.215 49.308 164.815C49.4505 165.396 49.6918 165.864 50.0318 166.219C50.3796 166.562 50.7823 166.793 51.2397 166.911C51.6946 167.019 52.1655 167.013 52.6523 166.894C53.3153 166.731 53.8145 166.438 54.15 166.015C54.4854 165.592 54.67 165.069 54.7036 164.446L56.0399 164.118ZM65.6352 164.891L64.1591 165.254L62.2547 157.5L63.7308 157.138L65.6352 164.891ZM63.3399 161.583L63.47 162.045C63.4927 162.183 63.506 162.394 63.51 162.678C63.5219 162.95 63.4986 163.258 63.4403 163.601C63.3923 163.943 63.29 164.286 63.1333 164.632C62.987 164.976 62.7659 165.283 62.4698 165.553C62.1738 165.824 61.7823 166.019 61.2955 166.138C60.964 166.22 60.6107 166.257 60.2356 166.25C59.8709 166.241 59.5168 166.163 59.1733 166.017C58.8298 165.871 58.5242 165.633 58.2565 165.303C57.9863 164.963 57.7812 164.508 57.6412 163.938L56.4123 158.935L57.904 158.569L59.0566 163.261C59.1736 163.738 59.3377 164.093 59.5489 164.327C59.7704 164.558 60.035 164.696 60.3427 164.741C60.6504 164.786 60.9803 164.766 61.3325 164.679C61.8712 164.547 62.29 164.307 62.5889 163.959C62.8957 163.598 63.1069 163.205 63.2224 162.782C63.3355 162.348 63.3746 161.948 63.3399 161.583ZM65.6836 156.658L67.1753 156.291L69.0797 164.045L67.5881 164.411L65.6836 156.658ZM70.1256 156.967C69.587 157.1 69.1565 157.337 68.8343 157.68C68.5225 158.02 68.2971 158.399 68.1583 158.818C68.0298 159.234 67.97 159.617 67.9789 159.966L67.7459 159.084C67.7308 158.978 67.7172 158.811 67.7052 158.583C67.7011 158.343 67.7268 158.067 67.7824 157.757C67.838 157.447 67.9388 157.142 68.085 156.842C68.2285 156.533 68.4353 156.257 68.7054 156.014C68.9754 155.772 69.328 155.598 69.7631 155.491L70.1256 156.967ZM78.4146 159.083L79.8286 158.736C79.8704 159.264 79.7855 159.768 79.574 160.248C79.3625 160.728 79.0322 161.15 78.5831 161.513C78.134 161.876 77.5677 162.141 76.884 162.309C76.076 162.508 75.3141 162.514 74.5982 162.327C73.8824 162.14 73.2694 161.791 72.7593 161.279C72.2492 160.768 71.8961 160.113 71.7002 159.315C71.5018 158.507 71.5048 157.76 71.7095 157.072C71.9115 156.375 72.2814 155.779 72.8189 155.284C73.3565 154.79 74.0241 154.444 74.8217 154.249C75.6608 154.042 76.4059 154.035 77.057 154.227C77.7082 154.418 78.2486 154.807 78.6782 155.394C79.1156 155.967 79.4268 156.742 79.6116 157.718L73.2565 159.279C73.4228 159.733 73.6644 160.113 73.9813 160.419C74.3086 160.723 74.6894 160.932 75.1235 161.045C75.5681 161.155 76.0441 161.148 76.5517 161.023C77.1214 160.884 77.5661 160.637 77.8858 160.284C78.2054 159.931 78.3817 159.531 78.4146 159.083ZM75.1502 155.519C74.4769 155.684 73.962 156.003 73.6057 156.475C73.2467 156.937 73.0673 157.48 73.0673 158.106L77.8375 156.935C77.6409 156.313 77.2947 155.887 76.7989 155.658C76.3006 155.418 75.751 155.371 75.1502 155.519ZM79.5365 149.96L81.0282 149.594L83.6959 160.455L82.2043 160.821L79.5365 149.96ZM83.2235 152.35L84.8084 151.96L89.6043 158.674L88.391 159.302L83.2235 152.35ZM91.1324 150.407L89.1543 162.409L87.5849 162.795L88.5551 158.092L89.5631 150.792L91.1324 150.407ZM96.7635 154.576L98.1308 154.24C98.2844 154.642 98.5548 154.938 98.9421 155.128C99.3268 155.309 99.8092 155.327 100.389 155.185C100.762 155.093 101.042 154.981 101.229 154.847C101.413 154.703 101.528 154.543 101.572 154.367C101.627 154.189 101.632 154.006 101.586 153.82C101.528 153.582 101.421 153.416 101.266 153.322C101.109 153.218 100.906 153.152 100.658 153.125C100.407 153.088 100.116 153.066 99.7849 153.06C99.4202 153.05 99.0517 153.026 98.6793 152.985C98.3069 152.945 97.9541 152.872 97.6208 152.767C97.2978 152.66 97.0165 152.499 96.7768 152.283C96.5449 152.054 96.3819 151.748 96.2878 151.365C96.2089 151.044 96.2024 150.727 96.2684 150.414C96.3447 150.099 96.4882 149.811 96.6988 149.551C96.9173 149.277 97.1899 149.045 97.5166 148.855C97.8408 148.655 98.2153 148.503 98.64 148.398C99.2304 148.253 99.7544 148.24 100.212 148.358C100.667 148.466 101.045 148.686 101.346 149.019C101.658 149.348 101.88 149.761 102.012 150.255L100.707 150.576C100.528 150.159 100.3 149.88 100.024 149.739C99.7449 149.588 99.3777 149.568 98.9219 149.68C98.4764 149.789 98.1562 149.961 97.9612 150.196C97.7662 150.431 97.7056 150.698 97.7794 150.999C97.8354 151.226 97.9641 151.393 98.1654 151.497C98.3642 151.591 98.6162 151.655 98.9213 151.69C99.2265 151.725 99.5691 151.756 99.9493 151.784C100.309 151.816 100.654 151.858 100.985 151.908C101.324 151.946 101.633 152.018 101.911 152.125C102.198 152.22 102.441 152.38 102.639 152.606C102.845 152.819 102.994 153.112 103.086 153.485C103.198 153.94 103.182 154.367 103.038 154.765C102.891 155.152 102.623 155.493 102.234 155.786C101.855 156.077 101.36 156.297 100.749 156.448C100.19 156.585 99.6965 156.635 99.2698 156.597C98.8534 156.556 98.4839 156.46 98.1611 156.309C97.8487 156.155 97.5907 155.977 97.3872 155.774C97.1915 155.558 97.0397 155.343 96.9319 155.128C96.8345 154.91 96.7784 154.726 96.7635 154.576ZM108.398 154.552C107.735 154.715 107.087 154.693 106.454 154.486C105.821 154.279 105.27 153.915 104.801 153.393C104.33 152.86 103.998 152.201 103.805 151.413C103.611 150.626 103.601 149.893 103.775 149.213C103.956 148.52 104.29 147.933 104.775 147.451C105.259 146.959 105.853 146.627 106.557 146.454C107.334 146.263 107.979 146.297 108.493 146.555C109.017 146.81 109.437 147.224 109.753 147.794C110.079 148.362 110.334 149.019 110.517 149.765C110.619 150.179 110.675 150.632 110.686 151.124C110.697 151.615 110.639 152.096 110.513 152.566C110.387 153.037 110.154 153.451 109.813 153.809C109.471 154.157 108.999 154.405 108.398 154.552ZM108.501 153.16C109.05 153.025 109.481 152.792 109.796 152.463C110.118 152.12 110.321 151.718 110.406 151.258C110.491 150.798 110.471 150.314 110.346 149.807C110.211 149.258 109.995 148.8 109.696 148.434C109.408 148.066 109.044 147.814 108.605 147.681C108.176 147.544 107.692 147.542 107.153 147.675C106.345 147.873 105.782 148.286 105.464 148.913C105.156 149.538 105.1 150.249 105.296 151.047C105.428 151.586 105.654 152.035 105.974 152.396C106.29 152.747 106.664 152.995 107.096 153.142C107.535 153.276 108.003 153.282 108.501 153.16ZM109.392 145.922L110.884 145.556L112.788 153.309L111.421 153.645C111.421 153.645 111.387 153.554 111.321 153.373C111.252 153.181 111.174 152.953 111.087 152.689C111 152.425 110.931 152.189 110.88 151.982L109.392 145.922ZM117.839 150.85L117.357 150.968L118.252 143.746L119.868 143.349L118.587 151.885L117.189 152.228L112.13 145.25L113.761 144.849L117.839 150.85ZM128.14 146.869L129.554 146.522C129.595 147.05 129.511 147.554 129.299 148.035C129.088 148.515 128.757 148.936 128.308 149.299C127.859 149.662 127.293 149.928 126.609 150.096C125.801 150.294 125.039 150.3 124.323 150.113C123.608 149.927 122.995 149.578 122.484 149.066C121.974 148.554 121.621 147.899 121.425 147.102C121.227 146.294 121.23 145.546 121.435 144.859C121.637 144.161 122.006 143.565 122.544 143.071C123.082 142.576 123.749 142.231 124.547 142.035C125.386 141.829 126.131 141.822 126.782 142.013C127.433 142.205 127.974 142.594 128.403 143.18C128.841 143.754 129.152 144.528 129.337 145.505L122.982 147.065C123.148 147.519 123.39 147.899 123.706 148.205C124.034 148.51 124.414 148.718 124.849 148.831C125.293 148.942 125.769 148.934 126.277 148.81C126.847 148.67 127.291 148.423 127.611 148.07C127.931 147.717 128.107 147.317 128.14 146.869ZM124.875 143.305C124.202 143.471 123.687 143.789 123.331 144.261C122.972 144.723 122.792 145.267 122.792 145.893L127.563 144.721C127.366 144.099 127.02 143.674 126.524 143.444C126.026 143.204 125.476 143.158 124.875 143.305ZM133.284 140.054L134.775 139.687L136.68 147.441L135.188 147.807L133.284 140.054ZM137.689 138.807C138.124 138.7 138.533 138.665 138.916 138.703C139.299 138.741 139.645 138.854 139.955 139.041C140.262 139.218 140.527 139.472 140.751 139.801C140.983 140.118 141.154 140.504 141.266 140.96L142.507 146.01L141.03 146.372L139.87 141.649C139.72 141.037 139.458 140.619 139.084 140.392C138.717 140.152 138.234 140.106 137.633 140.254C137.167 140.369 136.769 140.582 136.439 140.893C136.109 141.205 135.864 141.573 135.705 141.996C135.553 142.407 135.506 142.841 135.564 143.3L135.338 142.449C135.288 142.022 135.303 141.612 135.382 141.219C135.472 140.823 135.614 140.464 135.81 140.142C136.013 139.806 136.274 139.528 136.593 139.307C136.91 139.075 137.275 138.909 137.689 138.807ZM143.376 137.41C143.811 137.303 144.22 137.269 144.603 137.306C144.986 137.344 145.332 137.457 145.642 137.644C145.949 137.822 146.214 138.075 146.438 138.404C146.669 138.721 146.841 139.107 146.953 139.563L148.194 144.613L146.717 144.975L145.557 140.252C145.407 139.641 145.145 139.222 144.771 138.995C144.404 138.756 143.921 138.71 143.32 138.857C142.854 138.972 142.456 139.185 142.126 139.496C141.796 139.808 141.551 140.176 141.392 140.599C141.24 141.01 141.193 141.445 141.251 141.903L141.021 141.036C140.971 140.609 140.987 140.204 141.069 139.822C141.159 139.426 141.306 139.066 141.512 138.741C141.715 138.406 141.976 138.127 142.296 137.906C142.612 137.675 142.972 137.509 143.376 137.41ZM153.936 143.383C153.18 143.569 152.447 143.579 151.736 143.413C151.025 143.247 150.41 142.91 149.889 142.4C149.369 141.891 149.005 141.217 148.799 140.378C148.591 139.529 148.599 138.758 148.824 138.065C149.047 137.363 149.435 136.773 149.988 136.297C150.541 135.82 151.196 135.489 151.952 135.304C152.708 135.118 153.436 135.109 154.137 135.278C154.837 135.446 155.449 135.79 155.972 136.31C156.492 136.819 156.857 137.498 157.065 138.348C157.272 139.187 157.262 139.952 157.037 140.645C156.811 141.337 156.427 141.92 155.885 142.394C155.342 142.868 154.693 143.198 153.936 143.383ZM153.62 142.094C154.086 141.979 154.49 141.77 154.833 141.466C155.183 141.149 155.428 140.76 155.567 140.297C155.714 139.822 155.716 139.294 155.574 138.714C155.429 138.124 155.181 137.652 154.831 137.298C154.491 136.943 154.092 136.706 153.635 136.587C153.187 136.466 152.731 136.463 152.265 136.578C151.799 136.692 151.39 136.908 151.04 137.225C150.687 137.531 150.437 137.922 150.29 138.397C150.143 138.873 150.143 139.411 150.291 140.012C150.433 140.592 150.675 141.06 151.015 141.416C151.362 141.759 151.765 141.989 152.222 142.107C152.677 142.215 153.143 142.211 153.62 142.094ZM157.668 134.064L159.16 133.698L161.064 141.451L159.573 141.818L157.668 134.064ZM162.074 132.817C162.509 132.71 162.918 132.676 163.301 132.714C163.683 132.752 164.03 132.864 164.339 133.052C164.646 133.229 164.912 133.482 165.136 133.812C165.367 134.128 165.539 134.515 165.651 134.97L166.891 140.02L165.415 140.383L164.255 135.659C164.105 135.048 163.843 134.629 163.468 134.403C163.102 134.163 162.618 134.117 162.018 134.265C161.551 134.379 161.153 134.592 160.824 134.904C160.494 135.216 160.249 135.583 160.089 136.007C159.938 136.418 159.891 136.852 159.948 137.31L159.723 136.459C159.673 136.032 159.688 135.622 159.767 135.229C159.856 134.834 159.999 134.475 160.194 134.152C160.397 133.817 160.658 133.538 160.978 133.317C161.294 133.086 161.66 132.919 162.074 132.817ZM174.208 135.554L175.622 135.207C175.664 135.735 175.579 136.239 175.367 136.719C175.156 137.199 174.825 137.621 174.376 137.984C173.927 138.347 173.361 138.612 172.677 138.78C171.869 138.979 171.107 138.985 170.392 138.798C169.676 138.611 169.063 138.262 168.553 137.75C168.042 137.239 167.689 136.584 167.494 135.786C167.295 134.978 167.298 134.231 167.503 133.543C167.705 132.846 168.075 132.25 168.612 131.755C169.15 131.261 169.817 130.915 170.615 130.719C171.454 130.513 172.199 130.506 172.85 130.698C173.501 130.889 174.042 131.278 174.471 131.865C174.909 132.438 175.22 133.213 175.405 134.189L169.05 135.75C169.216 136.203 169.458 136.583 169.775 136.89C170.102 137.194 170.483 137.403 170.917 137.516C171.361 137.626 171.837 137.619 172.345 137.494C172.915 137.354 173.359 137.108 173.679 136.755C173.999 136.402 174.175 136.001 174.208 135.554ZM170.943 131.99C170.27 132.155 169.755 132.474 169.399 132.946C169.04 133.407 168.861 133.951 168.861 134.577L173.631 133.406C173.434 132.784 173.088 132.358 172.592 132.129C172.094 131.888 171.544 131.842 170.943 131.99ZM174.981 129.812L176.565 129.423L181.361 136.136L180.148 136.764L174.981 129.812ZM182.889 127.869L180.911 139.872L179.342 140.257L180.312 135.554L181.32 128.255L182.889 127.869ZM197.682 131.172L197.274 131.256L197.707 124.23L199.323 123.833L198.539 132.247L197.141 132.59L193.165 126.532L193.585 126.429L192.837 133.647L191.438 133.991L186.877 126.89L188.508 126.489L192.085 132.531L191.685 132.645L192.222 125.577L193.978 125.146L197.682 131.172ZM208.513 129.797L207.364 125.12C207.263 124.706 207.111 124.38 206.91 124.144C206.71 123.908 206.458 123.755 206.156 123.687C205.851 123.608 205.491 123.619 205.077 123.721C204.621 123.833 204.228 124.045 203.898 124.357C203.576 124.655 203.341 125.015 203.191 125.436C203.04 125.847 202.993 126.282 203.05 126.74L202.817 125.858C202.77 125.441 202.786 125.036 202.865 124.643C202.954 124.248 203.097 123.889 203.292 123.566C203.498 123.241 203.759 122.963 204.076 122.731C204.392 122.5 204.758 122.333 205.172 122.231C205.607 122.125 206.016 122.09 206.399 122.128C206.779 122.155 207.124 122.263 207.434 122.45C207.751 122.625 208.02 122.872 208.242 123.191C208.46 123.5 208.624 123.877 208.734 124.322L209.989 129.434L208.513 129.797ZM202.686 131.228L200.019 120.367L201.495 120.004L204.162 130.866L202.686 131.228ZM211.049 117.559L211.443 119.159L209.594 119.613L209.2 118.013L211.049 117.559ZM210.173 121.168L211.649 120.805L213.554 128.559L212.078 128.921L210.173 121.168ZM213.143 117.143L214.635 116.777L217.303 127.638L215.811 128.004L213.143 117.143ZM224.798 123.128L226.212 122.781C226.254 123.309 226.169 123.813 225.957 124.293C225.746 124.773 225.415 125.195 224.966 125.558C224.517 125.921 223.951 126.186 223.267 126.354C222.459 126.553 221.697 126.559 220.982 126.372C220.266 126.185 219.653 125.836 219.143 125.324C218.632 124.813 218.279 124.158 218.084 123.36C217.885 122.552 217.888 121.805 218.093 121.117C218.295 120.42 218.665 119.824 219.202 119.329C219.74 118.834 220.407 118.489 221.205 118.293C222.044 118.087 222.789 118.08 223.44 118.272C224.091 118.463 224.632 118.852 225.062 119.439C225.499 120.012 225.81 120.787 225.995 121.763L219.64 123.324C219.806 123.777 220.048 124.157 220.365 124.464C220.692 124.768 221.073 124.977 221.507 125.09C221.951 125.2 222.427 125.193 222.935 125.068C223.505 124.928 223.949 124.682 224.269 124.329C224.589 123.976 224.765 123.575 224.798 123.128ZM221.534 119.564C220.86 119.729 220.345 120.048 219.989 120.52C219.63 120.981 219.451 121.525 219.451 122.151L224.221 120.98C224.024 120.358 223.678 119.932 223.182 119.702C222.684 119.462 222.134 119.416 221.534 119.564ZM237.21 120.079L238.624 119.732C238.666 120.26 238.581 120.764 238.37 121.244C238.158 121.725 237.828 122.146 237.379 122.509C236.93 122.872 236.363 123.137 235.68 123.305C234.872 123.504 234.11 123.51 233.394 123.323C232.678 123.136 232.065 122.787 231.555 122.276C231.045 121.764 230.692 121.109 230.496 120.311C230.297 119.503 230.3 118.756 230.505 118.069C230.707 117.371 231.077 116.775 231.615 116.28C232.152 115.786 232.82 115.441 233.617 115.245C234.456 115.039 235.202 115.031 235.853 115.223C236.504 115.414 237.044 115.803 237.474 116.39C237.911 116.963 238.222 117.738 238.407 118.714L232.052 120.275C232.218 120.729 232.46 121.109 232.777 121.415C233.104 121.719 233.485 121.928 233.919 122.041C234.364 122.151 234.84 122.144 235.347 122.02C235.917 121.88 236.362 121.633 236.681 121.28C237.001 120.927 237.177 120.527 237.21 120.079ZM233.946 116.515C233.273 116.68 232.758 116.999 232.401 117.471C232.042 117.933 231.863 118.476 231.863 119.102L236.633 117.931C236.436 117.309 236.09 116.883 235.595 116.654C235.096 116.414 234.547 116.367 233.946 116.515ZM238.94 114.102L240.432 113.736L242.336 121.489L240.845 121.856L238.94 114.102ZM243.346 112.855C243.781 112.748 244.19 112.714 244.572 112.751C244.955 112.789 245.301 112.902 245.611 113.089C245.918 113.267 246.184 113.52 246.407 113.849C246.639 114.166 246.811 114.552 246.923 115.008L248.163 120.058L246.687 120.421L245.527 115.697C245.377 115.086 245.114 114.667 244.74 114.44C244.374 114.201 243.89 114.155 243.289 114.302C242.823 114.417 242.425 114.63 242.095 114.942C241.766 115.253 241.521 115.621 241.361 116.045C241.21 116.455 241.162 116.89 241.22 117.348L240.995 116.497C240.945 116.07 240.959 115.66 241.039 115.267C241.128 114.872 241.271 114.513 241.466 114.19C241.669 113.855 241.93 113.576 242.249 113.355C242.566 113.124 242.931 112.957 243.346 112.855ZM248.351 111.79L249.827 111.428L252.495 122.289L251.019 122.652L248.351 111.79ZM249.212 108.185L249.605 109.785L247.756 110.24L247.363 108.639L249.212 108.185ZM257.605 117.92C256.849 118.106 256.115 118.116 255.405 117.95C254.694 117.784 254.078 117.446 253.558 116.937C253.037 116.428 252.674 115.754 252.468 114.915C252.259 114.065 252.267 113.294 252.493 112.602C252.716 111.899 253.104 111.31 253.657 110.833C254.21 110.357 254.864 110.026 255.62 109.84C256.377 109.654 257.105 109.646 257.805 109.814C258.506 109.983 259.117 110.327 259.64 110.846C260.161 111.356 260.525 112.035 260.734 112.884C260.94 113.723 260.931 114.489 260.705 115.181C260.48 115.874 260.096 116.457 259.553 116.931C259.011 117.405 258.361 117.734 257.605 117.92ZM257.288 116.63C257.754 116.516 258.159 116.307 258.501 116.003C258.852 115.686 259.097 115.296 259.236 114.834C259.383 114.358 259.385 113.831 259.242 113.251C259.097 112.66 258.85 112.188 258.499 111.835C258.159 111.479 257.761 111.242 257.303 111.124C256.856 111.003 256.399 111 255.933 111.114C255.467 111.229 255.059 111.444 254.708 111.761C254.355 112.068 254.105 112.459 253.958 112.934C253.811 113.409 253.812 113.947 253.959 114.548C254.102 115.128 254.343 115.596 254.683 115.952C255.031 116.295 255.434 116.526 255.891 116.644C256.346 116.752 256.812 116.747 257.288 116.63ZM260.38 108.836L261.965 108.447L266.76 115.16L265.547 115.788L260.38 108.836ZM268.289 106.893L266.31 118.896L264.741 119.281L265.711 114.578L266.719 107.279L268.289 106.893ZM270.562 102.941L270.955 104.541L269.106 104.996L268.713 103.395L270.562 102.941ZM269.685 106.55L271.162 106.188L273.066 113.941L271.59 114.304L269.685 106.55ZM273.264 105.671L274.755 105.305L276.66 113.058L275.168 113.425L273.264 105.671ZM277.669 104.424C278.104 104.318 278.513 104.283 278.896 104.321C279.279 104.359 279.625 104.471 279.935 104.659C280.242 104.836 280.507 105.089 280.731 105.419C280.962 105.735 281.134 106.122 281.246 106.577L282.487 111.627L281.01 111.99L279.85 107.266C279.7 106.655 279.438 106.236 279.064 106.01C278.697 105.77 278.214 105.724 277.613 105.872C277.147 105.986 276.749 106.199 276.419 106.511C276.089 106.823 275.844 107.19 275.685 107.614C275.533 108.025 275.486 108.459 275.544 108.917L275.318 108.066C275.268 107.639 275.283 107.229 275.362 106.836C275.452 106.441 275.594 106.082 275.789 105.759C275.993 105.424 276.254 105.146 276.573 104.924C276.89 104.693 277.255 104.526 277.669 104.424ZM287.265 109.169C286.623 109.326 286 109.342 285.398 109.215C284.796 109.088 284.273 108.816 283.83 108.398C283.397 107.977 283.094 107.414 282.921 106.71C282.75 106.016 282.76 105.382 282.948 104.808C283.134 104.224 283.458 103.733 283.921 103.334C284.39 102.922 284.957 102.634 285.62 102.472C285.817 102.423 286.007 102.393 286.191 102.381C286.372 102.358 286.552 102.353 286.73 102.364L290.117 101.532L290.461 102.93C289.995 103.045 289.504 103.083 288.99 103.044C288.485 103.003 288.036 102.938 287.64 102.849L287.574 102.782C287.972 102.882 288.334 103.035 288.659 103.241C288.982 103.436 289.251 103.683 289.467 103.981C289.691 104.267 289.853 104.612 289.952 105.016C290.12 105.699 290.109 106.328 289.921 106.902C289.742 107.473 289.416 107.954 288.941 108.345C288.476 108.734 287.917 109.008 287.265 109.169ZM290.711 112.935L290.623 112.578C290.493 112.05 290.255 111.707 289.909 111.55C289.563 111.394 289.111 111.384 288.551 111.522L286.733 111.968C286.35 112.062 286.016 112.111 285.731 112.115C285.447 112.119 285.201 112.081 284.995 112C284.791 111.929 284.625 111.816 284.499 111.66C284.376 111.515 284.288 111.338 284.238 111.131C284.138 110.727 284.188 110.391 284.385 110.123C284.583 109.855 284.867 109.648 285.238 109.502C285.606 109.345 285.993 109.245 286.399 109.2L287.265 109.169C286.682 109.345 286.245 109.512 285.955 109.671C285.665 109.831 285.552 110.045 285.619 110.314C285.657 110.47 285.749 110.579 285.897 110.641C286.044 110.704 286.231 110.707 286.459 110.651L288.355 110.186C288.945 110.041 289.486 109.985 289.978 110.018C290.482 110.059 290.907 110.224 291.252 110.512C291.611 110.809 291.866 111.267 292.019 111.889L292.187 112.573L290.711 112.935ZM286.956 107.91C287.329 107.818 287.646 107.658 287.908 107.429C288.178 107.187 288.37 106.893 288.482 106.546C288.593 106.19 288.594 105.794 288.487 105.359C288.378 104.913 288.192 104.558 287.929 104.293C287.674 104.015 287.372 103.837 287.023 103.758C286.672 103.669 286.31 103.67 285.937 103.761C285.564 103.853 285.237 104.021 284.957 104.266C284.684 104.497 284.493 104.791 284.383 105.148C284.272 105.505 284.273 105.911 284.385 106.366C284.492 106.802 284.677 107.152 284.94 107.417C285.2 107.671 285.506 107.843 285.857 107.933C286.206 108.012 286.572 108.004 286.956 107.91ZM294.415 100.526L299.496 99.2775L299.809 100.552L294.728 101.8L294.415 100.526ZM297.882 96.3294L298.876 96.0851L299.212 97.4525L298.373 97.6585C298.101 97.7143 297.867 97.8104 297.67 97.9467C297.47 98.0726 297.332 98.2493 297.256 98.4766C297.19 98.7014 297.203 99.0003 297.295 99.3732L299.291 107.5L297.815 107.862L295.8 99.6581C295.647 99.0366 295.631 98.5023 295.752 98.0552C295.883 97.6056 296.135 97.2419 296.506 96.964C296.874 96.6757 297.333 96.4642 297.882 96.3294ZM300.196 95.7609L301.688 95.3945L304.356 106.256L302.864 106.622L300.196 95.7609ZM311.851 101.746L313.265 101.398C313.307 101.926 313.222 102.43 313.01 102.911C312.799 103.391 312.469 103.813 312.02 104.176C311.57 104.538 311.004 104.804 310.32 104.972C309.512 105.17 308.751 105.176 308.035 104.99C307.319 104.803 306.706 104.454 306.196 103.942C305.686 103.43 305.333 102.776 305.137 101.978C304.938 101.17 304.941 100.422 305.146 99.735C305.348 99.0373 305.718 98.4412 306.255 97.9467C306.793 97.4522 307.46 97.107 308.258 96.9111C309.097 96.705 309.842 96.6977 310.493 96.8893C311.145 97.0808 311.685 97.4698 312.115 98.0562C312.552 98.6298 312.863 99.4046 313.048 100.381L306.693 101.942C306.859 102.395 307.101 102.775 307.418 103.082C307.745 103.386 308.126 103.594 308.56 103.707C309.004 103.818 309.481 103.811 309.988 103.686C310.558 103.546 311.003 103.3 311.322 102.946C311.642 102.593 311.818 102.193 311.851 101.746ZM308.587 98.1814C307.913 98.3468 307.398 98.6655 307.042 99.1374C306.683 99.599 306.504 100.143 306.504 100.769L311.274 99.5973C311.077 98.9756 310.731 98.5498 310.235 98.3201C309.737 98.0801 309.187 98.0338 308.587 98.1814ZM320.424 94.0876L318.141 99.1462L316.409 103.295L314.591 103.742L317.019 98.4004L318.622 94.5303L320.424 94.0876ZM312.686 95.9882L314.535 95.534L317.908 98.1984L322.5 101.799L320.697 102.242L317.166 99.4022L312.686 95.9882ZM322.927 90.0788L323.32 91.6792L321.471 92.1334L321.078 90.533L322.927 90.0788ZM322.051 93.688L323.527 93.3255L325.431 101.079L323.955 101.442L322.051 93.688ZM332.264 99.5655C331.653 99.7156 331.115 99.716 330.65 99.5666C330.193 99.4043 329.794 99.1452 329.454 98.7894C329.124 98.431 328.85 98.0315 328.632 97.5908C328.414 97.1501 328.254 96.7226 328.152 96.3082C328.015 95.7488 327.933 95.2143 327.907 94.7045C327.891 94.1922 327.951 93.7216 328.087 93.2927C328.224 92.8638 328.468 92.4962 328.821 92.1898C329.174 91.8834 329.662 91.6538 330.283 91.5012C330.977 91.3307 331.637 91.3554 332.262 91.5753C332.895 91.7823 333.442 92.1532 333.903 92.688C334.361 93.2125 334.687 93.8684 334.88 94.6557C335.074 95.4429 335.085 96.1816 334.914 96.8716C334.74 97.5513 334.421 98.1295 333.956 98.6062C333.501 99.0803 332.937 99.4001 332.264 99.5655ZM331.528 98.3789C332.025 98.2567 332.432 98.0359 332.749 97.7164C333.074 97.384 333.29 96.9904 333.398 96.5355C333.514 96.0677 333.506 95.5645 333.373 95.0259C333.177 94.2282 332.793 93.6252 332.22 93.2166C331.658 92.8056 330.978 92.698 330.181 92.8939C329.642 93.0262 329.209 93.2534 328.882 93.5754C328.565 93.8949 328.359 94.286 328.264 94.7487C328.169 95.2114 328.189 95.7172 328.323 96.2662C328.448 96.7738 328.654 97.2119 328.943 97.5804C329.241 97.9464 329.608 98.208 330.042 98.365C330.483 98.5091 330.979 98.5137 331.528 98.3789ZM326.606 89.2741L328.858 98.4416C328.916 98.6798 328.971 98.9685 329.021 99.3076C329.082 99.6442 329.13 99.929 329.165 100.162L327.798 100.498L325.13 89.6366L326.606 89.2741ZM334.854 87.2482L336.345 86.8818L339.013 97.743L337.522 98.1094L334.854 87.2482ZM346.508 93.2329L347.922 92.8856C347.964 93.4136 347.879 93.9177 347.668 94.398C347.456 94.8784 347.126 95.3 346.677 95.6629C346.228 96.0258 345.661 96.2913 344.978 96.4592C344.17 96.6576 343.408 96.6636 342.692 96.4769C341.976 96.2903 341.363 95.9411 340.853 95.4293C340.343 94.9176 339.99 94.2629 339.794 93.4653C339.596 92.6573 339.599 91.9096 339.803 91.2223C340.005 90.5246 340.375 89.9286 340.913 89.434C341.45 88.9395 342.118 88.5943 342.915 88.3984C343.755 88.1923 344.5 88.1851 345.151 88.3766C345.802 88.5681 346.342 88.9571 346.772 89.5436C347.209 90.1171 347.521 90.8919 347.705 91.868L341.35 93.429C341.517 93.8824 341.758 94.2624 342.075 94.569C342.402 94.873 342.783 95.0816 343.217 95.1946C343.662 95.3051 344.138 95.298 344.645 95.1733C345.215 95.0334 345.66 94.7869 345.98 94.4338C346.299 94.0806 346.475 93.6804 346.508 93.2329ZM343.244 89.6687C342.571 89.8341 342.056 90.1528 341.699 90.6248C341.341 91.0864 341.161 91.6302 341.161 92.2563L345.931 91.0846C345.735 90.4629 345.388 90.0372 344.893 89.8075C344.394 89.5674 343.845 89.5212 343.244 89.6687ZM358.027 93.2539C357.426 93.4015 356.892 93.3954 356.425 93.2357C355.957 93.076 355.558 92.8169 355.229 92.4585C354.899 92.1002 354.625 91.7006 354.407 91.2599C354.189 90.8192 354.029 90.3917 353.927 89.9773C353.79 89.418 353.708 88.8834 353.682 88.3736C353.666 87.8613 353.726 87.3907 353.862 86.9618C353.998 86.5329 354.243 86.1653 354.596 85.8589C354.949 85.5525 355.431 85.3242 356.043 85.1741C356.716 85.0087 357.365 85.036 357.99 85.2559C358.613 85.4654 359.16 85.8363 359.631 86.3686C360.113 86.8984 360.449 87.5517 360.64 88.3286C360.836 89.1262 360.843 89.8713 360.662 90.5639C360.478 91.2461 360.153 91.8256 359.688 92.3023C359.233 92.7764 358.68 93.0937 358.027 93.2539ZM357.287 92.0518C357.784 91.9297 358.196 91.7076 358.524 91.3855C358.849 91.0532 359.065 90.6595 359.173 90.2046C359.289 89.7369 359.28 89.2336 359.148 88.695C358.952 87.8974 358.568 87.2943 357.995 86.8857C357.433 86.4747 356.748 86.3684 355.94 86.5668C355.453 86.6864 355.046 86.9072 354.719 87.2292C354.402 87.5487 354.185 87.9424 354.069 88.4102C353.954 88.8779 353.963 89.3863 354.098 89.9354C354.225 90.4533 354.433 90.8965 354.721 91.2651C355.017 91.6207 355.382 91.8771 355.816 92.0341C356.248 92.1807 356.738 92.1866 357.287 92.0518ZM351.652 86.4172L353.082 86.0661L353.575 87.8066L355.812 96.912L354.32 97.2784L351.652 86.4172ZM366.386 91.1844C365.723 91.3472 365.075 91.3252 364.442 91.1182C363.809 90.9112 363.258 90.5467 362.789 90.0248C362.318 89.4925 361.986 88.8327 361.792 88.0455C361.599 87.2582 361.589 86.5247 361.763 85.845C361.944 85.1524 362.278 84.5653 362.763 84.0835C363.247 83.5913 363.84 83.2588 364.545 83.0857C365.322 82.8949 365.967 82.9286 366.481 83.1869C367.005 83.4426 367.425 83.8556 367.741 84.4261C368.067 84.994 368.322 85.6509 368.505 86.3967C368.607 86.8111 368.663 87.264 368.674 87.7556C368.685 88.2472 368.627 88.7282 368.501 89.1985C368.375 89.6688 368.142 90.0831 367.801 90.4413C367.458 90.7891 366.987 91.0368 366.386 91.1844ZM366.489 89.7917C367.038 89.6568 367.469 89.4245 367.784 89.0946C368.106 88.7519 368.309 88.3504 368.394 87.8903C368.479 87.4301 368.459 86.9463 368.334 86.4387C368.199 85.8897 367.982 85.4322 367.684 85.0662C367.396 84.6976 367.032 84.4465 366.593 84.3127C366.164 84.1764 365.68 84.1744 365.141 84.3067C364.333 84.5052 363.77 84.9181 363.452 85.5454C363.144 86.1702 363.088 86.8814 363.284 87.6791C363.416 88.2177 363.642 88.6675 363.962 89.0284C364.278 89.379 364.652 89.6276 365.084 89.7743C365.523 89.908 365.991 89.9138 366.489 89.7917ZM367.38 82.5542L368.872 82.1878L370.776 89.9413L369.409 90.2772C369.409 90.2772 369.375 90.1865 369.309 90.0051C369.24 89.8134 369.162 89.5854 369.075 89.3212C368.988 89.0569 368.919 88.8212 368.868 88.614L367.38 82.5542ZM370.118 81.8816L371.703 81.4924L376.499 88.2062L375.285 88.8337L370.118 81.8816ZM378.027 79.939L376.049 91.9413L374.479 92.3268L375.449 87.6236L376.457 80.3245L378.027 79.939ZM384.717 86.6982C383.961 86.884 383.228 86.8939 382.517 86.7279C381.806 86.562 381.19 86.2245 380.67 85.7153C380.15 85.206 379.786 84.5319 379.58 83.6928C379.371 82.8434 379.38 82.0725 379.605 81.3801C379.828 80.6773 380.216 80.0878 380.769 79.6115C381.322 79.1351 381.977 78.8041 382.733 78.6184C383.489 78.4326 384.217 78.424 384.918 78.5925C385.618 78.7609 386.23 79.1049 386.753 79.6245C387.273 80.1337 387.638 80.813 387.846 81.6624C388.053 82.5015 388.043 83.2672 387.818 83.9596C387.592 84.6521 387.208 85.2351 386.666 85.7089C386.123 86.1827 385.473 86.5125 384.717 86.6982ZM384.401 85.4085C384.867 85.294 385.271 85.0849 385.614 84.781C385.964 84.4642 386.209 84.0746 386.348 83.6121C386.495 83.1367 386.497 82.6089 386.355 82.0288C386.21 81.4384 385.962 80.9665 385.612 80.6132C385.272 80.2574 384.873 80.0203 384.415 79.902C383.968 79.7812 383.512 79.778 383.046 79.8925C382.58 80.007 382.171 80.2226 381.821 80.5394C381.467 80.8458 381.218 81.2367 381.071 81.7121C380.924 82.1875 380.924 82.7257 381.072 83.3265C381.214 83.9066 381.456 84.3745 381.796 84.7303C382.143 85.0733 382.546 85.3039 383.003 85.4222C383.458 85.5301 383.924 85.5256 384.401 85.4085ZM397.672 83.335L396.196 83.6975L394.292 75.944L395.768 75.5814L397.672 83.335ZM395.377 80.027L395.507 80.4893C395.53 80.6265 395.543 80.8374 395.547 81.122C395.559 81.3937 395.535 81.7015 395.477 82.0453C395.429 82.3866 395.327 82.7303 395.17 83.0763C395.024 83.4198 394.803 83.7267 394.507 83.9971C394.211 84.2676 393.819 84.4626 393.332 84.5822C393.001 84.6636 392.648 84.7009 392.272 84.6942C391.908 84.6849 391.554 84.6072 391.21 84.4609C390.867 84.3146 390.561 84.0766 390.293 83.7469C390.023 83.4069 389.818 82.952 389.678 82.3823L388.449 77.379L389.941 77.0126L391.093 81.7052C391.211 82.1817 391.375 82.5368 391.586 82.7705C391.807 83.0016 392.072 83.1398 392.38 83.1851C392.687 83.2303 393.017 83.2097 393.369 83.1232C393.908 82.9909 394.327 82.7507 394.626 82.4027C394.933 82.0418 395.144 81.6494 395.259 81.2256C395.372 80.7915 395.412 80.3919 395.377 80.027ZM397.177 75.2354L402.195 74.0026L402.512 75.2923L397.493 76.525L397.177 75.2354ZM398.444 72.7492L399.92 72.3867L402.329 82.1912L400.852 82.5538L398.444 72.7492ZM412.713 79.8217C411.957 80.0075 411.224 80.0174 410.513 79.8515C409.802 79.6856 409.186 79.348 408.666 78.8388C408.145 78.3296 407.782 77.6554 407.576 76.8164C407.367 75.967 407.376 75.196 407.601 74.5036C407.824 73.8009 408.212 73.2113 408.765 72.735C409.318 72.2587 409.972 71.9276 410.729 71.7419C411.485 71.5562 412.213 71.5475 412.914 71.716C413.614 71.8844 414.226 72.2285 414.749 72.748C415.269 73.2572 415.634 73.9366 415.842 74.786C416.049 75.625 416.039 76.3908 415.814 77.0832C415.588 77.7756 415.204 78.3587 414.662 78.8325C414.119 79.3062 413.469 79.636 412.713 79.8217ZM412.397 78.5321C412.863 78.4176 413.267 78.2084 413.61 77.9045C413.96 77.5878 414.205 77.1981 414.344 76.7356C414.491 76.2602 414.493 75.7325 414.351 75.1524C414.206 74.5619 413.958 74.09 413.608 73.7368C413.268 73.3809 412.869 73.1439 412.411 73.0256C411.964 72.9047 411.508 72.9015 411.042 73.016C410.575 73.1305 410.167 73.3462 409.817 73.6629C409.463 73.9693 409.214 74.3602 409.067 74.8357C408.92 75.3111 408.92 75.8492 409.068 76.45C409.21 77.0301 409.452 77.498 409.792 77.8539C410.139 78.1968 410.542 78.4274 410.999 78.5457C411.454 78.6537 411.92 78.6491 412.397 78.5321ZM422.82 77.3393C422.219 77.4869 421.685 77.4808 421.217 77.321C420.75 77.1613 420.351 76.9022 420.021 76.5439C419.692 76.1855 419.418 75.786 419.2 75.3453C418.982 74.9046 418.822 74.477 418.72 74.0627C418.583 73.5033 418.501 72.9687 418.474 72.459C418.458 71.9467 418.519 71.4761 418.655 71.0472C418.791 70.6183 419.036 70.2506 419.389 69.9442C419.742 69.6378 420.224 69.4096 420.835 69.2595C421.509 69.0941 422.158 69.1213 422.783 69.3412C423.406 69.5508 423.953 69.9217 424.424 70.454C424.906 70.9837 425.242 71.637 425.433 72.4139C425.628 73.2116 425.636 73.9567 425.454 74.6493C425.27 75.3315 424.946 75.9109 424.481 76.3876C424.026 76.8618 423.473 77.179 422.82 77.3393ZM422.08 76.1371C422.577 76.015 422.989 75.7929 423.317 75.4709C423.641 75.1385 423.858 74.7449 423.966 74.29C424.081 73.8222 424.073 73.319 423.941 72.7803C423.745 71.9827 423.361 71.3796 422.788 70.9711C422.226 70.56 421.541 70.4537 420.733 70.6522C420.246 70.7718 419.839 70.9926 419.511 71.3146C419.194 71.6341 418.978 72.0277 418.862 72.4955C418.747 72.9633 418.756 73.4717 418.891 74.0207C419.018 74.5386 419.226 74.9819 419.514 75.3504C419.81 75.7061 420.175 75.9624 420.609 76.1194C421.041 76.2661 421.531 76.272 422.08 76.1371ZM416.445 70.5025L417.875 70.1514L418.368 71.892L420.605 80.9973L419.113 81.3637L416.445 70.5025ZM425.491 68.2806L430.51 67.0479L430.827 68.3375L425.808 69.5703L425.491 68.2806ZM426.759 65.7945L428.235 65.4319L430.643 75.2365L429.167 75.5991L426.759 65.7945ZM432.923 63.0612L433.316 64.6616L431.467 65.1158L431.074 63.5153L432.923 63.0612ZM432.047 66.6704L433.523 66.3078L435.428 74.0614L433.951 74.4239L432.047 66.6704ZM441.316 72.7962C440.56 72.9819 439.827 72.9918 439.116 72.8259C438.405 72.66 437.789 72.3224 437.269 71.8132C436.748 71.304 436.385 70.6299 436.179 69.7908C435.97 68.9414 435.979 68.1705 436.204 67.4781C436.427 66.7753 436.815 66.1858 437.368 65.7094C437.921 65.2331 438.575 64.9021 439.332 64.7163C440.088 64.5306 440.816 64.522 441.517 64.6904C442.217 64.8589 442.829 65.2029 443.352 65.7225C443.872 66.2317 444.237 66.911 444.445 67.7604C444.651 68.5995 444.642 69.3652 444.416 70.0576C444.191 70.75 443.807 71.3331 443.264 71.8069C442.722 72.2807 442.072 72.6104 441.316 72.7962ZM440.999 71.5065C441.466 71.392 441.87 71.1828 442.213 70.879C442.563 70.5622 442.808 70.1726 442.947 69.7101C443.094 69.2347 443.096 68.7069 442.954 68.1268C442.809 67.5364 442.561 67.0645 442.211 66.7112C441.871 66.3554 441.472 66.1183 441.014 66C440.567 65.8792 440.111 65.876 439.645 65.9905C439.178 66.105 438.77 66.3206 438.42 66.6374C438.066 66.9438 437.816 67.3347 437.67 67.8101C437.523 68.2855 437.523 68.8236 437.671 69.4244C437.813 70.0045 438.054 70.4725 438.394 70.8283C438.742 71.1712 439.145 71.4019 439.602 71.5202C440.057 71.6281 440.523 71.6236 440.999 71.5065ZM445.048 63.477L446.54 63.1106L448.444 70.8641L446.953 71.2305L445.048 63.477ZM449.454 62.2301C449.889 62.1232 450.298 62.0887 450.681 62.1265C451.063 62.1643 451.41 62.277 451.719 62.4645C452.026 62.6417 452.292 62.895 452.515 63.2245C452.747 63.5411 452.919 63.9273 453.031 64.383L454.271 69.4329L452.795 69.7955L451.635 65.0719C451.485 64.4607 451.222 64.0419 450.848 63.8152C450.482 63.5757 449.998 63.5297 449.397 63.6773C448.931 63.7918 448.533 64.0049 448.203 64.3166C447.874 64.6282 447.629 64.9959 447.469 65.4195C447.318 65.8302 447.271 66.2647 447.328 66.7228L447.103 65.872C447.053 65.445 447.067 65.035 447.147 64.6421C447.236 64.2466 447.379 63.8876 447.574 63.565C447.777 63.2295 448.038 62.9512 448.357 62.73C448.674 62.4985 449.04 62.3319 449.454 62.2301ZM455.264 66.5201L456.631 66.1842C456.785 66.5858 457.055 66.8819 457.442 67.0723C457.827 67.2524 458.31 67.2712 458.89 67.1287C459.263 67.0372 459.542 66.9245 459.729 66.7907C459.914 66.6466 460.028 66.4867 460.073 66.3109C460.128 66.1327 460.132 65.9503 460.087 65.7638C460.028 65.5256 459.921 65.3596 459.767 65.2658C459.609 65.1617 459.406 65.0961 459.158 65.0693C458.907 65.032 458.616 65.0101 458.285 65.0036C457.921 64.9943 457.552 64.9695 457.18 64.9292C456.807 64.8888 456.454 64.8162 456.121 64.7114C455.798 64.604 455.517 64.4424 455.277 64.2267C455.045 63.9981 454.882 63.6921 454.788 63.3088C454.709 62.9877 454.703 62.6708 454.769 62.358C454.845 62.0427 454.988 61.7548 455.199 61.4944C455.418 61.2211 455.69 60.9894 456.017 60.7993C456.341 60.5988 456.716 60.4464 457.14 60.3421C457.731 60.1971 458.255 60.1837 458.712 60.302C459.167 60.41 459.545 60.6301 459.846 60.9625C460.158 61.2924 460.38 61.7046 460.513 62.1993L459.207 62.5199C459.028 62.1026 458.8 61.8236 458.524 61.6828C458.245 61.5316 457.878 61.5119 457.422 61.6239C456.977 61.7333 456.657 61.9053 456.462 62.1399C456.267 62.3745 456.206 62.6421 456.28 62.9425C456.336 63.1703 456.464 63.3365 456.666 63.4408C456.865 63.5347 457.117 63.5991 457.422 63.634C457.727 63.6689 458.069 63.7001 458.45 63.7275C458.809 63.7601 459.154 63.8016 459.485 63.8521C459.824 63.8897 460.133 63.9621 460.412 64.0693C460.699 64.1637 460.941 64.3238 461.139 64.5497C461.345 64.7627 461.494 65.0556 461.586 65.4285C461.698 65.8843 461.682 66.3111 461.538 66.7089C461.391 67.0964 461.124 67.4368 460.734 67.7301C460.355 68.0209 459.86 68.2413 459.249 68.3914C458.69 68.5288 458.197 68.5785 457.77 68.5406C457.354 68.5 456.984 68.4041 456.661 68.2527C456.349 68.0988 456.091 67.9205 455.887 67.7179C455.692 67.5023 455.54 67.287 455.432 67.0718C455.335 66.8541 455.279 66.6702 455.264 66.5201Z" fill="white"/>
</g>
<defs>
<clipPath id="clip0_3780_40231">
<rect width="496" height="206" fill="white"/>
</clipPath>
</defs>
</svg>
