<svg width="36" height="35" viewBox="0 0 36 35" fill="none" xmlns="http://www.w3.org/2000/svg">
<circle cx="17.9884" cy="17.1312" r="17.0685" fill="white"/>
<g clip-path="url(#clip0_4342_41812)">
<path d="M17.6967 13.5088C17.0531 13.5088 16.424 13.6996 15.8889 14.0572C15.3537 14.4147 14.9367 14.9229 14.6904 15.5175C14.4441 16.1121 14.3796 16.7664 14.5052 17.3976C14.6308 18.0289 14.9407 18.6087 15.3958 19.0638C15.8509 19.5189 16.4307 19.8288 17.0619 19.9543C17.6931 20.0799 18.3474 20.0155 18.942 19.7692C19.5366 19.5229 20.0448 19.1058 20.4024 18.5707C20.7599 18.0355 20.9508 17.4064 20.9508 16.7628C20.9508 15.8998 20.6079 15.0721 19.9977 14.4618C19.3874 13.8516 18.5598 13.5088 17.6967 13.5088ZM17.6967 18.7152C17.3106 18.7152 16.9331 18.6007 16.612 18.3862C16.2909 18.1717 16.0407 17.8667 15.8929 17.51C15.7451 17.1532 15.7065 16.7606 15.7818 16.3819C15.8571 16.0032 16.0431 15.6553 16.3162 15.3822C16.5892 15.1092 16.9371 14.9232 17.3158 14.8479C17.6946 14.7726 18.0871 14.8112 18.4439 14.959C18.8007 15.1068 19.1056 15.357 19.3201 15.6781C19.5347 15.9992 19.6492 16.3767 19.6492 16.7628C19.6492 17.2806 19.4435 17.7772 19.0773 18.1434C18.7112 18.5095 18.2145 18.7152 17.6967 18.7152ZM26.8081 10.9055H8.58538C8.41278 10.9055 8.24724 10.9741 8.12519 11.0961C8.00314 11.2182 7.93457 11.3837 7.93457 11.5563V21.9693C7.93457 22.1419 8.00314 22.3074 8.12519 22.4295C8.24724 22.5515 8.41278 22.6201 8.58538 22.6201H26.8081C26.9807 22.6201 27.1462 22.5515 27.2683 22.4295C27.3903 22.3074 27.4589 22.1419 27.4589 21.9693V11.5563C27.4589 11.3837 27.3903 11.2182 27.2683 11.0961C27.1462 10.9741 26.9807 10.9055 26.8081 10.9055ZM23.0374 21.3185H12.356C12.1375 20.5795 11.7376 19.9069 11.1927 19.362C10.6478 18.8171 9.97518 18.4172 9.23619 18.1987V15.327C9.97518 15.1085 10.6478 14.7085 11.1927 14.1636C11.7376 13.6187 12.1375 12.9461 12.356 12.2071H23.0374C23.2559 12.9461 23.6559 13.6187 24.2008 14.1636C24.7457 14.7085 25.4183 15.1085 26.1573 15.327V18.1987C25.4183 18.4172 24.7457 18.8171 24.2008 19.362C23.6559 19.9069 23.2559 20.5795 23.0374 21.3185ZM26.1573 13.9456C25.3766 13.61 24.7545 12.9878 24.4188 12.2071H26.1573V13.9456ZM10.9747 12.2071C10.639 12.9878 10.0168 13.61 9.23619 13.9456V12.2071H10.9747ZM9.23619 19.58C10.0168 19.9157 10.639 20.5379 10.9747 21.3185H9.23619V19.58ZM24.4188 21.3185C24.7545 20.5379 25.3766 19.9157 26.1573 19.58V21.3185H24.4188Z" fill="#23A323"/>
</g>
<defs>
<clipPath id="clip0_4342_41812">
<rect width="20.8259" height="20.8259" fill="white" transform="translate(8.28418 7.34973)"/>
</clipPath>
</defs>
</svg>
