<svg width="741" height="148" viewBox="0 0 741 148" fill="none" xmlns="http://www.w3.org/2000/svg">
<g clip-path="url(#clip0_4130_41293)">
<path d="M12.5122 18.0184V51.0184H36.7522V56.8984H5.67219V18.0184H12.5122ZM67.1136 47.0584H73.5336C73.2136 49.0984 72.4136 50.9184 71.1336 52.5184C69.8936 54.0784 68.1936 55.3184 66.0336 56.2384C63.8736 57.1184 61.2936 57.5584 58.2936 57.5584C54.8936 57.5584 51.8536 56.9384 49.1736 55.6984C46.4936 54.4184 44.3936 52.6184 42.8736 50.2984C41.3536 47.9784 40.5936 45.2184 40.5936 42.0184C40.5936 38.8584 41.3336 36.0984 42.8136 33.7384C44.2936 31.3784 46.3336 29.5584 48.9336 28.2784C51.5736 26.9984 54.6136 26.3584 58.0536 26.3584C61.6136 26.3584 64.5736 26.9984 66.9336 28.2784C69.3336 29.5184 71.1136 31.3984 72.2736 33.9184C73.4336 36.3984 73.9136 39.5384 73.7136 43.3384H47.3736C47.5736 45.0184 48.1136 46.5384 48.9936 47.8984C49.9136 49.2184 51.1536 50.2584 52.7136 51.0184C54.2736 51.7384 56.0936 52.0984 58.1736 52.0984C60.4936 52.0984 62.4336 51.6384 63.9936 50.7184C65.5936 49.7984 66.6336 48.5784 67.1136 47.0584ZM57.8736 31.7584C55.1536 31.7584 52.9136 32.4384 51.1536 33.7984C49.3936 35.1184 48.2536 36.8184 47.7336 38.8984H66.9936C66.8336 36.6584 65.9336 34.9184 64.2936 33.6784C62.6536 32.3984 60.5136 31.7584 57.8736 31.7584ZM93.2389 52.1584H90.8989L101.219 27.0184H108.479L95.2789 56.8984H88.9189L75.8989 27.0184H83.2189L93.2389 52.1584ZM137.075 47.0584H143.495C143.175 49.0984 142.375 50.9184 141.095 52.5184C139.855 54.0784 138.155 55.3184 135.995 56.2384C133.835 57.1184 131.255 57.5584 128.255 57.5584C124.855 57.5584 121.815 56.9384 119.135 55.6984C116.455 54.4184 114.355 52.6184 112.835 50.2984C111.315 47.9784 110.555 45.2184 110.555 42.0184C110.555 38.8584 111.295 36.0984 112.775 33.7384C114.255 31.3784 116.295 29.5584 118.895 28.2784C121.535 26.9984 124.575 26.3584 128.015 26.3584C131.575 26.3584 134.535 26.9984 136.895 28.2784C139.295 29.5184 141.075 31.3984 142.235 33.9184C143.395 36.3984 143.875 39.5384 143.675 43.3384H117.335C117.535 45.0184 118.075 46.5384 118.955 47.8984C119.875 49.2184 121.115 50.2584 122.675 51.0184C124.235 51.7384 126.055 52.0984 128.135 52.0984C130.455 52.0984 132.395 51.6384 133.955 50.7184C135.555 49.7984 136.595 48.5784 137.075 47.0584ZM127.835 31.7584C125.115 31.7584 122.875 32.4384 121.115 33.7984C119.355 35.1184 118.215 36.8184 117.695 38.8984H136.955C136.795 36.6584 135.895 34.9184 134.255 33.6784C132.615 32.3984 130.475 31.7584 127.835 31.7584ZM149.615 27.0184H156.275V56.8984H149.615V27.0184ZM167.075 32.7184C164.915 32.7184 163.055 33.1784 161.495 34.0984C159.975 35.0184 158.755 36.1384 157.835 37.4584C156.915 38.7784 156.275 40.0584 155.915 41.2984L155.855 37.9384C155.895 37.4984 156.035 36.8384 156.275 35.9584C156.515 35.0384 156.875 34.0384 157.355 32.9584C157.875 31.8784 158.555 30.8384 159.395 29.8384C160.275 28.7984 161.335 27.9584 162.575 27.3184C163.855 26.6784 165.355 26.3584 167.075 26.3584V32.7184ZM185.435 57.5584C182.715 57.5584 180.215 56.8984 177.935 55.5784C175.695 54.2584 173.895 52.4384 172.535 50.1184C171.215 47.7584 170.555 45.0584 170.555 42.0184C170.555 38.8984 171.235 36.1784 172.595 33.8584C173.955 31.4984 175.795 29.6584 178.115 28.3384C180.435 27.0184 183.035 26.3584 185.915 26.3584C189.115 26.3584 191.655 27.0584 193.535 28.4584C195.415 29.8584 196.755 31.7384 197.555 34.0984C198.355 36.4584 198.755 39.0984 198.755 42.0184C198.755 43.6584 198.515 45.3984 198.035 47.2384C197.555 49.0384 196.795 50.7184 195.755 52.2784C194.755 53.8384 193.395 55.1184 191.675 56.1184C189.995 57.0784 187.915 57.5584 185.435 57.5584ZM187.475 52.0384C189.715 52.0384 191.615 51.6184 193.175 50.7784C194.775 49.8984 195.975 48.6984 196.775 47.1784C197.615 45.6584 198.035 43.9384 198.035 42.0184C198.035 39.8984 197.615 38.0984 196.775 36.6184C195.935 35.0984 194.735 33.9384 193.175 33.1384C191.615 32.2984 189.715 31.8784 187.475 31.8784C184.275 31.8784 181.795 32.8184 180.035 34.6984C178.275 36.5784 177.395 39.0184 177.395 42.0184C177.395 43.9784 177.815 45.7184 178.655 47.2384C179.535 48.7584 180.735 49.9384 182.255 50.7784C183.775 51.6184 185.515 52.0384 187.475 52.0384ZM198.035 27.0184H204.755V56.8984H198.515C198.515 56.8984 198.475 56.5184 198.395 55.7584C198.315 54.9984 198.235 54.0784 198.155 52.9984C198.075 51.8784 198.035 50.8184 198.035 49.8184V27.0184ZM225.395 52.2784C222.595 52.2784 220.055 51.7784 217.775 50.7784C215.535 49.7784 213.755 48.3184 212.435 46.3984C211.155 44.4784 210.515 42.1784 210.515 39.4984C210.515 36.8184 211.135 34.4984 212.375 32.5384C213.655 30.5784 215.415 29.0584 217.655 27.9784C219.935 26.8984 222.515 26.3584 225.395 26.3584C226.235 26.3584 227.035 26.4184 227.795 26.5384C228.595 26.6584 229.355 26.8184 230.075 27.0184L244.055 27.0784V32.6584C242.135 32.6984 240.195 32.4384 238.235 31.8784C236.315 31.2784 234.615 30.6584 233.135 30.0184L232.955 29.6584C234.315 30.3384 235.535 31.1784 236.615 32.1784C237.735 33.1384 238.615 34.2384 239.255 35.4784C239.895 36.7184 240.215 38.1184 240.215 39.6784C240.215 42.3184 239.575 44.5784 238.295 46.4584C237.055 48.3384 235.315 49.7784 233.075 50.7784C230.875 51.7784 228.315 52.2784 225.395 52.2784ZM234.995 69.0784V67.6984C234.995 65.7384 234.415 64.3584 233.255 63.5584C232.095 62.7584 230.475 62.3584 228.395 62.3584H220.295C218.695 62.3584 217.315 62.2184 216.155 61.9384C215.035 61.6984 214.135 61.3184 213.455 60.7984C212.775 60.3184 212.275 59.7384 211.955 59.0584C211.635 58.4184 211.475 57.6984 211.475 56.8984C211.475 55.2984 211.955 54.0984 212.915 53.2984C213.915 52.4984 215.215 51.9784 216.815 51.7384C218.455 51.4984 220.175 51.4584 221.975 51.6184L225.395 52.2784C223.035 52.3584 221.235 52.5784 219.995 52.9384C218.795 53.2584 218.195 53.9184 218.195 54.9184C218.195 55.5184 218.435 55.9984 218.915 56.3584C219.395 56.7184 220.075 56.8984 220.955 56.8984H229.475C231.915 56.8984 234.055 57.1784 235.895 57.7384C237.735 58.3384 239.155 59.3184 240.155 60.6784C241.195 62.0784 241.715 63.9784 241.715 66.3784V69.0784H234.995ZM225.395 47.0584C226.995 47.0584 228.415 46.7584 229.655 46.1584C230.895 45.5584 231.875 44.6984 232.595 43.5784C233.315 42.4584 233.675 41.0984 233.675 39.4984C233.675 37.8984 233.315 36.5184 232.595 35.3584C231.875 34.1984 230.895 33.3184 229.655 32.7184C228.415 32.1184 226.995 31.8184 225.395 31.8184C223.835 31.8184 222.415 32.1184 221.135 32.7184C219.895 33.3184 218.915 34.1984 218.195 35.3584C217.475 36.4784 217.115 37.8584 217.115 39.4984C217.115 41.0984 217.475 42.4584 218.195 43.5784C218.915 44.6984 219.895 45.5584 221.135 46.1584C222.375 46.7584 223.795 47.0584 225.395 47.0584ZM274.008 47.0584H280.428C280.108 49.0984 279.308 50.9184 278.028 52.5184C276.788 54.0784 275.088 55.3184 272.928 56.2384C270.768 57.1184 268.188 57.5584 265.188 57.5584C261.788 57.5584 258.748 56.9384 256.068 55.6984C253.388 54.4184 251.288 52.6184 249.768 50.2984C248.248 47.9784 247.488 45.2184 247.488 42.0184C247.488 38.8584 248.228 36.0984 249.708 33.7384C251.188 31.3784 253.228 29.5584 255.828 28.2784C258.468 26.9984 261.508 26.3584 264.948 26.3584C268.508 26.3584 271.468 26.9984 273.828 28.2784C276.228 29.5184 278.008 31.3984 279.168 33.9184C280.328 36.3984 280.808 39.5384 280.608 43.3384H254.268C254.468 45.0184 255.008 46.5384 255.888 47.8984C256.808 49.2184 258.048 50.2584 259.608 51.0184C261.168 51.7384 262.988 52.0984 265.068 52.0984C267.388 52.0984 269.328 51.6384 270.888 50.7184C272.488 49.7984 273.528 48.5784 274.008 47.0584ZM264.768 31.7584C262.048 31.7584 259.808 32.4384 258.048 33.7984C256.288 35.1184 255.148 36.8184 254.628 38.8984H273.888C273.728 36.6584 272.828 34.9184 271.188 33.6784C269.548 32.3984 267.408 31.7584 264.768 31.7584ZM316.276 57.5584C312.956 57.5584 309.976 56.9584 307.336 55.7584C304.696 54.5584 302.616 52.7984 301.096 50.4784C299.576 48.1584 298.816 45.3384 298.816 42.0184C298.816 38.7384 299.576 35.9384 301.096 33.6184C302.616 31.2584 304.696 29.4584 307.336 28.2184C309.976 26.9784 312.956 26.3584 316.276 26.3584C319.596 26.3584 322.556 26.9784 325.156 28.2184C327.756 29.4584 329.796 31.2584 331.276 33.6184C332.796 35.9384 333.556 38.7384 333.556 42.0184C333.556 45.3384 332.796 48.1584 331.276 50.4784C329.796 52.7984 327.756 54.5584 325.156 55.7584C322.556 56.9584 319.596 57.5584 316.276 57.5584ZM316.276 52.0984C318.196 52.0984 319.956 51.7184 321.556 50.9584C323.156 50.1984 324.416 49.0584 325.336 47.5384C326.296 46.0184 326.776 44.1784 326.776 42.0184C326.776 39.8584 326.296 38.0184 325.336 36.4984C324.416 34.9784 323.156 33.8184 321.556 33.0184C319.996 32.1784 318.236 31.7584 316.276 31.7584C314.316 31.7584 312.536 32.1584 310.936 32.9584C309.336 33.7584 308.036 34.9184 307.036 36.4384C306.076 37.9584 305.596 39.8184 305.596 42.0184C305.596 44.1784 306.076 46.0184 307.036 47.5384C307.996 49.0584 309.276 50.1984 310.876 50.9584C312.516 51.7184 314.316 52.0984 316.276 52.0984ZM370.657 56.8984H363.997V27.0184H370.657V56.8984ZM364.357 42.6784L364.417 44.5984C364.337 45.1184 364.157 45.8984 363.877 46.9384C363.637 47.9784 363.217 49.1184 362.617 50.3584C362.057 51.5584 361.297 52.7184 360.337 53.8384C359.417 54.9184 358.257 55.8184 356.857 56.5384C355.457 57.2184 353.757 57.5584 351.757 57.5584C350.317 57.5584 348.857 57.3584 347.377 56.9584C345.937 56.5984 344.617 55.9784 343.417 55.0984C342.257 54.2184 341.317 53.0184 340.597 51.4984C339.877 49.9784 339.517 48.0584 339.517 45.7384V27.0184H346.177V44.4784C346.177 46.3584 346.477 47.8384 347.077 48.9184C347.717 49.9584 348.597 50.6984 349.717 51.1384C350.837 51.5784 352.137 51.7984 353.617 51.7984C355.737 51.7984 357.537 51.3184 359.017 50.3584C360.497 49.3984 361.677 48.2184 362.557 46.8184C363.477 45.3784 364.077 43.9984 364.357 42.6784ZM378.013 27.0184H384.673V56.8984H378.013V27.0184ZM395.473 32.7184C393.313 32.7184 391.453 33.1784 389.893 34.0984C388.373 35.0184 387.153 36.1384 386.233 37.4584C385.313 38.7784 384.673 40.0584 384.313 41.2984L384.253 37.9384C384.293 37.4984 384.433 36.8384 384.673 35.9584C384.913 35.0384 385.273 34.0384 385.753 32.9584C386.273 31.8784 386.953 30.8384 387.793 29.8384C388.673 28.7984 389.733 27.9584 390.973 27.3184C392.253 26.6784 393.753 26.3584 395.473 26.3584V32.7184ZM271.03 99.0184H292.15V104.478H271.03V99.0184ZM278.23 90.9784H284.95V128.898H278.23V90.9784ZM312.819 129.558C309.499 129.558 306.519 128.958 303.879 127.758C301.239 126.558 299.159 124.798 297.639 122.478C296.119 120.158 295.359 117.338 295.359 114.018C295.359 110.738 296.119 107.938 297.639 105.618C299.159 103.258 301.239 101.458 303.879 100.218C306.519 98.9784 309.499 98.3584 312.819 98.3584C316.139 98.3584 319.099 98.9784 321.699 100.218C324.299 101.458 326.339 103.258 327.819 105.618C329.339 107.938 330.099 110.738 330.099 114.018C330.099 117.338 329.339 120.158 327.819 122.478C326.339 124.798 324.299 126.558 321.699 127.758C319.099 128.958 316.139 129.558 312.819 129.558ZM312.819 124.098C314.739 124.098 316.499 123.718 318.099 122.958C319.699 122.198 320.959 121.058 321.879 119.538C322.839 118.018 323.319 116.178 323.319 114.018C323.319 111.858 322.839 110.018 321.879 108.498C320.959 106.978 319.699 105.818 318.099 105.018C316.539 104.178 314.779 103.758 312.819 103.758C310.859 103.758 309.079 104.158 307.479 104.958C305.879 105.758 304.579 106.918 303.579 108.438C302.619 109.958 302.139 111.818 302.139 114.018C302.139 116.178 302.619 118.018 303.579 119.538C304.539 121.058 305.819 122.198 307.419 122.958C309.059 123.718 310.859 124.098 312.819 124.098Z" fill="#041004"/>
<path d="M431.561 33.7384V28.3384H445.481V33.7384H431.561ZM439.781 28.3384H446.441V56.8984H439.781V28.3384ZM418.421 56.8984V25.3384L425.141 25.9384V56.8984H418.421ZM429.461 15.0184H446.441V20.7784H430.661C429.541 20.7384 428.561 20.8584 427.721 21.1384C426.921 21.4184 426.281 21.9384 425.801 22.6984C425.361 23.4584 425.141 24.5384 425.141 25.9384L418.421 25.3384C418.421 22.9384 418.861 20.9784 419.741 19.4584C420.621 17.9384 421.881 16.8184 423.521 16.0984C425.201 15.3784 427.181 15.0184 429.461 15.0184ZM412.241 28.3384H433.901V33.7384H412.241V28.3384ZM453.775 27.0184H460.435V56.8984H453.775V27.0184ZM473.035 26.3584C474.755 26.3584 476.335 26.5984 477.775 27.0784C479.255 27.5584 480.515 28.2984 481.555 29.2984C482.635 30.2584 483.455 31.4584 484.015 32.8984C484.615 34.3384 484.915 36.0384 484.915 37.9984V56.8984H478.255V39.3184C478.255 36.8784 477.655 35.0784 476.455 33.9184C475.295 32.7184 473.455 32.1184 470.935 32.1184C469.015 32.1184 467.255 32.5384 465.655 33.3784C464.095 34.1784 462.815 35.2384 461.815 36.5584C460.815 37.8384 460.235 39.2584 460.075 40.8184L460.015 37.5784C460.215 36.0984 460.655 34.6984 461.335 33.3784C462.015 32.0184 462.915 30.8184 464.035 29.7784C465.155 28.6984 466.475 27.8584 467.995 27.2584C469.515 26.6584 471.195 26.3584 473.035 26.3584ZM505.591 57.5584C502.871 57.5584 500.371 56.8984 498.091 55.5784C495.851 54.2584 494.051 52.4384 492.691 50.1184C491.371 47.7584 490.711 45.0584 490.711 42.0184C490.711 38.8984 491.391 36.1784 492.751 33.8584C494.111 31.4984 495.951 29.6584 498.271 28.3384C500.591 27.0184 503.191 26.3584 506.071 26.3584C509.271 26.3584 511.811 27.0584 513.691 28.4584C515.571 29.8584 516.911 31.7384 517.711 34.0984C518.511 36.4584 518.911 39.0984 518.911 42.0184C518.911 43.6584 518.671 45.3984 518.191 47.2384C517.711 49.0384 516.951 50.7184 515.911 52.2784C514.911 53.8384 513.551 55.1184 511.831 56.1184C510.151 57.0784 508.071 57.5584 505.591 57.5584ZM507.631 52.0384C509.871 52.0384 511.771 51.6184 513.331 50.7784C514.931 49.8984 516.131 48.6984 516.931 47.1784C517.771 45.6584 518.191 43.9384 518.191 42.0184C518.191 39.8984 517.771 38.0984 516.931 36.6184C516.091 35.0984 514.891 33.9384 513.331 33.1384C511.771 32.2984 509.871 31.8784 507.631 31.8784C504.431 31.8784 501.951 32.8184 500.191 34.6984C498.431 36.5784 497.551 39.0184 497.551 42.0184C497.551 43.9784 497.971 45.7184 498.811 47.2384C499.691 48.7584 500.891 49.9384 502.411 50.7784C503.931 51.6184 505.671 52.0384 507.631 52.0384ZM518.191 27.0184H524.911V56.8984H518.671C518.671 56.8984 518.631 56.5184 518.551 55.7584C518.471 54.9984 518.391 54.0784 518.311 52.9984C518.231 51.8784 518.191 50.8184 518.191 49.8184V27.0184ZM532.232 27.0184H538.892V56.8984H532.232V27.0184ZM551.492 26.3584C553.212 26.3584 554.792 26.5984 556.232 27.0784C557.712 27.5584 558.972 28.2984 560.012 29.2984C561.092 30.2584 561.912 31.4584 562.472 32.8984C563.072 34.3384 563.372 36.0384 563.372 37.9984V56.8984H556.712V39.3184C556.712 36.8784 556.112 35.0784 554.912 33.9184C553.752 32.7184 551.912 32.1184 549.392 32.1184C547.472 32.1184 545.712 32.5384 544.112 33.3784C542.552 34.1784 541.272 35.2384 540.272 36.5584C539.272 37.8384 538.692 39.2584 538.532 40.8184L538.472 37.5784C538.672 36.0984 539.112 34.6984 539.792 33.3784C540.472 32.0184 541.372 30.8184 542.492 29.7784C543.612 28.6984 544.932 27.8584 546.452 27.2584C547.972 26.6584 549.652 26.3584 551.492 26.3584ZM602.888 45.3184C602.648 47.8784 601.828 50.0784 600.428 51.9184C599.028 53.7584 597.148 55.1584 594.788 56.1184C592.468 57.0784 589.788 57.5584 586.748 57.5584C583.468 57.5584 580.488 56.9584 577.808 55.7584C575.168 54.5584 573.068 52.7984 571.508 50.4784C569.948 48.1584 569.168 45.3384 569.168 42.0184C569.168 38.6984 569.948 35.8784 571.508 33.5584C573.068 31.2384 575.168 29.4584 577.808 28.2184C580.488 26.9784 583.468 26.3584 586.748 26.3584C589.788 26.3584 592.468 26.8584 594.788 27.8584C597.108 28.8184 598.968 30.1984 600.368 31.9984C601.768 33.7984 602.588 35.9784 602.828 38.5384H596.708C596.028 36.4184 594.788 34.7784 592.988 33.6184C591.228 32.4184 589.148 31.8184 586.748 31.8184C584.788 31.8184 582.988 32.2184 581.348 33.0184C579.708 33.7784 578.388 34.9184 577.388 36.4384C576.428 37.9184 575.948 39.7784 575.948 42.0184C575.948 44.2184 576.428 46.0784 577.388 47.5984C578.388 49.1184 579.708 50.2584 581.348 51.0184C582.988 51.7384 584.788 52.0984 586.748 52.0984C589.388 52.0984 591.548 51.5184 593.228 50.3584C594.948 49.1584 596.128 47.4784 596.768 45.3184H602.888ZM616.555 14.3584V20.7784H608.575V14.3584H616.555ZM609.175 27.0184H615.895V56.8984H609.175V27.0184ZM637.192 57.5584C634.472 57.5584 631.972 56.8984 629.692 55.5784C627.452 54.2584 625.652 52.4384 624.292 50.1184C622.972 47.7584 622.312 45.0584 622.312 42.0184C622.312 38.8984 622.992 36.1784 624.352 33.8584C625.712 31.4984 627.552 29.6584 629.872 28.3384C632.192 27.0184 634.792 26.3584 637.672 26.3584C640.872 26.3584 643.412 27.0584 645.292 28.4584C647.172 29.8584 648.512 31.7384 649.312 34.0984C650.112 36.4584 650.512 39.0984 650.512 42.0184C650.512 43.6584 650.272 45.3984 649.792 47.2384C649.312 49.0384 648.552 50.7184 647.512 52.2784C646.512 53.8384 645.152 55.1184 643.432 56.1184C641.752 57.0784 639.672 57.5584 637.192 57.5584ZM639.232 52.0384C641.472 52.0384 643.372 51.6184 644.932 50.7784C646.532 49.8984 647.732 48.6984 648.532 47.1784C649.372 45.6584 649.792 43.9384 649.792 42.0184C649.792 39.8984 649.372 38.0984 648.532 36.6184C647.692 35.0984 646.492 33.9384 644.932 33.1384C643.372 32.2984 641.472 31.8784 639.232 31.8784C636.032 31.8784 633.552 32.8184 631.792 34.6984C630.032 36.5784 629.152 39.0184 629.152 42.0184C629.152 43.9784 629.572 45.7184 630.412 47.2384C631.292 48.7584 632.492 49.9384 634.012 50.7784C635.532 51.6184 637.272 52.0384 639.232 52.0384ZM649.792 27.0184H656.512V56.8984H650.272C650.272 56.8984 650.232 56.5184 650.152 55.7584C650.072 54.9984 649.992 54.0784 649.912 52.9984C649.832 51.8784 649.792 50.8184 649.792 49.8184V27.0184ZM664.433 15.0184H671.093V56.8984H664.433V15.0184ZM3.39219 119.058H9.57219C9.89219 120.578 10.7122 121.818 12.0322 122.778C13.3522 123.698 15.1322 124.158 17.3722 124.158C18.8122 124.158 19.9322 123.998 20.7322 123.678C21.5722 123.358 22.1522 122.918 22.4722 122.358C22.8322 121.798 23.0122 121.158 23.0122 120.438C23.0122 119.558 22.7522 118.878 22.2322 118.398C21.7522 117.918 21.0322 117.518 20.0722 117.198C19.1122 116.878 17.9122 116.598 16.4722 116.358C14.9922 115.998 13.5322 115.598 12.0922 115.158C10.6522 114.718 9.35219 114.178 8.19219 113.538C7.03219 112.858 6.11219 112.018 5.43219 111.018C4.79219 109.978 4.47219 108.718 4.47219 107.238C4.47219 105.878 4.77219 104.658 5.37219 103.578C6.01219 102.458 6.89219 101.518 8.01219 100.758C9.13219 99.9984 10.4522 99.4184 11.9722 99.0184C13.4922 98.5784 15.1522 98.3584 16.9522 98.3584C19.5522 98.3584 21.7122 98.7784 23.4322 99.6184C25.1922 100.458 26.5122 101.638 27.3922 103.158C28.3122 104.678 28.7722 106.418 28.7722 108.378H22.8922C22.5722 106.778 21.9522 105.618 21.0322 104.898C20.1122 104.178 18.7322 103.818 16.8922 103.818C15.0522 103.818 13.6522 104.138 12.6922 104.778C11.7322 105.418 11.2522 106.298 11.2522 107.418C11.2522 108.258 11.5522 108.938 12.1522 109.458C12.7922 109.938 13.6922 110.358 14.8522 110.718C16.0122 111.078 17.3722 111.438 18.9322 111.798C20.3722 112.198 21.7322 112.618 23.0122 113.058C24.2922 113.458 25.4322 113.978 26.4322 114.618C27.4722 115.218 28.2922 116.018 28.8922 117.018C29.4922 118.018 29.7922 119.258 29.7922 120.738C29.7922 122.578 29.2922 124.158 28.2922 125.478C27.3322 126.798 25.9322 127.818 24.0922 128.538C22.2522 129.218 20.0322 129.558 17.4322 129.558C15.1522 129.558 13.1722 129.298 11.4922 128.778C9.85219 128.258 8.47219 127.578 7.35219 126.738C6.27219 125.898 5.43219 124.998 4.83219 124.038C4.23219 123.078 3.81219 122.158 3.57219 121.278C3.37219 120.398 3.31219 119.658 3.39219 119.058ZM33.7255 99.0184H54.8455V104.478H33.7255V99.0184ZM40.9255 90.9784H47.6455V128.898H40.9255V90.9784ZM60.0833 99.0184H66.7433V128.898H60.0833V99.0184ZM77.5433 104.718C75.3833 104.718 73.5233 105.178 71.9633 106.098C70.4433 107.018 69.2233 108.138 68.3033 109.458C67.3833 110.778 66.7433 112.058 66.3833 113.298L66.3233 109.938C66.3633 109.498 66.5033 108.838 66.7433 107.958C66.9833 107.038 67.3433 106.038 67.8233 104.958C68.3433 103.878 69.0233 102.838 69.8633 101.838C70.7433 100.798 71.8033 99.9584 73.0433 99.3184C74.3233 98.6784 75.8233 98.3584 77.5433 98.3584V104.718ZM107.543 119.058H113.963C113.643 121.098 112.843 122.918 111.563 124.518C110.323 126.078 108.623 127.318 106.463 128.238C104.303 129.118 101.723 129.558 98.7233 129.558C95.3233 129.558 92.2833 128.938 89.6033 127.698C86.9233 126.418 84.8233 124.618 83.3033 122.298C81.7833 119.978 81.0233 117.218 81.0233 114.018C81.0233 110.858 81.7633 108.098 83.2433 105.738C84.7233 103.378 86.7633 101.558 89.3633 100.278C92.0033 98.9984 95.0433 98.3584 98.4833 98.3584C102.043 98.3584 105.003 98.9984 107.363 100.278C109.763 101.518 111.543 103.398 112.703 105.918C113.863 108.398 114.343 111.538 114.143 115.338H87.8033C88.0033 117.018 88.5433 118.538 89.4233 119.898C90.3433 121.218 91.5833 122.258 93.1433 123.018C94.7033 123.738 96.5233 124.098 98.6033 124.098C100.923 124.098 102.863 123.638 104.423 122.718C106.023 121.798 107.063 120.578 107.543 119.058ZM98.3033 103.758C95.5833 103.758 93.3433 104.438 91.5833 105.798C89.8233 107.118 88.6833 108.818 88.1633 110.898H107.423C107.263 108.658 106.363 106.918 104.723 105.678C103.083 104.398 100.943 103.758 98.3033 103.758ZM120.083 99.0184H126.743V128.898H120.083V99.0184ZM139.343 98.3584C141.063 98.3584 142.643 98.5984 144.083 99.0784C145.563 99.5584 146.823 100.298 147.863 101.298C148.943 102.258 149.763 103.458 150.323 104.898C150.923 106.338 151.223 108.038 151.223 109.998V128.898H144.563V111.318C144.563 108.878 143.963 107.078 142.763 105.918C141.603 104.718 139.763 104.118 137.243 104.118C135.323 104.118 133.563 104.538 131.963 105.378C130.403 106.178 129.123 107.238 128.123 108.558C127.123 109.838 126.543 111.258 126.383 112.818L126.323 109.578C126.523 108.098 126.963 106.698 127.643 105.378C128.323 104.018 129.223 102.818 130.343 101.778C131.463 100.698 132.783 99.8584 134.303 99.2584C135.823 98.6584 137.503 98.3584 139.343 98.3584ZM171.899 124.278C169.099 124.278 166.559 123.778 164.279 122.778C162.039 121.778 160.259 120.318 158.939 118.398C157.659 116.478 157.019 114.178 157.019 111.498C157.019 108.818 157.639 106.498 158.879 104.538C160.159 102.578 161.919 101.058 164.159 99.9784C166.439 98.8984 169.019 98.3584 171.899 98.3584C172.739 98.3584 173.539 98.4184 174.299 98.5384C175.099 98.6584 175.859 98.8184 176.579 99.0184L190.559 99.0784V104.658C188.639 104.698 186.699 104.438 184.739 103.878C182.819 103.278 181.119 102.658 179.639 102.018L179.459 101.658C180.819 102.338 182.039 103.178 183.119 104.178C184.239 105.138 185.119 106.238 185.759 107.478C186.399 108.718 186.719 110.118 186.719 111.678C186.719 114.318 186.079 116.578 184.799 118.458C183.559 120.338 181.819 121.778 179.579 122.778C177.379 123.778 174.819 124.278 171.899 124.278ZM181.499 141.078V139.698C181.499 137.738 180.919 136.358 179.759 135.558C178.599 134.758 176.979 134.358 174.899 134.358H166.799C165.199 134.358 163.819 134.218 162.659 133.938C161.539 133.698 160.639 133.318 159.959 132.798C159.279 132.318 158.779 131.738 158.459 131.058C158.139 130.418 157.979 129.698 157.979 128.898C157.979 127.298 158.459 126.098 159.419 125.298C160.419 124.498 161.719 123.978 163.319 123.738C164.959 123.498 166.679 123.458 168.479 123.618L171.899 124.278C169.539 124.358 167.739 124.578 166.499 124.938C165.299 125.258 164.699 125.918 164.699 126.918C164.699 127.518 164.939 127.998 165.419 128.358C165.899 128.718 166.579 128.898 167.459 128.898H175.979C178.419 128.898 180.559 129.178 182.399 129.738C184.239 130.338 185.659 131.318 186.659 132.678C187.699 134.078 188.219 135.978 188.219 138.378V141.078H181.499ZM171.899 119.058C173.499 119.058 174.919 118.758 176.159 118.158C177.399 117.558 178.379 116.698 179.099 115.578C179.819 114.458 180.179 113.098 180.179 111.498C180.179 109.898 179.819 108.518 179.099 107.358C178.379 106.198 177.399 105.318 176.159 104.718C174.919 104.118 173.499 103.818 171.899 103.818C170.339 103.818 168.919 104.118 167.639 104.718C166.399 105.318 165.419 106.198 164.699 107.358C163.979 108.478 163.619 109.858 163.619 111.498C163.619 113.098 163.979 114.458 164.699 115.578C165.419 116.698 166.399 117.558 167.639 118.158C168.879 118.758 170.299 119.058 171.899 119.058ZM193.804 99.0184H214.924V104.478H193.804V99.0184ZM201.004 90.9784H207.724V128.898H201.004V90.9784ZM245.241 128.898V111.618C245.241 110.018 244.961 108.698 244.401 107.658C243.881 106.578 243.061 105.758 241.941 105.198C240.821 104.638 239.341 104.358 237.501 104.358C235.661 104.358 233.981 104.758 232.461 105.558C230.941 106.318 229.701 107.338 228.741 108.618C227.781 109.898 227.221 111.318 227.061 112.878L227.001 109.518C227.201 108.078 227.641 106.698 228.321 105.378C229.001 104.018 229.901 102.818 231.021 101.778C232.141 100.738 233.461 99.9184 234.981 99.3184C236.501 98.6784 238.181 98.3584 240.021 98.3584C241.741 98.3584 243.321 98.5984 244.761 99.0784C246.241 99.5584 247.501 100.278 248.541 101.238C249.621 102.158 250.441 103.318 251.001 104.718C251.601 106.078 251.901 107.658 251.901 109.458V128.898H245.241ZM220.761 128.898V87.0184H227.421V128.898H220.761Z" fill="#23A323"/>
<path d="M363.208 129.558C360.448 129.558 357.928 128.898 355.648 127.578C353.408 126.258 351.628 124.438 350.308 122.118C348.988 119.758 348.328 117.058 348.328 114.018C348.328 110.898 348.968 108.178 350.248 105.858C351.568 103.498 353.328 101.658 355.528 100.338C357.768 99.0184 360.328 98.3584 363.208 98.3584C365.728 98.3584 367.848 98.7784 369.568 99.6184C371.288 100.418 372.648 101.538 373.648 102.978C374.648 104.378 375.368 106.018 375.808 107.898C376.288 109.778 376.528 111.818 376.528 114.018C376.528 115.658 376.288 117.398 375.808 119.238C375.328 121.038 374.568 122.718 373.528 124.278C372.528 125.838 371.168 127.118 369.448 128.118C367.768 129.078 365.688 129.558 363.208 129.558ZM365.248 124.038C367.488 124.038 369.388 123.618 370.948 122.778C372.548 121.898 373.748 120.698 374.548 119.178C375.388 117.658 375.808 115.938 375.808 114.018C375.808 111.898 375.388 110.098 374.548 108.618C373.708 107.098 372.508 105.918 370.948 105.078C369.388 104.238 367.488 103.818 365.248 103.818C362.048 103.818 359.568 104.778 357.808 106.698C356.048 108.578 355.168 111.018 355.168 114.018C355.168 115.978 355.588 117.718 356.428 119.238C357.308 120.758 358.508 121.938 360.028 122.778C361.548 123.618 363.288 124.038 365.248 124.038ZM375.808 87.0184H382.528V128.898H376.288C376.208 127.978 376.108 126.838 375.988 125.478C375.868 124.118 375.808 122.898 375.808 121.818V87.0184ZM391.021 99.0184H397.681V128.898H391.021V99.0184ZM408.481 104.718C406.321 104.718 404.461 105.178 402.901 106.098C401.381 107.018 400.161 108.138 399.241 109.458C398.321 110.778 397.681 112.058 397.321 113.298L397.261 109.938C397.301 109.498 397.441 108.838 397.681 107.958C397.921 107.038 398.281 106.038 398.761 104.958C399.281 103.878 399.961 102.838 400.801 101.838C401.681 100.798 402.741 99.9584 403.981 99.3184C405.261 98.6784 406.761 98.3584 408.481 98.3584V104.718ZM421.321 86.3584V92.7784H413.341V86.3584H421.321ZM413.941 99.0184H420.661V128.898H413.941V99.0184ZM443.278 124.158H440.938L451.258 99.0184H458.518L445.318 128.898H438.958L425.938 99.0184H433.258L443.278 124.158ZM487.114 119.058H493.534C493.214 121.098 492.414 122.918 491.134 124.518C489.894 126.078 488.194 127.318 486.034 128.238C483.874 129.118 481.294 129.558 478.294 129.558C474.894 129.558 471.854 128.938 469.174 127.698C466.494 126.418 464.394 124.618 462.874 122.298C461.354 119.978 460.594 117.218 460.594 114.018C460.594 110.858 461.334 108.098 462.814 105.738C464.294 103.378 466.334 101.558 468.934 100.278C471.574 98.9984 474.614 98.3584 478.054 98.3584C481.614 98.3584 484.574 98.9984 486.934 100.278C489.334 101.518 491.114 103.398 492.274 105.918C493.434 108.398 493.914 111.538 493.714 115.338H467.374C467.574 117.018 468.114 118.538 468.994 119.898C469.914 121.218 471.154 122.258 472.714 123.018C474.274 123.738 476.094 124.098 478.174 124.098C480.494 124.098 482.434 123.638 483.994 122.718C485.594 121.798 486.634 120.578 487.114 119.058ZM477.874 103.758C475.154 103.758 472.914 104.438 471.154 105.798C469.394 107.118 468.254 108.818 467.734 110.898H486.994C486.834 108.658 485.934 106.918 484.294 105.678C482.654 104.398 480.514 103.758 477.874 103.758ZM526.802 124.278C524.002 124.278 521.462 123.778 519.182 122.778C516.942 121.778 515.162 120.318 513.842 118.398C512.562 116.478 511.922 114.178 511.922 111.498C511.922 108.818 512.542 106.498 513.782 104.538C515.062 102.578 516.822 101.058 519.062 99.9784C521.342 98.8984 523.922 98.3584 526.802 98.3584C527.642 98.3584 528.442 98.4184 529.202 98.5384C530.002 98.6584 530.762 98.8184 531.482 99.0184L545.462 99.0784V104.658C543.542 104.698 541.602 104.438 539.642 103.878C537.722 103.278 536.022 102.658 534.542 102.018L534.362 101.658C535.722 102.338 536.942 103.178 538.022 104.178C539.142 105.138 540.022 106.238 540.662 107.478C541.302 108.718 541.622 110.118 541.622 111.678C541.622 114.318 540.982 116.578 539.702 118.458C538.462 120.338 536.722 121.778 534.482 122.778C532.282 123.778 529.722 124.278 526.802 124.278ZM536.402 141.078V139.698C536.402 137.738 535.822 136.358 534.662 135.558C533.502 134.758 531.882 134.358 529.802 134.358H521.702C520.102 134.358 518.722 134.218 517.562 133.938C516.442 133.698 515.542 133.318 514.862 132.798C514.182 132.318 513.682 131.738 513.362 131.058C513.042 130.418 512.882 129.698 512.882 128.898C512.882 127.298 513.362 126.098 514.322 125.298C515.322 124.498 516.622 123.978 518.222 123.738C519.862 123.498 521.582 123.458 523.382 123.618L526.802 124.278C524.442 124.358 522.642 124.578 521.402 124.938C520.202 125.258 519.602 125.918 519.602 126.918C519.602 127.518 519.842 127.998 520.322 128.358C520.802 128.718 521.482 128.898 522.362 128.898H530.882C533.322 128.898 535.462 129.178 537.302 129.738C539.142 130.338 540.562 131.318 541.562 132.678C542.602 134.078 543.122 135.978 543.122 138.378V141.078H536.402ZM526.802 119.058C528.402 119.058 529.822 118.758 531.062 118.158C532.302 117.558 533.282 116.698 534.002 115.578C534.722 114.458 535.082 113.098 535.082 111.498C535.082 109.898 534.722 108.518 534.002 107.358C533.282 106.198 532.302 105.318 531.062 104.718C529.822 104.118 528.402 103.818 526.802 103.818C525.242 103.818 523.822 104.118 522.542 104.718C521.302 105.318 520.322 106.198 519.602 107.358C518.882 108.478 518.522 109.858 518.522 111.498C518.522 113.098 518.882 114.458 519.602 115.578C520.322 116.698 521.302 117.558 522.542 118.158C523.782 118.758 525.202 119.058 526.802 119.058ZM550.806 99.0184H557.466V128.898H550.806V99.0184ZM568.266 104.718C566.106 104.718 564.246 105.178 562.686 106.098C561.166 107.018 559.946 108.138 559.026 109.458C558.106 110.778 557.466 112.058 557.106 113.298L557.046 109.938C557.086 109.498 557.226 108.838 557.466 107.958C557.706 107.038 558.066 106.038 558.546 104.958C559.066 103.878 559.746 102.838 560.586 101.838C561.466 100.798 562.526 99.9584 563.766 99.3184C565.046 98.6784 566.546 98.3584 568.266 98.3584V104.718ZM589.206 129.558C585.886 129.558 582.906 128.958 580.266 127.758C577.626 126.558 575.546 124.798 574.026 122.478C572.506 120.158 571.746 117.338 571.746 114.018C571.746 110.738 572.506 107.938 574.026 105.618C575.546 103.258 577.626 101.458 580.266 100.218C582.906 98.9784 585.886 98.3584 589.206 98.3584C592.526 98.3584 595.486 98.9784 598.086 100.218C600.686 101.458 602.726 103.258 604.206 105.618C605.726 107.938 606.486 110.738 606.486 114.018C606.486 117.338 605.726 120.158 604.206 122.478C602.726 124.798 600.686 126.558 598.086 127.758C595.486 128.958 592.526 129.558 589.206 129.558ZM589.206 124.098C591.126 124.098 592.886 123.718 594.486 122.958C596.086 122.198 597.346 121.058 598.266 119.538C599.226 118.018 599.706 116.178 599.706 114.018C599.706 111.858 599.226 110.018 598.266 108.498C597.346 106.978 596.086 105.818 594.486 105.018C592.926 104.178 591.166 103.758 589.206 103.758C587.246 103.758 585.466 104.158 583.866 104.958C582.266 105.758 580.966 106.918 579.966 108.438C579.006 109.958 578.526 111.818 578.526 114.018C578.526 116.178 579.006 118.018 579.966 119.538C580.926 121.058 582.206 122.198 583.806 122.958C585.446 123.718 587.246 124.098 589.206 124.098ZM647.032 123.858L645.052 123.798L653.752 99.0184H661.072L649.432 128.898H643.132L633.832 103.998H635.932L626.392 128.898H620.092L608.692 99.0184H616.012L624.472 123.858H622.492L631.012 99.0184H638.812L647.032 123.858ZM663.784 99.0184H684.904V104.478H663.784V99.0184ZM670.984 90.9784H677.704V128.898H670.984V90.9784ZM715.222 128.898V111.618C715.222 110.018 714.942 108.698 714.382 107.658C713.862 106.578 713.042 105.758 711.922 105.198C710.802 104.638 709.322 104.358 707.482 104.358C705.642 104.358 703.962 104.758 702.442 105.558C700.922 106.318 699.682 107.338 698.722 108.618C697.762 109.898 697.202 111.318 697.042 112.878L696.982 109.518C697.182 108.078 697.622 106.698 698.302 105.378C698.982 104.018 699.882 102.818 701.002 101.778C702.122 100.738 703.442 99.9184 704.962 99.3184C706.482 98.6784 708.162 98.3584 710.002 98.3584C711.722 98.3584 713.302 98.5984 714.742 99.0784C716.222 99.5584 717.482 100.278 718.522 101.238C719.602 102.158 720.422 103.318 720.982 104.718C721.582 106.078 721.882 107.658 721.882 109.458V128.898H715.222ZM690.742 128.898V87.0184H697.402V128.898H690.742Z" fill="#FFBD00"/>
<path d="M417.182 70.5703H682" stroke="url(#paint0_linear_4130_41293)" stroke-width="1.5" stroke-linecap="round"/>
<path d="M352.934 147.598H617.752" stroke="url(#paint1_linear_4130_41293)" stroke-width="1.5" stroke-linecap="round"/>
</g>
<defs>
<linearGradient id="paint0_linear_4130_41293" x1="417.182" y1="78.279" x2="719.889" y2="71.3204" gradientUnits="userSpaceOnUse">
<stop stop-color="#23A323"/>
<stop offset="1" stop-color="#23A323" stop-opacity="0"/>
</linearGradient>
<linearGradient id="paint1_linear_4130_41293" x1="352.934" y1="155.306" x2="655.64" y2="148.348" gradientUnits="userSpaceOnUse">
<stop stop-color="#FFBD00"/>
<stop offset="1" stop-color="#FFBD00" stop-opacity="0"/>
</linearGradient>
<clipPath id="clip0_4130_41293">
<rect width="739.666" height="146.699" fill="white" transform="translate(0.992188 0.898438)"/>
</clipPath>
</defs>
</svg>
