<svg width="1438" height="994" viewBox="0 0 1438 994" fill="none" xmlns="http://www.w3.org/2000/svg">
<g clip-path="url(#clip0_4465_43702)">
<rect x="0.198242" y="0.0214844" width="1439.8" height="996.662" fill="white"/>
<ellipse cx="1130.69" cy="812.287" rx="614.28" ry="611.191" fill="#F3FCF3"/>
<ellipse cx="1173.11" cy="809.306" rx="540.53" ry="537.812" fill="#D6F5D6"/>
<path d="M624.251 459.383C623.766 458.918 623.751 458.148 624.216 457.664L631.793 449.771C632.258 449.286 633.028 449.271 633.512 449.736C633.996 450.201 634.012 450.97 633.547 451.455L626.812 458.471L633.828 465.206C634.312 465.671 634.328 466.441 633.863 466.925C633.398 467.409 632.628 467.425 632.144 466.96L624.251 459.383ZM868.234 712.978C868.181 712.192 868.123 711.4 868.061 710.6L870.485 710.411C870.548 711.219 870.606 712.019 870.66 712.813L868.234 712.978ZM867.635 705.719C867.483 704.136 867.314 702.53 867.129 700.901L869.545 700.626C869.732 702.269 869.902 703.889 870.056 705.486L867.635 705.719ZM866.53 696.006C866.324 694.431 866.103 692.837 865.867 691.226L868.272 690.873C868.511 692.497 868.733 694.103 868.941 695.691L866.53 696.006ZM865.114 686.361C864.858 684.786 864.588 683.196 864.303 681.591L866.697 681.166C866.984 682.782 867.256 684.384 867.514 685.971L865.114 686.361ZM863.406 676.756C863.103 675.185 862.786 673.601 862.455 672.006L864.835 671.512C865.169 673.118 865.488 674.713 865.794 676.295L863.406 676.756ZM861.419 667.197C861.071 665.633 860.709 664.06 860.334 662.477L862.699 661.916C863.078 663.509 863.442 665.094 863.793 666.669L861.419 667.197ZM859.166 657.705C858.773 656.147 858.367 654.582 857.947 653.01L860.296 652.383C860.719 653.966 861.128 655.542 861.523 657.11L859.166 657.705ZM856.651 648.285C856.213 646.733 855.762 645.174 855.298 643.611L857.629 642.919C858.097 644.493 858.55 646.062 858.991 647.626L856.651 648.285ZM853.875 638.937C853.393 637.391 852.897 635.841 852.388 634.287L854.699 633.53C855.212 635.095 855.711 636.656 856.196 638.212L853.875 638.937ZM850.839 629.666C850.312 628.129 849.771 626.589 849.217 625.047L851.506 624.225C852.063 625.778 852.608 627.329 853.139 628.877L850.839 629.666ZM847.541 620.482C846.969 618.959 846.385 617.434 845.787 615.909L848.05 615.021C848.653 616.558 849.242 618.093 849.817 619.627L847.541 620.482ZM843.978 611.394C843.364 609.891 842.736 608.389 842.096 606.887L844.332 605.933C844.978 607.446 845.61 608.96 846.229 610.473L843.978 611.394ZM840.148 602.413C839.49 600.933 838.819 599.453 838.135 597.975L840.341 596.954C841.03 598.443 841.706 599.934 842.369 601.426L840.148 602.413ZM836.045 593.552C835.343 592.095 834.628 590.639 833.899 589.187L836.072 588.097C836.807 589.561 837.528 591.028 838.236 592.497L836.045 593.552ZM831.674 584.838C830.924 583.4 830.161 581.966 829.385 580.536L831.522 579.376C832.304 580.818 833.074 582.264 833.83 583.713L831.674 584.838ZM827.023 576.271C826.224 574.856 825.412 573.445 824.587 572.039L826.683 570.808C827.516 572.226 828.335 573.648 829.141 575.075L827.023 576.271ZM822.086 567.862C821.239 566.475 820.379 565.094 819.505 563.718L821.557 562.414C822.439 563.802 823.307 565.196 824.161 566.595L822.086 567.862ZM816.858 559.63C815.963 558.276 815.056 556.928 814.134 555.587L816.138 554.21C817.068 555.564 817.984 556.924 818.887 558.29L816.858 559.63ZM811.334 551.592C810.392 550.274 809.436 548.963 808.466 547.659L810.417 546.208C811.396 547.524 812.361 548.847 813.312 550.178L811.334 551.592ZM805.516 543.773C804.524 542.491 803.518 541.218 802.498 539.954L804.391 538.427C805.421 539.704 806.437 540.99 807.439 542.284L805.516 543.773ZM799.402 536.192C798.357 534.949 797.299 533.715 796.227 532.49L798.056 530.888C799.14 532.126 800.209 533.372 801.263 534.628L799.402 536.192ZM792.985 528.864C791.89 527.665 790.782 526.476 789.659 525.297L791.419 523.62C792.554 524.811 793.674 526.013 794.781 527.225L792.985 528.864ZM786.265 521.81C785.123 520.661 783.966 519.522 782.795 518.395L784.482 516.644C785.665 517.783 786.835 518.934 787.99 520.096L786.265 521.81ZM779.244 515.051C778.055 513.956 776.851 512.872 775.634 511.8L777.24 509.975C778.472 511.059 779.689 512.155 780.891 513.262L779.244 515.051ZM771.938 508.621C770.699 507.579 769.446 506.549 768.178 505.532L769.7 503.636C770.982 504.665 772.25 505.706 773.503 506.76L771.938 508.621ZM764.35 502.534C763.06 501.547 761.755 500.573 760.436 499.613L761.867 497.647C763.202 498.619 764.522 499.604 765.827 500.602L764.35 502.534ZM756.482 496.805C755.15 495.882 753.805 494.974 752.445 494.079L753.781 492.048C755.157 492.953 756.519 493.873 757.866 494.806L756.482 496.805ZM748.341 491.45C746.973 490.596 745.591 489.756 744.194 488.931L745.432 486.838C746.845 487.673 748.244 488.523 749.628 489.387L748.341 491.45ZM739.963 486.498C738.554 485.711 737.131 484.938 735.694 484.18L736.828 482.029C738.283 482.797 739.723 483.579 741.149 484.376L739.963 486.498ZM731.369 481.965C729.914 481.241 728.444 480.533 726.96 479.84L727.99 477.637C729.491 478.338 730.978 479.055 732.451 479.788L731.369 481.965ZM722.552 477.845C721.072 477.196 719.578 476.562 718.071 475.944L718.993 473.695C720.519 474.32 722.03 474.961 723.528 475.618L722.552 477.845ZM713.52 474.142C712.022 473.57 710.511 473.012 708.987 472.47L709.801 470.179C711.343 470.728 712.872 471.292 714.388 471.871L713.52 474.142ZM704.373 470.891C702.833 470.384 701.28 469.893 699.714 469.417L700.42 467.091C702.005 467.572 703.576 468.069 705.134 468.582L704.373 470.891ZM695.072 468.066C693.513 467.631 691.94 467.211 690.354 466.808L690.954 464.452C692.557 464.86 694.148 465.284 695.726 465.724L695.072 468.066ZM685.607 465.657C684.046 465.296 682.472 464.951 680.886 464.622L681.381 462.241C682.984 462.574 684.575 462.923 686.154 463.287L685.607 465.657ZM676.091 463.68C674.497 463.385 672.89 463.105 671.272 462.841L671.663 460.441C673.299 460.708 674.923 460.991 676.534 461.289L676.091 463.68ZM666.5 462.113C664.897 461.886 663.283 461.673 661.657 461.477L661.949 459.063C663.592 459.262 665.222 459.476 666.841 459.706L666.5 462.113ZM656.773 460.936C655.186 460.777 653.587 460.632 651.978 460.502L652.174 458.078C653.799 458.209 655.413 458.356 657.016 458.517L656.773 460.936ZM647.116 460.156C645.484 460.056 643.841 459.97 642.187 459.9L642.289 457.471C643.959 457.542 645.618 457.628 647.265 457.729L647.116 460.156ZM637.374 459.741C635.766 459.702 634.147 459.678 632.518 459.668L632.533 457.236C634.176 457.246 635.809 457.271 637.432 457.31L637.374 459.741ZM627.6 459.681C626.775 459.691 625.948 459.704 625.117 459.721L625.068 457.29C625.905 457.273 626.74 457.26 627.572 457.25L627.6 459.681Z" fill="url(#paint0_linear_4465_43702)"/>
<path d="M391.454 724.896C390.836 724.749 390.216 725.131 390.069 725.749L387.675 735.818C387.528 736.436 387.91 737.056 388.527 737.203C389.145 737.35 389.765 736.968 389.912 736.35L392.041 727.399L400.991 729.528C401.609 729.675 402.229 729.293 402.376 728.675C402.523 728.057 402.141 727.437 401.523 727.29L391.454 724.896ZM718.109 788.992C717.456 789.352 716.796 789.712 716.129 790.073L717.221 792.097C717.895 791.733 718.561 791.369 719.22 791.006L718.109 788.992ZM712.029 792.235C710.693 792.924 709.329 793.613 707.938 794.301L708.957 796.362C710.36 795.669 711.735 794.975 713.084 794.279L712.029 792.235ZM703.739 796.332C702.382 796.975 701.001 797.616 699.598 798.254L700.55 800.347C701.964 799.705 703.355 799.059 704.724 798.411L703.739 796.332ZM695.345 800.147C693.961 800.751 692.558 801.35 691.136 801.946L692.024 804.067C693.456 803.468 694.87 802.864 696.264 802.256L695.345 800.147ZM686.831 803.71C685.426 804.274 684.005 804.833 682.567 805.386L683.393 807.533C684.841 806.975 686.273 806.412 687.688 805.844L686.831 803.71ZM678.213 807.027C676.79 807.551 675.354 808.07 673.903 808.582L674.668 810.751C676.129 810.235 677.576 809.713 679.008 809.185L678.213 807.027ZM669.509 810.098C668.069 810.584 666.617 811.063 665.152 811.534L665.857 813.723C667.332 813.249 668.794 812.766 670.244 812.277L669.509 810.098ZM660.731 812.924C659.272 813.371 657.802 813.811 656.32 814.243L656.964 816.451C658.456 816.016 659.936 815.573 661.405 815.123L660.731 812.924ZM651.875 815.506C650.398 815.915 648.912 816.315 647.415 816.706L647.997 818.931C649.504 818.537 651.001 818.134 652.488 817.723L651.875 815.506ZM642.947 817.841C641.455 818.209 639.953 818.568 638.443 818.918L638.962 821.159C640.483 820.807 641.995 820.445 643.498 820.074L642.947 817.841ZM633.954 819.924C632.45 820.249 630.938 820.565 629.419 820.871L629.873 823.126C631.403 822.818 632.926 822.5 634.441 822.172L633.954 819.924ZM624.902 821.746C623.393 822.027 621.876 822.298 620.354 822.558L620.741 824.826C622.275 824.563 623.803 824.291 625.323 824.008L624.902 821.746ZM615.798 823.301C614.284 823.537 612.764 823.761 611.238 823.974L611.556 826.252C613.094 826.037 614.625 825.811 616.151 825.574L615.798 823.301ZM606.65 824.579C605.132 824.767 603.608 824.943 602.08 825.108L602.326 827.395C603.867 827.229 605.402 827.051 606.933 826.861L606.65 824.579ZM597.481 825.567C595.954 825.707 594.423 825.835 592.888 825.95L593.06 828.244C594.608 828.127 596.152 827.999 597.691 827.858L597.481 825.567ZM588.286 826.258C586.751 826.347 585.213 826.424 583.672 826.488L583.768 828.786C585.322 828.722 586.873 828.644 588.42 828.554L588.286 826.258ZM579.07 826.639C577.533 826.676 575.994 826.7 574.452 826.71L574.467 829.01C576.023 829 577.576 828.976 579.126 828.939L579.07 826.639ZM569.846 826.699C568.311 826.682 566.774 826.65 565.236 826.605L565.167 828.904C566.72 828.95 568.271 828.981 569.819 828.999L569.846 826.699ZM560.624 826.425C559.093 826.351 557.561 826.262 556.027 826.159L555.873 828.454C557.421 828.558 558.967 828.648 560.513 828.722L560.624 826.425ZM551.425 825.804C549.898 825.672 548.37 825.524 546.842 825.361L546.598 827.648C548.141 827.813 549.684 827.962 551.226 828.096L551.425 825.804ZM542.265 824.826C540.741 824.632 539.218 824.423 537.694 824.198L537.358 826.473C538.897 826.701 540.436 826.912 541.975 827.108L542.265 824.826ZM533.15 823.478C531.636 823.221 530.122 822.949 528.61 822.66L528.178 824.919C529.707 825.211 531.236 825.486 532.766 825.745L533.15 823.478ZM524.098 821.748C522.599 821.428 521.101 821.091 519.605 820.738L519.076 822.976C520.589 823.334 522.103 823.674 523.618 823.997L524.098 821.748ZM515.126 819.627C513.646 819.243 512.168 818.841 510.692 818.422L510.064 820.634C511.556 821.058 513.051 821.464 514.548 821.853L515.126 819.627ZM506.27 817.112C504.807 816.66 503.346 816.191 501.888 815.704L501.159 817.886C502.634 818.378 504.112 818.853 505.592 819.31L506.27 817.112ZM497.542 814.196C496.096 813.676 494.654 813.137 493.214 812.58L492.384 814.725C493.841 815.289 495.3 815.834 496.763 816.36L497.542 814.196ZM488.955 810.875C487.54 810.288 486.128 809.684 484.72 809.061L483.79 811.164C485.214 811.794 486.643 812.406 488.075 812.999L488.955 810.875ZM480.527 807.144C479.147 806.494 477.771 805.825 476.399 805.137L475.369 807.193C476.757 807.889 478.149 808.566 479.546 809.225L480.527 807.144ZM472.297 803.018C470.949 802.301 469.605 801.566 468.266 800.811L467.137 802.815C468.493 803.579 469.853 804.323 471.217 805.049L472.297 803.018ZM464.289 798.507C462.968 797.721 461.652 796.915 460.341 796.09L459.116 798.037C460.443 798.872 461.775 799.687 463.112 800.484L464.289 798.507ZM456.496 793.607C455.222 792.762 453.953 791.899 452.689 791.017L451.373 792.903C452.651 793.796 453.936 794.669 455.225 795.524L456.496 793.607ZM448.924 788.321C447.702 787.424 446.484 786.507 445.272 785.573L443.868 787.394C445.094 788.34 446.326 789.267 447.563 790.175L448.924 788.321ZM441.653 782.713C440.461 781.748 439.275 780.765 438.094 779.763L436.606 781.517C437.8 782.53 439 783.525 440.206 784.501L441.653 782.713ZM434.642 776.765C433.496 775.747 432.357 774.711 431.224 773.657L429.657 775.341C430.803 776.407 431.956 777.455 433.114 778.484L434.642 776.765ZM427.876 770.472C426.79 769.415 425.709 768.34 424.635 767.248L422.995 768.861C424.082 769.965 425.174 771.052 426.272 772.12L427.876 770.472ZM421.429 763.918C420.378 762.801 419.332 761.667 418.293 760.515L416.585 762.056C417.636 763.22 418.692 764.366 419.755 765.495L421.429 763.918ZM415.27 757.093C414.268 755.936 413.272 754.761 412.283 753.568L410.513 755.037C411.512 756.242 412.518 757.429 413.53 758.598L415.27 757.093ZM409.351 749.962C408.411 748.781 407.477 747.584 406.548 746.371L404.722 747.768C405.659 748.993 406.602 750.202 407.551 751.394L409.351 749.962ZM403.783 742.682C402.867 741.435 401.957 740.172 401.054 738.893L399.175 740.219C400.087 741.511 401.005 742.785 401.929 744.044L403.783 742.682ZM398.462 735.147C397.607 733.888 396.758 732.614 395.916 731.324L393.99 732.581C394.84 733.883 395.696 735.169 396.559 736.439L398.462 735.147ZM393.407 727.406C392.992 726.745 392.579 726.08 392.167 725.412L390.209 726.618C390.624 727.292 391.041 727.962 391.46 728.629L393.407 727.406Z" fill="url(#paint1_linear_4465_43702)"/>
</g>
<defs>
<linearGradient id="paint0_linear_4465_43702" x1="624.914" y1="440.364" x2="869.378" y2="658.847" gradientUnits="userSpaceOnUse">
<stop stop-color="#228B22"/>
<stop offset="1" stop-color="white" stop-opacity="0"/>
</linearGradient>
<linearGradient id="paint1_linear_4465_43702" x1="376.671" y1="735.166" x2="675.649" y2="817.634" gradientUnits="userSpaceOnUse">
<stop stop-color="#228B22"/>
<stop offset="1" stop-color="white" stop-opacity="0"/>
</linearGradient>
<clipPath id="clip0_4465_43702">
<rect width="1438" height="994" fill="white"/>
</clipPath>
</defs>
</svg>
