<svg width="35" height="33" viewBox="0 0 35 33" fill="none" xmlns="http://www.w3.org/2000/svg">
<path d="M17.5013 13.1255C15.7987 13.1255 14.4254 14.5032 14.4254 16.2113C14.4254 17.9194 15.7987 19.2971 17.5013 19.2971C19.204 19.2971 20.5773 17.9194 20.5773 16.2113C20.5773 14.5032 19.204 13.1255 17.5013 13.1255ZM17.5013 18.2175C16.4011 18.2175 15.5016 17.3178 15.5016 16.2113C15.5016 15.1048 16.3984 14.2051 17.5013 14.2051C18.6043 14.2051 19.5011 15.1048 19.5011 16.2113C19.5011 17.3178 18.6016 18.2175 17.5013 18.2175ZM21.4206 12.9992C21.4206 13.3994 21.0993 13.719 20.7031 13.719C20.3042 13.719 19.9857 13.3967 19.9857 12.9992C19.9857 12.6017 20.3069 12.2795 20.7031 12.2795C21.0993 12.2795 21.4206 12.6017 21.4206 12.9992ZM23.4578 13.7297C23.4123 12.7656 23.1928 11.9115 22.4887 11.2079C21.7873 10.5042 20.936 10.284 19.975 10.2357C18.9844 10.1793 16.0156 10.1793 15.025 10.2357C14.0666 10.2813 13.2153 10.5015 12.5113 11.2052C11.8072 11.9088 11.5904 12.7629 11.5422 13.727C11.4859 14.7207 11.4859 17.6992 11.5422 18.6929C11.5877 19.657 11.8072 20.5111 12.5113 21.2147C13.2153 21.9184 14.064 22.1386 15.025 22.1869C16.0156 22.2433 18.9844 22.2433 19.975 22.1869C20.936 22.1413 21.7873 21.9211 22.4887 21.2147C23.1901 20.5111 23.4096 19.657 23.4578 18.6929C23.5141 17.6992 23.5141 14.7234 23.4578 13.7297ZM22.1782 19.7591C21.9694 20.2855 21.5651 20.691 21.0378 20.9032C20.248 21.2174 18.3741 21.1449 17.5013 21.1449C16.6286 21.1449 14.752 21.2147 13.9649 20.9032C13.4402 20.6937 13.036 20.2882 12.8245 19.7591C12.5113 18.9668 12.5835 17.0868 12.5835 16.2113C12.5835 15.3358 12.5139 13.4531 12.8245 12.6635C13.0333 12.1371 13.4375 11.7316 13.9649 11.5194C14.7547 11.2052 16.6286 11.2777 17.5013 11.2777C18.3741 11.2777 20.2507 11.2079 21.0378 11.5194C21.5625 11.7289 21.9667 12.1344 22.1782 12.6635C22.4914 13.4558 22.4191 15.3358 22.4191 16.2113C22.4191 17.0868 22.4914 18.9695 22.1782 19.7591Z" fill="white"/>
</svg>
