<svg width="43" height="43" viewBox="0 0 43 43" fill="none" xmlns="http://www.w3.org/2000/svg">
<rect x="0.841797" y="0.759277" width="41.5714" height="41.5714" rx="5.83459" fill="#FFFBF0" stroke="#FFBD00" stroke-width="1.09398"/>
<path d="M28.6478 11.5171C28.3818 11.5171 28.1267 11.6227 27.9387 11.8108C27.7506 11.9989 27.6449 12.2539 27.6449 12.5199V13.5227H22.6308C22.3649 13.5227 22.1098 13.6284 21.9217 13.8164C21.7337 14.0045 21.628 14.2596 21.628 14.5255V28.565C21.628 28.831 21.7337 29.0861 21.9217 29.2741C22.1098 29.4622 22.3649 29.5678 22.6308 29.5678H27.6449V30.5707C27.6449 30.8366 27.7506 31.0917 27.9387 31.2798C28.1267 31.4678 28.3818 31.5735 28.6478 31.5735C28.9137 31.5735 29.1688 31.4678 29.3569 31.2798C29.5449 31.0917 29.6506 30.8366 29.6506 30.5707V12.5199C29.6506 12.2539 29.5449 11.9989 29.3569 11.8108C29.1688 11.6227 28.9137 11.5171 28.6478 11.5171ZM27.6449 27.5622H23.6337V15.5284H27.6449V27.5622ZM18.6196 11.5171C18.3536 11.5171 18.0985 11.6227 17.9105 11.8108C17.7224 11.9989 17.6167 12.2539 17.6167 12.5199V14.5255H14.6083C14.3423 14.5255 14.0873 14.6312 13.8992 14.8193C13.7111 15.0073 13.6055 15.2624 13.6055 15.5284V27.5622C13.6055 27.8282 13.7111 28.0832 13.8992 28.2713C14.0873 28.4594 14.3423 28.565 14.6083 28.565H17.6167V30.5707C17.6167 30.8366 17.7224 31.0917 17.9105 31.2798C18.0985 31.4678 18.3536 31.5735 18.6196 31.5735C18.8855 31.5735 19.1406 31.4678 19.3287 31.2798C19.5167 31.0917 19.6224 30.8366 19.6224 30.5707V12.5199C19.6224 12.2539 19.5167 11.9989 19.3287 11.8108C19.1406 11.6227 18.8855 11.5171 18.6196 11.5171ZM17.6167 26.5594H15.6111V16.5312H17.6167V26.5594Z" fill="#FFC727"/>
</svg>
