<svg width="40" height="40" viewBox="0 0 40 40" fill="none" xmlns="http://www.w3.org/2000/svg">
<circle cx="19.8723" cy="20.0003" r="19.8723" fill="#FFFBF0"/>
<path d="M26.8276 9.62256C26.5641 9.62256 26.3113 9.72724 26.125 9.91358C25.9386 10.0999 25.834 10.3527 25.834 10.6162V11.6098H20.8659C20.6024 11.6098 20.3496 11.7145 20.1633 11.9008C19.977 12.0872 19.8723 12.3399 19.8723 12.6034V26.514C19.8723 26.7776 19.977 27.0303 20.1633 27.2166C20.3496 27.403 20.6024 27.5077 20.8659 27.5077H25.834V28.5013C25.834 28.7648 25.9386 29.0175 26.125 29.2039C26.3113 29.3902 26.5641 29.4949 26.8276 29.4949C27.0911 29.4949 27.3438 29.3902 27.5302 29.2039C27.7165 29.0175 27.8212 28.7648 27.8212 28.5013V10.6162C27.8212 10.3527 27.7165 10.0999 27.5302 9.91358C27.3438 9.72724 27.0911 9.62256 26.8276 9.62256ZM25.834 25.5204H21.8595V13.597H25.834V25.5204ZM16.8914 9.62256C16.6279 9.62256 16.3752 9.72724 16.1888 9.91358C16.0025 10.0999 15.8978 10.3527 15.8978 10.6162V12.6034H12.917C12.6534 12.6034 12.4007 12.7081 12.2144 12.8944C12.028 13.0808 11.9233 13.3335 11.9233 13.597V25.5204C11.9233 25.7839 12.028 26.0367 12.2144 26.223C12.4007 26.4094 12.6534 26.514 12.917 26.514H15.8978V28.5013C15.8978 28.7648 16.0025 29.0175 16.1888 29.2039C16.3752 29.3902 16.6279 29.4949 16.8914 29.4949C17.1549 29.4949 17.4077 29.3902 17.594 29.2039C17.7804 29.0175 17.885 28.7648 17.885 28.5013V10.6162C17.885 10.3527 17.7804 10.0999 17.594 9.91358C17.4077 9.72724 17.1549 9.62256 16.8914 9.62256ZM15.8978 24.5268H13.9106V14.5906H15.8978V24.5268Z" fill="#FFC727"/>
</svg>
