<svg width="187" height="39" viewBox="0 0 187 39" fill="none" xmlns="http://www.w3.org/2000/svg">
<rect width="187" height="39" rx="19.5" fill="#FFA65B"/>
<path d="M36.884 20.812V19.804H39.68C40.144 19.804 40.516 19.664 40.796 19.384C41.084 19.104 41.228 18.736 41.228 18.28C41.228 17.808 41.084 17.436 40.796 17.164C40.516 16.892 40.144 16.756 39.68 16.756H37.076V23.5H35.924V15.712H39.632C40.016 15.712 40.372 15.768 40.7 15.88C41.036 15.984 41.328 16.144 41.576 16.36C41.832 16.576 42.028 16.844 42.164 17.164C42.308 17.484 42.38 17.856 42.38 18.28C42.38 18.696 42.308 19.064 42.164 19.384C42.028 19.704 41.832 19.972 41.576 20.188C41.328 20.396 41.036 20.552 40.7 20.656C40.372 20.76 40.016 20.812 39.632 20.812H36.884ZM46.483 21.568V20.536H50.659V21.568H46.483ZM44.791 23.5L47.971 15.712H49.195L52.399 23.5H51.151L48.367 16.468H48.799L46.027 23.5H44.791ZM61.6577 15.712L58.6937 20.896V23.5H57.5417V20.896L54.5777 15.712H55.8977L58.4177 20.26H57.8657L60.3377 15.712H61.6577ZM68.5186 15.712C69.3266 15.712 70.0026 15.816 70.5466 16.024C71.0986 16.224 71.5386 16.504 71.8666 16.864C72.2026 17.224 72.4426 17.636 72.5866 18.1C72.7306 18.564 72.8026 19.056 72.8026 19.576C72.8026 20.088 72.7226 20.58 72.5626 21.052C72.4106 21.524 72.1626 21.944 71.8186 22.312C71.4826 22.68 71.0426 22.972 70.4986 23.188C69.9546 23.396 69.2946 23.5 68.5186 23.5H65.3986V15.712H68.5186ZM66.5506 22.456H68.5066C69.1226 22.456 69.6306 22.376 70.0306 22.216C70.4306 22.048 70.7466 21.828 70.9786 21.556C71.2186 21.276 71.3866 20.964 71.4826 20.62C71.5866 20.276 71.6386 19.928 71.6386 19.576C71.6386 19.216 71.5866 18.868 71.4826 18.532C71.3866 18.196 71.2186 17.896 70.9786 17.632C70.7466 17.36 70.4306 17.148 70.0306 16.996C69.6306 16.836 69.1226 16.756 68.5066 16.756H66.5506V22.456ZM77.5742 21.568V20.536H81.7502V21.568H77.5742ZM75.8822 23.5L79.0622 15.712H80.2862L83.4902 23.5H82.2422L79.4582 16.468H79.8902L77.1182 23.5H75.8822ZM92.749 15.712L89.785 20.896V23.5H88.633V20.896L85.669 15.712H86.989L89.509 20.26H88.957L91.429 15.712H92.749ZM102.799 15.712V22.468H107.383V23.5H101.647V15.712H102.799ZM114.909 23.632C114.101 23.632 113.381 23.468 112.749 23.14C112.125 22.812 111.633 22.348 111.273 21.748C110.921 21.148 110.745 20.436 110.745 19.612C110.745 18.78 110.921 18.064 111.273 17.464C111.633 16.864 112.125 16.4 112.749 16.072C113.381 15.744 114.101 15.58 114.909 15.58C115.725 15.58 116.445 15.744 117.069 16.072C117.693 16.4 118.185 16.864 118.545 17.464C118.905 18.064 119.085 18.78 119.085 19.612C119.085 20.436 118.905 21.148 118.545 21.748C118.185 22.348 117.693 22.812 117.069 23.14C116.445 23.468 115.725 23.632 114.909 23.632ZM114.909 22.588C115.485 22.588 115.997 22.476 116.445 22.252C116.893 22.028 117.249 21.696 117.513 21.256C117.777 20.816 117.909 20.268 117.909 19.612C117.909 18.956 117.777 18.408 117.513 17.968C117.249 17.528 116.893 17.196 116.445 16.972C115.997 16.74 115.485 16.624 114.909 16.624C114.349 16.624 113.841 16.74 113.385 16.972C112.929 17.196 112.569 17.528 112.305 17.968C112.041 18.408 111.909 18.956 111.909 19.612C111.909 20.268 112.041 20.816 112.305 21.256C112.569 21.696 112.929 22.028 113.385 22.252C113.841 22.476 114.349 22.588 114.909 22.588ZM123.854 21.568V20.536H128.03V21.568H123.854ZM122.162 23.5L125.342 15.712H126.566L129.77 23.5H128.522L125.738 16.468H126.17L123.398 23.5H122.162ZM140.052 22.228L139.716 22.348V15.712H140.88V23.5H139.716L134.28 17.008L134.616 16.888V23.5H133.464V15.712H134.616L140.052 22.228ZM144.773 20.944H145.877C145.901 21.256 146.005 21.54 146.189 21.796C146.381 22.044 146.637 22.24 146.957 22.384C147.285 22.528 147.665 22.6 148.097 22.6C148.473 22.6 148.785 22.548 149.033 22.444C149.281 22.34 149.465 22.2 149.585 22.024C149.713 21.84 149.777 21.624 149.777 21.376C149.777 21.128 149.709 20.932 149.573 20.788C149.437 20.636 149.233 20.512 148.961 20.416C148.689 20.312 148.353 20.212 147.953 20.116C147.601 20.028 147.253 19.924 146.909 19.804C146.573 19.676 146.261 19.52 145.973 19.336C145.693 19.152 145.465 18.932 145.289 18.676C145.121 18.412 145.037 18.096 145.037 17.728C145.037 17.336 145.145 16.98 145.361 16.66C145.577 16.332 145.893 16.072 146.309 15.88C146.733 15.68 147.245 15.58 147.845 15.58C148.773 15.58 149.473 15.812 149.945 16.276C150.425 16.74 150.657 17.36 150.641 18.136H149.561C149.537 17.592 149.365 17.204 149.045 16.972C148.725 16.732 148.309 16.612 147.797 16.612C147.357 16.612 146.981 16.704 146.669 16.888C146.357 17.064 146.201 17.344 146.201 17.728C146.201 17.896 146.237 18.044 146.309 18.172C146.381 18.292 146.501 18.404 146.669 18.508C146.837 18.612 147.061 18.712 147.341 18.808C147.629 18.904 147.985 19.008 148.409 19.12C148.729 19.192 149.037 19.284 149.333 19.396C149.637 19.508 149.909 19.648 150.149 19.816C150.389 19.984 150.577 20.2 150.713 20.464C150.857 20.728 150.929 21.052 150.929 21.436C150.929 21.844 150.829 22.216 150.629 22.552C150.429 22.88 150.117 23.144 149.693 23.344C149.277 23.536 148.737 23.632 148.073 23.632C147.545 23.632 147.085 23.564 146.693 23.428C146.309 23.292 145.985 23.116 145.721 22.9C145.465 22.684 145.261 22.452 145.109 22.204C144.965 21.956 144.865 21.72 144.809 21.496C144.761 21.272 144.749 21.088 144.773 20.944Z" fill="black"/>
</svg>
