<svg width="913" height="255" viewBox="0 0 913 255" fill="none" xmlns="http://www.w3.org/2000/svg">
<rect y="0.5" width="913" height="254" rx="10" fill="#F2FCF2"/>
<path d="M80 43.5C84.95 43.5 89 47.55 89 52.5C89 57.45 84.95 61.5 80 61.5C75.05 61.5 71 57.45 71 52.5C71 47.55 75.05 43.5 80 43.5ZM80 45.3C78.29 45.3 76.76 45.84 75.59 46.83L85.67 56.91C86.57 55.65 87.2 54.12 87.2 52.5C87.2 48.54 83.96 45.3 80 45.3ZM84.41 58.17L74.33 48.09C73.34 49.26 72.8 50.79 72.8 52.5C72.8 56.46 76.04 59.7 80 59.7C81.71 59.7 83.24 59.16 84.41 58.17Z" fill="#EF4444"/>
</svg>
