<svg width="89" height="27" viewBox="0 0 89 27" fill="none" xmlns="http://www.w3.org/2000/svg">
<g clip-path="url(#clip0_5561_57007)">
<path d="M12.0715 23.7244C11.5553 24.6592 10.2502 24.6592 9.73404 23.7244L2.61229 10.8295C2.10075 9.90334 2.74846 8.75195 3.781 8.75195H18.0245C19.0571 8.75195 19.7048 9.90334 19.1932 10.8295L12.0715 23.7244Z" fill="#228B22"/>
<g filter="url(#filter0_f_5561_57007)">
<path d="M12.1107 9.73572H3.5V11.4029H12.1107V9.73572Z" fill="#23A323"/>
</g>
<path d="M6.7382 1.67085C7.15249 0.929871 8.18819 0.929868 8.60248 1.67084L12.9136 9.38155C13.3279 10.1226 12.8101 11.0487 11.9815 11.0487H3.35919C2.53063 11.0487 2.01277 10.1226 2.42706 9.38155L6.7382 1.67085Z" fill="#228B22"/>
<path d="M33.6003 19.598V13.9804C33.6003 13.4828 33.5215 13.0722 33.3642 12.7487C33.2068 12.4251 32.9707 12.1825 32.6558 12.0208C32.3409 11.8466 31.9413 11.7595 31.457 11.7595C30.9242 11.7595 30.4338 11.8902 29.9858 12.1514C29.5499 12.4003 29.1927 12.7424 28.9142 13.1779C28.6356 13.6009 28.4662 14.08 28.4056 14.615L28.3874 13.5512C28.448 13.0659 28.5751 12.6118 28.7689 12.1888C28.9747 11.7658 29.229 11.3987 29.5317 11.0876C29.8466 10.7766 30.2098 10.534 30.6215 10.3598C31.0332 10.1856 31.4813 10.0985 31.9656 10.0985C32.4742 10.0985 32.9343 10.1731 33.346 10.3225C33.7577 10.4593 34.1089 10.6771 34.3995 10.9757C34.7022 11.2619 34.9323 11.6165 35.0897 12.0395C35.2471 12.4501 35.3258 12.9229 35.3258 13.4579V19.598H33.6003ZM26.7891 19.598V6.55249H28.5146V19.598H26.7891ZM41.3633 19.7847C40.5882 19.7847 39.8799 19.5794 39.2382 19.1688C38.5964 18.7582 38.0878 18.1921 37.7124 17.4704C37.337 16.7363 37.1494 15.8965 37.1494 14.9509C37.1494 14.0053 37.337 13.1717 37.7124 12.4501C38.0999 11.7159 38.6266 11.1436 39.2927 10.733C39.9586 10.31 40.7033 10.0985 41.5267 10.0985C42.4349 10.0985 43.1372 10.3162 43.6337 10.7517C44.1422 11.1872 44.4933 11.7719 44.6871 12.506C44.8929 13.2402 44.9959 14.0551 44.9959 14.9509C44.9959 15.4486 44.9353 15.9774 44.8143 16.5373C44.6931 17.0972 44.4994 17.626 44.2331 18.1237C43.9666 18.6213 43.5973 19.0257 43.1251 19.3368C42.6529 19.6354 42.0655 19.7847 41.3633 19.7847ZM41.8537 18.2356C42.4954 18.2356 43.0343 18.0926 43.4702 17.8064C43.9182 17.5078 44.2512 17.1096 44.4692 16.6119C44.6871 16.1143 44.7961 15.5605 44.7961 14.9509C44.7961 14.2915 44.6811 13.7129 44.451 13.2152C44.2331 12.7176 43.9 12.3318 43.452 12.0581C43.0161 11.7844 42.4833 11.6475 41.8537 11.6475C40.9092 11.6475 40.1766 11.9586 39.6559 12.5807C39.1473 13.2028 38.8931 13.9928 38.8931 14.9509C38.8931 15.5979 39.0202 16.1703 39.2745 16.6679C39.5288 17.1532 39.8739 17.5388 40.3098 17.825C40.7578 18.0987 41.2724 18.2356 41.8537 18.2356ZM44.7961 10.2851H46.5398V19.598H44.9414C44.9414 19.598 44.9293 19.4861 44.9051 19.2621C44.8809 19.0257 44.8566 18.7458 44.8324 18.4223C44.8082 18.0987 44.7961 17.8126 44.7961 17.5638V10.2851ZM48.814 10.2851H50.5577V19.598H48.814V10.2851ZM53.6273 11.8715C52.9976 11.8715 52.4587 12.0208 52.0107 12.3194C51.5748 12.618 51.2236 12.985 50.9573 13.4205C50.703 13.856 50.5334 14.2728 50.4487 14.671L50.4305 13.6072C50.4426 13.4828 50.473 13.2899 50.5214 13.0286C50.5819 12.7549 50.6848 12.4501 50.8301 12.1141C50.9754 11.7782 51.1692 11.4609 51.4114 11.1623C51.6536 10.8513 51.9563 10.5961 52.3195 10.3971C52.6828 10.1981 53.1187 10.0985 53.6273 10.0985V11.8715ZM58.8503 18.1423C58.0996 18.1423 57.4094 17.9868 56.7797 17.6757C56.1501 17.3647 55.6476 16.9105 55.2721 16.3133C54.9089 15.7161 54.7272 14.9945 54.7272 14.1484C54.7272 13.3148 54.9089 12.5994 55.2721 12.0021C55.6354 11.3925 56.1258 10.9259 56.7434 10.6024C57.3731 10.2665 58.0754 10.0985 58.8503 10.0985C59.0804 10.0985 59.2984 10.1172 59.5042 10.1545C59.7101 10.1794 59.9099 10.2229 60.1036 10.2851H64.0632V11.9648C63.5183 11.9648 62.9674 11.8715 62.4103 11.6849C61.8654 11.4982 61.3872 11.2992 60.9754 11.0876L60.9209 10.9943C61.3327 11.2183 61.6899 11.492 61.9925 11.8155C62.2953 12.1265 62.5254 12.4811 62.6828 12.8793C62.8523 13.265 62.937 13.7005 62.937 14.1857C62.937 15.0069 62.7554 15.7161 62.3921 16.3133C62.041 16.9105 61.5506 17.3647 60.9209 17.6757C60.3034 17.9868 59.6132 18.1423 58.8503 18.1423ZM61.6293 23.368V22.9388C61.6293 22.3042 61.4598 21.85 61.1207 21.5763C60.7817 21.3026 60.2852 21.1658 59.6313 21.1658H57.5062C57.0582 21.1658 56.6768 21.1284 56.3619 21.0538C56.0472 20.9791 55.7868 20.8671 55.5809 20.7178C55.3751 20.5809 55.2237 20.4068 55.1268 20.1953C55.03 19.9962 54.9815 19.7723 54.9815 19.5234C54.9815 19.0381 55.1268 18.6711 55.4174 18.4223C55.7081 18.1734 56.0774 18.0179 56.5254 17.9557C56.9735 17.881 57.4276 17.8748 57.8876 17.937L58.8503 18.1423C58.1601 18.1796 57.6334 18.248 57.2701 18.3476C56.9068 18.4472 56.7252 18.6586 56.7252 18.9822C56.7252 19.1688 56.7979 19.3181 56.9432 19.4301C57.0885 19.5421 57.2943 19.598 57.5607 19.598H59.7766C60.4668 19.598 61.0784 19.6851 61.6111 19.8593C62.156 20.046 62.5799 20.3508 62.8825 20.7738C63.1974 21.2093 63.3548 21.8003 63.3548 22.5468V23.368H61.6293ZM58.8503 16.6306C59.2862 16.6306 59.6798 16.5373 60.0309 16.3507C60.3942 16.1516 60.6848 15.8717 60.9028 15.5108C61.1207 15.1375 61.2297 14.6896 61.2297 14.1671C61.2297 13.6321 61.1207 13.1779 60.9028 12.8047C60.697 12.419 60.4123 12.1328 60.0491 11.9461C59.6858 11.7471 59.2862 11.6475 58.8503 11.6475C58.4144 11.6475 58.0088 11.7471 57.6334 11.9461C57.2701 12.1328 56.9795 12.4127 56.7615 12.786C56.5436 13.1593 56.4346 13.6196 56.4346 14.1671C56.4346 14.6896 56.5436 15.1375 56.7615 15.5108C56.9795 15.8717 57.2701 16.1516 57.6334 16.3507C57.9966 16.5373 58.4023 16.6306 58.8503 16.6306ZM70.042 19.8033C69.158 19.8033 68.3468 19.6105 67.6082 19.2248C66.8695 18.8391 66.2822 18.2854 65.8463 17.5638C65.4104 16.8421 65.1925 15.9774 65.1925 14.9696C65.1925 13.9494 65.4104 13.0783 65.8463 12.3567C66.2822 11.6226 66.8695 11.0627 67.6082 10.6771C68.3468 10.2914 69.158 10.0985 70.042 10.0985C70.926 10.0985 71.7312 10.2914 72.4578 10.6771C73.1843 11.0627 73.7655 11.6226 74.2014 12.3567C74.6374 13.0783 74.8553 13.9494 74.8553 14.9696C74.8553 15.9774 74.6374 16.8421 74.2014 17.5638C73.7655 18.2854 73.1843 18.8391 72.4578 19.2248C71.7312 19.6105 70.926 19.8033 70.042 19.8033ZM70.042 18.2543C70.5869 18.2543 71.0894 18.1299 71.5496 17.881C72.0218 17.6197 72.3972 17.2465 72.6757 16.7612C72.9663 16.2636 73.1116 15.6664 73.1116 14.9696C73.1116 14.2604 72.9663 13.6569 72.6757 13.1593C72.3972 12.6616 72.0218 12.2821 71.5496 12.0208C71.0894 11.7595 70.5869 11.6289 70.042 11.6289C69.4972 11.6289 68.9886 11.7595 68.5163 12.0208C68.0441 12.2697 67.6627 12.6429 67.372 13.1406C67.0814 13.6382 66.9361 14.248 66.9361 14.9696C66.9361 15.6664 67.0754 16.2636 67.3539 16.7612C67.6445 17.2465 68.0259 17.6197 68.4982 17.881C68.9704 18.1299 69.485 18.2543 70.042 18.2543ZM76.6797 10.2851H78.4234V19.598H76.6797V10.2851ZM81.8744 10.0985C82.383 10.0985 82.8431 10.1731 83.2548 10.3225C83.6665 10.4718 84.0177 10.6957 84.3083 10.9943C84.5989 11.2805 84.8229 11.6413 84.9803 12.0768C85.1498 12.4998 85.2346 12.985 85.2346 13.5325V19.598H83.5091V13.9244C83.5091 13.1903 83.3335 12.6429 82.9824 12.2821C82.6433 11.9088 82.1226 11.7222 81.4203 11.7222C80.8754 11.7222 80.3789 11.8528 79.9309 12.1141C79.4829 12.3754 79.1136 12.7237 78.823 13.1593C78.5445 13.5823 78.3749 14.0613 78.3144 14.5963L78.2962 13.5698C78.3567 13.0722 78.4839 12.6118 78.6777 12.1888C78.8835 11.7658 79.1378 11.3987 79.4405 11.0876C79.7553 10.7641 80.1186 10.5215 80.5303 10.3598C80.942 10.1856 81.39 10.0985 81.8744 10.0985Z" fill="#228B22"/>
<path d="M89.0038 18.67C89.0038 18.1546 88.5972 17.7368 88.0957 17.7368C87.5941 17.7368 87.1875 18.1546 87.1875 18.67C87.1875 19.1853 87.5941 19.6031 88.0957 19.6031C88.5972 19.6031 89.0038 19.1853 89.0038 18.67Z" fill="#228B22"/>
</g>
<defs>
<filter id="filter0_f_5561_57007" x="-6.29816" y="-0.0624456" width="28.2057" height="21.2636" filterUnits="userSpaceOnUse" color-interpolation-filters="sRGB">
<feFlood flood-opacity="0" result="BackgroundImageFix"/>
<feBlend mode="normal" in="SourceGraphic" in2="BackgroundImageFix" result="shape"/>
<feGaussianBlur stdDeviation="4.89908" result="effect1_foregroundBlur_5561_57007"/>
</filter>
<clipPath id="clip0_5561_57007">
<rect width="89" height="26.1284" fill="white"/>
</clipPath>
</defs>
</svg>
