<svg width="128" height="33" viewBox="0 0 128 33" fill="none" xmlns="http://www.w3.org/2000/svg">
<path d="M25.0939 31.5978C24.4034 32.8007 22.6578 32.8007 21.9673 31.5978L12.4412 15.0023C11.7569 13.8104 12.6233 12.3286 14.0045 12.3286H33.0567C34.4379 12.3286 35.3043 13.8104 34.62 15.0023L25.0939 31.5978Z" fill="#228B22"/>
<g filter="url(#filter0_f_2090_19183)">
<path d="M25.1498 13.5945H13.632V15.7401H25.1498V13.5945Z" fill="#0D3D0D"/>
</g>
<path d="M17.9617 3.21521C18.5158 2.2616 19.9012 2.2616 20.4554 3.2152L26.222 13.1387C26.7762 14.0924 26.0835 15.2843 24.9751 15.2843H13.4419C12.3336 15.2843 11.6409 14.0924 12.195 13.1387L17.9617 3.21521Z" fill="#23A323"/>
<path d="M53.8963 26.2869V19.0572C53.8963 18.4167 53.791 17.8883 53.5805 17.4719C53.37 17.0556 53.0541 16.7433 52.633 16.5352C52.2118 16.311 51.6773 16.1989 51.0295 16.1989C50.3167 16.1989 49.6608 16.3671 49.0615 16.7033C48.4784 17.0236 48.0007 17.4639 47.6281 18.0244C47.2555 18.5688 47.0288 19.1853 46.9478 19.8738L46.9235 18.5047C47.0045 17.8803 47.1746 17.2957 47.4337 16.7514C47.7091 16.207 48.0493 15.7345 48.4541 15.3342C48.8753 14.934 49.3612 14.6217 49.9119 14.3975C50.4625 14.1733 51.0619 14.0612 51.7097 14.0612C52.39 14.0612 53.0055 14.1573 53.5562 14.3495C54.1068 14.5256 54.5766 14.8058 54.9653 15.1901C55.3702 15.5585 55.678 16.0148 55.8885 16.5592C56.0991 17.0876 56.2044 17.6961 56.2044 18.3847V26.2869H53.8963ZM44.7855 26.2869V9.49762H47.0936V26.2869H44.7855ZM64.2802 26.5271C63.2435 26.5271 62.296 26.2629 61.4376 25.7345C60.5791 25.206 59.8989 24.4774 59.3968 23.5487C58.8946 22.6039 58.6436 21.5231 58.6436 20.3062C58.6436 19.0892 58.8946 18.0163 59.3968 17.0876C59.915 16.1428 60.6196 15.4063 61.5105 14.8779C62.4013 14.3335 63.3974 14.0612 64.4988 14.0612C65.7136 14.0612 66.653 14.3414 67.3171 14.9019C67.9974 15.4624 68.467 16.2149 68.7263 17.1597C69.0015 18.1045 69.1393 19.1533 69.1393 20.3062C69.1393 20.9466 69.0583 21.6272 68.8963 22.3478C68.7343 23.0684 68.4752 23.7489 68.1189 24.3894C67.7625 25.0299 67.2685 25.5504 66.6368 25.9506C66.0052 26.3349 65.2196 26.5271 64.2802 26.5271ZM64.9362 24.5335C65.7945 24.5335 66.5154 24.3494 67.0985 23.9811C67.6977 23.5968 68.1432 23.0843 68.4347 22.4439C68.7263 21.8034 68.872 21.0908 68.872 20.3062C68.872 19.4575 68.7181 18.7129 68.4104 18.0724C68.1189 17.4319 67.6734 16.9355 67.0742 16.5832C66.4911 16.231 65.7784 16.0548 64.9362 16.0548C63.6728 16.0548 62.6928 16.4551 61.9964 17.2558C61.3161 18.0564 60.976 19.0732 60.976 20.3062C60.976 21.1388 61.1461 21.8755 61.4862 22.5159C61.8264 23.1404 62.288 23.6368 62.8711 24.0051C63.4703 24.3573 64.1587 24.5335 64.9362 24.5335ZM68.872 14.3014H71.2044V26.2869H69.0664C69.0664 26.2869 69.0501 26.1428 69.0178 25.8546C68.9854 25.5504 68.9529 25.1901 68.9206 24.7737C68.8882 24.3573 68.872 23.9891 68.872 23.6688V14.3014ZM74.2464 14.3014H76.5788V26.2869H74.2464V14.3014ZM80.6847 16.343C79.8425 16.343 79.1217 16.5352 78.5224 16.9195C77.9393 17.3038 77.4696 17.7761 77.1133 18.3366C76.7732 18.8971 76.5464 19.4334 76.433 19.9459L76.4087 18.5768C76.4249 18.4167 76.4655 18.1685 76.5302 17.8322C76.6112 17.48 76.7489 17.0876 76.9432 16.6553C77.1376 16.2229 77.3967 15.8146 77.7207 15.4303C78.0447 15.03 78.4495 14.7017 78.9355 14.4455C79.4214 14.1894 80.0044 14.0612 80.6847 14.0612V16.343ZM87.6711 24.4134C86.667 24.4134 85.7438 24.2132 84.9014 23.8129C84.0592 23.4127 83.3871 22.8282 82.8849 22.0596C82.399 21.2909 82.1561 20.3623 82.1561 19.2734C82.1561 18.2005 82.399 17.2798 82.8849 16.5112C83.3708 15.7266 84.0268 15.1261 84.8528 14.7097C85.6952 14.2774 86.6346 14.0612 87.6711 14.0612C87.9789 14.0612 88.2705 14.0852 88.5458 14.1333C88.8211 14.1654 89.0884 14.2213 89.3475 14.3014H94.6439V16.4631C93.9151 16.4631 93.1782 16.343 92.433 16.1028C91.7042 15.8627 91.0645 15.6065 90.5137 15.3342L90.4408 15.2141C90.9916 15.5024 91.4693 15.8546 91.8742 16.271C92.2792 16.6713 92.5869 17.1276 92.7975 17.6401C93.0243 18.1364 93.1376 18.6969 93.1376 19.3214C93.1376 20.3782 92.8946 21.2909 92.4087 22.0596C91.9391 22.8282 91.2831 23.4127 90.4408 23.8129C89.6148 24.2132 88.6915 24.4134 87.6711 24.4134ZM91.3883 31.1387V30.5863C91.3883 29.7697 91.1616 29.1852 90.708 28.8329C90.2546 28.4807 89.5905 28.3045 88.7158 28.3045H85.8733C85.274 28.3045 84.7638 28.2565 84.3426 28.1604C83.9216 28.0643 83.5733 27.9202 83.2979 27.728C83.0227 27.5519 82.8202 27.3278 82.6906 27.0555C82.5611 26.7993 82.4962 26.5111 82.4962 26.1908C82.4962 25.5663 82.6906 25.094 83.0793 24.7737C83.468 24.4534 83.9621 24.2533 84.5613 24.1732C85.1607 24.0772 85.7681 24.0691 86.3835 24.1492L87.6711 24.4134C86.7479 24.4615 86.0433 24.5495 85.5574 24.6776C85.0715 24.8058 84.8286 25.0779 84.8286 25.4943C84.8286 25.7345 84.9257 25.9266 85.1201 26.0707C85.3145 26.2148 85.5899 26.2869 85.9461 26.2869H88.9102C89.8334 26.2869 90.6514 26.399 91.364 26.6232C92.0929 26.8634 92.6598 27.2557 93.0647 27.8001C93.4859 28.3606 93.6964 29.1211 93.6964 30.0819V31.1387H91.3883ZM87.6711 22.4679C88.2542 22.4679 88.7807 22.3478 89.2503 22.1076C89.7362 21.8514 90.125 21.4911 90.4165 21.0267C90.7081 20.5464 90.8538 19.9699 90.8538 19.2974C90.8538 18.6089 90.7081 18.0244 90.4165 17.544C90.1412 17.0476 89.7605 16.6793 89.2746 16.4391C88.7887 16.1829 88.2542 16.0548 87.6711 16.0548C87.088 16.0548 86.5455 16.1829 86.0433 16.4391C85.5574 16.6793 85.1687 17.0396 84.8771 17.52C84.5856 18.0003 84.4398 18.5928 84.4398 19.2974C84.4398 19.9699 84.5856 20.5464 84.8771 21.0267C85.1687 21.4911 85.5574 21.8514 86.0433 22.1076C86.5292 22.3478 87.0719 22.4679 87.6711 22.4679ZM102.641 26.5511C101.459 26.5511 100.374 26.3029 99.3858 25.8065C98.3977 25.3102 97.6122 24.5975 97.0291 23.6688C96.446 22.7401 96.1545 21.6272 96.1545 20.3302C96.1545 19.0172 96.446 17.8962 97.0291 16.9675C97.6122 16.0227 98.3977 15.3022 99.3858 14.8058C100.374 14.3095 101.459 14.0612 102.641 14.0612C103.824 14.0612 104.901 14.3095 105.873 14.8058C106.844 15.3022 107.622 16.0227 108.205 16.9675C108.788 17.8962 109.08 19.0172 109.08 20.3302C109.08 21.6272 108.788 22.7401 108.205 23.6688C107.622 24.5975 106.844 25.3102 105.873 25.8065C104.901 26.3029 103.824 26.5511 102.641 26.5511ZM102.641 24.5575C103.37 24.5575 104.042 24.3974 104.658 24.0772C105.29 23.7409 105.792 23.2605 106.164 22.636C106.553 21.9955 106.747 21.2269 106.747 20.3302C106.747 19.4175 106.553 18.6408 106.164 18.0003C105.792 17.3599 105.29 16.8715 104.658 16.5352C104.042 16.1989 103.37 16.0308 102.641 16.0308C101.913 16.0308 101.232 16.1989 100.601 16.5352C99.9689 16.8555 99.4587 17.3359 99.0699 17.9763C98.6812 18.6168 98.4869 19.4015 98.4869 20.3302C98.4869 21.2269 98.6731 21.9955 99.0456 22.636C99.4344 23.2605 99.9446 23.7409 100.576 24.0772C101.208 24.3974 101.896 24.5575 102.641 24.5575ZM111.52 14.3014H113.852V26.2869H111.52V14.3014ZM118.469 14.0612C119.149 14.0612 119.764 14.1573 120.315 14.3495C120.866 14.5416 121.335 14.8298 121.724 15.2141C122.113 15.5825 122.412 16.0468 122.623 16.6072C122.85 17.1516 122.963 17.7761 122.963 18.4807V26.2869H120.655V18.9851C120.655 18.0403 120.42 17.3359 119.951 16.8715C119.497 16.3911 118.801 16.1509 117.861 16.1509C117.132 16.1509 116.468 16.319 115.869 16.6553C115.27 16.9915 114.776 17.4399 114.387 18.0003C114.014 18.5447 113.788 19.1613 113.707 19.8498L113.682 18.5288C113.763 17.8883 113.933 17.2957 114.193 16.7514C114.468 16.207 114.808 15.7345 115.213 15.3342C115.634 14.9179 116.12 14.6056 116.671 14.3975C117.221 14.1733 117.821 14.0612 118.469 14.0612Z" fill="#0E390E"/>
<path d="M128 25.0925C128 24.4293 127.456 23.8916 126.785 23.8916C126.114 23.8916 125.57 24.4293 125.57 25.0925C125.57 25.7558 126.114 26.2935 126.785 26.2935C127.456 26.2935 128 25.7558 128 25.0925Z" fill="#041004"/>
<defs>
<filter id="filter0_f_2090_19183" x="0.531043" y="0.493537" width="37.7197" height="28.3475" filterUnits="userSpaceOnUse" color-interpolation-filters="sRGB">
<feFlood flood-opacity="0" result="BackgroundImageFix"/>
<feBlend mode="normal" in="SourceGraphic" in2="BackgroundImageFix" result="shape"/>
<feGaussianBlur stdDeviation="6.55046" result="effect1_foregroundBlur_2090_19183"/>
</filter>
</defs>
</svg>
