<svg width="972" height="49" viewBox="0 0 972 49" fill="none" xmlns="http://www.w3.org/2000/svg">
<g clip-path="url(#clip0_7189_66940)">
<g clip-path="url(#clip1_7189_66940)">
<path d="M9.72366 11.7249H15.6154L15.4221 25.3584C15.4221 32.2235 12.9129 35.9788 7.52503 37.1454C5.62324 37.5941 3.66277 37.9151 1.7092 38.1118L0.584 38.2292L0.532227 31.8611L1.54007 31.8197C3.52826 31.7425 5.4971 31.3989 7.39387 30.798C8.44314 30.3907 9.70985 29.3932 9.58214 25.4033V25.3791L9.72366 16.8124V11.7249ZM80.4179 12.7707C80.9943 13.4989 81.2739 14.3791 81.236 15.2799V36.6346H75.5202V23.2909L67.8647 35.0883C67.5334 35.6129 67.0605 36.0858 66.5117 36.4068C65.9767 36.7278 65.4107 36.89 64.7514 36.8796C63.4744 36.8796 62.2732 36.1755 61.6312 35.0365L53.8757 23.1529V36.6346H48.1496V15.0314C48.0978 14.2134 48.3774 13.3678 48.9434 12.6913C49.5543 12.0493 50.3723 11.718 51.1938 11.7456C52.2949 11.6938 53.4166 12.2702 54.0793 13.2677L64.7928 29.0239L75.2855 13.3022C75.8861 12.3047 77.0113 11.68 78.2021 11.7456C78.9752 11.7145 79.8381 12.0804 80.4179 12.7707ZM114.188 13.7647C113.384 12.0666 111.323 11.3314 109.611 12.1149C108.893 12.4704 108.306 13.0468 107.961 13.7647L94.2965 36.6656H101.196L104.724 30.3666L117.325 30.3148L120.929 36.6311H127.566L114.188 13.7647ZM113.825 24.4679H108.065L110.916 19.6979L113.825 24.4679ZM44.3874 29.0412C44.5496 31.188 43.6177 33.3211 41.9092 34.6741L41.7918 34.75C39.7865 35.9166 37.5568 36.5276 35.2719 36.5276C34.9509 36.5276 29.7909 36.493 29.7909 36.493C29.1247 36.493 28.4379 36.4689 27.7545 36.4413C27.0111 36.4162 26.2716 36.3226 25.5455 36.1617C24.8172 36.0098 24.1096 35.7751 23.4228 35.461C22.7187 35.1297 22.0939 34.681 21.5693 34.108L21.559 34.0977C20.9983 33.4879 20.5612 32.7752 20.2715 31.9992C19.9198 31.0467 19.7557 30.0352 19.7883 29.0205V11.749H25.4281V28.8134C25.4281 29.2724 25.4281 30.6669 29.3111 30.6669H34.944C38.7407 30.6669 38.7407 29.2724 38.7407 28.8134V11.749H44.3908L44.3874 29.0412ZM85.1983 11.9803H91.1177V36.7347H85.1983V11.9803Z" fill="#282828"/>
<path d="M151.023 17.5855C150.812 17.2404 150.581 16.9159 150.329 16.6053C149.991 16.1221 149.604 15.6768 149.173 15.2799L148.765 14.8726L147.844 14.0926L146.915 13.4506L146.401 13.1641C144.617 12.174 142.608 11.6582 140.568 11.6662C138.526 11.6448 136.514 12.1614 134.735 13.1641L134.221 13.4506L133.24 14.0926L132.312 14.8726L131.905 15.2799C131.475 15.6811 131.087 16.1252 130.748 16.6053C129.669 18.037 128.934 19.6973 128.598 21.4582C128.412 22.2762 128.318 23.1011 128.312 23.9364C128.329 25.172 128.522 26.3973 128.888 27.5743C129.063 28.144 129.278 28.7011 129.53 29.2414L130.106 30.2837L130.451 30.7428C130.648 31.0914 130.883 31.4262 131.145 31.723C131.646 32.3339 132.208 32.8896 132.812 33.3901L133.741 34.0839C134.045 34.3117 134.376 34.505 134.721 34.6603C136.5 35.6576 138.508 36.1761 140.547 36.1651C142.584 36.172 144.582 35.675 146.38 34.7258L146.905 34.3772C147.407 34.0845 147.888 33.757 148.344 33.397C148.631 33.1105 148.972 32.8827 149.207 32.617L149.987 31.7541L150.681 30.8256L151.03 30.3113C152.167 28.3782 152.768 26.1761 152.769 23.9329C152.797 21.6998 152.196 19.4942 151.036 17.589H151.012V17.5855H151.023ZM149.604 20.9266L145.096 25.317L146.139 31.5573L140.533 28.6166L135.001 31.5573L136.04 25.317L131.542 20.9266L137.783 20.0051L140.609 14.3411L143.381 20.0051L149.604 20.9266Z" fill="#F8991D"/>
</g>
<g clip-path="url(#clip2_7189_66940)">
<path fill-rule="evenodd" clip-rule="evenodd" d="M313.022 5.02856H258.945C255.523 5.02856 252.753 7.8261 252.779 11.2212V31.8633C252.779 35.2855 255.55 38.0559 258.972 38.0559H284.585L296.291 44.5744L293.629 38.0559H313.022C316.444 38.0559 319.215 35.2855 319.215 31.8633V11.2212C319.215 7.79894 316.444 5.02856 313.022 5.02856ZM257.805 9.80883C257.044 9.86316 256.474 10.1348 256.093 10.6508C255.713 11.1397 255.577 11.7644 255.659 12.4706C257.261 22.6559 258.755 29.5275 260.14 33.0855C260.684 34.3892 261.308 35.014 262.042 34.9597C263.182 34.8781 264.54 33.3028 266.143 30.2337C266.985 28.4953 268.289 25.888 270.054 22.4114C271.521 27.5447 273.53 31.4016 276.057 33.9818C276.763 34.7151 277.496 35.0411 278.202 34.9868C278.827 34.9324 279.316 34.6065 279.642 34.0089C279.913 33.4929 280.022 32.8953 279.968 32.2163C279.805 29.7448 280.049 26.2954 280.728 21.8682C281.434 17.3052 282.303 14.0187 283.363 12.0632C283.58 11.6558 283.661 11.2483 283.634 10.7595C283.58 10.1347 283.308 9.61871 282.792 9.2113C282.276 8.8039 281.706 8.61377 281.081 8.66808C280.294 8.72241 279.696 9.10265 279.289 9.86316C277.605 12.9323 276.41 17.9027 275.703 24.8015C274.671 22.1941 273.802 19.1249 273.123 15.5126C272.824 13.9101 272.091 13.1496 270.896 13.2311C270.081 13.2854 269.402 13.8286 268.859 14.8607L262.911 26.1867C261.933 22.2484 261.009 17.441 260.168 11.7644C259.977 10.3521 259.19 9.70018 257.805 9.80883ZM310.143 11.7645C312.072 12.1719 313.511 13.204 314.489 14.9151C315.358 16.3818 315.792 18.1472 315.792 20.2658C315.792 23.0633 315.086 25.6164 313.674 27.9522C312.044 30.6683 309.926 32.0263 307.291 32.0263C306.83 32.0263 306.341 31.972 305.824 31.8633C303.896 31.456 302.457 30.4239 301.479 28.7128C300.61 27.2189 300.175 25.4263 300.175 23.3349C300.175 20.5374 300.881 17.9843 302.294 15.6756C303.951 12.9596 306.069 11.6015 308.676 11.6015C309.138 11.6015 309.627 11.6558 310.143 11.7645ZM309.002 26.4583C310.007 25.5621 310.686 24.2312 311.067 22.4386C311.175 21.8139 311.257 21.1349 311.257 20.4287C311.257 19.6411 311.094 18.7991 310.768 17.9571C310.36 16.8978 309.817 16.3275 309.165 16.1917C308.188 16.0015 307.237 16.5448 306.341 17.8756C305.607 18.9077 305.146 19.9942 304.901 21.1077C304.765 21.7325 304.711 22.4115 304.711 23.0905C304.711 23.8781 304.874 24.7201 305.2 25.5621C305.607 26.6213 306.15 27.1917 306.802 27.3276C307.481 27.4633 308.215 27.1646 309.002 26.4583ZM297.459 14.9151C296.481 13.204 295.015 12.1719 293.113 11.7645C292.597 11.6558 292.108 11.6015 291.647 11.6015C289.039 11.6015 286.921 12.9596 285.264 15.6756C283.851 17.9843 283.145 20.5374 283.145 23.3349C283.145 25.4263 283.58 27.2189 284.449 28.7128C285.427 30.4239 286.866 31.456 288.795 31.8633C289.311 31.972 289.8 32.0263 290.262 32.0263C292.896 32.0263 295.015 30.6683 296.644 27.9522C298.057 25.6164 298.763 23.0633 298.763 20.2658C298.763 18.1472 298.328 16.3818 297.459 14.9151ZM294.037 22.4386C293.657 24.2312 292.977 25.5621 291.973 26.4583C291.185 27.1646 290.452 27.4633 289.773 27.3276C289.121 27.1917 288.577 26.6213 288.17 25.5621C287.844 24.7201 287.681 23.8781 287.681 23.0905C287.681 22.4115 287.735 21.7325 287.871 21.1077C288.116 19.9942 288.577 18.9077 289.311 17.8756C290.207 16.5448 291.158 16.0015 292.135 16.1917C292.787 16.3275 293.331 16.8978 293.738 17.9571C294.064 18.7991 294.227 19.6411 294.227 20.4287C294.227 21.1349 294.173 21.8139 294.037 22.4386Z" fill="#7F54B3"/>
<path fill-rule="evenodd" clip-rule="evenodd" d="M326.086 14.6706C324.266 16.4632 323.37 18.7447 323.37 21.5151C323.37 24.4756 324.266 26.8929 326.059 28.7127C327.852 30.5325 330.188 31.4559 333.094 31.4559C333.936 31.4559 334.886 31.3201 335.918 31.0212V26.6212C334.968 26.8929 334.153 27.0288 333.447 27.0288C332.007 27.0288 330.867 26.5398 329.997 25.5892C329.128 24.6114 328.694 23.3077 328.694 21.6509C328.694 20.1027 329.128 18.8262 329.97 17.8484C330.839 16.8435 331.899 16.3546 333.202 16.3546C334.044 16.3546 334.941 16.4904 335.918 16.762V12.362C335.022 12.1175 334.017 12.0089 332.958 12.0089C330.188 11.9817 327.906 12.878 326.086 14.6706ZM344.936 11.9817C342.437 11.9817 340.481 12.8237 339.069 14.4805C337.657 16.1373 336.978 18.4731 336.978 21.4608C336.978 24.6929 337.684 27.1645 339.069 28.8757C340.454 30.5868 342.491 31.4559 345.153 31.4559C347.733 31.4559 349.716 30.5868 351.101 28.8757C352.486 27.1645 353.193 24.7473 353.193 21.6509C353.193 18.5546 352.486 16.1644 351.074 14.4805C349.635 12.8237 347.597 11.9817 344.936 11.9817ZM347.081 26.1052C346.592 26.8658 345.859 27.2461 344.936 27.2461C344.067 27.2461 343.415 26.8658 342.953 26.1052C342.491 25.3447 342.274 23.8237 342.274 21.5151C342.274 17.957 343.17 16.1916 344.99 16.1916C346.891 16.1916 347.869 17.9842 347.869 21.5966C347.842 23.8237 347.57 25.3447 347.081 26.1052ZM366.61 12.4977L365.632 16.6533C365.388 17.7126 365.143 18.799 364.926 19.9126L364.383 22.7917C363.867 19.9126 363.161 16.4904 362.264 12.4977H355.963L353.6 30.9942H358.326L359.602 18.2558L362.835 30.9942H366.203L369.299 18.283L370.63 30.9942H375.573L373.074 12.4977H366.61ZM389.235 12.4977L388.257 16.6533C388.012 17.7126 387.768 18.799 387.551 19.9126L387.008 22.7917C386.492 19.9126 385.785 16.4904 384.889 12.4977H378.588L376.225 30.9942H380.951L382.227 18.2558L385.459 30.9942H388.827L391.897 18.283L393.227 30.9942H398.171L395.672 12.4977H389.235ZM404.608 23.688H409.035V19.8583H404.608V16.4632H409.714V12.5249H399.61V31.0212H409.741V27.0831H404.608V23.688ZM423.81 20.7546C424.326 19.9126 424.598 19.0435 424.598 18.1472C424.598 16.4089 423.919 15.0237 422.561 14.0187C421.203 13.0138 419.329 12.4977 416.993 12.4977H411.181V30.9942H416.178V22.5744H416.26L420.307 30.9942H425.576L421.583 22.6558C422.534 22.2213 423.294 21.5966 423.81 20.7546ZM416.151 20.4558V16.0558C417.346 16.083 418.188 16.2731 418.704 16.6533C419.22 17.0336 419.465 17.6311 419.465 18.5003C419.465 19.7768 418.351 20.4287 416.151 20.4558ZM427.531 14.6706C425.711 16.4632 424.815 18.7447 424.815 21.5151C424.815 24.4756 425.711 26.8929 427.505 28.7127C429.297 30.5325 431.632 31.4559 434.539 31.4559C435.381 31.4559 436.332 31.3201 437.363 31.0212V26.6212C436.414 26.8929 435.598 27.0288 434.891 27.0288C433.453 27.0288 432.312 26.5398 431.443 25.5892C430.573 24.6114 430.139 23.3077 430.139 21.6509C430.139 20.1027 430.573 18.8262 431.415 17.8484C432.285 16.8435 433.343 16.3546 434.647 16.3546C435.489 16.3546 436.386 16.4904 437.363 16.762V12.362C436.467 12.1175 435.462 12.0089 434.404 12.0089C431.66 11.9817 429.351 12.878 427.531 14.6706ZM443.747 27.0288V23.6607H448.173V19.8311H443.747V16.4361H448.879V12.4977H438.776V30.9942H448.907V27.0558H443.747V27.0288Z" fill="black"/>
</g>
<g clip-path="url(#clip3_7189_66940)">
<path d="M572.038 15.3052V42.7614L569.338 44.4115L566.637 42.7519V15.3263L559.64 19.634V43.1141L569.338 49.0476L579.119 43.0719V19.6192L572.038 15.3052ZM569.338 0.847656L548.941 13.2052V36.689L554.239 39.8097V16.3243L569.343 7.14023L584.46 16.3106L584.522 16.3454L584.515 39.7732L589.761 36.6874V13.2052L569.338 0.847656Z" fill="#F37B20"/>
<path d="M589.761 13.2041L569.339 0.848145L548.941 13.2041L554.238 16.3238L569.342 7.13966L584.523 16.3459L589.761 13.2041ZM572.038 15.3041V23.9618L579.119 19.6176L572.038 15.3041ZM559.64 19.635L566.635 23.9074V15.3258L559.64 19.635Z" fill="#FAB37C"/>
<path d="M620.91 35.8004L619.504 17.8451L612.373 35.8981H610.051L602.922 17.8451L601.548 35.8004H598.671L600.469 13.2349H604.263L611.295 31.7461L618.325 13.2349H622.087L623.853 35.8004H620.91ZM635.724 27.8857C629.967 28.4422 628.759 30.0105 628.759 31.6147C628.759 32.8893 629.608 33.7078 631.081 33.7078C632.782 33.7078 634.415 32.8576 635.724 31.5159V27.8857ZM636.279 35.8004L635.952 33.7078C634.71 34.9819 633.01 36.1272 630.459 36.1272C627.647 36.1272 625.881 34.4259 625.881 31.7768C625.881 27.8862 629.214 26.3507 635.725 25.6621V25.0079C635.725 23.0457 634.548 22.3588 632.747 22.3588C630.851 22.3588 629.053 22.9475 627.352 23.6994L626.959 21.1818C628.823 20.4283 630.589 19.8728 633.01 19.8728C636.803 19.8728 638.634 21.4088 638.634 24.8769V35.8009L636.279 35.8004ZM647.365 21.9992C645.403 21.9992 644.193 23.5062 644.193 25.4002C644.193 27.1992 645.436 28.6033 647.365 28.6033C649.362 28.6033 650.603 27.1343 650.603 25.2687C650.603 23.4053 649.295 21.9992 647.365 21.9992ZM643.115 37.5017C643.115 38.7442 644.718 39.6592 647.758 39.6592C650.799 39.6592 652.499 38.6132 652.499 37.3047C652.499 36.3553 651.782 35.7032 649.558 35.3109L647.692 34.9825C646.843 34.8203 646.386 34.7221 645.764 34.5912C643.932 35.5063 643.115 36.4219 643.115 37.5017ZM655.345 19.9726L655.77 22.5879L652.794 22.8815C653.22 23.6017 653.418 24.4197 653.418 25.302C653.418 28.6392 650.604 30.6647 647.432 30.6647C647.039 30.6647 646.646 30.632 646.255 30.5665C645.796 30.8617 645.472 31.2229 645.472 31.5164C645.472 32.0714 646.026 32.2039 648.772 32.6945L649.884 32.8888C653.19 33.4776 655.248 34.5225 655.248 36.9436C655.248 40.2147 651.682 41.7513 647.629 41.7513C643.573 41.7513 640.335 40.4766 640.335 37.7303C640.335 36.1267 641.447 34.8842 643.638 33.7073C642.951 33.2167 642.658 32.6602 642.658 32.0703C642.658 31.3168 643.246 30.5655 644.292 29.9455C642.562 29.0954 641.381 27.4284 641.381 25.301C641.381 21.9332 644.194 19.8733 647.366 19.8733C648.937 19.8733 650.31 20.33 651.388 21.1818L655.345 19.9726ZM662.54 22.1629C660.742 22.1629 659.204 23.4391 658.745 26.1189H666.266C665.909 23.6012 664.797 22.1629 662.54 22.1629ZM669.212 28.3113H658.616C658.714 31.942 660.444 33.6434 663.161 33.6434C665.418 33.6434 667.054 32.76 668.753 31.4182L669.177 34.0346C667.512 35.3426 665.516 36.1278 662.933 36.1278C658.878 36.1278 655.705 33.6745 655.705 27.9517C655.705 22.948 658.649 19.8754 662.574 19.8754C667.118 19.8754 669.213 23.3736 669.213 27.6898L669.212 28.3113ZM681.475 35.8004V25.1711C681.475 23.5695 680.789 22.4897 679.088 22.4897C677.552 22.4897 675.981 23.5056 674.575 25.0084V35.8009H671.664V20.2002H673.986L674.345 22.4564C675.816 21.1168 677.649 19.8722 679.872 19.8722C682.814 19.8722 684.387 21.638 684.387 24.4503V35.7993L681.475 35.8004ZM692.987 36.0623C690.238 36.0623 688.441 35.0828 688.441 31.9399V22.6539H686.085V20.2007H688.441V15.0006L691.289 14.5766V20.1996H694.654L695.048 22.6529H691.289V31.4172C691.289 32.6945 691.81 33.4776 693.446 33.4776C693.969 33.4776 694.427 33.4453 694.786 33.3793L695.18 35.8611C694.688 35.963 694.002 36.0623 692.987 36.0623ZM702.635 22.326C699.821 22.326 698.414 24.7455 698.414 28.0166C698.414 31.2229 699.886 33.7073 702.635 33.7073C705.512 33.7073 706.95 31.2862 706.95 28.0166C706.95 24.812 705.446 22.326 702.635 22.326ZM702.635 36.1278C698.48 36.1278 695.471 33.1518 695.471 28.0177C695.471 22.881 698.48 19.8759 702.635 19.8759C706.821 19.8759 709.893 22.881 709.893 28.0177C709.893 33.1518 706.821 36.1278 702.635 36.1278ZM711.946 19.6631H711.651V20.3264H711.929C712.182 20.3264 712.341 20.2213 712.341 19.9947C712.342 19.7767 712.2 19.6631 711.946 19.6631ZM712.54 21.5926L711.869 20.6321H711.651V21.5583H711.266V19.3136H711.947C712.421 19.3136 712.734 19.5496 712.734 19.9678C712.734 20.2904 712.558 20.5022 712.279 20.5893L712.927 21.506L712.54 21.5926ZM711.957 18.71C711.014 18.71 710.262 19.3564 710.262 20.5091C710.262 21.6533 711.014 22.3001 711.957 22.3001C712.91 22.3001 713.661 21.6533 713.661 20.5091C713.66 19.3564 712.9 18.71 711.957 18.71ZM711.957 22.5362C710.787 22.5362 709.974 21.7241 709.974 20.5091C709.974 19.3036 710.804 18.474 711.957 18.474C713.126 18.474 713.939 19.2956 713.939 20.5091C713.939 21.7156 713.109 22.5362 711.957 22.5362Z" fill="#171113"/>
</g>
<g clip-path="url(#clip4_7189_66940)">
<path d="M831.745 4.03171C832.06 4.03171 832.217 4.18897 832.532 4.34624C830.644 5.13255 828.757 7.17697 827.814 11.5803L824.354 12.5239C825.455 9.37864 827.656 4.03171 831.745 4.03171ZM833.475 5.60434C833.79 6.54791 834.104 7.64875 834.104 9.37864C834.104 9.53591 834.104 9.53591 834.104 9.69317L829.544 10.9513C830.487 7.64875 832.06 6.23339 833.475 5.60434ZM837.564 8.43507L835.52 9.06412C835.52 8.90686 835.52 8.74959 835.52 8.59233C835.52 7.17697 835.362 6.07613 835.048 5.13255C836.149 5.44708 837.092 6.86244 837.564 8.43507ZM847.786 10.9513C847.786 10.794 847.629 10.6367 847.472 10.6367C847.157 10.6367 843.855 10.3222 843.855 10.3222C843.855 10.3222 841.496 7.96328 841.181 7.80602C840.867 7.49149 840.395 7.64875 840.237 7.64875C840.237 7.64875 839.766 7.80602 838.979 8.12054C838.193 5.91886 836.778 3.87445 834.419 3.87445H834.261C833.632 2.93087 832.689 2.61635 831.903 2.61635C826.241 2.45908 823.568 9.53591 822.624 13.1529C821.366 13.4675 820.108 13.9393 818.692 14.411C817.434 14.7256 817.434 14.8828 817.277 15.9837C817.12 16.77 813.975 41.6175 813.975 41.6175L838.979 46.3354L852.504 43.3474C852.504 43.3474 847.786 11.2658 847.786 10.9513Z" fill="#8DB849"/>
<path d="M847.315 10.6367C847.158 10.6367 843.856 10.3221 843.856 10.3221C843.856 10.3221 841.497 7.96321 841.182 7.80594C841.025 7.64868 841.025 7.64868 840.868 7.64868L838.98 46.3353L852.505 43.3473C852.505 43.3473 847.787 11.2657 847.787 10.9512C847.787 10.7939 847.473 10.6367 847.315 10.6367Z" fill="#5A863E"/>
<path d="M834.419 18.1855L832.689 23.2179C832.689 23.2179 831.274 22.4316 829.387 22.4316C826.714 22.4316 826.556 24.0042 826.556 24.476C826.556 26.6777 832.532 27.6213 832.532 32.9682C832.532 37.2143 829.859 39.8877 826.242 39.8877C821.996 39.8877 819.794 37.2143 819.794 37.2143L820.895 33.44C820.895 33.44 823.096 35.3271 824.984 35.3271C826.242 35.3271 826.714 34.3835 826.714 33.5972C826.714 30.6092 821.838 30.452 821.838 25.5768C821.838 21.488 824.826 17.5564 830.645 17.5564C833.319 17.3992 834.419 18.1855 834.419 18.1855Z" fill="#FFFFFE"/>
<path d="M868.388 27.4637C866.973 26.6774 866.344 26.0484 866.344 25.262C866.344 24.1612 867.287 23.5322 868.86 23.5322C870.59 23.5322 872.162 24.3185 872.162 24.3185L873.42 20.5442C873.42 20.5442 872.32 19.6006 869.017 19.6006C864.299 19.6006 861.154 22.274 861.154 26.0484C861.154 28.25 862.726 29.8227 864.614 30.9235C866.186 31.8671 866.815 32.4961 866.815 33.4397C866.815 34.3833 866.029 35.3269 864.456 35.3269C862.255 35.3269 860.053 34.226 860.053 34.226L858.795 38.0003C858.795 38.0003 860.682 39.2584 863.985 39.2584C868.702 39.2584 872.162 36.8995 872.162 32.6534C872.162 30.2944 870.432 28.5646 868.388 27.4637ZM887.417 19.4433C885.058 19.4433 883.171 20.5442 881.755 22.2741L883.8 11.5802H878.453L873.263 38.7866H878.61L880.34 29.5081C880.969 26.0484 882.856 23.8467 884.586 23.8467C885.844 23.8467 886.316 24.633 886.316 25.8911C886.316 26.6774 886.316 27.4637 886.159 28.25L884.114 38.9439H889.461L891.506 27.9355C891.663 26.8347 891.82 25.4193 891.82 24.4757C891.82 21.3305 890.247 19.4433 887.417 19.4433ZM901.099 35.0123C899.211 35.0123 898.582 33.4397 898.582 31.5525C898.582 28.5646 900.155 23.5322 902.986 23.5322C904.873 23.5322 905.502 25.1048 905.502 26.6774C905.502 30.1372 903.929 35.0123 901.099 35.0123ZM903.772 19.4433C897.324 19.4433 893.078 25.262 893.078 31.7098C893.078 35.7986 895.594 39.1012 900.47 39.1012C906.76 39.1012 911.006 33.4397 911.006 26.8347C911.006 23.0604 908.804 19.4433 903.772 19.4433ZM919.498 35.1696C918.083 35.1696 917.297 34.3833 917.297 34.3833L918.24 29.3509C918.869 26.0484 920.599 23.8467 922.486 23.8467C924.059 23.8467 924.688 25.4193 924.688 26.8347C924.531 30.2944 922.486 35.1696 919.498 35.1696ZM924.688 19.4433C921.071 19.4433 919.027 22.5886 919.027 22.5886L919.341 19.7578H914.623C914.466 21.645 913.994 24.633 913.522 26.8347L909.748 46.3352H915.095L916.51 38.4721H916.668C916.668 38.4721 917.768 39.1012 919.813 39.1012C926.103 39.1012 930.192 32.6534 930.192 26.2056C930.192 22.7458 928.62 19.4433 924.688 19.4433ZM937.741 11.8947C936.011 11.8947 934.753 13.3101 934.753 15.04C934.753 16.6126 935.696 17.7134 937.269 17.7134C938.999 17.7134 940.414 16.6126 940.414 14.5682C940.414 12.9956 939.313 11.8947 937.741 11.8947ZM930.349 38.7866H935.696L939.313 19.9151H933.966L930.349 38.7866ZM952.838 19.9151H949.064L949.221 18.9715C949.535 17.0844 950.636 15.5118 952.366 15.5118C953.31 15.5118 954.096 15.8263 954.096 15.8263L955.197 11.5802C955.197 11.5802 954.253 11.1084 952.366 11.1084C950.479 11.1084 948.592 11.5802 947.177 12.8383C945.289 14.4109 944.503 16.6126 944.031 18.8143L943.874 19.7578H941.358L940.572 23.8467H943.088L940.257 38.7866H945.604L948.435 23.8467H952.052L952.838 19.9151ZM965.576 19.9151C965.576 19.9151 962.274 28.25 960.701 32.8106C960.544 31.3953 959.443 19.9151 959.443 19.9151H953.782L956.927 37.214C956.927 37.5285 956.927 37.8431 956.77 38.1576C956.141 39.4157 955.04 40.5165 953.939 41.3028C952.995 42.0892 951.737 42.5609 950.951 42.8755L952.366 47.4361C953.467 47.2788 955.669 46.3352 957.556 44.6054C959.915 42.4037 962.274 38.7866 964.475 34.0688L970.923 20.0724L965.576 19.9151Z" fill="#1A1919"/>
</g>
</g>
<defs>
<clipPath id="clip0_7189_66940">
<rect width="971" height="48.2" fill="white" transform="translate(0.5 0.4375)"/>
</clipPath>
<clipPath id="clip1_7189_66940">
<rect width="152.247" height="26.563" fill="white" transform="translate(0.5 11.2561)"/>
</clipPath>
<clipPath id="clip2_7189_66940">
<rect width="196.127" height="39.8384" fill="white" transform="translate(252.747 4.61841)"/>
</clipPath>
<clipPath id="clip3_7189_66940">
<rect width="165.068" height="48.2" fill="white" transform="translate(548.875 0.4375)"/>
</clipPath>
<clipPath id="clip4_7189_66940">
<rect width="157.263" height="44.9771" fill="white" transform="translate(813.943 2.04883)"/>
</clipPath>
</defs>
</svg>
