<svg width="31" height="30" viewBox="0 0 31 30" fill="none" xmlns="http://www.w3.org/2000/svg">
<circle cx="15.4952" cy="14.8931" r="14.6974" fill="#FFF5F0"/>
<path d="M18 9.75H9.5C8.94772 9.75 8.5 10.1977 8.5 10.75V16.75C8.5 17.3023 8.94772 17.75 9.5 17.75H18C18.5523 17.75 19 17.3023 19 16.75V10.75C19 10.1977 18.5523 9.75 18 9.75Z" stroke="#FF823B" stroke-linecap="round" stroke-linejoin="round"/>
<path d="M13.75 15.25C14.5784 15.25 15.25 14.5784 15.25 13.75C15.25 12.9216 14.5784 12.25 13.75 12.25C12.9216 12.25 12.25 12.9216 12.25 13.75C12.25 14.5784 12.9216 15.25 13.75 15.25Z" stroke="#FF823B" stroke-linecap="round" stroke-linejoin="round"/>
<path d="M11.5 20.25H20.5C20.7652 20.25 21.0196 20.1446 21.2071 19.9571C21.3946 19.7696 21.5 19.5152 21.5 19.25V14.25" stroke="#FF823B" stroke-linecap="round" stroke-linejoin="round"/>
</svg>
