<svg width="468" height="280" viewBox="0 0 468 280" fill="none" xmlns="http://www.w3.org/2000/svg">
<g filter="url(#filter0_d_3791_39419)">
<g clip-path="url(#clip0_3791_39419)">
<rect x="18.083" y="189.061" width="368.754" height="74.1777" rx="7.67356" transform="rotate(-29.1758 18.083 189.061)" fill="white"/>
<path d="M70.1912 193.35L76.5094 204.667L84.1876 200.38L85.1527 202.108L75.5449 207.473L68.2616 194.428L70.1912 193.35ZM91.9878 198.582C91.0096 199.128 89.9959 199.422 88.9466 199.463C87.8972 199.504 86.9144 199.27 85.9981 198.762C85.0817 198.255 84.3206 197.458 83.7146 196.373C83.1011 195.274 82.8186 194.201 82.867 193.155C82.908 192.095 83.2212 191.129 83.8067 190.257C84.3922 189.385 85.174 188.676 86.1522 188.13C87.1304 187.584 88.1375 187.294 89.1734 187.261C90.2093 187.227 91.1892 187.471 92.113 187.992C93.0294 188.5 93.7943 189.303 94.4078 190.402C95.0138 191.488 95.2925 192.554 95.2441 193.6C95.1956 194.647 94.8853 195.602 94.3133 196.466C93.7412 197.331 92.966 198.036 91.9878 198.582ZM91.0564 196.914C91.6594 196.577 92.1407 196.133 92.5002 195.58C92.8657 195.007 93.0567 194.373 93.0731 193.679C93.0954 192.963 92.8971 192.23 92.4782 191.48C92.0517 190.716 91.528 190.156 90.9072 189.799C90.2997 189.435 89.6561 189.259 88.9764 189.269C88.3101 189.272 87.6755 189.442 87.0725 189.778C86.4695 190.115 85.9852 190.57 85.6197 191.143C85.2468 191.703 85.0491 192.341 85.0268 193.056C85.0044 193.772 85.2102 194.518 85.6442 195.295C86.0631 196.046 86.5763 196.603 87.1838 196.967C87.7972 197.31 88.4437 197.476 89.1234 197.466C89.7957 197.442 90.44 197.258 91.0564 196.914ZM108.996 186.74L108.462 187.011L106.381 177.099L108.472 175.932L110.594 187.903L108.785 188.914L100.958 182.025L101.501 181.722L103.218 192.022L101.409 193.032L92.3717 184.921L94.4822 183.743L101.748 190.76L101.237 191.072L99.2861 181.061L101.557 179.793L108.996 186.74ZM121.285 177.663L123.114 176.642C123.373 177.359 123.448 178.09 123.338 178.837C123.228 179.585 122.93 180.295 122.446 180.97C121.961 181.645 121.277 182.229 120.392 182.723C119.347 183.307 118.292 183.606 117.228 183.62C116.164 183.634 115.18 183.383 114.277 182.868C113.374 182.353 112.635 181.579 112.059 180.547C111.475 179.502 111.194 178.464 111.216 177.432C111.23 176.387 111.516 175.419 112.073 174.528C112.63 173.637 113.424 172.903 114.456 172.327C115.542 171.721 116.572 171.427 117.549 171.444C118.525 171.462 119.423 171.795 120.243 172.445C121.069 173.073 121.796 174.03 122.425 175.313L114.204 179.903C114.608 180.469 115.088 180.904 115.644 181.208C116.214 181.505 116.822 181.649 117.468 181.64C118.126 181.624 118.784 181.433 119.441 181.066C120.178 180.655 120.701 180.143 121.009 179.531C121.318 178.919 121.41 178.297 121.285 177.663ZM115.396 173.964C114.525 174.451 113.933 175.089 113.618 175.88C113.297 176.657 113.255 177.48 113.494 178.349L119.665 174.903C119.155 174.116 118.512 173.657 117.737 173.528C116.954 173.385 116.174 173.53 115.396 173.964ZM121.404 168.711L123.334 167.634L128.934 177.664L127.004 178.741L121.404 168.711ZM127.685 167.446C126.988 167.835 126.482 168.329 126.165 168.927C125.862 169.518 125.695 170.13 125.662 170.764C125.642 171.39 125.705 171.944 125.851 172.425L125.191 171.291C125.129 171.149 125.047 170.923 124.944 170.611C124.846 170.279 124.777 169.887 124.735 169.436C124.694 168.984 124.718 168.523 124.806 168.051C124.887 167.567 125.069 167.105 125.351 166.666C125.633 166.227 126.056 165.851 126.619 165.537L127.685 167.446ZM132.887 162.3L134.817 161.223L140.417 171.253L138.487 172.33L132.887 162.3ZM139.168 161.035C138.471 161.424 137.964 161.918 137.648 162.516C137.345 163.107 137.177 163.719 137.144 164.353C137.125 164.979 137.188 165.533 137.334 166.014L136.674 164.879C136.612 164.738 136.53 164.511 136.426 164.2C136.329 163.868 136.259 163.476 136.218 163.024C136.177 162.573 136.201 162.111 136.289 161.64C136.37 161.156 136.552 160.694 136.834 160.255C137.116 159.816 137.539 159.44 138.102 159.125L139.168 161.035ZM139.953 152.924L141.109 154.994L138.717 156.33L137.562 154.259L139.953 152.924ZM140.115 158.265L142.024 157.199L147.624 167.229L145.714 168.295L140.115 158.265ZM148.083 162.701L149.852 161.714C150.218 162.212 150.706 162.52 151.316 162.636C151.918 162.74 152.595 162.582 153.345 162.163C153.828 161.893 154.173 161.63 154.381 161.373C154.582 161.103 154.68 160.838 154.675 160.577C154.683 160.308 154.62 160.054 154.485 159.812C154.313 159.504 154.102 159.315 153.851 159.244C153.593 159.159 153.287 159.146 152.932 159.203C152.57 159.247 152.158 159.328 151.696 159.445C151.187 159.571 150.666 159.677 150.134 159.764C149.602 159.85 149.085 159.883 148.582 159.865C148.093 159.839 147.641 159.723 147.227 159.515C146.818 159.286 146.475 158.924 146.198 158.428C145.966 158.013 145.836 157.575 145.808 157.116C145.794 156.65 145.883 156.196 146.076 155.754C146.275 155.292 146.565 154.866 146.945 154.478C147.319 154.076 147.78 153.722 148.329 153.415C149.093 152.988 149.815 152.77 150.495 152.76C151.167 152.736 151.775 152.897 152.32 153.243C152.878 153.582 153.344 154.069 153.716 154.705L152.028 155.648C151.62 155.137 151.197 154.837 150.76 154.747C150.316 154.643 149.799 154.756 149.209 155.086C148.633 155.407 148.255 155.768 148.074 156.168C147.893 156.568 147.911 156.962 148.128 157.351C148.292 157.645 148.534 157.827 148.853 157.895C149.165 157.949 149.539 157.942 149.976 157.874C150.412 157.806 150.899 157.719 151.437 157.612C151.948 157.52 152.443 157.446 152.922 157.39C153.406 157.313 153.862 157.295 154.29 157.338C154.724 157.359 155.121 157.489 155.482 157.726C155.85 157.943 156.168 158.293 156.437 158.775C156.766 159.365 156.907 159.963 156.859 160.57C156.804 161.163 156.562 161.738 156.134 162.293C155.719 162.841 155.116 163.336 154.326 163.777C153.602 164.181 152.937 164.438 152.331 164.548C151.738 164.651 151.188 164.659 150.683 164.572C150.191 164.478 149.765 164.329 149.405 164.125C149.051 163.901 148.759 163.66 148.527 163.403C148.309 163.138 148.161 162.904 148.083 162.701ZM152.358 146.156L154.268 145.09L162.112 159.14L160.203 160.206L152.358 146.156ZM163.748 145.07L161.258 153.078L160.625 151.849L169.73 154.887L167.298 156.245L159.021 153.51L161.075 146.563L163.748 145.07ZM172.966 156.876L172.273 156.578C172.279 156.118 172.268 155.658 172.241 155.199C172.213 154.74 172.105 154.325 171.916 153.956L170.767 154.307L169.612 152.237L172.064 150.868L172.894 152.355C173.373 153.213 173.574 154.014 173.499 154.76C173.443 155.511 173.266 156.217 172.966 156.876ZM184.02 147.172C183.149 147.658 182.235 147.879 181.278 147.833C180.32 147.787 179.417 147.492 178.568 146.946C177.725 146.38 177.019 145.588 176.45 144.57C175.881 143.551 175.581 142.541 175.549 141.54C175.51 140.524 175.715 139.601 176.165 138.77C176.607 137.925 177.284 137.249 178.195 136.74C178.986 136.299 179.717 136.066 180.39 136.042C181.062 136.018 181.68 136.165 182.244 136.483C182.808 136.801 183.326 137.241 183.799 137.804C184.284 138.359 184.729 138.998 185.133 139.722C185.432 140.258 185.683 140.864 185.886 141.542C186.089 142.22 186.192 142.909 186.197 143.61C186.201 144.31 186.036 144.974 185.7 145.601C185.357 146.214 184.797 146.738 184.02 147.172ZM183.631 145.201C184.341 144.804 184.851 144.317 185.162 143.74C185.478 143.141 185.607 142.507 185.549 141.836C185.491 141.165 185.279 140.502 184.912 139.845C184.516 139.135 184.04 138.583 183.486 138.189C182.946 137.788 182.346 137.578 181.685 137.56C181.038 137.534 180.366 137.716 179.669 138.105C178.624 138.689 178.001 139.476 177.798 140.468C177.61 141.452 177.803 142.46 178.38 143.492C178.769 144.189 179.253 144.727 179.834 145.106C180.407 145.471 181.021 145.673 181.676 145.712C182.336 145.73 182.988 145.56 183.631 145.201ZM179.862 130.8L181.792 129.723L189.636 143.773L187.867 144.76C187.662 144.488 187.42 144.148 187.141 143.742C186.874 143.328 186.655 142.967 186.483 142.659L179.862 130.8ZM197.474 139.687C196.495 140.233 195.482 140.526 194.432 140.567C193.383 140.608 192.4 140.375 191.484 139.867C190.567 139.359 189.806 138.562 189.2 137.477C188.587 136.378 188.304 135.306 188.353 134.259C188.394 133.199 188.707 132.233 189.292 131.362C189.878 130.49 190.66 129.781 191.638 129.235C192.616 128.688 193.623 128.399 194.659 128.365C195.695 128.332 196.675 128.576 197.599 129.097C198.515 129.605 199.28 130.408 199.894 131.507C200.5 132.592 200.778 133.658 200.73 134.705C200.681 135.751 200.371 136.707 199.799 137.571C199.227 138.435 198.452 139.14 197.474 139.687ZM196.542 138.018C197.145 137.682 197.626 137.237 197.986 136.685C198.351 136.112 198.542 135.478 198.559 134.783C198.581 134.068 198.383 133.335 197.964 132.584C197.537 131.82 197.014 131.26 196.393 130.904C195.785 130.54 195.142 130.363 194.462 130.373C193.796 130.376 193.161 130.546 192.558 130.883C191.955 131.219 191.471 131.674 191.105 132.248C190.733 132.807 190.535 133.445 190.513 134.161C190.49 134.876 190.696 135.623 191.13 136.4C191.549 137.15 192.062 137.707 192.67 138.071C193.283 138.414 193.929 138.581 194.609 138.57C195.281 138.546 195.926 138.362 196.542 138.018ZM214.163 130.079L212.253 131.145L206.653 121.115L208.563 120.049L214.163 130.079ZM209.716 126.365L210.073 126.957C210.157 127.139 210.256 127.426 210.37 127.819C210.49 128.192 210.575 128.628 210.626 129.127C210.689 129.619 210.678 130.134 210.593 130.674C210.521 131.207 210.331 131.717 210.024 132.205C209.716 132.693 209.248 133.113 208.618 133.464C208.189 133.704 207.713 133.89 207.19 134.024C206.681 134.15 206.16 134.178 205.628 134.106C205.095 134.034 204.581 133.82 204.083 133.465C203.579 133.096 203.121 132.544 202.709 131.807L199.096 125.334L201.025 124.257L204.414 130.327C204.759 130.944 205.122 131.374 205.504 131.617C205.899 131.854 206.319 131.944 206.763 131.89C207.207 131.835 207.657 131.681 208.113 131.426C208.81 131.037 209.299 130.544 209.581 129.947C209.869 129.33 210.012 128.705 210.011 128.073C210.002 127.427 209.904 126.858 209.716 126.365ZM222.871 125.48C222.081 125.921 221.334 126.127 220.632 126.097C219.936 126.047 219.284 125.839 218.677 125.475C218.083 125.104 217.55 124.654 217.08 124.126C216.609 123.598 216.224 123.066 215.925 122.53C215.521 121.806 215.203 121.096 214.972 120.399C214.754 119.694 214.658 119.018 214.684 118.371C214.709 117.724 214.908 117.121 215.281 116.561C215.654 116.001 216.243 115.497 217.047 115.048C217.945 114.547 218.869 114.33 219.82 114.396C220.777 114.442 221.678 114.748 222.521 115.314C223.357 115.867 224.059 116.652 224.628 117.671C225.197 118.689 225.494 119.709 225.52 120.732C225.538 121.741 225.316 122.665 224.853 123.504C224.403 124.335 223.742 124.994 222.871 125.48ZM221.397 124.115C222.04 123.756 222.521 123.294 222.839 122.73C223.162 122.145 223.312 121.516 223.289 120.844C223.271 120.151 223.067 119.456 222.678 118.759C222.102 117.727 221.339 117.037 220.389 116.689C219.452 116.333 218.467 116.443 217.436 117.019C216.739 117.408 216.225 117.889 215.894 118.46C215.576 119.025 215.439 119.646 215.484 120.324C215.529 121.002 215.749 121.696 216.146 122.406C216.512 123.063 216.966 123.592 217.506 123.993C218.06 124.387 218.668 124.61 219.33 124.662C219.998 124.694 220.687 124.511 221.397 124.115ZM211.096 113.361L217.717 125.22C217.889 125.529 218.075 125.908 218.274 126.36C218.486 126.803 218.662 127.18 218.799 127.49L217.031 128.477L209.186 114.428L211.096 113.361ZM221.765 107.404L223.695 106.327L231.539 120.377L229.609 121.454L221.765 107.404ZM240.216 111.261L242.046 110.24C242.305 110.956 242.38 111.688 242.269 112.435C242.159 113.182 241.862 113.893 241.377 114.568C240.893 115.242 240.208 115.827 239.324 116.321C238.279 116.904 237.224 117.203 236.16 117.217C235.095 117.231 234.112 116.981 233.209 116.465C232.306 115.95 231.566 115.176 230.99 114.145C230.407 113.099 230.126 112.061 230.147 111.03C230.162 109.985 230.447 109.016 231.004 108.125C231.561 107.234 232.356 106.501 233.388 105.925C234.473 105.319 235.504 105.024 236.48 105.042C237.457 105.059 238.355 105.392 239.175 106.042C240 106.671 240.728 107.627 241.356 108.911L233.135 113.501C233.539 114.066 234.019 114.501 234.576 114.806C235.146 115.103 235.754 115.247 236.399 115.238C237.058 115.221 237.716 115.03 238.372 114.663C239.109 114.252 239.632 113.74 239.941 113.128C240.25 112.517 240.342 111.894 240.216 111.261ZM234.328 107.562C233.457 108.048 232.864 108.686 232.55 109.477C232.228 110.254 232.187 111.077 232.426 111.946L238.596 108.501C238.086 107.713 237.444 107.255 236.668 107.125C235.885 106.982 235.105 107.128 234.328 107.562ZM256.535 106.685C255.744 107.126 254.998 107.332 254.296 107.302C253.599 107.251 252.948 107.044 252.34 106.68C251.746 106.309 251.214 105.859 250.743 105.331C250.272 104.803 249.887 104.271 249.588 103.735C249.184 103.011 248.867 102.301 248.636 101.603C248.418 100.899 248.322 100.223 248.347 99.5761C248.373 98.9291 248.572 98.3257 248.945 97.7659C249.318 97.2061 249.906 96.7018 250.71 96.2529C251.608 95.7516 252.533 95.5343 253.484 95.6008C254.441 95.6465 255.341 95.9524 256.185 96.5186C257.021 97.0713 257.723 97.8569 258.291 98.8753C258.86 99.8937 259.157 100.914 259.183 101.937C259.202 102.946 258.98 103.87 258.516 104.708C258.066 105.54 257.406 106.198 256.535 106.685ZM255.061 105.319C255.704 104.96 256.184 104.499 256.502 103.935C256.826 103.35 256.976 102.721 256.952 102.049C256.934 101.356 256.731 100.661 256.342 99.9639C255.766 98.9321 255.003 98.242 254.052 97.8937C253.115 97.538 252.131 97.6481 251.099 98.2242C250.402 98.6132 249.888 99.0936 249.557 99.6652C249.239 100.229 249.103 100.85 249.147 101.529C249.192 102.207 249.413 102.901 249.809 103.611C250.176 104.268 250.629 104.797 251.17 105.198C251.724 105.592 252.332 105.815 252.994 105.867C253.661 105.899 254.351 105.716 255.061 105.319ZM244.759 94.5661L251.38 106.425C251.552 106.733 251.738 107.113 251.937 107.564C252.15 108.008 252.325 108.385 252.463 108.695L250.694 109.682L242.85 95.6323L244.759 94.5661ZM268.992 95.1945L270.822 94.1733C271.081 94.8897 271.156 95.6215 271.045 96.3685C270.935 97.1155 270.638 97.8265 270.153 98.5013C269.669 99.1761 268.984 99.7604 268.1 100.254C267.055 100.838 266 101.137 264.936 101.151C263.871 101.165 262.888 100.914 261.985 100.399C261.082 99.8836 260.342 99.1101 259.766 98.0783C259.183 97.0331 258.902 95.9947 258.923 94.9631C258.938 93.9181 259.223 92.9501 259.78 92.059C260.337 91.1679 261.132 90.4343 262.164 89.8582C263.249 89.2522 264.28 88.9579 265.256 88.9752C266.233 88.9925 267.131 89.326 267.951 89.9757C268.776 90.6045 269.504 91.5607 270.132 92.8443L261.911 97.4343C262.315 97.9998 262.795 98.4348 263.352 98.7392C263.922 99.0362 264.53 99.1802 265.175 99.1714C265.834 99.1551 266.492 98.9637 267.148 98.5971C267.885 98.1856 268.408 97.6739 268.717 97.0621C269.026 96.4503 269.118 95.8277 268.992 95.1945ZM263.104 91.4952C262.233 91.9815 261.64 92.62 261.326 93.4107C261.004 94.188 260.963 95.011 261.202 95.8795L267.372 92.4343C266.862 91.6468 266.22 91.1883 265.444 91.0587C264.661 90.9158 263.881 91.0613 263.104 91.4952ZM269.112 86.2425L271.042 85.1652L276.642 95.1951L274.712 96.2724L269.112 86.2425ZM274.748 82.8319C275.311 82.5177 275.865 82.3138 276.411 82.2202C276.956 82.1266 277.479 82.1509 277.98 82.2929C278.474 82.4216 278.939 82.6717 279.375 83.0435C279.817 83.3943 280.203 83.8646 280.532 84.4542L284.179 90.9867L282.27 92.0528L278.858 85.9424C278.417 85.1518 277.893 84.6707 277.287 84.499C276.688 84.3065 275.999 84.4272 275.222 84.8612C274.619 85.1978 274.148 85.6453 273.81 86.2035C273.471 86.7617 273.272 87.3651 273.212 88.0137C273.158 88.6413 273.259 89.262 273.513 89.8756L272.876 88.7813C272.644 88.2079 272.508 87.6336 272.468 87.0582C272.441 86.4755 272.502 85.923 272.65 85.401C272.804 84.8581 273.06 84.3723 273.418 83.9438C273.769 83.5018 274.212 83.1312 274.748 82.8319ZM292.626 81.9994L294.455 80.9782C294.714 81.6947 294.789 82.4264 294.679 83.1735C294.568 83.9205 294.271 84.6314 293.786 85.3062C293.302 85.981 292.617 86.5653 291.733 87.0591C290.688 87.6427 289.633 87.9415 288.569 87.9557C287.504 87.9699 286.521 87.7193 285.618 87.204C284.715 86.6886 283.976 85.915 283.399 84.8832C282.816 83.838 282.535 82.7996 282.557 81.7681C282.571 80.7231 282.856 79.7551 283.414 78.864C283.971 77.9729 284.765 77.2393 285.797 76.6632C286.882 76.0572 287.913 75.7629 288.89 75.7802C289.866 75.7975 290.764 76.131 291.584 76.7807C292.409 77.4095 293.137 78.3657 293.766 79.6493L285.545 84.2392C285.948 84.8048 286.428 85.2398 286.985 85.5442C287.555 85.8411 288.163 85.9852 288.808 85.9764C289.467 85.9601 290.125 85.7686 290.781 85.402C291.518 84.9905 292.041 84.4789 292.35 83.8671C292.659 83.2552 292.751 82.6327 292.626 81.9994ZM286.737 78.3002C285.866 78.7865 285.274 79.425 284.959 80.2157C284.637 80.993 284.596 81.8159 284.835 82.6845L291.005 79.2392C290.495 78.4517 289.853 77.9932 289.077 77.8637C288.294 77.7208 287.514 77.8663 286.737 78.3002ZM298.81 72.3771L297.889 70.7289L302.251 68.2937L303.171 69.9419L298.81 72.3771ZM300.623 69.2027L302.533 68.1366L307.897 77.7444L305.987 78.8105L300.623 69.2027ZM299.415 82.4802L293.489 71.8674L295.455 70.9018L301.324 81.4141L299.415 82.4802ZM295.108 66.4552L300.052 63.6945L301.04 65.4633L296.296 68.1118C295.941 68.2929 295.652 68.5156 295.43 68.7799C295.201 69.0308 295.077 69.3285 295.059 69.6728C295.053 70.0097 295.186 70.4194 295.455 70.9018L293.489 71.8674C293.04 71.0634 292.814 70.3283 292.812 69.6619C292.822 68.9881 293.032 68.3877 293.441 67.8607C293.842 67.3202 294.398 66.8517 295.108 66.4552ZM292.101 73.961L298.673 70.2913L299.594 71.9395L293.021 75.6092L292.101 73.961ZM304.074 66.7222L310.566 63.0974L311.498 64.7657L305.006 68.3905L304.074 66.7222ZM304.884 62.7896L306.794 61.7235L313.875 74.4066L311.966 75.4727L304.884 62.7896ZM315.733 69.0978L317.502 68.1102C317.868 68.6088 318.357 68.9163 318.967 69.0328C319.569 69.1359 320.245 68.9779 320.996 68.559C321.478 68.2896 321.823 68.0265 322.032 67.7697C322.232 67.4995 322.33 67.2339 322.325 66.9731C322.333 66.7047 322.27 66.45 322.136 66.2088C321.964 65.9006 321.752 65.711 321.502 65.6399C321.244 65.5555 320.937 65.542 320.583 65.5994C320.22 65.6434 319.808 65.724 319.347 65.8413C318.837 65.9676 318.316 66.0737 317.784 66.1598C317.252 66.2459 316.735 66.2798 316.233 66.2615C315.744 66.2357 315.292 66.1189 314.877 65.9111C314.468 65.6824 314.125 65.3201 313.848 64.8243C313.616 64.4089 313.487 63.9717 313.459 63.5127C313.444 63.0461 313.534 62.592 313.726 62.1504C313.925 61.6879 314.215 61.2624 314.596 60.874C314.969 60.4723 315.43 60.118 315.98 59.8113C316.744 59.3848 317.465 59.1664 318.145 59.156C318.817 59.1322 319.426 59.2934 319.971 59.6396C320.529 59.9783 320.994 60.4655 321.367 61.1012L319.678 62.0439C319.27 61.5335 318.848 61.2332 318.411 61.1432C317.967 61.0398 317.45 61.1527 316.86 61.4819C316.284 61.8036 315.905 62.1644 315.724 62.5643C315.543 62.9642 315.561 63.3584 315.778 63.747C315.943 64.0418 316.184 64.2231 316.504 64.291C316.815 64.3455 317.189 64.3388 317.626 64.2708C318.063 64.2028 318.55 64.1153 319.088 64.0083C319.599 63.9163 320.094 63.8422 320.572 63.7861C321.056 63.709 321.512 63.6916 321.94 63.734C322.374 63.7554 322.772 63.885 323.133 64.1227C323.5 64.3396 323.818 64.6892 324.088 65.1716C324.417 65.7612 324.557 66.3594 324.51 66.9662C324.454 67.5596 324.212 68.134 323.784 68.6894C323.37 69.2374 322.767 69.7321 321.976 70.1735C321.253 70.5775 320.588 70.8345 319.981 70.9446C319.388 71.0473 318.839 71.0551 318.333 70.9682C317.841 70.8739 317.415 70.725 317.056 70.5215C316.702 70.2972 316.409 70.0563 316.178 69.7989C315.959 69.5341 315.811 69.3003 315.733 69.0978Z" fill="#228B22"/>
</g>
</g>
<path d="M443.542 249.591L435.919 240.918L447.241 238.653L443.542 249.591ZM328.653 119.507C358.169 116.467 420.473 137.197 442.753 240.551L440.798 240.973C418.695 138.44 357.19 118.579 328.857 121.496L328.653 119.507Z" fill="url(#paint0_linear_3791_39419)"/>
<defs>
<filter id="filter0_d_3791_39419" x="-1.91699" y="-2.70312" width="398.131" height="284.531" filterUnits="userSpaceOnUse" color-interpolation-filters="sRGB">
<feFlood flood-opacity="0" result="BackgroundImageFix"/>
<feColorMatrix in="SourceAlpha" type="matrix" values="0 0 0 0 0 0 0 0 0 0 0 0 0 0 0 0 0 0 127 0" result="hardAlpha"/>
<feOffset dy="8"/>
<feGaussianBlur stdDeviation="10"/>
<feComposite in2="hardAlpha" operator="out"/>
<feColorMatrix type="matrix" values="0 0 0 0 0 0 0 0 0 0 0 0 0 0 0 0 0 0 0.12 0"/>
<feBlend mode="normal" in2="BackgroundImageFix" result="effect1_dropShadow_3791_39419"/>
<feBlend mode="normal" in="SourceGraphic" in2="effect1_dropShadow_3791_39419" result="shape"/>
</filter>
<linearGradient id="paint0_linear_3791_39419" x1="441.534" y1="249.592" x2="343.634" y2="122.82" gradientUnits="userSpaceOnUse">
<stop stop-color="white"/>
<stop offset="1" stop-color="white" stop-opacity="0"/>
</linearGradient>
<clipPath id="clip0_3791_39419">
<rect x="18.083" y="189.061" width="368.754" height="74.1777" rx="7.67356" transform="rotate(-29.1758 18.083 189.061)" fill="white"/>
</clipPath>
</defs>
</svg>
