<svg width="31" height="30" viewBox="0 0 31 30" fill="none" xmlns="http://www.w3.org/2000/svg">
<circle cx="15.4952" cy="15.2878" r="14.6974" fill="#FFF5F0"/>
<path d="M19.2732 13.5179L14.7065 9.20717L14.6974 9.1986C14.4875 9.00654 14.2134 8.90002 13.9289 8.90002C13.6444 8.90002 13.3702 9.00654 13.1603 9.1986L13.1506 9.20717L8.58513 13.5179C8.46935 13.625 8.37692 13.7549 8.31363 13.8994C8.25033 14.0439 8.21754 14.1998 8.21729 14.3576V19.6382C8.21729 19.9412 8.33764 20.2317 8.55188 20.446C8.76612 20.6602 9.05668 20.7806 9.35966 20.7806H12.1014C12.4043 20.7806 12.6949 20.6602 12.9091 20.446C13.1234 20.2317 13.2437 19.9412 13.2437 19.6382V17.125H14.6146V19.6382C14.6146 19.9412 14.7349 20.2317 14.9492 20.446C15.1634 20.6602 15.454 20.7806 15.757 20.7806H18.4987C18.8016 20.7806 19.0922 20.6602 19.3064 20.446C19.5207 20.2317 19.641 19.9412 19.641 19.6382V14.3576C19.6408 14.1998 19.608 14.0439 19.5447 13.8994C19.4814 13.7549 19.389 13.625 19.2732 13.5179ZM18.2702 19.4097H15.9854V16.8965C15.9854 16.7465 15.9559 16.5979 15.8985 16.4593C15.8411 16.3207 15.7569 16.1948 15.6508 16.0887C15.5448 15.9826 15.4188 15.8985 15.2802 15.8411C15.1416 15.7837 14.9931 15.7541 14.8431 15.7541H13.0153C12.7123 15.7541 12.4217 15.8745 12.2075 16.0887C11.9932 16.303 11.8729 16.5935 11.8729 16.8965V19.4097H9.58814V14.4564L13.9292 10.3581L18.2702 14.4564V19.4097Z" fill="#FF823B"/>
</svg>
