<svg width="31" height="31" viewBox="0 0 31 31" fill="none" xmlns="http://www.w3.org/2000/svg">
<circle cx="15.4952" cy="15.6825" r="14.6974" fill="#FFFBF0"/>
<g clip-path="url(#clip0_3231_34873)">
<path fill-rule="evenodd" clip-rule="evenodd" d="M12.6745 9.22293C12.1932 9.22293 11.8633 9.22293 11.5688 9.30285C11.2641 9.38648 10.9804 9.53327 10.7361 9.73369C10.4918 9.93411 10.2923 10.1837 10.1507 10.4662C10.0143 10.7378 9.95005 11.0617 9.85571 11.534L9.48316 13.3955C9.41718 13.7219 9.42355 14.0587 9.50183 14.3823C9.58011 14.7059 9.72839 15.0084 9.93623 15.2685V16.9179C9.93623 18.0224 9.93623 18.8973 10.0282 19.5817C10.1231 20.2859 10.3226 20.8562 10.7721 21.3062C11.2215 21.7557 11.7918 21.9552 12.4966 22.0502C13.181 22.1421 14.0559 22.1421 15.1598 22.1421H15.8286C16.933 22.1421 17.8079 22.1421 18.4923 22.0502C19.1966 21.9552 19.7668 21.7557 20.2169 21.3062C20.6663 20.8562 20.8658 20.2859 20.9608 19.5817C21.0527 18.8967 21.0527 18.0224 21.0527 16.9179V15.2691C21.2605 15.0089 21.4088 14.7062 21.4869 14.3825C21.5651 14.0588 21.5713 13.7219 21.5052 13.3955L21.1326 11.534C21.0389 11.0617 20.974 10.7378 20.8382 10.4662C20.6965 10.1836 20.497 9.93401 20.2526 9.73359C20.0082 9.53316 19.7243 9.38641 19.4195 9.30285C19.1257 9.22293 18.7958 9.22293 18.3139 9.22293H12.6745ZM19.2609 16.1332C19.5667 16.1337 19.8695 16.0728 20.1514 15.9541V16.8843C20.1514 18.0302 20.1502 18.8444 20.0673 19.4621C19.9861 20.066 19.8335 20.4145 19.5793 20.6687C19.3252 20.9229 18.9766 21.0755 18.3715 21.1566C18.0648 21.1947 17.7564 21.2175 17.4474 21.2251V19.5691C17.4474 19.3047 17.4474 19.0763 17.4305 18.8901C17.4125 18.6918 17.3729 18.4959 17.2659 18.3114C17.1474 18.1058 16.9768 17.9351 16.7714 17.8163C16.5869 17.7099 16.391 17.6703 16.1927 17.6522C16.0064 17.6354 15.7781 17.6354 15.5137 17.6354H15.4746C15.2102 17.6354 14.9825 17.6354 14.7956 17.6522C14.5973 17.6703 14.4021 17.7099 14.2176 17.8163C14.0119 17.935 13.8411 18.1057 13.7224 18.3114C13.6161 18.4959 13.5764 18.6918 13.5584 18.8895C13.5416 19.0769 13.5416 19.3047 13.5416 19.5685V21.2251C13.2322 21.2176 12.9233 21.1947 12.6162 21.1566C12.0123 21.0755 11.6638 20.9229 11.4096 20.6687C11.1548 20.4145 11.0028 20.066 10.9217 19.4615C10.8382 18.8444 10.8376 18.0302 10.8376 16.8843V15.9541C11.3177 16.157 11.8528 16.1898 12.3542 16.0471C12.8555 15.9044 13.2931 15.5947 13.5945 15.1693C13.8127 15.4684 14.0987 15.7116 14.4289 15.8791C14.7591 16.0466 15.1242 16.1337 15.4945 16.1332C15.8647 16.1337 16.2299 16.0466 16.5601 15.8791C16.8903 15.7116 17.1762 15.4684 17.3945 15.1693C17.606 15.4674 17.8858 15.7105 18.2105 15.8781C18.5352 16.0458 18.8954 16.1333 19.2609 16.1332ZM14.4429 21.2396C14.6761 21.2408 14.926 21.2408 15.194 21.2408H15.7949C16.0629 21.2408 16.3123 21.2408 16.546 21.2396V19.5883C16.546 19.2993 16.5454 19.1124 16.5328 18.9712C16.5208 18.836 16.4998 18.7867 16.4853 18.7621C16.4458 18.6937 16.3891 18.6369 16.3207 18.5974C16.2961 18.583 16.2468 18.5626 16.1116 18.55C15.9061 18.5373 15.7003 18.5329 15.4945 18.5367C15.2054 18.5367 15.0186 18.5367 14.8774 18.55C14.7416 18.562 14.6929 18.583 14.6682 18.5974C14.5997 18.6369 14.5427 18.6936 14.503 18.7621C14.4892 18.7861 14.4681 18.836 14.4561 18.9712C14.4435 19.1124 14.4429 19.2993 14.4429 19.5883V21.2396ZM13.4935 10.1243H12.7412C12.1679 10.1243 11.969 10.1285 11.808 10.1723C11.6252 10.2225 11.455 10.3105 11.3084 10.4307C11.1618 10.5509 11.0421 10.7005 10.9571 10.87C10.882 11.0196 10.8394 11.2131 10.727 11.7755L10.3677 13.5722C10.3294 13.757 10.3292 13.9478 10.3671 14.1327C10.4051 14.3176 10.4803 14.4929 10.5883 14.6477C10.6963 14.8026 10.8347 14.9338 10.9952 15.0333C11.1556 15.1328 11.3346 15.1986 11.5213 15.2265C11.708 15.2545 11.8985 15.244 12.081 15.1959C12.2636 15.1477 12.4344 15.0628 12.583 14.9464C12.7316 14.8299 12.8549 14.6844 12.9453 14.5187C13.0357 14.353 13.0914 14.1706 13.1089 13.9826L13.1504 13.5704L13.1528 13.5451L13.4947 10.1243H13.4935ZM14.0469 13.6545L14.4002 10.1243H16.5887L16.9396 13.6347C16.9593 13.8355 16.9369 14.0383 16.8738 14.23C16.8107 14.4217 16.7084 14.5982 16.5733 14.7482C16.4383 14.8981 16.2734 15.0183 16.0894 15.101C15.9053 15.1837 15.7059 15.2271 15.5041 15.2285C15.3023 15.2299 15.1024 15.1892 14.9172 15.109C14.732 15.0288 14.5655 14.911 14.4284 14.7629C14.2913 14.6148 14.1866 14.4397 14.1209 14.2489C14.0552 14.058 14.03 13.8556 14.0469 13.6545ZM19.1809 10.1723C19.0199 10.1285 18.821 10.1243 18.2478 10.1243H17.4942L17.8806 13.982C17.8987 14.1694 17.9548 14.3512 18.0454 14.5163C18.136 14.6813 18.2592 14.8262 18.4076 14.9422C18.556 15.0581 18.7265 15.1425 18.9086 15.1905C19.0907 15.2384 19.2806 15.2487 19.4668 15.2209C19.6531 15.193 19.8317 15.1276 19.9918 15.0285C20.1519 14.9294 20.2902 14.7988 20.3982 14.6445C20.5062 14.4903 20.5817 14.3156 20.62 14.1313C20.6584 13.9469 20.6588 13.7567 20.6213 13.5722L20.2625 11.7755C20.1496 11.2131 20.1069 11.0196 20.0324 10.87C19.9473 10.7005 19.8276 10.5508 19.6809 10.4306C19.5342 10.3104 19.3639 10.2224 19.1809 10.1723Z" fill="#FFBD00" stroke="#FFBD00" stroke-width="0.232614"/>
</g>
<defs>
<clipPath id="clip0_3231_34873">
<rect width="14.4214" height="14.4214" fill="white" transform="translate(8.28418 8.47183)"/>
</clipPath>
</defs>
</svg>
