<svg width="107" height="190" viewBox="0 0 107 190" fill="none" xmlns="http://www.w3.org/2000/svg">
<circle cx="53.5945" cy="53.1565" r="52.658" fill="#F9F9F9"/>
<path d="M54.3936 37.6034L53.8314 37.774L31.3808 45.2959L26.2764 46.9788L29.2488 47.9307V63.6462C28.1766 64.2694 27.4528 65.4063 27.4528 66.7354C27.4528 67.6881 27.8312 68.6018 28.5049 69.2754C29.1785 69.9491 30.0922 70.3275 31.0449 70.3275C31.9976 70.3275 32.9112 69.9491 33.5849 69.2754C34.2586 68.6018 34.637 67.6881 34.637 66.7354C34.637 65.4063 33.9132 64.2694 32.8409 63.6462V49.17L36.4331 50.3464V59.5512C36.4331 61.024 37.3311 62.2453 38.3979 63.0894C39.4648 63.9282 40.7903 64.5209 42.3816 65.0525C45.5678 66.1122 49.767 66.7354 54.3936 66.7354C59.0202 66.7354 63.2194 66.114 66.4056 65.0507C67.9969 64.5209 69.3224 63.9282 70.3893 63.0876C71.4561 62.2453 72.3542 61.024 72.3542 59.5512V50.3464L77.4065 48.6617L82.5109 46.9788L77.4047 45.2941L54.954 37.774L54.3936 37.6034ZM54.3936 41.3661L71.2316 46.9788L54.3936 52.5915L37.5556 46.9788L54.3936 41.3661ZM40.0252 51.5821L53.8332 56.1836L54.3936 56.3524L54.9558 56.1818L68.7621 51.5803V59.5512C68.7621 59.5691 68.7692 59.7775 68.1999 60.2247C67.6323 60.6737 66.614 61.2395 65.2813 61.6849C62.6195 62.5704 58.6952 63.1433 54.3936 63.1433C50.0921 63.1433 46.1677 62.5722 43.5041 61.6831C42.175 61.2395 41.1549 60.6719 40.5873 60.2247C40.0162 59.7757 40.0252 59.5691 40.0252 59.5512V51.5821Z" fill="#23A323"/>
</svg>
