<svg width="107" height="190" viewBox="0 0 107 190" fill="none" xmlns="http://www.w3.org/2000/svg">
<circle cx="53.4685" cy="53.1565" r="52.658" fill="#F9F9F9"/>
<path d="M31.2334 53.1751C31.2334 44.7018 31.2334 40.4641 33.8668 37.8329C36.498 35.1995 40.7358 35.1995 49.209 35.1995H58.1968C66.6701 35.1995 70.9079 35.1995 73.5391 37.8329C76.1725 40.4641 76.1725 44.7018 76.1725 53.1751C76.1725 61.6484 76.1725 65.8861 73.5391 68.5173C70.9079 71.1507 66.6701 71.1507 58.1968 71.1507H49.209C40.7358 71.1507 36.498 71.1507 33.8668 68.5173C31.2334 65.8861 31.2334 61.6484 31.2334 53.1751Z" stroke="#228B22" stroke-width="3.37043"/>
<path d="M49.209 62.1626H40.2212M58.1968 62.1626H54.8264M31.2334 48.6809H76.1725" stroke="#228B22" stroke-width="3.37043" stroke-linecap="round"/>
</svg>
