<svg width="107" height="190" viewBox="0 0 107 190" fill="none" xmlns="http://www.w3.org/2000/svg">
<circle cx="53.5633" cy="136.888" r="52.658" fill="#F9F9F9"/>
<path d="M40.0738 147.916L34.1906 144.68C33.7592 144.445 33.5145 144.102 33.4564 143.652C33.3984 143.202 33.5254 142.819 33.8376 142.503L34.5436 141.797C34.7005 141.641 34.8872 141.532 35.1037 141.473C35.3202 141.413 35.5257 141.404 35.7202 141.444L40.8974 142.15L50.0752 132.973L34.073 124.266C33.4846 123.952 33.1419 123.462 33.0446 122.795C32.9473 122.128 33.1332 121.559 33.6023 121.089L34.1906 120.5C34.4652 120.226 34.7695 120.049 35.1037 119.971C35.4379 119.893 35.7806 119.893 36.1321 119.971L57.4879 125.442L66.6656 116.382C67.3324 115.715 68.1561 115.382 69.1366 115.382C70.1171 115.382 70.9407 115.715 71.6075 116.382C72.2743 117.049 72.6076 117.873 72.6076 118.853C72.6076 119.834 72.2743 120.657 71.6075 121.324L62.5474 130.502L68.0188 151.74C68.0972 152.132 68.087 152.515 67.9882 152.888C67.8893 153.262 67.7034 153.585 67.4305 153.858L67.1363 154.152C66.5872 154.701 65.9495 154.917 65.2231 154.799C64.4967 154.682 63.9578 154.289 63.6064 153.623L55.017 137.915L45.8393 147.092L46.5453 152.152C46.5845 152.426 46.5649 152.681 46.4864 152.917C46.408 153.152 46.2707 153.368 46.0746 153.564L45.7804 153.858C45.3882 154.25 44.9176 154.416 44.3685 154.357C43.8194 154.297 43.4076 154.013 43.133 153.505L40.0738 147.916Z" fill="#FFBD00"/>
</svg>
