<svg width="107" height="190" viewBox="0 0 107 190" fill="none" xmlns="http://www.w3.org/2000/svg">
<circle cx="53.3748" cy="136.887" r="52.658" fill="#F9F9F9"/>
<path d="M35.5871 126.72H30.5068V152.121H76.229V126.72H72.4188M62.2583 124.18C63.2524 124.755 64.1038 125.547 64.7487 126.497C65.3937 127.447 65.8156 128.531 65.9828 129.667C66.1501 130.803 66.0584 131.962 65.7147 133.058C65.371 134.153 64.784 135.157 63.9978 135.994C63.2115 136.831 62.2463 137.48 61.1742 137.891C60.1021 138.302 58.9509 138.466 57.8065 138.37C56.6622 138.274 55.5544 137.921 54.5658 137.337C53.5773 136.752 52.7336 135.952 52.0979 134.996M55.908 121.64C55.908 123.661 55.1052 125.599 53.6761 127.028C52.247 128.457 50.3087 129.26 48.2877 129.26C46.2666 129.26 44.3284 128.457 42.8993 127.028C41.4702 125.599 40.6673 123.661 40.6673 121.64C40.6673 119.619 41.4702 117.68 42.8993 116.251C44.3284 114.822 46.2666 114.019 48.2877 114.019C50.3087 114.019 52.247 114.822 53.6761 116.251C55.1052 117.68 55.908 119.619 55.908 121.64Z" stroke="#FF823B" stroke-width="5.08024" stroke-linecap="round" stroke-linejoin="round"/>
</svg>
