<svg width="107" height="190" viewBox="0 0 107 190" fill="none" xmlns="http://www.w3.org/2000/svg">
<circle cx="53.406" cy="53.1565" r="52.658" fill="#F9F9F9"/>
<path d="M36.5949 71.8686C35.4457 71.8686 34.4616 71.4591 33.6425 70.64C32.8235 69.8209 32.4146 68.8375 32.416 67.6897V44.7057C32.416 43.5565 32.8256 42.5723 33.6446 41.7533C34.4637 40.9342 35.4471 40.5254 36.5949 40.5268H44.9528V36.3479C44.9528 35.1987 45.3623 34.2145 46.1814 33.3955C47.0004 32.5764 47.9839 32.1676 49.1317 32.1689H57.4895C58.6387 32.1689 59.6228 32.5785 60.4419 33.3975C61.261 34.2166 61.6698 35.2001 61.6684 36.3479V40.5268H70.0262C71.1754 40.5268 72.1596 40.9363 72.9786 41.7554C73.7977 42.5744 74.2065 43.5579 74.2051 44.7057V67.6897C74.2051 68.8389 73.7956 69.823 72.9765 70.6421C72.1575 71.4612 71.174 71.87 70.0262 71.8686H36.5949ZM49.1317 40.5268H57.4895V36.3479H49.1317V40.5268ZM70.0262 59.3319H59.5789V63.5108H47.0422V59.3319H36.5949V67.6897H70.0262V59.3319ZM51.2211 59.3319H55.4V55.153H51.2211V59.3319ZM36.5949 55.153H47.0422V50.974H59.5789V55.153H70.0262V44.7057H36.5949V55.153Z" fill="#2D79FD"/>
</svg>
