<svg width="107" height="190" viewBox="0 0 107 190" fill="none" xmlns="http://www.w3.org/2000/svg">
<circle cx="53.6258" cy="136.887" r="52.658" fill="#F9F9F9"/>
<g clip-path="url(#clip0_19810_78348)">
<path d="M51.7976 134.238C55.3937 134.238 58.1906 131.308 58.1906 127.712C58.1906 124.116 55.2605 121.319 51.6645 121.319C48.0684 121.319 45.2715 124.249 45.2715 127.712C45.2715 131.308 48.2016 134.238 51.7976 134.238ZM51.6645 123.983C51.7976 123.983 51.7976 123.983 51.6645 123.983C53.7954 123.983 55.5269 125.715 55.5269 127.845C55.5269 129.976 53.7954 131.575 51.6645 131.575C49.5335 131.575 47.9352 129.843 47.9352 127.845C47.9352 125.715 49.6667 123.983 51.6645 123.983Z" fill="#2D79FD"/>
<path d="M51.6645 123.983C51.7976 123.983 51.7976 123.983 51.6645 123.983ZM51.6645 123.983C53.7954 123.983 55.5269 125.715 55.5269 127.845C55.5269 129.976 53.7954 131.575 51.6645 131.575C49.5335 131.575 47.9352 129.843 47.9352 127.845C47.9352 125.715 49.6667 123.983 51.6645 123.983ZM51.7976 134.238C55.3937 134.238 58.1906 131.308 58.1906 127.712C58.1906 124.116 55.2605 121.319 51.6645 121.319C48.0684 121.319 45.2715 124.249 45.2715 127.712C45.2715 131.308 48.2016 134.238 51.7976 134.238Z" stroke="#2D79FD" stroke-width="0.716563"/>
<path d="M71.5121 133.443C68.9815 131.179 65.6518 129.981 62.189 130.114H61.1235C60.8571 131.179 60.4576 132.112 59.9248 132.911C60.7239 132.778 61.3899 132.778 62.189 132.778C64.7195 132.644 67.2501 133.443 69.2479 134.909V144.498H71.9116V133.843L71.5121 133.443Z" fill="#2D79FD" stroke="#2D79FD" stroke-width="0.716563"/>
<path d="M59.1205 121.588C59.7864 119.99 61.651 119.191 63.3825 119.857C64.9807 120.523 65.7798 122.387 65.1139 124.119C64.5811 125.318 63.3825 126.117 62.1838 126.117C61.9174 126.117 61.5178 126.117 61.2515 125.983C61.3847 126.649 61.3847 127.315 61.3847 127.848V128.647C61.651 128.647 61.9174 128.78 62.1838 128.78C65.5134 128.78 68.1772 126.117 68.1772 122.92C68.1772 119.59 65.5134 116.927 62.317 116.927C60.186 116.927 58.3214 117.992 57.2559 119.857C57.9218 120.256 58.5877 120.789 59.1205 121.588Z" fill="#2D79FD" stroke="#2D79FD" stroke-width="0.716563"/>
<path d="M43.939 133.042C43.4062 132.243 43.0067 131.31 42.7403 130.245H41.6748C38.2119 130.112 34.8823 131.31 32.3517 133.441L31.9521 133.841V144.496H34.6159V134.906C36.7469 133.441 39.1442 132.642 41.6748 132.775C42.4739 132.775 43.273 132.909 43.939 133.042Z" fill="#2D79FD" stroke="#2D79FD" stroke-width="0.716563"/>
<path d="M41.6731 128.645C41.9395 128.645 42.2059 128.645 42.4722 128.512V127.713C42.4722 127.047 42.4722 126.381 42.6054 125.848C42.3391 125.981 41.9395 125.981 41.6731 125.981C39.9417 125.981 38.4766 124.516 38.4766 122.785C38.4766 121.053 39.9417 119.588 41.6731 119.588C43.005 119.588 44.2037 120.387 44.7364 121.586C45.2692 120.92 46.0683 120.254 46.7342 119.721C45.0028 116.924 41.4067 115.992 38.6098 117.724C35.8129 119.455 34.8806 123.051 36.612 125.848C37.6775 127.579 39.5421 128.645 41.6731 128.645Z" fill="#2D79FD" stroke="#2D79FD" stroke-width="0.716563"/>
<path d="M62.7195 141.433L62.4531 141.034C59.7893 138.104 56.0601 136.372 52.0645 136.505C48.0689 136.372 44.2065 138.104 41.5427 141.034L41.2764 141.433V151.556C41.2764 152.754 42.2087 153.82 43.5405 153.82H60.5885C61.7872 153.82 62.8526 152.754 62.8526 151.556V141.433H62.7195ZM60.0557 151.156H43.9401V142.366C46.0711 140.235 49.0012 139.169 52.0645 139.169C54.9946 139.036 57.9247 140.235 60.0557 142.366V151.156Z" fill="#2D79FD" stroke="#2D79FD" stroke-width="0.716563"/>
</g>
<defs>
<clipPath id="clip0_19810_78348">
<rect width="47.9473" height="47.9473" fill="white" transform="translate(27.9551 111.198)"/>
</clipPath>
</defs>
</svg>
