<svg width="107" height="190" viewBox="0 0 107 190" fill="none" xmlns="http://www.w3.org/2000/svg">
<circle cx="53.532" cy="53.1565" r="52.658" fill="#F9F9F9"/>
<path d="M66.9534 48.2414C66.9534 47.6336 66.712 47.0507 66.2822 46.6209C65.8525 46.1911 65.2696 45.9497 64.6618 45.9497H38.1014L43.3722 40.7018C43.8038 40.2703 44.0462 39.685 44.0462 39.0747C44.0462 38.4644 43.8038 37.8792 43.3722 37.4476C42.9407 37.0161 42.3554 36.7737 41.7452 36.7737C41.1349 36.7737 40.5496 37.0161 40.1181 37.4476L30.9514 46.6143C30.6335 46.9365 30.418 47.3458 30.3324 47.7903C30.2468 48.2349 30.2947 48.6949 30.4702 49.1122C30.6421 49.5307 30.9341 49.8889 31.3093 50.1418C31.6844 50.3946 32.1261 50.5308 32.5785 50.533H64.6618C65.2696 50.533 65.8525 50.2916 66.2822 49.8618C66.712 49.432 66.9534 48.8491 66.9534 48.2414ZM75.9368 56.5372C75.7648 56.1187 75.4729 55.7604 75.0977 55.5076C74.7225 55.2547 74.2809 55.1186 73.8284 55.1163H41.7452C41.1374 55.1163 40.5545 55.3578 40.1247 55.7876C39.6949 56.2173 39.4535 56.8002 39.4535 57.408C39.4535 58.0158 39.6949 58.5987 40.1247 59.0285C40.5545 59.4582 41.1374 59.6997 41.7452 59.6997H68.3055L63.0347 64.9476C62.8199 65.1606 62.6494 65.4141 62.5331 65.6933C62.4167 65.9726 62.3568 66.2721 62.3568 66.5746C62.3568 66.8772 62.4167 67.1767 62.5331 67.456C62.6494 67.7352 62.8199 67.9887 63.0347 68.2017C63.2477 68.4165 63.5012 68.587 63.7805 68.7034C64.0597 68.8197 64.3593 68.8796 64.6618 68.8796C64.9643 68.8796 65.2638 68.8197 65.5431 68.7034C65.8224 68.587 66.0758 68.4165 66.2889 68.2017L75.4555 59.0351C75.7735 58.7128 75.9889 58.3036 76.0746 57.859C76.1602 57.4145 76.1123 56.9545 75.9368 56.5372Z" fill="#FF823B"/>
</svg>
