<svg width="106" height="190" viewBox="0 0 106 190" fill="none" xmlns="http://www.w3.org/2000/svg">
<circle cx="53.3396" cy="53.1565" r="52.658" fill="#F9F9F9"/>
<path d="M51.7767 43.437C50.0822 43.437 48.4257 43.9395 47.0168 44.8809C45.6079 45.8223 44.5098 47.1603 43.8613 48.7258C43.2129 50.2913 43.0432 52.014 43.3738 53.6759C43.7044 55.3378 44.5203 56.8644 45.7185 58.0626C46.9167 59.2608 48.4433 60.0767 50.1052 60.4073C51.7671 60.7379 53.4898 60.5682 55.0553 59.9198C56.6208 59.2713 57.9588 58.1732 58.9003 56.7643C59.8417 55.3554 60.3441 53.699 60.3441 52.0045C60.3441 49.7322 59.4415 47.5531 57.8348 45.9463C56.2281 44.3396 54.0489 43.437 51.7767 43.437ZM51.7767 57.145C50.76 57.145 49.7661 56.8435 48.9208 56.2786C48.0754 55.7138 47.4165 54.9109 47.0275 53.9716C46.6384 53.0323 46.5366 51.9988 46.7349 51.0016C46.9333 50.0045 47.4229 49.0885 48.1418 48.3696C48.8607 47.6507 49.7766 47.1611 50.7738 46.9628C51.771 46.7644 52.8045 46.8662 53.7438 47.2553C54.6831 47.6443 55.486 48.3032 56.0508 49.1486C56.6157 49.9939 56.9171 50.9878 56.9171 52.0045C56.9171 53.3678 56.3756 54.6753 55.4115 55.6393C54.4475 56.6034 53.14 57.145 51.7767 57.145ZM75.7656 36.583H27.7877C27.3333 36.583 26.8974 36.7635 26.5761 37.0849C26.2547 37.4062 26.0742 37.8421 26.0742 38.2965V65.7124C26.0742 66.1669 26.2547 66.6027 26.5761 66.9241C26.8974 67.2454 27.3333 67.4259 27.7877 67.4259H75.7656C76.22 67.4259 76.6559 67.2454 76.9772 66.9241C77.2986 66.6027 77.4791 66.1669 77.4791 65.7124V38.2965C77.4791 37.8421 77.2986 37.4062 76.9772 37.0849C76.6559 36.7635 76.22 36.583 75.7656 36.583ZM65.838 63.9989H37.7153C37.14 62.0533 36.087 60.2825 34.6524 58.8478C33.2177 57.4131 31.4469 56.3602 29.5012 55.7849V48.2241C31.4469 47.6488 33.2177 46.5958 34.6524 45.1612C36.087 43.7265 37.14 41.9557 37.7153 40.01H65.838C66.4133 41.9557 67.4663 43.7265 68.9009 45.1612C70.3356 46.5958 72.1064 47.6488 74.0521 48.2241V55.7849C72.1064 56.3602 70.3356 57.4131 68.9009 58.8478C67.4663 60.2825 66.4133 62.0533 65.838 63.9989ZM74.0521 44.5872C71.9968 43.7034 70.3587 42.0653 69.4749 40.01H74.0521V44.5872ZM34.0784 40.01C33.1946 42.0653 31.5565 43.7034 29.5012 44.5872V40.01H34.0784ZM29.5012 59.4218C31.5565 60.3055 33.1946 61.9437 34.0784 63.9989H29.5012V59.4218ZM69.4749 63.9989C70.3587 61.9437 71.9968 60.3055 74.0521 59.4218V63.9989H69.4749Z" fill="#23A323"/>
</svg>
