<svg width="107" height="190" viewBox="0 0 107 190" fill="none" xmlns="http://www.w3.org/2000/svg">
<circle cx="53.4998" cy="136.887" r="52.658" fill="#F9F9F9"/>
<path fill-rule="evenodd" clip-rule="evenodd" d="M43.5504 114.323C41.8819 114.323 40.7384 114.323 39.7177 114.6C38.6614 114.89 37.6778 115.399 36.8309 116.094C35.984 116.788 35.2927 117.653 34.8018 118.633C34.329 119.574 34.1061 120.697 33.7791 122.334L32.4876 128.787C32.2589 129.919 32.281 131.086 32.5524 132.208C32.8237 133.33 33.3377 134.378 34.0582 135.28V140.998C34.0582 144.826 34.0582 147.859 34.3769 150.232C34.706 152.673 35.3976 154.65 36.9557 156.21C38.5137 157.768 40.4905 158.46 42.9339 158.789C45.3064 159.107 48.3392 159.107 52.1657 159.107H54.4841C58.3126 159.107 61.3455 159.107 63.718 158.789C66.1593 158.46 68.136 157.768 69.6962 156.21C71.2543 154.65 71.9459 152.673 72.275 150.232C72.5937 147.857 72.5937 144.826 72.5937 140.998V135.282C73.3141 134.38 73.8279 133.331 74.0989 132.209C74.3699 131.087 74.3915 129.919 74.1622 128.787L72.8707 122.334C72.5457 120.697 72.3208 119.574 71.85 118.633C71.359 117.653 70.6673 116.788 69.8201 116.093C68.9728 115.398 67.9888 114.89 66.9321 114.6C65.9135 114.323 64.7699 114.323 63.0994 114.323H43.5504ZM66.3822 138.277C67.4423 138.279 68.4921 138.068 69.4692 137.657V140.881C69.4692 144.853 69.465 147.676 69.1775 149.817C68.8963 151.911 68.3673 153.119 67.4862 154C66.605 154.881 65.3969 155.41 63.2993 155.691C62.236 155.823 61.1668 155.903 60.0957 155.929V150.188C60.0957 149.272 60.0957 148.48 60.0374 147.834C59.9749 147.147 59.8374 146.468 59.4666 145.828C59.0557 145.116 58.4645 144.524 57.7523 144.112C57.1128 143.743 56.4338 143.606 55.7464 143.543C55.1006 143.485 54.3091 143.485 53.3926 143.485H53.2572C52.3407 143.485 51.5512 143.485 50.9034 143.543C50.216 143.606 49.539 143.743 48.8996 144.112C48.1866 144.523 47.5946 145.115 47.1832 145.828C46.8145 146.468 46.677 147.147 46.6145 147.832C46.5562 148.482 46.5562 149.272 46.5562 150.186V155.929C45.4837 155.903 44.4131 155.823 43.3484 155.691C41.255 155.41 40.0468 154.881 39.1657 154C38.2825 153.119 37.7555 151.911 37.4743 149.815C37.1848 147.676 37.1827 144.853 37.1827 140.881V137.657C38.8472 138.36 40.702 138.474 42.44 137.979C44.178 137.484 45.6949 136.411 46.7395 134.936C47.4962 135.973 48.4873 136.816 49.632 137.397C50.7767 137.977 52.0424 138.279 53.3259 138.277C54.6095 138.279 55.8752 137.977 57.0199 137.397C58.1645 136.816 59.1557 135.973 59.9124 134.936C60.6455 135.97 61.6155 136.812 62.7411 137.393C63.8668 137.975 65.1153 138.278 66.3822 138.277ZM49.6807 155.979C50.4889 155.983 51.3554 155.983 52.2844 155.983H54.3674C55.2965 155.983 56.1609 155.983 56.9712 155.979V150.255C56.9712 149.253 56.9691 148.605 56.9254 148.115C56.8837 147.647 56.8108 147.476 56.7608 147.391C56.6238 147.154 56.427 146.957 56.1901 146.82C56.1047 146.77 55.9338 146.699 55.4652 146.655C54.753 146.611 54.0393 146.596 53.3259 146.609C52.324 146.609 51.6762 146.609 51.1867 146.655C50.7159 146.697 50.5472 146.77 50.4618 146.82C50.2241 146.957 50.0265 147.153 49.889 147.391C49.8411 147.474 49.7682 147.647 49.7265 148.115C49.6828 148.605 49.6807 149.253 49.6807 150.255V155.979ZM46.3896 117.447H43.7816C41.7945 117.447 41.105 117.462 40.5467 117.614C39.913 117.788 39.323 118.093 38.8148 118.51C38.3067 118.926 37.8919 119.445 37.5972 120.032C37.3368 120.551 37.189 121.222 36.7994 123.172L35.5538 129.4C35.421 130.041 35.4204 130.702 35.5519 131.343C35.6834 131.984 35.9443 132.591 36.3187 133.128C36.693 133.665 37.1729 134.12 37.729 134.465C38.2852 134.81 38.9058 135.038 39.553 135.135C40.2002 135.231 40.8604 135.195 41.4932 135.028C42.126 134.861 42.718 134.567 43.2332 134.163C43.7483 133.76 44.1757 133.255 44.4892 132.681C44.8027 132.106 44.9957 131.474 45.0564 130.822L45.2002 129.393L45.2085 129.306L46.3937 117.447H46.3896ZM48.308 129.685L49.5328 117.447H57.1191L58.3355 129.616C58.4037 130.313 58.326 131.016 58.1074 131.68C57.8888 132.345 57.5341 132.956 57.0659 133.476C56.5977 133.996 56.0263 134.413 55.3881 134.699C54.7499 134.986 54.059 135.137 53.3594 135.141C52.6598 135.146 51.9669 135.005 51.3249 134.727C50.6828 134.449 50.1057 134.041 49.6305 133.527C49.1552 133.014 48.7921 132.407 48.5644 131.746C48.3367 131.084 48.2494 130.382 48.308 129.685ZM66.1051 117.614C65.5469 117.462 64.8574 117.447 62.8702 117.447H60.2582L61.5975 130.82C61.6602 131.47 61.8545 132.1 62.1686 132.672C62.4827 133.245 62.9099 133.747 63.4244 134.149C63.9388 134.551 64.5296 134.843 65.1609 135.01C65.7922 135.176 66.4506 135.212 67.0962 135.115C67.7418 135.018 68.3609 134.792 68.916 134.448C69.471 134.105 69.9503 133.652 70.3247 133.117C70.6991 132.582 70.9608 131.977 71.0937 131.338C71.2267 130.699 71.2282 130.039 71.0981 129.4L69.8545 123.172C69.4629 121.222 69.315 120.551 69.0567 120.032C68.7619 119.445 68.3467 118.926 67.8382 118.509C67.3297 118.093 66.7392 117.788 66.1051 117.614Z" fill="#2D79FD" stroke="#2D79FD" stroke-width="0.80636"/>
</svg>
