<svg width="107" height="190" viewBox="0 0 107 190" fill="none" xmlns="http://www.w3.org/2000/svg">
<circle cx="53.4363" cy="136.888" r="52.658" fill="#F9F9F9"/>
<g clip-path="url(#clip0_19810_78367)">
<path d="M51.292 135.149H55.8957V138.218H51.292V135.149Z" fill="#FFBD00"/>
<path d="M68.8617 130.806C66.1401 126.352 62.4273 122.587 58.0124 119.803C55.9728 118.51 53.6478 117.737 51.2404 117.549C48.833 117.362 46.4163 117.767 44.2014 118.729C42.264 119.643 40.5782 121.014 39.2895 122.725C38.0009 124.437 37.1481 126.436 36.8048 128.55C36.6821 129.271 36.59 129.962 36.4979 130.637C35.0612 130.87 33.7539 131.606 32.8095 132.713C31.8651 133.821 31.3449 135.228 31.3418 136.683V146.09C31.3418 146.904 31.6651 147.685 32.2407 148.26C32.8163 148.836 33.5969 149.159 34.4109 149.159V136.683C34.4109 135.869 34.7343 135.089 35.3098 134.513C35.8854 133.937 36.666 133.614 37.48 133.614H66.2223C69.1799 133.618 72.0151 134.795 74.1065 136.886C76.1978 138.977 77.3745 141.813 77.3785 144.77V145.891H74.3094C73.6613 144.31 72.454 143.024 70.9179 142.277C69.3817 141.53 67.6243 141.374 65.981 141.84C64.3376 142.306 62.9234 143.361 62.0082 144.803C61.093 146.246 60.7408 147.974 61.0189 149.66C61.297 151.345 62.1858 152.869 63.5159 153.941C64.8459 155.013 66.524 155.557 68.23 155.471C69.9359 155.384 71.5503 154.672 72.765 153.472C73.9797 152.271 74.7098 150.664 74.8158 148.96H77.3785C78.1925 148.96 78.9731 148.636 79.5487 148.061C80.1243 147.485 80.4476 146.705 80.4476 145.891V144.77C80.4415 141.459 79.2813 138.253 77.1667 135.704C75.0521 133.155 72.1154 131.423 68.8617 130.806ZM45.1528 130.545H38.9072C38.9072 130.069 39.0453 129.578 39.1373 129.01C39.4025 127.325 40.0944 125.735 41.1473 124.392C42.2001 123.049 43.579 121.997 45.1528 121.338V130.545ZM48.2219 130.545V120.693C51.0869 120.321 53.9924 120.95 56.4472 122.473C59.7982 124.56 62.6905 127.307 64.9486 130.545H48.2219ZM67.8643 152.612C67.1055 152.612 66.3638 152.387 65.7329 151.965C65.102 151.544 64.6103 150.945 64.3199 150.244C64.0295 149.543 63.9536 148.771 64.1016 148.027C64.2496 147.283 64.615 146.599 65.1515 146.063C65.6881 145.526 66.3716 145.161 67.1158 145.013C67.86 144.865 68.6314 144.941 69.3324 145.231C70.0334 145.521 70.6326 146.013 71.0541 146.644C71.4757 147.275 71.7007 148.017 71.7007 148.775C71.7007 149.793 71.2965 150.769 70.577 151.488C69.8575 152.208 68.8817 152.612 67.8643 152.612Z" fill="#FFBD00"/>
<path d="M50.0151 145.888C49.367 144.307 48.1597 143.021 46.6236 142.274C45.0875 141.527 43.33 141.371 41.6867 141.837C40.0434 142.304 38.6292 143.358 37.7139 144.801C36.7987 146.243 36.4465 147.972 36.7246 149.657C37.0027 151.342 37.8916 152.866 39.2216 153.938C40.5517 155.01 42.2298 155.554 43.9357 155.468C45.6417 155.381 47.256 154.67 48.4708 153.469C49.6855 152.268 50.4155 150.662 50.5215 148.957H58.6547V148.573C58.6243 147.668 58.7278 146.763 58.9616 145.888H50.0151ZM43.616 152.609C42.8573 152.609 42.1155 152.384 41.4846 151.963C40.8538 151.541 40.362 150.942 40.0717 150.241C39.7813 149.54 39.7053 148.768 39.8534 148.024C40.0014 147.28 40.3668 146.596 40.9033 146.06C41.4398 145.523 42.1234 145.158 42.8676 145.01C43.6118 144.862 44.3831 144.938 45.0842 145.228C45.7852 145.519 46.3843 146.01 46.8059 146.641C47.2274 147.272 47.4524 148.014 47.4524 148.773C47.4524 149.79 47.0482 150.766 46.3288 151.485C45.6093 152.205 44.6335 152.609 43.616 152.609Z" fill="#FFBD00"/>
</g>
<defs>
<clipPath id="clip0_19810_78367">
<rect width="55.2441" height="55.2441" fill="white" transform="translate(28.2686 109.059)"/>
</clipPath>
</defs>
</svg>
