<svg width="106" height="190" viewBox="0 0 106 190" fill="none" xmlns="http://www.w3.org/2000/svg">
<circle cx="52.658" cy="53.1565" r="52.658" fill="#F9F9F9"/>
<path d="M70.6005 47.6115L55.0446 32.9273L55.0135 32.8981C54.2986 32.2438 53.3646 31.881 52.3955 31.881C51.4265 31.881 50.4925 32.2438 49.7776 32.8981L49.7445 32.9273L34.1925 47.6115C33.7981 47.9764 33.4832 48.4187 33.2676 48.9109C33.052 49.403 32.9403 49.9344 32.9395 50.4717V68.4597C32.9395 69.4918 33.3494 70.4816 34.0792 71.2114C34.809 71.9412 35.7988 72.3511 36.8309 72.3511H46.1703C47.2023 72.3511 48.1921 71.9412 48.9219 71.2114C49.6517 70.4816 50.0617 69.4918 50.0617 68.4597V59.8986H54.7314V68.4597C54.7314 69.4918 55.1413 70.4816 55.8711 71.2114C56.6009 71.9412 57.5907 72.3511 58.6228 72.3511H67.9622C68.9942 72.3511 69.984 71.9412 70.7138 71.2114C71.4436 70.4816 71.8536 69.4918 71.8536 68.4597V50.4717C71.8527 49.9344 71.741 49.403 71.5254 48.9109C71.3098 48.4187 70.9949 47.9764 70.6005 47.6115ZM67.1839 67.6815H59.4011V59.1203C59.4011 58.6093 59.3004 58.1033 59.1048 57.6312C58.9093 57.159 58.6226 56.7301 58.2613 56.3687C57.8999 56.0074 57.4709 55.7207 56.9988 55.5252C56.5267 55.3296 56.0207 55.2289 55.5096 55.2289H49.2834C48.2513 55.2289 47.2615 55.6389 46.5317 56.3687C45.802 57.0985 45.392 58.0883 45.392 59.1203V67.6815H37.6091V50.8083L52.3965 36.8479L67.1839 50.8083V67.6815Z" fill="#FF823B"/>
</svg>
