<svg width="882" height="238" viewBox="0 0 882 238" fill="none" xmlns="http://www.w3.org/2000/svg">
<path d="M401.366 184.272L28.5156 205.995L30.0969 32L401.366 75.1877V184.272Z" fill="url(#paint0_radial_3930_41734)"/>
<path d="M30.0966 32L0 56.575L18.2239 222.327L28.5153 205.995L30.0966 32Z" fill="url(#paint1_radial_3930_41734)"/>
<path d="M18.2266 222.328L400.021 176.004L28.518 205.997L18.2266 222.328Z" fill="url(#paint2_radial_3930_41734)"/>
<path d="M846.987 237.556L431 180.059V66.4646L846.961 13.7891L846.987 237.556Z" fill="url(#paint3_radial_3930_41734)"/>
<path d="M846.987 237.558L881.257 195.485L863.552 0L846.961 13.791L846.987 237.558Z" fill="url(#paint4_radial_3930_41734)"/>
<path d="M431 66.4666L437.273 61.4894L863.551 0L846.961 13.791L431 66.4666Z" fill="url(#paint5_radial_3930_41734)"/>
<path d="M496.34 121.77V118.44H509.18V121.77H496.34ZM491.51 126L500.63 106.59H504.95L514.16 126H509.81L501.83 108.51H503.75L495.83 126H491.51ZM515.872 121.05H519.472C519.692 121.73 520.142 122.29 520.822 122.73C521.522 123.15 522.432 123.36 523.552 123.36C524.312 123.36 524.902 123.29 525.322 123.15C525.742 123.01 526.032 122.81 526.192 122.55C526.352 122.27 526.432 121.96 526.432 121.62C526.432 121.2 526.302 120.88 526.042 120.66C525.782 120.42 525.382 120.23 524.842 120.09C524.302 119.95 523.612 119.82 522.772 119.7C521.932 119.56 521.122 119.39 520.342 119.19C519.562 118.99 518.872 118.73 518.272 118.41C517.672 118.07 517.192 117.65 516.832 117.15C516.492 116.63 516.322 116 516.322 115.26C516.322 114.54 516.492 113.9 516.832 113.34C517.192 112.78 517.682 112.31 518.302 111.93C518.942 111.55 519.682 111.26 520.522 111.06C521.382 110.86 522.302 110.76 523.282 110.76C524.762 110.76 525.992 110.98 526.972 111.42C527.952 111.84 528.682 112.44 529.162 113.22C529.662 113.98 529.912 114.86 529.912 115.86H526.462C526.302 115.12 525.982 114.59 525.502 114.27C525.022 113.93 524.282 113.76 523.282 113.76C522.302 113.76 521.562 113.91 521.062 114.21C520.562 114.51 520.312 114.92 520.312 115.44C520.312 115.86 520.462 116.19 520.762 116.43C521.082 116.65 521.542 116.83 522.142 116.97C522.762 117.11 523.532 117.26 524.452 117.42C525.232 117.58 525.972 117.76 526.672 117.96C527.392 118.16 528.032 118.42 528.592 118.74C529.152 119.04 529.592 119.45 529.912 119.97C530.252 120.47 530.422 121.11 530.422 121.89C530.422 122.85 530.142 123.66 529.582 124.32C529.042 124.98 528.262 125.49 527.242 125.85C526.222 126.19 525.002 126.36 523.582 126.36C522.322 126.36 521.232 126.23 520.312 125.97C519.412 125.69 518.662 125.34 518.062 124.92C517.462 124.48 516.992 124.02 516.652 123.54C516.332 123.04 516.112 122.57 515.992 122.13C515.872 121.69 515.832 121.33 515.872 121.05ZM532.805 121.05H536.405C536.625 121.73 537.075 122.29 537.755 122.73C538.455 123.15 539.365 123.36 540.485 123.36C541.245 123.36 541.835 123.29 542.255 123.15C542.675 123.01 542.965 122.81 543.125 122.55C543.285 122.27 543.365 121.96 543.365 121.62C543.365 121.2 543.235 120.88 542.975 120.66C542.715 120.42 542.315 120.23 541.775 120.09C541.235 119.95 540.545 119.82 539.705 119.7C538.865 119.56 538.055 119.39 537.275 119.19C536.495 118.99 535.805 118.73 535.205 118.41C534.605 118.07 534.125 117.65 533.765 117.15C533.425 116.63 533.255 116 533.255 115.26C533.255 114.54 533.425 113.9 533.765 113.34C534.125 112.78 534.615 112.31 535.235 111.93C535.875 111.55 536.615 111.26 537.455 111.06C538.315 110.86 539.235 110.76 540.215 110.76C541.695 110.76 542.925 110.98 543.905 111.42C544.885 111.84 545.615 112.44 546.095 113.22C546.595 113.98 546.845 114.86 546.845 115.86H543.395C543.235 115.12 542.915 114.59 542.435 114.27C541.955 113.93 541.215 113.76 540.215 113.76C539.235 113.76 538.495 113.91 537.995 114.21C537.495 114.51 537.245 114.92 537.245 115.44C537.245 115.86 537.395 116.19 537.695 116.43C538.015 116.65 538.475 116.83 539.075 116.97C539.695 117.11 540.465 117.26 541.385 117.42C542.165 117.58 542.905 117.76 543.605 117.96C544.325 118.16 544.965 118.42 545.525 118.74C546.085 119.04 546.525 119.45 546.845 119.97C547.185 120.47 547.355 121.11 547.355 121.89C547.355 122.85 547.075 123.66 546.515 124.32C545.975 124.98 545.195 125.49 544.175 125.85C543.155 126.19 541.935 126.36 540.515 126.36C539.255 126.36 538.165 126.23 537.245 125.97C536.345 125.69 535.595 125.34 534.995 124.92C534.395 124.48 533.925 124.02 533.585 123.54C533.265 123.04 533.045 122.57 532.925 122.13C532.805 121.69 532.765 121.33 532.805 121.05ZM563.929 121.05H567.709C567.549 122.07 567.119 122.98 566.419 123.78C565.739 124.58 564.809 125.21 563.629 125.67C562.449 126.13 561.009 126.36 559.309 126.36C557.409 126.36 555.729 126.06 554.269 125.46C552.809 124.84 551.669 123.95 550.849 122.79C550.029 121.63 549.619 120.23 549.619 118.59C549.619 116.95 550.019 115.55 550.819 114.39C551.619 113.21 552.729 112.31 554.149 111.69C555.589 111.07 557.269 110.76 559.189 110.76C561.149 110.76 562.779 111.07 564.079 111.69C565.379 112.31 566.339 113.25 566.959 114.51C567.599 115.75 567.869 117.34 567.769 119.28H553.549C553.649 120.04 553.929 120.73 554.389 121.35C554.869 121.97 555.509 122.46 556.309 122.82C557.129 123.18 558.099 123.36 559.219 123.36C560.459 123.36 561.489 123.15 562.309 122.73C563.149 122.29 563.689 121.73 563.929 121.05ZM559.009 113.73C557.569 113.73 556.399 114.05 555.499 114.69C554.599 115.31 554.019 116.08 553.759 117H563.899C563.799 116 563.319 115.21 562.459 114.63C561.619 114.03 560.469 113.73 559.009 113.73ZM569.416 111.09H580.996V114.12H569.416V111.09ZM573.256 107.01H577.156V126H573.256V107.01ZM582.874 121.05H586.474C586.694 121.73 587.144 122.29 587.824 122.73C588.524 123.15 589.434 123.36 590.554 123.36C591.314 123.36 591.904 123.29 592.324 123.15C592.744 123.01 593.034 122.81 593.194 122.55C593.354 122.27 593.434 121.96 593.434 121.62C593.434 121.2 593.304 120.88 593.044 120.66C592.784 120.42 592.384 120.23 591.844 120.09C591.304 119.95 590.614 119.82 589.774 119.7C588.934 119.56 588.124 119.39 587.344 119.19C586.564 118.99 585.874 118.73 585.274 118.41C584.674 118.07 584.194 117.65 583.834 117.15C583.494 116.63 583.324 116 583.324 115.26C583.324 114.54 583.494 113.9 583.834 113.34C584.194 112.78 584.684 112.31 585.304 111.93C585.944 111.55 586.684 111.26 587.524 111.06C588.384 110.86 589.304 110.76 590.284 110.76C591.764 110.76 592.994 110.98 593.974 111.42C594.954 111.84 595.684 112.44 596.164 113.22C596.664 113.98 596.914 114.86 596.914 115.86H593.464C593.304 115.12 592.984 114.59 592.504 114.27C592.024 113.93 591.284 113.76 590.284 113.76C589.304 113.76 588.564 113.91 588.064 114.21C587.564 114.51 587.314 114.92 587.314 115.44C587.314 115.86 587.464 116.19 587.764 116.43C588.084 116.65 588.544 116.83 589.144 116.97C589.764 117.11 590.534 117.26 591.454 117.42C592.234 117.58 592.974 117.76 593.674 117.96C594.394 118.16 595.034 118.42 595.594 118.74C596.154 119.04 596.594 119.45 596.914 119.97C597.254 120.47 597.424 121.11 597.424 121.89C597.424 122.85 597.144 123.66 596.584 124.32C596.044 124.98 595.264 125.49 594.244 125.85C593.224 126.19 592.004 126.36 590.584 126.36C589.324 126.36 588.234 126.23 587.314 125.97C586.414 125.69 585.664 125.34 585.064 124.92C584.464 124.48 583.994 124.02 583.654 123.54C583.334 123.04 583.114 122.57 582.994 122.13C582.874 121.69 582.834 121.33 582.874 121.05ZM606.864 119.46H610.914C610.994 120.14 611.304 120.76 611.844 121.32C612.404 121.86 613.134 122.29 614.034 122.61C614.934 122.91 615.944 123.06 617.064 123.06C618.084 123.06 618.924 122.95 619.584 122.73C620.244 122.51 620.734 122.2 621.054 121.8C621.374 121.4 621.534 120.92 621.534 120.36C621.534 119.82 621.334 119.41 620.934 119.13C620.534 118.83 619.904 118.59 619.044 118.41C618.184 118.21 617.054 118.01 615.654 117.81C614.554 117.65 613.514 117.43 612.534 117.15C611.554 116.85 610.684 116.47 609.924 116.01C609.184 115.55 608.594 114.99 608.154 114.33C607.734 113.65 607.524 112.85 607.524 111.93C607.524 110.79 607.844 109.79 608.484 108.93C609.144 108.07 610.114 107.4 611.394 106.92C612.674 106.44 614.244 106.2 616.104 106.2C618.904 106.2 621.054 106.8 622.554 108C624.074 109.18 624.814 110.81 624.774 112.89H620.874C620.794 111.71 620.294 110.86 619.374 110.34C618.474 109.82 617.334 109.56 615.954 109.56C614.674 109.56 613.614 109.75 612.774 110.13C611.954 110.51 611.544 111.16 611.544 112.08C611.544 112.44 611.644 112.76 611.844 113.04C612.044 113.3 612.384 113.53 612.864 113.73C613.344 113.93 613.994 114.12 614.814 114.3C615.634 114.48 616.654 114.66 617.874 114.84C619.014 115 620.044 115.22 620.964 115.5C621.904 115.76 622.704 116.11 623.364 116.55C624.044 116.97 624.564 117.51 624.924 118.17C625.284 118.83 625.464 119.64 625.464 120.6C625.464 121.78 625.154 122.81 624.534 123.69C623.934 124.55 622.994 125.22 621.714 125.7C620.454 126.18 618.814 126.42 616.794 126.42C615.354 126.42 614.084 126.27 612.984 125.97C611.884 125.65 610.934 125.23 610.134 124.71C609.334 124.19 608.684 123.62 608.184 123C607.684 122.38 607.324 121.76 607.104 121.14C606.904 120.52 606.824 119.96 606.864 119.46ZM642.064 121.05H645.844C645.684 122.07 645.254 122.98 644.554 123.78C643.874 124.58 642.944 125.21 641.764 125.67C640.584 126.13 639.144 126.36 637.444 126.36C635.544 126.36 633.864 126.06 632.404 125.46C630.944 124.84 629.804 123.95 628.984 122.79C628.164 121.63 627.754 120.23 627.754 118.59C627.754 116.95 628.154 115.55 628.954 114.39C629.754 113.21 630.864 112.31 632.284 111.69C633.724 111.07 635.404 110.76 637.324 110.76C639.284 110.76 640.914 111.07 642.214 111.69C643.514 112.31 644.474 113.25 645.094 114.51C645.734 115.75 646.004 117.34 645.904 119.28H631.684C631.784 120.04 632.064 120.73 632.524 121.35C633.004 121.97 633.644 122.46 634.444 122.82C635.264 123.18 636.234 123.36 637.354 123.36C638.594 123.36 639.624 123.15 640.444 122.73C641.284 122.29 641.824 121.73 642.064 121.05ZM637.144 113.73C635.704 113.73 634.534 114.05 633.634 114.69C632.734 115.31 632.154 116.08 631.894 117H642.034C641.934 116 641.454 115.21 640.594 114.63C639.754 114.03 638.604 113.73 637.144 113.73ZM666.506 120.12C666.406 121.42 665.986 122.54 665.246 123.48C664.526 124.42 663.526 125.14 662.246 125.64C660.966 126.12 659.446 126.36 657.686 126.36C655.846 126.36 654.196 126.07 652.736 125.49C651.296 124.89 650.156 124.02 649.316 122.88C648.496 121.72 648.086 120.29 648.086 118.59C648.086 116.89 648.496 115.46 649.316 114.3C650.156 113.14 651.296 112.26 652.736 111.66C654.196 111.06 655.846 110.76 657.686 110.76C659.446 110.76 660.956 111.01 662.216 111.51C663.476 111.99 664.466 112.69 665.186 113.61C665.926 114.53 666.356 115.64 666.476 116.94H662.906C662.566 115.94 661.936 115.16 661.016 114.6C660.096 114.04 658.986 113.76 657.686 113.76C656.646 113.76 655.696 113.94 654.836 114.3C653.996 114.66 653.316 115.2 652.796 115.92C652.296 116.62 652.046 117.51 652.046 118.59C652.046 119.65 652.296 120.54 652.796 121.26C653.296 121.96 653.976 122.49 654.836 122.85C655.696 123.19 656.646 123.36 657.686 123.36C659.086 123.36 660.226 123.08 661.106 122.52C662.006 121.96 662.616 121.16 662.936 120.12H666.506ZM686.622 126H682.722V111.09H686.622V126ZM682.932 118.83L682.962 119.85C682.922 120.13 682.822 120.54 682.662 121.08C682.502 121.6 682.252 122.16 681.912 122.76C681.592 123.36 681.172 123.94 680.652 124.5C680.132 125.04 679.492 125.49 678.732 125.85C677.972 126.19 677.072 126.36 676.032 126.36C675.212 126.36 674.402 126.26 673.602 126.06C672.822 125.86 672.112 125.53 671.472 125.07C670.832 124.59 670.322 123.95 669.942 123.15C669.562 122.35 669.372 121.34 669.372 120.12V111.09H673.272V119.46C673.272 120.42 673.422 121.18 673.722 121.74C674.042 122.28 674.502 122.66 675.102 122.88C675.702 123.1 676.412 123.21 677.232 123.21C678.312 123.21 679.242 122.98 680.022 122.52C680.802 122.04 681.432 121.46 681.912 120.78C682.412 120.1 682.752 119.45 682.932 118.83ZM690.173 111.09H694.073V126H690.173V111.09ZM699.803 114.3C698.683 114.3 697.713 114.52 696.893 114.96C696.073 115.38 695.413 115.9 694.913 116.52C694.413 117.14 694.063 117.74 693.863 118.32L693.833 116.67C693.853 116.43 693.933 116.08 694.073 115.62C694.213 115.14 694.423 114.63 694.703 114.09C694.983 113.53 695.353 113 695.813 112.5C696.273 111.98 696.833 111.56 697.493 111.24C698.153 110.92 698.923 110.76 699.803 110.76V114.3ZM706.684 104.55V107.97H702.154V104.55H706.684ZM702.454 111.09H706.354V126H702.454V111.09ZM709.191 111.09H720.771V114.12H709.191V111.09ZM713.031 107.01H716.931V126H713.031V107.01ZM721.899 111.09H726.039L732.489 125.4L729.129 126L721.899 111.09ZM740.139 111.09L729.819 132H725.769L730.179 123.78L735.969 111.09H740.139Z" fill="white"/>
<path d="M96.4 125.02H94.51L105.67 107.59H109.66V127H105.67V112.9L106.63 113.17L97.72 127H93.25L84.34 113.23L85.3 112.96V127H81.31V107.59H85.3L96.4 125.02ZM121.019 127.33C119.539 127.33 118.189 127.01 116.969 126.37C115.769 125.71 114.809 124.8 114.089 123.64C113.389 122.46 113.039 121.1 113.039 119.56C113.039 117.98 113.399 116.61 114.119 115.45C114.839 114.29 115.809 113.39 117.029 112.75C118.269 112.09 119.669 111.76 121.229 111.76C122.949 111.76 124.329 112.11 125.369 112.81C126.429 113.49 127.199 114.42 127.679 115.6C128.159 116.78 128.399 118.1 128.399 119.56C128.399 120.44 128.259 121.34 127.979 122.26C127.699 123.16 127.269 124 126.689 124.78C126.109 125.54 125.349 126.16 124.409 126.64C123.469 127.1 122.339 127.33 121.019 127.33ZM122.279 124.33C123.459 124.33 124.479 124.13 125.339 123.73C126.199 123.33 126.859 122.77 127.319 122.05C127.779 121.33 128.009 120.5 128.009 119.56C128.009 118.54 127.769 117.68 127.289 116.98C126.829 116.26 126.169 115.72 125.309 115.36C124.469 114.98 123.459 114.79 122.279 114.79C120.619 114.79 119.329 115.23 118.409 116.11C117.489 116.97 117.029 118.12 117.029 119.56C117.029 120.52 117.249 121.36 117.689 122.08C118.129 122.78 118.739 123.33 119.519 123.73C120.319 124.13 121.239 124.33 122.279 124.33ZM128.009 112.09H131.909V127H128.279C128.279 127 128.249 126.81 128.189 126.43C128.149 126.03 128.109 125.53 128.069 124.93C128.029 124.33 128.009 123.74 128.009 123.16V112.09ZM152.329 112.09L144.589 120.4L139.009 127H134.239L142.309 118.27L147.589 112.09H152.329ZM134.239 112.09H139.009L144.649 118.21L152.749 127H147.979L142.189 120.49L134.239 112.09ZM159.625 105.55V108.97H155.095V105.55H159.625ZM155.395 112.09H159.295V127H155.395V112.09ZM163.183 112.09H167.083V127H163.183V112.09ZM174.013 111.76C174.933 111.76 175.783 111.88 176.563 112.12C177.343 112.36 178.023 112.73 178.603 113.23C179.183 113.73 179.633 114.37 179.953 115.15C180.273 115.91 180.433 116.82 180.433 117.88V127H176.533V118.57C176.533 117.31 176.223 116.39 175.603 115.81C175.003 115.21 174.013 114.91 172.633 114.91C171.593 114.91 170.653 115.11 169.813 115.51C168.973 115.91 168.293 116.42 167.773 117.04C167.253 117.64 166.953 118.27 166.873 118.93L166.843 117.4C166.943 116.7 167.173 116.02 167.533 115.36C167.893 114.7 168.373 114.1 168.973 113.56C169.593 113 170.323 112.56 171.163 112.24C172.003 111.92 172.953 111.76 174.013 111.76ZM187.003 111.76C187.923 111.76 188.773 111.88 189.553 112.12C190.333 112.36 191.013 112.73 191.593 113.23C192.173 113.73 192.623 114.37 192.943 115.15C193.283 115.91 193.453 116.82 193.453 117.88V127H189.553V118.57C189.553 117.31 189.243 116.39 188.623 115.81C188.003 115.21 187.003 114.91 185.623 114.91C184.583 114.91 183.643 115.11 182.803 115.51C181.963 115.91 181.283 116.42 180.763 117.04C180.243 117.64 179.953 118.27 179.893 118.93L179.833 117.31C179.933 116.65 180.173 115.99 180.553 115.33C180.933 114.67 181.433 114.07 182.053 113.53C182.673 112.99 183.393 112.56 184.213 112.24C185.053 111.92 185.983 111.76 187.003 111.76ZM214.241 127H210.341V112.09H214.241V127ZM210.551 119.83L210.581 120.85C210.541 121.13 210.441 121.54 210.281 122.08C210.121 122.6 209.871 123.16 209.531 123.76C209.211 124.36 208.791 124.94 208.271 125.5C207.751 126.04 207.111 126.49 206.351 126.85C205.591 127.19 204.691 127.36 203.651 127.36C202.831 127.36 202.021 127.26 201.221 127.06C200.441 126.86 199.731 126.53 199.091 126.07C198.451 125.59 197.941 124.95 197.561 124.15C197.181 123.35 196.991 122.34 196.991 121.12V112.09H200.891V120.46C200.891 121.42 201.041 122.18 201.341 122.74C201.661 123.28 202.121 123.66 202.721 123.88C203.321 124.1 204.031 124.21 204.851 124.21C205.931 124.21 206.861 123.98 207.641 123.52C208.421 123.04 209.051 122.46 209.531 121.78C210.031 121.1 210.371 120.45 210.551 119.83ZM217.792 112.09H221.692V127H217.792V112.09ZM228.622 111.76C229.542 111.76 230.392 111.88 231.172 112.12C231.952 112.36 232.632 112.73 233.212 113.23C233.792 113.73 234.242 114.37 234.562 115.15C234.882 115.91 235.042 116.82 235.042 117.88V127H231.142V118.57C231.142 117.31 230.832 116.39 230.212 115.81C229.612 115.21 228.622 114.91 227.242 114.91C226.202 114.91 225.262 115.11 224.422 115.51C223.582 115.91 222.902 116.42 222.382 117.04C221.862 117.64 221.562 118.27 221.482 118.93L221.452 117.4C221.552 116.7 221.782 116.02 222.142 115.36C222.502 114.7 222.982 114.1 223.582 113.56C224.202 113 224.932 112.56 225.772 112.24C226.612 111.92 227.562 111.76 228.622 111.76ZM241.612 111.76C242.532 111.76 243.382 111.88 244.162 112.12C244.942 112.36 245.622 112.73 246.202 113.23C246.782 113.73 247.232 114.37 247.552 115.15C247.892 115.91 248.062 116.82 248.062 117.88V127H244.162V118.57C244.162 117.31 243.852 116.39 243.232 115.81C242.612 115.21 241.612 114.91 240.232 114.91C239.192 114.91 238.252 115.11 237.412 115.51C236.572 115.91 235.892 116.42 235.372 117.04C234.852 117.64 234.562 118.27 234.502 118.93L234.442 117.31C234.542 116.65 234.782 115.99 235.162 115.33C235.542 114.67 236.042 114.07 236.662 113.53C237.282 112.99 238.002 112.56 238.822 112.24C239.662 111.92 240.592 111.76 241.612 111.76ZM266.217 127L257.637 107.59H262.047L269.397 125.11H268.017L275.337 107.59H279.687L271.197 127H266.217ZM287.367 127.33C285.887 127.33 284.537 127.01 283.317 126.37C282.117 125.71 281.157 124.8 280.437 123.64C279.737 122.46 279.387 121.1 279.387 119.56C279.387 117.98 279.747 116.61 280.467 115.45C281.187 114.29 282.157 113.39 283.377 112.75C284.617 112.09 286.017 111.76 287.577 111.76C289.297 111.76 290.677 112.11 291.717 112.81C292.777 113.49 293.547 114.42 294.027 115.6C294.507 116.78 294.747 118.1 294.747 119.56C294.747 120.44 294.607 121.34 294.327 122.26C294.047 123.16 293.617 124 293.037 124.78C292.457 125.54 291.697 126.16 290.757 126.64C289.817 127.1 288.687 127.33 287.367 127.33ZM288.627 124.33C289.807 124.33 290.827 124.13 291.687 123.73C292.547 123.33 293.207 122.77 293.667 122.05C294.127 121.33 294.357 120.5 294.357 119.56C294.357 118.54 294.117 117.68 293.637 116.98C293.177 116.26 292.517 115.72 291.657 115.36C290.817 114.98 289.807 114.79 288.627 114.79C286.967 114.79 285.677 115.23 284.757 116.11C283.837 116.97 283.377 118.12 283.377 119.56C283.377 120.52 283.597 121.36 284.037 122.08C284.477 122.78 285.087 123.33 285.867 123.73C286.667 124.13 287.587 124.33 288.627 124.33ZM294.357 112.09H298.257V127H294.627C294.627 127 294.597 126.81 294.537 126.43C294.497 126.03 294.457 125.53 294.417 124.93C294.377 124.33 294.357 123.74 294.357 123.16V112.09ZM302.086 106.09H305.986V127H302.086V106.09ZM327.181 127H323.281V112.09H327.181V127ZM323.491 119.83L323.521 120.85C323.481 121.13 323.381 121.54 323.221 122.08C323.061 122.6 322.811 123.16 322.471 123.76C322.151 124.36 321.731 124.94 321.211 125.5C320.691 126.04 320.051 126.49 319.291 126.85C318.531 127.19 317.631 127.36 316.591 127.36C315.771 127.36 314.961 127.26 314.161 127.06C313.381 126.86 312.671 126.53 312.031 126.07C311.391 125.59 310.881 124.95 310.501 124.15C310.121 123.35 309.931 122.34 309.931 121.12V112.09H313.831V120.46C313.831 121.42 313.981 122.18 314.281 122.74C314.601 123.28 315.061 123.66 315.661 123.88C316.261 124.1 316.971 124.21 317.791 124.21C318.871 124.21 319.801 123.98 320.581 123.52C321.361 123.04 321.991 122.46 322.471 121.78C322.971 121.1 323.311 120.45 323.491 119.83ZM344.322 122.05H348.102C347.942 123.07 347.512 123.98 346.812 124.78C346.132 125.58 345.202 126.21 344.022 126.67C342.842 127.13 341.402 127.36 339.702 127.36C337.802 127.36 336.122 127.06 334.662 126.46C333.202 125.84 332.062 124.95 331.242 123.79C330.422 122.63 330.012 121.23 330.012 119.59C330.012 117.95 330.412 116.55 331.212 115.39C332.012 114.21 333.122 113.31 334.542 112.69C335.982 112.07 337.662 111.76 339.582 111.76C341.542 111.76 343.172 112.07 344.472 112.69C345.772 113.31 346.732 114.25 347.352 115.51C347.992 116.75 348.262 118.34 348.162 120.28H333.942C334.042 121.04 334.322 121.73 334.782 122.35C335.262 122.97 335.902 123.46 336.702 123.82C337.522 124.18 338.492 124.36 339.612 124.36C340.852 124.36 341.882 124.15 342.702 123.73C343.542 123.29 344.082 122.73 344.322 122.05ZM339.402 114.73C337.962 114.73 336.792 115.05 335.892 115.69C334.992 116.31 334.412 117.08 334.152 118H344.292C344.192 117 343.712 116.21 342.852 115.63C342.012 115.03 340.862 114.73 339.402 114.73Z" fill="#23A323"/>
<defs>
<radialGradient id="paint0_radial_3930_41734" cx="0" cy="0" r="1" gradientUnits="userSpaceOnUse" gradientTransform="translate(73.6994 7.11907) scale(444.009 341.887)">
<stop offset="0.15" stop-color="white"/>
<stop offset="0.92" stop-color="white"/>
</radialGradient>
<radialGradient id="paint1_radial_3930_41734" cx="0" cy="0" r="1" gradientUnits="userSpaceOnUse" gradientTransform="translate(-41.425 35.0589) scale(159.349 159.349)">
<stop offset="0.07" stop-color="white"/>
<stop offset="1" stop-color="#EDEDED"/>
</radialGradient>
<radialGradient id="paint2_radial_3930_41734" cx="0" cy="0" r="1" gradientUnits="userSpaceOnUse" gradientTransform="translate(209.124 199.179) scale(135.966)">
<stop offset="0.07" stop-color="white"/>
<stop offset="1" stop-color="white"/>
</radialGradient>
<radialGradient id="paint3_radial_3930_41734" cx="0" cy="0" r="1" gradientUnits="userSpaceOnUse" gradientTransform="translate(481.42 -19.0266) scale(525.667 404.763)">
<stop offset="0.15" stop-color="#FFA500"/>
<stop offset="0.92" stop-color="#FF971C"/>
</radialGradient>
<radialGradient id="paint4_radial_3930_41734" cx="0" cy="0" r="1" gradientUnits="userSpaceOnUse" gradientTransform="translate(907.439 95.0338) scale(140.658 140.658)">
<stop offset="0.15" stop-color="#FF8900"/>
<stop offset="0.92" stop-color="#FF7A13"/>
</radialGradient>
<radialGradient id="paint5_radial_3930_41734" cx="0" cy="0" r="1" gradientUnits="userSpaceOnUse" gradientTransform="translate(1193.65 26.597) scale(322.767 322.767)">
<stop offset="0.15" stop-color="#FFCA00"/>
<stop offset="0.92" stop-color="#FFBC22"/>
</radialGradient>
</defs>
</svg>
