<svg width="444" height="85" viewBox="0 0 444 85" fill="none" xmlns="http://www.w3.org/2000/svg">
<rect width="444" height="85" rx="4" fill="url(#paint0_linear_3059_33432)"/>
<path d="M75.58 62.22H72.71L95.04 20.57H101.76V66H95.04V31.14L96.51 31.49L77.68 66H70.61L51.78 31.56L53.25 31.21V66H46.53V20.57H53.25L75.58 62.22ZM126.139 66.7C123.152 66.7 120.422 65.93 117.949 64.39C115.475 62.85 113.515 60.7267 112.069 58.02C110.622 55.2667 109.899 52.1167 109.899 48.57C109.899 45.0233 110.622 41.8967 112.069 39.19C113.562 36.4367 115.592 34.29 118.159 32.75C120.725 31.1633 123.595 30.37 126.769 30.37C130.269 30.37 132.975 31.1867 134.889 32.82C136.849 34.4533 138.202 36.6467 138.949 39.4C139.742 42.1533 140.139 45.21 140.139 48.57C140.139 50.4367 139.905 52.42 139.439 54.52C138.972 56.62 138.225 58.6033 137.199 60.47C136.172 62.3367 134.749 63.8533 132.929 65.02C131.109 66.14 128.845 66.7 126.139 66.7ZM128.029 60.89C130.502 60.89 132.579 60.3533 134.259 59.28C135.985 58.16 137.269 56.6667 138.109 54.8C138.949 52.9333 139.369 50.8567 139.369 48.57C139.369 46.0967 138.925 43.9267 138.039 42.06C137.199 40.1933 135.915 38.7467 134.189 37.72C132.509 36.6933 130.455 36.18 128.029 36.18C124.389 36.18 121.565 37.3467 119.559 39.68C117.599 42.0133 116.619 44.9767 116.619 48.57C116.619 50.9967 117.109 53.1433 118.089 55.01C119.069 56.83 120.399 58.2767 122.079 59.35C123.805 60.3767 125.789 60.89 128.029 60.89ZM139.369 31.07H146.089V66H139.929C139.929 66 139.882 65.58 139.789 64.74C139.695 63.8533 139.602 62.8033 139.509 61.59C139.415 60.3767 139.369 59.3033 139.369 58.37V31.07ZM169.273 66.7C166.24 66.7 163.487 65.93 161.013 64.39C158.54 62.85 156.58 60.7267 155.133 58.02C153.733 55.2667 153.033 52.1167 153.033 48.57C153.033 45.0233 153.733 41.8967 155.133 39.19C156.533 36.4367 158.447 34.29 160.873 32.75C163.3 31.1633 166.1 30.37 169.273 30.37C172.027 30.37 174.313 30.8367 176.133 31.77C177.953 32.7033 179.377 34.01 180.403 35.69C181.43 37.37 182.153 39.3067 182.573 41.5C183.04 43.6933 183.273 46.05 183.273 48.57C183.273 50.4367 183.04 52.42 182.573 54.52C182.107 56.62 181.36 58.6033 180.333 60.47C179.307 62.3367 177.883 63.8533 176.063 65.02C174.243 66.14 171.98 66.7 169.273 66.7ZM171.163 60.89C173.637 60.89 175.713 60.3533 177.393 59.28C179.12 58.16 180.403 56.6667 181.243 54.8C182.083 52.9333 182.503 50.8567 182.503 48.57C182.503 46.0967 182.06 43.9267 181.173 42.06C180.333 40.1933 179.05 38.7467 177.323 37.72C175.643 36.6933 173.59 36.18 171.163 36.18C167.523 36.18 164.7 37.3467 162.693 39.68C160.733 42.0133 159.753 44.9767 159.753 48.57C159.753 50.9967 160.243 53.1433 161.223 55.01C162.203 56.83 163.533 58.2767 165.213 59.35C166.94 60.3767 168.923 60.89 171.163 60.89ZM182.503 17.07H189.223V66H183.063C182.923 64.9733 182.783 63.7133 182.643 62.22C182.55 60.7267 182.503 59.4433 182.503 58.37V17.07ZM226.169 54.66H232.539C232.165 56.9467 231.279 59 229.879 60.82C228.479 62.64 226.635 64.0867 224.349 65.16C222.062 66.2333 219.379 66.77 216.299 66.77C212.659 66.77 209.415 66 206.569 64.46C203.722 62.92 201.482 60.7967 199.849 58.09C198.215 55.3833 197.399 52.2333 197.399 48.64C197.399 45 198.192 41.8267 199.779 39.12C201.365 36.3667 203.559 34.22 206.359 32.68C209.159 31.14 212.355 30.37 215.949 30.37C219.729 30.37 222.902 31.1167 225.469 32.61C228.035 34.1033 229.925 36.32 231.139 39.26C232.399 42.1533 232.912 45.77 232.679 50.11H204.049C204.282 52.21 204.912 54.0767 205.939 55.71C207.012 57.3433 208.412 58.6267 210.139 59.56C211.912 60.4933 213.942 60.96 216.229 60.96C218.795 60.96 220.942 60.3767 222.669 59.21C224.395 58.0433 225.562 56.5267 226.169 54.66ZM216.019 36.11C212.985 36.11 210.465 36.9267 208.459 38.56C206.452 40.1467 205.122 42.27 204.469 44.93H225.959C225.772 42.0833 224.745 39.9133 222.879 38.42C221.012 36.88 218.725 36.11 216.019 36.11ZM282.087 54.66H288.457C288.083 56.9467 287.197 59 285.797 60.82C284.397 62.64 282.553 64.0867 280.267 65.16C277.98 66.2333 275.297 66.77 272.217 66.77C268.577 66.77 265.333 66 262.487 64.46C259.64 62.92 257.4 60.7967 255.767 58.09C254.133 55.3833 253.317 52.2333 253.317 48.64C253.317 45 254.11 41.8267 255.697 39.12C257.283 36.3667 259.477 34.22 262.277 32.68C265.077 31.14 268.273 30.37 271.867 30.37C275.647 30.37 278.82 31.1167 281.387 32.61C283.953 34.1033 285.843 36.32 287.057 39.26C288.317 42.1533 288.83 45.77 288.597 50.11H259.967C260.2 52.21 260.83 54.0767 261.857 55.71C262.93 57.3433 264.33 58.6267 266.057 59.56C267.83 60.4933 269.86 60.96 272.147 60.96C274.713 60.96 276.86 60.3767 278.587 59.21C280.313 58.0433 281.48 56.5267 282.087 54.66ZM271.937 36.11C268.903 36.11 266.383 36.9267 264.377 38.56C262.37 40.1467 261.04 42.27 260.387 44.93H281.877C281.69 42.0833 280.663 39.9133 278.797 38.42C276.93 36.88 274.643 36.11 271.937 36.11ZM310.094 66.7C307.107 66.7 304.377 65.93 301.904 64.39C299.43 62.85 297.47 60.7267 296.024 58.02C294.577 55.2667 293.854 52.1167 293.854 48.57C293.854 45.0233 294.577 41.8967 296.024 39.19C297.517 36.4367 299.547 34.29 302.114 32.75C304.68 31.1633 307.55 30.37 310.724 30.37C314.224 30.37 316.93 31.1867 318.844 32.82C320.804 34.4533 322.157 36.6467 322.904 39.4C323.697 42.1533 324.094 45.21 324.094 48.57C324.094 50.4367 323.86 52.42 323.394 54.52C322.927 56.62 322.18 58.6033 321.154 60.47C320.127 62.3367 318.704 63.8533 316.884 65.02C315.064 66.14 312.8 66.7 310.094 66.7ZM311.984 60.89C314.457 60.89 316.534 60.3533 318.214 59.28C319.94 58.16 321.224 56.6667 322.064 54.8C322.904 52.9333 323.324 50.8567 323.324 48.57C323.324 46.0967 322.88 43.9267 321.994 42.06C321.154 40.1933 319.87 38.7467 318.144 37.72C316.464 36.6933 314.41 36.18 311.984 36.18C308.344 36.18 305.52 37.3467 303.514 39.68C301.554 42.0133 300.574 44.9767 300.574 48.57C300.574 50.9967 301.064 53.1433 302.044 55.01C303.024 56.83 304.354 58.2767 306.034 59.35C307.76 60.3767 309.744 60.89 311.984 60.89ZM323.324 31.07H330.044V66H323.884C323.884 66 323.837 65.58 323.744 64.74C323.65 63.8533 323.557 62.8033 323.464 61.59C323.37 60.3767 323.324 59.3033 323.324 58.37V31.07ZM337.268 54.66H343.428C343.662 56.5267 344.502 58.0667 345.948 59.28C347.395 60.4467 349.425 61.03 352.038 61.03C353.718 61.03 355.025 60.8433 355.958 60.47C356.892 60.05 357.545 59.49 357.918 58.79C358.338 58.09 358.548 57.32 358.548 56.48C358.548 55.4067 358.268 54.59 357.708 54.03C357.148 53.4233 356.355 52.9333 355.328 52.56C354.302 52.14 353.088 51.7433 351.688 51.37C350.148 50.95 348.608 50.46 347.068 49.9C345.528 49.34 344.105 48.6633 342.798 47.87C341.538 47.0767 340.512 46.0967 339.718 44.93C338.972 43.7167 338.598 42.2467 338.598 40.52C338.598 39.0733 338.902 37.72 339.508 36.46C340.162 35.2 341.072 34.1267 342.238 33.24C343.452 32.3067 344.852 31.6067 346.438 31.14C348.025 30.6267 349.775 30.37 351.688 30.37C354.348 30.37 356.588 30.86 358.408 31.84C360.228 32.7733 361.605 34.1033 362.538 35.83C363.518 37.5567 364.032 39.54 364.078 41.78H358.198C357.872 39.82 357.195 38.3967 356.168 37.51C355.142 36.5767 353.602 36.11 351.548 36.11C349.542 36.11 348.002 36.5067 346.928 37.3C345.855 38.0933 345.318 39.1667 345.318 40.52C345.318 41.5467 345.692 42.3867 346.438 43.04C347.185 43.6467 348.188 44.1833 349.448 44.65C350.708 45.1167 352.132 45.6067 353.718 46.12C355.212 46.6333 356.635 47.17 357.988 47.73C359.388 48.2433 360.625 48.8733 361.698 49.62C362.818 50.32 363.682 51.2533 364.288 52.42C364.942 53.54 365.268 54.94 365.268 56.62C365.268 58.6733 364.755 60.47 363.728 62.01C362.702 63.5033 361.208 64.67 359.248 65.51C357.335 66.35 355.002 66.77 352.248 66.77C349.728 66.77 347.582 66.4667 345.808 65.86C344.082 65.2533 342.612 64.46 341.398 63.48C340.232 62.5 339.322 61.4733 338.668 60.4C338.062 59.28 337.642 58.2067 337.408 57.18C337.222 56.1533 337.175 55.3133 337.268 54.66ZM368.266 31.07H375.406L388.776 64.6L382.966 66L368.266 31.07ZM403.896 31.07L382.966 80H375.896L384.926 61.03L396.826 31.07H403.896Z" fill="white"/>
<defs>
<linearGradient id="paint0_linear_3059_33432" x1="-75.5645" y1="33.5" x2="38.1297" y2="286.295" gradientUnits="userSpaceOnUse">
<stop stop-color="#147A32" stop-opacity="0"/>
<stop offset="1" stop-color="#FFBD00"/>
</linearGradient>
</defs>
</svg>
