<svg width="338" height="68" viewBox="0 0 338 68" fill="none" xmlns="http://www.w3.org/2000/svg">
<rect x="1.73145" y="2.25" width="335.129" height="64.6593" rx="32.3297" fill="#23A323" stroke="#23A323" stroke-width="2"/>
<path d="M29.312 35.9506H31.088C31.1306 36.3453 31.2853 36.7026 31.552 37.0226C31.8293 37.332 32.192 37.5773 32.64 37.7586C33.0986 37.9293 33.6213 38.0146 34.208 38.0146C34.7306 38.0146 35.1626 37.9506 35.504 37.8226C35.8453 37.6946 36.096 37.5186 36.256 37.2946C36.4266 37.06 36.512 36.788 36.512 36.4786C36.512 36.1693 36.4106 35.9293 36.208 35.7586C36.016 35.5773 35.7173 35.428 35.312 35.3106C34.9066 35.1826 34.3893 35.06 33.76 34.9426C33.2373 34.8466 32.7306 34.7186 32.24 34.5586C31.7493 34.3986 31.3066 34.196 30.912 33.9506C30.528 33.7053 30.224 33.4066 30 33.0546C29.776 32.692 29.664 32.2653 29.664 31.7746C29.664 31.22 29.8186 30.7186 30.128 30.2706C30.448 29.8226 30.9173 29.4706 31.536 29.2146C32.1546 28.9586 32.9066 28.8306 33.792 28.8306C35.1466 28.8306 36.1813 29.1453 36.896 29.7746C37.6106 30.3933 37.9573 31.236 37.936 32.3026H36.192C36.16 31.6306 35.9146 31.1453 35.456 30.8466C34.9973 30.548 34.416 30.3986 33.712 30.3986C33.0826 30.3986 32.5546 30.5106 32.128 30.7346C31.7013 30.9586 31.488 31.3213 31.488 31.8226C31.488 32.036 31.536 32.2226 31.632 32.3826C31.7386 32.532 31.9093 32.6706 32.144 32.7986C32.3786 32.916 32.6986 33.0333 33.104 33.1506C33.52 33.2573 34.0266 33.3746 34.624 33.5026C35.136 33.588 35.616 33.7053 36.064 33.8546C36.512 34.004 36.9013 34.1906 37.232 34.4146C37.5733 34.6386 37.84 34.9266 38.032 35.2786C38.224 35.6306 38.32 36.0626 38.32 36.5746C38.32 37.1613 38.1706 37.684 37.872 38.1426C37.5733 38.5906 37.1146 38.948 36.496 39.2146C35.888 39.4706 35.0986 39.5986 34.128 39.5986C33.392 39.5986 32.7466 39.5133 32.192 39.3426C31.648 39.1613 31.184 38.932 30.8 38.6546C30.416 38.3666 30.1066 38.0573 29.872 37.7266C29.648 37.396 29.488 37.076 29.392 36.7666C29.3066 36.4466 29.28 36.1746 29.312 35.9506ZM46.6031 36.7666H48.3151C48.2297 37.3106 48.0164 37.796 47.6751 38.2226C47.3444 38.6386 46.8911 38.9693 46.3151 39.2146C45.7391 39.4493 45.0511 39.5666 44.2511 39.5666C43.3444 39.5666 42.5337 39.4013 41.8191 39.0706C41.1044 38.7293 40.5444 38.2493 40.1391 37.6306C39.7337 37.012 39.5311 36.276 39.5311 35.4226C39.5311 34.58 39.7284 33.844 40.1231 33.2146C40.5177 32.5853 41.0617 32.1 41.7551 31.7586C42.4591 31.4173 43.2697 31.2466 44.1871 31.2466C45.1364 31.2466 45.9257 31.4173 46.5551 31.7586C47.1951 32.0893 47.6697 32.5906 47.9791 33.2626C48.2884 33.924 48.4164 34.7613 48.3631 35.7746H41.3391C41.3924 36.2226 41.5364 36.628 41.7711 36.9906C42.0164 37.3426 42.3471 37.62 42.7631 37.8226C43.1791 38.0146 43.6644 38.1106 44.2191 38.1106C44.8377 38.1106 45.3551 37.988 45.7711 37.7426C46.1977 37.4973 46.4751 37.172 46.6031 36.7666ZM44.1391 32.6866C43.4137 32.6866 42.8164 32.868 42.3471 33.2306C41.8777 33.5826 41.5737 34.036 41.4351 34.5906H46.5711C46.5284 33.9933 46.2884 33.5293 45.8511 33.1986C45.4137 32.8573 44.8431 32.6866 44.1391 32.6866ZM50.1071 28.2226H51.8831V39.3906H50.1071V28.2226ZM54.2008 28.2226H55.9768V39.3906H54.2008V28.2226ZM66.0621 39.5666C65.1767 39.5666 64.3821 39.4066 63.6781 39.0866C62.9741 38.7666 62.4194 38.2973 62.0141 37.6786C61.6087 37.06 61.4061 36.308 61.4061 35.4226C61.4061 34.548 61.6087 33.8013 62.0141 33.1826C62.4194 32.5533 62.9741 32.0733 63.6781 31.7426C64.3821 31.412 65.1767 31.2466 66.0621 31.2466C66.9474 31.2466 67.7367 31.412 68.4301 31.7426C69.1234 32.0733 69.6674 32.5533 70.0621 33.1826C70.4674 33.8013 70.6701 34.548 70.6701 35.4226C70.6701 36.308 70.4674 37.06 70.0621 37.6786C69.6674 38.2973 69.1234 38.7666 68.4301 39.0866C67.7367 39.4066 66.9474 39.5666 66.0621 39.5666ZM66.0621 38.1106C66.5741 38.1106 67.0434 38.0093 67.4701 37.8066C67.8967 37.604 68.2327 37.3 68.4781 36.8946C68.7341 36.4893 68.8621 35.9986 68.8621 35.4226C68.8621 34.8466 68.7341 34.356 68.4781 33.9506C68.2327 33.5453 67.8967 33.236 67.4701 33.0226C67.0541 32.7986 66.5847 32.6866 66.0621 32.6866C65.5394 32.6866 65.0647 32.7933 64.6381 33.0066C64.2114 33.22 63.8647 33.5293 63.5981 33.9346C63.3421 34.34 63.2141 34.836 63.2141 35.4226C63.2141 35.9986 63.3421 36.4893 63.5981 36.8946C63.8541 37.3 64.1954 37.604 64.6221 37.8066C65.0594 38.0093 65.5394 38.1106 66.0621 38.1106ZM72.2596 31.4226H74.0356V39.3906H72.2596V31.4226ZM77.3956 31.2466C77.8542 31.2466 78.2756 31.3106 78.6596 31.4386C79.0542 31.5666 79.3902 31.764 79.6676 32.0306C79.9556 32.2866 80.1742 32.6066 80.3236 32.9906C80.4836 33.3746 80.5636 33.828 80.5636 34.3506V39.3906H78.7876V34.7026C78.7876 34.052 78.6276 33.572 78.3076 33.2626C77.9982 32.9426 77.5076 32.7826 76.8356 32.7826C76.3236 32.7826 75.8542 32.8946 75.4276 33.1186C75.0116 33.332 74.6702 33.6146 74.4036 33.9666C74.1369 34.308 73.9822 34.6866 73.9396 35.1026L73.9236 34.2386C73.9769 33.844 74.0942 33.4706 74.2756 33.1186C74.4569 32.756 74.6969 32.436 74.9956 32.1586C75.2942 31.8706 75.6462 31.6466 76.0516 31.4866C76.4569 31.3266 76.9049 31.2466 77.3956 31.2466ZM88.0847 33.4226H95.7007V34.9746H88.0847V33.4226ZM95.4447 29.0226H97.2527V39.3906H95.4447V29.0226ZM86.4687 29.0226H88.2927V39.3906H86.4687V29.0226ZM103.046 39.5666C102.321 39.5666 101.654 39.3906 101.046 39.0386C100.449 38.6866 99.9686 38.2013 99.606 37.5826C99.254 36.9533 99.078 36.2333 99.078 35.4226C99.078 34.5906 99.2593 33.8653 99.622 33.2466C99.9846 32.6173 100.475 32.1266 101.094 31.7746C101.713 31.4226 102.406 31.2466 103.174 31.2466C104.027 31.2466 104.705 31.4333 105.206 31.8066C105.707 32.18 106.065 32.6813 106.278 33.3106C106.491 33.94 106.598 34.644 106.598 35.4226C106.598 35.86 106.534 36.324 106.406 36.8146C106.278 37.2946 106.075 37.7426 105.798 38.1586C105.531 38.5746 105.169 38.916 104.71 39.1826C104.262 39.4386 103.707 39.5666 103.046 39.5666ZM103.59 38.0946C104.187 38.0946 104.694 37.9826 105.11 37.7586C105.537 37.524 105.857 37.204 106.07 36.7986C106.294 36.3933 106.406 35.9346 106.406 35.4226C106.406 34.8573 106.294 34.3773 106.07 33.9826C105.846 33.5773 105.526 33.268 105.11 33.0546C104.694 32.8306 104.187 32.7186 103.59 32.7186C102.737 32.7186 102.075 32.9693 101.606 33.4706C101.137 33.972 100.902 34.6226 100.902 35.4226C100.902 35.9453 101.014 36.4093 101.238 36.8146C101.473 37.22 101.793 37.5346 102.198 37.7586C102.603 37.9826 103.067 38.0946 103.59 38.0946ZM106.406 31.4226H108.198V39.3906H106.534C106.534 39.3906 106.523 39.2893 106.502 39.0866C106.481 38.884 106.459 38.6386 106.438 38.3506C106.417 38.052 106.406 37.7693 106.406 37.5026V31.4226ZM110.15 31.4226H111.926V39.3906H110.15V31.4226ZM114.806 32.9426C114.23 32.9426 113.734 33.0653 113.318 33.3106C112.913 33.556 112.588 33.8546 112.342 34.2066C112.097 34.5586 111.926 34.9 111.83 35.2306L111.814 34.3346C111.825 34.2173 111.862 34.0413 111.926 33.8066C111.99 33.5613 112.086 33.2946 112.214 33.0066C112.353 32.7186 112.534 32.4413 112.758 32.1746C112.993 31.8973 113.276 31.6733 113.606 31.5026C113.948 31.332 114.348 31.2466 114.806 31.2466V32.9426ZM119.702 38.1586C118.956 38.1586 118.278 38.0253 117.67 37.7586C117.073 37.492 116.598 37.1026 116.246 36.5906C115.905 36.0786 115.734 35.4653 115.734 34.7506C115.734 34.036 115.9 33.4173 116.23 32.8946C116.572 32.372 117.041 31.9666 117.638 31.6786C118.246 31.3906 118.934 31.2466 119.702 31.2466C119.926 31.2466 120.14 31.2626 120.342 31.2946C120.556 31.3266 120.758 31.3693 120.95 31.4226L124.678 31.4386V32.9266C124.166 32.9373 123.649 32.868 123.126 32.7186C122.614 32.5586 122.161 32.3933 121.766 32.2226L121.718 32.1266C122.081 32.308 122.406 32.532 122.694 32.7986C122.993 33.0546 123.228 33.348 123.398 33.6786C123.569 34.0093 123.654 34.3826 123.654 34.7986C123.654 35.5026 123.484 36.1053 123.142 36.6066C122.812 37.108 122.348 37.492 121.75 37.7586C121.164 38.0253 120.481 38.1586 119.702 38.1586ZM122.262 42.6386V42.2706C122.262 41.748 122.108 41.38 121.798 41.1666C121.489 40.9533 121.057 40.8466 120.502 40.8466H118.342C117.916 40.8466 117.548 40.8093 117.238 40.7346C116.94 40.6706 116.7 40.5693 116.518 40.4306C116.337 40.3026 116.204 40.148 116.118 39.9666C116.033 39.796 115.99 39.604 115.99 39.3906C115.99 38.964 116.118 38.644 116.374 38.4306C116.641 38.2173 116.988 38.0786 117.414 38.0146C117.852 37.9506 118.31 37.94 118.79 37.9826L119.702 38.1586C119.073 38.18 118.593 38.2386 118.262 38.3346C117.942 38.42 117.782 38.596 117.782 38.8626C117.782 39.0226 117.846 39.1506 117.974 39.2466C118.102 39.3426 118.284 39.3906 118.518 39.3906H120.79C121.441 39.3906 122.012 39.4653 122.502 39.6146C122.993 39.7746 123.372 40.036 123.638 40.3986C123.916 40.772 124.054 41.2786 124.054 41.9186V42.6386H122.262ZM119.702 36.7666C120.129 36.7666 120.508 36.6866 120.838 36.5266C121.169 36.3666 121.43 36.1373 121.622 35.8386C121.814 35.54 121.91 35.1773 121.91 34.7506C121.91 34.324 121.814 33.956 121.622 33.6466C121.43 33.3373 121.169 33.1026 120.838 32.9426C120.508 32.7826 120.129 32.7026 119.702 32.7026C119.286 32.7026 118.908 32.7826 118.566 32.9426C118.236 33.1026 117.974 33.3373 117.782 33.6466C117.59 33.9453 117.494 34.3133 117.494 34.7506C117.494 35.1773 117.59 35.54 117.782 35.8386C117.974 36.1373 118.236 36.3666 118.566 36.5266C118.897 36.6866 119.276 36.7666 119.702 36.7666ZM130.25 39.5666C129.364 39.5666 128.57 39.4066 127.866 39.0866C127.162 38.7666 126.607 38.2973 126.202 37.6786C125.796 37.06 125.594 36.308 125.594 35.4226C125.594 34.548 125.796 33.8013 126.202 33.1826C126.607 32.5533 127.162 32.0733 127.866 31.7426C128.57 31.412 129.364 31.2466 130.25 31.2466C131.135 31.2466 131.924 31.412 132.618 31.7426C133.311 32.0733 133.855 32.5533 134.25 33.1826C134.655 33.8013 134.858 34.548 134.858 35.4226C134.858 36.308 134.655 37.06 134.25 37.6786C133.855 38.2973 133.311 38.7666 132.618 39.0866C131.924 39.4066 131.135 39.5666 130.25 39.5666ZM130.25 38.1106C130.762 38.1106 131.231 38.0093 131.658 37.8066C132.084 37.604 132.42 37.3 132.666 36.8946C132.922 36.4893 133.05 35.9986 133.05 35.4226C133.05 34.8466 132.922 34.356 132.666 33.9506C132.42 33.5453 132.084 33.236 131.658 33.0226C131.242 32.7986 130.772 32.6866 130.25 32.6866C129.727 32.6866 129.252 32.7933 128.826 33.0066C128.399 33.22 128.052 33.5293 127.786 33.9346C127.53 34.34 127.402 34.836 127.402 35.4226C127.402 35.9986 127.53 36.4893 127.786 36.8946C128.042 37.3 128.383 37.604 128.81 37.8066C129.247 38.0093 129.727 38.1106 130.25 38.1106ZM136.447 31.4226H138.223V39.3906H136.447V31.4226ZM141.583 31.2466C142.042 31.2466 142.463 31.3106 142.847 31.4386C143.242 31.5666 143.578 31.764 143.855 32.0306C144.143 32.2866 144.362 32.6066 144.511 32.9906C144.671 33.3746 144.751 33.828 144.751 34.3506V39.3906H142.975V34.7026C142.975 34.052 142.815 33.572 142.495 33.2626C142.186 32.9426 141.695 32.7826 141.023 32.7826C140.511 32.7826 140.042 32.8946 139.615 33.1186C139.199 33.332 138.858 33.6146 138.591 33.9666C138.324 34.308 138.17 34.6866 138.127 35.1026L138.111 34.2386C138.164 33.844 138.282 33.4706 138.463 33.1186C138.644 32.756 138.884 32.436 139.183 32.1586C139.482 31.8706 139.834 31.6466 140.239 31.4866C140.644 31.3266 141.092 31.2466 141.583 31.2466ZM146.716 33.0386L146.396 32.5586C146.566 32.3026 146.721 32.0306 146.86 31.7426C147.009 31.444 147.089 31.1506 147.1 30.8626L146.252 30.6866V28.9586H148.444V30.2066C148.444 30.9106 148.278 31.4866 147.948 31.9346C147.628 32.3826 147.217 32.7506 146.716 33.0386ZM149.736 36.7666H151.384C151.469 37.172 151.688 37.5026 152.04 37.7586C152.392 38.004 152.866 38.1266 153.464 38.1266C153.848 38.1266 154.146 38.084 154.36 37.9986C154.584 37.9133 154.738 37.796 154.824 37.6466C154.92 37.4973 154.968 37.3266 154.968 37.1346C154.968 36.9 154.898 36.7186 154.76 36.5906C154.632 36.4626 154.44 36.356 154.184 36.2706C153.928 36.1853 153.608 36.1106 153.224 36.0466C152.829 35.9506 152.44 35.844 152.056 35.7266C151.672 35.6093 151.325 35.4653 151.016 35.2946C150.706 35.1133 150.461 34.8893 150.28 34.6226C150.109 34.3453 150.024 34.0093 150.024 33.6146C150.024 33.252 150.104 32.9266 150.264 32.6386C150.434 32.34 150.669 32.0893 150.968 31.8866C151.266 31.684 151.618 31.5293 152.024 31.4226C152.429 31.3053 152.872 31.2466 153.352 31.2466C154.045 31.2466 154.621 31.3586 155.08 31.5826C155.549 31.8066 155.901 32.1213 156.136 32.5266C156.381 32.932 156.504 33.396 156.504 33.9186H154.936C154.85 33.492 154.685 33.1826 154.44 32.9906C154.194 32.7986 153.826 32.7026 153.336 32.7026C152.845 32.7026 152.472 32.788 152.216 32.9586C151.96 33.1293 151.832 33.364 151.832 33.6626C151.832 33.8866 151.912 34.068 152.072 34.2066C152.242 34.3346 152.482 34.4466 152.792 34.5426C153.101 34.6386 153.464 34.7346 153.88 34.8306C154.264 34.9373 154.626 35.0493 154.968 35.1666C155.309 35.2733 155.613 35.412 155.88 35.5826C156.157 35.7426 156.376 35.956 156.536 36.2226C156.696 36.4893 156.776 36.82 156.776 37.2146C156.776 37.7053 156.642 38.1266 156.376 38.4786C156.12 38.8306 155.746 39.1026 155.256 39.2946C154.765 39.476 154.173 39.5666 153.48 39.5666C152.872 39.5666 152.344 39.4973 151.896 39.3586C151.458 39.22 151.09 39.0386 150.792 38.8146C150.504 38.5906 150.28 38.3506 150.12 38.0946C149.96 37.8386 149.848 37.5933 149.784 37.3586C149.73 37.124 149.714 36.9266 149.736 36.7666ZM169.624 38.4466H168.808L174.312 29.0226H176.12V39.3906H174.312V31.6306L174.728 31.7426L170.216 39.3906H168.232L163.72 31.7746L164.152 31.6466V39.3906H162.328V29.0226H164.152L169.624 38.4466ZM181.905 39.5666C181.18 39.5666 180.513 39.3906 179.905 39.0386C179.308 38.6866 178.828 38.2013 178.465 37.5826C178.113 36.9533 177.937 36.2333 177.937 35.4226C177.937 34.5906 178.119 33.8653 178.481 33.2466C178.844 32.6173 179.335 32.1266 179.953 31.7746C180.572 31.4226 181.265 31.2466 182.033 31.2466C182.887 31.2466 183.564 31.4333 184.065 31.8066C184.567 32.18 184.924 32.6813 185.137 33.3106C185.351 33.94 185.457 34.644 185.457 35.4226C185.457 35.86 185.393 36.324 185.265 36.8146C185.137 37.2946 184.935 37.7426 184.657 38.1586C184.391 38.5746 184.028 38.916 183.569 39.1826C183.121 39.4386 182.567 39.5666 181.905 39.5666ZM182.449 38.0946C183.047 38.0946 183.553 37.9826 183.969 37.7586C184.396 37.524 184.716 37.204 184.929 36.7986C185.153 36.3933 185.265 35.9346 185.265 35.4226C185.265 34.8573 185.153 34.3773 184.929 33.9826C184.705 33.5773 184.385 33.268 183.969 33.0546C183.553 32.8306 183.047 32.7186 182.449 32.7186C181.596 32.7186 180.935 32.9693 180.465 33.4706C179.996 33.972 179.761 34.6226 179.761 35.4226C179.761 35.9453 179.873 36.4093 180.097 36.8146C180.332 37.22 180.652 37.5346 181.057 37.7586C181.463 37.9826 181.927 38.0946 182.449 38.0946ZM185.265 31.4226H187.057V39.3906H185.393C185.393 39.3906 185.383 39.2893 185.361 39.0866C185.34 38.884 185.319 38.6386 185.297 38.3506C185.276 38.052 185.265 37.7693 185.265 37.5026V31.4226ZM189.01 31.4226H190.786V39.3906H189.01V31.4226ZM193.666 32.9426C193.09 32.9426 192.594 33.0653 192.178 33.3106C191.772 33.556 191.447 33.8546 191.202 34.2066C190.956 34.5586 190.786 34.9 190.69 35.2306L190.674 34.3346C190.684 34.2173 190.722 34.0413 190.786 33.8066C190.85 33.5613 190.946 33.2946 191.074 33.0066C191.212 32.7186 191.394 32.4413 191.618 32.1746C191.852 31.8973 192.135 31.6733 192.466 31.5026C192.807 31.332 193.207 31.2466 193.666 31.2466V32.9426ZM195.17 28.2226H196.946V39.3906H195.17V28.2226ZM203.154 31.4226L198.69 35.5186L198.738 34.3986L203.49 39.3906H201.218L196.994 34.9266L200.69 31.4226H203.154ZM210.869 36.7666H212.581C212.495 37.3106 212.282 37.796 211.941 38.2226C211.61 38.6386 211.157 38.9693 210.581 39.2146C210.005 39.4493 209.317 39.5666 208.517 39.5666C207.61 39.5666 206.799 39.4013 206.085 39.0706C205.37 38.7293 204.81 38.2493 204.405 37.6306C203.999 37.012 203.797 36.276 203.797 35.4226C203.797 34.58 203.994 33.844 204.389 33.2146C204.783 32.5853 205.327 32.1 206.021 31.7586C206.725 31.4173 207.535 31.2466 208.453 31.2466C209.402 31.2466 210.191 31.4173 210.821 31.7586C211.461 32.0893 211.935 32.5906 212.245 33.2626C212.554 33.924 212.682 34.7613 212.629 35.7746H205.605C205.658 36.2226 205.802 36.628 206.037 36.9906C206.282 37.3426 206.613 37.62 207.029 37.8226C207.445 38.0146 207.93 38.1106 208.485 38.1106C209.103 38.1106 209.621 37.988 210.037 37.7426C210.463 37.4973 210.741 37.172 210.869 36.7666ZM208.405 32.6866C207.679 32.6866 207.082 32.868 206.613 33.2306C206.143 33.5826 205.839 34.036 205.701 34.5906H210.837C210.794 33.9933 210.554 33.5293 210.117 33.1986C209.679 32.8573 209.109 32.6866 208.405 32.6866ZM213.528 31.4226H219.16V32.8786H213.528V31.4226ZM215.448 29.2786H217.24V39.3906H215.448V29.2786ZM225.676 39.5666C225.026 39.5666 224.471 39.4386 224.012 39.1826C223.564 38.9266 223.202 38.5906 222.924 38.1746C222.658 37.748 222.46 37.2946 222.332 36.8146C222.204 36.324 222.14 35.86 222.14 35.4226C222.14 34.836 222.199 34.292 222.316 33.7906C222.444 33.2893 222.642 32.852 222.908 32.4786C223.186 32.0946 223.548 31.796 223.996 31.5826C224.455 31.3586 225.015 31.2466 225.676 31.2466C226.423 31.2466 227.095 31.428 227.692 31.7906C228.29 32.1426 228.764 32.6333 229.116 33.2626C229.468 33.8813 229.644 34.6013 229.644 35.4226C229.644 36.244 229.463 36.9693 229.1 37.5986C228.748 38.2173 228.274 38.7026 227.676 39.0546C227.079 39.396 226.412 39.5666 225.676 39.5666ZM225.148 38.0946C225.682 38.0946 226.151 37.9826 226.556 37.7586C226.962 37.5346 227.276 37.22 227.5 36.8146C227.724 36.4093 227.836 35.9453 227.836 35.4226C227.836 34.6226 227.602 33.972 227.132 33.4706C226.663 32.9586 226.002 32.7026 225.148 32.7026C224.615 32.7026 224.135 32.8146 223.708 33.0386C223.282 33.2626 222.946 33.5773 222.7 33.9826C222.455 34.3773 222.332 34.8573 222.332 35.4226C222.332 35.9346 222.444 36.3933 222.668 36.7986C222.892 37.204 223.212 37.524 223.628 37.7586C224.044 37.9826 224.551 38.0946 225.148 38.0946ZM220.556 31.4226H222.252L222.332 33.3746V42.5906H220.556V31.4226ZM231.388 28.2226H233.164V39.3906H231.388V28.2226ZM238.874 39.5666C238.149 39.5666 237.482 39.3906 236.874 39.0386C236.277 38.6866 235.797 38.2013 235.434 37.5826C235.082 36.9533 234.906 36.2333 234.906 35.4226C234.906 34.5906 235.087 33.8653 235.45 33.2466C235.813 32.6173 236.303 32.1266 236.922 31.7746C237.541 31.4226 238.234 31.2466 239.002 31.2466C239.855 31.2466 240.533 31.4333 241.034 31.8066C241.535 32.18 241.893 32.6813 242.106 33.3106C242.319 33.94 242.426 34.644 242.426 35.4226C242.426 35.86 242.362 36.324 242.234 36.8146C242.106 37.2946 241.903 37.7426 241.626 38.1586C241.359 38.5746 240.997 38.916 240.538 39.1826C240.09 39.4386 239.535 39.5666 238.874 39.5666ZM239.418 38.0946C240.015 38.0946 240.522 37.9826 240.938 37.7586C241.365 37.524 241.685 37.204 241.898 36.7986C242.122 36.3933 242.234 35.9346 242.234 35.4226C242.234 34.8573 242.122 34.3773 241.898 33.9826C241.674 33.5773 241.354 33.268 240.938 33.0546C240.522 32.8306 240.015 32.7186 239.418 32.7186C238.565 32.7186 237.903 32.9693 237.434 33.4706C236.965 33.972 236.73 34.6226 236.73 35.4226C236.73 35.9453 236.842 36.4093 237.066 36.8146C237.301 37.22 237.621 37.5346 238.026 37.7586C238.431 37.9826 238.895 38.0946 239.418 38.0946ZM242.234 31.4226H244.026V39.3906H242.362C242.362 39.3906 242.351 39.2893 242.33 39.0866C242.309 38.884 242.287 38.6386 242.266 38.3506C242.245 38.052 242.234 37.7693 242.234 37.5026V31.4226ZM254.554 36.3026C254.49 36.9853 254.272 37.572 253.898 38.0626C253.525 38.5533 253.024 38.9266 252.394 39.1826C251.776 39.4386 251.061 39.5666 250.25 39.5666C249.376 39.5666 248.581 39.4066 247.866 39.0866C247.162 38.7666 246.602 38.2973 246.186 37.6786C245.77 37.06 245.562 36.308 245.562 35.4226C245.562 34.5373 245.77 33.7853 246.186 33.1666C246.602 32.548 247.162 32.0733 247.866 31.7426C248.581 31.412 249.376 31.2466 250.25 31.2466C251.061 31.2466 251.776 31.38 252.394 31.6466C253.013 31.9026 253.509 32.2706 253.882 32.7506C254.256 33.2306 254.474 33.812 254.538 34.4946H252.906C252.725 33.9293 252.394 33.492 251.914 33.1826C251.445 32.8626 250.89 32.7026 250.25 32.7026C249.728 32.7026 249.248 32.8093 248.81 33.0226C248.373 33.2253 248.021 33.5293 247.754 33.9346C247.498 34.3293 247.37 34.8253 247.37 35.4226C247.37 36.0093 247.498 36.5053 247.754 36.9106C248.021 37.316 248.373 37.62 248.81 37.8226C249.248 38.0146 249.728 38.1106 250.25 38.1106C250.954 38.1106 251.53 37.956 251.978 37.6466C252.437 37.3266 252.752 36.8786 252.922 36.3026H254.554ZM262.775 36.7666H264.487C264.402 37.3106 264.188 37.796 263.847 38.2226C263.516 38.6386 263.063 38.9693 262.487 39.2146C261.911 39.4493 261.223 39.5666 260.423 39.5666C259.516 39.5666 258.706 39.4013 257.991 39.0706C257.276 38.7293 256.716 38.2493 256.311 37.6306C255.906 37.012 255.703 36.276 255.703 35.4226C255.703 34.58 255.9 33.844 256.295 33.2146C256.69 32.5853 257.234 32.1 257.927 31.7586C258.631 31.4173 259.442 31.2466 260.359 31.2466C261.308 31.2466 262.098 31.4173 262.727 31.7586C263.367 32.0893 263.842 32.5906 264.151 33.2626C264.46 33.924 264.588 34.7613 264.535 35.7746H257.511C257.564 36.2226 257.708 36.628 257.943 36.9906C258.188 37.3426 258.519 37.62 258.935 37.8226C259.351 38.0146 259.836 38.1106 260.391 38.1106C261.01 38.1106 261.527 37.988 261.943 37.7426C262.37 37.4973 262.647 37.172 262.775 36.7666ZM260.311 32.6866C259.586 32.6866 258.988 32.868 258.519 33.2306C258.05 33.5826 257.746 34.036 257.607 34.5906H262.743C262.7 33.9933 262.46 33.5293 262.023 33.1986C261.586 32.8573 261.015 32.6866 260.311 32.6866Z" fill="white"/>
<circle cx="303.497" cy="33.3647" r="23.8403" transform="rotate(-36.7207 303.497 33.3647)" fill="white"/>
<path d="M301.791 27.0664L310.283 28.3021L309.047 36.794" stroke="#23A323" stroke-width="1.49948" stroke-miterlimit="10" stroke-linecap="round" stroke-linejoin="round"/>
<path d="M296.662 38.4629L310.147 28.4035" stroke="#23A323" stroke-width="1.49948" stroke-miterlimit="10" stroke-linecap="round" stroke-linejoin="round"/>
</svg>
