<svg width="50" height="50" viewBox="0 0 50 50" fill="none" xmlns="http://www.w3.org/2000/svg">
<circle cx="25" cy="25" r="25" fill="#EEEEEE"/>
<path d="M16.5 24V27C16.5 30.771 16.5 32.657 17.672 33.828C18.843 35 20.729 35 24.5 35H25.5C29.271 35 31.157 35 32.328 33.828C33.5 32.657 33.5 30.771 33.5 27V24" stroke="#020518" stroke-width="1.5"/>
<path d="M22.501 15H27.501L28.153 21.517C28.1959 21.9568 28.1464 22.4007 28.0075 22.8201C27.8687 23.2396 27.6436 23.6254 27.3467 23.9526C27.0499 24.2799 26.6878 24.5415 26.2838 24.7204C25.8798 24.8994 25.4428 24.9919 25.001 24.9919C24.5591 24.9919 24.1222 24.8994 23.7182 24.7204C23.3142 24.5415 22.9521 24.2799 22.6553 23.9526C22.3584 23.6254 22.1333 23.2396 21.9944 22.8201C21.8556 22.4007 21.806 21.9568 21.849 21.517L22.501 15Z" stroke="#020518" stroke-width="1.5"/>
<path d="M16.33 18.351C16.508 17.461 16.597 17.016 16.778 16.655C16.9666 16.279 17.2322 15.9469 17.5574 15.6803C17.8827 15.4136 18.2604 15.2183 18.666 15.107C19.056 15 19.51 15 20.418 15H22.5L21.775 22.245C21.7368 22.6596 21.6143 23.0621 21.4151 23.4277C21.2159 23.7934 20.9441 24.1145 20.6165 24.3715C20.2889 24.6285 19.9123 24.8159 19.5097 24.9223C19.1071 25.0287 18.6871 25.0518 18.2752 24.9901C17.8634 24.9285 17.4685 24.7835 17.1147 24.564C16.7609 24.3445 16.4556 24.0551 16.2175 23.7135C15.9794 23.3718 15.8136 22.9852 15.7301 22.5773C15.6466 22.1694 15.6473 21.7487 15.732 21.341L16.33 18.351ZM33.67 18.351C33.492 17.461 33.403 17.016 33.222 16.655C33.0334 16.279 32.7679 15.9469 32.4426 15.6803C32.1174 15.4136 31.7397 15.2183 31.334 15.107C30.944 15 30.49 15 29.582 15H27.5L28.225 22.245C28.2633 22.6596 28.3858 23.0621 28.585 23.4277C28.7842 23.7934 29.0559 24.1145 29.3835 24.3715C29.7112 24.6285 30.0878 24.8159 30.4904 24.9223C30.8929 25.0287 31.313 25.0518 31.7248 24.9901C32.1366 24.9285 32.5315 24.7835 32.8853 24.564C33.2392 24.3445 33.5445 24.0551 33.7825 23.7135C34.0206 23.3718 34.1865 22.9852 34.27 22.5773C34.3534 22.1694 34.3528 21.7487 34.268 21.341L33.67 18.351Z" stroke="#020518" stroke-width="1.5"/>
<path d="M22.5 34.5V31.5C22.5 30.565 22.5 30.098 22.701 29.75C22.8326 29.522 23.022 29.3326 23.25 29.201C23.598 29 24.065 29 25 29C25.935 29 26.402 29 26.75 29.201C26.978 29.3326 27.1674 29.522 27.299 29.75C27.5 30.098 27.5 30.565 27.5 31.5V34.5" stroke="#020518" stroke-width="1.5" stroke-linecap="round"/>
</svg>
