<svg width="481" height="129" viewBox="0 0 481 129" fill="none" xmlns="http://www.w3.org/2000/svg">
<g clip-path="url(#clip0_4091_41979)">
<g clip-path="url(#clip1_4091_41979)">
<rect y="64.8008" width="476.17" height="64" rx="32" transform="rotate(-7.82165 0 64.8008)" fill="#FFC00B"/>
<path d="M74.4662 82.7483C75.4001 82.62 76.1979 82.6328 76.8597 82.7869C77.5294 82.9304 78.0825 83.1842 78.5187 83.5482C78.9642 83.9109 79.307 84.349 79.5471 84.8625C79.7873 85.3759 79.9486 85.9331 80.0311 86.5341C80.1124 87.1259 80.0981 87.7073 79.9881 88.2782C79.8874 88.8479 79.6674 89.3727 79.3282 89.8527C78.9983 90.3314 78.5361 90.7387 77.9416 91.0747C77.3459 91.4015 76.5996 91.6265 75.7027 91.7497L72.0965 92.2451L70.86 83.2436L74.4662 82.7483ZM73.2623 90.8555L75.523 90.545C76.235 90.4472 76.8095 90.274 77.2464 90.0256C77.682 89.7679 78.0124 89.4635 78.2373 89.1122C78.4703 88.7505 78.6149 88.3632 78.6712 87.9504C78.7368 87.5363 78.7417 87.1258 78.6858 86.7189C78.6286 86.3029 78.5133 85.9089 78.3397 85.537C78.1754 85.1639 77.9336 84.8439 77.6143 84.5768C77.303 84.2993 76.9041 84.1044 76.4176 83.9923C75.9299 83.8708 75.33 83.859 74.618 83.9568L72.3573 84.2674L73.2623 90.8555ZM85.5999 90.5456C84.9249 90.6383 84.2857 90.5801 83.6823 90.371C83.0788 90.1618 82.5739 89.8119 82.1673 89.3214C81.7608 88.8308 81.5061 88.211 81.4032 87.462C81.299 86.7038 81.3765 86.0337 81.6358 85.4517C81.8937 84.8604 82.285 84.3827 82.8096 84.0186C83.3343 83.6545 83.9341 83.4261 84.6091 83.3333C85.2841 83.2406 85.9187 83.2995 86.5129 83.5099C87.107 83.7203 87.608 84.0755 88.0158 84.5753C88.4224 85.0658 88.6777 85.6902 88.7819 86.4485C88.8848 87.1974 88.8066 87.8629 88.5474 88.4449C88.2882 89.027 87.9009 89.4994 87.3855 89.8622C86.8701 90.2251 86.2749 90.4529 85.5999 90.5456ZM85.4417 89.3944C85.8578 89.3373 86.2288 89.1921 86.5548 88.9589C86.8888 88.7152 87.1373 88.3984 87.3004 88.0086C87.4715 87.6082 87.5215 87.1492 87.4504 86.6314C87.378 86.1043 87.2054 85.6711 86.9327 85.3317C86.6692 84.9911 86.3438 84.7484 85.9566 84.6038C85.5785 84.4579 85.1815 84.4135 84.7654 84.4707C84.3493 84.5278 83.9743 84.6783 83.6403 84.922C83.3051 85.1564 83.0519 85.4738 82.8808 85.8742C82.7097 86.2745 82.661 86.7428 82.7347 87.2791C82.8058 87.7969 82.9731 88.2262 83.2366 88.5668C83.508 88.8969 83.8374 89.1343 84.2247 89.279C84.6107 89.4144 85.0164 89.4528 85.4417 89.3944ZM89.6968 82.7758L91.0283 82.5929L91.979 89.5139L90.6475 89.6968L89.6968 82.7758ZM93.6445 82.0922C94.0329 82.0388 94.3919 82.046 94.7215 82.1138C95.0511 82.1816 95.3421 82.3112 95.5945 82.5026C95.8456 82.6848 96.0535 82.9294 96.2182 83.2366C96.3908 83.5332 96.5051 83.8849 96.561 84.2917L97.1802 88.7994L95.8626 88.9804L95.2834 84.764C95.2084 84.2185 95.0185 83.83 94.7135 83.5987C94.4165 83.3569 93.9998 83.2728 93.4635 83.3465C93.0474 83.4036 92.6817 83.5528 92.3662 83.794C92.0508 84.0351 91.8043 84.3328 91.6269 84.6869C91.4574 85.0305 91.3768 85.4043 91.3852 85.8082L91.2665 85.0473C91.262 84.6711 91.3121 84.3156 91.4168 83.9809C91.5308 83.6449 91.6875 83.3455 91.8869 83.0826C92.0943 82.8091 92.347 82.5907 92.6448 82.4273C92.9414 82.2547 93.2747 82.143 93.6445 82.0922ZM98.1565 82.9562L97.8296 82.6337C97.9353 82.3742 98.0311 82.1114 98.117 81.8452C98.2016 81.5698 98.2314 81.3066 98.2064 81.0557L97.4781 81.0003L97.2837 79.5856L98.9758 79.3531L99.1168 80.3795C99.1981 80.9713 99.1347 81.4699 98.9266 81.8753C98.7278 82.2795 98.4711 82.6397 98.1565 82.9562ZM100.25 81.3261L104.73 80.7107L104.888 81.8619L100.408 82.4773L100.25 81.3261ZM101.58 79.2781L102.898 79.0971L104.1 87.8489L102.782 88.0299L101.58 79.2781ZM115.357 86.3025L114.783 82.1277C114.733 81.7578 114.631 81.461 114.477 81.2371C114.324 81.0132 114.119 80.8576 113.862 80.7705C113.604 80.674 113.29 80.6512 112.92 80.702C112.513 80.7579 112.152 80.9064 111.837 81.1476C111.529 81.3783 111.291 81.67 111.123 82.0229C110.954 82.3665 110.873 82.7402 110.881 83.1442L110.759 82.3555C110.756 81.9885 110.806 81.6377 110.911 81.303C111.025 80.967 111.182 80.6676 111.381 80.4047C111.59 80.1405 111.843 79.9221 112.139 79.7494C112.436 79.5768 112.769 79.4651 113.139 79.4143C113.527 79.3609 113.886 79.3681 114.216 79.4359C114.544 79.4944 114.835 79.6194 115.087 79.8108C115.347 79.9918 115.559 80.2311 115.723 80.529C115.885 80.8176 115.993 81.1608 116.048 81.5583L116.675 86.1215L115.357 86.3025ZM110.156 87.017L108.824 77.322L110.142 77.141L111.473 86.836L110.156 87.017ZM121.304 85.6269C120.712 85.7082 120.15 85.6299 119.618 85.3921C119.086 85.1543 118.64 84.7869 118.28 84.29C117.918 83.7838 117.689 83.1794 117.593 82.4766C117.496 81.7739 117.554 81.1347 117.767 80.559C117.988 79.9728 118.332 79.4923 118.799 79.1173C119.264 78.733 119.811 78.4977 120.44 78.4113C121.133 78.3161 121.692 78.4042 122.115 78.6758C122.548 78.9461 122.876 79.3438 123.099 79.869C123.331 80.393 123.493 80.9878 123.584 81.6536C123.635 82.0234 123.643 82.4228 123.608 82.8516C123.572 83.2803 123.478 83.6936 123.326 84.0915C123.173 84.4893 122.932 84.8285 122.604 85.1092C122.273 85.3807 121.84 85.5532 121.304 85.6269ZM121.52 84.4243C122.01 84.3569 122.407 84.1941 122.711 83.9357C123.022 83.6668 123.236 83.336 123.352 82.9432C123.467 82.5505 123.494 82.1276 123.432 81.6745C123.364 81.1845 123.218 80.7666 122.991 80.4208C122.774 80.0738 122.48 79.8221 122.11 79.6657C121.749 79.508 121.329 79.4622 120.848 79.5282C120.126 79.6273 119.599 79.9353 119.265 80.4523C118.94 80.9679 118.826 81.5818 118.924 82.2937C118.99 82.7746 119.146 83.1866 119.391 83.5297C119.634 83.8637 119.937 84.1141 120.299 84.2811C120.669 84.4375 121.076 84.4852 121.52 84.4243ZM122.956 78.2071L124.287 78.0242L125.238 84.9452L124.017 85.1129C124.017 85.1129 123.997 85.0309 123.955 84.867C123.913 84.6939 123.865 84.4884 123.814 84.2505C123.762 84.0126 123.724 83.8012 123.699 83.6163L122.956 78.2071ZM129.857 83.2649L129.427 83.324L130.864 77.1207L132.307 76.9225L130.414 84.2341L129.166 84.4056L125.4 77.8714L126.856 77.6713L129.857 83.2649ZM139.198 80.7382L140.46 80.5649C140.448 81.0281 140.328 81.4591 140.101 81.8578C139.873 82.2565 139.547 82.5933 139.123 82.8682C138.699 83.1431 138.182 83.3225 137.572 83.4063C136.851 83.5054 136.187 83.4411 135.581 83.2135C134.975 82.9858 134.473 82.6261 134.076 82.1342C133.679 81.6424 133.431 81.0405 133.333 80.3285C133.234 79.6073 133.305 78.9569 133.546 78.3774C133.785 77.7887 134.162 77.3037 134.674 76.9223C135.187 76.541 135.8 76.3014 136.512 76.2036C137.261 76.1007 137.91 76.1623 138.459 76.3883C139.008 76.6143 139.443 77.0021 139.763 77.5516C140.092 78.0906 140.292 78.7932 140.364 79.6595L134.691 80.4388C134.795 80.8485 134.97 81.2012 135.218 81.4969C135.475 81.7913 135.787 82.0075 136.155 82.1454C136.532 82.2821 136.947 82.3193 137.4 82.2571C137.908 82.1872 138.318 82.0132 138.628 81.735C138.939 81.4569 139.128 81.1246 139.198 80.7382ZM136.682 77.339C136.081 77.4216 135.604 77.652 135.251 78.0302C134.896 78.3992 134.69 78.8561 134.633 79.401L138.891 78.8161C138.777 78.2571 138.514 77.8551 138.104 77.61C137.692 77.3557 137.218 77.2653 136.682 77.339ZM143.81 75.3424L148.29 74.727L148.448 75.8781L143.968 76.4935L143.81 75.3424ZM145.14 73.2944L146.457 73.1134L147.659 81.8652L146.342 82.0462L145.14 73.2944ZM155.869 80.7374L155.296 76.5626C155.245 76.1928 155.143 75.8959 154.99 75.672C154.836 75.4481 154.631 75.2926 154.374 75.2054C154.116 75.109 153.802 75.0861 153.432 75.137C153.025 75.1928 152.664 75.3414 152.349 75.5825C152.041 75.8132 151.803 76.105 151.635 76.4578C151.466 76.8014 151.385 77.1752 151.394 77.5791L151.271 76.7904C151.268 76.4235 151.319 76.0726 151.423 75.7379C151.537 75.402 151.694 75.1025 151.893 74.8396C152.102 74.5754 152.355 74.357 152.651 74.1844C152.948 74.0117 153.281 73.9 153.651 73.8492C154.039 73.7959 154.398 73.8031 154.728 73.8708C155.056 73.9294 155.347 74.0543 155.599 74.2458C155.859 74.4267 156.071 74.6661 156.235 74.964C156.397 75.2526 156.505 75.5957 156.56 75.9933L157.187 80.5564L155.869 80.7374ZM150.668 81.4519L149.336 71.7569L150.654 71.5759L151.986 81.2709L150.668 81.4519ZM163.971 77.3352L165.233 77.1618C165.221 77.625 165.102 78.056 164.874 78.4547C164.646 78.8535 164.32 79.1903 163.896 79.4652C163.472 79.7401 162.955 79.9195 162.345 80.0033C161.624 80.1024 160.96 80.0381 160.354 79.8104C159.748 79.5828 159.247 79.223 158.849 78.7312C158.452 78.2393 158.204 77.6374 158.107 76.9254C158.008 76.2042 158.078 75.5539 158.319 74.9744C158.559 74.3857 158.935 73.9006 159.448 73.5193C159.96 73.1379 160.573 72.8984 161.285 72.8005C162.034 72.6977 162.683 72.7592 163.232 72.9853C163.781 73.2113 164.216 73.5991 164.537 74.1486C164.865 74.6876 165.065 75.3902 165.137 76.2565L159.464 77.0357C159.568 77.4455 159.743 77.7982 159.991 78.0939C160.248 78.3883 160.561 78.6044 160.928 78.7424C161.305 78.879 161.72 78.9162 162.173 78.854C162.682 78.7842 163.091 78.6101 163.401 78.332C163.712 78.0538 163.902 77.7216 163.971 77.3352ZM161.455 73.936C160.854 74.0185 160.377 74.2489 160.024 74.6272C159.669 74.9962 159.464 75.4531 159.407 75.9979L163.665 75.413C163.55 74.854 163.288 74.452 162.877 74.207C162.465 73.9526 161.991 73.8623 161.455 73.936ZM168.589 71.9809L173.124 71.3579L173.281 72.4952L168.745 73.1182L168.589 71.9809ZM171.989 68.6452L172.876 68.5233L173.044 69.7438L172.295 69.8467C172.053 69.8705 171.84 69.9327 171.656 70.0333C171.471 70.1247 171.335 70.2659 171.248 70.4568C171.171 70.6465 171.155 70.9078 171.2 71.2406L172.197 78.4945L170.879 78.6755L169.873 71.3523C169.797 70.7975 169.832 70.3311 169.978 69.953C170.133 69.5737 170.385 69.2801 170.733 69.0721C171.08 68.8548 171.499 68.7125 171.989 68.6452ZM181.78 77.1781L180.463 77.3591L179.512 70.4381L180.83 70.2571L181.78 77.1781ZM180.084 74.0901L180.155 74.5043C180.163 74.6258 180.155 74.8106 180.132 75.0586C180.118 75.2961 180.07 75.5618 179.988 75.8557C179.915 76.1484 179.794 76.4381 179.627 76.7249C179.468 77.0105 179.247 77.2575 178.965 77.4658C178.683 77.6742 178.325 77.8082 177.89 77.8679C177.594 77.9086 177.283 77.9089 176.957 77.8688C176.641 77.8275 176.34 77.7276 176.054 77.569C175.769 77.4104 175.524 77.1754 175.321 76.8641C175.117 76.5436 174.98 76.1291 174.91 75.6205L174.297 71.1544L175.628 70.9715L176.204 75.1602C176.262 75.5855 176.373 75.9095 176.535 76.1321C176.707 76.3535 176.925 76.4979 177.188 76.5653C177.452 76.6327 177.741 76.6448 178.055 76.6017C178.536 76.5356 178.922 76.3648 179.214 76.0892C179.514 75.803 179.734 75.4808 179.873 75.1225C180.011 74.755 180.081 74.4109 180.084 74.0901ZM182.573 70.0176L183.904 69.8347L184.855 76.7557L183.523 76.9386L182.573 70.0176ZM186.52 69.334C186.909 69.2807 187.268 69.2879 187.597 69.3556C187.927 69.4234 188.218 69.553 188.47 69.7444C188.722 69.9266 188.929 70.1713 189.094 70.4784C189.267 70.775 189.381 71.1267 189.437 71.5336L190.056 76.0412L188.738 76.2222L188.159 72.0058C188.084 71.4603 187.894 71.0719 187.589 70.8405C187.292 70.5987 186.876 70.5146 186.339 70.5883C185.923 70.6455 185.558 70.7946 185.242 71.0358C184.927 71.277 184.68 71.5746 184.503 71.9287C184.333 72.2723 184.253 72.6461 184.261 73.05L184.142 72.2891C184.138 71.9129 184.188 71.5574 184.293 71.2227C184.407 70.8868 184.563 70.5873 184.763 70.3244C184.97 70.051 185.223 69.8326 185.521 69.6692C185.817 69.4965 186.151 69.3848 186.52 69.334ZM194.675 75.548C194.074 75.6306 193.508 75.5529 192.976 75.3151C192.444 75.0773 191.998 74.7099 191.637 74.213C191.285 73.7056 191.061 73.1005 190.964 72.3978C190.868 71.695 190.921 71.0565 191.125 70.482C191.327 69.8984 191.648 69.421 192.087 69.0498C192.525 68.6694 193.058 68.436 193.687 68.3496C194.232 68.2747 194.698 68.3049 195.084 68.4403C195.47 68.5757 195.788 68.7958 196.037 69.1008C196.286 69.4057 196.482 69.7697 196.625 70.1929C196.777 70.6148 196.887 71.0754 196.956 71.5747C197.007 71.9445 197.014 72.3439 196.979 72.7727C196.944 73.2015 196.85 73.6148 196.697 74.0126C196.545 74.4104 196.304 74.7496 195.975 75.0303C195.645 75.3018 195.212 75.4743 194.675 75.548ZM194.892 74.3454C195.382 74.278 195.779 74.1152 196.082 73.8568C196.394 73.5879 196.608 73.2571 196.723 72.8643C196.839 72.4716 196.866 72.0487 196.803 71.5956C196.736 71.1056 196.589 70.6877 196.363 70.342C196.145 69.995 195.852 69.7432 195.482 69.5868C195.121 69.4291 194.7 69.3833 194.219 69.4493C193.498 69.5484 192.97 69.8564 192.636 70.3734C192.311 70.889 192.198 71.5029 192.296 72.2148C192.362 72.6957 192.517 73.1077 192.762 73.4509C193.006 73.7848 193.309 74.0352 193.671 74.2022C194.041 74.3586 194.448 74.4063 194.892 74.3454ZM195.946 65.3543L197.277 65.1713L198.609 74.8663L197.389 75.034C197.333 74.8344 197.271 74.5885 197.203 74.2964C197.143 74.0031 197.099 73.7501 197.07 73.5374L195.946 65.3543ZM199.976 72.3893L201.196 72.2216C201.293 72.5851 201.502 72.8674 201.822 73.0684C202.14 73.2602 202.558 73.3205 203.076 73.2494C203.409 73.2037 203.663 73.1311 203.837 73.0318C204.011 72.9231 204.125 72.7944 204.18 72.6455C204.244 72.4954 204.265 72.3371 204.242 72.1707C204.213 71.958 204.135 71.8038 204.009 71.7081C203.881 71.6031 203.711 71.5276 203.497 71.4816C203.282 71.4263 203.031 71.3808 202.744 71.3449C202.427 71.3036 202.108 71.2484 201.788 71.1794C201.468 71.1103 201.167 71.015 200.887 70.8934C200.616 70.7705 200.385 70.6043 200.197 70.3947C200.016 70.1746 199.902 69.8935 199.855 69.5514C199.815 69.2647 199.838 68.9883 199.924 68.7222C200.02 68.4547 200.171 68.2173 200.378 68.0099C200.593 67.7919 200.851 67.6151 201.153 67.4794C201.453 67.3345 201.793 67.2361 202.172 67.184C202.699 67.1116 203.156 67.1477 203.543 67.2923C203.929 67.4277 204.238 67.6538 204.47 67.9705C204.712 68.286 204.867 68.665 204.937 69.1075L203.772 69.2676C203.654 68.8881 203.482 68.6245 203.254 68.4768C203.025 68.3198 202.707 68.2692 202.3 68.3251C201.903 68.3797 201.609 68.5002 201.417 68.6866C201.226 68.873 201.149 69.1003 201.186 69.3685C201.214 69.5719 201.311 69.7282 201.477 69.8373C201.641 69.9372 201.854 70.0162 202.117 70.0744C202.379 70.1325 202.675 70.1909 203.003 70.2494C203.313 70.3105 203.609 70.3781 203.893 70.4522C204.184 70.5158 204.446 70.607 204.679 70.7257C204.92 70.8339 205.117 70.9954 205.269 71.21C205.429 71.4141 205.531 71.6826 205.577 72.0155C205.633 72.4224 205.58 72.7923 205.419 73.1254C205.256 73.4492 204.992 73.721 204.626 73.9408C204.27 74.1593 203.819 74.3061 203.274 74.381C202.774 74.4496 202.341 74.4479 201.973 74.376C201.614 74.3028 201.301 74.1856 201.034 74.0244C200.776 73.862 200.568 73.6834 200.41 73.4885C200.259 73.2831 200.146 73.0818 200.072 72.8848C200.007 72.6864 199.975 72.5213 199.976 72.3893ZM208.838 66.4096L213.318 65.7942L213.476 66.9454L208.996 67.5608L208.838 66.4096ZM210.168 64.3616L211.485 64.1806L212.687 72.9324L211.37 73.1134L210.168 64.3616ZM218.771 72.2522C218.096 72.3449 217.457 72.2867 216.854 72.0775C216.25 71.8683 215.745 71.5185 215.339 71.0279C214.932 70.5373 214.677 69.9176 214.574 69.1686C214.47 68.4104 214.548 67.7403 214.807 67.1582C215.065 66.567 215.456 66.0893 215.981 65.7251C216.506 65.361 217.105 65.1326 217.78 65.0399C218.455 64.9472 219.09 65.006 219.684 65.2164C220.278 65.4269 220.779 65.782 221.187 66.2818C221.594 66.7724 221.849 67.3968 221.953 68.155C222.056 68.904 221.978 69.5695 221.719 70.1515C221.459 70.7335 221.072 71.2059 220.557 71.5688C220.041 71.9316 219.446 72.1594 218.771 72.2522ZM218.613 71.101C219.029 71.0438 219.4 70.8986 219.726 70.6654C220.06 70.4217 220.309 70.1049 220.472 69.7151C220.643 69.3148 220.693 68.8557 220.622 68.3379C220.549 67.8108 220.377 67.3776 220.104 67.0383C219.841 66.6976 219.515 66.455 219.128 66.3103C218.75 66.1644 218.353 66.12 217.937 66.1772C217.521 66.2344 217.146 66.3848 216.812 66.6285C216.476 66.863 216.223 67.1804 216.052 67.5807C215.881 67.9811 215.832 68.4494 215.906 68.9857C215.977 69.5035 216.144 69.9327 216.408 70.2734C216.679 70.6035 217.009 70.8409 217.396 70.9855C217.782 71.1209 218.188 71.1594 218.613 71.101ZM230.84 70.5942C230.304 70.6679 229.84 70.6139 229.447 70.4323C229.055 70.2507 228.732 69.9889 228.477 69.647C228.223 69.3051 228.021 68.9324 227.872 68.529C227.722 68.1257 227.622 67.739 227.571 67.3692C227.502 66.8699 227.48 66.3972 227.503 65.9512C227.536 65.5039 227.631 65.0998 227.789 64.739C227.947 64.3782 228.193 64.0806 228.528 63.8461C228.864 63.6116 229.304 63.4569 229.849 63.382C230.45 63.2994 231.013 63.3823 231.537 63.6306C232.06 63.8697 232.502 64.2423 232.863 64.7485C233.234 65.2534 233.467 65.8526 233.563 66.5461C233.66 67.2581 233.599 67.9072 233.378 68.4933C233.156 69.0703 232.821 69.545 232.372 69.9174C231.933 70.2886 231.423 70.5142 230.84 70.5942ZM230.306 69.4806C230.75 69.4197 231.129 69.264 231.443 69.0136C231.756 68.7539 231.98 68.431 232.115 68.045C232.259 67.6485 232.297 67.2098 232.231 66.729C232.133 66.017 231.854 65.4572 231.393 65.0495C230.941 64.6405 230.354 64.4855 229.633 64.5846C229.199 64.6443 228.824 64.7994 228.51 65.0498C228.205 65.2989 227.981 65.6218 227.838 66.0183C227.694 66.4148 227.656 66.8581 227.723 67.3482C227.787 67.8105 227.927 68.2152 228.145 68.5622C228.37 68.8987 228.664 69.155 229.027 69.3312C229.39 69.4981 229.816 69.548 230.306 69.4806ZM225.916 64.0637L227.192 63.8884L227.462 65.4481L228.579 73.5757L227.247 73.7586L225.916 64.0637ZM238.303 69.555C237.711 69.6363 237.149 69.558 236.617 69.3202C236.085 69.0824 235.639 68.715 235.279 68.2181C234.917 67.7119 234.688 67.1075 234.592 66.4047C234.495 65.702 234.553 65.0628 234.766 64.4871C234.987 63.9009 235.331 63.4204 235.798 63.0454C236.263 62.6611 236.81 62.4258 237.439 62.3394C238.132 62.2442 238.691 62.3323 239.114 62.6039C239.547 62.8742 239.875 63.2719 240.098 63.7971C240.33 64.3211 240.492 64.9159 240.583 65.5817C240.634 65.9515 240.642 66.3509 240.607 66.7797C240.571 67.2085 240.477 67.6218 240.325 68.0196C240.172 68.4174 239.931 68.7566 239.602 69.0373C239.272 69.3088 238.839 69.4813 238.303 69.555ZM238.519 68.3524C239.009 68.285 239.406 68.1222 239.71 67.8638C240.021 67.5949 240.235 67.2641 240.351 66.8713C240.466 66.4786 240.493 66.0557 240.431 65.6026C240.363 65.1126 240.217 64.6947 239.99 64.3489C239.773 64.0019 239.479 63.7502 239.109 63.5938C238.748 63.4361 238.327 63.3903 237.847 63.4563C237.125 63.5554 236.598 63.8634 236.264 64.3804C235.939 64.896 235.825 65.5099 235.923 66.2218C235.989 66.7027 236.145 67.1147 236.39 67.4578C236.633 67.7918 236.936 68.0422 237.298 68.2092C237.668 68.3656 238.075 68.4133 238.519 68.3524ZM239.954 62.1352L241.286 61.9523L242.237 68.8733L241.016 69.041C241.016 69.041 240.995 68.959 240.954 68.7951C240.911 68.622 240.864 68.4165 240.813 68.1786C240.761 67.9407 240.723 67.7293 240.697 67.5444L239.954 62.1352ZM242.398 61.7995L243.813 61.6051L247.375 67.8848L246.262 68.3204L242.398 61.7995ZM249.458 60.8297L246.643 71.0943L245.242 71.2868L246.515 67.2823L248.057 61.0221L249.458 60.8297ZM253.017 60.3408L254.432 60.1464L257.994 66.4261L256.881 66.8617L253.017 60.3408ZM260.077 59.371L257.262 69.6356L255.861 69.828L257.134 65.8236L258.676 59.5634L260.077 59.371ZM265.297 65.861C264.622 65.9537 263.983 65.8955 263.38 65.6863C262.776 65.4772 262.271 65.1273 261.865 64.6367C261.458 64.1462 261.203 63.5264 261.1 62.7774C260.996 62.0192 261.074 61.3491 261.333 60.7671C261.591 60.1758 261.982 59.6981 262.507 59.334C263.032 58.9699 263.631 58.7414 264.306 58.6487C264.981 58.556 265.616 58.6148 266.21 58.8253C266.804 59.0357 267.305 59.3908 267.713 59.8906C268.12 60.3812 268.375 61.0056 268.479 61.7638C268.582 62.5128 268.504 63.1783 268.245 63.7603C267.985 64.3423 267.598 64.8148 267.083 65.1776C266.567 65.5405 265.972 65.7683 265.297 65.861ZM265.139 64.7098C265.555 64.6526 265.926 64.5075 266.252 64.2743C266.586 64.0305 266.835 63.7138 266.998 63.3239C267.169 62.9236 267.219 62.4645 267.148 61.9467C267.075 61.4197 266.903 60.9865 266.63 60.6471C266.366 60.3064 266.041 60.0638 265.654 59.9192C265.276 59.7732 264.879 59.7289 264.463 59.786C264.047 59.8432 263.672 59.9936 263.338 60.2373C263.002 60.4718 262.749 60.7892 262.578 61.1895C262.407 61.5899 262.358 62.0582 262.432 62.5945C262.503 63.1123 262.67 63.5415 262.934 63.8822C263.205 64.2123 263.535 64.4497 263.922 64.5943C264.308 64.7297 264.714 64.7682 265.139 64.7098ZM276.877 64.1148L275.56 64.2958L274.609 57.3748L275.927 57.1938L276.877 64.1148ZM275.181 61.0268L275.252 61.441C275.26 61.5625 275.252 61.7473 275.23 61.9953C275.215 62.2328 275.167 62.4985 275.085 62.7924C275.012 63.0851 274.892 63.3748 274.724 63.6616C274.565 63.9472 274.345 64.1942 274.062 64.4025C273.78 64.6109 273.422 64.7449 272.987 64.8046C272.691 64.8453 272.38 64.8456 272.055 64.8055C271.738 64.7642 271.437 64.6643 271.151 64.5057C270.866 64.3471 270.622 64.1121 270.419 63.8008C270.214 63.4803 270.077 63.0658 270.008 62.5572L269.394 58.0911L270.726 57.9082L271.301 62.0969C271.359 62.5222 271.47 62.8462 271.632 63.0688C271.804 63.2902 272.022 63.4346 272.285 63.502C272.549 63.5694 272.838 63.5815 273.152 63.5384C273.633 63.4723 274.02 63.3015 274.311 63.0258C274.611 62.7397 274.831 62.4175 274.97 62.0592C275.108 61.6917 275.178 61.3476 275.181 61.0268ZM277.67 56.9543L279.001 56.7714L279.952 63.6924L278.621 63.8753L277.67 56.9543ZM281.507 57.6283C281.026 57.6944 280.63 57.8619 280.319 58.1308C280.016 58.3984 279.786 58.708 279.627 59.0596C279.477 59.4099 279.39 59.7374 279.366 60.0422L279.243 59.2536C279.24 59.1598 279.243 59.0133 279.254 58.8141C279.272 58.6043 279.319 58.367 279.396 58.1021C279.473 57.8372 279.588 57.5811 279.743 57.3337C279.896 57.0772 280.101 56.8559 280.358 56.6698C280.615 56.4838 280.938 56.3641 281.326 56.3107L281.507 57.6283ZM291.575 59.8064L292.838 59.6331C292.826 60.0963 292.706 60.5273 292.478 60.926C292.25 61.3247 291.924 61.6615 291.501 61.9364C291.077 62.2113 290.56 62.3907 289.949 62.4745C289.228 62.5736 288.565 62.5093 287.959 62.2817C287.353 62.054 286.851 61.6943 286.454 61.2024C286.056 60.7106 285.809 60.1087 285.711 59.3967C285.612 58.6755 285.683 58.0251 285.924 57.4456C286.163 56.8569 286.539 56.3719 287.052 55.9905C287.565 55.6092 288.177 55.3696 288.889 55.2718C289.638 55.1689 290.287 55.2305 290.837 55.4565C291.386 55.6825 291.821 56.0703 292.141 56.6198C292.469 57.1588 292.67 57.8614 292.741 58.7277L287.069 59.507C287.172 59.9167 287.348 60.2694 287.596 60.5651C287.853 60.8595 288.165 61.0757 288.533 61.2136C288.909 61.3503 289.324 61.3875 289.777 61.3253C290.286 61.2554 290.695 61.0814 291.006 60.8032C291.316 60.5251 291.506 60.1928 291.575 59.8064ZM289.059 56.4072C288.458 56.4898 287.981 56.7202 287.628 57.0984C287.274 57.4674 287.068 57.9243 287.011 58.4692L291.269 57.8843C291.155 57.3253 290.892 56.9233 290.482 56.6782C290.07 56.4239 289.596 56.3335 289.059 56.4072ZM293.625 54.7625L294.957 54.5796L295.908 61.5006L294.576 61.6835L293.625 54.7625ZM297.573 54.0789C297.962 54.0256 298.321 54.0328 298.65 54.1006C298.98 54.1683 299.271 54.2979 299.523 54.4894C299.774 54.6715 299.982 54.9162 300.147 55.2233C300.32 55.5199 300.434 55.8716 300.49 56.2785L301.109 60.7861L299.791 60.9671L299.212 56.7507C299.137 56.2052 298.947 55.8168 298.642 55.5855C298.345 55.3436 297.929 55.2595 297.392 55.3332C296.976 55.3904 296.61 55.5395 296.295 55.7807C295.979 56.0219 295.733 56.3195 295.556 56.6736C295.386 57.0172 295.306 57.391 295.314 57.795L295.195 57.034C295.191 56.6578 295.241 56.3024 295.346 55.9677C295.46 55.6317 295.616 55.3322 295.816 55.0693C296.023 54.7959 296.276 54.5775 296.574 54.4141C296.87 54.2414 297.203 54.1297 297.573 54.0789ZM302.65 53.3816C303.038 53.3282 303.397 53.3355 303.726 53.4032C304.056 53.471 304.347 53.6006 304.6 53.792C304.851 53.9742 305.059 54.2189 305.223 54.526C305.396 54.8226 305.51 55.1743 305.566 55.5812L306.185 60.0888L304.868 60.2698L304.288 56.0534C304.213 55.5079 304.023 55.1194 303.718 54.8881C303.421 54.6463 303.005 54.5622 302.469 54.6359C302.052 54.693 301.687 54.8422 301.371 55.0834C301.056 55.3246 300.809 55.6222 300.632 55.9763C300.462 56.3199 300.382 56.6937 300.39 57.0976L300.27 56.3228C300.265 55.9466 300.316 55.5958 300.422 55.2703C300.536 54.9344 300.697 54.6343 300.906 54.3701C301.113 54.0967 301.366 53.8782 301.664 53.7148C301.96 53.5422 302.289 53.4311 302.65 53.3816ZM311.905 59.4585C311.369 59.5322 310.904 59.4782 310.512 59.2966C310.12 59.115 309.796 58.8532 309.542 58.5113C309.288 58.1694 309.086 57.7967 308.936 57.3933C308.787 56.9899 308.687 56.6033 308.636 56.2335C308.567 55.7341 308.545 55.2615 308.568 54.8155C308.601 54.3682 308.696 53.9641 308.854 53.6033C309.012 53.2425 309.258 52.9448 309.593 52.7104C309.928 52.4759 310.369 52.3212 310.914 52.2463C311.515 52.1637 312.078 52.2466 312.602 52.4949C313.125 52.734 313.567 53.1066 313.928 53.6128C314.299 54.1177 314.532 54.7169 314.628 55.4104C314.725 56.1224 314.664 56.7714 314.443 57.3576C314.221 57.9346 313.885 58.4093 313.437 58.7817C312.998 59.1529 312.488 59.3785 311.905 59.4585ZM311.371 58.3449C311.814 58.2839 312.193 58.1283 312.508 57.8778C312.821 57.6182 313.045 57.2953 313.18 56.9093C313.323 56.5128 313.362 56.0741 313.296 55.5933C313.198 54.8813 312.919 54.3215 312.458 53.9138C312.006 53.5048 311.419 53.3498 310.698 53.4489C310.263 53.5086 309.889 53.6637 309.575 53.9141C309.27 54.1632 309.046 54.4861 308.902 54.8826C308.759 55.2791 308.721 55.7224 308.788 56.2125C308.852 56.6748 308.992 57.0795 309.209 57.4265C309.435 57.763 309.729 58.0193 310.092 58.1955C310.454 58.3624 310.881 58.4122 311.371 58.3449ZM306.981 52.928L308.257 52.7527L308.527 54.3123L309.644 62.44L308.312 62.6229L306.981 52.928ZM315.298 48.9591L316.63 48.7762L317.962 58.4711L316.63 58.654L315.298 48.9591ZM323.228 57.9032C322.553 57.9959 321.914 57.9377 321.31 57.7285C320.707 57.5194 320.202 57.1695 319.795 56.6789C319.389 56.1883 319.134 55.5686 319.031 54.8196C318.927 54.0614 319.004 53.3913 319.264 52.8093C319.522 52.218 319.913 51.7403 320.437 51.3762C320.962 51.012 321.562 50.7836 322.237 50.6909C322.912 50.5982 323.547 50.657 324.141 50.8675C324.735 51.0779 325.236 51.433 325.644 51.9328C326.05 52.4234 326.306 53.0478 326.41 53.806C326.513 54.555 326.434 55.2205 326.175 55.8025C325.916 56.3845 325.529 56.857 325.013 57.2198C324.498 57.5827 323.903 57.8105 323.228 57.9032ZM323.07 56.752C323.486 56.6948 323.857 56.5496 324.183 56.3165C324.517 56.0727 324.765 55.756 324.928 55.3661C325.099 54.9658 325.149 54.5067 325.078 53.9889C325.006 53.4619 324.833 53.0287 324.561 52.6893C324.297 52.3486 323.972 52.106 323.584 51.9614C323.206 51.8154 322.809 51.7711 322.393 51.8282C321.977 51.8854 321.602 52.0358 321.268 52.2795C320.933 52.514 320.68 52.8314 320.509 53.2317C320.338 53.6321 320.289 54.1004 320.363 54.6367C320.434 55.1545 320.601 55.5837 320.864 55.9244C321.136 56.2545 321.465 56.4919 321.853 56.6365C322.239 56.7719 322.644 56.8104 323.07 56.752ZM326.47 50.2507L327.885 50.0564L331.447 56.3361L330.334 56.7716L326.47 50.2507ZM333.53 49.2809L330.715 59.5456L329.314 59.738L330.587 55.7335L332.129 49.4734L333.53 49.2809ZM340.418 53.0971L341.68 52.9237C341.668 53.387 341.548 53.8179 341.32 54.2167C341.092 54.6154 340.767 54.9522 340.343 55.2271C339.919 55.502 339.402 55.6814 338.792 55.7652C338.07 55.8643 337.407 55.8 336.801 55.5723C336.195 55.3447 335.693 54.9849 335.296 54.4931C334.899 54.0013 334.651 53.3993 334.553 52.6874C334.454 51.9661 334.525 51.3158 334.766 50.7363C335.005 50.1476 335.381 49.6625 335.894 49.2812C336.407 48.8998 337.019 48.6603 337.731 48.5625C338.48 48.4596 339.129 48.5212 339.679 48.7472C340.228 48.9732 340.663 49.361 340.983 49.9105C341.312 50.4495 341.512 51.1521 341.584 52.0184L335.911 52.7976C336.014 53.2074 336.19 53.5601 336.438 53.8558C336.695 54.1502 337.007 54.3664 337.375 54.5043C337.752 54.6409 338.166 54.6782 338.62 54.6159C339.128 54.5461 339.538 54.3721 339.848 54.0939C340.158 53.8157 340.348 53.4835 340.418 53.0971ZM337.902 49.6979C337.301 49.7804 336.823 50.0108 336.47 50.3891C336.116 50.7581 335.91 51.215 335.853 51.7598L340.111 51.1749C339.997 50.616 339.734 50.2139 339.324 49.9689C338.912 49.7145 338.438 49.6242 337.902 49.6979ZM348.45 51.9938L349.712 51.8204C349.7 52.2836 349.58 52.7146 349.352 53.1133C349.124 53.512 348.799 53.8489 348.375 54.1238C347.951 54.3987 347.434 54.578 346.824 54.6619C346.102 54.7609 345.439 54.6967 344.833 54.469C344.227 54.2413 343.725 53.8816 343.328 53.3898C342.931 52.8979 342.683 52.296 342.585 51.584C342.486 50.8628 342.557 50.2124 342.798 49.633C343.037 49.0442 343.413 48.5592 343.926 48.1778C344.439 47.7965 345.051 47.5569 345.763 47.4591C346.512 47.3562 347.161 47.4178 347.711 47.6438C348.26 47.8699 348.695 48.2576 349.015 48.8071C349.344 49.3461 349.544 50.0488 349.616 50.915L343.943 51.6943C344.046 52.104 344.222 52.4567 344.47 52.7524C344.727 53.0468 345.039 53.263 345.407 53.4009C345.783 53.5376 346.198 53.5748 346.652 53.5126C347.16 53.4427 347.57 53.2687 347.88 52.9906C348.19 52.7124 348.38 52.3801 348.45 51.9938ZM345.934 48.5945C345.333 48.6771 344.855 48.9075 344.502 49.2857C344.148 49.6547 343.942 50.1117 343.885 50.6565L348.143 50.0716C348.029 49.5126 347.766 49.1106 347.356 48.8655C346.944 48.6112 346.47 48.5209 345.934 48.5945ZM351.435 47.5845L350.7 47.6855L350.085 45.9893L349.933 44.8797L351.431 44.674L351.583 45.7836L351.435 47.5845ZM353.532 51.2956L354.752 51.1279C354.85 51.4914 355.058 51.7737 355.378 51.9748C355.696 52.1665 356.114 52.2269 356.632 52.1557C356.965 52.11 357.219 52.0375 357.393 51.9381C357.567 51.8295 357.681 51.7007 357.736 51.5519C357.8 51.4017 357.821 51.2435 357.798 51.077C357.769 50.8643 357.691 50.7102 357.565 50.6144C357.437 50.5095 357.267 50.434 357.053 50.388C356.838 50.3327 356.587 50.2871 356.3 50.2512C355.983 50.2099 355.665 50.1548 355.344 50.0857C355.024 50.0167 354.723 49.9213 354.443 49.7997C354.172 49.6768 353.941 49.5106 353.753 49.301C353.572 49.0809 353.458 48.7998 353.411 48.4577C353.371 48.1711 353.394 47.8947 353.48 47.6285C353.576 47.3611 353.727 47.1236 353.934 46.9162C354.149 46.6982 354.407 46.5214 354.709 46.3858C355.009 46.2409 355.349 46.1424 355.728 46.0903C356.255 46.0179 356.712 46.054 357.099 46.1987C357.485 46.3341 357.794 46.5601 358.026 46.8768C358.268 47.1923 358.423 47.5713 358.493 48.0139L357.328 48.1739C357.21 47.7944 357.038 47.5308 356.81 47.3831C356.581 47.2261 356.263 47.1756 355.856 47.2314C355.459 47.2861 355.165 47.4066 354.973 47.593C354.782 47.7794 354.705 48.0067 354.742 48.2748C354.77 48.4782 354.867 48.6345 355.033 48.7436C355.197 48.8435 355.41 48.9225 355.673 48.9807C355.935 49.0389 356.231 49.0972 356.559 49.1558C356.869 49.2168 357.165 49.2844 357.449 49.3585C357.74 49.4221 358.002 49.5133 358.235 49.632C358.476 49.7403 358.673 49.9017 358.825 50.1163C358.985 50.3205 359.087 50.589 359.133 50.9219C359.189 51.3287 359.136 51.6987 358.975 52.0317C358.812 52.3556 358.548 52.6274 358.182 52.8472C357.826 53.0657 357.375 53.2124 356.83 53.2873C356.33 53.3559 355.897 53.3543 355.529 53.2823C355.17 53.2091 354.857 53.0919 354.59 52.9308C354.332 52.7684 354.124 52.5897 353.966 52.3948C353.815 52.1894 353.702 51.9882 353.628 51.7911C353.563 51.5928 353.531 51.4276 353.532 51.2956ZM363.216 49.9653L364.437 49.7976C364.534 50.1611 364.742 50.4434 365.062 50.6444C365.38 50.8362 365.798 50.8965 366.316 50.8254C366.649 50.7797 366.903 50.7071 367.078 50.6078C367.251 50.4991 367.365 50.3704 367.42 50.2215C367.485 50.0714 367.505 49.9131 367.482 49.7467C367.453 49.534 367.375 49.3798 367.249 49.2841C367.122 49.1791 366.951 49.1036 366.738 49.0576C366.523 49.0023 366.272 48.9568 365.984 48.9209C365.667 48.8796 365.349 48.8244 365.029 48.7554C364.708 48.6863 364.408 48.591 364.127 48.4694C363.856 48.3465 363.626 48.1803 363.437 47.9707C363.256 47.7506 363.142 47.4695 363.095 47.1274C363.056 46.8407 363.079 46.5643 363.165 46.2982C363.26 46.0307 363.411 45.7933 363.618 45.5859C363.833 45.3679 364.091 45.1911 364.393 45.0554C364.694 44.9105 365.033 44.8121 365.412 44.76C365.939 44.6876 366.397 44.7237 366.784 44.8683C367.17 45.0037 367.479 45.2298 367.711 45.5465C367.952 45.862 368.108 46.241 368.178 46.6835L367.013 46.8436C366.895 46.4641 366.722 46.2005 366.494 46.0528C366.266 45.8958 365.948 45.8452 365.541 45.9011C365.143 45.9557 364.849 46.0762 364.658 46.2626C364.467 46.449 364.39 46.6763 364.427 46.9445C364.454 47.1479 364.551 47.3042 364.717 47.4133C364.881 47.5132 365.095 47.5922 365.357 47.6504C365.62 47.7086 365.915 47.7669 366.243 47.8254C366.553 47.8865 366.85 47.9541 367.133 48.0282C367.425 48.0918 367.687 48.183 367.92 48.3017C368.161 48.4099 368.357 48.5714 368.509 48.786C368.669 48.9901 368.772 49.2586 368.818 49.5915C368.874 49.9984 368.821 50.3683 368.659 50.7014C368.496 51.0252 368.232 51.297 367.867 51.5168C367.511 51.7353 367.06 51.8821 366.514 51.957C366.015 52.0256 365.581 52.0239 365.213 51.952C364.855 51.8788 364.542 51.7616 364.275 51.6004C364.017 51.438 363.809 51.2594 363.65 51.0645C363.499 50.8591 363.387 50.6578 363.313 50.4608C363.248 50.2624 363.216 50.0973 363.216 49.9653ZM373.343 51.0048C372.751 51.0861 372.19 51.0078 371.658 50.77C371.126 50.5322 370.68 50.1648 370.319 49.6679C369.958 49.1617 369.729 48.5573 369.632 47.8545C369.535 47.1518 369.594 46.5126 369.807 45.9369C370.028 45.3507 370.371 44.8701 370.838 44.4951C371.303 44.1109 371.851 43.8756 372.479 43.7892C373.173 43.694 373.731 43.7821 374.155 44.0537C374.588 44.3239 374.916 44.7217 375.138 45.2469C375.371 45.7709 375.532 46.3657 375.624 47.0315C375.675 47.4013 375.682 47.8006 375.647 48.2294C375.612 48.6582 375.518 49.0715 375.365 49.4693C375.213 49.8671 374.972 50.2064 374.643 50.4871C374.313 50.7585 373.88 50.9311 373.343 51.0048ZM373.56 49.8021C374.05 49.7348 374.447 49.572 374.75 49.3136C375.062 49.0447 375.275 48.7138 375.391 48.3211C375.507 47.9284 375.533 47.5055 375.471 47.0524C375.404 46.5623 375.257 46.1445 375.03 45.7987C374.813 45.4517 374.52 45.2 374.15 45.0436C373.789 44.8859 373.368 44.8401 372.887 44.9061C372.166 45.0052 371.638 45.3132 371.304 45.8301C370.979 46.3458 370.866 46.9596 370.964 47.6716C371.03 48.1524 371.185 48.5644 371.43 48.9076C371.674 49.2416 371.977 49.492 372.339 49.659C372.709 49.8154 373.116 49.8631 373.56 49.8021ZM374.995 43.585L376.326 43.4021L377.277 50.3231L376.057 50.4907C376.057 50.4907 376.036 50.4088 375.995 50.2449C375.952 50.0718 375.905 49.8662 375.853 49.6284C375.802 49.3905 375.763 49.1791 375.738 48.9942L374.995 43.585ZM377.821 40.3705L379.152 40.1876L380.484 49.8826L379.152 50.0655L377.821 40.3705ZM385.263 49.3674C384.671 49.4487 384.109 49.3705 383.577 49.1327C383.045 48.8948 382.599 48.5275 382.239 48.0305C381.877 47.5244 381.648 46.9199 381.551 46.2172C381.455 45.5145 381.513 44.8753 381.726 44.2996C381.947 43.7134 382.291 43.2328 382.757 42.8578C383.223 42.4736 383.77 42.2383 384.399 42.1519C385.092 42.0566 385.651 42.1448 386.074 42.4163C386.507 42.6866 386.835 43.0844 387.058 43.6096C387.29 44.1335 387.452 44.7284 387.543 45.3941C387.594 45.764 387.602 46.1633 387.566 46.5921C387.531 47.0209 387.437 47.4342 387.284 47.832C387.132 48.2298 386.891 48.5691 386.562 48.8498C386.232 49.1212 385.799 49.2938 385.263 49.3674ZM385.479 48.1648C385.969 48.0975 386.366 47.9346 386.67 47.6762C386.981 47.4073 387.195 47.0765 387.31 46.6838C387.426 46.2911 387.453 45.8682 387.391 45.4151C387.323 44.925 387.176 44.5071 386.95 44.1614C386.733 43.8144 386.439 43.5627 386.069 43.4063C385.708 43.2486 385.287 43.2027 384.806 43.2688C384.085 43.3679 383.557 43.6759 383.223 44.1928C382.899 44.7085 382.785 45.3223 382.883 46.0343C382.949 46.5151 383.104 46.9271 383.349 47.2703C383.593 47.6042 383.896 47.8547 384.258 48.0216C384.628 48.178 385.035 48.2258 385.479 48.1648ZM386.914 41.9476L388.246 41.7647L389.196 48.6857L387.976 48.8534C387.976 48.8534 387.955 48.7715 387.914 48.6076C387.871 48.4344 387.824 48.2289 387.773 47.991C387.721 47.7532 387.683 47.5418 387.657 47.3568L386.914 41.9476ZM389.982 41.5262L391.314 41.3433L392.265 48.2643L390.933 48.4472L389.982 41.5262ZM393.82 42.2002C393.339 42.2663 392.943 42.4337 392.631 42.7027C392.329 42.9703 392.098 43.2799 391.939 43.6315C391.789 43.9818 391.702 44.3093 391.678 44.6141L391.556 43.8254C391.552 43.7317 391.556 43.5852 391.566 43.3859C391.584 43.1762 391.632 42.9388 391.709 42.6739C391.785 42.409 391.901 42.1529 392.055 41.9056C392.208 41.649 392.414 41.4277 392.671 41.2417C392.928 41.0556 393.25 40.9359 393.639 40.8826L393.82 42.2002ZM394.234 40.9421L395.649 40.7478L399.211 47.0275L398.098 47.463L394.234 40.9421ZM401.294 39.9723L398.479 50.237L397.078 50.4294L398.351 46.4249L399.893 40.1648L401.294 39.9723ZM405.037 43.6694L404.711 41.2977L405.196 41.231C405.936 41.1294 406.465 40.9012 406.784 40.5466C407.11 40.1814 407.235 39.7168 407.158 39.1527C407.084 38.6164 406.86 38.2232 406.487 37.973C406.121 37.7124 405.68 37.6176 405.162 37.6887C404.82 37.7357 404.524 37.847 404.275 38.0225C404.034 38.1875 403.86 38.3998 403.755 38.6592C403.649 38.9187 403.618 39.2056 403.661 39.52L402.343 39.701C402.294 39.4064 402.292 39.1193 402.338 38.8397C402.393 38.5496 402.492 38.2769 402.636 38.0216C402.778 37.7571 402.962 37.5198 403.188 37.3098C403.423 37.0986 403.695 36.9199 404.004 36.7737C404.314 36.6275 404.663 36.5278 405.051 36.4744C405.542 36.4071 405.982 36.422 406.372 36.5191C406.771 36.615 407.118 36.7746 407.413 36.998C407.707 37.2213 407.943 37.4998 408.121 37.8333C408.308 38.1657 408.429 38.5352 408.485 38.9421C408.564 39.5154 408.51 40.0173 408.325 40.4479C408.139 40.8786 407.858 41.2328 407.481 41.5106C407.105 41.7884 406.666 41.99 406.166 42.1153L406.354 43.4884L405.037 43.6694ZM405.267 46.4782L405.071 45.0496L406.707 44.8248L406.904 46.2534L405.267 46.4782Z" fill="black"/>
</g>
<g filter="url(#filter0_f_4091_41979)">
<circle cx="42" cy="91.3594" r="13.8519" stroke="white" stroke-width="6.2963"/>
</g>
<circle cx="42.0016" cy="91.361" r="8.18518" fill="white"/>
</g>
<defs>
<filter id="filter0_f_4091_41979" x="19.963" y="69.3223" width="44.0741" height="44.0741" filterUnits="userSpaceOnUse" color-interpolation-filters="sRGB">
<feFlood flood-opacity="0" result="BackgroundImageFix"/>
<feBlend mode="normal" in="SourceGraphic" in2="BackgroundImageFix" result="shape"/>
<feGaussianBlur stdDeviation="2.51852" result="effect1_foregroundBlur_4091_41979"/>
</filter>
<clipPath id="clip0_4091_41979">
<rect width="480.45" height="128.206" fill="white"/>
</clipPath>
<clipPath id="clip1_4091_41979">
<rect y="64.8008" width="476.17" height="64" rx="32" transform="rotate(-7.82165 0 64.8008)" fill="white"/>
</clipPath>
</defs>
</svg>
