<svg width="875" height="338" viewBox="0 0 875 338" fill="none" xmlns="http://www.w3.org/2000/svg">
<g clip-path="url(#clip0_3999_41135)">
<path d="M3.79775 27.1313C3.18881 23.4721 6.01297 20.1426 9.72248 20.1464L734.712 20.8863C737.909 20.8896 740.542 23.3995 740.699 26.593L746.154 138.089C746.303 141.13 744.15 143.801 741.146 144.301L48.5585 259.556C45.2898 260.1 42.199 257.891 41.655 254.622L3.79775 27.1313Z" fill="url(#paint0_linear_3999_41135)" stroke="white" stroke-width="4"/>
<g opacity="0.35" filter="url(#filter0_f_3999_41135)">
<path d="M39.1551 55.0255C38.2728 50.167 41.9594 45.6772 46.8966 45.5971L713.729 34.7802C718.005 34.7108 721.579 38.0165 721.844 42.2847L728.024 142.101C728.275 146.147 725.458 149.742 721.469 150.466L85.588 265.941C81.2408 266.731 77.0767 263.847 76.2873 259.499L39.1551 55.0255Z" fill="#020518"/>
<path d="M39.6471 54.9361C38.8199 50.3813 42.276 46.1721 46.9047 46.097L713.737 35.2801C717.746 35.2151 721.097 38.3142 721.345 42.3156L727.525 142.131C727.76 145.925 725.119 149.295 721.379 149.974L85.4986 265.449C81.4231 266.189 77.5193 263.486 76.7792 259.41L39.6471 54.9361Z" stroke="white"/>
</g>
<path d="M48.7917 63.0287C48.1843 59.3787 50.9933 56.0542 54.6935 56.0438L797.052 53.9565C800.264 53.9475 802.914 56.4706 803.062 59.6798L808.21 171.201C808.35 174.237 806.198 176.898 803.201 177.396L93.5585 295.49C90.2898 296.033 87.199 293.825 86.655 290.556L48.7917 63.0287Z" fill="url(#paint1_linear_3999_41135)" stroke="white" stroke-width="4"/>
<g opacity="0.35" filter="url(#filter1_f_3999_41135)">
<path d="M77.7629 100.487C76.8825 95.6392 80.5521 91.1553 85.4786 91.0595L765.89 77.8299C770.183 77.7465 773.776 81.0669 774.031 85.3531L779.974 185.19C780.214 189.23 777.399 192.814 773.417 193.537L124.201 311.433C119.854 312.223 115.69 309.339 114.901 304.992L77.7629 100.487Z" fill="#020518"/>
<path d="M78.2549 100.398C77.4295 95.8529 80.8697 91.6492 85.4884 91.5594L765.899 78.3298C769.924 78.2516 773.293 81.3645 773.532 85.3828L779.474 185.22C779.7 189.007 777.061 192.367 773.328 193.045L124.112 310.941C120.036 311.682 116.133 308.978 115.393 304.902L78.2549 100.398Z" stroke="white"/>
</g>
<path d="M90.5156 102.403C89.9089 98.7574 92.7111 95.4352 96.4072 95.4185L846.729 92.0339C849.948 92.0194 852.605 94.5485 852.75 97.7648L857.756 209.298C857.892 212.331 855.742 214.987 852.747 215.486L135.285 334.88C132.016 335.424 128.926 333.215 128.382 329.946L90.5156 102.403Z" fill="url(#paint2_linear_3999_41135)" stroke="white" stroke-width="4"/>
<path d="M215.514 261.913L216.989 270.761L235.955 267.599L236.606 271.502L213.283 275.389L208.375 245.941L231.652 242.061L232.303 245.964L213.382 249.117L214.879 258.101L230.352 255.522L230.987 259.334L215.514 261.913ZM251.137 269.546C249.201 269.869 247.348 269.665 245.578 268.934C243.809 268.203 242.309 267.038 241.079 265.44C239.843 263.811 239.034 261.848 238.651 259.549C238.268 257.25 238.399 255.145 239.044 253.234C239.715 251.288 240.799 249.677 242.296 248.402C243.788 247.096 245.563 246.272 247.62 245.929C249.889 245.551 251.731 245.788 253.148 246.64C254.595 247.487 255.709 248.762 256.491 250.466C257.302 252.165 257.89 254.104 258.253 256.282C258.454 257.492 258.517 258.803 258.442 260.214C258.366 261.626 258.096 262.992 257.633 264.313C257.169 265.634 256.41 266.771 255.356 267.724C254.298 268.646 252.891 269.254 251.137 269.546ZM251.734 265.576C253.337 265.309 254.625 264.737 255.598 263.859C256.597 262.947 257.267 261.84 257.61 260.539C257.953 259.239 258.001 257.847 257.754 256.365C257.486 254.762 256.965 253.403 256.188 252.289C255.442 251.17 254.454 250.371 253.224 249.892C252.024 249.408 250.637 249.297 249.064 249.559C246.705 249.952 245.001 251.013 243.952 252.743C242.934 254.467 242.619 256.494 243.007 258.823C243.269 260.396 243.819 261.734 244.656 262.838C245.488 263.912 246.506 264.706 247.711 265.221C248.941 265.699 250.282 265.818 251.734 265.576ZM255.863 245.021L260.219 244.295L263.993 266.937L260 267.603C260 267.603 259.924 267.335 259.773 266.801C259.617 266.236 259.443 265.566 259.251 264.789C259.059 264.013 258.913 263.322 258.812 262.717L255.863 245.021ZM267.451 258.806L271.444 258.141C271.796 259.325 272.507 260.233 273.576 260.863C274.64 261.463 276.019 261.622 277.713 261.339C278.802 261.158 279.629 260.896 280.193 260.553C280.753 260.18 281.116 259.746 281.282 259.252C281.479 258.753 281.532 258.231 281.441 257.687C281.325 256.991 281.055 256.492 280.632 256.189C280.203 255.857 279.636 255.625 278.93 255.494C278.219 255.332 277.39 255.206 276.442 255.116C275.399 255.01 274.347 254.858 273.289 254.662C272.23 254.465 271.234 254.18 270.302 253.807C269.399 253.429 268.628 252.905 267.988 252.234C267.372 251.529 266.972 250.616 266.785 249.497C266.629 248.559 266.679 247.649 266.936 246.767C267.224 245.879 267.698 245.085 268.358 244.385C269.044 243.649 269.876 243.044 270.854 242.57C271.827 242.065 272.933 241.71 274.174 241.503C275.898 241.216 277.403 241.292 278.688 241.73C279.969 242.139 281.005 242.852 281.796 243.87C282.618 244.884 283.165 246.114 283.437 247.561L279.626 248.196C279.202 246.961 278.61 246.111 277.849 245.648C277.082 245.153 276.034 245.017 274.703 245.239C273.402 245.456 272.447 245.879 271.837 246.51C271.227 247.14 270.995 247.894 271.141 248.771C271.252 249.436 271.585 249.94 272.139 250.283C272.689 250.596 273.397 250.835 274.264 251.002C275.131 251.168 276.107 251.332 277.191 251.493C278.214 251.665 279.195 251.859 280.133 252.076C281.096 252.257 281.965 252.532 282.742 252.9C283.543 253.233 284.204 253.744 284.723 254.435C285.267 255.09 285.63 255.963 285.812 257.052C286.034 258.382 285.895 259.603 285.396 260.712C284.892 261.791 284.05 262.708 282.87 263.464C281.721 264.216 280.254 264.74 278.469 265.037C276.835 265.31 275.411 265.345 274.196 265.143C273.011 264.937 271.973 264.581 271.081 264.077C270.218 263.568 269.518 263.001 268.978 262.375C268.464 261.715 268.076 261.065 267.814 260.424C267.582 259.779 267.461 259.24 267.451 258.806ZM284.995 240.166L289.623 239.395L301.912 259.685L298.297 261.22L284.995 240.166ZM308.09 236.317L299.809 270.295L295.227 271.058L299.03 257.786L303.507 237.081L308.09 236.317ZM367.627 241.605L365.678 242.69L358.86 201.779L366.036 200.583L374.038 248.596L366.862 249.792L326.679 215.355L328.627 214.27L335.421 255.032L328.319 256.216L320.317 208.203L327.419 207.02L367.627 241.605ZM400.735 223.845C403.004 223.467 405.137 223.492 407.134 223.919C409.123 224.297 410.923 225.062 412.535 226.213C414.137 227.314 415.473 228.79 416.542 230.639C417.652 232.431 418.412 234.56 418.823 237.026C419.374 240.33 419.082 243.294 417.947 245.916C416.862 248.53 415.12 250.696 412.72 252.414C410.369 254.124 407.59 255.246 404.385 255.78C401.968 256.183 399.642 256.216 397.406 255.879C395.178 255.591 393.144 254.941 391.302 253.93C389.461 252.919 387.871 251.588 386.531 249.936C385.248 248.324 384.34 246.372 383.806 244.079L390.76 242.92C391.253 244.662 392.071 246.072 393.214 247.149C394.414 248.267 395.852 248.99 397.529 249.319C399.264 249.689 401.142 249.705 403.164 249.368C404.496 249.146 405.745 248.735 406.912 248.135C408.079 247.535 409.066 246.763 409.871 245.817C410.726 244.864 411.326 243.75 411.672 242.476C412.017 241.202 412.058 239.776 411.795 238.197C411.532 236.619 411.03 235.283 410.291 234.19C409.6 233.089 408.745 232.217 407.726 231.576C406.698 230.886 405.535 230.446 404.237 230.257C402.979 230.01 401.684 229.998 400.353 230.22C399.021 230.442 397.693 230.841 396.37 231.416C395.088 231.934 393.949 232.706 392.955 233.734C392.009 234.753 391.265 236.068 390.723 237.68L384.151 237.482L381.217 209.382L409.181 204.722L410.241 211.084L388.935 214.635L390.933 234.831L390.18 234.424C390.394 232.361 391.015 230.61 392.042 229.172C393.062 227.684 394.336 226.509 395.865 225.646C397.385 224.733 399.009 224.133 400.735 223.845ZM429.926 250.23L428.125 248.554C428.651 247.148 429.124 245.726 429.543 244.287C429.963 242.849 430.086 241.46 429.913 240.12L426.005 239.935L424.735 232.315L433.76 230.811L434.673 236.285C435.199 239.442 434.936 242.121 433.883 244.324C432.889 246.568 431.57 248.537 429.926 250.23ZM461.873 234.793C458.273 235.393 454.841 235.18 451.577 234.152C448.314 233.125 445.556 231.329 443.304 228.764C441.052 226.199 439.593 222.92 438.927 218.925C438.253 214.88 438.565 211.28 439.864 208.124C441.155 204.918 443.177 202.3 445.93 200.269C448.684 198.239 451.861 196.924 455.461 196.324C459.062 195.724 462.469 195.942 465.683 196.977C468.897 198.013 471.634 199.838 473.895 202.452C476.147 205.016 477.61 208.321 478.284 212.365C478.95 216.36 478.633 219.936 477.335 223.092C476.036 226.249 474.034 228.838 471.33 230.86C468.626 232.882 465.473 234.193 461.873 234.793ZM460.837 228.579C463.007 228.217 464.947 227.387 466.657 226.088C468.408 224.732 469.715 222.993 470.578 220.873C471.433 218.703 471.634 216.261 471.182 213.549C470.722 210.787 469.739 208.543 468.235 206.817C466.723 205.041 464.918 203.796 462.822 203.081C460.767 202.308 458.655 202.102 456.485 202.464C454.315 202.826 452.33 203.689 450.529 205.053C448.779 206.41 447.476 208.173 446.621 210.343C445.758 212.464 445.56 214.93 446.029 217.741C446.481 220.454 447.463 222.698 448.976 224.473C450.48 226.199 452.28 227.42 454.376 228.135C456.464 228.801 458.618 228.949 460.837 228.579ZM508.76 226.979C505.16 227.579 501.728 227.365 498.465 226.337C495.202 225.31 492.444 223.514 490.192 220.949C487.939 218.385 486.48 215.105 485.814 211.11C485.14 207.066 485.453 203.465 486.751 200.309C488.042 197.103 490.064 194.485 492.818 192.455C495.571 190.424 498.748 189.109 502.349 188.509C505.949 187.909 509.356 188.127 512.57 189.163C515.784 190.198 518.522 192.023 520.782 194.637C523.034 197.202 524.497 200.506 525.171 204.55C525.837 208.545 525.521 212.121 524.222 215.277C522.923 218.434 520.922 221.023 518.217 223.045C515.513 225.067 512.361 226.379 508.76 226.979ZM507.725 220.764C509.895 220.403 511.835 219.572 513.544 218.274C515.295 216.917 516.602 215.179 517.465 213.058C518.32 210.888 518.522 208.447 518.069 205.734C517.609 202.972 516.627 200.728 515.123 199.002C513.61 197.226 511.806 195.981 509.71 195.266C507.655 194.493 505.542 194.288 503.372 194.65C501.202 195.011 499.217 195.874 497.417 197.239C495.666 198.595 494.363 200.358 493.508 202.528C492.645 204.649 492.448 207.115 492.916 209.926C493.369 212.639 494.351 214.883 495.863 216.658C497.368 218.385 499.168 219.605 501.264 220.32C503.352 220.986 505.505 221.134 507.725 220.764ZM555.648 219.164C552.047 219.764 548.616 219.55 545.352 218.523C542.089 217.495 539.331 215.699 537.079 213.135C534.827 210.57 533.368 207.29 532.702 203.295C532.028 199.251 532.34 195.651 533.639 192.494C534.929 189.289 536.951 186.671 539.705 184.64C542.459 182.61 545.636 181.295 549.236 180.695C552.837 180.095 556.244 180.312 559.458 181.348C562.672 182.384 565.409 184.209 567.669 186.823C569.922 189.387 571.385 192.692 572.059 196.736C572.725 200.731 572.408 204.306 571.11 207.463C569.811 210.619 567.809 213.209 565.105 215.231C562.4 217.253 559.248 218.564 555.648 219.164ZM554.612 212.95C556.782 212.588 558.722 211.758 560.432 210.459C562.183 209.103 563.49 207.364 564.353 205.243C565.208 203.073 565.409 200.632 564.957 197.919C564.497 195.158 563.514 192.914 562.01 191.187C560.498 189.412 558.693 188.167 556.597 187.451C554.542 186.679 552.43 186.473 550.26 186.835C548.09 187.197 546.104 188.06 544.304 189.424C542.553 190.78 541.251 192.544 540.396 194.714C539.533 196.834 539.335 199.3 539.804 202.112C540.256 204.824 541.238 207.068 542.751 208.844C544.255 210.57 546.055 211.791 548.151 212.506C550.239 213.172 552.393 213.32 554.612 212.95ZM585.976 224.222L584.176 222.545C584.702 221.139 585.175 219.717 585.594 218.279C586.013 216.84 586.136 215.451 585.964 214.111L582.055 213.926L580.785 206.306L589.811 204.802L590.723 210.277C591.249 213.433 590.986 216.113 589.934 218.316C588.939 220.56 587.62 222.528 585.976 224.222ZM617.924 208.785C614.323 209.385 610.891 209.171 607.628 208.143C604.365 207.116 601.607 205.32 599.355 202.755C597.102 200.191 595.643 196.911 594.978 192.916C594.303 188.872 594.616 185.271 595.915 182.115C597.205 178.909 599.227 176.291 601.981 174.261C604.735 172.23 607.912 170.915 611.512 170.315C615.112 169.715 618.519 169.933 621.733 170.969C624.947 172.004 627.685 173.829 629.945 176.443C632.197 179.008 633.661 182.312 634.335 186.356C635 190.351 634.684 193.927 633.385 197.083C632.086 200.24 630.085 202.829 627.381 204.851C624.676 206.873 621.524 208.185 617.924 208.785ZM616.888 202.57C619.058 202.209 620.998 201.378 622.708 200.08C624.458 198.723 625.765 196.985 626.628 194.864C627.483 192.694 627.685 190.253 627.233 187.54C626.772 184.778 625.79 182.534 624.286 180.808C622.773 179.032 620.969 177.787 618.873 177.072C616.818 176.299 614.705 176.094 612.535 176.456C610.365 176.817 608.38 177.68 606.58 179.045C604.829 180.401 603.526 182.164 602.671 184.334C601.808 186.455 601.611 188.921 602.08 191.732C602.532 194.445 603.514 196.689 605.026 198.464C606.531 200.191 608.331 201.411 610.427 202.126C612.515 202.792 614.668 202.94 616.888 202.57ZM664.811 200.97C661.211 201.57 657.779 201.356 654.515 200.329C651.252 199.301 648.494 197.505 646.242 194.941C643.99 192.376 642.531 189.096 641.865 185.101C641.191 181.057 641.503 177.457 642.802 174.3C644.093 171.095 646.115 168.477 648.868 166.446C651.622 164.416 654.799 163.101 658.399 162.501C662 161.901 665.407 162.118 668.621 163.154C671.835 164.19 674.572 166.015 676.833 168.629C679.085 171.193 680.548 174.498 681.222 178.542C681.888 182.537 681.571 186.112 680.273 189.269C678.974 192.425 676.972 195.015 674.268 197.037C671.564 199.059 668.411 200.37 664.811 200.97ZM663.775 194.756C665.945 194.394 667.885 193.564 669.595 192.265C671.346 190.909 672.653 189.17 673.516 187.049C674.371 184.879 674.572 182.438 674.12 179.725C673.66 176.964 672.677 174.72 671.173 172.993C669.661 171.218 667.856 169.973 665.76 169.257C663.705 168.485 661.593 168.279 659.423 168.641C657.253 169.003 655.268 169.866 653.467 171.23C651.717 172.586 650.414 174.35 649.559 176.52C648.696 178.64 648.498 181.106 648.967 183.918C649.419 186.63 650.401 188.874 651.914 190.65C653.418 192.376 655.218 193.597 657.314 194.312C659.402 194.978 661.556 195.126 663.775 194.756ZM711.698 193.155C708.098 193.755 704.666 193.542 701.403 192.514C698.14 191.487 695.382 189.691 693.129 187.126C690.877 184.561 689.418 181.282 688.752 177.287C688.078 173.243 688.391 169.642 689.689 166.486C690.98 163.28 693.002 160.662 695.756 158.632C698.509 156.601 701.686 155.286 705.287 154.686C708.887 154.086 712.294 154.304 715.508 155.339C718.722 156.375 721.46 158.2 723.72 160.814C725.972 163.379 727.435 166.683 728.109 170.727C728.775 174.722 728.459 178.298 727.16 181.454C725.861 184.611 723.86 187.2 721.155 189.222C718.451 191.244 715.299 192.555 711.698 193.155ZM710.663 186.941C712.833 186.579 714.773 185.749 716.482 184.45C718.233 183.094 719.54 181.356 720.403 179.235C721.258 177.065 721.46 174.623 721.007 171.911C720.547 169.149 719.565 166.905 718.061 165.179C716.548 163.403 714.744 162.158 712.648 161.443C710.593 160.67 708.48 160.465 706.31 160.826C704.14 161.188 702.155 162.051 700.355 163.416C698.604 164.772 697.301 166.535 696.446 168.705C695.583 170.826 695.386 173.292 695.854 176.103C696.306 178.816 697.289 181.06 698.801 182.835C700.305 184.561 702.106 185.782 704.202 186.497C706.29 187.163 708.443 187.311 710.663 186.941Z" fill="white"/>
<path d="M200.115 214.947L198.898 207.267L202.809 206.647C203.75 206.498 204.497 206.562 205.051 206.839C205.612 207.106 205.945 207.572 206.05 208.236C206.117 208.662 206.072 209.018 205.915 209.302C205.764 209.577 205.521 209.806 205.185 209.989C204.849 210.163 204.442 210.305 203.965 210.413L204.001 210.334C204.35 210.287 204.683 210.267 205 210.273C205.323 210.27 205.613 210.314 205.871 210.402C206.135 210.49 206.353 210.638 206.524 210.846C206.701 211.044 206.818 211.322 206.874 211.677C206.949 212.151 206.893 212.561 206.705 212.907C206.516 213.253 206.226 213.542 205.833 213.774C205.44 213.998 204.971 214.161 204.429 214.264L200.115 214.947ZM201.284 213.583L204.045 213.146C204.559 213.064 204.944 212.914 205.201 212.695C205.457 212.469 205.554 212.166 205.494 211.786C205.447 211.486 205.325 211.283 205.13 211.176C204.934 211.061 204.694 211.006 204.412 211.01C204.137 211.013 203.845 211.039 203.537 211.088L200.953 211.497L201.284 213.583ZM200.775 210.371L203.252 209.979C203.766 209.898 204.147 209.748 204.396 209.53C204.652 209.304 204.749 208.997 204.687 208.609C204.627 208.23 204.443 207.984 204.133 207.871C203.83 207.749 203.454 207.724 203.003 207.795L200.431 208.202L200.775 210.371ZM214.595 212.653L213.279 212.862L212.345 206.959L213.66 206.751L214.595 212.653ZM212.906 210.041L212.978 210.419C212.978 210.524 212.967 210.684 212.944 210.898C212.929 211.111 212.882 211.349 212.802 211.613C212.729 211.868 212.615 212.12 212.461 212.372C212.313 212.614 212.112 212.828 211.858 213.014C211.602 213.192 211.277 213.312 210.882 213.375C210.598 213.42 210.303 213.426 209.998 213.394C209.703 213.368 209.422 213.286 209.158 213.15C208.901 213.013 208.678 212.805 208.488 212.527C208.298 212.249 208.167 211.881 208.095 211.423L207.509 207.725L208.824 207.517L209.371 210.966C209.43 211.337 209.535 211.62 209.687 211.815C209.846 212 210.043 212.119 210.278 212.171C210.513 212.223 210.777 212.225 211.069 212.179C211.488 212.113 211.829 211.962 212.091 211.726C212.353 211.49 212.55 211.22 212.68 210.916C212.816 210.602 212.892 210.311 212.906 210.041ZM215.48 210.521L216.7 210.327C216.811 210.618 217.012 210.837 217.303 210.985C217.592 211.126 217.958 211.161 218.401 211.091C218.685 211.046 218.901 210.979 219.049 210.891C219.205 210.801 219.306 210.696 219.352 210.576C219.405 210.454 219.421 210.322 219.398 210.179C219.371 210.006 219.298 209.879 219.181 209.801C219.071 209.721 218.916 209.665 218.716 209.631C218.517 209.598 218.271 209.581 217.979 209.578C217.675 209.553 217.374 209.52 217.076 209.478C216.778 209.436 216.504 209.37 216.255 209.28C216.005 209.182 215.797 209.045 215.631 208.869C215.472 208.683 215.369 208.444 215.323 208.152C215.281 207.883 215.302 207.633 215.386 207.401C215.478 207.16 215.622 206.946 215.82 206.761C216.017 206.576 216.26 206.42 216.547 206.294C216.834 206.159 217.155 206.064 217.511 206.007C218.024 205.926 218.464 205.941 218.83 206.054C219.204 206.164 219.502 206.356 219.723 206.629C219.952 206.9 220.098 207.23 220.159 207.617L218.997 207.801C218.884 207.495 218.725 207.285 218.521 207.172C218.317 207.058 218.033 207.03 217.669 207.088C217.306 207.145 217.039 207.252 216.87 207.409C216.7 207.565 216.633 207.754 216.668 207.975C216.694 208.141 216.775 208.266 216.91 208.35C217.051 208.425 217.242 208.48 217.482 208.515C217.723 208.55 218.003 208.578 218.322 208.6C218.619 208.634 218.901 208.675 219.168 208.722C219.433 208.761 219.674 208.828 219.892 208.923C220.116 209.009 220.303 209.141 220.453 209.32C220.603 209.499 220.701 209.734 220.747 210.027C220.805 210.39 220.755 210.718 220.599 211.01C220.451 211.301 220.206 211.546 219.865 211.746C219.523 211.938 219.095 212.074 218.581 212.156C218.131 212.227 217.732 212.238 217.384 212.187C217.043 212.136 216.75 212.045 216.502 211.914C216.262 211.782 216.068 211.63 215.92 211.459C215.771 211.289 215.66 211.12 215.585 210.954C215.518 210.786 215.483 210.642 215.48 210.521ZM222.404 202.802L222.605 204.071L221.029 204.32L220.828 203.052L222.404 202.802ZM221.342 205.534L222.67 205.324L223.605 211.226L222.277 211.437L221.342 205.534ZM224.246 205.074L225.561 204.866L226.496 210.768L225.18 210.977L224.246 205.074ZM228.029 204.341C228.369 204.288 228.689 204.286 228.988 204.335C229.296 204.384 229.568 204.491 229.805 204.656C230.048 204.811 230.247 205.023 230.403 205.29C230.567 205.555 230.679 205.882 230.74 206.269L231.332 210.003L230.016 210.211L229.466 206.738C229.39 206.256 229.215 205.919 228.942 205.728C228.675 205.527 228.293 205.466 227.795 205.545C227.416 205.605 227.081 205.743 226.791 205.959C226.508 206.166 226.288 206.415 226.132 206.707C225.975 206.991 225.905 207.29 225.922 207.603L225.809 206.965C225.802 206.667 225.845 206.376 225.938 206.094C226.03 205.804 226.17 205.539 226.359 205.299C226.546 205.05 226.781 204.843 227.062 204.677C227.344 204.511 227.666 204.399 228.029 204.341ZM237.408 207.048L238.676 206.847C238.676 207.26 238.575 207.644 238.372 208C238.176 208.347 237.879 208.646 237.481 208.895C237.082 209.136 236.586 209.304 235.994 209.398C235.322 209.504 234.702 209.477 234.134 209.316C233.565 209.147 233.093 208.857 232.721 208.446C232.348 208.035 232.111 207.514 232.011 206.882C231.912 206.258 231.972 205.689 232.191 205.177C232.409 204.664 232.755 204.241 233.229 203.907C233.71 203.571 234.291 203.35 234.97 203.242C235.673 203.131 236.278 203.165 236.784 203.344C237.297 203.513 237.708 203.829 238.016 204.291C238.322 204.744 238.516 205.349 238.595 206.106L233.392 206.93C233.484 207.256 233.638 207.539 233.854 207.781C234.077 208.012 234.355 208.179 234.687 208.28C235.018 208.374 235.388 208.388 235.799 208.323C236.258 208.25 236.626 208.099 236.906 207.868C237.193 207.636 237.36 207.363 237.408 207.048ZM235.104 204.314C234.566 204.4 234.145 204.604 233.84 204.928C233.534 205.243 233.362 205.615 233.324 206.042L237.129 205.44C237.027 205.002 236.795 204.686 236.432 204.493C236.068 204.291 235.625 204.232 235.104 204.314ZM239.624 206.697L240.845 206.503C240.955 206.794 241.156 207.013 241.447 207.161C241.737 207.302 242.103 207.337 242.545 207.267C242.829 207.222 243.046 207.155 243.194 207.067C243.35 206.977 243.45 206.872 243.496 206.752C243.55 206.63 243.565 206.498 243.543 206.355C243.515 206.182 243.443 206.055 243.325 205.977C243.215 205.897 243.06 205.841 242.861 205.807C242.661 205.774 242.415 205.756 242.123 205.754C241.82 205.729 241.519 205.696 241.22 205.654C240.922 205.612 240.649 205.546 240.399 205.456C240.149 205.358 239.941 205.221 239.775 205.045C239.616 204.859 239.514 204.62 239.467 204.328C239.425 204.059 239.446 203.809 239.531 203.577C239.622 203.336 239.767 203.122 239.964 202.937C240.161 202.752 240.404 202.596 240.692 202.47C240.978 202.335 241.299 202.24 241.655 202.183C242.168 202.102 242.608 202.117 242.974 202.23C243.348 202.34 243.646 202.532 243.867 202.805C244.097 203.076 244.242 203.406 244.303 203.793L243.142 203.977C243.028 203.671 242.87 203.461 242.665 203.348C242.461 203.234 242.177 203.206 241.814 203.264C241.45 203.321 241.184 203.428 241.014 203.585C240.845 203.741 240.777 203.93 240.812 204.151C240.839 204.317 240.919 204.442 241.054 204.526C241.195 204.601 241.386 204.656 241.627 204.691C241.867 204.725 242.147 204.754 242.466 204.776C242.763 204.81 243.045 204.851 243.312 204.898C243.577 204.937 243.819 205.004 244.036 205.099C244.26 205.185 244.447 205.317 244.597 205.496C244.747 205.675 244.845 205.91 244.891 206.203C244.949 206.566 244.9 206.894 244.743 207.186C244.595 207.477 244.35 207.722 244.01 207.922C243.667 208.114 243.239 208.25 242.726 208.332C242.275 208.403 241.876 208.413 241.528 208.363C241.188 208.312 240.894 208.221 240.646 208.09C240.407 207.958 240.213 207.806 240.064 207.635C239.916 207.464 239.804 207.296 239.729 207.13C239.662 206.962 239.627 206.818 239.624 206.697ZM245.77 205.723L246.991 205.53C247.101 205.82 247.302 206.039 247.593 206.188C247.883 206.328 248.249 206.363 248.691 206.293C248.976 206.248 249.192 206.182 249.34 206.093C249.496 206.004 249.597 205.899 249.642 205.778C249.696 205.656 249.711 205.524 249.689 205.382C249.661 205.208 249.589 205.082 249.471 205.003C249.361 204.924 249.206 204.867 249.007 204.834C248.807 204.801 248.561 204.783 248.269 204.781C247.966 204.756 247.665 204.722 247.367 204.681C247.068 204.639 246.795 204.573 246.545 204.483C246.295 204.385 246.087 204.247 245.921 204.071C245.762 203.886 245.66 203.647 245.613 203.355C245.571 203.086 245.592 202.835 245.677 202.603C245.768 202.362 245.913 202.149 246.11 201.964C246.307 201.779 246.55 201.623 246.838 201.496C247.124 201.362 247.445 201.266 247.801 201.21C248.315 201.129 248.754 201.144 249.12 201.256C249.494 201.367 249.792 201.559 250.013 201.831C250.243 202.103 250.388 202.432 250.449 202.819L249.288 203.003C249.175 202.697 249.016 202.488 248.811 202.374C248.607 202.261 248.323 202.233 247.96 202.29C247.596 202.348 247.33 202.455 247.16 202.611C246.991 202.768 246.923 202.957 246.958 203.178C246.985 203.344 247.065 203.469 247.2 203.553C247.341 203.628 247.532 203.682 247.773 203.717C248.013 203.752 248.293 203.781 248.613 203.803C248.91 203.837 249.191 203.877 249.458 203.924C249.723 203.963 249.965 204.03 250.182 204.125C250.407 204.211 250.594 204.344 250.743 204.522C250.893 204.701 250.991 204.937 251.038 205.229C251.095 205.593 251.046 205.92 250.889 206.212C250.741 206.503 250.497 206.748 250.156 206.948C249.813 207.14 249.385 207.277 248.872 207.358C248.422 207.429 248.022 207.44 247.674 207.39C247.334 207.338 247.04 207.247 246.792 207.116C246.553 206.984 246.359 206.833 246.21 206.662C246.062 206.491 245.95 206.322 245.875 206.156C245.808 205.989 245.773 205.844 245.77 205.723ZM261.207 202.926C261.239 203.439 261.146 203.899 260.927 204.307C260.708 204.714 260.381 205.049 259.945 205.313C259.516 205.575 259.002 205.754 258.401 205.849C257.753 205.951 257.146 205.926 256.579 205.773C256.02 205.618 255.55 205.336 255.169 204.927C254.789 204.518 254.546 203.985 254.442 203.329C254.339 202.673 254.404 202.092 254.64 201.585C254.876 201.078 255.235 200.66 255.717 200.333C256.208 200.004 256.777 199.788 257.425 199.686C258.026 199.59 258.571 199.605 259.06 199.73C259.549 199.847 259.959 200.062 260.292 200.374C260.625 200.685 260.855 201.09 260.983 201.588L259.774 201.78C259.573 201.382 259.277 201.097 258.885 200.924C258.5 200.742 258.07 200.689 257.596 200.764C257.209 200.825 256.866 200.961 256.567 201.17C256.267 201.372 256.042 201.638 255.892 201.97C255.748 202.292 255.712 202.674 255.782 203.117C255.851 203.552 256.004 203.904 256.241 204.174C256.486 204.443 256.782 204.627 257.13 204.726C257.477 204.817 257.843 204.832 258.231 204.77C258.752 204.688 259.161 204.505 259.456 204.224C259.758 203.933 259.939 203.564 259.998 203.117L261.207 202.926ZM261.536 196.738L262.852 196.53L264.162 204.803L262.847 205.011L261.536 196.738ZM271.912 203.575L270.596 203.784L269.661 197.881L270.977 197.673L271.912 203.575ZM270.222 200.963L270.294 201.341C270.295 201.446 270.284 201.606 270.261 201.82C270.246 202.033 270.199 202.271 270.119 202.535C270.046 202.789 269.932 203.042 269.778 203.294C269.63 203.536 269.429 203.75 269.175 203.936C268.919 204.114 268.594 204.234 268.199 204.297C267.915 204.342 267.62 204.348 267.315 204.315C267.019 204.289 266.739 204.208 266.475 204.072C266.218 203.934 265.995 203.727 265.805 203.449C265.615 203.171 265.484 202.803 265.411 202.345L264.826 198.647L266.141 198.439L266.688 201.888C266.746 202.259 266.852 202.542 267.004 202.737C267.163 202.922 267.36 203.041 267.595 203.093C267.83 203.144 268.094 203.147 268.386 203.101C268.805 203.035 269.146 202.883 269.408 202.648C269.67 202.412 269.866 202.142 269.996 201.838C270.133 201.524 270.208 201.233 270.222 200.963ZM272.796 201.443L274.017 201.249C274.128 201.54 274.329 201.759 274.619 201.907C274.909 202.048 275.275 202.083 275.717 202.013C276.002 201.968 276.218 201.901 276.366 201.813C276.522 201.723 276.623 201.618 276.669 201.498C276.722 201.376 276.738 201.244 276.715 201.101C276.688 200.928 276.615 200.801 276.497 200.723C276.387 200.643 276.233 200.587 276.033 200.553C275.833 200.52 275.588 200.502 275.296 200.5C274.992 200.475 274.691 200.442 274.393 200.4C274.095 200.358 273.821 200.292 273.572 200.202C273.321 200.104 273.113 199.967 272.948 199.791C272.789 199.605 272.686 199.366 272.64 199.074C272.597 198.805 272.618 198.555 272.703 198.323C272.795 198.082 272.939 197.868 273.136 197.683C273.334 197.498 273.576 197.342 273.864 197.216C274.151 197.081 274.472 196.986 274.827 196.929C275.341 196.848 275.781 196.863 276.147 196.976C276.521 197.086 276.818 197.278 277.04 197.551C277.269 197.822 277.414 198.152 277.476 198.539L276.314 198.723C276.201 198.417 276.042 198.207 275.838 198.094C275.634 197.98 275.35 197.952 274.986 198.01C274.623 198.067 274.356 198.174 274.187 198.331C274.017 198.487 273.95 198.676 273.985 198.897C274.011 199.063 274.092 199.188 274.226 199.272C274.368 199.347 274.559 199.402 274.799 199.437C275.04 199.471 275.32 199.5 275.639 199.522C275.936 199.556 276.218 199.597 276.484 199.644C276.75 199.683 276.991 199.75 277.209 199.845C277.433 199.931 277.62 200.063 277.77 200.242C277.92 200.421 278.018 200.656 278.064 200.949C278.121 201.312 278.072 201.64 277.916 201.932C277.768 202.223 277.523 202.468 277.182 202.668C276.84 202.86 276.412 202.996 275.898 203.078C275.448 203.149 275.049 203.159 274.701 203.109C274.36 203.058 274.066 202.967 273.819 202.836C273.579 202.704 273.385 202.552 273.237 202.381C273.088 202.21 272.976 202.042 272.901 201.876C272.834 201.708 272.799 201.564 272.796 201.443ZM278.161 196.535L282.333 195.874L282.504 196.953L278.332 197.614L278.161 196.535ZM279.332 194.721L280.659 194.511L281.846 202.002L280.518 202.212L279.332 194.721ZM288.833 198.903L290.101 198.702C290.102 199.115 290.001 199.499 289.798 199.855C289.602 200.202 289.305 200.501 288.907 200.75C288.508 200.991 288.012 201.159 287.419 201.253C286.748 201.359 286.128 201.332 285.559 201.171C284.99 201.002 284.519 200.712 284.146 200.301C283.773 199.89 283.537 199.369 283.437 198.737C283.338 198.113 283.397 197.544 283.616 197.032C283.835 196.519 284.181 196.096 284.654 195.762C285.136 195.426 285.716 195.205 286.396 195.097C287.099 194.986 287.704 195.02 288.21 195.199C288.723 195.368 289.133 195.684 289.441 196.146C289.748 196.599 289.941 197.204 290.02 197.961L284.817 198.785C284.909 199.111 285.063 199.394 285.28 199.636C285.503 199.868 285.78 200.034 286.112 200.135C286.443 200.229 286.814 200.243 287.225 200.178C287.683 200.105 288.052 199.954 288.331 199.723C288.618 199.492 288.786 199.218 288.833 198.903ZM286.529 196.169C285.992 196.255 285.57 196.459 285.265 196.783C284.959 197.099 284.787 197.47 284.749 197.897L288.554 197.295C288.452 196.857 288.22 196.542 287.857 196.348C287.493 196.146 287.05 196.087 286.529 196.169ZM290.683 194.552L291.999 194.343L292.933 200.246L291.618 200.454L290.683 194.552ZM294.31 195.131C293.884 195.199 293.531 195.348 293.251 195.579C292.98 195.808 292.774 196.067 292.633 196.357C292.493 196.646 292.407 196.919 292.374 197.175L292.257 196.514C292.251 196.425 292.258 196.291 292.278 196.109C292.297 195.92 292.337 195.711 292.398 195.483C292.467 195.253 292.569 195.027 292.703 194.803C292.844 194.57 293.028 194.371 293.253 194.205C293.485 194.039 293.772 193.929 294.111 193.875L294.31 195.131ZM295.494 197.848L296.715 197.654C296.825 197.945 297.026 198.164 297.317 198.312C297.607 198.453 297.973 198.488 298.415 198.418C298.699 198.373 298.916 198.306 299.064 198.218C299.22 198.128 299.32 198.023 299.366 197.903C299.42 197.781 299.435 197.649 299.413 197.506C299.385 197.333 299.313 197.206 299.195 197.128C299.085 197.048 298.93 196.992 298.731 196.958C298.531 196.925 298.285 196.907 297.993 196.905C297.69 196.88 297.389 196.847 297.09 196.805C296.792 196.763 296.519 196.697 296.269 196.607C296.019 196.509 295.811 196.372 295.645 196.196C295.486 196.01 295.384 195.771 295.337 195.479C295.295 195.21 295.316 194.96 295.401 194.728C295.492 194.487 295.636 194.273 295.834 194.088C296.031 193.903 296.274 193.747 296.562 193.621C296.848 193.486 297.169 193.391 297.525 193.334C298.038 193.253 298.478 193.268 298.844 193.381C299.218 193.491 299.516 193.683 299.737 193.956C299.967 194.227 300.112 194.557 300.173 194.944L299.012 195.128C298.898 194.822 298.74 194.612 298.535 194.499C298.331 194.385 298.047 194.357 297.684 194.415C297.32 194.472 297.054 194.579 296.884 194.736C296.715 194.892 296.647 195.081 296.682 195.302C296.709 195.468 296.789 195.593 296.924 195.677C297.065 195.752 297.256 195.807 297.497 195.842C297.737 195.877 298.017 195.905 298.336 195.927C298.633 195.961 298.915 196.002 299.182 196.049C299.447 196.088 299.689 196.155 299.906 196.25C300.13 196.336 300.317 196.468 300.467 196.647C300.617 196.826 300.715 197.061 300.761 197.354C300.819 197.717 300.77 198.045 300.613 198.337C300.465 198.628 300.22 198.873 299.88 199.073C299.537 199.265 299.109 199.401 298.596 199.483C298.145 199.554 297.746 199.565 297.398 199.514C297.058 199.463 296.764 199.372 296.516 199.241C296.277 199.109 296.083 198.957 295.934 198.786C295.786 198.616 295.674 198.447 295.599 198.281C295.532 198.113 295.497 197.969 295.494 197.848ZM308.102 197.977C307.446 198.081 306.838 198.056 306.279 197.901C305.72 197.747 305.254 197.464 304.881 197.053C304.509 196.643 304.27 196.109 304.166 195.454C304.064 194.806 304.126 194.229 304.354 193.723C304.58 193.209 304.935 192.789 305.418 192.461C305.9 192.133 306.47 191.918 307.125 191.814C307.781 191.71 308.385 191.74 308.938 191.903C309.49 192.067 309.949 192.359 310.316 192.779C310.689 193.189 310.926 193.719 311.029 194.367C311.133 195.022 311.071 195.603 310.843 196.109C310.623 196.614 310.275 197.025 309.799 197.344C309.323 197.662 308.757 197.873 308.102 197.977ZM307.931 196.898C308.31 196.838 308.646 196.708 308.938 196.508C309.23 196.308 309.444 196.043 309.578 195.714C309.72 195.384 309.757 195.005 309.69 194.579C309.622 194.152 309.47 193.804 309.232 193.533C309.003 193.262 308.718 193.072 308.377 192.964C308.042 192.847 307.682 192.819 307.294 192.881C306.907 192.942 306.568 193.077 306.277 193.285C305.986 193.493 305.766 193.763 305.616 194.094C305.474 194.424 305.437 194.807 305.506 195.241C305.573 195.668 305.726 196.017 305.963 196.287C306.2 196.557 306.489 196.742 306.828 196.842C307.176 196.941 307.544 196.96 307.931 196.898ZM311.737 191.217L313.053 191.009L313.987 196.911L312.672 197.12L311.737 191.217ZM315.364 191.797C314.938 191.864 314.585 192.013 314.305 192.244C314.034 192.473 313.828 192.733 313.687 193.022C313.547 193.312 313.461 193.585 313.428 193.841L313.311 193.179C313.305 193.091 313.312 192.956 313.332 192.775C313.351 192.585 313.391 192.377 313.452 192.148C313.521 191.919 313.623 191.692 313.757 191.468C313.898 191.235 314.082 191.036 314.306 190.871C314.539 190.704 314.826 190.594 315.165 190.54L315.364 191.797ZM325.839 192.689C325.871 193.202 325.778 193.663 325.559 194.07C325.34 194.477 325.013 194.813 324.576 195.076C324.148 195.338 323.634 195.517 323.033 195.612C322.385 195.715 321.778 195.689 321.211 195.536C320.652 195.382 320.182 195.1 319.801 194.69C319.421 194.281 319.178 193.748 319.074 193.092C318.97 192.437 319.036 191.855 319.272 191.348C319.507 190.841 319.867 190.424 320.349 190.096C320.84 189.767 321.409 189.552 322.057 189.449C322.658 189.354 323.203 189.369 323.692 189.494C324.181 189.611 324.591 189.825 324.924 190.137C325.257 190.449 325.487 190.854 325.615 191.352L324.406 191.543C324.205 191.146 323.909 190.861 323.517 190.688C323.132 190.506 322.702 190.452 322.228 190.527C321.841 190.589 321.498 190.724 321.199 190.933C320.899 191.135 320.673 191.401 320.524 191.733C320.38 192.055 320.344 192.438 320.414 192.88C320.482 193.315 320.635 193.667 320.873 193.937C321.118 194.206 321.414 194.39 321.762 194.489C322.108 194.58 322.475 194.595 322.862 194.534C323.384 194.451 323.792 194.269 324.088 193.987C324.39 193.696 324.571 193.327 324.63 192.881L325.839 192.689ZM330.521 194.426C329.866 194.53 329.258 194.505 328.699 194.35C328.14 194.196 327.674 193.913 327.301 193.502C326.928 193.092 326.69 192.558 326.586 191.903C326.484 191.255 326.546 190.678 326.774 190.172C327 189.658 327.355 189.238 327.837 188.91C328.32 188.582 328.889 188.367 329.545 188.263C330.201 188.159 330.805 188.189 331.358 188.352C331.91 188.516 332.369 188.808 332.735 189.228C333.108 189.638 333.346 190.168 333.449 190.816C333.552 191.472 333.491 192.052 333.263 192.558C333.043 193.063 332.695 193.474 332.219 193.793C331.743 194.111 331.177 194.322 330.521 194.426ZM330.351 193.348C330.73 193.287 331.066 193.157 331.358 192.957C331.65 192.757 331.863 192.492 331.998 192.163C332.14 191.833 332.177 191.455 332.109 191.028C332.042 190.601 331.889 190.253 331.652 189.982C331.423 189.711 331.138 189.521 330.797 189.413C330.462 189.296 330.101 189.268 329.714 189.33C329.327 189.391 328.988 189.526 328.697 189.734C328.406 189.942 328.185 190.212 328.035 190.543C327.893 190.873 327.857 191.256 327.925 191.69C327.993 192.117 328.145 192.466 328.383 192.736C328.62 193.006 328.908 193.191 329.248 193.291C329.596 193.39 329.963 193.409 330.351 193.348ZM334.157 187.666L335.472 187.458L336.407 193.36L335.092 193.569L334.157 187.666ZM337.941 186.933C338.28 186.879 338.6 186.877 338.9 186.927C339.207 186.976 339.479 187.082 339.716 187.247C339.959 187.403 340.159 187.615 340.314 187.882C340.478 188.147 340.59 188.474 340.652 188.861L341.243 192.594L339.927 192.803L339.377 189.33C339.301 188.848 339.126 188.511 338.853 188.32C338.586 188.119 338.204 188.058 337.706 188.137C337.327 188.197 336.992 188.335 336.702 188.551C336.419 188.758 336.2 189.007 336.043 189.299C335.886 189.583 335.816 189.882 335.833 190.195L335.72 189.557C335.713 189.258 335.756 188.968 335.849 188.686C335.941 188.396 336.081 188.131 336.27 187.89C336.457 187.642 336.692 187.435 336.973 187.269C337.255 187.103 337.577 186.991 337.941 186.933ZM342.646 186.188C342.994 186.133 343.317 186.13 343.617 186.18C343.916 186.23 344.184 186.337 344.421 186.502C344.664 186.658 344.868 186.869 345.031 187.134C345.195 187.4 345.307 187.727 345.369 188.114L345.96 191.847L344.633 192.057L344.083 188.585C344.006 188.103 343.831 187.766 343.558 187.574C343.291 187.374 342.909 187.313 342.411 187.391C342.032 187.452 341.698 187.59 341.408 187.806C341.125 188.012 340.905 188.262 340.749 188.554C340.599 188.837 340.533 189.135 340.55 189.448L340.421 188.788C340.416 188.497 340.464 188.21 340.564 187.927C340.664 187.636 340.808 187.37 340.997 187.129C341.186 186.889 341.417 186.686 341.69 186.522C341.972 186.355 342.29 186.244 342.646 186.188ZM346.472 185.716L347.788 185.507L348.722 191.41L347.407 191.618L346.472 185.716ZM350.256 184.983C350.596 184.929 350.915 184.927 351.215 184.977C351.522 185.025 351.794 185.132 352.031 185.297C352.274 185.453 352.474 185.664 352.63 185.931C352.793 186.197 352.906 186.523 352.967 186.91L353.558 190.644L352.243 190.852L351.693 187.379C351.616 186.897 351.441 186.561 351.168 186.369C350.901 186.168 350.519 186.107 350.021 186.186C349.642 186.246 349.308 186.384 349.018 186.6C348.735 186.807 348.515 187.057 348.359 187.349C348.201 187.633 348.131 187.931 348.148 188.245L348.035 187.606C348.028 187.308 348.071 187.017 348.164 186.735C348.256 186.445 348.396 186.18 348.585 185.94C348.773 185.691 349.007 185.484 349.289 185.318C349.57 185.152 349.892 185.04 350.256 184.983ZM354.961 184.237C355.309 184.182 355.633 184.18 355.932 184.229C356.231 184.279 356.5 184.387 356.736 184.552C356.98 184.707 357.183 184.918 357.347 185.184C357.51 185.45 357.623 185.776 357.684 186.163L358.275 189.897L356.948 190.107L356.398 186.634C356.322 186.152 356.147 185.815 355.873 185.624C355.607 185.423 355.224 185.362 354.727 185.441C354.347 185.501 354.013 185.639 353.723 185.855C353.44 186.062 353.22 186.311 353.064 186.603C352.914 186.886 352.848 187.184 352.865 187.497L352.737 186.837C352.731 186.547 352.779 186.26 352.88 185.976C352.979 185.685 353.124 185.419 353.312 185.179C353.501 184.938 353.732 184.736 354.006 184.571C354.287 184.405 354.606 184.294 354.961 184.237ZM365.873 188.693L364.558 188.902L363.623 182.999L364.939 182.791L365.873 188.693ZM364.184 186.081L364.256 186.459C364.256 186.564 364.245 186.724 364.222 186.938C364.208 187.151 364.16 187.389 364.081 187.653C364.008 187.907 363.894 188.16 363.739 188.412C363.591 188.654 363.39 188.868 363.136 189.054C362.881 189.232 362.556 189.352 362.161 189.415C361.876 189.46 361.581 189.466 361.277 189.433C360.981 189.407 360.701 189.326 360.436 189.19C360.18 189.052 359.956 188.845 359.766 188.567C359.577 188.289 359.446 187.921 359.373 187.463L358.787 183.765L360.103 183.557L360.649 187.006C360.708 187.377 360.813 187.66 360.966 187.855C361.125 188.04 361.322 188.159 361.557 188.211C361.792 188.262 362.055 188.265 362.348 188.219C362.767 188.153 363.107 188.001 363.369 187.765C363.632 187.53 363.828 187.26 363.958 186.955C364.095 186.642 364.17 186.351 364.184 186.081ZM366.392 182.561L367.707 182.352L368.642 188.255L367.327 188.463L366.392 182.561ZM370.176 181.828C370.515 181.774 370.835 181.772 371.134 181.822C371.442 181.87 371.714 181.977 371.951 182.142C372.194 182.298 372.394 182.509 372.549 182.776C372.713 183.042 372.825 183.368 372.887 183.755L373.478 187.489L372.162 187.697L371.612 184.224C371.536 183.742 371.361 183.406 371.088 183.214C370.821 183.013 370.439 182.952 369.941 183.031C369.562 183.091 369.227 183.229 368.937 183.445C368.654 183.652 368.435 183.902 368.278 184.194C368.121 184.478 368.051 184.776 368.068 185.09L367.955 184.451C367.948 184.153 367.991 183.862 368.084 183.58C368.176 183.291 368.316 183.025 368.505 182.785C368.692 182.536 368.927 182.329 369.208 182.163C369.49 181.997 369.812 181.885 370.176 181.828ZM375.141 178.611L375.342 179.88L373.765 180.129L373.564 178.861L375.141 178.611ZM374.079 181.343L375.407 181.133L376.341 187.035L375.014 187.246L374.079 181.343ZM376.567 180.949L380.739 180.288L380.91 181.367L376.738 182.028L376.567 180.949ZM377.738 179.135L379.066 178.925L380.252 186.416L378.925 186.626L377.738 179.135ZM382.919 177.379L383.12 178.648L381.543 178.897L381.342 177.629L382.919 177.379ZM381.857 180.111L383.185 179.901L384.119 185.803L382.792 186.014L381.857 180.111ZM390.318 182.829L391.586 182.628C391.587 183.041 391.486 183.426 391.283 183.782C391.087 184.129 390.79 184.427 390.392 184.676C389.993 184.918 389.497 185.085 388.904 185.179C388.232 185.286 387.613 185.258 387.044 185.097C386.475 184.928 386.004 184.638 385.631 184.227C385.258 183.817 385.022 183.295 384.922 182.663C384.823 182.039 384.882 181.471 385.101 180.958C385.32 180.446 385.666 180.022 386.139 179.688C386.621 179.353 387.201 179.131 387.881 179.023C388.584 178.912 389.189 178.946 389.695 179.125C390.208 179.295 390.618 179.61 390.926 180.072C391.233 180.526 391.426 181.131 391.505 181.888L386.302 182.712C386.394 183.037 386.548 183.321 386.765 183.562C386.988 183.794 387.265 183.961 387.597 184.062C387.928 184.155 388.299 184.169 388.71 184.104C389.168 184.032 389.537 183.88 389.816 183.65C390.103 183.418 390.271 183.144 390.318 182.829ZM388.014 180.096C387.477 180.181 387.055 180.385 386.75 180.709C386.444 181.025 386.272 181.396 386.234 181.823L390.039 181.221C389.937 180.783 389.705 180.468 389.342 180.274C388.978 180.073 388.535 180.013 388.014 180.096ZM392.534 182.478L393.755 182.285C393.866 182.575 394.067 182.794 394.357 182.943C394.647 183.083 395.013 183.118 395.455 183.048C395.74 183.003 395.956 182.936 396.104 182.848C396.26 182.759 396.361 182.654 396.407 182.533C396.46 182.411 396.476 182.279 396.453 182.137C396.426 181.963 396.353 181.837 396.235 181.758C396.125 181.678 395.971 181.622 395.771 181.589C395.571 181.556 395.326 181.538 395.034 181.535C394.73 181.511 394.429 181.477 394.131 181.435C393.833 181.394 393.559 181.328 393.31 181.237C393.059 181.139 392.851 181.002 392.686 180.826C392.527 180.641 392.424 180.402 392.378 180.109C392.335 179.841 392.356 179.59 392.441 179.358C392.532 179.117 392.677 178.904 392.874 178.719C393.072 178.533 393.314 178.377 393.602 178.251C393.889 178.116 394.21 178.021 394.565 177.965C395.079 177.883 395.519 177.899 395.885 178.011C396.259 178.122 396.556 178.314 396.778 178.586C397.007 178.858 397.152 179.187 397.214 179.574L396.052 179.758C395.939 179.452 395.78 179.242 395.576 179.129C395.372 179.016 395.088 178.988 394.724 179.045C394.361 179.103 394.094 179.21 393.925 179.366C393.755 179.523 393.688 179.712 393.723 179.933C393.749 180.099 393.83 180.224 393.964 180.308C394.106 180.382 394.297 180.437 394.537 180.472C394.778 180.507 395.057 180.535 395.377 180.558C395.674 180.592 395.956 180.632 396.222 180.679C396.488 180.718 396.729 180.785 396.947 180.88C397.171 180.966 397.358 181.098 397.508 181.277C397.657 181.456 397.756 181.692 397.802 181.984C397.859 182.347 397.81 182.675 397.654 182.967C397.505 183.258 397.261 183.503 396.92 183.703C396.578 183.895 396.15 184.032 395.636 184.113C395.186 184.184 394.787 184.195 394.438 184.145C394.098 184.093 393.804 184.002 393.557 183.871C393.317 183.739 393.123 183.588 392.975 183.417C392.826 183.246 392.714 183.077 392.639 182.911C392.572 182.743 392.537 182.599 392.534 182.478ZM407.971 179.681C408.004 180.194 407.911 180.654 407.692 181.061C407.473 181.469 407.145 181.804 406.709 182.068C406.281 182.33 405.766 182.508 405.166 182.604C404.518 182.706 403.91 182.681 403.343 182.528C402.784 182.373 402.314 182.091 401.934 181.682C401.553 181.272 401.311 180.74 401.207 180.084C401.103 179.428 401.169 178.847 401.404 178.339C401.64 177.832 401.999 177.415 402.482 177.088C402.972 176.759 403.542 176.543 404.19 176.44C404.79 176.345 405.335 176.36 405.825 176.485C406.313 176.602 406.724 176.817 407.056 177.128C407.389 177.44 407.62 177.845 407.747 178.343L406.538 178.535C406.337 178.137 406.041 177.852 405.649 177.679C405.264 177.497 404.834 177.444 404.36 177.519C403.973 177.58 403.63 177.716 403.331 177.925C403.031 178.126 402.806 178.393 402.656 178.724C402.513 179.047 402.476 179.429 402.546 179.872C402.615 180.306 402.768 180.659 403.005 180.929C403.25 181.198 403.547 181.382 403.894 181.481C404.241 181.572 404.608 181.586 404.995 181.525C405.516 181.442 405.925 181.26 406.22 180.979C406.523 180.688 406.703 180.319 406.762 179.872L407.971 179.681ZM412.144 181.498C411.607 181.583 411.092 181.531 410.601 181.342C410.117 181.151 409.704 180.848 409.363 180.432C409.029 180.007 408.814 179.495 408.719 178.894C408.621 178.278 408.67 177.719 408.866 177.218C409.061 176.71 409.367 176.289 409.784 175.955C410.201 175.622 410.694 175.41 411.263 175.32C411.895 175.22 412.419 175.279 412.834 175.497C413.249 175.714 413.572 176.044 413.804 176.485C414.036 176.926 414.198 177.435 414.289 178.012C414.34 178.336 414.348 178.687 414.31 179.065C414.272 179.436 414.174 179.792 414.018 180.132C413.869 180.472 413.64 180.767 413.332 181.019C413.03 181.261 412.634 181.421 412.144 181.498ZM412.374 180.344C412.817 180.274 413.179 180.132 413.461 179.917C413.75 179.693 413.949 179.418 414.06 179.093C414.178 178.767 414.207 178.414 414.147 178.034C414.081 177.616 413.941 177.273 413.729 177.007C413.516 176.733 413.242 176.541 412.909 176.432C412.575 176.315 412.186 176.292 411.744 176.362C411.112 176.462 410.651 176.725 410.362 177.152C410.073 177.578 409.976 178.087 410.07 178.68C410.131 179.067 410.269 179.398 410.482 179.672C410.703 179.945 410.977 180.14 411.304 180.258C411.63 180.377 411.987 180.405 412.374 180.344ZM413.678 175.071L415.005 174.861L415.94 180.763L414.707 180.959C414.707 180.959 414.688 180.885 414.648 180.737C414.608 180.59 414.564 180.41 414.514 180.2C414.463 179.981 414.422 179.773 414.391 179.575L413.678 175.071ZM416.451 174.632L417.767 174.424L418.702 180.326L417.386 180.534L416.451 174.632ZM420.235 173.899C420.575 173.845 420.895 173.843 421.194 173.893C421.501 173.941 421.773 174.048 422.01 174.213C422.254 174.369 422.453 174.58 422.609 174.847C422.772 175.113 422.885 175.439 422.946 175.827L423.537 179.56L422.222 179.769L421.672 176.296C421.595 175.814 421.421 175.477 421.147 175.285C420.881 175.085 420.498 175.024 420.001 175.103C419.621 175.163 419.287 175.301 418.997 175.517C418.714 175.723 418.494 175.973 418.338 176.265C418.18 176.549 418.11 176.848 418.128 177.161L418.014 176.523C418.007 176.224 418.051 175.934 418.144 175.652C418.235 175.362 418.376 175.097 418.564 174.856C418.752 174.608 418.986 174.401 419.268 174.234C419.549 174.068 419.872 173.957 420.235 173.899ZM430.209 177.568C429.656 177.656 429.138 177.636 428.657 177.51C428.183 177.383 427.786 177.15 427.465 176.812C427.152 176.473 426.953 176.038 426.87 175.509C426.786 174.98 426.836 174.502 427.019 174.076C427.211 173.649 427.511 173.293 427.92 173.01C428.336 172.725 428.829 172.538 429.398 172.448C429.564 172.422 429.724 172.408 429.878 172.408C430.039 172.407 430.194 172.415 430.343 172.432L433.106 172.006L433.281 173.108C432.903 173.176 432.512 173.186 432.107 173.136C431.709 173.078 431.354 173.009 431.041 172.929L430.994 172.863C431.284 172.955 431.552 173.083 431.796 173.246C432.048 173.401 432.256 173.591 432.421 173.816C432.586 174.041 432.693 174.307 432.742 174.615C432.825 175.137 432.769 175.603 432.575 176.015C432.389 176.425 432.09 176.764 431.679 177.031C431.276 177.298 430.786 177.477 430.209 177.568ZM432.631 180.586L432.588 180.314C432.526 179.926 432.369 179.672 432.114 179.55C431.86 179.429 431.528 179.4 431.117 179.465L429.517 179.719C429.201 179.769 428.924 179.784 428.686 179.765C428.457 179.753 428.267 179.706 428.117 179.625C427.967 179.551 427.85 179.452 427.766 179.328C427.683 179.211 427.629 179.074 427.604 178.916C427.554 178.6 427.611 178.348 427.775 178.16C427.948 177.971 428.188 177.827 428.497 177.73C428.813 177.631 429.152 177.569 429.513 177.545L430.209 177.568C429.745 177.658 429.396 177.757 429.163 177.867C428.936 177.968 428.838 178.117 428.869 178.315C428.888 178.433 428.95 178.521 429.056 178.577C429.162 178.633 429.302 178.647 429.476 178.62L431.159 178.353C431.641 178.277 432.073 178.265 432.454 178.318C432.836 178.379 433.147 178.528 433.387 178.766C433.636 179.01 433.799 179.369 433.874 179.843L433.958 180.376L432.631 180.586ZM430.045 176.537C430.362 176.487 430.633 176.383 430.859 176.226C431.085 176.068 431.252 175.868 431.359 175.624C431.466 175.38 431.495 175.1 431.445 174.784C431.394 174.468 431.28 174.207 431.102 174C430.923 173.794 430.702 173.651 430.438 173.571C430.175 173.491 429.885 173.476 429.569 173.526C429.26 173.575 428.989 173.679 428.755 173.837C428.529 173.995 428.363 174.199 428.257 174.451C428.15 174.695 428.122 174.979 428.173 175.303C428.223 175.619 428.337 175.876 428.514 176.075C428.692 176.273 428.912 176.413 429.176 176.492C429.44 176.572 429.729 176.587 430.045 176.537ZM439.648 175.016L440.916 174.815C440.917 175.228 440.816 175.613 440.613 175.969C440.417 176.316 440.12 176.614 439.722 176.863C439.323 177.104 438.827 177.272 438.235 177.366C437.563 177.472 436.943 177.445 436.375 177.284C435.805 177.115 435.334 176.825 434.961 176.414C434.589 176.004 434.352 175.482 434.252 174.85C434.153 174.226 434.213 173.657 434.431 173.145C434.65 172.632 434.996 172.209 435.469 171.875C435.951 171.539 436.531 171.318 437.211 171.21C437.914 171.099 438.519 171.133 439.025 171.312C439.538 171.482 439.948 171.797 440.256 172.259C440.563 172.712 440.756 173.318 440.836 174.075L435.633 174.899C435.725 175.224 435.879 175.508 436.095 175.749C436.318 175.981 436.596 176.147 436.928 176.249C437.258 176.342 437.629 176.356 438.04 176.291C438.498 176.219 438.867 176.067 439.146 175.836C439.434 175.605 439.601 175.331 439.648 175.016ZM437.344 172.283C436.807 172.368 436.386 172.572 436.081 172.896C435.774 173.212 435.602 173.583 435.565 174.01L439.369 173.408C439.268 172.97 439.035 172.655 438.673 172.461C438.309 172.26 437.866 172.2 437.344 172.283ZM440.991 170.745L445.163 170.084L445.334 171.163L441.162 171.824L440.991 170.745ZM442.162 168.932L443.489 168.722L444.676 176.212L443.348 176.422L442.162 168.932ZM455.855 172.097C455.887 172.61 455.794 173.07 455.575 173.477C455.356 173.885 455.029 174.22 454.592 174.484C454.164 174.746 453.65 174.924 453.049 175.02C452.401 175.122 451.794 175.097 451.227 174.944C450.668 174.789 450.198 174.507 449.817 174.098C449.437 173.688 449.194 173.156 449.09 172.5C448.987 171.844 449.052 171.263 449.288 170.755C449.524 170.248 449.883 169.831 450.365 169.504C450.856 169.175 451.425 168.959 452.073 168.856C452.674 168.761 453.219 168.776 453.708 168.901C454.197 169.018 454.607 169.233 454.94 169.544C455.273 169.856 455.503 170.261 455.631 170.759L454.422 170.951C454.221 170.553 453.925 170.268 453.533 170.095C453.148 169.913 452.718 169.86 452.244 169.935C451.857 169.996 451.514 170.132 451.215 170.341C450.915 170.542 450.69 170.809 450.54 171.14C450.396 171.463 450.36 171.845 450.43 172.288C450.499 172.722 450.652 173.075 450.889 173.345C451.134 173.614 451.43 173.798 451.778 173.897C452.124 173.988 452.491 174.002 452.878 173.941C453.4 173.858 453.809 173.676 454.104 173.395C454.406 173.104 454.587 172.735 454.646 172.288L455.855 172.097ZM456.441 168.298L457.757 168.09L458.692 173.992L457.376 174.201L456.441 168.298ZM460.068 168.878C459.642 168.945 459.289 169.095 459.009 169.325C458.738 169.554 458.532 169.814 458.391 170.103C458.251 170.393 458.165 170.666 458.132 170.922L458.015 170.26C458.009 170.172 458.017 170.037 458.036 169.856C458.055 169.667 458.095 169.458 458.156 169.229C458.225 169 458.327 168.773 458.461 168.549C458.603 168.316 458.786 168.117 459.011 167.952C459.243 167.786 459.53 167.675 459.869 167.622L460.068 168.878ZM466.443 170.772L467.711 170.571C467.712 170.984 467.611 171.369 467.408 171.725C467.212 172.072 466.915 172.37 466.517 172.619C466.118 172.861 465.622 173.028 465.029 173.122C464.358 173.228 463.738 173.201 463.17 173.04C462.6 172.871 462.129 172.581 461.756 172.17C461.383 171.76 461.147 171.238 461.047 170.606C460.948 169.982 461.008 169.414 461.226 168.901C461.445 168.389 461.791 167.965 462.264 167.631C462.746 167.296 463.326 167.074 464.006 166.966C464.709 166.855 465.314 166.889 465.82 167.068C466.333 167.238 466.743 167.553 467.051 168.015C467.358 168.469 467.551 169.074 467.631 169.831L462.427 170.655C462.519 170.98 462.674 171.264 462.89 171.505C463.113 171.737 463.391 171.903 463.723 172.005C464.053 172.098 464.424 172.112 464.835 172.047C465.293 171.975 465.662 171.823 465.941 171.593C466.229 171.361 466.396 171.087 466.443 170.772ZM464.139 168.039C463.602 168.124 463.181 168.328 462.876 168.652C462.569 168.968 462.397 169.339 462.36 169.766L466.164 169.164C466.063 168.726 465.83 168.411 465.468 168.217C465.104 168.016 464.661 167.956 464.139 168.039ZM471.88 172.037C471.335 172.123 470.816 172.072 470.325 171.882C469.841 171.692 469.432 171.388 469.099 170.971C468.764 170.546 468.55 170.033 468.454 169.433C468.357 168.817 468.398 168.259 468.578 167.761C468.765 167.253 469.055 166.835 469.449 166.505C469.85 166.174 470.335 165.964 470.904 165.874C471.402 165.795 471.834 165.812 472.2 165.924C472.564 166.028 472.868 166.207 473.111 166.46C473.352 166.705 473.546 167.007 473.691 167.364C473.845 167.721 473.956 168.116 474.025 168.551C474.076 168.875 474.083 169.226 474.046 169.604C474.008 169.975 473.91 170.33 473.753 170.671C473.605 171.011 473.376 171.306 473.068 171.557C472.766 171.8 472.37 171.959 471.88 172.037ZM472.11 170.883C472.553 170.813 472.915 170.67 473.197 170.456C473.485 170.232 473.685 169.957 473.795 169.632C473.914 169.305 473.943 168.952 473.883 168.573C473.816 168.154 473.677 167.812 473.465 167.546C473.251 167.272 472.978 167.076 472.643 166.959C472.309 166.842 471.92 166.819 471.478 166.889C470.846 166.989 470.386 167.256 470.098 167.69C469.809 168.117 469.712 168.626 469.806 169.219C469.867 169.606 470.004 169.937 470.218 170.211C470.439 170.483 470.713 170.679 471.04 170.797C471.366 170.916 471.723 170.944 472.11 170.883ZM473.038 163.24L474.366 163.029L475.676 171.302L474.443 171.497C474.399 171.318 474.343 171.096 474.277 170.831C474.211 170.566 474.161 170.327 474.127 170.114L473.038 163.24ZM477.563 162.389L477.764 163.657L476.188 163.907L475.987 162.639L477.563 162.389ZM476.502 165.121L477.829 164.911L478.764 170.813L477.436 171.023L476.502 165.121ZM478.99 164.727L483.162 164.066L483.333 165.145L479.161 165.805L478.99 164.727ZM480.161 162.913L481.488 162.703L482.675 170.194L481.347 170.404L480.161 162.913ZM491.025 169.005C490.369 169.109 489.761 169.083 489.202 168.929C488.643 168.775 488.177 168.492 487.804 168.081C487.432 167.671 487.193 167.137 487.089 166.481C486.987 165.833 487.049 165.257 487.277 164.751C487.503 164.237 487.858 163.816 488.341 163.489C488.823 163.161 489.393 162.946 490.048 162.842C490.704 162.738 491.308 162.768 491.861 162.931C492.413 163.095 492.872 163.387 493.239 163.807C493.611 164.217 493.849 164.747 493.952 165.394C494.056 166.05 493.994 166.631 493.766 167.137C493.546 167.642 493.198 168.053 492.722 168.371C492.246 168.69 491.68 168.901 491.025 169.005ZM490.854 167.926C491.233 167.866 491.569 167.736 491.861 167.536C492.153 167.336 492.367 167.071 492.501 166.742C492.643 166.412 492.68 166.033 492.613 165.607C492.545 165.18 492.393 164.831 492.155 164.561C491.926 164.29 491.641 164.1 491.3 163.992C490.965 163.875 490.605 163.847 490.217 163.908C489.83 163.97 489.491 164.104 489.2 164.313C488.909 164.521 488.689 164.79 488.539 165.122C488.396 165.452 488.36 165.835 488.429 166.269C488.496 166.696 488.649 167.044 488.886 167.315C489.123 167.585 489.412 167.77 489.751 167.87C490.099 167.969 490.467 167.988 490.854 167.926ZM494.164 162.396L498.442 161.719L498.611 162.785L494.333 163.463L494.164 162.396ZM497.179 159.416L498.151 159.262L498.331 160.4L497.596 160.516C497.373 160.544 497.184 160.598 497.026 160.679C496.877 160.76 496.767 160.883 496.696 161.048C496.633 161.212 496.623 161.432 496.667 161.708L497.636 167.824L496.308 168.034L495.321 161.8C495.246 161.326 495.271 160.925 495.398 160.597C495.524 160.269 495.738 160.009 496.039 159.815C496.348 159.62 496.728 159.487 497.179 159.416ZM509.235 165.987L507.919 166.195L506.984 160.293L508.3 160.085L509.235 165.987ZM507.545 163.375L507.617 163.753C507.618 163.858 507.607 164.017 507.584 164.232C507.569 164.445 507.522 164.683 507.442 164.947C507.369 165.201 507.255 165.454 507.101 165.705C506.953 165.948 506.752 166.162 506.498 166.348C506.242 166.526 505.917 166.646 505.522 166.709C505.238 166.754 504.943 166.76 504.638 166.727C504.342 166.701 504.062 166.62 503.798 166.484C503.541 166.346 503.318 166.139 503.128 165.861C502.938 165.583 502.807 165.215 502.734 164.757L502.149 161.059L503.464 160.85L504.011 164.299C504.069 164.671 504.175 164.954 504.327 165.148C504.486 165.334 504.683 165.452 504.918 165.504C505.153 165.556 505.417 165.559 505.709 165.513C506.128 165.446 506.469 165.295 506.731 165.059C506.993 164.823 507.189 164.553 507.319 164.249C507.456 163.936 507.531 163.645 507.545 163.375ZM514.501 165.287C514.019 165.363 513.593 165.333 513.224 165.197C512.862 165.06 512.554 164.854 512.299 164.578C512.052 164.293 511.852 163.981 511.701 163.64C511.549 163.292 511.447 162.956 511.396 162.632C511.327 162.197 511.307 161.787 511.335 161.402C511.371 161.016 511.466 160.669 511.619 160.361C511.78 160.044 512.013 159.78 512.32 159.569C512.634 159.35 513.035 159.201 513.525 159.123C514.078 159.036 514.597 159.091 515.082 159.29C515.566 159.48 515.975 159.788 516.31 160.213C516.643 160.63 516.858 161.143 516.954 161.751C517.051 162.36 517.002 162.918 516.807 163.427C516.619 163.927 516.324 164.342 515.923 164.673C515.52 164.996 515.047 165.2 514.501 165.287ZM513.937 164.258C514.333 164.195 514.667 164.057 514.941 163.844C515.215 163.63 515.411 163.36 515.53 163.034C515.648 162.707 515.677 162.351 515.615 161.963C515.521 161.371 515.271 160.916 514.865 160.6C514.457 160.276 513.937 160.164 513.305 160.264C512.91 160.326 512.567 160.466 512.278 160.682C511.988 160.898 511.776 161.17 511.642 161.499C511.506 161.82 511.472 162.19 511.538 162.609C511.598 162.988 511.735 163.315 511.948 163.589C512.162 163.863 512.436 164.062 512.772 164.187C513.107 164.305 513.495 164.328 513.937 164.258ZM509.753 159.854L511.009 159.655L511.298 161.092L512.379 167.919L511.063 168.127L509.753 159.854ZM519.975 158.235L524.147 157.575L524.318 158.653L520.146 159.314L519.975 158.235ZM521.146 156.422L522.473 156.212L523.66 163.702L522.332 163.913L521.146 156.422ZM529.186 162.961C528.53 163.065 527.922 163.039 527.363 162.885C526.804 162.73 526.338 162.448 525.965 162.037C525.593 161.626 525.354 161.093 525.25 160.437C525.148 159.789 525.21 159.212 525.438 158.707C525.664 158.193 526.019 157.772 526.502 157.445C526.984 157.117 527.554 156.901 528.209 156.798C528.865 156.694 529.469 156.724 530.022 156.887C530.574 157.051 531.033 157.343 531.4 157.762C531.773 158.173 532.01 158.702 532.113 159.35C532.217 160.006 532.155 160.587 531.927 161.093C531.707 161.597 531.359 162.009 530.883 162.327C530.407 162.646 529.841 162.857 529.186 162.961ZM529.015 161.882C529.394 161.822 529.73 161.692 530.022 161.492C530.314 161.292 530.528 161.027 530.662 160.698C530.804 160.368 530.841 159.989 530.774 159.563C530.706 159.136 530.554 158.787 530.316 158.517C530.087 158.246 529.802 158.056 529.461 157.948C529.126 157.831 528.766 157.803 528.378 157.864C527.991 157.926 527.652 158.06 527.361 158.268C527.07 158.476 526.85 158.746 526.7 159.078C526.558 159.408 526.521 159.791 526.59 160.225C526.657 160.652 526.81 161 527.047 161.271C527.284 161.541 527.573 161.726 527.912 161.826C528.26 161.925 528.628 161.944 529.015 161.882ZM543.555 159.118L543.177 159.335L542.157 152.9L543.496 152.688L544.713 160.368L543.374 160.58L536.624 155.246L537.015 155.026L538.028 161.427L536.677 161.641L535.461 153.96L536.812 153.746L543.555 159.118ZM549.446 156.423C549.817 156.364 550.17 156.365 550.503 156.425C550.836 156.478 551.137 156.592 551.408 156.768C551.679 156.944 551.902 157.176 552.077 157.464C552.26 157.751 552.384 158.096 552.448 158.499C552.533 159.036 552.475 159.515 552.274 159.936C552.081 160.355 551.772 160.7 551.345 160.97C550.927 161.247 550.425 161.431 549.841 161.524C549.414 161.591 549.002 161.6 548.605 161.549C548.209 161.499 547.848 161.394 547.523 161.235C547.207 161.082 546.935 160.87 546.705 160.599C546.485 160.334 546.338 160.017 546.263 159.648L547.531 159.448C547.606 159.711 547.744 159.92 547.947 160.074C548.151 160.236 548.394 160.344 548.678 160.396C548.97 160.447 549.281 160.446 549.613 160.394C549.842 160.357 550.055 160.291 550.25 160.196C550.447 160.108 550.619 159.991 550.766 159.847C550.914 159.71 551.021 159.543 551.087 159.346C551.153 159.149 551.168 158.932 551.13 158.695C551.093 158.458 551.012 158.256 550.888 158.09C550.773 157.922 550.626 157.791 550.45 157.698C550.281 157.603 550.089 157.54 549.873 157.509C549.658 157.479 549.435 157.482 549.206 157.518C548.977 157.554 548.752 157.618 548.532 157.71C548.31 157.793 548.11 157.91 547.931 158.06C547.753 158.21 547.617 158.405 547.526 158.647L546.329 158.605L545.931 154.1L550.874 153.317L551.058 154.479L547.348 155.066L547.615 158.134L547.46 158.074C547.516 157.765 547.64 157.499 547.831 157.274C548.022 157.049 548.257 156.866 548.534 156.725C548.818 156.575 549.122 156.474 549.446 156.423ZM554.195 160.64L553.903 160.334C554 160.124 554.082 159.9 554.15 159.663C554.226 159.432 554.252 159.209 554.226 158.995L553.577 158.964L553.374 157.684L554.998 157.427L555.143 158.339C555.228 158.877 555.174 159.327 554.98 159.689C554.795 160.059 554.534 160.376 554.195 160.64ZM562.501 157.684C561.846 157.788 561.238 157.763 560.679 157.608C560.12 157.454 559.654 157.171 559.281 156.76C558.908 156.35 558.67 155.816 558.566 155.161C558.464 154.513 558.526 153.936 558.754 153.43C558.98 152.916 559.335 152.496 559.817 152.168C560.3 151.84 560.869 151.625 561.525 151.521C562.181 151.417 562.785 151.447 563.338 151.61C563.89 151.774 564.349 152.066 564.715 152.486C565.088 152.896 565.326 153.426 565.429 154.074C565.533 154.73 565.471 155.31 565.243 155.816C565.023 156.321 564.675 156.732 564.199 157.051C563.723 157.369 563.157 157.58 562.501 157.684ZM562.331 156.605C562.702 156.547 563.034 156.417 563.326 156.217C563.617 156.009 563.834 155.744 563.978 155.421C564.12 155.091 564.157 154.712 564.089 154.286C564.023 153.867 563.871 153.523 563.634 153.252C563.396 152.974 563.106 152.781 562.765 152.673C562.432 152.564 562.075 152.539 561.696 152.599C561.317 152.66 560.978 152.794 560.679 153.004C560.388 153.212 560.167 153.481 560.017 153.813C559.875 154.143 559.838 154.522 559.906 154.948C559.973 155.375 560.125 155.724 560.363 155.994C560.607 156.255 560.899 156.439 561.24 156.547C561.588 156.646 561.951 156.666 562.331 156.605ZM570.592 156.403C569.936 156.507 569.329 156.481 568.77 156.327C568.211 156.172 567.745 155.89 567.372 155.479C566.999 155.068 566.761 154.535 566.657 153.879C566.554 153.231 566.617 152.654 566.844 152.149C567.071 151.635 567.425 151.214 567.908 150.887C568.391 150.559 568.96 150.343 569.616 150.239C570.272 150.136 570.876 150.165 571.428 150.329C571.981 150.493 572.44 150.784 572.806 151.204C573.179 151.615 573.417 152.144 573.519 152.792C573.623 153.448 573.561 154.029 573.334 154.535C573.114 155.039 572.766 155.451 572.29 155.769C571.814 156.088 571.248 156.299 570.592 156.403ZM570.421 155.324C570.793 155.265 571.124 155.136 571.417 154.936C571.708 154.727 571.925 154.462 572.068 154.14C572.21 153.81 572.247 153.431 572.18 153.004C572.114 152.586 571.962 152.241 571.725 151.971C571.486 151.693 571.196 151.5 570.855 151.392C570.522 151.283 570.166 151.258 569.787 151.318C569.407 151.378 569.068 151.513 568.769 151.722C568.478 151.93 568.258 152.2 568.108 152.532C567.966 152.862 567.928 153.24 567.996 153.667C568.064 154.094 568.216 154.442 568.453 154.712C568.697 154.973 568.99 155.158 569.331 155.266C569.678 155.365 570.042 155.384 570.421 155.324ZM578.683 155.121C578.027 155.225 577.419 155.2 576.86 155.045C576.301 154.891 575.835 154.608 575.462 154.198C575.09 153.787 574.851 153.254 574.747 152.598C574.645 151.95 574.707 151.373 574.935 150.867C575.161 150.353 575.516 149.933 575.999 149.605C576.481 149.278 577.051 149.062 577.706 148.958C578.362 148.854 578.966 148.884 579.519 149.048C580.071 149.211 580.53 149.503 580.897 149.923C581.269 150.334 581.507 150.863 581.61 151.511C581.714 152.167 581.652 152.747 581.424 153.253C581.204 153.758 580.856 154.169 580.38 154.488C579.904 154.806 579.338 155.017 578.683 155.121ZM578.512 154.043C578.883 153.984 579.215 153.854 579.507 153.654C579.798 153.446 580.015 153.181 580.159 152.858C580.301 152.528 580.338 152.15 580.27 151.723C580.204 151.304 580.052 150.96 579.815 150.689C579.577 150.411 579.287 150.218 578.946 150.11C578.613 150.001 578.256 149.977 577.877 150.037C577.498 150.097 577.159 150.231 576.86 150.441C576.569 150.649 576.348 150.919 576.198 151.25C576.056 151.58 576.019 151.959 576.087 152.386C576.154 152.812 576.307 153.161 576.544 153.431C576.788 153.692 577.08 153.877 577.421 153.985C577.769 154.083 578.132 154.103 578.512 154.043ZM583.791 155.952L583.499 155.646C583.596 155.436 583.678 155.213 583.745 154.975C583.822 154.745 583.848 154.522 583.822 154.307L583.173 154.276L582.97 152.996L584.594 152.739L584.739 153.652C584.824 154.189 584.769 154.639 584.576 155.002C584.391 155.371 584.13 155.688 583.791 155.952ZM592.097 152.997C591.442 153.1 590.834 153.075 590.275 152.921C589.716 152.766 589.25 152.484 588.877 152.073C588.504 151.662 588.266 151.129 588.162 150.473C588.06 149.825 588.122 149.248 588.35 148.742C588.576 148.229 588.931 147.808 589.413 147.48C589.896 147.153 590.465 146.937 591.121 146.833C591.777 146.729 592.381 146.759 592.934 146.923C593.486 147.087 593.945 147.378 594.311 147.798C594.684 148.209 594.922 148.738 595.025 149.386C595.128 150.042 595.067 150.623 594.839 151.129C594.619 151.633 594.271 152.045 593.795 152.363C593.319 152.682 592.753 152.893 592.097 152.997ZM591.927 151.918C592.298 151.859 592.63 151.73 592.922 151.529C593.213 151.321 593.43 151.056 593.574 150.734C593.716 150.403 593.753 150.025 593.685 149.598C593.619 149.179 593.467 148.835 593.23 148.565C592.992 148.287 592.702 148.094 592.361 147.986C592.028 147.876 591.671 147.852 591.292 147.912C590.913 147.972 590.574 148.107 590.275 148.316C589.984 148.524 589.763 148.794 589.613 149.125C589.471 149.456 589.434 149.834 589.501 150.261C589.569 150.688 589.721 151.036 589.959 151.306C590.202 151.567 590.495 151.752 590.836 151.86C591.184 151.959 591.547 151.978 591.927 151.918ZM600.188 151.715C599.532 151.819 598.925 151.794 598.366 151.639C597.807 151.485 597.341 151.202 596.968 150.791C596.595 150.381 596.357 149.847 596.253 149.192C596.15 148.544 596.213 147.967 596.44 147.461C596.667 146.947 597.021 146.527 597.504 146.199C597.987 145.872 598.556 145.656 599.212 145.552C599.868 145.448 600.472 145.478 601.024 145.642C601.576 145.805 602.036 146.097 602.402 146.517C602.775 146.927 603.013 147.457 603.115 148.105C603.219 148.761 603.157 149.341 602.929 149.847C602.71 150.352 602.362 150.763 601.886 151.082C601.41 151.4 600.844 151.611 600.188 151.715ZM600.017 150.637C600.388 150.578 600.72 150.448 601.013 150.248C601.304 150.04 601.521 149.775 601.664 149.452C601.806 149.122 601.843 148.744 601.776 148.317C601.71 147.898 601.558 147.554 601.321 147.283C601.082 147.005 600.792 146.812 600.451 146.704C600.118 146.595 599.762 146.57 599.383 146.63C599.003 146.691 598.664 146.825 598.365 147.035C598.074 147.243 597.854 147.513 597.704 147.844C597.562 148.174 597.524 148.553 597.592 148.98C597.66 149.406 597.812 149.755 598.049 150.025C598.293 150.286 598.585 150.47 598.927 150.578C599.274 150.677 599.638 150.697 600.017 150.637ZM608.278 150.434C607.623 150.538 607.015 150.512 606.456 150.358C605.897 150.203 605.431 149.921 605.058 149.51C604.685 149.099 604.447 148.566 604.343 147.91C604.241 147.262 604.303 146.685 604.531 146.18C604.757 145.666 605.112 145.245 605.594 144.918C606.077 144.59 606.646 144.374 607.302 144.271C607.958 144.167 608.562 144.196 609.115 144.36C609.667 144.524 610.126 144.815 610.492 145.235C610.865 145.646 611.103 146.175 611.206 146.823C611.31 147.479 611.248 148.06 611.02 148.566C610.8 149.07 610.452 149.482 609.976 149.8C609.5 150.119 608.934 150.33 608.278 150.434ZM608.108 149.355C608.479 149.296 608.811 149.167 609.103 148.967C609.394 148.759 609.611 148.493 609.755 148.171C609.897 147.841 609.934 147.462 609.866 147.035C609.8 146.617 609.648 146.272 609.411 146.002C609.173 145.724 608.883 145.531 608.542 145.423C608.209 145.314 607.852 145.289 607.473 145.349C607.094 145.409 606.755 145.544 606.456 145.753C606.165 145.961 605.944 146.231 605.794 146.563C605.652 146.893 605.615 147.271 605.683 147.698C605.75 148.125 605.903 148.473 606.14 148.743C606.384 149.005 606.676 149.189 607.017 149.297C607.365 149.396 607.728 149.415 608.108 149.355ZM614.411 143.351L618.69 142.673L618.859 143.74L614.58 144.418L614.411 143.351ZM617.426 140.371L618.398 140.217L618.578 141.355L617.843 141.471C617.621 141.498 617.431 141.553 617.274 141.634C617.124 141.715 617.014 141.837 616.943 142.002C616.88 142.166 616.87 142.387 616.914 142.663L617.883 148.779L616.555 148.989L615.568 142.755C615.493 142.281 615.518 141.88 615.645 141.552C615.771 141.224 615.985 140.964 616.286 140.77C616.596 140.575 616.976 140.442 617.426 140.371ZM623.668 147.996C623.012 148.1 622.405 148.075 621.846 147.92C621.287 147.766 620.821 147.483 620.448 147.073C620.075 146.662 619.837 146.129 619.733 145.473C619.63 144.825 619.693 144.248 619.92 143.742C620.147 143.228 620.501 142.808 620.984 142.48C621.467 142.153 622.036 141.937 622.692 141.833C623.348 141.729 623.952 141.759 624.504 141.923C625.057 142.086 625.516 142.378 625.882 142.798C626.255 143.209 626.493 143.738 626.595 144.386C626.699 145.042 626.637 145.622 626.41 146.128C626.19 146.633 625.842 147.044 625.366 147.363C624.89 147.681 624.324 147.892 623.668 147.996ZM623.497 146.918C623.876 146.858 624.212 146.727 624.505 146.527C624.797 146.327 625.01 146.062 625.144 145.733C625.286 145.403 625.324 145.025 625.256 144.598C625.188 144.171 625.036 143.823 624.799 143.553C624.57 143.281 624.284 143.091 623.943 142.983C623.609 142.866 623.248 142.838 622.861 142.9C622.474 142.961 622.135 143.096 621.844 143.304C621.553 143.512 621.332 143.782 621.182 144.113C621.04 144.444 621.003 144.826 621.072 145.261C621.14 145.687 621.292 146.036 621.529 146.306C621.766 146.576 622.055 146.761 622.395 146.861C622.743 146.96 623.11 146.979 623.497 146.918ZM627.303 141.236L628.619 141.028L629.554 146.93L628.238 147.139L627.303 141.236ZM630.931 141.816C630.504 141.884 630.151 142.033 629.872 142.263C629.6 142.492 629.394 142.752 629.254 143.041C629.113 143.331 629.027 143.604 628.995 143.86L628.878 143.198C628.872 143.11 628.879 142.975 628.899 142.794C628.917 142.605 628.957 142.396 629.018 142.167C629.087 141.938 629.189 141.711 629.324 141.487C629.465 141.254 629.648 141.055 629.873 140.89C630.106 140.724 630.392 140.613 630.732 140.56L630.931 141.816ZM638.066 145.716C637.529 145.801 637.015 145.749 636.523 145.559C636.039 145.369 635.627 145.065 635.285 144.65C634.951 144.225 634.736 143.712 634.641 143.112C634.543 142.495 634.592 141.937 634.788 141.436C634.983 140.927 635.289 140.506 635.706 140.173C636.123 139.839 636.616 139.628 637.185 139.538C637.817 139.437 638.341 139.496 638.756 139.714C639.171 139.932 639.495 140.261 639.726 140.702C639.958 141.143 640.12 141.652 640.211 142.229C640.263 142.553 640.27 142.904 640.232 143.283C640.194 143.654 640.096 144.009 639.94 144.35C639.791 144.689 639.562 144.985 639.254 145.236C638.952 145.478 638.556 145.638 638.066 145.716ZM638.297 144.562C638.739 144.491 639.101 144.349 639.383 144.134C639.672 143.91 639.871 143.636 639.982 143.311C640.1 142.984 640.129 142.631 640.069 142.252C640.003 141.833 639.863 141.491 639.651 141.225C639.438 140.951 639.164 140.759 638.831 140.65C638.497 140.533 638.108 140.509 637.666 140.579C637.034 140.679 636.573 140.943 636.284 141.369C635.996 141.795 635.898 142.305 635.992 142.898C636.053 143.285 636.191 143.615 636.404 143.889C636.626 144.162 636.899 144.358 637.226 144.476C637.553 144.594 637.909 144.623 638.297 144.562ZM639.6 139.289L640.927 139.078L641.862 144.981L640.629 145.176C640.629 145.176 640.61 145.102 640.57 144.955C640.531 144.807 640.486 144.628 640.436 144.417C640.385 144.198 640.344 143.99 640.313 143.793L639.6 139.289ZM648.622 138.759C649.175 138.671 649.678 138.701 650.13 138.848C650.591 138.994 650.97 139.241 651.269 139.591C651.575 139.939 651.765 140.375 651.84 140.898C651.915 141.42 651.848 141.897 651.641 142.326C651.442 142.755 651.118 143.114 650.67 143.404C650.229 143.692 649.689 143.887 649.049 143.988C648.385 144.094 647.785 144.087 647.248 143.97C646.71 143.845 646.268 143.615 645.924 143.281C645.587 142.945 645.381 142.512 645.305 141.981C645.275 141.792 645.266 141.583 645.279 141.354C645.299 141.124 645.36 140.871 645.462 140.596C645.471 140.546 645.513 140.43 645.589 140.248C645.666 140.065 645.756 139.844 645.861 139.585C645.974 139.324 646.092 139.046 646.215 138.751C646.337 138.448 646.46 138.15 646.583 137.855C646.707 137.56 646.818 137.291 646.917 137.048C647.017 136.806 647.096 136.615 647.155 136.476C647.22 136.328 647.253 136.254 647.253 136.254L648.853 136.001L646.225 141.423L645.856 141.858C646.055 141.421 646.247 141.026 646.434 140.673C646.62 140.311 646.813 139.997 647.014 139.73C647.223 139.462 647.456 139.247 647.714 139.085C647.971 138.923 648.274 138.814 648.622 138.759ZM648.823 142.87C649.361 142.785 649.791 142.587 650.114 142.277C650.438 141.966 650.565 141.569 650.497 141.086C650.431 140.619 650.204 140.286 649.816 140.088C649.428 139.883 648.96 139.823 648.415 139.909C647.807 140.006 647.344 140.229 647.027 140.579C646.708 140.921 646.578 141.298 646.635 141.71C646.702 142.185 646.941 142.52 647.353 142.714C647.772 142.907 648.262 142.959 648.823 142.87ZM653.012 139.388L656.781 138.791L656.948 139.846L653.179 140.443L653.012 139.388ZM658.115 136.356L659.43 136.148L660.365 142.05L659.05 142.259L658.115 136.356ZM661.899 135.623C662.238 135.569 662.558 135.567 662.857 135.617C663.165 135.666 663.437 135.772 663.674 135.937C663.917 136.093 664.117 136.305 664.272 136.572C664.436 136.837 664.548 137.164 664.61 137.551L665.201 141.284L663.885 141.493L663.335 138.02C663.259 137.538 663.084 137.201 662.811 137.01C662.544 136.809 662.162 136.748 661.664 136.827C661.285 136.887 660.95 137.025 660.66 137.241C660.377 137.448 660.158 137.697 660.001 137.989C659.844 138.273 659.774 138.572 659.791 138.885L659.678 138.247C659.671 137.948 659.714 137.658 659.807 137.376C659.899 137.086 660.039 136.821 660.228 136.58C660.415 136.332 660.65 136.125 660.931 135.959C661.213 135.793 661.535 135.681 661.899 135.623ZM666.604 134.878C666.952 134.823 667.275 134.82 667.575 134.87C667.874 134.92 668.142 135.027 668.379 135.192C668.622 135.348 668.826 135.559 668.989 135.825C669.153 136.09 669.265 136.417 669.327 136.804L669.918 140.537L668.591 140.748L668.041 137.275C667.964 136.793 667.789 136.456 667.516 136.264C667.249 136.064 666.867 136.003 666.369 136.082C665.99 136.142 665.656 136.28 665.366 136.496C665.083 136.702 664.863 136.952 664.707 137.244C664.557 137.527 664.491 137.825 664.508 138.138L664.379 137.478C664.374 137.187 664.421 136.9 664.522 136.617C664.622 136.326 664.766 136.06 664.955 135.82C665.144 135.579 665.375 135.376 665.648 135.212C665.93 135.046 666.248 134.934 666.604 134.878ZM674.526 139.941C673.87 140.045 673.263 140.02 672.704 139.865C672.145 139.711 671.679 139.428 671.306 139.017C670.933 138.607 670.695 138.073 670.591 137.418C670.488 136.77 670.551 136.193 670.779 135.687C671.005 135.173 671.36 134.753 671.842 134.425C672.325 134.097 672.894 133.882 673.55 133.778C674.206 133.674 674.81 133.704 675.362 133.867C675.915 134.031 676.374 134.323 676.74 134.743C677.113 135.153 677.351 135.683 677.454 136.331C677.557 136.987 677.496 137.567 677.268 138.073C677.048 138.578 676.7 138.989 676.224 139.308C675.748 139.626 675.182 139.837 674.526 139.941ZM674.355 138.862C674.735 138.802 675.071 138.672 675.363 138.472C675.655 138.272 675.868 138.007 676.002 137.678C676.145 137.348 676.182 136.969 676.114 136.543C676.047 136.116 675.894 135.768 675.657 135.497C675.428 135.226 675.143 135.036 674.801 134.928C674.467 134.811 674.106 134.783 673.719 134.845C673.332 134.906 672.993 135.041 672.702 135.249C672.411 135.457 672.19 135.727 672.04 136.058C671.898 136.388 671.862 136.771 671.93 137.205C671.998 137.632 672.15 137.981 672.388 138.251C672.625 138.521 672.913 138.706 673.253 138.806C673.601 138.905 673.968 138.924 674.355 138.862ZM678.162 133.181L679.477 132.973L680.412 138.875L679.097 139.084L678.162 133.181ZM681.946 132.448C682.285 132.394 682.605 132.392 682.904 132.442C683.212 132.491 683.484 132.597 683.721 132.762C683.964 132.918 684.164 133.13 684.319 133.397C684.483 133.662 684.595 133.989 684.657 134.376L685.248 138.109L683.932 138.318L683.382 134.845C683.306 134.363 683.131 134.026 682.858 133.835C682.591 133.634 682.209 133.573 681.711 133.652C681.332 133.712 680.997 133.85 680.707 134.066C680.424 134.273 680.205 134.522 680.048 134.814C679.891 135.098 679.821 135.397 679.838 135.71L679.725 135.072C679.718 134.773 679.761 134.483 679.854 134.201C679.946 133.911 680.086 133.646 680.275 133.405C680.462 133.157 680.697 132.95 680.978 132.784C681.26 132.618 681.582 132.506 681.946 132.448ZM685.351 132.042L689.523 131.382L689.694 132.46L685.522 133.121L685.351 132.042ZM686.522 130.229L687.849 130.019L689.036 137.509L687.708 137.72L686.522 130.229ZM696.447 136.336L695.906 132.922C695.856 132.606 695.76 132.354 695.617 132.166C695.48 131.969 695.292 131.833 695.054 131.757C694.815 131.682 694.514 131.673 694.15 131.73C693.787 131.788 693.467 131.919 693.192 132.125C692.916 132.323 692.703 132.563 692.553 132.846C692.404 133.129 692.337 133.427 692.355 133.74L692.238 133.078C692.232 132.787 692.276 132.501 692.369 132.219C692.461 131.929 692.601 131.664 692.79 131.423C692.978 131.183 693.213 130.979 693.495 130.813C693.775 130.639 694.097 130.524 694.46 130.466C694.8 130.412 695.12 130.41 695.419 130.46C695.727 130.508 695.998 130.611 696.234 130.768C696.476 130.916 696.674 131.12 696.828 131.379C696.989 131.629 697.098 131.931 697.154 132.287L697.763 136.127L696.447 136.336ZM691.611 137.101L690.301 128.829L691.617 128.62L692.927 136.893L691.611 137.101ZM701.388 133.56L702.608 133.367C702.719 133.657 702.92 133.877 703.211 134.025C703.5 134.165 703.866 134.201 704.309 134.131C704.593 134.085 704.809 134.019 704.957 133.931C705.113 133.841 705.214 133.736 705.26 133.615C705.313 133.494 705.329 133.361 705.306 133.219C705.279 133.045 705.206 132.919 705.088 132.841C704.979 132.761 704.824 132.704 704.624 132.671C704.425 132.638 704.179 132.62 703.887 132.618C703.583 132.593 703.282 132.56 702.984 132.518C702.686 132.476 702.412 132.41 702.163 132.32C701.913 132.222 701.705 132.085 701.539 131.908C701.38 131.723 701.277 131.484 701.231 131.192C701.188 130.923 701.21 130.673 701.294 130.441C701.386 130.199 701.53 129.986 701.728 129.801C701.925 129.616 702.168 129.46 702.455 129.333C702.742 129.199 703.063 129.104 703.418 129.047C703.932 128.966 704.372 128.981 704.738 129.093C705.112 129.204 705.41 129.396 705.631 129.669C705.86 129.94 706.006 130.27 706.067 130.657L704.905 130.841C704.792 130.535 704.633 130.325 704.429 130.211C704.225 130.098 703.941 130.07 703.577 130.128C703.214 130.185 702.947 130.292 702.778 130.449C702.608 130.605 702.541 130.794 702.576 131.015C702.602 131.181 702.683 131.306 702.818 131.39C702.959 131.465 703.15 131.52 703.39 131.554C703.631 131.589 703.911 131.618 704.23 131.64C704.527 131.674 704.809 131.715 705.075 131.761C705.341 131.8 705.582 131.867 705.8 131.963C706.024 132.049 706.211 132.181 706.361 132.36C706.511 132.538 706.609 132.774 706.655 133.066C706.713 133.43 706.663 133.758 706.507 134.05C706.359 134.34 706.114 134.586 705.773 134.785C705.431 134.977 705.003 135.114 704.489 135.195C704.039 135.267 703.64 135.277 703.292 135.227C702.951 135.176 702.658 135.085 702.41 134.954C702.17 134.822 701.976 134.67 701.828 134.499C701.679 134.328 701.567 134.16 701.493 133.993C701.425 133.826 701.39 133.682 701.388 133.56ZM711.916 134.019C711.434 134.096 711.008 134.066 710.638 133.93C710.276 133.793 709.968 133.587 709.714 133.311C709.466 133.026 709.267 132.713 709.116 132.373C708.963 132.024 708.861 131.688 708.81 131.364C708.741 130.93 708.721 130.52 708.749 130.135C708.785 129.748 708.88 129.401 709.033 129.093C709.194 128.776 709.427 128.513 709.734 128.302C710.048 128.082 710.449 127.934 710.939 127.856C711.492 127.768 712.012 127.824 712.497 128.022C712.98 128.213 713.39 128.521 713.724 128.946C714.057 129.363 714.272 129.875 714.369 130.484C714.465 131.092 714.416 131.651 714.221 132.16C714.033 132.659 713.738 133.074 713.337 133.405C712.935 133.728 712.461 133.933 711.916 134.019ZM711.352 132.991C711.747 132.928 712.081 132.79 712.355 132.577C712.629 132.363 712.825 132.093 712.944 131.767C713.062 131.44 713.091 131.083 713.029 130.696C712.936 130.103 712.685 129.649 712.279 129.333C711.871 129.008 711.351 128.896 710.719 128.997C710.324 129.059 709.982 129.198 709.692 129.414C709.402 129.63 709.19 129.903 709.056 130.232C708.92 130.553 708.886 130.923 708.952 131.342C709.012 131.721 709.149 132.048 709.363 132.322C709.576 132.596 709.851 132.795 710.186 132.92C710.521 133.037 710.909 133.061 711.352 132.991ZM707.167 128.587L708.424 128.388L708.712 129.825L709.793 136.652L708.478 136.86L707.167 128.587ZM718.659 132.951C718.122 133.036 717.608 132.984 717.116 132.795C716.632 132.604 716.22 132.301 715.878 131.885C715.544 131.46 715.329 130.947 715.234 130.347C715.136 129.731 715.185 129.172 715.381 128.671C715.576 128.162 715.882 127.741 716.299 127.408C716.716 127.075 717.209 126.863 717.778 126.773C718.41 126.673 718.934 126.732 719.349 126.949C719.764 127.167 720.088 127.496 720.32 127.938C720.551 128.379 720.713 128.888 720.804 129.465C720.856 129.789 720.863 130.14 720.825 130.518C720.787 130.889 720.689 131.244 720.533 131.585C720.384 131.925 720.155 132.22 719.847 132.471C719.545 132.714 719.149 132.873 718.659 132.951ZM718.89 131.797C719.332 131.727 719.694 131.584 719.976 131.37C720.265 131.146 720.464 130.871 720.575 130.546C720.693 130.219 720.722 129.866 720.662 129.487C720.596 129.068 720.457 128.726 720.244 128.46C720.031 128.186 719.757 127.994 719.424 127.885C719.09 127.768 718.701 127.744 718.259 127.814C717.627 127.915 717.166 128.178 716.877 128.604C716.589 129.031 716.491 129.54 716.585 130.133C716.646 130.52 716.784 130.851 716.997 131.125C717.219 131.397 717.493 131.593 717.819 131.711C718.146 131.83 718.502 131.858 718.89 131.797ZM720.193 126.524L721.52 126.314L722.455 132.216L721.223 132.411C721.223 132.411 721.203 132.338 721.163 132.19C721.124 132.042 721.079 131.863 721.029 131.652C720.979 131.434 720.937 131.225 720.906 131.028L720.193 126.524ZM722.966 126.085L724.282 125.876L725.217 131.779L723.901 131.987L722.966 126.085ZM726.75 125.352C727.09 125.298 727.41 125.296 727.709 125.346C728.017 125.394 728.289 125.501 728.525 125.666C728.769 125.822 728.968 126.033 729.124 126.3C729.288 126.566 729.4 126.892 729.461 127.279L730.053 131.013L728.737 131.221L728.187 127.749C728.111 127.267 727.936 126.93 727.662 126.738C727.396 126.537 727.014 126.476 726.516 126.555C726.137 126.615 725.802 126.753 725.512 126.969C725.229 127.176 725.009 127.426 724.853 127.718C724.696 128.002 724.626 128.3 724.643 128.614L724.529 127.976C724.523 127.677 724.566 127.387 724.659 127.105C724.751 126.815 724.891 126.549 725.08 126.309C725.267 126.061 725.501 125.853 725.783 125.687C726.064 125.521 726.387 125.409 726.75 125.352Z" fill="white"/>
</g>
<defs>
<filter id="filter0_f_3999_41135" x="-10.9756" y="-15.2207" width="789.015" height="331.293" filterUnits="userSpaceOnUse" color-interpolation-filters="sRGB">
<feFlood flood-opacity="0" result="BackgroundImageFix"/>
<feBlend mode="normal" in="SourceGraphic" in2="BackgroundImageFix" result="shape"/>
<feGaussianBlur stdDeviation="25" result="effect1_foregroundBlur_3999_41135"/>
</filter>
<filter id="filter1_f_3999_41135" x="27.6318" y="27.8281" width="802.356" height="333.736" filterUnits="userSpaceOnUse" color-interpolation-filters="sRGB">
<feFlood flood-opacity="0" result="BackgroundImageFix"/>
<feBlend mode="normal" in="SourceGraphic" in2="BackgroundImageFix" result="shape"/>
<feGaussianBlur stdDeviation="25" result="effect1_foregroundBlur_3999_41135"/>
</filter>
<linearGradient id="paint0_linear_3999_41135" x1="67.8968" y1="5.04188" x2="348.086" y2="382.016" gradientUnits="userSpaceOnUse">
<stop stop-color="#228B22"/>
<stop offset="0.740862" stop-color="#FFBD00"/>
</linearGradient>
<linearGradient id="paint1_linear_3999_41135" x1="114.532" y1="40.7033" x2="392.44" y2="422.203" gradientUnits="userSpaceOnUse">
<stop stop-color="#228B22"/>
<stop offset="0.740862" stop-color="#FFBD00"/>
</linearGradient>
<linearGradient id="paint2_linear_3999_41135" x1="157.009" y1="79.9692" x2="433.871" y2="463.473" gradientUnits="userSpaceOnUse">
<stop stop-color="#228B22"/>
<stop offset="0.740862" stop-color="#FFBD00"/>
</linearGradient>
<clipPath id="clip0_3999_41135">
<rect width="875" height="338" fill="white"/>
</clipPath>
</defs>
</svg>
