<svg width="339" height="219" viewBox="0 0 339 219" fill="none" xmlns="http://www.w3.org/2000/svg">
<path d="M18.0265 20.372C20.9332 20.372 23.3598 20.7186 25.3065 21.412C27.2532 22.1053 28.7998 23.052 29.9465 24.252C31.1198 25.4253 31.9465 26.7853 32.4265 28.332C32.9332 29.8786 33.1865 31.5053 33.1865 33.212C33.1865 34.9186 32.9065 36.5586 32.3465 38.132C31.8132 39.7053 30.9465 41.1053 29.7465 42.332C28.5732 43.532 27.0132 44.492 25.0665 45.212C23.1465 45.9053 20.7998 46.252 18.0265 46.252H3.22648V20.372H18.0265ZM8.54648 41.692H17.9065C19.8265 41.692 21.4132 41.4653 22.6665 41.012C23.9465 40.532 24.9598 39.892 25.7065 39.092C26.4532 38.292 26.9865 37.3853 27.3065 36.372C27.6265 35.3586 27.7865 34.3053 27.7865 33.212C27.7865 32.1186 27.6265 31.0786 27.3065 30.092C26.9865 29.1053 26.4532 28.2253 25.7065 27.452C24.9598 26.6786 23.9465 26.0653 22.6665 25.612C21.4132 25.1586 19.8265 24.932 17.9065 24.932H8.54648V41.692ZM49.4227 46.732C46.9161 46.732 44.7027 46.332 42.7827 45.532C40.8894 44.732 39.4094 43.572 38.3427 42.052C37.2761 40.5053 36.7427 38.612 36.7427 36.372C36.7427 34.132 37.2761 32.2386 38.3427 30.692C39.4094 29.1186 40.8894 27.932 42.7827 27.132C44.7027 26.332 46.9161 25.932 49.4227 25.932C51.9294 25.932 54.1161 26.332 55.9827 27.132C57.8761 27.932 59.3561 29.1186 60.4227 30.692C61.4894 32.2386 62.0227 34.132 62.0227 36.372C62.0227 38.612 61.4894 40.5053 60.4227 42.052C59.3561 43.572 57.8761 44.732 55.9827 45.532C54.1161 46.332 51.9294 46.732 49.4227 46.732ZM49.4227 42.732C50.8094 42.732 52.0494 42.492 53.1427 42.012C54.2627 41.5053 55.1427 40.7853 55.7827 39.852C56.4227 38.892 56.7427 37.732 56.7427 36.372C56.7427 35.012 56.4227 33.852 55.7827 32.892C55.1427 31.9053 54.2761 31.1586 53.1827 30.652C52.0894 30.1453 50.8361 29.892 49.4227 29.892C48.0361 29.892 46.7827 30.1453 45.6627 30.652C44.5427 31.1586 43.6494 31.892 42.9827 32.852C42.3427 33.812 42.0227 34.9853 42.0227 36.372C42.0227 37.732 42.3427 38.892 42.9827 39.852C43.6227 40.7853 44.5027 41.5053 45.6227 42.012C46.7427 42.492 48.0094 42.732 49.4227 42.732ZM74.7152 39.652H79.5152C79.8086 40.5586 80.4086 41.3053 81.3152 41.892C82.2486 42.452 83.4619 42.732 84.9552 42.732C85.9686 42.732 86.7552 42.6386 87.3152 42.452C87.8752 42.2653 88.2619 41.9986 88.4752 41.652C88.6886 41.2786 88.7952 40.8653 88.7952 40.412C88.7952 39.852 88.6219 39.4253 88.2752 39.132C87.9286 38.812 87.3952 38.5586 86.6752 38.372C85.9552 38.1853 85.0352 38.012 83.9152 37.852C82.7952 37.6653 81.7152 37.4386 80.6752 37.172C79.6352 36.9053 78.7152 36.5586 77.9152 36.132C77.1152 35.6786 76.4752 35.1186 75.9952 34.452C75.5419 33.7586 75.3152 32.9186 75.3152 31.932C75.3152 30.972 75.5419 30.1186 75.9952 29.372C76.4752 28.6253 77.1286 27.9986 77.9552 27.492C78.8086 26.9853 79.7952 26.5986 80.9152 26.332C82.0619 26.0653 83.2886 25.932 84.5952 25.932C86.5686 25.932 88.2086 26.2253 89.5152 26.812C90.8219 27.372 91.7952 28.172 92.4352 29.212C93.1019 30.2253 93.4352 31.3986 93.4352 32.732H88.8352C88.6219 31.7453 88.1952 31.0386 87.5552 30.612C86.9152 30.1586 85.9286 29.932 84.5952 29.932C83.2886 29.932 82.3019 30.132 81.6352 30.532C80.9686 30.932 80.6352 31.4786 80.6352 32.172C80.6352 32.732 80.8352 33.172 81.2352 33.492C81.6619 33.7853 82.2752 34.0253 83.0752 34.212C83.9019 34.3986 84.9286 34.5986 86.1552 34.812C87.1952 35.0253 88.1819 35.2653 89.1152 35.532C90.0752 35.7986 90.9286 36.1453 91.6752 36.572C92.4219 36.972 93.0086 37.5186 93.4352 38.212C93.8886 38.8786 94.1152 39.732 94.1152 40.772C94.1152 42.052 93.7419 43.132 92.9952 44.012C92.2752 44.892 91.2352 45.572 89.8752 46.052C88.5152 46.5053 86.8886 46.732 84.9952 46.732C83.3152 46.732 81.8619 46.5586 80.6352 46.212C79.4352 45.8386 78.4352 45.372 77.6352 44.812C76.8352 44.2253 76.2086 43.612 75.7552 42.972C75.3286 42.3053 75.0352 41.6786 74.8752 41.092C74.7152 40.5053 74.6619 40.0253 74.7152 39.652ZM109.813 46.732C107.307 46.732 105.093 46.332 103.173 45.532C101.28 44.732 99.8 43.572 98.7334 42.052C97.6667 40.5053 97.1334 38.612 97.1334 36.372C97.1334 34.132 97.6667 32.2386 98.7334 30.692C99.8 29.1186 101.28 27.932 103.173 27.132C105.093 26.332 107.307 25.932 109.813 25.932C112.32 25.932 114.507 26.332 116.373 27.132C118.267 27.932 119.747 29.1186 120.813 30.692C121.88 32.2386 122.413 34.132 122.413 36.372C122.413 38.612 121.88 40.5053 120.813 42.052C119.747 43.572 118.267 44.732 116.373 45.532C114.507 46.332 112.32 46.732 109.813 46.732ZM109.813 42.732C111.2 42.732 112.44 42.492 113.533 42.012C114.653 41.5053 115.533 40.7853 116.173 39.852C116.813 38.892 117.133 37.732 117.133 36.372C117.133 35.012 116.813 33.852 116.173 32.892C115.533 31.9053 114.667 31.1586 113.573 30.652C112.48 30.1453 111.227 29.892 109.813 29.892C108.427 29.892 107.173 30.1453 106.053 30.652C104.933 31.1586 104.04 31.892 103.373 32.852C102.733 33.812 102.413 34.9853 102.413 36.372C102.413 37.732 102.733 38.892 103.373 39.852C104.013 40.7853 104.893 41.5053 106.013 42.012C107.133 42.492 108.4 42.732 109.813 42.732ZM1.77148 90.532H27.7715V96.967H1.77148V90.532ZM21.5315 76.947H28.2265V83.772H23.5465C22.2898 83.7286 21.2065 83.8586 20.2965 84.162C19.3865 84.4653 18.6932 85.0286 18.2165 85.852C17.7398 86.632 17.5015 87.7586 17.5015 89.232V122.252H9.05148V88.1919C9.05148 85.5919 9.52815 83.4686 10.4815 81.822C11.4348 80.132 12.8432 78.897 14.7065 78.117C16.5698 77.337 18.8448 76.947 21.5315 76.947ZM51.6559 123.032C47.5826 123.032 43.9859 122.382 40.8659 121.082C37.7893 119.782 35.3843 117.897 33.6509 115.427C31.9176 112.914 31.0509 109.837 31.0509 106.197C31.0509 102.557 31.9176 99.4803 33.6509 96.967C35.3843 94.4103 37.7893 92.482 40.8659 91.182C43.9859 89.882 47.5826 89.232 51.6559 89.232C55.7293 89.232 59.2826 89.882 62.3159 91.182C65.3926 92.482 67.7976 94.4103 69.5309 96.967C71.2643 99.4803 72.1309 102.557 72.1309 106.197C72.1309 109.837 71.2643 112.914 69.5309 115.427C67.7976 117.897 65.3926 119.782 62.3159 121.082C59.2826 122.382 55.7293 123.032 51.6559 123.032ZM51.6559 116.532C53.9093 116.532 55.9243 116.142 57.7009 115.362C59.5209 114.539 60.9509 113.369 61.9909 111.852C63.0309 110.292 63.5509 108.407 63.5509 106.197C63.5509 103.987 63.0309 102.102 61.9909 100.542C60.9509 98.9386 59.5426 97.7253 57.7659 96.902C55.9893 96.0786 53.9526 95.667 51.6559 95.667C49.4026 95.667 47.3659 96.0786 45.5459 96.902C43.7259 97.7253 42.2743 98.917 41.1909 100.477C40.1509 102.037 39.6309 103.944 39.6309 106.197C39.6309 108.407 40.1509 110.292 41.1909 111.852C42.2309 113.369 43.6609 114.539 45.4809 115.362C47.3009 116.142 49.3593 116.532 51.6559 116.532ZM78.3775 89.947H86.8275V122.252H78.3775V89.947ZM99.2425 96.902C96.8159 96.902 94.7142 97.3786 92.9375 98.332C91.1609 99.242 89.7309 100.369 88.6475 101.712C87.5642 103.055 86.8059 104.355 86.3725 105.612L86.3075 102.037C86.3509 101.517 86.5242 100.759 86.8275 99.762C87.1309 98.722 87.5859 97.617 88.1925 96.447C88.7992 95.2336 89.6009 94.0853 90.5975 93.002C91.5942 91.8753 92.8075 90.9653 94.2375 90.272C95.6675 89.5786 97.3359 89.232 99.2425 89.232V96.902ZM139.19 123.032C135.117 123.032 131.52 122.382 128.4 121.082C125.323 119.782 122.918 117.897 121.185 115.427C119.452 112.914 118.585 109.837 118.585 106.197C118.585 102.557 119.452 99.4803 121.185 96.967C122.918 94.4103 125.323 92.482 128.4 91.182C131.52 89.882 135.117 89.232 139.19 89.232C143.263 89.232 146.817 89.882 149.85 91.182C152.927 92.482 155.332 94.4103 157.065 96.967C158.798 99.4803 159.665 102.557 159.665 106.197C159.665 109.837 158.798 112.914 157.065 115.427C155.332 117.897 152.927 119.782 149.85 121.082C146.817 122.382 143.263 123.032 139.19 123.032ZM139.19 116.532C141.443 116.532 143.458 116.142 145.235 115.362C147.055 114.539 148.485 113.369 149.525 111.852C150.565 110.292 151.085 108.407 151.085 106.197C151.085 103.987 150.565 102.102 149.525 100.542C148.485 98.9386 147.077 97.7253 145.3 96.902C143.523 96.0786 141.487 95.667 139.19 95.667C136.937 95.667 134.9 96.0786 133.08 96.902C131.26 97.7253 129.808 98.917 128.725 100.477C127.685 102.037 127.165 103.944 127.165 106.197C127.165 108.407 127.685 110.292 128.725 111.852C129.765 113.369 131.195 114.539 133.015 115.362C134.835 116.142 136.893 116.532 139.19 116.532ZM165.912 89.947H174.362V122.252H165.912V89.947ZM189.377 89.232C191.37 89.232 193.212 89.492 194.902 90.012C196.592 90.532 198.065 91.3336 199.322 92.417C200.578 93.5003 201.553 94.887 202.247 96.577C202.94 98.2236 203.287 100.195 203.287 102.492V122.252H194.837V103.987C194.837 101.257 194.165 99.2636 192.822 98.007C191.522 96.707 189.377 96.057 186.387 96.057C184.133 96.057 182.097 96.4903 180.277 97.357C178.457 98.2236 176.983 99.3286 175.857 100.672C174.73 101.972 174.08 103.337 173.907 104.767L173.842 101.452C174.058 99.9353 174.557 98.462 175.337 97.032C176.117 95.602 177.157 94.302 178.457 93.132C179.8 91.9186 181.382 90.9653 183.202 90.272C185.022 89.5786 187.08 89.232 189.377 89.232ZM211.63 76.947H220.08V122.252H211.63V76.947ZM225.702 89.947H234.672L248.647 120.952L241.367 122.252L225.702 89.947ZM265.222 89.947L242.862 135.252H234.087L243.642 117.442L256.187 89.947H265.222Z" fill="black"/>
<path d="M137.406 13.947H145.856V46.252H137.406V13.947ZM160.871 13.232C162.864 13.232 164.706 13.492 166.396 14.012C168.086 14.532 169.559 15.3336 170.816 16.417C172.073 17.5003 173.048 18.887 173.741 20.577C174.434 22.2236 174.781 24.1953 174.781 26.492V46.252H166.331V27.987C166.331 25.257 165.659 23.2636 164.316 22.007C163.016 20.707 160.871 20.057 157.881 20.057C155.628 20.057 153.591 20.4903 151.771 21.357C149.951 22.2236 148.478 23.3286 147.351 24.672C146.224 25.972 145.574 27.337 145.401 28.767L145.336 25.452C145.553 23.9353 146.051 22.462 146.831 21.032C147.611 19.602 148.651 18.302 149.951 17.132C151.294 15.9186 152.876 14.9653 154.696 14.272C156.516 13.5786 158.574 13.232 160.871 13.232ZM189.016 13.232C191.009 13.232 192.851 13.492 194.541 14.012C196.231 14.532 197.704 15.3336 198.961 16.417C200.218 17.5003 201.193 18.887 201.886 20.577C202.623 22.2236 202.991 24.1953 202.991 26.492V46.252H194.541V27.987C194.541 25.257 193.869 23.2636 192.526 22.007C191.183 20.707 189.016 20.057 186.026 20.057C183.773 20.057 181.736 20.4903 179.916 21.357C178.096 22.2236 176.623 23.3286 175.496 24.672C174.369 25.972 173.741 27.337 173.611 28.767L173.481 25.257C173.698 23.827 174.218 22.397 175.041 20.967C175.864 19.537 176.948 18.237 178.291 17.067C179.634 15.897 181.194 14.9653 182.971 14.272C184.791 13.5786 186.806 13.232 189.016 13.232ZM248.033 46.252H239.583V13.947H248.033V46.252ZM240.038 30.717L240.103 32.927C240.016 33.5336 239.799 34.422 239.453 35.592C239.106 36.7186 238.564 37.932 237.828 39.232C237.134 40.532 236.224 41.7886 235.098 43.002C233.971 44.172 232.584 45.147 230.938 45.927C229.291 46.6636 227.341 47.032 225.088 47.032C223.311 47.032 221.556 46.8153 219.823 46.382C218.133 45.9486 216.594 45.2336 215.208 44.237C213.821 43.197 212.716 41.8103 211.893 40.077C211.069 38.3436 210.658 36.1553 210.658 33.512V13.947H219.108V32.082C219.108 34.162 219.433 35.8086 220.083 37.022C220.776 38.192 221.773 39.0153 223.073 39.492C224.373 39.9686 225.911 40.207 227.688 40.207C230.028 40.207 232.043 39.7086 233.733 38.712C235.423 37.672 236.788 36.4153 237.828 34.942C238.911 33.4686 239.648 32.0603 240.038 30.717ZM294.076 33.512C293.86 36.3286 292.95 38.7553 291.346 40.792C289.786 42.8286 287.62 44.3886 284.846 45.472C282.073 46.512 278.78 47.032 274.966 47.032C270.98 47.032 267.405 46.4036 264.241 45.147C261.121 43.847 258.651 41.962 256.831 39.492C255.055 36.9786 254.166 33.8803 254.166 30.197C254.166 26.5136 255.055 23.4153 256.831 20.902C258.651 18.3886 261.121 16.482 264.241 15.182C267.405 13.882 270.98 13.232 274.966 13.232C278.78 13.232 282.051 13.7736 284.781 14.857C287.511 15.897 289.656 17.4136 291.216 19.407C292.82 21.4003 293.751 23.8053 294.011 26.622H286.276C285.54 24.4553 284.175 22.7653 282.181 21.552C280.188 20.3386 277.783 19.732 274.966 19.732C272.713 19.732 270.655 20.122 268.791 20.902C266.971 21.682 265.498 22.852 264.371 24.412C263.288 25.9286 262.746 27.857 262.746 30.197C262.746 32.4936 263.288 34.422 264.371 35.982C265.455 37.4986 266.928 38.647 268.791 39.427C270.655 40.1636 272.713 40.532 274.966 40.532C278 40.532 280.47 39.9253 282.376 38.712C284.326 37.4986 285.648 35.7653 286.341 33.512H294.076ZM329.797 46.252V28.507C329.797 26.7303 329.493 25.257 328.887 24.087C328.28 22.917 327.305 22.0286 325.962 21.422C324.662 20.8153 322.907 20.512 320.697 20.512C318.573 20.512 316.645 20.9236 314.912 21.747C313.178 22.527 311.77 23.567 310.687 24.867C309.603 26.1236 308.997 27.467 308.867 28.897L308.802 25.322C309.018 23.892 309.517 22.462 310.297 21.032C311.077 19.602 312.117 18.302 313.417 17.132C314.717 15.962 316.277 15.0303 318.097 14.337C319.96 13.6003 322.04 13.232 324.337 13.232C326.33 13.232 328.172 13.492 329.862 14.012C331.552 14.4886 333.025 15.247 334.282 16.287C335.538 17.327 336.513 18.627 337.207 20.187C337.9 21.7036 338.247 23.502 338.247 25.582V46.252H329.797ZM300.872 46.252V0.946951H309.322V46.252H300.872Z" fill="#FFBD00"/>
<path d="M29.4265 184.052C34.3332 184.852 38.0932 186.692 40.7065 189.572C43.3198 192.399 44.6265 195.919 44.6265 200.132C44.6265 203.385 43.7732 206.399 42.0665 209.172C40.3598 211.892 37.7465 214.079 34.2265 215.732C30.7598 217.385 26.4932 218.212 21.4265 218.212C17.4798 218.212 13.5865 217.705 9.74648 216.692C5.95982 215.625 2.73315 214.132 0.0664844 212.212L5.10648 202.292C7.23982 203.892 9.69315 205.145 12.4665 206.052C15.2932 206.905 18.1732 207.332 21.1065 207.332C24.3598 207.332 26.9198 206.719 28.7865 205.492C30.6532 204.212 31.5865 202.425 31.5865 200.132C31.5865 195.545 28.0932 193.252 21.1065 193.252H15.1865V184.692L26.7065 171.652H2.86648V161.252H42.0665V169.652L29.4265 184.052ZM62.789 191.492C58.6823 191.492 55.3223 190.105 52.709 187.332C50.149 184.505 48.869 180.745 48.869 176.052C48.869 171.359 50.149 167.625 52.709 164.852C55.3223 162.025 58.6823 160.612 62.789 160.612C66.8957 160.612 70.229 162.025 72.789 164.852C75.349 167.625 76.629 171.359 76.629 176.052C76.629 180.745 75.349 184.505 72.789 187.332C70.229 190.105 66.8957 191.492 62.789 191.492ZM96.149 161.252H105.669L67.429 217.252H57.909L96.149 161.252ZM62.789 184.932C64.6023 184.932 66.0157 184.185 67.029 182.692C68.0957 181.199 68.629 178.985 68.629 176.052C68.629 173.119 68.0957 170.905 67.029 169.412C66.0157 167.919 64.6023 167.172 62.789 167.172C61.029 167.172 59.6157 167.945 58.549 169.492C57.4823 170.985 56.949 173.172 56.949 176.052C56.949 178.932 57.4823 181.145 58.549 182.692C59.6157 184.185 61.029 184.932 62.789 184.932ZM100.789 217.892C98.1223 217.892 95.7223 217.279 93.589 216.052C91.509 214.772 89.8823 212.959 88.709 210.612C87.5357 208.265 86.949 205.545 86.949 202.452C86.949 199.359 87.5357 196.639 88.709 194.292C89.8823 191.945 91.509 190.159 93.589 188.932C95.7223 187.652 98.1223 187.012 100.789 187.012C104.896 187.012 108.229 188.425 110.789 191.252C113.402 194.025 114.709 197.759 114.709 202.452C114.709 207.145 113.402 210.905 110.789 213.732C108.229 216.505 104.896 217.892 100.789 217.892ZM100.789 211.332C102.602 211.332 104.016 210.585 105.029 209.092C106.096 207.545 106.629 205.332 106.629 202.452C106.629 199.572 106.096 197.385 105.029 195.892C104.016 194.345 102.602 193.572 100.789 193.572C99.029 193.572 97.6157 194.319 96.549 195.812C95.4823 197.305 94.949 199.519 94.949 202.452C94.949 205.385 95.4823 207.599 96.549 209.092C97.6157 210.585 99.029 211.332 100.789 211.332ZM140.904 188.652V193.212H134.864V188.652H140.904ZM135.264 197.372H140.464V217.252H135.264V197.372ZM145.647 197.372H150.847V217.252H145.647V197.372ZM160.087 196.932C161.314 196.932 162.447 197.092 163.487 197.412C164.527 197.732 165.434 198.225 166.207 198.892C166.98 199.559 167.58 200.412 168.007 201.452C168.434 202.465 168.647 203.679 168.647 205.092V217.252H163.447V206.012C163.447 204.332 163.034 203.105 162.207 202.332C161.407 201.532 160.087 201.132 158.247 201.132C156.86 201.132 155.607 201.399 154.487 201.932C153.367 202.465 152.46 203.145 151.767 203.972C151.074 204.772 150.674 205.612 150.567 206.492L150.527 204.452C150.66 203.519 150.967 202.612 151.447 201.732C151.927 200.852 152.567 200.052 153.367 199.332C154.194 198.585 155.167 197.999 156.287 197.572C157.407 197.145 158.674 196.932 160.087 196.932ZM171.981 197.372H187.421V201.412H171.981V197.372ZM177.101 191.932H182.301V217.252H177.101V191.932ZM208.572 210.652H213.612C213.398 212.012 212.825 213.225 211.892 214.292C210.985 215.359 209.745 216.199 208.172 216.812C206.598 217.425 204.678 217.732 202.412 217.732C199.878 217.732 197.638 217.332 195.692 216.532C193.745 215.705 192.225 214.519 191.132 212.972C190.038 211.425 189.492 209.559 189.492 207.372C189.492 205.185 190.025 203.319 191.092 201.772C192.158 200.199 193.638 198.999 195.532 198.172C197.452 197.345 199.692 196.932 202.252 196.932C204.865 196.932 207.038 197.345 208.772 198.172C210.505 198.999 211.785 200.252 212.612 201.932C213.465 203.585 213.825 205.705 213.692 208.292H194.732C194.865 209.305 195.238 210.225 195.852 211.052C196.492 211.879 197.345 212.532 198.412 213.012C199.505 213.492 200.798 213.732 202.292 213.732C203.945 213.732 205.318 213.452 206.412 212.892C207.532 212.305 208.252 211.559 208.572 210.652ZM202.012 200.892C200.092 200.892 198.532 201.319 197.332 202.172C196.132 202.999 195.358 204.025 195.012 205.252H208.532C208.398 203.919 207.758 202.865 206.612 202.092C205.492 201.292 203.958 200.892 202.012 200.892ZM217.561 197.372H222.761V217.252H217.561V197.372ZM230.401 201.652C228.908 201.652 227.614 201.945 226.521 202.532C225.428 203.092 224.548 203.785 223.881 204.612C223.214 205.439 222.748 206.239 222.481 207.012L222.441 204.812C222.468 204.492 222.574 204.025 222.761 203.412C222.948 202.772 223.228 202.092 223.601 201.372C223.974 200.625 224.468 199.919 225.081 199.252C225.694 198.559 226.441 197.999 227.321 197.572C228.201 197.145 229.228 196.932 230.401 196.932V201.652ZM251.736 210.652H256.776C256.562 212.012 255.989 213.225 255.056 214.292C254.149 215.359 252.909 216.199 251.336 216.812C249.762 217.425 247.842 217.732 245.576 217.732C243.042 217.732 240.802 217.332 238.856 216.532C236.909 215.705 235.389 214.519 234.296 212.972C233.202 211.425 232.656 209.559 232.656 207.372C232.656 205.185 233.189 203.319 234.256 201.772C235.322 200.199 236.802 198.999 238.696 198.172C240.616 197.345 242.856 196.932 245.416 196.932C248.029 196.932 250.202 197.345 251.936 198.172C253.669 198.999 254.949 200.252 255.776 201.932C256.629 203.585 256.989 205.705 256.856 208.292H237.896C238.029 209.305 238.402 210.225 239.016 211.052C239.656 211.879 240.509 212.532 241.576 213.012C242.669 213.492 243.962 213.732 245.456 213.732C247.109 213.732 248.482 213.452 249.576 212.892C250.696 212.305 251.416 211.559 251.736 210.652ZM245.176 200.892C243.256 200.892 241.696 201.319 240.496 202.172C239.296 202.999 238.522 204.025 238.176 205.252H251.696C251.562 203.919 250.922 202.865 249.776 202.092C248.656 201.292 247.122 200.892 245.176 200.892ZM259.925 210.652H264.725C265.019 211.559 265.619 212.305 266.525 212.892C267.459 213.452 268.672 213.732 270.165 213.732C271.179 213.732 271.965 213.639 272.525 213.452C273.085 213.265 273.472 212.999 273.685 212.652C273.899 212.279 274.005 211.865 274.005 211.412C274.005 210.852 273.832 210.425 273.485 210.132C273.139 209.812 272.605 209.559 271.885 209.372C271.165 209.185 270.245 209.012 269.125 208.852C268.005 208.665 266.925 208.439 265.885 208.172C264.845 207.905 263.925 207.559 263.125 207.132C262.325 206.679 261.685 206.119 261.205 205.452C260.752 204.759 260.525 203.919 260.525 202.932C260.525 201.972 260.752 201.119 261.205 200.372C261.685 199.625 262.339 198.999 263.165 198.492C264.019 197.985 265.005 197.599 266.125 197.332C267.272 197.065 268.499 196.932 269.805 196.932C271.779 196.932 273.419 197.225 274.725 197.812C276.032 198.372 277.005 199.172 277.645 200.212C278.312 201.225 278.645 202.399 278.645 203.732H274.045C273.832 202.745 273.405 202.039 272.765 201.612C272.125 201.159 271.139 200.932 269.805 200.932C268.499 200.932 267.512 201.132 266.845 201.532C266.179 201.932 265.845 202.479 265.845 203.172C265.845 203.732 266.045 204.172 266.445 204.492C266.872 204.785 267.485 205.025 268.285 205.212C269.112 205.399 270.139 205.599 271.365 205.812C272.405 206.025 273.392 206.265 274.325 206.532C275.285 206.799 276.139 207.145 276.885 207.572C277.632 207.972 278.219 208.519 278.645 209.212C279.099 209.879 279.325 210.732 279.325 211.772C279.325 213.052 278.952 214.132 278.205 215.012C277.485 215.892 276.445 216.572 275.085 217.052C273.725 217.505 272.099 217.732 270.205 217.732C268.525 217.732 267.072 217.559 265.845 217.212C264.645 216.839 263.645 216.372 262.845 215.812C262.045 215.225 261.419 214.612 260.965 213.972C260.539 213.305 260.245 212.679 260.085 212.092C259.925 211.505 259.872 211.025 259.925 210.652ZM281.903 197.372H297.343V201.412H281.903V197.372ZM287.023 191.932H292.223V217.252H287.023V191.932Z" fill="#23A323"/>
</svg>
