<svg width="463" height="563" viewBox="0 0 463 563" fill="none" xmlns="http://www.w3.org/2000/svg">
<g filter="url(#filter0_d_11539_213690)">
<g clip-path="url(#clip0_11539_213690)">
<rect x="40.416" y="37.2129" width="382.309" height="481.846" fill="#23A323"/>
<rect x="86.0215" y="86.8633" width="182" height="32" rx="3" fill="white"/>
<path d="M130.011 99.3733H130.971V105.863H130.011V99.3733ZM140.341 104.803L140.061 104.903V99.3733H141.031V105.863H140.061L135.531 100.453L135.811 100.353V105.863H134.851V99.3733H135.811L140.341 104.803ZM144.275 103.733H145.195C145.215 103.993 145.301 104.23 145.455 104.443C145.615 104.65 145.828 104.813 146.095 104.933C146.368 105.053 146.685 105.113 147.045 105.113C147.358 105.113 147.618 105.07 147.825 104.983C148.031 104.897 148.185 104.78 148.285 104.633C148.391 104.48 148.445 104.3 148.445 104.093C148.445 103.887 148.388 103.723 148.275 103.603C148.161 103.477 147.991 103.373 147.765 103.293C147.538 103.207 147.258 103.123 146.925 103.043C146.631 102.97 146.341 102.883 146.055 102.783C145.775 102.677 145.515 102.547 145.275 102.393C145.041 102.24 144.851 102.057 144.705 101.843C144.565 101.623 144.495 101.36 144.495 101.053C144.495 100.727 144.585 100.43 144.765 100.163C144.945 99.8899 145.208 99.6733 145.555 99.5133C145.908 99.3466 146.335 99.2633 146.835 99.2633C147.608 99.2633 148.191 99.4566 148.585 99.8433C148.985 100.23 149.178 100.747 149.165 101.393H148.265C148.245 100.94 148.101 100.617 147.835 100.423C147.568 100.223 147.221 100.123 146.795 100.123C146.428 100.123 146.115 100.2 145.855 100.353C145.595 100.5 145.465 100.733 145.465 101.053C145.465 101.193 145.495 101.317 145.555 101.423C145.615 101.523 145.715 101.617 145.855 101.703C145.995 101.79 146.181 101.873 146.415 101.953C146.655 102.033 146.951 102.12 147.305 102.213C147.571 102.273 147.828 102.35 148.075 102.443C148.328 102.537 148.555 102.653 148.755 102.793C148.955 102.933 149.111 103.113 149.225 103.333C149.345 103.553 149.405 103.823 149.405 104.143C149.405 104.483 149.321 104.793 149.155 105.073C148.988 105.347 148.728 105.567 148.375 105.733C148.028 105.893 147.578 105.973 147.025 105.973C146.585 105.973 146.201 105.917 145.875 105.803C145.555 105.69 145.285 105.543 145.065 105.363C144.851 105.183 144.681 104.99 144.555 104.783C144.435 104.577 144.351 104.38 144.305 104.193C144.265 104.007 144.255 103.853 144.275 103.733ZM152.074 99.3733H157.764V100.233H152.074V99.3733ZM154.434 100.133H155.404V105.863H154.434V100.133ZM161.092 104.253V103.393H164.572V104.253H161.092ZM159.682 105.863L162.332 99.3733H163.352L166.022 105.863H164.982L162.662 100.003H163.022L160.712 105.863H159.682ZM174.591 104.803L174.311 104.903V99.3733H175.281V105.863H174.311L169.781 100.453L170.061 100.353V105.863H169.101V99.3733H170.061L174.591 104.803ZM178.344 99.3733H184.034V100.233H178.344V99.3733ZM180.704 100.133H181.674V105.863H180.704V100.133ZM192.347 99.3733V105.003H196.167V105.863H191.387V99.3733H192.347ZM202.439 105.973C201.765 105.973 201.165 105.837 200.639 105.563C200.119 105.29 199.709 104.903 199.409 104.403C199.115 103.903 198.969 103.31 198.969 102.623C198.969 101.93 199.115 101.333 199.409 100.833C199.709 100.333 200.119 99.9466 200.639 99.6733C201.165 99.3999 201.765 99.2633 202.439 99.2633C203.119 99.2633 203.719 99.3999 204.239 99.6733C204.759 99.9466 205.169 100.333 205.469 100.833C205.769 101.333 205.919 101.93 205.919 102.623C205.919 103.31 205.769 103.903 205.469 104.403C205.169 104.903 204.759 105.29 204.239 105.563C203.719 105.837 203.119 105.973 202.439 105.973ZM202.439 105.103C202.919 105.103 203.345 105.01 203.719 104.823C204.092 104.637 204.389 104.36 204.609 103.993C204.829 103.627 204.939 103.17 204.939 102.623C204.939 102.077 204.829 101.62 204.609 101.253C204.389 100.887 204.092 100.61 203.719 100.423C203.345 100.23 202.919 100.133 202.439 100.133C201.972 100.133 201.549 100.23 201.169 100.423C200.789 100.61 200.489 100.887 200.269 101.253C200.049 101.62 199.939 102.077 199.939 102.623C199.939 103.17 200.049 103.627 200.269 103.993C200.489 104.36 200.789 104.637 201.169 104.823C201.549 105.01 201.972 105.103 202.439 105.103ZM209.893 104.253V103.393H213.373V104.253H209.893ZM208.483 105.863L211.133 99.3733H212.153L214.823 105.863H213.783L211.463 100.003H211.823L209.513 105.863H208.483ZM223.392 104.803L223.112 104.903V99.3733H224.082V105.863H223.112L218.582 100.453L218.862 100.353V105.863H217.902V99.3733H218.862L223.392 104.803Z" fill="black"/>
<path d="M104.416 199.25L106.096 203.45C106.176 203.65 106.156 203.83 106.036 203.99C105.916 204.19 105.736 204.29 105.496 204.29H91.8159C91.5759 204.29 91.3959 204.19 91.2759 203.99C91.1559 203.83 91.1359 203.65 91.2159 203.45L92.8959 199.25V167.45L91.2159 163.25C91.1359 163.05 91.1559 162.87 91.2759 162.71C91.3959 162.51 91.5759 162.41 91.8159 162.41H112.276C116.396 162.41 119.816 163.17 122.536 164.69C125.296 166.21 127.356 168.11 128.716 170.39C130.076 172.67 130.756 175.13 130.756 177.77C130.756 180.41 130.076 182.87 128.716 185.15C127.356 187.43 125.296 189.33 122.536 190.85C119.816 192.37 116.396 193.13 112.276 193.13H104.416V199.25ZM104.416 186.17H109.516C111.636 186.17 113.396 185.77 114.796 184.97C116.236 184.13 117.296 183.09 117.976 181.85C118.696 180.57 119.056 179.21 119.056 177.77C119.056 176.33 118.696 174.99 117.976 173.75C117.296 172.47 116.236 171.43 114.796 170.63C113.396 169.79 111.636 169.37 109.516 169.37H104.416V186.17ZM165.954 203.57C166.034 203.77 166.014 203.95 165.894 204.11C165.774 204.31 165.614 204.41 165.414 204.41H153.474C153.034 204.41 152.814 204.19 152.814 203.75V201.89C151.334 203.01 149.754 203.83 148.074 204.35C146.394 204.83 144.594 205.07 142.674 205.07C141.634 205.07 140.594 204.97 139.554 204.77C138.554 204.57 137.614 204.25 136.734 203.81C135.854 203.33 135.054 202.75 134.334 202.07C133.614 201.35 133.054 200.49 132.654 199.49C131.814 197.45 131.714 195.41 132.354 193.37C132.994 191.33 134.034 189.55 135.474 188.03C136.554 186.91 137.774 185.97 139.134 185.21C140.494 184.41 141.914 183.77 143.394 183.29C144.914 182.81 146.454 182.47 148.014 182.27C149.614 182.03 151.174 181.91 152.694 181.91H152.874C152.834 181.35 152.714 180.81 152.514 180.29C152.354 179.77 152.034 179.35 151.554 179.03C150.554 178.43 149.434 178.17 148.194 178.25C146.994 178.29 145.774 178.53 144.534 178.97C143.294 179.41 142.094 179.97 140.934 180.65C139.814 181.29 138.834 181.91 137.994 182.51C137.794 182.63 137.614 182.67 137.454 182.63C137.254 182.59 137.134 182.47 137.094 182.27L134.454 176.81C134.374 176.65 134.374 176.47 134.454 176.27C134.494 176.11 134.614 175.99 134.814 175.91C136.294 175.27 138.034 174.73 140.034 174.29C142.074 173.85 144.194 173.59 146.394 173.51C148.594 173.39 150.754 173.49 152.874 173.81C155.034 174.13 156.954 174.73 158.634 175.61C160.354 176.49 161.734 177.69 162.774 179.21C163.854 180.73 164.394 182.63 164.394 184.91V199.31L165.954 203.57ZM152.814 187.19C150.294 187.43 148.214 188.49 146.574 190.37C145.894 191.13 145.334 192.01 144.894 193.01C144.454 194.01 144.274 195.03 144.354 196.07C144.394 196.51 144.494 196.91 144.654 197.27C144.814 197.63 145.074 197.93 145.434 198.17C146.114 198.61 146.874 198.75 147.714 198.59C148.594 198.43 149.334 198.15 149.934 197.75C150.894 197.11 151.614 196.31 152.094 195.35C152.574 194.35 152.814 193.27 152.814 192.11V187.19ZM187.2 194.39L190.38 174.83C190.46 174.47 190.66 174.29 190.98 174.29H200.94C201.14 174.29 201.3 174.39 201.42 174.59C201.54 174.75 201.56 174.93 201.48 175.13L186.06 210.41C185.06 212.69 183.76 214.27 182.16 215.15C180.6 216.03 178.5 216.43 175.86 216.35C175.46 216.35 174.92 216.29 174.24 216.17C173.56 216.05 172.86 215.89 172.14 215.69C171.42 215.53 170.72 215.33 170.04 215.09C169.4 214.89 168.94 214.67 168.66 214.43C168.42 214.27 168.34 214.05 168.42 213.77L170.76 206.57L171.18 205.37C171.26 205.17 171.4 205.03 171.6 204.95C171.8 204.87 171.98 204.91 172.14 205.07C172.5 205.43 173.04 205.95 173.76 206.63C174.48 207.31 175.24 207.95 176.04 208.55C176.88 209.15 177.7 209.59 178.5 209.87C179.3 210.15 179.98 210.07 180.54 209.63C181.02 209.27 181.3 208.85 181.38 208.37C181.5 207.89 181.5 207.41 181.38 206.93C181.3 206.45 181.14 205.97 180.9 205.49C180.66 205.01 180.46 204.55 180.3 204.11C179.74 202.83 179.06 201.35 178.26 199.67C177.5 197.95 176.74 196.29 175.98 194.69C175.22 193.09 174.52 191.65 173.88 190.37C173.28 189.05 172.86 188.13 172.62 187.61L166.92 175.25C166.84 175.05 166.86 174.85 166.98 174.65C167.1 174.45 167.26 174.35 167.46 174.35H179.28C179.4 174.35 179.52 174.39 179.64 174.47C179.76 174.51 179.82 174.59 179.82 174.71L179.7 177.23L187.2 194.39ZM226.255 170.27L224.215 166.91C224.095 166.75 224.075 166.57 224.155 166.37C224.195 166.21 224.315 166.09 224.515 166.01L226.615 165.35L236.815 162.59C236.975 162.55 237.155 162.59 237.355 162.71C237.515 162.83 237.595 162.99 237.595 163.19V199.43L239.275 203.63C239.355 203.83 239.335 204.01 239.215 204.17C239.095 204.37 238.935 204.47 238.735 204.47H226.795C226.355 204.47 226.135 204.25 226.135 203.81V201.41C225.335 202.17 224.475 202.83 223.555 203.39C222.635 203.95 221.635 204.37 220.555 204.65C218.315 205.25 216.035 205.23 213.715 204.59C212.035 204.11 210.475 203.37 209.035 202.37C207.635 201.33 206.415 200.13 205.375 198.77C204.375 197.37 203.575 195.85 202.975 194.21C202.415 192.53 202.135 190.81 202.135 189.05C202.135 187.21 202.395 185.45 202.915 183.77C203.475 182.05 204.335 180.49 205.495 179.09C207.615 176.49 210.295 174.79 213.535 173.99C214.895 173.71 216.275 173.59 217.675 173.63C219.315 173.71 220.835 174.01 222.235 174.53C223.635 175.01 224.935 175.77 226.135 176.81L226.255 170.27ZM225.535 193.85C225.855 192.73 225.995 191.57 225.955 190.37C225.955 189.17 225.815 188.01 225.535 186.89C225.215 185.65 224.755 184.43 224.155 183.23C223.595 182.03 222.815 181.03 221.815 180.23C221.135 179.67 220.375 179.27 219.535 179.03C218.735 178.75 217.915 178.73 217.075 178.97C216.315 179.17 215.675 179.57 215.155 180.17C214.675 180.73 214.295 181.37 214.015 182.09C213.575 183.25 213.395 184.51 213.475 185.87C213.555 187.23 213.735 188.51 214.015 189.71C214.295 190.83 214.675 191.93 215.155 193.01C215.635 194.09 216.275 195.05 217.075 195.89C217.635 196.49 218.275 197.03 218.995 197.51C219.715 197.95 220.495 198.15 221.335 198.11C221.495 198.11 221.735 198.07 222.055 197.99C222.375 197.91 222.615 197.83 222.775 197.75C223.575 197.43 224.195 196.91 224.635 196.19C225.115 195.47 225.475 194.71 225.715 193.91L225.535 193.85ZM276.169 203.57C276.249 203.77 276.229 203.95 276.109 204.11C275.989 204.31 275.829 204.41 275.629 204.41H263.689C263.249 204.41 263.029 204.19 263.029 203.75V201.89C261.549 203.01 259.969 203.83 258.289 204.35C256.609 204.83 254.809 205.07 252.889 205.07C251.849 205.07 250.809 204.97 249.769 204.77C248.769 204.57 247.829 204.25 246.949 203.81C246.069 203.33 245.269 202.75 244.549 202.07C243.829 201.35 243.269 200.49 242.869 199.49C242.029 197.45 241.929 195.41 242.569 193.37C243.209 191.33 244.249 189.55 245.689 188.03C246.769 186.91 247.989 185.97 249.349 185.21C250.709 184.41 252.129 183.77 253.609 183.29C255.129 182.81 256.669 182.47 258.229 182.27C259.829 182.03 261.389 181.91 262.909 181.91H263.089C263.049 181.35 262.929 180.81 262.729 180.29C262.569 179.77 262.249 179.35 261.769 179.03C260.769 178.43 259.649 178.17 258.409 178.25C257.209 178.29 255.989 178.53 254.749 178.97C253.509 179.41 252.309 179.97 251.149 180.65C250.029 181.29 249.049 181.91 248.209 182.51C248.009 182.63 247.829 182.67 247.669 182.63C247.469 182.59 247.349 182.47 247.309 182.27L244.669 176.81C244.589 176.65 244.589 176.47 244.669 176.27C244.709 176.11 244.829 175.99 245.029 175.91C246.509 175.27 248.249 174.73 250.249 174.29C252.289 173.85 254.409 173.59 256.609 173.51C258.809 173.39 260.969 173.49 263.089 173.81C265.249 174.13 267.169 174.73 268.849 175.61C270.569 176.49 271.949 177.69 272.989 179.21C274.069 180.73 274.609 182.63 274.609 184.91V199.31L276.169 203.57ZM263.029 187.19C260.509 187.43 258.429 188.49 256.789 190.37C256.109 191.13 255.549 192.01 255.109 193.01C254.669 194.01 254.489 195.03 254.569 196.07C254.609 196.51 254.709 196.91 254.869 197.27C255.029 197.63 255.289 197.93 255.649 198.17C256.329 198.61 257.089 198.75 257.929 198.59C258.809 198.43 259.549 198.15 260.149 197.75C261.109 197.11 261.829 196.31 262.309 195.35C262.789 194.35 263.029 193.27 263.029 192.11V187.19ZM297.415 194.39L300.595 174.83C300.675 174.47 300.875 174.29 301.195 174.29H311.155C311.355 174.29 311.515 174.39 311.635 174.59C311.755 174.75 311.775 174.93 311.695 175.13L296.275 210.41C295.275 212.69 293.975 214.27 292.375 215.15C290.815 216.03 288.715 216.43 286.075 216.35C285.675 216.35 285.135 216.29 284.455 216.17C283.775 216.05 283.075 215.89 282.355 215.69C281.635 215.53 280.935 215.33 280.255 215.09C279.615 214.89 279.155 214.67 278.875 214.43C278.635 214.27 278.555 214.05 278.635 213.77L280.975 206.57L281.395 205.37C281.475 205.17 281.615 205.03 281.815 204.95C282.015 204.87 282.195 204.91 282.355 205.07C282.715 205.43 283.255 205.95 283.975 206.63C284.695 207.31 285.455 207.95 286.255 208.55C287.095 209.15 287.915 209.59 288.715 209.87C289.515 210.15 290.195 210.07 290.755 209.63C291.235 209.27 291.515 208.85 291.595 208.37C291.715 207.89 291.715 207.41 291.595 206.93C291.515 206.45 291.355 205.97 291.115 205.49C290.875 205.01 290.675 204.55 290.515 204.11C289.955 202.83 289.275 201.35 288.475 199.67C287.715 197.95 286.955 196.29 286.195 194.69C285.435 193.09 284.735 191.65 284.095 190.37C283.495 189.05 283.075 188.13 282.835 187.61L277.135 175.25C277.055 175.05 277.075 174.85 277.195 174.65C277.315 174.45 277.475 174.35 277.675 174.35H289.495C289.615 174.35 289.735 174.39 289.855 174.47C289.975 174.51 290.035 174.59 290.035 174.71L289.915 177.23L297.415 194.39ZM104.416 272.33L123.016 268.31C123.176 268.27 123.356 268.31 123.556 268.43C123.716 268.55 123.796 268.71 123.796 268.91V278.69C123.796 279.13 123.576 279.35 123.136 279.35H91.8159C91.5759 279.35 91.3959 279.25 91.2759 279.05C91.1559 278.89 91.1359 278.71 91.2159 278.51L92.8959 274.31V242.45L91.2159 238.25C91.1359 238.05 91.1559 237.87 91.2759 237.71C91.3959 237.51 91.5759 237.41 91.8159 237.41H105.496C105.736 237.41 105.916 237.51 106.036 237.71C106.156 237.87 106.176 238.05 106.096 238.25L104.416 242.45V272.33ZM143.361 280.07C140.961 280.07 138.701 279.73 136.581 279.05C134.501 278.33 132.661 277.31 131.061 275.99C129.501 274.63 128.261 272.97 127.341 271.01C126.461 269.05 126.021 266.81 126.021 264.29C126.021 261.77 126.481 259.55 127.401 257.63C128.321 255.67 129.561 254.03 131.121 252.71C132.681 251.35 134.501 250.33 136.581 249.65C138.701 248.97 140.961 248.63 143.361 248.63C145.761 248.63 148.021 248.97 150.141 249.65C152.261 250.33 154.101 251.35 155.661 252.71C157.221 254.03 158.461 255.67 159.381 257.63C160.301 259.59 160.761 261.83 160.761 264.35C160.761 266.87 160.301 269.11 159.381 271.07C158.461 273.03 157.221 274.69 155.661 276.05C154.101 277.37 152.261 278.37 150.141 279.05C148.021 279.73 145.761 280.07 143.361 280.07ZM145.461 255.17C144.901 254.49 144.181 253.89 143.301 253.37C142.461 252.81 141.581 252.63 140.661 252.83C139.741 253.03 139.021 253.57 138.501 254.45C137.981 255.33 137.621 256.19 137.421 257.03C137.061 258.43 136.921 259.89 137.001 261.41C137.081 262.89 137.281 264.33 137.601 265.73C137.921 267.13 138.401 268.53 139.041 269.93C139.681 271.29 140.461 272.51 141.381 273.59C141.941 274.27 142.641 274.89 143.481 275.45C144.361 275.97 145.261 276.13 146.181 275.93C147.101 275.73 147.821 275.19 148.341 274.31C148.861 273.43 149.221 272.57 149.421 271.73C149.781 270.33 149.921 268.89 149.841 267.41C149.761 265.89 149.561 264.43 149.241 263.03C148.921 261.63 148.441 260.25 147.801 258.89C147.161 257.49 146.381 256.25 145.461 255.17ZM197.712 278.57C197.792 278.77 197.772 278.95 197.652 279.11C197.532 279.31 197.372 279.41 197.172 279.41H185.232C184.792 279.41 184.572 279.19 184.572 278.75V276.89C183.092 278.01 181.512 278.83 179.832 279.35C178.152 279.83 176.352 280.07 174.432 280.07C173.392 280.07 172.352 279.97 171.312 279.77C170.312 279.57 169.372 279.25 168.492 278.81C167.612 278.33 166.812 277.75 166.092 277.07C165.372 276.35 164.812 275.49 164.412 274.49C163.572 272.45 163.472 270.41 164.112 268.37C164.752 266.33 165.792 264.55 167.232 263.03C168.312 261.91 169.532 260.97 170.892 260.21C172.252 259.41 173.672 258.77 175.152 258.29C176.672 257.81 178.212 257.47 179.772 257.27C181.372 257.03 182.932 256.91 184.452 256.91H184.632C184.592 256.35 184.472 255.81 184.272 255.29C184.112 254.77 183.792 254.35 183.312 254.03C182.312 253.43 181.192 253.17 179.952 253.25C178.752 253.29 177.532 253.53 176.292 253.97C175.052 254.41 173.852 254.97 172.692 255.65C171.572 256.29 170.592 256.91 169.752 257.51C169.552 257.63 169.372 257.67 169.212 257.63C169.012 257.59 168.892 257.47 168.852 257.27L166.212 251.81C166.132 251.65 166.132 251.47 166.212 251.27C166.252 251.11 166.372 250.99 166.572 250.91C168.052 250.27 169.792 249.73 171.792 249.29C173.832 248.85 175.952 248.59 178.152 248.51C180.352 248.39 182.512 248.49 184.632 248.81C186.792 249.13 188.712 249.73 190.392 250.61C192.112 251.49 193.492 252.69 194.532 254.21C195.612 255.73 196.152 257.63 196.152 259.91V274.31L197.712 278.57ZM184.572 262.19C182.052 262.43 179.972 263.49 178.332 265.37C177.652 266.13 177.092 267.01 176.652 268.01C176.212 269.01 176.032 270.03 176.112 271.07C176.152 271.51 176.252 271.91 176.412 272.27C176.572 272.63 176.832 272.93 177.192 273.17C177.872 273.61 178.632 273.75 179.472 273.59C180.352 273.43 181.092 273.15 181.692 272.75C182.652 272.11 183.372 271.31 183.852 270.35C184.332 269.35 184.572 268.27 184.572 267.11V262.19ZM222.022 274.19V258.47C222.022 258.11 221.962 257.69 221.842 257.21C221.762 256.73 221.542 256.39 221.182 256.19C220.942 256.07 220.642 256.03 220.282 256.07C219.922 256.07 219.562 256.13 219.202 256.25C218.842 256.37 218.482 256.53 218.122 256.73C217.802 256.89 217.522 257.03 217.282 257.15C216.282 257.71 215.362 258.35 214.522 259.07V274.25L216.202 278.45C216.282 278.65 216.262 278.83 216.142 278.99C216.022 279.19 215.862 279.29 215.662 279.29H201.982C201.782 279.29 201.622 279.19 201.502 278.99C201.382 278.83 201.362 278.65 201.442 278.45L203.002 274.55V256.85L201.082 253.67C200.962 253.51 200.942 253.33 201.022 253.13C201.062 252.97 201.182 252.85 201.382 252.77L213.742 249.29C213.902 249.25 214.082 249.29 214.282 249.41C214.442 249.53 214.522 249.69 214.522 249.89V253.07C215.202 252.51 215.902 251.99 216.622 251.51C217.342 250.99 218.102 250.51 218.902 250.07C219.862 249.51 220.862 249.13 221.902 248.93C222.942 248.73 224.002 248.63 225.082 248.63C227.722 248.67 229.782 249.45 231.262 250.97C232.742 252.49 233.482 254.57 233.482 257.21V274.31L235.162 278.51C235.242 278.71 235.222 278.89 235.102 279.05C234.982 279.25 234.822 279.35 234.622 279.35H220.942C220.742 279.35 220.582 279.25 220.462 279.05C220.342 278.89 220.322 278.71 220.402 278.51L222.022 274.19Z" fill="white"/>
<rect x="132.224" y="412.68" width="97.0735" height="106.378" fill="#297720"/>
<rect x="229.297" y="414.395" width="97.0735" height="106.378" fill="#23A323"/>
<rect x="229.297" y="309.086" width="97.0735" height="106.378" fill="#297720"/>
<rect x="325.508" y="309.086" width="97.0735" height="106.378" fill="#36912C"/>
<rect x="325.508" y="204.35" width="97.0735" height="106.378" fill="#297720"/>
<rect x="325.508" y="413.395" width="97.0735" height="106.378" fill="#189218"/>
<path d="M265.637 479.863H263.243L267.995 466.705H270.353L275.105 479.863H272.675L271.613 476.821H266.699L265.637 479.863ZM268.877 470.629L267.383 474.877H270.947L269.435 470.629C269.327 470.287 269.201 469.891 269.165 469.621C269.111 469.873 269.003 470.269 268.877 470.629ZM276.431 483.985V470.971H278.465L278.609 472.321C279.149 471.295 280.319 470.701 281.669 470.701C284.171 470.701 285.827 472.519 285.827 475.309C285.827 478.081 284.315 480.097 281.669 480.097C280.337 480.097 279.185 479.575 278.627 478.675V483.985H276.431ZM278.645 475.417C278.645 477.019 279.635 478.117 281.147 478.117C282.695 478.117 283.613 477.001 283.613 475.417C283.613 473.833 282.695 472.699 281.147 472.699C279.635 472.699 278.645 473.815 278.645 475.417ZM287.575 483.985V470.971H289.609L289.753 472.321C290.293 471.295 291.463 470.701 292.813 470.701C295.315 470.701 296.971 472.519 296.971 475.309C296.971 478.081 295.459 480.097 292.813 480.097C291.481 480.097 290.329 479.575 289.771 478.675V483.985H287.575ZM289.789 475.417C289.789 477.019 290.779 478.117 292.291 478.117C293.839 478.117 294.757 477.001 294.757 475.417C294.757 473.833 293.839 472.699 292.291 472.699C290.779 472.699 289.789 473.815 289.789 475.417ZM300.934 479.863H298.756V466.471H300.934V479.863ZM302.464 483.985V482.149H303.778C304.642 482.149 305.182 481.951 305.56 480.907L305.812 480.241L302.23 470.971H304.552L306.838 477.451L309.25 470.971H311.518L307.162 481.843C306.496 483.499 305.56 484.183 304.102 484.183C303.49 484.183 302.95 484.111 302.464 483.985ZM320.244 466.705V477.739H325.752V479.863H317.94V466.705H320.244ZM326.604 475.399C326.604 472.627 328.602 470.719 331.356 470.719C334.11 470.719 336.108 472.627 336.108 475.399C336.108 478.171 334.11 480.079 331.356 480.079C328.602 480.079 326.604 478.171 326.604 475.399ZM328.8 475.399C328.8 477.019 329.844 478.117 331.356 478.117C332.868 478.117 333.912 477.019 333.912 475.399C333.912 473.779 332.868 472.681 331.356 472.681C329.844 472.681 328.8 473.779 328.8 475.399ZM340.495 480.097C338.605 480.097 337.453 478.999 337.453 477.325C337.453 475.687 338.641 474.661 340.747 474.499L343.411 474.301V474.103C343.411 472.897 342.691 472.411 341.575 472.411C340.279 472.411 339.559 472.951 339.559 473.887H337.687C337.687 471.961 339.271 470.701 341.683 470.701C344.077 470.701 345.553 471.997 345.553 474.463V479.863H343.627L343.465 478.549C343.087 479.467 341.881 480.097 340.495 480.097ZM341.215 478.441C342.565 478.441 343.429 477.631 343.429 476.263V475.795L341.575 475.939C340.207 476.065 339.685 476.515 339.685 477.235C339.685 478.045 340.225 478.441 341.215 478.441ZM349.906 479.863H347.71V470.971H349.744L349.924 472.123C350.482 471.223 351.562 470.701 352.768 470.701C355 470.701 356.152 472.087 356.152 474.391V479.863H353.956V474.913C353.956 473.419 353.218 472.699 352.084 472.699C350.734 472.699 349.906 473.635 349.906 475.075V479.863Z" fill="white"/>
<circle cx="11.9014" cy="11.9014" r="11.4014" transform="matrix(-1 0 0 1 390.848 461.863)" stroke="white"/>
<path d="M377.985 479.119C378.094 479.119 378.203 479.079 378.289 478.993L382.027 475.255C382.635 474.648 382.635 473.65 382.027 473.042L378.289 469.304C378.123 469.138 377.848 469.138 377.682 469.304C377.515 469.471 377.515 469.746 377.682 469.912L381.419 473.65C381.695 473.925 381.695 474.372 381.419 474.648L377.682 478.385C377.515 478.552 377.515 478.827 377.682 478.993C377.768 479.073 377.876 479.119 377.985 479.119Z" fill="white"/>
</g>
</g>
<defs>
<filter id="filter0_d_11539_213690" x="0.853516" y="0.507033" width="462" height="562" filterUnits="userSpaceOnUse" color-interpolation-filters="sRGB">
<feFlood flood-opacity="0" result="BackgroundImageFix"/>
<feColorMatrix in="SourceAlpha" type="matrix" values="0 0 0 0 0 0 0 0 0 0 0 0 0 0 0 0 0 0 127 0" result="hardAlpha"/>
<feOffset dy="3.64375"/>
<feGaussianBlur stdDeviation="20"/>
<feComposite in2="hardAlpha" operator="out"/>
<feColorMatrix type="matrix" values="0 0 0 0 0.137255 0 0 0 0 0.639216 0 0 0 0 0.137255 0 0 0 1 0"/>
<feBlend mode="normal" in2="BackgroundImageFix" result="effect1_dropShadow_11539_213690"/>
<feBlend mode="normal" in="SourceGraphic" in2="effect1_dropShadow_11539_213690" result="shape"/>
</filter>
<clipPath id="clip0_11539_213690">
<rect x="40.8535" y="36.8633" width="382" height="482" rx="20" fill="white"/>
</clipPath>
</defs>
</svg>
