<svg width="463" height="563" viewBox="0 0 463 563" fill="none" xmlns="http://www.w3.org/2000/svg">
<g filter="url(#filter0_d_11554_213740)">
<g clip-path="url(#clip0_11554_213740)">
<rect x="40.416" y="37.2129" width="382.309" height="481.846" fill="#FFBD00"/>
<rect x="86.0215" y="86.8633" width="182" height="32" rx="3" fill="white"/>
<path d="M126.271 99.3733V105.003H130.091V105.863H125.311V99.3733H126.271ZM136.363 105.973C135.69 105.973 135.09 105.837 134.563 105.563C134.043 105.29 133.633 104.903 133.333 104.403C133.04 103.903 132.893 103.31 132.893 102.623C132.893 101.93 133.04 101.333 133.333 100.833C133.633 100.333 134.043 99.9466 134.563 99.6733C135.09 99.3999 135.69 99.2633 136.363 99.2633C137.043 99.2633 137.643 99.3999 138.163 99.6733C138.683 99.9466 139.093 100.333 139.393 100.833C139.693 101.333 139.843 101.93 139.843 102.623C139.843 103.31 139.693 103.903 139.393 104.403C139.093 104.903 138.683 105.29 138.163 105.563C137.643 105.837 137.043 105.973 136.363 105.973ZM136.363 105.103C136.843 105.103 137.27 105.01 137.643 104.823C138.017 104.637 138.313 104.36 138.533 103.993C138.753 103.627 138.863 103.17 138.863 102.623C138.863 102.077 138.753 101.62 138.533 101.253C138.313 100.887 138.017 100.61 137.643 100.423C137.27 100.23 136.843 100.133 136.363 100.133C135.897 100.133 135.473 100.23 135.093 100.423C134.713 100.61 134.413 100.887 134.193 101.253C133.973 101.62 133.863 102.077 133.863 102.623C133.863 103.17 133.973 103.627 134.193 103.993C134.413 104.36 134.713 104.637 135.093 104.823C135.473 105.01 135.897 105.103 136.363 105.103ZM143.818 104.253V103.393H147.298V104.253H143.818ZM142.408 105.863L145.058 99.3733H146.078L148.748 105.863H147.708L145.388 100.003H145.748L143.438 105.863H142.408ZM157.316 104.803L157.036 104.903V99.3733H158.006V105.863H157.036L152.506 100.453L152.786 100.353V105.863H151.826V99.3733H152.786L157.316 104.803ZM166.187 99.3733H167.147V105.863H166.187V99.3733ZM176.517 104.803L176.237 104.903V99.3733H177.207V105.863H176.237L171.707 100.453L171.987 100.353V105.863H171.027V99.3733H171.987L176.517 104.803ZM180.27 99.3733H185.96V100.233H180.27V99.3733ZM182.63 100.133H183.6V105.863H182.63V100.133ZM189.976 103.053V105.003H194.156V105.863H189.016V99.3733H194.146V100.233H189.976V102.213H193.386V103.053H189.976ZM197.649 105.863V99.3733H200.989C201.456 99.3733 201.856 99.4433 202.189 99.5833C202.529 99.7166 202.789 99.9233 202.969 100.203C203.149 100.477 203.239 100.827 203.239 101.253C203.239 101.547 203.189 101.797 203.089 102.003C202.996 102.203 202.866 102.37 202.699 102.503C202.532 102.637 202.336 102.74 202.109 102.813C201.882 102.887 201.639 102.933 201.379 102.953L201.309 102.893C201.702 102.907 202.032 102.95 202.299 103.023C202.566 103.097 202.769 103.23 202.909 103.423C203.056 103.61 203.129 103.89 203.129 104.263V105.863H202.159V104.293C202.159 104.033 202.116 103.83 202.029 103.683C201.942 103.537 201.792 103.433 201.579 103.373C201.366 103.313 201.066 103.283 200.679 103.283H198.609V105.863H197.649ZM198.609 102.443H200.989C201.416 102.443 201.736 102.337 201.949 102.123C202.169 101.91 202.279 101.63 202.279 101.283C202.279 100.95 202.169 100.693 201.949 100.513C201.736 100.333 201.416 100.243 200.989 100.243H198.609V102.443ZM207.701 103.053V105.003H211.881V105.863H206.741V99.3733H211.871V100.233H207.701V102.213H211.111V103.053H207.701ZM214.934 103.733H215.854C215.874 103.993 215.961 104.23 216.114 104.443C216.274 104.65 216.488 104.813 216.754 104.933C217.028 105.053 217.344 105.113 217.704 105.113C218.018 105.113 218.278 105.07 218.484 104.983C218.691 104.897 218.844 104.78 218.944 104.633C219.051 104.48 219.104 104.3 219.104 104.093C219.104 103.887 219.048 103.723 218.934 103.603C218.821 103.477 218.651 103.373 218.424 103.293C218.198 103.207 217.918 103.123 217.584 103.043C217.291 102.97 217.001 102.883 216.714 102.783C216.434 102.677 216.174 102.547 215.934 102.393C215.701 102.24 215.511 102.057 215.364 101.843C215.224 101.623 215.154 101.36 215.154 101.053C215.154 100.727 215.244 100.43 215.424 100.163C215.604 99.8899 215.868 99.6733 216.214 99.5133C216.568 99.3466 216.994 99.2633 217.494 99.2633C218.268 99.2633 218.851 99.4566 219.244 99.8433C219.644 100.23 219.838 100.747 219.824 101.393H218.924C218.904 100.94 218.761 100.617 218.494 100.423C218.228 100.223 217.881 100.123 217.454 100.123C217.088 100.123 216.774 100.2 216.514 100.353C216.254 100.5 216.124 100.733 216.124 101.053C216.124 101.193 216.154 101.317 216.214 101.423C216.274 101.523 216.374 101.617 216.514 101.703C216.654 101.79 216.841 101.873 217.074 101.953C217.314 102.033 217.611 102.12 217.964 102.213C218.231 102.273 218.488 102.35 218.734 102.443C218.988 102.537 219.214 102.653 219.414 102.793C219.614 102.933 219.771 103.113 219.884 103.333C220.004 103.553 220.064 103.823 220.064 104.143C220.064 104.483 219.981 104.793 219.814 105.073C219.648 105.347 219.388 105.567 219.034 105.733C218.688 105.893 218.238 105.973 217.684 105.973C217.244 105.973 216.861 105.917 216.534 105.803C216.214 105.69 215.944 105.543 215.724 105.363C215.511 105.183 215.341 104.99 215.214 104.783C215.094 104.577 215.011 104.38 214.964 104.193C214.924 104.007 214.914 103.853 214.934 103.733ZM222.733 99.3733H228.423V100.233H222.733V99.3733ZM225.093 100.133H226.063V105.863H225.093V100.133Z" fill="black"/>
<path d="M120.436 177.17C121.836 177.69 123.176 178.35 124.456 179.15C125.736 179.95 126.876 180.93 127.876 182.09C128.796 183.17 129.536 184.35 130.096 185.63C130.656 186.91 130.976 188.25 131.056 189.65C131.136 190.77 131.036 191.87 130.756 192.95C130.516 194.03 130.136 195.07 129.616 196.07C129.056 197.19 128.356 198.21 127.516 199.13C126.676 200.05 125.736 200.87 124.696 201.59C122.896 202.87 120.836 203.75 118.516 204.23C116.196 204.71 113.956 204.97 111.796 205.01H108.976C105.936 204.89 102.916 204.33 99.9159 203.33C96.9559 202.29 94.1559 201.01 91.5159 199.49C91.3159 199.45 91.1959 199.33 91.1559 199.13C91.0759 198.93 91.0959 198.77 91.2159 198.65L96.6759 189.71C96.7959 189.51 96.9559 189.41 97.1559 189.41C97.3559 189.41 97.5159 189.47 97.6359 189.59C98.5959 190.51 99.6359 191.45 100.756 192.41C101.916 193.33 103.116 194.21 104.356 195.05C105.636 195.89 106.916 196.65 108.196 197.33C109.516 197.97 110.836 198.45 112.156 198.77C112.756 198.93 113.376 199.05 114.016 199.13C114.696 199.17 115.356 199.15 115.996 199.07C116.636 198.99 117.236 198.81 117.796 198.53C118.356 198.25 118.836 197.83 119.236 197.27C119.596 196.75 119.836 196.19 119.956 195.59C120.076 194.99 120.096 194.39 120.016 193.79C119.936 192.99 119.716 192.23 119.356 191.51C119.036 190.79 118.656 190.11 118.216 189.47C116.816 187.43 114.996 185.81 112.756 184.61C110.516 183.37 108.236 182.45 105.916 181.85C105.676 181.77 105.516 181.61 105.436 181.37C105.356 181.13 105.416 180.91 105.616 180.71L117.256 169.97L94.1559 172.13C93.9559 172.13 93.7959 172.07 93.6759 171.95C93.5559 171.83 93.4959 171.67 93.4959 171.47V163.07C93.4959 162.63 93.7159 162.41 94.1559 162.41H128.176C128.616 162.41 128.836 162.63 128.836 163.07V168.89C128.836 169.09 128.776 169.25 128.656 169.37L120.436 177.17ZM174.587 183.35C176.987 183.35 178.987 183.91 180.587 185.03C182.187 186.11 183.387 187.47 184.187 189.11C184.987 190.75 185.387 192.53 185.387 194.45C185.387 196.33 184.987 198.09 184.187 199.73C183.387 201.37 182.187 202.75 180.587 203.87C178.987 204.95 176.987 205.49 174.587 205.49C172.267 205.49 170.327 204.95 168.767 203.87C167.207 202.75 166.027 201.37 165.227 199.73C164.467 198.09 164.087 196.33 164.087 194.45C164.087 192.53 164.467 190.75 165.227 189.11C166.027 187.47 167.207 186.11 168.767 185.03C170.327 183.91 172.267 183.35 174.587 183.35ZM178.127 197.93C178.287 197.33 178.347 196.71 178.307 196.07C178.307 195.39 178.227 194.75 178.067 194.15C177.867 193.43 177.607 192.73 177.287 192.05C176.967 191.33 176.547 190.69 176.027 190.13C175.707 189.77 175.307 189.45 174.827 189.17C174.347 188.85 173.847 188.73 173.327 188.81C173.207 188.81 173.027 188.85 172.787 188.93C172.387 189.13 172.067 189.41 171.827 189.77C171.627 190.13 171.487 190.51 171.407 190.91C171.247 191.51 171.167 192.15 171.167 192.83C171.207 193.47 171.307 194.09 171.467 194.69C171.667 195.41 171.927 196.13 172.247 196.85C172.567 197.53 172.987 198.15 173.507 198.71C173.827 199.07 174.227 199.41 174.707 199.73C175.187 200.01 175.687 200.11 176.207 200.03C176.327 200.03 176.507 199.99 176.747 199.91C177.147 199.71 177.447 199.43 177.647 199.07C177.887 198.71 178.047 198.33 178.127 197.93ZM145.487 161.51C147.887 161.51 149.887 162.07 151.487 163.19C153.087 164.27 154.287 165.63 155.087 167.27C155.887 168.91 156.287 170.69 156.287 172.61C156.287 174.49 155.887 176.25 155.087 177.89C154.287 179.53 153.087 180.91 151.487 182.03C149.887 183.11 147.887 183.65 145.487 183.65C143.167 183.65 141.227 183.11 139.667 182.03C138.107 180.91 136.927 179.53 136.127 177.89C135.367 176.25 134.987 174.49 134.987 172.61C134.987 170.69 135.367 168.91 136.127 167.27C136.927 165.63 138.107 164.27 139.667 163.19C141.227 162.07 143.167 161.51 145.487 161.51ZM144.347 176.87C144.667 177.23 145.067 177.57 145.547 177.89C146.027 178.17 146.527 178.27 147.047 178.19C147.167 178.19 147.347 178.15 147.587 178.07C147.987 177.87 148.287 177.59 148.487 177.23C148.727 176.87 148.887 176.49 148.967 176.09C149.127 175.49 149.187 174.87 149.147 174.23C149.147 173.55 149.067 172.91 148.907 172.31C148.707 171.59 148.447 170.89 148.127 170.21C147.807 169.49 147.387 168.85 146.867 168.29C146.547 167.93 146.147 167.61 145.667 167.33C145.187 167.01 144.687 166.89 144.167 166.97C144.047 166.97 143.867 167.01 143.627 167.09C143.227 167.29 142.907 167.57 142.667 167.93C142.467 168.29 142.327 168.67 142.247 169.07C142.087 169.67 142.007 170.31 142.007 170.99C142.047 171.63 142.147 172.25 142.307 172.85C142.507 173.57 142.767 174.29 143.087 175.01C143.407 175.69 143.827 176.31 144.347 176.87ZM176.087 162.77C176.207 162.97 176.207 163.17 176.087 163.37L152.507 204.23C152.387 204.43 152.207 204.53 151.967 204.53H145.727C145.487 204.53 145.307 204.43 145.187 204.23C145.067 204.03 145.067 203.83 145.187 203.63L168.767 162.77C168.887 162.57 169.067 162.47 169.307 162.47H175.547C175.787 162.47 175.967 162.57 176.087 162.77ZM104.416 242.45V274.25L106.096 278.45C106.176 278.65 106.156 278.83 106.036 278.99C105.916 279.19 105.736 279.29 105.496 279.29H91.8159C91.5759 279.29 91.3959 279.19 91.2759 278.99C91.1559 278.83 91.1359 278.65 91.2159 278.45L92.8959 274.25V242.45L91.2159 238.25C91.1359 238.05 91.1559 237.87 91.2759 237.71C91.3959 237.51 91.5759 237.41 91.8159 237.41H105.496C105.736 237.41 105.916 237.51 106.036 237.71C106.156 237.87 106.176 238.05 106.096 238.25L104.416 242.45ZM130.323 274.19V258.47C130.323 258.11 130.263 257.69 130.143 257.21C130.063 256.73 129.843 256.39 129.483 256.19C129.243 256.07 128.943 256.03 128.583 256.07C128.223 256.07 127.863 256.13 127.503 256.25C127.143 256.37 126.783 256.53 126.423 256.73C126.103 256.89 125.823 257.03 125.583 257.15C124.583 257.71 123.663 258.35 122.823 259.07V274.25L124.503 278.45C124.583 278.65 124.563 278.83 124.443 278.99C124.323 279.19 124.163 279.29 123.963 279.29H110.283C110.083 279.29 109.923 279.19 109.803 278.99C109.683 278.83 109.663 278.65 109.743 278.45L111.303 274.55V256.85L109.383 253.67C109.263 253.51 109.243 253.33 109.323 253.13C109.363 252.97 109.483 252.85 109.683 252.77L122.043 249.29C122.203 249.25 122.383 249.29 122.583 249.41C122.743 249.53 122.823 249.69 122.823 249.89V253.07C123.503 252.51 124.203 251.99 124.923 251.51C125.643 250.99 126.403 250.51 127.203 250.07C128.163 249.51 129.163 249.13 130.203 248.93C131.243 248.73 132.303 248.63 133.383 248.63C136.023 248.67 138.083 249.45 139.563 250.97C141.043 252.49 141.783 254.57 141.783 257.21V274.31L143.463 278.51C143.543 278.71 143.523 278.89 143.403 279.05C143.283 279.25 143.123 279.35 142.923 279.35H129.243C129.043 279.35 128.883 279.25 128.763 279.05C128.643 278.89 128.623 278.71 128.703 278.51L130.323 274.19ZM147.865 245.03L145.825 241.67C145.705 241.51 145.685 241.33 145.765 241.13C145.805 240.97 145.925 240.85 146.125 240.77L148.225 240.11L158.425 237.35C158.585 237.31 158.765 237.35 158.965 237.47C159.125 237.59 159.205 237.75 159.205 237.95V249.29H166.945C167.385 249.29 167.605 249.51 167.605 249.95V257.45C167.605 257.69 167.505 257.87 167.305 257.99C167.145 258.11 166.965 258.13 166.765 258.05L159.265 254.81V269.39C159.265 270.67 159.485 271.63 159.925 272.27C160.405 272.91 161.005 273.31 161.725 273.47C162.445 273.59 163.225 273.49 164.065 273.17C164.945 272.81 165.785 272.29 166.585 271.61C166.785 271.41 167.005 271.37 167.245 271.49C167.485 271.61 167.605 271.79 167.605 272.03V276.47C167.605 276.67 167.525 276.83 167.365 276.95C165.765 278.23 164.145 279.09 162.505 279.53C160.865 279.97 158.965 280.19 156.805 280.19C153.925 280.19 151.725 279.47 150.205 278.03C148.685 276.55 147.925 274.37 147.925 271.49L147.865 245.03ZM183.445 268.19V268.37C184.085 270.33 185.285 271.89 187.045 273.05C188.805 274.17 190.665 274.87 192.625 275.15C193.265 275.27 193.965 275.33 194.725 275.33C195.885 275.33 197.025 275.19 198.145 274.91C199.305 274.63 200.405 274.21 201.445 273.65C201.725 273.49 201.965 273.55 202.165 273.83C202.365 274.11 202.365 274.37 202.165 274.61C200.445 276.65 198.345 278.09 195.865 278.93C193.425 279.73 190.905 280.13 188.305 280.13C185.905 280.13 183.645 279.79 181.525 279.11C179.445 278.39 177.605 277.37 176.005 276.05C174.445 274.69 173.205 273.03 172.285 271.07C171.405 269.11 170.965 266.87 170.965 264.35C170.965 261.83 171.405 259.61 172.285 257.69C173.205 255.73 174.445 254.09 176.005 252.77C177.565 251.41 179.385 250.39 181.465 249.71C183.545 249.03 185.785 248.69 188.185 248.69C192.665 248.69 196.105 249.75 198.505 251.87C200.945 253.99 202.305 257.29 202.585 261.77C202.585 262.09 202.445 262.29 202.165 262.37L200.065 263.03L193.405 265.13L183.265 268.31L183.445 268.19ZM191.965 260.69C192.005 259.77 191.905 258.79 191.665 257.75C191.465 257.07 191.185 256.39 190.825 255.71C190.505 255.03 190.085 254.45 189.565 253.97C189.085 253.45 188.505 253.07 187.825 252.83C187.185 252.55 186.465 252.51 185.665 252.71L185.305 252.89C184.505 253.21 183.885 253.77 183.445 254.57C183.005 255.33 182.685 256.09 182.485 256.85C182.165 257.97 181.985 259.13 181.945 260.33C181.945 261.53 182.045 262.71 182.245 263.87L191.965 260.69ZM206.812 274.25V257.03L204.772 253.67C204.652 253.51 204.632 253.33 204.712 253.13C204.752 252.97 204.872 252.85 205.072 252.77L207.172 252.11L217.372 249.35C217.532 249.31 217.712 249.35 217.912 249.47C218.072 249.59 218.152 249.75 218.152 249.95V252.11C218.832 251.47 219.592 250.91 220.432 250.43C221.272 249.95 222.092 249.55 222.892 249.23C223.812 248.91 224.752 248.71 225.712 248.63C226.672 248.51 227.612 248.59 228.532 248.87C228.812 248.95 228.952 249.15 228.952 249.47V258.53C228.952 258.81 228.832 259.01 228.592 259.13C228.352 259.25 228.132 259.21 227.932 259.01C227.172 258.21 226.272 257.65 225.232 257.33C224.192 257.01 223.132 256.95 222.052 257.15C221.332 257.27 220.572 257.57 219.772 258.05C218.972 258.49 218.472 259.11 218.272 259.91C218.232 260.03 218.212 260.21 218.212 260.45V274.31L219.892 278.51C219.972 278.71 219.952 278.89 219.832 279.05C219.712 279.25 219.552 279.35 219.352 279.35H205.672C205.472 279.35 205.312 279.25 205.192 279.05C205.072 278.89 205.052 278.71 205.132 278.51L206.812 274.25ZM243.914 268.19V268.37C244.554 270.33 245.754 271.89 247.514 273.05C249.274 274.17 251.134 274.87 253.094 275.15C253.734 275.27 254.434 275.33 255.194 275.33C256.354 275.33 257.494 275.19 258.614 274.91C259.774 274.63 260.874 274.21 261.914 273.65C262.194 273.49 262.434 273.55 262.634 273.83C262.834 274.11 262.834 274.37 262.634 274.61C260.914 276.65 258.814 278.09 256.334 278.93C253.894 279.73 251.374 280.13 248.774 280.13C246.374 280.13 244.114 279.79 241.994 279.11C239.914 278.39 238.074 277.37 236.474 276.05C234.914 274.69 233.674 273.03 232.754 271.07C231.874 269.11 231.434 266.87 231.434 264.35C231.434 261.83 231.874 259.61 232.754 257.69C233.674 255.73 234.914 254.09 236.474 252.77C238.034 251.41 239.854 250.39 241.934 249.71C244.014 249.03 246.254 248.69 248.654 248.69C253.134 248.69 256.574 249.75 258.974 251.87C261.414 253.99 262.774 257.29 263.054 261.77C263.054 262.09 262.914 262.29 262.634 262.37L260.534 263.03L253.874 265.13L243.734 268.31L243.914 268.19ZM252.434 260.69C252.474 259.77 252.374 258.79 252.134 257.75C251.934 257.07 251.654 256.39 251.294 255.71C250.974 255.03 250.554 254.45 250.034 253.97C249.554 253.45 248.974 253.07 248.294 252.83C247.654 252.55 246.934 252.51 246.134 252.71L245.774 252.89C244.974 253.21 244.354 253.77 243.914 254.57C243.474 255.33 243.154 256.09 242.954 256.85C242.634 257.97 242.454 259.13 242.414 260.33C242.414 261.53 242.514 262.71 242.714 263.87L252.434 260.69ZM291.239 251.99C291.279 252.19 291.239 252.35 291.119 252.47L286.799 258.59C286.679 258.75 286.519 258.83 286.319 258.83C286.119 258.83 285.959 258.77 285.839 258.65C285.359 258.17 284.779 257.63 284.099 257.03C283.459 256.39 282.759 255.79 281.999 255.23C281.279 254.63 280.539 254.13 279.779 253.73C279.019 253.33 278.279 253.13 277.559 253.13C276.839 253.13 276.319 253.27 275.999 253.55C275.679 253.79 275.519 254.11 275.519 254.51C275.519 254.91 275.659 255.33 275.939 255.77C276.219 256.17 276.599 256.53 277.079 256.85C277.599 257.17 278.139 257.47 278.699 257.75C279.299 258.03 279.879 258.29 280.439 258.53C281.119 258.85 281.799 259.17 282.479 259.49C283.159 259.77 283.839 260.07 284.519 260.39C285.479 260.87 286.399 261.41 287.279 262.01C288.199 262.57 289.019 263.23 289.739 263.99C290.459 264.75 291.019 265.59 291.419 266.51C291.859 267.43 292.079 268.49 292.079 269.69C292.079 271.69 291.639 273.37 290.759 274.73C289.879 276.05 288.739 277.11 287.339 277.91C285.939 278.71 284.359 279.27 282.599 279.59C280.879 279.95 279.179 280.13 277.499 280.13C275.259 280.13 273.059 279.81 270.899 279.17C268.779 278.49 266.759 277.57 264.839 276.41C264.679 276.25 264.579 276.11 264.539 275.99C264.459 275.83 264.499 275.67 264.659 275.51L269.399 268.85C269.519 268.69 269.679 268.61 269.879 268.61C270.079 268.61 270.239 268.67 270.359 268.79C271.439 269.87 272.559 270.97 273.719 272.09C274.919 273.17 276.199 274.07 277.559 274.79C278.199 275.15 278.959 275.39 279.839 275.51C280.159 275.55 280.539 275.57 280.979 275.57C281.419 275.57 281.819 275.53 282.179 275.45C282.579 275.33 282.919 275.15 283.199 274.91C283.479 274.63 283.619 274.25 283.619 273.77C283.619 273.49 283.519 273.21 283.319 272.93C283.119 272.65 282.879 272.39 282.599 272.15C282.319 271.91 282.019 271.71 281.699 271.55C281.419 271.35 281.179 271.19 280.979 271.07C280.499 270.79 279.999 270.53 279.479 270.29C278.999 270.05 278.499 269.81 277.979 269.57L274.559 267.95C274.039 267.67 273.519 267.41 272.999 267.17C272.519 266.89 272.039 266.59 271.559 266.27C270.839 265.83 270.139 265.33 269.459 264.77C268.779 264.21 268.179 263.59 267.659 262.91C267.019 262.03 266.619 261.13 266.459 260.21C266.259 259.13 266.279 258.05 266.519 256.97C266.799 255.85 267.219 254.83 267.779 253.91C268.459 252.79 269.299 251.85 270.299 251.09C271.619 250.09 273.099 249.43 274.739 249.11C276.419 248.79 278.059 248.63 279.659 248.63C281.739 248.63 283.639 248.85 285.359 249.29C287.079 249.69 288.859 250.39 290.699 251.39C290.859 251.47 290.979 251.59 291.059 251.75L291.239 251.99ZM296.4 245.03L294.36 241.67C294.24 241.51 294.22 241.33 294.3 241.13C294.34 240.97 294.46 240.85 294.66 240.77L296.76 240.11L306.96 237.35C307.12 237.31 307.3 237.35 307.5 237.47C307.66 237.59 307.74 237.75 307.74 237.95V249.29H315.48C315.92 249.29 316.14 249.51 316.14 249.95V257.45C316.14 257.69 316.04 257.87 315.84 257.99C315.68 258.11 315.5 258.13 315.3 258.05L307.8 254.81V269.39C307.8 270.67 308.02 271.63 308.46 272.27C308.94 272.91 309.54 273.31 310.26 273.47C310.98 273.59 311.76 273.49 312.6 273.17C313.48 272.81 314.32 272.29 315.12 271.61C315.32 271.41 315.54 271.37 315.78 271.49C316.02 271.61 316.14 271.79 316.14 272.03V276.47C316.14 276.67 316.06 276.83 315.9 276.95C314.3 278.23 312.68 279.09 311.04 279.53C309.4 279.97 307.5 280.19 305.34 280.19C302.46 280.19 300.26 279.47 298.74 278.03C297.22 276.55 296.46 274.37 296.46 271.49L296.4 245.03Z" fill="white"/>
<rect x="132.224" y="412.68" width="97.0735" height="106.378" fill="#EAB308"/>
<rect x="229.297" y="414.395" width="97.0735" height="106.378" fill="#FFBD00"/>
<rect x="229.297" y="309.086" width="97.0735" height="106.378" fill="#EAB308"/>
<rect x="325.508" y="309.086" width="97.0735" height="106.378" fill="#FFBD00"/>
<rect x="325.508" y="204.35" width="97.0735" height="106.378" fill="#EAB308"/>
<rect x="325.508" y="413.395" width="97.0735" height="106.378" fill="#EAB308"/>
<path d="M265.637 479.863H263.243L267.995 466.705H270.353L275.105 479.863H272.675L271.613 476.821H266.699L265.637 479.863ZM268.877 470.629L267.383 474.877H270.947L269.435 470.629C269.327 470.287 269.201 469.891 269.165 469.621C269.111 469.873 269.003 470.269 268.877 470.629ZM276.431 483.985V470.971H278.465L278.609 472.321C279.149 471.295 280.319 470.701 281.669 470.701C284.171 470.701 285.827 472.519 285.827 475.309C285.827 478.081 284.315 480.097 281.669 480.097C280.337 480.097 279.185 479.575 278.627 478.675V483.985H276.431ZM278.645 475.417C278.645 477.019 279.635 478.117 281.147 478.117C282.695 478.117 283.613 477.001 283.613 475.417C283.613 473.833 282.695 472.699 281.147 472.699C279.635 472.699 278.645 473.815 278.645 475.417ZM287.575 483.985V470.971H289.609L289.753 472.321C290.293 471.295 291.463 470.701 292.813 470.701C295.315 470.701 296.971 472.519 296.971 475.309C296.971 478.081 295.459 480.097 292.813 480.097C291.481 480.097 290.329 479.575 289.771 478.675V483.985H287.575ZM289.789 475.417C289.789 477.019 290.779 478.117 292.291 478.117C293.839 478.117 294.757 477.001 294.757 475.417C294.757 473.833 293.839 472.699 292.291 472.699C290.779 472.699 289.789 473.815 289.789 475.417ZM300.934 479.863H298.756V466.471H300.934V479.863ZM302.464 483.985V482.149H303.778C304.642 482.149 305.182 481.951 305.56 480.907L305.812 480.241L302.23 470.971H304.552L306.838 477.451L309.25 470.971H311.518L307.162 481.843C306.496 483.499 305.56 484.183 304.102 484.183C303.49 484.183 302.95 484.111 302.464 483.985ZM320.244 466.705V477.739H325.752V479.863H317.94V466.705H320.244ZM326.604 475.399C326.604 472.627 328.602 470.719 331.356 470.719C334.11 470.719 336.108 472.627 336.108 475.399C336.108 478.171 334.11 480.079 331.356 480.079C328.602 480.079 326.604 478.171 326.604 475.399ZM328.8 475.399C328.8 477.019 329.844 478.117 331.356 478.117C332.868 478.117 333.912 477.019 333.912 475.399C333.912 473.779 332.868 472.681 331.356 472.681C329.844 472.681 328.8 473.779 328.8 475.399ZM340.495 480.097C338.605 480.097 337.453 478.999 337.453 477.325C337.453 475.687 338.641 474.661 340.747 474.499L343.411 474.301V474.103C343.411 472.897 342.691 472.411 341.575 472.411C340.279 472.411 339.559 472.951 339.559 473.887H337.687C337.687 471.961 339.271 470.701 341.683 470.701C344.077 470.701 345.553 471.997 345.553 474.463V479.863H343.627L343.465 478.549C343.087 479.467 341.881 480.097 340.495 480.097ZM341.215 478.441C342.565 478.441 343.429 477.631 343.429 476.263V475.795L341.575 475.939C340.207 476.065 339.685 476.515 339.685 477.235C339.685 478.045 340.225 478.441 341.215 478.441ZM349.906 479.863H347.71V470.971H349.744L349.924 472.123C350.482 471.223 351.562 470.701 352.768 470.701C355 470.701 356.152 472.087 356.152 474.391V479.863H353.956V474.913C353.956 473.419 353.218 472.699 352.084 472.699C350.734 472.699 349.906 473.635 349.906 475.075V479.863Z" fill="white"/>
<circle cx="11.9014" cy="11.9014" r="11.4014" transform="matrix(-1 0 0 1 390.848 461.863)" stroke="white"/>
<path d="M377.985 479.119C378.094 479.119 378.203 479.079 378.289 478.993L382.027 475.255C382.635 474.648 382.635 473.65 382.027 473.042L378.289 469.304C378.123 469.138 377.848 469.138 377.682 469.304C377.515 469.471 377.515 469.746 377.682 469.912L381.419 473.65C381.695 473.925 381.695 474.372 381.419 474.648L377.682 478.385C377.515 478.552 377.515 478.827 377.682 478.993C377.768 479.073 377.876 479.119 377.985 479.119Z" fill="white"/>
</g>
</g>
<defs>
<filter id="filter0_d_11554_213740" x="0.853516" y="0.507033" width="462" height="562" filterUnits="userSpaceOnUse" color-interpolation-filters="sRGB">
<feFlood flood-opacity="0" result="BackgroundImageFix"/>
<feColorMatrix in="SourceAlpha" type="matrix" values="0 0 0 0 0 0 0 0 0 0 0 0 0 0 0 0 0 0 127 0" result="hardAlpha"/>
<feOffset dy="3.64375"/>
<feGaussianBlur stdDeviation="20"/>
<feComposite in2="hardAlpha" operator="out"/>
<feColorMatrix type="matrix" values="0 0 0 0 1 0 0 0 0 0.741176 0 0 0 0 0 0 0 0 1 0"/>
<feBlend mode="normal" in2="BackgroundImageFix" result="effect1_dropShadow_11554_213740"/>
<feBlend mode="normal" in="SourceGraphic" in2="effect1_dropShadow_11554_213740" result="shape"/>
</filter>
<clipPath id="clip0_11554_213740">
<rect x="40.8535" y="36.8633" width="382" height="482" rx="20" fill="white"/>
</clipPath>
</defs>
</svg>
