<svg width="31" height="31" viewBox="0 0 31 31" fill="none" xmlns="http://www.w3.org/2000/svg">
<circle cx="15.4952" cy="15.6825" r="14.6974" fill="#FFFBF0"/>
<path d="M16.6975 11.4733C16.6975 11.1544 16.5708 10.8485 16.3452 10.6229C16.1197 10.3974 15.8138 10.2707 15.4948 10.2707C15.1759 10.2707 14.87 10.3974 14.6444 10.6229C14.4189 10.8485 14.2922 11.1544 14.2922 11.4733M19.8604 14.2971L20.6932 19.709C20.7196 19.8803 20.7086 20.0552 20.661 20.2219C20.6134 20.3885 20.5304 20.5429 20.4176 20.6745C20.3049 20.8061 20.165 20.9117 20.0076 20.9842C19.8501 21.0567 19.6789 21.0943 19.5056 21.0944H11.484C11.3106 21.0944 11.1393 21.057 10.9817 20.9846C10.8242 20.9122 10.6841 20.8065 10.5712 20.6749C10.4583 20.5433 10.3752 20.3889 10.3275 20.2222C10.2799 20.0554 10.2689 19.8804 10.2952 19.709L11.1281 14.2971C11.1717 14.0131 11.3157 13.754 11.5339 13.5669C11.7521 13.3799 12.03 13.2771 12.3175 13.2773H18.6722C18.9595 13.2772 19.2373 13.3801 19.4554 13.5671C19.6734 13.7542 19.8167 14.0132 19.8604 14.2971Z" stroke="#FFBD00" stroke-width="0.901978" stroke-linecap="round" stroke-linejoin="round"/>
</svg>
