<svg width="325" height="150" viewBox="0 0 325 150" fill="none" xmlns="http://www.w3.org/2000/svg">
<g clip-path="url(#clip0_7192_66969)">
<circle cx="40.2944" cy="42.3901" r="40.6255" fill="#23A323"/>
<path d="M124.226 57.7226H120.446L142.766 22.8626H150.746V61.6826H142.766V33.4826L144.686 34.0226L126.866 61.6826H117.926L100.106 34.1426L102.026 33.6026V61.6826H94.0458V22.8626H102.026L124.226 57.7226ZM176.524 62.4026C172.764 62.4026 169.444 61.8026 166.564 60.6026C163.724 59.4026 161.504 57.6626 159.904 55.3826C158.304 53.0626 157.504 50.2226 157.504 46.8626C157.504 43.5026 158.304 40.6626 159.904 38.3426C161.504 35.9826 163.724 34.2026 166.564 33.0026C169.444 31.8026 172.764 31.2026 176.524 31.2026C180.284 31.2026 183.564 31.8026 186.364 33.0026C189.204 34.2026 191.424 35.9826 193.024 38.3426C194.624 40.6626 195.424 43.5026 195.424 46.8626C195.424 50.2226 194.624 53.0626 193.024 55.3826C191.424 57.6626 189.204 59.4026 186.364 60.6026C183.564 61.8026 180.284 62.4026 176.524 62.4026ZM176.524 56.4026C178.604 56.4026 180.464 56.0426 182.104 55.3226C183.784 54.5626 185.104 53.4826 186.064 52.0826C187.024 50.6426 187.504 48.9026 187.504 46.8626C187.504 44.8226 187.024 43.0826 186.064 41.6426C185.104 40.1626 183.804 39.0426 182.164 38.2826C180.524 37.5226 178.644 37.1426 176.524 37.1426C174.444 37.1426 172.564 37.5226 170.884 38.2826C169.204 39.0426 167.864 40.1426 166.864 41.5826C165.904 43.0226 165.424 44.7826 165.424 46.8626C165.424 48.9026 165.904 50.6426 166.864 52.0826C167.824 53.4826 169.144 54.5626 170.824 55.3226C172.504 56.0426 174.404 56.4026 176.524 56.4026ZM201.19 31.8626H208.99V61.6826H201.19V31.8626ZM222.85 31.2026C224.69 31.2026 226.39 31.4426 227.95 31.9226C229.51 32.4026 230.87 33.1426 232.03 34.1426C233.19 35.1426 234.09 36.4226 234.73 37.9826C235.37 39.5026 235.69 41.3226 235.69 43.4426V61.6826H227.89V44.8226C227.89 42.3026 227.27 40.4626 226.03 39.3026C224.83 38.1026 222.85 37.5026 220.09 37.5026C218.01 37.5026 216.13 37.9026 214.45 38.7026C212.77 39.5026 211.41 40.5226 210.37 41.7626C209.33 42.9626 208.73 44.2226 208.57 45.5426L208.51 42.4826C208.71 41.0826 209.17 39.7226 209.89 38.4026C210.61 37.0826 211.57 35.8826 212.77 34.8026C214.01 33.6826 215.47 32.8026 217.15 32.1626C218.83 31.5226 220.73 31.2026 222.85 31.2026ZM269.971 51.7826H277.531C277.211 53.8226 276.351 55.6426 274.951 57.2426C273.591 58.8426 271.731 60.1026 269.371 61.0226C267.011 61.9426 264.131 62.4026 260.731 62.4026C256.931 62.4026 253.571 61.8026 250.651 60.6026C247.731 59.3626 245.451 57.5826 243.811 55.2626C242.171 52.9426 241.351 50.1426 241.351 46.8626C241.351 43.5826 242.151 40.7826 243.751 38.4626C245.351 36.1026 247.571 34.3026 250.411 33.0626C253.291 31.8226 256.651 31.2026 260.491 31.2026C264.411 31.2026 267.671 31.8226 270.271 33.0626C272.871 34.3026 274.791 36.1826 276.031 38.7026C277.311 41.1826 277.851 44.3626 277.651 48.2426H249.211C249.411 49.7626 249.971 51.1426 250.891 52.3826C251.851 53.6226 253.131 54.6026 254.731 55.3226C256.371 56.0426 258.311 56.4026 260.551 56.4026C263.031 56.4026 265.091 55.9826 266.731 55.1426C268.411 54.2626 269.491 53.1426 269.971 51.7826ZM260.131 37.1426C257.251 37.1426 254.911 37.7826 253.111 39.0626C251.311 40.3026 250.151 41.8426 249.631 43.6826H269.911C269.711 41.6826 268.751 40.1026 267.031 38.9426C265.351 37.7426 263.051 37.1426 260.131 37.1426ZM279.584 31.8626H287.864L300.764 60.4826L294.044 61.6826L279.584 31.8626ZM316.064 31.8626L295.424 73.6826H287.324L296.144 57.2426L307.724 31.8626H316.064ZM49.6552 134.343C46.6952 134.343 43.9952 133.703 41.5552 132.423C39.1552 131.103 37.2352 129.283 35.7952 126.963C34.3952 124.603 33.6952 121.883 33.6952 118.803C33.6952 115.643 34.4152 112.903 35.8552 110.583C37.2952 108.263 39.2352 106.463 41.6752 105.183C44.1552 103.863 46.9552 103.203 50.0752 103.203C53.5152 103.203 56.2752 103.903 58.3552 105.303C60.4752 106.663 62.0152 108.523 62.9752 110.883C63.9352 113.243 64.4152 115.883 64.4152 118.803C64.4152 120.563 64.1352 122.363 63.5752 124.203C63.0152 126.003 62.1552 127.683 60.9952 129.243C59.8352 130.763 58.3152 132.003 56.4352 132.963C54.5552 133.883 52.2952 134.343 49.6552 134.343ZM52.1752 128.343C54.5352 128.343 56.5752 127.943 58.2952 127.143C60.0152 126.343 61.3352 125.223 62.2552 123.783C63.1752 122.343 63.6352 120.683 63.6352 118.803C63.6352 116.763 63.1552 115.043 62.1952 113.643C61.2752 112.203 59.9552 111.123 58.2352 110.403C56.5552 109.643 54.5352 109.263 52.1752 109.263C48.8552 109.263 46.2752 110.143 44.4352 111.903C42.5952 113.623 41.6752 115.923 41.6752 118.803C41.6752 120.723 42.1152 122.403 42.9952 123.843C43.8752 125.243 45.0952 126.343 46.6552 127.143C48.2552 127.943 50.0952 128.343 52.1752 128.343ZM63.6352 103.863H71.4352V133.683H64.1752C64.1752 133.683 64.1152 133.303 63.9952 132.543C63.9152 131.743 63.8352 130.743 63.7552 129.543C63.6752 128.343 63.6352 127.163 63.6352 126.003V103.863ZM93.3745 129.123C90.1345 129.123 87.2745 128.643 84.7945 127.683C82.3545 126.683 80.4545 125.223 79.0945 123.303C77.7345 121.383 77.0545 119.063 77.0545 116.343C77.0545 113.663 77.7145 111.343 79.0345 109.383C80.3545 107.423 82.2345 105.903 84.6745 104.823C87.1545 103.743 90.0545 103.203 93.3745 103.203C94.2945 103.203 95.1745 103.263 96.0145 103.383C96.8945 103.503 97.7545 103.663 98.5945 103.863L113.655 103.923V109.803C111.615 109.843 109.535 109.603 107.415 109.083C105.335 108.523 103.495 107.923 101.895 107.283L101.715 106.863C103.075 107.503 104.355 108.303 105.555 109.263C106.755 110.183 107.715 111.263 108.435 112.503C109.195 113.703 109.575 115.103 109.575 116.703C109.575 119.303 108.915 121.543 107.595 123.423C106.275 125.263 104.395 126.683 101.955 127.683C99.5545 128.643 96.6945 129.123 93.3745 129.123ZM103.395 145.983V144.543C103.395 142.703 102.795 141.423 101.595 140.703C100.435 139.983 98.8345 139.623 96.7945 139.623H87.4945C85.6945 139.623 84.1745 139.483 82.9345 139.203C81.7345 138.923 80.7745 138.523 80.0545 138.003C79.3345 137.483 78.8145 136.863 78.4945 136.143C78.1745 135.463 78.0145 134.723 78.0145 133.923C78.0145 132.323 78.5345 131.123 79.5745 130.323C80.6145 129.483 82.0145 128.923 83.7745 128.643C85.5345 128.363 87.4745 128.303 89.5945 128.463L93.3745 129.123C90.8545 129.203 88.9745 129.423 87.7345 129.783C86.5345 130.103 85.9345 130.763 85.9345 131.763C85.9345 132.363 86.1745 132.843 86.6545 133.203C87.1345 133.523 87.8145 133.683 88.6945 133.683H98.4745C101.155 133.683 103.435 133.963 105.315 134.523C107.235 135.123 108.695 136.103 109.695 137.463C110.695 138.863 111.195 140.763 111.195 143.163V145.983H103.395ZM93.3745 123.483C95.0945 123.483 96.5945 123.203 97.8745 122.643C99.1945 122.083 100.215 121.283 100.935 120.243C101.655 119.163 102.015 117.883 102.015 116.403C102.015 114.883 101.655 113.583 100.935 112.503C100.215 111.423 99.2145 110.603 97.9345 110.043C96.6545 109.443 95.1345 109.143 93.3745 109.143C91.6545 109.143 90.1345 109.443 88.8145 110.043C87.4945 110.603 86.4745 111.423 85.7545 112.503C85.0345 113.583 84.6745 114.883 84.6745 116.403C84.6745 117.883 85.0345 119.163 85.7545 120.243C86.4745 121.283 87.4745 122.083 88.7545 122.643C90.0745 123.203 91.6145 123.483 93.3745 123.483ZM132.741 134.343C129.781 134.343 127.081 133.703 124.641 132.423C122.241 131.103 120.321 129.283 118.881 126.963C117.481 124.603 116.781 121.883 116.781 118.803C116.781 115.643 117.501 112.903 118.941 110.583C120.381 108.263 122.321 106.463 124.761 105.183C127.241 103.863 130.041 103.203 133.161 103.203C136.601 103.203 139.361 103.903 141.441 105.303C143.561 106.663 145.101 108.523 146.061 110.883C147.021 113.243 147.501 115.883 147.501 118.803C147.501 120.563 147.221 122.363 146.661 124.203C146.101 126.003 145.241 127.683 144.081 129.243C142.921 130.763 141.401 132.003 139.521 132.963C137.641 133.883 135.381 134.343 132.741 134.343ZM135.261 128.343C137.621 128.343 139.661 127.943 141.381 127.143C143.101 126.343 144.421 125.223 145.341 123.783C146.261 122.343 146.721 120.683 146.721 118.803C146.721 116.763 146.241 115.043 145.281 113.643C144.361 112.203 143.041 111.123 141.321 110.403C139.641 109.643 137.621 109.263 135.261 109.263C131.941 109.263 129.361 110.143 127.521 111.903C125.681 113.623 124.761 115.923 124.761 118.803C124.761 120.723 125.201 122.403 126.081 123.843C126.961 125.243 128.181 126.343 129.741 127.143C131.341 127.943 133.181 128.343 135.261 128.343ZM146.721 103.863H154.521V133.683H147.261C147.261 133.683 147.201 133.303 147.081 132.543C147.001 131.743 146.921 130.743 146.841 129.543C146.761 128.343 146.721 127.163 146.721 126.003V103.863ZM170.52 90.7826V97.6226H161.46V90.7826H170.52ZM162.06 103.863H169.86V133.683H162.06V103.863ZM177.635 103.863H185.435V133.683H177.635V103.863ZM199.295 103.203C201.135 103.203 202.835 103.443 204.395 103.923C205.955 104.403 207.315 105.143 208.475 106.143C209.635 107.143 210.535 108.423 211.175 109.983C211.815 111.503 212.135 113.323 212.135 115.443V133.683H204.335V116.823C204.335 114.303 203.715 112.463 202.475 111.303C201.275 110.103 199.295 109.503 196.535 109.503C194.455 109.503 192.575 109.903 190.895 110.703C189.215 111.503 187.855 112.523 186.815 113.763C185.775 114.963 185.175 116.223 185.015 117.543L184.955 114.483C185.155 113.083 185.615 111.723 186.335 110.403C187.055 109.083 188.015 107.883 189.215 106.803C190.455 105.683 191.915 104.803 193.595 104.163C195.275 103.523 197.175 103.203 199.295 103.203ZM228.297 126.843V133.683H219.237V126.843H228.297Z" fill="#23A323"/>
<path d="M22.845 56.866C19.085 56.866 15.765 56.266 12.885 55.066C10.045 53.866 7.82504 52.126 6.22504 49.846C4.62504 47.526 3.82504 44.686 3.82504 41.326C3.82504 37.966 4.62504 35.126 6.22504 32.806C7.82504 30.446 10.045 28.666 12.885 27.466C15.765 26.266 19.085 25.666 22.845 25.666C26.605 25.666 29.885 26.266 32.685 27.466C35.525 28.666 37.745 30.446 39.345 32.806C40.945 35.126 41.745 37.966 41.745 41.326C41.745 44.686 40.945 47.526 39.345 49.846C37.745 52.126 35.525 53.866 32.685 55.066C29.885 56.266 26.605 56.866 22.845 56.866ZM22.845 50.866C24.925 50.866 26.785 50.506 28.425 49.786C30.105 49.026 31.425 47.946 32.385 46.546C33.345 45.106 33.825 43.366 33.825 41.326C33.825 39.286 33.345 37.546 32.385 36.106C31.425 34.626 30.125 33.506 28.485 32.746C26.845 31.986 24.965 31.606 22.845 31.606C20.765 31.606 18.885 31.986 17.205 32.746C15.525 33.506 14.185 34.606 13.185 36.046C12.225 37.486 11.745 39.246 11.745 41.326C11.745 43.366 12.225 45.106 13.185 46.546C14.145 47.946 15.465 49.026 17.145 49.786C18.825 50.506 20.725 50.866 22.845 50.866ZM45.001 26.866H69.001V32.806H45.001V26.866ZM63.241 14.326H69.421V20.626H65.101C63.941 20.586 62.941 20.706 62.101 20.986C61.261 21.266 60.621 21.786 60.181 22.546C59.741 23.266 59.521 24.306 59.521 25.666V56.146H51.721V24.706C51.721 22.306 52.161 20.346 53.041 18.826C53.921 17.266 55.221 16.126 56.941 15.406C58.661 14.686 60.761 14.326 63.241 14.326Z" fill="white"/>
</g>
<defs>
<clipPath id="clip0_7192_66969">
<rect width="325" height="150" fill="white"/>
</clipPath>
</defs>
</svg>
