<svg width="418" height="134" viewBox="0 0 418 134" fill="none" xmlns="http://www.w3.org/2000/svg">
<path d="M80.0005 92.4H73.7005L110.9 34.3H124.2V99H110.9V52L114.1 52.9L84.4005 99H69.5005L39.8005 53.1L43.0005 52.2V99H29.7005V34.3H43.0005L80.0005 92.4ZM167.164 100.2C160.897 100.2 155.364 99.2 150.564 97.2C145.83 95.2 142.13 92.3 139.464 88.5C136.797 84.6333 135.464 79.9 135.464 74.3C135.464 68.7 136.797 63.9667 139.464 60.1C142.13 56.1667 145.83 53.2 150.564 51.2C155.364 49.2 160.897 48.2 167.164 48.2C173.43 48.2 178.897 49.2 183.564 51.2C188.297 53.2 191.997 56.1667 194.664 60.1C197.33 63.9667 198.664 68.7 198.664 74.3C198.664 79.9 197.33 84.6333 194.664 88.5C191.997 92.3 188.297 95.2 183.564 97.2C178.897 99.2 173.43 100.2 167.164 100.2ZM167.164 90.2C170.63 90.2 173.73 89.6 176.464 88.4C179.264 87.1333 181.464 85.3333 183.064 83C184.664 80.6 185.464 77.7 185.464 74.3C185.464 70.9 184.664 68 183.064 65.6C181.464 63.1333 179.297 61.2667 176.564 60C173.83 58.7333 170.697 58.1 167.164 58.1C163.697 58.1 160.564 58.7333 157.764 60C154.964 61.2667 152.73 63.1 151.064 65.5C149.464 67.9 148.664 70.8333 148.664 74.3C148.664 77.7 149.464 80.6 151.064 83C152.664 85.3333 154.864 87.1333 157.664 88.4C160.464 89.6 163.63 90.2 167.164 90.2ZM208.274 49.3H221.274V99H208.274V49.3ZM244.374 48.2C247.441 48.2 250.274 48.6 252.874 49.4C255.474 50.2 257.741 51.4333 259.674 53.1C261.607 54.7667 263.107 56.9 264.174 59.5C265.241 62.0333 265.774 65.0667 265.774 68.6V99H252.774V70.9C252.774 66.7 251.741 63.6333 249.674 61.7C247.674 59.7 244.374 58.7 239.774 58.7C236.307 58.7 233.174 59.3667 230.374 60.7C227.574 62.0333 225.307 63.7333 223.574 65.8C221.841 67.8 220.841 69.9 220.574 72.1L220.474 67C220.807 64.6667 221.574 62.4 222.774 60.2C223.974 58 225.574 56 227.574 54.2C229.641 52.3333 232.074 50.8667 234.874 49.8C237.674 48.7333 240.841 48.2 244.374 48.2ZM322.91 82.5H335.51C334.977 85.9 333.543 88.9333 331.21 91.6C328.943 94.2667 325.843 96.3667 321.91 97.9C317.977 99.4333 313.177 100.2 307.51 100.2C301.177 100.2 295.577 99.2 290.71 97.2C285.843 95.1333 282.043 92.1667 279.31 88.3C276.577 84.4333 275.21 79.7667 275.21 74.3C275.21 68.8333 276.543 64.1667 279.21 60.3C281.877 56.3667 285.577 53.3667 290.31 51.3C295.11 49.2333 300.71 48.2 307.11 48.2C313.643 48.2 319.077 49.2333 323.41 51.3C327.743 53.3667 330.943 56.5 333.01 60.7C335.143 64.8333 336.043 70.1333 335.71 76.6H288.31C288.643 79.1333 289.577 81.4333 291.11 83.5C292.71 85.5667 294.843 87.2 297.51 88.4C300.243 89.6 303.477 90.2 307.21 90.2C311.343 90.2 314.777 89.5 317.51 88.1C320.31 86.6333 322.11 84.7667 322.91 82.5ZM306.51 58.1C301.71 58.1 297.81 59.1667 294.81 61.3C291.81 63.3667 289.877 65.9333 289.01 69H322.81C322.477 65.6667 320.877 63.0333 318.01 61.1C315.21 59.1 311.377 58.1 306.51 58.1ZM338.93 49.3H352.73L374.23 97L363.03 99L338.93 49.3ZM399.73 49.3L365.33 119H351.83L366.53 91.6L385.83 49.3H399.73Z" fill="#0A290A"/>
<path d="M362.278 15.5361C250.263 10.6499 55.4796 39.9968 5.49274 99.2479C-54.0402 169.814 560.285 20.8128 353.85 26.2944C147.414 31.776 106.661 42.2293 40.1373 88.4572C-30.7903 137.746 231.436 95.5652 361.281 38.3992" stroke="#FFA62B" stroke-width="2" stroke-linecap="round"/>
</svg>
