<svg width="1077" height="523" viewBox="0 0 1077 523" fill="none" xmlns="http://www.w3.org/2000/svg">
<g filter="url(#filter0_d_6591_65847)">
<rect x="41.3105" y="35.5625" width="282.905" height="182.55" rx="8.10192" fill="white"/>
<rect x="41.3105" y="35.5625" width="282.905" height="182.55" rx="8.10192" stroke="#23A323" stroke-width="1.62038"/>
</g>
<rect width="297.314" height="86.6906" transform="translate(135.695 80.6621)" fill="white"/>
<path d="M165.81 136.506H163.983L178.198 109.992H182.475V138.912H178.198V116.721L179.133 116.944L167.147 138.912H162.646L150.659 116.988L151.595 116.766V138.912H147.317V109.992H151.595L165.81 136.506ZM199.554 139.402C197.385 139.402 195.395 138.942 193.583 138.021C191.771 137.1 190.33 135.778 189.261 134.055C188.191 132.332 187.656 130.267 187.656 127.861C187.656 125.425 188.191 123.346 189.261 121.623C190.33 119.87 191.771 118.533 193.583 117.612C195.395 116.691 197.385 116.231 199.554 116.231C201.723 116.231 203.698 116.691 205.481 117.612C207.263 118.533 208.689 119.87 209.758 121.623C210.828 123.346 211.363 125.425 211.363 127.861C211.363 130.267 210.828 132.332 209.758 134.055C208.689 135.778 207.263 137.1 205.481 138.021C203.698 138.942 201.723 139.402 199.554 139.402ZM199.554 135.704C200.891 135.704 202.124 135.407 203.253 134.813C204.411 134.189 205.332 133.297 206.015 132.139C206.728 130.951 207.085 129.525 207.085 127.861C207.085 126.168 206.728 124.727 206.015 123.539C205.332 122.35 204.411 121.444 203.253 120.821C202.124 120.197 200.891 119.885 199.554 119.885C198.217 119.885 196.969 120.197 195.811 120.821C194.652 121.415 193.717 122.306 193.004 123.494C192.291 124.682 191.934 126.138 191.934 127.861C191.934 129.525 192.276 130.951 192.959 132.139C193.672 133.297 194.608 134.189 195.766 134.813C196.925 135.407 198.187 135.704 199.554 135.704ZM215.838 116.676H220.116V138.912H215.838V116.676ZM227.647 120.464C226.102 120.464 224.78 120.821 223.681 121.533C222.612 122.246 221.75 123.123 221.097 124.163C220.473 125.202 220.057 126.197 219.849 127.148L219.804 124.608C219.834 124.311 219.908 123.851 220.027 123.227C220.176 122.573 220.428 121.845 220.785 121.043C221.141 120.241 221.616 119.484 222.211 118.771C222.805 118.028 223.547 117.419 224.439 116.944C225.33 116.468 226.399 116.231 227.647 116.231V120.464ZM248.66 131.693H252.715C252.477 133.149 251.913 134.456 251.022 135.615C250.131 136.773 248.957 137.694 247.502 138.377C246.046 139.061 244.338 139.402 242.377 139.402C240.06 139.402 237.995 138.912 236.183 137.932C234.371 136.951 232.945 135.6 231.905 133.877C230.866 132.154 230.346 130.149 230.346 127.861C230.346 125.544 230.851 123.524 231.861 121.801C232.871 120.048 234.267 118.682 236.049 117.701C237.832 116.721 239.867 116.231 242.154 116.231C244.561 116.231 246.581 116.706 248.215 117.657C249.848 118.607 251.052 120.018 251.824 121.89C252.626 123.732 252.953 126.034 252.804 128.797H234.579C234.728 130.134 235.129 131.322 235.782 132.362C236.465 133.401 237.357 134.218 238.456 134.813C239.585 135.407 240.877 135.704 242.333 135.704C243.966 135.704 245.333 135.332 246.432 134.59C247.531 133.847 248.274 132.882 248.66 131.693ZM242.199 119.885C240.268 119.885 238.664 120.405 237.386 121.444C236.109 122.454 235.262 123.806 234.846 125.499H248.526C248.408 123.687 247.754 122.306 246.566 121.355C245.377 120.375 243.922 119.885 242.199 119.885ZM267.101 116.676H271.378V138.912H267.101V116.676ZM279.845 116.231C281.093 116.231 282.221 116.409 283.231 116.766C284.242 117.122 285.103 117.657 285.816 118.37C286.529 119.053 287.079 119.914 287.465 120.954C287.881 121.964 288.089 123.123 288.089 124.43V138.912H283.855V125.366C283.855 123.613 283.425 122.306 282.563 121.444C281.731 120.553 280.454 120.108 278.731 120.108C277.394 120.108 276.176 120.419 275.077 121.043C273.978 121.667 273.072 122.499 272.359 123.539C271.675 124.549 271.26 125.692 271.111 126.97L271.066 124.519C271.215 123.331 271.527 122.232 272.002 121.222C272.507 120.212 273.131 119.335 273.874 118.592C274.646 117.82 275.537 117.241 276.547 116.855C277.557 116.439 278.657 116.231 279.845 116.231ZM296.154 116.231C297.402 116.231 298.531 116.409 299.541 116.766C300.551 117.122 301.412 117.657 302.125 118.37C302.838 119.053 303.388 119.914 303.774 120.954C304.19 121.964 304.398 123.123 304.398 124.43V138.912H300.164V125.366C300.164 123.613 299.734 122.306 298.872 121.444C298.04 120.553 296.763 120.108 295.04 120.108C293.703 120.108 292.485 120.419 291.386 121.043C290.287 121.667 289.381 122.499 288.668 123.539C287.985 124.549 287.569 125.692 287.42 126.97L287.376 124.474C287.524 123.286 287.836 122.202 288.311 121.222C288.816 120.212 289.455 119.335 290.227 118.592C291 117.82 291.891 117.241 292.901 116.855C293.911 116.439 294.995 116.231 296.154 116.231ZM320.747 139.402C318.578 139.402 316.588 138.942 314.775 138.021C312.963 137.1 311.523 135.778 310.453 134.055C309.384 132.332 308.849 130.267 308.849 127.861C308.849 125.425 309.384 123.346 310.453 121.623C311.523 119.87 312.963 118.533 314.775 117.612C316.588 116.691 318.578 116.231 320.747 116.231C322.915 116.231 324.891 116.691 326.673 117.612C328.456 118.533 329.882 119.87 330.951 121.623C332.02 123.346 332.555 125.425 332.555 127.861C332.555 130.267 332.02 132.332 330.951 134.055C329.882 135.778 328.456 137.1 326.673 138.021C324.891 138.942 322.915 139.402 320.747 139.402ZM320.747 135.704C322.083 135.704 323.316 135.407 324.445 134.813C325.604 134.189 326.525 133.297 327.208 132.139C327.921 130.951 328.277 129.525 328.277 127.861C328.277 126.168 327.921 124.727 327.208 123.539C326.525 122.35 325.604 121.444 324.445 120.821C323.316 120.197 322.083 119.885 320.747 119.885C319.41 119.885 318.162 120.197 317.004 120.821C315.845 121.415 314.909 122.306 314.196 123.494C313.483 124.682 313.127 126.138 313.127 127.861C313.127 129.525 313.468 130.951 314.152 132.139C314.865 133.297 315.8 134.189 316.959 134.813C318.118 135.407 319.38 135.704 320.747 135.704ZM337.031 116.676H341.309V138.912H337.031V116.676ZM349.775 116.231C351.023 116.231 352.152 116.409 353.162 116.766C354.172 117.122 355.034 117.657 355.747 118.37C356.459 119.053 357.009 119.914 357.395 120.954C357.811 121.964 358.019 123.123 358.019 124.43V138.912H353.786V125.366C353.786 123.613 353.355 122.306 352.494 121.444C351.662 120.553 350.384 120.108 348.661 120.108C347.325 120.108 346.107 120.419 345.007 121.043C343.908 121.667 343.002 122.499 342.289 123.539C341.606 124.549 341.19 125.692 341.042 126.97L340.997 124.519C341.145 123.331 341.457 122.232 341.933 121.222C342.438 120.212 343.062 119.335 343.804 118.592C344.577 117.82 345.468 117.241 346.478 116.855C347.488 116.439 348.587 116.231 349.775 116.231ZM380.775 131.693H384.83C384.593 133.149 384.028 134.456 383.137 135.615C382.246 136.773 381.072 137.694 379.617 138.377C378.161 139.061 376.453 139.402 374.492 139.402C372.175 139.402 370.11 138.912 368.298 137.932C366.486 136.951 365.06 135.6 364.02 133.877C362.981 132.154 362.461 130.149 362.461 127.861C362.461 125.544 362.966 123.524 363.976 121.801C364.986 120.048 366.382 118.682 368.165 117.701C369.947 116.721 371.982 116.231 374.269 116.231C376.676 116.231 378.696 116.706 380.33 117.657C381.964 118.607 383.167 120.018 383.939 121.89C384.741 123.732 385.068 126.034 384.919 128.797H366.694C366.843 130.134 367.244 131.322 367.897 132.362C368.581 133.401 369.472 134.218 370.571 134.813C371.7 135.407 372.992 135.704 374.448 135.704C376.082 135.704 377.448 135.332 378.547 134.59C379.646 133.847 380.389 132.882 380.775 131.693ZM374.314 119.885C372.383 119.885 370.779 120.405 369.501 121.444C368.224 122.454 367.377 123.806 366.961 125.499H380.642C380.523 123.687 379.869 122.306 378.681 121.355C377.493 120.375 376.037 119.885 374.314 119.885ZM386.68 116.676H391.225L399.736 138.021L396.037 138.912L386.68 116.676ZM409.361 116.676L396.037 147.824H391.537L397.285 135.748L404.86 116.676H409.361Z" fill="#23A323"/>
<g filter="url(#filter1_d_6591_65847)">
<rect x="632.51" y="35.2285" width="282.905" height="182.55" rx="8.10192" fill="white"/>
<rect x="632.51" y="35.2285" width="282.905" height="182.55" rx="8.10192" stroke="#FF823B" stroke-width="1.62038"/>
</g>
<rect width="383.204" height="69.2038" transform="translate(688.407 89.4766)" fill="white"/>
<path d="M722.889 109.658V113.491H704.307V122.492H719.502V126.235H704.307V138.578H700.029V109.658H722.889ZM727.351 107.43H731.629V138.578H727.351V107.43ZM754.897 131.359H758.952C758.714 132.815 758.15 134.122 757.258 135.281C756.367 136.439 755.194 137.36 753.738 138.043C752.283 138.727 750.574 139.068 748.614 139.068C746.297 139.068 744.232 138.578 742.42 137.598C740.608 136.617 739.182 135.266 738.142 133.543C737.102 131.82 736.582 129.815 736.582 127.527C736.582 125.21 737.087 123.19 738.097 121.467C739.107 119.714 740.504 118.348 742.286 117.367C744.069 116.387 746.103 115.897 748.391 115.897C750.797 115.897 752.817 116.372 754.451 117.323C756.085 118.273 757.288 119.684 758.061 121.556C758.863 123.398 759.189 125.7 759.041 128.463H740.816C740.964 129.8 741.365 130.988 742.019 132.028C742.702 133.067 743.593 133.884 744.692 134.479C745.821 135.073 747.113 135.37 748.569 135.37C750.203 135.37 751.57 134.998 752.669 134.256C753.768 133.513 754.511 132.548 754.897 131.359ZM748.435 119.551C746.504 119.551 744.9 120.071 743.623 121.11C742.345 122.12 741.499 123.472 741.083 125.165H754.763C754.644 123.353 753.991 121.972 752.802 121.021C751.614 120.041 750.158 119.551 748.435 119.551ZM783.171 116.342L773.635 128.507L766.194 138.578H760.98L771.096 125.745L778.002 116.342H783.171ZM760.98 116.342H766.283L773.635 125.789L783.662 138.578H778.493L770.828 128.552L760.98 116.342ZM792.604 107.163V111.753H787.302V107.163H792.604ZM787.836 116.342H792.07V138.578H787.836V116.342ZM811.555 139.024C809.802 139.024 808.347 138.667 807.188 137.954C806.059 137.212 805.153 136.246 804.47 135.058C803.816 133.87 803.341 132.607 803.044 131.27C802.747 129.933 802.598 128.671 802.598 127.483C802.598 125.878 802.732 124.378 803 122.982C803.297 121.586 803.772 120.353 804.425 119.283C805.079 118.214 805.985 117.382 807.144 116.788C808.302 116.194 809.773 115.897 811.555 115.897C813.546 115.897 815.313 116.402 816.858 117.412C818.432 118.392 819.665 119.759 820.556 121.511C821.448 123.234 821.893 125.225 821.893 127.483C821.893 129.74 821.433 131.746 820.512 133.498C819.591 135.221 818.343 136.573 816.769 137.553C815.224 138.534 813.486 139.024 811.555 139.024ZM810.352 135.325C811.778 135.325 813.026 134.998 814.095 134.345C815.194 133.662 816.041 132.741 816.635 131.582C817.259 130.394 817.571 129.027 817.571 127.483C817.571 125.195 816.932 123.309 815.655 121.823C814.407 120.338 812.639 119.595 810.352 119.595C808.807 119.595 807.485 119.922 806.386 120.576C805.317 121.229 804.5 122.15 803.935 123.338C803.371 124.527 803.089 125.908 803.089 127.483C803.089 128.938 803.356 130.26 803.891 131.448C804.455 132.637 805.272 133.587 806.342 134.3C807.441 134.984 808.778 135.325 810.352 135.325ZM803.089 107.43V133.721C803.089 134.404 803.044 135.221 802.955 136.172C802.896 137.122 802.836 137.925 802.777 138.578H798.855V107.43H803.089ZM826.742 107.43H831.02V138.578H826.742V107.43ZM854.288 131.359H858.343C858.105 132.815 857.541 134.122 856.649 135.281C855.758 136.439 854.585 137.36 853.129 138.043C851.673 138.727 849.965 139.068 848.005 139.068C845.688 139.068 843.623 138.578 841.811 137.598C839.999 136.617 838.573 135.266 837.533 133.543C836.493 131.82 835.973 129.815 835.973 127.527C835.973 125.21 836.478 123.19 837.488 121.467C838.498 119.714 839.895 118.348 841.677 117.367C843.459 116.387 845.494 115.897 847.782 115.897C850.188 115.897 852.208 116.372 853.842 117.323C855.476 118.273 856.679 119.684 857.452 121.556C858.254 123.398 858.58 125.7 858.432 128.463H840.207C840.355 129.8 840.756 130.988 841.41 132.028C842.093 133.067 842.984 133.884 844.083 134.479C845.212 135.073 846.504 135.37 847.96 135.37C849.594 135.37 850.961 134.998 852.06 134.256C853.159 133.513 853.902 132.548 854.288 131.359ZM847.826 119.551C845.895 119.551 844.291 120.071 843.014 121.11C841.736 122.12 840.89 123.472 840.474 125.165H854.154C854.035 123.353 853.382 121.972 852.193 121.021C851.005 120.041 849.549 119.551 847.826 119.551ZM876.917 128.597V124.853H887.299C889.022 124.853 890.404 124.334 891.444 123.294C892.513 122.254 893.048 120.888 893.048 119.194C893.048 117.442 892.513 116.06 891.444 115.05C890.404 114.04 889.022 113.535 887.299 113.535H877.63V138.578H873.352V109.658H887.121C888.547 109.658 889.869 109.866 891.087 110.282C892.335 110.668 893.419 111.262 894.34 112.065C895.291 112.867 896.018 113.862 896.523 115.05C897.058 116.238 897.326 117.62 897.326 119.194C897.326 120.739 897.058 122.106 896.523 123.294C896.018 124.482 895.291 125.477 894.34 126.279C893.419 127.052 892.335 127.631 891.087 128.017C889.869 128.403 888.547 128.597 887.121 128.597H876.917ZM910.541 139.024C908.64 139.024 906.902 138.534 905.328 137.553C903.753 136.573 902.506 135.221 901.585 133.498C900.664 131.746 900.203 129.74 900.203 127.483C900.203 125.225 900.664 123.234 901.585 121.511C902.535 119.759 903.827 118.392 905.461 117.412C907.095 116.402 908.922 115.897 910.942 115.897C913.17 115.897 914.893 116.417 916.111 117.456C917.359 118.496 918.221 119.892 918.696 121.645C919.201 123.398 919.453 125.344 919.453 127.483C919.453 128.671 919.305 129.933 919.008 131.27C918.711 132.607 918.235 133.87 917.582 135.058C916.928 136.246 916.022 137.212 914.864 137.954C913.705 138.667 912.264 139.024 910.541 139.024ZM911.744 135.325C913.319 135.325 914.641 134.984 915.71 134.3C916.809 133.587 917.626 132.637 918.161 131.448C918.696 130.26 918.963 128.938 918.963 127.483C918.963 125.908 918.681 124.527 918.117 123.338C917.582 122.15 916.765 121.229 915.666 120.576C914.596 119.922 913.289 119.595 911.744 119.595C909.427 119.595 907.63 120.338 906.353 121.823C905.105 123.309 904.481 125.195 904.481 127.483C904.481 129.027 904.793 130.394 905.417 131.582C906.041 132.741 906.887 133.662 907.957 134.345C909.056 134.998 910.318 135.325 911.744 135.325ZM918.963 116.342H923.241V138.578H919.32C919.32 138.578 919.29 138.311 919.231 137.776C919.171 137.212 919.112 136.543 919.052 135.771C918.993 134.998 918.963 134.315 918.963 133.721V116.342ZM926.815 116.342H931.36L939.872 137.687L936.173 138.578L926.815 116.342ZM949.497 116.342L936.173 147.49H931.672L937.421 135.414L944.996 116.342H949.497ZM953.146 116.342H957.424V138.578H953.146V116.342ZM965.89 115.897C967.138 115.897 968.267 116.075 969.277 116.432C970.287 116.788 971.149 117.323 971.862 118.036C972.574 118.719 973.124 119.58 973.51 120.62C973.926 121.63 974.134 122.789 974.134 124.096V138.578H969.901V125.032C969.901 123.279 969.47 121.972 968.609 121.11C967.777 120.219 966.499 119.774 964.776 119.774C963.44 119.774 962.222 120.085 961.122 120.709C960.023 121.333 959.117 122.165 958.404 123.205C957.721 124.215 957.305 125.358 957.157 126.636L957.112 124.185C957.26 122.997 957.572 121.898 958.048 120.888C958.553 119.878 959.177 119.001 959.919 118.258C960.692 117.486 961.583 116.907 962.593 116.521C963.603 116.105 964.702 115.897 965.89 115.897ZM982.2 115.897C983.447 115.897 984.576 116.075 985.586 116.432C986.596 116.788 987.458 117.323 988.171 118.036C988.884 118.719 989.433 119.58 989.819 120.62C990.235 121.63 990.443 122.789 990.443 124.096V138.578H986.21V125.032C986.21 123.279 985.779 121.972 984.918 121.11C984.086 120.219 982.809 119.774 981.086 119.774C979.749 119.774 978.531 120.085 977.432 120.709C976.332 121.333 975.426 122.165 974.713 123.205C974.03 124.215 973.614 125.358 973.466 126.636L973.421 124.14C973.57 122.952 973.882 121.868 974.357 120.888C974.862 119.878 975.501 119.001 976.273 118.258C977.045 117.486 977.937 116.907 978.947 116.521C979.957 116.105 981.041 115.897 982.2 115.897ZM1013.21 131.359H1017.26C1017.03 132.815 1016.46 134.122 1015.57 135.281C1014.68 136.439 1013.51 137.36 1012.05 138.043C1010.59 138.727 1008.89 139.068 1006.93 139.068C1004.61 139.068 1002.54 138.578 1000.73 137.598C998.92 136.617 997.494 135.266 996.454 133.543C995.414 131.82 994.894 129.815 994.894 127.527C994.894 125.21 995.399 123.19 996.409 121.467C997.42 119.714 998.816 118.348 1000.6 117.367C1002.38 116.387 1004.42 115.897 1006.7 115.897C1009.11 115.897 1011.13 116.372 1012.76 117.323C1014.4 118.273 1015.6 119.684 1016.37 121.556C1017.17 123.398 1017.5 125.7 1017.35 128.463H999.128C999.276 129.8 999.677 130.988 1000.33 132.028C1001.01 133.067 1001.91 133.884 1003 134.479C1004.13 135.073 1005.43 135.37 1006.88 135.37C1008.52 135.37 1009.88 134.998 1010.98 134.256C1012.08 133.513 1012.82 132.548 1013.21 131.359ZM1006.75 119.551C1004.82 119.551 1003.21 120.071 1001.94 121.11C1000.66 122.12 999.811 123.472 999.395 125.165H1013.08C1012.96 123.353 1012.3 121.972 1011.11 121.021C1009.93 120.041 1008.47 119.551 1006.75 119.551ZM1021.86 116.342H1026.14V138.578H1021.86V116.342ZM1034.6 115.897C1035.85 115.897 1036.98 116.075 1037.99 116.432C1039 116.788 1039.86 117.323 1040.57 118.036C1041.29 118.719 1041.84 119.58 1042.22 120.62C1042.64 121.63 1042.85 122.789 1042.85 124.096V138.578H1038.61V125.032C1038.61 123.279 1038.18 121.972 1037.32 121.11C1036.49 120.219 1035.21 119.774 1033.49 119.774C1032.15 119.774 1030.93 120.085 1029.83 120.709C1028.74 121.333 1027.83 122.165 1027.12 123.205C1026.43 124.215 1026.02 125.358 1025.87 126.636L1025.82 124.185C1025.97 122.997 1026.28 121.898 1026.76 120.888C1027.26 119.878 1027.89 119.001 1028.63 118.258C1029.4 117.486 1030.29 116.907 1031.3 116.521C1032.32 116.105 1033.41 115.897 1034.6 115.897ZM1046.89 116.342H1061.28V120.041H1046.89V116.342ZM1051.97 110.46H1056.2V138.578H1051.97V110.46Z" fill="#FF823B"/>
<g filter="url(#filter2_d_6591_65847)">
<rect x="383.618" y="293.488" width="282.905" height="182.55" rx="8.10192" fill="white"/>
<rect x="383.618" y="293.488" width="282.905" height="182.55" rx="8.10192" stroke="#FFBD00" stroke-width="1.62038"/>
</g>
<rect width="262.204" height="69.2038" transform="translate(479.877 347.736)" fill="white"/>
<path d="M495.777 367.918V393.006H512.799V396.838H491.499V367.918H495.777ZM534.095 389.619H538.15C537.912 391.075 537.348 392.382 536.457 393.54C535.565 394.699 534.392 395.62 532.936 396.303C531.481 396.986 529.773 397.328 527.812 397.328C525.495 397.328 523.43 396.838 521.618 395.858C519.806 394.877 518.38 393.526 517.34 391.803C516.3 390.08 515.78 388.074 515.78 385.787C515.78 383.47 516.286 381.45 517.296 379.727C518.306 377.974 519.702 376.607 521.484 375.627C523.267 374.647 525.302 374.157 527.589 374.157C529.995 374.157 532.015 374.632 533.649 375.582C535.283 376.533 536.486 377.944 537.259 379.816C538.061 381.658 538.388 383.96 538.239 386.723H520.014C520.162 388.059 520.563 389.248 521.217 390.287C521.9 391.327 522.791 392.144 523.891 392.738C525.019 393.332 526.312 393.63 527.767 393.63C529.401 393.63 530.768 393.258 531.867 392.516C532.966 391.773 533.709 390.807 534.095 389.619ZM527.634 377.811C525.703 377.811 524.098 378.33 522.821 379.37C521.544 380.38 520.697 381.732 520.281 383.425H533.961C533.842 381.613 533.189 380.232 532.001 379.281C530.812 378.301 529.357 377.811 527.634 377.811ZM541.764 389.619H545.685C545.834 390.807 546.368 391.788 547.289 392.56C548.21 393.303 549.503 393.674 551.166 393.674C552.236 393.674 553.067 393.555 553.662 393.318C554.256 393.05 554.672 392.694 554.909 392.248C555.177 391.803 555.31 391.312 555.31 390.778C555.31 390.094 555.132 389.575 554.776 389.218C554.419 388.832 553.914 388.52 553.26 388.282C552.607 388.015 551.835 387.762 550.943 387.525C549.963 387.257 548.983 386.945 548.002 386.589C547.022 386.232 546.116 385.802 545.284 385.297C544.482 384.792 543.828 384.168 543.323 383.425C542.848 382.653 542.61 381.717 542.61 380.618C542.61 379.697 542.804 378.835 543.19 378.033C543.606 377.231 544.185 376.548 544.928 375.984C545.7 375.389 546.591 374.944 547.601 374.647C548.611 374.32 549.725 374.157 550.943 374.157C552.637 374.157 554.063 374.468 555.221 375.092C556.38 375.686 557.256 376.533 557.85 377.632C558.474 378.731 558.801 379.994 558.831 381.42H555.087C554.879 380.172 554.449 379.266 553.795 378.702C553.142 378.108 552.161 377.811 550.854 377.811C549.577 377.811 548.596 378.063 547.913 378.568C547.23 379.073 546.888 379.756 546.888 380.618C546.888 381.271 547.126 381.806 547.601 382.222C548.077 382.608 548.715 382.95 549.517 383.247C550.319 383.544 551.226 383.856 552.236 384.183C553.186 384.509 554.092 384.851 554.954 385.208C555.845 385.534 556.632 385.935 557.315 386.411C558.028 386.856 558.578 387.45 558.964 388.193C559.38 388.906 559.588 389.797 559.588 390.867C559.588 392.174 559.261 393.318 558.608 394.298C557.954 395.249 557.004 395.991 555.756 396.526C554.538 397.061 553.053 397.328 551.3 397.328C549.696 397.328 548.329 397.135 547.2 396.749C546.101 396.363 545.165 395.858 544.393 395.234C543.65 394.61 543.071 393.956 542.655 393.273C542.269 392.56 542.001 391.877 541.853 391.223C541.734 390.57 541.704 390.035 541.764 389.619ZM563.087 389.619H567.008C567.157 390.807 567.691 391.788 568.612 392.56C569.533 393.303 570.825 393.674 572.489 393.674C573.559 393.674 574.39 393.555 574.984 393.318C575.579 393.05 575.994 392.694 576.232 392.248C576.5 391.803 576.633 391.312 576.633 390.778C576.633 390.094 576.455 389.575 576.098 389.218C575.742 388.832 575.237 388.52 574.583 388.282C573.93 388.015 573.157 387.762 572.266 387.525C571.286 387.257 570.306 386.945 569.325 386.589C568.345 386.232 567.439 385.802 566.607 385.297C565.805 384.792 565.151 384.168 564.646 383.425C564.171 382.653 563.933 381.717 563.933 380.618C563.933 379.697 564.127 378.835 564.513 378.033C564.929 377.231 565.508 376.548 566.251 375.984C567.023 375.389 567.914 374.944 568.924 374.647C569.934 374.32 571.048 374.157 572.266 374.157C573.96 374.157 575.385 374.468 576.544 375.092C577.703 375.686 578.579 376.533 579.173 377.632C579.797 378.731 580.124 379.994 580.153 381.42H576.41C576.202 380.172 575.772 379.266 575.118 378.702C574.465 378.108 573.484 377.811 572.177 377.811C570.9 377.811 569.919 378.063 569.236 378.568C568.553 379.073 568.211 379.756 568.211 380.618C568.211 381.271 568.449 381.806 568.924 382.222C569.4 382.608 570.038 382.95 570.84 383.247C571.642 383.544 572.548 383.856 573.559 384.183C574.509 384.509 575.415 384.851 576.277 385.208C577.168 385.534 577.955 385.935 578.638 386.411C579.351 386.856 579.901 387.45 580.287 388.193C580.703 388.906 580.911 389.797 580.911 390.867C580.911 392.174 580.584 393.318 579.931 394.298C579.277 395.249 578.326 395.991 577.079 396.526C575.861 397.061 574.375 397.328 572.623 397.328C571.019 397.328 569.652 397.135 568.523 396.749C567.424 396.363 566.488 395.858 565.716 395.234C564.973 394.61 564.394 393.956 563.978 393.273C563.592 392.56 563.324 391.877 563.176 391.223C563.057 390.57 563.027 390.035 563.087 389.619ZM599.771 380.44H619.511V384.316H599.771V380.44ZM619.021 367.918H623.343V396.838H619.021V367.918ZM595.894 367.918H600.172V396.838H595.894V367.918ZM638.869 397.283C636.968 397.283 635.23 396.793 633.655 395.813C632.081 394.833 630.833 393.481 629.912 391.758C628.991 390.005 628.531 388 628.531 385.742C628.531 383.485 628.991 381.494 629.912 379.771C630.863 378.018 632.155 376.652 633.789 375.672C635.423 374.662 637.25 374.157 639.27 374.157C641.498 374.157 643.221 374.676 644.439 375.716C645.687 376.756 646.548 378.152 647.024 379.905C647.529 381.658 647.781 383.603 647.781 385.742C647.781 386.931 647.633 388.193 647.336 389.53C647.038 390.867 646.563 392.129 645.91 393.318C645.256 394.506 644.35 395.471 643.191 396.214C642.033 396.927 640.592 397.283 638.869 397.283ZM640.072 393.585C641.647 393.585 642.969 393.243 644.038 392.56C645.137 391.847 645.954 390.896 646.489 389.708C647.024 388.52 647.291 387.198 647.291 385.742C647.291 384.168 647.009 382.786 646.444 381.598C645.91 380.41 645.093 379.489 643.993 378.835C642.924 378.182 641.617 377.855 640.072 377.855C637.755 377.855 635.958 378.598 634.68 380.083C633.433 381.568 632.809 383.455 632.809 385.742C632.809 387.287 633.121 388.654 633.745 389.842C634.368 391 635.215 391.921 636.284 392.605C637.384 393.258 638.646 393.585 640.072 393.585ZM647.291 374.602H651.569V396.838H647.647C647.647 396.838 647.618 396.571 647.558 396.036C647.499 395.471 647.439 394.803 647.38 394.031C647.321 393.258 647.291 392.575 647.291 391.981V374.602ZM656.168 389.619H660.089C660.238 390.807 660.772 391.788 661.693 392.56C662.614 393.303 663.907 393.674 665.57 393.674C666.64 393.674 667.471 393.555 668.066 393.318C668.66 393.05 669.076 392.694 669.313 392.248C669.581 391.803 669.714 391.312 669.714 390.778C669.714 390.094 669.536 389.575 669.18 389.218C668.823 388.832 668.318 388.52 667.665 388.282C667.011 388.015 666.239 387.762 665.347 387.525C664.367 387.257 663.387 386.945 662.406 386.589C661.426 386.232 660.52 385.802 659.688 385.297C658.886 384.792 658.233 384.168 657.728 383.425C657.252 382.653 657.015 381.717 657.015 380.618C657.015 379.697 657.208 378.835 657.594 378.033C658.01 377.231 658.589 376.548 659.332 375.984C660.104 375.389 660.995 374.944 662.005 374.647C663.015 374.32 664.129 374.157 665.347 374.157C667.041 374.157 668.467 374.468 669.625 375.092C670.784 375.686 671.66 376.533 672.254 377.632C672.878 378.731 673.205 379.994 673.235 381.42H669.492C669.284 380.172 668.853 379.266 668.199 378.702C667.546 378.108 666.565 377.811 665.258 377.811C663.981 377.811 663.001 378.063 662.317 378.568C661.634 379.073 661.292 379.756 661.292 380.618C661.292 381.271 661.53 381.806 662.005 382.222C662.481 382.608 663.119 382.95 663.921 383.247C664.724 383.544 665.63 383.856 666.64 384.183C667.59 384.509 668.496 384.851 669.358 385.208C670.249 385.534 671.036 385.935 671.72 386.411C672.433 386.856 672.982 387.45 673.368 388.193C673.784 388.906 673.992 389.797 673.992 390.867C673.992 392.174 673.665 393.318 673.012 394.298C672.358 395.249 671.408 395.991 670.16 396.526C668.942 397.061 667.457 397.328 665.704 397.328C664.1 397.328 662.733 397.135 661.604 396.749C660.505 396.363 659.569 395.858 658.797 395.234C658.054 394.61 657.475 393.956 657.059 393.273C656.673 392.56 656.406 391.877 656.257 391.223C656.138 390.57 656.108 390.035 656.168 389.619ZM677.491 389.619H681.412C681.561 390.807 682.095 391.788 683.016 392.56C683.937 393.303 685.23 393.674 686.893 393.674C687.963 393.674 688.794 393.555 689.389 393.318C689.983 393.05 690.399 392.694 690.636 392.248C690.904 391.803 691.037 391.312 691.037 390.778C691.037 390.094 690.859 389.575 690.503 389.218C690.146 388.832 689.641 388.52 688.987 388.282C688.334 388.015 687.562 387.762 686.67 387.525C685.69 387.257 684.71 386.945 683.729 386.589C682.749 386.232 681.843 385.802 681.011 385.297C680.209 384.792 679.555 384.168 679.05 383.425C678.575 382.653 678.337 381.717 678.337 380.618C678.337 379.697 678.531 378.835 678.917 378.033C679.333 377.231 679.912 376.548 680.655 375.984C681.427 375.389 682.318 374.944 683.328 374.647C684.338 374.32 685.452 374.157 686.67 374.157C688.364 374.157 689.79 374.468 690.948 375.092C692.107 375.686 692.983 376.533 693.577 377.632C694.201 378.731 694.528 379.994 694.558 381.42H690.814C690.606 380.172 690.176 379.266 689.522 378.702C688.869 378.108 687.888 377.811 686.581 377.811C685.304 377.811 684.323 378.063 683.64 378.568C682.957 379.073 682.615 379.756 682.615 380.618C682.615 381.271 682.853 381.806 683.328 382.222C683.804 382.608 684.442 382.95 685.244 383.247C686.046 383.544 686.953 383.856 687.963 384.183C688.913 384.509 689.819 384.851 690.681 385.208C691.572 385.534 692.359 385.935 693.042 386.411C693.755 386.856 694.305 387.45 694.691 388.193C695.107 388.906 695.315 389.797 695.315 390.867C695.315 392.174 694.988 393.318 694.335 394.298C693.681 395.249 692.731 395.991 691.483 396.526C690.265 397.061 688.78 397.328 687.027 397.328C685.423 397.328 684.056 397.135 682.927 396.749C681.828 396.363 680.892 395.858 680.12 395.234C679.377 394.61 678.798 393.956 678.382 393.273C677.996 392.56 677.728 391.877 677.58 391.223C677.461 390.57 677.431 390.035 677.491 389.619ZM700.24 365.69H704.518V396.838H700.24V365.69ZM727.785 389.619H731.84C731.603 391.075 731.038 392.382 730.147 393.54C729.256 394.699 728.083 395.62 726.627 396.303C725.171 396.986 723.463 397.328 721.502 397.328C719.185 397.328 717.121 396.838 715.309 395.858C713.496 394.877 712.07 393.526 711.031 391.803C709.991 390.08 709.471 388.074 709.471 385.787C709.471 383.47 709.976 381.45 710.986 379.727C711.996 377.974 713.392 376.607 715.175 375.627C716.957 374.647 718.992 374.157 721.28 374.157C723.686 374.157 725.706 374.632 727.34 375.582C728.974 376.533 730.177 377.944 730.949 379.816C731.751 381.658 732.078 383.96 731.93 386.723H713.704C713.853 388.059 714.254 389.248 714.907 390.287C715.591 391.327 716.482 392.144 717.581 392.738C718.71 393.332 720.002 393.63 721.458 393.63C723.092 393.63 724.458 393.258 725.557 392.516C726.657 391.773 727.399 390.807 727.785 389.619ZM721.324 377.811C719.393 377.811 717.789 378.33 716.512 379.37C715.234 380.38 714.388 381.732 713.972 383.425H727.652C727.533 381.613 726.879 380.232 725.691 379.281C724.503 378.301 723.047 377.811 721.324 377.811Z" fill="#FFBD00"/>
<defs>
<filter id="filter0_d_6591_65847" x="0.5" y="0.751953" width="364.525" height="264.17" filterUnits="userSpaceOnUse" color-interpolation-filters="sRGB">
<feFlood flood-opacity="0" result="BackgroundImageFix"/>
<feColorMatrix in="SourceAlpha" type="matrix" values="0 0 0 0 0 0 0 0 0 0 0 0 0 0 0 0 0 0 127 0" result="hardAlpha"/>
<feOffset dy="6"/>
<feGaussianBlur stdDeviation="20"/>
<feComposite in2="hardAlpha" operator="out"/>
<feColorMatrix type="matrix" values="0 0 0 0 0.2375 0 0 0 0 0.2375 0 0 0 0 0.2375 0 0 0 0.12 0"/>
<feBlend mode="normal" in2="BackgroundImageFix" result="effect1_dropShadow_6591_65847"/>
<feBlend mode="normal" in="SourceGraphic" in2="effect1_dropShadow_6591_65847" result="shape"/>
</filter>
<filter id="filter1_d_6591_65847" x="591.699" y="0.417969" width="364.525" height="264.17" filterUnits="userSpaceOnUse" color-interpolation-filters="sRGB">
<feFlood flood-opacity="0" result="BackgroundImageFix"/>
<feColorMatrix in="SourceAlpha" type="matrix" values="0 0 0 0 0 0 0 0 0 0 0 0 0 0 0 0 0 0 127 0" result="hardAlpha"/>
<feOffset dy="6"/>
<feGaussianBlur stdDeviation="20"/>
<feComposite in2="hardAlpha" operator="out"/>
<feColorMatrix type="matrix" values="0 0 0 0 0.2375 0 0 0 0 0.2375 0 0 0 0 0.2375 0 0 0 0.12 0"/>
<feBlend mode="normal" in2="BackgroundImageFix" result="effect1_dropShadow_6591_65847"/>
<feBlend mode="normal" in="SourceGraphic" in2="effect1_dropShadow_6591_65847" result="shape"/>
</filter>
<filter id="filter2_d_6591_65847" x="342.808" y="258.678" width="364.525" height="264.17" filterUnits="userSpaceOnUse" color-interpolation-filters="sRGB">
<feFlood flood-opacity="0" result="BackgroundImageFix"/>
<feColorMatrix in="SourceAlpha" type="matrix" values="0 0 0 0 0 0 0 0 0 0 0 0 0 0 0 0 0 0 127 0" result="hardAlpha"/>
<feOffset dy="6"/>
<feGaussianBlur stdDeviation="20"/>
<feComposite in2="hardAlpha" operator="out"/>
<feColorMatrix type="matrix" values="0 0 0 0 0.2375 0 0 0 0 0.2375 0 0 0 0 0.2375 0 0 0 0.12 0"/>
<feBlend mode="normal" in2="BackgroundImageFix" result="effect1_dropShadow_6591_65847"/>
<feBlend mode="normal" in="SourceGraphic" in2="effect1_dropShadow_6591_65847" result="shape"/>
</filter>
</defs>
</svg>
