<svg width="618" height="281" viewBox="0 0 618 281" fill="none" xmlns="http://www.w3.org/2000/svg">
<g clip-path="url(#clip0_13218_122120)">
<path d="M16.1094 73.2929V0.265625H51.4754L78.9128 45.7512L106.559 0.265625H140.673V73.2929H116.052V22.6954L84.755 73.2929H71.4014L39.9997 22.6954V73.2929H16.1094Z" fill="#041004"/>
<path d="M321.825 19.5657C346.342 19.5657 358.548 28.2246 358.548 45.3339V47.1074C358.548 64.6339 346.342 73.5015 321.825 73.5015H187.038C181.3 73.5015 176.292 72.8756 171.807 71.8323C167.425 70.6848 163.878 69.3285 161.165 67.555C158.557 65.8858 156.366 63.7993 154.593 61.3999C152.924 59.0004 151.776 56.7052 151.15 54.3058C150.524 52.0106 150.211 49.6112 150.211 47.1074V45.3339C150.211 42.8301 150.524 40.4306 151.15 38.1355C151.776 35.9447 152.924 33.5452 154.593 31.25C156.262 28.9549 158.453 26.8684 161.165 25.1992C163.774 23.53 167.321 22.1738 171.702 21.1306C176.188 20.0873 181.196 19.5657 186.934 19.5657H321.825ZM339.352 46.4814V46.0641C339.352 42.8301 337.891 40.0133 334.866 37.8225C332.153 35.736 327.667 34.6928 321.617 34.4841C321.199 34.4841 189.229 34.4841 188.811 34.4841H188.707C181.822 34.4841 176.814 35.6317 173.893 37.8225C170.972 40.0133 169.511 42.7257 169.511 46.0641V46.4814C169.511 49.7155 170.972 52.5323 173.997 54.8274C176.918 57.2269 181.822 58.3744 188.707 58.3744C189.229 58.3744 321.304 58.3744 321.825 58.3744C327.876 58.1658 332.153 57.0182 334.866 54.8274C337.891 52.5323 339.352 49.7155 339.352 46.4814Z" fill="#041004"/>
<path d="M411.395 17.6878H436.12V30.1025C436.12 30.1025 404.406 30.1025 401.693 30.4154C398.981 30.7284 394.808 33.1279 392.721 35.6317C390.635 38.1355 389.591 41.1609 389.591 44.9166V72.6669H367.266V18.8354H389.487V28.329C390.426 26.9727 391.574 25.5122 392.93 24.156C394.39 22.7997 396.79 21.3392 400.128 19.8787C403.571 18.4181 407.222 17.6878 411.395 17.6878Z" fill="#041004"/>
<path d="M529.329 53.7842C529.329 55.4534 529.12 57.0182 528.598 58.5831C528.077 60.2523 527.033 61.9215 525.364 63.7993C523.591 65.7815 521.4 67.3464 518.687 68.8069C515.975 70.1631 512.219 71.415 507.212 72.3539C502.309 73.2929 496.571 73.7102 489.998 73.7102H483.947C476.54 73.7102 470.177 72.9799 464.752 71.5193C459.327 70.0588 455.154 67.9723 452.128 65.3642C449.207 62.7561 447.016 59.9393 445.556 56.9139C444.2 53.8885 443.574 50.4458 443.574 46.7944V44.7079C443.574 41.0566 444.2 37.8225 445.452 34.7971C446.703 31.7717 448.79 29.0592 451.711 26.4511C454.528 23.843 458.701 21.8608 464.021 20.4003C469.446 18.9397 475.81 18.2095 483.321 18.2095H489.79C516.392 18.2095 529.642 27.5987 529.642 46.5858V50.1328H466.838C468.403 57.0182 475.184 60.4609 487.181 60.4609H487.286C490.207 60.4609 492.919 60.2523 495.214 59.835C497.51 59.4177 499.283 59.0004 500.535 58.3744C501.891 57.8528 502.934 57.2269 503.769 56.6009C504.499 55.8707 505.125 55.349 505.334 54.9317C505.647 54.5144 505.856 54.0971 505.856 53.6798H529.329V53.7842ZM486.451 30.4154H486.347C475.601 30.4154 469.238 33.3365 467.255 39.283H505.647C503.978 33.3365 497.614 30.4154 486.451 30.4154Z" fill="#041004"/>
<rect y="108.25" width="264" height="73" rx="36.5" fill="#23A323"/>
<path d="M52.08 157.75V131.87H69.64C71.64 131.87 73.3733 132.15 74.84 132.71C76.3333 133.243 77.4933 134.097 78.32 135.27C79.1467 136.417 79.56 137.897 79.56 139.71C79.56 140.937 79.3467 141.977 78.92 142.83C78.4933 143.683 77.8933 144.377 77.12 144.91C76.3733 145.443 75.5067 145.857 74.52 146.15C73.5333 146.417 72.48 146.59 71.36 146.67L70.8 146.35C72.6667 146.377 74.2 146.537 75.4 146.83C76.6 147.097 77.4933 147.603 78.08 148.35C78.6933 149.07 79 150.15 79 151.59V157.75H73.68V151.95C73.68 150.963 73.5067 150.203 73.16 149.67C72.8133 149.11 72.1867 148.723 71.28 148.51C70.4 148.297 69.12 148.19 67.44 148.19H57.4V157.75H52.08ZM57.4 144.03H69.64C71.1333 144.03 72.2667 143.67 73.04 142.95C73.84 142.23 74.24 141.257 74.24 140.03C74.24 138.857 73.84 137.963 73.04 137.35C72.2667 136.737 71.1333 136.43 69.64 136.43H57.4V144.03ZM90.4469 146.95V153.31H110.407V157.75H85.1269V131.87H110.367V136.31H90.4469V142.75H106.767V146.95H90.4469ZM119.909 152.11V147.67H137.029V152.11H119.909ZM113.469 157.75L125.629 131.87H131.389L143.669 157.75H137.869L127.229 134.43H129.789L119.229 157.75H113.469ZM176.343 148.43C176.103 150.51 175.369 152.283 174.143 153.75C172.916 155.217 171.249 156.337 169.143 157.11C167.036 157.883 164.529 158.27 161.623 158.27C159.196 158.27 156.969 157.99 154.943 157.43C152.943 156.87 151.209 156.03 149.743 154.91C148.303 153.79 147.183 152.403 146.383 150.75C145.583 149.07 145.183 147.11 145.183 144.87C145.183 142.63 145.583 140.67 146.383 138.99C147.183 137.31 148.303 135.91 149.743 134.79C151.209 133.643 152.943 132.79 154.943 132.23C156.969 131.643 159.196 131.35 161.623 131.35C164.529 131.35 167.036 131.75 169.143 132.55C171.276 133.35 172.956 134.497 174.183 135.99C175.409 137.457 176.129 139.243 176.343 141.35H171.063C170.716 140.23 170.129 139.27 169.303 138.47C168.503 137.643 167.463 137.017 166.183 136.59C164.903 136.163 163.383 135.95 161.623 135.95C159.436 135.95 157.516 136.297 155.863 136.99C154.209 137.657 152.929 138.657 152.023 139.99C151.116 141.297 150.663 142.923 150.663 144.87C150.663 146.79 151.116 148.403 152.023 149.71C152.929 151.017 154.209 152.017 155.863 152.71C157.516 153.377 159.436 153.71 161.623 153.71C163.383 153.71 164.889 153.497 166.143 153.07C167.423 152.643 168.463 152.03 169.263 151.23C170.089 150.43 170.689 149.497 171.063 148.43H176.343ZM186.213 142.55H206.733V146.99H186.213V142.55ZM205.853 131.87H211.173V157.75H205.853V131.87ZM181.533 131.87H186.853V157.75H181.533V131.87Z" fill="white"/>
<rect x="274.716" y="118.75" width="343" height="73" rx="36.5" fill="#FFBD00"/>
<path d="M304.796 168.25V142.37H319.716C323.182 142.37 325.809 142.957 327.596 144.13C329.409 145.277 330.316 146.997 330.316 149.29C330.316 150.757 329.956 151.917 329.236 152.77C328.516 153.597 327.489 154.21 326.156 154.61C324.849 155.01 323.302 155.263 321.516 155.37L321.676 155.09C322.982 155.117 324.209 155.21 325.356 155.37C326.529 155.53 327.556 155.823 328.436 156.25C329.316 156.677 330.009 157.277 330.516 158.05C331.022 158.797 331.276 159.783 331.276 161.01C331.276 162.61 330.849 163.943 329.996 165.01C329.142 166.05 327.956 166.837 326.436 167.37C324.916 167.903 323.156 168.197 321.156 168.25H304.796ZM310.116 163.85H320.596C322.276 163.85 323.569 163.583 324.476 163.05C325.382 162.49 325.836 161.61 325.836 160.41C325.836 159.53 325.569 158.89 325.036 158.49C324.502 158.09 323.796 157.85 322.916 157.77C322.036 157.663 321.089 157.61 320.076 157.61H310.116V163.85ZM310.116 153.33H319.516C321.196 153.33 322.489 153.09 323.396 152.61C324.302 152.103 324.756 151.25 324.756 150.05C324.756 148.85 324.302 148.01 323.396 147.53C322.489 147.023 321.289 146.77 319.796 146.77H310.116V153.33ZM359.767 156.81V142.37H365.087V157.37C365.087 159.077 364.833 160.57 364.327 161.85C363.847 163.13 363.153 164.21 362.247 165.09C361.34 165.97 360.273 166.69 359.047 167.25C357.847 167.783 356.527 168.17 355.087 168.41C353.673 168.65 352.18 168.77 350.607 168.77C348.98 168.77 347.433 168.65 345.967 168.41C344.5 168.17 343.153 167.783 341.927 167.25C340.727 166.69 339.687 165.97 338.807 165.09C337.927 164.21 337.233 163.13 336.727 161.85C336.247 160.57 336.007 159.077 336.007 157.37V142.37H341.327V156.81C341.327 158.837 341.727 160.383 342.527 161.45C343.327 162.49 344.42 163.21 345.807 163.61C347.22 163.983 348.82 164.17 350.607 164.17C352.34 164.17 353.887 163.983 355.247 163.61C356.633 163.21 357.727 162.49 358.527 161.45C359.353 160.383 359.767 158.837 359.767 156.81ZM369.521 159.53H374.921C375.028 160.437 375.441 161.263 376.161 162.01C376.908 162.73 377.881 163.303 379.081 163.73C380.281 164.13 381.628 164.33 383.121 164.33C384.481 164.33 385.601 164.183 386.481 163.89C387.361 163.597 388.014 163.183 388.441 162.65C388.868 162.117 389.081 161.477 389.081 160.73C389.081 160.01 388.814 159.463 388.281 159.09C387.748 158.69 386.908 158.37 385.761 158.13C384.614 157.863 383.108 157.597 381.241 157.33C379.774 157.117 378.388 156.823 377.081 156.45C375.774 156.05 374.614 155.543 373.601 154.93C372.614 154.317 371.828 153.57 371.241 152.69C370.681 151.783 370.401 150.717 370.401 149.49C370.401 147.97 370.828 146.637 371.681 145.49C372.561 144.343 373.854 143.45 375.561 142.81C377.268 142.17 379.361 141.85 381.841 141.85C385.574 141.85 388.441 142.65 390.441 144.25C392.468 145.823 393.454 147.997 393.401 150.77H388.201C388.094 149.197 387.428 148.063 386.201 147.37C385.001 146.677 383.481 146.33 381.641 146.33C379.934 146.33 378.521 146.583 377.401 147.09C376.308 147.597 375.761 148.463 375.761 149.69C375.761 150.17 375.894 150.597 376.161 150.97C376.428 151.317 376.881 151.623 377.521 151.89C378.161 152.157 379.028 152.41 380.121 152.65C381.214 152.89 382.574 153.13 384.201 153.37C385.721 153.583 387.094 153.877 388.321 154.25C389.574 154.597 390.641 155.063 391.521 155.65C392.428 156.21 393.121 156.93 393.601 157.81C394.081 158.69 394.321 159.77 394.321 161.05C394.321 162.623 393.908 163.997 393.081 165.17C392.281 166.317 391.028 167.21 389.321 167.85C387.641 168.49 385.454 168.81 382.761 168.81C380.841 168.81 379.148 168.61 377.681 168.21C376.214 167.783 374.948 167.223 373.881 166.53C372.814 165.837 371.948 165.077 371.281 164.25C370.614 163.423 370.134 162.597 369.841 161.77C369.574 160.943 369.468 160.197 369.521 159.53ZM399.775 142.37H405.095V168.25H399.775V142.37ZM438.223 162.97L436.543 163.65V142.37H441.863V168.25H436.543L415.623 147.81L417.303 147.13V168.25H411.983V142.37H417.303L438.223 162.97ZM453.358 157.45V163.81H473.318V168.25H448.038V142.37H473.278V146.81H453.358V153.25H469.678V157.45H453.358ZM477.06 159.53H482.46C482.567 160.437 482.98 161.263 483.7 162.01C484.447 162.73 485.42 163.303 486.62 163.73C487.82 164.13 489.167 164.33 490.66 164.33C492.02 164.33 493.14 164.183 494.02 163.89C494.9 163.597 495.554 163.183 495.98 162.65C496.407 162.117 496.62 161.477 496.62 160.73C496.62 160.01 496.354 159.463 495.82 159.09C495.287 158.69 494.447 158.37 493.3 158.13C492.154 157.863 490.647 157.597 488.78 157.33C487.314 157.117 485.927 156.823 484.62 156.45C483.314 156.05 482.154 155.543 481.14 154.93C480.154 154.317 479.367 153.57 478.78 152.69C478.22 151.783 477.94 150.717 477.94 149.49C477.94 147.97 478.367 146.637 479.22 145.49C480.1 144.343 481.394 143.45 483.1 142.81C484.807 142.17 486.9 141.85 489.38 141.85C493.114 141.85 495.98 142.65 497.98 144.25C500.007 145.823 500.994 147.997 500.94 150.77H495.74C495.634 149.197 494.967 148.063 493.74 147.37C492.54 146.677 491.02 146.33 489.18 146.33C487.474 146.33 486.06 146.583 484.94 147.09C483.847 147.597 483.3 148.463 483.3 149.69C483.3 150.17 483.434 150.597 483.7 150.97C483.967 151.317 484.42 151.623 485.06 151.89C485.7 152.157 486.567 152.41 487.66 152.65C488.754 152.89 490.114 153.13 491.74 153.37C493.26 153.583 494.634 153.877 495.86 154.25C497.114 154.597 498.18 155.063 499.06 155.65C499.967 156.21 500.66 156.93 501.14 157.81C501.62 158.69 501.86 159.77 501.86 161.05C501.86 162.623 501.447 163.997 500.62 165.17C499.82 166.317 498.567 167.21 496.86 167.85C495.18 168.49 492.994 168.81 490.3 168.81C488.38 168.81 486.687 168.61 485.22 168.21C483.754 167.783 482.487 167.223 481.42 166.53C480.354 165.837 479.487 165.077 478.82 164.25C478.154 163.423 477.674 162.597 477.38 161.77C477.114 160.943 477.007 160.197 477.06 159.53ZM504.834 159.53H510.234C510.34 160.437 510.754 161.263 511.474 162.01C512.22 162.73 513.194 163.303 514.394 163.73C515.594 164.13 516.94 164.33 518.434 164.33C519.794 164.33 520.914 164.183 521.794 163.89C522.674 163.597 523.327 163.183 523.754 162.65C524.18 162.117 524.394 161.477 524.394 160.73C524.394 160.01 524.127 159.463 523.594 159.09C523.06 158.69 522.22 158.37 521.074 158.13C519.927 157.863 518.42 157.597 516.554 157.33C515.087 157.117 513.7 156.823 512.394 156.45C511.087 156.05 509.927 155.543 508.914 154.93C507.927 154.317 507.14 153.57 506.554 152.69C505.994 151.783 505.714 150.717 505.714 149.49C505.714 147.97 506.14 146.637 506.994 145.49C507.874 144.343 509.167 143.45 510.874 142.81C512.58 142.17 514.674 141.85 517.154 141.85C520.887 141.85 523.754 142.65 525.754 144.25C527.78 145.823 528.767 147.997 528.714 150.77H523.514C523.407 149.197 522.74 148.063 521.514 147.37C520.314 146.677 518.794 146.33 516.954 146.33C515.247 146.33 513.834 146.583 512.714 147.09C511.62 147.597 511.074 148.463 511.074 149.69C511.074 150.17 511.207 150.597 511.474 150.97C511.74 151.317 512.194 151.623 512.834 151.89C513.474 152.157 514.34 152.41 515.434 152.65C516.527 152.89 517.887 153.13 519.514 153.37C521.034 153.583 522.407 153.877 523.634 154.25C524.887 154.597 525.954 155.063 526.834 155.65C527.74 156.21 528.434 156.93 528.914 157.81C529.394 158.69 529.634 159.77 529.634 161.05C529.634 162.623 529.22 163.997 528.394 165.17C527.594 166.317 526.34 167.21 524.634 167.85C522.954 168.49 520.767 168.81 518.074 168.81C516.154 168.81 514.46 168.61 512.994 168.21C511.527 167.783 510.26 167.223 509.194 166.53C508.127 165.837 507.26 165.077 506.594 164.25C505.927 163.423 505.447 162.597 505.154 161.77C504.887 160.943 504.78 160.197 504.834 159.53ZM539.647 157.45V163.81H559.607V168.25H534.327V142.37H559.567V146.81H539.647V153.25H555.967V157.45H539.647ZM563.349 159.53H568.749C568.856 160.437 569.269 161.263 569.989 162.01C570.736 162.73 571.709 163.303 572.909 163.73C574.109 164.13 575.456 164.33 576.949 164.33C578.309 164.33 579.429 164.183 580.309 163.89C581.189 163.597 581.843 163.183 582.269 162.65C582.696 162.117 582.909 161.477 582.909 160.73C582.909 160.01 582.643 159.463 582.109 159.09C581.576 158.69 580.736 158.37 579.589 158.13C578.443 157.863 576.936 157.597 575.069 157.33C573.603 157.117 572.216 156.823 570.909 156.45C569.603 156.05 568.443 155.543 567.429 154.93C566.443 154.317 565.656 153.57 565.069 152.69C564.509 151.783 564.229 150.717 564.229 149.49C564.229 147.97 564.656 146.637 565.509 145.49C566.389 144.343 567.683 143.45 569.389 142.81C571.096 142.17 573.189 141.85 575.669 141.85C579.403 141.85 582.269 142.65 584.269 144.25C586.296 145.823 587.283 147.997 587.229 150.77H582.029C581.923 149.197 581.256 148.063 580.029 147.37C578.829 146.677 577.309 146.33 575.469 146.33C573.763 146.33 572.349 146.583 571.229 147.09C570.136 147.597 569.589 148.463 569.589 149.69C569.589 150.17 569.723 150.597 569.989 150.97C570.256 151.317 570.709 151.623 571.349 151.89C571.989 152.157 572.856 152.41 573.949 152.65C575.043 152.89 576.403 153.13 578.029 153.37C579.549 153.583 580.923 153.877 582.149 154.25C583.403 154.597 584.469 155.063 585.349 155.65C586.256 156.21 586.949 156.93 587.429 157.81C587.909 158.69 588.149 159.77 588.149 161.05C588.149 162.623 587.736 163.997 586.909 165.17C586.109 166.317 584.856 167.21 583.149 167.85C581.469 168.49 579.283 168.81 576.589 168.81C574.669 168.81 572.976 168.61 571.509 168.21C570.043 167.783 568.776 167.223 567.709 166.53C566.643 165.837 565.776 165.077 565.109 164.25C564.443 163.423 563.963 162.597 563.669 161.77C563.403 160.943 563.296 160.197 563.349 159.53Z" fill="white"/>
<rect x="67" y="207.328" width="365" height="73" rx="36.5" fill="#F37A00"/>
<path d="M133.78 247.508C133.54 249.588 132.807 251.361 131.58 252.828C130.353 254.295 128.687 255.415 126.58 256.188C124.473 256.961 121.967 257.348 119.06 257.348C116.633 257.348 114.407 257.068 112.38 256.508C110.38 255.948 108.647 255.108 107.18 253.988C105.74 252.868 104.62 251.481 103.82 249.828C103.02 248.148 102.62 246.188 102.62 243.948C102.62 241.708 103.02 239.748 103.82 238.068C104.62 236.388 105.74 234.988 107.18 233.868C108.647 232.721 110.38 231.868 112.38 231.308C114.407 230.721 116.633 230.428 119.06 230.428C121.967 230.428 124.473 230.828 126.58 231.628C128.713 232.428 130.393 233.575 131.62 235.068C132.847 236.535 133.567 238.321 133.78 240.428H128.5C128.153 239.308 127.567 238.348 126.74 237.548C125.94 236.721 124.9 236.095 123.62 235.668C122.34 235.241 120.82 235.028 119.06 235.028C116.873 235.028 114.953 235.375 113.3 236.068C111.647 236.735 110.367 237.735 109.46 239.068C108.553 240.375 108.1 242.001 108.1 243.948C108.1 245.868 108.553 247.481 109.46 248.788C110.367 250.095 111.647 251.095 113.3 251.788C114.953 252.455 116.873 252.788 119.06 252.788C120.82 252.788 122.327 252.575 123.58 252.148C124.86 251.721 125.9 251.108 126.7 250.308C127.527 249.508 128.127 248.575 128.5 247.508H133.78ZM162.731 245.388V230.948H168.051V245.948C168.051 247.655 167.797 249.148 167.291 250.428C166.811 251.708 166.117 252.788 165.211 253.668C164.304 254.548 163.237 255.268 162.011 255.828C160.811 256.361 159.491 256.748 158.051 256.988C156.637 257.228 155.144 257.348 153.571 257.348C151.944 257.348 150.397 257.228 148.931 256.988C147.464 256.748 146.117 256.361 144.891 255.828C143.691 255.268 142.651 254.548 141.771 253.668C140.891 252.788 140.197 251.708 139.691 250.428C139.211 249.148 138.971 247.655 138.971 245.948V230.948H144.291V245.388C144.291 247.415 144.691 248.961 145.491 250.028C146.291 251.068 147.384 251.788 148.771 252.188C150.184 252.561 151.784 252.748 153.571 252.748C155.304 252.748 156.851 252.561 158.211 252.188C159.597 251.788 160.691 251.068 161.491 250.028C162.317 248.961 162.731 247.415 162.731 245.388ZM172.485 248.108H177.885C177.992 249.015 178.405 249.841 179.125 250.588C179.872 251.308 180.845 251.881 182.045 252.308C183.245 252.708 184.592 252.908 186.085 252.908C187.445 252.908 188.565 252.761 189.445 252.468C190.325 252.175 190.978 251.761 191.405 251.228C191.832 250.695 192.045 250.055 192.045 249.308C192.045 248.588 191.778 248.041 191.245 247.668C190.712 247.268 189.872 246.948 188.725 246.708C187.578 246.441 186.072 246.175 184.205 245.908C182.738 245.695 181.352 245.401 180.045 245.028C178.738 244.628 177.578 244.121 176.565 243.508C175.578 242.895 174.792 242.148 174.205 241.268C173.645 240.361 173.365 239.295 173.365 238.068C173.365 236.548 173.792 235.215 174.645 234.068C175.525 232.921 176.818 232.028 178.525 231.388C180.232 230.748 182.325 230.428 184.805 230.428C188.538 230.428 191.405 231.228 193.405 232.828C195.432 234.401 196.418 236.575 196.365 239.348H191.165C191.058 237.775 190.392 236.641 189.165 235.948C187.965 235.255 186.445 234.908 184.605 234.908C182.898 234.908 181.485 235.161 180.365 235.668C179.272 236.175 178.725 237.041 178.725 238.268C178.725 238.748 178.858 239.175 179.125 239.548C179.392 239.895 179.845 240.201 180.485 240.468C181.125 240.735 181.992 240.988 183.085 241.228C184.178 241.468 185.538 241.708 187.165 241.948C188.685 242.161 190.058 242.455 191.285 242.828C192.538 243.175 193.605 243.641 194.485 244.228C195.392 244.788 196.085 245.508 196.565 246.388C197.045 247.268 197.285 248.348 197.285 249.628C197.285 251.201 196.872 252.575 196.045 253.748C195.245 254.895 193.992 255.788 192.285 256.428C190.605 257.068 188.418 257.388 185.725 257.388C183.805 257.388 182.112 257.188 180.645 256.788C179.178 256.361 177.912 255.801 176.845 255.108C175.778 254.415 174.912 253.655 174.245 252.828C173.578 252.001 173.098 251.175 172.805 250.348C172.538 249.521 172.432 248.775 172.485 248.108ZM199.698 230.948H226.978V235.388H199.698V230.948ZM210.698 234.828H216.018V256.828H210.698V234.828ZM244.253 257.348C240.813 257.348 237.867 256.815 235.413 255.748C232.987 254.655 231.12 253.108 229.813 251.108C228.533 249.108 227.893 246.708 227.893 243.908C227.893 241.081 228.533 238.668 229.813 236.668C231.12 234.668 232.987 233.135 235.413 232.068C237.867 230.975 240.813 230.428 244.253 230.428C247.72 230.428 250.667 230.975 253.093 232.068C255.52 233.135 257.373 234.668 258.653 236.668C259.96 238.668 260.613 241.081 260.613 243.908C260.613 246.708 259.96 249.108 258.653 251.108C257.373 253.108 255.52 254.655 253.093 255.748C250.667 256.815 247.72 257.348 244.253 257.348ZM244.253 252.748C246.387 252.748 248.253 252.428 249.853 251.788C251.48 251.148 252.747 250.175 253.653 248.868C254.587 247.561 255.053 245.908 255.053 243.908C255.053 241.908 254.587 240.255 253.653 238.948C252.747 237.641 251.48 236.668 249.853 236.028C248.253 235.361 246.387 235.028 244.253 235.028C242.147 235.028 240.267 235.361 238.613 236.028C236.96 236.668 235.667 237.641 234.733 238.948C233.8 240.255 233.333 241.908 233.333 243.908C233.333 245.908 233.8 247.561 234.733 248.868C235.667 250.175 236.96 251.148 238.613 251.788C240.267 252.428 242.147 252.748 244.253 252.748ZM285.927 254.188H283.407L298.287 230.948H303.607V256.828H298.287V238.028L299.567 238.388L287.687 256.828H281.727L269.847 238.468L271.127 238.108V256.828H265.807V230.948H271.127L285.927 254.188ZM315.072 246.028V252.388H335.032V256.828H309.752V230.948H334.992V235.388H315.072V241.828H331.392V246.028H315.072ZM340.494 256.828V230.948H358.054C360.054 230.948 361.787 231.228 363.254 231.788C364.747 232.321 365.907 233.175 366.734 234.348C367.561 235.495 367.974 236.975 367.974 238.788C367.974 240.015 367.761 241.055 367.334 241.908C366.907 242.761 366.307 243.455 365.534 243.988C364.787 244.521 363.921 244.935 362.934 245.228C361.947 245.495 360.894 245.668 359.774 245.748L359.214 245.428C361.081 245.455 362.614 245.615 363.814 245.908C365.014 246.175 365.907 246.681 366.494 247.428C367.107 248.148 367.414 249.228 367.414 250.668V256.828H362.094V251.028C362.094 250.041 361.921 249.281 361.574 248.748C361.227 248.188 360.601 247.801 359.694 247.588C358.814 247.375 357.534 247.268 355.854 247.268H345.814V256.828H340.494ZM345.814 243.108H358.054C359.547 243.108 360.681 242.748 361.454 242.028C362.254 241.308 362.654 240.335 362.654 239.108C362.654 237.935 362.254 237.041 361.454 236.428C360.681 235.815 359.547 235.508 358.054 235.508H345.814V243.108ZM371.821 248.108H377.221C377.328 249.015 377.741 249.841 378.461 250.588C379.208 251.308 380.181 251.881 381.381 252.308C382.581 252.708 383.928 252.908 385.421 252.908C386.781 252.908 387.901 252.761 388.781 252.468C389.661 252.175 390.314 251.761 390.741 251.228C391.168 250.695 391.381 250.055 391.381 249.308C391.381 248.588 391.114 248.041 390.581 247.668C390.048 247.268 389.208 246.948 388.061 246.708C386.914 246.441 385.408 246.175 383.541 245.908C382.074 245.695 380.688 245.401 379.381 245.028C378.074 244.628 376.914 244.121 375.901 243.508C374.914 242.895 374.128 242.148 373.541 241.268C372.981 240.361 372.701 239.295 372.701 238.068C372.701 236.548 373.128 235.215 373.981 234.068C374.861 232.921 376.154 232.028 377.861 231.388C379.568 230.748 381.661 230.428 384.141 230.428C387.874 230.428 390.741 231.228 392.741 232.828C394.768 234.401 395.754 236.575 395.701 239.348H390.501C390.394 237.775 389.728 236.641 388.501 235.948C387.301 235.255 385.781 234.908 383.941 234.908C382.234 234.908 380.821 235.161 379.701 235.668C378.608 236.175 378.061 237.041 378.061 238.268C378.061 238.748 378.194 239.175 378.461 239.548C378.728 239.895 379.181 240.201 379.821 240.468C380.461 240.735 381.328 240.988 382.421 241.228C383.514 241.468 384.874 241.708 386.501 241.948C388.021 242.161 389.394 242.455 390.621 242.828C391.874 243.175 392.941 243.641 393.821 244.228C394.728 244.788 395.421 245.508 395.901 246.388C396.381 247.268 396.621 248.348 396.621 249.628C396.621 251.201 396.208 252.575 395.381 253.748C394.581 254.895 393.328 255.788 391.621 256.428C389.941 257.068 387.754 257.388 385.061 257.388C383.141 257.388 381.448 257.188 379.981 256.788C378.514 256.361 377.248 255.801 376.181 255.108C375.114 254.415 374.248 253.655 373.581 252.828C372.914 252.001 372.434 251.175 372.141 250.348C371.874 249.521 371.768 248.775 371.821 248.108Z" fill="white"/>
</g>
<defs>
<clipPath id="clip0_13218_122120">
<rect width="617.716" height="280.062" fill="white" transform="translate(0 0.265625)"/>
</clipPath>
</defs>
</svg>
