<svg width="225" height="39" viewBox="0 0 225 39" fill="none" xmlns="http://www.w3.org/2000/svg">
<rect width="187" height="39" rx="19.5" fill="#FFA529"/>
<path d="M52.908 22.792H52.296L56.424 15.724H57.78V23.5H56.424V17.68L56.736 17.764L53.352 23.5H51.864L48.48 17.788L48.804 17.692V23.5H47.436V15.724H48.804L52.908 22.792ZM66.3669 23.644C65.4549 23.644 64.6589 23.48 63.9789 23.152C63.3069 22.824 62.7829 22.36 62.4069 21.76C62.0389 21.16 61.8549 20.444 61.8549 19.612C61.8549 18.78 62.0389 18.064 62.4069 17.464C62.7829 16.856 63.3069 16.392 63.9789 16.072C64.6589 15.744 65.4549 15.58 66.3669 15.58C67.2869 15.58 68.0829 15.744 68.7549 16.072C69.4269 16.392 69.9469 16.856 70.3149 17.464C70.6909 18.064 70.8789 18.78 70.8789 19.612C70.8789 20.444 70.6909 21.16 70.3149 21.76C69.9469 22.36 69.4269 22.824 68.7549 23.152C68.0829 23.48 67.2869 23.644 66.3669 23.644ZM66.3669 22.444C66.9749 22.444 67.5109 22.34 67.9749 22.132C68.4389 21.924 68.8029 21.612 69.0669 21.196C69.3389 20.772 69.4749 20.244 69.4749 19.612C69.4749 18.988 69.3389 18.468 69.0669 18.052C68.8029 17.628 68.4389 17.312 67.9749 17.104C67.5109 16.888 66.9749 16.78 66.3669 16.78C65.7669 16.78 65.2309 16.888 64.7589 17.104C64.2869 17.312 63.9149 17.628 63.6429 18.052C63.3709 18.468 63.2349 18.988 63.2349 19.612C63.2349 20.244 63.3709 20.772 63.6429 21.196C63.9149 21.612 64.2869 21.924 64.7589 22.132C65.2309 22.34 65.7669 22.444 66.3669 22.444ZM74.9643 23.5V15.724H79.5603C80.1363 15.724 80.6363 15.808 81.0603 15.976C81.4843 16.136 81.8123 16.388 82.0443 16.732C82.2763 17.068 82.3923 17.5 82.3923 18.028C82.3923 18.38 82.3323 18.684 82.2123 18.94C82.0923 19.188 81.9243 19.392 81.7083 19.552C81.4923 19.712 81.2403 19.836 80.9523 19.924C80.6723 20.012 80.3723 20.068 80.0523 20.092L79.9323 20.008C80.4443 20.016 80.8683 20.064 81.2043 20.152C81.5403 20.232 81.7963 20.388 81.9723 20.62C82.1483 20.844 82.2363 21.176 82.2363 21.616V23.5H80.8803V21.688C80.8803 21.384 80.8243 21.148 80.7123 20.98C80.6083 20.804 80.4243 20.684 80.1603 20.62C79.9043 20.548 79.5363 20.512 79.0563 20.512H76.3323V23.5H74.9643ZM76.3323 19.396H79.5603C80.0403 19.396 80.4043 19.276 80.6523 19.036C80.9003 18.796 81.0243 18.48 81.0243 18.088C81.0243 17.712 80.9003 17.424 80.6523 17.224C80.4043 17.016 80.0403 16.912 79.5603 16.912H76.3323V19.396ZM85.858 15.724H93.322V16.9H85.858V15.724ZM88.918 16.756H90.274V23.5H88.918V16.756ZM100.443 23.644C99.7788 23.644 99.1788 23.556 98.6428 23.38C98.1068 23.204 97.6468 22.948 97.2628 22.612C96.8868 22.268 96.5948 21.848 96.3868 21.352C96.1868 20.856 96.0868 20.296 96.0868 19.672C96.0868 19.04 96.1948 18.472 96.4108 17.968C96.6268 17.464 96.9348 17.036 97.3348 16.684C97.7348 16.324 98.2108 16.052 98.7628 15.868C99.3148 15.676 99.9228 15.58 100.587 15.58C101.363 15.58 102.035 15.7 102.603 15.94C103.171 16.18 103.623 16.516 103.959 16.948C104.295 17.372 104.487 17.876 104.535 18.46H103.275C103.171 18.116 102.999 17.82 102.759 17.572C102.527 17.324 102.227 17.132 101.859 16.996C101.499 16.852 101.075 16.78 100.587 16.78C99.9468 16.78 99.3908 16.904 98.9188 17.152C98.4548 17.392 98.0988 17.732 97.8508 18.172C97.6028 18.604 97.4788 19.104 97.4788 19.672C97.4788 20.24 97.5868 20.732 97.8028 21.148C98.0268 21.556 98.3628 21.876 98.8108 22.108C99.2588 22.332 99.8148 22.444 100.479 22.444C100.991 22.444 101.439 22.368 101.823 22.216C102.215 22.056 102.539 21.836 102.795 21.556C103.051 21.276 103.231 20.952 103.335 20.584L103.947 20.44C103.835 21.472 103.467 22.264 102.843 22.816C102.227 23.368 101.427 23.644 100.443 23.644ZM103.623 23.5C103.623 23.244 103.635 22.956 103.659 22.636C103.683 22.308 103.711 21.976 103.743 21.64C103.783 21.296 103.819 20.988 103.851 20.716H100.635V19.732H104.835V23.5H103.623ZM110.112 21.676V20.512H114.744V21.676H110.112ZM108.312 23.5L111.708 15.724H113.172L116.592 23.5H115.116L112.14 16.48H112.74L109.776 23.5H108.312ZM123.987 23.644C123.323 23.644 122.723 23.556 122.187 23.38C121.651 23.204 121.191 22.948 120.807 22.612C120.431 22.268 120.139 21.848 119.931 21.352C119.731 20.856 119.631 20.296 119.631 19.672C119.631 19.04 119.739 18.472 119.955 17.968C120.171 17.464 120.479 17.036 120.879 16.684C121.279 16.324 121.755 16.052 122.307 15.868C122.859 15.676 123.467 15.58 124.131 15.58C124.907 15.58 125.579 15.7 126.147 15.94C126.715 16.18 127.167 16.516 127.503 16.948C127.839 17.372 128.031 17.876 128.079 18.46H126.819C126.715 18.116 126.543 17.82 126.303 17.572C126.071 17.324 125.771 17.132 125.403 16.996C125.043 16.852 124.619 16.78 124.131 16.78C123.491 16.78 122.935 16.904 122.463 17.152C121.999 17.392 121.643 17.732 121.395 18.172C121.147 18.604 121.023 19.104 121.023 19.672C121.023 20.24 121.131 20.732 121.347 21.148C121.571 21.556 121.907 21.876 122.355 22.108C122.803 22.332 123.359 22.444 124.023 22.444C124.535 22.444 124.983 22.368 125.367 22.216C125.759 22.056 126.083 21.836 126.339 21.556C126.595 21.276 126.775 20.952 126.879 20.584L127.491 20.44C127.379 21.472 127.011 22.264 126.387 22.816C125.771 23.368 124.971 23.644 123.987 23.644ZM127.167 23.5C127.167 23.244 127.179 22.956 127.203 22.636C127.227 22.308 127.255 21.976 127.287 21.64C127.327 21.296 127.363 20.988 127.395 20.716H124.179V19.732H128.379V23.5H127.167ZM133.944 20.188V22.324H139.404V23.5H132.576V15.724H139.392V16.9H133.944V19.06H138.408V20.188H133.944Z" fill="white"/>
<circle cx="217" cy="19.5" r="7.5" stroke="#FFA529"/>
<circle cx="217" cy="19.5" r="4" fill="#FFA529"/>
</svg>
