<svg width="652" height="146" viewBox="0 0 652 146" fill="none" xmlns="http://www.w3.org/2000/svg">
<path d="M0.225078 1.49789C0.138412 1.28122 0.160078 1.08622 0.290078 0.912887C0.420078 0.696221 0.615078 0.587888 0.875078 0.587888H24.0151C27.3517 0.587888 30.2767 1.23789 32.7901 2.53789C35.3034 3.83789 37.3834 5.54955 39.0301 7.67289C40.7201 9.79622 41.9767 12.2229 42.8001 14.9529C43.6234 17.6829 44.0351 20.4779 44.0351 23.3379C44.0351 26.1546 43.6234 28.9279 42.8001 31.6579C41.9767 34.3879 40.7201 36.8146 39.0301 38.9379C37.3834 41.0612 35.3034 42.7729 32.7901 44.0729C30.2767 45.3729 27.3517 46.0229 24.0151 46.0229H0.875078C0.615078 46.0229 0.420078 45.9146 0.290078 45.6979C0.160078 45.5246 0.138412 45.3296 0.225078 45.1129L2.04508 40.5629V6.11289L0.225078 1.49789ZM14.4601 38.4179H20.9601C23.2567 38.4179 25.1634 37.6812 26.6801 36.2079C28.2401 34.6912 29.3884 32.8062 30.1251 30.5529C30.9051 28.2996 31.2951 25.8729 31.2951 23.2729C31.2951 20.6729 30.9051 18.2462 30.1251 15.9929C29.3884 13.7396 28.2401 11.8762 26.6801 10.4029C25.1634 8.88622 23.2567 8.12789 20.9601 8.12789H14.4601V38.4179ZM49.6616 40.5629V21.9079L47.4516 18.2679C47.3216 18.0946 47.3 17.8996 47.3866 17.6829C47.43 17.5096 47.56 17.3796 47.7766 17.2929L50.0516 16.5779L61.1016 13.5879C61.275 13.5446 61.47 13.5879 61.6866 13.7179C61.86 13.8479 61.9466 14.0212 61.9466 14.2379V16.5779C62.6833 15.8846 63.5066 15.2779 64.4166 14.7579C65.3266 14.2379 66.215 13.8046 67.0816 13.4579C68.0783 13.1112 69.0966 12.8946 70.1366 12.8079C71.1766 12.6779 72.195 12.7646 73.1916 13.0679C73.495 13.1546 73.6466 13.3712 73.6466 13.7179V23.5329C73.6466 23.8362 73.5166 24.0529 73.2566 24.1829C72.9966 24.3129 72.7583 24.2696 72.5416 24.0529C71.7183 23.1862 70.7433 22.5796 69.6166 22.2329C68.49 21.8862 67.3416 21.8212 66.1716 22.0379C65.3916 22.1679 64.5683 22.4929 63.7016 23.0129C62.835 23.4896 62.2933 24.1612 62.0766 25.0279C62.0333 25.1579 62.0116 25.3529 62.0116 25.6129V40.6279L63.8316 45.1779C63.9183 45.3946 63.8966 45.5896 63.7666 45.7629C63.6366 45.9796 63.4633 46.0879 63.2466 46.0879H48.4266C48.21 46.0879 48.0366 45.9796 47.9066 45.7629C47.7766 45.5896 47.755 45.3946 47.8416 45.1779L49.6616 40.5629ZM89.855 33.9979V34.1929C90.5483 36.3162 91.8483 38.0062 93.755 39.2629C95.6617 40.4762 97.6767 41.2346 99.8 41.5379C100.493 41.6679 101.252 41.7329 102.075 41.7329C103.332 41.7329 104.567 41.5812 105.78 41.2779C107.037 40.9746 108.228 40.5196 109.355 39.9129C109.658 39.7396 109.918 39.8046 110.135 40.1079C110.352 40.4112 110.352 40.6929 110.135 40.9529C108.272 43.1629 105.997 44.7229 103.31 45.6329C100.667 46.4996 97.9367 46.9329 95.12 46.9329C92.52 46.9329 90.0717 46.5646 87.775 45.8279C85.5217 45.0479 83.5283 43.9429 81.795 42.5129C80.105 41.0396 78.7617 39.2412 77.765 37.1179C76.8117 34.9946 76.335 32.5679 76.335 29.8379C76.335 27.1079 76.8117 24.7029 77.765 22.6229C78.7617 20.4996 80.105 18.7229 81.795 17.2929C83.485 15.8196 85.4567 14.7146 87.71 13.9779C89.9633 13.2412 92.39 12.8729 94.99 12.8729C99.8433 12.8729 103.57 14.0212 106.17 16.3179C108.813 18.6146 110.287 22.1896 110.59 27.0429C110.59 27.3896 110.438 27.6062 110.135 27.6929L107.86 28.4079L100.645 30.6829L89.66 34.1279L89.855 33.9979ZM99.085 25.8729C99.1283 24.8762 99.02 23.8146 98.76 22.6879C98.5433 21.9512 98.24 21.2146 97.85 20.4779C97.5033 19.7412 97.0483 19.1129 96.485 18.5929C95.965 18.0296 95.3367 17.6179 94.6 17.3579C93.9067 17.0546 93.1267 17.0112 92.26 17.2279L91.87 17.4229C91.0033 17.7696 90.3317 18.3762 89.855 19.2429C89.3783 20.0662 89.0317 20.8896 88.815 21.7129C88.4683 22.9262 88.2733 24.1829 88.23 25.4829C88.23 26.7829 88.3383 28.0612 88.555 29.3179L99.085 25.8729ZM149.554 45.2429C149.641 45.4596 149.619 45.6546 149.489 45.8279C149.359 46.0446 149.186 46.1529 148.969 46.1529H136.034C135.558 46.1529 135.319 45.9146 135.319 45.4379V43.4229C133.716 44.6362 132.004 45.5246 130.184 46.0879C128.364 46.6079 126.414 46.8679 124.334 46.8679C123.208 46.8679 122.081 46.7596 120.954 46.5429C119.871 46.3262 118.853 45.9796 117.899 45.5029C116.946 44.9829 116.079 44.3546 115.299 43.6179C114.519 42.8379 113.913 41.9062 113.479 40.8229C112.569 38.6129 112.461 36.4029 113.154 34.1929C113.848 31.9829 114.974 30.0546 116.534 28.4079C117.704 27.1946 119.026 26.1762 120.499 25.3529C121.973 24.4862 123.511 23.7929 125.114 23.2729C126.761 22.7529 128.429 22.3846 130.119 22.1679C131.853 21.9079 133.543 21.7779 135.189 21.7779H135.384C135.341 21.1712 135.211 20.5862 134.994 20.0229C134.821 19.4596 134.474 19.0046 133.954 18.6579C132.871 18.0079 131.658 17.7262 130.314 17.8129C129.014 17.8562 127.693 18.1162 126.349 18.5929C125.006 19.0696 123.706 19.6762 122.449 20.4129C121.236 21.1062 120.174 21.7779 119.264 22.4279C119.048 22.5579 118.853 22.6012 118.679 22.5579C118.463 22.5146 118.333 22.3846 118.289 22.1679L115.429 16.2529C115.343 16.0796 115.343 15.8846 115.429 15.6679C115.473 15.4946 115.603 15.3646 115.819 15.2779C117.423 14.5846 119.308 13.9996 121.474 13.5229C123.684 13.0462 125.981 12.7646 128.364 12.6779C130.748 12.5479 133.088 12.6562 135.384 13.0029C137.724 13.3496 139.804 13.9996 141.624 14.9529C143.488 15.9062 144.983 17.2062 146.109 18.8529C147.279 20.4996 147.864 22.5579 147.864 25.0279V40.6279L149.554 45.2429ZM135.319 27.4979C132.589 27.7579 130.336 28.9062 128.559 30.9429C127.823 31.7662 127.216 32.7196 126.739 33.8029C126.263 34.8862 126.068 35.9912 126.154 37.1179C126.198 37.5946 126.306 38.0279 126.479 38.4179C126.653 38.8079 126.934 39.1329 127.324 39.3929C128.061 39.8696 128.884 40.0212 129.794 39.8479C130.748 39.6746 131.549 39.3712 132.199 38.9379C133.239 38.2446 134.019 37.3779 134.539 36.3379C135.059 35.2546 135.319 34.0846 135.319 32.8279V27.4979ZM175.239 40.5629V23.5329C175.239 23.1429 175.195 22.6662 175.109 22.1029C175.022 21.4962 174.762 21.0846 174.329 20.8679C173.809 20.6512 173.159 20.7379 172.379 21.1279C171.599 21.4746 170.992 21.7779 170.559 22.0379C170.082 22.3412 169.605 22.6662 169.129 23.0129C168.695 23.3596 168.24 23.7279 167.764 24.1179C167.764 26.8479 167.742 29.5779 167.699 32.3079C167.699 35.0379 167.699 37.7679 167.699 40.4979L169.519 45.0479C169.605 45.2646 169.584 45.4596 169.454 45.6329C169.324 45.8496 169.15 45.9579 168.934 45.9579H154.309C154.092 45.9579 153.919 45.8496 153.789 45.6329C153.659 45.4596 153.637 45.2646 153.724 45.0479L155.544 40.4979V21.2579L153.269 18.2679C153.139 18.0512 153.095 17.8562 153.139 17.6829C153.182 17.5096 153.312 17.3796 153.529 17.2929L155.804 16.5779L166.854 13.5879C167.027 13.5446 167.222 13.5879 167.439 13.7179C167.612 13.8479 167.699 14.0212 167.699 14.2379V17.6179C168.305 17.1412 168.89 16.6646 169.454 16.1879C170.017 15.7112 170.602 15.2562 171.209 14.8229C172.335 14.0862 173.505 13.5662 174.719 13.2629C175.975 12.9162 177.254 12.7646 178.554 12.8079C180.504 12.8512 182.215 13.3279 183.689 14.2379C185.162 15.1046 186.224 16.4479 186.874 18.2679C187.567 17.6612 188.26 17.0762 188.954 16.5129C189.647 15.9062 190.362 15.3429 191.099 14.8229C192.225 14.0862 193.417 13.5662 194.674 13.2629C195.93 12.9162 197.209 12.7646 198.509 12.8079C199.462 12.8079 200.394 12.9379 201.304 13.1979C202.214 13.4146 203.059 13.7829 203.839 14.3029C205.182 15.1696 206.135 16.2962 206.699 17.6829C207.262 19.0696 207.544 20.5212 207.544 22.0379V41.2129L209.104 45.1129C209.19 45.3296 209.169 45.5246 209.039 45.6979C208.909 45.9146 208.735 46.0229 208.519 46.0229H193.959C193.742 46.0229 193.569 45.9146 193.439 45.6979C193.309 45.5246 193.287 45.3296 193.374 45.1129L195.194 40.5629V23.5329C195.194 23.1429 195.15 22.6662 195.064 22.1029C194.977 21.4962 194.717 21.0846 194.284 20.8679C193.764 20.6512 193.114 20.7379 192.334 21.1279C191.554 21.4746 190.947 21.7779 190.514 22.0379C189.994 22.3846 189.495 22.7529 189.019 23.1429C188.542 23.4896 188.065 23.8579 187.589 24.2479V41.2779L189.149 45.1779C189.235 45.3946 189.214 45.5896 189.084 45.7629C188.954 45.9796 188.78 46.0879 188.564 46.0879H174.004C173.787 46.0879 173.614 45.9796 173.484 45.7629C173.354 45.5896 173.332 45.3946 173.419 45.1779L175.239 40.5629ZM252.379 40.5629V23.5329C252.379 23.1429 252.314 22.6879 252.184 22.1679C252.098 21.6479 251.859 21.2796 251.469 21.0629C251.209 20.9329 250.884 20.8896 250.494 20.9329C250.104 20.9329 249.714 20.9979 249.324 21.1279C248.934 21.2579 248.544 21.4312 248.154 21.6479C247.808 21.8212 247.504 21.9729 247.244 22.1029C246.161 22.7096 245.164 23.4029 244.254 24.1829V40.6279L246.074 45.1779C246.161 45.3946 246.139 45.5896 246.009 45.7629C245.879 45.9796 245.706 46.0879 245.489 46.0879H230.669C230.453 46.0879 230.279 45.9796 230.149 45.7629C230.019 45.5896 229.998 45.3946 230.084 45.1779L231.774 40.9529V8.64789L229.694 5.20289C229.564 5.02956 229.543 4.83456 229.629 4.61789C229.673 4.44456 229.803 4.31456 230.019 4.22789L243.409 0.457889C243.583 0.414556 243.778 0.457889 243.994 0.587888C244.168 0.717888 244.254 0.891222 244.254 1.10789V17.6179C244.991 17.0112 245.749 16.4479 246.529 15.9279C247.309 15.3646 248.133 14.8446 248.999 14.3679C250.039 13.7612 251.123 13.3496 252.249 13.1329C253.376 12.9162 254.524 12.8079 255.694 12.8079C258.554 12.8512 260.786 13.6962 262.389 15.3429C263.993 16.9896 264.794 19.2429 264.794 22.1029V40.6279L266.614 45.1779C266.701 45.3946 266.679 45.5896 266.549 45.7629C266.419 45.9796 266.246 46.0879 266.029 46.0879H251.209C250.993 46.0879 250.819 45.9796 250.689 45.7629C250.559 45.5896 250.538 45.3946 250.624 45.1779L252.379 40.5629ZM288.847 46.8679C286.247 46.8679 283.799 46.4996 281.502 45.7629C279.249 44.9829 277.256 43.8779 275.522 42.4479C273.832 40.9746 272.489 39.1762 271.492 37.0529C270.539 34.9296 270.062 32.5029 270.062 29.7729C270.062 27.0429 270.561 24.6379 271.557 22.5579C272.554 20.4346 273.897 18.6579 275.587 17.2279C277.277 15.7546 279.249 14.6496 281.502 13.9129C283.799 13.1762 286.247 12.8079 288.847 12.8079C291.447 12.8079 293.896 13.1762 296.192 13.9129C298.489 14.6496 300.482 15.7546 302.172 17.2279C303.862 18.6579 305.206 20.4346 306.202 22.5579C307.199 24.6812 307.697 27.1079 307.697 29.8379C307.697 32.5679 307.199 34.9946 306.202 37.1179C305.206 39.2412 303.862 41.0396 302.172 42.5129C300.482 43.9429 298.489 45.0262 296.192 45.7629C293.896 46.4996 291.447 46.8679 288.847 46.8679ZM291.122 19.8929C290.516 19.1562 289.736 18.5062 288.782 17.9429C287.872 17.3362 286.919 17.1412 285.922 17.3579C284.926 17.5746 284.146 18.1596 283.582 19.1129C283.019 20.0662 282.629 20.9979 282.412 21.9079C282.022 23.4246 281.871 25.0062 281.957 26.6529C282.044 28.2562 282.261 29.8162 282.607 31.3329C282.954 32.8496 283.474 34.3662 284.167 35.8829C284.861 37.3562 285.706 38.6779 286.702 39.8479C287.309 40.5846 288.067 41.2562 288.977 41.8629C289.931 42.4262 290.906 42.5996 291.902 42.3829C292.899 42.1662 293.679 41.5812 294.242 40.6279C294.806 39.6746 295.196 38.7429 295.412 37.8329C295.802 36.3162 295.954 34.7562 295.867 33.1529C295.781 31.5062 295.564 29.9246 295.217 28.4079C294.871 26.8912 294.351 25.3962 293.657 23.9229C292.964 22.4062 292.119 21.0629 291.122 19.8929ZM332.216 40.5629V23.5329C332.216 23.1429 332.173 22.6662 332.086 22.1029C331.999 21.4962 331.739 21.0846 331.306 20.8679C330.786 20.6512 330.136 20.7379 329.356 21.1279C328.576 21.4746 327.969 21.7779 327.536 22.0379C327.059 22.3412 326.583 22.6662 326.106 23.0129C325.673 23.3596 325.218 23.7279 324.741 24.1179C324.741 26.8479 324.719 29.5779 324.676 32.3079C324.676 35.0379 324.676 37.7679 324.676 40.4979L326.496 45.0479C326.583 45.2646 326.561 45.4596 326.431 45.6329C326.301 45.8496 326.128 45.9579 325.911 45.9579H311.286C311.069 45.9579 310.896 45.8496 310.766 45.6329C310.636 45.4596 310.614 45.2646 310.701 45.0479L312.521 40.4979V21.2579L310.246 18.2679C310.116 18.0512 310.073 17.8562 310.116 17.6829C310.159 17.5096 310.289 17.3796 310.506 17.2929L312.781 16.5779L323.831 13.5879C324.004 13.5446 324.199 13.5879 324.416 13.7179C324.589 13.8479 324.676 14.0212 324.676 14.2379V17.6179C325.283 17.1412 325.868 16.6646 326.431 16.1879C326.994 15.7112 327.579 15.2562 328.186 14.8229C329.313 14.0862 330.483 13.5662 331.696 13.2629C332.953 12.9162 334.231 12.7646 335.531 12.8079C337.481 12.8512 339.193 13.3279 340.666 14.2379C342.139 15.1046 343.201 16.4479 343.851 18.2679C344.544 17.6612 345.238 17.0762 345.931 16.5129C346.624 15.9062 347.339 15.3429 348.076 14.8229C349.203 14.0862 350.394 13.5662 351.651 13.2629C352.908 12.9162 354.186 12.7646 355.486 12.8079C356.439 12.8079 357.371 12.9379 358.281 13.1979C359.191 13.4146 360.036 13.7829 360.816 14.3029C362.159 15.1696 363.113 16.2962 363.676 17.6829C364.239 19.0696 364.521 20.5212 364.521 22.0379V41.2129L366.081 45.1129C366.168 45.3296 366.146 45.5246 366.016 45.6979C365.886 45.9146 365.713 46.0229 365.496 46.0229H350.936C350.719 46.0229 350.546 45.9146 350.416 45.6979C350.286 45.5246 350.264 45.3296 350.351 45.1129L352.171 40.5629V23.5329C352.171 23.1429 352.128 22.6662 352.041 22.1029C351.954 21.4962 351.694 21.0846 351.261 20.8679C350.741 20.6512 350.091 20.7379 349.311 21.1279C348.531 21.4746 347.924 21.7779 347.491 22.0379C346.971 22.3846 346.473 22.7529 345.996 23.1429C345.519 23.4896 345.043 23.8579 344.566 24.2479V41.2779L346.126 45.1779C346.213 45.3946 346.191 45.5896 346.061 45.7629C345.931 45.9796 345.758 46.0879 345.541 46.0879H330.981C330.764 46.0879 330.591 45.9796 330.461 45.7629C330.331 45.5896 330.309 45.3946 330.396 45.1779L332.216 40.5629ZM382.165 33.9979V34.1929C382.858 36.3162 384.158 38.0062 386.065 39.2629C387.971 40.4762 389.986 41.2346 392.11 41.5379C392.803 41.6679 393.561 41.7329 394.385 41.7329C395.641 41.7329 396.876 41.5812 398.09 41.2779C399.346 40.9746 400.538 40.5196 401.665 39.9129C401.968 39.7396 402.228 39.8046 402.445 40.1079C402.661 40.4112 402.661 40.6929 402.445 40.9529C400.581 43.1629 398.306 44.7229 395.62 45.6329C392.976 46.4996 390.246 46.9329 387.43 46.9329C384.83 46.9329 382.381 46.5646 380.085 45.8279C377.831 45.0479 375.838 43.9429 374.105 42.5129C372.415 41.0396 371.071 39.2412 370.075 37.1179C369.121 34.9946 368.645 32.5679 368.645 29.8379C368.645 27.1079 369.121 24.7029 370.075 22.6229C371.071 20.4996 372.415 18.7229 374.105 17.2929C375.795 15.8196 377.766 14.7146 380.02 13.9779C382.273 13.2412 384.7 12.8729 387.3 12.8729C392.153 12.8729 395.88 14.0212 398.48 16.3179C401.123 18.6146 402.596 22.1896 402.9 27.0429C402.9 27.3896 402.748 27.6062 402.445 27.6929L400.17 28.4079L392.955 30.6829L381.97 34.1279L382.165 33.9979ZM391.395 25.8729C391.438 24.8762 391.33 23.8146 391.07 22.6879C390.853 21.9512 390.55 21.2146 390.16 20.4779C389.813 19.7412 389.358 19.1129 388.795 18.5929C388.275 18.0296 387.646 17.6179 386.91 17.3579C386.216 17.0546 385.436 17.0112 384.57 17.2279L384.18 17.4229C383.313 17.7696 382.641 18.3762 382.165 19.2429C381.688 20.0662 381.341 20.8896 381.125 21.7129C380.778 22.9262 380.583 24.1829 380.54 25.4829C380.54 26.7829 380.648 28.0612 380.865 29.3179L391.395 25.8729Z" fill="url(#paint0_linear_10764_93935)"/>
<path d="M459.891 45.2429C459.978 45.4596 459.956 45.6546 459.826 45.8279C459.696 46.0446 459.523 46.1529 459.306 46.1529H446.371C445.895 46.1529 445.656 45.9146 445.656 45.4379V43.4229C444.053 44.6362 442.341 45.5246 440.521 46.0879C438.701 46.6079 436.751 46.8679 434.671 46.8679C433.545 46.8679 432.418 46.7596 431.291 46.5429C430.208 46.3262 429.19 45.9796 428.236 45.5029C427.283 44.9829 426.416 44.3546 425.636 43.6179C424.856 42.8379 424.25 41.9062 423.816 40.8229C422.906 38.6129 422.798 36.4029 423.491 34.1929C424.185 31.9829 425.311 30.0546 426.871 28.4079C428.041 27.1946 429.363 26.1762 430.836 25.3529C432.31 24.4862 433.848 23.7929 435.451 23.2729C437.098 22.7529 438.766 22.3846 440.456 22.1679C442.19 21.9079 443.88 21.7779 445.526 21.7779H445.721C445.678 21.1712 445.548 20.5862 445.331 20.0229C445.158 19.4596 444.811 19.0046 444.291 18.6579C443.208 18.0079 441.995 17.7262 440.651 17.8129C439.351 17.8562 438.03 18.1162 436.686 18.5929C435.343 19.0696 434.043 19.6762 432.786 20.4129C431.573 21.1062 430.511 21.7779 429.601 22.4279C429.385 22.5579 429.19 22.6012 429.016 22.5579C428.8 22.5146 428.67 22.3846 428.626 22.1679L425.766 16.2529C425.68 16.0796 425.68 15.8846 425.766 15.6679C425.81 15.4946 425.94 15.3646 426.156 15.2779C427.76 14.5846 429.645 13.9996 431.811 13.5229C434.021 13.0462 436.318 12.7646 438.701 12.6779C441.085 12.5479 443.425 12.6562 445.721 13.0029C448.061 13.3496 450.141 13.9996 451.961 14.9529C453.825 15.9062 455.32 17.2062 456.446 18.8529C457.616 20.4996 458.201 22.5579 458.201 25.0279V40.6279L459.891 45.2429ZM445.656 27.4979C442.926 27.7579 440.673 28.9062 438.896 30.9429C438.16 31.7662 437.553 32.7196 437.076 33.8029C436.6 34.8862 436.405 35.9912 436.491 37.1179C436.535 37.5946 436.643 38.0279 436.816 38.4179C436.99 38.8079 437.271 39.1329 437.661 39.3929C438.398 39.8696 439.221 40.0212 440.131 39.8479C441.085 39.6746 441.886 39.3712 442.536 38.9379C443.576 38.2446 444.356 37.3779 444.876 36.3379C445.396 35.2546 445.656 34.0846 445.656 32.8279V27.4979ZM463.781 8.90789L461.571 5.26789C461.441 5.09456 461.42 4.89956 461.506 4.68289C461.55 4.50956 461.68 4.37956 461.896 4.29289L464.171 3.57789L475.221 0.587888C475.395 0.544555 475.59 0.587889 475.806 0.71789C475.98 0.847888 476.066 1.02122 476.066 1.23789V13.5229H484.451C484.928 13.5229 485.166 13.7612 485.166 14.2379V22.3629C485.166 22.6229 485.058 22.8179 484.841 22.9479C484.668 23.0779 484.473 23.0996 484.256 23.0129L476.131 19.5029V35.2979C476.131 36.6846 476.37 37.7246 476.846 38.4179C477.366 39.1112 478.016 39.5446 478.796 39.7179C479.576 39.8479 480.421 39.7396 481.331 39.3929C482.285 39.0029 483.195 38.4396 484.061 37.7029C484.278 37.4862 484.516 37.4429 484.776 37.5729C485.036 37.7029 485.166 37.8979 485.166 38.1579V42.9679C485.166 43.1846 485.08 43.3579 484.906 43.4879C483.173 44.8746 481.418 45.8062 479.641 46.2829C477.865 46.7596 475.806 46.9979 473.466 46.9979C470.346 46.9979 467.963 46.2179 466.316 44.6579C464.67 43.0546 463.846 40.6929 463.846 37.5729L463.781 8.90789ZM527.722 35.2979L531.167 14.1079C531.254 13.7179 531.471 13.5229 531.817 13.5229H542.607C542.824 13.5229 542.997 13.6312 543.127 13.8479C543.257 14.0212 543.279 14.2162 543.192 14.4329L526.487 52.6529C525.404 55.1229 523.996 56.8346 522.262 57.7879C520.572 58.7412 518.297 59.1746 515.437 59.0879C515.004 59.0879 514.419 59.0229 513.682 58.8929C512.946 58.7629 512.187 58.5896 511.407 58.3729C510.627 58.1996 509.869 57.9829 509.132 57.7229C508.439 57.5062 507.941 57.2679 507.637 57.0079C507.377 56.8346 507.291 56.5962 507.377 56.2929L509.912 48.4929L510.367 47.1929C510.454 46.9762 510.606 46.8246 510.822 46.7379C511.039 46.6512 511.234 46.6946 511.407 46.8679C511.797 47.2579 512.382 47.8212 513.162 48.5579C513.942 49.2946 514.766 49.9879 515.632 50.6379C516.542 51.2879 517.431 51.7646 518.297 52.0679C519.164 52.3712 519.901 52.2846 520.507 51.8079C521.027 51.4179 521.331 50.9629 521.417 50.4429C521.547 49.9229 521.547 49.4029 521.417 48.8829C521.331 48.3629 521.157 47.8429 520.897 47.3229C520.637 46.8029 520.421 46.3046 520.247 45.8279C519.641 44.4412 518.904 42.8379 518.037 41.0179C517.214 39.1546 516.391 37.3562 515.567 35.6229C514.744 33.8896 513.986 32.3296 513.292 30.9429C512.642 29.5129 512.187 28.5162 511.927 27.9529L505.752 14.5629C505.666 14.3462 505.687 14.1296 505.817 13.9129C505.947 13.6962 506.121 13.5879 506.337 13.5879H519.142C519.272 13.5879 519.402 13.6312 519.532 13.7179C519.662 13.7612 519.727 13.8479 519.727 13.9779L519.597 16.7079L527.722 35.2979ZM562.622 46.8679C560.022 46.8679 557.574 46.4996 555.277 45.7629C553.024 44.9829 551.03 43.8779 549.297 42.4479C547.607 40.9746 546.264 39.1762 545.267 37.0529C544.314 34.9296 543.837 32.5029 543.837 29.7729C543.837 27.0429 544.335 24.6379 545.332 22.5579C546.329 20.4346 547.672 18.6579 549.362 17.2279C551.052 15.7546 553.024 14.6496 555.277 13.9129C557.574 13.1762 560.022 12.8079 562.622 12.8079C565.222 12.8079 567.67 13.1762 569.967 13.9129C572.264 14.6496 574.257 15.7546 575.947 17.2279C577.637 18.6579 578.98 20.4346 579.977 22.5579C580.974 24.6812 581.472 27.1079 581.472 29.8379C581.472 32.5679 580.974 34.9946 579.977 37.1179C578.98 39.2412 577.637 41.0396 575.947 42.5129C574.257 43.9429 572.264 45.0262 569.967 45.7629C567.67 46.4996 565.222 46.8679 562.622 46.8679ZM564.897 19.8929C564.29 19.1562 563.51 18.5062 562.557 17.9429C561.647 17.3362 560.694 17.1412 559.697 17.3579C558.7 17.5746 557.92 18.1596 557.357 19.1129C556.794 20.0662 556.404 20.9979 556.187 21.9079C555.797 23.4246 555.645 25.0062 555.732 26.6529C555.819 28.2562 556.035 29.8162 556.382 31.3329C556.729 32.8496 557.249 34.3662 557.942 35.8829C558.635 37.3562 559.48 38.6779 560.477 39.8479C561.084 40.5846 561.842 41.2562 562.752 41.8629C563.705 42.4262 564.68 42.5996 565.677 42.3829C566.674 42.1662 567.454 41.5812 568.017 40.6279C568.58 39.6746 568.97 38.7429 569.187 37.8329C569.577 36.3162 569.729 34.7562 569.642 33.1529C569.555 31.5062 569.339 29.9246 568.992 28.4079C568.645 26.8912 568.125 25.3962 567.432 23.9229C566.739 22.4062 565.894 21.0629 564.897 19.8929ZM598.903 36.2729C598.903 36.6629 598.946 37.1179 599.033 37.6379C599.163 38.1579 599.423 38.5262 599.813 38.7429C600.073 38.8729 600.398 38.9379 600.788 38.9379C601.178 38.8946 601.568 38.8079 601.958 38.6779C602.348 38.5479 602.716 38.3962 603.063 38.2229C603.453 38.0062 603.778 37.8329 604.038 37.7029C604.558 37.3996 605.078 37.0746 605.598 36.7279C606.161 36.3812 606.681 36.0129 607.158 35.6229V22.1029L604.948 18.4629C604.818 18.2896 604.796 18.0946 604.883 17.8779C604.926 17.7046 605.056 17.5746 605.273 17.4879L607.548 16.7729L618.598 13.7829C618.771 13.7396 618.966 13.7829 619.183 13.9129C619.356 14.0429 619.443 14.2162 619.443 14.4329V40.8229L621.263 45.3729C621.349 45.5896 621.328 45.7846 621.198 45.9579C621.068 46.1746 620.894 46.2829 620.678 46.2829H607.613C607.136 46.2829 606.898 46.0446 606.898 45.5679V42.1229C606.161 42.7296 605.403 43.3146 604.623 43.8779C603.843 44.3979 603.019 44.8962 602.153 45.3729C601.156 45.9362 600.094 46.3262 598.968 46.5429C597.884 46.7596 596.779 46.8679 595.653 46.8679C592.793 46.8679 590.539 46.0446 588.893 44.3979C587.246 42.7079 586.423 40.4112 586.423 37.5079V21.9079L584.213 18.2679C584.083 18.0946 584.061 17.8996 584.148 17.6829C584.191 17.5096 584.321 17.3796 584.538 17.2929L586.813 16.5779L597.863 13.5879C598.036 13.5446 598.231 13.5879 598.448 13.7179C598.621 13.8479 598.708 14.0212 598.708 14.2379V24.4429V34.5179L598.903 36.2729ZM627.743 40.5629V21.9079L625.533 18.2679C625.403 18.0946 625.381 17.8996 625.468 17.6829C625.511 17.5096 625.641 17.3796 625.858 17.2929L628.133 16.5779L639.183 13.5879C639.356 13.5446 639.551 13.5879 639.768 13.7179C639.941 13.8479 640.028 14.0212 640.028 14.2379V16.5779C640.764 15.8846 641.588 15.2779 642.498 14.7579C643.408 14.2379 644.296 13.8046 645.163 13.4579C646.159 13.1112 647.178 12.8946 648.218 12.8079C649.258 12.6779 650.276 12.7646 651.273 13.0679C651.576 13.1546 651.728 13.3712 651.728 13.7179V23.5329C651.728 23.8362 651.598 24.0529 651.338 24.1829C651.078 24.3129 650.839 24.2696 650.623 24.0529C649.799 23.1862 648.824 22.5796 647.698 22.2329C646.571 21.8862 645.423 21.8212 644.253 22.0379C643.473 22.1679 642.649 22.4929 641.783 23.0129C640.916 23.4896 640.374 24.1612 640.158 25.0279C640.114 25.1579 640.093 25.3529 640.093 25.6129V40.6279L641.913 45.1779C641.999 45.3946 641.978 45.5896 641.848 45.7629C641.718 45.9796 641.544 46.0879 641.328 46.0879H626.508C626.291 46.0879 626.118 45.9796 625.988 45.7629C625.858 45.5896 625.836 45.3946 625.923 45.1779L627.743 40.5629ZM178.128 94.8429C178.561 95.7096 179.124 96.5546 179.818 97.3779C180.554 98.1579 181.269 98.8729 181.963 99.5229H190.738C191.214 99.5229 191.453 99.7612 191.453 100.238V108.363C191.453 108.623 191.344 108.818 191.128 108.948C190.954 109.078 190.759 109.1 190.543 109.013L182.418 105.503V126.628L184.238 131.178C184.324 131.395 184.303 131.59 184.173 131.763C184.043 131.98 183.869 132.088 183.653 132.088H168.833C168.616 132.088 168.443 131.98 168.313 131.763C168.183 131.59 168.161 131.395 168.248 131.178L170.068 126.628V96.1429C170.068 94.3229 170.414 92.7846 171.108 91.5279C171.801 90.2279 172.711 89.1879 173.838 88.4079C175.008 87.5846 176.329 87.0212 177.803 86.7179C179.319 86.3712 180.879 86.2196 182.483 86.2629C183.913 86.3496 185.429 86.6096 187.033 87.0429C188.679 87.4329 190.066 88.0829 191.193 88.9929C191.366 89.1229 191.453 89.2962 191.453 89.5129V97.4429C191.453 97.7029 191.323 97.8979 191.063 98.0279C190.803 98.1579 190.564 98.1146 190.348 97.8979C189.178 96.8579 187.878 95.8612 186.448 94.9079C185.018 93.9112 183.544 93.1529 182.028 92.6329C181.811 92.5462 181.508 92.4596 181.118 92.3729C180.728 92.2429 180.316 92.1779 179.883 92.1779C179.493 92.1346 179.103 92.1346 178.713 92.1779C178.366 92.2212 178.106 92.3729 177.933 92.6329C177.716 92.9362 177.673 93.3262 177.803 93.8029C177.933 94.2362 178.063 94.6046 178.193 94.9079L178.128 94.8429ZM211.354 131.113C211.441 131.33 211.419 131.525 211.289 131.698C211.159 131.915 210.986 132.023 210.769 132.023H195.949C195.733 132.023 195.559 131.915 195.429 131.698C195.299 131.525 195.278 131.33 195.364 131.113L197.184 126.563V107.908L194.974 104.268C194.844 104.095 194.823 103.9 194.909 103.683C194.953 103.51 195.083 103.38 195.299 103.293L197.574 102.578L208.624 99.5879C208.798 99.5446 208.993 99.5879 209.209 99.7179C209.383 99.8479 209.469 100.021 209.469 100.238V126.628L211.354 131.113ZM196.404 90.8779C196.404 89.9679 196.578 89.1229 196.924 88.3429C197.271 87.5196 197.748 86.8046 198.354 86.1979C198.961 85.5912 199.654 85.1146 200.434 84.7679C201.258 84.4212 202.124 84.2479 203.034 84.2479H203.099H203.164C204.074 84.2479 204.919 84.4212 205.699 84.7679C206.523 85.1146 207.238 85.5912 207.844 86.1979C208.451 86.8046 208.928 87.5196 209.274 88.3429C209.621 89.1229 209.794 89.9679 209.794 90.8779C209.794 91.7879 209.621 92.6546 209.274 93.4779C208.928 94.2579 208.451 94.9512 207.844 95.5579C207.281 96.1646 206.588 96.6412 205.764 96.9879C204.984 97.3346 204.139 97.5079 203.229 97.5079H203.164H203.099C202.189 97.5079 201.323 97.3346 200.499 96.9879C199.719 96.6412 199.026 96.1646 198.419 95.5579C197.813 94.9512 197.336 94.2579 196.989 93.4779C196.643 92.6546 196.469 91.7879 196.469 90.8779H196.404ZM237.526 126.498V109.468C237.526 109.078 237.461 108.623 237.331 108.103C237.244 107.583 237.006 107.215 236.616 106.998C236.356 106.868 236.031 106.825 235.641 106.868C235.251 106.868 234.861 106.933 234.471 107.063C234.081 107.193 233.691 107.366 233.301 107.583C232.954 107.756 232.651 107.908 232.391 108.038C231.308 108.645 230.311 109.338 229.401 110.118V126.563L231.221 131.113C231.308 131.33 231.286 131.525 231.156 131.698C231.026 131.915 230.853 132.023 230.636 132.023H215.816C215.599 132.023 215.426 131.915 215.296 131.698C215.166 131.525 215.144 131.33 215.231 131.113L216.921 126.888V107.713L214.841 104.268C214.711 104.095 214.689 103.9 214.776 103.683C214.819 103.51 214.949 103.38 215.166 103.293L228.556 99.5229C228.729 99.4796 228.924 99.5229 229.141 99.6529C229.314 99.7829 229.401 99.9562 229.401 100.173V103.618C230.138 103.011 230.896 102.448 231.676 101.928C232.456 101.365 233.279 100.845 234.146 100.368C235.186 99.7612 236.269 99.3496 237.396 99.1329C238.523 98.9162 239.671 98.8079 240.841 98.8079C243.701 98.8512 245.933 99.6962 247.536 101.343C249.139 102.99 249.941 105.243 249.941 108.103V126.628L251.761 131.178C251.848 131.395 251.826 131.59 251.696 131.763C251.566 131.98 251.393 132.088 251.176 132.088H236.356C236.139 132.088 235.966 131.98 235.836 131.763C235.706 131.59 235.684 131.395 235.771 131.178L237.526 126.498ZM288.359 145.413C288.229 145.413 288.099 145.348 287.969 145.218V145.088V144.893C287.969 144.72 287.991 144.59 288.034 144.503C288.424 143.94 288.597 143.398 288.554 142.878C288.554 142.401 288.381 141.99 288.034 141.643C287.731 141.34 287.254 141.145 286.604 141.058C285.954 140.971 285.217 141.058 284.394 141.318C283.397 141.621 282.141 141.968 280.624 142.358C279.107 142.791 277.526 143.181 275.879 143.528C274.276 143.918 272.716 144.243 271.199 144.503C269.682 144.763 268.404 144.893 267.364 144.893C266.151 144.893 264.959 144.785 263.789 144.568C262.619 144.395 261.514 144.07 260.474 143.593C259.477 143.16 258.546 142.553 257.679 141.773C256.856 140.993 256.184 140.04 255.664 138.913C255.014 137.526 254.732 136.075 254.819 134.558C254.949 133.041 255.339 131.611 255.989 130.268C256.639 128.881 257.462 127.668 258.459 126.628C259.499 125.545 260.582 124.765 261.709 124.288C259.846 122.988 258.416 121.45 257.419 119.673C256.422 117.896 255.837 116.076 255.664 114.213C255.534 112.306 255.837 110.443 256.574 108.623C257.311 106.76 258.459 105.113 260.019 103.683C261.579 102.21 263.551 101.018 265.934 100.108C268.361 99.1979 271.199 98.7429 274.449 98.7429C276.052 98.7429 277.634 98.8729 279.194 99.1329C280.797 99.3929 282.336 99.8262 283.809 100.433C284.459 98.9162 285.282 97.5079 286.279 96.2079C287.319 94.9079 288.576 93.8246 290.049 92.9579C290.222 92.8712 290.396 92.8496 290.569 92.8929C290.786 92.9362 290.937 93.0446 291.024 93.2179L294.729 101.213C294.816 101.43 294.794 101.625 294.664 101.798C294.577 101.971 294.426 102.08 294.209 102.123C293.342 102.21 292.454 102.383 291.544 102.643C290.634 102.86 289.789 103.185 289.009 103.618C290.222 104.745 291.197 106.023 291.934 107.453C292.671 108.84 293.126 110.291 293.299 111.808C293.472 113.325 293.364 114.863 292.974 116.423C292.627 117.94 291.977 119.37 291.024 120.713C289.681 122.62 288.034 124.093 286.084 125.133C284.134 126.173 282.054 126.931 279.844 127.408C278.804 127.625 277.786 127.755 276.789 127.798C275.792 127.841 274.796 127.885 273.799 127.928C272.802 127.928 271.784 127.971 270.744 128.058C269.747 128.101 268.729 128.253 267.689 128.513C266.692 128.73 265.977 129.185 265.544 129.878C265.154 130.528 265.002 131.2 265.089 131.893C265.219 132.586 265.609 133.15 266.259 133.583C266.909 134.016 267.797 134.125 268.924 133.908C269.877 133.735 270.982 133.475 272.239 133.128C273.539 132.825 274.882 132.5 276.269 132.153C277.656 131.806 279.042 131.46 280.429 131.113C281.816 130.766 283.094 130.485 284.264 130.268C286.734 129.791 288.836 129.965 290.569 130.788C292.302 131.568 293.602 132.716 294.469 134.233C295.379 135.75 295.834 137.461 295.834 139.368C295.877 141.318 295.422 143.203 294.469 145.023C294.339 145.283 294.166 145.413 293.949 145.413C293.776 145.456 293.494 145.478 293.104 145.478H288.944L288.359 145.413ZM280.104 112.198C279.757 111.028 279.281 109.901 278.674 108.818C278.067 107.691 277.331 106.695 276.464 105.828C275.814 105.221 275.056 104.701 274.189 104.268C273.366 103.835 272.499 103.683 271.589 103.813C270.592 103.986 269.791 104.463 269.184 105.243C268.621 106.023 268.231 106.89 268.014 107.843C267.754 108.84 267.646 109.858 267.689 110.898C267.776 111.895 267.949 112.891 268.209 113.888C268.556 115.058 269.032 116.206 269.639 117.333C270.246 118.416 270.982 119.391 271.849 120.258C272.672 121.081 273.517 121.666 274.384 122.013C275.294 122.316 276.139 122.403 276.919 122.273C277.699 122.1 278.392 121.688 278.999 121.038C279.606 120.388 280.061 119.478 280.364 118.308C280.624 117.311 280.711 116.315 280.624 115.318C280.581 114.278 280.429 113.26 280.169 112.263L280.104 112.198ZM312.023 119.998V120.193C312.716 122.316 314.016 124.006 315.923 125.263C317.83 126.476 319.845 127.235 321.968 127.538C322.661 127.668 323.42 127.733 324.243 127.733C325.5 127.733 326.735 127.581 327.948 127.278C329.205 126.975 330.396 126.52 331.523 125.913C331.826 125.74 332.086 125.805 332.303 126.108C332.52 126.411 332.52 126.693 332.303 126.953C330.44 129.163 328.165 130.723 325.478 131.633C322.835 132.5 320.105 132.933 317.288 132.933C314.688 132.933 312.24 132.565 309.943 131.828C307.69 131.048 305.696 129.943 303.963 128.513C302.273 127.04 300.93 125.241 299.933 123.118C298.98 120.995 298.503 118.568 298.503 115.838C298.503 113.108 298.98 110.703 299.933 108.623C300.93 106.5 302.273 104.723 303.963 103.293C305.653 101.82 307.625 100.715 309.878 99.9779C312.131 99.2412 314.558 98.8729 317.158 98.8729C322.011 98.8729 325.738 100.021 328.338 102.318C330.981 104.615 332.455 108.19 332.758 113.043C332.758 113.39 332.606 113.606 332.303 113.693L330.028 114.408L322.813 116.683L311.828 120.128L312.023 119.998ZM321.253 111.873C321.296 110.876 321.188 109.815 320.928 108.688C320.711 107.951 320.408 107.215 320.018 106.478C319.671 105.741 319.216 105.113 318.653 104.593C318.133 104.03 317.505 103.618 316.768 103.358C316.075 103.055 315.295 103.011 314.428 103.228L314.038 103.423C313.171 103.77 312.5 104.376 312.023 105.243C311.546 106.066 311.2 106.89 310.983 107.713C310.636 108.926 310.441 110.183 310.398 111.483C310.398 112.783 310.506 114.061 310.723 115.318L321.253 111.873ZM337.337 126.563V107.908L335.127 104.268C334.997 104.095 334.976 103.9 335.062 103.683C335.106 103.51 335.236 103.38 335.452 103.293L337.727 102.578L348.777 99.5879C348.951 99.5446 349.146 99.5879 349.362 99.7179C349.536 99.8479 349.622 100.021 349.622 100.238V102.578C350.359 101.885 351.182 101.278 352.092 100.758C353.002 100.238 353.891 99.8046 354.757 99.4579C355.754 99.1112 356.772 98.8946 357.812 98.8079C358.852 98.6779 359.871 98.7646 360.867 99.0679C361.171 99.1546 361.322 99.3712 361.322 99.7179V109.533C361.322 109.836 361.192 110.053 360.932 110.183C360.672 110.313 360.434 110.27 360.217 110.053C359.394 109.186 358.419 108.58 357.292 108.233C356.166 107.886 355.017 107.821 353.847 108.038C353.067 108.168 352.244 108.493 351.377 109.013C350.511 109.49 349.969 110.161 349.752 111.028C349.709 111.158 349.687 111.353 349.687 111.613V126.628L351.507 131.178C351.594 131.395 351.572 131.59 351.442 131.763C351.312 131.98 351.139 132.088 350.922 132.088H336.102C335.886 132.088 335.712 131.98 335.582 131.763C335.452 131.59 335.431 131.395 335.517 131.178L337.337 126.563ZM366.027 94.9079L363.817 91.2679C363.687 91.0946 363.666 90.8996 363.752 90.6829C363.796 90.5096 363.926 90.3796 364.142 90.2929L366.417 89.5779L377.467 86.5879C377.641 86.5446 377.836 86.5879 378.052 86.7179C378.226 86.8479 378.312 87.0212 378.312 87.2379V99.5229H386.697C387.174 99.5229 387.412 99.7612 387.412 100.238V108.363C387.412 108.623 387.304 108.818 387.087 108.948C386.914 109.078 386.719 109.1 386.502 109.013L378.377 105.503V121.298C378.377 122.685 378.616 123.725 379.092 124.418C379.612 125.111 380.262 125.545 381.042 125.718C381.822 125.848 382.667 125.74 383.577 125.393C384.531 125.003 385.441 124.44 386.307 123.703C386.524 123.486 386.762 123.443 387.022 123.573C387.282 123.703 387.412 123.898 387.412 124.158V128.968C387.412 129.185 387.326 129.358 387.152 129.488C385.419 130.875 383.664 131.806 381.887 132.283C380.111 132.76 378.052 132.998 375.712 132.998C372.592 132.998 370.209 132.218 368.562 130.658C366.916 129.055 366.092 126.693 366.092 123.573L366.027 94.9079ZM408.259 131.113C408.345 131.33 408.324 131.525 408.194 131.698C408.064 131.915 407.89 132.023 407.674 132.023H392.854C392.637 132.023 392.464 131.915 392.334 131.698C392.204 131.525 392.182 131.33 392.269 131.113L394.089 126.563V107.908L391.879 104.268C391.749 104.095 391.727 103.9 391.814 103.683C391.857 103.51 391.987 103.38 392.204 103.293L394.479 102.578L405.529 99.5879C405.702 99.5446 405.897 99.5879 406.114 99.7179C406.287 99.8479 406.374 100.021 406.374 100.238V126.628L408.259 131.113ZM393.309 90.8779C393.309 89.9679 393.482 89.1229 393.829 88.3429C394.175 87.5196 394.652 86.8046 395.259 86.1979C395.865 85.5912 396.559 85.1146 397.339 84.7679C398.162 84.4212 399.029 84.2479 399.939 84.2479H400.004H400.069C400.979 84.2479 401.824 84.4212 402.604 84.7679C403.427 85.1146 404.142 85.5912 404.749 86.1979C405.355 86.8046 405.832 87.5196 406.179 88.3429C406.525 89.1229 406.699 89.9679 406.699 90.8779C406.699 91.7879 406.525 92.6546 406.179 93.4779C405.832 94.2579 405.355 94.9512 404.749 95.5579C404.185 96.1646 403.492 96.6412 402.669 96.9879C401.889 97.3346 401.044 97.5079 400.134 97.5079H400.069H400.004C399.094 97.5079 398.227 97.3346 397.404 96.9879C396.624 96.6412 395.93 96.1646 395.324 95.5579C394.717 94.9512 394.24 94.2579 393.894 93.4779C393.547 92.6546 393.374 91.7879 393.374 90.8779H393.309ZM426.305 136.508L428.515 140.148C428.645 140.321 428.667 140.516 428.58 140.733C428.493 140.95 428.363 141.08 428.19 141.123L425.915 141.838L414.865 144.828C414.692 144.871 414.497 144.828 414.28 144.698C414.107 144.568 414.02 144.395 414.02 144.178V107.843L411.81 104.203C411.68 104.03 411.658 103.835 411.745 103.618C411.788 103.445 411.918 103.315 412.135 103.228L414.41 102.513L424.745 99.7179L425.135 99.5229C425.178 99.4796 425.243 99.4579 425.33 99.4579H425.59C426.067 99.4579 426.305 99.6962 426.305 100.173V102.773C427.172 101.95 428.103 101.235 429.1 100.628C430.097 100.021 431.18 99.5662 432.35 99.2629C434.777 98.6129 437.247 98.6346 439.76 99.3279C441.58 99.8479 443.248 100.671 444.765 101.798C446.325 102.881 447.647 104.181 448.73 105.698C449.857 107.171 450.723 108.818 451.33 110.638C451.98 112.458 452.305 114.3 452.305 116.163C452.305 118.156 452.002 120.085 451.395 121.948C450.832 123.768 449.922 125.436 448.665 126.953C447.538 128.34 446.238 129.51 444.765 130.463C443.292 131.373 441.688 132.045 439.955 132.478C438.438 132.825 436.943 132.955 435.47 132.868C433.693 132.781 432.047 132.478 430.53 131.958C429.013 131.395 427.605 130.55 426.305 129.423V136.508ZM427.085 110.963C426.738 112.176 426.565 113.433 426.565 114.733C426.608 116.033 426.782 117.29 427.085 118.503C427.432 119.846 427.908 121.168 428.515 122.468C429.165 123.768 430.032 124.851 431.115 125.718C431.852 126.325 432.653 126.78 433.52 127.083C434.43 127.343 435.34 127.343 436.25 127.083C437.073 126.866 437.745 126.455 438.265 125.848C438.828 125.198 439.262 124.483 439.565 123.703C440.042 122.446 440.237 121.081 440.15 119.608C440.063 118.135 439.868 116.748 439.565 115.448C439.262 114.235 438.85 113.043 438.33 111.873C437.81 110.703 437.117 109.663 436.25 108.753C435.643 108.103 434.95 107.54 434.17 107.063C433.39 106.543 432.545 106.305 431.635 106.348C431.462 106.348 431.202 106.391 430.855 106.478C430.508 106.565 430.248 106.651 430.075 106.738C429.208 107.085 428.515 107.648 427.995 108.428C427.518 109.208 427.15 110.031 426.89 110.898L427.085 110.963ZM483.009 102.448C483.052 102.665 483.009 102.838 482.879 102.968L478.199 109.598C478.069 109.771 477.896 109.858 477.679 109.858C477.462 109.858 477.289 109.793 477.159 109.663C476.639 109.143 476.011 108.558 475.274 107.908C474.581 107.215 473.822 106.565 472.999 105.958C472.219 105.308 471.417 104.766 470.594 104.333C469.771 103.9 468.969 103.683 468.189 103.683C467.409 103.683 466.846 103.835 466.499 104.138C466.152 104.398 465.979 104.745 465.979 105.178C465.979 105.611 466.131 106.066 466.434 106.543C466.737 106.976 467.149 107.366 467.669 107.713C468.232 108.06 468.817 108.385 469.424 108.688C470.074 108.991 470.702 109.273 471.309 109.533C472.046 109.88 472.782 110.226 473.519 110.573C474.256 110.876 474.992 111.201 475.729 111.548C476.769 112.068 477.766 112.653 478.719 113.303C479.716 113.91 480.604 114.625 481.384 115.448C482.164 116.271 482.771 117.181 483.204 118.178C483.681 119.175 483.919 120.323 483.919 121.623C483.919 123.79 483.442 125.61 482.489 127.083C481.536 128.513 480.301 129.661 478.784 130.528C477.267 131.395 475.556 132.001 473.649 132.348C471.786 132.738 469.944 132.933 468.124 132.933C465.697 132.933 463.314 132.586 460.974 131.893C458.677 131.156 456.489 130.16 454.409 128.903C454.236 128.73 454.127 128.578 454.084 128.448C453.997 128.275 454.041 128.101 454.214 127.928L459.349 120.713C459.479 120.54 459.652 120.453 459.869 120.453C460.086 120.453 460.259 120.518 460.389 120.648C461.559 121.818 462.772 123.01 464.029 124.223C465.329 125.393 466.716 126.368 468.189 127.148C468.882 127.538 469.706 127.798 470.659 127.928C471.006 127.971 471.417 127.993 471.894 127.993C472.371 127.993 472.804 127.95 473.194 127.863C473.627 127.733 473.996 127.538 474.299 127.278C474.602 126.975 474.754 126.563 474.754 126.043C474.754 125.74 474.646 125.436 474.429 125.133C474.212 124.83 473.952 124.548 473.649 124.288C473.346 124.028 473.021 123.811 472.674 123.638C472.371 123.421 472.111 123.248 471.894 123.118C471.374 122.815 470.832 122.533 470.269 122.273C469.749 122.013 469.207 121.753 468.644 121.493L464.939 119.738C464.376 119.435 463.812 119.153 463.249 118.893C462.729 118.59 462.209 118.265 461.689 117.918C460.909 117.441 460.151 116.9 459.414 116.293C458.677 115.686 458.027 115.015 457.464 114.278C456.771 113.325 456.337 112.35 456.164 111.353C455.947 110.183 455.969 109.013 456.229 107.843C456.532 106.63 456.987 105.525 457.594 104.528C458.331 103.315 459.241 102.296 460.324 101.473C461.754 100.39 463.357 99.6746 465.134 99.3279C466.954 98.9812 468.731 98.8079 470.464 98.8079C472.717 98.8079 474.776 99.0462 476.639 99.5229C478.502 99.9562 480.431 100.715 482.424 101.798C482.597 101.885 482.727 102.015 482.814 102.188L483.009 102.448Z" fill="black"/>
<defs>
<linearGradient id="paint0_linear_10764_93935" x1="3.19194" y1="2.65953" x2="366.311" y2="119.401" gradientUnits="userSpaceOnUse">
<stop stop-color="#23A323"/>
<stop offset="1" stop-color="#FFBD00"/>
</linearGradient>
</defs>
</svg>
