<svg width="268" height="81" viewBox="0 0 268 81" fill="none" xmlns="http://www.w3.org/2000/svg">
<g clip-path="url(#clip0_5121_54618)">
<g filter="url(#filter0_d_5121_54618)">
<rect x="15.9482" y="31.939" width="251.651" height="48.9097" rx="24.4548" fill="#23A323"/>
<path d="M55.7816 57.8041H57.116C57.145 58.1812 57.2707 58.5245 57.4931 58.8339C57.7252 59.1337 58.0346 59.3706 58.4214 59.5446C58.8178 59.7187 59.2771 59.8057 59.7993 59.8057C60.2538 59.8057 60.6309 59.7429 60.9306 59.6172C61.2304 59.4915 61.4528 59.3222 61.5978 59.1095C61.7526 58.8871 61.8299 58.626 61.8299 58.3263C61.8299 58.0265 61.7477 57.7896 61.5833 57.6156C61.419 57.4318 61.1724 57.282 60.8436 57.1659C60.5148 57.0402 60.1087 56.9194 59.6252 56.8033C59.1998 56.697 58.7792 56.5712 58.3634 56.4262C57.9572 56.2715 57.5801 56.0829 57.232 55.8605C56.8936 55.6381 56.618 55.3722 56.4053 55.0628C56.2022 54.7437 56.1007 54.3617 56.1007 53.9169C56.1007 53.4431 56.2312 53.0128 56.4923 52.6261C56.7534 52.2296 57.1353 51.9153 57.6381 51.6833C58.1506 51.4415 58.7695 51.3207 59.4947 51.3207C60.6164 51.3207 61.4625 51.6011 62.033 52.1619C62.6131 52.7227 62.8936 53.4721 62.8742 54.4101H61.5688C61.5398 53.7526 61.3319 53.2836 60.9451 53.0032C60.5584 52.7131 60.0555 52.568 59.4367 52.568C58.9049 52.568 58.4504 52.6792 58.0733 52.9016C57.6962 53.1144 57.5076 53.4528 57.5076 53.9169C57.5076 54.12 57.5511 54.2989 57.6381 54.4536C57.7252 54.5986 57.8702 54.734 58.0733 54.8597C58.2763 54.9854 58.5471 55.1063 58.8855 55.2223C59.2336 55.3384 59.6639 55.4641 60.1764 55.5995C60.5632 55.6865 60.9355 55.7977 61.2932 55.9331C61.6607 56.0684 61.9895 56.2376 62.2795 56.4407C62.5696 56.6438 62.7969 56.9048 62.9613 57.2239C63.1353 57.543 63.2223 57.9347 63.2223 58.3988C63.2223 58.8919 63.1015 59.3416 62.8597 59.7477C62.618 60.1442 62.2409 60.4633 61.7284 60.705C61.2256 60.9371 60.5729 61.0531 59.7703 61.0531C59.1321 61.0531 58.5761 60.9709 58.1023 60.8065C57.6381 60.6421 57.2465 60.4294 56.9274 60.1683C56.618 59.9073 56.3714 59.6268 56.1877 59.3271C56.0136 59.0273 55.8928 58.7421 55.8251 58.4713C55.7671 58.2006 55.7526 57.9782 55.7816 57.8041ZM67.7026 61.0386C67.0838 61.0386 66.5181 60.8791 66.0056 60.56C65.4931 60.2409 65.087 59.8009 64.7872 59.2401C64.4875 58.6695 64.3376 58.0169 64.3376 57.282C64.3376 56.5471 64.4875 55.8992 64.7872 55.3384C65.0966 54.7679 65.5173 54.3231 66.0491 54.004C66.5809 53.6752 67.1756 53.5108 67.8331 53.5108C68.5584 53.5108 69.1192 53.68 69.5157 54.0185C69.9218 54.3569 70.2022 54.8114 70.3569 55.3819C70.5213 55.9524 70.6035 56.5857 70.6035 57.282C70.6035 57.6687 70.5551 58.0797 70.4584 58.5148C70.3617 58.95 70.207 59.3609 69.9943 59.7477C69.7816 60.1345 69.4866 60.4488 69.1095 60.6905C68.7324 60.9226 68.2634 61.0386 67.7026 61.0386ZM68.0942 59.8347C68.6067 59.8347 69.037 59.7235 69.3851 59.5011C69.7429 59.2691 70.0088 58.9596 70.1829 58.5729C70.3569 58.1861 70.4439 57.7558 70.4439 57.282C70.4439 56.7695 70.3521 56.3198 70.1684 55.9331C69.9943 55.5463 69.7284 55.2465 69.3706 55.0338C69.0225 54.821 68.597 54.7147 68.0942 54.7147C67.34 54.7147 66.755 54.9564 66.3392 55.4399C65.9331 55.9234 65.73 56.5374 65.73 57.282C65.73 57.7848 65.8315 58.2296 66.0346 58.6164C66.2377 58.9935 66.5132 59.2932 66.8613 59.5156C67.2191 59.7284 67.6301 59.8347 68.0942 59.8347ZM70.4439 53.6559H71.8364V60.8936H70.56C70.56 60.8936 70.5503 60.8065 70.531 60.6325C70.5116 60.4488 70.4923 60.2312 70.4729 59.9798C70.4536 59.7284 70.4439 59.506 70.4439 59.3126V53.6559ZM76.8144 59.8202H76.3648L78.7145 53.6559H80.223L77.2496 60.8936H75.9442L72.9998 53.6559H74.5227L76.8144 59.8202ZM86.7438 58.5438H88.0637C87.9864 59.0177 87.8026 59.4431 87.5125 59.8202C87.2225 60.1973 86.8405 60.4971 86.3667 60.7195C85.8929 60.9419 85.3369 61.0531 84.6987 61.0531C83.9445 61.0531 83.2724 60.8936 82.6826 60.5745C82.0927 60.2554 81.6286 59.8154 81.2902 59.2546C80.9517 58.6937 80.7825 58.041 80.7825 57.2965C80.7825 56.5422 80.9469 55.8847 81.2757 55.3239C81.6044 54.7534 82.0589 54.3086 82.6391 53.9895C83.2192 53.6704 83.8816 53.5108 84.6262 53.5108C85.4094 53.5108 86.0669 53.6655 86.5988 53.975C87.1306 54.2844 87.5222 54.7437 87.7736 55.3529C88.0347 55.9524 88.1411 56.7018 88.0927 57.6011H82.1604C82.2088 58.0362 82.3393 58.423 82.552 58.7614C82.7744 59.0998 83.0645 59.3658 83.4223 59.5592C83.7898 59.7525 84.2104 59.8492 84.6842 59.8492C85.216 59.8492 85.6608 59.7284 86.0186 59.4866C86.3764 59.2449 86.6181 58.9306 86.7438 58.5438ZM84.6407 54.7002C84.0122 54.7002 83.49 54.8694 83.0742 55.2078C82.6584 55.5366 82.3828 55.9766 82.2475 56.5277H86.7003C86.6616 55.9379 86.4489 55.4883 86.0621 55.1788C85.6753 54.8597 85.2015 54.7002 84.6407 54.7002ZM95.734 61.0386C95.1152 61.0386 94.5495 60.8791 94.037 60.56C93.5245 60.2409 93.1184 59.8009 92.8187 59.2401C92.5189 58.6695 92.369 58.0169 92.369 57.282C92.369 56.5471 92.5189 55.8992 92.8187 55.3384C93.1281 54.7679 93.5487 54.3231 94.0805 54.004C94.6124 53.6752 95.207 53.5108 95.8646 53.5108C96.5898 53.5108 97.1506 53.68 97.5471 54.0185C97.9532 54.3569 98.2336 54.8114 98.3883 55.3819C98.5527 55.9524 98.6349 56.5857 98.6349 57.282C98.6349 57.6687 98.5866 58.0797 98.4899 58.5148C98.3932 58.95 98.2385 59.3609 98.0257 59.7477C97.813 60.1345 97.5181 60.4488 97.141 60.6905C96.7639 60.9226 96.2949 61.0386 95.734 61.0386ZM96.1257 59.8347C96.6381 59.8347 97.0684 59.7235 97.4166 59.5011C97.7743 59.2691 98.0402 58.9596 98.2143 58.5729C98.3883 58.1861 98.4754 57.7558 98.4754 57.282C98.4754 56.7695 98.3835 56.3198 98.1998 55.9331C98.0257 55.5463 97.7598 55.2465 97.402 55.0338C97.0539 54.821 96.6285 54.7147 96.1257 54.7147C95.3714 54.7147 94.7864 54.9564 94.3706 55.4399C93.9645 55.9234 93.7614 56.5374 93.7614 57.282C93.7614 57.7848 93.863 58.2296 94.066 58.6164C94.2691 58.9935 94.5447 59.2932 94.8928 59.5156C95.2506 59.7284 95.6615 59.8347 96.1257 59.8347ZM98.4754 53.6559H99.8678V60.8936H98.5914C98.5914 60.8936 98.5817 60.8065 98.5624 60.6325C98.5431 60.4488 98.5237 60.2312 98.5044 59.9798C98.485 59.7284 98.4754 59.506 98.4754 59.3126V53.6559ZM101.684 53.6559H103.076V60.8936H101.684V53.6559ZM105.832 53.5108C106.238 53.5108 106.606 53.5688 106.934 53.6849C107.263 53.8009 107.544 53.975 107.776 54.207C108.008 54.4294 108.187 54.7098 108.312 55.0483C108.448 55.3771 108.515 55.7542 108.515 56.1796V60.8936H107.138V56.4842C107.138 55.9137 106.997 55.4883 106.717 55.2078C106.446 54.9177 106.03 54.7727 105.47 54.7727C105.034 54.7727 104.638 54.8742 104.28 55.0773C103.922 55.2804 103.627 55.5511 103.395 55.8895C103.173 56.2183 103.038 56.5906 102.989 57.0064L102.975 56.2086C103.023 55.8219 103.125 55.4641 103.279 55.1353C103.444 54.8065 103.647 54.5213 103.889 54.2796C104.14 54.0281 104.43 53.8396 104.759 53.7139C105.088 53.5785 105.445 53.5108 105.832 53.5108ZM113.326 61.0386C112.698 61.0386 112.127 60.8791 111.615 60.56C111.102 60.2409 110.696 59.8009 110.396 59.2401C110.106 58.6695 109.961 58.0169 109.961 57.282C109.961 56.5471 110.106 55.8992 110.396 55.3384C110.686 54.7679 111.083 54.3231 111.586 54.004C112.089 53.6752 112.669 53.5108 113.326 53.5108C113.897 53.5108 114.371 53.6075 114.748 53.8009C115.125 53.9943 115.42 54.265 115.632 54.6132C115.845 54.9613 115.995 55.3625 116.082 55.817C116.179 56.2715 116.227 56.7598 116.227 57.282C116.227 57.6687 116.179 58.0797 116.082 58.5148C115.985 58.95 115.831 59.3609 115.618 59.7477C115.405 60.1345 115.11 60.4488 114.733 60.6905C114.356 60.9226 113.887 61.0386 113.326 61.0386ZM113.718 59.8347C114.23 59.8347 114.661 59.7235 115.009 59.5011C115.367 59.2691 115.632 58.9596 115.807 58.5729C115.981 58.1861 116.068 57.7558 116.068 57.282C116.068 56.7695 115.976 56.3198 115.792 55.9331C115.618 55.5463 115.352 55.2465 114.994 55.0338C114.646 54.821 114.221 54.7147 113.718 54.7147C112.964 54.7147 112.379 54.9564 111.963 55.4399C111.557 55.9234 111.354 56.5374 111.354 57.282C111.354 57.7848 111.455 58.2296 111.658 58.6164C111.861 58.9935 112.137 59.2932 112.485 59.5156C112.843 59.7284 113.254 59.8347 113.718 59.8347ZM116.068 50.755H117.46V60.8936H116.184C116.155 60.6808 116.126 60.4197 116.097 60.1103C116.077 59.8009 116.068 59.535 116.068 59.3126V50.755ZM124.343 56.8178V59.6462H130.405V60.8936H122.95V51.4802H130.391V52.7276H124.343V55.5995H129.289V56.8178H124.343ZM135.026 61.0386C134.407 61.0386 133.842 60.8791 133.329 60.56C132.817 60.2409 132.411 59.8009 132.111 59.2401C131.811 58.6695 131.661 58.0169 131.661 57.282C131.661 56.5471 131.811 55.8992 132.111 55.3384C132.42 54.7679 132.841 54.3231 133.373 54.004C133.905 53.6752 134.499 53.5108 135.157 53.5108C135.882 53.5108 136.443 53.68 136.839 54.0185C137.245 54.3569 137.526 54.8114 137.681 55.3819C137.845 55.9524 137.927 56.5857 137.927 57.282C137.927 57.6687 137.879 58.0797 137.782 58.5148C137.685 58.95 137.531 59.3609 137.318 59.7477C137.105 60.1345 136.81 60.4488 136.433 60.6905C136.056 60.9226 135.587 61.0386 135.026 61.0386ZM135.418 59.8347C135.93 59.8347 136.361 59.7235 136.709 59.5011C137.067 59.2691 137.332 58.9596 137.506 58.5729C137.681 58.1861 137.768 57.7558 137.768 57.282C137.768 56.7695 137.676 56.3198 137.492 55.9331C137.318 55.5463 137.052 55.2465 136.694 55.0338C136.346 54.821 135.921 54.7147 135.418 54.7147C134.664 54.7147 134.079 54.9564 133.663 55.4399C133.257 55.9234 133.054 56.5374 133.054 57.282C133.054 57.7848 133.155 58.2296 133.358 58.6164C133.561 58.9935 133.837 59.2932 134.185 59.5156C134.543 59.7284 134.954 59.8347 135.418 59.8347ZM137.768 53.6559H139.16V60.8936H137.884C137.884 60.8936 137.874 60.8065 137.855 60.6325C137.835 60.4488 137.816 60.2312 137.797 59.9798C137.777 59.7284 137.768 59.506 137.768 59.3126V53.6559ZM140.976 53.6559H142.369V60.8936H140.976V53.6559ZM144.82 54.8887C144.317 54.8887 143.887 55.0048 143.529 55.2368C143.181 55.4689 142.9 55.7542 142.688 56.0926C142.485 56.431 142.349 56.755 142.281 57.0644L142.267 56.2376C142.277 56.1409 142.301 55.9911 142.339 55.788C142.388 55.5753 142.47 55.3384 142.586 55.0773C142.702 54.8162 142.857 54.5696 143.05 54.3376C143.244 54.0958 143.485 53.8976 143.775 53.7429C144.066 53.5882 144.414 53.5108 144.82 53.5108V54.8887ZM146.075 53.6559H147.468V60.8936H146.075V53.6559ZM150.224 53.5108C150.63 53.5108 150.997 53.5688 151.326 53.6849C151.655 53.8009 151.935 53.975 152.167 54.207C152.399 54.4294 152.578 54.7098 152.704 55.0483C152.839 55.3771 152.907 55.7542 152.907 56.1796V60.8936H151.529V56.4842C151.529 55.9137 151.389 55.4883 151.108 55.2078C150.838 54.9177 150.422 54.7727 149.861 54.7727C149.426 54.7727 149.029 54.8742 148.672 55.0773C148.314 55.2804 148.019 55.5511 147.787 55.8895C147.564 56.2183 147.429 56.5906 147.381 57.0064L147.366 56.2086C147.415 55.8219 147.516 55.4641 147.671 55.1353C147.835 54.8065 148.038 54.5213 148.28 54.2796C148.531 54.0281 148.821 53.8396 149.15 53.7139C149.479 53.5785 149.837 53.5108 150.224 53.5108ZM161.412 61.0531C160.706 61.0531 160.059 60.9032 159.469 60.6035C158.879 60.3037 158.41 59.8734 158.062 59.3126C157.714 58.7517 157.54 58.0797 157.54 57.2965C157.54 56.5036 157.714 55.8267 158.062 55.2659C158.41 54.6953 158.879 54.2602 159.469 53.9605C160.059 53.6607 160.706 53.5108 161.412 53.5108C162.118 53.5108 162.761 53.6607 163.341 53.9605C163.922 54.2602 164.386 54.6953 164.734 55.2659C165.082 55.8267 165.256 56.5036 165.256 57.2965C165.256 58.0797 165.082 58.7517 164.734 59.3126C164.386 59.8734 163.922 60.3037 163.341 60.6035C162.761 60.9032 162.118 61.0531 161.412 61.0531ZM161.412 59.8492C161.847 59.8492 162.249 59.7525 162.616 59.5592C162.993 59.3561 163.293 59.066 163.515 58.6889C163.748 58.3021 163.864 57.838 163.864 57.2965C163.864 56.7453 163.748 56.2763 163.515 55.8895C163.293 55.5028 162.993 55.2078 162.616 55.0048C162.249 54.8017 161.847 54.7002 161.412 54.7002C160.977 54.7002 160.571 54.8017 160.194 55.0048C159.817 55.1982 159.512 55.4883 159.28 55.875C159.048 56.2618 158.932 56.7356 158.932 57.2965C158.932 57.838 159.043 58.3021 159.266 58.6889C159.498 59.066 159.802 59.3561 160.179 59.5592C160.557 59.7525 160.968 59.8492 161.412 59.8492ZM166.713 53.6559H168.105V60.8936H166.713V53.6559ZM170.861 53.5108C171.267 53.5108 171.635 53.5688 171.963 53.6849C172.292 53.8009 172.573 53.975 172.805 54.207C173.037 54.4294 173.216 54.7098 173.341 55.0483C173.477 55.3771 173.544 55.7542 173.544 56.1796V60.8936H172.167V56.4842C172.167 55.9137 172.026 55.4883 171.746 55.2078C171.475 54.9177 171.059 54.7727 170.499 54.7727C170.063 54.7727 169.667 54.8742 169.309 55.0773C168.951 55.2804 168.656 55.5511 168.424 55.8895C168.202 56.2183 168.067 56.5906 168.018 57.0064L168.004 56.2086C168.052 55.8219 168.154 55.4641 168.308 55.1353C168.473 54.8065 168.676 54.5213 168.918 54.2796C169.169 54.0281 169.459 53.8396 169.788 53.7139C170.117 53.5785 170.474 53.5108 170.861 53.5108ZM178.786 60.8936V51.4802H183.631C184.308 51.4802 184.888 51.5817 185.371 51.7848C185.865 51.9782 186.242 52.2779 186.503 52.6841C186.764 53.0805 186.894 53.5882 186.894 54.207C186.894 54.6325 186.822 54.9951 186.677 55.2949C186.541 55.5849 186.353 55.8267 186.111 56.0201C185.869 56.2135 185.584 56.3633 185.255 56.4697C184.927 56.5761 184.574 56.6438 184.197 56.6728L184.095 56.5857C184.666 56.6051 185.144 56.6679 185.531 56.7743C185.918 56.8807 186.213 57.0741 186.416 57.3545C186.628 57.6252 186.735 58.0314 186.735 58.5729V60.8936H185.328V58.6164C185.328 58.2393 185.265 57.9443 185.139 57.7316C185.014 57.5189 184.796 57.369 184.487 57.282C184.177 57.1949 183.742 57.1514 183.181 57.1514H180.179V60.8936H178.786ZM180.179 55.9331H183.631C184.25 55.9331 184.714 55.7783 185.023 55.4689C185.342 55.1595 185.502 54.7534 185.502 54.2505C185.502 53.7671 185.342 53.3948 185.023 53.1337C184.714 52.8726 184.25 52.7421 183.631 52.7421H180.179V55.9331ZM194.266 58.5438H195.586C195.509 59.0177 195.325 59.4431 195.035 59.8202C194.745 60.1973 194.363 60.4971 193.889 60.7195C193.415 60.9419 192.859 61.0531 192.221 61.0531C191.467 61.0531 190.795 60.8936 190.205 60.5745C189.615 60.2554 189.151 59.8154 188.812 59.2546C188.474 58.6937 188.305 58.041 188.305 57.2965C188.305 56.5422 188.469 55.8847 188.798 55.3239C189.127 54.7534 189.581 54.3086 190.161 53.9895C190.742 53.6704 191.404 53.5108 192.148 53.5108C192.932 53.5108 193.589 53.6655 194.121 53.975C194.653 54.2844 195.045 54.7437 195.296 55.3529C195.557 55.9524 195.663 56.7018 195.615 57.6011H189.683C189.731 58.0362 189.862 58.423 190.074 58.7614C190.297 59.0998 190.587 59.3658 190.945 59.5592C191.312 59.7525 191.733 59.8492 192.207 59.8492C192.738 59.8492 193.183 59.7284 193.541 59.4866C193.899 59.2449 194.14 58.9306 194.266 58.5438ZM192.163 54.7002C191.534 54.7002 191.012 54.8694 190.597 55.2078C190.181 55.5366 189.905 55.9766 189.77 56.5277H194.223C194.184 55.9379 193.971 55.4883 193.584 55.1788C193.198 54.8597 192.724 54.7002 192.163 54.7002ZM201.215 61.0531C200.654 61.0531 200.185 60.9322 199.808 60.6905C199.431 60.4488 199.136 60.1345 198.923 59.7477C198.711 59.3609 198.556 58.95 198.459 58.5148C198.363 58.0797 198.314 57.6687 198.314 57.282C198.314 56.7598 198.358 56.2715 198.445 55.817C198.542 55.3625 198.696 54.9613 198.909 54.6132C199.122 54.265 199.417 53.9943 199.794 53.8009C200.171 53.6075 200.645 53.5108 201.215 53.5108C201.844 53.5108 202.409 53.6752 202.912 54.004C203.415 54.3231 203.816 54.7679 204.116 55.3384C204.425 55.9089 204.58 56.5567 204.58 57.282C204.58 58.0265 204.425 58.6841 204.116 59.2546C203.807 59.8154 203.396 60.2554 202.883 60.5745C202.38 60.8936 201.824 61.0531 201.215 61.0531ZM200.824 59.8347C201.288 59.8347 201.699 59.7284 202.056 59.5156C202.414 59.2932 202.69 58.9935 202.883 58.6164C203.086 58.2296 203.188 57.7848 203.188 57.282C203.188 56.5374 202.98 55.9234 202.564 55.4399C202.158 54.9564 201.578 54.7147 200.824 54.7147C200.369 54.7147 199.963 54.821 199.605 55.0338C199.257 55.2465 198.982 55.5463 198.778 55.9331C198.575 56.3198 198.474 56.7695 198.474 57.282C198.474 57.7654 198.561 58.2006 198.735 58.5874C198.919 58.9645 199.185 59.2691 199.533 59.5011C199.881 59.7235 200.311 59.8347 200.824 59.8347ZM197.081 53.6559H198.416L198.474 55.2949V63.7944H197.081V53.6559ZM211.618 58.5438H212.937C212.86 59.0177 212.676 59.4431 212.386 59.8202C212.096 60.1973 211.714 60.4971 211.24 60.7195C210.767 60.9419 210.211 61.0531 209.572 61.0531C208.818 61.0531 208.146 60.8936 207.556 60.5745C206.966 60.2554 206.502 59.8154 206.164 59.2546C205.825 58.6937 205.656 58.041 205.656 57.2965C205.656 56.5422 205.821 55.8847 206.149 55.3239C206.478 54.7534 206.933 54.3086 207.513 53.9895C208.093 53.6704 208.755 53.5108 209.5 53.5108C210.283 53.5108 210.941 53.6655 211.473 53.975C212.004 54.2844 212.396 54.7437 212.647 55.3529C212.908 55.9524 213.015 56.7018 212.966 57.6011H207.034C207.083 58.0362 207.213 58.423 207.426 58.7614C207.648 59.0998 207.938 59.3658 208.296 59.5592C208.664 59.7525 209.084 59.8492 209.558 59.8492C210.09 59.8492 210.535 59.7284 210.892 59.4866C211.25 59.2449 211.492 58.9306 211.618 58.5438ZM209.514 54.7002C208.886 54.7002 208.364 54.8694 207.948 55.2078C207.532 55.5366 207.257 55.9766 207.121 56.5277H211.574C211.535 55.9379 211.323 55.4883 210.936 55.1788C210.549 54.8597 210.075 54.7002 209.514 54.7002ZM217.421 61.0386C216.802 61.0386 216.236 60.8791 215.724 60.56C215.211 60.2409 214.805 59.8009 214.505 59.2401C214.206 58.6695 214.056 58.0169 214.056 57.282C214.056 56.5471 214.206 55.8992 214.505 55.3384C214.815 54.7679 215.235 54.3231 215.767 54.004C216.299 53.6752 216.894 53.5108 217.551 53.5108C218.277 53.5108 218.837 53.68 219.234 54.0185C219.64 54.3569 219.92 54.8114 220.075 55.3819C220.239 55.9524 220.322 56.5857 220.322 57.282C220.322 57.6687 220.273 58.0797 220.177 58.5148C220.08 58.95 219.925 59.3609 219.712 59.7477C219.5 60.1345 219.205 60.4488 218.828 60.6905C218.451 60.9226 217.982 61.0386 217.421 61.0386ZM217.812 59.8347C218.325 59.8347 218.755 59.7235 219.103 59.5011C219.461 59.2691 219.727 58.9596 219.901 58.5729C220.075 58.1861 220.162 57.7558 220.162 57.282C220.162 56.7695 220.07 56.3198 219.887 55.9331C219.712 55.5463 219.447 55.2465 219.089 55.0338C218.741 54.821 218.315 54.7147 217.812 54.7147C217.058 54.7147 216.473 54.9564 216.057 55.4399C215.651 55.9234 215.448 56.5374 215.448 57.282C215.448 57.7848 215.55 58.2296 215.753 58.6164C215.956 58.9935 216.231 59.2932 216.58 59.5156C216.937 59.7284 217.348 59.8347 217.812 59.8347ZM220.162 53.6559H221.555V60.8936H220.278C220.278 60.8936 220.268 60.8065 220.249 60.6325C220.23 60.4488 220.21 60.2312 220.191 59.9798C220.172 59.7284 220.162 59.506 220.162 59.3126V53.6559ZM222.863 53.6559H227.548V54.8597H222.863V53.6559ZM224.517 51.7413H225.894V60.8936H224.517V51.7413Z" fill="white"/>
</g>
<g filter="url(#filter1_d_5121_54618)">
<path d="M14.5961 12.6045C14.688 10.5521 16.9672 9.36876 18.6987 10.4745L35.6647 21.3091C37.8745 22.7203 36.9373 26.1388 34.3167 26.2258L32.0018 26.3026C27.3899 26.4555 23.0868 28.6581 20.2656 32.3097L18.4665 34.6385C16.8731 36.7008 13.5718 35.491 13.6883 32.8875L14.5961 12.6045Z" fill="#23A323"/>
</g>
</g>
<defs>
<filter id="filter0_d_5121_54618" x="-3.05176" y="15.5815" width="289.651" height="86.9097" filterUnits="userSpaceOnUse" color-interpolation-filters="sRGB">
<feFlood flood-opacity="0" result="BackgroundImageFix"/>
<feColorMatrix in="SourceAlpha" type="matrix" values="0 0 0 0 0 0 0 0 0 0 0 0 0 0 0 0 0 0 127 0" result="hardAlpha"/>
<feOffset dy="2.64252"/>
<feGaussianBlur stdDeviation="9.5"/>
<feComposite in2="hardAlpha" operator="out"/>
<feColorMatrix type="matrix" values="0 0 0 0 0.137255 0 0 0 0 0.639216 0 0 0 0 0.137255 0 0 0 0.24 0"/>
<feBlend mode="normal" in2="BackgroundImageFix" result="effect1_dropShadow_5121_54618"/>
<feBlend mode="normal" in="SourceGraphic" in2="effect1_dropShadow_5121_54618" result="shape"/>
</filter>
<filter id="filter1_d_5121_54618" x="9.68555" y="10.0513" width="31.2158" height="33.6309" filterUnits="userSpaceOnUse" color-interpolation-filters="sRGB">
<feFlood flood-opacity="0" result="BackgroundImageFix"/>
<feColorMatrix in="SourceAlpha" type="matrix" values="0 0 0 0 0 0 0 0 0 0 0 0 0 0 0 0 0 0 127 0" result="hardAlpha"/>
<feOffset dy="4"/>
<feGaussianBlur stdDeviation="2"/>
<feComposite in2="hardAlpha" operator="out"/>
<feColorMatrix type="matrix" values="0 0 0 0 0 0 0 0 0 0 0 0 0 0 0 0 0 0 0.13 0"/>
<feBlend mode="normal" in2="BackgroundImageFix" result="effect1_dropShadow_5121_54618"/>
<feBlend mode="normal" in="SourceGraphic" in2="effect1_dropShadow_5121_54618" result="shape"/>
</filter>
<clipPath id="clip0_5121_54618">
<rect width="267.599" height="80.5474" fill="white" transform="translate(0 0.30127)"/>
</clipPath>
</defs>
</svg>
