<svg width="31" height="31" viewBox="0 0 31 31" fill="none" xmlns="http://www.w3.org/2000/svg">
<circle cx="15.4952" cy="15.4983" r="14.6974" fill="#F0F5FF"/>
<path d="M13.197 10.0077H11.2482C11.0759 10.0077 10.9106 10.0761 10.7888 10.1979C10.667 10.3198 10.5986 10.485 10.5986 10.6573V11.9565C10.5986 12.1288 10.667 12.294 10.7888 12.4159C10.9106 12.5377 11.0759 12.6061 11.2482 12.6061H12.5474C12.7197 12.6061 12.8849 12.5377 13.0068 12.4159C13.1286 12.294 13.197 12.1288 13.197 11.9565V10.0077ZM11.2547 13.9054V20.3788H12.5474V17.1534C12.5474 16.8089 12.6843 16.4784 12.9279 16.2348C13.1716 15.9911 13.5021 15.8542 13.8466 15.8542H15.1459C15.4905 15.8542 15.8209 15.9911 16.0646 16.2348C16.3082 16.4784 16.4451 16.8089 16.4451 17.1534V20.3788H20.3513V13.9054H19.0436C18.5447 13.9054 18.0886 13.7176 17.7443 13.4091C17.3874 13.7292 16.9246 13.906 16.4451 13.9054H15.1459C14.647 13.9054 14.1909 13.7176 13.8466 13.4091C13.4897 13.7292 13.0269 13.906 12.5474 13.9054H11.2547ZM9.95543 13.4155C9.74883 13.2328 9.58348 13.0082 9.47036 12.7566C9.35724 12.5051 9.29893 12.2323 9.29932 11.9565V10.6573C9.29932 10.1404 9.50464 9.64471 9.87012 9.27923C10.2356 8.91374 10.7313 8.70842 11.2482 8.70842H20.3428C20.8597 8.70842 21.3554 8.91374 21.7209 9.27923C22.0863 9.64471 22.2917 10.1404 22.2917 10.6573V11.9565C22.2917 12.5295 22.0448 13.0453 21.6505 13.4019V20.3788C21.6505 20.7234 21.5136 21.0538 21.27 21.2975C21.0263 21.5412 20.6958 21.678 20.3513 21.678H15.3882C15.3083 21.6931 15.2272 21.7008 15.1459 21.7008H13.8466C13.7653 21.7008 13.6842 21.6931 13.6043 21.678H11.2553C10.9107 21.678 10.5803 21.5412 10.3366 21.2975C10.093 21.0538 9.95608 20.7234 9.95608 20.3788V13.4149L9.95543 13.4155ZM15.1459 20.3794V17.1534H13.8466V20.3788L15.1459 20.3794ZM17.0947 10.0077H14.4963V11.9565C14.4963 12.1288 14.5647 12.294 14.6865 12.4159C14.8084 12.5377 14.9736 12.6061 15.1459 12.6061H16.4451C16.6174 12.6061 16.7826 12.5377 16.9045 12.4159C17.0263 12.294 17.0947 12.1288 17.0947 11.9565V10.0077ZM18.394 10.0077V11.9565C18.394 12.1288 18.4624 12.294 18.5842 12.4159C18.7061 12.5377 18.8713 12.6061 19.0436 12.6061H20.3428C20.5151 12.6061 20.6803 12.5377 20.8022 12.4159C20.924 12.294 20.9924 12.1288 20.9924 11.9565V10.6573C20.9924 10.485 20.924 10.3198 20.8022 10.1979C20.6803 10.0761 20.5151 10.0077 20.3428 10.0077H18.394ZM18.394 15.8542H19.0436C19.2159 15.8542 19.3811 15.9227 19.5029 16.0445C19.6248 16.1663 19.6932 16.3315 19.6932 16.5038V18.4527C19.6932 18.625 19.6248 18.7902 19.5029 18.912C19.3811 19.0339 19.2159 19.1023 19.0436 19.1023H18.394C18.2217 19.1023 18.0564 19.0339 17.9346 18.912C17.8128 18.7902 17.7443 18.625 17.7443 18.4527V16.5038C17.7443 16.3315 17.8128 16.1663 17.9346 16.0445C18.0564 15.9227 18.2217 15.8542 18.394 15.8542Z" fill="#2D79FD"/>
</svg>
