<svg width="252" height="112" viewBox="0 0 252 112" fill="none" xmlns="http://www.w3.org/2000/svg">
<path d="M39.8809 31.3527L37.3609 32.3727V0.452704H45.3409V39.2727H37.3609L5.98088 8.6127L8.50088 7.59271V39.2727H0.520879V0.452704H8.50088L39.8809 31.3527ZM80.7629 29.3727H88.3229C88.0029 31.4127 87.1429 33.2327 85.7429 34.8327C84.3829 36.4327 82.5229 37.6927 80.1629 38.6127C77.8029 39.5327 74.9229 39.9927 71.5229 39.9927C67.7229 39.9927 64.3629 39.3927 61.4429 38.1927C58.5229 36.9527 56.2429 35.1727 54.6029 32.8527C52.9629 30.5327 52.1429 27.7327 52.1429 24.4527C52.1429 21.1727 52.9429 18.3727 54.5429 16.0527C56.1429 13.6927 58.3629 11.8927 61.2029 10.6527C64.0829 9.4127 67.4429 8.7927 71.2829 8.7927C75.2029 8.7927 78.4629 9.4127 81.0629 10.6527C83.6629 11.8927 85.5829 13.7727 86.8229 16.2927C88.1029 18.7727 88.6429 21.9527 88.4429 25.8327H60.0029C60.2029 27.3527 60.7629 28.7327 61.6829 29.9727C62.6429 31.2127 63.9229 32.1927 65.5229 32.9127C67.1629 33.6327 69.1029 33.9927 71.3429 33.9927C73.8229 33.9927 75.8829 33.5727 77.5229 32.7327C79.2029 31.8527 80.2829 30.7327 80.7629 29.3727ZM70.9229 14.7327C68.0429 14.7327 65.7029 15.3727 63.9029 16.6527C62.1029 17.8927 60.9429 19.4327 60.4229 21.2727H80.7029C80.5029 19.2727 79.5429 17.6927 77.8229 16.5327C76.1429 15.3327 73.8429 14.7327 70.9229 14.7327ZM109.515 34.1727H106.695L117.615 9.4527H126.135L111.795 39.2727H104.415L90.3751 9.4527H98.9551L109.515 34.1727ZM156.525 29.3727H164.085C163.765 31.4127 162.905 33.2327 161.505 34.8327C160.145 36.4327 158.285 37.6927 155.925 38.6127C153.565 39.5327 150.685 39.9927 147.285 39.9927C143.485 39.9927 140.125 39.3927 137.205 38.1927C134.285 36.9527 132.005 35.1727 130.365 32.8527C128.725 30.5327 127.905 27.7327 127.905 24.4527C127.905 21.1727 128.705 18.3727 130.305 16.0527C131.905 13.6927 134.125 11.8927 136.965 10.6527C139.845 9.4127 143.205 8.7927 147.045 8.7927C150.965 8.7927 154.225 9.4127 156.825 10.6527C159.425 11.8927 161.345 13.7727 162.585 16.2927C163.865 18.7727 164.405 21.9527 164.205 25.8327H135.765C135.965 27.3527 136.525 28.7327 137.445 29.9727C138.405 31.2127 139.685 32.1927 141.285 32.9127C142.925 33.6327 144.865 33.9927 147.105 33.9927C149.585 33.9927 151.645 33.5727 153.285 32.7327C154.965 31.8527 156.045 30.7327 156.525 29.3727ZM146.685 14.7327C143.805 14.7327 141.465 15.3727 139.665 16.6527C137.865 17.8927 136.705 19.4327 136.185 21.2727H156.465C156.265 19.2727 155.305 17.6927 153.585 16.5327C151.905 15.3327 149.605 14.7327 146.685 14.7327ZM170.009 9.4527H177.809V39.2727H170.009V9.4527ZM189.269 15.8727C187.029 15.8727 185.089 16.3127 183.449 17.1927C181.809 18.0327 180.489 19.0727 179.489 20.3127C178.489 21.5527 177.789 22.7527 177.389 23.9127L177.329 20.6127C177.369 20.1327 177.529 19.4327 177.809 18.5127C178.089 17.5527 178.509 16.5327 179.069 15.4527C179.629 14.3327 180.369 13.2727 181.289 12.2727C182.209 11.2327 183.329 10.3927 184.649 9.7527C185.969 9.1127 187.509 8.7927 189.269 8.7927V15.8727ZM0.520879 111.273V72.4527H26.8609C29.8609 72.4527 32.4609 72.8727 34.6609 73.7127C36.9009 74.5127 38.6409 75.7927 39.8809 77.5527C41.1209 79.2727 41.7409 81.4927 41.7409 84.2127C41.7409 86.0527 41.4209 87.6127 40.7809 88.8927C40.1409 90.1727 39.2409 91.2127 38.0809 92.0127C36.9609 92.8127 35.6609 93.4327 34.1809 93.8727C32.7009 94.2727 31.1209 94.5327 29.4409 94.6527L28.6009 94.1727C31.4009 94.2127 33.7009 94.4527 35.5009 94.8927C37.3009 95.2927 38.6409 96.0527 39.5209 97.1727C40.4409 98.2527 40.9009 99.8727 40.9009 102.033V111.273H32.9209V102.573C32.9209 101.093 32.6609 99.9527 32.1409 99.1527C31.6209 98.3127 30.6809 97.7327 29.3209 97.4127C28.0009 97.0927 26.0809 96.9327 23.5609 96.9327H8.50088V111.273H0.520879ZM8.50088 90.6927H26.8609C29.1009 90.6927 30.8009 90.1527 31.9609 89.0727C33.1609 87.9927 33.7609 86.5327 33.7609 84.6927C33.7609 82.9327 33.1609 81.5927 31.9609 80.6727C30.8009 79.7527 29.1009 79.2927 26.8609 79.2927H8.50088V90.6927ZM83.5712 111.273H75.7712V81.4527H83.5712V111.273ZM76.1912 96.9327L76.2512 98.9727C76.1712 99.5327 75.9712 100.353 75.6512 101.433C75.3312 102.473 74.8312 103.593 74.1512 104.793C73.5112 105.993 72.6712 107.153 71.6312 108.273C70.5912 109.353 69.3112 110.253 67.7912 110.973C66.2712 111.653 64.4712 111.993 62.3912 111.993C60.7512 111.993 59.1312 111.793 57.5312 111.393C55.9712 110.993 54.5512 110.333 53.2712 109.413C51.9912 108.453 50.9712 107.173 50.2112 105.573C49.4512 103.973 49.0712 101.953 49.0712 99.5127V81.4527H56.8712V98.1927C56.8712 100.113 57.1712 101.633 57.7712 102.753C58.4112 103.833 59.3312 104.593 60.5312 105.033C61.7312 105.473 63.1512 105.693 64.7912 105.693C66.9512 105.693 68.8112 105.233 70.3712 104.313C71.9312 103.353 73.1912 102.193 74.1512 100.833C75.1512 99.4727 75.8312 98.1727 76.1912 96.9327ZM90.6728 81.4527H98.4728V111.273H90.6728V81.4527ZM112.333 80.7927C114.173 80.7927 115.873 81.0327 117.433 81.5127C118.993 81.9927 120.353 82.7327 121.513 83.7327C122.673 84.7327 123.573 86.0127 124.213 87.5727C124.853 89.0927 125.173 90.9127 125.173 93.0327V111.273H117.373V94.4127C117.373 91.8927 116.753 90.0527 115.513 88.8927C114.313 87.6927 112.333 87.0927 109.573 87.0927C107.493 87.0927 105.613 87.4927 103.933 88.2927C102.253 89.0927 100.893 90.1127 99.8528 91.3527C98.8128 92.5527 98.2128 93.8127 98.0528 95.1327L97.9928 92.0727C98.1928 90.6727 98.6528 89.3127 99.3728 87.9927C100.093 86.6727 101.053 85.4727 102.253 84.3927C103.493 83.2727 104.953 82.3927 106.633 81.7527C108.313 81.1127 110.213 80.7927 112.333 80.7927ZM164.327 111.993C160.567 111.993 157.247 111.393 154.367 110.193C151.527 108.993 149.307 107.253 147.707 104.973C146.107 102.653 145.307 99.8127 145.307 96.4527C145.307 93.0927 146.107 90.2527 147.707 87.9327C149.307 85.5727 151.527 83.7927 154.367 82.5927C157.247 81.3927 160.567 80.7927 164.327 80.7927C168.087 80.7927 171.367 81.3927 174.167 82.5927C177.007 83.7927 179.227 85.5727 180.827 87.9327C182.427 90.2527 183.227 93.0927 183.227 96.4527C183.227 99.8127 182.427 102.653 180.827 104.973C179.227 107.253 177.007 108.993 174.167 110.193C171.367 111.393 168.087 111.993 164.327 111.993ZM164.327 105.993C166.407 105.993 168.267 105.633 169.907 104.913C171.587 104.153 172.907 103.073 173.867 101.673C174.827 100.233 175.307 98.4927 175.307 96.4527C175.307 94.4127 174.827 92.6727 173.867 91.2327C172.907 89.7527 171.607 88.6327 169.967 87.8727C168.327 87.1127 166.447 86.7327 164.327 86.7327C162.247 86.7327 160.367 87.1127 158.687 87.8727C157.007 88.6327 155.667 89.7327 154.667 91.1727C153.707 92.6127 153.227 94.3727 153.227 96.4527C153.227 98.4927 153.707 100.233 154.667 101.673C155.627 103.073 156.947 104.153 158.627 104.913C160.307 105.633 162.207 105.993 164.327 105.993ZM223.493 111.273H215.693V81.4527H223.493V111.273ZM216.113 96.9327L216.173 98.9727C216.093 99.5327 215.893 100.353 215.573 101.433C215.253 102.473 214.753 103.593 214.073 104.793C213.433 105.993 212.593 107.153 211.553 108.273C210.513 109.353 209.233 110.253 207.713 110.973C206.193 111.653 204.393 111.993 202.313 111.993C200.673 111.993 199.053 111.793 197.453 111.393C195.893 110.993 194.473 110.333 193.193 109.413C191.913 108.453 190.893 107.173 190.133 105.573C189.373 103.973 188.993 101.953 188.993 99.5127V81.4527H196.793V98.1927C196.793 100.113 197.093 101.633 197.693 102.753C198.333 103.833 199.253 104.593 200.453 105.033C201.653 105.473 203.073 105.693 204.713 105.693C206.873 105.693 208.733 105.233 210.293 104.313C211.853 103.353 213.113 102.193 214.073 100.833C215.073 99.4727 215.753 98.1727 216.113 96.9327ZM228.495 81.4527H251.655V87.5127H228.495V81.4527ZM236.175 73.2927H243.975V111.273H236.175V73.2927Z" fill="#23A323"/>
</svg>
