<svg width="36" height="35" viewBox="0 0 36 35" fill="none" xmlns="http://www.w3.org/2000/svg">
<circle cx="17.9884" cy="17.4092" r="17.0685" fill="white"/>
<path d="M13.174 11.4154C12.498 11.4154 11.8496 11.684 11.3716 12.162C10.8936 12.64 10.625 13.2884 10.625 13.9644V15.123H25.4555V13.9644C25.4555 13.2884 25.1869 12.64 24.7089 12.162C24.2309 11.684 23.5825 11.4154 22.9065 11.4154H13.174ZM25.4555 16.0499H10.625V19.9893C10.625 20.6653 10.8936 21.3136 11.3716 21.7917C11.8496 22.2697 12.498 22.5383 13.174 22.5383H22.9065C23.5825 22.5383 24.2309 22.2697 24.7089 21.7917C25.1869 21.3136 25.4555 20.6653 25.4555 19.9893V16.0499ZM21.2844 19.7575H23.1382C23.2611 19.7575 23.379 19.8064 23.4659 19.8933C23.5528 19.9802 23.6017 20.0981 23.6017 20.221C23.6017 20.3439 23.5528 20.4618 23.4659 20.5487C23.379 20.6356 23.2611 20.6844 23.1382 20.6844H21.2844C21.1615 20.6844 21.0436 20.6356 20.9567 20.5487C20.8698 20.4618 20.8209 20.3439 20.8209 20.221C20.8209 20.0981 20.8698 19.9802 20.9567 19.8933C21.0436 19.8064 21.1615 19.7575 21.2844 19.7575Z" fill="#23A323"/>
</svg>
