<svg width="74" height="74" viewBox="0 0 74 74" fill="none" xmlns="http://www.w3.org/2000/svg">
<circle cx="36.6805" cy="37.3456" r="36.369" fill="#FFF5F0"/>
<path d="M22.1565 42.417H52.4442V44.5804H22.1565V42.417ZM22.1565 46.7439H52.4442V48.9073H22.1565V46.7439ZM45.954 29.4366C45.5261 29.4366 45.1078 29.5635 44.752 29.8012C44.3963 30.0389 44.119 30.3768 43.9552 30.7721C43.7915 31.1674 43.7487 31.6024 43.8321 32.0221C43.9156 32.4417 44.1216 32.8272 44.4242 33.1298C44.7268 33.4323 45.1122 33.6384 45.5319 33.7218C45.9516 33.8053 46.3866 33.7625 46.7819 33.5987C47.1772 33.435 47.5151 33.1577 47.7528 32.8019C47.9905 32.4462 48.1174 32.0279 48.1174 31.6C48.1174 31.0262 47.8894 30.476 47.4837 30.0702C47.078 29.6645 46.5277 29.4366 45.954 29.4366ZM37.3003 35.9268C36.4446 35.9268 35.608 35.6731 34.8965 35.1976C34.1849 34.7222 33.6304 34.0464 33.3029 33.2558C32.9754 32.4652 32.8897 31.5952 33.0567 30.7559C33.2236 29.9166 33.6357 29.1456 34.2408 28.5405C34.8459 27.9354 35.6169 27.5233 36.4562 27.3563C37.2955 27.1894 38.1655 27.2751 38.9561 27.6026C39.7468 27.93 40.4225 28.4846 40.898 29.1962C41.3734 29.9077 41.6272 30.7442 41.6272 31.6C41.6257 32.7471 41.1694 33.8468 40.3583 34.6579C39.5472 35.4691 38.4474 35.9254 37.3003 35.9268ZM37.3003 29.4366C36.8725 29.4366 36.4542 29.5635 36.0984 29.8012C35.7426 30.0389 35.4654 30.3768 35.3016 30.7721C35.1379 31.1674 35.095 31.6024 35.1785 32.0221C35.262 32.4417 35.468 32.8272 35.7706 33.1298C36.0731 33.4323 36.4586 33.6384 36.8783 33.7218C37.2979 33.8053 37.7329 33.7625 38.1282 33.5987C38.5236 33.435 38.8614 33.1577 39.0991 32.8019C39.3369 32.4462 39.4637 32.0279 39.4637 31.6C39.4632 31.0264 39.2351 30.4765 38.8295 30.0709C38.4239 29.6653 37.8739 29.4372 37.3003 29.4366ZM28.6467 29.4366C28.2188 29.4366 27.8006 29.5635 27.4448 29.8012C27.089 30.0389 26.8117 30.3768 26.648 30.7721C26.4842 31.1674 26.4414 31.6024 26.5249 32.0221C26.6084 32.4417 26.8144 32.8272 27.117 33.1298C27.4195 33.4323 27.805 33.6384 28.2247 33.7218C28.6443 33.8053 29.0793 33.7625 29.4746 33.5987C29.8699 33.435 30.2078 33.1577 30.4455 32.8019C30.6832 32.4462 30.8101 32.0279 30.8101 31.6C30.8101 31.0262 30.5822 30.476 30.1765 30.0702C29.7708 29.6645 29.2205 29.4366 28.6467 29.4366Z" fill="#FF823B"/>
<path d="M50.2808 40.2535H24.3199C23.7466 40.2521 23.1971 40.0237 22.7917 39.6183C22.3863 39.2129 22.1579 38.6635 22.1565 38.0901V25.1097C22.1579 24.5364 22.3863 23.9869 22.7917 23.5815C23.1971 23.1761 23.7466 22.9477 24.3199 22.9463H50.2808C50.8541 22.9477 51.4036 23.1761 51.809 23.5815C52.2144 23.9869 52.4428 24.5364 52.4442 25.1097V38.0901C52.4433 38.6636 52.2151 39.2134 51.8096 39.6189C51.4041 40.0245 50.8543 40.2527 50.2808 40.2535ZM50.2808 25.1097H24.3199V38.0901H50.2808V25.1097Z" fill="#FF823B"/>
</svg>
