<svg width="307" height="714" viewBox="0 0 307 714" fill="none" xmlns="http://www.w3.org/2000/svg">
<g clip-path="url(#clip0_4830_46973)">
<path d="M75.6184 41.7988C56.3319 66.8715 23.545 130.903 46.6887 186.447C75.6184 255.878 94.1333 327.623 84.8758 358.867C75.6184 390.111 11.9731 485 35.1168 519.716C53.6318 547.488 76.0041 646.235 84.8758 692.137" stroke="#23A323" stroke-width="5" stroke-dasharray="5 5"/>
<circle cx="61.1055" cy="39.2178" r="39.0225" fill="#23A323"/>
<path d="M56.1055 32.6987V29.2587H64.9055V49.2188H61.0655V32.6987H56.1055Z" fill="white"/>
<path d="M163.976 45.5963C162.76 45.5963 161.699 45.3776 160.792 44.9403C159.896 44.503 159.197 43.8843 158.696 43.0843C158.205 42.2843 157.96 41.3296 157.96 40.2203C157.96 39.111 158.205 38.1563 158.696 37.3563C159.197 36.5456 159.896 35.927 160.792 35.5003C161.699 35.063 162.76 34.8443 163.976 34.8443C165.203 34.8443 166.264 35.063 167.16 35.5003C168.056 35.927 168.749 36.5456 169.24 37.3563C169.741 38.1563 169.992 39.111 169.992 40.2203C169.992 41.3296 169.741 42.2843 169.24 43.0843C168.749 43.8843 168.056 44.503 167.16 44.9403C166.264 45.3776 165.203 45.5963 163.976 45.5963ZM163.976 43.9963C164.787 43.9963 165.501 43.8576 166.12 43.5803C166.739 43.303 167.224 42.887 167.576 42.3323C167.939 41.767 168.12 41.063 168.12 40.2203C168.12 39.3883 167.939 38.695 167.576 38.1403C167.224 37.575 166.739 37.1536 166.12 36.8763C165.501 36.5883 164.787 36.4443 163.976 36.4443C163.176 36.4443 162.461 36.5883 161.832 36.8763C161.203 37.1536 160.707 37.575 160.344 38.1403C159.981 38.695 159.8 39.3883 159.8 40.2203C159.8 41.063 159.981 41.767 160.344 42.3323C160.707 42.887 161.203 43.303 161.832 43.5803C162.461 43.8576 163.176 43.9963 163.976 43.9963ZM176.943 45.5803C176.292 45.5803 175.738 45.4523 175.279 45.1963C174.831 44.9403 174.468 44.6043 174.191 44.1883C173.924 43.7616 173.727 43.3083 173.599 42.8283C173.471 42.3376 173.407 41.8736 173.407 41.4363C173.407 40.8496 173.466 40.3056 173.583 39.8043C173.711 39.303 173.908 38.8656 174.175 38.4923C174.452 38.1083 174.815 37.8096 175.263 37.5963C175.722 37.3723 176.282 37.2603 176.943 37.2603C177.69 37.2603 178.362 37.4416 178.959 37.8043C179.556 38.1563 180.031 38.647 180.383 39.2763C180.735 39.895 180.911 40.615 180.911 41.4363C180.911 42.2576 180.73 42.983 180.367 43.6123C180.015 44.231 179.54 44.7163 178.943 45.0683C178.346 45.4096 177.679 45.5803 176.943 45.5803ZM176.415 44.1083C176.948 44.1083 177.418 43.9963 177.823 43.7723C178.228 43.5483 178.543 43.2336 178.767 42.8283C178.991 42.423 179.103 41.959 179.103 41.4363C179.103 40.6363 178.868 39.9856 178.399 39.4843C177.93 38.9723 177.268 38.7163 176.415 38.7163C175.882 38.7163 175.402 38.8283 174.975 39.0523C174.548 39.2763 174.212 39.591 173.967 39.9963C173.722 40.391 173.599 40.871 173.599 41.4363C173.599 41.9483 173.711 42.407 173.935 42.8123C174.159 43.2176 174.479 43.5376 174.895 43.7723C175.311 43.9963 175.818 44.1083 176.415 44.1083ZM171.823 37.4363H173.519L173.599 39.3883V48.6043H171.823V37.4363ZM189.151 42.7803H190.863C190.778 43.3243 190.564 43.8096 190.223 44.2363C189.892 44.6523 189.439 44.983 188.863 45.2283C188.287 45.463 187.599 45.5803 186.799 45.5803C185.892 45.5803 185.082 45.415 184.367 45.0843C183.652 44.743 183.092 44.263 182.687 43.6443C182.282 43.0256 182.079 42.2896 182.079 41.4363C182.079 40.5936 182.276 39.8576 182.671 39.2283C183.066 38.599 183.61 38.1136 184.303 37.7723C185.007 37.431 185.818 37.2603 186.735 37.2603C187.684 37.2603 188.474 37.431 189.103 37.7723C189.743 38.103 190.218 38.6043 190.527 39.2763C190.836 39.9376 190.964 40.775 190.911 41.7883H183.887C183.94 42.2363 184.084 42.6416 184.319 43.0043C184.564 43.3563 184.895 43.6336 185.311 43.8363C185.727 44.0283 186.212 44.1243 186.767 44.1243C187.386 44.1243 187.903 44.0016 188.319 43.7563C188.746 43.511 189.023 43.1856 189.151 42.7803ZM186.687 38.7003C185.962 38.7003 185.364 38.8816 184.895 39.2443C184.426 39.5963 184.122 40.0496 183.983 40.6043H189.119C189.076 40.007 188.836 39.543 188.399 39.2123C187.962 38.871 187.391 38.7003 186.687 38.7003ZM192.495 37.4363H194.271V45.4043H192.495V37.4363ZM197.631 37.2603C198.09 37.2603 198.511 37.3243 198.895 37.4523C199.29 37.5803 199.626 37.7776 199.903 38.0443C200.191 38.3003 200.41 38.6203 200.559 39.0043C200.719 39.3883 200.799 39.8416 200.799 40.3643V45.4043H199.023V40.7163C199.023 40.0656 198.863 39.5856 198.543 39.2763C198.234 38.9563 197.743 38.7963 197.071 38.7963C196.559 38.7963 196.09 38.9083 195.663 39.1323C195.247 39.3456 194.906 39.6283 194.639 39.9803C194.372 40.3216 194.218 40.7003 194.175 41.1163L194.159 40.2523C194.212 39.8576 194.33 39.4843 194.511 39.1323C194.692 38.7696 194.932 38.4496 195.231 38.1723C195.53 37.8843 195.882 37.6603 196.287 37.5003C196.692 37.3403 197.14 37.2603 197.631 37.2603ZM210 45.5803C209.275 45.5803 208.608 45.4043 208 45.0523C207.403 44.7003 206.923 44.215 206.56 43.5963C206.208 42.967 206.032 42.247 206.032 41.4363C206.032 40.6043 206.213 39.879 206.576 39.2603C206.939 38.631 207.429 38.1403 208.048 37.7883C208.667 37.4363 209.36 37.2603 210.128 37.2603C210.981 37.2603 211.659 37.447 212.16 37.8203C212.661 38.1936 213.019 38.695 213.232 39.3243C213.445 39.9536 213.552 40.6576 213.552 41.4363C213.552 41.8736 213.488 42.3376 213.36 42.8283C213.232 43.3083 213.029 43.7563 212.752 44.1723C212.485 44.5883 212.123 44.9296 211.664 45.1963C211.216 45.4523 210.661 45.5803 210 45.5803ZM210.544 44.1083C211.141 44.1083 211.648 43.9963 212.064 43.7723C212.491 43.5376 212.811 43.2176 213.024 42.8123C213.248 42.407 213.36 41.9483 213.36 41.4363C213.36 40.871 213.248 40.391 213.024 39.9963C212.8 39.591 212.48 39.2816 212.064 39.0683C211.648 38.8443 211.141 38.7323 210.544 38.7323C209.691 38.7323 209.029 38.983 208.56 39.4843C208.091 39.9856 207.856 40.6363 207.856 41.4363C207.856 41.959 207.968 42.423 208.192 42.8283C208.427 43.2336 208.747 43.5483 209.152 43.7723C209.557 43.9963 210.021 44.1083 210.544 44.1083ZM213.36 37.4363H215.152V45.4043H213.488C213.488 45.4043 213.477 45.303 213.456 45.1003C213.435 44.8976 213.413 44.6523 213.392 44.3643C213.371 44.0656 213.36 43.783 213.36 43.5163V37.4363ZM217.104 37.4363H218.88V45.4043H217.104V37.4363ZM222.24 37.2603C222.699 37.2603 223.12 37.3243 223.504 37.4523C223.899 37.5803 224.235 37.7776 224.512 38.0443C224.8 38.3003 225.019 38.6203 225.168 39.0043C225.328 39.3883 225.408 39.8416 225.408 40.3643V45.4043H223.632V40.7163C223.632 40.0656 223.472 39.5856 223.152 39.2763C222.843 38.9563 222.352 38.7963 221.68 38.7963C221.168 38.7963 220.699 38.9083 220.272 39.1323C219.856 39.3456 219.515 39.6283 219.248 39.9803C218.982 40.3216 218.827 40.7003 218.784 41.1163L218.768 40.2523C218.822 39.8576 218.939 39.4843 219.12 39.1323C219.302 38.7696 219.542 38.4496 219.84 38.1723C220.139 37.8843 220.491 37.6603 220.896 37.5003C221.302 37.3403 221.75 37.2603 222.24 37.2603ZM232.753 42.9723V41.4203H238.929V42.9723H232.753ZM230.353 45.4043L234.881 35.0363H236.833L241.393 45.4043H239.425L235.457 36.0443H236.257L232.305 45.4043H230.353ZM251.196 42.3163C251.132 42.999 250.913 43.5856 250.54 44.0763C250.167 44.567 249.665 44.9403 249.036 45.1963C248.417 45.4523 247.703 45.5803 246.892 45.5803C246.017 45.5803 245.223 45.4203 244.508 45.1003C243.804 44.7803 243.244 44.311 242.828 43.6923C242.412 43.0736 242.204 42.3216 242.204 41.4363C242.204 40.551 242.412 39.799 242.828 39.1803C243.244 38.5616 243.804 38.087 244.508 37.7563C245.223 37.4256 246.017 37.2603 246.892 37.2603C247.703 37.2603 248.417 37.3936 249.036 37.6603C249.655 37.9163 250.151 38.2843 250.524 38.7643C250.897 39.2443 251.116 39.8256 251.18 40.5083H249.548C249.367 39.943 249.036 39.5056 248.556 39.1963C248.087 38.8763 247.532 38.7163 246.892 38.7163C246.369 38.7163 245.889 38.823 245.452 39.0363C245.015 39.239 244.663 39.543 244.396 39.9483C244.14 40.343 244.012 40.839 244.012 41.4363C244.012 42.023 244.14 42.519 244.396 42.9243C244.663 43.3296 245.015 43.6336 245.452 43.8363C245.889 44.0283 246.369 44.1243 246.892 44.1243C247.596 44.1243 248.172 43.9696 248.62 43.6603C249.079 43.3403 249.393 42.8923 249.564 42.3163H251.196ZM261.337 42.3163C261.273 42.999 261.054 43.5856 260.681 44.0763C260.307 44.567 259.806 44.9403 259.177 45.1963C258.558 45.4523 257.843 45.5803 257.033 45.5803C256.158 45.5803 255.363 45.4203 254.649 45.1003C253.945 44.7803 253.385 44.311 252.969 43.6923C252.553 43.0736 252.345 42.3216 252.345 41.4363C252.345 40.551 252.553 39.799 252.969 39.1803C253.385 38.5616 253.945 38.087 254.649 37.7563C255.363 37.4256 256.158 37.2603 257.033 37.2603C257.843 37.2603 258.558 37.3936 259.177 37.6603C259.795 37.9163 260.291 38.2843 260.665 38.7643C261.038 39.2443 261.257 39.8256 261.321 40.5083H259.689C259.507 39.943 259.177 39.5056 258.697 39.1963C258.227 38.8763 257.673 38.7163 257.033 38.7163C256.51 38.7163 256.03 38.823 255.593 39.0363C255.155 39.239 254.803 39.543 254.537 39.9483C254.281 40.343 254.153 40.839 254.153 41.4363C254.153 42.023 254.281 42.519 254.537 42.9243C254.803 43.3296 255.155 43.6336 255.593 43.8363C256.03 44.0283 256.51 44.1243 257.033 44.1243C257.737 44.1243 258.313 43.9696 258.761 43.6603C259.219 43.3403 259.534 42.8923 259.705 42.3163H261.337ZM267.141 45.5803C266.256 45.5803 265.461 45.4203 264.757 45.1003C264.053 44.7803 263.499 44.311 263.093 43.6923C262.688 43.0736 262.485 42.3216 262.485 41.4363C262.485 40.5616 262.688 39.815 263.093 39.1963C263.499 38.567 264.053 38.087 264.757 37.7563C265.461 37.4256 266.256 37.2603 267.141 37.2603C268.027 37.2603 268.816 37.4256 269.509 37.7563C270.203 38.087 270.747 38.567 271.141 39.1963C271.547 39.815 271.749 40.5616 271.749 41.4363C271.749 42.3216 271.547 43.0736 271.141 43.6923C270.747 44.311 270.203 44.7803 269.509 45.1003C268.816 45.4203 268.027 45.5803 267.141 45.5803ZM267.141 44.1243C267.653 44.1243 268.123 44.023 268.549 43.8203C268.976 43.6176 269.312 43.3136 269.557 42.9083C269.813 42.503 269.941 42.0123 269.941 41.4363C269.941 40.8603 269.813 40.3696 269.557 39.9643C269.312 39.559 268.976 39.2496 268.549 39.0363C268.133 38.8123 267.664 38.7003 267.141 38.7003C266.619 38.7003 266.144 38.807 265.717 39.0203C265.291 39.2336 264.944 39.543 264.677 39.9483C264.421 40.3536 264.293 40.8496 264.293 41.4363C264.293 42.0123 264.421 42.503 264.677 42.9083C264.933 43.3136 265.275 43.6176 265.701 43.8203C266.139 44.023 266.619 44.1243 267.141 44.1243ZM281.643 45.4043H279.867V37.4363H281.643V45.4043ZM279.963 41.6123L279.979 42.1243C279.957 42.263 279.909 42.471 279.835 42.7483C279.771 43.0256 279.659 43.3296 279.499 43.6603C279.349 43.9803 279.147 44.2896 278.891 44.5883C278.645 44.8763 278.336 45.1163 277.963 45.3083C277.589 45.4896 277.136 45.5803 276.603 45.5803C276.219 45.5803 275.829 45.527 275.435 45.4203C275.051 45.3243 274.699 45.159 274.379 44.9243C274.069 44.6896 273.819 44.3696 273.627 43.9643C273.435 43.559 273.339 43.047 273.339 42.4283V37.4363H275.115V42.0923C275.115 42.5936 275.195 42.9883 275.355 43.2763C275.525 43.5536 275.76 43.751 276.059 43.8683C276.357 43.9856 276.704 44.0443 277.099 44.0443C277.664 44.0443 278.144 43.9163 278.539 43.6603C278.933 43.4043 279.248 43.0896 279.483 42.7163C279.728 42.3323 279.888 41.9643 279.963 41.6123ZM283.604 37.4363H285.38V45.4043H283.604V37.4363ZM288.74 37.2603C289.199 37.2603 289.62 37.3243 290.004 37.4523C290.399 37.5803 290.735 37.7776 291.012 38.0443C291.3 38.3003 291.519 38.6203 291.668 39.0043C291.828 39.3883 291.908 39.8416 291.908 40.3643V45.4043H290.132V40.7163C290.132 40.0656 289.972 39.5856 289.652 39.2763C289.343 38.9563 288.852 38.7963 288.18 38.7963C287.668 38.7963 287.199 38.9083 286.772 39.1323C286.356 39.3456 286.015 39.6283 285.748 39.9803C285.482 40.3216 285.327 40.7003 285.284 41.1163L285.268 40.2523C285.322 39.8576 285.439 39.4843 285.62 39.1323C285.802 38.7696 286.042 38.4496 286.34 38.1723C286.639 37.8843 286.991 37.6603 287.396 37.5003C287.802 37.3403 288.25 37.2603 288.74 37.2603ZM293.31 37.4363H298.942V38.8923H293.31V37.4363ZM295.23 35.2923H297.022V45.4043H295.23V35.2923Z" fill="black"/>
<circle cx="61.1055" cy="198.263" r="39.0225" fill="#FFBD00"/>
<path d="M62.9855 202.388L57.2655 206.028L57.0255 205.108H69.7455V208.428H52.9455V205.108C54.8921 203.881 56.6255 202.841 58.1455 201.988C59.6655 201.108 60.9455 200.321 61.9855 199.628C63.0521 198.934 63.8655 198.228 64.4255 197.508C64.9855 196.788 65.2655 195.961 65.2655 195.028C65.2655 194.334 65.1055 193.721 64.7855 193.188C64.4655 192.628 63.9721 192.201 63.3055 191.908C62.6388 191.588 61.7855 191.428 60.7455 191.428C59.4121 191.428 58.2921 191.788 57.3855 192.508C56.4788 193.201 56.0121 194.134 55.9855 195.308H52.5055C52.3988 193.921 52.6921 192.681 53.3855 191.588C54.0788 190.494 55.0655 189.628 56.3455 188.988C57.6255 188.348 59.0788 188.028 60.7055 188.028C62.0121 188.028 63.1855 188.201 64.2255 188.548C65.2655 188.894 66.1455 189.374 66.8655 189.988C67.6121 190.574 68.1721 191.281 68.5455 192.108C68.9455 192.908 69.1455 193.774 69.1455 194.708C69.1455 195.508 69.0121 196.241 68.7455 196.908C68.4788 197.574 68.0788 198.214 67.5455 198.828C67.0388 199.414 66.3988 200.001 65.6255 200.588C64.8788 201.174 63.9988 201.774 62.9855 202.388Z" fill="white"/>
<path d="M163.352 194.081C164.472 194.081 165.411 194.22 166.168 194.497C166.925 194.775 167.528 195.153 167.976 195.633C168.424 196.103 168.744 196.647 168.936 197.265C169.139 197.884 169.24 198.535 169.24 199.217C169.24 199.911 169.133 200.572 168.92 201.201C168.707 201.831 168.365 202.391 167.896 202.881C167.437 203.361 166.835 203.745 166.088 204.033C165.341 204.311 164.429 204.449 163.352 204.449H158.376V194.081H163.352ZM160.2 202.849H163.336C164.125 202.849 164.781 202.748 165.304 202.545C165.827 202.343 166.243 202.071 166.552 201.729C166.861 201.377 167.08 200.988 167.208 200.561C167.336 200.124 167.4 199.676 167.4 199.217C167.4 198.759 167.336 198.321 167.208 197.905C167.08 197.479 166.861 197.1 166.552 196.769C166.243 196.428 165.827 196.161 165.304 195.969C164.781 195.767 164.125 195.665 163.336 195.665H160.2V202.849ZM177.698 201.825H179.41C179.324 202.369 179.111 202.855 178.77 203.281C178.439 203.697 177.986 204.028 177.41 204.273C176.834 204.508 176.146 204.625 175.346 204.625C174.439 204.625 173.628 204.46 172.914 204.129C172.199 203.788 171.639 203.308 171.234 202.689C170.828 202.071 170.626 201.335 170.626 200.481C170.626 199.639 170.823 198.903 171.218 198.273C171.612 197.644 172.156 197.159 172.85 196.817C173.554 196.476 174.364 196.305 175.282 196.305C176.231 196.305 177.02 196.476 177.65 196.817C178.29 197.148 178.764 197.649 179.074 198.321C179.383 198.983 179.511 199.82 179.458 200.833H172.434C172.487 201.281 172.631 201.687 172.866 202.049C173.111 202.401 173.442 202.679 173.858 202.881C174.274 203.073 174.759 203.169 175.314 203.169C175.932 203.169 176.45 203.047 176.866 202.801C177.292 202.556 177.57 202.231 177.698 201.825ZM175.234 197.745C174.508 197.745 173.911 197.927 173.442 198.289C172.972 198.641 172.668 199.095 172.53 199.649H177.666C177.623 199.052 177.383 198.588 176.946 198.257C176.508 197.916 175.938 197.745 175.234 197.745ZM186.162 204.625C185.511 204.625 184.956 204.497 184.498 204.241C184.05 203.985 183.687 203.649 183.41 203.233C183.143 202.807 182.946 202.353 182.818 201.873C182.69 201.383 182.626 200.919 182.626 200.481C182.626 199.895 182.684 199.351 182.802 198.849C182.93 198.348 183.127 197.911 183.394 197.537C183.671 197.153 184.034 196.855 184.482 196.641C184.94 196.417 185.5 196.305 186.162 196.305C186.908 196.305 187.58 196.487 188.178 196.849C188.775 197.201 189.25 197.692 189.602 198.321C189.954 198.94 190.13 199.66 190.13 200.481C190.13 201.303 189.948 202.028 189.586 202.657C189.234 203.276 188.759 203.761 188.162 204.113C187.564 204.455 186.898 204.625 186.162 204.625ZM185.634 203.153C186.167 203.153 186.636 203.041 187.042 202.817C187.447 202.593 187.762 202.279 187.986 201.873C188.21 201.468 188.322 201.004 188.322 200.481C188.322 199.681 188.087 199.031 187.618 198.529C187.148 198.017 186.487 197.761 185.634 197.761C185.1 197.761 184.62 197.873 184.194 198.097C183.767 198.321 183.431 198.636 183.186 199.041C182.94 199.436 182.818 199.916 182.818 200.481C182.818 200.993 182.93 201.452 183.154 201.857C183.378 202.263 183.698 202.583 184.114 202.817C184.53 203.041 185.036 203.153 185.634 203.153ZM181.042 196.481H182.738L182.818 198.433V207.649H181.042V196.481ZM195.954 204.625C195.068 204.625 194.274 204.465 193.57 204.145C192.866 203.825 192.311 203.356 191.906 202.737C191.5 202.119 191.298 201.367 191.298 200.481C191.298 199.607 191.5 198.86 191.906 198.241C192.311 197.612 192.866 197.132 193.57 196.801C194.274 196.471 195.068 196.305 195.954 196.305C196.839 196.305 197.628 196.471 198.322 196.801C199.015 197.132 199.559 197.612 199.954 198.241C200.359 198.86 200.562 199.607 200.562 200.481C200.562 201.367 200.359 202.119 199.954 202.737C199.559 203.356 199.015 203.825 198.322 204.145C197.628 204.465 196.839 204.625 195.954 204.625ZM195.954 203.169C196.466 203.169 196.935 203.068 197.362 202.865C197.788 202.663 198.124 202.359 198.37 201.953C198.626 201.548 198.754 201.057 198.754 200.481C198.754 199.905 198.626 199.415 198.37 199.009C198.124 198.604 197.788 198.295 197.362 198.081C196.946 197.857 196.476 197.745 195.954 197.745C195.431 197.745 194.956 197.852 194.53 198.065C194.103 198.279 193.756 198.588 193.49 198.993C193.234 199.399 193.106 199.895 193.106 200.481C193.106 201.057 193.234 201.548 193.49 201.953C193.746 202.359 194.087 202.663 194.514 202.865C194.951 203.068 195.431 203.169 195.954 203.169ZM201.799 201.825H203.447C203.533 202.231 203.751 202.561 204.103 202.817C204.455 203.063 204.93 203.185 205.527 203.185C205.911 203.185 206.21 203.143 206.423 203.057C206.647 202.972 206.802 202.855 206.887 202.705C206.983 202.556 207.031 202.385 207.031 202.193C207.031 201.959 206.962 201.777 206.823 201.649C206.695 201.521 206.503 201.415 206.247 201.329C205.991 201.244 205.671 201.169 205.287 201.105C204.893 201.009 204.503 200.903 204.119 200.785C203.735 200.668 203.389 200.524 203.079 200.353C202.77 200.172 202.525 199.948 202.343 199.681C202.173 199.404 202.087 199.068 202.087 198.673C202.087 198.311 202.167 197.985 202.327 197.697C202.498 197.399 202.733 197.148 203.031 196.945C203.33 196.743 203.682 196.588 204.087 196.481C204.493 196.364 204.935 196.305 205.415 196.305C206.109 196.305 206.685 196.417 207.143 196.641C207.613 196.865 207.965 197.18 208.199 197.585C208.445 197.991 208.567 198.455 208.567 198.977H206.999C206.914 198.551 206.749 198.241 206.503 198.049C206.258 197.857 205.89 197.761 205.399 197.761C204.909 197.761 204.535 197.847 204.279 198.017C204.023 198.188 203.895 198.423 203.895 198.721C203.895 198.945 203.975 199.127 204.135 199.265C204.306 199.393 204.546 199.505 204.855 199.601C205.165 199.697 205.527 199.793 205.943 199.889C206.327 199.996 206.69 200.108 207.031 200.225C207.373 200.332 207.677 200.471 207.943 200.641C208.221 200.801 208.439 201.015 208.599 201.281C208.759 201.548 208.839 201.879 208.839 202.273C208.839 202.764 208.706 203.185 208.439 203.537C208.183 203.889 207.81 204.161 207.319 204.353C206.829 204.535 206.237 204.625 205.543 204.625C204.935 204.625 204.407 204.556 203.959 204.417C203.522 204.279 203.154 204.097 202.855 203.873C202.567 203.649 202.343 203.409 202.183 203.153C202.023 202.897 201.911 202.652 201.847 202.417C201.794 202.183 201.778 201.985 201.799 201.825ZM212.528 193.105V194.817H210.4V193.105H212.528ZM210.56 196.481H212.352V204.449H210.56V196.481ZM213.919 196.481H219.551V197.937H213.919V196.481ZM215.839 194.337H217.631V204.449H215.839V194.337ZM233.98 194.081V195.649H226.716V198.657H232.668V200.161H226.716V204.449H224.892V194.081H233.98ZM243.111 204.449H241.335V196.481H243.111V204.449ZM241.431 200.657L241.447 201.169C241.426 201.308 241.378 201.516 241.303 201.793C241.239 202.071 241.127 202.375 240.967 202.705C240.818 203.025 240.615 203.335 240.359 203.633C240.114 203.921 239.805 204.161 239.431 204.353C239.058 204.535 238.605 204.625 238.071 204.625C237.687 204.625 237.298 204.572 236.903 204.465C236.519 204.369 236.167 204.204 235.847 203.969C235.538 203.735 235.287 203.415 235.095 203.009C234.903 202.604 234.807 202.092 234.807 201.473V196.481H236.583V201.137C236.583 201.639 236.663 202.033 236.823 202.321C236.994 202.599 237.229 202.796 237.527 202.913C237.826 203.031 238.173 203.089 238.567 203.089C239.133 203.089 239.613 202.961 240.007 202.705C240.402 202.449 240.717 202.135 240.951 201.761C241.197 201.377 241.357 201.009 241.431 200.657ZM245.073 196.481H246.849V204.449H245.073V196.481ZM250.209 196.305C250.668 196.305 251.089 196.369 251.473 196.497C251.868 196.625 252.204 196.823 252.481 197.089C252.769 197.345 252.988 197.665 253.137 198.049C253.297 198.433 253.377 198.887 253.377 199.409V204.449H251.601V199.761C251.601 199.111 251.441 198.631 251.121 198.321C250.812 198.001 250.321 197.841 249.649 197.841C249.137 197.841 248.668 197.953 248.241 198.177C247.825 198.391 247.484 198.673 247.217 199.025C246.95 199.367 246.796 199.745 246.753 200.161L246.737 199.297C246.79 198.903 246.908 198.529 247.089 198.177C247.27 197.815 247.51 197.495 247.809 197.217C248.108 196.929 248.46 196.705 248.865 196.545C249.27 196.385 249.718 196.305 250.209 196.305ZM258.891 204.625C258.155 204.625 257.483 204.449 256.875 204.097C256.277 203.745 255.803 203.26 255.451 202.641C255.099 202.012 254.923 201.292 254.923 200.481C254.923 199.649 255.093 198.924 255.435 198.305C255.787 197.676 256.256 197.185 256.843 196.833C257.44 196.481 258.123 196.305 258.891 196.305C259.563 196.305 260.128 196.417 260.587 196.641C261.045 196.855 261.408 197.153 261.675 197.537C261.941 197.911 262.133 198.348 262.251 198.849C262.379 199.351 262.443 199.895 262.443 200.481C262.443 200.919 262.379 201.383 262.251 201.873C262.123 202.353 261.92 202.801 261.643 203.217C261.376 203.633 261.013 203.975 260.555 204.241C260.107 204.497 259.552 204.625 258.891 204.625ZM259.435 203.153C260.032 203.153 260.539 203.041 260.955 202.817C261.381 202.583 261.701 202.263 261.915 201.857C262.139 201.452 262.251 200.993 262.251 200.481C262.251 199.916 262.139 199.436 261.915 199.041C261.691 198.636 261.371 198.321 260.955 198.097C260.539 197.873 260.032 197.761 259.435 197.761C258.581 197.761 257.92 198.017 257.451 198.529C256.981 199.031 256.747 199.681 256.747 200.481C256.747 201.004 256.859 201.468 257.083 201.873C257.317 202.279 257.637 202.593 258.043 202.817C258.448 203.041 258.912 203.153 259.435 203.153ZM262.251 193.281H264.043V204.449H262.379C262.357 204.204 262.331 203.9 262.299 203.537C262.267 203.175 262.251 202.849 262.251 202.561V193.281ZM265.955 201.825H267.603C267.689 202.231 267.907 202.561 268.259 202.817C268.611 203.063 269.086 203.185 269.683 203.185C270.067 203.185 270.366 203.143 270.579 203.057C270.803 202.972 270.958 202.855 271.043 202.705C271.139 202.556 271.187 202.385 271.187 202.193C271.187 201.959 271.118 201.777 270.979 201.649C270.851 201.521 270.659 201.415 270.403 201.329C270.147 201.244 269.827 201.169 269.443 201.105C269.049 201.009 268.659 200.903 268.275 200.785C267.891 200.668 267.545 200.524 267.235 200.353C266.926 200.172 266.681 199.948 266.499 199.681C266.329 199.404 266.243 199.068 266.243 198.673C266.243 198.311 266.323 197.985 266.483 197.697C266.654 197.399 266.889 197.148 267.187 196.945C267.486 196.743 267.838 196.588 268.243 196.481C268.649 196.364 269.091 196.305 269.571 196.305C270.265 196.305 270.841 196.417 271.299 196.641C271.769 196.865 272.121 197.18 272.355 197.585C272.601 197.991 272.723 198.455 272.723 198.977H271.155C271.07 198.551 270.905 198.241 270.659 198.049C270.414 197.857 270.046 197.761 269.555 197.761C269.065 197.761 268.691 197.847 268.435 198.017C268.179 198.188 268.051 198.423 268.051 198.721C268.051 198.945 268.131 199.127 268.291 199.265C268.462 199.393 268.702 199.505 269.011 199.601C269.321 199.697 269.683 199.793 270.099 199.889C270.483 199.996 270.846 200.108 271.187 200.225C271.529 200.332 271.833 200.471 272.099 200.641C272.377 200.801 272.595 201.015 272.755 201.281C272.915 201.548 272.995 201.879 272.995 202.273C272.995 202.764 272.862 203.185 272.595 203.537C272.339 203.889 271.966 204.161 271.475 204.353C270.985 204.535 270.393 204.625 269.699 204.625C269.091 204.625 268.563 204.556 268.115 204.417C267.678 204.279 267.31 204.097 267.011 203.873C266.723 203.649 266.499 203.409 266.339 203.153C266.179 202.897 266.067 202.652 266.003 202.417C265.95 202.183 265.934 201.985 265.955 201.825Z" fill="black"/>
<circle cx="75.1055" cy="357.308" r="39.0225" fill="#FF823B"/>
<path d="M75.9055 355.953L75.9455 355.753C77.1188 355.833 78.1988 355.993 79.1855 356.233C80.1988 356.473 81.0655 356.846 81.7855 357.353C82.5321 357.859 83.1055 358.526 83.5055 359.353C83.9321 360.179 84.1455 361.193 84.1455 362.393C84.1455 363.806 83.7721 365.073 83.0255 366.193C82.2788 367.339 81.2388 368.246 79.9055 368.913C78.5721 369.579 77.0121 369.913 75.2255 369.913C73.5188 369.913 71.9855 369.566 70.6255 368.873C69.2921 368.206 68.2521 367.286 67.5055 366.113C66.7855 364.939 66.4788 363.633 66.5855 362.193H70.1055C70.1055 363.019 70.3055 363.753 70.7055 364.393C71.1321 365.059 71.7188 365.579 72.4655 365.953C73.2388 366.326 74.1588 366.513 75.2255 366.513C76.7721 366.513 77.9855 366.113 78.8655 365.313C79.7721 364.513 80.2255 363.419 80.2255 362.033C80.2255 360.673 79.7321 359.619 78.7455 358.873C77.7588 358.099 76.3855 357.713 74.6255 357.713H72.0255V354.433H74.6255C75.7988 354.433 76.7721 354.273 77.5455 353.953C78.3188 353.633 78.8921 353.179 79.2655 352.593C79.6388 351.979 79.8255 351.259 79.8255 350.433C79.8255 349.259 79.4388 348.313 78.6655 347.593C77.9188 346.873 76.7588 346.513 75.1855 346.513C73.7988 346.513 72.6655 346.886 71.7855 347.633C70.9055 348.353 70.4521 349.299 70.4255 350.473H66.9455C66.8388 349.406 66.9855 348.433 67.3855 347.553C67.7855 346.646 68.3721 345.859 69.1455 345.193C69.9188 344.499 70.8255 343.979 71.8655 343.633C72.9055 343.259 74.0121 343.073 75.1855 343.073C76.9188 343.073 78.4255 343.379 79.7055 343.993C80.9855 344.606 81.9721 345.446 82.6655 346.513C83.3588 347.579 83.7055 348.793 83.7055 350.153C83.7055 351.273 83.5055 352.206 83.1055 352.953C82.7321 353.699 82.1988 354.286 81.5055 354.713C80.8121 355.139 79.9855 355.446 79.0255 355.633C78.0655 355.819 77.0255 355.926 75.9055 355.953Z" fill="white"/>
<path d="M157.416 353.126H167.368V354.694H157.416V353.126ZM161.496 354.502H163.304V363.494H161.496V354.502ZM167.682 355.526H169.458V363.494H167.682V355.526ZM172.338 357.046C171.762 357.046 171.266 357.169 170.85 357.414C170.445 357.659 170.12 357.958 169.874 358.31C169.629 358.662 169.458 359.003 169.362 359.334L169.346 358.438C169.357 358.321 169.394 358.145 169.458 357.91C169.522 357.665 169.618 357.398 169.746 357.11C169.885 356.822 170.066 356.545 170.29 356.278C170.525 356.001 170.808 355.777 171.138 355.606C171.48 355.435 171.88 355.35 172.338 355.35V357.046ZM177.234 363.67C176.509 363.67 175.842 363.494 175.234 363.142C174.637 362.79 174.157 362.305 173.794 361.686C173.442 361.057 173.266 360.337 173.266 359.526C173.266 358.694 173.448 357.969 173.81 357.35C174.173 356.721 174.664 356.23 175.282 355.878C175.901 355.526 176.594 355.35 177.362 355.35C178.216 355.35 178.893 355.537 179.394 355.91C179.896 356.283 180.253 356.785 180.466 357.414C180.68 358.043 180.786 358.747 180.786 359.526C180.786 359.963 180.722 360.427 180.594 360.918C180.466 361.398 180.264 361.846 179.986 362.262C179.72 362.678 179.357 363.019 178.898 363.286C178.45 363.542 177.896 363.67 177.234 363.67ZM177.778 362.198C178.376 362.198 178.882 362.086 179.298 361.862C179.725 361.627 180.045 361.307 180.258 360.902C180.482 360.497 180.594 360.038 180.594 359.526C180.594 358.961 180.482 358.481 180.258 358.086C180.034 357.681 179.714 357.371 179.298 357.158C178.882 356.934 178.376 356.822 177.778 356.822C176.925 356.822 176.264 357.073 175.794 357.574C175.325 358.075 175.09 358.726 175.09 359.526C175.09 360.049 175.202 360.513 175.426 360.918C175.661 361.323 175.981 361.638 176.386 361.862C176.792 362.086 177.256 362.198 177.778 362.198ZM180.594 355.526H182.386V363.494H180.722C180.722 363.494 180.712 363.393 180.69 363.19C180.669 362.987 180.648 362.742 180.626 362.454C180.605 362.155 180.594 361.873 180.594 361.606V355.526ZM192.915 360.406C192.851 361.089 192.632 361.675 192.259 362.166C191.885 362.657 191.384 363.03 190.755 363.286C190.136 363.542 189.421 363.67 188.611 363.67C187.736 363.67 186.941 363.51 186.227 363.19C185.523 362.87 184.963 362.401 184.547 361.782C184.131 361.163 183.923 360.411 183.923 359.526C183.923 358.641 184.131 357.889 184.547 357.27C184.963 356.651 185.523 356.177 186.227 355.846C186.941 355.515 187.736 355.35 188.611 355.35C189.421 355.35 190.136 355.483 190.755 355.75C191.373 356.006 191.869 356.374 192.243 356.854C192.616 357.334 192.835 357.915 192.899 358.598H191.267C191.085 358.033 190.755 357.595 190.275 357.286C189.805 356.966 189.251 356.806 188.611 356.806C188.088 356.806 187.608 356.913 187.171 357.126C186.733 357.329 186.381 357.633 186.115 358.038C185.859 358.433 185.731 358.929 185.731 359.526C185.731 360.113 185.859 360.609 186.115 361.014C186.381 361.419 186.733 361.723 187.171 361.926C187.608 362.118 188.088 362.214 188.611 362.214C189.315 362.214 189.891 362.059 190.339 361.75C190.797 361.43 191.112 360.982 191.283 360.406H192.915ZM194.639 352.326H196.415V363.494H194.639V352.326ZM202.623 355.526L198.159 359.622L198.207 358.502L202.959 363.494H200.687L196.463 359.03L200.159 355.526H202.623ZM207.344 360.054H209.12C209.163 360.449 209.318 360.806 209.584 361.126C209.862 361.435 210.224 361.681 210.672 361.862C211.131 362.033 211.654 362.118 212.24 362.118C212.763 362.118 213.195 362.054 213.536 361.926C213.878 361.798 214.128 361.622 214.288 361.398C214.459 361.163 214.544 360.891 214.544 360.582C214.544 360.273 214.443 360.033 214.24 359.862C214.048 359.681 213.75 359.531 213.344 359.414C212.939 359.286 212.422 359.163 211.792 359.046C211.27 358.95 210.763 358.822 210.272 358.662C209.782 358.502 209.339 358.299 208.944 358.054C208.56 357.809 208.256 357.51 208.032 357.158C207.808 356.795 207.696 356.369 207.696 355.878C207.696 355.323 207.851 354.822 208.16 354.374C208.48 353.926 208.95 353.574 209.568 353.318C210.187 353.062 210.939 352.934 211.824 352.934C213.179 352.934 214.214 353.249 214.928 353.878C215.643 354.497 215.99 355.339 215.968 356.406H214.224C214.192 355.734 213.947 355.249 213.488 354.95C213.03 354.651 212.448 354.502 211.744 354.502C211.115 354.502 210.587 354.614 210.16 354.838C209.734 355.062 209.52 355.425 209.52 355.926C209.52 356.139 209.568 356.326 209.664 356.486C209.771 356.635 209.942 356.774 210.176 356.902C210.411 357.019 210.731 357.137 211.136 357.254C211.552 357.361 212.059 357.478 212.656 357.606C213.168 357.691 213.648 357.809 214.096 357.958C214.544 358.107 214.934 358.294 215.264 358.518C215.606 358.742 215.872 359.03 216.064 359.382C216.256 359.734 216.352 360.166 216.352 360.678C216.352 361.265 216.203 361.787 215.904 362.246C215.606 362.694 215.147 363.051 214.528 363.318C213.92 363.574 213.131 363.702 212.16 363.702C211.424 363.702 210.779 363.617 210.224 363.446C209.68 363.265 209.216 363.035 208.832 362.758C208.448 362.47 208.139 362.161 207.904 361.83C207.68 361.499 207.52 361.179 207.424 360.87C207.339 360.55 207.312 360.278 207.344 360.054ZM221.531 363.67C220.806 363.67 220.139 363.494 219.531 363.142C218.934 362.79 218.454 362.305 218.091 361.686C217.739 361.057 217.563 360.337 217.563 359.526C217.563 358.694 217.745 357.969 218.107 357.35C218.47 356.721 218.961 356.23 219.579 355.878C220.198 355.526 220.891 355.35 221.659 355.35C222.513 355.35 223.19 355.537 223.691 355.91C224.193 356.283 224.55 356.785 224.763 357.414C224.977 358.043 225.083 358.747 225.083 359.526C225.083 359.963 225.019 360.427 224.891 360.918C224.763 361.398 224.561 361.846 224.283 362.262C224.017 362.678 223.654 363.019 223.195 363.286C222.747 363.542 222.193 363.67 221.531 363.67ZM222.075 362.198C222.673 362.198 223.179 362.086 223.595 361.862C224.022 361.627 224.342 361.307 224.555 360.902C224.779 360.497 224.891 360.038 224.891 359.526C224.891 358.961 224.779 358.481 224.555 358.086C224.331 357.681 224.011 357.371 223.595 357.158C223.179 356.934 222.673 356.822 222.075 356.822C221.222 356.822 220.561 357.073 220.091 357.574C219.622 358.075 219.387 358.726 219.387 359.526C219.387 360.049 219.499 360.513 219.723 360.918C219.958 361.323 220.278 361.638 220.683 361.862C221.089 362.086 221.553 362.198 222.075 362.198ZM224.891 355.526H226.683V363.494H225.019C225.019 363.494 225.009 363.393 224.987 363.19C224.966 362.987 224.945 362.742 224.923 362.454C224.902 362.155 224.891 361.873 224.891 361.606V355.526ZM232.54 362.23H231.916L234.668 355.526H236.604L233.084 363.494H231.388L227.916 355.526H229.868L232.54 362.23ZM239.966 352.15V353.862H237.838V352.15H239.966ZM237.998 355.526H239.79V363.494H237.998V355.526ZM241.917 355.526H243.693V363.494H241.917V355.526ZM247.053 355.35C247.511 355.35 247.933 355.414 248.317 355.542C248.711 355.67 249.047 355.867 249.325 356.134C249.613 356.39 249.831 356.71 249.981 357.094C250.141 357.478 250.221 357.931 250.221 358.454V363.494H248.445V358.806C248.445 358.155 248.285 357.675 247.965 357.366C247.655 357.046 247.165 356.886 246.493 356.886C245.981 356.886 245.511 356.998 245.085 357.222C244.669 357.435 244.327 357.718 244.061 358.07C243.794 358.411 243.639 358.79 243.597 359.206L243.581 358.342C243.634 357.947 243.751 357.574 243.933 357.222C244.114 356.859 244.354 356.539 244.653 356.262C244.951 355.974 245.303 355.75 245.709 355.59C246.114 355.43 246.562 355.35 247.053 355.35ZM255.734 362.262C254.988 362.262 254.31 362.129 253.702 361.862C253.105 361.595 252.63 361.206 252.278 360.694C251.937 360.182 251.766 359.569 251.766 358.854C251.766 358.139 251.932 357.521 252.262 356.998C252.604 356.475 253.073 356.07 253.67 355.782C254.278 355.494 254.966 355.35 255.734 355.35C255.958 355.35 256.172 355.366 256.374 355.398C256.588 355.43 256.79 355.473 256.982 355.526L260.71 355.542V357.03C260.198 357.041 259.681 356.971 259.158 356.822C258.646 356.662 258.193 356.497 257.798 356.326L257.75 356.23C258.113 356.411 258.438 356.635 258.726 356.902C259.025 357.158 259.26 357.451 259.43 357.782C259.601 358.113 259.686 358.486 259.686 358.902C259.686 359.606 259.516 360.209 259.174 360.71C258.844 361.211 258.38 361.595 257.782 361.862C257.196 362.129 256.513 362.262 255.734 362.262ZM258.294 366.742V366.374C258.294 365.851 258.14 365.483 257.83 365.27C257.521 365.057 257.089 364.95 256.534 364.95H254.374C253.948 364.95 253.58 364.913 253.27 364.838C252.972 364.774 252.732 364.673 252.55 364.534C252.369 364.406 252.236 364.251 252.15 364.07C252.065 363.899 252.022 363.707 252.022 363.494C252.022 363.067 252.15 362.747 252.406 362.534C252.673 362.321 253.02 362.182 253.446 362.118C253.884 362.054 254.342 362.043 254.822 362.086L255.734 362.262C255.105 362.283 254.625 362.342 254.294 362.438C253.974 362.523 253.814 362.699 253.814 362.966C253.814 363.126 253.878 363.254 254.006 363.35C254.134 363.446 254.316 363.494 254.55 363.494H256.822C257.473 363.494 258.044 363.569 258.534 363.718C259.025 363.878 259.404 364.139 259.67 364.502C259.948 364.875 260.086 365.382 260.086 366.022V366.742H258.294ZM255.734 360.87C256.161 360.87 256.54 360.79 256.87 360.63C257.201 360.47 257.462 360.241 257.654 359.942C257.846 359.643 257.942 359.281 257.942 358.854C257.942 358.427 257.846 358.059 257.654 357.75C257.462 357.441 257.201 357.206 256.87 357.046C256.54 356.886 256.161 356.806 255.734 356.806C255.318 356.806 254.94 356.886 254.598 357.046C254.268 357.206 254.006 357.441 253.814 357.75C253.622 358.049 253.526 358.417 253.526 358.854C253.526 359.281 253.622 359.643 253.814 359.942C254.006 360.241 254.268 360.47 254.598 360.63C254.929 360.79 255.308 360.87 255.734 360.87ZM261.784 360.87H263.432C263.517 361.275 263.736 361.606 264.088 361.862C264.44 362.107 264.914 362.23 265.512 362.23C265.896 362.23 266.194 362.187 266.408 362.102C266.632 362.017 266.786 361.899 266.872 361.75C266.968 361.601 267.016 361.43 267.016 361.238C267.016 361.003 266.946 360.822 266.808 360.694C266.68 360.566 266.488 360.459 266.232 360.374C265.976 360.289 265.656 360.214 265.272 360.15C264.877 360.054 264.488 359.947 264.104 359.83C263.72 359.713 263.373 359.569 263.064 359.398C262.754 359.217 262.509 358.993 262.328 358.726C262.157 358.449 262.072 358.113 262.072 357.718C262.072 357.355 262.152 357.03 262.312 356.742C262.482 356.443 262.717 356.193 263.016 355.99C263.314 355.787 263.666 355.633 264.072 355.526C264.477 355.409 264.92 355.35 265.4 355.35C266.093 355.35 266.669 355.462 267.128 355.686C267.597 355.91 267.949 356.225 268.184 356.63C268.429 357.035 268.552 357.499 268.552 358.022H266.984C266.898 357.595 266.733 357.286 266.488 357.094C266.242 356.902 265.874 356.806 265.384 356.806C264.893 356.806 264.52 356.891 264.264 357.062C264.008 357.233 263.88 357.467 263.88 357.766C263.88 357.99 263.96 358.171 264.12 358.31C264.29 358.438 264.53 358.55 264.84 358.646C265.149 358.742 265.512 358.838 265.928 358.934C266.312 359.041 266.674 359.153 267.016 359.27C267.357 359.377 267.661 359.515 267.928 359.686C268.205 359.846 268.424 360.059 268.584 360.326C268.744 360.593 268.824 360.923 268.824 361.318C268.824 361.809 268.69 362.23 268.424 362.582C268.168 362.934 267.794 363.206 267.304 363.398C266.813 363.579 266.221 363.67 265.528 363.67C264.92 363.67 264.392 363.601 263.944 363.462C263.506 363.323 263.138 363.142 262.84 362.918C262.552 362.694 262.328 362.454 262.168 362.198C262.008 361.942 261.896 361.697 261.832 361.462C261.778 361.227 261.762 361.03 261.784 360.87Z" fill="black"/>
<circle cx="39.1055" cy="521.353" r="39.0225" fill="#2D79FD"/>
<path d="M45.0255 508.192V534.152H41.2255V512.232L42.2255 512.592L32.3055 526.552L31.5855 525.192H41.8655V528.472H28.9455V525.192L41.2255 508.192H45.0255ZM44.3855 528.472V525.192H48.9855V528.472H44.3855Z" fill="white"/>
<path d="M160.2 518.123V520.971H167.48V522.539H158.376V512.171H167.464V513.739H160.2V516.619H166.152V518.123H160.2ZM172.797 522.715C172.072 522.715 171.405 522.539 170.797 522.187C170.2 521.835 169.72 521.35 169.357 520.731C169.005 520.102 168.829 519.382 168.829 518.571C168.829 517.739 169.01 517.014 169.373 516.395C169.736 515.766 170.226 515.275 170.845 514.923C171.464 514.571 172.157 514.395 172.925 514.395C173.778 514.395 174.456 514.582 174.957 514.955C175.458 515.328 175.816 515.83 176.029 516.459C176.242 517.088 176.349 517.792 176.349 518.571C176.349 519.008 176.285 519.472 176.157 519.963C176.029 520.443 175.826 520.891 175.549 521.307C175.282 521.723 174.92 522.064 174.461 522.331C174.013 522.587 173.458 522.715 172.797 522.715ZM173.341 521.243C173.938 521.243 174.445 521.131 174.861 520.907C175.288 520.672 175.608 520.352 175.821 519.947C176.045 519.542 176.157 519.083 176.157 518.571C176.157 518.006 176.045 517.526 175.821 517.131C175.597 516.726 175.277 516.416 174.861 516.203C174.445 515.979 173.938 515.867 173.341 515.867C172.488 515.867 171.826 516.118 171.357 516.619C170.888 517.12 170.653 517.771 170.653 518.571C170.653 519.094 170.765 519.558 170.989 519.963C171.224 520.368 171.544 520.683 171.949 520.907C172.354 521.131 172.818 521.243 173.341 521.243ZM176.157 514.571H177.949V522.539H176.285C176.285 522.539 176.274 522.438 176.253 522.235C176.232 522.032 176.21 521.787 176.189 521.499C176.168 521.2 176.157 520.918 176.157 520.651V514.571ZM179.901 514.571H181.677V522.539H179.901V514.571ZM184.557 516.091C183.981 516.091 183.485 516.214 183.069 516.459C182.664 516.704 182.339 517.003 182.093 517.355C181.848 517.707 181.677 518.048 181.581 518.379L181.565 517.483C181.576 517.366 181.613 517.19 181.677 516.955C181.741 516.71 181.837 516.443 181.965 516.155C182.104 515.867 182.285 515.59 182.509 515.323C182.744 515.046 183.027 514.822 183.357 514.651C183.699 514.48 184.099 514.395 184.557 514.395V516.091ZM185.901 514.571H187.677V522.539H185.901V514.571ZM191.037 514.395C191.496 514.395 191.917 514.459 192.301 514.587C192.696 514.715 193.032 514.912 193.309 515.179C193.597 515.435 193.816 515.755 193.965 516.139C194.125 516.523 194.205 516.976 194.205 517.499V522.539H192.429V517.851C192.429 517.2 192.269 516.72 191.949 516.411C191.64 516.091 191.149 515.931 190.477 515.931C189.965 515.931 189.496 516.043 189.069 516.267C188.653 516.48 188.312 516.763 188.045 517.115C187.779 517.456 187.624 517.835 187.581 518.251L187.565 517.387C187.619 516.992 187.736 516.619 187.917 516.267C188.099 515.904 188.339 515.584 188.637 515.307C188.936 515.019 189.288 514.795 189.693 514.635C190.099 514.475 190.547 514.395 191.037 514.395ZM200.414 512.171H202.238V522.539H200.414V512.171ZM204.776 514.571H206.552V522.539H204.776V514.571ZM209.912 514.395C210.371 514.395 210.792 514.459 211.176 514.587C211.571 514.715 211.907 514.912 212.184 515.179C212.472 515.435 212.691 515.755 212.84 516.139C213 516.523 213.08 516.976 213.08 517.499V522.539H211.304V517.851C211.304 517.2 211.144 516.72 210.824 516.411C210.515 516.091 210.024 515.931 209.352 515.931C208.84 515.931 208.371 516.043 207.944 516.267C207.528 516.48 207.187 516.763 206.92 517.115C206.654 517.456 206.499 517.835 206.456 518.251L206.44 517.387C206.494 516.992 206.611 516.619 206.792 516.267C206.974 515.904 207.214 515.584 207.512 515.307C207.811 515.019 208.163 514.795 208.568 514.635C208.974 514.475 209.422 514.395 209.912 514.395ZM214.482 514.571H220.114V516.027H214.482V514.571ZM216.402 512.427H218.194V522.539H216.402V512.427ZM228.042 519.915H229.754C229.668 520.459 229.455 520.944 229.114 521.371C228.783 521.787 228.33 522.118 227.754 522.363C227.178 522.598 226.49 522.715 225.69 522.715C224.783 522.715 223.972 522.55 223.258 522.219C222.543 521.878 221.983 521.398 221.578 520.779C221.172 520.16 220.97 519.424 220.97 518.571C220.97 517.728 221.167 516.992 221.562 516.363C221.956 515.734 222.5 515.248 223.194 514.907C223.898 514.566 224.708 514.395 225.626 514.395C226.575 514.395 227.364 514.566 227.994 514.907C228.634 515.238 229.108 515.739 229.418 516.411C229.727 517.072 229.855 517.91 229.802 518.923H222.778C222.831 519.371 222.975 519.776 223.21 520.139C223.455 520.491 223.786 520.768 224.202 520.971C224.618 521.163 225.103 521.259 225.658 521.259C226.276 521.259 226.794 521.136 227.21 520.891C227.636 520.646 227.914 520.32 228.042 519.915ZM225.578 515.835C224.852 515.835 224.255 516.016 223.786 516.379C223.316 516.731 223.012 517.184 222.874 517.739H228.01C227.967 517.142 227.727 516.678 227.29 516.347C226.852 516.006 226.282 515.835 225.578 515.835ZM231.386 514.571H233.162V522.539H231.386V514.571ZM236.042 516.091C235.466 516.091 234.97 516.214 234.554 516.459C234.148 516.704 233.823 517.003 233.578 517.355C233.332 517.707 233.162 518.048 233.066 518.379L233.05 517.483C233.06 517.366 233.098 517.19 233.162 516.955C233.226 516.71 233.322 516.443 233.45 516.155C233.588 515.867 233.77 515.59 233.994 515.323C234.228 515.046 234.511 514.822 234.842 514.651C235.183 514.48 235.583 514.395 236.042 514.395V516.091ZM244.042 519.915H245.754C245.668 520.459 245.455 520.944 245.114 521.371C244.783 521.787 244.33 522.118 243.754 522.363C243.178 522.598 242.49 522.715 241.69 522.715C240.783 522.715 239.972 522.55 239.258 522.219C238.543 521.878 237.983 521.398 237.578 520.779C237.172 520.16 236.97 519.424 236.97 518.571C236.97 517.728 237.167 516.992 237.562 516.363C237.956 515.734 238.5 515.248 239.194 514.907C239.898 514.566 240.708 514.395 241.626 514.395C242.575 514.395 243.364 514.566 243.994 514.907C244.634 515.238 245.108 515.739 245.418 516.411C245.727 517.072 245.855 517.91 245.802 518.923H238.778C238.831 519.371 238.975 519.776 239.21 520.139C239.455 520.491 239.786 520.768 240.202 520.971C240.618 521.163 241.103 521.259 241.658 521.259C242.276 521.259 242.794 521.136 243.21 520.891C243.636 520.646 243.914 520.32 244.042 519.915ZM241.578 515.835C240.852 515.835 240.255 516.016 239.786 516.379C239.316 516.731 239.012 517.184 238.874 517.739H244.01C243.967 517.142 243.727 516.678 243.29 516.347C242.852 516.006 242.282 515.835 241.578 515.835ZM247.034 519.915H248.682C248.767 520.32 248.986 520.651 249.338 520.907C249.69 521.152 250.164 521.275 250.762 521.275C251.146 521.275 251.444 521.232 251.658 521.147C251.882 521.062 252.036 520.944 252.122 520.795C252.218 520.646 252.266 520.475 252.266 520.283C252.266 520.048 252.196 519.867 252.058 519.739C251.93 519.611 251.738 519.504 251.482 519.419C251.226 519.334 250.906 519.259 250.522 519.195C250.127 519.099 249.738 518.992 249.354 518.875C248.97 518.758 248.623 518.614 248.314 518.443C248.004 518.262 247.759 518.038 247.578 517.771C247.407 517.494 247.322 517.158 247.322 516.763C247.322 516.4 247.402 516.075 247.562 515.787C247.732 515.488 247.967 515.238 248.266 515.035C248.564 514.832 248.916 514.678 249.322 514.571C249.727 514.454 250.17 514.395 250.65 514.395C251.343 514.395 251.919 514.507 252.378 514.731C252.847 514.955 253.199 515.27 253.434 515.675C253.679 516.08 253.802 516.544 253.802 517.067H252.234C252.148 516.64 251.983 516.331 251.738 516.139C251.492 515.947 251.124 515.851 250.634 515.851C250.143 515.851 249.77 515.936 249.514 516.107C249.258 516.278 249.13 516.512 249.13 516.811C249.13 517.035 249.21 517.216 249.37 517.355C249.54 517.483 249.78 517.595 250.09 517.691C250.399 517.787 250.762 517.883 251.178 517.979C251.562 518.086 251.924 518.198 252.266 518.315C252.607 518.422 252.911 518.56 253.178 518.731C253.455 518.891 253.674 519.104 253.834 519.371C253.994 519.638 254.074 519.968 254.074 520.363C254.074 520.854 253.94 521.275 253.674 521.627C253.418 521.979 253.044 522.251 252.554 522.443C252.063 522.624 251.471 522.715 250.778 522.715C250.17 522.715 249.642 522.646 249.194 522.507C248.756 522.368 248.388 522.187 248.09 521.963C247.802 521.739 247.578 521.499 247.418 521.243C247.258 520.987 247.146 520.742 247.082 520.507C247.028 520.272 247.012 520.075 247.034 519.915ZM255.122 514.571H260.754V516.027H255.122V514.571ZM257.042 512.427H258.834V522.539H257.042V512.427Z" fill="black"/>
<circle cx="61.1055" cy="675.397" r="39.0225" fill="#23A323"/>
<path d="M63.1455 671.695C64.3721 671.695 65.4921 671.895 66.5055 672.295C67.5188 672.668 68.3988 673.228 69.1455 673.975C69.8921 674.695 70.4655 675.588 70.8655 676.655C71.2921 677.695 71.5055 678.882 71.5055 680.215C71.5055 682.002 71.0921 683.535 70.2655 684.815C69.4655 686.095 68.3588 687.082 66.9455 687.775C65.5588 688.468 63.9988 688.815 62.2655 688.815C60.9588 688.815 59.7321 688.628 58.5855 688.255C57.4388 687.908 56.4255 687.388 55.5455 686.695C54.6655 686.002 53.9455 685.162 53.3855 684.175C52.8521 683.215 52.5455 682.108 52.4655 680.855H56.2255C56.3321 681.815 56.6388 682.628 57.1455 683.295C57.6788 683.988 58.3721 684.495 59.2255 684.815C60.1055 685.162 61.0921 685.335 62.1855 685.335C62.9055 685.335 63.5988 685.228 64.2655 685.015C64.9321 684.802 65.5188 684.482 66.0255 684.055C66.5588 683.628 66.9721 683.095 67.2655 682.455C67.5588 681.815 67.7055 681.068 67.7055 680.215C67.7055 679.362 67.5588 678.615 67.2655 677.975C66.9988 677.335 66.6255 676.802 66.1455 676.375C65.6655 675.922 65.0921 675.588 64.4255 675.375C63.7855 675.135 63.1055 675.015 62.3855 675.015C61.6655 675.015 60.9321 675.108 60.1855 675.295C59.4655 675.455 58.7988 675.762 58.1855 676.215C57.5988 676.668 57.0921 677.295 56.6655 678.095L53.2255 677.415L54.1455 662.375H69.2655V665.815H57.7455L57.0255 676.615L56.6655 676.335C56.9588 675.268 57.4388 674.402 58.1055 673.735C58.7721 673.042 59.5455 672.535 60.4255 672.215C61.3055 671.868 62.2121 671.695 63.1455 671.695Z" fill="white"/>
<path d="M161.592 677.584L157.448 667.216H159.432L162.952 676.336H162.376L165.736 667.216H167.8L171.16 676.336H170.584L174.104 667.216H176.056L171.96 677.584H169.816L166.504 668.48H167.048L163.72 677.584H161.592ZM179.45 666.24V667.952H177.322V666.24H179.45ZM177.482 669.616H179.274V677.584H177.482V669.616ZM180.841 669.616H186.473V671.072H180.841V669.616ZM182.761 667.472H184.553V677.584H182.761V667.472ZM194.558 677.584V672.976C194.558 672.549 194.483 672.197 194.334 671.92C194.195 671.632 193.977 671.413 193.678 671.264C193.379 671.115 192.985 671.04 192.494 671.04C192.003 671.04 191.555 671.147 191.15 671.36C190.745 671.563 190.414 671.835 190.158 672.176C189.902 672.517 189.753 672.896 189.71 673.312L189.694 672.416C189.747 672.032 189.865 671.664 190.046 671.312C190.227 670.949 190.467 670.629 190.766 670.352C191.065 670.075 191.417 669.856 191.822 669.696C192.227 669.525 192.675 669.44 193.166 669.44C193.625 669.44 194.046 669.504 194.43 669.632C194.825 669.76 195.161 669.952 195.438 670.208C195.726 670.453 195.945 670.763 196.094 671.136C196.254 671.499 196.334 671.92 196.334 672.4V677.584H194.558ZM188.03 677.584V666.416H189.806V677.584H188.03ZM201.859 677.76C201.123 677.76 200.451 677.584 199.843 677.232C199.246 676.88 198.771 676.395 198.419 675.776C198.067 675.147 197.891 674.427 197.891 673.616C197.891 672.784 198.062 672.059 198.403 671.44C198.755 670.811 199.225 670.32 199.811 669.968C200.409 669.616 201.091 669.44 201.859 669.44C202.531 669.44 203.097 669.552 203.555 669.776C204.014 669.989 204.377 670.288 204.643 670.672C204.91 671.045 205.102 671.483 205.219 671.984C205.347 672.485 205.411 673.029 205.411 673.616C205.411 674.053 205.347 674.517 205.219 675.008C205.091 675.488 204.889 675.936 204.611 676.352C204.345 676.768 203.982 677.109 203.523 677.376C203.075 677.632 202.521 677.76 201.859 677.76ZM202.403 676.288C203.001 676.288 203.507 676.176 203.923 675.952C204.35 675.717 204.67 675.397 204.883 674.992C205.107 674.587 205.219 674.128 205.219 673.616C205.219 673.051 205.107 672.571 204.883 672.176C204.659 671.771 204.339 671.456 203.923 671.232C203.507 671.008 203.001 670.896 202.403 670.896C201.55 670.896 200.889 671.152 200.419 671.664C199.95 672.165 199.715 672.816 199.715 673.616C199.715 674.139 199.827 674.603 200.051 675.008C200.286 675.413 200.606 675.728 201.011 675.952C201.417 676.176 201.881 676.288 202.403 676.288ZM205.219 666.416H207.011V677.584H205.347C205.326 677.339 205.299 677.035 205.267 676.672C205.235 676.309 205.219 675.984 205.219 675.696V666.416ZM209.276 669.616H211.052V677.584H209.276V669.616ZM213.932 671.136C213.356 671.136 212.86 671.259 212.444 671.504C212.039 671.749 211.714 672.048 211.468 672.4C211.223 672.752 211.052 673.093 210.956 673.424L210.94 672.528C210.951 672.411 210.988 672.235 211.052 672C211.116 671.755 211.212 671.488 211.34 671.2C211.479 670.912 211.66 670.635 211.884 670.368C212.119 670.091 212.402 669.867 212.732 669.696C213.074 669.525 213.474 669.44 213.932 669.44V671.136ZM218.828 677.76C218.103 677.76 217.436 677.584 216.828 677.232C216.231 676.88 215.751 676.395 215.388 675.776C215.036 675.147 214.86 674.427 214.86 673.616C214.86 672.784 215.042 672.059 215.404 671.44C215.767 670.811 216.258 670.32 216.876 669.968C217.495 669.616 218.188 669.44 218.956 669.44C219.81 669.44 220.487 669.627 220.988 670C221.49 670.373 221.847 670.875 222.06 671.504C222.274 672.133 222.38 672.837 222.38 673.616C222.38 674.053 222.316 674.517 222.188 675.008C222.06 675.488 221.858 675.936 221.58 676.352C221.314 676.768 220.951 677.109 220.492 677.376C220.044 677.632 219.49 677.76 218.828 677.76ZM219.372 676.288C219.97 676.288 220.476 676.176 220.892 675.952C221.319 675.717 221.639 675.397 221.852 674.992C222.076 674.587 222.188 674.128 222.188 673.616C222.188 673.051 222.076 672.571 221.852 672.176C221.628 671.771 221.308 671.461 220.892 671.248C220.476 671.024 219.97 670.912 219.372 670.912C218.519 670.912 217.858 671.163 217.388 671.664C216.919 672.165 216.684 672.816 216.684 673.616C216.684 674.139 216.796 674.603 217.02 675.008C217.255 675.413 217.575 675.728 217.98 675.952C218.386 676.176 218.85 676.288 219.372 676.288ZM222.188 669.616H223.98V677.584H222.316C222.316 677.584 222.306 677.483 222.284 677.28C222.263 677.077 222.242 676.832 222.22 676.544C222.199 676.245 222.188 675.963 222.188 675.696V669.616ZM235.436 676.24L234.908 676.224L237.228 669.616H239.18L236.076 677.584H234.396L231.916 670.944H232.476L229.932 677.584H228.252L225.212 669.616H227.164L229.42 676.24H228.892L231.164 669.616H233.244L235.436 676.24ZM253.495 667.216V668.784H246.231V671.792H252.183V673.296H246.231V677.584H244.407V667.216H253.495ZM262.627 677.584H260.851V669.616H262.627V677.584ZM260.947 673.792L260.963 674.304C260.942 674.443 260.894 674.651 260.819 674.928C260.755 675.205 260.643 675.509 260.483 675.84C260.334 676.16 260.131 676.469 259.875 676.768C259.63 677.056 259.32 677.296 258.947 677.488C258.574 677.669 258.12 677.76 257.587 677.76C257.203 677.76 256.814 677.707 256.419 677.6C256.035 677.504 255.683 677.339 255.363 677.104C255.054 676.869 254.803 676.549 254.611 676.144C254.419 675.739 254.323 675.227 254.323 674.608V669.616H256.099V674.272C256.099 674.773 256.179 675.168 256.339 675.456C256.51 675.733 256.744 675.931 257.043 676.048C257.342 676.165 257.688 676.224 258.083 676.224C258.648 676.224 259.128 676.096 259.523 675.84C259.918 675.584 260.232 675.269 260.467 674.896C260.712 674.512 260.872 674.144 260.947 673.792ZM264.589 669.616H266.365V677.584H264.589V669.616ZM269.725 669.44C270.183 669.44 270.605 669.504 270.989 669.632C271.383 669.76 271.719 669.957 271.997 670.224C272.285 670.48 272.503 670.8 272.653 671.184C272.813 671.568 272.893 672.021 272.893 672.544V677.584H271.117V672.896C271.117 672.245 270.957 671.765 270.637 671.456C270.327 671.136 269.837 670.976 269.165 670.976C268.653 670.976 268.183 671.088 267.757 671.312C267.341 671.525 266.999 671.808 266.733 672.16C266.466 672.501 266.311 672.88 266.269 673.296L266.253 672.432C266.306 672.037 266.423 671.664 266.605 671.312C266.786 670.949 267.026 670.629 267.325 670.352C267.623 670.064 267.975 669.84 268.381 669.68C268.786 669.52 269.234 669.44 269.725 669.44ZM278.406 677.76C277.67 677.76 276.998 677.584 276.39 677.232C275.793 676.88 275.318 676.395 274.966 675.776C274.614 675.147 274.438 674.427 274.438 673.616C274.438 672.784 274.609 672.059 274.95 671.44C275.302 670.811 275.772 670.32 276.358 669.968C276.956 669.616 277.638 669.44 278.406 669.44C279.078 669.44 279.644 669.552 280.102 669.776C280.561 669.989 280.924 670.288 281.19 670.672C281.457 671.045 281.649 671.483 281.766 671.984C281.894 672.485 281.958 673.029 281.958 673.616C281.958 674.053 281.894 674.517 281.766 675.008C281.638 675.488 281.436 675.936 281.158 676.352C280.892 676.768 280.529 677.109 280.07 677.376C279.622 677.632 279.068 677.76 278.406 677.76ZM278.95 676.288C279.548 676.288 280.054 676.176 280.47 675.952C280.897 675.717 281.217 675.397 281.43 674.992C281.654 674.587 281.766 674.128 281.766 673.616C281.766 673.051 281.654 672.571 281.43 672.176C281.206 671.771 280.886 671.456 280.47 671.232C280.054 671.008 279.548 670.896 278.95 670.896C278.097 670.896 277.436 671.152 276.966 671.664C276.497 672.165 276.262 672.816 276.262 673.616C276.262 674.139 276.374 674.603 276.598 675.008C276.833 675.413 277.153 675.728 277.558 675.952C277.964 676.176 278.428 676.288 278.95 676.288ZM281.766 666.416H283.558V677.584H281.894C281.873 677.339 281.846 677.035 281.814 676.672C281.782 676.309 281.766 675.984 281.766 675.696V666.416ZM285.471 674.96H287.119C287.204 675.365 287.423 675.696 287.775 675.952C288.127 676.197 288.602 676.32 289.199 676.32C289.583 676.32 289.882 676.277 290.095 676.192C290.319 676.107 290.474 675.989 290.559 675.84C290.655 675.691 290.703 675.52 290.703 675.328C290.703 675.093 290.634 674.912 290.495 674.784C290.367 674.656 290.175 674.549 289.919 674.464C289.663 674.379 289.343 674.304 288.959 674.24C288.564 674.144 288.175 674.037 287.791 673.92C287.407 673.803 287.06 673.659 286.751 673.488C286.442 673.307 286.196 673.083 286.015 672.816C285.844 672.539 285.759 672.203 285.759 671.808C285.759 671.445 285.839 671.12 285.999 670.832C286.17 670.533 286.404 670.283 286.703 670.08C287.002 669.877 287.354 669.723 287.759 669.616C288.164 669.499 288.607 669.44 289.087 669.44C289.78 669.44 290.356 669.552 290.815 669.776C291.284 670 291.636 670.315 291.871 670.72C292.116 671.125 292.239 671.589 292.239 672.112H290.671C290.586 671.685 290.42 671.376 290.175 671.184C289.93 670.992 289.562 670.896 289.071 670.896C288.58 670.896 288.207 670.981 287.951 671.152C287.695 671.323 287.567 671.557 287.567 671.856C287.567 672.08 287.647 672.261 287.807 672.4C287.978 672.528 288.218 672.64 288.527 672.736C288.836 672.832 289.199 672.928 289.615 673.024C289.999 673.131 290.362 673.243 290.703 673.36C291.044 673.467 291.348 673.605 291.615 673.776C291.892 673.936 292.111 674.149 292.271 674.416C292.431 674.683 292.511 675.013 292.511 675.408C292.511 675.899 292.378 676.32 292.111 676.672C291.855 677.024 291.482 677.296 290.991 677.488C290.5 677.669 289.908 677.76 289.215 677.76C288.607 677.76 288.079 677.691 287.631 677.552C287.194 677.413 286.826 677.232 286.527 677.008C286.239 676.784 286.015 676.544 285.855 676.288C285.695 676.032 285.583 675.787 285.519 675.552C285.466 675.317 285.45 675.12 285.471 674.96Z" fill="black"/>
</g>
<defs>
<clipPath id="clip0_4830_46973">
<rect width="307" height="714" fill="white"/>
</clipPath>
</defs>
</svg>
