<svg width="139" height="59" viewBox="0 0 139 59" fill="none" xmlns="http://www.w3.org/2000/svg">
<path d="M137.79 13.8507C138.3 14.0626 138.542 14.6478 138.33 15.1578C138.118 15.6679 137.533 15.9096 137.023 15.6977L137.79 13.8507ZM7.82904 58.3314C7.4016 58.6811 6.77158 58.6181 6.42184 58.1907L0.722717 51.225C0.372986 50.7976 0.435989 50.1676 0.863434 49.8179C1.29088 49.4681 1.9209 49.5311 2.27063 49.9586L7.33652 56.1502L13.5282 51.0843C13.9556 50.7346 14.5857 50.7976 14.9354 51.2251C15.2851 51.6525 15.2221 52.2825 14.7947 52.6323L7.82904 58.3314ZM134.699 14.7532C134.185 14.5492 133.935 13.9678 134.139 13.4546C134.343 12.9413 134.924 12.6907 135.437 12.8947L134.699 14.7532ZM130.636 11.0673C131.155 11.2563 131.422 11.8302 131.233 12.3492C131.044 12.8681 130.47 13.1355 129.951 12.9465L130.636 11.0673ZM125.154 11.2731C124.63 11.0982 124.347 10.5318 124.522 10.0079C124.697 9.48407 125.263 9.20109 125.787 9.37591L125.154 11.2731ZM120.898 7.8162C121.426 7.97712 121.724 8.53585 121.563 9.06417C121.402 9.5925 120.844 9.89034 120.315 9.72943L120.898 7.8162ZM115.444 8.3153C114.912 8.16829 114.6 7.61755 114.747 7.08519C114.894 6.55283 115.444 6.24045 115.977 6.38746L115.444 8.3153ZM111.019 5.08858C111.555 5.22144 111.882 5.7637 111.749 6.29977C111.616 6.83584 111.074 7.16271 110.538 7.02986L111.019 5.08858ZM105.598 5.87642C105.059 5.7582 104.717 5.22502 104.835 4.68554C104.954 4.14606 105.487 3.80455 106.026 3.92277L105.598 5.87642ZM101.002 2.89547C101.545 2.99839 101.901 3.52169 101.798 4.0643C101.695 4.60691 101.172 4.96335 100.629 4.86044L101.002 2.89547ZM95.6345 3.98907C95.0891 3.90232 94.7172 3.38984 94.804 2.84441C94.8907 2.29898 95.4032 1.92714 95.9486 2.01389L95.6345 3.98907ZM90.8692 1.2871C91.4171 1.35661 91.8049 1.85711 91.7354 2.405C91.6659 2.95289 91.1654 3.34071 90.6175 3.2712L90.8692 1.2871ZM85.5823 2.71761C85.0324 2.66665 84.6279 2.17953 84.6789 1.6296C84.7298 1.07967 85.217 0.675181 85.7669 0.726149L85.5823 2.71761ZM80.6452 0.344218C81.1966 0.375112 81.6186 0.847171 81.5877 1.39859C81.5568 1.95001 81.0848 2.37198 80.5333 2.34109L80.6452 0.344218ZM75.4767 2.15673C74.9244 2.14771 74.4841 1.69274 74.4931 1.14053C74.5021 0.588317 74.9571 0.147975 75.5093 0.156996L75.4767 2.15673ZM70.3663 0.182831C70.9184 0.167892 71.378 0.603333 71.393 1.15542C71.4079 1.7075 70.9725 2.16716 70.4204 2.1821L70.3663 0.182831ZM65.3751 2.43732C64.8243 2.47861 64.3444 2.06562 64.3031 1.51488C64.2618 0.964142 64.6748 0.484209 65.2255 0.44292L65.3751 2.43732ZM60.0996 0.961438C60.6474 0.891104 61.1485 1.27816 61.2189 1.82594C61.2892 2.37373 60.9021 2.87482 60.3544 2.94515L60.0996 0.961438ZM55.376 3.73083C54.8332 3.83318 54.3103 3.47619 54.208 2.93348C54.1056 2.39076 54.4626 1.86783 55.0053 1.76547L55.376 3.73083ZM49.9644 2.88463C50.4993 2.74709 51.0444 3.06921 51.182 3.60409C51.3195 4.13898 50.9974 4.68408 50.4625 4.82162L49.9644 2.88463ZM45.6409 6.24637C45.1174 6.42231 44.5504 6.14054 44.3744 5.61703C44.1985 5.09352 44.4802 4.52651 45.0038 4.35057L45.6409 6.24637ZM40.1628 6.19298C40.6706 5.97569 41.2583 6.21115 41.4756 6.71889C41.6929 7.22663 41.4574 7.81439 40.9497 8.03168L40.1628 6.19298ZM36.4327 10.2003C35.946 10.4612 35.3398 10.2781 35.0789 9.79139C34.818 9.30463 35.0011 8.69851 35.4878 8.43758L36.4327 10.2003ZM31.0323 11.1012C31.4922 10.7955 32.1129 10.9206 32.4186 11.3806C32.7243 11.8405 32.5993 12.4612 32.1393 12.7669L31.0323 11.1012ZM28.1211 15.7344C27.6939 16.0844 27.0639 16.0217 26.7139 15.5945C26.3639 15.1673 26.4265 14.5372 26.8537 14.1872L28.1211 15.7344ZM23.0078 17.6814C23.3969 17.2895 24.0301 17.2873 24.422 17.6764C24.8139 18.0656 24.8161 18.6987 24.427 19.0906L23.0078 17.6814ZM21.0973 22.8079C20.7503 23.2376 20.1207 23.3047 19.691 22.9577C19.2613 22.6107 19.1943 21.9811 19.5412 21.5514L21.0973 22.8079ZM16.4856 25.7498C16.7881 25.2877 17.408 25.1584 17.87 25.4609C18.3321 25.7634 18.4614 26.3833 18.1589 26.8453L16.4856 25.7498ZM15.6227 31.1538C15.3649 31.6422 14.76 31.8293 14.2716 31.5716C13.7831 31.3139 13.596 30.709 13.8537 30.2205L15.6227 31.1538ZM11.6402 34.9076C11.8544 34.3985 12.4406 34.1594 12.9497 34.3736C13.4588 34.5877 13.6979 35.174 13.4837 35.6831L11.6402 34.9076ZM11.7246 40.3884C11.5515 40.9129 10.9861 41.1978 10.4616 41.0248C9.93712 40.8517 9.65223 40.2863 9.82527 39.7618L11.7246 40.3884ZM8.38052 44.7456C8.51552 44.21 9.05908 43.8853 9.59461 44.0203C10.1301 44.1553 10.4549 44.6989 10.3199 45.2344L8.38052 44.7456ZM9.25117 50.1423C9.1506 50.6853 8.62885 51.044 8.0858 50.9435C7.54274 50.8429 7.18404 50.3211 7.28461 49.7781L9.25117 50.1423ZM6.49706 54.8445C6.56667 54.2966 7.06725 53.9089 7.61513 53.9785C8.16301 54.0481 8.55072 54.5487 8.48111 55.0966L6.49706 54.8445ZM137.023 15.6977C136.263 15.3821 135.488 15.0671 134.699 14.7532L135.437 12.8947C136.236 13.2122 137.021 13.5311 137.79 13.8507L137.023 15.6977ZM129.951 12.9465C128.394 12.3792 126.793 11.8202 125.154 11.2731L125.787 9.37591C127.444 9.92878 129.062 10.4938 130.636 11.0673L129.951 12.9465ZM120.315 9.72943C118.72 9.24344 117.095 8.77104 115.444 8.3153L115.977 6.38746C117.644 6.84792 119.286 7.32519 120.898 7.8162L120.315 9.72943ZM110.538 7.02986C108.909 6.62635 107.262 6.24097 105.598 5.87642L106.026 3.92277C107.708 4.2913 109.373 4.68081 111.019 5.08858L110.538 7.02986ZM100.629 4.86044C98.9748 4.54664 97.3088 4.25535 95.6345 3.98907L95.9486 2.01389C97.6431 2.28338 99.3287 2.5781 101.002 2.89547L100.629 4.86044ZM90.6175 3.2712C88.9427 3.05874 87.2632 2.87339 85.5823 2.71761L85.7669 0.726149C87.471 0.884081 89.1728 1.07191 90.8692 1.2871L90.6175 3.2712ZM80.5333 2.34109C78.8445 2.24647 77.1578 2.18419 75.4767 2.15673L75.5093 0.156996C77.218 0.184909 78.9311 0.248181 80.6452 0.344218L80.5333 2.34109ZM70.4204 2.1821C68.7281 2.22789 67.0452 2.31212 65.3751 2.43732L65.2255 0.44292C66.9288 0.315227 68.6436 0.229445 70.3663 0.182831L70.4204 2.1821ZM60.3544 2.94515C58.6763 3.16061 57.0156 3.42161 55.376 3.73083L55.0053 1.76547C56.6852 1.44867 58.3846 1.18165 60.0996 0.961438L60.3544 2.94515ZM50.4625 4.82162C48.8276 5.242 47.2191 5.71596 45.6409 6.24637L45.0038 4.35057C46.6299 3.80406 48.2849 3.3165 49.9644 2.88463L50.4625 4.82162ZM40.9497 8.03168C39.4071 8.69187 37.9 9.41372 36.4327 10.2003L35.4878 8.43758C37.0086 7.62232 38.5685 6.87528 40.1628 6.19298L40.9497 8.03168ZM32.1393 12.7669C30.755 13.687 29.4142 14.6751 28.1211 15.7344L26.8537 14.1872C28.1995 13.0848 29.5939 12.0572 31.0323 11.1012L32.1393 12.7669ZM24.427 19.0906C23.2676 20.2583 22.1564 21.4964 21.0973 22.8079L19.5412 21.5514C20.6435 20.1864 21.8004 18.8974 23.0078 17.6814L24.427 19.0906ZM18.1589 26.8453C17.2635 28.2128 16.417 29.648 15.6227 31.1538L13.8537 30.2205C14.677 28.66 15.5554 27.1705 16.4856 25.7498L18.1589 26.8453ZM13.4837 35.6831C12.8501 37.1893 12.2628 38.7571 11.7246 40.3884L9.82527 39.7618C10.3797 38.0814 10.9855 36.4639 11.6402 34.9076L13.4837 35.6831ZM10.3199 45.2344C9.92107 46.8165 9.56419 48.452 9.25117 50.1423L7.28461 49.7781C7.60513 48.0473 7.97101 46.3702 8.38052 44.7456L10.3199 45.2344ZM8.48111 55.0966C8.37425 55.9377 8.27742 56.7911 8.19084 57.6569L6.20076 57.4579C6.28909 56.5746 6.38792 55.7035 6.49706 54.8445L8.48111 55.0966Z" fill="url(#paint0_linear_4908_41040)"/>
<defs>
<linearGradient id="paint0_linear_4908_41040" x1="15.0178" y1="47.0967" x2="120.598" y2="8.03581" gradientUnits="userSpaceOnUse">
<stop stop-color="#FFBD00"/>
<stop offset="1" stop-color="#FFBD00" stop-opacity="0"/>
</linearGradient>
</defs>
</svg>
