<svg width="616" height="118" viewBox="0 0 616 118" fill="none" xmlns="http://www.w3.org/2000/svg">
<g clip-path="url(#clip0_6433_64289)">
<g opacity="0.5">
<g clip-path="url(#clip1_6433_64289)">
<g clip-path="url(#clip2_6433_64289)">
<rect x="-24.2344" y="0.710938" width="116.853" height="124.365" fill="#328A28"/>
<circle cx="-2.52482" cy="105.047" r="96.8209" fill="#FFBD00"/>
</g>
<g clip-path="url(#clip3_6433_64289)">
<rect x="92.6143" y="0.710938" width="116.853" height="124.365" fill="white"/>
<circle cx="187.777" cy="105.047" r="96.8209" fill="#FF823B"/>
</g>
<g clip-path="url(#clip4_6433_64289)">
<rect x="209.467" y="0.710938" width="116.853" height="124.365" fill="#FFBD00"/>
<ellipse cx="193.503" cy="7.18864" rx="130.262" ry="118.419" transform="rotate(-11.0849 193.503 7.18864)" fill="#0E280B"/>
</g>
<g clip-path="url(#clip5_6433_64289)">
<rect x="326.328" y="0.710938" width="116.853" height="124.365" fill="#FF823B"/>
<ellipse cx="439.006" cy="14.9806" rx="110.933" ry="105.203" transform="rotate(46.0164 439.006 14.9806)" fill="#328A28"/>
</g>
</g>
</g>
<path d="M61.0082 90.8911C53.5335 90.8911 47.0096 89.547 41.4364 86.8588C35.9287 84.1705 31.6341 80.3676 28.5524 75.4501C25.5363 70.5325 24.0283 64.6643 24.0283 57.8453C24.0283 51.0263 25.5363 45.1581 28.5524 40.2405C31.6341 35.2574 35.9287 31.4545 41.4364 28.8318C47.0096 26.1436 53.5335 24.7994 61.0082 24.7994C68.5484 24.7994 75.0723 26.1436 80.58 28.8318C86.0876 31.4545 90.3495 35.2574 93.3656 40.2405C96.4472 45.1581 97.9881 51.0263 97.9881 57.8453C97.9881 64.6643 96.4472 70.5325 93.3656 75.4501C90.3495 80.3676 86.0876 84.1705 80.58 86.8588C75.0723 89.547 68.5484 90.8911 61.0082 90.8911ZM61.0082 81.0561C65.9913 81.0561 70.3843 80.2037 74.1872 78.499C77.9901 76.7942 80.9734 74.2371 83.1371 70.8276C85.3664 67.3525 86.481 63.0251 86.481 57.8453C86.481 52.7311 85.3664 48.4692 83.1371 45.0597C80.9734 41.5846 77.9901 38.9947 74.1872 37.29C70.3843 35.5197 65.9913 34.6345 61.0082 34.6345C56.0906 34.6345 51.6976 35.5197 47.8292 37.29C43.9607 38.9947 40.9118 41.5846 38.6826 45.0597C36.4533 48.4692 35.3386 52.7311 35.3386 57.8453C35.3386 63.0251 36.4533 67.3525 38.6826 70.8276C40.9118 74.2371 43.9607 76.7942 47.8292 78.499C51.6976 80.2037 56.0906 81.0561 61.0082 81.0561ZM160.288 89.7109H149.371V40.7323H160.288V89.7109ZM149.961 66.4018L150.059 69.549C149.928 70.4014 149.633 71.68 149.174 73.3847C148.781 75.0895 148.092 76.9581 147.109 78.9907C146.191 80.9577 144.945 82.8592 143.372 84.695C141.864 86.4654 139.962 87.9406 137.667 89.1208C135.372 90.2355 132.586 90.7928 129.307 90.7928C126.947 90.7928 124.554 90.465 122.128 89.8093C119.767 89.2192 117.604 88.2029 115.637 86.7604C113.735 85.3179 112.194 83.3509 111.014 80.8594C109.834 78.3678 109.244 75.2206 109.244 71.4177V40.7323H120.161V69.3523C120.161 72.434 120.653 74.86 121.636 76.6303C122.685 78.335 124.128 79.548 125.963 80.2693C127.799 80.9905 129.93 81.3511 132.356 81.3511C135.831 81.3511 138.782 80.5643 141.208 78.9907C143.634 77.4171 145.568 75.4829 147.011 73.188C148.519 70.8276 149.502 68.5655 149.961 66.4018ZM172.346 40.7323H183.263V89.7109H172.346V40.7323ZM200.966 50.0756C197.425 50.0756 194.376 50.8296 191.819 52.3377C189.328 53.8457 187.328 55.6816 185.82 57.8453C184.312 60.009 183.263 62.1072 182.673 64.1397L182.574 58.6321C182.64 57.9109 182.869 56.829 183.263 55.3865C183.656 53.8785 184.246 52.2393 185.033 50.469C185.885 48.6987 187 46.9939 188.377 45.3548C189.819 43.65 191.557 42.2731 193.59 41.224C195.688 40.1749 198.147 39.6504 200.966 39.6504V50.0756ZM300.641 67.3853C299.986 72.3029 298.248 76.5319 295.429 80.0726C292.609 83.5476 288.839 86.2359 284.118 88.1373C279.463 89.9732 274.021 90.8911 267.792 90.8911C262.416 90.8911 257.465 90.1699 252.941 88.7274C248.483 87.285 244.581 85.1868 241.237 82.433C237.959 79.6136 235.402 76.1713 233.566 72.1062C231.796 67.9754 230.911 63.2546 230.911 57.9436C230.911 52.5671 231.796 47.8463 233.566 43.7811C235.402 39.716 237.959 36.2737 241.237 33.4543C244.581 30.5694 248.483 28.4056 252.941 26.9632C257.465 25.5207 262.416 24.7994 267.792 24.7994C274.087 24.7994 279.561 25.7502 284.217 27.6516C288.938 29.5531 292.708 32.2741 295.527 35.8147C298.346 39.3554 300.051 43.6172 300.641 48.6003H289.823C288.905 45.6498 287.462 43.1583 285.495 41.1257C283.528 39.0275 281.037 37.4211 278.021 36.3065C275.07 35.1918 271.661 34.6345 267.792 34.6345C262.94 34.6345 258.58 35.5525 254.712 37.3883C250.843 39.1587 247.794 41.7813 245.565 45.2564C243.401 48.6659 242.319 52.895 242.319 57.9436C242.319 62.9268 243.401 67.1558 245.565 70.6309C247.794 74.0404 250.843 76.6303 254.712 78.4006C258.58 80.1709 262.94 81.0561 267.792 81.0561C271.661 81.0561 275.07 80.5315 278.021 79.4825C280.971 78.3678 283.43 76.7942 285.397 74.7616C287.364 72.6635 288.806 70.2047 289.724 67.3853H300.641ZM362.944 89.7109H352.027V40.7323H362.944V89.7109ZM352.617 66.4018L352.716 69.549C352.585 70.4014 352.29 71.68 351.831 73.3847C351.437 75.0895 350.749 76.9581 349.765 78.9907C348.847 80.9577 347.601 82.8592 346.028 84.695C344.52 86.4654 342.618 87.9406 340.324 89.1208C338.029 90.2355 335.242 90.7928 331.964 90.7928C329.603 90.7928 327.21 90.465 324.784 89.8093C322.424 89.2192 320.26 88.2029 318.293 86.7604C316.391 85.3179 314.851 83.3509 313.67 80.8594C312.49 78.3678 311.9 75.2206 311.9 71.4177V40.7323H322.817V69.3523C322.817 72.434 323.309 74.86 324.292 76.6303C325.341 78.335 326.784 79.548 328.62 80.2693C330.456 80.9905 332.587 81.3511 335.013 81.3511C338.488 81.3511 341.438 80.5643 343.864 78.9907C346.29 77.4171 348.224 75.4829 349.667 73.188C351.175 70.8276 352.158 68.5655 352.617 66.4018ZM375.986 21.0621H386.903V89.7109H375.986V21.0621ZM394.803 40.7323H429.422V49.6822H394.803V40.7323ZM406.605 27.5533H417.62V89.7109H406.605V27.5533ZM489.052 89.7109H478.135V40.7323H489.052V89.7109ZM478.725 66.4018L478.824 69.549C478.693 70.4014 478.397 71.68 477.938 73.3847C477.545 75.0895 476.857 76.9581 475.873 78.9907C474.955 80.9577 473.709 82.8592 472.136 84.695C470.628 86.4654 468.726 87.9406 466.431 89.1208C464.137 90.2355 461.35 90.7928 458.072 90.7928C455.711 90.7928 453.318 90.465 450.892 89.8093C448.532 89.2192 446.368 88.2029 444.401 86.7604C442.499 85.3179 440.959 83.3509 439.778 80.8594C438.598 78.3678 438.008 75.2206 438.008 71.4177V40.7323H448.925V69.3523C448.925 72.434 449.417 74.86 450.4 76.6303C451.449 78.335 452.892 79.548 454.728 80.2693C456.564 80.9905 458.695 81.3511 461.121 81.3511C464.596 81.3511 467.546 80.5643 469.972 78.9907C472.398 77.4171 474.332 75.4829 475.775 73.188C477.283 70.8276 478.266 68.5655 478.725 66.4018ZM501.11 40.7323H512.027V89.7109H501.11V40.7323ZM529.73 50.0756C526.19 50.0756 523.141 50.8296 520.584 52.3377C518.092 53.8457 516.092 55.6816 514.584 57.8453C513.076 60.009 512.027 62.1072 511.437 64.1397L511.339 58.6321C511.404 57.9109 511.634 56.829 512.027 55.3865C512.42 53.8785 513.011 52.2393 513.797 50.469C514.65 48.6987 515.764 46.9939 517.141 45.3548C518.584 43.65 520.321 42.2731 522.354 41.224C524.452 40.1749 526.911 39.6504 529.73 39.6504V50.0756ZM578.906 73.5814H589.429C588.905 76.9253 587.593 79.9086 585.495 82.5313C583.462 85.0885 580.676 87.121 577.135 88.6291C573.595 90.0716 569.365 90.7928 564.448 90.7928C558.875 90.7928 553.892 89.7765 549.499 87.7439C545.106 85.6458 541.663 82.6953 539.172 78.8924C536.68 75.0895 535.434 70.5653 535.434 65.32C535.434 60.1401 536.647 55.616 539.073 51.7476C541.499 47.8791 544.843 44.8958 549.105 42.7976C553.433 40.6995 558.416 39.6504 564.055 39.6504C569.89 39.6504 574.742 40.6995 578.61 42.7976C582.544 44.8302 585.462 47.9119 587.364 52.0426C589.265 56.1078 590.052 61.2548 589.724 67.4837H546.548C546.876 70.2375 547.761 72.729 549.204 74.9583C550.712 77.122 552.744 78.8268 555.301 80.0726C557.858 81.2528 560.842 81.8429 564.251 81.8429C568.054 81.8429 571.234 81.0889 573.791 79.5808C576.414 78.0728 578.119 76.073 578.906 73.5814ZM563.759 48.502C559.301 48.502 555.629 49.6166 552.744 51.8459C549.859 54.0096 547.991 56.7962 547.138 60.2057H578.709C578.447 56.534 576.971 53.6818 574.283 51.6492C571.595 49.551 568.087 48.502 563.759 48.502Z" fill="white"/>
</g>
<defs>
<clipPath id="clip0_6433_64289">
<rect width="616" height="117.289" fill="white" transform="translate(0 0.710938)"/>
</clipPath>
<clipPath id="clip1_6433_64289">
<rect y="1" width="616" height="117" rx="10" fill="white"/>
</clipPath>
<clipPath id="clip2_6433_64289">
<rect width="116.853" height="124.365" fill="white" transform="translate(-24.2344 0.710938)"/>
</clipPath>
<clipPath id="clip3_6433_64289">
<rect width="116.853" height="124.365" fill="white" transform="translate(92.6143 0.710938)"/>
</clipPath>
<clipPath id="clip4_6433_64289">
<rect width="116.853" height="124.365" fill="white" transform="translate(209.468 0.710938)"/>
</clipPath>
<clipPath id="clip5_6433_64289">
<rect width="116.853" height="124.365" fill="white" transform="translate(326.328 0.710938)"/>
</clipPath>
</defs>
</svg>
