<svg width="516" height="118" viewBox="0 0 516 118" fill="none" xmlns="http://www.w3.org/2000/svg">
<path d="M93.0436 83.2231C88.3303 83.2231 84.1303 82.2665 80.4436 80.3531C76.8036 78.4398 73.9336 75.7331 71.8336 72.2331C69.7803 68.7331 68.7536 64.5798 68.7536 59.7731C68.7536 54.9198 69.7803 50.7431 71.8336 47.2431C73.9336 43.7431 76.8036 41.0365 80.4436 39.1231C84.1303 37.2098 88.3303 36.2531 93.0436 36.2531C97.8036 36.2531 102.004 37.2098 105.644 39.1231C109.284 41.0365 112.154 43.7431 114.254 47.2431C116.354 50.7431 117.404 54.9198 117.404 59.7731C117.404 64.5798 116.354 68.7331 114.254 72.2331C112.154 75.7331 109.284 78.4398 105.644 80.3531C102.004 82.2665 97.8036 83.2231 93.0436 83.2231ZM93.0436 77.1331C96.4036 77.1331 99.3903 76.4798 102.004 75.1731C104.617 73.8665 106.694 71.9298 108.234 69.3631C109.774 66.7965 110.544 63.5998 110.544 59.7731C110.544 55.9465 109.774 52.7498 108.234 50.1831C106.694 47.6165 104.617 45.6798 102.004 44.3731C99.3903 43.0198 96.4036 42.3431 93.0436 42.3431C89.7769 42.3431 86.8136 43.0198 84.1536 44.3731C81.4936 45.6798 79.3936 47.6165 77.8536 50.1831C76.3136 52.7498 75.5436 55.9465 75.5436 59.7731C75.5436 63.5998 76.3136 66.7965 77.8536 69.3631C79.3936 71.9298 81.4936 73.8665 84.1536 75.1731C86.8136 76.4798 89.7769 77.1331 93.0436 77.1331ZM158.345 82.4531H151.695V47.5231H158.345V82.4531ZM152.045 66.0031L152.115 68.1031C152.068 68.7098 151.905 69.6198 151.625 70.8331C151.392 71.9998 150.972 73.2831 150.365 74.6831C149.805 76.0831 149.012 77.4365 147.985 78.7431C147.005 80.0498 145.745 81.1231 144.205 81.9631C142.665 82.8031 140.798 83.2231 138.605 83.2231C137.112 83.2231 135.572 83.0131 133.985 82.5931C132.445 82.1731 131.022 81.4731 129.715 80.4931C128.408 79.5131 127.358 78.1831 126.565 76.5031C125.772 74.7765 125.375 72.6298 125.375 70.0631V47.5231H132.095V68.6631C132.095 70.8098 132.422 72.4898 133.075 73.7031C133.775 74.9165 134.755 75.7798 136.015 76.2931C137.275 76.8065 138.698 77.0631 140.285 77.0631C142.712 77.0631 144.742 76.4798 146.375 75.3131C148.055 74.0998 149.362 72.6531 150.295 70.9731C151.228 69.2465 151.812 67.5898 152.045 66.0031ZM167.142 47.5231H173.862V82.4531H167.142V47.5231ZM185.692 53.4731C183.266 53.4731 181.189 54.0331 179.462 55.1531C177.782 56.2731 176.429 57.6498 175.402 59.2831C174.422 60.9165 173.769 62.4798 173.442 63.9731L173.372 59.9831C173.419 59.5165 173.536 58.7931 173.722 57.8131C173.956 56.7865 174.352 55.6431 174.912 54.3831C175.472 53.1231 176.219 51.9331 177.152 50.8131C178.086 49.6465 179.252 48.6898 180.652 47.9431C182.052 47.1965 183.732 46.8231 185.692 46.8231V53.4731Z" fill="#041004"/>
<path d="M237.303 78.6731H234.433L256.763 37.0231H263.483V82.4531H256.763V47.5931L258.233 47.9431L239.403 82.4531H232.333L213.503 48.0131L214.973 47.6631V82.4531H208.253V37.0231H214.973L237.303 78.6731ZM281.491 33.1031V40.3131H273.161V33.1031H281.491ZM274.001 47.5231H280.651V82.4531H274.001V47.5231ZM288.581 71.1131H294.741C294.974 72.9798 295.814 74.5198 297.261 75.7331C298.708 76.8998 300.738 77.4831 303.351 77.4831C305.031 77.4831 306.338 77.2965 307.271 76.9231C308.204 76.5031 308.858 75.9431 309.231 75.2431C309.651 74.5431 309.861 73.7731 309.861 72.9331C309.861 71.8598 309.581 71.0431 309.021 70.4831C308.461 69.8765 307.668 69.3865 306.641 69.0131C305.614 68.5931 304.401 68.1965 303.001 67.8231C301.461 67.4031 299.921 66.9131 298.381 66.3531C296.841 65.7931 295.418 65.1165 294.111 64.3231C292.851 63.5298 291.824 62.5498 291.031 61.3831C290.284 60.1698 289.911 58.6998 289.911 56.9731C289.911 55.5265 290.214 54.1731 290.821 52.9131C291.474 51.6531 292.384 50.5798 293.551 49.6931C294.764 48.7598 296.164 48.0598 297.751 47.5931C299.338 47.0798 301.088 46.8231 303.001 46.8231C305.661 46.8231 307.901 47.3131 309.721 48.2931C311.541 49.2265 312.918 50.5565 313.851 52.2831C314.831 54.0098 315.344 55.9931 315.391 58.2331H309.511C309.184 56.2731 308.508 54.8498 307.481 53.9631C306.454 53.0298 304.914 52.5631 302.861 52.5631C300.854 52.5631 299.314 52.9598 298.241 53.7531C297.168 54.5465 296.631 55.6198 296.631 56.9731C296.631 57.9998 297.004 58.8398 297.751 59.4931C298.498 60.0998 299.501 60.6365 300.761 61.1031C302.021 61.5698 303.444 62.0598 305.031 62.5731C306.524 63.0865 307.948 63.6231 309.301 64.1831C310.701 64.6965 311.938 65.3265 313.011 66.0731C314.131 66.7731 314.994 67.7065 315.601 68.8731C316.254 69.9931 316.581 71.3931 316.581 73.0731C316.581 75.1265 316.068 76.9231 315.041 78.4631C314.014 79.9565 312.521 81.1231 310.561 81.9631C308.648 82.8031 306.314 83.2231 303.561 83.2231C301.041 83.2231 298.894 82.9198 297.121 82.3131C295.394 81.7065 293.924 80.9131 292.711 79.9331C291.544 78.9531 290.634 77.9265 289.981 76.8531C289.374 75.7331 288.954 74.6598 288.721 73.6331C288.534 72.6065 288.488 71.7665 288.581 71.1131ZM322.077 71.1131H328.237C328.47 72.9798 329.31 74.5198 330.757 75.7331C332.204 76.8998 334.234 77.4831 336.847 77.4831C338.527 77.4831 339.834 77.2965 340.767 76.9231C341.7 76.5031 342.354 75.9431 342.727 75.2431C343.147 74.5431 343.357 73.7731 343.357 72.9331C343.357 71.8598 343.077 71.0431 342.517 70.4831C341.957 69.8765 341.164 69.3865 340.137 69.0131C339.11 68.5931 337.897 68.1965 336.497 67.8231C334.957 67.4031 333.417 66.9131 331.877 66.3531C330.337 65.7931 328.914 65.1165 327.607 64.3231C326.347 63.5298 325.32 62.5498 324.527 61.3831C323.78 60.1698 323.407 58.6998 323.407 56.9731C323.407 55.5265 323.71 54.1731 324.317 52.9131C324.97 51.6531 325.88 50.5798 327.047 49.6931C328.26 48.7598 329.66 48.0598 331.247 47.5931C332.834 47.0798 334.584 46.8231 336.497 46.8231C339.157 46.8231 341.397 47.3131 343.217 48.2931C345.037 49.2265 346.414 50.5565 347.347 52.2831C348.327 54.0098 348.84 55.9931 348.887 58.2331H343.007C342.68 56.2731 342.004 54.8498 340.977 53.9631C339.95 53.0298 338.41 52.5631 336.357 52.5631C334.35 52.5631 332.81 52.9598 331.737 53.7531C330.664 54.5465 330.127 55.6198 330.127 56.9731C330.127 57.9998 330.5 58.8398 331.247 59.4931C331.994 60.0998 332.997 60.6365 334.257 61.1031C335.517 61.5698 336.94 62.0598 338.527 62.5731C340.02 63.0865 341.444 63.6231 342.797 64.1831C344.197 64.6965 345.434 65.3265 346.507 66.0731C347.627 66.7731 348.49 67.7065 349.097 68.8731C349.75 69.9931 350.077 71.3931 350.077 73.0731C350.077 75.1265 349.564 76.9231 348.537 78.4631C347.51 79.9565 346.017 81.1231 344.057 81.9631C342.144 82.8031 339.81 83.2231 337.057 83.2231C334.537 83.2231 332.39 82.9198 330.617 82.3131C328.89 81.7065 327.42 80.9131 326.207 79.9331C325.04 78.9531 324.13 77.9265 323.477 76.8531C322.87 75.7331 322.45 74.6598 322.217 73.6331C322.03 72.6065 321.984 71.7665 322.077 71.1131ZM365.163 33.1031V40.3131H356.833V33.1031H365.163ZM357.673 47.5231H364.323V82.4531H357.673V47.5231ZM390.663 83.2231C387.256 83.2231 384.129 82.4998 381.283 81.0531C378.436 79.6065 376.173 77.5298 374.493 74.8231C372.813 72.1165 371.973 68.8731 371.973 65.0931C371.973 61.2665 372.813 57.9998 374.493 55.2931C376.173 52.5398 378.436 50.4398 381.283 48.9931C384.129 47.5465 387.256 46.8231 390.663 46.8231C394.069 46.8231 397.173 47.5465 399.973 48.9931C402.773 50.4398 405.013 52.5398 406.693 55.2931C408.373 57.9998 409.213 61.2665 409.213 65.0931C409.213 68.8731 408.373 72.1165 406.693 74.8231C405.013 77.5298 402.773 79.6065 399.973 81.0531C397.173 82.4998 394.069 83.2231 390.663 83.2231ZM390.663 77.4131C392.763 77.4131 394.699 76.9465 396.473 76.0131C398.293 75.0331 399.739 73.6331 400.813 71.8131C401.933 69.9465 402.493 67.7065 402.493 65.0931C402.493 62.4331 401.933 60.1698 400.813 58.3031C399.739 56.4365 398.293 55.0131 396.473 54.0331C394.699 53.0531 392.763 52.5631 390.663 52.5631C388.563 52.5631 386.603 53.0531 384.783 54.0331C382.963 54.9665 381.493 56.3665 380.373 58.2331C379.253 60.0998 378.693 62.3865 378.693 65.0931C378.693 67.7065 379.229 69.9465 380.303 71.8131C381.423 73.6331 382.893 75.0331 384.713 76.0131C386.533 76.9465 388.516 77.4131 390.663 77.4131ZM416.244 47.5231H422.964V82.4531H416.244V47.5231ZM436.264 46.8231C438.224 46.8231 439.997 47.1031 441.584 47.6631C443.171 48.2231 444.524 49.0631 445.644 50.1831C446.764 51.2565 447.627 52.6098 448.234 54.2431C448.887 55.8298 449.214 57.6498 449.214 59.7031V82.4531H442.564V61.1731C442.564 58.4198 441.887 56.3665 440.534 55.0131C439.227 53.6131 437.221 52.9131 434.514 52.9131C432.414 52.9131 430.501 53.4031 428.774 54.3831C427.047 55.3631 425.624 56.6698 424.504 58.3031C423.431 59.8898 422.777 61.6865 422.544 63.6931L422.474 59.8431C422.707 57.9765 423.197 56.2498 423.944 54.6631C424.737 53.0765 425.717 51.6998 426.884 50.5331C428.097 49.3198 429.497 48.4098 431.084 47.8031C432.671 47.1498 434.397 46.8231 436.264 46.8231Z" fill="#23A323"/>
<rect x="5.71289" y="5.4375" width="504.694" height="107.283" rx="53.6416" stroke="#23A323" stroke-width="2"/>
</svg>
