<svg width="1075" height="143" viewBox="0 0 1075 143" fill="none" xmlns="http://www.w3.org/2000/svg">
<path d="M75.267 142.935C60.067 142.935 46.8003 140.202 35.467 134.735C24.267 129.268 15.5337 121.535 9.26699 111.535C3.13366 101.535 0.0669924 89.6018 0.0669924 75.7352C0.0669924 61.8685 3.13366 49.9352 9.26699 39.9352C15.5337 29.8018 24.267 22.0685 35.467 16.7352C46.8003 11.2685 60.067 8.53515 75.267 8.53515C90.6003 8.53515 103.867 11.2685 115.067 16.7352C126.267 22.0685 134.934 29.8018 141.067 39.9352C147.334 49.9352 150.467 61.8685 150.467 75.7352C150.467 89.6018 147.334 101.535 141.067 111.535C134.934 121.535 126.267 129.268 115.067 134.735C103.867 140.202 90.6003 142.935 75.267 142.935ZM75.267 122.935C85.4003 122.935 94.3337 121.202 102.067 117.735C109.8 114.268 115.867 109.068 120.267 102.135C124.8 95.0685 127.067 86.2685 127.067 75.7352C127.067 65.3352 124.8 56.6685 120.267 49.7352C115.867 42.6685 109.8 37.4018 102.067 33.9351C94.3337 30.3352 85.4003 28.5352 75.267 28.5352C65.267 28.5352 56.3337 30.3352 48.467 33.9351C40.6003 37.4018 34.4003 42.6685 29.867 49.7352C25.3337 56.6685 23.067 65.3352 23.067 75.7352C23.067 86.2685 25.3337 95.0685 29.867 102.135C34.4003 109.068 40.6003 114.268 48.467 117.735C56.3337 121.202 65.267 122.935 75.267 122.935ZM277.156 140.535H254.956V40.9352H277.156V140.535ZM256.156 93.1352L256.356 99.5352C256.089 101.268 255.489 103.868 254.556 107.335C253.756 110.802 252.356 114.602 250.356 118.735C248.489 122.735 245.956 126.602 242.756 130.335C239.689 133.935 235.823 136.935 231.156 139.335C226.489 141.602 220.823 142.735 214.156 142.735C209.356 142.735 204.489 142.068 199.556 140.735C194.756 139.535 190.356 137.468 186.356 134.535C182.489 131.602 179.356 127.602 176.956 122.535C174.556 117.468 173.356 111.068 173.356 103.335V40.9352H195.556V99.1352C195.556 105.402 196.556 110.335 198.556 113.935C200.689 117.402 203.623 119.868 207.356 121.335C211.089 122.802 215.423 123.535 220.356 123.535C227.423 123.535 233.423 121.935 238.356 118.735C243.289 115.535 247.223 111.602 250.156 106.935C253.223 102.135 255.223 97.5352 256.156 93.1352ZM301.676 40.9352H323.876V140.535H301.676V40.9352ZM359.876 59.9352C352.676 59.9352 346.476 61.4685 341.276 64.5352C336.21 67.6018 332.143 71.3352 329.076 75.7352C326.01 80.1352 323.876 84.4018 322.676 88.5352L322.476 77.3352C322.61 75.8685 323.076 73.6685 323.876 70.7352C324.676 67.6685 325.876 64.3352 327.476 60.7352C329.21 57.1352 331.476 53.6685 334.276 50.3351C337.21 46.8685 340.743 44.0685 344.876 41.9352C349.143 39.8018 354.143 38.7352 359.876 38.7352V59.9352ZM468.17 140.535L414.37 10.9352H439.17L485.37 126.735H477.97L523.97 10.9352H548.37L495.17 140.535H468.17ZM597.248 142.735C588.182 142.735 579.848 140.535 572.248 136.135C564.782 131.735 558.782 125.668 554.248 117.935C549.848 110.068 547.648 101.068 547.648 90.9352C547.648 80.5352 549.915 71.4685 554.448 63.7352C558.982 55.8685 565.115 49.7352 572.848 45.3352C580.582 40.9352 589.248 38.7352 598.848 38.7352C609.515 38.7352 617.982 41.0685 624.248 45.7351C630.515 50.4018 634.982 56.6685 637.648 64.5352C640.315 72.4018 641.648 81.2018 641.648 90.9352C641.648 96.4018 640.848 102.202 639.248 108.335C637.648 114.335 635.115 119.935 631.648 125.135C628.315 130.335 623.782 134.602 618.048 137.935C612.448 141.135 605.515 142.735 597.248 142.735ZM604.048 124.335C611.515 124.335 617.848 122.935 623.048 120.135C628.382 117.202 632.382 113.202 635.048 108.135C637.848 103.068 639.248 97.3352 639.248 90.9352C639.248 83.8685 637.848 77.8685 635.048 72.9352C632.248 67.8685 628.248 64.0018 623.048 61.3352C617.848 58.5352 611.515 57.1352 604.048 57.1352C593.382 57.1352 585.115 60.2685 579.248 66.5352C573.382 72.8018 570.448 80.9352 570.448 90.9352C570.448 97.4685 571.848 103.268 574.648 108.335C577.582 113.402 581.582 117.335 586.648 120.135C591.715 122.935 597.515 124.335 604.048 124.335ZM639.248 40.9352H661.648V140.535H640.848C640.848 140.535 640.715 139.268 640.448 136.735C640.182 134.202 639.915 131.135 639.648 127.535C639.382 123.802 639.248 120.268 639.248 116.935V40.9352ZM688.051 0.935153H710.251V140.535H688.051V0.935153ZM841.023 140.535H818.823V40.9352H841.023V140.535ZM820.023 93.1352L820.223 99.5352C819.957 101.268 819.357 103.868 818.423 107.335C817.623 110.802 816.223 114.602 814.223 118.735C812.357 122.735 809.823 126.602 806.623 130.335C803.557 133.935 799.69 136.935 795.023 139.335C790.357 141.602 784.69 142.735 778.023 142.735C773.223 142.735 768.357 142.068 763.423 140.735C758.623 139.535 754.223 137.468 750.223 134.535C746.357 131.602 743.223 127.602 740.823 122.535C738.423 117.468 737.223 111.068 737.223 103.335V40.9352H759.423V99.1352C759.423 105.402 760.423 110.335 762.423 113.935C764.557 117.402 767.49 119.868 771.223 121.335C774.957 122.802 779.29 123.535 784.223 123.535C791.29 123.535 797.29 121.935 802.223 118.735C807.157 115.535 811.09 111.602 814.023 106.935C817.09 102.135 819.09 97.5352 820.023 93.1352ZM948.744 107.735H970.144C969.077 114.535 966.41 120.602 962.144 125.935C958.01 131.135 952.344 135.268 945.144 138.335C937.944 141.268 929.344 142.735 919.344 142.735C908.01 142.735 897.877 140.668 888.944 136.535C880.01 132.268 873.01 126.268 867.944 118.535C862.877 110.802 860.344 101.602 860.344 90.9352C860.344 80.4018 862.81 71.2018 867.744 63.3352C872.677 55.4685 879.477 49.4018 888.144 45.1352C896.944 40.8685 907.077 38.7352 918.544 38.7352C930.41 38.7352 940.277 40.8685 948.144 45.1352C956.144 49.2685 962.077 55.5352 965.944 63.9352C969.81 72.2018 971.41 82.6685 970.744 95.3352H882.944C883.61 100.935 885.41 106.002 888.344 110.535C891.41 114.935 895.544 118.402 900.744 120.935C905.944 123.335 912.01 124.535 918.944 124.535C926.677 124.535 933.144 123.002 938.344 119.935C943.677 116.868 947.144 112.802 948.744 107.735ZM917.944 56.7352C908.877 56.7352 901.41 59.0018 895.544 63.5352C889.677 67.9352 885.877 73.6018 884.144 80.5352H948.344C947.81 73.0685 944.81 67.2685 939.344 63.1352C933.877 58.8685 926.744 56.7352 917.944 56.7352ZM986.144 107.735H1006.74C1007.81 112.802 1010.54 116.935 1014.94 120.135C1019.34 123.202 1025.28 124.735 1032.74 124.735C1037.54 124.735 1041.28 124.202 1043.94 123.135C1046.74 122.068 1048.68 120.602 1049.74 118.735C1050.94 116.868 1051.54 114.735 1051.54 112.335C1051.54 109.402 1050.68 107.135 1048.94 105.535C1047.34 103.935 1044.94 102.602 1041.74 101.535C1038.54 100.468 1034.54 99.5352 1029.74 98.7352C1024.81 97.5352 1019.94 96.2018 1015.14 94.7352C1010.34 93.2685 1006.01 91.4685 1002.14 89.3352C998.277 87.0685 995.21 84.2685 992.944 80.9352C990.81 77.4685 989.744 73.2685 989.744 68.3352C989.744 63.8018 990.744 59.7352 992.744 56.1352C994.877 52.4018 997.81 49.2685 1001.54 46.7352C1005.28 44.2018 1009.68 42.2685 1014.74 40.9352C1019.81 39.4685 1025.34 38.7352 1031.34 38.7352C1040.01 38.7352 1047.21 40.1352 1052.94 42.9351C1058.81 45.7352 1063.21 49.6685 1066.14 54.7352C1069.21 59.8018 1070.74 65.6018 1070.74 72.1352H1051.14C1050.08 66.8018 1048.01 62.9352 1044.94 60.5352C1041.88 58.1352 1037.28 56.9352 1031.14 56.9352C1025.01 56.9352 1020.34 58.0018 1017.14 60.1352C1013.94 62.2685 1012.34 65.2018 1012.34 68.9352C1012.34 71.7352 1013.34 74.0018 1015.34 75.7352C1017.48 77.3352 1020.48 78.7352 1024.34 79.9352C1028.21 81.1352 1032.74 82.3352 1037.94 83.5352C1042.74 84.8685 1047.28 86.2685 1051.54 87.7352C1055.81 89.0685 1059.61 90.8018 1062.94 92.9352C1066.41 94.9352 1069.14 97.6018 1071.14 100.935C1073.14 104.268 1074.14 108.402 1074.14 113.335C1074.14 119.468 1072.48 124.735 1069.14 129.135C1065.94 133.535 1061.28 136.935 1055.14 139.335C1049.01 141.602 1041.61 142.735 1032.94 142.735C1025.34 142.735 1018.74 141.868 1013.14 140.135C1007.68 138.402 1003.08 136.135 999.344 133.335C995.744 130.535 992.944 127.535 990.944 124.335C988.944 121.135 987.544 118.068 986.744 115.135C986.077 112.202 985.877 109.735 986.144 107.735Z" fill="#F3F4F6"/>
</svg>
