<svg width="366" height="164" viewBox="0 0 366 164" fill="none" xmlns="http://www.w3.org/2000/svg">
<g clip-path="url(#clip0_5899_56642)">
<path d="M28.7477 64.0122C24.0344 64.0122 19.8344 63.0555 16.1477 61.1422C12.5077 59.2289 9.6377 56.5222 7.5377 53.0222C5.48436 49.5222 4.4577 45.3689 4.4577 40.5622C4.4577 35.7089 5.48436 31.5322 7.5377 28.0322C9.6377 24.5322 12.5077 21.8255 16.1477 19.9122C19.8344 17.9989 24.0344 17.0422 28.7477 17.0422C33.5077 17.0422 37.7077 17.9989 41.3477 19.9122C44.9877 21.8255 47.8577 24.5322 49.9577 28.0322C52.0577 31.5322 53.1077 35.7089 53.1077 40.5622C53.1077 45.3689 52.0577 49.5222 49.9577 53.0222C47.8577 56.5222 44.9877 59.2289 41.3477 61.1422C37.7077 63.0555 33.5077 64.0122 28.7477 64.0122ZM28.7477 57.9222C32.1077 57.9222 35.0944 57.2689 37.7077 55.9622C40.321 54.6555 42.3977 52.7189 43.9377 50.1522C45.4777 47.5855 46.2477 44.3889 46.2477 40.5622C46.2477 36.7355 45.4777 33.5389 43.9377 30.9722C42.3977 28.4055 40.321 26.4689 37.7077 25.1622C35.0944 23.8089 32.1077 23.1322 28.7477 23.1322C25.481 23.1322 22.5177 23.8089 19.8577 25.1622C17.1977 26.4689 15.0977 28.4055 13.5577 30.9722C12.0177 33.5389 11.2477 36.7355 11.2477 40.5622C11.2477 44.3889 12.0177 47.5855 13.5577 50.1522C15.0977 52.7189 17.1977 54.6555 19.8577 55.9622C22.5177 57.2689 25.481 57.9222 28.7477 57.9222ZM94.0489 63.2422H87.3989V28.3122H94.0489V63.2422ZM87.7489 46.7922L87.8189 48.8922C87.7723 49.4989 87.6089 50.4089 87.3289 51.6222C87.0956 52.7889 86.6756 54.0722 86.0689 55.4722C85.5089 56.8722 84.7156 58.2255 83.6889 59.5322C82.7089 60.8389 81.4489 61.9122 79.9089 62.7522C78.3689 63.5922 76.5023 64.0122 74.3089 64.0122C72.8156 64.0122 71.2756 63.8022 69.6889 63.3822C68.1489 62.9622 66.7256 62.2622 65.4189 61.2822C64.1123 60.3022 63.0623 58.9722 62.2689 57.2922C61.4756 55.5655 61.0789 53.4189 61.0789 50.8522V28.3122H67.7989V49.4522C67.7989 51.5989 68.1256 53.2789 68.7789 54.4922C69.4789 55.7055 70.4589 56.5689 71.7189 57.0822C72.9789 57.5955 74.4023 57.8522 75.9889 57.8522C78.4156 57.8522 80.4456 57.2689 82.0789 56.1022C83.7589 54.8889 85.0656 53.4422 85.9989 51.7622C86.9323 50.0355 87.5156 48.3789 87.7489 46.7922ZM102.847 28.3122H109.567V63.2422H102.847V28.3122ZM121.397 34.2622C118.97 34.2622 116.893 34.8222 115.167 35.9422C113.487 37.0622 112.133 38.4389 111.107 40.0722C110.127 41.7055 109.473 43.2689 109.147 44.7622L109.077 40.7722C109.123 40.3055 109.24 39.5822 109.427 38.6022C109.66 37.5755 110.057 36.4322 110.617 35.1722C111.177 33.9122 111.923 32.7222 112.857 31.6022C113.79 30.4355 114.957 29.4789 116.357 28.7322C117.757 27.9855 119.437 27.6122 121.397 27.6122V34.2622Z" fill="black"/>
<path d="M133.375 144.922L113.355 99.6319H123.645L140.795 140.512H137.575L154.655 99.6319H164.805L144.995 144.922H133.375ZM180.862 94.8719V102.852H170.292V94.8719H180.862ZM170.992 110.132H180.092V144.922H170.992V110.132ZM187.763 133.372H196.163C196.676 134.959 197.726 136.265 199.313 137.292C200.946 138.272 203.07 138.762 205.683 138.762C207.456 138.762 208.833 138.599 209.813 138.272C210.793 137.945 211.47 137.479 211.843 136.872C212.216 136.219 212.403 135.495 212.403 134.702C212.403 133.722 212.1 132.975 211.493 132.462C210.886 131.902 209.953 131.459 208.693 131.132C207.433 130.805 205.823 130.502 203.863 130.222C201.903 129.895 200.013 129.499 198.193 129.032C196.373 128.565 194.763 127.959 193.363 127.212C191.963 126.419 190.843 125.439 190.003 124.272C189.21 123.059 188.813 121.589 188.813 119.862C188.813 118.182 189.21 116.689 190.003 115.382C190.843 114.075 191.986 112.979 193.433 112.092C194.926 111.205 196.653 110.529 198.613 110.062C200.62 109.595 202.766 109.362 205.053 109.362C208.506 109.362 211.376 109.875 213.663 110.902C215.95 111.882 217.653 113.282 218.773 115.102C219.94 116.875 220.523 118.929 220.523 121.262H212.473C212.1 119.535 211.353 118.299 210.233 117.552C209.113 116.759 207.386 116.362 205.053 116.362C202.766 116.362 201.04 116.712 199.873 117.412C198.706 118.112 198.123 119.069 198.123 120.282C198.123 121.262 198.473 122.032 199.173 122.592C199.92 123.105 200.993 123.525 202.393 123.852C203.84 124.179 205.636 124.529 207.783 124.902C209.603 125.275 211.33 125.695 212.963 126.162C214.643 126.629 216.136 127.235 217.443 127.982C218.75 128.682 219.776 129.639 220.523 130.852C221.316 132.019 221.713 133.512 221.713 135.332C221.713 137.572 221.06 139.462 219.753 141.002C218.493 142.542 216.673 143.732 214.293 144.572C211.913 145.365 209.066 145.762 205.753 145.762C202.813 145.762 200.27 145.459 198.123 144.852C196.023 144.199 194.273 143.382 192.873 142.402C191.473 141.375 190.376 140.302 189.583 139.182C188.836 138.015 188.323 136.919 188.043 135.892C187.763 134.865 187.67 134.025 187.763 133.372ZM239.105 94.8719V102.852H228.535V94.8719H239.105ZM229.235 110.132H238.335V144.922H229.235V110.132ZM267.915 145.762C263.528 145.762 259.655 145.062 256.295 143.662C252.982 142.262 250.392 140.232 248.525 137.572C246.658 134.865 245.725 131.552 245.725 127.632C245.725 123.712 246.658 120.399 248.525 117.692C250.392 114.939 252.982 112.862 256.295 111.462C259.655 110.062 263.528 109.362 267.915 109.362C272.302 109.362 276.128 110.062 279.395 111.462C282.708 112.862 285.298 114.939 287.165 117.692C289.032 120.399 289.965 123.712 289.965 127.632C289.965 131.552 289.032 134.865 287.165 137.572C285.298 140.232 282.708 142.262 279.395 143.662C276.128 145.062 272.302 145.762 267.915 145.762ZM267.915 138.762C270.342 138.762 272.512 138.342 274.425 137.502C276.385 136.615 277.925 135.355 279.045 133.722C280.165 132.042 280.725 130.012 280.725 127.632C280.725 125.252 280.165 123.222 279.045 121.542C277.925 119.815 276.408 118.509 274.495 117.622C272.582 116.735 270.388 116.292 267.915 116.292C265.488 116.292 263.295 116.735 261.335 117.622C259.375 118.509 257.812 119.792 256.645 121.472C255.525 123.152 254.965 125.205 254.965 127.632C254.965 130.012 255.525 132.042 256.645 133.722C257.765 135.355 259.305 136.615 261.265 137.502C263.225 138.342 265.442 138.762 267.915 138.762ZM296.692 110.132H305.792V144.922H296.692V110.132ZM321.962 109.362C324.109 109.362 326.092 109.642 327.912 110.202C329.732 110.762 331.319 111.625 332.672 112.792C334.026 113.959 335.076 115.452 335.822 117.272C336.569 119.045 336.942 121.169 336.942 123.642V144.922H327.842V125.252C327.842 122.312 327.119 120.165 325.672 118.812C324.272 117.412 321.962 116.712 318.742 116.712C316.316 116.712 314.122 117.179 312.162 118.112C310.202 119.045 308.616 120.235 307.402 121.682C306.189 123.082 305.489 124.552 305.302 126.092L305.232 122.522C305.466 120.889 306.002 119.302 306.842 117.762C307.682 116.222 308.802 114.822 310.202 113.562C311.649 112.255 313.352 111.229 315.312 110.482C317.272 109.735 319.489 109.362 321.962 109.362Z" fill="#23A323"/>
<path d="M222.677 51.6797C115.478 73.5899 -7.10323 129.427 134.837 155.499C262.254 178.902 425.14 127.531 325.982 92.571C283.934 77.7461 235.558 73.1973 180.672 77.7461" stroke="#23A323" stroke-width="3" stroke-linecap="round"/>
</g>
<defs>
<clipPath id="clip0_5899_56642">
<rect width="364.866" height="163.363" fill="white" transform="translate(0.887695 0.242188)"/>
</clipPath>
</defs>
</svg>
