<svg width="451" height="91" viewBox="0 0 451 91" fill="none" xmlns="http://www.w3.org/2000/svg">
<g clip-path="url(#clip0_3571_39364)">
<path d="M38.3 49.6H60.45V53.95H38.3V49.6ZM59.9 35.55H64.75V68H59.9V35.55ZM33.95 35.55H38.75V68H33.95V35.55ZM104.83 43.05H109.63V68H104.83V43.05ZM119.13 42.55C120.53 42.55 121.796 42.75 122.93 43.15C124.063 43.55 125.03 44.15 125.83 44.95C126.63 45.7167 127.246 46.6833 127.68 47.85C128.146 48.9833 128.38 50.2833 128.38 51.75V68H123.63V52.8C123.63 50.8333 123.146 49.3667 122.18 48.4C121.246 47.4 119.813 46.9 117.88 46.9C116.38 46.9 115.013 47.25 113.78 47.95C112.546 48.65 111.53 49.5833 110.73 50.75C109.963 51.8833 109.496 53.1667 109.33 54.6L109.28 51.85C109.446 50.5167 109.796 49.2833 110.33 48.15C110.896 47.0167 111.596 46.0333 112.43 45.2C113.296 44.3333 114.296 43.6833 115.43 43.25C116.563 42.7833 117.796 42.55 119.13 42.55ZM137.43 42.55C138.83 42.55 140.096 42.75 141.23 43.15C142.363 43.55 143.33 44.15 144.13 44.95C144.93 45.7167 145.546 46.6833 145.98 47.85C146.446 48.9833 146.68 50.2833 146.68 51.75V68H141.93V52.8C141.93 50.8333 141.446 49.3667 140.48 48.4C139.546 47.4 138.113 46.9 136.18 46.9C134.68 46.9 133.313 47.25 132.08 47.95C130.846 48.65 129.83 49.5833 129.03 50.75C128.263 51.8833 127.796 53.1667 127.63 54.6L127.58 51.8C127.746 50.4667 128.096 49.25 128.63 48.15C129.196 47.0167 129.913 46.0333 130.78 45.2C131.646 44.3333 132.646 43.6833 133.78 43.25C134.913 42.7833 136.13 42.55 137.43 42.55ZM172.224 59.9H176.774C176.508 61.5333 175.874 63 174.874 64.3C173.874 65.6 172.558 66.6333 170.924 67.4C169.291 68.1667 167.374 68.55 165.174 68.55C162.574 68.55 160.258 68 158.224 66.9C156.191 65.8 154.591 64.2833 153.424 62.35C152.258 60.4167 151.674 58.1667 151.674 55.6C151.674 53 152.241 50.7333 153.374 48.8C154.508 46.8333 156.074 45.3 158.074 44.2C160.074 43.1 162.358 42.55 164.924 42.55C167.624 42.55 169.891 43.0833 171.724 44.15C173.558 45.2167 174.908 46.8 175.774 48.9C176.674 50.9667 177.041 53.55 176.874 56.65H156.424C156.591 58.15 157.041 59.4833 157.774 60.65C158.541 61.8167 159.541 62.7333 160.774 63.4C162.041 64.0667 163.491 64.4 165.124 64.4C166.958 64.4 168.491 63.9833 169.724 63.15C170.958 62.3167 171.791 61.2333 172.224 59.9ZM164.974 46.65C162.808 46.65 161.008 47.2333 159.574 48.4C158.141 49.5333 157.191 51.05 156.724 52.95H172.074C171.941 50.9167 171.208 49.3667 169.874 48.3C168.541 47.2 166.908 46.65 164.974 46.65ZM204.966 68.55C202.532 68.55 200.299 68.0333 198.266 67C196.232 65.9667 194.616 64.4833 193.416 62.55C192.216 60.6167 191.616 58.3 191.616 55.6C191.616 52.8667 192.216 50.5333 193.416 48.6C194.616 46.6333 196.232 45.1333 198.266 44.1C200.299 43.0667 202.532 42.55 204.966 42.55C207.399 42.55 209.616 43.0667 211.616 44.1C213.616 45.1333 215.216 46.6333 216.416 48.6C217.616 50.5333 218.216 52.8667 218.216 55.6C218.216 58.3 217.616 60.6167 216.416 62.55C215.216 64.4833 213.616 65.9667 211.616 67C209.616 68.0333 207.399 68.55 204.966 68.55ZM204.966 64.4C206.466 64.4 207.849 64.0667 209.116 63.4C210.416 62.7 211.449 61.7 212.216 60.4C213.016 59.0667 213.416 57.4667 213.416 55.6C213.416 53.7 213.016 52.0833 212.216 50.75C211.449 49.4167 210.416 48.4 209.116 47.7C207.849 47 206.466 46.65 204.966 46.65C203.466 46.65 202.066 47 200.766 47.7C199.466 48.3667 198.416 49.3667 197.616 50.7C196.816 52.0333 196.416 53.6667 196.416 55.6C196.416 57.4667 196.799 59.0667 197.566 60.4C198.366 61.7 199.416 62.7 200.716 63.4C202.016 64.0667 203.432 64.4 204.966 64.4ZM249.758 64.1L248.458 64.05L255.008 43.05H260.208L251.558 68H247.058L239.508 46.65H240.858L233.208 68H228.708L220.158 43.05H225.408L231.758 64.05L230.458 64.1L237.358 43.05H243.008L249.758 64.1ZM264.302 43.05H269.102V68H264.302V43.05ZM278.602 42.55C280.002 42.55 281.269 42.75 282.402 43.15C283.536 43.55 284.502 44.15 285.302 44.95C286.102 45.7167 286.719 46.6833 287.152 47.85C287.619 48.9833 287.852 50.2833 287.852 51.75V68H283.102V52.8C283.102 50.8333 282.619 49.3667 281.652 48.4C280.719 47.4 279.286 46.9 277.352 46.9C275.852 46.9 274.486 47.25 273.252 47.95C272.019 48.65 271.002 49.5833 270.202 50.75C269.436 51.8833 268.969 53.1667 268.802 54.6L268.752 51.85C268.919 50.5167 269.269 49.2833 269.802 48.15C270.369 47.0167 271.069 46.0333 271.902 45.2C272.769 44.3333 273.769 43.6833 274.902 43.25C276.036 42.7833 277.269 42.55 278.602 42.55ZM313.386 59.9H317.936C317.67 61.5333 317.036 63 316.036 64.3C315.036 65.6 313.72 66.6333 312.086 67.4C310.453 68.1667 308.536 68.55 306.336 68.55C303.736 68.55 301.42 68 299.386 66.9C297.353 65.8 295.753 64.2833 294.586 62.35C293.42 60.4167 292.836 58.1667 292.836 55.6C292.836 53 293.403 50.7333 294.536 48.8C295.67 46.8333 297.236 45.3 299.236 44.2C301.236 43.1 303.52 42.55 306.086 42.55C308.786 42.55 311.053 43.0833 312.886 44.15C314.72 45.2167 316.07 46.8 316.936 48.9C317.836 50.9667 318.203 53.55 318.036 56.65H297.586C297.753 58.15 298.203 59.4833 298.936 60.65C299.703 61.8167 300.703 62.7333 301.936 63.4C303.203 64.0667 304.653 64.4 306.286 64.4C308.12 64.4 309.653 63.9833 310.886 63.15C312.12 62.3167 312.953 61.2333 313.386 59.9ZM306.136 46.65C303.97 46.65 302.17 47.2333 300.736 48.4C299.303 49.5333 298.353 51.05 297.886 52.95H313.236C313.103 50.9167 312.37 49.3667 311.036 48.3C309.703 47.2 308.07 46.65 306.136 46.65ZM323.091 43.05H327.891V68H323.091V43.05ZM336.341 47.3C334.608 47.3 333.125 47.7 331.891 48.5C330.691 49.3 329.725 50.2833 328.991 51.45C328.291 52.6167 327.825 53.7333 327.591 54.8L327.541 51.95C327.575 51.6167 327.658 51.1 327.791 50.4C327.958 49.6667 328.241 48.85 328.641 47.95C329.041 47.05 329.575 46.2 330.241 45.4C330.908 44.5667 331.741 43.8833 332.741 43.35C333.741 42.8167 334.941 42.55 336.341 42.55V47.3ZM339.57 59.9H343.97C344.136 61.2333 344.736 62.3333 345.77 63.2C346.803 64.0333 348.253 64.45 350.12 64.45C351.32 64.45 352.253 64.3167 352.92 64.05C353.586 63.75 354.053 63.35 354.32 62.85C354.62 62.35 354.77 61.8 354.77 61.2C354.77 60.4333 354.57 59.85 354.17 59.45C353.77 59.0167 353.203 58.6667 352.47 58.4C351.736 58.1 350.87 57.8167 349.87 57.55C348.77 57.25 347.67 56.9 346.57 56.5C345.47 56.1 344.453 55.6167 343.52 55.05C342.62 54.4833 341.886 53.7833 341.32 52.95C340.786 52.0833 340.52 51.0333 340.52 49.8C340.52 48.7667 340.736 47.8 341.17 46.9C341.636 46 342.286 45.2333 343.12 44.6C343.986 43.9333 344.986 43.4333 346.12 43.1C347.253 42.7333 348.503 42.55 349.87 42.55C351.77 42.55 353.37 42.9 354.67 43.6C355.97 44.2667 356.953 45.2167 357.62 46.45C358.32 47.6833 358.686 49.1 358.72 50.7H354.52C354.286 49.3 353.803 48.2833 353.07 47.65C352.336 46.9833 351.236 46.65 349.77 46.65C348.336 46.65 347.236 46.9333 346.47 47.5C345.703 48.0667 345.32 48.8333 345.32 49.8C345.32 50.5333 345.586 51.1333 346.12 51.6C346.653 52.0333 347.37 52.4167 348.27 52.75C349.17 53.0833 350.186 53.4333 351.32 53.8C352.386 54.1667 353.403 54.55 354.37 54.95C355.37 55.3167 356.253 55.7667 357.02 56.3C357.82 56.8 358.436 57.4667 358.87 58.3C359.336 59.1 359.57 60.1 359.57 61.3C359.57 62.7667 359.203 64.05 358.47 65.15C357.736 66.2167 356.67 67.05 355.27 67.65C353.903 68.25 352.236 68.55 350.27 68.55C348.47 68.55 346.936 68.3333 345.67 67.9C344.436 67.4667 343.386 66.9 342.52 66.2C341.686 65.5 341.036 64.7667 340.57 64C340.136 63.2 339.836 62.4333 339.67 61.7C339.536 60.9667 339.503 60.3667 339.57 59.9ZM383.945 68V52.95C383.945 51.6167 383.729 50.5167 383.295 49.65C382.862 48.7833 382.212 48.1333 381.345 47.7C380.479 47.2333 379.379 47 378.045 47C376.579 47 375.229 47.35 373.995 48.05C372.795 48.7167 371.812 49.6333 371.045 50.8C370.279 51.9333 369.812 53.2167 369.645 54.65L369.595 51.8C369.762 50.5 370.112 49.2833 370.645 48.15C371.212 47.0167 371.912 46.0333 372.745 45.2C373.612 44.3667 374.612 43.7167 375.745 43.25C376.879 42.7833 378.112 42.55 379.445 42.55C380.845 42.55 382.112 42.75 383.245 43.15C384.379 43.5167 385.345 44.1 386.145 44.9C386.979 45.6667 387.612 46.6167 388.045 47.75C388.479 48.85 388.695 50.1167 388.695 51.55V68H383.945ZM365.195 68V33.05H369.945V68H365.195ZM400.765 32.75V37.9H394.815V32.75H400.765ZM395.415 43.05H400.165V68H395.415V43.05ZM421.179 68.55C419.246 68.55 417.629 68.1333 416.329 67.3C415.029 66.4667 414.013 65.3833 413.279 64.05C412.546 62.7167 412.013 61.3 411.679 59.8C411.346 58.3 411.179 56.8833 411.179 55.55C411.179 53.75 411.329 52.0667 411.629 50.5C411.963 48.9333 412.496 47.55 413.229 46.35C413.963 45.15 414.979 44.2167 416.279 43.55C417.579 42.8833 419.213 42.55 421.179 42.55C423.346 42.55 425.296 43.1167 427.029 44.25C428.763 45.35 430.146 46.8833 431.179 48.85C432.246 50.8167 432.779 53.05 432.779 55.55C432.779 58.1167 432.246 60.3833 431.179 62.35C430.113 64.2833 428.696 65.8 426.929 66.9C425.196 68 423.279 68.55 421.179 68.55ZM419.829 64.35C421.429 64.35 422.846 63.9833 424.079 63.25C425.313 62.4833 426.263 61.45 426.929 60.15C427.629 58.8167 427.979 57.2833 427.979 55.55C427.979 52.9833 427.263 50.8667 425.829 49.2C424.429 47.5333 422.429 46.7 419.829 46.7C418.263 46.7 416.863 47.0667 415.629 47.8C414.429 48.5333 413.479 49.5667 412.779 50.9C412.079 52.2333 411.729 53.7833 411.729 55.55C411.729 57.2167 412.029 58.7167 412.629 60.05C413.263 61.35 414.179 62.4 415.379 63.2C416.579 63.9667 418.063 64.35 419.829 64.35ZM406.929 43.05H411.529L411.729 48.7V78H406.929V43.05Z" fill="black"/>
<path d="M81.8076 41.644L87.2252 51.0976L97.9282 53.1386L88.4746 58.5562L86.4336 69.2593L81.016 59.8057L70.313 57.7646L79.7666 52.3471L81.8076 41.644Z" fill="#179942"/>
<path d="M293.082 25.7033C236.283 25.7033 -24.5304 -6.27134 1.87091 53.5221C6.32668 63.6134 20.5596 73.6072 38.6871 78.0618C120.628 98.1979 235.416 91.3161 320.393 81.0235C368.292 75.2219 450.206 58.1834 442.011 25.7033C435.681 0.618654 345.89 0 312.327 0C238.19 0 157.099 10.4685 89.9816 26.2322C84.4847 27.5232 5.3729 47.1191 29.5865 53.3105" stroke="#179942" stroke-width="3" stroke-linecap="round"/>
</g>
<defs>
<clipPath id="clip0_3571_39364">
<rect width="451" height="91" fill="white"/>
</clipPath>
</defs>
</svg>
