<svg width="30" height="31" viewBox="0 0 30 31" fill="none" xmlns="http://www.w3.org/2000/svg">
<circle cx="15.1007" cy="15.472" r="14.6974" fill="#FFF5F0"/>
<path d="M18.8817 14.2116C18.8817 14.0444 18.8153 13.8841 18.6971 13.7659C18.5789 13.6477 18.4186 13.5813 18.2514 13.5813H10.9468L12.3964 12.138C12.5151 12.0194 12.5818 11.8584 12.5818 11.6906C12.5818 11.5227 12.5151 11.3618 12.3964 11.2431C12.2777 11.1244 12.1168 11.0577 11.9489 11.0577C11.7811 11.0577 11.6201 11.1244 11.5015 11.2431L8.98046 13.7641C8.89301 13.8527 8.83376 13.9653 8.81021 14.0875C8.78665 14.2098 8.79984 14.3363 8.8481 14.4511C8.89539 14.5662 8.97568 14.6647 9.07886 14.7342C9.18205 14.8038 9.30351 14.8412 9.42793 14.8418H18.2514C18.4186 14.8418 18.5789 14.7754 18.6971 14.6572C18.8153 14.539 18.8817 14.3787 18.8817 14.2116ZM21.3522 16.4931C21.305 16.378 21.2247 16.2794 21.1215 16.2099C21.0183 16.1404 20.8968 16.1029 20.7724 16.1023H11.9489C11.7818 16.1023 11.6215 16.1687 11.5033 16.2869C11.3851 16.4051 11.3187 16.5654 11.3187 16.7326C11.3187 16.8997 11.3851 17.06 11.5033 17.1782C11.6215 17.2964 11.7818 17.3628 11.9489 17.3628H19.2535L17.8039 18.8061C17.7449 18.8647 17.698 18.9344 17.666 19.0112C17.634 19.088 17.6175 19.1704 17.6175 19.2536C17.6175 19.3368 17.634 19.4191 17.666 19.4959C17.698 19.5727 17.7449 19.6424 17.8039 19.701C17.8625 19.7601 17.9322 19.807 18.009 19.839C18.0858 19.871 18.1682 19.8875 18.2514 19.8875C18.3346 19.8875 18.417 19.871 18.4938 19.839C18.5706 19.807 18.6403 19.7601 18.6989 19.701L21.2199 17.18C21.3073 17.0914 21.3666 16.9789 21.3901 16.8566C21.4137 16.7343 21.4005 16.6078 21.3522 16.4931Z" fill="#FF823B"/>
</svg>
