<svg width="373" height="494" viewBox="0 0 373 494" fill="none" xmlns="http://www.w3.org/2000/svg">
<g clip-path="url(#clip0_7003_65720)">
<rect x="0.416016" y="-0.394531" width="372.657" height="494.765" rx="11.8713" fill="#FF823B"/>
<g filter="url(#filter0_d_7003_65720)">
<path d="M299.988 84.0891L300.106 83.4955C303.114 83.7329 305.884 84.2474 308.416 85.0388C310.949 85.8302 313.165 87.0173 315.064 88.6002C316.964 90.1039 318.428 92.0824 319.457 94.5358C320.485 96.9892 321 99.957 321 103.439C321 107.476 320.05 111.156 318.151 114.48C316.251 117.883 313.561 120.574 310.078 122.552C306.675 124.61 302.679 125.639 298.088 125.639C293.815 125.639 289.897 124.61 286.336 122.552C282.854 120.574 280.123 117.883 278.145 114.48C276.245 111.156 275.493 107.476 275.889 103.439H284.199C284.199 105.972 284.753 108.227 285.861 110.206C286.969 112.264 288.552 113.886 290.609 115.073C292.667 116.26 295.16 116.854 298.088 116.854C302.204 116.854 305.449 115.588 307.823 113.055C310.276 110.522 311.503 107.159 311.503 102.964C311.503 98.7699 310.157 95.3668 307.467 92.7551C304.855 90.1434 301.254 88.8376 296.664 88.8376H289.897V80.0528H296.664C299.671 80.0528 302.204 79.5384 304.261 78.5096C306.319 77.4016 307.862 75.8583 308.891 73.8798C309.92 71.9012 310.434 69.6457 310.434 67.1131C310.434 63.5518 309.366 60.6631 307.229 58.4471C305.172 56.152 302.045 55.0044 297.851 55.0044C294.369 55.0044 291.401 56.152 288.947 58.4471C286.494 60.6631 285.267 63.5518 285.267 67.1131H276.957C276.641 64.1849 276.957 61.4545 277.907 58.922C278.936 56.3894 280.44 54.1734 282.418 52.274C284.397 50.2955 286.692 48.7918 289.304 47.7629C291.994 46.655 294.844 46.101 297.851 46.101C302.283 46.101 306.161 47.0507 309.485 48.9501C312.809 50.7703 315.381 53.2633 317.201 56.429C319.021 59.5947 319.931 63.156 319.931 67.1131C319.931 70.358 319.417 73.0884 318.388 75.3043C317.439 77.4412 316.054 79.1427 314.233 80.409C312.492 81.6753 310.395 82.5854 307.941 83.1394C305.488 83.6934 302.837 84.0099 299.988 84.0891Z" fill="white" fill-opacity="0.3" shape-rendering="crispEdges"/>
</g>
<g opacity="0.4" filter="url(#filter1_f_7003_65720)">
<rect x="110.592" y="328.332" width="128.613" height="119.025" rx="59.5123" fill="black"/>
</g>
<circle cx="181.613" cy="392.075" r="82.8017" fill="white"/>
<path d="M233.165 367.409C238.665 364.794 245.339 367.122 247.021 372.974C250.604 385.438 250.527 398.756 246.672 411.302C241.73 427.385 230.939 441.031 216.429 449.547C201.919 458.063 184.744 460.83 168.293 457.303C151.842 453.775 137.311 444.209 127.568 430.493C117.825 416.776 113.578 399.905 115.665 383.211C117.751 366.516 126.02 351.21 138.84 340.313C151.659 329.417 168.097 323.722 184.91 324.352C198.026 324.843 210.627 329.157 221.216 336.644C226.187 340.159 226.187 347.228 221.908 351.56V351.56C217.628 355.891 210.69 355.788 205.453 352.681C199.016 348.862 191.679 346.671 184.085 346.387C172.785 345.963 161.736 349.791 153.121 357.114C144.505 364.438 138.947 374.725 137.545 385.945C136.142 397.166 138.997 408.505 145.545 417.724C152.093 426.942 161.859 433.372 172.916 435.742C183.972 438.113 195.516 436.253 205.268 430.53C215.021 424.806 222.273 415.635 225.594 404.826C227.826 397.561 228.174 389.912 226.688 382.576C225.479 376.609 227.666 370.023 233.165 367.409V367.409Z" fill="#FF823B" fill-opacity="0.14"/>
<path d="M238.613 391.551C244.702 391.551 249.73 386.582 248.736 380.575C247.054 370.405 243.047 360.708 236.967 352.262C228.729 340.819 217.101 332.254 203.729 327.78C190.357 323.305 175.917 323.148 162.45 327.329C148.984 331.511 137.173 339.82 128.686 351.081C120.2 362.343 115.469 375.987 115.162 390.084C114.854 404.181 118.986 418.019 126.972 429.64C134.959 441.261 146.397 450.077 159.668 454.842C169.462 458.358 179.889 459.537 190.128 458.351C196.177 457.65 199.567 451.447 197.889 445.594V445.594C196.21 439.741 190.073 436.504 183.987 436.719C178.282 436.92 172.555 436.04 167.119 434.088C158.2 430.886 150.512 424.961 145.145 417.15C139.777 409.34 137 400.04 137.206 390.565C137.413 381.09 140.593 371.92 146.297 364.351C152 356.783 159.938 351.198 168.989 348.388C178.04 345.577 187.745 345.683 196.733 348.69C205.72 351.698 213.535 357.454 219.072 365.145C222.446 369.833 224.871 375.094 226.25 380.635C227.72 386.543 232.524 391.551 238.613 391.551V391.551Z" fill="#FF823B"/>
<path d="M173.737 387.455V397.844H171.955V389.093L172.453 389.27L168.085 394.793L167.796 394.167H172.212V395.628H166.48V394.167L171.955 387.455H173.737ZM173.481 395.628V394.167H175.456V395.628H173.481ZM181.645 395.692C180.756 395.692 179.959 395.532 179.252 395.211C178.546 394.889 177.989 394.418 177.582 393.798C177.176 393.177 176.972 392.422 176.972 391.534C176.972 390.656 177.176 389.906 177.582 389.286C177.989 388.654 178.546 388.172 179.252 387.841C179.959 387.509 180.756 387.343 181.645 387.343C182.533 387.343 183.325 387.509 184.021 387.841C184.717 388.172 185.263 388.654 185.659 389.286C186.066 389.906 186.269 390.656 186.269 391.534C186.269 392.422 186.066 393.177 185.659 393.798C185.263 394.418 184.717 394.889 184.021 395.211C183.325 395.532 182.533 395.692 181.645 395.692ZM181.645 394.231C182.148 394.231 182.614 394.129 183.042 393.926C183.47 393.712 183.812 393.407 184.069 393.011C184.326 392.604 184.455 392.112 184.455 391.534C184.455 390.966 184.326 390.479 184.069 390.072C183.812 389.655 183.47 389.339 183.042 389.125C182.624 388.911 182.159 388.804 181.645 388.804C181.131 388.804 180.655 388.911 180.216 389.125C179.788 389.339 179.44 389.65 179.172 390.056C178.915 390.463 178.787 390.956 178.787 391.534C178.787 392.112 178.915 392.604 179.172 393.011C179.44 393.407 179.788 393.712 180.216 393.926C180.655 394.129 181.131 394.231 181.645 394.231ZM192.605 395.692C191.717 395.692 190.919 395.532 190.213 395.211C189.506 394.889 188.95 394.418 188.543 393.798C188.136 393.177 187.933 392.422 187.933 391.534C187.933 390.656 188.136 389.906 188.543 389.286C188.95 388.654 189.506 388.172 190.213 387.841C190.919 387.509 191.717 387.343 192.605 387.343C193.494 387.343 194.286 387.509 194.982 387.841C195.678 388.172 196.223 388.654 196.62 389.286C197.026 389.906 197.23 390.656 197.23 391.534C197.23 392.422 197.026 393.177 196.62 393.798C196.223 394.418 195.678 394.889 194.982 395.211C194.286 395.532 193.494 395.692 192.605 395.692ZM192.605 394.231C193.108 394.231 193.574 394.129 194.002 393.926C194.43 393.712 194.773 393.407 195.03 393.011C195.287 392.604 195.415 392.112 195.415 391.534C195.415 390.966 195.287 390.479 195.03 390.072C194.773 389.655 194.43 389.339 194.002 389.125C193.585 388.911 193.119 388.804 192.605 388.804C192.092 388.804 191.615 388.911 191.176 389.125C190.748 389.339 190.4 389.65 190.133 390.056C189.876 390.463 189.747 390.956 189.747 391.534C189.747 392.112 189.876 392.604 190.133 393.011C190.4 393.407 190.748 393.712 191.176 393.926C191.615 394.129 192.092 394.231 192.605 394.231ZM199.215 384.308H200.997V395.516H199.215V384.308ZM207.227 387.519L202.747 391.63L202.795 390.506L207.564 395.516H205.284L201.045 391.036L204.754 387.519H207.227Z" fill="#FF823B"/>
<path d="M164.575 386.768L164.211 386.907V381.095H165.421V388.031H164.211L159.009 382.39L159.383 382.251V388.031H158.163V381.095H159.383L164.575 386.768Z" fill="#FF823B"/>
</g>
<defs>
<filter id="filter0_d_7003_65720" x="251.553" y="31.856" width="93.1893" height="127.022" filterUnits="userSpaceOnUse" color-interpolation-filters="sRGB">
<feFlood flood-opacity="0" result="BackgroundImageFix"/>
<feColorMatrix in="SourceAlpha" type="matrix" values="0 0 0 0 0 0 0 0 0 0 0 0 0 0 0 0 0 0 127 0" result="hardAlpha"/>
<feOffset dy="9.49703"/>
<feGaussianBlur stdDeviation="11.8713"/>
<feComposite in2="hardAlpha" operator="out"/>
<feColorMatrix type="matrix" values="0 0 0 0 0 0 0 0 0 0 0 0 0 0 0 0 0 0 0.12 0"/>
<feBlend mode="normal" in2="BackgroundImageFix" result="effect1_dropShadow_7003_65720"/>
<feBlend mode="normal" in="SourceGraphic" in2="effect1_dropShadow_7003_65720" result="shape"/>
</filter>
<filter id="filter1_f_7003_65720" x="13.4201" y="231.16" width="322.957" height="313.369" filterUnits="userSpaceOnUse" color-interpolation-filters="sRGB">
<feFlood flood-opacity="0" result="BackgroundImageFix"/>
<feBlend mode="normal" in="SourceGraphic" in2="BackgroundImageFix" result="shape"/>
<feGaussianBlur stdDeviation="48.5859" result="effect1_foregroundBlur_7003_65720"/>
</filter>
<clipPath id="clip0_7003_65720">
<rect width="373" height="494" fill="white"/>
</clipPath>
</defs>
</svg>
