<svg width="47" height="32" viewBox="0 0 47 32" fill="none" xmlns="http://www.w3.org/2000/svg">
<rect x="0.847656" y="2.125" width="25" height="25" rx="4" fill="black"/>
<path d="M12.7037 19.125H14.1457V9.031H12.7597C12.6617 10.039 12.0037 10.711 10.6597 10.711H10.2677V11.817H12.7037V19.125Z" fill="white"/>
<path d="M38.4497 20.125H45.2257V18.851H40.2557C40.7597 16.667 45.1137 15.911 45.1137 12.831C45.1137 11.067 43.8257 9.905 41.8657 9.905C39.8077 9.905 38.4217 11.193 38.4777 13.167H39.8917C39.8217 11.907 40.6197 11.151 41.7817 11.151C42.8877 11.151 43.6157 11.837 43.6157 12.901C43.6157 15.477 38.4497 15.939 38.4497 19.873V20.125Z" fill="black"/>
</svg>
