<svg width="30" height="31" viewBox="0 0 30 31" fill="none" xmlns="http://www.w3.org/2000/svg">
<circle cx="14.6974" cy="15.4117" r="14.6974" fill="#F3FCF3"/>
<path d="M13.9391 20.728C13.9201 20.8045 13.876 20.8724 13.8139 20.921C13.7518 20.9695 13.6752 20.9959 13.5964 20.996C13.5674 20.9959 13.5385 20.9923 13.5104 20.9854L11.6257 20.5142C11.5865 20.5042 11.5493 20.4876 11.5156 20.4653L10.1021 19.523C10.0634 19.4972 10.0302 19.4641 10.0043 19.4255C9.97845 19.3869 9.96044 19.3436 9.9513 19.2981C9.93286 19.206 9.95172 19.1105 10.0037 19.0324C10.0557 18.9543 10.1367 18.9 10.2287 18.8816C10.2742 18.8725 10.3211 18.8724 10.3667 18.8814C10.4123 18.8904 10.4557 18.9083 10.4943 18.934L11.8566 19.8422L13.6824 20.2986C13.7274 20.3099 13.7698 20.33 13.8072 20.3577C13.8445 20.3854 13.8759 20.4202 13.8998 20.4601C13.9237 20.4999 13.9394 20.5441 13.9462 20.5901C13.9529 20.6361 13.9505 20.6829 13.9391 20.728ZM21.7563 15.0387C21.7225 15.1414 21.6687 15.2364 21.5979 15.3182C21.5272 15.4 21.4409 15.4669 21.3441 15.5151L19.9306 16.2219L16.6731 19.4794C16.6068 19.5455 16.517 19.5825 16.4234 19.5825C16.3944 19.5824 16.3655 19.5789 16.3374 19.5719L12.568 18.6295C12.5257 18.6185 12.4858 18.5998 12.4503 18.5742L9.17331 16.2348L7.73449 15.5151C7.53895 15.4173 7.39026 15.2459 7.32112 15.0385C7.25198 14.831 7.26805 14.6047 7.3658 14.4091L8.82936 11.4826C8.92716 11.287 9.09863 11.1383 9.30604 11.0692C9.51346 11.0001 9.73984 11.0161 9.93541 11.1139L11.2759 11.7841L14.4415 10.8795C14.505 10.8613 14.5724 10.8613 14.6359 10.8795L17.8015 11.7841L19.142 11.1139C19.3375 11.0161 19.5639 11.0001 19.7713 11.0692C19.9788 11.1383 20.1502 11.287 20.248 11.4826L21.7116 14.4091C21.7602 14.5059 21.7893 14.6113 21.7969 14.7194C21.8046 14.8275 21.7908 14.936 21.7563 15.0387ZM8.05076 14.8832L9.19804 15.4598L10.7694 12.3195L9.61914 11.7458C9.59118 11.7319 9.55885 11.7297 9.52925 11.7397C9.49966 11.7496 9.47522 11.7709 9.4613 11.7988L7.99775 14.7254C7.98405 14.7532 7.98194 14.7854 7.99186 14.8149C7.99646 14.8297 8.00407 14.8434 8.0142 14.8552C8.02433 14.8669 8.03678 14.8765 8.05076 14.8832ZM18.2491 16.9021L16.4393 15.4527C15.3202 16.4174 13.8726 16.5599 12.6817 15.799C12.5775 15.7328 12.4895 15.644 12.4243 15.5391C12.359 15.4343 12.3181 15.3162 12.3046 15.1935C12.2911 15.0707 12.3053 14.9465 12.3462 14.83C12.3871 14.7136 12.4537 14.6077 12.541 14.5204L15.2337 11.9078C15.2728 11.87 15.3202 11.8418 15.3721 11.8253L14.5387 11.5868L11.4873 12.4561L9.80702 15.819L12.8048 17.9599L16.315 18.8374L18.2491 16.9021ZM19.2904 15.8609L17.6183 12.515H15.6241L13.038 15.024C13.0266 15.036 13.0179 15.0504 13.0127 15.0662C13.0075 15.082 13.0059 15.0987 13.008 15.1152C13.0098 15.1332 13.0158 15.1506 13.0254 15.1659C13.035 15.1812 13.048 15.1941 13.0634 15.2036C13.8461 15.7036 15.0741 15.8438 16.1725 14.7371C16.2339 14.6754 16.316 14.6386 16.403 14.6337C16.4899 14.6288 16.5756 14.6562 16.6436 14.7106L18.7533 16.4021L19.2904 15.8609ZM21.0785 14.7254L19.6161 11.7988C19.6022 11.7709 19.5777 11.7496 19.5481 11.7397C19.5185 11.7297 19.4862 11.7319 19.4582 11.7458L18.311 12.3195L19.8793 15.4598L21.0266 14.8861C21.0406 14.8794 21.0531 14.8699 21.0632 14.8581C21.0733 14.8463 21.0809 14.8326 21.0855 14.8178C21.0908 14.8028 21.0931 14.7869 21.0921 14.771C21.091 14.7551 21.0868 14.7396 21.0796 14.7254H21.0785Z" fill="#23A323"/>
</svg>
