<svg width="50" height="50" viewBox="0 0 50 50" fill="none" xmlns="http://www.w3.org/2000/svg">
<circle cx="25" cy="25" r="25" fill="#EEEEEE"/>
<path d="M36.3293 21.1616C37.7876 19.7033 37.1226 18 36.3293 17.1716L32.8293 13.6716C31.3593 12.2133 29.6676 12.8783 28.8393 13.6716L26.8559 15.6666H23.8343C21.6176 15.6666 20.3343 16.8333 19.6809 18.175L14.5009 23.355V28.0216L13.6726 28.8383C12.2143 30.3083 12.8793 32 13.6726 32.8283L17.1726 36.3283C17.8026 36.9583 18.4793 37.1916 19.1209 37.1916C19.9493 37.1916 20.7076 36.7833 21.1626 36.3283L24.3126 33.1666H28.5009C30.4843 33.1666 31.4876 31.93 31.8493 30.7166C33.1676 30.3666 33.8909 29.3633 34.1826 28.3833C35.9909 27.9166 36.6676 26.2016 36.6676 25V21.5H35.9793L36.3293 21.1616ZM34.3343 25C34.3343 25.525 34.1126 26.1666 33.1676 26.1666H32.0009V27.3333C32.0009 27.8583 31.7793 28.5 30.8343 28.5H29.6676V29.6666C29.6676 30.1916 29.4459 30.8333 28.5009 30.8333H23.3559L19.5293 34.66C19.1676 34.9983 18.9576 34.8 18.8293 34.6716L15.3409 31.195C15.0026 30.8333 15.2009 30.6233 15.3293 30.495L16.8343 28.9783V24.3116L19.1676 21.9783V23.8333C19.1676 25.245 20.1009 27.3333 22.6676 27.3333C25.2343 27.3333 26.1676 25.245 26.1676 23.8333H34.3343V25ZM34.6726 19.505L32.6893 21.5H23.8343V23.8333C23.8343 24.3583 23.6126 25 22.6676 25C21.7226 25 21.5009 24.3583 21.5009 23.8333V20.3333C21.5009 19.7966 21.6993 18 23.8343 18H27.8126L30.4726 15.34C30.8343 15.0016 31.0443 15.2 31.1726 15.3283L34.6609 18.805C34.9993 19.1666 34.8009 19.3766 34.6726 19.505Z" fill="black"/>
</svg>
