<svg width="454" height="235" viewBox="0 0 454 235" fill="none" xmlns="http://www.w3.org/2000/svg">
<g clip-path="url(#clip0_12054_53576)">
<path d="M20.0527 69.982V59.2251H50.091C53.6766 59.2251 56.5181 58.2779 58.6153 56.3836C60.7126 54.4216 61.7612 51.7155 61.7612 48.2651C61.7612 44.6795 60.7126 41.9395 58.6153 40.0452C56.5181 38.1509 53.6766 37.2037 50.091 37.2037H21.6764V91.293H8.17941V25.6349H48.8732C52.5265 25.6349 55.943 26.0747 59.1227 26.9542C62.3701 27.8337 65.1778 29.1868 67.5456 31.0134C69.9812 32.8401 71.8755 35.1741 73.2286 38.0156C74.5816 40.857 75.2582 44.2736 75.2582 48.2651C75.2582 52.1891 74.5816 55.5379 73.2286 58.3117C71.8755 61.0855 69.9812 63.3519 67.5456 65.1109C65.1778 66.8023 62.3701 68.0539 59.1227 68.8657C55.943 69.6099 52.5265 69.982 48.8732 69.982H20.0527ZM109.11 92.4093C104.104 92.4093 99.5369 91.3268 95.41 89.1619C91.3508 86.9293 88.1034 83.851 85.6679 79.9271C83.3 75.9356 82.1161 71.3351 82.1161 66.1257C82.1161 60.7811 83.3338 56.1468 85.7694 52.2229C88.2049 48.299 91.4861 45.2545 95.613 43.0896C99.8075 40.857 104.543 39.7408 109.82 39.7408C115.639 39.7408 120.307 40.9247 123.825 43.2926C127.41 45.5928 130.015 48.7387 131.639 52.7303C133.262 56.7219 134.074 61.187 134.074 66.1257C134.074 69.1025 133.601 72.1469 132.653 75.259C131.706 78.3034 130.252 81.1449 128.29 83.7834C126.328 86.3542 123.757 88.4515 120.577 90.0752C117.398 91.6312 113.575 92.4093 109.11 92.4093ZM113.372 82.2612C117.364 82.2612 120.814 81.5846 123.723 80.2316C126.632 78.8785 128.865 76.9842 130.421 74.5486C131.977 72.1131 132.755 69.3055 132.755 66.1257C132.755 62.6754 131.943 59.7663 130.319 57.3984C128.763 54.9629 126.531 53.1362 123.622 51.9184C120.78 50.633 117.364 49.9903 113.372 49.9903C107.757 49.9903 103.393 51.4787 100.281 54.4555C97.169 57.3646 95.613 61.2547 95.613 66.1257C95.613 69.3731 96.3572 72.2146 97.8456 74.6501C99.334 77.018 101.397 78.8785 104.036 80.2316C106.742 81.5846 109.854 82.2612 113.372 82.2612ZM132.755 40.857H145.947V91.293H133.668C133.668 91.293 133.567 90.6503 133.364 89.3648C133.229 88.0118 133.093 86.3204 132.958 84.2908C132.823 82.2612 132.755 80.2654 132.755 78.3034V40.857ZM153.321 40.857H167.325L189.143 89.2634L177.777 91.293L153.321 40.857ZM215.021 40.857L180.112 111.589H166.412L181.329 83.7834L200.915 40.857H215.021ZM244.979 92.4093C239.905 92.4093 235.305 91.3268 231.178 89.1619C227.119 86.9293 223.905 83.851 221.537 79.9271C219.169 75.9356 217.985 71.3351 217.985 66.1257C217.985 60.7811 219.135 56.1468 221.436 52.2229C223.804 48.299 227.017 45.2545 231.076 43.0896C235.136 40.857 239.77 39.7408 244.979 39.7408C249.512 39.7408 253.368 40.4173 256.548 41.7704C259.728 43.1234 262.299 45.0178 264.26 47.4533C266.222 49.8212 267.643 52.595 268.523 55.7747C269.47 58.9544 269.943 62.4048 269.943 66.1257C269.943 69.1025 269.47 72.1469 268.523 75.259C267.576 78.3034 266.121 81.1449 264.159 83.7834C262.197 86.3542 259.626 88.4515 256.446 90.0752C253.267 91.6312 249.444 92.4093 244.979 92.4093ZM249.241 82.2612C253.233 82.2612 256.683 81.5846 259.592 80.2316C262.501 78.8785 264.734 76.9842 266.29 74.5486C267.846 72.1131 268.624 69.3055 268.624 66.1257C268.624 62.6754 267.812 59.7663 266.189 57.3984C264.633 54.9629 262.4 53.1024 259.491 51.817C256.649 50.5315 253.233 49.8888 249.241 49.8888C243.626 49.8888 239.262 51.3772 236.15 54.354C233.038 57.3307 231.482 61.2547 231.482 66.1257C231.482 69.3731 232.226 72.2146 233.715 74.6501C235.203 77.018 237.267 78.8785 239.905 80.2316C242.611 81.5846 245.723 82.2612 249.241 82.2612ZM268.624 20.5609H281.817V91.293H269.537C269.335 89.7369 269.132 87.7411 268.929 85.3056C268.726 82.8024 268.624 80.4684 268.624 78.3034V20.5609ZM320.594 92.4093C315.588 92.4093 311.021 91.3268 306.894 89.1619C302.835 86.9293 299.588 83.851 297.152 79.9271C294.784 75.9356 293.6 71.3351 293.6 66.1257C293.6 60.7811 294.818 56.1468 297.254 52.2229C299.689 48.299 302.97 45.2545 307.097 43.0896C311.292 40.857 316.028 39.7408 321.305 39.7408C327.123 39.7408 331.791 40.9247 335.309 43.2926C338.895 45.5928 341.499 48.7387 343.123 52.7303C344.747 56.7219 345.558 61.187 345.558 66.1257C345.558 69.1025 345.085 72.1469 344.138 75.259C343.191 78.3034 341.736 81.1449 339.774 83.7834C337.812 86.3542 335.241 88.4515 332.061 90.0752C328.882 91.6312 325.059 92.4093 320.594 92.4093ZM324.856 82.2612C328.848 82.2612 332.298 81.5846 335.207 80.2316C338.117 78.8785 340.349 76.9842 341.905 74.5486C343.461 72.1131 344.239 69.3055 344.239 66.1257C344.239 62.6754 343.427 59.7663 341.804 57.3984C340.248 54.9629 338.015 53.1362 335.106 51.9184C332.264 50.633 328.848 49.9903 324.856 49.9903C319.241 49.9903 314.877 51.4787 311.765 54.4555C308.653 57.3646 307.097 61.2547 307.097 66.1257C307.097 69.3731 307.841 72.2146 309.33 74.6501C310.818 77.018 312.882 78.8785 315.52 80.2316C318.226 81.5846 321.338 82.2612 324.856 82.2612ZM344.239 40.857H357.432V91.293H345.153C345.153 91.293 345.051 90.6503 344.848 89.3648C344.713 88.0118 344.577 86.3204 344.442 84.2908C344.307 82.2612 344.239 80.2654 344.239 78.3034V40.857ZM364.805 40.857H378.809L400.628 89.2634L389.262 91.293L364.805 40.857ZM426.505 40.857L391.596 111.589H377.896L392.814 83.7834L412.399 40.857H426.505Z" fill="#23A323"/>
<path d="M7.67201 137.561H20.8645V208.293H7.67201V137.561ZM63.9415 209.511C57.582 209.511 51.9668 208.496 47.0957 206.466C42.2923 204.437 38.5375 201.494 35.8313 197.637C33.1252 193.714 31.7721 188.91 31.7721 183.227C31.7721 177.544 33.1252 172.741 35.8313 168.817C38.5375 164.825 42.2923 161.815 47.0957 159.785C51.9668 157.756 57.582 156.741 63.9415 156.741C70.3009 156.741 75.8486 157.756 80.5843 159.785C85.3877 161.815 89.1425 164.825 91.8487 168.817C94.5548 172.741 95.9079 177.544 95.9079 183.227C95.9079 188.91 94.5548 193.714 91.8487 197.637C89.1425 201.494 85.3877 204.437 80.5843 206.466C75.8486 208.496 70.3009 209.511 63.9415 209.511ZM63.9415 199.363C67.4595 199.363 70.6054 198.754 73.3792 197.536C76.2207 196.251 78.4532 194.424 80.0769 192.056C81.7006 189.621 82.5125 186.678 82.5125 183.227C82.5125 179.777 81.7006 176.834 80.0769 174.398C78.4532 171.895 76.2545 170.001 73.4807 168.715C70.7069 167.43 67.5271 166.787 63.9415 166.787C60.4235 166.787 57.2438 167.43 54.4023 168.715C51.5608 170.001 49.2944 171.861 47.6031 174.297C45.9794 176.732 45.1676 179.709 45.1676 183.227C45.1676 186.678 45.9794 189.621 47.6031 192.056C49.2268 194.424 51.4594 196.251 54.3008 197.536C57.1423 198.754 60.3558 199.363 63.9415 199.363ZM130.219 209.409C125.212 209.409 120.646 208.327 116.519 206.162C112.46 203.929 109.212 200.851 106.777 196.927C104.409 192.936 103.225 188.335 103.225 183.126C103.225 177.781 104.443 173.147 106.878 169.223C109.314 165.299 112.595 162.255 116.722 160.09C120.916 157.857 125.652 156.741 130.929 156.741C136.747 156.741 141.415 157.925 144.933 160.293C148.519 162.593 151.124 165.739 152.747 169.73C154.371 173.722 155.183 178.187 155.183 183.126C155.183 186.103 154.709 189.147 153.762 192.259C152.815 195.303 151.361 198.145 149.399 200.783C147.437 203.354 144.866 205.452 141.686 207.075C138.506 208.631 134.684 209.409 130.219 209.409ZM134.481 199.261C138.472 199.261 141.923 198.585 144.832 197.232C147.741 195.878 149.974 193.984 151.53 191.549C153.086 189.113 153.864 186.305 153.864 183.126C153.864 179.675 153.052 176.766 151.428 174.398C149.872 171.963 147.64 170.136 144.73 168.918C141.889 167.633 138.472 166.99 134.481 166.99C128.866 166.99 124.502 168.479 121.39 171.455C118.278 174.365 116.722 178.255 116.722 183.126C116.722 186.373 117.466 189.215 118.954 191.65C120.443 194.018 122.506 195.878 125.145 197.232C127.851 198.585 130.963 199.261 134.481 199.261ZM153.864 157.857H167.056V208.293H154.777C154.777 208.293 154.676 207.65 154.473 206.365C154.337 205.012 154.202 203.32 154.067 201.291C153.931 199.261 153.864 197.265 153.864 195.303V157.857ZM178.996 157.857H192.189V208.293H178.996V157.857ZM215.631 156.741C218.743 156.741 221.618 157.147 224.256 157.959C226.895 158.77 229.195 160.022 231.157 161.713C233.119 163.405 234.641 165.57 235.724 168.208C236.806 170.779 237.347 173.857 237.347 177.443V208.293H224.155V179.777C224.155 175.515 223.106 172.403 221.009 170.441C218.979 168.411 215.631 167.396 210.962 167.396C207.444 167.396 204.265 168.073 201.423 169.426C198.582 170.779 196.282 172.504 194.523 174.601C192.764 176.631 191.749 178.762 191.478 180.995L191.377 175.819C191.715 173.451 192.493 171.151 193.711 168.918C194.929 166.686 196.552 164.656 198.582 162.83C200.679 160.935 203.148 159.447 205.99 158.364C208.831 157.282 212.045 156.741 215.631 156.741ZM247.329 191.549H259.507C260.251 193.849 261.773 195.743 264.073 197.232C266.441 198.652 269.52 199.363 273.308 199.363C275.879 199.363 277.875 199.126 279.295 198.652C280.716 198.179 281.697 197.502 282.238 196.623C282.78 195.676 283.05 194.627 283.05 193.477C283.05 192.056 282.611 190.974 281.731 190.229C280.852 189.418 279.498 188.775 277.672 188.301C275.845 187.828 273.511 187.388 270.67 186.982C267.828 186.508 265.088 185.933 262.45 185.257C259.811 184.58 257.477 183.701 255.448 182.618C253.418 181.468 251.794 180.047 250.576 178.356C249.426 176.597 248.851 174.466 248.851 171.963C248.851 169.527 249.426 167.362 250.576 165.468C251.794 163.574 253.452 161.984 255.549 160.699C257.714 159.413 260.217 158.432 263.059 157.756C265.968 157.079 269.08 156.741 272.395 156.741C277.401 156.741 281.562 157.485 284.877 158.973C288.192 160.394 290.661 162.424 292.285 165.062C293.976 167.633 294.822 170.61 294.822 173.992H283.152C282.611 171.489 281.528 169.696 279.904 168.614C278.281 167.464 275.777 166.889 272.395 166.889C269.08 166.889 266.577 167.396 264.885 168.411C263.194 169.426 262.348 170.813 262.348 172.572C262.348 173.992 262.856 175.109 263.87 175.921C264.953 176.665 266.509 177.274 268.539 177.747C270.636 178.221 273.24 178.728 276.353 179.269C278.991 179.811 281.494 180.42 283.862 181.096C286.298 181.773 288.463 182.652 290.357 183.735C292.251 184.749 293.74 186.136 294.822 187.895C295.972 189.587 296.547 191.752 296.547 194.39C296.547 197.637 295.6 200.377 293.706 202.61C291.879 204.843 289.241 206.568 285.79 207.786C282.34 208.936 278.213 209.511 273.41 209.511C269.147 209.511 265.46 209.071 262.348 208.191C259.304 207.244 256.767 206.06 254.737 204.64C252.708 203.151 251.118 201.595 249.968 199.972C248.885 198.28 248.141 196.69 247.735 195.202C247.329 193.714 247.194 192.496 247.329 191.549Z" fill="#020518"/>
<g filter="url(#filter0_d_12054_53576)">
<rect x="227.229" y="115.16" width="165.755" height="44.4676" rx="2.41318" transform="rotate(15.6422 227.229 115.16)" fill="#FFBD00" shape-rendering="crispEdges"/>
<path d="M247.162 148.665C246.475 148.472 245.88 148.208 245.376 147.87C244.873 147.533 244.471 147.135 244.171 146.676C243.882 146.211 243.701 145.692 243.63 145.119C243.566 144.548 243.625 143.939 243.806 143.294C243.989 142.64 244.265 142.083 244.635 141.625C245.004 141.166 245.447 140.812 245.963 140.564C246.481 140.307 247.052 140.164 247.676 140.133C248.303 140.095 248.96 140.171 249.647 140.364C250.45 140.589 251.11 140.907 251.628 141.32C252.146 141.733 252.517 142.212 252.739 142.756C252.964 143.292 253.016 143.869 252.897 144.487L251.593 144.122C251.585 143.736 251.493 143.38 251.317 143.054C251.149 142.73 250.894 142.444 250.553 142.197C250.222 141.944 249.804 141.747 249.299 141.605C248.637 141.42 248.026 141.387 247.466 141.507C246.916 141.621 246.449 141.869 246.065 142.253C245.684 142.628 245.411 143.109 245.246 143.697C245.082 144.284 245.051 144.825 245.154 145.318C245.267 145.805 245.522 146.233 245.918 146.603C246.317 146.964 246.86 147.241 247.547 147.434C248.076 147.582 248.562 147.633 249.003 147.587C249.455 147.535 249.854 147.401 250.2 147.186C250.546 146.97 250.826 146.687 251.04 146.337L251.715 146.365C251.3 147.4 250.69 148.113 249.885 148.503C249.088 148.896 248.18 148.95 247.162 148.665ZM250.493 149.437C250.568 149.172 250.663 148.878 250.781 148.553C250.901 148.221 251.026 147.886 251.156 147.547C251.297 147.203 251.424 146.895 251.536 146.623L248.209 145.691L248.494 144.673L252.839 145.89L251.747 149.788L250.493 149.437ZM259.019 149.628L260.347 150C260.162 150.404 259.892 150.734 259.534 150.991C259.187 151.242 258.763 151.4 258.263 151.465C257.765 151.522 257.206 151.464 256.585 151.29C255.882 151.093 255.289 150.788 254.806 150.377C254.326 149.957 253.995 149.462 253.815 148.894C253.635 148.326 253.638 147.711 253.823 147.049C254.006 146.395 254.319 145.867 254.762 145.464C255.205 145.062 255.733 144.803 256.345 144.689C256.965 144.577 257.631 144.621 258.343 144.82C259.08 145.027 259.655 145.33 260.069 145.732C260.494 146.128 260.753 146.62 260.847 147.208C260.944 147.789 260.861 148.466 260.6 149.241L255.15 147.715C255.094 148.074 255.117 148.42 255.221 148.752C255.335 149.079 255.531 149.366 255.81 149.613C256.091 149.853 256.446 150.033 256.877 150.153C257.357 150.288 257.785 150.305 258.161 150.205C258.545 150.107 258.831 149.915 259.019 149.628ZM257.993 145.927C257.43 145.77 256.927 145.781 256.484 145.96C256.044 146.131 255.709 146.417 255.481 146.817L259.466 147.933C259.563 147.46 259.478 147.048 259.21 146.696C258.945 146.337 258.539 146.08 257.993 145.927ZM262.243 146.059L266.613 147.283L266.296 148.413L261.926 147.189L262.243 146.059ZM264.198 144.813L265.589 145.202L263.392 153.048L262.001 152.659L264.198 144.813ZM270.971 152.265L271.301 151.086L274.554 151.997C275.009 152.124 275.411 152.094 275.758 151.905C276.113 151.719 276.354 151.403 276.479 150.956C276.609 150.492 276.569 150.093 276.359 149.758C276.16 149.416 275.833 149.182 275.378 149.055L272.324 148.199L270.416 155.015L269 154.619L271.253 146.574L275.623 147.798C276.045 147.916 276.422 148.084 276.753 148.302C277.087 148.511 277.36 148.766 277.57 149.066C277.789 149.368 277.926 149.71 277.98 150.091C278.044 150.466 278.011 150.885 277.882 151.349C277.754 151.804 277.564 152.179 277.312 152.474C277.07 152.764 276.779 152.977 276.437 153.113C276.104 153.252 275.74 153.324 275.346 153.33C274.954 153.327 274.547 153.267 274.125 153.148L270.971 152.265ZM280.237 157.912C279.674 157.755 279.195 157.473 278.8 157.068C278.413 156.665 278.146 156.184 277.999 155.625C277.862 155.061 277.882 154.464 278.058 153.835C278.239 153.189 278.537 152.666 278.953 152.265C279.371 151.855 279.859 151.581 280.415 151.442C280.972 151.304 281.548 151.318 282.144 151.484C282.806 151.67 283.291 151.962 283.599 152.36C283.907 152.759 284.075 153.226 284.104 153.76C284.133 154.295 284.062 154.864 283.893 155.469C283.798 155.808 283.648 156.154 283.442 156.507C283.238 156.852 282.984 157.155 282.678 157.418C282.381 157.682 282.025 157.869 281.611 157.976C281.208 158.077 280.75 158.056 280.237 157.912ZM280.979 156.888C281.442 157.018 281.86 157.041 282.231 156.958C282.613 156.868 282.931 156.69 283.185 156.422C283.447 156.156 283.633 155.824 283.744 155.427C283.867 154.988 283.885 154.591 283.796 154.237C283.711 153.873 283.53 153.564 283.253 153.308C282.979 153.044 282.61 152.847 282.147 152.717C281.485 152.532 280.917 152.582 280.444 152.869C279.971 153.156 279.647 153.61 279.474 154.231C279.36 154.637 279.346 155.021 279.432 155.384C279.526 155.75 279.706 156.063 279.972 156.325C280.238 156.587 280.573 156.775 280.979 156.888ZM284.613 152.323L286.004 152.713L284.273 158.895L282.982 158.533C282.982 158.533 282.995 158.453 283.023 158.291C283.05 158.129 283.087 157.934 283.133 157.706C283.181 157.469 283.234 157.248 283.292 157.041L284.613 152.323ZM286.96 152.98L288.437 153.394L289.271 160.027L288.01 159.941L286.96 152.98ZM293.85 154.909L287.451 162.462L285.998 162.056L288.648 159.143L292.373 154.496L293.85 154.909ZM295.585 162.21C295.014 162.05 294.531 161.767 294.136 161.362C293.749 160.959 293.486 160.48 293.347 159.923C293.211 159.358 293.231 158.761 293.407 158.132C293.588 157.487 293.878 156.961 294.277 156.555C294.687 156.143 295.158 155.865 295.689 155.719C296.229 155.576 296.797 155.587 297.393 155.754C297.914 155.9 298.329 156.11 298.636 156.383C298.945 156.649 299.162 156.959 299.285 157.315C299.411 157.663 299.465 158.044 299.447 158.458C299.438 158.875 299.369 159.311 299.242 159.766C299.147 160.105 298.996 160.452 298.79 160.804C298.587 161.149 298.332 161.453 298.027 161.715C297.729 161.98 297.374 162.166 296.96 162.273C296.557 162.375 296.099 162.353 295.585 162.21ZM296.327 161.186C296.791 161.316 297.208 161.339 297.58 161.255C297.962 161.166 298.28 160.987 298.533 160.719C298.795 160.453 298.982 160.122 299.093 159.724C299.216 159.286 299.233 158.889 299.145 158.534C299.059 158.171 298.879 157.857 298.605 157.593C298.331 157.329 297.962 157.132 297.499 157.002C296.837 156.817 296.268 156.872 295.793 157.167C295.319 157.454 294.996 157.908 294.822 158.529C294.709 158.934 294.695 159.319 294.78 159.682C294.875 160.047 295.054 160.361 295.32 160.623C295.586 160.885 295.922 161.072 296.327 161.186ZM300.657 154.138L302.047 154.527L299.621 163.193L298.33 162.831C298.367 162.636 298.412 162.394 298.466 162.106C298.52 161.818 298.578 161.562 298.641 161.338L300.657 154.138ZM304.096 164.593C303.533 164.435 303.054 164.154 302.659 163.749C302.272 163.346 302.005 162.865 301.858 162.306C301.722 161.741 301.742 161.144 301.918 160.515C302.098 159.87 302.397 159.346 302.813 158.945C303.231 158.536 303.718 158.262 304.275 158.123C304.831 157.984 305.407 157.998 306.003 158.165C306.665 158.35 307.15 158.642 307.458 159.041C307.766 159.44 307.934 159.906 307.963 160.441C307.992 160.976 307.922 161.545 307.753 162.149C307.658 162.488 307.507 162.835 307.301 163.187C307.098 163.532 306.843 163.836 306.537 164.098C306.24 164.363 305.885 164.549 305.471 164.656C305.068 164.758 304.609 164.736 304.096 164.593ZM304.838 163.569C305.302 163.699 305.719 163.722 306.091 163.638C306.473 163.549 306.79 163.37 307.044 163.102C307.306 162.836 307.492 162.505 307.604 162.107C307.726 161.669 307.744 161.272 307.656 160.917C307.57 160.554 307.389 160.244 307.112 159.988C306.838 159.724 306.47 159.527 306.006 159.398C305.344 159.212 304.776 159.263 304.303 159.55C303.83 159.837 303.507 160.291 303.333 160.912C303.219 161.317 303.206 161.702 303.291 162.065C303.385 162.43 303.565 162.744 303.831 163.006C304.097 163.268 304.433 163.455 304.838 163.569ZM308.473 159.004L309.863 159.393L308.132 165.576L306.841 165.214C306.841 165.214 306.855 165.133 306.882 164.971C306.91 164.809 306.946 164.614 306.992 164.386C307.041 164.15 307.094 163.928 307.152 163.721L308.473 159.004ZM310.819 159.661L312.297 160.074L313.13 166.707L311.869 166.622L310.819 159.661ZM317.709 161.59L311.31 169.143L309.858 168.736L312.508 165.823L316.232 161.176L317.709 161.59ZM323.697 161.258L321.785 168.086L326.801 169.491L326.46 170.707L320.029 168.907L322.282 160.862L323.697 161.258ZM330.829 172.078C330.142 171.886 329.56 171.589 329.084 171.188C328.607 170.786 328.279 170.302 328.099 169.734C327.918 169.166 327.925 168.538 328.117 167.851C328.307 167.172 328.626 166.637 329.075 166.245C329.527 165.845 330.061 165.593 330.679 165.489C331.297 165.386 331.95 165.43 332.637 165.622C333.324 165.815 333.9 166.115 334.366 166.522C334.833 166.929 335.15 167.42 335.32 167.994C335.5 168.562 335.495 169.185 335.305 169.864C335.113 170.551 334.792 171.09 334.343 171.482C333.902 171.876 333.378 172.122 332.771 172.22C332.163 172.318 331.516 172.27 330.829 172.078ZM331.146 170.948C331.543 171.06 331.929 171.083 332.304 171.018C332.679 170.954 333.006 170.791 333.284 170.53C333.571 170.271 333.777 169.918 333.902 169.471C334.027 169.024 334.035 168.615 333.924 168.245C333.822 167.878 333.628 167.565 333.343 167.306C333.069 167.042 332.73 166.853 332.324 166.74C331.918 166.626 331.527 166.606 331.15 166.679C330.772 166.751 330.436 166.916 330.141 167.173C329.854 167.432 329.647 167.789 329.52 168.244C329.395 168.691 329.387 169.099 329.498 169.469C329.608 169.84 329.807 170.15 330.094 170.4C330.39 170.652 330.74 170.835 331.146 170.948ZM338.394 174.196C337.831 174.039 337.352 173.757 336.957 173.352C336.57 172.949 336.303 172.468 336.156 171.909C336.02 171.345 336.039 170.748 336.215 170.119C336.396 169.473 336.695 168.95 337.11 168.548C337.528 168.139 338.016 167.865 338.572 167.726C339.129 167.587 339.705 167.601 340.301 167.768C340.963 167.954 341.448 168.246 341.756 168.644C342.064 169.043 342.232 169.51 342.261 170.044C342.29 170.579 342.22 171.148 342.05 171.752C341.955 172.092 341.805 172.438 341.599 172.791C341.395 173.135 341.141 173.439 340.835 173.702C340.538 173.966 340.182 174.152 339.769 174.26C339.365 174.361 338.907 174.34 338.394 174.196ZM339.136 173.172C339.599 173.302 340.017 173.325 340.388 173.242C340.77 173.152 341.088 172.974 341.342 172.705C341.604 172.44 341.79 172.108 341.901 171.711C342.024 171.272 342.042 170.875 341.954 170.52C341.868 170.157 341.687 169.848 341.41 169.592C341.136 169.328 340.767 169.131 340.304 169.001C339.642 168.815 339.074 168.866 338.601 169.153C338.128 169.44 337.805 169.894 337.631 170.515C337.517 170.921 337.503 171.305 337.589 171.668C337.683 172.034 337.863 172.347 338.129 172.609C338.395 172.871 338.73 173.059 339.136 173.172ZM342.77 168.607L344.161 168.996L342.43 175.179L341.139 174.817C341.139 174.817 341.152 174.736 341.18 174.575C341.207 174.413 341.244 174.218 341.29 173.99C341.338 173.753 341.392 173.532 341.449 173.325L342.77 168.607ZM345.676 169.421L347.054 169.806L345.323 175.989L343.945 175.603L345.676 169.421ZM349.699 170.4C350.055 170.499 350.368 170.641 350.638 170.823C350.916 171.008 351.134 171.235 351.291 171.502C351.459 171.763 351.559 172.059 351.592 172.389C351.633 172.722 351.596 173.091 351.483 173.496L350.388 177.407L349.01 177.021L350.028 173.384C350.17 172.879 350.15 172.472 349.969 172.162C349.798 171.847 349.452 171.616 348.931 171.47C348.533 171.359 348.145 171.344 347.765 171.425C347.396 171.5 347.07 171.645 346.786 171.86C346.505 172.067 346.303 172.327 346.18 172.641L346.355 171.967C346.482 171.672 346.654 171.408 346.871 171.174C347.091 170.932 347.347 170.736 347.639 170.586C347.933 170.427 348.255 170.33 348.604 170.294C348.953 170.258 349.318 170.293 349.699 170.4ZM352.207 175.721L353.485 176.079C353.464 176.412 353.561 176.716 353.779 176.991C353.999 177.258 354.34 177.456 354.804 177.586C355.102 177.669 355.343 177.701 355.527 177.681C355.719 177.664 355.865 177.606 355.963 177.509C356.07 177.414 356.145 177.292 356.186 177.143C356.237 176.961 356.223 176.805 356.143 176.676C356.072 176.549 355.946 176.424 355.766 176.302C355.586 176.18 355.354 176.053 355.07 175.92C354.784 175.76 354.505 175.592 354.233 175.418C353.96 175.243 353.723 175.056 353.52 174.857C353.319 174.649 353.177 174.422 353.095 174.175C353.022 173.923 353.029 173.644 353.115 173.338C353.194 173.056 353.327 172.821 353.513 172.633C353.711 172.438 353.947 172.294 354.223 172.202C354.499 172.11 354.805 172.066 355.143 172.071C355.483 172.068 355.839 172.119 356.212 172.223C356.75 172.374 357.172 172.586 357.479 172.859C357.795 173.135 358 173.456 358.094 173.821C358.196 174.189 358.19 174.576 358.077 174.981L356.86 174.641C356.887 174.291 356.826 174.015 356.677 173.813C356.528 173.611 356.264 173.456 355.883 173.35C355.502 173.243 355.194 173.228 354.958 173.305C354.723 173.382 354.572 173.536 354.507 173.768C354.459 173.942 354.481 174.1 354.575 174.242C354.68 174.378 354.842 174.517 355.061 174.659C355.28 174.801 355.541 174.954 355.843 175.119C356.117 175.285 356.375 175.451 356.614 175.616C356.856 175.773 357.061 175.947 357.231 176.137C357.412 176.321 357.535 176.534 357.601 176.776C357.667 177.018 357.658 177.292 357.572 177.598C357.465 177.979 357.27 178.277 356.987 178.492C356.712 178.709 356.363 178.839 355.941 178.882C355.52 178.916 355.041 178.857 354.503 178.707C354.032 178.575 353.637 178.406 353.32 178.201C353.01 177.999 352.764 177.778 352.581 177.539C352.406 177.303 352.285 177.068 352.216 176.835C352.148 176.601 352.114 176.387 352.115 176.191C352.125 175.997 352.155 175.84 352.207 175.721Z" fill="white"/>
</g>
</g>
<defs>
<filter id="filter0_d_12054_53576" x="199.152" y="105.507" width="203.782" height="119.689" filterUnits="userSpaceOnUse" color-interpolation-filters="sRGB">
<feFlood flood-opacity="0" result="BackgroundImageFix"/>
<feColorMatrix in="SourceAlpha" type="matrix" values="0 0 0 0 0 0 0 0 0 0 0 0 0 0 0 0 0 0 127 0" result="hardAlpha"/>
<feOffset dy="6.43513"/>
<feGaussianBlur stdDeviation="8.04392"/>
<feComposite in2="hardAlpha" operator="out"/>
<feColorMatrix type="matrix" values="0 0 0 0 0 0 0 0 0 0 0 0 0 0 0 0 0 0 0.12 0"/>
<feBlend mode="normal" in2="BackgroundImageFix" result="effect1_dropShadow_12054_53576"/>
<feBlend mode="normal" in="SourceGraphic" in2="effect1_dropShadow_12054_53576" result="shape"/>
</filter>
<clipPath id="clip0_12054_53576">
<rect width="453.397" height="234" fill="white" transform="translate(0.568359 0.292969)"/>
</clipPath>
</defs>
</svg>
