<svg width="22" height="18" viewBox="0 0 22 18" fill="none" xmlns="http://www.w3.org/2000/svg">
<path d="M7.5282 0.493591L8.8282 2.44359C8.13487 3.48359 7.50654 4.58859 6.9432 5.75859C6.37987 6.92859 6.05487 8.12026 5.9682 9.33359L9.4782 10.0486V17.0686H0.573203V11.9986C0.573203 9.09526 1.2232 6.73359 2.5232 4.91359C3.86654 3.09359 5.53487 1.62026 7.5282 0.493591ZM19.2282 0.493591L20.5282 2.44359C19.8349 3.48359 19.2065 4.58859 18.6432 5.75859C18.0799 6.92859 17.7549 8.12026 17.6682 9.33359L21.1782 10.0486V17.0686H12.2732V11.9986C12.2732 9.09526 12.9232 6.73359 14.2232 4.91359C15.5665 3.09359 17.2349 1.62026 19.2282 0.493591Z" fill="black"/>
</svg>
