<svg width="216" height="39" viewBox="0 0 216 39" fill="none" xmlns="http://www.w3.org/2000/svg">
<rect width="187" height="39" rx="19.5" fill="#FFF9F0"/>
<path d="M36.07 20.26V19.42H38.4C38.7867 19.42 39.0967 19.3033 39.33 19.07C39.57 18.8367 39.69 18.53 39.69 18.15C39.69 17.7567 39.57 17.4467 39.33 17.22C39.0967 16.9933 38.7867 16.88 38.4 16.88H36.23V22.5H35.27V16.01H38.36C38.68 16.01 38.9767 16.0567 39.25 16.15C39.53 16.2367 39.7733 16.37 39.98 16.55C40.1933 16.73 40.3567 16.9533 40.47 17.22C40.59 17.4867 40.65 17.7967 40.65 18.15C40.65 18.4967 40.59 18.8033 40.47 19.07C40.3567 19.3367 40.1933 19.56 39.98 19.74C39.7733 19.9133 39.53 20.0433 39.25 20.13C38.9767 20.2167 38.68 20.26 38.36 20.26H36.07ZM44.9613 19.69V21.64H49.1413V22.5H44.0013V16.01H49.1313V16.87H44.9613V18.85H48.3713V19.69H44.9613ZM52.6345 22.5V16.01H55.9745C56.4412 16.01 56.8412 16.08 57.1745 16.22C57.5145 16.3533 57.7745 16.56 57.9545 16.84C58.1345 17.1133 58.2245 17.4633 58.2245 17.89C58.2245 18.1833 58.1745 18.4333 58.0745 18.64C57.9812 18.84 57.8512 19.0067 57.6845 19.14C57.5179 19.2733 57.3212 19.3767 57.0945 19.45C56.8679 19.5233 56.6245 19.57 56.3645 19.59L56.2945 19.53C56.6879 19.5433 57.0179 19.5867 57.2845 19.66C57.5512 19.7333 57.7545 19.8667 57.8945 20.06C58.0412 20.2467 58.1145 20.5267 58.1145 20.9V22.5H57.1445V20.93C57.1445 20.67 57.1012 20.4667 57.0145 20.32C56.9279 20.1733 56.7779 20.07 56.5645 20.01C56.3512 19.95 56.0512 19.92 55.6645 19.92H53.5945V22.5H52.6345ZM53.5945 19.08H55.9745C56.4012 19.08 56.7212 18.9733 56.9345 18.76C57.1545 18.5467 57.2645 18.2667 57.2645 17.92C57.2645 17.5867 57.1545 17.33 56.9345 17.15C56.7212 16.97 56.4012 16.88 55.9745 16.88H53.5945V19.08ZM61.2867 20.37H62.2067C62.2267 20.63 62.3134 20.8667 62.4667 21.08C62.6267 21.2867 62.8401 21.45 63.1067 21.57C63.3801 21.69 63.6967 21.75 64.0567 21.75C64.3701 21.75 64.6301 21.7067 64.8367 21.62C65.0434 21.5333 65.1967 21.4167 65.2967 21.27C65.4034 21.1167 65.4567 20.9367 65.4567 20.73C65.4567 20.5233 65.4001 20.36 65.2867 20.24C65.1734 20.1133 65.0034 20.01 64.7767 19.93C64.5501 19.8433 64.2701 19.76 63.9367 19.68C63.6434 19.6067 63.3534 19.52 63.0667 19.42C62.7867 19.3133 62.5267 19.1833 62.2867 19.03C62.0534 18.8767 61.8634 18.6933 61.7167 18.48C61.5767 18.26 61.5067 17.9967 61.5067 17.69C61.5067 17.3633 61.5967 17.0667 61.7767 16.8C61.9567 16.5267 62.2201 16.31 62.5667 16.15C62.9201 15.9833 63.3467 15.9 63.8467 15.9C64.6201 15.9 65.2034 16.0933 65.5967 16.48C65.9967 16.8667 66.1901 17.3833 66.1767 18.03H65.2767C65.2567 17.5767 65.1134 17.2533 64.8467 17.06C64.5801 16.86 64.2334 16.76 63.8067 16.76C63.4401 16.76 63.1267 16.8367 62.8667 16.99C62.6067 17.1367 62.4767 17.37 62.4767 17.69C62.4767 17.83 62.5067 17.9533 62.5667 18.06C62.6267 18.16 62.7267 18.2533 62.8667 18.34C63.0067 18.4267 63.1934 18.51 63.4267 18.59C63.6667 18.67 63.9634 18.7567 64.3167 18.85C64.5834 18.91 64.8401 18.9867 65.0867 19.08C65.3401 19.1733 65.5667 19.29 65.7667 19.43C65.9667 19.57 66.1234 19.75 66.2367 19.97C66.3567 20.19 66.4167 20.46 66.4167 20.78C66.4167 21.12 66.3334 21.43 66.1667 21.71C66.0001 21.9833 65.7401 22.2033 65.3867 22.37C65.0401 22.53 64.5901 22.61 64.0367 22.61C63.5967 22.61 63.2134 22.5533 62.8867 22.44C62.5667 22.3267 62.2967 22.18 62.0767 22C61.8634 21.82 61.6934 21.6267 61.5667 21.42C61.4467 21.2133 61.3634 21.0167 61.3167 20.83C61.2767 20.6433 61.2667 20.49 61.2867 20.37ZM72.8956 22.61C72.2223 22.61 71.6223 22.4733 71.0956 22.2C70.5756 21.9267 70.1656 21.54 69.8656 21.04C69.5723 20.54 69.4256 19.9467 69.4256 19.26C69.4256 18.5667 69.5723 17.97 69.8656 17.47C70.1656 16.97 70.5756 16.5833 71.0956 16.31C71.6223 16.0367 72.2223 15.9 72.8956 15.9C73.5756 15.9 74.1756 16.0367 74.6956 16.31C75.2156 16.5833 75.6256 16.97 75.9256 17.47C76.2256 17.97 76.3756 18.5667 76.3756 19.26C76.3756 19.9467 76.2256 20.54 75.9256 21.04C75.6256 21.54 75.2156 21.9267 74.6956 22.2C74.1756 22.4733 73.5756 22.61 72.8956 22.61ZM72.8956 21.74C73.3756 21.74 73.8023 21.6467 74.1756 21.46C74.549 21.2733 74.8456 20.9967 75.0656 20.63C75.2856 20.2633 75.3956 19.8067 75.3956 19.26C75.3956 18.7133 75.2856 18.2567 75.0656 17.89C74.8456 17.5233 74.549 17.2467 74.1756 17.06C73.8023 16.8667 73.3756 16.77 72.8956 16.77C72.429 16.77 72.0056 16.8667 71.6256 17.06C71.2456 17.2467 70.9456 17.5233 70.7256 17.89C70.5056 18.2567 70.3956 18.7133 70.3956 19.26C70.3956 19.8067 70.5056 20.2633 70.7256 20.63C70.9456 20.9967 71.2456 21.2733 71.6256 21.46C72.0056 21.6467 72.429 21.74 72.8956 21.74ZM85.2644 21.44L84.9844 21.54V16.01H85.9544V22.5H84.9844L80.4544 17.09L80.7344 16.99V22.5H79.7744V16.01H80.7344L85.2644 21.44ZM90.448 20.89V20.03H93.928V20.89H90.448ZM89.038 22.5L91.688 16.01H92.708L95.378 22.5H94.338L92.018 16.64H92.378L90.068 22.5H89.038ZM99.4168 16.01V21.64H103.237V22.5H98.4568V16.01H99.4168ZM111.879 16.01V21.64H115.699V22.5H110.919V16.01H111.879ZM121.97 22.61C121.297 22.61 120.697 22.4733 120.17 22.2C119.65 21.9267 119.24 21.54 118.94 21.04C118.647 20.54 118.5 19.9467 118.5 19.26C118.5 18.5667 118.647 17.97 118.94 17.47C119.24 16.97 119.65 16.5833 120.17 16.31C120.697 16.0367 121.297 15.9 121.97 15.9C122.65 15.9 123.25 16.0367 123.77 16.31C124.29 16.5833 124.7 16.97 125 17.47C125.3 17.97 125.45 18.5667 125.45 19.26C125.45 19.9467 125.3 20.54 125 21.04C124.7 21.54 124.29 21.9267 123.77 22.2C123.25 22.4733 122.65 22.61 121.97 22.61ZM121.97 21.74C122.45 21.74 122.877 21.6467 123.25 21.46C123.624 21.2733 123.92 20.9967 124.14 20.63C124.36 20.2633 124.47 19.8067 124.47 19.26C124.47 18.7133 124.36 18.2567 124.14 17.89C123.92 17.5233 123.624 17.2467 123.25 17.06C122.877 16.8667 122.45 16.77 121.97 16.77C121.504 16.77 121.08 16.8667 120.7 17.06C120.32 17.2467 120.02 17.5233 119.8 17.89C119.58 18.2567 119.47 18.7133 119.47 19.26C119.47 19.8067 119.58 20.2633 119.8 20.63C120.02 20.9967 120.32 21.2733 120.7 21.46C121.08 21.6467 121.504 21.74 121.97 21.74ZM129.425 20.89V20.03H132.905V20.89H129.425ZM128.015 22.5L130.665 16.01H131.685L134.355 22.5H133.315L130.995 16.64H131.355L129.045 22.5H128.015ZM142.923 21.44L142.643 21.54V16.01H143.613V22.5H142.643L138.113 17.09L138.393 16.99V22.5H137.433V16.01H138.393L142.923 21.44ZM146.857 20.37H147.777C147.797 20.63 147.884 20.8667 148.037 21.08C148.197 21.2867 148.41 21.45 148.677 21.57C148.95 21.69 149.267 21.75 149.627 21.75C149.94 21.75 150.2 21.7067 150.407 21.62C150.614 21.5333 150.767 21.4167 150.867 21.27C150.974 21.1167 151.027 20.9367 151.027 20.73C151.027 20.5233 150.97 20.36 150.857 20.24C150.744 20.1133 150.574 20.01 150.347 19.93C150.12 19.8433 149.84 19.76 149.507 19.68C149.214 19.6067 148.924 19.52 148.637 19.42C148.357 19.3133 148.097 19.1833 147.857 19.03C147.624 18.8767 147.434 18.6933 147.287 18.48C147.147 18.26 147.077 17.9967 147.077 17.69C147.077 17.3633 147.167 17.0667 147.347 16.8C147.527 16.5267 147.79 16.31 148.137 16.15C148.49 15.9833 148.917 15.9 149.417 15.9C150.19 15.9 150.774 16.0933 151.167 16.48C151.567 16.8667 151.76 17.3833 151.747 18.03H150.847C150.827 17.5767 150.684 17.2533 150.417 17.06C150.15 16.86 149.804 16.76 149.377 16.76C149.01 16.76 148.697 16.8367 148.437 16.99C148.177 17.1367 148.047 17.37 148.047 17.69C148.047 17.83 148.077 17.9533 148.137 18.06C148.197 18.16 148.297 18.2533 148.437 18.34C148.577 18.4267 148.764 18.51 148.997 18.59C149.237 18.67 149.534 18.7567 149.887 18.85C150.154 18.91 150.41 18.9867 150.657 19.08C150.91 19.1733 151.137 19.29 151.337 19.43C151.537 19.57 151.694 19.75 151.807 19.97C151.927 20.19 151.987 20.46 151.987 20.78C151.987 21.12 151.904 21.43 151.737 21.71C151.57 21.9833 151.31 22.2033 150.957 22.37C150.61 22.53 150.16 22.61 149.607 22.61C149.167 22.61 148.784 22.5533 148.457 22.44C148.137 22.3267 147.867 22.18 147.647 22C147.434 21.82 147.264 21.6267 147.137 21.42C147.017 21.2133 146.934 21.0167 146.887 20.83C146.847 20.6433 146.837 20.49 146.857 20.37Z" fill="#FFAB37"/>
<circle cx="208" cy="19.5" r="7.5" stroke="#FFAB37"/>
<circle cx="208" cy="19.5" r="4" fill="#FFAB37"/>
</svg>
