<svg width="777" height="81" viewBox="0 0 777 81" fill="none" xmlns="http://www.w3.org/2000/svg">
<path d="M51.2919 48.6587V42.4837H68.3219C70.7053 42.4837 72.6119 41.7903 74.0419 40.4037C75.5153 39.017 76.2519 37.1537 76.2519 34.8137C76.2519 32.387 75.5153 30.502 74.0419 29.1587C72.6119 27.772 70.7053 27.0787 68.3219 27.0787H52.3319V62.7637H44.9219V20.6437H67.8019C70.0119 20.6437 72.0703 20.947 73.9769 21.5537C75.8836 22.117 77.5519 22.9837 78.9819 24.1537C80.4553 25.3237 81.5819 26.797 82.3619 28.5737C83.1853 30.307 83.5969 32.387 83.5969 34.8137C83.5969 37.197 83.1853 39.277 82.3619 41.0537C81.5819 42.787 80.4553 44.217 78.9819 45.3437C77.5519 46.4703 75.8836 47.3153 73.9769 47.8787C72.0703 48.3987 70.0119 48.6587 67.8019 48.6587H51.2919ZM116.565 52.1037H123.52C123.173 54.3137 122.306 56.2853 120.92 58.0187C119.576 59.7087 117.735 61.052 115.395 62.0487C113.055 63.002 110.26 63.4787 107.01 63.4787C103.326 63.4787 100.033 62.807 97.1296 61.4637C94.2263 60.077 91.9513 58.127 90.3046 55.6137C88.658 53.1003 87.8346 50.1103 87.8346 46.6437C87.8346 43.2203 88.6363 40.2303 90.2396 37.6737C91.843 35.117 94.053 33.1453 96.8696 31.7587C99.7296 30.372 103.023 29.6787 106.75 29.6787C110.606 29.6787 113.813 30.372 116.37 31.7587C118.97 33.102 120.898 35.1387 122.155 37.8687C123.411 40.5553 123.931 43.957 123.715 48.0737H95.1796C95.3963 49.8937 95.9813 51.5403 96.9346 53.0137C97.9313 54.4437 99.2746 55.5703 100.965 56.3937C102.655 57.1737 104.626 57.5637 106.88 57.5637C109.393 57.5637 111.495 57.0653 113.185 56.0687C114.918 55.072 116.045 53.7503 116.565 52.1037ZM106.555 35.5287C103.608 35.5287 101.181 36.2653 99.2746 37.7387C97.368 39.1687 96.133 41.0103 95.5696 43.2637H116.435C116.261 40.837 115.286 38.952 113.51 37.6087C111.733 36.222 109.415 35.5287 106.555 35.5287ZM130.15 30.3937H137.365V62.7637H130.15V30.3937ZM149.065 36.5687C146.725 36.5687 144.71 37.067 143.02 38.0637C141.373 39.0603 140.051 40.2737 139.055 41.7037C138.058 43.1337 137.365 44.5203 136.975 45.8637L136.91 42.2237C136.953 41.747 137.105 41.032 137.365 40.0787C137.625 39.082 138.015 37.9987 138.535 36.8287C139.098 35.6587 139.835 34.532 140.745 33.4487C141.698 32.322 142.846 31.412 144.19 30.7187C145.576 30.0253 147.201 29.6787 149.065 29.6787V36.5687ZM153.095 52.1037H159.79C160.136 53.7503 161.025 55.0937 162.455 56.1337C163.885 57.1303 165.813 57.6287 168.24 57.6287C169.8 57.6287 171.013 57.4553 171.88 57.1087C172.79 56.762 173.418 56.2853 173.765 55.6787C174.155 55.072 174.35 54.3787 174.35 53.5987C174.35 52.6453 174.068 51.9087 173.505 51.3887C172.985 50.8687 172.205 50.4353 171.165 50.0887C170.125 49.742 168.825 49.4387 167.265 49.1787C165.661 48.7887 164.08 48.3553 162.52 47.8787C160.96 47.402 159.551 46.817 158.295 46.1237C157.038 45.387 156.041 44.477 155.305 43.3937C154.611 42.267 154.265 40.902 154.265 39.2987C154.265 37.8253 154.59 36.5037 155.24 35.3337C155.933 34.1203 156.886 33.102 158.1 32.2787C159.313 31.4553 160.743 30.827 162.39 30.3937C164.036 29.917 165.835 29.6787 167.785 29.6787C170.601 29.6787 172.941 30.1337 174.805 31.0437C176.711 31.9537 178.141 33.232 179.095 34.8787C180.091 36.5253 180.59 38.4103 180.59 40.5337H174.22C173.873 38.8003 173.201 37.5437 172.205 36.7637C171.208 35.9837 169.713 35.5937 167.72 35.5937C165.726 35.5937 164.21 35.9403 163.17 36.6337C162.13 37.327 161.61 38.2803 161.61 39.4937C161.61 40.4037 161.935 41.1403 162.585 41.7037C163.278 42.2237 164.253 42.6787 165.51 43.0687C166.766 43.4587 168.24 43.8487 169.93 44.2387C171.49 44.672 172.963 45.127 174.35 45.6037C175.736 46.037 176.971 46.6003 178.055 47.2937C179.181 47.9437 180.07 48.8103 180.72 49.8937C181.37 50.977 181.695 52.3203 181.695 53.9237C181.695 55.917 181.153 57.6287 180.07 59.0587C179.03 60.4887 177.513 61.5937 175.52 62.3737C173.526 63.1103 171.121 63.4787 168.305 63.4787C165.835 63.4787 163.69 63.197 161.87 62.6337C160.093 62.0703 158.598 61.3337 157.385 60.4237C156.215 59.5137 155.305 58.5387 154.655 57.4987C154.005 56.4587 153.55 55.462 153.29 54.5087C153.073 53.5553 153.008 52.7537 153.095 52.1037ZM205.456 63.4787C201.859 63.4787 198.631 62.8287 195.771 61.5287C192.911 60.2287 190.657 58.322 189.011 55.8087C187.364 53.2953 186.541 50.2403 186.541 46.6437C186.541 43.0903 187.364 40.057 189.011 37.5437C190.657 34.987 192.911 33.037 195.771 31.6937C198.631 30.3503 201.859 29.6787 205.456 29.6787C209.052 29.6787 212.259 30.3503 215.076 31.6937C217.892 33.037 220.102 34.987 221.706 37.5437C223.352 40.057 224.176 43.0903 224.176 46.6437C224.176 50.2403 223.352 53.2953 221.706 55.8087C220.102 58.322 217.892 60.2287 215.076 61.5287C212.259 62.8287 209.052 63.4787 205.456 63.4787ZM205.456 57.5637C207.536 57.5637 209.442 57.152 211.176 56.3287C212.909 55.5053 214.274 54.2703 215.271 52.6237C216.311 50.977 216.831 48.9837 216.831 46.6437C216.831 44.3037 216.311 42.3103 215.271 40.6637C214.274 39.017 212.909 37.7603 211.176 36.8937C209.486 35.9837 207.579 35.5287 205.456 35.5287C203.332 35.5287 201.404 35.962 199.671 36.8287C197.937 37.6953 196.529 38.952 195.446 40.5987C194.406 42.2453 193.886 44.2603 193.886 46.6437C193.886 48.9837 194.406 50.977 195.446 52.6237C196.486 54.2703 197.872 55.5053 199.606 56.3287C201.382 57.152 203.332 57.5637 205.456 57.5637ZM230.633 30.3937H237.848V62.7637H230.633V30.3937ZM251.498 29.6787C253.361 29.6787 255.073 29.9387 256.633 30.4587C258.236 30.9787 259.601 31.7803 260.728 32.8637C261.898 33.9037 262.786 35.2037 263.393 36.7637C264.043 38.3237 264.368 40.1653 264.368 42.2887V62.7637H257.153V43.7187C257.153 41.0753 256.503 39.1253 255.203 37.8687C253.946 36.5687 251.953 35.9187 249.223 35.9187C247.143 35.9187 245.236 36.3737 243.503 37.2837C241.813 38.1503 240.426 39.2987 239.343 40.7287C238.26 42.1153 237.631 43.6537 237.458 45.3437L237.393 41.8337C237.61 40.2303 238.086 38.7137 238.823 37.2837C239.56 35.8103 240.535 34.5103 241.748 33.3837C242.961 32.2137 244.391 31.3037 246.038 30.6537C247.685 30.0037 249.505 29.6787 251.498 29.6787ZM286.767 63.4787C283.82 63.4787 281.112 62.7637 278.642 61.3337C276.215 59.9037 274.265 57.932 272.792 55.4187C271.362 52.862 270.647 49.937 270.647 46.6437C270.647 43.2637 271.384 40.317 272.857 37.8037C274.33 35.247 276.324 33.2537 278.837 31.8237C281.35 30.3937 284.167 29.6787 287.287 29.6787C290.754 29.6787 293.505 30.437 295.542 31.9537C297.579 33.4703 299.03 35.507 299.897 38.0637C300.764 40.6203 301.197 43.4803 301.197 46.6437C301.197 48.4203 300.937 50.3053 300.417 52.2987C299.897 54.2487 299.074 56.0687 297.947 57.7587C296.864 59.4487 295.39 60.8353 293.527 61.9187C291.707 62.9587 289.454 63.4787 286.767 63.4787ZM288.977 57.4987C291.404 57.4987 293.462 57.0437 295.152 56.1337C296.885 55.1803 298.185 53.8803 299.052 52.2337C299.962 50.587 300.417 48.7237 300.417 46.6437C300.417 44.347 299.962 42.397 299.052 40.7937C298.142 39.147 296.842 37.8903 295.152 37.0237C293.462 36.1137 291.404 35.6587 288.977 35.6587C285.51 35.6587 282.824 36.677 280.917 38.7137C279.01 40.7503 278.057 43.3937 278.057 46.6437C278.057 48.767 278.512 50.652 279.422 52.2987C280.375 53.9453 281.675 55.2237 283.322 56.1337C284.969 57.0437 286.854 57.4987 288.977 57.4987ZM300.417 30.3937H307.697V62.7637H300.937C300.937 62.7637 300.894 62.352 300.807 61.5287C300.72 60.7053 300.634 59.7087 300.547 58.5387C300.46 57.3253 300.417 56.177 300.417 55.0937V30.3937ZM316.278 17.3937H323.493V62.7637H316.278V17.3937ZM340.709 16.6787V23.6337H332.064V16.6787H340.709ZM332.714 30.3937H339.994V62.7637H332.714V30.3937ZM378.081 36.2437L354.486 59.1887L353.641 56.9137H378.471V62.7637H348.246V56.9137L371.971 34.0337L372.881 36.2437H348.246V30.3937H378.081V36.2437ZM412.619 52.1037H419.574C419.228 54.3137 418.361 56.2853 416.974 58.0187C415.631 59.7087 413.789 61.052 411.449 62.0487C409.109 63.002 406.314 63.4787 403.064 63.4787C399.381 63.4787 396.088 62.807 393.184 61.4637C390.281 60.077 388.006 58.127 386.359 55.6137C384.713 53.1003 383.889 50.1103 383.889 46.6437C383.889 43.2203 384.691 40.2303 386.294 37.6737C387.898 35.117 390.108 33.1453 392.924 31.7587C395.784 30.372 399.078 29.6787 402.804 29.6787C406.661 29.6787 409.868 30.372 412.424 31.7587C415.024 33.102 416.953 35.1387 418.209 37.8687C419.466 40.5553 419.986 43.957 419.769 48.0737H391.234C391.451 49.8937 392.036 51.5403 392.989 53.0137C393.986 54.4437 395.329 55.5703 397.019 56.3937C398.709 57.1737 400.681 57.5637 402.934 57.5637C405.448 57.5637 407.549 57.0653 409.239 56.0687C410.973 55.072 412.099 53.7503 412.619 52.1037ZM402.609 35.5287C399.663 35.5287 397.236 36.2653 395.329 37.7387C393.423 39.1687 392.188 41.0103 391.624 43.2637H412.489C412.316 40.837 411.341 38.952 409.564 37.6087C407.788 36.222 405.469 35.5287 402.609 35.5287ZM440.634 63.4787C437.644 63.4787 434.914 62.7637 432.444 61.3337C430.018 59.9037 428.089 57.932 426.659 55.4187C425.229 52.862 424.514 49.937 424.514 46.6437C424.514 43.2637 425.208 40.317 426.594 37.8037C428.024 35.247 429.931 33.2537 432.314 31.8237C434.741 30.3937 437.514 29.6787 440.634 29.6787C443.364 29.6787 445.661 30.1337 447.524 31.0437C449.388 31.9103 450.861 33.1237 451.944 34.6837C453.028 36.2003 453.808 37.977 454.284 40.0137C454.804 42.0503 455.064 44.2603 455.064 46.6437C455.064 48.4203 454.804 50.3053 454.284 52.2987C453.764 54.2487 452.941 56.0687 451.814 57.7587C450.731 59.4487 449.258 60.8353 447.394 61.9187C445.574 62.9587 443.321 63.4787 440.634 63.4787ZM442.844 57.4987C445.271 57.4987 447.329 57.0437 449.019 56.1337C450.753 55.1803 452.053 53.8803 452.919 52.2337C453.829 50.587 454.284 48.7237 454.284 46.6437C454.284 44.347 453.829 42.397 452.919 40.7937C452.009 39.147 450.709 37.8687 449.019 36.9587C447.329 36.0487 445.271 35.5937 442.844 35.5937C439.378 35.5937 436.691 36.6337 434.784 38.7137C432.878 40.7503 431.924 43.3937 431.924 46.6437C431.924 48.767 432.379 50.652 433.289 52.2987C434.243 53.9453 435.543 55.2237 437.189 56.1337C438.836 57.0437 440.721 57.4987 442.844 57.4987ZM454.284 17.3937H461.564V62.7637H454.804C454.718 61.767 454.609 60.532 454.479 59.0587C454.349 57.5853 454.284 56.2637 454.284 55.0937V17.3937ZM484.315 52.1037H491.01C491.357 53.7503 492.245 55.0937 493.675 56.1337C495.105 57.1303 497.034 57.6287 499.46 57.6287C501.02 57.6287 502.234 57.4553 503.1 57.1087C504.01 56.762 504.639 56.2853 504.985 55.6787C505.375 55.072 505.57 54.3787 505.57 53.5987C505.57 52.6453 505.289 51.9087 504.725 51.3887C504.205 50.8687 503.425 50.4353 502.385 50.0887C501.345 49.742 500.045 49.4387 498.485 49.1787C496.882 48.7887 495.3 48.3553 493.74 47.8787C492.18 47.402 490.772 46.817 489.515 46.1237C488.259 45.387 487.262 44.477 486.525 43.3937C485.832 42.267 485.485 40.902 485.485 39.2987C485.485 37.8253 485.81 36.5037 486.46 35.3337C487.154 34.1203 488.107 33.102 489.32 32.2787C490.534 31.4553 491.964 30.827 493.61 30.3937C495.257 29.917 497.055 29.6787 499.005 29.6787C501.822 29.6787 504.162 30.1337 506.025 31.0437C507.932 31.9537 509.362 33.232 510.315 34.8787C511.312 36.5253 511.81 38.4103 511.81 40.5337H505.44C505.094 38.8003 504.422 37.5437 503.425 36.7637C502.429 35.9837 500.934 35.5937 498.94 35.5937C496.947 35.5937 495.43 35.9403 494.39 36.6337C493.35 37.327 492.83 38.2803 492.83 39.4937C492.83 40.4037 493.155 41.1403 493.805 41.7037C494.499 42.2237 495.474 42.6787 496.73 43.0687C497.987 43.4587 499.46 43.8487 501.15 44.2387C502.71 44.672 504.184 45.127 505.57 45.6037C506.957 46.037 508.192 46.6003 509.275 47.2937C510.402 47.9437 511.29 48.8103 511.94 49.8937C512.59 50.977 512.915 52.3203 512.915 53.9237C512.915 55.917 512.374 57.6287 511.29 59.0587C510.25 60.4887 508.734 61.5937 506.74 62.3737C504.747 63.1103 502.342 63.4787 499.525 63.4787C497.055 63.4787 494.91 63.197 493.09 62.6337C491.314 62.0703 489.819 61.3337 488.605 60.4237C487.435 59.5137 486.525 58.5387 485.875 57.4987C485.225 56.4587 484.77 55.462 484.51 54.5087C484.294 53.5553 484.229 52.7537 484.315 52.1037ZM553.186 62.7637H545.971V30.3937H553.186V62.7637ZM546.361 47.3587L546.426 49.4387C546.34 50.002 546.145 50.847 545.841 51.9737C545.581 53.1003 545.126 54.3353 544.476 55.6787C543.87 56.9787 543.046 58.2353 542.006 59.4487C541.01 60.6187 539.753 61.5937 538.236 62.3737C536.72 63.1103 534.878 63.4787 532.711 63.4787C531.151 63.4787 529.57 63.262 527.966 62.8287C526.406 62.4387 524.976 61.767 523.676 60.8137C522.42 59.8603 521.401 58.5603 520.621 56.9137C519.841 55.267 519.451 53.187 519.451 50.6737V30.3937H526.666V49.3087C526.666 51.3453 526.991 52.9487 527.641 54.1187C528.335 55.2453 529.288 56.047 530.501 56.5237C531.715 57.0003 533.123 57.2387 534.726 57.2387C537.023 57.2387 538.973 56.7187 540.576 55.6787C542.18 54.6387 543.458 53.3603 544.411 51.8437C545.408 50.2837 546.058 48.7887 546.361 47.3587ZM581.955 63.4787C579.312 63.4787 577.059 62.9587 575.195 61.9187C573.375 60.8787 571.902 59.5137 570.775 57.8237C569.692 56.0903 568.89 54.2487 568.37 52.2987C567.85 50.3053 567.59 48.4203 567.59 46.6437C567.59 44.2603 567.829 42.0503 568.305 40.0137C568.825 37.977 569.627 36.2003 570.71 34.6837C571.837 33.1237 573.31 31.9103 575.13 31.0437C576.994 30.1337 579.269 29.6787 581.955 29.6787C584.989 29.6787 587.719 30.4153 590.145 31.8887C592.572 33.3187 594.5 35.312 595.93 37.8687C597.36 40.382 598.075 43.307 598.075 46.6437C598.075 49.9803 597.339 52.927 595.865 55.4837C594.435 57.997 592.507 59.9687 590.08 61.3987C587.654 62.7853 584.945 63.4787 581.955 63.4787ZM579.81 57.4987C581.977 57.4987 583.884 57.0437 585.53 56.1337C587.177 55.2237 588.455 53.9453 589.365 52.2987C590.275 50.652 590.73 48.767 590.73 46.6437C590.73 43.3937 589.777 40.7503 587.87 38.7137C585.964 36.6337 583.277 35.5937 579.81 35.5937C577.644 35.5937 575.694 36.0487 573.96 36.9587C572.227 37.8687 570.862 39.147 569.865 40.7937C568.869 42.397 568.37 44.347 568.37 46.6437C568.37 48.7237 568.825 50.587 569.735 52.2337C570.645 53.8803 571.945 55.1803 573.635 56.1337C575.325 57.0437 577.384 57.4987 579.81 57.4987ZM561.155 30.3937H568.045L568.37 38.3237V75.7637H561.155V30.3937ZM625.31 63.4787C622.667 63.4787 620.413 62.9587 618.55 61.9187C616.73 60.8787 615.257 59.5137 614.13 57.8237C613.047 56.0903 612.245 54.2487 611.725 52.2987C611.205 50.3053 610.945 48.4203 610.945 46.6437C610.945 44.2603 611.183 42.0503 611.66 40.0137C612.18 37.977 612.982 36.2003 614.065 34.6837C615.192 33.1237 616.665 31.9103 618.485 31.0437C620.348 30.1337 622.623 29.6787 625.31 29.6787C628.343 29.6787 631.073 30.4153 633.5 31.8887C635.927 33.3187 637.855 35.312 639.285 37.8687C640.715 40.382 641.43 43.307 641.43 46.6437C641.43 49.9803 640.693 52.927 639.22 55.4837C637.79 57.997 635.862 59.9687 633.435 61.3987C631.008 62.7853 628.3 63.4787 625.31 63.4787ZM623.165 57.4987C625.332 57.4987 627.238 57.0437 628.885 56.1337C630.532 55.2237 631.81 53.9453 632.72 52.2987C633.63 50.652 634.085 48.767 634.085 46.6437C634.085 43.3937 633.132 40.7503 631.225 38.7137C629.318 36.6337 626.632 35.5937 623.165 35.5937C620.998 35.5937 619.048 36.0487 617.315 36.9587C615.582 37.8687 614.217 39.147 613.22 40.7937C612.223 42.397 611.725 44.347 611.725 46.6437C611.725 48.7237 612.18 50.587 613.09 52.2337C614 53.8803 615.3 55.1803 616.99 56.1337C618.68 57.0437 620.738 57.4987 623.165 57.4987ZM604.51 30.3937H611.4L611.725 38.3237V75.7637H604.51V30.3937ZM665.089 63.4787C661.493 63.4787 658.264 62.8287 655.404 61.5287C652.544 60.2287 650.291 58.322 648.644 55.8087C646.998 53.2953 646.174 50.2403 646.174 46.6437C646.174 43.0903 646.998 40.057 648.644 37.5437C650.291 34.987 652.544 33.037 655.404 31.6937C658.264 30.3503 661.493 29.6787 665.089 29.6787C668.686 29.6787 671.893 30.3503 674.709 31.6937C677.526 33.037 679.736 34.987 681.339 37.5437C682.986 40.057 683.809 43.0903 683.809 46.6437C683.809 50.2403 682.986 53.2953 681.339 55.8087C679.736 58.322 677.526 60.2287 674.709 61.5287C671.893 62.8287 668.686 63.4787 665.089 63.4787ZM665.089 57.5637C667.169 57.5637 669.076 57.152 670.809 56.3287C672.543 55.5053 673.908 54.2703 674.904 52.6237C675.944 50.977 676.464 48.9837 676.464 46.6437C676.464 44.3037 675.944 42.3103 674.904 40.6637C673.908 39.017 672.543 37.7603 670.809 36.8937C669.119 35.9837 667.213 35.5287 665.089 35.5287C662.966 35.5287 661.038 35.962 659.304 36.8287C657.571 37.6953 656.163 38.952 655.079 40.5987C654.039 42.2453 653.519 44.2603 653.519 46.6437C653.519 48.9837 654.039 50.977 655.079 52.6237C656.119 54.2703 657.506 55.5053 659.239 56.3287C661.016 57.152 662.966 57.5637 665.089 57.5637ZM690.267 30.3937H697.482V62.7637H690.267V30.3937ZM709.182 36.5687C706.842 36.5687 704.827 37.067 703.137 38.0637C701.49 39.0603 700.168 40.2737 699.172 41.7037C698.175 43.1337 697.482 44.5203 697.092 45.8637L697.027 42.2237C697.07 41.747 697.222 41.032 697.482 40.0787C697.742 39.082 698.132 37.9987 698.652 36.8287C699.215 35.6587 699.952 34.532 700.862 33.4487C701.815 32.322 702.963 31.412 704.307 30.7187C705.693 30.0253 707.318 29.6787 709.182 29.6787V36.5687ZM712.494 30.3937H735.374V36.3087H712.494V30.3937ZM720.294 21.6837H727.574V62.7637H720.294V21.6837Z" fill="#23A323"/>
<circle cx="742.651" cy="16.9346" r="16.7041" fill="white"/>
<g clip-path="url(#clip0_7218_69876)">
<mask id="mask0_7218_69876" style="mask-type:luminance" maskUnits="userSpaceOnUse" x="735" y="6" width="19" height="19">
<path d="M752.274 15.9302C752.274 20.4513 748.61 24.1162 744.088 24.1162H735.902V15.9302C735.902 11.409 739.567 7.74414 744.088 7.74414C748.61 7.74414 752.274 11.409 752.274 15.9302Z" fill="white" stroke="white" stroke-width="1.63721" stroke-linecap="round" stroke-linejoin="round"/>
<path d="M739.996 13.4746H747.364M739.996 16.749H747.364M739.996 20.0234H744.089" stroke="black" stroke-width="1.63721" stroke-linecap="round" stroke-linejoin="round"/>
</mask>
<g mask="url(#mask0_7218_69876)">
<path d="M734.266 6.10938H753.912V25.7559H734.266V6.10938Z" fill="#23A323"/>
</g>
</g>
<defs>
<clipPath id="clip0_7218_69876">
<rect width="19.6465" height="19.6465" fill="white" transform="translate(734.266 6.11133)"/>
</clipPath>
</defs>
</svg>
