<svg width="1211" height="69" viewBox="0 0 1211 69" fill="none" xmlns="http://www.w3.org/2000/svg">
<path d="M12.2 45.6504V35.0504H41.8C45.3333 35.0504 48.1333 34.1171 50.2 32.2504C52.2667 30.3171 53.3 27.6504 53.3 24.2504C53.3 20.7171 52.2667 18.0171 50.2 16.1504C48.1333 14.2837 45.3333 13.3504 41.8 13.3504H13.8V66.6504H0.5V1.95039H40.6C44.2 1.95039 47.5667 2.38372 50.7 3.25039C53.9 4.11705 56.6667 5.45039 59 7.25039C61.4 9.05039 63.2667 11.3504 64.6 14.1504C65.9333 16.9504 66.6 20.3171 66.6 24.2504C66.6 28.1171 65.9333 31.4171 64.6 34.1504C63.2667 36.8837 61.4 39.1171 59 40.8504C56.6667 42.5171 53.9 43.7504 50.7 44.5504C47.5667 45.2837 44.2 45.6504 40.6 45.6504H12.2ZM80.9172 52.5504V41.4504H123.717V52.5504H80.9172ZM64.8172 66.6504L95.2172 1.95039H109.617L140.317 66.6504H125.817L99.2172 8.35039H105.617L79.2172 66.6504H64.8172ZM149.723 66.6504V1.95039H193.623C198.623 1.95039 202.957 2.65039 206.623 4.05039C210.357 5.38372 213.257 7.51706 215.323 10.4504C217.39 13.3171 218.423 17.0171 218.423 21.5504C218.423 24.6171 217.89 27.2171 216.823 29.3504C215.757 31.4837 214.257 33.2171 212.323 34.5504C210.457 35.8837 208.29 36.9171 205.823 37.6504C203.357 38.3171 200.723 38.7504 197.923 38.9504L196.523 38.1504C201.19 38.2171 205.023 38.6171 208.023 39.3504C211.023 40.0171 213.257 41.2837 214.723 43.1504C216.257 44.9504 217.023 47.6504 217.023 51.2504V66.6504H203.723V52.1504C203.723 49.6837 203.29 47.7837 202.423 46.4504C201.557 45.0504 199.99 44.0837 197.723 43.5504C195.523 43.0171 192.323 42.7504 188.123 42.7504H163.023V66.6504H149.723ZM163.023 32.3504H193.623C197.357 32.3504 200.19 31.4504 202.123 29.6504C204.123 27.8504 205.123 25.4171 205.123 22.3504C205.123 19.4171 204.123 17.1837 202.123 15.6504C200.19 14.1171 197.357 13.3504 193.623 13.3504H163.023V32.3504ZM226.641 1.95039H294.841V13.0504H226.641V1.95039ZM254.141 11.6504H267.441V66.6504H254.141V11.6504ZM370.109 53.4504L365.909 55.1504V1.95039H379.209V66.6504H365.909L313.609 15.5504L317.809 13.8504V66.6504H304.509V1.95039H317.809L370.109 53.4504ZM407.945 39.6504V55.5504H457.845V66.6504H394.645V1.95039H457.745V13.0504H407.945V29.1504H448.745V39.6504H407.945ZM471.501 66.6504V1.95039H515.401C520.401 1.95039 524.734 2.65039 528.401 4.05039C532.134 5.38372 535.034 7.51706 537.101 10.4504C539.167 13.3171 540.201 17.0171 540.201 21.5504C540.201 24.6171 539.667 27.2171 538.601 29.3504C537.534 31.4837 536.034 33.2171 534.101 34.5504C532.234 35.8837 530.067 36.9171 527.601 37.6504C525.134 38.3171 522.501 38.7504 519.701 38.9504L518.301 38.1504C522.967 38.2171 526.801 38.6171 529.801 39.3504C532.801 40.0171 535.034 41.2837 536.501 43.1504C538.034 44.9504 538.801 47.6504 538.801 51.2504V66.6504H525.501V52.1504C525.501 49.6837 525.067 47.7837 524.201 46.4504C523.334 45.0504 521.767 44.0837 519.501 43.5504C517.301 43.0171 514.101 42.7504 509.901 42.7504H484.801V66.6504H471.501ZM484.801 32.3504H515.401C519.134 32.3504 521.967 31.4504 523.901 29.6504C525.901 27.8504 526.901 25.4171 526.901 22.3504C526.901 19.4171 525.901 17.1837 523.901 15.6504C521.967 14.1171 519.134 13.3504 515.401 13.3504H484.801V32.3504ZM549.818 44.8504H563.318C563.585 47.1171 564.618 49.1837 566.418 51.0504C568.285 52.8504 570.718 54.2837 573.718 55.3504C576.718 56.3504 580.085 56.8504 583.818 56.8504C587.218 56.8504 590.018 56.4837 592.218 55.7504C594.418 55.0171 596.051 53.9837 597.118 52.6504C598.185 51.3171 598.718 49.7171 598.718 47.8504C598.718 46.0504 598.051 44.6837 596.718 43.7504C595.385 42.7504 593.285 41.9504 590.418 41.3504C587.551 40.6837 583.785 40.0171 579.118 39.3504C575.451 38.8171 571.985 38.0837 568.718 37.1504C565.451 36.1504 562.551 34.8837 560.018 33.3504C557.551 31.8171 555.585 29.9504 554.118 27.7504C552.718 25.4837 552.018 22.8171 552.018 19.7504C552.018 15.9504 553.085 12.6171 555.218 9.75039C557.418 6.88372 560.651 4.65039 564.918 3.05039C569.185 1.45039 574.418 0.650388 580.618 0.650388C589.951 0.650388 597.118 2.65039 602.118 6.65039C607.185 10.5837 609.651 16.0171 609.518 22.9504H596.518C596.251 19.0171 594.585 16.1837 591.518 14.4504C588.518 12.7171 584.718 11.8504 580.118 11.8504C575.851 11.8504 572.318 12.4837 569.518 13.7504C566.785 15.0171 565.418 17.1837 565.418 20.2504C565.418 21.4504 565.751 22.5171 566.418 23.4504C567.085 24.3171 568.218 25.0837 569.818 25.7504C571.418 26.4171 573.585 27.0504 576.318 27.6504C579.051 28.2504 582.451 28.8504 586.518 29.4504C590.318 29.9837 593.751 30.7171 596.818 31.6504C599.951 32.5171 602.618 33.6837 604.818 35.1504C607.085 36.5504 608.818 38.3504 610.018 40.5504C611.218 42.7504 611.818 45.4504 611.818 48.6504C611.818 52.5837 610.785 56.0171 608.718 58.9504C606.718 61.8171 603.585 64.0504 599.318 65.6504C595.118 67.2504 589.651 68.0504 582.918 68.0504C578.118 68.0504 573.885 67.5504 570.218 66.5504C566.551 65.4837 563.385 64.0837 560.718 62.3504C558.051 60.6171 555.885 58.7171 554.218 56.6504C552.551 54.5837 551.351 52.5171 550.618 50.4504C549.951 48.3837 549.685 46.5171 549.818 44.8504ZM635.252 28.6504H686.552V39.7504H635.252V28.6504ZM684.352 1.95039H697.652V66.6504H684.352V1.95039ZM623.552 1.95039H636.852V66.6504H623.552V1.95039ZM714.905 1.95039H728.205V66.6504H714.905V1.95039ZM756.927 45.6504V35.0504H786.527C790.06 35.0504 792.86 34.1171 794.927 32.2504C796.993 30.3171 798.027 27.6504 798.027 24.2504C798.027 20.7171 796.993 18.0171 794.927 16.1504C792.86 14.2837 790.06 13.3504 786.527 13.3504H758.527V66.6504H745.227V1.95039H785.327C788.927 1.95039 792.293 2.38372 795.427 3.25039C798.627 4.11705 801.393 5.45039 803.727 7.25039C806.127 9.05039 807.993 11.3504 809.327 14.1504C810.66 16.9504 811.327 20.3171 811.327 24.2504C811.327 28.1171 810.66 31.4171 809.327 34.1504C807.993 36.8837 806.127 39.1171 803.727 40.8504C801.393 42.5171 798.627 43.7504 795.427 44.5504C792.293 45.2837 788.927 45.6504 785.327 45.6504H756.927Z" fill="#228B22"/>
<path d="M885.166 67.9504C879.166 67.9504 873.732 67.2504 868.866 65.8504C864.066 64.4504 859.899 62.3504 856.366 59.5504C852.899 56.7504 850.232 53.2837 848.366 49.1504C846.499 45.0171 845.566 40.2504 845.566 34.8504C845.566 29.3837 846.532 24.5504 848.466 20.3504C850.466 16.0837 853.266 12.4837 856.866 9.55039C860.532 6.61706 864.866 4.41706 869.866 2.95039C874.932 1.41705 880.532 0.650388 886.666 0.650388C893.932 0.650388 900.199 1.68372 905.466 3.75039C910.732 5.75039 914.866 8.58372 917.866 12.2504C920.932 15.9171 922.666 20.2837 923.066 25.3504H910.266C909.399 22.6837 907.966 20.3837 905.966 18.4504C904.032 16.4504 901.466 14.9171 898.266 13.8504C895.066 12.7171 891.199 12.1504 886.666 12.1504C880.866 12.1504 875.899 13.0837 871.766 14.9504C867.699 16.8171 864.599 19.4504 862.466 22.8504C860.332 26.2504 859.266 30.2504 859.266 34.8504C859.266 39.3171 860.199 43.1837 862.066 46.4504C863.932 49.6504 866.799 52.1171 870.666 53.8504C874.599 55.5837 879.599 56.4504 885.666 56.4504C890.332 56.4504 894.432 55.8504 897.966 54.6504C901.566 53.3837 904.566 51.7171 906.966 49.6504C909.366 47.5171 911.066 45.1504 912.066 42.5504L917.266 40.6504C916.399 49.2504 913.132 55.9504 907.466 60.7504C901.866 65.5504 894.432 67.9504 885.166 67.9504ZM913.866 66.6504C913.866 64.5837 913.999 62.2171 914.266 59.5504C914.532 56.8171 914.866 54.0837 915.266 51.3504C915.666 48.5504 916.032 45.9837 916.366 43.6504H886.766V35.1504H925.366V66.6504H913.866ZM998.772 38.0504V1.95039H1012.07V39.4504C1012.07 43.7171 1011.44 47.4504 1010.17 50.6504C1008.97 53.8504 1007.24 56.5504 1004.97 58.7504C1002.71 60.9504 1000.04 62.7504 996.972 64.1504C993.972 65.4837 990.672 66.4504 987.072 67.0504C983.539 67.6504 979.805 67.9504 975.872 67.9504C971.805 67.9504 967.939 67.6504 964.272 67.0504C960.605 66.4504 957.239 65.4837 954.172 64.1504C951.172 62.7504 948.572 60.9504 946.372 58.7504C944.172 56.5504 942.439 53.8504 941.172 50.6504C939.972 47.4504 939.372 43.7171 939.372 39.4504V1.95039H952.672V38.0504C952.672 43.1171 953.672 46.9837 955.672 49.6504C957.672 52.2504 960.405 54.0504 963.872 55.0504C967.405 55.9837 971.405 56.4504 975.872 56.4504C980.205 56.4504 984.072 55.9837 987.472 55.0504C990.939 54.0504 993.672 52.2504 995.672 49.6504C997.739 46.9837 998.772 43.1171 998.772 38.0504ZM1029.36 1.95039H1042.66V66.6504H1029.36V1.95039ZM1096.88 1.95039C1104.15 1.95039 1110.21 2.81705 1115.08 4.55039C1119.95 6.28372 1123.81 8.65039 1126.68 11.6504C1129.61 14.5837 1131.68 17.9837 1132.88 21.8504C1134.15 25.7171 1134.78 29.7837 1134.78 34.0504C1134.78 38.3171 1134.08 42.4171 1132.68 46.3504C1131.35 50.2837 1129.18 53.7837 1126.18 56.8504C1123.25 59.8504 1119.35 62.2504 1114.48 64.0504C1109.68 65.7837 1103.81 66.6504 1096.88 66.6504H1059.88V1.95039H1096.88ZM1073.18 55.2504H1096.58C1101.38 55.2504 1105.35 54.6837 1108.48 53.5504C1111.68 52.3504 1114.21 50.7504 1116.08 48.7504C1117.95 46.7504 1119.28 44.4837 1120.08 41.9504C1120.88 39.4171 1121.28 36.7837 1121.28 34.0504C1121.28 31.3171 1120.88 28.7171 1120.08 26.2504C1119.28 23.7837 1117.95 21.5837 1116.08 19.6504C1114.21 17.7171 1111.68 16.1837 1108.48 15.0504C1105.35 13.9171 1101.38 13.3504 1096.58 13.3504H1073.18V55.2504ZM1161.07 39.6504V55.5504H1210.97V66.6504H1147.77V1.95039H1210.87V13.0504H1161.07V29.1504H1201.87V39.6504H1161.07Z" fill="black"/>
</svg>
