<svg width="669" height="96" viewBox="0 0 669 96" fill="none" xmlns="http://www.w3.org/2000/svg">
<g clip-path="url(#clip0_16424_172908)">
<path d="M12.48 64.35V57.46H31.72C34.0167 57.46 35.8367 56.8533 37.18 55.64C38.5233 54.3833 39.195 52.65 39.195 50.44C39.195 48.1433 38.5233 46.3883 37.18 45.175C35.8367 43.9617 34.0167 43.355 31.72 43.355H13.52V78H4.875V35.945H30.94C33.28 35.945 35.4683 36.2267 37.505 36.79C39.585 37.3533 41.3833 38.22 42.9 39.39C44.46 40.56 45.6733 42.055 46.54 43.875C47.4067 45.695 47.84 47.8833 47.84 50.44C47.84 52.9533 47.4067 55.0983 46.54 56.875C45.6733 58.6517 44.46 60.1033 42.9 61.23C41.3833 62.3133 39.585 63.115 37.505 63.635C35.4683 64.1117 33.28 64.35 30.94 64.35H12.48ZM69.5226 78.715C66.3159 78.715 63.3909 78.0217 60.7476 76.635C58.1476 75.205 56.0676 73.2333 54.5076 70.72C52.9909 68.1633 52.2326 65.2167 52.2326 61.88C52.2326 58.4567 53.0126 55.4883 54.5726 52.975C56.1326 50.4617 58.2342 48.5117 60.8776 47.125C63.5642 45.695 66.5976 44.98 69.9776 44.98C73.7042 44.98 76.6942 45.7383 78.9476 47.255C81.2442 48.7283 82.9126 50.7433 83.9526 53.3C84.9926 55.8567 85.5126 58.7167 85.5126 61.88C85.5126 63.7867 85.2092 65.7367 84.6026 67.73C83.9959 69.68 83.0642 71.5 81.8076 73.19C80.5509 74.8367 78.9042 76.18 76.8676 77.22C74.8309 78.2167 72.3826 78.715 69.5226 78.715ZM72.2526 72.215C74.8092 72.215 77.0192 71.7817 78.8826 70.915C80.7459 70.0483 82.1759 68.835 83.1726 67.275C84.1692 65.715 84.6676 63.9167 84.6676 61.88C84.6676 59.67 84.1476 57.8067 83.1076 56.29C82.1109 54.73 80.6809 53.56 78.8176 52.78C76.9976 51.9567 74.8092 51.545 72.2526 51.545C68.6559 51.545 65.8609 52.4983 63.8676 54.405C61.8742 56.2683 60.8776 58.76 60.8776 61.88C60.8776 63.96 61.3542 65.78 62.3076 67.34C63.2609 68.8567 64.5826 70.0483 66.2726 70.915C68.0059 71.7817 69.9992 72.215 72.2526 72.215ZM84.6676 45.695H93.1176V78H85.2526C85.2526 78 85.1876 77.5883 85.0576 76.765C84.9709 75.8983 84.8842 74.815 84.7976 73.515C84.7109 72.215 84.6676 70.9367 84.6676 69.68V45.695ZM100.765 45.695H109.215V78H100.765V45.695ZM121.63 52.65C119.204 52.65 117.102 53.1267 115.325 54.08C113.549 54.99 112.119 56.1167 111.035 57.46C109.952 58.8033 109.194 60.1033 108.76 61.36L108.695 57.785C108.739 57.265 108.912 56.5067 109.215 55.51C109.519 54.47 109.974 53.365 110.58 52.195C111.187 50.9817 111.989 49.8333 112.985 48.75C113.982 47.6233 115.195 46.7133 116.625 46.02C118.055 45.3267 119.724 44.98 121.63 44.98V52.65ZM124.77 45.695H149.86V52.26H124.77V45.695ZM133.09 36.855H141.54V78H133.09V36.855ZM155.228 45.695H163.678V78H155.228V45.695ZM178.693 44.98C180.686 44.98 182.528 45.24 184.218 45.76C185.908 46.28 187.381 47.0817 188.638 48.165C189.895 49.2483 190.87 50.635 191.563 52.325C192.256 53.9717 192.603 55.9433 192.603 58.24V78H184.153V59.735C184.153 57.005 183.481 55.0117 182.138 53.755C180.838 52.455 178.693 51.805 175.703 51.805C173.45 51.805 171.413 52.2383 169.593 53.105C167.773 53.9717 166.3 55.0767 165.173 56.42C164.046 57.72 163.396 59.085 163.223 60.515L163.158 57.2C163.375 55.6833 163.873 54.21 164.653 52.78C165.433 51.35 166.473 50.05 167.773 48.88C169.116 47.6667 170.698 46.7133 172.518 46.02C174.338 45.3267 176.396 44.98 178.693 44.98ZM229.741 67.275H237.931C237.585 69.485 236.653 71.4567 235.136 73.19C233.663 74.9233 231.648 76.2883 229.091 77.285C226.535 78.2817 223.415 78.78 219.731 78.78C215.615 78.78 211.975 78.13 208.811 76.83C205.648 75.4867 203.178 73.5583 201.401 71.045C199.625 68.5317 198.736 65.4983 198.736 61.945C198.736 58.3917 199.603 55.3583 201.336 52.845C203.07 50.2883 205.475 48.3383 208.551 46.995C211.671 45.6517 215.311 44.98 219.471 44.98C223.718 44.98 227.25 45.6517 230.066 46.995C232.883 48.3383 234.963 50.375 236.306 53.105C237.693 55.7917 238.278 59.2367 238.061 63.44H207.251C207.468 65.0867 208.075 66.5817 209.071 67.925C210.111 69.2683 211.498 70.33 213.231 71.11C215.008 71.89 217.11 72.28 219.536 72.28C222.223 72.28 224.455 71.825 226.231 70.915C228.051 69.9617 229.221 68.7483 229.741 67.275ZM219.081 51.415C215.961 51.415 213.426 52.1083 211.476 53.495C209.526 54.8383 208.27 56.5067 207.706 58.5H229.676C229.46 56.3333 228.42 54.6217 226.556 53.365C224.736 52.065 222.245 51.415 219.081 51.415ZM244.349 45.695H252.799V78H244.349V45.695ZM265.214 52.65C262.788 52.65 260.686 53.1267 258.909 54.08C257.133 54.99 255.703 56.1167 254.619 57.46C253.536 58.8033 252.778 60.1033 252.344 61.36L252.279 57.785C252.323 57.265 252.496 56.5067 252.799 55.51C253.103 54.47 253.558 53.365 254.164 52.195C254.771 50.9817 255.573 49.8333 256.569 48.75C257.566 47.6233 258.779 46.7133 260.209 46.02C261.639 45.3267 263.308 44.98 265.214 44.98V52.65ZM269.138 67.275H276.938C277.415 68.7483 278.39 69.9617 279.863 70.915C281.38 71.825 283.351 72.28 285.778 72.28C287.425 72.28 288.703 72.1283 289.613 71.825C290.523 71.5217 291.151 71.0883 291.498 70.525C291.845 69.9183 292.018 69.2467 292.018 68.51C292.018 67.6 291.736 66.9067 291.173 66.43C290.61 65.91 289.743 65.4983 288.573 65.195C287.403 64.8917 285.908 64.61 284.088 64.35C282.268 64.0467 280.513 63.6783 278.823 63.245C277.133 62.8117 275.638 62.2483 274.338 61.555C273.038 60.8183 271.998 59.9083 271.218 58.825C270.481 57.6983 270.113 56.3333 270.113 54.73C270.113 53.17 270.481 51.7833 271.218 50.57C271.998 49.3567 273.06 48.3383 274.403 47.515C275.79 46.6917 277.393 46.0633 279.213 45.63C281.076 45.1967 283.07 44.98 285.193 44.98C288.4 44.98 291.065 45.4567 293.188 46.41C295.311 47.32 296.893 48.62 297.933 50.31C299.016 51.9567 299.558 53.8633 299.558 56.03H292.083C291.736 54.4267 291.043 53.2783 290.003 52.585C288.963 51.8483 287.36 51.48 285.193 51.48C283.07 51.48 281.466 51.805 280.383 52.455C279.3 53.105 278.758 53.9933 278.758 55.12C278.758 56.03 279.083 56.745 279.733 57.265C280.426 57.7417 281.423 58.1317 282.723 58.435C284.066 58.7383 285.735 59.0633 287.728 59.41C289.418 59.7567 291.021 60.1467 292.538 60.58C294.098 61.0133 295.485 61.5767 296.698 62.27C297.911 62.92 298.865 63.8083 299.558 64.935C300.295 66.0183 300.663 67.405 300.663 69.095C300.663 71.175 300.056 72.93 298.843 74.36C297.673 75.79 295.983 76.895 293.773 77.675C291.563 78.4117 288.92 78.78 285.843 78.78C283.113 78.78 280.751 78.4983 278.758 77.935C276.808 77.3283 275.183 76.57 273.883 75.66C272.583 74.7067 271.565 73.71 270.828 72.67C270.135 71.5867 269.658 70.5683 269.398 69.615C269.138 68.6617 269.051 67.8817 269.138 67.275ZM336.638 78V60.255C336.638 58.4783 336.334 57.005 335.728 55.835C335.121 54.665 334.146 53.7767 332.803 53.17C331.503 52.5633 329.748 52.26 327.538 52.26C325.414 52.26 323.486 52.6717 321.753 53.495C320.019 54.275 318.611 55.315 317.528 56.615C316.444 57.8717 315.838 59.215 315.708 60.645L315.643 57.07C315.859 55.64 316.358 54.21 317.138 52.78C317.918 51.35 318.958 50.05 320.258 48.88C321.558 47.71 323.118 46.7783 324.938 46.085C326.801 45.3483 328.881 44.98 331.178 44.98C333.171 44.98 335.013 45.24 336.703 45.76C338.393 46.2367 339.866 46.995 341.123 48.035C342.379 49.075 343.354 50.375 344.048 51.935C344.741 53.4517 345.088 55.25 345.088 57.33V78H336.638ZM307.713 78V32.695H316.163V78H307.713ZM362.452 31.525V38.935H352.637V31.525H362.452ZM353.287 45.695H361.737V78H353.287V45.695ZM393.69 78.78C390.83 78.78 388.381 78.2817 386.345 77.285C384.351 76.245 382.726 74.9017 381.47 73.255C380.213 71.565 379.281 69.7233 378.675 67.73C378.068 65.7367 377.765 63.7867 377.765 61.88C377.765 59.4967 378.046 57.2867 378.61 55.25C379.216 53.2133 380.148 51.4367 381.405 49.92C382.661 48.36 384.286 47.1467 386.28 46.28C388.316 45.4133 390.786 44.98 393.69 44.98C396.94 44.98 399.865 45.695 402.465 47.125C405.065 48.555 407.123 50.5483 408.64 53.105C410.2 55.6183 410.98 58.5433 410.98 61.88C410.98 65.3033 410.2 68.2933 408.64 70.85C407.08 73.3633 405 75.3133 402.4 76.7C399.8 78.0867 396.896 78.78 393.69 78.78ZM390.96 72.215C393.256 72.215 395.25 71.7817 396.94 70.915C398.673 70.0483 399.995 68.8567 400.905 67.34C401.858 65.78 402.335 63.96 402.335 61.88C402.335 58.76 401.338 56.2467 399.345 54.34C397.395 52.4333 394.6 51.48 390.96 51.48C388.663 51.48 386.561 51.8917 384.655 52.715C382.791 53.5383 381.318 54.73 380.235 56.29C379.151 57.8067 378.61 59.67 378.61 61.88C378.61 63.96 379.108 65.78 380.105 67.34C381.101 68.8567 382.531 70.0483 384.395 70.915C386.258 71.7817 388.446 72.215 390.96 72.215ZM370.16 45.695H378.22L378.61 54.275V91H370.16V45.695Z" fill="#23A323"/>
<path d="M448.995 73.06C445.485 73.06 442.386 72.54 439.7 71.5C437.056 70.4167 434.998 68.835 433.525 66.755C432.051 64.675 431.315 62.1617 431.315 59.215C431.315 56.3117 432.03 53.7983 433.46 51.675C434.89 49.5517 436.926 47.905 439.57 46.735C442.256 45.565 445.398 44.98 448.995 44.98C449.991 44.98 450.945 45.045 451.855 45.175C452.808 45.305 453.74 45.4783 454.65 45.695L470.965 45.76V52.13C468.755 52.1733 466.501 51.9133 464.205 51.35C461.951 50.7433 459.958 50.0933 458.225 49.4L458.03 48.945C459.503 49.6383 460.89 50.505 462.19 51.545C463.49 52.5417 464.53 53.7117 465.31 55.055C466.133 56.355 466.545 57.8717 466.545 59.605C466.545 62.4217 465.83 64.8483 464.4 66.885C462.97 68.8783 460.933 70.4167 458.29 71.5C455.69 72.54 452.591 73.06 448.995 73.06ZM459.85 91.325V89.765C459.85 87.7717 459.2 86.385 457.9 85.605C456.643 84.825 454.91 84.435 452.7 84.435H442.625C440.675 84.435 439.028 84.2833 437.685 83.98C436.385 83.6767 435.345 83.2433 434.565 82.68C433.785 82.1167 433.221 81.445 432.875 80.665C432.528 79.9283 432.355 79.1267 432.355 78.26C432.355 76.5267 432.918 75.2267 434.045 74.36C435.171 73.45 436.688 72.8433 438.595 72.54C440.501 72.2367 442.603 72.1717 444.9 72.345L448.995 73.06C446.265 73.1467 444.228 73.385 442.885 73.775C441.585 74.1217 440.935 74.8367 440.935 75.92C440.935 76.57 441.195 77.09 441.715 77.48C442.235 77.8267 442.971 78 443.925 78H454.52C457.423 78 459.893 78.3033 461.93 78.91C464.01 79.56 465.591 80.6217 466.675 82.095C467.758 83.6117 468.3 85.67 468.3 88.27V91.325H459.85ZM448.995 66.95C450.858 66.95 452.483 66.6467 453.87 66.04C455.3 65.4333 456.405 64.5667 457.185 63.44C457.965 62.27 458.355 60.8833 458.355 59.28C458.355 57.6333 457.965 56.225 457.185 55.055C456.405 53.885 455.321 52.9967 453.935 52.39C452.548 51.74 450.901 51.415 448.995 51.415C447.131 51.415 445.485 51.74 444.055 52.39C442.625 52.9967 441.52 53.885 440.74 55.055C439.96 56.225 439.57 57.6333 439.57 59.28C439.57 60.8833 439.96 62.27 440.74 63.44C441.52 64.5667 442.603 65.4333 443.99 66.04C445.42 66.6467 447.088 66.95 448.995 66.95ZM513.858 78H505.408V45.695H513.858V78ZM505.863 62.465L505.928 64.675C505.841 65.2817 505.625 66.17 505.278 67.34C504.931 68.4667 504.39 69.68 503.653 70.98C502.96 72.28 502.05 73.5367 500.923 74.75C499.796 75.92 498.41 76.895 496.763 77.675C495.116 78.4117 493.166 78.78 490.913 78.78C489.136 78.78 487.381 78.5633 485.648 78.13C483.958 77.6967 482.42 76.9817 481.033 75.985C479.646 74.945 478.541 73.5583 477.718 71.825C476.895 70.0917 476.483 67.9033 476.483 65.26V45.695H484.933V63.83C484.933 65.91 485.258 67.5567 485.908 68.77C486.601 69.94 487.598 70.7633 488.898 71.24C490.198 71.7167 491.736 71.955 493.513 71.955C495.853 71.955 497.868 71.4567 499.558 70.46C501.248 69.42 502.613 68.1633 503.653 66.69C504.736 65.2167 505.473 63.8083 505.863 62.465ZM531.236 31.525V38.935H521.421V31.525H531.236ZM522.071 45.695H530.521V78H522.071V45.695ZM554.674 78.715C551.424 78.715 548.477 78.0217 545.834 76.635C543.234 75.205 541.176 73.2333 539.659 70.72C538.142 68.1633 537.384 65.2167 537.384 61.88C537.384 58.4567 538.121 55.4883 539.594 52.975C541.111 50.4617 543.169 48.5117 545.769 47.125C548.369 45.695 551.337 44.98 554.674 44.98C557.577 44.98 560.047 45.4133 562.084 46.28C564.121 47.1467 565.767 48.36 567.024 49.92C568.281 51.4367 569.191 53.2133 569.754 55.25C570.361 57.2867 570.664 59.4967 570.664 61.88C570.664 63.7867 570.361 65.7367 569.754 67.73C569.147 69.68 568.216 71.5 566.959 73.19C565.702 74.8367 564.056 76.18 562.019 77.22C559.982 78.2167 557.534 78.715 554.674 78.715ZM557.404 72.215C559.961 72.215 562.171 71.7817 564.034 70.915C565.897 70.0483 567.327 68.835 568.324 67.275C569.321 65.715 569.819 63.9167 569.819 61.88C569.819 59.67 569.299 57.8067 568.259 56.29C567.262 54.73 565.832 53.5383 563.969 52.715C562.149 51.8917 559.961 51.48 557.404 51.48C553.807 51.48 551.012 52.4333 549.019 54.34C547.026 56.2467 546.029 58.76 546.029 61.88C546.029 63.96 546.506 65.78 547.459 67.34C548.412 68.8567 549.734 70.0483 551.424 70.915C553.157 71.7817 555.151 72.215 557.404 72.215ZM569.819 32.695H578.269V78H570.404C570.274 77.0033 570.144 75.725 570.014 74.165C569.884 72.5617 569.819 71.0667 569.819 69.68V32.695ZM616.822 67.275H625.012C624.665 69.485 623.733 71.4567 622.217 73.19C620.743 74.9233 618.728 76.2883 616.172 77.285C613.615 78.2817 610.495 78.78 606.812 78.78C602.695 78.78 599.055 78.13 595.892 76.83C592.728 75.4867 590.258 73.5583 588.482 71.045C586.705 68.5317 585.817 65.4983 585.817 61.945C585.817 58.3917 586.683 55.3583 588.417 52.845C590.15 50.2883 592.555 48.3383 595.632 46.995C598.752 45.6517 602.392 44.98 606.552 44.98C610.798 44.98 614.33 45.6517 617.147 46.995C619.963 48.3383 622.043 50.375 623.387 53.105C624.773 55.7917 625.358 59.2367 625.142 63.44H594.332C594.548 65.0867 595.155 66.5817 596.152 67.925C597.192 69.2683 598.578 70.33 600.312 71.11C602.088 71.89 604.19 72.28 606.617 72.28C609.303 72.28 611.535 71.825 613.312 70.915C615.132 69.9617 616.302 68.7483 616.822 67.275ZM606.162 51.415C603.042 51.415 600.507 52.1083 598.557 53.495C596.607 54.8383 595.35 56.5067 594.787 58.5H616.757C616.54 56.3333 615.5 54.6217 613.637 53.365C611.817 52.065 609.325 51.415 606.162 51.415Z" fill="black"/>
<g clip-path="url(#clip1_16424_172908)">
<rect x="556.515" width="116" height="38" rx="19" transform="rotate(14.5 556.515 0)" fill="#F3F4F6"/>
<path d="M578.454 26.6653C578.237 27.2154 577.917 27.6515 577.493 27.9737C577.077 28.2979 576.588 28.5036 576.026 28.5906C575.463 28.6777 574.859 28.6378 574.213 28.4707C573.63 28.3197 573.116 28.0913 572.672 27.7855C572.235 27.4817 571.882 27.1161 571.61 26.6889C571.339 26.2616 571.164 25.7805 571.086 25.2456C571.011 24.7029 571.052 24.128 571.209 23.5209C571.368 22.9061 571.611 22.3835 571.938 21.9533C572.265 21.5231 572.651 21.1869 573.096 20.9448C573.542 20.695 574.03 20.5429 574.559 20.4887C575.095 20.4365 575.656 20.4859 576.239 20.6368C576.893 20.8059 577.444 21.0687 577.891 21.4253C578.341 21.7741 578.668 22.195 578.873 22.688C579.087 23.1752 579.156 23.712 579.079 24.2983L578.005 24.0205C577.998 23.6286 577.911 23.2739 577.744 22.9567C577.577 22.6395 577.344 22.3714 577.043 22.1526C576.745 21.9259 576.389 21.7592 575.977 21.6526C575.447 21.5157 574.936 21.5037 574.441 21.6167C573.947 21.7297 573.512 21.966 573.137 22.3257C572.769 22.6873 572.504 23.1834 572.341 23.8138C572.18 24.4365 572.172 24.999 572.316 25.5012C572.47 25.9978 572.735 26.4152 573.113 26.7537C573.492 27.0843 573.947 27.3181 574.476 27.455C574.889 27.5617 575.275 27.5911 575.636 27.5433C576.005 27.4976 576.34 27.3765 576.64 27.18C576.94 26.9835 577.19 26.7204 577.392 26.3905L578.454 26.6653ZM581.907 30.4604C581.339 30.3135 580.849 30.058 580.436 29.6939C580.024 29.3298 579.736 28.8859 579.573 28.362C579.409 27.8381 579.409 27.2609 579.572 26.6305C579.737 25.9922 580.018 25.4836 580.415 25.1047C580.814 24.7179 581.282 24.4653 581.819 24.3468C582.356 24.2283 582.909 24.2425 583.477 24.3895C584.045 24.5364 584.532 24.7909 584.936 25.153C585.341 25.515 585.624 25.9619 585.785 26.4936C585.949 27.0175 585.948 27.5985 585.783 28.2367C585.62 28.8672 585.34 29.3719 584.943 29.7509C584.546 30.1298 584.083 30.3796 583.553 30.5001C583.024 30.6206 582.475 30.6074 581.907 30.4604ZM582.158 29.4914C582.508 29.582 582.851 29.5877 583.187 29.5085C583.533 29.4236 583.835 29.2525 584.092 28.9952C584.359 28.7322 584.549 28.3828 584.662 27.9469C584.777 27.5032 584.781 27.1016 584.675 26.742C584.576 26.3843 584.396 26.0846 584.135 25.8426C583.882 25.6027 583.58 25.4374 583.23 25.3468C582.879 25.2562 582.531 25.2534 582.185 25.3384C581.842 25.4155 581.536 25.5856 581.269 25.8486C581.001 26.1117 580.809 26.4689 580.693 26.9203C580.58 27.3562 580.573 27.7529 580.671 28.1106C580.78 28.4624 580.964 28.7593 581.226 29.0013C581.489 29.2354 581.8 29.3988 582.158 29.4914ZM587.713 25.6096L588.834 25.8995L587.328 31.7253L586.207 31.4354L587.713 25.6096ZM591.083 26.3564C591.41 26.441 591.693 26.5641 591.934 26.726C592.174 26.8878 592.364 27.0863 592.502 27.3214C592.643 27.5487 592.728 27.8117 592.759 28.1103C592.8 28.4031 592.776 28.7207 592.687 29.0632L591.706 32.8575L590.597 32.5707L591.514 29.0215C591.633 28.5623 591.609 28.1906 591.442 27.9066C591.284 27.6167 590.98 27.4134 590.528 27.2966C590.178 27.2061 589.838 27.2053 589.507 27.2942C589.177 27.3832 588.883 27.5397 588.626 27.7638C588.379 27.9822 588.192 28.2537 588.067 28.5783L588.221 27.9331C588.341 27.6319 588.497 27.365 588.69 27.1326C588.89 26.9022 589.113 26.7148 589.358 26.5706C589.613 26.4206 589.886 26.3292 590.176 26.2964C590.469 26.2559 590.771 26.2759 591.083 26.3564ZM595.356 27.4615C595.683 27.546 595.966 27.6692 596.207 27.8311C596.447 27.9929 596.637 28.1914 596.775 28.4265C596.916 28.6538 597.001 28.9167 597.032 29.2153C597.073 29.5081 597.049 29.8258 596.96 30.1682L595.979 33.9626L594.87 33.6757L595.787 30.1266C595.906 29.6674 595.882 29.2957 595.715 29.0116C595.557 28.7218 595.253 28.5185 594.801 28.4017C594.451 28.3111 594.111 28.3103 593.78 28.3993C593.45 28.4883 593.156 28.6448 592.899 28.8689C592.652 29.0873 592.465 29.3587 592.34 29.6833L592.497 29.0265C592.617 28.7253 592.772 28.4623 592.963 28.2377C593.163 28.0073 593.39 27.8209 593.643 27.6787C593.898 27.5287 594.17 27.4373 594.461 27.4045C594.754 27.364 595.052 27.383 595.356 27.4615ZM600.92 26.4591L600.609 27.6616L599.219 27.3023L599.53 26.0998L600.92 26.4591ZM599.049 28.5411L600.158 28.8279L598.651 34.6537L597.542 34.3668L599.049 28.5411ZM601.737 29.2364L602.858 29.5262L601.351 35.352L600.23 35.0621L601.737 29.2364ZM605.106 29.9831C605.433 30.0677 605.717 30.1909 605.957 30.3527C606.198 30.5145 606.387 30.713 606.526 30.9481C606.666 31.1755 606.752 31.4384 606.783 31.737C606.823 32.0298 606.799 32.3474 606.711 32.6899L605.729 36.4842L604.62 36.1974L605.538 32.6482C605.657 32.189 605.632 31.8174 605.465 31.5333C605.308 31.2434 605.003 31.0401 604.552 30.9234C604.201 30.8328 603.861 30.832 603.531 30.921C603.201 31.0099 602.907 31.1665 602.65 31.3906C602.402 31.6089 602.216 31.8804 602.09 32.205L602.245 31.5599C602.364 31.2586 602.52 30.9918 602.713 30.7593C602.914 30.5289 603.137 30.3416 603.382 30.1973C603.636 30.0473 603.909 29.9559 604.2 29.9232C604.493 29.8826 604.795 29.9026 605.106 29.9831ZM609.779 36.5599C609.296 36.4351 608.878 36.2231 608.523 35.9239C608.169 35.6246 607.919 35.257 607.775 34.821C607.638 34.387 607.638 33.9054 607.775 33.3761C607.909 32.8547 608.142 32.4373 608.472 32.1241C608.804 31.8031 609.195 31.5928 609.644 31.4931C610.103 31.3876 610.582 31.3992 611.08 31.5281C611.228 31.5663 611.365 31.6142 611.491 31.6718C611.62 31.7216 611.741 31.782 611.855 31.8532L614.401 32.5114L614.129 33.5621C613.779 33.4715 613.439 33.3216 613.112 33.1122C612.792 32.9049 612.516 32.7009 612.286 32.5001L612.266 32.4327C612.494 32.6412 612.68 32.8718 612.822 33.1245C612.966 33.3694 613.057 33.6295 613.094 33.9047C613.14 34.1742 613.124 34.4607 613.046 34.7642C612.913 35.2779 612.681 35.6914 612.351 36.0046C612.029 36.3198 611.64 36.5224 611.185 36.6123C610.738 36.7042 610.269 36.6868 609.779 36.5599ZM610.72 40.2909L610.789 40.0223C610.892 39.6254 610.856 39.3131 610.682 39.0855C610.509 38.8579 610.212 38.6898 609.792 38.5811L608.426 38.2278C608.138 38.1534 607.898 38.0666 607.708 37.9676C607.518 37.8685 607.369 37.7552 607.261 37.6276C607.15 37.5078 607.081 37.3736 607.053 37.2252C607.023 37.0846 607.028 36.9364 607.069 36.7808C607.147 36.4772 607.3 36.2718 607.527 36.1644C607.754 36.0571 608.016 36.0212 608.314 36.0567C608.615 36.0845 608.907 36.1561 609.193 36.2715L609.779 36.5599C609.329 36.4686 608.979 36.4238 608.73 36.4257C608.48 36.4276 608.329 36.5297 608.277 36.7321C608.247 36.8488 608.269 36.9543 608.344 37.0485C608.42 37.1427 608.543 37.2119 608.714 37.2562L610.139 37.6246C610.582 37.7393 610.961 37.8954 611.275 38.093C611.596 38.3003 611.819 38.5614 611.945 38.8764C612.077 39.2011 612.082 39.597 611.961 40.064L611.829 40.5777L610.72 40.2909ZM610.023 35.6143C610.303 35.6867 610.571 35.6938 610.827 35.6354C611.093 35.5713 611.325 35.4445 611.524 35.255C611.724 35.0577 611.867 34.7956 611.951 34.4687C612.038 34.134 612.041 33.8318 611.961 33.5621C611.892 33.2866 611.755 33.0603 611.552 32.8832C611.35 32.6982 611.11 32.5696 610.829 32.4971C610.549 32.4246 610.272 32.4195 609.999 32.4816C609.735 32.538 609.503 32.6648 609.303 32.862C609.102 33.0593 608.958 33.3292 608.869 33.6716C608.785 33.9985 608.782 34.2968 608.862 34.5666C608.944 34.8285 609.085 35.0519 609.286 35.2369C609.49 35.414 609.735 35.5398 610.023 35.6143ZM616.839 36.7043L617.913 36.9821C617.858 37.2917 617.888 37.5942 618.002 37.8895C618.127 38.1791 618.326 38.4342 618.601 38.6548C618.884 38.8775 619.236 39.0431 619.656 39.1518C620.022 39.2464 620.339 39.2743 620.606 39.2356C620.874 39.1968 621.088 39.1069 621.249 38.9658C621.42 38.819 621.536 38.625 621.599 38.3837C621.661 38.1424 621.644 37.9346 621.548 37.7603C621.454 37.5782 621.287 37.4062 621.046 37.2444C620.808 37.0748 620.506 36.8929 620.141 36.6989C619.821 36.5247 619.508 36.336 619.204 36.1327C618.909 35.9236 618.645 35.6933 618.411 35.4418C618.185 35.1924 618.018 34.921 617.912 34.6276C617.815 34.3285 617.812 33.9999 617.905 33.6419C618.004 33.2605 618.198 32.9413 618.489 32.6843C618.782 32.4196 619.154 32.2461 619.608 32.164C620.07 32.0761 620.594 32.1076 621.177 32.2586C622.08 32.4921 622.703 32.8939 623.045 33.4641C623.396 34.0363 623.465 34.6979 623.255 35.4489L622.204 35.1771C622.317 34.6418 622.248 34.2211 621.995 33.9148C621.744 33.6008 621.369 33.3794 620.871 33.2506C620.443 33.1399 620.054 33.1348 619.704 33.2353C619.356 33.328 619.134 33.5612 619.037 33.9348C618.995 34.0982 618.993 34.2513 619.031 34.3939C619.071 34.5288 619.159 34.6679 619.297 34.8114C619.434 34.9548 619.627 35.1085 619.875 35.2723C620.131 35.4382 620.451 35.629 620.835 35.8446C621.129 35.9952 621.405 36.1622 621.665 36.3456C621.932 36.5311 622.162 36.7357 622.353 36.9596C622.544 37.1834 622.673 37.4408 622.739 37.7319C622.812 38.025 622.801 38.3583 622.704 38.7319C622.602 39.1289 622.411 39.4656 622.132 39.7422C621.855 40.011 621.485 40.1893 621.022 40.2772C620.569 40.3594 620.019 40.3169 619.373 40.1498C618.86 40.017 618.429 39.8351 618.082 39.6041C617.743 39.3752 617.472 39.1224 617.269 38.8459C617.074 38.5713 616.934 38.2943 616.849 38.0147C616.771 37.7372 616.733 37.4825 616.735 37.2504C616.745 37.0204 616.779 36.8384 616.839 36.7043ZM626.167 41.9067C625.599 41.7598 625.108 41.5043 624.696 41.1402C624.284 40.7762 623.996 40.3322 623.832 39.8083C623.669 39.2844 623.668 38.7072 623.832 38.0768C623.997 37.4386 624.278 36.93 624.675 36.551C625.073 36.1643 625.542 35.9116 626.079 35.7931C626.616 35.6746 627.169 35.6889 627.737 35.8358C628.305 35.9827 628.791 36.2372 629.196 36.5993C629.601 36.9614 629.884 37.4082 630.045 37.9399C630.208 38.4638 630.208 39.0448 630.043 39.6831C629.88 40.3135 629.6 40.8182 629.203 41.1972C628.806 41.5761 628.342 41.8259 627.813 41.9464C627.284 42.0669 626.735 42.0537 626.167 41.9067ZM626.417 40.9377C626.768 41.0283 627.111 41.034 627.447 40.9548C627.793 40.8699 628.094 40.6988 628.352 40.4415C628.619 40.1785 628.809 39.8291 628.922 39.3932C629.037 38.9496 629.041 38.5479 628.934 38.1883C628.836 37.8307 628.656 37.5309 628.395 37.2889C628.141 37.049 627.839 36.8837 627.489 36.7931C627.139 36.7026 626.791 36.6997 626.445 36.7847C626.101 36.8619 625.796 37.0319 625.528 37.295C625.261 37.558 625.069 37.9152 624.952 38.3666C624.84 38.8025 624.832 39.1992 624.931 39.5569C625.039 39.9087 625.224 40.2056 625.485 40.4476C625.749 40.6818 626.059 40.8451 626.417 40.9377ZM633.247 43.7378C632.679 43.5909 632.188 43.3354 631.776 42.9713C631.364 42.6072 631.076 42.1632 630.912 41.6393C630.749 41.1155 630.749 40.5383 630.912 39.9078C631.077 39.2696 631.358 38.761 631.755 38.3821C632.154 37.9953 632.622 37.7427 633.159 37.6242C633.696 37.5057 634.249 37.5199 634.817 37.6669C635.385 37.8138 635.872 38.0683 636.276 38.4304C636.681 38.7924 636.964 39.2393 637.125 39.7709C637.289 40.2948 637.288 40.8759 637.123 41.5141C636.96 42.1446 636.68 42.6493 636.283 43.0282C635.886 43.4072 635.423 43.6569 634.893 43.7774C634.364 43.898 633.815 43.8847 633.247 43.7378ZM633.498 42.7688C633.848 42.8594 634.191 42.8651 634.527 42.7859C634.873 42.7009 635.174 42.5298 635.432 42.2726C635.699 42.0096 635.889 41.6601 636.002 41.2243C636.117 40.7806 636.121 40.379 636.015 40.0193C635.916 39.6617 635.736 39.3619 635.475 39.12C635.221 38.88 634.92 38.7148 634.569 38.6242C634.219 38.5336 633.871 38.5308 633.525 38.6158C633.181 38.6929 632.876 38.863 632.609 39.126C632.341 39.389 632.149 39.7463 632.033 40.1977C631.92 40.6336 631.913 41.0303 632.011 41.3879C632.119 41.7398 632.304 42.0367 632.566 42.2786C632.829 42.5128 633.139 42.6762 633.498 42.7688ZM639.053 38.887L640.174 39.1769L638.667 45.0026L637.547 44.7128L639.053 38.887ZM642.422 39.6338C642.749 39.7183 643.033 39.8415 643.274 40.0034C643.514 40.1652 643.704 40.3637 643.842 40.5988C643.983 40.8261 644.068 41.0891 644.099 41.3876C644.139 41.6804 644.115 41.9981 644.027 42.3405L643.046 46.1349L641.936 45.848L642.854 42.2989C642.973 41.8397 642.949 41.468 642.781 41.1839C642.624 40.8941 642.319 40.6908 641.868 40.574C641.518 40.4834 641.177 40.4826 640.847 40.5716C640.517 40.6606 640.223 40.8171 639.966 41.0412C639.718 41.2596 639.532 41.531 639.407 41.8556L639.561 41.2105C639.68 40.9092 639.837 40.6424 640.03 40.41C640.23 40.1796 640.453 39.9922 640.698 39.848C640.953 39.6979 641.225 39.6066 641.516 39.5738C641.809 39.5333 642.111 39.5533 642.422 39.6338Z" fill="#D1D5DB"/>
</g>
</g>
<defs>
<clipPath id="clip0_16424_172908">
<rect width="668.82" height="96" fill="white"/>
</clipPath>
<clipPath id="clip1_16424_172908">
<rect x="556.515" width="116" height="38" rx="19" transform="rotate(14.5 556.515 0)" fill="white"/>
</clipPath>
</defs>
</svg>
