<svg width="393" height="198" viewBox="0 0 393 198" fill="none" xmlns="http://www.w3.org/2000/svg">
<g clip-path="url(#clip0_3203_31260)">
<path d="M10.56 39.45V33.62H26.84C28.7833 33.62 30.3233 33.1067 31.46 32.08C32.5967 31.0167 33.165 29.55 33.165 27.68C33.165 25.7367 32.5967 24.2517 31.46 23.225C30.3233 22.1983 28.7833 21.685 26.84 21.685H11.44V51H4.125V15.415H26.18C28.16 15.415 30.0117 15.6533 31.735 16.13C33.495 16.6067 35.0167 17.34 36.3 18.33C37.62 19.32 38.6467 20.585 39.38 22.125C40.1133 23.665 40.48 25.5167 40.48 27.68C40.48 29.8067 40.1133 31.6217 39.38 33.125C38.6467 34.6283 37.62 35.8567 36.3 36.81C35.0167 37.7267 33.495 38.405 31.735 38.845C30.0117 39.2483 28.16 39.45 26.18 39.45H10.56ZM54.6249 11.675V17.945H46.3199V11.675H54.6249ZM46.8699 23.665H54.0199V51H46.8699V23.665ZM93.5967 40.22C93.4133 42.6033 92.6433 44.6567 91.2867 46.38C89.9667 48.1033 88.1333 49.4233 85.7867 50.34C83.44 51.22 80.6533 51.66 77.4267 51.66C74.0533 51.66 71.0283 51.1283 68.3517 50.065C65.7117 48.965 63.6217 47.37 62.0817 45.28C60.5783 43.1533 59.8267 40.5317 59.8267 37.415C59.8267 34.2983 60.5783 31.6767 62.0817 29.55C63.6217 27.4233 65.7117 25.81 68.3517 24.71C71.0283 23.61 74.0533 23.06 77.4267 23.06C80.6533 23.06 83.4217 23.5183 85.7317 24.435C88.0417 25.315 89.8567 26.5983 91.1767 28.285C92.5333 29.9717 93.3217 32.0067 93.5417 34.39H86.9967C86.3733 32.5567 85.2183 31.1267 83.5317 30.1C81.845 29.0733 79.81 28.56 77.4267 28.56C75.52 28.56 73.7783 28.89 72.2017 29.55C70.6617 30.21 69.415 31.2 68.4617 32.52C67.545 33.8033 67.0867 35.435 67.0867 37.415C67.0867 39.3583 67.545 40.99 68.4617 42.31C69.3783 43.5933 70.625 44.565 72.2017 45.225C73.7783 45.8483 75.52 46.16 77.4267 46.16C79.9933 46.16 82.0833 45.6467 83.6967 44.62C85.3467 43.5933 86.465 42.1267 87.0517 40.22H93.5967ZM99.3468 12.665H106.497V51H99.3468V12.665ZM129.542 23.665L113.262 38.02L113.427 33.62L130.807 51H121.732L106.662 35.655L119.807 23.665H129.542ZM161.146 51.605C158.433 51.605 155.958 51.0183 153.721 49.845C151.521 48.635 149.761 46.9667 148.441 44.84C147.158 42.6767 146.516 40.1833 146.516 37.36C146.516 34.4633 147.176 31.9517 148.496 29.825C149.816 27.6983 151.594 26.0483 153.831 24.875C156.104 23.665 158.671 23.06 161.531 23.06C164.684 23.06 167.214 23.7017 169.121 24.985C171.064 26.2317 172.476 27.9367 173.356 30.1C174.236 32.2633 174.676 34.6833 174.676 37.36C174.676 38.9733 174.419 40.6233 173.906 42.31C173.393 43.96 172.604 45.5 171.541 46.93C170.478 48.3233 169.084 49.46 167.361 50.34C165.638 51.1833 163.566 51.605 161.146 51.605ZM163.456 46.105C165.619 46.105 167.489 45.7383 169.066 45.005C170.643 44.2717 171.853 43.245 172.696 41.925C173.539 40.605 173.961 39.0833 173.961 37.36C173.961 35.49 173.521 33.9133 172.641 32.63C171.798 31.31 170.588 30.32 169.011 29.66C167.471 28.9633 165.619 28.615 163.456 28.615C160.413 28.615 158.048 29.4217 156.361 31.035C154.674 32.6117 153.831 34.72 153.831 37.36C153.831 39.12 154.234 40.66 155.041 41.98C155.848 43.2633 156.966 44.2717 158.396 45.005C159.863 45.7383 161.549 46.105 163.456 46.105ZM173.961 23.665H181.111V51H174.456C174.456 51 174.401 50.6517 174.291 49.955C174.218 49.2217 174.144 48.305 174.071 47.205C173.998 46.105 173.961 45.0233 173.961 43.96V23.665ZM233.299 40.22C233.115 42.6033 232.345 44.6567 230.989 46.38C229.669 48.1033 227.835 49.4233 225.489 50.34C223.142 51.22 220.355 51.66 217.129 51.66C213.755 51.66 210.73 51.1283 208.054 50.065C205.414 48.965 203.324 47.37 201.784 45.28C200.28 43.1533 199.529 40.5317 199.529 37.415C199.529 34.2983 200.28 31.6767 201.784 29.55C203.324 27.4233 205.414 25.81 208.054 24.71C210.73 23.61 213.755 23.06 217.129 23.06C220.355 23.06 223.124 23.5183 225.434 24.435C227.744 25.315 229.559 26.5983 230.879 28.285C232.235 29.9717 233.024 32.0067 233.244 34.39H226.699C226.075 32.5567 224.92 31.1267 223.234 30.1C221.547 29.0733 219.512 28.56 217.129 28.56C215.222 28.56 213.48 28.89 211.904 29.55C210.364 30.21 209.117 31.2 208.164 32.52C207.247 33.8033 206.789 35.435 206.789 37.415C206.789 39.3583 207.247 40.99 208.164 42.31C209.08 43.5933 210.327 44.565 211.904 45.225C213.48 45.8483 215.222 46.16 217.129 46.16C219.695 46.16 221.785 45.6467 223.399 44.62C225.049 43.5933 226.167 42.1267 226.754 40.22H233.299ZM251.864 51.605C249.151 51.605 246.676 51.0183 244.439 49.845C242.239 48.635 240.479 46.9667 239.159 44.84C237.876 42.6767 237.234 40.1833 237.234 37.36C237.234 34.4633 237.894 31.9517 239.214 29.825C240.534 27.6983 242.312 26.0483 244.549 24.875C246.822 23.665 249.389 23.06 252.249 23.06C255.402 23.06 257.932 23.7017 259.839 24.985C261.782 26.2317 263.194 27.9367 264.074 30.1C264.954 32.2633 265.394 34.6833 265.394 37.36C265.394 38.9733 265.137 40.6233 264.624 42.31C264.111 43.96 263.322 45.5 262.259 46.93C261.196 48.3233 259.802 49.46 258.079 50.34C256.356 51.1833 254.284 51.605 251.864 51.605ZM254.174 46.105C256.337 46.105 258.207 45.7383 259.784 45.005C261.361 44.2717 262.571 43.245 263.414 41.925C264.257 40.605 264.679 39.0833 264.679 37.36C264.679 35.49 264.239 33.9133 263.359 32.63C262.516 31.31 261.306 30.32 259.729 29.66C258.189 28.9633 256.337 28.615 254.174 28.615C251.131 28.615 248.766 29.4217 247.079 31.035C245.392 32.6117 244.549 34.72 244.549 37.36C244.549 39.12 244.952 40.66 245.759 41.98C246.566 43.2633 247.684 44.2717 249.114 45.005C250.581 45.7383 252.267 46.105 254.174 46.105ZM264.679 23.665H271.829V51H265.174C265.174 51 265.119 50.6517 265.009 49.955C264.936 49.2217 264.862 48.305 264.789 47.205C264.716 46.105 264.679 45.0233 264.679 43.96V23.665ZM278.3 23.665H285.45V51H278.3V23.665ZM295.955 29.55C293.902 29.55 292.123 29.9533 290.62 30.76C289.117 31.53 287.907 32.4833 286.99 33.62C286.073 34.7567 285.432 35.8567 285.065 36.92L285.01 33.895C285.047 33.455 285.193 32.8133 285.45 31.97C285.707 31.09 286.092 30.155 286.605 29.165C287.118 28.1383 287.797 27.1667 288.64 26.25C289.483 25.2967 290.51 24.5267 291.72 23.94C292.93 23.3533 294.342 23.06 295.955 23.06V29.55ZM313.685 51.605C310.935 51.605 308.442 51.0183 306.205 49.845C304.005 48.635 302.264 46.9667 300.98 44.84C299.697 42.6767 299.055 40.1833 299.055 37.36C299.055 34.4633 299.679 31.9517 300.925 29.825C302.209 27.6983 303.95 26.0483 306.15 24.875C308.35 23.665 310.862 23.06 313.685 23.06C316.142 23.06 318.232 23.4267 319.955 24.16C321.679 24.8933 323.072 25.92 324.135 27.24C325.199 28.5233 325.969 30.0267 326.445 31.75C326.959 33.4733 327.215 35.3433 327.215 37.36C327.215 38.9733 326.959 40.6233 326.445 42.31C325.932 43.96 325.144 45.5 324.08 46.93C323.017 48.3233 321.624 49.46 319.9 50.34C318.177 51.1833 316.105 51.605 313.685 51.605ZM315.995 46.105C318.159 46.105 320.029 45.7383 321.605 45.005C323.182 44.2717 324.392 43.245 325.235 41.925C326.079 40.605 326.5 39.0833 326.5 37.36C326.5 35.49 326.06 33.9133 325.18 32.63C324.337 31.31 323.127 30.3017 321.55 29.605C320.01 28.9083 318.159 28.56 315.995 28.56C312.952 28.56 310.587 29.3667 308.9 30.98C307.214 32.5933 306.37 34.72 306.37 37.36C306.37 39.12 306.774 40.66 307.58 41.98C308.387 43.2633 309.505 44.2717 310.935 45.005C312.402 45.7383 314.089 46.105 315.995 46.105ZM326.5 12.665H333.65V51H326.995C326.885 50.1567 326.775 49.075 326.665 47.755C326.555 46.3983 326.5 45.1333 326.5 43.96V12.665Z" fill="#FF823B"/>
<path d="M1.375 89.665H22.605V95.22H1.375V89.665ZM8.415 82.185H15.565V117H8.415V82.185ZM52.1177 117V101.985C52.1177 100.482 51.861 99.235 51.3477 98.245C50.8343 97.255 50.0093 96.5033 48.8727 95.99C47.7727 95.4767 46.2877 95.22 44.4177 95.22C42.621 95.22 40.9893 95.5683 39.5227 96.265C38.056 96.925 36.8643 97.805 35.9477 98.905C35.031 99.9683 34.5177 101.105 34.4077 102.315L34.3527 99.29C34.536 98.08 34.9577 96.87 35.6177 95.66C36.2777 94.45 37.1577 93.35 38.2577 92.36C39.3577 91.37 40.6777 90.5817 42.2177 89.995C43.7943 89.3717 45.5543 89.06 47.4977 89.06C49.1843 89.06 50.7427 89.28 52.1727 89.72C53.6027 90.1233 54.8493 90.765 55.9127 91.645C56.976 92.525 57.801 93.625 58.3877 94.945C58.9743 96.2283 59.2677 97.75 59.2677 99.51V117H52.1177ZM27.6427 117V78.665H34.7927V117H27.6427ZM79.0758 117.605C76.3625 117.605 73.8875 117.018 71.6508 115.845C69.4508 114.635 67.6908 112.967 66.3708 110.84C65.0875 108.677 64.4458 106.183 64.4458 103.36C64.4458 100.463 65.1058 97.9517 66.4258 95.825C67.7458 93.6983 69.5242 92.0483 71.7608 90.875C74.0342 89.665 76.6008 89.06 79.4608 89.06C82.6142 89.06 85.1442 89.7017 87.0508 90.985C88.9942 92.2317 90.4058 93.9367 91.2858 96.1C92.1658 98.2633 92.6058 100.683 92.6058 103.36C92.6058 104.973 92.3492 106.623 91.8358 108.31C91.3225 109.96 90.5342 111.5 89.4708 112.93C88.4075 114.323 87.0142 115.46 85.2908 116.34C83.5675 117.183 81.4958 117.605 79.0758 117.605ZM81.3858 112.105C83.5492 112.105 85.4192 111.738 86.9958 111.005C88.5725 110.272 89.7825 109.245 90.6258 107.925C91.4692 106.605 91.8908 105.083 91.8908 103.36C91.8908 101.49 91.4508 99.9133 90.5708 98.63C89.7275 97.31 88.5175 96.32 86.9408 95.66C85.4008 94.9633 83.5492 94.615 81.3858 94.615C78.3425 94.615 75.9775 95.4217 74.2908 97.035C72.6042 98.6117 71.7608 100.72 71.7608 103.36C71.7608 105.12 72.1642 106.66 72.9708 107.98C73.7775 109.263 74.8958 110.272 76.3258 111.005C77.7925 111.738 79.4792 112.105 81.3858 112.105ZM91.8908 89.665H99.0408V117H92.3858C92.3858 117 92.3308 116.652 92.2208 115.955C92.1475 115.222 92.0742 114.305 92.0008 113.205C91.9275 112.105 91.8908 111.023 91.8908 109.96V89.665ZM103.587 89.665H124.817V95.22H103.587V89.665ZM110.627 82.185H117.777V117H110.627V82.185ZM160.611 96.375V90.93H174.306V96.375H160.611ZM168.201 90.93H175.351V117H168.201V90.93ZM146.861 117V88.18L154.011 89.06V117H146.861ZM157.421 78.665H175.351V84.44H159.126C158.063 84.4033 157.146 84.5133 156.376 84.77C155.606 85.0267 155.02 85.5033 154.616 86.2C154.213 86.86 154.011 87.8133 154.011 89.06L146.861 88.18C146.861 85.98 147.265 84.1833 148.071 82.79C148.878 81.36 150.07 80.315 151.646 79.655C153.223 78.995 155.148 78.665 157.421 78.665ZM140.701 90.93H162.701V96.375H140.701V90.93ZM179.964 89.665H201.194V95.22H179.964V89.665ZM187.004 82.185H194.154V117H187.004V82.185ZM204.637 107.925H211.237C211.64 109.172 212.465 110.198 213.712 111.005C214.995 111.775 216.663 112.16 218.717 112.16C220.11 112.16 221.192 112.032 221.962 111.775C222.732 111.518 223.263 111.152 223.557 110.675C223.85 110.162 223.997 109.593 223.997 108.97C223.997 108.2 223.758 107.613 223.282 107.21C222.805 106.77 222.072 106.422 221.082 106.165C220.092 105.908 218.827 105.67 217.287 105.45C215.747 105.193 214.262 104.882 212.832 104.515C211.402 104.148 210.137 103.672 209.037 103.085C207.937 102.462 207.057 101.692 206.397 100.775C205.773 99.8217 205.462 98.6667 205.462 97.31C205.462 95.99 205.773 94.8167 206.397 93.79C207.057 92.7633 207.955 91.9017 209.092 91.205C210.265 90.5083 211.622 89.9767 213.162 89.61C214.738 89.2433 216.425 89.06 218.222 89.06C220.935 89.06 223.19 89.4633 224.987 90.27C226.783 91.04 228.122 92.14 229.002 93.57C229.918 94.9633 230.377 96.5767 230.377 98.41H224.052C223.758 97.0533 223.172 96.0817 222.292 95.495C221.412 94.8717 220.055 94.56 218.222 94.56C216.425 94.56 215.068 94.835 214.152 95.385C213.235 95.935 212.777 96.6867 212.777 97.64C212.777 98.41 213.052 99.015 213.602 99.455C214.188 99.8583 215.032 100.188 216.132 100.445C217.268 100.702 218.68 100.977 220.367 101.27C221.797 101.563 223.153 101.893 224.437 102.26C225.757 102.627 226.93 103.103 227.957 103.69C228.983 104.24 229.79 104.992 230.377 105.945C231 106.862 231.312 108.035 231.312 109.465C231.312 111.225 230.798 112.71 229.772 113.92C228.782 115.13 227.352 116.065 225.482 116.725C223.612 117.348 221.375 117.66 218.772 117.66C216.462 117.66 214.463 117.422 212.777 116.945C211.127 116.432 209.752 115.79 208.652 115.02C207.552 114.213 206.69 113.37 206.067 112.49C205.48 111.573 205.077 110.712 204.857 109.905C204.637 109.098 204.563 108.438 204.637 107.925ZM247.573 89.665H255.163L266.988 115.9L260.828 117L247.573 89.665ZM281.013 89.665L262.093 128H254.668L262.753 112.93L273.368 89.665H281.013ZM300.055 117.66C296.608 117.66 293.565 117.11 290.925 116.01C288.321 114.91 286.286 113.315 284.82 111.225C283.353 109.098 282.62 106.495 282.62 103.415C282.62 100.335 283.353 97.7317 284.82 95.605C286.286 93.4417 288.321 91.81 290.925 90.71C293.565 89.61 296.608 89.06 300.055 89.06C303.501 89.06 306.508 89.61 309.075 90.71C311.678 91.81 313.713 93.4417 315.18 95.605C316.646 97.7317 317.38 100.335 317.38 103.415C317.38 106.495 316.646 109.098 315.18 111.225C313.713 113.315 311.678 114.91 309.075 116.01C306.508 117.11 303.501 117.66 300.055 117.66ZM300.055 112.16C301.961 112.16 303.666 111.83 305.17 111.17C306.71 110.473 307.92 109.483 308.8 108.2C309.68 106.88 310.12 105.285 310.12 103.415C310.12 101.545 309.68 99.95 308.8 98.63C307.92 97.2733 306.728 96.2467 305.225 95.55C303.721 94.8533 301.998 94.505 300.055 94.505C298.148 94.505 296.425 94.8533 294.885 95.55C293.345 96.2467 292.116 97.255 291.2 98.575C290.32 99.895 289.88 101.508 289.88 103.415C289.88 105.285 290.32 106.88 291.2 108.2C292.08 109.483 293.29 110.473 294.83 111.17C296.37 111.83 298.111 112.16 300.055 112.16ZM354.29 117H347.14V89.665H354.29V117ZM347.525 103.855L347.58 105.725C347.507 106.238 347.324 106.99 347.03 107.98C346.737 108.933 346.279 109.96 345.655 111.06C345.069 112.16 344.299 113.223 343.345 114.25C342.392 115.24 341.219 116.065 339.825 116.725C338.432 117.348 336.782 117.66 334.875 117.66C333.372 117.66 331.887 117.477 330.42 117.11C328.99 116.743 327.689 116.138 326.515 115.295C325.342 114.415 324.407 113.242 323.71 111.775C323.014 110.308 322.665 108.457 322.665 106.22V89.665H329.815V105.01C329.815 106.77 330.09 108.163 330.64 109.19C331.227 110.18 332.07 110.877 333.17 111.28C334.27 111.683 335.572 111.885 337.075 111.885C339.055 111.885 340.76 111.463 342.19 110.62C343.62 109.74 344.775 108.677 345.655 107.43C346.572 106.183 347.195 104.992 347.525 103.855ZM360.8 89.665H367.95V117H360.8V89.665ZM378.455 95.55C376.402 95.55 374.623 95.9533 373.12 96.76C371.617 97.53 370.407 98.4833 369.49 99.62C368.573 100.757 367.932 101.857 367.565 102.92L367.51 99.895C367.547 99.455 367.693 98.8133 367.95 97.97C368.207 97.09 368.592 96.155 369.105 95.165C369.618 94.1383 370.297 93.1667 371.14 92.25C371.983 91.2967 373.01 90.5267 374.22 89.94C375.43 89.3533 376.842 89.06 378.455 89.06V95.55ZM24.365 183.605C21.945 183.605 19.8733 183.183 18.15 182.34C16.4267 181.46 15.0333 180.323 13.97 178.93C12.9067 177.5 12.1183 175.96 11.605 174.31C11.0917 172.623 10.835 170.973 10.835 169.36C10.835 167.343 11.0733 165.473 11.55 163.75C12.0633 162.027 12.8517 160.523 13.915 159.24C14.9783 157.92 16.3717 156.893 18.095 156.16C19.8183 155.427 21.9083 155.06 24.365 155.06C27.1883 155.06 29.6817 155.665 31.845 156.875C34.045 158.048 35.7683 159.698 37.015 161.825C38.2983 163.952 38.94 166.463 38.94 169.36C38.94 172.183 38.2983 174.677 37.015 176.84C35.7317 178.967 33.99 180.635 31.79 181.845C29.59 183.018 27.115 183.605 24.365 183.605ZM22.055 178.105C23.9983 178.105 25.685 177.738 27.115 177.005C28.545 176.272 29.645 175.263 30.415 173.98C31.2217 172.66 31.625 171.12 31.625 169.36C31.625 166.72 30.7817 164.593 29.095 162.98C27.445 161.367 25.0983 160.56 22.055 160.56C19.9283 160.56 18.0767 160.908 16.5 161.605C14.9233 162.302 13.695 163.31 12.815 164.63C11.9717 165.913 11.55 167.49 11.55 169.36C11.55 171.083 11.9717 172.605 12.815 173.925C13.6583 175.245 14.8683 176.272 16.445 177.005C18.0217 177.738 19.8917 178.105 22.055 178.105ZM11.55 144.665V175.96C11.55 177.133 11.495 178.398 11.385 179.755C11.275 181.075 11.165 182.157 11.055 183H4.4V144.665H11.55ZM75.8527 183H68.7027V155.665H75.8527V183ZM69.0877 169.855L69.1427 171.725C69.0694 172.238 68.8861 172.99 68.5927 173.98C68.2994 174.933 67.8411 175.96 67.2177 177.06C66.6311 178.16 65.8611 179.223 64.9077 180.25C63.9544 181.24 62.7811 182.065 61.3877 182.725C59.9944 183.348 58.3444 183.66 56.4377 183.66C54.9344 183.66 53.4494 183.477 51.9827 183.11C50.5527 182.743 49.2511 182.138 48.0777 181.295C46.9044 180.415 45.9694 179.242 45.2727 177.775C44.5761 176.308 44.2277 174.457 44.2277 172.22V155.665H51.3777V171.01C51.3777 172.77 51.6527 174.163 52.2027 175.19C52.7894 176.18 53.6327 176.877 54.7327 177.28C55.8327 177.683 57.1344 177.885 58.6377 177.885C60.6177 177.885 62.3227 177.463 63.7527 176.62C65.1827 175.74 66.3377 174.677 67.2177 173.43C68.1344 172.183 68.7577 170.992 69.0877 169.855ZM81.2625 173.925H87.8625C88.2658 175.172 89.0908 176.198 90.3375 177.005C91.6208 177.775 93.2892 178.16 95.3425 178.16C96.7358 178.16 97.8175 178.032 98.5875 177.775C99.3575 177.518 99.8892 177.152 100.183 176.675C100.476 176.162 100.623 175.593 100.623 174.97C100.623 174.2 100.384 173.613 99.9075 173.21C99.4308 172.77 98.6975 172.422 97.7075 172.165C96.7175 171.908 95.4525 171.67 93.9125 171.45C92.3725 171.193 90.8875 170.882 89.4575 170.515C88.0275 170.148 86.7625 169.672 85.6625 169.085C84.5625 168.462 83.6825 167.692 83.0225 166.775C82.3992 165.822 82.0875 164.667 82.0875 163.31C82.0875 161.99 82.3992 160.817 83.0225 159.79C83.6825 158.763 84.5808 157.902 85.7175 157.205C86.8908 156.508 88.2475 155.977 89.7875 155.61C91.3642 155.243 93.0508 155.06 94.8475 155.06C97.5608 155.06 99.8158 155.463 101.613 156.27C103.409 157.04 104.748 158.14 105.628 159.57C106.544 160.963 107.003 162.577 107.003 164.41H100.678C100.384 163.053 99.7975 162.082 98.9175 161.495C98.0375 160.872 96.6808 160.56 94.8475 160.56C93.0508 160.56 91.6942 160.835 90.7775 161.385C89.8608 161.935 89.4025 162.687 89.4025 163.64C89.4025 164.41 89.6775 165.015 90.2275 165.455C90.8142 165.858 91.6575 166.188 92.7575 166.445C93.8942 166.702 95.3058 166.977 96.9925 167.27C98.4225 167.563 99.7792 167.893 101.063 168.26C102.383 168.627 103.556 169.103 104.583 169.69C105.609 170.24 106.416 170.992 107.003 171.945C107.626 172.862 107.938 174.035 107.938 175.465C107.938 177.225 107.424 178.71 106.398 179.92C105.408 181.13 103.978 182.065 102.108 182.725C100.238 183.348 98.0008 183.66 95.3975 183.66C93.0875 183.66 91.0892 183.422 89.4025 182.945C87.7525 182.432 86.3775 181.79 85.2775 181.02C84.1775 180.213 83.3158 179.37 82.6925 178.49C82.1058 177.573 81.7025 176.712 81.4825 175.905C81.2625 175.098 81.1892 174.438 81.2625 173.925ZM121.602 143.675V149.945H113.297V143.675H121.602ZM113.847 155.665H120.997V183H113.847V155.665ZM128.124 155.665H135.274V183H128.124V155.665ZM147.979 155.06C149.666 155.06 151.224 155.28 152.654 155.72C154.084 156.16 155.331 156.838 156.394 157.755C157.458 158.672 158.283 159.845 158.869 161.275C159.456 162.668 159.749 164.337 159.749 166.28V183H152.599V167.545C152.599 165.235 152.031 163.548 150.894 162.485C149.794 161.385 147.979 160.835 145.449 160.835C143.543 160.835 141.819 161.202 140.279 161.935C138.739 162.668 137.493 163.603 136.539 164.74C135.586 165.84 135.036 166.995 134.889 168.205L134.834 165.4C135.018 164.117 135.439 162.87 136.099 161.66C136.759 160.45 137.639 159.35 138.739 158.36C139.876 157.333 141.214 156.527 142.754 155.94C144.294 155.353 146.036 155.06 147.979 155.06ZM191.174 173.925H198.104C197.811 175.795 197.022 177.463 195.739 178.93C194.492 180.397 192.787 181.552 190.624 182.395C188.461 183.238 185.821 183.66 182.704 183.66C179.221 183.66 176.141 183.11 173.464 182.01C170.787 180.873 168.697 179.242 167.194 177.115C165.691 174.988 164.939 172.422 164.939 169.415C164.939 166.408 165.672 163.842 167.139 161.715C168.606 159.552 170.641 157.902 173.244 156.765C175.884 155.628 178.964 155.06 182.484 155.06C186.077 155.06 189.066 155.628 191.449 156.765C193.832 157.902 195.592 159.625 196.729 161.935C197.902 164.208 198.397 167.123 198.214 170.68H172.144C172.327 172.073 172.841 173.338 173.684 174.475C174.564 175.612 175.737 176.51 177.204 177.17C178.707 177.83 180.486 178.16 182.539 178.16C184.812 178.16 186.701 177.775 188.204 177.005C189.744 176.198 190.734 175.172 191.174 173.925ZM182.154 160.505C179.514 160.505 177.369 161.092 175.719 162.265C174.069 163.402 173.006 164.813 172.529 166.5H191.119C190.936 164.667 190.056 163.218 188.479 162.155C186.939 161.055 184.831 160.505 182.154 160.505ZM202.434 173.925H209.034C209.438 175.172 210.263 176.198 211.509 177.005C212.793 177.775 214.461 178.16 216.514 178.16C217.908 178.16 218.989 178.032 219.759 177.775C220.529 177.518 221.061 177.152 221.354 176.675C221.648 176.162 221.794 175.593 221.794 174.97C221.794 174.2 221.556 173.613 221.079 173.21C220.603 172.77 219.869 172.422 218.879 172.165C217.889 171.908 216.624 171.67 215.084 171.45C213.544 171.193 212.059 170.882 210.629 170.515C209.199 170.148 207.934 169.672 206.834 169.085C205.734 168.462 204.854 167.692 204.194 166.775C203.571 165.822 203.259 164.667 203.259 163.31C203.259 161.99 203.571 160.817 204.194 159.79C204.854 158.763 205.753 157.902 206.889 157.205C208.063 156.508 209.419 155.977 210.959 155.61C212.536 155.243 214.223 155.06 216.019 155.06C218.733 155.06 220.988 155.463 222.784 156.27C224.581 157.04 225.919 158.14 226.799 159.57C227.716 160.963 228.174 162.577 228.174 164.41H221.849C221.556 163.053 220.969 162.082 220.089 161.495C219.209 160.872 217.853 160.56 216.019 160.56C214.223 160.56 212.866 160.835 211.949 161.385C211.033 161.935 210.574 162.687 210.574 163.64C210.574 164.41 210.849 165.015 211.399 165.455C211.986 165.858 212.829 166.188 213.929 166.445C215.066 166.702 216.478 166.977 218.164 167.27C219.594 167.563 220.951 167.893 222.234 168.26C223.554 168.627 224.728 169.103 225.754 169.69C226.781 170.24 227.588 170.992 228.174 171.945C228.798 172.862 229.109 174.035 229.109 175.465C229.109 177.225 228.596 178.71 227.569 179.92C226.579 181.13 225.149 182.065 223.279 182.725C221.409 183.348 219.173 183.66 216.569 183.66C214.259 183.66 212.261 183.422 210.574 182.945C208.924 182.432 207.549 181.79 206.449 181.02C205.349 180.213 204.488 179.37 203.864 178.49C203.278 177.573 202.874 176.712 202.654 175.905C202.434 175.098 202.361 174.438 202.434 173.925ZM233.479 173.925H240.079C240.483 175.172 241.308 176.198 242.554 177.005C243.838 177.775 245.506 178.16 247.559 178.16C248.953 178.16 250.034 178.032 250.804 177.775C251.574 177.518 252.106 177.152 252.399 176.675C252.693 176.162 252.839 175.593 252.839 174.97C252.839 174.2 252.601 173.613 252.124 173.21C251.648 172.77 250.914 172.422 249.924 172.165C248.934 171.908 247.669 171.67 246.129 171.45C244.589 171.193 243.104 170.882 241.674 170.515C240.244 170.148 238.979 169.672 237.879 169.085C236.779 168.462 235.899 167.692 235.239 166.775C234.616 165.822 234.304 164.667 234.304 163.31C234.304 161.99 234.616 160.817 235.239 159.79C235.899 158.763 236.798 157.902 237.934 157.205C239.108 156.508 240.464 155.977 242.004 155.61C243.581 155.243 245.268 155.06 247.064 155.06C249.778 155.06 252.033 155.463 253.829 156.27C255.626 157.04 256.964 158.14 257.844 159.57C258.761 160.963 259.219 162.577 259.219 164.41H252.894C252.601 163.053 252.014 162.082 251.134 161.495C250.254 160.872 248.898 160.56 247.064 160.56C245.268 160.56 243.911 160.835 242.994 161.385C242.078 161.935 241.619 162.687 241.619 163.64C241.619 164.41 241.894 165.015 242.444 165.455C243.031 165.858 243.874 166.188 244.974 166.445C246.111 166.702 247.523 166.977 249.209 167.27C250.639 167.563 251.996 167.893 253.279 168.26C254.599 168.627 255.773 169.103 256.799 169.69C257.826 170.24 258.633 170.992 259.219 171.945C259.843 172.862 260.154 174.035 260.154 175.465C260.154 177.225 259.641 178.71 258.614 179.92C257.624 181.13 256.194 182.065 254.324 182.725C252.454 183.348 250.218 183.66 247.614 183.66C245.304 183.66 243.306 183.422 241.619 182.945C239.969 182.432 238.594 181.79 237.494 181.02C236.394 180.213 235.533 179.37 234.909 178.49C234.323 177.573 233.919 176.712 233.699 175.905C233.479 175.098 233.406 174.438 233.479 173.925Z" fill="black"/>
<path d="M28.1348 60.9615V50.9968C28.1348 50.5304 28.32 50.0831 28.6498 49.7533C28.9796 49.4235 29.4269 49.2383 29.8933 49.2383C30.3596 49.2383 30.8069 49.4235 31.1367 49.7533C31.4665 50.0831 31.6517 50.5304 31.6517 50.9968V59.7892M31.6517 59.203V56.8584C31.6517 56.392 31.837 55.9447 32.1668 55.6149C32.4966 55.2852 32.9438 55.0999 33.4102 55.0999C33.8766 55.0999 34.3239 55.2852 34.6537 55.6149C34.9834 55.9447 35.1687 56.392 35.1687 56.8584V59.7892M35.1687 58.0307C35.1687 57.5643 35.354 57.1171 35.6838 56.7873C36.0135 56.4575 36.4608 56.2722 36.9272 56.2722C37.3936 56.2722 37.8408 56.4575 38.1706 56.7873C38.5004 57.1171 38.6857 57.5643 38.6857 58.0307V59.7892" stroke="#FF823B" stroke-width="2.34465" stroke-linecap="round" stroke-linejoin="round"/>
<path d="M38.686 59.2013C38.686 58.7349 38.8712 58.2876 39.201 57.9578C39.5308 57.628 39.9781 57.4428 40.4445 57.4428C40.9108 57.4428 41.3581 57.628 41.6879 57.9578C42.0177 58.2876 42.203 58.7349 42.203 59.2013V64.4767C42.203 66.3422 41.4619 68.1314 40.1428 69.4505C38.8236 70.7696 37.0345 71.5107 35.169 71.5107H32.8244H33.0682C31.9033 71.5109 30.7566 71.2217 29.731 70.6693C28.7055 70.1168 27.8332 69.3183 27.1925 68.3454L26.9627 67.9937C26.597 67.4321 25.3133 65.1942 23.1105 61.2786C22.8859 60.8795 22.8259 60.4085 22.9433 59.9658C23.0606 59.5231 23.3461 59.1437 23.7389 58.9082C24.1572 58.6571 24.6475 58.5531 25.1318 58.6126C25.616 58.672 26.0665 58.8916 26.4118 59.2364L28.1351 60.9598M21.7354 52.2775C22.635 51.6198 23.6017 51.0591 24.6193 50.6046M35.169 49.7734C36.6957 50.1831 38.152 50.8202 39.489 51.6632" stroke="#FF823B" stroke-width="2.34465" stroke-linecap="round" stroke-linejoin="round"/>
</g>
<defs>
<clipPath id="clip0_3203_31260">
<rect width="393" height="198" fill="white"/>
</clipPath>
</defs>
</svg>
