<svg width="73" height="21" viewBox="0 0 73 21" fill="none" xmlns="http://www.w3.org/2000/svg">
<rect width="73" height="21" rx="10.5" fill="#F2FCF2"/>
<path d="M24.448 14.5V6.712H27.952C28.832 6.712 29.512 6.892 29.992 7.252C30.472 7.612 30.712 8.128 30.712 8.8C30.712 9.216 30.62 9.552 30.436 9.808C30.26 10.064 30.008 10.256 29.68 10.384C29.352 10.504 28.968 10.584 28.528 10.624L28.552 10.54C28.88 10.556 29.188 10.592 29.476 10.648C29.772 10.704 30.028 10.796 30.244 10.924C30.468 11.052 30.644 11.228 30.772 11.452C30.908 11.676 30.976 11.968 30.976 12.328C30.976 12.8 30.864 13.196 30.64 13.516C30.416 13.828 30.104 14.064 29.704 14.224C29.312 14.384 28.856 14.476 28.336 14.5H24.448ZM25.6 13.468H28.12C28.648 13.468 29.06 13.372 29.356 13.18C29.652 12.988 29.8 12.684 29.8 12.268C29.8 11.948 29.708 11.708 29.524 11.548C29.34 11.388 29.1 11.284 28.804 11.236C28.516 11.188 28.216 11.164 27.904 11.164H25.6V13.468ZM25.6 10.144H27.856C28.384 10.144 28.796 10.04 29.092 9.832C29.388 9.616 29.536 9.304 29.536 8.896C29.536 8.48 29.388 8.184 29.092 8.008C28.796 7.832 28.42 7.744 27.964 7.744H25.6V10.144ZM32.3682 6.112H33.5202V14.5H32.3682V6.112ZM38.0582 14.632C37.4742 14.632 36.9382 14.508 36.4502 14.26C35.9622 14.012 35.5742 13.656 35.2862 13.192C34.9982 12.728 34.8542 12.172 34.8542 11.524C34.8542 10.868 34.9982 10.308 35.2862 9.844C35.5742 9.372 35.9622 9.012 36.4502 8.764C36.9382 8.516 37.4742 8.392 38.0582 8.392C38.6422 8.392 39.1742 8.516 39.6542 8.764C40.1342 9.012 40.5182 9.372 40.8062 9.844C41.0942 10.308 41.2382 10.868 41.2382 11.524C41.2382 12.172 41.0942 12.728 40.8062 13.192C40.5182 13.656 40.1342 14.012 39.6542 14.26C39.1742 14.508 38.6422 14.632 38.0582 14.632ZM38.0582 13.636C38.4182 13.636 38.7502 13.556 39.0542 13.396C39.3662 13.228 39.6142 12.988 39.7982 12.676C39.9902 12.356 40.0862 11.972 40.0862 11.524C40.0862 11.068 39.9902 10.68 39.7982 10.36C39.6142 10.04 39.3662 9.796 39.0542 9.628C38.7502 9.46 38.4182 9.376 38.0582 9.376C37.6982 9.376 37.3622 9.46 37.0502 9.628C36.7382 9.788 36.4862 10.028 36.2942 10.348C36.1022 10.668 36.0062 11.06 36.0062 11.524C36.0062 11.972 36.0982 12.356 36.2822 12.676C36.4742 12.988 36.7262 13.228 37.0382 13.396C37.3502 13.556 37.6902 13.636 38.0582 13.636ZM44.8555 13.564C44.3595 13.564 43.9035 13.464 43.4875 13.264C43.0715 13.064 42.7395 12.772 42.4915 12.388C42.2515 12.004 42.1315 11.54 42.1315 10.996C42.1315 10.46 42.2515 10 42.4915 9.616C42.7315 9.224 43.0555 8.924 43.4635 8.716C43.8795 8.5 44.3435 8.392 44.8555 8.392C45.0075 8.392 45.1515 8.404 45.2875 8.428C45.4235 8.444 45.5555 8.472 45.6835 8.512H48.2995V9.592C47.9395 9.592 47.5755 9.532 47.2075 9.412C46.8475 9.292 46.5315 9.164 46.2595 9.028L46.2235 8.968C46.4955 9.112 46.7315 9.288 46.9315 9.496C47.1315 9.696 47.2835 9.924 47.3875 10.18C47.4995 10.428 47.5555 10.708 47.5555 11.02C47.5555 11.548 47.4355 12.004 47.1955 12.388C46.9635 12.772 46.6395 13.064 46.2235 13.264C45.8155 13.464 45.3595 13.564 44.8555 13.564ZM46.6915 16.924V16.648C46.6915 16.24 46.5795 15.948 46.3555 15.772C46.1315 15.596 45.8035 15.508 45.3715 15.508H43.9675C43.6715 15.508 43.4195 15.484 43.2115 15.436C43.0035 15.388 42.8315 15.316 42.6955 15.22C42.5595 15.132 42.4595 15.02 42.3955 14.884C42.3315 14.756 42.2995 14.612 42.2995 14.452C42.2995 14.14 42.3955 13.904 42.5875 13.744C42.7795 13.584 43.0235 13.484 43.3195 13.444C43.6155 13.396 43.9155 13.392 44.2195 13.432L44.8555 13.564C44.3995 13.588 44.0515 13.632 43.8115 13.696C43.5715 13.76 43.4515 13.896 43.4515 14.104C43.4515 14.224 43.4995 14.32 43.5955 14.392C43.6915 14.464 43.8275 14.5 44.0035 14.5H45.4675C45.9235 14.5 46.3275 14.556 46.6795 14.668C47.0395 14.788 47.3195 14.984 47.5195 15.256C47.7275 15.536 47.8315 15.916 47.8315 16.396V16.924H46.6915ZM44.8555 12.592C45.1435 12.592 45.4035 12.532 45.6355 12.412C45.8755 12.284 46.0675 12.104 46.2115 11.872C46.3555 11.632 46.4275 11.344 46.4275 11.008C46.4275 10.664 46.3555 10.372 46.2115 10.132C46.0755 9.884 45.8875 9.7 45.6475 9.58C45.4075 9.452 45.1435 9.388 44.8555 9.388C44.5675 9.388 44.2995 9.452 44.0515 9.58C43.8115 9.7 43.6195 9.88 43.4755 10.12C43.3315 10.36 43.2595 10.656 43.2595 11.008C43.2595 11.344 43.3315 11.632 43.4755 11.872C43.6195 12.104 43.8115 12.284 44.0515 12.412C44.2915 12.532 44.5595 12.592 44.8555 12.592Z" fill="#23A323"/>
</svg>
