<svg width="164" height="59" viewBox="0 0 164 59" fill="none" xmlns="http://www.w3.org/2000/svg">
<rect x="1.00488" y="0.713135" width="161.995" height="57.2265" rx="28.6132" stroke="black" stroke-width="1.32061"/>
<path d="M38.2204 35.9577L43.8316 30.3397L45.4472 31.956L47.0628 33.5722L40.1964 37.4274C36.4199 39.5477 33.1679 41.3486 32.9696 41.4291C32.687 41.5441 33.8205 40.3629 38.2204 35.9577ZM31.508 41.0778C31.4244 40.9511 31.3158 40.7057 31.2667 40.5347C31.1417 40.0988 31.1474 19.3673 31.2725 18.9162C31.3244 18.7291 31.4384 18.4899 31.526 18.3828C31.6832 18.1918 31.7652 18.2678 37.4581 23.9638L43.2309 29.7391L37.4455 35.5246L31.66 41.31L31.508 41.0778ZM46.135 31.4416L44.4335 29.7383L46.1417 28.0382L47.8498 26.3381L49.9716 27.5294C52.3614 28.8712 52.7411 29.1741 52.7411 29.7389C52.7411 30.2877 52.371 30.5949 50.3438 31.7291C49.3785 32.2691 48.4195 32.8085 48.2126 32.9281L47.8365 33.145L46.135 31.4416ZM38.1972 23.4971C33.7631 19.0574 32.6849 17.9327 32.9757 18.0512C33.1773 18.1331 36.4296 19.9338 40.203 22.0525L47.0639 25.9045L45.4719 27.4984C44.5964 28.3751 43.8587 29.0923 43.8326 29.0923C43.8064 29.0923 41.2705 26.5745 38.1972 23.4971Z" fill="black"/>
<path d="M70.4174 22.5901V21.7977H73.7136V22.5901H70.4174ZM69.0228 24.3861L71.6323 17.5189H72.5198L75.1505 24.3861H74.2419L71.9493 18.174H72.2029L69.9103 24.3861H69.0228ZM77.7689 23.6571H77.5153L79.1318 19.1037H80.0509L78.0436 24.3861H77.2512L75.2545 19.1037H76.1736L77.7689 23.6571ZM82.7924 24.4918C82.3769 24.4918 81.993 24.3755 81.6408 24.1431C81.2957 23.9036 81.0175 23.5797 80.8062 23.1711C80.602 22.7556 80.4998 22.2837 80.4998 21.7555C80.4998 21.2272 80.6055 20.7553 80.8168 20.3398C81.0281 19.9242 81.3133 19.5967 81.6725 19.3572C82.0388 19.1178 82.4473 18.998 82.8981 18.998C83.3911 18.998 83.7644 19.1248 84.0179 19.3784C84.2785 19.6249 84.4546 19.9559 84.5462 20.3715C84.6448 20.787 84.6941 21.2483 84.6941 21.7555C84.6941 22.0231 84.6659 22.3154 84.6096 22.6323C84.5532 22.9422 84.4546 23.2416 84.3138 23.5304C84.1799 23.8121 83.9898 24.0445 83.7433 24.2276C83.4967 24.4037 83.1798 24.4918 82.7924 24.4918ZM83.0037 23.6888C83.3629 23.6888 83.6587 23.6008 83.8912 23.4247C84.1306 23.2486 84.3067 23.0162 84.4194 22.7274C84.5321 22.4316 84.5884 22.1076 84.5884 21.7555C84.5884 21.3681 84.5286 21.03 84.4088 20.7412C84.2962 20.4454 84.1201 20.2165 83.8806 20.0545C83.6482 19.8855 83.3559 19.8009 83.0037 19.8009C82.4755 19.8009 82.067 19.9876 81.7782 20.3609C81.4894 20.7271 81.345 21.192 81.345 21.7555C81.345 22.1287 81.4155 22.4633 81.5563 22.7591C81.7042 23.0479 81.9014 23.2768 82.148 23.4458C82.4015 23.6078 82.6868 23.6888 83.0037 23.6888ZM84.5884 19.1037H85.4336V24.3861H84.6624C84.6624 24.3861 84.6554 24.3227 84.6413 24.1959C84.6342 24.0692 84.6237 23.9213 84.6096 23.7522C84.5955 23.5832 84.5884 23.4423 84.5884 23.3296V19.1037ZM87.8565 16.9907V18.0155H86.7578V16.9907H87.8565ZM86.8846 19.1037H87.7298V24.3861H86.8846V19.1037ZM89.2789 16.9907H90.1241V24.3861H89.2789V16.9907ZM93.6049 24.4918C93.1894 24.4918 92.8055 24.3755 92.4533 24.1431C92.1082 23.9036 91.83 23.5797 91.6187 23.1711C91.4145 22.7556 91.3123 22.2837 91.3123 21.7555C91.3123 21.2272 91.418 20.7553 91.6293 20.3398C91.8406 19.9242 92.1258 19.5967 92.485 19.3572C92.8513 19.1178 93.2598 18.998 93.7106 18.998C94.2036 18.998 94.5769 19.1248 94.8304 19.3784C95.091 19.6249 95.2671 19.9559 95.3587 20.3715C95.4573 20.787 95.5066 21.2483 95.5066 21.7555C95.5066 22.0231 95.4784 22.3154 95.4221 22.6323C95.3657 22.9422 95.2671 23.2416 95.1263 23.5304C94.9924 23.8121 94.8023 24.0445 94.5558 24.2276C94.3092 24.4037 93.9923 24.4918 93.6049 24.4918ZM93.8162 23.6888C94.1754 23.6888 94.4712 23.6008 94.7037 23.4247C94.9431 23.2486 95.1192 23.0162 95.2319 22.7274C95.3446 22.4316 95.4009 22.1076 95.4009 21.7555C95.4009 21.3681 95.3411 21.03 95.2213 20.7412C95.1087 20.4454 94.9326 20.2165 94.6931 20.0545C94.4607 19.8855 94.1684 19.8009 93.8162 19.8009C93.288 19.8009 92.8795 19.9876 92.5907 20.3609C92.3019 20.7271 92.1575 21.192 92.1575 21.7555C92.1575 22.1287 92.228 22.4633 92.3688 22.7591C92.5167 23.0479 92.7139 23.2768 92.9605 23.4458C93.214 23.6078 93.4993 23.6888 93.8162 23.6888ZM95.4009 19.1037H96.2461V24.3861H95.4749C95.4749 24.3861 95.4679 24.3227 95.4538 24.1959C95.4467 24.0692 95.4362 23.9213 95.4221 23.7522C95.408 23.5832 95.4009 23.4423 95.4009 23.3296V19.1037ZM100.32 24.4918C99.9323 24.4918 99.6153 24.4037 99.3688 24.2276C99.1223 24.0445 98.9286 23.8121 98.7877 23.5304C98.6539 23.2416 98.5588 22.9422 98.5025 22.6323C98.4461 22.3154 98.418 22.0231 98.418 21.7555C98.418 21.3751 98.4426 21.0194 98.4919 20.6884C98.5483 20.3574 98.6433 20.0651 98.7772 19.8115C98.911 19.558 99.1012 19.3607 99.3477 19.2199C99.6012 19.072 99.9252 18.998 100.32 18.998C100.763 18.998 101.158 19.1178 101.503 19.3572C101.848 19.5967 102.119 19.9242 102.316 20.3398C102.514 20.7553 102.612 21.2272 102.612 21.7555C102.612 22.2837 102.51 22.7556 102.306 23.1711C102.102 23.5797 101.827 23.9036 101.482 24.1431C101.137 24.3755 100.749 24.4918 100.32 24.4918ZM100.108 23.6888C100.432 23.6888 100.718 23.6078 100.964 23.4458C101.211 23.2768 101.404 23.0479 101.545 22.7591C101.693 22.4633 101.767 22.1287 101.767 21.7555C101.767 21.192 101.623 20.7271 101.334 20.3609C101.045 19.9876 100.637 19.8009 100.108 19.8009C99.7562 19.8009 99.4604 19.8855 99.2209 20.0545C98.9885 20.2165 98.8124 20.4454 98.6927 20.7412C98.58 21.03 98.5236 21.3681 98.5236 21.7555C98.5236 22.1076 98.58 22.4316 98.6927 22.7274C98.8124 23.0162 98.9885 23.2486 99.2209 23.4247C99.4533 23.6008 99.7491 23.6888 100.108 23.6888ZM98.5236 16.9907V23.3296C98.5236 23.4564 98.513 23.6254 98.4919 23.8367C98.4778 24.048 98.4637 24.2312 98.4497 24.3861H97.6784V16.9907H98.5236ZM103.795 16.9907H104.641V24.3861H103.795V16.9907ZM109.865 22.6852H110.657C110.601 23.0303 110.474 23.3402 110.277 23.6149C110.086 23.8825 109.833 24.0973 109.516 24.2593C109.206 24.4143 108.847 24.4918 108.438 24.4918C107.945 24.4918 107.502 24.3755 107.107 24.1431C106.713 23.9036 106.399 23.5797 106.167 23.1711C105.941 22.7556 105.829 22.2837 105.829 21.7555C105.829 21.2272 105.938 20.7553 106.156 20.3398C106.382 19.9242 106.688 19.5967 107.075 19.3572C107.463 19.1178 107.899 18.998 108.385 18.998C108.9 18.998 109.333 19.1142 109.685 19.3467C110.044 19.572 110.308 19.9066 110.477 20.3503C110.653 20.787 110.724 21.3258 110.689 21.9667H106.674C106.709 22.3119 106.804 22.6147 106.959 22.8753C107.114 23.1359 107.318 23.3402 107.572 23.4881C107.825 23.629 108.114 23.6994 108.438 23.6994C108.797 23.6994 109.1 23.6078 109.347 23.4247C109.6 23.2345 109.773 22.988 109.865 22.6852ZM108.417 19.7904C107.98 19.7904 107.614 19.9172 107.318 20.1707C107.023 20.4243 106.825 20.7694 106.727 21.2061H109.822C109.794 20.7412 109.643 20.3891 109.368 20.1496C109.1 19.9101 108.783 19.7904 108.417 19.7904ZM116.289 24.4918C115.838 24.4918 115.416 24.3826 115.021 24.1642C114.627 23.9459 114.307 23.6325 114.06 23.224C113.821 22.8084 113.701 22.3189 113.701 21.7555C113.701 21.192 113.821 20.706 114.06 20.2975C114.307 19.8819 114.627 19.5615 115.021 19.3361C115.416 19.1107 115.838 18.998 116.289 18.998C116.74 18.998 117.159 19.1107 117.546 19.3361C117.941 19.5615 118.258 19.8819 118.497 20.2975C118.737 20.706 118.856 21.192 118.856 21.7555C118.856 22.3189 118.737 22.8084 118.497 23.224C118.258 23.6325 117.941 23.9459 117.546 24.1642C117.159 24.3826 116.74 24.4918 116.289 24.4918ZM116.289 23.6994C116.585 23.6994 116.863 23.6254 117.124 23.4775C117.384 23.3296 117.596 23.1113 117.758 22.8225C117.927 22.5267 118.011 22.171 118.011 21.7555C118.011 21.3399 117.927 20.9877 117.758 20.699C117.596 20.4031 117.384 20.1778 117.124 20.0228C116.863 19.8679 116.585 19.7904 116.289 19.7904C115.993 19.7904 115.712 19.8679 115.444 20.0228C115.183 20.1707 114.969 20.3926 114.8 20.6884C114.631 20.9772 114.546 21.3329 114.546 21.7555C114.546 22.171 114.627 22.5267 114.789 22.8225C114.958 23.1113 115.176 23.3296 115.444 23.4775C115.712 23.6254 115.993 23.6994 116.289 23.6994ZM119.929 19.1037H120.774V24.3861H119.929V19.1037ZM122.591 18.998C122.873 18.998 123.127 19.0403 123.352 19.1248C123.577 19.2093 123.768 19.3326 123.923 19.4946C124.078 19.6566 124.197 19.8538 124.282 20.0862C124.366 20.3116 124.409 20.5687 124.409 20.8574V24.3861H123.563V21.0687C123.563 20.6602 123.468 20.3538 123.278 20.1496C123.088 19.9453 122.803 19.8432 122.422 19.8432C122.134 19.8432 121.866 19.9172 121.619 20.0651C121.373 20.213 121.169 20.4172 121.007 20.6778C120.852 20.9314 120.757 21.2272 120.721 21.5653L120.711 20.9525C120.746 20.6567 120.817 20.3891 120.922 20.1496C121.035 19.9101 121.172 19.7059 121.334 19.5368C121.503 19.3607 121.693 19.2269 121.905 19.1354C122.123 19.0438 122.352 18.998 122.591 18.998ZM71.1781 36.7977V35.4912H74.8265C75.262 35.4912 75.6071 35.3761 75.8618 35.1461C76.1166 34.9078 76.2439 34.5791 76.2439 34.16C76.2439 33.7245 76.1166 33.3917 75.8618 33.1616C75.6071 32.9316 75.262 32.8165 74.8265 32.8165H71.3753V39.3861H69.736V31.4114H74.6786C75.1223 31.4114 75.5372 31.4648 75.9235 31.5716C76.3179 31.6784 76.6589 31.8428 76.9465 32.0646C77.2423 32.2865 77.4724 32.57 77.6367 32.9151C77.8011 33.2602 77.8832 33.6752 77.8832 34.16C77.8832 34.6366 77.8011 35.0434 77.6367 35.3803C77.4724 35.7172 77.2423 35.9924 76.9465 36.2061C76.6589 36.4115 76.3179 36.5635 75.9235 36.6621C75.5372 36.7525 75.1223 36.7977 74.6786 36.7977H71.1781ZM79.3399 30.7951H80.9422V39.3861H79.3399V30.7951ZM85.5457 39.5217C84.9376 39.5217 84.383 39.3902 83.8817 39.1273C83.3887 38.8561 82.9943 38.4822 82.6984 38.0056C82.4108 37.5208 82.267 36.9621 82.267 36.3293C82.267 35.6802 82.415 35.1173 82.7108 34.6407C83.0066 34.1641 83.4051 33.7943 83.9064 33.5314C84.4158 33.2602 84.991 33.1247 85.632 33.1247C86.3386 33.1247 86.9056 33.2685 87.3329 33.5561C87.7684 33.8354 88.0848 34.2175 88.282 34.7023C88.4792 35.1872 88.5778 35.7295 88.5778 36.3293C88.5778 36.6909 88.5203 37.0607 88.4052 37.4386C88.2902 37.8084 88.1135 38.1535 87.8752 38.474C87.6369 38.7863 87.3247 39.041 86.9385 39.2382C86.5523 39.4272 86.088 39.5217 85.5457 39.5217ZM86.0634 38.2891C86.5482 38.2891 86.9672 38.2069 87.3206 38.0426C87.6739 37.8783 87.9451 37.6482 88.1341 37.3524C88.3231 37.0566 88.4176 36.7155 88.4176 36.3293C88.4176 35.9103 88.319 35.5569 88.1218 35.2693C87.9328 34.9735 87.6616 34.7516 87.3083 34.6037C86.9631 34.4476 86.5482 34.3695 86.0634 34.3695C85.3813 34.3695 84.8513 34.5503 84.4733 34.9119C84.0954 35.2652 83.9064 35.7377 83.9064 36.3293C83.9064 36.7238 83.9968 37.0689 84.1775 37.3647C84.3583 37.6523 84.6089 37.8783 84.9294 38.0426C85.2581 38.2069 85.6361 38.2891 86.0634 38.2891ZM88.4176 33.2602H90.0199V39.3861H88.5285C88.5285 39.3861 88.5162 39.308 88.4915 39.1519C88.4751 38.9876 88.4587 38.7821 88.4422 38.5356C88.4258 38.2891 88.4176 38.0467 88.4176 37.8084V33.2602ZM90.9154 33.2602H92.6164L95.2664 39.1396L93.8859 39.3861L90.9154 33.2602ZM98.4095 33.2602L94.1694 41.8512H92.5055L94.3173 38.474L96.6962 33.2602H98.4095ZM99.0217 36.6991H100.686C100.719 36.9785 100.846 37.2332 101.068 37.4633C101.298 37.6852 101.598 37.8618 101.968 37.9933C102.337 38.1166 102.752 38.1782 103.212 38.1782C103.632 38.1782 103.977 38.133 104.248 38.0426C104.519 37.9522 104.72 37.8249 104.852 37.6605C104.983 37.4962 105.049 37.299 105.049 37.0689C105.049 36.847 104.967 36.6786 104.802 36.5635C104.638 36.4403 104.379 36.3417 104.026 36.2677C103.673 36.1855 103.208 36.1034 102.633 36.0212C102.181 35.9555 101.754 35.8651 101.351 35.75C100.949 35.6268 100.591 35.4706 100.279 35.2817C99.9749 35.0927 99.7325 34.8626 99.5517 34.5914C99.3792 34.312 99.2929 33.9833 99.2929 33.6054C99.2929 33.137 99.4244 32.7261 99.6873 32.3728C99.9585 32.0194 100.357 31.7442 100.883 31.547C101.409 31.3498 102.054 31.2511 102.818 31.2511C103.968 31.2511 104.852 31.4977 105.468 31.9907C106.093 32.4755 106.397 33.1452 106.38 33.9998H104.778C104.745 33.515 104.54 33.1657 104.162 32.9521C103.792 32.7384 103.323 32.6316 102.756 32.6316C102.231 32.6316 101.795 32.7097 101.45 32.8658C101.113 33.0219 100.945 33.289 100.945 33.667C100.945 33.8149 100.986 33.9464 101.068 34.0614C101.15 34.1682 101.29 34.2627 101.487 34.3449C101.684 34.4271 101.951 34.5051 102.288 34.5791C102.625 34.653 103.044 34.727 103.545 34.8009C104.014 34.8667 104.437 34.9571 104.815 35.0721C105.201 35.1789 105.53 35.3227 105.801 35.5035C106.08 35.6761 106.294 35.8979 106.442 36.1691C106.59 36.4403 106.664 36.7731 106.664 37.1675C106.664 37.6523 106.536 38.0755 106.282 38.437C106.035 38.7904 105.649 39.0656 105.123 39.2629C104.605 39.4601 103.931 39.5587 103.102 39.5587C102.51 39.5587 101.988 39.497 101.536 39.3738C101.084 39.2423 100.694 39.0697 100.365 38.8561C100.037 38.6425 99.7695 38.4083 99.564 38.1535C99.3586 37.8988 99.2107 37.6441 99.1203 37.3893C99.0382 37.1346 99.0053 36.9045 99.0217 36.6991ZM107.469 33.2602H112.227V34.5051H107.469V33.2602ZM109.047 31.5839H110.649V39.3861H109.047V31.5839ZM116.772 39.534C115.999 39.534 115.317 39.4108 114.726 39.1642C114.142 38.9177 113.686 38.5603 113.358 38.0919C113.029 37.6153 112.865 37.0319 112.865 36.3417C112.865 35.6514 113.029 35.068 113.358 34.5914C113.686 34.1066 114.142 33.7409 114.726 33.4944C115.317 33.2479 115.999 33.1247 116.772 33.1247C117.544 33.1247 118.218 33.2479 118.793 33.4944C119.377 33.7409 119.833 34.1066 120.161 34.5914C120.49 35.068 120.654 35.6514 120.654 36.3417C120.654 37.0319 120.49 37.6153 120.161 38.0919C119.833 38.5603 119.377 38.9177 118.793 39.1642C118.218 39.4108 117.544 39.534 116.772 39.534ZM116.772 38.3014C117.199 38.3014 117.581 38.2275 117.918 38.0796C118.263 37.9235 118.534 37.7016 118.732 37.414C118.929 37.1182 119.027 36.7607 119.027 36.3417C119.027 35.9226 118.929 35.5651 118.732 35.2693C118.534 34.9653 118.267 34.7352 117.93 34.5791C117.594 34.423 117.207 34.3449 116.772 34.3449C116.345 34.3449 115.958 34.423 115.613 34.5791C115.268 34.7352 114.993 34.9612 114.787 35.257C114.59 35.5528 114.492 35.9144 114.492 36.3417C114.492 36.7607 114.59 37.1182 114.787 37.414C114.985 37.7016 115.256 37.9235 115.601 38.0796C115.946 38.2275 116.336 38.3014 116.772 38.3014ZM121.839 33.2602H123.441V39.3861H121.839V33.2602ZM125.796 34.5791C125.335 34.5791 124.937 34.6695 124.6 34.8503C124.263 35.0228 123.992 35.2365 123.786 35.4912C123.581 35.7459 123.437 35.9924 123.355 36.2307L123.343 35.5528C123.351 35.4542 123.384 35.3104 123.441 35.1214C123.499 34.9242 123.585 34.7147 123.7 34.4928C123.815 34.2627 123.967 34.045 124.156 33.8395C124.345 33.6259 124.575 33.4533 124.846 33.3219C125.118 33.1904 125.434 33.1247 125.796 33.1247V34.5791ZM132.37 37.3524H133.923C133.857 37.7714 133.68 38.1453 133.393 38.474C133.113 38.8027 132.731 39.0615 132.246 39.2505C131.762 39.4395 131.17 39.534 130.472 39.534C129.691 39.534 129.001 39.4108 128.401 39.1642C127.801 38.9095 127.333 38.5439 126.996 38.0673C126.659 37.5907 126.49 37.0155 126.49 36.3417C126.49 35.6679 126.655 35.0927 126.983 34.6161C127.312 34.1313 127.768 33.7615 128.351 33.5067C128.943 33.252 129.633 33.1247 130.422 33.1247C131.227 33.1247 131.897 33.252 132.431 33.5067C132.965 33.7615 133.36 34.1477 133.615 34.6654C133.878 35.1748 133.988 35.8281 133.947 36.6252H128.105C128.146 36.9374 128.261 37.2209 128.45 37.4756C128.647 37.7304 128.91 37.9317 129.239 38.0796C129.576 38.2275 129.974 38.3014 130.435 38.3014C130.944 38.3014 131.367 38.2152 131.704 38.0426C132.049 37.8618 132.271 37.6318 132.37 37.3524ZM130.348 34.3449C129.757 34.3449 129.276 34.4764 128.906 34.7393C128.536 34.9941 128.298 35.3104 128.191 35.6884H132.357C132.316 35.2775 132.119 34.953 131.766 34.7147C131.421 34.4682 130.948 34.3449 130.348 34.3449Z" fill="black"/>
</svg>
