<svg width="164" height="59" viewBox="0 0 164 59" fill="none" xmlns="http://www.w3.org/2000/svg">
<rect x="1.00488" y="0.713135" width="161.995" height="57.2265" rx="28.6132" stroke="black" stroke-width="1.32061"/>
<path d="M44.0138 28.8801L29.8467 42.7813C29.0952 42.2053 28.6567 41.3106 28.6622 40.3638V17.4207C28.6568 16.4739 29.0952 15.5791 29.8467 15.0032L44.0138 28.8801Z" fill="#2196F3"/>
<path d="M55.2555 28.8801C55.2556 29.9804 54.6648 30.9959 53.7083 31.5395L49.2599 34.0054L44.0137 28.8801L49.2598 23.7548L53.7081 26.2448C54.6587 26.7828 55.249 27.788 55.2555 28.8801Z" fill="#FFC107"/>
<path d="M49.26 34.0055L33.1104 43.023C32.6631 43.2589 32.1655 43.3833 31.6599 43.3857C31.1311 43.3958 30.6107 43.253 30.1609 42.9747C30.0529 42.9156 29.948 42.851 29.8467 42.7812L44.0139 28.8801L49.26 34.0055Z" fill="#F44336"/>
<path d="M49.2599 23.7548L44.0137 28.8801L29.8467 15.0031C29.9481 14.9333 30.0529 14.8687 30.1609 14.8097C31.0634 14.2628 32.1905 14.2443 33.1104 14.7613L49.2599 23.7548Z" fill="#4CAF50"/>
<path d="M70.0678 22.5901V21.7977H73.364V22.5901H70.0678ZM68.6732 24.3861L71.2827 17.5189H72.1702L74.8008 24.3861H73.8923L71.5997 18.174H71.8532L69.5607 24.3861H68.6732ZM77.4193 23.6571H77.1657L78.7822 19.1037H79.7013L77.694 24.3861H76.9016L74.9048 19.1037H75.824L77.4193 23.6571ZM82.4428 24.4918C82.0273 24.4918 81.6434 24.3755 81.2912 24.1431C80.9461 23.9036 80.6679 23.5797 80.4566 23.1711C80.2524 22.7556 80.1502 22.2837 80.1502 21.7555C80.1502 21.2272 80.2559 20.7553 80.4672 20.3398C80.6785 19.9242 80.9637 19.5967 81.3229 19.3572C81.6892 19.1178 82.0977 18.998 82.5485 18.998C83.0415 18.998 83.4148 19.1248 83.6683 19.3784C83.9289 19.6249 84.105 19.9559 84.1966 20.3715C84.2952 20.787 84.3445 21.2483 84.3445 21.7555C84.3445 22.0231 84.3163 22.3154 84.26 22.6323C84.2036 22.9422 84.105 23.2416 83.9641 23.5304C83.8303 23.8121 83.6402 24.0445 83.3936 24.2276C83.1471 24.4037 82.8302 24.4918 82.4428 24.4918ZM82.6541 23.6888C83.0133 23.6888 83.3091 23.6008 83.5416 23.4247C83.781 23.2486 83.9571 23.0162 84.0698 22.7274C84.1825 22.4316 84.2388 22.1076 84.2388 21.7555C84.2388 21.3681 84.179 21.03 84.0592 20.7412C83.9465 20.4454 83.7705 20.2165 83.531 20.0545C83.2986 19.8855 83.0063 19.8009 82.6541 19.8009C82.1259 19.8009 81.7174 19.9876 81.4286 20.3609C81.1398 20.7271 80.9954 21.192 80.9954 21.7555C80.9954 22.1287 81.0658 22.4633 81.2067 22.7591C81.3546 23.0479 81.5518 23.2768 81.7983 23.4458C82.0519 23.6078 82.3372 23.6888 82.6541 23.6888ZM84.2388 19.1037H85.084V24.3861H84.3128C84.3128 24.3861 84.3057 24.3227 84.2917 24.1959C84.2846 24.0692 84.2741 23.9213 84.26 23.7522C84.2459 23.5832 84.2388 23.4423 84.2388 23.3296V19.1037ZM87.5069 16.9907V18.0155H86.4082V16.9907H87.5069ZM86.535 19.1037H87.3802V24.3861H86.535V19.1037ZM88.9293 16.9907H89.7745V24.3861H88.9293V16.9907ZM93.2553 24.4918C92.8398 24.4918 92.4559 24.3755 92.1037 24.1431C91.7586 23.9036 91.4804 23.5797 91.2691 23.1711C91.0649 22.7556 90.9627 22.2837 90.9627 21.7555C90.9627 21.2272 91.0684 20.7553 91.2797 20.3398C91.491 19.9242 91.7762 19.5967 92.1354 19.3572C92.5017 19.1178 92.9102 18.998 93.361 18.998C93.854 18.998 94.2273 19.1248 94.4808 19.3784C94.7414 19.6249 94.9175 19.9559 95.0091 20.3715C95.1077 20.787 95.157 21.2483 95.157 21.7555C95.157 22.0231 95.1288 22.3154 95.0725 22.6323C95.0161 22.9422 94.9175 23.2416 94.7766 23.5304C94.6428 23.8121 94.4527 24.0445 94.2061 24.2276C93.9596 24.4037 93.6427 24.4918 93.2553 24.4918ZM93.4666 23.6888C93.8258 23.6888 94.1216 23.6008 94.3541 23.4247C94.5935 23.2486 94.7696 23.0162 94.8823 22.7274C94.995 22.4316 95.0513 22.1076 95.0513 21.7555C95.0513 21.3681 94.9915 21.03 94.8717 20.7412C94.759 20.4454 94.583 20.2165 94.3435 20.0545C94.1111 19.8855 93.8188 19.8009 93.4666 19.8009C92.9384 19.8009 92.5299 19.9876 92.2411 20.3609C91.9523 20.7271 91.8079 21.192 91.8079 21.7555C91.8079 22.1287 91.8783 22.4633 92.0192 22.7591C92.1671 23.0479 92.3643 23.2768 92.6108 23.4458C92.8644 23.6078 93.1497 23.6888 93.4666 23.6888ZM95.0513 19.1037H95.8965V24.3861H95.1253C95.1253 24.3861 95.1182 24.3227 95.1042 24.1959C95.0971 24.0692 95.0866 23.9213 95.0725 23.7522C95.0584 23.5832 95.0513 23.4423 95.0513 23.3296V19.1037ZM99.97 24.4918C99.5827 24.4918 99.2657 24.4037 99.0192 24.2276C98.7727 24.0445 98.579 23.8121 98.4381 23.5304C98.3043 23.2416 98.2092 22.9422 98.1529 22.6323C98.0965 22.3154 98.0684 22.0231 98.0684 21.7555C98.0684 21.3751 98.093 21.0194 98.1423 20.6884C98.1987 20.3574 98.2937 20.0651 98.4276 19.8115C98.5614 19.558 98.7516 19.3607 98.9981 19.2199C99.2516 19.072 99.5756 18.998 99.97 18.998C100.414 18.998 100.808 19.1178 101.153 19.3572C101.498 19.5967 101.77 19.9242 101.967 20.3398C102.164 20.7553 102.263 21.2272 102.263 21.7555C102.263 22.2837 102.16 22.7556 101.956 23.1711C101.752 23.5797 101.477 23.9036 101.132 24.1431C100.787 24.3755 100.4 24.4918 99.97 24.4918ZM99.7587 23.6888C100.083 23.6888 100.368 23.6078 100.614 23.4458C100.861 23.2768 101.055 23.0479 101.196 22.7591C101.343 22.4633 101.417 22.1287 101.417 21.7555C101.417 21.192 101.273 20.7271 100.984 20.3609C100.695 19.9876 100.287 19.8009 99.7587 19.8009C99.4066 19.8009 99.1108 19.8855 98.8713 20.0545C98.6389 20.2165 98.4628 20.4454 98.343 20.7412C98.2303 21.03 98.174 21.3681 98.174 21.7555C98.174 22.1076 98.2303 22.4316 98.343 22.7274C98.4628 23.0162 98.6389 23.2486 98.8713 23.4247C99.1037 23.6008 99.3995 23.6888 99.7587 23.6888ZM98.174 16.9907V23.3296C98.174 23.4564 98.1634 23.6254 98.1423 23.8367C98.1282 24.048 98.1141 24.2312 98.1 24.3861H97.3288V16.9907H98.174ZM103.446 16.9907H104.291V24.3861H103.446V16.9907ZM109.515 22.6852H110.307C110.251 23.0303 110.124 23.3402 109.927 23.6149C109.737 23.8825 109.483 24.0973 109.166 24.2593C108.856 24.4143 108.497 24.4918 108.089 24.4918C107.596 24.4918 107.152 24.3755 106.757 24.1431C106.363 23.9036 106.05 23.5797 105.817 23.1711C105.592 22.7556 105.479 22.2837 105.479 21.7555C105.479 21.2272 105.588 20.7553 105.807 20.3398C106.032 19.9242 106.338 19.5967 106.726 19.3572C107.113 19.1178 107.55 18.998 108.036 18.998C108.55 18.998 108.983 19.1142 109.335 19.3467C109.695 19.572 109.959 19.9066 110.128 20.3503C110.304 20.787 110.374 21.3258 110.339 21.9667H106.324C106.36 22.3119 106.455 22.6147 106.61 22.8753C106.765 23.1359 106.969 23.3402 107.222 23.4881C107.476 23.629 107.765 23.6994 108.089 23.6994C108.448 23.6994 108.751 23.6078 108.997 23.4247C109.251 23.2345 109.423 22.988 109.515 22.6852ZM108.068 19.7904C107.631 19.7904 107.265 19.9172 106.969 20.1707C106.673 20.4243 106.476 20.7694 106.377 21.2061H109.473C109.444 20.7412 109.293 20.3891 109.018 20.1496C108.751 19.9101 108.434 19.7904 108.068 19.7904ZM115.94 24.4918C115.489 24.4918 115.066 24.3826 114.672 24.1642C114.277 23.9459 113.957 23.6325 113.71 23.224C113.471 22.8084 113.351 22.3189 113.351 21.7555C113.351 21.192 113.471 20.706 113.71 20.2975C113.957 19.8819 114.277 19.5615 114.672 19.3361C115.066 19.1107 115.489 18.998 115.94 18.998C116.39 18.998 116.809 19.1107 117.197 19.3361C117.591 19.5615 117.908 19.8819 118.148 20.2975C118.387 20.706 118.507 21.192 118.507 21.7555C118.507 22.3189 118.387 22.8084 118.148 23.224C117.908 23.6325 117.591 23.9459 117.197 24.1642C116.809 24.3826 116.39 24.4918 115.94 24.4918ZM115.94 23.6994C116.235 23.6994 116.514 23.6254 116.774 23.4775C117.035 23.3296 117.246 23.1113 117.408 22.8225C117.577 22.5267 117.662 22.171 117.662 21.7555C117.662 21.3399 117.577 20.9877 117.408 20.699C117.246 20.4031 117.035 20.1778 116.774 20.0228C116.514 19.8679 116.235 19.7904 115.94 19.7904C115.644 19.7904 115.362 19.8679 115.094 20.0228C114.834 20.1707 114.619 20.3926 114.45 20.6884C114.281 20.9772 114.196 21.3329 114.196 21.7555C114.196 22.171 114.277 22.5267 114.439 22.8225C114.608 23.1113 114.827 23.3296 115.094 23.4775C115.362 23.6254 115.644 23.6994 115.94 23.6994ZM119.579 19.1037H120.425V24.3861H119.579V19.1037ZM122.242 18.998C122.524 18.998 122.777 19.0403 123.002 19.1248C123.228 19.2093 123.418 19.3326 123.573 19.4946C123.728 19.6566 123.848 19.8538 123.932 20.0862C124.017 20.3116 124.059 20.5687 124.059 20.8574V24.3861H123.214V21.0687C123.214 20.6602 123.119 20.3538 122.929 20.1496C122.738 19.9453 122.453 19.8432 122.073 19.8432C121.784 19.8432 121.516 19.9172 121.27 20.0651C121.023 20.213 120.819 20.4172 120.657 20.6778C120.502 20.9314 120.407 21.2272 120.372 21.5653L120.361 20.9525C120.396 20.6567 120.467 20.3891 120.573 20.1496C120.685 19.9101 120.823 19.7059 120.985 19.5368C121.154 19.3607 121.344 19.2269 121.555 19.1354C121.773 19.0438 122.002 18.998 122.242 18.998ZM70.8284 36.7977V35.4912H74.4769C74.9124 35.4912 75.2575 35.3761 75.5122 35.1461C75.7669 34.9078 75.8943 34.5791 75.8943 34.16C75.8943 33.7245 75.7669 33.3917 75.5122 33.1616C75.2575 32.9316 74.9124 32.8165 74.4769 32.8165H71.0257V39.3861H69.3863V31.4114H74.3289C74.7727 31.4114 75.1876 31.4648 75.5738 31.5716C75.9683 31.6784 76.3093 31.8428 76.5969 32.0646C76.8927 32.2865 77.1228 32.57 77.2871 32.9151C77.4515 33.2602 77.5336 33.6752 77.5336 34.16C77.5336 34.6366 77.4515 35.0434 77.2871 35.3803C77.1228 35.7172 76.8927 35.9924 76.5969 36.2061C76.3093 36.4115 75.9683 36.5635 75.5738 36.6621C75.1876 36.7525 74.7727 36.7977 74.3289 36.7977H70.8284ZM78.9903 30.7951H80.5926V39.3861H78.9903V30.7951ZM85.1961 39.5217C84.588 39.5217 84.0333 39.3902 83.5321 39.1273C83.0391 38.8561 82.6447 38.4822 82.3488 38.0056C82.0612 37.5208 81.9174 36.9621 81.9174 36.3293C81.9174 35.6802 82.0653 35.1173 82.3612 34.6407C82.657 34.1641 83.0555 33.7943 83.5568 33.5314C84.0662 33.2602 84.6414 33.1247 85.2824 33.1247C85.989 33.1247 86.556 33.2685 86.9833 33.5561C87.4188 33.8354 87.7352 34.2175 87.9324 34.7023C88.1296 35.1872 88.2282 35.7295 88.2282 36.3293C88.2282 36.6909 88.1707 37.0607 88.0556 37.4386C87.9406 37.8084 87.7639 38.1535 87.5256 38.474C87.2873 38.7863 86.9751 39.041 86.5889 39.2382C86.2027 39.4272 85.7384 39.5217 85.1961 39.5217ZM85.7138 38.2891C86.1986 38.2891 86.6176 38.2069 86.971 38.0426C87.3243 37.8783 87.5955 37.6482 87.7845 37.3524C87.9735 37.0566 88.068 36.7155 88.068 36.3293C88.068 35.9103 87.9694 35.5569 87.7721 35.2693C87.5831 34.9735 87.312 34.7516 86.9586 34.6037C86.6135 34.4476 86.1986 34.3695 85.7138 34.3695C85.0317 34.3695 84.5017 34.5503 84.1237 34.9119C83.7457 35.2652 83.5568 35.7377 83.5568 36.3293C83.5568 36.7238 83.6471 37.0689 83.8279 37.3647C84.0087 37.6523 84.2593 37.8783 84.5798 38.0426C84.9085 38.2069 85.2865 38.2891 85.7138 38.2891ZM88.068 33.2602H89.6703V39.3861H88.1789C88.1789 39.3861 88.1666 39.308 88.1419 39.1519C88.1255 38.9876 88.109 38.7821 88.0926 38.5356C88.0762 38.2891 88.068 38.0467 88.068 37.8084V33.2602ZM90.5658 33.2602H92.2668L94.9168 39.1396L93.5363 39.3861L90.5658 33.2602ZM98.0599 33.2602L93.8198 41.8512H92.1559L93.9677 38.474L96.3466 33.2602H98.0599ZM98.6721 36.6991H100.336C100.369 36.9785 100.496 37.2332 100.718 37.4633C100.948 37.6852 101.248 37.8618 101.618 37.9933C101.988 38.1166 102.403 38.1782 102.863 38.1782C103.282 38.1782 103.627 38.133 103.898 38.0426C104.169 37.9522 104.371 37.8249 104.502 37.6605C104.634 37.4962 104.699 37.299 104.699 37.0689C104.699 36.847 104.617 36.6786 104.453 36.5635C104.289 36.4403 104.03 36.3417 103.676 36.2677C103.323 36.1855 102.859 36.1034 102.284 36.0212C101.832 35.9555 101.404 35.8651 101.002 35.75C100.599 35.6268 100.242 35.4706 99.9293 35.2817C99.6253 35.0927 99.3829 34.8626 99.2021 34.5914C99.0296 34.312 98.9433 33.9833 98.9433 33.6054C98.9433 33.137 99.0747 32.7261 99.3377 32.3728C99.6089 32.0194 100.007 31.7442 100.533 31.547C101.059 31.3498 101.704 31.2511 102.468 31.2511C103.619 31.2511 104.502 31.4977 105.118 31.9907C105.743 32.4755 106.047 33.1452 106.031 33.9998H104.428C104.395 33.515 104.19 33.1657 103.812 32.9521C103.442 32.7384 102.974 32.6316 102.407 32.6316C101.881 32.6316 101.445 32.7097 101.1 32.8658C100.763 33.0219 100.595 33.289 100.595 33.667C100.595 33.8149 100.636 33.9464 100.718 34.0614C100.8 34.1682 100.94 34.2627 101.137 34.3449C101.334 34.4271 101.602 34.5051 101.938 34.5791C102.275 34.653 102.694 34.727 103.196 34.8009C103.664 34.8667 104.087 34.9571 104.465 35.0721C104.851 35.1789 105.18 35.3227 105.451 35.5035C105.731 35.6761 105.944 35.8979 106.092 36.1691C106.24 36.4403 106.314 36.7731 106.314 37.1675C106.314 37.6523 106.187 38.0755 105.932 38.437C105.685 38.7904 105.299 39.0656 104.773 39.2629C104.256 39.4601 103.582 39.5587 102.752 39.5587C102.16 39.5587 101.638 39.497 101.187 39.3738C100.735 39.2423 100.344 39.0697 100.016 38.8561C99.6869 38.6425 99.4199 38.4083 99.2144 38.1535C99.009 37.8988 98.8611 37.6441 98.7707 37.3893C98.6885 37.1346 98.6557 36.9045 98.6721 36.6991ZM107.119 33.2602H111.877V34.5051H107.119V33.2602ZM108.697 31.5839H110.299V39.3861H108.697V31.5839ZM116.422 39.534C115.65 39.534 114.968 39.4108 114.376 39.1642C113.793 38.9177 113.337 38.5603 113.008 38.0919C112.679 37.6153 112.515 37.0319 112.515 36.3417C112.515 35.6514 112.679 35.068 113.008 34.5914C113.337 34.1066 113.793 33.7409 114.376 33.4944C114.968 33.2479 115.65 33.1247 116.422 33.1247C117.195 33.1247 117.868 33.2479 118.444 33.4944C119.027 33.7409 119.483 34.1066 119.812 34.5914C120.141 35.068 120.305 35.6514 120.305 36.3417C120.305 37.0319 120.141 37.6153 119.812 38.0919C119.483 38.5603 119.027 38.9177 118.444 39.1642C117.868 39.4108 117.195 39.534 116.422 39.534ZM116.422 38.3014C116.85 38.3014 117.232 38.2275 117.569 38.0796C117.914 37.9235 118.185 37.7016 118.382 37.414C118.579 37.1182 118.678 36.7607 118.678 36.3417C118.678 35.9226 118.579 35.5651 118.382 35.2693C118.185 34.9653 117.918 34.7352 117.581 34.5791C117.244 34.423 116.858 34.3449 116.422 34.3449C115.995 34.3449 115.609 34.423 115.264 34.5791C114.919 34.7352 114.643 34.9612 114.438 35.257C114.241 35.5528 114.142 35.9144 114.142 36.3417C114.142 36.7607 114.241 37.1182 114.438 37.414C114.635 37.7016 114.906 37.9235 115.251 38.0796C115.596 38.2275 115.987 38.3014 116.422 38.3014ZM121.489 33.2602H123.092V39.3861H121.489V33.2602ZM125.446 34.5791C124.986 34.5791 124.587 34.6695 124.25 34.8503C123.913 35.0228 123.642 35.2365 123.437 35.4912C123.231 35.7459 123.088 35.9924 123.005 36.2307L122.993 35.5528C123.001 35.4542 123.034 35.3104 123.092 35.1214C123.149 34.9242 123.236 34.7147 123.351 34.4928C123.466 34.2627 123.618 34.045 123.807 33.8395C123.996 33.6259 124.226 33.4533 124.497 33.3219C124.768 33.1904 125.084 33.1247 125.446 33.1247V34.5791ZM132.02 37.3524H133.573C133.507 37.7714 133.331 38.1453 133.043 38.474C132.764 38.8027 132.382 39.0615 131.897 39.2505C131.412 39.4395 130.82 39.534 130.122 39.534C129.341 39.534 128.651 39.4108 128.051 39.1642C127.451 38.9095 126.983 38.5439 126.646 38.0673C126.309 37.5907 126.141 37.0155 126.141 36.3417C126.141 35.6679 126.305 35.0927 126.634 34.6161C126.962 34.1313 127.418 33.7615 128.002 33.5067C128.594 33.252 129.284 33.1247 130.073 33.1247C130.878 33.1247 131.548 33.252 132.082 33.5067C132.616 33.7615 133.01 34.1477 133.265 34.6654C133.528 35.1748 133.639 35.8281 133.598 36.6252H127.755C127.796 36.9374 127.911 37.2209 128.1 37.4756C128.298 37.7304 128.561 37.9317 128.889 38.0796C129.226 38.2275 129.625 38.3014 130.085 38.3014C130.594 38.3014 131.018 38.2152 131.354 38.0426C131.7 37.8618 131.921 37.6318 132.02 37.3524ZM129.999 34.3449C129.407 34.3449 128.926 34.4764 128.557 34.7393C128.187 34.9941 127.948 35.3104 127.842 35.6884H132.008C131.967 35.2775 131.769 34.953 131.416 34.7147C131.071 34.4682 130.598 34.3449 129.999 34.3449Z" fill="black"/>
</svg>
