<svg width="50" height="50" viewBox="0 0 50 50" fill="none" xmlns="http://www.w3.org/2000/svg">
<circle cx="25" cy="25" r="25" fill="#FDEDF2"/>
<path d="M17.144 29V19.523H18.561V29H17.144ZM20.8637 29V19.523H25.2577C27.1037 19.523 28.1047 20.498 28.1047 21.954C28.1047 22.942 27.5977 23.8 26.5837 24.06V24.125C27.7407 24.359 28.3517 25.256 28.3517 26.335C28.3517 28.038 27.1297 29 25.0887 29H20.8637ZM22.2547 23.605H25.0367C26.1417 23.605 26.6877 23.02 26.6877 22.149C26.6877 21.174 25.9857 20.641 24.9197 20.641H22.2547V23.605ZM22.2547 27.882H24.9587C26.2847 27.882 26.9087 27.219 26.9087 26.257C26.9087 25.243 26.2327 24.684 25.1017 24.684H22.2547V27.882Z" fill="#E8356D"/>
</svg>
