<svg width="372" height="494" viewBox="0 0 372 494" fill="none" xmlns="http://www.w3.org/2000/svg">
<g clip-path="url(#clip0_7003_65719)">
<rect x="-0.423828" y="-0.392578" width="372.657" height="494.765" rx="11.8713" fill="#2D79FD"/>
<g filter="url(#filter0_d_7003_65719)">
<path d="M274.463 56.1935V47.2901H297.849V106.646H288.352V56.1935H274.463Z" fill="white" fill-opacity="0.3" shape-rendering="crispEdges"/>
</g>
<path d="M269.306 344.369H107.862V467.945C107.862 475.022 113.599 480.754 120.676 480.754H256.484C263.565 480.754 269.306 475.022 269.306 467.945V344.369Z" fill="#4B8AF5"/>
<path d="M107.866 370.564V401.007L187.623 480.755H256.488C263.565 480.755 269.31 475.023 269.31 467.946V370.564H107.866Z" fill="url(#paint0_linear_7003_65719)"/>
<path d="M188.528 308.553H149.411L140.68 371.567H188.528V308.553Z" fill="#495BB8"/>
<path d="M149.403 308.553H124.75C116.202 308.553 108.701 314.259 106.414 322.497L92.8232 371.567H140.671L149.403 308.553Z" fill="#80ACF7"/>
<path d="M188.631 308.553H227.748L236.479 371.567H188.631V308.553Z" fill="#80ACF7"/>
<rect x="135.262" y="376.777" width="106.639" height="57.1514" rx="8.73142" fill="white"/>
<path d="M227.75 308.553H252.403C260.951 308.553 268.456 314.259 270.739 322.497L284.338 371.567H236.481L227.75 308.553Z" fill="#495BB8"/>
<path d="M284.338 371.123V371.603C284.338 383.731 273.625 393.563 260.414 393.563C247.195 393.563 236.481 383.731 236.481 371.603V371.123H284.338Z" fill="#4756AC"/>
<path d="M236.479 371.123V371.603C236.479 383.731 225.774 393.563 212.559 393.563C199.344 393.563 188.631 383.731 188.631 371.603V371.123H236.479Z" fill="#78A0E3"/>
<path d="M140.676 371.123V371.603C140.676 383.731 151.389 393.563 164.604 393.563C177.819 393.563 188.524 383.731 188.524 371.603V371.123H140.676Z" fill="#4756AC"/>
<path d="M92.8213 371.123V371.603C92.8213 383.731 103.535 393.563 116.75 393.563C129.965 393.563 140.669 383.731 140.669 371.603V371.123H92.8213Z" fill="#78A0E3"/>
</g>
<defs>
<filter id="filter0_d_7003_65719" x="250.72" y="33.0455" width="70.8719" height="106.841" filterUnits="userSpaceOnUse" color-interpolation-filters="sRGB">
<feFlood flood-opacity="0" result="BackgroundImageFix"/>
<feColorMatrix in="SourceAlpha" type="matrix" values="0 0 0 0 0 0 0 0 0 0 0 0 0 0 0 0 0 0 127 0" result="hardAlpha"/>
<feOffset dy="9.49703"/>
<feGaussianBlur stdDeviation="11.8713"/>
<feComposite in2="hardAlpha" operator="out"/>
<feColorMatrix type="matrix" values="0 0 0 0 0 0 0 0 0 0 0 0 0 0 0 0 0 0 0.12 0"/>
<feBlend mode="normal" in2="BackgroundImageFix" result="effect1_dropShadow_7003_65719"/>
<feBlend mode="normal" in="SourceGraphic" in2="effect1_dropShadow_7003_65719" result="shape"/>
</filter>
<linearGradient id="paint0_linear_7003_65719" x1="206.051" y1="458.839" x2="186.842" y2="409.07" gradientUnits="userSpaceOnUse">
<stop stop-color="#4C8BF5"/>
<stop offset="0.5" stop-color="#4A84EB"/>
<stop offset="1" stop-color="#487CE1"/>
</linearGradient>
<clipPath id="clip0_7003_65719">
<rect width="372" height="494" fill="white"/>
</clipPath>
</defs>
</svg>
