<svg width="379" height="72" viewBox="0 0 379 72" fill="none" xmlns="http://www.w3.org/2000/svg">
<path d="M12.2 49V38.4H41.8C45.3333 38.4 48.1333 37.4667 50.2 35.6C52.2667 33.6667 53.3 31 53.3 27.6C53.3 24.0667 52.2667 21.3667 50.2 19.5C48.1333 17.6333 45.3333 16.7 41.8 16.7H13.8V70H0.5V5.3H40.6C44.2 5.3 47.5667 5.73333 50.7 6.6C53.9 7.46666 56.6667 8.8 59 10.6C61.4 12.4 63.2667 14.7 64.6 17.5C65.9333 20.3 66.6 23.6667 66.6 27.6C66.6 31.4667 65.9333 34.7667 64.6 37.5C63.2667 40.2333 61.4 42.4667 59 44.2C56.6667 45.8667 53.9 47.1 50.7 47.9C47.5667 48.6333 44.2 49 40.6 49H12.2ZM105.058 71.2C98.7911 71.2 93.2578 70.2 88.4578 68.2C83.7245 66.2 80.0245 63.3 77.3578 59.5C74.6911 55.6333 73.3578 50.9 73.3578 45.3C73.3578 39.7 74.6911 34.9667 77.3578 31.1C80.0245 27.1667 83.7245 24.2 88.4578 22.2C93.2578 20.2 98.7911 19.2 105.058 19.2C111.324 19.2 116.791 20.2 121.458 22.2C126.191 24.2 129.891 27.1667 132.558 31.1C135.224 34.9667 136.558 39.7 136.558 45.3C136.558 50.9 135.224 55.6333 132.558 59.5C129.891 63.3 126.191 66.2 121.458 68.2C116.791 70.2 111.324 71.2 105.058 71.2ZM105.058 61.2C108.524 61.2 111.624 60.6 114.358 59.4C117.158 58.1333 119.358 56.3333 120.958 54C122.558 51.6 123.358 48.7 123.358 45.3C123.358 41.9 122.558 39 120.958 36.6C119.358 34.1333 117.191 32.2667 114.458 31C111.724 29.7333 108.591 29.1 105.058 29.1C101.591 29.1 98.4578 29.7333 95.6578 31C92.8578 32.2667 90.6245 34.1 88.9578 36.5C87.3578 38.9 86.5578 41.8333 86.5578 45.3C86.5578 48.7 87.3578 51.6 88.9578 54C90.5578 56.3333 92.7578 58.1333 95.5578 59.4C98.3578 60.6 101.524 61.2 105.058 61.2ZM205.168 50.4C204.835 54.7333 203.435 58.4667 200.968 61.6C198.568 64.7333 195.235 67.1333 190.968 68.8C186.701 70.4 181.635 71.2 175.768 71.2C169.635 71.2 164.135 70.2333 159.268 68.3C154.468 66.3 150.668 63.4 147.868 59.6C145.135 55.7333 143.768 50.9667 143.768 45.3C143.768 39.6333 145.135 34.8667 147.868 31C150.668 27.1333 154.468 24.2 159.268 22.2C164.135 20.2 169.635 19.2 175.768 19.2C181.635 19.2 186.668 20.0333 190.868 21.7C195.068 23.3 198.368 25.6333 200.768 28.7C203.235 31.7667 204.668 35.4667 205.068 39.8H193.168C192.035 36.4667 189.935 33.8667 186.868 32C183.801 30.1333 180.101 29.2 175.768 29.2C172.301 29.2 169.135 29.8 166.268 31C163.468 32.2 161.201 34 159.468 36.4C157.801 38.7333 156.968 41.7 156.968 45.3C156.968 48.8333 157.801 51.8 159.468 54.2C161.135 56.5333 163.401 58.3 166.268 59.5C169.135 60.6333 172.301 61.2 175.768 61.2C180.435 61.2 184.235 60.2667 187.168 58.4C190.168 56.5333 192.201 53.8667 193.268 50.4H205.168ZM215.623 0.299997H228.623V70H215.623V0.299997ZM270.523 20.3L240.923 46.4L241.223 38.4L272.823 70H256.323L228.923 42.1L252.823 20.3H270.523ZM322.034 53.5H334.634C334.101 56.9 332.668 59.9333 330.334 62.6C328.068 65.2667 324.968 67.3667 321.034 68.9C317.101 70.4333 312.301 71.2 306.634 71.2C300.301 71.2 294.701 70.2 289.834 68.2C284.968 66.1333 281.168 63.1667 278.434 59.3C275.701 55.4333 274.334 50.7667 274.334 45.3C274.334 39.8333 275.668 35.1667 278.334 31.3C281.001 27.3667 284.701 24.3667 289.434 22.3C294.234 20.2333 299.834 19.2 306.234 19.2C312.768 19.2 318.201 20.2333 322.534 22.3C326.868 24.3667 330.068 27.5 332.134 31.7C334.268 35.8333 335.168 41.1333 334.834 47.6H287.434C287.768 50.1333 288.701 52.4333 290.234 54.5C291.834 56.5667 293.968 58.2 296.634 59.4C299.368 60.6 302.601 61.2 306.334 61.2C310.468 61.2 313.901 60.5 316.634 59.1C319.434 57.6333 321.234 55.7667 322.034 53.5ZM305.634 29.1C300.834 29.1 296.934 30.1667 293.934 32.3C290.934 34.3667 289.001 36.9333 288.134 40H321.934C321.601 36.6667 320.001 34.0333 317.134 32.1C314.334 30.1 310.501 29.1 305.634 29.1ZM340.324 20.3H378.924V30.4H340.324V20.3ZM353.124 6.7H366.124V70H353.124V6.7Z" fill="#0A290A"/>
</svg>
