<svg width="598" height="370" viewBox="0 0 598 370" fill="none" xmlns="http://www.w3.org/2000/svg">
<g clip-path="url(#clip0_11268_58722)">
<g filter="url(#filter0_d_11268_58722)">
<rect x="25" y="166.598" width="467.164" height="105.129" fill="black"/>
<rect x="25" y="166.598" width="467.164" height="105.129" stroke="#FFBD00" stroke-width="4"/>
</g>
<g filter="url(#filter1_d_11268_58722)">
<circle cx="49.125" cy="283.824" r="26.1562" fill="black"/>
<circle cx="49.125" cy="283.824" r="26.1562" stroke="#FFBD00" stroke-width="5"/>
</g>
<path d="M22.9688 351.994C152.458 344.018 431.923 330.459 513.871 340.03" stroke="#FFBD00" stroke-width="23.2094" stroke-linecap="round"/>
<path d="M81.8781 12.9974C106.939 12.9974 112.743 16.48 112.743 30.3418C112.743 30.3418 98.5396 30.3418 95.8082 30.3418C95.8082 27.8836 94.8522 26.4496 82.2878 26.4496C70.1331 26.4496 69.1088 26.9958 69.1088 28.7713C69.2454 30.0687 70.1331 30.137 82.1512 31.0929C108.714 33.2781 114.45 33.6195 114.45 45.9791C114.45 58.2703 109.807 60.7969 82.3561 60.7969C57.0907 60.7969 53.1984 58.3386 53.1984 44.3402C53.1984 44.3402 67.6065 44.3402 69.6551 44.3402C69.6551 47.2082 70.8159 47.891 83.0389 47.891C94.5791 47.891 95.8765 47.9593 95.8765 45.7742C95.8765 44.2719 94.4425 44.5451 81.8781 43.5208C62.4169 41.9502 52.5156 40.9943 52.5156 28.6347C52.5156 14.4314 60.778 12.9974 81.8781 12.9974ZM171.53 29.0444C173.715 34.3706 173.92 42.9062 173.92 57.7241V60.7969H158.078C158.078 60.7969 158.078 53.627 158.078 47.8227C158.078 41.9502 158.42 33.1415 148.313 33.1415C141.69 33.1415 136.773 34.8486 134.11 37.3752V60.7969H118.2V12.9974H134.11V26.9276C138.139 23.7865 144.08 20.9868 152.615 20.9868C159.512 20.9868 168.526 21.6013 171.53 29.0444ZM205.83 21.0551C221.399 21.0551 235.671 24.2645 235.671 41.1308C235.671 56.4949 224.267 61.2066 206.24 61.2066C187.803 61.2066 177.355 56.3584 177.355 41.1308C177.355 24.7424 190.466 21.0551 205.83 21.0551ZM206.376 50.0079C213.956 50.0079 218.736 47.9593 218.736 41.1308C218.736 33.6878 211.225 32.2538 206.24 32.2538C201.255 32.2538 194.222 34.0975 194.222 40.7894C194.222 47.0716 198.046 50.0079 206.376 50.0079ZM304.211 21.2599H320.531L303.186 60.7969H287.822L276.214 39.3554L264.605 60.7969H249.241L231.897 21.2599H248.558L257.708 44.4085L270.068 21.2599H282.086L294.309 43.8622L304.211 21.2599ZM378.105 59.5677L356.663 21.7379H375.169L387.323 43.8622L398.727 21.7379H417.574L389.099 74.3173H370.252L378.105 59.5677ZM441.693 21.0551C457.262 21.0551 471.534 24.2645 471.534 41.1308C471.534 56.4949 460.13 61.2066 442.103 61.2066C423.666 61.2066 413.218 56.3584 413.218 41.1308C413.218 24.7424 426.329 21.0551 441.693 21.0551ZM442.239 50.0079C449.819 50.0079 454.599 47.9593 454.599 41.1308C454.599 33.6878 447.088 32.2538 442.103 32.2538C437.118 32.2538 430.085 34.0975 430.085 40.7894C430.085 47.0716 433.909 50.0079 442.239 50.0079ZM516.639 21.2599H532.277V60.7969H516.571V54.7878C513.157 58.202 508.24 60.7969 499.227 60.7969C487.55 60.7969 480.448 58.8166 476.966 51.3736C474.439 45.9791 473.961 39.1506 473.961 24.3327V21.2599H489.735C489.735 21.2599 489.735 28.4298 489.735 34.3023C489.735 40.1748 489.599 47.6179 501.344 47.6179C509.06 47.6179 513.772 43.9988 516.639 41.4722V21.2599ZM568.685 21.2599C579.61 21.2599 584.937 25.5619 584.937 25.5619L578.996 37.6483C578.996 37.6483 573.123 34.7803 566.773 34.3706C557.896 33.8243 554.14 37.9214 551.955 40.0383V60.7969H536.045V21.2599H537.137H551.887H551.955V26.7227C554.277 23.8547 559.193 21.2599 568.685 21.2599ZM82.4926 114.742C77.303 114.742 74.6399 114.606 74.6399 119.932H93.7596V130.994H74.2302V150.797H58.3881V130.994H52.5156V119.932H58.6612C58.6612 106.821 63.7826 102.861 74.8447 102.861C87.8189 102.861 93.7596 104.295 93.7596 104.295V116.313C93.7596 116.313 89.7308 114.742 82.4926 114.742ZM97.7324 111.26H113.643V150.797H97.7324V111.26ZM97.7324 100.471H113.643V108.187H97.7324V100.471ZM170.231 119.386C172.553 124.712 172.553 132.906 172.553 147.724V150.797H156.711C156.711 150.797 156.711 143.627 156.711 137.754C156.711 131.95 157.052 123.141 146.195 123.141C139.776 123.141 136.84 125.327 134.313 127.99V150.797H118.266V111.26H134.313V116.723C138.684 113.65 142.439 110.918 151.453 110.918C158.896 110.918 166.954 111.874 170.231 119.386ZM232.48 150.865H216.775C216.775 149.636 216.775 148.407 216.775 147.246C213.019 149.499 207.01 151.548 199.977 151.548C189.461 151.548 174.78 151.138 174.78 138.642C174.78 129.902 187.071 126.761 199.704 126.761C206.532 126.761 211.38 127.921 215.068 129.287C213.088 123.483 208.854 122.663 200.182 122.663C187.208 122.663 179.969 125.395 179.901 125.463L176.282 114.674C176.623 114.538 186.593 110.304 201.138 110.304C208.922 110.304 225.174 111.396 229.476 121.093C232.276 127.648 232.48 138.096 232.48 150.865ZM201.82 141.578C208.99 141.578 214.999 139.598 215.682 138.506C215.682 138.164 215.682 138.096 215.682 137.823C215.273 137.413 214.112 135.979 202.572 135.979C194.855 135.979 191.987 136.867 191.987 138.642C191.987 141.169 197.109 141.578 201.82 141.578ZM287.263 119.386C289.584 124.712 289.584 132.906 289.584 147.724V150.797H273.742C273.742 150.797 273.742 143.627 273.742 137.754C273.742 131.95 274.084 123.141 263.226 123.141C256.807 123.141 253.871 125.327 251.345 127.99V150.797H235.298V111.26H251.345V116.723C255.715 113.65 259.471 110.918 268.484 110.918C275.927 110.918 283.985 111.874 287.263 119.386ZM320.167 111.055C342.154 111.055 349.734 118.976 349.734 126.078L333.824 128.468C333.824 128.468 332.663 123.278 321.191 123.278C309.924 123.278 308.695 127.717 308.695 131.063C308.695 134.408 309.787 139.052 321.191 139.052C333.073 139.052 333.96 134.067 333.96 134.067L349.734 136.252C349.734 143.695 342.974 151.207 320.508 151.207C298.862 151.207 292.58 142.534 292.58 131.131C292.58 118.976 300.432 111.055 320.167 111.055ZM353.667 111.26H369.578V150.797H353.667V111.26ZM353.667 100.471H369.578V108.187H353.667V100.471ZM430.467 150.865H414.761C414.761 149.636 414.761 148.407 414.761 147.246C411.005 149.499 404.996 151.548 397.963 151.548C387.447 151.548 372.766 151.138 372.766 138.642C372.766 129.902 385.057 126.761 397.69 126.761C404.518 126.761 409.367 127.921 413.054 129.287C411.074 123.483 406.84 122.663 398.168 122.663C385.194 122.663 377.956 125.395 377.887 125.463L374.268 114.674C374.61 114.538 384.579 110.304 399.124 110.304C406.908 110.304 423.16 111.396 427.462 121.093C430.262 127.648 430.467 138.096 430.467 150.865ZM399.807 141.578C406.977 141.578 412.986 139.598 413.669 138.506C413.669 138.164 413.669 138.096 413.669 137.823C413.259 137.413 412.098 135.979 400.558 135.979C392.842 135.979 389.974 136.867 389.974 138.642C389.974 141.169 395.095 141.578 399.807 141.578ZM434.156 146.563V103.407V102.997H450.066V150.797H434.156V146.563Z" fill="black"/>
<path d="M52.5156 254.044V201.465H68.4259V206.654C71.8402 204.196 77.4396 201.465 86.4532 201.465C98.2664 201.465 111.787 203.582 111.787 221.745C111.787 234.856 99.9053 240.865 86.7946 240.865C78.1907 240.865 70.6111 238.065 68.4259 235.812V254.044H52.5156ZM84.1315 229.188C84.1315 229.188 94.7839 229.462 94.7839 221.267C94.7839 214.371 89.6626 213.21 81.5366 213.21C75.1179 213.21 69.9965 215.531 68.4259 217.921V224.34C72.3865 229.53 84.1315 229.188 84.1315 229.188ZM147.572 201.26C158.498 201.26 163.824 205.562 163.824 205.562L157.883 217.648C157.883 217.648 152.011 214.78 145.66 214.371C136.783 213.824 133.028 217.921 130.843 220.038V240.797H114.932V201.26H116.025H130.774H130.843V206.723C133.164 203.855 138.081 201.26 147.572 201.26ZM190.159 201.055C205.728 201.055 220 204.264 220 221.131C220 236.495 208.596 241.207 190.569 241.207C172.132 241.207 161.684 236.358 161.684 221.131C161.684 204.742 174.795 201.055 190.159 201.055ZM190.706 230.008C198.285 230.008 203.065 227.959 203.065 221.131C203.065 213.688 195.554 212.254 190.569 212.254C185.584 212.254 178.551 214.097 178.551 220.789C178.551 227.072 182.375 230.008 190.706 230.008ZM288.54 201.26H304.86L287.515 240.797H272.151L260.543 219.355L248.934 240.797H233.57L216.226 201.26H232.887L242.038 224.408L254.397 201.26H266.415L278.638 223.862L288.54 201.26ZM329.865 200.304C347.824 200.304 359.227 206.313 357.93 224.818C349.736 224.818 353.56 224.818 317.369 224.818C317.778 227.003 321.124 228.984 329.728 228.984C341.473 228.984 350.692 226.252 350.692 226.252L357.52 237.314C357.52 237.314 351.306 240.797 330.275 240.797C306.511 240.797 301.049 232.671 301.049 220.585C301.049 208.088 310.335 200.304 329.865 200.304ZM329.933 212.595C319.417 212.595 317.369 215.873 317.369 217.853H341.815C341.815 215.19 339.288 212.595 329.933 212.595ZM385.89 216.214C408.288 216.214 413.819 218.331 413.819 228.779C413.819 239.158 409.79 242.299 386.027 242.299C374.828 242.299 364.586 241.753 361.581 238.885L365.951 227.55C368.273 229.12 378.925 230.076 386.642 230.076C395.655 230.076 398.933 230.281 398.933 228.984C398.933 227.686 395.723 226.73 385.617 226.73C368.751 226.73 360.215 224.545 360.215 214.097C360.215 202.148 368.751 200.918 386.983 200.918C404.396 200.918 408.561 202.489 413 204.879L408.083 215.736C403.781 214.097 394.085 212.868 385.959 212.868C377.833 212.868 375.443 212.732 375.443 214.234C375.511 215.327 377.491 216.214 385.89 216.214ZM440.505 216.214C462.902 216.214 468.434 218.331 468.434 228.779C468.434 239.158 464.405 242.299 440.642 242.299C429.443 242.299 419.2 241.753 416.196 238.885L420.566 227.55C422.888 229.12 433.54 230.076 441.256 230.076C450.27 230.076 453.547 230.281 453.547 228.984C453.547 227.686 450.338 226.73 440.232 226.73C423.366 226.73 414.83 224.545 414.83 214.097C414.83 202.148 423.366 200.918 441.598 200.918C459.01 200.918 463.176 202.489 467.614 204.879L462.698 215.736C458.396 214.097 448.699 212.868 440.573 212.868C432.447 212.868 430.057 212.732 430.057 214.234C430.126 215.327 432.106 216.214 440.505 216.214Z" fill="#FFBD00"/>
<path d="M54.7074 316.88C77.1049 316.88 82.636 318.997 82.636 329.445C82.636 339.824 78.6072 342.965 54.844 342.965C43.6453 342.965 33.4026 342.419 30.398 339.551L34.7683 328.216C37.0899 329.786 47.7424 330.742 55.4586 330.742C64.4722 330.742 67.7499 330.947 67.7499 329.65C67.7499 328.352 64.5405 327.396 54.4343 327.396C37.5679 327.396 29.0323 325.211 29.0323 314.763C29.0323 302.814 37.5679 301.585 55.8 301.585C73.2127 301.585 77.378 303.155 81.8166 305.545L76.9 316.402C72.5981 314.763 62.9016 313.534 54.7757 313.534C46.6498 313.534 44.2599 313.398 44.2599 314.9C44.3281 315.993 46.3084 316.88 54.7074 316.88ZM112.655 328.557C118.733 328.557 125.629 326.167 125.629 326.167L131.229 338.458C131.229 338.458 122.01 341.668 106.168 341.668C93.672 341.668 91.282 339.209 91.282 321.524V313.603H83.4292V301.789H91.282V293.527H107.192V301.789H126.449V313.603H107.192V321.524C107.192 321.524 106.714 328.557 112.655 328.557ZM188.974 341.531H173.269C173.269 340.302 173.269 339.073 173.269 337.912C169.513 340.165 163.504 342.214 156.471 342.214C145.955 342.214 131.273 341.804 131.273 329.308C131.273 320.568 143.565 317.427 156.197 317.427C163.026 317.427 167.874 318.587 171.562 319.953C169.581 314.149 165.348 313.33 156.675 313.33C143.701 313.33 136.463 316.061 136.395 316.129L132.776 305.34C133.117 305.204 143.087 300.97 157.631 300.97C165.416 300.97 181.668 302.063 185.97 311.759C188.769 318.314 188.974 328.762 188.974 341.531ZM158.314 332.244C165.484 332.244 171.493 330.264 172.176 329.172C172.176 328.83 172.176 328.762 172.176 328.489C171.766 328.079 170.606 326.645 159.065 326.645C151.349 326.645 148.481 327.533 148.481 329.308C148.481 331.835 153.603 332.244 158.314 332.244ZM243.756 310.052C246.078 315.378 246.078 323.572 246.078 338.39V341.463H230.236C230.236 341.463 230.236 334.293 230.236 328.42C230.236 322.616 230.577 313.808 219.72 313.808C213.301 313.808 210.365 315.993 207.838 318.656V341.463H191.792V301.926H207.838V307.389C212.209 304.316 215.964 301.585 224.978 301.585C232.421 301.585 240.479 302.54 243.756 310.052ZM292.714 293.732H308.624V341.531H292.714V337.229C289.231 339.756 283.632 341.804 274.345 341.804C262.464 341.804 248.807 339.687 248.807 321.387C248.807 308.072 260.825 302.063 274.072 302.063C282.881 302.063 289.231 304.452 292.714 306.228V293.732ZM292.714 324.938V319.475C290.597 313.603 279.603 313.603 276.599 313.603C273.594 313.603 265.741 313.33 265.741 321.797C265.741 328.967 272.365 329.991 277.555 329.991C285.749 329.991 289.983 329.24 292.714 324.938ZM373.514 301.721C389.083 301.721 403.354 304.93 403.354 321.797C403.354 337.161 391.951 341.873 373.923 341.873C355.486 341.873 345.039 337.024 345.039 321.797C345.039 305.408 358.15 301.721 373.514 301.721ZM374.06 330.674C381.64 330.674 386.419 328.625 386.419 321.797C386.419 314.354 378.908 312.92 373.923 312.92C368.939 312.92 361.905 314.763 361.905 321.455C361.905 327.738 365.729 330.674 374.06 330.674ZM448.46 301.926H464.097V341.463H448.392V335.454C444.978 338.868 440.061 341.463 431.047 341.463C419.371 341.463 412.269 339.483 408.787 332.04C406.26 326.645 405.782 319.817 405.782 304.999V301.926H421.556C421.556 301.926 421.556 309.096 421.556 314.968C421.556 320.841 421.419 328.284 433.164 328.284C440.88 328.284 445.592 324.665 448.46 322.138V301.926ZM497.091 328.557C503.169 328.557 510.065 326.167 510.065 326.167L515.665 338.458C515.665 338.458 506.446 341.668 490.604 341.668C478.108 341.668 475.718 339.209 475.718 321.524V313.603H467.865V301.789H475.718V293.527H491.628V301.789H510.885V313.603H491.628V321.524C491.628 321.524 491.15 328.557 497.091 328.557Z" fill="black"/>
<path d="M68.5094 283.567C68.5094 283.567 66.7671 286.944 62.5358 290.038L68.5094 294.98H58.6245L56.4555 293.274C53.682 294.305 50.304 294.98 46.3571 294.98C31.8497 294.98 27.3694 284.882 40.1346 280.58C34.9076 277.735 33.1653 270.09 47.7439 270.09C54.002 270.09 56.9888 271.939 57.0599 275.21C57.0599 277.948 54.642 279.691 51.7263 281.077L57.5577 285.913C58.3044 285.238 58.98 284.455 59.4778 283.567C66.1626 283.567 68.5094 283.567 68.5094 283.567ZM49.2017 275.388C49.2017 274.108 44.3303 273.966 44.3303 275.602C44.3303 276.562 46.6416 277.735 46.6416 277.735C46.6416 277.735 49.2017 276.668 49.2017 275.388ZM41.7346 287.087C41.7346 289.113 46.3571 289.967 51.0152 288.971L44.757 284.064C42.9792 284.918 41.7346 285.842 41.7346 287.087Z" fill="#FFBD00"/>
</g>
<defs>
<filter id="filter0_d_11268_58722" x="15" y="160.598" width="487.164" height="125.129" filterUnits="userSpaceOnUse" color-interpolation-filters="sRGB">
<feFlood flood-opacity="0" result="BackgroundImageFix"/>
<feColorMatrix in="SourceAlpha" type="matrix" values="0 0 0 0 0 0 0 0 0 0 0 0 0 0 0 0 0 0 127 0" result="hardAlpha"/>
<feOffset dy="4"/>
<feGaussianBlur stdDeviation="4"/>
<feComposite in2="hardAlpha" operator="out"/>
<feColorMatrix type="matrix" values="0 0 0 0 0 0 0 0 0 0 0 0 0 0 0 0 0 0 0.25 0"/>
<feBlend mode="normal" in2="BackgroundImageFix" result="effect1_dropShadow_11268_58722"/>
<feBlend mode="normal" in="SourceGraphic" in2="effect1_dropShadow_11268_58722" result="shape"/>
</filter>
<filter id="filter1_d_11268_58722" x="12.4688" y="251.168" width="73.3125" height="73.3125" filterUnits="userSpaceOnUse" color-interpolation-filters="sRGB">
<feFlood flood-opacity="0" result="BackgroundImageFix"/>
<feColorMatrix in="SourceAlpha" type="matrix" values="0 0 0 0 0 0 0 0 0 0 0 0 0 0 0 0 0 0 127 0" result="hardAlpha"/>
<feOffset dy="4"/>
<feGaussianBlur stdDeviation="4"/>
<feComposite in2="hardAlpha" operator="out"/>
<feColorMatrix type="matrix" values="0 0 0 0 0 0 0 0 0 0 0 0 0 0 0 0 0 0 0.25 0"/>
<feBlend mode="normal" in2="BackgroundImageFix" result="effect1_dropShadow_11268_58722"/>
<feBlend mode="normal" in="SourceGraphic" in2="effect1_dropShadow_11268_58722" result="shape"/>
</filter>
<clipPath id="clip0_11268_58722">
<rect width="598" height="370" fill="white"/>
</clipPath>
</defs>
</svg>
