<svg width="235" height="61" viewBox="0 0 235 61" fill="none" xmlns="http://www.w3.org/2000/svg">
<path d="M24.0684 35.9629V22.8409H27.0744L30.7284 32.8849H30.8004L34.4544 22.8409H37.4424V35.9629H35.5344V29.8249L35.5884 24.9109H35.4624L31.5564 35.9629H29.9904L26.0844 24.9109H25.9584L25.9944 29.8429V35.9629H24.0684ZM43.579 36.1249C43.003 36.1249 42.475 36.0169 41.995 35.8009C41.527 35.5849 41.119 35.2729 40.771 34.8649C40.423 34.4449 40.153 33.9289 39.961 33.3169C39.781 32.7049 39.691 31.9969 39.691 31.1929C39.691 30.1369 39.853 29.2429 40.177 28.5109C40.513 27.7789 40.969 27.2269 41.545 26.8549C42.133 26.4709 42.811 26.2789 43.579 26.2789C44.107 26.2789 44.587 26.3629 45.019 26.5309C45.463 26.6989 45.835 26.9389 46.135 27.2509C46.447 27.5509 46.675 27.9049 46.819 28.3129H46.927L46.999 26.4409H48.781V35.9629H46.927V34.0729H46.819C46.591 34.6849 46.195 35.1829 45.631 35.5669C45.067 35.9389 44.383 36.1249 43.579 36.1249ZM44.227 34.5949C44.815 34.5949 45.307 34.4569 45.703 34.1809C46.099 33.9049 46.399 33.5509 46.603 33.1189C46.807 32.6869 46.909 32.2249 46.909 31.7329V30.6529C46.909 30.1609 46.807 29.6989 46.603 29.2669C46.399 28.8349 46.099 28.4809 45.703 28.2049C45.307 27.9289 44.815 27.7909 44.227 27.7909C43.699 27.7909 43.237 27.9229 42.841 28.1869C42.445 28.4389 42.139 28.8169 41.923 29.3209C41.707 29.8129 41.599 30.4369 41.599 31.1929C41.599 31.9369 41.707 32.5609 41.923 33.0649C42.139 33.5689 42.445 33.9529 42.841 34.2169C43.237 34.4689 43.699 34.5949 44.227 34.5949ZM51.378 35.9629V22.8409H53.25V30.9949L54.078 30.0949L57.624 26.4409H59.928L56.238 30.1489L60.072 35.9629H57.894L55.518 32.3629L54.942 31.4089L53.25 33.0469V35.9629H51.378ZM65.0236 36.1249C64.0756 36.1249 63.2536 35.9269 62.5576 35.5309C61.8736 35.1229 61.3456 34.5529 60.9736 33.8209C60.6016 33.0769 60.4156 32.2189 60.4156 31.2469C60.4156 30.2389 60.6016 29.3629 60.9736 28.6189C61.3456 27.8749 61.8676 27.3049 62.5396 26.9089C63.2236 26.5009 64.0276 26.2969 64.9516 26.2969C65.9956 26.2969 66.8536 26.5309 67.5256 26.9989C68.2096 27.4549 68.7016 28.0849 69.0016 28.8889C69.3016 29.6809 69.4036 30.5749 69.3076 31.5709H62.2516C62.2636 32.2189 62.3836 32.7769 62.6116 33.2449C62.8396 33.7009 63.1576 34.0489 63.5656 34.2889C63.9856 34.5289 64.4716 34.6489 65.0236 34.6489C65.6596 34.6489 66.1996 34.5049 66.6436 34.2169C67.0876 33.9169 67.3696 33.5209 67.4896 33.0289H69.2536C69.1696 33.6529 68.9356 34.1989 68.5516 34.6669C68.1676 35.1229 67.6696 35.4829 67.0576 35.7469C66.4576 35.9989 65.7796 36.1249 65.0236 36.1249ZM62.2696 30.5269L62.0896 30.2569H67.6696L67.4896 30.5629C67.5136 29.9029 67.4116 29.3689 67.1836 28.9609C66.9676 28.5409 66.6616 28.2349 66.2656 28.0429C65.8816 27.8509 65.4376 27.7549 64.9336 27.7549C64.4056 27.7549 63.9436 27.8689 63.5476 28.0969C63.1516 28.3129 62.8456 28.6309 62.6296 29.0509C62.4136 29.4709 62.2936 29.9629 62.2696 30.5269ZM75.337 35.9629V26.4409H77.191V35.9629H75.337ZM75.337 24.9829V22.8409H77.191V24.9829H75.337ZM82.4847 35.9629C81.9567 35.9629 81.5427 35.8909 81.2427 35.7469C80.9427 35.5909 80.7327 35.3629 80.6127 35.0629C80.4927 34.7629 80.4327 34.4029 80.4327 33.9829V27.9529H78.6327V26.4409H80.4327V23.6869L82.2867 23.4709V26.4409H84.3927V27.9529H82.2867V33.6409C82.2867 33.9649 82.3467 34.1809 82.4667 34.2889C82.5867 34.3849 82.7967 34.4329 83.0967 34.4329H84.3927V35.9629H82.4847ZM90.2608 35.9629V22.8409H92.0968V28.3309H92.2048C92.4808 27.6589 92.9128 27.1549 93.5008 26.8189C94.0888 26.4709 94.7308 26.2969 95.4268 26.2969C95.9188 26.2969 96.3688 26.3689 96.7768 26.5129C97.1968 26.6569 97.5568 26.8909 97.8568 27.2149C98.1688 27.5269 98.4088 27.9409 98.5768 28.4569C98.7448 28.9609 98.8288 29.5789 98.8288 30.3109V35.9629H96.9748V30.6889C96.9748 30.0409 96.8968 29.5069 96.7408 29.0869C96.5848 28.6549 96.3448 28.3369 96.0208 28.1329C95.6968 27.9289 95.2768 27.8269 94.7608 27.8269C94.2208 27.8269 93.7468 27.9589 93.3388 28.2229C92.9428 28.4869 92.6368 28.8409 92.4208 29.2849C92.2048 29.7169 92.0968 30.2089 92.0968 30.7609V35.9629H90.2608ZM104.575 36.1249C103.999 36.1249 103.471 36.0169 102.991 35.8009C102.523 35.5849 102.115 35.2729 101.767 34.8649C101.419 34.4449 101.149 33.9289 100.957 33.3169C100.777 32.7049 100.687 31.9969 100.687 31.1929C100.687 30.1369 100.849 29.2429 101.173 28.5109C101.509 27.7789 101.965 27.2269 102.541 26.8549C103.129 26.4709 103.807 26.2789 104.575 26.2789C105.103 26.2789 105.583 26.3629 106.015 26.5309C106.459 26.6989 106.831 26.9389 107.131 27.2509C107.443 27.5509 107.671 27.9049 107.815 28.3129H107.923L107.995 26.4409H109.777V35.9629H107.923V34.0729H107.815C107.587 34.6849 107.191 35.1829 106.627 35.5669C106.063 35.9389 105.379 36.1249 104.575 36.1249ZM105.223 34.5949C105.811 34.5949 106.303 34.4569 106.699 34.1809C107.095 33.9049 107.395 33.5509 107.599 33.1189C107.803 32.6869 107.905 32.2249 107.905 31.7329V30.6529C107.905 30.1609 107.803 29.6989 107.599 29.2669C107.395 28.8349 107.095 28.4809 106.699 28.2049C106.303 27.9289 105.811 27.7909 105.223 27.7909C104.695 27.7909 104.233 27.9229 103.837 28.1869C103.441 28.4389 103.135 28.8169 102.919 29.3209C102.703 29.8129 102.595 30.4369 102.595 31.1929C102.595 31.9369 102.703 32.5609 102.919 33.0649C103.135 33.5689 103.441 33.9529 103.837 34.2169C104.233 34.4689 104.695 34.5949 105.223 34.5949ZM112.374 38.9689V26.4409H114.156L114.228 28.3129H114.336C114.564 27.7009 114.96 27.2089 115.524 26.8369C116.1 26.4649 116.784 26.2789 117.576 26.2789C118.152 26.2789 118.674 26.3869 119.142 26.6029C119.622 26.8189 120.036 27.1369 120.384 27.5569C120.732 27.9769 120.996 28.4929 121.176 29.1049C121.368 29.7169 121.464 30.4189 121.464 31.2109C121.464 32.2669 121.302 33.1609 120.978 33.8929C120.654 34.6249 120.198 35.1829 119.61 35.5669C119.034 35.9389 118.356 36.1249 117.576 36.1249C117.06 36.1249 116.58 36.0409 116.136 35.8729C115.704 35.7049 115.332 35.4709 115.02 35.1709C114.72 34.8589 114.492 34.4989 114.336 34.0909H114.228V38.9689H112.374ZM116.928 34.5949C117.456 34.5949 117.918 34.4689 118.314 34.2169C118.71 33.9649 119.016 33.5869 119.232 33.0829C119.46 32.5789 119.574 31.9549 119.574 31.2109C119.574 30.4549 119.46 29.8309 119.232 29.3389C119.016 28.8349 118.71 28.4569 118.314 28.2049C117.918 27.9409 117.456 27.8089 116.928 27.8089C116.352 27.8089 115.86 27.9469 115.452 28.2229C115.056 28.4869 114.756 28.8409 114.552 29.2849C114.348 29.7169 114.246 30.1789 114.246 30.6709V31.7329C114.246 32.1049 114.3 32.4649 114.408 32.8129C114.528 33.1489 114.702 33.4549 114.93 33.7309C115.158 33.9949 115.44 34.2049 115.776 34.3609C116.112 34.5169 116.496 34.5949 116.928 34.5949ZM123.431 38.9689V26.4409H125.213L125.285 28.3129H125.393C125.621 27.7009 126.017 27.2089 126.581 26.8369C127.157 26.4649 127.841 26.2789 128.633 26.2789C129.209 26.2789 129.731 26.3869 130.199 26.6029C130.679 26.8189 131.093 27.1369 131.441 27.5569C131.789 27.9769 132.053 28.4929 132.233 29.1049C132.425 29.7169 132.521 30.4189 132.521 31.2109C132.521 32.2669 132.359 33.1609 132.035 33.8929C131.711 34.6249 131.255 35.1829 130.667 35.5669C130.091 35.9389 129.413 36.1249 128.633 36.1249C128.117 36.1249 127.637 36.0409 127.193 35.8729C126.761 35.7049 126.389 35.4709 126.077 35.1709C125.777 34.8589 125.549 34.4989 125.393 34.0909H125.285V38.9689H123.431ZM127.985 34.5949C128.513 34.5949 128.975 34.4689 129.371 34.2169C129.767 33.9649 130.073 33.5869 130.289 33.0829C130.517 32.5789 130.631 31.9549 130.631 31.2109C130.631 30.4549 130.517 29.8309 130.289 29.3389C130.073 28.8349 129.767 28.4569 129.371 28.2049C128.975 27.9409 128.513 27.8089 127.985 27.8089C127.409 27.8089 126.917 27.9469 126.509 28.2229C126.113 28.4869 125.813 28.8409 125.609 29.2849C125.405 29.7169 125.303 30.1789 125.303 30.6709V31.7329C125.303 32.1049 125.357 32.4649 125.465 32.8129C125.585 33.1489 125.759 33.4549 125.987 33.7309C126.215 33.9949 126.497 34.2049 126.833 34.3609C127.169 34.5169 127.553 34.5949 127.985 34.5949ZM138.623 36.1249C137.675 36.1249 136.853 35.9269 136.157 35.5309C135.473 35.1229 134.945 34.5529 134.573 33.8209C134.201 33.0769 134.015 32.2189 134.015 31.2469C134.015 30.2389 134.201 29.3629 134.573 28.6189C134.945 27.8749 135.467 27.3049 136.139 26.9089C136.823 26.5009 137.627 26.2969 138.551 26.2969C139.595 26.2969 140.453 26.5309 141.125 26.9989C141.809 27.4549 142.301 28.0849 142.601 28.8889C142.901 29.6809 143.003 30.5749 142.907 31.5709H135.851C135.863 32.2189 135.983 32.7769 136.211 33.2449C136.439 33.7009 136.757 34.0489 137.165 34.2889C137.585 34.5289 138.071 34.6489 138.623 34.6489C139.259 34.6489 139.799 34.5049 140.243 34.2169C140.687 33.9169 140.969 33.5209 141.089 33.0289H142.853C142.769 33.6529 142.535 34.1989 142.151 34.6669C141.767 35.1229 141.269 35.4829 140.657 35.7469C140.057 35.9989 139.379 36.1249 138.623 36.1249ZM135.869 30.5269L135.689 30.2569H141.269L141.089 30.5629C141.113 29.9029 141.011 29.3689 140.783 28.9609C140.567 28.5409 140.261 28.2349 139.865 28.0429C139.481 27.8509 139.037 27.7549 138.533 27.7549C138.005 27.7549 137.543 27.8689 137.147 28.0969C136.751 28.3129 136.445 28.6309 136.229 29.0509C136.013 29.4709 135.893 29.9629 135.869 30.5269ZM144.911 35.9629V26.4409H146.675L146.747 28.3309H146.855C147.131 27.6589 147.563 27.1549 148.151 26.8189C148.739 26.4709 149.381 26.2969 150.077 26.2969C150.569 26.2969 151.019 26.3689 151.427 26.5129C151.847 26.6569 152.207 26.8909 152.507 27.2149C152.819 27.5269 153.059 27.9409 153.227 28.4569C153.395 28.9609 153.479 29.5789 153.479 30.3109V35.9629H151.625V30.6889C151.625 30.0409 151.547 29.5069 151.391 29.0869C151.235 28.6549 150.995 28.3369 150.671 28.1329C150.347 27.9289 149.927 27.8269 149.411 27.8269C148.871 27.8269 148.397 27.9589 147.989 28.2229C147.593 28.4869 147.287 28.8409 147.071 29.2849C146.855 29.7169 146.747 30.2089 146.747 30.7609V35.9629H144.911Z" fill="black"/>
<circle cx="200.969" cy="30.4629" r="20.4844" fill="#FFBD00"/>
<path d="M197.813 38.7885L204.666 31.9352C205.476 31.1258 205.476 29.8014 204.666 28.992L197.813 22.1387" stroke="#292D32" stroke-width="1.57669" stroke-miterlimit="10" stroke-linecap="round" stroke-linejoin="round"/>
<rect x="0.96875" y="1.46289" width="233" height="58" rx="29" stroke="black" stroke-width="1.5"/>
</svg>
