<svg width="796" height="136" viewBox="0 0 796 136" fill="none" xmlns="http://www.w3.org/2000/svg">
<path d="M8.97809 36.3V28.88H29.6981C32.1714 28.88 34.1314 28.2267 35.5781 26.92C37.0248 25.5667 37.7481 23.7 37.7481 21.32C37.7481 18.8467 37.0248 16.9567 35.5781 15.65C34.1314 14.3433 32.1714 13.69 29.6981 13.69H10.0981V51H0.788086V5.71H28.8581C31.3781 5.71 33.7348 6.01333 35.9281 6.62C38.1681 7.22666 40.1048 8.16 41.7381 9.42C43.4181 10.68 44.7248 12.29 45.6581 14.25C46.5914 16.21 47.0581 18.5667 47.0581 21.32C47.0581 24.0267 46.5914 26.3367 45.6581 28.25C44.7248 30.1633 43.4181 31.7267 41.7381 32.94C40.1048 34.1067 38.1681 34.97 35.9281 35.53C33.7348 36.0433 31.3781 36.3 28.8581 36.3H8.97809ZM73.9786 51.84C69.5919 51.84 65.7186 51.14 62.3586 49.74C59.0452 48.34 56.4552 46.31 54.5886 43.65C52.7219 40.9433 51.7886 37.63 51.7886 33.71C51.7886 29.79 52.7219 26.4767 54.5886 23.77C56.4552 21.0167 59.0452 18.94 62.3586 17.54C65.7186 16.14 69.5919 15.44 73.9786 15.44C78.3652 15.44 82.1919 16.14 85.4586 17.54C88.7719 18.94 91.3619 21.0167 93.2286 23.77C95.0952 26.4767 96.0286 29.79 96.0286 33.71C96.0286 37.63 95.0952 40.9433 93.2286 43.65C91.3619 46.31 88.7719 48.34 85.4586 49.74C82.1919 51.14 78.3652 51.84 73.9786 51.84ZM73.9786 44.84C76.4052 44.84 78.5752 44.42 80.4886 43.58C82.4486 42.6933 83.9886 41.4333 85.1086 39.8C86.2286 38.12 86.7886 36.09 86.7886 33.71C86.7886 31.33 86.2286 29.3 85.1086 27.62C83.9886 25.8933 82.4719 24.5867 80.5586 23.7C78.6452 22.8133 76.4519 22.37 73.9786 22.37C71.5519 22.37 69.3586 22.8133 67.3986 23.7C65.4386 24.5867 63.8752 25.87 62.7086 27.55C61.5886 29.23 61.0286 31.2833 61.0286 33.71C61.0286 36.09 61.5886 38.12 62.7086 39.8C63.8286 41.4333 65.3686 42.6933 67.3286 43.58C69.2886 44.42 71.5052 44.84 73.9786 44.84ZM146.748 44.7L143.878 44.63L155.218 16.21H165.228L149.898 51H141.358L130.158 22.93H133.238L121.688 51H113.148L98.2385 16.21H108.248L119.168 44.7H116.298L126.518 16.21H136.948L146.748 44.7ZM200.706 39.45H209.526C209.153 41.83 208.149 43.9533 206.516 45.82C204.929 47.6867 202.759 49.1567 200.006 50.23C197.253 51.3033 193.893 51.84 189.926 51.84C185.493 51.84 181.573 51.14 178.166 49.74C174.759 48.2933 172.099 46.2167 170.186 43.51C168.273 40.8033 167.316 37.5367 167.316 33.71C167.316 29.8833 168.249 26.6167 170.116 23.91C171.983 21.1567 174.573 19.0567 177.886 17.61C181.246 16.1633 185.166 15.44 189.646 15.44C194.219 15.44 198.023 16.1633 201.056 17.61C204.089 19.0567 206.329 21.25 207.776 24.19C209.269 27.0833 209.899 30.7933 209.666 35.32H176.486C176.719 37.0933 177.373 38.7033 178.446 40.15C179.566 41.5967 181.059 42.74 182.926 43.58C184.839 44.42 187.103 44.84 189.716 44.84C192.609 44.84 195.013 44.35 196.926 43.37C198.886 42.3433 200.146 41.0367 200.706 39.45ZM189.226 22.37C185.866 22.37 183.136 23.1167 181.036 24.61C178.936 26.0567 177.583 27.8533 176.976 30H200.636C200.403 27.6667 199.283 25.8233 197.276 24.47C195.316 23.07 192.633 22.37 189.226 22.37ZM216.437 16.21H225.537V51H216.437V16.21ZM238.907 23.7C236.294 23.7 234.031 24.2133 232.117 25.24C230.204 26.22 228.664 27.4333 227.497 28.88C226.331 30.3267 225.514 31.7267 225.047 33.08L224.977 29.23C225.024 28.67 225.211 27.8533 225.537 26.78C225.864 25.66 226.354 24.47 227.007 23.21C227.661 21.9033 228.524 20.6667 229.597 19.5C230.671 18.2867 231.977 17.3067 233.517 16.56C235.057 15.8133 236.854 15.44 238.907 15.44V23.7ZM254.963 0.949998V8.93H244.393V0.949998H254.963ZM245.093 16.21H254.193V51H245.093V16.21ZM263.263 16.21H272.363V51H263.263V16.21ZM288.533 15.44C290.68 15.44 292.663 15.72 294.483 16.28C296.303 16.84 297.89 17.7033 299.243 18.87C300.597 20.0367 301.647 21.53 302.393 23.35C303.14 25.1233 303.513 27.2467 303.513 29.72V51H294.413V31.33C294.413 28.39 293.69 26.2433 292.243 24.89C290.843 23.49 288.533 22.79 285.313 22.79C282.887 22.79 280.693 23.2567 278.733 24.19C276.773 25.1233 275.187 26.3133 273.973 27.76C272.76 29.16 272.06 30.63 271.873 32.17L271.803 28.6C272.037 26.9667 272.573 25.38 273.413 23.84C274.253 22.3 275.373 20.9 276.773 19.64C278.22 18.3333 279.923 17.3067 281.883 16.56C283.843 15.8133 286.06 15.44 288.533 15.44ZM329.159 45.68C325.379 45.68 322.042 45.12 319.149 44C316.302 42.8333 314.085 41.13 312.499 38.89C310.912 36.65 310.119 33.9433 310.119 30.77C310.119 27.6433 310.889 24.9367 312.429 22.65C313.969 20.3633 316.162 18.59 319.009 17.33C321.902 16.07 325.285 15.44 329.159 15.44C330.232 15.44 331.259 15.51 332.239 15.65C333.265 15.79 334.269 15.9767 335.249 16.21L352.819 16.28V23.14C350.439 23.1867 348.012 22.9067 345.539 22.3C343.112 21.6467 340.965 20.9467 339.099 20.2L338.889 19.71C340.475 20.4567 341.969 21.39 343.369 22.51C344.769 23.5833 345.889 24.8433 346.729 26.29C347.615 27.69 348.059 29.3233 348.059 31.19C348.059 34.2233 347.289 36.8367 345.749 39.03C344.209 41.1767 342.015 42.8333 339.169 44C336.369 45.12 333.032 45.68 329.159 45.68ZM340.849 65.35V63.67C340.849 61.5233 340.149 60.03 338.749 59.19C337.395 58.35 335.529 57.93 333.149 57.93H322.299C320.199 57.93 318.425 57.7667 316.979 57.44C315.579 57.1133 314.459 56.6467 313.619 56.04C312.779 55.4333 312.172 54.71 311.799 53.87C311.425 53.0767 311.239 52.2133 311.239 51.28C311.239 49.4133 311.845 48.0133 313.059 47.08C314.272 46.1 315.905 45.4467 317.959 45.12C320.012 44.7933 322.275 44.7233 324.749 44.91L329.159 45.68C326.219 45.7733 324.025 46.03 322.579 46.45C321.179 46.8233 320.479 47.5933 320.479 48.76C320.479 49.46 320.759 50.02 321.319 50.44C321.879 50.8133 322.672 51 323.699 51H335.109C338.235 51 340.895 51.3267 343.089 51.98C345.329 52.68 347.032 53.8233 348.199 55.41C349.365 57.0433 349.949 59.26 349.949 62.06V65.35H340.849ZM329.159 39.1C331.165 39.1 332.915 38.7733 334.409 38.12C335.949 37.4667 337.139 36.5333 337.979 35.32C338.819 34.06 339.239 32.5667 339.239 30.84C339.239 29.0667 338.819 27.55 337.979 26.29C337.139 25.03 335.972 24.0733 334.479 23.42C332.985 22.72 331.212 22.37 329.159 22.37C327.152 22.37 325.379 22.72 323.839 23.42C322.299 24.0733 321.109 25.03 320.269 26.29C319.429 27.55 319.009 29.0667 319.009 30.84C319.009 32.5667 319.429 34.06 320.269 35.32C321.109 36.5333 322.275 37.4667 323.769 38.12C325.309 38.7733 327.105 39.1 329.159 39.1ZM233.086 128.7L230.216 128.63L241.556 100.21H251.566L236.236 135H227.696L216.496 106.93H219.576L208.026 135H199.486L184.576 100.21H194.586L205.506 128.7H202.636L212.856 100.21H223.286L233.086 128.7ZM267.336 84.95V92.93H256.766V84.95H267.336ZM257.466 100.21H266.566V135H257.466V100.21ZM273.187 100.21H300.207V107.28H273.187V100.21ZM282.147 90.69H291.247V135H282.147V90.69ZM337.768 135V115.89C337.768 113.977 337.441 112.39 336.788 111.13C336.135 109.87 335.085 108.913 333.638 108.26C332.238 107.607 330.348 107.28 327.968 107.28C325.681 107.28 323.605 107.723 321.738 108.61C319.871 109.45 318.355 110.57 317.188 111.97C316.021 113.323 315.368 114.77 315.228 116.31L315.158 112.46C315.391 110.92 315.928 109.38 316.768 107.84C317.608 106.3 318.728 104.9 320.128 103.64C321.528 102.38 323.208 101.377 325.168 100.63C327.175 99.8367 329.415 99.44 331.888 99.44C334.035 99.44 336.018 99.72 337.838 100.28C339.658 100.793 341.245 101.61 342.598 102.73C343.951 103.85 345.001 105.25 345.748 106.93C346.495 108.563 346.868 110.5 346.868 112.74V135H337.768ZM306.618 135V86.21H315.718V135H306.618ZM430.208 121.28C429.975 124.313 428.995 126.927 427.268 129.12C425.588 131.313 423.255 132.993 420.268 134.16C417.281 135.28 413.735 135.84 409.628 135.84C405.335 135.84 401.485 135.163 398.078 133.81C394.718 132.41 392.058 130.38 390.098 127.72C388.185 125.013 387.228 121.677 387.228 117.71C387.228 113.743 388.185 110.407 390.098 107.7C392.058 104.993 394.718 102.94 398.078 101.54C401.485 100.14 405.335 99.44 409.628 99.44C413.735 99.44 417.258 100.023 420.198 101.19C423.138 102.31 425.448 103.943 427.128 106.09C428.855 108.237 429.858 110.827 430.138 113.86H421.808C421.015 111.527 419.545 109.707 417.398 108.4C415.251 107.093 412.661 106.44 409.628 106.44C407.201 106.44 404.985 106.86 402.978 107.7C401.018 108.54 399.431 109.8 398.218 111.48C397.051 113.113 396.468 115.19 396.468 117.71C396.468 120.183 397.051 122.26 398.218 123.94C399.385 125.573 400.971 126.81 402.978 127.65C404.985 128.443 407.201 128.84 409.628 128.84C412.895 128.84 415.555 128.187 417.608 126.88C419.708 125.573 421.131 123.707 421.878 121.28H430.208ZM436.896 100.21H445.996V135H436.896V100.21ZM459.366 107.7C456.753 107.7 454.49 108.213 452.576 109.24C450.663 110.22 449.123 111.433 447.956 112.88C446.79 114.327 445.973 115.727 445.506 117.08L445.436 113.23C445.483 112.67 445.67 111.853 445.996 110.78C446.323 109.66 446.813 108.47 447.466 107.21C448.12 105.903 448.983 104.667 450.056 103.5C451.13 102.287 452.436 101.307 453.976 100.56C455.516 99.8133 457.313 99.44 459.366 99.44V107.7ZM496.702 123.45H505.522C505.149 125.83 504.145 127.953 502.512 129.82C500.925 131.687 498.755 133.157 496.002 134.23C493.249 135.303 489.889 135.84 485.922 135.84C481.489 135.84 477.569 135.14 474.162 133.74C470.755 132.293 468.095 130.217 466.182 127.51C464.269 124.803 463.312 121.537 463.312 117.71C463.312 113.883 464.245 110.617 466.112 107.91C467.979 105.157 470.569 103.057 473.882 101.61C477.242 100.163 481.162 99.44 485.642 99.44C490.215 99.44 494.019 100.163 497.052 101.61C500.085 103.057 502.325 105.25 503.772 108.19C505.265 111.083 505.895 114.793 505.662 119.32H472.482C472.715 121.093 473.369 122.703 474.442 124.15C475.562 125.597 477.055 126.74 478.922 127.58C480.835 128.42 483.099 128.84 485.712 128.84C488.605 128.84 491.009 128.35 492.922 127.37C494.882 126.343 496.142 125.037 496.702 123.45ZM485.222 106.37C481.862 106.37 479.132 107.117 477.032 108.61C474.932 110.057 473.579 111.853 472.972 114H496.632C496.399 111.667 495.279 109.823 493.272 108.47C491.312 107.07 488.629 106.37 485.222 106.37ZM529.373 135.77C525.873 135.77 522.7 135.023 519.853 133.53C517.053 131.99 514.837 129.867 513.203 127.16C511.57 124.407 510.753 121.233 510.753 117.64C510.753 113.953 511.547 110.757 513.133 108.05C514.767 105.343 516.983 103.243 519.783 101.75C522.583 100.21 525.78 99.44 529.373 99.44C532.5 99.44 535.16 99.9067 537.353 100.84C539.547 101.773 541.32 103.08 542.673 104.76C544.027 106.393 545.007 108.307 545.613 110.5C546.267 112.693 546.593 115.073 546.593 117.64C546.593 119.693 546.267 121.793 545.613 123.94C544.96 126.04 543.957 128 542.603 129.82C541.25 131.593 539.477 133.04 537.283 134.16C535.09 135.233 532.453 135.77 529.373 135.77ZM532.313 128.77C535.067 128.77 537.447 128.303 539.453 127.37C541.46 126.437 543 125.13 544.073 123.45C545.147 121.77 545.683 119.833 545.683 117.64C545.683 115.26 545.123 113.253 544.003 111.62C542.93 109.94 541.39 108.657 539.383 107.77C537.423 106.883 535.067 106.44 532.313 106.44C528.44 106.44 525.43 107.467 523.283 109.52C521.137 111.573 520.063 114.28 520.063 117.64C520.063 119.88 520.577 121.84 521.603 123.52C522.63 125.153 524.053 126.437 525.873 127.37C527.74 128.303 529.887 128.77 532.313 128.77ZM545.683 86.21H554.783V135H546.313C546.173 133.927 546.033 132.55 545.893 130.87C545.753 129.143 545.683 127.533 545.683 126.04V86.21ZM575.022 84.95V92.93H564.452V84.95H575.022ZM565.152 100.21H574.252V135H565.152V100.21ZM580.872 100.21H607.892V107.28H580.872V100.21ZM589.832 90.69H598.932V135H589.832V90.69Z" fill="black"/>
<path d="M416.946 37.28C416.713 40.3133 415.733 42.9267 414.006 45.12C412.326 47.3133 409.993 48.9933 407.006 50.16C404.02 51.28 400.473 51.84 396.366 51.84C392.073 51.84 388.223 51.1633 384.816 49.81C381.456 48.41 378.796 46.38 376.836 43.72C374.923 41.0133 373.966 37.6767 373.966 33.71C373.966 29.7433 374.923 26.4067 376.836 23.7C378.796 20.9933 381.456 18.94 384.816 17.54C388.223 16.14 392.073 15.44 396.366 15.44C400.473 15.44 403.996 16.0233 406.936 17.19C409.876 18.31 412.186 19.9433 413.866 22.09C415.593 24.2367 416.596 26.8267 416.876 29.86H408.546C407.753 27.5267 406.283 25.7067 404.136 24.4C401.99 23.0933 399.4 22.44 396.366 22.44C393.94 22.44 391.723 22.86 389.716 23.7C387.756 24.54 386.17 25.8 384.956 27.48C383.79 29.1133 383.206 31.19 383.206 33.71C383.206 36.1833 383.79 38.26 384.956 39.94C386.123 41.5733 387.71 42.81 389.716 43.65C391.723 44.4433 393.94 44.84 396.366 44.84C399.633 44.84 402.293 44.1867 404.346 42.88C406.446 41.5733 407.87 39.7067 408.616 37.28H416.946ZM444.145 51.84C439.758 51.84 435.885 51.14 432.525 49.74C429.211 48.34 426.621 46.31 424.755 43.65C422.888 40.9433 421.955 37.63 421.955 33.71C421.955 29.79 422.888 26.4767 424.755 23.77C426.621 21.0167 429.211 18.94 432.525 17.54C435.885 16.14 439.758 15.44 444.145 15.44C448.531 15.44 452.358 16.14 455.625 17.54C458.938 18.94 461.528 21.0167 463.395 23.77C465.261 26.4767 466.195 29.79 466.195 33.71C466.195 37.63 465.261 40.9433 463.395 43.65C461.528 46.31 458.938 48.34 455.625 49.74C452.358 51.14 448.531 51.84 444.145 51.84ZM444.145 44.84C446.571 44.84 448.741 44.42 450.655 43.58C452.615 42.6933 454.155 41.4333 455.275 39.8C456.395 38.12 456.955 36.09 456.955 33.71C456.955 31.33 456.395 29.3 455.275 27.62C454.155 25.8933 452.638 24.5867 450.725 23.7C448.811 22.8133 446.618 22.37 444.145 22.37C441.718 22.37 439.525 22.8133 437.565 23.7C435.605 24.5867 434.041 25.87 432.875 27.55C431.755 29.23 431.195 31.2833 431.195 33.71C431.195 36.09 431.755 38.12 432.875 39.8C433.995 41.4333 435.535 42.6933 437.495 43.58C439.455 44.42 441.671 44.84 444.145 44.84ZM472.922 16.21H482.022V51H472.922V16.21ZM498.192 15.44C500.338 15.44 502.322 15.72 504.142 16.28C505.962 16.84 507.548 17.7033 508.902 18.87C510.255 20.0367 511.305 21.53 512.052 23.35C512.798 25.1233 513.172 27.2467 513.172 29.72V51H504.072V31.33C504.072 28.39 503.348 26.2433 501.902 24.89C500.502 23.49 498.192 22.79 494.972 22.79C492.545 22.79 490.352 23.2567 488.392 24.19C486.432 25.1233 484.845 26.3133 483.632 27.76C482.418 29.16 481.718 30.63 481.532 32.17L481.462 28.6C481.695 26.9667 482.232 25.38 483.072 23.84C483.912 22.3 485.032 20.9 486.432 19.64C487.878 18.3333 489.582 17.3067 491.542 16.56C493.502 15.8133 495.718 15.44 498.192 15.44ZM528.502 15.44C530.648 15.44 532.632 15.72 534.452 16.28C536.272 16.84 537.858 17.7033 539.212 18.87C540.565 20.0367 541.615 21.53 542.362 23.35C543.155 25.1233 543.552 27.2467 543.552 29.72V51H534.452V31.33C534.452 28.39 533.728 26.2433 532.282 24.89C530.835 23.49 528.502 22.79 525.282 22.79C522.855 22.79 520.662 23.2567 518.702 24.19C516.742 25.1233 515.155 26.3133 513.942 27.76C512.728 29.16 512.052 30.63 511.912 32.17L511.772 28.39C512.005 26.85 512.565 25.31 513.452 23.77C514.338 22.23 515.505 20.83 516.952 19.57C518.398 18.31 520.078 17.3067 521.992 16.56C523.952 15.8133 526.122 15.44 528.502 15.44ZM551.808 16.21H560.908V51H551.808V16.21ZM577.078 15.44C579.225 15.44 581.208 15.72 583.028 16.28C584.848 16.84 586.435 17.7033 587.788 18.87C589.142 20.0367 590.192 21.53 590.938 23.35C591.685 25.1233 592.058 27.2467 592.058 29.72V51H582.958V31.33C582.958 28.39 582.235 26.2433 580.788 24.89C579.388 23.49 577.078 22.79 573.858 22.79C571.432 22.79 569.238 23.2567 567.278 24.19C565.318 25.1233 563.732 26.3133 562.518 27.76C561.305 29.16 560.605 30.63 560.418 32.17L560.348 28.6C560.582 26.9667 561.118 25.38 561.958 23.84C562.798 22.3 563.918 20.9 565.318 19.64C566.765 18.3333 568.468 17.3067 570.428 16.56C572.388 15.8133 574.605 15.44 577.078 15.44ZM607.388 15.44C609.535 15.44 611.518 15.72 613.338 16.28C615.158 16.84 616.745 17.7033 618.098 18.87C619.452 20.0367 620.502 21.53 621.248 23.35C622.042 25.1233 622.438 27.2467 622.438 29.72V51H613.338V31.33C613.338 28.39 612.615 26.2433 611.168 24.89C609.722 23.49 607.388 22.79 604.168 22.79C601.742 22.79 599.548 23.2567 597.588 24.19C595.628 25.1233 594.042 26.3133 592.828 27.76C591.615 29.16 590.938 30.63 590.798 32.17L590.658 28.39C590.892 26.85 591.452 25.31 592.338 23.77C593.225 22.23 594.392 20.83 595.838 19.57C597.285 18.31 598.965 17.3067 600.878 16.56C602.838 15.8133 605.008 15.44 607.388 15.44ZM662.405 39.45H671.225C670.852 41.83 669.848 43.9533 668.215 45.82C666.628 47.6867 664.458 49.1567 661.705 50.23C658.952 51.3033 655.592 51.84 651.625 51.84C647.192 51.84 643.272 51.14 639.865 49.74C636.458 48.2933 633.798 46.2167 631.885 43.51C629.972 40.8033 629.015 37.5367 629.015 33.71C629.015 29.8833 629.948 26.6167 631.815 23.91C633.682 21.1567 636.272 19.0567 639.585 17.61C642.945 16.1633 646.865 15.44 651.345 15.44C655.918 15.44 659.722 16.1633 662.755 17.61C665.788 19.0567 668.028 21.25 669.475 24.19C670.968 27.0833 671.598 30.7933 671.365 35.32H638.185C638.418 37.0933 639.072 38.7033 640.145 40.15C641.265 41.5967 642.758 42.74 644.625 43.58C646.538 44.42 648.802 44.84 651.415 44.84C654.308 44.84 656.712 44.35 658.625 43.37C660.585 42.3433 661.845 41.0367 662.405 39.45ZM650.925 22.37C647.565 22.37 644.835 23.1167 642.735 24.61C640.635 26.0567 639.282 27.8533 638.675 30H662.335C662.102 27.6667 660.982 25.8233 658.975 24.47C657.015 23.07 654.332 22.37 650.925 22.37ZM678.137 16.21H687.237V51H678.137V16.21ZM700.607 23.7C697.993 23.7 695.73 24.2133 693.817 25.24C691.903 26.22 690.363 27.4333 689.197 28.88C688.03 30.3267 687.213 31.7267 686.747 33.08L686.677 29.23C686.723 28.67 686.91 27.8533 687.237 26.78C687.563 25.66 688.053 24.47 688.707 23.21C689.36 21.9033 690.223 20.6667 691.297 19.5C692.37 18.2867 693.677 17.3067 695.217 16.56C696.757 15.8133 698.553 15.44 700.607 15.44V23.7ZM747.532 37.28C747.299 40.3133 746.319 42.9267 744.592 45.12C742.912 47.3133 740.579 48.9933 737.592 50.16C734.606 51.28 731.059 51.84 726.952 51.84C722.659 51.84 718.809 51.1633 715.402 49.81C712.042 48.41 709.382 46.38 707.422 43.72C705.509 41.0133 704.552 37.6767 704.552 33.71C704.552 29.7433 705.509 26.4067 707.422 23.7C709.382 20.9933 712.042 18.94 715.402 17.54C718.809 16.14 722.659 15.44 726.952 15.44C731.059 15.44 734.582 16.0233 737.522 17.19C740.462 18.31 742.772 19.9433 744.452 22.09C746.179 24.2367 747.182 26.8267 747.462 29.86H739.132C738.339 27.5267 736.869 25.7067 734.722 24.4C732.576 23.0933 729.986 22.44 726.952 22.44C724.526 22.44 722.309 22.86 720.302 23.7C718.342 24.54 716.756 25.8 715.542 27.48C714.376 29.1133 713.792 31.19 713.792 33.71C713.792 36.1833 714.376 38.26 715.542 39.94C716.709 41.5733 718.296 42.81 720.302 43.65C722.309 44.4433 724.526 44.84 726.952 44.84C730.219 44.84 732.879 44.1867 734.932 42.88C737.032 41.5733 738.456 39.7067 739.202 37.28H747.532ZM785.931 39.45H794.751C794.377 41.83 793.374 43.9533 791.741 45.82C790.154 47.6867 787.984 49.1567 785.231 50.23C782.477 51.3033 779.117 51.84 775.151 51.84C770.717 51.84 766.797 51.14 763.391 49.74C759.984 48.2933 757.324 46.2167 755.411 43.51C753.497 40.8033 752.541 37.5367 752.541 33.71C752.541 29.8833 753.474 26.6167 755.341 23.91C757.207 21.1567 759.797 19.0567 763.111 17.61C766.471 16.1633 770.391 15.44 774.871 15.44C779.444 15.44 783.247 16.1633 786.281 17.61C789.314 19.0567 791.554 21.25 793.001 24.19C794.494 27.0833 795.124 30.7933 794.891 35.32H761.711C761.944 37.0933 762.597 38.7033 763.671 40.15C764.791 41.5967 766.284 42.74 768.151 43.58C770.064 44.42 772.327 44.84 774.941 44.84C777.834 44.84 780.237 44.35 782.151 43.37C784.111 42.3433 785.371 41.0367 785.931 39.45ZM774.451 22.37C771.091 22.37 768.361 23.1167 766.261 24.61C764.161 26.0567 762.807 27.8533 762.201 30H785.861C785.627 27.6667 784.507 25.8233 782.501 24.47C780.541 23.07 777.857 22.37 774.451 22.37Z" fill="#23A323"/>
</svg>
