<svg width="35" height="35" viewBox="0 0 35 35" fill="none" xmlns="http://www.w3.org/2000/svg">
<circle cx="17.6524" cy="17.2718" r="17.0685" fill="white"/>
<path d="M11.1612 23.6598C10.7602 23.6598 10.4169 23.5169 10.1311 23.2311C9.84529 22.9453 9.70264 22.6022 9.70313 22.2017V14.1822C9.70313 13.7812 9.84602 13.4378 10.1318 13.152C10.4176 12.8662 10.7607 12.7236 11.1612 12.7241H14.0774V11.266C14.0774 10.865 14.2203 10.5216 14.5061 10.2358C14.7919 9.95003 15.135 9.80738 15.5355 9.80786H18.4517C18.8527 9.80786 19.1961 9.95076 19.4819 10.2365C19.7676 10.5223 19.9103 10.8655 19.9098 11.266V12.7241H22.826C23.227 12.7241 23.5704 12.867 23.8562 13.1527C24.1419 13.4385 24.2846 13.7817 24.2841 14.1822V22.2017C24.2841 22.6027 24.1412 22.946 23.8554 23.2318C23.5696 23.5176 23.2265 23.6603 22.826 23.6598H11.1612ZM15.5355 12.7241H18.4517V11.266H15.5355V12.7241ZM22.826 19.2855H19.1808V20.7436H14.8065V19.2855H11.1612V22.2017H22.826V19.2855ZM16.2646 19.2855H17.7227V17.8274H16.2646V19.2855ZM11.1612 17.8274H14.8065V16.3693H19.1808V17.8274H22.826V14.1822H11.1612V17.8274Z" fill="#23A323"/>
</svg>
