<svg width="30" height="31" viewBox="0 0 30 31" fill="none" xmlns="http://www.w3.org/2000/svg">
<circle cx="15.1007" cy="15.4983" r="14.6974" fill="#F2FCF2"/>
<g clip-path="url(#clip0_3218_34361)">
<path d="M15.7117 13.2402C15.1575 13.2402 14.6158 13.4045 14.155 13.7124C13.6942 14.0203 13.3351 14.4579 13.123 14.9699C12.9109 15.4819 12.8554 16.0453 12.9635 16.5889C13.0716 17.1324 13.3385 17.6317 13.7304 18.0235C14.1222 18.4154 14.6215 18.6823 15.1651 18.7904C15.7086 18.8985 16.272 18.843 16.784 18.6309C17.296 18.4189 17.7336 18.0597 18.0415 17.5989C18.3494 17.1381 18.5137 16.5964 18.5137 16.0422C18.5137 15.2991 18.2185 14.5864 17.693 14.0609C17.1675 13.5354 16.4548 13.2402 15.7117 13.2402ZM15.7117 17.7234C15.3792 17.7234 15.0541 17.6248 14.7777 17.4401C14.5012 17.2554 14.2857 16.9928 14.1585 16.6856C14.0312 16.3784 13.9979 16.0404 14.0628 15.7142C14.1277 15.3881 14.2878 15.0885 14.5229 14.8534C14.758 14.6183 15.0576 14.4582 15.3837 14.3933C15.7098 14.3284 16.0479 14.3617 16.3551 14.489C16.6623 14.6162 16.9248 14.8317 17.1096 15.1082C17.2943 15.3847 17.3929 15.7097 17.3929 16.0422C17.3929 16.4881 17.2158 16.9157 16.9005 17.231C16.5852 17.5463 16.1576 17.7234 15.7117 17.7234ZM23.5573 10.9986H7.86607C7.71744 10.9986 7.5749 11.0576 7.4698 11.1627C7.36471 11.2678 7.30566 11.4104 7.30566 11.559V20.5254C7.30566 20.6741 7.36471 20.8166 7.4698 20.9217C7.5749 21.0268 7.71744 21.0858 7.86607 21.0858H23.5573C23.706 21.0858 23.8485 21.0268 23.9536 20.9217C24.0587 20.8166 24.1177 20.6741 24.1177 20.5254V11.559C24.1177 11.4104 24.0587 11.2678 23.9536 11.1627C23.8485 11.0576 23.706 10.9986 23.5573 10.9986ZM20.3105 19.965H11.1129C10.9247 19.3287 10.5804 18.7495 10.1112 18.2803C9.64195 17.8111 9.0628 17.4668 8.42647 17.2786V14.8058C9.0628 14.6177 9.64195 14.2733 10.1112 13.8041C10.5804 13.3349 10.9247 12.7557 11.1129 12.1194H20.3105C20.4987 12.7557 20.843 13.3349 21.3122 13.8041C21.7814 14.2733 22.3606 14.6177 22.9969 14.8058V17.2786C22.3606 17.4668 21.7814 17.8111 21.3122 18.2803C20.843 18.7495 20.4987 19.3287 20.3105 19.965ZM22.9969 13.6164C22.3248 13.3273 21.789 12.7916 21.5 12.1194H22.9969V13.6164ZM9.92344 12.1194C9.63441 12.7916 9.09865 13.3273 8.42647 13.6164V12.1194H9.92344ZM8.42647 18.4681C9.09865 18.7571 9.63441 19.2929 9.92344 19.965H8.42647V18.4681ZM21.5 19.965C21.789 19.2929 22.3248 18.7571 22.9969 18.4681V19.965H21.5Z" fill="#23A323"/>
</g>
<defs>
<clipPath id="clip0_3218_34361">
<rect width="17.9329" height="17.9329" fill="white" transform="translate(6.74512 7.07578)"/>
</clipPath>
</defs>
</svg>
