<svg width="57" height="58" viewBox="0 0 57 58" fill="none" xmlns="http://www.w3.org/2000/svg">
<g clip-path="url(#clip0_19945_94035)">
<rect y="0.132812" width="56.9569" height="56.9569" rx="8.37602" fill="#F6F0FF"/>
<path d="M20.6271 37.2304C20.0943 37.2304 19.638 37.0405 19.2582 36.6607C18.8784 36.2809 18.6888 35.8249 18.6895 35.2927V24.6353C18.6895 24.1025 18.8793 23.6462 19.2591 23.2664C19.6389 22.8866 20.0949 22.697 20.6271 22.6977H24.5025V20.76C24.5025 20.2271 24.6924 19.7708 25.0722 19.391C25.452 19.0112 25.908 18.8216 26.4402 18.8223H30.3156C30.8485 18.8223 31.3048 19.0122 31.6846 19.3919C32.0644 19.7717 32.254 20.2277 32.2533 20.76V22.6977H36.1287C36.6616 22.6977 37.1179 22.8875 37.4977 23.2673C37.8775 23.6471 38.067 24.1031 38.0664 24.6353V35.2927C38.0664 35.8255 37.8765 36.2819 37.4967 36.6616C37.1169 37.0414 36.6609 37.231 36.1287 37.2304H20.6271ZM26.4402 22.6977H30.3156V20.76H26.4402V22.6977ZM36.1287 31.4173H31.2845V33.355H25.4714V31.4173H20.6271V35.2927H36.1287V31.4173ZM27.4091 31.4173H29.3468V29.4796H27.4091V31.4173ZM20.6271 29.4796H25.4714V27.5419H31.2845V29.4796H36.1287V24.6353H20.6271V29.4796Z" fill="#9747FF"/>
</g>
<defs>
<clipPath id="clip0_19945_94035">
<rect y="0.132812" width="56.9569" height="56.9569" rx="8.37602" fill="white"/>
</clipPath>
</defs>
</svg>
