<svg width="65" height="51" viewBox="0 0 65 51" fill="none" xmlns="http://www.w3.org/2000/svg">
<path d="M29.6982 34.1809C23.8815 34.1809 21.5591 29.4287 20.9173 26.0906C20.8092 25.5285 21.4483 25.1635 21.9416 25.4539C24.027 26.6817 26.4305 27.4568 26.8965 27.4568C27.3173 27.4568 36.327 24.166 41.6019 22.2174C42.062 22.0474 42.5419 22.4126 42.4805 22.8992C41.634 29.6161 37.6949 34.1809 29.6982 34.1809Z" fill="#23A323"/>
<path d="M18.0786 5.52953L14.7875 7.17505C14.2686 7.43452 14.2998 8.18532 14.8385 8.4008L18.1295 9.71722C18.5712 9.89389 19.0517 9.5686 19.0517 9.0929V6.13096C19.0517 5.6311 18.5257 5.30599 18.0786 5.52953Z" fill="#23A323"/>
<path d="M24.6562 25.7762H28.6924C28.8573 25.7762 28.9398 25.5769 28.8233 25.4603C28.675 25.3118 28.8981 24.9504 29.1014 25.0024C29.5621 25.1203 30.034 25.215 30.2597 25.215C30.6062 25.215 31.9795 24.3221 33.189 23.5717C33.5372 23.3557 33.4487 22.8026 33.0543 22.6916C29.1463 21.5919 29.2297 20.1727 30.2596 20.1727C31.3803 20.1727 32.4453 20.733 35.3027 20.733C39.5421 20.733 42.0269 19.6124 42.5872 19.6124C43.7079 19.6124 44.2683 20.7322 44.8286 20.7322C45.389 20.7322 45.389 18.4917 44.8286 18.4917L41.9143 18.4916C41.6667 18.4916 41.4039 18.3027 41.2728 18.0927C40.0866 16.1924 33.5965 8.75617 25.7754 13.4495C20.1708 16.8127 20.7326 25.7762 24.6562 25.7762Z" fill="#23A323"/>
<path d="M22.3197 3.92241H20.6204C20.3728 3.92241 20.1721 4.12312 20.1721 4.3707L20.1723 12.0045C20.1723 12.1975 20.045 12.3631 19.8742 12.4529C18.8996 12.9655 19.3204 13.9846 19.7989 14.3933C19.9753 14.544 20.1715 14.7568 20.1719 14.9888C20.172 15.08 20.1413 15.1689 20.0896 15.244C18.5478 17.4832 20.1918 20.7138 21.2935 19.6121C22.3108 18.5948 22.0673 16.0682 21.482 15.3042C21.3847 15.1772 21.2936 15.0308 21.2933 14.8708L21.2932 14.8095C21.2929 14.6593 21.3705 14.5199 21.4895 14.4283C22.5622 13.6024 22.1844 12.8022 21.7085 12.4783C21.5038 12.339 21.2928 12.1269 21.2928 11.8793V11.0948C21.2928 10.8473 21.4935 10.6466 21.7411 10.6466H22.5255C22.7731 10.6466 22.9738 10.4459 22.9738 10.1983V9.17707C22.9738 9.04312 23.0363 8.91368 23.1406 8.82955C30.5573 2.84277 36.7806 5.8851 39.105 8.27966C39.1835 8.36052 39.2238 8.46775 39.2238 8.58044V10.0568C39.2238 10.3532 39.5064 10.568 39.7921 10.4887L48.0955 8.1822C48.5019 8.0693 48.5416 7.50866 48.1552 7.33959L31.5587 0.0786088C31.4441 0.028496 31.3138 0.0284957 31.1993 0.0786086L22.4994 3.88483C22.4427 3.90962 22.3815 3.92241 22.3197 3.92241Z" fill="#23A323"/>
<path d="M24.6541 9.18625V12.1626C24.6541 12.4958 25.0064 12.7136 25.312 12.5807C30.0334 10.5285 34.9714 11.575 37.4429 12.5901C37.7512 12.7167 38.1024 12.4958 38.1024 12.1626V9.16382C38.1024 9.03752 38.0476 8.91508 37.9526 8.83186C33.1639 4.63637 27.3384 6.99917 24.8293 8.83418C24.7169 8.91634 24.6541 9.04707 24.6541 9.18625Z" fill="#23A323"/>
<path d="M1.77365 43.171C1.9381 43.4686 2.12212 43.727 2.32572 43.9463C2.53714 44.1655 2.76423 44.3339 3.00699 44.4513C3.25757 44.5688 3.5199 44.6275 3.79397 44.6275C4.0837 44.6275 4.32254 44.5571 4.51048 44.4161C4.69841 44.2673 4.79238 44.0676 4.79238 43.8171C4.79238 43.6056 4.73757 43.4373 4.62794 43.312C4.51831 43.1789 4.34212 43.0536 4.09937 42.9361C3.85661 42.8186 3.53556 42.6855 3.13619 42.5367C2.94042 42.4663 2.71333 42.3684 2.45492 42.2431C2.20434 42.1178 1.9655 41.9573 1.73841 41.7615C1.51132 41.5579 1.32339 41.3151 1.1746 41.0332C1.02582 40.7435 0.951429 40.395 0.951429 39.9878C0.951429 39.5023 1.07672 39.0834 1.3273 38.731C1.58571 38.3786 1.93027 38.1124 2.36095 37.9323C2.79947 37.7444 3.28497 37.6504 3.81746 37.6504C4.36561 37.6504 4.83937 37.7404 5.23873 37.9205C5.64593 38.1007 5.98265 38.3277 6.24889 38.6018C6.51513 38.8759 6.71873 39.1539 6.85968 39.4358L5.34445 40.2815C5.22699 40.0857 5.08995 39.9174 4.93333 39.7764C4.78455 39.6276 4.61619 39.5141 4.42826 39.4358C4.24815 39.3496 4.05238 39.3066 3.84095 39.3066C3.55905 39.3066 3.3437 39.3692 3.19492 39.4945C3.04614 39.612 2.97175 39.7608 2.97175 39.9409C2.97175 40.1288 3.04222 40.2932 3.18318 40.4342C3.33196 40.5751 3.53947 40.7044 3.80572 40.8218C4.07979 40.9393 4.40868 41.0646 4.79238 41.1977C5.08212 41.3073 5.35228 41.4365 5.60286 41.5853C5.85344 41.7263 6.0727 41.8985 6.26064 42.1021C6.4564 42.3057 6.6091 42.5407 6.71873 42.8069C6.82836 43.0731 6.88318 43.3785 6.88318 43.7231C6.88318 44.1381 6.79704 44.5101 6.62476 44.839C6.46032 45.16 6.23323 45.4302 5.94349 45.6494C5.66159 45.8687 5.33662 46.0331 4.96857 46.1428C4.60836 46.2602 4.2364 46.319 3.8527 46.319C3.32021 46.319 2.82296 46.225 2.36095 46.0371C1.90677 45.8413 1.51132 45.579 1.1746 45.2501C0.837884 44.9212 0.575556 44.561 0.387619 44.1694L1.77365 43.171ZM7.22381 40.6574H10.8416V42.1256H7.22381V40.6574ZM8.17524 38.778H9.87842V46.0605H8.17524V38.778ZM13.2772 43.9463C13.2772 44.2595 13.336 44.5062 13.4534 44.6863C13.5709 44.8585 13.7745 44.9447 14.0642 44.9447C14.26 44.9447 14.4244 44.9055 14.5576 44.8272C14.6985 44.7489 14.8081 44.6354 14.8864 44.4866C14.9648 44.3378 15.0039 44.1577 15.0039 43.9463V40.6574H16.7776V46.0605H15.0039V45.2501C14.8395 45.5398 14.6241 45.7708 14.3579 45.9431C14.0916 46.1075 13.7588 46.1898 13.3595 46.1898C12.686 46.1898 12.1927 46.0096 11.8795 45.6494C11.5741 45.2814 11.4214 44.7763 11.4214 44.1342V40.6574H13.2772V43.9463ZM22.1008 36.8986H23.8745V46.0605H22.1008V36.8986ZM17.6843 43.359C17.6843 42.7482 17.8057 42.2353 18.0484 41.8202C18.299 41.4052 18.6201 41.0881 19.0116 40.8688C19.4031 40.6495 19.8182 40.5399 20.2567 40.5399C20.7109 40.5399 21.1102 40.6535 21.4548 40.8805C21.8072 41.1076 22.0851 41.4326 22.2887 41.8555C22.4923 42.2705 22.5941 42.7717 22.5941 43.359C22.5941 43.9384 22.4923 44.4396 22.2887 44.8625C22.0851 45.2853 21.8072 45.6103 21.4548 45.8374C21.1102 46.0645 20.7109 46.178 20.2567 46.178C19.8182 46.178 19.4031 46.0684 19.0116 45.8491C18.6201 45.6299 18.299 45.3127 18.0484 44.8977C17.8057 44.4748 17.6843 43.9619 17.6843 43.359ZM19.5519 43.359C19.5519 43.6409 19.6106 43.8875 19.7281 44.099C19.8456 44.3026 20.0022 44.4631 20.1979 44.5805C20.3937 44.6902 20.6091 44.745 20.844 44.745C21.0476 44.745 21.2433 44.6902 21.4313 44.5805C21.627 44.4709 21.7876 44.3143 21.9129 44.1107C22.0382 43.8993 22.1008 43.6487 22.1008 43.359C22.1008 43.0692 22.0382 42.8226 21.9129 42.619C21.7876 42.4075 21.627 42.247 21.4313 42.1374C21.2433 42.0277 21.0476 41.9729 20.844 41.9729C20.6091 41.9729 20.3937 42.0317 20.1979 42.1491C20.0022 42.2587 19.8456 42.4193 19.7281 42.6307C19.6106 42.8343 19.5519 43.0771 19.5519 43.359ZM30.6071 40.6574L27.0833 48.6447H25.2979L26.6135 45.6259L24.276 40.6574H26.2259L27.976 44.9917L27.0598 44.9799L28.7865 40.6574H30.6071ZM31.2706 37.8383H32.269V46.0605H31.2706V37.8383ZM37.3799 42.7717C37.3799 42.3253 37.282 41.9886 37.0863 41.7615C36.8905 41.5344 36.6047 41.4209 36.2288 41.4209C35.9547 41.4209 35.712 41.4796 35.5006 41.5971C35.297 41.7067 35.1364 41.8633 35.019 42.0669C34.9093 42.2705 34.8545 42.5054 34.8545 42.7717V46.0605H33.9148V40.6574H34.8545V41.5031C35.0346 41.1742 35.2578 40.9314 35.524 40.7748C35.7981 40.6182 36.1113 40.5399 36.4637 40.5399C37.0354 40.5399 37.4856 40.7318 37.8145 41.1155C38.1512 41.4913 38.3196 42.0042 38.3196 42.6542V46.0605H37.3799V42.7717ZM40.1331 44.4044C40.2427 44.5688 40.368 44.7215 40.509 44.8625C40.6499 45.0034 40.8104 45.1169 40.9905 45.2031C41.1785 45.2814 41.3821 45.3205 41.6013 45.3205C41.8676 45.3205 42.0751 45.2618 42.2239 45.1444C42.3805 45.0191 42.4588 44.8507 42.4588 44.6393C42.4588 44.4513 42.3962 44.2947 42.2709 44.1694C42.1534 44.0363 42.0007 43.9267 41.8128 43.8405C41.6248 43.7466 41.4251 43.6604 41.2137 43.5821C40.9788 43.4882 40.74 43.3785 40.4972 43.2532C40.2623 43.1201 40.0626 42.9518 39.8982 42.7482C39.7415 42.5367 39.6632 42.2744 39.6632 41.9612C39.6632 41.6401 39.7455 41.3739 39.9099 41.1625C40.0822 40.951 40.3014 40.7944 40.5677 40.6926C40.8418 40.5908 41.1237 40.5399 41.4134 40.5399C41.7031 40.5399 41.9733 40.5869 42.2239 40.6809C42.4823 40.7748 42.7094 40.9001 42.9051 41.0567C43.1009 41.2133 43.2536 41.3935 43.3632 41.5971L42.6115 42.0786C42.4627 41.875 42.2748 41.7067 42.0477 41.5736C41.8284 41.4404 41.5778 41.3739 41.2959 41.3739C41.1002 41.3739 40.9318 41.4169 40.7909 41.5031C40.6499 41.5892 40.5794 41.7223 40.5794 41.9025C40.5794 42.0434 40.6342 42.1687 40.7439 42.2783C40.8535 42.388 40.9945 42.4858 41.1667 42.572C41.339 42.6581 41.5191 42.7403 41.707 42.8186C42.0203 42.9439 42.3061 43.081 42.5645 43.2298C42.8229 43.3707 43.0265 43.543 43.1753 43.7466C43.3319 43.9502 43.4102 44.2125 43.4102 44.5336C43.4102 45.0034 43.2379 45.3949 42.8934 45.7082C42.5567 46.0214 42.1103 46.178 41.5544 46.178C41.1941 46.178 40.8692 46.1154 40.5794 45.9901C40.2897 45.8569 40.043 45.6886 39.8394 45.485C39.6437 45.2814 39.4949 45.0739 39.3931 44.8625L40.1331 44.4044ZM44.4711 38.4256C44.4711 38.2455 44.5338 38.0928 44.6591 37.9675C44.7922 37.8422 44.9449 37.7796 45.1172 37.7796C45.2973 37.7796 45.45 37.8422 45.5753 37.9675C45.7005 38.0928 45.7632 38.2455 45.7632 38.4256C45.7632 38.5979 45.7005 38.7506 45.5753 38.8837C45.45 39.009 45.2973 39.0717 45.1172 39.0717C44.9449 39.0717 44.7922 39.009 44.6591 38.8837C44.5338 38.7506 44.4711 38.5979 44.4711 38.4256ZM44.6473 40.6574H45.587V46.0605H44.6473V40.6574ZM46.982 46.4129H47.9335C47.9335 46.6713 48.0039 46.9102 48.1449 47.1294C48.2858 47.3565 48.4855 47.5366 48.7439 47.6698C49.0023 47.8107 49.3077 47.8812 49.6601 47.8812C49.9342 47.8812 50.2044 47.8146 50.4706 47.6815C50.7368 47.5484 50.9561 47.3369 51.1284 47.0472C51.3085 46.7653 51.3985 46.3973 51.3985 45.9431V40.6574H52.3382V45.9431C52.3382 46.5617 52.209 47.0785 51.9506 47.4936C51.6922 47.9164 51.3594 48.2336 50.9522 48.445C50.545 48.6564 50.1143 48.7621 49.6601 48.7621C49.1355 48.7621 48.6695 48.6643 48.2623 48.4685C47.863 48.2727 47.5498 47.9947 47.3227 47.6345C47.0956 47.2821 46.982 46.8749 46.982 46.4129ZM46.8763 43.359C46.8763 42.7717 46.9977 42.2705 47.2404 41.8555C47.4832 41.4326 47.8082 41.1076 48.2154 40.8805C48.6226 40.6535 49.0689 40.5399 49.5544 40.5399C50.0086 40.5399 50.404 40.6535 50.7408 40.8805C51.0775 41.1076 51.3398 41.4326 51.5277 41.8555C51.7235 42.2705 51.8214 42.7717 51.8214 43.359C51.8214 43.9384 51.7235 44.4396 51.5277 44.8625C51.3398 45.2853 51.0775 45.6103 50.7408 45.8374C50.404 46.0645 50.0086 46.178 49.5544 46.178C49.0689 46.178 48.6226 46.0645 48.2154 45.8374C47.8082 45.6103 47.4832 45.2853 47.2404 44.8625C46.9977 44.4396 46.8763 43.9384 46.8763 43.359ZM47.8277 43.359C47.8277 43.774 47.91 44.1264 48.0744 44.4161C48.2467 44.7058 48.4738 44.9251 48.7557 45.0739C49.0376 45.2227 49.343 45.2971 49.6719 45.2971C49.9459 45.2971 50.2161 45.2227 50.4823 45.0739C50.7486 44.9251 50.9678 44.7058 51.1401 44.4161C51.3124 44.1264 51.3985 43.774 51.3985 43.359C51.3985 43.0457 51.3476 42.7717 51.2458 42.5367C51.144 42.294 51.007 42.0904 50.8347 41.9259C50.6703 41.7615 50.4863 41.6362 50.2827 41.5501C50.0791 41.4639 49.8755 41.4209 49.6719 41.4209C49.343 41.4209 49.0376 41.4953 48.7557 41.644C48.4738 41.7928 48.2467 42.0121 48.0744 42.3018C47.91 42.5916 47.8277 42.9439 47.8277 43.359ZM54.8086 36.8986V46.0605H53.8689V36.8986H54.8086ZM57.334 42.7717C57.334 42.3253 57.2361 41.9886 57.0403 41.7615C56.8524 41.5344 56.5665 41.4209 56.1828 41.4209C55.9088 41.4209 55.666 41.4796 55.4546 41.5971C55.251 41.7145 55.0905 41.875 54.973 42.0786C54.8634 42.2822 54.8086 42.5132 54.8086 42.7717H54.5032C54.5032 42.341 54.5854 41.9612 54.7498 41.6323C54.9143 41.2956 55.1374 41.0293 55.4194 40.8336C55.7091 40.6378 56.0419 40.5399 56.4178 40.5399C56.7936 40.5399 57.1186 40.6182 57.3927 40.7748C57.6746 40.9314 57.8899 41.1664 58.0387 41.4796C58.1953 41.7928 58.2736 42.1844 58.2736 42.6542V46.0605H57.334V42.7717ZM59.0417 40.6574H61.7433V41.5383H59.0417V40.6574ZM59.9227 38.778H60.8624V46.0605H59.9227V38.778Z" fill="#23A323"/>
</svg>
