<svg width="264" height="43" viewBox="0 0 264 43" fill="none" xmlns="http://www.w3.org/2000/svg">
<path d="M4.44672 28.4238V9.01383H17.6167C19.1167 9.01383 20.4167 9.22383 21.5167 9.64383C22.6367 10.0438 23.5067 10.6838 24.1267 11.5638C24.7467 12.4238 25.0567 13.5338 25.0567 14.8938C25.0567 15.8138 24.8967 16.5938 24.5767 17.2338C24.2567 17.8738 23.8067 18.3938 23.2267 18.7938C22.6667 19.1938 22.0167 19.5038 21.2767 19.7238C20.5367 19.9238 19.7467 20.0538 18.9067 20.1138L18.4867 19.8738C19.8867 19.8938 21.0367 20.0138 21.9367 20.2338C22.8367 20.4338 23.5067 20.8138 23.9467 21.3738C24.4067 21.9138 24.6367 22.7238 24.6367 23.8038V28.4238H20.6467V24.0738C20.6467 23.3338 20.5167 22.7638 20.2567 22.3638C19.9967 21.9438 19.5267 21.6538 18.8467 21.4938C18.1867 21.3338 17.2267 21.2538 15.9667 21.2538H8.43672V28.4238H4.44672ZM8.43672 18.1338H17.6167C18.7367 18.1338 19.5867 17.8638 20.1667 17.3238C20.7667 16.7838 21.0667 16.0538 21.0667 15.1338C21.0667 14.2538 20.7667 13.5838 20.1667 13.1238C19.5867 12.6638 18.7367 12.4338 17.6167 12.4338H8.43672V18.1338ZM42.224 23.4738H46.004C45.844 24.4938 45.414 25.4038 44.714 26.2038C44.034 27.0038 43.104 27.6338 41.924 28.0938C40.744 28.5538 39.304 28.7838 37.604 28.7838C35.704 28.7838 34.024 28.4838 32.564 27.8838C31.104 27.2638 29.964 26.3738 29.144 25.2138C28.324 24.0538 27.914 22.6538 27.914 21.0138C27.914 19.3738 28.314 17.9738 29.114 16.8138C29.914 15.6338 31.024 14.7338 32.444 14.1138C33.884 13.4938 35.564 13.1838 37.484 13.1838C39.444 13.1838 41.074 13.4938 42.374 14.1138C43.674 14.7338 44.634 15.6738 45.254 16.9338C45.894 18.1738 46.164 19.7638 46.064 21.7038H31.844C31.944 22.4638 32.224 23.1538 32.684 23.7738C33.164 24.3938 33.804 24.8838 34.604 25.2438C35.424 25.6038 36.394 25.7838 37.514 25.7838C38.754 25.7838 39.784 25.5738 40.604 25.1538C41.444 24.7138 41.984 24.1538 42.224 23.4738ZM37.304 16.1538C35.864 16.1538 34.694 16.4738 33.794 17.1138C32.894 17.7338 32.314 18.5038 32.054 19.4238H42.194C42.094 18.4238 41.614 17.6338 40.754 17.0538C39.914 16.4538 38.764 16.1538 37.304 16.1538ZM56.226 28.7838C54.746 28.7838 53.396 28.4638 52.176 27.8238C50.976 27.1838 50.016 26.2838 49.296 25.1238C48.596 23.9438 48.246 22.5638 48.246 20.9838C48.246 19.4438 48.596 18.0938 49.296 16.9338C50.016 15.7538 50.976 14.8338 52.176 14.1738C53.396 13.5138 54.746 13.1838 56.226 13.1838C57.566 13.1838 58.706 13.3838 59.646 13.7838C60.586 14.1838 61.346 14.7438 61.926 15.4638C62.506 16.1638 62.926 16.9838 63.186 17.9238C63.466 18.8638 63.606 19.8838 63.606 20.9838C63.606 21.8638 63.466 22.7638 63.186 23.6838C62.906 24.6038 62.476 25.4538 61.896 26.2338C61.316 26.9938 60.556 27.6138 59.616 28.0938C58.676 28.5538 57.546 28.7838 56.226 28.7838ZM57.486 25.7538C58.666 25.7538 59.686 25.5538 60.546 25.1538C61.406 24.7538 62.066 24.2038 62.526 23.5038C62.986 22.7838 63.216 21.9438 63.216 20.9838C63.216 19.9638 62.976 19.1038 62.496 18.4038C62.036 17.6838 61.376 17.1338 60.516 16.7538C59.676 16.3738 58.666 16.1838 57.486 16.1838C55.826 16.1838 54.536 16.6238 53.616 17.5038C52.696 18.3838 52.236 19.5438 52.236 20.9838C52.236 21.9438 52.456 22.7838 52.896 23.5038C53.336 24.2038 53.946 24.7538 54.726 25.1538C55.526 25.5538 56.446 25.7538 57.486 25.7538ZM67.116 13.5138V34.4238H63.216V17.2038L63.336 13.5138H67.116ZM88.5695 28.4238H84.6695V13.5138H88.5695V28.4238ZM84.8795 21.2538L84.9095 22.2738C84.8695 22.5538 84.7695 22.9638 84.6095 23.5038C84.4495 24.0238 84.1995 24.5838 83.8595 25.1838C83.5395 25.7838 83.1195 26.3638 82.5995 26.9238C82.0795 27.4638 81.4395 27.9138 80.6795 28.2738C79.9195 28.6138 79.0195 28.7838 77.9795 28.7838C77.1595 28.7838 76.3495 28.6838 75.5495 28.4838C74.7695 28.2838 74.0595 27.9538 73.4195 27.4938C72.7795 27.0138 72.2695 26.3738 71.8895 25.5738C71.5095 24.7738 71.3195 23.7638 71.3195 22.5438V13.5138H75.2195V21.8838C75.2195 22.8438 75.3695 23.6038 75.6695 24.1638C75.9895 24.7038 76.4495 25.0838 77.0495 25.3038C77.6495 25.5238 78.3595 25.6338 79.1795 25.6338C80.2595 25.6338 81.1895 25.4038 81.9695 24.9438C82.7495 24.4638 83.3795 23.8838 83.8595 23.2038C84.3595 22.5238 84.6995 21.8738 84.8795 21.2538ZM105.71 23.4738H109.49C109.33 24.4938 108.9 25.4038 108.2 26.2038C107.52 27.0038 106.59 27.6338 105.41 28.0938C104.23 28.5538 102.79 28.7838 101.09 28.7838C99.1903 28.7838 97.5103 28.4838 96.0503 27.8838C94.5903 27.2638 93.4503 26.3738 92.6303 25.2138C91.8103 24.0538 91.4003 22.6538 91.4003 21.0138C91.4003 19.3738 91.8003 17.9738 92.6003 16.8138C93.4003 15.6338 94.5103 14.7338 95.9303 14.1138C97.3703 13.4938 99.0503 13.1838 100.97 13.1838C102.93 13.1838 104.56 13.4938 105.86 14.1138C107.16 14.7338 108.12 15.6738 108.74 16.9338C109.38 18.1738 109.65 19.7638 109.55 21.7038H95.3303C95.4303 22.4638 95.7103 23.1538 96.1703 23.7738C96.6503 24.3938 97.2903 24.8838 98.0903 25.2438C98.9103 25.6038 99.8803 25.7838 101 25.7838C102.24 25.7838 103.27 25.5738 104.09 25.1538C104.93 24.7138 105.47 24.1538 105.71 23.4738ZM100.79 16.1538C99.3503 16.1538 98.1803 16.4738 97.2803 17.1138C96.3803 17.7338 95.8003 18.5038 95.5403 19.4238H105.68C105.58 18.4238 105.1 17.6338 104.24 17.0538C103.4 16.4538 102.25 16.1538 100.79 16.1538ZM111.852 23.4738H115.452C115.672 24.1538 116.122 24.7138 116.802 25.1538C117.502 25.5738 118.412 25.7838 119.532 25.7838C120.292 25.7838 120.882 25.7138 121.302 25.5738C121.722 25.4338 122.012 25.2338 122.172 24.9738C122.332 24.6938 122.412 24.3838 122.412 24.0438C122.412 23.6238 122.282 23.3038 122.022 23.0838C121.762 22.8438 121.362 22.6538 120.822 22.5138C120.282 22.3738 119.592 22.2438 118.752 22.1238C117.912 21.9838 117.102 21.8138 116.322 21.6138C115.542 21.4138 114.852 21.1538 114.252 20.8338C113.652 20.4938 113.172 20.0738 112.812 19.5738C112.472 19.0538 112.302 18.4238 112.302 17.6838C112.302 16.9638 112.472 16.3238 112.812 15.7638C113.172 15.2038 113.662 14.7338 114.282 14.3538C114.922 13.9738 115.662 13.6838 116.502 13.4838C117.362 13.2838 118.282 13.1838 119.262 13.1838C120.742 13.1838 121.972 13.4038 122.952 13.8438C123.932 14.2638 124.662 14.8638 125.142 15.6438C125.642 16.4038 125.892 17.2838 125.892 18.2838H122.442C122.282 17.5438 121.962 17.0138 121.482 16.6938C121.002 16.3538 120.262 16.1838 119.262 16.1838C118.282 16.1838 117.542 16.3338 117.042 16.6338C116.542 16.9338 116.292 17.3438 116.292 17.8638C116.292 18.2838 116.442 18.6138 116.742 18.8538C117.062 19.0738 117.522 19.2538 118.122 19.3938C118.742 19.5338 119.512 19.6838 120.432 19.8438C121.212 20.0038 121.952 20.1838 122.652 20.3838C123.372 20.5838 124.012 20.8438 124.572 21.1638C125.132 21.4638 125.572 21.8738 125.892 22.3938C126.232 22.8938 126.402 23.5338 126.402 24.3138C126.402 25.2738 126.122 26.0838 125.562 26.7438C125.022 27.4038 124.242 27.9138 123.222 28.2738C122.202 28.6138 120.982 28.7838 119.562 28.7838C118.302 28.7838 117.212 28.6538 116.292 28.3938C115.392 28.1138 114.642 27.7638 114.042 27.3438C113.442 26.9038 112.972 26.4438 112.632 25.9638C112.312 25.4638 112.092 24.9938 111.972 24.5538C111.852 24.1138 111.812 23.7538 111.852 23.4738ZM128.336 13.5138H139.916V16.5438H128.336V13.5138ZM132.176 9.43383H136.076V28.4238H132.176V9.43383ZM149.63 13.5138H153.53V28.4238H149.63V13.5138ZM160.46 13.1838C161.38 13.1838 162.23 13.3038 163.01 13.5438C163.79 13.7838 164.47 14.1538 165.05 14.6538C165.63 15.1538 166.08 15.7938 166.4 16.5738C166.72 17.3338 166.88 18.2438 166.88 19.3038V28.4238H162.98V19.9938C162.98 18.7338 162.67 17.8138 162.05 17.2338C161.45 16.6338 160.46 16.3338 159.08 16.3338C158.04 16.3338 157.1 16.5338 156.26 16.9338C155.42 17.3338 154.74 17.8438 154.22 18.4638C153.7 19.0638 153.4 19.6938 153.32 20.3538L153.29 18.8238C153.39 18.1238 153.62 17.4438 153.98 16.7838C154.34 16.1238 154.82 15.5238 155.42 14.9838C156.04 14.4238 156.77 13.9838 157.61 13.6638C158.45 13.3438 159.4 13.1838 160.46 13.1838ZM173.45 13.1838C174.37 13.1838 175.22 13.3038 176 13.5438C176.78 13.7838 177.46 14.1538 178.04 14.6538C178.62 15.1538 179.07 15.7938 179.39 16.5738C179.73 17.3338 179.9 18.2438 179.9 19.3038V28.4238H176V19.9938C176 18.7338 175.69 17.8138 175.07 17.2338C174.45 16.6338 173.45 16.3338 172.07 16.3338C171.03 16.3338 170.09 16.5338 169.25 16.9338C168.41 17.3338 167.73 17.8438 167.21 18.4638C166.69 19.0638 166.4 19.6938 166.34 20.3538L166.28 18.7338C166.38 18.0738 166.62 17.4138 167 16.7538C167.38 16.0938 167.88 15.4938 168.5 14.9538C169.12 14.4138 169.84 13.9838 170.66 13.6638C171.5 13.3438 172.43 13.1838 173.45 13.1838ZM192.229 28.7838C190.349 28.7838 188.689 28.4838 187.249 27.8838C185.829 27.2838 184.719 26.4138 183.919 25.2738C183.119 24.1138 182.719 22.6938 182.719 21.0138C182.719 19.3338 183.119 17.9138 183.919 16.7538C184.719 15.5738 185.829 14.6838 187.249 14.0838C188.689 13.4838 190.349 13.1838 192.229 13.1838C194.109 13.1838 195.749 13.4838 197.149 14.0838C198.569 14.6838 199.679 15.5738 200.479 16.7538C201.279 17.9138 201.679 19.3338 201.679 21.0138C201.679 22.6938 201.279 24.1138 200.479 25.2738C199.679 26.4138 198.569 27.2838 197.149 27.8838C195.749 28.4838 194.109 28.7838 192.229 28.7838ZM192.229 25.7838C193.269 25.7838 194.199 25.6038 195.019 25.2438C195.859 24.8638 196.519 24.3238 196.999 23.6238C197.479 22.9038 197.719 22.0338 197.719 21.0138C197.719 19.9938 197.479 19.1238 196.999 18.4038C196.519 17.6638 195.869 17.1038 195.049 16.7238C194.229 16.3438 193.289 16.1538 192.229 16.1538C191.189 16.1538 190.249 16.3438 189.409 16.7238C188.569 17.1038 187.899 17.6538 187.399 18.3738C186.919 19.0938 186.679 19.9738 186.679 21.0138C186.679 22.0338 186.919 22.9038 187.399 23.6238C187.879 24.3238 188.539 24.8638 189.379 25.2438C190.219 25.6038 191.169 25.7838 192.229 25.7838ZM204.562 13.5138H208.462V28.4238H204.562V13.5138ZM215.392 13.1838C216.312 13.1838 217.162 13.3038 217.942 13.5438C218.722 13.7838 219.402 14.1538 219.982 14.6538C220.562 15.1538 221.012 15.7938 221.332 16.5738C221.652 17.3338 221.812 18.2438 221.812 19.3038V28.4238H217.912V19.9938C217.912 18.7338 217.602 17.8138 216.982 17.2338C216.382 16.6338 215.392 16.3338 214.012 16.3338C212.972 16.3338 212.032 16.5338 211.192 16.9338C210.352 17.3338 209.672 17.8438 209.152 18.4638C208.632 19.0638 208.332 19.6938 208.252 20.3538L208.222 18.8238C208.322 18.1238 208.552 17.4438 208.912 16.7838C209.272 16.1238 209.752 15.5238 210.352 14.9838C210.972 14.4238 211.702 13.9838 212.542 13.6638C213.382 13.3438 214.332 13.1838 215.392 13.1838ZM238.953 23.4738H242.733C242.573 24.4938 242.143 25.4038 241.443 26.2038C240.763 27.0038 239.833 27.6338 238.653 28.0938C237.473 28.5538 236.033 28.7838 234.333 28.7838C232.433 28.7838 230.753 28.4838 229.293 27.8838C227.833 27.2638 226.693 26.3738 225.873 25.2138C225.053 24.0538 224.643 22.6538 224.643 21.0138C224.643 19.3738 225.043 17.9738 225.843 16.8138C226.643 15.6338 227.753 14.7338 229.173 14.1138C230.613 13.4938 232.293 13.1838 234.213 13.1838C236.173 13.1838 237.803 13.4938 239.103 14.1138C240.403 14.7338 241.363 15.6738 241.983 16.9338C242.623 18.1738 242.893 19.7638 242.793 21.7038H228.573C228.673 22.4638 228.953 23.1538 229.413 23.7738C229.893 24.3938 230.533 24.8838 231.333 25.2438C232.153 25.6038 233.123 25.7838 234.243 25.7838C235.483 25.7838 236.513 25.5738 237.333 25.1538C238.173 24.7138 238.713 24.1538 238.953 23.4738ZM234.033 16.1538C232.593 16.1538 231.423 16.4738 230.523 17.1138C229.623 17.7338 229.043 18.5038 228.783 19.4238H238.923C238.823 18.4238 238.343 17.6338 237.483 17.0538C236.643 16.4538 235.493 16.1538 234.033 16.1538ZM243.759 13.5138H247.899L254.349 27.8238L250.989 28.4238L243.759 13.5138ZM261.999 13.5138L251.679 34.4238H247.629L252.039 26.2038L257.829 13.5138H261.999Z" fill="white"/>
<path d="M258.943 41.3906L176.977 41.8262" stroke="url(#paint0_linear_5363_55288)" stroke-linecap="round"/>
<defs>
<linearGradient id="paint0_linear_5363_55288" x1="262.511" y1="42.1084" x2="174.746" y2="42.3262" gradientUnits="userSpaceOnUse">
<stop stop-color="white"/>
<stop offset="1" stop-color="white" stop-opacity="0"/>
</linearGradient>
</defs>
</svg>
