<svg width="41" height="40" viewBox="0 0 41 40" fill="none" xmlns="http://www.w3.org/2000/svg">
<circle cx="20.7077" cy="20.0003" r="19.8723" fill="#F3FCF3"/>
<path d="M11.434 15.1424C11.434 14.6739 11.6201 14.2246 11.9514 13.8934C12.2826 13.5621 12.7319 13.376 13.2004 13.376H27.3318C27.8003 13.376 28.2496 13.5621 28.5809 13.8934C28.9122 14.2246 29.0983 14.6739 29.0983 15.1424V23.9745C29.0983 24.443 28.9122 24.8923 28.5809 25.2236C28.2496 25.5549 27.8003 25.741 27.3318 25.741H13.2004C12.7319 25.741 12.2826 25.5549 11.9514 25.2236C11.6201 24.8923 11.434 24.443 11.434 23.9745V15.1424Z" stroke="#23A323" stroke-width="1.76643" stroke-linecap="round" stroke-linejoin="round"/>
<path d="M20.2661 22.208C21.7295 22.208 22.9158 21.0217 22.9158 19.5583C22.9158 18.095 21.7295 16.9087 20.2661 16.9087C18.8028 16.9087 17.6165 18.095 17.6165 19.5583C17.6165 21.0217 18.8028 22.208 20.2661 22.208Z" stroke="#24811E" stroke-width="1.76643" stroke-linecap="round" stroke-linejoin="round"/>
<path d="M11.434 16.9088C12.371 16.9088 13.2696 16.5366 13.9321 15.8741C14.5946 15.2115 14.9668 14.3129 14.9668 13.376M25.5654 25.741C25.5654 24.804 25.9376 23.9054 26.6002 23.2429C27.2627 22.5803 28.1613 22.2081 29.0983 22.2081" stroke="#23A323" stroke-width="1.76643" stroke-linecap="round" stroke-linejoin="round"/>
</svg>
