<svg width="44" height="43" viewBox="0 0 44 43" fill="none" xmlns="http://www.w3.org/2000/svg">
<rect x="1.24463" y="0.759277" width="41.5714" height="41.5714" rx="5.83459" fill="#F2FCF2" stroke="#23A323" stroke-width="1.09398"/>
<path d="M11.4541 16.6608C11.4541 16.1186 11.6695 15.5985 12.053 15.2151C12.4364 14.8316 12.9564 14.6162 13.4987 14.6162H29.8556C30.3978 14.6162 30.9179 14.8316 31.3013 15.2151C31.6848 15.5985 31.9002 16.1186 31.9002 16.6608V26.8839C31.9002 27.4261 31.6848 27.9462 31.3013 28.3296C30.9179 28.7131 30.3978 28.9285 29.8556 28.9285H13.4987C12.9564 28.9285 12.4364 28.7131 12.053 28.3296C11.6695 27.9462 11.4541 27.4261 11.4541 26.8839V16.6608Z" stroke="#23A323" stroke-width="2.04461" stroke-linecap="round" stroke-linejoin="round"/>
<path d="M21.6773 24.8399C23.3711 24.8399 24.7442 23.4668 24.7442 21.773C24.7442 20.0792 23.3711 18.7061 21.6773 18.7061C19.9835 18.7061 18.6104 20.0792 18.6104 21.773C18.6104 23.4668 19.9835 24.8399 21.6773 24.8399Z" stroke="#23A323" stroke-width="2.04461" stroke-linecap="round" stroke-linejoin="round"/>
<path d="M11.4541 18.7054C12.5386 18.7054 13.5787 18.2746 14.3456 17.5077C15.1125 16.7408 15.5433 15.7007 15.5433 14.6162M27.811 28.9285C27.811 27.8439 28.2418 26.8038 29.0087 26.037C29.7755 25.2701 30.8157 24.8393 31.9002 24.8393" stroke="#23A323" stroke-width="2.04461" stroke-linecap="round" stroke-linejoin="round"/>
</svg>
