<svg width="520" height="246" viewBox="0 0 520 246" fill="none" xmlns="http://www.w3.org/2000/svg">
<g clip-path="url(#clip0_7192_66975)">
<path d="M487.632 102.977C488.78 110.654 484.584 128.356 464 133" stroke="white" stroke-linecap="round"/>
<path d="M155.462 50.4829C155.264 42.7235 161.599 25.6692 182.597 23.5845" stroke="white" stroke-linecap="round"/>
<path d="M44.0336 94.3937L45.1926 92.878L40.4359 89.2407L41.245 88.1826L47.2695 92.7894L42.5534 98.9569L36.5385 94.3574L37.3476 93.2993L42.0947 96.9293L43.2683 95.3946L39.379 92.4206L40.1444 91.4197L44.0336 94.3937Z" fill="#228B22"/>
<path d="M29.898 86.5399C29.3676 85.8478 29.0073 85.2067 28.8172 84.6167C28.627 84.0266 28.5702 83.4856 28.6467 82.9935C28.712 82.5 28.885 82.055 29.1657 81.6585C29.4415 81.2556 29.7826 80.8984 30.189 80.587C30.5954 80.2756 31.037 80.043 31.5138 79.8892C31.9858 79.7291 32.4773 79.68 32.9884 79.7419C33.4882 79.8023 34.0015 79.9986 34.5282 80.3307C35.0436 80.6614 35.5544 81.1569 36.0605 81.8173L38.7612 85.3414L32.5987 90.0641L29.898 86.5399ZM36.7046 84.9068L34.9966 82.678C34.6462 82.2208 34.3027 81.8843 33.966 81.6686C33.6181 81.4514 33.2808 81.3269 32.9541 81.2951C32.6273 81.2633 32.3141 81.3018 32.0144 81.4105C31.7147 81.5192 31.4347 81.6733 31.1744 81.8728C30.9141 82.0724 30.6956 82.3002 30.5191 82.5565C30.3425 82.8127 30.2303 83.1003 30.1824 83.4192C30.1345 83.7381 30.1734 84.0914 30.299 84.4789C30.4198 84.86 30.6553 85.2792 31.0057 85.7364L32.7137 87.9652L36.7046 84.9068Z" fill="#228B22"/>
<path d="M26.1528 69.7569L22.1286 71.3607L21.5378 69.8781L25.718 68.2121C26.1937 68.0226 26.638 67.9273 27.0509 67.9264C27.461 67.918 27.839 67.9912 28.1849 68.1462C28.5308 68.3011 28.85 68.5184 29.1423 68.7981C29.4242 69.0733 29.6785 69.3982 29.9053 69.7728C30.1292 70.14 30.3285 70.5429 30.5032 70.9813C30.6839 71.4347 30.8222 71.879 30.9182 72.3144C31.0143 72.7498 31.0561 73.1681 31.0437 73.5691C31.0209 73.9658 30.9357 74.3356 30.7882 74.6785C30.6407 75.0215 30.4168 75.3347 30.1163 75.618C29.8129 75.894 29.4234 76.1267 28.9478 76.3163L24.7675 77.9822L24.1767 76.4996L28.2008 74.8959C28.7656 74.6708 29.1523 74.3875 29.3607 74.0461C29.5616 73.7076 29.6409 73.323 29.5983 72.8921C29.5454 72.4568 29.4197 71.9902 29.2213 71.4922C29.0288 71.0092 28.805 70.5989 28.5499 70.2613C28.2844 69.9193 27.9623 69.6946 27.5836 69.5872C27.1946 69.4752 26.7176 69.5318 26.1528 69.7569Z" fill="#228B22"/>
<path d="M24.5011 54.7004C25.1292 54.7069 25.6813 54.8701 26.1573 55.1902C26.6333 55.5102 27.0197 55.9724 27.3164 56.5767C27.6131 57.1811 27.807 57.9168 27.898 58.7841C27.974 59.5081 27.9602 60.1812 27.8566 60.8034C27.7522 61.4177 27.5558 61.9612 27.2676 62.4338C26.9785 62.8985 26.5999 63.2761 26.1317 63.5666C25.6555 63.8579 25.0832 64.0386 24.4149 64.1088C23.7466 64.179 23.1492 64.121 22.6229 63.9349C22.0966 63.7489 21.6439 63.4585 21.2646 63.064C20.8765 62.6623 20.5676 62.1719 20.3379 61.5927C20.0994 61.0064 19.9422 60.3512 19.8661 59.6272C19.7751 58.76 19.8159 57.9996 19.9887 57.3459C20.1605 56.6844 20.45 56.1472 20.8572 55.7345C21.2563 55.3225 21.7669 55.0518 22.3887 54.9221L22.5541 56.4975C22.2308 56.636 21.9627 56.8411 21.7499 57.1128C21.5283 57.3774 21.3739 57.7073 21.2867 58.1026C21.1995 58.4978 21.1835 58.958 21.2386 59.4831C21.3071 60.1355 21.4707 60.6975 21.7293 61.1691C21.98 61.6415 22.3184 61.9921 22.7447 62.2209C23.1629 62.4504 23.6624 62.5348 24.2432 62.4738C24.8161 62.4137 25.2833 62.2279 25.6447 61.9164C26.0062 61.605 26.2645 61.1918 26.4195 60.6768C26.5667 60.1626 26.606 59.5793 26.5375 58.9269C26.4824 58.4018 26.3715 57.9589 26.205 57.5983C26.0376 57.2298 25.822 56.9387 25.5583 56.7251C25.2937 56.5035 24.9964 56.3537 24.6665 56.2757L24.5011 54.7004Z" fill="#228B22"/>
<path d="M26.3431 49.6631L25.028 49.4515L25.8437 44.3807L27.1588 44.5923L26.3431 49.6631ZM27.7067 51.8393L20.6207 47.0045L20.8951 45.2985L29.1456 42.8943L28.8693 44.6122L21.4551 46.6526L21.5771 45.8943L27.9812 50.1332L27.7067 51.8393Z" fill="#228B22"/>
<path d="M23.0046 37.6047L26.2894 30.1088L27.5094 30.6434L24.2246 38.1393L23.0046 37.6047ZM25.3952 35.0493L26.0358 33.5875L32.0808 36.2366L31.4403 37.6984L25.3952 35.0493Z" fill="#228B22"/>
<path d="M29.5968 25.2865L30.5297 23.9915L36.8293 28.5297L35.8964 29.8247L29.5968 25.2865Z" fill="#228B22"/>
<path d="M44.0017 21.2905C43.229 21.9746 42.4611 22.4409 41.6979 22.6892C40.9354 22.9262 40.2086 22.95 39.5173 22.7606C38.8321 22.566 38.2111 22.1542 37.6542 21.5252C37.0921 20.8903 36.7559 20.221 36.6457 19.5172C36.5414 18.8081 36.6558 18.0925 36.9887 17.3703C37.3223 16.6369 37.8755 15.9281 38.6481 15.244C39.4268 14.5545 40.1974 14.0913 40.9599 13.8543C41.7171 13.6113 42.4383 13.5872 43.1235 13.7818C43.8147 13.9712 44.4414 14.3833 45.0036 15.0182C45.5604 15.6472 45.8909 16.3162 45.9952 17.0252C46.1054 17.729 45.9967 18.445 45.6691 19.1732C45.3362 19.8953 44.7804 20.6011 44.0017 21.2905ZM43.0869 20.2573C43.5661 19.8331 43.9217 19.39 44.1538 18.928C44.3919 18.4608 44.4829 17.9903 44.4267 17.5164C44.3764 17.0373 44.1525 16.5732 43.7547 16.124C43.357 15.6747 42.9234 15.3962 42.4539 15.2883C41.9904 15.1751 41.5123 15.2084 41.0196 15.3881C40.5277 15.5566 40.0421 15.8529 39.5629 16.2772C39.0898 16.6961 38.7338 17.1449 38.495 17.6234C38.2509 18.096 38.154 18.5718 38.2042 19.0509C38.2544 19.53 38.4784 19.9942 38.8761 20.4434C39.2739 20.8926 39.7075 21.1712 40.177 21.2791C40.6465 21.3869 41.1305 21.3484 41.6292 21.1633C42.1278 20.9783 42.6137 20.6763 43.0869 20.2573Z" fill="#228B22"/>
<path d="M56.5664 11.8978L56.2013 12.3008L53.4243 6.55241L54.8614 5.85815L58.2387 12.8491L56.8016 13.5434L48.4831 10.752L48.8482 10.349L51.6043 16.0542L50.1673 16.7484L46.7899 9.75747L48.227 9.06321L56.5664 11.8978Z" fill="#228B22"/>
<path d="M62.4724 10.3168L62.2261 9.00781L67.2736 8.05826L67.5198 9.3673L62.4724 10.3168ZM60.8865 12.3369L63.0362 4.03226L64.7344 3.71279L69.7903 10.6618L68.0803 10.9835L63.6499 4.69828L64.4047 4.55629L62.5847 12.0174L60.8865 12.3369Z" fill="#228B22"/>
<path d="M74.9627 3.24581L74.5285 9.66313L79.6767 10.0115L79.5868 11.3405L72.8462 10.8843L73.3704 3.13805L74.9627 3.24581Z" fill="#228B22"/>
<path d="M96.2426 8.91091L93.2149 14.5858L97.7675 17.0147L97.1405 18.1899L91.1798 15.0097L94.8345 8.15964L96.2426 8.91091Z" fill="#228B22"/>
<path d="M104.043 24.2577C103.291 23.5511 102.756 22.8292 102.439 22.092C102.133 21.3545 102.043 20.6329 102.168 19.9272C102.299 19.227 102.652 18.5708 103.227 17.9586C103.807 17.3405 104.443 16.9443 105.134 16.7699C105.83 16.601 106.553 16.6492 107.303 16.9144C108.064 17.1793 108.821 17.6651 109.573 18.3717C110.331 19.0838 110.863 19.8086 111.169 20.5461C111.48 21.2778 111.571 21.9937 111.44 22.6939C111.315 23.3996 110.962 24.0615 110.381 24.6796C109.806 25.2918 109.17 25.6823 108.474 25.8512C107.783 26.0256 107.06 25.9831 106.305 25.7237C105.555 25.4584 104.801 24.9698 104.043 24.2577ZM104.988 23.2519C105.455 23.6901 105.928 24.0036 106.41 24.1923C106.897 24.3865 107.374 24.4339 107.84 24.3344C108.313 24.2404 108.755 23.9748 109.165 23.5375C109.576 23.1002 109.814 22.6428 109.878 22.1654C109.948 21.6935 109.871 21.2205 109.647 20.7464C109.434 20.272 109.094 19.8157 108.628 19.3775C108.167 18.9447 107.688 18.6314 107.189 18.4376C106.696 18.2379 106.214 18.1851 105.741 18.2791C105.269 18.3731 104.827 18.6387 104.416 19.076C104.005 19.5133 103.768 19.9706 103.704 20.4481C103.639 20.9255 103.722 21.4039 103.952 21.8835C104.182 22.363 104.527 22.8192 104.988 23.2519Z" fill="#228B22"/>
<path d="M111.197 30.1631L112.331 29.464L115.026 33.8358L113.893 34.5348L111.197 30.1631ZM108.743 29.4065L117.266 28.4369L118.173 29.9078L113.498 37.1185L112.585 35.6374L116.864 29.2486L117.267 29.9023L109.65 30.8774L108.743 29.4065Z" fill="#228B22"/>
<path d="M118.164 47.1122L117.825 46.687L123.945 44.871L124.399 46.4011L116.956 48.6096L116.502 47.0795L120.596 39.3185L120.934 39.7437L114.86 41.546L114.406 40.0159L121.849 37.8074L122.303 39.3375L118.164 47.1122Z" fill="#228B22"/>
<path d="M119.626 51.4464L119.683 53.0654C119.412 53.1069 119.168 53.2395 118.952 53.4632C118.744 53.6946 118.582 53.9924 118.467 54.3566C118.36 54.7206 118.314 55.1265 118.329 55.5742C118.344 55.9819 118.399 56.3162 118.496 56.577C118.594 56.8377 118.724 57.0293 118.889 57.1516C119.053 57.2739 119.247 57.3312 119.471 57.3234C119.687 57.3158 119.848 57.2302 119.954 57.0664C120.069 56.9023 120.156 56.6471 120.216 56.3008C120.284 55.9542 120.348 55.4997 120.408 54.9372C120.457 54.4952 120.53 54.0764 120.629 53.6808C120.735 53.2848 120.875 52.9317 121.048 52.6215C121.222 52.3192 121.437 52.0756 121.695 51.8904C121.961 51.7131 122.278 51.6179 122.645 51.6051C123.101 51.5892 123.505 51.7031 123.858 51.947C124.211 52.1988 124.493 52.5772 124.702 53.0822C124.912 53.5872 125.03 54.2114 125.056 54.955C125.095 56.0743 124.885 56.9422 124.426 57.5586C123.976 58.1827 123.335 58.5012 122.503 58.5143L122.448 56.9552C122.919 56.9068 123.252 56.695 123.447 56.32C123.642 55.953 123.73 55.4936 123.711 54.9419C123.693 54.4303 123.602 54.0092 123.438 53.6787C123.275 53.3562 123.009 53.2014 122.642 53.2142C122.498 53.2192 122.371 53.2637 122.262 53.3475C122.161 53.4311 122.074 53.5702 122 53.7649C121.927 53.9596 121.86 54.2221 121.8 54.5524C121.739 54.8827 121.682 55.293 121.627 55.7832C121.579 56.2412 121.505 56.656 121.406 57.0277C121.315 57.4071 121.186 57.7318 121.02 58.0017C120.861 58.2794 120.653 58.4949 120.394 58.648C120.135 58.8011 119.814 58.8844 119.43 58.8978C118.958 58.9143 118.542 58.8047 118.182 58.5692C117.83 58.3413 117.549 57.9749 117.339 57.4699C117.129 56.9729 117.011 56.3207 116.982 55.5132C116.962 54.9375 117.005 54.4277 117.109 53.9838C117.222 53.5396 117.376 53.154 117.573 52.8269C117.77 52.4998 117.989 52.232 118.229 52.0235C118.47 51.815 118.713 51.6624 118.958 51.5658C119.203 51.4772 119.426 51.4374 119.626 51.4464Z" fill="#228B22"/>
<path d="M60.2914 86.5386H67.7164C67.8631 87.7852 68.4314 88.9219 69.4214 89.9486C70.4481 90.9386 71.7864 91.7269 73.4364 92.3136C75.0864 92.8636 76.9381 93.1386 78.9914 93.1386C80.8614 93.1386 82.4014 92.9369 83.6114 92.5336C84.8214 92.1302 85.7197 91.5619 86.3064 90.8286C86.8931 90.0952 87.1864 89.2152 87.1864 88.1886C87.1864 87.1986 86.8197 86.4469 86.0864 85.9336C85.3531 85.3836 84.1981 84.9436 82.6214 84.6136C81.0447 84.2469 78.9731 83.8802 76.4064 83.5136C74.3897 83.2202 72.4831 82.8169 70.6864 82.3036C68.8897 81.7536 67.2947 81.0569 65.9014 80.2136C64.5447 79.3702 63.4631 78.3436 62.6564 77.1336C61.8864 75.8869 61.5014 74.4202 61.5014 72.7336C61.5014 70.6436 62.0881 68.8102 63.2614 67.2336C64.4714 65.6569 66.2497 64.4286 68.5964 63.5486C70.9431 62.6686 73.8214 62.2286 77.2314 62.2286C82.3647 62.2286 86.3064 63.3286 89.0564 65.5286C91.8431 67.6919 93.1997 70.6802 93.1264 74.4936H85.9764C85.8297 72.3302 84.9131 70.7719 83.2264 69.8186C81.5764 68.8652 79.4864 68.3886 76.9564 68.3886C74.6097 68.3886 72.6664 68.7369 71.1264 69.4336C69.6231 70.1302 68.8714 71.3219 68.8714 73.0086C68.8714 73.6686 69.0547 74.2552 69.4214 74.7686C69.7881 75.2452 70.4114 75.6669 71.2914 76.0336C72.1714 76.4002 73.3631 76.7486 74.8664 77.0786C76.3697 77.4086 78.2397 77.7386 80.4764 78.0686C82.5664 78.3619 84.4547 78.7652 86.1414 79.2786C87.8647 79.7552 89.3314 80.3969 90.5414 81.2036C91.7881 81.9736 92.7414 82.9636 93.4014 84.1736C94.0614 85.3836 94.3914 86.8686 94.3914 88.6286C94.3914 90.7919 93.8231 92.6802 92.6864 94.2936C91.5864 95.8702 89.8631 97.0986 87.5164 97.9786C85.2064 98.8586 82.1997 99.2986 78.4964 99.2986C75.8564 99.2986 73.5281 99.0236 71.5114 98.4736C69.4947 97.8869 67.7531 97.1169 66.2864 96.1636C64.8197 95.2102 63.6281 94.1652 62.7114 93.0286C61.7947 91.8919 61.1347 90.7552 60.7314 89.6186C60.3647 88.4819 60.2181 87.4552 60.2914 86.5386ZM124.88 98.5286V83.5136C124.88 82.0102 124.623 80.7636 124.11 79.7736C123.597 78.7836 122.772 78.0319 121.635 77.5186C120.535 77.0052 119.05 76.7486 117.18 76.7486C115.383 76.7486 113.752 77.0969 112.285 77.7936C110.818 78.4536 109.627 79.3336 108.71 80.4336C107.793 81.4969 107.28 82.6336 107.17 83.8436L107.115 80.8186C107.298 79.6086 107.72 78.3986 108.38 77.1886C109.04 75.9786 109.92 74.8786 111.02 73.8886C112.12 72.8986 113.44 72.1102 114.98 71.5236C116.557 70.9002 118.317 70.5886 120.26 70.5886C121.947 70.5886 123.505 70.8086 124.935 71.2486C126.365 71.6519 127.612 72.2936 128.675 73.1736C129.738 74.0536 130.563 75.1536 131.15 76.4736C131.737 77.7569 132.03 79.2786 132.03 81.0386V98.5286H124.88ZM100.405 98.5286V60.1936H107.555V98.5286H100.405ZM151.838 99.1336C149.125 99.1336 146.65 98.5469 144.413 97.3736C142.213 96.1636 140.453 94.4952 139.133 92.3686C137.85 90.2052 137.208 87.7119 137.208 84.8886C137.208 81.9919 137.868 79.4802 139.188 77.3536C140.508 75.2269 142.286 73.5769 144.523 72.4036C146.796 71.1936 149.363 70.5886 152.223 70.5886C155.376 70.5886 157.906 71.2302 159.813 72.5136C161.756 73.7602 163.168 75.4652 164.048 77.6286C164.928 79.7919 165.368 82.2119 165.368 84.8886C165.368 86.5019 165.111 88.1519 164.598 89.8386C164.085 91.4886 163.296 93.0286 162.233 94.4586C161.17 95.8519 159.776 96.9886 158.053 97.8686C156.33 98.7119 154.258 99.1336 151.838 99.1336ZM154.148 93.6336C156.311 93.6336 158.181 93.2669 159.758 92.5336C161.335 91.8002 162.545 90.7736 163.388 89.4536C164.231 88.1336 164.653 86.6119 164.653 84.8886C164.653 83.0186 164.213 81.4419 163.333 80.1586C162.49 78.8386 161.28 77.8486 159.703 77.1886C158.163 76.4919 156.311 76.1436 154.148 76.1436C151.105 76.1436 148.74 76.9502 147.053 78.5636C145.366 80.1402 144.523 82.2486 144.523 84.8886C144.523 86.6486 144.926 88.1886 145.733 89.5086C146.54 90.7919 147.658 91.8002 149.088 92.5336C150.555 93.2669 152.241 93.6336 154.148 93.6336ZM164.653 71.1936H171.803V98.5286H165.148C165.148 98.5286 165.093 98.1802 164.983 97.4836C164.91 96.7502 164.836 95.8336 164.763 94.7336C164.69 93.6336 164.653 92.5519 164.653 91.4886V71.1936ZM198.184 99.1886C195.764 99.1886 193.692 98.7669 191.969 97.9236C190.282 97.0436 188.907 95.9069 187.844 94.5136C186.781 93.0836 185.992 91.5252 185.479 89.8386C184.966 88.1519 184.709 86.5019 184.709 84.8886C184.709 82.8719 184.947 81.0019 185.424 79.2786C185.937 77.5552 186.726 76.0519 187.789 74.7686C188.852 73.4486 190.227 72.4219 191.914 71.6886C193.637 70.9552 195.727 70.5886 198.184 70.5886C200.934 70.5886 203.409 71.1936 205.609 72.4036C207.809 73.6136 209.551 75.3002 210.834 77.4636C212.154 79.5902 212.814 82.0652 212.814 84.8886C212.814 87.7852 212.154 90.3152 210.834 92.4786C209.514 94.6052 207.754 96.2552 205.554 97.4286C203.354 98.6019 200.897 99.1886 198.184 99.1886ZM195.874 93.6336C197.817 93.6336 199.504 93.2669 200.934 92.5336C202.401 91.8002 203.519 90.7919 204.289 89.5086C205.096 88.1886 205.499 86.6486 205.499 84.8886C205.499 82.2486 204.656 80.1219 202.969 78.5086C201.319 76.8952 198.954 76.0886 195.874 76.0886C193.931 76.0886 192.152 76.4369 190.539 77.1336C188.962 77.8302 187.716 78.8386 186.799 80.1586C185.882 81.4419 185.424 83.0186 185.424 84.8886C185.424 86.6486 185.846 88.1886 186.689 89.5086C187.532 90.7919 188.742 91.8002 190.319 92.5336C191.896 93.2669 193.747 93.6336 195.874 93.6336ZM178.274 71.1936H185.094L185.424 78.4536V109.529H178.274V71.1936ZM242.989 89.4536H249.919C249.626 91.3236 248.837 92.9919 247.554 94.4586C246.307 95.9252 244.602 97.0802 242.439 97.9236C240.276 98.7669 237.636 99.1886 234.519 99.1886C231.036 99.1886 227.956 98.6386 225.279 97.5386C222.602 96.4019 220.512 94.7702 219.009 92.6436C217.506 90.5169 216.754 87.9502 216.754 84.9436C216.754 81.9369 217.487 79.3702 218.954 77.2436C220.421 75.0802 222.456 73.4302 225.059 72.2936C227.699 71.1569 230.779 70.5886 234.299 70.5886C237.892 70.5886 240.881 71.1569 243.264 72.2936C245.647 73.4302 247.407 75.1536 248.544 77.4636C249.717 79.7369 250.212 82.6519 250.029 86.2086H223.959C224.142 87.6019 224.656 88.8669 225.499 90.0036C226.379 91.1402 227.552 92.0386 229.019 92.6986C230.522 93.3586 232.301 93.6886 234.354 93.6886C236.627 93.6886 238.516 93.3036 240.019 92.5336C241.559 91.7269 242.549 90.7002 242.989 89.4536ZM233.969 76.0336C231.329 76.0336 229.184 76.6202 227.534 77.7936C225.884 78.9302 224.821 80.3419 224.344 82.0286H242.934C242.751 80.1952 241.871 78.7469 240.294 77.6836C238.754 76.5836 236.646 76.0336 233.969 76.0336ZM385.54 71.1936H393.13L404.955 97.4286L398.795 98.5286L385.54 71.1936ZM418.98 71.1936L400.06 109.529H392.635L400.72 94.4586L411.335 71.1936H418.98ZM438.022 99.1886C434.575 99.1886 431.532 98.6386 428.892 97.5386C426.289 96.4386 424.254 94.8436 422.787 92.7536C421.32 90.6269 420.587 88.0236 420.587 84.9436C420.587 81.8636 421.32 79.2602 422.787 77.1336C424.254 74.9702 426.289 73.3386 428.892 72.2386C431.532 71.1386 434.575 70.5886 438.022 70.5886C441.469 70.5886 444.475 71.1386 447.042 72.2386C449.645 73.3386 451.68 74.9702 453.147 77.1336C454.614 79.2602 455.347 81.8636 455.347 84.9436C455.347 88.0236 454.614 90.6269 453.147 92.7536C451.68 94.8436 449.645 96.4386 447.042 97.5386C444.475 98.6386 441.469 99.1886 438.022 99.1886ZM438.022 93.6886C439.929 93.6886 441.634 93.3586 443.137 92.6986C444.677 92.0019 445.887 91.0119 446.767 89.7286C447.647 88.4086 448.087 86.8136 448.087 84.9436C448.087 83.0736 447.647 81.4786 446.767 80.1586C445.887 78.8019 444.695 77.7752 443.192 77.0786C441.689 76.3819 439.965 76.0336 438.022 76.0336C436.115 76.0336 434.392 76.3819 432.852 77.0786C431.312 77.7752 430.084 78.7836 429.167 80.1036C428.287 81.4236 427.847 83.0369 427.847 84.9436C427.847 86.8136 428.287 88.4086 429.167 89.7286C430.047 91.0119 431.257 92.0019 432.797 92.6986C434.337 93.3586 436.079 93.6886 438.022 93.6886ZM492.258 98.5286H485.108V71.1936H492.258V98.5286ZM485.493 85.3836L485.548 87.2536C485.474 87.7669 485.291 88.5186 484.998 89.5086C484.704 90.4619 484.246 91.4886 483.623 92.5886C483.036 93.6886 482.266 94.7519 481.313 95.7786C480.359 96.7686 479.186 97.5936 477.793 98.2536C476.399 98.8769 474.749 99.1886 472.843 99.1886C471.339 99.1886 469.854 99.0052 468.388 98.6386C466.958 98.2719 465.656 97.6669 464.483 96.8236C463.309 95.9436 462.374 94.7702 461.678 93.3036C460.981 91.8369 460.633 89.9852 460.633 87.7486V71.1936H467.783V86.5386C467.783 88.2986 468.058 89.6919 468.608 90.7186C469.194 91.7086 470.038 92.4052 471.138 92.8086C472.238 93.2119 473.539 93.4136 475.043 93.4136C477.023 93.4136 478.728 92.9919 480.158 92.1486C481.588 91.2686 482.743 90.2052 483.623 88.9586C484.539 87.7119 485.163 86.5202 485.493 85.3836ZM498.767 71.1936H505.917V98.5286H498.767V71.1936ZM516.422 77.0786C514.369 77.0786 512.591 77.4819 511.087 78.2886C509.584 79.0586 508.374 80.0119 507.457 81.1486C506.541 82.2852 505.899 83.3852 505.532 84.4486L505.477 81.4236C505.514 80.9836 505.661 80.3419 505.917 79.4986C506.174 78.6186 506.559 77.6836 507.072 76.6936C507.586 75.6669 508.264 74.6952 509.107 73.7786C509.951 72.8252 510.977 72.0552 512.187 71.4686C513.397 70.8819 514.809 70.5886 516.422 70.5886V77.0786ZM59.7964 137.689H81.7964V143.134H59.7964V137.689ZM76.5164 126.194H82.1814V131.969H78.2214C77.1581 131.932 76.2414 132.042 75.4714 132.299C74.7014 132.555 74.1147 133.032 73.7114 133.729C73.3081 134.389 73.1064 135.342 73.1064 136.589V164.529H65.9564V135.709C65.9564 133.509 66.3597 131.712 67.1664 130.319C67.9731 128.889 69.1647 127.844 70.7414 127.184C72.3181 126.524 74.2431 126.194 76.5164 126.194ZM117.892 164.529H110.742V137.194H117.892V164.529ZM111.127 151.384L111.182 153.254C111.109 153.767 110.926 154.519 110.632 155.509C110.339 156.462 109.881 157.489 109.257 158.589C108.671 159.689 107.901 160.752 106.947 161.779C105.994 162.769 104.821 163.594 103.427 164.254C102.034 164.877 100.384 165.189 98.4773 165.189C96.974 165.189 95.489 165.005 94.0223 164.639C92.5923 164.272 91.2906 163.667 90.1173 162.824C88.944 161.944 88.009 160.77 87.3123 159.304C86.6156 157.837 86.2673 155.985 86.2673 153.749V137.194H93.4173V152.539C93.4173 154.299 93.6923 155.692 94.2423 156.719C94.829 157.709 95.6723 158.405 96.7723 158.809C97.8723 159.212 99.174 159.414 100.677 159.414C102.657 159.414 104.362 158.992 105.792 158.149C107.222 157.269 108.377 156.205 109.257 154.959C110.174 153.712 110.797 152.52 111.127 151.384ZM122.477 137.194H143.707V142.749H122.477V137.194ZM129.517 129.714H136.667V164.529H129.517V129.714ZM179.875 164.529H172.725V137.194H179.875V164.529ZM173.11 151.384L173.165 153.254C173.091 153.767 172.908 154.519 172.615 155.509C172.321 156.462 171.863 157.489 171.24 158.589C170.653 159.689 169.883 160.752 168.93 161.779C167.976 162.769 166.803 163.594 165.41 164.254C164.016 164.877 162.366 165.189 160.46 165.189C158.956 165.189 157.471 165.005 156.005 164.639C154.575 164.272 153.273 163.667 152.1 162.824C150.926 161.944 149.991 160.77 149.295 159.304C148.598 157.837 148.25 155.985 148.25 153.749V137.194H155.4V152.539C155.4 154.299 155.675 155.692 156.225 156.719C156.811 157.709 157.655 158.405 158.755 158.809C159.855 159.212 161.156 159.414 162.66 159.414C164.64 159.414 166.345 158.992 167.775 158.149C169.205 157.269 170.36 156.205 171.24 154.959C172.156 153.712 172.78 152.52 173.11 151.384ZM186.384 137.194H193.534V164.529H186.384V137.194ZM204.039 143.079C201.986 143.079 200.208 143.482 198.704 144.289C197.201 145.059 195.991 146.012 195.074 147.149C194.158 148.285 193.516 149.385 193.149 150.449L193.094 147.424C193.131 146.984 193.278 146.342 193.534 145.499C193.791 144.619 194.176 143.684 194.689 142.694C195.203 141.667 195.881 140.695 196.724 139.779C197.568 138.825 198.594 138.055 199.804 137.469C201.014 136.882 202.426 136.589 204.039 136.589V143.079ZM233.375 155.454H240.305C240.011 157.324 239.223 158.992 237.94 160.459C236.693 161.925 234.988 163.08 232.825 163.924C230.661 164.767 228.021 165.189 224.905 165.189C221.421 165.189 218.341 164.639 215.665 163.539C212.988 162.402 210.898 160.77 209.395 158.644C207.891 156.517 207.14 153.95 207.14 150.944C207.14 147.937 207.873 145.37 209.34 143.244C210.806 141.08 212.841 139.43 215.445 138.294C218.085 137.157 221.165 136.589 224.685 136.589C228.278 136.589 231.266 137.157 233.65 138.294C236.033 139.43 237.793 141.154 238.93 143.464C240.103 145.737 240.598 148.652 240.415 152.209H214.345C214.528 153.602 215.041 154.867 215.885 156.004C216.765 157.14 217.938 158.039 219.405 158.699C220.908 159.359 222.686 159.689 224.74 159.689C227.013 159.689 228.901 159.304 230.405 158.534C231.945 157.727 232.935 156.7 233.375 155.454ZM224.355 142.034C221.715 142.034 219.57 142.62 217.92 143.794C216.27 144.93 215.206 146.342 214.73 148.029H233.32C233.136 146.195 232.256 144.747 230.68 143.684C229.14 142.584 227.031 142.034 224.355 142.034ZM294.642 159.579L292.387 159.524L301.297 137.194H309.162L297.117 164.529H290.407L281.607 142.474H284.027L274.952 164.529H268.242L256.527 137.194H264.392L272.972 159.579H270.717L278.747 137.194H286.942L294.642 159.579ZM321.552 125.204V131.474H313.247V125.204H321.552ZM313.797 137.194H320.947V164.529H313.797V137.194ZM326.149 137.194H347.379V142.749H326.149V137.194ZM333.189 129.714H340.339V164.529H333.189V129.714ZM376.892 164.529V149.514C376.892 148.01 376.635 146.764 376.122 145.774C375.608 144.784 374.783 144.032 373.647 143.519C372.547 143.005 371.062 142.749 369.192 142.749C367.395 142.749 365.763 143.097 364.297 143.794C362.83 144.454 361.638 145.334 360.722 146.434C359.805 147.497 359.292 148.634 359.182 149.844L359.127 146.819C359.31 145.609 359.732 144.399 360.392 143.189C361.052 141.979 361.932 140.879 363.032 139.889C364.132 138.899 365.452 138.11 366.992 137.524C368.568 136.9 370.328 136.589 372.272 136.589C373.958 136.589 375.517 136.809 376.947 137.249C378.377 137.652 379.623 138.294 380.687 139.174C381.75 140.054 382.575 141.154 383.162 142.474C383.748 143.757 384.042 145.279 384.042 147.039V164.529H376.892ZM352.417 164.529V126.194H359.567V164.529H352.417ZM401.881 137.194H423.111V142.749H401.881V137.194ZM408.921 129.714H416.071V164.529H408.921V129.714ZM452.624 164.529V149.514C452.624 148.01 452.367 146.764 451.854 145.774C451.341 144.784 450.516 144.032 449.379 143.519C448.279 143.005 446.794 142.749 444.924 142.749C443.127 142.749 441.496 143.097 440.029 143.794C438.562 144.454 437.371 145.334 436.454 146.434C435.537 147.497 435.024 148.634 434.914 149.844L434.859 146.819C435.042 145.609 435.464 144.399 436.124 143.189C436.784 141.979 437.664 140.879 438.764 139.889C439.864 138.899 441.184 138.11 442.724 137.524C444.301 136.9 446.061 136.589 448.004 136.589C449.691 136.589 451.249 136.809 452.679 137.249C454.109 137.652 455.356 138.294 456.419 139.174C457.482 140.054 458.307 141.154 458.894 142.474C459.481 143.757 459.774 145.279 459.774 147.039V164.529H452.624ZM428.149 164.529V126.194H435.299V164.529H428.149ZM491.187 155.454H498.117C497.824 157.324 497.036 158.992 495.752 160.459C494.506 161.925 492.801 163.08 490.637 163.924C488.474 164.767 485.834 165.189 482.717 165.189C479.234 165.189 476.154 164.639 473.477 163.539C470.801 162.402 468.711 160.77 467.207 158.644C465.704 156.517 464.952 153.95 464.952 150.944C464.952 147.937 465.686 145.37 467.152 143.244C468.619 141.08 470.654 139.43 473.257 138.294C475.897 137.157 478.977 136.589 482.497 136.589C486.091 136.589 489.079 137.157 491.462 138.294C493.846 139.43 495.606 141.154 496.742 143.464C497.916 145.737 498.411 148.652 498.227 152.209H472.157C472.341 153.602 472.854 154.867 473.697 156.004C474.577 157.14 475.751 158.039 477.217 158.699C478.721 159.359 480.499 159.689 482.552 159.689C484.826 159.689 486.714 159.304 488.217 158.534C489.757 157.727 490.747 156.7 491.187 155.454ZM482.167 142.034C479.527 142.034 477.382 142.62 475.732 143.794C474.082 144.93 473.019 146.342 472.542 148.029H491.132C490.949 146.195 490.069 144.747 488.492 143.684C486.952 142.584 484.844 142.034 482.167 142.034Z" fill="black"/>
<path d="M61.7214 203.194H68.8714V230.529H61.7214V203.194ZM79.3764 209.079C77.3231 209.079 75.5447 209.482 74.0414 210.289C72.5381 211.059 71.3281 212.012 70.4114 213.149C69.4947 214.285 68.8531 215.385 68.4864 216.449L68.4314 213.424C68.4681 212.984 68.6147 212.342 68.8714 211.499C69.1281 210.619 69.5131 209.684 70.0264 208.694C70.5397 207.667 71.2181 206.695 72.0614 205.779C72.9047 204.825 73.9314 204.055 75.1414 203.469C76.3514 202.882 77.7631 202.589 79.3764 202.589V209.079ZM91.9916 191.204V197.474H83.6866V191.204H91.9916ZM84.2366 203.194H91.3866V230.529H84.2366V203.194ZM112.153 226.349C109.183 226.349 106.562 225.909 104.288 225.029C102.052 224.112 100.31 222.774 99.0634 221.014C97.8167 219.254 97.1934 217.127 97.1934 214.634C97.1934 212.177 97.7984 210.05 99.0084 208.254C100.218 206.457 101.942 205.064 104.178 204.074C106.452 203.084 109.11 202.589 112.153 202.589C112.997 202.589 113.803 202.644 114.573 202.754C115.38 202.864 116.168 203.01 116.938 203.194L130.743 203.249V208.639C128.873 208.675 126.967 208.455 125.023 207.979C123.117 207.465 121.43 206.915 119.963 206.329L119.798 205.944C121.045 206.53 122.218 207.264 123.318 208.144C124.418 208.987 125.298 209.977 125.958 211.114C126.655 212.214 127.003 213.497 127.003 214.964C127.003 217.347 126.398 219.4 125.188 221.124C123.978 222.81 122.255 224.112 120.018 225.029C117.818 225.909 115.197 226.349 112.153 226.349ZM121.338 241.804V240.484C121.338 238.797 120.788 237.624 119.688 236.964C118.625 236.304 117.158 235.974 115.288 235.974H106.763C105.113 235.974 103.72 235.845 102.583 235.589C101.483 235.332 100.603 234.965 99.9434 234.489C99.2834 234.012 98.8067 233.444 98.5134 232.784C98.22 232.16 98.0734 231.482 98.0734 230.749C98.0734 229.282 98.55 228.182 99.5034 227.449C100.457 226.679 101.74 226.165 103.353 225.909C104.967 225.652 106.745 225.597 108.688 225.744L112.153 226.349C109.843 226.422 108.12 226.624 106.983 226.954C105.883 227.247 105.333 227.852 105.333 228.769C105.333 229.319 105.553 229.759 105.993 230.089C106.433 230.382 107.057 230.529 107.863 230.529H116.828C119.285 230.529 121.375 230.785 123.098 231.299C124.858 231.849 126.197 232.747 127.113 233.994C128.03 235.277 128.488 237.019 128.488 239.219V241.804H121.338ZM112.153 221.179C113.73 221.179 115.105 220.922 116.278 220.409C117.488 219.895 118.423 219.162 119.083 218.209C119.743 217.219 120.073 216.045 120.073 214.689C120.073 213.295 119.743 212.104 119.083 211.114C118.423 210.124 117.507 209.372 116.333 208.859C115.16 208.309 113.767 208.034 112.153 208.034C110.577 208.034 109.183 208.309 107.973 208.859C106.763 209.372 105.828 210.124 105.168 211.114C104.508 212.104 104.178 213.295 104.178 214.689C104.178 216.045 104.508 217.219 105.168 218.209C105.828 219.162 106.745 219.895 107.918 220.409C109.128 220.922 110.54 221.179 112.153 221.179ZM160.383 230.529V215.514C160.383 214.01 160.126 212.764 159.613 211.774C159.099 210.784 158.274 210.032 157.138 209.519C156.038 209.005 154.553 208.749 152.683 208.749C150.886 208.749 149.254 209.097 147.788 209.794C146.321 210.454 145.129 211.334 144.213 212.434C143.296 213.497 142.783 214.634 142.673 215.844L142.618 212.819C142.801 211.609 143.223 210.399 143.883 209.189C144.543 207.979 145.423 206.879 146.523 205.889C147.623 204.899 148.943 204.11 150.483 203.524C152.059 202.9 153.819 202.589 155.763 202.589C157.449 202.589 159.008 202.809 160.438 203.249C161.868 203.652 163.114 204.294 164.178 205.174C165.241 206.054 166.066 207.154 166.653 208.474C167.239 209.757 167.533 211.279 167.533 213.039V230.529H160.383ZM135.908 230.529V192.194H143.058V230.529H135.908ZM172.106 203.194H193.336V208.749H172.106V203.194ZM179.146 195.714H186.296V230.529H179.146V195.714ZM231.055 231.189C228.635 231.189 226.564 230.767 224.84 229.924C223.154 229.044 221.779 227.907 220.715 226.514C219.652 225.084 218.864 223.525 218.35 221.839C217.837 220.152 217.58 218.502 217.58 216.889C217.58 214.872 217.819 213.002 218.295 211.279C218.809 209.555 219.597 208.052 220.66 206.769C221.724 205.449 223.099 204.422 224.785 203.689C226.509 202.955 228.599 202.589 231.055 202.589C233.805 202.589 236.28 203.194 238.48 204.404C240.68 205.614 242.422 207.3 243.705 209.464C245.025 211.59 245.685 214.065 245.685 216.889C245.685 219.785 245.025 222.315 243.705 224.479C242.385 226.605 240.625 228.255 238.425 229.429C236.225 230.602 233.769 231.189 231.055 231.189ZM228.745 225.634C230.689 225.634 232.375 225.267 233.805 224.534C235.272 223.8 236.39 222.792 237.16 221.509C237.967 220.189 238.37 218.649 238.37 216.889C238.37 214.249 237.527 212.122 235.84 210.509C234.19 208.895 231.825 208.089 228.745 208.089C226.802 208.089 225.024 208.437 223.41 209.134C221.834 209.83 220.587 210.839 219.67 212.159C218.754 213.442 218.295 215.019 218.295 216.889C218.295 218.649 218.717 220.189 219.56 221.509C220.404 222.792 221.614 223.8 223.19 224.534C224.767 225.267 226.619 225.634 228.745 225.634ZM211.145 203.194H217.965L218.295 210.454V241.529H211.145V203.194ZM264.255 231.134C261.542 231.134 259.067 230.547 256.83 229.374C254.63 228.164 252.87 226.495 251.55 224.369C250.267 222.205 249.625 219.712 249.625 216.889C249.625 213.992 250.285 211.48 251.605 209.354C252.925 207.227 254.703 205.577 256.94 204.404C259.213 203.194 261.78 202.589 264.64 202.589C267.793 202.589 270.323 203.23 272.23 204.514C274.173 205.76 275.585 207.465 276.465 209.629C277.345 211.792 277.785 214.212 277.785 216.889C277.785 218.502 277.528 220.152 277.015 221.839C276.502 223.489 275.713 225.029 274.65 226.459C273.587 227.852 272.193 228.989 270.47 229.869C268.747 230.712 266.675 231.134 264.255 231.134ZM266.565 225.634C268.728 225.634 270.598 225.267 272.175 224.534C273.752 223.8 274.962 222.774 275.805 221.454C276.648 220.134 277.07 218.612 277.07 216.889C277.07 215.019 276.63 213.442 275.75 212.159C274.907 210.839 273.697 209.849 272.12 209.189C270.58 208.492 268.728 208.144 266.565 208.144C263.522 208.144 261.157 208.95 259.47 210.564C257.783 212.14 256.94 214.249 256.94 216.889C256.94 218.649 257.343 220.189 258.15 221.509C258.957 222.792 260.075 223.8 261.505 224.534C262.972 225.267 264.658 225.634 266.565 225.634ZM277.07 203.194H284.22V230.529H277.565C277.565 230.529 277.51 230.18 277.4 229.484C277.327 228.75 277.253 227.834 277.18 226.734C277.107 225.634 277.07 224.552 277.07 223.489V203.194ZM290.691 203.194H297.841V230.529H290.691V203.194ZM308.346 209.079C306.293 209.079 304.514 209.482 303.011 210.289C301.508 211.059 300.298 212.012 299.381 213.149C298.464 214.285 297.823 215.385 297.456 216.449L297.401 213.424C297.438 212.984 297.584 212.342 297.841 211.499C298.098 210.619 298.483 209.684 298.996 208.694C299.509 207.667 300.188 206.695 301.031 205.779C301.874 204.825 302.901 204.055 304.111 203.469C305.321 202.882 306.733 202.589 308.346 202.589V209.079ZM311.002 203.194H332.232V208.749H311.002V203.194ZM318.042 195.714H325.192V230.529H318.042V195.714ZM336.775 203.194H343.925V230.529H336.775V203.194ZM356.63 202.589C358.317 202.589 359.875 202.809 361.305 203.249C362.735 203.689 363.982 204.367 365.045 205.284C366.108 206.2 366.933 207.374 367.52 208.804C368.107 210.197 368.4 211.865 368.4 213.809V230.529H361.25V215.074C361.25 212.764 360.682 211.077 359.545 210.014C358.445 208.914 356.63 208.364 354.1 208.364C352.193 208.364 350.47 208.73 348.93 209.464C347.39 210.197 346.143 211.132 345.19 212.269C344.237 213.369 343.687 214.524 343.54 215.734L343.485 212.929C343.668 211.645 344.09 210.399 344.75 209.189C345.41 207.979 346.29 206.879 347.39 205.889C348.527 204.862 349.865 204.055 351.405 203.469C352.945 202.882 354.687 202.589 356.63 202.589ZM399.825 221.454H406.755C406.462 223.324 405.673 224.992 404.39 226.459C403.143 227.925 401.438 229.08 399.275 229.924C397.112 230.767 394.472 231.189 391.355 231.189C387.872 231.189 384.792 230.639 382.115 229.539C379.438 228.402 377.348 226.77 375.845 224.644C374.342 222.517 373.59 219.95 373.59 216.944C373.59 213.937 374.323 211.37 375.79 209.244C377.257 207.08 379.292 205.43 381.895 204.294C384.535 203.157 387.615 202.589 391.135 202.589C394.728 202.589 397.717 203.157 400.1 204.294C402.483 205.43 404.243 207.154 405.38 209.464C406.553 211.737 407.048 214.652 406.865 218.209H380.795C380.978 219.602 381.492 220.867 382.335 222.004C383.215 223.14 384.388 224.039 385.855 224.699C387.358 225.359 389.137 225.689 391.19 225.689C393.463 225.689 395.352 225.304 396.855 224.534C398.395 223.727 399.385 222.7 399.825 221.454ZM390.805 208.034C388.165 208.034 386.02 208.62 384.37 209.794C382.72 210.93 381.657 212.342 381.18 214.029H399.77C399.587 212.195 398.707 210.747 397.13 209.684C395.59 208.584 393.482 208.034 390.805 208.034ZM412.185 203.194H419.335V230.529H412.185V203.194ZM429.84 209.079C427.787 209.079 426.009 209.482 424.505 210.289C423.002 211.059 421.792 212.012 420.875 213.149C419.959 214.285 419.317 215.385 418.95 216.449L418.895 213.424C418.932 212.984 419.079 212.342 419.335 211.499C419.592 210.619 419.977 209.684 420.49 208.694C421.004 207.667 421.682 206.695 422.525 205.779C423.369 204.825 424.395 204.055 425.605 203.469C426.815 202.882 428.227 202.589 429.84 202.589V209.079Z" fill="#228B22"/>
<path d="M259.51 85.0286C259.51 71.4976 270.479 60.5286 284.01 60.5286H349.01C362.541 60.5286 373.51 71.4976 373.51 85.0286C373.51 98.5595 362.541 109.529 349.01 109.529H284.01C270.479 109.529 259.51 98.5595 259.51 85.0286Z" fill="#BBE2BB"/>
<g filter="url(#filter0_d_7192_66975)">
<path d="M320.089 99.461C318.422 102.366 314.207 102.366 312.539 99.461L289.536 59.3871C287.884 56.5089 289.976 52.9307 293.311 52.9307H339.318C342.653 52.9307 344.745 56.5089 343.093 59.3871L320.089 99.461Z" fill="#228B22"/>
<g filter="url(#filter1_f_7192_66975)">
<path d="M320.224 55.9877H292.411V61.1688H320.224V55.9877Z" fill="#0D3D0D"/>
</g>
<path d="M302.867 30.9243C304.205 28.6216 307.55 28.6216 308.888 30.9243L322.813 54.8871C324.151 57.1899 322.479 60.0682 319.802 60.0682H291.952C289.276 60.0682 287.604 57.1899 288.942 54.8871L302.867 30.9243Z" fill="#23A323"/>
</g>
</g>
<defs>
<filter id="filter0_d_7192_66975" x="268.471" y="17.1973" width="95.1992" height="112.442" filterUnits="userSpaceOnUse" color-interpolation-filters="sRGB">
<feFlood flood-opacity="0" result="BackgroundImageFix"/>
<feColorMatrix in="SourceAlpha" type="matrix" values="0 0 0 0 0 0 0 0 0 0 0 0 0 0 0 0 0 0 127 0" result="hardAlpha"/>
<feOffset dy="8"/>
<feGaussianBlur stdDeviation="10"/>
<feComposite in2="hardAlpha" operator="out"/>
<feColorMatrix type="matrix" values="0 0 0 0 0 0 0 0 0 0 0 0 0 0 0 0 0 0 0.12 0"/>
<feBlend mode="normal" in2="BackgroundImageFix" result="effect1_dropShadow_7192_66975"/>
<feBlend mode="normal" in="SourceGraphic" in2="effect1_dropShadow_7192_66975" result="shape"/>
</filter>
<filter id="filter1_f_7192_66975" x="260.776" y="24.3522" width="91.0834" height="68.4521" filterUnits="userSpaceOnUse" color-interpolation-filters="sRGB">
<feFlood flood-opacity="0" result="BackgroundImageFix"/>
<feBlend mode="normal" in="SourceGraphic" in2="BackgroundImageFix" result="shape"/>
<feGaussianBlur stdDeviation="15.8177" result="effect1_foregroundBlur_7192_66975"/>
</filter>
<clipPath id="clip0_7192_66975">
<rect width="520" height="246" fill="white"/>
</clipPath>
</defs>
</svg>
