<svg width="264" height="42" viewBox="0 0 264 42" fill="none" xmlns="http://www.w3.org/2000/svg">
<g clip-path="url(#clip0_5363_55287)">
<path d="M7.4643 28.4238V9.01383H20.6343C22.1343 9.01383 23.4343 9.22383 24.5343 9.64383C25.6543 10.0438 26.5243 10.6838 27.1443 11.5638C27.7643 12.4238 28.0743 13.5338 28.0743 14.8938C28.0743 15.8138 27.9143 16.5938 27.5943 17.2338C27.2743 17.8738 26.8243 18.3938 26.2443 18.7938C25.6843 19.1938 25.0343 19.5038 24.2943 19.7238C23.5543 19.9238 22.7643 20.0538 21.9243 20.1138L21.5043 19.8738C22.9043 19.8938 24.0543 20.0138 24.9543 20.2338C25.8543 20.4338 26.5243 20.8138 26.9643 21.3738C27.4243 21.9138 27.6543 22.7238 27.6543 23.8038V28.4238H23.6643V24.0738C23.6643 23.3338 23.5343 22.7638 23.2743 22.3638C23.0143 21.9438 22.5443 21.6538 21.8643 21.4938C21.2043 21.3338 20.2443 21.2538 18.9843 21.2538H11.4543V28.4238H7.4643ZM11.4543 18.1338H20.6343C21.7543 18.1338 22.6043 17.8638 23.1843 17.3238C23.7843 16.7838 24.0843 16.0538 24.0843 15.1338C24.0843 14.2538 23.7843 13.5838 23.1843 13.1238C22.6043 12.6638 21.7543 12.4338 20.6343 12.4338H11.4543V18.1338ZM45.2416 23.4738H49.0216C48.8616 24.4938 48.4316 25.4038 47.7316 26.2038C47.0516 27.0038 46.1216 27.6338 44.9416 28.0938C43.7616 28.5538 42.3216 28.7838 40.6216 28.7838C38.7216 28.7838 37.0416 28.4838 35.5816 27.8838C34.1216 27.2638 32.9816 26.3738 32.1616 25.2138C31.3416 24.0538 30.9316 22.6538 30.9316 21.0138C30.9316 19.3738 31.3316 17.9738 32.1316 16.8138C32.9316 15.6338 34.0416 14.7338 35.4616 14.1138C36.9016 13.4938 38.5816 13.1838 40.5016 13.1838C42.4616 13.1838 44.0916 13.4938 45.3916 14.1138C46.6916 14.7338 47.6516 15.6738 48.2716 16.9338C48.9116 18.1738 49.1816 19.7638 49.0816 21.7038H34.8616C34.9616 22.4638 35.2416 23.1538 35.7016 23.7738C36.1816 24.3938 36.8216 24.8838 37.6216 25.2438C38.4416 25.6038 39.4116 25.7838 40.5316 25.7838C41.7716 25.7838 42.8016 25.5738 43.6216 25.1538C44.4616 24.7138 45.0016 24.1538 45.2416 23.4738ZM40.3216 16.1538C38.8816 16.1538 37.7116 16.4738 36.8116 17.1138C35.9116 17.7338 35.3316 18.5038 35.0716 19.4238H45.2116C45.1116 18.4238 44.6316 17.6338 43.7716 17.0538C42.9316 16.4538 41.7816 16.1538 40.3216 16.1538ZM69.6836 22.5438C69.5836 23.8438 69.1636 24.9638 68.4236 25.9038C67.7036 26.8438 66.7036 27.5638 65.4236 28.0638C64.1436 28.5438 62.6236 28.7838 60.8636 28.7838C59.0236 28.7838 57.3736 28.4938 55.9136 27.9138C54.4736 27.3138 53.3336 26.4438 52.4936 25.3038C51.6736 24.1438 51.2636 22.7138 51.2636 21.0138C51.2636 19.3138 51.6736 17.8838 52.4936 16.7238C53.3336 15.5638 54.4736 14.6838 55.9136 14.0838C57.3736 13.4838 59.0236 13.1838 60.8636 13.1838C62.6236 13.1838 64.1336 13.4338 65.3936 13.9338C66.6536 14.4138 67.6436 15.1138 68.3636 16.0338C69.1036 16.9538 69.5336 18.0638 69.6536 19.3638H66.0836C65.7436 18.3638 65.1136 17.5838 64.1936 17.0238C63.2736 16.4638 62.1636 16.1838 60.8636 16.1838C59.8236 16.1838 58.8736 16.3638 58.0136 16.7238C57.1736 17.0838 56.4936 17.6238 55.9736 18.3438C55.4736 19.0438 55.2236 19.9338 55.2236 21.0138C55.2236 22.0738 55.4736 22.9638 55.9736 23.6838C56.4736 24.3838 57.1536 24.9138 58.0136 25.2738C58.8736 25.6138 59.8236 25.7838 60.8636 25.7838C62.2636 25.7838 63.4036 25.5038 64.2836 24.9438C65.1836 24.3838 65.7936 23.5838 66.1136 22.5438H69.6836ZM86.14 23.4738H89.92C89.76 24.4938 89.33 25.4038 88.63 26.2038C87.95 27.0038 87.02 27.6338 85.84 28.0938C84.66 28.5538 83.22 28.7838 81.52 28.7838C79.62 28.7838 77.94 28.4838 76.48 27.8838C75.02 27.2638 73.88 26.3738 73.06 25.2138C72.24 24.0538 71.83 22.6538 71.83 21.0138C71.83 19.3738 72.23 17.9738 73.03 16.8138C73.83 15.6338 74.94 14.7338 76.36 14.1138C77.8 13.4938 79.48 13.1838 81.4 13.1838C83.36 13.1838 84.99 13.4938 86.29 14.1138C87.59 14.7338 88.55 15.6738 89.17 16.9338C89.81 18.1738 90.08 19.7638 89.98 21.7038H75.76C75.86 22.4638 76.14 23.1538 76.6 23.7738C77.08 24.3938 77.72 24.8838 78.52 25.2438C79.34 25.6038 80.31 25.7838 81.43 25.7838C82.67 25.7838 83.7 25.5738 84.52 25.1538C85.36 24.7138 85.9 24.1538 86.14 23.4738ZM81.22 16.1538C79.78 16.1538 78.61 16.4738 77.71 17.1138C76.81 17.7338 76.23 18.5038 75.97 19.4238H86.11C86.01 18.4238 85.53 17.6338 84.67 17.0538C83.83 16.4538 82.68 16.1538 81.22 16.1538ZM97.352 6.97383V10.3938H92.822V6.97383H97.352ZM93.122 13.5138H97.022V28.4238H93.122V13.5138ZM109.129 25.8738H107.719L113.179 13.5138H117.439L110.269 28.4238H106.579L99.5594 13.5138H103.849L109.129 25.8738ZM132.634 23.4738H136.414C136.254 24.4938 135.824 25.4038 135.124 26.2038C134.444 27.0038 133.514 27.6338 132.334 28.0938C131.154 28.5538 129.714 28.7838 128.014 28.7838C126.114 28.7838 124.434 28.4838 122.974 27.8838C121.514 27.2638 120.374 26.3738 119.554 25.2138C118.734 24.0538 118.324 22.6538 118.324 21.0138C118.324 19.3738 118.724 17.9738 119.524 16.8138C120.324 15.6338 121.434 14.7338 122.854 14.1138C124.294 13.4938 125.974 13.1838 127.894 13.1838C129.854 13.1838 131.484 13.4938 132.784 14.1138C134.084 14.7338 135.044 15.6738 135.664 16.9338C136.304 18.1738 136.574 19.7638 136.474 21.7038H122.254C122.354 22.4638 122.634 23.1538 123.094 23.7738C123.574 24.3938 124.214 24.8838 125.014 25.2438C125.834 25.6038 126.804 25.7838 127.924 25.7838C129.164 25.7838 130.194 25.5738 131.014 25.1538C131.854 24.7138 132.394 24.1538 132.634 23.4738ZM127.714 16.1538C126.274 16.1538 125.104 16.4738 124.204 17.1138C123.304 17.7338 122.724 18.5038 122.464 19.4238H132.604C132.504 18.4238 132.024 17.6338 131.164 17.0538C130.324 16.4538 129.174 16.1538 127.714 16.1538ZM146.613 13.5138H150.513V28.4238H146.613V13.5138ZM157.443 13.1838C158.363 13.1838 159.213 13.3038 159.993 13.5438C160.773 13.7838 161.453 14.1538 162.033 14.6538C162.613 15.1538 163.063 15.7938 163.383 16.5738C163.703 17.3338 163.863 18.2438 163.863 19.3038V28.4238H159.962V19.9938C159.962 18.7338 159.653 17.8138 159.033 17.2338C158.433 16.6338 157.443 16.3338 156.063 16.3338C155.023 16.3338 154.083 16.5338 153.243 16.9338C152.403 17.3338 151.723 17.8438 151.203 18.4638C150.683 19.0638 150.383 19.6938 150.303 20.3538L150.273 18.8238C150.373 18.1238 150.603 17.4438 150.963 16.7838C151.323 16.1238 151.803 15.5238 152.403 14.9838C153.023 14.4238 153.753 13.9838 154.593 13.6638C155.433 13.3438 156.383 13.1838 157.443 13.1838ZM170.433 13.1838C171.353 13.1838 172.203 13.3038 172.983 13.5438C173.763 13.7838 174.443 14.1538 175.023 14.6538C175.603 15.1538 176.053 15.7938 176.373 16.5738C176.713 17.3338 176.883 18.2438 176.883 19.3038V28.4238H172.983V19.9938C172.983 18.7338 172.673 17.8138 172.053 17.2338C171.433 16.6338 170.433 16.3338 169.053 16.3338C168.013 16.3338 167.073 16.5338 166.233 16.9338C165.393 17.3338 164.713 17.8438 164.193 18.4638C163.673 19.0638 163.383 19.6938 163.323 20.3538L163.263 18.7338C163.363 18.0738 163.603 17.4138 163.983 16.7538C164.363 16.0938 164.863 15.4938 165.483 14.9538C166.103 14.4138 166.823 13.9838 167.643 13.6638C168.483 13.3438 169.413 13.1838 170.433 13.1838ZM189.211 28.7838C187.331 28.7838 185.671 28.4838 184.231 27.8838C182.811 27.2838 181.701 26.4138 180.901 25.2738C180.101 24.1138 179.701 22.6938 179.701 21.0138C179.701 19.3338 180.101 17.9138 180.901 16.7538C181.701 15.5738 182.811 14.6838 184.231 14.0838C185.671 13.4838 187.331 13.1838 189.211 13.1838C191.091 13.1838 192.731 13.4838 194.131 14.0838C195.551 14.6838 196.661 15.5738 197.461 16.7538C198.261 17.9138 198.661 19.3338 198.661 21.0138C198.661 22.6938 198.261 24.1138 197.461 25.2738C196.661 26.4138 195.551 27.2838 194.131 27.8838C192.731 28.4838 191.091 28.7838 189.211 28.7838ZM189.211 25.7838C190.251 25.7838 191.181 25.6038 192.001 25.2438C192.841 24.8638 193.501 24.3238 193.981 23.6238C194.461 22.9038 194.701 22.0338 194.701 21.0138C194.701 19.9938 194.461 19.1238 193.981 18.4038C193.501 17.6638 192.851 17.1038 192.031 16.7238C191.211 16.3438 190.271 16.1538 189.211 16.1538C188.171 16.1538 187.231 16.3438 186.391 16.7238C185.551 17.1038 184.881 17.6538 184.381 18.3738C183.901 19.0938 183.661 19.9738 183.661 21.0138C183.661 22.0338 183.901 22.9038 184.381 23.6238C184.861 24.3238 185.521 24.8638 186.361 25.2438C187.201 25.6038 188.151 25.7838 189.211 25.7838ZM201.544 13.5138H205.444V28.4238H201.544V13.5138ZM212.374 13.1838C213.294 13.1838 214.144 13.3038 214.924 13.5438C215.704 13.7838 216.384 14.1538 216.964 14.6538C217.544 15.1538 217.994 15.7938 218.314 16.5738C218.634 17.3338 218.794 18.2438 218.794 19.3038V28.4238H214.894V19.9938C214.894 18.7338 214.584 17.8138 213.964 17.2338C213.364 16.6338 212.374 16.3338 210.994 16.3338C209.954 16.3338 209.014 16.5338 208.174 16.9338C207.334 17.3338 206.654 17.8438 206.134 18.4638C205.614 19.0638 205.314 19.6938 205.234 20.3538L205.204 18.8238C205.304 18.1238 205.534 17.4438 205.894 16.7838C206.254 16.1238 206.734 15.5238 207.334 14.9838C207.954 14.4238 208.684 13.9838 209.524 13.6638C210.364 13.3438 211.314 13.1838 212.374 13.1838ZM235.935 23.4738H239.715C239.555 24.4938 239.125 25.4038 238.425 26.2038C237.745 27.0038 236.815 27.6338 235.635 28.0938C234.455 28.5538 233.015 28.7838 231.315 28.7838C229.415 28.7838 227.735 28.4838 226.275 27.8838C224.815 27.2638 223.675 26.3738 222.855 25.2138C222.035 24.0538 221.625 22.6538 221.625 21.0138C221.625 19.3738 222.025 17.9738 222.825 16.8138C223.625 15.6338 224.735 14.7338 226.155 14.1138C227.595 13.4938 229.275 13.1838 231.195 13.1838C233.155 13.1838 234.785 13.4938 236.085 14.1138C237.385 14.7338 238.345 15.6738 238.965 16.9338C239.605 18.1738 239.875 19.7638 239.775 21.7038H225.555C225.655 22.4638 225.935 23.1538 226.395 23.7738C226.875 24.3938 227.515 24.8838 228.315 25.2438C229.135 25.6038 230.105 25.7838 231.225 25.7838C232.465 25.7838 233.495 25.5738 234.315 25.1538C235.155 24.7138 235.695 24.1538 235.935 23.4738ZM231.015 16.1538C229.575 16.1538 228.405 16.4738 227.505 17.1138C226.605 17.7338 226.025 18.5038 225.765 19.4238H235.905C235.805 18.4238 235.325 17.6338 234.465 17.0538C233.625 16.4538 232.475 16.1538 231.015 16.1538ZM240.741 13.5138H244.881L251.331 27.8238L247.971 28.4238L240.741 13.5138ZM258.981 13.5138L248.661 34.4238H244.611L249.021 26.2038L254.811 13.5138H258.981Z" fill="white"/>
<path d="M91.3203 41.3906L173.287 41.8262" stroke="url(#paint0_linear_5363_55287)" stroke-opacity="0.5" stroke-linecap="round"/>
</g>
<defs>
<linearGradient id="paint0_linear_5363_55287" x1="87.7532" y1="42.1084" x2="175.518" y2="42.3262" gradientUnits="userSpaceOnUse">
<stop stop-color="white"/>
<stop offset="1" stop-color="white"/>
</linearGradient>
<clipPath id="clip0_5363_55287">
<rect width="263.332" height="41.4023" fill="white" transform="translate(0.636719 0.423828)"/>
</clipPath>
</defs>
</svg>
