<svg width="139" height="45" viewBox="0 0 139 45" fill="none" xmlns="http://www.w3.org/2000/svg">
<path d="M23.6094 26.3115H40.7333C41.7841 26.3115 42.6359 27.1634 42.6359 28.2142V42.2938C42.6359 43.3446 41.7841 44.1965 40.7333 44.1965H25.512C24.4612 44.1965 23.6094 43.3446 23.6094 42.2938V26.3115Z" fill="#EF4444"/>
<path d="M23.5264 25.0713H39.476C40.5268 25.0713 41.3786 25.9231 41.3786 26.9739V41.0209C41.3786 42.0717 40.5268 42.9235 39.476 42.9235H25.429C24.3782 42.9235 23.5264 42.0717 23.5264 41.0209V25.0713Z" fill="#EF4444"/>
<path d="M21.4074 41.8865C32.8008 41.8865 42.0369 32.6504 42.0369 21.257C42.0369 9.86361 32.8008 0.627446 21.4074 0.627446C10.014 0.627446 0.777836 9.86361 0.777836 21.257C0.777836 32.6504 10.014 41.8865 21.4074 41.8865Z" fill="#EF4444" stroke="white" stroke-width="1.14159"/>
<path d="M13.8369 28.1014C13.8369 29.7341 15.5699 30.7837 17.0168 30.0275C17.7339 29.6527 18.1834 28.9106 18.1834 28.1014V14.2721L24.3916 17.2131L21.8678 19.0318C20.8689 19.7517 20.277 20.9078 20.277 22.139C20.277 23.5318 21.0331 24.8148 22.2516 25.4895L24.166 26.5496C25.0152 27.0198 26.082 26.781 26.6496 25.9936C27.2806 25.1184 27.0653 23.8951 26.1735 23.2879L24.5466 22.1802L26.9812 20.7195C28.2633 19.9502 29.0477 18.5647 29.0477 17.0696C29.0477 15.3716 28.0385 13.836 26.4798 13.1624L20.2628 10.4758C18.9474 9.90732 17.4457 9.96267 16.1758 10.6264C14.7381 11.3778 13.8369 12.8657 13.8369 14.4878V28.1014Z" fill="white"/>
<circle cx="29.3068" cy="27.7199" r="2.14668" fill="white"/>
<path d="M60.2094 32.667V13.7546H68.5735C69.4437 13.7546 70.2428 13.9322 70.9708 14.2873C71.7167 14.6425 72.356 15.122 72.8887 15.7258C73.4392 16.3295 73.8565 17.0043 74.1407 17.7502C74.4426 18.496 74.5935 19.2596 74.5935 20.041C74.5935 20.8401 74.4514 21.6126 74.1673 22.3584C73.9009 23.0865 73.5103 23.7258 72.9953 24.2763C72.4803 24.8268 71.8765 25.253 71.1839 25.5549L75.4992 32.667H71.4503L67.5613 26.3273H63.8854V32.667H60.2094ZM63.8854 23.1042H68.4936C68.9553 23.1042 69.3637 22.9711 69.7189 22.7047C70.0741 22.4206 70.3582 22.0476 70.5713 21.5859C70.7844 21.1242 70.8909 20.6092 70.8909 20.041C70.8909 19.4372 70.7666 18.9133 70.518 18.4694C70.2694 18.0077 69.9498 17.6436 69.5591 17.3773C69.1862 17.1109 68.7777 16.9777 68.3338 16.9777H63.8854V23.1042ZM83.5559 32.9334C82.4194 32.9334 81.3983 32.7469 80.4926 32.374C79.5869 31.9833 78.8145 31.4506 78.1752 30.7758C77.5536 30.1009 77.0742 29.3285 76.7368 28.4583C76.3994 27.5882 76.2306 26.6736 76.2306 25.7147C76.2306 24.738 76.3994 23.8146 76.7368 22.9444C77.0742 22.0743 77.5536 21.3018 78.1752 20.627C78.8145 19.9522 79.5869 19.4283 80.4926 19.0554C81.3983 18.6647 82.4194 18.4694 83.5559 18.4694C84.6924 18.4694 85.7046 18.6647 86.5925 19.0554C87.4982 19.4283 88.2706 19.9522 88.9099 20.627C89.5492 21.3018 90.0287 22.0743 90.3483 22.9444C90.6858 23.8146 90.8545 24.738 90.8545 25.7147C90.8545 26.6736 90.6858 27.5882 90.3483 28.4583C90.0287 29.3285 89.5492 30.1009 88.9099 30.7758C88.2884 31.4506 87.5248 31.9833 86.6191 32.374C85.7135 32.7469 84.6924 32.9334 83.5559 32.9334ZM79.9066 25.7147C79.9066 26.5316 80.0664 27.2596 80.386 27.8989C80.7057 28.5205 81.1408 29.0088 81.6913 29.364C82.2418 29.7191 82.8633 29.8967 83.5559 29.8967C84.2307 29.8967 84.8433 29.7191 85.3938 29.364C85.9443 28.9911 86.3794 28.4938 86.6991 27.8723C87.0365 27.233 87.2052 26.5049 87.2052 25.6881C87.2052 24.8889 87.0365 24.1697 86.6991 23.5304C86.3794 22.8912 85.9443 22.3939 85.3938 22.0388C84.8433 21.6836 84.2307 21.506 83.5559 21.506C82.8633 21.506 82.2418 21.6925 81.6913 22.0654C81.1408 22.4206 80.7057 22.9178 80.386 23.5571C80.0664 24.1786 79.9066 24.8978 79.9066 25.7147ZM92.3047 28.5382C92.3047 27.6326 92.5533 26.8423 93.0506 26.1675C93.5655 25.475 94.2759 24.9422 95.1815 24.5693C96.0872 24.1964 97.1261 24.0099 98.2981 24.0099C98.8841 24.0099 99.479 24.0543 100.083 24.1431C100.687 24.2319 101.21 24.374 101.654 24.5693V23.8235C101.654 22.9355 101.388 22.2519 100.855 21.7724C100.34 21.2929 99.5678 21.0532 98.5378 21.0532C97.7742 21.0532 97.0461 21.1864 96.3536 21.4527C95.661 21.7191 94.9329 22.1098 94.1693 22.6248L93.0239 20.2807C93.9473 19.6769 94.8885 19.2241 95.8475 18.9222C96.8242 18.6203 97.8453 18.4694 98.9107 18.4694C100.9 18.4694 102.445 18.9666 103.546 19.9611C104.664 20.9555 105.224 22.3762 105.224 24.223V28.6714C105.224 29.0443 105.286 29.3107 105.41 29.4705C105.552 29.6304 105.774 29.728 106.076 29.7635V32.667C105.756 32.7203 105.463 32.7647 105.197 32.8002C104.948 32.8357 104.735 32.8535 104.558 32.8535C103.847 32.8535 103.306 32.6936 102.933 32.374C102.578 32.0543 102.356 31.6637 102.267 31.2019L102.187 30.4827C101.583 31.2641 100.829 31.8679 99.923 32.2941C99.0173 32.7203 98.0939 32.9334 97.1527 32.9334C96.2293 32.9334 95.3946 32.7469 94.6488 32.374C93.9207 31.9833 93.3436 31.4594 92.9174 30.8024C92.5089 30.1276 92.3047 29.3729 92.3047 28.5382ZM100.988 29.2574C101.184 29.0443 101.344 28.8312 101.468 28.6181C101.592 28.405 101.654 28.2097 101.654 28.0321V26.6204C101.228 26.4428 100.766 26.3096 100.269 26.2208C99.772 26.1142 99.3014 26.061 98.8575 26.061C97.934 26.061 97.1704 26.2652 96.5667 26.6736C95.9807 27.0643 95.6876 27.5882 95.6876 28.2452C95.6876 28.6004 95.7853 28.9378 95.9807 29.2574C96.176 29.5771 96.4601 29.8346 96.833 30.0299C97.206 30.2253 97.6499 30.3229 98.1649 30.3229C98.6976 30.3229 99.2215 30.2253 99.7365 30.0299C100.251 29.8168 100.669 29.5593 100.988 29.2574ZM107.707 25.6881C107.707 24.3384 107.973 23.122 108.506 22.0388C109.039 20.9378 109.776 20.0676 110.717 19.4283C111.658 18.789 112.732 18.4694 113.94 18.4694C114.97 18.4694 115.893 18.7269 116.71 19.2419C117.545 19.7391 118.193 20.3784 118.655 21.1597V13.2219H122.224V28.6714C122.224 29.0443 122.286 29.3107 122.411 29.4705C122.535 29.6304 122.748 29.728 123.05 29.7635V32.667C122.428 32.7913 121.922 32.8535 121.532 32.8535C120.892 32.8535 120.359 32.6936 119.933 32.374C119.525 32.0543 119.294 31.637 119.241 31.122L119.187 30.243C118.672 31.1132 117.971 31.7791 117.083 32.2408C116.213 32.7025 115.298 32.9334 114.339 32.9334C113.381 32.9334 112.493 32.7469 111.676 32.374C110.877 32.0011 110.175 31.4861 109.571 30.829C108.985 30.172 108.524 29.4084 108.186 28.5382C107.867 27.6503 107.707 26.7003 107.707 25.6881ZM118.655 27.5527V24.223C118.477 23.708 118.193 23.2463 117.802 22.8379C117.412 22.4294 116.977 22.1098 116.497 21.8789C116.018 21.6303 115.538 21.506 115.059 21.506C114.508 21.506 114.011 21.6214 113.567 21.8523C113.123 22.0832 112.732 22.3939 112.395 22.7846C112.075 23.1753 111.827 23.6281 111.649 24.1431C111.489 24.6581 111.409 25.1997 111.409 25.768C111.409 26.3362 111.498 26.8778 111.676 27.3928C111.871 27.8901 112.146 28.3251 112.502 28.6981C112.857 29.071 113.265 29.364 113.727 29.5771C114.206 29.7902 114.721 29.8967 115.272 29.8967C115.609 29.8967 115.947 29.8435 116.284 29.7369C116.639 29.6126 116.968 29.4528 117.27 29.2574C117.589 29.0443 117.864 28.7957 118.095 28.5116C118.344 28.2097 118.53 27.8901 118.655 27.5527ZM125.969 35.384C126.288 35.455 126.581 35.5172 126.848 35.5704C127.132 35.6237 127.372 35.6504 127.567 35.6504C127.904 35.6504 128.18 35.5616 128.393 35.384C128.624 35.2242 128.846 34.9223 129.059 34.4783C129.272 34.0521 129.494 33.4483 129.725 32.667L124.211 18.7091H127.913L131.669 29.0177L134.972 18.7091H138.382L132.521 35.4373C132.308 36.0588 131.98 36.6182 131.536 37.1154C131.11 37.6304 130.568 38.0299 129.911 38.3141C129.272 38.616 128.553 38.7669 127.753 38.7669C127.469 38.7669 127.185 38.7403 126.901 38.687C126.617 38.6515 126.306 38.5804 125.969 38.4739V35.384Z" fill="#EF4444"/>
<circle cx="111.893" cy="36.9684" r="1.52212" fill="#EF4444"/>
<circle cx="119.124" cy="36.9684" r="1.52212" fill="#EF4444"/>
</svg>
