<svg width="490" height="234" viewBox="0 0 490 234" fill="none" xmlns="http://www.w3.org/2000/svg">
<g clip-path="url(#clip0_4152_41299)">
<path d="M37.72 69.8725H48.52C48.7333 71.6858 49.56 73.3392 51 74.8325C52.4933 76.2725 54.44 77.4192 56.84 78.2725C59.24 79.0725 61.9333 79.4725 64.92 79.4725C67.64 79.4725 69.88 79.1792 71.64 78.5925C73.4 78.0058 74.7067 77.1792 75.56 76.1125C76.4133 75.0458 76.84 73.7658 76.84 72.2725C76.84 70.8325 76.3067 69.7392 75.24 68.9925C74.1733 68.1925 72.4933 67.5525 70.2 67.0725C67.9067 66.5392 64.8933 66.0058 61.16 65.4725C58.2267 65.0458 55.4533 64.4592 52.84 63.7125C50.2267 62.9125 47.9067 61.8992 45.88 60.6725C43.9067 59.4458 42.3333 57.9525 41.16 56.1925C40.04 54.3792 39.48 52.2458 39.48 49.7925C39.48 46.7525 40.3333 44.0858 42.04 41.7925C43.8 39.4992 46.3867 37.7125 49.8 36.4325C53.2133 35.1525 57.4 34.5125 62.36 34.5125C69.8267 34.5125 75.56 36.1125 79.56 39.3125C83.6133 42.4592 85.5867 46.8058 85.48 52.3525H75.08C74.8667 49.2058 73.5333 46.9392 71.08 45.5525C68.68 44.1658 65.64 43.4725 61.96 43.4725C58.5467 43.4725 55.72 43.9792 53.48 44.9925C51.2933 46.0058 50.2 47.7392 50.2 50.1925C50.2 51.1525 50.4667 52.0058 51 52.7525C51.5333 53.4458 52.44 54.0592 53.72 54.5925C55 55.1258 56.7333 55.6325 58.92 56.1125C61.1067 56.5925 63.8267 57.0725 67.08 57.5525C70.12 57.9792 72.8667 58.5658 75.32 59.3125C77.8267 60.0058 79.96 60.9392 81.72 62.1125C83.5333 63.2325 84.92 64.6725 85.88 66.4325C86.84 68.1925 87.32 70.3525 87.32 72.9125C87.32 76.0592 86.4933 78.8058 84.84 81.1525C83.24 83.4458 80.7333 85.2325 77.32 86.5125C73.96 87.7925 69.5867 88.4325 64.2 88.4325C60.36 88.4325 56.9733 88.0325 54.04 87.2325C51.1067 86.3792 48.5733 85.2592 46.44 83.8725C44.3067 82.4858 42.5733 80.9658 41.24 79.3125C39.9067 77.6592 38.9467 76.0058 38.36 74.3525C37.8267 72.6992 37.6133 71.2058 37.72 69.8725ZM114.707 88.1925C110.76 88.1925 107.16 87.3392 103.907 85.6325C100.707 83.8725 98.1469 81.4458 96.2269 78.3525C94.3602 75.2058 93.4269 71.5792 93.4269 67.4725C93.4269 63.2592 94.3869 59.6058 96.3069 56.5125C98.2269 53.4192 100.814 51.0192 104.067 49.3125C107.374 47.5525 111.107 46.6725 115.267 46.6725C119.854 46.6725 123.534 47.6058 126.307 49.4725C129.134 51.2858 131.187 53.7658 132.467 56.9125C133.747 60.0592 134.387 63.5792 134.387 67.4725C134.387 69.8192 134.014 72.2192 133.267 74.6725C132.52 77.0725 131.374 79.3125 129.827 81.3925C128.28 83.4192 126.254 85.0725 123.747 86.3525C121.24 87.5792 118.227 88.1925 114.707 88.1925ZM118.067 80.1925C121.214 80.1925 123.934 79.6592 126.227 78.5925C128.52 77.5258 130.28 76.0325 131.507 74.1125C132.734 72.1925 133.347 69.9792 133.347 67.4725C133.347 64.7525 132.707 62.4592 131.427 60.5925C130.2 58.6725 128.44 57.2325 126.147 56.2725C123.907 55.2592 121.214 54.7525 118.067 54.7525C113.64 54.7525 110.2 55.9258 107.747 58.2725C105.294 60.5658 104.067 63.6325 104.067 67.4725C104.067 70.0325 104.654 72.2725 105.827 74.1925C107 76.0592 108.627 77.5258 110.707 78.5925C112.84 79.6592 115.294 80.1925 118.067 80.1925ZM133.347 47.5525H143.747V87.3125H134.067C134.067 87.3125 133.987 86.8058 133.827 85.7925C133.72 84.7258 133.614 83.3925 133.507 81.7925C133.4 80.1925 133.347 78.6192 133.347 77.0725V47.5525ZM153.959 31.5525H164.359V87.3125H153.959V31.5525ZM194.238 88.1925C190.291 88.1925 186.691 87.3392 183.438 85.6325C180.238 83.8725 177.678 81.4458 175.758 78.3525C173.891 75.2058 172.958 71.5792 172.958 67.4725C172.958 63.2592 173.918 59.6058 175.838 56.5125C177.758 53.4192 180.345 51.0192 183.598 49.3125C186.905 47.5525 190.638 46.6725 194.798 46.6725C199.385 46.6725 203.065 47.6058 205.838 49.4725C208.665 51.2858 210.718 53.7658 211.998 56.9125C213.278 60.0592 213.918 63.5792 213.918 67.4725C213.918 69.8192 213.545 72.2192 212.798 74.6725C212.051 77.0725 210.905 79.3125 209.358 81.3925C207.811 83.4192 205.785 85.0725 203.278 86.3525C200.771 87.5792 197.758 88.1925 194.238 88.1925ZM197.598 80.1925C200.745 80.1925 203.465 79.6592 205.758 78.5925C208.051 77.5258 209.811 76.0325 211.038 74.1125C212.265 72.1925 212.878 69.9792 212.878 67.4725C212.878 64.7525 212.238 62.4592 210.958 60.5925C209.731 58.6725 207.971 57.2325 205.678 56.2725C203.438 55.2592 200.745 54.7525 197.598 54.7525C193.171 54.7525 189.731 55.9258 187.278 58.2725C184.825 60.5658 183.598 63.6325 183.598 67.4725C183.598 70.0325 184.185 72.2725 185.358 74.1925C186.531 76.0592 188.158 77.5258 190.238 78.5925C192.371 79.6592 194.825 80.1925 197.598 80.1925ZM212.878 47.5525H223.278V87.3125H213.598C213.598 87.3125 213.518 86.8058 213.358 85.7925C213.251 84.7258 213.145 83.3925 213.038 81.7925C212.931 80.1925 212.878 78.6192 212.878 77.0725V47.5525ZM232.691 47.5525H243.091V87.3125H232.691V47.5525ZM258.371 56.1125C255.384 56.1125 252.797 56.6992 250.611 57.8725C248.424 58.9925 246.664 60.3792 245.331 62.0325C243.997 63.6858 243.064 65.2858 242.531 66.8325L242.451 62.4325C242.504 61.7925 242.717 60.8592 243.091 59.6325C243.464 58.3525 244.024 56.9925 244.771 55.5525C245.517 54.0592 246.504 52.6458 247.731 51.3125C248.957 49.9258 250.451 48.8058 252.211 47.9525C253.971 47.0992 256.024 46.6725 258.371 46.6725V56.1125ZM261.2 47.5525H272.24L289.44 85.7125L280.48 87.3125L261.2 47.5525ZM309.84 47.5525L282.32 103.313H271.52L283.28 81.3925L298.72 47.5525H309.84Z" fill="white"/>
<path d="M56.6733 164.607V152.642H90.0863C94.0747 152.642 97.2354 151.588 99.5683 149.481C101.901 147.299 103.068 144.289 103.068 140.451C103.068 136.462 101.901 133.414 99.5683 131.307C97.2354 129.2 94.0747 128.147 90.0863 128.147H58.4794V188.312H43.4661V115.278H88.7317C92.7954 115.278 96.5958 115.767 100.133 116.746C103.745 117.724 106.868 119.229 109.502 121.261C112.211 123.293 114.318 125.889 115.823 129.05C117.328 132.21 118.081 136.011 118.081 140.451C118.081 144.815 117.328 148.541 115.823 151.626C114.318 154.711 112.211 157.232 109.502 159.189C106.868 161.07 103.745 162.463 100.133 163.366C96.5958 164.193 92.7954 164.607 88.7317 164.607H56.6733ZM155.736 189.554C150.167 189.554 145.087 188.35 140.497 185.942C135.981 183.459 132.369 180.035 129.66 175.67C127.026 171.23 125.709 166.112 125.709 160.318C125.709 154.373 127.064 149.218 129.773 144.853C132.482 140.488 136.132 137.102 140.723 134.694C145.388 132.21 150.656 130.969 156.526 130.969C162.998 130.969 168.19 132.286 172.104 134.919C176.092 137.478 178.989 140.977 180.796 145.417C182.602 149.857 183.505 154.824 183.505 160.318C183.505 163.629 182.978 167.015 181.924 170.477C180.871 173.864 179.253 177.024 177.07 179.959C174.888 182.819 172.028 185.152 168.491 186.958C164.954 188.689 160.703 189.554 155.736 189.554ZM160.477 178.266C164.917 178.266 168.755 177.513 171.991 176.008C175.227 174.503 177.71 172.396 179.441 169.687C181.172 166.978 182.037 163.855 182.037 160.318C182.037 156.48 181.134 153.244 179.328 150.61C177.597 147.901 175.114 145.869 171.878 144.514C168.717 143.085 164.917 142.37 160.477 142.37C154.231 142.37 149.377 144.025 145.915 147.336C142.453 150.572 140.723 154.9 140.723 160.318C140.723 163.93 141.55 167.091 143.206 169.8C144.862 172.434 147.157 174.503 150.092 176.008C153.102 177.513 156.564 178.266 160.477 178.266ZM182.037 132.21H196.712V188.312H183.053C183.053 188.312 182.94 187.598 182.714 186.168C182.564 184.663 182.413 182.781 182.263 180.524C182.112 178.266 182.037 176.046 182.037 173.864V132.21ZM204.913 132.21H220.491L244.761 186.055L232.118 188.312L204.913 132.21ZM273.545 132.21L234.714 210.889H219.475L236.069 179.959L257.855 132.21H273.545ZM282.087 132.21H296.762V188.312H282.087V132.21ZM318.322 144.289C314.108 144.289 310.458 145.116 307.373 146.772C304.287 148.352 301.804 150.309 299.923 152.642C298.041 154.975 296.724 157.232 295.972 159.415L295.859 153.206C295.934 152.303 296.235 150.986 296.762 149.255C297.289 147.449 298.079 145.53 299.133 143.498C300.186 141.391 301.578 139.397 303.309 137.516C305.04 135.559 307.147 133.979 309.631 132.775C312.114 131.571 315.011 130.969 318.322 130.969V144.289ZM360.469 189.667C353.395 189.667 347.149 188.538 341.73 186.281C336.387 184.023 332.211 180.749 329.201 176.46C326.19 172.095 324.685 166.752 324.685 160.431C324.685 154.109 326.19 148.766 329.201 144.402C332.211 139.962 336.387 136.613 341.73 134.355C347.149 132.097 353.395 130.969 360.469 130.969C367.543 130.969 373.714 132.097 378.981 134.355C384.324 136.613 388.501 139.962 391.511 144.402C394.521 148.766 396.026 154.109 396.026 160.431C396.026 166.752 394.521 172.095 391.511 176.46C388.501 180.749 384.324 184.023 378.981 186.281C373.714 188.538 367.543 189.667 360.469 189.667ZM360.469 178.379C364.382 178.379 367.881 177.702 370.967 176.347C374.127 174.917 376.611 172.885 378.417 170.251C380.223 167.542 381.126 164.269 381.126 160.431C381.126 156.593 380.223 153.319 378.417 150.61C376.611 147.826 374.165 145.718 371.08 144.289C367.994 142.859 364.457 142.144 360.469 142.144C356.556 142.144 353.019 142.859 349.858 144.289C346.697 145.718 344.176 147.788 342.295 150.497C340.489 153.206 339.586 156.517 339.586 160.431C339.586 164.269 340.489 167.542 342.295 170.251C344.101 172.885 346.584 174.917 349.745 176.347C352.906 177.702 356.48 178.379 360.469 178.379ZM408.003 109.634H422.678V188.312H408.003V109.634ZM438.649 109.634H453.324V188.312H438.649V109.634Z" fill="#FFBD00"/>
<path d="M307.675 6.64996L311.196 20.4629C311.436 21.4042 312.284 22.063 313.256 22.063H315.588C316.574 22.063 317.431 21.3846 317.657 20.4247L320.907 6.61179C321.221 5.27787 320.208 4 318.838 4H309.735C308.348 4 307.333 5.30638 307.675 6.64996Z" fill="white"/>
<path d="M47.3245 226.623L43.8036 212.811C43.5636 211.869 42.7158 211.21 41.7444 211.21H39.4119C38.4258 211.21 37.5692 211.889 37.3434 212.849L34.0933 226.662C33.7794 227.996 34.7915 229.273 36.1618 229.273H45.2653C46.6519 229.273 47.667 227.967 47.3245 226.623Z" fill="white"/>
<path d="M339.906 3.10557L330.209 18.6196C329.525 19.7142 329.667 21.1329 330.555 22.07L332.643 24.2743C333.544 25.2259 334.981 25.435 336.116 24.7799L351.889 15.6797C353.475 14.7643 353.789 12.6066 352.53 11.2769L344.365 2.65869C343.09 1.31296 340.888 1.53365 339.906 3.10557Z" fill="white"/>
<path d="M15.0944 230.168L24.791 214.654C25.4751 213.559 25.333 212.141 24.4452 211.203L22.357 208.999C21.4556 208.048 20.0192 207.838 18.884 208.493L3.11146 217.594C1.52487 218.509 1.21076 220.667 2.47049 221.997L10.6347 230.615C11.9095 231.96 14.1119 231.74 15.0944 230.168Z" fill="white"/>
</g>
<defs>
<clipPath id="clip0_4152_41299">
<rect width="490" height="233.273" fill="white"/>
</clipPath>
</defs>
</svg>
