<svg width="31" height="30" viewBox="0 0 31 30" fill="none" xmlns="http://www.w3.org/2000/svg">
<circle cx="15.4952" cy="14.8931" r="14.6974" fill="#F0F5FF"/>
<path d="M17.4816 13.203C17.4816 12.8479 17.7721 12.5574 18.1271 12.5574C18.4822 12.5574 18.7727 12.8479 18.7727 13.203C18.7727 13.5581 18.4822 13.8486 18.1271 13.8486C17.7721 13.8486 17.4816 13.5581 17.4816 13.203ZM12.9624 12.5574H16.1904V11.2662H12.9624V12.5574ZM22.0007 11.589V16.0888L20.1801 16.6956L19.0955 20.3045H15.5448V19.0133H14.2536V20.3045H10.7028C10.7028 20.3045 9.08887 14.8428 9.08887 12.8802C9.08887 10.9176 10.677 9.32945 12.6396 9.32945H15.8676C16.4551 8.54829 17.3912 8.03827 18.4499 8.03827C18.6095 8.0383 18.7665 8.07781 18.9071 8.15326C19.0477 8.22871 19.1674 8.33776 19.2556 8.47071C19.3438 8.60365 19.3977 8.75634 19.4126 8.91519C19.4275 9.07403 19.4028 9.23409 19.3409 9.3811C19.2505 9.6006 19.173 9.85238 19.1343 10.1235L20.5998 11.589H22.0007ZM20.7095 12.8802H20.0639L17.8043 10.6206C17.8043 10.201 17.8625 9.78782 17.9722 9.38755C17.346 9.54895 16.836 10.0138 16.6229 10.6206H12.6396C11.3936 10.6206 10.38 11.6342 10.38 12.8802C10.38 14.0939 11.1677 17.1734 11.6777 19.0133H12.9624V17.7221H16.836V19.0133H18.1336L19.1343 15.6885L20.7095 15.1591V12.8802Z" fill="#2D79FD"/>
</svg>
