<svg width="30" height="30" viewBox="0 0 30 30" fill="none" xmlns="http://www.w3.org/2000/svg">
<circle cx="15.1007" cy="14.8931" r="14.6974" fill="#FFF5F0"/>
<path d="M9.75469 12.2118H8.41406V18.9149H20.4797V12.2118H19.4742M16.793 11.5415C17.0553 11.6932 17.28 11.9022 17.4502 12.1529C17.6204 12.4036 17.7317 12.6896 17.7758 12.9894C17.82 13.2892 17.7958 13.5951 17.7051 13.8843C17.6144 14.1734 17.4595 14.4383 17.252 14.6592C17.0445 14.88 16.7898 15.0512 16.5069 15.1597C16.224 15.2683 15.9202 15.3116 15.6182 15.2862C15.3162 15.2609 15.0239 15.1676 14.763 15.0134C14.5021 14.8592 14.2795 14.648 14.1117 14.3957M15.1172 10.8712C15.1172 11.4045 14.9053 11.916 14.5282 12.2931C14.1511 12.6702 13.6396 12.8821 13.1063 12.8821C12.5729 12.8821 12.0614 12.6702 11.6843 12.2931C11.3072 11.916 11.0953 11.4045 11.0953 10.8712C11.0953 10.3378 11.3072 9.82633 11.6843 9.44921C12.0614 9.07208 12.5729 8.86021 13.1063 8.86021C13.6396 8.86021 14.1511 9.07208 14.5282 9.44921C14.9053 9.82633 15.1172 10.3378 15.1172 10.8712Z" stroke="#FF823B" stroke-width="1.34063" stroke-linecap="round" stroke-linejoin="round"/>
</svg>
