<svg width="176" height="67" viewBox="0 0 176 67" fill="none" xmlns="http://www.w3.org/2000/svg">
<path d="M29.8226 40.4166V23.7794L30.8818 23.4693V40.3391C30.8818 41.3466 31.6052 42.0441 32.6127 42.0441H33.6202V43.0258H32.5352C30.9335 43.0258 29.8226 41.9666 29.8226 40.4166ZM44.6603 29.9279C48.2771 29.9279 51.1705 32.4855 51.1705 36.1023C51.1705 36.3348 51.1705 36.5156 51.1705 36.774H39.2868C39.4935 39.9774 42.1286 42.1991 45.8228 42.1991C47.4762 42.1991 48.9746 41.76 50.0855 41.0366L50.473 41.8633C49.2071 42.69 47.5796 43.155 45.797 43.155C41.4052 43.155 38.2534 40.2874 38.2534 36.3089C38.2534 32.6405 40.9402 29.9279 44.6603 29.9279ZM39.2868 35.8698H50.1888C49.9563 32.9247 47.7087 30.8838 44.6861 30.8838C41.6894 30.8838 39.5193 32.9505 39.2868 35.8698ZM61.75 29.9279C65.2376 29.9279 67.3819 31.6588 67.3819 34.4489V36.5415C67.3819 39.0474 67.5369 40.4682 67.8986 43H66.8652C66.736 42.0441 66.6327 41.2691 66.5552 40.4941C65.7027 42.225 63.8943 43.155 61.3109 43.155C58.2366 43.155 56.5315 41.8375 56.5315 39.4607C56.5315 37.1873 58.0816 36.0506 61.7242 35.6631L66.3485 35.1981V34.5005C66.3485 32.253 64.566 30.8838 61.6984 30.8838C60.0966 30.8838 58.7533 31.3229 57.7457 32.0463L57.3324 31.1938C58.5208 30.3929 59.9933 29.9279 61.75 29.9279ZM66.3485 36.1023L61.7242 36.5673C58.8308 36.8515 57.5649 37.7298 57.5649 39.409C57.5649 41.1916 58.9858 42.1991 61.4917 42.1991C64.6176 42.1991 66.3744 40.6491 66.3744 37.8073L66.3485 36.1023ZM88.1756 36.5415C88.1756 40.2357 85.308 43.155 81.6654 43.155C79.1595 43.155 77.0411 41.7858 75.9302 39.7449V48.9419H74.871V36.5415C74.871 34.0355 74.7418 32.6147 74.3543 30.0829H75.4135C75.6202 31.4521 75.7493 32.4855 75.8268 33.5447C76.886 31.4004 79.082 29.9279 81.6654 29.9279C85.308 29.9279 88.1756 32.8472 88.1756 36.5415ZM87.1164 36.5415C87.1164 33.3897 84.688 30.9613 81.5362 30.9613C78.4103 30.9613 75.9819 33.3897 75.9819 36.5415C75.9819 39.6932 78.4103 42.1216 81.5362 42.1216C84.688 42.1216 87.1164 39.6932 87.1164 36.5415ZM98.2237 43.155C96.0278 43.155 94.3486 42.5092 93.0568 41.4499L93.4444 40.6233C94.6327 41.5791 96.2086 42.1991 98.2495 42.1991C100.755 42.1991 102.331 41.2691 102.331 39.8482C102.331 38.6857 101.272 37.9365 98.1979 36.9806C94.5294 35.8698 93.1602 34.8106 93.1602 33.1055C93.1602 31.1679 94.9169 29.9279 97.6812 29.9279C99.6446 29.9279 101.246 30.5737 102.512 31.633L102.125 32.4596C100.988 31.5038 99.5154 30.8838 97.6812 30.8838C95.5628 30.8838 94.1677 31.7363 94.1677 33.0538C94.1677 34.2164 95.2528 34.9656 98.3012 35.9731C102.021 37.1615 103.339 38.169 103.339 39.8482C103.339 41.8891 101.35 43.155 98.2237 43.155ZM113.834 29.9279C117.322 29.9279 119.466 31.6588 119.466 34.4489V36.5415C119.466 39.0474 119.621 40.4682 119.983 43H118.949C118.82 42.0441 118.717 41.2691 118.639 40.4941C117.787 42.225 115.978 43.155 113.395 43.155C110.321 43.155 108.616 41.8375 108.616 39.4607C108.616 37.1873 110.166 36.0506 113.808 35.6631L118.433 35.1981V34.5005C118.433 32.253 116.65 30.8838 113.783 30.8838C112.181 30.8838 110.837 31.3229 109.83 32.0463L109.417 31.1938C110.605 30.3929 112.077 29.9279 113.834 29.9279ZM118.433 36.1023L113.808 36.5673C110.915 36.8515 109.649 37.7298 109.649 39.409C109.649 41.1916 111.07 42.1991 113.576 42.1991C116.702 42.1991 118.459 40.6491 118.459 37.8073L118.433 36.1023ZM126.41 25.6136C126.41 25.0194 126.875 24.5802 127.469 24.5802C128.064 24.5802 128.503 25.0194 128.503 25.6136C128.503 26.2078 128.064 26.6728 127.469 26.6728C126.875 26.6728 126.41 26.2078 126.41 25.6136ZM126.927 43V30.0829H127.986V43H126.927ZM135.483 40.4166V23.7794L136.543 23.4693V40.3391C136.543 41.3466 137.266 42.0441 138.274 42.0441H139.281V43.0258H138.196C136.594 43.0258 135.483 41.9666 135.483 40.4166ZM144.812 42.1475C144.812 41.5791 145.252 41.1399 145.82 41.1399C146.388 41.1399 146.828 41.5791 146.828 42.1475C146.828 42.7158 146.388 43.155 145.82 43.155C145.252 43.155 144.812 42.7158 144.812 42.1475Z" fill="#FFAE29"/>
<path d="M29.8226 23.7794L29.3717 22.2387L28.2173 22.5766V23.7794H29.8226ZM30.8818 23.4693H32.4871V21.3269L30.4309 21.9287L30.8818 23.4693ZM33.6202 42.0441H35.2255V40.4389H33.6202V42.0441ZM33.6202 43.0258V44.6311H35.2255V43.0258H33.6202ZM31.4279 40.4166V23.7794H28.2173V40.4166H31.4279ZM30.2735 25.32L31.3327 25.01L30.4309 21.9287L29.3717 22.2387L30.2735 25.32ZM29.2765 23.4693V40.3391H32.4871V23.4693H29.2765ZM29.2765 40.3391C29.2765 41.2403 29.6076 42.0911 30.2465 42.7165C30.8821 43.3388 31.7313 43.6494 32.6127 43.6494V40.4389C32.5467 40.4389 32.5103 40.4277 32.4969 40.4225C32.4841 40.4175 32.4855 40.4156 32.4924 40.4223C32.4994 40.4292 32.501 40.4344 32.4992 40.4299C32.4972 40.4249 32.4871 40.3976 32.4871 40.3391H29.2765ZM32.6127 43.6494H33.6202V40.4389H32.6127V43.6494ZM32.015 42.0441V43.0258H35.2255V42.0441H32.015ZM33.6202 41.4206H32.5352V44.6311H33.6202V41.4206ZM32.5352 41.4206C32.0926 41.4206 31.8305 41.2793 31.6896 41.1441C31.5542 41.0142 31.4279 40.7933 31.4279 40.4166H28.2173C28.2173 41.59 28.6464 42.6736 29.4669 43.4608C30.2818 44.2427 31.3761 44.6311 32.5352 44.6311V41.4206ZM51.1705 36.774V38.3792H52.7758V36.774H51.1705ZM39.2868 36.774V35.1687H37.5746L37.6849 36.8773L39.2868 36.774ZM50.0855 41.0366L51.539 40.3553L50.7558 38.6845L49.2095 39.6914L50.0855 41.0366ZM50.473 41.8633L51.3507 43.2073L52.5184 42.4448L51.9265 41.182L50.473 41.8633ZM39.2868 35.8698L37.6866 35.7423L37.5486 37.475H39.2868V35.8698ZM50.1888 35.8698V37.475H51.9258L51.7891 35.7434L50.1888 35.8698ZM44.6603 31.5332C47.5046 31.5332 49.5653 33.482 49.5653 36.1023H52.7758C52.7758 31.489 49.0496 28.3226 44.6603 28.3226V31.5332ZM49.5653 36.1023C49.5653 36.1027 49.5653 36.1032 49.5653 36.1036C49.5653 36.1041 49.5653 36.1045 49.5653 36.105C49.5653 36.1054 49.5653 36.1059 49.5653 36.1063C49.5653 36.1068 49.5653 36.1073 49.5653 36.1077C49.5653 36.1082 49.5653 36.1086 49.5653 36.1091C49.5653 36.1095 49.5653 36.11 49.5653 36.1104C49.5653 36.1109 49.5653 36.1113 49.5653 36.1118C49.5653 36.1122 49.5653 36.1127 49.5653 36.1131C49.5653 36.1136 49.5653 36.114 49.5653 36.1145C49.5653 36.1149 49.5653 36.1154 49.5653 36.1158C49.5653 36.1163 49.5653 36.1167 49.5653 36.1172C49.5653 36.1176 49.5653 36.1181 49.5653 36.1185C49.5653 36.119 49.5653 36.1194 49.5653 36.1199C49.5653 36.1203 49.5653 36.1208 49.5653 36.1212C49.5653 36.1217 49.5653 36.1221 49.5653 36.1226C49.5653 36.123 49.5653 36.1235 49.5653 36.1239C49.5653 36.1244 49.5653 36.1248 49.5653 36.1253C49.5653 36.1257 49.5653 36.1262 49.5653 36.1266C49.5653 36.1271 49.5653 36.1275 49.5653 36.1279C49.5653 36.1284 49.5653 36.1288 49.5653 36.1293C49.5653 36.1297 49.5653 36.1302 49.5653 36.1306C49.5653 36.1311 49.5653 36.1315 49.5653 36.132C49.5653 36.1324 49.5653 36.1329 49.5653 36.1333C49.5653 36.1337 49.5653 36.1342 49.5653 36.1346C49.5653 36.1351 49.5653 36.1355 49.5653 36.136C49.5653 36.1364 49.5653 36.1369 49.5653 36.1373C49.5653 36.1378 49.5653 36.1382 49.5653 36.1386C49.5653 36.1391 49.5653 36.1395 49.5653 36.14C49.5653 36.1404 49.5653 36.1409 49.5653 36.1413C49.5653 36.1417 49.5653 36.1422 49.5653 36.1426C49.5653 36.1431 49.5653 36.1435 49.5653 36.144C49.5653 36.1444 49.5653 36.1448 49.5653 36.1453C49.5653 36.1457 49.5653 36.1462 49.5653 36.1466C49.5653 36.1471 49.5653 36.1475 49.5653 36.1479C49.5653 36.1484 49.5653 36.1488 49.5653 36.1493C49.5653 36.1497 49.5653 36.1502 49.5653 36.1506C49.5653 36.151 49.5653 36.1515 49.5653 36.1519C49.5653 36.1524 49.5653 36.1528 49.5653 36.1532C49.5653 36.1537 49.5653 36.1541 49.5653 36.1546C49.5653 36.155 49.5653 36.1554 49.5653 36.1559C49.5653 36.1563 49.5653 36.1568 49.5653 36.1572C49.5653 36.1576 49.5653 36.1581 49.5653 36.1585C49.5653 36.159 49.5653 36.1594 49.5653 36.1598C49.5653 36.1603 49.5653 36.1607 49.5653 36.1611C49.5653 36.1616 49.5653 36.162 49.5653 36.1625C49.5653 36.1629 49.5653 36.1633 49.5653 36.1638C49.5653 36.1642 49.5653 36.1647 49.5653 36.1651C49.5653 36.1655 49.5653 36.166 49.5653 36.1664C49.5653 36.1668 49.5653 36.1673 49.5653 36.1677C49.5653 36.1682 49.5653 36.1686 49.5653 36.169C49.5653 36.1695 49.5653 36.1699 49.5653 36.1703C49.5653 36.1708 49.5653 36.1712 49.5653 36.1716C49.5653 36.1721 49.5653 36.1725 49.5653 36.173C49.5653 36.1734 49.5653 36.1738 49.5653 36.1743C49.5653 36.1747 49.5653 36.1751 49.5653 36.1756C49.5653 36.176 49.5653 36.1764 49.5653 36.1769C49.5653 36.1773 49.5653 36.1777 49.5653 36.1782C49.5653 36.1786 49.5653 36.179 49.5653 36.1795C49.5653 36.1799 49.5653 36.1804 49.5653 36.1808C49.5653 36.1812 49.5653 36.1817 49.5653 36.1821C49.5653 36.1825 49.5653 36.183 49.5653 36.1834C49.5653 36.1838 49.5653 36.1843 49.5653 36.1847C49.5653 36.1851 49.5653 36.1856 49.5653 36.186C49.5653 36.1864 49.5653 36.1869 49.5653 36.1873C49.5653 36.1877 49.5653 36.1882 49.5653 36.1886C49.5653 36.189 49.5653 36.1895 49.5653 36.1899C49.5653 36.1903 49.5653 36.1907 49.5653 36.1912C49.5653 36.1916 49.5653 36.192 49.5653 36.1925C49.5653 36.1929 49.5653 36.1933 49.5653 36.1938C49.5653 36.1942 49.5653 36.1946 49.5653 36.1951C49.5653 36.1955 49.5653 36.1959 49.5653 36.1964C49.5653 36.1968 49.5653 36.1972 49.5653 36.1977C49.5653 36.1981 49.5653 36.1985 49.5653 36.1989C49.5653 36.1994 49.5653 36.1998 49.5653 36.2002C49.5653 36.2007 49.5653 36.2011 49.5653 36.2015C49.5653 36.202 49.5653 36.2024 49.5653 36.2028C49.5653 36.2032 49.5653 36.2037 49.5653 36.2041C49.5653 36.2045 49.5653 36.205 49.5653 36.2054C49.5653 36.2058 49.5653 36.2062 49.5653 36.2067C49.5653 36.2071 49.5653 36.2075 49.5653 36.208C49.5653 36.2084 49.5653 36.2088 49.5653 36.2093C49.5653 36.2097 49.5653 36.2101 49.5653 36.2105C49.5653 36.211 49.5653 36.2114 49.5653 36.2118C49.5653 36.2122 49.5653 36.2127 49.5653 36.2131C49.5653 36.2135 49.5653 36.214 49.5653 36.2144C49.5653 36.2148 49.5653 36.2152 49.5653 36.2157C49.5653 36.2161 49.5653 36.2165 49.5653 36.217C49.5653 36.2174 49.5653 36.2178 49.5653 36.2182C49.5653 36.2187 49.5653 36.2191 49.5653 36.2195C49.5653 36.2199 49.5653 36.2204 49.5653 36.2208C49.5653 36.2212 49.5653 36.2216 49.5653 36.2221C49.5653 36.2225 49.5653 36.2229 49.5653 36.2233C49.5653 36.2238 49.5653 36.2242 49.5653 36.2246C49.5653 36.2251 49.5653 36.2255 49.5653 36.2259C49.5653 36.2263 49.5653 36.2268 49.5653 36.2272C49.5653 36.2276 49.5653 36.228 49.5653 36.2285C49.5653 36.2289 49.5653 36.2293 49.5653 36.2297C49.5653 36.2302 49.5653 36.2306 49.5653 36.231C49.5653 36.2314 49.5653 36.2319 49.5653 36.2323C49.5653 36.2327 49.5653 36.2331 49.5653 36.2336C49.5653 36.234 49.5653 36.2344 49.5653 36.2348C49.5653 36.2352 49.5653 36.2357 49.5653 36.2361C49.5653 36.2365 49.5653 36.2369 49.5653 36.2374C49.5653 36.2378 49.5653 36.2382 49.5653 36.2386C49.5653 36.2391 49.5653 36.2395 49.5653 36.2399C49.5653 36.2403 49.5653 36.2408 49.5653 36.2412C49.5653 36.2416 49.5653 36.242 49.5653 36.2424C49.5653 36.2429 49.5653 36.2433 49.5653 36.2437C49.5653 36.2441 49.5653 36.2446 49.5653 36.245C49.5653 36.2454 49.5653 36.2458 49.5653 36.2463C49.5653 36.2467 49.5653 36.2471 49.5653 36.2475C49.5653 36.2479 49.5653 36.2484 49.5653 36.2488C49.5653 36.2492 49.5653 36.2496 49.5653 36.2501C49.5653 36.2505 49.5653 36.2509 49.5653 36.2513C49.5653 36.2517 49.5653 36.2522 49.5653 36.2526C49.5653 36.253 49.5653 36.2534 49.5653 36.2538C49.5653 36.2543 49.5653 36.2547 49.5653 36.2551C49.5653 36.2555 49.5653 36.256 49.5653 36.2564C49.5653 36.2568 49.5653 36.2572 49.5653 36.2576C49.5653 36.2581 49.5653 36.2585 49.5653 36.2589C49.5653 36.2593 49.5653 36.2597 49.5653 36.2602C49.5653 36.2606 49.5653 36.261 49.5653 36.2614C49.5653 36.2618 49.5653 36.2623 49.5653 36.2627C49.5653 36.2631 49.5653 36.2635 49.5653 36.2639C49.5653 36.2644 49.5653 36.2648 49.5653 36.2652C49.5653 36.2656 49.5653 36.266 49.5653 36.2665C49.5653 36.2669 49.5653 36.2673 49.5653 36.2677C49.5653 36.2681 49.5653 36.2686 49.5653 36.269C49.5653 36.2694 49.5653 36.2698 49.5653 36.2702C49.5653 36.2707 49.5653 36.2711 49.5653 36.2715C49.5653 36.2719 49.5653 36.2723 49.5653 36.2728C49.5653 36.2732 49.5653 36.2736 49.5653 36.274C49.5653 36.2744 49.5653 36.2748 49.5653 36.2753C49.5653 36.2757 49.5653 36.2761 49.5653 36.2765C49.5653 36.2769 49.5653 36.2774 49.5653 36.2778C49.5653 36.2782 49.5653 36.2786 49.5653 36.279C49.5653 36.2794 49.5653 36.2799 49.5653 36.2803C49.5653 36.2807 49.5653 36.2811 49.5653 36.2815C49.5653 36.282 49.5653 36.2824 49.5653 36.2828C49.5653 36.2832 49.5653 36.2836 49.5653 36.284C49.5653 36.2845 49.5653 36.2849 49.5653 36.2853C49.5653 36.2857 49.5653 36.2861 49.5653 36.2866C49.5653 36.287 49.5653 36.2874 49.5653 36.2878C49.5653 36.2882 49.5653 36.2886 49.5653 36.2891C49.5653 36.2895 49.5653 36.2899 49.5653 36.2903C49.5653 36.2907 49.5653 36.2911 49.5653 36.2916C49.5653 36.292 49.5653 36.2924 49.5653 36.2928C49.5653 36.2932 49.5653 36.2936 49.5653 36.2941C49.5653 36.2945 49.5653 36.2949 49.5653 36.2953C49.5653 36.2957 49.5653 36.2961 49.5653 36.2966C49.5653 36.297 49.5653 36.2974 49.5653 36.2978C49.5653 36.2982 49.5653 36.2986 49.5653 36.2991C49.5653 36.2995 49.5653 36.2999 49.5653 36.3003C49.5653 36.3007 49.5653 36.3011 49.5653 36.3016C49.5653 36.302 49.5653 36.3024 49.5653 36.3028C49.5653 36.3032 49.5653 36.3036 49.5653 36.3041C49.5653 36.3045 49.5653 36.3049 49.5653 36.3053C49.5653 36.3057 49.5653 36.3061 49.5653 36.3066C49.5653 36.307 49.5653 36.3074 49.5653 36.3078C49.5653 36.3082 49.5653 36.3086 49.5653 36.309C49.5653 36.3095 49.5653 36.3099 49.5653 36.3103C49.5653 36.3107 49.5653 36.3111 49.5653 36.3115C49.5653 36.312 49.5653 36.3124 49.5653 36.3128C49.5653 36.3132 49.5653 36.3136 49.5653 36.314C49.5653 36.3145 49.5653 36.3149 49.5653 36.3153C49.5653 36.3157 49.5653 36.3161 49.5653 36.3165C49.5653 36.3169 49.5653 36.3174 49.5653 36.3178C49.5653 36.3182 49.5653 36.3186 49.5653 36.319C49.5653 36.3194 49.5653 36.3198 49.5653 36.3203C49.5653 36.3207 49.5653 36.3211 49.5653 36.3215C49.5653 36.3219 49.5653 36.3223 49.5653 36.3228C49.5653 36.3232 49.5653 36.3236 49.5653 36.324C49.5653 36.3244 49.5653 36.3248 49.5653 36.3252C49.5653 36.3257 49.5653 36.3261 49.5653 36.3265C49.5653 36.3269 49.5653 36.3273 49.5653 36.3277C49.5653 36.3281 49.5653 36.3286 49.5653 36.329C49.5653 36.3294 49.5653 36.3298 49.5653 36.3302C49.5653 36.3306 49.5653 36.331 49.5653 36.3315C49.5653 36.3319 49.5653 36.3323 49.5653 36.3327C49.5653 36.3331 49.5653 36.3335 49.5653 36.3339C49.5653 36.3344 49.5653 36.3348 49.5653 36.3352C49.5653 36.3356 49.5653 36.336 49.5653 36.3364C49.5653 36.3368 49.5653 36.3373 49.5653 36.3377C49.5653 36.3381 49.5653 36.3385 49.5653 36.3389C49.5653 36.3393 49.5653 36.3397 49.5653 36.3402C49.5653 36.3406 49.5653 36.341 49.5653 36.3414C49.5653 36.3418 49.5653 36.3422 49.5653 36.3426C49.5653 36.3431 49.5653 36.3435 49.5653 36.3439C49.5653 36.3443 49.5653 36.3447 49.5653 36.3451C49.5653 36.3455 49.5653 36.346 49.5653 36.3464C49.5653 36.3468 49.5653 36.3472 49.5653 36.3476C49.5653 36.348 49.5653 36.3484 49.5653 36.3489C49.5653 36.3493 49.5653 36.3497 49.5653 36.3501C49.5653 36.3505 49.5653 36.3509 49.5653 36.3513C49.5653 36.3518 49.5653 36.3522 49.5653 36.3526C49.5653 36.353 49.5653 36.3534 49.5653 36.3538C49.5653 36.3542 49.5653 36.3546 49.5653 36.3551C49.5653 36.3555 49.5653 36.3559 49.5653 36.3563C49.5653 36.3567 49.5653 36.3571 49.5653 36.3575C49.5653 36.358 49.5653 36.3584 49.5653 36.3588C49.5653 36.3592 49.5653 36.3596 49.5653 36.36C49.5653 36.3604 49.5653 36.3609 49.5653 36.3613C49.5653 36.3617 49.5653 36.3621 49.5653 36.3625C49.5653 36.3629 49.5653 36.3633 49.5653 36.3638C49.5653 36.3642 49.5653 36.3646 49.5653 36.365C49.5653 36.3654 49.5653 36.3658 49.5653 36.3662C49.5653 36.3666 49.5653 36.3671 49.5653 36.3675C49.5653 36.3679 49.5653 36.3683 49.5653 36.3687C49.5653 36.3691 49.5653 36.3695 49.5653 36.37C49.5653 36.3704 49.5653 36.3708 49.5653 36.3712C49.5653 36.3716 49.5653 36.372 49.5653 36.3724C49.5653 36.3729 49.5653 36.3733 49.5653 36.3737C49.5653 36.3741 49.5653 36.3745 49.5653 36.3749C49.5653 36.3753 49.5653 36.3757 49.5653 36.3762C49.5653 36.3766 49.5653 36.377 49.5653 36.3774C49.5653 36.3778 49.5653 36.3782 49.5653 36.3786C49.5653 36.3791 49.5653 36.3795 49.5653 36.3799C49.5653 36.3803 49.5653 36.3807 49.5653 36.3811C49.5653 36.3815 49.5653 36.382 49.5653 36.3824C49.5653 36.3828 49.5653 36.3832 49.5653 36.3836C49.5653 36.384 49.5653 36.3844 49.5653 36.3849C49.5653 36.3853 49.5653 36.3857 49.5653 36.3861C49.5653 36.3865 49.5653 36.3869 49.5653 36.3873C49.5653 36.3878 49.5653 36.3882 49.5653 36.3886C49.5653 36.389 49.5653 36.3894 49.5653 36.3898C49.5653 36.3902 49.5653 36.3907 49.5653 36.3911C49.5653 36.3915 49.5653 36.3919 49.5653 36.3923C49.5653 36.3927 49.5653 36.3931 49.5653 36.3936C49.5653 36.394 49.5653 36.3944 49.5653 36.3948C49.5653 36.3952 49.5653 36.3956 49.5653 36.396C49.5653 36.3965 49.5653 36.3969 49.5653 36.3973C49.5653 36.3977 49.5653 36.3981 49.5653 36.3985C49.5653 36.3989 49.5653 36.3994 49.5653 36.3998C49.5653 36.4002 49.5653 36.4006 49.5653 36.401C49.5653 36.4014 49.5653 36.4018 49.5653 36.4023C49.5653 36.4027 49.5653 36.4031 49.5653 36.4035C49.5653 36.4039 49.5653 36.4043 49.5653 36.4047C49.5653 36.4052 49.5653 36.4056 49.5653 36.406C49.5653 36.4064 49.5653 36.4068 49.5653 36.4072C49.5653 36.4076 49.5653 36.4081 49.5653 36.4085C49.5653 36.4089 49.5653 36.4093 49.5653 36.4097C49.5653 36.4101 49.5653 36.4106 49.5653 36.411C49.5653 36.4114 49.5653 36.4118 49.5653 36.4122C49.5653 36.4126 49.5653 36.413 49.5653 36.4135C49.5653 36.4139 49.5653 36.4143 49.5653 36.4147C49.5653 36.4151 49.5653 36.4155 49.5653 36.416C49.5653 36.4164 49.5653 36.4168 49.5653 36.4172C49.5653 36.4176 49.5653 36.418 49.5653 36.4184C49.5653 36.4189 49.5653 36.4193 49.5653 36.4197C49.5653 36.4201 49.5653 36.4205 49.5653 36.4209C49.5653 36.4214 49.5653 36.4218 49.5653 36.4222C49.5653 36.4226 49.5653 36.423 49.5653 36.4234C49.5653 36.4238 49.5653 36.4243 49.5653 36.4247C49.5653 36.4251 49.5653 36.4255 49.5653 36.4259C49.5653 36.4263 49.5653 36.4268 49.5653 36.4272C49.5653 36.4276 49.5653 36.428 49.5653 36.4284C49.5653 36.4288 49.5653 36.4293 49.5653 36.4297C49.5653 36.4301 49.5653 36.4305 49.5653 36.4309C49.5653 36.4313 49.5653 36.4318 49.5653 36.4322C49.5653 36.4326 49.5653 36.433 49.5653 36.4334C49.5653 36.4338 49.5653 36.4343 49.5653 36.4347C49.5653 36.4351 49.5653 36.4355 49.5653 36.4359C49.5653 36.4363 49.5653 36.4368 49.5653 36.4372C49.5653 36.4376 49.5653 36.438 49.5653 36.4384C49.5653 36.4388 49.5653 36.4393 49.5653 36.4397C49.5653 36.4401 49.5653 36.4405 49.5653 36.4409C49.5653 36.4413 49.5653 36.4418 49.5653 36.4422C49.5653 36.4426 49.5653 36.443 49.5653 36.4434C49.5653 36.4439 49.5653 36.4443 49.5653 36.4447C49.5653 36.4451 49.5653 36.4455 49.5653 36.4459C49.5653 36.4464 49.5653 36.4468 49.5653 36.4472C49.5653 36.4476 49.5653 36.448 49.5653 36.4484C49.5653 36.4489 49.5653 36.4493 49.5653 36.4497C49.5653 36.4501 49.5653 36.4505 49.5653 36.451C49.5653 36.4514 49.5653 36.4518 49.5653 36.4522C49.5653 36.4526 49.5653 36.453 49.5653 36.4535C49.5653 36.4539 49.5653 36.4543 49.5653 36.4547C49.5653 36.4551 49.5653 36.4556 49.5653 36.456C49.5653 36.4564 49.5653 36.4568 49.5653 36.4572C49.5653 36.4577 49.5653 36.4581 49.5653 36.4585C49.5653 36.4589 49.5653 36.4593 49.5653 36.4598C49.5653 36.4602 49.5653 36.4606 49.5653 36.461C49.5653 36.4614 49.5653 36.4619 49.5653 36.4623C49.5653 36.4627 49.5653 36.4631 49.5653 36.4635C49.5653 36.4639 49.5653 36.4644 49.5653 36.4648C49.5653 36.4652 49.5653 36.4656 49.5653 36.466C49.5653 36.4665 49.5653 36.4669 49.5653 36.4673C49.5653 36.4677 49.5653 36.4681 49.5653 36.4686C49.5653 36.469 49.5653 36.4694 49.5653 36.4698C49.5653 36.4703 49.5653 36.4707 49.5653 36.4711C49.5653 36.4715 49.5653 36.4719 49.5653 36.4724C49.5653 36.4728 49.5653 36.4732 49.5653 36.4736C49.5653 36.474 49.5653 36.4745 49.5653 36.4749C49.5653 36.4753 49.5653 36.4757 49.5653 36.4761C49.5653 36.4766 49.5653 36.477 49.5653 36.4774C49.5653 36.4778 49.5653 36.4783 49.5653 36.4787C49.5653 36.4791 49.5653 36.4795 49.5653 36.4799C49.5653 36.4804 49.5653 36.4808 49.5653 36.4812C49.5653 36.4816 49.5653 36.4821 49.5653 36.4825C49.5653 36.4829 49.5653 36.4833 49.5653 36.4837C49.5653 36.4842 49.5653 36.4846 49.5653 36.485C49.5653 36.4854 49.5653 36.4859 49.5653 36.4863C49.5653 36.4867 49.5653 36.4871 49.5653 36.4875C49.5653 36.488 49.5653 36.4884 49.5653 36.4888C49.5653 36.4892 49.5653 36.4897 49.5653 36.4901C49.5653 36.4905 49.5653 36.4909 49.5653 36.4914C49.5653 36.4918 49.5653 36.4922 49.5653 36.4926C49.5653 36.4931 49.5653 36.4935 49.5653 36.4939C49.5653 36.4943 49.5653 36.4947 49.5653 36.4952C49.5653 36.4956 49.5653 36.496 49.5653 36.4964C49.5653 36.4969 49.5653 36.4973 49.5653 36.4977C49.5653 36.4981 49.5653 36.4986 49.5653 36.499C49.5653 36.4994 49.5653 36.4998 49.5653 36.5003C49.5653 36.5007 49.5653 36.5011 49.5653 36.5015C49.5653 36.502 49.5653 36.5024 49.5653 36.5028C49.5653 36.5032 49.5653 36.5037 49.5653 36.5041C49.5653 36.5045 49.5653 36.5049 49.5653 36.5054C49.5653 36.5058 49.5653 36.5062 49.5653 36.5066C49.5653 36.5071 49.5653 36.5075 49.5653 36.5079C49.5653 36.5084 49.5653 36.5088 49.5653 36.5092C49.5653 36.5096 49.5653 36.5101 49.5653 36.5105C49.5653 36.5109 49.5653 36.5113 49.5653 36.5118C49.5653 36.5122 49.5653 36.5126 49.5653 36.513C49.5653 36.5135 49.5653 36.5139 49.5653 36.5143C49.5653 36.5148 49.5653 36.5152 49.5653 36.5156C49.5653 36.516 49.5653 36.5165 49.5653 36.5169C49.5653 36.5173 49.5653 36.5178 49.5653 36.5182C49.5653 36.5186 49.5653 36.519 49.5653 36.5195C49.5653 36.5199 49.5653 36.5203 49.5653 36.5208C49.5653 36.5212 49.5653 36.5216 49.5653 36.522C49.5653 36.5225 49.5653 36.5229 49.5653 36.5233C49.5653 36.5238 49.5653 36.5242 49.5653 36.5246C49.5653 36.525 49.5653 36.5255 49.5653 36.5259C49.5653 36.5263 49.5653 36.5268 49.5653 36.5272C49.5653 36.5276 49.5653 36.528 49.5653 36.5285C49.5653 36.5289 49.5653 36.5293 49.5653 36.5298C49.5653 36.5302 49.5653 36.5306 49.5653 36.5311C49.5653 36.5315 49.5653 36.5319 49.5653 36.5324C49.5653 36.5328 49.5653 36.5332 49.5653 36.5336C49.5653 36.5341 49.5653 36.5345 49.5653 36.5349C49.5653 36.5354 49.5653 36.5358 49.5653 36.5362C49.5653 36.5367 49.5653 36.5371 49.5653 36.5375C49.5653 36.538 49.5653 36.5384 49.5653 36.5388C49.5653 36.5393 49.5653 36.5397 49.5653 36.5401C49.5653 36.5406 49.5653 36.541 49.5653 36.5414C49.5653 36.5419 49.5653 36.5423 49.5653 36.5427C49.5653 36.5431 49.5653 36.5436 49.5653 36.544C49.5653 36.5445 49.5653 36.5449 49.5653 36.5453C49.5653 36.5458 49.5653 36.5462 49.5653 36.5466C49.5653 36.5471 49.5653 36.5475 49.5653 36.5479C49.5653 36.5484 49.5653 36.5488 49.5653 36.5492C49.5653 36.5497 49.5653 36.5501 49.5653 36.5505C49.5653 36.551 49.5653 36.5514 49.5653 36.5518C49.5653 36.5523 49.5653 36.5527 49.5653 36.5531C49.5653 36.5536 49.5653 36.554 49.5653 36.5544C49.5653 36.5549 49.5653 36.5553 49.5653 36.5557C49.5653 36.5562 49.5653 36.5566 49.5653 36.5571C49.5653 36.5575 49.5653 36.5579 49.5653 36.5584C49.5653 36.5588 49.5653 36.5592 49.5653 36.5597C49.5653 36.5601 49.5653 36.5605 49.5653 36.561C49.5653 36.5614 49.5653 36.5619 49.5653 36.5623C49.5653 36.5627 49.5653 36.5632 49.5653 36.5636C49.5653 36.564 49.5653 36.5645 49.5653 36.5649C49.5653 36.5654 49.5653 36.5658 49.5653 36.5662C49.5653 36.5667 49.5653 36.5671 49.5653 36.5675C49.5653 36.568 49.5653 36.5684 49.5653 36.5689C49.5653 36.5693 49.5653 36.5697 49.5653 36.5702C49.5653 36.5706 49.5653 36.5711 49.5653 36.5715C49.5653 36.5719 49.5653 36.5724 49.5653 36.5728C49.5653 36.5733 49.5653 36.5737 49.5653 36.5741C49.5653 36.5746 49.5653 36.575 49.5653 36.5755C49.5653 36.5759 49.5653 36.5763 49.5653 36.5768C49.5653 36.5772 49.5653 36.5777 49.5653 36.5781C49.5653 36.5785 49.5653 36.579 49.5653 36.5794C49.5653 36.5799 49.5653 36.5803 49.5653 36.5807C49.5653 36.5812 49.5653 36.5816 49.5653 36.5821C49.5653 36.5825 49.5653 36.583 49.5653 36.5834C49.5653 36.5838 49.5653 36.5843 49.5653 36.5847C49.5653 36.5852 49.5653 36.5856 49.5653 36.5861C49.5653 36.5865 49.5653 36.5869 49.5653 36.5874C49.5653 36.5878 49.5653 36.5883 49.5653 36.5887C49.5653 36.5892 49.5653 36.5896 49.5653 36.59C49.5653 36.5905 49.5653 36.5909 49.5653 36.5914C49.5653 36.5918 49.5653 36.5923 49.5653 36.5927C49.5653 36.5932 49.5653 36.5936 49.5653 36.594C49.5653 36.5945 49.5653 36.5949 49.5653 36.5954C49.5653 36.5958 49.5653 36.5963 49.5653 36.5967C49.5653 36.5972 49.5653 36.5976 49.5653 36.5981C49.5653 36.5985 49.5653 36.599 49.5653 36.5994C49.5653 36.5998 49.5653 36.6003 49.5653 36.6007C49.5653 36.6012 49.5653 36.6016 49.5653 36.6021C49.5653 36.6025 49.5653 36.603 49.5653 36.6034C49.5653 36.6039 49.5653 36.6043 49.5653 36.6048C49.5653 36.6052 49.5653 36.6057 49.5653 36.6061C49.5653 36.6066 49.5653 36.607 49.5653 36.6075C49.5653 36.6079 49.5653 36.6083 49.5653 36.6088C49.5653 36.6092 49.5653 36.6097 49.5653 36.6101C49.5653 36.6106 49.5653 36.611 49.5653 36.6115C49.5653 36.6119 49.5653 36.6124 49.5653 36.6128C49.5653 36.6133 49.5653 36.6137 49.5653 36.6142C49.5653 36.6146 49.5653 36.6151 49.5653 36.6155C49.5653 36.616 49.5653 36.6164 49.5653 36.6169C49.5653 36.6173 49.5653 36.6178 49.5653 36.6183C49.5653 36.6187 49.5653 36.6192 49.5653 36.6196C49.5653 36.6201 49.5653 36.6205 49.5653 36.621C49.5653 36.6214 49.5653 36.6219 49.5653 36.6223C49.5653 36.6228 49.5653 36.6232 49.5653 36.6237C49.5653 36.6241 49.5653 36.6246 49.5653 36.625C49.5653 36.6255 49.5653 36.6259 49.5653 36.6264C49.5653 36.6269 49.5653 36.6273 49.5653 36.6278C49.5653 36.6282 49.5653 36.6287 49.5653 36.6291C49.5653 36.6296 49.5653 36.63 49.5653 36.6305C49.5653 36.6309 49.5653 36.6314 49.5653 36.6319C49.5653 36.6323 49.5653 36.6328 49.5653 36.6332C49.5653 36.6337 49.5653 36.6341 49.5653 36.6346C49.5653 36.635 49.5653 36.6355 49.5653 36.636C49.5653 36.6364 49.5653 36.6369 49.5653 36.6373C49.5653 36.6378 49.5653 36.6382 49.5653 36.6387C49.5653 36.6392 49.5653 36.6396 49.5653 36.6401C49.5653 36.6405 49.5653 36.641 49.5653 36.6415C49.5653 36.6419 49.5653 36.6424 49.5653 36.6428C49.5653 36.6433 49.5653 36.6437 49.5653 36.6442C49.5653 36.6447 49.5653 36.6451 49.5653 36.6456C49.5653 36.646 49.5653 36.6465 49.5653 36.647C49.5653 36.6474 49.5653 36.6479 49.5653 36.6483C49.5653 36.6488 49.5653 36.6493 49.5653 36.6497C49.5653 36.6502 49.5653 36.6506 49.5653 36.6511C49.5653 36.6516 49.5653 36.652 49.5653 36.6525C49.5653 36.653 49.5653 36.6534 49.5653 36.6539C49.5653 36.6543 49.5653 36.6548 49.5653 36.6553C49.5653 36.6557 49.5653 36.6562 49.5653 36.6567C49.5653 36.6571 49.5653 36.6576 49.5653 36.658C49.5653 36.6585 49.5653 36.659 49.5653 36.6594C49.5653 36.6599 49.5653 36.6604 49.5653 36.6608C49.5653 36.6613 49.5653 36.6618 49.5653 36.6622C49.5653 36.6627 49.5653 36.6632 49.5653 36.6636C49.5653 36.6641 49.5653 36.6645 49.5653 36.665C49.5653 36.6655 49.5653 36.6659 49.5653 36.6664C49.5653 36.6669 49.5653 36.6673 49.5653 36.6678C49.5653 36.6683 49.5653 36.6687 49.5653 36.6692C49.5653 36.6697 49.5653 36.6701 49.5653 36.6706C49.5653 36.6711 49.5653 36.6715 49.5653 36.672C49.5653 36.6725 49.5653 36.6729 49.5653 36.6734C49.5653 36.6739 49.5653 36.6744 49.5653 36.6748C49.5653 36.6753 49.5653 36.6758 49.5653 36.6762C49.5653 36.6767 49.5653 36.6772 49.5653 36.6776C49.5653 36.6781 49.5653 36.6786 49.5653 36.679C49.5653 36.6795 49.5653 36.68 49.5653 36.6805C49.5653 36.6809 49.5653 36.6814 49.5653 36.6819C49.5653 36.6823 49.5653 36.6828 49.5653 36.6833C49.5653 36.6838 49.5653 36.6842 49.5653 36.6847C49.5653 36.6852 49.5653 36.6856 49.5653 36.6861C49.5653 36.6866 49.5653 36.6871 49.5653 36.6875C49.5653 36.688 49.5653 36.6885 49.5653 36.689C49.5653 36.6894 49.5653 36.6899 49.5653 36.6904C49.5653 36.6909 49.5653 36.6913 49.5653 36.6918C49.5653 36.6923 49.5653 36.6928 49.5653 36.6932C49.5653 36.6937 49.5653 36.6942 49.5653 36.6947C49.5653 36.6951 49.5653 36.6956 49.5653 36.6961C49.5653 36.6966 49.5653 36.697 49.5653 36.6975C49.5653 36.698 49.5653 36.6985 49.5653 36.6989C49.5653 36.6994 49.5653 36.6999 49.5653 36.7004C49.5653 36.7008 49.5653 36.7013 49.5653 36.7018C49.5653 36.7023 49.5653 36.7028 49.5653 36.7032C49.5653 36.7037 49.5653 36.7042 49.5653 36.7047C49.5653 36.7052 49.5653 36.7056 49.5653 36.7061C49.5653 36.7066 49.5653 36.7071 49.5653 36.7075C49.5653 36.708 49.5653 36.7085 49.5653 36.709C49.5653 36.7095 49.5653 36.7099 49.5653 36.7104C49.5653 36.7109 49.5653 36.7114 49.5653 36.7119C49.5653 36.7124 49.5653 36.7128 49.5653 36.7133C49.5653 36.7138 49.5653 36.7143 49.5653 36.7148C49.5653 36.7152 49.5653 36.7157 49.5653 36.7162C49.5653 36.7167 49.5653 36.7172 49.5653 36.7177C49.5653 36.7181 49.5653 36.7186 49.5653 36.7191C49.5653 36.7196 49.5653 36.7201 49.5653 36.7206C49.5653 36.7211 49.5653 36.7215 49.5653 36.722C49.5653 36.7225 49.5653 36.723 49.5653 36.7235C49.5653 36.724 49.5653 36.7244 49.5653 36.7249C49.5653 36.7254 49.5653 36.7259 49.5653 36.7264C49.5653 36.7269 49.5653 36.7274 49.5653 36.7279C49.5653 36.7283 49.5653 36.7288 49.5653 36.7293C49.5653 36.7298 49.5653 36.7303 49.5653 36.7308C49.5653 36.7313 49.5653 36.7318 49.5653 36.7322C49.5653 36.7327 49.5653 36.7332 49.5653 36.7337C49.5653 36.7342 49.5653 36.7347 49.5653 36.7352C49.5653 36.7357 49.5653 36.7362 49.5653 36.7367C49.5653 36.7371 49.5653 36.7376 49.5653 36.7381C49.5653 36.7386 49.5653 36.7391 49.5653 36.7396C49.5653 36.7401 49.5653 36.7406 49.5653 36.7411C49.5653 36.7416 49.5653 36.7421 49.5653 36.7426C49.5653 36.743 49.5653 36.7435 49.5653 36.744C49.5653 36.7445 49.5653 36.745 49.5653 36.7455C49.5653 36.746 49.5653 36.7465 49.5653 36.747C49.5653 36.7475 49.5653 36.748 49.5653 36.7485C49.5653 36.749 49.5653 36.7495 49.5653 36.75C49.5653 36.7505 49.5653 36.751 49.5653 36.7514C49.5653 36.7519 49.5653 36.7524 49.5653 36.7529C49.5653 36.7534 49.5653 36.7539 49.5653 36.7544C49.5653 36.7549 49.5653 36.7554 49.5653 36.7559C49.5653 36.7564 49.5653 36.7569 49.5653 36.7574C49.5653 36.7579 49.5653 36.7584 49.5653 36.7589C49.5653 36.7594 49.5653 36.7599 49.5653 36.7604C49.5653 36.7609 49.5653 36.7614 49.5653 36.7619C49.5653 36.7624 49.5653 36.7629 49.5653 36.7634C49.5653 36.7639 49.5653 36.7644 49.5653 36.7649C49.5653 36.7654 49.5653 36.7659 49.5653 36.7664C49.5653 36.7669 49.5653 36.7674 49.5653 36.7679C49.5653 36.7684 49.5653 36.7689 49.5653 36.7694C49.5653 36.7699 49.5653 36.7704 49.5653 36.7709C49.5653 36.7714 49.5653 36.7719 49.5653 36.7724C49.5653 36.7729 49.5653 36.7735 49.5653 36.774H52.7758C52.7758 36.7735 52.7758 36.7729 52.7758 36.7724C52.7758 36.7719 52.7758 36.7714 52.7758 36.7709C52.7758 36.7704 52.7758 36.7699 52.7758 36.7694C52.7758 36.7689 52.7758 36.7684 52.7758 36.7679C52.7758 36.7674 52.7758 36.7669 52.7758 36.7664C52.7758 36.7659 52.7758 36.7654 52.7758 36.7649C52.7758 36.7644 52.7758 36.7639 52.7758 36.7634C52.7758 36.7629 52.7758 36.7624 52.7758 36.7619C52.7758 36.7614 52.7758 36.7609 52.7758 36.7604C52.7758 36.7599 52.7758 36.7594 52.7758 36.7589C52.7758 36.7584 52.7758 36.7579 52.7758 36.7574C52.7758 36.7569 52.7758 36.7564 52.7758 36.7559C52.7758 36.7554 52.7758 36.7549 52.7758 36.7544C52.7758 36.7539 52.7758 36.7534 52.7758 36.7529C52.7758 36.7524 52.7758 36.7519 52.7758 36.7514C52.7758 36.751 52.7758 36.7505 52.7758 36.75C52.7758 36.7495 52.7758 36.749 52.7758 36.7485C52.7758 36.748 52.7758 36.7475 52.7758 36.747C52.7758 36.7465 52.7758 36.746 52.7758 36.7455C52.7758 36.745 52.7758 36.7445 52.7758 36.744C52.7758 36.7435 52.7758 36.743 52.7758 36.7426C52.7758 36.7421 52.7758 36.7416 52.7758 36.7411C52.7758 36.7406 52.7758 36.7401 52.7758 36.7396C52.7758 36.7391 52.7758 36.7386 52.7758 36.7381C52.7758 36.7376 52.7758 36.7371 52.7758 36.7367C52.7758 36.7362 52.7758 36.7357 52.7758 36.7352C52.7758 36.7347 52.7758 36.7342 52.7758 36.7337C52.7758 36.7332 52.7758 36.7327 52.7758 36.7322C52.7758 36.7318 52.7758 36.7313 52.7758 36.7308C52.7758 36.7303 52.7758 36.7298 52.7758 36.7293C52.7758 36.7288 52.7758 36.7283 52.7758 36.7279C52.7758 36.7274 52.7758 36.7269 52.7758 36.7264C52.7758 36.7259 52.7758 36.7254 52.7758 36.7249C52.7758 36.7244 52.7758 36.724 52.7758 36.7235C52.7758 36.723 52.7758 36.7225 52.7758 36.722C52.7758 36.7215 52.7758 36.7211 52.7758 36.7206C52.7758 36.7201 52.7758 36.7196 52.7758 36.7191C52.7758 36.7186 52.7758 36.7181 52.7758 36.7177C52.7758 36.7172 52.7758 36.7167 52.7758 36.7162C52.7758 36.7157 52.7758 36.7152 52.7758 36.7148C52.7758 36.7143 52.7758 36.7138 52.7758 36.7133C52.7758 36.7128 52.7758 36.7124 52.7758 36.7119C52.7758 36.7114 52.7758 36.7109 52.7758 36.7104C52.7758 36.7099 52.7758 36.7095 52.7758 36.709C52.7758 36.7085 52.7758 36.708 52.7758 36.7075C52.7758 36.7071 52.7758 36.7066 52.7758 36.7061C52.7758 36.7056 52.7758 36.7052 52.7758 36.7047C52.7758 36.7042 52.7758 36.7037 52.7758 36.7032C52.7758 36.7028 52.7758 36.7023 52.7758 36.7018C52.7758 36.7013 52.7758 36.7008 52.7758 36.7004C52.7758 36.6999 52.7758 36.6994 52.7758 36.6989C52.7758 36.6985 52.7758 36.698 52.7758 36.6975C52.7758 36.697 52.7758 36.6966 52.7758 36.6961C52.7758 36.6956 52.7758 36.6951 52.7758 36.6947C52.7758 36.6942 52.7758 36.6937 52.7758 36.6932C52.7758 36.6928 52.7758 36.6923 52.7758 36.6918C52.7758 36.6913 52.7758 36.6909 52.7758 36.6904C52.7758 36.6899 52.7758 36.6894 52.7758 36.689C52.7758 36.6885 52.7758 36.688 52.7758 36.6875C52.7758 36.6871 52.7758 36.6866 52.7758 36.6861C52.7758 36.6856 52.7758 36.6852 52.7758 36.6847C52.7758 36.6842 52.7758 36.6838 52.7758 36.6833C52.7758 36.6828 52.7758 36.6823 52.7758 36.6819C52.7758 36.6814 52.7758 36.6809 52.7758 36.6805C52.7758 36.68 52.7758 36.6795 52.7758 36.679C52.7758 36.6786 52.7758 36.6781 52.7758 36.6776C52.7758 36.6772 52.7758 36.6767 52.7758 36.6762C52.7758 36.6758 52.7758 36.6753 52.7758 36.6748C52.7758 36.6744 52.7758 36.6739 52.7758 36.6734C52.7758 36.6729 52.7758 36.6725 52.7758 36.672C52.7758 36.6715 52.7758 36.6711 52.7758 36.6706C52.7758 36.6701 52.7758 36.6697 52.7758 36.6692C52.7758 36.6687 52.7758 36.6683 52.7758 36.6678C52.7758 36.6673 52.7758 36.6669 52.7758 36.6664C52.7758 36.6659 52.7758 36.6655 52.7758 36.665C52.7758 36.6645 52.7758 36.6641 52.7758 36.6636C52.7758 36.6632 52.7758 36.6627 52.7758 36.6622C52.7758 36.6618 52.7758 36.6613 52.7758 36.6608C52.7758 36.6604 52.7758 36.6599 52.7758 36.6594C52.7758 36.659 52.7758 36.6585 52.7758 36.658C52.7758 36.6576 52.7758 36.6571 52.7758 36.6567C52.7758 36.6562 52.7758 36.6557 52.7758 36.6553C52.7758 36.6548 52.7758 36.6543 52.7758 36.6539C52.7758 36.6534 52.7758 36.653 52.7758 36.6525C52.7758 36.652 52.7758 36.6516 52.7758 36.6511C52.7758 36.6506 52.7758 36.6502 52.7758 36.6497C52.7758 36.6493 52.7758 36.6488 52.7758 36.6483C52.7758 36.6479 52.7758 36.6474 52.7758 36.647C52.7758 36.6465 52.7758 36.646 52.7758 36.6456C52.7758 36.6451 52.7758 36.6447 52.7758 36.6442C52.7758 36.6437 52.7758 36.6433 52.7758 36.6428C52.7758 36.6424 52.7758 36.6419 52.7758 36.6415C52.7758 36.641 52.7758 36.6405 52.7758 36.6401C52.7758 36.6396 52.7758 36.6392 52.7758 36.6387C52.7758 36.6382 52.7758 36.6378 52.7758 36.6373C52.7758 36.6369 52.7758 36.6364 52.7758 36.636C52.7758 36.6355 52.7758 36.635 52.7758 36.6346C52.7758 36.6341 52.7758 36.6337 52.7758 36.6332C52.7758 36.6328 52.7758 36.6323 52.7758 36.6319C52.7758 36.6314 52.7758 36.6309 52.7758 36.6305C52.7758 36.63 52.7758 36.6296 52.7758 36.6291C52.7758 36.6287 52.7758 36.6282 52.7758 36.6278C52.7758 36.6273 52.7758 36.6269 52.7758 36.6264C52.7758 36.6259 52.7758 36.6255 52.7758 36.625C52.7758 36.6246 52.7758 36.6241 52.7758 36.6237C52.7758 36.6232 52.7758 36.6228 52.7758 36.6223C52.7758 36.6219 52.7758 36.6214 52.7758 36.621C52.7758 36.6205 52.7758 36.6201 52.7758 36.6196C52.7758 36.6192 52.7758 36.6187 52.7758 36.6183C52.7758 36.6178 52.7758 36.6173 52.7758 36.6169C52.7758 36.6164 52.7758 36.616 52.7758 36.6155C52.7758 36.6151 52.7758 36.6146 52.7758 36.6142C52.7758 36.6137 52.7758 36.6133 52.7758 36.6128C52.7758 36.6124 52.7758 36.6119 52.7758 36.6115C52.7758 36.611 52.7758 36.6106 52.7758 36.6101C52.7758 36.6097 52.7758 36.6092 52.7758 36.6088C52.7758 36.6083 52.7758 36.6079 52.7758 36.6075C52.7758 36.607 52.7758 36.6066 52.7758 36.6061C52.7758 36.6057 52.7758 36.6052 52.7758 36.6048C52.7758 36.6043 52.7758 36.6039 52.7758 36.6034C52.7758 36.603 52.7758 36.6025 52.7758 36.6021C52.7758 36.6016 52.7758 36.6012 52.7758 36.6007C52.7758 36.6003 52.7758 36.5998 52.7758 36.5994C52.7758 36.599 52.7758 36.5985 52.7758 36.5981C52.7758 36.5976 52.7758 36.5972 52.7758 36.5967C52.7758 36.5963 52.7758 36.5958 52.7758 36.5954C52.7758 36.5949 52.7758 36.5945 52.7758 36.594C52.7758 36.5936 52.7758 36.5932 52.7758 36.5927C52.7758 36.5923 52.7758 36.5918 52.7758 36.5914C52.7758 36.5909 52.7758 36.5905 52.7758 36.59C52.7758 36.5896 52.7758 36.5892 52.7758 36.5887C52.7758 36.5883 52.7758 36.5878 52.7758 36.5874C52.7758 36.5869 52.7758 36.5865 52.7758 36.5861C52.7758 36.5856 52.7758 36.5852 52.7758 36.5847C52.7758 36.5843 52.7758 36.5838 52.7758 36.5834C52.7758 36.583 52.7758 36.5825 52.7758 36.5821C52.7758 36.5816 52.7758 36.5812 52.7758 36.5807C52.7758 36.5803 52.7758 36.5799 52.7758 36.5794C52.7758 36.579 52.7758 36.5785 52.7758 36.5781C52.7758 36.5777 52.7758 36.5772 52.7758 36.5768C52.7758 36.5763 52.7758 36.5759 52.7758 36.5755C52.7758 36.575 52.7758 36.5746 52.7758 36.5741C52.7758 36.5737 52.7758 36.5733 52.7758 36.5728C52.7758 36.5724 52.7758 36.5719 52.7758 36.5715C52.7758 36.5711 52.7758 36.5706 52.7758 36.5702C52.7758 36.5697 52.7758 36.5693 52.7758 36.5689C52.7758 36.5684 52.7758 36.568 52.7758 36.5675C52.7758 36.5671 52.7758 36.5667 52.7758 36.5662C52.7758 36.5658 52.7758 36.5654 52.7758 36.5649C52.7758 36.5645 52.7758 36.564 52.7758 36.5636C52.7758 36.5632 52.7758 36.5627 52.7758 36.5623C52.7758 36.5619 52.7758 36.5614 52.7758 36.561C52.7758 36.5605 52.7758 36.5601 52.7758 36.5597C52.7758 36.5592 52.7758 36.5588 52.7758 36.5584C52.7758 36.5579 52.7758 36.5575 52.7758 36.5571C52.7758 36.5566 52.7758 36.5562 52.7758 36.5557C52.7758 36.5553 52.7758 36.5549 52.7758 36.5544C52.7758 36.554 52.7758 36.5536 52.7758 36.5531C52.7758 36.5527 52.7758 36.5523 52.7758 36.5518C52.7758 36.5514 52.7758 36.551 52.7758 36.5505C52.7758 36.5501 52.7758 36.5497 52.7758 36.5492C52.7758 36.5488 52.7758 36.5484 52.7758 36.5479C52.7758 36.5475 52.7758 36.5471 52.7758 36.5466C52.7758 36.5462 52.7758 36.5458 52.7758 36.5453C52.7758 36.5449 52.7758 36.5445 52.7758 36.544C52.7758 36.5436 52.7758 36.5431 52.7758 36.5427C52.7758 36.5423 52.7758 36.5419 52.7758 36.5414C52.7758 36.541 52.7758 36.5406 52.7758 36.5401C52.7758 36.5397 52.7758 36.5393 52.7758 36.5388C52.7758 36.5384 52.7758 36.538 52.7758 36.5375C52.7758 36.5371 52.7758 36.5367 52.7758 36.5362C52.7758 36.5358 52.7758 36.5354 52.7758 36.5349C52.7758 36.5345 52.7758 36.5341 52.7758 36.5336C52.7758 36.5332 52.7758 36.5328 52.7758 36.5324C52.7758 36.5319 52.7758 36.5315 52.7758 36.5311C52.7758 36.5306 52.7758 36.5302 52.7758 36.5298C52.7758 36.5293 52.7758 36.5289 52.7758 36.5285C52.7758 36.528 52.7758 36.5276 52.7758 36.5272C52.7758 36.5268 52.7758 36.5263 52.7758 36.5259C52.7758 36.5255 52.7758 36.525 52.7758 36.5246C52.7758 36.5242 52.7758 36.5238 52.7758 36.5233C52.7758 36.5229 52.7758 36.5225 52.7758 36.522C52.7758 36.5216 52.7758 36.5212 52.7758 36.5208C52.7758 36.5203 52.7758 36.5199 52.7758 36.5195C52.7758 36.519 52.7758 36.5186 52.7758 36.5182C52.7758 36.5178 52.7758 36.5173 52.7758 36.5169C52.7758 36.5165 52.7758 36.516 52.7758 36.5156C52.7758 36.5152 52.7758 36.5148 52.7758 36.5143C52.7758 36.5139 52.7758 36.5135 52.7758 36.513C52.7758 36.5126 52.7758 36.5122 52.7758 36.5118C52.7758 36.5113 52.7758 36.5109 52.7758 36.5105C52.7758 36.5101 52.7758 36.5096 52.7758 36.5092C52.7758 36.5088 52.7758 36.5084 52.7758 36.5079C52.7758 36.5075 52.7758 36.5071 52.7758 36.5066C52.7758 36.5062 52.7758 36.5058 52.7758 36.5054C52.7758 36.5049 52.7758 36.5045 52.7758 36.5041C52.7758 36.5037 52.7758 36.5032 52.7758 36.5028C52.7758 36.5024 52.7758 36.502 52.7758 36.5015C52.7758 36.5011 52.7758 36.5007 52.7758 36.5003C52.7758 36.4998 52.7758 36.4994 52.7758 36.499C52.7758 36.4986 52.7758 36.4981 52.7758 36.4977C52.7758 36.4973 52.7758 36.4969 52.7758 36.4964C52.7758 36.496 52.7758 36.4956 52.7758 36.4952C52.7758 36.4947 52.7758 36.4943 52.7758 36.4939C52.7758 36.4935 52.7758 36.4931 52.7758 36.4926C52.7758 36.4922 52.7758 36.4918 52.7758 36.4914C52.7758 36.4909 52.7758 36.4905 52.7758 36.4901C52.7758 36.4897 52.7758 36.4892 52.7758 36.4888C52.7758 36.4884 52.7758 36.488 52.7758 36.4875C52.7758 36.4871 52.7758 36.4867 52.7758 36.4863C52.7758 36.4859 52.7758 36.4854 52.7758 36.485C52.7758 36.4846 52.7758 36.4842 52.7758 36.4837C52.7758 36.4833 52.7758 36.4829 52.7758 36.4825C52.7758 36.4821 52.7758 36.4816 52.7758 36.4812C52.7758 36.4808 52.7758 36.4804 52.7758 36.4799C52.7758 36.4795 52.7758 36.4791 52.7758 36.4787C52.7758 36.4783 52.7758 36.4778 52.7758 36.4774C52.7758 36.477 52.7758 36.4766 52.7758 36.4761C52.7758 36.4757 52.7758 36.4753 52.7758 36.4749C52.7758 36.4745 52.7758 36.474 52.7758 36.4736C52.7758 36.4732 52.7758 36.4728 52.7758 36.4724C52.7758 36.4719 52.7758 36.4715 52.7758 36.4711C52.7758 36.4707 52.7758 36.4703 52.7758 36.4698C52.7758 36.4694 52.7758 36.469 52.7758 36.4686C52.7758 36.4681 52.7758 36.4677 52.7758 36.4673C52.7758 36.4669 52.7758 36.4665 52.7758 36.466C52.7758 36.4656 52.7758 36.4652 52.7758 36.4648C52.7758 36.4644 52.7758 36.4639 52.7758 36.4635C52.7758 36.4631 52.7758 36.4627 52.7758 36.4623C52.7758 36.4619 52.7758 36.4614 52.7758 36.461C52.7758 36.4606 52.7758 36.4602 52.7758 36.4598C52.7758 36.4593 52.7758 36.4589 52.7758 36.4585C52.7758 36.4581 52.7758 36.4577 52.7758 36.4572C52.7758 36.4568 52.7758 36.4564 52.7758 36.456C52.7758 36.4556 52.7758 36.4551 52.7758 36.4547C52.7758 36.4543 52.7758 36.4539 52.7758 36.4535C52.7758 36.453 52.7758 36.4526 52.7758 36.4522C52.7758 36.4518 52.7758 36.4514 52.7758 36.451C52.7758 36.4505 52.7758 36.4501 52.7758 36.4497C52.7758 36.4493 52.7758 36.4489 52.7758 36.4484C52.7758 36.448 52.7758 36.4476 52.7758 36.4472C52.7758 36.4468 52.7758 36.4464 52.7758 36.4459C52.7758 36.4455 52.7758 36.4451 52.7758 36.4447C52.7758 36.4443 52.7758 36.4439 52.7758 36.4434C52.7758 36.443 52.7758 36.4426 52.7758 36.4422C52.7758 36.4418 52.7758 36.4413 52.7758 36.4409C52.7758 36.4405 52.7758 36.4401 52.7758 36.4397C52.7758 36.4393 52.7758 36.4388 52.7758 36.4384C52.7758 36.438 52.7758 36.4376 52.7758 36.4372C52.7758 36.4368 52.7758 36.4363 52.7758 36.4359C52.7758 36.4355 52.7758 36.4351 52.7758 36.4347C52.7758 36.4343 52.7758 36.4338 52.7758 36.4334C52.7758 36.433 52.7758 36.4326 52.7758 36.4322C52.7758 36.4318 52.7758 36.4313 52.7758 36.4309C52.7758 36.4305 52.7758 36.4301 52.7758 36.4297C52.7758 36.4293 52.7758 36.4288 52.7758 36.4284C52.7758 36.428 52.7758 36.4276 52.7758 36.4272C52.7758 36.4268 52.7758 36.4263 52.7758 36.4259C52.7758 36.4255 52.7758 36.4251 52.7758 36.4247C52.7758 36.4243 52.7758 36.4238 52.7758 36.4234C52.7758 36.423 52.7758 36.4226 52.7758 36.4222C52.7758 36.4218 52.7758 36.4214 52.7758 36.4209C52.7758 36.4205 52.7758 36.4201 52.7758 36.4197C52.7758 36.4193 52.7758 36.4189 52.7758 36.4184C52.7758 36.418 52.7758 36.4176 52.7758 36.4172C52.7758 36.4168 52.7758 36.4164 52.7758 36.416C52.7758 36.4155 52.7758 36.4151 52.7758 36.4147C52.7758 36.4143 52.7758 36.4139 52.7758 36.4135C52.7758 36.413 52.7758 36.4126 52.7758 36.4122C52.7758 36.4118 52.7758 36.4114 52.7758 36.411C52.7758 36.4106 52.7758 36.4101 52.7758 36.4097C52.7758 36.4093 52.7758 36.4089 52.7758 36.4085C52.7758 36.4081 52.7758 36.4076 52.7758 36.4072C52.7758 36.4068 52.7758 36.4064 52.7758 36.406C52.7758 36.4056 52.7758 36.4052 52.7758 36.4047C52.7758 36.4043 52.7758 36.4039 52.7758 36.4035C52.7758 36.4031 52.7758 36.4027 52.7758 36.4023C52.7758 36.4018 52.7758 36.4014 52.7758 36.401C52.7758 36.4006 52.7758 36.4002 52.7758 36.3998C52.7758 36.3994 52.7758 36.3989 52.7758 36.3985C52.7758 36.3981 52.7758 36.3977 52.7758 36.3973C52.7758 36.3969 52.7758 36.3965 52.7758 36.396C52.7758 36.3956 52.7758 36.3952 52.7758 36.3948C52.7758 36.3944 52.7758 36.394 52.7758 36.3936C52.7758 36.3931 52.7758 36.3927 52.7758 36.3923C52.7758 36.3919 52.7758 36.3915 52.7758 36.3911C52.7758 36.3907 52.7758 36.3902 52.7758 36.3898C52.7758 36.3894 52.7758 36.389 52.7758 36.3886C52.7758 36.3882 52.7758 36.3878 52.7758 36.3873C52.7758 36.3869 52.7758 36.3865 52.7758 36.3861C52.7758 36.3857 52.7758 36.3853 52.7758 36.3849C52.7758 36.3844 52.7758 36.384 52.7758 36.3836C52.7758 36.3832 52.7758 36.3828 52.7758 36.3824C52.7758 36.382 52.7758 36.3815 52.7758 36.3811C52.7758 36.3807 52.7758 36.3803 52.7758 36.3799C52.7758 36.3795 52.7758 36.3791 52.7758 36.3786C52.7758 36.3782 52.7758 36.3778 52.7758 36.3774C52.7758 36.377 52.7758 36.3766 52.7758 36.3762C52.7758 36.3757 52.7758 36.3753 52.7758 36.3749C52.7758 36.3745 52.7758 36.3741 52.7758 36.3737C52.7758 36.3733 52.7758 36.3729 52.7758 36.3724C52.7758 36.372 52.7758 36.3716 52.7758 36.3712C52.7758 36.3708 52.7758 36.3704 52.7758 36.37C52.7758 36.3695 52.7758 36.3691 52.7758 36.3687C52.7758 36.3683 52.7758 36.3679 52.7758 36.3675C52.7758 36.3671 52.7758 36.3666 52.7758 36.3662C52.7758 36.3658 52.7758 36.3654 52.7758 36.365C52.7758 36.3646 52.7758 36.3642 52.7758 36.3638C52.7758 36.3633 52.7758 36.3629 52.7758 36.3625C52.7758 36.3621 52.7758 36.3617 52.7758 36.3613C52.7758 36.3609 52.7758 36.3604 52.7758 36.36C52.7758 36.3596 52.7758 36.3592 52.7758 36.3588C52.7758 36.3584 52.7758 36.358 52.7758 36.3575C52.7758 36.3571 52.7758 36.3567 52.7758 36.3563C52.7758 36.3559 52.7758 36.3555 52.7758 36.3551C52.7758 36.3546 52.7758 36.3542 52.7758 36.3538C52.7758 36.3534 52.7758 36.353 52.7758 36.3526C52.7758 36.3522 52.7758 36.3518 52.7758 36.3513C52.7758 36.3509 52.7758 36.3505 52.7758 36.3501C52.7758 36.3497 52.7758 36.3493 52.7758 36.3489C52.7758 36.3484 52.7758 36.348 52.7758 36.3476C52.7758 36.3472 52.7758 36.3468 52.7758 36.3464C52.7758 36.346 52.7758 36.3455 52.7758 36.3451C52.7758 36.3447 52.7758 36.3443 52.7758 36.3439C52.7758 36.3435 52.7758 36.3431 52.7758 36.3426C52.7758 36.3422 52.7758 36.3418 52.7758 36.3414C52.7758 36.341 52.7758 36.3406 52.7758 36.3402C52.7758 36.3397 52.7758 36.3393 52.7758 36.3389C52.7758 36.3385 52.7758 36.3381 52.7758 36.3377C52.7758 36.3373 52.7758 36.3368 52.7758 36.3364C52.7758 36.336 52.7758 36.3356 52.7758 36.3352C52.7758 36.3348 52.7758 36.3344 52.7758 36.3339C52.7758 36.3335 52.7758 36.3331 52.7758 36.3327C52.7758 36.3323 52.7758 36.3319 52.7758 36.3315C52.7758 36.331 52.7758 36.3306 52.7758 36.3302C52.7758 36.3298 52.7758 36.3294 52.7758 36.329C52.7758 36.3286 52.7758 36.3281 52.7758 36.3277C52.7758 36.3273 52.7758 36.3269 52.7758 36.3265C52.7758 36.3261 52.7758 36.3257 52.7758 36.3252C52.7758 36.3248 52.7758 36.3244 52.7758 36.324C52.7758 36.3236 52.7758 36.3232 52.7758 36.3228C52.7758 36.3223 52.7758 36.3219 52.7758 36.3215C52.7758 36.3211 52.7758 36.3207 52.7758 36.3203C52.7758 36.3198 52.7758 36.3194 52.7758 36.319C52.7758 36.3186 52.7758 36.3182 52.7758 36.3178C52.7758 36.3174 52.7758 36.3169 52.7758 36.3165C52.7758 36.3161 52.7758 36.3157 52.7758 36.3153C52.7758 36.3149 52.7758 36.3145 52.7758 36.314C52.7758 36.3136 52.7758 36.3132 52.7758 36.3128C52.7758 36.3124 52.7758 36.312 52.7758 36.3115C52.7758 36.3111 52.7758 36.3107 52.7758 36.3103C52.7758 36.3099 52.7758 36.3095 52.7758 36.309C52.7758 36.3086 52.7758 36.3082 52.7758 36.3078C52.7758 36.3074 52.7758 36.307 52.7758 36.3066C52.7758 36.3061 52.7758 36.3057 52.7758 36.3053C52.7758 36.3049 52.7758 36.3045 52.7758 36.3041C52.7758 36.3036 52.7758 36.3032 52.7758 36.3028C52.7758 36.3024 52.7758 36.302 52.7758 36.3016C52.7758 36.3011 52.7758 36.3007 52.7758 36.3003C52.7758 36.2999 52.7758 36.2995 52.7758 36.2991C52.7758 36.2986 52.7758 36.2982 52.7758 36.2978C52.7758 36.2974 52.7758 36.297 52.7758 36.2966C52.7758 36.2961 52.7758 36.2957 52.7758 36.2953C52.7758 36.2949 52.7758 36.2945 52.7758 36.2941C52.7758 36.2936 52.7758 36.2932 52.7758 36.2928C52.7758 36.2924 52.7758 36.292 52.7758 36.2916C52.7758 36.2911 52.7758 36.2907 52.7758 36.2903C52.7758 36.2899 52.7758 36.2895 52.7758 36.2891C52.7758 36.2886 52.7758 36.2882 52.7758 36.2878C52.7758 36.2874 52.7758 36.287 52.7758 36.2866C52.7758 36.2861 52.7758 36.2857 52.7758 36.2853C52.7758 36.2849 52.7758 36.2845 52.7758 36.284C52.7758 36.2836 52.7758 36.2832 52.7758 36.2828C52.7758 36.2824 52.7758 36.282 52.7758 36.2815C52.7758 36.2811 52.7758 36.2807 52.7758 36.2803C52.7758 36.2799 52.7758 36.2794 52.7758 36.279C52.7758 36.2786 52.7758 36.2782 52.7758 36.2778C52.7758 36.2774 52.7758 36.2769 52.7758 36.2765C52.7758 36.2761 52.7758 36.2757 52.7758 36.2753C52.7758 36.2748 52.7758 36.2744 52.7758 36.274C52.7758 36.2736 52.7758 36.2732 52.7758 36.2728C52.7758 36.2723 52.7758 36.2719 52.7758 36.2715C52.7758 36.2711 52.7758 36.2707 52.7758 36.2702C52.7758 36.2698 52.7758 36.2694 52.7758 36.269C52.7758 36.2686 52.7758 36.2681 52.7758 36.2677C52.7758 36.2673 52.7758 36.2669 52.7758 36.2665C52.7758 36.266 52.7758 36.2656 52.7758 36.2652C52.7758 36.2648 52.7758 36.2644 52.7758 36.2639C52.7758 36.2635 52.7758 36.2631 52.7758 36.2627C52.7758 36.2623 52.7758 36.2618 52.7758 36.2614C52.7758 36.261 52.7758 36.2606 52.7758 36.2602C52.7758 36.2597 52.7758 36.2593 52.7758 36.2589C52.7758 36.2585 52.7758 36.2581 52.7758 36.2576C52.7758 36.2572 52.7758 36.2568 52.7758 36.2564C52.7758 36.256 52.7758 36.2555 52.7758 36.2551C52.7758 36.2547 52.7758 36.2543 52.7758 36.2538C52.7758 36.2534 52.7758 36.253 52.7758 36.2526C52.7758 36.2522 52.7758 36.2517 52.7758 36.2513C52.7758 36.2509 52.7758 36.2505 52.7758 36.2501C52.7758 36.2496 52.7758 36.2492 52.7758 36.2488C52.7758 36.2484 52.7758 36.2479 52.7758 36.2475C52.7758 36.2471 52.7758 36.2467 52.7758 36.2463C52.7758 36.2458 52.7758 36.2454 52.7758 36.245C52.7758 36.2446 52.7758 36.2441 52.7758 36.2437C52.7758 36.2433 52.7758 36.2429 52.7758 36.2424C52.7758 36.242 52.7758 36.2416 52.7758 36.2412C52.7758 36.2408 52.7758 36.2403 52.7758 36.2399C52.7758 36.2395 52.7758 36.2391 52.7758 36.2386C52.7758 36.2382 52.7758 36.2378 52.7758 36.2374C52.7758 36.2369 52.7758 36.2365 52.7758 36.2361C52.7758 36.2357 52.7758 36.2352 52.7758 36.2348C52.7758 36.2344 52.7758 36.234 52.7758 36.2336C52.7758 36.2331 52.7758 36.2327 52.7758 36.2323C52.7758 36.2319 52.7758 36.2314 52.7758 36.231C52.7758 36.2306 52.7758 36.2302 52.7758 36.2297C52.7758 36.2293 52.7758 36.2289 52.7758 36.2285C52.7758 36.228 52.7758 36.2276 52.7758 36.2272C52.7758 36.2268 52.7758 36.2263 52.7758 36.2259C52.7758 36.2255 52.7758 36.2251 52.7758 36.2246C52.7758 36.2242 52.7758 36.2238 52.7758 36.2233C52.7758 36.2229 52.7758 36.2225 52.7758 36.2221C52.7758 36.2216 52.7758 36.2212 52.7758 36.2208C52.7758 36.2204 52.7758 36.2199 52.7758 36.2195C52.7758 36.2191 52.7758 36.2187 52.7758 36.2182C52.7758 36.2178 52.7758 36.2174 52.7758 36.217C52.7758 36.2165 52.7758 36.2161 52.7758 36.2157C52.7758 36.2152 52.7758 36.2148 52.7758 36.2144C52.7758 36.214 52.7758 36.2135 52.7758 36.2131C52.7758 36.2127 52.7758 36.2122 52.7758 36.2118C52.7758 36.2114 52.7758 36.211 52.7758 36.2105C52.7758 36.2101 52.7758 36.2097 52.7758 36.2093C52.7758 36.2088 52.7758 36.2084 52.7758 36.208C52.7758 36.2075 52.7758 36.2071 52.7758 36.2067C52.7758 36.2062 52.7758 36.2058 52.7758 36.2054C52.7758 36.205 52.7758 36.2045 52.7758 36.2041C52.7758 36.2037 52.7758 36.2032 52.7758 36.2028C52.7758 36.2024 52.7758 36.202 52.7758 36.2015C52.7758 36.2011 52.7758 36.2007 52.7758 36.2002C52.7758 36.1998 52.7758 36.1994 52.7758 36.1989C52.7758 36.1985 52.7758 36.1981 52.7758 36.1977C52.7758 36.1972 52.7758 36.1968 52.7758 36.1964C52.7758 36.1959 52.7758 36.1955 52.7758 36.1951C52.7758 36.1946 52.7758 36.1942 52.7758 36.1938C52.7758 36.1933 52.7758 36.1929 52.7758 36.1925C52.7758 36.192 52.7758 36.1916 52.7758 36.1912C52.7758 36.1907 52.7758 36.1903 52.7758 36.1899C52.7758 36.1895 52.7758 36.189 52.7758 36.1886C52.7758 36.1882 52.7758 36.1877 52.7758 36.1873C52.7758 36.1869 52.7758 36.1864 52.7758 36.186C52.7758 36.1856 52.7758 36.1851 52.7758 36.1847C52.7758 36.1843 52.7758 36.1838 52.7758 36.1834C52.7758 36.183 52.7758 36.1825 52.7758 36.1821C52.7758 36.1817 52.7758 36.1812 52.7758 36.1808C52.7758 36.1804 52.7758 36.1799 52.7758 36.1795C52.7758 36.179 52.7758 36.1786 52.7758 36.1782C52.7758 36.1777 52.7758 36.1773 52.7758 36.1769C52.7758 36.1764 52.7758 36.176 52.7758 36.1756C52.7758 36.1751 52.7758 36.1747 52.7758 36.1743C52.7758 36.1738 52.7758 36.1734 52.7758 36.173C52.7758 36.1725 52.7758 36.1721 52.7758 36.1716C52.7758 36.1712 52.7758 36.1708 52.7758 36.1703C52.7758 36.1699 52.7758 36.1695 52.7758 36.169C52.7758 36.1686 52.7758 36.1682 52.7758 36.1677C52.7758 36.1673 52.7758 36.1668 52.7758 36.1664C52.7758 36.166 52.7758 36.1655 52.7758 36.1651C52.7758 36.1647 52.7758 36.1642 52.7758 36.1638C52.7758 36.1633 52.7758 36.1629 52.7758 36.1625C52.7758 36.162 52.7758 36.1616 52.7758 36.1611C52.7758 36.1607 52.7758 36.1603 52.7758 36.1598C52.7758 36.1594 52.7758 36.159 52.7758 36.1585C52.7758 36.1581 52.7758 36.1576 52.7758 36.1572C52.7758 36.1568 52.7758 36.1563 52.7758 36.1559C52.7758 36.1554 52.7758 36.155 52.7758 36.1546C52.7758 36.1541 52.7758 36.1537 52.7758 36.1532C52.7758 36.1528 52.7758 36.1524 52.7758 36.1519C52.7758 36.1515 52.7758 36.151 52.7758 36.1506C52.7758 36.1502 52.7758 36.1497 52.7758 36.1493C52.7758 36.1488 52.7758 36.1484 52.7758 36.1479C52.7758 36.1475 52.7758 36.1471 52.7758 36.1466C52.7758 36.1462 52.7758 36.1457 52.7758 36.1453C52.7758 36.1448 52.7758 36.1444 52.7758 36.144C52.7758 36.1435 52.7758 36.1431 52.7758 36.1426C52.7758 36.1422 52.7758 36.1417 52.7758 36.1413C52.7758 36.1409 52.7758 36.1404 52.7758 36.14C52.7758 36.1395 52.7758 36.1391 52.7758 36.1386C52.7758 36.1382 52.7758 36.1378 52.7758 36.1373C52.7758 36.1369 52.7758 36.1364 52.7758 36.136C52.7758 36.1355 52.7758 36.1351 52.7758 36.1346C52.7758 36.1342 52.7758 36.1337 52.7758 36.1333C52.7758 36.1329 52.7758 36.1324 52.7758 36.132C52.7758 36.1315 52.7758 36.1311 52.7758 36.1306C52.7758 36.1302 52.7758 36.1297 52.7758 36.1293C52.7758 36.1288 52.7758 36.1284 52.7758 36.1279C52.7758 36.1275 52.7758 36.1271 52.7758 36.1266C52.7758 36.1262 52.7758 36.1257 52.7758 36.1253C52.7758 36.1248 52.7758 36.1244 52.7758 36.1239C52.7758 36.1235 52.7758 36.123 52.7758 36.1226C52.7758 36.1221 52.7758 36.1217 52.7758 36.1212C52.7758 36.1208 52.7758 36.1203 52.7758 36.1199C52.7758 36.1194 52.7758 36.119 52.7758 36.1185C52.7758 36.1181 52.7758 36.1176 52.7758 36.1172C52.7758 36.1167 52.7758 36.1163 52.7758 36.1158C52.7758 36.1154 52.7758 36.1149 52.7758 36.1145C52.7758 36.114 52.7758 36.1136 52.7758 36.1131C52.7758 36.1127 52.7758 36.1122 52.7758 36.1118C52.7758 36.1113 52.7758 36.1109 52.7758 36.1104C52.7758 36.11 52.7758 36.1095 52.7758 36.1091C52.7758 36.1086 52.7758 36.1082 52.7758 36.1077C52.7758 36.1073 52.7758 36.1068 52.7758 36.1063C52.7758 36.1059 52.7758 36.1054 52.7758 36.105C52.7758 36.1045 52.7758 36.1041 52.7758 36.1036C52.7758 36.1032 52.7758 36.1027 52.7758 36.1023H49.5653ZM51.1705 35.1687H39.2868V38.3792H51.1705V35.1687ZM37.6849 36.8773C37.9567 41.0904 41.458 43.8044 45.8228 43.8044V40.5939C42.7991 40.5939 41.0303 38.8644 40.8887 36.6706L37.6849 36.8773ZM45.8228 43.8044C47.7472 43.8044 49.5583 43.2955 50.9614 42.3818L49.2095 39.6914C48.3909 40.2244 47.2053 40.5939 45.8228 40.5939V43.8044ZM48.632 41.7179L49.0195 42.5446L51.9265 41.182L51.539 40.3553L48.632 41.7179ZM49.5953 40.5193C48.6221 41.1548 47.308 41.5497 45.797 41.5497V44.7603C47.8512 44.7603 49.7922 44.2252 51.3507 43.2073L49.5953 40.5193ZM45.797 41.5497C42.1428 41.5497 39.8587 39.2589 39.8587 36.3089H36.6482C36.6482 41.3159 40.6676 44.7603 45.797 44.7603V41.5497ZM39.8587 36.3089C39.8587 33.527 41.8267 31.5332 44.6603 31.5332V28.3226C40.0536 28.3226 36.6482 31.7539 36.6482 36.3089H39.8587ZM39.2868 37.475H50.1888V34.2645H39.2868V37.475ZM51.7891 35.7434C51.4885 31.9358 48.5184 29.2785 44.6861 29.2785V32.489C46.8991 32.489 48.4241 33.9135 48.5885 35.9961L51.7891 35.7434ZM44.6861 29.2785C40.8394 29.2785 37.9845 32.0014 37.6866 35.7423L40.887 35.9972C41.0541 33.8996 42.5394 32.489 44.6861 32.489V29.2785ZM67.8986 43V44.6053H69.7495L69.4877 42.773L67.8986 43ZM66.8652 43L65.2744 43.215L65.4623 44.6053H66.8652V43ZM66.5552 40.4941L68.1525 40.3344L67.5942 34.7515L65.1151 39.7848L66.5552 40.4941ZM61.7242 35.6631L61.5636 34.0659L61.5544 34.0668L61.7242 35.6631ZM66.3485 35.1981L66.5091 36.7953L67.9538 36.65V35.1981H66.3485ZM57.7457 32.0463L56.3013 32.7466L57.1331 34.4623L58.6819 33.3503L57.7457 32.0463ZM57.3324 31.1938L56.4353 29.8626L55.2803 30.6409L55.8879 31.8941L57.3324 31.1938ZM66.3485 36.1023L67.9536 36.0779L67.9271 34.3302L66.1879 34.5051L66.3485 36.1023ZM61.7242 36.5673L61.8811 38.1649L61.8848 38.1645L61.7242 36.5673ZM66.3744 37.8073H67.9796V37.7952L67.9794 37.783L66.3744 37.8073ZM61.75 31.5332C63.2474 31.5332 64.262 31.906 64.868 32.3932C65.4335 32.8478 65.7766 33.5037 65.7766 34.4489H68.9872C68.9872 32.6039 68.2581 30.9993 66.8797 29.891C65.5416 28.8153 63.7402 28.3226 61.75 28.3226V31.5332ZM65.7766 34.4489V36.5415H68.9872V34.4489H65.7766ZM65.7766 36.5415C65.7766 39.1506 65.9417 40.653 66.3094 43.227L69.4877 42.773C69.1321 40.2835 68.9872 38.9442 68.9872 36.5415H65.7766ZM67.8986 41.3947H66.8652V44.6053H67.8986V41.3947ZM68.456 42.785C68.3264 41.8256 68.2268 41.0775 68.1525 40.3344L64.9579 40.6538C65.0386 41.4608 65.1457 42.2626 65.2744 43.215L68.456 42.785ZM65.1151 39.7848C64.6215 40.7871 63.5132 41.5497 61.3108 41.5497V44.7603C64.2753 44.7603 66.7838 43.6629 67.9953 41.2034L65.1151 39.7848ZM61.3108 41.5497C59.9706 41.5497 59.1756 41.258 58.75 40.929C58.3878 40.6491 58.1368 40.226 58.1368 39.4607H54.9263C54.9263 41.0722 55.5278 42.4962 56.7867 43.4692C57.9822 44.3933 59.5768 44.7603 61.3108 44.7603V41.5497ZM58.1368 39.4607C58.1368 38.7568 58.3401 38.4207 58.7099 38.1501C59.2047 37.788 60.1564 37.4442 61.894 37.2593L61.5544 34.0668C59.6494 34.2695 58.0047 34.6878 56.8139 35.5593C55.498 36.5222 54.9263 37.8912 54.9263 39.4607H58.1368ZM61.8848 37.2603L66.5091 36.7953L66.1879 33.6009L61.5636 34.0659L61.8848 37.2603ZM67.9538 35.1981V34.5005H64.7433V35.1981H67.9538ZM67.9538 34.5005C67.9538 32.9064 67.2986 31.5234 66.0822 30.5806C64.913 29.6743 63.3655 29.2785 61.6984 29.2785V32.489C62.8988 32.489 63.6764 32.7778 64.1154 33.1181C64.5071 33.4217 64.7433 33.8471 64.7433 34.5005H67.9538ZM61.6984 29.2785C59.8015 29.2785 58.1213 29.8005 56.8095 30.7423L58.6819 33.3503C59.3853 32.8453 60.3918 32.489 61.6984 32.489V29.2785ZM59.1902 31.346L58.7768 30.4934L55.8879 31.8941L56.3013 32.7466L59.1902 31.346ZM58.2295 32.525C59.1333 31.9159 60.2886 31.5332 61.75 31.5332V28.3226C59.698 28.3226 57.9082 28.8699 56.4353 29.8626L58.2295 32.525ZM66.1879 34.5051L61.5636 34.9701L61.8848 38.1645L66.5091 37.6995L66.1879 34.5051ZM61.5673 34.9697C60.0373 35.12 58.6684 35.4439 57.6517 36.1411C56.5071 36.926 55.9596 38.0775 55.9596 39.409H59.1702C59.1702 39.0614 59.2557 38.9341 59.4673 38.7889C59.8069 38.5561 60.5177 38.2988 61.8811 38.1649L61.5673 34.9697ZM55.9596 39.409C55.9596 40.7874 56.5406 41.9871 57.6591 42.7814C58.7016 43.5217 60.0584 43.8044 61.4917 43.8044V40.5939C60.419 40.5939 59.8124 40.3728 59.518 40.1637C59.2996 40.0086 59.1702 39.8132 59.1702 39.409H55.9596ZM61.4917 43.8044C63.2994 43.8044 64.956 43.3567 66.1758 42.2651C67.4236 41.1483 67.9796 39.5691 67.9796 37.8073H64.7691C64.7691 38.8873 64.4467 39.504 64.0347 39.8727C63.5946 40.2666 62.8099 40.5939 61.4917 40.5939V43.8044ZM67.9794 37.783L67.9536 36.0779L64.7434 36.1266L64.7693 37.8316L67.9794 37.783ZM75.9302 39.7449L77.3401 38.9775L74.3249 39.7449H75.9302ZM75.9302 48.9419V50.5471H77.5354V48.9419H75.9302ZM74.871 48.9419H73.2657V50.5471H74.871V48.9419ZM74.3543 30.0829V28.4776H72.4846L72.7675 30.3258L74.3543 30.0829ZM75.4135 30.0829L77.0008 29.8433L76.7946 28.4776H75.4135V30.0829ZM75.8268 33.5447L74.2259 33.6618L74.6559 39.5396L77.2661 34.2556L75.8268 33.5447ZM86.5703 36.5415C86.5703 39.3741 84.3967 41.5497 81.6654 41.5497V44.7603C86.2193 44.7603 89.7809 41.0974 89.7809 36.5415H86.5703ZM81.6654 41.5497C79.7734 41.5497 78.1825 40.5252 77.3401 38.9775L74.5202 40.5123C75.8996 43.0464 78.5456 44.7603 81.6654 44.7603V41.5497ZM74.3249 39.7449V48.9419H77.5354V39.7449H74.3249ZM75.9302 47.3366H74.871V50.5471H75.9302V47.3366ZM76.4762 48.9419V36.5415H73.2657V48.9419H76.4762ZM76.4762 36.5415C76.4762 33.9422 76.3389 32.4393 75.9411 29.84L72.7675 30.3258C73.1447 32.79 73.2657 34.1289 73.2657 36.5415H76.4762ZM74.3543 31.6882H75.4135V28.4776H74.3543V31.6882ZM73.8262 30.3225C74.0298 31.6715 74.1526 32.6601 74.2259 33.6618L77.4278 33.4275C77.3461 32.3109 77.2105 31.2327 77.0008 29.8433L73.8262 30.3225ZM77.2661 34.2556C78.0645 32.6394 79.7144 31.5332 81.6654 31.5332V28.3226C78.4495 28.3226 75.7076 30.1615 74.3876 32.8337L77.2661 34.2556ZM81.6654 31.5332C84.3967 31.5332 86.5703 33.7088 86.5703 36.5415H89.7809C89.7809 31.9855 86.2193 28.3226 81.6654 28.3226V31.5332ZM88.7217 36.5415C88.7217 32.5031 85.5745 29.356 81.5362 29.356V32.5665C83.8014 32.5665 85.5111 34.2762 85.5111 36.5415H88.7217ZM81.5362 29.356C77.5188 29.356 74.3766 32.508 74.3766 36.5415H77.5871C77.5871 34.2713 79.3017 32.5665 81.5362 32.5665V29.356ZM74.3766 36.5415C74.3766 40.5749 77.5188 43.7269 81.5362 43.7269V40.5164C79.3017 40.5164 77.5871 38.8116 77.5871 36.5415H74.3766ZM81.5362 43.7269C85.5745 43.7269 88.7217 40.5798 88.7217 36.5415H85.5111C85.5111 38.8067 83.8014 40.5164 81.5362 40.5164V43.7269ZM93.0568 41.4499L91.6033 40.7686L91.0733 41.8994L92.039 42.6912L93.0568 41.4499ZM93.4444 40.6233L94.4505 39.3724L92.8582 38.0917L91.9909 39.9419L93.4444 40.6233ZM98.1979 36.9806L98.6745 35.4477L98.6631 35.4443L98.1979 36.9806ZM102.512 31.633L103.966 32.3143L104.49 31.195L103.542 30.4018L102.512 31.633ZM102.125 32.4596L101.092 33.6883L102.691 35.0334L103.578 33.141L102.125 32.4596ZM98.3012 35.9731L97.7974 37.4973L97.8051 37.4998L97.8127 37.5022L98.3012 35.9731ZM98.2237 41.5497C96.3697 41.5497 95.0576 41.0146 94.0747 40.2087L92.039 42.6912C93.6395 44.0037 95.6858 44.7603 98.2237 44.7603V41.5497ZM94.5103 42.1313L94.8979 41.3046L91.9909 39.9419L91.6033 40.7686L94.5103 42.1313ZM92.4382 41.8741C93.9245 43.0695 95.8593 43.8044 98.2495 43.8044V40.5939C96.5579 40.5939 95.341 40.0887 94.4505 39.3724L92.4382 41.8741ZM98.2495 43.8044C99.671 43.8044 101.001 43.5452 102.035 42.9452C103.116 42.3187 103.937 41.2594 103.937 39.8482H100.726C100.726 39.8579 100.759 39.9741 100.425 40.1679C100.045 40.388 99.334 40.5939 98.2495 40.5939V43.8044ZM103.937 39.8482C103.937 39.2957 103.806 38.7437 103.499 38.2258C103.202 37.7256 102.788 37.3355 102.335 37.0197C101.467 36.4152 100.226 35.9303 98.6745 35.4478L97.7212 38.5135C99.2437 38.9869 100.07 39.3544 100.5 39.6542C100.596 39.7213 100.656 39.7742 100.692 39.8105C100.71 39.8284 100.721 39.8416 100.728 39.8501C100.731 39.8544 100.733 39.8575 100.735 39.8595C100.736 39.8605 100.736 39.8612 100.736 39.8617C100.737 39.8622 100.737 39.8624 100.737 39.8624C100.737 39.8624 100.737 39.8622 100.736 39.8618C100.736 39.8614 100.736 39.8608 100.735 39.86C100.735 39.8584 100.734 39.8562 100.733 39.8536C100.73 39.848 100.728 39.8422 100.727 39.8369C100.724 39.8249 100.726 39.8261 100.726 39.8482H103.937ZM98.6631 35.4443C96.863 34.8992 95.8406 34.4236 95.2828 33.9941C94.8321 33.6469 94.7654 33.4064 94.7654 33.1055H91.5549C91.5549 34.5097 92.1729 35.6513 93.3239 36.5377C94.3678 37.3417 95.8642 37.9512 97.7326 38.517L98.6631 35.4443ZM94.7654 33.1055C94.7654 32.6884 94.9259 32.3717 95.3079 32.1029C95.7411 31.7981 96.5145 31.5332 97.6812 31.5332V28.3226C96.0836 28.3226 94.5965 28.6777 93.4603 29.4773C92.2729 30.3129 91.5549 31.585 91.5549 33.1055H94.7654ZM97.6812 31.5332C99.2634 31.5332 100.501 32.0436 101.482 32.8641L103.542 30.4018C101.991 29.1039 100.026 28.3226 97.6812 28.3226V31.5332ZM101.059 30.9516L100.671 31.7783L103.578 33.141L103.966 32.3143L101.059 30.9516ZM103.158 31.231C101.742 30.0405 99.9065 29.2785 97.6812 29.2785V32.489C99.1243 32.489 100.234 32.9671 101.092 33.6883L103.158 31.231ZM97.6812 29.2785C96.4345 29.2785 95.2345 29.5252 94.2883 30.1078C93.2959 30.719 92.5625 31.734 92.5625 33.0538H95.773C95.773 33.0204 95.7783 33.0126 95.7844 33.0028C95.7953 32.985 95.8403 32.9226 95.9718 32.8416C96.2527 32.6686 96.8094 32.489 97.6812 32.489V29.2785ZM92.5625 33.0538C92.5625 34.295 93.2143 35.2143 94.1681 35.8848C95.0302 36.4908 96.2625 36.99 97.7974 37.4973L98.8049 34.4489C97.2915 33.9487 96.457 33.5695 96.0145 33.2583C95.8117 33.1158 95.7633 33.036 95.7622 33.0341C95.7618 33.0335 95.7633 33.036 95.7656 33.0413C95.7678 33.0466 95.7699 33.0526 95.7715 33.0585C95.775 33.0717 95.773 33.0727 95.773 33.0538H92.5625ZM97.8127 37.5022C99.651 38.0895 100.679 38.5709 101.237 38.9995C101.678 39.3385 101.734 39.5583 101.734 39.8482H104.944C104.944 38.4589 104.341 37.3353 103.193 36.4536C102.162 35.6616 100.672 35.0451 98.7897 34.444L97.8127 37.5022ZM101.734 39.8482C101.734 40.2604 101.569 40.6056 101.085 40.9171C100.541 41.2668 99.5994 41.5497 98.2237 41.5497V44.7603C99.974 44.7603 101.589 44.4103 102.822 43.6168C104.114 42.7852 104.944 41.4769 104.944 39.8482H101.734ZM119.983 43V44.6053H121.834L121.572 42.773L119.983 43ZM118.949 43L117.359 43.215L117.546 44.6053H118.949V43ZM118.639 40.4941L120.237 40.3344L119.678 34.7515L117.199 39.7848L118.639 40.4941ZM113.808 35.6631L113.648 34.0659L113.639 34.0668L113.808 35.6631ZM118.433 35.1981L118.593 36.7953L120.038 36.65V35.1981H118.433ZM109.83 32.0463L108.385 32.7466L109.217 34.4623L110.766 33.3503L109.83 32.0463ZM109.417 31.1938L108.519 29.8626L107.365 30.6409L107.972 31.8941L109.417 31.1938ZM118.433 36.1023L120.038 36.0779L120.011 34.3302L118.272 34.5051L118.433 36.1023ZM113.808 36.5673L113.965 38.1649L113.969 38.1645L113.808 36.5673ZM118.459 37.8073H120.064V37.7952L120.064 37.783L118.459 37.8073ZM113.834 31.5332C115.332 31.5332 116.346 31.906 116.952 32.3932C117.518 32.8478 117.861 33.5037 117.861 34.4489H121.071C121.071 32.6039 120.342 30.9993 118.964 29.891C117.626 28.8153 115.824 28.3226 113.834 28.3226V31.5332ZM117.861 34.4489V36.5415H121.071V34.4489H117.861ZM117.861 36.5415C117.861 39.1506 118.026 40.653 118.394 43.227L121.572 42.773C121.216 40.2835 121.071 38.9442 121.071 36.5415H117.861ZM119.983 41.3947H118.949V44.6053H119.983V41.3947ZM120.54 42.785C120.411 41.8256 120.311 41.0775 120.237 40.3344L117.042 40.6538C117.123 41.4608 117.23 42.2626 117.359 43.215L120.54 42.785ZM117.199 39.7848C116.706 40.7871 115.597 41.5497 113.395 41.5497V44.7603C116.36 44.7603 118.868 43.6629 120.079 41.2034L117.199 39.7848ZM113.395 41.5497C112.055 41.5497 111.26 41.258 110.834 40.929C110.472 40.6491 110.221 40.226 110.221 39.4607H107.01C107.01 41.0722 107.612 42.4962 108.871 43.4692C110.066 44.3933 111.661 44.7603 113.395 44.7603V41.5497ZM110.221 39.4607C110.221 38.7568 110.424 38.4207 110.794 38.1501C111.289 37.788 112.241 37.4442 113.978 37.2593L113.639 34.0668C111.734 34.2695 110.089 34.6878 108.898 35.5593C107.582 36.5222 107.01 37.8912 107.01 39.4607H110.221ZM113.969 37.2603L118.593 36.7953L118.272 33.6009L113.648 34.0659L113.969 37.2603ZM120.038 35.1981V34.5005H116.827V35.1981H120.038ZM120.038 34.5005C120.038 32.9064 119.383 31.5234 118.166 30.5806C116.997 29.6743 115.45 29.2785 113.783 29.2785V32.489C114.983 32.489 115.761 32.7778 116.2 33.1181C116.591 33.4217 116.827 33.8471 116.827 34.5005H120.038ZM113.783 29.2785C111.886 29.2785 110.205 29.8005 108.894 30.7423L110.766 33.3503C111.469 32.8453 112.476 32.489 113.783 32.489V29.2785ZM111.274 31.346L110.861 30.4934L107.972 31.8941L108.385 32.7466L111.274 31.346ZM110.314 32.525C111.217 31.9159 112.373 31.5332 113.834 31.5332V28.3226C111.782 28.3226 109.992 28.8699 108.519 29.8626L110.314 32.525ZM118.272 34.5051L113.648 34.9701L113.969 38.1645L118.593 37.6995L118.272 34.5051ZM113.651 34.9697C112.121 35.12 110.753 35.4439 109.736 36.1411C108.591 36.926 108.044 38.0775 108.044 39.409H111.254C111.254 39.0614 111.34 38.9341 111.551 38.7889C111.891 38.5561 112.602 38.2988 113.965 38.1649L113.651 34.9697ZM108.044 39.409C108.044 40.7874 108.625 41.9871 109.743 42.7814C110.786 43.5217 112.143 43.8044 113.576 43.8044V40.5939C112.503 40.5939 111.897 40.3728 111.602 40.1637C111.384 40.0086 111.254 39.8132 111.254 39.409H108.044ZM113.576 43.8044C115.384 43.8044 117.04 43.3567 118.26 42.2651C119.508 41.1483 120.064 39.5691 120.064 37.8073H116.853C116.853 38.8873 116.531 39.504 116.119 39.8727C115.679 40.2666 114.894 40.5939 113.576 40.5939V43.8044ZM120.064 37.783L120.038 36.0779L116.828 36.1266L116.853 37.8316L120.064 37.783ZM126.927 43H125.322V44.6053H126.927V43ZM126.927 30.0829V28.4776H125.322V30.0829H126.927ZM127.986 30.0829H129.591V28.4776H127.986V30.0829ZM127.986 43V44.6053H129.591V43H127.986ZM128.015 25.6136C128.015 25.751 127.955 25.9096 127.832 26.0286C127.713 26.1437 127.574 26.1855 127.469 26.1855V22.975C126.041 22.975 124.805 24.0811 124.805 25.6136H128.015ZM127.469 26.1855C127.36 26.1855 127.204 26.1396 127.074 26.0092C126.943 25.8787 126.898 25.7228 126.898 25.6136H130.108C130.108 24.1328 128.95 22.975 127.469 22.975V26.1855ZM126.898 25.6136C126.898 25.5092 126.939 25.3698 127.054 25.2506C127.173 25.1275 127.332 25.0675 127.469 25.0675V28.278C129.002 28.278 130.108 27.0417 130.108 25.6136H126.898ZM127.469 25.0675C127.601 25.0675 127.744 25.1227 127.852 25.2309C127.96 25.3391 128.015 25.4817 128.015 25.6136H124.805C124.805 27.0943 125.989 28.278 127.469 28.278V25.0675ZM128.532 43V30.0829H125.322V43H128.532ZM126.927 31.6882H127.986V28.4776H126.927V31.6882ZM126.381 30.0829V43H129.591V30.0829H126.381ZM127.986 41.3947H126.927V44.6053H127.986V41.3947ZM135.483 23.7794L135.033 22.2387L133.878 22.5766V23.7794H135.483ZM136.543 23.4693H138.148V21.3269L136.092 21.9287L136.543 23.4693ZM139.281 42.0441H140.886V40.4389H139.281V42.0441ZM139.281 43.0258V44.6311H140.886V43.0258H139.281ZM137.089 40.4166V23.7794H133.878V40.4166H137.089ZM135.934 25.32L136.994 25.01L136.092 21.9287L135.033 22.2387L135.934 25.32ZM134.937 23.4693V40.3391H138.148V23.4693H134.937ZM134.937 40.3391C134.937 41.2403 135.268 42.0911 135.907 42.7165C136.543 43.3388 137.392 43.6494 138.274 43.6494V40.4389C138.208 40.4389 138.171 40.4277 138.158 40.4225C138.145 40.4175 138.146 40.4156 138.153 40.4223C138.16 40.4292 138.162 40.4344 138.16 40.4299C138.158 40.4249 138.148 40.3976 138.148 40.3391H134.937ZM138.274 43.6494H139.281V40.4389H138.274V43.6494ZM137.676 42.0441V43.0258H140.886V42.0441H137.676ZM139.281 41.4206H138.196V44.6311H139.281V41.4206ZM138.196 41.4206C137.753 41.4206 137.491 41.2793 137.35 41.1441C137.215 41.0142 137.089 40.7933 137.089 40.4166H133.878C133.878 41.59 134.307 42.6736 135.128 43.4608C135.943 44.2427 137.037 44.6311 138.196 44.6311V41.4206ZM146.418 42.1475C146.418 42.2873 146.36 42.4442 146.238 42.5657C146.117 42.6871 145.96 42.7452 145.82 42.7452V39.5347C144.365 39.5347 143.207 40.6926 143.207 42.1475H146.418ZM145.82 42.7452C145.68 42.7452 145.523 42.6871 145.402 42.5657C145.28 42.4442 145.222 42.2873 145.222 42.1475H148.433C148.433 40.6926 147.275 39.5347 145.82 39.5347V42.7452ZM145.222 42.1475C145.222 42.0076 145.28 41.8507 145.402 41.7293C145.523 41.6078 145.68 41.5497 145.82 41.5497V44.7603C147.275 44.7603 148.433 43.6024 148.433 42.1475H145.222ZM145.82 41.5497C145.96 41.5497 146.117 41.6078 146.238 41.7293C146.36 41.8507 146.418 42.0076 146.418 42.1475H143.207C143.207 43.6024 144.365 44.7603 145.82 44.7603V41.5497Z" fill="#FFAE29"/>
<path d="M96.9561 50.6319C103.582 49.9465 117.586 48.9869 120.602 50.6319C123.618 52.2768 106.095 51.3173 96.9561 50.6319Z" fill="#FFAE29" stroke="#FFAE29" stroke-width="1.02809"/>
</svg>
