<svg width="259" height="18" viewBox="0 0 259 18" fill="none" xmlns="http://www.w3.org/2000/svg">
<path d="M62.42 12.444H63.524C63.548 12.756 63.652 13.04 63.836 13.296C64.028 13.544 64.284 13.74 64.604 13.884C64.932 14.028 65.312 14.1 65.744 14.1C66.12 14.1 66.432 14.048 66.68 13.944C66.928 13.84 67.112 13.7 67.232 13.524C67.36 13.34 67.424 13.124 67.424 12.876C67.424 12.628 67.356 12.432 67.22 12.288C67.084 12.136 66.88 12.012 66.608 11.916C66.336 11.812 66 11.712 65.6 11.616C65.248 11.528 64.9 11.424 64.556 11.304C64.22 11.176 63.908 11.02 63.62 10.836C63.34 10.652 63.112 10.432 62.936 10.176C62.768 9.912 62.684 9.596 62.684 9.228C62.684 8.836 62.792 8.48 63.008 8.16C63.224 7.832 63.54 7.572 63.956 7.38C64.38 7.18 64.892 7.08 65.492 7.08C66.42 7.08 67.12 7.312 67.592 7.776C68.072 8.24 68.304 8.86 68.288 9.636H67.208C67.184 9.092 67.012 8.704 66.692 8.472C66.372 8.232 65.956 8.112 65.444 8.112C65.004 8.112 64.628 8.204 64.316 8.388C64.004 8.564 63.848 8.844 63.848 9.228C63.848 9.396 63.884 9.544 63.956 9.672C64.028 9.792 64.148 9.904 64.316 10.008C64.484 10.112 64.708 10.212 64.988 10.308C65.276 10.404 65.632 10.508 66.056 10.62C66.376 10.692 66.684 10.784 66.98 10.896C67.284 11.008 67.556 11.148 67.796 11.316C68.036 11.484 68.224 11.7 68.36 11.964C68.504 12.228 68.576 12.552 68.576 12.936C68.576 13.344 68.476 13.716 68.276 14.052C68.076 14.38 67.764 14.644 67.34 14.844C66.924 15.036 66.384 15.132 65.72 15.132C65.192 15.132 64.732 15.064 64.34 14.928C63.956 14.792 63.632 14.616 63.368 14.4C63.112 14.184 62.908 13.952 62.756 13.704C62.612 13.456 62.512 13.22 62.456 12.996C62.408 12.772 62.396 12.588 62.42 12.444ZM73.4595 13.068V12.036H77.6355V13.068H73.4595ZM71.7675 15L74.9475 7.212H76.1715L79.3755 15H78.1275L75.3435 7.968H75.7755L73.0035 15H71.7675ZM84.222 7.212V13.968H88.806V15H83.07V7.212H84.222ZM93.8394 13.068V12.036H98.0154V13.068H93.8394ZM92.1474 15L95.3274 7.212H96.5514L99.7554 15H98.5074L95.7234 7.968H96.1554L93.3834 15H92.1474ZM103.45 15V7.212H107.458C108.018 7.212 108.498 7.296 108.898 7.464C109.306 7.624 109.618 7.872 109.834 8.208C110.05 8.536 110.158 8.956 110.158 9.468C110.158 9.82 110.098 10.12 109.978 10.368C109.866 10.608 109.71 10.808 109.51 10.968C109.31 11.128 109.074 11.252 108.802 11.34C108.53 11.428 108.238 11.484 107.926 11.508L107.842 11.436C108.314 11.452 108.71 11.504 109.03 11.592C109.35 11.68 109.594 11.84 109.762 12.072C109.938 12.296 110.026 12.632 110.026 13.08V15H108.862V13.116C108.862 12.804 108.81 12.56 108.706 12.384C108.602 12.208 108.422 12.084 108.166 12.012C107.91 11.94 107.55 11.904 107.086 11.904H104.602V15H103.45ZM104.602 10.896H107.458C107.97 10.896 108.354 10.768 108.61 10.512C108.874 10.256 109.006 9.92 109.006 9.504C109.006 9.104 108.874 8.796 108.61 8.58C108.354 8.364 107.97 8.256 107.458 8.256H104.602V10.896ZM120.64 7.212L117.676 12.396V15H116.524V12.396L113.56 7.212H114.88L117.4 11.76H116.848L119.32 7.212H120.64ZM130.509 13.068V12.036H134.685V13.068H130.509ZM128.817 15L131.997 7.212H133.221L136.425 15H135.177L132.393 7.968H132.825L130.053 15H128.817ZM143.24 7.212C144.048 7.212 144.724 7.316 145.268 7.524C145.82 7.724 146.26 8.004 146.588 8.364C146.924 8.724 147.164 9.136 147.308 9.6C147.452 10.064 147.524 10.556 147.524 11.076C147.524 11.588 147.444 12.08 147.284 12.552C147.132 13.024 146.884 13.444 146.54 13.812C146.204 14.18 145.764 14.472 145.22 14.688C144.676 14.896 144.016 15 143.24 15H140.12V7.212H143.24ZM141.272 13.956H143.228C143.844 13.956 144.352 13.876 144.752 13.716C145.152 13.548 145.468 13.328 145.7 13.056C145.94 12.776 146.108 12.464 146.204 12.12C146.308 11.776 146.36 11.428 146.36 11.076C146.36 10.716 146.308 10.368 146.204 10.032C146.108 9.696 145.94 9.396 145.7 9.132C145.468 8.86 145.152 8.648 144.752 8.496C144.352 8.336 143.844 8.256 143.228 8.256H141.272V13.956ZM153.534 15L150.498 7.212H151.758L154.374 14.1H154.014L156.63 7.212H157.866L154.854 15H153.534ZM161.8 13.068V12.036H165.976V13.068H161.8ZM160.108 15L163.288 7.212H164.512L167.716 15H166.468L163.684 7.968H164.116L161.344 15H160.108ZM177.998 13.728L177.662 13.848V7.212H178.826V15H177.662L172.226 8.508L172.562 8.388V15H171.41V7.212H172.562L177.998 13.728ZM190.675 12.336C190.603 12.92 190.403 13.42 190.075 13.836C189.755 14.252 189.335 14.572 188.815 14.796C188.295 15.02 187.703 15.132 187.039 15.132C186.439 15.132 185.887 15.04 185.383 14.856C184.887 14.672 184.455 14.408 184.087 14.064C183.719 13.72 183.431 13.3 183.223 12.804C183.015 12.3 182.911 11.736 182.911 11.112C182.911 10.48 183.015 9.916 183.223 9.42C183.431 8.924 183.719 8.504 184.087 8.16C184.455 7.808 184.887 7.54 185.383 7.356C185.887 7.172 186.439 7.08 187.039 7.08C187.711 7.08 188.307 7.196 188.827 7.428C189.347 7.652 189.767 7.976 190.087 8.4C190.415 8.816 190.615 9.316 190.687 9.9H189.583C189.479 9.524 189.307 9.204 189.067 8.94C188.827 8.676 188.535 8.476 188.191 8.34C187.847 8.196 187.463 8.124 187.039 8.124C186.495 8.124 185.999 8.24 185.551 8.472C185.103 8.704 184.743 9.04 184.471 9.48C184.207 9.92 184.075 10.464 184.075 11.112C184.075 11.752 184.207 12.296 184.471 12.744C184.743 13.184 185.103 13.52 185.551 13.752C185.999 13.976 186.495 14.088 187.039 14.088C187.463 14.088 187.843 14.02 188.179 13.884C188.523 13.748 188.815 13.548 189.055 13.284C189.295 13.02 189.471 12.704 189.583 12.336H190.675ZM195.919 11.628V13.968H200.935V15H194.767V7.212H200.923V8.244H195.919V10.62H200.011V11.628H195.919Z" fill="white"/>
<path d="M1.31035 0.607977C1.09384 0.436575 0.779379 0.47314 0.607977 0.689649C0.436575 0.906157 0.47314 1.22062 0.689649 1.39202L1.31035 0.607977ZM13 10.5L13.2519 10.9319L13.8848 10.5627L13.3104 10.108L13 10.5ZM0.689649 1.39202L1.43965 1.98577L2.06035 1.20173L1.31035 0.607977L0.689649 1.39202ZM2.93965 3.17327L4.43965 4.36077L5.06035 3.57673L3.56035 2.38923L2.93965 3.17327ZM5.93965 5.54827L7.43965 6.73577L8.06035 5.95173L6.56035 4.76423L5.93965 5.54827ZM8.93965 7.92327L10.4396 9.11077L11.0604 8.32673L9.56035 7.13923L8.93965 7.92327ZM11.9396 10.2983L12.6896 10.892L13.3104 10.108L12.5604 9.51423L11.9396 10.2983ZM12.7481 10.0681L11.7481 10.6514L12.2519 11.5152L13.2519 10.9319L12.7481 10.0681ZM9.74806 11.8181L7.74806 12.9848L8.25194 13.8486L10.2519 12.6819L9.74806 11.8181ZM5.74806 14.1514L3.74806 15.3181L4.25194 16.1819L6.25194 15.0152L5.74806 14.1514ZM1.74806 16.4848L0.748064 17.0681L1.25194 17.9319L2.25194 17.3486L1.74806 16.4848Z" fill="white"/>
<path d="M7.31035 0.607977C7.09384 0.436575 6.77938 0.47314 6.60798 0.689649C6.43657 0.906157 6.47314 1.22062 6.68965 1.39202L7.31035 0.607977ZM19 10.5L19.2519 10.9319L19.8848 10.5627L19.3104 10.108L19 10.5ZM6.68965 1.39202L7.43965 1.98577L8.06035 1.20173L7.31035 0.607977L6.68965 1.39202ZM8.93965 3.17327L10.4396 4.36077L11.0604 3.57673L9.56035 2.38923L8.93965 3.17327ZM11.9396 5.54827L13.4396 6.73577L14.0604 5.95173L12.5604 4.76423L11.9396 5.54827ZM14.9396 7.92327L16.4396 9.11077L17.0604 8.32673L15.5604 7.13923L14.9396 7.92327ZM17.9396 10.2983L18.6896 10.892L19.3104 10.108L18.5604 9.51423L17.9396 10.2983ZM18.7481 10.0681L17.7481 10.6514L18.2519 11.5152L19.2519 10.9319L18.7481 10.0681ZM15.7481 11.8181L13.7481 12.9848L14.2519 13.8486L16.2519 12.6819L15.7481 11.8181ZM11.7481 14.1514L9.74806 15.3181L10.2519 16.1819L12.2519 15.0152L11.7481 14.1514ZM7.74806 16.4848L6.74806 17.0681L7.25194 17.9319L8.25194 17.3486L7.74806 16.4848Z" fill="white"/>
<path d="M13.3104 0.607977C13.0938 0.436575 12.7794 0.47314 12.608 0.689649C12.4366 0.906157 12.4731 1.22062 12.6896 1.39202L13.3104 0.607977ZM25 10.5L25.2519 10.9319L25.8848 10.5627L25.3104 10.108L25 10.5ZM12.6896 1.39202L13.4396 1.98577L14.0604 1.20173L13.3104 0.607977L12.6896 1.39202ZM14.9396 3.17327L16.4396 4.36077L17.0604 3.57673L15.5604 2.38923L14.9396 3.17327ZM17.9396 5.54827L19.4396 6.73577L20.0604 5.95173L18.5604 4.76423L17.9396 5.54827ZM20.9396 7.92327L22.4396 9.11077L23.0604 8.32673L21.5604 7.13923L20.9396 7.92327ZM23.9396 10.2983L24.6896 10.892L25.3104 10.108L24.5604 9.51423L23.9396 10.2983ZM24.7481 10.0681L23.7481 10.6514L24.2519 11.5152L25.2519 10.9319L24.7481 10.0681ZM21.7481 11.8181L19.7481 12.9848L20.2519 13.8486L22.2519 12.6819L21.7481 11.8181ZM17.7481 14.1514L15.7481 15.3181L16.2519 16.1819L18.2519 15.0152L17.7481 14.1514ZM13.7481 16.4848L12.7481 17.0681L13.2519 17.9319L14.2519 17.3486L13.7481 16.4848Z" fill="white"/>
<path d="M19.3104 0.607977C19.0938 0.436575 18.7794 0.47314 18.608 0.689649C18.4366 0.906157 18.4731 1.22062 18.6896 1.39202L19.3104 0.607977ZM31 10.5L31.2519 10.9319L31.8848 10.5627L31.3104 10.108L31 10.5ZM18.6896 1.39202L19.4396 1.98577L20.0604 1.20173L19.3104 0.607977L18.6896 1.39202ZM20.9396 3.17327L22.4396 4.36077L23.0604 3.57673L21.5604 2.38923L20.9396 3.17327ZM23.9396 5.54827L25.4396 6.73577L26.0604 5.95173L24.5604 4.76423L23.9396 5.54827ZM26.9396 7.92327L28.4396 9.11077L29.0604 8.32673L27.5604 7.13923L26.9396 7.92327ZM29.9396 10.2983L30.6896 10.892L31.3104 10.108L30.5604 9.51423L29.9396 10.2983ZM30.7481 10.0681L29.7481 10.6514L30.2519 11.5152L31.2519 10.9319L30.7481 10.0681ZM27.7481 11.8181L25.7481 12.9848L26.2519 13.8486L28.2519 12.6819L27.7481 11.8181ZM23.7481 14.1514L21.7481 15.3181L22.2519 16.1819L24.2519 15.0152L23.7481 14.1514ZM19.7481 16.4848L18.7481 17.0681L19.2519 17.9319L20.2519 17.3486L19.7481 16.4848Z" fill="white"/>
<path d="M25.3104 0.607977C25.0938 0.436575 24.7794 0.47314 24.608 0.689649C24.4366 0.906157 24.4731 1.22062 24.6896 1.39202L25.3104 0.607977ZM37 10.5L37.2519 10.9319L37.8848 10.5627L37.3104 10.108L37 10.5ZM24.6896 1.39202L25.4396 1.98577L26.0604 1.20173L25.3104 0.607977L24.6896 1.39202ZM26.9396 3.17327L28.4396 4.36077L29.0604 3.57673L27.5604 2.38923L26.9396 3.17327ZM29.9396 5.54827L31.4396 6.73577L32.0604 5.95173L30.5604 4.76423L29.9396 5.54827ZM32.9396 7.92327L34.4396 9.11077L35.0604 8.32673L33.5604 7.13923L32.9396 7.92327ZM35.9396 10.2983L36.6896 10.892L37.3104 10.108L36.5604 9.51423L35.9396 10.2983ZM36.7481 10.0681L35.7481 10.6514L36.2519 11.5152L37.2519 10.9319L36.7481 10.0681ZM33.7481 11.8181L31.7481 12.9848L32.2519 13.8486L34.2519 12.6819L33.7481 11.8181ZM29.7481 14.1514L27.7481 15.3181L28.2519 16.1819L30.2519 15.0152L29.7481 14.1514ZM25.7481 16.4848L24.7481 17.0681L25.2519 17.9319L26.2519 17.3486L25.7481 16.4848Z" fill="white"/>
<path d="M31.3104 0.607977C31.0938 0.436575 30.7794 0.47314 30.608 0.689649C30.4366 0.906157 30.4731 1.22062 30.6896 1.39202L31.3104 0.607977ZM43 10.5L43.2519 10.9319L43.8848 10.5627L43.3104 10.108L43 10.5ZM30.6896 1.39202L31.4396 1.98577L32.0604 1.20173L31.3104 0.607977L30.6896 1.39202ZM32.9396 3.17327L34.4396 4.36077L35.0604 3.57673L33.5604 2.38923L32.9396 3.17327ZM35.9396 5.54827L37.4396 6.73577L38.0604 5.95173L36.5604 4.76423L35.9396 5.54827ZM38.9396 7.92327L40.4396 9.11077L41.0604 8.32673L39.5604 7.13923L38.9396 7.92327ZM41.9396 10.2983L42.6896 10.892L43.3104 10.108L42.5604 9.51423L41.9396 10.2983ZM42.7481 10.0681L41.7481 10.6514L42.2519 11.5152L43.2519 10.9319L42.7481 10.0681ZM39.7481 11.8181L37.7481 12.9848L38.2519 13.8486L40.2519 12.6819L39.7481 11.8181ZM35.7481 14.1514L33.7481 15.3181L34.2519 16.1819L36.2519 15.0152L35.7481 14.1514ZM31.7481 16.4848L30.7481 17.0681L31.2519 17.9319L32.2519 17.3486L31.7481 16.4848Z" fill="white"/>
<path d="M257.69 0.607977C257.906 0.436575 258.221 0.47314 258.392 0.689649C258.563 0.906157 258.527 1.22062 258.31 1.39202L257.69 0.607977ZM246 10.5L245.748 10.9319L245.115 10.5627L245.69 10.108L246 10.5ZM258.31 1.39202L257.56 1.98577L256.94 1.20173L257.69 0.607977L258.31 1.39202ZM256.06 3.17327L254.56 4.36077L253.94 3.57673L255.44 2.38923L256.06 3.17327ZM253.06 5.54827L251.56 6.73577L250.94 5.95173L252.44 4.76423L253.06 5.54827ZM250.06 7.92327L248.56 9.11077L247.94 8.32673L249.44 7.13923L250.06 7.92327ZM247.06 10.2983L246.31 10.892L245.69 10.108L246.44 9.51423L247.06 10.2983ZM246.252 10.0681L247.252 10.6514L246.748 11.5152L245.748 10.9319L246.252 10.0681ZM249.252 11.8181L251.252 12.9848L250.748 13.8486L248.748 12.6819L249.252 11.8181ZM253.252 14.1514L255.252 15.3181L254.748 16.1819L252.748 15.0152L253.252 14.1514ZM257.252 16.4848L258.252 17.0681L257.748 17.9319L256.748 17.3486L257.252 16.4848Z" fill="white"/>
<path d="M251.69 0.607977C251.906 0.436575 252.221 0.47314 252.392 0.689649C252.563 0.906157 252.527 1.22062 252.31 1.39202L251.69 0.607977ZM240 10.5L239.748 10.9319L239.115 10.5627L239.69 10.108L240 10.5ZM252.31 1.39202L251.56 1.98577L250.94 1.20173L251.69 0.607977L252.31 1.39202ZM250.06 3.17327L248.56 4.36077L247.94 3.57673L249.44 2.38923L250.06 3.17327ZM247.06 5.54827L245.56 6.73577L244.94 5.95173L246.44 4.76423L247.06 5.54827ZM244.06 7.92327L242.56 9.11077L241.94 8.32673L243.44 7.13923L244.06 7.92327ZM241.06 10.2983L240.31 10.892L239.69 10.108L240.44 9.51423L241.06 10.2983ZM240.252 10.0681L241.252 10.6514L240.748 11.5152L239.748 10.9319L240.252 10.0681ZM243.252 11.8181L245.252 12.9848L244.748 13.8486L242.748 12.6819L243.252 11.8181ZM247.252 14.1514L249.252 15.3181L248.748 16.1819L246.748 15.0152L247.252 14.1514ZM251.252 16.4848L252.252 17.0681L251.748 17.9319L250.748 17.3486L251.252 16.4848Z" fill="white"/>
<path d="M245.69 0.607977C245.906 0.436575 246.221 0.47314 246.392 0.689649C246.563 0.906157 246.527 1.22062 246.31 1.39202L245.69 0.607977ZM234 10.5L233.748 10.9319L233.115 10.5627L233.69 10.108L234 10.5ZM246.31 1.39202L245.56 1.98577L244.94 1.20173L245.69 0.607977L246.31 1.39202ZM244.06 3.17327L242.56 4.36077L241.94 3.57673L243.44 2.38923L244.06 3.17327ZM241.06 5.54827L239.56 6.73577L238.94 5.95173L240.44 4.76423L241.06 5.54827ZM238.06 7.92327L236.56 9.11077L235.94 8.32673L237.44 7.13923L238.06 7.92327ZM235.06 10.2983L234.31 10.892L233.69 10.108L234.44 9.51423L235.06 10.2983ZM234.252 10.0681L235.252 10.6514L234.748 11.5152L233.748 10.9319L234.252 10.0681ZM237.252 11.8181L239.252 12.9848L238.748 13.8486L236.748 12.6819L237.252 11.8181ZM241.252 14.1514L243.252 15.3181L242.748 16.1819L240.748 15.0152L241.252 14.1514ZM245.252 16.4848L246.252 17.0681L245.748 17.9319L244.748 17.3486L245.252 16.4848Z" fill="white"/>
<path d="M239.69 0.607977C239.906 0.436575 240.221 0.47314 240.392 0.689649C240.563 0.906157 240.527 1.22062 240.31 1.39202L239.69 0.607977ZM228 10.5L227.748 10.9319L227.115 10.5627L227.69 10.108L228 10.5ZM240.31 1.39202L239.56 1.98577L238.94 1.20173L239.69 0.607977L240.31 1.39202ZM238.06 3.17327L236.56 4.36077L235.94 3.57673L237.44 2.38923L238.06 3.17327ZM235.06 5.54827L233.56 6.73577L232.94 5.95173L234.44 4.76423L235.06 5.54827ZM232.06 7.92327L230.56 9.11077L229.94 8.32673L231.44 7.13923L232.06 7.92327ZM229.06 10.2983L228.31 10.892L227.69 10.108L228.44 9.51423L229.06 10.2983ZM228.252 10.0681L229.252 10.6514L228.748 11.5152L227.748 10.9319L228.252 10.0681ZM231.252 11.8181L233.252 12.9848L232.748 13.8486L230.748 12.6819L231.252 11.8181ZM235.252 14.1514L237.252 15.3181L236.748 16.1819L234.748 15.0152L235.252 14.1514ZM239.252 16.4848L240.252 17.0681L239.748 17.9319L238.748 17.3486L239.252 16.4848Z" fill="white"/>
<path d="M233.69 0.607977C233.906 0.436575 234.221 0.47314 234.392 0.689649C234.563 0.906157 234.527 1.22062 234.31 1.39202L233.69 0.607977ZM222 10.5L221.748 10.9319L221.115 10.5627L221.69 10.108L222 10.5ZM234.31 1.39202L233.56 1.98577L232.94 1.20173L233.69 0.607977L234.31 1.39202ZM232.06 3.17327L230.56 4.36077L229.94 3.57673L231.44 2.38923L232.06 3.17327ZM229.06 5.54827L227.56 6.73577L226.94 5.95173L228.44 4.76423L229.06 5.54827ZM226.06 7.92327L224.56 9.11077L223.94 8.32673L225.44 7.13923L226.06 7.92327ZM223.06 10.2983L222.31 10.892L221.69 10.108L222.44 9.51423L223.06 10.2983ZM222.252 10.0681L223.252 10.6514L222.748 11.5152L221.748 10.9319L222.252 10.0681ZM225.252 11.8181L227.252 12.9848L226.748 13.8486L224.748 12.6819L225.252 11.8181ZM229.252 14.1514L231.252 15.3181L230.748 16.1819L228.748 15.0152L229.252 14.1514ZM233.252 16.4848L234.252 17.0681L233.748 17.9319L232.748 17.3486L233.252 16.4848Z" fill="white"/>
<path d="M227.69 0.607977C227.906 0.436575 228.221 0.47314 228.392 0.689649C228.563 0.906157 228.527 1.22062 228.31 1.39202L227.69 0.607977ZM216 10.5L215.748 10.9319L215.115 10.5627L215.69 10.108L216 10.5ZM228.31 1.39202L227.56 1.98577L226.94 1.20173L227.69 0.607977L228.31 1.39202ZM226.06 3.17327L224.56 4.36077L223.94 3.57673L225.44 2.38923L226.06 3.17327ZM223.06 5.54827L221.56 6.73577L220.94 5.95173L222.44 4.76423L223.06 5.54827ZM220.06 7.92327L218.56 9.11077L217.94 8.32673L219.44 7.13923L220.06 7.92327ZM217.06 10.2983L216.31 10.892L215.69 10.108L216.44 9.51423L217.06 10.2983ZM216.252 10.0681L217.252 10.6514L216.748 11.5152L215.748 10.9319L216.252 10.0681ZM219.252 11.8181L221.252 12.9848L220.748 13.8486L218.748 12.6819L219.252 11.8181ZM223.252 14.1514L225.252 15.3181L224.748 16.1819L222.748 15.0152L223.252 14.1514ZM227.252 16.4848L228.252 17.0681L227.748 17.9319L226.748 17.3486L227.252 16.4848Z" fill="white"/>
</svg>
