<svg width="605" height="209" viewBox="0 0 605 209" fill="none" xmlns="http://www.w3.org/2000/svg">
<g clip-path="url(#clip0_4152_41296)">
<path d="M70.7465 89.01H78.1715C78.3181 90.2567 78.8865 91.3933 79.8765 92.42C80.9031 93.41 82.2415 94.1983 83.8915 94.785C85.5415 95.335 87.3931 95.61 89.4465 95.61C91.3165 95.61 92.8565 95.4083 94.0665 95.005C95.2765 94.6017 96.1748 94.0333 96.7615 93.3C97.3481 92.5667 97.6415 91.6867 97.6415 90.66C97.6415 89.67 97.2748 88.9183 96.5415 88.405C95.8081 87.855 94.6531 87.415 93.0765 87.085C91.4998 86.7183 89.4281 86.3517 86.8615 85.985C84.8448 85.6917 82.9381 85.2883 81.1415 84.775C79.3448 84.225 77.7498 83.5283 76.3565 82.685C74.9998 81.8417 73.9181 80.815 73.1115 79.605C72.3415 78.3583 71.9565 76.8917 71.9565 75.205C71.9565 73.115 72.5431 71.2817 73.7165 69.705C74.9265 68.1283 76.7048 66.9 79.0515 66.02C81.3981 65.14 84.2765 64.7 87.6865 64.7C92.8198 64.7 96.7615 65.8 99.5115 68C102.298 70.1633 103.655 73.1517 103.581 76.965H96.4315C96.2848 74.8017 95.3681 73.2433 93.6815 72.29C92.0315 71.3367 89.9415 70.86 87.4115 70.86C85.0648 70.86 83.1215 71.2083 81.5815 71.905C80.0781 72.6017 79.3265 73.7933 79.3265 75.48C79.3265 76.14 79.5098 76.7267 79.8765 77.24C80.2431 77.7167 80.8665 78.1383 81.7465 78.505C82.6265 78.8717 83.8181 79.22 85.3215 79.55C86.8248 79.88 88.6948 80.21 90.9315 80.54C93.0215 80.8333 94.9098 81.2367 96.5965 81.75C98.3198 82.2267 99.7865 82.8683 100.996 83.675C102.243 84.445 103.196 85.435 103.856 86.645C104.516 87.855 104.846 89.34 104.846 91.1C104.846 93.2633 104.278 95.1517 103.141 96.765C102.041 98.3417 100.318 99.57 97.9715 100.45C95.6615 101.33 92.6548 101.77 88.9515 101.77C86.3115 101.77 83.9831 101.495 81.9665 100.945C79.9498 100.358 78.2081 99.5883 76.7415 98.635C75.2748 97.6817 74.0831 96.6367 73.1665 95.5C72.2498 94.3633 71.5898 93.2267 71.1865 92.09C70.8198 90.9533 70.6731 89.9267 70.7465 89.01ZM123.675 101.605C120.962 101.605 118.487 101.018 116.25 99.845C114.05 98.635 112.29 96.9667 110.97 94.84C109.687 92.6767 109.045 90.1833 109.045 87.36C109.045 84.4633 109.705 81.9517 111.025 79.825C112.345 77.6983 114.123 76.0483 116.36 74.875C118.633 73.665 121.2 73.06 124.06 73.06C127.213 73.06 129.743 73.7017 131.65 74.985C133.593 76.2317 135.005 77.9367 135.885 80.1C136.765 82.2633 137.205 84.6833 137.205 87.36C137.205 88.9733 136.948 90.6233 136.435 92.31C135.922 93.96 135.133 95.5 134.07 96.93C133.007 98.3233 131.613 99.46 129.89 100.34C128.167 101.183 126.095 101.605 123.675 101.605ZM125.985 96.105C128.148 96.105 130.018 95.7383 131.595 95.005C133.172 94.2717 134.382 93.245 135.225 91.925C136.068 90.605 136.49 89.0833 136.49 87.36C136.49 85.49 136.05 83.9133 135.17 82.63C134.327 81.31 133.117 80.32 131.54 79.66C130 78.9633 128.148 78.615 125.985 78.615C122.942 78.615 120.577 79.4217 118.89 81.035C117.203 82.6117 116.36 84.72 116.36 87.36C116.36 89.12 116.763 90.66 117.57 91.98C118.377 93.2633 119.495 94.2717 120.925 95.005C122.392 95.7383 124.078 96.105 125.985 96.105ZM136.49 73.665H143.64V101H136.985C136.985 101 136.93 100.652 136.82 99.955C136.747 99.2217 136.673 98.305 136.6 97.205C136.527 96.105 136.49 95.0233 136.49 93.96V73.665ZM150.661 62.665H157.811V101H150.661V62.665ZM178.353 101.605C175.639 101.605 173.164 101.018 170.928 99.845C168.728 98.635 166.968 96.9667 165.648 94.84C164.364 92.6767 163.723 90.1833 163.723 87.36C163.723 84.4633 164.383 81.9517 165.703 79.825C167.023 77.6983 168.801 76.0483 171.038 74.875C173.311 73.665 175.878 73.06 178.738 73.06C181.891 73.06 184.421 73.7017 186.328 74.985C188.271 76.2317 189.683 77.9367 190.563 80.1C191.443 82.2633 191.883 84.6833 191.883 87.36C191.883 88.9733 191.626 90.6233 191.113 92.31C190.599 93.96 189.811 95.5 188.748 96.93C187.684 98.3233 186.291 99.46 184.568 100.34C182.844 101.183 180.773 101.605 178.353 101.605ZM180.663 96.105C182.826 96.105 184.696 95.7383 186.273 95.005C187.849 94.2717 189.059 93.245 189.903 91.925C190.746 90.605 191.168 89.0833 191.168 87.36C191.168 85.49 190.728 83.9133 189.848 82.63C189.004 81.31 187.794 80.32 186.218 79.66C184.678 78.9633 182.826 78.615 180.663 78.615C177.619 78.615 175.254 79.4217 173.568 81.035C171.881 82.6117 171.038 84.72 171.038 87.36C171.038 89.12 171.441 90.66 172.248 91.98C173.054 93.2633 174.173 94.2717 175.603 95.005C177.069 95.7383 178.756 96.105 180.663 96.105ZM191.168 73.665H198.318V101H191.663C191.663 101 191.608 100.652 191.498 99.955C191.424 99.2217 191.351 98.305 191.278 97.205C191.204 96.105 191.168 95.0233 191.168 93.96V73.665ZM204.789 73.665H211.939V101H204.789V73.665ZM222.444 79.55C220.39 79.55 218.612 79.9533 217.109 80.76C215.605 81.53 214.395 82.4833 213.479 83.62C212.562 84.7567 211.92 85.8567 211.554 86.92L211.499 83.895C211.535 83.455 211.682 82.8133 211.939 81.97C212.195 81.09 212.58 80.155 213.094 79.165C213.607 78.1383 214.285 77.1667 215.129 76.25C215.972 75.2967 216.999 74.5267 218.209 73.94C219.419 73.3533 220.83 73.06 222.444 73.06V79.55ZM224.389 73.665H231.979L243.804 99.9L237.644 101L224.389 73.665ZM257.829 73.665L238.909 112H231.484L239.569 96.93L250.184 73.665H257.829ZM281.748 93.245V87.14H305.288V93.245H281.748ZM272.893 101L289.613 65.415H297.533L314.418 101H306.443L291.813 68.935H295.333L280.813 101H272.893ZM331.644 101.605C328.894 101.605 326.4 101.018 324.164 99.845C321.964 98.635 320.222 96.9667 318.939 94.84C317.655 92.6767 317.014 90.1833 317.014 87.36C317.014 84.4633 317.637 81.9517 318.884 79.825C320.167 77.6983 321.909 76.0483 324.109 74.875C326.309 73.665 328.82 73.06 331.644 73.06C334.1 73.06 336.19 73.4267 337.914 74.16C339.637 74.8933 341.03 75.92 342.094 77.24C343.157 78.5233 343.927 80.0267 344.404 81.75C344.917 83.4733 345.174 85.3433 345.174 87.36C345.174 88.9733 344.917 90.6233 344.404 92.31C343.89 93.96 343.102 95.5 342.039 96.93C340.975 98.3233 339.582 99.46 337.859 100.34C336.135 101.183 334.064 101.605 331.644 101.605ZM333.954 96.105C336.117 96.105 337.987 95.7383 339.564 95.005C341.14 94.2717 342.35 93.245 343.194 91.925C344.037 90.605 344.459 89.0833 344.459 87.36C344.459 85.49 344.019 83.9133 343.139 82.63C342.295 81.31 341.085 80.3017 339.509 79.605C337.969 78.9083 336.117 78.56 333.954 78.56C330.91 78.56 328.545 79.3667 326.859 80.98C325.172 82.5933 324.329 84.72 324.329 87.36C324.329 89.12 324.732 90.66 325.539 91.98C326.345 93.2633 327.464 94.2717 328.894 95.005C330.36 95.7383 332.047 96.105 333.954 96.105ZM344.459 62.665H351.609V101H344.954C344.844 100.157 344.734 99.075 344.624 97.755C344.514 96.3983 344.459 95.1333 344.459 93.96V62.665ZM374.385 96.325H371.8L381.81 73.665H389.62L376.475 101H369.71L356.84 73.665H364.705L374.385 96.325ZM405.872 101.605C403.159 101.605 400.684 101.018 398.447 99.845C396.247 98.635 394.487 96.9667 393.167 94.84C391.884 92.6767 391.242 90.1833 391.242 87.36C391.242 84.4633 391.902 81.9517 393.222 79.825C394.542 77.6983 396.321 76.0483 398.557 74.875C400.831 73.665 403.397 73.06 406.257 73.06C409.411 73.06 411.941 73.7017 413.847 74.985C415.791 76.2317 417.202 77.9367 418.082 80.1C418.962 82.2633 419.402 84.6833 419.402 87.36C419.402 88.9733 419.146 90.6233 418.632 92.31C418.119 93.96 417.331 95.5 416.267 96.93C415.204 98.3233 413.811 99.46 412.087 100.34C410.364 101.183 408.292 101.605 405.872 101.605ZM408.182 96.105C410.346 96.105 412.216 95.7383 413.792 95.005C415.369 94.2717 416.579 93.245 417.422 91.925C418.266 90.605 418.687 89.0833 418.687 87.36C418.687 85.49 418.247 83.9133 417.367 82.63C416.524 81.31 415.314 80.32 413.737 79.66C412.197 78.9633 410.346 78.615 408.182 78.615C405.139 78.615 402.774 79.4217 401.087 81.035C399.401 82.6117 398.557 84.72 398.557 87.36C398.557 89.12 398.961 90.66 399.767 91.98C400.574 93.2633 401.692 94.2717 403.122 95.005C404.589 95.7383 406.276 96.105 408.182 96.105ZM418.687 73.665H425.837V101H419.182C419.182 101 419.127 100.652 419.017 99.955C418.944 99.2217 418.871 98.305 418.797 97.205C418.724 96.105 418.687 95.0233 418.687 93.96V73.665ZM432.308 73.665H439.458V101H432.308V73.665ZM452.163 73.06C453.85 73.06 455.408 73.28 456.838 73.72C458.268 74.16 459.515 74.8383 460.578 75.755C461.642 76.6717 462.467 77.845 463.053 79.275C463.64 80.6683 463.933 82.3367 463.933 84.28V101H456.783V85.545C456.783 83.235 456.215 81.5483 455.078 80.485C453.978 79.385 452.163 78.835 449.633 78.835C447.727 78.835 446.003 79.2017 444.463 79.935C442.923 80.6683 441.677 81.6033 440.723 82.74C439.77 83.84 439.22 84.995 439.073 86.205L439.018 83.4C439.202 82.1167 439.623 80.87 440.283 79.66C440.943 78.45 441.823 77.35 442.923 76.36C444.06 75.3333 445.398 74.5267 446.938 73.94C448.478 73.3533 450.22 73.06 452.163 73.06ZM502.893 90.22C502.71 92.6033 501.94 94.6567 500.583 96.38C499.263 98.1033 497.43 99.4233 495.083 100.34C492.736 101.22 489.95 101.66 486.723 101.66C483.35 101.66 480.325 101.128 477.648 100.065C475.008 98.965 472.918 97.37 471.378 95.28C469.875 93.1533 469.123 90.5317 469.123 87.415C469.123 84.2983 469.875 81.6767 471.378 79.55C472.918 77.4233 475.008 75.81 477.648 74.71C480.325 73.61 483.35 73.06 486.723 73.06C489.95 73.06 492.718 73.5183 495.028 74.435C497.338 75.315 499.153 76.5983 500.473 78.285C501.83 79.9717 502.618 82.0067 502.838 84.39H496.293C495.67 82.5567 494.515 81.1267 492.828 80.1C491.141 79.0733 489.106 78.56 486.723 78.56C484.816 78.56 483.075 78.89 481.498 79.55C479.958 80.21 478.711 81.2 477.758 82.52C476.841 83.8033 476.383 85.435 476.383 87.415C476.383 89.3583 476.841 90.99 477.758 92.31C478.675 93.5933 479.921 94.565 481.498 95.225C483.075 95.8483 484.816 96.16 486.723 96.16C489.29 96.16 491.38 95.6467 492.993 94.62C494.643 93.5933 495.761 92.1267 496.348 90.22H502.893ZM533.063 91.925H539.993C539.7 93.795 538.911 95.4633 537.628 96.93C536.381 98.3967 534.676 99.5517 532.513 100.395C530.35 101.238 527.71 101.66 524.593 101.66C521.11 101.66 518.03 101.11 515.353 100.01C512.676 98.8733 510.586 97.2417 509.083 95.115C507.58 92.9883 506.828 90.4217 506.828 87.415C506.828 84.4083 507.561 81.8417 509.028 79.715C510.495 77.5517 512.53 75.9017 515.133 74.765C517.773 73.6283 520.853 73.06 524.373 73.06C527.966 73.06 530.955 73.6283 533.338 74.765C535.721 75.9017 537.481 77.625 538.618 79.935C539.791 82.2083 540.286 85.1233 540.103 88.68H514.033C514.216 90.0733 514.73 91.3383 515.573 92.475C516.453 93.6117 517.626 94.51 519.093 95.17C520.596 95.83 522.375 96.16 524.428 96.16C526.701 96.16 528.59 95.775 530.093 95.005C531.633 94.1983 532.623 93.1717 533.063 91.925ZM524.043 78.505C521.403 78.505 519.258 79.0917 517.608 80.265C515.958 81.4017 514.895 82.8133 514.418 84.5H533.008C532.825 82.6667 531.945 81.2183 530.368 80.155C528.828 79.055 526.72 78.505 524.043 78.505Z" fill="#FFA529"/>
<path d="M92.1924 158.16H114.192V163.605H92.1924V158.16ZM108.912 146.665H114.577V152.44H110.617C109.554 152.403 108.637 152.513 107.867 152.77C107.097 153.027 106.511 153.503 106.107 154.2C105.704 154.86 105.502 155.813 105.502 157.06V185H98.3524V156.18C98.3524 153.98 98.7557 152.183 99.5624 150.79C100.369 149.36 101.561 148.315 103.137 147.655C104.714 146.995 106.639 146.665 108.912 146.665ZM134.402 185.66C130.956 185.66 127.912 185.11 125.272 184.01C122.669 182.91 120.634 181.315 119.167 179.225C117.701 177.098 116.967 174.495 116.967 171.415C116.967 168.335 117.701 165.732 119.167 163.605C120.634 161.442 122.669 159.81 125.272 158.71C127.912 157.61 130.956 157.06 134.402 157.06C137.849 157.06 140.856 157.61 143.422 158.71C146.026 159.81 148.061 161.442 149.527 163.605C150.994 165.732 151.727 168.335 151.727 171.415C151.727 174.495 150.994 177.098 149.527 179.225C148.061 181.315 146.026 182.91 143.422 184.01C140.856 185.11 137.849 185.66 134.402 185.66ZM134.402 180.16C136.309 180.16 138.014 179.83 139.517 179.17C141.057 178.473 142.267 177.483 143.147 176.2C144.027 174.88 144.467 173.285 144.467 171.415C144.467 169.545 144.027 167.95 143.147 166.63C142.267 165.273 141.076 164.247 139.572 163.55C138.069 162.853 136.346 162.505 134.402 162.505C132.496 162.505 130.772 162.853 129.232 163.55C127.692 164.247 126.464 165.255 125.547 166.575C124.667 167.895 124.227 169.508 124.227 171.415C124.227 173.285 124.667 174.88 125.547 176.2C126.427 177.483 127.637 178.473 129.177 179.17C130.717 179.83 132.459 180.16 134.402 180.16ZM157.013 157.665H164.163V185H157.013V157.665ZM174.668 163.55C172.615 163.55 170.836 163.953 169.333 164.76C167.83 165.53 166.62 166.483 165.703 167.62C164.786 168.757 164.145 169.857 163.778 170.92L163.723 167.895C163.76 167.455 163.906 166.813 164.163 165.97C164.42 165.09 164.805 164.155 165.318 163.165C165.831 162.138 166.51 161.167 167.353 160.25C168.196 159.297 169.223 158.527 170.433 157.94C171.643 157.353 173.055 157.06 174.668 157.06V163.55ZM217.27 175.925H224.2C223.906 177.795 223.118 179.463 221.835 180.93C220.588 182.397 218.883 183.552 216.72 184.395C214.556 185.238 211.916 185.66 208.8 185.66C205.316 185.66 202.236 185.11 199.56 184.01C196.883 182.873 194.793 181.242 193.29 179.115C191.786 176.988 191.035 174.422 191.035 171.415C191.035 168.408 191.768 165.842 193.235 163.715C194.701 161.552 196.736 159.902 199.34 158.765C201.98 157.628 205.06 157.06 208.58 157.06C212.173 157.06 215.161 157.628 217.545 158.765C219.928 159.902 221.688 161.625 222.825 163.935C223.998 166.208 224.493 169.123 224.31 172.68H198.24C198.423 174.073 198.936 175.338 199.78 176.475C200.66 177.612 201.833 178.51 203.3 179.17C204.803 179.83 206.581 180.16 208.635 180.16C210.908 180.16 212.796 179.775 214.3 179.005C215.84 178.198 216.83 177.172 217.27 175.925ZM208.25 162.505C205.61 162.505 203.465 163.092 201.815 164.265C200.165 165.402 199.101 166.813 198.625 168.5H217.215C217.031 166.667 216.151 165.218 214.575 164.155C213.035 163.055 210.926 162.505 208.25 162.505ZM229.63 157.665H236.78V185H229.63V157.665ZM249.485 157.06C251.172 157.06 252.73 157.28 254.16 157.72C255.59 158.16 256.837 158.838 257.9 159.755C258.963 160.672 259.788 161.845 260.375 163.275C260.962 164.668 261.255 166.337 261.255 168.28V185H254.105V169.545C254.105 167.235 253.537 165.548 252.4 164.485C251.3 163.385 249.485 162.835 246.955 162.835C245.048 162.835 243.325 163.202 241.785 163.935C240.245 164.668 238.998 165.603 238.045 166.74C237.092 167.84 236.542 168.995 236.395 170.205L236.34 167.4C236.523 166.117 236.945 164.87 237.605 163.66C238.265 162.45 239.145 161.35 240.245 160.36C241.382 159.333 242.72 158.527 244.26 157.94C245.8 157.353 247.542 157.06 249.485 157.06ZM273.3 157.06C274.987 157.06 276.545 157.28 277.975 157.72C279.405 158.16 280.652 158.838 281.715 159.755C282.778 160.672 283.603 161.845 284.19 163.275C284.813 164.668 285.125 166.337 285.125 168.28V185H277.975V169.545C277.975 167.235 277.407 165.548 276.27 164.485C275.133 163.385 273.3 162.835 270.77 162.835C268.863 162.835 267.14 163.202 265.6 163.935C264.06 164.668 262.813 165.603 261.86 166.74C260.907 167.84 260.375 168.995 260.265 170.205L260.155 167.235C260.338 166.025 260.778 164.815 261.475 163.605C262.172 162.395 263.088 161.295 264.225 160.305C265.362 159.315 266.682 158.527 268.185 157.94C269.725 157.353 271.43 157.06 273.3 157.06ZM311.523 185.66C309.103 185.66 307.031 185.238 305.308 184.395C303.621 183.515 302.246 182.378 301.183 180.985C300.119 179.555 299.331 177.997 298.818 176.31C298.304 174.623 298.048 172.973 298.048 171.36C298.048 169.343 298.286 167.473 298.763 165.75C299.276 164.027 300.064 162.523 301.128 161.24C302.191 159.92 303.566 158.893 305.253 158.16C306.976 157.427 309.066 157.06 311.523 157.06C314.273 157.06 316.748 157.665 318.948 158.875C321.148 160.085 322.889 161.772 324.173 163.935C325.493 166.062 326.153 168.537 326.153 171.36C326.153 174.257 325.493 176.787 324.173 178.95C322.853 181.077 321.093 182.727 318.893 183.9C316.693 185.073 314.236 185.66 311.523 185.66ZM309.213 180.105C311.156 180.105 312.843 179.738 314.273 179.005C315.739 178.272 316.858 177.263 317.628 175.98C318.434 174.66 318.838 173.12 318.838 171.36C318.838 168.72 317.994 166.593 316.308 164.98C314.658 163.367 312.293 162.56 309.213 162.56C307.269 162.56 305.491 162.908 303.878 163.605C302.301 164.302 301.054 165.31 300.138 166.63C299.221 167.913 298.763 169.49 298.763 171.36C298.763 173.12 299.184 174.66 300.028 175.98C300.871 177.263 302.081 178.272 303.658 179.005C305.234 179.738 307.086 180.105 309.213 180.105ZM291.613 157.665H298.433L298.763 164.925V196H291.613V157.665ZM331.962 146.665H339.112V185H331.962V146.665ZM362.459 185.66C359.012 185.66 355.969 185.11 353.329 184.01C350.726 182.91 348.691 181.315 347.224 179.225C345.757 177.098 345.024 174.495 345.024 171.415C345.024 168.335 345.757 165.732 347.224 163.605C348.691 161.442 350.726 159.81 353.329 158.71C355.969 157.61 359.012 157.06 362.459 157.06C365.906 157.06 368.912 157.61 371.479 158.71C374.082 159.81 376.117 161.442 377.584 163.605C379.051 165.732 379.784 168.335 379.784 171.415C379.784 174.495 379.051 177.098 377.584 179.225C376.117 181.315 374.082 182.91 371.479 184.01C368.912 185.11 365.906 185.66 362.459 185.66ZM362.459 180.16C364.366 180.16 366.071 179.83 367.574 179.17C369.114 178.473 370.324 177.483 371.204 176.2C372.084 174.88 372.524 173.285 372.524 171.415C372.524 169.545 372.084 167.95 371.204 166.63C370.324 165.273 369.132 164.247 367.629 163.55C366.126 162.853 364.402 162.505 362.459 162.505C360.552 162.505 358.829 162.853 357.289 163.55C355.749 164.247 354.521 165.255 353.604 166.575C352.724 167.895 352.284 169.508 352.284 171.415C352.284 173.285 352.724 174.88 353.604 176.2C354.484 177.483 355.694 178.473 357.234 179.17C358.774 179.83 360.516 180.16 362.459 180.16ZM381.52 157.665H389.11L400.935 183.9L394.775 185L381.52 157.665ZM414.96 157.665L396.04 196H388.615L396.7 180.93L407.315 157.665H414.96ZM442.802 175.925H449.732C449.439 177.795 448.65 179.463 447.367 180.93C446.12 182.397 444.415 183.552 442.252 184.395C440.089 185.238 437.449 185.66 434.332 185.66C430.849 185.66 427.769 185.11 425.092 184.01C422.415 182.873 420.325 181.242 418.822 179.115C417.319 176.988 416.567 174.422 416.567 171.415C416.567 168.408 417.3 165.842 418.767 163.715C420.234 161.552 422.269 159.902 424.872 158.765C427.512 157.628 430.592 157.06 434.112 157.06C437.705 157.06 440.694 157.628 443.077 158.765C445.46 159.902 447.22 161.625 448.357 163.935C449.53 166.208 450.025 169.123 449.842 172.68H423.772C423.955 174.073 424.469 175.338 425.312 176.475C426.192 177.612 427.365 178.51 428.832 179.17C430.335 179.83 432.114 180.16 434.167 180.16C436.44 180.16 438.329 179.775 439.832 179.005C441.372 178.198 442.362 177.172 442.802 175.925ZM433.782 162.505C431.142 162.505 428.997 163.092 427.347 164.265C425.697 165.402 424.634 166.813 424.157 168.5H442.747C442.564 166.667 441.684 165.218 440.107 164.155C438.567 163.055 436.459 162.505 433.782 162.505ZM480.077 175.925H487.007C486.714 177.795 485.926 179.463 484.642 180.93C483.396 182.397 481.691 183.552 479.527 184.395C477.364 185.238 474.724 185.66 471.607 185.66C468.124 185.66 465.044 185.11 462.367 184.01C459.691 182.873 457.601 181.242 456.097 179.115C454.594 176.988 453.842 174.422 453.842 171.415C453.842 168.408 454.576 165.842 456.042 163.715C457.509 161.552 459.544 159.902 462.147 158.765C464.787 157.628 467.867 157.06 471.387 157.06C474.981 157.06 477.969 157.628 480.352 158.765C482.736 159.902 484.496 161.625 485.632 163.935C486.806 166.208 487.301 169.123 487.117 172.68H461.047C461.231 174.073 461.744 175.338 462.587 176.475C463.467 177.612 464.641 178.51 466.107 179.17C467.611 179.83 469.389 180.16 471.442 180.16C473.716 180.16 475.604 179.775 477.107 179.005C478.647 178.198 479.637 177.172 480.077 175.925ZM471.057 162.505C468.417 162.505 466.272 163.092 464.622 164.265C462.972 165.402 461.909 166.813 461.432 168.5H480.022C479.839 166.667 478.959 165.218 477.382 164.155C475.842 163.055 473.734 162.505 471.057 162.505ZM491.338 175.925H497.938C498.341 177.172 499.166 178.198 500.413 179.005C501.696 179.775 503.364 180.16 505.418 180.16C506.811 180.16 507.893 180.032 508.663 179.775C509.433 179.518 509.964 179.152 510.258 178.675C510.551 178.162 510.698 177.593 510.698 176.97C510.698 176.2 510.459 175.613 509.983 175.21C509.506 174.77 508.773 174.422 507.783 174.165C506.793 173.908 505.528 173.67 503.988 173.45C502.448 173.193 500.963 172.882 499.533 172.515C498.103 172.148 496.838 171.672 495.738 171.085C494.638 170.462 493.758 169.692 493.098 168.775C492.474 167.822 492.163 166.667 492.163 165.31C492.163 163.99 492.474 162.817 493.098 161.79C493.758 160.763 494.656 159.902 495.793 159.205C496.966 158.508 498.323 157.977 499.863 157.61C501.439 157.243 503.126 157.06 504.923 157.06C507.636 157.06 509.891 157.463 511.688 158.27C513.484 159.04 514.823 160.14 515.703 161.57C516.619 162.963 517.078 164.577 517.078 166.41H510.753C510.459 165.053 509.873 164.082 508.993 163.495C508.113 162.872 506.756 162.56 504.923 162.56C503.126 162.56 501.769 162.835 500.853 163.385C499.936 163.935 499.478 164.687 499.478 165.64C499.478 166.41 499.753 167.015 500.303 167.455C500.889 167.858 501.733 168.188 502.833 168.445C503.969 168.702 505.381 168.977 507.068 169.27C508.498 169.563 509.854 169.893 511.138 170.26C512.458 170.627 513.631 171.103 514.658 171.69C515.684 172.24 516.491 172.992 517.078 173.945C517.701 174.862 518.013 176.035 518.013 177.465C518.013 179.225 517.499 180.71 516.473 181.92C515.483 183.13 514.053 184.065 512.183 184.725C510.313 185.348 508.076 185.66 505.473 185.66C503.163 185.66 501.164 185.422 499.478 184.945C497.828 184.432 496.453 183.79 495.353 183.02C494.253 182.213 493.391 181.37 492.768 180.49C492.181 179.573 491.778 178.712 491.558 177.905C491.338 177.098 491.264 176.438 491.338 175.925Z" fill="black"/>
<g opacity="0.6" filter="url(#filter0_f_4152_41296)">
<rect x="50" y="37" width="519" height="94" rx="4" stroke="#FFA529" stroke-width="7"/>
</g>
<rect x="50" y="37" width="519" height="94" rx="4" stroke="#FFA529" stroke-width="7"/>
<rect x="569" width="36" height="37" rx="2" fill="#FFA529"/>
<g filter="url(#filter1_d_4152_41296)">
<path d="M36.9469 135.461C39.101 134.53 41.4424 136.321 41.107 138.644L36.5514 170.194C36.1559 172.934 32.5771 173.722 31.0676 171.402L23.2302 159.355C22.8546 158.778 22.2918 158.347 21.6364 158.136L7.95848 153.725C5.32402 152.875 5.14778 149.215 7.6884 148.116L36.9469 135.461Z" fill="#FFA529"/>
</g>
</g>
<defs>
<filter id="filter0_f_4152_41296" x="26.5" y="13.5" width="566" height="141" filterUnits="userSpaceOnUse" color-interpolation-filters="sRGB">
<feFlood flood-opacity="0" result="BackgroundImageFix"/>
<feBlend mode="normal" in="SourceGraphic" in2="BackgroundImageFix" result="shape"/>
<feGaussianBlur stdDeviation="10" result="effect1_foregroundBlur_4152_41296"/>
</filter>
<filter id="filter1_d_4152_41296" x="2.78376" y="135.211" width="41.451" height="43.7479" filterUnits="userSpaceOnUse" color-interpolation-filters="sRGB">
<feFlood flood-opacity="0" result="BackgroundImageFix"/>
<feColorMatrix in="SourceAlpha" type="matrix" values="0 0 0 0 0 0 0 0 0 0 0 0 0 0 0 0 0 0 127 0" result="hardAlpha"/>
<feOffset dy="3.09564"/>
<feGaussianBlur stdDeviation="1.54782"/>
<feComposite in2="hardAlpha" operator="out"/>
<feColorMatrix type="matrix" values="0 0 0 0 0 0 0 0 0 0 0 0 0 0 0 0 0 0 0.25 0"/>
<feBlend mode="normal" in2="BackgroundImageFix" result="effect1_dropShadow_4152_41296"/>
<feBlend mode="normal" in="SourceGraphic" in2="effect1_dropShadow_4152_41296" result="shape"/>
</filter>
<clipPath id="clip0_4152_41296">
<rect width="604.625" height="209" fill="white" transform="translate(0.375488)"/>
</clipPath>
</defs>
</svg>
