<svg width="441" height="152" viewBox="0 0 441 152" fill="none" xmlns="http://www.w3.org/2000/svg">
<g clip-path="url(#clip0_3681_39649)">
<path d="M11 139L17.5361 143.604C24.8162 148.733 34.3974 149.214 42.1553 144.843V144.843C48.6599 141.177 56.5361 140.885 63.2944 144.059L67.2831 145.932C75.4982 149.79 84.975 149.932 93.3022 146.322L96.1399 145.092C105.164 141.18 115.344 140.873 124.588 144.234L133.122 147.337C141.333 150.322 150.395 149.912 158.302 146.199L161.647 144.628C169.166 141.097 177.928 141.422 185.165 145.5V145.5C192.401 149.578 201.164 149.903 208.683 146.372L211.817 144.9C219.84 141.132 229.056 140.817 237.318 144.028L245.132 147.065C253.209 150.204 262.242 149.74 269.954 145.789V145.789C278.311 141.507 288.181 141.337 296.681 145.329L298.385 146.129C306.404 149.895 315.572 150.4 323.956 147.536L337.334 142.967C344.658 140.466 352.728 141.506 359.178 145.782V145.782C365.141 149.735 372.515 150.938 379.425 149.083L417 139" stroke="url(#paint0_linear_3681_39649)" stroke-width="3"/>
<path d="M2.45 43.09H8.89C9.03 44.91 9.63667 46.5667 10.71 48.06C11.83 49.5067 13.3233 50.65 15.19 51.49C17.1033 52.33 19.32 52.75 21.84 52.75C24.0333 52.75 25.8533 52.4467 27.3 51.84C28.7467 51.2333 29.82 50.4167 30.52 49.39C31.2667 48.3167 31.64 47.0567 31.64 45.61C31.64 44.1633 31.2433 43.02 30.45 42.18C29.6567 41.2933 28.4667 40.57 26.88 40.01C25.2933 39.4033 23.3333 38.82 21 38.26C18.9467 37.7467 16.9167 37.14 14.91 36.44C12.95 35.6933 11.13 34.7833 9.45 33.71C7.81667 32.6367 6.48667 31.3533 5.46 29.86C4.48 28.32 3.99 26.4767 3.99 24.33C3.99 22.0433 4.62 19.9667 5.88 18.1C7.14 16.1867 8.98333 14.67 11.41 13.55C13.8833 12.3833 16.87 11.8 20.37 11.8C25.7833 11.8 29.8667 13.1533 32.62 15.86C35.42 18.5667 36.7733 22.1833 36.68 26.71H30.38C30.24 23.5367 29.2367 21.2733 27.37 19.92C25.5033 18.52 23.0767 17.82 20.09 17.82C17.5233 17.82 15.33 18.3567 13.51 19.43C11.69 20.4567 10.78 22.09 10.78 24.33C10.78 25.31 10.99 26.1733 11.41 26.92C11.83 27.62 12.53 28.2733 13.51 28.88C14.49 29.4867 15.7967 30.07 17.43 30.63C19.11 31.19 21.1867 31.7967 23.66 32.45C25.5267 32.87 27.3233 33.4067 29.05 34.06C30.8233 34.7133 32.41 35.53 33.81 36.51C35.21 37.49 36.3067 38.75 37.1 40.29C37.94 41.83 38.36 43.72 38.36 45.96C38.36 48.34 37.7767 50.51 36.61 52.47C35.4433 54.3833 33.6233 55.9233 31.15 57.09C28.7233 58.21 25.5733 58.77 21.7 58.77C18.62 58.77 15.9367 58.3733 13.65 57.58C11.41 56.7867 9.52 55.76 7.98 54.5C6.48667 53.24 5.29667 51.8867 4.41 50.44C3.57 48.9933 2.98667 47.6167 2.66 46.31C2.38 45.0033 2.31 43.93 2.45 43.09ZM59.9823 58.7C56.9957 58.7 54.2657 57.93 51.7923 56.39C49.319 54.85 47.359 52.7267 45.9123 50.02C44.4657 47.2667 43.7423 44.1167 43.7423 40.57C43.7423 37.0233 44.4657 33.8967 45.9123 31.19C47.4057 28.4367 49.4357 26.29 52.0023 24.75C54.569 23.1633 57.439 22.37 60.6123 22.37C64.1123 22.37 66.819 23.1867 68.7323 24.82C70.6923 26.4533 72.0457 28.6467 72.7923 31.4C73.5857 34.1533 73.9823 37.21 73.9823 40.57C73.9823 42.4367 73.749 44.42 73.2823 46.52C72.8157 48.62 72.069 50.6033 71.0423 52.47C70.0157 54.3367 68.5923 55.8533 66.7723 57.02C64.9523 58.14 62.689 58.7 59.9823 58.7ZM61.8723 52.89C64.3457 52.89 66.4223 52.3533 68.1023 51.28C69.829 50.16 71.1123 48.6667 71.9523 46.8C72.7923 44.9333 73.2123 42.8567 73.2123 40.57C73.2123 38.0967 72.769 35.9267 71.8823 34.06C71.0423 32.1933 69.759 30.7467 68.0323 29.72C66.3523 28.6933 64.299 28.18 61.8723 28.18C58.2323 28.18 55.409 29.3467 53.4023 31.68C51.4423 34.0133 50.4623 36.9767 50.4623 40.57C50.4623 42.9967 50.9523 45.1433 51.9323 47.01C52.9123 48.83 54.2423 50.2767 55.9223 51.35C57.649 52.3767 59.6323 52.89 61.8723 52.89ZM73.2123 23.07H79.9323V58H73.7723C73.7723 58 73.7257 57.58 73.6323 56.74C73.539 55.8533 73.4457 54.8033 73.3523 53.59C73.259 52.3767 73.2123 51.3033 73.2123 50.37V23.07ZM103.957 52.82H101.787L113.127 23.07H120.407L106.057 58H99.7571L85.5471 23.07H92.8971L103.957 52.82ZM151.946 46.66H158.316C157.943 48.9467 157.056 51 155.656 52.82C154.256 54.64 152.413 56.0867 150.126 57.16C147.839 58.2333 145.156 58.77 142.076 58.77C138.436 58.77 135.193 58 132.346 56.46C129.499 54.92 127.259 52.7967 125.626 50.09C123.993 47.3833 123.176 44.2333 123.176 40.64C123.176 37 123.969 33.8267 125.556 31.12C127.143 28.3667 129.336 26.22 132.136 24.68C134.936 23.14 138.133 22.37 141.726 22.37C145.506 22.37 148.679 23.1167 151.246 24.61C153.813 26.1033 155.703 28.32 156.916 31.26C158.176 34.1533 158.689 37.77 158.456 42.11H129.826C130.059 44.21 130.689 46.0767 131.716 47.71C132.789 49.3433 134.189 50.6267 135.916 51.56C137.689 52.4933 139.719 52.96 142.006 52.96C144.573 52.96 146.719 52.3767 148.446 51.21C150.173 50.0433 151.339 48.5267 151.946 46.66ZM141.796 28.11C138.763 28.11 136.243 28.9267 134.236 30.56C132.229 32.1467 130.899 34.27 130.246 36.93H151.736C151.549 34.0833 150.523 31.9133 148.656 30.42C146.789 28.88 144.503 28.11 141.796 28.11ZM179.374 46.66H185.534C185.767 48.5267 186.607 50.0667 188.054 51.28C189.501 52.4467 191.531 53.03 194.144 53.03C195.824 53.03 197.131 52.8433 198.064 52.47C198.997 52.05 199.651 51.49 200.024 50.79C200.444 50.09 200.654 49.32 200.654 48.48C200.654 47.4067 200.374 46.59 199.814 46.03C199.254 45.4233 198.461 44.9333 197.434 44.56C196.407 44.14 195.194 43.7433 193.794 43.37C192.254 42.95 190.714 42.46 189.174 41.9C187.634 41.34 186.211 40.6633 184.904 39.87C183.644 39.0767 182.617 38.0967 181.824 36.93C181.077 35.7167 180.704 34.2467 180.704 32.52C180.704 31.0733 181.007 29.72 181.614 28.46C182.267 27.2 183.177 26.1267 184.344 25.24C185.557 24.3067 186.957 23.6067 188.544 23.14C190.131 22.6267 191.881 22.37 193.794 22.37C196.454 22.37 198.694 22.86 200.514 23.84C202.334 24.7733 203.711 26.1033 204.644 27.83C205.624 29.5567 206.137 31.54 206.184 33.78H200.304C199.977 31.82 199.301 30.3967 198.274 29.51C197.247 28.5767 195.707 28.11 193.654 28.11C191.647 28.11 190.107 28.5067 189.034 29.3C187.961 30.0933 187.424 31.1667 187.424 32.52C187.424 33.5467 187.797 34.3867 188.544 35.04C189.291 35.6467 190.294 36.1833 191.554 36.65C192.814 37.1167 194.237 37.6067 195.824 38.12C197.317 38.6333 198.741 39.17 200.094 39.73C201.494 40.2433 202.731 40.8733 203.804 41.62C204.924 42.32 205.787 43.2533 206.394 44.42C207.047 45.54 207.374 46.94 207.374 48.62C207.374 50.6733 206.861 52.47 205.834 54.01C204.807 55.5033 203.314 56.67 201.354 57.51C199.441 58.35 197.107 58.77 194.354 58.77C191.834 58.77 189.687 58.4667 187.914 57.86C186.187 57.2533 184.717 56.46 183.504 55.48C182.337 54.5 181.427 53.4733 180.774 52.4C180.167 51.28 179.747 50.2067 179.514 49.18C179.327 48.1533 179.281 47.3133 179.374 46.66ZM222.46 8.65V15.86H214.13V8.65H222.46ZM214.97 23.07H221.62V58H214.97V23.07ZM231.09 23.07H237.81V58H231.09V23.07ZM251.11 22.37C253.07 22.37 254.843 22.65 256.43 23.21C258.016 23.77 259.37 24.61 260.49 25.73C261.61 26.8033 262.473 28.1567 263.08 29.79C263.733 31.3767 264.06 33.1967 264.06 35.25V58H257.41V36.72C257.41 33.9667 256.733 31.9133 255.38 30.56C254.073 29.16 252.066 28.46 249.36 28.46C247.26 28.46 245.346 28.95 243.62 29.93C241.893 30.91 240.47 32.2167 239.35 33.85C238.276 35.4367 237.623 37.2333 237.39 39.24L237.32 35.39C237.553 33.5233 238.043 31.7967 238.79 30.21C239.583 28.6233 240.563 27.2467 241.73 26.08C242.943 24.8667 244.343 23.9567 245.93 23.35C247.516 22.6967 249.243 22.37 251.11 22.37ZM276.73 22.37C278.69 22.37 280.463 22.65 282.05 23.21C283.636 23.77 284.99 24.61 286.11 25.73C287.23 26.8033 288.093 28.1567 288.7 29.79C289.353 31.3767 289.68 33.1967 289.68 35.25V58H283.03V36.72C283.03 33.9667 282.353 31.9133 281 30.56C279.693 29.16 277.686 28.46 274.98 28.46C272.88 28.46 270.966 28.95 269.24 29.93C267.513 30.91 266.09 32.2167 264.97 33.85C263.896 35.4367 263.243 37.2333 263.01 39.24L262.94 35.32C263.173 33.4533 263.663 31.75 264.41 30.21C265.203 28.6233 266.206 27.2467 267.42 26.08C268.633 24.8667 270.033 23.9567 271.62 23.35C273.206 22.6967 274.91 22.37 276.73 22.37ZM318.442 58.77C315.735 58.77 313.472 58.1867 311.652 57.02C309.832 55.8533 308.409 54.3367 307.382 52.47C306.355 50.6033 305.609 48.62 305.142 46.52C304.675 44.42 304.442 42.4367 304.442 40.57C304.442 38.05 304.652 35.6933 305.072 33.5C305.539 31.3067 306.285 29.37 307.312 27.69C308.339 26.01 309.762 24.7033 311.582 23.77C313.402 22.8367 315.689 22.37 318.442 22.37C321.475 22.37 324.205 23.1633 326.632 24.75C329.059 26.29 330.995 28.4367 332.442 31.19C333.935 33.9433 334.682 37.07 334.682 40.57C334.682 44.1633 333.935 47.3367 332.442 50.09C330.949 52.7967 328.965 54.92 326.492 56.46C324.065 58 321.382 58.77 318.442 58.77ZM316.552 52.89C318.792 52.89 320.775 52.3767 322.502 51.35C324.229 50.2767 325.559 48.83 326.492 47.01C327.472 45.1433 327.962 42.9967 327.962 40.57C327.962 36.9767 326.959 34.0133 324.952 31.68C322.992 29.3467 320.192 28.18 316.552 28.18C314.359 28.18 312.399 28.6933 310.672 29.72C308.992 30.7467 307.662 32.1933 306.682 34.06C305.702 35.9267 305.212 38.0967 305.212 40.57C305.212 42.9033 305.632 45.0033 306.472 46.87C307.359 48.69 308.642 50.16 310.322 51.28C312.002 52.3533 314.079 52.89 316.552 52.89ZM298.492 23.07H304.932L305.212 30.98V72H298.492V23.07ZM342.395 9.07H349.115V58H342.395V9.07ZM355.567 23.07H362.707L376.077 56.6L370.267 58L355.567 23.07ZM391.197 23.07L370.267 72H363.197L372.227 53.03L384.127 23.07H391.197ZM391.954 68.08L390.554 66.26C391.254 65.0467 391.907 63.81 392.514 62.55C393.121 61.29 393.447 60.03 393.494 58.77L389.924 58V50.79H398.464V55.97C398.464 58.9567 397.811 61.3833 396.504 63.25C395.244 65.1633 393.727 66.7733 391.954 68.08Z" fill="#041004"/>
<path d="M2.87 116.66H9.03C9.26333 118.527 10.1033 120.067 11.55 121.28C12.9967 122.447 15.0267 123.03 17.64 123.03C19.32 123.03 20.6267 122.843 21.56 122.47C22.4933 122.05 23.1467 121.49 23.52 120.79C23.94 120.09 24.15 119.32 24.15 118.48C24.15 117.407 23.87 116.59 23.31 116.03C22.75 115.423 21.9567 114.933 20.93 114.56C19.9033 114.14 18.69 113.743 17.29 113.37C15.75 112.95 14.21 112.46 12.67 111.9C11.13 111.34 9.70667 110.663 8.4 109.87C7.14 109.077 6.11333 108.097 5.32 106.93C4.57333 105.717 4.2 104.247 4.2 102.52C4.2 101.073 4.50333 99.72 5.11 98.46C5.76333 97.2 6.67333 96.1267 7.84 95.24C9.05333 94.3067 10.4533 93.6067 12.04 93.14C13.6267 92.6267 15.3767 92.37 17.29 92.37C19.95 92.37 22.19 92.86 24.01 93.84C25.83 94.7733 27.2067 96.1033 28.14 97.83C29.12 99.5567 29.6333 101.54 29.68 103.78H23.8C23.4733 101.82 22.7967 100.397 21.77 99.51C20.7433 98.5767 19.2033 98.11 17.15 98.11C15.1433 98.11 13.6033 98.5067 12.53 99.3C11.4567 100.093 10.92 101.167 10.92 102.52C10.92 103.547 11.2933 104.387 12.04 105.04C12.7867 105.647 13.79 106.183 15.05 106.65C16.31 107.117 17.7333 107.607 19.32 108.12C20.8133 108.633 22.2367 109.17 23.59 109.73C24.99 110.243 26.2267 110.873 27.3 111.62C28.42 112.32 29.2833 113.253 29.89 114.42C30.5433 115.54 30.87 116.94 30.87 118.62C30.87 120.673 30.3567 122.47 29.33 124.01C28.3033 125.503 26.81 126.67 24.85 127.51C22.9367 128.35 20.6033 128.77 17.85 128.77C15.33 128.77 13.1833 128.467 11.41 127.86C9.68333 127.253 8.21333 126.46 7 125.48C5.83333 124.5 4.92333 123.473 4.27 122.4C3.66333 121.28 3.24333 120.207 3.01 119.18C2.82333 118.153 2.77667 117.313 2.87 116.66ZM52.3261 128.7C49.3394 128.7 46.6094 127.93 44.1361 126.39C41.6628 124.85 39.7028 122.727 38.2561 120.02C36.8094 117.267 36.0861 114.117 36.0861 110.57C36.0861 107.023 36.8094 103.897 38.2561 101.19C39.7494 98.4367 41.7794 96.29 44.3461 94.75C46.9128 93.1633 49.7828 92.37 52.9561 92.37C56.4561 92.37 59.1628 93.1867 61.0761 94.82C63.0361 96.4533 64.3894 98.6467 65.1361 101.4C65.9294 104.153 66.3261 107.21 66.3261 110.57C66.3261 112.437 66.0928 114.42 65.6261 116.52C65.1594 118.62 64.4128 120.603 63.3861 122.47C62.3594 124.337 60.9361 125.853 59.1161 127.02C57.2961 128.14 55.0328 128.7 52.3261 128.7ZM54.2161 122.89C56.6894 122.89 58.7661 122.353 60.4461 121.28C62.1728 120.16 63.4561 118.667 64.2961 116.8C65.1361 114.933 65.5561 112.857 65.5561 110.57C65.5561 108.097 65.1128 105.927 64.2261 104.06C63.3861 102.193 62.1028 100.747 60.3761 99.72C58.6961 98.6933 56.6428 98.18 54.2161 98.18C50.5761 98.18 47.7528 99.3467 45.7461 101.68C43.7861 104.013 42.8061 106.977 42.8061 110.57C42.8061 112.997 43.2961 115.143 44.2761 117.01C45.2561 118.83 46.5861 120.277 48.2661 121.35C49.9928 122.377 51.9761 122.89 54.2161 122.89ZM65.5561 93.07H72.2761V128H66.1161C66.1161 128 66.0694 127.58 65.9761 126.74C65.8828 125.853 65.7894 124.803 65.6961 123.59C65.6028 122.377 65.5561 121.303 65.5561 120.37V93.07ZM96.3009 122.82H94.1309L105.471 93.07H112.751L98.4009 128H92.1009L77.8909 93.07H85.2409L96.3009 122.82ZM144.29 116.66H150.66C150.286 118.947 149.4 121 148 122.82C146.6 124.64 144.756 126.087 142.47 127.16C140.183 128.233 137.5 128.77 134.42 128.77C130.78 128.77 127.536 128 124.69 126.46C121.843 124.92 119.603 122.797 117.97 120.09C116.336 117.383 115.52 114.233 115.52 110.64C115.52 107 116.313 103.827 117.9 101.12C119.486 98.3667 121.68 96.22 124.48 94.68C127.28 93.14 130.476 92.37 134.07 92.37C137.85 92.37 141.023 93.1167 143.59 94.61C146.156 96.1033 148.046 98.32 149.26 101.26C150.52 104.153 151.033 107.77 150.8 112.11H122.17C122.403 114.21 123.033 116.077 124.06 117.71C125.133 119.343 126.533 120.627 128.26 121.56C130.033 122.493 132.063 122.96 134.35 122.96C136.916 122.96 139.063 122.377 140.79 121.21C142.516 120.043 143.683 118.527 144.29 116.66ZM134.14 98.11C131.106 98.11 128.586 98.9267 126.58 100.56C124.573 102.147 123.243 104.27 122.59 106.93H144.08C143.893 104.083 142.866 101.913 141 100.42C139.133 98.88 136.846 98.11 134.14 98.11ZM171.718 116.66H177.878C178.111 118.527 178.951 120.067 180.398 121.28C181.844 122.447 183.874 123.03 186.488 123.03C188.168 123.03 189.474 122.843 190.408 122.47C191.341 122.05 191.994 121.49 192.368 120.79C192.788 120.09 192.998 119.32 192.998 118.48C192.998 117.407 192.718 116.59 192.158 116.03C191.598 115.423 190.804 114.933 189.778 114.56C188.751 114.14 187.538 113.743 186.138 113.37C184.598 112.95 183.058 112.46 181.518 111.9C179.978 111.34 178.554 110.663 177.248 109.87C175.988 109.077 174.961 108.097 174.168 106.93C173.421 105.717 173.048 104.247 173.048 102.52C173.048 101.073 173.351 99.72 173.958 98.46C174.611 97.2 175.521 96.1267 176.688 95.24C177.901 94.3067 179.301 93.6067 180.888 93.14C182.474 92.6267 184.224 92.37 186.138 92.37C188.798 92.37 191.038 92.86 192.858 93.84C194.678 94.7733 196.054 96.1033 196.988 97.83C197.968 99.5567 198.481 101.54 198.528 103.78H192.648C192.321 101.82 191.644 100.397 190.618 99.51C189.591 98.5767 188.051 98.11 185.998 98.11C183.991 98.11 182.451 98.5067 181.378 99.3C180.304 100.093 179.768 101.167 179.768 102.52C179.768 103.547 180.141 104.387 180.888 105.04C181.634 105.647 182.638 106.183 183.898 106.65C185.158 107.117 186.581 107.607 188.168 108.12C189.661 108.633 191.084 109.17 192.438 109.73C193.838 110.243 195.074 110.873 196.148 111.62C197.268 112.32 198.131 113.253 198.738 114.42C199.391 115.54 199.718 116.94 199.718 118.62C199.718 120.673 199.204 122.47 198.178 124.01C197.151 125.503 195.658 126.67 193.698 127.51C191.784 128.35 189.451 128.77 186.698 128.77C184.178 128.77 182.031 128.467 180.258 127.86C178.531 127.253 177.061 126.46 175.848 125.48C174.681 124.5 173.771 123.473 173.118 122.4C172.511 121.28 172.091 120.207 171.858 119.18C171.671 118.153 171.624 117.313 171.718 116.66ZM206.754 93.07H213.474V128H206.754V93.07ZM226.774 92.37C228.734 92.37 230.507 92.65 232.094 93.21C233.68 93.77 235.034 94.61 236.154 95.73C237.274 96.8033 238.137 98.1567 238.744 99.79C239.397 101.377 239.724 103.197 239.724 105.25V128H233.074V106.72C233.074 103.967 232.397 101.913 231.044 100.56C229.737 99.16 227.73 98.46 225.024 98.46C222.924 98.46 221.01 98.95 219.284 99.93C217.557 100.91 216.134 102.217 215.014 103.85C213.94 105.437 213.287 107.233 213.054 109.24L212.984 105.39C213.217 103.523 213.707 101.797 214.454 100.21C215.247 98.6233 216.227 97.2467 217.394 96.08C218.607 94.8667 220.007 93.9567 221.594 93.35C223.18 92.6967 224.907 92.37 226.774 92.37ZM252.394 92.37C254.354 92.37 256.127 92.65 257.714 93.21C259.3 93.77 260.654 94.61 261.774 95.73C262.894 96.8033 263.757 98.1567 264.364 99.79C265.017 101.377 265.344 103.197 265.344 105.25V128H258.694V106.72C258.694 103.967 258.017 101.913 256.664 100.56C255.357 99.16 253.35 98.46 250.644 98.46C248.544 98.46 246.63 98.95 244.904 99.93C243.177 100.91 241.754 102.217 240.634 103.85C239.56 105.437 238.907 107.233 238.674 109.24L238.604 105.32C238.837 103.453 239.327 101.75 240.074 100.21C240.867 98.6233 241.87 97.2467 243.084 96.08C244.297 94.8667 245.697 93.9567 247.284 93.35C248.87 92.6967 250.574 92.37 252.394 92.37ZM288.576 128.7C285.589 128.7 282.859 127.93 280.386 126.39C277.913 124.85 275.953 122.727 274.506 120.02C273.059 117.267 272.336 114.117 272.336 110.57C272.336 107.023 273.059 103.897 274.506 101.19C275.999 98.4367 278.029 96.29 280.596 94.75C283.163 93.1633 286.033 92.37 289.206 92.37C292.706 92.37 295.413 93.1867 297.326 94.82C299.286 96.4533 300.639 98.6467 301.386 101.4C302.179 104.153 302.576 107.21 302.576 110.57C302.576 112.437 302.343 114.42 301.876 116.52C301.409 118.62 300.663 120.603 299.636 122.47C298.609 124.337 297.186 125.853 295.366 127.02C293.546 128.14 291.283 128.7 288.576 128.7ZM290.466 122.89C292.939 122.89 295.016 122.353 296.696 121.28C298.423 120.16 299.706 118.667 300.546 116.8C301.386 114.933 301.806 112.857 301.806 110.57C301.806 108.097 301.363 105.927 300.476 104.06C299.636 102.193 298.353 100.747 296.626 99.72C294.946 98.6933 292.893 98.18 290.466 98.18C286.826 98.18 284.003 99.3467 281.996 101.68C280.036 104.013 279.056 106.977 279.056 110.57C279.056 112.997 279.546 115.143 280.526 117.01C281.506 118.83 282.836 120.277 284.516 121.35C286.243 122.377 288.226 122.89 290.466 122.89ZM301.806 93.07H308.526V128H302.366C302.366 128 302.319 127.58 302.226 126.74C302.133 125.853 302.039 124.803 301.946 123.59C301.853 122.377 301.806 121.303 301.806 120.37V93.07ZM317.291 93.07H324.011V128H317.291V93.07ZM335.841 99.02C333.414 99.02 331.338 99.58 329.611 100.7C327.931 101.82 326.578 103.197 325.551 104.83C324.571 106.463 323.918 108.027 323.591 109.52L323.521 105.53C323.568 105.063 323.684 104.34 323.871 103.36C324.104 102.333 324.501 101.19 325.061 99.93C325.621 98.67 326.368 97.48 327.301 96.36C328.234 95.1933 329.401 94.2367 330.801 93.49C332.201 92.7433 333.881 92.37 335.841 92.37V99.02ZM339.519 93.07H362.129V98.88H339.519V93.07ZM347.499 83.83H354.149V128H347.499V83.83ZM394.827 116.66H401.197C400.823 118.947 399.937 121 398.537 122.82C397.137 124.64 395.293 126.087 393.007 127.16C390.72 128.233 388.037 128.77 384.957 128.77C381.317 128.77 378.073 128 375.227 126.46C372.38 124.92 370.14 122.797 368.507 120.09C366.873 117.383 366.057 114.233 366.057 110.64C366.057 107 366.85 103.827 368.437 101.12C370.023 98.3667 372.217 96.22 375.017 94.68C377.817 93.14 381.013 92.37 384.607 92.37C388.387 92.37 391.56 93.1167 394.127 94.61C396.693 96.1033 398.583 98.32 399.797 101.26C401.057 104.153 401.57 107.77 401.337 112.11H372.707C372.94 114.21 373.57 116.077 374.597 117.71C375.67 119.343 377.07 120.627 378.797 121.56C380.57 122.493 382.6 122.96 384.887 122.96C387.453 122.96 389.6 122.377 391.327 121.21C393.053 120.043 394.22 118.527 394.827 116.66ZM384.677 98.11C381.643 98.11 379.123 98.9267 377.117 100.56C375.11 102.147 373.78 104.27 373.127 106.93H394.617C394.43 104.083 393.403 101.913 391.537 100.42C389.67 98.88 387.383 98.11 384.677 98.11ZM408.414 93.07H415.134V128H408.414V93.07ZM426.964 99.02C424.537 99.02 422.461 99.58 420.734 100.7C419.054 101.82 417.701 103.197 416.674 104.83C415.694 106.463 415.041 108.027 414.714 109.52L414.644 105.53C414.691 105.063 414.807 104.34 414.994 103.36C415.227 102.333 415.624 101.19 416.184 99.93C416.744 98.67 417.491 97.48 418.424 96.36C419.357 95.1933 420.524 94.2367 421.924 93.49C423.324 92.7433 425.004 92.37 426.964 92.37V99.02Z" fill="url(#paint1_linear_3681_39649)"/>
</g>
<defs>
<linearGradient id="paint0_linear_3681_39649" x1="49.1977" y1="138.905" x2="50.5363" y2="166.508" gradientUnits="userSpaceOnUse">
<stop stop-color="#228B22"/>
<stop offset="0.740862" stop-color="#FFBD00"/>
</linearGradient>
<linearGradient id="paint1_linear_3681_39649" x1="41.4906" y1="-0.937284" x2="141.85" y2="227.371" gradientUnits="userSpaceOnUse">
<stop stop-color="#228B22"/>
<stop offset="0.740862" stop-color="#FFBD00"/>
</linearGradient>
<clipPath id="clip0_3681_39649">
<rect width="441" height="152" fill="white"/>
</clipPath>
</defs>
</svg>
