<svg width="969" height="166" viewBox="0 0 969 166" fill="none" xmlns="http://www.w3.org/2000/svg">
<path d="M3.87695 52.1367H14.977C15.2436 54.6034 16.2103 56.8367 17.877 58.8367C19.6103 60.7701 21.877 62.3034 24.677 63.4367C27.5436 64.5034 30.8103 65.0367 34.477 65.0367C37.7436 65.0367 40.4436 64.6367 42.577 63.8367C44.7103 63.0367 46.277 61.9367 47.277 60.5367C48.3436 59.0701 48.877 57.3701 48.877 55.4367C48.877 53.5034 48.2436 52.0034 46.977 50.9367C45.777 49.8034 43.9103 48.8701 41.377 48.1367C38.8436 47.3367 35.6103 46.57 31.677 45.8367C28.4103 45.2367 25.2436 44.4367 22.177 43.4367C19.1103 42.4367 16.3436 41.1701 13.877 39.6367C11.477 38.1034 9.57695 36.2367 8.17695 34.0367C6.77695 31.7701 6.07695 29.1034 6.07695 26.0367C6.07695 22.5701 7.04362 19.4367 8.97695 16.6367C10.977 13.8367 13.9103 11.6367 17.777 10.0367C21.6436 8.43672 26.3436 7.63672 31.877 7.63672C40.3436 7.63672 46.8103 9.60338 51.277 13.5367C55.7436 17.4034 57.9103 22.67 57.777 29.3367H46.877C46.677 25.1367 45.1436 22.1034 42.277 20.2367C39.4103 18.37 35.777 17.4367 31.377 17.4367C27.4436 17.4367 24.1436 18.1367 21.477 19.5367C18.8103 20.9367 17.477 23.2034 17.477 26.3367C17.477 27.6701 17.777 28.8367 18.377 29.8367C19.0436 30.77 20.1103 31.6367 21.577 32.4367C23.0436 33.17 25.0436 33.9034 27.577 34.6367C30.177 35.3034 33.3436 36.0367 37.077 36.8367C40.277 37.3701 43.277 38.1034 46.077 39.0367C48.877 39.9701 51.3103 41.1367 53.377 42.5367C55.5103 43.9367 57.177 45.7367 58.377 47.9367C59.577 50.1367 60.177 52.8367 60.177 56.0367C60.177 59.7034 59.2436 62.9701 57.377 65.8367C55.5103 68.6367 52.6436 70.8701 48.777 72.5367C44.977 74.1367 40.0436 74.9367 33.977 74.9367C29.377 74.9367 25.3436 74.4034 21.877 73.3367C18.477 72.2034 15.577 70.7701 13.177 69.0367C10.777 67.2367 8.84362 65.3034 7.37695 63.2367C5.97695 61.1701 4.97695 59.1701 4.37695 57.2367C3.84362 55.2367 3.67695 53.5367 3.87695 52.1367ZM92.5465 74.7367C88.0132 74.7367 83.8465 73.6367 80.0465 71.4367C76.3132 69.2367 73.3132 66.2034 71.0465 62.3367C68.8465 58.4034 67.7465 53.9034 67.7465 48.8367C67.7465 43.6367 68.8798 39.1034 71.1465 35.2367C73.4132 31.3034 76.4798 28.2367 80.3465 26.0367C84.2132 23.8367 88.5465 22.7367 93.3465 22.7367C98.6798 22.7367 102.913 23.9034 106.046 26.2367C109.18 28.5701 111.413 31.7034 112.746 35.6367C114.08 39.5701 114.746 43.9701 114.746 48.8367C114.746 51.5701 114.346 54.4701 113.546 57.5367C112.746 60.5367 111.48 63.3367 109.746 65.9367C108.08 68.5367 105.813 70.6701 102.946 72.3367C100.146 73.9367 96.6798 74.7367 92.5465 74.7367ZM95.9465 65.5367C99.6798 65.5367 102.846 64.8367 105.446 63.4367C108.113 61.9701 110.113 59.9701 111.446 57.4367C112.846 54.9034 113.546 52.0367 113.546 48.8367C113.546 45.3034 112.846 42.3034 111.446 39.8367C110.046 37.3034 108.046 35.3701 105.446 34.0367C102.846 32.6367 99.6798 31.9367 95.9465 31.9367C90.6132 31.9367 86.4798 33.5034 83.5465 36.6367C80.6132 39.7701 79.1465 43.8367 79.1465 48.8367C79.1465 52.1034 79.8465 55.0034 81.2465 57.5367C82.7132 60.0701 84.7132 62.0367 87.2465 63.4367C89.7798 64.8367 92.6798 65.5367 95.9465 65.5367ZM113.546 23.8367H124.746V73.6367H114.346C114.346 73.6367 114.28 73.0034 114.146 71.7367C114.013 70.4701 113.88 68.9367 113.746 67.1367C113.613 65.2701 113.546 63.5034 113.546 61.8367V23.8367ZM161.348 65.7367H157.448L174.648 23.8367H186.748L164.748 73.6367H154.148L132.448 23.8367H144.648L161.348 65.7367ZM234.407 57.2367H245.107C244.574 60.6367 243.241 63.6701 241.107 66.3367C239.041 68.9367 236.207 71.0034 232.607 72.5367C229.007 74.0034 224.707 74.7367 219.707 74.7367C214.041 74.7367 208.974 73.7034 204.507 71.6367C200.041 69.5034 196.541 66.5034 194.007 62.6367C191.474 58.7701 190.207 54.1701 190.207 48.8367C190.207 43.5701 191.441 38.9701 193.907 35.0367C196.374 31.1034 199.774 28.07 204.107 25.9367C208.507 23.8034 213.574 22.7367 219.307 22.7367C225.241 22.7367 230.174 23.8034 234.107 25.9367C238.107 28.0034 241.074 31.1367 243.007 35.3367C244.941 39.4701 245.741 44.7034 245.407 51.0367H201.507C201.841 53.8367 202.741 56.3701 204.207 58.6367C205.741 60.8367 207.807 62.5701 210.407 63.8367C213.007 65.0367 216.041 65.6367 219.507 65.6367C223.374 65.6367 226.607 64.8701 229.207 63.3367C231.874 61.8034 233.607 59.7701 234.407 57.2367ZM219.007 31.7367C214.474 31.7367 210.741 32.87 207.807 35.1367C204.874 37.3367 202.974 40.17 202.107 43.6367H234.207C233.941 39.9034 232.441 37.0034 229.707 34.9367C226.974 32.8034 223.407 31.7367 219.007 31.7367ZM375.604 8.83672H387.004V73.6367H375.604V8.83672ZM402.866 23.8367H413.966V73.6367H402.866V23.8367ZM434.966 22.7367C437.833 22.7367 440.466 23.1367 442.866 23.9367C445.333 24.7367 447.433 25.9701 449.166 27.6367C450.966 29.2367 452.333 31.2367 453.266 33.6367C454.266 36.0367 454.766 38.87 454.766 42.1367V73.6367H443.666V44.3367C443.666 40.2701 442.666 37.2701 440.666 35.3367C438.733 33.3367 435.666 32.3367 431.466 32.3367C428.266 32.3367 425.333 33.0367 422.666 34.4367C420.066 35.7701 417.933 37.5367 416.266 39.7367C414.599 41.8701 413.633 44.2367 413.366 46.8367L413.266 41.4367C413.599 38.97 414.333 36.6367 415.466 34.4367C416.599 32.17 418.099 30.17 419.966 28.4367C421.833 26.6367 424.033 25.2367 426.566 24.2367C429.099 23.2367 431.899 22.7367 434.966 22.7367ZM490.45 65.7367H486.55L503.75 23.8367H515.85L493.85 73.6367H483.25L461.55 23.8367H473.75L490.45 65.7367ZM563.509 57.2367H574.209C573.676 60.6367 572.342 63.6701 570.209 66.3367C568.142 68.9367 565.309 71.0034 561.709 72.5367C558.109 74.0034 553.809 74.7367 548.809 74.7367C543.142 74.7367 538.076 73.7034 533.609 71.6367C529.142 69.5034 525.642 66.5034 523.109 62.6367C520.576 58.7701 519.309 54.1701 519.309 48.8367C519.309 43.5701 520.542 38.9701 523.009 35.0367C525.476 31.1034 528.876 28.07 533.209 25.9367C537.609 23.8034 542.676 22.7367 548.409 22.7367C554.342 22.7367 559.276 23.8034 563.209 25.9367C567.209 28.0034 570.176 31.1367 572.109 35.3367C574.042 39.4701 574.842 44.7034 574.509 51.0367H530.609C530.942 53.8367 531.842 56.3701 533.309 58.6367C534.842 60.8367 536.909 62.5701 539.509 63.8367C542.109 65.0367 545.142 65.6367 548.609 65.6367C552.476 65.6367 555.709 64.8701 558.309 63.3367C560.976 61.8034 562.709 59.7701 563.509 57.2367ZM548.109 31.7367C543.576 31.7367 539.842 32.87 536.909 35.1367C533.976 37.3367 532.076 40.17 531.209 43.6367H563.309C563.042 39.9034 561.542 37.0034 558.809 34.9367C556.076 32.8034 552.509 31.7367 548.109 31.7367ZM582.209 57.2367H592.509C593.042 59.7701 594.409 61.8367 596.609 63.4367C598.809 64.9701 601.776 65.7367 605.509 65.7367C607.909 65.7367 609.776 65.4701 611.109 64.9367C612.509 64.4034 613.476 63.6701 614.009 62.7367C614.609 61.8034 614.909 60.7367 614.909 59.5367C614.909 58.0701 614.476 56.9367 613.609 56.1367C612.809 55.3367 611.609 54.6701 610.009 54.1367C608.409 53.6034 606.409 53.1367 604.009 52.7367C601.542 52.1367 599.109 51.4701 596.709 50.7367C594.309 50.0034 592.142 49.1034 590.209 48.0367C588.276 46.9034 586.742 45.5034 585.609 43.8367C584.542 42.1034 584.009 40.0034 584.009 37.5367C584.009 35.2701 584.509 33.2367 585.509 31.4367C586.576 29.5701 588.042 28.0034 589.909 26.7367C591.776 25.47 593.976 24.5034 596.509 23.8367C599.042 23.1034 601.809 22.7367 604.809 22.7367C609.142 22.7367 612.742 23.4367 615.609 24.8367C618.542 26.2367 620.742 28.2034 622.209 30.7367C623.742 33.27 624.509 36.17 624.509 39.4367H614.709C614.176 36.77 613.142 34.8367 611.609 33.6367C610.076 32.4367 607.776 31.8367 604.709 31.8367C601.642 31.8367 599.309 32.3701 597.709 33.4367C596.109 34.5034 595.309 35.9701 595.309 37.8367C595.309 39.2367 595.809 40.3701 596.809 41.2367C597.876 42.0367 599.376 42.7367 601.309 43.3367C603.242 43.9367 605.509 44.5367 608.109 45.1367C610.509 45.8034 612.776 46.5034 614.909 47.2367C617.042 47.9034 618.942 48.7701 620.609 49.8367C622.342 50.8367 623.709 52.1701 624.709 53.8367C625.709 55.5034 626.209 57.5701 626.209 60.0367C626.209 63.1034 625.376 65.7367 623.709 67.9367C622.109 70.1367 619.776 71.8367 616.709 73.0367C613.642 74.1701 609.942 74.7367 605.609 74.7367C601.809 74.7367 598.509 74.3034 595.709 73.4367C592.976 72.5701 590.676 71.4367 588.809 70.0367C587.009 68.6367 585.609 67.1367 584.609 65.5367C583.609 63.9367 582.909 62.4034 582.509 60.9367C582.176 59.4701 582.076 58.2367 582.209 57.2367ZM632.764 23.8367H667.964V32.9367H632.764V23.8367ZM644.764 10.4367H655.964V73.6367H644.764V10.4367Z" fill="#FFBD00"/>
<path d="M296.354 74.7367C293.554 74.7367 290.888 74.3367 288.354 73.5367C285.888 72.6701 283.721 71.5034 281.854 70.0367C279.988 68.5701 278.488 66.8034 277.354 64.7367C276.288 62.6701 275.754 60.3701 275.754 57.8367C275.754 54.7701 276.454 52.1034 277.854 49.8367C279.254 47.5701 281.154 45.7034 283.554 44.2367C286.021 42.7701 288.821 41.6701 291.954 40.9367C295.088 40.1367 298.421 39.6701 301.954 39.5367L302.354 40.0367C299.021 39.9034 295.888 39.6034 292.954 39.1367C290.088 38.6034 287.554 37.7701 285.354 36.6367C283.221 35.5034 281.554 34.0367 280.354 32.2367C279.154 30.37 278.554 28.1034 278.554 25.4367C278.554 21.9034 279.554 18.8034 281.554 16.1367C283.621 13.47 286.554 11.4034 290.354 9.93672C294.221 8.40338 298.754 7.63672 303.954 7.63672C307.554 7.63672 310.821 8.03672 313.754 8.83672C316.688 9.57005 319.188 10.7367 321.254 12.3367C323.388 13.87 325.021 15.8034 326.154 18.1367C327.288 20.4034 327.854 23.0367 327.854 26.0367H317.654C317.588 23.2367 316.321 21.1034 313.854 19.6367C311.454 18.17 308.188 17.4367 304.054 17.4367C299.521 17.4367 296.054 18.27 293.654 19.9367C291.254 21.6034 290.054 23.8701 290.054 26.7367C290.054 28.7367 290.621 30.5034 291.754 32.0367C292.954 33.5034 294.688 34.6367 296.954 35.4367C299.221 36.17 302.021 36.5367 305.354 36.5367H340.354V44.0367H328.754V73.6367H318.454C318.188 71.5701 317.988 69.6367 317.854 67.8367C317.788 65.9701 317.721 63.9367 317.654 61.7367C317.654 59.5367 317.654 56.8701 317.654 53.7367L318.354 55.9367C317.888 58.2701 317.121 60.5701 316.054 62.8367C315.054 65.0367 313.688 67.0367 311.954 68.8367C310.221 70.6367 308.054 72.0701 305.454 73.1367C302.921 74.2034 299.888 74.7367 296.354 74.7367ZM300.854 65.5367C304.521 65.5367 307.588 64.8034 310.054 63.3367C312.521 61.8034 314.388 59.8367 315.654 57.4367C316.988 54.9701 317.654 52.4367 317.654 49.8367V44.0367H305.354C299.888 44.0367 295.521 45.0034 292.254 46.9367C289.054 48.8034 287.454 51.6034 287.454 55.3367C287.454 58.4034 288.588 60.8701 290.854 62.7367C293.188 64.6034 296.521 65.5367 300.854 65.5367ZM2.47695 140.737H9.13695C9.29695 142.217 9.87695 143.557 10.877 144.757C11.917 145.917 13.277 146.837 14.957 147.517C16.677 148.157 18.637 148.477 20.837 148.477C22.797 148.477 24.417 148.237 25.697 147.757C26.977 147.277 27.917 146.617 28.517 145.777C29.157 144.897 29.477 143.877 29.477 142.717C29.477 141.557 29.097 140.657 28.337 140.017C27.617 139.337 26.497 138.777 24.977 138.337C23.457 137.857 21.517 137.397 19.157 136.957C17.197 136.597 15.297 136.117 13.457 135.517C11.617 134.917 9.95695 134.157 8.47695 133.237C7.03695 132.317 5.89695 131.197 5.05695 129.877C4.21695 128.517 3.79695 126.917 3.79695 125.077C3.79695 122.997 4.37695 121.117 5.53695 119.437C6.73695 117.757 8.49695 116.437 10.817 115.477C13.137 114.517 15.957 114.037 19.277 114.037C24.357 114.037 28.237 115.217 30.917 117.577C33.597 119.897 34.897 123.057 34.817 127.057H28.277C28.157 124.537 27.237 122.717 25.517 121.597C23.797 120.477 21.617 119.917 18.977 119.917C16.617 119.917 14.637 120.337 13.037 121.177C11.437 122.017 10.637 123.377 10.637 125.257C10.637 126.057 10.817 126.757 11.177 127.357C11.577 127.917 12.217 128.437 13.097 128.917C13.977 129.357 15.177 129.797 16.697 130.237C18.257 130.637 20.157 131.077 22.397 131.557C24.317 131.877 26.117 132.317 27.797 132.877C29.477 133.437 30.937 134.137 32.177 134.977C33.457 135.817 34.457 136.897 35.177 138.217C35.897 139.537 36.257 141.157 36.257 143.077C36.257 145.277 35.697 147.237 34.577 148.957C33.457 150.637 31.737 151.977 29.417 152.977C27.137 153.937 24.177 154.417 20.537 154.417C17.777 154.417 15.357 154.097 13.277 153.457C11.237 152.777 9.49695 151.917 8.05695 150.877C6.61695 149.797 5.45695 148.637 4.57695 147.397C3.73695 146.157 3.13695 144.957 2.77695 143.797C2.45695 142.597 2.35695 141.577 2.47695 140.737ZM67.3187 143.797H73.7387C73.4187 145.837 72.6187 147.657 71.3387 149.257C70.0987 150.817 68.3987 152.057 66.2387 152.977C64.0787 153.857 61.4987 154.297 58.4987 154.297C55.0987 154.297 52.0587 153.677 49.3787 152.437C46.6987 151.157 44.5987 149.357 43.0787 147.037C41.5587 144.717 40.7987 141.957 40.7987 138.757C40.7987 135.597 41.5387 132.837 43.0187 130.477C44.4987 128.117 46.5387 126.297 49.1387 125.017C51.7787 123.737 54.8187 123.097 58.2587 123.097C61.8187 123.097 64.7787 123.737 67.1387 125.017C69.5387 126.257 71.3187 128.137 72.4787 130.657C73.6387 133.137 74.1187 136.277 73.9187 140.077H47.5787C47.7787 141.757 48.3187 143.277 49.1987 144.637C50.1187 145.957 51.3587 146.997 52.9187 147.757C54.4787 148.477 56.2987 148.837 58.3787 148.837C60.6987 148.837 62.6387 148.377 64.1987 147.457C65.7987 146.537 66.8387 145.317 67.3187 143.797ZM58.0787 128.497C55.3587 128.497 53.1187 129.177 51.3587 130.537C49.5987 131.857 48.4587 133.557 47.9387 135.637H67.1987C67.0387 133.397 66.1387 131.657 64.4987 130.417C62.8587 129.137 60.7187 128.497 58.0787 128.497ZM112.019 142.057C111.779 144.617 110.959 146.817 109.559 148.657C108.159 150.497 106.279 151.897 103.919 152.857C101.599 153.817 98.9187 154.297 95.8787 154.297C92.5987 154.297 89.6187 153.697 86.9387 152.497C84.2987 151.297 82.1987 149.537 80.6387 147.217C79.0787 144.897 78.2987 142.077 78.2987 138.757C78.2987 135.437 79.0787 132.617 80.6387 130.297C82.1987 127.977 84.2987 126.197 86.9387 124.957C89.6187 123.717 92.5987 123.097 95.8787 123.097C98.9187 123.097 101.599 123.597 103.919 124.597C106.239 125.557 108.099 126.937 109.499 128.737C110.899 130.537 111.719 132.717 111.959 135.277H105.839C105.159 133.157 103.919 131.517 102.119 130.357C100.359 129.157 98.2787 128.557 95.8787 128.557C93.9187 128.557 92.1187 128.957 90.4787 129.757C88.8387 130.517 87.5187 131.657 86.5187 133.177C85.5587 134.657 85.0787 136.517 85.0787 138.757C85.0787 140.957 85.5587 142.817 86.5187 144.337C87.5187 145.857 88.8387 146.997 90.4787 147.757C92.1187 148.477 93.9187 148.837 95.8787 148.837C98.5187 148.837 100.679 148.257 102.359 147.097C104.079 145.897 105.259 144.217 105.899 142.057H112.019ZM149.026 153.637H142.366V123.757H149.026V153.637ZM142.726 139.417L142.786 141.337C142.706 141.857 142.526 142.637 142.246 143.677C142.006 144.717 141.586 145.857 140.986 147.097C140.426 148.297 139.666 149.457 138.706 150.577C137.786 151.657 136.626 152.557 135.226 153.277C133.826 153.957 132.126 154.297 130.126 154.297C128.686 154.297 127.226 154.097 125.746 153.697C124.306 153.337 122.986 152.717 121.786 151.837C120.626 150.957 119.686 149.757 118.966 148.237C118.246 146.717 117.886 144.797 117.886 142.477V123.757H124.546V141.217C124.546 143.097 124.846 144.577 125.446 145.657C126.086 146.697 126.966 147.437 128.086 147.877C129.206 148.317 130.506 148.537 131.986 148.537C134.106 148.537 135.906 148.057 137.386 147.097C138.866 146.137 140.046 144.957 140.926 143.557C141.846 142.117 142.446 140.737 142.726 139.417ZM156.382 123.757H163.042V153.637H156.382V123.757ZM173.842 129.457C171.682 129.457 169.822 129.917 168.262 130.837C166.742 131.757 165.522 132.877 164.602 134.197C163.682 135.517 163.042 136.797 162.682 138.037L162.622 134.677C162.662 134.237 162.802 133.577 163.042 132.697C163.282 131.777 163.642 130.777 164.122 129.697C164.642 128.617 165.322 127.577 166.162 126.577C167.042 125.537 168.102 124.697 169.342 124.057C170.622 123.417 172.122 123.097 173.842 123.097V129.457ZM203.842 143.797H210.262C209.942 145.837 209.142 147.657 207.862 149.257C206.622 150.817 204.922 152.057 202.762 152.977C200.602 153.857 198.022 154.297 195.022 154.297C191.622 154.297 188.582 153.677 185.902 152.437C183.222 151.157 181.122 149.357 179.602 147.037C178.082 144.717 177.322 141.957 177.322 138.757C177.322 135.597 178.062 132.837 179.542 130.477C181.022 128.117 183.062 126.297 185.662 125.017C188.302 123.737 191.342 123.097 194.782 123.097C198.342 123.097 201.302 123.737 203.662 125.017C206.062 126.257 207.842 128.137 209.002 130.657C210.162 133.137 210.642 136.277 210.442 140.077H184.102C184.302 141.757 184.842 143.277 185.722 144.637C186.642 145.957 187.882 146.997 189.442 147.757C191.002 148.477 192.822 148.837 194.902 148.837C197.222 148.837 199.162 148.377 200.722 147.457C202.322 146.537 203.362 145.317 203.842 143.797ZM194.602 128.497C191.882 128.497 189.642 129.177 187.882 130.537C186.122 131.857 184.982 133.557 184.462 135.637H203.722C203.562 133.397 202.662 131.657 201.022 130.417C199.382 129.137 197.242 128.497 194.602 128.497ZM243.53 154.297C240.81 154.297 238.31 153.637 236.03 152.317C233.79 150.997 231.99 149.177 230.63 146.857C229.31 144.497 228.65 141.797 228.65 138.757C228.65 135.637 229.33 132.917 230.69 130.597C232.05 128.237 233.89 126.397 236.21 125.077C238.53 123.757 241.13 123.097 244.01 123.097C247.21 123.097 249.75 123.797 251.63 125.197C253.51 126.597 254.85 128.477 255.65 130.837C256.45 133.197 256.85 135.837 256.85 138.757C256.85 140.397 256.61 142.137 256.13 143.977C255.65 145.777 254.89 147.457 253.85 149.017C252.85 150.577 251.49 151.857 249.77 152.857C248.09 153.817 246.01 154.297 243.53 154.297ZM245.57 148.777C247.81 148.777 249.71 148.357 251.27 147.517C252.87 146.637 254.07 145.437 254.87 143.917C255.71 142.397 256.13 140.677 256.13 138.757C256.13 136.637 255.71 134.837 254.87 133.357C254.03 131.837 252.83 130.677 251.27 129.877C249.71 129.037 247.81 128.617 245.57 128.617C242.37 128.617 239.89 129.557 238.13 131.437C236.37 133.317 235.49 135.757 235.49 138.757C235.49 140.717 235.91 142.457 236.75 143.977C237.63 145.497 238.83 146.677 240.35 147.517C241.87 148.357 243.61 148.777 245.57 148.777ZM256.13 123.757H262.85V153.637H256.61C256.61 153.637 256.57 153.257 256.49 152.497C256.41 151.737 256.33 150.817 256.25 149.737C256.17 148.617 256.13 147.557 256.13 146.557V123.757ZM270.171 123.757H276.831V153.637H270.171V123.757ZM289.431 123.097C291.151 123.097 292.731 123.337 294.171 123.817C295.651 124.297 296.911 125.037 297.951 126.037C299.031 126.997 299.851 128.197 300.411 129.637C301.011 131.077 301.311 132.777 301.311 134.737V153.637H294.651V136.057C294.651 133.617 294.051 131.817 292.851 130.657C291.691 129.457 289.851 128.857 287.331 128.857C285.411 128.857 283.651 129.277 282.051 130.117C280.491 130.917 279.211 131.977 278.211 133.297C277.211 134.577 276.631 135.997 276.471 137.557L276.411 134.317C276.611 132.837 277.051 131.437 277.731 130.117C278.411 128.757 279.311 127.557 280.431 126.517C281.551 125.437 282.871 124.597 284.391 123.997C285.911 123.397 287.591 123.097 289.431 123.097ZM321.987 154.297C319.227 154.297 316.707 153.637 314.427 152.317C312.187 150.997 310.407 149.177 309.087 146.857C307.767 144.497 307.107 141.797 307.107 138.757C307.107 135.637 307.747 132.917 309.027 130.597C310.347 128.237 312.107 126.397 314.307 125.077C316.547 123.757 319.107 123.097 321.987 123.097C324.507 123.097 326.627 123.517 328.347 124.357C330.067 125.157 331.427 126.277 332.427 127.717C333.427 129.117 334.147 130.757 334.587 132.637C335.067 134.517 335.307 136.557 335.307 138.757C335.307 140.397 335.067 142.137 334.587 143.977C334.107 145.777 333.347 147.457 332.307 149.017C331.307 150.577 329.947 151.857 328.227 152.857C326.547 153.817 324.467 154.297 321.987 154.297ZM324.027 148.777C326.267 148.777 328.167 148.357 329.727 147.517C331.327 146.637 332.527 145.437 333.327 143.917C334.167 142.397 334.587 140.677 334.587 138.757C334.587 136.637 334.167 134.837 333.327 133.357C332.487 131.837 331.287 130.657 329.727 129.817C328.167 128.977 326.267 128.557 324.027 128.557C320.827 128.557 318.347 129.517 316.587 131.437C314.827 133.317 313.947 135.757 313.947 138.757C313.947 140.717 314.367 142.457 315.207 143.977C316.087 145.497 317.287 146.677 318.807 147.517C320.327 148.357 322.067 148.777 324.027 148.777ZM334.587 111.757H341.307V153.637H335.067C334.987 152.717 334.887 151.577 334.767 150.217C334.647 148.857 334.587 147.637 334.587 146.557V111.757ZM364.588 153.637V114.757H387.568C390.448 114.757 392.948 115.177 395.068 116.017C397.188 116.817 398.828 118.077 399.988 119.797C401.148 121.477 401.728 123.637 401.728 126.277C401.728 128.037 401.428 129.557 400.828 130.837C400.228 132.077 399.388 133.097 398.308 133.897C397.228 134.697 395.968 135.317 394.528 135.757C393.128 136.197 391.628 136.477 390.028 136.597L389.428 136.177C391.988 136.217 394.108 136.457 395.788 136.897C397.468 137.297 398.748 138.077 399.628 139.237C400.508 140.357 400.948 142.017 400.948 144.217V153.637H394.168V144.577C394.168 143.057 393.888 141.877 393.328 141.037C392.808 140.157 391.888 139.557 390.568 139.237C389.288 138.877 387.448 138.697 385.048 138.697H371.428V153.637H364.588ZM371.428 133.117H387.568C389.968 133.117 391.788 132.517 393.028 131.317C394.268 130.117 394.888 128.537 394.888 126.577C394.888 124.697 394.268 123.257 393.028 122.257C391.788 121.217 389.968 120.697 387.568 120.697H371.428V133.117ZM433.94 143.797H440.36C440.04 145.837 439.24 147.657 437.96 149.257C436.72 150.817 435.02 152.057 432.86 152.977C430.7 153.857 428.12 154.297 425.12 154.297C421.72 154.297 418.68 153.677 416 152.437C413.32 151.157 411.22 149.357 409.7 147.037C408.18 144.717 407.42 141.957 407.42 138.757C407.42 135.597 408.16 132.837 409.64 130.477C411.12 128.117 413.16 126.297 415.76 125.017C418.4 123.737 421.44 123.097 424.88 123.097C428.44 123.097 431.4 123.737 433.76 125.017C436.16 126.257 437.94 128.137 439.1 130.657C440.26 133.137 440.74 136.277 440.54 140.077H414.2C414.4 141.757 414.94 143.277 415.82 144.637C416.74 145.957 417.98 146.997 419.54 147.757C421.1 148.477 422.92 148.837 425 148.837C427.32 148.837 429.26 148.377 430.82 147.457C432.42 146.537 433.46 145.317 433.94 143.797ZM424.7 128.497C421.98 128.497 419.74 129.177 417.98 130.537C416.22 131.857 415.08 133.557 414.56 135.637H433.82C433.66 133.397 432.76 131.657 431.12 130.417C429.48 129.137 427.34 128.497 424.7 128.497ZM459.8 149.017C457 149.017 454.46 148.517 452.18 147.517C449.94 146.517 448.16 145.057 446.84 143.137C445.56 141.217 444.92 138.917 444.92 136.237C444.92 133.557 445.54 131.237 446.78 129.277C448.06 127.317 449.82 125.797 452.06 124.717C454.34 123.637 456.92 123.097 459.8 123.097C460.64 123.097 461.44 123.157 462.2 123.277C463 123.397 463.76 123.557 464.48 123.757L478.46 123.817V129.397C476.54 129.437 474.6 129.177 472.64 128.617C470.72 128.017 469.02 127.397 467.54 126.757L467.36 126.397C468.72 127.077 469.94 127.917 471.02 128.917C472.14 129.877 473.02 130.977 473.66 132.217C474.3 133.457 474.62 134.857 474.62 136.417C474.62 139.057 473.98 141.317 472.7 143.197C471.46 145.077 469.72 146.517 467.48 147.517C465.28 148.517 462.72 149.017 459.8 149.017ZM469.4 165.817V164.437C469.4 162.477 468.82 161.097 467.66 160.297C466.5 159.497 464.88 159.097 462.8 159.097H454.7C453.1 159.097 451.72 158.957 450.56 158.677C449.44 158.437 448.54 158.057 447.86 157.537C447.18 157.057 446.68 156.477 446.36 155.797C446.04 155.157 445.88 154.437 445.88 153.637C445.88 152.037 446.36 150.837 447.32 150.037C448.32 149.237 449.62 148.717 451.22 148.477C452.86 148.237 454.58 148.197 456.38 148.357L459.8 149.017C457.44 149.097 455.64 149.317 454.4 149.677C453.2 149.997 452.6 150.657 452.6 151.657C452.6 152.257 452.84 152.737 453.32 153.097C453.8 153.457 454.48 153.637 455.36 153.637H463.88C466.32 153.637 468.46 153.917 470.3 154.477C472.14 155.077 473.56 156.057 474.56 157.417C475.6 158.817 476.12 160.717 476.12 163.117V165.817H469.4ZM459.8 143.797C461.4 143.797 462.82 143.497 464.06 142.897C465.3 142.297 466.28 141.437 467 140.317C467.72 139.197 468.08 137.837 468.08 136.237C468.08 134.637 467.72 133.257 467 132.097C466.28 130.937 465.3 130.057 464.06 129.457C462.82 128.857 461.4 128.557 459.8 128.557C458.24 128.557 456.82 128.857 455.54 129.457C454.3 130.057 453.32 130.937 452.6 132.097C451.88 133.217 451.52 134.597 451.52 136.237C451.52 137.837 451.88 139.197 452.6 140.317C453.32 141.437 454.3 142.297 455.54 142.897C456.78 143.497 458.2 143.797 459.8 143.797ZM514.944 153.637H508.284V123.757H514.944V153.637ZM508.644 139.417L508.704 141.337C508.624 141.857 508.444 142.637 508.164 143.677C507.924 144.717 507.504 145.857 506.904 147.097C506.344 148.297 505.584 149.457 504.624 150.577C503.704 151.657 502.544 152.557 501.144 153.277C499.744 153.957 498.044 154.297 496.044 154.297C494.604 154.297 493.144 154.097 491.664 153.697C490.224 153.337 488.904 152.717 487.704 151.837C486.544 150.957 485.604 149.757 484.884 148.237C484.164 146.717 483.804 144.797 483.804 142.477V123.757H490.464V141.217C490.464 143.097 490.764 144.577 491.364 145.657C492.004 146.697 492.884 147.437 494.004 147.877C495.124 148.317 496.424 148.537 497.904 148.537C500.024 148.537 501.824 148.057 503.304 147.097C504.784 146.137 505.964 144.957 506.844 143.557C507.764 142.117 508.364 140.737 508.644 139.417ZM522.9 111.757H529.56V153.637H522.9V111.757ZM550.972 154.297C548.252 154.297 545.752 153.637 543.472 152.317C541.232 150.997 539.432 149.177 538.072 146.857C536.752 144.497 536.092 141.797 536.092 138.757C536.092 135.637 536.772 132.917 538.132 130.597C539.492 128.237 541.332 126.397 543.652 125.077C545.972 123.757 548.572 123.097 551.452 123.097C554.652 123.097 557.192 123.797 559.072 125.197C560.952 126.597 562.292 128.477 563.092 130.837C563.892 133.197 564.292 135.837 564.292 138.757C564.292 140.397 564.052 142.137 563.572 143.977C563.092 145.777 562.332 147.457 561.292 149.017C560.292 150.577 558.932 151.857 557.212 152.857C555.532 153.817 553.452 154.297 550.972 154.297ZM553.012 148.777C555.252 148.777 557.152 148.357 558.712 147.517C560.312 146.637 561.512 145.437 562.312 143.917C563.152 142.397 563.572 140.677 563.572 138.757C563.572 136.637 563.152 134.837 562.312 133.357C561.472 131.837 560.272 130.677 558.712 129.877C557.152 129.037 555.252 128.617 553.012 128.617C549.812 128.617 547.332 129.557 545.572 131.437C543.812 133.317 542.932 135.757 542.932 138.757C542.932 140.717 543.352 142.457 544.192 143.977C545.072 145.497 546.272 146.677 547.792 147.517C549.312 148.357 551.052 148.777 553.012 148.777ZM563.572 123.757H570.292V153.637H564.052C564.052 153.637 564.012 153.257 563.932 152.497C563.852 151.737 563.772 150.817 563.692 149.737C563.612 148.617 563.572 147.557 563.572 146.557V123.757ZM575.513 123.757H596.633V129.217H575.513V123.757ZM582.713 115.717H589.433V153.637H582.713V115.717ZM626.362 143.797H632.782C632.462 145.837 631.662 147.657 630.382 149.257C629.142 150.817 627.442 152.057 625.282 152.977C623.122 153.857 620.542 154.297 617.542 154.297C614.142 154.297 611.102 153.677 608.422 152.437C605.742 151.157 603.642 149.357 602.122 147.037C600.602 144.717 599.842 141.957 599.842 138.757C599.842 135.597 600.582 132.837 602.062 130.477C603.542 128.117 605.582 126.297 608.182 125.017C610.822 123.737 613.862 123.097 617.302 123.097C620.862 123.097 623.822 123.737 626.182 125.017C628.582 126.257 630.362 128.137 631.522 130.657C632.682 133.137 633.162 136.277 632.962 140.077H606.622C606.822 141.757 607.362 143.277 608.242 144.637C609.162 145.957 610.402 146.997 611.962 147.757C613.522 148.477 615.342 148.837 617.422 148.837C619.742 148.837 621.682 148.377 623.242 147.457C624.842 146.537 625.882 145.317 626.362 143.797ZM617.122 128.497C614.402 128.497 612.162 129.177 610.402 130.537C608.642 131.857 607.502 133.557 606.982 135.637H626.242C626.082 133.397 625.182 131.657 623.542 130.417C621.902 129.137 619.762 128.497 617.122 128.497ZM652.222 154.297C649.462 154.297 646.942 153.637 644.662 152.317C642.422 150.997 640.642 149.177 639.322 146.857C638.002 144.497 637.342 141.797 637.342 138.757C637.342 135.637 637.982 132.917 639.262 130.597C640.582 128.237 642.342 126.397 644.542 125.077C646.782 123.757 649.342 123.097 652.222 123.097C654.742 123.097 656.862 123.517 658.582 124.357C660.302 125.157 661.662 126.277 662.662 127.717C663.662 129.117 664.382 130.757 664.822 132.637C665.302 134.517 665.542 136.557 665.542 138.757C665.542 140.397 665.302 142.137 664.822 143.977C664.342 145.777 663.582 147.457 662.542 149.017C661.542 150.577 660.182 151.857 658.462 152.857C656.782 153.817 654.702 154.297 652.222 154.297ZM654.262 148.777C656.502 148.777 658.402 148.357 659.962 147.517C661.562 146.637 662.762 145.437 663.562 143.917C664.402 142.397 664.822 140.677 664.822 138.757C664.822 136.637 664.402 134.837 663.562 133.357C662.722 131.837 661.522 130.657 659.962 129.817C658.402 128.977 656.502 128.557 654.262 128.557C651.062 128.557 648.582 129.517 646.822 131.437C645.062 133.317 644.182 135.757 644.182 138.757C644.182 140.717 644.602 142.457 645.442 143.977C646.322 145.497 647.522 146.677 649.042 147.517C650.562 148.357 652.302 148.777 654.262 148.777ZM664.822 111.757H671.542V153.637H665.302C665.222 152.717 665.122 151.577 665.002 150.217C664.882 148.857 664.822 147.637 664.822 146.557V111.757ZM700.583 140.617V134.917H716.303C718.503 134.917 720.263 134.277 721.583 132.997C722.943 131.717 723.623 129.997 723.623 127.837C723.623 125.597 722.943 123.857 721.583 122.617C720.263 121.337 718.503 120.697 716.303 120.697H701.543V153.637H694.703V114.757H715.823C717.863 114.757 719.763 115.037 721.523 115.597C723.283 116.117 724.823 116.917 726.143 117.997C727.503 119.077 728.543 120.437 729.263 122.077C730.023 123.677 730.403 125.597 730.403 127.837C730.403 130.037 730.023 131.957 729.263 133.597C728.543 135.197 727.503 136.517 726.143 137.557C724.823 138.597 723.283 139.377 721.523 139.897C719.763 140.377 717.863 140.617 715.823 140.617H700.583ZM749.194 154.297C746.474 154.297 743.974 153.637 741.694 152.317C739.454 150.997 737.654 149.177 736.294 146.857C734.974 144.497 734.314 141.797 734.314 138.757C734.314 135.637 734.994 132.917 736.354 130.597C737.714 128.237 739.554 126.397 741.874 125.077C744.194 123.757 746.794 123.097 749.674 123.097C752.874 123.097 755.414 123.797 757.294 125.197C759.174 126.597 760.514 128.477 761.314 130.837C762.114 133.197 762.514 135.837 762.514 138.757C762.514 140.397 762.274 142.137 761.794 143.977C761.314 145.777 760.554 147.457 759.514 149.017C758.514 150.577 757.154 151.857 755.434 152.857C753.754 153.817 751.674 154.297 749.194 154.297ZM751.234 148.777C753.474 148.777 755.374 148.357 756.934 147.517C758.534 146.637 759.734 145.437 760.534 143.917C761.374 142.397 761.794 140.677 761.794 138.757C761.794 136.637 761.374 134.837 760.534 133.357C759.694 131.837 758.494 130.677 756.934 129.877C755.374 129.037 753.474 128.617 751.234 128.617C748.034 128.617 745.554 129.557 743.794 131.437C742.034 133.317 741.154 135.757 741.154 138.757C741.154 140.717 741.574 142.457 742.414 143.977C743.294 145.497 744.494 146.677 746.014 147.517C747.534 148.357 749.274 148.777 751.234 148.777ZM761.794 123.757H768.514V153.637H762.274C762.274 153.637 762.234 153.257 762.154 152.497C762.074 151.737 761.994 150.817 761.914 149.737C761.834 148.617 761.794 147.557 761.794 146.557V123.757ZM775.835 123.757H782.495V153.637H775.835V123.757ZM793.295 129.457C791.135 129.457 789.275 129.917 787.715 130.837C786.195 131.757 784.975 132.877 784.055 134.197C783.135 135.517 782.495 136.797 782.135 138.037L782.075 134.677C782.115 134.237 782.255 133.577 782.495 132.697C782.735 131.777 783.095 130.777 783.575 129.697C784.095 128.617 784.775 127.577 785.615 126.577C786.495 125.537 787.555 124.697 788.795 124.057C790.075 123.417 791.575 123.097 793.295 123.097V129.457ZM796.352 123.757H817.472V129.217H796.352V123.757ZM803.552 115.717H810.272V153.637H803.552V115.717ZM822.71 123.757H829.37V153.637H822.71V123.757ZM841.97 123.097C843.69 123.097 845.27 123.337 846.71 123.817C848.19 124.297 849.45 125.037 850.49 126.037C851.57 126.997 852.39 128.197 852.95 129.637C853.55 131.077 853.85 132.777 853.85 134.737V153.637H847.19V136.057C847.19 133.617 846.59 131.817 845.39 130.657C844.23 129.457 842.39 128.857 839.87 128.857C837.95 128.857 836.19 129.277 834.59 130.117C833.03 130.917 831.75 131.977 830.75 133.297C829.75 134.577 829.17 135.997 829.01 137.557L828.95 134.317C829.15 132.837 829.59 131.437 830.27 130.117C830.95 128.757 831.85 127.557 832.97 126.517C834.09 125.437 835.41 124.597 836.93 123.997C838.45 123.397 840.13 123.097 841.97 123.097ZM886.166 143.797H892.586C892.266 145.837 891.466 147.657 890.186 149.257C888.946 150.817 887.246 152.057 885.086 152.977C882.926 153.857 880.346 154.297 877.346 154.297C873.946 154.297 870.906 153.677 868.226 152.437C865.546 151.157 863.446 149.357 861.926 147.037C860.406 144.717 859.646 141.957 859.646 138.757C859.646 135.597 860.386 132.837 861.866 130.477C863.346 128.117 865.386 126.297 867.986 125.017C870.626 123.737 873.666 123.097 877.106 123.097C880.666 123.097 883.626 123.737 885.986 125.017C888.386 126.257 890.166 128.137 891.326 130.657C892.486 133.137 892.966 136.277 892.766 140.077H866.426C866.626 141.757 867.166 143.277 868.046 144.637C868.966 145.957 870.206 146.997 871.766 147.757C873.326 148.477 875.146 148.837 877.226 148.837C879.546 148.837 881.486 148.377 883.046 147.457C884.646 146.537 885.686 145.317 886.166 143.797ZM876.926 128.497C874.206 128.497 871.966 129.177 870.206 130.537C868.446 131.857 867.306 133.557 866.786 135.637H886.046C885.886 133.397 884.986 131.657 883.346 130.417C881.706 129.137 879.566 128.497 876.926 128.497ZM898.706 123.757H905.366V153.637H898.706V123.757ZM916.166 129.457C914.006 129.457 912.146 129.917 910.586 130.837C909.066 131.757 907.846 132.877 906.926 134.197C906.006 135.517 905.366 136.797 905.006 138.037L904.946 134.677C904.986 134.237 905.126 133.577 905.366 132.697C905.606 131.777 905.966 130.777 906.446 129.697C906.966 128.617 907.646 127.577 908.486 126.577C909.366 125.537 910.426 124.697 911.666 124.057C912.946 123.417 914.446 123.097 916.166 123.097V129.457Z" fill="white"/>
<path d="M709.915 56.407C709.435 55.147 709.795 54.607 709.255 53.887C709.435 55.567 708.535 60.067 709.315 61.867C709.255 60.667 709.135 55.267 709.915 56.407ZM721.615 45.787C721.495 45.727 718.075 56.587 715.675 60.907C717.055 59.887 721.435 47.527 721.615 45.787ZM713.515 61.507C716.815 56.047 719.335 47.227 722.215 40.687C723.955 39.847 724.915 41.227 724.195 43.387C719.395 57.967 717.655 60.607 715.375 63.487C714.055 65.167 709.915 67.147 707.995 63.127C707.275 61.027 708.055 56.047 708.055 54.367C708.055 51.787 704.815 57.667 703.015 60.547C701.875 62.347 701.215 62.707 699.355 61.087C697.195 59.167 698.875 51.367 700.855 45.607C701.335 44.287 704.395 43.747 704.275 46.747C703.075 48.547 701.095 57.307 701.695 57.667C701.695 58.627 704.695 53.347 706.255 51.367C708.055 49.147 710.035 50.707 710.455 52.507C711.055 54.967 709.135 60.847 710.275 63.487C711.055 64.987 712.255 63.547 713.515 61.507ZM718.135 57.667C718.015 57.907 717.835 58.207 717.715 58.387C717.835 58.327 717.955 58.027 718.135 57.667ZM735.492 38.407C735.672 38.407 735.912 38.467 736.032 38.527C736.692 38.827 738.432 41.047 733.812 42.847C731.772 43.627 733.212 41.407 733.152 40.567C733.092 39.307 734.472 38.407 735.492 38.407ZM731.652 45.727H731.832C732.912 45.787 734.112 47.107 733.092 48.247C732.612 49.267 727.272 56.887 730.512 56.407C734.532 54.427 739.512 51.187 743.172 48.307C739.752 51.667 737.712 52.507 737.472 52.807C737.292 53.647 744.252 48.007 744.792 47.227C746.352 46.027 745.572 46.807 745.632 46.867C745.692 47.107 739.452 52.147 745.512 47.467C745.392 47.587 741.732 50.767 741.432 51.067C741.912 50.707 744.192 49.147 745.092 48.427C743.052 50.707 735.552 57.367 731.232 58.087C728.832 58.447 727.332 57.127 726.972 55.687C726.492 53.587 727.272 51.247 728.172 49.207C728.232 48.967 728.352 48.847 728.352 48.787C728.352 48.667 728.472 48.607 728.472 48.607C728.472 48.607 728.592 48.427 728.712 48.127C728.832 47.827 729.012 47.527 729.012 47.527C730.092 46.087 730.452 46.087 731.232 45.787C731.352 45.727 731.532 45.727 731.652 45.727ZM745.092 48.427L745.152 48.367C745.692 47.947 745.512 48.067 745.092 48.427ZM729.792 47.947C728.832 49.207 727.092 53.467 727.572 54.727C727.572 52.447 730.932 45.967 729.792 47.947ZM740.892 51.667C740.592 51.847 736.332 55.087 736.152 55.207C735.972 55.327 736.812 54.967 739.272 53.047L740.892 51.667ZM755.724 21.187C756.804 21.187 758.004 22.387 757.164 23.647C755.844 26.767 755.004 28.687 754.464 29.947C754.644 29.947 754.824 29.887 755.064 29.887C758.484 29.767 764.484 29.407 768.804 29.407H770.544C775.464 29.407 779.844 29.587 785.184 29.887C785.664 30.007 786.024 30.007 785.544 30.067C784.704 30.127 782.424 30.187 779.784 30.187C780.264 30.247 779.964 30.187 780.324 30.307C780.744 30.187 788.844 30.367 788.844 30.487C788.844 30.547 780.864 30.547 780.084 30.547C778.584 30.547 777.984 30.547 778.164 30.607C779.184 30.667 794.004 30.487 789.324 30.727C788.484 30.727 780.264 30.727 780.384 30.727C780.444 30.727 788.064 30.907 787.704 30.907C787.224 30.907 787.164 30.907 787.524 30.907C787.764 30.907 788.004 31.027 788.004 31.027C788.004 31.087 787.344 31.027 786.264 31.027C783.624 30.967 781.584 30.967 775.164 30.967C770.184 30.967 768.204 31.027 768.024 30.967C767.844 30.907 767.784 30.907 767.784 30.967C767.784 31.027 767.424 31.027 766.884 31.027C766.404 31.027 765.864 31.027 765.804 30.967C765.744 30.907 765.624 30.967 765.624 31.027C765.624 31.087 765.384 31.207 764.304 31.207C763.344 31.207 763.164 31.207 763.464 31.147C763.764 31.087 763.704 31.087 763.164 31.087C762.804 31.087 762.324 31.147 762.144 31.207C761.964 31.267 761.244 31.267 760.224 31.267C759.324 31.267 758.724 31.387 758.904 31.387C759.084 31.387 757.224 31.447 754.944 31.567C754.884 31.567 754.764 31.687 754.704 31.687C755.964 31.627 758.844 31.447 759.384 31.447C759.984 31.447 761.964 31.387 761.904 31.387C761.724 31.327 762.264 31.327 762.624 31.387C762.924 31.447 763.044 31.447 763.104 31.387C763.164 31.327 763.524 31.267 763.944 31.267H764.664C764.424 31.267 764.244 31.327 764.004 31.327C763.344 31.387 763.404 31.387 764.244 31.387C764.784 31.387 765.084 31.327 765.084 31.267C765.084 31.207 765.204 31.207 765.324 31.267C765.444 31.267 765.684 31.387 765.924 31.387C766.164 31.387 765.144 31.447 763.704 31.447C762.264 31.447 760.944 31.627 760.884 31.627C760.824 31.627 761.064 31.687 761.424 31.687C762.324 31.687 762.324 31.747 761.544 31.867H761.484C761.124 31.867 760.644 31.927 760.284 31.927H760.164C759.984 31.927 759.804 31.867 759.624 31.867C759.144 31.867 758.784 31.927 758.364 31.927H758.424H758.364H758.304C757.944 31.927 757.644 31.987 757.284 31.987C757.464 31.987 757.224 31.987 756.984 31.987H756.624H756.024C755.904 31.987 755.904 31.927 756.204 31.927C756.864 31.927 756.864 31.807 755.964 31.807C755.424 31.807 755.304 31.867 755.424 31.927C755.484 31.927 755.424 32.047 755.424 32.047H754.644C754.404 32.047 754.164 32.107 753.924 32.107V32.167C753.924 32.167 753.624 32.227 753.444 32.227C750.324 38.587 739.584 61.507 744.024 67.087C744.924 68.167 748.404 64.867 749.304 63.487C749.724 63.967 747.024 66.847 746.244 66.847C745.944 67.387 747.024 67.087 748.284 65.647C749.004 64.627 749.964 64.567 749.484 66.007C748.764 67.207 747.384 68.647 745.824 68.647C744.264 68.647 743.004 68.287 741.984 66.967C740.184 64.627 740.064 59.707 741.384 54.847C743.604 47.107 746.544 39.847 749.724 32.587C748.824 32.647 748.404 32.707 747.264 32.707C743.544 33.007 739.644 33.367 738.324 33.607C738.024 33.667 738.924 34.027 738.744 34.087C736.944 34.567 735.204 34.207 735.204 33.367C735.204 32.407 735.324 31.867 736.524 31.447C736.824 31.447 737.064 31.507 737.304 31.507C740.244 31.207 740.364 31.087 744.384 30.727C746.424 30.547 748.464 30.367 750.504 30.247C750.564 30.247 750.684 30.187 750.744 30.187C751.884 27.547 752.844 25.207 754.524 22.147C754.704 21.487 755.124 21.187 755.604 21.187H755.724ZM780.384 30.427H780.804C781.044 30.427 780.924 30.487 780.504 30.487C780.084 30.487 779.844 30.427 780.024 30.427H780.384ZM768.084 30.607H768.384C768.744 30.607 768.564 30.607 767.964 30.607C767.364 30.607 767.064 30.607 767.304 30.607H767.844H768.084ZM768.324 30.787C768.624 30.787 768.864 30.847 768.804 30.847H768.144H766.944C766.944 30.847 767.424 30.787 767.964 30.787H768.324ZM748.884 30.847V30.907C748.764 30.907 748.764 30.847 748.884 30.847ZM786.084 30.907H786.444C786.624 30.907 786.564 30.967 786.264 30.967H786.144C785.904 30.967 785.844 30.907 785.904 30.907H786.084ZM748.224 30.907H748.464L747.084 31.027H747.144C746.604 31.087 744.504 31.267 744.324 31.267C743.424 31.267 746.904 30.907 748.224 30.907ZM764.784 30.907C764.904 30.907 765.084 30.967 765.084 30.967C765.084 30.967 764.904 31.027 764.784 31.027C764.664 31.027 764.484 30.967 764.484 30.967C764.484 30.967 764.664 30.907 764.784 30.907ZM782.904 31.087C780.924 31.087 777.924 31.147 774.564 31.147H771.804C769.644 31.147 769.104 31.207 769.044 31.267C768.924 31.327 769.224 31.327 770.844 31.327C773.364 31.267 773.904 31.327 772.884 31.387C772.164 31.447 772.164 31.447 773.364 31.447C774.384 31.447 774.624 31.447 774.204 31.507C773.544 31.567 772.164 31.507 771.924 31.447H770.304C769.464 31.447 769.044 31.507 769.224 31.507C770.004 31.567 769.764 31.687 768.924 31.687C768.264 31.687 768.144 31.687 768.264 31.567C768.384 31.447 768.384 31.447 768.024 31.507C767.784 31.567 767.664 31.687 767.724 31.687C767.724 31.687 767.784 31.747 767.724 31.747C768.084 31.747 768.444 31.687 768.804 31.687H771.024C771.804 31.687 772.464 31.627 773.244 31.627H776.304H777.144C777.324 31.627 777.504 31.567 777.564 31.567H778.044H778.224H778.164H778.644C778.524 31.567 778.284 31.447 778.104 31.447C777.324 31.327 776.844 31.327 775.584 31.447C775.224 31.447 775.164 31.507 775.404 31.447C775.704 31.387 775.704 31.327 775.404 31.327C775.284 31.327 776.004 31.267 777.204 31.267H778.524C780.564 31.267 782.124 31.327 782.304 31.327C782.484 31.387 782.424 31.387 782.064 31.387C781.764 31.387 780.984 31.327 780.264 31.327C779.004 31.327 779.004 31.327 779.124 31.447L779.184 31.507H780.804H783.024H784.944H785.424C785.184 31.447 784.764 31.447 784.584 31.447H784.044C783.984 31.447 785.664 31.327 788.604 31.327C788.964 31.327 789.264 31.267 789.564 31.267C789.444 31.267 789.384 31.207 789.264 31.207C789.324 31.207 789.264 31.147 789.144 31.147C789.024 31.147 788.844 31.147 788.844 31.207C788.844 31.267 788.724 31.267 788.544 31.207C788.364 31.147 787.944 31.147 787.044 31.147H785.784C785.784 31.147 784.524 31.087 782.904 31.087ZM789.564 31.267C791.784 31.627 791.964 31.147 789.564 31.267V31.267ZM774.324 31.327H774.684C774.864 31.327 774.684 31.327 774.324 31.327C773.964 31.327 773.844 31.327 774.024 31.327H774.324ZM767.844 31.327H767.604C767.544 31.327 767.604 31.387 767.844 31.387H767.964C768.264 31.387 768.264 31.327 768.084 31.327H767.964H767.844ZM781.224 31.447H781.644C781.884 31.447 781.704 31.507 781.284 31.507C780.864 31.507 780.624 31.447 780.804 31.447H781.224ZM758.004 31.627H758.184C758.424 31.627 758.304 31.687 757.884 31.687C757.464 31.687 757.224 31.627 757.404 31.627H757.764H758.004ZM764.004 31.627H763.464H763.104C762.444 31.627 762.384 31.747 762.624 31.747H763.284C763.524 31.747 763.764 31.747 764.124 31.687C764.424 31.687 764.424 31.627 764.004 31.627ZM760.044 31.687C760.224 31.687 760.344 31.747 760.344 31.747C760.284 31.747 759.504 31.867 758.664 31.867C757.824 31.867 757.224 31.867 757.284 31.867C757.344 31.867 758.124 31.747 758.964 31.747C759.024 31.747 759.084 31.687 759.144 31.687H760.044ZM745.584 31.687H745.644C745.704 31.687 745.704 31.747 745.644 31.747C745.404 31.807 744.324 31.987 743.124 31.987C743.364 31.927 745.044 31.687 745.584 31.687ZM754.704 31.927H755.064C755.064 31.927 754.644 32.047 753.984 32.047V31.987C754.044 31.987 754.104 31.927 754.164 31.927H754.704ZM743.064 32.587C743.184 32.587 743.424 32.647 743.544 32.647C742.884 32.707 742.824 32.707 743.064 32.587ZM751.464 33.127C751.464 33.127 751.404 33.187 751.344 33.187C751.344 33.187 749.664 36.667 749.604 37.327C749.544 38.047 752.064 33.067 751.464 33.127ZM749.364 37.747C747.624 40.387 746.244 46.327 744.384 49.447C744.504 50.047 743.244 54.967 742.884 54.187C742.704 53.587 743.964 50.467 744.264 49.687L744.204 49.747C743.964 50.227 746.004 44.467 745.764 44.827C740.544 56.767 740.844 62.047 741.264 62.347C741.024 61.147 741.984 55.207 742.284 55.627C742.164 55.807 741.264 63.787 741.864 62.767C741.864 62.707 742.044 62.707 742.164 62.227C741.744 62.827 742.404 59.767 742.164 59.827C741.924 59.887 742.104 58.927 742.524 57.427C742.464 57.427 742.464 57.367 742.404 57.307C742.164 56.647 743.064 54.547 743.064 54.547C743.124 54.607 743.244 54.727 743.244 54.967C745.164 48.667 748.884 38.467 749.364 37.747ZM741.984 63.547C741.864 65.047 742.284 65.707 742.344 65.707C742.404 65.707 742.284 64.987 741.984 63.547ZM748.764 65.767C748.704 65.767 748.524 66.007 748.524 66.007C748.524 66.007 747.384 67.207 747.084 67.207H747.024H747.084C747.144 67.207 747.264 67.327 747.504 67.267C747.804 67.267 748.284 66.847 748.704 66.187C748.824 65.947 748.764 65.767 748.764 65.767ZM775.703 14.107C776.663 14.107 777.623 14.887 778.163 15.967C781.583 22.747 765.263 45.727 756.803 50.527C756.023 51.607 754.283 59.947 755.843 58.807C756.983 57.907 760.223 54.367 762.503 52.627C764.723 51.007 768.623 51.727 768.383 54.127V54.247C768.383 55.687 767.903 58.087 768.803 58.147C770.123 58.207 771.323 57.067 776.483 53.827C776.543 53.827 776.663 53.767 776.663 53.707C776.663 53.647 776.843 53.407 777.083 53.227C777.383 52.987 777.743 52.687 777.743 52.747C777.743 52.747 777.683 52.927 777.623 52.987C777.563 53.047 777.383 53.167 777.203 53.347C777.143 53.407 777.023 53.587 776.903 53.647C776.483 54.007 776.303 54.127 776.183 54.127C776.123 54.127 776.003 54.187 775.943 54.307C775.823 54.487 775.763 54.487 776.003 54.427C776.183 54.367 776.183 54.367 776.003 54.547C775.883 54.667 776.063 54.547 776.363 54.367C776.783 54.067 776.783 54.127 775.703 54.967C774.923 55.627 774.083 56.347 776.423 54.547C776.843 54.247 777.263 53.827 777.443 53.707C778.043 53.287 778.043 53.227 777.443 53.707C777.323 53.827 777.143 53.947 776.963 54.127C776.243 54.727 775.583 55.327 775.583 55.387C775.583 55.447 775.943 55.147 777.563 53.827C778.943 52.627 780.143 51.727 781.523 50.527L781.643 50.467C781.883 50.287 782.303 49.927 782.603 49.687C782.963 49.387 783.143 49.207 783.323 49.027H783.443V48.967H783.503L783.563 48.907L783.683 48.847C783.863 48.727 783.563 48.907 783.743 48.787L783.863 48.667L783.983 48.607L784.103 48.487H784.163V48.427H784.223H784.283H784.343C784.343 48.427 784.283 48.367 784.343 48.367H784.403H784.463L784.523 48.307V48.247H784.583H784.643V48.187H784.703L784.763 48.127L784.823 48.067H784.883V48.007H785.003H784.943L784.883 48.067V48.127H784.823L784.763 48.187H784.703V48.247H784.643L784.583 48.307L784.523 48.367H784.463L784.403 48.427H784.343V48.487H784.283V48.547H784.223V48.607H784.163L784.103 48.667H784.043L783.983 48.727H783.923V48.787H783.863L783.803 48.847L783.743 48.907H783.683V48.967H783.623L783.563 49.027L783.503 49.087H783.443V49.207C783.323 49.267 783.143 49.507 782.903 49.687C782.603 49.927 782.123 50.347 781.763 50.647C781.583 50.827 781.283 50.947 781.163 51.067C780.563 51.547 780.443 51.667 780.623 51.607C780.803 51.547 780.383 51.907 779.603 52.507C778.883 53.047 778.163 53.647 778.043 53.827C777.863 54.007 778.463 53.647 779.843 52.447C780.623 51.787 781.283 51.247 781.823 50.827C782.783 50.047 783.383 49.447 783.563 49.207H783.623H783.563H783.623V49.147H783.683C783.623 49.207 783.803 49.027 783.743 49.087L783.803 49.027L783.863 48.967H783.923V48.907H783.983H784.043V48.847H784.103V48.787H784.163L784.223 48.727H784.283V48.667H784.343V48.607H784.403L784.463 48.547H784.523V48.487V48.547C784.463 48.547 784.343 48.667 784.343 48.667C784.283 48.727 784.283 48.727 784.223 48.847L784.163 48.907L784.043 48.967C783.983 49.027 783.863 49.207 783.863 49.267V49.327C783.683 49.447 783.443 49.627 783.443 49.687C783.443 49.747 783.323 49.807 783.263 49.807C783.143 49.807 783.083 49.867 782.783 50.167C782.603 50.407 782.243 50.767 782.003 50.887L781.943 50.947C781.583 51.187 781.523 51.247 781.823 51.247C781.943 51.247 781.943 51.307 781.763 51.427C781.643 51.487 781.583 51.547 781.643 51.547C781.703 51.547 781.583 51.727 781.283 51.967C780.923 52.267 779.783 53.167 778.463 54.367L778.103 54.667C776.963 55.687 776.123 56.347 776.003 56.467C775.883 56.527 775.883 56.587 775.943 56.587C776.003 56.587 777.023 55.807 778.223 54.847C779.123 54.127 780.143 53.347 780.983 52.627C781.643 52.087 782.183 51.667 782.183 51.667C782.183 51.667 781.883 51.967 781.403 52.327C780.863 52.747 780.623 52.927 780.743 52.927C780.863 52.927 781.283 52.627 781.643 52.327C782.003 52.027 782.303 51.787 782.303 51.847C782.243 52.027 781.043 53.047 780.863 53.047C780.743 53.047 780.683 53.167 780.683 53.227C780.683 53.347 780.683 53.407 780.503 53.407C780.323 53.407 780.323 53.467 780.383 53.467C780.443 53.467 780.323 53.647 779.783 54.067C779.303 54.487 779.123 54.547 779.243 54.427C779.363 54.307 779.123 54.427 778.583 54.847C778.523 54.907 778.403 54.967 778.343 55.027C777.983 55.327 777.923 55.387 778.103 55.327C778.283 55.207 778.223 55.327 777.743 55.747C777.563 55.927 777.263 56.107 777.083 56.287C777.263 56.167 777.563 55.987 777.743 55.867C777.863 55.807 778.103 55.567 778.463 55.267C779.543 54.427 781.103 53.167 782.603 51.907C782.783 51.727 783.683 51.067 783.863 50.887L783.803 50.947L783.743 51.007L783.683 51.067L783.563 51.187L783.443 51.307C783.263 51.547 783.503 51.247 783.263 51.487C783.203 51.547 783.203 51.547 783.203 51.607L782.963 51.847C782.903 51.907 782.723 51.967 782.663 52.027L782.603 52.087C782.543 52.147 782.423 52.207 782.363 52.267C782.243 52.387 782.183 52.567 782.183 52.687C782.063 52.807 781.883 52.927 781.763 53.047C781.703 53.107 781.523 53.227 781.463 53.287C781.403 53.347 781.283 53.407 781.223 53.467C781.163 53.527 781.103 53.587 781.103 53.647C780.323 54.307 779.423 55.027 778.703 55.627C778.343 55.927 777.923 56.287 777.623 56.527L777.563 56.587L777.443 56.647H777.503H777.443L777.383 56.707V56.647H777.443L777.323 56.707L777.263 56.767L777.143 56.827C777.083 56.887 777.023 57.007 777.023 57.067C773.843 59.587 770.783 61.207 768.563 60.727C765.503 60.067 765.503 57.607 765.623 54.367C764.063 53.947 758.723 61.447 756.563 61.987C754.583 62.347 751.883 59.767 752.303 56.167C753.683 45.007 758.423 31.687 768.623 18.967C770.003 17.347 773.483 14.047 775.703 14.107ZM775.763 15.787C775.643 15.787 775.403 15.847 775.163 15.967C770.483 18.547 759.503 37.567 757.823 46.567C761.303 44.767 767.543 36.847 771.743 29.407C773.963 25.567 775.703 21.727 776.243 19.087C776.363 18.367 776.843 15.787 775.763 15.787ZM771.743 18.067C764.903 26.347 762.683 31.267 761.183 35.227C761.723 34.267 762.743 32.827 762.923 31.807C767.723 22.567 770.183 21.127 771.743 18.067ZM777.023 19.927C775.643 24.067 773.543 28.387 771.503 31.387C771.023 32.047 772.283 31.267 774.383 26.947C775.043 25.567 776.003 23.407 777.023 19.927ZM762.803 30.127C762.803 30.127 761.243 32.347 760.523 33.967C757.823 39.187 755.903 46.747 755.783 47.347C755.543 48.547 755.903 48.127 756.263 46.267C756.323 44.947 759.383 36.847 761.603 32.887C762.323 31.207 762.803 30.127 762.803 30.127ZM770.843 32.467C768.983 35.707 761.423 45.487 758.963 46.507C758.243 48.427 765.803 40.567 769.043 35.827C769.823 34.627 770.483 33.307 770.843 32.467ZM761.003 35.407C761.003 35.407 759.083 39.247 758.843 39.907C757.163 45.487 757.463 43.567 756.863 47.287C757.523 44.947 761.063 35.527 761.003 35.407ZM758.483 36.787C756.743 41.407 755.483 45.247 754.283 48.967C754.283 48.967 755.063 48.667 755.063 47.887C755.063 47.107 758.483 36.787 758.483 36.787ZM785.303 47.947L785.183 48.007L785.303 47.947ZM783.923 48.787H783.863H783.923ZM785.603 48.847H785.543L785.483 48.907C785.483 48.907 785.423 49.027 785.363 49.027C785.363 49.087 785.423 49.027 785.543 48.967C785.603 48.907 785.603 48.847 785.603 48.847ZM783.563 49.027L783.503 49.087L783.563 49.027ZM784.703 49.327C784.643 49.327 784.523 49.447 784.343 49.567C784.103 49.747 783.923 49.927 783.923 49.987C783.923 50.047 784.043 49.927 784.283 49.747C784.523 49.567 784.703 49.447 784.703 49.387V49.327ZM785.183 49.387H785.123C785.063 49.387 784.943 49.507 784.883 49.567C784.823 49.627 784.703 49.627 784.703 49.687C784.643 49.747 784.823 49.747 785.003 49.567C785.183 49.447 785.183 49.387 785.183 49.387ZM782.663 49.447H782.603C782.543 49.507 782.363 49.627 782.243 49.687C782.123 49.747 782.063 49.807 782.003 49.867C781.883 49.987 782.063 49.927 782.363 49.687C782.483 49.567 782.603 49.507 782.663 49.447ZM784.043 49.627L783.503 49.987C782.903 50.407 782.783 50.587 782.903 50.587C783.023 50.587 782.903 50.647 782.603 50.887C782.183 51.187 782.183 51.187 782.423 50.947C782.483 50.887 782.603 50.707 782.663 50.647C782.543 50.707 782.423 50.827 782.303 50.887C782.003 51.067 782.123 50.947 782.483 50.707C782.843 50.467 783.323 50.047 783.743 49.807C783.863 49.747 783.983 49.687 784.043 49.627ZM781.223 49.927C781.223 49.927 781.163 49.927 781.103 49.987C780.923 50.167 780.683 50.467 780.563 50.527C780.443 50.587 780.203 50.827 780.083 50.947C779.903 51.187 779.963 51.187 780.263 50.887C780.503 50.647 780.683 50.527 780.683 50.587C780.683 50.587 780.263 51.007 779.783 51.427C779.303 51.847 778.703 52.207 778.643 52.207C778.583 52.207 778.763 52.087 779.003 51.907C779.243 51.727 779.363 51.487 779.303 51.487C779.243 51.487 779.423 51.247 779.903 50.887H780.023L780.083 50.827C780.323 50.707 780.503 50.527 780.623 50.347C780.983 50.107 781.223 49.927 781.223 49.927ZM784.343 50.107L784.283 50.167C784.283 50.167 784.223 50.227 784.163 50.227C784.103 50.227 784.043 50.347 784.043 50.347C783.983 50.407 784.043 50.407 784.163 50.287C784.283 50.227 784.343 50.107 784.343 50.107ZM783.683 50.287L783.323 50.527L783.263 50.587L783.143 50.707C782.723 51.067 782.543 51.307 782.723 51.247C782.783 51.247 783.023 51.067 783.203 50.947C783.383 50.767 783.443 50.767 783.323 50.767C783.203 50.767 783.203 50.767 783.443 50.527L783.683 50.287ZM783.503 50.887H783.443C783.383 50.887 783.323 50.947 783.263 51.007C783.203 51.067 783.143 51.067 783.143 51.127C783.083 51.187 783.143 51.187 783.323 51.067L783.503 50.887ZM755.543 50.947C755.543 50.947 754.763 53.947 754.643 55.267C754.523 56.587 755.543 50.947 755.543 50.947ZM780.443 51.067L780.383 51.127C780.323 51.127 780.203 51.187 780.143 51.247C780.083 51.307 779.963 51.367 779.963 51.427C779.903 51.487 780.023 51.487 780.203 51.307C780.383 51.187 780.443 51.067 780.443 51.067ZM781.343 51.427C781.343 51.427 781.223 51.427 781.163 51.487C781.043 51.547 781.043 51.727 781.043 51.727C781.043 51.727 780.623 52.207 779.843 52.807C779.123 53.347 778.643 53.827 778.643 53.827C778.703 53.827 779.483 53.227 780.143 52.687C780.383 52.507 780.563 52.327 780.743 52.207C781.163 51.847 781.403 51.607 781.403 51.487C781.403 51.427 781.343 51.427 781.343 51.427ZM754.523 51.667C754.523 51.667 754.403 51.727 754.403 51.847C754.163 52.087 753.623 55.687 753.623 56.587C753.683 58.507 754.403 59.527 753.923 58.327C753.623 56.347 754.583 51.667 754.523 51.667ZM753.803 52.027C753.263 52.087 752.963 56.167 752.963 56.167C752.963 57.427 753.083 58.027 753.203 58.387C753.203 58.867 753.323 59.107 753.383 58.927C753.383 58.807 753.323 58.687 753.203 58.387C753.143 56.707 753.323 52.087 753.863 52.027H753.803ZM778.403 52.207C778.343 52.267 778.283 52.267 778.223 52.327L778.103 52.387L778.043 52.507L778.223 52.327C778.343 52.267 778.403 52.207 778.403 52.207ZM779.363 52.267C779.243 52.267 779.063 52.387 778.943 52.387C778.703 52.447 778.523 52.567 778.463 52.627H778.583C778.703 52.627 778.703 52.627 778.643 52.747C778.583 52.807 778.763 52.747 778.943 52.567C779.063 52.447 779.243 52.387 779.363 52.267ZM777.443 53.527H777.383L777.263 53.587L777.203 53.707C777.203 53.767 777.263 53.707 777.323 53.647L777.383 53.587C777.443 53.587 777.443 53.527 777.443 53.527ZM781.103 53.647V53.707C781.043 53.767 780.863 53.827 780.803 53.887C780.743 53.947 780.623 54.007 780.563 54.067C780.503 54.127 780.563 54.187 780.623 54.127L780.683 54.007H780.743L780.803 53.947L780.863 53.887C780.923 53.827 781.043 53.707 781.103 53.707V53.647ZM779.963 53.767C779.963 53.767 779.903 53.827 779.783 53.887C779.603 54.007 779.543 54.067 779.603 54.007L779.723 53.887C779.783 53.827 779.843 53.767 779.903 53.767H779.963ZM777.683 54.427L777.623 54.487C777.563 54.547 777.443 54.667 777.443 54.607L777.563 54.487L777.683 54.427ZM777.863 54.547C777.803 54.547 777.203 54.967 776.543 55.507C775.823 56.047 775.343 56.467 775.343 56.467C775.403 56.467 776.363 55.747 777.083 55.147C777.503 54.787 777.863 54.547 777.863 54.547ZM776.603 55.027C776.603 55.027 776.603 55.087 776.543 55.147C776.423 55.207 776.363 55.267 776.363 55.207L776.423 55.147L776.603 55.087V55.027ZM775.163 55.807L775.043 55.927C774.983 55.987 774.863 55.987 774.863 55.987C774.863 55.987 774.863 55.867 774.923 55.867L774.983 55.807H775.163ZM774.323 56.107L774.203 56.227C774.083 56.287 774.023 56.347 774.143 56.227L774.263 56.107H774.323ZM774.443 56.527C774.443 56.527 774.443 56.587 774.383 56.587C774.323 56.647 774.203 56.767 774.083 56.827C773.963 56.887 773.843 57.007 773.783 57.067C773.663 57.187 773.783 57.067 774.143 56.827C774.383 56.647 774.443 56.527 774.443 56.527ZM777.563 56.587H777.503V56.647L777.563 56.587ZM773.963 56.767C773.963 56.767 773.783 56.887 773.543 57.007C773.483 57.007 773.423 57.067 773.363 57.127C773.303 57.187 773.123 57.247 773.063 57.307C772.943 57.427 772.823 57.487 772.763 57.547C772.643 57.667 772.823 57.547 773.303 57.187H773.363C773.723 56.887 773.963 56.767 773.963 56.767ZM777.263 56.767H777.323H777.263ZM772.283 58.027C772.283 58.027 772.163 58.207 771.863 58.387C771.503 58.627 771.443 58.687 771.563 58.567C771.623 58.507 771.743 58.387 771.863 58.327C771.983 58.267 772.163 58.147 772.223 58.087L772.283 58.027ZM806.989 42.967C809.389 42.967 811.369 43.987 811.489 46.447C811.489 46.627 811.429 46.867 811.369 46.987C812.329 47.047 813.109 47.887 812.929 48.907C812.749 50.047 809.509 57.667 810.469 57.247C813.889 55.687 815.749 53.767 818.989 51.727C819.529 51.427 817.429 53.347 817.609 53.047C815.209 54.667 822.109 50.167 822.649 49.627C823.549 48.907 826.609 46.927 826.609 46.927C826.129 47.167 825.349 47.827 824.029 48.847C823.669 49.147 822.469 50.107 821.149 51.307C820.429 52.087 823.129 50.227 823.909 49.447C824.509 48.847 825.769 47.887 825.769 47.887C823.909 50.047 822.949 50.287 821.269 51.847C821.029 52.027 820.729 52.207 820.729 52.327C820.909 52.207 820.909 52.327 820.429 52.747C820.249 52.927 819.949 53.107 819.769 53.287C819.949 53.167 820.249 52.927 820.429 52.807C820.549 52.747 820.789 52.507 821.149 52.207C822.229 51.367 823.789 50.167 825.289 48.907C825.889 48.367 826.309 48.007 826.489 47.827C826.249 48.067 827.089 47.347 825.649 48.787C825.589 48.847 825.409 48.967 825.349 49.027L825.289 49.087C825.229 49.147 825.109 49.207 825.049 49.267C824.929 49.387 824.869 49.567 824.869 49.687C824.749 49.807 824.569 49.927 824.449 50.047C824.389 50.107 824.209 50.227 824.149 50.287C824.089 50.347 823.969 50.407 823.909 50.467C823.849 50.527 823.789 50.587 823.789 50.647C823.009 51.307 822.109 51.967 821.389 52.567C818.209 55.207 815.509 58.027 811.789 59.467C809.989 60.187 806.989 58.807 807.169 56.107C807.289 54.427 808.069 52.507 808.609 50.647C807.409 51.127 802.849 59.047 798.289 55.927C795.949 54.307 796.849 49.327 800.149 45.787C801.829 44.047 804.589 42.967 806.989 42.967ZM807.709 45.787C803.149 45.727 798.529 54.187 800.509 53.827C803.569 52.567 806.449 48.127 810.529 47.107C810.409 47.047 810.229 46.927 810.169 46.807C809.389 46.087 808.549 45.787 807.709 45.787ZM808.309 48.907C805.789 50.287 803.329 53.467 800.989 54.427C802.849 54.007 806.029 50.947 808.309 48.907ZM811.669 48.967C810.529 51.067 809.209 54.247 809.449 56.647C809.449 56.047 809.749 54.727 810.109 53.467C810.589 51.847 811.909 48.907 811.669 48.967ZM823.789 50.647V50.707C823.729 50.767 823.549 50.827 823.489 50.887C823.429 50.947 823.309 51.007 823.249 51.067C823.189 51.127 823.249 51.127 823.309 51.067L823.369 51.007L823.429 50.947H823.489L823.549 50.887C823.609 50.827 823.729 50.707 823.789 50.707V50.647ZM820.549 51.487C820.489 51.487 819.829 51.907 819.169 52.447L816.289 54.607C816.349 54.607 819.049 52.747 819.769 52.147C820.189 51.787 820.549 51.487 820.549 51.487Z" fill="white"/>
</svg>
