<svg width="35" height="35" viewBox="0 0 35 35" fill="none" xmlns="http://www.w3.org/2000/svg">
<circle cx="17.6524" cy="17.7118" r="17.0685" fill="white"/>
<path d="M17.1243 20.689C17.4962 20.689 17.8527 20.5413 18.1157 20.2784C18.3786 20.0155 18.5263 19.6589 18.5263 19.2871C18.5263 18.9152 18.3786 18.5587 18.1157 18.2957C17.8527 18.0328 17.4962 17.8851 17.1243 17.8851C16.7525 17.8851 16.3959 18.0328 16.133 18.2957C15.8701 18.5587 15.7224 18.9152 15.7224 19.2871C15.7224 19.6589 15.8701 20.0155 16.133 20.2784C16.3959 20.5413 16.7525 20.689 17.1243 20.689ZM21.3302 14.3803C21.702 14.3803 22.0586 14.528 22.3215 14.7909C22.5844 15.0538 22.7321 15.4104 22.7321 15.7822V22.7919C22.7321 23.1637 22.5844 23.5203 22.3215 23.7832C22.0586 24.0461 21.702 24.1938 21.3302 24.1938H12.9185C12.5467 24.1938 12.1901 24.0461 11.9272 23.7832C11.6643 23.5203 11.5166 23.1637 11.5166 22.7919V15.7822C11.5166 15.4104 11.6643 15.0538 11.9272 14.7909C12.1901 14.528 12.5467 14.3803 12.9185 14.3803H13.6195V12.9783C13.6195 12.0488 13.9888 11.1573 14.646 10.5001C15.3033 9.84277 16.1948 9.47351 17.1243 9.47351C17.5846 9.47351 18.0404 9.56417 18.4656 9.7403C18.8908 9.91644 19.2772 10.1746 19.6026 10.5001C19.9281 10.8255 20.1863 11.2119 20.3624 11.6371C20.5385 12.0623 20.6292 12.5181 20.6292 12.9783V14.3803H21.3302ZM17.1243 10.8754C16.5666 10.8754 16.0317 11.097 15.6374 11.4914C15.243 11.8857 15.0214 12.4206 15.0214 12.9783V14.3803H19.2272V12.9783C19.2272 12.4206 19.0057 11.8857 18.6113 11.4914C18.217 11.097 17.6821 10.8754 17.1243 10.8754Z" fill="#23A323"/>
</svg>
