<svg width="1374" height="41" viewBox="0 0 1374 41" fill="none" xmlns="http://www.w3.org/2000/svg">
<path d="M10.9931 25.63L11.0274 25.4587C12.1918 25.5044 13.2649 25.63 14.2467 25.8354C15.2284 26.0181 16.0732 26.3149 16.781 26.7259C17.5116 27.1368 18.071 27.6962 18.4591 28.404C18.8701 29.1118 19.0756 30.0022 19.0756 31.0753C19.0756 32.3082 18.7103 33.4156 17.9796 34.3973C17.2719 35.3791 16.2673 36.1554 14.9659 36.7262C13.6645 37.297 12.1347 37.5823 10.3767 37.5823C8.68714 37.5823 7.19167 37.2741 5.89026 36.6577C4.58885 36.064 3.58426 35.2535 2.87647 34.2261C2.19152 33.1987 1.89471 32.0342 1.98604 30.7328H5.58203C5.60486 31.4178 5.79893 32.0228 6.16424 32.548C6.55238 33.0731 7.10034 33.4841 7.80812 33.7809C8.53874 34.0777 9.39492 34.2261 10.3767 34.2261C11.8836 34.2261 13.0366 33.9064 13.8357 33.2672C14.6576 32.6507 15.0686 31.7717 15.0686 30.6301C15.0686 29.4885 14.6006 28.6437 13.6645 28.0958C12.7512 27.525 11.4612 27.2396 9.79448 27.2396H7.22591V24.1573H9.79448C10.9361 24.1573 11.8722 24.0546 12.6028 23.8491C13.3334 23.6208 13.8699 23.2783 14.2124 22.8217C14.5549 22.3422 14.7261 21.76 14.7261 21.075C14.7261 20.0933 14.3722 19.317 13.6645 18.7462C12.9795 18.1754 11.8836 17.89 10.3767 17.89C8.98395 17.89 7.88803 18.1868 7.08892 18.7804C6.28981 19.3741 5.87884 20.1618 5.85601 21.1435H2.22577C2.15728 20.1389 2.3171 19.2371 2.70524 18.438C3.11621 17.6389 3.69842 16.9539 4.45186 16.3831C5.22814 15.7895 6.11858 15.3329 7.12317 15.0132C8.1506 14.6936 9.2351 14.5338 10.3767 14.5338C12.0891 14.5338 13.5617 14.7963 14.7946 15.3214C16.0504 15.8237 17.0093 16.5315 17.6714 17.4448C18.3335 18.3581 18.6646 19.4083 18.6646 20.5956C18.6646 21.5773 18.4705 22.3879 18.0824 23.0271C17.7171 23.6664 17.1805 24.1801 16.4727 24.5683C15.7878 24.9336 14.9773 25.1962 14.0412 25.356C13.1279 25.5158 12.1119 25.6071 10.9931 25.63ZM30.3339 14.9447H34.1354V32H30.3339V14.9447ZM41.3274 14.568C42.3091 14.568 43.211 14.705 44.0329 14.979C44.8777 15.253 45.5969 15.6753 46.1905 16.2461C46.807 16.7941 47.275 17.479 47.5947 18.301C47.9371 19.1229 48.1084 20.0933 48.1084 21.212V32H44.3069V21.9655C44.3069 20.5727 43.9644 19.5453 43.2795 18.8832C42.6174 18.1982 41.5671 17.8558 40.1287 17.8558C39.0328 17.8558 38.0282 18.0955 37.1149 18.575C36.2245 19.0316 35.4939 19.6366 34.9231 20.3901C34.3523 21.1207 34.0212 21.9312 33.9299 22.8217L33.8957 20.9723C34.0098 20.1275 34.261 19.3284 34.6491 18.575C35.0372 17.7987 35.551 17.1137 36.1902 16.5201C36.8295 15.9037 37.583 15.4242 38.4506 15.0817C39.3182 14.7392 40.2771 14.568 41.3274 14.568ZM54.9236 14.568C55.9282 14.568 56.8415 14.705 57.6634 14.979C58.4854 15.253 59.1932 15.6753 59.7868 16.2461C60.4033 16.7941 60.8827 17.479 61.2252 18.301C61.5677 19.1229 61.7389 20.0933 61.7389 21.212V32H57.9032V21.9655C57.9032 20.5727 57.5607 19.5453 56.8758 18.8832C56.2136 18.1982 55.1634 17.8558 53.725 17.8558C52.6291 17.8558 51.6245 18.0955 50.7112 18.575C49.8208 19.0316 49.0901 19.6366 48.5194 20.3901C47.9714 21.1207 47.6517 21.9312 47.5604 22.8217L47.4919 20.9038C47.6061 20.0819 47.8687 19.2942 48.2796 18.5407C48.6906 17.7644 49.2157 17.0795 49.855 16.4859C50.4943 15.8922 51.2363 15.4242 52.0811 15.0817C52.9487 14.7392 53.8962 14.568 54.9236 14.568ZM70.3714 7.71849V11.383H65.8165V7.71849H70.3714ZM66.159 14.9447H69.9947V32H66.159V14.9447ZM74.8905 8.09521H78.692V32H74.8905V8.09521ZM83.6531 8.09521H87.4545V32H83.6531V8.09521ZM96.5253 7.71849V11.383H91.9704V7.71849H96.5253ZM92.3129 14.9447H96.1486V32H92.3129V14.9447ZM109.778 32.3767C107.882 32.3767 106.182 32.0342 104.675 31.3493C103.168 30.6643 101.98 29.6598 101.113 28.3355C100.245 27.0113 99.8115 25.4016 99.8115 23.5066C99.8115 21.6344 100.245 20.0362 101.113 18.712C101.98 17.3649 103.168 16.3375 104.675 15.6297C106.182 14.9219 107.882 14.568 109.778 14.568C111.673 14.568 113.362 14.9219 114.846 15.6297C116.33 16.3375 117.495 17.3649 118.339 18.712C119.207 20.0362 119.641 21.6344 119.641 23.5066C119.641 25.4016 119.207 27.0113 118.339 28.3355C117.495 29.6598 116.33 30.6643 114.846 31.3493C113.362 32.0342 111.673 32.3767 109.778 32.3767ZM109.778 29.2602C110.873 29.2602 111.878 29.0433 112.791 28.6095C113.705 28.1757 114.424 27.525 114.949 26.6574C115.497 25.7898 115.771 24.7395 115.771 23.5066C115.771 22.2737 115.497 21.2234 114.949 20.3558C114.424 19.4882 113.705 18.8261 112.791 18.3695C111.901 17.89 110.896 17.6503 109.778 17.6503C108.659 17.6503 107.643 17.8786 106.729 18.3352C105.816 18.7919 105.074 19.454 104.503 20.3216C103.955 21.1892 103.681 22.2509 103.681 23.5066C103.681 24.7395 103.955 25.7898 104.503 26.6574C105.051 27.525 105.782 28.1757 106.695 28.6095C107.631 29.0433 108.659 29.2602 109.778 29.2602ZM123.043 14.9447H126.845V32H123.043V14.9447ZM134.037 14.568C135.018 14.568 135.92 14.705 136.742 14.979C137.587 15.253 138.306 15.6753 138.9 16.2461C139.516 16.7941 139.984 17.479 140.304 18.301C140.646 19.1229 140.818 20.0933 140.818 21.212V32H137.016V21.9655C137.016 20.5727 136.674 19.5453 135.989 18.8832C135.327 18.1982 134.276 17.8558 132.838 17.8558C131.742 17.8558 130.737 18.0955 129.824 18.575C128.934 19.0316 128.203 19.6366 127.632 20.3901C127.061 21.1207 126.73 21.9312 126.639 22.8217L126.605 20.9723C126.719 20.1275 126.97 19.3284 127.358 18.575C127.746 17.7987 128.26 17.1137 128.899 16.5201C129.539 15.9037 130.292 15.4242 131.16 15.0817C132.027 14.7392 132.986 14.568 134.037 14.568ZM152.156 26.3834H155.683C155.866 27.251 156.334 27.9588 157.088 28.5068C157.841 29.0319 158.857 29.2944 160.136 29.2944C160.958 29.2944 161.597 29.2031 162.053 29.0205C162.533 28.8378 162.864 28.5867 163.047 28.267C163.252 27.9474 163.355 27.5821 163.355 27.1711C163.355 26.6688 163.206 26.2807 162.91 26.0067C162.636 25.7327 162.225 25.5044 161.677 25.3217C161.129 25.1391 160.444 24.9793 159.622 24.8423C158.777 24.6368 157.944 24.4085 157.122 24.1573C156.3 23.9062 155.558 23.5979 154.896 23.2326C154.234 22.8445 153.708 22.365 153.32 21.7942C152.955 21.2006 152.772 20.4814 152.772 19.6366C152.772 18.8604 152.944 18.164 153.286 17.5475C153.651 16.9082 154.154 16.3717 154.793 15.9379C155.432 15.5041 156.186 15.173 157.053 14.9447C157.921 14.6936 158.868 14.568 159.896 14.568C161.38 14.568 162.613 14.8077 163.595 15.2872C164.599 15.7667 165.353 16.4402 165.855 17.3078C166.38 18.1754 166.643 19.1686 166.643 20.2873H163.286C163.104 19.3741 162.75 18.712 162.225 18.301C161.7 17.89 160.912 17.6845 159.862 17.6845C158.811 17.6845 158.012 17.8672 157.464 18.2325C156.916 18.5978 156.642 19.1001 156.642 19.7394C156.642 20.2188 156.814 20.607 157.156 20.9038C157.521 21.1778 158.035 21.4175 158.697 21.623C159.359 21.8285 160.136 22.034 161.026 22.2394C161.848 22.4678 162.624 22.7075 163.355 22.9586C164.085 23.187 164.736 23.4838 165.307 23.8491C165.901 24.1916 166.369 24.6482 166.711 25.219C167.054 25.7898 167.225 26.4976 167.225 27.3423C167.225 28.3926 166.939 29.2944 166.369 30.0479C165.821 30.8013 165.022 31.3835 163.971 31.7945C162.921 32.1827 161.654 32.3767 160.17 32.3767C158.868 32.3767 157.738 32.2283 156.779 31.9315C155.843 31.6347 155.056 31.2466 154.416 30.7671C153.8 30.2876 153.32 29.7739 152.978 29.2259C152.635 28.678 152.396 28.1529 152.259 27.6506C152.144 27.1483 152.11 26.7259 152.156 26.3834ZM178.272 32.3767C176.719 32.3767 175.292 32 173.991 31.2466C172.712 30.4931 171.685 29.4543 170.908 28.13C170.155 26.783 169.778 25.2418 169.778 23.5066C169.778 21.7257 170.166 20.1732 170.943 18.8489C171.719 17.5019 172.769 16.4516 174.093 15.6982C175.418 14.9447 176.902 14.568 178.546 14.568C180.372 14.568 181.822 14.9676 182.895 15.7667C183.968 16.5658 184.733 17.6389 185.19 18.9859C185.646 20.333 185.874 21.8399 185.874 23.5066C185.874 24.4427 185.737 25.4359 185.464 26.4861C185.19 27.5136 184.756 28.4725 184.162 29.3629C183.591 30.2534 182.815 30.984 181.833 31.5548C180.874 32.1027 179.687 32.3767 178.272 32.3767ZM179.436 29.2259C180.715 29.2259 181.799 28.9862 182.689 28.5068C183.603 28.0045 184.288 27.3195 184.744 26.4519C185.224 25.5843 185.464 24.6025 185.464 23.5066C185.464 22.2965 185.224 21.2691 184.744 20.4243C184.265 19.5567 183.58 18.8946 182.689 18.438C181.799 17.9585 180.715 17.7188 179.436 17.7188C177.609 17.7188 176.194 18.2553 175.189 19.3284C174.185 20.4015 173.682 21.7942 173.682 23.5066C173.682 24.6254 173.922 25.6185 174.402 26.4861C174.904 27.3537 175.589 28.0273 176.456 28.5068C177.324 28.9862 178.317 29.2259 179.436 29.2259ZM185.464 14.9447H189.299V32H185.737C185.737 32 185.715 31.7831 185.669 31.3493C185.623 30.9155 185.578 30.3904 185.532 29.7739C185.486 29.1346 185.464 28.5296 185.464 27.9588V14.9447ZM193.82 8.09521H197.622V32H193.82V8.09521ZM216.488 26.3834H220.152C219.969 27.5478 219.513 28.5867 218.782 29.4999C218.074 30.3904 217.104 31.0981 215.871 31.6233C214.638 32.1256 213.166 32.3767 211.453 32.3767C209.512 32.3767 207.777 32.0228 206.247 31.315C204.718 30.5844 203.519 29.557 202.652 28.2328C201.784 26.9085 201.35 25.3331 201.35 23.5066C201.35 21.7029 201.772 20.1275 202.617 18.7804C203.462 17.4334 204.626 16.3945 206.111 15.6639C207.617 14.9333 209.353 14.568 211.316 14.568C213.348 14.568 215.038 14.9333 216.385 15.6639C217.755 16.3717 218.771 17.4448 219.433 18.8832C220.095 20.2988 220.369 22.091 220.255 24.2601H205.22C205.334 25.219 205.642 26.0866 206.145 26.8629C206.67 27.6163 207.378 28.2099 208.268 28.6437C209.159 29.0547 210.197 29.2602 211.385 29.2602C212.709 29.2602 213.816 28.9976 214.707 28.4725C215.62 27.9474 216.214 27.251 216.488 26.3834ZM211.213 17.6503C209.661 17.6503 208.382 18.0384 207.378 18.8147C206.373 19.5681 205.722 20.5385 205.426 21.7257H216.419C216.328 20.4472 215.814 19.454 214.878 18.7462C213.942 18.0156 212.72 17.6503 211.213 17.6503ZM222.892 26.3834H226.419C226.602 27.251 227.07 27.9588 227.823 28.5068C228.577 29.0319 229.593 29.2944 230.871 29.2944C231.693 29.2944 232.333 29.2031 232.789 29.0205C233.269 28.8378 233.6 28.5867 233.783 28.267C233.988 27.9474 234.091 27.5821 234.091 27.1711C234.091 26.6688 233.942 26.2807 233.646 26.0067C233.372 25.7327 232.961 25.5044 232.413 25.3217C231.865 25.1391 231.18 24.9793 230.358 24.8423C229.513 24.6368 228.68 24.4085 227.858 24.1573C227.036 23.9062 226.294 23.5979 225.632 23.2326C224.969 22.8445 224.444 22.365 224.056 21.7942C223.691 21.2006 223.508 20.4814 223.508 19.6366C223.508 18.8604 223.679 18.164 224.022 17.5475C224.387 16.9082 224.89 16.3717 225.529 15.9379C226.168 15.5041 226.922 15.173 227.789 14.9447C228.657 14.6936 229.604 14.568 230.632 14.568C232.116 14.568 233.349 14.8077 234.33 15.2872C235.335 15.7667 236.089 16.4402 236.591 17.3078C237.116 18.1754 237.378 19.1686 237.378 20.2873H234.022C233.84 19.3741 233.486 18.712 232.961 18.301C232.435 17.89 231.648 17.6845 230.597 17.6845C229.547 17.6845 228.748 17.8672 228.2 18.2325C227.652 18.5978 227.378 19.1001 227.378 19.7394C227.378 20.2188 227.549 20.607 227.892 20.9038C228.257 21.1778 228.771 21.4175 229.433 21.623C230.095 21.8285 230.871 22.034 231.762 22.2394C232.584 22.4678 233.36 22.7075 234.091 22.9586C234.821 23.187 235.472 23.4838 236.043 23.8491C236.636 24.1916 237.105 24.6482 237.447 25.219C237.789 25.7898 237.961 26.4976 237.961 27.3423C237.961 28.3926 237.675 29.2944 237.105 30.0479C236.557 30.8013 235.757 31.3835 234.707 31.7945C233.657 32.1827 232.39 32.3767 230.906 32.3767C229.604 32.3767 228.474 32.2283 227.515 31.9315C226.579 31.6347 225.791 31.2466 225.152 30.7671C224.536 30.2876 224.056 29.7739 223.714 29.2259C223.371 28.678 223.132 28.1529 222.995 27.6506C222.88 27.1483 222.846 26.7259 222.892 26.3834Z" fill="#9CA3AF"/>
<circle cx="276" cy="24.5" r="16" stroke="#9CA3AF"/>
<circle cx="276" cy="24.5" r="10.5" fill="#9CA3AF"/>
<path d="M382.843 25.63L382.877 25.4587C384.041 25.5044 385.114 25.63 386.096 25.8354C387.078 26.0181 387.923 26.3149 388.63 26.7259C389.361 27.1368 389.92 27.6962 390.309 28.404C390.72 29.1118 390.925 30.0022 390.925 31.0753C390.925 32.3082 390.56 33.4156 389.829 34.3973C389.121 35.3791 388.117 36.1554 386.815 36.7262C385.514 37.297 383.984 37.5823 382.226 37.5823C380.537 37.5823 379.041 37.2741 377.74 36.6577C376.438 36.064 375.434 35.2535 374.726 34.2261C374.041 33.1987 373.744 32.0342 373.835 30.7328H377.431C377.454 31.4178 377.648 32.0228 378.014 32.548C378.402 33.0731 378.95 33.4841 379.658 33.7809C380.388 34.0777 381.244 34.2261 382.226 34.2261C383.733 34.2261 384.886 33.9064 385.685 33.2672C386.507 32.6507 386.918 31.7717 386.918 30.6301C386.918 29.4885 386.45 28.6437 385.514 28.0958C384.601 27.525 383.311 27.2396 381.644 27.2396H379.075V24.1573H381.644C382.786 24.1573 383.722 24.0546 384.452 23.8491C385.183 23.6208 385.719 23.2783 386.062 22.8217C386.404 22.3422 386.576 21.76 386.576 21.075C386.576 20.0933 386.222 19.317 385.514 18.7462C384.829 18.1754 383.733 17.89 382.226 17.89C380.833 17.89 379.737 18.1868 378.938 18.7804C378.139 19.3741 377.728 20.1618 377.705 21.1435H374.075C374.007 20.1389 374.167 19.2371 374.555 18.438C374.966 17.6389 375.548 16.9539 376.301 16.3831C377.078 15.7895 377.968 15.3329 378.973 15.0132C380 14.6936 381.085 14.5338 382.226 14.5338C383.939 14.5338 385.411 14.7963 386.644 15.3214C387.9 15.8237 388.859 16.5315 389.521 17.4448C390.183 18.3581 390.514 19.4083 390.514 20.5956C390.514 21.5773 390.32 22.3879 389.932 23.0271C389.567 23.6664 389.03 24.1801 388.322 24.5683C387.637 24.9336 386.827 25.1962 385.891 25.356C384.977 25.5158 383.961 25.6071 382.843 25.63ZM403.914 32.3767C402.019 32.3767 400.318 32.0342 398.811 31.3493C397.304 30.6643 396.117 29.6598 395.249 28.3355C394.382 27.0113 393.948 25.4016 393.948 23.5066C393.948 21.6344 394.382 20.0362 395.249 18.712C396.117 17.3649 397.304 16.3375 398.811 15.6297C400.318 14.9219 402.019 14.568 403.914 14.568C405.809 14.568 407.499 14.9219 408.983 15.6297C410.467 16.3375 411.631 17.3649 412.476 18.712C413.343 20.0362 413.777 21.6344 413.777 23.5066C413.777 25.4016 413.343 27.0113 412.476 28.3355C411.631 29.6598 410.467 30.6643 408.983 31.3493C407.499 32.0342 405.809 32.3767 403.914 32.3767ZM403.914 29.2602C404.987 29.2602 405.98 29.0433 406.893 28.6095C407.807 28.1529 408.537 27.5022 409.085 26.6574C409.633 25.7898 409.907 24.7395 409.907 23.5066C409.907 22.2965 409.633 21.2577 409.085 20.3901C408.537 19.4996 407.807 18.8261 406.893 18.3695C406.003 17.9128 405.01 17.6845 403.914 17.6845C402.818 17.6845 401.802 17.9128 400.866 18.3695C399.953 18.8261 399.211 19.4882 398.64 20.3558C398.092 21.2234 397.818 22.2737 397.818 23.5066C397.818 24.7395 398.092 25.7898 398.64 26.6574C399.211 27.5022 399.953 28.1529 400.866 28.6095C401.802 29.0433 402.818 29.2602 403.914 29.2602ZM427.292 32.3767C425.397 32.3767 423.696 32.0342 422.189 31.3493C420.682 30.6643 419.495 29.6598 418.627 28.3355C417.76 27.0113 417.326 25.4016 417.326 23.5066C417.326 21.6344 417.76 20.0362 418.627 18.712C419.495 17.3649 420.682 16.3375 422.189 15.6297C423.696 14.9219 425.397 14.568 427.292 14.568C429.187 14.568 430.876 14.9219 432.361 15.6297C433.845 16.3375 435.009 17.3649 435.854 18.712C436.721 20.0362 437.155 21.6344 437.155 23.5066C437.155 25.4016 436.721 27.0113 435.854 28.3355C435.009 29.6598 433.845 30.6643 432.361 31.3493C430.876 32.0342 429.187 32.3767 427.292 32.3767ZM427.292 29.2602C428.365 29.2602 429.358 29.0433 430.271 28.6095C431.185 28.1529 431.915 27.5022 432.463 26.6574C433.011 25.7898 433.285 24.7395 433.285 23.5066C433.285 22.2965 433.011 21.2577 432.463 20.3901C431.915 19.4996 431.185 18.8261 430.271 18.3695C429.381 17.9128 428.388 17.6845 427.292 17.6845C426.196 17.6845 425.18 17.9128 424.244 18.3695C423.331 18.8261 422.589 19.4882 422.018 20.3558C421.47 21.2234 421.196 22.2737 421.196 23.5066C421.196 24.7395 421.47 25.7898 422.018 26.6574C422.589 27.5022 423.331 28.1529 424.244 28.6095C425.18 29.0433 426.196 29.2602 427.292 29.2602ZM448.939 14.9447H452.741V32H448.939V14.9447ZM459.933 14.568C460.915 14.568 461.816 14.705 462.638 14.979C463.483 15.253 464.202 15.6753 464.796 16.2461C465.412 16.7941 465.88 17.479 466.2 18.301C466.543 19.1229 466.714 20.0933 466.714 21.212V32H462.912V21.9655C462.912 20.5727 462.57 19.5453 461.885 18.8832C461.223 18.1982 460.172 17.8558 458.734 17.8558C457.638 17.8558 456.634 18.0955 455.72 18.575C454.83 19.0316 454.099 19.6366 453.528 20.3901C452.958 21.1207 452.627 21.9312 452.535 22.8217L452.501 20.9723C452.615 20.1275 452.866 19.3284 453.254 18.575C453.643 17.7987 454.156 17.1137 454.796 16.5201C455.435 15.9037 456.188 15.4242 457.056 15.0817C457.924 14.7392 458.882 14.568 459.933 14.568ZM473.529 14.568C474.534 14.568 475.447 14.705 476.269 14.979C477.091 15.253 477.799 15.6753 478.392 16.2461C479.009 16.7941 479.488 17.479 479.831 18.301C480.173 19.1229 480.344 20.0933 480.344 21.212V32H476.509V21.9655C476.509 20.5727 476.166 19.5453 475.481 18.8832C474.819 18.1982 473.769 17.8558 472.33 17.8558C471.234 17.8558 470.23 18.0955 469.317 18.575C468.426 19.0316 467.696 19.6366 467.125 20.3901C466.577 21.1207 466.257 21.9312 466.166 22.8217L466.097 20.9038C466.211 20.0819 466.474 19.2942 466.885 18.5407C467.296 17.7644 467.821 17.0795 468.46 16.4859C469.1 15.8922 469.842 15.4242 470.686 15.0817C471.554 14.7392 472.502 14.568 473.529 14.568ZM488.977 7.71849V11.383H484.422V7.71849H488.977ZM484.764 14.9447H488.6V32H484.764V14.9447ZM493.496 8.09521H497.297V32H493.496V8.09521ZM502.258 8.09521H506.06V32H502.258V8.09521ZM515.131 7.71849V11.383H510.576V7.71849H515.131ZM510.918 14.9447H514.754V32H510.918V14.9447ZM528.383 32.3767C526.488 32.3767 524.787 32.0342 523.28 31.3493C521.773 30.6643 520.586 29.6598 519.718 28.3355C518.851 27.0113 518.417 25.4016 518.417 23.5066C518.417 21.6344 518.851 20.0362 519.718 18.712C520.586 17.3649 521.773 16.3375 523.28 15.6297C524.787 14.9219 526.488 14.568 528.383 14.568C530.278 14.568 531.967 14.9219 533.452 15.6297C534.936 16.3375 536.1 17.3649 536.945 18.712C537.812 20.0362 538.246 21.6344 538.246 23.5066C538.246 25.4016 537.812 27.0113 536.945 28.3355C536.1 29.6598 534.936 30.6643 533.452 31.3493C531.967 32.0342 530.278 32.3767 528.383 32.3767ZM528.383 29.2602C529.479 29.2602 530.483 29.0433 531.397 28.6095C532.31 28.1757 533.029 27.525 533.554 26.6574C534.102 25.7898 534.376 24.7395 534.376 23.5066C534.376 22.2737 534.102 21.2234 533.554 20.3558C533.029 19.4882 532.31 18.8261 531.397 18.3695C530.506 17.89 529.502 17.6503 528.383 17.6503C527.264 17.6503 526.248 17.8786 525.335 18.3352C524.422 18.7919 523.68 19.454 523.109 20.3216C522.561 21.1892 522.287 22.2509 522.287 23.5066C522.287 24.7395 522.561 25.7898 523.109 26.6574C523.657 27.525 524.387 28.1757 525.301 28.6095C526.237 29.0433 527.264 29.2602 528.383 29.2602ZM541.648 14.9447H545.45V32H541.648V14.9447ZM552.642 14.568C553.624 14.568 554.526 14.705 555.347 14.979C556.192 15.253 556.911 15.6753 557.505 16.2461C558.122 16.7941 558.59 17.479 558.909 18.301C559.252 19.1229 559.423 20.0933 559.423 21.212V32H555.621V21.9655C555.621 20.5727 555.279 19.5453 554.594 18.8832C553.932 18.1982 552.882 17.8558 551.443 17.8558C550.347 17.8558 549.343 18.0955 548.429 18.575C547.539 19.0316 546.808 19.6366 546.238 20.3901C545.667 21.1207 545.336 21.9312 545.244 22.8217L545.21 20.9723C545.324 20.1275 545.576 19.3284 545.964 18.575C546.352 17.7987 546.865 17.1137 547.505 16.5201C548.144 15.9037 548.898 15.4242 549.765 15.0817C550.633 14.7392 551.592 14.568 552.642 14.568ZM563.211 21.2805H577.697V24.2258H563.211V21.2805ZM572.081 16.3831V29.1232H568.862V16.3831H572.081ZM600.4 32.3767C599.008 32.3767 597.82 32.1027 596.839 31.5548C595.88 31.0068 595.103 30.2876 594.51 29.3972C593.939 28.4839 593.517 27.5136 593.243 26.4861C592.969 25.4359 592.832 24.4427 592.832 23.5066C592.832 22.2509 592.957 21.0864 593.208 20.0134C593.482 18.9403 593.905 18.0042 594.476 17.2051C595.069 16.3831 595.845 15.7438 596.804 15.2872C597.786 14.8077 598.985 14.568 600.4 14.568C601.999 14.568 603.437 14.9561 604.716 15.7324C605.994 16.4859 607.01 17.5361 607.764 18.8832C608.517 20.2074 608.894 21.7486 608.894 23.5066C608.894 25.2646 608.506 26.8172 607.729 28.1643C606.976 29.4885 605.96 30.5274 604.681 31.2808C603.403 32.0114 601.976 32.3767 600.4 32.3767ZM599.27 29.2259C600.412 29.2259 601.416 28.9862 602.284 28.5068C603.152 28.0273 603.825 27.3537 604.305 26.4861C604.784 25.6185 605.024 24.6254 605.024 23.5066C605.024 21.7942 604.522 20.4015 603.517 19.3284C602.512 18.2325 601.097 17.6845 599.27 17.6845C598.129 17.6845 597.101 17.9243 596.188 18.4037C595.275 18.8832 594.555 19.5567 594.03 20.4243C593.505 21.2691 593.243 22.2965 593.243 23.5066C593.243 24.6025 593.482 25.5843 593.962 26.4519C594.441 27.3195 595.126 28.0045 596.017 28.5068C596.907 28.9862 597.992 29.2259 599.27 29.2259ZM589.441 14.9447H593.071L593.243 19.1229V38.8495H589.441V14.9447ZM612.284 14.9447H616.085V32H612.284V14.9447ZM622.25 18.1982C621.017 18.1982 619.955 18.4608 619.065 18.9859C618.197 19.5111 617.501 20.1503 616.976 20.9038C616.451 21.6572 616.085 22.3879 615.88 23.0956L615.846 21.1778C615.869 20.9266 615.948 20.5499 616.085 20.0476C616.222 19.5225 616.428 18.9517 616.702 18.3352C616.999 17.7188 617.387 17.1251 617.866 16.5544C618.369 15.9607 618.974 15.4813 619.681 15.116C620.412 14.7507 621.268 14.568 622.25 14.568V18.1982ZM634.202 32.3767C632.307 32.3767 630.606 32.0342 629.1 31.3493C627.593 30.6643 626.405 29.6598 625.538 28.3355C624.67 27.0113 624.236 25.4016 624.236 23.5066C624.236 21.6344 624.67 20.0362 625.538 18.712C626.405 17.3649 627.593 16.3375 629.1 15.6297C630.606 14.9219 632.307 14.568 634.202 14.568C636.097 14.568 637.787 14.9219 639.271 15.6297C640.755 16.3375 641.92 17.3649 642.764 18.712C643.632 20.0362 644.066 21.6344 644.066 23.5066C644.066 25.4016 643.632 27.0113 642.764 28.3355C641.92 29.6598 640.755 30.6643 639.271 31.3493C637.787 32.0342 636.097 32.3767 634.202 32.3767ZM634.202 29.2602C635.298 29.2602 636.303 29.0433 637.216 28.6095C638.129 28.1757 638.849 27.525 639.374 26.6574C639.922 25.7898 640.196 24.7395 640.196 23.5066C640.196 22.2737 639.922 21.2234 639.374 20.3558C638.849 19.4882 638.129 18.8261 637.216 18.3695C636.326 17.89 635.321 17.6503 634.202 17.6503C633.084 17.6503 632.068 17.8786 631.154 18.3352C630.241 18.7919 629.499 19.454 628.928 20.3216C628.38 21.1892 628.106 22.2509 628.106 23.5066C628.106 24.7395 628.38 25.7898 628.928 26.6574C629.476 27.525 630.207 28.1757 631.12 28.6095C632.056 29.0433 633.084 29.2602 634.202 29.2602ZM657.03 18.7804V15.6982H664.975V18.7804H657.03ZM661.721 15.6982H665.523V32H661.721V15.6982ZM649.529 32V13.9858L653.365 14.3283V32H649.529ZM655.831 8.09521H665.523V11.383H656.516C655.877 11.3601 655.317 11.4286 654.838 11.5885C654.381 11.7483 654.016 12.0451 653.742 12.4789C653.491 12.9127 653.365 13.5292 653.365 14.3283L649.529 13.9858C649.529 12.6159 649.78 11.4971 650.283 10.6295C650.785 9.76193 651.504 9.12264 652.44 8.71167C653.399 8.3007 654.529 8.09521 655.831 8.09521ZM646.002 15.6982H658.365V18.7804H646.002V15.6982ZM668.51 14.9447H680.565V18.0612H668.51V14.9447ZM672.62 10.3556H676.456V32H672.62V10.3556Z" fill="#9CA3AF"/>
<circle cx="718" cy="20.5" r="16" stroke="#9CA3AF"/>
<circle cx="718" cy="20.5" r="10.5" fill="#9CA3AF"/>
<path d="M815.585 18.301V14.9447H823.942V32H820.106V18.301H815.585ZM838.984 32.3767C837.089 32.3767 835.388 32.0342 833.881 31.3493C832.374 30.6643 831.187 29.6598 830.32 28.3355C829.452 27.0113 829.018 25.4016 829.018 23.5066C829.018 21.6344 829.452 20.0362 830.32 18.712C831.187 17.3649 832.374 16.3375 833.881 15.6297C835.388 14.9219 837.089 14.568 838.984 14.568C840.879 14.568 842.569 14.9219 844.053 15.6297C845.537 16.3375 846.701 17.3649 847.546 18.712C848.414 20.0362 848.848 21.6344 848.848 23.5066C848.848 25.4016 848.414 27.0113 847.546 28.3355C846.701 29.6598 845.537 30.6643 844.053 31.3493C842.569 32.0342 840.879 32.3767 838.984 32.3767ZM838.984 29.2602C840.057 29.2602 841.05 29.0433 841.964 28.6095C842.877 28.1529 843.608 27.5022 844.156 26.6574C844.704 25.7898 844.978 24.7395 844.978 23.5066C844.978 22.2965 844.704 21.2577 844.156 20.3901C843.608 19.4996 842.877 18.8261 841.964 18.3695C841.073 17.9128 840.08 17.6845 838.984 17.6845C837.888 17.6845 836.872 17.9128 835.936 18.3695C835.023 18.8261 834.281 19.4882 833.71 20.3558C833.162 21.2234 832.888 22.2737 832.888 23.5066C832.888 24.7395 833.162 25.7898 833.71 26.6574C834.281 27.5022 835.023 28.1529 835.936 28.6095C836.872 29.0433 837.888 29.2602 838.984 29.2602ZM862.362 32.3767C860.467 32.3767 858.766 32.0342 857.259 31.3493C855.752 30.6643 854.565 29.6598 853.698 28.3355C852.83 27.0113 852.396 25.4016 852.396 23.5066C852.396 21.6344 852.83 20.0362 853.698 18.712C854.565 17.3649 855.752 16.3375 857.259 15.6297C858.766 14.9219 860.467 14.568 862.362 14.568C864.257 14.568 865.947 14.9219 867.431 15.6297C868.915 16.3375 870.079 17.3649 870.924 18.712C871.792 20.0362 872.225 21.6344 872.225 23.5066C872.225 25.4016 871.792 27.0113 870.924 28.3355C870.079 29.6598 868.915 30.6643 867.431 31.3493C865.947 32.0342 864.257 32.3767 862.362 32.3767ZM862.362 29.2602C863.435 29.2602 864.428 29.0433 865.342 28.6095C866.255 28.1529 866.986 27.5022 867.534 26.6574C868.082 25.7898 868.355 24.7395 868.355 23.5066C868.355 22.2965 868.082 21.2577 867.534 20.3901C866.986 19.4996 866.255 18.8261 865.342 18.3695C864.451 17.9128 863.458 17.6845 862.362 17.6845C861.266 17.6845 860.25 17.9128 859.314 18.3695C858.401 18.8261 857.659 19.4882 857.088 20.3558C856.54 21.2234 856.266 22.2737 856.266 23.5066C856.266 24.7395 856.54 25.7898 857.088 26.6574C857.659 27.5022 858.401 28.1529 859.314 28.6095C860.25 29.0433 861.266 29.2602 862.362 29.2602ZM885.74 32.3767C883.845 32.3767 882.144 32.0342 880.637 31.3493C879.13 30.6643 877.943 29.6598 877.076 28.3355C876.208 27.0113 875.774 25.4016 875.774 23.5066C875.774 21.6344 876.208 20.0362 877.076 18.712C877.943 17.3649 879.13 16.3375 880.637 15.6297C882.144 14.9219 883.845 14.568 885.74 14.568C887.635 14.568 889.325 14.9219 890.809 15.6297C892.293 16.3375 893.457 17.3649 894.302 18.712C895.17 20.0362 895.603 21.6344 895.603 23.5066C895.603 25.4016 895.17 27.0113 894.302 28.3355C893.457 29.6598 892.293 30.6643 890.809 31.3493C889.325 32.0342 887.635 32.3767 885.74 32.3767ZM885.74 29.2602C886.813 29.2602 887.806 29.0433 888.72 28.6095C889.633 28.1529 890.364 27.5022 890.912 26.6574C891.459 25.7898 891.733 24.7395 891.733 23.5066C891.733 22.2965 891.459 21.2577 890.912 20.3901C890.364 19.4996 889.633 18.8261 888.72 18.3695C887.829 17.9128 886.836 17.6845 885.74 17.6845C884.644 17.6845 883.628 17.9128 882.692 18.3695C881.779 18.8261 881.037 19.4882 880.466 20.3558C879.918 21.2234 879.644 22.2737 879.644 23.5066C879.644 24.7395 879.918 25.7898 880.466 26.6574C881.037 27.5022 881.779 28.1529 882.692 28.6095C883.628 29.0433 884.644 29.2602 885.74 29.2602ZM899.084 21.2805H913.57V24.2258H899.084V21.2805ZM907.954 16.3831V29.1232H904.734V16.3831H907.954ZM943.671 25.3902C943.534 26.8515 943.066 28.1072 942.267 29.1575C941.467 30.2077 940.394 31.0068 939.047 31.5548C937.723 32.1027 936.193 32.3767 934.458 32.3767C932.586 32.3767 930.885 32.0342 929.355 31.3493C927.848 30.6643 926.65 29.6598 925.759 28.3355C924.869 27.0113 924.424 25.4016 924.424 23.5066C924.424 21.6116 924.869 20.0019 925.759 18.6777C926.65 17.3535 927.848 16.3375 929.355 15.6297C930.885 14.9219 932.586 14.568 934.458 14.568C936.193 14.568 937.723 14.8534 939.047 15.4242C940.371 15.9721 941.433 16.7598 942.232 17.7873C943.031 18.8147 943.499 20.059 943.636 21.5203H940.143C939.755 20.3102 939.047 19.3741 938.02 18.712C937.015 18.027 935.828 17.6845 934.458 17.6845C933.339 17.6845 932.312 17.9128 931.376 18.3695C930.44 18.8033 929.686 19.454 929.115 20.3216C928.567 21.1664 928.294 22.228 928.294 23.5066C928.294 24.7624 928.567 25.824 929.115 26.6916C929.686 27.5592 930.44 28.2099 931.376 28.6437C932.312 29.0547 933.339 29.2602 934.458 29.2602C935.965 29.2602 937.198 28.9291 938.157 28.267C939.139 27.5821 939.812 26.6231 940.177 25.3902H943.671ZM947.362 8.09521H951.164V32H947.362V8.09521ZM960.234 7.71849V11.383H955.68V7.71849H960.234ZM956.022 14.9447H959.858V32H956.022V14.9447ZM978.658 26.3834H982.322C982.14 27.5478 981.683 28.5867 980.953 29.4999C980.245 30.3904 979.274 31.0981 978.042 31.6233C976.809 32.1256 975.336 32.3767 973.624 32.3767C971.683 32.3767 969.948 32.0228 968.418 31.315C966.888 30.5844 965.69 29.557 964.822 28.2328C963.954 26.9085 963.521 25.3331 963.521 23.5066C963.521 21.7029 963.943 20.1275 964.788 18.7804C965.633 17.4334 966.797 16.3945 968.281 15.6639C969.788 14.9333 971.523 14.568 973.487 14.568C975.519 14.568 977.208 14.9333 978.555 15.6639C979.925 16.3717 980.941 17.4448 981.603 18.8832C982.265 20.2988 982.539 22.091 982.425 24.2601H967.391C967.505 25.219 967.813 26.0866 968.315 26.8629C968.84 27.6163 969.548 28.2099 970.439 28.6437C971.329 29.0547 972.368 29.2602 973.555 29.2602C974.879 29.2602 975.987 28.9976 976.877 28.4725C977.79 27.9474 978.384 27.251 978.658 26.3834ZM973.384 17.6503C971.831 17.6503 970.553 18.0384 969.548 18.8147C968.544 19.5681 967.893 20.5385 967.596 21.7257H978.59C978.498 20.4472 977.984 19.454 977.048 18.7462C976.112 18.0156 974.891 17.6503 973.384 17.6503ZM985.816 14.9447H989.617V32H985.816V14.9447ZM996.809 14.568C997.791 14.568 998.693 14.705 999.515 14.979C1000.36 15.253 1001.08 15.6753 1001.67 16.2461C1002.29 16.7941 1002.76 17.479 1003.08 18.301C1003.42 19.1229 1003.59 20.0933 1003.59 21.212V32H999.789V21.9655C999.789 20.5727 999.446 19.5453 998.761 18.8832C998.099 18.1982 997.049 17.8558 995.611 17.8558C994.515 17.8558 993.51 18.0955 992.597 18.575C991.706 19.0316 990.976 19.6366 990.405 20.3901C989.834 21.1207 989.503 21.9312 989.412 22.8217L989.377 20.9723C989.492 20.1275 989.743 19.3284 990.131 18.575C990.519 17.7987 991.033 17.1137 991.672 16.5201C992.311 15.9037 993.065 15.4242 993.932 15.0817C994.8 14.7392 995.759 14.568 996.809 14.568ZM1006.59 14.9447H1018.65V18.0612H1006.59V14.9447ZM1010.7 10.3556H1014.54V32H1010.7V10.3556ZM1020.88 26.3834H1024.41C1024.59 27.251 1025.06 27.9588 1025.81 28.5068C1026.57 29.0319 1027.58 29.2944 1028.86 29.2944C1029.68 29.2944 1030.32 29.2031 1030.78 29.0205C1031.26 28.8378 1031.59 28.5867 1031.77 28.267C1031.98 27.9474 1032.08 27.5821 1032.08 27.1711C1032.08 26.6688 1031.93 26.2807 1031.64 26.0067C1031.36 25.7327 1030.95 25.5044 1030.4 25.3217C1029.85 25.1391 1029.17 24.9793 1028.35 24.8423C1027.5 24.6368 1026.67 24.4085 1025.85 24.1573C1025.03 23.9062 1024.28 23.5979 1023.62 23.2326C1022.96 22.8445 1022.43 22.365 1022.05 21.7942C1021.68 21.2006 1021.5 20.4814 1021.5 19.6366C1021.5 18.8604 1021.67 18.164 1022.01 17.5475C1022.38 16.9082 1022.88 16.3717 1023.52 15.9379C1024.16 15.5041 1024.91 15.173 1025.78 14.9447C1026.65 14.6936 1027.59 14.568 1028.62 14.568C1030.11 14.568 1031.34 14.8077 1032.32 15.2872C1033.33 15.7667 1034.08 16.4402 1034.58 17.3078C1035.11 18.1754 1035.37 19.1686 1035.37 20.2873H1032.01C1031.83 19.3741 1031.48 18.712 1030.95 18.301C1030.43 17.89 1029.64 17.6845 1028.59 17.6845C1027.54 17.6845 1026.74 17.8672 1026.19 18.2325C1025.64 18.5978 1025.37 19.1001 1025.37 19.7394C1025.37 20.2188 1025.54 20.607 1025.88 20.9038C1026.25 21.1778 1026.76 21.4175 1027.42 21.623C1028.09 21.8285 1028.86 22.034 1029.75 22.2394C1030.57 22.4678 1031.35 22.7075 1032.08 22.9586C1032.81 23.187 1033.46 23.4838 1034.03 23.8491C1034.63 24.1916 1035.09 24.6482 1035.44 25.219C1035.78 25.7898 1035.95 26.4976 1035.95 27.3423C1035.95 28.3926 1035.67 29.2944 1035.09 30.0479C1034.55 30.8013 1033.75 31.3835 1032.7 31.7945C1031.65 32.1827 1030.38 32.3767 1028.9 32.3767C1027.59 32.3767 1026.46 32.2283 1025.51 31.9315C1024.57 31.6347 1023.78 31.2466 1023.14 30.7671C1022.53 30.2876 1022.05 29.7739 1021.7 29.2259C1021.36 28.678 1021.12 28.1529 1020.98 27.6506C1020.87 27.1483 1020.84 26.7259 1020.88 26.3834Z" fill="#9CA3AF"/>
<circle cx="1074" cy="20.5" r="16" stroke="#9CA3AF"/>
<circle cx="1074" cy="20.5" r="10.5" fill="#9CA3AF"/>
<path d="M1182.99 22.9929C1184.06 22.9929 1185.06 23.1527 1185.97 23.4724C1186.88 23.7692 1187.68 24.2258 1188.37 24.8423C1189.05 25.4587 1189.58 26.2122 1189.94 27.1026C1190.33 27.993 1190.53 29.0205 1190.53 30.1849C1190.53 31.7374 1190.15 33.0617 1189.4 34.1576C1188.67 35.2535 1187.64 36.0869 1186.31 36.6577C1185.01 37.2513 1183.52 37.5481 1181.83 37.5481C1180.59 37.5481 1179.43 37.3883 1178.33 37.0686C1177.24 36.749 1176.27 36.2924 1175.42 35.6987C1174.6 35.1279 1173.93 34.4087 1173.4 33.5411C1172.9 32.6964 1172.63 31.7374 1172.58 30.6643H1176.25C1176.34 31.4406 1176.63 32.0913 1177.14 32.6165C1177.64 33.1644 1178.28 33.5754 1179.05 33.8494C1179.85 34.1233 1180.73 34.2603 1181.69 34.2603C1182.35 34.2603 1182.98 34.169 1183.57 33.9864C1184.17 33.8265 1184.7 33.5754 1185.18 33.2329C1185.66 32.9133 1186.04 32.4909 1186.31 31.9658C1186.59 31.4406 1186.72 30.8356 1186.72 30.1506C1186.72 29.4657 1186.59 28.8606 1186.31 28.3355C1186.06 27.8104 1185.71 27.3766 1185.25 27.0341C1184.82 26.6916 1184.3 26.4291 1183.71 26.2464C1183.12 26.0638 1182.49 25.9724 1181.83 25.9724C1181.17 25.9724 1180.5 26.0523 1179.84 26.2122C1179.18 26.3492 1178.56 26.5889 1177.99 26.9314C1177.42 27.2738 1176.95 27.7647 1176.59 28.404L1173.23 27.7533L1174.12 14.8762H1188.4V18.2325H1177.68L1177.07 26.9999L1176.66 26.7601C1176.95 25.9154 1177.42 25.219 1178.06 24.671C1178.7 24.1231 1179.44 23.7121 1180.29 23.4381C1181.15 23.1413 1182.06 22.9929 1182.99 22.9929ZM1203.98 17.479C1205.58 17.479 1206.98 17.7873 1208.19 18.4037C1209.43 19.0202 1210.39 19.8878 1211.07 21.0065C1211.78 22.1253 1212.12 23.4381 1212.1 24.945C1212.08 26.4519 1211.68 27.7647 1210.9 28.8835C1210.15 30.0022 1209.07 30.8698 1207.68 31.4863C1206.31 32.1027 1204.7 32.411 1202.85 32.411C1200.93 32.411 1199.24 32.1256 1197.78 31.5548C1196.32 30.9612 1195.18 30.1164 1194.36 29.0205C1193.56 27.9245 1193.17 26.6117 1193.19 25.082C1193.19 24.534 1193.26 23.9404 1193.4 23.3011C1193.56 22.6618 1193.85 21.9769 1194.26 21.2463C1194.3 21.1093 1194.47 20.8011 1194.77 20.3216C1195.07 19.8421 1195.42 19.2599 1195.83 18.575C1196.27 17.89 1196.72 17.1594 1197.2 16.3831C1197.68 15.584 1198.16 14.7963 1198.64 14.02C1199.12 13.2438 1199.55 12.536 1199.94 11.8967C1200.33 11.2574 1200.64 10.7551 1200.87 10.3898C1201.12 10.0017 1201.24 9.80759 1201.24 9.80759H1205.87L1196.04 23.9176L1194.8 24.9793C1195.56 23.8377 1196.28 22.8102 1196.96 21.897C1197.65 20.9609 1198.33 20.1618 1199.02 19.4996C1199.72 18.8375 1200.48 18.3352 1201.28 17.9928C1202.08 17.6503 1202.98 17.479 1203.98 17.479ZM1202.72 29.1575C1204.27 29.1575 1205.57 28.7921 1206.62 28.0615C1207.67 27.3309 1208.21 26.2692 1208.23 24.8765C1208.25 23.5294 1207.76 22.4906 1206.76 21.76C1205.75 21.0065 1204.46 20.6298 1202.89 20.6298C1201.13 20.6298 1199.72 21.0522 1198.67 21.897C1197.62 22.7189 1197.09 23.7235 1197.06 24.9108C1197.04 26.2807 1197.57 27.3309 1198.64 28.0615C1199.74 28.7921 1201.09 29.1575 1202.72 29.1575ZM1215.05 21.2805H1229.54V24.2258H1215.05V21.2805ZM1223.92 16.3831V29.1232H1220.7V16.3831H1223.92ZM1245.73 9.80759V28.6437H1259.57V32H1241.83V9.80759H1245.73ZM1271.73 32.3767C1269.83 32.3767 1268.13 32.0342 1266.62 31.3493C1265.12 30.6643 1263.93 29.6598 1263.06 28.3355C1262.19 27.0113 1261.76 25.4016 1261.76 23.5066C1261.76 21.6344 1262.19 20.0362 1263.06 18.712C1263.93 17.3649 1265.12 16.3375 1266.62 15.6297C1268.13 14.9219 1269.83 14.568 1271.73 14.568C1273.62 14.568 1275.31 14.9219 1276.79 15.6297C1278.28 16.3375 1279.44 17.3649 1280.29 18.712C1281.16 20.0362 1281.59 21.6344 1281.59 23.5066C1281.59 25.4016 1281.16 27.0113 1280.29 28.3355C1279.44 29.6598 1278.28 30.6643 1276.79 31.3493C1275.31 32.0342 1273.62 32.3767 1271.73 32.3767ZM1271.73 29.2602C1272.82 29.2602 1273.83 29.0433 1274.74 28.6095C1275.65 28.1757 1276.37 27.525 1276.9 26.6574C1277.44 25.7898 1277.72 24.7395 1277.72 23.5066C1277.72 22.2737 1277.44 21.2234 1276.9 20.3558C1276.37 19.4882 1275.65 18.8261 1274.74 18.3695C1273.85 17.89 1272.84 17.6503 1271.73 17.6503C1270.61 17.6503 1269.59 17.8786 1268.68 18.3352C1267.76 18.7919 1267.02 19.454 1266.45 20.3216C1265.9 21.1892 1265.63 22.2509 1265.63 23.5066C1265.63 24.7395 1265.9 25.7898 1266.45 26.6574C1267 27.525 1267.73 28.1757 1268.64 28.6095C1269.58 29.0433 1270.61 29.2602 1271.73 29.2602ZM1292.59 32.3767C1291.04 32.3767 1289.61 32 1288.31 31.2466C1287.03 30.4931 1286.01 29.4543 1285.23 28.13C1284.48 26.783 1284.1 25.2418 1284.1 23.5066C1284.1 21.7257 1284.49 20.1732 1285.27 18.8489C1286.04 17.5019 1287.09 16.4516 1288.42 15.6982C1289.74 14.9447 1291.22 14.568 1292.87 14.568C1294.69 14.568 1296.14 14.9676 1297.22 15.7667C1298.29 16.5658 1299.06 17.6389 1299.51 18.9859C1299.97 20.333 1300.2 21.8399 1300.2 23.5066C1300.2 24.4427 1300.06 25.4359 1299.79 26.4861C1299.51 27.5136 1299.08 28.4725 1298.48 29.3629C1297.91 30.2534 1297.14 30.984 1296.16 31.5548C1295.2 32.1027 1294.01 32.3767 1292.59 32.3767ZM1293.76 29.2259C1295.04 29.2259 1296.12 28.9862 1297.01 28.5068C1297.93 28.0045 1298.61 27.3195 1299.07 26.4519C1299.55 25.5843 1299.79 24.6025 1299.79 23.5066C1299.79 22.2965 1299.55 21.2691 1299.07 20.4243C1298.59 19.5567 1297.9 18.8946 1297.01 18.438C1296.12 17.9585 1295.04 17.7188 1293.76 17.7188C1291.93 17.7188 1290.52 18.2553 1289.51 19.3284C1288.51 20.4015 1288 21.7942 1288 23.5066C1288 24.6254 1288.24 25.6185 1288.72 26.4861C1289.23 27.3537 1289.91 28.0273 1290.78 28.5068C1291.65 28.9862 1292.64 29.2259 1293.76 29.2259ZM1299.79 14.9447H1303.62V32H1300.06C1300.06 32 1300.04 31.7831 1299.99 31.3493C1299.95 30.9155 1299.9 30.3904 1299.85 29.7739C1299.81 29.1346 1299.79 28.5296 1299.79 27.9588V14.9447ZM1307.8 14.9447H1311.6V32H1307.8V14.9447ZM1318.79 14.568C1319.78 14.568 1320.68 14.705 1321.5 14.979C1322.34 15.253 1323.06 15.6753 1323.66 16.2461C1324.27 16.7941 1324.74 17.479 1325.06 18.301C1325.4 19.1229 1325.58 20.0933 1325.58 21.212V32H1321.77V21.9655C1321.77 20.5727 1321.43 19.5453 1320.75 18.8832C1320.08 18.1982 1319.03 17.8558 1317.6 17.8558C1316.5 17.8558 1315.49 18.0955 1314.58 18.575C1313.69 19.0316 1312.96 19.6366 1312.39 20.3901C1311.82 21.1207 1311.49 21.9312 1311.4 22.8217L1311.36 20.9723C1311.48 20.1275 1311.73 19.3284 1312.12 18.575C1312.5 17.7987 1313.02 17.1137 1313.66 16.5201C1314.3 15.9037 1315.05 15.4242 1315.92 15.0817C1316.78 14.7392 1317.74 14.568 1318.79 14.568ZM1345.27 32.3767C1343.72 32.3767 1342.29 32 1340.99 31.2466C1339.71 30.4931 1338.68 29.4543 1337.91 28.13C1337.15 26.783 1336.78 25.2418 1336.78 23.5066C1336.78 21.7257 1337.16 20.1732 1337.94 18.8489C1338.72 17.5019 1339.77 16.4516 1341.09 15.6982C1342.42 14.9447 1343.9 14.568 1345.54 14.568C1347.37 14.568 1348.82 14.9676 1349.89 15.7667C1350.97 16.5658 1351.73 17.6389 1352.19 18.9859C1352.64 20.333 1352.87 21.8399 1352.87 23.5066C1352.87 24.4427 1352.74 25.4359 1352.46 26.4861C1352.19 27.5136 1351.75 28.4725 1351.16 29.3629C1350.59 30.2534 1349.81 30.984 1348.83 31.5548C1347.87 32.1027 1346.69 32.3767 1345.27 32.3767ZM1346.43 29.2259C1347.71 29.2259 1348.8 28.9862 1349.69 28.5068C1350.6 28.0045 1351.29 27.3195 1351.74 26.4519C1352.22 25.5843 1352.46 24.6025 1352.46 23.5066C1352.46 22.2965 1352.22 21.2691 1351.74 20.4243C1351.26 19.5567 1350.58 18.8946 1349.69 18.438C1348.8 17.9585 1347.71 17.7188 1346.43 17.7188C1344.61 17.7188 1343.19 18.2553 1342.19 19.3284C1341.18 20.4015 1340.68 21.7942 1340.68 23.5066C1340.68 24.6254 1340.92 25.6185 1341.4 26.4861C1341.9 27.3537 1342.59 28.0273 1343.45 28.5068C1344.32 28.9862 1345.32 29.2259 1346.43 29.2259ZM1352.46 14.9447H1356.3V32H1352.74C1352.74 32 1352.71 31.7831 1352.67 31.3493C1352.62 30.9155 1352.58 30.3904 1352.53 29.7739C1352.48 29.1346 1352.46 28.5296 1352.46 27.9588V14.9447ZM1368.08 29.3629C1366.48 29.3629 1365.03 29.0775 1363.73 28.5068C1362.45 27.936 1361.44 27.1026 1360.68 26.0067C1359.95 24.9108 1359.59 23.5979 1359.59 22.0682C1359.59 20.5385 1359.94 19.2142 1360.65 18.0955C1361.38 16.9767 1362.38 16.1091 1363.66 15.4927C1364.96 14.8762 1366.44 14.568 1368.08 14.568C1368.56 14.568 1369.02 14.6022 1369.45 14.6707C1369.91 14.7392 1370.34 14.8306 1370.75 14.9447L1378.73 14.979V18.164C1377.63 18.1868 1376.53 18.0384 1375.41 17.7188C1374.31 17.3763 1373.34 17.0224 1372.5 16.6571L1372.39 16.4516C1373.17 16.8398 1373.87 17.3192 1374.48 17.89C1375.12 18.438 1375.63 19.0658 1375.99 19.7736C1376.36 20.4814 1376.54 21.2805 1376.54 22.171C1376.54 23.6778 1376.17 24.9678 1375.44 26.0409C1374.73 27.114 1373.74 27.936 1372.46 28.5068C1371.21 29.0775 1369.75 29.3629 1368.08 29.3629ZM1373.56 38.9523V38.1646C1373.56 37.0458 1373.23 36.2581 1372.57 35.8015C1371.9 35.3448 1370.98 35.1165 1369.79 35.1165H1365.17C1364.25 35.1165 1363.47 35.0366 1362.81 34.8768C1362.17 34.7398 1361.65 34.5229 1361.26 34.2261C1360.88 33.9521 1360.59 33.6211 1360.41 33.2329C1360.23 32.8676 1360.13 32.4566 1360.13 32C1360.13 31.0867 1360.41 30.4018 1360.96 29.9451C1361.53 29.4885 1362.27 29.1917 1363.18 29.0547C1364.12 28.9177 1365.1 28.8949 1366.13 28.9862L1368.08 29.3629C1366.73 29.4086 1365.7 29.5342 1365 29.7397C1364.31 29.9223 1363.97 30.299 1363.97 30.8698C1363.97 31.2123 1364.11 31.4863 1364.38 31.6918C1364.65 31.8973 1365.04 32 1365.54 32H1370.41C1371.8 32 1373.02 32.1598 1374.07 32.4795C1375.12 32.8219 1375.93 33.3813 1376.5 34.1576C1377.1 34.9567 1377.39 36.0412 1377.39 37.4111V38.9523H1373.56ZM1368.08 26.3834C1368.99 26.3834 1369.8 26.2122 1370.51 25.8697C1371.22 25.5272 1371.78 25.0363 1372.19 24.397C1372.6 23.7578 1372.81 22.9815 1372.81 22.0682C1372.81 21.1549 1372.6 20.3673 1372.19 19.7051C1371.78 19.043 1371.22 18.5407 1370.51 18.1982C1369.8 17.8558 1368.99 17.6845 1368.08 17.6845C1367.19 17.6845 1366.38 17.8558 1365.65 18.1982C1364.94 18.5407 1364.38 19.043 1363.97 19.7051C1363.56 20.3444 1363.35 21.1321 1363.35 22.0682C1363.35 22.9815 1363.56 23.7578 1363.97 24.397C1364.38 25.0363 1364.94 25.5272 1365.65 25.8697C1366.36 26.2122 1367.17 26.3834 1368.08 26.3834ZM1395.83 26.3834H1399.49C1399.31 27.5478 1398.85 28.5867 1398.12 29.4999C1397.41 30.3904 1396.44 31.0981 1395.21 31.6233C1393.98 32.1256 1392.5 32.3767 1390.79 32.3767C1388.85 32.3767 1387.12 32.0228 1385.59 31.315C1384.06 30.5844 1382.86 29.557 1381.99 28.2328C1381.12 26.9085 1380.69 25.3331 1380.69 23.5066C1380.69 21.7029 1381.11 20.1275 1381.96 18.7804C1382.8 17.4334 1383.97 16.3945 1385.45 15.6639C1386.96 14.9333 1388.69 14.568 1390.66 14.568C1392.69 14.568 1394.38 14.9333 1395.72 15.6639C1397.09 16.3717 1398.11 17.4448 1398.77 18.8832C1399.43 20.2988 1399.71 22.091 1399.59 24.2601H1384.56C1384.67 25.219 1384.98 26.0866 1385.48 26.8629C1386.01 27.6163 1386.72 28.2099 1387.61 28.6437C1388.5 29.0547 1389.54 29.2602 1390.72 29.2602C1392.05 29.2602 1393.16 28.9976 1394.05 28.4725C1394.96 27.9474 1395.55 27.251 1395.83 26.3834ZM1390.55 17.6503C1389 17.6503 1387.72 18.0384 1386.72 18.8147C1385.71 19.5681 1385.06 20.5385 1384.76 21.7257H1395.76C1395.67 20.4472 1395.15 19.454 1394.22 18.7462C1393.28 18.0156 1392.06 17.6503 1390.55 17.6503ZM1402.98 14.9447H1406.79V32H1402.98V14.9447ZM1413.98 14.568C1414.96 14.568 1415.86 14.705 1416.68 14.979C1417.53 15.253 1418.25 15.6753 1418.84 16.2461C1419.46 16.7941 1419.93 17.479 1420.25 18.301C1420.59 19.1229 1420.76 20.0933 1420.76 21.212V32H1416.96V21.9655C1416.96 20.5727 1416.62 19.5453 1415.93 18.8832C1415.27 18.1982 1414.22 17.8558 1412.78 17.8558C1411.68 17.8558 1410.68 18.0955 1409.77 18.575C1408.88 19.0316 1408.14 19.6366 1407.57 20.3901C1407 21.1207 1406.67 21.9312 1406.58 22.8217L1406.55 20.9723C1406.66 20.1275 1406.91 19.3284 1407.3 18.575C1407.69 17.7987 1408.2 17.1137 1408.84 16.5201C1409.48 15.9037 1410.23 15.4242 1411.1 15.0817C1411.97 14.7392 1412.93 14.568 1413.98 14.568ZM1423.76 14.9447H1435.81V18.0612H1423.76V14.9447ZM1427.87 10.3556H1431.7V32H1427.87V10.3556ZM1438.05 26.3834H1441.58C1441.76 27.251 1442.23 27.9588 1442.98 28.5068C1443.74 29.0319 1444.75 29.2944 1446.03 29.2944C1446.85 29.2944 1447.49 29.2031 1447.95 29.0205C1448.43 28.8378 1448.76 28.5867 1448.94 28.267C1449.15 27.9474 1449.25 27.5821 1449.25 27.1711C1449.25 26.6688 1449.1 26.2807 1448.8 26.0067C1448.53 25.7327 1448.12 25.5044 1447.57 25.3217C1447.02 25.1391 1446.34 24.9793 1445.52 24.8423C1444.67 24.6368 1443.84 24.4085 1443.02 24.1573C1442.19 23.9062 1441.45 23.5979 1440.79 23.2326C1440.13 22.8445 1439.6 22.365 1439.22 21.7942C1438.85 21.2006 1438.67 20.4814 1438.67 19.6366C1438.67 18.8604 1438.84 18.164 1439.18 17.5475C1439.55 16.9082 1440.05 16.3717 1440.69 15.9379C1441.33 15.5041 1442.08 15.173 1442.95 14.9447C1443.82 14.6936 1444.76 14.568 1445.79 14.568C1447.27 14.568 1448.51 14.8077 1449.49 15.2872C1450.49 15.7667 1451.25 16.4402 1451.75 17.3078C1452.27 18.1754 1452.54 19.1686 1452.54 20.2873H1449.18C1449 19.3741 1448.64 18.712 1448.12 18.301C1447.59 17.89 1446.81 17.6845 1445.76 17.6845C1444.71 17.6845 1443.91 17.8672 1443.36 18.2325C1442.81 18.5978 1442.54 19.1001 1442.54 19.7394C1442.54 20.2188 1442.71 20.607 1443.05 20.9038C1443.42 21.1778 1443.93 21.4175 1444.59 21.623C1445.25 21.8285 1446.03 22.034 1446.92 22.2394C1447.74 22.4678 1448.52 22.7075 1449.25 22.9586C1449.98 23.187 1450.63 23.4838 1451.2 23.8491C1451.8 24.1916 1452.26 24.6482 1452.61 25.219C1452.95 25.7898 1453.12 26.4976 1453.12 27.3423C1453.12 28.3926 1452.83 29.2944 1452.26 30.0479C1451.72 30.8013 1450.92 31.3835 1449.87 31.7945C1448.82 32.1827 1447.55 32.3767 1446.06 32.3767C1444.76 32.3767 1443.63 32.2283 1442.67 31.9315C1441.74 31.6347 1440.95 31.2466 1440.31 30.7671C1439.69 30.2876 1439.22 29.7739 1438.87 29.2259C1438.53 28.678 1438.29 28.1529 1438.15 27.6506C1438.04 27.1483 1438.01 26.7259 1438.05 26.3834Z" fill="#9CA3AF"/>
</svg>
