<svg width="21" height="22" viewBox="0 0 21 22" fill="none" xmlns="http://www.w3.org/2000/svg">
<g clip-path="url(#clip0_1905_18381)">
<path d="M10.4772 14.9544C10.9403 14.9544 11.3845 14.7704 11.712 14.443C12.0394 14.1155 12.2234 13.6713 12.2234 13.2082C12.2234 12.7451 12.0394 12.301 11.712 11.9735C11.3845 11.646 10.9403 11.462 10.4772 11.462C10.0141 11.462 9.56994 11.646 9.24247 11.9735C8.91499 12.301 8.73102 12.7451 8.73102 13.2082C8.73102 13.6713 8.91499 14.1155 9.24247 14.443C9.56994 14.7704 10.0141 14.9544 10.4772 14.9544ZM15.7158 7.09654C16.1789 7.09654 16.6231 7.28052 16.9505 7.60799C17.278 7.93547 17.462 8.37962 17.462 8.84274V17.5737C17.462 18.0368 17.278 18.481 16.9505 18.8085C16.6231 19.1359 16.1789 19.3199 15.7158 19.3199H5.23863C4.77551 19.3199 4.33136 19.1359 4.00388 18.8085C3.67641 18.481 3.49243 18.0368 3.49243 17.5737V8.84274C3.49243 8.37962 3.67641 7.93547 4.00388 7.60799C4.33136 7.28052 4.77551 7.09654 5.23863 7.09654H6.11172V5.35035C6.11172 4.19255 6.57166 3.08217 7.39035 2.26348C8.20903 1.4448 9.31941 0.984863 10.4772 0.984863C11.0505 0.984863 11.6182 1.09778 12.1478 1.31717C12.6775 1.53655 13.1587 1.85811 13.5641 2.26348C13.9694 2.66886 14.291 3.15011 14.5104 3.67975C14.7298 4.2094 14.8427 4.77707 14.8427 5.35035V7.09654H15.7158ZM10.4772 2.73106C9.78253 2.73106 9.1163 3.00702 8.62509 3.49823C8.13388 3.98944 7.85792 4.65567 7.85792 5.35035V7.09654H13.0965V5.35035C13.0965 4.65567 12.8205 3.98944 12.3293 3.49823C11.8381 3.00702 11.1719 2.73106 10.4772 2.73106Z" fill="#999999"/>
</g>
<defs>
<clipPath id="clip0_1905_18381">
<rect width="20.9543" height="20.9543" fill="white" transform="translate(0 0.111816)"/>
</clipPath>
</defs>
</svg>
