<svg width="182" height="63" viewBox="0 0 182 63" fill="none" xmlns="http://www.w3.org/2000/svg">
<path d="M0.7 15.6023H2.92C2.97333 16.0957 3.16667 16.5423 3.5 16.9423C3.84667 17.329 4.3 17.6357 4.86 17.8623C5.43333 18.0757 6.08667 18.1823 6.82 18.1823C7.47333 18.1823 8.01333 18.1023 8.44 17.9423C8.86667 17.7823 9.18 17.5623 9.38 17.2823C9.59333 16.989 9.7 16.649 9.7 16.2623C9.7 15.8757 9.57333 15.5757 9.32 15.3623C9.08 15.1357 8.70667 14.949 8.2 14.8023C7.69333 14.6423 7.04667 14.489 6.26 14.3423C5.60667 14.2223 4.97333 14.0623 4.36 13.8623C3.74667 13.6623 3.19333 13.409 2.7 13.1023C2.22 12.7957 1.84 12.4223 1.56 11.9823C1.28 11.529 1.14 10.9957 1.14 10.3823C1.14 9.68901 1.33333 9.06234 1.72 8.50234C2.12 7.94234 2.70667 7.50234 3.48 7.18234C4.25333 6.86234 5.19333 6.70234 6.3 6.70234C7.99333 6.70234 9.28667 7.09568 10.18 7.88234C11.0733 8.65568 11.5067 9.70901 11.48 11.0423H9.3C9.26 10.2023 8.95333 9.59568 8.38 9.22234C7.80667 8.84901 7.08 8.66234 6.2 8.66234C5.41333 8.66234 4.75333 8.80234 4.22 9.08234C3.68667 9.36234 3.42 9.81568 3.42 10.4423C3.42 10.709 3.48 10.9423 3.6 11.1423C3.73333 11.329 3.94667 11.5023 4.24 11.6623C4.53333 11.809 4.93333 11.9557 5.44 12.1023C5.96 12.2357 6.59333 12.3823 7.34 12.5423C7.98 12.649 8.58 12.7957 9.14 12.9823C9.7 13.169 10.1867 13.4023 10.6 13.6823C11.0267 13.9623 11.36 14.3223 11.6 14.7623C11.84 15.2023 11.96 15.7423 11.96 16.3823C11.96 17.1157 11.7733 17.769 11.4 18.3423C11.0267 18.9023 10.4533 19.349 9.68 19.6823C8.92 20.0023 7.93333 20.1623 6.72 20.1623C5.8 20.1623 4.99333 20.0557 4.3 19.8423C3.62 19.6157 3.04 19.329 2.56 18.9823C2.08 18.6223 1.69333 18.2357 1.4 17.8223C1.12 17.409 0.92 17.009 0.8 16.6223C0.693333 16.2223 0.66 15.8823 0.7 15.6023ZM22.3139 16.6223H24.4539C24.3472 17.3023 24.0806 17.909 23.6539 18.4423C23.2406 18.9623 22.6739 19.3757 21.9539 19.6823C21.2339 19.9757 20.3739 20.1223 19.3739 20.1223C18.2406 20.1223 17.2272 19.9157 16.3339 19.5023C15.4406 19.0757 14.7406 18.4757 14.2339 17.7023C13.7272 16.929 13.4739 16.009 13.4739 14.9423C13.4739 13.889 13.7206 12.969 14.2139 12.1823C14.7072 11.3957 15.3872 10.789 16.2539 10.3623C17.1339 9.93568 18.1472 9.72234 19.2939 9.72234C20.4806 9.72234 21.4672 9.93568 22.2539 10.3623C23.0539 10.7757 23.6472 11.4023 24.0339 12.2423C24.4206 13.069 24.5806 14.1157 24.5139 15.3823H15.7339C15.8006 15.9423 15.9806 16.449 16.2739 16.9023C16.5806 17.3423 16.9939 17.689 17.5139 17.9423C18.0339 18.1823 18.6406 18.3023 19.3339 18.3023C20.1072 18.3023 20.7539 18.149 21.2739 17.8423C21.8072 17.5357 22.1539 17.129 22.3139 16.6223ZM19.2339 11.5223C18.3272 11.5223 17.5806 11.749 16.9939 12.2023C16.4072 12.6423 16.0272 13.209 15.8539 13.9023H22.2739C22.2206 13.1557 21.9206 12.5757 21.3739 12.1623C20.8272 11.7357 20.1139 11.5223 19.2339 11.5223ZM34.8139 16.6223H36.9539C36.8472 17.3023 36.5806 17.909 36.1539 18.4423C35.7406 18.9623 35.1739 19.3757 34.4539 19.6823C33.7339 19.9757 32.8739 20.1223 31.8739 20.1223C30.7406 20.1223 29.7272 19.9157 28.8339 19.5023C27.9406 19.0757 27.2406 18.4757 26.7339 17.7023C26.2272 16.929 25.9739 16.009 25.9739 14.9423C25.9739 13.889 26.2206 12.969 26.7139 12.1823C27.2072 11.3957 27.8872 10.789 28.7539 10.3623C29.6339 9.93568 30.6472 9.72234 31.7939 9.72234C32.9806 9.72234 33.9672 9.93568 34.7539 10.3623C35.5539 10.7757 36.1472 11.4023 36.5339 12.2423C36.9206 13.069 37.0806 14.1157 37.0139 15.3823H28.2339C28.3006 15.9423 28.4806 16.449 28.7739 16.9023C29.0806 17.3423 29.4939 17.689 30.0139 17.9423C30.5339 18.1823 31.1406 18.3023 31.8339 18.3023C32.6072 18.3023 33.2539 18.149 33.7739 17.8423C34.3072 17.5357 34.6539 17.129 34.8139 16.6223ZM31.7339 11.5223C30.8272 11.5223 30.0806 11.749 29.4939 12.2023C28.9072 12.6423 28.5272 13.209 28.3539 13.9023H34.7739C34.7206 13.1557 34.4206 12.5757 33.8739 12.1623C33.3272 11.7357 32.6139 11.5223 31.7339 11.5223ZM48.0433 20.1223C47.1366 20.1223 46.3033 19.9023 45.5433 19.4623C44.7966 19.0223 44.1966 18.4157 43.7433 17.6423C43.3033 16.8557 43.0833 15.9557 43.0833 14.9423C43.0833 13.9023 43.3099 12.9957 43.7633 12.2223C44.2166 11.4357 44.8299 10.8223 45.6033 10.3823C46.3766 9.94234 47.2433 9.72234 48.2033 9.72234C49.2699 9.72234 50.1166 9.95568 50.7433 10.4223C51.3699 10.889 51.8166 11.5157 52.0833 12.3023C52.3499 13.089 52.4833 13.969 52.4833 14.9423C52.4833 15.489 52.4033 16.069 52.2433 16.6823C52.0833 17.2823 51.8299 17.8423 51.4833 18.3623C51.1499 18.8823 50.6966 19.309 50.1233 19.6423C49.5633 19.9623 48.8699 20.1223 48.0433 20.1223ZM48.7233 18.2823C49.4699 18.2823 50.1033 18.1423 50.6233 17.8623C51.1566 17.569 51.5566 17.169 51.8233 16.6623C52.1033 16.1557 52.2433 15.5823 52.2433 14.9423C52.2433 14.2357 52.1033 13.6357 51.8233 13.1423C51.5433 12.6357 51.1433 12.249 50.6233 11.9823C50.1033 11.7023 49.4699 11.5623 48.7233 11.5623C47.6566 11.5623 46.8299 11.8757 46.2433 12.5023C45.6566 13.129 45.3633 13.9423 45.3633 14.9423C45.3633 15.5957 45.5033 16.1757 45.7833 16.6823C46.0766 17.189 46.4766 17.5823 46.9833 17.8623C47.4899 18.1423 48.0699 18.2823 48.7233 18.2823ZM52.2433 9.94234H54.4833V19.9023H52.4033C52.4033 19.9023 52.3899 19.7757 52.3633 19.5223C52.3366 19.269 52.3099 18.9623 52.2833 18.6023C52.2566 18.229 52.2433 17.8757 52.2433 17.5423V9.94234ZM61.8036 18.3223H61.0236L64.4636 9.94234H66.8836L62.4836 19.9023H60.3636L56.0236 9.94234H58.4636L61.8036 18.3223ZM72.5355 20.1223C71.6288 20.1223 70.7955 19.9023 70.0355 19.4623C69.2888 19.0223 68.6888 18.4157 68.2355 17.6423C67.7955 16.8557 67.5755 15.9557 67.5755 14.9423C67.5755 13.9023 67.8021 12.9957 68.2555 12.2223C68.7088 11.4357 69.3221 10.8223 70.0955 10.3823C70.8688 9.94234 71.7355 9.72234 72.6955 9.72234C73.7621 9.72234 74.6088 9.95568 75.2355 10.4223C75.8621 10.889 76.3088 11.5157 76.5755 12.3023C76.8421 13.089 76.9755 13.969 76.9755 14.9423C76.9755 15.489 76.8955 16.069 76.7355 16.6823C76.5755 17.2823 76.3221 17.8423 75.9755 18.3623C75.6421 18.8823 75.1888 19.309 74.6155 19.6423C74.0555 19.9623 73.3621 20.1223 72.5355 20.1223ZM73.2155 18.2823C73.9621 18.2823 74.5955 18.1423 75.1155 17.8623C75.6488 17.569 76.0488 17.169 76.3155 16.6623C76.5955 16.1557 76.7355 15.5823 76.7355 14.9423C76.7355 14.2357 76.5955 13.6357 76.3155 13.1423C76.0355 12.6357 75.6355 12.249 75.1155 11.9823C74.5955 11.7023 73.9621 11.5623 73.2155 11.5623C72.1488 11.5623 71.3221 11.8757 70.7355 12.5023C70.1488 13.129 69.8555 13.9423 69.8555 14.9423C69.8555 15.5957 69.9955 16.1757 70.2755 16.6823C70.5688 17.189 70.9688 17.5823 71.4755 17.8623C71.9821 18.1423 72.5621 18.2823 73.2155 18.2823ZM76.7355 9.94234H78.9755V19.9023H76.8955C76.8955 19.9023 76.8821 19.7757 76.8555 19.5223C76.8288 19.269 76.8021 18.9623 76.7755 18.6023C76.7488 18.229 76.7355 17.8757 76.7355 17.5423V9.94234ZM84.0158 5.72234V7.86234H81.3558V5.72234H84.0158ZM81.5558 9.94234H83.7958V19.9023H81.5558V9.94234ZM86.6548 5.94234H88.8748V19.9023H86.6548V5.94234ZM96.012 20.1223C95.1054 20.1223 94.272 19.9023 93.512 19.4623C92.7654 19.0223 92.1654 18.4157 91.712 17.6423C91.272 16.8557 91.052 15.9557 91.052 14.9423C91.052 13.9023 91.2787 12.9957 91.732 12.2223C92.1854 11.4357 92.7987 10.8223 93.572 10.3823C94.3454 9.94234 95.212 9.72234 96.172 9.72234C97.2387 9.72234 98.0854 9.95568 98.712 10.4223C99.3387 10.889 99.7854 11.5157 100.052 12.3023C100.319 13.089 100.452 13.969 100.452 14.9423C100.452 15.489 100.372 16.069 100.212 16.6823C100.052 17.2823 99.7987 17.8423 99.452 18.3623C99.1187 18.8823 98.6654 19.309 98.092 19.6423C97.532 19.9623 96.8387 20.1223 96.012 20.1223ZM96.692 18.2823C97.4387 18.2823 98.072 18.1423 98.592 17.8623C99.1254 17.569 99.5254 17.169 99.792 16.6623C100.072 16.1557 100.212 15.5823 100.212 14.9423C100.212 14.2357 100.072 13.6357 99.792 13.1423C99.512 12.6357 99.112 12.249 98.592 11.9823C98.072 11.7023 97.4387 11.5623 96.692 11.5623C95.6254 11.5623 94.7987 11.8757 94.212 12.5023C93.6254 13.129 93.332 13.9423 93.332 14.9423C93.332 15.5957 93.472 16.1757 93.752 16.6823C94.0454 17.189 94.4454 17.5823 94.952 17.8623C95.4587 18.1423 96.0387 18.2823 96.692 18.2823ZM100.212 9.94234H102.452V19.9023H100.372C100.372 19.9023 100.359 19.7757 100.332 19.5223C100.305 19.269 100.279 18.9623 100.252 18.6023C100.225 18.229 100.212 17.8757 100.212 17.5423V9.94234ZM111.477 20.1223C110.65 20.1223 109.95 19.9623 109.377 19.6423C108.817 19.309 108.364 18.8823 108.017 18.3623C107.684 17.8423 107.437 17.2823 107.277 16.6823C107.13 16.069 107.057 15.489 107.057 14.9423C107.057 14.209 107.13 13.529 107.277 12.9023C107.424 12.2757 107.664 11.729 107.997 11.2623C108.344 10.7823 108.797 10.409 109.357 10.1423C109.93 9.86234 110.637 9.72234 111.477 9.72234C112.437 9.72234 113.284 9.94234 114.017 10.3823C114.764 10.8223 115.35 11.4357 115.777 12.2223C116.217 12.9957 116.437 13.9023 116.437 14.9423C116.437 15.9557 116.217 16.8557 115.777 17.6423C115.337 18.4157 114.744 19.0223 113.997 19.4623C113.25 19.9023 112.41 20.1223 111.477 20.1223ZM110.797 18.2823C111.477 18.2823 112.064 18.1423 112.557 17.8623C113.064 17.5823 113.457 17.189 113.737 16.6823C114.017 16.1757 114.157 15.5957 114.157 14.9423C114.157 13.9423 113.864 13.129 113.277 12.5023C112.69 11.8623 111.864 11.5423 110.797 11.5423C110.064 11.5423 109.43 11.6823 108.897 11.9623C108.377 12.2423 107.977 12.6357 107.697 13.1423C107.43 13.6357 107.297 14.2357 107.297 14.9423C107.297 15.5823 107.43 16.1557 107.697 16.6623C107.977 17.169 108.377 17.569 108.897 17.8623C109.417 18.1423 110.05 18.2823 110.797 18.2823ZM107.297 5.94234V17.5423C107.297 17.9023 107.277 18.309 107.237 18.7623C107.197 19.2157 107.157 19.5957 107.117 19.9023H105.057V5.94234H107.297ZM118.588 5.94234H120.808V19.9023H118.588V5.94234ZM131.826 16.6223H133.966C133.859 17.3023 133.592 17.909 133.166 18.4423C132.752 18.9623 132.186 19.3757 131.466 19.6823C130.746 19.9757 129.886 20.1223 128.886 20.1223C127.752 20.1223 126.739 19.9157 125.846 19.5023C124.952 19.0757 124.252 18.4757 123.746 17.7023C123.239 16.929 122.986 16.009 122.986 14.9423C122.986 13.889 123.232 12.969 123.726 12.1823C124.219 11.3957 124.899 10.789 125.766 10.3623C126.646 9.93568 127.659 9.72234 128.806 9.72234C129.992 9.72234 130.979 9.93568 131.766 10.3623C132.566 10.7757 133.159 11.4023 133.546 12.2423C133.932 13.069 134.092 14.1157 134.026 15.3823H125.246C125.312 15.9423 125.492 16.449 125.786 16.9023C126.092 17.3423 126.506 17.689 127.026 17.9423C127.546 18.1823 128.152 18.3023 128.846 18.3023C129.619 18.3023 130.266 18.149 130.786 17.8423C131.319 17.5357 131.666 17.129 131.826 16.6223ZM128.746 11.5223C127.839 11.5223 127.092 11.749 126.506 12.2023C125.919 12.6423 125.539 13.209 125.366 13.9023H131.786C131.732 13.1557 131.432 12.5757 130.886 12.1623C130.339 11.7357 129.626 11.5223 128.746 11.5223ZM140.795 9.94234H143.035V23.9023H140.795V9.94234ZM143.215 5.72234V7.86234H140.555V5.72234H143.215ZM150.954 20.1223C149.847 20.1223 148.854 19.9223 147.974 19.5223C147.094 19.1223 146.401 18.5357 145.894 17.7623C145.387 16.989 145.134 16.049 145.134 14.9423C145.134 13.849 145.387 12.9157 145.894 12.1423C146.401 11.3557 147.094 10.7557 147.974 10.3423C148.854 9.92901 149.847 9.72234 150.954 9.72234C152.061 9.72234 153.047 9.92901 153.914 10.3423C154.781 10.7557 155.461 11.3557 155.954 12.1423C156.461 12.9157 156.714 13.849 156.714 14.9423C156.714 16.049 156.461 16.989 155.954 17.7623C155.461 18.5357 154.781 19.1223 153.914 19.5223C153.047 19.9223 152.061 20.1223 150.954 20.1223ZM150.954 18.3023C151.594 18.3023 152.181 18.1757 152.714 17.9223C153.247 17.669 153.667 17.289 153.974 16.7823C154.294 16.2757 154.454 15.6623 154.454 14.9423C154.454 14.2223 154.294 13.609 153.974 13.1023C153.667 12.5957 153.247 12.209 152.714 11.9423C152.194 11.6623 151.607 11.5223 150.954 11.5223C150.301 11.5223 149.707 11.6557 149.174 11.9223C148.641 12.189 148.207 12.5757 147.874 13.0823C147.554 13.589 147.394 14.209 147.394 14.9423C147.394 15.6623 147.554 16.2757 147.874 16.7823C148.194 17.289 148.621 17.669 149.154 17.9223C149.701 18.1757 150.301 18.3023 150.954 18.3023ZM165.481 20.1223C164.654 20.1223 163.954 19.9623 163.381 19.6423C162.821 19.309 162.368 18.8823 162.021 18.3623C161.688 17.8423 161.441 17.2823 161.281 16.6823C161.134 16.069 161.061 15.489 161.061 14.9423C161.061 14.209 161.134 13.529 161.281 12.9023C161.428 12.2757 161.668 11.729 162.001 11.2623C162.348 10.7823 162.801 10.409 163.361 10.1423C163.934 9.86234 164.641 9.72234 165.481 9.72234C166.441 9.72234 167.288 9.94234 168.021 10.3823C168.768 10.8223 169.354 11.4357 169.781 12.2223C170.221 12.9957 170.441 13.9023 170.441 14.9423C170.441 15.9557 170.221 16.8557 169.781 17.6423C169.341 18.4157 168.748 19.0223 168.001 19.4623C167.254 19.9023 166.414 20.1223 165.481 20.1223ZM164.801 18.2823C165.481 18.2823 166.068 18.1423 166.561 17.8623C167.068 17.5823 167.461 17.189 167.741 16.6823C168.021 16.1757 168.161 15.5957 168.161 14.9423C168.161 13.9423 167.868 13.129 167.281 12.5023C166.694 11.8623 165.868 11.5423 164.801 11.5423C164.068 11.5423 163.434 11.6823 162.901 11.9623C162.381 12.2423 161.981 12.6357 161.701 13.1423C161.434 13.6357 161.301 14.2357 161.301 14.9423C161.301 15.5823 161.434 16.1557 161.701 16.6623C161.981 17.169 162.381 17.569 162.901 17.8623C163.421 18.1423 164.054 18.2823 164.801 18.2823ZM161.301 5.94234V17.5423C161.301 17.9023 161.281 18.309 161.241 18.7623C161.201 19.2157 161.161 19.5957 161.121 19.9023H159.061V5.94234H161.301ZM171.952 16.6223H174.012C174.119 17.129 174.392 17.5423 174.832 17.8623C175.272 18.169 175.866 18.3223 176.612 18.3223C177.092 18.3223 177.466 18.269 177.732 18.1623C178.012 18.0557 178.206 17.909 178.312 17.7223C178.432 17.5357 178.492 17.3223 178.492 17.0823C178.492 16.789 178.406 16.5623 178.232 16.4023C178.072 16.2423 177.832 16.109 177.512 16.0023C177.192 15.8957 176.792 15.8023 176.312 15.7223C175.819 15.6023 175.332 15.469 174.852 15.3223C174.372 15.1757 173.939 14.9957 173.552 14.7823C173.166 14.5557 172.859 14.2757 172.632 13.9423C172.419 13.5957 172.312 13.1757 172.312 12.6823C172.312 12.229 172.412 11.8223 172.612 11.4623C172.826 11.089 173.119 10.7757 173.492 10.5223C173.866 10.269 174.306 10.0757 174.812 9.94234C175.319 9.79568 175.872 9.72234 176.472 9.72234C177.339 9.72234 178.059 9.86234 178.632 10.1423C179.219 10.4223 179.659 10.8157 179.952 11.3223C180.259 11.829 180.412 12.409 180.412 13.0623H178.452C178.346 12.529 178.139 12.1423 177.832 11.9023C177.526 11.6623 177.066 11.5423 176.452 11.5423C175.839 11.5423 175.372 11.649 175.052 11.8623C174.732 12.0757 174.572 12.369 174.572 12.7423C174.572 13.0223 174.672 13.249 174.872 13.4223C175.086 13.5823 175.386 13.7223 175.772 13.8423C176.159 13.9623 176.612 14.0823 177.132 14.2023C177.612 14.3357 178.066 14.4757 178.492 14.6223C178.919 14.7557 179.299 14.929 179.632 15.1423C179.979 15.3423 180.252 15.609 180.452 15.9423C180.652 16.2757 180.752 16.689 180.752 17.1823C180.752 17.7957 180.586 18.3223 180.252 18.7623C179.932 19.2023 179.466 19.5423 178.852 19.7823C178.239 20.009 177.499 20.1223 176.632 20.1223C175.872 20.1223 175.212 20.0357 174.652 19.8623C174.106 19.689 173.646 19.4623 173.272 19.1823C172.912 18.9023 172.632 18.6023 172.432 18.2823C172.232 17.9623 172.092 17.6557 172.012 17.3623C171.946 17.069 171.926 16.8223 171.952 16.6223Z" fill="white"/>
<path d="M82.3305 47.8139C82.3305 47.6239 82.4005 47.4339 82.5505 47.2839C82.8405 46.9939 83.3205 46.9939 83.6105 47.2839L90.1305 53.8039C90.6105 54.2839 91.3905 54.2839 91.8705 53.8039L98.3905 47.2839C98.6805 46.9939 99.1605 46.9939 99.4505 47.2839C99.7405 47.5739 99.7405 48.0539 99.4505 48.3439L92.9305 54.8639C92.4205 55.3739 91.7305 55.6639 91.0005 55.6639C90.2705 55.6639 89.5805 55.3839 89.0705 54.8639L82.5505 48.3439C82.4105 48.1939 82.3305 48.0039 82.3305 47.8139Z" fill="white"/>
</svg>
