<svg width="300" height="83" viewBox="0 0 300 83" fill="none" xmlns="http://www.w3.org/2000/svg">
<path d="M297.5 17.2396C297.868 17.1853 298.21 17.4393 298.264 17.8068L299.148 23.7963C299.203 24.1639 298.949 24.5058 298.581 24.5601C298.213 24.6144 297.872 24.3604 297.817 23.9929L297.031 18.6689L291.707 19.455C291.34 19.5093 290.998 19.2553 290.943 18.8878C290.889 18.5203 291.143 18.1783 291.511 18.124L297.5 17.2396ZM86.4004 39.8765C107.995 54.3705 144.462 70.6424 183.631 72.3471C222.764 74.0502 264.593 61.2189 297.058 17.504L298.138 18.3062C265.368 62.4319 223.081 75.4107 183.572 73.6912C144.1 71.9733 107.398 55.5899 85.6506 40.9937L86.4004 39.8765Z" fill="url(#paint0_linear_7192_67415)"/>
<path d="M6.32 29.1565C5.78 28.8365 5.18 28.4765 4.62 28.0565C4.42 27.8965 4.2 27.7165 3.98 27.4965C3.82 27.3365 3.66 27.1165 3.52 26.8165C3.36 26.4565 3.32 26.0565 3.4 25.6565C3.5 25.2565 3.68 24.9365 3.88 24.6765C4.14 24.3565 4.4 24.0965 4.68 23.8965C5.02 23.6365 5.36 23.4165 5.7 23.2365C6.54 22.7965 7.4 22.4365 8.2 22.1765C9.14 21.8565 10.04 21.6365 10.86 21.4765C11.14 21.4165 11.42 21.3565 11.68 21.3165C12.32 21.2365 12.8 21.2165 13.16 21.2165C13.52 21.2165 13.78 21.2365 14.04 21.2765C14.16 21.2965 14.3 21.3365 14.42 21.3765C14.52 21.4165 14.64 21.4765 14.76 21.5765C14.86 21.6565 14.96 21.7965 15 21.9565C15.04 22.1165 15.04 22.2765 15 22.3965C14.96 22.5365 14.88 22.6765 14.8 22.7765C14.72 22.8965 14.62 22.9965 14.5 23.0965C14.34 23.2365 14.16 23.3965 13.92 23.5565C13.8 23.6365 13.66 23.7365 13.54 23.8165C13.42 23.8965 13.28 23.9965 13.16 24.0765C12.68 24.3165 13.04 24.1165 12.58 24.3765C12.28 24.5365 11.88 24.3765 11.72 24.1365C11.56 23.8765 11.64 23.5765 12.26 23.3165C12.46 23.2365 12.7 23.1165 12.96 22.9765C13.2 22.8365 13.86 22.5165 14.1 22.2765L14.12 22.2365C14.18 22.1765 14.26 22.1165 14.3 22.0565C14.32 22.0165 14.34 21.9965 14.34 21.9965V22.1165C14.36 22.1765 14.4 22.2365 14.42 22.2365C14.44 22.2365 14.42 22.2365 14.4 22.2165C14.36 22.1965 14.3 22.1965 14.24 22.1765C14.04 22.1365 13.44 22.1965 13.22 22.1965C12.44 22.1965 11.88 22.4165 11.88 22.4165C11.88 22.4165 12.44 22.2365 13.22 22.2365C13.44 22.2365 14.02 22.1965 14.22 22.2365C14.28 22.2565 14.36 22.2565 14.38 22.2765C14.36 22.2565 14.32 22.2165 14.28 22.1365C14.26 22.0565 14.26 22.0165 14.26 21.9965C14.26 21.9765 14.26 21.9765 14.24 22.0165L14.14 22.1165L14.24 22.0165C14.26 21.9765 14.26 21.9565 14.26 21.9765V21.9965C14.26 22.0165 14.26 22.0565 14.28 22.1365C14.28 22.1565 14.3 22.1965 14.3 22.1965C14.32 22.2165 14.32 22.2565 14.34 22.2765L14.36 22.2965C14.38 22.3165 14.4 22.2965 14.38 22.2965H14.36C14.32 22.2765 14.24 22.2565 14.22 22.2565C14.16 22.2565 14.1 22.2165 14.04 22.2165C13.96 22.2165 13.5 22.2765 13.22 22.2765H13.16H13.04C12.8 22.2765 12.54 22.3965 12.3 22.4165C12.04 22.4365 11.78 22.4965 11.52 22.5365C11.5 22.5365 11.48 22.5165 11.52 22.4965C11.62 22.4565 11.5 22.4365 11.08 22.5165C11.04 22.5165 11.02 22.5365 10.98 22.5365C13.62 21.9965 6.6 23.5565 10.76 22.6765C11.08 22.6165 11.06 22.6165 10.94 22.6565C10.76 22.6965 10.54 22.7365 10.36 22.7765C10.12 22.8365 10.16 22.8365 10.18 22.8365C10.2 22.8365 10.22 22.8165 10 22.8765C9.76 22.9365 9.54 23.0165 9.74 22.9565C9.4 23.0365 9.08 23.1565 8.74 23.2565C8.72 23.2565 8.66 23.2965 8.64 23.2965H8.6C8.62 23.2965 8.66 23.2765 8.68 23.2765C8.66 23.2765 8.64 23.2965 8.62 23.2965C8.22 23.4165 7.84 23.5565 7.46 23.7365C7.3 23.7965 7.16 23.8765 7.02 23.9565C6.98 23.9765 6.92 24.0165 6.88 24.0365C6.7 24.1165 6.52 24.2165 6.34 24.3165C6.18 24.3965 6.02 24.4965 5.88 24.5765L5.86 24.5965C5.64 24.7165 5.52 24.7965 5.44 24.8365C5.36 24.8765 5.34 24.8765 5.4 24.8165C5.46 24.7565 5.62 24.6165 5.88 24.4565C6.06 24.3365 6.2 24.2565 6.28 24.2165C6.34 24.1765 6.36 24.1565 6.32 24.1565C6.32 24.1565 6.28 24.1765 6.26 24.1765C6.16 24.2165 5.76 24.4365 5.36 24.7365C5.16 24.8965 4.92 25.0765 4.74 25.3165C4.62 25.4765 4.5 25.6565 4.46 25.8565V25.8765C4.44 26.0365 4.44 26.2365 4.5 26.3765C4.54 26.4965 4.66 26.6365 4.76 26.7365C4.94 26.9165 5.14 27.0765 5.26 27.1765C5.48 27.3565 5.64 27.4565 5.54 27.3965C5.46 27.3365 5.32 27.2565 5.24 27.2165C5.14 27.1565 5.06 27.0965 5.02 27.0765C4.9 27.0165 4.84 26.9565 4.86 26.9365C4.86 26.9365 4.82 26.8565 4.74 26.7565C4.68 26.6765 4.52 26.5365 4.48 26.3965C4.48 26.3765 4.44 26.3365 4.44 26.2965C4.38 26.0965 4.42 25.9365 4.42 25.8565C4.44 25.7365 4.42 25.7365 4.4 25.8565C4.38 25.9165 4.36 26.0165 4.36 26.1365C4.36 26.2365 4.4 26.3365 4.42 26.4165C4.44 26.4965 4.52 26.5765 4.58 26.6565C4.58 26.6565 4.46 26.5365 4.42 26.4165C4.36 26.2765 4.34 26.0965 4.34 26.0965C4.34 25.8765 4.38 25.5565 4.58 25.4165C4.62 25.3965 4.68 25.3565 4.72 25.2965C4.76 25.2565 4.78 25.1765 4.86 25.0765C4.98 24.9165 5.16 24.7365 5.28 24.6365C5.4 24.5565 5.44 24.5365 5.38 24.5965C5.36 24.6365 5.72 24.3765 6.2 24.0965C6.78 23.7765 7.28 23.5765 7.64 23.4165C7.78 23.3565 8.1 23.2165 8.52 23.0765C9.28 22.8165 10.16 22.5965 11.06 22.4165C11.94 22.2565 12.52 22.1165 12.74 22.1165H13.2L13.22 22.0965C13.22 22.0965 13.88 21.9965 14.26 22.0765C14.32 22.0765 14.4 22.0965 14.44 22.1165C14.48 22.1365 14.48 22.1565 14.48 22.1565L14.44 22.0765V22.0165C14.44 22.0165 14.4 22.0765 14.38 22.1165C14.34 22.1765 14.28 22.2365 14.2 22.3165C14.1 22.4165 13.62 22.6965 13.48 22.7965C13.32 22.9165 13.04 23.1165 13.04 23.1165C12.96 23.1765 12.98 23.1965 13.06 23.1365C13.16 23.0765 13.94 22.6565 14.24 22.3565C14.3 22.2965 14.38 22.1965 14.42 22.1365C14.44 22.0965 14.48 22.0565 14.48 22.0365V22.0765L14.52 22.1165C14.52 22.1165 14.5 22.0965 14.46 22.0765C14.42 22.0565 14.34 22.0365 14.26 22.0165C14.08 21.9765 13.54 22.0165 13.36 22.0165H13.2C12.46 22.0165 11.7 22.2565 11.06 22.3765C9.92 22.5965 9 22.8765 8.5 23.0365C8.16 23.1365 8.02 23.1965 8.08 23.1765C9.14 22.6965 6.8 23.6965 6.84 23.6765C6.6 23.7965 6.36 23.9365 6.16 24.0365C5.7 24.2965 5.44 24.4565 5.24 24.5965C5.2 24.6365 5.14 24.6565 5.12 24.6765C4.72 24.9565 4.24 25.4765 4.18 25.9565C4.12 26.4165 4.04 26.9365 6.28 28.0765C6.48 28.1965 6.62 28.2965 6.76 28.3765C6.96 28.5165 7.08 28.5965 7.08 28.6165C7.06 28.6365 7.1 28.6565 7.26 28.7165C7.32 28.7365 7.82 28.9965 8.74 29.5165C9.18 29.7765 9.98 30.2365 10.72 30.7165C11.2 31.0365 11.8 31.4365 12.32 31.9365C12.5 32.1165 12.7 32.3165 12.86 32.5365C12.98 32.6965 13.08 32.8765 13.14 33.0765C13.14 33.0965 13.16 33.1165 13.16 33.1365C13.2 33.3365 13.2 33.5365 13.16 33.7165C13.1 33.9365 12.96 34.1165 12.82 34.2765C12.6 34.4965 12.36 34.6765 12.1 34.8165C11.72 35.0365 11.34 35.1965 10.96 35.3165C10.56 35.5365 10.12 35.6965 9.74 35.8365C9.16 36.0365 8.6 36.1965 8.1 36.3165C6.68 36.6565 5.48 36.7765 4.42 36.7165C3.98 36.6965 3.52 36.6365 3.08 36.5165C2.98 36.4965 2.88 36.4365 2.8 36.4165C2.08 36.1565 1.76 35.7765 1.64 35.6165C1.6 35.5765 1.58 35.5365 1.58 35.5365C1.58 35.5365 1.62 35.5565 1.66 35.5965C1.74 35.6565 1.82 35.7565 1.96 35.8565C2.24 36.0765 2.2 36.0765 1.86 35.7365C1.8 35.6765 2.12 36.0565 2.84 36.3165C3.28 36.4765 3.82 36.5765 4.44 36.5965C5.8 36.6565 7.08 36.4365 8.08 36.1965C8.68 36.0565 9.08 35.9165 9.08 35.9165C9.1 35.9165 8.72 36.0365 8.08 36.1765C7.18 36.3765 5.84 36.6365 4.44 36.5565C3.88 36.5165 3.36 36.4365 2.88 36.2565C2.42 36.0765 2.04 35.8365 1.78 35.5165C1.36 35.0365 1.3 34.4165 1.3 34.2365V34.1965C1.3 32.9565 1.48 33.7965 1.44 33.2965C1.44 33.3365 1.36 33.6965 1.38 34.2365C1.4 34.5965 1.52 35.0765 1.84 35.4565C2.1 35.7765 2.46 36.0165 2.9 36.1765C3.36 36.3565 3.88 36.4365 4.44 36.4765C5.68 36.5565 6.94 36.3765 8.06 36.1165C8.68 35.9765 9.22 35.8165 9.68 35.6565C10.24 35.4565 10.6 35.2965 10.88 35.1365C11.02 35.0765 11.12 35.0165 11.18 34.9965C11.28 34.9365 11.18 34.9965 10.86 35.0965C10.6 35.2365 10.26 35.3965 9.66 35.6165C9.58 35.6365 9.48 35.6965 9.38 35.7165C9.22 35.7765 8.76 35.9165 8.06 36.0765C7.06 36.3165 5.76 36.5365 4.44 36.4565C3.88 36.4165 3.36 36.3365 2.9 36.1565C2.42 35.9765 2.06 35.7165 1.84 35.4365C1.5 35.0165 1.52 34.6765 1.5 34.6765C1.52 34.6765 1.56 35.0165 1.9 35.3965C2.12 35.6565 2.46 35.8765 2.94 36.0565C3.38 36.2165 3.88 36.3165 4.44 36.3365C5.78 36.3965 7.08 36.1565 8.02 35.9365C8.6 35.7965 9 35.6965 9.08 35.6965C9.4 35.5365 9.16 35.6565 9.58 35.4565C9.06 35.6565 8.54 35.7965 8.02 35.9165C6.46 36.2765 5.32 36.2965 4.46 36.2165C4.22 36.1965 4.02 36.1565 3.88 36.1365C3.4 36.0365 3.88 36.0965 4.3 36.0765H4.46C5.5 36.3365 12.7 35.0365 12.7 33.4565C12.7 31.9765 8.08 30.0965 6.32 29.1565ZM9.04 35.7565C8.92 35.7965 8.72 35.8765 8.62 35.8965C8.78 35.8565 8.1 36.0765 8.96 35.8165C9.64 35.6165 9.36 35.6765 9.42 35.6565C9.34 35.6765 9.18 35.7165 9.04 35.7565ZM7.26 28.9565C7.34 28.9965 7.44 29.0565 7.52 29.0965C7.88 29.2965 7.58 29.1165 7.1 28.8365C6.92 28.7365 6.76 28.6365 6.66 28.5765C6.46 28.4565 6.38 28.4165 6.54 28.5165C6.56 28.5365 6.6 28.5765 6.64 28.5965C6.74 28.6565 6.88 28.7165 7 28.7965C7.08 28.8365 7.18 28.9165 7.26 28.9565ZM7.48 28.9565C7.78 29.1165 7.96 29.2165 7.92 29.1765C7.88 29.1365 7.64 28.9965 7.36 28.8365C7.16 28.7165 6.9 28.5565 6.72 28.4565C6.48 28.3165 6.3 28.2365 6.3 28.2365C6.3 28.2365 6.46 28.3565 6.7 28.4965C6.84 28.5765 7 28.6565 7.16 28.7565C7.28 28.8165 7.38 28.8965 7.48 28.9565ZM3.3 36.4765C3.18 36.4565 3.12 36.4165 3 36.3965C3.42 36.5165 2.18 36.1965 3.14 36.4765C3.16 36.4765 3.22 36.4965 3.24 36.4965C3.5 36.5565 3.54 36.5565 3.5 36.5365C3.46 36.5165 3.4 36.4965 3.3 36.4765ZM6.62 36.6565C7.08 36.5965 7.58 36.5165 8.12 36.3965C8.64 36.2765 9.18 36.1165 9.76 35.9165C10.16 35.7765 10.6 35.5965 11 35.3765C11.38 35.2365 11.76 35.0965 12.14 34.8965C12.4 34.7565 12.66 34.5765 12.88 34.3565C13.04 34.1965 13.18 33.9765 13.24 33.7365C13.3 33.5365 13.3 33.3165 13.24 33.1165C13.18 32.8965 13.08 32.6565 12.94 32.4765L12.92 32.4565C12.76 32.2365 12.56 32.0365 12.38 31.8765C11.84 31.3565 11.2 30.9165 10.78 30.6365C10.76 30.6365 10.76 30.6165 10.74 30.6165C10.02 30.1565 8.94 29.5165 8.8 29.4365C8.44 29.2165 8.3 29.1165 8.28 29.0765C8.22 29.0165 8.34 29.0565 8.84 29.3565C9.06 29.4765 9.5 29.7165 9.94 29.9965C10.28 30.2165 10.58 30.4165 10.84 30.5765C11.58 31.0565 11.88 31.3165 12.02 31.4165C12.02 31.4165 12.16 31.4965 11.68 31.1165C11.4 30.8965 11.22 30.7565 11.32 30.8165C11.34 30.8165 11.72 31.0565 12.16 31.4365C12.3 31.5365 12.4 31.6565 12.5 31.7365C12.74 31.9565 12.92 32.1765 12.94 32.1965C12.96 32.2165 12.96 32.1965 12.82 32.0165C12.74 31.9165 12.64 31.8165 12.54 31.7165C11.96 31.1365 11.12 30.5965 10.9 30.5165L10.88 30.4965C10.72 30.4165 10.1 30.0365 9.42 29.6365C9.16 29.4765 9.14 29.4765 8.88 29.3165C8.52 29.0965 8.34 28.9765 8.48 29.0565C8.72 29.1765 8.88 29.2365 8.92 29.2365C8.94 29.2365 8.94 29.2365 8.92 29.2165C8.88 29.1765 8.66 29.0365 8.3 28.8365C7.74 28.5165 7.62 28.4765 7.68 28.5765C7.76 28.6965 7.74 28.6765 7.42 28.4365C7.22 28.2965 7.14 28.1965 7.2 28.2165C7.24 28.2165 7.24 28.2165 7.2 28.1965L8.16 28.7365C8.42 28.8765 8.68 29.0565 8.94 29.1965C9.36 29.4365 9.74 29.6565 10.16 29.9165L10.94 30.3965C11.36 30.6565 11.74 30.9565 12.14 31.2765C12.28 31.3965 12.44 31.5165 12.58 31.6565C12.78 31.8565 12.98 32.0965 13.16 32.3365C13.3 32.5365 13.42 32.7565 13.5 33.0365C13.56 33.2765 13.56 33.5565 13.5 33.8165C13.44 34.0565 13.32 34.2565 13.18 34.4165C13.16 34.4565 13.12 34.4965 13.08 34.5365C12.88 34.7365 12.64 34.8965 12.42 35.0365L12.26 35.1165C12.14 35.1765 12.04 35.2565 11.98 35.2765C11.78 35.3565 11.58 35.4565 11.52 35.4765C11.46 35.4965 11.42 35.5165 11.36 35.5365L11.38 35.5165C11.28 35.5365 11.18 35.5965 11.08 35.6165C11.04 35.6365 10.98 35.6765 10.94 35.6965C10.98 35.6765 11.04 35.6165 11.08 35.5965C11.18 35.5565 11.3 35.4965 11.42 35.4365C11.68 35.2965 11.98 35.1565 12.22 35.0165C12.44 34.8965 12.74 34.7165 13 34.4565C13.16 34.3165 13.32 34.0965 13.42 33.7965C13.44 33.7165 13.48 33.6165 13.48 33.5165C13.5 33.2765 13.44 33.0965 13.44 33.0765C13.44 33.0365 13.46 33.0965 13.46 33.2765C13.46 33.4765 13.42 33.5965 13.42 33.5965C13.42 33.5965 13.42 33.4765 13.4 33.2765C13.38 33.1765 13.44 33.3765 13.34 33.7765C13.28 33.9765 13.16 34.1965 12.96 34.4165C12.78 34.6165 12.54 34.7565 12.26 34.9165L12.2 34.9765C11.84 35.1765 11.44 35.3365 11.02 35.4765L11 35.4965C10.6 35.7165 10.18 35.8765 9.8 36.0165C9.16 36.2365 8.56 36.4165 8.14 36.5165C7.64 36.6365 7.32 36.6965 7.24 36.7165C7.08 36.7565 7.02 36.7965 7.46 36.6965C7.6 36.6765 7.84 36.6365 8.16 36.5565C8.54 36.4765 8.92 36.3365 9.32 36.2165C9.52 36.1565 9.66 36.0765 9.8 36.0365C10.16 35.9165 10.36 35.8165 10.44 35.7965C10.52 35.7765 10.52 35.7965 10.46 35.8565C10.44 35.8765 10.42 35.9165 10.42 35.9165C10.24 35.9965 10.02 36.0765 9.84 36.1365C9.5 36.2565 9.16 36.3565 8.8 36.4565C8.6 36.5165 8.38 36.5765 8.16 36.6165C7.62 36.7365 7.08 36.8565 6.52 36.9165C5.84 36.9965 5.14 37.0365 4.44 36.9965H4.42C4.26 36.9965 4.1 36.9565 3.94 36.9365C4.02 36.9365 4.3 36.9565 4.42 36.9565C4.56 36.9565 4.72 36.9765 4.82 36.9765C5.06 36.9965 5.34 36.9765 5.44 36.9565C5.48 36.9565 5.12 36.9565 4.42 36.9165C4.02 36.8965 3.4 36.8165 2.76 36.5765C2.34 36.4165 1.86 36.1565 1.5 35.7365C1.34 35.5365 1.2 35.3165 1.12 35.0565C1.04 34.7765 1 34.4965 1 34.2565C1 33.5565 1.18 32.9165 1.26 32.6365C1.34 32.2965 1.38 32.1565 1.36 32.1565C1.34 32.1565 1.26 32.3165 1.16 32.6765C1.08 32.9965 0.94 33.5965 1.02 34.2565C1.02 34.2765 1.04 34.3165 1.04 34.3365C1.06 34.2165 1.08 34.3165 1.1 34.4765C1.12 34.6365 1.12 34.7965 1.1 34.7965C1.08 34.7965 1.1 34.8965 1.2 35.0565C1.22 35.0965 1.38 35.4365 1.58 35.6765C1.74 35.8565 1.94 36.0565 2.28 36.2565C2.44 36.3565 2.62 36.4365 2.78 36.4965C3.22 36.6565 3.56 36.6765 3.56 36.6765C3.56 36.6765 3.88 36.7565 4.42 36.7765C5.02 36.7965 5.74 36.7765 6.62 36.6565ZM12.84 32.2165C12.9 32.2965 12.96 32.3565 13.02 32.4165C13.04 32.4365 13.06 32.4765 13.08 32.4965C12.98 32.3565 13.34 32.8565 13.04 32.4165C13 32.3565 12.92 32.2765 12.86 32.1965C12.88 32.2365 12.16 31.4365 12.6 31.9365C12.66 32.0165 12.76 32.1165 12.84 32.2165ZM7.32 28.5165C7.28 28.4965 7.24 28.4565 7.2 28.4365C7.12 28.3965 7.04 28.3365 7 28.3165C6.94 28.2765 7.04 28.3165 7.24 28.4365C7.26 28.4565 7.3 28.4565 7.32 28.4765C7.6 28.6365 7.68 28.6965 7.46 28.5965C7.42 28.5765 7.36 28.5365 7.32 28.5165ZM8.4 36.5365C8.34 36.5565 8.22 36.5565 8.16 36.5765C8.08 36.5965 8 36.6165 7.94 36.6365C7.84 36.6565 7.66 36.7165 8.16 36.5965C8.2 36.5965 8.24 36.5765 8.28 36.5765C8.94 36.4165 8.78 36.4365 8.78 36.4365C8.7 36.4565 8.54 36.4965 8.4 36.5365ZM8.98 22.9965C8.92 23.0165 8.84 23.0565 8.78 23.0765C8.44 23.1965 8.74 23.0765 9.1 22.9765C9.5 22.8565 9.78 22.7765 9.56 22.8165C9.48 22.8365 9.34 22.8765 9.2 22.9165C9.14 22.9365 9.04 22.9765 8.98 22.9965ZM7.06 23.8165C6.88 23.8965 6.8 23.9565 6.84 23.9565C6.92 23.9365 7.6 23.6365 8.38 23.3565C8.46 23.3365 8.54 23.2965 8.6 23.2765C9.26 23.0365 9.74 22.8965 9.66 22.8965C9.6 22.8965 9.14 23.0365 8.58 23.2165C8.42 23.2765 8.26 23.3365 8.08 23.3965C8.04 23.4165 7.96 23.4365 7.92 23.4565C7.54 23.5965 7.24 23.7365 7.06 23.8165ZM18.3402 27.5765H18.4802C19.3402 27.6765 19.7402 28.6365 19.6602 29.0565C19.5202 29.6365 19.0602 30.1565 18.2402 30.7165C17.4802 31.2365 16.6402 30.9965 16.6402 30.9965C16.3002 31.4165 16.2002 32.5165 17.0002 32.5565C17.8402 32.5765 19.4802 31.3765 20.4002 30.6365C20.1602 30.8565 19.8602 31.1165 19.4802 31.4765C19.2802 31.6565 19.2602 31.6765 20.5002 30.7165C21.4402 30.0165 22.4602 29.1165 21.0202 30.3765C19.5602 31.6965 24.5402 27.4965 21.5602 30.1765C23.6602 28.5565 22.0802 29.8965 21.9002 30.1565C21.2802 30.6965 21.3402 30.6165 21.0002 30.8765C20.9402 30.9165 20.3602 31.3565 20.5802 31.2565C20.7402 31.1765 20.9002 31.0565 21.2402 30.7565C21.4202 30.6565 21.6002 30.5165 21.6202 30.5165C20.4002 31.6765 18.6202 33.1165 16.9802 33.2165C16.4402 33.2365 15.8202 32.8365 15.5802 32.3165C15.1002 31.2765 15.4802 29.1965 17.1602 27.9965C17.6002 27.6765 18.0002 27.5765 18.3402 27.5765ZM20.4002 30.6365C21.1602 30.0165 21.4402 29.7165 20.4002 30.6365V30.6365ZM18.5402 28.4965C18.0802 28.4965 16.8002 29.9565 17.0602 30.0565C17.3802 30.1765 18.9602 28.8365 18.6002 28.4965H18.5402ZM16.1202 29.9165C16.1202 29.9165 15.6202 30.8565 15.6602 31.5365C15.6802 32.1165 16.0002 32.4365 16.1202 32.5565C16.0002 32.4165 15.7202 32.0165 15.7202 31.5365C15.7402 31.0165 16.1202 29.9165 16.1202 29.9165ZM19.1402 31.7165C18.8002 32.0365 17.5402 32.7165 17.5002 32.6565C17.4402 32.9365 19.2602 31.7565 19.1402 31.7165ZM28.2577 19.5565C28.4977 19.5565 28.9377 19.7165 29.0777 20.2565C29.6777 22.2565 23.7377 29.8565 22.6777 30.1565C22.1377 30.8365 21.6177 34.7565 22.5577 34.5165C24.0177 34.1365 26.2777 31.0965 27.1177 30.2765C27.2977 29.6365 27.5177 29.0565 27.6377 28.6765C28.6177 26.0965 29.4977 24.3165 31.2177 22.0165C32.0177 20.9565 32.8977 19.6965 33.8977 19.6365H33.9377C34.1777 19.6365 34.6377 19.7965 34.7577 20.3365C35.2977 22.1965 29.9577 28.5365 28.1177 29.9765C27.8377 30.5565 27.3577 32.7965 27.7377 33.1565C28.2977 33.7165 29.0377 32.8965 31.0577 30.9365C31.1977 30.8965 31.2577 30.6165 31.4577 30.5765C31.6977 30.4165 31.7177 30.3765 31.6977 30.3565C31.6577 30.2565 32.3777 29.7765 32.4777 29.5765C33.7977 28.5365 30.8577 31.7565 29.9377 32.6765C31.3577 31.6365 32.5377 29.6765 32.2777 30.2565C32.3577 30.1365 32.5377 30.0965 32.5777 30.0765C32.5977 30.0765 32.6377 30.0565 32.6377 30.0565C32.6377 30.0565 32.6177 30.0965 32.6177 30.1165C32.5977 30.1565 32.5577 30.1965 32.5377 30.2365C32.5777 30.2165 32.6177 30.1565 32.6577 30.1365C32.9977 29.8165 32.9977 29.7565 32.8777 29.9565C32.7977 30.0365 32.7377 30.1165 32.6777 30.1765L32.2577 30.5965C32.1977 30.6765 32.1177 30.7165 32.0777 30.7565C31.0577 31.7765 29.6577 33.7165 28.6777 33.8565C27.6977 33.9965 26.9577 33.4965 26.8377 32.5365C26.7977 32.1565 26.8177 31.6965 26.8977 31.2565C26.5377 31.7765 26.0377 32.2965 25.0577 33.4365C24.2577 34.3765 23.4977 34.9765 22.9177 35.2565C21.7177 35.5965 21.0377 34.2565 21.0977 32.8565C21.3177 28.1365 24.8977 22.6965 25.4977 21.9565C26.0177 21.3165 27.1377 19.6565 28.2177 19.5565H28.2577ZM27.9377 20.1965C27.6377 20.1965 25.9377 22.3565 25.5177 23.3965C24.8577 24.4365 27.2577 20.5965 27.9777 20.2165L27.9377 20.1965ZM33.5977 20.2765C33.2977 20.2765 31.5577 22.4165 31.1377 23.4565C30.4777 24.4765 32.8977 20.6765 33.6377 20.2965L33.5977 20.2765ZM28.3577 20.3365C27.5977 20.3565 25.6977 23.2165 24.3977 25.6965C23.8577 26.7365 23.3577 27.8765 22.8377 29.1365L22.8777 29.1165C24.3777 28.0565 29.6377 20.2365 28.4377 20.3565C28.4177 20.3565 28.3777 20.3365 28.3577 20.3365ZM34.0177 20.4165C33.2577 20.4365 30.9577 23.8365 30.0177 25.6365C29.6377 26.1165 28.5577 28.5165 28.3777 28.9965C30.1577 27.2565 35.3177 20.3165 34.0977 20.4365C34.0777 20.4365 34.0377 20.4165 34.0177 20.4165ZM28.8177 21.0165C28.7977 21.0165 28.7577 21.0165 28.7177 21.0565C28.8177 21.1965 28.2377 22.5965 27.5377 23.7165C26.4577 25.4365 25.3977 26.6365 25.9777 26.1765C27.7377 23.8565 29.0377 21.0365 28.8177 21.0165ZM34.4577 21.0965C34.4377 21.0965 34.4177 21.1165 34.3777 21.1565C34.4777 21.2965 33.8777 22.6765 33.1777 23.7965C32.0977 25.5165 31.3177 26.0965 31.8977 25.6565C33.6777 23.3565 34.6777 21.1165 34.4577 21.0965ZM26.3977 21.5965C24.4777 23.6565 22.0777 29.7165 22.4377 29.3165C22.5377 29.2165 22.7777 28.1765 23.4577 26.6765C23.6977 26.1165 24.1577 25.3965 24.4977 24.5965C25.1177 23.4365 26.0977 21.9565 26.3977 21.5965ZM32.0577 21.6565C30.1377 23.6965 27.6377 29.7565 27.9977 29.3765C28.0977 29.2765 28.3777 28.1965 29.0577 26.7165C29.3177 26.1765 29.7777 25.4365 30.1377 24.6365C30.7577 23.4765 31.7577 22.0165 32.0577 21.6565ZM25.3377 23.7165C25.3377 23.7165 25.2977 23.7565 25.1577 23.9365C24.9977 24.1365 24.6777 24.7765 24.4177 25.2565C24.7777 24.6365 25.3177 23.7565 25.3177 23.7565L25.3377 23.7165ZM30.9777 23.7765C30.9777 23.7765 30.9177 23.8165 30.7777 23.9965C30.6177 24.1965 30.2777 24.8365 30.0177 25.3165C30.3977 24.6965 30.9577 23.8165 30.9577 23.8165L30.9777 23.7765ZM26.9177 24.3765V24.3965C26.9377 24.3965 25.1177 26.8165 25.2377 26.7365C25.5977 26.4565 26.9577 24.3765 26.9177 24.3765ZM32.5377 24.4565V24.4765C32.4577 24.6165 30.5777 26.8965 30.6977 26.8365C31.0577 26.5565 32.5777 24.4565 32.5377 24.4565ZM25.8777 26.2965C25.8777 26.2965 25.8377 26.3365 25.7777 26.4165C25.7777 26.4365 24.2977 28.2965 24.4777 28.0965C24.8577 27.7765 25.8777 26.3165 25.8777 26.2965ZM25.6377 26.4165C25.6377 26.4165 23.7977 28.5965 23.9377 28.4965C24.0777 28.3965 25.5977 26.5165 25.6377 26.4165ZM28.8177 26.5765C28.8177 26.5765 28.7977 26.6165 28.7777 26.6765C28.6377 27.0165 28.3377 27.7765 28.1777 28.1965C27.9977 28.6565 27.6377 29.4565 27.5977 29.6965C27.9777 28.7365 28.6177 27.2165 28.7777 26.7765L28.8177 26.5765ZM23.7777 26.6165C22.9777 28.1965 23.3977 27.4965 23.1777 27.9565C22.9977 28.3565 22.6977 29.1365 22.6977 29.1565L23.7777 26.6165ZM30.5577 27.2165C30.5577 27.2165 28.5177 29.2965 28.6577 29.1965C28.7977 29.0965 30.5177 27.2965 30.5577 27.2165ZM33.5577 29.0765C33.5777 29.0765 33.4177 29.2965 32.8977 29.7765L32.8777 29.7965C33.1977 29.3765 33.5177 29.0765 33.5577 29.0765ZM32.8777 29.7965C32.8577 29.8365 32.8177 29.8565 32.7977 29.8965C32.7577 29.9165 32.7977 29.8765 32.8777 29.7965ZM33.4577 29.1165C33.4577 29.1165 33.2977 29.3365 32.8977 29.7365C32.8577 29.7765 32.7777 29.8165 32.7777 29.8165C32.7777 29.8165 32.7977 29.7365 32.8377 29.6965C33.2377 29.3165 33.4577 29.1165 33.4577 29.1165ZM27.7777 30.2565C26.9977 31.8965 27.3377 33.1165 27.5177 33.0165C27.5177 33.0165 27.2777 32.9565 27.3977 31.8365C27.4577 31.2965 27.7177 30.7965 27.7777 30.2565ZM22.1977 30.4565C21.6377 31.9965 21.7577 34.2765 21.9377 34.1765C21.8177 33.8965 21.7777 32.5965 21.9577 31.5965C22.0177 31.0565 22.1377 30.9965 22.1977 30.4565ZM26.9577 30.9165C26.5577 31.3765 26.1577 31.8965 25.8177 32.2365C24.4777 33.7565 24.3777 33.9765 24.3777 33.9765C25.0377 33.3165 25.4577 32.7365 26.4377 31.6365C26.4577 31.6165 26.7377 31.2565 26.9377 31.0365C26.9377 30.9965 26.9577 30.9565 26.9577 30.9165ZM31.6777 30.5965C31.2577 31.1565 29.4577 32.8365 29.0177 33.1565C29.5377 32.7965 31.1577 30.9165 31.6777 30.5965ZM25.3977 32.4165C25.0377 32.8365 24.5577 33.3565 24.0977 33.7965C23.5577 34.3165 23.0177 34.7365 22.6177 34.8165C22.6177 34.8165 22.9377 34.9565 24.0377 33.9365C25.0977 32.9365 25.3977 32.4165 25.3977 32.4165ZM41.8166 29.4965C42.6766 28.8965 43.4166 29.2765 43.8166 30.0165C44.1566 30.6565 44.2766 31.6165 44.2766 32.1565C44.9166 31.6765 48.4566 29.0965 44.2966 32.4165V32.6365L46.0766 31.2165C46.2966 31.0565 46.8366 30.5565 48.8766 29.1965C48.9166 29.1765 46.7166 30.7565 46.3166 31.1565C46.9166 30.7565 47.5166 30.1565 48.5966 29.5565C45.2166 32.1765 46.0166 31.4765 44.2766 32.9565C44.2766 33.3965 44.2366 33.9165 44.1566 35.1565C43.6366 40.2165 41.4166 44.6965 39.6966 45.8965C38.7366 46.5565 37.3766 47.0765 36.2566 46.1165C33.1766 42.7565 42.8766 33.1765 43.4566 32.9765C43.5366 31.8565 43.4966 30.7965 43.1366 30.2365C42.1766 28.7365 40.6366 32.8365 39.8366 33.7165C38.5766 35.1765 37.3166 33.7965 37.4566 32.5365C37.5766 31.4965 38.0566 29.5565 38.2366 29.4765C38.5766 29.3165 39.5166 29.2365 39.0566 30.3165C38.8366 30.8365 38.4766 31.6965 38.3966 32.9565C38.3166 34.2165 40.4966 30.4165 41.8166 29.4965ZM48.3566 29.3765V29.3965L47.0166 30.2965C47.0166 30.2965 46.3166 30.8365 46.3566 30.7165C46.4766 30.5165 48.2566 29.3765 48.3566 29.3765ZM41.9566 29.7165C41.7766 29.7965 40.7166 30.9565 41.2366 30.6765C40.6766 31.2365 39.9566 32.5365 39.7766 32.8765C40.1766 32.2765 41.9766 29.7765 41.9566 29.7165ZM40.9366 30.7365C40.7566 30.7765 39.8766 32.0765 39.8766 32.0765C39.8766 32.0765 41.0166 30.7765 40.9366 30.7365ZM39.7766 32.1765C39.0566 33.1765 39.0766 32.9365 39.0566 33.1365C39.0366 33.3365 39.7766 32.1765 39.7766 32.1765ZM43.3966 32.8565C42.4166 33.6165 41.4366 34.6165 40.7566 35.3565C39.4966 36.7165 39.6966 36.5765 39.5366 36.7965C39.3366 37.0965 39.0966 37.2365 39.4766 36.7365C41.7566 33.9765 43.3766 32.8565 43.3966 32.8565ZM43.4366 33.3565C42.4566 33.4765 35.4766 41.5565 36.0366 43.7165C35.9966 43.4965 36.1766 42.9565 36.5766 42.1565C36.9166 40.9365 37.7166 39.8965 38.1966 39.0765C37.9566 39.7965 37.9566 39.5965 36.9766 41.4365C36.9766 41.4565 36.9366 41.4965 36.9366 41.5165C38.0966 39.4365 40.3366 36.2765 43.4366 33.3565ZM43.4166 33.7365C42.5366 34.4965 41.4166 35.6965 40.2966 37.0965C39.7366 37.8765 38.0166 40.1765 37.8966 40.4565C37.7766 40.7565 37.6766 40.8765 37.7166 40.7165C37.4766 41.1165 37.2166 41.4965 37.0166 41.8765C36.8166 42.2565 36.6366 42.6565 36.5166 43.0565C36.4766 43.2965 36.4566 43.5165 36.4566 43.6565C36.4566 43.5365 36.4366 43.4165 36.4366 43.2965C36.0766 44.5965 36.2166 45.7765 37.3366 45.7565C38.0966 45.7565 38.7766 45.1765 40.2766 43.4765C41.5766 41.9965 43.1166 37.3565 43.4166 33.7365ZM36.4566 43.6565C36.4566 43.7165 36.4966 43.7565 36.4966 43.8165C36.4766 43.8165 36.4566 43.7565 36.4566 43.6565ZM43.6966 33.8765C43.6966 33.8765 43.2766 36.7965 43.0966 37.4765C42.9166 38.1565 42.8566 38.3765 42.9566 38.3765C43.0566 38.3765 43.6966 33.8765 43.6966 33.8765ZM39.0966 37.9565C39.1366 37.9765 38.6766 38.6165 38.4966 38.8365C38.3766 38.9965 38.2566 39.1165 38.2966 38.9965C38.3366 38.8765 39.0566 37.9965 39.0566 37.9965L39.0966 37.9565ZM42.8766 38.4765C42.8566 38.5165 41.9566 41.0365 41.7566 41.4765C41.5566 41.9165 41.6566 41.8965 41.7366 41.7165C41.9166 42.2765 39.2366 45.8965 38.5566 45.6965C38.8366 45.9565 41.6966 43.8365 43.0166 38.9165C42.9366 39.0365 41.9766 41.4765 41.9566 41.4965C41.7966 41.6965 42.4166 40.1965 42.7766 39.0565C42.8766 38.7765 42.8766 38.5165 42.8766 38.4765ZM41.5366 41.9165C41.5366 41.9165 40.5766 43.3965 40.7366 43.2565C40.8966 43.1165 41.5366 41.9165 41.5366 41.9165ZM41.0966 43.5565C41.0966 43.5565 39.8966 45.6165 38.5766 46.0565C37.6366 46.3765 38.6166 46.2965 39.3166 45.7365C40.2366 44.9965 40.7766 44.2165 40.9166 43.9965C41.0566 43.7565 41.0966 43.5565 41.0966 43.5565ZM51.1794 30.7365C50.9194 30.9765 51.7394 30.6765 52.6994 30.1165C52.7394 30.0965 53.1394 29.8765 53.0194 29.9965C52.7994 30.2365 52.1994 30.6765 52.2394 30.6565C52.3394 30.6165 53.1994 30.0765 53.2194 30.1165C53.2394 30.1565 52.6194 30.6565 51.8794 31.0765C51.6794 31.1965 51.1594 31.4565 50.2194 31.6965C49.9194 32.2365 49.4394 33.0565 48.6594 33.6165C48.1794 33.9165 47.6394 33.8965 47.0394 33.2365C45.7994 31.8965 48.2794 29.1965 48.3194 29.1765C48.6594 28.9365 48.8594 29.3365 49.3594 29.1765C49.5194 29.0965 50.0394 29.2365 50.3994 29.7165C50.6194 30.0165 50.4994 30.8965 50.4794 30.9365C50.8994 30.8165 51.1594 30.6365 51.8194 30.3765C52.0194 30.2965 52.4594 30.0965 52.5394 30.0365C52.7794 30.1365 51.0594 30.8165 51.1794 30.7365ZM52.4994 30.3165C52.1394 30.5365 51.5594 30.8165 51.2994 30.9165C51.2394 30.9965 52.3194 30.5565 52.4994 30.3165ZM49.5394 29.8965H49.5194H49.4994C49.0394 29.9565 48.8794 31.0965 49.2794 31.1765C49.5994 31.1365 49.7794 29.8965 49.5394 29.8965ZM48.3794 30.9365C48.3794 30.9365 47.0594 33.0765 47.7994 33.1365C48.4594 33.1765 49.2394 31.6365 49.2594 31.6165C48.7394 31.5165 48.5194 31.1365 48.3794 30.9365ZM53.177 29.4365C53.497 29.4365 53.837 29.6565 53.617 29.9165C53.217 30.1565 52.297 31.9765 52.777 31.9965C53.457 31.8965 54.237 30.7565 54.937 30.1765C55.617 29.5565 56.237 30.2165 56.297 30.8765C56.377 31.7165 56.417 31.8365 56.597 31.8565C57.617 31.6965 59.117 30.4965 59.957 29.7765C60.197 29.9365 58.057 31.3165 58.237 31.2565C58.457 31.1765 58.877 30.8765 59.377 30.4565C59.417 30.4165 59.777 30.0165 59.717 30.1565C59.597 30.4365 60.197 29.7765 60.417 29.5565C60.677 29.3965 60.057 30.3365 59.677 30.6965C58.717 31.5965 57.117 32.8165 56.257 32.2765C55.637 31.8765 55.417 31.0165 55.417 31.0165C55.417 31.0165 53.637 32.8965 52.937 32.6765C52.237 32.4565 51.837 32.0365 51.977 31.2965C52.057 30.8765 52.537 30.0765 52.837 29.6165C52.897 29.4965 53.037 29.4365 53.177 29.4365ZM58.677 31.1565C58.617 31.2365 57.897 31.7565 57.897 31.7565C57.897 31.7565 57.857 31.9565 58.817 31.2165C59.137 30.9965 59.677 30.4565 59.737 30.3765L58.677 31.1565ZM60.8678 27.1765C61.2278 27.1765 61.5878 27.3965 61.8078 27.8965C62.0478 28.9165 60.2478 29.2365 60.7678 30.1765C60.9078 30.4365 61.3478 30.8965 61.5278 31.1965C61.9678 31.9565 61.9478 32.5565 61.4078 33.1765C60.3478 34.3765 60.0078 35.0765 60.0878 35.2965C60.2078 35.5365 61.0878 34.6165 61.9878 33.7365C63.2278 32.5365 65.0078 30.5965 66.4078 29.1965C65.8678 30.1365 64.2278 31.5965 63.3478 32.6565C63.8878 32.1165 66.2278 29.7165 66.2278 29.7165L64.1278 32.2165C64.1278 32.2165 63.9878 32.4165 64.0078 32.4165C64.7278 31.4565 65.2478 31.1965 65.8078 30.3565C65.4478 31.0565 64.6678 32.0165 63.8878 32.9565C62.5678 34.5365 62.3078 34.8365 61.3678 35.6965C60.1878 36.7765 59.0878 35.8965 59.0678 35.0565C59.0078 33.3565 61.4478 32.2565 60.6478 31.1765C59.8878 30.1765 58.7078 29.3165 59.5478 27.9965C59.8478 27.5565 60.3878 27.1765 60.8678 27.1765ZM61.1478 32.0365C60.9678 32.7765 60.4678 33.1365 59.9078 34.0165C59.7278 34.3165 59.5078 34.7365 59.6678 35.1765C59.6278 34.8765 59.7678 34.4365 60.0878 33.9365C60.3278 33.5565 61.1478 32.6965 61.1478 32.0365ZM63.6878 32.6365C63.1078 33.1965 62.2078 34.2165 60.9278 35.4165C61.3878 35.1365 61.6078 34.8765 62.1878 34.2965C62.7078 33.7765 63.6478 32.8565 63.6878 32.6365ZM72.4355 30.1765C73.3355 29.1365 75.2555 27.7965 76.2355 29.1965C76.6555 29.7965 76.5955 30.8765 76.2155 31.1965C76.0155 31.3765 75.9955 31.3765 75.6755 31.5965C76.5155 31.1565 77.5755 30.6165 78.5955 30.2165C78.4555 30.3165 78.0955 30.5165 77.2155 31.0365C76.8955 31.2565 79.5555 29.7765 79.5955 29.8965C79.5955 29.9365 78.9955 30.2965 77.2355 31.2365C76.6155 31.6365 76.5555 31.6565 76.4355 31.7365C77.0355 31.4965 77.6755 30.9565 78.4355 30.7765C77.3555 31.4165 77.1355 31.5765 75.8755 32.3165C75.7555 32.4365 74.9355 33.7365 74.0155 34.2165C73.1155 34.6965 72.4355 33.9965 72.9955 33.3765C73.7555 32.5565 74.5555 32.2165 74.9555 31.9765C75.1755 31.8565 76.2755 29.6365 75.6155 29.2365C74.7155 28.6965 72.2755 31.2365 72.0955 31.7365C71.2155 33.0165 70.5755 34.7165 70.3955 35.2565C69.9755 36.5565 69.3555 38.2565 69.2955 38.6565C69.2955 38.7365 69.2555 38.8765 69.2155 39.0565L69.0955 39.2765C68.6555 40.8565 68.7155 40.6365 68.4955 41.6565C68.2155 41.7565 68.9755 39.0365 69.0755 38.8965C69.1555 38.7965 69.5955 37.3765 69.3355 38.0965C69.2355 38.3765 69.1155 38.4565 69.2755 37.9165C69.3755 37.6165 69.5155 37.3765 69.4955 37.4165C69.4755 37.4365 69.4955 37.3365 69.5355 37.1565C69.8755 36.0765 68.7755 38.6965 68.8755 38.9765C68.8555 39.0565 68.8355 39.1165 68.8155 39.1965C68.7555 39.5365 68.6555 39.8565 68.5355 40.1965C68.1755 41.9165 68.0155 44.0165 68.4955 43.7965C68.7155 43.6965 69.0355 43.4765 69.3955 43.1965C69.1155 43.5565 68.6155 43.9565 69.3355 43.3965C69.4155 43.3365 69.7755 42.9765 69.7555 43.0165C69.7155 43.0965 68.8955 44.0565 69.4955 43.5965C69.5355 43.5765 69.3955 44.0965 68.7955 44.2965C67.9955 44.5165 67.5955 43.6565 67.5355 43.0765C67.3355 41.0965 68.4955 37.8765 69.2755 35.3165C69.8555 33.6565 70.5955 31.7365 71.2355 30.3165C71.3955 30.0565 71.8355 28.5365 72.0555 28.8965C72.4755 29.0165 72.7355 29.5365 72.6355 29.8365C72.5555 30.0765 72.2355 30.3565 72.4355 30.1765ZM75.0155 29.0365C74.5155 29.1765 74.0955 29.3165 73.3955 29.9365C73.7555 29.7565 73.6355 29.6765 74.2755 29.3765C74.3755 29.2965 75.0155 29.0365 75.0155 29.0365ZM73.1555 29.8365C73.4555 29.5965 74.3355 28.8965 74.1155 29.0765C74.0355 29.1565 73.1355 29.5165 72.3755 30.5765C72.3755 30.5965 72.8955 30.0365 73.1555 29.8365ZM71.7755 31.7565C71.3155 31.9765 70.3755 34.2565 70.1955 34.9365C70.4555 34.4165 71.0155 32.7165 71.7755 31.7565ZM74.8555 32.8365C74.8555 32.8365 73.3355 33.7965 73.5355 33.6965C73.6955 33.6165 74.0755 33.4165 74.8555 32.8365ZM70.0355 35.3965L70.0155 35.4165C69.9555 35.4965 69.7955 35.8765 69.7155 36.1565C69.6755 36.2765 69.6355 36.3965 69.6355 36.4365C69.6355 36.5165 69.6755 36.4765 69.7155 36.3165C69.7555 36.1965 69.8555 35.9365 69.9355 35.7165C69.9555 35.6565 69.9755 35.5965 69.9955 35.5565C69.9955 35.5365 70.0155 35.5165 70.0155 35.5165V35.4765C70.0355 35.4365 70.0355 35.3965 70.0355 35.3965ZM69.4355 37.2565C69.4355 37.2565 69.4155 37.2765 69.4155 37.3165V37.3365C69.3955 37.3965 69.3955 37.4165 69.4155 37.3765C69.4155 37.3565 69.4355 37.3365 69.4355 37.3165C69.4355 37.2965 69.4555 37.2565 69.4555 37.2565H69.4355ZM68.9955 37.5365C68.6355 37.8565 67.5155 42.2765 67.9155 42.6365C67.8355 42.3165 68.1355 40.2165 68.3155 39.9565V39.4565C68.4355 39.5765 69.0355 37.6165 68.9955 37.5365ZM79.8522 27.1765C80.2122 27.1765 80.5722 27.3965 80.7922 27.8965C81.0322 28.9165 79.2322 29.2365 79.7522 30.1765C79.8922 30.4365 80.3322 30.8965 80.5122 31.1965C80.9522 31.9565 80.9322 32.5565 80.3922 33.1765C79.3322 34.3765 78.9922 35.0765 79.0722 35.2965C79.1922 35.5365 80.0722 34.6165 80.9722 33.7365C82.2122 32.5365 83.9922 30.5965 85.3922 29.1965C84.8522 30.1365 83.2122 31.5965 82.3322 32.6565C82.8722 32.1165 85.2122 29.7165 85.2122 29.7165L83.1122 32.2165C83.1122 32.2165 82.9722 32.4165 82.9922 32.4165C83.7122 31.4565 84.2322 31.1965 84.7922 30.3565C84.4322 31.0565 83.6522 32.0165 82.8722 32.9565C81.5522 34.5365 81.2922 34.8365 80.3522 35.6965C79.1722 36.7765 78.0722 35.8965 78.0522 35.0565C77.9922 33.3565 80.4322 32.2565 79.6322 31.1765C78.8722 30.1765 77.6922 29.3165 78.5322 27.9965C78.8322 27.5565 79.3722 27.1765 79.8522 27.1765ZM80.1322 32.0365C79.9522 32.7765 79.4522 33.1365 78.8922 34.0165C78.7122 34.3165 78.4922 34.7365 78.6522 35.1765C78.6122 34.8765 78.7522 34.4365 79.0722 33.9365C79.3122 33.5565 80.1322 32.6965 80.1322 32.0365ZM82.6722 32.6365C82.0922 33.1965 81.1922 34.2165 79.9122 35.4165C80.3722 35.1365 80.5922 34.8765 81.1722 34.2965C81.6922 33.7765 82.6322 32.8565 82.6722 32.6365ZM88.2302 30.7365C87.9702 30.9765 88.7902 30.6765 89.7502 30.1165C89.7902 30.0965 90.1902 29.8765 90.0702 29.9965C89.8502 30.2365 89.2502 30.6765 89.2902 30.6565C89.3902 30.6165 90.2502 30.0765 90.2702 30.1165C90.2902 30.1565 89.6702 30.6565 88.9302 31.0765C88.7302 31.1965 88.2102 31.4565 87.2702 31.6965C86.9702 32.2365 86.4902 33.0565 85.7102 33.6165C85.2302 33.9165 84.6902 33.8965 84.0902 33.2365C82.8502 31.8965 85.3302 29.1965 85.3702 29.1765C85.7102 28.9365 85.9102 29.3365 86.4102 29.1765C86.5702 29.0965 87.0902 29.2365 87.4502 29.7165C87.6702 30.0165 87.5502 30.8965 87.5302 30.9365C87.9502 30.8165 88.2102 30.6365 88.8702 30.3765C89.0702 30.2965 89.5102 30.0965 89.5902 30.0365C89.8302 30.1365 88.1102 30.8165 88.2302 30.7365ZM89.5502 30.3165C89.1902 30.5365 88.6102 30.8165 88.3502 30.9165C88.2902 30.9965 89.3702 30.5565 89.5502 30.3165ZM86.5902 29.8965H86.5702H86.5502C86.0902 29.9565 85.9302 31.0965 86.3302 31.1765C86.6502 31.1365 86.8302 29.8965 86.5902 29.8965ZM85.4302 30.9365C85.4302 30.9365 84.1102 33.0765 84.8502 33.1365C85.5102 33.1765 86.2902 31.6365 86.3102 31.6165C85.7902 31.5165 85.5702 31.1365 85.4302 30.9365ZM98.9078 17.0965C99.1478 17.0965 99.6278 17.2165 99.7878 17.8165C100.508 20.0365 94.6478 29.0765 93.5878 29.4765C93.3478 30.1365 93.0278 32.2565 93.4478 32.5965C93.8678 33.1965 95.1278 32.3165 95.9878 31.4165C96.4878 30.9565 95.7078 31.3765 96.4878 30.9365C96.6278 30.8965 96.6878 30.5565 96.8878 30.5165C97.1078 30.3365 97.1278 30.2965 97.1078 30.2765C97.0678 30.1565 97.9278 29.6365 98.0078 29.4165C99.2678 28.3565 96.1278 31.9765 95.2478 32.6765C96.5478 31.8165 97.7278 29.8965 97.7678 30.1765C97.8478 30.0365 97.9278 29.9165 97.9678 29.8965H98.0278V29.9365C98.0078 29.9765 97.9478 30.0365 97.9278 30.0765C97.9678 30.0365 98.0078 30.0165 98.0478 29.9765C98.3678 29.5965 98.3678 29.5165 98.2678 29.7565C98.1878 29.8365 98.1278 29.9365 98.0678 29.9965C97.9478 30.1565 97.8278 30.3165 97.6878 30.4965C97.6278 30.5765 97.5478 30.6765 97.5078 30.7165C96.5478 31.9365 95.6078 33.0365 94.2078 33.3365C93.2278 33.5565 92.6878 33.0165 92.5078 31.9365C92.4478 31.5565 92.4278 31.1565 92.4678 30.7365C91.8478 31.4965 91.1278 32.1765 90.5478 32.3565C89.7678 32.5965 89.1878 32.3765 89.0078 31.3365C88.9078 30.7365 89.4678 29.2565 90.7878 28.4965C91.3878 28.1565 92.2278 28.2365 92.8678 28.6565C92.9478 28.3365 93.0278 28.0565 93.0678 27.8365C93.9078 24.8965 94.7078 22.5565 96.3078 19.8965C97.0478 18.6565 97.8678 17.2165 98.8678 17.0965H98.9078ZM98.6078 17.8165C98.3078 17.8365 96.7078 20.3565 96.3278 21.5365C95.7278 22.7365 97.9278 18.2965 98.6478 17.8365C98.6478 17.8365 98.6278 17.8165 98.6078 17.8165ZM99.0678 17.9565H99.0478C98.2878 18.0165 96.0278 22.5765 95.1878 24.6365C94.9478 25.1965 94.4078 26.5965 93.9278 28.0765L93.9678 28.0565C95.4278 26.7965 100.328 17.7965 99.1078 17.9765C99.0878 17.9765 99.0878 17.9565 99.0678 17.9565ZM99.5278 18.6765C99.5078 18.6765 99.4878 18.7165 99.4478 18.7565C99.5478 18.9165 99.0278 20.5165 98.3878 21.7965C97.3878 23.7965 96.3678 25.1565 96.9278 24.6165C98.5878 21.9365 99.7478 18.6965 99.5278 18.6765ZM97.1278 19.4565C95.3078 21.8565 93.0878 29.1165 93.4278 28.6765C93.5078 28.5565 93.8078 27.0165 94.4078 25.3165C94.6278 24.6765 95.0678 23.8165 95.3678 22.8965C95.9278 21.5765 96.8478 19.8765 97.1278 19.4565ZM96.1678 21.8765C96.1678 21.8765 96.1278 21.9365 95.9878 22.1365C95.8278 22.3565 95.5278 23.0965 95.3078 23.6565C95.6478 22.9365 96.1478 21.9365 96.1478 21.9365L96.1678 21.8765ZM97.7878 22.5565L97.7678 22.5765C97.7878 22.5765 96.0878 25.3565 96.2078 25.2765C96.5478 24.9565 97.8278 22.5565 97.7878 22.5565ZM96.8478 24.7565C96.8478 24.7565 96.8078 24.7965 96.7478 24.8965C96.7478 24.9165 95.4278 27.0565 95.5878 26.8365C95.9478 26.4565 96.8678 24.7765 96.8478 24.7565ZM96.5878 24.8965C96.5878 24.8965 94.8878 27.4765 95.0278 27.3565C95.1678 27.2365 96.5478 24.9965 96.5878 24.8965ZM94.2878 25.1165C94.2878 25.1165 93.2878 27.7165 93.2478 28.2965V28.4365C93.1678 28.7565 93.1278 28.8365 93.1278 28.8565C93.1678 28.9365 93.2078 28.9165 93.2478 28.4365C93.5678 27.3765 94.2878 25.1165 94.2878 25.1165ZM94.7478 25.2365C94.0278 27.0365 94.3878 26.1965 94.1878 26.7365C94.0278 27.1765 93.6878 28.2965 93.6878 28.3165L94.7478 25.2365ZM98.2278 29.4565C98.2878 29.3965 98.7678 28.8365 98.2678 29.4965C98.2278 29.5565 98.0078 29.8165 98.0078 29.8165C98.0078 29.8165 98.1878 29.5165 98.2278 29.4565ZM92.5278 29.6765C92.5878 29.3365 92.0078 28.8365 91.6278 28.9765C90.7478 29.2965 90.2078 30.2765 89.9678 30.9365C89.7078 31.6165 89.9078 32.0165 90.8078 31.2965C91.4678 30.7365 91.9478 30.2765 92.5278 29.6765ZM93.1878 29.8165C92.7678 31.5765 93.0478 32.5565 93.2278 32.4365C93.2278 32.4365 92.9878 32.3765 93.0478 31.1365C93.0678 30.5165 93.1478 30.4365 93.1878 29.8165ZM97.4078 30.1765C97.0078 30.8165 95.8678 31.7765 95.4278 32.1565C95.9278 31.7365 96.8878 30.5765 97.4078 30.1765ZM92.5878 30.1365C92.2078 30.5565 90.7078 31.8765 90.4678 31.7765C90.0878 32.1965 91.7678 31.2565 92.5878 30.1365ZM98.0013 29.4365C98.3213 29.4365 98.6613 29.6565 98.4413 29.9165C98.0413 30.1565 97.1213 31.9765 97.6013 31.9965C98.2813 31.8965 99.0613 30.7565 99.7613 30.1765C100.441 29.5565 101.061 30.2165 101.121 30.8765C101.201 31.7165 101.241 31.8365 101.421 31.8565C102.441 31.6965 103.941 30.4965 104.781 29.7765C105.021 29.9365 102.881 31.3165 103.061 31.2565C103.281 31.1765 103.701 30.8765 104.201 30.4565C104.241 30.4165 104.601 30.0165 104.541 30.1565C104.421 30.4365 105.021 29.7765 105.241 29.5565C105.501 29.3965 104.881 30.3365 104.501 30.6965C103.541 31.5965 101.941 32.8165 101.081 32.2765C100.461 31.8765 100.241 31.0165 100.241 31.0165C100.241 31.0165 98.4613 32.8965 97.7613 32.6765C97.0613 32.4565 96.6612 32.0365 96.8013 31.2965C96.8813 30.8765 97.3613 30.0765 97.6613 29.6165C97.7213 29.4965 97.8613 29.4365 98.0013 29.4365ZM103.501 31.1565C103.441 31.2365 102.721 31.7565 102.721 31.7565C102.721 31.7565 102.681 31.9565 103.641 31.2165C103.961 30.9965 104.501 30.4565 104.561 30.3765L103.501 31.1565ZM104.232 30.3365C104.752 29.3565 105.592 28.4765 106.872 28.2565C107.612 28.2365 107.812 28.3965 107.912 28.6165C107.972 29.0565 107.712 28.7565 107.252 28.9365C105.752 29.2365 103.752 32.5565 105.152 33.2765C105.992 33.6965 108.172 31.9965 109.052 31.3365C109.352 31.0965 109.792 30.7365 110.212 30.3165C110.572 29.9565 110.852 29.6765 110.532 30.0365C110.452 30.1365 110.472 30.1365 110.712 29.8765C110.912 29.6565 111.032 29.5565 110.992 29.6165C110.992 29.7165 111.012 29.5565 111.192 29.4965C111.112 29.5565 110.732 29.9365 110.332 30.3165C109.932 30.6965 109.532 31.0765 109.432 31.1765L109.292 31.3165C109.332 31.2765 109.412 31.2165 109.452 31.1765C109.572 31.0765 109.612 31.0765 109.572 31.1165C109.552 31.1565 109.572 31.1365 109.692 31.0165C109.812 30.8965 109.872 30.8365 109.832 30.8565C109.792 30.8765 109.832 30.8365 109.952 30.7365C110.072 30.6165 110.112 30.5965 110.112 30.6165C110.112 30.6365 110.132 30.6365 110.132 30.5965C110.152 30.5565 110.172 30.5365 110.192 30.5365C110.212 30.5365 110.232 30.5365 110.232 30.4965C110.252 30.4565 110.532 30.1765 110.572 30.1765C110.492 30.2965 110.352 30.3965 110.252 30.5365C110.232 30.6165 110.632 30.1565 110.612 30.2165C110.612 30.2165 110.492 30.3565 110.332 30.4965C109.932 30.8565 109.412 31.3365 109.212 31.5165L109.152 31.5765C109.152 31.5965 109.172 31.5965 109.192 31.5765L109.232 31.5365C109.352 31.4365 109.552 31.2765 109.812 31.0565C110.112 30.7965 110.592 30.2965 110.792 30.2965C110.832 30.2365 110.912 30.1365 110.972 30.0965C111.032 30.0565 111.072 29.9965 111.112 29.9365C111.132 29.9365 111.192 29.8965 111.232 29.8565C111.292 29.7765 111.312 29.7965 111.252 29.8165C110.392 30.4565 110.372 31.1565 109.412 31.7365C109.432 31.7365 109.592 31.6165 109.772 31.4565C109.792 31.4365 110.412 30.8765 109.652 31.5765C109.572 31.6565 109.492 31.7365 109.432 31.7765C109.272 31.9165 109.212 31.9765 109.452 31.7765C109.472 31.7565 109.492 31.7565 109.512 31.7365C109.752 31.5365 109.812 31.4765 109.692 31.5965C109.632 31.6565 109.592 31.6965 109.632 31.6765C109.692 31.6365 109.692 31.6365 109.652 31.6765C109.612 31.7165 109.632 31.7365 109.672 31.7165C109.712 31.6965 109.732 31.6565 109.732 31.6365C109.732 31.6165 109.772 31.5765 109.892 31.4965C109.972 31.4365 110.052 31.3565 110.072 31.3365C110.232 31.1965 109.952 31.5565 109.852 31.5565C109.832 31.5565 109.812 31.5765 109.812 31.5965C107.192 34.1365 106.412 34.0165 105.912 34.0165C103.892 34.0565 103.372 31.9965 104.232 30.3365ZM105.952 33.5365C105.812 33.9365 106.672 33.8365 108.592 31.9965C107.832 32.6165 105.952 34.1365 105.952 33.5365ZM110.212 31.1365V31.1165C110.232 31.0765 110.212 31.0765 110.192 31.0965C110.172 31.0965 110.212 31.0565 110.252 31.0165C110.272 30.9965 110.312 30.9365 110.332 30.9165C110.312 30.9365 110.312 30.9965 110.292 31.0165C110.272 31.0765 110.232 31.1365 110.212 31.1365ZM109.912 31.3965L109.932 31.3765C109.952 31.3565 109.932 31.3565 109.912 31.3765C109.892 31.3965 109.892 31.4165 109.892 31.4165L109.912 31.3965ZM109.112 32.0765H109.072L109.112 32.0365C109.132 32.0165 109.152 32.0165 109.132 32.0365L109.112 32.0765ZM109.252 31.8965V31.8765C109.272 31.8565 109.272 31.8365 109.272 31.8365L109.252 31.8565L109.212 31.8965H109.252ZM108.772 32.2765C108.812 32.2565 108.832 32.2165 108.872 32.1765C109.012 32.0365 108.992 32.0765 108.812 32.2165C108.692 32.3165 108.632 32.3565 108.672 32.3365C108.692 32.3365 108.732 32.2965 108.772 32.2765ZM108.432 32.4965C108.452 32.4765 108.492 32.4565 108.512 32.4365C108.552 32.3965 108.492 32.4165 108.412 32.4765C108.332 32.5365 108.292 32.5765 108.352 32.5565C108.372 32.5365 108.412 32.5165 108.432 32.4965ZM110.292 30.8365C110.232 30.8765 111.392 29.9365 110.312 30.7765C109.972 31.0965 109.852 31.2165 109.912 31.1765C109.952 31.1565 110.132 30.9965 110.292 30.8365ZM108.952 32.0565C108.972 32.0365 109.012 32.0165 109.032 31.9965C109.072 31.9565 109.052 31.9765 108.972 32.0365C108.892 32.0965 108.852 32.1365 108.892 32.1165C108.912 32.1165 108.932 32.0765 108.952 32.0565ZM109.512 31.5365L109.492 31.5565C109.492 31.5565 109.492 31.5365 109.512 31.5165C109.532 31.4965 109.552 31.4965 109.532 31.5165L109.512 31.5365ZM110.232 30.7765C110.932 30.1165 110.392 30.6565 109.932 31.0365C109.932 31.0365 110.072 30.9365 110.232 30.7765ZM109.732 31.2965H109.692C109.692 31.2965 109.712 31.2965 109.732 31.2765C109.752 31.2565 109.772 31.2365 109.752 31.2565L109.732 31.2965ZM109.432 31.4965C109.592 31.3565 109.732 31.2165 109.732 31.2165C109.732 31.2165 109.452 31.4365 109.272 31.5965L109.132 31.7365C109.132 31.7365 109.192 31.6965 109.292 31.6165C109.332 31.5765 109.392 31.5365 109.432 31.4965ZM110.852 30.1565C110.932 30.0765 111.032 29.9765 111.112 29.8765C111.252 29.6965 111.212 29.7365 111.052 29.9165C110.932 30.0565 110.892 30.0965 110.892 30.0765C110.912 30.0365 110.872 30.0565 110.812 30.1365C110.732 30.2365 110.732 30.2165 110.792 30.1765C110.812 30.1565 110.852 30.1365 110.872 30.1165L110.792 30.1965C110.732 30.2565 110.772 30.2365 110.852 30.1565ZM111.192 29.7365C111.152 29.7765 111.092 29.8165 111.072 29.8165C111.052 29.8165 111.072 29.7965 111.132 29.7365C111.172 29.6965 111.232 29.6365 111.252 29.6365C111.272 29.6365 111.252 29.6765 111.192 29.7365ZM110.892 29.9765C110.792 30.0765 110.712 30.1165 110.732 30.0765C110.732 30.0565 110.772 30.0165 110.812 29.9765C110.852 29.9365 110.872 29.9165 110.872 29.9365C110.872 29.9565 110.872 29.9765 110.932 29.9165C111.012 29.8565 110.992 29.8365 110.912 29.9365C110.892 29.9565 110.892 29.9765 110.892 29.9765ZM111.232 29.5765L111.192 29.6165C111.172 29.6365 111.192 29.5965 111.232 29.5565C111.272 29.5165 111.292 29.4965 111.272 29.5165C111.272 29.5365 111.252 29.5565 111.232 29.5765ZM111.032 29.7565L111.052 29.7165C111.052 29.6965 111.032 29.7165 111.012 29.7365C110.992 29.7565 110.972 29.7765 110.992 29.7765L111.032 29.7565ZM110.812 29.9365L110.852 29.8965C110.872 29.8765 110.852 29.8965 110.812 29.9365C110.772 29.9765 110.752 29.9965 110.772 29.9765L110.812 29.9365ZM109.992 30.7565L109.952 30.7765C109.932 30.7765 109.952 30.7765 109.992 30.7365C110.032 30.6965 110.032 30.6965 110.012 30.7165L109.992 30.7565ZM110.772 29.7765C110.712 29.8565 110.672 29.8565 110.712 29.7765C110.752 29.7165 110.772 29.6965 110.812 29.6965C110.832 29.6965 110.812 29.7365 110.772 29.7765ZM110.032 30.4765C110.012 30.4965 109.992 30.5365 109.972 30.5365C109.952 30.5565 109.972 30.5165 110.032 30.4565C110.092 30.3965 110.112 30.3765 110.092 30.4165L110.032 30.4765ZM110.912 29.6165L110.872 29.6565C110.852 29.6565 110.872 29.6365 110.912 29.5965C110.952 29.5565 110.952 29.5565 110.932 29.5765L110.912 29.6165ZM110.512 29.9765L110.532 29.9365C110.532 29.9165 110.532 29.9365 110.512 29.9565L110.492 29.9765H110.512ZM114.927 20.8165C115.287 20.8165 115.687 21.2165 115.407 21.6365C114.967 22.6765 114.687 23.3165 114.507 23.7365C114.567 23.7365 114.627 23.7165 114.707 23.7165C115.847 23.6765 117.847 23.5565 119.287 23.5565H119.867C121.507 23.5565 122.967 23.6165 124.747 23.7165C124.907 23.7565 125.027 23.7565 124.867 23.7765C124.587 23.7965 123.827 23.8165 122.947 23.8165C123.107 23.8365 123.007 23.8165 123.127 23.8565C123.267 23.8165 125.967 23.8765 125.967 23.9165C125.967 23.9365 123.307 23.9365 123.047 23.9365C122.547 23.9365 122.347 23.9365 122.407 23.9565C122.747 23.9765 127.687 23.9165 126.127 23.9965C125.847 23.9965 123.107 23.9965 123.147 23.9965C123.167 23.9965 125.707 24.0565 125.587 24.0565C125.427 24.0565 125.407 24.0565 125.527 24.0565C125.607 24.0565 125.687 24.0965 125.687 24.0965C125.687 24.1165 125.467 24.0965 125.107 24.0965C124.227 24.0765 123.547 24.0765 121.407 24.0765C119.747 24.0765 119.087 24.0965 119.027 24.0765C118.967 24.0565 118.947 24.0565 118.947 24.0765C118.947 24.0965 118.827 24.0965 118.647 24.0965C118.487 24.0965 118.307 24.0965 118.287 24.0765C118.267 24.0565 118.227 24.0765 118.227 24.0965C118.227 24.1165 118.147 24.1565 117.787 24.1565C117.467 24.1565 117.407 24.1565 117.507 24.1365C117.607 24.1165 117.587 24.1165 117.407 24.1165C117.287 24.1165 117.127 24.1365 117.067 24.1565C117.007 24.1765 116.767 24.1765 116.427 24.1765C116.127 24.1765 115.927 24.2165 115.987 24.2165C116.047 24.2165 115.427 24.2365 114.667 24.2765C114.647 24.2765 114.607 24.3165 114.587 24.3165C115.007 24.2965 115.967 24.2365 116.147 24.2365C116.347 24.2365 117.007 24.2165 116.987 24.2165C116.927 24.1965 117.107 24.1965 117.227 24.2165C117.327 24.2365 117.367 24.2365 117.387 24.2165C117.407 24.1965 117.527 24.1765 117.667 24.1765H117.907C117.827 24.1765 117.767 24.1965 117.687 24.1965C117.467 24.2165 117.487 24.2165 117.767 24.2165C117.947 24.2165 118.047 24.1965 118.047 24.1765C118.047 24.1565 118.087 24.1565 118.127 24.1765C118.167 24.1765 118.247 24.2165 118.327 24.2165C118.407 24.2165 118.067 24.2365 117.587 24.2365C117.107 24.2365 116.667 24.2965 116.647 24.2965C116.627 24.2965 116.707 24.3165 116.827 24.3165C117.127 24.3165 117.127 24.3365 116.867 24.3765H116.847C116.727 24.3765 116.567 24.3965 116.447 24.3965H116.407C116.347 24.3965 116.287 24.3765 116.227 24.3765C116.067 24.3765 115.947 24.3965 115.807 24.3965H115.827H115.807H115.787C115.667 24.3965 115.567 24.4165 115.447 24.4165C115.507 24.4165 115.427 24.4165 115.347 24.4165H115.227H115.027C114.987 24.4165 114.987 24.3965 115.087 24.3965C115.307 24.3965 115.307 24.3565 115.007 24.3565C114.827 24.3565 114.787 24.3765 114.827 24.3965C114.847 24.3965 114.827 24.4365 114.827 24.4365H114.567C114.487 24.4365 114.407 24.4565 114.327 24.4565V24.4765C114.327 24.4765 114.227 24.4965 114.167 24.4965C113.127 26.6165 109.547 34.2565 111.027 36.1165C111.327 36.4765 112.487 35.3765 112.787 34.9165C112.927 35.0765 112.027 36.0365 111.767 36.0365C111.667 36.2165 112.027 36.1165 112.447 35.6365C112.687 35.2965 113.007 35.2765 112.847 35.7565C112.607 36.1565 112.147 36.6365 111.627 36.6365C111.107 36.6365 110.687 36.5165 110.347 36.0765C109.747 35.2965 109.707 33.6565 110.147 32.0365C110.887 29.4565 111.867 27.0365 112.927 24.6165C112.627 24.6365 112.487 24.6565 112.107 24.6565C110.867 24.7565 109.567 24.8765 109.127 24.9565C109.027 24.9765 109.327 25.0965 109.267 25.1165C108.667 25.2765 108.087 25.1565 108.087 24.8765C108.087 24.5565 108.127 24.3765 108.527 24.2365C108.627 24.2365 108.707 24.2565 108.787 24.2565C109.767 24.1565 109.807 24.1165 111.147 23.9965C111.827 23.9365 112.507 23.8765 113.187 23.8365C113.207 23.8365 113.247 23.8165 113.267 23.8165C113.647 22.9365 113.967 22.1565 114.527 21.1365C114.587 20.9165 114.727 20.8165 114.887 20.8165H114.927ZM123.147 23.8965H123.287C123.367 23.8965 123.327 23.9165 123.187 23.9165C123.047 23.9165 122.967 23.8965 123.027 23.8965H123.147ZM119.047 23.9565H119.147C119.267 23.9565 119.207 23.9565 119.007 23.9565C118.807 23.9565 118.707 23.9565 118.787 23.9565H118.967H119.047ZM119.127 24.0165C119.227 24.0165 119.307 24.0365 119.287 24.0365H119.067H118.667C118.667 24.0365 118.827 24.0165 119.007 24.0165H119.127ZM112.647 24.0365V24.0565C112.607 24.0565 112.607 24.0365 112.647 24.0365ZM125.047 24.0565H125.167C125.227 24.0565 125.207 24.0765 125.107 24.0765H125.067C124.987 24.0765 124.967 24.0565 124.987 24.0565H125.047ZM112.427 24.0565H112.507L112.047 24.0965H112.067C111.887 24.1165 111.187 24.1765 111.127 24.1765C110.827 24.1765 111.987 24.0565 112.427 24.0565ZM117.947 24.0565C117.987 24.0565 118.047 24.0765 118.047 24.0765C118.047 24.0765 117.987 24.0965 117.947 24.0965C117.907 24.0965 117.847 24.0765 117.847 24.0765C117.847 24.0765 117.907 24.0565 117.947 24.0565ZM123.987 24.1165C123.327 24.1165 122.327 24.1365 121.207 24.1365H120.287C119.567 24.1365 119.387 24.1565 119.367 24.1765C119.327 24.1965 119.427 24.1965 119.967 24.1965C120.807 24.1765 120.987 24.1965 120.647 24.2165C120.407 24.2365 120.407 24.2365 120.807 24.2365C121.147 24.2365 121.227 24.2365 121.087 24.2565C120.867 24.2765 120.407 24.2565 120.327 24.2365H119.787C119.507 24.2365 119.367 24.2565 119.427 24.2565C119.687 24.2765 119.607 24.3165 119.327 24.3165C119.107 24.3165 119.067 24.3165 119.107 24.2765C119.147 24.2365 119.147 24.2365 119.027 24.2565C118.947 24.2765 118.907 24.3165 118.927 24.3165C118.927 24.3165 118.947 24.3365 118.927 24.3365C119.047 24.3365 119.167 24.3165 119.287 24.3165H120.027C120.287 24.3165 120.507 24.2965 120.767 24.2965H121.787H122.067C122.127 24.2965 122.187 24.2765 122.207 24.2765H122.367H122.427H122.407H122.567C122.527 24.2765 122.447 24.2365 122.387 24.2365C122.127 24.1965 121.967 24.1965 121.547 24.2365C121.427 24.2365 121.407 24.2565 121.487 24.2365C121.587 24.2165 121.587 24.1965 121.487 24.1965C121.447 24.1965 121.687 24.1765 122.087 24.1765H122.527C123.207 24.1765 123.727 24.1965 123.787 24.1965C123.847 24.2165 123.827 24.2165 123.707 24.2165C123.607 24.2165 123.347 24.1965 123.107 24.1965C122.687 24.1965 122.687 24.1965 122.727 24.2365L122.747 24.2565H123.287H124.027H124.667H124.827C124.747 24.2365 124.607 24.2365 124.547 24.2365H124.367C124.347 24.2365 124.907 24.1965 125.887 24.1965C126.007 24.1965 126.107 24.1765 126.207 24.1765C126.167 24.1765 126.147 24.1565 126.107 24.1565C126.127 24.1565 126.107 24.1365 126.067 24.1365C126.027 24.1365 125.967 24.1365 125.967 24.1565C125.967 24.1765 125.927 24.1765 125.867 24.1565C125.807 24.1365 125.667 24.1365 125.367 24.1365H124.947C124.947 24.1365 124.527 24.1165 123.987 24.1165ZM126.207 24.1765C126.947 24.2965 127.007 24.1365 126.207 24.1765V24.1765ZM121.127 24.1965H121.247C121.307 24.1965 121.247 24.1965 121.127 24.1965C121.007 24.1965 120.967 24.1965 121.027 24.1965H121.127ZM118.967 24.1965H118.887C118.867 24.1965 118.887 24.2165 118.967 24.2165H119.007C119.107 24.2165 119.107 24.1965 119.047 24.1965H119.007H118.967ZM123.427 24.2365H123.567C123.647 24.2365 123.587 24.2565 123.447 24.2565C123.307 24.2565 123.227 24.2365 123.287 24.2365H123.427ZM115.687 24.2965H115.747C115.827 24.2965 115.787 24.3165 115.647 24.3165C115.507 24.3165 115.427 24.2965 115.487 24.2965H115.607H115.687ZM117.687 24.2965H117.507H117.387C117.167 24.2965 117.147 24.3365 117.227 24.3365H117.447C117.527 24.3365 117.607 24.3365 117.727 24.3165C117.827 24.3165 117.827 24.2965 117.687 24.2965ZM116.367 24.3165C116.427 24.3165 116.467 24.3365 116.467 24.3365C116.447 24.3365 116.187 24.3765 115.907 24.3765C115.627 24.3765 115.427 24.3765 115.447 24.3765C115.467 24.3765 115.727 24.3365 116.007 24.3365C116.027 24.3365 116.047 24.3165 116.067 24.3165H116.367ZM111.547 24.3165H111.567C111.587 24.3165 111.587 24.3365 111.567 24.3365C111.487 24.3565 111.127 24.4165 110.727 24.4165C110.807 24.3965 111.367 24.3165 111.547 24.3165ZM114.587 24.3965H114.707C114.707 24.3965 114.567 24.4365 114.347 24.4365V24.4165C114.367 24.4165 114.387 24.3965 114.407 24.3965H114.587ZM110.707 24.6165C110.747 24.6165 110.827 24.6365 110.867 24.6365C110.647 24.6565 110.627 24.6565 110.707 24.6165ZM113.507 24.7965C113.507 24.7965 113.487 24.8165 113.467 24.8165C113.467 24.8165 112.907 25.9765 112.887 26.1965C112.867 26.4365 113.707 24.7765 113.507 24.7965ZM112.807 26.3365C112.227 27.2165 111.767 29.1965 111.147 30.2365C111.187 30.4365 110.767 32.0765 110.647 31.8165C110.587 31.6165 111.007 30.5765 111.107 30.3165L111.087 30.3365C111.007 30.4965 111.687 28.5765 111.607 28.6965C109.867 32.6765 109.967 34.4365 110.107 34.5365C110.027 34.1365 110.347 32.1565 110.447 32.2965C110.407 32.3565 110.107 35.0165 110.307 34.6765C110.307 34.6565 110.367 34.6565 110.407 34.4965C110.267 34.6965 110.487 33.6765 110.407 33.6965C110.327 33.7165 110.387 33.3965 110.527 32.8965C110.507 32.8965 110.507 32.8765 110.487 32.8565C110.407 32.6365 110.707 31.9365 110.707 31.9365C110.727 31.9565 110.767 31.9965 110.767 32.0765C111.407 29.9765 112.647 26.5765 112.807 26.3365ZM110.347 34.9365C110.307 35.4365 110.447 35.6565 110.467 35.6565C110.487 35.6565 110.447 35.4165 110.347 34.9365ZM112.607 35.6765C112.587 35.6765 112.527 35.7565 112.527 35.7565C112.527 35.7565 112.147 36.1565 112.047 36.1565H112.027H112.047C112.067 36.1565 112.107 36.1965 112.187 36.1765C112.287 36.1765 112.447 36.0365 112.587 35.8165C112.627 35.7365 112.607 35.6765 112.607 35.6765Z" fill="#228B22"/>
<defs>
<linearGradient id="paint0_linear_7192_67415" x1="306.314" y1="24.5221" x2="92.6334" y2="50.3608" gradientUnits="userSpaceOnUse">
<stop stop-color="#228B22"/>
<stop offset="1" stop-color="#228B22" stop-opacity="0"/>
</linearGradient>
</defs>
</svg>
