<svg width="216" height="159" viewBox="0 0 216 159" fill="none" xmlns="http://www.w3.org/2000/svg">
<path d="M0.819201 99.8144C0.461349 99.9143 0.252239 100.285 0.352128 100.643L1.98 106.475C2.0799 106.833 2.45098 107.042 2.80883 106.942C3.16667 106.842 3.37579 106.471 3.2759 106.113L1.8289 100.929L7.01248 99.4824C7.37033 99.3825 7.57944 99.0115 7.47955 98.6536C7.37966 98.2958 7.00859 98.0866 6.65073 98.1865L0.819201 99.8144ZM202.879 34.643C189.045 56.6666 162.348 86.3626 127.258 103.85C92.2002 121.32 48.7683 126.609 1.33035 99.8763L0.669803 101.048C48.5535 128.033 92.4631 122.692 127.858 105.054C163.22 87.4312 190.087 57.5377 204.018 35.3586L202.879 34.643Z" fill="url(#paint0_linear_3203_31177)"/>
<path d="M90.32 134.5C89.78 134.18 89.18 133.82 88.62 133.4C88.42 133.24 88.2 133.06 87.98 132.84C87.82 132.68 87.66 132.46 87.52 132.16C87.36 131.8 87.32 131.4 87.4 131C87.5 130.6 87.68 130.28 87.88 130.02C88.14 129.7 88.4 129.44 88.68 129.24C89.02 128.98 89.36 128.76 89.7 128.58C90.54 128.14 91.4 127.78 92.2 127.52C93.14 127.2 94.04 126.98 94.86 126.82C95.14 126.76 95.42 126.7 95.68 126.66C96.32 126.58 96.8 126.56 97.16 126.56C97.52 126.56 97.78 126.58 98.04 126.62C98.16 126.64 98.3 126.68 98.42 126.72C98.52 126.76 98.64 126.82 98.76 126.92C98.86 127 98.96 127.14 99 127.3C99.04 127.46 99.04 127.62 99 127.74C98.96 127.88 98.88 128.02 98.8 128.12C98.72 128.24 98.62 128.34 98.5 128.44C98.34 128.58 98.16 128.74 97.92 128.9C97.8 128.98 97.66 129.08 97.54 129.16C97.42 129.24 97.28 129.34 97.16 129.42C96.68 129.66 97.04 129.46 96.58 129.72C96.28 129.88 95.88 129.72 95.72 129.48C95.56 129.22 95.64 128.92 96.26 128.66C96.46 128.58 96.7 128.46 96.96 128.32C97.2 128.18 97.86 127.86 98.1 127.62L98.12 127.58C98.18 127.52 98.26 127.46 98.3 127.4C98.32 127.36 98.34 127.34 98.34 127.34V127.46C98.36 127.52 98.4 127.58 98.42 127.58C98.44 127.58 98.42 127.58 98.4 127.56C98.36 127.54 98.3 127.54 98.24 127.52C98.04 127.48 97.44 127.54 97.22 127.54C96.44 127.54 95.88 127.76 95.88 127.76C95.88 127.76 96.44 127.58 97.22 127.58C97.44 127.58 98.02 127.54 98.22 127.58C98.28 127.6 98.36 127.6 98.38 127.62C98.36 127.6 98.32 127.56 98.28 127.48C98.26 127.4 98.26 127.36 98.26 127.34C98.26 127.32 98.26 127.32 98.24 127.36L98.14 127.46L98.24 127.36C98.26 127.32 98.26 127.3 98.26 127.32V127.34C98.26 127.36 98.26 127.4 98.28 127.48C98.28 127.5 98.3 127.54 98.3 127.54C98.32 127.56 98.32 127.6 98.34 127.62L98.36 127.64C98.38 127.66 98.4 127.64 98.38 127.64H98.36C98.32 127.62 98.24 127.6 98.22 127.6C98.16 127.6 98.1 127.56 98.04 127.56C97.96 127.56 97.5 127.62 97.22 127.62H97.16H97.04C96.8 127.62 96.54 127.74 96.3 127.76C96.04 127.78 95.78 127.84 95.52 127.88C95.5 127.88 95.48 127.86 95.52 127.84C95.62 127.8 95.5 127.78 95.08 127.86C95.04 127.86 95.02 127.88 94.98 127.88C97.62 127.34 90.6 128.9 94.76 128.02C95.08 127.96 95.06 127.96 94.94 128C94.76 128.04 94.54 128.08 94.36 128.12C94.12 128.18 94.16 128.18 94.18 128.18C94.2 128.18 94.22 128.16 94 128.22C93.76 128.28 93.54 128.36 93.74 128.3C93.4 128.38 93.08 128.5 92.74 128.6C92.72 128.6 92.66 128.64 92.64 128.64H92.6C92.62 128.64 92.66 128.62 92.68 128.62C92.66 128.62 92.64 128.64 92.62 128.64C92.22 128.76 91.84 128.9 91.46 129.08C91.3 129.14 91.16 129.22 91.02 129.3C90.98 129.32 90.92 129.36 90.88 129.38C90.7 129.46 90.52 129.56 90.34 129.66C90.18 129.74 90.02 129.84 89.88 129.92L89.86 129.94C89.64 130.06 89.52 130.14 89.44 130.18C89.36 130.22 89.34 130.22 89.4 130.16C89.46 130.1 89.62 129.96 89.88 129.8C90.06 129.68 90.2 129.6 90.28 129.56C90.34 129.52 90.36 129.5 90.32 129.5C90.32 129.5 90.28 129.52 90.26 129.52C90.16 129.56 89.76 129.78 89.36 130.08C89.16 130.24 88.92 130.42 88.74 130.66C88.62 130.82 88.5 131 88.46 131.2V131.22C88.44 131.38 88.44 131.58 88.5 131.72C88.54 131.84 88.66 131.98 88.76 132.08C88.94 132.26 89.14 132.42 89.26 132.52C89.48 132.7 89.64 132.8 89.54 132.74C89.46 132.68 89.32 132.6 89.24 132.56C89.14 132.5 89.06 132.44 89.02 132.42C88.9 132.36 88.84 132.3 88.86 132.28C88.86 132.28 88.82 132.2 88.74 132.1C88.68 132.02 88.52 131.88 88.48 131.74C88.48 131.72 88.44 131.68 88.44 131.64C88.38 131.44 88.42 131.28 88.42 131.2C88.44 131.08 88.42 131.08 88.4 131.2C88.38 131.26 88.36 131.36 88.36 131.48C88.36 131.58 88.4 131.68 88.42 131.76C88.44 131.84 88.52 131.92 88.58 132C88.58 132 88.46 131.88 88.42 131.76C88.36 131.62 88.34 131.44 88.34 131.44C88.34 131.22 88.38 130.9 88.58 130.76C88.62 130.74 88.68 130.7 88.72 130.64C88.76 130.6 88.78 130.52 88.86 130.42C88.98 130.26 89.16 130.08 89.28 129.98C89.4 129.9 89.44 129.88 89.38 129.94C89.36 129.98 89.72 129.72 90.2 129.44C90.78 129.12 91.28 128.92 91.64 128.76C91.78 128.7 92.1 128.56 92.52 128.42C93.28 128.16 94.16 127.94 95.06 127.76C95.94 127.6 96.52 127.46 96.74 127.46H97.2L97.22 127.44C97.22 127.44 97.88 127.34 98.26 127.42C98.32 127.42 98.4 127.44 98.44 127.46C98.48 127.48 98.48 127.5 98.48 127.5L98.44 127.42V127.36C98.44 127.36 98.4 127.42 98.38 127.46C98.34 127.52 98.28 127.58 98.2 127.66C98.1 127.76 97.62 128.04 97.48 128.14C97.32 128.26 97.04 128.46 97.04 128.46C96.96 128.52 96.98 128.54 97.06 128.48C97.16 128.42 97.94 128 98.24 127.7C98.3 127.64 98.38 127.54 98.42 127.48C98.44 127.44 98.48 127.4 98.48 127.38V127.42L98.52 127.46C98.52 127.46 98.5 127.44 98.46 127.42C98.42 127.4 98.34 127.38 98.26 127.36C98.08 127.32 97.54 127.36 97.36 127.36H97.2C96.46 127.36 95.7 127.6 95.06 127.72C93.92 127.94 93 128.22 92.5 128.38C92.16 128.48 92.02 128.54 92.08 128.52C93.14 128.04 90.8 129.04 90.84 129.02C90.6 129.14 90.36 129.28 90.16 129.38C89.7 129.64 89.44 129.8 89.24 129.94C89.2 129.98 89.14 130 89.12 130.02C88.72 130.3 88.24 130.82 88.18 131.3C88.12 131.76 88.04 132.28 90.28 133.42C90.48 133.54 90.62 133.64 90.76 133.72C90.96 133.86 91.08 133.94 91.08 133.96C91.06 133.98 91.1 134 91.26 134.06C91.32 134.08 91.82 134.34 92.74 134.86C93.18 135.12 93.98 135.58 94.72 136.06C95.2 136.38 95.8 136.78 96.32 137.28C96.5 137.46 96.7 137.66 96.86 137.88C96.98 138.04 97.08 138.22 97.14 138.42C97.14 138.44 97.16 138.46 97.16 138.48C97.2 138.68 97.2 138.88 97.16 139.06C97.1 139.28 96.96 139.46 96.82 139.62C96.6 139.84 96.36 140.02 96.1 140.16C95.72 140.38 95.34 140.54 94.96 140.66C94.56 140.88 94.12 141.04 93.74 141.18C93.16 141.38 92.6 141.54 92.1 141.66C90.68 142 89.48 142.12 88.42 142.06C87.98 142.04 87.52 141.98 87.08 141.86C86.98 141.84 86.88 141.78 86.8 141.76C86.08 141.5 85.76 141.12 85.64 140.96C85.6 140.92 85.58 140.88 85.58 140.88C85.58 140.88 85.62 140.9 85.66 140.94C85.74 141 85.82 141.1 85.96 141.2C86.24 141.42 86.2 141.42 85.86 141.08C85.8 141.02 86.12 141.4 86.84 141.66C87.28 141.82 87.82 141.92 88.44 141.94C89.8 142 91.08 141.78 92.08 141.54C92.68 141.4 93.08 141.26 93.08 141.26C93.1 141.26 92.72 141.38 92.08 141.52C91.18 141.72 89.84 141.98 88.44 141.9C87.88 141.86 87.36 141.78 86.88 141.6C86.42 141.42 86.04 141.18 85.78 140.86C85.36 140.38 85.3 139.76 85.3 139.58V139.54C85.3 138.3 85.48 139.14 85.44 138.64C85.44 138.68 85.36 139.04 85.38 139.58C85.4 139.94 85.52 140.42 85.84 140.8C86.1 141.12 86.46 141.36 86.9 141.52C87.36 141.7 87.88 141.78 88.44 141.82C89.68 141.9 90.94 141.72 92.06 141.46C92.68 141.32 93.22 141.16 93.68 141C94.24 140.8 94.6 140.64 94.88 140.48C95.02 140.42 95.12 140.36 95.18 140.34C95.28 140.28 95.18 140.34 94.86 140.44C94.6 140.58 94.26 140.74 93.66 140.96C93.58 140.98 93.48 141.04 93.38 141.06C93.22 141.12 92.76 141.26 92.06 141.42C91.06 141.66 89.76 141.88 88.44 141.8C87.88 141.76 87.36 141.68 86.9 141.5C86.42 141.32 86.06 141.06 85.84 140.78C85.5 140.36 85.52 140.02 85.5 140.02C85.52 140.02 85.56 140.36 85.9 140.74C86.12 141 86.46 141.22 86.94 141.4C87.38 141.56 87.88 141.66 88.44 141.68C89.78 141.74 91.08 141.5 92.02 141.28C92.6 141.14 93 141.04 93.08 141.04C93.4 140.88 93.16 141 93.58 140.8C93.06 141 92.54 141.14 92.02 141.26C90.46 141.62 89.32 141.64 88.46 141.56C88.22 141.54 88.02 141.5 87.88 141.48C87.4 141.38 87.88 141.44 88.3 141.42H88.46C89.5 141.68 96.7 140.38 96.7 138.8C96.7 137.32 92.08 135.44 90.32 134.5ZM93.04 141.1C92.92 141.14 92.72 141.22 92.62 141.24C92.78 141.2 92.1 141.42 92.96 141.16C93.64 140.96 93.36 141.02 93.42 141C93.34 141.02 93.18 141.06 93.04 141.1ZM91.26 134.3C91.34 134.34 91.44 134.4 91.52 134.44C91.88 134.64 91.58 134.46 91.1 134.18C90.92 134.08 90.76 133.98 90.66 133.92C90.46 133.8 90.38 133.76 90.54 133.86C90.56 133.88 90.6 133.92 90.64 133.94C90.74 134 90.88 134.06 91 134.14C91.08 134.18 91.18 134.26 91.26 134.3ZM91.48 134.3C91.78 134.46 91.96 134.56 91.92 134.52C91.88 134.48 91.64 134.34 91.36 134.18C91.16 134.06 90.9 133.9 90.72 133.8C90.48 133.66 90.3 133.58 90.3 133.58C90.3 133.58 90.46 133.7 90.7 133.84C90.84 133.92 91 134 91.16 134.1C91.28 134.16 91.38 134.24 91.48 134.3ZM87.3 141.82C87.18 141.8 87.12 141.76 87 141.74C87.42 141.86 86.18 141.54 87.14 141.82C87.16 141.82 87.22 141.84 87.24 141.84C87.5 141.9 87.54 141.9 87.5 141.88C87.46 141.86 87.4 141.84 87.3 141.82ZM90.62 142C91.08 141.94 91.58 141.86 92.12 141.74C92.64 141.62 93.18 141.46 93.76 141.26C94.16 141.12 94.6 140.94 95 140.72C95.38 140.58 95.76 140.44 96.14 140.24C96.4 140.1 96.66 139.92 96.88 139.7C97.04 139.54 97.18 139.32 97.24 139.08C97.3 138.88 97.3 138.66 97.24 138.46C97.18 138.24 97.08 138 96.94 137.82L96.92 137.8C96.76 137.58 96.56 137.38 96.38 137.22C95.84 136.7 95.2 136.26 94.78 135.98C94.76 135.98 94.76 135.96 94.74 135.96C94.02 135.5 92.94 134.86 92.8 134.78C92.44 134.56 92.3 134.46 92.28 134.42C92.22 134.36 92.34 134.4 92.84 134.7C93.06 134.82 93.5 135.06 93.94 135.34C94.28 135.56 94.58 135.76 94.84 135.92C95.58 136.4 95.88 136.66 96.02 136.76C96.02 136.76 96.16 136.84 95.68 136.46C95.4 136.24 95.22 136.1 95.32 136.16C95.34 136.16 95.72 136.4 96.16 136.78C96.3 136.88 96.4 137 96.5 137.08C96.74 137.3 96.92 137.52 96.94 137.54C96.96 137.56 96.96 137.54 96.82 137.36C96.74 137.26 96.64 137.16 96.54 137.06C95.96 136.48 95.12 135.94 94.9 135.86L94.88 135.84C94.72 135.76 94.1 135.38 93.42 134.98C93.16 134.82 93.14 134.82 92.88 134.66C92.52 134.44 92.34 134.32 92.48 134.4C92.72 134.52 92.88 134.58 92.92 134.58C92.94 134.58 92.94 134.58 92.92 134.56C92.88 134.52 92.66 134.38 92.3 134.18C91.74 133.86 91.62 133.82 91.68 133.92C91.76 134.04 91.74 134.02 91.42 133.78C91.22 133.64 91.14 133.54 91.2 133.56C91.24 133.56 91.24 133.56 91.2 133.54L92.16 134.08C92.42 134.22 92.68 134.4 92.94 134.54C93.36 134.78 93.74 135 94.16 135.26L94.94 135.74C95.36 136 95.74 136.3 96.14 136.62C96.28 136.74 96.44 136.86 96.58 137C96.78 137.2 96.98 137.44 97.16 137.68C97.3 137.88 97.42 138.1 97.5 138.38C97.56 138.62 97.56 138.9 97.5 139.16C97.44 139.4 97.32 139.6 97.18 139.76C97.16 139.8 97.12 139.84 97.08 139.88C96.88 140.08 96.64 140.24 96.42 140.38L96.26 140.46C96.14 140.52 96.04 140.6 95.98 140.62C95.78 140.7 95.58 140.8 95.52 140.82C95.46 140.84 95.42 140.86 95.36 140.88L95.38 140.86C95.28 140.88 95.18 140.94 95.08 140.96C95.04 140.98 94.98 141.02 94.94 141.04C94.98 141.02 95.04 140.96 95.08 140.94C95.18 140.9 95.3 140.84 95.42 140.78C95.68 140.64 95.98 140.5 96.22 140.36C96.44 140.24 96.74 140.06 97 139.8C97.16 139.66 97.32 139.44 97.42 139.14C97.44 139.06 97.48 138.96 97.48 138.86C97.5 138.62 97.44 138.44 97.44 138.42C97.44 138.38 97.46 138.44 97.46 138.62C97.46 138.82 97.42 138.94 97.42 138.94C97.42 138.94 97.42 138.82 97.4 138.62C97.38 138.52 97.44 138.72 97.34 139.12C97.28 139.32 97.16 139.54 96.96 139.76C96.78 139.96 96.54 140.1 96.26 140.26L96.2 140.32C95.84 140.52 95.44 140.68 95.02 140.82L95 140.84C94.6 141.06 94.18 141.22 93.8 141.36C93.16 141.58 92.56 141.76 92.14 141.86C91.64 141.98 91.32 142.04 91.24 142.06C91.08 142.1 91.02 142.14 91.46 142.04C91.6 142.02 91.84 141.98 92.16 141.9C92.54 141.82 92.92 141.68 93.32 141.56C93.52 141.5 93.66 141.42 93.8 141.38C94.16 141.26 94.36 141.16 94.44 141.14C94.52 141.12 94.52 141.14 94.46 141.2C94.44 141.22 94.42 141.26 94.42 141.26C94.24 141.34 94.02 141.42 93.84 141.48C93.5 141.6 93.16 141.7 92.8 141.8C92.6 141.86 92.38 141.92 92.16 141.96C91.62 142.08 91.08 142.2 90.52 142.26C89.84 142.34 89.14 142.38 88.44 142.34H88.42C88.26 142.34 88.1 142.3 87.94 142.28C88.02 142.28 88.3 142.3 88.42 142.3C88.56 142.3 88.72 142.32 88.82 142.32C89.06 142.34 89.34 142.32 89.44 142.3C89.48 142.3 89.12 142.3 88.42 142.26C88.02 142.24 87.4 142.16 86.76 141.92C86.34 141.76 85.86 141.5 85.5 141.08C85.34 140.88 85.2 140.66 85.12 140.4C85.04 140.12 85 139.84 85 139.6C85 138.9 85.18 138.26 85.26 137.98C85.34 137.64 85.38 137.5 85.36 137.5C85.34 137.5 85.26 137.66 85.16 138.02C85.08 138.34 84.94 138.94 85.02 139.6C85.02 139.62 85.04 139.66 85.04 139.68C85.06 139.56 85.08 139.66 85.1 139.82C85.12 139.98 85.12 140.14 85.1 140.14C85.08 140.14 85.1 140.24 85.2 140.4C85.22 140.44 85.38 140.78 85.58 141.02C85.74 141.2 85.94 141.4 86.28 141.6C86.44 141.7 86.62 141.78 86.78 141.84C87.22 142 87.56 142.02 87.56 142.02C87.56 142.02 87.88 142.1 88.42 142.12C89.02 142.14 89.74 142.12 90.62 142ZM96.84 137.56C96.9 137.64 96.96 137.7 97.02 137.76C97.04 137.78 97.06 137.82 97.08 137.84C96.98 137.7 97.34 138.2 97.04 137.76C97 137.7 96.92 137.62 96.86 137.54C96.88 137.58 96.16 136.78 96.6 137.28C96.66 137.36 96.76 137.46 96.84 137.56ZM91.32 133.86C91.28 133.84 91.24 133.8 91.2 133.78C91.12 133.74 91.04 133.68 91 133.66C90.94 133.62 91.04 133.66 91.24 133.78C91.26 133.8 91.3 133.8 91.32 133.82C91.6 133.98 91.68 134.04 91.46 133.94C91.42 133.92 91.36 133.88 91.32 133.86ZM92.4 141.88C92.34 141.9 92.22 141.9 92.16 141.92C92.08 141.94 92 141.96 91.94 141.98C91.84 142 91.66 142.06 92.16 141.94C92.2 141.94 92.24 141.92 92.28 141.92C92.94 141.76 92.78 141.78 92.78 141.78C92.7 141.8 92.54 141.84 92.4 141.88ZM92.98 128.34C92.92 128.36 92.84 128.4 92.78 128.42C92.44 128.54 92.74 128.42 93.1 128.32C93.5 128.2 93.78 128.12 93.56 128.16C93.48 128.18 93.34 128.22 93.2 128.26C93.14 128.28 93.04 128.32 92.98 128.34ZM91.06 129.16C90.88 129.24 90.8 129.3 90.84 129.3C90.92 129.28 91.6 128.98 92.38 128.7C92.46 128.68 92.54 128.64 92.6 128.62C93.26 128.38 93.74 128.24 93.66 128.24C93.6 128.24 93.14 128.38 92.58 128.56C92.42 128.62 92.26 128.68 92.08 128.74C92.04 128.76 91.96 128.78 91.92 128.8C91.54 128.94 91.24 129.08 91.06 129.16ZM102.34 132.92H102.48C103.34 133.02 103.74 133.98 103.66 134.4C103.52 134.98 103.06 135.5 102.24 136.06C101.48 136.58 100.64 136.34 100.64 136.34C100.3 136.76 100.2 137.86 101 137.9C101.84 137.92 103.48 136.72 104.4 135.98C104.16 136.2 103.86 136.46 103.48 136.82C103.28 137 103.26 137.02 104.5 136.06C105.44 135.36 106.46 134.46 105.02 135.72C103.56 137.04 108.54 132.84 105.56 135.52C107.66 133.9 106.08 135.24 105.9 135.5C105.28 136.04 105.34 135.96 105 136.22C104.94 136.26 104.36 136.7 104.58 136.6C104.74 136.52 104.9 136.4 105.24 136.1C105.42 136 105.6 135.86 105.62 135.86C104.4 137.02 102.62 138.46 100.98 138.56C100.44 138.58 99.8202 138.18 99.5802 137.66C99.1002 136.62 99.4802 134.54 101.16 133.34C101.6 133.02 102 132.92 102.34 132.92ZM104.4 135.98C105.16 135.36 105.44 135.06 104.4 135.98V135.98ZM102.54 133.84C102.08 133.84 100.8 135.3 101.06 135.4C101.38 135.52 102.96 134.18 102.6 133.84H102.54ZM100.12 135.26C100.12 135.26 99.6202 136.2 99.6602 136.88C99.6802 137.46 100 137.78 100.12 137.9C100 137.76 99.7202 137.36 99.7202 136.88C99.7402 136.36 100.12 135.26 100.12 135.26ZM103.14 137.06C102.8 137.38 101.54 138.06 101.5 138C101.44 138.28 103.26 137.1 103.14 137.06ZM112.258 124.9C112.498 124.9 112.938 125.06 113.078 125.6C113.678 127.6 107.738 135.2 106.678 135.5C106.138 136.18 105.618 140.1 106.558 139.86C108.018 139.48 110.278 136.44 111.118 135.62C111.298 134.98 111.518 134.4 111.638 134.02C112.618 131.44 113.498 129.66 115.218 127.36C116.018 126.3 116.898 125.04 117.898 124.98H117.938C118.178 124.98 118.638 125.14 118.758 125.68C119.298 127.54 113.958 133.88 112.118 135.32C111.838 135.9 111.358 138.14 111.738 138.5C112.298 139.06 113.038 138.24 115.058 136.28C115.198 136.24 115.258 135.96 115.458 135.92C115.698 135.76 115.718 135.72 115.698 135.7C115.658 135.6 116.378 135.12 116.478 134.92C117.798 133.88 114.858 137.1 113.938 138.02C115.358 136.98 116.538 135.02 116.278 135.6C116.358 135.48 116.538 135.44 116.578 135.42C116.598 135.42 116.638 135.4 116.638 135.4C116.638 135.4 116.618 135.44 116.618 135.46C116.598 135.5 116.558 135.54 116.538 135.58C116.578 135.56 116.618 135.5 116.658 135.48C116.998 135.16 116.998 135.1 116.878 135.3C116.798 135.38 116.738 135.46 116.678 135.52L116.258 135.94C116.198 136.02 116.118 136.06 116.078 136.1C115.058 137.12 113.658 139.06 112.678 139.2C111.698 139.34 110.958 138.84 110.838 137.88C110.798 137.5 110.818 137.04 110.898 136.6C110.538 137.12 110.038 137.64 109.058 138.78C108.258 139.72 107.498 140.32 106.918 140.6C105.718 140.94 105.038 139.6 105.098 138.2C105.318 133.48 108.898 128.04 109.498 127.3C110.018 126.66 111.138 125 112.218 124.9H112.258ZM111.938 125.54C111.638 125.54 109.938 127.7 109.518 128.74C108.858 129.78 111.258 125.94 111.978 125.56L111.938 125.54ZM117.598 125.62C117.298 125.62 115.558 127.76 115.138 128.8C114.478 129.82 116.898 126.02 117.638 125.64L117.598 125.62ZM112.358 125.68C111.598 125.7 109.698 128.56 108.398 131.04C107.858 132.08 107.358 133.22 106.838 134.48L106.878 134.46C108.378 133.4 113.638 125.58 112.438 125.7C112.418 125.7 112.378 125.68 112.358 125.68ZM118.018 125.76C117.258 125.78 114.958 129.18 114.018 130.98C113.638 131.46 112.558 133.86 112.378 134.34C114.158 132.6 119.318 125.66 118.098 125.78C118.078 125.78 118.038 125.76 118.018 125.76ZM112.818 126.36C112.798 126.36 112.758 126.36 112.718 126.4C112.818 126.54 112.238 127.94 111.538 129.06C110.458 130.78 109.398 131.98 109.978 131.52C111.738 129.2 113.038 126.38 112.818 126.36ZM118.458 126.44C118.438 126.44 118.418 126.46 118.378 126.5C118.478 126.64 117.878 128.02 117.178 129.14C116.098 130.86 115.318 131.44 115.898 131C117.678 128.7 118.678 126.46 118.458 126.44ZM110.398 126.94C108.478 129 106.078 135.06 106.438 134.66C106.538 134.56 106.778 133.52 107.458 132.02C107.698 131.46 108.158 130.74 108.498 129.94C109.118 128.78 110.098 127.3 110.398 126.94ZM116.058 127C114.138 129.04 111.638 135.1 111.998 134.72C112.098 134.62 112.378 133.54 113.058 132.06C113.318 131.52 113.778 130.78 114.138 129.98C114.758 128.82 115.758 127.36 116.058 127ZM109.338 129.06C109.338 129.06 109.298 129.1 109.158 129.28C108.998 129.48 108.678 130.12 108.418 130.6C108.778 129.98 109.318 129.1 109.318 129.1L109.338 129.06ZM114.978 129.12C114.978 129.12 114.918 129.16 114.778 129.34C114.618 129.54 114.278 130.18 114.018 130.66C114.398 130.04 114.958 129.16 114.958 129.16L114.978 129.12ZM110.918 129.72V129.74C110.938 129.74 109.118 132.16 109.238 132.08C109.598 131.8 110.958 129.72 110.918 129.72ZM116.538 129.8V129.82C116.458 129.96 114.578 132.24 114.698 132.18C115.058 131.9 116.578 129.8 116.538 129.8ZM109.878 131.64C109.878 131.64 109.838 131.68 109.778 131.76C109.778 131.78 108.298 133.64 108.478 133.44C108.858 133.12 109.878 131.66 109.878 131.64ZM109.638 131.76C109.638 131.76 107.798 133.94 107.938 133.84C108.078 133.74 109.598 131.86 109.638 131.76ZM112.818 131.92C112.818 131.92 112.798 131.96 112.778 132.02C112.638 132.36 112.338 133.12 112.178 133.54C111.998 134 111.638 134.8 111.598 135.04C111.978 134.08 112.618 132.56 112.778 132.12L112.818 131.92ZM107.778 131.96C106.978 133.54 107.398 132.84 107.178 133.3C106.998 133.7 106.698 134.48 106.698 134.5L107.778 131.96ZM114.558 132.56C114.558 132.56 112.518 134.64 112.658 134.54C112.798 134.44 114.518 132.64 114.558 132.56ZM117.558 134.42C117.578 134.42 117.418 134.64 116.898 135.12L116.878 135.14C117.198 134.72 117.518 134.42 117.558 134.42ZM116.878 135.14C116.858 135.18 116.818 135.2 116.798 135.24C116.758 135.26 116.798 135.22 116.878 135.14ZM117.458 134.46C117.458 134.46 117.298 134.68 116.898 135.08C116.858 135.12 116.778 135.16 116.778 135.16C116.778 135.16 116.798 135.08 116.838 135.04C117.238 134.66 117.458 134.46 117.458 134.46ZM111.778 135.6C110.998 137.24 111.338 138.46 111.518 138.36C111.518 138.36 111.278 138.3 111.398 137.18C111.458 136.64 111.718 136.14 111.778 135.6ZM106.198 135.8C105.638 137.34 105.758 139.62 105.938 139.52C105.818 139.24 105.778 137.94 105.958 136.94C106.018 136.4 106.138 136.34 106.198 135.8ZM110.958 136.26C110.558 136.72 110.158 137.24 109.818 137.58C108.478 139.1 108.378 139.32 108.378 139.32C109.038 138.66 109.458 138.08 110.438 136.98C110.458 136.96 110.738 136.6 110.938 136.38C110.938 136.34 110.958 136.3 110.958 136.26ZM115.678 135.94C115.258 136.5 113.458 138.18 113.018 138.5C113.538 138.14 115.158 136.26 115.678 135.94ZM109.398 137.76C109.038 138.18 108.558 138.7 108.098 139.14C107.558 139.66 107.018 140.08 106.618 140.16C106.618 140.16 106.938 140.3 108.038 139.28C109.098 138.28 109.398 137.76 109.398 137.76ZM125.817 134.84C126.677 134.24 127.417 134.62 127.817 135.36C128.157 136 128.277 136.96 128.277 137.5C128.917 137.02 132.457 134.44 128.297 137.76V137.98L130.077 136.56C130.297 136.4 130.837 135.9 132.877 134.54C132.917 134.52 130.717 136.1 130.317 136.5C130.917 136.1 131.517 135.5 132.597 134.9C129.217 137.52 130.017 136.82 128.277 138.3C128.277 138.74 128.237 139.26 128.157 140.5C127.637 145.56 125.417 150.04 123.697 151.24C122.737 151.9 121.377 152.42 120.257 151.46C117.177 148.1 126.877 138.52 127.457 138.32C127.537 137.2 127.497 136.14 127.137 135.58C126.177 134.08 124.637 138.18 123.837 139.06C122.577 140.52 121.317 139.14 121.457 137.88C121.577 136.84 122.057 134.9 122.237 134.82C122.577 134.66 123.517 134.58 123.057 135.66C122.837 136.18 122.477 137.04 122.397 138.3C122.317 139.56 124.497 135.76 125.817 134.84ZM132.357 134.72V134.74L131.017 135.64C131.017 135.64 130.317 136.18 130.357 136.06C130.477 135.86 132.257 134.72 132.357 134.72ZM125.957 135.06C125.777 135.14 124.717 136.3 125.237 136.02C124.677 136.58 123.957 137.88 123.777 138.22C124.177 137.62 125.977 135.12 125.957 135.06ZM124.937 136.08C124.757 136.12 123.877 137.42 123.877 137.42C123.877 137.42 125.017 136.12 124.937 136.08ZM123.777 137.52C123.057 138.52 123.077 138.28 123.057 138.48C123.037 138.68 123.777 137.52 123.777 137.52ZM127.397 138.2C126.417 138.96 125.437 139.96 124.757 140.7C123.497 142.06 123.697 141.92 123.537 142.14C123.337 142.44 123.097 142.58 123.477 142.08C125.757 139.32 127.377 138.2 127.397 138.2ZM127.437 138.7C126.457 138.82 119.477 146.9 120.037 149.06C119.997 148.84 120.177 148.3 120.577 147.5C120.917 146.28 121.717 145.24 122.197 144.42C121.957 145.14 121.957 144.94 120.977 146.78C120.977 146.8 120.937 146.84 120.937 146.86C122.097 144.78 124.337 141.62 127.437 138.7ZM127.417 139.08C126.537 139.84 125.417 141.04 124.297 142.44C123.737 143.22 122.017 145.52 121.897 145.8C121.777 146.1 121.677 146.22 121.717 146.06C121.477 146.46 121.217 146.84 121.017 147.22C120.817 147.6 120.637 148 120.517 148.4C120.477 148.64 120.457 148.86 120.457 149C120.457 148.88 120.437 148.76 120.437 148.64C120.077 149.94 120.217 151.12 121.337 151.1C122.097 151.1 122.777 150.52 124.277 148.82C125.577 147.34 127.117 142.7 127.417 139.08ZM120.457 149C120.457 149.06 120.497 149.1 120.497 149.16C120.477 149.16 120.457 149.1 120.457 149ZM127.697 139.22C127.697 139.22 127.277 142.14 127.097 142.82C126.917 143.5 126.857 143.72 126.957 143.72C127.057 143.72 127.697 139.22 127.697 139.22ZM123.097 143.3C123.137 143.32 122.677 143.96 122.497 144.18C122.377 144.34 122.257 144.46 122.297 144.34C122.337 144.22 123.057 143.34 123.057 143.34L123.097 143.3ZM126.877 143.82C126.857 143.86 125.957 146.38 125.757 146.82C125.557 147.26 125.657 147.24 125.737 147.06C125.917 147.62 123.237 151.24 122.557 151.04C122.837 151.3 125.697 149.18 127.017 144.26C126.937 144.38 125.977 146.82 125.957 146.84C125.797 147.04 126.417 145.54 126.777 144.4C126.877 144.12 126.877 143.86 126.877 143.82ZM125.537 147.26C125.537 147.26 124.577 148.74 124.737 148.6C124.897 148.46 125.537 147.26 125.537 147.26ZM125.097 148.9C125.097 148.9 123.897 150.96 122.577 151.4C121.637 151.72 122.617 151.64 123.317 151.08C124.237 150.34 124.777 149.56 124.917 149.34C125.057 149.1 125.097 148.9 125.097 148.9ZM135.179 136.08C134.919 136.32 135.739 136.02 136.699 135.46C136.739 135.44 137.139 135.22 137.019 135.34C136.799 135.58 136.199 136.02 136.239 136C136.339 135.96 137.199 135.42 137.219 135.46C137.239 135.5 136.619 136 135.879 136.42C135.679 136.54 135.159 136.8 134.219 137.04C133.919 137.58 133.439 138.4 132.659 138.96C132.179 139.26 131.639 139.24 131.039 138.58C129.799 137.24 132.279 134.54 132.319 134.52C132.659 134.28 132.859 134.68 133.359 134.52C133.519 134.44 134.039 134.58 134.399 135.06C134.619 135.36 134.499 136.24 134.479 136.28C134.899 136.16 135.159 135.98 135.819 135.72C136.019 135.64 136.459 135.44 136.539 135.38C136.779 135.48 135.059 136.16 135.179 136.08ZM136.499 135.66C136.139 135.88 135.559 136.16 135.299 136.26C135.239 136.34 136.319 135.9 136.499 135.66ZM133.539 135.24H133.519H133.499C133.039 135.3 132.879 136.44 133.279 136.52C133.599 136.48 133.779 135.24 133.539 135.24ZM132.379 136.28C132.379 136.28 131.059 138.42 131.799 138.48C132.459 138.52 133.239 136.98 133.259 136.96C132.739 136.86 132.519 136.48 132.379 136.28ZM137.177 134.78C137.497 134.78 137.837 135 137.617 135.26C137.217 135.5 136.297 137.32 136.777 137.34C137.457 137.24 138.237 136.1 138.937 135.52C139.617 134.9 140.237 135.56 140.297 136.22C140.377 137.06 140.417 137.18 140.597 137.2C141.617 137.04 143.117 135.84 143.957 135.12C144.197 135.28 142.057 136.66 142.237 136.6C142.457 136.52 142.877 136.22 143.377 135.8C143.417 135.76 143.777 135.36 143.717 135.5C143.597 135.78 144.197 135.12 144.417 134.9C144.677 134.74 144.057 135.68 143.677 136.04C142.717 136.94 141.117 138.16 140.257 137.62C139.637 137.22 139.417 136.36 139.417 136.36C139.417 136.36 137.637 138.24 136.937 138.02C136.237 137.8 135.837 137.38 135.977 136.64C136.057 136.22 136.537 135.42 136.837 134.96C136.897 134.84 137.037 134.78 137.177 134.78ZM142.677 136.5C142.617 136.58 141.897 137.1 141.897 137.1C141.897 137.1 141.857 137.3 142.817 136.56C143.137 136.34 143.677 135.8 143.737 135.72L142.677 136.5ZM144.868 132.52C145.228 132.52 145.588 132.74 145.808 133.24C146.048 134.26 144.248 134.58 144.768 135.52C144.908 135.78 145.348 136.24 145.528 136.54C145.968 137.3 145.948 137.9 145.408 138.52C144.348 139.72 144.008 140.42 144.088 140.64C144.208 140.88 145.088 139.96 145.988 139.08C147.228 137.88 149.008 135.94 150.408 134.54C149.868 135.48 148.228 136.94 147.348 138C147.888 137.46 150.228 135.06 150.228 135.06L148.128 137.56C148.128 137.56 147.988 137.76 148.008 137.76C148.728 136.8 149.248 136.54 149.808 135.7C149.448 136.4 148.668 137.36 147.888 138.3C146.568 139.88 146.308 140.18 145.368 141.04C144.188 142.12 143.088 141.24 143.068 140.4C143.008 138.7 145.448 137.6 144.648 136.52C143.888 135.52 142.708 134.66 143.548 133.34C143.848 132.9 144.388 132.52 144.868 132.52ZM145.148 137.38C144.968 138.12 144.468 138.48 143.908 139.36C143.728 139.66 143.508 140.08 143.668 140.52C143.628 140.22 143.768 139.78 144.088 139.28C144.328 138.9 145.148 138.04 145.148 137.38ZM147.688 137.98C147.108 138.54 146.208 139.56 144.928 140.76C145.388 140.48 145.608 140.22 146.188 139.64C146.708 139.12 147.648 138.2 147.688 137.98ZM156.435 135.52C157.335 134.48 159.255 133.14 160.235 134.54C160.655 135.14 160.595 136.22 160.215 136.54C160.015 136.72 159.995 136.72 159.675 136.94C160.515 136.5 161.575 135.96 162.595 135.56C162.455 135.66 162.095 135.86 161.215 136.38C160.895 136.6 163.555 135.12 163.595 135.24C163.595 135.28 162.995 135.64 161.235 136.58C160.615 136.98 160.555 137 160.435 137.08C161.035 136.84 161.675 136.3 162.435 136.12C161.355 136.76 161.135 136.92 159.875 137.66C159.755 137.78 158.935 139.08 158.015 139.56C157.115 140.04 156.435 139.34 156.995 138.72C157.755 137.9 158.555 137.56 158.955 137.32C159.175 137.2 160.275 134.98 159.615 134.58C158.715 134.04 156.275 136.58 156.095 137.08C155.215 138.36 154.575 140.06 154.395 140.6C153.975 141.9 153.355 143.6 153.295 144C153.295 144.08 153.255 144.22 153.215 144.4L153.095 144.62C152.655 146.2 152.715 145.98 152.495 147C152.215 147.1 152.975 144.38 153.075 144.24C153.155 144.14 153.595 142.72 153.335 143.44C153.235 143.72 153.115 143.8 153.275 143.26C153.375 142.96 153.515 142.72 153.495 142.76C153.475 142.78 153.495 142.68 153.535 142.5C153.875 141.42 152.775 144.04 152.875 144.32C152.855 144.4 152.835 144.46 152.815 144.54C152.755 144.88 152.655 145.2 152.535 145.54C152.175 147.26 152.015 149.36 152.495 149.14C152.715 149.04 153.035 148.82 153.395 148.54C153.115 148.9 152.615 149.3 153.335 148.74C153.415 148.68 153.775 148.32 153.755 148.36C153.715 148.44 152.895 149.4 153.495 148.94C153.535 148.92 153.395 149.44 152.795 149.64C151.995 149.86 151.595 149 151.535 148.42C151.335 146.44 152.495 143.22 153.275 140.66C153.855 139 154.595 137.08 155.235 135.66C155.395 135.4 155.835 133.88 156.055 134.24C156.475 134.36 156.735 134.88 156.635 135.18C156.555 135.42 156.235 135.7 156.435 135.52ZM159.015 134.38C158.515 134.52 158.095 134.66 157.395 135.28C157.755 135.1 157.635 135.02 158.275 134.72C158.375 134.64 159.015 134.38 159.015 134.38ZM157.155 135.18C157.455 134.94 158.335 134.24 158.115 134.42C158.035 134.5 157.135 134.86 156.375 135.92C156.375 135.94 156.895 135.38 157.155 135.18ZM155.775 137.1C155.315 137.32 154.375 139.6 154.195 140.28C154.455 139.76 155.015 138.06 155.775 137.1ZM158.855 138.18C158.855 138.18 157.335 139.14 157.535 139.04C157.695 138.96 158.075 138.76 158.855 138.18ZM154.035 140.74L154.015 140.76C153.955 140.84 153.795 141.22 153.715 141.5C153.675 141.62 153.635 141.74 153.635 141.78C153.635 141.86 153.675 141.82 153.715 141.66C153.755 141.54 153.855 141.28 153.935 141.06C153.955 141 153.975 140.94 153.995 140.9C153.995 140.88 154.015 140.86 154.015 140.86V140.82C154.035 140.78 154.035 140.74 154.035 140.74ZM153.435 142.6C153.435 142.6 153.415 142.62 153.415 142.66V142.68C153.395 142.74 153.395 142.76 153.415 142.72C153.415 142.7 153.435 142.68 153.435 142.66C153.435 142.64 153.455 142.6 153.455 142.6H153.435ZM152.995 142.88C152.635 143.2 151.515 147.62 151.915 147.98C151.835 147.66 152.135 145.56 152.315 145.3V144.8C152.435 144.92 153.035 142.96 152.995 142.88ZM163.852 132.52C164.212 132.52 164.572 132.74 164.792 133.24C165.032 134.26 163.232 134.58 163.752 135.52C163.892 135.78 164.332 136.24 164.512 136.54C164.952 137.3 164.932 137.9 164.392 138.52C163.332 139.72 162.992 140.42 163.072 140.64C163.192 140.88 164.072 139.96 164.972 139.08C166.212 137.88 167.992 135.94 169.392 134.54C168.852 135.48 167.212 136.94 166.332 138C166.872 137.46 169.212 135.06 169.212 135.06L167.112 137.56C167.112 137.56 166.972 137.76 166.992 137.76C167.712 136.8 168.232 136.54 168.792 135.7C168.432 136.4 167.652 137.36 166.872 138.3C165.552 139.88 165.292 140.18 164.352 141.04C163.172 142.12 162.072 141.24 162.052 140.4C161.992 138.7 164.432 137.6 163.632 136.52C162.872 135.52 161.692 134.66 162.532 133.34C162.832 132.9 163.372 132.52 163.852 132.52ZM164.132 137.38C163.952 138.12 163.452 138.48 162.892 139.36C162.712 139.66 162.492 140.08 162.652 140.52C162.612 140.22 162.752 139.78 163.072 139.28C163.312 138.9 164.132 138.04 164.132 137.38ZM166.672 137.98C166.092 138.54 165.192 139.56 163.912 140.76C164.372 140.48 164.592 140.22 165.172 139.64C165.692 139.12 166.632 138.2 166.672 137.98ZM172.23 136.08C171.97 136.32 172.79 136.02 173.75 135.46C173.79 135.44 174.19 135.22 174.07 135.34C173.85 135.58 173.25 136.02 173.29 136C173.39 135.96 174.25 135.42 174.27 135.46C174.29 135.5 173.67 136 172.93 136.42C172.73 136.54 172.21 136.8 171.27 137.04C170.97 137.58 170.49 138.4 169.71 138.96C169.23 139.26 168.69 139.24 168.09 138.58C166.85 137.24 169.33 134.54 169.37 134.52C169.71 134.28 169.91 134.68 170.41 134.52C170.57 134.44 171.09 134.58 171.45 135.06C171.67 135.36 171.55 136.24 171.53 136.28C171.95 136.16 172.21 135.98 172.87 135.72C173.07 135.64 173.51 135.44 173.59 135.38C173.83 135.48 172.11 136.16 172.23 136.08ZM173.55 135.66C173.19 135.88 172.61 136.16 172.35 136.26C172.29 136.34 173.37 135.9 173.55 135.66ZM170.59 135.24H170.57H170.55C170.09 135.3 169.93 136.44 170.33 136.52C170.65 136.48 170.83 135.24 170.59 135.24ZM169.43 136.28C169.43 136.28 168.11 138.42 168.85 138.48C169.51 138.52 170.29 136.98 170.31 136.96C169.79 136.86 169.57 136.48 169.43 136.28ZM182.908 122.44C183.148 122.44 183.628 122.56 183.788 123.16C184.508 125.38 178.648 134.42 177.588 134.82C177.348 135.48 177.028 137.6 177.448 137.94C177.868 138.54 179.128 137.66 179.988 136.76C180.488 136.3 179.708 136.72 180.488 136.28C180.628 136.24 180.688 135.9 180.888 135.86C181.108 135.68 181.128 135.64 181.108 135.62C181.068 135.5 181.928 134.98 182.008 134.76C183.268 133.7 180.128 137.32 179.248 138.02C180.548 137.16 181.728 135.24 181.768 135.52C181.848 135.38 181.928 135.26 181.968 135.24H182.028V135.28C182.008 135.32 181.948 135.38 181.928 135.42C181.968 135.38 182.008 135.36 182.048 135.32C182.368 134.94 182.368 134.86 182.268 135.1C182.188 135.18 182.128 135.28 182.068 135.34C181.948 135.5 181.828 135.66 181.688 135.84C181.628 135.92 181.548 136.02 181.508 136.06C180.548 137.28 179.608 138.38 178.208 138.68C177.228 138.9 176.688 138.36 176.508 137.28C176.448 136.9 176.428 136.5 176.468 136.08C175.848 136.84 175.128 137.52 174.548 137.7C173.768 137.94 173.188 137.72 173.008 136.68C172.908 136.08 173.468 134.6 174.788 133.84C175.388 133.5 176.228 133.58 176.868 134C176.948 133.68 177.028 133.4 177.068 133.18C177.908 130.24 178.708 127.9 180.308 125.24C181.048 124 181.868 122.56 182.868 122.44H182.908ZM182.608 123.16C182.308 123.18 180.708 125.7 180.328 126.88C179.728 128.08 181.928 123.64 182.648 123.18C182.648 123.18 182.628 123.16 182.608 123.16ZM183.068 123.3H183.048C182.288 123.36 180.028 127.92 179.188 129.98C178.948 130.54 178.408 131.94 177.928 133.42L177.968 133.4C179.428 132.14 184.328 123.14 183.108 123.32C183.088 123.32 183.088 123.3 183.068 123.3ZM183.528 124.02C183.508 124.02 183.488 124.06 183.448 124.1C183.548 124.26 183.028 125.86 182.388 127.14C181.388 129.14 180.368 130.5 180.928 129.96C182.588 127.28 183.748 124.04 183.528 124.02ZM181.128 124.8C179.308 127.2 177.088 134.46 177.428 134.02C177.508 133.9 177.808 132.36 178.408 130.66C178.628 130.02 179.068 129.16 179.368 128.24C179.928 126.92 180.848 125.22 181.128 124.8ZM180.168 127.22C180.168 127.22 180.128 127.28 179.988 127.48C179.828 127.7 179.528 128.44 179.308 129C179.648 128.28 180.148 127.28 180.148 127.28L180.168 127.22ZM181.788 127.9L181.768 127.92C181.788 127.92 180.088 130.7 180.208 130.62C180.548 130.3 181.828 127.9 181.788 127.9ZM180.848 130.1C180.848 130.1 180.808 130.14 180.748 130.24C180.748 130.26 179.428 132.4 179.588 132.18C179.948 131.8 180.868 130.12 180.848 130.1ZM180.588 130.24C180.588 130.24 178.888 132.82 179.028 132.7C179.168 132.58 180.548 130.34 180.588 130.24ZM178.288 130.46C178.288 130.46 177.288 133.06 177.248 133.64V133.78C177.168 134.1 177.128 134.18 177.128 134.2C177.168 134.28 177.208 134.26 177.248 133.78C177.568 132.72 178.288 130.46 178.288 130.46ZM178.748 130.58C178.028 132.38 178.388 131.54 178.188 132.08C178.028 132.52 177.688 133.64 177.688 133.66L178.748 130.58ZM182.228 134.8C182.288 134.74 182.768 134.18 182.268 134.84C182.228 134.9 182.008 135.16 182.008 135.16C182.008 135.16 182.188 134.86 182.228 134.8ZM176.528 135.02C176.588 134.68 176.008 134.18 175.628 134.32C174.748 134.64 174.208 135.62 173.968 136.28C173.708 136.96 173.908 137.36 174.808 136.64C175.468 136.08 175.948 135.62 176.528 135.02ZM177.188 135.16C176.768 136.92 177.048 137.9 177.228 137.78C177.228 137.78 176.988 137.72 177.048 136.48C177.068 135.86 177.148 135.78 177.188 135.16ZM181.408 135.52C181.008 136.16 179.868 137.12 179.428 137.5C179.928 137.08 180.888 135.92 181.408 135.52ZM176.588 135.48C176.208 135.9 174.708 137.22 174.468 137.12C174.088 137.54 175.768 136.6 176.588 135.48ZM182.001 134.78C182.321 134.78 182.661 135 182.441 135.26C182.041 135.5 181.121 137.32 181.601 137.34C182.281 137.24 183.061 136.1 183.761 135.52C184.441 134.9 185.061 135.56 185.121 136.22C185.201 137.06 185.241 137.18 185.421 137.2C186.441 137.04 187.941 135.84 188.781 135.12C189.021 135.28 186.881 136.66 187.061 136.6C187.281 136.52 187.701 136.22 188.201 135.8C188.241 135.76 188.601 135.36 188.541 135.5C188.421 135.78 189.021 135.12 189.241 134.9C189.501 134.74 188.881 135.68 188.501 136.04C187.541 136.94 185.941 138.16 185.081 137.62C184.461 137.22 184.241 136.36 184.241 136.36C184.241 136.36 182.461 138.24 181.761 138.02C181.061 137.8 180.661 137.38 180.801 136.64C180.881 136.22 181.361 135.42 181.661 134.96C181.721 134.84 181.861 134.78 182.001 134.78ZM187.501 136.5C187.441 136.58 186.721 137.1 186.721 137.1C186.721 137.1 186.681 137.3 187.641 136.56C187.961 136.34 188.501 135.8 188.561 135.72L187.501 136.5ZM188.232 135.68C188.752 134.7 189.592 133.82 190.872 133.6C191.612 133.58 191.812 133.74 191.912 133.96C191.972 134.4 191.712 134.1 191.252 134.28C189.752 134.58 187.752 137.9 189.152 138.62C189.992 139.04 192.172 137.34 193.052 136.68C193.352 136.44 193.792 136.08 194.212 135.66C194.572 135.3 194.852 135.02 194.532 135.38C194.452 135.48 194.472 135.48 194.712 135.22C194.912 135 195.032 134.9 194.992 134.96C194.992 135.06 195.012 134.9 195.192 134.84C195.112 134.9 194.732 135.28 194.332 135.66C193.932 136.04 193.532 136.42 193.432 136.52L193.292 136.66C193.332 136.62 193.412 136.56 193.452 136.52C193.572 136.42 193.612 136.42 193.572 136.46C193.552 136.5 193.572 136.48 193.692 136.36C193.812 136.24 193.872 136.18 193.832 136.2C193.792 136.22 193.832 136.18 193.952 136.08C194.072 135.96 194.112 135.94 194.112 135.96C194.112 135.98 194.132 135.98 194.132 135.94C194.152 135.9 194.172 135.88 194.192 135.88C194.212 135.88 194.232 135.88 194.232 135.84C194.252 135.8 194.532 135.52 194.572 135.52C194.492 135.64 194.352 135.74 194.252 135.88C194.232 135.96 194.632 135.5 194.612 135.56C194.612 135.56 194.492 135.7 194.332 135.84C193.932 136.2 193.412 136.68 193.212 136.86L193.152 136.92C193.152 136.94 193.172 136.94 193.192 136.92L193.232 136.88C193.352 136.78 193.552 136.62 193.812 136.4C194.112 136.14 194.592 135.64 194.792 135.64C194.832 135.58 194.912 135.48 194.972 135.44C195.032 135.4 195.072 135.34 195.112 135.28C195.132 135.28 195.192 135.24 195.232 135.2C195.292 135.12 195.312 135.14 195.252 135.16C194.392 135.8 194.372 136.5 193.412 137.08C193.432 137.08 193.592 136.96 193.772 136.8C193.792 136.78 194.412 136.22 193.652 136.92C193.572 137 193.492 137.08 193.432 137.12C193.272 137.26 193.212 137.32 193.452 137.12C193.472 137.1 193.492 137.1 193.512 137.08C193.752 136.88 193.812 136.82 193.692 136.94C193.632 137 193.592 137.04 193.632 137.02C193.692 136.98 193.692 136.98 193.652 137.02C193.612 137.06 193.632 137.08 193.672 137.06C193.712 137.04 193.732 137 193.732 136.98C193.732 136.96 193.772 136.92 193.892 136.84C193.972 136.78 194.052 136.7 194.072 136.68C194.232 136.54 193.952 136.9 193.852 136.9C193.832 136.9 193.812 136.92 193.812 136.94C191.192 139.48 190.412 139.36 189.912 139.36C187.892 139.4 187.372 137.34 188.232 135.68ZM189.952 138.88C189.812 139.28 190.672 139.18 192.592 137.34C191.832 137.96 189.952 139.48 189.952 138.88ZM194.212 136.48V136.46C194.232 136.42 194.212 136.42 194.192 136.44C194.172 136.44 194.212 136.4 194.252 136.36C194.272 136.34 194.312 136.28 194.332 136.26C194.312 136.28 194.312 136.34 194.292 136.36C194.272 136.42 194.232 136.48 194.212 136.48ZM193.912 136.74L193.932 136.72C193.952 136.7 193.932 136.7 193.912 136.72C193.892 136.74 193.892 136.76 193.892 136.76L193.912 136.74ZM193.112 137.42H193.072L193.112 137.38C193.132 137.36 193.152 137.36 193.132 137.38L193.112 137.42ZM193.252 137.24V137.22C193.272 137.2 193.272 137.18 193.272 137.18L193.252 137.2L193.212 137.24H193.252ZM192.772 137.62C192.812 137.6 192.832 137.56 192.872 137.52C193.012 137.38 192.992 137.42 192.812 137.56C192.692 137.66 192.632 137.7 192.672 137.68C192.692 137.68 192.732 137.64 192.772 137.62ZM192.432 137.84C192.452 137.82 192.492 137.8 192.512 137.78C192.552 137.74 192.492 137.76 192.412 137.82C192.332 137.88 192.292 137.92 192.352 137.9C192.372 137.88 192.412 137.86 192.432 137.84ZM194.292 136.18C194.232 136.22 195.392 135.28 194.312 136.12C193.972 136.44 193.852 136.56 193.912 136.52C193.952 136.5 194.132 136.34 194.292 136.18ZM192.952 137.4C192.972 137.38 193.012 137.36 193.032 137.34C193.072 137.3 193.052 137.32 192.972 137.38C192.892 137.44 192.852 137.48 192.892 137.46C192.912 137.46 192.932 137.42 192.952 137.4ZM193.512 136.88L193.492 136.9C193.492 136.9 193.492 136.88 193.512 136.86C193.532 136.84 193.552 136.84 193.532 136.86L193.512 136.88ZM194.232 136.12C194.932 135.46 194.392 136 193.932 136.38C193.932 136.38 194.072 136.28 194.232 136.12ZM193.732 136.64H193.692C193.692 136.64 193.712 136.64 193.732 136.62C193.752 136.6 193.772 136.58 193.752 136.6L193.732 136.64ZM193.432 136.84C193.592 136.7 193.732 136.56 193.732 136.56C193.732 136.56 193.452 136.78 193.272 136.94L193.132 137.08C193.132 137.08 193.192 137.04 193.292 136.96C193.332 136.92 193.392 136.88 193.432 136.84ZM194.852 135.5C194.932 135.42 195.032 135.32 195.112 135.22C195.252 135.04 195.212 135.08 195.052 135.26C194.932 135.4 194.892 135.44 194.892 135.42C194.912 135.38 194.872 135.4 194.812 135.48C194.732 135.58 194.732 135.56 194.792 135.52C194.812 135.5 194.852 135.48 194.872 135.46L194.792 135.54C194.732 135.6 194.772 135.58 194.852 135.5ZM195.192 135.08C195.152 135.12 195.092 135.16 195.072 135.16C195.052 135.16 195.072 135.14 195.132 135.08C195.172 135.04 195.232 134.98 195.252 134.98C195.272 134.98 195.252 135.02 195.192 135.08ZM194.892 135.32C194.792 135.42 194.712 135.46 194.732 135.42C194.732 135.4 194.772 135.36 194.812 135.32C194.852 135.28 194.872 135.26 194.872 135.28C194.872 135.3 194.872 135.32 194.932 135.26C195.012 135.2 194.992 135.18 194.912 135.28C194.892 135.3 194.892 135.32 194.892 135.32ZM195.232 134.92L195.192 134.96C195.172 134.98 195.192 134.94 195.232 134.9C195.272 134.86 195.292 134.84 195.272 134.86C195.272 134.88 195.252 134.9 195.232 134.92ZM195.032 135.1L195.052 135.06C195.052 135.04 195.032 135.06 195.012 135.08C194.992 135.1 194.972 135.12 194.992 135.12L195.032 135.1ZM194.812 135.28L194.852 135.24C194.872 135.22 194.852 135.24 194.812 135.28C194.772 135.32 194.752 135.34 194.772 135.32L194.812 135.28ZM193.992 136.1L193.952 136.12C193.932 136.12 193.952 136.12 193.992 136.08C194.032 136.04 194.032 136.04 194.012 136.06L193.992 136.1ZM194.772 135.12C194.712 135.2 194.672 135.2 194.712 135.12C194.752 135.06 194.772 135.04 194.812 135.04C194.832 135.04 194.812 135.08 194.772 135.12ZM194.032 135.82C194.012 135.84 193.992 135.88 193.972 135.88C193.952 135.9 193.972 135.86 194.032 135.8C194.092 135.74 194.112 135.72 194.092 135.76L194.032 135.82ZM194.912 134.96L194.872 135C194.852 135 194.872 134.98 194.912 134.94C194.952 134.9 194.952 134.9 194.932 134.92L194.912 134.96ZM194.512 135.32L194.532 135.28C194.532 135.26 194.532 135.28 194.512 135.3L194.492 135.32H194.512ZM198.927 126.16C199.287 126.16 199.687 126.56 199.407 126.98C198.967 128.02 198.687 128.66 198.507 129.08C198.567 129.08 198.627 129.06 198.707 129.06C199.847 129.02 201.847 128.9 203.287 128.9H203.867C205.507 128.9 206.967 128.96 208.747 129.06C208.907 129.1 209.027 129.1 208.867 129.12C208.587 129.14 207.827 129.16 206.947 129.16C207.107 129.18 207.007 129.16 207.127 129.2C207.267 129.16 209.967 129.22 209.967 129.26C209.967 129.28 207.307 129.28 207.047 129.28C206.547 129.28 206.347 129.28 206.407 129.3C206.747 129.32 211.687 129.26 210.127 129.34C209.847 129.34 207.107 129.34 207.147 129.34C207.167 129.34 209.707 129.4 209.587 129.4C209.427 129.4 209.407 129.4 209.527 129.4C209.607 129.4 209.687 129.44 209.687 129.44C209.687 129.46 209.467 129.44 209.107 129.44C208.227 129.42 207.547 129.42 205.407 129.42C203.747 129.42 203.087 129.44 203.027 129.42C202.967 129.4 202.947 129.4 202.947 129.42C202.947 129.44 202.827 129.44 202.647 129.44C202.487 129.44 202.307 129.44 202.287 129.42C202.267 129.4 202.227 129.42 202.227 129.44C202.227 129.46 202.147 129.5 201.787 129.5C201.467 129.5 201.407 129.5 201.507 129.48C201.607 129.46 201.587 129.46 201.407 129.46C201.287 129.46 201.127 129.48 201.067 129.5C201.007 129.52 200.767 129.52 200.427 129.52C200.127 129.52 199.927 129.56 199.987 129.56C200.047 129.56 199.427 129.58 198.667 129.62C198.647 129.62 198.607 129.66 198.587 129.66C199.007 129.64 199.967 129.58 200.147 129.58C200.347 129.58 201.007 129.56 200.987 129.56C200.927 129.54 201.107 129.54 201.227 129.56C201.327 129.58 201.367 129.58 201.387 129.56C201.407 129.54 201.527 129.52 201.667 129.52H201.907C201.827 129.52 201.767 129.54 201.687 129.54C201.467 129.56 201.487 129.56 201.767 129.56C201.947 129.56 202.047 129.54 202.047 129.52C202.047 129.5 202.087 129.5 202.127 129.52C202.167 129.52 202.247 129.56 202.327 129.56C202.407 129.56 202.067 129.58 201.587 129.58C201.107 129.58 200.667 129.64 200.647 129.64C200.627 129.64 200.707 129.66 200.827 129.66C201.127 129.66 201.127 129.68 200.867 129.72H200.847C200.727 129.72 200.567 129.74 200.447 129.74H200.407C200.347 129.74 200.287 129.72 200.227 129.72C200.067 129.72 199.947 129.74 199.807 129.74H199.827H199.807H199.787C199.667 129.74 199.567 129.76 199.447 129.76C199.507 129.76 199.427 129.76 199.347 129.76H199.227H199.027C198.987 129.76 198.987 129.74 199.087 129.74C199.307 129.74 199.307 129.7 199.007 129.7C198.827 129.7 198.787 129.72 198.827 129.74C198.847 129.74 198.827 129.78 198.827 129.78H198.567C198.487 129.78 198.407 129.8 198.327 129.8V129.82C198.327 129.82 198.227 129.84 198.167 129.84C197.127 131.96 193.547 139.6 195.027 141.46C195.327 141.82 196.487 140.72 196.787 140.26C196.927 140.42 196.027 141.38 195.767 141.38C195.667 141.56 196.027 141.46 196.447 140.98C196.687 140.64 197.007 140.62 196.847 141.1C196.607 141.5 196.147 141.98 195.627 141.98C195.107 141.98 194.687 141.86 194.347 141.42C193.747 140.64 193.707 139 194.147 137.38C194.887 134.8 195.867 132.38 196.927 129.96C196.627 129.98 196.487 130 196.107 130C194.867 130.1 193.567 130.22 193.127 130.3C193.027 130.32 193.327 130.44 193.267 130.46C192.667 130.62 192.087 130.5 192.087 130.22C192.087 129.9 192.127 129.72 192.527 129.58C192.627 129.58 192.707 129.6 192.787 129.6C193.767 129.5 193.807 129.46 195.147 129.34C195.827 129.28 196.507 129.22 197.187 129.18C197.207 129.18 197.247 129.16 197.267 129.16C197.647 128.28 197.967 127.5 198.527 126.48C198.587 126.26 198.727 126.16 198.887 126.16H198.927ZM207.147 129.24H207.287C207.367 129.24 207.327 129.26 207.187 129.26C207.047 129.26 206.967 129.24 207.027 129.24H207.147ZM203.047 129.3H203.147C203.267 129.3 203.207 129.3 203.007 129.3C202.807 129.3 202.707 129.3 202.787 129.3H202.967H203.047ZM203.127 129.36C203.227 129.36 203.307 129.38 203.287 129.38H203.067H202.667C202.667 129.38 202.827 129.36 203.007 129.36H203.127ZM196.647 129.38V129.4C196.607 129.4 196.607 129.38 196.647 129.38ZM209.047 129.4H209.167C209.227 129.4 209.207 129.42 209.107 129.42H209.067C208.987 129.42 208.967 129.4 208.987 129.4H209.047ZM196.427 129.4H196.507L196.047 129.44H196.067C195.887 129.46 195.187 129.52 195.127 129.52C194.827 129.52 195.987 129.4 196.427 129.4ZM201.947 129.4C201.987 129.4 202.047 129.42 202.047 129.42C202.047 129.42 201.987 129.44 201.947 129.44C201.907 129.44 201.847 129.42 201.847 129.42C201.847 129.42 201.907 129.4 201.947 129.4ZM207.987 129.46C207.327 129.46 206.327 129.48 205.207 129.48H204.287C203.567 129.48 203.387 129.5 203.367 129.52C203.327 129.54 203.427 129.54 203.967 129.54C204.807 129.52 204.987 129.54 204.647 129.56C204.407 129.58 204.407 129.58 204.807 129.58C205.147 129.58 205.227 129.58 205.087 129.6C204.867 129.62 204.407 129.6 204.327 129.58H203.787C203.507 129.58 203.367 129.6 203.427 129.6C203.687 129.62 203.607 129.66 203.327 129.66C203.107 129.66 203.067 129.66 203.107 129.62C203.147 129.58 203.147 129.58 203.027 129.6C202.947 129.62 202.907 129.66 202.927 129.66C202.927 129.66 202.947 129.68 202.927 129.68C203.047 129.68 203.167 129.66 203.287 129.66H204.027C204.287 129.66 204.507 129.64 204.767 129.64H205.787H206.067C206.127 129.64 206.187 129.62 206.207 129.62H206.367H206.427H206.407H206.567C206.527 129.62 206.447 129.58 206.387 129.58C206.127 129.54 205.967 129.54 205.547 129.58C205.427 129.58 205.407 129.6 205.487 129.58C205.587 129.56 205.587 129.54 205.487 129.54C205.447 129.54 205.687 129.52 206.087 129.52H206.527C207.207 129.52 207.727 129.54 207.787 129.54C207.847 129.56 207.827 129.56 207.707 129.56C207.607 129.56 207.347 129.54 207.107 129.54C206.687 129.54 206.687 129.54 206.727 129.58L206.747 129.6H207.287H208.027H208.667H208.827C208.747 129.58 208.607 129.58 208.547 129.58H208.367C208.347 129.58 208.907 129.54 209.887 129.54C210.007 129.54 210.107 129.52 210.207 129.52C210.167 129.52 210.147 129.5 210.107 129.5C210.127 129.5 210.107 129.48 210.067 129.48C210.027 129.48 209.967 129.48 209.967 129.5C209.967 129.52 209.927 129.52 209.867 129.5C209.807 129.48 209.667 129.48 209.367 129.48H208.947C208.947 129.48 208.527 129.46 207.987 129.46ZM210.207 129.52C210.947 129.64 211.007 129.48 210.207 129.52V129.52ZM205.127 129.54H205.247C205.307 129.54 205.247 129.54 205.127 129.54C205.007 129.54 204.967 129.54 205.027 129.54H205.127ZM202.967 129.54H202.887C202.867 129.54 202.887 129.56 202.967 129.56H203.007C203.107 129.56 203.107 129.54 203.047 129.54H203.007H202.967ZM207.427 129.58H207.567C207.647 129.58 207.587 129.6 207.447 129.6C207.307 129.6 207.227 129.58 207.287 129.58H207.427ZM199.687 129.64H199.747C199.827 129.64 199.787 129.66 199.647 129.66C199.507 129.66 199.427 129.64 199.487 129.64H199.607H199.687ZM201.687 129.64H201.507H201.387C201.167 129.64 201.147 129.68 201.227 129.68H201.447C201.527 129.68 201.607 129.68 201.727 129.66C201.827 129.66 201.827 129.64 201.687 129.64ZM200.367 129.66C200.427 129.66 200.467 129.68 200.467 129.68C200.447 129.68 200.187 129.72 199.907 129.72C199.627 129.72 199.427 129.72 199.447 129.72C199.467 129.72 199.727 129.68 200.007 129.68C200.027 129.68 200.047 129.66 200.067 129.66H200.367ZM195.547 129.66H195.567C195.587 129.66 195.587 129.68 195.567 129.68C195.487 129.7 195.127 129.76 194.727 129.76C194.807 129.74 195.367 129.66 195.547 129.66ZM198.587 129.74H198.707C198.707 129.74 198.567 129.78 198.347 129.78V129.76C198.367 129.76 198.387 129.74 198.407 129.74H198.587ZM194.707 129.96C194.747 129.96 194.827 129.98 194.867 129.98C194.647 130 194.627 130 194.707 129.96ZM197.507 130.14C197.507 130.14 197.487 130.16 197.467 130.16C197.467 130.16 196.907 131.32 196.887 131.54C196.867 131.78 197.707 130.12 197.507 130.14ZM196.807 131.68C196.227 132.56 195.767 134.54 195.147 135.58C195.187 135.78 194.767 137.42 194.647 137.16C194.587 136.96 195.007 135.92 195.107 135.66L195.087 135.68C195.007 135.84 195.687 133.92 195.607 134.04C193.867 138.02 193.967 139.78 194.107 139.88C194.027 139.48 194.347 137.5 194.447 137.64C194.407 137.7 194.107 140.36 194.307 140.02C194.307 140 194.367 140 194.407 139.84C194.267 140.04 194.487 139.02 194.407 139.04C194.327 139.06 194.387 138.74 194.527 138.24C194.507 138.24 194.507 138.22 194.487 138.2C194.407 137.98 194.707 137.28 194.707 137.28C194.727 137.3 194.767 137.34 194.767 137.42C195.407 135.32 196.647 131.92 196.807 131.68ZM194.347 140.28C194.307 140.78 194.447 141 194.467 141C194.487 141 194.447 140.76 194.347 140.28ZM196.607 141.02C196.587 141.02 196.527 141.1 196.527 141.1C196.527 141.1 196.147 141.5 196.047 141.5H196.027H196.047C196.067 141.5 196.107 141.54 196.187 141.52C196.287 141.52 196.447 141.38 196.587 141.16C196.627 141.08 196.607 141.02 196.607 141.02Z" fill="white"/>
<defs>
<linearGradient id="paint0_linear_3203_31177" x1="-4.27157" y1="110.052" x2="201.449" y2="46.756" gradientUnits="userSpaceOnUse">
<stop stop-color="white"/>
<stop offset="1" stop-color="white" stop-opacity="0"/>
</linearGradient>
</defs>
</svg>
