<svg width="652" height="193" viewBox="0 0 652 193" fill="none" xmlns="http://www.w3.org/2000/svg">
<rect x="305.241" y="132.221" width="340.189" height="39" transform="rotate(-16.35 305.241 132.221)" stroke="white" stroke-width="2"/>
<path d="M25.45 64.95H33.22C33.4067 66.6767 34.0833 68.24 35.25 69.64C36.4633 70.9933 38.05 72.0667 40.01 72.86C42.0167 73.6067 44.3033 73.98 46.87 73.98C49.1567 73.98 51.0467 73.7 52.54 73.14C54.0333 72.58 55.13 71.81 55.83 70.83C56.5767 69.8033 56.95 68.6133 56.95 67.26C56.95 65.9067 56.5067 64.8567 55.62 64.11C54.78 63.3167 53.4733 62.6633 51.7 62.15C49.9267 61.59 47.6633 61.0533 44.91 60.54C42.6233 60.12 40.4067 59.56 38.26 58.86C36.1133 58.16 34.1767 57.2733 32.45 56.2C30.77 55.1267 29.44 53.82 28.46 52.28C27.48 50.6933 26.99 48.8267 26.99 46.68C26.99 44.2533 27.6667 42.06 29.02 40.1C30.42 38.14 32.4733 36.6 35.18 35.48C37.8867 34.36 41.1767 33.8 45.05 33.8C50.9767 33.8 55.5033 35.1767 58.63 37.93C61.7567 40.6367 63.2733 44.3233 63.18 48.99H55.55C55.41 46.05 54.3367 43.9267 52.33 42.62C50.3233 41.3133 47.78 40.66 44.7 40.66C41.9467 40.66 39.6367 41.15 37.77 42.13C35.9033 43.11 34.97 44.6967 34.97 46.89C34.97 47.8233 35.18 48.64 35.6 49.34C36.0667 49.9933 36.8133 50.6 37.84 51.16C38.8667 51.6733 40.2667 52.1867 42.04 52.7C43.86 53.1667 46.0767 53.68 48.69 54.24C50.93 54.6133 53.03 55.1267 54.99 55.78C56.95 56.4333 58.6533 57.25 60.1 58.23C61.5933 59.21 62.76 60.47 63.6 62.01C64.44 63.55 64.86 65.44 64.86 67.68C64.86 70.2467 64.2067 72.5333 62.9 74.54C61.5933 76.5 59.5867 78.0633 56.88 79.23C54.22 80.35 50.7667 80.91 46.52 80.91C43.3 80.91 40.4767 80.5367 38.05 79.79C35.67 78.9967 33.64 77.9933 31.96 76.78C30.28 75.52 28.9267 74.1667 27.9 72.72C26.92 71.2733 26.22 69.8733 25.8 68.52C25.4267 67.12 25.31 65.93 25.45 64.95ZM109.499 66.49C109.219 69.4767 108.262 72.0433 106.629 74.19C104.995 76.3367 102.802 77.97 100.049 79.09C97.342 80.21 94.2153 80.77 90.6687 80.77C86.842 80.77 83.3653 80.07 80.2387 78.67C77.1587 77.27 74.7087 75.2167 72.8887 72.51C71.0687 69.8033 70.1587 66.5133 70.1587 62.64C70.1587 58.7667 71.0687 55.4767 72.8887 52.77C74.7087 50.0633 77.1587 47.9867 80.2387 46.54C83.3653 45.0933 86.842 44.37 90.6687 44.37C94.2153 44.37 97.342 44.9533 100.049 46.12C102.755 47.24 104.925 48.85 106.559 50.95C108.192 53.05 109.149 55.5933 109.429 58.58H102.289C101.495 56.1067 100.049 54.1933 97.9487 52.84C95.8953 51.44 93.4687 50.74 90.6687 50.74C88.382 50.74 86.282 51.2067 84.3687 52.14C82.4553 53.0267 80.9153 54.3567 79.7487 56.13C78.6287 57.8567 78.0687 60.0267 78.0687 62.64C78.0687 65.2067 78.6287 67.3767 79.7487 69.15C80.9153 70.9233 82.4553 72.2533 84.3687 73.14C86.282 73.98 88.382 74.4 90.6687 74.4C93.7487 74.4 96.2687 73.7233 98.2287 72.37C100.235 70.97 101.612 69.01 102.359 66.49H109.499ZM145.604 80V59.84C145.604 57.9733 145.277 56.4333 144.624 55.22C144.017 53.96 143.061 53.0033 141.754 52.35C140.447 51.6967 138.721 51.37 136.574 51.37C134.427 51.37 132.467 51.8367 130.694 52.77C128.921 53.6567 127.474 54.8467 126.354 56.34C125.234 57.8333 124.581 59.49 124.394 61.31L124.324 57.39C124.557 55.71 125.071 54.1 125.864 52.56C126.657 50.9733 127.707 49.5733 129.014 48.36C130.321 47.1467 131.861 46.19 133.634 45.49C135.407 44.7433 137.367 44.37 139.514 44.37C141.521 44.37 143.364 44.65 145.044 45.21C146.771 45.77 148.241 46.61 149.454 47.73C150.714 48.8033 151.671 50.1567 152.324 51.79C153.024 53.3767 153.374 55.22 153.374 57.32V80H145.604ZM117.044 80V31.14H124.814V80H117.044ZM180.558 80.77C176.685 80.77 173.208 80.07 170.128 78.67C167.048 77.27 164.621 75.2167 162.848 72.51C161.075 69.8033 160.188 66.5133 160.188 62.64C160.188 58.8133 161.075 55.5467 162.848 52.84C164.621 50.0867 167.048 47.9867 170.128 46.54C173.208 45.0933 176.685 44.37 180.558 44.37C184.431 44.37 187.885 45.0933 190.918 46.54C193.951 47.9867 196.331 50.0867 198.058 52.84C199.831 55.5467 200.718 58.8133 200.718 62.64C200.718 66.5133 199.831 69.8033 198.058 72.51C196.331 75.2167 193.951 77.27 190.918 78.67C187.885 80.07 184.431 80.77 180.558 80.77ZM180.558 74.4C182.798 74.4 184.851 73.9567 186.718 73.07C188.585 72.1833 190.055 70.8533 191.128 69.08C192.248 67.3067 192.808 65.16 192.808 62.64C192.808 60.12 192.248 57.9733 191.128 56.2C190.055 54.4267 188.585 53.0733 186.718 52.14C184.898 51.16 182.845 50.67 180.558 50.67C178.271 50.67 176.195 51.1367 174.328 52.07C172.461 53.0033 170.945 54.3567 169.778 56.13C168.658 57.9033 168.098 60.0733 168.098 62.64C168.098 65.16 168.658 67.3067 169.778 69.08C170.898 70.8533 172.391 72.1833 174.258 73.07C176.171 73.9567 178.271 74.4 180.558 74.4ZM226.222 80.77C222.349 80.77 218.872 80.07 215.792 78.67C212.712 77.27 210.285 75.2167 208.512 72.51C206.739 69.8033 205.852 66.5133 205.852 62.64C205.852 58.8133 206.739 55.5467 208.512 52.84C210.285 50.0867 212.712 47.9867 215.792 46.54C218.872 45.0933 222.349 44.37 226.222 44.37C230.095 44.37 233.549 45.0933 236.582 46.54C239.615 47.9867 241.995 50.0867 243.722 52.84C245.495 55.5467 246.382 58.8133 246.382 62.64C246.382 66.5133 245.495 69.8033 243.722 72.51C241.995 75.2167 239.615 77.27 236.582 78.67C233.549 80.07 230.095 80.77 226.222 80.77ZM226.222 74.4C228.462 74.4 230.515 73.9567 232.382 73.07C234.249 72.1833 235.719 70.8533 236.792 69.08C237.912 67.3067 238.472 65.16 238.472 62.64C238.472 60.12 237.912 57.9733 236.792 56.2C235.719 54.4267 234.249 53.0733 232.382 52.14C230.562 51.16 228.509 50.67 226.222 50.67C223.935 50.67 221.859 51.1367 219.992 52.07C218.125 53.0033 216.609 54.3567 215.442 56.13C214.322 57.9033 213.762 60.0733 213.762 62.64C213.762 65.16 214.322 67.3067 215.442 69.08C216.562 70.8533 218.055 72.1833 219.922 73.07C221.835 73.9567 223.935 74.4 226.222 74.4ZM254.036 31.14H261.806V80H254.036V31.14ZM328.259 34.64V41.5H296.479V54.66H322.519V61.24H296.479V80H288.499V34.64H328.259ZM361.138 68.52H368.628C368.254 70.9 367.321 73.0233 365.828 74.89C364.381 76.71 362.398 78.1567 359.878 79.23C357.358 80.2567 354.348 80.77 350.848 80.77C346.881 80.77 343.334 80.0467 340.208 78.6C337.081 77.1067 334.631 75.0067 332.858 72.3C331.084 69.5933 330.198 66.3733 330.198 62.64C330.198 58.9533 331.061 55.7333 332.788 52.98C334.514 50.2267 336.894 48.1033 339.928 46.61C343.008 45.1167 346.554 44.37 350.568 44.37C354.721 44.37 358.174 45.1167 360.928 46.61C363.728 48.0567 365.804 50.25 367.158 53.19C368.511 56.0833 369.071 59.7467 368.838 64.18H338.108C338.341 66.14 338.971 67.9133 339.998 69.5C341.071 71.04 342.518 72.2533 344.338 73.14C346.158 73.98 348.281 74.4 350.708 74.4C353.414 74.4 355.678 73.8633 357.498 72.79C359.364 71.7167 360.578 70.2933 361.138 68.52ZM350.358 50.67C347.184 50.67 344.571 51.4633 342.518 53.05C340.464 54.59 339.134 56.5733 338.528 59H360.998C360.811 56.3867 359.761 54.3567 357.848 52.91C355.934 51.4167 353.438 50.67 350.358 50.67ZM404.888 68.52H412.378C412.004 70.9 411.071 73.0233 409.578 74.89C408.131 76.71 406.148 78.1567 403.628 79.23C401.108 80.2567 398.098 80.77 394.598 80.77C390.631 80.77 387.084 80.0467 383.958 78.6C380.831 77.1067 378.381 75.0067 376.608 72.3C374.834 69.5933 373.948 66.3733 373.948 62.64C373.948 58.9533 374.811 55.7333 376.538 52.98C378.264 50.2267 380.644 48.1033 383.678 46.61C386.758 45.1167 390.304 44.37 394.318 44.37C398.471 44.37 401.924 45.1167 404.678 46.61C407.478 48.0567 409.554 50.25 410.908 53.19C412.261 56.0833 412.821 59.7467 412.588 64.18H381.858C382.091 66.14 382.721 67.9133 383.748 69.5C384.821 71.04 386.268 72.2533 388.088 73.14C389.908 73.98 392.031 74.4 394.458 74.4C397.164 74.4 399.428 73.8633 401.248 72.79C403.114 71.7167 404.328 70.2933 404.888 68.52ZM394.108 50.67C390.934 50.67 388.321 51.4633 386.268 53.05C384.214 54.59 382.884 56.5733 382.278 59H404.748C404.561 56.3867 403.511 54.3567 401.598 52.91C399.684 51.4167 397.188 50.67 394.108 50.67ZM417.978 68.52H425.188C425.561 70.2933 426.518 71.74 428.058 72.86C429.598 73.9333 431.674 74.47 434.288 74.47C435.968 74.47 437.274 74.2833 438.208 73.91C439.188 73.5367 439.864 73.0233 440.238 72.37C440.658 71.7167 440.868 70.97 440.868 70.13C440.868 69.1033 440.564 68.31 439.958 67.75C439.398 67.19 438.558 66.7233 437.438 66.35C436.318 65.9767 434.918 65.65 433.238 65.37C431.511 64.95 429.808 64.4833 428.128 63.97C426.448 63.4567 424.931 62.8267 423.578 62.08C422.224 61.2867 421.151 60.3067 420.358 59.14C419.611 57.9267 419.238 56.4567 419.238 54.73C419.238 53.1433 419.588 51.72 420.288 50.46C421.034 49.1533 422.061 48.0567 423.368 47.17C424.674 46.2833 426.214 45.6067 427.988 45.14C429.761 44.6267 431.698 44.37 433.798 44.37C436.831 44.37 439.351 44.86 441.358 45.84C443.411 46.82 444.951 48.1967 445.978 49.97C447.051 51.7433 447.588 53.7733 447.588 56.06H440.728C440.354 54.1933 439.631 52.84 438.558 52C437.484 51.16 435.874 50.74 433.728 50.74C431.581 50.74 429.948 51.1133 428.828 51.86C427.708 52.6067 427.148 53.6333 427.148 54.94C427.148 55.92 427.498 56.7133 428.198 57.32C428.944 57.88 429.994 58.37 431.348 58.79C432.701 59.21 434.288 59.63 436.108 60.05C437.788 60.5167 439.374 61.0067 440.868 61.52C442.361 61.9867 443.691 62.5933 444.858 63.34C446.071 64.04 447.028 64.9733 447.728 66.14C448.428 67.3067 448.778 68.7533 448.778 70.48C448.778 72.6267 448.194 74.47 447.028 76.01C445.908 77.55 444.274 78.74 442.128 79.58C439.981 80.3733 437.391 80.77 434.358 80.77C431.698 80.77 429.388 80.4667 427.428 79.86C425.514 79.2533 423.904 78.46 422.598 77.48C421.338 76.5 420.358 75.45 419.658 74.33C418.958 73.21 418.468 72.1367 418.188 71.11C417.954 70.0833 417.884 69.22 417.978 68.52Z" fill="white"/>
<g clip-path="url(#clip0_3312_31749)">
<path d="M2.04161 6.01326L2.68921 2.75001L19.763 27.2361L2.04161 6.01326Z" fill="white"/>
<path d="M2.68935 2.75028L4.88895 1.9952L19.9108 27.1074L19.7632 27.2364L2.68935 2.75028Z" fill="white"/>
<path d="M22.1772 24.9417L12.2799 4.69235L17.7339 5.90827L22.1772 24.9417Z" fill="white"/>
<path d="M12.2802 4.69336L13.4492 3.66965L18.9053 4.88526L17.7342 5.90927L12.2802 4.69336Z" fill="white"/>
<path d="M17.7351 5.9072L18.9062 4.88319L22.3586 24.7833L22.1784 24.9407L17.7351 5.9072Z" fill="white"/>
<path d="M2.91495 21.7485L1.92275 16.1169L16.9512 28.6583L2.91495 21.7485Z" fill="white"/>
<path d="M1.92275 16.1169L3.09386 15.0928L17.1583 28.4776L16.9512 28.6583L1.92275 16.1169Z" fill="white"/>
</g>
<rect x="291" y="146" width="344" height="48" transform="rotate(-16.3466 291 146)" fill="white"/>
<path d="M324.663 162.968L324.191 161.356L328.662 160.044C329.404 159.826 329.933 159.428 330.25 158.849C330.579 158.266 330.637 157.61 330.423 156.881C330.201 156.126 329.796 155.598 329.208 155.298C328.633 154.995 327.974 154.952 327.232 155.17L323.068 156.391L326.232 167.177L324.389 167.717L320.735 155.262L326.665 153.522C327.28 153.342 327.875 153.265 328.452 153.29C329.038 153.299 329.581 153.418 330.078 153.647C330.589 153.872 331.028 154.209 331.396 154.657C331.776 155.101 332.066 155.662 332.265 156.34C332.46 157.005 332.518 157.628 332.438 158.207C332.37 158.783 332.183 159.303 331.874 159.769C331.575 160.218 331.182 160.604 330.693 160.928C330.217 161.248 329.672 161.499 329.058 161.679L324.663 162.968ZM340.462 163.21C339.643 163.451 338.833 163.459 338.031 163.236C337.229 163.013 336.521 162.588 335.907 161.962C335.289 161.324 334.837 160.518 334.552 159.546C334.266 158.574 334.213 157.658 334.392 156.8C334.58 155.925 334.964 155.173 335.544 154.545C336.12 153.903 336.843 153.455 337.713 153.2C338.672 152.918 339.48 152.924 340.136 153.218C340.805 153.508 341.352 154.001 341.778 154.696C342.217 155.387 342.572 156.193 342.842 157.114C342.992 157.626 343.088 158.188 343.129 158.801C343.17 159.415 343.125 160.019 342.993 160.613C342.862 161.207 342.594 161.737 342.189 162.204C341.78 162.657 341.204 162.993 340.462 163.21ZM340.513 161.466C341.191 161.267 341.717 160.952 342.092 160.523C342.475 160.077 342.707 159.564 342.787 158.985C342.867 158.406 342.815 157.803 342.631 157.176C342.432 156.498 342.136 155.938 341.743 155.498C341.362 155.054 340.894 154.76 340.338 154.618C339.795 154.471 339.191 154.496 338.526 154.691C337.528 154.984 336.847 155.531 336.485 156.332C336.135 157.129 336.105 158.02 336.394 159.006C336.589 159.671 336.896 160.22 337.315 160.653C337.73 161.073 338.211 161.363 338.758 161.522C339.314 161.664 339.899 161.646 340.513 161.466ZM341.224 152.378L343.066 151.838L345.875 161.414L344.187 161.909C344.187 161.909 344.14 161.798 344.047 161.575C343.95 161.34 343.84 161.059 343.717 160.734C343.594 160.409 343.494 160.118 343.419 159.863L341.224 152.378ZM344.605 151.386L346.563 150.812L352.925 158.929L351.445 159.78L344.605 151.386ZM354.374 148.52L352.571 163.618L350.633 164.187L351.582 158.26L352.435 149.089L354.374 148.52ZM373.03 151.822L372.525 151.949L372.675 143.151L374.671 142.566L374.16 153.116L372.433 153.623L367.131 146.278L367.649 146.126L367.117 155.182L365.39 155.689L359.299 147.075L361.314 146.484L366.116 153.83L365.622 153.995L365.9 145.139L368.069 144.502L373.03 151.822ZM377.289 137.504L377.869 139.48L375.586 140.15L375.006 138.174L377.289 137.504ZM376.396 142.06L378.219 141.525L381.028 151.101L379.205 151.636L376.396 142.06ZM380.143 140.96L386.342 139.142L386.81 140.735L380.611 142.553L380.143 140.96ZM381.588 137.785L383.411 137.25L386.964 149.36L385.141 149.895L381.588 137.785ZM398.323 146.027L396.629 140.251C396.478 139.739 396.271 139.341 396.008 139.057C395.744 138.774 395.421 138.597 395.04 138.529C394.654 138.447 394.206 138.481 393.694 138.631C393.131 138.797 392.652 139.083 392.258 139.49C391.872 139.881 391.598 140.344 391.435 140.878C391.269 141.4 391.234 141.945 391.331 142.514L390.991 141.425C390.909 140.908 390.906 140.401 390.983 139.906C391.073 139.407 391.231 138.951 391.457 138.537C391.696 138.12 392.007 137.758 392.389 137.451C392.771 137.144 393.219 136.916 393.73 136.766C394.268 136.608 394.776 136.542 395.256 136.568C395.733 136.581 396.169 136.696 396.567 136.913C396.973 137.114 397.323 137.407 397.617 137.793C397.907 138.167 398.133 138.628 398.294 139.179L400.146 145.493L398.323 146.027ZM391.127 148.139L387.191 134.724L389.014 134.189L392.95 147.604L391.127 148.139ZM413.266 138.267L415.012 137.755C415.093 138.412 415.016 139.046 414.778 139.658C414.541 140.269 414.152 140.814 413.611 141.292C413.07 141.771 412.378 142.133 411.534 142.381C410.536 142.674 409.584 142.724 408.68 142.53C407.776 142.337 406.991 141.935 406.326 141.325C405.66 140.714 405.183 139.916 404.894 138.931C404.601 137.933 404.563 136.999 404.781 136.129C404.994 135.247 405.423 134.482 406.067 133.835C406.71 133.187 407.525 132.719 408.51 132.43C409.546 132.126 410.476 132.075 411.3 132.278C412.124 132.481 412.82 132.937 413.389 133.645C413.968 134.337 414.399 135.288 414.684 136.496L406.835 138.799C407.068 139.356 407.391 139.817 407.804 140.182C408.229 140.544 408.716 140.783 409.265 140.9C409.826 141.013 410.42 140.978 411.047 140.794C411.751 140.588 412.292 140.255 412.672 139.796C413.051 139.337 413.249 138.828 413.266 138.267ZM408.991 133.998C408.159 134.242 407.534 134.669 407.115 135.278C406.693 135.874 406.499 136.563 406.534 137.345L412.425 135.617C412.145 134.851 411.689 134.339 411.057 134.08C410.422 133.807 409.733 133.78 408.991 133.998ZM421.912 139.316C421.093 139.556 420.283 139.564 419.481 139.341C418.679 139.118 417.971 138.693 417.357 138.067C416.739 137.429 416.287 136.624 416.002 135.651C415.717 134.679 415.663 133.763 415.842 132.905C416.03 132.03 416.414 131.278 416.994 130.65C417.57 130.008 418.293 129.56 419.163 129.305C420.123 129.023 420.93 129.029 421.586 129.323C422.255 129.613 422.802 130.106 423.229 130.801C423.668 131.492 424.022 132.298 424.292 133.219C424.443 133.731 424.538 134.293 424.579 134.907C424.62 135.52 424.575 136.124 424.443 136.718C424.312 137.312 424.044 137.843 423.639 138.309C423.23 138.762 422.654 139.098 421.912 139.316ZM421.963 137.571C422.641 137.372 423.167 137.058 423.542 136.628C423.925 136.182 424.157 135.67 424.237 135.09C424.317 134.511 424.265 133.908 424.081 133.281C423.882 132.603 423.586 132.044 423.193 131.603C422.813 131.159 422.344 130.866 421.788 130.723C421.245 130.577 420.641 130.601 419.976 130.796C418.978 131.089 418.298 131.636 417.935 132.437C417.585 133.234 417.555 134.126 417.844 135.111C418.039 135.776 418.346 136.325 418.765 136.758C419.18 137.178 419.661 137.468 420.208 137.627C420.764 137.77 421.349 137.751 421.963 137.571ZM422.674 128.483L424.516 127.943L427.326 137.519L425.637 138.015C425.637 138.015 425.59 137.903 425.497 137.68C425.4 137.445 425.29 137.164 425.167 136.839C425.044 136.514 424.945 136.224 424.869 135.968L422.674 128.483ZM428.394 133.829L430.083 133.334C430.297 133.827 430.651 134.181 431.145 134.397C431.636 134.601 432.239 134.598 432.956 134.387C433.416 134.252 433.76 134.096 433.986 133.919C434.208 133.728 434.342 133.522 434.388 133.3C434.447 133.075 434.442 132.847 434.375 132.616C434.288 132.322 434.146 132.121 433.947 132.012C433.745 131.891 433.488 131.82 433.177 131.801C432.861 131.768 432.497 131.757 432.083 131.767C431.627 131.776 431.165 131.765 430.698 131.736C430.231 131.706 429.786 131.635 429.364 131.523C428.955 131.407 428.595 131.22 428.283 130.964C427.981 130.692 427.76 130.319 427.622 129.845C427.505 129.449 427.479 129.053 427.544 128.659C427.622 128.261 427.785 127.894 428.034 127.557C428.292 127.203 428.619 126.899 429.017 126.643C429.41 126.375 429.869 126.164 430.394 126.01C431.123 125.796 431.777 125.75 432.355 125.872C432.929 125.982 433.413 126.236 433.808 126.634C434.215 127.029 434.516 127.531 434.708 128.141L433.096 128.614C432.849 128.103 432.549 127.768 432.196 127.607C431.84 127.434 431.38 127.43 430.817 127.595C430.267 127.756 429.877 127.989 429.646 128.293C429.416 128.596 429.355 128.934 429.464 129.305C429.546 129.586 429.716 129.787 429.974 129.906C430.227 130.012 430.545 130.078 430.928 130.105C431.311 130.132 431.741 130.151 432.217 130.165C432.668 130.185 433.101 130.218 433.517 130.263C433.943 130.291 434.332 130.364 434.687 130.482C435.05 130.584 435.362 130.771 435.622 131.042C435.891 131.296 436.093 131.654 436.228 132.114C436.393 132.677 436.397 133.211 436.24 133.716C436.078 134.208 435.763 134.648 435.293 135.036C434.836 135.42 434.23 135.723 433.475 135.944C432.784 136.147 432.171 136.236 431.636 136.213C431.114 136.185 430.647 136.086 430.236 135.915C429.837 135.74 429.505 135.532 429.24 135.29C428.983 135.032 428.782 134.771 428.635 134.509C428.501 134.242 428.421 134.016 428.394 133.829ZM445.388 128.843L447.135 128.331C447.216 128.988 447.138 129.622 446.901 130.234C446.663 130.845 446.274 131.39 445.734 131.869C445.193 132.347 444.501 132.71 443.656 132.957C442.658 133.25 441.707 133.3 440.803 133.107C439.899 132.913 439.114 132.511 438.448 131.901C437.783 131.29 437.306 130.492 437.017 129.507C436.724 128.509 436.686 127.575 436.903 126.706C437.117 125.823 437.546 125.058 438.189 124.411C438.833 123.763 439.648 123.295 440.633 123.006C441.669 122.702 442.599 122.652 443.423 122.855C444.247 123.058 444.943 123.513 445.512 124.222C446.09 124.914 446.522 125.864 446.807 127.072L438.958 129.375C439.191 129.932 439.514 130.393 439.926 130.758C440.352 131.12 440.839 131.359 441.388 131.476C441.949 131.589 442.543 131.554 443.17 131.37C443.874 131.164 444.415 130.831 444.795 130.372C445.174 129.914 445.372 129.404 445.388 128.843ZM441.114 124.574C440.282 124.818 439.657 125.245 439.238 125.854C438.815 126.45 438.622 127.139 438.656 127.921L444.548 126.193C444.268 125.427 443.812 124.915 443.18 124.656C442.544 124.384 441.856 124.356 441.114 124.574ZM450.821 133.627L450.291 133.241C450.386 132.852 450.465 132.461 450.53 132.066C450.595 131.672 450.583 131.3 450.495 130.951L449.454 131.027L448.874 129.051L451.216 128.364L451.632 129.784C451.872 130.603 451.888 131.32 451.68 131.937C451.489 132.563 451.203 133.127 450.821 133.627ZM456.712 125.521L458.401 125.026C458.615 125.519 458.97 125.874 459.464 126.09C459.954 126.293 460.558 126.29 461.274 126.08C461.735 125.945 462.078 125.788 462.304 125.611C462.526 125.421 462.66 125.215 462.706 124.993C462.765 124.767 462.761 124.539 462.693 124.309C462.607 124.014 462.464 123.813 462.266 123.705C462.063 123.583 461.806 123.513 461.495 123.493C461.18 123.46 460.815 123.449 460.401 123.46C459.945 123.468 459.484 123.458 459.016 123.428C458.549 123.398 458.104 123.327 457.682 123.215C457.273 123.099 456.913 122.913 456.602 122.657C456.299 122.384 456.079 122.011 455.94 121.538C455.823 121.141 455.798 120.746 455.863 120.351C455.941 119.953 456.104 119.586 456.352 119.249C456.61 118.896 456.937 118.591 457.335 118.336C457.729 118.067 458.188 117.856 458.712 117.702C459.441 117.488 460.095 117.442 460.673 117.565C461.247 117.674 461.731 117.928 462.126 118.326C462.534 118.721 462.834 119.223 463.027 119.834L461.415 120.307C461.167 119.796 460.867 119.46 460.515 119.299C460.158 119.126 459.698 119.122 459.135 119.287C458.585 119.449 458.195 119.681 457.965 119.985C457.734 120.289 457.673 120.626 457.782 120.997C457.865 121.279 458.035 121.479 458.292 121.598C458.545 121.704 458.864 121.771 459.247 121.797C459.63 121.824 460.059 121.844 460.536 121.857C460.986 121.878 461.42 121.91 461.836 121.955C462.261 121.983 462.65 122.056 463.005 122.175C463.368 122.276 463.68 122.463 463.94 122.734C464.209 122.989 464.411 123.346 464.547 123.807C464.712 124.37 464.715 124.903 464.558 125.408C464.397 125.9 464.081 126.34 463.611 126.728C463.154 127.112 462.548 127.415 461.793 127.637C461.102 127.839 460.49 127.929 459.955 127.905C459.432 127.878 458.966 127.778 458.554 127.607C458.155 127.432 457.823 127.224 457.558 126.982C457.302 126.724 457.1 126.464 456.954 126.201C456.82 125.934 456.739 125.708 456.712 125.521ZM463.749 116.433L469.948 114.614L470.415 116.207L464.216 118.026L463.749 116.433ZM465.194 113.258L467.017 112.723L470.569 124.833L468.746 125.368L465.194 113.258ZM483.541 121.027L481.718 121.562L478.908 111.986L480.731 111.451L483.541 121.027ZM480.49 117.024L480.679 117.594C480.715 117.764 480.743 118.027 480.764 118.382C480.794 118.721 480.782 119.106 480.728 119.539C480.687 119.968 480.578 120.403 480.402 120.843C480.238 121.28 479.979 121.676 479.625 122.03C479.27 122.384 478.792 122.65 478.191 122.826C477.781 122.946 477.342 123.012 476.873 123.025C476.417 123.034 475.971 122.956 475.534 122.793C475.097 122.629 474.702 122.349 474.349 121.952C473.993 121.543 473.712 120.986 473.505 120.282L471.692 114.103L473.535 113.562L475.235 119.358C475.408 119.946 475.632 120.381 475.909 120.661C476.198 120.937 476.537 121.095 476.923 121.134C477.31 121.174 477.721 121.13 478.156 121.002C478.821 120.807 479.331 120.484 479.685 120.033C480.048 119.565 480.29 119.063 480.41 118.527C480.527 117.979 480.554 117.478 480.49 117.024ZM489.962 119.352C489.131 119.596 488.314 119.606 487.512 119.383C486.71 119.16 486.002 118.735 485.388 118.109C484.782 117.467 484.337 116.66 484.052 115.687C483.767 114.715 483.707 113.802 483.873 112.947C484.035 112.08 484.387 111.337 484.929 110.72C485.467 110.09 486.17 109.647 487.04 109.392C487.795 109.17 488.46 109.114 489.034 109.224C489.608 109.333 490.103 109.577 490.52 109.955C490.936 110.333 491.29 110.806 491.582 111.373C491.886 111.937 492.14 112.564 492.342 113.255C492.493 113.767 492.588 114.33 492.629 114.943C492.67 115.556 492.625 116.16 492.494 116.754C492.362 117.349 492.094 117.879 491.689 118.345C491.28 118.799 490.704 119.134 489.962 119.352ZM490.013 117.607C490.691 117.408 491.218 117.094 491.592 116.664C491.975 116.219 492.207 115.706 492.287 115.127C492.367 114.547 492.315 113.944 492.131 113.317C491.932 112.639 491.636 112.08 491.243 111.639C490.863 111.195 490.394 110.902 489.839 110.759C489.295 110.613 488.691 110.637 488.026 110.832C487.028 111.125 486.348 111.672 485.985 112.473C485.636 113.271 485.605 114.162 485.894 115.147C486.089 115.812 486.396 116.361 486.815 116.794C487.23 117.215 487.711 117.504 488.258 117.663C488.814 117.806 489.399 117.787 490.013 117.607ZM489.598 104.681L491.44 104.141L495.376 117.555L493.687 118.051C493.566 117.781 493.426 117.446 493.268 117.048C493.122 116.646 493.006 116.298 492.92 116.004L489.598 104.681ZM494.443 107.428L496.4 106.854L502.763 114.971L501.282 115.822L494.443 107.428ZM504.211 104.563L502.408 119.661L500.47 120.229L501.42 114.302L502.273 105.131L504.211 104.563ZM522.868 107.864L522.363 107.992L522.512 99.1937L524.508 98.6082L523.998 109.159L522.27 109.665L516.968 102.321L517.487 102.169L516.954 111.225L515.227 111.732L509.136 103.118L511.151 102.527L515.953 109.872L515.46 110.038L515.738 101.181L517.906 100.545L522.868 107.864ZM533.258 106.671C532.324 106.945 531.408 106.998 530.511 106.831C529.615 106.663 528.827 106.276 528.149 105.669C527.471 105.062 526.979 104.24 526.675 103.204C526.368 102.155 526.335 101.192 526.578 100.314C526.817 99.4245 527.269 98.6667 527.933 98.0412C528.597 97.4156 529.396 96.9658 530.33 96.6918C531.264 96.4178 532.173 96.3665 533.057 96.5379C533.941 96.7093 534.724 97.1049 535.406 97.7247C536.084 98.3316 536.577 99.1596 536.885 100.209C537.189 101.245 537.22 102.202 536.977 103.079C536.734 103.956 536.287 104.706 535.636 105.328C534.984 105.949 534.192 106.397 533.258 106.671ZM532.79 105.078C533.366 104.909 533.86 104.626 534.271 104.227C534.691 103.812 534.975 103.312 535.123 102.727C535.28 102.125 535.253 101.466 535.043 100.749C534.829 100.02 534.493 99.4445 534.036 99.0228C533.592 98.5974 533.081 98.3235 532.503 98.2012C531.938 98.0752 531.367 98.0966 530.792 98.2655C530.216 98.4344 529.718 98.7264 529.298 99.1414C528.874 99.5437 528.584 100.046 528.427 100.648C528.27 101.249 528.3 101.921 528.518 102.663C528.728 103.38 529.055 103.951 529.5 104.376C529.953 104.785 530.469 105.051 531.047 105.173C531.621 105.283 532.202 105.251 532.79 105.078ZM537.4 94.8262L539.242 94.2857L542.051 103.862L540.209 104.403L537.4 94.8262ZM542.964 94.9655C542.299 95.1607 541.774 95.4812 541.391 95.9272C541.02 96.3694 540.76 96.8556 540.61 97.386C540.473 97.9126 540.419 98.3938 540.45 98.8295L540.11 97.7412C540.085 97.6095 540.059 97.4018 540.031 97.1181C540.013 96.8179 540.029 96.4725 540.082 96.082C540.134 95.6915 540.243 95.3052 540.409 94.9231C540.571 94.5282 540.814 94.1721 541.137 93.8548C541.461 93.5375 541.892 93.3 542.429 93.1423L542.964 94.9655ZM544.147 92.8469L545.989 92.3064L548.798 101.883L546.956 102.423L544.147 92.8469ZM549.711 92.9862C549.045 93.1814 548.521 93.5019 548.138 93.9479C547.767 94.39 547.507 94.8763 547.357 95.4067C547.22 95.9333 547.166 96.4144 547.197 96.8501L546.857 95.7619C546.832 95.6302 546.806 95.4225 546.778 95.1388C546.76 94.8385 546.776 94.4932 546.829 94.1027C546.881 93.7122 546.99 93.3259 547.156 92.9438C547.318 92.5489 547.56 92.1928 547.884 91.8754C548.208 91.5581 548.639 91.3207 549.176 91.163L549.711 92.9862ZM550.03 91.1209L551.987 90.5467L558.35 98.6639L556.869 99.515L550.03 91.1209ZM559.798 88.2552L557.995 103.353L556.057 103.922L557.007 97.9948L557.86 88.8239L559.798 88.2552ZM562.061 91.5098L567.895 89.7982L568.351 91.3527L562.517 93.0643L562.061 91.5098ZM568.924 85.6406L575.199 83.7995L575.661 85.3732L569.386 87.2143L568.924 85.6406ZM573.02 80.2077L574.248 79.8474L574.744 81.5362L573.707 81.8403C573.371 81.9251 573.084 82.058 572.845 82.2392C572.603 82.4076 572.44 82.6359 572.358 82.924C572.289 83.2084 572.321 83.5808 572.457 84.0414L575.401 94.0784L573.578 94.6133L570.605 84.4803C570.38 83.7127 570.33 83.0464 570.456 82.4814C570.595 81.9126 570.889 81.4444 571.337 81.0768C571.781 80.6964 572.342 80.4067 573.02 80.2077ZM576.813 83.2637L578.655 82.7232L581.465 92.2996L579.622 92.8401L576.813 83.2637ZM582.377 83.4029C581.712 83.5981 581.187 83.9187 580.804 84.3646C580.434 84.8068 580.173 85.2931 580.023 85.8234C579.886 86.3501 579.833 86.8312 579.863 87.2669L579.523 86.1786C579.498 86.0469 579.472 85.8392 579.444 85.5555C579.426 85.2553 579.443 84.9099 579.495 84.5195C579.547 84.129 579.656 83.7427 579.822 83.3606C579.984 82.9656 580.227 82.6095 580.551 82.2922C580.874 81.9749 581.305 81.7374 581.842 81.5798L582.377 83.4029ZM592.846 85.5842L594.592 85.0719C594.674 85.7288 594.596 86.3631 594.358 86.9746C594.121 87.5862 593.732 88.1311 593.191 88.6093C592.651 89.0874 591.958 89.4504 591.114 89.6981C590.116 89.9909 589.165 90.0406 588.26 89.8474C587.356 89.6541 586.571 89.2522 585.906 88.6415C585.24 88.0308 584.763 87.2329 584.474 86.2477C584.181 85.2498 584.143 84.316 584.361 83.4463C584.574 82.5638 585.003 81.7989 585.647 81.1515C586.291 80.5041 587.105 80.0359 588.09 79.7468C589.126 79.4428 590.057 79.3923 590.88 79.5953C591.704 79.7982 592.401 80.254 592.97 80.9624C593.548 81.6543 593.979 82.6045 594.265 83.8132L586.415 86.1159C586.648 86.6728 586.971 87.1339 587.384 87.4992C587.81 87.8606 588.297 88.0999 588.845 88.2169C589.406 88.3301 590 88.2948 590.627 88.1109C591.331 87.9044 591.873 87.5719 592.252 87.1131C592.632 86.6544 592.829 86.1448 592.846 85.5842ZM588.571 81.3149C587.739 81.5589 587.114 81.9854 586.695 82.5946C586.273 83.191 586.079 83.8801 586.114 84.6619L592.006 82.9335C591.725 82.1681 591.269 81.6557 590.638 81.3965C590.002 81.1244 589.313 81.0972 588.571 81.3149ZM603.959 82.3238L605.706 81.8115C605.787 82.4684 605.709 83.1027 605.472 83.7142C605.234 84.3258 604.845 84.8707 604.305 85.3489C603.764 85.827 603.072 86.19 602.227 86.4377C601.229 86.7305 600.278 86.7802 599.374 86.587C598.47 86.3937 597.685 85.9918 597.019 85.3811C596.354 84.7704 595.877 83.9725 595.588 82.9873C595.295 81.9894 595.257 81.0556 595.474 80.1859C595.688 79.3034 596.117 78.5385 596.76 77.8911C597.404 77.2437 598.219 76.7755 599.204 76.4865C600.24 76.1824 601.17 76.1319 601.994 76.3349C602.818 76.5379 603.514 76.9936 604.083 77.702C604.661 78.3939 605.093 79.3442 605.378 80.5528L597.529 82.8555C597.762 83.4125 598.085 83.8735 598.498 84.2388C598.923 84.6002 599.41 84.8395 599.959 84.9565C600.52 85.0697 601.114 85.0344 601.741 84.8505C602.445 84.644 602.986 84.3115 603.366 83.8527C603.745 83.394 603.943 82.8844 603.959 82.3238ZM599.685 78.0545C598.853 78.2985 598.228 78.725 597.809 79.3342C597.387 79.9306 597.193 80.6197 597.227 81.4016L603.119 79.6731C602.839 78.9077 602.383 78.3953 601.751 78.1361C601.116 77.864 600.427 77.8368 599.685 78.0545Z" fill="#020518"/>
<defs>
<clipPath id="clip0_3312_31749">
<rect width="28.1051" height="18.9994" fill="white" transform="translate(3.98535 30.5156) rotate(-98.1521)"/>
</clipPath>
</defs>
</svg>
