<svg width="845" height="168" viewBox="0 0 845 168" fill="none" xmlns="http://www.w3.org/2000/svg">
<g clip-path="url(#clip0_8924_99213)">
<g filter="url(#filter0_ddddd_8924_99213)">
<path d="M501.131 87C489.688 90.521 462.2 100.543 450.612 104.594M450.612 104.594C371.236 132.339 322.957 161.826 534.055 143.12C836.452 116.324 610.674 71.5562 450.612 104.594Z" stroke="#23A323" stroke-width="10"/>
</g>
<path d="M34.9781 50.3V42.88H55.6981C58.1714 42.88 60.1314 42.2267 61.5781 40.92C63.0248 39.5667 63.7481 37.7 63.7481 35.32C63.7481 32.8467 63.0248 30.9567 61.5781 29.65C60.1314 28.3433 58.1714 27.69 55.6981 27.69H36.0981V65H26.7881V19.71H54.8581C57.3781 19.71 59.7348 20.0133 61.9281 20.62C64.1681 21.2267 66.1048 22.16 67.7381 23.42C69.4181 24.68 70.7248 26.29 71.6581 28.25C72.5914 30.21 73.0581 32.5667 73.0581 35.32C73.0581 38.0267 72.5914 40.3367 71.6581 42.25C70.7248 44.1633 69.4181 45.7267 67.7381 46.94C66.1048 48.1067 64.1681 48.97 61.9281 49.53C59.7348 50.0433 57.3781 50.3 54.8581 50.3H34.9781ZM99.9786 65.84C95.5919 65.84 91.7186 65.14 88.3586 63.74C85.0452 62.34 82.4552 60.31 80.5886 57.65C78.7219 54.9433 77.7886 51.63 77.7886 47.71C77.7886 43.79 78.7219 40.4767 80.5886 37.77C82.4552 35.0167 85.0452 32.94 88.3586 31.54C91.7186 30.14 95.5919 29.44 99.9786 29.44C104.365 29.44 108.192 30.14 111.459 31.54C114.772 32.94 117.362 35.0167 119.229 37.77C121.095 40.4767 122.029 43.79 122.029 47.71C122.029 51.63 121.095 54.9433 119.229 57.65C117.362 60.31 114.772 62.34 111.459 63.74C108.192 65.14 104.365 65.84 99.9786 65.84ZM99.9786 58.84C102.405 58.84 104.575 58.42 106.489 57.58C108.449 56.6933 109.989 55.4333 111.109 53.8C112.229 52.12 112.789 50.09 112.789 47.71C112.789 45.33 112.229 43.3 111.109 41.62C109.989 39.8933 108.472 38.5867 106.559 37.7C104.645 36.8133 102.452 36.37 99.9786 36.37C97.5519 36.37 95.3586 36.8133 93.3986 37.7C91.4386 38.5867 89.8752 39.87 88.7086 41.55C87.5886 43.23 87.0286 45.2833 87.0286 47.71C87.0286 50.09 87.5886 52.12 88.7086 53.8C89.8286 55.4333 91.3686 56.6933 93.3286 57.58C95.2886 58.42 97.5052 58.84 99.9786 58.84ZM172.748 58.7L169.878 58.63L181.218 30.21H191.228L175.898 65H167.358L156.158 36.93H159.238L147.688 65H139.148L124.238 30.21H134.248L145.168 58.7H142.298L152.518 30.21H162.948L172.748 58.7ZM226.706 53.45H235.526C235.153 55.83 234.149 57.9533 232.516 59.82C230.929 61.6867 228.759 63.1567 226.006 64.23C223.253 65.3033 219.893 65.84 215.926 65.84C211.493 65.84 207.573 65.14 204.166 63.74C200.759 62.2933 198.099 60.2167 196.186 57.51C194.273 54.8033 193.316 51.5367 193.316 47.71C193.316 43.8833 194.249 40.6167 196.116 37.91C197.983 35.1567 200.573 33.0567 203.886 31.61C207.246 30.1633 211.166 29.44 215.646 29.44C220.219 29.44 224.023 30.1633 227.056 31.61C230.089 33.0567 232.329 35.25 233.776 38.19C235.269 41.0833 235.899 44.7933 235.666 49.32H202.486C202.719 51.0933 203.373 52.7033 204.446 54.15C205.566 55.5967 207.059 56.74 208.926 57.58C210.839 58.42 213.103 58.84 215.716 58.84C218.609 58.84 221.013 58.35 222.926 57.37C224.886 56.3433 226.146 55.0367 226.706 53.45ZM215.226 36.37C211.866 36.37 209.136 37.1167 207.036 38.61C204.936 40.0567 203.583 41.8533 202.976 44H226.636C226.403 41.6667 225.283 39.8233 223.276 38.47C221.316 37.07 218.633 36.37 215.226 36.37ZM242.437 30.21H251.537V65H242.437V30.21ZM264.907 37.7C262.294 37.7 260.031 38.2133 258.117 39.24C256.204 40.22 254.664 41.4333 253.497 42.88C252.331 44.3267 251.514 45.7267 251.047 47.08L250.977 43.23C251.024 42.67 251.211 41.8533 251.537 40.78C251.864 39.66 252.354 38.47 253.007 37.21C253.661 35.9033 254.524 34.6667 255.597 33.5C256.671 32.2867 257.977 31.3067 259.517 30.56C261.057 29.8133 262.854 29.44 264.907 29.44V37.7ZM280.963 14.95V22.93H270.393V14.95H280.963ZM271.093 30.21H280.193V65H271.093V30.21ZM289.263 30.21H298.363V65H289.263V30.21ZM314.533 29.44C316.68 29.44 318.663 29.72 320.483 30.28C322.303 30.84 323.89 31.7033 325.243 32.87C326.597 34.0367 327.647 35.53 328.393 37.35C329.14 39.1233 329.513 41.2467 329.513 43.72V65H320.413V45.33C320.413 42.39 319.69 40.2433 318.243 38.89C316.843 37.49 314.533 36.79 311.313 36.79C308.887 36.79 306.693 37.2567 304.733 38.19C302.773 39.1233 301.187 40.3133 299.973 41.76C298.76 43.16 298.06 44.63 297.873 46.17L297.803 42.6C298.037 40.9667 298.573 39.38 299.413 37.84C300.253 36.3 301.373 34.9 302.773 33.64C304.22 32.3333 305.923 31.3067 307.883 30.56C309.843 29.8133 312.06 29.44 314.533 29.44ZM355.159 59.68C351.379 59.68 348.042 59.12 345.149 58C342.302 56.8333 340.085 55.13 338.499 52.89C336.912 50.65 336.119 47.9433 336.119 44.77C336.119 41.6433 336.889 38.9367 338.429 36.65C339.969 34.3633 342.162 32.59 345.009 31.33C347.902 30.07 351.285 29.44 355.159 29.44C356.232 29.44 357.259 29.51 358.239 29.65C359.265 29.79 360.269 29.9767 361.249 30.21L378.819 30.28V37.14C376.439 37.1867 374.012 36.9067 371.539 36.3C369.112 35.6467 366.965 34.9467 365.099 34.2L364.889 33.71C366.475 34.4567 367.969 35.39 369.369 36.51C370.769 37.5833 371.889 38.8433 372.729 40.29C373.615 41.69 374.059 43.3233 374.059 45.19C374.059 48.2233 373.289 50.8367 371.749 53.03C370.209 55.1767 368.015 56.8333 365.169 58C362.369 59.12 359.032 59.68 355.159 59.68ZM366.849 79.35V77.67C366.849 75.5233 366.149 74.03 364.749 73.19C363.395 72.35 361.529 71.93 359.149 71.93H348.299C346.199 71.93 344.425 71.7667 342.979 71.44C341.579 71.1133 340.459 70.6467 339.619 70.04C338.779 69.4333 338.172 68.71 337.799 67.87C337.425 67.0767 337.239 66.2133 337.239 65.28C337.239 63.4133 337.845 62.0133 339.059 61.08C340.272 60.1 341.905 59.4467 343.959 59.12C346.012 58.7933 348.275 58.7233 350.749 58.91L355.159 59.68C352.219 59.7733 350.025 60.03 348.579 60.45C347.179 60.8233 346.479 61.5933 346.479 62.76C346.479 63.46 346.759 64.02 347.319 64.44C347.879 64.8133 348.672 65 349.699 65H361.109C364.235 65 366.895 65.3267 369.089 65.98C371.329 66.68 373.032 67.8233 374.199 69.41C375.365 71.0433 375.949 73.26 375.949 76.06V79.35H366.849ZM355.159 53.1C357.165 53.1 358.915 52.7733 360.409 52.12C361.949 51.4667 363.139 50.5333 363.979 49.32C364.819 48.06 365.239 46.5667 365.239 44.84C365.239 43.0667 364.819 41.55 363.979 40.29C363.139 39.03 361.972 38.0733 360.479 37.42C358.985 36.72 357.212 36.37 355.159 36.37C353.152 36.37 351.379 36.72 349.839 37.42C348.299 38.0733 347.109 39.03 346.269 40.29C345.429 41.55 345.009 43.0667 345.009 44.84C345.009 46.5667 345.429 48.06 346.269 49.32C347.109 50.5333 348.275 51.4667 349.769 52.12C351.309 52.7733 353.105 53.1 355.159 53.1ZM259.086 142.7L256.216 142.63L267.556 114.21H277.566L262.236 149H253.696L242.496 120.93H245.576L234.026 149H225.486L210.576 114.21H220.586L231.506 142.7H228.636L238.856 114.21H249.286L259.086 142.7ZM293.336 98.95V106.93H282.766V98.95H293.336ZM283.466 114.21H292.566V149H283.466V114.21ZM299.187 114.21H326.207V121.28H299.187V114.21ZM308.147 104.69H317.247V149H308.147V104.69ZM363.768 149V129.89C363.768 127.977 363.441 126.39 362.788 125.13C362.135 123.87 361.085 122.913 359.638 122.26C358.238 121.607 356.348 121.28 353.968 121.28C351.681 121.28 349.605 121.723 347.738 122.61C345.871 123.45 344.355 124.57 343.188 125.97C342.021 127.323 341.368 128.77 341.228 130.31L341.158 126.46C341.391 124.92 341.928 123.38 342.768 121.84C343.608 120.3 344.728 118.9 346.128 117.64C347.528 116.38 349.208 115.377 351.168 114.63C353.175 113.837 355.415 113.44 357.888 113.44C360.035 113.44 362.018 113.72 363.838 114.28C365.658 114.793 367.245 115.61 368.598 116.73C369.951 117.85 371.001 119.25 371.748 120.93C372.495 122.563 372.868 124.5 372.868 126.74V149H363.768ZM332.618 149V100.21H341.718V149H332.618ZM456.208 135.28C455.975 138.313 454.995 140.927 453.268 143.12C451.588 145.313 449.255 146.993 446.268 148.16C443.281 149.28 439.735 149.84 435.628 149.84C431.335 149.84 427.485 149.163 424.078 147.81C420.718 146.41 418.058 144.38 416.098 141.72C414.185 139.013 413.228 135.677 413.228 131.71C413.228 127.743 414.185 124.407 416.098 121.7C418.058 118.993 420.718 116.94 424.078 115.54C427.485 114.14 431.335 113.44 435.628 113.44C439.735 113.44 443.258 114.023 446.198 115.19C449.138 116.31 451.448 117.943 453.128 120.09C454.855 122.237 455.858 124.827 456.138 127.86H447.808C447.015 125.527 445.545 123.707 443.398 122.4C441.251 121.093 438.661 120.44 435.628 120.44C433.201 120.44 430.985 120.86 428.978 121.7C427.018 122.54 425.431 123.8 424.218 125.48C423.051 127.113 422.468 129.19 422.468 131.71C422.468 134.183 423.051 136.26 424.218 137.94C425.385 139.573 426.971 140.81 428.978 141.65C430.985 142.443 433.201 142.84 435.628 142.84C438.895 142.84 441.555 142.187 443.608 140.88C445.708 139.573 447.131 137.707 447.878 135.28H456.208ZM462.896 114.21H471.996V149H462.896V114.21ZM485.366 121.7C482.753 121.7 480.49 122.213 478.576 123.24C476.663 124.22 475.123 125.433 473.956 126.88C472.79 128.327 471.973 129.727 471.506 131.08L471.436 127.23C471.483 126.67 471.67 125.853 471.996 124.78C472.323 123.66 472.813 122.47 473.466 121.21C474.12 119.903 474.983 118.667 476.056 117.5C477.13 116.287 478.436 115.307 479.976 114.56C481.516 113.813 483.313 113.44 485.366 113.44V121.7ZM522.702 137.45H531.522C531.149 139.83 530.145 141.953 528.512 143.82C526.925 145.687 524.755 147.157 522.002 148.23C519.249 149.303 515.889 149.84 511.922 149.84C507.489 149.84 503.569 149.14 500.162 147.74C496.755 146.293 494.095 144.217 492.182 141.51C490.269 138.803 489.312 135.537 489.312 131.71C489.312 127.883 490.245 124.617 492.112 121.91C493.979 119.157 496.569 117.057 499.882 115.61C503.242 114.163 507.162 113.44 511.642 113.44C516.215 113.44 520.019 114.163 523.052 115.61C526.085 117.057 528.325 119.25 529.772 122.19C531.265 125.083 531.895 128.793 531.662 133.32H498.482C498.715 135.093 499.369 136.703 500.442 138.15C501.562 139.597 503.055 140.74 504.922 141.58C506.835 142.42 509.099 142.84 511.712 142.84C514.605 142.84 517.009 142.35 518.922 141.37C520.882 140.343 522.142 139.037 522.702 137.45ZM511.222 120.37C507.862 120.37 505.132 121.117 503.032 122.61C500.932 124.057 499.579 125.853 498.972 128H522.632C522.399 125.667 521.279 123.823 519.272 122.47C517.312 121.07 514.629 120.37 511.222 120.37ZM555.373 149.77C551.873 149.77 548.7 149.023 545.853 147.53C543.053 145.99 540.837 143.867 539.203 141.16C537.57 138.407 536.753 135.233 536.753 131.64C536.753 127.953 537.547 124.757 539.133 122.05C540.767 119.343 542.983 117.243 545.783 115.75C548.583 114.21 551.78 113.44 555.373 113.44C558.5 113.44 561.16 113.907 563.353 114.84C565.547 115.773 567.32 117.08 568.673 118.76C570.027 120.393 571.007 122.307 571.613 124.5C572.267 126.693 572.593 129.073 572.593 131.64C572.593 133.693 572.267 135.793 571.613 137.94C570.96 140.04 569.957 142 568.603 143.82C567.25 145.593 565.477 147.04 563.283 148.16C561.09 149.233 558.453 149.77 555.373 149.77ZM558.313 142.77C561.067 142.77 563.447 142.303 565.453 141.37C567.46 140.437 569 139.13 570.073 137.45C571.147 135.77 571.683 133.833 571.683 131.64C571.683 129.26 571.123 127.253 570.003 125.62C568.93 123.94 567.39 122.657 565.383 121.77C563.423 120.883 561.067 120.44 558.313 120.44C554.44 120.44 551.43 121.467 549.283 123.52C547.137 125.573 546.063 128.28 546.063 131.64C546.063 133.88 546.577 135.84 547.603 137.52C548.63 139.153 550.053 140.437 551.873 141.37C553.74 142.303 555.887 142.77 558.313 142.77ZM571.683 100.21H580.783V149H572.313C572.173 147.927 572.033 146.55 571.893 144.87C571.753 143.143 571.683 141.533 571.683 140.04V100.21ZM601.022 98.95V106.93H590.452V98.95H601.022ZM591.152 114.21H600.252V149H591.152V114.21ZM606.872 114.21H633.892V121.28H606.872V114.21ZM615.832 104.69H624.932V149H615.832V104.69Z" fill="black"/>
<path d="M442.946 51.28C442.713 54.3133 441.733 56.9267 440.006 59.12C438.326 61.3133 435.993 62.9933 433.006 64.16C430.02 65.28 426.473 65.84 422.366 65.84C418.073 65.84 414.223 65.1633 410.816 63.81C407.456 62.41 404.796 60.38 402.836 57.72C400.923 55.0133 399.966 51.6767 399.966 47.71C399.966 43.7433 400.923 40.4067 402.836 37.7C404.796 34.9933 407.456 32.94 410.816 31.54C414.223 30.14 418.073 29.44 422.366 29.44C426.473 29.44 429.996 30.0233 432.936 31.19C435.876 32.31 438.186 33.9433 439.866 36.09C441.593 38.2367 442.596 40.8267 442.876 43.86H434.546C433.753 41.5267 432.283 39.7067 430.136 38.4C427.99 37.0933 425.4 36.44 422.366 36.44C419.94 36.44 417.723 36.86 415.716 37.7C413.756 38.54 412.17 39.8 410.956 41.48C409.79 43.1133 409.206 45.19 409.206 47.71C409.206 50.1833 409.79 52.26 410.956 53.94C412.123 55.5733 413.71 56.81 415.716 57.65C417.723 58.4433 419.94 58.84 422.366 58.84C425.633 58.84 428.293 58.1867 430.346 56.88C432.446 55.5733 433.87 53.7067 434.616 51.28H442.946ZM470.145 65.84C465.758 65.84 461.885 65.14 458.525 63.74C455.211 62.34 452.621 60.31 450.755 57.65C448.888 54.9433 447.955 51.63 447.955 47.71C447.955 43.79 448.888 40.4767 450.755 37.77C452.621 35.0167 455.211 32.94 458.525 31.54C461.885 30.14 465.758 29.44 470.145 29.44C474.531 29.44 478.358 30.14 481.625 31.54C484.938 32.94 487.528 35.0167 489.395 37.77C491.261 40.4767 492.195 43.79 492.195 47.71C492.195 51.63 491.261 54.9433 489.395 57.65C487.528 60.31 484.938 62.34 481.625 63.74C478.358 65.14 474.531 65.84 470.145 65.84ZM470.145 58.84C472.571 58.84 474.741 58.42 476.655 57.58C478.615 56.6933 480.155 55.4333 481.275 53.8C482.395 52.12 482.955 50.09 482.955 47.71C482.955 45.33 482.395 43.3 481.275 41.62C480.155 39.8933 478.638 38.5867 476.725 37.7C474.811 36.8133 472.618 36.37 470.145 36.37C467.718 36.37 465.525 36.8133 463.565 37.7C461.605 38.5867 460.041 39.87 458.875 41.55C457.755 43.23 457.195 45.2833 457.195 47.71C457.195 50.09 457.755 52.12 458.875 53.8C459.995 55.4333 461.535 56.6933 463.495 57.58C465.455 58.42 467.671 58.84 470.145 58.84ZM498.922 30.21H508.022V65H498.922V30.21ZM524.192 29.44C526.338 29.44 528.322 29.72 530.142 30.28C531.962 30.84 533.548 31.7033 534.902 32.87C536.255 34.0367 537.305 35.53 538.052 37.35C538.798 39.1233 539.172 41.2467 539.172 43.72V65H530.072V45.33C530.072 42.39 529.348 40.2433 527.902 38.89C526.502 37.49 524.192 36.79 520.972 36.79C518.545 36.79 516.352 37.2567 514.392 38.19C512.432 39.1233 510.845 40.3133 509.632 41.76C508.418 43.16 507.718 44.63 507.532 46.17L507.462 42.6C507.695 40.9667 508.232 39.38 509.072 37.84C509.912 36.3 511.032 34.9 512.432 33.64C513.878 32.3333 515.582 31.3067 517.542 30.56C519.502 29.8133 521.718 29.44 524.192 29.44ZM554.502 29.44C556.648 29.44 558.632 29.72 560.452 30.28C562.272 30.84 563.858 31.7033 565.212 32.87C566.565 34.0367 567.615 35.53 568.362 37.35C569.155 39.1233 569.552 41.2467 569.552 43.72V65H560.452V45.33C560.452 42.39 559.728 40.2433 558.282 38.89C556.835 37.49 554.502 36.79 551.282 36.79C548.855 36.79 546.662 37.2567 544.702 38.19C542.742 39.1233 541.155 40.3133 539.942 41.76C538.728 43.16 538.052 44.63 537.912 46.17L537.772 42.39C538.005 40.85 538.565 39.31 539.452 37.77C540.338 36.23 541.505 34.83 542.952 33.57C544.398 32.31 546.078 31.3067 547.992 30.56C549.952 29.8133 552.122 29.44 554.502 29.44ZM577.808 30.21H586.908V65H577.808V30.21ZM603.078 29.44C605.225 29.44 607.208 29.72 609.028 30.28C610.848 30.84 612.435 31.7033 613.788 32.87C615.142 34.0367 616.192 35.53 616.938 37.35C617.685 39.1233 618.058 41.2467 618.058 43.72V65H608.958V45.33C608.958 42.39 608.235 40.2433 606.788 38.89C605.388 37.49 603.078 36.79 599.858 36.79C597.432 36.79 595.238 37.2567 593.278 38.19C591.318 39.1233 589.732 40.3133 588.518 41.76C587.305 43.16 586.605 44.63 586.418 46.17L586.348 42.6C586.582 40.9667 587.118 39.38 587.958 37.84C588.798 36.3 589.918 34.9 591.318 33.64C592.765 32.3333 594.468 31.3067 596.428 30.56C598.388 29.8133 600.605 29.44 603.078 29.44ZM633.388 29.44C635.535 29.44 637.518 29.72 639.338 30.28C641.158 30.84 642.745 31.7033 644.098 32.87C645.452 34.0367 646.502 35.53 647.248 37.35C648.042 39.1233 648.438 41.2467 648.438 43.72V65H639.338V45.33C639.338 42.39 638.615 40.2433 637.168 38.89C635.722 37.49 633.388 36.79 630.168 36.79C627.742 36.79 625.548 37.2567 623.588 38.19C621.628 39.1233 620.042 40.3133 618.828 41.76C617.615 43.16 616.938 44.63 616.798 46.17L616.658 42.39C616.892 40.85 617.452 39.31 618.338 37.77C619.225 36.23 620.392 34.83 621.838 33.57C623.285 32.31 624.965 31.3067 626.878 30.56C628.838 29.8133 631.008 29.44 633.388 29.44ZM688.405 53.45H697.225C696.852 55.83 695.848 57.9533 694.215 59.82C692.628 61.6867 690.458 63.1567 687.705 64.23C684.952 65.3033 681.592 65.84 677.625 65.84C673.192 65.84 669.272 65.14 665.865 63.74C662.458 62.2933 659.798 60.2167 657.885 57.51C655.972 54.8033 655.015 51.5367 655.015 47.71C655.015 43.8833 655.948 40.6167 657.815 37.91C659.682 35.1567 662.272 33.0567 665.585 31.61C668.945 30.1633 672.865 29.44 677.345 29.44C681.918 29.44 685.722 30.1633 688.755 31.61C691.788 33.0567 694.028 35.25 695.475 38.19C696.968 41.0833 697.598 44.7933 697.365 49.32H664.185C664.418 51.0933 665.072 52.7033 666.145 54.15C667.265 55.5967 668.758 56.74 670.625 57.58C672.538 58.42 674.802 58.84 677.415 58.84C680.308 58.84 682.712 58.35 684.625 57.37C686.585 56.3433 687.845 55.0367 688.405 53.45ZM676.925 36.37C673.565 36.37 670.835 37.1167 668.735 38.61C666.635 40.0567 665.282 41.8533 664.675 44H688.335C688.102 41.6667 686.982 39.8233 684.975 38.47C683.015 37.07 680.332 36.37 676.925 36.37ZM704.137 30.21H713.237V65H704.137V30.21ZM726.607 37.7C723.993 37.7 721.73 38.2133 719.817 39.24C717.903 40.22 716.363 41.4333 715.197 42.88C714.03 44.3267 713.213 45.7267 712.747 47.08L712.677 43.23C712.723 42.67 712.91 41.8533 713.237 40.78C713.563 39.66 714.053 38.47 714.707 37.21C715.36 35.9033 716.223 34.6667 717.297 33.5C718.37 32.2867 719.677 31.3067 721.217 30.56C722.757 29.8133 724.553 29.44 726.607 29.44V37.7ZM773.532 51.28C773.299 54.3133 772.319 56.9267 770.592 59.12C768.912 61.3133 766.579 62.9933 763.592 64.16C760.606 65.28 757.059 65.84 752.952 65.84C748.659 65.84 744.809 65.1633 741.402 63.81C738.042 62.41 735.382 60.38 733.422 57.72C731.509 55.0133 730.552 51.6767 730.552 47.71C730.552 43.7433 731.509 40.4067 733.422 37.7C735.382 34.9933 738.042 32.94 741.402 31.54C744.809 30.14 748.659 29.44 752.952 29.44C757.059 29.44 760.582 30.0233 763.522 31.19C766.462 32.31 768.772 33.9433 770.452 36.09C772.179 38.2367 773.182 40.8267 773.462 43.86H765.132C764.339 41.5267 762.869 39.7067 760.722 38.4C758.576 37.0933 755.986 36.44 752.952 36.44C750.526 36.44 748.309 36.86 746.302 37.7C744.342 38.54 742.756 39.8 741.542 41.48C740.376 43.1133 739.792 45.19 739.792 47.71C739.792 50.1833 740.376 52.26 741.542 53.94C742.709 55.5733 744.296 56.81 746.302 57.65C748.309 58.4433 750.526 58.84 752.952 58.84C756.219 58.84 758.879 58.1867 760.932 56.88C763.032 55.5733 764.456 53.7067 765.202 51.28H773.532ZM811.931 53.45H820.751C820.377 55.83 819.374 57.9533 817.741 59.82C816.154 61.6867 813.984 63.1567 811.231 64.23C808.477 65.3033 805.117 65.84 801.151 65.84C796.717 65.84 792.797 65.14 789.391 63.74C785.984 62.2933 783.324 60.2167 781.411 57.51C779.497 54.8033 778.541 51.5367 778.541 47.71C778.541 43.8833 779.474 40.6167 781.341 37.91C783.207 35.1567 785.797 33.0567 789.111 31.61C792.471 30.1633 796.391 29.44 800.871 29.44C805.444 29.44 809.247 30.1633 812.281 31.61C815.314 33.0567 817.554 35.25 819.001 38.19C820.494 41.0833 821.124 44.7933 820.891 49.32H787.711C787.944 51.0933 788.597 52.7033 789.671 54.15C790.791 55.5967 792.284 56.74 794.151 57.58C796.064 58.42 798.327 58.84 800.941 58.84C803.834 58.84 806.237 58.35 808.151 57.37C810.111 56.3433 811.371 55.0367 811.931 53.45ZM800.451 36.37C797.091 36.37 794.361 37.1167 792.261 38.61C790.161 40.0567 788.807 41.8533 788.201 44H811.861C811.627 41.6667 810.507 39.8233 808.501 38.47C806.541 37.07 803.857 36.37 800.451 36.37Z" fill="#23A323"/>
</g>
<defs>
<filter id="filter0_ddddd_8924_99213" x="361" y="72.2211" width="429.012" height="239.779" filterUnits="userSpaceOnUse" color-interpolation-filters="sRGB">
<feFlood flood-opacity="0" result="BackgroundImageFix"/>
<feColorMatrix in="SourceAlpha" type="matrix" values="0 0 0 0 0 0 0 0 0 0 0 0 0 0 0 0 0 0 127 0" result="hardAlpha"/>
<feOffset/>
<feColorMatrix type="matrix" values="0 0 0 0 0 0 0 0 0 0 0 0 0 0 0 0 0 0 0.1 0"/>
<feBlend mode="normal" in2="BackgroundImageFix" result="effect1_dropShadow_8924_99213"/>
<feColorMatrix in="SourceAlpha" type="matrix" values="0 0 0 0 0 0 0 0 0 0 0 0 0 0 0 0 0 0 127 0" result="hardAlpha"/>
<feOffset dx="3" dy="7"/>
<feGaussianBlur stdDeviation="8.5"/>
<feColorMatrix type="matrix" values="0 0 0 0 0 0 0 0 0 0 0 0 0 0 0 0 0 0 0.1 0"/>
<feBlend mode="normal" in2="effect1_dropShadow_8924_99213" result="effect2_dropShadow_8924_99213"/>
<feColorMatrix in="SourceAlpha" type="matrix" values="0 0 0 0 0 0 0 0 0 0 0 0 0 0 0 0 0 0 127 0" result="hardAlpha"/>
<feOffset dx="13" dy="27"/>
<feGaussianBlur stdDeviation="15"/>
<feColorMatrix type="matrix" values="0 0 0 0 0 0 0 0 0 0 0 0 0 0 0 0 0 0 0.09 0"/>
<feBlend mode="normal" in2="effect2_dropShadow_8924_99213" result="effect3_dropShadow_8924_99213"/>
<feColorMatrix in="SourceAlpha" type="matrix" values="0 0 0 0 0 0 0 0 0 0 0 0 0 0 0 0 0 0 127 0" result="hardAlpha"/>
<feOffset dx="30" dy="61"/>
<feGaussianBlur stdDeviation="20.5"/>
<feColorMatrix type="matrix" values="0 0 0 0 0 0 0 0 0 0 0 0 0 0 0 0 0 0 0.05 0"/>
<feBlend mode="normal" in2="effect3_dropShadow_8924_99213" result="effect4_dropShadow_8924_99213"/>
<feColorMatrix in="SourceAlpha" type="matrix" values="0 0 0 0 0 0 0 0 0 0 0 0 0 0 0 0 0 0 127 0" result="hardAlpha"/>
<feOffset dx="53" dy="109"/>
<feGaussianBlur stdDeviation="24.5"/>
<feColorMatrix type="matrix" values="0 0 0 0 0 0 0 0 0 0 0 0 0 0 0 0 0 0 0.01 0"/>
<feBlend mode="normal" in2="effect4_dropShadow_8924_99213" result="effect5_dropShadow_8924_99213"/>
<feBlend mode="normal" in="SourceGraphic" in2="effect5_dropShadow_8924_99213" result="shape"/>
</filter>
<clipPath id="clip0_8924_99213">
<rect width="845" height="168" fill="white"/>
</clipPath>
</defs>
</svg>
