<svg width="607" height="84" viewBox="0 0 607 84" fill="none" xmlns="http://www.w3.org/2000/svg">
<g clip-path="url(#clip0_3999_41141)">
<path d="M566.082 19.8672L577.67 3.44052" stroke="white" stroke-width="1.5" stroke-linecap="round"/>
<path d="M574.795 31.4883L593.293 24.5896" stroke="white" stroke-width="1.5" stroke-linecap="round"/>
<path d="M571.188 25.2383L592.565 8.69825" stroke="white" stroke-width="2" stroke-linecap="round"/>
<path d="M98 71L104.536 75.6042C111.816 80.7326 121.397 81.2145 129.155 76.8425V76.8425C135.66 73.1769 143.536 72.8848 150.294 76.0586L154.283 77.9318C162.498 81.7898 171.975 81.932 180.302 78.3222L183.14 77.0921C192.164 73.18 202.344 72.8728 211.588 76.2337L220.122 79.3366C228.333 82.3218 237.395 81.9122 245.302 78.1985L248.647 76.6279C256.166 73.0969 264.928 73.4218 272.165 77.5V77.5C279.401 81.5782 288.164 81.9031 295.683 78.3721L298.817 76.9001C306.84 73.1324 316.056 72.8172 324.318 76.0281L332.132 79.0651C340.209 82.2041 349.242 81.7395 356.954 77.7886V77.7886C365.311 73.5068 375.181 73.337 383.681 77.3289L385.385 78.1292C393.404 81.8951 402.572 82.3995 410.956 79.5361L424.334 74.9669C431.658 72.4655 439.728 73.5055 446.178 77.782V77.782C452.141 81.7355 459.515 82.9378 466.425 81.0835L504 71" stroke="#FFBD00" stroke-width="5"/>
<path d="M41.9964 45.415H46.1364C46.2264 46.585 46.6164 47.65 47.3064 48.61C48.0264 49.54 48.9864 50.275 50.1864 50.815C51.4164 51.355 52.8414 51.625 54.4614 51.625C55.8714 51.625 57.0414 51.43 57.9714 51.04C58.9014 50.65 59.5914 50.125 60.0414 49.465C60.5214 48.775 60.7614 47.965 60.7614 47.035C60.7614 46.105 60.5064 45.37 59.9964 44.83C59.4864 44.26 58.7214 43.795 57.7014 43.435C56.6814 43.045 55.4214 42.67 53.9214 42.31C52.6014 41.98 51.2964 41.59 50.0064 41.14C48.7464 40.66 47.5764 40.075 46.4964 39.385C45.4464 38.695 44.5914 37.87 43.9314 36.91C43.3014 35.92 42.9864 34.735 42.9864 33.355C42.9864 31.885 43.3914 30.55 44.2014 29.35C45.0114 28.12 46.1964 27.145 47.7564 26.425C49.3464 25.675 51.2664 25.3 53.5164 25.3C56.9964 25.3 59.6214 26.17 61.3914 27.91C63.1914 29.65 64.0614 31.975 64.0014 34.885H59.9514C59.8614 32.845 59.2164 31.39 58.0164 30.52C56.8164 29.62 55.2564 29.17 53.3364 29.17C51.6864 29.17 50.2764 29.515 49.1064 30.205C47.9364 30.865 47.3514 31.915 47.3514 33.355C47.3514 33.985 47.4864 34.54 47.7564 35.02C48.0264 35.47 48.4764 35.89 49.1064 36.28C49.7364 36.67 50.5764 37.045 51.6264 37.405C52.7064 37.765 54.0414 38.155 55.6314 38.575C56.8314 38.845 57.9864 39.19 59.0964 39.61C60.2364 40.03 61.2564 40.555 62.1564 41.185C63.0564 41.815 63.7614 42.625 64.2714 43.615C64.8114 44.605 65.0814 45.82 65.0814 47.26C65.0814 48.79 64.7064 50.185 63.9564 51.445C63.2064 52.675 62.0364 53.665 60.4464 54.415C58.8864 55.135 56.8614 55.495 54.3714 55.495C52.3914 55.495 50.6664 55.24 49.1964 54.73C47.7564 54.22 46.5414 53.56 45.5514 52.75C44.5914 51.94 43.8264 51.07 43.2564 50.14C42.7164 49.21 42.3414 48.325 42.1314 47.485C41.9514 46.645 41.9064 45.955 41.9964 45.415ZM74.8865 23.275V27.91H69.5315V23.275H74.8865ZM70.0715 32.545H74.3465V55H70.0715V32.545ZM80.4341 32.545H84.7541V55H80.4341V32.545ZM93.3041 32.095C94.5641 32.095 95.7041 32.275 96.7241 32.635C97.7441 32.995 98.6141 33.535 99.3341 34.255C100.054 34.945 100.609 35.815 100.999 36.865C101.419 37.885 101.629 39.055 101.629 40.375V55H97.3541V41.32C97.3541 39.55 96.9191 38.23 96.0491 37.36C95.2091 36.46 93.9191 36.01 92.1791 36.01C90.8291 36.01 89.5991 36.325 88.4891 36.955C87.3791 37.585 86.4641 38.425 85.7441 39.475C85.0541 40.495 84.6341 41.65 84.4841 42.94L84.4391 40.465C84.5891 39.265 84.9041 38.155 85.3841 37.135C85.8941 36.115 86.5241 35.23 87.2741 34.48C88.0541 33.7 88.9541 33.115 89.9741 32.725C90.9941 32.305 92.1041 32.095 93.3041 32.095ZM116.33 51.49C114.47 51.49 112.76 51.115 111.2 50.365C109.64 49.615 108.395 48.52 107.465 47.08C106.565 45.64 106.115 43.9 106.115 41.86C106.115 39.85 106.565 38.125 107.465 36.685C108.365 35.215 109.58 34.09 111.11 33.31C112.67 32.5 114.41 32.095 116.33 32.095C116.9 32.095 117.44 32.14 117.95 32.23C118.46 32.29 118.955 32.395 119.435 32.545H129.245V36.595C127.895 36.595 126.53 36.37 125.15 35.92C123.8 35.47 122.615 34.99 121.595 34.48L121.46 34.255C122.48 34.795 123.365 35.455 124.115 36.235C124.865 36.985 125.435 37.84 125.825 38.8C126.245 39.73 126.455 40.78 126.455 41.95C126.455 43.93 126.005 45.64 125.105 47.08C124.235 48.52 123.02 49.615 121.46 50.365C119.93 51.115 118.22 51.49 116.33 51.49ZM123.215 64.09V63.055C123.215 61.525 122.795 60.43 121.955 59.77C121.115 59.11 119.885 58.78 118.265 58.78H113C111.89 58.78 110.945 58.69 110.165 58.51C109.385 58.33 108.74 58.06 108.23 57.7C107.72 57.37 107.345 56.95 107.105 56.44C106.865 55.96 106.745 55.42 106.745 54.82C106.745 53.65 107.105 52.765 107.825 52.165C108.545 51.565 109.46 51.19 110.57 51.04C111.68 50.86 112.805 50.845 113.945 50.995L116.33 51.49C114.62 51.58 113.315 51.745 112.415 51.985C111.515 52.225 111.065 52.735 111.065 53.515C111.065 53.965 111.245 54.325 111.605 54.595C111.965 54.865 112.475 55 113.135 55H118.625C120.335 55 121.85 55.21 123.17 55.63C124.52 56.08 125.57 56.815 126.32 57.835C127.1 58.885 127.49 60.31 127.49 62.11V64.09H123.215ZM116.33 47.845C117.41 47.845 118.385 47.62 119.255 47.17C120.155 46.69 120.875 46.015 121.415 45.145C121.955 44.245 122.225 43.165 122.225 41.905C122.225 40.615 121.955 39.52 121.415 38.62C120.905 37.69 120.2 37 119.3 36.55C118.4 36.07 117.41 35.83 116.33 35.83C115.25 35.83 114.245 36.07 113.315 36.55C112.415 37 111.695 37.675 111.155 38.575C110.615 39.475 110.345 40.585 110.345 41.905C110.345 43.165 110.615 44.245 111.155 45.145C111.695 46.015 112.415 46.69 113.315 47.17C114.215 47.62 115.22 47.845 116.33 47.845ZM133.794 23.545H138.114V55H133.794V23.545ZM161.612 47.71H165.707C165.467 49.18 164.897 50.5 163.997 51.67C163.097 52.84 161.912 53.77 160.442 54.46C158.972 55.15 157.247 55.495 155.267 55.495C152.927 55.495 150.842 55 149.012 54.01C147.182 53.02 145.742 51.655 144.692 49.915C143.642 48.175 143.117 46.15 143.117 43.84C143.117 41.5 143.627 39.46 144.647 37.72C145.667 35.95 147.077 34.57 148.877 33.58C150.677 32.59 152.732 32.095 155.042 32.095C157.472 32.095 159.512 32.575 161.162 33.535C162.812 34.495 164.027 35.92 164.807 37.81C165.617 39.67 165.947 41.995 165.797 44.785H147.392C147.542 46.135 147.947 47.335 148.607 48.385C149.297 49.435 150.197 50.26 151.307 50.86C152.447 51.46 153.752 51.76 155.222 51.76C156.872 51.76 158.252 51.385 159.362 50.635C160.472 49.885 161.222 48.91 161.612 47.71ZM155.087 35.785C153.137 35.785 151.517 36.31 150.227 37.36C148.937 38.38 148.082 39.745 147.662 41.455H161.477C161.357 39.625 160.697 38.23 159.497 37.27C158.297 36.28 156.827 35.785 155.087 35.785ZM179.244 47.71H183.204C183.354 48.91 183.894 49.9 184.824 50.68C185.754 51.43 187.059 51.805 188.739 51.805C189.819 51.805 190.659 51.685 191.259 51.445C191.859 51.175 192.279 50.815 192.519 50.365C192.789 49.915 192.924 49.42 192.924 48.88C192.924 48.19 192.744 47.665 192.384 47.305C192.024 46.915 191.514 46.6 190.854 46.36C190.194 46.09 189.414 45.835 188.514 45.595C187.524 45.325 186.534 45.01 185.544 44.65C184.554 44.29 183.639 43.855 182.799 43.345C181.989 42.835 181.329 42.205 180.819 41.455C180.339 40.675 180.099 39.73 180.099 38.62C180.099 37.69 180.294 36.82 180.684 36.01C181.104 35.2 181.689 34.51 182.439 33.94C183.219 33.34 184.119 32.89 185.139 32.59C186.159 32.26 187.284 32.095 188.514 32.095C190.224 32.095 191.664 32.41 192.834 33.04C194.004 33.64 194.889 34.495 195.489 35.605C196.119 36.715 196.449 37.99 196.479 39.43H192.699C192.489 38.17 192.054 37.255 191.394 36.685C190.734 36.085 189.744 35.785 188.424 35.785C187.134 35.785 186.144 36.04 185.454 36.55C184.764 37.06 184.419 37.75 184.419 38.62C184.419 39.28 184.659 39.82 185.139 40.24C185.619 40.63 186.264 40.975 187.074 41.275C187.884 41.575 188.799 41.89 189.819 42.22C190.779 42.55 191.694 42.895 192.564 43.255C193.464 43.585 194.259 43.99 194.949 44.47C195.669 44.92 196.224 45.52 196.614 46.27C197.034 46.99 197.244 47.89 197.244 48.97C197.244 50.29 196.914 51.445 196.254 52.435C195.594 53.395 194.634 54.145 193.374 54.685C192.144 55.225 190.644 55.495 188.874 55.495C187.254 55.495 185.874 55.3 184.734 54.91C183.624 54.52 182.679 54.01 181.899 53.38C181.149 52.75 180.564 52.09 180.144 51.4C179.754 50.68 179.484 49.99 179.334 49.33C179.214 48.67 179.184 48.13 179.244 47.71ZM212.612 55.495C210.422 55.495 208.412 55.03 206.582 54.1C204.752 53.17 203.297 51.835 202.217 50.095C201.137 48.355 200.597 46.27 200.597 43.84C200.597 41.38 201.137 39.28 202.217 37.54C203.297 35.77 204.752 34.42 206.582 33.49C208.412 32.56 210.422 32.095 212.612 32.095C214.802 32.095 216.797 32.56 218.597 33.49C220.397 34.42 221.837 35.77 222.917 37.54C223.997 39.28 224.537 41.38 224.537 43.84C224.537 46.27 223.997 48.355 222.917 50.095C221.837 51.835 220.397 53.17 218.597 54.1C216.797 55.03 214.802 55.495 212.612 55.495ZM212.612 51.76C213.962 51.76 215.207 51.46 216.347 50.86C217.517 50.23 218.447 49.33 219.137 48.16C219.857 46.96 220.217 45.52 220.217 43.84C220.217 42.13 219.857 40.675 219.137 39.475C218.447 38.275 217.517 37.36 216.347 36.73C215.207 36.1 213.962 35.785 212.612 35.785C211.262 35.785 210.002 36.1 208.832 36.73C207.662 37.33 206.717 38.23 205.997 39.43C205.277 40.63 204.917 42.1 204.917 43.84C204.917 45.52 205.262 46.96 205.952 48.16C206.672 49.33 207.617 50.23 208.787 50.86C209.957 51.46 211.232 51.76 212.612 51.76ZM250.252 55H245.977V32.545H250.252V55ZM246.202 44.425L246.247 45.775C246.217 46.165 246.112 46.75 245.932 47.53C245.782 48.28 245.512 49.105 245.122 50.005C244.762 50.905 244.252 51.775 243.592 52.615C242.962 53.455 242.152 54.145 241.162 54.685C240.172 55.225 238.972 55.495 237.562 55.495C236.602 55.495 235.612 55.36 234.592 55.09C233.602 54.82 232.687 54.37 231.847 53.74C231.007 53.11 230.332 52.255 229.822 51.175C229.312 50.065 229.057 48.685 229.057 47.035V32.545H233.377V46.135C233.377 47.515 233.587 48.595 234.007 49.375C234.457 50.155 235.087 50.71 235.897 51.04C236.707 51.37 237.622 51.535 238.642 51.535C240.202 51.535 241.507 51.16 242.557 50.41C243.637 49.63 244.477 48.7 245.077 47.62C245.677 46.51 246.052 45.445 246.202 44.425ZM255.908 32.545H260.228V55H255.908V32.545ZM267.833 36.37C266.273 36.37 264.938 36.73 263.828 37.45C262.748 38.17 261.878 39.055 261.218 40.105C260.588 41.155 260.168 42.16 259.958 43.12L259.913 40.555C259.943 40.255 260.018 39.79 260.138 39.16C260.288 38.5 260.543 37.765 260.903 36.955C261.263 36.145 261.743 35.38 262.343 34.66C262.943 33.91 263.693 33.295 264.593 32.815C265.493 32.335 266.573 32.095 267.833 32.095V36.37ZM293.733 46.45C293.553 48.31 292.953 49.93 291.933 51.31C290.943 52.66 289.638 53.695 288.018 54.415C286.398 55.135 284.598 55.495 282.618 55.495C280.428 55.495 278.418 55.045 276.588 54.145C274.758 53.215 273.288 51.88 272.178 50.14C271.098 48.37 270.558 46.27 270.558 43.84C270.558 41.38 271.098 39.28 272.178 37.54C273.288 35.77 274.758 34.42 276.588 33.49C278.418 32.56 280.428 32.095 282.618 32.095C284.598 32.095 286.383 32.455 287.973 33.175C289.563 33.895 290.868 34.93 291.888 36.28C292.908 37.6 293.523 39.19 293.733 41.05H289.818C289.308 39.43 288.393 38.155 287.073 37.225C285.783 36.265 284.298 35.785 282.618 35.785C281.238 35.785 279.948 36.1 278.748 36.73C277.578 37.36 276.633 38.275 275.913 39.475C275.223 40.645 274.878 42.1 274.878 43.84C274.878 45.52 275.223 46.96 275.913 48.16C276.633 49.33 277.578 50.23 278.748 50.86C279.918 51.46 281.208 51.76 282.618 51.76C284.538 51.76 286.098 51.295 287.298 50.365C288.498 49.435 289.353 48.13 289.863 46.45H293.733ZM315.552 47.71H319.647C319.407 49.18 318.837 50.5 317.937 51.67C317.037 52.84 315.852 53.77 314.382 54.46C312.912 55.15 311.187 55.495 309.207 55.495C306.867 55.495 304.782 55 302.952 54.01C301.122 53.02 299.682 51.655 298.632 49.915C297.582 48.175 297.057 46.15 297.057 43.84C297.057 41.5 297.567 39.46 298.587 37.72C299.607 35.95 301.017 34.57 302.817 33.58C304.617 32.59 306.672 32.095 308.982 32.095C311.412 32.095 313.452 32.575 315.102 33.535C316.752 34.495 317.967 35.92 318.747 37.81C319.557 39.67 319.887 41.995 319.737 44.785H301.332C301.482 46.135 301.887 47.335 302.547 48.385C303.237 49.435 304.137 50.26 305.247 50.86C306.387 51.46 307.692 51.76 309.162 51.76C310.812 51.76 312.192 51.385 313.302 50.635C314.412 49.885 315.162 48.91 315.552 47.71ZM309.027 35.785C307.077 35.785 305.457 36.31 304.167 37.36C302.877 38.38 302.022 39.745 301.602 41.455H315.417C315.297 39.625 314.637 38.23 313.437 37.27C312.237 36.28 310.767 35.785 309.027 35.785ZM334.174 32.545H338.494V55H334.174V32.545ZM346.099 36.37C344.539 36.37 343.204 36.73 342.094 37.45C341.014 38.17 340.144 39.055 339.484 40.105C338.854 41.155 338.434 42.16 338.224 43.12L338.179 40.555C338.209 40.255 338.284 39.79 338.404 39.16C338.554 38.5 338.809 37.765 339.169 36.955C339.529 36.145 340.009 35.38 340.609 34.66C341.209 33.91 341.959 33.295 342.859 32.815C343.759 32.335 344.839 32.095 346.099 32.095V36.37ZM367.32 47.71H371.415C371.175 49.18 370.605 50.5 369.705 51.67C368.805 52.84 367.62 53.77 366.15 54.46C364.68 55.15 362.955 55.495 360.975 55.495C358.635 55.495 356.55 55 354.72 54.01C352.89 53.02 351.45 51.655 350.4 49.915C349.35 48.175 348.825 46.15 348.825 43.84C348.825 41.5 349.335 39.46 350.355 37.72C351.375 35.95 352.785 34.57 354.585 33.58C356.385 32.59 358.44 32.095 360.75 32.095C363.18 32.095 365.22 32.575 366.87 33.535C368.52 34.495 369.735 35.92 370.515 37.81C371.325 39.67 371.655 41.995 371.505 44.785H353.1C353.25 46.135 353.655 47.335 354.315 48.385C355.005 49.435 355.905 50.26 357.015 50.86C358.155 51.46 359.46 51.76 360.93 51.76C362.58 51.76 363.96 51.385 365.07 50.635C366.18 49.885 366.93 48.91 367.32 47.71ZM360.795 35.785C358.845 35.785 357.225 36.31 355.935 37.36C354.645 38.38 353.79 39.745 353.37 41.455H367.185C367.065 39.625 366.405 38.23 365.205 37.27C364.005 36.28 362.535 35.785 360.795 35.785ZM388.879 55.495C387.139 55.495 385.684 55.12 384.514 54.37C383.344 53.62 382.429 52.645 381.769 51.445C381.109 50.245 380.629 48.97 380.329 47.62C380.029 46.27 379.879 44.995 379.879 43.795C379.879 42.175 380.014 40.66 380.284 39.25C380.584 37.84 381.064 36.595 381.724 35.515C382.384 34.435 383.299 33.595 384.469 32.995C385.639 32.395 387.109 32.095 388.879 32.095C390.829 32.095 392.584 32.605 394.144 33.625C395.704 34.615 396.949 35.995 397.879 37.765C398.839 39.535 399.319 41.545 399.319 43.795C399.319 46.105 398.839 48.145 397.879 49.915C396.919 51.655 395.644 53.02 394.054 54.01C392.494 55 390.769 55.495 388.879 55.495ZM387.664 51.715C389.104 51.715 390.379 51.385 391.489 50.725C392.599 50.035 393.454 49.105 394.054 47.935C394.684 46.735 394.999 45.355 394.999 43.795C394.999 41.485 394.354 39.58 393.064 38.08C391.804 36.58 390.004 35.83 387.664 35.83C386.254 35.83 384.994 36.16 383.884 36.82C382.804 37.48 381.949 38.41 381.319 39.61C380.689 40.81 380.374 42.205 380.374 43.795C380.374 45.295 380.644 46.645 381.184 47.845C381.754 49.015 382.579 49.96 383.659 50.68C384.739 51.37 386.074 51.715 387.664 51.715ZM376.054 32.545H380.194L380.374 37.63V64H376.054V32.545ZM413.098 55.45C411.178 55.45 409.423 54.955 407.833 53.965C406.243 52.975 404.983 51.61 404.053 49.87C403.123 48.1 402.658 46.075 402.658 43.795C402.658 41.515 403.123 39.505 404.053 37.765C405.013 35.995 406.318 34.615 407.968 33.625C409.618 32.605 411.463 32.095 413.503 32.095C415.753 32.095 417.493 32.62 418.723 33.67C419.983 34.72 420.853 36.13 421.333 37.9C421.843 39.67 422.098 41.635 422.098 43.795C422.098 44.995 421.948 46.27 421.648 47.62C421.348 48.97 420.868 50.245 420.208 51.445C419.548 52.645 418.633 53.62 417.463 54.37C416.293 55.09 414.838 55.45 413.098 55.45ZM414.313 51.715C415.903 51.715 417.238 51.37 418.318 50.68C419.428 49.96 420.253 49 420.793 47.8C421.333 46.6 421.603 45.265 421.603 43.795C421.603 42.205 421.318 40.81 420.748 39.61C420.208 38.41 419.383 37.48 418.273 36.82C417.193 36.16 415.873 35.83 414.313 35.83C411.973 35.83 410.158 36.58 408.868 38.08C407.608 39.58 406.978 41.485 406.978 43.795C406.978 45.355 407.293 46.735 407.923 47.935C408.553 49.105 409.408 50.035 410.488 50.725C411.598 51.385 412.873 51.715 414.313 51.715ZM421.603 32.545H425.923V55H421.963C421.963 55 421.933 54.73 421.873 54.19C421.813 53.62 421.753 52.945 421.693 52.165C421.633 51.385 421.603 50.695 421.603 50.095V32.545ZM429.532 32.545H434.122L442.717 54.1L438.982 55L429.532 32.545ZM452.437 32.545L438.982 64H434.437L440.242 51.805L447.892 32.545H452.437ZM456.123 32.545H460.443V55H456.123V32.545ZM468.993 32.095C470.253 32.095 471.393 32.275 472.413 32.635C473.433 32.995 474.303 33.535 475.023 34.255C475.743 34.945 476.298 35.815 476.688 36.865C477.108 37.885 477.318 39.055 477.318 40.375V55H473.043V41.32C473.043 39.55 472.608 38.23 471.738 37.36C470.898 36.46 469.608 36.01 467.868 36.01C466.518 36.01 465.288 36.325 464.178 36.955C463.068 37.585 462.153 38.425 461.433 39.475C460.743 40.495 460.323 41.65 460.173 42.94L460.128 40.465C460.278 39.265 460.593 38.155 461.073 37.135C461.583 36.115 462.213 35.23 462.963 34.48C463.743 33.7 464.643 33.115 465.663 32.725C466.683 32.305 467.793 32.095 468.993 32.095ZM485.463 32.095C486.723 32.095 487.863 32.275 488.883 32.635C489.903 32.995 490.773 33.535 491.493 34.255C492.213 34.945 492.768 35.815 493.158 36.865C493.578 37.885 493.788 39.055 493.788 40.375V55H489.513V41.32C489.513 39.55 489.078 38.23 488.208 37.36C487.368 36.46 486.078 36.01 484.338 36.01C482.988 36.01 481.758 36.325 480.648 36.955C479.538 37.585 478.623 38.425 477.903 39.475C477.213 40.495 476.793 41.65 476.643 42.94L476.598 40.42C476.748 39.22 477.063 38.125 477.543 37.135C478.053 36.115 478.698 35.23 479.478 34.48C480.258 33.7 481.158 33.115 482.178 32.725C483.198 32.305 484.293 32.095 485.463 32.095ZM516.778 47.71H520.873C520.633 49.18 520.063 50.5 519.163 51.67C518.263 52.84 517.078 53.77 515.608 54.46C514.138 55.15 512.413 55.495 510.433 55.495C508.093 55.495 506.008 55 504.178 54.01C502.348 53.02 500.908 51.655 499.858 49.915C498.808 48.175 498.283 46.15 498.283 43.84C498.283 41.5 498.793 39.46 499.813 37.72C500.833 35.95 502.243 34.57 504.043 33.58C505.843 32.59 507.898 32.095 510.208 32.095C512.638 32.095 514.678 32.575 516.328 33.535C517.978 34.495 519.193 35.92 519.973 37.81C520.783 39.67 521.113 41.995 520.963 44.785H502.558C502.708 46.135 503.113 47.335 503.773 48.385C504.463 49.435 505.363 50.26 506.473 50.86C507.613 51.46 508.918 51.76 510.388 51.76C512.038 51.76 513.418 51.385 514.528 50.635C515.638 49.885 516.388 48.91 516.778 47.71ZM510.253 35.785C508.303 35.785 506.683 36.31 505.393 37.36C504.103 38.38 503.248 39.745 502.828 41.455H516.643C516.523 39.625 515.863 38.23 514.663 37.27C513.463 36.28 511.993 35.785 510.253 35.785ZM525.512 32.545H529.832V55H525.512V32.545ZM538.382 32.095C539.642 32.095 540.782 32.275 541.802 32.635C542.822 32.995 543.692 33.535 544.412 34.255C545.132 34.945 545.687 35.815 546.077 36.865C546.497 37.885 546.707 39.055 546.707 40.375V55H542.432V41.32C542.432 39.55 541.997 38.23 541.127 37.36C540.287 36.46 538.997 36.01 537.257 36.01C535.907 36.01 534.677 36.325 533.567 36.955C532.457 37.585 531.542 38.425 530.822 39.475C530.132 40.495 529.712 41.65 529.562 42.94L529.517 40.465C529.667 39.265 529.982 38.155 530.462 37.135C530.972 36.115 531.602 35.23 532.352 34.48C533.132 33.7 534.032 33.115 535.052 32.725C536.072 32.305 537.182 32.095 538.382 32.095ZM550.788 32.545H565.323V36.28H550.788V32.545ZM555.918 26.605H560.193V55H555.918V26.605Z" fill="white"/>
</g>
<defs>
<clipPath id="clip0_3999_41141">
<rect width="607" height="84" fill="white"/>
</clipPath>
</defs>
</svg>
