<svg width="30" height="30" viewBox="0 0 30 30" fill="none" xmlns="http://www.w3.org/2000/svg">
<circle cx="15.1007" cy="15.0773" r="14.6974" fill="#F2FCF2"/>
<g clip-path="url(#clip0_3218_34802)">
<path d="M15.8185 10.9834L15.6616 11.031L9.39539 13.1304L7.9707 13.6001L8.80035 13.8658V18.2522C8.50108 18.4261 8.29905 18.7434 8.29905 19.1144C8.29905 19.3803 8.40468 19.6353 8.59271 19.8233C8.78073 20.0114 9.03574 20.117 9.30165 20.117C9.56755 20.117 9.82256 20.0114 10.0106 19.8233C10.1986 19.6353 10.3042 19.3803 10.3042 19.1144C10.3042 18.7434 10.1022 18.4261 9.80294 18.2522V14.2117L10.8055 14.5401V17.1092C10.8055 17.5203 11.0562 17.8612 11.354 18.0968C11.6517 18.3309 12.0217 18.4963 12.4658 18.6447C13.3551 18.9405 14.5272 19.1144 15.8185 19.1144C17.1098 19.1144 18.2819 18.941 19.1712 18.6442C19.6153 18.4963 19.9853 18.3309 20.2831 18.0963C20.5808 17.8612 20.8315 17.5203 20.8315 17.1092V14.5401L22.2416 14.0699L23.6663 13.6001L22.2411 13.1299L15.9749 11.031L15.8185 10.9834ZM15.8185 12.0336L20.5182 13.6001L15.8185 15.1667L11.1188 13.6001L15.8185 12.0336ZM11.8081 14.885L15.6621 16.1693L15.8185 16.2164L15.9754 16.1688L19.8289 14.8845V17.1092C19.8289 17.1142 19.8309 17.1724 19.672 17.2972C19.5136 17.4225 19.2293 17.5804 18.8574 17.7048C18.1144 17.9519 17.0191 18.1118 15.8185 18.1118C14.6179 18.1118 13.5226 17.9524 12.7791 17.7043C12.4082 17.5804 12.1234 17.422 11.965 17.2972C11.8056 17.1719 11.8081 17.1142 11.8081 17.1092V14.885Z" fill="#23A323"/>
</g>
<defs>
<clipPath id="clip0_3218_34802">
<rect width="16.0415" height="16.0415" fill="white" transform="translate(7.79785 7.08328)"/>
</clipPath>
</defs>
</svg>
