<svg width="344" height="170" viewBox="0 0 344 170" fill="none" xmlns="http://www.w3.org/2000/svg">
<g clip-path="url(#clip0_4152_41293)">
<path d="M2.21 45.83H10.985C11.1583 47.3033 11.83 48.6467 13 49.86C14.2133 51.03 15.795 51.9617 17.745 52.655C19.695 53.305 21.8833 53.63 24.31 53.63C26.52 53.63 28.34 53.3917 29.77 52.915C31.2 52.4383 32.2617 51.7667 32.955 50.9C33.6483 50.0333 33.995 48.9933 33.995 47.78C33.995 46.61 33.5617 45.7217 32.695 45.115C31.8283 44.465 30.4633 43.945 28.6 43.555C26.7367 43.1217 24.2883 42.6883 21.255 42.255C18.8717 41.9083 16.6183 41.4317 14.495 40.825C12.3717 40.175 10.4867 39.3517 8.84 38.355C7.23667 37.3583 5.95833 36.145 5.005 34.715C4.095 33.2417 3.64 31.5083 3.64 29.515C3.64 27.045 4.33333 24.8783 5.72 23.015C7.15 21.1517 9.25167 19.7 12.025 18.66C14.7983 17.62 18.2 17.1 22.23 17.1C28.2967 17.1 32.955 18.4 36.205 21C39.4983 23.5567 41.1017 27.0883 41.015 31.595H32.565C32.3917 29.0383 31.3083 27.1967 29.315 26.07C27.365 24.9433 24.895 24.38 21.905 24.38C19.1317 24.38 16.835 24.7917 15.015 25.615C13.2383 26.4383 12.35 27.8467 12.35 29.84C12.35 30.62 12.5667 31.3133 13 31.92C13.4333 32.4833 14.17 32.9817 15.21 33.415C16.25 33.8483 17.6583 34.26 19.435 34.65C21.2117 35.04 23.4217 35.43 26.065 35.82C28.535 36.1667 30.7667 36.6433 32.76 37.25C34.7967 37.8133 36.53 38.5717 37.96 39.525C39.4333 40.435 40.56 41.605 41.34 43.035C42.12 44.465 42.51 46.22 42.51 48.3C42.51 50.8567 41.8383 53.0883 40.495 54.995C39.195 56.8583 37.1583 58.31 34.385 59.35C31.655 60.39 28.1017 60.91 23.725 60.91C20.605 60.91 17.8533 60.585 15.47 59.935C13.0867 59.2417 11.0283 58.3317 9.295 57.205C7.56167 56.0783 6.15333 54.8433 5.07 53.5C3.98667 52.1567 3.20667 50.8133 2.73 49.47C2.29667 48.1267 2.12333 46.9133 2.21 45.83ZM64.7618 60.715C61.5552 60.715 58.6302 60.0217 55.9868 58.635C53.3868 57.205 51.3068 55.2333 49.7468 52.72C48.2302 50.1633 47.4718 47.2167 47.4718 43.88C47.4718 40.4567 48.2518 37.4883 49.8118 34.975C51.3718 32.4617 53.4735 30.5117 56.1168 29.125C58.8035 27.695 61.8368 26.98 65.2168 26.98C68.9435 26.98 71.9335 27.7383 74.1868 29.255C76.4835 30.7283 78.1518 32.7433 79.1918 35.3C80.2318 37.8567 80.7518 40.7167 80.7518 43.88C80.7518 45.7867 80.4485 47.7367 79.8418 49.73C79.2352 51.68 78.3035 53.5 77.0468 55.19C75.7902 56.8367 74.1435 58.18 72.1068 59.22C70.0702 60.2167 67.6218 60.715 64.7618 60.715ZM67.4918 54.215C70.0485 54.215 72.2585 53.7817 74.1218 52.915C75.9852 52.0483 77.4152 50.835 78.4118 49.275C79.4085 47.715 79.9068 45.9167 79.9068 43.88C79.9068 41.67 79.3868 39.8067 78.3468 38.29C77.3502 36.73 75.9202 35.56 74.0568 34.78C72.2368 33.9567 70.0485 33.545 67.4918 33.545C63.8952 33.545 61.1002 34.4983 59.1068 36.405C57.1135 38.2683 56.1168 40.76 56.1168 43.88C56.1168 45.96 56.5935 47.78 57.5468 49.34C58.5002 50.8567 59.8218 52.0483 61.5118 52.915C63.2452 53.7817 65.2385 54.215 67.4918 54.215ZM79.9068 27.695H88.3568V60H80.4918C80.4918 60 80.4268 59.5883 80.2968 58.765C80.2102 57.8983 80.1235 56.815 80.0368 55.515C79.9502 54.215 79.9068 52.9367 79.9068 51.68V27.695ZM96.6545 14.695H105.104V60H96.6545V14.695ZM129.381 60.715C126.174 60.715 123.249 60.0217 120.606 58.635C118.006 57.205 115.926 55.2333 114.366 52.72C112.849 50.1633 112.091 47.2167 112.091 43.88C112.091 40.4567 112.871 37.4883 114.431 34.975C115.991 32.4617 118.093 30.5117 120.736 29.125C123.423 27.695 126.456 26.98 129.836 26.98C133.563 26.98 136.553 27.7383 138.806 29.255C141.103 30.7283 142.771 32.7433 143.811 35.3C144.851 37.8567 145.371 40.7167 145.371 43.88C145.371 45.7867 145.068 47.7367 144.461 49.73C143.854 51.68 142.923 53.5 141.666 55.19C140.409 56.8367 138.763 58.18 136.726 59.22C134.689 60.2167 132.241 60.715 129.381 60.715ZM132.111 54.215C134.668 54.215 136.878 53.7817 138.741 52.915C140.604 52.0483 142.034 50.835 143.031 49.275C144.028 47.715 144.526 45.9167 144.526 43.88C144.526 41.67 144.006 39.8067 142.966 38.29C141.969 36.73 140.539 35.56 138.676 34.78C136.856 33.9567 134.668 33.545 132.111 33.545C128.514 33.545 125.719 34.4983 123.726 36.405C121.733 38.2683 120.736 40.76 120.736 43.88C120.736 45.96 121.213 47.78 122.166 49.34C123.119 50.8567 124.441 52.0483 126.131 52.915C127.864 53.7817 129.858 54.215 132.111 54.215ZM144.526 27.695H152.976V60H145.111C145.111 60 145.046 59.5883 144.916 58.765C144.829 57.8983 144.743 56.815 144.656 55.515C144.569 54.215 144.526 52.9367 144.526 51.68V27.695ZM160.624 27.695H169.074V60H160.624V27.695ZM181.489 34.65C179.062 34.65 176.96 35.1267 175.184 36.08C173.407 36.99 171.977 38.1167 170.894 39.46C169.81 40.8033 169.052 42.1033 168.619 43.36L168.554 39.785C168.597 39.265 168.77 38.5067 169.074 37.51C169.377 36.47 169.832 35.365 170.439 34.195C171.045 32.9817 171.847 31.8333 172.844 30.75C173.84 29.6233 175.054 28.7133 176.484 28.02C177.914 27.3267 179.582 26.98 181.489 26.98V34.65ZM183.788 27.695H192.758L206.733 58.7L199.453 60L183.788 27.695ZM223.308 27.695L200.948 73H192.173L201.728 55.19L214.273 27.695H223.308ZM21 90.3V143.9H64V155H7.7V90.3H21ZM101.999 156.2C95.7326 156.2 90.1992 155.2 85.3992 153.2C80.6659 151.2 76.9659 148.3 74.2992 144.5C71.6326 140.633 70.2992 135.9 70.2992 130.3C70.2992 124.7 71.6326 119.967 74.2992 116.1C76.9659 112.167 80.6659 109.2 85.3992 107.2C90.1992 105.2 95.7326 104.2 101.999 104.2C108.266 104.2 113.733 105.2 118.399 107.2C123.133 109.2 126.833 112.167 129.499 116.1C132.166 119.967 133.499 124.7 133.499 130.3C133.499 135.9 132.166 140.633 129.499 144.5C126.833 148.3 123.133 151.2 118.399 153.2C113.733 155.2 108.266 156.2 101.999 156.2ZM101.999 146.2C105.466 146.2 108.566 145.6 111.299 144.4C114.099 143.133 116.299 141.333 117.899 139C119.499 136.6 120.299 133.7 120.299 130.3C120.299 126.9 119.499 124 117.899 121.6C116.299 119.133 114.133 117.267 111.399 116C108.666 114.733 105.533 114.1 101.999 114.1C98.5326 114.1 95.3992 114.733 92.5992 116C89.7992 117.267 87.5659 119.1 85.8992 121.5C84.2992 123.9 83.4992 126.833 83.4992 130.3C83.4992 133.7 84.2992 136.6 85.8992 139C87.4992 141.333 89.6992 143.133 92.4992 144.4C95.2992 145.6 98.4659 146.2 101.999 146.2ZM167.309 156.1C162.376 156.1 157.876 155.033 153.809 152.9C149.809 150.7 146.609 147.667 144.209 143.8C141.876 139.867 140.709 135.333 140.709 130.2C140.709 124.933 141.909 120.367 144.309 116.5C146.709 112.633 149.943 109.633 154.009 107.5C158.143 105.3 162.809 104.2 168.009 104.2C173.743 104.2 178.343 105.367 181.809 107.7C185.343 109.967 187.909 113.067 189.509 117C191.109 120.933 191.909 125.333 191.909 130.2C191.909 133.133 191.443 136.133 190.509 139.2C189.576 142.2 188.143 145 186.209 147.6C184.276 150.133 181.743 152.2 178.609 153.8C175.476 155.333 171.709 156.1 167.309 156.1ZM171.509 146.1C175.443 146.1 178.843 145.433 181.709 144.1C184.576 142.767 186.776 140.9 188.309 138.5C189.843 136.1 190.609 133.333 190.609 130.2C190.609 126.8 189.809 123.933 188.209 121.6C186.676 119.2 184.476 117.4 181.609 116.2C178.809 114.933 175.443 114.3 171.509 114.3C165.976 114.3 161.676 115.767 158.609 118.7C155.543 121.567 154.009 125.4 154.009 130.2C154.009 133.4 154.743 136.2 156.209 138.6C157.676 140.933 159.709 142.767 162.309 144.1C164.976 145.433 168.043 146.1 171.509 146.1ZM190.609 105.3H203.609V155H191.509C191.509 155 191.409 154.367 191.209 153.1C191.076 151.767 190.943 150.1 190.809 148.1C190.676 146.1 190.609 144.133 190.609 142.2V105.3ZM215.375 105.3H228.375V155H215.375V105.3ZM251.475 104.2C254.542 104.2 257.375 104.6 259.975 105.4C262.575 106.2 264.842 107.433 266.775 109.1C268.708 110.767 270.208 112.9 271.275 115.5C272.342 118.033 272.875 121.067 272.875 124.6V155H259.875V126.9C259.875 122.7 258.842 119.633 256.775 117.7C254.775 115.7 251.475 114.7 246.875 114.7C243.408 114.7 240.275 115.367 237.475 116.7C234.675 118.033 232.408 119.733 230.675 121.8C228.942 123.8 227.942 125.9 227.675 128.1L227.575 123C227.908 120.667 228.675 118.4 229.875 116.2C231.075 114 232.675 112 234.675 110.2C236.742 108.333 239.175 106.867 241.975 105.8C244.775 104.733 247.942 104.2 251.475 104.2ZM282.711 138.5H294.711C295.444 140.767 296.944 142.633 299.211 144.1C301.544 145.5 304.578 146.2 308.311 146.2C310.844 146.2 312.811 145.967 314.211 145.5C315.611 145.033 316.578 144.367 317.111 143.5C317.644 142.567 317.911 141.533 317.911 140.4C317.911 139 317.478 137.933 316.611 137.2C315.744 136.4 314.411 135.767 312.611 135.3C310.811 134.833 308.511 134.4 305.711 134C302.911 133.533 300.211 132.967 297.611 132.3C295.011 131.633 292.711 130.767 290.711 129.7C288.711 128.567 287.111 127.167 285.911 125.5C284.778 123.767 284.211 121.667 284.211 119.2C284.211 116.8 284.778 114.667 285.911 112.8C287.111 110.933 288.744 109.367 290.811 108.1C292.944 106.833 295.411 105.867 298.211 105.2C301.078 104.533 304.144 104.2 307.411 104.2C312.344 104.2 316.444 104.933 319.711 106.4C322.978 107.8 325.411 109.8 327.011 112.4C328.678 114.933 329.511 117.867 329.511 121.2H318.011C317.478 118.733 316.411 116.967 314.811 115.9C313.211 114.767 310.744 114.2 307.411 114.2C304.144 114.2 301.678 114.7 300.011 115.7C298.344 116.7 297.511 118.067 297.511 119.8C297.511 121.2 298.011 122.3 299.011 123.1C300.078 123.833 301.611 124.433 303.611 124.9C305.678 125.367 308.244 125.867 311.311 126.4C313.911 126.933 316.378 127.533 318.711 128.2C321.111 128.867 323.244 129.733 325.111 130.8C326.978 131.8 328.444 133.167 329.511 134.9C330.644 136.567 331.211 138.7 331.211 141.3C331.211 144.5 330.278 147.2 328.411 149.4C326.611 151.6 324.011 153.3 320.611 154.5C317.211 155.633 313.144 156.2 308.411 156.2C304.211 156.2 300.578 155.767 297.511 154.9C294.511 153.967 292.011 152.8 290.011 151.4C288.011 149.933 286.444 148.4 285.311 146.8C284.244 145.133 283.511 143.567 283.111 142.1C282.711 140.633 282.578 139.433 282.711 138.5Z" fill="#228B22"/>
<path d="M211.675 6.64996L215.196 20.4629C215.436 21.4042 216.284 22.063 217.256 22.063H219.588C220.574 22.063 221.431 21.3846 221.657 20.4247L224.907 6.61179C225.221 5.27787 224.208 4 222.838 4H213.735C212.348 4 211.333 5.30638 211.675 6.64996Z" fill="#FFC00B"/>
<path d="M257.365 30.1904L243.708 34.2778C242.778 34.5563 242.155 35.4305 242.195 36.4012L242.291 38.7316C242.331 39.7169 243.045 40.5448 244.013 40.7309L257.948 43.4088C259.294 43.6674 260.529 42.6035 260.472 41.2343L260.097 32.1386C260.04 30.7533 258.693 29.7928 257.365 30.1904Z" fill="#228B22"/>
<path d="M243.907 3.10557L234.21 18.6196C233.526 19.7142 233.668 21.1329 234.556 22.07L236.644 24.2743C237.545 25.2259 238.982 25.435 240.117 24.7799L255.89 15.6797C257.476 14.7643 257.79 12.6066 256.53 11.2769L248.366 2.65869C247.091 1.31296 244.889 1.53365 243.907 3.10557Z" fill="#FF823B"/>
</g>
<defs>
<clipPath id="clip0_4152_41293">
<rect width="344" height="170" fill="white"/>
</clipPath>
</defs>
</svg>
