<svg width="214" height="43" viewBox="0 0 214 43" fill="none" xmlns="http://www.w3.org/2000/svg">
<path d="M5.31053 21.8838H9.36053C9.44053 22.5638 9.75053 23.1838 10.2905 23.7438C10.8505 24.2838 11.5805 24.7138 12.4805 25.0338C13.3805 25.3338 14.3905 25.4838 15.5105 25.4838C16.5305 25.4838 17.3705 25.3738 18.0305 25.1538C18.6905 24.9338 19.1805 24.6238 19.5005 24.2238C19.8205 23.8238 19.9805 23.3438 19.9805 22.7838C19.9805 22.2438 19.7805 21.8338 19.3805 21.5538C18.9805 21.2538 18.3505 21.0138 17.4905 20.8338C16.6305 20.6338 15.5005 20.4338 14.1005 20.2338C13.0005 20.0738 11.9605 19.8538 10.9805 19.5738C10.0005 19.2738 9.13053 18.8938 8.37053 18.4338C7.63053 17.9738 7.04053 17.4138 6.60053 16.7538C6.18053 16.0738 5.97053 15.2738 5.97053 14.3538C5.97053 13.2138 6.29053 12.2138 6.93053 11.3538C7.59053 10.4938 8.56053 9.82383 9.84053 9.34383C11.1205 8.86383 12.6905 8.62383 14.5505 8.62383C17.3505 8.62383 19.5005 9.22383 21.0005 10.4238C22.5205 11.6038 23.2605 13.2338 23.2205 15.3138H19.3205C19.2405 14.1338 18.7405 13.2838 17.8205 12.7638C16.9205 12.2438 15.7805 11.9838 14.4005 11.9838C13.1205 11.9838 12.0605 12.1738 11.2205 12.5538C10.4005 12.9338 9.99053 13.5838 9.99053 14.5038C9.99053 14.8638 10.0905 15.1838 10.2905 15.4638C10.4905 15.7238 10.8305 15.9538 11.3105 16.1538C11.7905 16.3538 12.4405 16.5438 13.2605 16.7238C14.0805 16.9038 15.1005 17.0838 16.3205 17.2638C17.4605 17.4238 18.4905 17.6438 19.4105 17.9238C20.3505 18.1838 21.1505 18.5338 21.8105 18.9738C22.4905 19.3938 23.0105 19.9338 23.3705 20.5938C23.7305 21.2538 23.9105 22.0638 23.9105 23.0238C23.9105 24.2038 23.6005 25.2338 22.9805 26.1138C22.3805 26.9738 21.4405 27.6438 20.1605 28.1238C18.9005 28.6038 17.2605 28.8438 15.2405 28.8438C13.8005 28.8438 12.5305 28.6938 11.4305 28.3938C10.3305 28.0738 9.38053 27.6538 8.58053 27.1338C7.78053 26.6138 7.13053 26.0438 6.63053 25.4238C6.13053 24.8038 5.77053 24.1838 5.55053 23.5638C5.35053 22.9438 5.27053 22.3838 5.31053 21.8838ZM40.5106 23.4738H44.2906C44.1306 24.4938 43.7006 25.4038 43.0006 26.2038C42.3206 27.0038 41.3906 27.6338 40.2106 28.0938C39.0306 28.5538 37.5906 28.7838 35.8906 28.7838C33.9906 28.7838 32.3106 28.4838 30.8506 27.8838C29.3906 27.2638 28.2506 26.3738 27.4306 25.2138C26.6106 24.0538 26.2006 22.6538 26.2006 21.0138C26.2006 19.3738 26.6006 17.9738 27.4006 16.8138C28.2006 15.6338 29.3106 14.7338 30.7306 14.1138C32.1706 13.4938 33.8506 13.1838 35.7706 13.1838C37.7306 13.1838 39.3606 13.4938 40.6606 14.1138C41.9606 14.7338 42.9206 15.6738 43.5406 16.9338C44.1806 18.1738 44.4506 19.7638 44.3506 21.7038H30.1306C30.2306 22.4638 30.5106 23.1538 30.9706 23.7738C31.4506 24.3938 32.0906 24.8838 32.8906 25.2438C33.7106 25.6038 34.6806 25.7838 35.8006 25.7838C37.0406 25.7838 38.0706 25.5738 38.8906 25.1538C39.7306 24.7138 40.2706 24.1538 40.5106 23.4738ZM35.5906 16.1538C34.1506 16.1538 32.9806 16.4738 32.0806 17.1138C31.1806 17.7338 30.6006 18.5038 30.3406 19.4238H40.4806C40.3806 18.4238 39.9006 17.6338 39.0406 17.0538C38.2006 16.4538 37.0506 16.1538 35.5906 16.1538ZM47.2526 13.5138H51.1526V28.4238H47.2526V13.5138ZM58.0826 13.1838C59.0026 13.1838 59.8526 13.3038 60.6326 13.5438C61.4126 13.7838 62.0926 14.1538 62.6726 14.6538C63.2526 15.1538 63.7026 15.7938 64.0226 16.5738C64.3426 17.3338 64.5026 18.2438 64.5026 19.3038V28.4238H60.6026V19.9938C60.6026 18.7338 60.2926 17.8138 59.6726 17.2338C59.0726 16.6338 58.0826 16.3338 56.7026 16.3338C55.6626 16.3338 54.7226 16.5338 53.8826 16.9338C53.0426 17.3338 52.3626 17.8438 51.8426 18.4638C51.3226 19.0638 51.0226 19.6938 50.9426 20.3538L50.9126 18.8238C51.0126 18.1238 51.2426 17.4438 51.6026 16.7838C51.9626 16.1238 52.4426 15.5238 53.0426 14.9838C53.6626 14.4238 54.3926 13.9838 55.2326 13.6638C56.0726 13.3438 57.0226 13.1838 58.0826 13.1838ZM75.3134 28.7538C73.8134 28.7538 72.4534 28.4338 71.2334 27.7938C70.0334 27.1338 69.0834 26.2238 68.3834 25.0638C67.6834 23.8838 67.3334 22.5238 67.3334 20.9838C67.3334 19.4038 67.6734 18.0338 68.3534 16.8738C69.0534 15.7138 70.0034 14.8138 71.2034 14.1738C72.4034 13.5138 73.7734 13.1838 75.3134 13.1838C76.6534 13.1838 77.7934 13.3838 78.7334 13.7838C79.6734 14.1838 80.4334 14.7438 81.0134 15.4638C81.5934 16.1638 82.0134 16.9838 82.2734 17.9238C82.5534 18.8638 82.6934 19.8838 82.6934 20.9838C82.6934 21.8638 82.5534 22.7638 82.2734 23.6838C81.9934 24.5838 81.5634 25.4238 80.9834 26.2038C80.4034 26.9638 79.6434 27.5838 78.7034 28.0638C77.7634 28.5238 76.6334 28.7538 75.3134 28.7538ZM76.5734 25.7538C77.7534 25.7538 78.7734 25.5538 79.6334 25.1538C80.4934 24.7538 81.1534 24.1938 81.6134 23.4738C82.0734 22.7538 82.3034 21.9238 82.3034 20.9838C82.3034 19.9638 82.0634 19.1038 81.5834 18.4038C81.1234 17.6838 80.4634 17.1338 79.6034 16.7538C78.7634 16.3738 77.7534 16.1838 76.5734 16.1838C74.9134 16.1838 73.6234 16.6238 72.7034 17.5038C71.7834 18.3838 71.3234 19.5438 71.3234 20.9838C71.3234 21.9438 71.5434 22.7838 71.9834 23.5038C72.4234 24.2038 73.0334 24.7538 73.8134 25.1538C74.6134 25.5538 75.5334 25.7538 76.5734 25.7538ZM82.3034 7.51383H86.2034V28.4238H82.5734C82.5134 27.9638 82.4534 27.3738 82.3934 26.6538C82.3334 25.9138 82.3034 25.2238 82.3034 24.5838V7.51383ZM113.243 26.4438H111.353L122.513 9.01383H126.503V28.4238H122.513V14.3238L123.473 14.5938L114.563 28.4238H110.093L101.183 14.6538L102.143 14.3838V28.4238H98.1533V9.01383H102.143L113.243 26.4438ZM139.392 28.7838C137.512 28.7838 135.852 28.4838 134.412 27.8838C132.992 27.2838 131.882 26.4138 131.082 25.2738C130.282 24.1138 129.882 22.6938 129.882 21.0138C129.882 19.3338 130.282 17.9138 131.082 16.7538C131.882 15.5738 132.992 14.6838 134.412 14.0838C135.852 13.4838 137.512 13.1838 139.392 13.1838C141.272 13.1838 142.912 13.4838 144.312 14.0838C145.732 14.6838 146.842 15.5738 147.642 16.7538C148.442 17.9138 148.842 19.3338 148.842 21.0138C148.842 22.6938 148.442 24.1138 147.642 25.2738C146.842 26.4138 145.732 27.2838 144.312 27.8838C142.912 28.4838 141.272 28.7838 139.392 28.7838ZM139.392 25.7838C140.432 25.7838 141.362 25.6038 142.182 25.2438C143.022 24.8638 143.682 24.3238 144.162 23.6238C144.642 22.9038 144.882 22.0338 144.882 21.0138C144.882 19.9938 144.642 19.1238 144.162 18.4038C143.682 17.6638 143.032 17.1038 142.212 16.7238C141.392 16.3438 140.452 16.1538 139.392 16.1538C138.352 16.1538 137.412 16.3438 136.572 16.7238C135.732 17.1038 135.062 17.6538 134.562 18.3738C134.082 19.0938 133.842 19.9738 133.842 21.0138C133.842 22.0338 134.082 22.9038 134.562 23.6238C135.042 24.3238 135.702 24.8638 136.542 25.2438C137.382 25.6038 138.332 25.7838 139.392 25.7838ZM151.725 13.5138H155.625V28.4238H151.725V13.5138ZM162.555 13.1838C163.475 13.1838 164.325 13.3038 165.105 13.5438C165.885 13.7838 166.565 14.1538 167.145 14.6538C167.725 15.1538 168.175 15.7938 168.495 16.5738C168.815 17.3338 168.975 18.2438 168.975 19.3038V28.4238H165.075V19.9938C165.075 18.7338 164.765 17.8138 164.145 17.2338C163.545 16.6338 162.555 16.3338 161.175 16.3338C160.135 16.3338 159.195 16.5338 158.355 16.9338C157.515 17.3338 156.835 17.8438 156.315 18.4638C155.795 19.0638 155.495 19.6938 155.415 20.3538L155.385 18.8238C155.485 18.1238 155.715 17.4438 156.075 16.7838C156.435 16.1238 156.915 15.5238 157.515 14.9838C158.135 14.4238 158.865 13.9838 159.705 13.6638C160.545 13.3438 161.495 13.1838 162.555 13.1838ZM186.116 23.4738H189.896C189.736 24.4938 189.306 25.4038 188.606 26.2038C187.926 27.0038 186.996 27.6338 185.816 28.0938C184.636 28.5538 183.196 28.7838 181.496 28.7838C179.596 28.7838 177.916 28.4838 176.456 27.8838C174.996 27.2638 173.856 26.3738 173.036 25.2138C172.216 24.0538 171.806 22.6538 171.806 21.0138C171.806 19.3738 172.206 17.9738 173.006 16.8138C173.806 15.6338 174.916 14.7338 176.336 14.1138C177.776 13.4938 179.456 13.1838 181.376 13.1838C183.336 13.1838 184.966 13.4938 186.266 14.1138C187.566 14.7338 188.526 15.6738 189.146 16.9338C189.786 18.1738 190.056 19.7638 189.956 21.7038H175.736C175.836 22.4638 176.116 23.1538 176.576 23.7738C177.056 24.3938 177.696 24.8838 178.496 25.2438C179.316 25.6038 180.286 25.7838 181.406 25.7838C182.646 25.7838 183.676 25.5738 184.496 25.1538C185.336 24.7138 185.876 24.1538 186.116 23.4738ZM181.196 16.1538C179.756 16.1538 178.586 16.4738 177.686 17.1138C176.786 17.7338 176.206 18.5038 175.946 19.4238H186.086C185.986 18.4238 185.506 17.6338 184.646 17.0538C183.806 16.4538 182.656 16.1538 181.196 16.1538ZM190.922 13.5138H195.062L201.512 27.8238L198.152 28.4238L190.922 13.5138ZM209.162 13.5138L198.842 34.4238H194.792L199.202 26.2038L204.992 13.5138H209.162Z" fill="white"/>
<path d="M4.93848 41.3906L86.9053 41.8262" stroke="url(#paint0_linear_5363_55284)" stroke-linecap="round"/>
<defs>
<linearGradient id="paint0_linear_5363_55284" x1="1.37133" y1="42.1084" x2="89.1361" y2="42.3262" gradientUnits="userSpaceOnUse">
<stop stop-color="white"/>
<stop offset="1" stop-color="white" stop-opacity="0"/>
</linearGradient>
</defs>
</svg>
