<svg width="35" height="35" viewBox="0 0 35 35" fill="none" xmlns="http://www.w3.org/2000/svg">
<circle cx="17.2872" cy="17.6036" r="17.0685" fill="#F2FCF2"/>
<g clip-path="url(#clip0_4582_46004)">
<path d="M13.4932 15.6327V11.7089C13.4932 9.35466 15.0627 7.78516 17.417 7.78516C19.7712 7.78516 21.3407 9.35466 21.3407 11.7089V15.6327M17.417 18.7716V21.9106M17.417 25.0496C18.8739 25.0496 20.2711 24.4709 21.3013 23.4407C22.3314 22.4105 22.9102 21.0133 22.9102 19.5564C22.9102 18.0995 22.3314 16.7023 21.3013 15.6721C20.2711 14.6419 18.8739 14.0632 17.417 14.0632C15.9601 14.0632 14.5628 14.6419 13.5326 15.6721C12.5025 16.7023 11.9237 18.0995 11.9237 19.5564C11.9237 21.0133 12.5025 22.4105 13.5326 23.4407C14.5628 24.4709 15.9601 25.0496 17.417 25.0496ZM17.417 19.5564C17.6251 19.5564 17.8247 19.4737 17.9719 19.3265C18.119 19.1794 18.2017 18.9798 18.2017 18.7716C18.2017 18.5635 18.119 18.3639 17.9719 18.2167C17.8247 18.0696 17.6251 17.9869 17.417 17.9869C17.2088 17.9869 17.0092 18.0696 16.8621 18.2167C16.7149 18.3639 16.6322 18.5635 16.6322 18.7716C16.6322 18.9798 16.7149 19.1794 16.8621 19.3265C17.0092 19.4737 17.2088 19.5564 17.417 19.5564Z" stroke="#23A323" stroke-width="1.5695"/>
</g>
<defs>
<clipPath id="clip0_4582_46004">
<rect width="18.834" height="18.834" fill="white" transform="translate(8 7)"/>
</clipPath>
</defs>
</svg>
