<svg width="673" height="88" viewBox="0 0 673 88" fill="none" xmlns="http://www.w3.org/2000/svg">
<path d="M27.4096 61.7917C23.8129 61.7917 20.5629 61.3151 17.6596 60.3617C14.7562 59.4084 12.2646 58.0217 10.1846 56.2017C8.1479 54.3384 6.56624 52.0634 5.43957 49.3767C4.35624 46.6901 3.81457 43.6567 3.81457 40.2767C3.81457 36.8534 4.39957 33.7767 5.56957 31.0467C6.73957 28.3167 8.4079 25.9984 10.5746 24.0917C12.7412 22.1417 15.3196 20.6684 18.3096 19.6717C21.2996 18.6317 24.5929 18.1117 28.1896 18.1117C32.3929 18.1117 36.0329 18.7617 39.1096 20.0617C42.1862 21.3617 44.6346 23.1817 46.4546 25.5217C48.2746 27.8184 49.3146 30.5484 49.5746 33.7117H42.7496C42.1862 31.8484 41.2546 30.2451 39.9546 28.9017C38.6979 27.5584 37.0729 26.5184 35.0796 25.7817C33.1296 25.0017 30.8329 24.6117 28.1896 24.6117C24.7229 24.6117 21.7112 25.2834 19.1546 26.6267C16.6412 27.9267 14.7129 29.7684 13.3696 32.1517C12.0262 34.4917 11.3546 37.2001 11.3546 40.2767C11.3546 43.3534 11.9396 46.0184 13.1096 48.2717C14.3229 50.4817 16.1429 52.2151 18.5696 53.4717C20.9962 54.6851 24.0079 55.2917 27.6046 55.2917C30.3779 55.2917 32.8046 54.8801 34.8846 54.0567C37.0079 53.1901 38.7629 51.9984 40.1496 50.4817C41.5362 48.9651 42.5112 47.2101 43.0746 45.2167L46.3896 44.4367C45.7829 50.0267 43.7896 54.3167 40.4096 57.3067C37.0729 60.2967 32.7396 61.7917 27.4096 61.7917ZM44.6346 61.0117C44.6346 59.6251 44.6996 58.0651 44.8296 56.3317C44.9596 54.5551 45.1112 52.7567 45.2846 50.9367C45.5012 49.0734 45.6962 47.4051 45.8696 45.9317H28.4496V40.6017H51.1996V61.0117H44.6346ZM86.2848 50.3517H93.2398C92.8932 52.5617 92.0265 54.5334 90.6398 56.2667C89.2965 57.9567 87.4548 59.3001 85.1148 60.2967C82.7748 61.2501 79.9798 61.7267 76.7298 61.7267C73.0465 61.7267 69.7532 61.0551 66.8498 59.7117C63.9465 58.3251 61.6715 56.3751 60.0248 53.8617C58.3782 51.3484 57.5548 48.3584 57.5548 44.8917C57.5548 41.4684 58.3565 38.4784 59.9598 35.9217C61.5632 33.3651 63.7732 31.3934 66.5898 30.0067C69.4498 28.6201 72.7432 27.9267 76.4698 27.9267C80.3265 27.9267 83.5332 28.6201 86.0898 30.0067C88.6898 31.3501 90.6182 33.3867 91.8748 36.1167C93.1315 38.8034 93.6515 42.2051 93.4348 46.3217H64.8998C65.1165 48.1417 65.7015 49.7884 66.6548 51.2617C67.6515 52.6917 68.9948 53.8184 70.6848 54.6417C72.3748 55.4217 74.3465 55.8117 76.5998 55.8117C79.1132 55.8117 81.2148 55.3134 82.9048 54.3167C84.6382 53.3201 85.7648 51.9984 86.2848 50.3517ZM76.2748 33.7767C73.3282 33.7767 70.9015 34.5134 68.9948 35.9867C67.0882 37.4167 65.8532 39.2584 65.2898 41.5117H86.1548C85.9815 39.0851 85.0065 37.2001 83.2298 35.8567C81.4532 34.4701 79.1348 33.7767 76.2748 33.7767ZM97.087 28.6417H119.967V34.5567H97.087V28.6417ZM104.887 19.9317H112.167V61.0117H104.887V19.9317ZM123.366 28.6417H146.246V34.5567H123.366V28.6417ZM131.166 19.9317H138.446V61.0117H131.166V19.9317ZM160.371 14.9267V21.8817H151.726V14.9267H160.371ZM152.376 28.6417H159.656V61.0117H152.376V28.6417ZM168.298 28.6417H175.513V61.0117H168.298V28.6417ZM189.163 27.9267C191.026 27.9267 192.738 28.1867 194.298 28.7067C195.901 29.2267 197.266 30.0284 198.393 31.1117C199.563 32.1517 200.451 33.4517 201.058 35.0117C201.708 36.5717 202.033 38.4134 202.033 40.5367V61.0117H194.818V41.9667C194.818 39.3234 194.168 37.3734 192.868 36.1167C191.611 34.8167 189.618 34.1667 186.888 34.1667C184.808 34.1667 182.901 34.6217 181.168 35.5317C179.478 36.3984 178.091 37.5467 177.008 38.9767C175.924 40.3634 175.296 41.9017 175.123 43.5917L175.058 40.0817C175.274 38.4784 175.751 36.9617 176.488 35.5317C177.224 34.0584 178.199 32.7584 179.413 31.6317C180.626 30.4617 182.056 29.5517 183.703 28.9017C185.349 28.2517 187.169 27.9267 189.163 27.9267ZM224.432 56.0067C221.398 56.0067 218.647 55.4651 216.177 54.3817C213.75 53.2984 211.822 51.7167 210.392 49.6367C209.005 47.5567 208.312 45.0651 208.312 42.1617C208.312 39.2584 208.983 36.7451 210.327 34.6217C211.713 32.4984 213.62 30.8517 216.047 29.6817C218.517 28.5117 221.312 27.9267 224.432 27.9267C225.342 27.9267 226.208 27.9917 227.032 28.1217C227.898 28.2517 228.722 28.4251 229.502 28.6417L244.647 28.7067V34.7517C242.567 34.7951 240.465 34.5134 238.342 33.9067C236.262 33.2567 234.42 32.5851 232.817 31.8917L232.622 31.5017C234.095 32.2384 235.417 33.1484 236.587 34.2317C237.8 35.2717 238.753 36.4634 239.447 37.8067C240.14 39.1501 240.487 40.6667 240.487 42.3567C240.487 45.2167 239.793 47.6651 238.407 49.7017C237.063 51.7384 235.178 53.2984 232.752 54.3817C230.368 55.4651 227.595 56.0067 224.432 56.0067ZM234.832 74.2067V72.7117C234.832 70.5884 234.203 69.0934 232.947 68.2267C231.69 67.3601 229.935 66.9267 227.682 66.9267H218.907C217.173 66.9267 215.678 66.7751 214.422 66.4717C213.208 66.2117 212.233 65.8001 211.497 65.2367C210.76 64.7167 210.218 64.0884 209.872 63.3517C209.525 62.6584 209.352 61.8784 209.352 61.0117C209.352 59.2784 209.872 57.9784 210.912 57.1117C211.995 56.2451 213.403 55.6817 215.137 55.4217C216.913 55.1617 218.777 55.1184 220.727 55.2917L224.432 56.0067C221.875 56.0934 219.925 56.3317 218.582 56.7217C217.282 57.0684 216.632 57.7834 216.632 58.8667C216.632 59.5167 216.892 60.0367 217.412 60.4267C217.932 60.8167 218.668 61.0117 219.622 61.0117H228.852C231.495 61.0117 233.813 61.3151 235.807 61.9217C237.8 62.5717 239.338 63.6334 240.422 65.1067C241.548 66.6234 242.112 68.6817 242.112 71.2817V74.2067H234.832ZM224.432 50.3517C226.165 50.3517 227.703 50.0267 229.047 49.3767C230.39 48.7267 231.452 47.7951 232.232 46.5817C233.012 45.3684 233.402 43.8951 233.402 42.1617C233.402 40.4284 233.012 38.9334 232.232 37.6767C231.452 36.4201 230.39 35.4667 229.047 34.8167C227.703 34.1667 226.165 33.8417 224.432 33.8417C222.742 33.8417 221.203 34.1667 219.817 34.8167C218.473 35.4667 217.412 36.4201 216.632 37.6767C215.852 38.8901 215.462 40.3851 215.462 42.1617C215.462 43.8951 215.852 45.3684 216.632 46.5817C217.412 47.7951 218.473 48.7267 219.817 49.3767C221.16 50.0267 222.698 50.3517 224.432 50.3517Z" fill="#041004"/>
<path d="M263.987 50.3517H270.682C271.028 51.9984 271.917 53.3417 273.347 54.3817C274.777 55.3784 276.705 55.8767 279.132 55.8767C280.692 55.8767 281.905 55.7034 282.772 55.3567C283.682 55.0101 284.31 54.5334 284.657 53.9267C285.047 53.3201 285.242 52.6267 285.242 51.8467C285.242 50.8934 284.96 50.1567 284.397 49.6367C283.877 49.1167 283.097 48.6834 282.057 48.3367C281.017 47.9901 279.717 47.6867 278.157 47.4267C276.553 47.0367 274.972 46.6034 273.412 46.1267C271.852 45.6501 270.443 45.0651 269.187 44.3717C267.93 43.6351 266.933 42.7251 266.197 41.6417C265.503 40.5151 265.157 39.1501 265.157 37.5467C265.157 36.0734 265.482 34.7517 266.132 33.5817C266.825 32.3684 267.778 31.3501 268.992 30.5267C270.205 29.7034 271.635 29.075 273.282 28.6417C274.928 28.1651 276.727 27.9267 278.677 27.9267C281.493 27.9267 283.833 28.3817 285.697 29.2917C287.603 30.2017 289.033 31.4801 289.987 33.1267C290.983 34.7734 291.482 36.6584 291.482 38.7817H285.112C284.765 37.0484 284.093 35.7917 283.097 35.0117C282.1 34.2317 280.605 33.8417 278.612 33.8417C276.618 33.8417 275.102 34.1884 274.062 34.8817C273.022 35.5751 272.502 36.5284 272.502 37.7417C272.502 38.6517 272.827 39.3884 273.477 39.9517C274.17 40.4717 275.145 40.9267 276.402 41.3167C277.658 41.7067 279.132 42.0967 280.822 42.4867C282.382 42.9201 283.855 43.3751 285.242 43.8517C286.628 44.2851 287.863 44.8484 288.947 45.5417C290.073 46.1917 290.962 47.0584 291.612 48.1417C292.262 49.2251 292.587 50.5684 292.587 52.1717C292.587 54.1651 292.045 55.8767 290.962 57.3067C289.922 58.7367 288.405 59.8417 286.412 60.6217C284.418 61.3584 282.013 61.7267 279.197 61.7267C276.727 61.7267 274.582 61.4451 272.762 60.8817C270.985 60.3184 269.49 59.5817 268.277 58.6717C267.107 57.7617 266.197 56.7867 265.547 55.7467C264.897 54.7067 264.442 53.7101 264.182 52.7567C263.965 51.8034 263.9 51.0017 263.987 50.3517ZM296.848 28.6417H319.728V34.5567H296.848V28.6417ZM304.648 19.9317H311.928V61.0117H304.648V19.9317ZM339.324 61.7267C336.378 61.7267 333.669 61.0117 331.199 59.5817C328.773 58.1517 326.823 56.1801 325.349 53.6667C323.919 51.1101 323.204 48.1851 323.204 44.8917C323.204 41.5117 323.941 38.5651 325.414 36.0517C326.888 33.4951 328.881 31.5017 331.394 30.0717C333.908 28.6417 336.724 27.9267 339.844 27.9267C343.311 27.9267 346.063 28.6851 348.099 30.2017C350.136 31.7184 351.588 33.7551 352.454 36.3117C353.321 38.8684 353.754 41.7284 353.754 44.8917C353.754 46.6684 353.494 48.5534 352.974 50.5467C352.454 52.4967 351.631 54.3167 350.504 56.0067C349.421 57.6967 347.948 59.0834 346.084 60.1667C344.264 61.2067 342.011 61.7267 339.324 61.7267ZM341.534 55.7467C343.961 55.7467 346.019 55.2917 347.709 54.3817C349.443 53.4284 350.743 52.1284 351.609 50.4817C352.519 48.8351 352.974 46.9717 352.974 44.8917C352.974 42.5951 352.519 40.6451 351.609 39.0417C350.699 37.3951 349.399 36.1384 347.709 35.2717C346.019 34.3617 343.961 33.9067 341.534 33.9067C338.068 33.9067 335.381 34.9251 333.474 36.9617C331.568 38.9984 330.614 41.6417 330.614 44.8917C330.614 47.0151 331.069 48.9001 331.979 50.5467C332.933 52.1934 334.233 53.4717 335.879 54.3817C337.526 55.2917 339.411 55.7467 341.534 55.7467ZM352.974 28.6417H360.254V61.0117H353.494C353.494 61.0117 353.451 60.6001 353.364 59.7767C353.278 58.9534 353.191 57.9567 353.104 56.7867C353.018 55.5734 352.974 54.4251 352.974 53.3417V28.6417ZM368.185 28.6417H375.4V61.0117H368.185V28.6417ZM387.1 34.8167C384.76 34.8167 382.745 35.3151 381.055 36.3117C379.409 37.3084 378.087 38.5217 377.09 39.9517C376.094 41.3817 375.4 42.7684 375.01 44.1117L374.945 40.4717C374.989 39.9951 375.14 39.2801 375.4 38.3267C375.66 37.3301 376.05 36.2467 376.57 35.0767C377.134 33.9067 377.87 32.7801 378.78 31.6967C379.734 30.5701 380.882 29.6601 382.225 28.9667C383.612 28.2734 385.237 27.9267 387.1 27.9267V34.8167ZM390.412 28.6417H413.292V34.5567H390.412V28.6417ZM398.212 19.9317H405.492V61.0117H398.212V19.9317ZM445.499 50.3517H452.454C452.107 52.5617 451.24 54.5334 449.854 56.2667C448.51 57.9567 446.669 59.3001 444.329 60.2967C441.989 61.2501 439.194 61.7267 435.944 61.7267C432.26 61.7267 428.967 61.0551 426.064 59.7117C423.16 58.3251 420.885 56.3751 419.239 53.8617C417.592 51.3484 416.769 48.3584 416.769 44.8917C416.769 41.4684 417.57 38.4784 419.174 35.9217C420.777 33.3651 422.987 31.3934 425.804 30.0067C428.664 28.6201 431.957 27.9267 435.684 27.9267C439.54 27.9267 442.747 28.6201 445.304 30.0067C447.904 31.3501 449.832 33.3867 451.089 36.1167C452.345 38.8034 452.865 42.2051 452.649 46.3217H424.114C424.33 48.1417 424.915 49.7884 425.869 51.2617C426.865 52.6917 428.209 53.8184 429.899 54.6417C431.589 55.4217 433.56 55.8117 435.814 55.8117C438.327 55.8117 440.429 55.3134 442.119 54.3167C443.852 53.3201 444.979 51.9984 445.499 50.3517ZM435.489 33.7767C432.542 33.7767 430.115 34.5134 428.209 35.9867C426.302 37.4167 425.067 39.2584 424.504 41.5117H445.369C445.195 39.0851 444.22 37.2001 442.444 35.8567C440.667 34.4701 438.349 33.7767 435.489 33.7767ZM473.514 61.7267C470.524 61.7267 467.794 61.0117 465.324 59.5817C462.897 58.1517 460.969 56.1801 459.539 53.6667C458.109 51.1101 457.394 48.1851 457.394 44.8917C457.394 41.5117 458.087 38.5651 459.474 36.0517C460.904 33.4951 462.81 31.5017 465.194 30.0717C467.62 28.6417 470.394 27.9267 473.514 27.9267C476.244 27.9267 478.54 28.3817 480.404 29.2917C482.267 30.1584 483.74 31.3717 484.824 32.9317C485.907 34.4484 486.687 36.2251 487.164 38.2617C487.684 40.2984 487.944 42.5084 487.944 44.8917C487.944 46.6684 487.684 48.5534 487.164 50.5467C486.644 52.4967 485.82 54.3167 484.694 56.0067C483.61 57.6967 482.137 59.0834 480.274 60.1667C478.454 61.2067 476.2 61.7267 473.514 61.7267ZM475.724 55.7467C478.15 55.7467 480.209 55.2917 481.899 54.3817C483.632 53.4284 484.932 52.1284 485.799 50.4817C486.709 48.8351 487.164 46.9717 487.164 44.8917C487.164 42.5951 486.709 40.6451 485.799 39.0417C484.889 37.3951 483.589 36.1167 481.899 35.2067C480.209 34.2967 478.15 33.8417 475.724 33.8417C472.257 33.8417 469.57 34.8817 467.664 36.9617C465.757 38.9984 464.804 41.6417 464.804 44.8917C464.804 47.0151 465.259 48.9001 466.169 50.5467C467.122 52.1934 468.422 53.4717 470.069 54.3817C471.715 55.2917 473.6 55.7467 475.724 55.7467ZM487.164 15.6417H494.444V61.0117H487.684C487.597 60.0151 487.489 58.7801 487.359 57.3067C487.229 55.8334 487.164 54.5117 487.164 53.3417V15.6417ZM513.784 47.9467V36.9617H516.774C520.284 36.9617 522.863 36.2684 524.509 34.8817C526.199 33.4951 527.044 31.5451 527.044 29.0317C527.044 26.6051 526.264 24.72 524.704 23.3767C523.188 22.0334 521.173 21.3617 518.659 21.3617C516.926 21.3617 515.431 21.6651 514.174 22.2717C512.961 22.8784 512.029 23.7234 511.379 24.8067C510.729 25.8467 510.404 27.0384 510.404 28.3817H503.189C503.146 27.0817 503.319 25.7817 503.709 24.4817C504.143 23.1817 504.771 21.9467 505.594 20.7767C506.461 19.6067 507.523 18.5884 508.779 17.7217C510.036 16.855 511.509 16.1834 513.199 15.7067C514.889 15.1867 516.796 14.9267 518.919 14.9267C521.476 14.9267 523.708 15.2734 525.614 15.9667C527.564 16.66 529.189 17.6351 530.489 18.8917C531.789 20.1484 532.764 21.6217 533.414 23.3117C534.108 25.0017 534.454 26.8651 534.454 28.9017C534.454 31.6317 533.848 33.9717 532.634 35.9217C531.421 37.8284 529.796 39.3017 527.759 40.3417C525.723 41.3817 523.448 42.0101 520.934 42.2267V47.9467H513.784ZM513.134 61.0117V53.9917H521.779V61.0117H513.134Z" fill="#23A323"/>
<circle cx="573.414" cy="44.0035" r="10.0914" fill="#2D79FD"/>
<circle cx="603.037" cy="44.0035" r="10.0914" fill="#FFBD00"/>
<circle cx="632.659" cy="44.0035" r="10.0914" fill="#FF823B"/>
<circle cx="662.282" cy="44.0035" r="10.0914" fill="#23A323"/>
</svg>
