<svg width="40" height="13" viewBox="0 0 40 13" fill="none" xmlns="http://www.w3.org/2000/svg">
<path d="M6.71239 0.185547L8.11615 4.50587H12.6588L8.98372 7.17597L10.3875 11.4963L6.71239 8.82619L3.0373 11.4963L4.44106 7.17597L0.765976 4.50587H5.30863L6.71239 0.185547Z" fill="#FFC727"/>
<path d="M20.1108 0.185547L21.5146 4.50587H26.0572L22.3822 7.17597L23.7859 11.4963L20.1108 8.82619L16.4357 11.4963L17.8395 7.17597L14.1644 4.50587H18.7071L20.1108 0.185547Z" fill="#FFC727"/>
<path d="M33.5083 0.185547L34.912 4.50587H39.4547L35.7796 7.17597L37.1834 11.4963L33.5083 8.82619L29.8332 11.4963L31.237 7.17597L27.5619 4.50587H32.1045L33.5083 0.185547Z" fill="#FFC727"/>
</svg>
