<svg width="767" height="174" viewBox="0 0 767 174" fill="none" xmlns="http://www.w3.org/2000/svg">
<path d="M574.083 114.866L585.67 98.4395" stroke="white" stroke-width="1.5" stroke-linecap="round"/>
<path d="M582.795 126.488L601.293 119.589" stroke="white" stroke-width="1.5" stroke-linecap="round"/>
<path d="M579.188 120.238L600.566 103.698" stroke="white" stroke-width="2" stroke-linecap="round"/>
<path d="M158 165.874C223.334 154.874 401.095 137.374 589.468 155.374" stroke="#FFBD00" stroke-width="5" stroke-linecap="round"/>
<path d="M158.099 160.201C225.493 151.173 406.306 139.001 590.407 162.536" stroke="#FFBD00" stroke-width="5" stroke-linecap="round"/>
<path d="M28.5927 76.245V70.14H52.1327V76.245H28.5927ZM19.7377 84L36.4577 48.415H44.3777L61.2627 84H53.2877L38.6577 51.935H42.1777L27.6577 84H19.7377ZM66.0512 45.665H73.2012V84H66.0512V45.665ZM116.073 79.05L113.818 78.995L122.728 56.665H130.593L118.548 84H111.838L103.038 61.945H105.458L96.3828 84H89.6728L77.9578 56.665H85.8228L94.4028 79.05H92.1478L100.178 56.665H108.373L116.073 79.05ZM146.863 84.605C144.15 84.605 141.675 84.0183 139.438 82.845C137.238 81.635 135.478 79.9667 134.158 77.84C132.875 75.6767 132.233 73.1833 132.233 70.36C132.233 67.4633 132.893 64.9517 134.213 62.825C135.533 60.6983 137.311 59.0483 139.548 57.875C141.821 56.665 144.388 56.06 147.248 56.06C150.401 56.06 152.931 56.7017 154.838 57.985C156.781 59.2317 158.193 60.9367 159.073 63.1C159.953 65.2633 160.393 67.6833 160.393 70.36C160.393 71.9733 160.136 73.6233 159.623 75.31C159.11 76.96 158.321 78.5 157.258 79.93C156.195 81.3233 154.801 82.46 153.078 83.34C151.355 84.1833 149.283 84.605 146.863 84.605ZM149.173 79.105C151.336 79.105 153.206 78.7383 154.783 78.005C156.36 77.2717 157.57 76.245 158.413 74.925C159.256 73.605 159.678 72.0833 159.678 70.36C159.678 68.49 159.238 66.9133 158.358 65.63C157.515 64.31 156.305 63.32 154.728 62.66C153.188 61.9633 151.336 61.615 149.173 61.615C146.13 61.615 143.765 62.4217 142.078 64.035C140.391 65.6117 139.548 67.72 139.548 70.36C139.548 72.12 139.951 73.66 140.758 74.98C141.565 76.2633 142.683 77.2717 144.113 78.005C145.58 78.7383 147.266 79.105 149.173 79.105ZM159.678 56.665H166.828V84H160.173C160.173 84 160.118 83.6517 160.008 82.955C159.935 82.2217 159.861 81.305 159.788 80.205C159.715 79.105 159.678 78.0233 159.678 76.96V56.665ZM170.824 56.665H178.414L190.239 82.9L184.079 84L170.824 56.665ZM204.264 56.665L185.344 95H177.919L186.004 79.93L196.619 56.665H204.264ZM206.305 74.925H212.905C213.309 76.1717 214.134 77.1983 215.38 78.005C216.664 78.775 218.332 79.16 220.385 79.16C221.779 79.16 222.86 79.0317 223.63 78.775C224.4 78.5183 224.932 78.1517 225.225 77.675C225.519 77.1617 225.665 76.5933 225.665 75.97C225.665 75.2 225.427 74.6133 224.95 74.21C224.474 73.77 223.74 73.4217 222.75 73.165C221.76 72.9083 220.495 72.67 218.955 72.45C217.415 72.1933 215.93 71.8817 214.5 71.515C213.07 71.1483 211.805 70.6717 210.705 70.085C209.605 69.4617 208.725 68.6917 208.065 67.775C207.442 66.8217 207.13 65.6667 207.13 64.31C207.13 62.99 207.442 61.8167 208.065 60.79C208.725 59.7633 209.624 58.9017 210.76 58.205C211.934 57.5083 213.29 56.9767 214.83 56.61C216.407 56.2433 218.094 56.06 219.89 56.06C222.604 56.06 224.859 56.4633 226.655 57.27C228.452 58.04 229.79 59.14 230.67 60.57C231.587 61.9633 232.045 63.5767 232.045 65.41H225.72C225.427 64.0533 224.84 63.0817 223.96 62.495C223.08 61.8717 221.724 61.56 219.89 61.56C218.094 61.56 216.737 61.835 215.82 62.385C214.904 62.935 214.445 63.6867 214.445 64.64C214.445 65.41 214.72 66.015 215.27 66.455C215.857 66.8583 216.7 67.1883 217.8 67.445C218.937 67.7017 220.349 67.9767 222.035 68.27C223.465 68.5633 224.822 68.8933 226.105 69.26C227.425 69.6267 228.599 70.1033 229.625 70.69C230.652 71.24 231.459 71.9917 232.045 72.945C232.669 73.8617 232.98 75.035 232.98 76.465C232.98 78.225 232.467 79.71 231.44 80.92C230.45 82.13 229.02 83.065 227.15 83.725C225.28 84.3483 223.044 84.66 220.44 84.66C218.13 84.66 216.132 84.4217 214.445 83.945C212.795 83.4317 211.42 82.79 210.32 82.02C209.22 81.2133 208.359 80.37 207.735 79.49C207.149 78.5733 206.745 77.7117 206.525 76.905C206.305 76.0983 206.232 75.4383 206.305 74.925ZM250.617 74.925H257.217C257.62 76.1717 258.445 77.1983 259.692 78.005C260.975 78.775 262.644 79.16 264.697 79.16C266.09 79.16 267.172 79.0317 267.942 78.775C268.712 78.5183 269.244 78.1517 269.537 77.675C269.83 77.1617 269.977 76.5933 269.977 75.97C269.977 75.2 269.739 74.6133 269.262 74.21C268.785 73.77 268.052 73.4217 267.062 73.165C266.072 72.9083 264.807 72.67 263.267 72.45C261.727 72.1933 260.242 71.8817 258.812 71.515C257.382 71.1483 256.117 70.6717 255.017 70.085C253.917 69.4617 253.037 68.6917 252.377 67.775C251.754 66.8217 251.442 65.6667 251.442 64.31C251.442 62.99 251.754 61.8167 252.377 60.79C253.037 59.7633 253.935 58.9017 255.072 58.205C256.245 57.5083 257.602 56.9767 259.142 56.61C260.719 56.2433 262.405 56.06 264.202 56.06C266.915 56.06 269.17 56.4633 270.967 57.27C272.764 58.04 274.102 59.14 274.982 60.57C275.899 61.9633 276.357 63.5767 276.357 65.41H270.032C269.739 64.0533 269.152 63.0817 268.272 62.495C267.392 61.8717 266.035 61.56 264.202 61.56C262.405 61.56 261.049 61.835 260.132 62.385C259.215 62.935 258.757 63.6867 258.757 64.64C258.757 65.41 259.032 66.015 259.582 66.455C260.169 66.8583 261.012 67.1883 262.112 67.445C263.249 67.7017 264.66 67.9767 266.347 68.27C267.777 68.5633 269.134 68.8933 270.417 69.26C271.737 69.6267 272.91 70.1033 273.937 70.69C274.964 71.24 275.77 71.9917 276.357 72.945C276.98 73.8617 277.292 75.035 277.292 76.465C277.292 78.225 276.779 79.71 275.752 80.92C274.762 82.13 273.332 83.065 271.462 83.725C269.592 84.3483 267.355 84.66 264.752 84.66C262.442 84.66 260.444 84.4217 258.757 83.945C257.107 83.4317 255.732 82.79 254.632 82.02C253.532 81.2133 252.67 80.37 252.047 79.49C251.46 78.5733 251.057 77.7117 250.837 76.905C250.617 76.0983 250.544 75.4383 250.617 74.925ZM280.837 56.665H302.067V62.22H280.837V56.665ZM287.877 49.185H295.027V84H287.877V49.185ZM319.544 84.605C316.83 84.605 314.355 84.0183 312.119 82.845C309.919 81.635 308.159 79.9667 306.839 77.84C305.555 75.6767 304.914 73.1833 304.914 70.36C304.914 67.4633 305.574 64.9517 306.894 62.825C308.214 60.6983 309.992 59.0483 312.229 57.875C314.502 56.665 317.069 56.06 319.929 56.06C323.082 56.06 325.612 56.7017 327.519 57.985C329.462 59.2317 330.874 60.9367 331.754 63.1C332.634 65.2633 333.074 67.6833 333.074 70.36C333.074 71.9733 332.817 73.6233 332.304 75.31C331.79 76.96 331.002 78.5 329.939 79.93C328.875 81.3233 327.482 82.46 325.759 83.34C324.035 84.1833 321.964 84.605 319.544 84.605ZM321.854 79.105C324.017 79.105 325.887 78.7383 327.464 78.005C329.04 77.2717 330.25 76.245 331.094 74.925C331.937 73.605 332.359 72.0833 332.359 70.36C332.359 68.49 331.919 66.9133 331.039 65.63C330.195 64.31 328.985 63.32 327.409 62.66C325.869 61.9633 324.017 61.615 321.854 61.615C318.81 61.615 316.445 62.4217 314.759 64.035C313.072 65.6117 312.229 67.72 312.229 70.36C312.229 72.12 312.632 73.66 313.439 74.98C314.245 76.2633 315.364 77.2717 316.794 78.005C318.26 78.7383 319.947 79.105 321.854 79.105ZM332.359 56.665H339.509V84H332.854C332.854 84 332.799 83.6517 332.689 82.955C332.615 82.2217 332.542 81.305 332.469 80.205C332.395 79.105 332.359 78.0233 332.359 76.96V56.665ZM343.505 56.665H351.095L362.92 82.9L356.76 84L343.505 56.665ZM376.945 56.665L358.025 95H350.6L358.685 79.93L369.3 56.665H376.945ZM392.448 57.16H414.448V62.605H392.448V57.16ZM409.168 45.665H414.833V51.44H410.873C409.81 51.4033 408.893 51.5133 408.123 51.77C407.353 52.0267 406.767 52.5033 406.363 53.2C405.96 53.86 405.758 54.8133 405.758 56.06V84H398.608V55.18C398.608 52.98 399.012 51.1833 399.818 49.79C400.625 48.36 401.817 47.315 403.393 46.655C404.97 45.995 406.895 45.665 409.168 45.665ZM450.544 84H443.394V56.665H450.544V84ZM443.779 70.855L443.834 72.725C443.761 73.2383 443.577 73.99 443.284 74.98C442.991 75.9333 442.532 76.96 441.909 78.06C441.322 79.16 440.552 80.2233 439.599 81.25C438.646 82.24 437.472 83.065 436.079 83.725C434.686 84.3483 433.036 84.66 431.129 84.66C429.626 84.66 428.141 84.4767 426.674 84.11C425.244 83.7433 423.942 83.1383 422.769 82.295C421.596 81.415 420.661 80.2417 419.964 78.775C419.267 77.3083 418.919 75.4567 418.919 73.22V56.665H426.069V72.01C426.069 73.77 426.344 75.1633 426.894 76.19C427.481 77.18 428.324 77.8767 429.424 78.28C430.524 78.6833 431.826 78.885 433.329 78.885C435.309 78.885 437.014 78.4633 438.444 77.62C439.874 76.74 441.029 75.6767 441.909 74.43C442.826 73.1833 443.449 71.9917 443.779 70.855ZM457.054 56.665H464.204V84H457.054V56.665ZM476.909 56.06C478.596 56.06 480.154 56.28 481.584 56.72C483.014 57.16 484.261 57.8383 485.324 58.755C486.387 59.6717 487.212 60.845 487.799 62.275C488.386 63.6683 488.679 65.3367 488.679 67.28V84H481.529V68.545C481.529 66.235 480.961 64.5483 479.824 63.485C478.724 62.385 476.909 61.835 474.379 61.835C472.472 61.835 470.749 62.2017 469.209 62.935C467.669 63.6683 466.422 64.6033 465.469 65.74C464.516 66.84 463.966 67.995 463.819 69.205L463.764 66.4C463.947 65.1167 464.369 63.87 465.029 62.66C465.689 61.45 466.569 60.35 467.669 59.36C468.806 58.3333 470.144 57.5267 471.684 56.94C473.224 56.3533 474.966 56.06 476.909 56.06ZM508.499 84.605C505.749 84.605 503.255 84.0183 501.019 82.845C498.819 81.635 497.077 79.9667 495.794 77.84C494.51 75.6767 493.869 73.1833 493.869 70.36C493.869 67.4633 494.492 64.9517 495.739 62.825C497.022 60.6983 498.764 59.0483 500.964 57.875C503.164 56.665 505.675 56.06 508.499 56.06C510.955 56.06 513.045 56.4267 514.769 57.16C516.492 57.8933 517.885 58.92 518.949 60.24C520.012 61.5233 520.782 63.0267 521.259 64.75C521.772 66.4733 522.029 68.3433 522.029 70.36C522.029 71.9733 521.772 73.6233 521.259 75.31C520.745 76.96 519.957 78.5 518.894 79.93C517.83 81.3233 516.437 82.46 514.714 83.34C512.99 84.1833 510.919 84.605 508.499 84.605ZM510.809 79.105C512.972 79.105 514.842 78.7383 516.419 78.005C517.995 77.2717 519.205 76.245 520.049 74.925C520.892 73.605 521.314 72.0833 521.314 70.36C521.314 68.49 520.874 66.9133 519.994 65.63C519.15 64.31 517.94 63.3017 516.364 62.605C514.824 61.9083 512.972 61.56 510.809 61.56C507.765 61.56 505.4 62.3667 503.714 63.98C502.027 65.5933 501.184 67.72 501.184 70.36C501.184 72.12 501.587 73.66 502.394 74.98C503.2 76.2633 504.319 77.2717 505.749 78.005C507.215 78.7383 508.902 79.105 510.809 79.105ZM521.314 45.665H528.464V84H521.809C521.699 83.1567 521.589 82.075 521.479 80.755C521.369 79.3983 521.314 78.1333 521.314 76.96V45.665ZM561.085 74.925H568.015C567.722 76.795 566.933 78.4633 565.65 79.93C564.403 81.3967 562.698 82.5517 560.535 83.395C558.372 84.2383 555.732 84.66 552.615 84.66C549.132 84.66 546.052 84.11 543.375 83.01C540.698 81.8733 538.608 80.2417 537.105 78.115C535.602 75.9883 534.85 73.4217 534.85 70.415C534.85 67.4083 535.583 64.8417 537.05 62.715C538.517 60.5517 540.552 58.9017 543.155 57.765C545.795 56.6283 548.875 56.06 552.395 56.06C555.988 56.06 558.977 56.6283 561.36 57.765C563.743 58.9017 565.503 60.625 566.64 62.935C567.813 65.2083 568.308 68.1233 568.125 71.68H542.055C542.238 73.0733 542.752 74.3383 543.595 75.475C544.475 76.6117 545.648 77.51 547.115 78.17C548.618 78.83 550.397 79.16 552.45 79.16C554.723 79.16 556.612 78.775 558.115 78.005C559.655 77.1983 560.645 76.1717 561.085 74.925ZM552.065 61.505C549.425 61.505 547.28 62.0917 545.63 63.265C543.98 64.4017 542.917 65.8133 542.44 67.5H561.03C560.847 65.6667 559.967 64.2183 558.39 63.155C556.85 62.055 554.742 61.505 552.065 61.505ZM586.756 84.605C584.006 84.605 581.512 84.0183 579.276 82.845C577.076 81.635 575.334 79.9667 574.051 77.84C572.767 75.6767 572.126 73.1833 572.126 70.36C572.126 67.4633 572.749 64.9517 573.996 62.825C575.279 60.6983 577.021 59.0483 579.221 57.875C581.421 56.665 583.932 56.06 586.756 56.06C589.212 56.06 591.302 56.4267 593.026 57.16C594.749 57.8933 596.142 58.92 597.206 60.24C598.269 61.5233 599.039 63.0267 599.516 64.75C600.029 66.4733 600.286 68.3433 600.286 70.36C600.286 71.9733 600.029 73.6233 599.516 75.31C599.002 76.96 598.214 78.5 597.151 79.93C596.087 81.3233 594.694 82.46 592.971 83.34C591.247 84.1833 589.176 84.605 586.756 84.605ZM589.066 79.105C591.229 79.105 593.099 78.7383 594.676 78.005C596.252 77.2717 597.462 76.245 598.306 74.925C599.149 73.605 599.571 72.0833 599.571 70.36C599.571 68.49 599.131 66.9133 598.251 65.63C597.407 64.31 596.197 63.3017 594.621 62.605C593.081 61.9083 591.229 61.56 589.066 61.56C586.022 61.56 583.657 62.3667 581.971 63.98C580.284 65.5933 579.441 67.72 579.441 70.36C579.441 72.12 579.844 73.66 580.651 74.98C581.457 76.2633 582.576 77.2717 584.006 78.005C585.472 78.7383 587.159 79.105 589.066 79.105ZM599.571 45.665H606.721V84H600.066C599.956 83.1567 599.846 82.075 599.736 80.755C599.626 79.3983 599.571 78.1333 599.571 76.96V45.665ZM641.004 84.605C638.29 84.605 635.815 84.0183 633.579 82.845C631.379 81.635 629.619 79.9667 628.299 77.84C627.015 75.6767 626.374 73.1833 626.374 70.36C626.374 67.4633 627.034 64.9517 628.354 62.825C629.674 60.6983 631.452 59.0483 633.689 57.875C635.962 56.665 638.529 56.06 641.389 56.06C644.542 56.06 647.072 56.7017 648.979 57.985C650.922 59.2317 652.334 60.9367 653.214 63.1C654.094 65.2633 654.534 67.6833 654.534 70.36C654.534 71.9733 654.277 73.6233 653.764 75.31C653.25 76.96 652.462 78.5 651.399 79.93C650.335 81.3233 648.942 82.46 647.219 83.34C645.495 84.1833 643.424 84.605 641.004 84.605ZM643.314 79.105C645.477 79.105 647.347 78.7383 648.924 78.005C650.5 77.2717 651.71 76.245 652.554 74.925C653.397 73.605 653.819 72.0833 653.819 70.36C653.819 68.49 653.379 66.9133 652.499 65.63C651.655 64.31 650.445 63.32 648.869 62.66C647.329 61.9633 645.477 61.615 643.314 61.615C640.27 61.615 637.905 62.4217 636.219 64.035C634.532 65.6117 633.689 67.72 633.689 70.36C633.689 72.12 634.092 73.66 634.899 74.98C635.705 76.2633 636.824 77.2717 638.254 78.005C639.72 78.7383 641.407 79.105 643.314 79.105ZM653.819 56.665H660.969V84H654.314C654.314 84 654.259 83.6517 654.149 82.955C654.075 82.2217 654.002 81.305 653.929 80.205C653.855 79.105 653.819 78.0233 653.819 76.96V56.665ZM666.34 74.925H672.94C673.343 76.1717 674.168 77.1983 675.415 78.005C676.698 78.775 678.366 79.16 680.42 79.16C681.813 79.16 682.895 79.0317 683.665 78.775C684.435 78.5183 684.966 78.1517 685.26 77.675C685.553 77.1617 685.7 76.5933 685.7 75.97C685.7 75.2 685.461 74.6133 684.985 74.21C684.508 73.77 683.775 73.4217 682.785 73.165C681.795 72.9083 680.53 72.67 678.99 72.45C677.45 72.1933 675.965 71.8817 674.535 71.515C673.105 71.1483 671.84 70.6717 670.74 70.085C669.64 69.4617 668.76 68.6917 668.1 67.775C667.476 66.8217 667.165 65.6667 667.165 64.31C667.165 62.99 667.476 61.8167 668.1 60.79C668.76 59.7633 669.658 58.9017 670.795 58.205C671.968 57.5083 673.325 56.9767 674.865 56.61C676.441 56.2433 678.128 56.06 679.925 56.06C682.638 56.06 684.893 56.4633 686.69 57.27C688.486 58.04 689.825 59.14 690.705 60.57C691.621 61.9633 692.08 63.5767 692.08 65.41H685.755C685.461 64.0533 684.875 63.0817 683.995 62.495C683.115 61.8717 681.758 61.56 679.925 61.56C678.128 61.56 676.771 61.835 675.855 62.385C674.938 62.935 674.48 63.6867 674.48 64.64C674.48 65.41 674.755 66.015 675.305 66.455C675.891 66.8583 676.735 67.1883 677.835 67.445C678.971 67.7017 680.383 67.9767 682.07 68.27C683.5 68.5633 684.856 68.8933 686.14 69.26C687.46 69.6267 688.633 70.1033 689.66 70.69C690.686 71.24 691.493 71.9917 692.08 72.945C692.703 73.8617 693.015 75.035 693.015 76.465C693.015 78.225 692.501 79.71 691.475 80.92C690.485 82.13 689.055 83.065 687.185 83.725C685.315 84.3483 683.078 84.66 680.475 84.66C678.165 84.66 676.166 84.4217 674.48 83.945C672.83 83.4317 671.455 82.79 670.355 82.02C669.255 81.2133 668.393 80.37 667.77 79.49C667.183 78.5733 666.78 77.7117 666.56 76.905C666.34 76.0983 666.266 75.4383 666.34 74.925ZM725.061 84.605C722.348 84.605 719.873 84.0183 717.636 82.845C715.436 81.635 713.676 79.9667 712.356 77.84C711.073 75.6767 710.431 73.1833 710.431 70.36C710.431 67.4633 711.091 64.9517 712.411 62.825C713.731 60.6983 715.51 59.0483 717.746 57.875C720.02 56.665 722.586 56.06 725.446 56.06C728.6 56.06 731.13 56.7017 733.036 57.985C734.98 59.2317 736.391 60.9367 737.271 63.1C738.151 65.2633 738.591 67.6833 738.591 70.36C738.591 71.9733 738.335 73.6233 737.821 75.31C737.308 76.96 736.52 78.5 735.456 79.93C734.393 81.3233 733 82.46 731.276 83.34C729.553 84.1833 727.481 84.605 725.061 84.605ZM727.371 79.105C729.535 79.105 731.405 78.7383 732.981 78.005C734.558 77.2717 735.768 76.245 736.611 74.925C737.455 73.605 737.876 72.0833 737.876 70.36C737.876 68.49 737.436 66.9133 736.556 65.63C735.713 64.31 734.503 63.32 732.926 62.66C731.386 61.9633 729.535 61.615 727.371 61.615C724.328 61.615 721.963 62.4217 720.276 64.035C718.59 65.6117 717.746 67.72 717.746 70.36C717.746 72.12 718.15 73.66 718.956 74.98C719.763 76.2633 720.881 77.2717 722.311 78.005C723.778 78.7383 725.465 79.105 727.371 79.105ZM737.876 56.665H745.026V84H738.371C738.371 84 738.316 83.6517 738.206 82.955C738.133 82.2217 738.06 81.305 737.986 80.205C737.913 79.105 737.876 78.0233 737.876 76.96V56.665ZM183.586 140.925H190.186C190.589 142.172 191.414 143.198 192.661 144.005C193.944 144.775 195.612 145.16 197.666 145.16C199.059 145.16 200.141 145.032 200.911 144.775C201.681 144.518 202.212 144.152 202.506 143.675C202.799 143.162 202.946 142.593 202.946 141.97C202.946 141.2 202.707 140.613 202.231 140.21C201.754 139.77 201.021 139.422 200.031 139.165C199.041 138.908 197.776 138.67 196.236 138.45C194.696 138.193 193.211 137.882 191.781 137.515C190.351 137.148 189.086 136.672 187.986 136.085C186.886 135.462 186.006 134.692 185.346 133.775C184.722 132.822 184.411 131.667 184.411 130.31C184.411 128.99 184.722 127.817 185.346 126.79C186.006 125.763 186.904 124.902 188.041 124.205C189.214 123.508 190.571 122.977 192.111 122.61C193.687 122.243 195.374 122.06 197.171 122.06C199.884 122.06 202.139 122.463 203.936 123.27C205.732 124.04 207.071 125.14 207.951 126.57C208.867 127.963 209.326 129.577 209.326 131.41H203.001C202.707 130.053 202.121 129.082 201.241 128.495C200.361 127.872 199.004 127.56 197.171 127.56C195.374 127.56 194.017 127.835 193.101 128.385C192.184 128.935 191.726 129.687 191.726 130.64C191.726 131.41 192.001 132.015 192.551 132.455C193.137 132.858 193.981 133.188 195.081 133.445C196.217 133.702 197.629 133.977 199.316 134.27C200.746 134.563 202.102 134.893 203.386 135.26C204.706 135.627 205.879 136.103 206.906 136.69C207.932 137.24 208.739 137.992 209.326 138.945C209.949 139.862 210.261 141.035 210.261 142.465C210.261 144.225 209.747 145.71 208.721 146.92C207.731 148.13 206.301 149.065 204.431 149.725C202.561 150.348 200.324 150.66 197.721 150.66C195.411 150.66 193.412 150.422 191.726 149.945C190.076 149.432 188.701 148.79 187.601 148.02C186.501 147.213 185.639 146.37 185.016 145.49C184.429 144.573 184.026 143.712 183.806 142.905C183.586 142.098 183.512 141.438 183.586 140.925ZM229.041 150.605C226.327 150.605 223.852 150.018 221.616 148.845C219.416 147.635 217.656 145.967 216.336 143.84C215.052 141.677 214.411 139.183 214.411 136.36C214.411 133.463 215.071 130.952 216.391 128.825C217.711 126.698 219.489 125.048 221.726 123.875C223.999 122.665 226.566 122.06 229.426 122.06C232.579 122.06 235.109 122.702 237.016 123.985C238.959 125.232 240.371 126.937 241.251 129.1C242.131 131.263 242.571 133.683 242.571 136.36C242.571 137.973 242.314 139.623 241.801 141.31C241.287 142.96 240.499 144.5 239.436 145.93C238.372 147.323 236.979 148.46 235.256 149.34C233.532 150.183 231.461 150.605 229.041 150.605ZM231.351 145.105C233.514 145.105 235.384 144.738 236.961 144.005C238.537 143.272 239.747 142.245 240.591 140.925C241.434 139.605 241.856 138.083 241.856 136.36C241.856 134.49 241.416 132.913 240.536 131.63C239.692 130.31 238.482 129.32 236.906 128.66C235.366 127.963 233.514 127.615 231.351 127.615C228.307 127.615 225.942 128.422 224.256 130.035C222.569 131.612 221.726 133.72 221.726 136.36C221.726 138.12 222.129 139.66 222.936 140.98C223.742 142.263 224.861 143.272 226.291 144.005C227.757 144.738 229.444 145.105 231.351 145.105ZM241.856 122.665H249.006V150H242.351C242.351 150 242.296 149.652 242.186 148.955C242.112 148.222 242.039 147.305 241.966 146.205C241.892 145.105 241.856 144.023 241.856 142.96V122.665ZM256.027 111.665H263.177V150H256.027V111.665ZM283.718 150.605C281.005 150.605 278.53 150.018 276.293 148.845C274.093 147.635 272.333 145.967 271.013 143.84C269.73 141.677 269.088 139.183 269.088 136.36C269.088 133.463 269.748 130.952 271.068 128.825C272.388 126.698 274.167 125.048 276.403 123.875C278.677 122.665 281.243 122.06 284.103 122.06C287.257 122.06 289.787 122.702 291.693 123.985C293.637 125.232 295.048 126.937 295.928 129.1C296.808 131.263 297.248 133.683 297.248 136.36C297.248 137.973 296.992 139.623 296.478 141.31C295.965 142.96 295.177 144.5 294.113 145.93C293.05 147.323 291.657 148.46 289.933 149.34C288.21 150.183 286.138 150.605 283.718 150.605ZM286.028 145.105C288.192 145.105 290.062 144.738 291.638 144.005C293.215 143.272 294.425 142.245 295.268 140.925C296.112 139.605 296.533 138.083 296.533 136.36C296.533 134.49 296.093 132.913 295.213 131.63C294.37 130.31 293.16 129.32 291.583 128.66C290.043 127.963 288.192 127.615 286.028 127.615C282.985 127.615 280.62 128.422 278.933 130.035C277.247 131.612 276.403 133.72 276.403 136.36C276.403 138.12 276.807 139.66 277.613 140.98C278.42 142.263 279.538 143.272 280.968 144.005C282.435 144.738 284.122 145.105 286.028 145.105ZM296.533 122.665H303.683V150H297.028C297.028 150 296.973 149.652 296.863 148.955C296.79 148.222 296.717 147.305 296.643 146.205C296.57 145.105 296.533 144.023 296.533 142.96V122.665ZM310.154 122.665H317.304V150H310.154V122.665ZM327.809 128.55C325.756 128.55 323.978 128.953 322.474 129.76C320.971 130.53 319.761 131.483 318.844 132.62C317.928 133.757 317.286 134.857 316.919 135.92L316.864 132.895C316.901 132.455 317.048 131.813 317.304 130.97C317.561 130.09 317.946 129.155 318.459 128.165C318.973 127.138 319.651 126.167 320.494 125.25C321.338 124.297 322.364 123.527 323.574 122.94C324.784 122.353 326.196 122.06 327.809 122.06V128.55ZM329.755 122.665H337.345L349.17 148.9L343.01 150L329.755 122.665ZM363.195 122.665L344.275 161H336.85L344.935 145.93L355.55 122.665H363.195ZM405.538 140.925H412.468C412.175 142.795 411.387 144.463 410.103 145.93C408.857 147.397 407.152 148.552 404.988 149.395C402.825 150.238 400.185 150.66 397.068 150.66C393.585 150.66 390.505 150.11 387.828 149.01C385.152 147.873 383.062 146.242 381.558 144.115C380.055 141.988 379.303 139.422 379.303 136.415C379.303 133.408 380.037 130.842 381.503 128.715C382.97 126.552 385.005 124.902 387.608 123.765C390.248 122.628 393.328 122.06 396.848 122.06C400.442 122.06 403.43 122.628 405.813 123.765C408.197 124.902 409.957 126.625 411.093 128.935C412.267 131.208 412.762 134.123 412.578 137.68H386.508C386.692 139.073 387.205 140.338 388.048 141.475C388.928 142.612 390.102 143.51 391.568 144.17C393.072 144.83 394.85 145.16 396.903 145.16C399.177 145.16 401.065 144.775 402.568 144.005C404.108 143.198 405.098 142.172 405.538 140.925ZM396.518 127.505C393.878 127.505 391.733 128.092 390.083 129.265C388.433 130.402 387.37 131.813 386.893 133.5H405.483C405.3 131.667 404.42 130.218 402.843 129.155C401.303 128.055 399.195 127.505 396.518 127.505ZM431.209 150.605C428.495 150.605 426.02 150.018 423.784 148.845C421.584 147.635 419.824 145.967 418.504 143.84C417.22 141.677 416.579 139.183 416.579 136.36C416.579 133.463 417.239 130.952 418.559 128.825C419.879 126.698 421.657 125.048 423.894 123.875C426.167 122.665 428.734 122.06 431.594 122.06C434.747 122.06 437.277 122.702 439.184 123.985C441.127 125.232 442.539 126.937 443.419 129.1C444.299 131.263 444.739 133.683 444.739 136.36C444.739 137.973 444.482 139.623 443.969 141.31C443.455 142.96 442.667 144.5 441.604 145.93C440.54 147.323 439.147 148.46 437.424 149.34C435.7 150.183 433.629 150.605 431.209 150.605ZM433.519 145.105C435.682 145.105 437.552 144.738 439.129 144.005C440.705 143.272 441.915 142.245 442.759 140.925C443.602 139.605 444.024 138.083 444.024 136.36C444.024 134.49 443.584 132.913 442.704 131.63C441.86 130.31 440.65 129.32 439.074 128.66C437.534 127.963 435.682 127.615 433.519 127.615C430.475 127.615 428.11 128.422 426.424 130.035C424.737 131.612 423.894 133.72 423.894 136.36C423.894 138.12 424.297 139.66 425.104 140.98C425.91 142.263 427.029 143.272 428.459 144.005C429.925 144.738 431.612 145.105 433.519 145.105ZM444.024 122.665H451.174V150H444.519C444.519 150 444.464 149.652 444.354 148.955C444.28 148.222 444.207 147.305 444.134 146.205C444.06 145.105 444.024 144.023 444.024 142.96V122.665ZM457.645 122.665H464.795V150H457.645V122.665ZM475.3 128.55C473.246 128.55 471.468 128.953 469.965 129.76C468.461 130.53 467.251 131.483 466.335 132.62C465.418 133.757 464.776 134.857 464.41 135.92L464.355 132.895C464.391 132.455 464.538 131.813 464.795 130.97C465.051 130.09 465.436 129.155 465.95 128.165C466.463 127.138 467.141 126.167 467.985 125.25C468.828 124.297 469.855 123.527 471.065 122.94C472.275 122.353 473.686 122.06 475.3 122.06V128.55ZM479.72 122.665H486.87V150H479.72V122.665ZM499.575 122.06C501.262 122.06 502.82 122.28 504.25 122.72C505.68 123.16 506.927 123.838 507.99 124.755C509.053 125.672 509.878 126.845 510.465 128.275C511.052 129.668 511.345 131.337 511.345 133.28V150H504.195V134.545C504.195 132.235 503.627 130.548 502.49 129.485C501.39 128.385 499.575 127.835 497.045 127.835C495.138 127.835 493.415 128.202 491.875 128.935C490.335 129.668 489.088 130.603 488.135 131.74C487.182 132.84 486.632 133.995 486.485 135.205L486.43 132.4C486.613 131.117 487.035 129.87 487.695 128.66C488.355 127.45 489.235 126.35 490.335 125.36C491.472 124.333 492.81 123.527 494.35 122.94C495.89 122.353 497.632 122.06 499.575 122.06ZM542.77 140.925H549.7C549.406 142.795 548.618 144.463 547.335 145.93C546.088 147.397 544.383 148.552 542.22 149.395C540.056 150.238 537.416 150.66 534.3 150.66C530.816 150.66 527.736 150.11 525.06 149.01C522.383 147.873 520.293 146.242 518.79 144.115C517.286 141.988 516.535 139.422 516.535 136.415C516.535 133.408 517.268 130.842 518.735 128.715C520.201 126.552 522.236 124.902 524.84 123.765C527.48 122.628 530.56 122.06 534.08 122.06C537.673 122.06 540.661 122.628 543.045 123.765C545.428 124.902 547.188 126.625 548.325 128.935C549.498 131.208 549.993 134.123 549.81 137.68H523.74C523.923 139.073 524.436 140.338 525.28 141.475C526.16 142.612 527.333 143.51 528.8 144.17C530.303 144.83 532.081 145.16 534.135 145.16C536.408 145.16 538.296 144.775 539.8 144.005C541.34 143.198 542.33 142.172 542.77 140.925ZM533.75 127.505C531.11 127.505 528.965 128.092 527.315 129.265C525.665 130.402 524.601 131.813 524.125 133.5H542.715C542.531 131.667 541.651 130.218 540.075 129.155C538.535 128.055 536.426 127.505 533.75 127.505ZM555.13 122.665H562.28V150H555.13V122.665ZM572.785 128.55C570.732 128.55 568.953 128.953 567.45 129.76C565.947 130.53 564.737 131.483 563.82 132.62C562.903 133.757 562.262 134.857 561.895 135.92L561.84 132.895C561.877 132.455 562.023 131.813 562.28 130.97C562.537 130.09 562.922 129.155 563.435 128.165C563.948 127.138 564.627 126.167 565.47 125.25C566.313 124.297 567.34 123.527 568.55 122.94C569.76 122.353 571.172 122.06 572.785 122.06V128.55ZM582.288 143.73V150H573.983V143.73H582.288Z" fill="white"/>
</svg>
