<svg width="608" height="255" viewBox="0 0 608 255" fill="none" xmlns="http://www.w3.org/2000/svg">
<g clip-path="url(#clip0_4908_41044)">
<rect x="-0.163086" y="-0.457031" width="607.837" height="255.178" rx="10" fill="#F0F5FF"/>
<g filter="url(#filter0_d_4908_41044)">
<path d="M191.74 145.019V278.71H168.804V166.095L175.209 168.368L119.005 239.45L115.286 231.391H172.11V250.194H98.342V231.391L168.804 145.019H191.74ZM188.434 250.194V231.391H213.85V250.194H188.434Z" fill="#2D79FD"/>
</g>
<path d="M41.2644 236.835H43.3244C43.431 237.342 43.7044 237.755 44.1444 238.075C44.5844 238.382 45.1777 238.535 45.9244 238.535C46.4044 238.535 46.7777 238.482 47.0444 238.375C47.3244 238.269 47.5177 238.122 47.6244 237.935C47.7444 237.749 47.8044 237.535 47.8044 237.295C47.8044 237.002 47.7177 236.775 47.5444 236.615C47.3844 236.455 47.1444 236.322 46.8244 236.215C46.5044 236.109 46.1044 236.015 45.6244 235.935C45.131 235.815 44.6444 235.682 44.1644 235.535C43.6844 235.389 43.251 235.209 42.8644 234.995C42.4777 234.769 42.171 234.489 41.9444 234.155C41.731 233.809 41.6244 233.389 41.6244 232.895C41.6244 232.442 41.7244 232.035 41.9244 231.675C42.1377 231.302 42.431 230.989 42.8044 230.735C43.1777 230.482 43.6177 230.289 44.1244 230.155C44.631 230.009 45.1844 229.935 45.7844 229.935C46.651 229.935 47.371 230.075 47.9444 230.355C48.531 230.635 48.971 231.029 49.2644 231.535C49.571 232.042 49.7244 232.622 49.7244 233.275H47.7644C47.6577 232.742 47.451 232.355 47.1444 232.115C46.8377 231.875 46.3777 231.755 45.7644 231.755C45.151 231.755 44.6844 231.862 44.3644 232.075C44.0444 232.289 43.8844 232.582 43.8844 232.955C43.8844 233.235 43.9844 233.462 44.1844 233.635C44.3977 233.795 44.6977 233.935 45.0844 234.055C45.471 234.175 45.9244 234.295 46.4444 234.415C46.9244 234.549 47.3777 234.689 47.8044 234.835C48.231 234.969 48.611 235.142 48.9444 235.355C49.291 235.555 49.5644 235.822 49.7644 236.155C49.9644 236.489 50.0644 236.902 50.0644 237.395C50.0644 238.009 49.8977 238.535 49.5644 238.975C49.2444 239.415 48.7777 239.755 48.1644 239.995C47.551 240.222 46.811 240.335 45.9444 240.335C45.1844 240.335 44.5244 240.249 43.9644 240.075C43.4177 239.902 42.9577 239.675 42.5844 239.395C42.2244 239.115 41.9444 238.815 41.7444 238.495C41.5444 238.175 41.4044 237.869 41.3244 237.575C41.2577 237.282 41.2377 237.035 41.2644 236.835ZM51.3754 230.155H58.4154V231.975H51.3754V230.155ZM53.7754 227.475H56.0154V240.115H53.7754V227.475ZM68.3251 236.835H70.4651C70.3585 237.515 70.0918 238.122 69.6651 238.655C69.2518 239.175 68.6851 239.589 67.9651 239.895C67.2451 240.189 66.3851 240.335 65.3851 240.335C64.2518 240.335 63.2385 240.129 62.3451 239.715C61.4518 239.289 60.7518 238.689 60.2451 237.915C59.7385 237.142 59.4851 236.222 59.4851 235.155C59.4851 234.102 59.7318 233.182 60.2251 232.395C60.7185 231.609 61.3985 231.002 62.2651 230.575C63.1451 230.149 64.1585 229.935 65.3051 229.935C66.4918 229.935 67.4785 230.149 68.2651 230.575C69.0651 230.989 69.6585 231.615 70.0451 232.455C70.4318 233.282 70.5918 234.329 70.5251 235.595H61.7451C61.8118 236.155 61.9918 236.662 62.2851 237.115C62.5918 237.555 63.0051 237.902 63.5251 238.155C64.0451 238.395 64.6518 238.515 65.3451 238.515C66.1185 238.515 66.7651 238.362 67.2851 238.055C67.8185 237.749 68.1651 237.342 68.3251 236.835ZM65.2451 231.735C64.3385 231.735 63.5918 231.962 63.0051 232.415C62.4185 232.855 62.0385 233.422 61.8651 234.115H68.2851C68.2318 233.369 67.9318 232.789 67.3851 232.375C66.8385 231.949 66.1251 231.735 65.2451 231.735ZM78.9051 240.335C78.0918 240.335 77.3985 240.175 76.8251 239.855C76.2651 239.535 75.8118 239.115 75.4651 238.595C75.1318 238.062 74.8851 237.495 74.7251 236.895C74.5651 236.282 74.4851 235.702 74.4851 235.155C74.4851 234.422 74.5585 233.742 74.7051 233.115C74.8651 232.489 75.1118 231.942 75.4451 231.475C75.7918 230.995 76.2451 230.622 76.8051 230.355C77.3785 230.075 78.0785 229.935 78.9051 229.935C79.8385 229.935 80.6785 230.162 81.4251 230.615C82.1718 231.055 82.7651 231.669 83.2051 232.455C83.6451 233.229 83.8651 234.129 83.8651 235.155C83.8651 236.182 83.6385 237.089 83.1851 237.875C82.7451 238.649 82.1518 239.255 81.4051 239.695C80.6585 240.122 79.8251 240.335 78.9051 240.335ZM78.2451 238.495C78.9118 238.495 79.4985 238.355 80.0051 238.075C80.5118 237.795 80.9051 237.402 81.1851 236.895C81.4651 236.389 81.6051 235.809 81.6051 235.155C81.6051 234.155 81.3118 233.342 80.7251 232.715C80.1385 232.075 79.3118 231.755 78.2451 231.755C77.5785 231.755 76.9785 231.895 76.4451 232.175C75.9118 232.455 75.4918 232.849 75.1851 233.355C74.8785 233.849 74.7251 234.449 74.7251 235.155C74.7251 235.795 74.8651 236.369 75.1451 236.875C75.4251 237.382 75.8251 237.782 76.3451 238.075C76.8651 238.355 77.4985 238.495 78.2451 238.495ZM72.5051 230.155H74.6251L74.7251 232.595V244.115H72.5051V230.155Z" fill="#2D79FD"/>
</g>
<defs>
<filter id="filter0_d_4908_41044" x="78.342" y="133.02" width="155.508" height="173.689" filterUnits="userSpaceOnUse" color-interpolation-filters="sRGB">
<feFlood flood-opacity="0" result="BackgroundImageFix"/>
<feColorMatrix in="SourceAlpha" type="matrix" values="0 0 0 0 0 0 0 0 0 0 0 0 0 0 0 0 0 0 127 0" result="hardAlpha"/>
<feOffset dy="8"/>
<feGaussianBlur stdDeviation="10"/>
<feComposite in2="hardAlpha" operator="out"/>
<feColorMatrix type="matrix" values="0 0 0 0 0 0 0 0 0 0 0 0 0 0 0 0 0 0 0.12 0"/>
<feBlend mode="normal" in2="BackgroundImageFix" result="effect1_dropShadow_4908_41044"/>
<feBlend mode="normal" in="SourceGraphic" in2="effect1_dropShadow_4908_41044" result="shape"/>
</filter>
<clipPath id="clip0_4908_41044">
<rect width="608" height="255" rx="10" fill="white"/>
</clipPath>
</defs>
</svg>
