<svg width="608" height="255" viewBox="0 0 608 255" fill="none" xmlns="http://www.w3.org/2000/svg">
<g clip-path="url(#clip0_4908_41039)">
<rect x="-0.210693" y="-0.0703125" width="607.837" height="255.178" rx="10" fill="#FFF5F0"/>
<g filter="url(#filter0_d_4908_41039)">
<path d="M138.805 237.933L107.603 255.29L106.363 250.331H177.445V269.135H79.7077V250.331C90.8658 244.27 100.853 239.173 109.669 235.04C118.486 230.77 125.924 226.913 131.986 223.469C138.185 220.025 142.868 216.512 146.037 212.931C149.343 209.349 150.996 205.354 150.996 200.946C150.996 197.364 150.1 194.265 148.31 191.648C146.519 189.03 143.695 187.033 139.838 185.655C136.118 184.14 131.297 183.382 125.373 183.382C117.659 183.382 111.322 185.173 106.363 188.755C101.404 192.199 98.7867 196.882 98.5112 202.806H76.8148C76.2638 195.229 77.9168 188.548 81.774 182.762C85.7689 176.977 91.4857 172.431 98.9245 169.125C106.501 165.681 115.18 163.959 124.96 163.959C132.537 163.959 139.356 164.785 145.417 166.438C151.478 168.092 156.644 170.502 160.914 173.671C165.322 176.701 168.697 180.352 171.039 184.622C173.381 188.755 174.552 193.37 174.552 198.466C174.552 202.599 173.794 206.387 172.279 209.831C170.901 213.137 168.697 216.375 165.667 219.543C162.774 222.574 159.054 225.604 154.509 228.635C150.1 231.528 144.866 234.627 138.805 237.933Z" fill="#FF823B"/>
</g>
<path d="M41.2167 237.222H43.2767C43.3834 237.729 43.6567 238.142 44.0967 238.462C44.5367 238.769 45.1301 238.922 45.8767 238.922C46.3567 238.922 46.7301 238.869 46.9967 238.762C47.2767 238.655 47.4701 238.509 47.5767 238.322C47.6967 238.135 47.7567 237.922 47.7567 237.682C47.7567 237.389 47.6701 237.162 47.4967 237.002C47.3367 236.842 47.0967 236.709 46.7767 236.602C46.4567 236.495 46.0567 236.402 45.5767 236.322C45.0834 236.202 44.5967 236.069 44.1167 235.922C43.6367 235.775 43.2034 235.595 42.8167 235.382C42.4301 235.155 42.1234 234.875 41.8967 234.542C41.6834 234.195 41.5767 233.775 41.5767 233.282C41.5767 232.829 41.6767 232.422 41.8767 232.062C42.0901 231.689 42.3834 231.375 42.7567 231.122C43.1301 230.869 43.5701 230.675 44.0767 230.542C44.5834 230.395 45.1367 230.322 45.7367 230.322C46.6034 230.322 47.3234 230.462 47.8967 230.742C48.4834 231.022 48.9234 231.415 49.2167 231.922C49.5234 232.429 49.6767 233.009 49.6767 233.662H47.7167C47.6101 233.129 47.4034 232.742 47.0967 232.502C46.7901 232.262 46.3301 232.142 45.7167 232.142C45.1034 232.142 44.6367 232.249 44.3167 232.462C43.9967 232.675 43.8367 232.969 43.8367 233.342C43.8367 233.622 43.9367 233.849 44.1367 234.022C44.3501 234.182 44.6501 234.322 45.0367 234.442C45.4234 234.562 45.8767 234.682 46.3967 234.802C46.8767 234.935 47.3301 235.075 47.7567 235.222C48.1834 235.355 48.5634 235.529 48.8967 235.742C49.2434 235.942 49.5167 236.209 49.7167 236.542C49.9167 236.875 50.0167 237.289 50.0167 237.782C50.0167 238.395 49.8501 238.922 49.5167 239.362C49.1967 239.802 48.7301 240.142 48.1167 240.382C47.5034 240.609 46.7634 240.722 45.8967 240.722C45.1367 240.722 44.4767 240.635 43.9167 240.462C43.3701 240.289 42.9101 240.062 42.5367 239.782C42.1767 239.502 41.8967 239.202 41.6967 238.882C41.4967 238.562 41.3567 238.255 41.2767 237.962C41.2101 237.669 41.1901 237.422 41.2167 237.222ZM51.3278 230.542H58.3678V232.362H51.3278V230.542ZM53.7278 227.862H55.9678V240.502H53.7278V227.862ZM68.2775 237.222H70.4175C70.3109 237.902 70.0442 238.509 69.6175 239.042C69.2042 239.562 68.6375 239.975 67.9175 240.282C67.1975 240.575 66.3375 240.722 65.3375 240.722C64.2042 240.722 63.1909 240.515 62.2975 240.102C61.4042 239.675 60.7042 239.075 60.1975 238.302C59.6909 237.529 59.4375 236.609 59.4375 235.542C59.4375 234.489 59.6842 233.569 60.1775 232.782C60.6709 231.995 61.3509 231.389 62.2175 230.962C63.0975 230.535 64.1109 230.322 65.2575 230.322C66.4442 230.322 67.4309 230.535 68.2175 230.962C69.0175 231.375 69.6109 232.002 69.9975 232.842C70.3842 233.669 70.5442 234.715 70.4775 235.982H61.6975C61.7642 236.542 61.9442 237.049 62.2375 237.502C62.5442 237.942 62.9575 238.289 63.4775 238.542C63.9975 238.782 64.6042 238.902 65.2975 238.902C66.0709 238.902 66.7175 238.749 67.2375 238.442C67.7709 238.135 68.1175 237.729 68.2775 237.222ZM65.1975 232.122C64.2909 232.122 63.5442 232.349 62.9575 232.802C62.3709 233.242 61.9909 233.809 61.8175 234.502H68.2375C68.1842 233.755 67.8842 233.175 67.3375 232.762C66.7909 232.335 66.0775 232.122 65.1975 232.122ZM78.8575 240.722C78.0442 240.722 77.3509 240.562 76.7775 240.242C76.2175 239.922 75.7642 239.502 75.4175 238.982C75.0842 238.449 74.8375 237.882 74.6775 237.282C74.5175 236.669 74.4375 236.089 74.4375 235.542C74.4375 234.809 74.5109 234.129 74.6575 233.502C74.8175 232.875 75.0642 232.329 75.3975 231.862C75.7442 231.382 76.1975 231.009 76.7575 230.742C77.3309 230.462 78.0309 230.322 78.8575 230.322C79.7909 230.322 80.6309 230.549 81.3775 231.002C82.1242 231.442 82.7175 232.055 83.1575 232.842C83.5975 233.615 83.8175 234.515 83.8175 235.542C83.8175 236.569 83.5909 237.475 83.1375 238.262C82.6975 239.035 82.1042 239.642 81.3575 240.082C80.6109 240.509 79.7775 240.722 78.8575 240.722ZM78.1975 238.882C78.8642 238.882 79.4509 238.742 79.9575 238.462C80.4642 238.182 80.8575 237.789 81.1375 237.282C81.4175 236.775 81.5575 236.195 81.5575 235.542C81.5575 234.542 81.2642 233.729 80.6775 233.102C80.0909 232.462 79.2642 232.142 78.1975 232.142C77.5309 232.142 76.9309 232.282 76.3975 232.562C75.8642 232.842 75.4442 233.235 75.1375 233.742C74.8309 234.235 74.6775 234.835 74.6775 235.542C74.6775 236.182 74.8175 236.755 75.0975 237.262C75.3775 237.769 75.7775 238.169 76.2975 238.462C76.8175 238.742 77.4509 238.882 78.1975 238.882ZM72.4575 230.542H74.5775L74.6775 232.982V244.502H72.4575V230.542Z" fill="#FF823B"/>
</g>
<defs>
<filter id="filter0_d_4908_41039" x="55.9883" y="151.959" width="141.457" height="145.176" filterUnits="userSpaceOnUse" color-interpolation-filters="sRGB">
<feFlood flood-opacity="0" result="BackgroundImageFix"/>
<feColorMatrix in="SourceAlpha" type="matrix" values="0 0 0 0 0 0 0 0 0 0 0 0 0 0 0 0 0 0 127 0" result="hardAlpha"/>
<feOffset dy="8"/>
<feGaussianBlur stdDeviation="10"/>
<feComposite in2="hardAlpha" operator="out"/>
<feColorMatrix type="matrix" values="0 0 0 0 0 0 0 0 0 0 0 0 0 0 0 0 0 0 0.12 0"/>
<feBlend mode="normal" in2="BackgroundImageFix" result="effect1_dropShadow_4908_41039"/>
<feBlend mode="normal" in="SourceGraphic" in2="effect1_dropShadow_4908_41039" result="shape"/>
</filter>
<clipPath id="clip0_4908_41039">
<rect width="608" height="255" rx="10" fill="white"/>
</clipPath>
</defs>
</svg>
