<svg width="608" height="255" viewBox="0 0 608 255" fill="none" xmlns="http://www.w3.org/2000/svg">
<g clip-path="url(#clip0_4908_41035)">
<rect y="0.144531" width="607.837" height="255.178" rx="10" fill="#F2FCF2"/>
<g filter="url(#filter0_d_4908_41035)">
<path d="M75.1658 186.697V166.447H125.584V269.35H102.441V186.697H75.1658Z" fill="#23A323"/>
</g>
<path d="M41.4274 237.437H43.4874C43.5941 237.943 43.8674 238.357 44.3074 238.677C44.7474 238.983 45.3408 239.137 46.0874 239.137C46.5674 239.137 46.9408 239.083 47.2074 238.977C47.4874 238.87 47.6808 238.723 47.7874 238.537C47.9074 238.35 47.9674 238.137 47.9674 237.897C47.9674 237.603 47.8808 237.377 47.7074 237.217C47.5474 237.057 47.3074 236.923 46.9874 236.817C46.6674 236.71 46.2674 236.617 45.7874 236.537C45.2941 236.417 44.8074 236.283 44.3274 236.137C43.8474 235.99 43.4141 235.81 43.0274 235.597C42.6408 235.37 42.3341 235.09 42.1074 234.757C41.8941 234.41 41.7874 233.99 41.7874 233.497C41.7874 233.043 41.8874 232.637 42.0874 232.277C42.3008 231.903 42.5941 231.59 42.9674 231.337C43.3408 231.083 43.7808 230.89 44.2874 230.757C44.7941 230.61 45.3474 230.537 45.9474 230.537C46.8141 230.537 47.5341 230.677 48.1074 230.957C48.6941 231.237 49.1341 231.63 49.4274 232.137C49.7341 232.643 49.8874 233.223 49.8874 233.877H47.9274C47.8208 233.343 47.6141 232.957 47.3074 232.717C47.0008 232.477 46.5408 232.357 45.9274 232.357C45.3141 232.357 44.8474 232.463 44.5274 232.677C44.2074 232.89 44.0474 233.183 44.0474 233.557C44.0474 233.837 44.1474 234.063 44.3474 234.237C44.5608 234.397 44.8608 234.537 45.2474 234.657C45.6341 234.777 46.0874 234.897 46.6074 235.017C47.0874 235.15 47.5408 235.29 47.9674 235.437C48.3941 235.57 48.7741 235.743 49.1074 235.957C49.4541 236.157 49.7274 236.423 49.9274 236.757C50.1274 237.09 50.2274 237.503 50.2274 237.997C50.2274 238.61 50.0608 239.137 49.7274 239.577C49.4074 240.017 48.9408 240.357 48.3274 240.597C47.7141 240.823 46.9741 240.937 46.1074 240.937C45.3474 240.937 44.6874 240.85 44.1274 240.677C43.5808 240.503 43.1208 240.277 42.7474 239.997C42.3874 239.717 42.1074 239.417 41.9074 239.097C41.7074 238.777 41.5674 238.47 41.4874 238.177C41.4208 237.883 41.4008 237.637 41.4274 237.437ZM51.5385 230.757H58.5785V232.577H51.5385V230.757ZM53.9385 228.077H56.1785V240.717H53.9385V228.077ZM68.4882 237.437H70.6282C70.5216 238.117 70.2549 238.723 69.8282 239.257C69.4149 239.777 68.8482 240.19 68.1282 240.497C67.4082 240.79 66.5482 240.937 65.5482 240.937C64.4149 240.937 63.4016 240.73 62.5082 240.317C61.6149 239.89 60.9149 239.29 60.4082 238.517C59.9016 237.743 59.6482 236.823 59.6482 235.757C59.6482 234.703 59.8949 233.783 60.3882 232.997C60.8816 232.21 61.5616 231.603 62.4282 231.177C63.3082 230.75 64.3216 230.537 65.4682 230.537C66.6549 230.537 67.6416 230.75 68.4282 231.177C69.2282 231.59 69.8216 232.217 70.2082 233.057C70.5949 233.883 70.7549 234.93 70.6882 236.197H61.9082C61.9749 236.757 62.1549 237.263 62.4482 237.717C62.7549 238.157 63.1682 238.503 63.6882 238.757C64.2082 238.997 64.8149 239.117 65.5082 239.117C66.2816 239.117 66.9282 238.963 67.4482 238.657C67.9816 238.35 68.3282 237.943 68.4882 237.437ZM65.4082 232.337C64.5016 232.337 63.7549 232.563 63.1682 233.017C62.5816 233.457 62.2016 234.023 62.0282 234.717H68.4482C68.3949 233.97 68.0949 233.39 67.5482 232.977C67.0016 232.55 66.2882 232.337 65.4082 232.337ZM79.0682 240.937C78.2549 240.937 77.5616 240.777 76.9882 240.457C76.4282 240.137 75.9749 239.717 75.6282 239.197C75.2949 238.663 75.0482 238.097 74.8882 237.497C74.7282 236.883 74.6482 236.303 74.6482 235.757C74.6482 235.023 74.7216 234.343 74.8682 233.717C75.0282 233.09 75.2749 232.543 75.6082 232.077C75.9549 231.597 76.4082 231.223 76.9682 230.957C77.5416 230.677 78.2416 230.537 79.0682 230.537C80.0016 230.537 80.8416 230.763 81.5882 231.217C82.3349 231.657 82.9282 232.27 83.3682 233.057C83.8082 233.83 84.0282 234.73 84.0282 235.757C84.0282 236.783 83.8016 237.69 83.3482 238.477C82.9082 239.25 82.3149 239.857 81.5682 240.297C80.8216 240.723 79.9882 240.937 79.0682 240.937ZM78.4082 239.097C79.0749 239.097 79.6616 238.957 80.1682 238.677C80.6749 238.397 81.0682 238.003 81.3482 237.497C81.6282 236.99 81.7682 236.41 81.7682 235.757C81.7682 234.757 81.4749 233.943 80.8882 233.317C80.3016 232.677 79.4749 232.357 78.4082 232.357C77.7416 232.357 77.1416 232.497 76.6082 232.777C76.0749 233.057 75.6549 233.45 75.3482 233.957C75.0416 234.45 74.8882 235.05 74.8882 235.757C74.8882 236.397 75.0282 236.97 75.3082 237.477C75.5882 237.983 75.9882 238.383 76.5082 238.677C77.0282 238.957 77.6616 239.097 78.4082 239.097ZM72.6682 230.757H74.7882L74.8882 233.197V244.717H72.6682V230.757Z" fill="#23A323"/>
</g>
<defs>
<filter id="filter0_d_4908_41035" x="55.1658" y="154.447" width="90.4185" height="142.902" filterUnits="userSpaceOnUse" color-interpolation-filters="sRGB">
<feFlood flood-opacity="0" result="BackgroundImageFix"/>
<feColorMatrix in="SourceAlpha" type="matrix" values="0 0 0 0 0 0 0 0 0 0 0 0 0 0 0 0 0 0 127 0" result="hardAlpha"/>
<feOffset dy="8"/>
<feGaussianBlur stdDeviation="10"/>
<feComposite in2="hardAlpha" operator="out"/>
<feColorMatrix type="matrix" values="0 0 0 0 0 0 0 0 0 0 0 0 0 0 0 0 0 0 0.12 0"/>
<feBlend mode="normal" in2="BackgroundImageFix" result="effect1_dropShadow_4908_41035"/>
<feBlend mode="normal" in="SourceGraphic" in2="effect1_dropShadow_4908_41035" result="shape"/>
</filter>
<clipPath id="clip0_4908_41035">
<rect width="608" height="255" rx="10" fill="white"/>
</clipPath>
</defs>
</svg>
