<svg width="31" height="30" viewBox="0 0 31 30" fill="none" xmlns="http://www.w3.org/2000/svg">
<circle cx="15.4952" cy="15.0773" r="14.6974" fill="#F0F5FF"/>
<path d="M11.8135 18.7591L10.0262 17.7761C9.89512 17.7046 9.82077 17.6005 9.80313 17.4637C9.7855 17.3269 9.82411 17.2106 9.91895 17.1148L10.1334 16.9003C10.1811 16.8526 10.2378 16.8198 10.3036 16.8016C10.3694 16.7835 10.4318 16.7807 10.4909 16.7931L12.0637 17.0075L14.8519 14.2193L9.99045 11.5741C9.81171 11.4788 9.70757 11.3299 9.67802 11.1273C9.64847 10.9247 9.70495 10.752 9.84746 10.609L10.0262 10.4302C10.1096 10.3468 10.2021 10.2932 10.3036 10.2694C10.4051 10.2455 10.5092 10.2455 10.616 10.2694L17.1039 11.9316L19.8922 9.17912C20.0947 8.97656 20.3449 8.87527 20.6428 8.87527C20.9407 8.87527 21.1909 8.97656 21.3935 9.17912C21.5961 9.38168 21.6973 9.6319 21.6973 9.92979C21.6973 10.2277 21.5961 10.4779 21.3935 10.6805L18.641 13.4687L20.3032 19.9209C20.3271 20.04 20.324 20.1563 20.2939 20.2698C20.2639 20.3832 20.2074 20.4814 20.1245 20.5643L20.0351 20.6537C19.8683 20.8205 19.6746 20.886 19.4539 20.8503C19.2332 20.8145 19.0695 20.6954 18.9628 20.4928L16.3533 15.7207L13.5651 18.5089L13.7795 20.046C13.7915 20.1294 13.7855 20.2068 13.7617 20.2783C13.7378 20.3498 13.6961 20.4154 13.6366 20.4749L13.5472 20.5643C13.428 20.6835 13.2851 20.734 13.1182 20.7159C12.9514 20.6978 12.8263 20.6115 12.7429 20.4571L11.8135 18.7591Z" fill="#2D79FD"/>
</svg>
