<svg width="1219" height="143" viewBox="0 0 1219 143" fill="none" xmlns="http://www.w3.org/2000/svg">
<path d="M0.639551 10.3219H125.04V29.9219H0.639551V10.3219ZM51.6396 27.5219H74.2396V139.922H51.6396V27.5219ZM212.571 139.922V82.3219C212.571 76.9885 211.637 72.5885 209.771 69.1219C208.037 65.5219 205.304 62.7885 201.571 60.9219C197.837 59.0552 192.904 58.1219 186.771 58.1219C180.637 58.1219 175.037 59.4552 169.971 62.1219C164.904 64.6552 160.771 68.0552 157.571 72.3219C154.371 76.5885 152.504 81.3219 151.971 86.5219L151.771 75.3219C152.437 70.5219 153.904 65.9219 156.171 61.5219C158.437 56.9885 161.437 52.9885 165.171 49.5219C168.904 46.0552 173.304 43.3219 178.371 41.3219C183.437 39.1885 189.037 38.1219 195.171 38.1219C200.904 38.1219 206.171 38.9219 210.971 40.5219C215.904 42.1219 220.104 44.5219 223.571 47.7219C227.171 50.7885 229.904 54.6552 231.771 59.3219C233.771 63.8552 234.771 69.1219 234.771 75.1219V139.922H212.571ZM130.971 139.922V0.321872H153.171V139.922H130.971ZM342.64 107.122H364.04C362.973 113.922 360.306 119.989 356.04 125.322C351.906 130.522 346.24 134.655 339.04 137.722C331.84 140.655 323.24 142.122 313.24 142.122C301.906 142.122 291.773 140.055 282.84 135.922C273.906 131.655 266.906 125.655 261.84 117.922C256.773 110.189 254.24 100.989 254.24 90.3219C254.24 79.7885 256.706 70.5885 261.64 62.7219C266.573 54.8552 273.373 48.7885 282.04 44.5219C290.84 40.2552 300.973 38.1219 312.44 38.1219C324.306 38.1219 334.173 40.2552 342.04 44.5219C350.04 48.6552 355.973 54.9219 359.84 63.3219C363.706 71.5885 365.306 82.0552 364.64 94.7219H276.84C277.506 100.322 279.306 105.389 282.24 109.922C285.306 114.322 289.44 117.789 294.64 120.322C299.84 122.722 305.906 123.922 312.84 123.922C320.573 123.922 327.04 122.389 332.24 119.322C337.573 116.255 341.04 112.189 342.64 107.122ZM311.84 56.1219C302.773 56.1219 295.306 58.3885 289.44 62.9219C283.573 67.3219 279.773 72.9885 278.04 79.9219H342.24C341.706 72.4552 338.706 66.6552 333.24 62.5219C327.773 58.2552 320.64 56.1219 311.84 56.1219ZM452.933 96.5219V77.5219H505.333C512.667 77.5219 518.533 75.3885 522.933 71.1219C527.467 66.8552 529.733 61.1219 529.733 53.9219C529.733 46.4552 527.467 40.6552 522.933 36.5219C518.533 32.2552 512.667 30.1219 505.333 30.1219H456.133V139.922H433.333V10.3219H503.733C510.533 10.3219 516.867 11.2552 522.733 13.1219C528.6 14.8552 533.733 17.5219 538.133 21.1219C542.667 24.7219 546.133 29.2552 548.533 34.7219C551.067 40.0552 552.333 46.4552 552.333 53.9219C552.333 61.2552 551.067 67.6552 548.533 73.1219C546.133 78.4552 542.667 82.8552 538.133 86.3219C533.733 89.7885 528.6 92.3885 522.733 94.1219C516.867 95.7219 510.533 96.5219 503.733 96.5219H452.933ZM574.088 40.3219H596.288V139.922H574.088V40.3219ZM632.288 59.3219C625.088 59.3219 618.888 60.8552 613.688 63.9219C608.621 66.9885 604.555 70.7219 601.488 75.1219C598.421 79.5219 596.288 83.7885 595.088 87.9219L594.888 76.7219C595.021 75.2552 595.488 73.0552 596.288 70.1219C597.088 67.0552 598.288 63.7219 599.888 60.1219C601.621 56.5219 603.888 53.0552 606.688 49.7219C609.621 46.2552 613.155 43.4552 617.288 41.3219C621.555 39.1885 626.555 38.1219 632.288 38.1219V59.3219ZM702.088 142.122C691.021 142.122 681.088 140.122 672.288 136.122C663.488 132.122 656.555 126.255 651.488 118.522C646.421 110.789 643.888 101.389 643.888 90.3219C643.888 79.3885 646.421 70.0552 651.488 62.3219C656.555 54.4552 663.488 48.4552 672.288 44.3219C681.088 40.1885 691.021 38.1219 702.088 38.1219C713.155 38.1219 723.021 40.1885 731.688 44.3219C740.355 48.4552 747.155 54.4552 752.088 62.3219C757.155 70.0552 759.688 79.3885 759.688 90.3219C759.688 101.389 757.155 110.789 752.088 118.522C747.155 126.255 740.355 132.122 731.688 136.122C723.021 140.122 713.155 142.122 702.088 142.122ZM702.088 123.922C708.488 123.922 714.355 122.655 719.688 120.122C725.021 117.589 729.221 113.789 732.288 108.722C735.488 103.655 737.088 97.5219 737.088 90.3219C737.088 83.1219 735.488 76.9885 732.288 71.9219C729.221 66.8552 725.021 62.9885 719.688 60.3219C714.488 57.5219 708.621 56.1219 702.088 56.1219C695.555 56.1219 689.621 57.4552 684.288 60.1219C678.955 62.7885 674.621 66.6552 671.288 71.7219C668.088 76.7885 666.488 82.9885 666.488 90.3219C666.488 97.5219 668.088 103.655 671.288 108.722C674.488 113.789 678.755 117.589 684.088 120.122C689.555 122.655 695.555 123.922 702.088 123.922ZM886.757 101.322C885.957 109.855 883.223 117.189 878.557 123.322C873.89 129.455 867.623 134.122 859.757 137.322C852.023 140.522 843.09 142.122 832.957 142.122C822.023 142.122 812.09 140.122 803.157 136.122C794.357 132.122 787.357 126.255 782.157 118.522C776.957 110.789 774.357 101.389 774.357 90.3219C774.357 79.2552 776.957 69.8552 782.157 62.1219C787.357 54.3885 794.357 48.4552 803.157 44.3219C812.09 40.1885 822.023 38.1219 832.957 38.1219C843.09 38.1219 852.023 39.7885 859.757 43.1219C867.49 46.3219 873.69 50.9219 878.357 56.9219C883.023 62.9219 885.757 70.1885 886.557 78.7219H866.157C863.89 71.6552 859.757 66.1885 853.757 62.3219C847.89 58.3219 840.957 56.3219 832.957 56.3219C826.423 56.3219 820.423 57.6552 814.957 60.3219C809.49 62.8552 805.09 66.6552 801.757 71.7219C798.557 76.6552 796.957 82.8552 796.957 90.3219C796.957 97.6552 798.557 103.855 801.757 108.922C805.09 113.989 809.49 117.789 814.957 120.322C820.423 122.722 826.423 123.922 832.957 123.922C841.757 123.922 848.957 121.989 854.557 118.122C860.29 114.122 864.223 108.522 866.357 101.322H886.757ZM989.515 107.122H1010.91C1009.85 113.922 1007.18 119.989 1002.91 125.322C998.781 130.522 993.115 134.655 985.915 137.722C978.715 140.655 970.115 142.122 960.115 142.122C948.781 142.122 938.648 140.055 929.715 135.922C920.781 131.655 913.781 125.655 908.715 117.922C903.648 110.189 901.115 100.989 901.115 90.3219C901.115 79.7885 903.581 70.5885 908.515 62.7219C913.448 54.8552 920.248 48.7885 928.915 44.5219C937.715 40.2552 947.848 38.1219 959.315 38.1219C971.181 38.1219 981.048 40.2552 988.915 44.5219C996.915 48.6552 1002.85 54.9219 1006.71 63.3219C1010.58 71.5885 1012.18 82.0552 1011.51 94.7219H923.715C924.381 100.322 926.181 105.389 929.115 109.922C932.181 114.322 936.315 117.789 941.515 120.322C946.715 122.722 952.781 123.922 959.715 123.922C967.448 123.922 973.915 122.389 979.115 119.322C984.448 116.255 987.915 112.189 989.515 107.122ZM958.715 56.1219C949.648 56.1219 942.181 58.3885 936.315 62.9219C930.448 67.3219 926.648 72.9885 924.915 79.9219H989.115C988.581 72.4552 985.581 66.6552 980.115 62.5219C974.648 58.2552 967.515 56.1219 958.715 56.1219ZM1026.91 107.122H1047.51C1048.58 112.189 1051.31 116.322 1055.71 119.522C1060.11 122.589 1066.05 124.122 1073.51 124.122C1078.31 124.122 1082.05 123.589 1084.71 122.522C1087.51 121.455 1089.45 119.989 1090.51 118.122C1091.71 116.255 1092.31 114.122 1092.31 111.722C1092.31 108.789 1091.45 106.522 1089.71 104.922C1088.11 103.322 1085.71 101.989 1082.51 100.922C1079.31 99.8552 1075.31 98.9219 1070.51 98.1219C1065.58 96.9219 1060.71 95.5885 1055.91 94.1219C1051.11 92.6552 1046.78 90.8552 1042.91 88.7219C1039.05 86.4552 1035.98 83.6552 1033.71 80.3219C1031.58 76.8552 1030.51 72.6552 1030.51 67.7219C1030.51 63.1885 1031.51 59.1219 1033.51 55.5219C1035.65 51.7885 1038.58 48.6552 1042.31 46.1219C1046.05 43.5885 1050.45 41.6552 1055.51 40.3219C1060.58 38.8552 1066.11 38.1219 1072.11 38.1219C1080.78 38.1219 1087.98 39.5219 1093.71 42.3219C1099.58 45.1219 1103.98 49.0552 1106.91 54.1219C1109.98 59.1885 1111.51 64.9885 1111.51 71.5219H1091.91C1090.85 66.1885 1088.78 62.3219 1085.71 59.9219C1082.65 57.5219 1078.05 56.3219 1071.91 56.3219C1065.78 56.3219 1061.11 57.3885 1057.91 59.5219C1054.71 61.6552 1053.11 64.5885 1053.11 68.3219C1053.11 71.1219 1054.11 73.3885 1056.11 75.1219C1058.25 76.7219 1061.25 78.1219 1065.11 79.3219C1068.98 80.5219 1073.51 81.7219 1078.71 82.9219C1083.51 84.2552 1088.05 85.6552 1092.31 87.1219C1096.58 88.4552 1100.38 90.1885 1103.71 92.3219C1107.18 94.3219 1109.91 96.9885 1111.91 100.322C1113.91 103.655 1114.91 107.789 1114.91 112.722C1114.91 118.855 1113.25 124.122 1109.91 128.522C1106.71 132.922 1102.05 136.322 1095.91 138.722C1089.78 140.989 1082.38 142.122 1073.71 142.122C1066.11 142.122 1059.51 141.255 1053.91 139.522C1048.45 137.789 1043.85 135.522 1040.11 132.722C1036.51 129.922 1033.71 126.922 1031.71 123.722C1029.71 120.522 1028.31 117.455 1027.51 114.522C1026.85 111.589 1026.65 109.122 1026.91 107.122ZM1130.63 107.122H1151.23C1152.29 112.189 1155.03 116.322 1159.43 119.522C1163.83 122.589 1169.76 124.122 1177.23 124.122C1182.03 124.122 1185.76 123.589 1188.43 122.522C1191.23 121.455 1193.16 119.989 1194.23 118.122C1195.43 116.255 1196.03 114.122 1196.03 111.722C1196.03 108.789 1195.16 106.522 1193.43 104.922C1191.83 103.322 1189.43 101.989 1186.23 100.922C1183.03 99.8552 1179.03 98.9219 1174.23 98.1219C1169.29 96.9219 1164.43 95.5885 1159.63 94.1219C1154.83 92.6552 1150.49 90.8552 1146.63 88.7219C1142.76 86.4552 1139.69 83.6552 1137.43 80.3219C1135.29 76.8552 1134.23 72.6552 1134.23 67.7219C1134.23 63.1885 1135.23 59.1219 1137.23 55.5219C1139.36 51.7885 1142.29 48.6552 1146.03 46.1219C1149.76 43.5885 1154.16 41.6552 1159.23 40.3219C1164.29 38.8552 1169.83 38.1219 1175.83 38.1219C1184.49 38.1219 1191.69 39.5219 1197.43 42.3219C1203.29 45.1219 1207.69 49.0552 1210.63 54.1219C1213.69 59.1885 1215.23 64.9885 1215.23 71.5219H1195.63C1194.56 66.1885 1192.49 62.3219 1189.43 59.9219C1186.36 57.5219 1181.76 56.3219 1175.63 56.3219C1169.49 56.3219 1164.83 57.3885 1161.63 59.5219C1158.43 61.6552 1156.83 64.5885 1156.83 68.3219C1156.83 71.1219 1157.83 73.3885 1159.83 75.1219C1161.96 76.7219 1164.96 78.1219 1168.83 79.3219C1172.69 80.5219 1177.23 81.7219 1182.43 82.9219C1187.23 84.2552 1191.76 85.6552 1196.03 87.1219C1200.29 88.4552 1204.09 90.1885 1207.43 92.3219C1210.89 94.3219 1213.63 96.9885 1215.63 100.322C1217.63 103.655 1218.63 107.789 1218.63 112.722C1218.63 118.855 1216.96 124.122 1213.63 128.522C1210.43 132.922 1205.76 136.322 1199.63 138.722C1193.49 140.989 1186.09 142.122 1177.43 142.122C1169.83 142.122 1163.23 141.255 1157.63 139.522C1152.16 137.789 1147.56 135.522 1143.83 132.722C1140.23 129.922 1137.43 126.922 1135.43 123.722C1133.43 120.522 1132.03 117.455 1131.23 114.522C1130.56 111.589 1130.36 109.122 1130.63 107.122Z" fill="#F3F4F6"/>
</svg>
