<svg width="261" height="252" viewBox="0 0 261 252" fill="none" xmlns="http://www.w3.org/2000/svg">
<g clip-path="url(#clip0_7417_71371)">
<path d="M96.0942 112.7L96.4142 111.1C107.294 111.526 117.321 112.7 126.494 114.62C135.668 116.326 143.561 119.1 150.174 122.94C157.001 126.78 162.228 132.006 165.854 138.62C169.694 145.233 171.614 153.553 171.614 163.58C171.614 175.1 168.201 185.446 161.374 194.62C154.761 203.793 145.374 211.046 133.214 216.38C121.054 221.713 106.761 224.38 90.3342 224.38C74.5476 224.38 60.5742 221.5 48.4142 215.74C36.2542 210.193 26.8676 202.62 20.2542 193.02C13.8542 183.42 11.0809 172.54 11.9342 160.38H45.5342C45.7476 166.78 47.5609 172.433 50.9742 177.34C54.6009 182.246 59.7209 186.086 66.3342 188.86C73.1609 191.633 81.1609 193.02 90.3342 193.02C104.414 193.02 115.188 190.033 122.654 184.06C130.334 178.3 134.174 170.086 134.174 159.42C134.174 148.753 129.801 140.86 121.054 135.74C112.521 130.406 100.468 127.74 84.8942 127.74H60.8942V98.9397H84.8942C95.5609 98.9397 104.308 97.9797 111.134 96.0597C117.961 93.9264 122.974 90.7264 126.174 86.4597C129.374 81.9797 130.974 76.5397 130.974 70.1397C130.974 60.9664 127.668 53.7131 121.054 48.3797C114.654 43.0464 104.414 40.3797 90.3342 40.3797C77.3209 40.3797 67.0809 43.1531 59.6142 48.6997C52.1476 54.2464 48.3076 61.6064 48.0942 70.7797H14.1742C13.5342 61.3931 15.0276 52.9664 18.6542 45.4997C22.4942 38.0331 27.9342 31.6331 34.9742 26.2997C42.2276 20.7531 50.5476 16.4864 59.9342 13.4997C69.5342 10.513 79.6676 9.01971 90.3342 9.01971C106.334 9.01971 120.094 11.473 131.614 16.3797C143.348 21.0731 152.308 27.6864 158.494 36.2197C164.681 44.7531 167.774 54.5664 167.774 65.6597C167.774 74.8331 165.961 82.4064 162.334 88.3797C158.921 94.3531 153.908 99.1531 147.294 102.78C140.894 106.193 133.321 108.646 124.574 110.14C116.041 111.633 106.548 112.486 96.0942 112.7Z" fill="white" fill-opacity="0.17"/>
<g filter="url(#filter0_b_7417_71371)">
<rect x="126.075" y="129.623" width="125.093" height="113.097" rx="10" fill="white" fill-opacity="0.22"/>
<rect x="126.075" y="129.623" width="125.093" height="113.097" rx="10" stroke="url(#paint0_linear_7417_71371)" stroke-width="2"/>
</g>
<path fill-rule="evenodd" clip-rule="evenodd" d="M210.903 151.463C209.472 151.463 208.161 151.463 207.097 151.605C205.922 151.763 204.683 152.133 203.662 153.157C202.638 154.178 202.268 155.417 202.11 156.593C201.968 157.66 201.968 158.971 201.968 160.398V203.636C201.968 205.066 201.968 206.377 202.11 207.441C202.268 208.617 202.638 209.856 203.662 210.876C204.683 211.9 205.922 212.27 207.097 212.429C208.164 212.571 209.476 212.571 210.903 212.571H211.2C212.63 212.571 213.942 212.571 215.005 212.429C216.181 212.27 217.42 211.9 218.44 210.876C219.464 209.856 219.834 208.617 219.993 207.441C220.135 206.374 220.135 205.063 220.135 203.636V160.398C220.135 158.968 220.135 157.656 219.993 156.593C219.834 155.417 219.464 154.178 218.44 153.157C217.42 152.133 216.181 151.763 215.005 151.605C213.938 151.463 212.627 151.463 211.2 151.463H210.903ZM207.17 156.655L207.164 156.659L207.16 156.669C207.089 156.857 207.042 157.053 207.022 157.253C206.929 157.947 206.922 158.918 206.922 160.547V203.487C206.922 205.116 206.929 206.087 207.022 206.78C207.042 206.98 207.089 207.177 207.16 207.365L207.164 207.375L207.173 207.378L207.183 207.385L207.206 207.395C207.279 207.425 207.438 207.474 207.758 207.517C208.452 207.61 209.423 207.616 211.051 207.616C212.68 207.616 213.651 207.61 214.345 207.517C214.545 207.496 214.741 207.45 214.929 207.378L214.939 207.375L214.942 207.365C215.014 207.177 215.06 206.98 215.081 206.78C215.174 206.087 215.18 205.116 215.18 203.487V160.547C215.18 158.918 215.174 157.947 215.081 157.253C215.06 157.053 215.014 156.857 214.942 156.669L214.939 156.659L214.929 156.655C214.741 156.584 214.545 156.537 214.345 156.517C213.651 156.424 212.68 156.418 211.051 156.418C209.423 156.418 208.452 156.424 207.758 156.517C207.558 156.537 207.358 156.584 207.17 156.655ZM187.781 161.372H188.078C189.508 161.372 190.82 161.372 191.883 161.514C193.059 161.673 194.298 162.043 195.319 163.067C196.342 164.087 196.712 165.326 196.871 166.502C197.013 167.569 197.013 168.88 197.013 170.307V203.636C197.013 205.066 197.013 206.377 196.871 207.441C196.712 208.617 196.342 209.856 195.319 210.876C194.298 211.9 193.059 212.27 191.883 212.429C190.816 212.571 189.505 212.571 188.078 212.571H187.781C186.354 212.571 185.039 212.571 183.976 212.429C182.8 212.27 181.561 211.9 180.54 210.876C179.516 209.856 179.146 208.617 178.988 207.441C178.846 206.374 178.846 205.063 178.846 203.636V170.307C178.846 168.877 178.846 167.566 178.988 166.502C179.146 165.326 179.516 164.087 180.54 163.067C181.561 162.043 182.8 161.673 183.976 161.514C185.042 161.372 186.354 161.372 187.781 161.372ZM184.042 166.568L184.052 166.565L184.042 207.375L184.038 207.365C183.967 207.177 183.92 206.98 183.9 206.78C183.807 206.087 183.8 205.116 183.8 203.487V170.456C183.8 168.827 183.807 167.856 183.9 167.163C183.92 166.963 183.967 166.766 184.038 166.578L184.042 166.568ZM184.042 207.375L184.052 166.565L184.061 166.558L184.085 166.548C184.263 166.485 184.448 166.444 184.636 166.426C185.33 166.334 186.301 166.327 187.929 166.327C189.558 166.327 190.529 166.334 191.223 166.426C191.423 166.447 191.619 166.493 191.807 166.565L191.817 166.568L191.82 166.578C191.892 166.766 191.938 166.963 191.959 167.163C192.052 167.856 192.058 168.827 192.058 170.456V203.487C192.058 205.116 192.052 206.087 191.959 206.78C191.939 206.98 191.892 207.177 191.82 207.365L191.817 207.375L191.807 207.378C191.797 207.385 191.786 207.39 191.774 207.395C191.596 207.458 191.411 207.499 191.223 207.517C190.529 207.61 189.558 207.616 187.929 207.616C186.301 207.616 185.33 207.61 184.636 207.517C184.436 207.496 184.24 207.45 184.052 207.378L184.042 207.375ZM164.659 174.585C163.229 174.585 161.917 174.585 160.854 174.727C159.678 174.885 158.439 175.255 157.418 176.279C156.394 177.3 156.024 178.539 155.866 179.715C155.724 180.781 155.724 182.093 155.724 183.52V203.636C155.724 205.066 155.724 206.377 155.866 207.441C156.024 208.617 156.394 209.856 157.418 210.876C158.439 211.9 159.678 212.27 160.854 212.429C161.921 212.571 163.232 212.571 164.659 212.571H164.956C166.386 212.571 167.698 212.571 168.761 212.429C169.937 212.27 171.176 211.9 172.197 210.876C173.221 209.856 173.591 208.617 173.749 207.441C173.891 206.374 173.891 205.063 173.891 203.636V183.52C173.891 182.09 173.891 180.778 173.749 179.715C173.591 178.539 173.221 177.3 172.197 176.279C171.176 175.255 169.937 174.885 168.761 174.727C167.694 174.585 166.383 174.585 164.956 174.585H164.659ZM160.926 179.777L160.92 179.781L160.916 179.791C160.845 179.979 160.799 180.175 160.778 180.375C160.685 181.069 160.679 182.04 160.679 183.668V203.487C160.679 205.116 160.685 206.087 160.778 206.78C160.798 206.98 160.845 207.177 160.916 207.365V207.372L160.93 207.378C161.118 207.45 161.314 207.496 161.514 207.517C162.208 207.61 163.179 207.616 164.807 207.616C166.436 207.616 167.407 207.61 168.101 207.517C168.301 207.496 168.497 207.45 168.685 207.378L168.695 207.375L168.699 207.365L168.705 207.352L168.715 207.332C168.778 207.154 168.819 206.969 168.837 206.78C168.93 206.087 168.936 205.116 168.936 203.487V183.668C168.936 182.04 168.93 181.069 168.837 180.375C168.816 180.175 168.77 179.979 168.699 179.791L168.695 179.781L168.685 179.777C168.497 179.706 168.301 179.659 168.101 179.639C167.407 179.546 166.436 179.54 164.807 179.54C163.179 179.54 162.208 179.546 161.514 179.639C161.314 179.659 161.114 179.706 160.926 179.777Z" fill="white"/>
<path d="M158.201 217.525C157.544 217.525 156.914 217.786 156.449 218.251C155.985 218.716 155.724 219.346 155.724 220.003C155.724 220.66 155.985 221.29 156.449 221.754C156.914 222.219 157.544 222.48 158.201 222.48H217.658C218.315 222.48 218.945 222.219 219.409 221.754C219.874 221.29 220.135 220.66 220.135 220.003C220.135 219.346 219.874 218.716 219.409 218.251C218.945 217.786 218.315 217.525 217.658 217.525H158.201Z" fill="white"/>
</g>
<defs>
<filter id="filter0_b_7417_71371" x="25.0752" y="28.6226" width="327.093" height="315.097" filterUnits="userSpaceOnUse" color-interpolation-filters="sRGB">
<feFlood flood-opacity="0" result="BackgroundImageFix"/>
<feGaussianBlur in="BackgroundImageFix" stdDeviation="50"/>
<feComposite in2="SourceAlpha" operator="in" result="effect1_backgroundBlur_7417_71371"/>
<feBlend mode="normal" in="SourceGraphic" in2="effect1_backgroundBlur_7417_71371" result="shape"/>
</filter>
<linearGradient id="paint0_linear_7417_71371" x1="188.621" y1="129.623" x2="188.621" y2="242.72" gradientUnits="userSpaceOnUse">
<stop stop-color="white"/>
<stop offset="1" stop-color="white" stop-opacity="0"/>
</linearGradient>
<clipPath id="clip0_7417_71371">
<rect width="261" height="252" fill="white"/>
</clipPath>
</defs>
</svg>
