<svg width="456" height="169" viewBox="0 0 456 169" fill="none" xmlns="http://www.w3.org/2000/svg">
<path d="M44.2736 18.0231H88.6036V25.2381H44.2736V18.0231ZM62.1486 24.3281H70.7936V60.0781H62.1486V24.3281ZM119.929 60.0781V42.3331C119.929 40.5565 119.625 39.0831 119.019 37.9131C118.412 36.7431 117.437 35.8548 116.094 35.2481C114.794 34.6415 113.039 34.3381 110.829 34.3381C108.705 34.3381 106.777 34.7498 105.044 35.5731C103.31 36.3531 101.902 37.3931 100.819 38.6931C99.7352 39.9498 99.1286 41.2931 98.9986 42.7231L98.9336 39.1481C99.1502 37.7181 99.6486 36.2881 100.429 34.8581C101.209 33.4281 102.249 32.1281 103.549 30.9581C104.849 29.7881 106.409 28.8565 108.229 28.1631C110.092 27.4265 112.172 27.0581 114.469 27.0581C116.462 27.0581 118.304 27.3181 119.994 27.8381C121.684 28.3148 123.157 29.0731 124.414 30.1131C125.67 31.1531 126.645 32.4531 127.339 34.0131C128.032 35.5298 128.379 37.3281 128.379 39.4081V60.0781H119.929ZM91.0036 60.0781V14.7731H99.4536V60.0781H91.0036ZM136.058 27.7731H144.508V60.0781H136.058V27.7731ZM156.923 34.7281C154.497 34.7281 152.395 35.2048 150.618 36.1581C148.842 37.0681 147.412 38.1948 146.328 39.5381C145.245 40.8815 144.487 42.1815 144.053 43.4381L143.988 39.8631C144.032 39.3431 144.205 38.5848 144.508 37.5881C144.812 36.5481 145.267 35.4431 145.873 34.2731C146.48 33.0598 147.282 31.9115 148.278 30.8281C149.275 29.7015 150.488 28.7915 151.918 28.0981C153.348 27.4048 155.017 27.0581 156.923 27.0581V34.7281ZM171.832 13.6031V21.0131H162.017V13.6031H171.832ZM162.667 27.7731H171.117V60.0781H162.667V27.7731ZM197.35 54.5531H194.295L206.125 27.7731H215.355L199.82 60.0781H191.825L176.615 27.7731H185.91L197.35 54.5531ZM248.277 49.3531H256.467C256.12 51.5631 255.188 53.5348 253.672 55.2681C252.198 57.0015 250.183 58.3665 247.627 59.3631C245.07 60.3598 241.95 60.8581 238.267 60.8581C234.15 60.8581 230.51 60.2081 227.347 58.9081C224.183 57.5648 221.713 55.6365 219.937 53.1231C218.16 50.6098 217.272 47.5765 217.272 44.0231C217.272 40.4698 218.138 37.4365 219.872 34.9231C221.605 32.3665 224.01 30.4165 227.087 29.0731C230.207 27.7298 233.847 27.0581 238.007 27.0581C242.253 27.0581 245.785 27.7298 248.602 29.0731C251.418 30.4165 253.498 32.4531 254.842 35.1831C256.228 37.8698 256.813 41.3148 256.597 45.5181H225.787C226.003 47.1648 226.61 48.6598 227.607 50.0031C228.647 51.3465 230.033 52.4081 231.767 53.1881C233.543 53.9681 235.645 54.3581 238.072 54.3581C240.758 54.3581 242.99 53.9031 244.767 52.9931C246.587 52.0398 247.757 50.8265 248.277 49.3531ZM237.617 33.4931C234.497 33.4931 231.962 34.1865 230.012 35.5731C228.062 36.9165 226.805 38.5848 226.242 40.5781H248.212C247.995 38.4115 246.955 36.6998 245.092 35.4431C243.272 34.1431 240.78 33.4931 237.617 33.4931ZM320.683 54.2281L318.018 54.1631L328.548 27.7731H337.843L323.608 60.0781H315.678L305.278 34.0131H308.138L297.413 60.0781H289.483L275.638 27.7731H284.933L295.073 54.2281H292.408L301.898 27.7731H311.583L320.683 54.2281ZM352.486 13.6031V21.0131H342.671V13.6031H352.486ZM343.321 27.7731H351.771V60.0781H343.321V27.7731ZM357.919 27.7731H383.009V34.3381H357.919V27.7731ZM366.239 18.9331H374.689V60.0781H366.239V18.9331ZM417.888 60.0781V42.3331C417.888 40.5565 417.584 39.0831 416.978 37.9131C416.371 36.7431 415.396 35.8548 414.053 35.2481C412.753 34.6415 410.998 34.3381 408.788 34.3381C406.664 34.3381 404.736 34.7498 403.003 35.5731C401.269 36.3531 399.861 37.3931 398.778 38.6931C397.694 39.9498 397.088 41.2931 396.958 42.7231L396.893 39.1481C397.109 37.7181 397.608 36.2881 398.388 34.8581C399.168 33.4281 400.208 32.1281 401.508 30.9581C402.808 29.7881 404.368 28.8565 406.188 28.1631C408.051 27.4265 410.131 27.0581 412.428 27.0581C414.421 27.0581 416.263 27.3181 417.953 27.8381C419.643 28.3148 421.116 29.0731 422.373 30.1131C423.629 31.1531 424.604 32.4531 425.298 34.0131C425.991 35.5298 426.338 37.3281 426.338 39.4081V60.0781H417.888ZM388.963 60.0781V14.7731H397.413V60.0781H388.963Z" fill="black"/>
<path d="M55.5836 113.378H88.9286V120.593H55.5836V113.378ZM87.4986 96.0231H96.1436V138.078H87.4986V96.0231ZM47.9786 96.0231H56.6236V138.078H47.9786V96.0231ZM120.748 138.793C117.541 138.793 114.616 138.1 111.973 136.713C109.373 135.283 107.293 133.311 105.733 130.798C104.216 128.241 103.458 125.295 103.458 121.958C103.458 118.535 104.238 115.566 105.798 113.053C107.358 110.54 109.46 108.59 112.103 107.203C114.79 105.773 117.823 105.058 121.203 105.058C124.93 105.058 127.92 105.816 130.173 107.333C132.47 108.806 134.138 110.821 135.178 113.378C136.218 115.935 136.738 118.795 136.738 121.958C136.738 123.865 136.435 125.815 135.828 127.808C135.221 129.758 134.29 131.578 133.033 133.268C131.776 134.915 130.13 136.258 128.093 137.298C126.056 138.295 123.608 138.793 120.748 138.793ZM123.478 132.293C126.035 132.293 128.245 131.86 130.108 130.993C131.971 130.126 133.401 128.913 134.398 127.353C135.395 125.793 135.893 123.995 135.893 121.958C135.893 119.748 135.373 117.885 134.333 116.368C133.336 114.808 131.906 113.638 130.043 112.858C128.223 112.035 126.035 111.623 123.478 111.623C119.881 111.623 117.086 112.576 115.093 114.483C113.1 116.346 112.103 118.838 112.103 121.958C112.103 124.038 112.58 125.858 113.533 127.418C114.486 128.935 115.808 130.126 117.498 130.993C119.231 131.86 121.225 132.293 123.478 132.293ZM135.893 105.773H144.343V138.078H136.478C136.478 138.078 136.413 137.666 136.283 136.843C136.196 135.976 136.11 134.893 136.023 133.593C135.936 132.293 135.893 131.015 135.893 129.758V105.773ZM151.991 105.773H160.441V138.078H151.991V105.773ZM172.856 112.728C170.429 112.728 168.327 113.205 166.551 114.158C164.774 115.068 163.344 116.195 162.261 117.538C161.177 118.881 160.419 120.181 159.986 121.438L159.921 117.863C159.964 117.343 160.137 116.585 160.441 115.588C160.744 114.548 161.199 113.443 161.806 112.273C162.412 111.06 163.214 109.911 164.211 108.828C165.207 107.701 166.421 106.791 167.851 106.098C169.281 105.405 170.949 105.058 172.856 105.058V112.728ZM194.2 133.138C190.69 133.138 187.591 132.618 184.905 131.578C182.261 130.495 180.203 128.913 178.73 126.833C177.256 124.753 176.52 122.24 176.52 119.293C176.52 116.39 177.235 113.876 178.665 111.753C180.095 109.63 182.131 107.983 184.775 106.813C187.461 105.643 190.603 105.058 194.2 105.058C195.196 105.058 196.15 105.123 197.06 105.253C198.013 105.383 198.945 105.556 199.855 105.773L216.17 105.838V112.208C213.96 112.251 211.706 111.991 209.41 111.428C207.156 110.821 205.163 110.171 203.43 109.478L203.235 109.023C204.708 109.716 206.095 110.583 207.395 111.623C208.695 112.62 209.735 113.79 210.515 115.133C211.338 116.433 211.75 117.95 211.75 119.683C211.75 122.5 211.035 124.926 209.605 126.963C208.175 128.956 206.138 130.495 203.495 131.578C200.895 132.618 197.796 133.138 194.2 133.138ZM205.055 151.403V149.843C205.055 147.85 204.405 146.463 203.105 145.683C201.848 144.903 200.115 144.513 197.905 144.513H187.83C185.88 144.513 184.233 144.361 182.89 144.058C181.59 143.755 180.55 143.321 179.77 142.758C178.99 142.195 178.426 141.523 178.08 140.743C177.733 140.006 177.56 139.205 177.56 138.338C177.56 136.605 178.123 135.305 179.25 134.438C180.376 133.528 181.893 132.921 183.8 132.618C185.706 132.315 187.808 132.25 190.105 132.423L194.2 133.138C191.47 133.225 189.433 133.463 188.09 133.853C186.79 134.2 186.14 134.915 186.14 135.998C186.14 136.648 186.4 137.168 186.92 137.558C187.44 137.905 188.176 138.078 189.13 138.078H199.725C202.628 138.078 205.098 138.381 207.135 138.988C209.215 139.638 210.796 140.7 211.88 142.173C212.963 143.69 213.505 145.748 213.505 148.348V151.403H205.055ZM194.2 127.028C196.063 127.028 197.688 126.725 199.075 126.118C200.505 125.511 201.61 124.645 202.39 123.518C203.17 122.348 203.56 120.961 203.56 119.358C203.56 117.711 203.17 116.303 202.39 115.133C201.61 113.963 200.526 113.075 199.14 112.468C197.753 111.818 196.106 111.493 194.2 111.493C192.336 111.493 190.69 111.818 189.26 112.468C187.83 113.075 186.725 113.963 185.945 115.133C185.165 116.303 184.775 117.711 184.775 119.358C184.775 120.961 185.165 122.348 185.945 123.518C186.725 124.645 187.808 125.511 189.195 126.118C190.625 126.725 192.293 127.028 194.2 127.028ZM240.162 138.858C236.088 138.858 232.492 138.208 229.372 136.908C226.295 135.608 223.89 133.723 222.157 131.253C220.423 128.74 219.557 125.663 219.557 122.023C219.557 118.383 220.423 115.306 222.157 112.793C223.89 110.236 226.295 108.308 229.372 107.008C232.492 105.708 236.088 105.058 240.162 105.058C244.235 105.058 247.788 105.708 250.822 107.008C253.898 108.308 256.303 110.236 258.037 112.793C259.77 115.306 260.637 118.383 260.637 122.023C260.637 125.663 259.77 128.74 258.037 131.253C256.303 133.723 253.898 135.608 250.822 136.908C247.788 138.208 244.235 138.858 240.162 138.858ZM240.162 132.358C242.415 132.358 244.43 131.968 246.207 131.188C248.027 130.365 249.457 129.195 250.497 127.678C251.537 126.118 252.057 124.233 252.057 122.023C252.057 119.813 251.537 117.928 250.497 116.368C249.457 114.765 248.048 113.551 246.272 112.728C244.495 111.905 242.458 111.493 240.162 111.493C237.908 111.493 235.872 111.905 234.052 112.728C232.232 113.551 230.78 114.743 229.697 116.303C228.657 117.863 228.137 119.77 228.137 122.023C228.137 124.233 228.657 126.118 229.697 127.678C230.737 129.195 232.167 130.365 233.987 131.188C235.807 131.968 237.865 132.358 240.162 132.358ZM266.883 105.773H275.333V138.078H266.883V105.773ZM290.348 105.058C292.342 105.058 294.183 105.318 295.873 105.838C297.563 106.358 299.037 107.16 300.293 108.243C301.55 109.326 302.525 110.713 303.218 112.403C303.912 114.05 304.258 116.021 304.258 118.318V138.078H295.808V119.813C295.808 117.083 295.137 115.09 293.793 113.833C292.493 112.533 290.348 111.883 287.358 111.883C285.105 111.883 283.068 112.316 281.248 113.183C279.428 114.05 277.955 115.155 276.828 116.498C275.702 117.798 275.052 119.163 274.878 120.593L274.813 117.278C275.03 115.761 275.528 114.288 276.308 112.858C277.088 111.428 278.128 110.128 279.428 108.958C280.772 107.745 282.353 106.791 284.173 106.098C285.993 105.405 288.052 105.058 290.348 105.058Z" fill="#23A323"/>
<path d="M176.676 84.5116C93.5102 82.3674 -53.2728 89.1394 24.92 133.381C122.661 188.683 433.889 166.819 341.292 125.665C248.695 84.5117 163.815 94.7998 140.666 101.23" stroke="#23A323" stroke-width="4" stroke-linecap="round"/>
</svg>
