<svg width="397" height="124" viewBox="0 0 397 124" fill="none" xmlns="http://www.w3.org/2000/svg">
<g clip-path="url(#clip0_3320_31742)">
<path d="M9.42 42.56V37.52H23.4C25.72 37.52 27.58 36.82 28.98 35.42C30.42 34.02 31.14 32.18 31.14 29.9C31.14 27.54 30.42 25.68 28.98 24.32C27.58 22.96 25.72 22.28 23.4 22.28H10.38V56H4.62V17.06H23.16C25.08 17.06 26.86 17.34 28.5 17.9C30.18 18.42 31.64 19.22 32.88 20.3C34.16 21.38 35.14 22.72 35.82 24.32C36.54 25.92 36.9 27.78 36.9 29.9C36.9 31.98 36.54 33.82 35.82 35.42C35.14 37.02 34.16 38.36 32.88 39.44C31.64 40.48 30.18 41.26 28.5 41.78C26.86 42.3 25.08 42.56 23.16 42.56H9.42ZM54.6947 56.6C52.1347 56.6 49.7947 55.94 47.6747 54.62C45.5547 53.3 43.8747 51.48 42.6347 49.16C41.3947 46.8 40.7747 44.1 40.7747 41.06C40.7747 38.02 41.3947 35.34 42.6347 33.02C43.9147 30.66 45.6547 28.82 47.8547 27.5C50.0547 26.14 52.5147 25.46 55.2347 25.46C58.2347 25.46 60.5547 26.16 62.1947 27.56C63.8747 28.96 65.0347 30.84 65.6747 33.2C66.3547 35.56 66.6947 38.18 66.6947 41.06C66.6947 42.66 66.4947 44.36 66.0947 46.16C65.6947 47.96 65.0547 49.66 64.1747 51.26C63.2947 52.86 62.0747 54.16 60.5147 55.16C58.9547 56.12 57.0147 56.6 54.6947 56.6ZM56.3147 51.62C58.4347 51.62 60.2147 51.16 61.6547 50.24C63.1347 49.28 64.2347 48 64.9547 46.4C65.6747 44.8 66.0347 43.02 66.0347 41.06C66.0347 38.94 65.6547 37.08 64.8947 35.48C64.1747 33.88 63.0747 32.64 61.5947 31.76C60.1547 30.88 58.3947 30.44 56.3147 30.44C53.1947 30.44 50.7747 31.44 49.0547 33.44C47.3747 35.44 46.5347 37.98 46.5347 41.06C46.5347 43.14 46.9547 44.98 47.7947 46.58C48.6347 48.14 49.7747 49.38 51.2147 50.3C52.6947 51.18 54.3947 51.62 56.3147 51.62ZM66.0347 26.06H71.7947V56H66.5147C66.5147 56 66.4747 55.64 66.3947 54.92C66.3147 54.16 66.2347 53.26 66.1547 52.22C66.0747 51.18 66.0347 50.26 66.0347 49.46V26.06ZM76.6073 26.06H82.7273L94.1873 54.8L89.2073 56L76.6073 26.06ZM107.147 26.06L89.2073 68H83.1473L90.8873 51.74L101.087 26.06H107.147ZM123.425 56.6C120.825 56.6 118.465 55.94 116.345 54.62C114.225 53.3 112.545 51.48 111.305 49.16C110.105 46.8 109.505 44.1 109.505 41.06C109.505 38.02 110.105 35.34 111.305 33.02C112.505 30.66 114.145 28.82 116.225 27.5C118.305 26.14 120.705 25.46 123.425 25.46C125.785 25.46 127.745 25.86 129.305 26.66C130.865 27.46 132.085 28.58 132.965 30.02C133.845 31.46 134.465 33.12 134.825 35C135.225 36.88 135.425 38.9 135.425 41.06C135.425 42.66 135.225 44.36 134.825 46.16C134.425 47.96 133.785 49.66 132.905 51.26C132.025 52.86 130.805 54.16 129.245 55.16C127.685 56.12 125.745 56.6 123.425 56.6ZM125.045 51.62C127.165 51.62 128.945 51.16 130.385 50.24C131.865 49.28 132.965 48 133.685 46.4C134.405 44.8 134.765 43.02 134.765 41.06C134.765 38.94 134.385 37.08 133.625 35.48C132.905 33.88 131.805 32.64 130.325 31.76C128.885 30.88 127.125 30.44 125.045 30.44C121.925 30.44 119.505 31.44 117.785 33.44C116.105 35.44 115.265 37.98 115.265 41.06C115.265 43.14 115.685 44.98 116.525 46.58C117.365 48.14 118.505 49.38 119.945 50.3C121.425 51.18 123.125 51.62 125.045 51.62ZM134.765 14.06H140.525V56H135.245C135.125 55.12 135.005 54.04 134.885 52.76C134.805 51.48 134.765 50.38 134.765 49.46V14.06ZM161.453 56.6C158.893 56.6 156.553 55.94 154.433 54.62C152.313 53.3 150.633 51.48 149.393 49.16C148.153 46.8 147.533 44.1 147.533 41.06C147.533 38.02 148.153 35.34 149.393 33.02C150.673 30.66 152.413 28.82 154.613 27.5C156.813 26.14 159.273 25.46 161.993 25.46C164.993 25.46 167.313 26.16 168.953 27.56C170.633 28.96 171.793 30.84 172.433 33.2C173.113 35.56 173.453 38.18 173.453 41.06C173.453 42.66 173.253 44.36 172.853 46.16C172.453 47.96 171.813 49.66 170.933 51.26C170.053 52.86 168.833 54.16 167.273 55.16C165.713 56.12 163.773 56.6 161.453 56.6ZM163.073 51.62C165.193 51.62 166.973 51.16 168.413 50.24C169.893 49.28 170.993 48 171.713 46.4C172.433 44.8 172.793 43.02 172.793 41.06C172.793 38.94 172.413 37.08 171.653 35.48C170.933 33.88 169.833 32.64 168.353 31.76C166.913 30.88 165.153 30.44 163.073 30.44C159.953 30.44 157.533 31.44 155.813 33.44C154.133 35.44 153.293 37.98 153.293 41.06C153.293 43.14 153.713 44.98 154.553 46.58C155.393 48.14 156.533 49.38 157.973 50.3C159.453 51.18 161.153 51.62 163.073 51.62ZM172.793 26.06H178.553V56H173.273C173.273 56 173.233 55.64 173.153 54.92C173.073 54.16 172.993 53.26 172.913 52.22C172.833 51.18 172.793 50.26 172.793 49.46V26.06ZM183.365 26.06H189.485L200.945 54.8L195.965 56L183.365 26.06ZM213.905 26.06L195.965 68H189.905L197.645 51.74L207.845 26.06H213.905ZM232.603 14.06H238.363V56H232.603V14.06ZM261.053 56.66C258.133 56.66 255.453 56.04 253.013 54.8C250.573 53.56 248.633 51.78 247.193 49.46C245.753 47.14 245.033 44.36 245.033 41.12C245.033 37.84 245.753 35.04 247.193 32.72C248.633 30.36 250.573 28.56 253.013 27.32C255.453 26.08 258.133 25.46 261.053 25.46C263.973 25.46 266.633 26.08 269.033 27.32C271.433 28.56 273.353 30.36 274.793 32.72C276.233 35.04 276.953 37.84 276.953 41.12C276.953 44.36 276.233 47.14 274.793 49.46C273.353 51.78 271.433 53.56 269.033 54.8C266.633 56.04 263.973 56.66 261.053 56.66ZM261.053 51.68C262.853 51.68 264.513 51.28 266.033 50.48C267.593 49.64 268.833 48.44 269.753 46.88C270.713 45.28 271.193 43.36 271.193 41.12C271.193 38.84 270.713 36.9 269.753 35.3C268.833 33.7 267.593 32.48 266.033 31.64C264.513 30.8 262.853 30.38 261.053 30.38C259.253 30.38 257.573 30.8 256.013 31.64C254.453 32.44 253.193 33.64 252.233 35.24C251.273 36.84 250.793 38.8 250.793 41.12C250.793 43.36 251.253 45.28 252.173 46.88C253.133 48.44 254.393 49.64 255.953 50.48C257.513 51.28 259.213 51.68 261.053 51.68ZM295.339 56.6C292.779 56.6 290.439 55.94 288.319 54.62C286.199 53.3 284.519 51.48 283.279 49.16C282.039 46.8 281.419 44.1 281.419 41.06C281.419 38.02 282.039 35.34 283.279 33.02C284.559 30.66 286.299 28.82 288.499 27.5C290.699 26.14 293.159 25.46 295.879 25.46C298.879 25.46 301.199 26.16 302.839 27.56C304.519 28.96 305.679 30.84 306.319 33.2C306.999 35.56 307.339 38.18 307.339 41.06C307.339 42.66 307.139 44.36 306.739 46.16C306.339 47.96 305.699 49.66 304.819 51.26C303.939 52.86 302.719 54.16 301.159 55.16C299.599 56.12 297.659 56.6 295.339 56.6ZM296.959 51.62C299.079 51.62 300.859 51.16 302.299 50.24C303.779 49.28 304.879 48 305.599 46.4C306.319 44.8 306.679 43.02 306.679 41.06C306.679 38.94 306.299 37.08 305.539 35.48C304.819 33.88 303.719 32.64 302.239 31.76C300.799 30.88 299.039 30.44 296.959 30.44C293.839 30.44 291.419 31.44 289.699 33.44C288.019 35.44 287.179 37.98 287.179 41.06C287.179 43.14 287.599 44.98 288.439 46.58C289.279 48.14 290.419 49.38 291.859 50.3C293.339 51.18 295.039 51.62 296.959 51.62ZM306.679 26.06H312.439V56H307.159C307.159 56 307.119 55.64 307.039 54.92C306.959 54.16 306.879 53.26 306.799 52.22C306.719 51.18 306.679 50.26 306.679 49.46V26.06ZM319.952 26.06H325.712V56H319.952V26.06ZM337.112 25.46C338.792 25.46 340.312 25.7 341.672 26.18C343.032 26.66 344.192 27.38 345.152 28.34C346.112 29.26 346.852 30.42 347.372 31.82C347.932 33.18 348.212 34.74 348.212 36.5V56H342.512V37.76C342.512 35.4 341.932 33.64 340.772 32.48C339.652 31.28 337.932 30.68 335.612 30.68C333.812 30.68 332.172 31.1 330.692 31.94C329.212 32.78 327.992 33.9 327.032 35.3C326.112 36.66 325.552 38.2 325.352 39.92L325.292 36.62C325.492 35.02 325.912 33.54 326.552 32.18C327.232 30.82 328.072 29.64 329.072 28.64C330.112 27.6 331.312 26.82 332.672 26.3C334.032 25.74 335.512 25.46 337.112 25.46ZM354.433 46.28H359.713C359.913 47.88 360.633 49.2 361.873 50.24C363.113 51.24 364.853 51.74 367.093 51.74C368.533 51.74 369.653 51.58 370.453 51.26C371.253 50.9 371.813 50.42 372.133 49.82C372.493 49.22 372.673 48.56 372.673 47.84C372.673 46.92 372.433 46.22 371.953 45.74C371.473 45.22 370.793 44.8 369.913 44.48C369.033 44.12 367.993 43.78 366.793 43.46C365.473 43.1 364.153 42.68 362.833 42.2C361.513 41.72 360.293 41.14 359.173 40.46C358.093 39.78 357.213 38.94 356.533 37.94C355.893 36.9 355.573 35.64 355.573 34.16C355.573 32.92 355.833 31.76 356.353 30.68C356.913 29.6 357.693 28.68 358.693 27.92C359.733 27.12 360.933 26.52 362.293 26.12C363.653 25.68 365.153 25.46 366.793 25.46C369.073 25.46 370.993 25.88 372.553 26.72C374.113 27.52 375.293 28.66 376.093 30.14C376.933 31.62 377.373 33.32 377.413 35.24H372.373C372.093 33.56 371.513 32.34 370.633 31.58C369.753 30.78 368.433 30.38 366.673 30.38C364.953 30.38 363.633 30.72 362.713 31.4C361.793 32.08 361.333 33 361.333 34.16C361.333 35.04 361.653 35.76 362.293 36.32C362.933 36.84 363.793 37.3 364.873 37.7C365.953 38.1 367.173 38.52 368.533 38.96C369.813 39.4 371.033 39.86 372.193 40.34C373.393 40.78 374.453 41.32 375.373 41.96C376.333 42.56 377.073 43.36 377.593 44.36C378.153 45.32 378.433 46.52 378.433 47.96C378.433 49.72 377.993 51.26 377.113 52.58C376.233 53.86 374.953 54.86 373.273 55.58C371.633 56.3 369.633 56.66 367.273 56.66C365.113 56.66 363.273 56.4 361.753 55.88C360.273 55.36 359.013 54.68 357.973 53.84C356.973 53 356.193 52.12 355.633 51.2C355.113 50.24 354.753 49.32 354.553 48.44C354.393 47.56 354.353 46.84 354.433 46.28Z" fill="#020518"/>
<path d="M162 99C171.716 118.085 201.754 124.987 219 99" stroke="#FFC00B" stroke-width="3.9479" stroke-linecap="round"/>
<path d="M2 65C66.0936 103.169 264.234 116.975 378 65" stroke="#FFC00B" stroke-width="3.9479" stroke-linecap="round"/>
</g>
<defs>
<clipPath id="clip0_3320_31742">
<rect width="397" height="124" fill="white"/>
</clipPath>
</defs>
</svg>
