<svg width="503" height="125" viewBox="0 0 503 125" fill="none" xmlns="http://www.w3.org/2000/svg">
<rect x="0.222656" y="31.0039" width="233.952" height="63.1055" rx="5" fill="white"/>
<path d="M94.2492 66.3606L93.8012 66.5206V57.6726H95.3532V68.0566H93.8012L86.5532 59.4006L87.0012 59.2406V68.0566H85.4652V57.6726H87.0012L94.2492 66.3606ZM101.487 68.2326C100.708 68.2326 99.9937 68.0673 99.343 67.7366C98.6924 67.406 98.175 66.9313 97.791 66.3126C97.407 65.694 97.215 64.9526 97.215 64.0886C97.215 63.214 97.407 62.4673 97.791 61.8486C98.175 61.2193 98.6924 60.7393 99.343 60.4086C99.9937 60.078 100.708 59.9126 101.487 59.9126C102.266 59.9126 102.975 60.078 103.615 60.4086C104.255 60.7393 104.767 61.2193 105.151 61.8486C105.535 62.4673 105.727 63.214 105.727 64.0886C105.727 64.9526 105.535 65.694 105.151 66.3126C104.767 66.9313 104.255 67.406 103.615 67.7366C102.975 68.0673 102.266 68.2326 101.487 68.2326ZM101.487 66.9046C101.967 66.9046 102.41 66.798 102.815 66.5846C103.231 66.3606 103.562 66.0406 103.807 65.6246C104.063 65.198 104.191 64.686 104.191 64.0886C104.191 63.4806 104.063 62.9633 103.807 62.5366C103.562 62.11 103.231 61.7846 102.815 61.5606C102.41 61.3366 101.967 61.2246 101.487 61.2246C101.007 61.2246 100.559 61.3366 100.143 61.5606C99.727 61.774 99.391 62.094 99.135 62.5206C98.879 62.9473 98.751 63.47 98.751 64.0886C98.751 64.686 98.8737 65.198 99.119 65.6246C99.375 66.0406 99.711 66.3606 100.127 66.5846C100.543 66.798 100.996 66.9046 101.487 66.9046ZM121.01 64.5046C120.914 65.2833 120.647 65.95 120.21 66.5046C119.783 67.0593 119.223 67.486 118.53 67.7846C117.836 68.0833 117.047 68.2326 116.162 68.2326C115.362 68.2326 114.626 68.11 113.954 67.8646C113.292 67.6193 112.716 67.2673 112.226 66.8086C111.735 66.35 111.351 65.79 111.074 65.1286C110.796 64.4566 110.658 63.7046 110.658 62.8726C110.658 62.03 110.796 61.278 111.074 60.6166C111.351 59.9553 111.735 59.3953 112.226 58.9366C112.716 58.4673 113.292 58.11 113.954 57.8646C114.626 57.6193 115.362 57.4966 116.162 57.4966C117.058 57.4966 117.852 57.6513 118.546 57.9606C119.239 58.2593 119.799 58.6913 120.226 59.2566C120.663 59.8113 120.93 60.478 121.026 61.2566H119.554C119.415 60.7553 119.186 60.3286 118.866 59.9766C118.546 59.6246 118.156 59.358 117.698 59.1766C117.239 58.9846 116.727 58.8886 116.162 58.8886C115.436 58.8886 114.775 59.0433 114.178 59.3526C113.58 59.662 113.1 60.11 112.738 60.6966C112.386 61.2833 112.21 62.0086 112.21 62.8726C112.21 63.726 112.386 64.4513 112.738 65.0486C113.1 65.6353 113.58 66.0833 114.178 66.3926C114.775 66.6913 115.436 66.8406 116.162 66.8406C116.727 66.8406 117.234 66.75 117.682 66.5686C118.14 66.3873 118.53 66.1206 118.85 65.7686C119.17 65.4166 119.404 64.9953 119.554 64.5046H121.01ZM126.706 68.2326C125.927 68.2326 125.212 68.0673 124.562 67.7366C123.911 67.406 123.394 66.9313 123.01 66.3126C122.626 65.694 122.434 64.9526 122.434 64.0886C122.434 63.214 122.626 62.4673 123.01 61.8486C123.394 61.2193 123.911 60.7393 124.562 60.4086C125.212 60.078 125.927 59.9126 126.706 59.9126C127.484 59.9126 128.194 60.078 128.834 60.4086C129.474 60.7393 129.986 61.2193 130.37 61.8486C130.754 62.4673 130.946 63.214 130.946 64.0886C130.946 64.9526 130.754 65.694 130.37 66.3126C129.986 66.9313 129.474 67.406 128.834 67.7366C128.194 68.0673 127.484 68.2326 126.706 68.2326ZM126.706 66.9046C127.186 66.9046 127.628 66.798 128.034 66.5846C128.45 66.3606 128.78 66.0406 129.026 65.6246C129.282 65.198 129.41 64.686 129.41 64.0886C129.41 63.4806 129.282 62.9633 129.026 62.5366C128.78 62.11 128.45 61.7846 128.034 61.5606C127.628 61.3366 127.186 61.2246 126.706 61.2246C126.226 61.2246 125.778 61.3366 125.362 61.5606C124.946 61.774 124.61 62.094 124.354 62.5206C124.098 62.9473 123.97 63.47 123.97 64.0886C123.97 64.686 124.092 65.198 124.338 65.6246C124.594 66.0406 124.93 66.3606 125.346 66.5846C125.762 66.798 126.215 66.9046 126.706 66.9046ZM132.713 56.8726H134.249V68.0566H132.713V56.8726ZM136.604 56.8726H138.14V68.0566H136.604V56.8726ZM143.63 68.2166C142.948 68.2166 142.324 68.0406 141.758 67.6886C141.193 67.3366 140.745 66.8513 140.414 66.2326C140.084 65.6033 139.918 64.8833 139.918 64.0726C139.918 63.262 140.084 62.5473 140.414 61.9286C140.756 61.2993 141.22 60.8086 141.806 60.4566C142.393 60.094 143.049 59.9126 143.774 59.9126C144.574 59.9126 145.193 60.0993 145.63 60.4726C146.078 60.846 146.388 61.3473 146.558 61.9766C146.74 62.606 146.83 63.3046 146.83 64.0726C146.83 64.4993 146.777 64.9526 146.67 65.4326C146.564 65.9126 146.393 66.366 146.158 66.7926C145.924 67.2193 145.598 67.566 145.182 67.8326C144.766 68.0886 144.249 68.2166 143.63 68.2166ZM144.062 66.8886C144.628 66.8886 145.102 66.766 145.486 66.5206C145.881 66.2646 146.174 65.9233 146.366 65.4966C146.558 65.07 146.654 64.5953 146.654 64.0726C146.654 63.5073 146.553 63.0113 146.35 62.5846C146.158 62.158 145.865 61.8273 145.47 61.5926C145.086 61.358 144.617 61.2406 144.062 61.2406C143.23 61.2406 142.585 61.5073 142.126 62.0406C141.678 62.574 141.454 63.2513 141.454 64.0726C141.454 64.6273 141.566 65.118 141.79 65.5446C142.014 65.9606 142.318 66.2913 142.702 66.5366C143.097 66.7713 143.55 66.8886 144.062 66.8886ZM146.654 60.0726H148.19V68.0566H146.782C146.782 68.0566 146.772 67.9606 146.75 67.7686C146.729 67.566 146.708 67.326 146.686 67.0486C146.665 66.7713 146.654 66.526 146.654 66.3126V60.0726ZM149.634 60.0726H154.802V61.4006H149.634V60.0726ZM151.458 57.9606H152.978V68.0566H151.458V57.9606ZM162.275 65.4646H163.731C163.646 65.9873 163.443 66.4566 163.123 66.8726C162.803 67.2886 162.382 67.6193 161.859 67.8646C161.337 68.11 160.723 68.2326 160.019 68.2326C159.187 68.2326 158.446 68.0566 157.795 67.7046C157.145 67.3526 156.633 66.8673 156.259 66.2486C155.886 65.63 155.699 64.91 155.699 64.0886C155.699 63.2566 155.881 62.5313 156.243 61.9126C156.606 61.2833 157.107 60.7926 157.747 60.4406C158.387 60.0886 159.118 59.9126 159.939 59.9126C160.803 59.9126 161.529 60.0833 162.115 60.4246C162.702 60.766 163.134 61.2726 163.411 61.9446C163.699 62.606 163.817 63.4326 163.763 64.4246H157.219C157.273 64.9046 157.417 65.3313 157.651 65.7046C157.897 66.078 158.217 66.3713 158.611 66.5846C159.017 66.798 159.481 66.9046 160.003 66.9046C160.59 66.9046 161.081 66.7713 161.475 66.5046C161.87 66.238 162.137 65.8913 162.275 65.4646ZM159.955 61.2246C159.262 61.2246 158.686 61.4113 158.227 61.7846C157.769 62.1473 157.465 62.6326 157.315 63.2406H162.227C162.185 62.59 161.95 62.094 161.523 61.7526C161.097 61.4006 160.574 61.2246 159.955 61.2246ZM165.381 60.0726H166.917V68.0566H165.381V60.0726ZM169.621 61.4326C169.066 61.4326 168.592 61.5606 168.197 61.8166C167.813 62.0726 167.504 62.3873 167.269 62.7606C167.045 63.134 166.896 63.4913 166.821 63.8326L166.805 62.9206C166.816 62.814 166.842 62.6486 166.885 62.4246C166.938 62.19 167.029 61.9286 167.157 61.6406C167.285 61.3526 167.456 61.0806 167.669 60.8246C167.882 60.558 168.149 60.3393 168.469 60.1686C168.789 59.998 169.173 59.9126 169.621 59.9126V61.4326ZM174.302 68.2166C173.619 68.2166 172.995 68.0406 172.43 67.6886C171.865 67.3366 171.417 66.8513 171.086 66.2326C170.755 65.6033 170.59 64.8833 170.59 64.0726C170.59 63.262 170.755 62.5473 171.086 61.9286C171.427 61.2993 171.891 60.8086 172.478 60.4566C173.065 60.094 173.721 59.9126 174.446 59.9126C175.246 59.9126 175.865 60.0993 176.302 60.4726C176.75 60.846 177.059 61.3473 177.23 61.9766C177.411 62.606 177.502 63.3046 177.502 64.0726C177.502 64.4993 177.449 64.9526 177.342 65.4326C177.235 65.9126 177.065 66.366 176.83 66.7926C176.595 67.2193 176.27 67.566 175.854 67.8326C175.438 68.0886 174.921 68.2166 174.302 68.2166ZM174.734 66.8886C175.299 66.8886 175.774 66.766 176.158 66.5206C176.553 66.2646 176.846 65.9233 177.038 65.4966C177.23 65.07 177.326 64.5953 177.326 64.0726C177.326 63.5073 177.225 63.0113 177.022 62.5846C176.83 62.158 176.537 61.8273 176.142 61.5926C175.758 61.358 175.289 61.2406 174.734 61.2406C173.902 61.2406 173.257 61.5073 172.798 62.0406C172.35 62.574 172.126 63.2513 172.126 64.0726C172.126 64.6273 172.238 65.118 172.462 65.5446C172.686 65.9606 172.99 66.2913 173.374 66.5366C173.769 66.7713 174.222 66.8886 174.734 66.8886ZM177.326 60.0726H178.862V68.0566H177.454C177.454 68.0566 177.443 67.9606 177.422 67.7686C177.401 67.566 177.379 67.326 177.358 67.0486C177.337 66.7713 177.326 66.526 177.326 66.3126V60.0726ZM181.025 56.8726H182.561V68.0566H181.025V56.8726Z" fill="#279027"/>
<circle cx="45.0239" cy="62.5571" r="16.3456" transform="rotate(-0.597377 45.0239 62.5571)" fill="#279026"/>
<path fill-rule="evenodd" clip-rule="evenodd" d="M52.091 56.4286C52.3335 56.6313 52.4856 56.922 52.5138 57.2369C52.542 57.5517 52.444 57.8648 52.2414 58.1074L44.1398 67.8033C44.0327 67.9315 43.9015 68.0373 43.7535 68.1147C43.6056 68.1921 43.4438 68.2396 43.2775 68.2545C43.1111 68.2694 42.9435 68.2514 42.7841 68.2015C42.6248 68.1516 42.4768 68.0708 42.3487 67.9638L37.5314 63.9393C37.4082 63.84 37.306 63.7171 37.2308 63.5778C37.1556 63.4385 37.1089 63.2857 37.0934 63.1282C37.0779 62.9706 37.0939 62.8116 37.1406 62.6604C37.1872 62.5091 37.2635 62.3687 37.365 62.2472C37.4664 62.1257 37.5911 62.0257 37.7317 61.9529C37.8722 61.8802 38.0259 61.8361 38.1836 61.8234C38.3414 61.8106 38.5001 61.8294 38.6505 61.8787C38.801 61.9279 38.9401 62.0066 39.0597 62.1102L43.0233 65.422L50.4114 56.5791C50.5118 56.4589 50.6349 56.3596 50.7736 56.287C50.9124 56.2144 51.064 56.1698 51.22 56.1558C51.376 56.1419 51.5332 56.1588 51.6826 56.2056C51.8321 56.2524 51.9708 56.3282 52.091 56.4286Z" fill="white"/>
<circle cx="263.452" cy="62.5566" r="8.27734" fill="white"/>
<circle opacity="0.5" cx="286.326" cy="62.5575" r="5.59653" fill="white"/>
<circle opacity="0.2" cx="305.109" cy="62.5576" r="4.18652" fill="white"/>
<path d="M355.014 37.8379C341.419 37.8379 330.296 48.9611 330.296 62.5561C330.296 76.1512 341.419 87.2744 355.014 87.2744C368.609 87.2744 379.732 76.1512 379.732 62.5561C379.732 48.9611 368.609 37.8379 355.014 37.8379ZM355.014 43.3308C359.271 43.3308 363.253 44.8414 366.549 47.1759L339.634 74.0913C337.299 70.7956 335.789 66.8132 335.789 62.5561C335.789 51.9822 344.44 43.3308 355.014 43.3308ZM355.014 81.7814C350.757 81.7814 346.774 80.2709 343.479 77.9364L370.394 51.021C372.729 54.3167 374.239 58.2991 374.239 62.5561C374.239 73.13 365.588 81.7814 355.014 81.7814Z" fill="white" fill-opacity="0.85"/>
<path d="M418.501 0.501953C418.501 0.501953 412.499 1.70224 412.739 8.18377C412.979 14.6653 412.979 118.37 412.979 118.37C412.979 118.37 414.42 124.611 419.941 124.611C425.462 124.611 495.079 124.371 495.079 124.371C495.079 124.371 502.52 124.131 502.76 117.17C503.001 110.208 503.001 34.35 503.001 34.35L469.633 0.74201L418.501 0.501953Z" fill="white" fill-opacity="0.17"/>
<path d="M437.829 89.207C440.165 89.207 442.061 91.1095 442.061 93.4527C442.061 95.7959 440.165 97.6984 437.829 97.6984C435.492 97.6984 433.596 95.7959 433.596 93.4527C433.596 91.1095 435.492 89.207 437.829 89.207Z" fill="#FFFEFE" fill-opacity="0.35"/>
<path d="M480.78 90.4043V96.7147H449.108V90.4043H480.78Z" fill="#FFFEFE" fill-opacity="0.35"/>
<path d="M437.829 74.8047C440.165 74.8047 442.061 76.7072 442.061 79.0504C442.061 81.3935 440.165 83.296 437.829 83.296C435.492 83.296 433.596 81.3935 433.596 79.0504C433.596 76.7072 435.492 74.8047 437.829 74.8047Z" fill="#FFFEFE" fill-opacity="0.35"/>
<path d="M480.78 76V82.3104H449.108V76H480.78Z" fill="#FFFEFE" fill-opacity="0.35"/>
<path d="M437.829 61.1211C440.165 61.1211 442.061 63.0236 442.061 65.3668C442.061 67.7099 440.165 69.6124 437.829 69.6124C435.492 69.6124 433.596 67.7099 433.596 65.3668C433.596 63.0236 435.492 61.1211 437.829 61.1211Z" fill="#FFFEFE" fill-opacity="0.35"/>
<path d="M480.78 62.3184V68.6287H449.108V62.3184H480.78Z" fill="#FFFEFE" fill-opacity="0.35"/>
<path d="M469.393 0.623047L468.913 28.1096C468.913 28.1096 469.993 34.7111 476.354 34.7111C482.716 34.7111 502.761 34.111 502.761 34.111L469.393 0.623047Z" fill="#51D0FE" fill-opacity="0.5"/>
<path d="M502.932 34.063L473.764 34.3757L502.944 37.1088L502.932 34.063Z" fill="#4D3EC4" fill-opacity="0.3"/>
<path d="M502.881 33.9922L473.714 34.3523L502.881 60.7585V33.9922Z" fill="#4D3EC4" fill-opacity="0.2"/>
</svg>
