<svg width="659" height="147" viewBox="0 0 659 147" fill="none" xmlns="http://www.w3.org/2000/svg">
<path d="M521.106 51.1719C520.118 50.6781 519.717 49.4768 520.211 48.4888L528.259 32.3881C528.753 31.4 529.954 30.9994 530.942 31.4933C531.93 31.9872 532.33 33.1884 531.837 34.1765L524.683 48.4882L538.995 55.6418C539.983 56.1357 540.383 57.337 539.889 58.325C539.396 59.313 538.194 59.7136 537.206 59.2198L521.106 51.1719ZM658.919 125.912C653.932 129.389 648.992 130.386 644.088 129.313C639.29 128.264 634.758 125.283 630.379 121.286C621.682 113.349 612.752 100.563 602.936 88.1988C593.001 75.6855 582.025 63.3986 568.961 55.7646C556.001 48.1919 540.947 45.1727 522.632 51.2802L521.367 47.4857C540.874 40.9807 557.119 44.2122 570.979 52.311C584.734 60.3484 596.098 73.1538 606.068 85.7116C616.156 98.4183 624.695 110.682 633.075 118.331C637.234 122.127 641.142 124.574 644.942 125.405C648.636 126.214 652.451 125.545 656.632 122.631L658.919 125.912Z" fill="url(#paint0_linear_3203_31257)"/>
<rect width="475" height="109" rx="10" fill="#FFA529"/>
<path d="M29.724 42L26.28 32.914H27.75L30.69 40.852H30.27L33.084 32.914H34.582L37.396 40.852H36.99L39.93 32.914H41.358L37.956 42H36.43L33.644 33.922H34.036L31.236 42H29.724ZM47.8176 42V37.786C47.8176 37.4127 47.7569 37.1047 47.6356 36.862C47.5142 36.6193 47.3322 36.4373 47.0896 36.316C46.8469 36.1853 46.5389 36.12 46.1656 36.12C45.7549 36.12 45.3769 36.218 45.0316 36.414C44.6956 36.6007 44.4202 36.8573 44.2056 37.184C43.9909 37.5013 43.8602 37.8607 43.8136 38.262L43.7996 37.464C43.8462 37.1 43.9442 36.7593 44.0936 36.442C44.2522 36.1247 44.4482 35.8493 44.6816 35.616C44.9242 35.3827 45.2042 35.2007 45.5216 35.07C45.8389 34.9393 46.1842 34.874 46.5576 34.874C46.9496 34.874 47.3042 34.93 47.6216 35.042C47.9389 35.1447 48.2096 35.308 48.4336 35.532C48.6669 35.7467 48.8442 36.0127 48.9656 36.33C49.0869 36.638 49.1476 36.9927 49.1476 37.394V42H47.8176ZM42.5676 42V32.214H43.8976V42H42.5676ZM50.1504 35.014H51.5784L54.2524 41.72L53.0904 42L50.1504 35.014ZM57.2764 35.014L53.0904 44.8H51.6764L53.4824 41.006L55.8624 35.014H57.2764ZM61.0092 35.014H65.5312V36.176H61.0092V35.014ZM62.6052 33.166H63.9352V42H62.6052V33.166ZM66.8039 35.014H68.1479V42H66.8039V35.014ZM70.5139 36.204C70.0285 36.204 69.6132 36.316 69.2679 36.54C68.9319 36.764 68.6612 37.0393 68.4559 37.366C68.2599 37.6927 68.1292 38.0053 68.0639 38.304L68.0499 37.506C68.0592 37.4127 68.0825 37.268 68.1199 37.072C68.1665 36.8667 68.2459 36.638 68.3579 36.386C68.4699 36.134 68.6192 35.896 68.8059 35.672C68.9925 35.4387 69.2259 35.2473 69.5059 35.098C69.7859 34.9487 70.1219 34.874 70.5139 34.874V36.204ZM74.6098 42.14C74.0124 42.14 73.4664 41.986 72.9718 41.678C72.4771 41.37 72.0851 40.9453 71.7958 40.404C71.5064 39.8533 71.3618 39.2233 71.3618 38.514C71.3618 37.8047 71.5064 37.1793 71.7958 36.638C72.0944 36.0873 72.5004 35.658 73.0138 35.35C73.5271 35.0327 74.1011 34.874 74.7358 34.874C75.4358 34.874 75.9771 35.0373 76.3598 35.364C76.7518 35.6907 77.0224 36.1293 77.1718 36.68C77.3304 37.2307 77.4098 37.842 77.4098 38.514C77.4098 38.8873 77.3631 39.284 77.2698 39.704C77.1764 40.124 77.0271 40.5207 76.8218 40.894C76.6164 41.2673 76.3318 41.5707 75.9678 41.804C75.6038 42.028 75.1511 42.14 74.6098 42.14ZM74.9878 40.978C75.4824 40.978 75.8978 40.8707 76.2338 40.656C76.5791 40.432 76.8358 40.1333 77.0038 39.76C77.1718 39.3867 77.2558 38.9713 77.2558 38.514C77.2558 38.0193 77.1671 37.5853 76.9898 37.212C76.8218 36.8387 76.5651 36.5493 76.2198 36.344C75.8838 36.1387 75.4731 36.036 74.9878 36.036C74.2598 36.036 73.6951 36.2693 73.2938 36.736C72.9018 37.2027 72.7058 37.7953 72.7058 38.514C72.7058 38.9993 72.8038 39.4287 72.9998 39.802C73.1958 40.166 73.4618 40.4553 73.7978 40.67C74.1431 40.8753 74.5398 40.978 74.9878 40.978ZM77.2558 35.014H78.5998V42H77.3678C77.3678 42 77.3584 41.916 77.3398 41.748C77.3211 41.5707 77.3024 41.3607 77.2838 41.118C77.2651 40.8753 77.2558 40.6607 77.2558 40.474V35.014ZM83.4047 40.964H82.9707L85.2387 35.014H86.6947L83.8247 42H82.5647L79.7227 35.014H81.1927L83.4047 40.964ZM93.0025 39.732H94.2765C94.2018 40.1893 94.0245 40.6 93.7445 40.964C93.4645 41.328 93.0958 41.6173 92.6385 41.832C92.1811 42.0467 91.6445 42.154 91.0285 42.154C90.3005 42.154 89.6518 42 89.0825 41.692C88.5131 41.384 88.0651 40.9593 87.7385 40.418C87.4118 39.8767 87.2485 39.2467 87.2485 38.528C87.2485 37.8 87.4071 37.1653 87.7245 36.624C88.0418 36.0733 88.4805 35.644 89.0405 35.336C89.6005 35.028 90.2398 34.874 90.9585 34.874C91.7145 34.874 92.3491 35.0233 92.8625 35.322C93.3758 35.6207 93.7538 36.064 93.9965 36.652C94.2485 37.2307 94.3511 37.954 94.3045 38.822H88.5785C88.6251 39.242 88.7511 39.6153 88.9565 39.942C89.1711 40.2687 89.4511 40.5253 89.7965 40.712C90.1511 40.8987 90.5571 40.992 91.0145 40.992C91.5278 40.992 91.9571 40.8753 92.3025 40.642C92.6478 40.4087 92.8811 40.1053 93.0025 39.732ZM90.9725 36.022C90.3658 36.022 89.8618 36.1853 89.4605 36.512C89.0591 36.8293 88.7931 37.254 88.6625 37.786H92.9605C92.9231 37.2167 92.7178 36.7827 92.3445 36.484C91.9711 36.176 91.5138 36.022 90.9725 36.022ZM95.8599 32.214H97.2039V42H95.8599V32.214ZM109.858 40.908L109.494 40.894L111.328 35.014H112.784L110.362 42H109.102L106.988 36.022H107.366L105.224 42H103.964L101.57 35.014H103.04L104.818 40.894L104.454 40.908L106.386 35.014H107.968L109.858 40.908ZM115.541 32.13V33.572H113.875V32.13H115.541ZM114.043 35.014H115.373V42H114.043V35.014ZM116.777 35.014H121.299V36.176H116.777V35.014ZM118.373 33.166H119.703V42H118.373V33.166ZM127.989 42V37.786C127.989 37.4127 127.929 37.1047 127.807 36.862C127.686 36.6193 127.504 36.4373 127.261 36.316C127.019 36.1853 126.711 36.12 126.337 36.12C125.927 36.12 125.549 36.218 125.203 36.414C124.867 36.6007 124.592 36.8573 124.377 37.184C124.163 37.5013 124.032 37.8607 123.985 38.262L123.971 37.464C124.018 37.1 124.116 36.7593 124.265 36.442C124.424 36.1247 124.62 35.8493 124.853 35.616C125.096 35.3827 125.376 35.2007 125.693 35.07C126.011 34.9393 126.356 34.874 126.729 34.874C127.121 34.874 127.476 34.93 127.793 35.042C128.111 35.1447 128.381 35.308 128.605 35.532C128.839 35.7467 129.016 36.0127 129.137 36.33C129.259 36.638 129.319 36.9927 129.319 37.394V42H127.989ZM122.739 42V32.214H124.069V42H122.739ZM139.583 42V37.786C139.583 37.4127 139.523 37.1047 139.401 36.862C139.28 36.6193 139.098 36.4373 138.855 36.316C138.613 36.1853 138.305 36.12 137.931 36.12C137.521 36.12 137.143 36.218 136.797 36.414C136.461 36.6007 136.186 36.8573 135.971 37.184C135.757 37.5013 135.626 37.8607 135.579 38.262L135.565 37.464C135.612 37.1 135.71 36.7593 135.859 36.442C136.018 36.1247 136.214 35.8493 136.447 35.616C136.69 35.3827 136.97 35.2007 137.287 35.07C137.605 34.9393 137.95 34.874 138.323 34.874C138.715 34.874 139.07 34.93 139.387 35.042C139.705 35.1447 139.975 35.308 140.199 35.532C140.433 35.7467 140.61 36.0127 140.731 36.33C140.853 36.638 140.913 36.9927 140.913 37.394V42H139.583ZM134.333 42V32.214H135.663V42H134.333ZM145.567 42.14C144.969 42.14 144.423 41.986 143.929 41.678C143.434 41.37 143.042 40.9453 142.753 40.404C142.463 39.8533 142.319 39.2233 142.319 38.514C142.319 37.8047 142.463 37.1793 142.753 36.638C143.051 36.0873 143.457 35.658 143.971 35.35C144.484 35.0327 145.058 34.874 145.693 34.874C146.393 34.874 146.934 35.0373 147.317 35.364C147.709 35.6907 147.979 36.1293 148.129 36.68C148.287 37.2307 148.367 37.842 148.367 38.514C148.367 38.8873 148.32 39.284 148.227 39.704C148.133 40.124 147.984 40.5207 147.779 40.894C147.573 41.2673 147.289 41.5707 146.925 41.804C146.561 42.028 146.108 42.14 145.567 42.14ZM145.945 40.978C146.439 40.978 146.855 40.8707 147.191 40.656C147.536 40.432 147.793 40.1333 147.961 39.76C148.129 39.3867 148.213 38.9713 148.213 38.514C148.213 38.0193 148.124 37.5853 147.947 37.212C147.779 36.8387 147.522 36.5493 147.177 36.344C146.841 36.1387 146.43 36.036 145.945 36.036C145.217 36.036 144.652 36.2693 144.251 36.736C143.859 37.2027 143.663 37.7953 143.663 38.514C143.663 38.9993 143.761 39.4287 143.957 39.802C144.153 40.166 144.419 40.4553 144.755 40.67C145.1 40.8753 145.497 40.978 145.945 40.978ZM148.213 35.014H149.557V42H148.325C148.325 42 148.315 41.916 148.297 41.748C148.278 41.5707 148.259 41.3607 148.241 41.118C148.222 40.8753 148.213 40.6607 148.213 40.474V35.014ZM151.002 39.732H152.234C152.28 40.1053 152.448 40.4133 152.738 40.656C153.027 40.8893 153.433 41.006 153.956 41.006C154.292 41.006 154.553 40.9687 154.74 40.894C154.926 40.81 155.057 40.698 155.132 40.558C155.216 40.418 155.258 40.264 155.258 40.096C155.258 39.8813 155.202 39.718 155.09 39.606C154.978 39.4847 154.819 39.3867 154.614 39.312C154.408 39.228 154.166 39.1487 153.886 39.074C153.578 38.99 153.27 38.892 152.962 38.78C152.654 38.668 152.369 38.5327 152.108 38.374C151.856 38.2153 151.65 38.0193 151.492 37.786C151.342 37.5433 151.268 37.2493 151.268 36.904C151.268 36.6147 151.328 36.344 151.45 36.092C151.58 35.84 151.762 35.6253 151.996 35.448C152.238 35.2613 152.518 35.1213 152.836 35.028C153.153 34.9253 153.503 34.874 153.886 34.874C154.418 34.874 154.866 34.972 155.23 35.168C155.594 35.3547 155.869 35.6207 156.056 35.966C156.252 36.3113 156.354 36.708 156.364 37.156H155.188C155.122 36.764 154.987 36.4793 154.782 36.302C154.576 36.1153 154.268 36.022 153.858 36.022C153.456 36.022 153.148 36.1013 152.934 36.26C152.719 36.4187 152.612 36.6333 152.612 36.904C152.612 37.1093 152.686 37.2773 152.836 37.408C152.985 37.5293 153.186 37.6367 153.438 37.73C153.69 37.8233 153.974 37.9213 154.292 38.024C154.59 38.1267 154.875 38.234 155.146 38.346C155.426 38.4487 155.673 38.5747 155.888 38.724C156.112 38.864 156.284 39.0507 156.406 39.284C156.536 39.508 156.602 39.788 156.602 40.124C156.602 40.5347 156.499 40.894 156.294 41.202C156.088 41.5007 155.79 41.734 155.398 41.902C155.015 42.07 154.548 42.154 153.998 42.154C153.494 42.154 153.064 42.0933 152.71 41.972C152.364 41.8507 152.07 41.692 151.828 41.496C151.594 41.3 151.412 41.0947 151.282 40.88C151.16 40.656 151.076 40.4413 151.03 40.236C150.992 40.0307 150.983 39.8627 151.002 39.732ZM157.701 39.732H158.933C158.98 40.1053 159.148 40.4133 159.437 40.656C159.726 40.8893 160.132 41.006 160.655 41.006C160.991 41.006 161.252 40.9687 161.439 40.894C161.626 40.81 161.756 40.698 161.831 40.558C161.915 40.418 161.957 40.264 161.957 40.096C161.957 39.8813 161.901 39.718 161.789 39.606C161.677 39.4847 161.518 39.3867 161.313 39.312C161.108 39.228 160.865 39.1487 160.585 39.074C160.277 38.99 159.969 38.892 159.661 38.78C159.353 38.668 159.068 38.5327 158.807 38.374C158.555 38.2153 158.35 38.0193 158.191 37.786C158.042 37.5433 157.967 37.2493 157.967 36.904C157.967 36.6147 158.028 36.344 158.149 36.092C158.28 35.84 158.462 35.6253 158.695 35.448C158.938 35.2613 159.218 35.1213 159.535 35.028C159.852 34.9253 160.202 34.874 160.585 34.874C161.117 34.874 161.565 34.972 161.929 35.168C162.293 35.3547 162.568 35.6207 162.755 35.966C162.951 36.3113 163.054 36.708 163.063 37.156H161.887C161.822 36.764 161.686 36.4793 161.481 36.302C161.276 36.1153 160.968 36.022 160.557 36.022C160.156 36.022 159.848 36.1013 159.633 36.26C159.418 36.4187 159.311 36.6333 159.311 36.904C159.311 37.1093 159.386 37.2773 159.535 37.408C159.684 37.5293 159.885 37.6367 160.137 37.73C160.389 37.8233 160.674 37.9213 160.991 38.024C161.29 38.1267 161.574 38.234 161.845 38.346C162.125 38.4487 162.372 38.5747 162.587 38.724C162.811 38.864 162.984 39.0507 163.105 39.284C163.236 39.508 163.301 39.788 163.301 40.124C163.301 40.5347 163.198 40.894 162.993 41.202C162.788 41.5007 162.489 41.734 162.097 41.902C161.714 42.07 161.248 42.154 160.697 42.154C160.193 42.154 159.764 42.0933 159.409 41.972C159.064 41.8507 158.77 41.692 158.527 41.496C158.294 41.3 158.112 41.0947 157.981 40.88C157.86 40.656 157.776 40.4413 157.729 40.236C157.692 40.0307 157.682 39.8627 157.701 39.732ZM164.848 32.214H166.192V42H164.848V32.214ZM173.502 39.732H174.776C174.702 40.1893 174.524 40.6 174.244 40.964C173.964 41.328 173.596 41.6173 173.138 41.832C172.681 42.0467 172.144 42.154 171.528 42.154C170.8 42.154 170.152 42 169.582 41.692C169.013 41.384 168.565 40.9593 168.238 40.418C167.912 39.8767 167.748 39.2467 167.748 38.528C167.748 37.8 167.907 37.1653 168.224 36.624C168.542 36.0733 168.98 35.644 169.54 35.336C170.1 35.028 170.74 34.874 171.458 34.874C172.214 34.874 172.849 35.0233 173.362 35.322C173.876 35.6207 174.254 36.064 174.496 36.652C174.748 37.2307 174.851 37.954 174.804 38.822H169.078C169.125 39.242 169.251 39.6153 169.456 39.942C169.671 40.2687 169.951 40.5253 170.296 40.712C170.651 40.8987 171.057 40.992 171.514 40.992C172.028 40.992 172.457 40.8753 172.802 40.642C173.148 40.4087 173.381 40.1053 173.502 39.732ZM171.472 36.022C170.866 36.022 170.362 36.1853 169.96 36.512C169.559 36.8293 169.293 37.254 169.162 37.786H173.46C173.423 37.2167 173.218 36.7827 172.844 36.484C172.471 36.176 172.014 36.022 171.472 36.022ZM186.954 40.908L186.59 40.894L188.424 35.014H189.88L187.458 42H186.198L184.084 36.022H184.462L182.32 42H181.06L178.666 35.014H180.136L181.914 40.894L181.55 40.908L183.482 35.014H185.064L186.954 40.908ZM196.445 42V37.786C196.445 37.4127 196.384 37.1047 196.263 36.862C196.141 36.6193 195.959 36.4373 195.717 36.316C195.474 36.1853 195.166 36.12 194.793 36.12C194.382 36.12 194.004 36.218 193.659 36.414C193.323 36.6007 193.047 36.8573 192.833 37.184C192.618 37.5013 192.487 37.8607 192.441 38.262L192.427 37.464C192.473 37.1 192.571 36.7593 192.721 36.442C192.879 36.1247 193.075 35.8493 193.309 35.616C193.551 35.3827 193.831 35.2007 194.149 35.07C194.466 34.9393 194.811 34.874 195.185 34.874C195.577 34.874 195.931 34.93 196.249 35.042C196.566 35.1447 196.837 35.308 197.061 35.532C197.294 35.7467 197.471 36.0127 197.593 36.33C197.714 36.638 197.775 36.9927 197.775 37.394V42H196.445ZM191.195 42V32.214H192.525V42H191.195ZM204.934 39.732H206.208C206.133 40.1893 205.956 40.6 205.676 40.964C205.396 41.328 205.027 41.6173 204.57 41.832C204.113 42.0467 203.576 42.154 202.96 42.154C202.232 42.154 201.583 42 201.014 41.692C200.445 41.384 199.997 40.9593 199.67 40.418C199.343 39.8767 199.18 39.2467 199.18 38.528C199.18 37.8 199.339 37.1653 199.656 36.624C199.973 36.0733 200.412 35.644 200.972 35.336C201.532 35.028 202.171 34.874 202.89 34.874C203.646 34.874 204.281 35.0233 204.794 35.322C205.307 35.6207 205.685 36.064 205.928 36.652C206.18 37.2307 206.283 37.954 206.236 38.822H200.51C200.557 39.242 200.683 39.6153 200.888 39.942C201.103 40.2687 201.383 40.5253 201.728 40.712C202.083 40.8987 202.489 40.992 202.946 40.992C203.459 40.992 203.889 40.8753 204.234 40.642C204.579 40.4087 204.813 40.1053 204.934 39.732ZM202.904 36.022C202.297 36.022 201.793 36.1853 201.392 36.512C200.991 36.8293 200.725 37.254 200.594 37.786H204.892C204.855 37.2167 204.649 36.7827 204.276 36.484C203.903 36.176 203.445 36.022 202.904 36.022ZM207.652 35.014H208.996V42H207.652V35.014ZM211.656 34.874C212.048 34.874 212.402 34.93 212.72 35.042C213.037 35.154 213.308 35.322 213.532 35.546C213.756 35.7607 213.928 36.0313 214.05 36.358C214.18 36.6753 214.246 37.0393 214.246 37.45V42H212.916V37.744C212.916 37.1933 212.78 36.7827 212.51 36.512C212.248 36.232 211.847 36.092 211.306 36.092C210.886 36.092 210.503 36.19 210.158 36.386C209.812 36.582 209.528 36.8433 209.304 37.17C209.089 37.4873 208.958 37.8467 208.912 38.248L208.898 37.478C208.944 37.1047 209.042 36.7593 209.192 36.442C209.35 36.1247 209.546 35.8493 209.78 35.616C210.022 35.3733 210.302 35.1913 210.62 35.07C210.937 34.9393 211.282 34.874 211.656 34.874ZM218.451 35.014H219.879L222.553 41.72L221.391 42L218.451 35.014ZM225.577 35.014L221.391 44.8H219.977L221.783 41.006L224.163 35.014H225.577ZM229.865 42.154C229.184 42.154 228.559 42.0093 227.989 41.72C227.42 41.4307 226.967 41.0153 226.631 40.474C226.295 39.9327 226.127 39.284 226.127 38.528C226.127 37.7627 226.295 37.1093 226.631 36.568C226.967 36.0173 227.42 35.5973 227.989 35.308C228.559 35.0187 229.184 34.874 229.865 34.874C230.547 34.874 231.167 35.0187 231.727 35.308C232.287 35.5973 232.735 36.0173 233.071 36.568C233.407 37.1093 233.575 37.7627 233.575 38.528C233.575 39.284 233.407 39.9327 233.071 40.474C232.735 41.0153 232.287 41.4307 231.727 41.72C231.167 42.0093 230.547 42.154 229.865 42.154ZM229.865 40.992C230.285 40.992 230.673 40.8987 231.027 40.712C231.391 40.516 231.681 40.236 231.895 39.872C232.119 39.4987 232.231 39.0507 232.231 38.528C232.231 37.996 232.119 37.5433 231.895 37.17C231.681 36.7967 231.391 36.512 231.027 36.316C230.673 36.12 230.285 36.022 229.865 36.022C229.445 36.022 229.053 36.12 228.689 36.316C228.325 36.5027 228.031 36.7827 227.807 37.156C227.583 37.5293 227.471 37.9867 227.471 38.528C227.471 39.0507 227.579 39.4987 227.793 39.872C228.017 40.236 228.311 40.516 228.675 40.712C229.039 40.8987 229.436 40.992 229.865 40.992ZM241.576 42H240.246V35.014H241.576V42ZM240.316 38.71L240.33 39.13C240.32 39.2513 240.288 39.4333 240.232 39.676C240.185 39.9093 240.101 40.166 239.98 40.446C239.868 40.726 239.709 40.9967 239.504 41.258C239.308 41.5193 239.056 41.734 238.748 41.902C238.44 42.07 238.066 42.154 237.628 42.154C237.329 42.154 237.021 42.112 236.704 42.028C236.396 41.944 236.111 41.804 235.85 41.608C235.588 41.412 235.378 41.146 235.22 40.81C235.061 40.4647 234.982 40.0353 234.982 39.522V35.014H236.326V39.242C236.326 39.6713 236.391 40.0073 236.522 40.25C236.662 40.4927 236.858 40.6653 237.11 40.768C237.362 40.8707 237.646 40.922 237.964 40.922C238.449 40.922 238.855 40.8053 239.182 40.572C239.518 40.3293 239.779 40.04 239.966 39.704C240.152 39.3587 240.269 39.0273 240.316 38.71ZM253.257 39.34C253.201 39.9187 253.015 40.4227 252.697 40.852C252.389 41.272 251.983 41.594 251.479 41.818C250.975 42.042 250.415 42.154 249.799 42.154C249.118 42.154 248.493 42.014 247.923 41.734C247.354 41.4447 246.897 41.0293 246.551 40.488C246.215 39.9373 246.047 39.284 246.047 38.528C246.047 37.7627 246.215 37.1093 246.551 36.568C246.897 36.0173 247.354 35.5973 247.923 35.308C248.493 35.0187 249.118 34.874 249.799 34.874C250.415 34.874 250.971 34.986 251.465 35.21C251.96 35.434 252.366 35.756 252.683 36.176C253.001 36.5867 253.192 37.0813 253.257 37.66H252.039C251.881 37.156 251.596 36.7593 251.185 36.47C250.784 36.1713 250.322 36.022 249.799 36.022C249.37 36.022 248.969 36.12 248.595 36.316C248.231 36.512 247.937 36.7967 247.713 37.17C247.499 37.534 247.391 37.9867 247.391 38.528C247.391 39.0507 247.499 39.4987 247.713 39.872C247.937 40.236 248.231 40.516 248.595 40.712C248.959 40.8987 249.361 40.992 249.799 40.992C250.397 40.992 250.882 40.8473 251.255 40.558C251.629 40.2687 251.895 39.8627 252.053 39.34H253.257ZM257.539 42.14C256.942 42.14 256.396 41.986 255.901 41.678C255.407 41.37 255.015 40.9453 254.725 40.404C254.436 39.8533 254.291 39.2233 254.291 38.514C254.291 37.8047 254.436 37.1793 254.725 36.638C255.024 36.0873 255.43 35.658 255.943 35.35C256.457 35.0327 257.031 34.874 257.665 34.874C258.365 34.874 258.907 35.0373 259.289 35.364C259.681 35.6907 259.952 36.1293 260.101 36.68C260.26 37.2307 260.339 37.842 260.339 38.514C260.339 38.8873 260.293 39.284 260.199 39.704C260.106 40.124 259.957 40.5207 259.751 40.894C259.546 41.2673 259.261 41.5707 258.897 41.804C258.533 42.028 258.081 42.14 257.539 42.14ZM257.917 40.978C258.412 40.978 258.827 40.8707 259.163 40.656C259.509 40.432 259.765 40.1333 259.933 39.76C260.101 39.3867 260.185 38.9713 260.185 38.514C260.185 38.0193 260.097 37.5853 259.919 37.212C259.751 36.8387 259.495 36.5493 259.149 36.344C258.813 36.1387 258.403 36.036 257.917 36.036C257.189 36.036 256.625 36.2693 256.223 36.736C255.831 37.2027 255.635 37.7953 255.635 38.514C255.635 38.9993 255.733 39.4287 255.929 39.802C256.125 40.166 256.391 40.4553 256.727 40.67C257.073 40.8753 257.469 40.978 257.917 40.978ZM260.185 35.014H261.529V42H260.297C260.297 42 260.288 41.916 260.269 41.748C260.251 41.5707 260.232 41.3607 260.213 41.118C260.195 40.8753 260.185 40.6607 260.185 40.474V35.014ZM263.282 35.014H264.626V42H263.282V35.014ZM267.286 34.874C267.678 34.874 268.033 34.93 268.35 35.042C268.668 35.154 268.938 35.322 269.162 35.546C269.386 35.7607 269.559 36.0313 269.68 36.358C269.811 36.6753 269.876 37.0393 269.876 37.45V42H268.546V37.744C268.546 37.1933 268.411 36.7827 268.14 36.512C267.879 36.232 267.478 36.092 266.936 36.092C266.516 36.092 266.134 36.19 265.788 36.386C265.443 36.582 265.158 36.8433 264.934 37.17C264.72 37.4873 264.589 37.8467 264.542 38.248L264.528 37.478C264.575 37.1047 264.673 36.7593 264.822 36.442C264.981 36.1247 265.177 35.8493 265.41 35.616C265.653 35.3733 265.933 35.1913 266.25 35.07C266.568 34.9393 266.913 34.874 267.286 34.874ZM274.222 35.014H278.744V36.176H274.222V35.014ZM275.818 33.166H277.148V42H275.818V33.166ZM280.017 35.014H281.361V42H280.017V35.014ZM283.727 36.204C283.241 36.204 282.826 36.316 282.481 36.54C282.145 36.764 281.874 37.0393 281.669 37.366C281.473 37.6927 281.342 38.0053 281.277 38.304L281.263 37.506C281.272 37.4127 281.295 37.268 281.333 37.072C281.379 36.8667 281.459 36.638 281.571 36.386C281.683 36.134 281.832 35.896 282.019 35.672C282.205 35.4387 282.439 35.2473 282.719 35.098C282.999 34.9487 283.335 34.874 283.727 34.874V36.204ZM287.823 42.14C287.225 42.14 286.679 41.986 286.185 41.678C285.69 41.37 285.298 40.9453 285.009 40.404C284.719 39.8533 284.575 39.2233 284.575 38.514C284.575 37.8047 284.719 37.1793 285.009 36.638C285.307 36.0873 285.713 35.658 286.227 35.35C286.74 35.0327 287.314 34.874 287.949 34.874C288.649 34.874 289.19 35.0373 289.573 35.364C289.965 35.6907 290.235 36.1293 290.385 36.68C290.543 37.2307 290.623 37.842 290.623 38.514C290.623 38.8873 290.576 39.284 290.483 39.704C290.389 40.124 290.24 40.5207 290.035 40.894C289.829 41.2673 289.545 41.5707 289.181 41.804C288.817 42.028 288.364 42.14 287.823 42.14ZM288.201 40.978C288.695 40.978 289.111 40.8707 289.447 40.656C289.792 40.432 290.049 40.1333 290.217 39.76C290.385 39.3867 290.469 38.9713 290.469 38.514C290.469 38.0193 290.38 37.5853 290.203 37.212C290.035 36.8387 289.778 36.5493 289.433 36.344C289.097 36.1387 288.686 36.036 288.201 36.036C287.473 36.036 286.908 36.2693 286.507 36.736C286.115 37.2027 285.919 37.7953 285.919 38.514C285.919 38.9993 286.017 39.4287 286.213 39.802C286.409 40.166 286.675 40.4553 287.011 40.67C287.356 40.8753 287.753 40.978 288.201 40.978ZM290.469 35.014H291.813V42H290.581C290.581 42 290.571 41.916 290.553 41.748C290.534 41.5707 290.515 41.3607 290.497 41.118C290.478 40.8753 290.469 40.6607 290.469 40.474V35.014ZM296.618 40.964H296.184L298.452 35.014H299.908L297.038 42H295.778L292.936 35.014H294.406L296.618 40.964ZM306.215 39.732H307.489C307.415 40.1893 307.237 40.6 306.957 40.964C306.677 41.328 306.309 41.6173 305.851 41.832C305.394 42.0467 304.857 42.154 304.241 42.154C303.513 42.154 302.865 42 302.295 41.692C301.726 41.384 301.278 40.9593 300.951 40.418C300.625 39.8767 300.461 39.2467 300.461 38.528C300.461 37.8 300.62 37.1653 300.937 36.624C301.255 36.0733 301.693 35.644 302.253 35.336C302.813 35.028 303.453 34.874 304.171 34.874C304.927 34.874 305.562 35.0233 306.075 35.322C306.589 35.6207 306.967 36.064 307.209 36.652C307.461 37.2307 307.564 37.954 307.517 38.822H301.791C301.838 39.242 301.964 39.6153 302.169 39.942C302.384 40.2687 302.664 40.5253 303.009 40.712C303.364 40.8987 303.77 40.992 304.227 40.992C304.741 40.992 305.17 40.8753 305.515 40.642C305.861 40.4087 306.094 40.1053 306.215 39.732ZM304.185 36.022C303.579 36.022 303.075 36.1853 302.673 36.512C302.272 36.8293 302.006 37.254 301.875 37.786H306.173C306.136 37.2167 305.931 36.7827 305.557 36.484C305.184 36.176 304.727 36.022 304.185 36.022ZM309.073 32.214H310.417V42H309.073V32.214ZM317.023 32.13V33.572H315.357V32.13H317.023ZM315.525 35.014H316.855V42H315.525V35.014ZM318.749 35.014H320.093V42H318.749V35.014ZM322.753 34.874C323.145 34.874 323.5 34.93 323.817 35.042C324.135 35.154 324.405 35.322 324.629 35.546C324.853 35.7607 325.026 36.0313 325.147 36.358C325.278 36.6753 325.343 37.0393 325.343 37.45V42H324.013V37.744C324.013 37.1933 323.878 36.7827 323.607 36.512C323.346 36.232 322.945 36.092 322.403 36.092C321.983 36.092 321.601 36.19 321.255 36.386C320.91 36.582 320.625 36.8433 320.401 37.17C320.187 37.4873 320.056 37.8467 320.009 38.248L319.995 37.478C320.042 37.1047 320.14 36.7593 320.289 36.442C320.448 36.1247 320.644 35.8493 320.877 35.616C321.12 35.3733 321.4 35.1913 321.717 35.07C322.035 34.9393 322.38 34.874 322.753 34.874ZM337.025 39.34C336.969 39.9187 336.782 40.4227 336.465 40.852C336.157 41.272 335.751 41.594 335.247 41.818C334.743 42.042 334.183 42.154 333.567 42.154C332.886 42.154 332.26 42.014 331.691 41.734C331.122 41.4447 330.664 41.0293 330.319 40.488C329.983 39.9373 329.815 39.284 329.815 38.528C329.815 37.7627 329.983 37.1093 330.319 36.568C330.664 36.0173 331.122 35.5973 331.691 35.308C332.26 35.0187 332.886 34.874 333.567 34.874C334.183 34.874 334.738 34.986 335.233 35.21C335.728 35.434 336.134 35.756 336.451 36.176C336.768 36.5867 336.96 37.0813 337.025 37.66H335.807C335.648 37.156 335.364 36.7593 334.953 36.47C334.552 36.1713 334.09 36.022 333.567 36.022C333.138 36.022 332.736 36.12 332.363 36.316C331.999 36.512 331.705 36.7967 331.481 37.17C331.266 37.534 331.159 37.9867 331.159 38.528C331.159 39.0507 331.266 39.4987 331.481 39.872C331.705 40.236 331.999 40.516 332.363 40.712C332.727 40.8987 333.128 40.992 333.567 40.992C334.164 40.992 334.65 40.8473 335.023 40.558C335.396 40.2687 335.662 39.8627 335.821 39.34H337.025ZM338.563 32.214H339.907V42H338.563V32.214ZM344.711 42.14C344.114 42.14 343.568 41.986 343.073 41.678C342.579 41.37 342.187 40.9453 341.897 40.404C341.608 39.8533 341.463 39.2233 341.463 38.514C341.463 37.8047 341.608 37.1793 341.897 36.638C342.196 36.0873 342.602 35.658 343.115 35.35C343.629 35.0327 344.203 34.874 344.837 34.874C345.537 34.874 346.079 35.0373 346.461 35.364C346.853 35.6907 347.124 36.1293 347.273 36.68C347.432 37.2307 347.511 37.842 347.511 38.514C347.511 38.8873 347.465 39.284 347.371 39.704C347.278 40.124 347.129 40.5207 346.923 40.894C346.718 41.2673 346.433 41.5707 346.069 41.804C345.705 42.028 345.253 42.14 344.711 42.14ZM345.089 40.978C345.584 40.978 345.999 40.8707 346.335 40.656C346.681 40.432 346.937 40.1333 347.105 39.76C347.273 39.3867 347.357 38.9713 347.357 38.514C347.357 38.0193 347.269 37.5853 347.091 37.212C346.923 36.8387 346.667 36.5493 346.321 36.344C345.985 36.1387 345.575 36.036 345.089 36.036C344.361 36.036 343.797 36.2693 343.395 36.736C343.003 37.2027 342.807 37.7953 342.807 38.514C342.807 38.9993 342.905 39.4287 343.101 39.802C343.297 40.166 343.563 40.4553 343.899 40.67C344.245 40.8753 344.641 40.978 345.089 40.978ZM347.357 35.014H348.701V42H347.469C347.469 42 347.46 41.916 347.441 41.748C347.423 41.5707 347.404 41.3607 347.385 41.118C347.367 40.8753 347.357 40.6607 347.357 40.474V35.014ZM350.146 39.732H351.378C351.425 40.1053 351.593 40.4133 351.882 40.656C352.172 40.8893 352.578 41.006 353.1 41.006C353.436 41.006 353.698 40.9687 353.884 40.894C354.071 40.81 354.202 40.698 354.276 40.558C354.36 40.418 354.402 40.264 354.402 40.096C354.402 39.8813 354.346 39.718 354.234 39.606C354.122 39.4847 353.964 39.3867 353.758 39.312C353.553 39.228 353.31 39.1487 353.03 39.074C352.722 38.99 352.414 38.892 352.106 38.78C351.798 38.668 351.514 38.5327 351.252 38.374C351 38.2153 350.795 38.0193 350.636 37.786C350.487 37.5433 350.412 37.2493 350.412 36.904C350.412 36.6147 350.473 36.344 350.594 36.092C350.725 35.84 350.907 35.6253 351.14 35.448C351.383 35.2613 351.663 35.1213 351.98 35.028C352.298 34.9253 352.648 34.874 353.03 34.874C353.562 34.874 354.01 34.972 354.374 35.168C354.738 35.3547 355.014 35.6207 355.2 35.966C355.396 36.3113 355.499 36.708 355.508 37.156H354.332C354.267 36.764 354.132 36.4793 353.926 36.302C353.721 36.1153 353.413 36.022 353.002 36.022C352.601 36.022 352.293 36.1013 352.078 36.26C351.864 36.4187 351.756 36.6333 351.756 36.904C351.756 37.1093 351.831 37.2773 351.98 37.408C352.13 37.5293 352.33 37.6367 352.582 37.73C352.834 37.8233 353.119 37.9213 353.436 38.024C353.735 38.1267 354.02 38.234 354.29 38.346C354.57 38.4487 354.818 38.5747 355.032 38.724C355.256 38.864 355.429 39.0507 355.55 39.284C355.681 39.508 355.746 39.788 355.746 40.124C355.746 40.5347 355.644 40.894 355.438 41.202C355.233 41.5007 354.934 41.734 354.542 41.902C354.16 42.07 353.693 42.154 353.142 42.154C352.638 42.154 352.209 42.0933 351.854 41.972C351.509 41.8507 351.215 41.692 350.972 41.496C350.739 41.3 350.557 41.0947 350.426 40.88C350.305 40.656 350.221 40.4413 350.174 40.236C350.137 40.0307 350.128 39.8627 350.146 39.732ZM356.845 39.732H358.077C358.124 40.1053 358.292 40.4133 358.581 40.656C358.871 40.8893 359.277 41.006 359.799 41.006C360.135 41.006 360.397 40.9687 360.583 40.894C360.77 40.81 360.901 40.698 360.975 40.558C361.059 40.418 361.101 40.264 361.101 40.096C361.101 39.8813 361.045 39.718 360.933 39.606C360.821 39.4847 360.663 39.3867 360.457 39.312C360.252 39.228 360.009 39.1487 359.729 39.074C359.421 38.99 359.113 38.892 358.805 38.78C358.497 38.668 358.213 38.5327 357.951 38.374C357.699 38.2153 357.494 38.0193 357.335 37.786C357.186 37.5433 357.111 37.2493 357.111 36.904C357.111 36.6147 357.172 36.344 357.293 36.092C357.424 35.84 357.606 35.6253 357.839 35.448C358.082 35.2613 358.362 35.1213 358.679 35.028C358.997 34.9253 359.347 34.874 359.729 34.874C360.261 34.874 360.709 34.972 361.073 35.168C361.437 35.3547 361.713 35.6207 361.899 35.966C362.095 36.3113 362.198 36.708 362.207 37.156H361.031C360.966 36.764 360.831 36.4793 360.625 36.302C360.42 36.1153 360.112 36.022 359.701 36.022C359.3 36.022 358.992 36.1013 358.777 36.26C358.563 36.4187 358.455 36.6333 358.455 36.904C358.455 37.1093 358.53 37.2773 358.679 37.408C358.829 37.5293 359.029 37.6367 359.281 37.73C359.533 37.8233 359.818 37.9213 360.135 38.024C360.434 38.1267 360.719 38.234 360.989 38.346C361.269 38.4487 361.517 38.5747 361.731 38.724C361.955 38.864 362.128 39.0507 362.249 39.284C362.38 39.508 362.445 39.788 362.445 40.124C362.445 40.5347 362.343 40.894 362.137 41.202C361.932 41.5007 361.633 41.734 361.241 41.902C360.859 42.07 360.392 42.154 359.841 42.154C359.337 42.154 358.908 42.0933 358.553 41.972C358.208 41.8507 357.914 41.692 357.671 41.496C357.438 41.3 357.256 41.0947 357.125 40.88C357.004 40.656 356.92 40.4413 356.873 40.236C356.836 40.0307 356.827 39.8627 356.845 39.732ZM365.911 39.186V36.792H366.401C367.147 36.792 367.703 36.638 368.067 36.33C368.44 36.0127 368.627 35.5693 368.627 35C368.627 34.4587 368.459 34.0387 368.123 33.74C367.796 33.432 367.371 33.278 366.849 33.278C366.503 33.278 366.195 33.348 365.925 33.488C365.663 33.6187 365.463 33.8053 365.323 34.048C365.183 34.2907 365.113 34.5707 365.113 34.888H363.783C363.773 34.5893 363.811 34.3047 363.895 34.034C363.988 33.754 364.123 33.4973 364.301 33.264C364.478 33.0213 364.693 32.8113 364.945 32.634C365.206 32.4567 365.5 32.3167 365.827 32.214C366.153 32.1113 366.513 32.06 366.905 32.06C367.399 32.06 367.833 32.1347 368.207 32.284C368.589 32.4333 368.911 32.6387 369.173 32.9C369.434 33.1613 369.63 33.4693 369.761 33.824C369.901 34.1787 369.971 34.5613 369.971 34.972C369.971 35.5507 369.849 36.0407 369.607 36.442C369.364 36.8433 369.037 37.156 368.627 37.38C368.216 37.604 367.754 37.744 367.241 37.8V39.186H365.911ZM365.757 42V40.558H367.409V42H365.757ZM376.29 38.066V40.796H382.142V42H374.946V32.914H382.128V34.118H376.29V36.89H381.064V38.066H376.29ZM383.868 35.014H385.212V42H383.868V35.014ZM387.872 34.874C388.264 34.874 388.619 34.93 388.936 35.042C389.254 35.154 389.524 35.322 389.748 35.546C389.972 35.7607 390.145 36.0313 390.266 36.358C390.397 36.6753 390.462 37.0393 390.462 37.45V42H389.132V37.744C389.132 37.1933 388.997 36.7827 388.726 36.512C388.465 36.232 388.064 36.092 387.522 36.092C387.102 36.092 386.72 36.19 386.374 36.386C386.029 36.582 385.744 36.8433 385.52 37.17C385.306 37.4873 385.175 37.8467 385.128 38.248L385.114 37.478C385.161 37.1047 385.259 36.7593 385.408 36.442C385.567 36.1247 385.763 35.8493 385.996 35.616C386.239 35.3733 386.519 35.1913 386.836 35.07C387.154 34.9393 387.499 34.874 387.872 34.874ZM392.348 35.014H393.678V44.8H392.348V35.014ZM393.832 32.13V33.572H392.166V32.13H393.832ZM398.932 42.154C398.25 42.154 397.625 42.0093 397.056 41.72C396.486 41.4307 396.034 41.0153 395.698 40.474C395.362 39.9327 395.194 39.284 395.194 38.528C395.194 37.7627 395.362 37.1093 395.698 36.568C396.034 36.0173 396.486 35.5973 397.056 35.308C397.625 35.0187 398.25 34.874 398.932 34.874C399.613 34.874 400.234 35.0187 400.794 35.308C401.354 35.5973 401.802 36.0173 402.138 36.568C402.474 37.1093 402.642 37.7627 402.642 38.528C402.642 39.284 402.474 39.9327 402.138 40.474C401.802 41.0153 401.354 41.4307 400.794 41.72C400.234 42.0093 399.613 42.154 398.932 42.154ZM398.932 40.992C399.352 40.992 399.739 40.8987 400.094 40.712C400.458 40.516 400.747 40.236 400.962 39.872C401.186 39.4987 401.298 39.0507 401.298 38.528C401.298 37.996 401.186 37.5433 400.962 37.17C400.747 36.7967 400.458 36.512 400.094 36.316C399.739 36.12 399.352 36.022 398.932 36.022C398.512 36.022 398.12 36.12 397.756 36.316C397.392 36.5027 397.098 36.7827 396.874 37.156C396.65 37.5293 396.538 37.9867 396.538 38.528C396.538 39.0507 396.645 39.4987 396.86 39.872C397.084 40.236 397.378 40.516 397.742 40.712C398.106 40.8987 398.502 40.992 398.932 40.992ZM403.186 35.014H404.614L407.288 41.72L406.126 42L403.186 35.014ZM410.312 35.014L406.126 44.8H404.712L406.518 41.006L408.898 35.014H410.312ZM26.574 59.732H27.806C27.8527 60.1053 28.0207 60.4133 28.31 60.656C28.5993 60.8893 29.0053 61.006 29.528 61.006C29.864 61.006 30.1253 60.9687 30.312 60.894C30.4987 60.81 30.6293 60.698 30.704 60.558C30.788 60.418 30.83 60.264 30.83 60.096C30.83 59.8813 30.774 59.718 30.662 59.606C30.55 59.4847 30.3913 59.3867 30.186 59.312C29.9807 59.228 29.738 59.1487 29.458 59.074C29.15 58.99 28.842 58.892 28.534 58.78C28.226 58.668 27.9413 58.5327 27.68 58.374C27.428 58.2153 27.2227 58.0193 27.064 57.786C26.9147 57.5433 26.84 57.2493 26.84 56.904C26.84 56.6147 26.9007 56.344 27.022 56.092C27.1527 55.84 27.3347 55.6253 27.568 55.448C27.8107 55.2613 28.0907 55.1213 28.408 55.028C28.7253 54.9253 29.0753 54.874 29.458 54.874C29.99 54.874 30.438 54.972 30.802 55.168C31.166 55.3547 31.4413 55.6207 31.628 55.966C31.824 56.3113 31.9267 56.708 31.936 57.156H30.76C30.6947 56.764 30.5593 56.4793 30.354 56.302C30.1487 56.1153 29.8407 56.022 29.43 56.022C29.0287 56.022 28.7207 56.1013 28.506 56.26C28.2913 56.4187 28.184 56.6333 28.184 56.904C28.184 57.1093 28.2587 57.2773 28.408 57.408C28.5573 57.5293 28.758 57.6367 29.01 57.73C29.262 57.8233 29.5467 57.9213 29.864 58.024C30.1627 58.1267 30.4473 58.234 30.718 58.346C30.998 58.4487 31.2453 58.5747 31.46 58.724C31.684 58.864 31.8567 59.0507 31.978 59.284C32.1087 59.508 32.174 59.788 32.174 60.124C32.174 60.5347 32.0713 60.894 31.866 61.202C31.6607 61.5007 31.362 61.734 30.97 61.902C30.5873 62.07 30.1207 62.154 29.57 62.154C29.066 62.154 28.6367 62.0933 28.282 61.972C27.9367 61.8507 27.6427 61.692 27.4 61.496C27.1667 61.3 26.9847 61.0947 26.854 60.88C26.7327 60.656 26.6487 60.4413 26.602 60.236C26.5647 60.0307 26.5553 59.8627 26.574 59.732ZM38.9712 59.732H40.2452C40.1706 60.1893 39.9932 60.6 39.7132 60.964C39.4332 61.328 39.0646 61.6173 38.6072 61.832C38.1499 62.0467 37.6132 62.154 36.9972 62.154C36.2692 62.154 35.6206 62 35.0512 61.692C34.4819 61.384 34.0339 60.9593 33.7072 60.418C33.3806 59.8767 33.2172 59.2467 33.2172 58.528C33.2172 57.8 33.3759 57.1653 33.6932 56.624C34.0106 56.0733 34.4492 55.644 35.0092 55.336C35.5692 55.028 36.2086 54.874 36.9272 54.874C37.6832 54.874 38.3179 55.0233 38.8312 55.322C39.3446 55.6207 39.7226 56.064 39.9652 56.652C40.2172 57.2307 40.3199 57.954 40.2732 58.822H34.5472C34.5939 59.242 34.7199 59.6153 34.9252 59.942C35.1399 60.2687 35.4199 60.5253 35.7652 60.712C36.1199 60.8987 36.5259 60.992 36.9832 60.992C37.4966 60.992 37.9259 60.8753 38.2712 60.642C38.6166 60.4087 38.8499 60.1053 38.9712 59.732ZM36.9412 56.022C36.3346 56.022 35.8306 56.1853 35.4292 56.512C35.0279 56.8293 34.7619 57.254 34.6312 57.786H38.9292C38.8919 57.2167 38.6866 56.7827 38.3132 56.484C37.9399 56.176 37.4826 56.022 36.9412 56.022ZM44.5726 62.14C43.9753 62.14 43.4293 61.986 42.9346 61.678C42.44 61.37 42.048 60.9453 41.7586 60.404C41.4693 59.8533 41.3246 59.2233 41.3246 58.514C41.3246 57.8047 41.4693 57.1793 41.7586 56.638C42.0573 56.0873 42.4633 55.658 42.9766 55.35C43.49 55.0327 44.064 54.874 44.6986 54.874C45.3986 54.874 45.94 55.0373 46.3226 55.364C46.7146 55.6907 46.9853 56.1293 47.1346 56.68C47.2933 57.2307 47.3726 57.842 47.3726 58.514C47.3726 58.8873 47.326 59.284 47.2326 59.704C47.1393 60.124 46.99 60.5207 46.7846 60.894C46.5793 61.2673 46.2946 61.5707 45.9306 61.804C45.5666 62.028 45.114 62.14 44.5726 62.14ZM44.9506 60.978C45.4453 60.978 45.8606 60.8707 46.1966 60.656C46.542 60.432 46.7986 60.1333 46.9666 59.76C47.1346 59.3867 47.2186 58.9713 47.2186 58.514C47.2186 58.0193 47.13 57.5853 46.9526 57.212C46.7846 56.8387 46.528 56.5493 46.1826 56.344C45.8466 56.1387 45.436 56.036 44.9506 56.036C44.2226 56.036 43.658 56.2693 43.2566 56.736C42.8646 57.2027 42.6686 57.7953 42.6686 58.514C42.6686 58.9993 42.7666 59.4287 42.9626 59.802C43.1586 60.166 43.4246 60.4553 43.7606 60.67C44.106 60.8753 44.5026 60.978 44.9506 60.978ZM47.2186 55.014H48.5626V62H47.3306C47.3306 62 47.3213 61.916 47.3026 61.748C47.284 61.5707 47.2653 61.3607 47.2466 61.118C47.228 60.8753 47.2186 60.6607 47.2186 60.474V55.014ZM50.3156 55.014H51.6596V62H50.3156V55.014ZM54.3196 54.874C54.7116 54.874 55.0663 54.93 55.3836 55.042C55.7009 55.154 55.9716 55.322 56.1956 55.546C56.4196 55.7607 56.5923 56.0313 56.7136 56.358C56.8443 56.6753 56.9096 57.0393 56.9096 57.45V62H55.5796V57.744C55.5796 57.1933 55.4443 56.7827 55.1736 56.512C54.9123 56.232 54.5109 56.092 53.9696 56.092C53.5496 56.092 53.1669 56.19 52.8216 56.386C52.4763 56.582 52.1916 56.8433 51.9676 57.17C51.7529 57.4873 51.6223 57.8467 51.5756 58.248L51.5616 57.478C51.6083 57.1047 51.7063 56.7593 51.8556 56.442C52.0143 56.1247 52.2103 55.8493 52.4436 55.616C52.6863 55.3733 52.9663 55.1913 53.2836 55.07C53.6009 54.9393 53.9463 54.874 54.3196 54.874ZM59.4436 54.874C59.8356 54.874 60.1903 54.93 60.5076 55.042C60.8249 55.154 61.0956 55.322 61.3196 55.546C61.5436 55.7607 61.7163 56.0313 61.8376 56.358C61.9683 56.6753 62.0336 57.0393 62.0336 57.45V62H60.7036V57.744C60.7036 57.1933 60.5683 56.7827 60.2976 56.512C60.0363 56.232 59.6349 56.092 59.0936 56.092C58.6736 56.092 58.2909 56.19 57.9456 56.386C57.6003 56.582 57.3156 56.8433 57.0916 57.17C56.8769 57.4873 56.7463 57.8467 56.6996 58.248L56.6856 57.464C56.7323 57.0907 56.8303 56.75 56.9796 56.442C57.1383 56.1247 57.3389 55.8493 57.5816 55.616C57.8243 55.3733 58.1043 55.1913 58.4216 55.07C58.7389 54.9393 59.0796 54.874 59.4436 54.874ZM63.9361 52.214H65.2801V62H63.9361V52.214ZM72.5904 59.732H73.8644C73.7897 60.1893 73.6124 60.6 73.3324 60.964C73.0524 61.328 72.6837 61.6173 72.2264 61.832C71.769 62.0467 71.2324 62.154 70.6164 62.154C69.8884 62.154 69.2397 62 68.6704 61.692C68.101 61.384 67.653 60.9593 67.3264 60.418C66.9997 59.8767 66.8364 59.2467 66.8364 58.528C66.8364 57.8 66.995 57.1653 67.3124 56.624C67.6297 56.0733 68.0684 55.644 68.6284 55.336C69.1884 55.028 69.8277 54.874 70.5464 54.874C71.3024 54.874 71.937 55.0233 72.4504 55.322C72.9637 55.6207 73.3417 56.064 73.5844 56.652C73.8364 57.2307 73.939 57.954 73.8924 58.822H68.1664C68.213 59.242 68.339 59.6153 68.5444 59.942C68.759 60.2687 69.039 60.5253 69.3844 60.712C69.739 60.8987 70.145 60.992 70.6024 60.992C71.1157 60.992 71.545 60.8753 71.8904 60.642C72.2357 60.4087 72.469 60.1053 72.5904 59.732ZM70.5604 56.022C69.9537 56.022 69.4497 56.1853 69.0484 56.512C68.647 56.8293 68.381 57.254 68.2504 57.786H72.5484C72.511 57.2167 72.3057 56.7827 71.9324 56.484C71.559 56.176 71.1017 56.022 70.5604 56.022ZM74.9998 59.732H76.2318C76.2784 60.1053 76.4464 60.4133 76.7358 60.656C77.0251 60.8893 77.4311 61.006 77.9538 61.006C78.2898 61.006 78.5511 60.9687 78.7378 60.894C78.9244 60.81 79.0551 60.698 79.1298 60.558C79.2138 60.418 79.2558 60.264 79.2558 60.096C79.2558 59.8813 79.1998 59.718 79.0878 59.606C78.9758 59.4847 78.8171 59.3867 78.6118 59.312C78.4064 59.228 78.1638 59.1487 77.8838 59.074C77.5758 58.99 77.2678 58.892 76.9598 58.78C76.6518 58.668 76.3671 58.5327 76.1058 58.374C75.8538 58.2153 75.6484 58.0193 75.4898 57.786C75.3404 57.5433 75.2658 57.2493 75.2658 56.904C75.2658 56.6147 75.3264 56.344 75.4478 56.092C75.5784 55.84 75.7604 55.6253 75.9938 55.448C76.2364 55.2613 76.5164 55.1213 76.8338 55.028C77.1511 54.9253 77.5011 54.874 77.8838 54.874C78.4158 54.874 78.8638 54.972 79.2278 55.168C79.5918 55.3547 79.8671 55.6207 80.0538 55.966C80.2498 56.3113 80.3524 56.708 80.3618 57.156H79.1858C79.1204 56.764 78.9851 56.4793 78.7798 56.302C78.5744 56.1153 78.2664 56.022 77.8558 56.022C77.4544 56.022 77.1464 56.1013 76.9318 56.26C76.7171 56.4187 76.6098 56.6333 76.6098 56.904C76.6098 57.1093 76.6844 57.2773 76.8338 57.408C76.9831 57.5293 77.1838 57.6367 77.4358 57.73C77.6878 57.8233 77.9724 57.9213 78.2898 58.024C78.5884 58.1267 78.8731 58.234 79.1438 58.346C79.4238 58.4487 79.6711 58.5747 79.8858 58.724C80.1098 58.864 80.2824 59.0507 80.4038 59.284C80.5344 59.508 80.5998 59.788 80.5998 60.124C80.5998 60.5347 80.4971 60.894 80.2918 61.202C80.0864 61.5007 79.7878 61.734 79.3958 61.902C79.0131 62.07 78.5464 62.154 77.9958 62.154C77.4918 62.154 77.0624 62.0933 76.7078 61.972C76.3624 61.8507 76.0684 61.692 75.8258 61.496C75.5924 61.3 75.4104 61.0947 75.2798 60.88C75.1584 60.656 75.0744 60.4413 75.0278 60.236C74.9904 60.0307 74.9811 59.8627 74.9998 59.732ZM81.699 59.732H82.931C82.9777 60.1053 83.1457 60.4133 83.435 60.656C83.7243 60.8893 84.1303 61.006 84.653 61.006C84.989 61.006 85.2503 60.9687 85.437 60.894C85.6237 60.81 85.7543 60.698 85.829 60.558C85.913 60.418 85.955 60.264 85.955 60.096C85.955 59.8813 85.899 59.718 85.787 59.606C85.675 59.4847 85.5163 59.3867 85.311 59.312C85.1057 59.228 84.863 59.1487 84.583 59.074C84.275 58.99 83.967 58.892 83.659 58.78C83.351 58.668 83.0663 58.5327 82.805 58.374C82.553 58.2153 82.3477 58.0193 82.189 57.786C82.0397 57.5433 81.965 57.2493 81.965 56.904C81.965 56.6147 82.0257 56.344 82.147 56.092C82.2777 55.84 82.4597 55.6253 82.693 55.448C82.9357 55.2613 83.2157 55.1213 83.533 55.028C83.8503 54.9253 84.2003 54.874 84.583 54.874C85.115 54.874 85.563 54.972 85.927 55.168C86.291 55.3547 86.5663 55.6207 86.753 55.966C86.949 56.3113 87.0517 56.708 87.061 57.156H85.885C85.8197 56.764 85.6843 56.4793 85.479 56.302C85.2737 56.1153 84.9657 56.022 84.555 56.022C84.1537 56.022 83.8457 56.1013 83.631 56.26C83.4163 56.4187 83.309 56.6333 83.309 56.904C83.309 57.1093 83.3837 57.2773 83.533 57.408C83.6823 57.5293 83.883 57.6367 84.135 57.73C84.387 57.8233 84.6717 57.9213 84.989 58.024C85.2877 58.1267 85.5723 58.234 85.843 58.346C86.123 58.4487 86.3703 58.5747 86.585 58.724C86.809 58.864 86.9817 59.0507 87.103 59.284C87.2337 59.508 87.299 59.788 87.299 60.124C87.299 60.5347 87.1963 60.894 86.991 61.202C86.7857 61.5007 86.487 61.734 86.095 61.902C85.7123 62.07 85.2457 62.154 84.695 62.154C84.191 62.154 83.7617 62.0933 83.407 61.972C83.0617 61.8507 82.7677 61.692 82.525 61.496C82.2917 61.3 82.1097 61.0947 81.979 60.88C81.8577 60.656 81.7737 60.4413 81.727 60.236C81.6897 60.0307 81.6803 59.8627 81.699 59.732ZM91.2924 55.014H95.8144V56.176H91.2924V55.014ZM92.8884 53.166H94.2184V62H92.8884V53.166ZM97.0871 55.014H98.4311V62H97.0871V55.014ZM100.797 56.204C100.312 56.204 99.8964 56.316 99.5511 56.54C99.2151 56.764 98.9444 57.0393 98.7391 57.366C98.5431 57.6927 98.4124 58.0053 98.3471 58.304L98.3331 57.506C98.3424 57.4127 98.3657 57.268 98.4031 57.072C98.4497 56.8667 98.5291 56.638 98.6411 56.386C98.7531 56.134 98.9024 55.896 99.0891 55.672C99.2757 55.4387 99.5091 55.2473 99.7891 55.098C100.069 54.9487 100.405 54.874 100.797 54.874V56.204ZM104.893 62.14C104.296 62.14 103.75 61.986 103.255 61.678C102.76 61.37 102.368 60.9453 102.079 60.404C101.79 59.8533 101.645 59.2233 101.645 58.514C101.645 57.8047 101.79 57.1793 102.079 56.638C102.378 56.0873 102.784 55.658 103.297 55.35C103.81 55.0327 104.384 54.874 105.019 54.874C105.719 54.874 106.26 55.0373 106.643 55.364C107.035 55.6907 107.306 56.1293 107.455 56.68C107.614 57.2307 107.693 57.842 107.693 58.514C107.693 58.8873 107.646 59.284 107.553 59.704C107.46 60.124 107.31 60.5207 107.105 60.894C106.9 61.2673 106.615 61.5707 106.251 61.804C105.887 62.028 105.434 62.14 104.893 62.14ZM105.271 60.978C105.766 60.978 106.181 60.8707 106.517 60.656C106.862 60.432 107.119 60.1333 107.287 59.76C107.455 59.3867 107.539 58.9713 107.539 58.514C107.539 58.0193 107.45 57.5853 107.273 57.212C107.105 56.8387 106.848 56.5493 106.503 56.344C106.167 56.1387 105.756 56.036 105.271 56.036C104.543 56.036 103.978 56.2693 103.577 56.736C103.185 57.2027 102.989 57.7953 102.989 58.514C102.989 58.9993 103.087 59.4287 103.283 59.802C103.479 60.166 103.745 60.4553 104.081 60.67C104.426 60.8753 104.823 60.978 105.271 60.978ZM107.539 55.014H108.883V62H107.651C107.651 62 107.642 61.916 107.623 61.748C107.604 61.5707 107.586 61.3607 107.567 61.118C107.548 60.8753 107.539 60.6607 107.539 60.474V55.014ZM110.636 55.014H111.98V62H110.636V55.014ZM114.64 54.874C115.032 54.874 115.387 54.93 115.704 55.042C116.021 55.154 116.292 55.322 116.516 55.546C116.74 55.7607 116.913 56.0313 117.034 56.358C117.165 56.6753 117.23 57.0393 117.23 57.45V62H115.9V57.744C115.9 57.1933 115.765 56.7827 115.494 56.512C115.233 56.232 114.831 56.092 114.29 56.092C113.87 56.092 113.487 56.19 113.142 56.386C112.797 56.582 112.512 56.8433 112.288 57.17C112.073 57.4873 111.943 57.8467 111.896 58.248L111.882 57.478C111.929 57.1047 112.027 56.7593 112.176 56.442C112.335 56.1247 112.531 55.8493 112.764 55.616C113.007 55.3733 113.287 55.1913 113.604 55.07C113.921 54.9393 114.267 54.874 114.64 54.874ZM118.681 59.732H119.913C119.96 60.1053 120.128 60.4133 120.417 60.656C120.707 60.8893 121.113 61.006 121.635 61.006C121.971 61.006 122.233 60.9687 122.419 60.894C122.606 60.81 122.737 60.698 122.811 60.558C122.895 60.418 122.937 60.264 122.937 60.096C122.937 59.8813 122.881 59.718 122.769 59.606C122.657 59.4847 122.499 59.3867 122.293 59.312C122.088 59.228 121.845 59.1487 121.565 59.074C121.257 58.99 120.949 58.892 120.641 58.78C120.333 58.668 120.049 58.5327 119.787 58.374C119.535 58.2153 119.33 58.0193 119.171 57.786C119.022 57.5433 118.947 57.2493 118.947 56.904C118.947 56.6147 119.008 56.344 119.129 56.092C119.26 55.84 119.442 55.6253 119.675 55.448C119.918 55.2613 120.198 55.1213 120.515 55.028C120.833 54.9253 121.183 54.874 121.565 54.874C122.097 54.874 122.545 54.972 122.909 55.168C123.273 55.3547 123.549 55.6207 123.735 55.966C123.931 56.3113 124.034 56.708 124.043 57.156H122.867C122.802 56.764 122.667 56.4793 122.461 56.302C122.256 56.1153 121.948 56.022 121.537 56.022C121.136 56.022 120.828 56.1013 120.613 56.26C120.399 56.4187 120.291 56.6333 120.291 56.904C120.291 57.1093 120.366 57.2773 120.515 57.408C120.665 57.5293 120.865 57.6367 121.117 57.73C121.369 57.8233 121.654 57.9213 121.971 58.024C122.27 58.1267 122.555 58.234 122.825 58.346C123.105 58.4487 123.353 58.5747 123.567 58.724C123.791 58.864 123.964 59.0507 124.085 59.284C124.216 59.508 124.281 59.788 124.281 60.124C124.281 60.5347 124.179 60.894 123.973 61.202C123.768 61.5007 123.469 61.734 123.077 61.902C122.695 62.07 122.228 62.154 121.677 62.154C121.173 62.154 120.744 62.0933 120.389 61.972C120.044 61.8507 119.75 61.692 119.507 61.496C119.274 61.3 119.092 61.0947 118.961 60.88C118.84 60.656 118.756 60.4413 118.709 60.236C118.672 60.0307 118.663 59.8627 118.681 59.732ZM129.679 62.154C129.137 62.154 128.685 62.0373 128.321 61.804C127.957 61.5707 127.672 61.2673 127.467 60.894C127.261 60.5207 127.112 60.124 127.019 59.704C126.925 59.284 126.879 58.8873 126.879 58.514C126.879 58.01 126.921 57.5387 127.005 57.1C127.098 56.6613 127.247 56.274 127.453 55.938C127.658 55.602 127.943 55.3407 128.307 55.154C128.671 54.9673 129.128 54.874 129.679 54.874C130.285 54.874 130.831 55.0327 131.317 55.35C131.802 55.658 132.189 56.0873 132.479 56.638C132.777 57.1887 132.927 57.814 132.927 58.514C132.927 59.2327 132.777 59.8673 132.479 60.418C132.18 60.9593 131.783 61.384 131.289 61.692C130.803 62 130.267 62.154 129.679 62.154ZM129.301 60.978C129.749 60.978 130.145 60.8753 130.491 60.67C130.836 60.4553 131.102 60.166 131.289 59.802C131.485 59.4287 131.583 58.9993 131.583 58.514C131.583 57.7953 131.382 57.2027 130.981 56.736C130.589 56.2693 130.029 56.036 129.301 56.036C128.862 56.036 128.47 56.1387 128.125 56.344C127.789 56.5493 127.523 56.8387 127.327 57.212C127.131 57.5853 127.033 58.0193 127.033 58.514C127.033 58.9807 127.117 59.4007 127.285 59.774C127.462 60.138 127.719 60.432 128.055 60.656C128.391 60.8707 128.806 60.978 129.301 60.978ZM125.689 55.014H126.977L127.033 56.596V64.8H125.689V55.014ZM137.703 62.154C137.022 62.154 136.397 62.0093 135.827 61.72C135.258 61.4307 134.805 61.0153 134.469 60.474C134.133 59.9327 133.965 59.284 133.965 58.528C133.965 57.7627 134.133 57.1093 134.469 56.568C134.805 56.0173 135.258 55.5973 135.827 55.308C136.397 55.0187 137.022 54.874 137.703 54.874C138.385 54.874 139.005 55.0187 139.565 55.308C140.125 55.5973 140.573 56.0173 140.909 56.568C141.245 57.1093 141.413 57.7627 141.413 58.528C141.413 59.284 141.245 59.9327 140.909 60.474C140.573 61.0153 140.125 61.4307 139.565 61.72C139.005 62.0093 138.385 62.154 137.703 62.154ZM137.703 60.992C138.123 60.992 138.511 60.8987 138.865 60.712C139.229 60.516 139.519 60.236 139.733 59.872C139.957 59.4987 140.069 59.0507 140.069 58.528C140.069 57.996 139.957 57.5433 139.733 57.17C139.519 56.7967 139.229 56.512 138.865 56.316C138.511 56.12 138.123 56.022 137.703 56.022C137.283 56.022 136.891 56.12 136.527 56.316C136.163 56.5027 135.869 56.7827 135.645 57.156C135.421 57.5293 135.309 57.9867 135.309 58.528C135.309 59.0507 135.417 59.4987 135.631 59.872C135.855 60.236 136.149 60.516 136.513 60.712C136.877 60.8987 137.274 60.992 137.703 60.992ZM142.82 55.014H144.164V62H142.82V55.014ZM146.53 56.204C146.044 56.204 145.629 56.316 145.284 56.54C144.948 56.764 144.677 57.0393 144.472 57.366C144.276 57.6927 144.145 58.0053 144.08 58.304L144.066 57.506C144.075 57.4127 144.098 57.268 144.136 57.072C144.182 56.8667 144.262 56.638 144.374 56.386C144.486 56.134 144.635 55.896 144.822 55.672C145.008 55.4387 145.242 55.2473 145.522 55.098C145.802 54.9487 146.138 54.874 146.53 54.874V56.204ZM147.265 55.014H151.787V56.176H147.265V55.014ZM148.861 53.166H150.191V62H148.861V53.166ZM155.821 62.14C155.223 62.14 154.677 61.986 154.183 61.678C153.688 61.37 153.296 60.9453 153.007 60.404C152.717 59.8533 152.573 59.2233 152.573 58.514C152.573 57.8047 152.717 57.1793 153.007 56.638C153.305 56.0873 153.711 55.658 154.225 55.35C154.738 55.0327 155.312 54.874 155.947 54.874C156.647 54.874 157.188 55.0373 157.571 55.364C157.963 55.6907 158.233 56.1293 158.383 56.68C158.541 57.2307 158.621 57.842 158.621 58.514C158.621 58.8873 158.574 59.284 158.481 59.704C158.387 60.124 158.238 60.5207 158.033 60.894C157.827 61.2673 157.543 61.5707 157.179 61.804C156.815 62.028 156.362 62.14 155.821 62.14ZM156.199 60.978C156.693 60.978 157.109 60.8707 157.445 60.656C157.79 60.432 158.047 60.1333 158.215 59.76C158.383 59.3867 158.467 58.9713 158.467 58.514C158.467 58.0193 158.378 57.5853 158.201 57.212C158.033 56.8387 157.776 56.5493 157.431 56.344C157.095 56.1387 156.684 56.036 156.199 56.036C155.471 56.036 154.906 56.2693 154.505 56.736C154.113 57.2027 153.917 57.7953 153.917 58.514C153.917 58.9993 154.015 59.4287 154.211 59.802C154.407 60.166 154.673 60.4553 155.009 60.67C155.354 60.8753 155.751 60.978 156.199 60.978ZM158.467 55.014H159.811V62H158.579C158.579 62 158.569 61.916 158.551 61.748C158.532 61.5707 158.513 61.3607 158.495 61.118C158.476 60.8753 158.467 60.6607 158.467 60.474V55.014ZM161.074 55.014H165.596V56.176H161.074V55.014ZM162.67 53.166H164V62H162.67V53.166ZM168.478 52.13V53.572H166.812V52.13H168.478ZM166.98 55.014H168.31V62H166.98V55.014ZM173.578 62.154C172.897 62.154 172.272 62.0093 171.702 61.72C171.133 61.4307 170.68 61.0153 170.344 60.474C170.008 59.9327 169.84 59.284 169.84 58.528C169.84 57.7627 170.008 57.1093 170.344 56.568C170.68 56.0173 171.133 55.5973 171.702 55.308C172.272 55.0187 172.897 54.874 173.578 54.874C174.26 54.874 174.88 55.0187 175.44 55.308C176 55.5973 176.448 56.0173 176.784 56.568C177.12 57.1093 177.288 57.7627 177.288 58.528C177.288 59.284 177.12 59.9327 176.784 60.474C176.448 61.0153 176 61.4307 175.44 61.72C174.88 62.0093 174.26 62.154 173.578 62.154ZM173.578 60.992C173.998 60.992 174.386 60.8987 174.74 60.712C175.104 60.516 175.394 60.236 175.608 59.872C175.832 59.4987 175.944 59.0507 175.944 58.528C175.944 57.996 175.832 57.5433 175.608 57.17C175.394 56.7967 175.104 56.512 174.74 56.316C174.386 56.12 173.998 56.022 173.578 56.022C173.158 56.022 172.766 56.12 172.402 56.316C172.038 56.5027 171.744 56.7827 171.52 57.156C171.296 57.5293 171.184 57.9867 171.184 58.528C171.184 59.0507 171.292 59.4987 171.506 59.872C171.73 60.236 172.024 60.516 172.388 60.712C172.752 60.8987 173.149 60.992 173.578 60.992ZM178.695 55.014H180.039V62H178.695V55.014ZM182.699 54.874C183.091 54.874 183.445 54.93 183.763 55.042C184.08 55.154 184.351 55.322 184.575 55.546C184.799 55.7607 184.971 56.0313 185.093 56.358C185.223 56.6753 185.289 57.0393 185.289 57.45V62H183.959V57.744C183.959 57.1933 183.823 56.7827 183.553 56.512C183.291 56.232 182.89 56.092 182.349 56.092C181.929 56.092 181.546 56.19 181.201 56.386C180.855 56.582 180.571 56.8433 180.347 57.17C180.132 57.4873 180.001 57.8467 179.955 58.248L179.941 57.478C179.987 57.1047 180.085 56.7593 180.235 56.442C180.393 56.1247 180.589 55.8493 180.823 55.616C181.065 55.3733 181.345 55.1913 181.663 55.07C181.98 54.9393 182.325 54.874 182.699 54.874ZM195.514 59.732H196.788C196.714 60.1893 196.536 60.6 196.256 60.964C195.976 61.328 195.608 61.6173 195.15 61.832C194.693 62.0467 194.156 62.154 193.54 62.154C192.812 62.154 192.164 62 191.594 61.692C191.025 61.384 190.577 60.9593 190.25 60.418C189.924 59.8767 189.76 59.2467 189.76 58.528C189.76 57.8 189.919 57.1653 190.236 56.624C190.554 56.0733 190.992 55.644 191.552 55.336C192.112 55.028 192.752 54.874 193.47 54.874C194.226 54.874 194.861 55.0233 195.374 55.322C195.888 55.6207 196.266 56.064 196.508 56.652C196.76 57.2307 196.863 57.954 196.816 58.822H191.09C191.137 59.242 191.263 59.6153 191.468 59.942C191.683 60.2687 191.963 60.5253 192.308 60.712C192.663 60.8987 193.069 60.992 193.526 60.992C194.04 60.992 194.469 60.8753 194.814 60.642C195.16 60.4087 195.393 60.1053 195.514 59.732ZM193.484 56.022C192.878 56.022 192.374 56.1853 191.972 56.512C191.571 56.8293 191.305 57.254 191.174 57.786H195.472C195.435 57.2167 195.23 56.7827 194.856 56.484C194.483 56.176 194.026 56.022 193.484 56.022ZM204.411 55.014L201.415 58.836L199.077 62H197.439L200.617 57.968L202.787 55.014H204.411ZM197.439 55.014H199.105L201.415 57.982L204.565 62H202.941L200.533 58.85L197.439 55.014ZM209.755 62.154C209.213 62.154 208.761 62.0373 208.397 61.804C208.033 61.5707 207.748 61.2673 207.543 60.894C207.337 60.5207 207.188 60.124 207.095 59.704C207.001 59.284 206.955 58.8873 206.955 58.514C206.955 58.01 206.997 57.5387 207.081 57.1C207.174 56.6613 207.323 56.274 207.529 55.938C207.734 55.602 208.019 55.3407 208.383 55.154C208.747 54.9673 209.204 54.874 209.755 54.874C210.361 54.874 210.907 55.0327 211.393 55.35C211.878 55.658 212.265 56.0873 212.555 56.638C212.853 57.1887 213.003 57.814 213.003 58.514C213.003 59.2327 212.853 59.8673 212.555 60.418C212.256 60.9593 211.859 61.384 211.365 61.692C210.879 62 210.343 62.154 209.755 62.154ZM209.377 60.978C209.825 60.978 210.221 60.8753 210.567 60.67C210.912 60.4553 211.178 60.166 211.365 59.802C211.561 59.4287 211.659 58.9993 211.659 58.514C211.659 57.7953 211.458 57.2027 211.057 56.736C210.665 56.2693 210.105 56.036 209.377 56.036C208.938 56.036 208.546 56.1387 208.201 56.344C207.865 56.5493 207.599 56.8387 207.403 57.212C207.207 57.5853 207.109 58.0193 207.109 58.514C207.109 58.9807 207.193 59.4007 207.361 59.774C207.538 60.138 207.795 60.432 208.131 60.656C208.467 60.8707 208.882 60.978 209.377 60.978ZM205.765 55.014H207.053L207.109 56.596V64.8H205.765V55.014ZM219.795 59.732H221.069C220.995 60.1893 220.817 60.6 220.537 60.964C220.257 61.328 219.889 61.6173 219.431 61.832C218.974 62.0467 218.437 62.154 217.821 62.154C217.093 62.154 216.445 62 215.875 61.692C215.306 61.384 214.858 60.9593 214.531 60.418C214.205 59.8767 214.041 59.2467 214.041 58.528C214.041 57.8 214.2 57.1653 214.517 56.624C214.835 56.0733 215.273 55.644 215.833 55.336C216.393 55.028 217.033 54.874 217.751 54.874C218.507 54.874 219.142 55.0233 219.655 55.322C220.169 55.6207 220.547 56.064 220.789 56.652C221.041 57.2307 221.144 57.954 221.097 58.822H215.371C215.418 59.242 215.544 59.6153 215.749 59.942C215.964 60.2687 216.244 60.5253 216.589 60.712C216.944 60.8987 217.35 60.992 217.807 60.992C218.321 60.992 218.75 60.8753 219.095 60.642C219.441 60.4087 219.674 60.1053 219.795 59.732ZM217.765 56.022C217.159 56.022 216.655 56.1853 216.253 56.512C215.852 56.8293 215.586 57.254 215.455 57.786H219.753C219.716 57.2167 219.511 56.7827 219.137 56.484C218.764 56.176 218.307 56.022 217.765 56.022ZM222.513 55.014H223.857V62H222.513V55.014ZM226.223 56.204C225.738 56.204 225.322 56.316 224.977 56.54C224.641 56.764 224.37 57.0393 224.165 57.366C223.969 57.6927 223.838 58.0053 223.773 58.304L223.759 57.506C223.768 57.4127 223.792 57.268 223.829 57.072C223.876 56.8667 223.955 56.638 224.067 56.386C224.179 56.134 224.328 55.896 224.515 55.672C224.702 55.4387 224.935 55.2473 225.215 55.098C225.495 54.9487 225.831 54.874 226.223 54.874V56.204ZM229.045 52.13V53.572H227.379V52.13H229.045ZM227.547 55.014H228.877V62H227.547V55.014ZM236.161 59.732H237.435C237.36 60.1893 237.183 60.6 236.903 60.964C236.623 61.328 236.254 61.6173 235.797 61.832C235.339 62.0467 234.803 62.154 234.187 62.154C233.459 62.154 232.81 62 232.241 61.692C231.671 61.384 231.223 60.9593 230.897 60.418C230.57 59.8767 230.407 59.2467 230.407 58.528C230.407 57.8 230.565 57.1653 230.883 56.624C231.2 56.0733 231.639 55.644 232.199 55.336C232.759 55.028 233.398 54.874 234.117 54.874C234.873 54.874 235.507 55.0233 236.021 55.322C236.534 55.6207 236.912 56.064 237.155 56.652C237.407 57.2307 237.509 57.954 237.463 58.822H231.737C231.783 59.242 231.909 59.6153 232.115 59.942C232.329 60.2687 232.609 60.5253 232.955 60.712C233.309 60.8987 233.715 60.992 234.173 60.992C234.686 60.992 235.115 60.8753 235.461 60.642C235.806 60.4087 236.039 60.1053 236.161 59.732ZM234.131 56.022C233.524 56.022 233.02 56.1853 232.619 56.512C232.217 56.8293 231.951 57.254 231.821 57.786H236.119C236.081 57.2167 235.876 56.7827 235.503 56.484C235.129 56.176 234.672 56.022 234.131 56.022ZM238.878 55.014H240.222V62H238.878V55.014ZM242.882 54.874C243.274 54.874 243.629 54.93 243.946 55.042C244.263 55.154 244.534 55.322 244.758 55.546C244.982 55.7607 245.155 56.0313 245.276 56.358C245.407 56.6753 245.472 57.0393 245.472 57.45V62H244.142V57.744C244.142 57.1933 244.007 56.7827 243.736 56.512C243.475 56.232 243.073 56.092 242.532 56.092C242.112 56.092 241.729 56.19 241.384 56.386C241.039 56.582 240.754 56.8433 240.53 57.17C240.315 57.4873 240.185 57.8467 240.138 58.248L240.124 57.478C240.171 57.1047 240.269 56.7593 240.418 56.442C240.577 56.1247 240.773 55.8493 241.006 55.616C241.249 55.3733 241.529 55.1913 241.846 55.07C242.163 54.9393 242.509 54.874 242.882 54.874ZM254.078 59.34C254.022 59.9187 253.835 60.4227 253.518 60.852C253.21 61.272 252.804 61.594 252.3 61.818C251.796 62.042 251.236 62.154 250.62 62.154C249.938 62.154 249.313 62.014 248.744 61.734C248.174 61.4447 247.717 61.0293 247.372 60.488C247.036 59.9373 246.868 59.284 246.868 58.528C246.868 57.7627 247.036 57.1093 247.372 56.568C247.717 56.0173 248.174 55.5973 248.744 55.308C249.313 55.0187 249.938 54.874 250.62 54.874C251.236 54.874 251.791 54.986 252.286 55.21C252.78 55.434 253.186 55.756 253.504 56.176C253.821 56.5867 254.012 57.0813 254.078 57.66H252.86C252.701 57.156 252.416 56.7593 252.006 56.47C251.604 56.1713 251.142 56.022 250.62 56.022C250.19 56.022 249.789 56.12 249.416 56.316C249.052 56.512 248.758 56.7967 248.534 57.17C248.319 57.534 248.212 57.9867 248.212 58.528C248.212 59.0507 248.319 59.4987 248.534 59.872C248.758 60.236 249.052 60.516 249.416 60.712C249.78 60.8987 250.181 60.992 250.62 60.992C251.217 60.992 251.702 60.8473 252.076 60.558C252.449 60.2687 252.715 59.8627 252.874 59.34H254.078ZM260.866 59.732H262.14C262.065 60.1893 261.888 60.6 261.608 60.964C261.328 61.328 260.959 61.6173 260.502 61.832C260.044 62.0467 259.508 62.154 258.892 62.154C258.164 62.154 257.515 62 256.946 61.692C256.376 61.384 255.928 60.9593 255.602 60.418C255.275 59.8767 255.112 59.2467 255.112 58.528C255.112 57.8 255.27 57.1653 255.588 56.624C255.905 56.0733 256.344 55.644 256.904 55.336C257.464 55.028 258.103 54.874 258.822 54.874C259.578 54.874 260.212 55.0233 260.726 55.322C261.239 55.6207 261.617 56.064 261.86 56.652C262.112 57.2307 262.214 57.954 262.168 58.822H256.442C256.488 59.242 256.614 59.6153 256.82 59.942C257.034 60.2687 257.314 60.5253 257.66 60.712C258.014 60.8987 258.42 60.992 258.878 60.992C259.391 60.992 259.82 60.8753 260.166 60.642C260.511 60.4087 260.744 60.1053 260.866 59.732ZM258.836 56.022C258.229 56.022 257.725 56.1853 257.324 56.512C256.922 56.8293 256.656 57.254 256.526 57.786H260.824C260.786 57.2167 260.581 56.7827 260.208 56.484C259.834 56.176 259.377 56.022 258.836 56.022ZM263.275 59.732H264.507C264.554 60.1053 264.722 60.4133 265.011 60.656C265.301 60.8893 265.707 61.006 266.229 61.006C266.565 61.006 266.827 60.9687 267.013 60.894C267.2 60.81 267.331 60.698 267.405 60.558C267.489 60.418 267.531 60.264 267.531 60.096C267.531 59.8813 267.475 59.718 267.363 59.606C267.251 59.4847 267.093 59.3867 266.887 59.312C266.682 59.228 266.439 59.1487 266.159 59.074C265.851 58.99 265.543 58.892 265.235 58.78C264.927 58.668 264.643 58.5327 264.381 58.374C264.129 58.2153 263.924 58.0193 263.765 57.786C263.616 57.5433 263.541 57.2493 263.541 56.904C263.541 56.6147 263.602 56.344 263.723 56.092C263.854 55.84 264.036 55.6253 264.269 55.448C264.512 55.2613 264.792 55.1213 265.109 55.028C265.427 54.9253 265.777 54.874 266.159 54.874C266.691 54.874 267.139 54.972 267.503 55.168C267.867 55.3547 268.143 55.6207 268.329 55.966C268.525 56.3113 268.628 56.708 268.637 57.156H267.461C267.396 56.764 267.261 56.4793 267.055 56.302C266.85 56.1153 266.542 56.022 266.131 56.022C265.73 56.022 265.422 56.1013 265.207 56.26C264.993 56.4187 264.885 56.6333 264.885 56.904C264.885 57.1093 264.96 57.2773 265.109 57.408C265.259 57.5293 265.459 57.6367 265.711 57.73C265.963 57.8233 266.248 57.9213 266.565 58.024C266.864 58.1267 267.149 58.234 267.419 58.346C267.699 58.4487 267.947 58.5747 268.161 58.724C268.385 58.864 268.558 59.0507 268.679 59.284C268.81 59.508 268.875 59.788 268.875 60.124C268.875 60.5347 268.773 60.894 268.567 61.202C268.362 61.5007 268.063 61.734 267.671 61.902C267.289 62.07 266.822 62.154 266.271 62.154C265.767 62.154 265.338 62.0933 264.983 61.972C264.638 61.8507 264.344 61.692 264.101 61.496C263.868 61.3 263.686 61.0947 263.555 60.88C263.434 60.656 263.35 60.4413 263.303 60.236C263.266 60.0307 263.257 59.8627 263.275 59.732ZM281.017 60.908L280.653 60.894L282.487 55.014H283.943L281.521 62H280.261L278.147 56.022H278.525L276.383 62H275.123L272.729 55.014H274.199L275.977 60.894L275.613 60.908L277.545 55.014H279.127L281.017 60.908ZM286.699 52.13V53.572H285.033V52.13H286.699ZM285.201 55.014H286.531V62H285.201V55.014ZM287.935 55.014H292.457V56.176H287.935V55.014ZM289.531 53.166H290.861V62H289.531V53.166ZM299.148 62V57.786C299.148 57.4127 299.087 57.1047 298.966 56.862C298.844 56.6193 298.662 56.4373 298.42 56.316C298.177 56.1853 297.869 56.12 297.496 56.12C297.085 56.12 296.707 56.218 296.362 56.414C296.026 56.6007 295.75 56.8573 295.536 57.184C295.321 57.5013 295.19 57.8607 295.144 58.262L295.13 57.464C295.176 57.1 295.274 56.7593 295.424 56.442C295.582 56.1247 295.778 55.8493 296.012 55.616C296.254 55.3827 296.534 55.2007 296.852 55.07C297.169 54.9393 297.514 54.874 297.888 54.874C298.28 54.874 298.634 54.93 298.952 55.042C299.269 55.1447 299.54 55.308 299.764 55.532C299.997 55.7467 300.174 56.0127 300.296 56.33C300.417 56.638 300.478 56.9927 300.478 57.394V62H299.148ZM293.898 62V52.214H295.228V62H293.898ZM308.697 62.154C308.016 62.154 307.391 62.0093 306.821 61.72C306.252 61.4307 305.799 61.0153 305.463 60.474C305.127 59.9327 304.959 59.284 304.959 58.528C304.959 57.7627 305.127 57.1093 305.463 56.568C305.799 56.0173 306.252 55.5973 306.821 55.308C307.391 55.0187 308.016 54.874 308.697 54.874C309.379 54.874 309.999 55.0187 310.559 55.308C311.119 55.5973 311.567 56.0173 311.903 56.568C312.239 57.1093 312.407 57.7627 312.407 58.528C312.407 59.284 312.239 59.9327 311.903 60.474C311.567 61.0153 311.119 61.4307 310.559 61.72C309.999 62.0093 309.379 62.154 308.697 62.154ZM308.697 60.992C309.117 60.992 309.505 60.8987 309.859 60.712C310.223 60.516 310.513 60.236 310.727 59.872C310.951 59.4987 311.063 59.0507 311.063 58.528C311.063 57.996 310.951 57.5433 310.727 57.17C310.513 56.7967 310.223 56.512 309.859 56.316C309.505 56.12 309.117 56.022 308.697 56.022C308.277 56.022 307.885 56.12 307.521 56.316C307.157 56.5027 306.863 56.7827 306.639 57.156C306.415 57.5293 306.303 57.9867 306.303 58.528C306.303 59.0507 306.411 59.4987 306.625 59.872C306.849 60.236 307.143 60.516 307.507 60.712C307.871 60.8987 308.268 60.992 308.697 60.992ZM320.408 62H319.078V55.014H320.408V62ZM319.148 58.71L319.162 59.13C319.152 59.2513 319.12 59.4333 319.064 59.676C319.017 59.9093 318.933 60.166 318.812 60.446C318.7 60.726 318.541 60.9967 318.336 61.258C318.14 61.5193 317.888 61.734 317.58 61.902C317.272 62.07 316.898 62.154 316.46 62.154C316.161 62.154 315.853 62.112 315.536 62.028C315.228 61.944 314.943 61.804 314.682 61.608C314.42 61.412 314.21 61.146 314.052 60.81C313.893 60.4647 313.814 60.0353 313.814 59.522V55.014H315.158V59.242C315.158 59.6713 315.223 60.0073 315.354 60.25C315.494 60.4927 315.69 60.6653 315.942 60.768C316.194 60.8707 316.478 60.922 316.796 60.922C317.281 60.922 317.687 60.8053 318.014 60.572C318.35 60.3293 318.611 60.04 318.798 59.704C318.984 59.3587 319.101 59.0273 319.148 58.71ZM322.167 55.014H323.511V62H322.167V55.014ZM325.877 56.204C325.392 56.204 324.976 56.316 324.631 56.54C324.295 56.764 324.024 57.0393 323.819 57.366C323.623 57.6927 323.492 58.0053 323.427 58.304L323.413 57.506C323.422 57.4127 323.446 57.268 323.483 57.072C323.53 56.8667 323.609 56.638 323.721 56.386C323.833 56.134 323.982 55.896 324.169 55.672C324.356 55.4387 324.589 55.2473 324.869 55.098C325.149 54.9487 325.485 54.874 325.877 54.874V56.204ZM337.011 59.34C336.955 59.9187 336.769 60.4227 336.451 60.852C336.143 61.272 335.737 61.594 335.233 61.818C334.729 62.042 334.169 62.154 333.553 62.154C332.872 62.154 332.247 62.014 331.677 61.734C331.108 61.4447 330.651 61.0293 330.305 60.488C329.969 59.9373 329.801 59.284 329.801 58.528C329.801 57.7627 329.969 57.1093 330.305 56.568C330.651 56.0173 331.108 55.5973 331.677 55.308C332.247 55.0187 332.872 54.874 333.553 54.874C334.169 54.874 334.725 54.986 335.219 55.21C335.714 55.434 336.12 55.756 336.437 56.176C336.755 56.5867 336.946 57.0813 337.011 57.66H335.793C335.635 57.156 335.35 56.7593 334.939 56.47C334.538 56.1713 334.076 56.022 333.553 56.022C333.124 56.022 332.723 56.12 332.349 56.316C331.985 56.512 331.691 56.7967 331.467 57.17C331.253 57.534 331.145 57.9867 331.145 58.528C331.145 59.0507 331.253 59.4987 331.467 59.872C331.691 60.236 331.985 60.516 332.349 60.712C332.713 60.8987 333.115 60.992 333.553 60.992C334.151 60.992 334.636 60.8473 335.009 60.558C335.383 60.2687 335.649 59.8627 335.807 59.34H337.011ZM338.409 55.014H339.753V62H338.409V55.014ZM342.119 56.204C341.634 56.204 341.219 56.316 340.873 56.54C340.537 56.764 340.267 57.0393 340.061 57.366C339.865 57.6927 339.735 58.0053 339.669 58.304L339.655 57.506C339.665 57.4127 339.688 57.268 339.725 57.072C339.772 56.8667 339.851 56.638 339.963 56.386C340.075 56.134 340.225 55.896 340.411 55.672C340.598 55.4387 340.831 55.2473 341.111 55.098C341.391 54.9487 341.727 54.874 342.119 54.874V56.204ZM348.721 59.732H349.995C349.921 60.1893 349.743 60.6 349.463 60.964C349.183 61.328 348.815 61.6173 348.357 61.832C347.9 62.0467 347.363 62.154 346.747 62.154C346.019 62.154 345.371 62 344.801 61.692C344.232 61.384 343.784 60.9593 343.457 60.418C343.131 59.8767 342.967 59.2467 342.967 58.528C342.967 57.8 343.126 57.1653 343.443 56.624C343.761 56.0733 344.199 55.644 344.759 55.336C345.319 55.028 345.959 54.874 346.677 54.874C347.433 54.874 348.068 55.0233 348.581 55.322C349.095 55.6207 349.473 56.064 349.715 56.652C349.967 57.2307 350.07 57.954 350.023 58.822H344.297C344.344 59.242 344.47 59.6153 344.675 59.942C344.89 60.2687 345.17 60.5253 345.515 60.712C345.87 60.8987 346.276 60.992 346.733 60.992C347.247 60.992 347.676 60.8753 348.021 60.642C348.367 60.4087 348.6 60.1053 348.721 59.732ZM346.691 56.022C346.085 56.022 345.581 56.1853 345.179 56.512C344.778 56.8293 344.512 57.254 344.381 57.786H348.679C348.642 57.2167 348.437 56.7827 348.063 56.484C347.69 56.176 347.233 56.022 346.691 56.022ZM354.323 62.14C353.716 62.14 353.165 61.986 352.671 61.678C352.176 61.37 351.784 60.9453 351.495 60.404C351.215 59.8533 351.075 59.2233 351.075 58.514C351.075 57.8047 351.215 57.1793 351.495 56.638C351.775 56.0873 352.157 55.658 352.643 55.35C353.128 55.0327 353.688 54.874 354.323 54.874C354.873 54.874 355.331 54.9673 355.695 55.154C356.059 55.3407 356.343 55.602 356.549 55.938C356.754 56.274 356.899 56.6613 356.983 57.1C357.076 57.5387 357.123 58.01 357.123 58.514C357.123 58.8873 357.076 59.284 356.983 59.704C356.889 60.124 356.74 60.5207 356.535 60.894C356.329 61.2673 356.045 61.5707 355.681 61.804C355.317 62.028 354.864 62.14 354.323 62.14ZM354.701 60.978C355.195 60.978 355.611 60.8707 355.947 60.656C356.292 60.432 356.549 60.1333 356.717 59.76C356.885 59.3867 356.969 58.9713 356.969 58.514C356.969 58.0193 356.88 57.5853 356.703 57.212C356.535 56.8387 356.278 56.5493 355.933 56.344C355.597 56.1387 355.186 56.036 354.701 56.036C353.973 56.036 353.408 56.2693 353.007 56.736C352.615 57.2027 352.419 57.7953 352.419 58.514C352.419 58.9993 352.517 59.4287 352.713 59.802C352.909 60.166 353.175 60.4553 353.511 60.67C353.856 60.8753 354.253 60.978 354.701 60.978ZM356.969 52.214H358.313V62H357.081C357.053 61.7947 357.025 61.5427 356.997 61.244C356.978 60.9453 356.969 60.6887 356.969 60.474V52.214ZM361.922 52.13V53.572H360.256V52.13H361.922ZM360.424 55.014H361.754V62H360.424V55.014ZM363.158 55.014H367.68V56.176H363.158V55.014ZM364.754 53.166H366.084V62H364.754V53.166ZM378.874 59.34C378.818 59.9187 378.632 60.4227 378.314 60.852C378.006 61.272 377.6 61.594 377.096 61.818C376.592 62.042 376.032 62.154 375.416 62.154C374.735 62.154 374.11 62.014 373.54 61.734C372.971 61.4447 372.514 61.0293 372.168 60.488C371.832 59.9373 371.664 59.284 371.664 58.528C371.664 57.7627 371.832 57.1093 372.168 56.568C372.514 56.0173 372.971 55.5973 373.54 55.308C374.11 55.0187 374.735 54.874 375.416 54.874C376.032 54.874 376.588 54.986 377.082 55.21C377.577 55.434 377.983 55.756 378.3 56.176C378.618 56.5867 378.809 57.0813 378.874 57.66H377.656C377.498 57.156 377.213 56.7593 376.802 56.47C376.401 56.1713 375.939 56.022 375.416 56.022C374.987 56.022 374.586 56.12 374.212 56.316C373.848 56.512 373.554 56.7967 373.33 57.17C373.116 57.534 373.008 57.9867 373.008 58.528C373.008 59.0507 373.116 59.4987 373.33 59.872C373.554 60.236 373.848 60.516 374.212 60.712C374.576 60.8987 374.978 60.992 375.416 60.992C376.014 60.992 376.499 60.8473 376.872 60.558C377.246 60.2687 377.512 59.8627 377.67 59.34H378.874ZM383.157 62.14C382.559 62.14 382.013 61.986 381.519 61.678C381.024 61.37 380.632 60.9453 380.343 60.404C380.053 59.8533 379.909 59.2233 379.909 58.514C379.909 57.8047 380.053 57.1793 380.343 56.638C380.641 56.0873 381.047 55.658 381.561 55.35C382.074 55.0327 382.648 54.874 383.283 54.874C383.983 54.874 384.524 55.0373 384.907 55.364C385.299 55.6907 385.569 56.1293 385.719 56.68C385.877 57.2307 385.957 57.842 385.957 58.514C385.957 58.8873 385.91 59.284 385.817 59.704C385.723 60.124 385.574 60.5207 385.369 60.894C385.163 61.2673 384.879 61.5707 384.515 61.804C384.151 62.028 383.698 62.14 383.157 62.14ZM383.535 60.978C384.029 60.978 384.445 60.8707 384.781 60.656C385.126 60.432 385.383 60.1333 385.551 59.76C385.719 59.3867 385.803 58.9713 385.803 58.514C385.803 58.0193 385.714 57.5853 385.537 57.212C385.369 56.8387 385.112 56.5493 384.767 56.344C384.431 56.1387 384.02 56.036 383.535 56.036C382.807 56.036 382.242 56.2693 381.841 56.736C381.449 57.2027 381.253 57.7953 381.253 58.514C381.253 58.9993 381.351 59.4287 381.547 59.802C381.743 60.166 382.009 60.4553 382.345 60.67C382.69 60.8753 383.087 60.978 383.535 60.978ZM385.803 55.014H387.147V62H385.915C385.915 62 385.905 61.916 385.887 61.748C385.868 61.5707 385.849 61.3607 385.831 61.118C385.812 60.8753 385.803 60.6607 385.803 60.474V55.014ZM388.9 55.014H390.244V62H388.9V55.014ZM392.61 56.204C392.124 56.204 391.709 56.316 391.364 56.54C391.028 56.764 390.757 57.0393 390.552 57.366C390.356 57.6927 390.225 58.0053 390.16 58.304L390.146 57.506C390.155 57.4127 390.178 57.268 390.216 57.072C390.262 56.8667 390.342 56.638 390.454 56.386C390.566 56.134 390.715 55.896 390.902 55.672C391.088 55.4387 391.322 55.2473 391.602 55.098C391.882 54.9487 392.218 54.874 392.61 54.874V56.204ZM396.705 62.14C396.099 62.14 395.548 61.986 395.053 61.678C394.559 61.37 394.167 60.9453 393.877 60.404C393.597 59.8533 393.457 59.2233 393.457 58.514C393.457 57.8047 393.597 57.1793 393.877 56.638C394.157 56.0873 394.54 55.658 395.025 55.35C395.511 55.0327 396.071 54.874 396.705 54.874C397.256 54.874 397.713 54.9673 398.077 55.154C398.441 55.3407 398.726 55.602 398.931 55.938C399.137 56.274 399.281 56.6613 399.365 57.1C399.459 57.5387 399.505 58.01 399.505 58.514C399.505 58.8873 399.459 59.284 399.365 59.704C399.272 60.124 399.123 60.5207 398.917 60.894C398.712 61.2673 398.427 61.5707 398.063 61.804C397.699 62.028 397.247 62.14 396.705 62.14ZM397.083 60.978C397.578 60.978 397.993 60.8707 398.329 60.656C398.675 60.432 398.931 60.1333 399.099 59.76C399.267 59.3867 399.351 58.9713 399.351 58.514C399.351 58.0193 399.263 57.5853 399.085 57.212C398.917 56.8387 398.661 56.5493 398.315 56.344C397.979 56.1387 397.569 56.036 397.083 56.036C396.355 56.036 395.791 56.2693 395.389 56.736C394.997 57.2027 394.801 57.7953 394.801 58.514C394.801 58.9993 394.899 59.4287 395.095 59.802C395.291 60.166 395.557 60.4553 395.893 60.67C396.239 60.8753 396.635 60.978 397.083 60.978ZM399.351 52.214H400.695V62H399.463C399.435 61.7947 399.407 61.5427 399.379 61.244C399.361 60.9453 399.351 60.6887 399.351 60.474V52.214ZM408.655 62.14C408.057 62.14 407.511 61.986 407.017 61.678C406.522 61.37 406.13 60.9453 405.841 60.404C405.551 59.8533 405.407 59.2233 405.407 58.514C405.407 57.8047 405.551 57.1793 405.841 56.638C406.139 56.0873 406.545 55.658 407.059 55.35C407.572 55.0327 408.146 54.874 408.781 54.874C409.481 54.874 410.022 55.0373 410.405 55.364C410.797 55.6907 411.067 56.1293 411.217 56.68C411.375 57.2307 411.455 57.842 411.455 58.514C411.455 58.8873 411.408 59.284 411.315 59.704C411.221 60.124 411.072 60.5207 410.867 60.894C410.661 61.2673 410.377 61.5707 410.013 61.804C409.649 62.028 409.196 62.14 408.655 62.14ZM409.033 60.978C409.527 60.978 409.943 60.8707 410.279 60.656C410.624 60.432 410.881 60.1333 411.049 59.76C411.217 59.3867 411.301 58.9713 411.301 58.514C411.301 58.0193 411.212 57.5853 411.035 57.212C410.867 56.8387 410.61 56.5493 410.265 56.344C409.929 56.1387 409.518 56.036 409.033 56.036C408.305 56.036 407.74 56.2693 407.339 56.736C406.947 57.2027 406.751 57.7953 406.751 58.514C406.751 58.9993 406.849 59.4287 407.045 59.802C407.241 60.166 407.507 60.4553 407.843 60.67C408.188 60.8753 408.585 60.978 409.033 60.978ZM411.301 55.014H412.645V62H411.413C411.413 62 411.403 61.916 411.385 61.748C411.366 61.5707 411.347 61.3607 411.329 61.118C411.31 60.8753 411.301 60.6607 411.301 60.474V55.014ZM414.398 55.014H415.742V62H414.398V55.014ZM418.402 54.874C418.794 54.874 419.148 54.93 419.466 55.042C419.783 55.154 420.054 55.322 420.278 55.546C420.502 55.7607 420.674 56.0313 420.796 56.358C420.926 56.6753 420.992 57.0393 420.992 57.45V62H419.662V57.744C419.662 57.1933 419.526 56.7827 419.256 56.512C418.994 56.232 418.593 56.092 418.052 56.092C417.632 56.092 417.249 56.19 416.904 56.386C416.558 56.582 416.274 56.8433 416.05 57.17C415.835 57.4873 415.704 57.8467 415.658 58.248L415.644 57.478C415.69 57.1047 415.788 56.7593 415.938 56.442C416.096 56.1247 416.292 55.8493 416.526 55.616C416.768 55.3733 417.048 55.1913 417.366 55.07C417.683 54.9393 418.028 54.874 418.402 54.874ZM425.635 62.14C425.028 62.14 424.478 61.986 423.983 61.678C423.488 61.37 423.096 60.9453 422.807 60.404C422.527 59.8533 422.387 59.2233 422.387 58.514C422.387 57.8047 422.527 57.1793 422.807 56.638C423.087 56.0873 423.47 55.658 423.955 55.35C424.44 55.0327 425 54.874 425.635 54.874C426.186 54.874 426.643 54.9673 427.007 55.154C427.371 55.3407 427.656 55.602 427.861 55.938C428.066 56.274 428.211 56.6613 428.295 57.1C428.388 57.5387 428.435 58.01 428.435 58.514C428.435 58.8873 428.388 59.284 428.295 59.704C428.202 60.124 428.052 60.5207 427.847 60.894C427.642 61.2673 427.357 61.5707 426.993 61.804C426.629 62.028 426.176 62.14 425.635 62.14ZM426.013 60.978C426.508 60.978 426.923 60.8707 427.259 60.656C427.604 60.432 427.861 60.1333 428.029 59.76C428.197 59.3867 428.281 58.9713 428.281 58.514C428.281 58.0193 428.192 57.5853 428.015 57.212C427.847 56.8387 427.59 56.5493 427.245 56.344C426.909 56.1387 426.498 56.036 426.013 56.036C425.285 56.036 424.72 56.2693 424.319 56.736C423.927 57.2027 423.731 57.7953 423.731 58.514C423.731 58.9993 423.829 59.4287 424.025 59.802C424.221 60.166 424.487 60.4553 424.823 60.67C425.168 60.8753 425.565 60.978 426.013 60.978ZM428.281 52.214H429.625V62H428.393C428.365 61.7947 428.337 61.5427 428.309 61.244C428.29 60.9453 428.281 60.6887 428.281 60.474V52.214ZM438.69 62.154C438.149 62.154 437.696 62.0373 437.332 61.804C436.968 61.5707 436.684 61.2673 436.478 60.894C436.273 60.5207 436.124 60.124 436.03 59.704C435.937 59.284 435.89 58.8873 435.89 58.514C435.89 58.01 435.932 57.5387 436.016 57.1C436.11 56.6613 436.259 56.274 436.464 55.938C436.67 55.602 436.954 55.3407 437.318 55.154C437.682 54.9673 438.14 54.874 438.69 54.874C439.297 54.874 439.843 55.0327 440.328 55.35C440.814 55.658 441.201 56.0873 441.49 56.638C441.789 57.1887 441.938 57.814 441.938 58.514C441.938 59.2327 441.789 59.8673 441.49 60.418C441.192 60.9593 440.795 61.384 440.3 61.692C439.815 62 439.278 62.154 438.69 62.154ZM438.312 60.978C438.76 60.978 439.157 60.8753 439.502 60.67C439.848 60.4553 440.114 60.166 440.3 59.802C440.496 59.4287 440.594 58.9993 440.594 58.514C440.594 57.7953 440.394 57.2027 439.992 56.736C439.6 56.2693 439.04 56.036 438.312 56.036C437.874 56.036 437.482 56.1387 437.136 56.344C436.8 56.5493 436.534 56.8387 436.338 57.212C436.142 57.5853 436.044 58.0193 436.044 58.514C436.044 58.9807 436.128 59.4007 436.296 59.774C436.474 60.138 436.73 60.432 437.066 60.656C437.402 60.8707 437.818 60.978 438.312 60.978ZM434.7 55.014H435.988L436.044 56.596V64.8H434.7V55.014ZM446.225 62.14C445.628 62.14 445.082 61.986 444.587 61.678C444.092 61.37 443.7 60.9453 443.411 60.404C443.122 59.8533 442.977 59.2233 442.977 58.514C442.977 57.8047 443.122 57.1793 443.411 56.638C443.71 56.0873 444.116 55.658 444.629 55.35C445.142 55.0327 445.716 54.874 446.351 54.874C447.051 54.874 447.592 55.0373 447.975 55.364C448.367 55.6907 448.638 56.1293 448.787 56.68C448.946 57.2307 449.025 57.842 449.025 58.514C449.025 58.8873 448.978 59.284 448.885 59.704C448.792 60.124 448.642 60.5207 448.437 60.894C448.232 61.2673 447.947 61.5707 447.583 61.804C447.219 62.028 446.766 62.14 446.225 62.14ZM446.603 60.978C447.098 60.978 447.513 60.8707 447.849 60.656C448.194 60.432 448.451 60.1333 448.619 59.76C448.787 59.3867 448.871 58.9713 448.871 58.514C448.871 58.0193 448.782 57.5853 448.605 57.212C448.437 56.8387 448.18 56.5493 447.835 56.344C447.499 56.1387 447.088 56.036 446.603 56.036C445.875 56.036 445.31 56.2693 444.909 56.736C444.517 57.2027 444.321 57.7953 444.321 58.514C444.321 58.9993 444.419 59.4287 444.615 59.802C444.811 60.166 445.077 60.4553 445.413 60.67C445.758 60.8753 446.155 60.978 446.603 60.978ZM448.871 55.014H450.215V62H448.983C448.983 62 448.974 61.916 448.955 61.748C448.936 61.5707 448.918 61.3607 448.899 61.118C448.88 60.8753 448.871 60.6607 448.871 60.474V55.014ZM451.338 55.014H452.766L455.44 61.72L454.278 62L451.338 55.014ZM458.464 55.014L454.278 64.8H452.864L454.67 61.006L457.05 55.014H458.464ZM26.392 75.056H30.97V76.204H26.392V75.056ZM30.214 72.214H31.11V73.446H30.354C30.1113 73.4367 29.892 73.4693 29.696 73.544C29.5 73.6093 29.346 73.7307 29.234 73.908C29.1313 74.0853 29.08 74.342 29.08 74.678V82H27.75V74.608C27.75 74.048 27.848 73.5907 28.044 73.236C28.2493 72.8813 28.5387 72.6247 28.912 72.466C29.2853 72.298 29.7193 72.214 30.214 72.214ZM35.4103 82.154C34.729 82.154 34.1036 82.0093 33.5343 81.72C32.965 81.4307 32.5123 81.0153 32.1763 80.474C31.8403 79.9327 31.6723 79.284 31.6723 78.528C31.6723 77.7627 31.8403 77.1093 32.1763 76.568C32.5123 76.0173 32.965 75.5973 33.5343 75.308C34.1036 75.0187 34.729 74.874 35.4103 74.874C36.0916 74.874 36.7123 75.0187 37.2723 75.308C37.8323 75.5973 38.2803 76.0173 38.6163 76.568C38.9523 77.1093 39.1203 77.7627 39.1203 78.528C39.1203 79.284 38.9523 79.9327 38.6163 80.474C38.2803 81.0153 37.8323 81.4307 37.2723 81.72C36.7123 82.0093 36.0916 82.154 35.4103 82.154ZM35.4103 80.992C35.8303 80.992 36.2176 80.8987 36.5723 80.712C36.9363 80.516 37.2256 80.236 37.4403 79.872C37.6643 79.4987 37.7763 79.0507 37.7763 78.528C37.7763 77.996 37.6643 77.5433 37.4403 77.17C37.2256 76.7967 36.9363 76.512 36.5723 76.316C36.2176 76.12 35.8303 76.022 35.4103 76.022C34.9903 76.022 34.5983 76.12 34.2343 76.316C33.8703 76.5027 33.5763 76.7827 33.3523 77.156C33.1283 77.5293 33.0163 77.9867 33.0163 78.528C33.0163 79.0507 33.1236 79.4987 33.3383 79.872C33.5623 80.236 33.8563 80.516 34.2203 80.712C34.5843 80.8987 34.981 80.992 35.4103 80.992ZM40.5265 75.014H41.8705V82H40.5265V75.014ZM44.2365 76.204C43.7512 76.204 43.3359 76.316 42.9905 76.54C42.6545 76.764 42.3839 77.0393 42.1785 77.366C41.9825 77.6927 41.8519 78.0053 41.7865 78.304L41.7725 77.506C41.7819 77.4127 41.8052 77.268 41.8425 77.072C41.8892 76.8667 41.9685 76.638 42.0805 76.386C42.1925 76.134 42.3419 75.896 42.5285 75.672C42.7152 75.4387 42.9485 75.2473 43.2285 75.098C43.5085 74.9487 43.8445 74.874 44.2365 74.874V76.204ZM47.8946 75.014H49.3226L51.9966 81.72L50.8346 82L47.8946 75.014ZM55.0206 75.014L50.8346 84.8H49.4206L51.2266 81.006L53.6066 75.014H55.0206ZM59.3087 82.154C58.6274 82.154 58.0021 82.0093 57.4327 81.72C56.8634 81.4307 56.4107 81.0153 56.0747 80.474C55.7387 79.9327 55.5707 79.284 55.5707 78.528C55.5707 77.7627 55.7387 77.1093 56.0747 76.568C56.4107 76.0173 56.8634 75.5973 57.4327 75.308C58.0021 75.0187 58.6274 74.874 59.3087 74.874C59.9901 74.874 60.6107 75.0187 61.1707 75.308C61.7307 75.5973 62.1787 76.0173 62.5147 76.568C62.8507 77.1093 63.0187 77.7627 63.0187 78.528C63.0187 79.284 62.8507 79.9327 62.5147 80.474C62.1787 81.0153 61.7307 81.4307 61.1707 81.72C60.6107 82.0093 59.9901 82.154 59.3087 82.154ZM59.3087 80.992C59.7287 80.992 60.1161 80.8987 60.4707 80.712C60.8347 80.516 61.1241 80.236 61.3387 79.872C61.5627 79.4987 61.6747 79.0507 61.6747 78.528C61.6747 77.996 61.5627 77.5433 61.3387 77.17C61.1241 76.7967 60.8347 76.512 60.4707 76.316C60.1161 76.12 59.7287 76.022 59.3087 76.022C58.8887 76.022 58.4967 76.12 58.1327 76.316C57.7687 76.5027 57.4747 76.7827 57.2507 77.156C57.0267 77.5293 56.9147 77.9867 56.9147 78.528C56.9147 79.0507 57.0221 79.4987 57.2367 79.872C57.4607 80.236 57.7547 80.516 58.1187 80.712C58.4827 80.8987 58.8794 80.992 59.3087 80.992ZM71.019 82H69.689V75.014H71.019V82ZM69.759 78.71L69.773 79.13C69.7636 79.2513 69.731 79.4333 69.675 79.676C69.6283 79.9093 69.5443 80.166 69.423 80.446C69.311 80.726 69.1523 80.9967 68.947 81.258C68.751 81.5193 68.499 81.734 68.191 81.902C67.883 82.07 67.5096 82.154 67.071 82.154C66.7723 82.154 66.4643 82.112 66.147 82.028C65.839 81.944 65.5543 81.804 65.293 81.608C65.0316 81.412 64.8216 81.146 64.663 80.81C64.5043 80.4647 64.425 80.0353 64.425 79.522V75.014H65.769V79.242C65.769 79.6713 65.8343 80.0073 65.965 80.25C66.105 80.4927 66.301 80.6653 66.553 80.768C66.805 80.8707 67.0896 80.922 67.407 80.922C67.8923 80.922 68.2983 80.8053 68.625 80.572C68.961 80.3293 69.2223 80.04 69.409 79.704C69.5956 79.3587 69.7123 79.0273 69.759 78.71ZM72.7785 75.014H74.1225V82H72.7785V75.014ZM76.4885 76.204C76.0032 76.204 75.5878 76.316 75.2425 76.54C74.9065 76.764 74.6358 77.0393 74.4305 77.366C74.2345 77.6927 74.1038 78.0053 74.0385 78.304L74.0245 77.506C74.0338 77.4127 74.0572 77.268 74.0945 77.072C74.1412 76.8667 74.2205 76.638 74.3325 76.386C74.4445 76.134 74.5938 75.896 74.7805 75.672C74.9672 75.4387 75.2005 75.2473 75.4805 75.098C75.7605 74.9487 76.0965 74.874 76.4885 74.874V76.204ZM80.7765 75.014H82.1205V82H80.7765V75.014ZM84.4865 76.204C84.0012 76.204 83.5859 76.316 83.2405 76.54C82.9045 76.764 82.6339 77.0393 82.4285 77.366C82.2325 77.6927 82.1019 78.0053 82.0365 78.304L82.0225 77.506C82.0319 77.4127 82.0552 77.268 82.0925 77.072C82.1392 76.8667 82.2185 76.638 82.3305 76.386C82.4425 76.134 82.5919 75.896 82.7785 75.672C82.9652 75.4387 83.1985 75.2473 83.4785 75.098C83.7585 74.9487 84.0945 74.874 84.4865 74.874V76.204ZM87.3084 72.13V73.572H85.6424V72.13H87.3084ZM85.8104 75.014H87.1404V82H85.8104V75.014ZM91.9183 82.14C91.3117 82.14 90.761 81.986 90.2663 81.678C89.7717 81.37 89.3797 80.9453 89.0903 80.404C88.8103 79.8533 88.6703 79.2233 88.6703 78.514C88.6703 77.8047 88.8103 77.1793 89.0903 76.638C89.3703 76.0873 89.753 75.658 90.2383 75.35C90.7237 75.0327 91.2837 74.874 91.9183 74.874C92.469 74.874 92.9263 74.9673 93.2903 75.154C93.6543 75.3407 93.939 75.602 94.1443 75.938C94.3497 76.274 94.4943 76.6613 94.5783 77.1C94.6717 77.5387 94.7183 78.01 94.7183 78.514C94.7183 78.8873 94.6717 79.284 94.5783 79.704C94.485 80.124 94.3357 80.5207 94.1303 80.894C93.925 81.2673 93.6403 81.5707 93.2763 81.804C92.9123 82.028 92.4597 82.14 91.9183 82.14ZM92.2963 80.978C92.791 80.978 93.2063 80.8707 93.5423 80.656C93.8877 80.432 94.1443 80.1333 94.3123 79.76C94.4803 79.3867 94.5643 78.9713 94.5643 78.514C94.5643 78.0193 94.4757 77.5853 94.2983 77.212C94.1303 76.8387 93.8737 76.5493 93.5283 76.344C93.1923 76.1387 92.7817 76.036 92.2963 76.036C91.5683 76.036 91.0037 76.2693 90.6023 76.736C90.2103 77.2027 90.0143 77.7953 90.0143 78.514C90.0143 78.9993 90.1123 79.4287 90.3083 79.802C90.5043 80.166 90.7703 80.4553 91.1063 80.67C91.4517 80.8753 91.8483 80.978 92.2963 80.978ZM94.5643 72.214H95.9083V82H94.6763C94.6483 81.7947 94.6203 81.5427 94.5923 81.244C94.5737 80.9453 94.5643 80.6887 94.5643 80.474V72.214ZM103.297 79.732H104.571C104.497 80.1893 104.319 80.6 104.039 80.964C103.759 81.328 103.391 81.6173 102.933 81.832C102.476 82.0467 101.939 82.154 101.323 82.154C100.595 82.154 99.9467 82 99.3774 81.692C98.8081 81.384 98.3601 80.9593 98.0334 80.418C97.7067 79.8767 97.5434 79.2467 97.5434 78.528C97.5434 77.8 97.7021 77.1653 98.0194 76.624C98.3367 76.0733 98.7754 75.644 99.3354 75.336C99.8954 75.028 100.535 74.874 101.253 74.874C102.009 74.874 102.644 75.0233 103.157 75.322C103.671 75.6207 104.049 76.064 104.291 76.652C104.543 77.2307 104.646 77.954 104.599 78.822H98.8734C98.9201 79.242 99.0461 79.6153 99.2514 79.942C99.4661 80.2687 99.7461 80.5253 100.091 80.712C100.446 80.8987 100.852 80.992 101.309 80.992C101.823 80.992 102.252 80.8753 102.597 80.642C102.943 80.4087 103.176 80.1053 103.297 79.732ZM101.267 76.022C100.661 76.022 100.157 76.1853 99.7554 76.512C99.3541 76.8293 99.0881 77.254 98.9574 77.786H103.255C103.218 77.2167 103.013 76.7827 102.639 76.484C102.266 76.176 101.809 76.022 101.267 76.022ZM105.707 79.732H106.939C106.985 80.1053 107.153 80.4133 107.443 80.656C107.732 80.8893 108.138 81.006 108.661 81.006C108.997 81.006 109.258 80.9687 109.445 80.894C109.631 80.81 109.762 80.698 109.837 80.558C109.921 80.418 109.963 80.264 109.963 80.096C109.963 79.8813 109.907 79.718 109.795 79.606C109.683 79.4847 109.524 79.3867 109.319 79.312C109.113 79.228 108.871 79.1487 108.591 79.074C108.283 78.99 107.975 78.892 107.667 78.78C107.359 78.668 107.074 78.5327 106.813 78.374C106.561 78.2153 106.355 78.0193 106.197 77.786C106.047 77.5433 105.973 77.2493 105.973 76.904C105.973 76.6147 106.033 76.344 106.155 76.092C106.285 75.84 106.467 75.6253 106.701 75.448C106.943 75.2613 107.223 75.1213 107.541 75.028C107.858 74.9253 108.208 74.874 108.591 74.874C109.123 74.874 109.571 74.972 109.935 75.168C110.299 75.3547 110.574 75.6207 110.761 75.966C110.957 76.3113 111.059 76.708 111.069 77.156H109.893C109.827 76.764 109.692 76.4793 109.487 76.302C109.281 76.1153 108.973 76.022 108.563 76.022C108.161 76.022 107.853 76.1013 107.639 76.26C107.424 76.4187 107.317 76.6333 107.317 76.904C107.317 77.1093 107.391 77.2773 107.541 77.408C107.69 77.5293 107.891 77.6367 108.143 77.73C108.395 77.8233 108.679 77.9213 108.997 78.024C109.295 78.1267 109.58 78.234 109.851 78.346C110.131 78.4487 110.378 78.5747 110.593 78.724C110.817 78.864 110.989 79.0507 111.111 79.284C111.241 79.508 111.307 79.788 111.307 80.124C111.307 80.5347 111.204 80.894 110.999 81.202C110.793 81.5007 110.495 81.734 110.103 81.902C109.72 82.07 109.253 82.154 108.703 82.154C108.199 82.154 107.769 82.0933 107.415 81.972C107.069 81.8507 106.775 81.692 106.533 81.496C106.299 81.3 106.117 81.0947 105.987 80.88C105.865 80.656 105.781 80.4413 105.735 80.236C105.697 80.0307 105.688 79.8627 105.707 79.732ZM121.18 79.732H122.454C122.38 80.1893 122.202 80.6 121.922 80.964C121.642 81.328 121.274 81.6173 120.816 81.832C120.359 82.0467 119.822 82.154 119.206 82.154C118.478 82.154 117.83 82 117.26 81.692C116.691 81.384 116.243 80.9593 115.916 80.418C115.59 79.8767 115.426 79.2467 115.426 78.528C115.426 77.8 115.585 77.1653 115.902 76.624C116.22 76.0733 116.658 75.644 117.218 75.336C117.778 75.028 118.418 74.874 119.136 74.874C119.892 74.874 120.527 75.0233 121.04 75.322C121.554 75.6207 121.932 76.064 122.174 76.652C122.426 77.2307 122.529 77.954 122.482 78.822H116.756C116.803 79.242 116.929 79.6153 117.134 79.942C117.349 80.2687 117.629 80.5253 117.974 80.712C118.329 80.8987 118.735 80.992 119.192 80.992C119.706 80.992 120.135 80.8753 120.48 80.642C120.826 80.4087 121.059 80.1053 121.18 79.732ZM119.15 76.022C118.544 76.022 118.04 76.1853 117.638 76.512C117.237 76.8293 116.971 77.254 116.84 77.786H121.138C121.101 77.2167 120.896 76.7827 120.522 76.484C120.149 76.176 119.692 76.022 119.15 76.022ZM129.221 82V74.608L130.565 74.678V82H129.221ZM131.699 72.214H132.581V73.446H131.825C131.582 73.4367 131.363 73.4693 131.167 73.544C130.98 73.6093 130.831 73.7307 130.719 73.908C130.616 74.0853 130.565 74.342 130.565 74.678L129.221 74.608C129.221 74.048 129.319 73.5907 129.515 73.236C129.72 72.8813 130.009 72.6247 130.383 72.466C130.756 72.298 131.195 72.214 131.699 72.214ZM124.545 82V74.86L125.889 74.93V82H124.545ZM127.023 72.466H127.919V73.698H127.149C126.906 73.6887 126.687 73.7213 126.491 73.796C126.304 73.8613 126.155 73.9827 126.043 74.16C125.94 74.3373 125.889 74.594 125.889 74.93L124.545 74.86C124.545 74.3 124.643 73.8427 124.839 73.488C125.044 73.1333 125.333 72.8767 125.707 72.718C126.08 72.55 126.519 72.466 127.023 72.466ZM123.285 75.056H132.553V76.204H123.285V75.056ZM137.006 82.154C136.325 82.154 135.699 82.0093 135.13 81.72C134.561 81.4307 134.108 81.0153 133.772 80.474C133.436 79.9327 133.268 79.284 133.268 78.528C133.268 77.7627 133.436 77.1093 133.772 76.568C134.108 76.0173 134.561 75.5973 135.13 75.308C135.699 75.0187 136.325 74.874 137.006 74.874C137.687 74.874 138.308 75.0187 138.868 75.308C139.428 75.5973 139.876 76.0173 140.212 76.568C140.548 77.1093 140.716 77.7627 140.716 78.528C140.716 79.284 140.548 79.9327 140.212 80.474C139.876 81.0153 139.428 81.4307 138.868 81.72C138.308 82.0093 137.687 82.154 137.006 82.154ZM137.006 80.992C137.426 80.992 137.813 80.8987 138.168 80.712C138.532 80.516 138.821 80.236 139.036 79.872C139.26 79.4987 139.372 79.0507 139.372 78.528C139.372 77.996 139.26 77.5433 139.036 77.17C138.821 76.7967 138.532 76.512 138.168 76.316C137.813 76.12 137.426 76.022 137.006 76.022C136.586 76.022 136.194 76.12 135.83 76.316C135.466 76.5027 135.172 76.7827 134.948 77.156C134.724 77.5293 134.612 77.9867 134.612 78.528C134.612 79.0507 134.719 79.4987 134.934 79.872C135.158 80.236 135.452 80.516 135.816 80.712C136.18 80.8987 136.577 80.992 137.006 80.992ZM142.122 75.014H143.466V82H142.122V75.014ZM145.832 76.204C145.347 76.204 144.932 76.316 144.586 76.54C144.25 76.764 143.98 77.0393 143.774 77.366C143.578 77.6927 143.448 78.0053 143.382 78.304L143.368 77.506C143.378 77.4127 143.401 77.268 143.438 77.072C143.485 76.8667 143.564 76.638 143.676 76.386C143.788 76.134 143.938 75.896 144.124 75.672C144.311 75.4387 144.544 75.2473 144.824 75.098C145.104 74.9487 145.44 74.874 145.832 74.874V76.204ZM146.568 75.014H151.09V76.176H146.568V75.014ZM148.164 73.166H149.494V82H148.164V73.166ZM152.502 72.214H153.846V82H152.502V72.214ZM161.157 79.732H162.431C162.356 80.1893 162.179 80.6 161.899 80.964C161.619 81.328 161.25 81.6173 160.793 81.832C160.335 82.0467 159.799 82.154 159.183 82.154C158.455 82.154 157.806 82 157.237 81.692C156.667 81.384 156.219 80.9593 155.893 80.418C155.566 79.8767 155.403 79.2467 155.403 78.528C155.403 77.8 155.561 77.1653 155.879 76.624C156.196 76.0733 156.635 75.644 157.195 75.336C157.755 75.028 158.394 74.874 159.113 74.874C159.869 74.874 160.503 75.0233 161.017 75.322C161.53 75.6207 161.908 76.064 162.151 76.652C162.403 77.2307 162.505 77.954 162.459 78.822H156.733C156.779 79.242 156.905 79.6153 157.111 79.942C157.325 80.2687 157.605 80.5253 157.951 80.712C158.305 80.8987 158.711 80.992 159.169 80.992C159.682 80.992 160.111 80.8753 160.457 80.642C160.802 80.4087 161.035 80.1053 161.157 79.732ZM159.127 76.022C158.52 76.022 158.016 76.1853 157.615 76.512C157.213 76.8293 156.947 77.254 156.817 77.786H161.115C161.077 77.2167 160.872 76.7827 160.499 76.484C160.125 76.176 159.668 76.022 159.127 76.022ZM163.566 79.732H164.798C164.845 80.1053 165.013 80.4133 165.302 80.656C165.592 80.8893 165.998 81.006 166.52 81.006C166.856 81.006 167.118 80.9687 167.304 80.894C167.491 80.81 167.622 80.698 167.696 80.558C167.78 80.418 167.822 80.264 167.822 80.096C167.822 79.8813 167.766 79.718 167.654 79.606C167.542 79.4847 167.384 79.3867 167.178 79.312C166.973 79.228 166.73 79.1487 166.45 79.074C166.142 78.99 165.834 78.892 165.526 78.78C165.218 78.668 164.934 78.5327 164.672 78.374C164.42 78.2153 164.215 78.0193 164.056 77.786C163.907 77.5433 163.832 77.2493 163.832 76.904C163.832 76.6147 163.893 76.344 164.014 76.092C164.145 75.84 164.327 75.6253 164.56 75.448C164.803 75.2613 165.083 75.1213 165.4 75.028C165.718 74.9253 166.068 74.874 166.45 74.874C166.982 74.874 167.43 74.972 167.794 75.168C168.158 75.3547 168.434 75.6207 168.62 75.966C168.816 76.3113 168.919 76.708 168.928 77.156H167.752C167.687 76.764 167.552 76.4793 167.346 76.302C167.141 76.1153 166.833 76.022 166.422 76.022C166.021 76.022 165.713 76.1013 165.498 76.26C165.284 76.4187 165.176 76.6333 165.176 76.904C165.176 77.1093 165.251 77.2773 165.4 77.408C165.55 77.5293 165.75 77.6367 166.002 77.73C166.254 77.8233 166.539 77.9213 166.856 78.024C167.155 78.1267 167.44 78.234 167.71 78.346C167.99 78.4487 168.238 78.5747 168.452 78.724C168.676 78.864 168.849 79.0507 168.97 79.284C169.101 79.508 169.166 79.788 169.166 80.124C169.166 80.5347 169.064 80.894 168.858 81.202C168.653 81.5007 168.354 81.734 167.962 81.902C167.58 82.07 167.113 82.154 166.562 82.154C166.058 82.154 165.629 82.0933 165.274 81.972C164.929 81.8507 164.635 81.692 164.392 81.496C164.159 81.3 163.977 81.0947 163.846 80.88C163.725 80.656 163.641 80.4413 163.594 80.236C163.557 80.0307 163.548 79.8627 163.566 79.732ZM170.265 79.732H171.497C171.544 80.1053 171.712 80.4133 172.001 80.656C172.291 80.8893 172.697 81.006 173.219 81.006C173.555 81.006 173.817 80.9687 174.003 80.894C174.19 80.81 174.321 80.698 174.395 80.558C174.479 80.418 174.521 80.264 174.521 80.096C174.521 79.8813 174.465 79.718 174.353 79.606C174.241 79.4847 174.083 79.3867 173.877 79.312C173.672 79.228 173.429 79.1487 173.149 79.074C172.841 78.99 172.533 78.892 172.225 78.78C171.917 78.668 171.633 78.5327 171.371 78.374C171.119 78.2153 170.914 78.0193 170.755 77.786C170.606 77.5433 170.531 77.2493 170.531 76.904C170.531 76.6147 170.592 76.344 170.713 76.092C170.844 75.84 171.026 75.6253 171.259 75.448C171.502 75.2613 171.782 75.1213 172.099 75.028C172.417 74.9253 172.767 74.874 173.149 74.874C173.681 74.874 174.129 74.972 174.493 75.168C174.857 75.3547 175.133 75.6207 175.319 75.966C175.515 76.3113 175.618 76.708 175.627 77.156H174.451C174.386 76.764 174.251 76.4793 174.045 76.302C173.84 76.1153 173.532 76.022 173.121 76.022C172.72 76.022 172.412 76.1013 172.197 76.26C171.983 76.4187 171.875 76.6333 171.875 76.904C171.875 77.1093 171.95 77.2773 172.099 77.408C172.249 77.5293 172.449 77.6367 172.701 77.73C172.953 77.8233 173.238 77.9213 173.555 78.024C173.854 78.1267 174.139 78.234 174.409 78.346C174.689 78.4487 174.937 78.5747 175.151 78.724C175.375 78.864 175.548 79.0507 175.669 79.284C175.8 79.508 175.865 79.788 175.865 80.124C175.865 80.5347 175.763 80.894 175.557 81.202C175.352 81.5007 175.053 81.734 174.661 81.902C174.279 82.07 173.812 82.154 173.261 82.154C172.757 82.154 172.328 82.0933 171.973 81.972C171.628 81.8507 171.334 81.692 171.091 81.496C170.858 81.3 170.676 81.0947 170.545 80.88C170.424 80.656 170.34 80.4413 170.293 80.236C170.256 80.0307 170.247 79.8627 170.265 79.732ZM177.413 72.214H178.757V82H177.413V72.214ZM180.047 75.014H181.475L184.149 81.72L182.987 82L180.047 75.014ZM187.173 75.014L182.987 84.8H181.573L183.379 81.006L185.759 75.014H187.173ZM188.864 80.558V82H187.198V80.558H188.864Z" fill="black"/>
<defs>
<linearGradient id="paint0_linear_3203_31257" x1="519.557" y1="41.7911" x2="657.973" y2="115.584" gradientUnits="userSpaceOnUse">
<stop stop-color="#FFA529"/>
<stop offset="1" stop-color="#FFA529" stop-opacity="0"/>
</linearGradient>
</defs>
</svg>
