<svg width="106" height="30" viewBox="0 0 106 30" fill="none" xmlns="http://www.w3.org/2000/svg">
<circle cx="15" cy="15" r="14.5" stroke="#D1D5DB"/>
<path d="M20.3144 8.53027H10.0286C9.75578 8.53027 9.49416 8.63864 9.30126 8.83154C9.10837 9.02443 9 9.28606 9 9.55885V19.8447C9 20.1175 9.10837 20.3791 9.30126 20.572C9.49416 20.7649 9.75578 20.8732 10.0286 20.8732H20.3144C20.5872 20.8732 20.8488 20.7649 21.0417 20.572C21.2346 20.3791 21.343 20.1175 21.343 19.8447V9.55885C21.343 9.28606 21.2346 9.02443 21.0417 8.83154C20.8488 8.63864 20.5872 8.53027 20.3144 8.53027Z" stroke="#D1D5DB" stroke-width="1.37144" stroke-linecap="round" stroke-linejoin="round"/>
<path d="M14.1432 17.1015L15.8575 18.4729L18.6004 15.0443M11.7432 11.6157H18.6004M11.7432 14.3586H14.486" stroke="#D1D5DB" stroke-width="1.37144" stroke-linecap="round" stroke-linejoin="round"/>
<path d="M42.3402 17.9362V11.7022H40.0885V10.7681H45.6833V11.7022H43.4119V17.9362H42.3402ZM46.4885 17.9362V12.7347H47.3931L47.4423 13.6589H47.4914C47.7176 12.9903 48.3076 12.6658 48.9959 12.6658C49.1138 12.6658 49.2122 12.6757 49.3007 12.6855V13.6393C49.222 13.6294 49.104 13.6294 48.986 13.6294C48.0617 13.6294 47.5406 14.1112 47.4914 14.9667V17.9362H46.4885ZM51.8016 18.0247C50.5332 18.0247 49.6778 17.0709 49.6778 15.3305C49.6778 13.5901 50.5332 12.6462 51.8016 12.6462C52.6767 12.6462 53.3257 13.0886 53.5715 13.7573H53.6305L53.6698 12.7347H54.6433V17.9362H53.6305V16.9037H53.5715C53.3257 17.5723 52.6767 18.0247 51.8016 18.0247ZM52.1556 17.1889C53.1192 17.1889 53.6207 16.4318 53.6207 15.6255V15.0355C53.6207 14.2391 53.1192 13.4721 52.1556 13.4721C51.2903 13.4721 50.72 14.1014 50.72 15.3305C50.72 16.5497 51.2903 17.1889 52.1556 17.1889ZM56.062 17.9362V12.7347H57.0256L57.0649 13.7671H57.1239C57.4287 13.0296 58.117 12.656 58.8839 12.656C59.9459 12.656 60.7423 13.2558 60.7423 14.8487V17.9362H59.7296V15.0552C59.7296 13.9932 59.3461 13.4918 58.5201 13.4918C57.6254 13.4918 57.0649 14.1997 57.0649 15.0945V17.9362H56.062ZM64.0484 18.0345C62.6227 18.0345 61.8262 17.3364 61.8262 16.3039H62.8292C62.8292 17.0119 63.3503 17.3167 64.0779 17.3167C64.8252 17.3167 65.2185 17.0315 65.2185 16.5497C65.2185 15.9696 64.8449 15.832 63.9698 15.7041C62.7898 15.537 61.9737 15.2617 61.9737 14.1997C61.9737 13.2066 62.8095 12.6363 64.0681 12.6363C65.3463 12.6363 66.1231 13.2558 66.1428 14.2686H65.1497C65.1398 13.6393 64.717 13.3541 64.0484 13.3541C63.3601 13.3541 62.9865 13.6589 62.9865 14.1014C62.9865 14.6127 63.3798 14.77 64.2647 14.888C65.3463 15.0355 66.2509 15.2715 66.2509 16.4613C66.2509 17.5232 65.4053 18.0345 64.0484 18.0345ZM69.2201 18.0247C67.9517 18.0247 67.0962 17.0709 67.0962 15.3305C67.0962 13.5901 67.9517 12.6462 69.2201 12.6462C70.0952 12.6462 70.7442 13.0886 70.99 13.7573H71.049L71.0883 12.7347H72.0618V17.9362H71.049V16.9037H70.99C70.7442 17.5723 70.0952 18.0247 69.2201 18.0247ZM69.5741 17.1889C70.5377 17.1889 71.0392 16.4318 71.0392 15.6255V15.0355C71.0392 14.2391 70.5377 13.4721 69.5741 13.4721C68.7088 13.4721 68.1385 14.1014 68.1385 15.3305C68.1385 16.5497 68.7088 17.1889 69.5741 17.1889ZM75.6151 18.0247C74.091 18.0247 73.0881 16.9529 73.0881 15.3403C73.0881 13.7278 74.091 12.656 75.6544 12.656C76.913 12.656 77.8372 13.4131 77.9159 14.534H76.9326C76.8146 13.8556 76.2935 13.5016 75.6249 13.5016C74.6613 13.5016 74.1205 14.2391 74.1205 15.3502C74.1205 16.5202 74.7104 17.179 75.6151 17.179C76.3722 17.179 76.8736 16.7366 76.9523 16.0778H77.9356C77.8569 17.2577 76.913 18.0247 75.6151 18.0247ZM80.4481 17.9362C79.5926 17.9362 79.3271 17.5527 79.3271 16.8546V13.5606H78.3439V12.7347H79.3271V11.2303L80.3399 11.1123V12.7347H81.4903V13.5606H80.3399V16.6677C80.3399 17.0119 80.4579 17.1004 80.7824 17.1004H81.4903V17.9362H80.4481ZM82.497 11.9382V10.7681H83.5097V11.9382H82.497ZM82.497 17.9362V12.7347H83.5097V17.9362H82.497ZM87.1094 18.0247C85.5853 18.0247 84.5627 16.9824 84.5627 15.3502C84.5627 13.7474 85.5362 12.656 87.1094 12.656C88.6237 12.656 89.6463 13.6884 89.6463 15.3403C89.6463 16.9332 88.6728 18.0247 87.1094 18.0247ZM87.1094 17.179C88.014 17.179 88.6138 16.5202 88.6138 15.3403C88.6138 14.1702 88.0435 13.4918 87.1094 13.4918C86.2048 13.4918 85.5952 14.1506 85.5952 15.3502C85.5952 16.5104 86.1851 17.179 87.1094 17.179ZM90.7069 17.9362V12.7347H91.6705L91.7098 13.7671H91.7688C92.0736 13.0296 92.7619 12.656 93.5289 12.656C94.5908 12.656 95.3872 13.2558 95.3872 14.8487V17.9362H94.3745V15.0552C94.3745 13.9932 93.991 13.4918 93.1651 13.4918C92.2703 13.4918 91.7098 14.1997 91.7098 15.0945V17.9362H90.7069ZM98.6933 18.0345C97.2676 18.0345 96.4712 17.3364 96.4712 16.3039H97.4741C97.4741 17.0119 97.9952 17.3167 98.7228 17.3167C99.4701 17.3167 99.8634 17.0315 99.8634 16.5497C99.8634 15.9696 99.4898 15.832 98.6147 15.7041C97.4348 15.537 96.6186 15.2617 96.6186 14.1997C96.6186 13.2066 97.4544 12.6363 98.713 12.6363C99.9913 12.6363 100.768 13.2558 100.788 14.2686H99.7946C99.7848 13.6393 99.362 13.3541 98.6933 13.3541C98.0051 13.3541 97.6314 13.6589 97.6314 14.1014C97.6314 14.6127 98.0247 14.77 98.9097 14.888C99.9913 15.0355 100.896 15.2715 100.896 16.4613C100.896 17.5232 100.05 18.0345 98.6933 18.0345Z" fill="#9CA3AF"/>
</svg>
