<svg width="90" height="17" viewBox="0 0 90 17" fill="none" xmlns="http://www.w3.org/2000/svg">
<path d="M14.1088 2.20117H3.86252C3.59077 2.20117 3.33015 2.30912 3.138 2.50128C2.94584 2.69343 2.83789 2.95405 2.83789 3.2258V13.472C2.83789 13.7438 2.94584 14.0044 3.138 14.1966C3.33015 14.3887 3.59077 14.4967 3.86252 14.4967H14.1088C14.3805 14.4967 14.6411 14.3887 14.8333 14.1966C15.0254 14.0044 15.1334 13.7438 15.1334 13.472V3.2258C15.1334 2.95405 15.0254 2.69343 14.8333 2.50128C14.6411 2.30912 14.3805 2.20117 14.1088 2.20117Z" stroke="white" stroke-width="1.36617" stroke-linecap="round" stroke-linejoin="round"/>
<path d="M7.9611 10.7394L9.66881 12.1056L12.4011 8.6902M5.57031 5.27478H12.4011M5.57031 8.00711H8.30265" stroke="white" stroke-width="1.36617" stroke-linecap="round" stroke-linejoin="round"/>
<path d="M25.82 11.3046V5.09461H23.5769V4.16409H29.1502V5.09461H26.8876V11.3046H25.82ZM29.9523 11.3046V6.12307H30.8535L30.9024 7.04379H30.9514C31.1767 6.37774 31.7644 6.05451 32.45 6.05451C32.5676 6.05451 32.6655 6.0643 32.7537 6.0741V7.0242C32.6753 7.0144 32.5578 7.0144 32.4402 7.0144C31.5195 7.0144 31.0004 7.49435 30.9514 8.34651V11.3046H29.9523ZM35.245 11.3927C33.9815 11.3927 33.1293 10.4426 33.1293 8.70892C33.1293 6.97523 33.9815 6.03492 35.245 6.03492C36.1168 6.03492 36.7632 6.47569 37.0081 7.14174H37.0669L37.106 6.12307H38.0757V11.3046H37.0669V10.2761H37.0081C36.7632 10.9422 36.1168 11.3927 35.245 11.3927ZM35.5976 10.5602C36.5575 10.5602 37.0571 9.80595 37.0571 9.00277V8.41507C37.0571 7.62169 36.5575 6.85769 35.5976 6.85769C34.7357 6.85769 34.1676 7.48456 34.1676 8.70892C34.1676 9.92349 34.7357 10.5602 35.5976 10.5602ZM39.4889 11.3046V6.12307H40.4488L40.488 7.15153H40.5468C40.8504 6.41692 41.5361 6.04471 42.3001 6.04471C43.3579 6.04471 44.1513 6.6422 44.1513 8.22897V11.3046H43.1424V8.43466C43.1424 7.37682 42.7604 6.87728 41.9377 6.87728C41.0463 6.87728 40.488 7.58251 40.488 8.47384V11.3046H39.4889ZM47.4447 11.4025C46.0244 11.4025 45.231 10.7071 45.231 9.67861H46.2301C46.2301 10.3838 46.7493 10.6875 47.4741 10.6875C48.2185 10.6875 48.6103 10.4034 48.6103 9.92349C48.6103 9.34559 48.2381 9.20846 47.3663 9.08113C46.1909 8.91461 45.378 8.64036 45.378 7.58251C45.378 6.59322 46.2105 6.02512 47.4643 6.02512C48.7376 6.02512 49.5114 6.6422 49.531 7.65107H48.5417C48.5319 7.0242 48.1107 6.74015 47.4447 6.74015C46.759 6.74015 46.3868 7.04379 46.3868 7.48456C46.3868 7.99389 46.7786 8.15061 47.6602 8.26815C48.7376 8.41507 49.6387 8.65015 49.6387 9.83533C49.6387 10.8932 48.7964 11.4025 47.4447 11.4025ZM52.5965 11.3927C51.333 11.3927 50.4808 10.4426 50.4808 8.70892C50.4808 6.97523 51.333 6.03492 52.5965 6.03492C53.4682 6.03492 54.1147 6.47569 54.3596 7.14174H54.4183L54.4575 6.12307H55.4272V11.3046H54.4183V10.2761H54.3596C54.1147 10.9422 53.4682 11.3927 52.5965 11.3927ZM52.9491 10.5602C53.909 10.5602 54.4085 9.80595 54.4085 9.00277V8.41507C54.4085 7.62169 53.909 6.85769 52.9491 6.85769C52.0872 6.85769 51.5191 7.48456 51.5191 8.70892C51.5191 9.92349 52.0872 10.5602 52.9491 10.5602ZM58.9668 11.3927C57.4486 11.3927 56.4496 10.3251 56.4496 8.71872C56.4496 7.11235 57.4486 6.04471 59.006 6.04471C60.2598 6.04471 61.1805 6.79892 61.2588 7.91553H60.2794C60.1618 7.23969 59.6427 6.88707 58.9766 6.88707C58.0167 6.88707 57.478 7.62169 57.478 8.72851C57.478 9.8941 58.0657 10.5504 58.9668 10.5504C59.7211 10.5504 60.2206 10.1096 60.2989 9.45333H61.2784C61.2001 10.6287 60.2598 11.3927 58.9668 11.3927ZM63.7813 11.3046C62.9291 11.3046 62.6646 10.9226 62.6646 10.2271V6.94584H61.6852V6.12307H62.6646V4.62445L63.6735 4.50691V6.12307H64.8195V6.94584H63.6735V10.041C63.6735 10.3838 63.7911 10.472 64.1143 10.472H64.8195V11.3046H63.7813ZM65.8223 5.32968V4.16409H66.8311V5.32968H65.8223ZM65.8223 11.3046V6.12307H66.8311V11.3046H65.8223ZM70.417 11.3927C68.8988 11.3927 67.8801 10.3545 67.8801 8.72851C67.8801 7.13194 68.8498 6.04471 70.417 6.04471C71.9254 6.04471 72.9441 7.07317 72.9441 8.71872C72.9441 10.3055 71.9744 11.3927 70.417 11.3927ZM70.417 10.5504C71.3181 10.5504 71.9156 9.8941 71.9156 8.71872C71.9156 7.55312 71.3475 6.87728 70.417 6.87728C69.5159 6.87728 68.9086 7.53353 68.9086 8.72851C68.9086 9.88431 69.4963 10.5504 70.417 10.5504ZM74.0006 11.3046V6.12307H74.9605L74.9997 7.15153H75.0585C75.3621 6.41692 76.0477 6.04471 76.8117 6.04471C77.8696 6.04471 78.663 6.6422 78.663 8.22897V11.3046H77.6541V8.43466C77.6541 7.37682 77.2721 6.87728 76.4493 6.87728C75.558 6.87728 74.9997 7.58251 74.9997 8.47384V11.3046H74.0006ZM81.9564 11.4025C80.5361 11.4025 79.7427 10.7071 79.7427 9.67861H80.7418C80.7418 10.3838 81.2609 10.6875 81.9857 10.6875C82.7302 10.6875 83.122 10.4034 83.122 9.92349C83.122 9.34559 82.7497 9.20846 81.878 9.08113C80.7026 8.91461 79.8896 8.64036 79.8896 7.58251C79.8896 6.59322 80.7222 6.02512 81.976 6.02512C83.2493 6.02512 84.0231 6.6422 84.0427 7.65107H83.0534C83.0436 7.0242 82.6224 6.74015 81.9564 6.74015C81.2707 6.74015 80.8985 7.04379 80.8985 7.48456C80.8985 7.99389 81.2903 8.15061 82.1718 8.26815C83.2493 8.41507 84.1504 8.65015 84.1504 9.83533C84.1504 10.8932 83.3081 11.4025 81.9564 11.4025Z" fill="white"/>
</svg>
