<svg width="1412" height="1266" viewBox="0 0 1412 1266" fill="none" xmlns="http://www.w3.org/2000/svg">
<rect x="0.226562" y="0.836914" width="1426.77" height="1264.92" fill="white"/>
<g filter="url(#filter0_d_11267_28536)">
<g clip-path="url(#clip0_11267_28536)">
<g clip-path="url(#clip1_11267_28536)">
<rect x="155.199" y="1144.15" width="159.941" height="170.223" transform="rotate(-180 155.199 1144.15)" fill="#328A28"/>
<circle cx="125.497" cy="1001.34" r="132.523" transform="rotate(-180 125.497 1001.34)" fill="#F2C94C"/>
</g>
<g clip-path="url(#clip2_11267_28536)">
<rect x="155.199" y="803.164" width="159.941" height="170.223" transform="rotate(-180 155.199 803.164)" fill="#B6E8B0"/>
<rect x="296.57" y="662.235" width="156.974" height="264.903" transform="rotate(126.576 296.57 662.235)" fill="#328A28"/>
</g>
<g clip-path="url(#clip3_11267_28536)">
<rect x="155.199" y="633.749" width="159.941" height="170.223" transform="rotate(-180 155.199 633.749)" fill="#B6E8B0"/>
<circle cx="111.79" cy="584.614" r="36.558" transform="rotate(-180 111.79 584.614)" fill="#399F2D"/>
<circle cx="110.532" cy="583.351" r="10.085" transform="rotate(-180 110.532 583.351)" fill="white"/>
<circle cx="111.79" cy="511.501" r="36.558" transform="rotate(-180 111.79 511.501)" fill="#45C736"/>
<circle cx="110.532" cy="510.237" r="10.085" transform="rotate(-180 110.532 510.237)" fill="white"/>
<circle cx="38.6764" cy="584.614" r="36.558" transform="rotate(-180 38.6764 584.614)" fill="#1F7216"/>
<circle cx="37.4189" cy="583.351" r="10.085" transform="rotate(-180 37.4189 583.351)" fill="white"/>
<circle cx="38.6764" cy="511.501" r="36.558" transform="rotate(-180 38.6764 511.501)" fill="#399F2D"/>
<circle cx="37.4189" cy="510.237" r="10.085" transform="rotate(-180 37.4189 510.237)" fill="white"/>
</g>
<g clip-path="url(#clip4_11267_28536)">
<rect x="154.684" y="464.335" width="159.941" height="170.223" transform="rotate(-180 154.684 464.335)" fill="#F2994A"/>
<ellipse cx="6.17443" cy="444.802" rx="151.838" ry="143.996" transform="rotate(-133.984 6.17443 444.802)" fill="#F2C94C"/>
</g>
<g clip-path="url(#clip5_11267_28536)">
<rect x="155.199" y="973.657" width="159.941" height="170.223" transform="rotate(-180 155.199 973.657)" fill="#328A28"/>
<circle cx="207.18" cy="878.264" r="107.96" transform="rotate(-180 207.18 878.264)" fill="#F2C94C"/>
</g>
<g clip-path="url(#clip6_11267_28536)">
<rect x="155.199" y="293.842" width="159.941" height="170.223" transform="rotate(-180 155.199 293.842)" fill="#328A28"/>
<circle cx="207.18" cy="198.443" r="107.96" transform="rotate(-180 207.18 198.443)" fill="#F2C94C"/>
</g>
</g>
</g>
<g filter="url(#filter1_d_11267_28536)">
<g clip-path="url(#clip7_11267_28536)">
<g clip-path="url(#clip8_11267_28536)">
<rect x="1570.39" y="1144.15" width="159.941" height="170.223" transform="rotate(-180 1570.39 1144.15)" fill="#F2C94C"/>
<ellipse cx="1592.24" cy="1135.28" rx="178.295" ry="162.085" transform="rotate(168.915 1592.24 1135.28)" fill="#0E280B"/>
</g>
<g clip-path="url(#clip9_11267_28536)">
<rect x="1410.44" y="1144.15" width="159.941" height="170.223" transform="rotate(-180 1410.44 1144.15)" fill="#F2994A"/>
<ellipse cx="1256.22" cy="1124.61" rx="151.838" ry="143.996" transform="rotate(-133.984 1256.22 1124.61)" fill="#328A28"/>
</g>
<g clip-path="url(#clip10_11267_28536)">
<rect x="1570.39" y="803.164" width="159.941" height="170.223" transform="rotate(-180 1570.39 803.164)" fill="#328A28"/>
</g>
<g clip-path="url(#clip11_11267_28536)">
<rect x="1410.44" y="803.164" width="159.941" height="170.223" transform="rotate(-180 1410.44 803.164)" fill="#F2994A"/>
<ellipse cx="1261.93" cy="783.629" rx="151.838" ry="143.996" transform="rotate(-133.984 1261.93 783.629)" fill="#F2C94C"/>
</g>
<g clip-path="url(#clip12_11267_28536)">
<rect x="1570.39" y="633.749" width="159.941" height="170.223" transform="rotate(-180 1570.39 633.749)" fill="white"/>
<circle cx="1440.15" cy="490.942" r="132.523" transform="rotate(-180 1440.15 490.942)" fill="#F2994A"/>
</g>
<g clip-path="url(#clip13_11267_28536)">
<rect x="1410.44" y="633.749" width="159.941" height="170.223" transform="rotate(-180 1410.44 633.749)" fill="#F2C94C"/>
<ellipse cx="1432.28" cy="624.88" rx="178.295" ry="162.085" transform="rotate(168.915 1432.28 624.88)" fill="#0E280B"/>
</g>
<g clip-path="url(#clip14_11267_28536)">
<rect x="1570.21" y="464.334" width="159.941" height="170.223" transform="rotate(-180 1570.21 464.334)" fill="#F2994A"/>
<ellipse cx="1415.99" cy="444.802" rx="151.838" ry="143.996" transform="rotate(-133.984 1415.99 444.802)" fill="#328A28"/>
</g>
<g clip-path="url(#clip15_11267_28536)">
<rect x="1410.79" y="464.334" width="159.941" height="170.223" transform="rotate(-180 1410.79 464.334)" fill="#F2C94C"/>
<circle cx="1330.81" cy="374.084" r="79.9706" transform="rotate(-180 1330.81 374.084)" fill="#328A28"/>
</g>
<g clip-path="url(#clip16_11267_28536)">
<rect x="1570.73" y="973.657" width="159.941" height="170.223" transform="rotate(-180 1570.73 973.657)" fill="#B6E8B0"/>
</g>
<g clip-path="url(#clip17_11267_28536)">
<rect x="1410.44" y="973.657" width="159.941" height="170.223" transform="rotate(-180 1410.44 973.657)" fill="white"/>
<circle cx="1280.2" cy="830.85" r="132.523" transform="rotate(-180 1280.2 830.85)" fill="#F2994A"/>
</g>
<g clip-path="url(#clip18_11267_28536)">
<rect x="1570.73" y="293.842" width="159.941" height="170.223" transform="rotate(-180 1570.73 293.842)" fill="#B6E8B0"/>
</g>
<g clip-path="url(#clip19_11267_28536)">
<rect x="1410.44" y="293.842" width="159.941" height="170.223" transform="rotate(-180 1410.44 293.842)" fill="white"/>
<circle cx="1280.2" cy="151.036" r="132.523" transform="rotate(-180 1280.2 151.036)" fill="#F2994A"/>
</g>
</g>
</g>
<defs>
<filter id="filter0_d_11267_28536" x="-22.5" y="111.312" width="198" height="1061" filterUnits="userSpaceOnUse" color-interpolation-filters="sRGB">
<feFlood flood-opacity="0" result="BackgroundImageFix"/>
<feColorMatrix in="SourceAlpha" type="matrix" values="0 0 0 0 0 0 0 0 0 0 0 0 0 0 0 0 0 0 127 0" result="hardAlpha"/>
<feOffset dy="8"/>
<feGaussianBlur stdDeviation="10"/>
<feComposite in2="hardAlpha" operator="out"/>
<feColorMatrix type="matrix" values="0 0 0 0 0 0 0 0 0 0 0 0 0 0 0 0 0 0 0.12 0"/>
<feBlend mode="normal" in2="BackgroundImageFix" result="effect1_dropShadow_11267_28536"/>
<feBlend mode="normal" in="SourceGraphic" in2="effect1_dropShadow_11267_28536" result="shape"/>
</filter>
<filter id="filter1_d_11267_28536" x="1230.5" y="111.312" width="207" height="1061" filterUnits="userSpaceOnUse" color-interpolation-filters="sRGB">
<feFlood flood-opacity="0" result="BackgroundImageFix"/>
<feColorMatrix in="SourceAlpha" type="matrix" values="0 0 0 0 0 0 0 0 0 0 0 0 0 0 0 0 0 0 127 0" result="hardAlpha"/>
<feOffset dy="8"/>
<feGaussianBlur stdDeviation="10"/>
<feComposite in2="hardAlpha" operator="out"/>
<feColorMatrix type="matrix" values="0 0 0 0 0 0 0 0 0 0 0 0 0 0 0 0 0 0 0.12 0"/>
<feBlend mode="normal" in2="BackgroundImageFix" result="effect1_dropShadow_11267_28536"/>
<feBlend mode="normal" in="SourceGraphic" in2="effect1_dropShadow_11267_28536" result="shape"/>
</filter>
<clipPath id="clip0_11267_28536">
<rect x="-2.5" y="1144.31" width="1021" height="158" rx="20" transform="rotate(-90 -2.5 1144.31)" fill="white"/>
</clipPath>
<clipPath id="clip1_11267_28536">
<rect width="159.941" height="170.223" fill="white" transform="matrix(-1 0 0 -1 155.199 1144.15)"/>
</clipPath>
<clipPath id="clip2_11267_28536">
<rect width="159.941" height="170.223" fill="white" transform="matrix(-1 0 0 -1 155.199 803.164)"/>
</clipPath>
<clipPath id="clip3_11267_28536">
<rect width="159.941" height="170.223" fill="white" transform="matrix(-1 0 0 -1 155.199 633.748)"/>
</clipPath>
<clipPath id="clip4_11267_28536">
<rect width="159.941" height="170.223" fill="white" transform="matrix(-1 0 0 -1 154.684 464.334)"/>
</clipPath>
<clipPath id="clip5_11267_28536">
<rect width="159.941" height="170.223" fill="white" transform="matrix(-1 0 0 -1 155.199 973.658)"/>
</clipPath>
<clipPath id="clip6_11267_28536">
<rect width="159.941" height="170.223" fill="white" transform="matrix(-1 0 0 -1 155.199 293.84)"/>
</clipPath>
<clipPath id="clip7_11267_28536">
<rect x="1250.5" y="1144.31" width="1021" height="167" rx="20" transform="rotate(-90 1250.5 1144.31)" fill="white"/>
</clipPath>
<clipPath id="clip8_11267_28536">
<rect width="159.941" height="170.223" fill="white" transform="matrix(-1 0 0 -1 1570.39 1144.15)"/>
</clipPath>
<clipPath id="clip9_11267_28536">
<rect width="159.941" height="170.223" fill="white" transform="matrix(-1 0 0 -1 1410.44 1144.15)"/>
</clipPath>
<clipPath id="clip10_11267_28536">
<rect width="159.941" height="170.223" fill="white" transform="matrix(-1 0 0 -1 1570.39 803.164)"/>
</clipPath>
<clipPath id="clip11_11267_28536">
<rect width="159.941" height="170.223" fill="white" transform="matrix(-1 0 0 -1 1410.44 803.164)"/>
</clipPath>
<clipPath id="clip12_11267_28536">
<rect width="159.941" height="170.223" fill="white" transform="matrix(-1 0 0 -1 1570.39 633.748)"/>
</clipPath>
<clipPath id="clip13_11267_28536">
<rect width="159.941" height="170.223" fill="white" transform="matrix(-1 0 0 -1 1410.44 633.748)"/>
</clipPath>
<clipPath id="clip14_11267_28536">
<rect width="159.941" height="170.223" fill="white" transform="matrix(-1 0 0 -1 1570.21 464.334)"/>
</clipPath>
<clipPath id="clip15_11267_28536">
<rect width="159.941" height="170.223" fill="white" transform="matrix(-1 0 0 -1 1410.79 464.334)"/>
</clipPath>
<clipPath id="clip16_11267_28536">
<rect width="159.941" height="170.223" fill="white" transform="matrix(-1 0 0 -1 1570.73 973.658)"/>
</clipPath>
<clipPath id="clip17_11267_28536">
<rect width="159.941" height="170.223" fill="white" transform="matrix(-1 0 0 -1 1410.44 973.658)"/>
</clipPath>
<clipPath id="clip18_11267_28536">
<rect width="159.941" height="170.223" fill="white" transform="matrix(-1 0 0 -1 1570.73 293.84)"/>
</clipPath>
<clipPath id="clip19_11267_28536">
<rect width="159.941" height="170.223" fill="white" transform="matrix(-1 0 0 -1 1410.44 293.84)"/>
</clipPath>
</defs>
</svg>
