<svg width="35" height="33" viewBox="0 0 35 33" fill="none" xmlns="http://www.w3.org/2000/svg">
<path d="M24.9621 11.5904C24.5372 12.2088 24.0284 12.7322 23.4444 13.1597L23.4262 13.1723C23.4322 13.2605 23.4353 13.3931 23.4353 13.5699C23.4333 14.447 23.3019 15.2928 23.0589 16.0895L23.075 16.0279C22.8052 16.9237 22.4324 17.7053 21.9605 18.4146L21.9807 18.3818C21.481 19.1442 20.9035 19.8005 20.2452 20.3659L20.2331 20.376C19.5399 20.9585 18.7285 21.4284 17.8433 21.7421L17.7887 21.7588C16.897 22.0862 15.8673 22.2752 14.7937 22.2752C14.771 22.2752 14.7482 22.2752 14.726 22.2752H14.7295C14.7103 22.2752 14.6881 22.2752 14.6654 22.2752C12.9425 22.2752 11.3389 21.7623 10 20.8807L10.0318 20.9004C10.2435 20.9247 10.4886 20.9383 10.7371 20.9383H10.7725H10.7705C10.7892 20.9383 10.8119 20.9388 10.8341 20.9388C12.2523 20.9388 13.5554 20.4462 14.5815 19.6221L14.5699 19.6312C13.2366 19.606 12.1139 18.7334 11.7153 17.531L11.7092 17.5092C11.882 17.538 12.0821 17.5552 12.2857 17.5567H12.2872C12.5737 17.5567 12.8511 17.5188 13.1143 17.4476L13.0921 17.4527C12.3787 17.3092 11.7709 16.9302 11.3389 16.4018L11.3348 16.3962C10.9013 15.8854 10.6381 15.2185 10.6381 14.4899C10.6381 14.4758 10.6381 14.4617 10.6386 14.4475V14.4495V14.4116C11.0367 14.64 11.5107 14.7815 12.0164 14.7997H12.022C11.6067 14.5203 11.2707 14.1535 11.0352 13.724L11.0271 13.7083C10.7947 13.2865 10.6578 12.7838 10.6578 12.2487C10.6578 11.6798 10.8124 11.1473 11.0822 10.6906L11.0746 10.7047C11.8325 11.6338 12.7606 12.3927 13.8156 12.9414L13.8636 12.9641C14.8851 13.5032 16.0876 13.8448 17.3633 13.9059L17.3825 13.9064C17.3355 13.6967 17.3083 13.4557 17.3073 13.2082V13.2077C17.3093 11.5176 18.68 10.1484 20.37 10.1484C21.2491 10.1484 22.0418 10.5188 22.6006 11.1124L22.6021 11.1139C23.3337 10.9705 23.984 10.7138 24.569 10.3601L24.5423 10.3753C24.3124 11.0983 23.8349 11.6869 23.211 12.0542L23.1968 12.0618C23.8506 11.987 24.4473 11.8198 25 11.5732L24.9611 11.5889L24.9621 11.5904Z" fill="white"/>
</svg>
