<svg width="249" height="230" viewBox="0 0 249 230" fill="none" xmlns="http://www.w3.org/2000/svg">
<g clip-path="url(#clip0_7417_71370)">
<path d="M130.967 145.158L71.9055 178.014L69.5587 168.626H204.11V204.22H19.102V168.626C40.2234 157.153 59.1284 147.505 75.8169 139.682C92.5054 131.599 106.586 124.297 118.06 117.778C129.794 111.259 138.66 104.61 144.657 97.8304C150.915 91.0507 154.044 83.4887 154.044 75.1444C154.044 68.3647 152.349 62.4977 148.96 57.5432C145.57 52.5888 140.224 48.8078 132.923 46.2003C125.882 43.3319 116.756 41.8978 105.543 41.8978C90.9409 41.8978 78.946 45.2876 69.5587 52.0673C60.1714 58.5863 55.217 67.4521 54.6955 78.6647H13.6261C12.583 64.323 15.7121 51.6762 23.0134 40.7243C30.5753 29.7725 41.3968 21.1675 55.4777 14.9093C69.8195 8.39033 86.2472 5.13086 104.761 5.13086C119.103 5.13086 132.01 6.6954 143.484 9.8245C154.957 12.9536 164.735 17.5169 172.819 23.5143C181.163 29.251 187.552 36.1611 191.985 44.2446C196.418 52.0673 198.634 60.8027 198.634 70.4508C198.634 78.2735 197.2 85.4444 194.331 91.9633C191.724 98.2215 187.552 104.349 181.815 110.347C176.339 116.083 169.299 121.82 160.694 127.557C152.349 133.033 142.441 138.9 130.967 145.158Z" fill="white" fill-opacity="0.17"/>
<g filter="url(#filter0_b_7417_71370)">
<rect x="117.842" y="116.623" width="125.093" height="113.097" rx="10" fill="white" fill-opacity="0.22"/>
<rect x="117.842" y="116.623" width="125.093" height="113.097" rx="10" stroke="url(#paint0_linear_7417_71370)" stroke-width="2"/>
</g>
<path d="M158.605 162.007H151.873V195.666H212.458V162.007H207.409M193.946 158.642C195.263 159.403 196.391 160.453 197.246 161.712C198.101 162.971 198.66 164.407 198.881 165.912C199.103 167.417 198.981 168.953 198.526 170.405C198.071 171.857 197.293 173.187 196.251 174.296C195.209 175.405 193.93 176.265 192.51 176.81C191.089 177.355 189.563 177.572 188.047 177.445C186.531 177.318 185.063 176.849 183.753 176.075C182.443 175.301 181.325 174.24 180.483 172.973M185.532 155.276C185.532 157.954 184.468 160.522 182.574 162.416C180.68 164.309 178.112 165.373 175.434 165.373C172.756 165.373 170.188 164.309 168.294 162.416C166.4 160.522 165.337 157.954 165.337 155.276C165.337 152.598 166.4 150.029 168.294 148.136C170.188 146.242 172.756 145.178 175.434 145.178C178.112 145.178 180.68 146.242 182.574 148.136C184.468 150.029 185.532 152.598 185.532 155.276Z" stroke="white" stroke-width="6.73165" stroke-linecap="round" stroke-linejoin="round"/>
</g>
<defs>
<filter id="filter0_b_7417_71370" x="16.8418" y="15.6226" width="327.093" height="315.097" filterUnits="userSpaceOnUse" color-interpolation-filters="sRGB">
<feFlood flood-opacity="0" result="BackgroundImageFix"/>
<feGaussianBlur in="BackgroundImageFix" stdDeviation="50"/>
<feComposite in2="SourceAlpha" operator="in" result="effect1_backgroundBlur_7417_71370"/>
<feBlend mode="normal" in="SourceGraphic" in2="effect1_backgroundBlur_7417_71370" result="shape"/>
</filter>
<linearGradient id="paint0_linear_7417_71370" x1="180.388" y1="116.623" x2="180.388" y2="229.72" gradientUnits="userSpaceOnUse">
<stop stop-color="white"/>
<stop offset="1" stop-color="white" stop-opacity="0"/>
</linearGradient>
<clipPath id="clip0_7417_71370">
<rect width="249" height="230" fill="white"/>
</clipPath>
</defs>
</svg>
