<svg width="592" height="246" viewBox="0 0 592 246" fill="none" xmlns="http://www.w3.org/2000/svg">
<rect x="126.714" y="169.788" width="285.565" height="76.2119" rx="38.1059" fill="black"/>
<rect x="129.469" y="160.606" width="282.81" height="76.2119" rx="38.1059" fill="#FFBD00" stroke="black" stroke-width="3.67286"/>
<path d="M0.99 21.36H35.2V26.75H0.99V21.36ZM15.015 26.09H21.23V57H15.015V26.09ZM59.2711 57V41.16C59.2711 39.6933 59.0144 38.4833 58.5011 37.53C58.0244 36.54 57.2728 35.7883 56.2461 35.275C55.2194 34.7617 53.8628 34.505 52.1761 34.505C50.4894 34.505 48.9494 34.8717 47.5561 35.605C46.1628 36.3017 45.0261 37.2367 44.1461 38.41C43.2661 39.5833 42.7528 40.885 42.6061 42.315L42.5511 39.235C42.7344 37.915 43.1378 36.65 43.7611 35.44C44.3844 34.1933 45.2094 33.0933 46.2361 32.14C47.2628 31.1867 48.4728 30.435 49.8661 29.885C51.2594 29.2983 52.7994 29.005 54.4861 29.005C56.0628 29.005 57.5111 29.225 58.8311 29.665C60.1878 30.105 61.3428 30.765 62.2961 31.645C63.2861 32.4883 64.0378 33.5517 64.5511 34.835C65.1011 36.0817 65.3761 37.53 65.3761 39.18V57H59.2711ZM36.8311 57V18.61H42.9361V57H36.8311ZM95.04 47.98H100.925C100.632 49.85 99.8983 51.5183 98.725 52.985C97.5883 54.415 96.03 55.5517 94.05 56.395C92.07 57.2017 89.705 57.605 86.955 57.605C83.8383 57.605 81.0517 57.0367 78.595 55.9C76.1383 54.7267 74.2133 53.0767 72.82 50.95C71.4267 48.8233 70.73 46.2933 70.73 43.36C70.73 40.4633 71.4083 37.9333 72.765 35.77C74.1217 33.6067 75.9917 31.9383 78.375 30.765C80.795 29.5917 83.5817 29.005 86.735 29.005C89.9983 29.005 92.7117 29.5917 94.875 30.765C97.075 31.9017 98.7067 33.625 99.77 35.935C100.833 38.2083 101.273 41.0867 101.09 44.57H76.945C77.1283 46.11 77.6233 47.5033 78.43 48.75C79.2733 49.96 80.41 50.9133 81.84 51.61C83.27 52.27 84.9383 52.6 86.845 52.6C88.9717 52.6 90.75 52.1783 92.18 51.335C93.6467 50.4917 94.6 49.3733 95.04 47.98ZM86.57 33.955C84.0767 33.955 82.0233 34.5783 80.41 35.825C78.7967 37.035 77.7517 38.5933 77.275 40.5H94.93C94.7833 38.4467 93.9583 36.8517 92.455 35.715C90.9517 34.5417 88.99 33.955 86.57 33.955ZM147.756 57H141.651V29.61H147.756V57ZM141.981 43.965L142.036 45.725C141.962 46.2017 141.797 46.9167 141.541 47.87C141.321 48.8233 140.936 49.8683 140.386 51.005C139.872 52.105 139.176 53.1683 138.296 54.195C137.452 55.185 136.389 56.01 135.106 56.67C133.822 57.2933 132.264 57.605 130.431 57.605C129.111 57.605 127.772 57.4217 126.416 57.055C125.096 56.725 123.886 56.1567 122.786 55.35C121.722 54.5433 120.861 53.4433 120.201 52.05C119.541 50.6567 119.211 48.8967 119.211 46.77V29.61H125.316V45.615C125.316 47.3383 125.591 48.695 126.141 49.685C126.727 50.6383 127.534 51.3167 128.561 51.72C129.587 52.1233 130.779 52.325 132.136 52.325C134.079 52.325 135.729 51.885 137.086 51.005C138.442 50.125 139.524 49.0433 140.331 47.76C141.174 46.44 141.724 45.175 141.981 43.965ZM155.049 18.61H161.154V57H155.049V18.61ZM165.572 29.61H184.932V34.615H165.572V29.61ZM172.172 22.24H178.332V57H172.172V22.24ZM196.883 18.005V23.89H189.568V18.005H196.883ZM190.118 29.61H196.278V57H190.118V29.61ZM203.591 29.61H209.696V57H203.591V29.61ZM221.246 29.005C222.822 29.005 224.271 29.225 225.591 29.665C226.947 30.105 228.102 30.7833 229.056 31.7C230.046 32.58 230.797 33.68 231.311 35C231.861 36.32 232.136 37.8783 232.136 39.675V57H226.031V40.885C226.031 38.6483 225.481 36.9983 224.381 35.935C223.317 34.835 221.631 34.285 219.321 34.285C217.561 34.285 215.947 34.67 214.481 35.44C213.051 36.1733 211.877 37.145 210.961 38.355C210.044 39.5283 209.512 40.83 209.366 42.26L209.311 39.29C209.494 37.9333 209.897 36.65 210.521 35.44C211.144 34.1933 211.969 33.0933 212.996 32.14C214.022 31.15 215.232 30.38 216.626 29.83C218.019 29.28 219.559 29.005 221.246 29.005ZM243.081 29.005C244.694 29.005 246.161 29.225 247.481 29.665C248.801 30.105 249.937 30.7833 250.891 31.7C251.881 32.58 252.651 33.68 253.201 35C253.751 36.32 254.026 37.8783 254.026 39.675V57H247.866V40.885C247.866 38.6483 247.316 36.9983 246.216 35.935C245.152 34.835 243.466 34.285 241.156 34.285C239.396 34.285 237.782 34.67 236.316 35.44C234.886 36.1733 233.712 37.145 232.796 38.355C231.916 39.5283 231.402 40.83 231.256 42.26L231.146 39.18C231.329 37.86 231.751 36.595 232.411 35.385C233.071 34.1383 233.914 33.0383 234.941 32.085C235.967 31.1317 237.159 30.38 238.516 29.83C239.909 29.28 241.431 29.005 243.081 29.005ZM272.949 57.605C270.456 57.605 268.164 57 266.074 55.79C264.021 54.58 262.371 52.9117 261.124 50.785C259.914 48.6217 259.309 46.1467 259.309 43.36C259.309 40.5 259.932 38.0067 261.179 35.88C262.426 33.7167 264.112 32.03 266.239 30.82C268.366 29.61 270.749 29.005 273.389 29.005C276.322 29.005 278.651 29.6467 280.374 30.93C282.097 32.2133 283.326 33.9367 284.059 36.1C284.792 38.2633 285.159 40.6833 285.159 43.36C285.159 44.8633 284.939 46.4583 284.499 48.145C284.059 49.795 283.362 51.335 282.409 52.765C281.492 54.195 280.246 55.3683 278.669 56.285C277.129 57.165 275.222 57.605 272.949 57.605ZM274.819 52.545C276.872 52.545 278.614 52.16 280.044 51.39C281.511 50.5833 282.611 49.4833 283.344 48.09C284.114 46.6967 284.499 45.12 284.499 43.36C284.499 41.4167 284.114 39.7667 283.344 38.41C282.574 37.0167 281.474 35.9533 280.044 35.22C278.614 34.45 276.872 34.065 274.819 34.065C271.886 34.065 269.612 34.9267 267.999 36.65C266.386 38.3733 265.579 40.61 265.579 43.36C265.579 45.1567 265.964 46.7517 266.734 48.145C267.541 49.5383 268.641 50.62 270.034 51.39C271.427 52.16 273.022 52.545 274.819 52.545ZM284.499 29.61H290.659V57H284.939C284.939 57 284.902 56.6517 284.829 55.955C284.756 55.2583 284.682 54.415 284.609 53.425C284.536 52.3983 284.499 51.4267 284.499 50.51V29.61ZM295.445 29.61H314.805V34.615H295.445V29.61ZM302.045 22.24H308.205V57H302.045V22.24ZM342.057 47.98H347.942C347.648 49.85 346.915 51.5183 345.742 52.985C344.605 54.415 343.047 55.5517 341.067 56.395C339.087 57.2017 336.722 57.605 333.972 57.605C330.855 57.605 328.068 57.0367 325.612 55.9C323.155 54.7267 321.23 53.0767 319.837 50.95C318.443 48.8233 317.747 46.2933 317.747 43.36C317.747 40.4633 318.425 37.9333 319.782 35.77C321.138 33.6067 323.008 31.9383 325.392 30.765C327.812 29.5917 330.598 29.005 333.752 29.005C337.015 29.005 339.728 29.5917 341.892 30.765C344.092 31.9017 345.723 33.625 346.787 35.935C347.85 38.2083 348.29 41.0867 348.107 44.57H323.962C324.145 46.11 324.64 47.5033 325.447 48.75C326.29 49.96 327.427 50.9133 328.857 51.61C330.287 52.27 331.955 52.6 333.862 52.6C335.988 52.6 337.767 52.1783 339.197 51.335C340.663 50.4917 341.617 49.3733 342.057 47.98ZM333.587 33.955C331.093 33.955 329.04 34.5783 327.427 35.825C325.813 37.035 324.768 38.5933 324.292 40.5H341.947C341.8 38.4467 340.975 36.8517 339.472 35.715C337.968 34.5417 336.007 33.955 333.587 33.955ZM21.01 135.605C18.7733 135.605 16.8667 135.165 15.29 134.285C13.75 133.405 12.5033 132.25 11.55 130.82C10.6333 129.353 9.955 127.795 9.515 126.145C9.075 124.458 8.855 122.863 8.855 121.36C8.855 119.343 9.05667 117.473 9.46 115.75C9.9 114.027 10.5783 112.523 11.495 111.24C12.4483 109.92 13.695 108.893 15.235 108.16C16.8117 107.39 18.7367 107.005 21.01 107.005C23.5767 107.005 25.8867 107.628 27.94 108.875C29.9933 110.085 31.625 111.772 32.835 113.935C34.045 116.062 34.65 118.537 34.65 121.36C34.65 124.183 34.0267 126.677 32.78 128.84C31.57 130.967 29.9383 132.635 27.885 133.845C25.8317 135.018 23.54 135.605 21.01 135.605ZM19.195 130.545C21.0283 130.545 22.6417 130.16 24.035 129.39C25.4283 128.62 26.51 127.538 27.28 126.145C28.05 124.752 28.435 123.157 28.435 121.36C28.435 118.61 27.6283 116.373 26.015 114.65C24.4017 112.89 22.1283 112.01 19.195 112.01C17.3617 112.01 15.7117 112.395 14.245 113.165C12.7783 113.935 11.6233 115.017 10.78 116.41C9.93667 117.767 9.515 119.417 9.515 121.36C9.515 123.12 9.9 124.697 10.67 126.09C11.44 127.483 12.54 128.583 13.97 129.39C15.4 130.16 17.1417 130.545 19.195 130.545ZM3.41 107.61H9.24L9.515 114.32V146H3.41V107.61ZM40.6446 96.61H46.7496V135H40.6446V96.61ZM66.3768 135.605C63.8835 135.605 61.5918 135 59.5018 133.79C57.4485 132.58 55.7985 130.912 54.5518 128.785C53.3418 126.622 52.7368 124.147 52.7368 121.36C52.7368 118.5 53.3602 116.007 54.6068 113.88C55.8535 111.717 57.5402 110.03 59.6668 108.82C61.7935 107.61 64.1768 107.005 66.8168 107.005C69.7502 107.005 72.0785 107.647 73.8018 108.93C75.5252 110.213 76.7535 111.937 77.4868 114.1C78.2202 116.263 78.5868 118.683 78.5868 121.36C78.5868 122.863 78.3668 124.458 77.9268 126.145C77.4868 127.795 76.7902 129.335 75.8368 130.765C74.9202 132.195 73.6735 133.368 72.0968 134.285C70.5568 135.165 68.6502 135.605 66.3768 135.605ZM68.2468 130.545C70.3002 130.545 72.0418 130.16 73.4718 129.39C74.9385 128.583 76.0385 127.483 76.7718 126.09C77.5418 124.697 77.9268 123.12 77.9268 121.36C77.9268 119.417 77.5418 117.767 76.7718 116.41C76.0018 115.017 74.9018 113.953 73.4718 113.22C72.0418 112.45 70.3002 112.065 68.2468 112.065C65.3135 112.065 63.0402 112.927 61.4268 114.65C59.8135 116.373 59.0068 118.61 59.0068 121.36C59.0068 123.157 59.3918 124.752 60.1618 126.145C60.9685 127.538 62.0685 128.62 63.4618 129.39C64.8552 130.16 66.4502 130.545 68.2468 130.545ZM77.9268 107.61H84.0868V135H78.3668C78.3668 135 78.3302 134.652 78.2568 133.955C78.1835 133.258 78.1102 132.415 78.0368 131.425C77.9635 130.398 77.9268 129.427 77.9268 128.51V107.61ZM88.8727 107.61H108.233V112.615H88.8727V107.61ZM95.4727 100.24H101.633V135H95.4727V100.24ZM111.109 107.94H130.964V112.89H111.109V107.94ZM126.894 96.61H131.404V101.89H127.994C126.967 101.853 126.069 101.963 125.299 102.22C124.566 102.477 123.979 102.953 123.539 103.65C123.136 104.347 122.934 105.337 122.934 106.62V135H116.774V106.07C116.774 103.87 117.177 102.073 117.984 100.68C118.791 99.2867 119.946 98.26 121.449 97.6C122.989 96.94 124.804 96.61 126.894 96.61ZM149.684 135.605C146.641 135.605 143.909 135.055 141.489 133.955C139.069 132.855 137.163 131.242 135.769 129.115C134.376 126.988 133.679 124.403 133.679 121.36C133.679 118.353 134.376 115.787 135.769 113.66C137.163 111.497 139.069 109.847 141.489 108.71C143.909 107.573 146.641 107.005 149.684 107.005C152.728 107.005 155.441 107.573 157.824 108.71C160.208 109.847 162.078 111.497 163.434 113.66C164.828 115.787 165.524 118.353 165.524 121.36C165.524 124.403 164.828 126.988 163.434 129.115C162.078 131.242 160.208 132.855 157.824 133.955C155.441 135.055 152.728 135.605 149.684 135.605ZM149.684 130.6C151.444 130.6 153.058 130.252 154.524 129.555C155.991 128.858 157.146 127.813 157.989 126.42C158.869 125.027 159.309 123.34 159.309 121.36C159.309 119.38 158.869 117.693 157.989 116.3C157.146 114.907 155.991 113.843 154.524 113.11C153.094 112.34 151.481 111.955 149.684 111.955C147.888 111.955 146.256 112.322 144.789 113.055C143.323 113.788 142.131 114.852 141.214 116.245C140.334 117.638 139.894 119.343 139.894 121.36C139.894 123.34 140.334 125.027 141.214 126.42C142.094 127.813 143.268 128.858 144.734 129.555C146.238 130.252 147.888 130.6 149.684 130.6ZM170.988 107.61H177.093V135H170.988V107.61ZM186.993 112.835C185.013 112.835 183.308 113.257 181.878 114.1C180.485 114.943 179.366 115.97 178.523 117.18C177.68 118.39 177.093 119.563 176.763 120.7L176.708 117.62C176.745 117.217 176.873 116.612 177.093 115.805C177.313 114.962 177.643 114.045 178.083 113.055C178.56 112.065 179.183 111.112 179.953 110.195C180.76 109.242 181.731 108.472 182.868 107.885C184.041 107.298 185.416 107.005 186.993 107.005V112.835ZM191.613 107.61H197.718V135H191.613V107.61ZM209.268 107.005C210.845 107.005 212.293 107.225 213.613 107.665C214.97 108.105 216.125 108.783 217.078 109.7C218.068 110.58 218.82 111.68 219.333 113C219.883 114.32 220.158 115.878 220.158 117.675V135H214.053V118.885C214.053 116.648 213.503 114.998 212.403 113.935C211.34 112.835 209.653 112.285 207.343 112.285C205.583 112.285 203.97 112.67 202.503 113.44C201.073 114.173 199.9 115.145 198.983 116.355C198.066 117.528 197.535 118.83 197.388 120.26L197.333 117.29C197.516 115.933 197.92 114.65 198.543 113.44C199.166 112.193 199.991 111.093 201.018 110.14C202.045 109.15 203.255 108.38 204.648 107.83C206.041 107.28 207.581 107.005 209.268 107.005ZM231.103 107.005C232.716 107.005 234.183 107.225 235.503 107.665C236.823 108.105 237.96 108.783 238.913 109.7C239.903 110.58 240.673 111.68 241.223 113C241.773 114.32 242.048 115.878 242.048 117.675V135H235.888V118.885C235.888 116.648 235.338 114.998 234.238 113.935C233.175 112.835 231.488 112.285 229.178 112.285C227.418 112.285 225.805 112.67 224.338 113.44C222.908 114.173 221.735 115.145 220.818 116.355C219.938 117.528 219.425 118.83 219.278 120.26L219.168 117.18C219.351 115.86 219.773 114.595 220.433 113.385C221.093 112.138 221.936 111.038 222.963 110.085C223.99 109.132 225.181 108.38 226.538 107.83C227.931 107.28 229.453 107.005 231.103 107.005ZM259.512 107.61H278.872V112.615H259.512V107.61ZM266.112 100.24H272.272V135H266.112V100.24ZM297.819 135.605C294.776 135.605 292.044 135.055 289.624 133.955C287.204 132.855 285.297 131.242 283.904 129.115C282.511 126.988 281.814 124.403 281.814 121.36C281.814 118.353 282.511 115.787 283.904 113.66C285.297 111.497 287.204 109.847 289.624 108.71C292.044 107.573 294.776 107.005 297.819 107.005C300.862 107.005 303.576 107.573 305.959 108.71C308.342 109.847 310.212 111.497 311.569 113.66C312.962 115.787 313.659 118.353 313.659 121.36C313.659 124.403 312.962 126.988 311.569 129.115C310.212 131.242 308.342 132.855 305.959 133.955C303.576 135.055 300.862 135.605 297.819 135.605ZM297.819 130.6C299.579 130.6 301.192 130.252 302.659 129.555C304.126 128.858 305.281 127.813 306.124 126.42C307.004 125.027 307.444 123.34 307.444 121.36C307.444 119.38 307.004 117.693 306.124 116.3C305.281 114.907 304.126 113.843 302.659 113.11C301.229 112.34 299.616 111.955 297.819 111.955C296.022 111.955 294.391 112.322 292.924 113.055C291.457 113.788 290.266 114.852 289.349 116.245C288.469 117.638 288.029 119.343 288.029 121.36C288.029 123.34 288.469 125.027 289.349 126.42C290.229 127.813 291.402 128.858 292.869 129.555C294.372 130.252 296.022 130.6 297.819 130.6ZM361.279 124.385C361.059 126.732 360.307 128.748 359.024 130.435C357.74 132.122 356.017 133.405 353.854 134.285C351.727 135.165 349.27 135.605 346.484 135.605C343.477 135.605 340.745 135.055 338.289 133.955C335.869 132.855 333.944 131.242 332.514 129.115C331.084 126.988 330.369 124.403 330.369 121.36C330.369 118.317 331.084 115.732 332.514 113.605C333.944 111.478 335.869 109.847 338.289 108.71C340.745 107.573 343.477 107.005 346.484 107.005C349.27 107.005 351.727 107.463 353.854 108.38C355.98 109.26 357.685 110.525 358.969 112.175C360.252 113.825 361.004 115.823 361.224 118.17H355.614C354.99 116.227 353.854 114.723 352.204 113.66C350.59 112.56 348.684 112.01 346.484 112.01C344.687 112.01 343.037 112.377 341.534 113.11C340.03 113.807 338.82 114.852 337.904 116.245C337.024 117.602 336.584 119.307 336.584 121.36C336.584 123.377 337.024 125.082 337.904 126.475C338.82 127.868 340.03 128.913 341.534 129.61C343.037 130.27 344.687 130.6 346.484 130.6C348.904 130.6 350.884 130.068 352.424 129.005C354 127.905 355.082 126.365 355.669 124.385H361.279ZM381.232 135.605C378.189 135.605 375.457 135.055 373.037 133.955C370.617 132.855 368.71 131.242 367.317 129.115C365.924 126.988 365.227 124.403 365.227 121.36C365.227 118.353 365.924 115.787 367.317 113.66C368.71 111.497 370.617 109.847 373.037 108.71C375.457 107.573 378.189 107.005 381.232 107.005C384.275 107.005 386.989 107.573 389.372 108.71C391.755 109.847 393.625 111.497 394.982 113.66C396.375 115.787 397.072 118.353 397.072 121.36C397.072 124.403 396.375 126.988 394.982 129.115C393.625 131.242 391.755 132.855 389.372 133.955C386.989 135.055 384.275 135.605 381.232 135.605ZM381.232 130.6C382.992 130.6 384.605 130.252 386.072 129.555C387.539 128.858 388.694 127.813 389.537 126.42C390.417 125.027 390.857 123.34 390.857 121.36C390.857 119.38 390.417 117.693 389.537 116.3C388.694 114.907 387.539 113.843 386.072 113.11C384.642 112.34 383.029 111.955 381.232 111.955C379.435 111.955 377.804 112.322 376.337 113.055C374.87 113.788 373.679 114.852 372.762 116.245C371.882 117.638 371.442 119.343 371.442 121.36C371.442 123.34 371.882 125.027 372.762 126.42C373.642 127.813 374.815 128.858 376.282 129.555C377.785 130.252 379.435 130.6 381.232 130.6ZM402.536 107.61H408.641V135H402.536V107.61ZM420.191 107.005C421.768 107.005 423.216 107.225 424.536 107.665C425.893 108.105 427.048 108.783 428.001 109.7C428.991 110.58 429.743 111.68 430.256 113C430.806 114.32 431.081 115.878 431.081 117.675V135H424.976V118.885C424.976 116.648 424.426 114.998 423.326 113.935C422.263 112.835 420.576 112.285 418.266 112.285C416.506 112.285 414.893 112.67 413.426 113.44C411.996 114.173 410.823 115.145 409.906 116.355C408.989 117.528 408.458 118.83 408.311 120.26L408.256 117.29C408.439 115.933 408.843 114.65 409.466 113.44C410.089 112.193 410.914 111.093 411.941 110.14C412.968 109.15 414.178 108.38 415.571 107.83C416.964 107.28 418.504 107.005 420.191 107.005ZM435.899 107.61H455.259V112.615H435.899V107.61ZM442.499 100.24H448.659V135H442.499V100.24ZM460.06 107.61H466.165V135H460.06V107.61ZM476.065 112.835C474.085 112.835 472.38 113.257 470.95 114.1C469.557 114.943 468.439 115.97 467.595 117.18C466.752 118.39 466.165 119.563 465.835 120.7L465.78 117.62C465.817 117.217 465.945 116.612 466.165 115.805C466.385 114.962 466.715 114.045 467.155 113.055C467.632 112.065 468.255 111.112 469.025 110.195C469.832 109.242 470.804 108.472 471.94 107.885C473.114 107.298 474.489 107.005 476.065 107.005V112.835ZM495.26 135.605C492.217 135.605 489.485 135.055 487.065 133.955C484.645 132.855 482.739 131.242 481.345 129.115C479.952 126.988 479.255 124.403 479.255 121.36C479.255 118.353 479.952 115.787 481.345 113.66C482.739 111.497 484.645 109.847 487.065 108.71C489.485 107.573 492.217 107.005 495.26 107.005C498.304 107.005 501.017 107.573 503.4 108.71C505.784 109.847 507.654 111.497 509.01 113.66C510.404 115.787 511.1 118.353 511.1 121.36C511.1 124.403 510.404 126.988 509.01 129.115C507.654 131.242 505.784 132.855 503.4 133.955C501.017 135.055 498.304 135.605 495.26 135.605ZM495.26 130.6C497.02 130.6 498.634 130.252 500.1 129.555C501.567 128.858 502.722 127.813 503.565 126.42C504.445 125.027 504.885 123.34 504.885 121.36C504.885 119.38 504.445 117.693 503.565 116.3C502.722 114.907 501.567 113.843 500.1 113.11C498.67 112.34 497.057 111.955 495.26 111.955C493.464 111.955 491.832 112.322 490.365 113.055C488.899 113.788 487.707 114.852 486.79 116.245C485.91 117.638 485.47 119.343 485.47 121.36C485.47 123.34 485.91 125.027 486.79 126.42C487.67 127.813 488.844 128.858 490.31 129.555C491.814 130.252 493.464 130.6 495.26 130.6ZM517.114 96.61H523.219V135H517.114V96.61ZM0.935 185.61H7.48L18.535 211.9L13.255 213L0.935 185.61ZM31.46 185.61L13.86 224H7.425L14.96 208.985L24.915 185.61H31.46ZM49.3522 213.605C46.3089 213.605 43.5772 213.055 41.1572 211.955C38.7372 210.855 36.8305 209.242 35.4372 207.115C34.0439 204.988 33.3472 202.403 33.3472 199.36C33.3472 196.353 34.0439 193.787 35.4372 191.66C36.8305 189.497 38.7372 187.847 41.1572 186.71C43.5772 185.573 46.3089 185.005 49.3522 185.005C52.3955 185.005 55.1089 185.573 57.4922 186.71C59.8755 187.847 61.7455 189.497 63.1022 191.66C64.4955 193.787 65.1922 196.353 65.1922 199.36C65.1922 202.403 64.4955 204.988 63.1022 207.115C61.7455 209.242 59.8755 210.855 57.4922 211.955C55.1089 213.055 52.3955 213.605 49.3522 213.605ZM49.3522 208.6C51.1122 208.6 52.7255 208.252 54.1922 207.555C55.6589 206.858 56.8139 205.813 57.6572 204.42C58.5372 203.027 58.9772 201.34 58.9772 199.36C58.9772 197.38 58.5372 195.693 57.6572 194.3C56.8139 192.907 55.6589 191.843 54.1922 191.11C52.7622 190.34 51.1489 189.955 49.3522 189.955C47.5555 189.955 45.9239 190.322 44.4572 191.055C42.9905 191.788 41.7989 192.852 40.8822 194.245C40.0022 195.638 39.5622 197.343 39.5622 199.36C39.5622 201.34 40.0022 203.027 40.8822 204.42C41.7622 205.813 42.9355 206.858 44.4022 207.555C45.9055 208.252 47.5555 208.6 49.3522 208.6ZM99.2011 213H93.0961V185.61H99.2011V213ZM93.4261 199.965L93.4811 201.725C93.4078 202.202 93.2428 202.917 92.9861 203.87C92.7661 204.823 92.3811 205.868 91.8311 207.005C91.3178 208.105 90.6211 209.168 89.7411 210.195C88.8978 211.185 87.8344 212.01 86.5511 212.67C85.2678 213.293 83.7094 213.605 81.8761 213.605C80.5561 213.605 79.2178 213.422 77.8611 213.055C76.5411 212.725 75.3311 212.157 74.2311 211.35C73.1678 210.543 72.3061 209.443 71.6461 208.05C70.9861 206.657 70.6561 204.897 70.6561 202.77V185.61H76.7611V201.615C76.7611 203.338 77.0361 204.695 77.5861 205.685C78.1728 206.638 78.9794 207.317 80.0061 207.72C81.0328 208.123 82.2244 208.325 83.5811 208.325C85.5244 208.325 87.1744 207.885 88.5311 207.005C89.8878 206.125 90.9694 205.043 91.7761 203.76C92.6194 202.44 93.1694 201.175 93.4261 199.965ZM105.944 185.61H112.049V213H105.944V185.61ZM121.949 190.835C119.969 190.835 118.264 191.257 116.834 192.1C115.441 192.943 114.323 193.97 113.479 195.18C112.636 196.39 112.049 197.563 111.719 198.7L111.664 195.62C111.701 195.217 111.829 194.612 112.049 193.805C112.269 192.962 112.599 192.045 113.039 191.055C113.516 190.065 114.139 189.112 114.909 188.195C115.716 187.242 116.688 186.472 117.824 185.885C118.998 185.298 120.373 185.005 121.949 185.005V190.835Z" fill="white"/>
<path d="M167.706 191.77V186.82H180.466V191.77H167.706ZM175.241 186.82H181.346V213H175.241V186.82ZM155.661 213V184.07L161.821 184.62V213H155.661ZM165.781 174.61H181.346V179.89H166.881C165.854 179.853 164.956 179.963 164.186 180.22C163.452 180.477 162.866 180.953 162.426 181.65C162.022 182.347 161.821 183.337 161.821 184.62L155.661 184.07C155.661 181.87 156.064 180.073 156.871 178.68C157.677 177.287 158.832 176.26 160.336 175.6C161.876 174.94 163.691 174.61 165.781 174.61ZM149.996 186.82H169.851V191.77H149.996V186.82ZM188.068 185.61H194.173V213H188.068V185.61ZM205.723 185.005C207.3 185.005 208.748 185.225 210.068 185.665C211.425 186.105 212.58 186.783 213.533 187.7C214.523 188.58 215.275 189.68 215.788 191C216.338 192.32 216.613 193.878 216.613 195.675V213H210.508V196.885C210.508 194.648 209.958 192.998 208.858 191.935C207.795 190.835 206.108 190.285 203.798 190.285C202.038 190.285 200.425 190.67 198.958 191.44C197.528 192.173 196.355 193.145 195.438 194.355C194.522 195.528 193.99 196.83 193.843 198.26L193.788 195.29C193.972 193.933 194.375 192.65 194.998 191.44C195.622 190.193 196.447 189.093 197.473 188.14C198.5 187.15 199.71 186.38 201.103 185.83C202.497 185.28 204.037 185.005 205.723 185.005ZM235.566 213.605C233.073 213.605 230.781 213 228.691 211.79C226.638 210.58 224.988 208.912 223.741 206.785C222.531 204.622 221.926 202.147 221.926 199.36C221.926 196.5 222.55 194.007 223.796 191.88C225.043 189.717 226.73 188.03 228.856 186.82C230.983 185.61 233.366 185.005 236.006 185.005C238.94 185.005 241.268 185.647 242.991 186.93C244.715 188.213 245.943 189.937 246.676 192.1C247.41 194.263 247.776 196.683 247.776 199.36C247.776 200.863 247.556 202.458 247.116 204.145C246.676 205.795 245.98 207.335 245.026 208.765C244.11 210.195 242.863 211.368 241.286 212.285C239.746 213.165 237.84 213.605 235.566 213.605ZM237.436 208.545C239.49 208.545 241.231 208.16 242.661 207.39C244.128 206.583 245.228 205.483 245.961 204.09C246.731 202.697 247.116 201.12 247.116 199.36C247.116 197.417 246.731 195.767 245.961 194.41C245.191 193.017 244.091 191.953 242.661 191.22C241.231 190.45 239.49 190.065 237.436 190.065C234.503 190.065 232.23 190.927 230.616 192.65C229.003 194.373 228.196 196.61 228.196 199.36C228.196 201.157 228.581 202.752 229.351 204.145C230.158 205.538 231.258 206.62 232.651 207.39C234.045 208.16 235.64 208.545 237.436 208.545ZM247.116 185.61H253.276V213H247.556C247.556 213 247.52 212.652 247.446 211.955C247.373 211.258 247.3 210.415 247.226 209.425C247.153 208.398 247.116 207.427 247.116 206.51V185.61ZM259.987 185.61H266.092V213H259.987V185.61ZM277.642 185.005C279.219 185.005 280.667 185.225 281.987 185.665C283.344 186.105 284.499 186.783 285.452 187.7C286.442 188.58 287.194 189.68 287.707 191C288.257 192.32 288.532 193.878 288.532 195.675V213H282.427V196.885C282.427 194.648 281.877 192.998 280.777 191.935C279.714 190.835 278.027 190.285 275.717 190.285C273.957 190.285 272.344 190.67 270.877 191.44C269.447 192.173 268.274 193.145 267.357 194.355C266.44 195.528 265.909 196.83 265.762 198.26L265.707 195.29C265.89 193.933 266.294 192.65 266.917 191.44C267.54 190.193 268.365 189.093 269.392 188.14C270.419 187.15 271.629 186.38 273.022 185.83C274.415 185.28 275.955 185.005 277.642 185.005ZM324.755 202.385C324.535 204.732 323.784 206.748 322.5 208.435C321.217 210.122 319.494 211.405 317.33 212.285C315.204 213.165 312.747 213.605 309.96 213.605C306.954 213.605 304.222 213.055 301.765 211.955C299.345 210.855 297.42 209.242 295.99 207.115C294.56 204.988 293.845 202.403 293.845 199.36C293.845 196.317 294.56 193.732 295.99 191.605C297.42 189.478 299.345 187.847 301.765 186.71C304.222 185.573 306.954 185.005 309.96 185.005C312.747 185.005 315.204 185.463 317.33 186.38C319.457 187.26 321.162 188.525 322.445 190.175C323.729 191.825 324.48 193.823 324.7 196.17H319.09C318.467 194.227 317.33 192.723 315.68 191.66C314.067 190.56 312.16 190.01 309.96 190.01C308.164 190.01 306.514 190.377 305.01 191.11C303.507 191.807 302.297 192.852 301.38 194.245C300.5 195.602 300.06 197.307 300.06 199.36C300.06 201.377 300.5 203.082 301.38 204.475C302.297 205.868 303.507 206.913 305.01 207.61C306.514 208.27 308.164 208.6 309.96 208.6C312.38 208.6 314.36 208.068 315.9 207.005C317.477 205.905 318.559 204.365 319.145 202.385H324.755ZM353.014 203.98H358.899C358.605 205.85 357.872 207.518 356.699 208.985C355.562 210.415 354.004 211.552 352.024 212.395C350.044 213.202 347.679 213.605 344.929 213.605C341.812 213.605 339.025 213.037 336.569 211.9C334.112 210.727 332.187 209.077 330.794 206.95C329.4 204.823 328.704 202.293 328.704 199.36C328.704 196.463 329.382 193.933 330.739 191.77C332.095 189.607 333.965 187.938 336.349 186.765C338.769 185.592 341.555 185.005 344.709 185.005C347.972 185.005 350.685 185.592 352.849 186.765C355.049 187.902 356.68 189.625 357.744 191.935C358.807 194.208 359.247 197.087 359.064 200.57H334.919C335.102 202.11 335.597 203.503 336.404 204.75C337.247 205.96 338.384 206.913 339.814 207.61C341.244 208.27 342.912 208.6 344.819 208.6C346.945 208.6 348.724 208.178 350.154 207.335C351.62 206.492 352.574 205.373 353.014 203.98ZM344.544 189.955C342.05 189.955 339.997 190.578 338.384 191.825C336.77 193.035 335.725 194.593 335.249 196.5H352.904C352.757 194.447 351.932 192.852 350.429 191.715C348.925 190.542 346.964 189.955 344.544 189.955ZM363.299 203.98H368.964C369.257 205.373 370.009 206.51 371.219 207.39C372.429 208.233 374.06 208.655 376.114 208.655C377.434 208.655 378.46 208.508 379.194 208.215C379.964 207.922 380.495 207.518 380.789 207.005C381.119 206.492 381.284 205.905 381.284 205.245C381.284 204.438 381.045 203.815 380.569 203.375C380.129 202.935 379.469 202.568 378.589 202.275C377.709 201.982 376.609 201.725 375.289 201.505C373.932 201.175 372.594 200.808 371.274 200.405C369.954 200.002 368.762 199.507 367.699 198.92C366.635 198.297 365.792 197.527 365.169 196.61C364.582 195.657 364.289 194.502 364.289 193.145C364.289 191.898 364.564 190.78 365.114 189.79C365.7 188.763 366.507 187.902 367.534 187.205C368.56 186.508 369.77 185.977 371.164 185.61C372.557 185.207 374.079 185.005 375.729 185.005C378.112 185.005 380.092 185.39 381.669 186.16C383.282 186.93 384.492 188.012 385.299 189.405C386.142 190.798 386.564 192.393 386.564 194.19H381.174C380.88 192.723 380.312 191.66 379.469 191C378.625 190.34 377.36 190.01 375.674 190.01C373.987 190.01 372.704 190.303 371.824 190.89C370.944 191.477 370.504 192.283 370.504 193.31C370.504 194.08 370.779 194.703 371.329 195.18C371.915 195.62 372.74 196.005 373.804 196.335C374.867 196.665 376.114 196.995 377.544 197.325C378.864 197.692 380.11 198.077 381.284 198.48C382.457 198.847 383.502 199.323 384.419 199.91C385.372 200.46 386.124 201.193 386.674 202.11C387.224 203.027 387.499 204.163 387.499 205.52C387.499 207.207 387.04 208.655 386.124 209.865C385.244 211.075 383.96 212.01 382.274 212.67C380.587 213.293 378.552 213.605 376.169 213.605C374.079 213.605 372.264 213.367 370.724 212.89C369.22 212.413 367.955 211.79 366.929 211.02C365.939 210.25 365.169 209.425 364.619 208.545C364.069 207.665 363.684 206.822 363.464 206.015C363.28 205.208 363.225 204.53 363.299 203.98Z" fill="black"/>
<path d="M411.853 77.5275C475.196 72.0128 602.129 75.5593 534.9 130.635C450.862 199.479 235.812 131.63 351.36 86.3808C384.397 73.4431 422.481 64.9999 498.718 65" stroke="#FFBD00" stroke-width="4.59108" stroke-linecap="round"/>
</svg>
