<svg width="194" height="99" viewBox="0 0 194 99" fill="none" xmlns="http://www.w3.org/2000/svg">
<circle cx="37.7393" cy="37.1318" r="36.7861" fill="#FF823B"/>
<path d="M20.1543 24.573C20.1543 23.2405 20.6836 21.9626 21.6259 21.0204C22.5681 20.0782 23.846 19.5488 25.1785 19.5488H42.7633C44.0958 19.5488 45.3737 20.0782 46.3159 21.0204C47.2582 21.9626 47.7875 23.2405 47.7875 24.573V42.1578H55.3238V47.182C55.3238 49.1808 54.5298 51.0977 53.1165 52.511C51.7032 53.9244 49.7863 54.7184 47.7875 54.7184H27.6906C25.6919 54.7184 23.775 53.9244 22.3616 52.511C20.9483 51.0977 20.1543 49.1808 20.1543 47.182V24.573ZM47.7875 44.6699V52.2063C49.12 52.2063 50.3979 51.6769 51.3402 50.7347C52.2824 49.7925 52.8117 48.5145 52.8117 47.182V44.6699H47.7875ZM45.2754 52.2063V24.573C45.2754 23.9068 45.0107 23.2678 44.5396 22.7967C44.0685 22.3256 43.4295 22.0609 42.7633 22.0609H25.1785C24.5123 22.0609 23.8733 22.3256 23.4022 22.7967C22.9311 23.2678 22.6664 23.9068 22.6664 24.573V47.182C22.6664 48.5145 23.1957 49.7925 24.138 50.7347C25.0802 51.6769 26.3581 52.2063 27.6906 52.2063H45.2754ZM27.6906 28.3412C27.6906 28.0081 27.823 27.6886 28.0585 27.453C28.2941 27.2175 28.6136 27.0852 28.9467 27.0852H38.9951C39.3282 27.0852 39.6477 27.2175 39.8833 27.453C40.1188 27.6886 40.2512 28.0081 40.2512 28.3412C40.2512 28.6743 40.1188 28.9938 39.8833 29.2294C39.6477 29.4649 39.3282 29.5973 38.9951 29.5973H28.9467C28.6136 29.5973 28.2941 29.4649 28.0585 29.2294C27.823 28.9938 27.6906 28.6743 27.6906 28.3412ZM27.6906 35.8775C27.6906 35.5444 27.823 35.2249 28.0585 34.9894C28.2941 34.7538 28.6136 34.6215 28.9467 34.6215H38.9951C39.3282 34.6215 39.6477 34.7538 39.8833 34.9894C40.1188 35.2249 40.2512 35.5444 40.2512 35.8775C40.2512 36.2107 40.1188 36.5301 39.8833 36.7657C39.6477 37.0013 39.3282 37.1336 38.9951 37.1336H28.9467C28.6136 37.1336 28.2941 37.0013 28.0585 36.7657C27.823 36.5301 27.6906 36.2107 27.6906 35.8775ZM27.6906 43.4139C27.6906 43.0807 27.823 42.7613 28.0585 42.5257C28.2941 42.2901 28.6136 42.1578 28.9467 42.1578H33.9709C34.304 42.1578 34.6235 42.2901 34.8591 42.5257C35.0946 42.7613 35.227 43.0807 35.227 43.4139C35.227 43.747 35.0946 44.0665 34.8591 44.302C34.6235 44.5376 34.304 44.6699 33.9709 44.6699H28.9467C28.6136 44.6699 28.2941 44.5376 28.0585 44.302C27.823 44.0665 27.6906 43.747 27.6906 43.4139Z" fill="white"/>
<line x1="0.953125" y1="97.5371" x2="193.636" y2="97.5371" stroke="url(#paint0_linear_7571_73382)"/>
<defs>
<linearGradient id="paint0_linear_7571_73382" x1="0.953125" y1="98.0371" x2="193.636" y2="98.0371" gradientUnits="userSpaceOnUse">
<stop stop-color="#FF823B"/>
<stop offset="1" stop-color="#FF823B" stop-opacity="0"/>
</linearGradient>
</defs>
</svg>
