<svg width="251" height="39" viewBox="0 0 251 39" fill="none" xmlns="http://www.w3.org/2000/svg">
<rect width="222" height="39" rx="19.5" fill="#8807F7"/>
<path d="M27.42 21.568V20.536H31.596V21.568H27.42ZM25.728 23.5L28.908 15.712H30.132L33.336 23.5H32.088L29.304 16.468H29.736L26.964 23.5H25.728ZM38.1825 15.712V22.468H42.7665V23.5H37.0305V15.712H38.1825ZM47.9798 15.712V22.468H52.5638V23.5H46.8278V15.712H47.9798ZM60.0899 23.632C59.2819 23.632 58.5619 23.468 57.9299 23.14C57.3059 22.812 56.8139 22.348 56.4539 21.748C56.1019 21.148 55.9259 20.436 55.9259 19.612C55.9259 18.78 56.1019 18.064 56.4539 17.464C56.8139 16.864 57.3059 16.4 57.9299 16.072C58.5619 15.744 59.2819 15.58 60.0899 15.58C60.9059 15.58 61.6259 15.744 62.2499 16.072C62.8739 16.4 63.3659 16.864 63.7259 17.464C64.0859 18.064 64.2659 18.78 64.2659 19.612C64.2659 20.436 64.0859 21.148 63.7259 21.748C63.3659 22.348 62.8739 22.812 62.2499 23.14C61.6259 23.468 60.9059 23.632 60.0899 23.632ZM60.0899 22.588C60.6659 22.588 61.1779 22.476 61.6259 22.252C62.0739 22.028 62.4299 21.696 62.6939 21.256C62.9579 20.816 63.0899 20.268 63.0899 19.612C63.0899 18.956 62.9579 18.408 62.6939 17.968C62.4299 17.528 62.0739 17.196 61.6259 16.972C61.1779 16.74 60.6659 16.624 60.0899 16.624C59.5299 16.624 59.0219 16.74 58.5659 16.972C58.1099 17.196 57.7499 17.528 57.4859 17.968C57.2219 18.408 57.0899 18.956 57.0899 19.612C57.0899 20.268 57.2219 20.816 57.4859 21.256C57.7499 21.696 58.1099 22.028 58.5659 22.252C59.0219 22.476 59.5299 22.588 60.0899 22.588ZM70.19 23.5L67.238 15.712H68.498L71.018 22.516H70.658L73.07 15.712H74.354L76.766 22.516H76.418L78.938 15.712H80.162L77.246 23.5H75.938L73.55 16.576H73.886L71.486 23.5H70.19ZM84.0942 21.568V20.536H88.2702V21.568H84.0942ZM82.4022 23.5L85.5822 15.712H86.8062L90.0102 23.5H88.7622L85.9782 16.468H86.4102L83.6382 23.5H82.4022ZM100.293 22.228L99.9567 22.348V15.712H101.121V23.5H99.9567L94.5207 17.008L94.8567 16.888V23.5H93.7047V15.712H94.8567L100.293 22.228ZM112.969 20.836C112.897 21.42 112.697 21.92 112.369 22.336C112.049 22.752 111.629 23.072 111.109 23.296C110.589 23.52 109.997 23.632 109.333 23.632C108.733 23.632 108.181 23.54 107.677 23.356C107.181 23.172 106.749 22.908 106.381 22.564C106.013 22.22 105.725 21.8 105.517 21.304C105.309 20.8 105.205 20.236 105.205 19.612C105.205 18.98 105.309 18.416 105.517 17.92C105.725 17.424 106.013 17.004 106.381 16.66C106.749 16.308 107.181 16.04 107.677 15.856C108.181 15.672 108.733 15.58 109.333 15.58C110.005 15.58 110.601 15.696 111.121 15.928C111.641 16.152 112.061 16.476 112.381 16.9C112.709 17.316 112.909 17.816 112.981 18.4H111.877C111.773 18.024 111.601 17.704 111.361 17.44C111.121 17.176 110.829 16.976 110.485 16.84C110.141 16.696 109.757 16.624 109.333 16.624C108.789 16.624 108.293 16.74 107.845 16.972C107.397 17.204 107.037 17.54 106.765 17.98C106.501 18.42 106.369 18.964 106.369 19.612C106.369 20.252 106.501 20.796 106.765 21.244C107.037 21.684 107.397 22.02 107.845 22.252C108.293 22.476 108.789 22.588 109.333 22.588C109.757 22.588 110.137 22.52 110.473 22.384C110.817 22.248 111.109 22.048 111.349 21.784C111.589 21.52 111.765 21.204 111.877 20.836H112.969ZM118.213 20.128V22.468H123.229V23.5H117.061V15.712H123.217V16.744H118.213V19.12H122.305V20.128H118.213ZM130.349 14.716L131.333 15.064L127.817 24.7L126.857 24.34L130.349 14.716ZM141.155 20.368V15.712H142.307V20.416C142.307 20.88 142.247 21.288 142.127 21.64C142.015 21.992 141.851 22.296 141.635 22.552C141.419 22.808 141.163 23.016 140.867 23.176C140.579 23.328 140.255 23.44 139.895 23.512C139.543 23.592 139.167 23.632 138.767 23.632C138.351 23.632 137.963 23.592 137.603 23.512C137.243 23.44 136.911 23.328 136.607 23.176C136.311 23.016 136.055 22.808 135.839 22.552C135.631 22.296 135.467 21.992 135.347 21.64C135.235 21.288 135.179 20.88 135.179 20.416V15.712H136.331V20.368C136.331 20.968 136.439 21.428 136.655 21.748C136.879 22.068 137.175 22.288 137.543 22.408C137.911 22.528 138.319 22.588 138.767 22.588C139.199 22.588 139.595 22.528 139.955 22.408C140.315 22.288 140.603 22.068 140.819 21.748C141.043 21.428 141.155 20.968 141.155 20.368ZM147.659 20.812V19.804H150.455C150.919 19.804 151.291 19.664 151.571 19.384C151.859 19.104 152.003 18.736 152.003 18.28C152.003 17.808 151.859 17.436 151.571 17.164C151.291 16.892 150.919 16.756 150.455 16.756H147.851V23.5H146.699V15.712H150.407C150.791 15.712 151.147 15.768 151.475 15.88C151.811 15.984 152.103 16.144 152.351 16.36C152.607 16.576 152.803 16.844 152.939 17.164C153.083 17.484 153.155 17.856 153.155 18.28C153.155 18.696 153.083 19.064 152.939 19.384C152.803 19.704 152.607 19.972 152.351 20.188C152.103 20.396 151.811 20.552 151.475 20.656C151.147 20.76 150.791 20.812 150.407 20.812H147.659ZM159.492 19.708L159.48 19.072L164.22 23.5H162.6L158.328 19.42L162.108 15.712H163.704L159.492 19.708ZM157.176 15.712H158.328V23.5H157.176V15.712ZM169.087 20.128V22.468H174.103V23.5H167.935V15.712H174.091V16.744H169.087V19.12H173.179V20.128H169.087ZM179.446 20.128V22.468H184.462V23.5H178.294V15.712H184.45V16.744H179.446V19.12H183.538V20.128H179.446ZM189.59 20.812V19.804H192.386C192.85 19.804 193.222 19.664 193.502 19.384C193.79 19.104 193.934 18.736 193.934 18.28C193.934 17.808 193.79 17.436 193.502 17.164C193.222 16.892 192.85 16.756 192.386 16.756H189.782V23.5H188.63V15.712H192.338C192.722 15.712 193.078 15.768 193.406 15.88C193.742 15.984 194.034 16.144 194.282 16.36C194.538 16.576 194.734 16.844 194.87 17.164C195.014 17.484 195.086 17.856 195.086 18.28C195.086 18.696 195.014 19.064 194.87 19.384C194.734 19.704 194.538 19.972 194.282 20.188C194.034 20.396 193.742 20.552 193.406 20.656C193.078 20.76 192.722 20.812 192.338 20.812H189.59Z" fill="white"/>
<circle cx="243" cy="19.5" r="7.5" stroke="#8807F7"/>
<circle cx="243" cy="19.5" r="4" fill="#8807F7"/>
</svg>
