<svg width="495" height="388" viewBox="0 0 495 388" fill="none" xmlns="http://www.w3.org/2000/svg">
<g filter="url(#filter0_i_16526_65410)">
<circle cx="47.3252" cy="276.71" r="47.3252" fill="white"/>
</g>
<g clip-path="url(#clip0_16526_65410)">
<path d="M43.0366 275.284H47.326V278.144H43.0366V275.284Z" fill="#FFBD00"/>
<path d="M59.4062 271.238C56.8704 267.088 53.411 263.58 49.2975 260.986C47.3972 259.782 45.2309 259.061 42.9879 258.886C40.7448 258.712 38.4931 259.089 36.4294 259.985C34.6243 260.837 33.0536 262.115 31.8529 263.709C30.6522 265.303 29.8576 267.166 29.5378 269.136C29.4234 269.808 29.3376 270.451 29.2519 271.08C27.9132 271.297 26.6952 271.983 25.8153 273.015C24.9353 274.047 24.4506 275.358 24.4478 276.714V285.478C24.4478 286.237 24.749 286.964 25.2853 287.5C25.8216 288.037 26.5489 288.338 27.3073 288.338V276.714C27.3073 275.955 27.6086 275.228 28.1449 274.692C28.6812 274.155 29.4085 273.854 30.1669 273.854H56.9469C59.7026 273.858 62.3443 274.954 64.2928 276.903C66.2414 278.851 67.3377 281.493 67.3415 284.249V285.292H64.4819C63.8781 283.82 62.7532 282.621 61.3219 281.925C59.8907 281.229 58.2532 281.085 56.7221 281.519C55.1909 281.953 53.8733 282.936 53.0205 284.28C52.1678 285.623 51.8396 287.234 52.0987 288.804C52.3578 290.375 53.186 291.795 54.4253 292.793C55.6645 293.792 57.2281 294.299 58.8176 294.219C60.407 294.138 61.9112 293.475 63.043 292.356C64.1748 291.237 64.855 289.74 64.9538 288.152H67.3415C68.0999 288.152 68.8273 287.851 69.3635 287.314C69.8998 286.778 70.2011 286.051 70.2011 285.292V284.249C70.1953 281.163 69.1143 278.176 67.1441 275.801C65.1739 273.427 62.4377 271.813 59.4062 271.238ZM37.3159 270.995H31.4966C31.4966 270.551 31.6253 270.094 31.7111 269.565C31.9581 267.994 32.6028 266.513 33.5838 265.261C34.5648 264.01 35.8495 263.031 37.3159 262.416V270.995ZM40.1755 270.995V261.815C42.8448 261.469 45.552 262.055 47.8391 263.474C50.9614 265.419 53.6562 267.977 55.7602 270.995H40.1755ZM58.4768 291.555C57.7698 291.555 57.0787 291.345 56.4909 290.953C55.9031 290.56 55.445 290.001 55.1744 289.348C54.9039 288.695 54.8331 287.976 54.971 287.283C55.1089 286.59 55.4494 285.953 55.9493 285.453C56.4492 284.953 57.0861 284.613 57.7794 284.475C58.4728 284.337 59.1915 284.408 59.8447 284.678C60.4978 284.949 61.0561 285.407 61.4489 285.995C61.8416 286.582 62.0513 287.273 62.0513 287.98C62.0513 288.928 61.6747 289.838 61.0043 290.508C60.334 291.178 59.4248 291.555 58.4768 291.555Z" fill="#FFBD00"/>
<path d="M41.8466 285.29C41.2427 283.817 40.1178 282.619 38.6866 281.923C37.2553 281.227 35.6179 281.082 34.0867 281.516C32.5556 281.951 31.2379 282.933 30.3852 284.277C29.5324 285.621 29.2043 287.232 29.4634 288.802C29.7225 290.372 30.5507 291.792 31.7899 292.791C33.0292 293.789 34.5927 294.297 36.1822 294.216C37.7717 294.135 39.2758 293.472 40.4076 292.353C41.5394 291.234 42.2196 289.738 42.3184 288.15H49.8963V287.792C49.868 286.949 49.9644 286.105 50.1822 285.29H41.8466ZM35.8843 291.552C35.1774 291.552 34.4863 291.343 33.8985 290.95C33.3106 290.557 32.8525 289.999 32.5819 289.346C32.3114 288.693 32.2406 287.974 32.3785 287.281C32.5165 286.587 32.8569 285.95 33.3568 285.45C33.8567 284.951 34.4936 284.61 35.187 284.472C35.8804 284.334 36.5991 284.405 37.2522 284.676C37.9054 284.946 38.4636 285.404 38.8564 285.992C39.2492 286.58 39.4588 287.271 39.4588 287.978C39.4588 288.926 39.0822 289.835 38.4119 290.506C37.7415 291.176 36.8323 291.552 35.8843 291.552Z" fill="#FFBD00"/>
</g>
<g filter="url(#filter1_i_16526_65410)">
<circle cx="84.1206" cy="162.379" r="40.4419" fill="white"/>
<g clip-path="url(#clip1_16526_65410)">
<path d="M82.7168 160.344C85.4786 160.344 87.6266 158.094 87.6266 155.332C87.6266 152.57 85.3763 150.422 82.6145 150.422C79.8527 150.422 77.7046 152.673 77.7046 155.332C77.7046 158.094 79.9549 160.344 82.7168 160.344ZM82.6145 152.468C82.7168 152.468 82.7168 152.468 82.6145 152.468C84.2511 152.468 85.5808 153.798 85.5808 155.435C85.5808 157.071 84.2511 158.299 82.6145 158.299C80.9778 158.299 79.7504 156.969 79.7504 155.435C79.7504 153.798 81.0801 152.468 82.6145 152.468Z" fill="#2D79FD"/>
<path d="M82.6145 152.468C82.7168 152.468 82.7168 152.468 82.6145 152.468ZM82.6145 152.468C84.2511 152.468 85.5808 153.798 85.5808 155.435C85.5808 157.071 84.2511 158.299 82.6145 158.299C80.9778 158.299 79.7504 156.969 79.7504 155.435C79.7504 153.798 81.0801 152.468 82.6145 152.468ZM82.7168 160.344C85.4786 160.344 87.6266 158.094 87.6266 155.332C87.6266 152.57 85.3763 150.422 82.6145 150.422C79.8527 150.422 77.7046 152.673 77.7046 155.332C77.7046 158.094 79.9549 160.344 82.7168 160.344Z" stroke="#2D79FD" stroke-width="0.550329"/>
<path d="M97.8567 159.734C95.9132 157.995 93.3559 157.074 90.6964 157.177H89.8781C89.6735 157.995 89.3667 158.711 88.9575 159.325C89.5713 159.222 90.0827 159.222 90.6964 159.222C92.6399 159.12 94.5834 159.734 96.1178 160.859V168.224H98.1635V160.041L97.8567 159.734Z" fill="#2D79FD" stroke="#2D79FD" stroke-width="0.550329"/>
<path d="M88.3407 150.629C88.8522 149.401 90.2842 148.788 91.614 149.299C92.8415 149.811 93.4552 151.243 92.9437 152.572C92.5346 153.493 91.614 154.107 90.6934 154.107C90.4888 154.107 90.1819 154.107 89.9774 154.004C90.0797 154.516 90.0797 155.027 90.0797 155.437V156.05C90.2842 156.05 90.4888 156.153 90.6934 156.153C93.2506 156.153 95.2964 154.107 95.2964 151.652C95.2964 149.095 93.2506 147.049 90.7957 147.049C89.159 147.049 87.727 147.867 86.9087 149.299C87.4201 149.606 87.9316 150.015 88.3407 150.629Z" fill="#2D79FD" stroke="#2D79FD" stroke-width="0.550329"/>
<path d="M76.6811 159.425C76.272 158.812 75.9651 158.096 75.7605 157.277H74.9422C72.2827 157.175 69.7255 158.096 67.782 159.732L67.4751 160.039V168.222H69.5209V160.857C71.1575 159.732 72.9987 159.118 74.9422 159.221C75.5559 159.221 76.1697 159.323 76.6811 159.425Z" fill="#2D79FD" stroke="#2D79FD" stroke-width="0.550329"/>
<path d="M74.9403 156.048C75.1449 156.048 75.3495 156.048 75.5541 155.946V155.332C75.5541 154.821 75.5541 154.31 75.6564 153.9C75.4518 154.003 75.1449 154.003 74.9403 154.003C73.6106 154.003 72.4854 152.878 72.4854 151.548C72.4854 150.218 73.6106 149.093 74.9403 149.093C75.9632 149.093 76.8838 149.707 77.293 150.627C77.7021 150.116 78.3159 149.604 78.8273 149.195C77.4976 147.047 74.7358 146.331 72.5877 147.661C70.4396 148.991 69.7236 151.752 71.0534 153.9C71.8717 155.23 73.3037 156.048 74.9403 156.048Z" fill="#2D79FD" stroke="#2D79FD" stroke-width="0.550329"/>
<path d="M91.1043 165.87L90.8997 165.563C88.8539 163.313 85.9898 161.983 82.9212 162.086C79.8525 161.983 76.8861 163.313 74.8403 165.563L74.6357 165.87V173.644C74.6357 174.565 75.3518 175.383 76.3747 175.383H89.4677C90.3883 175.383 91.2066 174.565 91.2066 173.644V165.87H91.1043ZM89.0585 173.337H76.6815V166.586C78.3181 164.95 80.5685 164.131 82.9212 164.131C85.1715 164.029 87.4219 164.95 89.0585 166.586V173.337Z" fill="#2D79FD" stroke="#2D79FD" stroke-width="0.550329"/>
</g>
</g>
<g filter="url(#filter2_i_16526_65410)">
<circle cx="49.6615" cy="49.3002" r="41.8002" fill="white"/>
<g clip-path="url(#clip2_16526_65410)">
<path d="M50.2784 36.6777L49.8467 36.8088L32.6043 42.5857L28.6841 43.8782L30.967 44.6092V56.6789C30.1435 57.1575 29.5876 58.0307 29.5876 59.0514C29.5876 59.7831 29.8782 60.4848 30.3956 61.0022C30.913 61.5196 31.6147 61.8102 32.3464 61.8102C33.078 61.8102 33.7797 61.5196 34.2971 61.0022C34.8145 60.4848 35.1051 59.7831 35.1051 59.0514C35.1051 58.0307 34.5493 57.1575 33.7258 56.6789V45.561L36.4845 46.4645V53.5339C36.4845 54.665 37.1742 55.603 37.9936 56.2513C38.8129 56.8955 39.8309 57.3507 41.0531 57.759C43.5001 58.5728 46.7251 59.0514 50.2784 59.0514C53.8318 59.0514 57.0568 58.5742 59.5038 57.7576C60.7259 57.3507 61.7439 56.8955 62.5633 56.2499C63.3827 55.603 64.0723 54.665 64.0723 53.5339V46.4645L67.9526 45.1706L71.8728 43.8782L67.9512 42.5843L50.7088 36.8088L50.2784 36.6777ZM50.2784 39.5676L63.2102 43.8782L50.2784 48.1887L37.3467 43.8782L50.2784 39.5676ZM39.2433 47.4135L49.8481 50.9475L50.2784 51.0772L50.7102 50.9462L61.3136 47.4122V53.5339C61.3136 53.5477 61.3191 53.7077 60.8818 54.0512C60.4459 54.396 59.6638 54.8305 58.6403 55.1726C56.5961 55.8526 53.5821 56.2927 50.2784 56.2927C46.9748 56.2927 43.9608 55.854 41.9152 55.1712C40.8944 54.8305 40.111 54.3946 39.6751 54.0512C39.2364 53.7063 39.2433 53.5477 39.2433 53.5339V47.4135Z" fill="#23A323"/>
</g>
</g>
<g filter="url(#filter3_i_16526_65410)">
<circle cx="208.962" cy="164.922" r="46.4794" fill="white"/>
<path d="M197.32 176.562L191.668 173.453C191.253 173.227 191.018 172.898 190.962 172.465C190.906 172.033 191.029 171.665 191.328 171.362L192.007 170.684C192.157 170.533 192.337 170.429 192.545 170.372C192.753 170.315 192.95 170.305 193.137 170.345L198.111 171.023L206.929 162.205L191.555 153.84C190.989 153.539 190.66 153.068 190.567 152.427C190.473 151.786 190.652 151.24 191.102 150.788L191.668 150.223C191.931 149.959 192.224 149.789 192.545 149.714C192.866 149.639 193.195 149.639 193.533 149.714L214.051 154.971L222.868 146.266C223.509 145.625 224.3 145.305 225.242 145.305C226.184 145.305 226.975 145.625 227.616 146.266C228.257 146.907 228.577 147.698 228.577 148.64C228.577 149.582 228.257 150.373 227.616 151.014L218.911 159.831L224.168 180.236C224.243 180.613 224.234 180.981 224.139 181.339C224.044 181.698 223.865 182.009 223.603 182.271L223.32 182.554C222.793 183.081 222.18 183.288 221.482 183.175C220.784 183.062 220.267 182.685 219.929 182.045L211.677 166.953L202.859 175.771L203.537 180.632C203.575 180.896 203.556 181.14 203.481 181.367C203.405 181.593 203.274 181.8 203.085 181.988L202.803 182.271C202.426 182.648 201.974 182.807 201.446 182.75C200.918 182.693 200.523 182.42 200.259 181.932L197.32 176.562Z" fill="#2D79FD"/>
</g>
<g filter="url(#filter4_i_16526_65410)">
<circle cx="184.081" cy="48.0396" r="47.3252" fill="white"/>
<path fill-rule="evenodd" clip-rule="evenodd" d="M176.704 30.1675C175.38 30.1675 174.472 30.1675 173.662 30.3874C172.823 30.6175 172.042 31.0214 171.37 31.5729C170.698 32.1244 170.149 32.8111 169.76 33.5884C169.384 34.3358 169.207 35.227 168.948 36.5266L167.923 41.649C167.741 42.5469 167.759 43.4738 167.974 44.3642C168.189 45.2546 168.597 46.087 169.169 46.8027V51.3414C169.169 54.3804 169.169 56.7878 169.422 58.6711C169.684 60.6089 170.232 62.178 171.469 63.4165C172.706 64.6532 174.275 65.2022 176.215 65.4634C178.098 65.7164 180.505 65.7164 183.543 65.7164H185.383C188.422 65.7164 190.829 65.7164 192.713 65.4634C194.65 65.2022 196.22 64.6532 197.458 63.4165C198.695 62.178 199.244 60.6089 199.505 58.6711C199.758 56.7862 199.758 54.3804 199.758 51.3414V46.8044C200.33 46.0883 200.738 45.2556 200.953 44.3649C201.168 43.4741 201.185 42.547 201.003 41.649L199.978 36.5266C199.72 35.227 199.541 34.3358 199.168 33.5884C198.778 32.8109 198.229 32.1241 197.556 31.5726C196.884 31.0211 196.103 30.6173 195.264 30.3874C194.455 30.1675 193.548 30.1675 192.222 30.1675H176.704ZM194.827 49.182C195.669 49.1835 196.502 49.016 197.278 48.6893V51.2488C197.278 54.4019 197.274 56.6423 197.046 58.3421C196.823 60.0038 196.403 60.9628 195.704 61.6622C195.004 62.3616 194.045 62.7815 192.38 63.0048C191.536 63.1095 190.688 63.1724 189.837 63.1933V58.6364C189.837 57.9089 189.837 57.2806 189.791 56.768C189.741 56.2224 189.632 55.6833 189.338 55.1757C189.012 54.61 188.542 54.1401 187.977 53.8133C187.47 53.5206 186.931 53.4115 186.385 53.3619C185.872 53.3156 185.244 53.3156 184.517 53.3156H184.409C183.682 53.3156 183.055 53.3156 182.541 53.3619C181.995 53.4115 181.458 53.5206 180.95 53.8133C180.384 54.1399 179.914 54.6098 179.588 55.1757C179.295 55.6833 179.186 56.2224 179.136 56.7663C179.09 57.2822 179.09 57.9089 179.09 58.6347V63.1933C178.239 63.1725 177.389 63.1096 176.544 63.0048C174.882 62.7815 173.923 62.3616 173.224 61.6622C172.522 60.9628 172.104 60.0038 171.881 58.3404C171.651 56.6423 171.649 54.4019 171.649 51.2488V48.6893C172.971 49.2475 174.443 49.3378 175.823 48.9451C177.202 48.5524 178.406 47.7003 179.235 46.5299C179.836 47.3528 180.623 48.0221 181.531 48.483C182.44 48.9439 183.445 49.1834 184.464 49.182C185.482 49.1834 186.487 48.9439 187.396 48.483C188.304 48.0221 189.091 47.3528 189.692 46.5299C190.274 47.35 191.044 48.0188 191.937 48.4803C192.831 48.9417 193.822 49.1823 194.827 49.182ZM181.57 63.2329C182.212 63.2362 182.899 63.2362 183.637 63.2362H185.29C186.028 63.2362 186.714 63.2362 187.357 63.2329V58.6893C187.357 57.894 187.355 57.3798 187.321 56.9912C187.288 56.6192 187.23 56.4836 187.19 56.4158C187.081 56.2277 186.925 56.0715 186.737 55.9628C186.669 55.9231 186.534 55.8669 186.162 55.8321C185.596 55.7974 185.03 55.7852 184.464 55.7958C183.668 55.7958 183.154 55.7958 182.766 55.8321C182.392 55.8652 182.258 55.9231 182.19 55.9628C182.001 56.0713 181.845 56.2275 181.735 56.4158C181.697 56.4819 181.64 56.6192 181.606 56.9912C181.572 57.3798 181.57 57.894 181.57 58.6893V63.2329ZM178.958 32.6476H176.888C175.31 32.6476 174.763 32.6592 174.32 32.7799C173.817 32.9179 173.348 33.1601 172.945 33.4908C172.542 33.8215 172.212 34.2333 171.979 34.6996C171.772 35.1113 171.654 35.6437 171.345 37.1913L170.356 42.1351C170.251 42.6437 170.251 43.1686 170.355 43.6774C170.459 44.1863 170.666 44.6685 170.964 45.0946C171.261 45.5207 171.642 45.8817 172.083 46.1556C172.525 46.4294 173.017 46.6103 173.531 46.6872C174.045 46.7641 174.569 46.7354 175.071 46.6029C175.573 46.4703 176.043 46.2367 176.452 45.9163C176.861 45.596 177.2 45.1955 177.449 44.7395C177.698 44.2836 177.851 43.7816 177.899 43.2644L178.014 42.1301L178.02 42.0607L178.961 32.6476H178.958ZM180.48 42.3616L181.453 32.6476H187.475L188.44 42.307C188.494 42.8597 188.433 43.4176 188.259 43.9452C188.086 44.4727 187.804 44.9583 187.432 45.3709C187.061 45.7836 186.607 46.1142 186.101 46.3418C185.594 46.5694 185.046 46.6889 184.49 46.6927C183.935 46.6965 183.385 46.5845 182.875 46.3639C182.366 46.1433 181.908 45.8189 181.53 45.4114C181.153 45.0039 180.865 44.5222 180.684 43.9971C180.503 43.472 180.434 42.915 180.48 42.3616ZM194.607 32.7799C194.164 32.6592 193.617 32.6476 192.04 32.6476H189.966L191.029 43.2627C191.079 43.7785 191.233 44.2787 191.483 44.7329C191.732 45.1871 192.071 45.5858 192.48 45.9047C192.888 46.2237 193.357 46.4562 193.858 46.588C194.359 46.7199 194.882 46.7484 195.394 46.6717C195.907 46.5951 196.398 46.415 196.839 46.1423C197.279 45.8697 197.66 45.5102 197.957 45.0857C198.254 44.6613 198.462 44.1808 198.567 43.6735C198.673 43.1663 198.674 42.6428 198.571 42.1351L197.584 37.1913C197.273 35.6437 197.155 35.1113 196.95 34.6996C196.716 34.2332 196.387 33.8212 195.983 33.4905C195.579 33.1598 195.111 32.9177 194.607 32.7799Z" fill="#FFBD00" stroke="#FFBD00" stroke-width="0.640071"/>
</g>
<g filter="url(#filter5_i_16526_65410)">
<circle cx="181.882" cy="288.968" r="46.4794" fill="white"/>
<path d="M164.207 306.366C163.115 306.366 162.18 305.977 161.402 305.199C160.623 304.42 160.235 303.486 160.236 302.395V280.557C160.236 279.465 160.625 278.53 161.404 277.752C162.182 276.974 163.116 276.585 164.207 276.587H172.148V272.616C172.148 271.524 172.537 270.589 173.315 269.811C174.094 269.033 175.028 268.644 176.119 268.646H184.06C185.152 268.646 186.087 269.035 186.865 269.813C187.643 270.591 188.032 271.525 188.03 272.616V276.587H195.971C197.063 276.587 197.998 276.976 198.777 277.754C199.555 278.532 199.943 279.467 199.942 280.557V302.395C199.942 303.487 199.553 304.422 198.775 305.201C197.996 305.979 197.062 306.367 195.971 306.366H164.207ZM176.119 276.587H184.06V272.616H176.119V276.587ZM195.971 294.454H186.045V298.425H174.133V294.454H164.207V302.395H195.971V294.454ZM178.104 294.454H182.074V290.484H178.104V294.454ZM164.207 290.484H174.133V286.513H186.045V290.484H195.971V280.557H164.207V290.484Z" fill="#2D79FD"/>
</g>
<g filter="url(#filter6_i_16526_65410)">
<circle cx="324.965" cy="60.7888" r="53.2873" fill="white"/>
<path d="M345.917 50.7443L329.36 35.1151L329.327 35.084C328.566 34.3877 327.572 34.0015 326.541 34.0015C325.509 34.0015 324.515 34.3877 323.754 35.084L323.719 35.1151L307.166 50.7443C306.746 51.1327 306.411 51.6035 306.182 52.1273C305.952 52.6511 305.833 53.2167 305.833 53.7885V72.9342C305.833 74.0327 306.269 75.0861 307.046 75.8629C307.822 76.6396 308.876 77.076 309.974 77.076H319.915C321.013 77.076 322.067 76.6396 322.843 75.8629C323.62 75.0861 324.057 74.0327 324.057 72.9342V63.8221H329.027V72.9342C329.027 74.0327 329.463 75.0861 330.24 75.8629C331.017 76.6396 332.07 77.076 333.169 77.076H343.109C344.208 77.076 345.261 76.6396 346.038 75.8629C346.815 75.0861 347.251 74.0327 347.251 72.9342V53.7885C347.25 53.2167 347.131 52.6511 346.902 52.1273C346.672 51.6035 346.337 51.1327 345.917 50.7443ZM342.281 72.1058H333.997V62.9938C333.997 62.4499 333.89 61.9113 333.682 61.4088C333.474 60.9062 333.168 60.4497 332.784 60.065C332.399 59.6804 331.943 59.3754 331.44 59.1672C330.938 58.9591 330.399 58.8519 329.855 58.8519H323.228C322.13 58.8519 321.076 59.2883 320.3 60.065C319.523 60.8418 319.086 61.8953 319.086 62.9938V72.1058H310.803V54.1468L326.542 39.288L342.281 54.1468V72.1058Z" fill="#FF823B"/>
</g>
<g filter="url(#filter7_i_16526_65410)">
<circle cx="324.965" cy="198.309" r="53.2873" fill="white"/>
<path d="M325.155 187.965C323.146 187.965 321.182 188.56 319.511 189.677C317.84 190.793 316.538 192.38 315.769 194.236C315 196.092 314.799 198.135 315.191 200.106C315.583 202.076 316.551 203.887 317.971 205.307C319.392 206.728 321.202 207.696 323.173 208.088C325.144 208.48 327.186 208.278 329.043 207.509C330.899 206.741 332.486 205.438 333.602 203.768C334.718 202.097 335.314 200.133 335.314 198.124C335.314 195.429 334.244 192.845 332.338 190.94C330.433 189.035 327.849 187.965 325.155 187.965ZM325.155 204.219C323.949 204.219 322.771 203.862 321.768 203.192C320.766 202.522 319.985 201.57 319.523 200.456C319.062 199.343 318.941 198.117 319.177 196.935C319.412 195.752 319.992 194.666 320.845 193.814C321.697 192.961 322.783 192.381 323.966 192.145C325.148 191.91 326.374 192.031 327.488 192.492C328.601 192.954 329.553 193.735 330.223 194.737C330.893 195.74 331.25 196.918 331.25 198.124C331.25 199.74 330.608 201.291 329.465 202.434C328.322 203.577 326.772 204.219 325.155 204.219ZM353.6 179.837H296.71C296.171 179.837 295.654 180.051 295.273 180.433C294.892 180.814 294.678 181.33 294.678 181.869V214.378C294.678 214.917 294.892 215.434 295.273 215.815C295.654 216.196 296.171 216.41 296.71 216.41H353.6C354.139 216.41 354.656 216.196 355.037 215.815C355.418 215.434 355.632 214.917 355.632 214.378V181.869C355.632 181.33 355.418 180.814 355.037 180.433C354.656 180.051 354.139 179.837 353.6 179.837ZM341.829 212.346H308.481C307.799 210.039 306.551 207.94 304.849 206.238C303.148 204.537 301.048 203.289 298.741 202.606V193.641C301.048 192.959 303.148 191.71 304.849 190.009C306.551 188.308 307.799 186.208 308.481 183.901H341.829C342.511 186.208 343.759 188.308 345.46 190.009C347.162 191.71 349.261 192.959 351.569 193.641V202.606C349.261 203.289 347.162 204.537 345.46 206.238C343.759 207.94 342.511 210.039 341.829 212.346ZM351.569 189.329C349.131 188.281 347.189 186.338 346.141 183.901H351.569V189.329ZM304.169 183.901C303.121 186.338 301.178 188.281 298.741 189.329V183.901H304.169ZM298.741 206.919C301.178 207.967 303.121 209.909 304.169 212.346H298.741V206.919ZM346.141 212.346C347.189 209.909 349.131 207.967 351.569 206.919V212.346H346.141Z" fill="#23A323"/>
</g>
<g filter="url(#filter8_i_16526_65410)">
<circle cx="305.746" cy="334.213" r="53.2873" fill="white"/>
<path d="M286.364 324.494H281.503V348.797H325.249V324.494H321.604M311.882 322.064C312.833 322.614 313.648 323.371 314.265 324.28C314.882 325.189 315.286 326.226 315.446 327.313C315.606 328.4 315.518 329.509 315.189 330.558C314.86 331.606 314.299 332.566 313.547 333.367C312.794 334.168 311.871 334.788 310.845 335.182C309.819 335.576 308.718 335.733 307.623 335.641C306.528 335.549 305.468 335.211 304.522 334.652C303.577 334.092 302.769 333.327 302.161 332.412M305.807 319.633C305.807 321.567 305.038 323.421 303.671 324.789C302.304 326.156 300.449 326.924 298.516 326.924C296.582 326.924 294.727 326.156 293.36 324.789C291.993 323.421 291.225 321.567 291.225 319.633C291.225 317.7 291.993 315.845 293.36 314.478C294.727 313.11 296.582 312.342 298.516 312.342C300.449 312.342 302.304 313.11 303.671 314.478C305.038 315.845 305.807 317.7 305.807 319.633Z" stroke="#FF823B" stroke-width="4.86063" stroke-linecap="round" stroke-linejoin="round"/>
</g>
<g filter="url(#filter9_i_16526_65410)">
<circle cx="441.149" cy="117.569" r="53.2873" fill="white"/>
<path d="M421.114 118.564C421.114 110.563 421.114 106.561 423.601 104.077C426.085 101.59 430.087 101.59 438.088 101.59H446.576C454.577 101.59 458.579 101.59 461.063 104.077C463.55 106.561 463.55 110.563 463.55 118.564C463.55 126.566 463.55 130.567 461.063 133.052C458.579 135.539 454.577 135.539 446.576 135.539H438.088C430.087 135.539 426.085 135.539 423.601 133.052C421.114 130.567 421.114 126.566 421.114 118.564Z" stroke="#228B22" stroke-width="3.18272"/>
<path d="M438.088 127.051H429.601M446.576 127.051H443.393M421.114 114.32H463.55" stroke="#228B22" stroke-width="3.18272" stroke-linecap="round"/>
</g>
<g filter="url(#filter10_i_16526_65410)">
<circle cx="431.54" cy="287.04" r="53.2873" fill="white"/>
<path d="M445.249 282.468C445.249 281.862 445.008 281.281 444.579 280.853C444.151 280.424 443.57 280.183 442.964 280.183H416.48L421.735 274.95C422.166 274.52 422.407 273.937 422.407 273.328C422.407 272.72 422.166 272.136 421.735 271.706C421.305 271.275 420.722 271.034 420.113 271.034C419.505 271.034 418.921 271.275 418.491 271.706L409.35 280.846C409.033 281.167 408.819 281.575 408.733 282.019C408.648 282.462 408.696 282.92 408.871 283.337C409.042 283.754 409.333 284.111 409.707 284.363C410.081 284.615 410.522 284.751 410.973 284.753H442.964C443.57 284.753 444.151 284.513 444.579 284.084C445.008 283.656 445.249 283.074 445.249 282.468ZM454.206 290.74C454.035 290.323 453.743 289.966 453.369 289.714C452.995 289.461 452.555 289.326 452.104 289.323H420.113C419.507 289.323 418.926 289.564 418.497 289.993C418.069 290.421 417.828 291.002 417.828 291.609C417.828 292.215 418.069 292.796 418.497 293.224C418.926 293.653 419.507 293.894 420.113 293.894H446.597L441.341 299.126C441.127 299.339 440.957 299.591 440.841 299.87C440.725 300.148 440.665 300.447 440.665 300.749C440.665 301.05 440.725 301.349 440.841 301.628C440.957 301.906 441.127 302.159 441.341 302.371C441.554 302.585 441.806 302.755 442.085 302.871C442.363 302.987 442.662 303.047 442.964 303.047C443.265 303.047 443.564 302.987 443.842 302.871C444.121 302.755 444.374 302.585 444.586 302.371L453.726 293.231C454.043 292.91 454.258 292.502 454.343 292.058C454.429 291.615 454.381 291.156 454.206 290.74Z" fill="#FF823B"/>
</g>
<defs>
<filter id="filter0_i_16526_65410" x="0" y="229.385" width="102.512" height="102.512" filterUnits="userSpaceOnUse" color-interpolation-filters="sRGB">
<feFlood flood-opacity="0" result="BackgroundImageFix"/>
<feBlend mode="normal" in="SourceGraphic" in2="BackgroundImageFix" result="shape"/>
<feColorMatrix in="SourceAlpha" type="matrix" values="0 0 0 0 0 0 0 0 0 0 0 0 0 0 0 0 0 0 127 0" result="hardAlpha"/>
<feOffset dx="7.86206" dy="7.86206"/>
<feGaussianBlur stdDeviation="6.11494"/>
<feComposite in2="hardAlpha" operator="arithmetic" k2="-1" k3="1"/>
<feColorMatrix type="matrix" values="0 0 0 0 0 0 0 0 0 0 0 0 0 0 0 0 0 0 0.12 0"/>
<feBlend mode="normal" in2="shape" result="effect1_innerShadow_16526_65410"/>
</filter>
<filter id="filter1_i_16526_65410" x="43.6777" y="121.937" width="88.7468" height="88.7458" filterUnits="userSpaceOnUse" color-interpolation-filters="sRGB">
<feFlood flood-opacity="0" result="BackgroundImageFix"/>
<feBlend mode="normal" in="SourceGraphic" in2="BackgroundImageFix" result="shape"/>
<feColorMatrix in="SourceAlpha" type="matrix" values="0 0 0 0 0 0 0 0 0 0 0 0 0 0 0 0 0 0 127 0" result="hardAlpha"/>
<feOffset dx="7.86206" dy="7.86206"/>
<feGaussianBlur stdDeviation="6.11494"/>
<feComposite in2="hardAlpha" operator="arithmetic" k2="-1" k3="1"/>
<feColorMatrix type="matrix" values="0 0 0 0 0 0 0 0 0 0 0 0 0 0 0 0 0 0 0.25 0"/>
<feBlend mode="normal" in2="shape" result="effect1_innerShadow_16526_65410"/>
</filter>
<filter id="filter2_i_16526_65410" x="7.86133" y="7.5" width="91.4626" height="91.4626" filterUnits="userSpaceOnUse" color-interpolation-filters="sRGB">
<feFlood flood-opacity="0" result="BackgroundImageFix"/>
<feBlend mode="normal" in="SourceGraphic" in2="BackgroundImageFix" result="shape"/>
<feColorMatrix in="SourceAlpha" type="matrix" values="0 0 0 0 0 0 0 0 0 0 0 0 0 0 0 0 0 0 127 0" result="hardAlpha"/>
<feOffset dx="7.86206" dy="7.86206"/>
<feGaussianBlur stdDeviation="6.11494"/>
<feComposite in2="hardAlpha" operator="arithmetic" k2="-1" k3="1"/>
<feColorMatrix type="matrix" values="0 0 0 0 0 0 0 0 0 0 0 0 0 0 0 0 0 0 0.25 0"/>
<feBlend mode="normal" in2="shape" result="effect1_innerShadow_16526_65410"/>
</filter>
<filter id="filter3_i_16526_65410" x="162.482" y="118.443" width="103.954" height="100.821" filterUnits="userSpaceOnUse" color-interpolation-filters="sRGB">
<feFlood flood-opacity="0" result="BackgroundImageFix"/>
<feBlend mode="normal" in="SourceGraphic" in2="BackgroundImageFix" result="shape"/>
<feColorMatrix in="SourceAlpha" type="matrix" values="0 0 0 0 0 0 0 0 0 0 0 0 0 0 0 0 0 0 127 0" result="hardAlpha"/>
<feOffset dx="7.86206" dy="7.86206"/>
<feGaussianBlur stdDeviation="6.11494"/>
<feComposite in2="hardAlpha" operator="arithmetic" k2="-1" k3="1"/>
<feColorMatrix type="matrix" values="0 0 0 0 0 0 0 0 0 0 0 0 0 0 0 0 0 0 0.25 0"/>
<feBlend mode="normal" in2="shape" result="effect1_innerShadow_16526_65410"/>
</filter>
<filter id="filter4_i_16526_65410" x="136.275" y="0.714355" width="103.954" height="102.512" filterUnits="userSpaceOnUse" color-interpolation-filters="sRGB">
<feFlood flood-opacity="0" result="BackgroundImageFix"/>
<feBlend mode="normal" in="SourceGraphic" in2="BackgroundImageFix" result="shape"/>
<feColorMatrix in="SourceAlpha" type="matrix" values="0 0 0 0 0 0 0 0 0 0 0 0 0 0 0 0 0 0 127 0" result="hardAlpha"/>
<feOffset dx="7.86206" dy="7.86206"/>
<feGaussianBlur stdDeviation="6.11494"/>
<feComposite in2="hardAlpha" operator="arithmetic" k2="-1" k3="1"/>
<feColorMatrix type="matrix" values="0 0 0 0 0 0 0 0 0 0 0 0 0 0 0 0 0 0 0.25 0"/>
<feBlend mode="normal" in2="shape" result="effect1_innerShadow_16526_65410"/>
</filter>
<filter id="filter5_i_16526_65410" x="135.402" y="242.489" width="103.954" height="100.821" filterUnits="userSpaceOnUse" color-interpolation-filters="sRGB">
<feFlood flood-opacity="0" result="BackgroundImageFix"/>
<feBlend mode="normal" in="SourceGraphic" in2="BackgroundImageFix" result="shape"/>
<feColorMatrix in="SourceAlpha" type="matrix" values="0 0 0 0 0 0 0 0 0 0 0 0 0 0 0 0 0 0 127 0" result="hardAlpha"/>
<feOffset dx="7.86206" dy="7.86206"/>
<feGaussianBlur stdDeviation="6.11494"/>
<feComposite in2="hardAlpha" operator="arithmetic" k2="-1" k3="1"/>
<feColorMatrix type="matrix" values="0 0 0 0 0 0 0 0 0 0 0 0 0 0 0 0 0 0 0.25 0"/>
<feBlend mode="normal" in2="shape" result="effect1_innerShadow_16526_65410"/>
</filter>
<filter id="filter6_i_16526_65410" x="271.678" y="7.50049" width="114.437" height="114.438" filterUnits="userSpaceOnUse" color-interpolation-filters="sRGB">
<feFlood flood-opacity="0" result="BackgroundImageFix"/>
<feBlend mode="normal" in="SourceGraphic" in2="BackgroundImageFix" result="shape"/>
<feColorMatrix in="SourceAlpha" type="matrix" values="0 0 0 0 0 0 0 0 0 0 0 0 0 0 0 0 0 0 127 0" result="hardAlpha"/>
<feOffset dx="7.86206" dy="7.86206"/>
<feGaussianBlur stdDeviation="6.11494"/>
<feComposite in2="hardAlpha" operator="arithmetic" k2="-1" k3="1"/>
<feColorMatrix type="matrix" values="0 0 0 0 0 0 0 0 0 0 0 0 0 0 0 0 0 0 0.25 0"/>
<feBlend mode="normal" in2="shape" result="effect1_innerShadow_16526_65410"/>
</filter>
<filter id="filter7_i_16526_65410" x="271.678" y="145.021" width="114.437" height="114.437" filterUnits="userSpaceOnUse" color-interpolation-filters="sRGB">
<feFlood flood-opacity="0" result="BackgroundImageFix"/>
<feBlend mode="normal" in="SourceGraphic" in2="BackgroundImageFix" result="shape"/>
<feColorMatrix in="SourceAlpha" type="matrix" values="0 0 0 0 0 0 0 0 0 0 0 0 0 0 0 0 0 0 127 0" result="hardAlpha"/>
<feOffset dx="7.86206" dy="7.86206"/>
<feGaussianBlur stdDeviation="6.11494"/>
<feComposite in2="hardAlpha" operator="arithmetic" k2="-1" k3="1"/>
<feColorMatrix type="matrix" values="0 0 0 0 0 0 0 0 0 0 0 0 0 0 0 0 0 0 0.25 0"/>
<feBlend mode="normal" in2="shape" result="effect1_innerShadow_16526_65410"/>
</filter>
<filter id="filter8_i_16526_65410" x="252.458" y="280.925" width="114.437" height="114.437" filterUnits="userSpaceOnUse" color-interpolation-filters="sRGB">
<feFlood flood-opacity="0" result="BackgroundImageFix"/>
<feBlend mode="normal" in="SourceGraphic" in2="BackgroundImageFix" result="shape"/>
<feColorMatrix in="SourceAlpha" type="matrix" values="0 0 0 0 0 0 0 0 0 0 0 0 0 0 0 0 0 0 127 0" result="hardAlpha"/>
<feOffset dx="7.86206" dy="7.86206"/>
<feGaussianBlur stdDeviation="6.11494"/>
<feComposite in2="hardAlpha" operator="arithmetic" k2="-1" k3="1"/>
<feColorMatrix type="matrix" values="0 0 0 0 0 0 0 0 0 0 0 0 0 0 0 0 0 0 0.25 0"/>
<feBlend mode="normal" in2="shape" result="effect1_innerShadow_16526_65410"/>
</filter>
<filter id="filter9_i_16526_65410" x="387.861" y="64.2817" width="114.437" height="114.437" filterUnits="userSpaceOnUse" color-interpolation-filters="sRGB">
<feFlood flood-opacity="0" result="BackgroundImageFix"/>
<feBlend mode="normal" in="SourceGraphic" in2="BackgroundImageFix" result="shape"/>
<feColorMatrix in="SourceAlpha" type="matrix" values="0 0 0 0 0 0 0 0 0 0 0 0 0 0 0 0 0 0 127 0" result="hardAlpha"/>
<feOffset dx="7.86206" dy="7.86206"/>
<feGaussianBlur stdDeviation="6.11494"/>
<feComposite in2="hardAlpha" operator="arithmetic" k2="-1" k3="1"/>
<feColorMatrix type="matrix" values="0 0 0 0 0 0 0 0 0 0 0 0 0 0 0 0 0 0 0.25 0"/>
<feBlend mode="normal" in2="shape" result="effect1_innerShadow_16526_65410"/>
</filter>
<filter id="filter10_i_16526_65410" x="378.252" y="233.753" width="114.437" height="114.437" filterUnits="userSpaceOnUse" color-interpolation-filters="sRGB">
<feFlood flood-opacity="0" result="BackgroundImageFix"/>
<feBlend mode="normal" in="SourceGraphic" in2="BackgroundImageFix" result="shape"/>
<feColorMatrix in="SourceAlpha" type="matrix" values="0 0 0 0 0 0 0 0 0 0 0 0 0 0 0 0 0 0 127 0" result="hardAlpha"/>
<feOffset dx="7.86206" dy="7.86206"/>
<feGaussianBlur stdDeviation="6.11494"/>
<feComposite in2="hardAlpha" operator="arithmetic" k2="-1" k3="1"/>
<feColorMatrix type="matrix" values="0 0 0 0 0 0 0 0 0 0 0 0 0 0 0 0 0 0 0.25 0"/>
<feBlend mode="normal" in2="shape" result="effect1_innerShadow_16526_65410"/>
</filter>
<clipPath id="clip0_16526_65410">
<rect width="51.4725" height="51.4725" fill="white" transform="translate(21.5859 250.975)"/>
</clipPath>
<clipPath id="clip1_16526_65410">
<rect width="36.8241" height="36.8241" fill="white" transform="translate(64.4062 142.649)"/>
</clipPath>
<clipPath id="clip2_16526_65410">
<rect width="44.1405" height="44.1405" fill="white" transform="translate(28.2109 25.9448)"/>
</clipPath>
</defs>
</svg>
