<svg width="1439" height="785" viewBox="0 0 1439 785" fill="none" xmlns="http://www.w3.org/2000/svg">
<rect y="0.142578" width="1440" height="784.857" fill="#FFFBF0"/>
<path d="M145.5 419L165.998 435.88C168.712 438.116 168.556 442.322 165.683 444.35L151.941 454.05C148.858 456.226 148.951 460.83 152.119 462.88L165.036 471.237C168.132 473.241 168.307 477.707 165.378 479.947L151.262 490.741C148.404 492.926 148.487 497.256 151.426 499.33L165.683 509.394C168.556 511.422 168.712 515.628 165.998 517.864L150.892 530.303C148.178 532.539 148.334 536.745 151.207 538.773L164.949 548.473C168.032 550.649 167.939 555.252 164.771 557.303L152.75 565.081C149.421 567.235 149.526 572.14 152.943 574.15L163.947 580.623C167.365 582.633 167.469 587.539 164.14 589.693L145.5 601.754" stroke="#FFBD00" stroke-width="0.761475" stroke-linecap="round"/>
<path d="M154.638 419L175.135 435.88C177.85 438.116 177.694 442.322 174.821 444.35L161.079 454.05C157.996 456.226 158.089 460.83 161.257 462.88L174.173 471.237C177.269 473.241 177.445 477.707 174.516 479.947L160.399 490.741C157.542 492.926 157.625 497.256 160.563 499.33L174.821 509.394C177.694 511.422 177.85 515.628 175.135 517.864L160.03 530.303C157.315 532.539 157.472 536.745 160.345 538.773L174.087 548.473C177.17 550.649 177.077 555.252 173.908 557.303L161.888 565.081C158.559 567.235 158.663 572.14 162.081 574.15L173.085 580.623C176.502 582.633 176.607 587.539 173.278 589.693L154.638 601.754" stroke="#FFBD00" stroke-width="0.761475" stroke-linecap="round"/>
<path d="M163.775 419L184.273 435.88C186.988 438.116 186.832 442.322 183.958 444.35L170.217 454.05C167.133 456.226 167.226 460.83 170.395 462.88L183.311 471.237C186.407 473.241 186.582 477.707 183.653 479.947L169.537 490.741C166.68 492.926 166.763 497.256 169.701 499.33L183.958 509.394C186.832 511.422 186.988 515.628 184.273 517.864L169.168 530.303C166.453 532.539 166.609 536.745 169.482 538.773L183.224 548.473C186.308 550.649 186.215 555.252 183.046 557.303L171.025 565.081C167.697 567.235 167.801 572.14 171.219 574.15L182.222 580.623C185.64 582.633 185.744 587.539 182.415 589.693L163.775 601.754" stroke="#FFBD00" stroke-width="0.761475" stroke-linecap="round"/>
<path d="M172.913 419L193.411 435.88C196.126 438.116 195.969 442.322 193.096 444.35L179.354 454.05C176.271 456.226 176.364 460.83 179.532 462.88L192.449 471.237C195.545 473.241 195.72 477.707 192.791 479.947L178.675 490.741C175.818 492.926 175.9 497.256 178.839 499.33L193.096 509.394C195.969 511.422 196.126 515.628 193.411 517.864L178.306 530.303C175.591 532.539 175.747 536.745 178.62 538.773L192.362 548.473C195.445 550.649 195.352 555.252 192.184 557.303L180.163 565.081C176.834 567.235 176.939 572.14 180.356 574.15L191.36 580.623C194.778 582.633 194.882 587.539 191.553 589.693L172.913 601.754" stroke="#FFBD00" stroke-width="0.761475" stroke-linecap="round"/>
<path d="M1047.99 155.708C1048.34 155.826 1048.72 155.637 1048.84 155.285L1050.77 149.547C1050.89 149.194 1050.7 148.813 1050.35 148.694C1050 148.576 1049.62 148.765 1049.5 149.117L1047.78 154.218L1042.68 152.501C1042.33 152.383 1041.95 152.572 1041.83 152.924C1041.71 153.277 1041.9 153.658 1042.25 153.777L1047.99 155.708ZM892.545 102.878C911.327 97.3814 941.642 93.4142 971.494 99.3821C1001.33 105.346 1030.65 121.218 1047.6 155.369L1048.81 154.771C1031.62 120.153 1001.88 104.086 971.758 98.0628C941.651 92.0439 911.112 96.0425 892.167 101.587L892.545 102.878Z" fill="url(#paint0_linear_4152_41277)"/>
<defs>
<linearGradient id="paint0_linear_4152_41277" x1="1055.92" y1="152.352" x2="902.813" y2="88.0357" gradientUnits="userSpaceOnUse">
<stop stop-color="#FFA529"/>
<stop offset="1" stop-color="#FFA529" stop-opacity="0"/>
</linearGradient>
</defs>
</svg>
