<svg width="140" height="41" viewBox="0 0 140 41" fill="none" xmlns="http://www.w3.org/2000/svg">
<rect x="0.0273438" y="0.630859" width="139" height="40" rx="20" fill="#23A323"/>
<path d="M38.3153 16.5449V17.7489H32.4773V20.5769H37.2513V21.7529H32.4773V25.6309H31.1333V16.5449H38.3153ZM42.4728 25.7849C41.7915 25.7849 41.1661 25.6402 40.5968 25.3509C40.0275 25.0615 39.5748 24.6462 39.2388 24.1049C38.9028 23.5635 38.7348 22.9149 38.7348 22.1589C38.7348 21.3935 38.9028 20.7402 39.2388 20.1989C39.5748 19.6482 40.0275 19.2282 40.5968 18.9389C41.1661 18.6495 41.7915 18.5049 42.4728 18.5049C43.1541 18.5049 43.7748 18.6495 44.3348 18.9389C44.8948 19.2282 45.3428 19.6482 45.6788 20.1989C46.0148 20.7402 46.1828 21.3935 46.1828 22.1589C46.1828 22.9149 46.0148 23.5635 45.6788 24.1049C45.3428 24.6462 44.8948 25.0615 44.3348 25.3509C43.7748 25.6402 43.1541 25.7849 42.4728 25.7849ZM42.4728 24.6229C42.8928 24.6229 43.2801 24.5295 43.6348 24.3429C43.9988 24.1469 44.2881 23.8669 44.5028 23.5029C44.7268 23.1295 44.8388 22.6815 44.8388 22.1589C44.8388 21.6269 44.7268 21.1742 44.5028 20.8009C44.2881 20.4275 43.9988 20.1429 43.6348 19.9469C43.2801 19.7509 42.8928 19.6529 42.4728 19.6529C42.0528 19.6529 41.6608 19.7509 41.2968 19.9469C40.9328 20.1335 40.6388 20.4135 40.4148 20.7869C40.1908 21.1602 40.0788 21.6175 40.0788 22.1589C40.0788 22.6815 40.1861 23.1295 40.4008 23.5029C40.6248 23.8669 40.9188 24.1469 41.2828 24.3429C41.6468 24.5295 42.0435 24.6229 42.4728 24.6229ZM47.589 18.6449H48.933V25.6309H47.589V18.6449ZM51.299 19.8349C50.8137 19.8349 50.3984 19.9469 50.053 20.1709C49.717 20.3949 49.4464 20.6702 49.241 20.9969C49.045 21.3235 48.9144 21.6362 48.849 21.9349L48.835 21.1369C48.8444 21.0435 48.8677 20.8989 48.905 20.7029C48.9517 20.4975 49.031 20.2689 49.143 20.0169C49.255 19.7649 49.4044 19.5269 49.591 19.3029C49.7777 19.0695 50.011 18.8782 50.291 18.7289C50.571 18.5795 50.907 18.5049 51.299 18.5049V19.8349ZM58.5271 25.6309L54.9851 16.5449H56.4551L59.5071 24.5809H59.0871L62.1391 16.5449H63.5811L60.0671 25.6309H58.5271ZM69.3716 23.3629H70.6456C70.5709 23.8202 70.3936 24.2309 70.1136 24.5949C69.8336 24.9589 69.4649 25.2482 69.0076 25.4629C68.5503 25.6775 68.0136 25.7849 67.3976 25.7849C66.6696 25.7849 66.0209 25.6309 65.4516 25.3229C64.8823 25.0149 64.4343 24.5902 64.1076 24.0489C63.7809 23.5075 63.6176 22.8775 63.6176 22.1589C63.6176 21.4309 63.7763 20.7962 64.0936 20.2549C64.4109 19.7042 64.8496 19.2749 65.4096 18.9669C65.9696 18.6589 66.6089 18.5049 67.3276 18.5049C68.0836 18.5049 68.7183 18.6542 69.2316 18.9529C69.7449 19.2515 70.1229 19.6949 70.3656 20.2829C70.6176 20.8615 70.7203 21.5849 70.6736 22.4529H64.9476C64.9943 22.8729 65.1203 23.2462 65.3256 23.5729C65.5403 23.8995 65.8203 24.1562 66.1656 24.3429C66.5203 24.5295 66.9263 24.6229 67.3836 24.6229C67.8969 24.6229 68.3263 24.5062 68.6716 24.2729C69.0169 24.0395 69.2503 23.7362 69.3716 23.3629ZM67.3416 19.6529C66.7349 19.6529 66.2309 19.8162 65.8296 20.1429C65.4283 20.4602 65.1623 20.8849 65.0316 21.4169H69.3296C69.2923 20.8475 69.0869 20.4135 68.7136 20.1149C68.3403 19.8069 67.8829 19.6529 67.3416 19.6529ZM72.089 18.6449H73.433V25.6309H72.089V18.6449ZM76.093 18.5049C76.485 18.5049 76.8397 18.5609 77.157 18.6729C77.4744 18.7849 77.745 18.9529 77.969 19.1769C78.193 19.3915 78.3657 19.6622 78.487 19.9889C78.6177 20.3062 78.683 20.6702 78.683 21.0809V25.6309H77.353V21.3749C77.353 20.8242 77.2177 20.4135 76.947 20.1429C76.6857 19.8629 76.2844 19.7229 75.743 19.7229C75.323 19.7229 74.9404 19.8209 74.595 20.0169C74.2497 20.2129 73.965 20.4742 73.741 20.8009C73.5264 21.1182 73.3957 21.4775 73.349 21.8789L73.335 21.1089C73.3817 20.7355 73.4797 20.3902 73.629 20.0729C73.7877 19.7555 73.9837 19.4802 74.217 19.2469C74.4597 19.0042 74.7397 18.8222 75.057 18.7009C75.3744 18.5702 75.7197 18.5049 76.093 18.5049ZM83.3265 25.7709C82.7199 25.7709 82.1692 25.6169 81.6745 25.3089C81.1799 25.0009 80.7879 24.5762 80.4985 24.0349C80.2185 23.4842 80.0785 22.8542 80.0785 22.1449C80.0785 21.4355 80.2185 20.8102 80.4985 20.2689C80.7785 19.7182 81.1612 19.2889 81.6465 18.9809C82.1319 18.6635 82.6919 18.5049 83.3265 18.5049C83.8772 18.5049 84.3345 18.5982 84.6985 18.7849C85.0625 18.9715 85.3472 19.2329 85.5525 19.5689C85.7579 19.9049 85.9025 20.2922 85.9865 20.7309C86.0799 21.1695 86.1265 21.6409 86.1265 22.1449C86.1265 22.5182 86.0799 22.9149 85.9865 23.3349C85.8932 23.7549 85.7439 24.1515 85.5385 24.5249C85.3332 24.8982 85.0485 25.2015 84.6845 25.4349C84.3205 25.6589 83.8679 25.7709 83.3265 25.7709ZM83.7045 24.6089C84.1992 24.6089 84.6145 24.5015 84.9505 24.2869C85.2959 24.0629 85.5525 23.7642 85.7205 23.3909C85.8885 23.0175 85.9725 22.6022 85.9725 22.1449C85.9725 21.6502 85.8839 21.2162 85.7065 20.8429C85.5385 20.4695 85.2819 20.1802 84.9365 19.9749C84.6005 19.7695 84.1899 19.6669 83.7045 19.6669C82.9765 19.6669 82.4119 19.9002 82.0105 20.3669C81.6185 20.8335 81.4225 21.4262 81.4225 22.1449C81.4225 22.6302 81.5205 23.0595 81.7165 23.4329C81.9125 23.7969 82.1785 24.0862 82.5145 24.3009C82.8599 24.5062 83.2565 24.6089 83.7045 24.6089ZM85.9725 15.8449H87.3165V25.6309H86.0845C86.0565 25.4255 86.0285 25.1735 86.0005 24.8749C85.9819 24.5762 85.9725 24.3195 85.9725 24.1049V15.8449ZM92.6896 25.7849C92.0083 25.7849 91.3829 25.6402 90.8136 25.3509C90.2443 25.0615 89.7916 24.6462 89.4556 24.1049C89.1196 23.5635 88.9516 22.9149 88.9516 22.1589C88.9516 21.3935 89.1196 20.7402 89.4556 20.1989C89.7916 19.6482 90.2443 19.2282 90.8136 18.9389C91.3829 18.6495 92.0083 18.5049 92.6896 18.5049C93.3709 18.5049 93.9916 18.6495 94.5516 18.9389C95.1116 19.2282 95.5596 19.6482 95.8956 20.1989C96.2316 20.7402 96.3996 21.3935 96.3996 22.1589C96.3996 22.9149 96.2316 23.5635 95.8956 24.1049C95.5596 24.6462 95.1116 25.0615 94.5516 25.3509C93.9916 25.6402 93.3709 25.7849 92.6896 25.7849ZM92.6896 24.6229C93.1096 24.6229 93.4969 24.5295 93.8516 24.3429C94.2156 24.1469 94.5049 23.8669 94.7196 23.5029C94.9436 23.1295 95.0556 22.6815 95.0556 22.1589C95.0556 21.6269 94.9436 21.1742 94.7196 20.8009C94.5049 20.4275 94.2156 20.1429 93.8516 19.9469C93.4969 19.7509 93.1096 19.6529 92.6896 19.6529C92.2696 19.6529 91.8776 19.7509 91.5136 19.9469C91.1496 20.1335 90.8556 20.4135 90.6316 20.7869C90.4076 21.1602 90.2956 21.6175 90.2956 22.1589C90.2956 22.6815 90.4029 23.1295 90.6176 23.5029C90.8416 23.8669 91.1356 24.1469 91.4996 24.3429C91.8636 24.5295 92.2603 24.6229 92.6896 24.6229ZM97.8058 18.6449H99.1498V25.6309H97.8058V18.6449ZM101.516 19.8349C101.03 19.8349 100.615 19.9469 100.27 20.1709C99.9338 20.3949 99.6632 20.6702 99.4578 20.9969C99.2618 21.3235 99.1312 21.6362 99.0658 21.9349L99.0518 21.1369C99.0612 21.0435 99.0845 20.8989 99.1218 20.7029C99.1685 20.4975 99.2478 20.2689 99.3598 20.0169C99.4718 19.7649 99.6212 19.5269 99.8078 19.3029C99.9945 19.0695 100.228 18.8782 100.508 18.7289C100.788 18.5795 101.124 18.5049 101.516 18.5049V19.8349ZM102.42 23.3629H103.652C103.698 23.7362 103.866 24.0442 104.156 24.2869C104.445 24.5202 104.851 24.6369 105.374 24.6369C105.71 24.6369 105.971 24.5995 106.158 24.5249C106.344 24.4409 106.475 24.3289 106.55 24.1889C106.634 24.0489 106.676 23.8949 106.676 23.7269C106.676 23.5122 106.62 23.3489 106.508 23.2369C106.396 23.1155 106.237 23.0175 106.032 22.9429C105.826 22.8589 105.584 22.7795 105.304 22.7049C104.996 22.6209 104.688 22.5229 104.38 22.4109C104.072 22.2989 103.787 22.1635 103.526 22.0049C103.274 21.8462 103.068 21.6502 102.91 21.4169C102.76 21.1742 102.686 20.8802 102.686 20.5349C102.686 20.2455 102.746 19.9749 102.868 19.7229C102.998 19.4709 103.18 19.2562 103.414 19.0789C103.656 18.8922 103.936 18.7522 104.254 18.6589C104.571 18.5562 104.921 18.5049 105.304 18.5049C105.836 18.5049 106.284 18.6029 106.648 18.7989C107.012 18.9855 107.287 19.2515 107.474 19.5969C107.67 19.9422 107.772 20.3389 107.782 20.7869H106.606C106.54 20.3949 106.405 20.1102 106.2 19.9329C105.994 19.7462 105.686 19.6529 105.276 19.6529C104.874 19.6529 104.566 19.7322 104.352 19.8909C104.137 20.0495 104.03 20.2642 104.03 20.5349C104.03 20.7402 104.104 20.9082 104.254 21.0389C104.403 21.1602 104.604 21.2675 104.856 21.3609C105.108 21.4542 105.392 21.5522 105.71 21.6549C106.008 21.7575 106.293 21.8649 106.564 21.9769C106.844 22.0795 107.091 22.2055 107.306 22.3549C107.53 22.4949 107.702 22.6815 107.824 22.9149C107.954 23.1389 108.02 23.4189 108.02 23.7549C108.02 24.1655 107.917 24.5249 107.712 24.8329C107.506 25.1315 107.208 25.3649 106.816 25.5329C106.433 25.7009 105.966 25.7849 105.416 25.7849C104.912 25.7849 104.482 25.7242 104.128 25.6029C103.782 25.4815 103.488 25.3229 103.246 25.1269C103.012 24.9309 102.83 24.7255 102.7 24.5109C102.578 24.2869 102.494 24.0722 102.448 23.8669C102.41 23.6615 102.401 23.4935 102.42 23.3629Z" fill="white"/>
</svg>
