<svg width="133" height="68" viewBox="0 0 133 68" fill="none" xmlns="http://www.w3.org/2000/svg">
<path d="M64.4205 19.2196C64.6338 18.6222 65.0606 18.3662 65.4019 18.3662C65.9993 18.3662 66.4687 18.9636 66.1273 19.8597L56.825 42.6035H56.0569L47.1386 18.6222H49.1868C50.5523 18.6222 51.1497 19.8597 51.4911 20.8411L57.8918 38.0377L64.4205 19.2196ZM81.2844 35.4347C81.327 35.1787 81.4977 35.0934 81.6257 35.0934C81.8391 35.0934 82.0951 35.3494 82.0098 35.6908C80.9857 40.3419 77.1879 42.6462 73.3901 42.6462C68.995 42.6462 64.5572 39.4885 64.5998 33.2158C64.5998 26.4737 69.5071 23.5721 73.9449 23.5721C77.4866 23.5721 80.7296 25.4923 80.7296 28.8633C80.7296 29.5034 80.5589 29.9301 79.6628 29.9301H67.8855C66.7334 37.0989 70.7445 40.4273 74.713 40.4273C77.5719 40.4273 80.4309 38.6777 81.2844 35.4347ZM77.6573 28.0099C77.6573 25.8337 75.5237 24.4255 73.2621 24.4255C71.0006 24.4255 68.6536 25.791 68.0562 29.0767L76.4198 28.9487C77.4439 28.9487 77.6573 28.778 77.6573 28.0099ZM92.5956 23.4867C95.5826 23.4867 94.9425 26.8578 92.4249 26.2604C92.0409 26.175 91.6995 26.1324 91.3155 26.1324C89.2672 26.1324 87.7737 27.6685 87.7737 30.8689V42.3048H84.6161V23.8281H86.0242C87.1337 23.8281 87.7737 24.6389 87.7737 25.7056V27.1565C88.5845 24.8522 90.2913 23.4867 92.5956 23.4867ZM100.525 27.1138C101.677 24.5962 104.238 23.3587 106.755 23.3587C109.998 23.3587 113.156 25.4496 113.156 29.7168V42.3048H111.748C110.596 42.3048 109.998 41.3234 109.998 40.1712V29.7168C109.998 26.3457 107.95 24.7242 105.774 24.7242C103.256 24.7242 100.525 26.8578 100.525 30.8689V42.3048H97.3675V23.8281H98.7756C99.8851 23.8281 100.525 24.6389 100.525 25.7056V27.1138ZM132.286 43.4569C132.286 49.687 127.891 52.3326 123.624 52.3326C119.613 52.3326 115.729 49.9857 115.729 46.0172C115.729 44.6944 116.626 44.0117 117.479 44.0117C118.332 44.0117 119.143 44.6517 119.143 45.9319C119.143 49.6016 121.575 51.4792 124.05 51.4792C126.568 51.4792 129.128 49.5163 129.128 45.5052V38.1657C128.019 40.6833 125.459 41.9208 122.941 41.9208C119.698 41.9208 116.498 39.8299 116.498 35.5627V23.8281H117.906C119.058 23.8281 119.655 24.8096 119.655 26.0043V35.5627C119.655 38.9338 121.703 40.5553 123.88 40.5553C126.397 40.5553 129.128 38.4217 129.128 34.4106V23.8281H132.286V43.4569Z" fill="#70052C"/>
<path d="M33.2441 13.7676H12.0632C5.49132 13.7676 0.16378 19.0951 0.16378 25.667V46.8479H21.3447C27.9166 46.8479 33.2441 41.5204 33.2441 34.9485V13.7676Z" fill="#70052C"/>
<circle cx="21.741" cy="24.0417" r="4.16479" fill="white"/>
<rect x="5.07422" y="21.3711" width="8.17872" height="23.3669" rx="4.08936" transform="rotate(-17.5332 5.07422 21.3711)" fill="white"/>
<path d="M15.8783 42.4065L8.73242 20.203C11.9834 19.055 13.6076 21.2129 14.0133 22.4353L18.1753 35.889C20.0128 40.0985 17.4096 41.9879 15.8783 42.4065Z" fill="white"/>
</svg>
