<svg width="479" height="180" viewBox="0 0 479 180" fill="none" xmlns="http://www.w3.org/2000/svg">
<g clip-path="url(#clip0_5089_54138)">
<path d="M36.045 60L18.3 17.945H27.855L42.87 55.19L40.075 55.255L54.375 17.945H64.32L78.62 55.255L75.825 55.19L90.84 17.945H100.2L82.65 60H72.055L58.015 23.535H60.745L46.64 60H36.045ZM134.453 60V42.255C134.453 40.4783 134.15 39.005 133.543 37.835C132.936 36.665 131.961 35.7767 130.618 35.17C129.318 34.5633 127.563 34.26 125.353 34.26C123.23 34.26 121.301 34.6717 119.568 35.495C117.835 36.275 116.426 37.315 115.343 38.615C114.26 39.8717 113.653 41.215 113.523 42.645L113.458 39.07C113.675 37.64 114.173 36.21 114.953 34.78C115.733 33.35 116.773 32.05 118.073 30.88C119.373 29.71 120.933 28.7783 122.753 28.085C124.616 27.3483 126.696 26.98 128.993 26.98C130.986 26.98 132.828 27.24 134.518 27.76C136.208 28.2367 137.681 28.995 138.938 30.035C140.195 31.075 141.17 32.375 141.863 33.935C142.556 35.4517 142.903 37.25 142.903 39.33V60H134.453ZM105.528 60V14.695H113.978V60H105.528ZM147.023 27.695H155.993L169.968 58.7L162.688 60L147.023 27.695ZM186.543 27.695L164.183 73H155.408L164.963 55.19L177.508 27.695H186.543ZM257.32 44.855C256.93 48.235 255.739 51.1167 253.745 53.5C251.752 55.8833 249.044 57.7033 245.62 58.96C242.197 60.2167 238.124 60.845 233.4 60.845C229.457 60.845 225.839 60.39 222.545 59.48C219.295 58.57 216.479 57.205 214.095 55.385C211.755 53.565 209.935 51.3117 208.635 48.625C207.335 45.895 206.685 42.71 206.685 39.07C206.685 35.43 207.335 32.245 208.635 29.515C209.935 26.785 211.755 24.51 214.095 22.69C216.479 20.8267 219.295 19.44 222.545 18.53C225.839 17.5767 229.457 17.1 233.4 17.1C238.124 17.1 242.197 17.75 245.62 19.05C249.087 20.35 251.817 22.2133 253.81 24.64C255.804 27.0233 256.974 29.9267 257.32 33.35H248.74C248.177 31.53 247.224 29.97 245.88 28.67C244.58 27.3267 242.89 26.3083 240.81 25.615C238.73 24.9217 236.26 24.575 233.4 24.575C229.847 24.575 226.727 25.1383 224.04 26.265C221.354 27.3483 219.274 28.9733 217.8 31.14C216.327 33.2633 215.59 35.9067 215.59 39.07C215.59 42.19 216.327 44.8117 217.8 46.935C219.274 49.0583 221.354 50.6833 224.04 51.81C226.727 52.8933 229.847 53.435 233.4 53.435C236.26 53.435 238.709 53.0883 240.745 52.395C242.825 51.7017 244.515 50.705 245.815 49.405C247.159 48.105 248.134 46.5883 248.74 44.855H257.32ZM294.16 60V42.255C294.16 40.4783 293.857 39.005 293.25 37.835C292.643 36.665 291.668 35.7767 290.325 35.17C289.025 34.5633 287.27 34.26 285.06 34.26C282.937 34.26 281.008 34.6717 279.275 35.495C277.542 36.275 276.133 37.315 275.05 38.615C273.967 39.8717 273.36 41.215 273.23 42.645L273.165 39.07C273.382 37.64 273.88 36.21 274.66 34.78C275.44 33.35 276.48 32.05 277.78 30.88C279.08 29.71 280.64 28.7783 282.46 28.085C284.323 27.3483 286.403 26.98 288.7 26.98C290.693 26.98 292.535 27.24 294.225 27.76C295.915 28.2367 297.388 28.995 298.645 30.035C299.902 31.075 300.877 32.375 301.57 33.935C302.263 35.4517 302.61 37.25 302.61 39.33V60H294.16ZM265.235 60V14.695H273.685V60H265.235ZM329.335 60.78C325.261 60.78 321.665 60.13 318.545 58.83C315.468 57.53 313.063 55.645 311.33 53.175C309.596 50.6617 308.73 47.585 308.73 43.945C308.73 40.305 309.596 37.2283 311.33 34.715C313.063 32.1583 315.468 30.23 318.545 28.93C321.665 27.63 325.261 26.98 329.335 26.98C333.408 26.98 336.961 27.63 339.995 28.93C343.071 30.23 345.476 32.1583 347.21 34.715C348.943 37.2283 349.81 40.305 349.81 43.945C349.81 47.585 348.943 50.6617 347.21 53.175C345.476 55.645 343.071 57.53 339.995 58.83C336.961 60.13 333.408 60.78 329.335 60.78ZM329.335 54.28C331.588 54.28 333.603 53.89 335.38 53.11C337.2 52.2867 338.63 51.1167 339.67 49.6C340.71 48.04 341.23 46.155 341.23 43.945C341.23 41.735 340.71 39.85 339.67 38.29C338.63 36.6867 337.221 35.4733 335.445 34.65C333.668 33.8267 331.631 33.415 329.335 33.415C327.081 33.415 325.045 33.8267 323.225 34.65C321.405 35.4733 319.953 36.665 318.87 38.225C317.83 39.785 317.31 41.6917 317.31 43.945C317.31 46.155 317.83 48.04 318.87 49.6C319.91 51.1167 321.34 52.2867 323.16 53.11C324.98 53.89 327.038 54.28 329.335 54.28ZM375.101 60.78C371.028 60.78 367.431 60.13 364.311 58.83C361.235 57.53 358.83 55.645 357.096 53.175C355.363 50.6617 354.496 47.585 354.496 43.945C354.496 40.305 355.363 37.2283 357.096 34.715C358.83 32.1583 361.235 30.23 364.311 28.93C367.431 27.63 371.028 26.98 375.101 26.98C379.175 26.98 382.728 27.63 385.761 28.93C388.838 30.23 391.243 32.1583 392.976 34.715C394.71 37.2283 395.576 40.305 395.576 43.945C395.576 47.585 394.71 50.6617 392.976 53.175C391.243 55.645 388.838 57.53 385.761 58.83C382.728 60.13 379.175 60.78 375.101 60.78ZM375.101 54.28C377.355 54.28 379.37 53.89 381.146 53.11C382.966 52.2867 384.396 51.1167 385.436 49.6C386.476 48.04 386.996 46.155 386.996 43.945C386.996 41.735 386.476 39.85 385.436 38.29C384.396 36.6867 382.988 35.4733 381.211 34.65C379.435 33.8267 377.398 33.415 375.101 33.415C372.848 33.415 370.811 33.8267 368.991 34.65C367.171 35.4733 365.72 36.665 364.636 38.225C363.596 39.785 363.076 41.6917 363.076 43.945C363.076 46.155 363.596 48.04 364.636 49.6C365.676 51.1167 367.106 52.2867 368.926 53.11C370.746 53.89 372.805 54.28 375.101 54.28ZM400.523 49.275H408.323C408.8 50.7483 409.775 51.9617 411.248 52.915C412.765 53.825 414.736 54.28 417.163 54.28C418.81 54.28 420.088 54.1283 420.998 53.825C421.908 53.5217 422.536 53.0883 422.883 52.525C423.23 51.9183 423.403 51.2467 423.403 50.51C423.403 49.6 423.121 48.9067 422.558 48.43C421.995 47.91 421.128 47.4983 419.958 47.195C418.788 46.8917 417.293 46.61 415.473 46.35C413.653 46.0467 411.898 45.6783 410.208 45.245C408.518 44.8117 407.023 44.2483 405.723 43.555C404.423 42.8183 403.383 41.9083 402.603 40.825C401.866 39.6983 401.498 38.3333 401.498 36.73C401.498 35.17 401.866 33.7833 402.603 32.57C403.383 31.3567 404.445 30.3383 405.788 29.515C407.175 28.6917 408.778 28.0633 410.598 27.63C412.461 27.1967 414.455 26.98 416.578 26.98C419.785 26.98 422.45 27.4567 424.573 28.41C426.696 29.32 428.278 30.62 429.318 32.31C430.401 33.9567 430.943 35.8633 430.943 38.03H423.468C423.121 36.4267 422.428 35.2783 421.388 34.585C420.348 33.8483 418.745 33.48 416.578 33.48C414.455 33.48 412.851 33.805 411.768 34.455C410.685 35.105 410.143 35.9933 410.143 37.12C410.143 38.03 410.468 38.745 411.118 39.265C411.811 39.7417 412.808 40.1317 414.108 40.435C415.451 40.7383 417.12 41.0633 419.113 41.41C420.803 41.7567 422.406 42.1467 423.923 42.58C425.483 43.0133 426.87 43.5767 428.083 44.27C429.296 44.92 430.25 45.8083 430.943 46.935C431.68 48.0183 432.048 49.405 432.048 51.095C432.048 53.175 431.441 54.93 430.228 56.36C429.058 57.79 427.368 58.895 425.158 59.675C422.948 60.4117 420.305 60.78 417.228 60.78C414.498 60.78 412.136 60.4983 410.143 59.935C408.193 59.3283 406.568 58.57 405.268 57.66C403.968 56.7067 402.95 55.71 402.213 54.67C401.52 53.5867 401.043 52.5683 400.783 51.615C400.523 50.6617 400.436 49.8817 400.523 49.275ZM467.957 49.275H476.147C475.801 51.485 474.869 53.4567 473.352 55.19C471.879 56.9233 469.864 58.2883 467.307 59.285C464.751 60.2817 461.631 60.78 457.947 60.78C453.831 60.78 450.191 60.13 447.027 58.83C443.864 57.4867 441.394 55.5583 439.617 53.045C437.841 50.5317 436.952 47.4983 436.952 43.945C436.952 40.3917 437.819 37.3583 439.552 34.845C441.286 32.2883 443.691 30.3383 446.767 28.995C449.887 27.6517 453.527 26.98 457.687 26.98C461.934 26.98 465.466 27.6517 468.282 28.995C471.099 30.3383 473.179 32.375 474.522 35.105C475.909 37.7917 476.494 41.2367 476.277 45.44H445.467C445.684 47.0867 446.291 48.5817 447.287 49.925C448.327 51.2683 449.714 52.33 451.447 53.11C453.224 53.89 455.326 54.28 457.752 54.28C460.439 54.28 462.671 53.825 464.447 52.915C466.267 51.9617 467.437 50.7483 467.957 49.275ZM457.297 33.415C454.177 33.415 451.642 34.1083 449.692 35.495C447.742 36.8383 446.486 38.5067 445.922 40.5H467.892C467.676 38.3333 466.636 36.6217 464.772 35.365C462.952 34.065 460.461 33.415 457.297 33.415Z" fill="black"/>
<path d="M29.6099 111.355H62.9549V118.57H29.6099V111.355ZM61.5249 94.0002H70.1699V136.055H61.5249V94.0002ZM22.0049 94.0002H30.6499V136.055H22.0049V94.0002Z" fill="#23A323"/>
<path d="M94.7744 136.77C91.5677 136.77 88.6427 136.077 85.9994 134.69C83.3994 133.26 81.3194 131.289 79.7594 128.775C78.2427 126.219 77.4844 123.272 77.4844 119.935C77.4844 116.512 78.2644 113.544 79.8244 111.03C81.3844 108.517 83.4861 106.567 86.1294 105.18C88.8161 103.75 91.8494 103.035 95.2294 103.035C98.9561 103.035 101.946 103.794 104.199 105.31C106.496 106.784 108.164 108.799 109.204 111.355C110.244 113.912 110.764 116.772 110.764 119.935C110.764 121.842 110.461 123.792 109.854 125.785C109.248 127.735 108.316 129.555 107.059 131.245C105.803 132.892 104.156 134.235 102.119 135.275C100.083 136.272 97.6344 136.77 94.7744 136.77ZM97.5044 130.27C100.061 130.27 102.271 129.837 104.134 128.97C105.998 128.104 107.428 126.89 108.424 125.33C109.421 123.77 109.919 121.972 109.919 119.935C109.919 117.725 109.399 115.862 108.359 114.345C107.363 112.785 105.933 111.615 104.069 110.835C102.249 110.012 100.061 109.6 97.5044 109.6C93.9078 109.6 91.1127 110.554 89.1194 112.46C87.1261 114.324 86.1294 116.815 86.1294 119.935C86.1294 122.015 86.6061 123.835 87.5594 125.395C88.5127 126.912 89.8344 128.104 91.5244 128.97C93.2578 129.837 95.2511 130.27 97.5044 130.27ZM109.919 103.75H118.369V136.055H110.504C110.504 136.055 110.439 135.644 110.309 134.82C110.223 133.954 110.136 132.87 110.049 131.57C109.963 130.27 109.919 128.992 109.919 127.735V103.75Z" fill="#23A323"/>
<path d="M126.017 103.75H134.467V136.055H126.017V103.75ZM146.882 110.705C144.455 110.705 142.354 111.182 140.577 112.135C138.8 113.045 137.37 114.172 136.287 115.515C135.204 116.859 134.445 118.159 134.012 119.415L133.947 115.84C133.99 115.32 134.164 114.562 134.467 113.565C134.77 112.525 135.225 111.42 135.832 110.25C136.439 109.037 137.24 107.889 138.237 106.805C139.234 105.679 140.447 104.769 141.877 104.075C143.307 103.382 144.975 103.035 146.882 103.035V110.705Z" fill="#23A323"/>
<path d="M168.226 131.115C164.716 131.115 161.618 130.595 158.931 129.555C156.288 128.472 154.229 126.89 152.756 124.81C151.283 122.73 150.546 120.217 150.546 117.27C150.546 114.367 151.261 111.854 152.691 109.73C154.121 107.607 156.158 105.96 158.801 104.79C161.488 103.62 164.629 103.035 168.226 103.035C169.223 103.035 170.176 103.1 171.086 103.23C172.039 103.36 172.971 103.534 173.881 103.75L190.196 103.815V110.185C187.986 110.229 185.733 109.969 183.436 109.405C181.183 108.799 179.189 108.149 177.456 107.455L177.261 107C178.734 107.694 180.121 108.56 181.421 109.6C182.721 110.597 183.761 111.767 184.541 113.11C185.364 114.41 185.776 115.927 185.776 117.66C185.776 120.477 185.061 122.904 183.631 124.94C182.201 126.934 180.164 128.472 177.521 129.555C174.921 130.595 171.823 131.115 168.226 131.115ZM179.081 149.38V147.82C179.081 145.827 178.431 144.44 177.131 143.66C175.874 142.88 174.141 142.49 171.931 142.49H161.856C159.906 142.49 158.259 142.339 156.916 142.035C155.616 141.732 154.576 141.299 153.796 140.735C153.016 140.172 152.453 139.5 152.106 138.72C151.759 137.984 151.586 137.182 151.586 136.315C151.586 134.582 152.149 133.282 153.276 132.415C154.403 131.505 155.919 130.899 157.826 130.595C159.733 130.292 161.834 130.227 164.131 130.4L168.226 131.115C165.496 131.202 163.459 131.44 162.116 131.83C160.816 132.177 160.166 132.892 160.166 133.975C160.166 134.625 160.426 135.145 160.946 135.535C161.466 135.882 162.203 136.055 163.156 136.055H173.751C176.654 136.055 179.124 136.359 181.161 136.965C183.241 137.615 184.823 138.677 185.906 140.15C186.989 141.667 187.531 143.725 187.531 146.325V149.38H179.081ZM168.226 125.005C170.089 125.005 171.714 124.702 173.101 124.095C174.531 123.489 175.636 122.622 176.416 121.495C177.196 120.325 177.586 118.939 177.586 117.335C177.586 115.689 177.196 114.28 176.416 113.11C175.636 111.94 174.553 111.052 173.166 110.445C171.779 109.795 170.133 109.47 168.226 109.47C166.363 109.47 164.716 109.795 163.286 110.445C161.856 111.052 160.751 111.94 159.971 113.11C159.191 114.28 158.801 115.689 158.801 117.335C158.801 118.939 159.191 120.325 159.971 121.495C160.751 122.622 161.834 123.489 163.221 124.095C164.651 124.702 166.319 125.005 168.226 125.005Z" fill="#23A323"/>
<path d="M214.188 136.835C210.115 136.835 206.518 136.185 203.398 134.885C200.321 133.585 197.916 131.7 196.183 129.23C194.45 126.717 193.583 123.64 193.583 120C193.583 116.36 194.45 113.284 196.183 110.77C197.916 108.214 200.321 106.285 203.398 104.985C206.518 103.685 210.115 103.035 214.188 103.035C218.261 103.035 221.815 103.685 224.848 104.985C227.925 106.285 230.33 108.214 232.063 110.77C233.796 113.284 234.663 116.36 234.663 120C234.663 123.64 233.796 126.717 232.063 129.23C230.33 131.7 227.925 133.585 224.848 134.885C221.815 136.185 218.261 136.835 214.188 136.835ZM214.188 130.335C216.441 130.335 218.456 129.945 220.233 129.165C222.053 128.342 223.483 127.172 224.523 125.655C225.563 124.095 226.083 122.21 226.083 120C226.083 117.79 225.563 115.905 224.523 114.345C223.483 112.742 222.075 111.529 220.298 110.705C218.521 109.882 216.485 109.47 214.188 109.47C211.935 109.47 209.898 109.882 208.078 110.705C206.258 111.529 204.806 112.72 203.723 114.28C202.683 115.84 202.163 117.747 202.163 120C202.163 122.21 202.683 124.095 203.723 125.655C204.763 127.172 206.193 128.342 208.013 129.165C209.833 129.945 211.891 130.335 214.188 130.335Z" fill="#23A323"/>
<path d="M240.91 103.75H249.36V136.055H240.91V103.75ZM264.375 103.035C266.368 103.035 268.21 103.295 269.9 103.815C271.59 104.335 273.063 105.137 274.32 106.22C275.576 107.304 276.551 108.69 277.245 110.38C277.938 112.027 278.285 113.999 278.285 116.295V136.055H269.835V117.79C269.835 115.06 269.163 113.067 267.82 111.81C266.52 110.51 264.375 109.86 261.385 109.86C259.131 109.86 257.095 110.294 255.275 111.16C253.455 112.027 251.981 113.132 250.855 114.475C249.728 115.775 249.078 117.14 248.905 118.57L248.84 115.255C249.056 113.739 249.555 112.265 250.335 110.835C251.115 109.405 252.155 108.105 253.455 106.935C254.798 105.722 256.38 104.769 258.2 104.075C260.02 103.382 262.078 103.035 264.375 103.035Z" fill="#23A323"/>
<path d="M296.833 122.99V112.2H300.668C304.178 112.2 306.756 111.55 308.403 110.25C310.05 108.95 310.873 107.109 310.873 104.725C310.873 102.342 310.093 100.522 308.533 99.2652C306.973 98.0085 304.893 97.3802 302.293 97.3802C300.43 97.3802 298.87 97.6835 297.613 98.2902C296.4 98.8535 295.468 99.6335 294.818 100.63C294.211 101.584 293.886 102.667 293.843 103.88H285.458C285.415 102.624 285.588 101.345 285.978 100.045C286.411 98.7452 287.061 97.4885 287.928 96.2752C288.795 95.0619 289.9 93.9785 291.243 93.0252C292.586 92.0719 294.19 91.3352 296.053 90.8152C297.96 90.2519 300.105 89.9702 302.488 89.9702C305.391 89.9702 307.905 90.3385 310.028 91.0752C312.195 91.8119 313.971 92.8302 315.358 94.1302C316.788 95.4302 317.85 96.9686 318.543 98.7452C319.236 100.479 319.583 102.385 319.583 104.465C319.583 107.325 318.933 109.752 317.633 111.745C316.333 113.695 314.578 115.212 312.368 116.295C310.201 117.335 307.775 117.942 305.088 118.115V122.99H296.833ZM296.248 136.055V128.645H306.063V136.055H296.248Z" fill="#23A323"/>
<mask id="mask0_5089_54138" style="mask-type:alpha" maskUnits="userSpaceOnUse" x="22" y="89" width="298" height="61">
<path d="M29.61 111.355H62.955V118.57H29.61V111.355ZM61.525 94.0002H70.17V136.055H61.525V94.0002ZM22.005 94.0002H30.65V136.055H22.005V94.0002ZM94.7745 136.77C91.5679 136.77 88.6429 136.077 85.9995 134.69C83.3995 133.26 81.3195 131.289 79.7595 128.775C78.2429 126.219 77.4845 123.272 77.4845 119.935C77.4845 116.512 78.2645 113.544 79.8245 111.03C81.3845 108.517 83.4862 106.567 86.1295 105.18C88.8162 103.75 91.8495 103.035 95.2295 103.035C98.9562 103.035 101.946 103.794 104.2 105.31C106.496 106.784 108.165 108.799 109.205 111.355C110.245 113.912 110.765 116.772 110.765 119.935C110.765 121.842 110.461 123.792 109.855 125.785C109.248 127.735 108.316 129.555 107.06 131.245C105.803 132.892 104.156 134.235 102.12 135.275C100.083 136.272 97.6345 136.77 94.7745 136.77ZM97.5045 130.27C100.061 130.27 102.271 129.837 104.135 128.97C105.998 128.104 107.428 126.89 108.425 125.33C109.421 123.77 109.92 121.972 109.92 119.935C109.92 117.725 109.4 115.862 108.36 114.345C107.363 112.785 105.933 111.615 104.07 110.835C102.25 110.012 100.061 109.6 97.5045 109.6C93.9079 109.6 91.1129 110.554 89.1195 112.46C87.1262 114.324 86.1295 116.815 86.1295 119.935C86.1295 122.015 86.6062 123.835 87.5595 125.395C88.5129 126.912 89.8345 128.104 91.5245 128.97C93.2579 129.837 95.2512 130.27 97.5045 130.27ZM109.92 103.75H118.37V136.055H110.505C110.505 136.055 110.44 135.644 110.31 134.82C110.223 133.954 110.136 132.87 110.05 131.57C109.963 130.27 109.92 128.992 109.92 127.735V103.75ZM126.017 103.75H134.467V136.055H126.017V103.75ZM146.882 110.705C144.456 110.705 142.354 111.182 140.577 112.135C138.801 113.045 137.371 114.172 136.287 115.515C135.204 116.859 134.446 118.159 134.012 119.415L133.947 115.84C133.991 115.32 134.164 114.562 134.467 113.565C134.771 112.525 135.226 111.42 135.832 110.25C136.439 109.037 137.241 107.889 138.237 106.805C139.234 105.679 140.447 104.769 141.877 104.075C143.307 103.382 144.976 103.035 146.882 103.035V110.705ZM168.226 131.115C164.716 131.115 161.618 130.595 158.931 129.555C156.288 128.472 154.229 126.89 152.756 124.81C151.283 122.73 150.546 120.217 150.546 117.27C150.546 114.367 151.261 111.854 152.691 109.73C154.121 107.607 156.158 105.96 158.801 104.79C161.488 103.62 164.629 103.035 168.226 103.035C169.223 103.035 170.176 103.1 171.086 103.23C172.039 103.36 172.971 103.534 173.881 103.75L190.196 103.815V110.185C187.986 110.229 185.733 109.969 183.436 109.405C181.183 108.799 179.189 108.149 177.456 107.455L177.261 107C178.734 107.694 180.121 108.56 181.421 109.6C182.721 110.597 183.761 111.767 184.541 113.11C185.364 114.41 185.776 115.927 185.776 117.66C185.776 120.477 185.061 122.904 183.631 124.94C182.201 126.934 180.164 128.472 177.521 129.555C174.921 130.595 171.823 131.115 168.226 131.115ZM179.081 149.38V147.82C179.081 145.827 178.431 144.44 177.131 143.66C175.874 142.88 174.141 142.49 171.931 142.49H161.856C159.906 142.49 158.259 142.339 156.916 142.035C155.616 141.732 154.576 141.299 153.796 140.735C153.016 140.172 152.453 139.5 152.106 138.72C151.759 137.984 151.586 137.182 151.586 136.315C151.586 134.582 152.149 133.282 153.276 132.415C154.403 131.505 155.919 130.899 157.826 130.595C159.733 130.292 161.834 130.227 164.131 130.4L168.226 131.115C165.496 131.202 163.459 131.44 162.116 131.83C160.816 132.177 160.166 132.892 160.166 133.975C160.166 134.625 160.426 135.145 160.946 135.535C161.466 135.882 162.203 136.055 163.156 136.055H173.751C176.654 136.055 179.124 136.359 181.161 136.965C183.241 137.615 184.823 138.677 185.906 140.15C186.989 141.667 187.531 143.725 187.531 146.325V149.38H179.081ZM168.226 125.005C170.089 125.005 171.714 124.702 173.101 124.095C174.531 123.489 175.636 122.622 176.416 121.495C177.196 120.325 177.586 118.939 177.586 117.335C177.586 115.689 177.196 114.28 176.416 113.11C175.636 111.94 174.553 111.052 173.166 110.445C171.779 109.795 170.133 109.47 168.226 109.47C166.363 109.47 164.716 109.795 163.286 110.445C161.856 111.052 160.751 111.94 159.971 113.11C159.191 114.28 158.801 115.689 158.801 117.335C158.801 118.939 159.191 120.325 159.971 121.495C160.751 122.622 161.834 123.489 163.221 124.095C164.651 124.702 166.319 125.005 168.226 125.005ZM214.188 136.835C210.115 136.835 206.518 136.185 203.398 134.885C200.321 133.585 197.916 131.7 196.183 129.23C194.45 126.717 193.583 123.64 193.583 120C193.583 116.36 194.45 113.284 196.183 110.77C197.916 108.214 200.321 106.285 203.398 104.985C206.518 103.685 210.115 103.035 214.188 103.035C218.261 103.035 221.815 103.685 224.848 104.985C227.925 106.285 230.33 108.214 232.063 110.77C233.796 113.284 234.663 116.36 234.663 120C234.663 123.64 233.796 126.717 232.063 129.23C230.33 131.7 227.925 133.585 224.848 134.885C221.815 136.185 218.261 136.835 214.188 136.835ZM214.188 130.335C216.441 130.335 218.456 129.945 220.233 129.165C222.053 128.342 223.483 127.172 224.523 125.655C225.563 124.095 226.083 122.21 226.083 120C226.083 117.79 225.563 115.905 224.523 114.345C223.483 112.742 222.075 111.529 220.298 110.705C218.521 109.882 216.485 109.47 214.188 109.47C211.935 109.47 209.898 109.882 208.078 110.705C206.258 111.529 204.806 112.72 203.723 114.28C202.683 115.84 202.163 117.747 202.163 120C202.163 122.21 202.683 124.095 203.723 125.655C204.763 127.172 206.193 128.342 208.013 129.165C209.833 129.945 211.891 130.335 214.188 130.335ZM240.91 103.75H249.36V136.055H240.91V103.75ZM264.375 103.035C266.368 103.035 268.21 103.295 269.9 103.815C271.59 104.335 273.063 105.137 274.32 106.22C275.576 107.304 276.551 108.69 277.245 110.38C277.938 112.027 278.285 113.999 278.285 116.295V136.055H269.835V117.79C269.835 115.06 269.163 113.067 267.82 111.81C266.52 110.51 264.375 109.86 261.385 109.86C259.131 109.86 257.095 110.294 255.275 111.16C253.455 112.027 251.981 113.132 250.855 114.475C249.728 115.775 249.078 117.14 248.905 118.57L248.84 115.255C249.056 113.739 249.555 112.265 250.335 110.835C251.115 109.405 252.155 108.105 253.455 106.935C254.798 105.722 256.38 104.769 258.2 104.075C260.02 103.382 262.078 103.035 264.375 103.035ZM296.833 122.99V112.2H300.668C304.178 112.2 306.756 111.55 308.403 110.25C310.05 108.95 310.873 107.109 310.873 104.725C310.873 102.342 310.093 100.522 308.533 99.2652C306.973 98.0085 304.893 97.3802 302.293 97.3802C300.43 97.3802 298.87 97.6835 297.613 98.2902C296.4 98.8535 295.468 99.6335 294.818 100.63C294.211 101.584 293.886 102.667 293.843 103.88H285.458C285.415 102.624 285.588 101.345 285.978 100.045C286.411 98.7452 287.061 97.4885 287.928 96.2752C288.795 95.0618 289.9 93.9785 291.243 93.0252C292.586 92.0718 294.19 91.3352 296.053 90.8152C297.96 90.2518 300.105 89.9702 302.488 89.9702C305.391 89.9702 307.905 90.3385 310.028 91.0752C312.195 91.8118 313.971 92.8302 315.358 94.1302C316.788 95.4302 317.85 96.9685 318.543 98.7452C319.236 100.479 319.583 102.385 319.583 104.465C319.583 107.325 318.933 109.752 317.633 111.745C316.333 113.695 314.578 115.212 312.368 116.295C310.201 117.335 307.775 117.942 305.088 118.115V122.99H296.833ZM296.248 136.055V128.645H306.063V136.055H296.248Z" fill="#23A323"/>
</mask>
<g mask="url(#mask0_5089_54138)">
</g>
<path d="M17.5547 169.098C58.6512 153.531 157.657 133.979 224.906 180.306" stroke="url(#paint0_linear_5089_54138)" stroke-width="2" stroke-linecap="round"/>
</g>
<defs>
<linearGradient id="paint0_linear_5089_54138" x1="17.5547" y1="151.389" x2="224.906" y2="151.389" gradientUnits="userSpaceOnUse">
<stop stop-color="#FFBD00"/>
<stop offset="1" stop-color="#FFBD00" stop-opacity="0"/>
</linearGradient>
<clipPath id="clip0_5089_54138">
<rect width="479" height="180" fill="white"/>
</clipPath>
</defs>
</svg>
