<svg width="397" height="132" viewBox="0 0 397 132" fill="none" xmlns="http://www.w3.org/2000/svg">
<g clip-path="url(#clip0_16526_65412)">
<path d="M16.115 51L1.1 15.415H9.185L21.89 46.93L19.525 46.985L31.625 15.415H40.04L52.14 46.985L49.775 46.93L62.48 15.415H70.4L55.55 51H46.585L34.705 20.145H37.015L25.08 51H16.115ZM99.3833 51V35.985C99.3833 34.4817 99.1266 33.235 98.6133 32.245C98.0999 31.255 97.2749 30.5033 96.1383 29.99C95.0383 29.4767 93.5533 29.22 91.6833 29.22C89.8866 29.22 88.2549 29.5683 86.7883 30.265C85.3216 30.925 84.1299 31.805 83.2133 32.905C82.2966 33.9683 81.7833 35.105 81.6733 36.315L81.6183 33.29C81.8016 32.08 82.2233 30.87 82.8833 29.66C83.5433 28.45 84.4233 27.35 85.5233 26.36C86.6233 25.37 87.9433 24.5817 89.4833 23.995C91.0599 23.3717 92.8199 23.06 94.7633 23.06C96.4499 23.06 98.0083 23.28 99.4383 23.72C100.868 24.1233 102.115 24.765 103.178 25.645C104.242 26.525 105.067 27.625 105.653 28.945C106.24 30.2283 106.533 31.75 106.533 33.51V51H99.3833ZM74.9083 51V12.665H82.0583V51H74.9083ZM110.019 23.665H117.609L129.434 49.9L123.274 51L110.019 23.665ZM143.459 23.665L124.539 62H117.114L125.199 46.93L135.814 23.665H143.459ZM203.348 38.185C203.018 41.045 202.01 43.4833 200.323 45.5C198.636 47.5167 196.345 49.0567 193.448 50.12C190.551 51.1833 187.105 51.715 183.108 51.715C179.771 51.715 176.71 51.33 173.923 50.56C171.173 49.79 168.79 48.635 166.773 47.095C164.793 45.555 163.253 43.6483 162.153 41.375C161.053 39.065 160.503 36.37 160.503 33.29C160.503 30.21 161.053 27.515 162.153 25.205C163.253 22.895 164.793 20.97 166.773 19.43C168.79 17.8533 171.173 16.68 173.923 15.91C176.71 15.1033 179.771 14.7 183.108 14.7C187.105 14.7 190.551 15.25 193.448 16.35C196.381 17.45 198.691 19.0267 200.378 21.08C202.065 23.0967 203.055 25.5533 203.348 28.45H196.088C195.611 26.91 194.805 25.59 193.668 24.49C192.568 23.3533 191.138 22.4917 189.378 21.905C187.618 21.3183 185.528 21.025 183.108 21.025C180.101 21.025 177.461 21.5017 175.188 22.455C172.915 23.3717 171.155 24.7467 169.908 26.58C168.661 28.3767 168.038 30.6133 168.038 33.29C168.038 35.93 168.661 38.1483 169.908 39.945C171.155 41.7417 172.915 43.1167 175.188 44.07C177.461 44.9867 180.101 45.445 183.108 45.445C185.528 45.445 187.6 45.1517 189.323 44.565C191.083 43.9783 192.513 43.135 193.613 42.035C194.75 40.935 195.575 39.6517 196.088 38.185H203.348ZM234.52 51V35.985C234.52 34.4817 234.263 33.235 233.75 32.245C233.237 31.255 232.412 30.5033 231.275 29.99C230.175 29.4767 228.69 29.22 226.82 29.22C225.023 29.22 223.392 29.5683 221.925 30.265C220.458 30.925 219.267 31.805 218.35 32.905C217.433 33.9683 216.92 35.105 216.81 36.315L216.755 33.29C216.938 32.08 217.36 30.87 218.02 29.66C218.68 28.45 219.56 27.35 220.66 26.36C221.76 25.37 223.08 24.5817 224.62 23.995C226.197 23.3717 227.957 23.06 229.9 23.06C231.587 23.06 233.145 23.28 234.575 23.72C236.005 24.1233 237.252 24.765 238.315 25.645C239.378 26.525 240.203 27.625 240.79 28.945C241.377 30.2283 241.67 31.75 241.67 33.51V51H234.52ZM210.045 51V12.665H217.195V51H210.045ZM264.283 51.66C260.836 51.66 257.793 51.11 255.153 50.01C252.55 48.91 250.515 47.315 249.048 45.225C247.581 43.0983 246.848 40.495 246.848 37.415C246.848 34.335 247.581 31.7317 249.048 29.605C250.515 27.4417 252.55 25.81 255.153 24.71C257.793 23.61 260.836 23.06 264.283 23.06C267.73 23.06 270.736 23.61 273.303 24.71C275.906 25.81 277.941 27.4417 279.408 29.605C280.875 31.7317 281.608 34.335 281.608 37.415C281.608 40.495 280.875 43.0983 279.408 45.225C277.941 47.315 275.906 48.91 273.303 50.01C270.736 51.11 267.73 51.66 264.283 51.66ZM264.283 46.16C266.19 46.16 267.895 45.83 269.398 45.17C270.938 44.4733 272.148 43.4833 273.028 42.2C273.908 40.88 274.348 39.285 274.348 37.415C274.348 35.545 273.908 33.95 273.028 32.63C272.148 31.2733 270.956 30.2467 269.453 29.55C267.95 28.8533 266.226 28.505 264.283 28.505C262.376 28.505 260.653 28.8533 259.113 29.55C257.573 30.2467 256.345 31.255 255.428 32.575C254.548 33.895 254.108 35.5083 254.108 37.415C254.108 39.285 254.548 40.88 255.428 42.2C256.308 43.4833 257.518 44.4733 259.058 45.17C260.598 45.83 262.34 46.16 264.283 46.16ZM303.009 51.66C299.562 51.66 296.519 51.11 293.879 50.01C291.275 48.91 289.24 47.315 287.774 45.225C286.307 43.0983 285.574 40.495 285.574 37.415C285.574 34.335 286.307 31.7317 287.774 29.605C289.24 27.4417 291.275 25.81 293.879 24.71C296.519 23.61 299.562 23.06 303.009 23.06C306.455 23.06 309.462 23.61 312.029 24.71C314.632 25.81 316.667 27.4417 318.134 29.605C319.6 31.7317 320.334 34.335 320.334 37.415C320.334 40.495 319.6 43.0983 318.134 45.225C316.667 47.315 314.632 48.91 312.029 50.01C309.462 51.11 306.455 51.66 303.009 51.66ZM303.009 46.16C304.915 46.16 306.62 45.83 308.124 45.17C309.664 44.4733 310.874 43.4833 311.754 42.2C312.634 40.88 313.074 39.285 313.074 37.415C313.074 35.545 312.634 33.95 311.754 32.63C310.874 31.2733 309.682 30.2467 308.179 29.55C306.675 28.8533 304.952 28.505 303.009 28.505C301.102 28.505 299.379 28.8533 297.839 29.55C296.299 30.2467 295.07 31.255 294.154 32.575C293.274 33.895 292.834 35.5083 292.834 37.415C292.834 39.285 293.274 40.88 294.154 42.2C295.034 43.4833 296.244 44.4733 297.784 45.17C299.324 45.83 301.065 46.16 303.009 46.16ZM324.519 41.925H331.119C331.523 43.1717 332.348 44.1983 333.594 45.005C334.878 45.775 336.546 46.16 338.599 46.16C339.993 46.16 341.074 46.0317 341.844 45.775C342.614 45.5183 343.146 45.1517 343.439 44.675C343.733 44.1617 343.879 43.5933 343.879 42.97C343.879 42.2 343.641 41.6133 343.164 41.21C342.688 40.77 341.954 40.4217 340.964 40.165C339.974 39.9083 338.709 39.67 337.169 39.45C335.629 39.1933 334.144 38.8817 332.714 38.515C331.284 38.1483 330.019 37.6717 328.919 37.085C327.819 36.4617 326.939 35.6917 326.279 34.775C325.656 33.8217 325.344 32.6667 325.344 31.31C325.344 29.99 325.656 28.8167 326.279 27.79C326.939 26.7633 327.838 25.9017 328.974 25.205C330.148 24.5083 331.504 23.9767 333.044 23.61C334.621 23.2433 336.308 23.06 338.104 23.06C340.818 23.06 343.073 23.4633 344.869 24.27C346.666 25.04 348.004 26.14 348.884 27.57C349.801 28.9633 350.259 30.5767 350.259 32.41H343.934C343.641 31.0533 343.054 30.0817 342.174 29.495C341.294 28.8717 339.938 28.56 338.104 28.56C336.308 28.56 334.951 28.835 334.034 29.385C333.118 29.935 332.659 30.6867 332.659 31.64C332.659 32.41 332.934 33.015 333.484 33.455C334.071 33.8583 334.914 34.1883 336.014 34.445C337.151 34.7017 338.563 34.9767 340.249 35.27C341.679 35.5633 343.036 35.8933 344.319 36.26C345.639 36.6267 346.813 37.1033 347.839 37.69C348.866 38.24 349.673 38.9917 350.259 39.945C350.883 40.8617 351.194 42.035 351.194 43.465C351.194 45.225 350.681 46.71 349.654 47.92C348.664 49.13 347.234 50.065 345.364 50.725C343.494 51.3483 341.258 51.66 338.654 51.66C336.344 51.66 334.346 51.4217 332.659 50.945C331.009 50.4317 329.634 49.79 328.534 49.02C327.434 48.2133 326.573 47.37 325.949 46.49C325.363 45.5733 324.959 44.7117 324.739 43.905C324.519 43.0983 324.446 42.4383 324.519 41.925ZM381.579 41.925H388.509C388.216 43.795 387.428 45.4633 386.144 46.93C384.898 48.3967 383.193 49.5517 381.029 50.395C378.866 51.2383 376.226 51.66 373.109 51.66C369.626 51.66 366.546 51.11 363.869 50.01C361.193 48.8733 359.103 47.2417 357.599 45.115C356.096 42.9883 355.344 40.4217 355.344 37.415C355.344 34.4083 356.078 31.8417 357.544 29.715C359.011 27.5517 361.046 25.9017 363.649 24.765C366.289 23.6283 369.369 23.06 372.889 23.06C376.483 23.06 379.471 23.6283 381.854 24.765C384.238 25.9017 385.998 27.625 387.134 29.935C388.308 32.2083 388.803 35.1233 388.619 38.68H362.549C362.733 40.0733 363.246 41.3383 364.089 42.475C364.969 43.6117 366.143 44.51 367.609 45.17C369.113 45.83 370.891 46.16 372.944 46.16C375.218 46.16 377.106 45.775 378.609 45.005C380.149 44.1983 381.139 43.1717 381.579 41.925ZM372.559 28.505C369.919 28.505 367.774 29.0917 366.124 30.265C364.474 31.4017 363.411 32.8133 362.934 34.5H381.524C381.341 32.6667 380.461 31.2183 378.884 30.155C377.344 29.055 375.236 28.505 372.559 28.505Z" fill="black"/>
<path d="M10.67 96.1H38.885V102.205H10.67V96.1ZM37.675 81.415H44.99V117H37.675V81.415ZM4.235 81.415H11.55V117H4.235V81.415ZM65.8092 117.605C63.0959 117.605 60.6209 117.018 58.3842 115.845C56.1842 114.635 54.4242 112.967 53.1042 110.84C51.8209 108.677 51.1792 106.183 51.1792 103.36C51.1792 100.463 51.8392 97.9517 53.1592 95.825C54.4792 93.6983 56.2576 92.0483 58.4942 90.875C60.7676 89.665 63.3342 89.06 66.1942 89.06C69.3476 89.06 71.8776 89.7017 73.7842 90.985C75.7276 92.2317 77.1392 93.9367 78.0192 96.1C78.8992 98.2633 79.3392 100.683 79.3392 103.36C79.3392 104.973 79.0826 106.623 78.5692 108.31C78.0559 109.96 77.2676 111.5 76.2042 112.93C75.1409 114.323 73.7476 115.46 72.0242 116.34C70.3009 117.183 68.2292 117.605 65.8092 117.605ZM68.1192 112.105C70.2826 112.105 72.1526 111.738 73.7292 111.005C75.3059 110.272 76.5159 109.245 77.3592 107.925C78.2026 106.605 78.6242 105.083 78.6242 103.36C78.6242 101.49 78.1842 99.9133 77.3042 98.63C76.4609 97.31 75.2509 96.32 73.6742 95.66C72.1342 94.9633 70.2826 94.615 68.1192 94.615C65.0759 94.615 62.7109 95.4217 61.0242 97.035C59.3376 98.6117 58.4942 100.72 58.4942 103.36C58.4942 105.12 58.8976 106.66 59.7042 107.98C60.5109 109.263 61.6292 110.272 63.0592 111.005C64.5259 111.738 66.2126 112.105 68.1192 112.105ZM78.6242 89.665H85.7742V117H79.1192C79.1192 117 79.0642 116.652 78.9542 115.955C78.8809 115.222 78.8076 114.305 78.7342 113.205C78.6609 112.105 78.6242 111.023 78.6242 109.96V89.665ZM92.2453 89.665H99.3953V117H92.2453V89.665ZM109.9 95.55C107.847 95.55 106.069 95.9533 104.565 96.76C103.062 97.53 101.852 98.4833 100.935 99.62C100.019 100.757 99.377 101.857 99.0103 102.92L98.9553 99.895C98.992 99.455 99.1386 98.8133 99.3953 97.97C99.652 97.09 100.037 96.155 100.55 95.165C101.064 94.1383 101.742 93.1667 102.585 92.25C103.429 91.2967 104.455 90.5267 105.665 89.94C106.875 89.3533 108.287 89.06 109.9 89.06V95.55ZM127.961 112.82C124.991 112.82 122.369 112.38 120.096 111.5C117.859 110.583 116.117 109.245 114.871 107.485C113.624 105.725 113.001 103.598 113.001 101.105C113.001 98.6483 113.606 96.5217 114.816 94.725C116.026 92.9283 117.749 91.535 119.986 90.545C122.259 89.555 124.917 89.06 127.961 89.06C128.804 89.06 129.611 89.115 130.381 89.225C131.187 89.335 131.976 89.4817 132.746 89.665L146.551 89.72V95.11C144.681 95.1467 142.774 94.9267 140.831 94.45C138.924 93.9367 137.237 93.3867 135.771 92.8L135.606 92.415C136.852 93.0017 138.026 93.735 139.126 94.615C140.226 95.4583 141.106 96.4483 141.766 97.585C142.462 98.685 142.811 99.9683 142.811 101.435C142.811 103.818 142.206 105.872 140.996 107.595C139.786 109.282 138.062 110.583 135.826 111.5C133.626 112.38 131.004 112.82 127.961 112.82ZM137.146 128.275V126.955C137.146 125.268 136.596 124.095 135.496 123.435C134.432 122.775 132.966 122.445 131.096 122.445H122.571C120.921 122.445 119.527 122.317 118.391 122.06C117.291 121.803 116.411 121.437 115.751 120.96C115.091 120.483 114.614 119.915 114.321 119.255C114.027 118.632 113.881 117.953 113.881 117.22C113.881 115.753 114.357 114.653 115.311 113.92C116.264 113.15 117.547 112.637 119.161 112.38C120.774 112.123 122.552 112.068 124.496 112.215L127.961 112.82C125.651 112.893 123.927 113.095 122.791 113.425C121.691 113.718 121.141 114.323 121.141 115.24C121.141 115.79 121.361 116.23 121.801 116.56C122.241 116.853 122.864 117 123.671 117H132.636C135.092 117 137.182 117.257 138.906 117.77C140.666 118.32 142.004 119.218 142.921 120.465C143.837 121.748 144.296 123.49 144.296 125.69V128.275H137.146ZM127.961 107.65C129.537 107.65 130.912 107.393 132.086 106.88C133.296 106.367 134.231 105.633 134.891 104.68C135.551 103.69 135.881 102.517 135.881 101.16C135.881 99.7667 135.551 98.575 134.891 97.585C134.231 96.595 133.314 95.8433 132.141 95.33C130.967 94.78 129.574 94.505 127.961 94.505C126.384 94.505 124.991 94.78 123.781 95.33C122.571 95.8433 121.636 96.595 120.976 97.585C120.316 98.575 119.986 99.7667 119.986 101.16C119.986 102.517 120.316 103.69 120.976 104.68C121.636 105.633 122.552 106.367 123.726 106.88C124.936 107.393 126.347 107.65 127.961 107.65ZM166.852 117.66C163.405 117.66 160.362 117.11 157.722 116.01C155.118 114.91 153.083 113.315 151.617 111.225C150.15 109.098 149.417 106.495 149.417 103.415C149.417 100.335 150.15 97.7317 151.617 95.605C153.083 93.4417 155.118 91.81 157.722 90.71C160.362 89.61 163.405 89.06 166.852 89.06C170.298 89.06 173.305 89.61 175.872 90.71C178.475 91.81 180.51 93.4417 181.977 95.605C183.443 97.7317 184.177 100.335 184.177 103.415C184.177 106.495 183.443 109.098 181.977 111.225C180.51 113.315 178.475 114.91 175.872 116.01C173.305 117.11 170.298 117.66 166.852 117.66ZM166.852 112.16C168.758 112.16 170.463 111.83 171.967 111.17C173.507 110.473 174.717 109.483 175.597 108.2C176.477 106.88 176.917 105.285 176.917 103.415C176.917 101.545 176.477 99.95 175.597 98.63C174.717 97.2733 173.525 96.2467 172.022 95.55C170.518 94.8533 168.795 94.505 166.852 94.505C164.945 94.505 163.222 94.8533 161.682 95.55C160.142 96.2467 158.913 97.255 157.997 98.575C157.117 99.895 156.677 101.508 156.677 103.415C156.677 105.285 157.117 106.88 157.997 108.2C158.877 109.483 160.087 110.473 161.627 111.17C163.167 111.83 164.908 112.16 166.852 112.16ZM189.462 89.665H196.612V117H189.462V89.665ZM209.317 89.06C211.004 89.06 212.562 89.28 213.992 89.72C215.422 90.16 216.669 90.8383 217.732 91.755C218.795 92.6717 219.62 93.845 220.207 95.275C220.794 96.6683 221.087 98.3367 221.087 100.28V117H213.937V101.545C213.937 99.235 213.369 97.5483 212.232 96.485C211.132 95.385 209.317 94.835 206.787 94.835C204.88 94.835 203.157 95.2017 201.617 95.935C200.077 96.6683 198.83 97.6033 197.877 98.74C196.924 99.84 196.374 100.995 196.227 102.205L196.172 99.4C196.355 98.1167 196.777 96.87 197.437 95.66C198.097 94.45 198.977 93.35 200.077 92.36C201.214 91.3333 202.552 90.5267 204.092 89.94C205.632 89.3533 207.374 89.06 209.317 89.06Z" fill="#23A323"/>
<circle cx="224.003" cy="82.0025" r="15.9126" transform="rotate(-0.324728 224.003 82.0025)" fill="#23A323" stroke="black" stroke-width="3.18251"/>
<path d="M222.385 85.2027L222.368 82.209L223.432 82.203C224.406 82.1975 225.121 82.0131 225.575 81.6498C226.03 81.2865 226.256 80.7743 226.252 80.113C226.248 79.4518 226.029 78.9481 225.594 78.6019C225.159 78.2557 224.581 78.0846 223.86 78.0887C223.343 78.0916 222.911 78.1782 222.563 78.3485C222.227 78.5067 221.97 78.7246 221.791 79.0021C221.624 79.2676 221.536 79.5687 221.526 79.9054L219.199 79.9186C219.185 79.57 219.231 79.215 219.338 78.8537C219.456 78.4924 219.634 78.1427 219.873 77.8047C220.111 77.4667 220.416 77.1644 220.787 76.8978C221.158 76.6312 221.602 76.4243 222.118 76.2771C222.646 76.1178 223.241 76.0363 223.902 76.0325C224.708 76.0279 225.406 76.1262 225.996 76.3272C226.598 76.5282 227.093 76.8079 227.48 77.1664C227.878 77.5249 228.175 77.95 228.371 78.4418C228.566 78.9217 228.665 79.4501 228.668 80.0272C228.673 80.8207 228.496 81.495 228.139 82.0501C227.781 82.5931 227.296 83.0167 226.685 83.3207C226.085 83.6127 225.413 83.7848 224.668 83.8371L224.676 85.1897L222.385 85.2027ZM222.244 88.8284L222.232 86.7725L224.955 86.7571L224.967 88.813L222.244 88.8284Z" fill="black"/>
</g>
<defs>
<clipPath id="clip0_16526_65412">
<rect width="397" height="132" fill="white"/>
</clipPath>
</defs>
</svg>
