<svg width="1440" height="139" viewBox="0 0 1440 139" fill="none" xmlns="http://www.w3.org/2000/svg">
<g opacity="0.2">
<path d="M-14.1582 108.326L-53.6465 9.52923L-34.7409 9.52923L-1.19875 96.4339H-6.68747L25.3301 9.52923L44.998 9.52923L77.0155 96.4339H71.5268L105.069 9.52923H123.67L84.6387 108.326H64.2085L32.6484 21.5739H37.8321L6.11954 108.326H-14.1582ZM198.73 108.326V64.4164C198.73 60.3507 198.018 56.9965 196.595 54.3538C195.274 51.6094 193.19 49.5257 190.344 48.1027C187.498 46.6797 183.737 45.9682 179.062 45.9682C174.386 45.9682 170.117 46.9847 166.255 49.0175C162.392 50.9487 159.241 53.5406 156.802 56.7932C154.363 60.0458 152.94 63.6541 152.533 67.6182L152.381 59.0802C152.889 55.421 154.007 51.9143 155.735 48.5601C157.463 45.1043 159.75 42.055 162.596 39.4123C165.442 36.7695 168.796 34.6859 172.658 33.1612C176.521 31.5349 180.79 30.7218 185.465 30.7218C189.836 30.7218 193.851 31.3316 197.51 32.5514C201.271 33.7711 204.473 35.6006 207.115 38.0401C209.86 40.3779 211.943 43.3255 213.366 46.883C214.891 50.3389 215.653 54.3538 215.653 58.9277V108.326H198.73ZM136.524 108.326L136.524 1.90601L153.448 1.90601L153.448 108.326H136.524ZM268.306 110.003C261.394 110.003 255.042 108.326 249.248 104.972C243.556 101.618 238.982 96.993 235.526 91.0977C232.172 85.1008 230.495 78.2399 230.495 70.515C230.495 62.5868 232.223 55.6751 235.679 49.7798C239.134 43.7829 243.81 39.1073 249.705 35.7531C255.601 32.3989 262.207 30.7218 269.526 30.7218C277.657 30.7218 284.111 32.5005 288.889 36.058C293.666 39.6155 297.071 44.3928 299.104 50.3897C301.137 56.3866 302.153 63.0951 302.153 70.515C302.153 74.6824 301.543 79.1038 300.323 83.7794C299.104 88.3533 297.173 92.6223 294.53 96.5864C291.989 100.55 288.533 103.803 284.162 106.344C279.893 108.784 274.608 110.003 268.306 110.003ZM273.49 95.9766C279.182 95.9766 284.01 94.9093 287.974 92.7748C292.04 90.5387 295.089 87.4894 297.122 83.6269C299.256 79.7645 300.323 75.3939 300.323 70.515C300.323 65.1279 299.256 60.554 297.122 56.7932C294.987 52.9308 291.938 49.9831 287.974 47.9503C284.01 45.8158 279.182 44.7485 273.49 44.7485C265.358 44.7485 259.056 47.1371 254.584 51.9143C250.112 56.6916 247.876 62.8918 247.876 70.515C247.876 75.4955 248.943 79.917 251.077 83.7794C253.314 87.6418 256.363 90.6403 260.225 92.7748C264.088 94.9093 268.509 95.9766 273.49 95.9766ZM300.323 32.3989H317.399V108.326H301.543C301.543 108.326 301.442 107.361 301.238 105.429C301.035 103.498 300.832 101.16 300.628 98.416C300.425 95.57 300.323 92.8764 300.323 90.3354V32.3989ZM330.666 32.3989L384.334 32.3989V46.2732L330.666 46.2732V32.3989ZM348.962 11.9687L366.038 11.9687V108.326H348.962V11.9687ZM408.773 40.632L399.625 40.632L394.442 21.5739V8.91937H414.11V21.5739L408.773 40.632ZM426.45 83.322H442.153C442.967 87.1844 445.05 90.3354 448.405 92.7748C451.759 95.1126 456.282 96.2815 461.974 96.2815C465.633 96.2815 468.479 95.8749 470.512 95.0618C472.646 94.2486 474.12 93.1306 474.933 91.7075C475.848 90.2845 476.306 88.6583 476.306 86.8287C476.306 84.5925 475.645 82.8646 474.323 81.6449C473.104 80.4252 471.274 79.4088 468.835 78.5956C466.395 77.7825 463.346 77.071 459.687 76.4611C455.926 75.5463 452.216 74.5299 448.557 73.4118C444.898 72.2937 441.594 70.9216 438.647 69.2953C435.699 67.5674 433.361 65.4328 431.633 62.8918C430.007 60.2491 429.194 57.0473 429.194 53.2865C429.194 49.8307 429.956 46.7305 431.481 43.9862C433.107 41.1402 435.343 38.7516 438.189 36.8204C441.035 34.8891 444.39 33.4153 448.252 32.3989C452.114 31.2808 456.333 30.7218 460.907 30.7218C467.513 30.7218 473.002 31.789 477.373 33.9235C481.845 36.058 485.199 39.0565 487.435 42.9189C489.773 46.7814 490.942 51.2028 490.942 56.1833L476.001 56.1833C475.187 52.1176 473.612 49.17 471.274 47.3404C468.936 45.5108 465.43 44.596 460.754 44.596C456.079 44.596 452.521 45.4092 450.082 47.0355C447.642 48.6618 446.422 50.8979 446.422 53.7439C446.422 55.8784 447.185 57.6063 448.709 58.9277C450.336 60.1474 452.623 61.2147 455.57 62.1295C458.518 63.0442 461.974 63.959 465.938 64.8738C469.597 65.8902 473.053 66.9575 476.306 68.0756C479.558 69.092 482.455 70.4134 484.996 72.0396C487.639 73.5643 489.722 75.5971 491.247 78.1382C492.772 80.6793 493.534 83.8302 493.534 87.591C493.534 92.2666 492.263 96.2815 489.722 99.6357C487.283 102.99 483.725 105.582 479.05 107.411C474.374 109.139 468.733 110.003 462.126 110.003C456.333 110.003 451.301 109.343 447.032 108.021C442.865 106.7 439.358 104.972 436.512 102.837C433.768 100.703 431.633 98.416 430.109 95.9766C428.584 93.5371 427.517 91.1993 426.907 88.9632C426.399 86.727 426.246 84.8467 426.45 83.322ZM563.824 0.228893V16.5426H543.546V0.228893H563.824ZM545.071 32.3989L562.147 32.3989V108.326H545.071V32.3989ZM582.417 32.3989H599.341V108.326L582.417 108.326V32.3989ZM631.358 30.7218C635.729 30.7218 639.744 31.3316 643.403 32.5514C647.164 33.7711 650.365 35.6515 653.008 38.1925C655.753 40.632 657.836 43.6813 659.259 47.3404C660.784 50.9995 661.546 55.3194 661.546 60.2999V108.326H644.623V63.6541C644.623 57.4539 643.098 52.8799 640.049 49.9323C637.101 46.883 632.425 45.3584 626.022 45.3584C621.143 45.3584 616.671 46.4256 612.605 48.5601C608.641 50.593 605.388 53.2865 602.847 56.6407C600.306 59.8933 598.832 63.5016 598.426 67.4657L598.273 59.2326C598.782 55.4718 599.9 51.9143 601.628 48.5601C603.356 45.1043 605.643 42.055 608.489 39.4123C611.335 36.6679 614.689 34.5334 618.551 33.0087C622.414 31.4841 626.683 30.7218 631.358 30.7218ZM735.197 0.228893V16.5426H714.919V0.228893H735.197ZM716.444 32.3989H733.52V108.326L716.444 108.326V32.3989ZM748.454 32.3989L802.122 32.3989V46.2732L748.454 46.2732V32.3989ZM766.75 11.9687L783.826 11.9687V108.326H766.75V11.9687ZM845.234 33.3137H900.273V47.0355H845.234V33.3137ZM888.991 1.90601H901.493V16.5426H892.04C889.194 16.4409 886.704 16.7459 884.569 17.4574C882.537 18.1689 880.91 19.4902 879.691 21.4214C878.573 23.3527 878.014 26.097 878.014 29.6545V108.326L860.938 108.326V28.1299C860.938 22.0313 862.056 17.0508 864.292 13.1884C866.528 9.32594 869.73 6.47994 873.897 4.65037C878.166 2.82079 883.197 1.90601 888.991 1.90601ZM952.167 110.003C943.731 110.003 936.158 108.479 929.45 105.429C922.742 102.38 917.456 97.9078 913.594 92.0125C909.731 86.1172 907.8 78.9514 907.8 70.515C907.8 62.1803 909.731 55.0653 913.594 49.17C917.456 43.173 922.742 38.5991 929.45 35.4482C936.158 32.2972 943.731 30.7218 952.167 30.7218C960.604 30.7218 968.125 32.2972 974.732 35.4482C981.339 38.5991 986.523 43.173 990.283 49.17C994.146 55.0653 996.077 62.1803 996.077 70.515C996.077 78.9514 994.146 86.1172 990.283 92.0125C986.523 97.9078 981.339 102.38 974.732 105.429C968.125 108.479 960.604 110.003 952.167 110.003ZM952.167 96.129C957.046 96.129 961.518 95.1634 965.584 93.2322C969.65 91.301 972.852 88.4042 975.189 84.5417C977.629 80.6793 978.848 76.0037 978.848 70.515C978.848 65.0263 977.629 60.3507 975.189 56.4883C972.852 52.6258 969.65 49.6782 965.584 47.6453C961.62 45.5108 957.148 44.4436 952.167 44.4436C947.187 44.4436 942.664 45.46 938.598 47.4929C934.532 49.5257 931.229 52.4734 928.688 56.3358C926.248 60.1982 925.029 64.9246 925.029 70.515C925.029 76.0037 926.248 80.6793 928.688 84.5417C931.127 88.4042 934.38 91.301 938.445 93.2322C942.613 95.1634 947.187 96.129 952.167 96.129ZM1011.22 32.3989H1028.15V108.326L1011.22 108.326V32.3989ZM1055.59 46.883C1050.1 46.883 1045.38 48.0519 1041.41 50.3897C1037.55 52.7275 1034.45 55.5735 1032.11 58.9277C1029.77 62.2819 1028.15 65.5345 1027.23 68.6854L1027.08 60.1474C1027.18 59.0293 1027.54 57.3522 1028.15 55.1161C1028.76 52.7783 1029.67 50.2372 1030.89 47.4929C1032.21 44.7485 1033.94 42.1058 1036.08 39.5647C1038.31 36.922 1041 34.7875 1044.16 33.1612C1047.41 31.5349 1051.22 30.7218 1055.59 30.7218V46.883ZM1096.67 32.3989H1114.82L1145.46 105.277L1130.83 108.326L1096.67 32.3989ZM1181.29 32.3989L1132.5 138.819H1114.67L1135.55 97.1963L1163.15 32.3989H1181.29ZM1230.89 110.003C1222.45 110.003 1214.88 108.479 1208.17 105.429C1201.47 102.38 1196.18 97.9078 1192.32 92.0125C1188.46 86.1172 1186.52 78.9514 1186.52 70.515C1186.52 62.1803 1188.46 55.0653 1192.32 49.17C1196.18 43.173 1201.47 38.5991 1208.17 35.4482C1214.88 32.2972 1222.45 30.7218 1230.89 30.7218C1239.33 30.7218 1246.85 32.2972 1253.46 35.4482C1260.06 38.5991 1265.25 43.173 1269.01 49.17C1272.87 55.0653 1274.8 62.1803 1274.8 70.515C1274.8 78.9514 1272.87 86.1172 1269.01 92.0125C1265.25 97.9078 1260.06 102.38 1253.46 105.429C1246.85 108.479 1239.33 110.003 1230.89 110.003ZM1230.89 96.129C1235.77 96.129 1240.24 95.1634 1244.31 93.2322C1248.37 91.301 1251.58 88.4042 1253.91 84.5417C1256.35 80.6793 1257.57 76.0037 1257.57 70.515C1257.57 65.0263 1256.35 60.3507 1253.91 56.4883C1251.58 52.6258 1248.37 49.6782 1244.31 47.6453C1240.34 45.5108 1235.87 44.4436 1230.89 44.4436C1225.91 44.4436 1221.39 45.46 1217.32 47.4929C1213.26 49.5257 1209.95 52.4734 1207.41 56.3358C1204.97 60.1982 1203.75 64.9246 1203.75 70.515C1203.75 76.0037 1204.97 80.6793 1207.41 84.5417C1209.85 88.4042 1213.1 91.301 1217.17 93.2322C1221.34 95.1634 1225.91 96.129 1230.89 96.129ZM1369.08 108.326H1352.15V32.3989H1369.08V108.326ZM1353.07 72.1921L1353.22 77.071C1353.02 78.3923 1352.56 80.3744 1351.85 83.0171C1351.24 85.6598 1350.17 88.5566 1348.65 91.7075C1347.22 94.7568 1345.29 97.7045 1342.85 100.55C1340.51 103.295 1337.57 105.582 1334.01 107.411C1330.45 109.139 1326.13 110.003 1321.05 110.003C1317.39 110.003 1313.68 109.495 1309.92 108.479C1306.26 107.564 1302.91 105.988 1299.86 103.752C1296.91 101.516 1294.52 98.4668 1292.69 94.6044C1290.86 90.7419 1289.95 85.8631 1289.95 79.9678V32.3989H1306.87V76.766C1306.87 81.5433 1307.63 85.304 1309.16 88.0484C1310.78 90.6911 1313.02 92.5715 1315.87 93.6896C1318.71 94.8077 1322.02 95.3667 1325.78 95.3667C1331.16 95.3667 1335.74 94.147 1339.5 91.7075C1343.26 89.2681 1346.26 86.2697 1348.49 82.7121C1350.83 79.053 1352.36 75.5463 1353.07 72.1921ZM1411.55 77.6808V51.9143H1418.57C1426.8 51.9143 1432.85 50.288 1436.71 47.0355C1440.67 43.7829 1442.66 39.209 1442.66 33.3137C1442.66 27.6217 1440.83 23.2002 1437.17 20.0493C1433.61 16.8983 1428.88 15.3229 1422.99 15.3229C1418.92 15.3229 1415.42 16.0344 1412.47 17.4574C1409.62 18.8804 1407.44 20.8624 1405.91 23.4035C1404.39 25.8429 1403.63 28.6381 1403.63 31.789H1386.7C1386.6 28.7397 1387.01 25.6905 1387.92 22.6412C1388.94 19.5919 1390.41 16.6951 1392.34 13.9507C1394.38 11.2063 1396.87 8.81773 1399.81 6.78487C1402.76 4.75201 1406.22 3.17654 1410.18 2.05847C1414.15 0.838752 1418.62 0.228893 1423.6 0.228893C1429.59 0.228893 1434.83 1.04204 1439.3 2.66833C1443.88 4.29461 1447.69 6.58158 1450.74 9.52923C1453.79 12.4769 1456.07 15.9327 1457.6 19.8968C1459.22 23.8609 1460.04 28.2315 1460.04 33.0087C1460.04 39.4123 1458.61 44.901 1455.77 49.4749C1452.92 53.9472 1449.11 57.4031 1444.33 59.8425C1439.56 62.2819 1434.22 63.7557 1428.32 64.264V77.6808H1411.55ZM1410.03 108.326V91.86H1430.31V108.326H1410.03Z" fill="#D1D5DB"/>
</g>
</svg>
