<svg width="423" height="58" viewBox="0 0 423 58" fill="none" xmlns="http://www.w3.org/2000/svg">
<path d="M10.4106 33L0.710621 10.0114H5.93369L14.1414 30.3707L12.6135 30.4062L20.4304 10.0114H25.8666L33.6835 30.4062L32.1556 30.3707L40.3633 10.0114H45.4798L35.8864 33H30.0948L22.4201 13.0671H23.9124L16.2022 33H10.4106ZM64.2035 33V23.3C64.2035 22.3288 64.0377 21.5235 63.7061 20.8839C63.3745 20.2443 62.8415 19.7588 62.1072 19.4271C61.3966 19.0955 60.4372 18.9297 59.2292 18.9297C58.0685 18.9297 57.0144 19.1547 56.0669 19.6048C55.1194 20.0312 54.3496 20.5997 53.7574 21.3103C53.1652 21.9972 52.8336 22.7315 52.7625 23.5132L52.727 21.559C52.8454 20.7773 53.1178 19.9956 53.5442 19.2139C53.9706 18.4323 54.5391 17.7216 55.2497 17.0821C55.9603 16.4425 56.8131 15.9332 57.8079 15.5542C58.8265 15.1516 59.9635 14.9502 61.2189 14.9502C62.3085 14.9502 63.3152 15.0923 64.2391 15.3766C65.1629 15.6372 65.9682 16.0517 66.6552 16.6202C67.3421 17.1887 67.8751 17.8993 68.2541 18.752C68.6331 19.5811 68.8226 20.5641 68.8226 21.7011V33H64.2035ZM48.3922 33V8.23485H53.0112V33H48.3922ZM81.619 33.3908C79.8661 33.3908 78.2673 33.0118 76.8223 32.2538C75.4011 31.4722 74.2641 30.3944 73.4113 29.0205C72.5823 27.623 72.1678 26.0122 72.1678 24.1883C72.1678 22.317 72.5941 20.6944 73.4469 19.3205C74.2996 17.9467 75.4485 16.8807 76.8934 16.1227C78.362 15.3411 80.0201 14.9502 81.8677 14.9502C83.9048 14.9502 85.5393 15.3647 86.771 16.1938C88.0265 16.9992 88.9384 18.1006 89.5069 19.4982C90.0754 20.8958 90.3597 22.4591 90.3597 24.1883C90.3597 25.2305 90.1938 26.2965 89.8622 27.3861C89.5306 28.452 89.0213 29.4469 88.3344 30.3707C87.6475 31.2708 86.7473 32.0051 85.634 32.5736C84.5207 33.1184 83.1824 33.3908 81.619 33.3908ZM83.1113 29.8377C84.5089 29.8377 85.7169 29.6009 86.7355 29.1271C87.754 28.6534 88.5357 27.9901 89.0805 27.1374C89.6253 26.2846 89.8978 25.3016 89.8978 24.1883C89.8978 22.9802 89.6135 21.9617 89.045 21.1326C88.5002 20.2799 87.7185 19.6403 86.7 19.2139C85.7051 18.7639 84.5089 18.5389 83.1113 18.5389C81.1453 18.5389 79.6174 19.06 78.5278 20.1022C77.4382 21.1208 76.8934 22.4828 76.8934 24.1883C76.8934 25.3253 77.1539 26.3202 77.6751 27.1729C78.1962 28.002 78.9187 28.6534 79.8425 29.1271C80.79 29.6009 81.8796 29.8377 83.1113 29.8377ZM89.8978 15.3411H94.5168V33H90.2175C90.2175 33 90.182 32.775 90.1109 32.3249C90.0636 31.8512 90.0162 31.259 89.9688 30.5484C89.9214 29.8377 89.8978 29.139 89.8978 28.452V15.3411ZM97.4537 15.3411H111.169V18.9297H97.4537V15.3411ZM102.002 10.5088H106.621V33H102.002V10.5088ZM136.957 33.4619C133.902 33.4619 131.284 32.9882 129.105 32.0407C126.949 31.0695 125.291 29.6956 124.131 27.9191C122.994 26.1425 122.425 24.0106 122.425 21.5235C122.425 19.0126 122.994 16.8689 124.131 15.0923C125.291 13.3158 126.949 11.9538 129.105 11.0063C131.284 10.0351 133.902 9.5495 136.957 9.5495C140.037 9.5495 142.654 10.0351 144.81 11.0063C146.965 11.9538 148.611 13.3158 149.748 15.0923C150.909 16.8689 151.489 19.0126 151.489 21.5235C151.489 24.0106 150.909 26.1425 149.748 27.9191C148.611 29.6956 146.965 31.0695 144.81 32.0407C142.654 32.9882 140.037 33.4619 136.957 33.4619ZM136.957 29.3758C138.852 29.3758 140.51 29.0916 141.932 28.5231C143.377 27.9546 144.502 27.09 145.307 25.9293C146.136 24.7686 146.551 23.3 146.551 21.5235C146.551 19.7469 146.136 18.2783 145.307 17.1176C144.502 15.9569 143.377 15.0923 141.932 14.5238C140.51 13.9317 138.852 13.6356 136.957 13.6356C135.086 13.6356 133.416 13.9317 131.947 14.5238C130.479 15.0923 129.33 15.9569 128.501 17.1176C127.672 18.2783 127.257 19.7469 127.257 21.5235C127.257 23.3 127.672 24.7686 128.501 25.9293C129.33 27.09 130.479 27.9546 131.947 28.5231C133.416 29.0916 135.086 29.3758 136.957 29.3758ZM175.929 33H171.31V15.3411H175.929V33ZM171.558 24.5081L171.594 25.7161C171.547 26.0478 171.428 26.5333 171.239 27.1729C171.049 27.7888 170.753 28.452 170.35 29.1626C169.971 29.8733 169.474 30.5602 168.858 31.2234C168.242 31.863 167.484 32.396 166.584 32.8223C165.684 33.225 164.618 33.4264 163.386 33.4264C162.415 33.4264 161.456 33.3079 160.508 33.0711C159.584 32.8342 158.744 32.4433 157.986 31.8985C157.228 31.33 156.624 30.572 156.173 29.6245C155.723 28.6771 155.498 27.4808 155.498 26.0359V15.3411H160.117V25.2542C160.117 26.3912 160.295 27.2913 160.65 27.9546C161.029 28.5941 161.574 29.0442 162.285 29.3048C162.995 29.5653 163.836 29.6956 164.808 29.6956C166.087 29.6956 167.188 29.4232 168.112 28.8784C169.036 28.3099 169.782 27.623 170.35 26.8176C170.943 26.0122 171.345 25.2424 171.558 24.5081ZM180.134 15.3411H184.753V33H180.134V15.3411ZM191.54 19.1429C190.213 19.1429 189.064 19.4034 188.093 19.9246C187.122 20.422 186.34 21.0379 185.748 21.7722C185.156 22.5065 184.741 23.2171 184.504 23.904L184.469 21.9498C184.493 21.6656 184.587 21.2511 184.753 20.7063C184.919 20.1378 185.168 19.5337 185.499 18.8942C185.831 18.2309 186.269 17.6032 186.814 17.011C187.359 16.3951 188.022 15.8977 188.804 15.5187C189.585 15.1397 190.497 14.9502 191.54 14.9502V19.1429ZM224.675 22.8381V10.0114H229.401V23.3356C229.401 24.8515 229.176 26.178 228.726 27.315C228.299 28.452 227.683 29.4114 226.878 30.193C226.073 30.9747 225.125 31.6143 224.036 32.1117C222.97 32.5855 221.797 32.9289 220.518 33.1421C219.263 33.3553 217.936 33.4619 216.539 33.4619C215.094 33.4619 213.72 33.3553 212.417 33.1421C211.114 32.9289 209.918 32.5855 208.828 32.1117C207.762 31.6143 206.839 30.9747 206.057 30.193C205.275 29.4114 204.659 28.452 204.209 27.315C203.783 26.178 203.57 24.8515 203.57 23.3356V10.0114H208.295V22.8381C208.295 24.6384 208.651 26.0122 209.361 26.9597C210.072 27.8835 211.043 28.5231 212.275 28.8784C213.53 29.21 214.951 29.3758 216.539 29.3758C218.078 29.3758 219.452 29.21 220.66 28.8784C221.892 28.5231 222.863 27.8835 223.574 26.9597C224.308 26.0122 224.675 24.6384 224.675 22.8381ZM233.553 27.1374H237.817C238.077 27.9427 238.61 28.606 239.416 29.1271C240.245 29.6245 241.322 29.8733 242.649 29.8733C243.549 29.8733 244.248 29.7904 244.745 29.6245C245.243 29.4587 245.586 29.2219 245.776 28.9139C245.965 28.5823 246.06 28.2151 246.06 27.8125C246.06 27.315 245.906 26.936 245.598 26.6755C245.29 26.3912 244.816 26.1662 244.177 26.0004C243.537 25.8346 242.72 25.6806 241.725 25.5385C240.73 25.3727 239.771 25.1713 238.847 24.9344C237.923 24.6976 237.106 24.3896 236.395 24.0106C235.685 23.608 235.116 23.1105 234.69 22.5183C234.287 21.9025 234.086 21.1563 234.086 20.2799C234.086 19.4271 234.287 18.6691 234.69 18.0059C235.116 17.3426 235.697 16.786 236.431 16.3359C237.189 15.8859 238.065 15.5424 239.06 15.3055C240.079 15.0687 241.168 14.9502 242.329 14.9502C244.082 14.9502 245.539 15.2108 246.699 15.7319C247.86 16.2293 248.725 16.94 249.293 17.8638C249.885 18.7639 250.181 19.8061 250.181 20.9905H246.095C245.906 20.1141 245.527 19.4864 244.958 19.1074C244.39 18.7047 243.513 18.5033 242.329 18.5033C241.168 18.5033 240.292 18.681 239.7 19.0363C239.108 19.3916 238.811 19.8772 238.811 20.4931C238.811 20.9905 238.989 21.3813 239.344 21.6656C239.723 21.9262 240.268 22.1393 240.979 22.3051C241.713 22.471 242.625 22.6486 243.715 22.8381C244.639 23.0276 245.515 23.2408 246.344 23.4777C247.197 23.7145 247.955 24.0225 248.618 24.4015C249.281 24.7568 249.802 25.2424 250.181 25.8583C250.584 26.4504 250.785 27.2084 250.785 28.1322C250.785 29.2692 250.454 30.2286 249.791 31.0103C249.151 31.7919 248.227 32.396 247.019 32.8223C245.811 33.225 244.366 33.4264 242.684 33.4264C241.192 33.4264 239.901 33.2724 238.811 32.9645C237.746 32.6328 236.857 32.2183 236.147 31.7209C235.436 31.1998 234.879 30.6549 234.477 30.0865C234.098 29.4943 233.837 28.9376 233.695 28.4165C233.553 27.8954 233.506 27.469 233.553 27.1374ZM270.415 27.1374H274.892C274.702 28.3454 274.193 29.4232 273.364 30.3707C272.558 31.3182 271.457 32.0643 270.059 32.6092C268.662 33.154 266.956 33.4264 264.943 33.4264C262.693 33.4264 260.703 33.0711 258.974 32.3604C257.245 31.6261 255.894 30.572 254.923 29.1982C253.952 27.8243 253.466 26.1662 253.466 24.2238C253.466 22.2815 253.94 20.6233 254.888 19.2495C255.835 17.8519 257.15 16.786 258.832 16.0517C260.537 15.3174 262.527 14.9502 264.801 14.9502C267.122 14.9502 269.053 15.3174 270.592 16.0517C272.132 16.786 273.269 17.8993 274.003 19.3916C274.761 20.8602 275.081 22.7434 274.963 25.041H258.121C258.239 25.9412 258.571 26.7584 259.116 27.4927C259.684 28.227 260.442 28.8073 261.39 29.2337C262.361 29.6601 263.51 29.8733 264.836 29.8733C266.305 29.8733 267.525 29.6245 268.496 29.1271C269.491 28.606 270.13 27.9427 270.415 27.1374ZM264.588 18.4678C262.882 18.4678 261.496 18.8468 260.43 19.6048C259.365 20.3391 258.678 21.2511 258.37 22.3407H270.379C270.261 21.1563 269.692 20.2207 268.674 19.5337C267.679 18.8231 266.317 18.4678 264.588 18.4678ZM278.4 15.3411H283.019V33H278.4V15.3411ZM289.805 19.1429C288.479 19.1429 287.33 19.4034 286.359 19.9246C285.388 20.422 284.606 21.0379 284.014 21.7722C283.421 22.5065 283.007 23.2171 282.77 23.904L282.735 21.9498C282.758 21.6656 282.853 21.2511 283.019 20.7063C283.185 20.1378 283.433 19.5337 283.765 18.8942C284.097 18.2309 284.535 17.6032 285.08 17.011C285.624 16.3951 286.288 15.8977 287.069 15.5187C287.851 15.1397 288.763 14.9502 289.805 14.9502V19.1429ZM291.95 27.1374H296.214C296.474 27.9427 297.007 28.606 297.813 29.1271C298.642 29.6245 299.72 29.8733 301.046 29.8733C301.946 29.8733 302.645 29.7904 303.142 29.6245C303.64 29.4587 303.983 29.2219 304.173 28.9139C304.362 28.5823 304.457 28.2151 304.457 27.8125C304.457 27.315 304.303 26.936 303.995 26.6755C303.687 26.3912 303.213 26.1662 302.574 26.0004C301.934 25.8346 301.117 25.6806 300.122 25.5385C299.127 25.3727 298.168 25.1713 297.244 24.9344C296.32 24.6976 295.503 24.3896 294.793 24.0106C294.082 23.608 293.514 23.1105 293.087 22.5183C292.684 21.9025 292.483 21.1563 292.483 20.2799C292.483 19.4271 292.684 18.6691 293.087 18.0059C293.514 17.3426 294.094 16.786 294.828 16.3359C295.586 15.8859 296.463 15.5424 297.457 15.3055C298.476 15.0687 299.566 14.9502 300.726 14.9502C302.479 14.9502 303.936 15.2108 305.097 15.7319C306.257 16.2293 307.122 16.94 307.69 17.8638C308.283 18.7639 308.579 19.8061 308.579 20.9905H304.493C304.303 20.1141 303.924 19.4864 303.356 19.1074C302.787 18.7047 301.911 18.5033 300.726 18.5033C299.566 18.5033 298.689 18.681 298.097 19.0363C297.505 19.3916 297.209 19.8772 297.209 20.4931C297.209 20.9905 297.386 21.3813 297.742 21.6656C298.121 21.9262 298.666 22.1393 299.376 22.3051C300.11 22.471 301.022 22.6486 302.112 22.8381C303.036 23.0276 303.912 23.2408 304.741 23.4777C305.594 23.7145 306.352 24.0225 307.015 24.4015C307.679 24.7568 308.2 25.2424 308.579 25.8583C308.981 26.4504 309.183 27.2084 309.183 28.1322C309.183 29.2692 308.851 30.2286 308.188 31.0103C307.548 31.7919 306.624 32.396 305.416 32.8223C304.208 33.225 302.763 33.4264 301.082 33.4264C299.589 33.4264 298.298 33.2724 297.209 32.9645C296.143 32.6328 295.255 32.2183 294.544 31.7209C293.833 31.1998 293.277 30.6549 292.874 30.0865C292.495 29.4943 292.234 28.9376 292.092 28.4165C291.95 27.8954 291.903 27.469 291.95 27.1374Z" fill="white"/>
<path d="M320.363 25.2542H325.16C325.254 26.0596 325.622 26.7939 326.261 27.4572C326.924 28.0967 327.789 28.606 328.855 28.985C329.921 29.3403 331.117 29.518 332.444 29.518C333.652 29.518 334.647 29.3877 335.428 29.1271C336.21 28.8666 336.79 28.4994 337.169 28.0257C337.548 27.5519 337.738 26.9834 337.738 26.3202C337.738 25.6806 337.501 25.195 337.027 24.8634C336.553 24.5081 335.807 24.2238 334.789 24.0106C333.77 23.7738 332.432 23.5369 330.774 23.3C329.471 23.1105 328.239 22.85 327.078 22.5183C325.918 22.163 324.887 21.713 323.987 21.1682C323.111 20.6233 322.412 19.9601 321.891 19.1784C321.393 18.373 321.145 17.4256 321.145 16.3359C321.145 14.9858 321.524 13.8014 322.282 12.7828C323.063 11.7643 324.212 10.9707 325.728 10.4022C327.244 9.83375 329.104 9.5495 331.307 9.5495C334.623 9.5495 337.169 10.2601 338.946 11.6814C340.746 13.0789 341.622 15.0094 341.575 17.4729H336.956C336.861 16.0754 336.269 15.0687 335.18 14.4528C334.114 13.8369 332.763 13.529 331.129 13.529C329.613 13.529 328.358 13.754 327.363 14.2041C326.391 14.6541 325.906 15.424 325.906 16.5136C325.906 16.94 326.024 17.319 326.261 17.6506C326.498 17.9585 326.901 18.2309 327.469 18.4678C328.038 18.7047 328.808 18.9297 329.779 19.1429C330.75 19.3561 331.958 19.5693 333.403 19.7824C334.753 19.9719 335.973 20.2325 337.063 20.5641C338.176 20.8721 339.123 21.2866 339.905 21.8077C340.711 22.3051 341.326 22.9447 341.753 23.7264C342.179 24.5081 342.392 25.4674 342.392 26.6044C342.392 28.002 342.025 29.2219 341.291 30.2641C340.58 31.2827 339.467 32.0762 337.951 32.6447C336.459 33.2132 334.516 33.4974 332.124 33.4974C330.418 33.4974 328.914 33.3198 327.611 32.9645C326.309 32.5855 325.183 32.088 324.236 31.4722C323.288 30.8563 322.519 30.1812 321.926 29.4469C321.334 28.7126 320.908 27.9783 320.647 27.244C320.41 26.5097 320.316 25.8464 320.363 25.2542ZM354.556 33.3908C352.803 33.3908 351.204 33.0118 349.759 32.2538C348.338 31.4722 347.201 30.3944 346.348 29.0205C345.519 27.623 345.105 26.0122 345.105 24.1883C345.105 22.317 345.531 20.6944 346.384 19.3205C347.236 17.9467 348.385 16.8807 349.83 16.1227C351.299 15.3411 352.957 14.9502 354.805 14.9502C356.842 14.9502 358.476 15.3647 359.708 16.1938C360.963 16.9992 361.875 18.1006 362.444 19.4982C363.012 20.8958 363.297 22.4591 363.297 24.1883C363.297 25.2305 363.131 26.2965 362.799 27.3861C362.467 28.452 361.958 29.4469 361.271 30.3707C360.584 31.2708 359.684 32.0051 358.571 32.5736C357.458 33.1184 356.119 33.3908 354.556 33.3908ZM356.048 29.8377C357.446 29.8377 358.654 29.6009 359.672 29.1271C360.691 28.6534 361.473 27.9901 362.017 27.1374C362.562 26.2846 362.835 25.3016 362.835 24.1883C362.835 22.9802 362.55 21.9617 361.982 21.1326C361.437 20.2799 360.655 19.6403 359.637 19.2139C358.642 18.7639 357.446 18.5389 356.048 18.5389C354.082 18.5389 352.554 19.06 351.465 20.1022C350.375 21.1208 349.83 22.4828 349.83 24.1883C349.83 25.3253 350.091 26.3202 350.612 27.1729C351.133 28.002 351.856 28.6534 352.779 29.1271C353.727 29.6009 354.816 29.8377 356.048 29.8377ZM362.835 15.3411H367.454V33H363.154C363.154 33 363.119 32.775 363.048 32.3249C363 31.8512 362.953 31.259 362.906 30.5484C362.858 29.8377 362.835 29.139 362.835 28.452V15.3411ZM370.035 15.3411H374.938L382.578 32.2894L378.598 33L370.035 15.3411ZM391.638 15.3411L379.415 40.1062H374.619L379.842 30.3707L386.699 15.3411H391.638Z" fill="#FFC10F"/>
<path d="M55.5 39C104.637 57.6144 256.539 64.3472 343.756 39" stroke="#FFC00B" stroke-width="3.9479" stroke-linecap="round"/>
<g clip-path="url(#clip0_2054_18416)">
<path d="M418.531 1.55029L421.67 2.65409L395.01 16.0832L418.531 1.55029Z" fill="#FFC00B"/>
<path d="M421.67 2.65381L422.105 4.93826L395.117 16.2473L395.01 16.083L421.67 2.65381Z" fill="#FFC00B"/>
<path d="M396.938 18.799L418.386 11.873L416.409 17.0995L396.938 18.799Z" fill="#FFC00B"/>
<path d="M418.386 11.873L419.233 13.1754L417.256 18.404L416.409 17.0995L418.386 11.873Z" fill="#FFC00B"/>
<path d="M416.409 17.1001L417.257 18.4046L397.068 19.0002L396.938 18.7996L416.409 17.1001Z" fill="#FFC00B"/>
<path d="M402.83 0.18361L408.546 0L394 13.0982L402.83 0.18361Z" fill="#FFC00B"/>
<path d="M408.546 0L409.393 1.30448L394.149 13.3288L394 13.0982L408.546 0Z" fill="#FFC00B"/>
</g>
<defs>
<clipPath id="clip0_2054_18416">
<rect width="28.1051" height="18.9994" fill="white" transform="translate(394)"/>
</clipPath>
</defs>
</svg>
