<svg width="57" height="57" viewBox="0 0 57 57" fill="none" xmlns="http://www.w3.org/2000/svg">
<g clip-path="url(#clip0_19932_78870)">
<rect width="56.9569" height="56.9569" rx="8.37602" fill="#F2FCF2"/>
<path d="M35.5278 40C34.3417 40 33.2041 39.5288 32.3654 38.6901C31.5267 37.8514 31.0556 36.7139 31.0556 35.5278C31.0556 34.3417 31.5267 33.2041 32.3654 32.3654C33.2041 31.5267 34.3417 31.0556 35.5278 31.0556C36.7139 31.0556 37.8514 31.5267 38.6901 32.3654C39.5288 33.2041 40 34.3417 40 35.5278C40 36.7139 39.5288 37.8514 38.6901 38.6901C37.8514 39.5288 36.7139 40 35.5278 40ZM21.4722 25.9444C20.8849 25.9444 20.3034 25.8288 19.7608 25.604C19.2182 25.3793 18.7252 25.0498 18.3099 24.6346C17.8946 24.2193 17.5652 23.7263 17.3404 23.1837C17.1157 22.6411 17 22.0595 17 21.4722C17 20.8849 17.1157 20.3034 17.3404 19.7608C17.5652 19.2182 17.8946 18.7252 18.3099 18.3099C18.7252 17.8946 19.2182 17.5652 19.7608 17.3404C20.3034 17.1157 20.8849 17 21.4722 17C22.6583 17 23.7959 17.4712 24.6346 18.3099C25.4733 19.1486 25.9444 20.2861 25.9444 21.4722C25.9444 22.6583 25.4733 23.7959 24.6346 24.6346C23.7959 25.4733 22.6583 25.9444 21.4722 25.9444ZM37.5352 17.6581L39.3419 19.4648L19.4648 39.3419L17.6581 37.5352L37.5352 17.6581Z" fill="#23A323"/>
</g>
<defs>
<clipPath id="clip0_19932_78870">
<rect width="56.9569" height="56.9569" rx="8.37602" fill="white"/>
</clipPath>
</defs>
</svg>
