<svg width="57" height="57" viewBox="0 0 57 57" fill="none" xmlns="http://www.w3.org/2000/svg">
<g clip-path="url(#clip0_19932_79181)">
<rect y="0.0332031" width="56.9569" height="56.9569" rx="8.37602" fill="#FFFBF0"/>
<path d="M40.6433 24.5664L40.3117 21.3992C39.8315 17.9462 38.2651 16.5398 34.9149 16.5398H32.2165H30.5243H27.0484H25.3562H22.6121C19.2505 16.5398 17.6955 17.9462 17.2039 21.4335L16.8952 24.5778C16.7808 25.8012 17.1124 26.9903 17.8327 27.9165C18.7017 29.0484 20.0395 29.6887 21.5259 29.6887C22.9665 29.6887 24.35 28.9684 25.219 27.8136C25.9965 28.9684 27.3228 29.6887 28.7978 29.6887C30.2728 29.6887 31.5648 29.0027 32.3537 27.8593C33.2342 28.9913 34.5948 29.6887 36.0126 29.6887C37.5333 29.6887 38.9053 29.0141 39.7629 27.825C40.4489 26.9103 40.7576 25.7555 40.6433 24.5664Z" fill="#FFBD00"/>
<path d="M28.0556 34.1577C26.6035 34.3064 25.5059 35.5412 25.5059 37.0048V40.1376C25.5059 40.4464 25.7574 40.6979 26.0661 40.6979H31.5201C31.8288 40.6979 32.0803 40.4464 32.0803 40.1376V37.4049C32.0918 35.0153 30.6854 33.8833 28.0556 34.1577Z" fill="#FFBD00"/>
<path d="M39.512 31.5741V34.9814C39.512 38.1372 36.9508 40.6983 33.7951 40.6983C33.4864 40.6983 33.2348 40.4468 33.2348 40.1381V37.4054C33.2348 35.9419 32.7889 34.7985 31.9199 34.021C31.1539 33.3235 30.1134 32.9805 28.8214 32.9805C28.5355 32.9805 28.2497 32.9919 27.941 33.0262C25.9057 33.232 24.3622 34.9471 24.3622 37.0052V40.1381C24.3622 40.4468 24.1106 40.6983 23.8019 40.6983C20.6461 40.6983 18.085 38.1372 18.085 34.9814V31.597C18.085 30.7966 18.8739 30.2592 19.6171 30.5222C19.9258 30.6251 20.2345 30.7052 20.5547 30.7509C20.6919 30.7738 20.8405 30.7966 20.9777 30.7966C21.1607 30.8195 21.3436 30.8309 21.5266 30.8309C22.8529 30.8309 24.1563 30.3393 25.1854 29.4932C26.1687 30.3393 27.4493 30.8309 28.7985 30.8309C30.1591 30.8309 31.4168 30.3621 32.4002 29.516C33.4292 30.3507 34.7098 30.8309 36.0133 30.8309C36.2191 30.8309 36.4249 30.8195 36.6193 30.7966C36.7565 30.7852 36.8822 30.7738 37.008 30.7509C37.3625 30.7052 37.6826 30.6022 38.0028 30.4993C38.746 30.2478 39.512 30.7966 39.512 31.5741Z" fill="#FFBD00"/>
</g>
<defs>
<clipPath id="clip0_19932_79181">
<rect y="0.0332031" width="56.9569" height="56.9569" rx="8.37602" fill="white"/>
</clipPath>
</defs>
</svg>
