<svg width="57" height="58" viewBox="0 0 57 58" fill="none" xmlns="http://www.w3.org/2000/svg">
<g clip-path="url(#clip0_19935_87969)">
<rect y="0.0664062" width="56.9569" height="56.9569" rx="8.37602" fill="#F0F6FF"/>
<g clip-path="url(#clip1_19935_87969)">
<path d="M37.5318 28.0259H19.9839C19.1029 28.0259 18.3887 28.7401 18.3887 29.6211V37.5974C18.3887 38.4785 19.1029 39.1927 19.9839 39.1927H37.5318C38.4129 39.1927 39.1271 38.4785 39.1271 37.5974V29.6211C39.1271 28.7401 38.4129 28.0259 37.5318 28.0259Z" stroke="#2D7EFD" stroke-width="1.59526" stroke-linecap="round" stroke-linejoin="round"/>
<path d="M23.1738 20.847V24.0375M28.7572 18.4541V24.0375M34.3407 20.847V24.0375" stroke="#2D7EFD" stroke-width="1.59526" stroke-linecap="round" stroke-linejoin="round"/>
<path d="M28.7572 36.0021C30.0787 36.0021 31.15 34.9308 31.15 33.6092C31.15 32.2876 30.0787 31.2163 28.7572 31.2163C27.4356 31.2163 26.3643 32.2876 26.3643 33.6092C26.3643 34.9308 27.4356 36.0021 28.7572 36.0021Z" stroke="#2D7EFD" stroke-width="1.59526" stroke-linecap="round" stroke-linejoin="round"/>
</g>
</g>
<defs>
<clipPath id="clip0_19935_87969">
<rect y="0.0664062" width="56.9569" height="56.9569" rx="8.37602" fill="white"/>
</clipPath>
<clipPath id="clip1_19935_87969">
<rect width="22.3337" height="22.3337" fill="white" transform="translate(17.5898 17.6562)"/>
</clipPath>
</defs>
</svg>
