<svg width="57" height="58" viewBox="0 0 57 58" fill="none" xmlns="http://www.w3.org/2000/svg">
<g clip-path="url(#clip0_19935_89347)">
<rect y="0.0996094" width="56.9569" height="56.9569" rx="8.37602" fill="#FFF5F0"/>
<g clip-path="url(#clip1_19935_89347)">
<path d="M28.4412 23.2461C27.5274 23.2461 26.6341 23.5171 25.8743 24.0248C25.1145 24.5325 24.5223 25.2541 24.1726 26.0984C23.8228 26.9426 23.7313 27.8716 23.9096 28.7679C24.0879 29.6642 24.528 30.4874 25.1741 31.1336C25.8203 31.7798 26.6436 32.2198 27.5398 32.3981C28.4361 32.5764 29.3651 32.4849 30.2094 32.1352C31.0536 31.7855 31.7752 31.1933 32.2829 30.4334C32.7906 29.6736 33.0616 28.7803 33.0616 27.8665C33.0616 26.6411 32.5748 25.4659 31.7083 24.5994C30.8418 23.7329 29.6666 23.2461 28.4412 23.2461ZM28.4412 30.6387C27.8929 30.6387 27.357 30.4761 26.9011 30.1715C26.4452 29.8669 26.0898 29.4339 25.88 28.9274C25.6702 28.4208 25.6153 27.8634 25.7223 27.3257C25.8292 26.7879 26.0933 26.2939 26.481 25.9062C26.8687 25.5185 27.3626 25.2545 27.9004 25.1475C28.4382 25.0406 28.9956 25.0955 29.5021 25.3053C30.0087 25.5151 30.4416 25.8704 30.7463 26.3263C31.0509 26.7822 31.2135 27.3182 31.2135 27.8665C31.2135 28.6017 30.9214 29.3069 30.4015 29.8268C29.8816 30.3467 29.1765 30.6387 28.4412 30.6387ZM41.3783 19.5498H15.5042C15.2591 19.5498 15.024 19.6472 14.8507 19.8205C14.6774 19.9938 14.5801 20.2288 14.5801 20.4739V35.2591C14.5801 35.5042 14.6774 35.7392 14.8507 35.9125C15.024 36.0858 15.2591 36.1832 15.5042 36.1832H41.3783C41.6234 36.1832 41.8584 36.0858 42.0317 35.9125C42.205 35.7392 42.3024 35.5042 42.3024 35.2591V20.4739C42.3024 20.2288 42.205 19.9938 42.0317 19.8205C41.8584 19.6472 41.6234 19.5498 41.3783 19.5498ZM36.0244 34.335H20.858C20.5478 33.2857 19.9799 32.3308 19.2062 31.557C18.4325 30.7833 17.4775 30.2155 16.4282 29.9052V25.8278C17.4775 25.5175 18.4325 24.9497 19.2062 24.1759C19.9799 23.4022 20.5478 22.4472 20.858 21.398H36.0244C36.3347 22.4472 36.9025 23.4022 37.6762 24.1759C38.45 24.9497 39.4049 25.5175 40.4542 25.8278V29.9052C39.4049 30.2155 38.45 30.7833 37.6762 31.557C36.9025 32.3308 36.3347 33.2857 36.0244 34.335ZM40.4542 23.8664C39.3458 23.3898 38.4624 22.5063 37.9858 21.398H40.4542V23.8664ZM18.8967 21.398C18.4201 22.5063 17.5366 23.3898 16.4282 23.8664V21.398H18.8967ZM16.4282 31.8666C17.5366 32.3432 18.4201 33.2266 18.8967 34.335H16.4282V31.8666ZM37.9858 34.335C38.4624 33.2266 39.3458 32.3432 40.4542 31.8666V34.335H37.9858Z" fill="#FF823B"/>
</g>
</g>
<defs>
<clipPath id="clip0_19935_89347">
<rect y="0.0996094" width="56.9569" height="56.9569" rx="8.37602" fill="white"/>
</clipPath>
<clipPath id="clip1_19935_89347">
<rect width="29.5705" height="29.5705" fill="white" transform="translate(15.0771 13.501)"/>
</clipPath>
</defs>
</svg>
