<svg width="486" height="201" viewBox="0 0 486 201" fill="none" xmlns="http://www.w3.org/2000/svg">
<path d="M16.115 54L1.1 18.415H9.185L21.89 49.93L19.525 49.985L31.625 18.415H40.04L52.14 49.985L49.775 49.93L62.48 18.415H70.4L55.55 54H46.585L34.705 23.145H37.015L25.08 54H16.115ZM99.3833 54V38.985C99.3833 37.4817 99.1266 36.235 98.6133 35.245C98.0999 34.255 97.2749 33.5033 96.1383 32.99C95.0383 32.4767 93.5533 32.22 91.6833 32.22C89.8866 32.22 88.2549 32.5683 86.7883 33.265C85.3216 33.925 84.1299 34.805 83.2133 35.905C82.2966 36.9683 81.7833 38.105 81.6733 39.315L81.6183 36.29C81.8016 35.08 82.2233 33.87 82.8833 32.66C83.5433 31.45 84.4233 30.35 85.5233 29.36C86.6233 28.37 87.9433 27.5817 89.4833 26.995C91.0599 26.3717 92.8199 26.06 94.7633 26.06C96.4499 26.06 98.0083 26.28 99.4383 26.72C100.868 27.1233 102.115 27.765 103.178 28.645C104.242 29.525 105.067 30.625 105.653 31.945C106.24 33.2283 106.533 34.75 106.533 36.51V54H99.3833ZM74.9083 54V15.665H82.0583V54H74.9083ZM110.019 26.665H117.609L129.434 52.9L123.274 54L110.019 26.665ZM143.459 26.665L124.539 65H117.114L125.199 49.93L135.814 26.665H143.459ZM159.788 44.925H166.388C166.791 46.1717 167.616 47.1983 168.863 48.005C170.146 48.775 171.815 49.16 173.868 49.16C175.261 49.16 176.343 49.0317 177.113 48.775C177.883 48.5183 178.415 48.1517 178.708 47.675C179.001 47.1617 179.148 46.5933 179.148 45.97C179.148 45.2 178.91 44.6133 178.433 44.21C177.956 43.77 177.223 43.4217 176.233 43.165C175.243 42.9083 173.978 42.67 172.438 42.45C170.898 42.1933 169.413 41.8817 167.983 41.515C166.553 41.1483 165.288 40.6717 164.188 40.085C163.088 39.4617 162.208 38.6917 161.548 37.775C160.925 36.8217 160.613 35.6667 160.613 34.31C160.613 32.99 160.925 31.8167 161.548 30.79C162.208 29.7633 163.106 28.9017 164.243 28.205C165.416 27.5083 166.773 26.9767 168.313 26.61C169.89 26.2433 171.576 26.06 173.373 26.06C176.086 26.06 178.341 26.4633 180.138 27.27C181.935 28.04 183.273 29.14 184.153 30.57C185.07 31.9633 185.528 33.5767 185.528 35.41H179.203C178.91 34.0533 178.323 33.0817 177.443 32.495C176.563 31.8717 175.206 31.56 173.373 31.56C171.576 31.56 170.22 31.835 169.303 32.385C168.386 32.935 167.928 33.6867 167.928 34.64C167.928 35.41 168.203 36.015 168.753 36.455C169.34 36.8583 170.183 37.1883 171.283 37.445C172.42 37.7017 173.831 37.9767 175.518 38.27C176.948 38.5633 178.305 38.8933 179.588 39.26C180.908 39.6267 182.081 40.1033 183.108 40.69C184.135 41.24 184.941 41.9917 185.528 42.945C186.151 43.8617 186.463 45.035 186.463 46.465C186.463 48.225 185.95 49.71 184.923 50.92C183.933 52.13 182.503 53.065 180.633 53.725C178.763 54.3483 176.526 54.66 173.923 54.66C171.613 54.66 169.615 54.4217 167.928 53.945C166.278 53.4317 164.903 52.79 163.803 52.02C162.703 51.2133 161.841 50.37 161.218 49.49C160.631 48.5733 160.228 47.7117 160.008 46.905C159.788 46.0983 159.715 45.4383 159.788 44.925ZM190.008 26.665H211.238V32.22H190.008V26.665ZM197.048 19.185H204.198V54H197.048V19.185ZM231.519 54.66C228.073 54.66 225.029 54.11 222.389 53.01C219.786 51.91 217.751 50.315 216.284 48.225C214.818 46.0983 214.084 43.495 214.084 40.415C214.084 37.335 214.818 34.7317 216.284 32.605C217.751 30.4417 219.786 28.81 222.389 27.71C225.029 26.61 228.073 26.06 231.519 26.06C234.966 26.06 237.973 26.61 240.539 27.71C243.143 28.81 245.178 30.4417 246.644 32.605C248.111 34.7317 248.844 37.335 248.844 40.415C248.844 43.495 248.111 46.0983 246.644 48.225C245.178 50.315 243.143 51.91 240.539 53.01C237.973 54.11 234.966 54.66 231.519 54.66ZM231.519 49.16C233.426 49.16 235.131 48.83 236.634 48.17C238.174 47.4733 239.384 46.4833 240.264 45.2C241.144 43.88 241.584 42.285 241.584 40.415C241.584 38.545 241.144 36.95 240.264 35.63C239.384 34.2733 238.193 33.2467 236.689 32.55C235.186 31.8533 233.463 31.505 231.519 31.505C229.613 31.505 227.889 31.8533 226.349 32.55C224.809 33.2467 223.581 34.255 222.664 35.575C221.784 36.895 221.344 38.5083 221.344 40.415C221.344 42.285 221.784 43.88 222.664 45.2C223.544 46.4833 224.754 47.4733 226.294 48.17C227.834 48.83 229.576 49.16 231.519 49.16ZM274.04 54.66C271.62 54.66 269.548 54.2383 267.825 53.395C266.138 52.515 264.763 51.3783 263.7 49.985C262.637 48.555 261.848 46.9967 261.335 45.31C260.822 43.6233 260.565 41.9733 260.565 40.36C260.565 38.3433 260.803 36.4733 261.28 34.75C261.793 33.0267 262.582 31.5233 263.645 30.24C264.708 28.92 266.083 27.8933 267.77 27.16C269.493 26.4267 271.583 26.06 274.04 26.06C276.79 26.06 279.265 26.665 281.465 27.875C283.665 29.085 285.407 30.7717 286.69 32.935C288.01 35.0617 288.67 37.5367 288.67 40.36C288.67 43.2567 288.01 45.7867 286.69 47.95C285.37 50.0767 283.61 51.7267 281.41 52.9C279.21 54.0733 276.753 54.66 274.04 54.66ZM271.73 49.105C273.673 49.105 275.36 48.7383 276.79 48.005C278.257 47.2717 279.375 46.2633 280.145 44.98C280.952 43.66 281.355 42.12 281.355 40.36C281.355 37.72 280.512 35.5933 278.825 33.98C277.175 32.3667 274.81 31.56 271.73 31.56C269.787 31.56 268.008 31.9083 266.395 32.605C264.818 33.3017 263.572 34.31 262.655 35.63C261.738 36.9133 261.28 38.49 261.28 40.36C261.28 42.12 261.702 43.66 262.545 44.98C263.388 46.2633 264.598 47.2717 266.175 48.005C267.752 48.7383 269.603 49.105 271.73 49.105ZM254.13 26.665H260.95L261.28 33.925V65H254.13V26.665Z" fill="#FFAB37"/>
<path d="M342.836 49.05L340.581 48.995L349.491 26.665H357.356L345.311 54H338.601L329.801 31.945H332.221L323.146 54H316.436L304.721 26.665H312.586L321.166 49.05H318.911L326.941 26.665H335.136L342.836 49.05ZM386.522 54V38.985C386.522 37.4817 386.265 36.235 385.752 35.245C385.239 34.255 384.414 33.5033 383.277 32.99C382.177 32.4767 380.692 32.22 378.822 32.22C377.025 32.22 375.394 32.5683 373.927 33.265C372.46 33.925 371.269 34.805 370.352 35.905C369.435 36.9683 368.922 38.105 368.812 39.315L368.757 36.29C368.94 35.08 369.362 33.87 370.022 32.66C370.682 31.45 371.562 30.35 372.662 29.36C373.762 28.37 375.082 27.5817 376.622 26.995C378.199 26.3717 379.959 26.06 381.902 26.06C383.589 26.06 385.147 26.28 386.577 26.72C388.007 27.1233 389.254 27.765 390.317 28.645C391.38 29.525 392.205 30.625 392.792 31.945C393.379 33.2283 393.672 34.75 393.672 36.51V54H386.522ZM362.047 54V15.665H369.197V54H362.047ZM425.085 44.925H432.015C431.722 46.795 430.933 48.4633 429.65 49.93C428.403 51.3967 426.698 52.5517 424.535 53.395C422.372 54.2383 419.732 54.66 416.615 54.66C413.132 54.66 410.052 54.11 407.375 53.01C404.698 51.8733 402.608 50.2417 401.105 48.115C399.602 45.9883 398.85 43.4217 398.85 40.415C398.85 37.4083 399.583 34.8417 401.05 32.715C402.517 30.5517 404.552 28.9017 407.155 27.765C409.795 26.6283 412.875 26.06 416.395 26.06C419.988 26.06 422.977 26.6283 425.36 27.765C427.743 28.9017 429.503 30.625 430.64 32.935C431.813 35.2083 432.308 38.1233 432.125 41.68H406.055C406.238 43.0733 406.752 44.3383 407.595 45.475C408.475 46.6117 409.648 47.51 411.115 48.17C412.618 48.83 414.397 49.16 416.45 49.16C418.723 49.16 420.612 48.775 422.115 48.005C423.655 47.1983 424.645 46.1717 425.085 44.925ZM416.065 31.505C413.425 31.505 411.28 32.0917 409.63 33.265C407.98 34.4017 406.917 35.8133 406.44 37.5H425.03C424.847 35.6667 423.967 34.2183 422.39 33.155C420.85 32.055 418.742 31.505 416.065 31.505ZM437.446 26.665H444.596V54H437.446V26.665ZM457.301 26.06C458.987 26.06 460.546 26.28 461.976 26.72C463.406 27.16 464.652 27.8383 465.716 28.755C466.779 29.6717 467.604 30.845 468.191 32.275C468.777 33.6683 469.071 35.3367 469.071 37.28V54H461.921V38.545C461.921 36.235 461.352 34.5483 460.216 33.485C459.116 32.385 457.301 31.835 454.771 31.835C452.864 31.835 451.141 32.2017 449.601 32.935C448.061 33.6683 446.814 34.6033 445.861 35.74C444.907 36.84 444.357 37.995 444.211 39.205L444.156 36.4C444.339 35.1167 444.761 33.87 445.421 32.66C446.081 31.45 446.961 30.35 448.061 29.36C449.197 28.3333 450.536 27.5267 452.076 26.94C453.616 26.3533 455.357 26.06 457.301 26.06ZM0.825 92.665H8.415L20.24 118.9L14.08 120L0.825 92.665ZM34.265 92.665L15.345 131H7.92L16.005 115.93L26.62 92.665H34.265ZM53.3066 120.66C49.8599 120.66 46.8166 120.11 44.1766 119.01C41.5733 117.91 39.5383 116.315 38.0716 114.225C36.6049 112.098 35.8716 109.495 35.8716 106.415C35.8716 103.335 36.6049 100.732 38.0716 98.605C39.5383 96.4417 41.5733 94.81 44.1766 93.71C46.8166 92.61 49.8599 92.06 53.3066 92.06C56.7533 92.06 59.7599 92.61 62.3266 93.71C64.9299 94.81 66.9649 96.4417 68.4316 98.605C69.8983 100.732 70.6316 103.335 70.6316 106.415C70.6316 109.495 69.8983 112.098 68.4316 114.225C66.9649 116.315 64.9299 117.91 62.3266 119.01C59.7599 120.11 56.7533 120.66 53.3066 120.66ZM53.3066 115.16C55.2133 115.16 56.9183 114.83 58.4216 114.17C59.9616 113.473 61.1716 112.483 62.0516 111.2C62.9316 109.88 63.3716 108.285 63.3716 106.415C63.3716 104.545 62.9316 102.95 62.0516 101.63C61.1716 100.273 59.9799 99.2467 58.4766 98.55C56.9733 97.8533 55.2499 97.505 53.3066 97.505C51.3999 97.505 49.6766 97.8533 48.1366 98.55C46.5966 99.2467 45.3683 100.255 44.4516 101.575C43.5716 102.895 43.1316 104.508 43.1316 106.415C43.1316 108.285 43.5716 109.88 44.4516 111.2C45.3316 112.483 46.5416 113.473 48.0816 114.17C49.6216 114.83 51.3633 115.16 53.3066 115.16ZM107.542 120H100.392V92.665H107.542V120ZM100.777 106.855L100.832 108.725C100.759 109.238 100.576 109.99 100.282 110.98C99.9889 111.933 99.5305 112.96 98.9072 114.06C98.3205 115.16 97.5505 116.223 96.5972 117.25C95.6439 118.24 94.4705 119.065 93.0772 119.725C91.6839 120.348 90.0339 120.66 88.1272 120.66C86.6239 120.66 85.1389 120.477 83.6722 120.11C82.2422 119.743 80.9405 119.138 79.7672 118.295C78.5939 117.415 77.6589 116.242 76.9622 114.775C76.2655 113.308 75.9172 111.457 75.9172 109.22V92.665H83.0672V108.01C83.0672 109.77 83.3422 111.163 83.8922 112.19C84.4789 113.18 85.3222 113.877 86.4222 114.28C87.5222 114.683 88.8239 114.885 90.3272 114.885C92.3072 114.885 94.0122 114.463 95.4422 113.62C96.8722 112.74 98.0272 111.677 98.9072 110.43C99.8239 109.183 100.447 107.992 100.777 106.855ZM159.769 109.22C159.585 111.603 158.815 113.657 157.459 115.38C156.139 117.103 154.305 118.423 151.959 119.34C149.612 120.22 146.825 120.66 143.599 120.66C140.225 120.66 137.2 120.128 134.524 119.065C131.884 117.965 129.794 116.37 128.254 114.28C126.75 112.153 125.999 109.532 125.999 106.415C125.999 103.298 126.75 100.677 128.254 98.55C129.794 96.4233 131.884 94.81 134.524 93.71C137.2 92.61 140.225 92.06 143.599 92.06C146.825 92.06 149.594 92.5183 151.904 93.435C154.214 94.315 156.029 95.5983 157.349 97.285C158.705 98.9717 159.494 101.007 159.714 103.39H153.169C152.545 101.557 151.39 100.127 149.704 99.1C148.017 98.0733 145.982 97.56 143.599 97.56C141.692 97.56 139.95 97.89 138.374 98.55C136.834 99.21 135.587 100.2 134.634 101.52C133.717 102.803 133.259 104.435 133.259 106.415C133.259 108.358 133.717 109.99 134.634 111.31C135.55 112.593 136.797 113.565 138.374 114.225C139.95 114.848 141.692 115.16 143.599 115.16C146.165 115.16 148.255 114.647 149.869 113.62C151.519 112.593 152.637 111.127 153.224 109.22H159.769ZM178.334 120.605C175.62 120.605 173.145 120.018 170.909 118.845C168.709 117.635 166.949 115.967 165.629 113.84C164.345 111.677 163.704 109.183 163.704 106.36C163.704 103.463 164.364 100.952 165.684 98.825C167.004 96.6983 168.782 95.0483 171.019 93.875C173.292 92.665 175.859 92.06 178.719 92.06C181.872 92.06 184.402 92.7017 186.309 93.985C188.252 95.2317 189.664 96.9367 190.544 99.1C191.424 101.263 191.864 103.683 191.864 106.36C191.864 107.973 191.607 109.623 191.094 111.31C190.58 112.96 189.792 114.5 188.729 115.93C187.665 117.323 186.272 118.46 184.549 119.34C182.825 120.183 180.754 120.605 178.334 120.605ZM180.644 115.105C182.807 115.105 184.677 114.738 186.254 114.005C187.83 113.272 189.04 112.245 189.884 110.925C190.727 109.605 191.149 108.083 191.149 106.36C191.149 104.49 190.709 102.913 189.829 101.63C188.985 100.31 187.775 99.32 186.199 98.66C184.659 97.9633 182.807 97.615 180.644 97.615C177.6 97.615 175.235 98.4217 173.549 100.035C171.862 101.612 171.019 103.72 171.019 106.36C171.019 108.12 171.422 109.66 172.229 110.98C173.035 112.263 174.154 113.272 175.584 114.005C177.05 114.738 178.737 115.105 180.644 115.105ZM191.149 92.665H198.299V120H191.644C191.644 120 191.589 119.652 191.479 118.955C191.405 118.222 191.332 117.305 191.259 116.205C191.185 115.105 191.149 114.023 191.149 112.96V92.665ZM204.77 92.665H211.92V120H204.77V92.665ZM224.625 92.06C226.311 92.06 227.87 92.28 229.3 92.72C230.73 93.16 231.976 93.8383 233.04 94.755C234.103 95.6717 234.928 96.845 235.515 98.275C236.101 99.6683 236.395 101.337 236.395 103.28V120H229.245V104.545C229.245 102.235 228.676 100.548 227.54 99.485C226.44 98.385 224.625 97.835 222.095 97.835C220.188 97.835 218.465 98.2017 216.925 98.935C215.385 99.6683 214.138 100.603 213.185 101.74C212.231 102.84 211.681 103.995 211.535 105.205L211.48 102.4C211.663 101.117 212.085 99.87 212.745 98.66C213.405 97.45 214.285 96.35 215.385 95.36C216.521 94.3333 217.86 93.5267 219.4 92.94C220.94 92.3533 222.681 92.06 224.625 92.06ZM269.481 120.605C266.731 120.605 264.238 120.018 262.001 118.845C259.801 117.635 258.059 115.967 256.776 113.84C255.493 111.677 254.851 109.183 254.851 106.36C254.851 103.463 255.474 100.952 256.721 98.825C258.004 96.6983 259.746 95.0483 261.946 93.875C264.146 92.665 266.658 92.06 269.481 92.06C271.938 92.06 274.028 92.4267 275.751 93.16C277.474 93.8933 278.868 94.92 279.931 96.24C280.994 97.5233 281.764 99.0267 282.241 100.75C282.754 102.473 283.011 104.343 283.011 106.36C283.011 107.973 282.754 109.623 282.241 111.31C281.728 112.96 280.939 114.5 279.876 115.93C278.813 117.323 277.419 118.46 275.696 119.34C273.973 120.183 271.901 120.605 269.481 120.605ZM271.791 115.105C273.954 115.105 275.824 114.738 277.401 114.005C278.978 113.272 280.188 112.245 281.031 110.925C281.874 109.605 282.296 108.083 282.296 106.36C282.296 104.49 281.856 102.913 280.976 101.63C280.133 100.31 278.923 99.3017 277.346 98.605C275.806 97.9083 273.954 97.56 271.791 97.56C268.748 97.56 266.383 98.3667 264.696 99.98C263.009 101.593 262.166 103.72 262.166 106.36C262.166 108.12 262.569 109.66 263.376 110.98C264.183 112.263 265.301 113.272 266.731 114.005C268.198 114.738 269.884 115.105 271.791 115.105ZM282.296 81.665H289.446V120H282.791C282.681 119.157 282.571 118.075 282.461 116.755C282.351 115.398 282.296 114.133 282.296 112.96V81.665ZM313.268 120.66C309.821 120.66 306.778 120.11 304.138 119.01C301.534 117.91 299.499 116.315 298.033 114.225C296.566 112.098 295.833 109.495 295.833 106.415C295.833 103.335 296.566 100.732 298.033 98.605C299.499 96.4417 301.534 94.81 304.138 93.71C306.778 92.61 309.821 92.06 313.268 92.06C316.714 92.06 319.721 92.61 322.288 93.71C324.891 94.81 326.926 96.4417 328.393 98.605C329.859 100.732 330.593 103.335 330.593 106.415C330.593 109.495 329.859 112.098 328.393 114.225C326.926 116.315 324.891 117.91 322.288 119.01C319.721 120.11 316.714 120.66 313.268 120.66ZM313.268 115.16C315.174 115.16 316.879 114.83 318.383 114.17C319.923 113.473 321.133 112.483 322.013 111.2C322.893 109.88 323.333 108.285 323.333 106.415C323.333 104.545 322.893 102.95 322.013 101.63C321.133 100.273 319.941 99.2467 318.438 98.55C316.934 97.8533 315.211 97.505 313.268 97.505C311.361 97.505 309.638 97.8533 308.098 98.55C306.558 99.2467 305.329 100.255 304.413 101.575C303.533 102.895 303.093 104.508 303.093 106.415C303.093 108.285 303.533 109.88 304.413 111.2C305.293 112.483 306.503 113.473 308.043 114.17C309.583 114.83 311.324 115.16 313.268 115.16ZM348.045 110.925H354.645C355.048 112.172 355.873 113.198 357.12 114.005C358.403 114.775 360.071 115.16 362.125 115.16C363.518 115.16 364.6 115.032 365.37 114.775C366.14 114.518 366.671 114.152 366.965 113.675C367.258 113.162 367.405 112.593 367.405 111.97C367.405 111.2 367.166 110.613 366.69 110.21C366.213 109.77 365.48 109.422 364.49 109.165C363.5 108.908 362.235 108.67 360.695 108.45C359.155 108.193 357.67 107.882 356.24 107.515C354.81 107.148 353.545 106.672 352.445 106.085C351.345 105.462 350.465 104.692 349.805 103.775C349.181 102.822 348.87 101.667 348.87 100.31C348.87 98.99 349.181 97.8167 349.805 96.79C350.465 95.7633 351.363 94.9017 352.5 94.205C353.673 93.5083 355.03 92.9767 356.57 92.61C358.146 92.2433 359.833 92.06 361.63 92.06C364.343 92.06 366.598 92.4633 368.395 93.27C370.191 94.04 371.53 95.14 372.41 96.57C373.326 97.9633 373.785 99.5767 373.785 101.41H367.46C367.166 100.053 366.58 99.0817 365.7 98.495C364.82 97.8717 363.463 97.56 361.63 97.56C359.833 97.56 358.476 97.835 357.56 98.385C356.643 98.935 356.185 99.6867 356.185 100.64C356.185 101.41 356.46 102.015 357.01 102.455C357.596 102.858 358.44 103.188 359.54 103.445C360.676 103.702 362.088 103.977 363.775 104.27C365.205 104.563 366.561 104.893 367.845 105.26C369.165 105.627 370.338 106.103 371.365 106.69C372.391 107.24 373.198 107.992 373.785 108.945C374.408 109.862 374.72 111.035 374.72 112.465C374.72 114.225 374.206 115.71 373.18 116.92C372.19 118.13 370.76 119.065 368.89 119.725C367.02 120.348 364.783 120.66 362.18 120.66C359.87 120.66 357.871 120.422 356.185 119.945C354.535 119.432 353.16 118.79 352.06 118.02C350.96 117.213 350.098 116.37 349.475 115.49C348.888 114.573 348.485 113.712 348.265 112.905C348.045 112.098 347.971 111.438 348.045 110.925ZM396.305 120.66C392.858 120.66 389.815 120.11 387.175 119.01C384.571 117.91 382.536 116.315 381.07 114.225C379.603 112.098 378.87 109.495 378.87 106.415C378.87 103.335 379.603 100.732 381.07 98.605C382.536 96.4417 384.571 94.81 387.175 93.71C389.815 92.61 392.858 92.06 396.305 92.06C399.751 92.06 402.758 92.61 405.325 93.71C407.928 94.81 409.963 96.4417 411.43 98.605C412.896 100.732 413.63 103.335 413.63 106.415C413.63 109.495 412.896 112.098 411.43 114.225C409.963 116.315 407.928 117.91 405.325 119.01C402.758 120.11 399.751 120.66 396.305 120.66ZM396.305 115.16C398.211 115.16 399.916 114.83 401.42 114.17C402.96 113.473 404.17 112.483 405.05 111.2C405.93 109.88 406.37 108.285 406.37 106.415C406.37 104.545 405.93 102.95 405.05 101.63C404.17 100.273 402.978 99.2467 401.475 98.55C399.971 97.8533 398.248 97.505 396.305 97.505C394.398 97.505 392.675 97.8533 391.135 98.55C389.595 99.2467 388.366 100.255 387.45 101.575C386.57 102.895 386.13 104.508 386.13 106.415C386.13 108.285 386.57 109.88 387.45 111.2C388.33 112.483 389.54 113.473 391.08 114.17C392.62 114.83 394.361 115.16 396.305 115.16ZM3.3 158.665H10.45V186H3.3V158.665ZM23.155 158.06C24.8417 158.06 26.4 158.28 27.83 158.72C29.26 159.16 30.5067 159.838 31.57 160.755C32.6333 161.672 33.4583 162.845 34.045 164.275C34.6317 165.668 34.925 167.337 34.925 169.28V186H27.775V170.545C27.775 168.235 27.2067 166.548 26.07 165.485C24.97 164.385 23.155 163.835 20.625 163.835C18.7183 163.835 16.995 164.202 15.455 164.935C13.915 165.668 12.6683 166.603 11.715 167.74C10.7617 168.84 10.2117 169.995 10.065 171.205L10.01 168.4C10.1933 167.117 10.615 165.87 11.275 164.66C11.935 163.45 12.815 162.35 13.915 161.36C15.0517 160.333 16.39 159.527 17.93 158.94C19.47 158.353 21.2117 158.06 23.155 158.06ZM46.97 158.06C48.6567 158.06 50.215 158.28 51.645 158.72C53.075 159.16 54.3217 159.838 55.385 160.755C56.4483 161.672 57.2733 162.845 57.86 164.275C58.4833 165.668 58.795 167.337 58.795 169.28V186H51.645V170.545C51.645 168.235 51.0767 166.548 49.94 165.485C48.8033 164.385 46.97 163.835 44.44 163.835C42.5333 163.835 40.81 164.202 39.27 164.935C37.73 165.668 36.4833 166.603 35.53 167.74C34.5767 168.84 34.045 169.995 33.935 171.205L33.825 168.235C34.0083 167.025 34.4483 165.815 35.145 164.605C35.8417 163.395 36.7583 162.295 37.895 161.305C39.0317 160.315 40.3517 159.527 41.855 158.94C43.395 158.353 45.1 158.06 46.97 158.06ZM96.9074 186H89.7574V158.665H96.9074V186ZM90.1424 172.855L90.1974 174.725C90.1241 175.238 89.9408 175.99 89.6474 176.98C89.3541 177.933 88.8958 178.96 88.2724 180.06C87.6858 181.16 86.9158 182.223 85.9624 183.25C85.0091 184.24 83.8358 185.065 82.4424 185.725C81.0491 186.348 79.3991 186.66 77.4924 186.66C75.9891 186.66 74.5041 186.477 73.0374 186.11C71.6074 185.743 70.3058 185.138 69.1324 184.295C67.9591 183.415 67.0241 182.242 66.3274 180.775C65.6308 179.308 65.2824 177.457 65.2824 175.22V158.665H72.4324V174.01C72.4324 175.77 72.7074 177.163 73.2574 178.19C73.8441 179.18 74.6874 179.877 75.7874 180.28C76.8874 180.683 78.1891 180.885 79.6924 180.885C81.6724 180.885 83.3774 180.463 84.8074 179.62C86.2374 178.74 87.3924 177.677 88.2724 176.43C89.1891 175.183 89.8124 173.992 90.1424 172.855ZM135.867 175.22C135.684 177.603 134.914 179.657 133.557 181.38C132.237 183.103 130.404 184.423 128.057 185.34C125.711 186.22 122.924 186.66 119.697 186.66C116.324 186.66 113.299 186.128 110.622 185.065C107.982 183.965 105.892 182.37 104.352 180.28C102.849 178.153 102.097 175.532 102.097 172.415C102.097 169.298 102.849 166.677 104.352 164.55C105.892 162.423 107.982 160.81 110.622 159.71C113.299 158.61 116.324 158.06 119.697 158.06C122.924 158.06 125.692 158.518 128.002 159.435C130.312 160.315 132.127 161.598 133.447 163.285C134.804 164.972 135.592 167.007 135.812 169.39H129.267C128.644 167.557 127.489 166.127 125.802 165.1C124.116 164.073 122.081 163.56 119.697 163.56C117.791 163.56 116.049 163.89 114.472 164.55C112.932 165.21 111.686 166.2 110.732 167.52C109.816 168.803 109.357 170.435 109.357 172.415C109.357 174.358 109.816 175.99 110.732 177.31C111.649 178.593 112.896 179.565 114.472 180.225C116.049 180.848 117.791 181.16 119.697 181.16C122.264 181.16 124.354 180.647 125.967 179.62C127.617 178.593 128.736 177.127 129.322 175.22H135.867ZM166.092 186V170.985C166.092 169.482 165.836 168.235 165.322 167.245C164.809 166.255 163.984 165.503 162.847 164.99C161.747 164.477 160.262 164.22 158.392 164.22C156.596 164.22 154.964 164.568 153.497 165.265C152.031 165.925 150.839 166.805 149.922 167.905C149.006 168.968 148.492 170.105 148.382 171.315L148.327 168.29C148.511 167.08 148.932 165.87 149.592 164.66C150.252 163.45 151.132 162.35 152.232 161.36C153.332 160.37 154.652 159.582 156.192 158.995C157.769 158.372 159.529 158.06 161.472 158.06C163.159 158.06 164.717 158.28 166.147 158.72C167.577 159.123 168.824 159.765 169.887 160.645C170.951 161.525 171.776 162.625 172.362 163.945C172.949 165.228 173.242 166.75 173.242 168.51V186H166.092ZM141.617 186V147.665H148.767V186H141.617ZM188.925 174.945V165.815H192.17C195.14 165.815 197.322 165.265 198.715 164.165C200.109 163.065 200.805 161.507 200.805 159.49C200.805 157.473 200.145 155.933 198.825 154.87C197.505 153.807 195.745 153.275 193.545 153.275C191.969 153.275 190.649 153.532 189.585 154.045C188.559 154.522 187.77 155.182 187.22 156.025C186.707 156.832 186.432 157.748 186.395 158.775H179.3C179.264 157.712 179.41 156.63 179.74 155.53C180.107 154.43 180.657 153.367 181.39 152.34C182.124 151.313 183.059 150.397 184.195 149.59C185.332 148.783 186.689 148.16 188.265 147.72C189.879 147.243 191.694 147.005 193.71 147.005C196.167 147.005 198.294 147.317 200.09 147.94C201.924 148.563 203.427 149.425 204.6 150.525C205.81 151.625 206.709 152.927 207.295 154.43C207.882 155.897 208.175 157.51 208.175 159.27C208.175 161.69 207.625 163.743 206.525 165.43C205.425 167.08 203.94 168.363 202.07 169.28C200.237 170.16 198.184 170.673 195.91 170.82V174.945H188.925ZM188.43 186V179.73H196.735V186H188.43Z" fill="black"/>
<path d="M291.696 28.9408L288.276 24.3367L289.912 23.121C291.41 22.0084 292.304 20.9138 292.595 19.8371C292.885 18.7605 292.653 17.7136 291.897 16.6967C291.142 15.6797 290.232 15.1503 289.168 15.1086C288.104 15.0669 287.017 15.4581 285.908 16.2822C285.113 16.8729 284.543 17.4968 284.199 18.154C283.86 18.779 283.71 19.4071 283.749 20.0384C283.792 20.6375 283.997 21.2028 284.363 21.7343L280.785 24.3922C280.368 23.8697 280.037 23.2693 279.791 22.5909C279.564 21.8989 279.443 21.1566 279.428 20.3642C279.413 19.5717 279.541 18.7592 279.812 17.9266C280.084 17.094 280.534 16.2714 281.164 15.4589C281.799 14.6141 282.625 13.814 283.642 13.0586C284.881 12.1383 286.07 11.4988 287.21 11.14C288.368 10.7676 289.449 10.6389 290.453 10.7541C291.475 10.8555 292.416 11.1754 293.275 11.7137C294.12 12.2336 294.872 12.9373 295.531 13.8248C296.438 15.0452 296.93 16.2867 297.007 17.5493C297.07 18.7935 296.802 19.9969 296.203 21.1597C295.608 22.2903 294.765 23.3183 293.673 24.2439L295.218 26.3241L291.696 28.9408ZM295.588 34.7011L293.239 31.5392L297.427 28.428L299.776 31.5899L295.588 34.7011Z" fill="#FFAB37"/>
</svg>
