<svg width="1440" height="732" viewBox="0 0 1440 732" fill="none" xmlns="http://www.w3.org/2000/svg">
<g clip-path="url(#clip0_7328_69931)">
<rect x="0.269531" y="0.628662" width="1440.14" height="731.326" fill="#23A323"/>
<path d="M123.339 288.765V250.433H218.776V445.22H174.969V288.765H123.339Z" fill="white" fill-opacity="0.17"/>
<path d="M668.967 386.158L609.906 419.014L607.559 409.626H742.11V445.22H557.102V409.626C578.223 398.153 597.128 388.505 613.817 380.682C630.505 372.599 644.586 365.297 656.06 358.778C667.794 352.259 676.66 345.61 682.657 338.83C688.915 332.051 692.044 324.489 692.044 316.144C692.044 309.365 690.349 303.498 686.96 298.543C683.57 293.589 678.224 289.808 670.923 287.2C663.882 284.332 654.756 282.898 643.543 282.898C628.941 282.898 616.946 286.288 607.559 293.067C598.171 299.586 593.217 308.452 592.695 319.665H551.626C550.583 305.323 553.712 292.676 561.013 281.724C568.575 270.773 579.397 262.167 593.478 255.909C607.819 249.39 624.247 246.131 642.761 246.131C657.103 246.131 670.01 247.695 681.484 250.825C692.957 253.954 702.735 258.517 710.819 264.514C719.163 270.251 725.552 277.161 729.985 285.245C734.418 293.067 736.634 301.803 736.634 311.451C736.634 319.274 735.2 326.444 732.331 332.963C729.724 339.222 725.552 345.349 719.815 351.347C714.339 357.083 707.299 362.82 698.694 368.557C690.349 374.033 680.441 379.9 668.967 386.158Z" fill="white" fill-opacity="0.17"/>
<path d="M1049.09 340.7L1049.41 339.1C1060.29 339.526 1070.32 340.7 1079.49 342.62C1088.67 344.326 1096.56 347.1 1103.17 350.94C1110 354.78 1115.23 360.006 1118.85 366.62C1122.69 373.233 1124.61 381.553 1124.61 391.58C1124.61 403.1 1121.2 413.446 1114.37 422.62C1107.76 431.793 1098.37 439.046 1086.21 444.38C1074.05 449.713 1059.76 452.38 1043.33 452.38C1027.55 452.38 1013.57 449.5 1001.41 443.74C989.254 438.193 979.868 430.62 973.254 421.02C966.854 411.42 964.081 400.54 964.934 388.38H998.534C998.748 394.78 1000.56 400.433 1003.97 405.34C1007.6 410.246 1012.72 414.086 1019.33 416.86C1026.16 419.633 1034.16 421.02 1043.33 421.02C1057.41 421.02 1068.19 418.033 1075.65 412.06C1083.33 406.3 1087.17 398.086 1087.17 387.42C1087.17 376.753 1082.8 368.86 1074.05 363.74C1065.52 358.406 1053.47 355.74 1037.89 355.74H1013.89V326.94H1037.89C1048.56 326.94 1057.31 325.98 1064.13 324.06C1070.96 321.926 1075.97 318.726 1079.17 314.46C1082.37 309.98 1083.97 304.54 1083.97 298.14C1083.97 288.966 1080.67 281.713 1074.05 276.38C1067.65 271.046 1057.41 268.38 1043.33 268.38C1030.32 268.38 1020.08 271.153 1012.61 276.7C1005.15 282.246 1001.31 289.606 1001.09 298.78H967.174C966.534 289.393 968.028 280.966 971.654 273.5C975.494 266.033 980.934 259.633 987.974 254.3C995.228 248.753 1003.55 244.486 1012.93 241.5C1022.53 238.513 1032.67 237.02 1043.33 237.02C1059.33 237.02 1073.09 239.473 1084.61 244.38C1096.35 249.073 1105.31 255.686 1111.49 264.22C1117.68 272.753 1120.77 282.566 1120.77 293.66C1120.77 302.833 1118.96 310.406 1115.33 316.38C1111.92 322.353 1106.91 327.153 1100.29 330.78C1093.89 334.193 1086.32 336.646 1077.57 338.14C1069.04 339.633 1059.55 340.486 1049.09 340.7Z" fill="white" fill-opacity="0.17"/>
</g>
<defs>
<clipPath id="clip0_7328_69931">
<rect width="1440.14" height="731.326" fill="white" transform="translate(0.269531 0.628662)"/>
</clipPath>
</defs>
</svg>
