<svg width="74" height="74" viewBox="0 0 74 74" fill="none" xmlns="http://www.w3.org/2000/svg">
<circle cx="36.8759" cy="37.3456" r="36.369" fill="#F2FCF2"/>
<g clip-path="url(#clip0_7240_74633)">
<path d="M33.359 49.3644H39.2712C39.2712 50.9903 37.9409 52.3205 36.3151 52.3205C34.6892 52.3205 33.359 50.9903 33.359 49.3644ZM30.4029 47.8864H42.2273V44.9303H30.4029V47.8864ZM47.4005 33.8449C47.4005 39.4911 43.4688 42.5063 41.8282 43.4522H30.802C29.1613 42.5063 25.2297 39.4911 25.2297 33.8449C25.2297 27.7258 30.196 22.7596 36.3151 22.7596C42.4342 22.7596 47.4005 27.7258 47.4005 33.8449ZM44.4444 33.8449C44.4444 29.3664 40.7936 25.7157 36.3151 25.7157C31.8366 25.7157 28.1858 29.3664 28.1858 33.8449C28.1858 37.4957 30.3881 39.5945 31.6592 40.4961H40.9709C42.2421 39.5945 44.4444 37.4957 44.4444 33.8449ZM54.5985 30.6967L52.5736 31.6278L54.5985 32.559L55.5297 34.5839L56.4609 32.559L58.4858 31.6278L56.4609 30.6967L55.5297 28.6718L54.5985 30.6967ZM51.0956 28.6718L52.4849 25.627L55.5297 24.2376L52.4849 22.8482L51.0956 19.8035L49.7062 22.8482L46.6614 24.2376L49.7062 25.627L51.0956 28.6718Z" fill="#23A323"/>
</g>
<defs>
<clipPath id="clip0_7240_74633">
<rect width="35.4731" height="35.4731" fill="white" transform="translate(23.0127 19.8035)"/>
</clipPath>
</defs>
</svg>
