<svg width="890" height="158" viewBox="0 0 890 158" fill="none" xmlns="http://www.w3.org/2000/svg">
<g clip-path="url(#clip0_6201_62258)">
<path d="M863.333 152.645L856.716 125.729C856.374 124.336 857.841 123.194 859.108 123.867L882.066 136.069C883.412 136.785 883.163 138.784 881.683 139.148L872.929 141.3C872.456 141.416 872.058 141.734 871.84 142.17L866.431 152.991C865.74 154.373 863.702 154.145 863.333 152.645Z" fill="white"/>
<path d="M91.4397 48.1905L74.2797 76.5955V90.3105H66.8697V76.5955L49.7097 48.1905H58.2247L72.7197 73.0205H68.6897L82.9897 48.1905H91.4397ZM107.876 91.0255C104.279 91.0255 101.051 90.3755 98.1911 89.0755C95.3311 87.7755 93.0778 85.8689 91.4311 83.3555C89.7844 80.8422 88.9611 77.7872 88.9611 74.1905C88.9611 70.6372 89.7844 67.6039 91.4311 65.0905C93.0778 62.5339 95.3311 60.5839 98.1911 59.2405C101.051 57.8972 104.279 57.2255 107.876 57.2255C111.473 57.2255 114.679 57.8972 117.496 59.2405C120.313 60.5839 122.523 62.5339 124.126 65.0905C125.773 67.6039 126.596 70.6372 126.596 74.1905C126.596 77.7872 125.773 80.8422 124.126 83.3555C122.523 85.8689 120.313 87.7755 117.496 89.0755C114.679 90.3755 111.473 91.0255 107.876 91.0255ZM107.876 85.1105C109.956 85.1105 111.863 84.6989 113.596 83.8755C115.329 83.0522 116.694 81.8172 117.691 80.1705C118.731 78.5239 119.251 76.5305 119.251 74.1905C119.251 71.8505 118.731 69.8572 117.691 68.2105C116.694 66.5639 115.329 65.3072 113.596 64.4405C111.906 63.5305 109.999 63.0755 107.876 63.0755C105.753 63.0755 103.824 63.5089 102.091 64.3755C100.358 65.2422 98.9494 66.4989 97.8661 68.1455C96.8261 69.7922 96.3061 71.8072 96.3061 74.1905C96.3061 76.5305 96.8261 78.5239 97.8661 80.1705C98.9061 81.8172 100.293 83.0522 102.026 83.8755C103.803 84.6989 105.753 85.1105 107.876 85.1105ZM166.788 90.3105H159.573V57.9405H166.788V90.3105ZM159.963 74.9055L160.028 76.9855C159.942 77.5489 159.747 78.3939 159.443 79.5205C159.183 80.6472 158.728 81.8822 158.078 83.2255C157.472 84.5255 156.648 85.7822 155.608 86.9955C154.612 88.1655 153.355 89.1405 151.838 89.9205C150.322 90.6572 148.48 91.0255 146.313 91.0255C144.753 91.0255 143.172 90.8089 141.568 90.3755C140.008 89.9855 138.578 89.3139 137.278 88.3605C136.022 87.4072 135.003 86.1072 134.223 84.4605C133.443 82.8139 133.053 80.7339 133.053 78.2205V57.9405H140.268V76.8555C140.268 78.8922 140.593 80.4955 141.243 81.6655C141.937 82.7922 142.89 83.5939 144.103 84.0705C145.317 84.5472 146.725 84.7855 148.328 84.7855C150.625 84.7855 152.575 84.2655 154.178 83.2255C155.782 82.1855 157.06 80.9072 158.013 79.3905C159.01 77.8305 159.66 76.3355 159.963 74.9055ZM174.758 57.9405H181.973V90.3105H174.758V57.9405ZM193.673 64.1155C191.333 64.1155 189.318 64.6139 187.628 65.6105C185.981 66.6072 184.659 67.8205 183.663 69.2505C182.666 70.6805 181.973 72.0672 181.583 73.4105L181.518 69.7705C181.561 69.2939 181.713 68.5789 181.973 67.6255C182.233 66.6289 182.623 65.5455 183.143 64.3755C183.706 63.2055 184.443 62.0789 185.353 60.9955C186.306 59.8689 187.454 58.9589 188.798 58.2655C190.184 57.5722 191.809 57.2255 193.673 57.2255V64.1155ZM228.218 90.3105L211.383 48.1905H219.443L233.743 85.2405H231.403L245.053 48.1905H253.438L267.088 85.2405H264.748L279.048 48.1905H286.978L270.338 90.3105H261.628L248.173 53.3255H250.383L236.863 90.3105H228.218ZM318.978 90.3105V71.5905C318.978 69.8572 318.675 68.4272 318.068 67.3005C317.505 66.1305 316.617 65.2422 315.403 64.6355C314.19 64.0289 312.587 63.7255 310.593 63.7255C308.6 63.7255 306.78 64.1589 305.133 65.0255C303.487 65.8489 302.143 66.9539 301.103 68.3405C300.063 69.7272 299.457 71.2655 299.283 72.9555L299.218 69.3155C299.435 67.7555 299.912 66.2605 300.648 64.8305C301.385 63.3572 302.36 62.0572 303.573 60.9305C304.787 59.8039 306.217 58.9155 307.863 58.2655C309.51 57.5722 311.33 57.2255 313.323 57.2255C315.187 57.2255 316.898 57.4855 318.458 58.0055C320.062 58.5255 321.427 59.3055 322.553 60.3455C323.723 61.3422 324.612 62.5989 325.218 64.1155C325.868 65.5889 326.193 67.3005 326.193 69.2505V90.3105H318.978ZM292.458 90.3105V44.9405H299.673V90.3105H292.458ZM342.661 44.2255V51.1805H334.016V44.2255H342.661ZM334.666 57.9405H341.946V90.3105H334.666V57.9405ZM371.388 91.0255C368.744 91.0255 366.491 90.5055 364.628 89.4655C362.808 88.4255 361.334 87.0605 360.208 85.3705C359.124 83.6372 358.323 81.7955 357.803 79.8455C357.283 77.8522 357.023 75.9672 357.023 74.1905C357.023 71.8072 357.261 69.5972 357.738 67.5605C358.258 65.5239 359.059 63.7472 360.143 62.2305C361.269 60.6705 362.743 59.4572 364.563 58.5905C366.426 57.6805 368.701 57.2255 371.388 57.2255C374.421 57.2255 377.151 57.9622 379.578 59.4355C382.004 60.8655 383.933 62.8589 385.363 65.4155C386.793 67.9289 387.508 70.8539 387.508 74.1905C387.508 77.5272 386.771 80.4739 385.298 83.0305C383.868 85.5439 381.939 87.5155 379.513 88.9455C377.086 90.3322 374.378 91.0255 371.388 91.0255ZM369.243 85.0455C371.409 85.0455 373.316 84.5905 374.963 83.6805C376.609 82.7705 377.888 81.4922 378.798 79.8455C379.708 78.1989 380.163 76.3139 380.163 74.1905C380.163 70.9405 379.209 68.2972 377.303 66.2605C375.396 64.1805 372.709 63.1405 369.243 63.1405C367.076 63.1405 365.126 63.5955 363.393 64.5055C361.659 65.4155 360.294 66.6939 359.298 68.3405C358.301 69.9439 357.803 71.8939 357.803 74.1905C357.803 76.2705 358.258 78.1339 359.168 79.7805C360.078 81.4272 361.378 82.7272 363.068 83.6805C364.758 84.5905 366.816 85.0455 369.243 85.0455ZM350.588 57.9405H357.478L357.803 65.8705V103.311H350.588V57.9405ZM394.462 99.8005L393.162 97.9155C393.855 96.8755 394.484 95.7489 395.047 94.5355C395.654 93.3655 395.979 92.1955 396.022 91.0255L392.577 90.3105V83.2905H401.482V88.2955C401.482 91.2422 400.81 93.6039 399.467 95.3805C398.167 97.2005 396.499 98.6739 394.462 99.8005ZM462.206 48.1905L445.046 76.5955V90.3105H437.636V76.5955L420.476 48.1905H428.991L443.486 73.0205H439.456L453.756 48.1905H462.206ZM478.643 91.0255C475.046 91.0255 471.818 90.3755 468.958 89.0755C466.098 87.7755 463.844 85.8689 462.198 83.3555C460.551 80.8422 459.728 77.7872 459.728 74.1905C459.728 70.6372 460.551 67.6039 462.198 65.0905C463.844 62.5339 466.098 60.5839 468.958 59.2405C471.818 57.8972 475.046 57.2255 478.643 57.2255C482.239 57.2255 485.446 57.8972 488.263 59.2405C491.079 60.5839 493.289 62.5339 494.893 65.0905C496.539 67.6039 497.363 70.6372 497.363 74.1905C497.363 77.7872 496.539 80.8422 494.893 83.3555C493.289 85.8689 491.079 87.7755 488.263 89.0755C485.446 90.3755 482.239 91.0255 478.643 91.0255ZM478.643 85.1105C480.723 85.1105 482.629 84.6989 484.363 83.8755C486.096 83.0522 487.461 81.8172 488.458 80.1705C489.498 78.5239 490.018 76.5305 490.018 74.1905C490.018 71.8505 489.498 69.8572 488.458 68.2105C487.461 66.5639 486.096 65.3072 484.363 64.4405C482.673 63.5305 480.766 63.0755 478.643 63.0755C476.519 63.0755 474.591 63.5089 472.858 64.3755C471.124 65.2422 469.716 66.4989 468.633 68.1455C467.593 69.7922 467.073 71.8072 467.073 74.1905C467.073 76.5305 467.593 78.5239 468.633 80.1705C469.673 81.8172 471.059 83.0522 472.793 83.8755C474.569 84.6989 476.519 85.1105 478.643 85.1105ZM537.555 90.3105H530.34V57.9405H537.555V90.3105ZM530.73 74.9055L530.795 76.9855C530.708 77.5489 530.513 78.3939 530.21 79.5205C529.95 80.6472 529.495 81.8822 528.845 83.2255C528.238 84.5255 527.415 85.7822 526.375 86.9955C525.378 88.1655 524.122 89.1405 522.605 89.9205C521.088 90.6572 519.247 91.0255 517.08 91.0255C515.52 91.0255 513.938 90.8089 512.335 90.3755C510.775 89.9855 509.345 89.3139 508.045 88.3605C506.788 87.4072 505.77 86.1072 504.99 84.4605C504.21 82.8139 503.82 80.7339 503.82 78.2205V57.9405H511.035V76.8555C511.035 78.8922 511.36 80.4955 512.01 81.6655C512.703 82.7922 513.657 83.5939 514.87 84.0705C516.083 84.5472 517.492 84.7855 519.095 84.7855C521.392 84.7855 523.342 84.2655 524.945 83.2255C526.548 82.1855 527.827 80.9072 528.78 79.3905C529.777 77.8305 530.427 76.3355 530.73 74.9055ZM545.524 57.9405H552.739V90.3105H545.524V57.9405ZM564.439 64.1155C562.099 64.1155 560.084 64.6139 558.394 65.6105C556.747 66.6072 555.426 67.8205 554.429 69.2505C553.432 70.6805 552.739 72.0672 552.349 73.4105L552.284 69.7705C552.327 69.2939 552.479 68.5789 552.739 67.6255C552.999 66.6289 553.389 65.5455 553.909 64.3755C554.472 63.2055 555.209 62.0789 556.119 60.9955C557.072 59.8689 558.221 58.9589 559.564 58.2655C560.951 57.5722 562.576 57.2255 564.439 57.2255V64.1155ZM630.315 75.5555C629.881 78.8055 628.733 81.6005 626.87 83.9405C625.006 86.2372 622.515 88.0139 619.395 89.2705C616.318 90.4839 612.721 91.0905 608.605 91.0905C605.051 91.0905 601.78 90.6139 598.79 89.6605C595.843 88.7072 593.265 87.3205 591.055 85.5005C588.888 83.6372 587.198 81.3622 585.985 78.6755C584.815 75.9455 584.23 72.8255 584.23 69.3155C584.23 65.7622 584.815 62.6422 585.985 59.9555C587.198 57.2689 588.888 54.9939 591.055 53.1305C593.265 51.2239 595.843 49.7939 598.79 48.8405C601.78 47.8872 605.051 47.4105 608.605 47.4105C612.765 47.4105 616.383 48.0389 619.46 49.2955C622.58 50.5522 625.071 52.3505 626.935 54.6905C628.798 57.0305 629.925 59.8472 630.315 63.1405H623.165C622.558 61.1905 621.605 59.5439 620.305 58.2005C619.005 56.8139 617.358 55.7522 615.365 55.0155C613.415 54.2789 611.161 53.9105 608.605 53.9105C605.398 53.9105 602.516 54.5172 599.96 55.7305C597.403 56.9005 595.388 58.6339 593.915 60.9305C592.485 63.1839 591.77 65.9789 591.77 69.3155C591.77 72.6089 592.485 75.4039 593.915 77.7005C595.388 79.9539 597.403 81.6655 599.96 82.8355C602.516 84.0055 605.398 84.5905 608.605 84.5905C611.161 84.5905 613.415 84.2439 615.365 83.5505C617.315 82.8139 618.94 81.7739 620.24 80.4305C621.54 79.0439 622.493 77.4189 623.1 75.5555H630.315ZM664.926 90.3105V71.5905C664.926 69.8572 664.622 68.4272 664.016 67.3005C663.452 66.1305 662.564 65.2422 661.351 64.6355C660.137 64.0289 658.534 63.7255 656.541 63.7255C654.547 63.7255 652.727 64.1589 651.081 65.0255C649.434 65.8489 648.091 66.9539 647.051 68.3405C646.011 69.7272 645.404 71.2655 645.231 72.9555L645.166 69.3155C645.382 67.7555 645.859 66.2605 646.596 64.8305C647.332 63.3572 648.307 62.0572 649.521 60.9305C650.734 59.8039 652.164 58.9155 653.811 58.2655C655.457 57.5722 657.277 57.2255 659.271 57.2255C661.134 57.2255 662.846 57.4855 664.406 58.0055C666.009 58.5255 667.374 59.3055 668.501 60.3455C669.671 61.3422 670.559 62.5989 671.166 64.1155C671.816 65.5889 672.141 67.3005 672.141 69.2505V90.3105H664.926ZM638.406 90.3105V44.9405H645.621V90.3105H638.406ZM697.383 91.0255C693.786 91.0255 690.558 90.3755 687.698 89.0755C684.838 87.7755 682.585 85.8689 680.938 83.3555C679.291 80.8422 678.468 77.7872 678.468 74.1905C678.468 70.6372 679.291 67.6039 680.938 65.0905C682.585 62.5339 684.838 60.5839 687.698 59.2405C690.558 57.8972 693.786 57.2255 697.383 57.2255C700.98 57.2255 704.186 57.8972 707.003 59.2405C709.82 60.5839 712.03 62.5339 713.633 65.0905C715.28 67.6039 716.103 70.6372 716.103 74.1905C716.103 77.7872 715.28 80.8422 713.633 83.3555C712.03 85.8689 709.82 87.7755 707.003 89.0755C704.186 90.3755 700.98 91.0255 697.383 91.0255ZM697.383 85.1105C699.463 85.1105 701.37 84.6989 703.103 83.8755C704.836 83.0522 706.201 81.8172 707.198 80.1705C708.238 78.5239 708.758 76.5305 708.758 74.1905C708.758 71.8505 708.238 69.8572 707.198 68.2105C706.201 66.5639 704.836 65.3072 703.103 64.4405C701.413 63.5305 699.506 63.0755 697.383 63.0755C695.26 63.0755 693.331 63.5089 691.598 64.3755C689.865 65.2422 688.456 66.4989 687.373 68.1455C686.333 69.7922 685.813 71.8072 685.813 74.1905C685.813 76.5305 686.333 78.5239 687.373 80.1705C688.413 81.8172 689.8 83.0522 691.533 83.8755C693.31 84.6989 695.26 85.1105 697.383 85.1105ZM731.01 44.2255V51.1805H722.365V44.2255H731.01ZM723.015 57.9405H730.295V90.3105H723.015V57.9405ZM773.777 77.7655C773.517 80.5389 772.629 82.9222 771.112 84.9155C769.596 86.9089 767.559 88.4255 765.002 89.4655C762.489 90.5055 759.586 91.0255 756.292 91.0255C752.739 91.0255 749.511 90.3755 746.607 89.0755C743.747 87.7755 741.472 85.8689 739.782 83.3555C738.092 80.8422 737.247 77.7872 737.247 74.1905C737.247 70.5939 738.092 67.5389 739.782 65.0255C741.472 62.5122 743.747 60.5839 746.607 59.2405C749.511 57.8972 752.739 57.2255 756.292 57.2255C759.586 57.2255 762.489 57.7672 765.002 58.8505C767.516 59.8905 769.531 61.3855 771.047 63.3355C772.564 65.2855 773.452 67.6472 773.712 70.4205H767.082C766.346 68.1239 765.002 66.3472 763.052 65.0905C761.146 63.7905 758.892 63.1405 756.292 63.1405C754.169 63.1405 752.219 63.5739 750.442 64.4405C748.666 65.2639 747.236 66.4989 746.152 68.1455C745.112 69.7489 744.592 71.7639 744.592 74.1905C744.592 76.5739 745.112 78.5889 746.152 80.2355C747.236 81.8822 748.666 83.1172 750.442 83.9405C752.219 84.7205 754.169 85.1105 756.292 85.1105C759.152 85.1105 761.492 84.4822 763.312 83.2255C765.176 81.9255 766.454 80.1055 767.147 77.7655H773.777ZM807.174 79.6505H814.129C813.782 81.8605 812.915 83.8322 811.529 85.5655C810.185 87.2555 808.344 88.5989 806.004 89.5955C803.664 90.5489 800.869 91.0255 797.619 91.0255C793.935 91.0255 790.642 90.3539 787.739 89.0105C784.835 87.6239 782.56 85.6739 780.914 83.1605C779.267 80.6472 778.444 77.6572 778.444 74.1905C778.444 70.7672 779.245 67.7772 780.849 65.2205C782.452 62.6639 784.662 60.6922 787.479 59.3055C790.339 57.9189 793.632 57.2255 797.359 57.2255C801.215 57.2255 804.422 57.9189 806.979 59.3055C809.579 60.6489 811.507 62.6855 812.764 65.4155C814.02 68.1022 814.54 71.5039 814.324 75.6205H785.789C786.005 77.4405 786.59 79.0872 787.544 80.5605C788.54 81.9905 789.884 83.1172 791.574 83.9405C793.264 84.7205 795.235 85.1105 797.489 85.1105C800.002 85.1105 802.104 84.6122 803.794 83.6155C805.527 82.6189 806.654 81.2972 807.174 79.6505ZM797.164 63.0755C794.217 63.0755 791.79 63.8122 789.884 65.2855C787.977 66.7155 786.742 68.5572 786.179 70.8105H807.044C806.87 68.3839 805.895 66.4989 804.119 65.1555C802.342 63.7689 800.024 63.0755 797.164 63.0755Z" fill="white"/>
<rect x="16.042" y="15.6699" width="834.538" height="113.469" rx="3" stroke="white" stroke-width="3"/>
<rect x="2.43555" y="2.08789" width="14.1064" height="14.0827" stroke="white" stroke-width="3"/>
</g>
<defs>
<clipPath id="clip0_6201_62258">
<rect width="888.13" height="156.442" fill="white" transform="translate(0.935547 0.587891)"/>
</clipPath>
</defs>
</svg>
