<svg width="565" height="212" viewBox="0 0 565 212" fill="none" xmlns="http://www.w3.org/2000/svg">
<g clip-path="url(#clip0_4830_46910)">
<rect x="0.136963" y="0.197266" width="324.668" height="105.213" rx="52.6064" stroke="url(#paint0_linear_4830_46910)" stroke-width="3"/>
<rect width="324.668" height="105.213" rx="52.6064" transform="matrix(-1 0 0 1 537.346 106.393)" stroke="url(#paint1_linear_4830_46910)" stroke-width="3"/>
<path d="M97.8186 32.0773L80.6586 60.4823V74.1973H73.2486V60.4823L56.0886 32.0773H64.6036L79.0986 56.9073H75.0686L89.3686 32.0773H97.8186ZM114.255 74.9123C110.658 74.9123 107.43 74.2623 104.57 72.9623C101.71 71.6623 99.4567 69.7556 97.81 67.2423C96.1633 64.7289 95.34 61.6739 95.34 58.0773C95.34 54.5239 96.1633 51.4906 97.81 48.9773C99.4567 46.4206 101.71 44.4706 104.57 43.1273C107.43 41.7839 110.658 41.1123 114.255 41.1123C117.852 41.1123 121.058 41.7839 123.875 43.1273C126.692 44.4706 128.902 46.4206 130.505 48.9773C132.152 51.4906 132.975 54.5239 132.975 58.0773C132.975 61.6739 132.152 64.7289 130.505 67.2423C128.902 69.7556 126.692 71.6623 123.875 72.9623C121.058 74.2623 117.852 74.9123 114.255 74.9123ZM114.255 68.9973C116.335 68.9973 118.242 68.5856 119.975 67.7623C121.708 66.9389 123.073 65.7039 124.07 64.0573C125.11 62.4106 125.63 60.4173 125.63 58.0773C125.63 55.7373 125.11 53.7439 124.07 52.0973C123.073 50.4506 121.708 49.1939 119.975 48.3273C118.285 47.4173 116.378 46.9623 114.255 46.9623C112.132 46.9623 110.203 47.3956 108.47 48.2623C106.737 49.1289 105.328 50.3856 104.245 52.0323C103.205 53.6789 102.685 55.6939 102.685 58.0773C102.685 60.4173 103.205 62.4106 104.245 64.0573C105.285 65.7039 106.672 66.9389 108.405 67.7623C110.182 68.5856 112.132 68.9973 114.255 68.9973ZM173.167 74.1973H165.952V41.8273H173.167V74.1973ZM166.342 58.7923L166.407 60.8723C166.321 61.4356 166.126 62.2806 165.822 63.4073C165.562 64.5339 165.107 65.7689 164.457 67.1123C163.851 68.4123 163.027 69.6689 161.987 70.8823C160.991 72.0523 159.734 73.0273 158.217 73.8073C156.701 74.5439 154.859 74.9123 152.692 74.9123C151.132 74.9123 149.551 74.6956 147.947 74.2623C146.387 73.8723 144.957 73.2006 143.657 72.2473C142.401 71.2939 141.382 69.9939 140.602 68.3473C139.822 66.7006 139.432 64.6206 139.432 62.1073V41.8273H146.647V60.7423C146.647 62.7789 146.972 64.3823 147.622 65.5523C148.316 66.6789 149.269 67.4806 150.482 67.9573C151.696 68.4339 153.104 68.6723 154.707 68.6723C157.004 68.6723 158.954 68.1523 160.557 67.1123C162.161 66.0723 163.439 64.7939 164.392 63.2773C165.389 61.7173 166.039 60.2223 166.342 58.7923ZM181.136 41.8273H188.351V74.1973H181.136V41.8273ZM200.051 48.0023C197.711 48.0023 195.696 48.5006 194.006 49.4973C192.36 50.4939 191.038 51.7073 190.041 53.1373C189.045 54.5673 188.351 55.9539 187.961 57.2973L187.896 53.6573C187.94 53.1806 188.091 52.4656 188.351 51.5123C188.611 50.5156 189.001 49.4323 189.521 48.2623C190.085 47.0923 190.821 45.9656 191.731 44.8823C192.685 43.7556 193.833 42.8456 195.176 42.1523C196.563 41.4589 198.188 41.1123 200.051 41.1123V48.0023ZM218.737 60.2223H225.952C226.125 61.8256 226.754 63.2773 227.837 64.5773C228.964 65.8339 230.437 66.8306 232.257 67.5673C234.12 68.2606 236.244 68.6073 238.627 68.6073C240.75 68.6073 242.505 68.3473 243.892 67.8273C245.279 67.3073 246.297 66.5923 246.947 65.6823C247.64 64.7289 247.987 63.6239 247.987 62.3673C247.987 61.1106 247.575 60.1356 246.752 59.4423C245.972 58.7056 244.759 58.0989 243.112 57.6223C241.465 57.1023 239.364 56.6039 236.807 56.1273C234.684 55.7373 232.625 55.2173 230.632 54.5673C228.639 53.9173 226.84 53.0939 225.237 52.0973C223.677 51.1006 222.442 49.8873 221.532 48.4573C220.622 46.9839 220.167 45.2506 220.167 43.2573C220.167 41.0039 220.795 38.9673 222.052 37.1473C223.352 35.3273 225.259 33.8973 227.772 32.8573C230.285 31.8173 233.34 31.2973 236.937 31.2973C242.44 31.2973 246.644 32.5756 249.547 35.1323C252.45 37.6456 253.859 41.0689 253.772 45.4023H246.687C246.557 42.6723 245.56 40.7006 243.697 39.4873C241.834 38.2739 239.472 37.6673 236.612 37.6673C234.055 37.6673 231.91 38.1223 230.177 39.0323C228.444 39.9423 227.577 41.4156 227.577 43.4523C227.577 44.3189 227.772 45.0773 228.162 45.7273C228.595 46.3339 229.289 46.8973 230.242 47.4173C231.195 47.8939 232.495 48.3706 234.142 48.8473C235.832 49.2806 237.89 49.7573 240.317 50.2773C242.397 50.6239 244.347 51.1006 246.167 51.7073C247.987 52.3139 249.569 53.0723 250.912 53.9823C252.299 54.8923 253.382 56.0623 254.162 57.4923C254.942 58.9223 255.332 60.6773 255.332 62.7573C255.332 65.1406 254.725 67.2639 253.512 69.1273C252.299 70.9473 250.435 72.3989 247.922 73.4823C245.452 74.5223 242.245 75.0423 238.302 75.0423C235.312 75.0423 232.69 74.6956 230.437 74.0023C228.227 73.2656 226.342 72.3339 224.782 71.2073C223.222 70.0373 221.965 68.7806 221.012 67.4373C220.102 66.0939 219.452 64.7939 219.062 63.5373C218.715 62.2373 218.607 61.1323 218.737 60.2223ZM276.372 74.9123C273.425 74.9123 270.717 74.1973 268.247 72.7673C265.82 71.3373 263.87 69.3656 262.397 66.8523C260.967 64.2956 260.252 61.3706 260.252 58.0773C260.252 54.6973 260.989 51.7506 262.462 49.2373C263.935 46.6806 265.929 44.6873 268.442 43.2573C270.955 41.8273 273.772 41.1123 276.892 41.1123C280.359 41.1123 283.11 41.8706 285.147 43.3873C287.184 44.9039 288.635 46.9406 289.502 49.4973C290.369 52.0539 290.802 54.9139 290.802 58.0773C290.802 59.8539 290.542 61.7389 290.022 63.7323C289.502 65.6823 288.679 67.5023 287.552 69.1923C286.469 70.8823 284.995 72.2689 283.132 73.3523C281.312 74.3923 279.059 74.9123 276.372 74.9123ZM278.582 68.9323C281.009 68.9323 283.067 68.4773 284.757 67.5673C286.49 66.6139 287.79 65.3139 288.657 63.6673C289.567 62.0206 290.022 60.1573 290.022 58.0773C290.022 55.7806 289.567 53.8306 288.657 52.2273C287.747 50.5806 286.447 49.3239 284.757 48.4573C283.067 47.5473 281.009 47.0923 278.582 47.0923C275.115 47.0923 272.429 48.1106 270.522 50.1473C268.615 52.1839 267.662 54.8273 267.662 58.0773C267.662 60.2006 268.117 62.0856 269.027 63.7323C269.98 65.3789 271.28 66.6573 272.927 67.5673C274.574 68.4773 276.459 68.9323 278.582 68.9323ZM290.022 41.8273H297.302V74.1973H290.542C290.542 74.1973 290.499 73.7856 290.412 72.9623C290.325 72.1389 290.239 71.1423 290.152 69.9723C290.065 68.7589 290.022 67.6106 290.022 66.5273V41.8273ZM321.093 69.0623H318.558L329.738 41.8273H337.603L323.303 74.1973H316.413L302.308 41.8273H310.238L321.093 69.0623ZM351.261 28.1123V35.0673H342.616V28.1123H351.261ZM343.266 41.8273H350.546V74.1973H343.266V41.8273ZM359.188 41.8273H366.403V74.1973H359.188V41.8273ZM380.053 41.1123C381.917 41.1123 383.628 41.3723 385.188 41.8923C386.792 42.4123 388.157 43.2139 389.283 44.2973C390.453 45.3373 391.342 46.6373 391.948 48.1973C392.598 49.7573 392.923 51.5989 392.923 53.7223V74.1973H385.708V55.1523C385.708 52.5089 385.058 50.5589 383.758 49.3023C382.502 48.0023 380.508 47.3523 377.778 47.3523C375.698 47.3523 373.792 47.8073 372.058 48.7173C370.368 49.5839 368.982 50.7323 367.898 52.1623C366.815 53.5489 366.187 55.0873 366.013 56.7773L365.948 53.2673C366.165 51.6639 366.642 50.1473 367.378 48.7173C368.115 47.2439 369.09 45.9439 370.303 44.8173C371.517 43.6473 372.947 42.7373 374.593 42.0873C376.24 41.4373 378.06 41.1123 380.053 41.1123ZM415.322 69.1923C412.289 69.1923 409.537 68.6506 407.067 67.5673C404.641 66.4839 402.712 64.9023 401.282 62.8223C399.896 60.7423 399.202 58.2506 399.202 55.3473C399.202 52.4439 399.874 49.9306 401.217 47.8073C402.604 45.6839 404.511 44.0373 406.937 42.8673C409.407 41.6973 412.202 41.1123 415.322 41.1123C416.232 41.1123 417.099 41.1773 417.922 41.3073C418.789 41.4373 419.612 41.6106 420.392 41.8273L435.537 41.8923V47.9373C433.457 47.9806 431.356 47.6989 429.232 47.0923C427.152 46.4423 425.311 45.7706 423.707 45.0773L423.512 44.6873C424.986 45.4239 426.307 46.3339 427.477 47.4173C428.691 48.4573 429.644 49.6489 430.337 50.9923C431.031 52.3356 431.377 53.8523 431.377 55.5423C431.377 58.4023 430.684 60.8506 429.297 62.8873C427.954 64.9239 426.069 66.4839 423.642 67.5673C421.259 68.6506 418.486 69.1923 415.322 69.1923ZM425.722 87.3923V85.8973C425.722 83.7739 425.094 82.2789 423.837 81.4123C422.581 80.5456 420.826 80.1123 418.572 80.1123H409.797C408.064 80.1123 406.569 79.9606 405.312 79.6573C404.099 79.3973 403.124 78.9856 402.387 78.4223C401.651 77.9023 401.109 77.2739 400.762 76.5373C400.416 75.8439 400.242 75.0639 400.242 74.1973C400.242 72.4639 400.762 71.1639 401.802 70.2973C402.886 69.4306 404.294 68.8673 406.027 68.6073C407.804 68.3473 409.667 68.3039 411.617 68.4773L415.322 69.1923C412.766 69.2789 410.816 69.5173 409.472 69.9073C408.172 70.2539 407.522 70.9689 407.522 72.0523C407.522 72.7023 407.782 73.2223 408.302 73.6123C408.822 74.0023 409.559 74.1973 410.512 74.1973H419.742C422.386 74.1973 424.704 74.5006 426.697 75.1073C428.691 75.7573 430.229 76.8189 431.312 78.2923C432.439 79.8089 433.002 81.8673 433.002 84.4673V87.3923H425.722ZM415.322 63.5373C417.056 63.5373 418.594 63.2123 419.937 62.5623C421.281 61.9123 422.342 60.9806 423.122 59.7673C423.902 58.5539 424.292 57.0806 424.292 55.3473C424.292 53.6139 423.902 52.1189 423.122 50.8623C422.342 49.6056 421.281 48.6523 419.937 48.0023C418.594 47.3523 417.056 47.0273 415.322 47.0273C413.632 47.0273 412.094 47.3523 410.707 48.0023C409.364 48.6523 408.302 49.6056 407.522 50.8623C406.742 52.0756 406.352 53.5706 406.352 55.3473C406.352 57.0806 406.742 58.5539 407.522 59.7673C408.302 60.9806 409.364 61.9123 410.707 62.5623C412.051 63.2123 413.589 63.5373 415.322 63.5373ZM439.897 63.5373H446.592C446.939 65.1839 447.827 66.5273 449.257 67.5673C450.687 68.5639 452.615 69.0623 455.042 69.0623C456.602 69.0623 457.815 68.8889 458.682 68.5423C459.592 68.1956 460.22 67.7189 460.567 67.1123C460.957 66.5056 461.152 65.8123 461.152 65.0323C461.152 64.0789 460.87 63.3423 460.307 62.8223C459.787 62.3023 459.007 61.8689 457.967 61.5223C456.927 61.1756 455.627 60.8723 454.067 60.6123C452.464 60.2223 450.882 59.7889 449.322 59.3123C447.762 58.8356 446.354 58.2506 445.097 57.5573C443.84 56.8206 442.844 55.9106 442.107 54.8273C441.414 53.7006 441.067 52.3356 441.067 50.7323C441.067 49.2589 441.392 47.9373 442.042 46.7673C442.735 45.5539 443.689 44.5356 444.902 43.7123C446.115 42.8889 447.545 42.2606 449.192 41.8273C450.839 41.3506 452.637 41.1123 454.587 41.1123C457.404 41.1123 459.744 41.5673 461.607 42.4773C463.514 43.3873 464.944 44.6656 465.897 46.3123C466.894 47.9589 467.392 49.8439 467.392 51.9673H461.022C460.675 50.2339 460.004 48.9773 459.007 48.1973C458.01 47.4173 456.515 47.0273 454.522 47.0273C452.529 47.0273 451.012 47.3739 449.972 48.0673C448.932 48.7606 448.412 49.7139 448.412 50.9273C448.412 51.8373 448.737 52.5739 449.387 53.1373C450.08 53.6573 451.055 54.1123 452.312 54.5023C453.569 54.8923 455.042 55.2823 456.732 55.6723C458.292 56.1056 459.765 56.5606 461.152 57.0373C462.539 57.4706 463.774 58.0339 464.857 58.7273C465.984 59.3773 466.872 60.2439 467.522 61.3273C468.172 62.4106 468.497 63.7539 468.497 65.3573C468.497 67.3506 467.955 69.0623 466.872 70.4923C465.832 71.9223 464.315 73.0273 462.322 73.8073C460.329 74.5439 457.924 74.9123 455.107 74.9123C452.637 74.9123 450.492 74.6306 448.672 74.0673C446.895 73.5039 445.4 72.7673 444.187 71.8573C443.017 70.9473 442.107 69.9723 441.457 68.9323C440.807 67.8923 440.352 66.8956 440.092 65.9423C439.875 64.9889 439.81 64.1873 439.897 63.5373ZM475.553 83.6873L474.253 81.8023C474.946 80.7623 475.575 79.6356 476.138 78.4223C476.745 77.2523 477.07 76.0823 477.113 74.9123L473.668 74.1973V67.1773H482.573V72.1823C482.573 75.1289 481.901 77.4906 480.558 79.2673C479.258 81.0873 477.59 82.5606 475.553 83.6873Z" fill="white"/>
<path d="M97.8186 137.077L80.6586 165.482V179.197H73.2486V165.482L56.0886 137.077H64.6036L79.0986 161.907H75.0686L89.3686 137.077H97.8186ZM114.255 179.912C110.658 179.912 107.43 179.262 104.57 177.962C101.71 176.662 99.4567 174.756 97.81 172.242C96.1633 169.729 95.34 166.674 95.34 163.077C95.34 159.524 96.1633 156.491 97.81 153.977C99.4567 151.421 101.71 149.471 104.57 148.127C107.43 146.784 110.658 146.112 114.255 146.112C117.852 146.112 121.058 146.784 123.875 148.127C126.692 149.471 128.902 151.421 130.505 153.977C132.152 156.491 132.975 159.524 132.975 163.077C132.975 166.674 132.152 169.729 130.505 172.242C128.902 174.756 126.692 176.662 123.875 177.962C121.058 179.262 117.852 179.912 114.255 179.912ZM114.255 173.997C116.335 173.997 118.242 173.586 119.975 172.762C121.708 171.939 123.073 170.704 124.07 169.057C125.11 167.411 125.63 165.417 125.63 163.077C125.63 160.737 125.11 158.744 124.07 157.097C123.073 155.451 121.708 154.194 119.975 153.327C118.285 152.417 116.378 151.962 114.255 151.962C112.132 151.962 110.203 152.396 108.47 153.262C106.737 154.129 105.328 155.386 104.245 157.032C103.205 158.679 102.685 160.694 102.685 163.077C102.685 165.417 103.205 167.411 104.245 169.057C105.285 170.704 106.672 171.939 108.405 172.762C110.182 173.586 112.132 173.997 114.255 173.997ZM173.167 179.197H165.952V146.827H173.167V179.197ZM166.342 163.792L166.407 165.872C166.321 166.436 166.126 167.281 165.822 168.407C165.562 169.534 165.107 170.769 164.457 172.112C163.851 173.412 163.027 174.669 161.987 175.882C160.991 177.052 159.734 178.027 158.217 178.807C156.701 179.544 154.859 179.912 152.692 179.912C151.132 179.912 149.551 179.696 147.947 179.262C146.387 178.872 144.957 178.201 143.657 177.247C142.401 176.294 141.382 174.994 140.602 173.347C139.822 171.701 139.432 169.621 139.432 167.107V146.827H146.647V165.742C146.647 167.779 146.972 169.382 147.622 170.552C148.316 171.679 149.269 172.481 150.482 172.957C151.696 173.434 153.104 173.672 154.707 173.672C157.004 173.672 158.954 173.152 160.557 172.112C162.161 171.072 163.439 169.794 164.392 168.277C165.389 166.717 166.039 165.222 166.342 163.792ZM181.136 146.827H188.351V179.197H181.136V146.827ZM200.051 153.002C197.711 153.002 195.696 153.501 194.006 154.497C192.36 155.494 191.038 156.707 190.041 158.137C189.045 159.567 188.351 160.954 187.961 162.297L187.896 158.657C187.94 158.181 188.091 157.466 188.351 156.512C188.611 155.516 189.001 154.432 189.521 153.262C190.085 152.092 190.821 150.966 191.731 149.882C192.685 148.756 193.833 147.846 195.176 147.152C196.563 146.459 198.188 146.112 200.051 146.112V153.002ZM265.927 164.442C265.494 167.692 264.345 170.487 262.482 172.827C260.619 175.124 258.127 176.901 255.007 178.157C251.93 179.371 248.334 179.977 244.217 179.977C240.664 179.977 237.392 179.501 234.402 178.547C231.455 177.594 228.877 176.207 226.667 174.387C224.5 172.524 222.81 170.249 221.597 167.562C220.427 164.832 219.842 161.712 219.842 158.202C219.842 154.649 220.427 151.529 221.597 148.842C222.81 146.156 224.5 143.881 226.667 142.017C228.877 140.111 231.455 138.681 234.402 137.727C237.392 136.774 240.664 136.297 244.217 136.297C248.377 136.297 251.995 136.926 255.072 138.182C258.192 139.439 260.684 141.237 262.547 143.577C264.41 145.917 265.537 148.734 265.927 152.027H258.777C258.17 150.077 257.217 148.431 255.917 147.087C254.617 145.701 252.97 144.639 250.977 143.902C249.027 143.166 246.774 142.797 244.217 142.797C241.01 142.797 238.129 143.404 235.572 144.617C233.015 145.787 231 147.521 229.527 149.817C228.097 152.071 227.382 154.866 227.382 158.202C227.382 161.496 228.097 164.291 229.527 166.587C231 168.841 233.015 170.552 235.572 171.722C238.129 172.892 241.01 173.477 244.217 173.477C246.774 173.477 249.027 173.131 250.977 172.437C252.927 171.701 254.552 170.661 255.852 169.317C257.152 167.931 258.105 166.306 258.712 164.442H265.927ZM290.593 179.912C286.996 179.912 283.768 179.262 280.908 177.962C278.048 176.662 275.795 174.756 274.148 172.242C272.501 169.729 271.678 166.674 271.678 163.077C271.678 159.524 272.501 156.491 274.148 153.977C275.795 151.421 278.048 149.471 280.908 148.127C283.768 146.784 286.996 146.112 290.593 146.112C294.19 146.112 297.396 146.784 300.213 148.127C303.03 149.471 305.24 151.421 306.843 153.977C308.49 156.491 309.313 159.524 309.313 163.077C309.313 166.674 308.49 169.729 306.843 172.242C305.24 174.756 303.03 176.662 300.213 177.962C297.396 179.262 294.19 179.912 290.593 179.912ZM290.593 173.997C292.673 173.997 294.58 173.586 296.313 172.762C298.046 171.939 299.411 170.704 300.408 169.057C301.448 167.411 301.968 165.417 301.968 163.077C301.968 160.737 301.448 158.744 300.408 157.097C299.411 155.451 298.046 154.194 296.313 153.327C294.623 152.417 292.716 151.962 290.593 151.962C288.47 151.962 286.541 152.396 284.808 153.262C283.075 154.129 281.666 155.386 280.583 157.032C279.543 158.679 279.023 160.694 279.023 163.077C279.023 165.417 279.543 167.411 280.583 169.057C281.623 170.704 283.01 171.939 284.743 172.762C286.52 173.586 288.47 173.997 290.593 173.997ZM315.77 146.827H322.985V179.197H315.77V146.827ZM336.635 146.112C338.499 146.112 340.21 146.372 341.77 146.892C343.374 147.412 344.739 148.214 345.865 149.297C347.035 150.337 347.924 151.637 348.53 153.197C349.18 154.757 349.505 156.599 349.505 158.722V179.197H342.29V160.152C342.29 157.509 341.64 155.559 340.34 154.302C339.084 153.002 337.09 152.352 334.36 152.352C332.28 152.352 330.374 152.807 328.64 153.717C326.95 154.584 325.564 155.732 324.48 157.162C323.397 158.549 322.769 160.087 322.595 161.777L322.53 158.267C322.747 156.664 323.224 155.147 323.96 153.717C324.697 152.244 325.672 150.944 326.885 149.817C328.099 148.647 329.529 147.737 331.175 147.087C332.822 146.437 334.642 146.112 336.635 146.112ZM355.199 146.827H378.079V152.742H355.199V146.827ZM362.999 138.117H370.279V179.197H362.999V138.117ZM383.754 146.827H390.969V179.197H383.754V146.827ZM402.669 153.002C400.329 153.002 398.314 153.501 396.624 154.497C394.977 155.494 393.655 156.707 392.659 158.137C391.662 159.567 390.969 160.954 390.579 162.297L390.514 158.657C390.557 158.181 390.709 157.466 390.969 156.512C391.229 155.516 391.619 154.432 392.139 153.262C392.702 152.092 393.439 150.966 394.349 149.882C395.302 148.756 396.45 147.846 397.794 147.152C399.18 146.459 400.805 146.112 402.669 146.112V153.002ZM425.354 179.912C421.757 179.912 418.529 179.262 415.669 177.962C412.809 176.662 410.555 174.756 408.909 172.242C407.262 169.729 406.439 166.674 406.439 163.077C406.439 159.524 407.262 156.491 408.909 153.977C410.555 151.421 412.809 149.471 415.669 148.127C418.529 146.784 421.757 146.112 425.354 146.112C428.95 146.112 432.157 146.784 434.974 148.127C437.79 149.471 440 151.421 441.604 153.977C443.25 156.491 444.074 159.524 444.074 163.077C444.074 166.674 443.25 169.729 441.604 172.242C440 174.756 437.79 176.662 434.974 177.962C432.157 179.262 428.95 179.912 425.354 179.912ZM425.354 173.997C427.434 173.997 429.34 173.586 431.074 172.762C432.807 171.939 434.172 170.704 435.169 169.057C436.209 167.411 436.729 165.417 436.729 163.077C436.729 160.737 436.209 158.744 435.169 157.097C434.172 155.451 432.807 154.194 431.074 153.327C429.384 152.417 427.477 151.962 425.354 151.962C423.23 151.962 421.302 152.396 419.569 153.262C417.835 154.129 416.427 155.386 415.344 157.032C414.304 158.679 413.784 160.694 413.784 163.077C413.784 165.417 414.304 167.411 415.344 169.057C416.384 170.704 417.77 171.939 419.504 172.762C421.28 173.586 423.23 173.997 425.354 173.997ZM451.181 133.827H458.396V179.197H451.181V133.827ZM468.917 135.192H476.197V166.067H468.917V135.192ZM476.912 172.177V179.197H468.202V172.177H476.912Z" fill="#FFBD00"/>
</g>
<defs>
<linearGradient id="paint0_linear_4830_46910" x1="-5.91272" y1="57.8998" x2="205.765" y2="50.9169" gradientUnits="userSpaceOnUse">
<stop stop-color="white"/>
<stop offset="1" stop-color="white" stop-opacity="0"/>
</linearGradient>
<linearGradient id="paint1_linear_4830_46910" x1="-6.04969" y1="57.7025" x2="205.628" y2="50.7196" gradientUnits="userSpaceOnUse">
<stop stop-color="#FFBD00"/>
<stop offset="1" stop-color="#FFBD00" stop-opacity="0"/>
</linearGradient>
<clipPath id="clip0_4830_46910">
<rect width="564.497" height="211.408" fill="white" transform="translate(0.136963 0.197266)"/>
</clipPath>
</defs>
</svg>
