<svg width="814" height="203" viewBox="0 0 814 203" fill="none" xmlns="http://www.w3.org/2000/svg">
<g clip-path="url(#clip0_6987_65664)">
<path d="M7.32329 2.96904H70.7233V12.769L17.7233 61.369L16.4233 57.969H70.7233V67.769H7.32329V57.969L60.4233 9.36904L61.6233 12.769H7.32329V2.96904ZM124.705 51.369H135.405C134.871 54.769 133.538 57.8024 131.405 60.469C129.338 63.069 126.505 65.1357 122.905 66.669C119.305 68.1357 115.005 68.869 110.005 68.869C104.338 68.869 99.2712 67.8357 94.8045 65.769C90.3379 63.6357 86.8379 60.6357 84.3045 56.769C81.7712 52.9024 80.5045 48.3024 80.5045 42.969C80.5045 37.7024 81.7379 33.1024 84.2045 29.169C86.6712 25.2357 90.0712 22.2024 94.4045 20.069C98.8045 17.9357 103.871 16.869 109.605 16.869C115.538 16.869 120.471 17.9357 124.405 20.069C128.405 22.1357 131.371 25.269 133.305 29.469C135.238 33.6024 136.038 38.8357 135.705 45.169H91.8045C92.1379 47.969 93.0379 50.5024 94.5045 52.769C96.0379 54.969 98.1045 56.7024 100.705 57.969C103.305 59.169 106.338 59.769 109.805 59.769C113.671 59.769 116.905 59.0024 119.505 57.469C122.171 55.9357 123.905 53.9024 124.705 51.369ZM109.305 25.869C104.771 25.869 101.038 27.0024 98.1045 29.269C95.1712 31.469 93.2712 34.3024 92.4045 37.769H124.505C124.238 34.0357 122.738 31.1357 120.005 29.069C117.271 26.9357 113.705 25.869 109.305 25.869ZM145.605 17.969H156.705V67.769H145.605V17.969ZM174.705 27.469C171.105 27.469 168.005 28.2357 165.405 29.769C162.871 31.3024 160.838 33.169 159.305 35.369C157.771 37.569 156.705 39.7024 156.105 41.769L156.005 36.169C156.071 35.4357 156.305 34.3357 156.705 32.869C157.105 31.3357 157.705 29.669 158.505 27.869C159.371 26.069 160.505 24.3357 161.905 22.669C163.371 20.9357 165.138 19.5357 167.205 18.469C169.338 17.4024 171.838 16.869 174.705 16.869V27.469ZM209.605 68.869C204.071 68.869 199.105 67.869 194.705 65.869C190.305 63.869 186.838 60.9357 184.305 57.069C181.771 53.2024 180.505 48.5024 180.505 42.969C180.505 37.5024 181.771 32.8357 184.305 28.969C186.838 25.0357 190.305 22.0357 194.705 19.969C199.105 17.9024 204.071 16.869 209.605 16.869C215.138 16.869 220.071 17.9024 224.405 19.969C228.738 22.0357 232.138 25.0357 234.605 28.969C237.138 32.8357 238.405 37.5024 238.405 42.969C238.405 48.5024 237.138 53.2024 234.605 57.069C232.138 60.9357 228.738 63.869 224.405 65.869C220.071 67.869 215.138 68.869 209.605 68.869ZM209.605 59.769C212.805 59.769 215.738 59.1357 218.405 57.869C221.071 56.6024 223.171 54.7024 224.705 52.169C226.305 49.6357 227.105 46.569 227.105 42.969C227.105 39.369 226.305 36.3024 224.705 33.769C223.171 31.2357 221.071 29.3024 218.405 27.969C215.805 26.569 212.871 25.869 209.605 25.869C206.338 25.869 203.371 26.5357 200.705 27.869C198.038 29.2024 195.871 31.1357 194.205 33.669C192.605 36.2024 191.805 39.3024 191.805 42.969C191.805 46.569 192.605 49.6357 194.205 52.169C195.805 54.7024 197.938 56.6024 200.605 57.869C203.338 59.1357 206.338 59.769 209.605 59.769Z" fill="black"/>
<path d="M230.151 169.969L226.751 171.269V116.969H238.051V181.769H226.751L178.151 129.069L181.651 127.769V181.769H170.251V116.969H181.651L230.151 169.969ZM293.65 165.369H304.35C303.817 168.769 302.483 171.802 300.35 174.469C298.283 177.069 295.45 179.136 291.85 180.669C288.25 182.136 283.95 182.869 278.95 182.869C273.283 182.869 268.217 181.836 263.75 179.769C259.283 177.636 255.783 174.636 253.25 170.769C250.717 166.902 249.45 162.302 249.45 156.969C249.45 151.702 250.683 147.102 253.15 143.169C255.617 139.236 259.017 136.202 263.35 134.069C267.75 131.936 272.817 130.869 278.55 130.869C284.483 130.869 289.417 131.936 293.35 134.069C297.35 136.136 300.317 139.269 302.25 143.469C304.183 147.602 304.983 152.836 304.65 159.169H260.75C261.083 161.969 261.983 164.502 263.45 166.769C264.983 168.969 267.05 170.702 269.65 171.969C272.25 173.169 275.283 173.769 278.75 173.769C282.617 173.769 285.85 173.002 288.45 171.469C291.117 169.936 292.85 167.902 293.65 165.369ZM278.25 139.869C273.717 139.869 269.983 141.002 267.05 143.269C264.117 145.469 262.217 148.302 261.35 151.769H293.45C293.183 148.036 291.683 145.136 288.95 143.069C286.217 140.936 282.65 139.869 278.25 139.869ZM336.75 174.069C332.083 174.069 327.85 173.236 324.05 171.569C320.317 169.902 317.35 167.469 315.15 164.269C313.017 161.069 311.95 157.236 311.95 152.769C311.95 148.302 312.983 144.436 315.05 141.169C317.183 137.902 320.117 135.369 323.85 133.569C327.65 131.769 331.95 130.869 336.75 130.869C338.15 130.869 339.483 130.969 340.75 131.169C342.083 131.369 343.35 131.636 344.55 131.969L367.85 132.069V141.369C364.65 141.436 361.417 141.002 358.15 140.069C354.95 139.069 352.117 138.036 349.65 136.969L349.35 136.369C351.617 137.502 353.65 138.902 355.45 140.569C357.317 142.169 358.783 144.002 359.85 146.069C360.917 148.136 361.45 150.469 361.45 153.069C361.45 157.469 360.383 161.236 358.25 164.369C356.183 167.502 353.283 169.902 349.55 171.569C345.883 173.236 341.617 174.069 336.75 174.069ZM352.75 202.069V199.769C352.75 196.502 351.783 194.202 349.85 192.869C347.917 191.536 345.217 190.869 341.75 190.869H328.25C325.583 190.869 323.283 190.636 321.35 190.169C319.483 189.769 317.983 189.136 316.85 188.269C315.717 187.469 314.883 186.502 314.35 185.369C313.817 184.302 313.55 183.102 313.55 181.769C313.55 179.102 314.35 177.102 315.95 175.769C317.617 174.436 319.783 173.569 322.45 173.169C325.183 172.769 328.05 172.702 331.05 172.969L336.75 174.069C332.817 174.202 329.817 174.569 327.75 175.169C325.75 175.702 324.75 176.802 324.75 178.469C324.75 179.469 325.15 180.269 325.95 180.869C326.75 181.469 327.883 181.769 329.35 181.769H343.55C347.617 181.769 351.183 182.236 354.25 183.169C357.317 184.169 359.683 185.802 361.35 188.069C363.083 190.402 363.95 193.569 363.95 197.569V202.069H352.75ZM336.75 165.369C339.417 165.369 341.783 164.869 343.85 163.869C345.917 162.869 347.55 161.436 348.75 159.569C349.95 157.702 350.55 155.436 350.55 152.769C350.55 150.102 349.95 147.802 348.75 145.869C347.55 143.936 345.917 142.469 343.85 141.469C341.783 140.469 339.417 139.969 336.75 139.969C334.15 139.969 331.783 140.469 329.65 141.469C327.583 142.469 325.95 143.936 324.75 145.869C323.55 147.736 322.95 150.036 322.95 152.769C322.95 155.436 323.55 157.702 324.75 159.569C325.95 161.436 327.583 162.869 329.65 163.869C331.717 164.869 334.083 165.369 336.75 165.369ZM402.671 182.869C397.138 182.869 392.171 181.869 387.771 179.869C383.371 177.869 379.904 174.936 377.371 171.069C374.838 167.202 373.571 162.502 373.571 156.969C373.571 151.502 374.838 146.836 377.371 142.969C379.904 139.036 383.371 136.036 387.771 133.969C392.171 131.902 397.138 130.869 402.671 130.869C408.204 130.869 413.138 131.902 417.471 133.969C421.804 136.036 425.204 139.036 427.671 142.969C430.204 146.836 431.471 151.502 431.471 156.969C431.471 162.502 430.204 167.202 427.671 171.069C425.204 174.936 421.804 177.869 417.471 179.869C413.138 181.869 408.204 182.869 402.671 182.869ZM402.671 173.769C405.871 173.769 408.804 173.136 411.471 171.869C414.138 170.602 416.238 168.702 417.771 166.169C419.371 163.636 420.171 160.569 420.171 156.969C420.171 153.369 419.371 150.302 417.771 147.769C416.238 145.236 414.138 143.302 411.471 141.969C408.871 140.569 405.938 139.869 402.671 139.869C399.404 139.869 396.438 140.536 393.771 141.869C391.104 143.202 388.938 145.136 387.271 147.669C385.671 150.202 384.871 153.302 384.871 156.969C384.871 160.569 385.671 163.636 387.271 166.169C388.871 168.702 391.004 170.602 393.671 171.869C396.404 173.136 399.404 173.769 402.671 173.769ZM437.124 131.969H472.324V141.069H437.124V131.969ZM449.124 118.569H460.324V181.769H449.124V118.569ZM494.054 110.869V121.569H480.754V110.869H494.054ZM481.754 131.969H492.954V181.769H481.754V131.969ZM528.449 182.869C523.916 182.869 519.749 181.769 515.949 179.569C512.216 177.369 509.216 174.336 506.949 170.469C504.749 166.536 503.649 162.036 503.649 156.969C503.649 151.769 504.782 147.236 507.049 143.369C509.316 139.436 512.382 136.369 516.249 134.169C520.116 131.969 524.449 130.869 529.249 130.869C534.582 130.869 538.816 132.036 541.949 134.369C545.082 136.702 547.316 139.836 548.649 143.769C549.982 147.702 550.649 152.102 550.649 156.969C550.649 159.702 550.249 162.602 549.449 165.669C548.649 168.669 547.382 171.469 545.649 174.069C543.982 176.669 541.716 178.802 538.849 180.469C536.049 182.069 532.582 182.869 528.449 182.869ZM531.849 173.669C535.582 173.669 538.749 172.969 541.349 171.569C544.016 170.102 546.016 168.102 547.349 165.569C548.749 163.036 549.449 160.169 549.449 156.969C549.449 153.436 548.749 150.436 547.349 147.969C545.949 145.436 543.949 143.502 541.349 142.169C538.749 140.769 535.582 140.069 531.849 140.069C526.516 140.069 522.382 141.636 519.449 144.769C516.516 147.902 515.049 151.969 515.049 156.969C515.049 160.236 515.749 163.136 517.149 165.669C518.616 168.202 520.616 170.169 523.149 171.569C525.682 172.969 528.582 173.669 531.849 173.669ZM549.449 131.969H560.649V181.769H550.249C550.249 181.769 550.182 181.136 550.049 179.869C549.916 178.602 549.782 177.069 549.649 175.269C549.516 173.402 549.449 171.636 549.449 169.969V131.969ZM569.351 131.969H604.551V141.069H569.351V131.969ZM581.351 118.569H592.551V181.769H581.351V118.569ZM626.28 110.869V121.569H612.98V110.869H626.28ZM613.98 131.969H625.18V181.769H613.98V131.969ZM664.976 182.869C659.442 182.869 654.476 181.869 650.076 179.869C645.676 177.869 642.209 174.936 639.676 171.069C637.142 167.202 635.876 162.502 635.876 156.969C635.876 151.502 637.142 146.836 639.676 142.969C642.209 139.036 645.676 136.036 650.076 133.969C654.476 131.902 659.442 130.869 664.976 130.869C670.509 130.869 675.442 131.902 679.776 133.969C684.109 136.036 687.509 139.036 689.976 142.969C692.509 146.836 693.776 151.502 693.776 156.969C693.776 162.502 692.509 167.202 689.976 171.069C687.509 174.936 684.109 177.869 679.776 179.869C675.442 181.869 670.509 182.869 664.976 182.869ZM664.976 173.769C668.176 173.769 671.109 173.136 673.776 171.869C676.442 170.602 678.542 168.702 680.076 166.169C681.676 163.636 682.476 160.569 682.476 156.969C682.476 153.369 681.676 150.302 680.076 147.769C678.542 145.236 676.442 143.302 673.776 141.969C671.176 140.569 668.242 139.869 664.976 139.869C661.709 139.869 658.742 140.536 656.076 141.869C653.409 143.202 651.242 145.136 649.576 147.669C647.976 150.202 647.176 153.302 647.176 156.969C647.176 160.569 647.976 163.636 649.576 166.169C651.176 168.702 653.309 170.602 655.976 171.869C658.709 173.136 661.709 173.769 664.976 173.769ZM703.71 131.969H714.81V181.769H703.71V131.969ZM735.81 130.869C738.677 130.869 741.31 131.269 743.71 132.069C746.177 132.869 748.277 134.102 750.01 135.769C751.81 137.369 753.177 139.369 754.11 141.769C755.11 144.169 755.61 147.002 755.61 150.269V181.769H744.51V152.469C744.51 148.402 743.51 145.402 741.51 143.469C739.577 141.469 736.51 140.469 732.31 140.469C729.11 140.469 726.177 141.169 723.51 142.569C720.91 143.902 718.777 145.669 717.11 147.869C715.443 150.002 714.477 152.369 714.21 154.969L714.11 149.569C714.443 147.102 715.177 144.769 716.31 142.569C717.443 140.302 718.943 138.302 720.81 136.569C722.677 134.769 724.877 133.369 727.41 132.369C729.943 131.369 732.743 130.869 735.81 130.869ZM765.67 165.369H775.97C776.504 167.902 777.87 169.969 780.07 171.569C782.27 173.102 785.237 173.869 788.97 173.869C791.37 173.869 793.237 173.602 794.57 173.069C795.97 172.536 796.937 171.802 797.47 170.869C798.07 169.936 798.37 168.869 798.37 167.669C798.37 166.202 797.937 165.069 797.07 164.269C796.27 163.469 795.07 162.802 793.47 162.269C791.87 161.736 789.87 161.269 787.47 160.869C785.004 160.269 782.57 159.602 780.17 158.869C777.77 158.136 775.603 157.236 773.67 156.169C771.737 155.036 770.203 153.636 769.07 151.969C768.003 150.236 767.47 148.136 767.47 145.669C767.47 143.402 767.97 141.369 768.97 139.569C770.037 137.702 771.503 136.136 773.37 134.869C775.237 133.602 777.437 132.636 779.97 131.969C782.504 131.236 785.27 130.869 788.27 130.869C792.604 130.869 796.204 131.569 799.07 132.969C802.004 134.369 804.204 136.336 805.67 138.869C807.204 141.402 807.97 144.302 807.97 147.569H798.17C797.637 144.902 796.604 142.969 795.07 141.769C793.537 140.569 791.237 139.969 788.17 139.969C785.104 139.969 782.77 140.502 781.17 141.569C779.57 142.636 778.77 144.102 778.77 145.969C778.77 147.369 779.27 148.502 780.27 149.369C781.337 150.169 782.837 150.869 784.77 151.469C786.704 152.069 788.97 152.669 791.57 153.269C793.97 153.936 796.237 154.636 798.37 155.369C800.504 156.036 802.404 156.902 804.07 157.969C805.804 158.969 807.17 160.302 808.17 161.969C809.17 163.636 809.67 165.702 809.67 168.169C809.67 171.236 808.837 173.869 807.17 176.069C805.57 178.269 803.237 179.969 800.17 181.169C797.104 182.302 793.404 182.869 789.07 182.869C785.27 182.869 781.97 182.436 779.17 181.569C776.437 180.702 774.137 179.569 772.27 178.169C770.47 176.769 769.07 175.269 768.07 173.669C767.07 172.069 766.37 170.536 765.97 169.069C765.637 167.602 765.537 166.369 765.67 165.369Z" fill="#23A323"/>
<path d="M284.322 40.765V43.719H289.656V44.769H283.202V35.669H289.642V36.719H284.322V39.715H288.676V40.765H284.322ZM291.54 34.969H292.66V44.769H291.54V34.969ZM296.013 34.969V36.327H294.557V34.969H296.013ZM294.725 37.769H295.845V44.769H294.725V37.769ZM297.758 37.769H298.878V44.769H297.758V37.769ZM301.286 37.629C301.659 37.629 301.995 37.685 302.294 37.797C302.592 37.909 302.844 38.0724 303.05 38.287C303.255 38.5017 303.414 38.763 303.526 39.071C303.638 39.3697 303.694 39.7104 303.694 40.093V44.769H302.574V40.373C302.574 39.8317 302.448 39.4257 302.196 39.155C301.944 38.8844 301.566 38.749 301.062 38.749C300.679 38.749 300.324 38.847 299.998 39.043C299.671 39.239 299.4 39.5097 299.186 39.855C298.98 40.191 298.854 40.583 298.808 41.031L298.794 40.219C298.84 39.827 298.934 39.4724 299.074 39.155C299.223 38.8377 299.405 38.567 299.62 38.343C299.844 38.1097 300.096 37.9324 300.376 37.811C300.665 37.6897 300.968 37.629 301.286 37.629ZM305.99 37.629C306.363 37.629 306.699 37.685 306.998 37.797C307.296 37.909 307.548 38.0724 307.754 38.287C307.959 38.5017 308.118 38.763 308.23 39.071C308.342 39.3697 308.398 39.7104 308.398 40.093V44.769H307.278V40.373C307.278 39.8317 307.152 39.4257 306.9 39.155C306.648 38.8844 306.27 38.749 305.766 38.749C305.383 38.749 305.028 38.847 304.702 39.043C304.375 39.239 304.104 39.5097 303.89 39.855C303.684 40.191 303.558 40.583 303.512 41.031L303.498 40.219C303.544 39.827 303.638 39.4724 303.778 39.155C303.927 38.8377 304.109 38.567 304.324 38.343C304.548 38.1097 304.8 37.9324 305.08 37.811C305.369 37.6897 305.672 37.629 305.99 37.629ZM311.599 34.969V36.327H310.143V34.969H311.599ZM310.311 37.769H311.431V44.769H310.311V37.769ZM313.343 37.769H314.463V44.769H313.343V37.769ZM316.871 37.629C317.245 37.629 317.581 37.685 317.879 37.797C318.178 37.909 318.43 38.0724 318.635 38.287C318.841 38.5017 318.999 38.763 319.111 39.071C319.223 39.3697 319.279 39.7104 319.279 40.093V44.769H318.159V40.373C318.159 39.8317 318.033 39.4257 317.781 39.155C317.529 38.8844 317.151 38.749 316.647 38.749C316.265 38.749 315.91 38.847 315.583 39.043C315.257 39.239 314.986 39.5097 314.771 39.855C314.566 40.191 314.44 40.583 314.393 41.031L314.379 40.219C314.426 39.827 314.519 39.4724 314.659 39.155C314.809 38.8377 314.991 38.567 315.205 38.343C315.429 38.1097 315.681 37.9324 315.961 37.811C316.251 37.6897 316.554 37.629 316.871 37.629ZM323.741 44.909C323.191 44.909 322.682 44.755 322.215 44.447C321.758 44.1297 321.389 43.7004 321.109 43.159C320.839 42.6084 320.703 41.983 320.703 41.283C320.703 40.583 320.843 39.9577 321.123 39.407C321.403 38.8564 321.781 38.4224 322.257 38.105C322.743 37.7877 323.284 37.629 323.881 37.629C324.535 37.629 325.029 37.797 325.365 38.133C325.711 38.4597 325.944 38.8984 326.065 39.449C326.196 39.9997 326.261 40.611 326.261 41.283C326.261 41.6377 326.224 42.025 326.149 42.445C326.075 42.8557 325.944 43.2524 325.757 43.635C325.58 44.0084 325.328 44.3164 325.001 44.559C324.675 44.7924 324.255 44.909 323.741 44.909ZM324.021 43.845C324.497 43.845 324.889 43.7284 325.197 43.495C325.515 43.2617 325.748 42.9537 325.897 42.571C326.047 42.179 326.121 41.7497 326.121 41.283C326.121 40.7697 326.042 40.3217 325.883 39.939C325.734 39.547 325.501 39.2437 325.183 39.029C324.875 38.805 324.488 38.693 324.021 38.693C323.321 38.693 322.78 38.9404 322.397 39.435C322.015 39.9204 321.823 40.5364 321.823 41.283C321.823 41.7777 321.917 42.221 322.103 42.613C322.299 42.9957 322.561 43.299 322.887 43.523C323.223 43.7377 323.601 43.845 324.021 43.845ZM326.121 37.769H327.241V44.769H326.219C326.219 44.769 326.21 44.685 326.191 44.517C326.182 44.349 326.168 44.153 326.149 43.929C326.131 43.705 326.121 43.5184 326.121 43.369V37.769ZM328.576 37.769H332.692V38.819H328.576V37.769ZM330.074 35.949H331.194V44.769H330.074V35.949ZM338.835 42.515H339.885C339.81 42.9724 339.642 43.383 339.381 43.747C339.129 44.1017 338.793 44.3864 338.373 44.601C337.962 44.8064 337.486 44.909 336.945 44.909C336.291 44.909 335.703 44.755 335.181 44.447C334.658 44.1297 334.243 43.7004 333.935 43.159C333.636 42.6084 333.487 41.983 333.487 41.283C333.487 40.583 333.631 39.9577 333.921 39.407C334.219 38.8564 334.625 38.4224 335.139 38.105C335.652 37.7877 336.231 37.629 336.875 37.629C337.556 37.629 338.13 37.783 338.597 38.091C339.073 38.3897 339.423 38.833 339.647 39.421C339.88 39.9997 339.973 40.7137 339.927 41.563H334.607C334.653 42.0204 334.779 42.4217 334.985 42.767C335.19 43.1124 335.461 43.383 335.797 43.579C336.133 43.7657 336.515 43.859 336.945 43.859C337.421 43.859 337.822 43.7377 338.149 43.495C338.485 43.243 338.713 42.9164 338.835 42.515ZM336.917 38.679C336.338 38.679 335.853 38.847 335.461 39.183C335.069 39.519 334.807 39.9764 334.677 40.555H338.779C338.741 39.939 338.541 39.4724 338.177 39.155C337.822 38.8377 337.402 38.679 336.917 38.679ZM344.45 34.969H345.57V44.769H344.45V34.969ZM350.575 44.909C349.977 44.909 349.417 44.7644 348.895 44.475C348.372 44.1857 347.947 43.7704 347.621 43.229C347.303 42.6784 347.145 42.0297 347.145 41.283C347.145 40.5364 347.303 39.8924 347.621 39.351C347.947 38.8004 348.372 38.3757 348.895 38.077C349.417 37.7784 349.977 37.629 350.575 37.629C351.172 37.629 351.727 37.7784 352.241 38.077C352.763 38.3757 353.183 38.8004 353.501 39.351C353.818 39.8924 353.977 40.5364 353.977 41.283C353.977 42.0297 353.818 42.6784 353.501 43.229C353.183 43.7704 352.763 44.1857 352.241 44.475C351.727 44.7644 351.172 44.909 350.575 44.909ZM350.575 43.859C350.967 43.859 351.335 43.761 351.681 43.565C352.026 43.369 352.306 43.0797 352.521 42.697C352.745 42.305 352.857 41.8337 352.857 41.283C352.857 40.7324 352.745 40.2657 352.521 39.883C352.306 39.491 352.026 39.1924 351.681 38.987C351.335 38.7817 350.967 38.679 350.575 38.679C350.183 38.679 349.809 38.7817 349.455 38.987C349.109 39.183 348.825 39.477 348.601 39.869C348.377 40.2517 348.265 40.723 348.265 41.283C348.265 41.8337 348.372 42.305 348.587 42.697C348.811 43.0797 349.1 43.369 349.455 43.565C349.809 43.761 350.183 43.859 350.575 43.859ZM355.398 37.769H356.518V44.769H355.398V37.769ZM358.926 37.629C359.299 37.629 359.635 37.685 359.934 37.797C360.233 37.909 360.485 38.0724 360.69 38.287C360.895 38.5017 361.054 38.763 361.166 39.071C361.278 39.3697 361.334 39.7104 361.334 40.093V44.769H360.214V40.373C360.214 39.8317 360.088 39.4257 359.836 39.155C359.584 38.8844 359.206 38.749 358.702 38.749C358.319 38.749 357.965 38.847 357.638 39.043C357.311 39.239 357.041 39.5097 356.826 39.855C356.621 40.191 356.495 40.583 356.448 41.031L356.434 40.219C356.481 39.827 356.574 39.4724 356.714 39.155C356.863 38.8377 357.045 38.567 357.26 38.343C357.484 38.1097 357.736 37.9324 358.016 37.811C358.305 37.6897 358.609 37.629 358.926 37.629ZM365.656 43.663C365.161 43.663 364.69 43.5464 364.242 43.313C363.803 43.0704 363.444 42.725 363.164 42.277C362.893 41.829 362.758 41.2924 362.758 40.667C362.758 40.0417 362.893 39.505 363.164 39.057C363.435 38.5997 363.789 38.2497 364.228 38.007C364.667 37.755 365.143 37.629 365.656 37.629C365.815 37.629 365.964 37.643 366.104 37.671C366.253 37.6897 366.393 37.7224 366.524 37.769H369.366V38.973C368.965 38.973 368.563 38.8984 368.162 38.749C367.77 38.5997 367.434 38.4457 367.154 38.287L367.098 38.231C367.425 38.4084 367.691 38.6184 367.896 38.861C368.111 39.1037 368.269 39.379 368.372 39.687C368.484 39.9857 368.54 40.3124 368.54 40.667C368.54 41.2924 368.405 41.829 368.134 42.277C367.873 42.725 367.523 43.0704 367.084 43.313C366.645 43.5464 366.169 43.663 365.656 43.663ZM367.714 47.569V47.261C367.714 46.7664 367.583 46.407 367.322 46.183C367.07 45.959 366.687 45.847 366.174 45.847H364.774C364.466 45.847 364.195 45.819 363.962 45.763C363.738 45.7164 363.551 45.6417 363.402 45.539C363.253 45.4364 363.141 45.3104 363.066 45.161C362.991 45.0117 362.954 44.8437 362.954 44.657C362.954 44.3024 363.061 44.0364 363.276 43.859C363.491 43.6724 363.757 43.5557 364.074 43.509C364.391 43.4624 364.695 43.4624 364.984 43.509L365.656 43.663C365.152 43.691 364.76 43.7424 364.48 43.817C364.209 43.8917 364.074 44.0504 364.074 44.293C364.074 44.433 364.125 44.5497 364.228 44.643C364.34 44.727 364.503 44.769 364.718 44.769H366.174C366.659 44.769 367.103 44.8344 367.504 44.965C367.905 45.105 368.227 45.3337 368.47 45.651C368.713 45.9777 368.834 46.421 368.834 46.981V47.569H367.714ZM365.656 42.613C365.964 42.613 366.249 42.5384 366.51 42.389C366.781 42.2397 367 42.0204 367.168 41.731C367.336 41.4417 367.42 41.087 367.42 40.667C367.42 40.247 367.336 39.8924 367.168 39.603C367.009 39.3044 366.795 39.0804 366.524 38.931C366.253 38.7724 365.964 38.693 365.656 38.693C365.348 38.693 365.059 38.7724 364.788 38.931C364.517 39.0804 364.298 39.2997 364.13 39.589C363.962 39.8784 363.878 40.2377 363.878 40.667C363.878 41.087 363.962 41.4417 364.13 41.731C364.298 42.0204 364.517 42.2397 364.788 42.389C365.059 42.5384 365.348 42.613 365.656 42.613ZM373.623 37.769H374.743V44.769H373.623V37.769ZM377.151 37.629C377.524 37.629 377.86 37.685 378.159 37.797C378.457 37.909 378.709 38.0724 378.915 38.287C379.12 38.5017 379.279 38.763 379.391 39.071C379.503 39.3697 379.559 39.7104 379.559 40.093V44.769H378.439V40.373C378.439 39.8317 378.313 39.4257 378.061 39.155C377.809 38.8844 377.431 38.749 376.927 38.749C376.544 38.749 376.189 38.847 375.863 39.043C375.536 39.239 375.265 39.5097 375.051 39.855C374.845 40.191 374.719 40.583 374.673 41.031L374.659 40.219C374.705 39.827 374.799 39.4724 374.939 39.155C375.088 38.8377 375.27 38.567 375.485 38.343C375.709 38.1097 375.961 37.9324 376.241 37.811C376.53 37.6897 376.833 37.629 377.151 37.629ZM386.331 42.515H387.381C387.306 42.9724 387.138 43.383 386.877 43.747C386.625 44.1017 386.289 44.3864 385.869 44.601C385.458 44.8064 384.982 44.909 384.441 44.909C383.787 44.909 383.199 44.755 382.677 44.447C382.154 44.1297 381.739 43.7004 381.431 43.159C381.132 42.6084 380.983 41.983 380.983 41.283C380.983 40.583 381.127 39.9577 381.417 39.407C381.715 38.8564 382.121 38.4224 382.635 38.105C383.148 37.7877 383.727 37.629 384.371 37.629C385.052 37.629 385.626 37.783 386.093 38.091C386.569 38.3897 386.919 38.833 387.143 39.421C387.376 39.9997 387.469 40.7137 387.423 41.563H382.103C382.149 42.0204 382.275 42.4217 382.481 42.767C382.686 43.1124 382.957 43.383 383.293 43.579C383.629 43.7657 384.011 43.859 384.441 43.859C384.917 43.859 385.318 43.7377 385.645 43.495C385.981 43.243 386.209 42.9164 386.331 42.515ZM384.413 38.679C383.834 38.679 383.349 38.847 382.957 39.183C382.565 39.519 382.303 39.9764 382.173 40.555H386.275C386.237 39.939 386.037 39.4724 385.673 39.155C385.318 38.8377 384.898 38.679 384.413 38.679ZM391.373 43.663C390.878 43.663 390.407 43.5464 389.959 43.313C389.52 43.0704 389.161 42.725 388.881 42.277C388.61 41.829 388.475 41.2924 388.475 40.667C388.475 40.0417 388.61 39.505 388.881 39.057C389.152 38.5997 389.506 38.2497 389.945 38.007C390.384 37.755 390.86 37.629 391.373 37.629C391.532 37.629 391.681 37.643 391.821 37.671C391.97 37.6897 392.11 37.7224 392.241 37.769H395.083V38.973C394.682 38.973 394.28 38.8984 393.879 38.749C393.487 38.5997 393.151 38.4457 392.871 38.287L392.815 38.231C393.142 38.4084 393.408 38.6184 393.613 38.861C393.828 39.1037 393.986 39.379 394.089 39.687C394.201 39.9857 394.257 40.3124 394.257 40.667C394.257 41.2924 394.122 41.829 393.851 42.277C393.59 42.725 393.24 43.0704 392.801 43.313C392.362 43.5464 391.886 43.663 391.373 43.663ZM393.431 47.569V47.261C393.431 46.7664 393.3 46.407 393.039 46.183C392.787 45.959 392.404 45.847 391.891 45.847H390.491C390.183 45.847 389.912 45.819 389.679 45.763C389.455 45.7164 389.268 45.6417 389.119 45.539C388.97 45.4364 388.858 45.3104 388.783 45.161C388.708 45.0117 388.671 44.8437 388.671 44.657C388.671 44.3024 388.778 44.0364 388.993 43.859C389.208 43.6724 389.474 43.5557 389.791 43.509C390.108 43.4624 390.412 43.4624 390.701 43.509L391.373 43.663C390.869 43.691 390.477 43.7424 390.197 43.817C389.926 43.8917 389.791 44.0504 389.791 44.293C389.791 44.433 389.842 44.5497 389.945 44.643C390.057 44.727 390.22 44.769 390.435 44.769H391.891C392.376 44.769 392.82 44.8344 393.221 44.965C393.622 45.105 393.944 45.3337 394.187 45.651C394.43 45.9777 394.551 46.421 394.551 46.981V47.569H393.431ZM391.373 42.613C391.681 42.613 391.966 42.5384 392.227 42.389C392.498 42.2397 392.717 42.0204 392.885 41.731C393.053 41.4417 393.137 41.087 393.137 40.667C393.137 40.247 393.053 39.8924 392.885 39.603C392.726 39.3044 392.512 39.0804 392.241 38.931C391.97 38.7724 391.681 38.693 391.373 38.693C391.065 38.693 390.776 38.7724 390.505 38.931C390.234 39.0804 390.015 39.2997 389.847 39.589C389.679 39.8784 389.595 40.2377 389.595 40.667C389.595 41.087 389.679 41.4417 389.847 41.731C390.015 42.0204 390.234 42.2397 390.505 42.389C390.776 42.5384 391.065 42.613 391.373 42.613ZM399.438 44.909C398.841 44.909 398.281 44.7644 397.758 44.475C397.235 44.1857 396.811 43.7704 396.484 43.229C396.167 42.6784 396.008 42.0297 396.008 41.283C396.008 40.5364 396.167 39.8924 396.484 39.351C396.811 38.8004 397.235 38.3757 397.758 38.077C398.281 37.7784 398.841 37.629 399.438 37.629C400.035 37.629 400.591 37.7784 401.104 38.077C401.627 38.3757 402.047 38.8004 402.364 39.351C402.681 39.8924 402.84 40.5364 402.84 41.283C402.84 42.0297 402.681 42.6784 402.364 43.229C402.047 43.7704 401.627 44.1857 401.104 44.475C400.591 44.7644 400.035 44.909 399.438 44.909ZM399.438 43.859C399.83 43.859 400.199 43.761 400.544 43.565C400.889 43.369 401.169 43.0797 401.384 42.697C401.608 42.305 401.72 41.8337 401.72 41.283C401.72 40.7324 401.608 40.2657 401.384 39.883C401.169 39.491 400.889 39.1924 400.544 38.987C400.199 38.7817 399.83 38.679 399.438 38.679C399.046 38.679 398.673 38.7817 398.318 38.987C397.973 39.183 397.688 39.477 397.464 39.869C397.24 40.2517 397.128 40.723 397.128 41.283C397.128 41.8337 397.235 42.305 397.45 42.697C397.674 43.0797 397.963 43.369 398.318 43.565C398.673 43.761 399.046 43.859 399.438 43.859ZM403.635 37.769H407.751V38.819H403.635V37.769ZM405.133 35.949H406.253V44.769H405.133V35.949ZM410.46 34.969V36.327H409.004V34.969H410.46ZM409.172 37.769H410.292V44.769H409.172V37.769ZM414.851 44.909C414.3 44.909 413.791 44.755 413.325 44.447C412.867 44.1297 412.499 43.7004 412.219 43.159C411.948 42.6084 411.813 41.983 411.813 41.283C411.813 40.583 411.953 39.9577 412.233 39.407C412.513 38.8564 412.891 38.4224 413.367 38.105C413.852 37.7877 414.393 37.629 414.991 37.629C415.644 37.629 416.139 37.797 416.475 38.133C416.82 38.4597 417.053 38.8984 417.175 39.449C417.305 39.9997 417.371 40.611 417.371 41.283C417.371 41.6377 417.333 42.025 417.259 42.445C417.184 42.8557 417.053 43.2524 416.867 43.635C416.689 44.0084 416.437 44.3164 416.111 44.559C415.784 44.7924 415.364 44.909 414.851 44.909ZM415.131 43.845C415.607 43.845 415.999 43.7284 416.307 43.495C416.624 43.2617 416.857 42.9537 417.007 42.571C417.156 42.179 417.231 41.7497 417.231 41.283C417.231 40.7697 417.151 40.3217 416.993 39.939C416.843 39.547 416.61 39.2437 416.293 39.029C415.985 38.805 415.597 38.693 415.131 38.693C414.431 38.693 413.889 38.9404 413.507 39.435C413.124 39.9204 412.933 40.5364 412.933 41.283C412.933 41.7777 413.026 42.221 413.213 42.613C413.409 42.9957 413.67 43.299 413.997 43.523C414.333 43.7377 414.711 43.845 415.131 43.845ZM417.231 37.769H418.351V44.769H417.329C417.329 44.769 417.319 44.685 417.301 44.517C417.291 44.349 417.277 44.153 417.259 43.929C417.24 43.705 417.231 43.5184 417.231 43.369V37.769ZM419.686 37.769H423.802V38.819H419.686V37.769ZM421.184 35.949H422.304V44.769H421.184V35.949ZM426.511 34.969V36.327H425.055V34.969H426.511ZM425.223 37.769H426.343V44.769H425.223V37.769ZM431.294 44.909C430.696 44.909 430.136 44.7644 429.614 44.475C429.091 44.1857 428.666 43.7704 428.34 43.229C428.022 42.6784 427.864 42.0297 427.864 41.283C427.864 40.5364 428.022 39.8924 428.34 39.351C428.666 38.8004 429.091 38.3757 429.614 38.077C430.136 37.7784 430.696 37.629 431.294 37.629C431.891 37.629 432.446 37.7784 432.96 38.077C433.482 38.3757 433.902 38.8004 434.22 39.351C434.537 39.8924 434.696 40.5364 434.696 41.283C434.696 42.0297 434.537 42.6784 434.22 43.229C433.902 43.7704 433.482 44.1857 432.96 44.475C432.446 44.7644 431.891 44.909 431.294 44.909ZM431.294 43.859C431.686 43.859 432.054 43.761 432.4 43.565C432.745 43.369 433.025 43.0797 433.24 42.697C433.464 42.305 433.576 41.8337 433.576 41.283C433.576 40.7324 433.464 40.2657 433.24 39.883C433.025 39.491 432.745 39.1924 432.4 38.987C432.054 38.7817 431.686 38.679 431.294 38.679C430.902 38.679 430.528 38.7817 430.174 38.987C429.828 39.183 429.544 39.477 429.32 39.869C429.096 40.2517 428.984 40.723 428.984 41.283C428.984 41.8337 429.091 42.305 429.306 42.697C429.53 43.0797 429.819 43.369 430.174 43.565C430.528 43.761 430.902 43.859 431.294 43.859ZM436.117 37.769H437.237V44.769H436.117V37.769ZM439.645 37.629C440.018 37.629 440.354 37.685 440.653 37.797C440.952 37.909 441.204 38.0724 441.409 38.287C441.614 38.5017 441.773 38.763 441.885 39.071C441.997 39.3697 442.053 39.7104 442.053 40.093V44.769H440.933V40.373C440.933 39.8317 440.807 39.4257 440.555 39.155C440.303 38.8844 439.925 38.749 439.421 38.749C439.038 38.749 438.684 38.847 438.357 39.043C438.03 39.239 437.76 39.5097 437.545 39.855C437.34 40.191 437.214 40.583 437.167 41.031L437.153 40.219C437.2 39.827 437.293 39.4724 437.433 39.155C437.582 38.8377 437.764 38.567 437.979 38.343C438.203 38.1097 438.455 37.9324 438.735 37.811C439.024 37.6897 439.328 37.629 439.645 37.629ZM450.308 44.909C449.795 44.909 449.375 44.7924 449.048 44.559C448.722 44.3164 448.465 44.0084 448.278 43.635C448.101 43.2524 447.975 42.8557 447.9 42.445C447.826 42.025 447.788 41.6377 447.788 41.283C447.788 40.779 447.821 40.3077 447.886 39.869C447.961 39.4304 448.087 39.043 448.264 38.707C448.442 38.371 448.694 38.1097 449.02 37.923C449.356 37.727 449.786 37.629 450.308 37.629C450.868 37.629 451.377 37.7877 451.834 38.105C452.292 38.4224 452.656 38.8564 452.926 39.407C453.206 39.9577 453.346 40.583 453.346 41.283C453.346 41.983 453.206 42.6084 452.926 43.159C452.646 43.7004 452.273 44.1297 451.806 44.447C451.349 44.755 450.85 44.909 450.308 44.909ZM450.028 43.845C450.458 43.845 450.836 43.7377 451.162 43.523C451.498 43.299 451.76 42.9957 451.946 42.613C452.133 42.221 452.226 41.7777 452.226 41.283C452.226 40.5364 452.035 39.9204 451.652 39.435C451.27 38.9404 450.728 38.693 450.028 38.693C449.618 38.693 449.254 38.805 448.936 39.029C448.619 39.2437 448.372 39.547 448.194 39.939C448.017 40.3217 447.928 40.7697 447.928 41.283C447.928 41.7497 448.003 42.179 448.152 42.571C448.311 42.9537 448.544 43.2617 448.852 43.495C449.16 43.7284 449.552 43.845 450.028 43.845ZM446.808 37.769H447.886L447.928 39.239V47.569H446.808V37.769ZM459.735 42.515H460.785C460.71 42.9724 460.542 43.383 460.281 43.747C460.029 44.1017 459.693 44.3864 459.273 44.601C458.862 44.8064 458.386 44.909 457.845 44.909C457.192 44.909 456.604 44.755 456.081 44.447C455.558 44.1297 455.143 43.7004 454.835 43.159C454.536 42.6084 454.387 41.983 454.387 41.283C454.387 40.583 454.532 39.9577 454.821 39.407C455.12 38.8564 455.526 38.4224 456.039 38.105C456.552 37.7877 457.131 37.629 457.775 37.629C458.456 37.629 459.03 37.783 459.497 38.091C459.973 38.3897 460.323 38.833 460.547 39.421C460.78 39.9997 460.874 40.7137 460.827 41.563H455.507C455.554 42.0204 455.68 42.4217 455.885 42.767C456.09 43.1124 456.361 43.383 456.697 43.579C457.033 43.7657 457.416 43.859 457.845 43.859C458.321 43.859 458.722 43.7377 459.049 43.495C459.385 43.243 459.614 42.9164 459.735 42.515ZM457.817 38.679C457.238 38.679 456.753 38.847 456.361 39.183C455.969 39.519 455.708 39.9764 455.577 40.555H459.679C459.642 39.939 459.441 39.4724 459.077 39.155C458.722 38.8377 458.302 38.679 457.817 38.679ZM462.271 37.769H463.391V44.769H462.271V37.769ZM465.631 38.819C465.155 38.819 464.754 38.9404 464.427 39.183C464.11 39.4164 463.858 39.7057 463.671 40.051C463.494 40.387 463.377 40.7137 463.321 41.031L463.307 40.219C463.307 40.135 463.326 39.995 463.363 39.799C463.401 39.603 463.471 39.3837 463.573 39.141C463.676 38.889 463.811 38.651 463.979 38.427C464.157 38.1937 464.381 38.0024 464.651 37.853C464.922 37.7037 465.249 37.629 465.631 37.629V38.819ZM468.278 34.969V36.327H466.822V34.969H468.278ZM466.99 37.769H468.11V44.769H466.99V37.769ZM473.061 44.909C472.464 44.909 471.904 44.7644 471.381 44.475C470.858 44.1857 470.434 43.7704 470.107 43.229C469.79 42.6784 469.631 42.0297 469.631 41.283C469.631 40.5364 469.79 39.8924 470.107 39.351C470.434 38.8004 470.858 38.3757 471.381 38.077C471.904 37.7784 472.464 37.629 473.061 37.629C473.658 37.629 474.214 37.7784 474.727 38.077C475.25 38.3757 475.67 38.8004 475.987 39.351C476.304 39.8924 476.463 40.5364 476.463 41.283C476.463 42.0297 476.304 42.6784 475.987 43.229C475.67 43.7704 475.25 44.1857 474.727 44.475C474.214 44.7644 473.658 44.909 473.061 44.909ZM473.061 43.859C473.453 43.859 473.822 43.761 474.167 43.565C474.512 43.369 474.792 43.0797 475.007 42.697C475.231 42.305 475.343 41.8337 475.343 41.283C475.343 40.7324 475.231 40.2657 475.007 39.883C474.792 39.491 474.512 39.1924 474.167 38.987C473.822 38.7817 473.453 38.679 473.061 38.679C472.669 38.679 472.296 38.7817 471.941 38.987C471.596 39.183 471.311 39.477 471.087 39.869C470.863 40.2517 470.751 40.723 470.751 41.283C470.751 41.8337 470.858 42.305 471.073 42.697C471.297 43.0797 471.586 43.369 471.941 43.565C472.296 43.761 472.669 43.859 473.061 43.859ZM480.53 44.909C479.97 44.909 479.457 44.755 478.99 44.447C478.533 44.1297 478.169 43.7004 477.898 43.159C477.628 42.6084 477.492 41.983 477.492 41.283C477.492 40.583 477.623 39.9577 477.884 39.407C478.146 38.8564 478.505 38.4224 478.962 38.105C479.42 37.7877 479.942 37.629 480.53 37.629C481.053 37.629 481.478 37.727 481.804 37.923C482.14 38.1097 482.397 38.371 482.574 38.707C482.752 39.043 482.873 39.4304 482.938 39.869C483.013 40.3077 483.05 40.779 483.05 41.283C483.05 41.6377 483.013 42.025 482.938 42.445C482.864 42.8557 482.733 43.2524 482.546 43.635C482.369 44.0084 482.117 44.3164 481.79 44.559C481.464 44.7924 481.044 44.909 480.53 44.909ZM480.81 43.845C481.286 43.845 481.678 43.7284 481.986 43.495C482.304 43.2617 482.537 42.9537 482.686 42.571C482.836 42.179 482.91 41.7497 482.91 41.283C482.91 40.7697 482.831 40.3217 482.672 39.939C482.523 39.547 482.29 39.2437 481.972 39.029C481.664 38.805 481.277 38.693 480.81 38.693C480.11 38.693 479.569 38.9404 479.186 39.435C478.804 39.9204 478.612 40.5364 478.612 41.283C478.612 41.7777 478.706 42.221 478.892 42.613C479.088 42.9957 479.35 43.299 479.676 43.523C480.012 43.7377 480.39 43.845 480.81 43.845ZM482.91 34.969H484.03V44.769H483.008C482.99 44.5637 482.966 44.321 482.938 44.041C482.92 43.761 482.91 43.537 482.91 43.369V34.969ZM485.724 42.515H486.76C486.788 42.9164 486.938 43.243 487.208 43.495C487.488 43.747 487.89 43.873 488.412 43.873C488.73 43.873 488.977 43.831 489.154 43.747C489.341 43.663 489.476 43.551 489.56 43.411C489.644 43.2617 489.686 43.0984 489.686 42.921C489.686 42.7064 489.63 42.5384 489.518 42.417C489.416 42.2864 489.271 42.179 489.084 42.095C488.907 42.011 488.702 41.9317 488.468 41.857C488.198 41.7544 487.918 41.647 487.628 41.535C487.348 41.4137 487.082 41.2737 486.83 41.115C486.588 40.947 486.392 40.7464 486.242 40.513C486.093 40.2704 486.018 39.981 486.018 39.645C486.018 39.365 486.074 39.1037 486.186 38.861C486.298 38.609 486.457 38.3944 486.662 38.217C486.877 38.0304 487.124 37.8857 487.404 37.783C487.694 37.6804 488.011 37.629 488.356 37.629C488.823 37.629 489.215 37.7224 489.532 37.909C489.859 38.0957 490.106 38.3617 490.274 38.707C490.452 39.043 490.545 39.435 490.554 39.883H489.588C489.523 39.463 489.388 39.1597 489.182 38.973C488.986 38.777 488.702 38.679 488.328 38.679C487.946 38.679 487.652 38.763 487.446 38.931C487.241 39.099 487.138 39.323 487.138 39.603C487.138 39.8084 487.213 39.981 487.362 40.121C487.512 40.2517 487.703 40.373 487.936 40.485C488.179 40.5877 488.436 40.695 488.706 40.807C488.977 40.919 489.238 41.031 489.49 41.143C489.742 41.255 489.966 41.3857 490.162 41.535C490.358 41.6844 490.512 41.871 490.624 42.095C490.746 42.3097 490.806 42.5804 490.806 42.907C490.806 43.299 490.713 43.649 490.526 43.957C490.349 44.2557 490.083 44.489 489.728 44.657C489.383 44.825 488.958 44.909 488.454 44.909C487.997 44.909 487.605 44.853 487.278 44.741C486.961 44.6197 486.695 44.4657 486.48 44.279C486.266 44.083 486.098 43.8777 485.976 43.663C485.864 43.4484 485.79 43.2384 485.752 43.033C485.715 42.8277 485.706 42.655 485.724 42.515ZM497.825 44.909C497.275 44.909 496.766 44.755 496.299 44.447C495.842 44.1297 495.473 43.7004 495.193 43.159C494.923 42.6084 494.787 41.983 494.787 41.283C494.787 40.583 494.927 39.9577 495.207 39.407C495.487 38.8564 495.865 38.4224 496.341 38.105C496.827 37.7877 497.368 37.629 497.965 37.629C498.619 37.629 499.113 37.797 499.449 38.133C499.795 38.4597 500.028 38.8984 500.149 39.449C500.28 39.9997 500.345 40.611 500.345 41.283C500.345 41.6377 500.308 42.025 500.233 42.445C500.159 42.8557 500.028 43.2524 499.841 43.635C499.664 44.0084 499.412 44.3164 499.085 44.559C498.759 44.7924 498.339 44.909 497.825 44.909ZM498.105 43.845C498.581 43.845 498.973 43.7284 499.281 43.495C499.599 43.2617 499.832 42.9537 499.981 42.571C500.131 42.179 500.205 41.7497 500.205 41.283C500.205 40.7697 500.126 40.3217 499.967 39.939C499.818 39.547 499.585 39.2437 499.267 39.029C498.959 38.805 498.572 38.693 498.105 38.693C497.405 38.693 496.864 38.9404 496.481 39.435C496.099 39.9204 495.907 40.5364 495.907 41.283C495.907 41.7777 496.001 42.221 496.187 42.613C496.383 42.9957 496.645 43.299 496.971 43.523C497.307 43.7377 497.685 43.845 498.105 43.845ZM500.205 37.769H501.325V44.769H500.303C500.303 44.769 500.294 44.685 500.275 44.517C500.266 44.349 500.252 44.153 500.233 43.929C500.215 43.705 500.205 43.5184 500.205 43.369V37.769ZM503.15 37.769H504.27V44.769H503.15V37.769ZM506.678 37.629C507.051 37.629 507.387 37.685 507.686 37.797C507.985 37.909 508.237 38.0724 508.442 38.287C508.647 38.5017 508.806 38.763 508.918 39.071C509.03 39.3697 509.086 39.7104 509.086 40.093V44.769H507.966V40.373C507.966 39.8317 507.84 39.4257 507.588 39.155C507.336 38.8844 506.958 38.749 506.454 38.749C506.071 38.749 505.717 38.847 505.39 39.043C505.063 39.239 504.793 39.5097 504.578 39.855C504.373 40.191 504.247 40.583 504.2 41.031L504.186 40.219C504.233 39.827 504.326 39.4724 504.466 39.155C504.615 38.8377 504.797 38.567 505.012 38.343C505.236 38.1097 505.488 37.9324 505.768 37.811C506.057 37.6897 506.361 37.629 506.678 37.629ZM513.548 44.909C512.988 44.909 512.475 44.755 512.008 44.447C511.551 44.1297 511.187 43.7004 510.916 43.159C510.645 42.6084 510.51 41.983 510.51 41.283C510.51 40.583 510.641 39.9577 510.902 39.407C511.163 38.8564 511.523 38.4224 511.98 38.105C512.437 37.7877 512.96 37.629 513.548 37.629C514.071 37.629 514.495 37.727 514.822 37.923C515.158 38.1097 515.415 38.371 515.592 38.707C515.769 39.043 515.891 39.4304 515.956 39.869C516.031 40.3077 516.068 40.779 516.068 41.283C516.068 41.6377 516.031 42.025 515.956 42.445C515.881 42.8557 515.751 43.2524 515.564 43.635C515.387 44.0084 515.135 44.3164 514.808 44.559C514.481 44.7924 514.061 44.909 513.548 44.909ZM513.828 43.845C514.304 43.845 514.696 43.7284 515.004 43.495C515.321 43.2617 515.555 42.9537 515.704 42.571C515.853 42.179 515.928 41.7497 515.928 41.283C515.928 40.7697 515.849 40.3217 515.69 39.939C515.541 39.547 515.307 39.2437 514.99 39.029C514.682 38.805 514.295 38.693 513.828 38.693C513.128 38.693 512.587 38.9404 512.204 39.435C511.821 39.9204 511.63 40.5364 511.63 41.283C511.63 41.7777 511.723 42.221 511.91 42.613C512.106 42.9957 512.367 43.299 512.694 43.523C513.03 43.7377 513.408 43.845 513.828 43.845ZM515.928 34.969H517.048V44.769H516.026C516.007 44.5637 515.984 44.321 515.956 44.041C515.937 43.761 515.928 43.537 515.928 43.369V34.969ZM521.681 42.515H522.717C522.745 42.9164 522.895 43.243 523.165 43.495C523.445 43.747 523.847 43.873 524.369 43.873C524.687 43.873 524.934 43.831 525.111 43.747C525.298 43.663 525.433 43.551 525.517 43.411C525.601 43.2617 525.643 43.0984 525.643 42.921C525.643 42.7064 525.587 42.5384 525.475 42.417C525.373 42.2864 525.228 42.179 525.041 42.095C524.864 42.011 524.659 41.9317 524.425 41.857C524.155 41.7544 523.875 41.647 523.585 41.535C523.305 41.4137 523.039 41.2737 522.787 41.115C522.545 40.947 522.349 40.7464 522.199 40.513C522.05 40.2704 521.975 39.981 521.975 39.645C521.975 39.365 522.031 39.1037 522.143 38.861C522.255 38.609 522.414 38.3944 522.619 38.217C522.834 38.0304 523.081 37.8857 523.361 37.783C523.651 37.6804 523.968 37.629 524.313 37.629C524.78 37.629 525.172 37.7224 525.489 37.909C525.816 38.0957 526.063 38.3617 526.231 38.707C526.409 39.043 526.502 39.435 526.511 39.883H525.545C525.48 39.463 525.345 39.1597 525.139 38.973C524.943 38.777 524.659 38.679 524.285 38.679C523.903 38.679 523.609 38.763 523.403 38.931C523.198 39.099 523.095 39.323 523.095 39.603C523.095 39.8084 523.17 39.981 523.319 40.121C523.469 40.2517 523.66 40.373 523.893 40.485C524.136 40.5877 524.393 40.695 524.663 40.807C524.934 40.919 525.195 41.031 525.447 41.143C525.699 41.255 525.923 41.3857 526.119 41.535C526.315 41.6844 526.469 41.871 526.581 42.095C526.703 42.3097 526.763 42.5804 526.763 42.907C526.763 43.299 526.67 43.649 526.483 43.957C526.306 44.2557 526.04 44.489 525.685 44.657C525.34 44.825 524.915 44.909 524.411 44.909C523.954 44.909 523.562 44.853 523.235 44.741C522.918 44.6197 522.652 44.4657 522.437 44.279C522.223 44.083 522.055 43.8777 521.933 43.663C521.821 43.4484 521.747 43.2384 521.709 43.033C521.672 42.8277 521.663 42.655 521.681 42.515ZM528.197 37.769H529.317V44.769H528.197V37.769ZM531.725 37.629C532.098 37.629 532.434 37.685 532.733 37.797C533.032 37.909 533.284 38.0724 533.489 38.287C533.694 38.5017 533.853 38.763 533.965 39.071C534.077 39.3697 534.133 39.7104 534.133 40.093V44.769H533.013V40.373C533.013 39.8317 532.887 39.4257 532.635 39.155C532.383 38.8844 532.005 38.749 531.501 38.749C531.118 38.749 530.764 38.847 530.437 39.043C530.11 39.239 529.84 39.5097 529.625 39.855C529.42 40.191 529.294 40.583 529.247 41.031L529.233 40.219C529.28 39.827 529.373 39.4724 529.513 39.155C529.662 38.8377 529.844 38.567 530.059 38.343C530.283 38.1097 530.535 37.9324 530.815 37.811C531.104 37.6897 531.408 37.629 531.725 37.629ZM538.595 44.909C538.044 44.909 537.536 44.755 537.069 44.447C536.612 44.1297 536.243 43.7004 535.963 43.159C535.692 42.6084 535.557 41.983 535.557 41.283C535.557 40.583 535.697 39.9577 535.977 39.407C536.257 38.8564 536.635 38.4224 537.111 38.105C537.596 37.7877 538.138 37.629 538.735 37.629C539.388 37.629 539.883 37.797 540.219 38.133C540.564 38.4597 540.798 38.8984 540.919 39.449C541.05 39.9997 541.115 40.611 541.115 41.283C541.115 41.6377 541.078 42.025 541.003 42.445C540.928 42.8557 540.798 43.2524 540.611 43.635C540.434 44.0084 540.182 44.3164 539.855 44.559C539.528 44.7924 539.108 44.909 538.595 44.909ZM538.875 43.845C539.351 43.845 539.743 43.7284 540.051 43.495C540.368 43.2617 540.602 42.9537 540.751 42.571C540.9 42.179 540.975 41.7497 540.975 41.283C540.975 40.7697 540.896 40.3217 540.737 39.939C540.588 39.547 540.354 39.2437 540.037 39.029C539.729 38.805 539.342 38.693 538.875 38.693C538.175 38.693 537.634 38.9404 537.251 39.435C536.868 39.9204 536.677 40.5364 536.677 41.283C536.677 41.7777 536.77 42.221 536.957 42.613C537.153 42.9957 537.414 43.299 537.741 43.523C538.077 43.7377 538.455 43.845 538.875 43.845ZM540.975 37.769H542.095V44.769H541.073C541.073 44.769 541.064 44.685 541.045 44.517C541.036 44.349 541.022 44.153 541.003 43.929C540.984 43.705 540.975 43.5184 540.975 43.369V37.769ZM546.426 43.663C545.931 43.663 545.46 43.5464 545.012 43.313C544.573 43.0704 544.214 42.725 543.934 42.277C543.663 41.829 543.528 41.2924 543.528 40.667C543.528 40.0417 543.663 39.505 543.934 39.057C544.204 38.5997 544.559 38.2497 544.998 38.007C545.436 37.755 545.912 37.629 546.426 37.629C546.584 37.629 546.734 37.643 546.874 37.671C547.023 37.6897 547.163 37.7224 547.294 37.769H550.136V38.973C549.734 38.973 549.333 38.8984 548.932 38.749C548.54 38.5997 548.204 38.4457 547.924 38.287L547.868 38.231C548.194 38.4084 548.46 38.6184 548.666 38.861C548.88 39.1037 549.039 39.379 549.142 39.687C549.254 39.9857 549.31 40.3124 549.31 40.667C549.31 41.2924 549.174 41.829 548.904 42.277C548.642 42.725 548.292 43.0704 547.854 43.313C547.415 43.5464 546.939 43.663 546.426 43.663ZM548.484 47.569V47.261C548.484 46.7664 548.353 46.407 548.092 46.183C547.84 45.959 547.457 45.847 546.944 45.847H545.544C545.236 45.847 544.965 45.819 544.732 45.763C544.508 45.7164 544.321 45.6417 544.172 45.539C544.022 45.4364 543.91 45.3104 543.836 45.161C543.761 45.0117 543.724 44.8437 543.724 44.657C543.724 44.3024 543.831 44.0364 544.046 43.859C544.26 43.6724 544.526 43.5557 544.844 43.509C545.161 43.4624 545.464 43.4624 545.754 43.509L546.426 43.663C545.922 43.691 545.53 43.7424 545.25 43.817C544.979 43.8917 544.844 44.0504 544.844 44.293C544.844 44.433 544.895 44.5497 544.998 44.643C545.11 44.727 545.273 44.769 545.488 44.769H546.944C547.429 44.769 547.872 44.8344 548.274 44.965C548.675 45.105 548.997 45.3337 549.24 45.651C549.482 45.9777 549.604 46.421 549.604 46.981V47.569H548.484ZM546.426 42.613C546.734 42.613 547.018 42.5384 547.28 42.389C547.55 42.2397 547.77 42.0204 547.938 41.731C548.106 41.4417 548.19 41.087 548.19 40.667C548.19 40.247 548.106 39.8924 547.938 39.603C547.779 39.3044 547.564 39.0804 547.294 38.931C547.023 38.7724 546.734 38.693 546.426 38.693C546.118 38.693 545.828 38.7724 545.558 38.931C545.287 39.0804 545.068 39.2997 544.9 39.589C544.732 39.8784 544.648 40.2377 544.648 40.667C544.648 41.087 544.732 41.4417 544.9 41.731C545.068 42.0204 545.287 42.2397 545.558 42.389C545.828 42.5384 546.118 42.613 546.426 42.613ZM553.902 37.769H558.018V38.819H553.902V37.769ZM555.4 35.949H556.52V44.769H555.4V35.949ZM564.326 44.769V40.373C564.326 40.009 564.27 39.7104 564.158 39.477C564.046 39.2344 563.878 39.0524 563.654 38.931C563.43 38.8097 563.15 38.749 562.814 38.749C562.431 38.749 562.076 38.847 561.75 39.043C561.423 39.239 561.152 39.5097 560.938 39.855C560.732 40.191 560.606 40.583 560.56 41.031L560.546 40.219C560.592 39.827 560.686 39.4724 560.826 39.155C560.975 38.8377 561.157 38.567 561.372 38.343C561.596 38.1097 561.848 37.9324 562.128 37.811C562.417 37.6897 562.72 37.629 563.038 37.629C563.411 37.629 563.747 37.685 564.046 37.797C564.344 37.909 564.596 38.0724 564.802 38.287C565.007 38.5017 565.166 38.763 565.278 39.071C565.39 39.3697 565.446 39.7104 565.446 40.093V44.769H564.326ZM559.51 44.769V34.969H560.63V44.769H559.51ZM572.227 42.515H573.277C573.203 42.9724 573.035 43.383 572.773 43.747C572.521 44.1017 572.185 44.3864 571.765 44.601C571.355 44.8064 570.879 44.909 570.337 44.909C569.684 44.909 569.096 44.755 568.573 44.447C568.051 44.1297 567.635 43.7004 567.327 43.159C567.029 42.6084 566.879 41.983 566.879 41.283C566.879 40.583 567.024 39.9577 567.313 39.407C567.612 38.8564 568.018 38.4224 568.531 38.105C569.045 37.7877 569.623 37.629 570.267 37.629C570.949 37.629 571.523 37.783 571.989 38.091C572.465 38.3897 572.815 38.833 573.039 39.421C573.273 39.9997 573.366 40.7137 573.319 41.563H567.999C568.046 42.0204 568.172 42.4217 568.377 42.767C568.583 43.1124 568.853 43.383 569.189 43.579C569.525 43.7657 569.908 43.859 570.337 43.859C570.813 43.859 571.215 43.7377 571.541 43.495C571.877 43.243 572.106 42.9164 572.227 42.515ZM570.309 38.679C569.731 38.679 569.245 38.847 568.853 39.183C568.461 39.519 568.2 39.9764 568.069 40.555H572.171C572.134 39.939 571.933 39.4724 571.569 39.155C571.215 38.8377 570.795 38.679 570.309 38.679ZM579.089 34.969V36.327H577.633V34.969H579.089ZM577.801 37.769H578.921V44.769H577.801V37.769ZM580.344 37.769H584.46V38.819H580.344V37.769ZM581.842 35.949H582.962V44.769H581.842V35.949ZM590.602 42.515H591.652C591.578 42.9724 591.41 43.383 591.148 43.747C590.896 44.1017 590.56 44.3864 590.14 44.601C589.73 44.8064 589.254 44.909 588.712 44.909C588.059 44.909 587.471 44.755 586.948 44.447C586.426 44.1297 586.01 43.7004 585.702 43.159C585.404 42.6084 585.254 41.983 585.254 41.283C585.254 40.583 585.399 39.9577 585.688 39.407C585.987 38.8564 586.393 38.4224 586.906 38.105C587.42 37.7877 587.998 37.629 588.642 37.629C589.324 37.629 589.898 37.783 590.364 38.091C590.84 38.3897 591.19 38.833 591.414 39.421C591.648 39.9997 591.741 40.7137 591.694 41.563H586.374C586.421 42.0204 586.547 42.4217 586.752 42.767C586.958 43.1124 587.228 43.383 587.564 43.579C587.9 43.7657 588.283 43.859 588.712 43.859C589.188 43.859 589.59 43.7377 589.916 43.495C590.252 43.243 590.481 42.9164 590.602 42.515ZM588.684 38.679C588.106 38.679 587.62 38.847 587.228 39.183C586.836 39.519 586.575 39.9764 586.444 40.555H590.546C590.509 39.939 590.308 39.4724 589.944 39.155C589.59 38.8377 589.17 38.679 588.684 38.679ZM593.138 37.769H594.258V44.769H593.138V37.769ZM596.666 37.629C597.04 37.629 597.376 37.685 597.674 37.797C597.973 37.909 598.225 38.0724 598.43 38.287C598.636 38.5017 598.794 38.763 598.906 39.071C599.018 39.3697 599.074 39.7104 599.074 40.093V44.769H597.954V40.373C597.954 39.8317 597.828 39.4257 597.576 39.155C597.324 38.8844 596.946 38.749 596.442 38.749C596.06 38.749 595.705 38.847 595.378 39.043C595.052 39.239 594.781 39.5097 594.566 39.855C594.361 40.191 594.235 40.583 594.188 41.031L594.174 40.219C594.221 39.827 594.314 39.4724 594.454 39.155C594.604 38.8377 594.786 38.567 595 38.343C595.224 38.1097 595.476 37.9324 595.756 37.811C596.046 37.6897 596.349 37.629 596.666 37.629ZM601.37 37.629C601.744 37.629 602.08 37.685 602.378 37.797C602.677 37.909 602.929 38.0724 603.134 38.287C603.34 38.5017 603.498 38.763 603.61 39.071C603.722 39.3697 603.778 39.7104 603.778 40.093V44.769H602.658V40.373C602.658 39.8317 602.532 39.4257 602.28 39.155C602.028 38.8844 601.65 38.749 601.146 38.749C600.764 38.749 600.409 38.847 600.082 39.043C599.756 39.239 599.485 39.5097 599.27 39.855C599.065 40.191 598.939 40.583 598.892 41.031L598.878 40.219C598.925 39.827 599.018 39.4724 599.158 39.155C599.308 38.8377 599.49 38.567 599.704 38.343C599.928 38.1097 600.18 37.9324 600.46 37.811C600.75 37.6897 601.053 37.629 601.37 37.629ZM611.571 44.909C610.974 44.909 610.414 44.7644 609.891 44.475C609.368 44.1857 608.944 43.7704 608.617 43.229C608.3 42.6784 608.141 42.0297 608.141 41.283C608.141 40.5364 608.3 39.8924 608.617 39.351C608.944 38.8004 609.368 38.3757 609.891 38.077C610.414 37.7784 610.974 37.629 611.571 37.629C612.168 37.629 612.724 37.7784 613.237 38.077C613.76 38.3757 614.18 38.8004 614.497 39.351C614.814 39.8924 614.973 40.5364 614.973 41.283C614.973 42.0297 614.814 42.6784 614.497 43.229C614.18 43.7704 613.76 44.1857 613.237 44.475C612.724 44.7644 612.168 44.909 611.571 44.909ZM611.571 43.859C611.963 43.859 612.332 43.761 612.677 43.565C613.022 43.369 613.302 43.0797 613.517 42.697C613.741 42.305 613.853 41.8337 613.853 41.283C613.853 40.7324 613.741 40.2657 613.517 39.883C613.302 39.491 613.022 39.1924 612.677 38.987C612.332 38.7817 611.963 38.679 611.571 38.679C611.179 38.679 610.806 38.7817 610.451 38.987C610.106 39.183 609.821 39.477 609.597 39.869C609.373 40.2517 609.261 40.723 609.261 41.283C609.261 41.8337 609.368 42.305 609.583 42.697C609.807 43.0797 610.096 43.369 610.451 43.565C610.806 43.761 611.179 43.859 611.571 43.859ZM615.768 37.769H619.884V38.819H615.768V37.769ZM619.394 34.969H620.038V36.089H619.394C619.16 36.0797 618.946 36.1124 618.75 36.187C618.563 36.2617 618.414 36.3924 618.302 36.579C618.19 36.7564 618.134 37.013 618.134 37.349V44.769H617.014V37.349C617.014 36.789 617.112 36.3364 617.308 35.991C617.513 35.6364 617.793 35.3797 618.148 35.221C618.512 35.053 618.927 34.969 619.394 34.969ZM623.421 37.769H624.625L627.131 44.489L626.151 44.769L623.421 37.769ZM629.931 37.769L626.025 47.569H624.807L626.501 43.789L628.741 37.769H629.931ZM633.952 44.909C633.354 44.909 632.794 44.7644 632.272 44.475C631.749 44.1857 631.324 43.7704 630.998 43.229C630.68 42.6784 630.522 42.0297 630.522 41.283C630.522 40.5364 630.68 39.8924 630.998 39.351C631.324 38.8004 631.749 38.3757 632.272 38.077C632.794 37.7784 633.354 37.629 633.952 37.629C634.549 37.629 635.104 37.7784 635.618 38.077C636.14 38.3757 636.56 38.8004 636.878 39.351C637.195 39.8924 637.354 40.5364 637.354 41.283C637.354 42.0297 637.195 42.6784 636.878 43.229C636.56 43.7704 636.14 44.1857 635.618 44.475C635.104 44.7644 634.549 44.909 633.952 44.909ZM633.952 43.859C634.344 43.859 634.712 43.761 635.058 43.565C635.403 43.369 635.683 43.0797 635.898 42.697C636.122 42.305 636.234 41.8337 636.234 41.283C636.234 40.7324 636.122 40.2657 635.898 39.883C635.683 39.491 635.403 39.1924 635.058 38.987C634.712 38.7817 634.344 38.679 633.952 38.679C633.56 38.679 633.186 38.7817 632.832 38.987C632.486 39.183 632.202 39.477 631.978 39.869C631.754 40.2517 631.642 40.723 631.642 41.283C631.642 41.8337 631.749 42.305 631.964 42.697C632.188 43.0797 632.477 43.369 632.832 43.565C633.186 43.761 633.56 43.859 633.952 43.859ZM644.711 44.769H643.591V37.769H644.711V44.769ZM643.661 41.507L643.675 41.899C643.666 42.011 643.638 42.1837 643.591 42.417C643.554 42.6504 643.484 42.9117 643.381 43.201C643.288 43.481 643.148 43.7517 642.961 44.013C642.784 44.2744 642.55 44.489 642.261 44.657C641.981 44.825 641.631 44.909 641.211 44.909C640.94 44.909 640.66 44.867 640.371 44.783C640.091 44.7084 639.83 44.5824 639.587 44.405C639.344 44.2184 639.148 43.9617 638.999 43.635C638.85 43.3084 638.775 42.9024 638.775 42.417V37.769H639.895V42.137C639.895 42.557 639.96 42.8884 640.091 43.131C640.231 43.3644 640.418 43.5324 640.651 43.635C640.884 43.7377 641.146 43.789 641.435 43.789C641.911 43.789 642.308 43.6677 642.625 43.425C642.942 43.1824 643.185 42.8837 643.353 42.529C643.521 42.1744 643.624 41.8337 643.661 41.507ZM646.527 37.769H647.647V44.769H646.527V37.769ZM649.887 38.819C649.411 38.819 649.01 38.9404 648.683 39.183C648.366 39.4164 648.114 39.7057 647.927 40.051C647.75 40.387 647.633 40.7137 647.577 41.031L647.563 40.219C647.563 40.135 647.582 39.995 647.619 39.799C647.656 39.603 647.726 39.3837 647.829 39.141C647.932 38.889 648.067 38.651 648.235 38.427C648.412 38.1937 648.636 38.0024 648.907 37.853C649.178 37.7037 649.504 37.629 649.887 37.629V38.819ZM660.304 42.137C660.238 42.7157 660.052 43.215 659.744 43.635C659.445 44.0457 659.067 44.363 658.61 44.587C658.152 44.8017 657.658 44.909 657.126 44.909C656.528 44.909 655.968 44.7644 655.446 44.475C654.923 44.1857 654.498 43.7704 654.172 43.229C653.854 42.6784 653.696 42.0297 653.696 41.283C653.696 40.5364 653.854 39.8924 654.172 39.351C654.498 38.8004 654.923 38.3757 655.446 38.077C655.968 37.7784 656.528 37.629 657.126 37.629C657.658 37.629 658.148 37.741 658.596 37.965C659.053 38.189 659.431 38.5064 659.73 38.917C660.038 39.3277 660.229 39.8177 660.304 40.387H659.282C659.123 39.855 658.848 39.4397 658.456 39.141C658.064 38.833 657.62 38.679 657.126 38.679C656.724 38.679 656.346 38.7817 655.992 38.987C655.637 39.1924 655.352 39.491 655.138 39.883C654.923 40.2657 654.816 40.7324 654.816 41.283C654.816 41.8244 654.923 42.291 655.138 42.683C655.352 43.0657 655.632 43.3597 655.978 43.565C656.332 43.761 656.715 43.859 657.126 43.859C657.695 43.859 658.157 43.7097 658.512 43.411C658.876 43.103 659.137 42.6784 659.296 42.137H660.304ZM666.714 44.769V40.373C666.714 40.009 666.658 39.7104 666.546 39.477C666.434 39.2344 666.266 39.0524 666.042 38.931C665.818 38.8097 665.538 38.749 665.202 38.749C664.82 38.749 664.465 38.847 664.138 39.043C663.812 39.239 663.541 39.5097 663.326 39.855C663.121 40.191 662.995 40.583 662.948 41.031L662.934 40.219C662.981 39.827 663.074 39.4724 663.214 39.155C663.364 38.8377 663.546 38.567 663.76 38.343C663.984 38.1097 664.236 37.9324 664.516 37.811C664.806 37.6897 665.109 37.629 665.426 37.629C665.8 37.629 666.136 37.685 666.434 37.797C666.733 37.909 666.985 38.0724 667.19 38.287C667.396 38.5017 667.554 38.763 667.666 39.071C667.778 39.3697 667.834 39.7104 667.834 40.093V44.769H666.714ZM661.898 44.769V34.969H663.018V44.769H661.898ZM672.698 44.909C672.101 44.909 671.541 44.7644 671.018 44.475C670.495 44.1857 670.071 43.7704 669.744 43.229C669.427 42.6784 669.268 42.0297 669.268 41.283C669.268 40.5364 669.427 39.8924 669.744 39.351C670.071 38.8004 670.495 38.3757 671.018 38.077C671.541 37.7784 672.101 37.629 672.698 37.629C673.295 37.629 673.851 37.7784 674.364 38.077C674.887 38.3757 675.307 38.8004 675.624 39.351C675.941 39.8924 676.1 40.5364 676.1 41.283C676.1 42.0297 675.941 42.6784 675.624 43.229C675.307 43.7704 674.887 44.1857 674.364 44.475C673.851 44.7644 673.295 44.909 672.698 44.909ZM672.698 43.859C673.09 43.859 673.459 43.761 673.804 43.565C674.149 43.369 674.429 43.0797 674.644 42.697C674.868 42.305 674.98 41.8337 674.98 41.283C674.98 40.7324 674.868 40.2657 674.644 39.883C674.429 39.491 674.149 39.1924 673.804 38.987C673.459 38.7817 673.09 38.679 672.698 38.679C672.306 38.679 671.933 38.7817 671.578 38.987C671.233 39.183 670.948 39.477 670.724 39.869C670.5 40.2517 670.388 40.723 670.388 41.283C670.388 41.8337 670.495 42.305 670.71 42.697C670.934 43.0797 671.223 43.369 671.578 43.565C671.933 43.761 672.306 43.859 672.698 43.859ZM678.907 34.969V36.327H677.451V34.969H678.907ZM677.619 37.769H678.739V44.769H677.619V37.769ZM686.868 42.137C686.803 42.7157 686.616 43.215 686.308 43.635C686.009 44.0457 685.631 44.363 685.174 44.587C684.717 44.8017 684.222 44.909 683.69 44.909C683.093 44.909 682.533 44.7644 682.01 44.475C681.487 44.1857 681.063 43.7704 680.736 43.229C680.419 42.6784 680.26 42.0297 680.26 41.283C680.26 40.5364 680.419 39.8924 680.736 39.351C681.063 38.8004 681.487 38.3757 682.01 38.077C682.533 37.7784 683.093 37.629 683.69 37.629C684.222 37.629 684.712 37.741 685.16 37.965C685.617 38.189 685.995 38.5064 686.294 38.917C686.602 39.3277 686.793 39.8177 686.868 40.387H685.846C685.687 39.855 685.412 39.4397 685.02 39.141C684.628 38.833 684.185 38.679 683.69 38.679C683.289 38.679 682.911 38.7817 682.556 38.987C682.201 39.1924 681.917 39.491 681.702 39.883C681.487 40.2657 681.38 40.7324 681.38 41.283C681.38 41.8244 681.487 42.291 681.702 42.683C681.917 43.0657 682.197 43.3597 682.542 43.565C682.897 43.761 683.279 43.859 683.69 43.859C684.259 43.859 684.721 43.7097 685.076 43.411C685.44 43.103 685.701 42.6784 685.86 42.137H686.868ZM693.251 42.515H694.301C694.226 42.9724 694.058 43.383 693.797 43.747C693.545 44.1017 693.209 44.3864 692.789 44.601C692.378 44.8064 691.902 44.909 691.361 44.909C690.707 44.909 690.119 44.755 689.597 44.447C689.074 44.1297 688.659 43.7004 688.351 43.159C688.052 42.6084 687.903 41.983 687.903 41.283C687.903 40.583 688.047 39.9577 688.337 39.407C688.635 38.8564 689.041 38.4224 689.555 38.105C690.068 37.7877 690.647 37.629 691.291 37.629C691.972 37.629 692.546 37.783 693.013 38.091C693.489 38.3897 693.839 38.833 694.063 39.421C694.296 39.9997 694.389 40.7137 694.343 41.563H689.023C689.069 42.0204 689.195 42.4217 689.401 42.767C689.606 43.1124 689.877 43.383 690.213 43.579C690.549 43.7657 690.931 43.859 691.361 43.859C691.837 43.859 692.238 43.7377 692.565 43.495C692.901 43.243 693.129 42.9164 693.251 42.515ZM691.333 38.679C690.754 38.679 690.269 38.847 689.877 39.183C689.485 39.519 689.223 39.9764 689.093 40.555H693.195C693.157 39.939 692.957 39.4724 692.593 39.155C692.238 38.8377 691.818 38.679 691.333 38.679ZM290.02 63.747L289.74 63.733L291.378 57.769H292.596L290.454 64.769H289.404L287.332 58.637H287.612L285.54 64.769H284.49L282.362 57.769H283.58L285.19 63.733L284.91 63.747L286.8 57.769H288.158L290.02 63.747ZM295.179 54.969V56.327H293.723V54.969H295.179ZM293.891 57.769H295.011V64.769H293.891V57.769ZM296.434 57.769H300.55V58.819H296.434V57.769ZM297.932 55.949H299.052V64.769H297.932V55.949ZM306.857 64.769V60.373C306.857 60.009 306.801 59.7104 306.689 59.477C306.577 59.2344 306.409 59.0524 306.185 58.931C305.961 58.8097 305.681 58.749 305.345 58.749C304.962 58.749 304.607 58.847 304.281 59.043C303.954 59.239 303.683 59.5097 303.469 59.855C303.263 60.191 303.137 60.583 303.091 61.031L303.077 60.219C303.123 59.827 303.217 59.4724 303.357 59.155C303.506 58.8377 303.688 58.567 303.903 58.343C304.127 58.1097 304.379 57.9324 304.659 57.811C304.948 57.6897 305.251 57.629 305.569 57.629C305.942 57.629 306.278 57.685 306.577 57.797C306.875 57.909 307.127 58.0724 307.333 58.287C307.538 58.5017 307.697 58.763 307.809 59.071C307.921 59.3697 307.977 59.7104 307.977 60.093V64.769H306.857ZM302.041 64.769V54.969H303.161V64.769H302.041ZM312.252 57.769H316.368V58.819H312.252V57.769ZM313.75 55.949H314.87V64.769H313.75V55.949ZM322.675 64.769V60.373C322.675 60.009 322.619 59.7104 322.507 59.477C322.395 59.2344 322.227 59.0524 322.003 58.931C321.779 58.8097 321.499 58.749 321.163 58.749C320.78 58.749 320.426 58.847 320.099 59.043C319.772 59.239 319.502 59.5097 319.287 59.855C319.082 60.191 318.956 60.583 318.909 61.031L318.895 60.219C318.942 59.827 319.035 59.4724 319.175 59.155C319.324 58.8377 319.506 58.567 319.721 58.343C319.945 58.1097 320.197 57.9324 320.477 57.811C320.766 57.6897 321.07 57.629 321.387 57.629C321.76 57.629 322.096 57.685 322.395 57.797C322.694 57.909 322.946 58.0724 323.151 58.287C323.356 58.5017 323.515 58.763 323.627 59.071C323.739 59.3697 323.795 59.7104 323.795 60.093V64.769H322.675ZM317.859 64.769V54.969H318.979V64.769H317.859ZM330.577 62.515H331.627C331.552 62.9724 331.384 63.383 331.123 63.747C330.871 64.1017 330.535 64.3864 330.115 64.601C329.704 64.8064 329.228 64.909 328.687 64.909C328.033 64.909 327.445 64.755 326.923 64.447C326.4 64.1297 325.985 63.7004 325.677 63.159C325.378 62.6084 325.229 61.983 325.229 61.283C325.229 60.583 325.373 59.9577 325.663 59.407C325.961 58.8564 326.367 58.4224 326.881 58.105C327.394 57.7877 327.973 57.629 328.617 57.629C329.298 57.629 329.872 57.783 330.339 58.091C330.815 58.3897 331.165 58.833 331.389 59.421C331.622 59.9997 331.715 60.7137 331.669 61.563H326.349C326.395 62.0204 326.521 62.4217 326.727 62.767C326.932 63.1124 327.203 63.383 327.539 63.579C327.875 63.7657 328.257 63.859 328.687 63.859C329.163 63.859 329.564 63.7377 329.891 63.495C330.227 63.243 330.455 62.9164 330.577 62.515ZM328.659 58.679C328.08 58.679 327.595 58.847 327.203 59.183C326.811 59.519 326.549 59.9764 326.419 60.555H330.521C330.483 59.939 330.283 59.4724 329.919 59.155C329.564 58.8377 329.144 58.679 328.659 58.679ZM341.036 64.769V60.373C341.036 60.009 340.98 59.7104 340.868 59.477C340.756 59.2344 340.588 59.0524 340.364 58.931C340.14 58.8097 339.86 58.749 339.524 58.749C339.142 58.749 338.787 58.847 338.46 59.043C338.134 59.239 337.863 59.5097 337.648 59.855C337.443 60.191 337.317 60.583 337.27 61.031L337.256 60.219C337.303 59.827 337.396 59.4724 337.536 59.155C337.686 58.8377 337.868 58.567 338.082 58.343C338.306 58.1097 338.558 57.9324 338.838 57.811C339.128 57.6897 339.431 57.629 339.748 57.629C340.122 57.629 340.458 57.685 340.756 57.797C341.055 57.909 341.307 58.0724 341.512 58.287C341.718 58.5017 341.876 58.763 341.988 59.071C342.1 59.3697 342.156 59.7104 342.156 60.093V64.769H341.036ZM336.22 64.769V54.969H337.34V64.769H336.22ZM345.368 54.969V56.327H343.912V54.969H345.368ZM344.08 57.769H345.2V64.769H344.08V57.769ZM349.619 63.663C349.124 63.663 348.653 63.5464 348.205 63.313C347.766 63.0704 347.407 62.725 347.127 62.277C346.856 61.829 346.721 61.2924 346.721 60.667C346.721 60.0417 346.856 59.505 347.127 59.057C347.398 58.5997 347.752 58.2497 348.191 58.007C348.63 57.755 349.106 57.629 349.619 57.629C349.778 57.629 349.927 57.643 350.067 57.671C350.216 57.6897 350.356 57.7224 350.487 57.769H353.329V58.973C352.928 58.973 352.526 58.8984 352.125 58.749C351.733 58.5997 351.397 58.4457 351.117 58.287L351.061 58.231C351.388 58.4084 351.654 58.6184 351.859 58.861C352.074 59.1037 352.232 59.379 352.335 59.687C352.447 59.9857 352.503 60.3124 352.503 60.667C352.503 61.2924 352.368 61.829 352.097 62.277C351.836 62.725 351.486 63.0704 351.047 63.313C350.608 63.5464 350.132 63.663 349.619 63.663ZM351.677 67.569V67.261C351.677 66.7664 351.546 66.407 351.285 66.183C351.033 65.959 350.65 65.847 350.137 65.847H348.737C348.429 65.847 348.158 65.819 347.925 65.763C347.701 65.7164 347.514 65.6417 347.365 65.539C347.216 65.4364 347.104 65.3104 347.029 65.161C346.954 65.0117 346.917 64.8437 346.917 64.657C346.917 64.3024 347.024 64.0364 347.239 63.859C347.454 63.6724 347.72 63.5557 348.037 63.509C348.354 63.4624 348.658 63.4624 348.947 63.509L349.619 63.663C349.115 63.691 348.723 63.7424 348.443 63.817C348.172 63.8917 348.037 64.0504 348.037 64.293C348.037 64.433 348.088 64.5497 348.191 64.643C348.303 64.727 348.466 64.769 348.681 64.769H350.137C350.622 64.769 351.066 64.8344 351.467 64.965C351.868 65.105 352.19 65.3337 352.433 65.651C352.676 65.9777 352.797 66.421 352.797 66.981V67.569H351.677ZM349.619 62.613C349.927 62.613 350.212 62.5384 350.473 62.389C350.744 62.2397 350.963 62.0204 351.131 61.731C351.299 61.4417 351.383 61.087 351.383 60.667C351.383 60.247 351.299 59.8924 351.131 59.603C350.972 59.3044 350.758 59.0804 350.487 58.931C350.216 58.7724 349.927 58.693 349.619 58.693C349.311 58.693 349.022 58.7724 348.751 58.931C348.48 59.0804 348.261 59.2997 348.093 59.589C347.925 59.8784 347.841 60.2377 347.841 60.667C347.841 61.087 347.925 61.4417 348.093 61.731C348.261 62.0204 348.48 62.2397 348.751 62.389C349.022 62.5384 349.311 62.613 349.619 62.613ZM359.63 64.769V60.373C359.63 60.009 359.574 59.7104 359.462 59.477C359.35 59.2344 359.182 59.0524 358.958 58.931C358.734 58.8097 358.454 58.749 358.118 58.749C357.736 58.749 357.381 58.847 357.054 59.043C356.728 59.239 356.457 59.5097 356.242 59.855C356.037 60.191 355.911 60.583 355.864 61.031L355.85 60.219C355.897 59.827 355.99 59.4724 356.13 59.155C356.28 58.8377 356.462 58.567 356.676 58.343C356.9 58.1097 357.152 57.9324 357.432 57.811C357.722 57.6897 358.025 57.629 358.342 57.629C358.716 57.629 359.052 57.685 359.35 57.797C359.649 57.909 359.901 58.0724 360.106 58.287C360.312 58.5017 360.47 58.763 360.582 59.071C360.694 59.3697 360.75 59.7104 360.75 60.093V64.769H359.63ZM354.814 64.769V54.969H355.934V64.769H354.814ZM367.532 62.515H368.582C368.507 62.9724 368.339 63.383 368.078 63.747C367.826 64.1017 367.49 64.3864 367.07 64.601C366.659 64.8064 366.183 64.909 365.642 64.909C364.989 64.909 364.401 64.755 363.878 64.447C363.355 64.1297 362.94 63.7004 362.632 63.159C362.333 62.6084 362.184 61.983 362.184 61.283C362.184 60.583 362.329 59.9577 362.618 59.407C362.917 58.8564 363.323 58.4224 363.836 58.105C364.349 57.7877 364.928 57.629 365.572 57.629C366.253 57.629 366.827 57.783 367.294 58.091C367.77 58.3897 368.12 58.833 368.344 59.421C368.577 59.9997 368.671 60.7137 368.624 61.563H363.304C363.351 62.0204 363.477 62.4217 363.682 62.767C363.887 63.1124 364.158 63.383 364.494 63.579C364.83 63.7657 365.213 63.859 365.642 63.859C366.118 63.859 366.519 63.7377 366.846 63.495C367.182 63.243 367.411 62.9164 367.532 62.515ZM365.614 58.679C365.035 58.679 364.55 58.847 364.158 59.183C363.766 59.519 363.505 59.9764 363.374 60.555H367.476C367.439 59.939 367.238 59.4724 366.874 59.155C366.519 58.8377 366.099 58.679 365.614 58.679ZM369.732 62.515H370.768C370.796 62.9164 370.945 63.243 371.216 63.495C371.496 63.747 371.897 63.873 372.42 63.873C372.737 63.873 372.985 63.831 373.162 63.747C373.349 63.663 373.484 63.551 373.568 63.411C373.652 63.2617 373.694 63.0984 373.694 62.921C373.694 62.7064 373.638 62.5384 373.526 62.417C373.423 62.2864 373.279 62.179 373.092 62.095C372.915 62.011 372.709 61.9317 372.476 61.857C372.205 61.7544 371.925 61.647 371.636 61.535C371.356 61.4137 371.09 61.2737 370.838 61.115C370.595 60.947 370.399 60.7464 370.25 60.513C370.101 60.2704 370.026 59.981 370.026 59.645C370.026 59.365 370.082 59.1037 370.194 58.861C370.306 58.609 370.465 58.3944 370.67 58.217C370.885 58.0304 371.132 57.8857 371.412 57.783C371.701 57.6804 372.019 57.629 372.364 57.629C372.831 57.629 373.223 57.7224 373.54 57.909C373.867 58.0957 374.114 58.3617 374.282 58.707C374.459 59.043 374.553 59.435 374.562 59.883H373.596C373.531 59.463 373.395 59.1597 373.19 58.973C372.994 58.777 372.709 58.679 372.336 58.679C371.953 58.679 371.659 58.763 371.454 58.931C371.249 59.099 371.146 59.323 371.146 59.603C371.146 59.8084 371.221 59.981 371.37 60.121C371.519 60.2517 371.711 60.373 371.944 60.485C372.187 60.5877 372.443 60.695 372.714 60.807C372.985 60.919 373.246 61.031 373.498 61.143C373.75 61.255 373.974 61.3857 374.17 61.535C374.366 61.6844 374.52 61.871 374.632 62.095C374.753 62.3097 374.814 62.5804 374.814 62.907C374.814 63.299 374.721 63.649 374.534 63.957C374.357 64.2557 374.091 64.489 373.736 64.657C373.391 64.825 372.966 64.909 372.462 64.909C372.005 64.909 371.613 64.853 371.286 64.741C370.969 64.6197 370.703 64.4657 370.488 64.279C370.273 64.083 370.105 63.8777 369.984 63.663C369.872 63.4484 369.797 63.2384 369.76 63.033C369.723 62.8277 369.713 62.655 369.732 62.515ZM375.758 57.769H379.874V58.819H375.758V57.769ZM377.256 55.949H378.376V64.769H377.256V55.949ZM387.846 64.909C387.333 64.909 386.913 64.7924 386.586 64.559C386.26 64.3164 386.003 64.0084 385.816 63.635C385.639 63.2524 385.513 62.8557 385.438 62.445C385.364 62.025 385.326 61.6377 385.326 61.283C385.326 60.779 385.359 60.3077 385.424 59.869C385.499 59.4304 385.625 59.043 385.802 58.707C385.98 58.371 386.232 58.1097 386.558 57.923C386.894 57.727 387.324 57.629 387.846 57.629C388.434 57.629 388.957 57.7877 389.414 58.105C389.872 58.4224 390.231 58.8564 390.492 59.407C390.754 59.9577 390.884 60.583 390.884 61.283C390.884 61.983 390.749 62.6084 390.478 63.159C390.208 63.7004 389.844 64.1297 389.386 64.447C388.929 64.755 388.416 64.909 387.846 64.909ZM387.566 63.845C387.996 63.845 388.374 63.7377 388.7 63.523C389.027 63.299 389.284 62.9957 389.47 62.613C389.666 62.221 389.764 61.7777 389.764 61.283C389.764 60.5364 389.573 59.9204 389.19 59.435C388.808 58.9404 388.266 58.693 387.566 58.693C387.1 58.693 386.708 58.805 386.39 59.029C386.082 59.2437 385.849 59.547 385.69 59.939C385.541 60.3217 385.466 60.7697 385.466 61.283C385.466 61.7497 385.541 62.179 385.69 62.571C385.849 62.9537 386.082 63.2617 386.39 63.495C386.698 63.7284 387.09 63.845 387.566 63.845ZM385.466 54.969V63.369C385.466 63.537 385.452 63.761 385.424 64.041C385.406 64.321 385.387 64.5637 385.368 64.769H384.346V54.969H385.466ZM393.698 54.969V56.327H392.242V54.969H393.698ZM392.41 57.769H393.53V64.769H392.41V57.769ZM398.089 64.909C397.529 64.909 397.016 64.755 396.549 64.447C396.092 64.1297 395.728 63.7004 395.457 63.159C395.186 62.6084 395.051 61.983 395.051 61.283C395.051 60.583 395.182 59.9577 395.443 59.407C395.704 58.8564 396.064 58.4224 396.521 58.105C396.978 57.7877 397.501 57.629 398.089 57.629C398.612 57.629 399.036 57.727 399.363 57.923C399.699 58.1097 399.956 58.371 400.133 58.707C400.31 59.043 400.432 59.4304 400.497 59.869C400.572 60.3077 400.609 60.779 400.609 61.283C400.609 61.6377 400.572 62.025 400.497 62.445C400.422 62.8557 400.292 63.2524 400.105 63.635C399.928 64.0084 399.676 64.3164 399.349 64.559C399.022 64.7924 398.602 64.909 398.089 64.909ZM398.369 63.845C398.845 63.845 399.237 63.7284 399.545 63.495C399.862 63.2617 400.096 62.9537 400.245 62.571C400.394 62.179 400.469 61.7497 400.469 61.283C400.469 60.7697 400.39 60.3217 400.231 59.939C400.082 59.547 399.848 59.2437 399.531 59.029C399.223 58.805 398.836 58.693 398.369 58.693C397.669 58.693 397.128 58.9404 396.745 59.435C396.362 59.9204 396.171 60.5364 396.171 61.283C396.171 61.7777 396.264 62.221 396.451 62.613C396.647 62.9957 396.908 63.299 397.235 63.523C397.571 63.7377 397.949 63.845 398.369 63.845ZM400.469 54.969H401.589V64.769H400.567C400.548 64.5637 400.525 64.321 400.497 64.041C400.478 63.761 400.469 63.537 400.469 63.369V54.969ZM405.075 63.397V64.769H403.619V63.397H405.075ZM411.17 60.765V63.719H416.504V64.769H410.05V55.669H416.49V56.719H411.17V59.715H415.524V60.765H411.17ZM418.248 57.769H419.368V64.769H418.248V57.769ZM421.776 57.629C422.149 57.629 422.485 57.685 422.784 57.797C423.082 57.909 423.334 58.0724 423.54 58.287C423.745 58.5017 423.904 58.763 424.016 59.071C424.128 59.3697 424.184 59.7104 424.184 60.093V64.769H423.064V60.373C423.064 59.8317 422.938 59.4257 422.686 59.155C422.434 58.8844 422.056 58.749 421.552 58.749C421.169 58.749 420.814 58.847 420.488 59.043C420.161 59.239 419.89 59.5097 419.676 59.855C419.47 60.191 419.344 60.583 419.298 61.031L419.284 60.219C419.33 59.827 419.424 59.4724 419.564 59.155C419.713 58.8377 419.895 58.567 420.11 58.343C420.334 58.1097 420.586 57.9324 420.866 57.811C421.155 57.6897 421.458 57.629 421.776 57.629ZM426.112 57.769H427.232V67.569H426.112V57.769ZM427.386 54.969V56.327H425.93V54.969H427.386ZM432.169 64.909C431.571 64.909 431.011 64.7644 430.489 64.475C429.966 64.1857 429.541 63.7704 429.215 63.229C428.897 62.6784 428.739 62.0297 428.739 61.283C428.739 60.5364 428.897 59.8924 429.215 59.351C429.541 58.8004 429.966 58.3757 430.489 58.077C431.011 57.7784 431.571 57.629 432.169 57.629C432.766 57.629 433.321 57.7784 433.835 58.077C434.357 58.3757 434.777 58.8004 435.095 59.351C435.412 59.8924 435.571 60.5364 435.571 61.283C435.571 62.0297 435.412 62.6784 435.095 63.229C434.777 63.7704 434.357 64.1857 433.835 64.475C433.321 64.7644 432.766 64.909 432.169 64.909ZM432.169 63.859C432.561 63.859 432.929 63.761 433.275 63.565C433.62 63.369 433.9 63.0797 434.115 62.697C434.339 62.305 434.451 61.8337 434.451 61.283C434.451 60.7324 434.339 60.2657 434.115 59.883C433.9 59.491 433.62 59.1924 433.275 58.987C432.929 58.7817 432.561 58.679 432.169 58.679C431.777 58.679 431.403 58.7817 431.049 58.987C430.703 59.183 430.419 59.477 430.195 59.869C429.971 60.2517 429.859 60.723 429.859 61.283C429.859 61.8337 429.966 62.305 430.181 62.697C430.405 63.0797 430.694 63.369 431.049 63.565C431.403 63.761 431.777 63.859 432.169 63.859ZM436.157 57.769H437.361L439.867 64.489L438.887 64.769L436.157 57.769ZM442.667 57.769L438.761 67.569H437.543L439.237 63.789L441.477 57.769H442.667ZM449.441 64.909C448.89 64.909 448.381 64.755 447.915 64.447C447.457 64.1297 447.089 63.7004 446.809 63.159C446.538 62.6084 446.403 61.983 446.403 61.283C446.403 60.583 446.543 59.9577 446.823 59.407C447.103 58.8564 447.481 58.4224 447.957 58.105C448.442 57.7877 448.983 57.629 449.581 57.629C450.234 57.629 450.729 57.797 451.065 58.133C451.41 58.4597 451.643 58.8984 451.765 59.449C451.895 59.9997 451.961 60.611 451.961 61.283C451.961 61.6377 451.923 62.025 451.849 62.445C451.774 62.8557 451.643 63.2524 451.457 63.635C451.279 64.0084 451.027 64.3164 450.701 64.559C450.374 64.7924 449.954 64.909 449.441 64.909ZM449.721 63.845C450.197 63.845 450.589 63.7284 450.897 63.495C451.214 63.2617 451.447 62.9537 451.597 62.571C451.746 62.179 451.821 61.7497 451.821 61.283C451.821 60.7697 451.741 60.3217 451.583 59.939C451.433 59.547 451.2 59.2437 450.883 59.029C450.575 58.805 450.187 58.693 449.721 58.693C449.021 58.693 448.479 58.9404 448.097 59.435C447.714 59.9204 447.523 60.5364 447.523 61.283C447.523 61.7777 447.616 62.221 447.803 62.613C447.999 62.9957 448.26 63.299 448.587 63.523C448.923 63.7377 449.301 63.845 449.721 63.845ZM451.821 57.769H452.941V64.769H451.919C451.919 64.769 451.909 64.685 451.891 64.517C451.881 64.349 451.867 64.153 451.849 63.929C451.83 63.705 451.821 63.5184 451.821 63.369V57.769ZM454.905 54.969H456.025V64.769H454.905V54.969ZM458.132 54.969H459.252V64.769H458.132V54.969ZM463.668 57.769H467.784V58.819H463.668V57.769ZM465.166 55.949H466.286V64.769H465.166V55.949ZM474.091 64.769V60.373C474.091 60.009 474.035 59.7104 473.923 59.477C473.811 59.2344 473.643 59.0524 473.419 58.931C473.195 58.8097 472.915 58.749 472.579 58.749C472.196 58.749 471.842 58.847 471.515 59.043C471.188 59.239 470.918 59.5097 470.703 59.855C470.498 60.191 470.372 60.583 470.325 61.031L470.311 60.219C470.358 59.827 470.451 59.4724 470.591 59.155C470.74 58.8377 470.922 58.567 471.137 58.343C471.361 58.1097 471.613 57.9324 471.893 57.811C472.182 57.6897 472.486 57.629 472.803 57.629C473.176 57.629 473.512 57.685 473.811 57.797C474.11 57.909 474.362 58.0724 474.567 58.287C474.772 58.5017 474.931 58.763 475.043 59.071C475.155 59.3697 475.211 59.7104 475.211 60.093V64.769H474.091ZM469.275 64.769V54.969H470.395V64.769H469.275ZM481.993 62.515H483.043C482.968 62.9724 482.8 63.383 482.539 63.747C482.287 64.1017 481.951 64.3864 481.531 64.601C481.12 64.8064 480.644 64.909 480.103 64.909C479.449 64.909 478.861 64.755 478.339 64.447C477.816 64.1297 477.401 63.7004 477.093 63.159C476.794 62.6084 476.645 61.983 476.645 61.283C476.645 60.583 476.789 59.9577 477.079 59.407C477.377 58.8564 477.783 58.4224 478.297 58.105C478.81 57.7877 479.389 57.629 480.033 57.629C480.714 57.629 481.288 57.783 481.755 58.091C482.231 58.3897 482.581 58.833 482.805 59.421C483.038 59.9997 483.131 60.7137 483.085 61.563H477.765C477.811 62.0204 477.937 62.4217 478.143 62.767C478.348 63.1124 478.619 63.383 478.955 63.579C479.291 63.7657 479.673 63.859 480.103 63.859C480.579 63.859 480.98 63.7377 481.307 63.495C481.643 63.243 481.871 62.9164 481.993 62.515ZM480.075 58.679C479.496 58.679 479.011 58.847 478.619 59.183C478.227 59.519 477.965 59.9764 477.835 60.555H481.937C481.899 59.939 481.699 59.4724 481.335 59.155C480.98 58.8377 480.56 58.679 480.075 58.679ZM492.424 62.515H493.474C493.4 62.9724 493.232 63.383 492.97 63.747C492.718 64.1017 492.382 64.3864 491.962 64.601C491.552 64.8064 491.076 64.909 490.534 64.909C489.881 64.909 489.293 64.755 488.77 64.447C488.248 64.1297 487.832 63.7004 487.524 63.159C487.226 62.6084 487.076 61.983 487.076 61.283C487.076 60.583 487.221 59.9577 487.51 59.407C487.809 58.8564 488.215 58.4224 488.728 58.105C489.242 57.7877 489.82 57.629 490.464 57.629C491.146 57.629 491.72 57.783 492.186 58.091C492.662 58.3897 493.012 58.833 493.236 59.421C493.47 59.9997 493.563 60.7137 493.516 61.563H488.196C488.243 62.0204 488.369 62.4217 488.574 62.767C488.78 63.1124 489.05 63.383 489.386 63.579C489.722 63.7657 490.105 63.859 490.534 63.859C491.01 63.859 491.412 63.7377 491.738 63.495C492.074 63.243 492.303 62.9164 492.424 62.515ZM490.506 58.679C489.928 58.679 489.442 58.847 489.05 59.183C488.658 59.519 488.397 59.9764 488.266 60.555H492.368C492.331 59.939 492.13 59.4724 491.766 59.155C491.412 58.8377 490.992 58.679 490.506 58.679ZM500.496 57.769L497.78 61.577L495.554 64.769H494.196L497.094 60.751L499.138 57.769H500.496ZM494.196 57.769H495.596L497.766 60.779L500.636 64.769H499.278L497.01 61.577L494.196 57.769ZM507.903 62.137C507.838 62.7157 507.651 63.215 507.343 63.635C507.045 64.0457 506.667 64.363 506.209 64.587C505.752 64.8017 505.257 64.909 504.725 64.909C504.128 64.909 503.568 64.7644 503.045 64.475C502.523 64.1857 502.098 63.7704 501.771 63.229C501.454 62.6784 501.295 62.0297 501.295 61.283C501.295 60.5364 501.454 59.8924 501.771 59.351C502.098 58.8004 502.523 58.3757 503.045 58.077C503.568 57.7784 504.128 57.629 504.725 57.629C505.257 57.629 505.747 57.741 506.195 57.965C506.653 58.189 507.031 58.5064 507.329 58.917C507.637 59.3277 507.829 59.8177 507.903 60.387H506.881C506.723 59.855 506.447 59.4397 506.055 59.141C505.663 58.833 505.22 58.679 504.725 58.679C504.324 58.679 503.946 58.7817 503.591 58.987C503.237 59.1924 502.952 59.491 502.737 59.883C502.523 60.2657 502.415 60.7324 502.415 61.283C502.415 61.8244 502.523 62.291 502.737 62.683C502.952 63.0657 503.232 63.3597 503.577 63.565C503.932 63.761 504.315 63.859 504.725 63.859C505.295 63.859 505.757 63.7097 506.111 63.411C506.475 63.103 506.737 62.6784 506.895 62.137H507.903ZM510.716 54.969V56.327H509.26V54.969H510.716ZM509.428 57.769H510.548V64.769H509.428V57.769ZM511.971 57.769H516.087V58.819H511.971V57.769ZM513.469 55.949H514.589V64.769H513.469V55.949ZM522.229 62.515H523.279C523.204 62.9724 523.036 63.383 522.775 63.747C522.523 64.1017 522.187 64.3864 521.767 64.601C521.356 64.8064 520.88 64.909 520.339 64.909C519.686 64.909 519.098 64.755 518.575 64.447C518.052 64.1297 517.637 63.7004 517.329 63.159C517.03 62.6084 516.881 61.983 516.881 61.283C516.881 60.583 517.026 59.9577 517.315 59.407C517.614 58.8564 518.02 58.4224 518.533 58.105C519.046 57.7877 519.625 57.629 520.269 57.629C520.95 57.629 521.524 57.783 521.991 58.091C522.467 58.3897 522.817 58.833 523.041 59.421C523.274 59.9997 523.368 60.7137 523.321 61.563H518.001C518.048 62.0204 518.174 62.4217 518.379 62.767C518.584 63.1124 518.855 63.383 519.191 63.579C519.527 63.7657 519.91 63.859 520.339 63.859C520.815 63.859 521.216 63.7377 521.543 63.495C521.879 63.243 522.108 62.9164 522.229 62.515ZM520.311 58.679C519.732 58.679 519.247 58.847 518.855 59.183C518.463 59.519 518.202 59.9764 518.071 60.555H522.173C522.136 59.939 521.935 59.4724 521.571 59.155C521.216 58.8377 520.796 58.679 520.311 58.679ZM524.765 57.769H525.885V64.769H524.765V57.769ZM528.293 57.629C528.667 57.629 529.003 57.685 529.301 57.797C529.6 57.909 529.852 58.0724 530.057 58.287C530.263 58.5017 530.421 58.763 530.533 59.071C530.645 59.3697 530.701 59.7104 530.701 60.093V64.769H529.581V60.373C529.581 59.8317 529.455 59.4257 529.203 59.155C528.951 58.8844 528.573 58.749 528.069 58.749C527.687 58.749 527.332 58.847 527.005 59.043C526.679 59.239 526.408 59.5097 526.193 59.855C525.988 60.191 525.862 60.583 525.815 61.031L525.801 60.219C525.848 59.827 525.941 59.4724 526.081 59.155C526.231 58.8377 526.413 58.567 526.627 58.343C526.851 58.1097 527.103 57.9324 527.383 57.811C527.673 57.6897 527.976 57.629 528.293 57.629ZM532.997 57.629C533.371 57.629 533.707 57.685 534.005 57.797C534.304 57.909 534.556 58.0724 534.761 58.287C534.967 58.5017 535.125 58.763 535.237 59.071C535.349 59.3697 535.405 59.7104 535.405 60.093V64.769H534.285V60.373C534.285 59.8317 534.159 59.4257 533.907 59.155C533.655 58.8844 533.277 58.749 532.773 58.749C532.391 58.749 532.036 58.847 531.709 59.043C531.383 59.239 531.112 59.5097 530.897 59.855C530.692 60.191 530.566 60.583 530.519 61.031L530.505 60.219C530.552 59.827 530.645 59.4724 530.785 59.155C530.935 58.8377 531.117 58.567 531.331 58.343C531.555 58.1097 531.807 57.9324 532.087 57.811C532.377 57.6897 532.68 57.629 532.997 57.629ZM542.176 62.515H543.226C543.152 62.9724 542.984 63.383 542.722 63.747C542.47 64.1017 542.134 64.3864 541.714 64.601C541.304 64.8064 540.828 64.909 540.286 64.909C539.633 64.909 539.045 64.755 538.522 64.447C538 64.1297 537.584 63.7004 537.276 63.159C536.978 62.6084 536.828 61.983 536.828 61.283C536.828 60.583 536.973 59.9577 537.262 59.407C537.561 58.8564 537.967 58.4224 538.48 58.105C538.994 57.7877 539.572 57.629 540.216 57.629C540.898 57.629 541.472 57.783 541.938 58.091C542.414 58.3897 542.764 58.833 542.988 59.421C543.222 59.9997 543.315 60.7137 543.268 61.563H537.948C537.995 62.0204 538.121 62.4217 538.326 62.767C538.532 63.1124 538.802 63.383 539.138 63.579C539.474 63.7657 539.857 63.859 540.286 63.859C540.762 63.859 541.164 63.7377 541.49 63.495C541.826 63.243 542.055 62.9164 542.176 62.515ZM540.258 58.679C539.68 58.679 539.194 58.847 538.802 59.183C538.41 59.519 538.149 59.9764 538.018 60.555H542.12C542.083 59.939 541.882 59.4724 541.518 59.155C541.164 58.8377 540.744 58.679 540.258 58.679ZM544.713 57.769H545.833V64.769H544.713V57.769ZM548.241 57.629C548.614 57.629 548.95 57.685 549.249 57.797C549.547 57.909 549.799 58.0724 550.005 58.287C550.21 58.5017 550.369 58.763 550.481 59.071C550.593 59.3697 550.649 59.7104 550.649 60.093V64.769H549.529V60.373C549.529 59.8317 549.403 59.4257 549.151 59.155C548.899 58.8844 548.521 58.749 548.017 58.749C547.634 58.749 547.279 58.847 546.953 59.043C546.626 59.239 546.355 59.5097 546.141 59.855C545.935 60.191 545.809 60.583 545.763 61.031L545.749 60.219C545.795 59.827 545.889 59.4724 546.029 59.155C546.178 58.8377 546.36 58.567 546.575 58.343C546.799 58.1097 547.051 57.9324 547.331 57.811C547.62 57.6897 547.923 57.629 548.241 57.629ZM551.975 57.769H556.091V58.819H551.975V57.769ZM553.473 55.949H554.593V64.769H553.473V55.949ZM567.381 63.747L567.101 63.733L568.739 57.769H569.957L567.815 64.769H566.765L564.693 58.637H564.973L562.901 64.769H561.851L559.723 57.769H560.941L562.551 63.733L562.271 63.747L564.161 57.769H565.519L567.381 63.747ZM572.54 54.969V56.327H571.084V54.969H572.54ZM571.252 57.769H572.372V64.769H571.252V57.769ZM573.795 57.769H577.911V58.819H573.795V57.769ZM575.293 55.949H576.413V64.769H575.293V55.949ZM584.218 64.769V60.373C584.218 60.009 584.162 59.7104 584.05 59.477C583.938 59.2344 583.77 59.0524 583.546 58.931C583.322 58.8097 583.042 58.749 582.706 58.749C582.323 58.749 581.969 58.847 581.642 59.043C581.315 59.239 581.045 59.5097 580.83 59.855C580.625 60.191 580.499 60.583 580.452 61.031L580.438 60.219C580.485 59.827 580.578 59.4724 580.718 59.155C580.867 58.8377 581.049 58.567 581.264 58.343C581.488 58.1097 581.74 57.9324 582.02 57.811C582.309 57.6897 582.613 57.629 582.93 57.629C583.303 57.629 583.639 57.685 583.938 57.797C584.237 57.909 584.489 58.0724 584.694 58.287C584.899 58.5017 585.058 58.763 585.17 59.071C585.282 59.3697 585.338 59.7104 585.338 60.093V64.769H584.218ZM579.402 64.769V54.969H580.522V64.769H579.402ZM590.103 57.769H591.223V64.769H590.103V57.769ZM593.631 57.629C594.005 57.629 594.341 57.685 594.639 57.797C594.938 57.909 595.19 58.0724 595.395 58.287C595.601 58.5017 595.759 58.763 595.871 59.071C595.983 59.3697 596.039 59.7104 596.039 60.093V64.769H594.919V60.373C594.919 59.8317 594.793 59.4257 594.541 59.155C594.289 58.8844 593.911 58.749 593.407 58.749C593.025 58.749 592.67 58.847 592.343 59.043C592.017 59.239 591.746 59.5097 591.531 59.855C591.326 60.191 591.2 60.583 591.153 61.031L591.139 60.219C591.186 59.827 591.279 59.4724 591.419 59.155C591.569 58.8377 591.751 58.567 591.965 58.343C592.189 58.1097 592.441 57.9324 592.721 57.811C593.011 57.6897 593.314 57.629 593.631 57.629ZM600.893 64.909C600.296 64.909 599.736 64.7644 599.213 64.475C598.691 64.1857 598.266 63.7704 597.939 63.229C597.622 62.6784 597.463 62.0297 597.463 61.283C597.463 60.5364 597.622 59.8924 597.939 59.351C598.266 58.8004 598.691 58.3757 599.213 58.077C599.736 57.7784 600.296 57.629 600.893 57.629C601.491 57.629 602.046 57.7784 602.559 58.077C603.082 58.3757 603.502 58.8004 603.819 59.351C604.137 59.8924 604.295 60.5364 604.295 61.283C604.295 62.0297 604.137 62.6784 603.819 63.229C603.502 63.7704 603.082 64.1857 602.559 64.475C602.046 64.7644 601.491 64.909 600.893 64.909ZM600.893 63.859C601.285 63.859 601.654 63.761 601.999 63.565C602.345 63.369 602.625 63.0797 602.839 62.697C603.063 62.305 603.175 61.8337 603.175 61.283C603.175 60.7324 603.063 60.2657 602.839 59.883C602.625 59.491 602.345 59.1924 601.999 58.987C601.654 58.7817 601.285 58.679 600.893 58.679C600.501 58.679 600.128 58.7817 599.773 58.987C599.428 59.183 599.143 59.477 598.919 59.869C598.695 60.2517 598.583 60.723 598.583 61.283C598.583 61.8337 598.691 62.305 598.905 62.697C599.129 63.0797 599.419 63.369 599.773 63.565C600.128 63.761 600.501 63.859 600.893 63.859ZM605.717 57.769H606.837V64.769H605.717V57.769ZM609.245 57.629C609.618 57.629 609.954 57.685 610.253 57.797C610.551 57.909 610.803 58.0724 611.009 58.287C611.214 58.5017 611.373 58.763 611.485 59.071C611.597 59.3697 611.653 59.7104 611.653 60.093V64.769H610.533V60.373C610.533 59.8317 610.407 59.4257 610.155 59.155C609.903 58.8844 609.525 58.749 609.021 58.749C608.638 58.749 608.283 58.847 607.957 59.043C607.63 59.239 607.359 59.5097 607.145 59.855C606.939 60.191 606.813 60.583 606.767 61.031L606.753 60.219C606.799 59.827 606.893 59.4724 607.033 59.155C607.182 58.8377 607.364 58.567 607.579 58.343C607.803 58.1097 608.055 57.9324 608.335 57.811C608.624 57.6897 608.927 57.629 609.245 57.629ZM619.446 64.909C618.849 64.909 618.289 64.7644 617.766 64.475C617.243 64.1857 616.819 63.7704 616.492 63.229C616.175 62.6784 616.016 62.0297 616.016 61.283C616.016 60.5364 616.175 59.8924 616.492 59.351C616.819 58.8004 617.243 58.3757 617.766 58.077C618.289 57.7784 618.849 57.629 619.446 57.629C620.043 57.629 620.599 57.7784 621.112 58.077C621.635 58.3757 622.055 58.8004 622.372 59.351C622.689 59.8924 622.848 60.5364 622.848 61.283C622.848 62.0297 622.689 62.6784 622.372 63.229C622.055 63.7704 621.635 64.1857 621.112 64.475C620.599 64.7644 620.043 64.909 619.446 64.909ZM619.446 63.859C619.838 63.859 620.207 63.761 620.552 63.565C620.897 63.369 621.177 63.0797 621.392 62.697C621.616 62.305 621.728 61.8337 621.728 61.283C621.728 60.7324 621.616 60.2657 621.392 59.883C621.177 59.491 620.897 59.1924 620.552 58.987C620.207 58.7817 619.838 58.679 619.446 58.679C619.054 58.679 618.681 58.7817 618.326 58.987C617.981 59.183 617.696 59.477 617.472 59.869C617.248 60.2517 617.136 60.723 617.136 61.283C617.136 61.8337 617.243 62.305 617.458 62.697C617.682 63.0797 617.971 63.369 618.326 63.565C618.681 63.761 619.054 63.859 619.446 63.859ZM623.643 57.769H627.759V58.819H623.643V57.769ZM627.269 54.969H627.913V56.089H627.269C627.035 56.0797 626.821 56.1124 626.625 56.187C626.438 56.2617 626.289 56.3924 626.177 56.579C626.065 56.7564 626.009 57.013 626.009 57.349V64.769H624.889V57.349C624.889 56.789 624.987 56.3364 625.183 55.991C625.388 55.6364 625.668 55.3797 626.023 55.221C626.387 55.053 626.802 54.969 627.269 54.969ZM631.436 57.769H635.552V58.819H631.436V57.769ZM632.934 55.949H634.054V64.769H632.934V55.949ZM641.859 64.769V60.373C641.859 60.009 641.803 59.7104 641.691 59.477C641.579 59.2344 641.411 59.0524 641.187 58.931C640.963 58.8097 640.683 58.749 640.347 58.749C639.964 58.749 639.609 58.847 639.283 59.043C638.956 59.239 638.685 59.5097 638.471 59.855C638.265 60.191 638.139 60.583 638.093 61.031L638.079 60.219C638.125 59.827 638.219 59.4724 638.359 59.155C638.508 58.8377 638.69 58.567 638.905 58.343C639.129 58.1097 639.381 57.9324 639.661 57.811C639.95 57.6897 640.253 57.629 640.571 57.629C640.944 57.629 641.28 57.685 641.579 57.797C641.877 57.909 642.129 58.0724 642.335 58.287C642.54 58.5017 642.699 58.763 642.811 59.071C642.923 59.3697 642.979 59.7104 642.979 60.093V64.769H641.859ZM637.043 64.769V54.969H638.163V64.769H637.043ZM649.76 62.515H650.81C650.736 62.9724 650.568 63.383 650.306 63.747C650.054 64.1017 649.718 64.3864 649.298 64.601C648.888 64.8064 648.412 64.909 647.87 64.909C647.217 64.909 646.629 64.755 646.106 64.447C645.584 64.1297 645.168 63.7004 644.86 63.159C644.562 62.6084 644.412 61.983 644.412 61.283C644.412 60.583 644.557 59.9577 644.846 59.407C645.145 58.8564 645.551 58.4224 646.064 58.105C646.578 57.7877 647.156 57.629 647.8 57.629C648.482 57.629 649.056 57.783 649.522 58.091C649.998 58.3897 650.348 58.833 650.572 59.421C650.806 59.9997 650.899 60.7137 650.852 61.563H645.532C645.579 62.0204 645.705 62.4217 645.91 62.767C646.116 63.1124 646.386 63.383 646.722 63.579C647.058 63.7657 647.441 63.859 647.87 63.859C648.346 63.859 648.748 63.7377 649.074 63.495C649.41 63.243 649.639 62.9164 649.76 62.515ZM647.842 58.679C647.264 58.679 646.778 58.847 646.386 59.183C645.994 59.519 645.733 59.9764 645.602 60.555H649.704C649.667 59.939 649.466 59.4724 649.102 59.155C648.748 58.8377 648.328 58.679 647.842 58.679ZM654.9 62.515H655.936C655.964 62.9164 656.113 63.243 656.384 63.495C656.664 63.747 657.065 63.873 657.588 63.873C657.905 63.873 658.153 63.831 658.33 63.747C658.517 63.663 658.652 63.551 658.736 63.411C658.82 63.2617 658.862 63.0984 658.862 62.921C658.862 62.7064 658.806 62.5384 658.694 62.417C658.591 62.2864 658.447 62.179 658.26 62.095C658.083 62.011 657.877 61.9317 657.644 61.857C657.373 61.7544 657.093 61.647 656.804 61.535C656.524 61.4137 656.258 61.2737 656.006 61.115C655.763 60.947 655.567 60.7464 655.418 60.513C655.269 60.2704 655.194 59.981 655.194 59.645C655.194 59.365 655.25 59.1037 655.362 58.861C655.474 58.609 655.633 58.3944 655.838 58.217C656.053 58.0304 656.3 57.8857 656.58 57.783C656.869 57.6804 657.187 57.629 657.532 57.629C657.999 57.629 658.391 57.7224 658.708 57.909C659.035 58.0957 659.282 58.3617 659.45 58.707C659.627 59.043 659.721 59.435 659.73 59.883H658.764C658.699 59.463 658.563 59.1597 658.358 58.973C658.162 58.777 657.877 58.679 657.504 58.679C657.121 58.679 656.827 58.763 656.622 58.931C656.417 59.099 656.314 59.323 656.314 59.603C656.314 59.8084 656.389 59.981 656.538 60.121C656.687 60.2517 656.879 60.373 657.112 60.485C657.355 60.5877 657.611 60.695 657.882 60.807C658.153 60.919 658.414 61.031 658.666 61.143C658.918 61.255 659.142 61.3857 659.338 61.535C659.534 61.6844 659.688 61.871 659.8 62.095C659.921 62.3097 659.982 62.5804 659.982 62.907C659.982 63.299 659.889 63.649 659.702 63.957C659.525 64.2557 659.259 64.489 658.904 64.657C658.559 64.825 658.134 64.909 657.63 64.909C657.173 64.909 656.781 64.853 656.454 64.741C656.137 64.6197 655.871 64.4657 655.656 64.279C655.441 64.083 655.273 63.8777 655.152 63.663C655.04 63.4484 654.965 63.2384 654.928 63.033C654.891 62.8277 654.881 62.655 654.9 62.515ZM660.926 57.769H665.042V58.819H660.926V57.769ZM662.424 55.949H663.544V64.769H662.424V55.949ZM666.365 57.769H667.485V64.769H666.365V57.769ZM669.725 58.819C669.249 58.819 668.848 58.9404 668.521 59.183C668.204 59.4164 667.952 59.7057 667.765 60.051C667.588 60.387 667.471 60.7137 667.415 61.031L667.401 60.219C667.401 60.135 667.42 59.995 667.457 59.799C667.494 59.603 667.564 59.3837 667.667 59.141C667.77 58.889 667.905 58.651 668.073 58.427C668.25 58.1937 668.474 58.0024 668.745 57.853C669.016 57.7037 669.342 57.629 669.725 57.629V58.819ZM675.942 62.515H676.992C676.917 62.9724 676.749 63.383 676.488 63.747C676.236 64.1017 675.9 64.3864 675.48 64.601C675.069 64.8064 674.593 64.909 674.052 64.909C673.399 64.909 672.811 64.755 672.288 64.447C671.765 64.1297 671.35 63.7004 671.042 63.159C670.743 62.6084 670.594 61.983 670.594 61.283C670.594 60.583 670.739 59.9577 671.028 59.407C671.327 58.8564 671.733 58.4224 672.246 58.105C672.759 57.7877 673.338 57.629 673.982 57.629C674.663 57.629 675.237 57.783 675.704 58.091C676.18 58.3897 676.53 58.833 676.754 59.421C676.987 59.9997 677.081 60.7137 677.034 61.563H671.714C671.761 62.0204 671.887 62.4217 672.092 62.767C672.297 63.1124 672.568 63.383 672.904 63.579C673.24 63.7657 673.623 63.859 674.052 63.859C674.528 63.859 674.929 63.7377 675.256 63.495C675.592 63.243 675.821 62.9164 675.942 62.515ZM674.024 58.679C673.445 58.679 672.96 58.847 672.568 59.183C672.176 59.519 671.915 59.9764 671.784 60.555H675.886C675.849 59.939 675.648 59.4724 675.284 59.155C674.929 58.8377 674.509 58.679 674.024 58.679ZM678.142 62.515H679.178C679.206 62.9164 679.356 63.243 679.626 63.495C679.906 63.747 680.308 63.873 680.83 63.873C681.148 63.873 681.395 63.831 681.572 63.747C681.759 63.663 681.894 63.551 681.978 63.411C682.062 63.2617 682.104 63.0984 682.104 62.921C682.104 62.7064 682.048 62.5384 681.936 62.417C681.834 62.2864 681.689 62.179 681.502 62.095C681.325 62.011 681.12 61.9317 680.886 61.857C680.616 61.7544 680.336 61.647 680.046 61.535C679.766 61.4137 679.5 61.2737 679.248 61.115C679.006 60.947 678.81 60.7464 678.66 60.513C678.511 60.2704 678.436 59.981 678.436 59.645C678.436 59.365 678.492 59.1037 678.604 58.861C678.716 58.609 678.875 58.3944 679.08 58.217C679.295 58.0304 679.542 57.8857 679.822 57.783C680.112 57.6804 680.429 57.629 680.774 57.629C681.241 57.629 681.633 57.7224 681.95 57.909C682.277 58.0957 682.524 58.3617 682.692 58.707C682.87 59.043 682.963 59.435 682.972 59.883H682.006C681.941 59.463 681.806 59.1597 681.6 58.973C681.404 58.777 681.12 58.679 680.746 58.679C680.364 58.679 680.07 58.763 679.864 58.931C679.659 59.099 679.556 59.323 679.556 59.603C679.556 59.8084 679.631 59.981 679.78 60.121C679.93 60.2517 680.121 60.373 680.354 60.485C680.597 60.5877 680.854 60.695 681.124 60.807C681.395 60.919 681.656 61.031 681.908 61.143C682.16 61.255 682.384 61.3857 682.58 61.535C682.776 61.6844 682.93 61.871 683.042 62.095C683.164 62.3097 683.224 62.5804 683.224 62.907C683.224 63.299 683.131 63.649 682.944 63.957C682.767 64.2557 682.501 64.489 682.146 64.657C681.801 64.825 681.376 64.909 680.872 64.909C680.415 64.909 680.023 64.853 679.696 64.741C679.379 64.6197 679.113 64.4657 678.898 64.279C678.684 64.083 678.516 63.8777 678.394 63.663C678.282 63.4484 678.208 63.2384 678.17 63.033C678.133 62.8277 678.124 62.655 678.142 62.515ZM684.322 62.515H685.358C685.386 62.9164 685.535 63.243 685.806 63.495C686.086 63.747 686.487 63.873 687.01 63.873C687.327 63.873 687.575 63.831 687.752 63.747C687.939 63.663 688.074 63.551 688.158 63.411C688.242 63.2617 688.284 63.0984 688.284 62.921C688.284 62.7064 688.228 62.5384 688.116 62.417C688.013 62.2864 687.869 62.179 687.682 62.095C687.505 62.011 687.299 61.9317 687.066 61.857C686.795 61.7544 686.515 61.647 686.226 61.535C685.946 61.4137 685.68 61.2737 685.428 61.115C685.185 60.947 684.989 60.7464 684.84 60.513C684.691 60.2704 684.616 59.981 684.616 59.645C684.616 59.365 684.672 59.1037 684.784 58.861C684.896 58.609 685.055 58.3944 685.26 58.217C685.475 58.0304 685.722 57.8857 686.002 57.783C686.291 57.6804 686.609 57.629 686.954 57.629C687.421 57.629 687.813 57.7224 688.13 57.909C688.457 58.0957 688.704 58.3617 688.872 58.707C689.049 59.043 689.143 59.435 689.152 59.883H688.186C688.121 59.463 687.985 59.1597 687.78 58.973C687.584 58.777 687.299 58.679 686.926 58.679C686.543 58.679 686.249 58.763 686.044 58.931C685.839 59.099 685.736 59.323 685.736 59.603C685.736 59.8084 685.811 59.981 685.96 60.121C686.109 60.2517 686.301 60.373 686.534 60.485C686.777 60.5877 687.033 60.695 687.304 60.807C687.575 60.919 687.836 61.031 688.088 61.143C688.34 61.255 688.564 61.3857 688.76 61.535C688.956 61.6844 689.11 61.871 689.222 62.095C689.343 62.3097 689.404 62.5804 689.404 62.907C689.404 63.299 689.311 63.649 689.124 63.957C688.947 64.2557 688.681 64.489 688.326 64.657C687.981 64.825 687.556 64.909 687.052 64.909C686.595 64.909 686.203 64.853 685.876 64.741C685.559 64.6197 685.293 64.4657 685.078 64.279C684.863 64.083 684.695 63.8777 684.574 63.663C684.462 63.4484 684.387 63.2384 684.35 63.033C684.313 62.8277 684.303 62.655 684.322 62.515ZM692.294 63.397V64.769H690.838V63.397H692.294Z" fill="black"/>
</g>
<defs>
<clipPath id="clip0_6987_65664">
<rect width="813" height="203" fill="white" transform="translate(0.87207)"/>
</clipPath>
</defs>
</svg>
